<?xml version="1.0" encoding="utf-8" standalone="no"?>
<!DOCTYPE svg PUBLIC "-//W3C//DTD SVG 1.1//EN"
  "http://www.w3.org/Graphics/SVG/1.1/DTD/svg11.dtd">
<svg xmlns:xlink="http://www.w3.org/1999/xlink" width="56.16pt" height="84.96pt" viewBox="0 0 56.16 84.96" xmlns="http://www.w3.org/2000/svg" version="1.1">
 <metadata>
  <rdf:RDF xmlns:dc="http://purl.org/dc/elements/1.1/" xmlns:cc="http://creativecommons.org/ns#" xmlns:rdf="http://www.w3.org/1999/02/22-rdf-syntax-ns#">
   <cc:Work>
    <dc:type rdf:resource="http://purl.org/dc/dcmitype/StillImage"/>
    <dc:date>2024-05-27T15:37:13.739491</dc:date>
    <dc:format>image/svg+xml</dc:format>
    <dc:creator>
     <cc:Agent>
      <dc:title>Matplotlib v3.8.3, https://matplotlib.org/</dc:title>
     </cc:Agent>
    </dc:creator>
   </cc:Work>
  </rdf:RDF>
 </metadata>
 <defs>
  <style type="text/css">*{stroke-linejoin: round; stroke-linecap: butt}</style>
 </defs>
 <g id="figure_1">
  <g id="patch_1">
   <path d="M 0 84.96 
L 56.16 84.96 
L 56.16 0 
L 0 0 
z
" style="fill: #ffffff"/>
  </g>
  <g id="axes_1">
   <g id="patch_2">
    <path d="M 13.341646 74.419526 
L 53.15976 74.419526 
L 53.15976 4.076256 
L 13.341646 4.076256 
z
" style="fill: #ffffff"/>
   </g>
   <g id="matplotlib.axis_1">
    <g id="xtick_1">
     <g id="text_1">
      <!-- T -->
      <g style="fill: #333333" transform="translate(22.227307 81.230229) scale(0.035 -0.035)">
       <defs>
        <path id="Helvetica-54" d="M 3828 4591 
L 3828 4044 
L 2281 4044 
L 2281 0 
L 1650 0 
L 1650 4044 
L 103 4044 
L 103 4591 
L 3828 4591 
z
" transform="scale(0.015625)"/>
       </defs>
       <use xlink:href="#Helvetica-54"/>
      </g>
     </g>
    </g>
    <g id="xtick_2">
     <g id="text_2">
      <!-- IL7R Non T -->
      <g style="fill: #333333" transform="translate(34.257536 81.230229) scale(0.035 -0.035)">
       <defs>
        <path id="Helvetica-49" d="M 628 4591 
L 1256 4591 
L 1256 0 
L 628 0 
L 628 4591 
z
" transform="scale(0.015625)"/>
        <path id="Helvetica-4c" d="M 488 4591 
L 1109 4591 
L 1109 547 
L 3434 547 
L 3434 0 
L 488 0 
L 488 4591 
z
" transform="scale(0.015625)"/>
        <path id="Helvetica-37" d="M 3347 4400 
L 3347 3909 
Q 3131 3700 2773 3181 
Q 2416 2663 2141 2063 
Q 1869 1478 1728 997 
Q 1638 688 1494 0 
L 872 0 
Q 1084 1281 1809 2550 
Q 2238 3294 2709 3834 
L 234 3834 
L 234 4400 
L 3347 4400 
z
" transform="scale(0.015625)"/>
        <path id="Helvetica-52" d="M 2622 2488 
Q 3059 2488 3314 2663 
Q 3569 2838 3569 3294 
Q 3569 3784 3213 3963 
Q 3022 4056 2703 4056 
L 1184 4056 
L 1184 2488 
L 2622 2488 
z
M 563 4591 
L 2688 4591 
Q 3213 4591 3553 4438 
Q 4200 4144 4200 3353 
Q 4200 2941 4029 2678 
Q 3859 2416 3553 2256 
Q 3822 2147 3958 1969 
Q 4094 1791 4109 1391 
L 4131 775 
Q 4141 513 4175 384 
Q 4231 166 4375 103 
L 4375 0 
L 3613 0 
Q 3581 59 3562 153 
Q 3544 247 3531 516 
L 3494 1281 
Q 3472 1731 3159 1884 
Q 2981 1969 2600 1969 
L 1184 1969 
L 1184 0 
L 563 0 
L 563 4591 
z
" transform="scale(0.015625)"/>
        <path id="Helvetica-20" transform="scale(0.015625)"/>
        <path id="Helvetica-4e" d="M 488 4591 
L 1222 4591 
L 3541 872 
L 3541 4591 
L 4131 4591 
L 4131 0 
L 3434 0 
L 1081 3716 
L 1081 0 
L 488 0 
L 488 4591 
z
M 2269 4591 
L 2269 4591 
z
" transform="scale(0.015625)"/>
        <path id="Helvetica-6f" d="M 1741 363 
Q 2300 363 2508 786 
Q 2716 1209 2716 1728 
Q 2716 2197 2566 2491 
Q 2328 2953 1747 2953 
Q 1231 2953 997 2559 
Q 763 2166 763 1609 
Q 763 1075 997 719 
Q 1231 363 1741 363 
z
M 1763 3444 
Q 2409 3444 2856 3012 
Q 3303 2581 3303 1744 
Q 3303 934 2909 406 
Q 2516 -122 1688 -122 
Q 997 -122 590 345 
Q 184 813 184 1600 
Q 184 2444 612 2944 
Q 1041 3444 1763 3444 
z
M 1744 3428 
L 1744 3428 
z
" transform="scale(0.015625)"/>
        <path id="Helvetica-6e" d="M 413 3347 
L 947 3347 
L 947 2872 
Q 1184 3166 1450 3294 
Q 1716 3422 2041 3422 
Q 2753 3422 3003 2925 
Q 3141 2653 3141 2147 
L 3141 0 
L 2569 0 
L 2569 2109 
Q 2569 2416 2478 2603 
Q 2328 2916 1934 2916 
Q 1734 2916 1606 2875 
Q 1375 2806 1200 2600 
Q 1059 2434 1017 2257 
Q 975 2081 975 1753 
L 975 0 
L 413 0 
L 413 3347 
z
M 1734 3428 
L 1734 3428 
z
" transform="scale(0.015625)"/>
       </defs>
       <use xlink:href="#Helvetica-49"/>
       <use xlink:href="#Helvetica-4c" x="27.783203"/>
       <use xlink:href="#Helvetica-37" x="83.398438"/>
       <use xlink:href="#Helvetica-52" x="139.013672"/>
       <use xlink:href="#Helvetica-20" x="211.230469"/>
       <use xlink:href="#Helvetica-4e" x="239.013672"/>
       <use xlink:href="#Helvetica-6f" x="311.230469"/>
       <use xlink:href="#Helvetica-6e" x="366.845703"/>
       <use xlink:href="#Helvetica-20" x="422.460938"/>
       <use xlink:href="#Helvetica-54" x="450.244141"/>
      </g>
     </g>
    </g>
   </g>
   <g id="matplotlib.axis_2">
    <g id="ytick_1">
     <g id="line2d_1">
      <defs>
       <path id="mca8bc7ffc5" d="M 0 0 
L -1 0 
" style="stroke: #777777; stroke-width: 0.5"/>
      </defs>
      <g>
       <use xlink:href="#mca8bc7ffc5" x="13.341646" y="68.030497" style="fill: #777777; stroke: #777777; stroke-width: 0.5"/>
      </g>
     </g>
     <g id="text_3">
      <!-- 0 -->
      <g style="fill: #333333" transform="translate(9.673365 69.106513) scale(0.03 -0.03)">
       <defs>
        <path id="Helvetica-30" d="M 1731 4475 
Q 2600 4475 2988 3759 
Q 3288 3206 3288 2244 
Q 3288 1331 3016 734 
Q 2622 -122 1728 -122 
Q 922 -122 528 578 
Q 200 1163 200 2147 
Q 200 2909 397 3456 
Q 766 4475 1731 4475 
z
M 1725 391 
Q 2163 391 2422 778 
Q 2681 1166 2681 2222 
Q 2681 2984 2493 3476 
Q 2306 3969 1766 3969 
Q 1269 3969 1039 3501 
Q 809 3034 809 2125 
Q 809 1441 956 1025 
Q 1181 391 1725 391 
z
" transform="scale(0.015625)"/>
       </defs>
       <use xlink:href="#Helvetica-30"/>
      </g>
     </g>
    </g>
    <g id="ytick_2">
     <g id="line2d_2">
      <g>
       <use xlink:href="#mca8bc7ffc5" x="13.341646" y="55.239649" style="fill: #777777; stroke: #777777; stroke-width: 0.5"/>
      </g>
     </g>
     <g id="text_4">
      <!-- 2000 -->
      <g style="fill: #333333" transform="translate(4.668521 56.315664) scale(0.03 -0.03)">
       <defs>
        <path id="Helvetica-32" d="M 200 0 
Q 231 578 439 1006 
Q 647 1434 1250 1784 
L 1850 2131 
Q 2253 2366 2416 2531 
Q 2672 2791 2672 3125 
Q 2672 3516 2437 3745 
Q 2203 3975 1813 3975 
Q 1234 3975 1013 3538 
Q 894 3303 881 2888 
L 309 2888 
Q 319 3472 525 3841 
Q 891 4491 1816 4491 
Q 2584 4491 2939 4075 
Q 3294 3659 3294 3150 
Q 3294 2613 2916 2231 
Q 2697 2009 2131 1694 
L 1703 1456 
Q 1397 1288 1222 1134 
Q 909 863 828 531 
L 3272 531 
L 3272 0 
L 200 0 
z
" transform="scale(0.015625)"/>
       </defs>
       <use xlink:href="#Helvetica-32"/>
       <use xlink:href="#Helvetica-30" x="55.615234"/>
       <use xlink:href="#Helvetica-30" x="111.230469"/>
       <use xlink:href="#Helvetica-30" x="166.845703"/>
      </g>
     </g>
    </g>
    <g id="ytick_3">
     <g id="line2d_3">
      <g>
       <use xlink:href="#mca8bc7ffc5" x="13.341646" y="42.4488" style="fill: #777777; stroke: #777777; stroke-width: 0.5"/>
      </g>
     </g>
     <g id="text_5">
      <!-- 4000 -->
      <g style="fill: #333333" transform="translate(4.668521 43.524816) scale(0.03 -0.03)">
       <defs>
        <path id="Helvetica-34" d="M 2116 1584 
L 2116 3613 
L 681 1584 
L 2116 1584 
z
M 2125 0 
L 2125 1094 
L 163 1094 
L 163 1644 
L 2213 4488 
L 2688 4488 
L 2688 1584 
L 3347 1584 
L 3347 1094 
L 2688 1094 
L 2688 0 
L 2125 0 
z
" transform="scale(0.015625)"/>
       </defs>
       <use xlink:href="#Helvetica-34"/>
       <use xlink:href="#Helvetica-30" x="55.615234"/>
       <use xlink:href="#Helvetica-30" x="111.230469"/>
       <use xlink:href="#Helvetica-30" x="166.845703"/>
      </g>
     </g>
    </g>
    <g id="ytick_4">
     <g id="line2d_4">
      <g>
       <use xlink:href="#mca8bc7ffc5" x="13.341646" y="29.657952" style="fill: #777777; stroke: #777777; stroke-width: 0.5"/>
      </g>
     </g>
     <g id="text_6">
      <!-- 6000 -->
      <g style="fill: #333333" transform="translate(4.668521 30.733968) scale(0.03 -0.03)">
       <defs>
        <path id="Helvetica-36" d="M 1872 4494 
Q 2622 4494 2917 4105 
Q 3213 3716 3213 3303 
L 2656 3303 
Q 2606 3569 2497 3719 
Q 2294 4000 1881 4000 
Q 1409 4000 1131 3564 
Q 853 3128 822 2316 
Q 1016 2600 1309 2741 
Q 1578 2866 1909 2866 
Q 2472 2866 2890 2506 
Q 3309 2147 3309 1434 
Q 3309 825 2912 354 
Q 2516 -116 1781 -116 
Q 1153 -116 697 361 
Q 241 838 241 1966 
Q 241 2800 444 3381 
Q 834 4494 1872 4494 
z
M 1831 384 
Q 2275 384 2495 682 
Q 2716 981 2716 1388 
Q 2716 1731 2519 2042 
Q 2322 2353 1803 2353 
Q 1441 2353 1167 2112 
Q 894 1872 894 1388 
Q 894 963 1142 673 
Q 1391 384 1831 384 
z
" transform="scale(0.015625)"/>
       </defs>
       <use xlink:href="#Helvetica-36"/>
       <use xlink:href="#Helvetica-30" x="55.615234"/>
       <use xlink:href="#Helvetica-30" x="111.230469"/>
       <use xlink:href="#Helvetica-30" x="166.845703"/>
      </g>
     </g>
    </g>
    <g id="ytick_5">
     <g id="line2d_5">
      <g>
       <use xlink:href="#mca8bc7ffc5" x="13.341646" y="16.867104" style="fill: #777777; stroke: #777777; stroke-width: 0.5"/>
      </g>
     </g>
     <g id="text_7">
      <!-- 8000 -->
      <g style="fill: #333333" transform="translate(4.668521 17.94312) scale(0.03 -0.03)">
       <defs>
        <path id="Helvetica-38" d="M 1741 2600 
Q 2113 2600 2322 2808 
Q 2531 3016 2531 3303 
Q 2531 3553 2331 3762 
Q 2131 3972 1722 3972 
Q 1316 3972 1134 3762 
Q 953 3553 953 3272 
Q 953 2956 1187 2778 
Q 1422 2600 1741 2600 
z
M 1775 384 
Q 2166 384 2423 595 
Q 2681 806 2681 1225 
Q 2681 1659 2415 1884 
Q 2150 2109 1734 2109 
Q 1331 2109 1076 1879 
Q 822 1650 822 1244 
Q 822 894 1055 639 
Q 1288 384 1775 384 
z
M 975 2384 
Q 741 2484 609 2619 
Q 363 2869 363 3269 
Q 363 3769 725 4128 
Q 1088 4488 1753 4488 
Q 2397 4488 2762 4148 
Q 3128 3809 3128 3356 
Q 3128 2938 2916 2678 
Q 2797 2531 2547 2391 
Q 2825 2263 2984 2097 
Q 3281 1784 3281 1284 
Q 3281 694 2884 283 
Q 2488 -128 1763 -128 
Q 1109 -128 657 226 
Q 206 581 206 1256 
Q 206 1653 400 1942 
Q 594 2231 975 2384 
z
" transform="scale(0.015625)"/>
       </defs>
       <use xlink:href="#Helvetica-38"/>
       <use xlink:href="#Helvetica-30" x="55.615234"/>
       <use xlink:href="#Helvetica-30" x="111.230469"/>
       <use xlink:href="#Helvetica-30" x="166.845703"/>
      </g>
     </g>
    </g>
    <g id="ytick_6">
     <g id="line2d_6">
      <g>
       <use xlink:href="#mca8bc7ffc5" x="13.341646" y="4.076256" style="fill: #777777; stroke: #777777; stroke-width: 0.5"/>
      </g>
     </g>
     <g id="text_8">
      <!-- 10000 -->
      <g style="fill: #333333" transform="translate(3.00024 5.152271) scale(0.03 -0.03)">
       <defs>
        <path id="Helvetica-31" d="M 613 3169 
L 613 3600 
Q 1222 3659 1462 3798 
Q 1703 3938 1822 4456 
L 2266 4456 
L 2266 0 
L 1666 0 
L 1666 3169 
L 613 3169 
z
" transform="scale(0.015625)"/>
       </defs>
       <use xlink:href="#Helvetica-31"/>
       <use xlink:href="#Helvetica-30" x="55.615234"/>
       <use xlink:href="#Helvetica-30" x="111.230469"/>
       <use xlink:href="#Helvetica-30" x="166.845703"/>
       <use xlink:href="#Helvetica-30" x="222.460938"/>
      </g>
     </g>
    </g>
   </g>
   <g id="PolyCollection_1">
    <defs>
     <path id="mcfebd3a501" d="M 24.878312 -17.587958 
L 21.714037 -17.587958 
L 21.445239 -17.822802 
L 21.151171 -18.057647 
L 20.833537 -18.292491 
L 20.494863 -18.527336 
L 20.138471 -18.76218 
L 19.768411 -18.997025 
L 19.38934 -19.231869 
L 19.006365 -19.466714 
L 18.624848 -19.701558 
L 18.250184 -19.936403 
L 17.887576 -20.171247 
L 17.541806 -20.406091 
L 17.217039 -20.640936 
L 16.916653 -20.87578 
L 16.643133 -21.110625 
L 16.39801 -21.345469 
L 16.181875 -21.580314 
L 15.994447 -21.815158 
L 15.834704 -22.050003 
L 15.701048 -22.284847 
L 15.591507 -22.519692 
L 15.503943 -22.754536 
L 15.436258 -22.989381 
L 15.386567 -23.224225 
L 15.353349 -23.45907 
L 15.335533 -23.693914 
L 15.332552 -23.928759 
L 15.344328 -24.163603 
L 15.371224 -24.398448 
L 15.413954 -24.633292 
L 15.473468 -24.868137 
L 15.550818 -25.102981 
L 15.647035 -25.337826 
L 15.762999 -25.57267 
L 15.899334 -25.807515 
L 16.056326 -26.042359 
L 16.233855 -26.277204 
L 16.431359 -26.512048 
L 16.647805 -26.746892 
L 16.881689 -26.981737 
L 17.131033 -27.216581 
L 17.393397 -27.451426 
L 17.665896 -27.68627 
L 17.945215 -27.921115 
L 18.227633 -28.155959 
L 18.50906 -28.390804 
L 18.785071 -28.625648 
L 19.050968 -28.860493 
L 19.301857 -29.095337 
L 19.532738 -29.330182 
L 19.738634 -29.565026 
L 19.914721 -29.799871 
L 20.056492 -30.034715 
L 20.15993 -30.26956 
L 20.221681 -30.504404 
L 20.239228 -30.739249 
L 20.211058 -30.974093 
L 20.13679 -31.208938 
L 20.017288 -31.443782 
L 19.854712 -31.678627 
L 19.652532 -31.913471 
L 19.415481 -32.148316 
L 19.149447 -32.38316 
L 18.861319 -32.618004 
L 18.558768 -32.852849 
L 18.250002 -33.087693 
L 17.943481 -33.322538 
L 17.64762 -33.557382 
L 17.370497 -33.792227 
L 17.119571 -34.027071 
L 16.901441 -34.261916 
L 16.721642 -34.49676 
L 16.584507 -34.731605 
L 16.493077 -34.966449 
L 16.449082 -35.201294 
L 16.452973 -35.436138 
L 16.504013 -35.670983 
L 16.600403 -35.905827 
L 16.739436 -36.140672 
L 16.917671 -36.375516 
L 17.131106 -36.610361 
L 17.37535 -36.845205 
L 17.645775 -37.08005 
L 17.937652 -37.314894 
L 18.24626 -37.549739 
L 18.566981 -37.784583 
L 18.895365 -38.019428 
L 19.227189 -38.254272 
L 19.558496 -38.489117 
L 19.885629 -38.723961 
L 20.205263 -38.958805 
L 20.514427 -39.19365 
L 20.810528 -39.428494 
L 21.091372 -39.663339 
L 21.355176 -39.898183 
L 21.600583 -40.133028 
L 21.82666 -40.367872 
L 22.032889 -40.602717 
L 22.219153 -40.837561 
L 24.373197 -40.837561 
L 24.373197 -40.837561 
L 24.55946 -40.602717 
L 24.76569 -40.367872 
L 24.991766 -40.133028 
L 25.237174 -39.898183 
L 25.500978 -39.663339 
L 25.781821 -39.428494 
L 26.077922 -39.19365 
L 26.387086 -38.958805 
L 26.70672 -38.723961 
L 27.033854 -38.489117 
L 27.36516 -38.254272 
L 27.696984 -38.019428 
L 28.025369 -37.784583 
L 28.346089 -37.549739 
L 28.654698 -37.314894 
L 28.946574 -37.08005 
L 29.217 -36.845205 
L 29.461244 -36.610361 
L 29.674678 -36.375516 
L 29.852913 -36.140672 
L 29.991946 -35.905827 
L 30.088336 -35.670983 
L 30.139377 -35.436138 
L 30.143268 -35.201294 
L 30.099272 -34.966449 
L 30.007842 -34.731605 
L 29.870707 -34.49676 
L 29.690909 -34.261916 
L 29.472778 -34.027071 
L 29.221852 -33.792227 
L 28.944729 -33.557382 
L 28.648869 -33.322538 
L 28.342348 -33.087693 
L 28.033582 -32.852849 
L 27.731031 -32.618004 
L 27.442902 -32.38316 
L 27.176869 -32.148316 
L 26.939817 -31.913471 
L 26.737638 -31.678627 
L 26.575062 -31.443782 
L 26.455559 -31.208938 
L 26.381292 -30.974093 
L 26.353121 -30.739249 
L 26.370669 -30.504404 
L 26.432419 -30.26956 
L 26.535857 -30.034715 
L 26.677629 -29.799871 
L 26.853715 -29.565026 
L 27.059611 -29.330182 
L 27.290493 -29.095337 
L 27.541381 -28.860493 
L 27.807278 -28.625648 
L 28.083289 -28.390804 
L 28.364716 -28.155959 
L 28.647135 -27.921115 
L 28.926453 -27.68627 
L 29.198952 -27.451426 
L 29.461316 -27.216581 
L 29.71066 -26.981737 
L 29.944544 -26.746892 
L 30.160991 -26.512048 
L 30.358494 -26.277204 
L 30.536024 -26.042359 
L 30.693015 -25.807515 
L 30.829351 -25.57267 
L 30.945314 -25.337826 
L 31.041531 -25.102981 
L 31.118882 -24.868137 
L 31.178395 -24.633292 
L 31.221126 -24.398448 
L 31.248022 -24.163603 
L 31.259797 -23.928759 
L 31.256816 -23.693914 
L 31.239001 -23.45907 
L 31.205782 -23.224225 
L 31.156092 -22.989381 
L 31.088406 -22.754536 
L 31.000842 -22.519692 
L 30.891301 -22.284847 
L 30.757645 -22.050003 
L 30.597902 -21.815158 
L 30.410475 -21.580314 
L 30.19434 -21.345469 
L 29.949217 -21.110625 
L 29.675696 -20.87578 
L 29.375311 -20.640936 
L 29.050543 -20.406091 
L 28.704773 -20.171247 
L 28.342165 -19.936403 
L 27.967502 -19.701558 
L 27.585984 -19.466714 
L 27.20301 -19.231869 
L 26.823938 -18.997025 
L 26.453878 -18.76218 
L 26.097487 -18.527336 
L 25.758813 -18.292491 
L 25.441179 -18.057647 
L 25.14711 -17.822802 
L 24.878312 -17.587958 
z
" style="stroke: #525252; stroke-width: 0.15"/>
    </defs>
    <g clip-path="url(#ped5860acd7)">
     <use xlink:href="#mcfebd3a501" x="0" y="84.96" style="fill: #bbba94; stroke: #525252; stroke-width: 0.15"/>
    </g>
   </g>
   <g id="PolyCollection_2">
    <defs>
     <path id="m5f8fc8f412" d="M 44.511227 -15.370889 
L 41.899236 -15.370889 
L 41.626524 -15.513176 
L 41.320789 -15.655463 
L 40.983967 -15.79775 
L 40.619571 -15.940037 
L 40.23276 -16.082323 
L 39.830299 -16.22461 
L 39.420396 -16.366897 
L 39.012417 -16.509184 
L 38.616467 -16.651471 
L 38.24287 -16.793758 
L 37.901564 -16.936045 
L 37.601462 -17.078332 
L 37.349813 -17.220618 
L 37.151631 -17.362905 
L 37.009237 -17.505192 
L 36.921951 -17.647479 
L 36.885995 -17.789766 
L 36.894602 -17.932053 
L 36.938357 -18.07434 
L 37.005745 -18.216627 
L 37.083876 -18.358914 
L 37.159342 -18.5012 
L 37.219144 -18.643487 
L 37.251618 -18.785774 
L 37.247289 -18.928061 
L 37.199599 -19.070348 
L 37.105434 -19.212635 
L 36.965421 -19.354922 
L 36.783964 -19.497209 
L 36.56902 -19.639495 
L 36.331622 -19.781782 
L 36.085192 -19.924069 
L 35.844693 -20.066356 
L 35.625675 -20.208643 
L 35.443297 -20.35093 
L 35.311387 -20.493217 
L 35.241609 -20.635504 
L 35.242792 -20.77779 
L 35.320465 -20.920077 
L 35.476616 -21.062364 
L 35.709692 -21.204651 
L 36.014818 -21.346938 
L 36.384207 -21.489225 
L 36.80773 -21.631512 
L 37.273578 -21.773799 
L 37.768984 -21.916085 
L 38.280929 -22.058372 
L 38.796801 -22.200659 
L 39.304966 -22.342946 
L 39.795206 -22.485233 
L 40.25904 -22.62752 
L 40.689888 -22.769807 
L 41.083114 -22.912094 
L 41.435948 -23.054381 
L 41.747311 -23.196667 
L 42.017577 -23.338954 
L 42.248282 -23.481241 
L 42.441826 -23.623528 
L 42.601167 -23.765815 
L 42.729548 -23.908102 
L 42.830246 -24.050389 
L 42.906377 -24.192676 
L 42.960737 -24.334962 
L 42.995701 -24.477249 
L 43.013164 -24.619536 
L 43.014531 -24.761823 
L 43.000745 -24.90411 
L 42.972353 -25.046397 
L 42.929605 -25.188684 
L 42.872572 -25.330971 
L 42.801285 -25.473257 
L 42.71589 -25.615544 
L 42.61679 -25.757831 
L 42.50479 -25.900118 
L 42.38121 -26.042405 
L 42.24797 -26.184692 
L 42.107631 -26.326979 
L 41.963384 -26.469266 
L 41.818978 -26.611552 
L 41.678599 -26.753839 
L 41.546691 -26.896126 
L 41.42774 -27.038413 
L 41.326027 -27.1807 
L 41.245385 -27.322987 
L 41.188953 -27.465274 
L 41.158983 -27.607561 
L 41.156688 -27.749848 
L 41.182163 -27.892134 
L 41.234377 -28.034421 
L 41.311244 -28.176708 
L 41.409761 -28.318995 
L 41.526205 -28.461282 
L 41.65636 -28.603569 
L 41.795775 -28.745856 
L 41.940011 -28.888143 
L 42.084867 -29.030429 
L 42.226574 -29.172716 
L 42.361935 -29.315003 
L 42.488414 -29.45729 
L 43.922049 -29.45729 
L 43.922049 -29.45729 
L 44.048529 -29.315003 
L 44.183889 -29.172716 
L 44.325596 -29.030429 
L 44.470452 -28.888143 
L 44.614688 -28.745856 
L 44.754103 -28.603569 
L 44.884258 -28.461282 
L 45.000702 -28.318995 
L 45.09922 -28.176708 
L 45.176087 -28.034421 
L 45.2283 -27.892134 
L 45.253775 -27.749848 
L 45.25148 -27.607561 
L 45.22151 -27.465274 
L 45.165078 -27.322987 
L 45.084436 -27.1807 
L 44.982724 -27.038413 
L 44.863772 -26.896126 
L 44.731864 -26.753839 
L 44.591485 -26.611552 
L 44.447079 -26.469266 
L 44.302832 -26.326979 
L 44.162493 -26.184692 
L 44.029253 -26.042405 
L 43.905673 -25.900118 
L 43.793673 -25.757831 
L 43.694573 -25.615544 
L 43.609178 -25.473257 
L 43.537891 -25.330971 
L 43.480858 -25.188684 
L 43.43811 -25.046397 
L 43.409719 -24.90411 
L 43.395933 -24.761823 
L 43.397299 -24.619536 
L 43.414762 -24.477249 
L 43.449726 -24.334962 
L 43.504086 -24.192676 
L 43.580217 -24.050389 
L 43.680915 -23.908102 
L 43.809296 -23.765815 
L 43.968638 -23.623528 
L 44.162181 -23.481241 
L 44.392887 -23.338954 
L 44.663152 -23.196667 
L 44.974515 -23.054381 
L 45.327349 -22.912094 
L 45.720575 -22.769807 
L 46.151423 -22.62752 
L 46.615257 -22.485233 
L 47.105497 -22.342946 
L 47.613662 -22.200659 
L 48.129534 -22.058372 
L 48.641479 -21.916085 
L 49.136885 -21.773799 
L 49.602734 -21.631512 
L 50.026256 -21.489225 
L 50.395645 -21.346938 
L 50.700771 -21.204651 
L 50.933847 -21.062364 
L 51.089998 -20.920077 
L 51.167671 -20.77779 
L 51.168854 -20.635504 
L 51.099076 -20.493217 
L 50.967166 -20.35093 
L 50.784788 -20.208643 
L 50.56577 -20.066356 
L 50.325271 -19.924069 
L 50.078842 -19.781782 
L 49.841444 -19.639495 
L 49.626499 -19.497209 
L 49.445042 -19.354922 
L 49.305029 -19.212635 
L 49.210864 -19.070348 
L 49.163174 -18.928061 
L 49.158845 -18.785774 
L 49.191319 -18.643487 
L 49.251121 -18.5012 
L 49.326588 -18.358914 
L 49.404718 -18.216627 
L 49.472106 -18.07434 
L 49.515861 -17.932053 
L 49.524468 -17.789766 
L 49.488512 -17.647479 
L 49.401226 -17.505192 
L 49.258832 -17.362905 
L 49.06065 -17.220618 
L 48.809001 -17.078332 
L 48.508899 -16.936045 
L 48.167593 -16.793758 
L 47.793996 -16.651471 
L 47.398046 -16.509184 
L 46.990067 -16.366897 
L 46.580164 -16.22461 
L 46.177703 -16.082323 
L 45.790892 -15.940037 
L 45.426496 -15.79775 
L 45.089674 -15.655463 
L 44.783939 -15.513176 
L 44.511227 -15.370889 
z
" style="stroke: #525252; stroke-width: 0.15"/>
    </defs>
    <g clip-path="url(#ped5860acd7)">
     <use xlink:href="#m5f8fc8f412" x="0" y="84.96" style="fill: #977c7f; stroke: #525252; stroke-width: 0.15"/>
    </g>
   </g>
   <g id="line2d_7">
    <path d="M 23.296175 64.016305 
L 23.296175 47.478176 
" clip-path="url(#ped5860acd7)" style="fill: none; stroke: #8c8c8c; stroke-width: 0.75; stroke-linecap: round"/>
   </g>
   <g id="line2d_8">
    <path d="M 23.296175 61.190931 
L 23.296175 50.37506 
" clip-path="url(#ped5860acd7)" style="fill: none; stroke: #8c8c8c; stroke-width: 4; stroke-linecap: round"/>
   </g>
   <g id="line2d_9">
    <path d="M 23.296175 58.12565 
" clip-path="url(#ped5860acd7)" style="fill: none; stroke: #525252; stroke-width: 1.2; stroke-linecap: round"/>
    <defs>
     <path id="mcc5165a30f" d="M 0 0.833333 
C 0.221003 0.833333 0.432983 0.745528 0.589256 0.589256 
C 0.745528 0.432983 0.833333 0.221003 0.833333 0 
C 0.833333 -0.221003 0.745528 -0.432983 0.589256 -0.589256 
C 0.432983 -0.745528 0.221003 -0.833333 0 -0.833333 
C -0.221003 -0.833333 -0.432983 -0.745528 -0.589256 -0.589256 
C -0.745528 -0.432983 -0.833333 -0.221003 -0.833333 0 
C -0.833333 0.221003 -0.745528 0.432983 -0.589256 0.589256 
C -0.432983 0.745528 -0.221003 0.833333 0 0.833333 
z
" style="stroke: #ffffff; stroke-width: 0.8"/>
    </defs>
    <g clip-path="url(#ped5860acd7)">
     <use xlink:href="#mcc5165a30f" x="23.296175" y="58.12565" style="fill: #ffffff; stroke: #ffffff; stroke-width: 0.8"/>
    </g>
   </g>
   <g id="line2d_10">
    <path d="M 43.205232 67.822238 
L 43.205232 63.498154 
" clip-path="url(#ped5860acd7)" style="fill: none; stroke: #8c8c8c; stroke-width: 0.75; stroke-linecap: round"/>
   </g>
   <g id="line2d_11">
    <path d="M 43.205232 67.100853 
L 43.205232 63.868547 
" clip-path="url(#ped5860acd7)" style="fill: none; stroke: #8c8c8c; stroke-width: 4; stroke-linecap: round"/>
   </g>
   <g id="line2d_12">
    <path d="M 43.205232 64.508866 
" clip-path="url(#ped5860acd7)" style="fill: none; stroke: #525252; stroke-width: 1.2; stroke-linecap: round"/>
    <g clip-path="url(#ped5860acd7)">
     <use xlink:href="#mcc5165a30f" x="43.205232" y="64.508866" style="fill: #ffffff; stroke: #ffffff; stroke-width: 0.8"/>
    </g>
   </g>
   <g id="patch_3">
    <path d="M 13.341646 74.419526 
L 13.341646 4.076256 
" style="fill: none; stroke: #777777; stroke-width: 0.5; stroke-linejoin: miter; stroke-linecap: square"/>
   </g>
   <g id="patch_4">
    <path d="M 13.341646 76.919526 
L 53.15976 76.919526 
" style="fill: none; stroke: #777777; stroke-width: 0.5; stroke-linejoin: miter; stroke-linecap: square"/>
   </g>
  </g>
 </g>
 <defs>
  <clipPath id="ped5860acd7">
   <rect x="13.341646" y="4.076256" width="39.818114" height="70.34327"/>
  </clipPath>
 </defs>
</svg>
