<?xml version="1.0" encoding="utf-8" standalone="no"?>
<!DOCTYPE svg PUBLIC "-//W3C//DTD SVG 1.1//EN"
  "http://www.w3.org/Graphics/SVG/1.1/DTD/svg11.dtd">
<svg xmlns:xlink="http://www.w3.org/1999/xlink" width="56.16pt" height="84.96pt" viewBox="0 0 56.16 84.96" xmlns="http://www.w3.org/2000/svg" version="1.1">
 <metadata>
  <rdf:RDF xmlns:dc="http://purl.org/dc/elements/1.1/" xmlns:cc="http://creativecommons.org/ns#" xmlns:rdf="http://www.w3.org/1999/02/22-rdf-syntax-ns#">
   <cc:Work>
    <dc:type rdf:resource="http://purl.org/dc/dcmitype/StillImage"/>
    <dc:date>2024-05-27T15:37:08.551606</dc:date>
    <dc:format>image/svg+xml</dc:format>
    <dc:creator>
     <cc:Agent>
      <dc:title>Matplotlib v3.8.3, https://matplotlib.org/</dc:title>
     </cc:Agent>
    </dc:creator>
   </cc:Work>
  </rdf:RDF>
 </metadata>
 <defs>
  <style type="text/css">*{stroke-linejoin: round; stroke-linecap: butt}</style>
 </defs>
 <g id="figure_1">
  <g id="patch_1">
   <path d="M 0 84.96 
L 56.16 84.96 
L 56.16 0 
L 0 0 
z
" style="fill: #ffffff"/>
  </g>
  <g id="axes_1">
   <g id="patch_2">
    <path d="M 10.005084 74.419526 
L 53.15976 74.419526 
L 53.15976 4.076256 
L 10.005084 4.076256 
z
" style="fill: #ffffff"/>
   </g>
   <g id="matplotlib.axis_1">
    <g id="xtick_1">
     <g id="text_1">
      <!-- ILC3 -->
      <g style="fill: #333333" transform="translate(17.097425 81.230229) scale(0.035 -0.035)">
       <defs>
        <path id="Helvetica-49" d="M 628 4591 
L 1256 4591 
L 1256 0 
L 628 0 
L 628 4591 
z
" transform="scale(0.015625)"/>
        <path id="Helvetica-4c" d="M 488 4591 
L 1109 4591 
L 1109 547 
L 3434 547 
L 3434 0 
L 488 0 
L 488 4591 
z
" transform="scale(0.015625)"/>
        <path id="Helvetica-43" d="M 2422 4716 
Q 3294 4716 3775 4256 
Q 4256 3797 4309 3213 
L 3703 3213 
Q 3600 3656 3292 3915 
Q 2984 4175 2428 4175 
Q 1750 4175 1333 3698 
Q 916 3222 916 2238 
Q 916 1431 1292 929 
Q 1669 428 2416 428 
Q 3103 428 3463 956 
Q 3653 1234 3747 1688 
L 4353 1688 
Q 4272 963 3816 472 
Q 3269 -119 2341 -119 
Q 1541 -119 997 366 
Q 281 1006 281 2344 
Q 281 3359 819 4009 
Q 1400 4716 2422 4716 
z
M 2297 4716 
L 2297 4716 
z
" transform="scale(0.015625)"/>
        <path id="Helvetica-33" d="M 1663 -122 
Q 869 -122 511 314 
Q 153 750 153 1375 
L 741 1375 
Q 778 941 903 744 
Q 1122 391 1694 391 
Q 2138 391 2406 628 
Q 2675 866 2675 1241 
Q 2675 1703 2392 1887 
Q 2109 2072 1606 2072 
Q 1550 2072 1492 2070 
Q 1434 2069 1375 2066 
L 1375 2563 
Q 1463 2553 1522 2550 
Q 1581 2547 1650 2547 
Q 1966 2547 2169 2647 
Q 2525 2822 2525 3272 
Q 2525 3606 2287 3787 
Q 2050 3969 1734 3969 
Q 1172 3969 956 3594 
Q 838 3388 822 3006 
L 266 3006 
Q 266 3506 466 3856 
Q 809 4481 1675 4481 
Q 2359 4481 2734 4176 
Q 3109 3872 3109 3294 
Q 3109 2881 2888 2625 
Q 2750 2466 2531 2375 
Q 2884 2278 3082 2001 
Q 3281 1725 3281 1325 
Q 3281 684 2859 281 
Q 2438 -122 1663 -122 
z
" transform="scale(0.015625)"/>
       </defs>
       <use xlink:href="#Helvetica-49"/>
       <use xlink:href="#Helvetica-4c" x="27.783203"/>
       <use xlink:href="#Helvetica-43" x="83.398438"/>
       <use xlink:href="#Helvetica-33" x="155.615234"/>
      </g>
     </g>
    </g>
    <g id="xtick_2">
     <g id="text_2">
      <!-- TH17 -->
      <g style="fill: #333333" transform="translate(38.092067 81.230229) scale(0.035 -0.035)">
       <defs>
        <path id="Helvetica-54" d="M 3828 4591 
L 3828 4044 
L 2281 4044 
L 2281 0 
L 1650 0 
L 1650 4044 
L 103 4044 
L 103 4591 
L 3828 4591 
z
" transform="scale(0.015625)"/>
        <path id="Helvetica-48" d="M 503 4591 
L 1131 4591 
L 1131 2694 
L 3519 2694 
L 3519 4591 
L 4147 4591 
L 4147 0 
L 3519 0 
L 3519 2147 
L 1131 2147 
L 1131 0 
L 503 0 
L 503 4591 
z
" transform="scale(0.015625)"/>
        <path id="Helvetica-31" d="M 613 3169 
L 613 3600 
Q 1222 3659 1462 3798 
Q 1703 3938 1822 4456 
L 2266 4456 
L 2266 0 
L 1666 0 
L 1666 3169 
L 613 3169 
z
" transform="scale(0.015625)"/>
        <path id="Helvetica-37" d="M 3347 4400 
L 3347 3909 
Q 3131 3700 2773 3181 
Q 2416 2663 2141 2063 
Q 1869 1478 1728 997 
Q 1638 688 1494 0 
L 872 0 
Q 1084 1281 1809 2550 
Q 2238 3294 2709 3834 
L 234 3834 
L 234 4400 
L 3347 4400 
z
" transform="scale(0.015625)"/>
       </defs>
       <use xlink:href="#Helvetica-54"/>
       <use xlink:href="#Helvetica-48" x="61.083984"/>
       <use xlink:href="#Helvetica-31" x="133.300781"/>
       <use xlink:href="#Helvetica-37" x="188.916016"/>
      </g>
     </g>
    </g>
   </g>
   <g id="matplotlib.axis_2">
    <g id="ytick_1">
     <g id="line2d_1">
      <defs>
       <path id="m54add36e76" d="M 0 0 
L -1 0 
" style="stroke: #777777; stroke-width: 0.5"/>
      </defs>
      <g>
       <use xlink:href="#m54add36e76" x="10.005084" y="65.703651" style="fill: #777777; stroke: #777777; stroke-width: 0.5"/>
      </g>
     </g>
     <g id="text_3">
      <!-- 0 -->
      <g style="fill: #333333" transform="translate(6.336802 66.779667) scale(0.03 -0.03)">
       <defs>
        <path id="Helvetica-30" d="M 1731 4475 
Q 2600 4475 2988 3759 
Q 3288 3206 3288 2244 
Q 3288 1331 3016 734 
Q 2622 -122 1728 -122 
Q 922 -122 528 578 
Q 200 1163 200 2147 
Q 200 2909 397 3456 
Q 766 4475 1731 4475 
z
M 1725 391 
Q 2163 391 2422 778 
Q 2681 1166 2681 2222 
Q 2681 2984 2493 3476 
Q 2306 3969 1766 3969 
Q 1269 3969 1039 3501 
Q 809 3034 809 2125 
Q 809 1441 956 1025 
Q 1181 391 1725 391 
z
" transform="scale(0.015625)"/>
       </defs>
       <use xlink:href="#Helvetica-30"/>
      </g>
     </g>
    </g>
    <g id="ytick_2">
     <g id="line2d_2">
      <g>
       <use xlink:href="#m54add36e76" x="10.005084" y="56.899737" style="fill: #777777; stroke: #777777; stroke-width: 0.5"/>
      </g>
     </g>
     <g id="text_4">
      <!-- 100 -->
      <g style="fill: #333333" transform="translate(3.00024 57.975753) scale(0.03 -0.03)">
       <use xlink:href="#Helvetica-31"/>
       <use xlink:href="#Helvetica-30" x="55.615234"/>
       <use xlink:href="#Helvetica-30" x="111.230469"/>
      </g>
     </g>
    </g>
    <g id="ytick_3">
     <g id="line2d_3">
      <g>
       <use xlink:href="#m54add36e76" x="10.005084" y="48.095824" style="fill: #777777; stroke: #777777; stroke-width: 0.5"/>
      </g>
     </g>
     <g id="text_5">
      <!-- 200 -->
      <g style="fill: #333333" transform="translate(3.00024 49.171839) scale(0.03 -0.03)">
       <defs>
        <path id="Helvetica-32" d="M 200 0 
Q 231 578 439 1006 
Q 647 1434 1250 1784 
L 1850 2131 
Q 2253 2366 2416 2531 
Q 2672 2791 2672 3125 
Q 2672 3516 2437 3745 
Q 2203 3975 1813 3975 
Q 1234 3975 1013 3538 
Q 894 3303 881 2888 
L 309 2888 
Q 319 3472 525 3841 
Q 891 4491 1816 4491 
Q 2584 4491 2939 4075 
Q 3294 3659 3294 3150 
Q 3294 2613 2916 2231 
Q 2697 2009 2131 1694 
L 1703 1456 
Q 1397 1288 1222 1134 
Q 909 863 828 531 
L 3272 531 
L 3272 0 
L 200 0 
z
" transform="scale(0.015625)"/>
       </defs>
       <use xlink:href="#Helvetica-32"/>
       <use xlink:href="#Helvetica-30" x="55.615234"/>
       <use xlink:href="#Helvetica-30" x="111.230469"/>
      </g>
     </g>
    </g>
    <g id="ytick_4">
     <g id="line2d_4">
      <g>
       <use xlink:href="#m54add36e76" x="10.005084" y="39.29191" style="fill: #777777; stroke: #777777; stroke-width: 0.5"/>
      </g>
     </g>
     <g id="text_6">
      <!-- 300 -->
      <g style="fill: #333333" transform="translate(3.00024 40.367926) scale(0.03 -0.03)">
       <use xlink:href="#Helvetica-33"/>
       <use xlink:href="#Helvetica-30" x="55.615234"/>
       <use xlink:href="#Helvetica-30" x="111.230469"/>
      </g>
     </g>
    </g>
    <g id="ytick_5">
     <g id="line2d_5">
      <g>
       <use xlink:href="#m54add36e76" x="10.005084" y="30.487997" style="fill: #777777; stroke: #777777; stroke-width: 0.5"/>
      </g>
     </g>
     <g id="text_7">
      <!-- 400 -->
      <g style="fill: #333333" transform="translate(3.00024 31.564012) scale(0.03 -0.03)">
       <defs>
        <path id="Helvetica-34" d="M 2116 1584 
L 2116 3613 
L 681 1584 
L 2116 1584 
z
M 2125 0 
L 2125 1094 
L 163 1094 
L 163 1644 
L 2213 4488 
L 2688 4488 
L 2688 1584 
L 3347 1584 
L 3347 1094 
L 2688 1094 
L 2688 0 
L 2125 0 
z
" transform="scale(0.015625)"/>
       </defs>
       <use xlink:href="#Helvetica-34"/>
       <use xlink:href="#Helvetica-30" x="55.615234"/>
       <use xlink:href="#Helvetica-30" x="111.230469"/>
      </g>
     </g>
    </g>
    <g id="ytick_6">
     <g id="line2d_6">
      <g>
       <use xlink:href="#m54add36e76" x="10.005084" y="21.684083" style="fill: #777777; stroke: #777777; stroke-width: 0.5"/>
      </g>
     </g>
     <g id="text_8">
      <!-- 500 -->
      <g style="fill: #333333" transform="translate(3.00024 22.760099) scale(0.03 -0.03)">
       <defs>
        <path id="Helvetica-35" d="M 791 1141 
Q 847 659 1238 475 
Q 1438 381 1700 381 
Q 2200 381 2440 700 
Q 2681 1019 2681 1406 
Q 2681 1875 2395 2131 
Q 2109 2388 1709 2388 
Q 1419 2388 1211 2275 
Q 1003 2163 856 1963 
L 369 1991 
L 709 4400 
L 3034 4400 
L 3034 3856 
L 1131 3856 
L 941 2613 
Q 1097 2731 1238 2791 
Q 1488 2894 1816 2894 
Q 2431 2894 2859 2497 
Q 3288 2100 3288 1491 
Q 3288 856 2895 371 
Q 2503 -113 1644 -113 
Q 1097 -113 676 195 
Q 256 503 206 1141 
L 791 1141 
z
" transform="scale(0.015625)"/>
       </defs>
       <use xlink:href="#Helvetica-35"/>
       <use xlink:href="#Helvetica-30" x="55.615234"/>
       <use xlink:href="#Helvetica-30" x="111.230469"/>
      </g>
     </g>
    </g>
    <g id="ytick_7">
     <g id="line2d_7">
      <g>
       <use xlink:href="#m54add36e76" x="10.005084" y="12.880169" style="fill: #777777; stroke: #777777; stroke-width: 0.5"/>
      </g>
     </g>
     <g id="text_9">
      <!-- 600 -->
      <g style="fill: #333333" transform="translate(3.00024 13.956185) scale(0.03 -0.03)">
       <defs>
        <path id="Helvetica-36" d="M 1872 4494 
Q 2622 4494 2917 4105 
Q 3213 3716 3213 3303 
L 2656 3303 
Q 2606 3569 2497 3719 
Q 2294 4000 1881 4000 
Q 1409 4000 1131 3564 
Q 853 3128 822 2316 
Q 1016 2600 1309 2741 
Q 1578 2866 1909 2866 
Q 2472 2866 2890 2506 
Q 3309 2147 3309 1434 
Q 3309 825 2912 354 
Q 2516 -116 1781 -116 
Q 1153 -116 697 361 
Q 241 838 241 1966 
Q 241 2800 444 3381 
Q 834 4494 1872 4494 
z
M 1831 384 
Q 2275 384 2495 682 
Q 2716 981 2716 1388 
Q 2716 1731 2519 2042 
Q 2322 2353 1803 2353 
Q 1441 2353 1167 2112 
Q 894 1872 894 1388 
Q 894 963 1142 673 
Q 1391 384 1831 384 
z
" transform="scale(0.015625)"/>
       </defs>
       <use xlink:href="#Helvetica-36"/>
       <use xlink:href="#Helvetica-30" x="55.615234"/>
       <use xlink:href="#Helvetica-30" x="111.230469"/>
      </g>
     </g>
    </g>
    <g id="ytick_8">
     <g id="line2d_8">
      <g>
       <use xlink:href="#m54add36e76" x="10.005084" y="4.076256" style="fill: #777777; stroke: #777777; stroke-width: 0.5"/>
      </g>
     </g>
     <g id="text_10">
      <!-- 700 -->
      <g style="fill: #333333" transform="translate(3.00024 5.152271) scale(0.03 -0.03)">
       <use xlink:href="#Helvetica-37"/>
       <use xlink:href="#Helvetica-30" x="55.615234"/>
       <use xlink:href="#Helvetica-30" x="111.230469"/>
      </g>
     </g>
    </g>
   </g>
   <g id="PolyCollection_1">
    <defs>
     <path id="m1966ce0cd1" d="M 22.918878 -15.43006 
L 18.668628 -15.43006 
L 18.3064 -15.755084 
L 17.910928 -16.080109 
L 17.485075 -16.405134 
L 17.032987 -16.730158 
L 16.560087 -17.055183 
L 16.072998 -17.380208 
L 15.579402 -17.705232 
L 15.087831 -18.030257 
L 14.607403 -18.355281 
L 14.147509 -18.680306 
L 13.717477 -19.005331 
L 13.326217 -19.330355 
L 12.981885 -19.65538 
L 12.691579 -19.980404 
L 12.461076 -20.305429 
L 12.29464 -20.630454 
L 12.194902 -20.955478 
L 12.162818 -21.280503 
L 12.197698 -21.605527 
L 12.297313 -21.930552 
L 12.458053 -22.255577 
L 12.675133 -22.580601 
L 12.942826 -22.905626 
L 13.254708 -23.230651 
L 13.603901 -23.555675 
L 13.983304 -23.8807 
L 14.385797 -24.205724 
L 14.804414 -24.530749 
L 15.232493 -24.855774 
L 15.663779 -25.180798 
L 16.092511 -25.505823 
L 16.513472 -25.830847 
L 16.922025 -26.155872 
L 17.314121 -26.480897 
L 17.686304 -26.805921 
L 18.035693 -27.130946 
L 18.359968 -27.455971 
L 18.657336 -27.780995 
L 18.926502 -28.10602 
L 19.166632 -28.431044 
L 19.377309 -28.756069 
L 19.558499 -29.081094 
L 19.710503 -29.406118 
L 19.833925 -29.731143 
L 19.929633 -30.056167 
L 19.998733 -30.381192 
L 20.042546 -30.706217 
L 20.062595 -31.031241 
L 20.060588 -31.356266 
L 20.038424 -31.681291 
L 19.998177 -32.006315 
L 19.9421 -32.33134 
L 19.872608 -32.656364 
L 19.792264 -32.981389 
L 19.703743 -33.306414 
L 19.609791 -33.631438 
L 19.513163 -33.956463 
L 19.416558 -34.281487 
L 19.322529 -34.606512 
L 19.233405 -34.931537 
L 19.1512 -35.256561 
L 19.077538 -35.581586 
L 19.013584 -35.906611 
L 18.960005 -36.231635 
L 18.916953 -36.55666 
L 18.884073 -36.881684 
L 18.860556 -37.206709 
L 18.845204 -37.531734 
L 18.83654 -37.856758 
L 18.83292 -38.181783 
L 18.832673 -38.506807 
L 18.83423 -38.831832 
L 18.83625 -39.156857 
L 18.837729 -39.481881 
L 18.838079 -39.806906 
L 18.837179 -40.13193 
L 18.835379 -40.456955 
L 18.83348 -40.78198 
L 18.832664 -41.107004 
L 18.834408 -41.432029 
L 18.840363 -41.757054 
L 18.852231 -42.082078 
L 18.871627 -42.407103 
L 18.899958 -42.732127 
L 18.938318 -43.057152 
L 18.987399 -43.382177 
L 19.047441 -43.707201 
L 19.118209 -44.032226 
L 19.199006 -44.35725 
L 19.288712 -44.682275 
L 19.38585 -45.0073 
L 19.488676 -45.332324 
L 19.595268 -45.657349 
L 19.703635 -45.982374 
L 19.811811 -46.307398 
L 19.917943 -46.632423 
L 20.020366 -46.957447 
L 20.11766 -47.282472 
L 20.208686 -47.607497 
L 21.37882 -47.607497 
L 21.37882 -47.607497 
L 21.469845 -47.282472 
L 21.567139 -46.957447 
L 21.669563 -46.632423 
L 21.775694 -46.307398 
L 21.88387 -45.982374 
L 21.992238 -45.657349 
L 22.09883 -45.332324 
L 22.201655 -45.0073 
L 22.298794 -44.682275 
L 22.3885 -44.35725 
L 22.469297 -44.032226 
L 22.540065 -43.707201 
L 22.600107 -43.382177 
L 22.649188 -43.057152 
L 22.687548 -42.732127 
L 22.715879 -42.407103 
L 22.735275 -42.082078 
L 22.747142 -41.757054 
L 22.753098 -41.432029 
L 22.754842 -41.107004 
L 22.754026 -40.78198 
L 22.752126 -40.456955 
L 22.750327 -40.13193 
L 22.749426 -39.806906 
L 22.749777 -39.481881 
L 22.751256 -39.156857 
L 22.753276 -38.831832 
L 22.754832 -38.506807 
L 22.754585 -38.181783 
L 22.750966 -37.856758 
L 22.742301 -37.531734 
L 22.72695 -37.206709 
L 22.703432 -36.881684 
L 22.670553 -36.55666 
L 22.6275 -36.231635 
L 22.573922 -35.906611 
L 22.509968 -35.581586 
L 22.436305 -35.256561 
L 22.354101 -34.931537 
L 22.264977 -34.606512 
L 22.170948 -34.281487 
L 22.074342 -33.956463 
L 21.977715 -33.631438 
L 21.883762 -33.306414 
L 21.795241 -32.981389 
L 21.714897 -32.656364 
L 21.645406 -32.33134 
L 21.589329 -32.006315 
L 21.549082 -31.681291 
L 21.526917 -31.356266 
L 21.524911 -31.031241 
L 21.544959 -30.706217 
L 21.588773 -30.381192 
L 21.657873 -30.056167 
L 21.753581 -29.731143 
L 21.877003 -29.406118 
L 22.029007 -29.081094 
L 22.210196 -28.756069 
L 22.420874 -28.431044 
L 22.661003 -28.10602 
L 22.930169 -27.780995 
L 23.227537 -27.455971 
L 23.551812 -27.130946 
L 23.901202 -26.805921 
L 24.273384 -26.480897 
L 24.665481 -26.155872 
L 25.074033 -25.830847 
L 25.494995 -25.505823 
L 25.923727 -25.180798 
L 26.355013 -24.855774 
L 26.783091 -24.530749 
L 27.201709 -24.205724 
L 27.604201 -23.8807 
L 27.983604 -23.555675 
L 28.332798 -23.230651 
L 28.64468 -22.905626 
L 28.912373 -22.580601 
L 29.129453 -22.255577 
L 29.290193 -21.930552 
L 29.389808 -21.605527 
L 29.424688 -21.280503 
L 29.392604 -20.955478 
L 29.292866 -20.630454 
L 29.12643 -20.305429 
L 28.895927 -19.980404 
L 28.60562 -19.65538 
L 28.261289 -19.330355 
L 27.870029 -19.005331 
L 27.439996 -18.680306 
L 26.980103 -18.355281 
L 26.499675 -18.030257 
L 26.008104 -17.705232 
L 25.514507 -17.380208 
L 25.027418 -17.055183 
L 24.554518 -16.730158 
L 24.10243 -16.405134 
L 23.676577 -16.080109 
L 23.281105 -15.755084 
L 22.918878 -15.43006 
z
" style="stroke: #7c7c7c; stroke-width: 0.15"/>
    </defs>
    <g clip-path="url(#pea53de1480)">
     <use xlink:href="#m1966ce0cd1" x="0" y="84.96" style="fill: #cfcfcf; stroke: #7c7c7c; stroke-width: 0.15"/>
    </g>
   </g>
   <g id="PolyCollection_2">
    <defs>
     <path id="ma092ae5e03" d="M 43.859468 -12.73111 
L 40.882714 -12.73111 
L 40.591204 -13.229947 
L 40.26364 -13.728785 
L 39.900302 -14.227623 
L 39.502589 -14.72646 
L 39.073141 -15.225298 
L 38.615916 -15.724135 
L 38.136212 -16.222973 
L 37.64063 -16.72181 
L 37.136972 -17.220648 
L 36.634074 -17.719486 
L 36.141571 -18.218323 
L 35.669614 -18.717161 
L 35.228534 -19.215998 
L 34.828483 -19.714836 
L 34.479057 -20.213674 
L 34.188924 -20.712511 
L 33.965484 -21.211349 
L 33.814559 -21.710186 
L 33.740156 -22.209024 
L 33.744289 -22.707862 
L 33.826895 -23.206699 
L 33.985826 -23.705537 
L 34.216939 -24.204374 
L 34.51426 -24.703212 
L 34.870227 -25.20205 
L 35.27599 -25.700887 
L 35.721761 -26.199725 
L 36.197177 -26.698562 
L 36.691682 -27.1974 
L 37.194887 -27.696237 
L 37.696901 -28.195075 
L 38.188615 -28.693913 
L 38.661929 -29.19275 
L 39.109916 -29.691588 
L 39.526914 -30.190425 
L 39.908561 -30.689263 
L 40.251767 -31.188101 
L 40.554639 -31.686938 
L 40.816365 -32.185776 
L 41.037087 -32.684613 
L 41.217744 -33.183451 
L 41.35993 -33.682289 
L 41.465762 -34.181126 
L 41.537754 -34.679964 
L 41.578728 -35.178801 
L 41.591735 -35.677639 
L 41.580005 -36.176477 
L 41.546904 -36.675314 
L 41.495913 -37.174152 
L 41.430599 -37.672989 
L 41.354587 -38.171827 
L 41.271522 -38.670664 
L 41.185019 -39.169502 
L 41.098592 -39.66834 
L 41.015575 -40.167177 
L 40.939024 -40.666015 
L 40.87162 -41.164852 
L 40.815566 -41.66369 
L 40.772497 -42.162528 
L 40.743406 -42.661365 
L 40.728596 -43.160203 
L 40.727662 -43.65904 
L 40.739513 -44.157878 
L 40.762425 -44.656716 
L 40.794137 -45.155553 
L 40.831975 -45.654391 
L 40.873006 -46.153228 
L 40.914202 -46.652066 
L 40.952622 -47.150904 
L 40.985578 -47.649741 
L 41.010801 -48.148579 
L 41.026567 -48.647416 
L 41.031809 -49.146254 
L 41.02617 -49.645091 
L 41.010036 -50.143929 
L 40.984502 -50.642767 
L 40.951317 -51.141604 
L 40.912775 -51.640442 
L 40.871581 -52.139279 
L 40.830694 -52.638117 
L 40.793155 -53.136955 
L 40.761917 -53.635792 
L 40.739673 -54.13463 
L 40.728715 -54.633467 
L 40.730816 -55.132305 
L 40.74714 -55.631143 
L 40.778203 -56.12998 
L 40.823864 -56.628818 
L 40.883357 -57.127655 
L 40.955365 -57.626493 
L 41.038105 -58.125331 
L 41.129455 -58.624168 
L 41.227074 -59.123006 
L 41.328535 -59.621843 
L 41.431444 -60.120681 
L 41.533552 -60.619518 
L 41.632843 -61.118356 
L 41.727598 -61.617194 
L 41.816442 -62.116031 
L 42.92574 -62.116031 
L 42.92574 -62.116031 
L 43.014583 -61.617194 
L 43.109339 -61.118356 
L 43.20863 -60.619518 
L 43.310738 -60.120681 
L 43.413647 -59.621843 
L 43.515108 -59.123006 
L 43.612727 -58.624168 
L 43.704077 -58.125331 
L 43.786817 -57.626493 
L 43.858824 -57.127655 
L 43.918318 -56.628818 
L 43.963979 -56.12998 
L 43.995042 -55.631143 
L 44.011366 -55.132305 
L 44.013467 -54.633467 
L 44.002509 -54.13463 
L 43.980265 -53.635792 
L 43.949026 -53.136955 
L 43.911488 -52.638117 
L 43.870601 -52.139279 
L 43.829407 -51.640442 
L 43.790864 -51.141604 
L 43.75768 -50.642767 
L 43.732146 -50.143929 
L 43.716012 -49.645091 
L 43.710373 -49.146254 
L 43.715615 -48.647416 
L 43.731381 -48.148579 
L 43.756604 -47.649741 
L 43.78956 -47.150904 
L 43.82798 -46.652066 
L 43.869176 -46.153228 
L 43.910207 -45.654391 
L 43.948045 -45.155553 
L 43.979757 -44.656716 
L 44.002669 -44.157878 
L 44.014519 -43.65904 
L 44.013586 -43.160203 
L 43.998776 -42.661365 
L 43.969685 -42.162528 
L 43.926616 -41.66369 
L 43.870562 -41.164852 
L 43.803158 -40.666015 
L 43.726607 -40.167177 
L 43.64359 -39.66834 
L 43.557163 -39.169502 
L 43.470659 -38.670664 
L 43.387595 -38.171827 
L 43.311583 -37.672989 
L 43.246269 -37.174152 
L 43.195278 -36.675314 
L 43.162177 -36.176477 
L 43.150446 -35.677639 
L 43.163454 -35.178801 
L 43.204428 -34.679964 
L 43.27642 -34.181126 
L 43.382252 -33.682289 
L 43.524438 -33.183451 
L 43.705095 -32.684613 
L 43.925816 -32.185776 
L 44.187543 -31.686938 
L 44.490415 -31.188101 
L 44.833621 -30.689263 
L 45.215268 -30.190425 
L 45.632266 -29.691588 
L 46.080252 -29.19275 
L 46.553567 -28.693913 
L 47.045281 -28.195075 
L 47.547295 -27.696237 
L 48.0505 -27.1974 
L 48.545005 -26.698562 
L 49.020421 -26.199725 
L 49.466191 -25.700887 
L 49.871955 -25.20205 
L 50.227922 -24.703212 
L 50.525243 -24.204374 
L 50.756356 -23.705537 
L 50.915287 -23.206699 
L 50.997893 -22.707862 
L 51.002026 -22.209024 
L 50.927623 -21.710186 
L 50.776698 -21.211349 
L 50.553258 -20.712511 
L 50.263125 -20.213674 
L 49.913699 -19.714836 
L 49.513648 -19.215998 
L 49.072568 -18.717161 
L 48.600611 -18.218323 
L 48.108108 -17.719486 
L 47.60521 -17.220648 
L 47.101552 -16.72181 
L 46.60597 -16.222973 
L 46.126266 -15.724135 
L 45.669041 -15.225298 
L 45.239593 -14.72646 
L 44.84188 -14.227623 
L 44.478542 -13.728785 
L 44.150978 -13.229947 
L 43.859468 -12.73111 
z
" style="stroke: #7c7c7c; stroke-width: 0.15"/>
    </defs>
    <g clip-path="url(#pea53de1480)">
     <use xlink:href="#ma092ae5e03" x="0" y="84.96" style="fill: #f3f3ae; stroke: #7c7c7c; stroke-width: 0.15"/>
    </g>
   </g>
   <g id="line2d_9">
    <path d="M 20.793753 64.92644 
L 20.793753 48.503787 
" clip-path="url(#pea53de1480)" style="fill: none; stroke: #8c8c8c; stroke-width: 0.75; stroke-linecap: round"/>
   </g>
   <g id="line2d_10">
    <path d="M 20.793753 64.509184 
L 20.793753 57.284067 
" clip-path="url(#pea53de1480)" style="fill: none; stroke: #8c8c8c; stroke-width: 4; stroke-linecap: round"/>
   </g>
   <g id="line2d_11">
    <path d="M 20.793753 63.017915 
" clip-path="url(#pea53de1480)" style="fill: none; stroke: #7c7c7c; stroke-width: 1.2; stroke-linecap: round"/>
    <defs>
     <path id="me4773f54f9" d="M 0 0.833333 
C 0.221003 0.833333 0.432983 0.745528 0.589256 0.589256 
C 0.745528 0.432983 0.833333 0.221003 0.833333 0 
C 0.833333 -0.221003 0.745528 -0.432983 0.589256 -0.589256 
C 0.432983 -0.745528 0.221003 -0.833333 0 -0.833333 
C -0.221003 -0.833333 -0.432983 -0.745528 -0.589256 -0.589256 
C -0.745528 -0.432983 -0.833333 -0.221003 -0.833333 0 
C -0.833333 0.221003 -0.745528 0.432983 -0.589256 0.589256 
C -0.432983 0.745528 -0.221003 0.833333 0 0.833333 
z
" style="stroke: #ffffff; stroke-width: 0.8"/>
    </defs>
    <g clip-path="url(#pea53de1480)">
     <use xlink:href="#me4773f54f9" x="20.793753" y="63.017915" style="fill: #ffffff; stroke: #ffffff; stroke-width: 0.8"/>
    </g>
   </g>
   <g id="line2d_12">
    <path d="M 42.371091 65.417873 
L 42.371091 55.305293 
" clip-path="url(#pea53de1480)" style="fill: none; stroke: #8c8c8c; stroke-width: 0.75; stroke-linecap: round"/>
   </g>
   <g id="line2d_13">
    <path d="M 42.371091 63.856152 
L 42.371091 55.305293 
" clip-path="url(#pea53de1480)" style="fill: none; stroke: #8c8c8c; stroke-width: 4; stroke-linecap: round"/>
   </g>
   <g id="line2d_14">
    <path d="M 42.371091 60.97212 
" clip-path="url(#pea53de1480)" style="fill: none; stroke: #7c7c7c; stroke-width: 1.2; stroke-linecap: round"/>
    <g clip-path="url(#pea53de1480)">
     <use xlink:href="#me4773f54f9" x="42.371091" y="60.97212" style="fill: #ffffff; stroke: #ffffff; stroke-width: 0.8"/>
    </g>
   </g>
   <g id="patch_3">
    <path d="M 10.005084 74.419526 
L 10.005084 4.076256 
" style="fill: none; stroke: #777777; stroke-width: 0.5; stroke-linejoin: miter; stroke-linecap: square"/>
   </g>
   <g id="patch_4">
    <path d="M 10.005084 76.919526 
L 53.15976 76.919526 
" style="fill: none; stroke: #777777; stroke-width: 0.5; stroke-linejoin: miter; stroke-linecap: square"/>
   </g>
  </g>
 </g>
 <defs>
  <clipPath id="pea53de1480">
   <rect x="10.005084" y="4.076256" width="43.154676" height="70.34327"/>
  </clipPath>
 </defs>
</svg>
