<?xml version="1.0" encoding="utf-8" standalone="no"?>
<!DOCTYPE svg PUBLIC "-//W3C//DTD SVG 1.1//EN"
  "http://www.w3.org/Graphics/SVG/1.1/DTD/svg11.dtd">
<svg xmlns:xlink="http://www.w3.org/1999/xlink" width="56.16pt" height="84.96pt" viewBox="0 0 56.16 84.96" xmlns="http://www.w3.org/2000/svg" version="1.1">
 <metadata>
  <rdf:RDF xmlns:dc="http://purl.org/dc/elements/1.1/" xmlns:cc="http://creativecommons.org/ns#" xmlns:rdf="http://www.w3.org/1999/02/22-rdf-syntax-ns#">
   <cc:Work>
    <dc:type rdf:resource="http://purl.org/dc/dcmitype/StillImage"/>
    <dc:date>2024-05-27T15:37:17.457399</dc:date>
    <dc:format>image/svg+xml</dc:format>
    <dc:creator>
     <cc:Agent>
      <dc:title>Matplotlib v3.8.3, https://matplotlib.org/</dc:title>
     </cc:Agent>
    </dc:creator>
   </cc:Work>
  </rdf:RDF>
 </metadata>
 <defs>
  <style type="text/css">*{stroke-linejoin: round; stroke-linecap: butt}</style>
 </defs>
 <g id="figure_1">
  <g id="patch_1">
   <path d="M 0 84.96 
L 56.16 84.96 
L 56.16 0 
L 0 0 
z
" style="fill: #ffffff"/>
  </g>
  <g id="axes_1">
   <g id="patch_2">
    <path d="M 10.005084 74.419526 
L 53.15976 74.419526 
L 53.15976 4.076256 
L 10.005084 4.076256 
z
" style="fill: #ffffff"/>
   </g>
   <g id="matplotlib.axis_1">
    <g id="xtick_1">
     <g id="text_1">
      <!-- EOMES+ Cells -->
      <g style="fill: #333333" transform="translate(9.075042 81.230229) scale(0.035 -0.035)">
       <defs>
        <path id="Helvetica-45" d="M 547 4591 
L 3894 4591 
L 3894 4028 
L 1153 4028 
L 1153 2634 
L 3688 2634 
L 3688 2103 
L 1153 2103 
L 1153 547 
L 3941 547 
L 3941 0 
L 547 0 
L 547 4591 
z
M 2244 4591 
L 2244 4591 
z
" transform="scale(0.015625)"/>
        <path id="Helvetica-4f" d="M 2469 4716 
Q 3684 4716 4269 3934 
Q 4725 3325 4725 2375 
Q 4725 1347 4203 666 
Q 3591 -134 2456 -134 
Q 1397 -134 791 566 
Q 250 1241 250 2272 
Q 250 3203 713 3866 
Q 1306 4716 2469 4716 
z
M 2531 422 
Q 3353 422 3720 1011 
Q 4088 1600 4088 2366 
Q 4088 3175 3664 3669 
Q 3241 4163 2506 4163 
Q 1794 4163 1344 3673 
Q 894 3184 894 2231 
Q 894 1469 1280 945 
Q 1666 422 2531 422 
z
M 2488 4716 
L 2488 4716 
z
" transform="scale(0.015625)"/>
        <path id="Helvetica-4d" d="M 472 4591 
L 1363 4591 
L 2681 709 
L 3991 4591 
L 4872 4591 
L 4872 0 
L 4281 0 
L 4281 2709 
Q 4281 2850 4287 3175 
Q 4294 3500 4294 3872 
L 2984 0 
L 2369 0 
L 1050 3872 
L 1050 3731 
Q 1050 3563 1058 3217 
Q 1066 2872 1066 2709 
L 1066 0 
L 472 0 
L 472 4591 
z
" transform="scale(0.015625)"/>
        <path id="Helvetica-53" d="M 894 1481 
Q 916 1091 1078 847 
Q 1388 391 2169 391 
Q 2519 391 2806 491 
Q 3363 684 3363 1184 
Q 3363 1559 3128 1719 
Q 2891 1875 2384 1991 
L 1763 2131 
Q 1153 2269 900 2434 
Q 463 2722 463 3294 
Q 463 3913 891 4309 
Q 1319 4706 2103 4706 
Q 2825 4706 3329 4357 
Q 3834 4009 3834 3244 
L 3250 3244 
Q 3203 3613 3050 3809 
Q 2766 4169 2084 4169 
Q 1534 4169 1293 3937 
Q 1053 3706 1053 3400 
Q 1053 3063 1334 2906 
Q 1519 2806 2169 2656 
L 2813 2509 
Q 3278 2403 3531 2219 
Q 3969 1897 3969 1284 
Q 3969 522 3414 194 
Q 2859 -134 2125 -134 
Q 1269 -134 784 303 
Q 300 738 309 1481 
L 894 1481 
z
M 2150 4716 
L 2150 4716 
z
" transform="scale(0.015625)"/>
        <path id="Helvetica-2b" d="M 288 1369 
L 288 1894 
L 1650 1894 
L 1650 3266 
L 2184 3266 
L 2184 1894 
L 3547 1894 
L 3547 1369 
L 2184 1369 
L 2184 0 
L 1650 0 
L 1650 1369 
L 288 1369 
z
" transform="scale(0.015625)"/>
        <path id="Helvetica-20" transform="scale(0.015625)"/>
        <path id="Helvetica-43" d="M 2422 4716 
Q 3294 4716 3775 4256 
Q 4256 3797 4309 3213 
L 3703 3213 
Q 3600 3656 3292 3915 
Q 2984 4175 2428 4175 
Q 1750 4175 1333 3698 
Q 916 3222 916 2238 
Q 916 1431 1292 929 
Q 1669 428 2416 428 
Q 3103 428 3463 956 
Q 3653 1234 3747 1688 
L 4353 1688 
Q 4272 963 3816 472 
Q 3269 -119 2341 -119 
Q 1541 -119 997 366 
Q 281 1006 281 2344 
Q 281 3359 819 4009 
Q 1400 4716 2422 4716 
z
M 2297 4716 
L 2297 4716 
z
" transform="scale(0.015625)"/>
        <path id="Helvetica-65" d="M 1806 3422 
Q 2163 3422 2497 3255 
Q 2831 3088 3006 2822 
Q 3175 2569 3231 2231 
Q 3281 2000 3281 1494 
L 828 1494 
Q 844 984 1069 676 
Q 1294 369 1766 369 
Q 2206 369 2469 659 
Q 2619 828 2681 1050 
L 3234 1050 
Q 3213 866 3089 639 
Q 2966 413 2813 269 
Q 2556 19 2178 -69 
Q 1975 -119 1719 -119 
Q 1094 -119 659 336 
Q 225 791 225 1609 
Q 225 2416 662 2919 
Q 1100 3422 1806 3422 
z
M 2703 1941 
Q 2669 2306 2544 2525 
Q 2313 2931 1772 2931 
Q 1384 2931 1121 2651 
Q 859 2372 844 1941 
L 2703 1941 
z
M 1753 3428 
L 1753 3428 
z
" transform="scale(0.015625)"/>
        <path id="Helvetica-6c" d="M 428 4591 
L 991 4591 
L 991 0 
L 428 0 
L 428 4591 
z
" transform="scale(0.015625)"/>
        <path id="Helvetica-73" d="M 747 1050 
Q 772 769 888 619 
Q 1100 347 1625 347 
Q 1938 347 2175 483 
Q 2413 619 2413 903 
Q 2413 1119 2222 1231 
Q 2100 1300 1741 1391 
L 1294 1503 
Q 866 1609 663 1741 
Q 300 1969 300 2372 
Q 300 2847 642 3140 
Q 984 3434 1563 3434 
Q 2319 3434 2653 2991 
Q 2863 2709 2856 2384 
L 2325 2384 
Q 2309 2575 2191 2731 
Q 1997 2953 1519 2953 
Q 1200 2953 1036 2831 
Q 872 2709 872 2509 
Q 872 2291 1088 2159 
Q 1213 2081 1456 2022 
L 1828 1931 
Q 2434 1784 2641 1647 
Q 2969 1431 2969 969 
Q 2969 522 2630 197 
Q 2291 -128 1597 -128 
Q 850 -128 539 211 
Q 228 550 206 1050 
L 747 1050 
z
M 1578 3428 
L 1578 3428 
z
" transform="scale(0.015625)"/>
       </defs>
       <use xlink:href="#Helvetica-45"/>
       <use xlink:href="#Helvetica-4f" x="66.699219"/>
       <use xlink:href="#Helvetica-4d" x="144.482422"/>
       <use xlink:href="#Helvetica-45" x="227.783203"/>
       <use xlink:href="#Helvetica-53" x="294.482422"/>
       <use xlink:href="#Helvetica-2b" x="361.181641"/>
       <use xlink:href="#Helvetica-20" x="419.580078"/>
       <use xlink:href="#Helvetica-43" x="447.363281"/>
       <use xlink:href="#Helvetica-65" x="519.580078"/>
       <use xlink:href="#Helvetica-6c" x="575.195312"/>
       <use xlink:href="#Helvetica-6c" x="597.412109"/>
       <use xlink:href="#Helvetica-73" x="619.628906"/>
      </g>
     </g>
    </g>
    <g id="xtick_2">
     <g id="text_2">
      <!-- TBX+ Cells -->
      <g style="fill: #333333" transform="translate(33.569685 81.230229) scale(0.035 -0.035)">
       <defs>
        <path id="Helvetica-54" d="M 3828 4591 
L 3828 4044 
L 2281 4044 
L 2281 0 
L 1650 0 
L 1650 4044 
L 103 4044 
L 103 4591 
L 3828 4591 
z
" transform="scale(0.015625)"/>
        <path id="Helvetica-42" d="M 2213 2650 
Q 2606 2650 2825 2759 
Q 3169 2931 3169 3378 
Q 3169 3828 2803 3984 
Q 2597 4072 2191 4072 
L 1081 4072 
L 1081 2650 
L 2213 2650 
z
M 2422 531 
Q 2994 531 3238 863 
Q 3391 1072 3391 1369 
Q 3391 1869 2944 2050 
Q 2706 2147 2316 2147 
L 1081 2147 
L 1081 531 
L 2422 531 
z
M 472 4591 
L 2444 4591 
Q 3250 4591 3591 4109 
Q 3791 3825 3791 3453 
Q 3791 3019 3544 2741 
Q 3416 2594 3175 2472 
Q 3528 2338 3703 2169 
Q 4013 1869 4013 1341 
Q 4013 897 3734 538 
Q 3319 0 2413 0 
L 472 0 
L 472 4591 
z
" transform="scale(0.015625)"/>
        <path id="Helvetica-58" d="M 881 0 
L 131 0 
L 1775 2353 
L 234 4591 
L 1013 4591 
L 2184 2834 
L 3347 4591 
L 4088 4591 
L 2547 2353 
L 4163 0 
L 3391 0 
L 2153 1888 
L 881 0 
z
" transform="scale(0.015625)"/>
       </defs>
       <use xlink:href="#Helvetica-54"/>
       <use xlink:href="#Helvetica-42" x="61.083984"/>
       <use xlink:href="#Helvetica-58" x="127.783203"/>
       <use xlink:href="#Helvetica-2b" x="194.482422"/>
       <use xlink:href="#Helvetica-20" x="252.880859"/>
       <use xlink:href="#Helvetica-43" x="280.664062"/>
       <use xlink:href="#Helvetica-65" x="352.880859"/>
       <use xlink:href="#Helvetica-6c" x="408.496094"/>
       <use xlink:href="#Helvetica-6c" x="430.712891"/>
       <use xlink:href="#Helvetica-73" x="452.929688"/>
      </g>
     </g>
    </g>
   </g>
   <g id="matplotlib.axis_2">
    <g id="ytick_1">
     <g id="line2d_1">
      <defs>
       <path id="mfe3e3fc0d6" d="M 0 0 
L -1 0 
" style="stroke: #777777; stroke-width: 0.5"/>
      </defs>
      <g>
       <use xlink:href="#mfe3e3fc0d6" x="10.005084" y="66.189518" style="fill: #777777; stroke: #777777; stroke-width: 0.5"/>
      </g>
     </g>
     <g id="text_3">
      <!-- 0 -->
      <g style="fill: #333333" transform="translate(6.336802 67.265534) scale(0.03 -0.03)">
       <defs>
        <path id="Helvetica-30" d="M 1731 4475 
Q 2600 4475 2988 3759 
Q 3288 3206 3288 2244 
Q 3288 1331 3016 734 
Q 2622 -122 1728 -122 
Q 922 -122 528 578 
Q 200 1163 200 2147 
Q 200 2909 397 3456 
Q 766 4475 1731 4475 
z
M 1725 391 
Q 2163 391 2422 778 
Q 2681 1166 2681 2222 
Q 2681 2984 2493 3476 
Q 2306 3969 1766 3969 
Q 1269 3969 1039 3501 
Q 809 3034 809 2125 
Q 809 1441 956 1025 
Q 1181 391 1725 391 
z
" transform="scale(0.015625)"/>
       </defs>
       <use xlink:href="#Helvetica-30"/>
      </g>
     </g>
    </g>
    <g id="ytick_2">
     <g id="line2d_2">
      <g>
       <use xlink:href="#mfe3e3fc0d6" x="10.005084" y="55.837308" style="fill: #777777; stroke: #777777; stroke-width: 0.5"/>
      </g>
     </g>
     <g id="text_4">
      <!-- 20 -->
      <g style="fill: #333333" transform="translate(4.668521 56.913323) scale(0.03 -0.03)">
       <defs>
        <path id="Helvetica-32" d="M 200 0 
Q 231 578 439 1006 
Q 647 1434 1250 1784 
L 1850 2131 
Q 2253 2366 2416 2531 
Q 2672 2791 2672 3125 
Q 2672 3516 2437 3745 
Q 2203 3975 1813 3975 
Q 1234 3975 1013 3538 
Q 894 3303 881 2888 
L 309 2888 
Q 319 3472 525 3841 
Q 891 4491 1816 4491 
Q 2584 4491 2939 4075 
Q 3294 3659 3294 3150 
Q 3294 2613 2916 2231 
Q 2697 2009 2131 1694 
L 1703 1456 
Q 1397 1288 1222 1134 
Q 909 863 828 531 
L 3272 531 
L 3272 0 
L 200 0 
z
" transform="scale(0.015625)"/>
       </defs>
       <use xlink:href="#Helvetica-32"/>
       <use xlink:href="#Helvetica-30" x="55.615234"/>
      </g>
     </g>
    </g>
    <g id="ytick_3">
     <g id="line2d_3">
      <g>
       <use xlink:href="#mfe3e3fc0d6" x="10.005084" y="45.485097" style="fill: #777777; stroke: #777777; stroke-width: 0.5"/>
      </g>
     </g>
     <g id="text_5">
      <!-- 40 -->
      <g style="fill: #333333" transform="translate(4.668521 46.561113) scale(0.03 -0.03)">
       <defs>
        <path id="Helvetica-34" d="M 2116 1584 
L 2116 3613 
L 681 1584 
L 2116 1584 
z
M 2125 0 
L 2125 1094 
L 163 1094 
L 163 1644 
L 2213 4488 
L 2688 4488 
L 2688 1584 
L 3347 1584 
L 3347 1094 
L 2688 1094 
L 2688 0 
L 2125 0 
z
" transform="scale(0.015625)"/>
       </defs>
       <use xlink:href="#Helvetica-34"/>
       <use xlink:href="#Helvetica-30" x="55.615234"/>
      </g>
     </g>
    </g>
    <g id="ytick_4">
     <g id="line2d_4">
      <g>
       <use xlink:href="#mfe3e3fc0d6" x="10.005084" y="35.132887" style="fill: #777777; stroke: #777777; stroke-width: 0.5"/>
      </g>
     </g>
     <g id="text_6">
      <!-- 60 -->
      <g style="fill: #333333" transform="translate(4.668521 36.208903) scale(0.03 -0.03)">
       <defs>
        <path id="Helvetica-36" d="M 1872 4494 
Q 2622 4494 2917 4105 
Q 3213 3716 3213 3303 
L 2656 3303 
Q 2606 3569 2497 3719 
Q 2294 4000 1881 4000 
Q 1409 4000 1131 3564 
Q 853 3128 822 2316 
Q 1016 2600 1309 2741 
Q 1578 2866 1909 2866 
Q 2472 2866 2890 2506 
Q 3309 2147 3309 1434 
Q 3309 825 2912 354 
Q 2516 -116 1781 -116 
Q 1153 -116 697 361 
Q 241 838 241 1966 
Q 241 2800 444 3381 
Q 834 4494 1872 4494 
z
M 1831 384 
Q 2275 384 2495 682 
Q 2716 981 2716 1388 
Q 2716 1731 2519 2042 
Q 2322 2353 1803 2353 
Q 1441 2353 1167 2112 
Q 894 1872 894 1388 
Q 894 963 1142 673 
Q 1391 384 1831 384 
z
" transform="scale(0.015625)"/>
       </defs>
       <use xlink:href="#Helvetica-36"/>
       <use xlink:href="#Helvetica-30" x="55.615234"/>
      </g>
     </g>
    </g>
    <g id="ytick_5">
     <g id="line2d_5">
      <g>
       <use xlink:href="#mfe3e3fc0d6" x="10.005084" y="24.780677" style="fill: #777777; stroke: #777777; stroke-width: 0.5"/>
      </g>
     </g>
     <g id="text_7">
      <!-- 80 -->
      <g style="fill: #333333" transform="translate(4.668521 25.856692) scale(0.03 -0.03)">
       <defs>
        <path id="Helvetica-38" d="M 1741 2600 
Q 2113 2600 2322 2808 
Q 2531 3016 2531 3303 
Q 2531 3553 2331 3762 
Q 2131 3972 1722 3972 
Q 1316 3972 1134 3762 
Q 953 3553 953 3272 
Q 953 2956 1187 2778 
Q 1422 2600 1741 2600 
z
M 1775 384 
Q 2166 384 2423 595 
Q 2681 806 2681 1225 
Q 2681 1659 2415 1884 
Q 2150 2109 1734 2109 
Q 1331 2109 1076 1879 
Q 822 1650 822 1244 
Q 822 894 1055 639 
Q 1288 384 1775 384 
z
M 975 2384 
Q 741 2484 609 2619 
Q 363 2869 363 3269 
Q 363 3769 725 4128 
Q 1088 4488 1753 4488 
Q 2397 4488 2762 4148 
Q 3128 3809 3128 3356 
Q 3128 2938 2916 2678 
Q 2797 2531 2547 2391 
Q 2825 2263 2984 2097 
Q 3281 1784 3281 1284 
Q 3281 694 2884 283 
Q 2488 -128 1763 -128 
Q 1109 -128 657 226 
Q 206 581 206 1256 
Q 206 1653 400 1942 
Q 594 2231 975 2384 
z
" transform="scale(0.015625)"/>
       </defs>
       <use xlink:href="#Helvetica-38"/>
       <use xlink:href="#Helvetica-30" x="55.615234"/>
      </g>
     </g>
    </g>
    <g id="ytick_6">
     <g id="line2d_6">
      <g>
       <use xlink:href="#mfe3e3fc0d6" x="10.005084" y="14.428466" style="fill: #777777; stroke: #777777; stroke-width: 0.5"/>
      </g>
     </g>
     <g id="text_8">
      <!-- 100 -->
      <g style="fill: #333333" transform="translate(3.00024 15.504482) scale(0.03 -0.03)">
       <defs>
        <path id="Helvetica-31" d="M 613 3169 
L 613 3600 
Q 1222 3659 1462 3798 
Q 1703 3938 1822 4456 
L 2266 4456 
L 2266 0 
L 1666 0 
L 1666 3169 
L 613 3169 
z
" transform="scale(0.015625)"/>
       </defs>
       <use xlink:href="#Helvetica-31"/>
       <use xlink:href="#Helvetica-30" x="55.615234"/>
       <use xlink:href="#Helvetica-30" x="111.230469"/>
      </g>
     </g>
    </g>
    <g id="ytick_7">
     <g id="line2d_7">
      <g>
       <use xlink:href="#mfe3e3fc0d6" x="10.005084" y="4.076256" style="fill: #777777; stroke: #777777; stroke-width: 0.5"/>
      </g>
     </g>
     <g id="text_9">
      <!-- 120 -->
      <g style="fill: #333333" transform="translate(3.00024 5.152271) scale(0.03 -0.03)">
       <use xlink:href="#Helvetica-31"/>
       <use xlink:href="#Helvetica-32" x="55.615234"/>
       <use xlink:href="#Helvetica-30" x="111.230469"/>
      </g>
     </g>
    </g>
   </g>
   <g id="PolyCollection_1">
    <defs>
     <path id="m7b8e3be12d" d="M 21.989799 -18.570771 
L 19.597707 -18.570771 
L 19.33117 -18.586607 
L 19.025147 -18.602444 
L 18.678735 -18.618281 
L 18.292237 -18.634118 
L 17.867362 -18.649954 
L 17.407382 -18.665791 
L 16.917231 -18.681628 
L 16.40353 -18.697464 
L 15.874521 -18.713301 
L 15.339911 -18.729138 
L 14.810629 -18.744975 
L 14.298481 -18.760811 
L 13.815748 -18.776648 
L 13.374713 -18.792485 
L 12.987165 -18.808321 
L 12.663892 -18.824158 
L 12.414195 -18.839995 
L 12.245463 -18.855832 
L 12.162818 -18.871668 
L 12.168859 -18.887505 
L 12.263538 -18.903342 
L 12.444143 -18.919178 
L 12.705426 -18.935015 
L 13.039845 -18.950852 
L 13.437911 -18.966689 
L 13.888626 -18.982525 
L 14.379975 -18.998362 
L 14.899448 -19.014199 
L 15.434557 -19.030035 
L 15.973328 -19.045872 
L 16.504723 -19.061709 
L 17.018991 -19.077546 
L 17.507925 -19.093382 
L 17.965013 -19.109219 
L 18.385502 -19.125056 
L 18.766354 -19.140892 
L 19.106136 -19.156729 
L 19.40484 -19.172566 
L 19.663666 -19.188402 
L 19.884772 -19.204239 
L 20.071023 -19.220076 
L 20.225755 -19.235913 
L 20.352546 -19.251749 
L 20.455035 -19.267586 
L 20.536763 -19.283423 
L 20.601061 -19.299259 
L 20.650967 -19.315096 
L 20.689178 -19.330933 
L 20.718033 -19.34677 
L 20.739509 -19.362606 
L 20.755244 -19.378443 
L 20.766559 -19.39428 
L 20.774494 -19.410116 
L 20.779842 -19.425953 
L 20.783183 -19.44179 
L 20.78491 -19.457627 
L 20.785256 -19.473463 
L 20.784312 -19.4893 
L 20.782043 -19.505137 
L 20.778293 -19.520973 
L 20.772794 -19.53681 
L 20.765171 -19.552647 
L 20.754943 -19.568484 
L 20.741537 -19.58432 
L 20.724292 -19.600157 
L 20.702486 -19.615994 
L 20.675355 -19.63183 
L 20.642138 -19.647667 
L 20.602122 -19.663504 
L 20.554696 -19.679341 
L 20.499417 -19.695177 
L 20.436081 -19.711014 
L 20.364784 -19.726851 
L 20.285984 -19.742687 
L 20.200548 -19.758524 
L 20.109775 -19.774361 
L 20.015399 -19.790198 
L 19.919554 -19.806034 
L 19.824712 -19.821871 
L 19.733591 -19.837708 
L 19.649031 -19.853544 
L 19.573847 -19.869381 
L 19.510681 -19.885218 
L 19.461846 -19.901055 
L 19.429186 -19.916891 
L 19.41396 -19.932728 
L 19.416761 -19.948565 
L 19.43748 -19.964401 
L 19.475311 -19.980238 
L 19.528804 -19.996075 
L 19.595956 -20.011912 
L 19.674336 -20.027748 
L 19.761233 -20.043585 
L 19.853805 -20.059422 
L 19.949239 -20.075258 
L 20.04488 -20.091095 
L 20.138351 -20.106932 
L 20.227637 -20.122769 
L 20.311137 -20.138605 
L 21.276369 -20.138605 
L 21.276369 -20.138605 
L 21.359869 -20.122769 
L 21.449155 -20.106932 
L 21.542626 -20.091095 
L 21.638267 -20.075258 
L 21.7337 -20.059422 
L 21.826273 -20.043585 
L 21.91317 -20.027748 
L 21.99155 -20.011912 
L 22.058702 -19.996075 
L 22.112194 -19.980238 
L 22.150026 -19.964401 
L 22.170745 -19.948565 
L 22.173546 -19.932728 
L 22.158319 -19.916891 
L 22.125659 -19.901055 
L 22.076825 -19.885218 
L 22.013659 -19.869381 
L 21.938475 -19.853544 
L 21.853914 -19.837708 
L 21.762794 -19.821871 
L 21.667952 -19.806034 
L 21.572107 -19.790198 
L 21.47773 -19.774361 
L 21.386958 -19.758524 
L 21.301522 -19.742687 
L 21.222722 -19.726851 
L 21.151425 -19.711014 
L 21.088088 -19.695177 
L 21.03281 -19.679341 
L 20.985384 -19.663504 
L 20.945367 -19.647667 
L 20.912151 -19.63183 
L 20.88502 -19.615994 
L 20.863213 -19.600157 
L 20.845969 -19.58432 
L 20.832562 -19.568484 
L 20.822335 -19.552647 
L 20.814712 -19.53681 
L 20.809213 -19.520973 
L 20.805462 -19.505137 
L 20.803193 -19.4893 
L 20.80225 -19.473463 
L 20.802596 -19.457627 
L 20.804323 -19.44179 
L 20.807663 -19.425953 
L 20.813012 -19.410116 
L 20.820947 -19.39428 
L 20.832262 -19.378443 
L 20.847996 -19.362606 
L 20.869473 -19.34677 
L 20.898328 -19.330933 
L 20.936539 -19.315096 
L 20.986445 -19.299259 
L 21.050743 -19.283423 
L 21.132471 -19.267586 
L 21.23496 -19.251749 
L 21.361751 -19.235913 
L 21.516482 -19.220076 
L 21.702734 -19.204239 
L 21.923839 -19.188402 
L 22.182665 -19.172566 
L 22.48137 -19.156729 
L 22.821152 -19.140892 
L 23.202004 -19.125056 
L 23.622492 -19.109219 
L 24.079581 -19.093382 
L 24.568514 -19.077546 
L 25.082782 -19.061709 
L 25.614177 -19.045872 
L 26.152948 -19.030035 
L 26.688058 -19.014199 
L 27.207531 -18.998362 
L 27.698879 -18.982525 
L 28.149594 -18.966689 
L 28.54766 -18.950852 
L 28.882079 -18.935015 
L 29.143363 -18.919178 
L 29.323968 -18.903342 
L 29.418646 -18.887505 
L 29.424688 -18.871668 
L 29.342042 -18.855832 
L 29.173311 -18.839995 
L 28.923614 -18.824158 
L 28.60034 -18.808321 
L 28.212793 -18.792485 
L 27.771758 -18.776648 
L 27.289025 -18.760811 
L 26.776877 -18.744975 
L 26.247594 -18.729138 
L 25.712985 -18.713301 
L 25.183975 -18.697464 
L 24.670274 -18.681628 
L 24.180124 -18.665791 
L 23.720143 -18.649954 
L 23.295268 -18.634118 
L 22.90877 -18.618281 
L 22.562359 -18.602444 
L 22.256335 -18.586607 
L 21.989799 -18.570771 
z
" style="stroke: #6f6f6f; stroke-width: 0.15"/>
    </defs>
    <g clip-path="url(#pf488f97bbb)">
     <use xlink:href="#m7b8e3be12d" x="0" y="84.96" style="fill: #f2aba8; stroke: #6f6f6f; stroke-width: 0.15"/>
    </g>
   </g>
   <g id="PolyCollection_2">
    <defs>
     <path id="m4a5d3e1129" d="M 43.848647 -18.746108 
L 40.893534 -18.746108 
L 40.588422 -18.748273 
L 40.244766 -18.750437 
L 39.863447 -18.752601 
L 39.446744 -18.754765 
L 38.998441 -18.756929 
L 38.523838 -18.759093 
L 38.029692 -18.761257 
L 37.524048 -18.763422 
L 37.015996 -18.765586 
L 36.515329 -18.76775 
L 36.032149 -18.769914 
L 35.576416 -18.772078 
L 35.157497 -18.774242 
L 34.783716 -18.776406 
L 34.461957 -18.778571 
L 34.197332 -18.780735 
L 33.992945 -18.782899 
L 33.849761 -18.785063 
L 33.766585 -18.787227 
L 33.740156 -18.789391 
L 33.765339 -18.791556 
L 33.835406 -18.79372 
L 33.942379 -18.795884 
L 34.077424 -18.798048 
L 34.231264 -18.800212 
L 34.394602 -18.802376 
L 34.55852 -18.80454 
L 34.714859 -18.806705 
L 34.856543 -18.808869 
L 34.977859 -18.811033 
L 35.074666 -18.813197 
L 35.144543 -18.815361 
L 35.186848 -18.817525 
L 35.202705 -18.81969 
L 35.194915 -18.821854 
L 35.167777 -18.824018 
L 35.126851 -18.826182 
L 35.078657 -18.828346 
L 35.030334 -18.83051 
L 34.989269 -18.832674 
L 34.962737 -18.834839 
L 34.957548 -18.837003 
L 34.979739 -18.839167 
L 35.034318 -18.841331 
L 35.125073 -18.843495 
L 35.254457 -18.845659 
L 35.423533 -18.847824 
L 35.631994 -18.849988 
L 35.878234 -18.852152 
L 36.159468 -18.854316 
L 36.471883 -18.85648 
L 36.810816 -18.858644 
L 37.170939 -18.860808 
L 37.546459 -18.862973 
L 37.931307 -18.865137 
L 38.319325 -18.867301 
L 38.704439 -18.869465 
L 39.08082 -18.871629 
L 39.443018 -18.873793 
L 39.786075 -18.875957 
L 40.105617 -18.878122 
L 40.397903 -18.880286 
L 40.659862 -18.88245 
L 40.889086 -18.884614 
L 41.08382 -18.886778 
L 41.242916 -18.888942 
L 41.365799 -18.891107 
L 41.452424 -18.893271 
L 41.503241 -18.895435 
L 41.519183 -18.897599 
L 41.501667 -18.899763 
L 41.452615 -18.901927 
L 41.374487 -18.904091 
L 41.270318 -18.906256 
L 41.14375 -18.90842 
L 40.999045 -18.910584 
L 40.841063 -18.912748 
L 40.675198 -18.914912 
L 40.507267 -18.917076 
L 40.343341 -18.919241 
L 40.189539 -18.921405 
L 40.051779 -18.923569 
L 39.935512 -18.925733 
L 39.845454 -18.927897 
L 39.785344 -18.930061 
L 39.757748 -18.932225 
L 39.763919 -18.93439 
L 39.803742 -18.936554 
L 39.875757 -18.938718 
L 39.977265 -18.940882 
L 40.104511 -18.943046 
L 40.252922 -18.94521 
L 40.417386 -18.947374 
L 40.592545 -18.949539 
L 40.773089 -18.951703 
L 40.954006 -18.953867 
L 41.130811 -18.956031 
L 41.299698 -18.958195 
L 41.457644 -18.960359 
L 43.284538 -18.960359 
L 43.284538 -18.960359 
L 43.442484 -18.958195 
L 43.611371 -18.956031 
L 43.788175 -18.953867 
L 43.969093 -18.951703 
L 44.149636 -18.949539 
L 44.324796 -18.947374 
L 44.48926 -18.94521 
L 44.637671 -18.943046 
L 44.764917 -18.940882 
L 44.866425 -18.938718 
L 44.93844 -18.936554 
L 44.978263 -18.93439 
L 44.984434 -18.932225 
L 44.956838 -18.930061 
L 44.896728 -18.927897 
L 44.80667 -18.925733 
L 44.690402 -18.923569 
L 44.552643 -18.921405 
L 44.398841 -18.919241 
L 44.234915 -18.917076 
L 44.066983 -18.914912 
L 43.901119 -18.912748 
L 43.743137 -18.910584 
L 43.598432 -18.90842 
L 43.471864 -18.906256 
L 43.367695 -18.904091 
L 43.289567 -18.901927 
L 43.240515 -18.899763 
L 43.222999 -18.897599 
L 43.238941 -18.895435 
L 43.289758 -18.893271 
L 43.376383 -18.891107 
L 43.499266 -18.888942 
L 43.658362 -18.886778 
L 43.853095 -18.884614 
L 44.08232 -18.88245 
L 44.344278 -18.880286 
L 44.636565 -18.878122 
L 44.956107 -18.875957 
L 45.299164 -18.873793 
L 45.661362 -18.871629 
L 46.037743 -18.869465 
L 46.422857 -18.867301 
L 46.810875 -18.865137 
L 47.195723 -18.862973 
L 47.571243 -18.860808 
L 47.931366 -18.858644 
L 48.270298 -18.85648 
L 48.582714 -18.854316 
L 48.863948 -18.852152 
L 49.110188 -18.849988 
L 49.318649 -18.847824 
L 49.487725 -18.845659 
L 49.617109 -18.843495 
L 49.707864 -18.841331 
L 49.762443 -18.839167 
L 49.784634 -18.837003 
L 49.779445 -18.834839 
L 49.752913 -18.832674 
L 49.711848 -18.83051 
L 49.663524 -18.828346 
L 49.615331 -18.826182 
L 49.574405 -18.824018 
L 49.547267 -18.821854 
L 49.539477 -18.81969 
L 49.555334 -18.817525 
L 49.597639 -18.815361 
L 49.667515 -18.813197 
L 49.764323 -18.811033 
L 49.885639 -18.808869 
L 50.027323 -18.806705 
L 50.183661 -18.80454 
L 50.34758 -18.802376 
L 50.510918 -18.800212 
L 50.664758 -18.798048 
L 50.799803 -18.795884 
L 50.906775 -18.79372 
L 50.976843 -18.791556 
L 51.002026 -18.789391 
L 50.975597 -18.787227 
L 50.892421 -18.785063 
L 50.749237 -18.782899 
L 50.54485 -18.780735 
L 50.280225 -18.778571 
L 49.958465 -18.776406 
L 49.584685 -18.774242 
L 49.165766 -18.772078 
L 48.710033 -18.769914 
L 48.226852 -18.76775 
L 47.726186 -18.765586 
L 47.218134 -18.763422 
L 46.71249 -18.761257 
L 46.218344 -18.759093 
L 45.743741 -18.756929 
L 45.295438 -18.754765 
L 44.878735 -18.752601 
L 44.497415 -18.750437 
L 44.15376 -18.748273 
L 43.848647 -18.746108 
z
" style="stroke: #6f6f6f; stroke-width: 0.15"/>
    </defs>
    <g clip-path="url(#pf488f97bbb)">
     <use xlink:href="#m4a5d3e1129" x="0" y="84.96" style="fill: #d3c4f6; stroke: #6f6f6f; stroke-width: 0.15"/>
    </g>
   </g>
   <g id="line2d_8">
    <path d="M 20.793753 66.188819 
L 20.793753 65.980365 
" clip-path="url(#pf488f97bbb)" style="fill: none; stroke: #8c8c8c; stroke-width: 0.75; stroke-linecap: round"/>
   </g>
   <g id="line2d_9">
    <path d="M 20.793753 66.128653 
L 20.793753 66.013533 
" clip-path="url(#pf488f97bbb)" style="fill: none; stroke: #8c8c8c; stroke-width: 4; stroke-linecap: round"/>
   </g>
   <g id="line2d_10">
    <path d="M 20.793753 66.058766 
" clip-path="url(#pf488f97bbb)" style="fill: none; stroke: #6f6f6f; stroke-width: 1.2; stroke-linecap: round"/>
    <defs>
     <path id="mb24efa3e9b" d="M 0 0.833333 
C 0.221003 0.833333 0.432983 0.745528 0.589256 0.589256 
C 0.745528 0.432983 0.833333 0.221003 0.833333 0 
C 0.833333 -0.221003 0.745528 -0.432983 0.589256 -0.589256 
C 0.432983 -0.745528 0.221003 -0.833333 0 -0.833333 
C -0.221003 -0.833333 -0.432983 -0.745528 -0.589256 -0.589256 
C -0.745528 -0.432983 -0.833333 -0.221003 -0.833333 0 
C -0.833333 0.221003 -0.745528 0.432983 -0.589256 0.589256 
C -0.432983 0.745528 -0.221003 0.833333 0 0.833333 
z
" style="stroke: #ffffff; stroke-width: 0.8"/>
    </defs>
    <g clip-path="url(#pf488f97bbb)">
     <use xlink:href="#mb24efa3e9b" x="20.793753" y="66.058766" style="fill: #ffffff; stroke: #ffffff; stroke-width: 0.8"/>
    </g>
   </g>
   <g id="line2d_11">
    <path d="M 42.371091 66.186489 
L 42.371091 66.100195 
" clip-path="url(#pf488f97bbb)" style="fill: none; stroke: #8c8c8c; stroke-width: 0.75; stroke-linecap: round"/>
   </g>
   <g id="line2d_12">
    <path d="M 42.371091 66.170793 
L 42.371091 66.113362 
" clip-path="url(#pf488f97bbb)" style="fill: none; stroke: #8c8c8c; stroke-width: 4; stroke-linecap: round"/>
   </g>
   <g id="line2d_13">
    <path d="M 42.371091 66.138779 
" clip-path="url(#pf488f97bbb)" style="fill: none; stroke: #6f6f6f; stroke-width: 1.2; stroke-linecap: round"/>
    <g clip-path="url(#pf488f97bbb)">
     <use xlink:href="#mb24efa3e9b" x="42.371091" y="66.138779" style="fill: #ffffff; stroke: #ffffff; stroke-width: 0.8"/>
    </g>
   </g>
   <g id="patch_3">
    <path d="M 10.005084 74.419526 
L 10.005084 4.076256 
" style="fill: none; stroke: #777777; stroke-width: 0.5; stroke-linejoin: miter; stroke-linecap: square"/>
   </g>
   <g id="patch_4">
    <path d="M 10.005084 76.919526 
L 53.15976 76.919526 
" style="fill: none; stroke: #777777; stroke-width: 0.5; stroke-linejoin: miter; stroke-linecap: square"/>
   </g>
  </g>
 </g>
 <defs>
  <clipPath id="pf488f97bbb">
   <rect x="10.005084" y="4.076256" width="43.154676" height="70.34327"/>
  </clipPath>
 </defs>
</svg>
