<?xml version="1.0" encoding="utf-8" standalone="no"?>
<!DOCTYPE svg PUBLIC "-//W3C//DTD SVG 1.1//EN"
  "http://www.w3.org/Graphics/SVG/1.1/DTD/svg11.dtd">
<svg xmlns:xlink="http://www.w3.org/1999/xlink" width="56.16pt" height="84.96pt" viewBox="0 0 56.16 84.96" xmlns="http://www.w3.org/2000/svg" version="1.1">
 <metadata>
  <rdf:RDF xmlns:dc="http://purl.org/dc/elements/1.1/" xmlns:cc="http://creativecommons.org/ns#" xmlns:rdf="http://www.w3.org/1999/02/22-rdf-syntax-ns#">
   <cc:Work>
    <dc:type rdf:resource="http://purl.org/dc/dcmitype/StillImage"/>
    <dc:date>2024-05-27T15:37:15.916805</dc:date>
    <dc:format>image/svg+xml</dc:format>
    <dc:creator>
     <cc:Agent>
      <dc:title>Matplotlib v3.8.3, https://matplotlib.org/</dc:title>
     </cc:Agent>
    </dc:creator>
   </cc:Work>
  </rdf:RDF>
 </metadata>
 <defs>
  <style type="text/css">*{stroke-linejoin: round; stroke-linecap: butt}</style>
 </defs>
 <g id="figure_1">
  <g id="patch_1">
   <path d="M 0 84.96 
L 56.16 84.96 
L 56.16 0 
L 0 0 
z
" style="fill: #ffffff"/>
  </g>
  <g id="axes_1">
   <g id="patch_2">
    <path d="M 13.341646 74.419526 
L 53.15976 74.419526 
L 53.15976 4.076256 
L 13.341646 4.076256 
z
" style="fill: #ffffff"/>
   </g>
   <g id="matplotlib.axis_1">
    <g id="xtick_1">
     <g id="text_1">
      <!-- T -->
      <g style="fill: #333333" transform="translate(22.227307 81.230229) scale(0.035 -0.035)">
       <defs>
        <path id="Helvetica-54" d="M 3828 4591 
L 3828 4044 
L 2281 4044 
L 2281 0 
L 1650 0 
L 1650 4044 
L 103 4044 
L 103 4591 
L 3828 4591 
z
" transform="scale(0.015625)"/>
       </defs>
       <use xlink:href="#Helvetica-54"/>
      </g>
     </g>
    </g>
    <g id="xtick_2">
     <g id="text_2">
      <!-- IL7R Non T -->
      <g style="fill: #333333" transform="translate(34.257536 81.230229) scale(0.035 -0.035)">
       <defs>
        <path id="Helvetica-49" d="M 628 4591 
L 1256 4591 
L 1256 0 
L 628 0 
L 628 4591 
z
" transform="scale(0.015625)"/>
        <path id="Helvetica-4c" d="M 488 4591 
L 1109 4591 
L 1109 547 
L 3434 547 
L 3434 0 
L 488 0 
L 488 4591 
z
" transform="scale(0.015625)"/>
        <path id="Helvetica-37" d="M 3347 4400 
L 3347 3909 
Q 3131 3700 2773 3181 
Q 2416 2663 2141 2063 
Q 1869 1478 1728 997 
Q 1638 688 1494 0 
L 872 0 
Q 1084 1281 1809 2550 
Q 2238 3294 2709 3834 
L 234 3834 
L 234 4400 
L 3347 4400 
z
" transform="scale(0.015625)"/>
        <path id="Helvetica-52" d="M 2622 2488 
Q 3059 2488 3314 2663 
Q 3569 2838 3569 3294 
Q 3569 3784 3213 3963 
Q 3022 4056 2703 4056 
L 1184 4056 
L 1184 2488 
L 2622 2488 
z
M 563 4591 
L 2688 4591 
Q 3213 4591 3553 4438 
Q 4200 4144 4200 3353 
Q 4200 2941 4029 2678 
Q 3859 2416 3553 2256 
Q 3822 2147 3958 1969 
Q 4094 1791 4109 1391 
L 4131 775 
Q 4141 513 4175 384 
Q 4231 166 4375 103 
L 4375 0 
L 3613 0 
Q 3581 59 3562 153 
Q 3544 247 3531 516 
L 3494 1281 
Q 3472 1731 3159 1884 
Q 2981 1969 2600 1969 
L 1184 1969 
L 1184 0 
L 563 0 
L 563 4591 
z
" transform="scale(0.015625)"/>
        <path id="Helvetica-20" transform="scale(0.015625)"/>
        <path id="Helvetica-4e" d="M 488 4591 
L 1222 4591 
L 3541 872 
L 3541 4591 
L 4131 4591 
L 4131 0 
L 3434 0 
L 1081 3716 
L 1081 0 
L 488 0 
L 488 4591 
z
M 2269 4591 
L 2269 4591 
z
" transform="scale(0.015625)"/>
        <path id="Helvetica-6f" d="M 1741 363 
Q 2300 363 2508 786 
Q 2716 1209 2716 1728 
Q 2716 2197 2566 2491 
Q 2328 2953 1747 2953 
Q 1231 2953 997 2559 
Q 763 2166 763 1609 
Q 763 1075 997 719 
Q 1231 363 1741 363 
z
M 1763 3444 
Q 2409 3444 2856 3012 
Q 3303 2581 3303 1744 
Q 3303 934 2909 406 
Q 2516 -122 1688 -122 
Q 997 -122 590 345 
Q 184 813 184 1600 
Q 184 2444 612 2944 
Q 1041 3444 1763 3444 
z
M 1744 3428 
L 1744 3428 
z
" transform="scale(0.015625)"/>
        <path id="Helvetica-6e" d="M 413 3347 
L 947 3347 
L 947 2872 
Q 1184 3166 1450 3294 
Q 1716 3422 2041 3422 
Q 2753 3422 3003 2925 
Q 3141 2653 3141 2147 
L 3141 0 
L 2569 0 
L 2569 2109 
Q 2569 2416 2478 2603 
Q 2328 2916 1934 2916 
Q 1734 2916 1606 2875 
Q 1375 2806 1200 2600 
Q 1059 2434 1017 2257 
Q 975 2081 975 1753 
L 975 0 
L 413 0 
L 413 3347 
z
M 1734 3428 
L 1734 3428 
z
" transform="scale(0.015625)"/>
       </defs>
       <use xlink:href="#Helvetica-49"/>
       <use xlink:href="#Helvetica-4c" x="27.783203"/>
       <use xlink:href="#Helvetica-37" x="83.398438"/>
       <use xlink:href="#Helvetica-52" x="139.013672"/>
       <use xlink:href="#Helvetica-20" x="211.230469"/>
       <use xlink:href="#Helvetica-4e" x="239.013672"/>
       <use xlink:href="#Helvetica-6f" x="311.230469"/>
       <use xlink:href="#Helvetica-6e" x="366.845703"/>
       <use xlink:href="#Helvetica-20" x="422.460938"/>
       <use xlink:href="#Helvetica-54" x="450.244141"/>
      </g>
     </g>
    </g>
   </g>
   <g id="matplotlib.axis_2">
    <g id="ytick_1">
     <g id="line2d_1">
      <defs>
       <path id="m75bf67cf87" d="M 0 0 
L -1 0 
" style="stroke: #777777; stroke-width: 0.5"/>
      </defs>
      <g>
       <use xlink:href="#m75bf67cf87" x="13.341646" y="68.030497" style="fill: #777777; stroke: #777777; stroke-width: 0.5"/>
      </g>
     </g>
     <g id="text_3">
      <!-- 0 -->
      <g style="fill: #333333" transform="translate(9.673365 69.106513) scale(0.03 -0.03)">
       <defs>
        <path id="Helvetica-30" d="M 1731 4475 
Q 2600 4475 2988 3759 
Q 3288 3206 3288 2244 
Q 3288 1331 3016 734 
Q 2622 -122 1728 -122 
Q 922 -122 528 578 
Q 200 1163 200 2147 
Q 200 2909 397 3456 
Q 766 4475 1731 4475 
z
M 1725 391 
Q 2163 391 2422 778 
Q 2681 1166 2681 2222 
Q 2681 2984 2493 3476 
Q 2306 3969 1766 3969 
Q 1269 3969 1039 3501 
Q 809 3034 809 2125 
Q 809 1441 956 1025 
Q 1181 391 1725 391 
z
" transform="scale(0.015625)"/>
       </defs>
       <use xlink:href="#Helvetica-30"/>
      </g>
     </g>
    </g>
    <g id="ytick_2">
     <g id="line2d_2">
      <g>
       <use xlink:href="#m75bf67cf87" x="13.341646" y="55.239649" style="fill: #777777; stroke: #777777; stroke-width: 0.5"/>
      </g>
     </g>
     <g id="text_4">
      <!-- 2000 -->
      <g style="fill: #333333" transform="translate(4.668521 56.315664) scale(0.03 -0.03)">
       <defs>
        <path id="Helvetica-32" d="M 200 0 
Q 231 578 439 1006 
Q 647 1434 1250 1784 
L 1850 2131 
Q 2253 2366 2416 2531 
Q 2672 2791 2672 3125 
Q 2672 3516 2437 3745 
Q 2203 3975 1813 3975 
Q 1234 3975 1013 3538 
Q 894 3303 881 2888 
L 309 2888 
Q 319 3472 525 3841 
Q 891 4491 1816 4491 
Q 2584 4491 2939 4075 
Q 3294 3659 3294 3150 
Q 3294 2613 2916 2231 
Q 2697 2009 2131 1694 
L 1703 1456 
Q 1397 1288 1222 1134 
Q 909 863 828 531 
L 3272 531 
L 3272 0 
L 200 0 
z
" transform="scale(0.015625)"/>
       </defs>
       <use xlink:href="#Helvetica-32"/>
       <use xlink:href="#Helvetica-30" x="55.615234"/>
       <use xlink:href="#Helvetica-30" x="111.230469"/>
       <use xlink:href="#Helvetica-30" x="166.845703"/>
      </g>
     </g>
    </g>
    <g id="ytick_3">
     <g id="line2d_3">
      <g>
       <use xlink:href="#m75bf67cf87" x="13.341646" y="42.4488" style="fill: #777777; stroke: #777777; stroke-width: 0.5"/>
      </g>
     </g>
     <g id="text_5">
      <!-- 4000 -->
      <g style="fill: #333333" transform="translate(4.668521 43.524816) scale(0.03 -0.03)">
       <defs>
        <path id="Helvetica-34" d="M 2116 1584 
L 2116 3613 
L 681 1584 
L 2116 1584 
z
M 2125 0 
L 2125 1094 
L 163 1094 
L 163 1644 
L 2213 4488 
L 2688 4488 
L 2688 1584 
L 3347 1584 
L 3347 1094 
L 2688 1094 
L 2688 0 
L 2125 0 
z
" transform="scale(0.015625)"/>
       </defs>
       <use xlink:href="#Helvetica-34"/>
       <use xlink:href="#Helvetica-30" x="55.615234"/>
       <use xlink:href="#Helvetica-30" x="111.230469"/>
       <use xlink:href="#Helvetica-30" x="166.845703"/>
      </g>
     </g>
    </g>
    <g id="ytick_4">
     <g id="line2d_4">
      <g>
       <use xlink:href="#m75bf67cf87" x="13.341646" y="29.657952" style="fill: #777777; stroke: #777777; stroke-width: 0.5"/>
      </g>
     </g>
     <g id="text_6">
      <!-- 6000 -->
      <g style="fill: #333333" transform="translate(4.668521 30.733968) scale(0.03 -0.03)">
       <defs>
        <path id="Helvetica-36" d="M 1872 4494 
Q 2622 4494 2917 4105 
Q 3213 3716 3213 3303 
L 2656 3303 
Q 2606 3569 2497 3719 
Q 2294 4000 1881 4000 
Q 1409 4000 1131 3564 
Q 853 3128 822 2316 
Q 1016 2600 1309 2741 
Q 1578 2866 1909 2866 
Q 2472 2866 2890 2506 
Q 3309 2147 3309 1434 
Q 3309 825 2912 354 
Q 2516 -116 1781 -116 
Q 1153 -116 697 361 
Q 241 838 241 1966 
Q 241 2800 444 3381 
Q 834 4494 1872 4494 
z
M 1831 384 
Q 2275 384 2495 682 
Q 2716 981 2716 1388 
Q 2716 1731 2519 2042 
Q 2322 2353 1803 2353 
Q 1441 2353 1167 2112 
Q 894 1872 894 1388 
Q 894 963 1142 673 
Q 1391 384 1831 384 
z
" transform="scale(0.015625)"/>
       </defs>
       <use xlink:href="#Helvetica-36"/>
       <use xlink:href="#Helvetica-30" x="55.615234"/>
       <use xlink:href="#Helvetica-30" x="111.230469"/>
       <use xlink:href="#Helvetica-30" x="166.845703"/>
      </g>
     </g>
    </g>
    <g id="ytick_5">
     <g id="line2d_5">
      <g>
       <use xlink:href="#m75bf67cf87" x="13.341646" y="16.867104" style="fill: #777777; stroke: #777777; stroke-width: 0.5"/>
      </g>
     </g>
     <g id="text_7">
      <!-- 8000 -->
      <g style="fill: #333333" transform="translate(4.668521 17.94312) scale(0.03 -0.03)">
       <defs>
        <path id="Helvetica-38" d="M 1741 2600 
Q 2113 2600 2322 2808 
Q 2531 3016 2531 3303 
Q 2531 3553 2331 3762 
Q 2131 3972 1722 3972 
Q 1316 3972 1134 3762 
Q 953 3553 953 3272 
Q 953 2956 1187 2778 
Q 1422 2600 1741 2600 
z
M 1775 384 
Q 2166 384 2423 595 
Q 2681 806 2681 1225 
Q 2681 1659 2415 1884 
Q 2150 2109 1734 2109 
Q 1331 2109 1076 1879 
Q 822 1650 822 1244 
Q 822 894 1055 639 
Q 1288 384 1775 384 
z
M 975 2384 
Q 741 2484 609 2619 
Q 363 2869 363 3269 
Q 363 3769 725 4128 
Q 1088 4488 1753 4488 
Q 2397 4488 2762 4148 
Q 3128 3809 3128 3356 
Q 3128 2938 2916 2678 
Q 2797 2531 2547 2391 
Q 2825 2263 2984 2097 
Q 3281 1784 3281 1284 
Q 3281 694 2884 283 
Q 2488 -128 1763 -128 
Q 1109 -128 657 226 
Q 206 581 206 1256 
Q 206 1653 400 1942 
Q 594 2231 975 2384 
z
" transform="scale(0.015625)"/>
       </defs>
       <use xlink:href="#Helvetica-38"/>
       <use xlink:href="#Helvetica-30" x="55.615234"/>
       <use xlink:href="#Helvetica-30" x="111.230469"/>
       <use xlink:href="#Helvetica-30" x="166.845703"/>
      </g>
     </g>
    </g>
    <g id="ytick_6">
     <g id="line2d_6">
      <g>
       <use xlink:href="#m75bf67cf87" x="13.341646" y="4.076256" style="fill: #777777; stroke: #777777; stroke-width: 0.5"/>
      </g>
     </g>
     <g id="text_8">
      <!-- 10000 -->
      <g style="fill: #333333" transform="translate(3.00024 5.152271) scale(0.03 -0.03)">
       <defs>
        <path id="Helvetica-31" d="M 613 3169 
L 613 3600 
Q 1222 3659 1462 3798 
Q 1703 3938 1822 4456 
L 2266 4456 
L 2266 0 
L 1666 0 
L 1666 3169 
L 613 3169 
z
" transform="scale(0.015625)"/>
       </defs>
       <use xlink:href="#Helvetica-31"/>
       <use xlink:href="#Helvetica-30" x="55.615234"/>
       <use xlink:href="#Helvetica-30" x="111.230469"/>
       <use xlink:href="#Helvetica-30" x="166.845703"/>
       <use xlink:href="#Helvetica-30" x="222.460938"/>
      </g>
     </g>
    </g>
   </g>
   <g id="PolyCollection_1">
    <defs>
     <path id="m8c5eaa0804" d="M 24.63406 -16.347727 
L 21.95829 -16.347727 
L 21.662896 -16.627221 
L 21.327719 -16.906715 
L 20.953741 -17.186209 
L 20.543577 -17.465703 
L 20.101584 -17.745196 
L 19.633867 -18.02469 
L 19.148169 -18.304184 
L 18.653639 -18.583678 
L 18.160482 -18.863172 
L 17.679512 -19.142666 
L 17.221633 -19.42216 
L 16.797288 -19.701654 
L 16.415917 -19.981147 
L 16.085468 -20.260641 
L 15.812006 -20.540135 
L 15.599441 -20.819629 
L 15.449416 -21.099123 
L 15.361335 -21.378617 
L 15.332552 -21.658111 
L 15.358672 -21.937605 
L 15.433959 -22.217098 
L 15.551786 -22.496592 
L 15.7051 -22.776086 
L 15.886865 -23.05558 
L 16.090425 -23.335074 
L 16.309797 -23.614568 
L 16.539848 -23.894062 
L 16.776377 -24.173556 
L 17.016098 -24.453049 
L 17.256543 -24.732543 
L 17.495912 -25.012037 
L 17.732879 -25.291531 
L 17.966394 -25.571025 
L 18.195481 -25.850519 
L 18.419066 -26.130013 
L 18.635822 -26.409507 
L 18.844059 -26.689001 
L 19.041644 -26.968494 
L 19.22597 -27.247988 
L 19.39396 -27.527482 
L 19.542118 -27.806976 
L 19.666628 -28.08647 
L 19.763495 -28.365964 
L 19.828735 -28.645458 
L 19.858598 -28.924952 
L 19.849822 -29.204445 
L 19.7999 -29.483939 
L 19.707334 -29.763433 
L 19.571864 -30.042927 
L 19.394636 -30.322421 
L 19.178308 -30.601915 
L 18.927061 -30.881409 
L 18.646514 -31.160903 
L 18.343553 -31.440396 
L 18.026069 -31.71989 
L 17.702628 -31.999384 
L 17.382105 -32.278878 
L 17.073292 -32.558372 
L 16.784509 -32.837866 
L 16.523259 -33.11736 
L 16.295919 -33.396854 
L 16.107507 -33.676347 
L 15.961521 -33.955841 
L 15.859858 -34.235335 
L 15.80282 -34.514829 
L 15.789187 -34.794323 
L 15.816373 -35.073817 
L 15.880637 -35.353311 
L 15.97735 -35.632805 
L 16.101293 -35.912299 
L 16.246989 -36.191792 
L 16.409025 -36.471286 
L 16.582373 -36.75078 
L 16.762668 -37.030274 
L 16.946441 -37.309768 
L 17.131271 -37.589262 
L 17.31587 -37.868756 
L 17.500063 -38.14825 
L 17.684691 -38.427743 
L 17.871419 -38.707237 
L 18.062488 -38.986731 
L 18.260412 -39.266225 
L 18.467654 -39.545719 
L 18.686321 -39.825213 
L 18.917883 -40.104707 
L 19.162961 -40.384201 
L 19.421194 -40.663694 
L 19.6912 -40.943188 
L 19.970623 -41.222682 
L 20.256271 -41.502176 
L 20.54432 -41.78167 
L 20.830565 -42.061164 
L 21.110693 -42.340658 
L 21.380552 -42.620152 
L 21.636388 -42.899645 
L 21.875046 -43.179139 
L 22.0941 -43.458633 
L 22.29193 -43.738127 
L 22.467725 -44.017621 
L 24.124624 -44.017621 
L 24.124624 -44.017621 
L 24.30042 -43.738127 
L 24.498249 -43.458633 
L 24.717304 -43.179139 
L 24.955962 -42.899645 
L 25.211798 -42.620152 
L 25.481656 -42.340658 
L 25.761784 -42.061164 
L 26.048029 -41.78167 
L 26.336078 -41.502176 
L 26.621726 -41.222682 
L 26.901149 -40.943188 
L 27.171155 -40.663694 
L 27.429389 -40.384201 
L 27.674466 -40.104707 
L 27.906028 -39.825213 
L 28.124695 -39.545719 
L 28.331938 -39.266225 
L 28.529861 -38.986731 
L 28.72093 -38.707237 
L 28.907659 -38.427743 
L 29.092286 -38.14825 
L 29.27648 -37.868756 
L 29.461078 -37.589262 
L 29.645909 -37.309768 
L 29.829681 -37.030274 
L 30.009977 -36.75078 
L 30.183325 -36.471286 
L 30.345361 -36.191792 
L 30.491056 -35.912299 
L 30.615 -35.632805 
L 30.711712 -35.353311 
L 30.775976 -35.073817 
L 30.803162 -34.794323 
L 30.789529 -34.514829 
L 30.732491 -34.235335 
L 30.630829 -33.955841 
L 30.484843 -33.676347 
L 30.296431 -33.396854 
L 30.069091 -33.11736 
L 29.80784 -32.837866 
L 29.519058 -32.558372 
L 29.210244 -32.278878 
L 28.889722 -31.999384 
L 28.566281 -31.71989 
L 28.248796 -31.440396 
L 27.945835 -31.160903 
L 27.665289 -30.881409 
L 27.414041 -30.601915 
L 27.197714 -30.322421 
L 27.020486 -30.042927 
L 26.885015 -29.763433 
L 26.79245 -29.483939 
L 26.742528 -29.204445 
L 26.733752 -28.924952 
L 26.763614 -28.645458 
L 26.828854 -28.365964 
L 26.925721 -28.08647 
L 27.050231 -27.806976 
L 27.19839 -27.527482 
L 27.366379 -27.247988 
L 27.550705 -26.968494 
L 27.748291 -26.689001 
L 27.956527 -26.409507 
L 28.173283 -26.130013 
L 28.396868 -25.850519 
L 28.625955 -25.571025 
L 28.85947 -25.291531 
L 29.096437 -25.012037 
L 29.335806 -24.732543 
L 29.576252 -24.453049 
L 29.815973 -24.173556 
L 30.052501 -23.894062 
L 30.282552 -23.614568 
L 30.501924 -23.335074 
L 30.705484 -23.05558 
L 30.887249 -22.776086 
L 31.040564 -22.496592 
L 31.15839 -22.217098 
L 31.233677 -21.937605 
L 31.259797 -21.658111 
L 31.231014 -21.378617 
L 31.142934 -21.099123 
L 30.992908 -20.819629 
L 30.780344 -20.540135 
L 30.506881 -20.260641 
L 30.176432 -19.981147 
L 29.795061 -19.701654 
L 29.370716 -19.42216 
L 28.912838 -19.142666 
L 28.431868 -18.863172 
L 27.938711 -18.583678 
L 27.44418 -18.304184 
L 26.958482 -18.02469 
L 26.490765 -17.745196 
L 26.048772 -17.465703 
L 25.638608 -17.186209 
L 25.26463 -16.906715 
L 24.929453 -16.627221 
L 24.63406 -16.347727 
z
" style="stroke: #525252; stroke-width: 0.15"/>
    </defs>
    <g clip-path="url(#pc1957d7b29)">
     <use xlink:href="#m8c5eaa0804" x="0" y="84.96" style="fill: #bbba94; stroke: #525252; stroke-width: 0.15"/>
    </g>
   </g>
   <g id="PolyCollection_2">
    <defs>
     <path id="m6740071d89" d="M 44.604354 -14.803899 
L 41.806109 -14.803899 
L 41.475198 -15.008502 
L 41.097902 -15.213105 
L 40.676315 -15.417707 
L 40.214932 -15.62231 
L 39.720745 -15.826913 
L 39.203142 -16.031516 
L 38.673584 -16.236118 
L 38.145061 -16.440721 
L 37.631344 -16.645324 
L 37.146101 -16.849927 
L 36.701949 -17.054529 
L 36.309525 -17.259132 
L 35.976698 -17.463735 
L 35.70799 -17.668338 
L 35.504304 -17.872941 
L 35.362976 -18.077543 
L 35.278176 -18.282146 
L 35.241609 -18.486749 
L 35.243439 -18.691352 
L 35.273351 -18.895954 
L 35.321608 -19.100557 
L 35.380009 -19.30516 
L 35.442629 -19.509763 
L 35.506273 -19.714365 
L 35.5706 -19.918968 
L 35.637929 -20.123571 
L 35.712758 -20.328174 
L 35.80107 -20.532776 
L 35.909523 -20.737379 
L 36.044611 -20.941982 
L 36.211901 -21.146585 
L 36.415413 -21.351187 
L 36.657198 -21.55579 
L 36.937136 -21.760393 
L 37.252946 -21.964996 
L 37.600387 -22.169598 
L 37.973599 -22.374201 
L 38.365532 -22.578804 
L 38.768413 -22.783407 
L 39.174198 -22.988009 
L 39.57498 -23.192612 
L 39.963322 -23.397215 
L 40.332503 -23.601818 
L 40.676688 -23.80642 
L 40.991028 -24.011023 
L 41.271688 -24.215626 
L 41.515848 -24.420229 
L 41.721661 -24.624831 
L 41.888208 -24.829434 
L 42.01543 -25.034037 
L 42.104062 -25.23864 
L 42.155562 -25.443242 
L 42.172028 -25.647845 
L 42.156111 -25.852448 
L 42.110914 -26.057051 
L 42.039886 -26.261653 
L 41.946706 -26.466256 
L 41.835171 -26.670859 
L 41.709086 -26.875462 
L 41.572179 -27.080065 
L 41.428034 -27.284667 
L 41.280052 -27.48927 
L 41.131448 -27.693873 
L 40.985256 -27.898476 
L 40.844366 -28.103078 
L 40.711549 -28.307681 
L 40.589466 -28.512284 
L 40.48066 -28.716887 
L 40.3875 -28.921489 
L 40.312102 -29.126092 
L 40.256208 -29.330695 
L 40.221069 -29.535298 
L 40.207317 -29.7399 
L 40.214887 -29.944503 
L 40.24298 -30.149106 
L 40.290097 -30.353709 
L 40.354139 -30.558311 
L 40.432577 -30.762914 
L 40.522662 -30.967517 
L 40.621658 -31.17212 
L 40.727056 -31.376722 
L 40.836759 -31.581325 
L 40.949191 -31.785928 
L 41.063338 -31.990531 
L 41.178704 -32.195133 
L 41.295198 -32.399736 
L 41.412983 -32.604339 
L 41.532286 -32.808942 
L 41.653232 -33.013544 
L 41.7757 -33.218147 
L 41.899228 -33.42275 
L 42.02299 -33.627353 
L 42.145816 -33.831955 
L 42.266278 -34.036558 
L 42.382807 -34.241161 
L 42.493819 -34.445764 
L 42.597856 -34.650366 
L 42.693692 -34.854969 
L 42.78042 -35.059572 
L 43.630043 -35.059572 
L 43.630043 -35.059572 
L 43.716771 -34.854969 
L 43.812607 -34.650366 
L 43.916644 -34.445764 
L 44.027657 -34.241161 
L 44.144185 -34.036558 
L 44.264647 -33.831955 
L 44.387473 -33.627353 
L 44.511235 -33.42275 
L 44.634764 -33.218147 
L 44.757231 -33.013544 
L 44.878177 -32.808942 
L 44.99748 -32.604339 
L 45.115265 -32.399736 
L 45.231759 -32.195133 
L 45.347125 -31.990531 
L 45.461272 -31.785928 
L 45.573704 -31.581325 
L 45.683407 -31.376722 
L 45.788806 -31.17212 
L 45.887801 -30.967517 
L 45.977886 -30.762914 
L 46.056324 -30.558311 
L 46.120366 -30.353709 
L 46.167483 -30.149106 
L 46.195576 -29.944503 
L 46.203146 -29.7399 
L 46.189394 -29.535298 
L 46.154255 -29.330695 
L 46.098362 -29.126092 
L 46.022963 -28.921489 
L 45.929804 -28.716887 
L 45.820997 -28.512284 
L 45.698914 -28.307681 
L 45.566097 -28.103078 
L 45.425207 -27.898476 
L 45.279016 -27.693873 
L 45.130411 -27.48927 
L 44.982429 -27.284667 
L 44.838284 -27.080065 
L 44.701377 -26.875462 
L 44.575292 -26.670859 
L 44.463757 -26.466256 
L 44.370577 -26.261653 
L 44.299549 -26.057051 
L 44.254353 -25.852448 
L 44.238435 -25.647845 
L 44.254901 -25.443242 
L 44.306401 -25.23864 
L 44.395033 -25.034037 
L 44.522255 -24.829434 
L 44.688802 -24.624831 
L 44.894615 -24.420229 
L 45.138775 -24.215626 
L 45.419435 -24.011023 
L 45.733775 -23.80642 
L 46.077961 -23.601818 
L 46.447141 -23.397215 
L 46.835483 -23.192612 
L 47.236265 -22.988009 
L 47.642051 -22.783407 
L 48.044931 -22.578804 
L 48.436864 -22.374201 
L 48.810076 -22.169598 
L 49.157517 -21.964996 
L 49.473327 -21.760393 
L 49.753265 -21.55579 
L 49.995051 -21.351187 
L 50.198563 -21.146585 
L 50.365852 -20.941982 
L 50.50094 -20.737379 
L 50.609393 -20.532776 
L 50.697705 -20.328174 
L 50.772534 -20.123571 
L 50.839863 -19.918968 
L 50.90419 -19.714365 
L 50.967834 -19.509763 
L 51.030454 -19.30516 
L 51.088856 -19.100557 
L 51.137112 -18.895954 
L 51.167024 -18.691352 
L 51.168854 -18.486749 
L 51.132287 -18.282146 
L 51.047488 -18.077543 
L 50.90616 -17.872941 
L 50.702473 -17.668338 
L 50.433765 -17.463735 
L 50.100938 -17.259132 
L 49.708514 -17.054529 
L 49.264362 -16.849927 
L 48.779119 -16.645324 
L 48.265402 -16.440721 
L 47.736879 -16.236118 
L 47.207321 -16.031516 
L 46.689718 -15.826913 
L 46.195531 -15.62231 
L 45.734148 -15.417707 
L 45.312561 -15.213105 
L 44.935265 -15.008502 
L 44.604354 -14.803899 
z
" style="stroke: #525252; stroke-width: 0.15"/>
    </defs>
    <g clip-path="url(#pc1957d7b29)">
     <use xlink:href="#m6740071d89" x="0" y="84.96" style="fill: #977c7f; stroke: #525252; stroke-width: 0.15"/>
    </g>
   </g>
   <g id="line2d_7">
    <path d="M 23.296175 65.247728 
L 23.296175 44.306924 
" clip-path="url(#pc1957d7b29)" style="fill: none; stroke: #8c8c8c; stroke-width: 0.75; stroke-linecap: round"/>
   </g>
   <g id="line2d_8">
    <path d="M 23.296175 62.539018 
L 23.296175 50.006921 
" clip-path="url(#pc1957d7b29)" style="fill: none; stroke: #8c8c8c; stroke-width: 4; stroke-linecap: round"/>
   </g>
   <g id="line2d_9">
    <path d="M 23.296175 54.726145 
" clip-path="url(#pc1957d7b29)" style="fill: none; stroke: #525252; stroke-width: 1.2; stroke-linecap: round"/>
    <defs>
     <path id="m461819431f" d="M 0 0.833333 
C 0.221003 0.833333 0.432983 0.745528 0.589256 0.589256 
C 0.745528 0.432983 0.833333 0.221003 0.833333 0 
C 0.833333 -0.221003 0.745528 -0.432983 0.589256 -0.589256 
C 0.432983 -0.745528 0.221003 -0.833333 0 -0.833333 
C -0.221003 -0.833333 -0.432983 -0.745528 -0.589256 -0.589256 
C -0.745528 -0.432983 -0.833333 -0.221003 -0.833333 0 
C -0.833333 0.221003 -0.745528 0.432983 -0.589256 0.589256 
C -0.432983 0.745528 -0.221003 0.833333 0 0.833333 
z
" style="stroke: #ffffff; stroke-width: 0.8"/>
    </defs>
    <g clip-path="url(#pc1957d7b29)">
     <use xlink:href="#m461819431f" x="23.296175" y="54.726145" style="fill: #ffffff; stroke: #ffffff; stroke-width: 0.8"/>
    </g>
   </g>
   <g id="line2d_10">
    <path d="M 43.205232 67.822238 
L 43.205232 52.234291 
" clip-path="url(#pc1957d7b29)" style="fill: none; stroke: #8c8c8c; stroke-width: 0.75; stroke-linecap: round"/>
   </g>
   <g id="line2d_11">
    <path d="M 43.205232 67.089974 
L 43.205232 60.756803 
" clip-path="url(#pc1957d7b29)" style="fill: none; stroke: #8c8c8c; stroke-width: 4; stroke-linecap: round"/>
   </g>
   <g id="line2d_12">
    <path d="M 43.205232 64.218458 
" clip-path="url(#pc1957d7b29)" style="fill: none; stroke: #525252; stroke-width: 1.2; stroke-linecap: round"/>
    <g clip-path="url(#pc1957d7b29)">
     <use xlink:href="#m461819431f" x="43.205232" y="64.218458" style="fill: #ffffff; stroke: #ffffff; stroke-width: 0.8"/>
    </g>
   </g>
   <g id="patch_3">
    <path d="M 13.341646 74.419526 
L 13.341646 4.076256 
" style="fill: none; stroke: #777777; stroke-width: 0.5; stroke-linejoin: miter; stroke-linecap: square"/>
   </g>
   <g id="patch_4">
    <path d="M 13.341646 76.919526 
L 53.15976 76.919526 
" style="fill: none; stroke: #777777; stroke-width: 0.5; stroke-linejoin: miter; stroke-linecap: square"/>
   </g>
  </g>
 </g>
 <defs>
  <clipPath id="pc1957d7b29">
   <rect x="13.341646" y="4.076256" width="39.818114" height="70.34327"/>
  </clipPath>
 </defs>
</svg>
