<?xml version="1.0" encoding="utf-8" standalone="no"?>
<!DOCTYPE svg PUBLIC "-//W3C//DTD SVG 1.1//EN"
  "http://www.w3.org/Graphics/SVG/1.1/DTD/svg11.dtd">
<svg xmlns:xlink="http://www.w3.org/1999/xlink" width="56.16pt" height="84.96pt" viewBox="0 0 56.16 84.96" xmlns="http://www.w3.org/2000/svg" version="1.1">
 <metadata>
  <rdf:RDF xmlns:dc="http://purl.org/dc/elements/1.1/" xmlns:cc="http://creativecommons.org/ns#" xmlns:rdf="http://www.w3.org/1999/02/22-rdf-syntax-ns#">
   <cc:Work>
    <dc:type rdf:resource="http://purl.org/dc/dcmitype/StillImage"/>
    <dc:date>2024-05-27T15:37:00.078437</dc:date>
    <dc:format>image/svg+xml</dc:format>
    <dc:creator>
     <cc:Agent>
      <dc:title>Matplotlib v3.8.3, https://matplotlib.org/</dc:title>
     </cc:Agent>
    </dc:creator>
   </cc:Work>
  </rdf:RDF>
 </metadata>
 <defs>
  <style type="text/css">*{stroke-linejoin: round; stroke-linecap: butt}</style>
 </defs>
 <g id="figure_1">
  <g id="patch_1">
   <path d="M 0 84.96 
L 56.16 84.96 
L 56.16 0 
L 0 0 
z
" style="fill: #ffffff"/>
  </g>
  <g id="axes_1">
   <g id="patch_2">
    <path d="M 10.005084 74.419526 
L 53.15976 74.419526 
L 53.15976 4.076256 
L 10.005084 4.076256 
z
" style="fill: #ffffff"/>
   </g>
   <g id="matplotlib.axis_1">
    <g id="xtick_1">
     <g id="text_1">
      <!-- EOMES+ Cells -->
      <g style="fill: #333333" transform="translate(9.075042 81.230229) scale(0.035 -0.035)">
       <defs>
        <path id="Helvetica-45" d="M 547 4591 
L 3894 4591 
L 3894 4028 
L 1153 4028 
L 1153 2634 
L 3688 2634 
L 3688 2103 
L 1153 2103 
L 1153 547 
L 3941 547 
L 3941 0 
L 547 0 
L 547 4591 
z
M 2244 4591 
L 2244 4591 
z
" transform="scale(0.015625)"/>
        <path id="Helvetica-4f" d="M 2469 4716 
Q 3684 4716 4269 3934 
Q 4725 3325 4725 2375 
Q 4725 1347 4203 666 
Q 3591 -134 2456 -134 
Q 1397 -134 791 566 
Q 250 1241 250 2272 
Q 250 3203 713 3866 
Q 1306 4716 2469 4716 
z
M 2531 422 
Q 3353 422 3720 1011 
Q 4088 1600 4088 2366 
Q 4088 3175 3664 3669 
Q 3241 4163 2506 4163 
Q 1794 4163 1344 3673 
Q 894 3184 894 2231 
Q 894 1469 1280 945 
Q 1666 422 2531 422 
z
M 2488 4716 
L 2488 4716 
z
" transform="scale(0.015625)"/>
        <path id="Helvetica-4d" d="M 472 4591 
L 1363 4591 
L 2681 709 
L 3991 4591 
L 4872 4591 
L 4872 0 
L 4281 0 
L 4281 2709 
Q 4281 2850 4287 3175 
Q 4294 3500 4294 3872 
L 2984 0 
L 2369 0 
L 1050 3872 
L 1050 3731 
Q 1050 3563 1058 3217 
Q 1066 2872 1066 2709 
L 1066 0 
L 472 0 
L 472 4591 
z
" transform="scale(0.015625)"/>
        <path id="Helvetica-53" d="M 894 1481 
Q 916 1091 1078 847 
Q 1388 391 2169 391 
Q 2519 391 2806 491 
Q 3363 684 3363 1184 
Q 3363 1559 3128 1719 
Q 2891 1875 2384 1991 
L 1763 2131 
Q 1153 2269 900 2434 
Q 463 2722 463 3294 
Q 463 3913 891 4309 
Q 1319 4706 2103 4706 
Q 2825 4706 3329 4357 
Q 3834 4009 3834 3244 
L 3250 3244 
Q 3203 3613 3050 3809 
Q 2766 4169 2084 4169 
Q 1534 4169 1293 3937 
Q 1053 3706 1053 3400 
Q 1053 3063 1334 2906 
Q 1519 2806 2169 2656 
L 2813 2509 
Q 3278 2403 3531 2219 
Q 3969 1897 3969 1284 
Q 3969 522 3414 194 
Q 2859 -134 2125 -134 
Q 1269 -134 784 303 
Q 300 738 309 1481 
L 894 1481 
z
M 2150 4716 
L 2150 4716 
z
" transform="scale(0.015625)"/>
        <path id="Helvetica-2b" d="M 288 1369 
L 288 1894 
L 1650 1894 
L 1650 3266 
L 2184 3266 
L 2184 1894 
L 3547 1894 
L 3547 1369 
L 2184 1369 
L 2184 0 
L 1650 0 
L 1650 1369 
L 288 1369 
z
" transform="scale(0.015625)"/>
        <path id="Helvetica-20" transform="scale(0.015625)"/>
        <path id="Helvetica-43" d="M 2422 4716 
Q 3294 4716 3775 4256 
Q 4256 3797 4309 3213 
L 3703 3213 
Q 3600 3656 3292 3915 
Q 2984 4175 2428 4175 
Q 1750 4175 1333 3698 
Q 916 3222 916 2238 
Q 916 1431 1292 929 
Q 1669 428 2416 428 
Q 3103 428 3463 956 
Q 3653 1234 3747 1688 
L 4353 1688 
Q 4272 963 3816 472 
Q 3269 -119 2341 -119 
Q 1541 -119 997 366 
Q 281 1006 281 2344 
Q 281 3359 819 4009 
Q 1400 4716 2422 4716 
z
M 2297 4716 
L 2297 4716 
z
" transform="scale(0.015625)"/>
        <path id="Helvetica-65" d="M 1806 3422 
Q 2163 3422 2497 3255 
Q 2831 3088 3006 2822 
Q 3175 2569 3231 2231 
Q 3281 2000 3281 1494 
L 828 1494 
Q 844 984 1069 676 
Q 1294 369 1766 369 
Q 2206 369 2469 659 
Q 2619 828 2681 1050 
L 3234 1050 
Q 3213 866 3089 639 
Q 2966 413 2813 269 
Q 2556 19 2178 -69 
Q 1975 -119 1719 -119 
Q 1094 -119 659 336 
Q 225 791 225 1609 
Q 225 2416 662 2919 
Q 1100 3422 1806 3422 
z
M 2703 1941 
Q 2669 2306 2544 2525 
Q 2313 2931 1772 2931 
Q 1384 2931 1121 2651 
Q 859 2372 844 1941 
L 2703 1941 
z
M 1753 3428 
L 1753 3428 
z
" transform="scale(0.015625)"/>
        <path id="Helvetica-6c" d="M 428 4591 
L 991 4591 
L 991 0 
L 428 0 
L 428 4591 
z
" transform="scale(0.015625)"/>
        <path id="Helvetica-73" d="M 747 1050 
Q 772 769 888 619 
Q 1100 347 1625 347 
Q 1938 347 2175 483 
Q 2413 619 2413 903 
Q 2413 1119 2222 1231 
Q 2100 1300 1741 1391 
L 1294 1503 
Q 866 1609 663 1741 
Q 300 1969 300 2372 
Q 300 2847 642 3140 
Q 984 3434 1563 3434 
Q 2319 3434 2653 2991 
Q 2863 2709 2856 2384 
L 2325 2384 
Q 2309 2575 2191 2731 
Q 1997 2953 1519 2953 
Q 1200 2953 1036 2831 
Q 872 2709 872 2509 
Q 872 2291 1088 2159 
Q 1213 2081 1456 2022 
L 1828 1931 
Q 2434 1784 2641 1647 
Q 2969 1431 2969 969 
Q 2969 522 2630 197 
Q 2291 -128 1597 -128 
Q 850 -128 539 211 
Q 228 550 206 1050 
L 747 1050 
z
M 1578 3428 
L 1578 3428 
z
" transform="scale(0.015625)"/>
       </defs>
       <use xlink:href="#Helvetica-45"/>
       <use xlink:href="#Helvetica-4f" x="66.699219"/>
       <use xlink:href="#Helvetica-4d" x="144.482422"/>
       <use xlink:href="#Helvetica-45" x="227.783203"/>
       <use xlink:href="#Helvetica-53" x="294.482422"/>
       <use xlink:href="#Helvetica-2b" x="361.181641"/>
       <use xlink:href="#Helvetica-20" x="419.580078"/>
       <use xlink:href="#Helvetica-43" x="447.363281"/>
       <use xlink:href="#Helvetica-65" x="519.580078"/>
       <use xlink:href="#Helvetica-6c" x="575.195312"/>
       <use xlink:href="#Helvetica-6c" x="597.412109"/>
       <use xlink:href="#Helvetica-73" x="619.628906"/>
      </g>
     </g>
    </g>
    <g id="xtick_2">
     <g id="text_2">
      <!-- TBX+ Cells -->
      <g style="fill: #333333" transform="translate(33.569685 81.230229) scale(0.035 -0.035)">
       <defs>
        <path id="Helvetica-54" d="M 3828 4591 
L 3828 4044 
L 2281 4044 
L 2281 0 
L 1650 0 
L 1650 4044 
L 103 4044 
L 103 4591 
L 3828 4591 
z
" transform="scale(0.015625)"/>
        <path id="Helvetica-42" d="M 2213 2650 
Q 2606 2650 2825 2759 
Q 3169 2931 3169 3378 
Q 3169 3828 2803 3984 
Q 2597 4072 2191 4072 
L 1081 4072 
L 1081 2650 
L 2213 2650 
z
M 2422 531 
Q 2994 531 3238 863 
Q 3391 1072 3391 1369 
Q 3391 1869 2944 2050 
Q 2706 2147 2316 2147 
L 1081 2147 
L 1081 531 
L 2422 531 
z
M 472 4591 
L 2444 4591 
Q 3250 4591 3591 4109 
Q 3791 3825 3791 3453 
Q 3791 3019 3544 2741 
Q 3416 2594 3175 2472 
Q 3528 2338 3703 2169 
Q 4013 1869 4013 1341 
Q 4013 897 3734 538 
Q 3319 0 2413 0 
L 472 0 
L 472 4591 
z
" transform="scale(0.015625)"/>
        <path id="Helvetica-58" d="M 881 0 
L 131 0 
L 1775 2353 
L 234 4591 
L 1013 4591 
L 2184 2834 
L 3347 4591 
L 4088 4591 
L 2547 2353 
L 4163 0 
L 3391 0 
L 2153 1888 
L 881 0 
z
" transform="scale(0.015625)"/>
       </defs>
       <use xlink:href="#Helvetica-54"/>
       <use xlink:href="#Helvetica-42" x="61.083984"/>
       <use xlink:href="#Helvetica-58" x="127.783203"/>
       <use xlink:href="#Helvetica-2b" x="194.482422"/>
       <use xlink:href="#Helvetica-20" x="252.880859"/>
       <use xlink:href="#Helvetica-43" x="280.664062"/>
       <use xlink:href="#Helvetica-65" x="352.880859"/>
       <use xlink:href="#Helvetica-6c" x="408.496094"/>
       <use xlink:href="#Helvetica-6c" x="430.712891"/>
       <use xlink:href="#Helvetica-73" x="452.929688"/>
      </g>
     </g>
    </g>
   </g>
   <g id="matplotlib.axis_2">
    <g id="ytick_1">
     <g id="line2d_1">
      <defs>
       <path id="mc57c4dddad" d="M 0 0 
L -1 0 
" style="stroke: #777777; stroke-width: 0.5"/>
      </defs>
      <g>
       <use xlink:href="#mc57c4dddad" x="10.005084" y="66.189518" style="fill: #777777; stroke: #777777; stroke-width: 0.5"/>
      </g>
     </g>
     <g id="text_3">
      <!-- 0 -->
      <g style="fill: #333333" transform="translate(6.336802 67.265534) scale(0.03 -0.03)">
       <defs>
        <path id="Helvetica-30" d="M 1731 4475 
Q 2600 4475 2988 3759 
Q 3288 3206 3288 2244 
Q 3288 1331 3016 734 
Q 2622 -122 1728 -122 
Q 922 -122 528 578 
Q 200 1163 200 2147 
Q 200 2909 397 3456 
Q 766 4475 1731 4475 
z
M 1725 391 
Q 2163 391 2422 778 
Q 2681 1166 2681 2222 
Q 2681 2984 2493 3476 
Q 2306 3969 1766 3969 
Q 1269 3969 1039 3501 
Q 809 3034 809 2125 
Q 809 1441 956 1025 
Q 1181 391 1725 391 
z
" transform="scale(0.015625)"/>
       </defs>
       <use xlink:href="#Helvetica-30"/>
      </g>
     </g>
    </g>
    <g id="ytick_2">
     <g id="line2d_2">
      <g>
       <use xlink:href="#mc57c4dddad" x="10.005084" y="55.837308" style="fill: #777777; stroke: #777777; stroke-width: 0.5"/>
      </g>
     </g>
     <g id="text_4">
      <!-- 20 -->
      <g style="fill: #333333" transform="translate(4.668521 56.913323) scale(0.03 -0.03)">
       <defs>
        <path id="Helvetica-32" d="M 200 0 
Q 231 578 439 1006 
Q 647 1434 1250 1784 
L 1850 2131 
Q 2253 2366 2416 2531 
Q 2672 2791 2672 3125 
Q 2672 3516 2437 3745 
Q 2203 3975 1813 3975 
Q 1234 3975 1013 3538 
Q 894 3303 881 2888 
L 309 2888 
Q 319 3472 525 3841 
Q 891 4491 1816 4491 
Q 2584 4491 2939 4075 
Q 3294 3659 3294 3150 
Q 3294 2613 2916 2231 
Q 2697 2009 2131 1694 
L 1703 1456 
Q 1397 1288 1222 1134 
Q 909 863 828 531 
L 3272 531 
L 3272 0 
L 200 0 
z
" transform="scale(0.015625)"/>
       </defs>
       <use xlink:href="#Helvetica-32"/>
       <use xlink:href="#Helvetica-30" x="55.615234"/>
      </g>
     </g>
    </g>
    <g id="ytick_3">
     <g id="line2d_3">
      <g>
       <use xlink:href="#mc57c4dddad" x="10.005084" y="45.485097" style="fill: #777777; stroke: #777777; stroke-width: 0.5"/>
      </g>
     </g>
     <g id="text_5">
      <!-- 40 -->
      <g style="fill: #333333" transform="translate(4.668521 46.561113) scale(0.03 -0.03)">
       <defs>
        <path id="Helvetica-34" d="M 2116 1584 
L 2116 3613 
L 681 1584 
L 2116 1584 
z
M 2125 0 
L 2125 1094 
L 163 1094 
L 163 1644 
L 2213 4488 
L 2688 4488 
L 2688 1584 
L 3347 1584 
L 3347 1094 
L 2688 1094 
L 2688 0 
L 2125 0 
z
" transform="scale(0.015625)"/>
       </defs>
       <use xlink:href="#Helvetica-34"/>
       <use xlink:href="#Helvetica-30" x="55.615234"/>
      </g>
     </g>
    </g>
    <g id="ytick_4">
     <g id="line2d_4">
      <g>
       <use xlink:href="#mc57c4dddad" x="10.005084" y="35.132887" style="fill: #777777; stroke: #777777; stroke-width: 0.5"/>
      </g>
     </g>
     <g id="text_6">
      <!-- 60 -->
      <g style="fill: #333333" transform="translate(4.668521 36.208903) scale(0.03 -0.03)">
       <defs>
        <path id="Helvetica-36" d="M 1872 4494 
Q 2622 4494 2917 4105 
Q 3213 3716 3213 3303 
L 2656 3303 
Q 2606 3569 2497 3719 
Q 2294 4000 1881 4000 
Q 1409 4000 1131 3564 
Q 853 3128 822 2316 
Q 1016 2600 1309 2741 
Q 1578 2866 1909 2866 
Q 2472 2866 2890 2506 
Q 3309 2147 3309 1434 
Q 3309 825 2912 354 
Q 2516 -116 1781 -116 
Q 1153 -116 697 361 
Q 241 838 241 1966 
Q 241 2800 444 3381 
Q 834 4494 1872 4494 
z
M 1831 384 
Q 2275 384 2495 682 
Q 2716 981 2716 1388 
Q 2716 1731 2519 2042 
Q 2322 2353 1803 2353 
Q 1441 2353 1167 2112 
Q 894 1872 894 1388 
Q 894 963 1142 673 
Q 1391 384 1831 384 
z
" transform="scale(0.015625)"/>
       </defs>
       <use xlink:href="#Helvetica-36"/>
       <use xlink:href="#Helvetica-30" x="55.615234"/>
      </g>
     </g>
    </g>
    <g id="ytick_5">
     <g id="line2d_5">
      <g>
       <use xlink:href="#mc57c4dddad" x="10.005084" y="24.780677" style="fill: #777777; stroke: #777777; stroke-width: 0.5"/>
      </g>
     </g>
     <g id="text_7">
      <!-- 80 -->
      <g style="fill: #333333" transform="translate(4.668521 25.856692) scale(0.03 -0.03)">
       <defs>
        <path id="Helvetica-38" d="M 1741 2600 
Q 2113 2600 2322 2808 
Q 2531 3016 2531 3303 
Q 2531 3553 2331 3762 
Q 2131 3972 1722 3972 
Q 1316 3972 1134 3762 
Q 953 3553 953 3272 
Q 953 2956 1187 2778 
Q 1422 2600 1741 2600 
z
M 1775 384 
Q 2166 384 2423 595 
Q 2681 806 2681 1225 
Q 2681 1659 2415 1884 
Q 2150 2109 1734 2109 
Q 1331 2109 1076 1879 
Q 822 1650 822 1244 
Q 822 894 1055 639 
Q 1288 384 1775 384 
z
M 975 2384 
Q 741 2484 609 2619 
Q 363 2869 363 3269 
Q 363 3769 725 4128 
Q 1088 4488 1753 4488 
Q 2397 4488 2762 4148 
Q 3128 3809 3128 3356 
Q 3128 2938 2916 2678 
Q 2797 2531 2547 2391 
Q 2825 2263 2984 2097 
Q 3281 1784 3281 1284 
Q 3281 694 2884 283 
Q 2488 -128 1763 -128 
Q 1109 -128 657 226 
Q 206 581 206 1256 
Q 206 1653 400 1942 
Q 594 2231 975 2384 
z
" transform="scale(0.015625)"/>
       </defs>
       <use xlink:href="#Helvetica-38"/>
       <use xlink:href="#Helvetica-30" x="55.615234"/>
      </g>
     </g>
    </g>
    <g id="ytick_6">
     <g id="line2d_6">
      <g>
       <use xlink:href="#mc57c4dddad" x="10.005084" y="14.428466" style="fill: #777777; stroke: #777777; stroke-width: 0.5"/>
      </g>
     </g>
     <g id="text_8">
      <!-- 100 -->
      <g style="fill: #333333" transform="translate(3.00024 15.504482) scale(0.03 -0.03)">
       <defs>
        <path id="Helvetica-31" d="M 613 3169 
L 613 3600 
Q 1222 3659 1462 3798 
Q 1703 3938 1822 4456 
L 2266 4456 
L 2266 0 
L 1666 0 
L 1666 3169 
L 613 3169 
z
" transform="scale(0.015625)"/>
       </defs>
       <use xlink:href="#Helvetica-31"/>
       <use xlink:href="#Helvetica-30" x="55.615234"/>
       <use xlink:href="#Helvetica-30" x="111.230469"/>
      </g>
     </g>
    </g>
    <g id="ytick_7">
     <g id="line2d_7">
      <g>
       <use xlink:href="#mc57c4dddad" x="10.005084" y="4.076256" style="fill: #777777; stroke: #777777; stroke-width: 0.5"/>
      </g>
     </g>
     <g id="text_9">
      <!-- 120 -->
      <g style="fill: #333333" transform="translate(3.00024 5.152271) scale(0.03 -0.03)">
       <use xlink:href="#Helvetica-31"/>
       <use xlink:href="#Helvetica-32" x="55.615234"/>
       <use xlink:href="#Helvetica-30" x="111.230469"/>
      </g>
     </g>
    </g>
   </g>
   <g id="PolyCollection_1">
    <defs>
     <path id="m8ba2370664" d="M 22.676901 -18.672706 
L 18.910604 -18.672706 
L 18.578326 -18.679847 
L 18.21334 -18.686988 
L 17.817801 -18.694128 
L 17.395023 -18.701269 
L 16.949469 -18.70841 
L 16.486701 -18.715551 
L 16.013252 -18.722692 
L 15.536448 -18.729833 
L 15.06418 -18.736974 
L 14.604632 -18.744115 
L 14.165984 -18.751256 
L 13.756114 -18.758397 
L 13.3823 -18.765538 
L 13.050961 -18.772679 
L 12.767434 -18.77982 
L 12.535811 -18.786961 
L 12.35884 -18.794102 
L 12.237885 -18.801243 
L 12.172961 -18.808383 
L 12.162818 -18.815524 
L 12.205073 -18.822665 
L 12.296379 -18.829806 
L 12.432605 -18.836947 
L 12.609029 -18.844088 
L 12.820517 -18.851229 
L 13.06169 -18.85837 
L 13.32706 -18.865511 
L 13.611147 -18.872652 
L 13.908561 -18.879793 
L 14.21407 -18.886934 
L 14.522643 -18.894075 
L 14.829489 -18.901216 
L 15.130094 -18.908357 
L 15.420255 -18.915498 
L 15.696125 -18.922638 
L 15.954272 -18.929779 
L 16.191736 -18.93692 
L 16.406096 -18.944061 
L 16.595536 -18.951202 
L 16.758896 -18.958343 
L 16.895711 -18.965484 
L 17.006228 -18.972625 
L 17.09139 -18.979766 
L 17.152796 -18.986907 
L 17.192631 -18.994048 
L 17.213564 -19.001189 
L 17.21864 -19.00833 
L 17.21115 -19.015471 
L 17.194505 -19.022612 
L 17.172114 -19.029753 
L 17.147274 -19.036893 
L 17.123084 -19.044034 
L 17.102368 -19.051175 
L 17.087629 -19.058316 
L 17.081012 -19.065457 
L 17.084278 -19.072598 
L 17.098794 -19.079739 
L 17.125512 -19.08688 
L 17.164961 -19.094021 
L 17.217225 -19.101162 
L 17.281931 -19.108303 
L 17.358235 -19.115444 
L 17.444818 -19.122585 
L 17.539896 -19.129726 
L 17.641257 -19.136867 
L 17.74632 -19.144008 
L 17.852225 -19.151148 
L 17.955953 -19.158289 
L 18.054475 -19.16543 
L 18.144912 -19.172571 
L 18.224708 -19.179712 
L 18.291803 -19.186853 
L 18.344776 -19.193994 
L 18.38297 -19.201135 
L 18.406567 -19.208276 
L 18.416614 -19.215417 
L 18.414994 -19.222558 
L 18.404335 -19.229699 
L 18.387881 -19.23684 
L 18.369302 -19.243981 
L 18.352485 -19.251122 
L 18.341309 -19.258263 
L 18.339412 -19.265403 
L 18.349985 -19.272544 
L 18.37559 -19.279685 
L 18.418024 -19.286826 
L 18.478233 -19.293967 
L 18.55629 -19.301108 
L 18.651415 -19.308249 
L 18.762058 -19.31539 
L 18.886014 -19.322531 
L 19.020584 -19.329672 
L 19.162737 -19.336813 
L 19.309293 -19.343954 
L 19.457088 -19.351095 
L 19.60313 -19.358236 
L 19.744724 -19.365377 
L 19.87957 -19.372518 
L 20.005819 -19.379658 
L 21.581686 -19.379658 
L 21.581686 -19.379658 
L 21.707936 -19.372518 
L 21.842782 -19.365377 
L 21.984376 -19.358236 
L 22.130418 -19.351095 
L 22.278213 -19.343954 
L 22.424768 -19.336813 
L 22.566921 -19.329672 
L 22.701491 -19.322531 
L 22.825448 -19.31539 
L 22.93609 -19.308249 
L 23.031215 -19.301108 
L 23.109272 -19.293967 
L 23.169482 -19.286826 
L 23.211915 -19.279685 
L 23.23752 -19.272544 
L 23.248094 -19.265403 
L 23.246197 -19.258263 
L 23.235021 -19.251122 
L 23.218204 -19.243981 
L 23.199624 -19.23684 
L 23.18317 -19.229699 
L 23.172512 -19.222558 
L 23.170891 -19.215417 
L 23.180939 -19.208276 
L 23.204536 -19.201135 
L 23.24273 -19.193994 
L 23.295703 -19.186853 
L 23.362797 -19.179712 
L 23.442594 -19.172571 
L 23.53303 -19.16543 
L 23.631552 -19.158289 
L 23.735281 -19.151148 
L 23.841186 -19.144008 
L 23.946249 -19.136867 
L 24.04761 -19.129726 
L 24.142688 -19.122585 
L 24.229271 -19.115444 
L 24.305575 -19.108303 
L 24.370281 -19.101162 
L 24.422545 -19.094021 
L 24.461993 -19.08688 
L 24.488712 -19.079739 
L 24.503227 -19.072598 
L 24.506494 -19.065457 
L 24.499877 -19.058316 
L 24.485138 -19.051175 
L 24.464422 -19.044034 
L 24.440232 -19.036893 
L 24.415392 -19.029753 
L 24.393 -19.022612 
L 24.376356 -19.015471 
L 24.368866 -19.00833 
L 24.373942 -19.001189 
L 24.394875 -18.994048 
L 24.434709 -18.986907 
L 24.496116 -18.979766 
L 24.581278 -18.972625 
L 24.691794 -18.965484 
L 24.82861 -18.958343 
L 24.991969 -18.951202 
L 25.181409 -18.944061 
L 25.39577 -18.93692 
L 25.633234 -18.929779 
L 25.891381 -18.922638 
L 26.167251 -18.915498 
L 26.457411 -18.908357 
L 26.758016 -18.901216 
L 27.064863 -18.894075 
L 27.373436 -18.886934 
L 27.678944 -18.879793 
L 27.976358 -18.872652 
L 28.260445 -18.865511 
L 28.525816 -18.85837 
L 28.766989 -18.851229 
L 28.978477 -18.844088 
L 29.1549 -18.836947 
L 29.291126 -18.829806 
L 29.382432 -18.822665 
L 29.424688 -18.815524 
L 29.414545 -18.808383 
L 29.349621 -18.801243 
L 29.228666 -18.794102 
L 29.051694 -18.786961 
L 28.820072 -18.77982 
L 28.536545 -18.772679 
L 28.205206 -18.765538 
L 27.831392 -18.758397 
L 27.421521 -18.751256 
L 26.982874 -18.744115 
L 26.523326 -18.736974 
L 26.051058 -18.729833 
L 25.574254 -18.722692 
L 25.100804 -18.715551 
L 24.638036 -18.70841 
L 24.192483 -18.701269 
L 23.769704 -18.694128 
L 23.374166 -18.686988 
L 23.009179 -18.679847 
L 22.676901 -18.672706 
z
" style="stroke: #6f6f6f; stroke-width: 0.15"/>
    </defs>
    <g clip-path="url(#pc244cdc42f)">
     <use xlink:href="#m8ba2370664" x="0" y="84.96" style="fill: #f2aba8; stroke: #6f6f6f; stroke-width: 0.15"/>
    </g>
   </g>
   <g id="PolyCollection_2">
    <defs>
     <path id="m353632e90f" d="M 44.555372 -18.734227 
L 40.18681 -18.734227 
L 39.804734 -18.741128 
L 39.387149 -18.748029 
L 38.937509 -18.75493 
L 38.460796 -18.761831 
L 37.963496 -18.768732 
L 37.453499 -18.775633 
L 36.9399 -18.782534 
L 36.432715 -18.789435 
L 35.942518 -18.796335 
L 35.480022 -18.803236 
L 35.055615 -18.810137 
L 34.678892 -18.817038 
L 34.358212 -18.823939 
L 34.100301 -18.83084 
L 33.909944 -18.837741 
L 33.789768 -18.844642 
L 33.740156 -18.851543 
L 33.759272 -18.858444 
L 33.843219 -18.865344 
L 33.98629 -18.872245 
L 34.181322 -18.879146 
L 34.420101 -18.886047 
L 34.693803 -18.892948 
L 34.993441 -18.899849 
L 35.310279 -18.90675 
L 35.636203 -18.913651 
L 35.964015 -18.920552 
L 36.287652 -18.927452 
L 36.602306 -18.934353 
L 36.904471 -18.941254 
L 37.191895 -18.948155 
L 37.463468 -18.955056 
L 37.719058 -18.961957 
L 37.959299 -18.968858 
L 38.185365 -18.975759 
L 38.398737 -18.98266 
L 38.600977 -18.989561 
L 38.793533 -18.996461 
L 38.977571 -19.003362 
L 39.153857 -19.010263 
L 39.32268 -19.017164 
L 39.483838 -19.024065 
L 39.636652 -19.030966 
L 39.780045 -19.037867 
L 39.912645 -19.044768 
L 40.032923 -19.051669 
L 40.139343 -19.058569 
L 40.230521 -19.06547 
L 40.305378 -19.072371 
L 40.363271 -19.079272 
L 40.404095 -19.086173 
L 40.428354 -19.093074 
L 40.437177 -19.099975 
L 40.432297 -19.106876 
L 40.415984 -19.113777 
L 40.39093 -19.120677 
L 40.360105 -19.127578 
L 40.326591 -19.134479 
L 40.293396 -19.14138 
L 40.263278 -19.148281 
L 40.238576 -19.155182 
L 40.221072 -19.162083 
L 40.211892 -19.168984 
L 40.211448 -19.175885 
L 40.219434 -19.182786 
L 40.234874 -19.189686 
L 40.256218 -19.196587 
L 40.281474 -19.203488 
L 40.308384 -19.210389 
L 40.334606 -19.21729 
L 40.357911 -19.224191 
L 40.376366 -19.231092 
L 40.388498 -19.237993 
L 40.393419 -19.244894 
L 40.390909 -19.251794 
L 40.381451 -19.258695 
L 40.366213 -19.265596 
L 40.346975 -19.272497 
L 40.326022 -19.279398 
L 40.30599 -19.286299 
L 40.289694 -19.2932 
L 40.279945 -19.300101 
L 40.279369 -19.307002 
L 40.290238 -19.313903 
L 40.314332 -19.320803 
L 40.352834 -19.327704 
L 40.406269 -19.334605 
L 40.474487 -19.341506 
L 40.556683 -19.348407 
L 40.651468 -19.355308 
L 40.756959 -19.362209 
L 40.870904 -19.36911 
L 40.99081 -19.376011 
L 41.114086 -19.382911 
L 41.238168 -19.389812 
L 41.360641 -19.396713 
L 41.479335 -19.403614 
L 41.592395 -19.410515 
L 41.698333 -19.417416 
L 43.043849 -19.417416 
L 43.043849 -19.417416 
L 43.149787 -19.410515 
L 43.262847 -19.403614 
L 43.381541 -19.396713 
L 43.504014 -19.389812 
L 43.628096 -19.382911 
L 43.751372 -19.376011 
L 43.871278 -19.36911 
L 43.985223 -19.362209 
L 44.090714 -19.355308 
L 44.185499 -19.348407 
L 44.267695 -19.341506 
L 44.335913 -19.334605 
L 44.389348 -19.327704 
L 44.42785 -19.320803 
L 44.451944 -19.313903 
L 44.462812 -19.307002 
L 44.462237 -19.300101 
L 44.452488 -19.2932 
L 44.436192 -19.286299 
L 44.41616 -19.279398 
L 44.395207 -19.272497 
L 44.375969 -19.265596 
L 44.360731 -19.258695 
L 44.351273 -19.251794 
L 44.348763 -19.244894 
L 44.353684 -19.237993 
L 44.365816 -19.231092 
L 44.384271 -19.224191 
L 44.407576 -19.21729 
L 44.433798 -19.210389 
L 44.460708 -19.203488 
L 44.485964 -19.196587 
L 44.507308 -19.189686 
L 44.522748 -19.182786 
L 44.530734 -19.175885 
L 44.53029 -19.168984 
L 44.52111 -19.162083 
L 44.503606 -19.155182 
L 44.478904 -19.148281 
L 44.448786 -19.14138 
L 44.415591 -19.134479 
L 44.382077 -19.127578 
L 44.351252 -19.120677 
L 44.326198 -19.113777 
L 44.309884 -19.106876 
L 44.305005 -19.099975 
L 44.313828 -19.093074 
L 44.338086 -19.086173 
L 44.378911 -19.079272 
L 44.436804 -19.072371 
L 44.511661 -19.06547 
L 44.602839 -19.058569 
L 44.709259 -19.051669 
L 44.829537 -19.044768 
L 44.962137 -19.037867 
L 45.10553 -19.030966 
L 45.258344 -19.024065 
L 45.419501 -19.017164 
L 45.588325 -19.010263 
L 45.76461 -19.003362 
L 45.948648 -18.996461 
L 46.141204 -18.989561 
L 46.343445 -18.98266 
L 46.556817 -18.975759 
L 46.782883 -18.968858 
L 47.023124 -18.961957 
L 47.278714 -18.955056 
L 47.550287 -18.948155 
L 47.837711 -18.941254 
L 48.139876 -18.934353 
L 48.45453 -18.927452 
L 48.778166 -18.920552 
L 49.105979 -18.913651 
L 49.431903 -18.90675 
L 49.748741 -18.899849 
L 50.048379 -18.892948 
L 50.322081 -18.886047 
L 50.56086 -18.879146 
L 50.755892 -18.872245 
L 50.898963 -18.865344 
L 50.98291 -18.858444 
L 51.002026 -18.851543 
L 50.952414 -18.844642 
L 50.832238 -18.837741 
L 50.64188 -18.83084 
L 50.38397 -18.823939 
L 50.06329 -18.817038 
L 49.686567 -18.810137 
L 49.26216 -18.803236 
L 48.799664 -18.796335 
L 48.309467 -18.789435 
L 47.802282 -18.782534 
L 47.288683 -18.775633 
L 46.778686 -18.768732 
L 46.281386 -18.761831 
L 45.804673 -18.75493 
L 45.355033 -18.748029 
L 44.937448 -18.741128 
L 44.555372 -18.734227 
z
" style="stroke: #6f6f6f; stroke-width: 0.15"/>
    </defs>
    <g clip-path="url(#pc244cdc42f)">
     <use xlink:href="#m353632e90f" x="0" y="84.96" style="fill: #d3c4f6; stroke: #6f6f6f; stroke-width: 0.15"/>
    </g>
   </g>
   <g id="line2d_8">
    <path d="M 20.793753 66.189518 
L 20.793753 65.678118 
" clip-path="url(#pc244cdc42f)" style="fill: none; stroke: #8c8c8c; stroke-width: 0.75; stroke-linecap: round"/>
   </g>
   <g id="line2d_9">
    <path d="M 20.793753 66.155944 
L 20.793753 65.903059 
" clip-path="url(#pc244cdc42f)" style="fill: none; stroke: #8c8c8c; stroke-width: 4; stroke-linecap: round"/>
   </g>
   <g id="line2d_10">
    <path d="M 20.793753 66.078596 
" clip-path="url(#pc244cdc42f)" style="fill: none; stroke: #6f6f6f; stroke-width: 1.2; stroke-linecap: round"/>
    <defs>
     <path id="mf4da35791f" d="M 0 0.833333 
C 0.221003 0.833333 0.432983 0.745528 0.589256 0.589256 
C 0.745528 0.432983 0.833333 0.221003 0.833333 0 
C 0.833333 -0.221003 0.745528 -0.432983 0.589256 -0.589256 
C 0.432983 -0.745528 0.221003 -0.833333 0 -0.833333 
C -0.221003 -0.833333 -0.432983 -0.745528 -0.589256 -0.589256 
C -0.745528 -0.432983 -0.833333 -0.221003 -0.833333 0 
C -0.833333 0.221003 -0.745528 0.432983 -0.589256 0.589256 
C -0.432983 0.745528 -0.221003 0.833333 0 0.833333 
z
" style="stroke: #ffffff; stroke-width: 0.8"/>
    </defs>
    <g clip-path="url(#pc244cdc42f)">
     <use xlink:href="#mf4da35791f" x="20.793753" y="66.078596" style="fill: #ffffff; stroke: #ffffff; stroke-width: 0.8"/>
    </g>
   </g>
   <g id="line2d_11">
    <path d="M 42.371091 66.129679 
L 42.371091 65.638678 
" clip-path="url(#pc244cdc42f)" style="fill: none; stroke: #8c8c8c; stroke-width: 0.75; stroke-linecap: round"/>
   </g>
   <g id="line2d_12">
    <path d="M 42.371091 66.117839 
L 42.371091 65.912053 
" clip-path="url(#pc244cdc42f)" style="fill: none; stroke: #8c8c8c; stroke-width: 4; stroke-linecap: round"/>
   </g>
   <g id="line2d_13">
    <path d="M 42.371091 66.071444 
" clip-path="url(#pc244cdc42f)" style="fill: none; stroke: #6f6f6f; stroke-width: 1.2; stroke-linecap: round"/>
    <g clip-path="url(#pc244cdc42f)">
     <use xlink:href="#mf4da35791f" x="42.371091" y="66.071444" style="fill: #ffffff; stroke: #ffffff; stroke-width: 0.8"/>
    </g>
   </g>
   <g id="patch_3">
    <path d="M 10.005084 74.419526 
L 10.005084 4.076256 
" style="fill: none; stroke: #777777; stroke-width: 0.5; stroke-linejoin: miter; stroke-linecap: square"/>
   </g>
   <g id="patch_4">
    <path d="M 10.005084 76.919526 
L 53.15976 76.919526 
" style="fill: none; stroke: #777777; stroke-width: 0.5; stroke-linejoin: miter; stroke-linecap: square"/>
   </g>
  </g>
 </g>
 <defs>
  <clipPath id="pc244cdc42f">
   <rect x="10.005084" y="4.076256" width="43.154676" height="70.34327"/>
  </clipPath>
 </defs>
</svg>
