<?xml version="1.0" encoding="utf-8" standalone="no"?>
<!DOCTYPE svg PUBLIC "-//W3C//DTD SVG 1.1//EN"
  "http://www.w3.org/Graphics/SVG/1.1/DTD/svg11.dtd">
<svg xmlns:xlink="http://www.w3.org/1999/xlink" width="84.96pt" height="169.92pt" viewBox="0 0 84.96 169.92" xmlns="http://www.w3.org/2000/svg" version="1.1">
 <metadata>
  <rdf:RDF xmlns:dc="http://purl.org/dc/elements/1.1/" xmlns:cc="http://creativecommons.org/ns#" xmlns:rdf="http://www.w3.org/1999/02/22-rdf-syntax-ns#">
   <cc:Work>
    <dc:type rdf:resource="http://purl.org/dc/dcmitype/StillImage"/>
    <dc:date>2024-05-27T15:37:21.714736</dc:date>
    <dc:format>image/svg+xml</dc:format>
    <dc:creator>
     <cc:Agent>
      <dc:title>Matplotlib v3.8.3, https://matplotlib.org/</dc:title>
     </cc:Agent>
    </dc:creator>
   </cc:Work>
  </rdf:RDF>
 </metadata>
 <defs>
  <style type="text/css">*{stroke-linejoin: round; stroke-linecap: butt}</style>
 </defs>
 <g id="figure_1">
  <g id="patch_1">
   <path d="M 0 169.92 
L 84.96 169.92 
L 84.96 0 
L 0 0 
z
" style="fill: #ffffff"/>
  </g>
  <g id="axes_1">
   <g id="patch_2">
    <path d="M 11.673365 74.419526 
L 81.95976 74.419526 
L 81.95976 4.076256 
L 11.673365 4.076256 
z
" style="fill: #ffffff"/>
   </g>
   <g id="matplotlib.axis_1">
    <g id="xtick_1">
     <g id="text_1">
      <!-- ILC3 -->
      <g style="fill: #333333" transform="translate(25.548636 81.230229) scale(0.035 -0.035)">
       <defs>
        <path id="Helvetica-49" d="M 628 4591 
L 1256 4591 
L 1256 0 
L 628 0 
L 628 4591 
z
" transform="scale(0.015625)"/>
        <path id="Helvetica-4c" d="M 488 4591 
L 1109 4591 
L 1109 547 
L 3434 547 
L 3434 0 
L 488 0 
L 488 4591 
z
" transform="scale(0.015625)"/>
        <path id="Helvetica-43" d="M 2422 4716 
Q 3294 4716 3775 4256 
Q 4256 3797 4309 3213 
L 3703 3213 
Q 3600 3656 3292 3915 
Q 2984 4175 2428 4175 
Q 1750 4175 1333 3698 
Q 916 3222 916 2238 
Q 916 1431 1292 929 
Q 1669 428 2416 428 
Q 3103 428 3463 956 
Q 3653 1234 3747 1688 
L 4353 1688 
Q 4272 963 3816 472 
Q 3269 -119 2341 -119 
Q 1541 -119 997 366 
Q 281 1006 281 2344 
Q 281 3359 819 4009 
Q 1400 4716 2422 4716 
z
M 2297 4716 
L 2297 4716 
z
" transform="scale(0.015625)"/>
        <path id="Helvetica-33" d="M 1663 -122 
Q 869 -122 511 314 
Q 153 750 153 1375 
L 741 1375 
Q 778 941 903 744 
Q 1122 391 1694 391 
Q 2138 391 2406 628 
Q 2675 866 2675 1241 
Q 2675 1703 2392 1887 
Q 2109 2072 1606 2072 
Q 1550 2072 1492 2070 
Q 1434 2069 1375 2066 
L 1375 2563 
Q 1463 2553 1522 2550 
Q 1581 2547 1650 2547 
Q 1966 2547 2169 2647 
Q 2525 2822 2525 3272 
Q 2525 3606 2287 3787 
Q 2050 3969 1734 3969 
Q 1172 3969 956 3594 
Q 838 3388 822 3006 
L 266 3006 
Q 266 3506 466 3856 
Q 809 4481 1675 4481 
Q 2359 4481 2734 4176 
Q 3109 3872 3109 3294 
Q 3109 2881 2888 2625 
Q 2750 2466 2531 2375 
Q 2884 2278 3082 2001 
Q 3281 1725 3281 1325 
Q 3281 684 2859 281 
Q 2438 -122 1663 -122 
z
" transform="scale(0.015625)"/>
       </defs>
       <use xlink:href="#Helvetica-49"/>
       <use xlink:href="#Helvetica-4c" x="27.783203"/>
       <use xlink:href="#Helvetica-43" x="83.398438"/>
       <use xlink:href="#Helvetica-33" x="155.615234"/>
      </g>
     </g>
    </g>
    <g id="xtick_2">
     <g id="text_2">
      <!-- icCD3+ ILC3 -->
      <g style="fill: #333333" transform="translate(54.418903 81.230229) scale(0.035 -0.035)">
       <defs>
        <path id="Helvetica-69" d="M 413 3331 
L 984 3331 
L 984 0 
L 413 0 
L 413 3331 
z
M 413 4591 
L 984 4591 
L 984 3953 
L 413 3953 
L 413 4591 
z
" transform="scale(0.015625)"/>
        <path id="Helvetica-63" d="M 1703 3444 
Q 2269 3444 2623 3169 
Q 2978 2894 3050 2222 
L 2503 2222 
Q 2453 2531 2275 2736 
Q 2097 2941 1703 2941 
Q 1166 2941 934 2416 
Q 784 2075 784 1575 
Q 784 1072 996 728 
Q 1209 384 1666 384 
Q 2016 384 2220 598 
Q 2425 813 2503 1184 
L 3050 1184 
Q 2956 519 2581 211 
Q 2206 -97 1622 -97 
Q 966 -97 575 383 
Q 184 863 184 1581 
Q 184 2463 612 2953 
Q 1041 3444 1703 3444 
z
M 1616 3428 
L 1616 3428 
z
" transform="scale(0.015625)"/>
        <path id="Helvetica-44" d="M 2250 531 
Q 2566 531 2769 597 
Q 3131 719 3363 1066 
Q 3547 1344 3628 1778 
Q 3675 2038 3675 2259 
Q 3675 3113 3336 3584 
Q 2997 4056 2244 4056 
L 1141 4056 
L 1141 531 
L 2250 531 
z
M 516 4591 
L 2375 4591 
Q 3322 4591 3844 3919 
Q 4309 3313 4309 2366 
Q 4309 1634 4034 1044 
Q 3550 0 2369 0 
L 516 0 
L 516 4591 
z
" transform="scale(0.015625)"/>
        <path id="Helvetica-2b" d="M 288 1369 
L 288 1894 
L 1650 1894 
L 1650 3266 
L 2184 3266 
L 2184 1894 
L 3547 1894 
L 3547 1369 
L 2184 1369 
L 2184 0 
L 1650 0 
L 1650 1369 
L 288 1369 
z
" transform="scale(0.015625)"/>
        <path id="Helvetica-20" transform="scale(0.015625)"/>
       </defs>
       <use xlink:href="#Helvetica-69"/>
       <use xlink:href="#Helvetica-63" x="22.216797"/>
       <use xlink:href="#Helvetica-43" x="72.216797"/>
       <use xlink:href="#Helvetica-44" x="144.433594"/>
       <use xlink:href="#Helvetica-33" x="216.650391"/>
       <use xlink:href="#Helvetica-2b" x="272.265625"/>
       <use xlink:href="#Helvetica-20" x="330.664062"/>
       <use xlink:href="#Helvetica-49" x="358.447266"/>
       <use xlink:href="#Helvetica-4c" x="386.230469"/>
       <use xlink:href="#Helvetica-43" x="441.845703"/>
       <use xlink:href="#Helvetica-33" x="514.0625"/>
      </g>
     </g>
    </g>
   </g>
   <g id="matplotlib.axis_2">
    <g id="ytick_1">
     <g id="line2d_1">
      <defs>
       <path id="m860d583b2a" d="M 0 0 
L -1 0 
" style="stroke: #777777; stroke-width: 0.5"/>
      </defs>
      <g>
       <use xlink:href="#m860d583b2a" x="11.673365" y="67.285869" style="fill: #777777; stroke: #777777; stroke-width: 0.5"/>
      </g>
     </g>
     <g id="text_3">
      <!-- 0 -->
      <g style="fill: #333333" transform="translate(8.005084 68.361885) scale(0.03 -0.03)">
       <defs>
        <path id="Helvetica-30" d="M 1731 4475 
Q 2600 4475 2988 3759 
Q 3288 3206 3288 2244 
Q 3288 1331 3016 734 
Q 2622 -122 1728 -122 
Q 922 -122 528 578 
Q 200 1163 200 2147 
Q 200 2909 397 3456 
Q 766 4475 1731 4475 
z
M 1725 391 
Q 2163 391 2422 778 
Q 2681 1166 2681 2222 
Q 2681 2984 2493 3476 
Q 2306 3969 1766 3969 
Q 1269 3969 1039 3501 
Q 809 3034 809 2125 
Q 809 1441 956 1025 
Q 1181 391 1725 391 
z
" transform="scale(0.015625)"/>
       </defs>
       <use xlink:href="#Helvetica-30"/>
      </g>
     </g>
    </g>
    <g id="ytick_2">
     <g id="line2d_2">
      <g>
       <use xlink:href="#m860d583b2a" x="11.673365" y="58.255924" style="fill: #777777; stroke: #777777; stroke-width: 0.5"/>
      </g>
     </g>
     <g id="text_4">
      <!-- 100 -->
      <g style="fill: #333333" transform="translate(4.668521 59.33194) scale(0.03 -0.03)">
       <defs>
        <path id="Helvetica-31" d="M 613 3169 
L 613 3600 
Q 1222 3659 1462 3798 
Q 1703 3938 1822 4456 
L 2266 4456 
L 2266 0 
L 1666 0 
L 1666 3169 
L 613 3169 
z
" transform="scale(0.015625)"/>
       </defs>
       <use xlink:href="#Helvetica-31"/>
       <use xlink:href="#Helvetica-30" x="55.615234"/>
       <use xlink:href="#Helvetica-30" x="111.230469"/>
      </g>
     </g>
    </g>
    <g id="ytick_3">
     <g id="line2d_3">
      <g>
       <use xlink:href="#m860d583b2a" x="11.673365" y="49.22598" style="fill: #777777; stroke: #777777; stroke-width: 0.5"/>
      </g>
     </g>
     <g id="text_5">
      <!-- 200 -->
      <g style="fill: #333333" transform="translate(4.668521 50.301995) scale(0.03 -0.03)">
       <defs>
        <path id="Helvetica-32" d="M 200 0 
Q 231 578 439 1006 
Q 647 1434 1250 1784 
L 1850 2131 
Q 2253 2366 2416 2531 
Q 2672 2791 2672 3125 
Q 2672 3516 2437 3745 
Q 2203 3975 1813 3975 
Q 1234 3975 1013 3538 
Q 894 3303 881 2888 
L 309 2888 
Q 319 3472 525 3841 
Q 891 4491 1816 4491 
Q 2584 4491 2939 4075 
Q 3294 3659 3294 3150 
Q 3294 2613 2916 2231 
Q 2697 2009 2131 1694 
L 1703 1456 
Q 1397 1288 1222 1134 
Q 909 863 828 531 
L 3272 531 
L 3272 0 
L 200 0 
z
" transform="scale(0.015625)"/>
       </defs>
       <use xlink:href="#Helvetica-32"/>
       <use xlink:href="#Helvetica-30" x="55.615234"/>
       <use xlink:href="#Helvetica-30" x="111.230469"/>
      </g>
     </g>
    </g>
    <g id="ytick_4">
     <g id="line2d_4">
      <g>
       <use xlink:href="#m860d583b2a" x="11.673365" y="40.196035" style="fill: #777777; stroke: #777777; stroke-width: 0.5"/>
      </g>
     </g>
     <g id="text_6">
      <!-- 300 -->
      <g style="fill: #333333" transform="translate(4.668521 41.27205) scale(0.03 -0.03)">
       <use xlink:href="#Helvetica-33"/>
       <use xlink:href="#Helvetica-30" x="55.615234"/>
       <use xlink:href="#Helvetica-30" x="111.230469"/>
      </g>
     </g>
    </g>
    <g id="ytick_5">
     <g id="line2d_5">
      <g>
       <use xlink:href="#m860d583b2a" x="11.673365" y="31.16609" style="fill: #777777; stroke: #777777; stroke-width: 0.5"/>
      </g>
     </g>
     <g id="text_7">
      <!-- 400 -->
      <g style="fill: #333333" transform="translate(4.668521 32.242106) scale(0.03 -0.03)">
       <defs>
        <path id="Helvetica-34" d="M 2116 1584 
L 2116 3613 
L 681 1584 
L 2116 1584 
z
M 2125 0 
L 2125 1094 
L 163 1094 
L 163 1644 
L 2213 4488 
L 2688 4488 
L 2688 1584 
L 3347 1584 
L 3347 1094 
L 2688 1094 
L 2688 0 
L 2125 0 
z
" transform="scale(0.015625)"/>
       </defs>
       <use xlink:href="#Helvetica-34"/>
       <use xlink:href="#Helvetica-30" x="55.615234"/>
       <use xlink:href="#Helvetica-30" x="111.230469"/>
      </g>
     </g>
    </g>
    <g id="ytick_6">
     <g id="line2d_6">
      <g>
       <use xlink:href="#m860d583b2a" x="11.673365" y="22.136145" style="fill: #777777; stroke: #777777; stroke-width: 0.5"/>
      </g>
     </g>
     <g id="text_8">
      <!-- 500 -->
      <g style="fill: #333333" transform="translate(4.668521 23.212161) scale(0.03 -0.03)">
       <defs>
        <path id="Helvetica-35" d="M 791 1141 
Q 847 659 1238 475 
Q 1438 381 1700 381 
Q 2200 381 2440 700 
Q 2681 1019 2681 1406 
Q 2681 1875 2395 2131 
Q 2109 2388 1709 2388 
Q 1419 2388 1211 2275 
Q 1003 2163 856 1963 
L 369 1991 
L 709 4400 
L 3034 4400 
L 3034 3856 
L 1131 3856 
L 941 2613 
Q 1097 2731 1238 2791 
Q 1488 2894 1816 2894 
Q 2431 2894 2859 2497 
Q 3288 2100 3288 1491 
Q 3288 856 2895 371 
Q 2503 -113 1644 -113 
Q 1097 -113 676 195 
Q 256 503 206 1141 
L 791 1141 
z
" transform="scale(0.015625)"/>
       </defs>
       <use xlink:href="#Helvetica-35"/>
       <use xlink:href="#Helvetica-30" x="55.615234"/>
       <use xlink:href="#Helvetica-30" x="111.230469"/>
      </g>
     </g>
    </g>
    <g id="ytick_7">
     <g id="line2d_7">
      <g>
       <use xlink:href="#m860d583b2a" x="11.673365" y="13.1062" style="fill: #777777; stroke: #777777; stroke-width: 0.5"/>
      </g>
     </g>
     <g id="text_9">
      <!-- 600 -->
      <g style="fill: #333333" transform="translate(4.668521 14.182216) scale(0.03 -0.03)">
       <defs>
        <path id="Helvetica-36" d="M 1872 4494 
Q 2622 4494 2917 4105 
Q 3213 3716 3213 3303 
L 2656 3303 
Q 2606 3569 2497 3719 
Q 2294 4000 1881 4000 
Q 1409 4000 1131 3564 
Q 853 3128 822 2316 
Q 1016 2600 1309 2741 
Q 1578 2866 1909 2866 
Q 2472 2866 2890 2506 
Q 3309 2147 3309 1434 
Q 3309 825 2912 354 
Q 2516 -116 1781 -116 
Q 1153 -116 697 361 
Q 241 838 241 1966 
Q 241 2800 444 3381 
Q 834 4494 1872 4494 
z
M 1831 384 
Q 2275 384 2495 682 
Q 2716 981 2716 1388 
Q 2716 1731 2519 2042 
Q 2322 2353 1803 2353 
Q 1441 2353 1167 2112 
Q 894 1872 894 1388 
Q 894 963 1142 673 
Q 1391 384 1831 384 
z
" transform="scale(0.015625)"/>
       </defs>
       <use xlink:href="#Helvetica-36"/>
       <use xlink:href="#Helvetica-30" x="55.615234"/>
       <use xlink:href="#Helvetica-30" x="111.230469"/>
      </g>
     </g>
    </g>
    <g id="ytick_8">
     <g id="line2d_8">
      <g>
       <use xlink:href="#m860d583b2a" x="11.673365" y="4.076256" style="fill: #777777; stroke: #777777; stroke-width: 0.5"/>
      </g>
     </g>
     <g id="text_10">
      <!-- 700 -->
      <g style="fill: #333333" transform="translate(4.668521 5.152271) scale(0.03 -0.03)">
       <defs>
        <path id="Helvetica-37" d="M 3347 4400 
L 3347 3909 
Q 3131 3700 2773 3181 
Q 2416 2663 2141 2063 
Q 1869 1478 1728 997 
Q 1638 688 1494 0 
L 872 0 
Q 1084 1281 1809 2550 
Q 2238 3294 2709 3834 
L 234 3834 
L 234 4400 
L 3347 4400 
z
" transform="scale(0.015625)"/>
       </defs>
       <use xlink:href="#Helvetica-37"/>
       <use xlink:href="#Helvetica-30" x="55.615234"/>
       <use xlink:href="#Helvetica-30" x="111.230469"/>
      </g>
     </g>
    </g>
   </g>
   <g id="PolyCollection_1">
    <defs>
     <path id="mdc0d1e64fc" d="M 30.390138 -100.333224 
L 28.09979 -100.333224 
L 27.768102 -100.57244 
L 27.367791 -100.811656 
L 26.893174 -101.050872 
L 26.340531 -101.290088 
L 25.708766 -101.529304 
L 25.000003 -101.76852 
L 24.220044 -102.007736 
L 23.378626 -102.246952 
L 22.489412 -102.486168 
L 21.569683 -102.725384 
L 20.639718 -102.9646 
L 19.721876 -103.203816 
L 18.839453 -103.443032 
L 18.015382 -103.682248 
L 17.270895 -103.921464 
L 16.624272 -104.16068 
L 16.089788 -104.399896 
L 15.67697 -104.639112 
L 15.39023 -104.878328 
L 15.228902 -105.117544 
L 15.187685 -105.35676 
L 15.257423 -105.595976 
L 15.426143 -105.835193 
L 15.680218 -106.074409 
L 16.005554 -106.313625 
L 16.38866 -106.552841 
L 16.817503 -106.792057 
L 17.282093 -107.031273 
L 17.774744 -107.270489 
L 18.290023 -107.509705 
L 18.824445 -107.748921 
L 19.37595 -107.988137 
L 19.943281 -108.227353 
L 20.525331 -108.466569 
L 21.120564 -108.705785 
L 21.726562 -108.945001 
L 22.339752 -109.184217 
L 22.955341 -109.423433 
L 23.567433 -109.662649 
L 24.169318 -109.901865 
L 24.753867 -110.141081 
L 25.313992 -110.380297 
L 25.843107 -110.619513 
L 26.335538 -110.858729 
L 26.786837 -111.097945 
L 27.193994 -111.337161 
L 27.555508 -111.576377 
L 27.871352 -111.815593 
L 28.142827 -112.054809 
L 28.372342 -112.294025 
L 28.563148 -112.533241 
L 28.719047 -112.772457 
L 28.844112 -113.011673 
L 28.942427 -113.250889 
L 29.017869 -113.490105 
L 29.073934 -113.729321 
L 29.113608 -113.968537 
L 29.13928 -114.207753 
L 29.152702 -114.446969 
L 29.154971 -114.686185 
L 29.146553 -114.925401 
L 29.127318 -115.164617 
L 29.096618 -115.403833 
L 29.053373 -115.643049 
L 28.996199 -115.882265 
L 28.923555 -116.121481 
L 28.833922 -116.360697 
L 28.726004 -116.599913 
L 28.598948 -116.839129 
L 28.452566 -117.078345 
L 28.28754 -117.317562 
L 28.105599 -117.556778 
L 27.909635 -117.795994 
L 27.703738 -118.03521 
L 27.493145 -118.274426 
L 27.284069 -118.513642 
L 27.083442 -118.752858 
L 26.898552 -118.992074 
L 26.736615 -119.23129 
L 26.604315 -119.470506 
L 26.507351 -119.709722 
L 26.450026 -119.948938 
L 26.434934 -120.188154 
L 26.462762 -120.42737 
L 26.532245 -120.666586 
L 26.640251 -120.905802 
L 26.782026 -121.145018 
L 26.951532 -121.384234 
L 27.141879 -121.62345 
L 27.345782 -121.862666 
L 27.55602 -122.101882 
L 27.765848 -122.341098 
L 27.969324 -122.580314 
L 28.161554 -122.81953 
L 28.338823 -123.058746 
L 28.498622 -123.297962 
L 28.639597 -123.537178 
L 28.761418 -123.776394 
L 28.864603 -124.01561 
L 29.625325 -124.01561 
L 29.625325 -124.01561 
L 29.72851 -123.776394 
L 29.85033 -123.537178 
L 29.991306 -123.297962 
L 30.151105 -123.058746 
L 30.328373 -122.81953 
L 30.520604 -122.580314 
L 30.72408 -122.341098 
L 30.933907 -122.101882 
L 31.144146 -121.862666 
L 31.348049 -121.62345 
L 31.538395 -121.384234 
L 31.707902 -121.145018 
L 31.849676 -120.905802 
L 31.957683 -120.666586 
L 32.027165 -120.42737 
L 32.054994 -120.188154 
L 32.039901 -119.948938 
L 31.982576 -119.709722 
L 31.885612 -119.470506 
L 31.753313 -119.23129 
L 31.591375 -118.992074 
L 31.406485 -118.752858 
L 31.205858 -118.513642 
L 30.996783 -118.274426 
L 30.786189 -118.03521 
L 30.580293 -117.795994 
L 30.384329 -117.556778 
L 30.202388 -117.317562 
L 30.037362 -117.078345 
L 29.890979 -116.839129 
L 29.763923 -116.599913 
L 29.656005 -116.360697 
L 29.566372 -116.121481 
L 29.493728 -115.882265 
L 29.436554 -115.643049 
L 29.393309 -115.403833 
L 29.362609 -115.164617 
L 29.343375 -114.925401 
L 29.334956 -114.686185 
L 29.337226 -114.446969 
L 29.350647 -114.207753 
L 29.37632 -113.968537 
L 29.415993 -113.729321 
L 29.472058 -113.490105 
L 29.5475 -113.250889 
L 29.645815 -113.011673 
L 29.77088 -112.772457 
L 29.926779 -112.533241 
L 30.117585 -112.294025 
L 30.3471 -112.054809 
L 30.618575 -111.815593 
L 30.934419 -111.576377 
L 31.295934 -111.337161 
L 31.70309 -111.097945 
L 32.15439 -110.858729 
L 32.64682 -110.619513 
L 33.175936 -110.380297 
L 33.736061 -110.141081 
L 34.320609 -109.901865 
L 34.922494 -109.662649 
L 35.534587 -109.423433 
L 36.150176 -109.184217 
L 36.763366 -108.945001 
L 37.369363 -108.705785 
L 37.964596 -108.466569 
L 38.546647 -108.227353 
L 39.113977 -107.988137 
L 39.665482 -107.748921 
L 40.199904 -107.509705 
L 40.715184 -107.270489 
L 41.207834 -107.031273 
L 41.672425 -106.792057 
L 42.101268 -106.552841 
L 42.484373 -106.313625 
L 42.80971 -106.074409 
L 43.063785 -105.835193 
L 43.232504 -105.595976 
L 43.302243 -105.35676 
L 43.261026 -105.117544 
L 43.099697 -104.878328 
L 42.812957 -104.639112 
L 42.40014 -104.399896 
L 41.865656 -104.16068 
L 41.219032 -103.921464 
L 40.474545 -103.682248 
L 39.650474 -103.443032 
L 38.768052 -103.203816 
L 37.85021 -102.9646 
L 36.920244 -102.725384 
L 36.000515 -102.486168 
L 35.111302 -102.246952 
L 34.269884 -102.007736 
L 33.489925 -101.76852 
L 32.781162 -101.529304 
L 32.149396 -101.290088 
L 31.596753 -101.050872 
L 31.122136 -100.811656 
L 30.721826 -100.57244 
L 30.390138 -100.333224 
z
" style="stroke: #505050; stroke-width: 0.15"/>
    </defs>
    <g clip-path="url(#p1ec52ce583)">
     <use xlink:href="#mdc0d1e64fc" x="0" y="169.92" style="fill: #c447c3; stroke: #505050; stroke-width: 0.15"/>
    </g>
   </g>
   <g id="PolyCollection_2">
    <defs>
     <path id="mc133abde6e" d="M 65.707519 -102.412271 
L 63.068804 -102.412271 
L 62.716621 -102.426718 
L 62.297416 -102.441164 
L 61.806327 -102.45561 
L 61.240319 -102.470057 
L 60.598747 -102.484503 
L 59.883884 -102.498949 
L 59.101342 -102.513396 
L 58.260343 -102.527842 
L 57.37379 -102.542288 
L 56.458087 -102.556735 
L 55.532712 -102.571181 
L 54.619527 -102.585628 
L 53.741854 -102.600074 
L 52.923376 -102.61452 
L 52.186933 -102.628967 
L 51.553294 -102.643413 
L 51.040013 -102.657859 
L 50.66045 -102.672306 
L 50.423042 -102.686752 
L 50.330882 -102.701198 
L 50.381634 -102.715645 
L 50.567783 -102.730091 
L 50.8772 -102.744537 
L 51.293958 -102.758984 
L 51.799323 -102.77343 
L 52.372852 -102.787876 
L 52.993497 -102.802323 
L 53.640653 -102.816769 
L 54.295073 -102.831215 
L 54.939619 -102.845662 
L 55.559811 -102.860108 
L 56.144165 -102.874554 
L 56.684342 -102.889001 
L 57.175098 -102.903447 
L 57.614086 -102.917894 
L 58.001526 -102.93234 
L 58.339772 -102.946786 
L 58.632822 -102.961233 
L 58.885784 -102.975679 
L 59.104352 -102.990125 
L 59.294297 -103.004572 
L 59.461034 -103.019018 
L 59.609256 -103.033464 
L 59.742689 -103.047911 
L 59.863964 -103.062357 
L 59.974611 -103.076803 
L 60.075182 -103.09125 
L 60.165473 -103.105696 
L 60.244824 -103.120142 
L 60.312461 -103.134589 
L 60.36783 -103.149035 
L 60.410904 -103.163481 
L 60.442395 -103.177928 
L 60.46387 -103.192374 
L 60.477737 -103.206821 
L 60.487117 -103.221267 
L 60.49559 -103.235713 
L 60.506874 -103.25016 
L 60.524446 -103.264606 
L 60.551167 -103.279052 
L 60.588949 -103.293499 
L 60.638507 -103.307945 
L 60.699222 -103.322391 
L 60.769146 -103.336838 
L 60.845143 -103.351284 
L 60.923159 -103.36573 
L 60.998596 -103.380177 
L 61.066764 -103.394623 
L 61.123345 -103.409069 
L 61.164848 -103.423516 
L 61.188995 -103.437962 
L 61.195005 -103.452408 
L 61.183745 -103.466855 
L 61.15774 -103.481301 
L 61.121034 -103.495747 
L 61.07891 -103.510194 
L 61.037514 -103.52464 
L 61.003391 -103.539087 
L 60.982998 -103.553533 
L 60.98222 -103.567979 
L 61.005945 -103.582426 
L 61.057719 -103.596872 
L 61.139517 -103.611318 
L 61.251646 -103.625765 
L 61.392764 -103.640211 
L 61.560036 -103.654657 
L 61.749376 -103.669104 
L 61.955773 -103.68355 
L 62.173645 -103.697996 
L 62.397216 -103.712443 
L 62.62086 -103.726889 
L 62.839401 -103.741335 
L 63.048355 -103.755782 
L 63.244084 -103.770228 
L 63.423883 -103.784674 
L 63.585992 -103.799121 
L 63.729544 -103.813567 
L 63.854465 -103.828014 
L 63.961345 -103.84246 
L 64.814978 -103.84246 
L 64.814978 -103.84246 
L 64.921857 -103.828014 
L 65.046778 -103.813567 
L 65.19033 -103.799121 
L 65.352439 -103.784674 
L 65.532238 -103.770228 
L 65.727967 -103.755782 
L 65.936921 -103.741335 
L 66.155463 -103.726889 
L 66.379106 -103.712443 
L 66.602677 -103.697996 
L 66.82055 -103.68355 
L 67.026946 -103.669104 
L 67.216287 -103.654657 
L 67.383559 -103.640211 
L 67.524677 -103.625765 
L 67.636805 -103.611318 
L 67.718604 -103.596872 
L 67.770378 -103.582426 
L 67.794102 -103.567979 
L 67.793324 -103.553533 
L 67.772931 -103.539087 
L 67.738808 -103.52464 
L 67.697412 -103.510194 
L 67.655289 -103.495747 
L 67.618582 -103.481301 
L 67.592578 -103.466855 
L 67.581317 -103.452408 
L 67.587327 -103.437962 
L 67.611474 -103.423516 
L 67.652978 -103.409069 
L 67.709559 -103.394623 
L 67.777726 -103.380177 
L 67.853164 -103.36573 
L 67.931179 -103.351284 
L 68.007176 -103.336838 
L 68.077101 -103.322391 
L 68.137816 -103.307945 
L 68.187374 -103.293499 
L 68.225156 -103.279052 
L 68.251877 -103.264606 
L 68.269449 -103.25016 
L 68.280733 -103.235713 
L 68.289206 -103.221267 
L 68.298585 -103.206821 
L 68.312453 -103.192374 
L 68.333927 -103.177928 
L 68.365418 -103.163481 
L 68.408492 -103.149035 
L 68.463862 -103.134589 
L 68.531498 -103.120142 
L 68.610849 -103.105696 
L 68.701141 -103.09125 
L 68.801711 -103.076803 
L 68.912358 -103.062357 
L 69.033633 -103.047911 
L 69.167067 -103.033464 
L 69.315289 -103.019018 
L 69.482025 -103.004572 
L 69.671971 -102.990125 
L 69.890538 -102.975679 
L 70.143501 -102.961233 
L 70.43655 -102.946786 
L 70.774797 -102.93234 
L 71.162236 -102.917894 
L 71.601225 -102.903447 
L 72.091981 -102.889001 
L 72.632157 -102.874554 
L 73.216512 -102.860108 
L 73.836703 -102.845662 
L 74.48125 -102.831215 
L 75.13567 -102.816769 
L 75.782825 -102.802323 
L 76.40347 -102.787876 
L 76.976999 -102.77343 
L 77.482364 -102.758984 
L 77.899122 -102.744537 
L 78.20854 -102.730091 
L 78.394689 -102.715645 
L 78.44544 -102.701198 
L 78.353281 -102.686752 
L 78.115873 -102.672306 
L 77.73631 -102.657859 
L 77.223029 -102.643413 
L 76.58939 -102.628967 
L 75.852946 -102.61452 
L 75.034469 -102.600074 
L 74.156796 -102.585628 
L 73.24361 -102.571181 
L 72.318236 -102.556735 
L 71.402533 -102.542288 
L 70.515979 -102.527842 
L 69.674981 -102.513396 
L 68.892439 -102.498949 
L 68.177576 -102.484503 
L 67.536003 -102.470057 
L 66.969995 -102.45561 
L 66.478907 -102.441164 
L 66.059702 -102.426718 
L 65.707519 -102.412271 
z
" style="stroke: #505050; stroke-width: 0.15"/>
    </defs>
    <g clip-path="url(#p1ec52ce583)">
     <use xlink:href="#mc133abde6e" x="0" y="169.92" style="fill: #d275d2; stroke: #505050; stroke-width: 0.15"/>
    </g>
   </g>
   <g id="line2d_9">
    <path d="M 29.244964 65.723704 
L 29.244964 61.027234 
" clip-path="url(#p1ec52ce583)" style="fill: none; stroke: #8c8c8c; stroke-width: 0.75; stroke-linecap: round"/>
   </g>
   <g id="line2d_10">
    <path d="M 29.244964 65.486045 
L 29.244964 61.692465 
" clip-path="url(#p1ec52ce583)" style="fill: none; stroke: #8c8c8c; stroke-width: 4; stroke-linecap: round"/>
   </g>
   <g id="line2d_11">
    <path d="M 29.244964 64.016867 
" clip-path="url(#p1ec52ce583)" style="fill: none; stroke: #505050; stroke-width: 1.2; stroke-linecap: round"/>
    <defs>
     <path id="me32723566e" d="M 0 0.833333 
C 0.221003 0.833333 0.432983 0.745528 0.589256 0.589256 
C 0.745528 0.432983 0.833333 0.221003 0.833333 0 
C 0.833333 -0.221003 0.745528 -0.432983 0.589256 -0.589256 
C 0.432983 -0.745528 0.221003 -0.833333 0 -0.833333 
C -0.221003 -0.833333 -0.432983 -0.745528 -0.589256 -0.589256 
C -0.745528 -0.432983 -0.833333 -0.221003 -0.833333 0 
C -0.833333 0.221003 -0.745528 0.432983 -0.589256 0.589256 
C -0.432983 0.745528 -0.221003 0.833333 0 0.833333 
z
" style="stroke: #ffffff; stroke-width: 0.8"/>
    </defs>
    <g clip-path="url(#p1ec52ce583)">
     <use xlink:href="#me32723566e" x="29.244964" y="64.016867" style="fill: #ffffff; stroke: #ffffff; stroke-width: 0.8"/>
    </g>
   </g>
   <g id="line2d_12">
    <path d="M 64.388161 67.256374 
L 64.388161 66.328895 
" clip-path="url(#p1ec52ce583)" style="fill: none; stroke: #8c8c8c; stroke-width: 0.75; stroke-linecap: round"/>
   </g>
   <g id="line2d_13">
    <path d="M 64.388161 67.232062 
L 64.388161 66.811507 
" clip-path="url(#p1ec52ce583)" style="fill: none; stroke: #8c8c8c; stroke-width: 4; stroke-linecap: round"/>
   </g>
   <g id="line2d_14">
    <path d="M 64.388161 67.147022 
" clip-path="url(#p1ec52ce583)" style="fill: none; stroke: #505050; stroke-width: 1.2; stroke-linecap: round"/>
    <g clip-path="url(#p1ec52ce583)">
     <use xlink:href="#me32723566e" x="64.388161" y="67.147022" style="fill: #ffffff; stroke: #ffffff; stroke-width: 0.8"/>
    </g>
   </g>
   <g id="patch_3">
    <path d="M 11.673365 74.419526 
L 11.673365 4.076256 
" style="fill: none; stroke: #777777; stroke-width: 0.5; stroke-linejoin: miter; stroke-linecap: square"/>
   </g>
   <g id="patch_4">
    <path d="M 11.673365 76.919526 
L 81.95976 76.919526 
" style="fill: none; stroke: #777777; stroke-width: 0.5; stroke-linejoin: miter; stroke-linecap: square"/>
   </g>
   <g id="PathCollection_1">
    <defs>
     <path id="m4b60c29dcc" d="M 0 0.375 
C 0.099451 0.375 0.194842 0.335488 0.265165 0.265165 
C 0.335488 0.194842 0.375 0.099451 0.375 0 
C 0.375 -0.099451 0.335488 -0.194842 0.265165 -0.265165 
C 0.194842 -0.335488 0.099451 -0.375 0 -0.375 
C -0.099451 -0.375 -0.194842 -0.335488 -0.265165 -0.265165 
C -0.335488 -0.194842 -0.375 -0.099451 -0.375 0 
C -0.375 0.099451 -0.335488 0.194842 -0.265165 0.265165 
C -0.194842 0.335488 -0.099451 0.375 0 0.375 
z
"/>
    </defs>
    <g clip-path="url(#p1ec52ce583)">
     <use xlink:href="#m4b60c29dcc" x="32.116711" y="65.412923" style="fill: #642222"/>
     <use xlink:href="#m4b60c29dcc" x="27.162163" y="64.603188" style="fill: #642222"/>
     <use xlink:href="#m4b60c29dcc" x="31.744071" y="61.914209" style="fill: #642222"/>
     <use xlink:href="#m4b60c29dcc" x="26.445312" y="63.430545" style="fill: #642222"/>
     <use xlink:href="#m4b60c29dcc" x="26.653718" y="61.027234" style="fill: #642222"/>
     <use xlink:href="#m4b60c29dcc" x="27.566218" y="49.767462" style="fill: #642222"/>
     <use xlink:href="#m4b60c29dcc" x="28.583971" y="65.723704" style="fill: #642222"/>
     <use xlink:href="#m4b60c29dcc" x="31.368135" y="65.705409" style="fill: #642222"/>
    </g>
   </g>
   <g id="PathCollection_2">
    <g clip-path="url(#p1ec52ce583)">
     <use xlink:href="#m4b60c29dcc" x="61.501161" y="67.256374" style="fill: #642222"/>
     <use xlink:href="#m4b60c29dcc" x="62.888176" y="67.253632" style="fill: #642222"/>
     <use xlink:href="#m4b60c29dcc" x="65.292133" y="66.623374" style="fill: #642222"/>
     <use xlink:href="#m4b60c29dcc" x="67.745183" y="67.074897" style="fill: #642222"/>
     <use xlink:href="#m4b60c29dcc" x="66.601363" y="67.224872" style="fill: #642222"/>
     <use xlink:href="#m4b60c29dcc" x="62.188394" y="66.328895" style="fill: #642222"/>
     <use xlink:href="#m4b60c29dcc" x="62.395202" y="66.874218" style="fill: #642222"/>
     <use xlink:href="#m4b60c29dcc" x="63.76144" y="67.219148" style="fill: #642222"/>
    </g>
   </g>
  </g>
  <g id="axes_2">
   <g id="patch_5">
    <path d="M 11.673365 159.379526 
L 81.95976 159.379526 
L 81.95976 89.036256 
L 11.673365 89.036256 
z
" style="fill: #ffffff"/>
   </g>
   <g id="matplotlib.axis_3">
    <g id="xtick_3">
     <g id="text_11">
      <!-- T -->
      <g style="fill: #333333" transform="translate(28.176097 166.190229) scale(0.035 -0.035)">
       <defs>
        <path id="Helvetica-54" d="M 3828 4591 
L 3828 4044 
L 2281 4044 
L 2281 0 
L 1650 0 
L 1650 4044 
L 103 4044 
L 103 4591 
L 3828 4591 
z
" transform="scale(0.015625)"/>
       </defs>
       <use xlink:href="#Helvetica-54"/>
      </g>
     </g>
    </g>
    <g id="xtick_4">
     <g id="text_12">
      <!-- TH17 -->
      <g style="fill: #333333" transform="translate(60.109138 166.190229) scale(0.035 -0.035)">
       <defs>
        <path id="Helvetica-48" d="M 503 4591 
L 1131 4591 
L 1131 2694 
L 3519 2694 
L 3519 4591 
L 4147 4591 
L 4147 0 
L 3519 0 
L 3519 2147 
L 1131 2147 
L 1131 0 
L 503 0 
L 503 4591 
z
" transform="scale(0.015625)"/>
       </defs>
       <use xlink:href="#Helvetica-54"/>
       <use xlink:href="#Helvetica-48" x="61.083984"/>
       <use xlink:href="#Helvetica-31" x="133.300781"/>
       <use xlink:href="#Helvetica-37" x="188.916016"/>
      </g>
     </g>
    </g>
   </g>
   <g id="matplotlib.axis_4">
    <g id="ytick_9">
     <g id="line2d_15">
      <g>
       <use xlink:href="#m860d583b2a" x="11.673365" y="152.039632" style="fill: #777777; stroke: #777777; stroke-width: 0.5"/>
      </g>
     </g>
     <g id="text_13">
      <!-- 0 -->
      <g style="fill: #333333" transform="translate(8.005084 153.115648) scale(0.03 -0.03)">
       <use xlink:href="#Helvetica-30"/>
      </g>
     </g>
    </g>
    <g id="ytick_10">
     <g id="line2d_16">
      <g>
       <use xlink:href="#m860d583b2a" x="11.673365" y="141.539069" style="fill: #777777; stroke: #777777; stroke-width: 0.5"/>
      </g>
     </g>
     <g id="text_14">
      <!-- 1000 -->
      <g style="fill: #333333" transform="translate(3.00024 142.615085) scale(0.03 -0.03)">
       <use xlink:href="#Helvetica-31"/>
       <use xlink:href="#Helvetica-30" x="55.615234"/>
       <use xlink:href="#Helvetica-30" x="111.230469"/>
       <use xlink:href="#Helvetica-30" x="166.845703"/>
      </g>
     </g>
    </g>
    <g id="ytick_11">
     <g id="line2d_17">
      <g>
       <use xlink:href="#m860d583b2a" x="11.673365" y="131.038507" style="fill: #777777; stroke: #777777; stroke-width: 0.5"/>
      </g>
     </g>
     <g id="text_15">
      <!-- 2000 -->
      <g style="fill: #333333" transform="translate(3.00024 132.114522) scale(0.03 -0.03)">
       <use xlink:href="#Helvetica-32"/>
       <use xlink:href="#Helvetica-30" x="55.615234"/>
       <use xlink:href="#Helvetica-30" x="111.230469"/>
       <use xlink:href="#Helvetica-30" x="166.845703"/>
      </g>
     </g>
    </g>
    <g id="ytick_12">
     <g id="line2d_18">
      <g>
       <use xlink:href="#m860d583b2a" x="11.673365" y="120.537944" style="fill: #777777; stroke: #777777; stroke-width: 0.5"/>
      </g>
     </g>
     <g id="text_16">
      <!-- 3000 -->
      <g style="fill: #333333" transform="translate(3.00024 121.61396) scale(0.03 -0.03)">
       <use xlink:href="#Helvetica-33"/>
       <use xlink:href="#Helvetica-30" x="55.615234"/>
       <use xlink:href="#Helvetica-30" x="111.230469"/>
       <use xlink:href="#Helvetica-30" x="166.845703"/>
      </g>
     </g>
    </g>
    <g id="ytick_13">
     <g id="line2d_19">
      <g>
       <use xlink:href="#m860d583b2a" x="11.673365" y="110.037381" style="fill: #777777; stroke: #777777; stroke-width: 0.5"/>
      </g>
     </g>
     <g id="text_17">
      <!-- 4000 -->
      <g style="fill: #333333" transform="translate(3.00024 111.113397) scale(0.03 -0.03)">
       <use xlink:href="#Helvetica-34"/>
       <use xlink:href="#Helvetica-30" x="55.615234"/>
       <use xlink:href="#Helvetica-30" x="111.230469"/>
       <use xlink:href="#Helvetica-30" x="166.845703"/>
      </g>
     </g>
    </g>
    <g id="ytick_14">
     <g id="line2d_20">
      <g>
       <use xlink:href="#m860d583b2a" x="11.673365" y="99.536818" style="fill: #777777; stroke: #777777; stroke-width: 0.5"/>
      </g>
     </g>
     <g id="text_18">
      <!-- 5000 -->
      <g style="fill: #333333" transform="translate(3.00024 100.612834) scale(0.03 -0.03)">
       <use xlink:href="#Helvetica-35"/>
       <use xlink:href="#Helvetica-30" x="55.615234"/>
       <use xlink:href="#Helvetica-30" x="111.230469"/>
       <use xlink:href="#Helvetica-30" x="166.845703"/>
      </g>
     </g>
    </g>
    <g id="ytick_15">
     <g id="line2d_21">
      <g>
       <use xlink:href="#m860d583b2a" x="11.673365" y="89.036256" style="fill: #777777; stroke: #777777; stroke-width: 0.5"/>
      </g>
     </g>
     <g id="text_19">
      <!-- 6000 -->
      <g style="fill: #333333" transform="translate(3.00024 90.112271) scale(0.03 -0.03)">
       <use xlink:href="#Helvetica-36"/>
       <use xlink:href="#Helvetica-30" x="55.615234"/>
       <use xlink:href="#Helvetica-30" x="111.230469"/>
       <use xlink:href="#Helvetica-30" x="166.845703"/>
      </g>
     </g>
    </g>
   </g>
   <g id="PolyCollection_3">
    <defs>
     <path id="mff5925f694" d="M 30.133154 -15.927109 
L 28.356773 -15.927109 
L 28.090531 -16.167238 
L 27.76453 -16.407367 
L 27.371711 -16.647496 
L 26.906019 -16.887625 
L 26.362997 -17.127754 
L 25.740412 -17.367883 
L 25.038872 -17.608012 
L 24.262368 -17.848141 
L 23.418704 -18.08827 
L 22.519741 -18.328399 
L 21.581413 -18.568528 
L 20.623479 -18.808657 
L 19.668994 -19.048786 
L 18.743492 -19.288916 
L 17.873927 -19.529045 
L 17.087411 -19.769174 
L 16.409834 -20.009303 
L 15.864452 -20.249432 
L 15.470546 -20.489561 
L 15.242257 -20.72969 
L 15.187685 -20.969819 
L 15.308323 -21.209948 
L 15.598889 -21.450077 
L 16.047552 -21.690206 
L 16.636557 -21.930335 
L 17.343197 -22.170464 
L 18.14106 -22.410593 
L 19.001452 -22.650722 
L 19.894912 -22.890851 
L 20.792695 -23.13098 
L 21.668139 -23.371109 
L 22.497834 -23.611238 
L 23.262523 -23.851368 
L 23.947713 -24.091497 
L 24.543972 -24.331626 
L 25.046928 -24.571755 
L 25.456987 -24.811884 
L 25.778828 -25.052013 
L 26.020711 -25.292142 
L 26.193656 -25.532271 
L 26.310563 -25.7724 
L 26.385298 -26.012529 
L 26.43183 -26.252658 
L 26.46344 -26.492787 
L 26.492045 -26.732916 
L 26.52767 -26.973045 
L 26.578085 -27.213174 
L 26.648616 -27.453303 
L 26.742124 -27.693432 
L 26.859142 -27.933561 
L 26.998148 -28.17369 
L 27.155929 -28.41382 
L 27.328017 -28.653949 
L 27.509142 -28.894078 
L 27.693671 -29.134207 
L 27.875996 -29.374336 
L 28.050853 -29.614465 
L 28.213551 -29.854594 
L 28.360107 -30.094723 
L 28.4873 -30.334852 
L 28.592649 -30.574981 
L 28.674342 -30.81511 
L 28.731139 -31.055239 
L 28.762266 -31.295368 
L 28.767335 -31.535497 
L 28.74629 -31.775626 
L 28.699401 -32.015755 
L 28.627304 -32.255884 
L 28.531076 -32.496013 
L 28.412339 -32.736143 
L 28.273373 -32.976272 
L 28.117213 -33.216401 
L 27.947706 -33.45653 
L 27.76952 -33.696659 
L 27.588064 -33.936788 
L 27.409346 -34.176917 
L 27.239736 -34.417046 
L 27.085668 -34.657175 
L 26.9533 -34.897304 
L 26.848144 -35.137433 
L 26.774728 -35.377562 
L 26.736287 -35.617691 
L 26.734552 -35.85782 
L 26.769631 -36.097949 
L 26.840007 -36.338078 
L 26.942651 -36.578207 
L 27.073246 -36.818336 
L 27.226486 -37.058465 
L 27.396437 -37.298595 
L 27.576916 -37.538724 
L 27.76186 -37.778853 
L 27.945645 -38.018982 
L 28.123358 -38.259111 
L 28.29097 -38.49924 
L 28.445441 -38.739369 
L 28.584731 -38.979498 
L 28.707754 -39.219627 
L 28.814267 -39.459756 
L 28.904729 -39.699885 
L 29.585199 -39.699885 
L 29.585199 -39.699885 
L 29.67566 -39.459756 
L 29.782174 -39.219627 
L 29.905197 -38.979498 
L 30.044487 -38.739369 
L 30.198957 -38.49924 
L 30.366569 -38.259111 
L 30.544282 -38.018982 
L 30.728068 -37.778853 
L 30.913011 -37.538724 
L 31.093491 -37.298595 
L 31.263442 -37.058465 
L 31.416682 -36.818336 
L 31.547276 -36.578207 
L 31.64992 -36.338078 
L 31.720296 -36.097949 
L 31.755375 -35.85782 
L 31.753641 -35.617691 
L 31.7152 -35.377562 
L 31.641783 -35.137433 
L 31.536628 -34.897304 
L 31.404259 -34.657175 
L 31.250192 -34.417046 
L 31.080581 -34.176917 
L 30.901863 -33.936788 
L 30.720408 -33.696659 
L 30.542221 -33.45653 
L 30.372715 -33.216401 
L 30.216554 -32.976272 
L 30.077588 -32.736143 
L 29.958851 -32.496013 
L 29.862623 -32.255884 
L 29.790526 -32.015755 
L 29.743638 -31.775626 
L 29.722593 -31.535497 
L 29.727662 -31.295368 
L 29.758789 -31.055239 
L 29.815585 -30.81511 
L 29.897279 -30.574981 
L 30.002628 -30.334852 
L 30.129821 -30.094723 
L 30.276377 -29.854594 
L 30.439074 -29.614465 
L 30.613932 -29.374336 
L 30.796257 -29.134207 
L 30.980786 -28.894078 
L 31.161911 -28.653949 
L 31.333999 -28.41382 
L 31.49178 -28.17369 
L 31.630785 -27.933561 
L 31.747804 -27.693432 
L 31.841312 -27.453303 
L 31.911843 -27.213174 
L 31.962258 -26.973045 
L 31.997883 -26.732916 
L 32.026487 -26.492787 
L 32.058097 -26.252658 
L 32.10463 -26.012529 
L 32.179365 -25.7724 
L 32.296271 -25.532271 
L 32.469217 -25.292142 
L 32.711099 -25.052013 
L 33.03294 -24.811884 
L 33.442999 -24.571755 
L 33.945955 -24.331626 
L 34.542215 -24.091497 
L 35.227405 -23.851368 
L 35.992094 -23.611238 
L 36.821788 -23.371109 
L 37.697233 -23.13098 
L 38.595016 -22.890851 
L 39.488476 -22.650722 
L 40.348868 -22.410593 
L 41.14673 -22.170464 
L 41.853371 -21.930335 
L 42.442376 -21.690206 
L 42.891038 -21.450077 
L 43.181604 -21.209948 
L 43.302243 -20.969819 
L 43.24767 -20.72969 
L 43.019381 -20.489561 
L 42.625475 -20.249432 
L 42.080093 -20.009303 
L 41.402516 -19.769174 
L 40.616001 -19.529045 
L 39.746435 -19.288916 
L 38.820933 -19.048786 
L 37.866448 -18.808657 
L 36.908515 -18.568528 
L 35.970186 -18.328399 
L 35.071223 -18.08827 
L 34.22756 -17.848141 
L 33.451056 -17.608012 
L 32.749516 -17.367883 
L 32.126931 -17.127754 
L 31.583908 -16.887625 
L 31.118216 -16.647496 
L 30.725397 -16.407367 
L 30.399396 -16.167238 
L 30.133154 -15.927109 
z
" style="stroke: #505050; stroke-width: 0.15"/>
    </defs>
    <g clip-path="url(#pf8768a6fe9)">
     <use xlink:href="#mff5925f694" x="0" y="169.92" style="fill: #bbba94; stroke: #505050; stroke-width: 0.15"/>
    </g>
   </g>
   <g id="PolyCollection_4">
    <defs>
     <path id="m4e0c630124" d="M 64.971189 -17.729656 
L 63.805134 -17.729656 
L 63.624066 -17.742236 
L 63.402521 -17.754816 
L 63.136589 -17.767396 
L 62.823501 -17.779977 
L 62.462062 -17.792557 
L 62.053031 -17.805137 
L 61.599423 -17.817717 
L 61.10664 -17.830297 
L 60.582423 -17.842877 
L 60.036577 -17.855458 
L 59.480458 -17.868038 
L 58.926262 -17.880618 
L 58.386135 -17.893198 
L 57.871213 -17.905778 
L 57.390659 -17.918359 
L 56.950817 -17.930939 
L 56.55459 -17.943519 
L 56.201113 -17.956099 
L 55.885798 -17.968679 
L 55.60075 -17.981259 
L 55.335553 -17.99384 
L 55.078324 -18.00642 
L 54.816968 -18.019 
L 54.540468 -18.03158 
L 54.240101 -18.04416 
L 53.910428 -18.056741 
L 53.54997 -18.069321 
L 53.161495 -18.081901 
L 52.751906 -18.094481 
L 52.331755 -18.107061 
L 51.91446 -18.119641 
L 51.51532 -18.132222 
L 51.150452 -18.144802 
L 50.83576 -18.157382 
L 50.586027 -18.169962 
L 50.4142 -18.182542 
L 50.330882 -18.195123 
L 50.344043 -18.207703 
L 50.458887 -18.220283 
L 50.677853 -18.232863 
L 51.00067 -18.245443 
L 51.424442 -18.258023 
L 51.943738 -18.270604 
L 52.55068 -18.283184 
L 53.235064 -18.295764 
L 53.984535 -18.308344 
L 54.784868 -18.320924 
L 55.620365 -18.333505 
L 56.474391 -18.346085 
L 57.330011 -18.358665 
L 58.170714 -18.371245 
L 58.981137 -18.383825 
L 59.747738 -18.396405 
L 60.45934 -18.408986 
L 61.107511 -18.421566 
L 61.686719 -18.434146 
L 62.194279 -18.446726 
L 62.630103 -18.459306 
L 62.996271 -18.471887 
L 63.29651 -18.484467 
L 63.535607 -18.497047 
L 63.718831 -18.509627 
L 63.851411 -18.522207 
L 63.938116 -18.534788 
L 63.98295 -18.547368 
L 63.989004 -18.559948 
L 63.958446 -18.572528 
L 63.892653 -18.585108 
L 63.792471 -18.597688 
L 63.658566 -18.610269 
L 63.49185 -18.622849 
L 63.293921 -18.635429 
L 63.06748 -18.648009 
L 62.816673 -18.660589 
L 62.547312 -18.67317 
L 62.266922 -18.68575 
L 61.984605 -18.69833 
L 61.710698 -18.71091 
L 61.456246 -18.72349 
L 61.232325 -18.73607 
L 61.049285 -18.748651 
L 60.915977 -18.761231 
L 60.83906 -18.773811 
L 60.822454 -18.786391 
L 60.867019 -18.798971 
L 60.970479 -18.811552 
L 61.127619 -18.824132 
L 61.330721 -18.836712 
L 61.570195 -18.849292 
L 61.835322 -18.861872 
L 62.115049 -18.874452 
L 62.398734 -18.887033 
L 62.676787 -18.899613 
L 62.941151 -18.912193 
L 63.185598 -18.924773 
L 63.405839 -18.937353 
L 63.599464 -18.949934 
L 63.765752 -18.962514 
L 63.905379 -18.975094 
L 64.870943 -18.975094 
L 64.870943 -18.975094 
L 65.01057 -18.962514 
L 65.176858 -18.949934 
L 65.370484 -18.937353 
L 65.590725 -18.924773 
L 65.835171 -18.912193 
L 66.099535 -18.899613 
L 66.377588 -18.887033 
L 66.661273 -18.874452 
L 66.941 -18.861872 
L 67.206127 -18.849292 
L 67.445601 -18.836712 
L 67.648704 -18.824132 
L 67.805844 -18.811552 
L 67.909303 -18.798971 
L 67.953868 -18.786391 
L 67.937262 -18.773811 
L 67.860345 -18.761231 
L 67.727037 -18.748651 
L 67.543997 -18.73607 
L 67.320076 -18.72349 
L 67.065624 -18.71091 
L 66.791718 -18.69833 
L 66.509401 -18.68575 
L 66.229011 -18.67317 
L 65.959649 -18.660589 
L 65.708843 -18.648009 
L 65.482402 -18.635429 
L 65.284473 -18.622849 
L 65.117757 -18.610269 
L 64.983852 -18.597688 
L 64.883669 -18.585108 
L 64.817876 -18.572528 
L 64.787318 -18.559948 
L 64.793373 -18.547368 
L 64.838207 -18.534788 
L 64.924911 -18.522207 
L 65.057492 -18.509627 
L 65.240716 -18.497047 
L 65.479813 -18.484467 
L 65.780052 -18.471887 
L 66.14622 -18.459306 
L 66.582043 -18.446726 
L 67.089604 -18.434146 
L 67.668812 -18.421566 
L 68.316982 -18.408986 
L 69.028585 -18.396405 
L 69.795185 -18.383825 
L 70.605608 -18.371245 
L 71.446312 -18.358665 
L 72.301932 -18.346085 
L 73.155957 -18.333505 
L 73.991454 -18.320924 
L 74.791787 -18.308344 
L 75.541258 -18.295764 
L 76.225642 -18.283184 
L 76.832585 -18.270604 
L 77.351881 -18.258023 
L 77.775653 -18.245443 
L 78.098469 -18.232863 
L 78.317435 -18.220283 
L 78.43228 -18.207703 
L 78.44544 -18.195123 
L 78.362123 -18.182542 
L 78.190295 -18.169962 
L 77.940563 -18.157382 
L 77.62587 -18.144802 
L 77.261002 -18.132222 
L 76.861862 -18.119641 
L 76.444567 -18.107061 
L 76.024417 -18.094481 
L 75.614827 -18.081901 
L 75.226352 -18.069321 
L 74.865894 -18.056741 
L 74.536221 -18.04416 
L 74.235855 -18.03158 
L 73.959355 -18.019 
L 73.697998 -18.00642 
L 73.44077 -17.99384 
L 73.175572 -17.981259 
L 72.890525 -17.968679 
L 72.575209 -17.956099 
L 72.221733 -17.943519 
L 71.825505 -17.930939 
L 71.385664 -17.918359 
L 70.905109 -17.905778 
L 70.390187 -17.893198 
L 69.850061 -17.880618 
L 69.295864 -17.868038 
L 68.739746 -17.855458 
L 68.1939 -17.842877 
L 67.669683 -17.830297 
L 67.1769 -17.817717 
L 66.723291 -17.805137 
L 66.314261 -17.792557 
L 65.952821 -17.779977 
L 65.639734 -17.767396 
L 65.373802 -17.754816 
L 65.152256 -17.742236 
L 64.971189 -17.729656 
z
" style="stroke: #505050; stroke-width: 0.15"/>
    </defs>
    <g clip-path="url(#pf8768a6fe9)">
     <use xlink:href="#m4e0c630124" x="0" y="169.92" style="fill: #c447c3; stroke: #505050; stroke-width: 0.15"/>
    </g>
   </g>
   <g id="line2d_22">
    <path d="M 29.244964 150.042708 
L 29.244964 146.820354 
" clip-path="url(#pf8768a6fe9)" style="fill: none; stroke: #8c8c8c; stroke-width: 0.75; stroke-linecap: round"/>
   </g>
   <g id="line2d_23">
    <path d="M 29.244964 149.433104 
L 29.244964 146.820354 
" clip-path="url(#pf8768a6fe9)" style="fill: none; stroke: #8c8c8c; stroke-width: 4; stroke-linecap: round"/>
   </g>
   <g id="line2d_24">
    <path d="M 29.244964 148.367767 
" clip-path="url(#pf8768a6fe9)" style="fill: none; stroke: #505050; stroke-width: 1.2; stroke-linecap: round"/>
    <g clip-path="url(#pf8768a6fe9)">
     <use xlink:href="#me32723566e" x="29.244964" y="148.367767" style="fill: #ffffff; stroke: #ffffff; stroke-width: 0.8"/>
    </g>
   </g>
   <g id="line2d_25">
    <path d="M 64.388161 151.99876 
L 64.388161 151.610575 
" clip-path="url(#pf8768a6fe9)" style="fill: none; stroke: #8c8c8c; stroke-width: 0.75; stroke-linecap: round"/>
   </g>
   <g id="line2d_26">
    <path d="M 64.388161 151.841482 
L 64.388161 151.635214 
" clip-path="url(#pf8768a6fe9)" style="fill: none; stroke: #8c8c8c; stroke-width: 4; stroke-linecap: round"/>
   </g>
   <g id="line2d_27">
    <path d="M 64.388161 151.737152 
" clip-path="url(#pf8768a6fe9)" style="fill: none; stroke: #505050; stroke-width: 1.2; stroke-linecap: round"/>
    <g clip-path="url(#pf8768a6fe9)">
     <use xlink:href="#me32723566e" x="64.388161" y="151.737152" style="fill: #ffffff; stroke: #ffffff; stroke-width: 0.8"/>
    </g>
   </g>
   <g id="patch_6">
    <path d="M 11.673365 159.379526 
L 11.673365 89.036256 
" style="fill: none; stroke: #777777; stroke-width: 0.5; stroke-linejoin: miter; stroke-linecap: square"/>
   </g>
   <g id="patch_7">
    <path d="M 11.673365 161.879526 
L 81.95976 161.879526 
" style="fill: none; stroke: #777777; stroke-width: 0.5; stroke-linejoin: miter; stroke-linecap: square"/>
   </g>
   <g id="PathCollection_3">
    <g clip-path="url(#pf8768a6fe9)">
     <use xlink:href="#m4b60c29dcc" x="28.818878" y="148.178444" style="fill: #642222"/>
     <use xlink:href="#m4b60c29dcc" x="29.757636" y="150.042708" style="fill: #642222"/>
     <use xlink:href="#m4b60c29dcc" x="30.555115" y="149.85186" style="fill: #642222"/>
     <use xlink:href="#m4b60c29dcc" x="29.373358" y="148.441985" style="fill: #642222"/>
     <use xlink:href="#m4b60c29dcc" x="28.63486" y="134.170298" style="fill: #642222"/>
     <use xlink:href="#m4b60c29dcc" x="29.749428" y="142.746084" style="fill: #642222"/>
     <use xlink:href="#m4b60c29dcc" x="31.727398" y="148.29355" style="fill: #642222"/>
     <use xlink:href="#m4b60c29dcc" x="26.072755" y="149.293519" style="fill: #642222"/>
    </g>
   </g>
   <g id="PathCollection_4">
    <g clip-path="url(#pf8768a6fe9)">
     <use xlink:href="#m4b60c29dcc" x="66.386833" y="151.99876" style="fill: #642222"/>
     <use xlink:href="#m4b60c29dcc" x="63.031868" y="151.933772" style="fill: #642222"/>
     <use xlink:href="#m4b60c29dcc" x="62.144851" y="151.727808" style="fill: #642222"/>
     <use xlink:href="#m4b60c29dcc" x="63.188384" y="151.610575" style="fill: #642222"/>
     <use xlink:href="#m4b60c29dcc" x="62.878445" y="151.136491" style="fill: #642222"/>
     <use xlink:href="#m4b60c29dcc" x="62.627116" y="151.643427" style="fill: #642222"/>
     <use xlink:href="#m4b60c29dcc" x="64.720054" y="151.810719" style="fill: #642222"/>
     <use xlink:href="#m4b60c29dcc" x="67.49224" y="151.746497" style="fill: #642222"/>
    </g>
   </g>
  </g>
 </g>
 <defs>
  <clipPath id="p1ec52ce583">
   <rect x="11.673365" y="4.076256" width="70.286395" height="70.34327"/>
  </clipPath>
  <clipPath id="pf8768a6fe9">
   <rect x="11.673365" y="89.036256" width="70.286395" height="70.34327"/>
  </clipPath>
 </defs>
</svg>
