<?xml version="1.0" encoding="utf-8" standalone="no"?>
<!DOCTYPE svg PUBLIC "-//W3C//DTD SVG 1.1//EN"
  "http://www.w3.org/Graphics/SVG/1.1/DTD/svg11.dtd">
<svg xmlns:xlink="http://www.w3.org/1999/xlink" width="56.16pt" height="84.96pt" viewBox="0 0 56.16 84.96" xmlns="http://www.w3.org/2000/svg" version="1.1">
 <metadata>
  <rdf:RDF xmlns:dc="http://purl.org/dc/elements/1.1/" xmlns:cc="http://creativecommons.org/ns#" xmlns:rdf="http://www.w3.org/1999/02/22-rdf-syntax-ns#">
   <cc:Work>
    <dc:type rdf:resource="http://purl.org/dc/dcmitype/StillImage"/>
    <dc:date>2024-05-27T15:37:04.265854</dc:date>
    <dc:format>image/svg+xml</dc:format>
    <dc:creator>
     <cc:Agent>
      <dc:title>Matplotlib v3.8.3, https://matplotlib.org/</dc:title>
     </cc:Agent>
    </dc:creator>
   </cc:Work>
  </rdf:RDF>
 </metadata>
 <defs>
  <style type="text/css">*{stroke-linejoin: round; stroke-linecap: butt}</style>
 </defs>
 <g id="figure_1">
  <g id="patch_1">
   <path d="M 0 84.96 
L 56.16 84.96 
L 56.16 0 
L 0 0 
z
" style="fill: #ffffff"/>
  </g>
  <g id="axes_1">
   <g id="patch_2">
    <path d="M 8.336802 74.419526 
L 53.15976 74.419526 
L 53.15976 4.076256 
L 8.336802 4.076256 
z
" style="fill: #ffffff"/>
   </g>
   <g id="matplotlib.axis_1">
    <g id="xtick_1">
     <g id="text_1">
      <!-- ILC3 -->
      <g style="fill: #333333" transform="translate(15.846214 81.230229) scale(0.035 -0.035)">
       <defs>
        <path id="Helvetica-49" d="M 628 4591 
L 1256 4591 
L 1256 0 
L 628 0 
L 628 4591 
z
" transform="scale(0.015625)"/>
        <path id="Helvetica-4c" d="M 488 4591 
L 1109 4591 
L 1109 547 
L 3434 547 
L 3434 0 
L 488 0 
L 488 4591 
z
" transform="scale(0.015625)"/>
        <path id="Helvetica-43" d="M 2422 4716 
Q 3294 4716 3775 4256 
Q 4256 3797 4309 3213 
L 3703 3213 
Q 3600 3656 3292 3915 
Q 2984 4175 2428 4175 
Q 1750 4175 1333 3698 
Q 916 3222 916 2238 
Q 916 1431 1292 929 
Q 1669 428 2416 428 
Q 3103 428 3463 956 
Q 3653 1234 3747 1688 
L 4353 1688 
Q 4272 963 3816 472 
Q 3269 -119 2341 -119 
Q 1541 -119 997 366 
Q 281 1006 281 2344 
Q 281 3359 819 4009 
Q 1400 4716 2422 4716 
z
M 2297 4716 
L 2297 4716 
z
" transform="scale(0.015625)"/>
        <path id="Helvetica-33" d="M 1663 -122 
Q 869 -122 511 314 
Q 153 750 153 1375 
L 741 1375 
Q 778 941 903 744 
Q 1122 391 1694 391 
Q 2138 391 2406 628 
Q 2675 866 2675 1241 
Q 2675 1703 2392 1887 
Q 2109 2072 1606 2072 
Q 1550 2072 1492 2070 
Q 1434 2069 1375 2066 
L 1375 2563 
Q 1463 2553 1522 2550 
Q 1581 2547 1650 2547 
Q 1966 2547 2169 2647 
Q 2525 2822 2525 3272 
Q 2525 3606 2287 3787 
Q 2050 3969 1734 3969 
Q 1172 3969 956 3594 
Q 838 3388 822 3006 
L 266 3006 
Q 266 3506 466 3856 
Q 809 4481 1675 4481 
Q 2359 4481 2734 4176 
Q 3109 3872 3109 3294 
Q 3109 2881 2888 2625 
Q 2750 2466 2531 2375 
Q 2884 2278 3082 2001 
Q 3281 1725 3281 1325 
Q 3281 684 2859 281 
Q 2438 -122 1663 -122 
z
" transform="scale(0.015625)"/>
       </defs>
       <use xlink:href="#Helvetica-49"/>
       <use xlink:href="#Helvetica-4c" x="27.783203"/>
       <use xlink:href="#Helvetica-43" x="83.398438"/>
       <use xlink:href="#Helvetica-33" x="155.615234"/>
      </g>
     </g>
    </g>
    <g id="xtick_2">
     <g id="text_2">
      <!-- TH17 -->
      <g style="fill: #333333" transform="translate(37.674997 81.230229) scale(0.035 -0.035)">
       <defs>
        <path id="Helvetica-54" d="M 3828 4591 
L 3828 4044 
L 2281 4044 
L 2281 0 
L 1650 0 
L 1650 4044 
L 103 4044 
L 103 4591 
L 3828 4591 
z
" transform="scale(0.015625)"/>
        <path id="Helvetica-48" d="M 503 4591 
L 1131 4591 
L 1131 2694 
L 3519 2694 
L 3519 4591 
L 4147 4591 
L 4147 0 
L 3519 0 
L 3519 2147 
L 1131 2147 
L 1131 0 
L 503 0 
L 503 4591 
z
" transform="scale(0.015625)"/>
        <path id="Helvetica-31" d="M 613 3169 
L 613 3600 
Q 1222 3659 1462 3798 
Q 1703 3938 1822 4456 
L 2266 4456 
L 2266 0 
L 1666 0 
L 1666 3169 
L 613 3169 
z
" transform="scale(0.015625)"/>
        <path id="Helvetica-37" d="M 3347 4400 
L 3347 3909 
Q 3131 3700 2773 3181 
Q 2416 2663 2141 2063 
Q 1869 1478 1728 997 
Q 1638 688 1494 0 
L 872 0 
Q 1084 1281 1809 2550 
Q 2238 3294 2709 3834 
L 234 3834 
L 234 4400 
L 3347 4400 
z
" transform="scale(0.015625)"/>
       </defs>
       <use xlink:href="#Helvetica-54"/>
       <use xlink:href="#Helvetica-48" x="61.083984"/>
       <use xlink:href="#Helvetica-31" x="133.300781"/>
       <use xlink:href="#Helvetica-37" x="188.916016"/>
      </g>
     </g>
    </g>
   </g>
   <g id="matplotlib.axis_2">
    <g id="ytick_1">
     <g id="line2d_1">
      <defs>
       <path id="m2c6993c661" d="M 0 0 
L -1 0 
" style="stroke: #777777; stroke-width: 0.5"/>
      </defs>
      <g>
       <use xlink:href="#m2c6993c661" x="8.336802" y="66.995102" style="fill: #777777; stroke: #777777; stroke-width: 0.5"/>
      </g>
     </g>
     <g id="text_3">
      <!-- 0 -->
      <g style="fill: #333333" transform="translate(4.668521 68.071117) scale(0.03 -0.03)">
       <defs>
        <path id="Helvetica-30" d="M 1731 4475 
Q 2600 4475 2988 3759 
Q 3288 3206 3288 2244 
Q 3288 1331 3016 734 
Q 2622 -122 1728 -122 
Q 922 -122 528 578 
Q 200 1163 200 2147 
Q 200 2909 397 3456 
Q 766 4475 1731 4475 
z
M 1725 391 
Q 2163 391 2422 778 
Q 2681 1166 2681 2222 
Q 2681 2984 2493 3476 
Q 2306 3969 1766 3969 
Q 1269 3969 1039 3501 
Q 809 3034 809 2125 
Q 809 1441 956 1025 
Q 1181 391 1725 391 
z
" transform="scale(0.015625)"/>
       </defs>
       <use xlink:href="#Helvetica-30"/>
      </g>
     </g>
    </g>
    <g id="ytick_2">
     <g id="line2d_2">
      <g>
       <use xlink:href="#m2c6993c661" x="8.336802" y="54.411333" style="fill: #777777; stroke: #777777; stroke-width: 0.5"/>
      </g>
     </g>
     <g id="text_4">
      <!-- 10 -->
      <g style="fill: #333333" transform="translate(3.00024 55.487348) scale(0.03 -0.03)">
       <use xlink:href="#Helvetica-31"/>
       <use xlink:href="#Helvetica-30" x="55.615234"/>
      </g>
     </g>
    </g>
    <g id="ytick_3">
     <g id="line2d_3">
      <g>
       <use xlink:href="#m2c6993c661" x="8.336802" y="41.827563" style="fill: #777777; stroke: #777777; stroke-width: 0.5"/>
      </g>
     </g>
     <g id="text_5">
      <!-- 20 -->
      <g style="fill: #333333" transform="translate(3.00024 42.903579) scale(0.03 -0.03)">
       <defs>
        <path id="Helvetica-32" d="M 200 0 
Q 231 578 439 1006 
Q 647 1434 1250 1784 
L 1850 2131 
Q 2253 2366 2416 2531 
Q 2672 2791 2672 3125 
Q 2672 3516 2437 3745 
Q 2203 3975 1813 3975 
Q 1234 3975 1013 3538 
Q 894 3303 881 2888 
L 309 2888 
Q 319 3472 525 3841 
Q 891 4491 1816 4491 
Q 2584 4491 2939 4075 
Q 3294 3659 3294 3150 
Q 3294 2613 2916 2231 
Q 2697 2009 2131 1694 
L 1703 1456 
Q 1397 1288 1222 1134 
Q 909 863 828 531 
L 3272 531 
L 3272 0 
L 200 0 
z
" transform="scale(0.015625)"/>
       </defs>
       <use xlink:href="#Helvetica-32"/>
       <use xlink:href="#Helvetica-30" x="55.615234"/>
      </g>
     </g>
    </g>
    <g id="ytick_4">
     <g id="line2d_4">
      <g>
       <use xlink:href="#m2c6993c661" x="8.336802" y="29.243794" style="fill: #777777; stroke: #777777; stroke-width: 0.5"/>
      </g>
     </g>
     <g id="text_6">
      <!-- 30 -->
      <g style="fill: #333333" transform="translate(3.00024 30.31981) scale(0.03 -0.03)">
       <use xlink:href="#Helvetica-33"/>
       <use xlink:href="#Helvetica-30" x="55.615234"/>
      </g>
     </g>
    </g>
    <g id="ytick_5">
     <g id="line2d_5">
      <g>
       <use xlink:href="#m2c6993c661" x="8.336802" y="16.660025" style="fill: #777777; stroke: #777777; stroke-width: 0.5"/>
      </g>
     </g>
     <g id="text_7">
      <!-- 40 -->
      <g style="fill: #333333" transform="translate(3.00024 17.73604) scale(0.03 -0.03)">
       <defs>
        <path id="Helvetica-34" d="M 2116 1584 
L 2116 3613 
L 681 1584 
L 2116 1584 
z
M 2125 0 
L 2125 1094 
L 163 1094 
L 163 1644 
L 2213 4488 
L 2688 4488 
L 2688 1584 
L 3347 1584 
L 3347 1094 
L 2688 1094 
L 2688 0 
L 2125 0 
z
" transform="scale(0.015625)"/>
       </defs>
       <use xlink:href="#Helvetica-34"/>
       <use xlink:href="#Helvetica-30" x="55.615234"/>
      </g>
     </g>
    </g>
    <g id="ytick_6">
     <g id="line2d_6">
      <g>
       <use xlink:href="#m2c6993c661" x="8.336802" y="4.076256" style="fill: #777777; stroke: #777777; stroke-width: 0.5"/>
      </g>
     </g>
     <g id="text_8">
      <!-- 50 -->
      <g style="fill: #333333" transform="translate(3.00024 5.152271) scale(0.03 -0.03)">
       <defs>
        <path id="Helvetica-35" d="M 791 1141 
Q 847 659 1238 475 
Q 1438 381 1700 381 
Q 2200 381 2440 700 
Q 2681 1019 2681 1406 
Q 2681 1875 2395 2131 
Q 2109 2388 1709 2388 
Q 1419 2388 1211 2275 
Q 1003 2163 856 1963 
L 369 1991 
L 709 4400 
L 3034 4400 
L 3034 3856 
L 1131 3856 
L 941 2613 
Q 1097 2731 1238 2791 
Q 1488 2894 1816 2894 
Q 2431 2894 2859 2497 
Q 3288 2100 3288 1491 
Q 3288 856 2895 371 
Q 2503 -113 1644 -113 
Q 1097 -113 676 195 
Q 256 503 206 1141 
L 791 1141 
z
" transform="scale(0.015625)"/>
       </defs>
       <use xlink:href="#Helvetica-35"/>
       <use xlink:href="#Helvetica-30" x="55.615234"/>
      </g>
     </g>
    </g>
   </g>
   <g id="PolyCollection_1">
    <defs>
     <path id="m1f9d5714cc" d="M 21.15059 -17.917753 
L 17.934493 -17.917753 
L 17.651483 -17.93924 
L 17.339173 -17.960726 
L 16.998724 -17.982213 
L 16.632171 -18.003699 
L 16.242441 -18.025186 
L 15.833316 -18.046672 
L 15.409347 -18.068159 
L 14.975733 -18.089646 
L 14.538141 -18.111132 
L 14.102503 -18.132619 
L 13.674793 -18.154105 
L 13.260788 -18.175592 
L 12.865855 -18.197078 
L 12.494753 -18.218565 
L 12.151484 -18.240051 
L 11.839203 -18.261538 
L 11.56018 -18.283024 
L 11.315837 -18.304511 
L 11.106839 -18.325998 
L 10.933235 -18.347484 
L 10.794642 -18.368971 
L 10.690428 -18.390457 
L 10.619914 -18.411944 
L 10.582532 -18.43343 
L 10.57795 -18.454917 
L 10.606148 -18.476403 
L 10.667418 -18.49789 
L 10.762311 -18.519376 
L 10.891526 -18.540863 
L 11.05575 -18.56235 
L 11.25547 -18.583836 
L 11.490777 -18.605323 
L 11.761183 -18.626809 
L 12.065463 -18.648296 
L 12.401552 -18.669782 
L 12.766492 -18.691269 
L 13.156449 -18.712755 
L 13.566788 -18.734242 
L 13.992213 -18.755728 
L 14.426947 -18.777215 
L 14.864944 -18.798701 
L 15.300118 -18.820188 
L 15.726572 -18.841675 
L 16.138797 -18.863161 
L 16.531856 -18.884648 
L 16.901508 -18.906134 
L 17.244299 -18.927621 
L 17.557594 -18.949107 
L 17.839565 -18.970594 
L 18.089136 -18.99208 
L 18.305897 -19.013567 
L 18.48999 -19.035053 
L 18.641986 -19.05654 
L 18.762759 -19.078027 
L 18.853366 -19.099513 
L 18.914944 -19.121 
L 18.948628 -19.142486 
L 18.955495 -19.163973 
L 18.936541 -19.185459 
L 18.892678 -19.206946 
L 18.824766 -19.228432 
L 18.733661 -19.249919 
L 18.620287 -19.271405 
L 18.485714 -19.292892 
L 18.331243 -19.314378 
L 18.158489 -19.335865 
L 17.969449 -19.357352 
L 17.766559 -19.378838 
L 17.552727 -19.400325 
L 17.331329 -19.421811 
L 17.10619 -19.443298 
L 16.881518 -19.464784 
L 16.661818 -19.486271 
L 16.451771 -19.507757 
L 16.256093 -19.529244 
L 16.07938 -19.55073 
L 15.925938 -19.572217 
L 15.799626 -19.593704 
L 15.703699 -19.61519 
L 15.640675 -19.636677 
L 15.612232 -19.658163 
L 15.619134 -19.67965 
L 15.661204 -19.701136 
L 15.737326 -19.722623 
L 15.8455 -19.744109 
L 15.982927 -19.765596 
L 16.146125 -19.787082 
L 16.331082 -19.808569 
L 16.533408 -19.830056 
L 16.748515 -19.851542 
L 16.97178 -19.873029 
L 17.198711 -19.894515 
L 17.425085 -19.916002 
L 17.647074 -19.937488 
L 17.861333 -19.958975 
L 18.065072 -19.980461 
L 18.256083 -20.001948 
L 18.432749 -20.023434 
L 18.594026 -20.044921 
L 20.491058 -20.044921 
L 20.491058 -20.044921 
L 20.652335 -20.023434 
L 20.829001 -20.001948 
L 21.020012 -19.980461 
L 21.22375 -19.958975 
L 21.43801 -19.937488 
L 21.659999 -19.916002 
L 21.886373 -19.894515 
L 22.113303 -19.873029 
L 22.336569 -19.851542 
L 22.551676 -19.830056 
L 22.754002 -19.808569 
L 22.938958 -19.787082 
L 23.102157 -19.765596 
L 23.239583 -19.744109 
L 23.347758 -19.722623 
L 23.42388 -19.701136 
L 23.465949 -19.67965 
L 23.472852 -19.658163 
L 23.444409 -19.636677 
L 23.381385 -19.61519 
L 23.285458 -19.593704 
L 23.159146 -19.572217 
L 23.005704 -19.55073 
L 22.82899 -19.529244 
L 22.633313 -19.507757 
L 22.423266 -19.486271 
L 22.203566 -19.464784 
L 21.978894 -19.443298 
L 21.753755 -19.421811 
L 21.532357 -19.400325 
L 21.318524 -19.378838 
L 21.115635 -19.357352 
L 20.926595 -19.335865 
L 20.75384 -19.314378 
L 20.59937 -19.292892 
L 20.464797 -19.271405 
L 20.351423 -19.249919 
L 20.260318 -19.228432 
L 20.192406 -19.206946 
L 20.148543 -19.185459 
L 20.129589 -19.163973 
L 20.136456 -19.142486 
L 20.17014 -19.121 
L 20.231717 -19.099513 
L 20.322325 -19.078027 
L 20.443098 -19.05654 
L 20.595094 -19.035053 
L 20.779186 -19.013567 
L 20.995947 -18.99208 
L 21.245519 -18.970594 
L 21.52749 -18.949107 
L 21.840785 -18.927621 
L 22.183576 -18.906134 
L 22.553228 -18.884648 
L 22.946286 -18.863161 
L 23.358512 -18.841675 
L 23.784965 -18.820188 
L 24.22014 -18.798701 
L 24.658137 -18.777215 
L 25.092871 -18.755728 
L 25.518296 -18.734242 
L 25.928635 -18.712755 
L 26.318592 -18.691269 
L 26.683532 -18.669782 
L 27.019621 -18.648296 
L 27.323901 -18.626809 
L 27.594307 -18.605323 
L 27.829614 -18.583836 
L 28.029333 -18.56235 
L 28.193557 -18.540863 
L 28.322773 -18.519376 
L 28.417666 -18.49789 
L 28.478936 -18.476403 
L 28.507133 -18.454917 
L 28.502552 -18.43343 
L 28.465169 -18.411944 
L 28.394655 -18.390457 
L 28.290442 -18.368971 
L 28.151848 -18.347484 
L 27.978245 -18.325998 
L 27.769247 -18.304511 
L 27.524904 -18.283024 
L 27.245881 -18.261538 
L 26.933599 -18.240051 
L 26.590331 -18.218565 
L 26.219229 -18.197078 
L 25.824296 -18.175592 
L 25.410291 -18.154105 
L 24.982581 -18.132619 
L 24.546943 -18.111132 
L 24.109351 -18.089646 
L 23.675737 -18.068159 
L 23.251768 -18.046672 
L 22.842642 -18.025186 
L 22.452913 -18.003699 
L 22.08636 -17.982213 
L 21.745911 -17.960726 
L 21.433601 -17.93924 
L 21.15059 -17.917753 
z
" style="stroke: #7c7c7c; stroke-width: 0.15"/>
    </defs>
    <g clip-path="url(#p2366813dc3)">
     <use xlink:href="#m1f9d5714cc" x="0" y="84.96" style="fill: #cfcfcf; stroke: #7c7c7c; stroke-width: 0.15"/>
    </g>
   </g>
   <g id="PolyCollection_2">
    <defs>
     <path id="m5bfda94d09" d="M 43.803271 -17.769068 
L 40.10477 -17.769068 
L 39.825141 -17.785824 
L 39.524842 -17.80258 
L 39.206278 -17.819336 
L 38.872498 -17.836092 
L 38.527106 -17.852848 
L 38.174139 -17.869604 
L 37.817908 -17.88636 
L 37.462806 -17.903116 
L 37.113102 -17.919873 
L 36.772732 -17.936629 
L 36.445105 -17.953385 
L 36.132929 -17.970141 
L 35.838092 -17.986897 
L 35.561596 -18.003653 
L 35.303551 -18.020409 
L 35.063252 -18.037165 
L 34.839312 -18.053921 
L 34.62987 -18.070677 
L 34.432834 -18.087433 
L 34.246163 -18.104189 
L 34.068154 -18.120945 
L 33.897709 -18.137701 
L 33.734565 -18.154457 
L 33.579466 -18.171213 
L 33.434247 -18.187969 
L 33.301837 -18.204726 
L 33.186163 -18.221482 
L 33.091969 -18.238238 
L 33.02455 -18.254994 
L 32.989429 -18.27175 
L 32.992002 -18.288506 
L 33.03716 -18.305262 
L 33.128941 -18.322018 
L 33.270212 -18.338774 
L 33.462422 -18.35553 
L 33.705438 -18.372286 
L 33.997466 -18.389042 
L 34.335073 -18.405798 
L 34.713295 -18.422554 
L 35.12583 -18.43931 
L 35.565285 -18.456066 
L 36.02348 -18.472822 
L 36.491762 -18.489579 
L 36.961328 -18.506335 
L 37.423524 -18.523091 
L 37.870109 -18.539847 
L 38.293475 -18.556603 
L 38.686807 -18.573359 
L 39.044191 -18.590115 
L 39.360665 -18.606871 
L 39.632221 -18.623627 
L 39.85578 -18.640383 
L 40.029129 -18.657139 
L 40.150852 -18.673895 
L 40.22026 -18.690651 
L 40.237324 -18.707407 
L 40.202632 -18.724163 
L 40.117358 -18.740919 
L 39.983257 -18.757675 
L 39.802677 -18.774431 
L 39.578587 -18.791188 
L 39.31461 -18.807944 
L 39.01505 -18.8247 
L 38.684916 -18.841456 
L 38.329916 -18.858212 
L 37.956431 -18.874968 
L 37.571443 -18.891724 
L 37.182441 -18.90848 
L 36.797274 -18.925236 
L 36.423984 -18.941992 
L 36.070595 -18.958748 
L 35.744899 -18.975504 
L 35.45422 -18.99226 
L 35.205189 -19.009016 
L 35.003527 -19.025772 
L 34.853864 -19.042528 
L 34.759588 -19.059284 
L 34.722737 -19.076041 
L 34.743953 -19.092797 
L 34.822473 -19.109553 
L 34.956187 -19.126309 
L 35.141735 -19.143065 
L 35.374654 -19.159821 
L 35.649553 -19.176577 
L 35.960322 -19.193333 
L 36.300349 -19.210089 
L 36.662746 -19.226845 
L 37.040572 -19.243601 
L 37.427034 -19.260357 
L 37.81568 -19.277113 
L 38.200552 -19.293869 
L 38.576313 -19.310625 
L 38.938346 -19.327381 
L 39.282806 -19.344137 
L 39.60665 -19.360894 
L 39.907634 -19.37765 
L 40.184279 -19.394406 
L 40.435816 -19.411162 
L 40.66212 -19.427918 
L 43.245921 -19.427918 
L 43.245921 -19.427918 
L 43.472225 -19.411162 
L 43.723763 -19.394406 
L 44.000407 -19.37765 
L 44.301391 -19.360894 
L 44.625235 -19.344137 
L 44.969695 -19.327381 
L 45.331728 -19.310625 
L 45.70749 -19.293869 
L 46.092361 -19.277113 
L 46.481007 -19.260357 
L 46.86747 -19.243601 
L 47.245295 -19.226845 
L 47.607692 -19.210089 
L 47.947719 -19.193333 
L 48.258488 -19.176577 
L 48.533388 -19.159821 
L 48.766306 -19.143065 
L 48.951855 -19.126309 
L 49.085568 -19.109553 
L 49.164089 -19.092797 
L 49.185304 -19.076041 
L 49.148454 -19.059284 
L 49.054177 -19.042528 
L 48.904515 -19.025772 
L 48.702853 -19.009016 
L 48.453821 -18.99226 
L 48.163142 -18.975504 
L 47.837446 -18.958748 
L 47.484057 -18.941992 
L 47.110767 -18.925236 
L 46.725601 -18.90848 
L 46.336598 -18.891724 
L 45.951611 -18.874968 
L 45.578125 -18.858212 
L 45.223126 -18.841456 
L 44.892991 -18.8247 
L 44.593432 -18.807944 
L 44.329454 -18.791188 
L 44.105364 -18.774431 
L 43.924785 -18.757675 
L 43.790683 -18.740919 
L 43.705409 -18.724163 
L 43.670717 -18.707407 
L 43.687781 -18.690651 
L 43.757189 -18.673895 
L 43.878912 -18.657139 
L 44.052261 -18.640383 
L 44.27582 -18.623627 
L 44.547377 -18.606871 
L 44.86385 -18.590115 
L 45.221234 -18.573359 
L 45.614567 -18.556603 
L 46.037933 -18.539847 
L 46.484518 -18.523091 
L 46.946713 -18.506335 
L 47.416279 -18.489579 
L 47.884561 -18.472822 
L 48.342756 -18.456066 
L 48.782211 -18.43931 
L 49.194746 -18.422554 
L 49.572969 -18.405798 
L 49.910576 -18.389042 
L 50.202604 -18.372286 
L 50.44562 -18.35553 
L 50.63783 -18.338774 
L 50.7791 -18.322018 
L 50.870881 -18.305262 
L 50.916039 -18.288506 
L 50.918612 -18.27175 
L 50.883492 -18.254994 
L 50.816072 -18.238238 
L 50.721878 -18.221482 
L 50.606205 -18.204726 
L 50.473795 -18.187969 
L 50.328576 -18.171213 
L 50.173476 -18.154457 
L 50.010333 -18.137701 
L 49.839887 -18.120945 
L 49.661878 -18.104189 
L 49.475207 -18.087433 
L 49.278171 -18.070677 
L 49.068729 -18.053921 
L 48.84479 -18.037165 
L 48.60449 -18.020409 
L 48.346445 -18.003653 
L 48.069949 -17.986897 
L 47.775113 -17.970141 
L 47.462937 -17.953385 
L 47.135309 -17.936629 
L 46.794939 -17.919873 
L 46.445235 -17.903116 
L 46.090133 -17.88636 
L 45.733902 -17.869604 
L 45.380936 -17.852848 
L 45.035543 -17.836092 
L 44.701763 -17.819336 
L 44.383199 -17.80258 
L 44.0829 -17.785824 
L 43.803271 -17.769068 
z
" style="stroke: #7c7c7c; stroke-width: 0.15"/>
    </defs>
    <g clip-path="url(#p2366813dc3)">
     <use xlink:href="#m5bfda94d09" x="0" y="84.96" style="fill: #f3f3ae; stroke: #7c7c7c; stroke-width: 0.15"/>
    </g>
   </g>
   <g id="line2d_7">
    <path d="M 19.542542 66.732861 
L 19.542542 65.224465 
" clip-path="url(#p2366813dc3)" style="fill: none; stroke: #8c8c8c; stroke-width: 0.75; stroke-linecap: round"/>
   </g>
   <g id="line2d_8">
    <path d="M 19.542542 66.652388 
L 19.542542 66.066768 
" clip-path="url(#p2366813dc3)" style="fill: none; stroke: #8c8c8c; stroke-width: 4; stroke-linecap: round"/>
   </g>
   <g id="line2d_9">
    <path d="M 19.542542 66.362002 
" clip-path="url(#p2366813dc3)" style="fill: none; stroke: #7c7c7c; stroke-width: 1.2; stroke-linecap: round"/>
    <defs>
     <path id="m8fe42affda" d="M 0 0.833333 
C 0.221003 0.833333 0.432983 0.745528 0.589256 0.589256 
C 0.745528 0.432983 0.833333 0.221003 0.833333 0 
C 0.833333 -0.221003 0.745528 -0.432983 0.589256 -0.589256 
C 0.432983 -0.745528 0.221003 -0.833333 0 -0.833333 
C -0.221003 -0.833333 -0.432983 -0.745528 -0.589256 -0.589256 
C -0.745528 -0.432983 -0.833333 -0.221003 -0.833333 0 
C -0.833333 0.221003 -0.745528 0.432983 -0.589256 0.589256 
C -0.432983 0.745528 -0.221003 0.833333 0 0.833333 
z
" style="stroke: #ffffff; stroke-width: 0.8"/>
    </defs>
    <g clip-path="url(#p2366813dc3)">
     <use xlink:href="#m8fe42affda" x="19.542542" y="66.362002" style="fill: #ffffff; stroke: #ffffff; stroke-width: 0.8"/>
    </g>
   </g>
   <g id="line2d_10">
    <path d="M 41.954021 66.942193 
L 41.954021 65.780821 
" clip-path="url(#p2366813dc3)" style="fill: none; stroke: #8c8c8c; stroke-width: 0.75; stroke-linecap: round"/>
   </g>
   <g id="line2d_11">
    <path d="M 41.954021 66.723889 
L 41.954021 65.932737 
" clip-path="url(#p2366813dc3)" style="fill: none; stroke: #8c8c8c; stroke-width: 4; stroke-linecap: round"/>
   </g>
   <g id="line2d_12">
    <path d="M 41.954021 66.606457 
" clip-path="url(#p2366813dc3)" style="fill: none; stroke: #7c7c7c; stroke-width: 1.2; stroke-linecap: round"/>
    <g clip-path="url(#p2366813dc3)">
     <use xlink:href="#m8fe42affda" x="41.954021" y="66.606457" style="fill: #ffffff; stroke: #ffffff; stroke-width: 0.8"/>
    </g>
   </g>
   <g id="patch_3">
    <path d="M 8.336802 74.419526 
L 8.336802 4.076256 
" style="fill: none; stroke: #777777; stroke-width: 0.5; stroke-linejoin: miter; stroke-linecap: square"/>
   </g>
   <g id="patch_4">
    <path d="M 8.336802 76.919526 
L 53.15976 76.919526 
" style="fill: none; stroke: #777777; stroke-width: 0.5; stroke-linejoin: miter; stroke-linecap: square"/>
   </g>
  </g>
 </g>
 <defs>
  <clipPath id="p2366813dc3">
   <rect x="8.336802" y="4.076256" width="44.822958" height="70.34327"/>
  </clipPath>
 </defs>
</svg>
