<?xml version="1.0" encoding="utf-8" standalone="no"?>
<!DOCTYPE svg PUBLIC "-//W3C//DTD SVG 1.1//EN"
  "http://www.w3.org/Graphics/SVG/1.1/DTD/svg11.dtd">
<svg xmlns:xlink="http://www.w3.org/1999/xlink" width="254.88pt" height="84.96pt" viewBox="0 0 254.88 84.96" xmlns="http://www.w3.org/2000/svg" version="1.1">
 <metadata>
  <rdf:RDF xmlns:dc="http://purl.org/dc/elements/1.1/" xmlns:cc="http://creativecommons.org/ns#" xmlns:rdf="http://www.w3.org/1999/02/22-rdf-syntax-ns#">
   <cc:Work>
    <dc:type rdf:resource="http://purl.org/dc/dcmitype/StillImage"/>
    <dc:date>2024-05-27T15:36:58.233829</dc:date>
    <dc:format>image/svg+xml</dc:format>
    <dc:creator>
     <cc:Agent>
      <dc:title>Matplotlib v3.8.3, https://matplotlib.org/</dc:title>
     </cc:Agent>
    </dc:creator>
   </cc:Work>
  </rdf:RDF>
 </metadata>
 <defs>
  <style type="text/css">*{stroke-linejoin: round; stroke-linecap: butt}</style>
 </defs>
 <g id="figure_1">
  <g id="patch_1">
   <path d="M 0 84.96 
L 254.88 84.96 
L 254.88 0 
L 0 0 
z
" style="fill: #ffffff"/>
  </g>
  <g id="axes_1">
   <g id="patch_2">
    <path d="M 10.005084 54.222338 
L 251.87976 54.222338 
L 251.87976 4.076256 
L 10.005084 4.076256 
z
" style="fill: #ffffff"/>
   </g>
   <g id="matplotlib.axis_1">
    <g id="xtick_1">
     <g id="text_1">
      <!-- CD20+ Cells -->
      <g style="fill: #333333" transform="translate(24.333152 78.266166) rotate(-90) scale(0.035 -0.035)">
       <defs>
        <path id="Helvetica-43" d="M 2422 4716 
Q 3294 4716 3775 4256 
Q 4256 3797 4309 3213 
L 3703 3213 
Q 3600 3656 3292 3915 
Q 2984 4175 2428 4175 
Q 1750 4175 1333 3698 
Q 916 3222 916 2238 
Q 916 1431 1292 929 
Q 1669 428 2416 428 
Q 3103 428 3463 956 
Q 3653 1234 3747 1688 
L 4353 1688 
Q 4272 963 3816 472 
Q 3269 -119 2341 -119 
Q 1541 -119 997 366 
Q 281 1006 281 2344 
Q 281 3359 819 4009 
Q 1400 4716 2422 4716 
z
M 2297 4716 
L 2297 4716 
z
" transform="scale(0.015625)"/>
        <path id="Helvetica-44" d="M 2250 531 
Q 2566 531 2769 597 
Q 3131 719 3363 1066 
Q 3547 1344 3628 1778 
Q 3675 2038 3675 2259 
Q 3675 3113 3336 3584 
Q 2997 4056 2244 4056 
L 1141 4056 
L 1141 531 
L 2250 531 
z
M 516 4591 
L 2375 4591 
Q 3322 4591 3844 3919 
Q 4309 3313 4309 2366 
Q 4309 1634 4034 1044 
Q 3550 0 2369 0 
L 516 0 
L 516 4591 
z
" transform="scale(0.015625)"/>
        <path id="Helvetica-32" d="M 200 0 
Q 231 578 439 1006 
Q 647 1434 1250 1784 
L 1850 2131 
Q 2253 2366 2416 2531 
Q 2672 2791 2672 3125 
Q 2672 3516 2437 3745 
Q 2203 3975 1813 3975 
Q 1234 3975 1013 3538 
Q 894 3303 881 2888 
L 309 2888 
Q 319 3472 525 3841 
Q 891 4491 1816 4491 
Q 2584 4491 2939 4075 
Q 3294 3659 3294 3150 
Q 3294 2613 2916 2231 
Q 2697 2009 2131 1694 
L 1703 1456 
Q 1397 1288 1222 1134 
Q 909 863 828 531 
L 3272 531 
L 3272 0 
L 200 0 
z
" transform="scale(0.015625)"/>
        <path id="Helvetica-30" d="M 1731 4475 
Q 2600 4475 2988 3759 
Q 3288 3206 3288 2244 
Q 3288 1331 3016 734 
Q 2622 -122 1728 -122 
Q 922 -122 528 578 
Q 200 1163 200 2147 
Q 200 2909 397 3456 
Q 766 4475 1731 4475 
z
M 1725 391 
Q 2163 391 2422 778 
Q 2681 1166 2681 2222 
Q 2681 2984 2493 3476 
Q 2306 3969 1766 3969 
Q 1269 3969 1039 3501 
Q 809 3034 809 2125 
Q 809 1441 956 1025 
Q 1181 391 1725 391 
z
" transform="scale(0.015625)"/>
        <path id="Helvetica-2b" d="M 288 1369 
L 288 1894 
L 1650 1894 
L 1650 3266 
L 2184 3266 
L 2184 1894 
L 3547 1894 
L 3547 1369 
L 2184 1369 
L 2184 0 
L 1650 0 
L 1650 1369 
L 288 1369 
z
" transform="scale(0.015625)"/>
        <path id="Helvetica-20" transform="scale(0.015625)"/>
        <path id="Helvetica-65" d="M 1806 3422 
Q 2163 3422 2497 3255 
Q 2831 3088 3006 2822 
Q 3175 2569 3231 2231 
Q 3281 2000 3281 1494 
L 828 1494 
Q 844 984 1069 676 
Q 1294 369 1766 369 
Q 2206 369 2469 659 
Q 2619 828 2681 1050 
L 3234 1050 
Q 3213 866 3089 639 
Q 2966 413 2813 269 
Q 2556 19 2178 -69 
Q 1975 -119 1719 -119 
Q 1094 -119 659 336 
Q 225 791 225 1609 
Q 225 2416 662 2919 
Q 1100 3422 1806 3422 
z
M 2703 1941 
Q 2669 2306 2544 2525 
Q 2313 2931 1772 2931 
Q 1384 2931 1121 2651 
Q 859 2372 844 1941 
L 2703 1941 
z
M 1753 3428 
L 1753 3428 
z
" transform="scale(0.015625)"/>
        <path id="Helvetica-6c" d="M 428 4591 
L 991 4591 
L 991 0 
L 428 0 
L 428 4591 
z
" transform="scale(0.015625)"/>
        <path id="Helvetica-73" d="M 747 1050 
Q 772 769 888 619 
Q 1100 347 1625 347 
Q 1938 347 2175 483 
Q 2413 619 2413 903 
Q 2413 1119 2222 1231 
Q 2100 1300 1741 1391 
L 1294 1503 
Q 866 1609 663 1741 
Q 300 1969 300 2372 
Q 300 2847 642 3140 
Q 984 3434 1563 3434 
Q 2319 3434 2653 2991 
Q 2863 2709 2856 2384 
L 2325 2384 
Q 2309 2575 2191 2731 
Q 1997 2953 1519 2953 
Q 1200 2953 1036 2831 
Q 872 2709 872 2509 
Q 872 2291 1088 2159 
Q 1213 2081 1456 2022 
L 1828 1931 
Q 2434 1784 2641 1647 
Q 2969 1431 2969 969 
Q 2969 522 2630 197 
Q 2291 -128 1597 -128 
Q 850 -128 539 211 
Q 228 550 206 1050 
L 747 1050 
z
M 1578 3428 
L 1578 3428 
z
" transform="scale(0.015625)"/>
       </defs>
       <use xlink:href="#Helvetica-43"/>
       <use xlink:href="#Helvetica-44" x="72.216797"/>
       <use xlink:href="#Helvetica-32" x="144.433594"/>
       <use xlink:href="#Helvetica-30" x="200.048828"/>
       <use xlink:href="#Helvetica-2b" x="255.664062"/>
       <use xlink:href="#Helvetica-20" x="314.0625"/>
       <use xlink:href="#Helvetica-43" x="341.845703"/>
       <use xlink:href="#Helvetica-65" x="414.0625"/>
       <use xlink:href="#Helvetica-6c" x="469.677734"/>
       <use xlink:href="#Helvetica-6c" x="491.894531"/>
       <use xlink:href="#Helvetica-73" x="514.111328"/>
      </g>
     </g>
    </g>
    <g id="xtick_2">
     <g id="text_2">
      <!-- TCRαδ+ Cells -->
      <g style="fill: #333333" transform="translate(51.208116 80.786713) rotate(-90) scale(0.035 -0.035)">
       <defs>
        <path id="Helvetica-54" d="M 3828 4591 
L 3828 4044 
L 2281 4044 
L 2281 0 
L 1650 0 
L 1650 4044 
L 103 4044 
L 103 4591 
L 3828 4591 
z
" transform="scale(0.015625)"/>
        <path id="Helvetica-52" d="M 2622 2488 
Q 3059 2488 3314 2663 
Q 3569 2838 3569 3294 
Q 3569 3784 3213 3963 
Q 3022 4056 2703 4056 
L 1184 4056 
L 1184 2488 
L 2622 2488 
z
M 563 4591 
L 2688 4591 
Q 3213 4591 3553 4438 
Q 4200 4144 4200 3353 
Q 4200 2941 4029 2678 
Q 3859 2416 3553 2256 
Q 3822 2147 3958 1969 
Q 4094 1791 4109 1391 
L 4131 775 
Q 4141 513 4175 384 
Q 4231 166 4375 103 
L 4375 0 
L 3613 0 
Q 3581 59 3562 153 
Q 3544 247 3531 516 
L 3494 1281 
Q 3472 1731 3159 1884 
Q 2981 1969 2600 1969 
L 1184 1969 
L 1184 0 
L 563 0 
L 563 4591 
z
" transform="scale(0.015625)"/>
        <path id="Helvetica-3b1" d="M 3347 703 
Q 3334 428 3525 434 
Q 3641 434 3700 475 
L 3700 -19 
Q 3628 -44 3513 -50 
Q 3391 -63 3309 -63 
Q 3084 -56 2956 103 
Q 2816 256 2816 475 
L 2803 475 
Q 2413 -63 1734 -63 
Q 1006 -50 647 459 
Q 281 953 281 1644 
Q 281 2350 634 2859 
Q 984 3378 1741 3391 
Q 2413 3391 2797 2847 
L 2809 2847 
L 2809 3328 
L 3347 3328 
L 3347 703 
z
M 1825 397 
Q 2075 397 2253 513 
Q 2425 622 2541 806 
Q 2766 1184 2766 1638 
Q 2766 2144 2559 2528 
Q 2350 2919 1797 2931 
Q 1306 2919 1081 2534 
Q 856 2156 856 1697 
Q 856 1209 1081 819 
Q 1306 409 1825 397 
z
" transform="scale(0.015625)"/>
        <path id="Helvetica-3b4" d="M 666 4519 
L 3188 4519 
L 3188 4056 
L 1394 4056 
L 1394 4044 
L 2509 3303 
Q 3134 2881 3372 2469 
Q 3591 2053 3584 1600 
Q 3578 934 3163 447 
Q 2738 -50 1938 -63 
Q 1203 -56 769 403 
Q 331 850 325 1556 
Q 341 3066 1863 3188 
L 1863 3200 
L 666 4056 
L 666 4519 
z
M 1991 397 
Q 2497 403 2731 794 
Q 2969 1166 2969 1606 
Q 2969 1856 2919 2041 
Q 2866 2222 2791 2344 
Q 2713 2463 2638 2541 
Q 2559 2619 2509 2650 
Q 2381 2766 2156 2766 
Q 947 2766 941 1528 
Q 941 1056 1216 738 
Q 1491 403 1991 397 
z
" transform="scale(0.015625)"/>
       </defs>
       <use xlink:href="#Helvetica-54"/>
       <use xlink:href="#Helvetica-43" x="61.083984"/>
       <use xlink:href="#Helvetica-52" x="133.300781"/>
       <use xlink:href="#Helvetica-3b1" x="205.517578"/>
       <use xlink:href="#Helvetica-3b4" x="266.601562"/>
       <use xlink:href="#Helvetica-2b" x="327.685547"/>
       <use xlink:href="#Helvetica-20" x="386.083984"/>
       <use xlink:href="#Helvetica-43" x="413.867188"/>
       <use xlink:href="#Helvetica-65" x="486.083984"/>
       <use xlink:href="#Helvetica-6c" x="541.699219"/>
       <use xlink:href="#Helvetica-6c" x="563.916016"/>
       <use xlink:href="#Helvetica-73" x="586.132812"/>
      </g>
     </g>
    </g>
    <g id="xtick_3">
     <g id="text_3">
      <!-- IL7R+ Cells -->
      <g style="fill: #333333" transform="translate(78.08308 76.710854) rotate(-90) scale(0.035 -0.035)">
       <defs>
        <path id="Helvetica-49" d="M 628 4591 
L 1256 4591 
L 1256 0 
L 628 0 
L 628 4591 
z
" transform="scale(0.015625)"/>
        <path id="Helvetica-4c" d="M 488 4591 
L 1109 4591 
L 1109 547 
L 3434 547 
L 3434 0 
L 488 0 
L 488 4591 
z
" transform="scale(0.015625)"/>
        <path id="Helvetica-37" d="M 3347 4400 
L 3347 3909 
Q 3131 3700 2773 3181 
Q 2416 2663 2141 2063 
Q 1869 1478 1728 997 
Q 1638 688 1494 0 
L 872 0 
Q 1084 1281 1809 2550 
Q 2238 3294 2709 3834 
L 234 3834 
L 234 4400 
L 3347 4400 
z
" transform="scale(0.015625)"/>
       </defs>
       <use xlink:href="#Helvetica-49"/>
       <use xlink:href="#Helvetica-4c" x="27.783203"/>
       <use xlink:href="#Helvetica-37" x="83.398438"/>
       <use xlink:href="#Helvetica-52" x="139.013672"/>
       <use xlink:href="#Helvetica-2b" x="211.230469"/>
       <use xlink:href="#Helvetica-20" x="269.628906"/>
       <use xlink:href="#Helvetica-43" x="297.412109"/>
       <use xlink:href="#Helvetica-65" x="369.628906"/>
       <use xlink:href="#Helvetica-6c" x="425.244141"/>
       <use xlink:href="#Helvetica-6c" x="447.460938"/>
       <use xlink:href="#Helvetica-73" x="469.677734"/>
      </g>
     </g>
    </g>
    <g id="xtick_4">
     <g id="text_4">
      <!-- EOMES+ Cells -->
      <g style="fill: #333333" transform="translate(104.958044 81.95976) rotate(-90) scale(0.035 -0.035)">
       <defs>
        <path id="Helvetica-45" d="M 547 4591 
L 3894 4591 
L 3894 4028 
L 1153 4028 
L 1153 2634 
L 3688 2634 
L 3688 2103 
L 1153 2103 
L 1153 547 
L 3941 547 
L 3941 0 
L 547 0 
L 547 4591 
z
M 2244 4591 
L 2244 4591 
z
" transform="scale(0.015625)"/>
        <path id="Helvetica-4f" d="M 2469 4716 
Q 3684 4716 4269 3934 
Q 4725 3325 4725 2375 
Q 4725 1347 4203 666 
Q 3591 -134 2456 -134 
Q 1397 -134 791 566 
Q 250 1241 250 2272 
Q 250 3203 713 3866 
Q 1306 4716 2469 4716 
z
M 2531 422 
Q 3353 422 3720 1011 
Q 4088 1600 4088 2366 
Q 4088 3175 3664 3669 
Q 3241 4163 2506 4163 
Q 1794 4163 1344 3673 
Q 894 3184 894 2231 
Q 894 1469 1280 945 
Q 1666 422 2531 422 
z
M 2488 4716 
L 2488 4716 
z
" transform="scale(0.015625)"/>
        <path id="Helvetica-4d" d="M 472 4591 
L 1363 4591 
L 2681 709 
L 3991 4591 
L 4872 4591 
L 4872 0 
L 4281 0 
L 4281 2709 
Q 4281 2850 4287 3175 
Q 4294 3500 4294 3872 
L 2984 0 
L 2369 0 
L 1050 3872 
L 1050 3731 
Q 1050 3563 1058 3217 
Q 1066 2872 1066 2709 
L 1066 0 
L 472 0 
L 472 4591 
z
" transform="scale(0.015625)"/>
        <path id="Helvetica-53" d="M 894 1481 
Q 916 1091 1078 847 
Q 1388 391 2169 391 
Q 2519 391 2806 491 
Q 3363 684 3363 1184 
Q 3363 1559 3128 1719 
Q 2891 1875 2384 1991 
L 1763 2131 
Q 1153 2269 900 2434 
Q 463 2722 463 3294 
Q 463 3913 891 4309 
Q 1319 4706 2103 4706 
Q 2825 4706 3329 4357 
Q 3834 4009 3834 3244 
L 3250 3244 
Q 3203 3613 3050 3809 
Q 2766 4169 2084 4169 
Q 1534 4169 1293 3937 
Q 1053 3706 1053 3400 
Q 1053 3063 1334 2906 
Q 1519 2806 2169 2656 
L 2813 2509 
Q 3278 2403 3531 2219 
Q 3969 1897 3969 1284 
Q 3969 522 3414 194 
Q 2859 -134 2125 -134 
Q 1269 -134 784 303 
Q 300 738 309 1481 
L 894 1481 
z
M 2150 4716 
L 2150 4716 
z
" transform="scale(0.015625)"/>
       </defs>
       <use xlink:href="#Helvetica-45"/>
       <use xlink:href="#Helvetica-4f" x="66.699219"/>
       <use xlink:href="#Helvetica-4d" x="144.482422"/>
       <use xlink:href="#Helvetica-45" x="227.783203"/>
       <use xlink:href="#Helvetica-53" x="294.482422"/>
       <use xlink:href="#Helvetica-2b" x="361.181641"/>
       <use xlink:href="#Helvetica-20" x="419.580078"/>
       <use xlink:href="#Helvetica-43" x="447.363281"/>
       <use xlink:href="#Helvetica-65" x="519.580078"/>
       <use xlink:href="#Helvetica-6c" x="575.195312"/>
       <use xlink:href="#Helvetica-6c" x="597.412109"/>
       <use xlink:href="#Helvetica-73" x="619.628906"/>
      </g>
     </g>
    </g>
    <g id="xtick_5">
     <g id="text_5">
      <!-- TBX+ Cells -->
      <g style="fill: #333333" transform="translate(131.833008 76.125151) rotate(-90) scale(0.035 -0.035)">
       <defs>
        <path id="Helvetica-42" d="M 2213 2650 
Q 2606 2650 2825 2759 
Q 3169 2931 3169 3378 
Q 3169 3828 2803 3984 
Q 2597 4072 2191 4072 
L 1081 4072 
L 1081 2650 
L 2213 2650 
z
M 2422 531 
Q 2994 531 3238 863 
Q 3391 1072 3391 1369 
Q 3391 1869 2944 2050 
Q 2706 2147 2316 2147 
L 1081 2147 
L 1081 531 
L 2422 531 
z
M 472 4591 
L 2444 4591 
Q 3250 4591 3591 4109 
Q 3791 3825 3791 3453 
Q 3791 3019 3544 2741 
Q 3416 2594 3175 2472 
Q 3528 2338 3703 2169 
Q 4013 1869 4013 1341 
Q 4013 897 3734 538 
Q 3319 0 2413 0 
L 472 0 
L 472 4591 
z
" transform="scale(0.015625)"/>
        <path id="Helvetica-58" d="M 881 0 
L 131 0 
L 1775 2353 
L 234 4591 
L 1013 4591 
L 2184 2834 
L 3347 4591 
L 4088 4591 
L 2547 2353 
L 4163 0 
L 3391 0 
L 2153 1888 
L 881 0 
z
" transform="scale(0.015625)"/>
       </defs>
       <use xlink:href="#Helvetica-54"/>
       <use xlink:href="#Helvetica-42" x="61.083984"/>
       <use xlink:href="#Helvetica-58" x="127.783203"/>
       <use xlink:href="#Helvetica-2b" x="194.482422"/>
       <use xlink:href="#Helvetica-20" x="252.880859"/>
       <use xlink:href="#Helvetica-43" x="280.664062"/>
       <use xlink:href="#Helvetica-65" x="352.880859"/>
       <use xlink:href="#Helvetica-6c" x="408.496094"/>
       <use xlink:href="#Helvetica-6c" x="430.712891"/>
       <use xlink:href="#Helvetica-73" x="452.929688"/>
      </g>
     </g>
    </g>
    <g id="xtick_6">
     <g id="text_6">
      <!-- GATA+ Cells -->
      <g style="fill: #333333" transform="translate(158.707972 78.847494) rotate(-90) scale(0.035 -0.035)">
       <defs>
        <path id="Helvetica-47" d="M 2472 4709 
Q 3119 4709 3591 4459 
Q 4275 4100 4428 3200 
L 3813 3200 
Q 3700 3703 3347 3933 
Q 2994 4163 2456 4163 
Q 1819 4163 1383 3684 
Q 947 3206 947 2259 
Q 947 1441 1306 927 
Q 1666 413 2478 413 
Q 3100 413 3508 773 
Q 3916 1134 3925 1941 
L 2488 1941 
L 2488 2456 
L 4503 2456 
L 4503 0 
L 4103 0 
L 3953 591 
Q 3638 244 3394 109 
Q 2984 -122 2353 -122 
Q 1538 -122 950 406 
Q 309 1069 309 2225 
Q 309 3378 934 4059 
Q 1528 4709 2472 4709 
z
M 2369 4716 
L 2369 4716 
z
" transform="scale(0.015625)"/>
        <path id="Helvetica-41" d="M 2844 1881 
L 2147 3909 
L 1406 1881 
L 2844 1881 
z
M 1822 4591 
L 2525 4591 
L 4191 0 
L 3509 0 
L 3044 1375 
L 1228 1375 
L 731 0 
L 94 0 
L 1822 4591 
z
" transform="scale(0.015625)"/>
       </defs>
       <use xlink:href="#Helvetica-47"/>
       <use xlink:href="#Helvetica-41" x="77.783203"/>
       <use xlink:href="#Helvetica-54" x="144.482422"/>
       <use xlink:href="#Helvetica-41" x="205.566406"/>
       <use xlink:href="#Helvetica-2b" x="272.265625"/>
       <use xlink:href="#Helvetica-20" x="330.664062"/>
       <use xlink:href="#Helvetica-43" x="358.447266"/>
       <use xlink:href="#Helvetica-65" x="430.664062"/>
       <use xlink:href="#Helvetica-6c" x="486.279297"/>
       <use xlink:href="#Helvetica-6c" x="508.496094"/>
       <use xlink:href="#Helvetica-73" x="530.712891"/>
      </g>
     </g>
    </g>
    <g id="xtick_7">
     <g id="text_7">
      <!-- ICOS+ Cells -->
      <g style="fill: #333333" transform="translate(185.582936 77.875151) rotate(-90) scale(0.035 -0.035)">
       <use xlink:href="#Helvetica-49"/>
       <use xlink:href="#Helvetica-43" x="27.783203"/>
       <use xlink:href="#Helvetica-4f" x="100"/>
       <use xlink:href="#Helvetica-53" x="177.783203"/>
       <use xlink:href="#Helvetica-2b" x="244.482422"/>
       <use xlink:href="#Helvetica-20" x="302.880859"/>
       <use xlink:href="#Helvetica-43" x="330.664062"/>
       <use xlink:href="#Helvetica-65" x="402.880859"/>
       <use xlink:href="#Helvetica-6c" x="458.496094"/>
       <use xlink:href="#Helvetica-6c" x="480.712891"/>
       <use xlink:href="#Helvetica-73" x="502.929688"/>
      </g>
     </g>
    </g>
    <g id="xtick_8">
     <g id="text_8">
      <!-- RORγT+ Cells -->
      <g style="fill: #333333" transform="translate(212.469931 81.179916) rotate(-90) scale(0.035 -0.035)">
       <defs>
        <path id="Helvetica-3b3" d="M 1556 225 
L 581 2444 
Q 481 2700 416 2803 
Q 347 2894 244 2894 
Q 91 2888 56 2872 
L 56 3334 
Q 166 3384 313 3391 
Q 641 3391 788 3250 
Q 863 3188 922 3078 
Q 978 2963 1038 2809 
L 1844 878 
L 2828 3328 
L 3431 3328 
L 2131 225 
L 2131 -1253 
L 1556 -1253 
L 1556 225 
z
" transform="scale(0.015625)"/>
       </defs>
       <use xlink:href="#Helvetica-52"/>
       <use xlink:href="#Helvetica-4f" x="72.216797"/>
       <use xlink:href="#Helvetica-52" x="150"/>
       <use xlink:href="#Helvetica-3b3" x="222.216797"/>
       <use xlink:href="#Helvetica-54" x="277.832031"/>
       <use xlink:href="#Helvetica-2b" x="338.916016"/>
       <use xlink:href="#Helvetica-20" x="397.314453"/>
       <use xlink:href="#Helvetica-43" x="425.097656"/>
       <use xlink:href="#Helvetica-65" x="497.314453"/>
       <use xlink:href="#Helvetica-6c" x="552.929688"/>
       <use xlink:href="#Helvetica-6c" x="575.146484"/>
       <use xlink:href="#Helvetica-73" x="597.363281"/>
      </g>
     </g>
    </g>
    <g id="xtick_9">
     <g id="text_9">
      <!-- AHR+ Cells -->
      <g style="fill: #333333" transform="translate(239.332864 76.708119) rotate(-90) scale(0.035 -0.035)">
       <defs>
        <path id="Helvetica-48" d="M 503 4591 
L 1131 4591 
L 1131 2694 
L 3519 2694 
L 3519 4591 
L 4147 4591 
L 4147 0 
L 3519 0 
L 3519 2147 
L 1131 2147 
L 1131 0 
L 503 0 
L 503 4591 
z
" transform="scale(0.015625)"/>
       </defs>
       <use xlink:href="#Helvetica-41"/>
       <use xlink:href="#Helvetica-48" x="66.699219"/>
       <use xlink:href="#Helvetica-52" x="138.916016"/>
       <use xlink:href="#Helvetica-2b" x="211.132812"/>
       <use xlink:href="#Helvetica-20" x="269.53125"/>
       <use xlink:href="#Helvetica-43" x="297.314453"/>
       <use xlink:href="#Helvetica-65" x="369.53125"/>
       <use xlink:href="#Helvetica-6c" x="425.146484"/>
       <use xlink:href="#Helvetica-6c" x="447.363281"/>
       <use xlink:href="#Helvetica-73" x="469.580078"/>
      </g>
     </g>
    </g>
   </g>
   <g id="matplotlib.axis_2">
    <g id="ytick_1">
     <g id="line2d_1">
      <defs>
       <path id="m73f78d9e63" d="M 0 0 
L -1 0 
" style="stroke: #777777; stroke-width: 0.5"/>
      </defs>
      <g>
       <use xlink:href="#m73f78d9e63" x="10.005084" y="48.355357" style="fill: #777777; stroke: #777777; stroke-width: 0.5"/>
      </g>
     </g>
     <g id="text_10">
      <!-- 0 -->
      <g style="fill: #333333" transform="translate(6.336803 49.431373) scale(0.03 -0.03)">
       <use xlink:href="#Helvetica-30"/>
      </g>
     </g>
    </g>
    <g id="ytick_2">
     <g id="line2d_2">
      <g>
       <use xlink:href="#m73f78d9e63" x="10.005084" y="40.975507" style="fill: #777777; stroke: #777777; stroke-width: 0.5"/>
      </g>
     </g>
     <g id="text_11">
      <!-- 20 -->
      <g style="fill: #333333" transform="translate(4.668521 42.051523) scale(0.03 -0.03)">
       <use xlink:href="#Helvetica-32"/>
       <use xlink:href="#Helvetica-30" x="55.615234"/>
      </g>
     </g>
    </g>
    <g id="ytick_3">
     <g id="line2d_3">
      <g>
       <use xlink:href="#m73f78d9e63" x="10.005084" y="33.595657" style="fill: #777777; stroke: #777777; stroke-width: 0.5"/>
      </g>
     </g>
     <g id="text_12">
      <!-- 40 -->
      <g style="fill: #333333" transform="translate(4.668521 34.671672) scale(0.03 -0.03)">
       <defs>
        <path id="Helvetica-34" d="M 2116 1584 
L 2116 3613 
L 681 1584 
L 2116 1584 
z
M 2125 0 
L 2125 1094 
L 163 1094 
L 163 1644 
L 2213 4488 
L 2688 4488 
L 2688 1584 
L 3347 1584 
L 3347 1094 
L 2688 1094 
L 2688 0 
L 2125 0 
z
" transform="scale(0.015625)"/>
       </defs>
       <use xlink:href="#Helvetica-34"/>
       <use xlink:href="#Helvetica-30" x="55.615234"/>
      </g>
     </g>
    </g>
    <g id="ytick_4">
     <g id="line2d_4">
      <g>
       <use xlink:href="#m73f78d9e63" x="10.005084" y="26.215806" style="fill: #777777; stroke: #777777; stroke-width: 0.5"/>
      </g>
     </g>
     <g id="text_13">
      <!-- 60 -->
      <g style="fill: #333333" transform="translate(4.668521 27.291822) scale(0.03 -0.03)">
       <defs>
        <path id="Helvetica-36" d="M 1872 4494 
Q 2622 4494 2917 4105 
Q 3213 3716 3213 3303 
L 2656 3303 
Q 2606 3569 2497 3719 
Q 2294 4000 1881 4000 
Q 1409 4000 1131 3564 
Q 853 3128 822 2316 
Q 1016 2600 1309 2741 
Q 1578 2866 1909 2866 
Q 2472 2866 2890 2506 
Q 3309 2147 3309 1434 
Q 3309 825 2912 354 
Q 2516 -116 1781 -116 
Q 1153 -116 697 361 
Q 241 838 241 1966 
Q 241 2800 444 3381 
Q 834 4494 1872 4494 
z
M 1831 384 
Q 2275 384 2495 682 
Q 2716 981 2716 1388 
Q 2716 1731 2519 2042 
Q 2322 2353 1803 2353 
Q 1441 2353 1167 2112 
Q 894 1872 894 1388 
Q 894 963 1142 673 
Q 1391 384 1831 384 
z
" transform="scale(0.015625)"/>
       </defs>
       <use xlink:href="#Helvetica-36"/>
       <use xlink:href="#Helvetica-30" x="55.615234"/>
      </g>
     </g>
    </g>
    <g id="ytick_5">
     <g id="line2d_5">
      <g>
       <use xlink:href="#m73f78d9e63" x="10.005084" y="18.835956" style="fill: #777777; stroke: #777777; stroke-width: 0.5"/>
      </g>
     </g>
     <g id="text_14">
      <!-- 80 -->
      <g style="fill: #333333" transform="translate(4.668521 19.911972) scale(0.03 -0.03)">
       <defs>
        <path id="Helvetica-38" d="M 1741 2600 
Q 2113 2600 2322 2808 
Q 2531 3016 2531 3303 
Q 2531 3553 2331 3762 
Q 2131 3972 1722 3972 
Q 1316 3972 1134 3762 
Q 953 3553 953 3272 
Q 953 2956 1187 2778 
Q 1422 2600 1741 2600 
z
M 1775 384 
Q 2166 384 2423 595 
Q 2681 806 2681 1225 
Q 2681 1659 2415 1884 
Q 2150 2109 1734 2109 
Q 1331 2109 1076 1879 
Q 822 1650 822 1244 
Q 822 894 1055 639 
Q 1288 384 1775 384 
z
M 975 2384 
Q 741 2484 609 2619 
Q 363 2869 363 3269 
Q 363 3769 725 4128 
Q 1088 4488 1753 4488 
Q 2397 4488 2762 4148 
Q 3128 3809 3128 3356 
Q 3128 2938 2916 2678 
Q 2797 2531 2547 2391 
Q 2825 2263 2984 2097 
Q 3281 1784 3281 1284 
Q 3281 694 2884 283 
Q 2488 -128 1763 -128 
Q 1109 -128 657 226 
Q 206 581 206 1256 
Q 206 1653 400 1942 
Q 594 2231 975 2384 
z
" transform="scale(0.015625)"/>
       </defs>
       <use xlink:href="#Helvetica-38"/>
       <use xlink:href="#Helvetica-30" x="55.615234"/>
      </g>
     </g>
    </g>
    <g id="ytick_6">
     <g id="line2d_6">
      <g>
       <use xlink:href="#m73f78d9e63" x="10.005084" y="11.456106" style="fill: #777777; stroke: #777777; stroke-width: 0.5"/>
      </g>
     </g>
     <g id="text_15">
      <!-- 100 -->
      <g style="fill: #333333" transform="translate(3.00024 12.532122) scale(0.03 -0.03)">
       <defs>
        <path id="Helvetica-31" d="M 613 3169 
L 613 3600 
Q 1222 3659 1462 3798 
Q 1703 3938 1822 4456 
L 2266 4456 
L 2266 0 
L 1666 0 
L 1666 3169 
L 613 3169 
z
" transform="scale(0.015625)"/>
       </defs>
       <use xlink:href="#Helvetica-31"/>
       <use xlink:href="#Helvetica-30" x="55.615234"/>
       <use xlink:href="#Helvetica-30" x="111.230469"/>
      </g>
     </g>
    </g>
    <g id="ytick_7">
     <g id="line2d_7">
      <g>
       <use xlink:href="#m73f78d9e63" x="10.005084" y="4.076256" style="fill: #777777; stroke: #777777; stroke-width: 0.5"/>
      </g>
     </g>
     <g id="text_16">
      <!-- 120 -->
      <g style="fill: #333333" transform="translate(3.00024 5.152271) scale(0.03 -0.03)">
       <use xlink:href="#Helvetica-31"/>
       <use xlink:href="#Helvetica-32" x="55.615234"/>
       <use xlink:href="#Helvetica-30" x="111.230469"/>
      </g>
     </g>
    </g>
   </g>
   <g id="PolyCollection_1">
    <defs>
     <path id="meb232bf4d6" d="M 24.854548 -36.244992 
L 22.030584 -36.244992 
L 21.657717 -36.29337 
L 21.219777 -36.341748 
L 20.715109 -36.390126 
L 20.144797 -36.438503 
L 19.513156 -36.486881 
L 18.828081 -36.535259 
L 18.101174 -36.583637 
L 17.347611 -36.632014 
L 16.585726 -36.680392 
L 15.836301 -36.72877 
L 15.121603 -36.777148 
L 14.46422 -36.825525 
L 13.885786 -36.873903 
L 13.405697 -36.922281 
L 13.03993 -36.970658 
L 12.800061 -37.019036 
L 12.69258 -37.067414 
L 12.718551 -37.115792 
L 12.873651 -37.164169 
L 13.148565 -37.212547 
L 13.529704 -37.260925 
L 14.000152 -37.309303 
L 14.540774 -37.35768 
L 15.131363 -37.406058 
L 15.751748 -37.454436 
L 16.382772 -37.502814 
L 17.007089 -37.551191 
L 17.609743 -37.599569 
L 18.178518 -37.647947 
L 18.704079 -37.696325 
L 19.179921 -37.744702 
L 19.602184 -37.79308 
L 19.969357 -37.841458 
L 20.281924 -37.889835 
L 20.541991 -37.938213 
L 20.752903 -37.986591 
L 20.918901 -38.034969 
L 21.044794 -38.083346 
L 21.135687 -38.131724 
L 21.196736 -38.180102 
L 21.232956 -38.22848 
L 21.249053 -38.276857 
L 21.249304 -38.325235 
L 21.237459 -38.373613 
L 21.216677 -38.421991 
L 21.189493 -38.470368 
L 21.157815 -38.518746 
L 21.122942 -38.567124 
L 21.08562 -38.615502 
L 21.046131 -38.663879 
L 21.004399 -38.712257 
L 20.960143 -38.760635 
L 20.913031 -38.809012 
L 20.862863 -38.85739 
L 20.809742 -38.905768 
L 20.754226 -38.954146 
L 20.697443 -39.002523 
L 20.641143 -39.050901 
L 20.587676 -39.099279 
L 20.53988 -39.147657 
L 20.500896 -39.196034 
L 20.473896 -39.244412 
L 20.461768 -39.29279 
L 20.466785 -39.341168 
L 20.490282 -39.389545 
L 20.532408 -39.437923 
L 20.591964 -39.486301 
L 20.666366 -39.534679 
L 20.751751 -39.583056 
L 20.843214 -39.631434 
L 20.935176 -39.679812 
L 21.021826 -39.728189 
L 21.097628 -39.776567 
L 21.157812 -39.824945 
L 21.198823 -39.873323 
L 21.218671 -39.9217 
L 21.217154 -39.970078 
L 21.195927 -40.018456 
L 21.158407 -40.066834 
L 21.109532 -40.115211 
L 21.05539 -40.163589 
L 21.002742 -40.211967 
L 20.958506 -40.260345 
L 20.929217 -40.308722 
L 20.920537 -40.3571 
L 20.936841 -40.405478 
L 20.980914 -40.453856 
L 21.05379 -40.502233 
L 21.154734 -40.550611 
L 21.281365 -40.598989 
L 21.429903 -40.647366 
L 21.595509 -40.695744 
L 21.772682 -40.744122 
L 21.955675 -40.7925 
L 22.138897 -40.840877 
L 22.317246 -40.889255 
L 22.486384 -40.937633 
L 22.642905 -40.986011 
L 22.784418 -41.034388 
L 24.100713 -41.034388 
L 24.100713 -41.034388 
L 24.242227 -40.986011 
L 24.398748 -40.937633 
L 24.567886 -40.889255 
L 24.746235 -40.840877 
L 24.929456 -40.7925 
L 25.11245 -40.744122 
L 25.289622 -40.695744 
L 25.455228 -40.647366 
L 25.603766 -40.598989 
L 25.730398 -40.550611 
L 25.831342 -40.502233 
L 25.904218 -40.453856 
L 25.94829 -40.405478 
L 25.964594 -40.3571 
L 25.955915 -40.308722 
L 25.926626 -40.260345 
L 25.882389 -40.211967 
L 25.829742 -40.163589 
L 25.775599 -40.115211 
L 25.726725 -40.066834 
L 25.689204 -40.018456 
L 25.667977 -39.970078 
L 25.666461 -39.9217 
L 25.686309 -39.873323 
L 25.727319 -39.824945 
L 25.787503 -39.776567 
L 25.863305 -39.728189 
L 25.949956 -39.679812 
L 26.041917 -39.631434 
L 26.133381 -39.583056 
L 26.218766 -39.534679 
L 26.293168 -39.486301 
L 26.352723 -39.437923 
L 26.39485 -39.389545 
L 26.418347 -39.341168 
L 26.423363 -39.29279 
L 26.411236 -39.244412 
L 26.384236 -39.196034 
L 26.345252 -39.147657 
L 26.297456 -39.099279 
L 26.243988 -39.050901 
L 26.187688 -39.002523 
L 26.130906 -38.954146 
L 26.07539 -38.905768 
L 26.022268 -38.85739 
L 25.9721 -38.809012 
L 25.924989 -38.760635 
L 25.880732 -38.712257 
L 25.839001 -38.663879 
L 25.799511 -38.615502 
L 25.76219 -38.567124 
L 25.727316 -38.518746 
L 25.695638 -38.470368 
L 25.668455 -38.421991 
L 25.647673 -38.373613 
L 25.635827 -38.325235 
L 25.636079 -38.276857 
L 25.652176 -38.22848 
L 25.688395 -38.180102 
L 25.749445 -38.131724 
L 25.840337 -38.083346 
L 25.966231 -38.034969 
L 26.132228 -37.986591 
L 26.343141 -37.938213 
L 26.603207 -37.889835 
L 26.915775 -37.841458 
L 27.282947 -37.79308 
L 27.705211 -37.744702 
L 28.181053 -37.696325 
L 28.706613 -37.647947 
L 29.275389 -37.599569 
L 29.878042 -37.551191 
L 30.502359 -37.502814 
L 31.133383 -37.454436 
L 31.753768 -37.406058 
L 32.344358 -37.35768 
L 32.88498 -37.309303 
L 33.355428 -37.260925 
L 33.736566 -37.212547 
L 34.011481 -37.164169 
L 34.16658 -37.115792 
L 34.192551 -37.067414 
L 34.08507 -37.019036 
L 33.845201 -36.970658 
L 33.479434 -36.922281 
L 32.999346 -36.873903 
L 32.420911 -36.825525 
L 31.763528 -36.777148 
L 31.04883 -36.72877 
L 30.299406 -36.680392 
L 29.537521 -36.632014 
L 28.783958 -36.583637 
L 28.05705 -36.535259 
L 27.371975 -36.486881 
L 26.740335 -36.438503 
L 26.170022 -36.390126 
L 25.665355 -36.341748 
L 25.227415 -36.29337 
L 24.854548 -36.244992 
z
" style="stroke: #6f6f6f; stroke-width: 0.15"/>
    </defs>
    <g clip-path="url(#pb312154027)">
     <use xlink:href="#meb232bf4d6" x="0" y="84.96" style="fill: #abc9ea; stroke: #6f6f6f; stroke-width: 0.15"/>
    </g>
   </g>
   <g id="PolyCollection_2">
    <defs>
     <path id="m2c2ec0a0fe" d="M 51.250227 -35.774876 
L 49.384832 -35.774876 
L 49.062091 -35.887499 
L 48.663032 -36.000122 
L 48.182056 -36.112745 
L 47.617211 -36.225368 
L 46.971287 -36.337991 
L 46.252671 -36.450614 
L 45.475785 -36.563237 
L 44.660957 -36.67586 
L 43.833602 -36.788483 
L 43.022675 -36.901106 
L 42.258466 -37.013729 
L 41.569915 -37.126353 
L 40.98176 -37.238976 
L 40.511888 -37.351599 
L 40.169308 -37.464222 
L 39.953104 -37.576845 
L 39.8526 -37.689468 
L 39.848779 -37.802091 
L 39.916769 -37.914714 
L 40.029019 -38.027337 
L 40.158622 -38.13996 
L 40.282253 -38.252583 
L 40.382232 -38.365206 
L 40.447464 -38.47783 
L 40.473224 -38.590453 
L 40.460027 -38.703076 
L 40.411991 -38.815699 
L 40.33517 -38.928322 
L 40.236285 -39.040945 
L 40.122078 -39.153568 
L 39.999341 -39.266191 
L 39.875428 -39.378814 
L 39.758951 -39.491437 
L 39.660328 -39.60406 
L 39.591904 -39.716683 
L 39.567544 -39.829307 
L 39.601717 -39.94193 
L 39.708235 -40.054553 
L 39.898873 -40.167176 
L 40.182097 -40.279799 
L 40.562054 -40.392422 
L 41.037939 -40.505045 
L 41.603763 -40.617668 
L 42.248515 -40.730291 
L 42.956706 -40.842914 
L 43.709249 -40.955537 
L 44.484642 -41.06816 
L 45.260374 -41.180783 
L 46.014445 -41.293407 
L 46.726846 -41.40603 
L 47.380825 -41.518653 
L 47.963788 -41.631276 
L 48.467715 -41.743899 
L 48.889057 -41.856522 
L 49.228175 -41.969145 
L 49.488433 -42.081768 
L 49.675136 -42.194391 
L 49.794494 -42.307014 
L 49.852777 -42.419637 
L 49.855789 -42.53226 
L 49.808699 -42.644884 
L 49.716214 -42.757507 
L 49.583026 -42.87013 
L 49.414394 -42.982753 
L 49.216721 -43.095376 
L 48.997994 -43.207999 
L 48.767937 -43.320622 
L 48.537831 -43.433245 
L 48.319961 -43.545868 
L 48.126745 -43.658491 
L 47.969643 -43.771114 
L 47.857997 -43.883737 
L 47.797976 -43.996361 
L 47.791782 -44.108984 
L 47.837263 -44.221607 
L 47.928004 -44.33423 
L 48.053928 -44.446853 
L 48.202332 -44.559476 
L 48.359257 -44.672099 
L 48.511024 -44.784722 
L 48.645733 -44.897345 
L 48.754556 -45.009968 
L 48.832631 -45.122591 
L 48.879457 -45.235214 
L 48.898738 -45.347837 
L 48.897682 -45.460461 
L 48.885885 -45.573084 
L 48.873928 -45.685707 
L 48.871922 -45.79833 
L 48.888195 -45.910953 
L 48.928308 -46.023576 
L 48.994528 -46.136199 
L 49.085809 -46.248822 
L 49.198227 -46.361445 
L 49.325774 -46.474068 
L 49.461332 -46.586691 
L 49.597671 -46.699314 
L 49.728297 -46.811938 
L 49.848067 -46.924561 
L 50.786993 -46.924561 
L 50.786993 -46.924561 
L 50.906763 -46.811938 
L 51.037389 -46.699314 
L 51.173727 -46.586691 
L 51.309286 -46.474068 
L 51.436833 -46.361445 
L 51.549251 -46.248822 
L 51.640532 -46.136199 
L 51.706752 -46.023576 
L 51.746864 -45.910953 
L 51.763138 -45.79833 
L 51.761132 -45.685707 
L 51.749175 -45.573084 
L 51.737377 -45.460461 
L 51.736322 -45.347837 
L 51.755602 -45.235214 
L 51.802429 -45.122591 
L 51.880503 -45.009968 
L 51.989326 -44.897345 
L 52.124036 -44.784722 
L 52.275802 -44.672099 
L 52.432728 -44.559476 
L 52.581131 -44.446853 
L 52.707056 -44.33423 
L 52.797797 -44.221607 
L 52.843277 -44.108984 
L 52.837083 -43.996361 
L 52.777062 -43.883737 
L 52.665417 -43.771114 
L 52.508314 -43.658491 
L 52.315098 -43.545868 
L 52.097229 -43.433245 
L 51.867122 -43.320622 
L 51.637065 -43.207999 
L 51.418338 -43.095376 
L 51.220666 -42.982753 
L 51.052033 -42.87013 
L 50.918845 -42.757507 
L 50.826361 -42.644884 
L 50.77927 -42.53226 
L 50.782283 -42.419637 
L 50.840566 -42.307014 
L 50.959924 -42.194391 
L 51.146627 -42.081768 
L 51.406885 -41.969145 
L 51.746002 -41.856522 
L 52.167345 -41.743899 
L 52.671271 -41.631276 
L 53.254235 -41.518653 
L 53.908214 -41.40603 
L 54.620614 -41.293407 
L 55.374685 -41.180783 
L 56.150418 -41.06816 
L 56.925811 -40.955537 
L 57.678354 -40.842914 
L 58.386545 -40.730291 
L 59.031297 -40.617668 
L 59.59712 -40.505045 
L 60.073006 -40.392422 
L 60.452963 -40.279799 
L 60.736186 -40.167176 
L 60.926825 -40.054553 
L 61.033342 -39.94193 
L 61.067515 -39.829307 
L 61.043156 -39.716683 
L 60.974732 -39.60406 
L 60.876109 -39.491437 
L 60.759632 -39.378814 
L 60.635718 -39.266191 
L 60.512981 -39.153568 
L 60.398774 -39.040945 
L 60.299889 -38.928322 
L 60.223069 -38.815699 
L 60.175032 -38.703076 
L 60.161836 -38.590453 
L 60.187596 -38.47783 
L 60.252828 -38.365206 
L 60.352807 -38.252583 
L 60.476437 -38.13996 
L 60.606041 -38.027337 
L 60.718291 -37.914714 
L 60.786281 -37.802091 
L 60.782459 -37.689468 
L 60.681955 -37.576845 
L 60.465752 -37.464222 
L 60.123172 -37.351599 
L 59.6533 -37.238976 
L 59.065145 -37.126353 
L 58.376594 -37.013729 
L 57.612384 -36.901106 
L 56.801458 -36.788483 
L 55.974103 -36.67586 
L 55.159275 -36.563237 
L 54.382388 -36.450614 
L 53.663772 -36.337991 
L 53.017849 -36.225368 
L 52.453004 -36.112745 
L 51.972028 -36.000122 
L 51.572969 -35.887499 
L 51.250227 -35.774876 
z
" style="stroke: #6f6f6f; stroke-width: 0.15"/>
    </defs>
    <g clip-path="url(#pb312154027)">
     <use xlink:href="#m2c2ec0a0fe" x="0" y="84.96" style="fill: #efb792; stroke: #6f6f6f; stroke-width: 0.15"/>
    </g>
   </g>
   <g id="PolyCollection_3">
    <defs>
     <path id="m6f7a86be27" d="M 79.530964 -38.746171 
L 74.854023 -38.746171 
L 74.242471 -38.891659 
L 73.547688 -39.037148 
L 72.78099 -39.182637 
L 71.960206 -39.328126 
L 71.109107 -39.473615 
L 70.256058 -39.619104 
L 69.431963 -39.764593 
L 68.6677 -39.910081 
L 67.991358 -40.05557 
L 67.425636 -40.201059 
L 66.985766 -40.346548 
L 66.678272 -40.492037 
L 66.500725 -40.637526 
L 66.442508 -40.783015 
L 66.486472 -40.928503 
L 66.611171 -41.073992 
L 66.793358 -41.219481 
L 67.010364 -41.36497 
L 67.242052 -41.510459 
L 67.47216 -41.655948 
L 67.688943 -41.801437 
L 67.885183 -41.946925 
L 68.057693 -42.092414 
L 68.20654 -42.237903 
L 68.334159 -42.383392 
L 68.444548 -42.528881 
L 68.542619 -42.67437 
L 68.633742 -42.819859 
L 68.723436 -42.965347 
L 68.817141 -43.110836 
L 68.920001 -43.256325 
L 69.036593 -43.401814 
L 69.170621 -43.547303 
L 69.324603 -43.692792 
L 69.499625 -43.838281 
L 69.695263 -43.983769 
L 69.909716 -44.129258 
L 70.14017 -44.274747 
L 70.383358 -44.420236 
L 70.636193 -44.565725 
L 70.896364 -44.711214 
L 71.162736 -44.856703 
L 71.435458 -45.002191 
L 71.715739 -45.14768 
L 72.005308 -45.293169 
L 72.305675 -45.438658 
L 72.617326 -45.584147 
L 72.939038 -45.729636 
L 73.267443 -45.875125 
L 73.596951 -46.020613 
L 73.920053 -46.166102 
L 74.227968 -46.311591 
L 74.511507 -46.45708 
L 74.76204 -46.602569 
L 74.972383 -46.748058 
L 75.137486 -46.893547 
L 75.254833 -47.039035 
L 75.324515 -47.184524 
L 75.349002 -47.330013 
L 75.332695 -47.475502 
L 75.28135 -47.620991 
L 75.201501 -47.76648 
L 75.099977 -47.911969 
L 74.983571 -48.057457 
L 74.858885 -48.202946 
L 74.732323 -48.348435 
L 74.610159 -48.493924 
L 74.498588 -48.639413 
L 74.403692 -48.784902 
L 74.331249 -48.930391 
L 74.286374 -49.07588 
L 74.273044 -49.221368 
L 74.29357 -49.366857 
L 74.348136 -49.512346 
L 74.434531 -49.657835 
L 74.548136 -49.803324 
L 74.682246 -49.948813 
L 74.828687 -50.094302 
L 74.978669 -50.23979 
L 75.123756 -50.385279 
L 75.256817 -50.530768 
L 75.372796 -50.676257 
L 75.469216 -50.821746 
L 75.546315 -50.967235 
L 75.606827 -51.112724 
L 75.655445 -51.258212 
L 75.698047 -51.403701 
L 75.740824 -51.54919 
L 75.789429 -51.694679 
L 75.848273 -51.840168 
L 75.920046 -51.985657 
L 76.005516 -52.131146 
L 76.103601 -52.276634 
L 76.211679 -52.422123 
L 76.326044 -52.567612 
L 76.442459 -52.713101 
L 76.556677 -52.85859 
L 76.664901 -53.004079 
L 76.764101 -53.149568 
L 77.620887 -53.149568 
L 77.620887 -53.149568 
L 77.720086 -53.004079 
L 77.82831 -52.85859 
L 77.942529 -52.713101 
L 78.058943 -52.567612 
L 78.173309 -52.422123 
L 78.281386 -52.276634 
L 78.379472 -52.131146 
L 78.464942 -51.985657 
L 78.536715 -51.840168 
L 78.595558 -51.694679 
L 78.644164 -51.54919 
L 78.68694 -51.403701 
L 78.729542 -51.258212 
L 78.77816 -51.112724 
L 78.838673 -50.967235 
L 78.915772 -50.821746 
L 79.012191 -50.676257 
L 79.128171 -50.530768 
L 79.261232 -50.385279 
L 79.406319 -50.23979 
L 79.5563 -50.094302 
L 79.702741 -49.948813 
L 79.836852 -49.803324 
L 79.950457 -49.657835 
L 80.036851 -49.512346 
L 80.091418 -49.366857 
L 80.111943 -49.221368 
L 80.098614 -49.07588 
L 80.053739 -48.930391 
L 79.981295 -48.784902 
L 79.886399 -48.639413 
L 79.774829 -48.493924 
L 79.652664 -48.348435 
L 79.526103 -48.202946 
L 79.401417 -48.057457 
L 79.28501 -47.911969 
L 79.183486 -47.76648 
L 79.103638 -47.620991 
L 79.052292 -47.475502 
L 79.035985 -47.330013 
L 79.060473 -47.184524 
L 79.130155 -47.039035 
L 79.247502 -46.893547 
L 79.412604 -46.748058 
L 79.622947 -46.602569 
L 79.873481 -46.45708 
L 80.15702 -46.311591 
L 80.464934 -46.166102 
L 80.788037 -46.020613 
L 81.117544 -45.875125 
L 81.445949 -45.729636 
L 81.767662 -45.584147 
L 82.079313 -45.438658 
L 82.379679 -45.293169 
L 82.669248 -45.14768 
L 82.949529 -45.002191 
L 83.222252 -44.856703 
L 83.488623 -44.711214 
L 83.748795 -44.565725 
L 84.00163 -44.420236 
L 84.244818 -44.274747 
L 84.475272 -44.129258 
L 84.689725 -43.983769 
L 84.885363 -43.838281 
L 85.060385 -43.692792 
L 85.214366 -43.547303 
L 85.348395 -43.401814 
L 85.464987 -43.256325 
L 85.567847 -43.110836 
L 85.661552 -42.965347 
L 85.751245 -42.819859 
L 85.842368 -42.67437 
L 85.94044 -42.528881 
L 86.050829 -42.383392 
L 86.178448 -42.237903 
L 86.327294 -42.092414 
L 86.499805 -41.946925 
L 86.696044 -41.801437 
L 86.912828 -41.655948 
L 87.142935 -41.510459 
L 87.374623 -41.36497 
L 87.591629 -41.219481 
L 87.773817 -41.073992 
L 87.898516 -40.928503 
L 87.942479 -40.783015 
L 87.884263 -40.637526 
L 87.706715 -40.492037 
L 87.399222 -40.346548 
L 86.959352 -40.201059 
L 86.39363 -40.05557 
L 85.717288 -39.910081 
L 84.953025 -39.764593 
L 84.12893 -39.619104 
L 83.275881 -39.473615 
L 82.424782 -39.328126 
L 81.603997 -39.182637 
L 80.8373 -39.037148 
L 80.142517 -38.891659 
L 79.530964 -38.746171 
z
" style="stroke: #6f6f6f; stroke-width: 0.15"/>
    </defs>
    <g clip-path="url(#pb312154027)">
     <use xlink:href="#m6f7a86be27" x="0" y="84.96" style="fill: #98daa7; stroke: #6f6f6f; stroke-width: 0.15"/>
    </g>
   </g>
   <g id="PolyCollection_4">
    <defs>
     <path id="m6bc5221246" d="M 105.3623 -36.522449 
L 102.772615 -36.522449 
L 102.530669 -36.528661 
L 102.258088 -36.534874 
L 101.953855 -36.541087 
L 101.617446 -36.5473 
L 101.24891 -36.553513 
L 100.848945 -36.559726 
L 100.418963 -36.565939 
L 99.961146 -36.572152 
L 99.478489 -36.578364 
L 98.974828 -36.584577 
L 98.454842 -36.59079 
L 97.924038 -36.597003 
L 97.388698 -36.603216 
L 96.8558 -36.609429 
L 96.332894 -36.615642 
L 95.827948 -36.621854 
L 95.34915 -36.628067 
L 94.904677 -36.63428 
L 94.502437 -36.640493 
L 94.149798 -36.646706 
L 93.853306 -36.652919 
L 93.618432 -36.659132 
L 93.449331 -36.665345 
L 93.348663 -36.671557 
L 93.317472 -36.67777 
L 93.355134 -36.683983 
L 93.459389 -36.690196 
L 93.626447 -36.696409 
L 93.851169 -36.702622 
L 94.127302 -36.708835 
L 94.447762 -36.715048 
L 94.804929 -36.72126 
L 95.19095 -36.727473 
L 95.598014 -36.733686 
L 96.018593 -36.739899 
L 96.445626 -36.746112 
L 96.872653 -36.752325 
L 97.29388 -36.758538 
L 97.7042 -36.76475 
L 98.099168 -36.770963 
L 98.474945 -36.777176 
L 98.828229 -36.783389 
L 99.15619 -36.789602 
L 99.456413 -36.795815 
L 99.726867 -36.802028 
L 99.965895 -36.808241 
L 100.172236 -36.814453 
L 100.345058 -36.820666 
L 100.484012 -36.826879 
L 100.589277 -36.833092 
L 100.661599 -36.839305 
L 100.702306 -36.845518 
L 100.713292 -36.851731 
L 100.696967 -36.857944 
L 100.656169 -36.864156 
L 100.594045 -36.870369 
L 100.513912 -36.876582 
L 100.419098 -36.882795 
L 100.31279 -36.889008 
L 100.197898 -36.895221 
L 100.07694 -36.901434 
L 99.951978 -36.907647 
L 99.824593 -36.913859 
L 99.695907 -36.920072 
L 99.566662 -36.926285 
L 99.437332 -36.932498 
L 99.308264 -36.938711 
L 99.17984 -36.944924 
L 99.052635 -36.951137 
L 98.927555 -36.957349 
L 98.805953 -36.963562 
L 98.689695 -36.969775 
L 98.581176 -36.975988 
L 98.483284 -36.982201 
L 98.399311 -36.988414 
L 98.332811 -36.994627 
L 98.28743 -37.00084 
L 98.266707 -37.007052 
L 98.273863 -37.013265 
L 98.311601 -37.019478 
L 98.381928 -37.025691 
L 98.486004 -37.031904 
L 98.624047 -37.038117 
L 98.795274 -37.04433 
L 98.997909 -37.050543 
L 99.229238 -37.056755 
L 99.485715 -37.062968 
L 99.763101 -37.069181 
L 100.056647 -37.075394 
L 100.361284 -37.081607 
L 100.671827 -37.08782 
L 100.983174 -37.094033 
L 101.290484 -37.100245 
L 101.58934 -37.106458 
L 101.875871 -37.112671 
L 102.146847 -37.118884 
L 102.399732 -37.125097 
L 102.632702 -37.13131 
L 102.844629 -37.137523 
L 105.290286 -37.137523 
L 105.290286 -37.137523 
L 105.502214 -37.13131 
L 105.735184 -37.125097 
L 105.988068 -37.118884 
L 106.259045 -37.112671 
L 106.545576 -37.106458 
L 106.844431 -37.100245 
L 107.151742 -37.094033 
L 107.463088 -37.08782 
L 107.773632 -37.081607 
L 108.078269 -37.075394 
L 108.371815 -37.069181 
L 108.649201 -37.062968 
L 108.905677 -37.056755 
L 109.137007 -37.050543 
L 109.339642 -37.04433 
L 109.510869 -37.038117 
L 109.648911 -37.031904 
L 109.752988 -37.025691 
L 109.823315 -37.019478 
L 109.861053 -37.013265 
L 109.868208 -37.007052 
L 109.847485 -37.00084 
L 109.802105 -36.994627 
L 109.735605 -36.988414 
L 109.651631 -36.982201 
L 109.55374 -36.975988 
L 109.445221 -36.969775 
L 109.328963 -36.963562 
L 109.207361 -36.957349 
L 109.082281 -36.951137 
L 108.955075 -36.944924 
L 108.826652 -36.938711 
L 108.697584 -36.932498 
L 108.568254 -36.926285 
L 108.439009 -36.920072 
L 108.310323 -36.913859 
L 108.182937 -36.907647 
L 108.057976 -36.901434 
L 107.937018 -36.895221 
L 107.822125 -36.889008 
L 107.715818 -36.882795 
L 107.621003 -36.876582 
L 107.540871 -36.870369 
L 107.478747 -36.864156 
L 107.437949 -36.857944 
L 107.421623 -36.851731 
L 107.432609 -36.845518 
L 107.473316 -36.839305 
L 107.545638 -36.833092 
L 107.650903 -36.826879 
L 107.789857 -36.820666 
L 107.96268 -36.814453 
L 108.16902 -36.808241 
L 108.408049 -36.802028 
L 108.678502 -36.795815 
L 108.978725 -36.789602 
L 109.306686 -36.783389 
L 109.659971 -36.777176 
L 110.035747 -36.770963 
L 110.430716 -36.76475 
L 110.841036 -36.758538 
L 111.262263 -36.752325 
L 111.68929 -36.746112 
L 112.116323 -36.739899 
L 112.536902 -36.733686 
L 112.943966 -36.727473 
L 113.329987 -36.72126 
L 113.687154 -36.715048 
L 114.007613 -36.708835 
L 114.283747 -36.702622 
L 114.508468 -36.696409 
L 114.675526 -36.690196 
L 114.779781 -36.683983 
L 114.817443 -36.67777 
L 114.786253 -36.671557 
L 114.685585 -36.665345 
L 114.516484 -36.659132 
L 114.281609 -36.652919 
L 113.985118 -36.646706 
L 113.632478 -36.640493 
L 113.230238 -36.63428 
L 112.785765 -36.628067 
L 112.306968 -36.621854 
L 111.802022 -36.615642 
L 111.279116 -36.609429 
L 110.746217 -36.603216 
L 110.210877 -36.597003 
L 109.680073 -36.59079 
L 109.160088 -36.584577 
L 108.656427 -36.578364 
L 108.17377 -36.572152 
L 107.715953 -36.565939 
L 107.285971 -36.559726 
L 106.886005 -36.553513 
L 106.51747 -36.5473 
L 106.18106 -36.541087 
L 105.876828 -36.534874 
L 105.604247 -36.528661 
L 105.3623 -36.522449 
z
" style="stroke: #6f6f6f; stroke-width: 0.15"/>
    </defs>
    <g clip-path="url(#pb312154027)">
     <use xlink:href="#m6bc5221246" x="0" y="84.96" style="fill: #f2aba8; stroke: #6f6f6f; stroke-width: 0.15"/>
    </g>
   </g>
   <g id="PolyCollection_5">
    <defs>
     <path id="mdc2272a1e8" d="M 133.378715 -36.226995 
L 128.506129 -36.226995 
L 128.099542 -36.274527 
L 127.655696 -36.322059 
L 127.177264 -36.369591 
L 126.668165 -36.417123 
L 126.133555 -36.464655 
L 125.579753 -36.512187 
L 125.014098 -36.559718 
L 124.444757 -36.60725 
L 123.880467 -36.654782 
L 123.330251 -36.702314 
L 122.803095 -36.749846 
L 122.307624 -36.797378 
L 121.85179 -36.84491 
L 121.442589 -36.892442 
L 121.085826 -36.939974 
L 120.78594 -36.987506 
L 120.5459 -37.035038 
L 120.367179 -37.08257 
L 120.249799 -37.130102 
L 120.192436 -37.177634 
L 120.192598 -37.225166 
L 120.246822 -37.272698 
L 120.350913 -37.32023 
L 120.500182 -37.367762 
L 120.689665 -37.415294 
L 120.914334 -37.462826 
L 121.169254 -37.510358 
L 121.449703 -37.55789 
L 121.751246 -37.605421 
L 122.069757 -37.652953 
L 122.401401 -37.700485 
L 122.742592 -37.748017 
L 123.089917 -37.795549 
L 123.440066 -37.843081 
L 123.789757 -37.890613 
L 124.135682 -37.938145 
L 124.474474 -37.985677 
L 124.802718 -38.033209 
L 125.116975 -38.080741 
L 125.413865 -38.128273 
L 125.690157 -38.175805 
L 125.942892 -38.223337 
L 126.16951 -38.270869 
L 126.367977 -38.318401 
L 126.536894 -38.365933 
L 126.675584 -38.413465 
L 126.784136 -38.460997 
L 126.863412 -38.508529 
L 126.915005 -38.556061 
L 126.941156 -38.603593 
L 126.944626 -38.651124 
L 126.928548 -38.698656 
L 126.896251 -38.746188 
L 126.851084 -38.79372 
L 126.796254 -38.841252 
L 126.734675 -38.888784 
L 126.668861 -38.936316 
L 126.600849 -38.983848 
L 126.532178 -39.03138 
L 126.463896 -39.078912 
L 126.396621 -39.126444 
L 126.330625 -39.173976 
L 126.265938 -39.221508 
L 126.202472 -39.26904 
L 126.140136 -39.316572 
L 126.078945 -39.364104 
L 126.019106 -39.411636 
L 125.961087 -39.459168 
L 125.905652 -39.5067 
L 125.85387 -39.554232 
L 125.807102 -39.601764 
L 125.766964 -39.649296 
L 125.735269 -39.696827 
L 125.713963 -39.744359 
L 125.70505 -39.791891 
L 125.710511 -39.839423 
L 125.732227 -39.886955 
L 125.771904 -39.934487 
L 125.830994 -39.982019 
L 125.910632 -40.029551 
L 126.011574 -40.077083 
L 126.134143 -40.124615 
L 126.278192 -40.172147 
L 126.443077 -40.219679 
L 126.627643 -40.267211 
L 126.83024 -40.314743 
L 127.048744 -40.362275 
L 127.280612 -40.409807 
L 127.52295 -40.457339 
L 127.772599 -40.504871 
L 128.02624 -40.552403 
L 128.280501 -40.599935 
L 128.532072 -40.647467 
L 128.777814 -40.694999 
L 129.014856 -40.74253 
L 129.240685 -40.790062 
L 129.453205 -40.837594 
L 129.650786 -40.885126 
L 129.832277 -40.932658 
L 132.052567 -40.932658 
L 132.052567 -40.932658 
L 132.234058 -40.885126 
L 132.431639 -40.837594 
L 132.644159 -40.790062 
L 132.869988 -40.74253 
L 133.10703 -40.694999 
L 133.352771 -40.647467 
L 133.604343 -40.599935 
L 133.858604 -40.552403 
L 134.112245 -40.504871 
L 134.361894 -40.457339 
L 134.604231 -40.409807 
L 134.836099 -40.362275 
L 135.054603 -40.314743 
L 135.2572 -40.267211 
L 135.441767 -40.219679 
L 135.606652 -40.172147 
L 135.750701 -40.124615 
L 135.87327 -40.077083 
L 135.974211 -40.029551 
L 136.053849 -39.982019 
L 136.11294 -39.934487 
L 136.152616 -39.886955 
L 136.174333 -39.839423 
L 136.179794 -39.791891 
L 136.170881 -39.744359 
L 136.149575 -39.696827 
L 136.11788 -39.649296 
L 136.077742 -39.601764 
L 136.030974 -39.554232 
L 135.979192 -39.5067 
L 135.923756 -39.459168 
L 135.865737 -39.411636 
L 135.805899 -39.364104 
L 135.744707 -39.316572 
L 135.682372 -39.26904 
L 135.618906 -39.221508 
L 135.554219 -39.173976 
L 135.488222 -39.126444 
L 135.420948 -39.078912 
L 135.352666 -39.03138 
L 135.283994 -38.983848 
L 135.215983 -38.936316 
L 135.150168 -38.888784 
L 135.088589 -38.841252 
L 135.033759 -38.79372 
L 134.988593 -38.746188 
L 134.956296 -38.698656 
L 134.940218 -38.651124 
L 134.943688 -38.603593 
L 134.969839 -38.556061 
L 135.021432 -38.508529 
L 135.100708 -38.460997 
L 135.20926 -38.413465 
L 135.34795 -38.365933 
L 135.516867 -38.318401 
L 135.715334 -38.270869 
L 135.941952 -38.223337 
L 136.194687 -38.175805 
L 136.470979 -38.128273 
L 136.767869 -38.080741 
L 137.082126 -38.033209 
L 137.410369 -37.985677 
L 137.749162 -37.938145 
L 138.095087 -37.890613 
L 138.444777 -37.843081 
L 138.794927 -37.795549 
L 139.142252 -37.748017 
L 139.483442 -37.700485 
L 139.815087 -37.652953 
L 140.133597 -37.605421 
L 140.435141 -37.55789 
L 140.71559 -37.510358 
L 140.97051 -37.462826 
L 141.195179 -37.415294 
L 141.384662 -37.367762 
L 141.53393 -37.32023 
L 141.638022 -37.272698 
L 141.692246 -37.225166 
L 141.692407 -37.177634 
L 141.635045 -37.130102 
L 141.517664 -37.08257 
L 141.338944 -37.035038 
L 141.098904 -36.987506 
L 140.799018 -36.939974 
L 140.442254 -36.892442 
L 140.033054 -36.84491 
L 139.57722 -36.797378 
L 139.081749 -36.749846 
L 138.554592 -36.702314 
L 138.004377 -36.654782 
L 137.440087 -36.60725 
L 136.870745 -36.559718 
L 136.305091 -36.512187 
L 135.751289 -36.464655 
L 135.216679 -36.417123 
L 134.70758 -36.369591 
L 134.229148 -36.322059 
L 133.785302 -36.274527 
L 133.378715 -36.226995 
z
" style="stroke: #6f6f6f; stroke-width: 0.15"/>
    </defs>
    <g clip-path="url(#pb312154027)">
     <use xlink:href="#mdc2272a1e8" x="0" y="84.96" style="fill: #d3c4f6; stroke: #6f6f6f; stroke-width: 0.15"/>
    </g>
   </g>
   <g id="PolyCollection_6">
    <defs>
     <path id="me44564f19a" d="M 160.214454 -35.11036 
L 155.420317 -35.11036 
L 154.986399 -35.240364 
L 154.508486 -35.370368 
L 153.989607 -35.500373 
L 153.434498 -35.630377 
L 152.849614 -35.760382 
L 152.243049 -35.890386 
L 151.624355 -36.02039 
L 151.004261 -36.150395 
L 150.394308 -36.280399 
L 149.806405 -36.410403 
L 149.252353 -36.540408 
L 148.743342 -36.670412 
L 148.289479 -36.800417 
L 147.899367 -36.930421 
L 147.579759 -37.060425 
L 147.335334 -37.19043 
L 147.168587 -37.320434 
L 147.079842 -37.450439 
L 147.0674 -37.580443 
L 147.127775 -37.710447 
L 147.256018 -37.840452 
L 147.446093 -37.970456 
L 147.691261 -38.10046 
L 147.98445 -38.230465 
L 148.318586 -38.360469 
L 148.68685 -38.490474 
L 149.082862 -38.620478 
L 149.500781 -38.750482 
L 149.935328 -38.880487 
L 150.381742 -39.010491 
L 150.835692 -39.140496 
L 151.29316 -39.2705 
L 151.750315 -39.400504 
L 152.203406 -39.530509 
L 152.648675 -39.660513 
L 153.082317 -39.790518 
L 153.500471 -39.920522 
L 153.899264 -40.050526 
L 154.274882 -40.180531 
L 154.623674 -40.310535 
L 154.942276 -40.440539 
L 155.227737 -40.570544 
L 155.477645 -40.700548 
L 155.690243 -40.830553 
L 155.864521 -40.960557 
L 156.000284 -41.090561 
L 156.098195 -41.220566 
L 156.159784 -41.35057 
L 156.187425 -41.480575 
L 156.184284 -41.610579 
L 156.15423 -41.740583 
L 156.101725 -41.870588 
L 156.031681 -42.000592 
L 155.949291 -42.130596 
L 155.859847 -42.260601 
L 155.768541 -42.390605 
L 155.680266 -42.52061 
L 155.599416 -42.650614 
L 155.52971 -42.780618 
L 155.474032 -42.910623 
L 155.434317 -43.040627 
L 155.411476 -43.170632 
L 155.405379 -43.300636 
L 155.414894 -43.43064 
L 155.437974 -43.560645 
L 155.47181 -43.690649 
L 155.513019 -43.820654 
L 155.557876 -43.950658 
L 155.602556 -44.080662 
L 155.64339 -44.210667 
L 155.677111 -44.340671 
L 155.701068 -44.470675 
L 155.713402 -44.60068 
L 155.713175 -44.730684 
L 155.700429 -44.860689 
L 155.676191 -44.990693 
L 155.642409 -45.120697 
L 155.601829 -45.250702 
L 155.557824 -45.380706 
L 155.514181 -45.510711 
L 155.474867 -45.640715 
L 155.443788 -45.770719 
L 155.424551 -45.900724 
L 155.420257 -46.030728 
L 155.433326 -46.160732 
L 155.465373 -46.290737 
L 155.517134 -46.420741 
L 155.588451 -46.550746 
L 155.678313 -46.68075 
L 155.784946 -46.810754 
L 155.905937 -46.940759 
L 156.038394 -47.070763 
L 156.179123 -47.200768 
L 156.324799 -47.330772 
L 156.472142 -47.460776 
L 156.618061 -47.590781 
L 156.759783 -47.720785 
L 156.894942 -47.85079 
L 157.021641 -47.980794 
L 158.613131 -47.980794 
L 158.613131 -47.980794 
L 158.73983 -47.85079 
L 158.874989 -47.720785 
L 159.016711 -47.590781 
L 159.16263 -47.460776 
L 159.309973 -47.330772 
L 159.455649 -47.200768 
L 159.596378 -47.070763 
L 159.728835 -46.940759 
L 159.849826 -46.810754 
L 159.956458 -46.68075 
L 160.046321 -46.550746 
L 160.117638 -46.420741 
L 160.169398 -46.290737 
L 160.201445 -46.160732 
L 160.214515 -46.030728 
L 160.210221 -45.900724 
L 160.190984 -45.770719 
L 160.159905 -45.640715 
L 160.120591 -45.510711 
L 160.076948 -45.380706 
L 160.032943 -45.250702 
L 159.992363 -45.120697 
L 159.958581 -44.990693 
L 159.934343 -44.860689 
L 159.921597 -44.730684 
L 159.921369 -44.60068 
L 159.933704 -44.470675 
L 159.957661 -44.340671 
L 159.991382 -44.210667 
L 160.032216 -44.080662 
L 160.076896 -43.950658 
L 160.121752 -43.820654 
L 160.162962 -43.690649 
L 160.196798 -43.560645 
L 160.219878 -43.43064 
L 160.229393 -43.300636 
L 160.223296 -43.170632 
L 160.200455 -43.040627 
L 160.160739 -42.910623 
L 160.105061 -42.780618 
L 160.035355 -42.650614 
L 159.954506 -42.52061 
L 159.866231 -42.390605 
L 159.774925 -42.260601 
L 159.685481 -42.130596 
L 159.60309 -42.000592 
L 159.533046 -41.870588 
L 159.480542 -41.740583 
L 159.450488 -41.610579 
L 159.447346 -41.480575 
L 159.474988 -41.35057 
L 159.536577 -41.220566 
L 159.634488 -41.090561 
L 159.770251 -40.960557 
L 159.944528 -40.830553 
L 160.157127 -40.700548 
L 160.407035 -40.570544 
L 160.692496 -40.440539 
L 161.011098 -40.310535 
L 161.35989 -40.180531 
L 161.735507 -40.050526 
L 162.134301 -39.920522 
L 162.552455 -39.790518 
L 162.986097 -39.660513 
L 163.431366 -39.530509 
L 163.884457 -39.400504 
L 164.341612 -39.2705 
L 164.79908 -39.140496 
L 165.25303 -39.010491 
L 165.699444 -38.880487 
L 166.133991 -38.750482 
L 166.55191 -38.620478 
L 166.947922 -38.490474 
L 167.316185 -38.360469 
L 167.650322 -38.230465 
L 167.943511 -38.10046 
L 168.188679 -37.970456 
L 168.378754 -37.840452 
L 168.506997 -37.710447 
L 168.567372 -37.580443 
L 168.554929 -37.450439 
L 168.466185 -37.320434 
L 168.299438 -37.19043 
L 168.055013 -37.060425 
L 167.735405 -36.930421 
L 167.345292 -36.800417 
L 166.89143 -36.670412 
L 166.382419 -36.540408 
L 165.828366 -36.410403 
L 165.240464 -36.280399 
L 164.630511 -36.150395 
L 164.010417 -36.02039 
L 163.391723 -35.890386 
L 162.785158 -35.760382 
L 162.200274 -35.630377 
L 161.645165 -35.500373 
L 161.126286 -35.370368 
L 160.648373 -35.240364 
L 160.214454 -35.11036 
z
" style="stroke: #6f6f6f; stroke-width: 0.15"/>
    </defs>
    <g clip-path="url(#pb312154027)">
     <use xlink:href="#me44564f19a" x="0" y="84.96" style="fill: #d6bba3; stroke: #6f6f6f; stroke-width: 0.15"/>
    </g>
   </g>
   <g id="PolyCollection_7">
    <defs>
     <path id="m64c9e62d9c" d="M 186.341314 -35.654584 
L 183.043386 -35.654584 
L 182.698987 -35.740211 
L 182.30873 -35.825838 
L 181.87252 -35.911465 
L 181.391652 -35.997092 
L 180.868973 -36.082719 
L 180.308974 -36.168346 
L 179.71783 -36.253973 
L 179.103355 -36.3396 
L 178.474887 -36.425227 
L 177.843093 -36.510854 
L 177.219695 -36.596481 
L 176.61714 -36.682108 
L 176.048199 -36.767735 
L 175.525541 -36.853362 
L 175.061264 -36.938989 
L 174.666435 -37.024616 
L 174.350629 -37.110243 
L 174.121514 -37.19587 
L 173.98448 -37.281497 
L 173.942364 -37.367124 
L 173.99526 -37.452751 
L 174.140455 -37.538378 
L 174.372491 -37.624005 
L 174.683367 -37.709632 
L 175.062868 -37.795259 
L 175.499019 -37.880886 
L 175.978637 -37.966513 
L 176.487948 -38.05214 
L 177.013231 -38.137767 
L 177.541458 -38.223394 
L 178.060868 -38.309021 
L 178.56145 -38.394648 
L 179.035301 -38.480275 
L 179.476828 -38.565902 
L 179.882798 -38.651529 
L 180.252223 -38.737156 
L 180.586117 -38.822783 
L 180.887131 -38.90841 
L 181.159117 -38.994037 
L 181.40666 -39.079664 
L 181.634608 -39.165291 
L 181.847645 -39.250918 
L 182.049944 -39.336545 
L 182.244901 -39.422172 
L 182.434981 -39.507799 
L 182.621664 -39.593426 
L 182.805484 -39.679053 
L 182.986146 -39.76468 
L 183.162696 -39.850307 
L 183.333727 -39.935934 
L 183.497586 -40.021561 
L 183.652572 -40.107188 
L 183.797102 -40.192815 
L 183.929838 -40.278442 
L 184.049768 -40.364069 
L 184.15624 -40.449696 
L 184.248956 -40.535323 
L 184.327927 -40.62095 
L 184.393408 -40.706577 
L 184.445814 -40.792204 
L 184.485633 -40.877831 
L 184.513344 -40.963458 
L 184.529343 -41.049085 
L 184.533891 -41.134712 
L 184.527082 -41.220339 
L 184.508837 -41.305966 
L 184.478928 -41.391593 
L 184.437019 -41.47722 
L 184.382738 -41.562847 
L 184.315768 -41.648474 
L 184.235949 -41.734101 
L 184.143388 -41.819728 
L 184.038566 -41.905355 
L 183.922436 -41.990982 
L 183.796498 -42.076609 
L 183.662836 -42.162236 
L 183.524128 -42.247863 
L 183.383598 -42.33349 
L 183.244926 -42.419117 
L 183.112114 -42.504744 
L 182.989306 -42.590371 
L 182.880586 -42.675998 
L 182.789756 -42.761625 
L 182.720119 -42.847252 
L 182.674284 -42.932879 
L 182.654003 -43.018506 
L 182.660058 -43.104133 
L 182.692217 -43.18976 
L 182.749243 -43.275387 
L 182.82898 -43.361014 
L 182.928482 -43.446641 
L 183.044195 -43.532268 
L 183.172172 -43.617895 
L 183.308288 -43.703522 
L 183.448462 -43.789149 
L 183.588851 -43.874776 
L 183.726016 -43.960403 
L 183.857041 -44.04603 
L 183.979609 -44.131658 
L 185.405091 -44.131658 
L 185.405091 -44.131658 
L 185.527659 -44.04603 
L 185.658684 -43.960403 
L 185.795849 -43.874776 
L 185.936238 -43.789149 
L 186.076412 -43.703522 
L 186.212528 -43.617895 
L 186.340504 -43.532268 
L 186.456218 -43.446641 
L 186.555719 -43.361014 
L 186.635456 -43.275387 
L 186.692483 -43.18976 
L 186.724642 -43.104133 
L 186.730697 -43.018506 
L 186.710415 -42.932879 
L 186.664581 -42.847252 
L 186.594944 -42.761625 
L 186.504114 -42.675998 
L 186.395393 -42.590371 
L 186.272586 -42.504744 
L 186.139774 -42.419117 
L 186.001102 -42.33349 
L 185.860572 -42.247863 
L 185.721864 -42.162236 
L 185.588202 -42.076609 
L 185.462264 -41.990982 
L 185.346134 -41.905355 
L 185.241312 -41.819728 
L 185.148751 -41.734101 
L 185.068932 -41.648474 
L 185.001962 -41.562847 
L 184.947681 -41.47722 
L 184.905772 -41.391593 
L 184.875863 -41.305966 
L 184.857618 -41.220339 
L 184.850809 -41.134712 
L 184.855357 -41.049085 
L 184.871356 -40.963458 
L 184.899067 -40.877831 
L 184.938886 -40.792204 
L 184.991292 -40.706577 
L 185.056773 -40.62095 
L 185.135744 -40.535323 
L 185.22846 -40.449696 
L 185.334932 -40.364069 
L 185.454862 -40.278442 
L 185.587598 -40.192815 
L 185.732128 -40.107188 
L 185.887113 -40.021561 
L 186.050973 -39.935934 
L 186.222004 -39.850307 
L 186.398554 -39.76468 
L 186.579216 -39.679053 
L 186.763036 -39.593426 
L 186.949719 -39.507799 
L 187.139799 -39.422172 
L 187.334756 -39.336545 
L 187.537055 -39.250918 
L 187.750092 -39.165291 
L 187.978039 -39.079664 
L 188.225583 -38.994037 
L 188.497569 -38.90841 
L 188.798583 -38.822783 
L 189.132477 -38.737156 
L 189.501902 -38.651529 
L 189.907872 -38.565902 
L 190.349399 -38.480275 
L 190.82325 -38.394648 
L 191.323832 -38.309021 
L 191.843241 -38.223394 
L 192.371469 -38.137767 
L 192.896752 -38.05214 
L 193.406063 -37.966513 
L 193.885681 -37.880886 
L 194.321832 -37.795259 
L 194.701333 -37.709632 
L 195.012208 -37.624005 
L 195.244245 -37.538378 
L 195.389439 -37.452751 
L 195.442336 -37.367124 
L 195.40022 -37.281497 
L 195.263186 -37.19587 
L 195.03407 -37.110243 
L 194.718265 -37.024616 
L 194.323436 -36.938989 
L 193.859159 -36.853362 
L 193.336501 -36.767735 
L 192.76756 -36.682108 
L 192.165005 -36.596481 
L 191.541607 -36.510854 
L 190.909813 -36.425227 
L 190.281345 -36.3396 
L 189.66687 -36.253973 
L 189.075726 -36.168346 
L 188.515727 -36.082719 
L 187.993047 -35.997092 
L 187.51218 -35.911465 
L 187.07597 -35.825838 
L 186.685713 -35.740211 
L 186.341314 -35.654584 
z
" style="stroke: #6f6f6f; stroke-width: 0.15"/>
    </defs>
    <g clip-path="url(#pb312154027)">
     <use xlink:href="#m64c9e62d9c" x="0" y="84.96" style="fill: #f1b9e0; stroke: #6f6f6f; stroke-width: 0.15"/>
    </g>
   </g>
   <g id="PolyCollection_8">
    <defs>
     <path id="m2c8847faa0" d="M 213.647118 -36.343691 
L 209.48751 -36.343691 
L 209.093297 -36.42381 
L 208.653758 -36.503929 
L 208.170249 -36.584047 
L 207.645703 -36.664166 
L 207.084738 -36.744285 
L 206.493703 -36.824404 
L 205.880633 -36.904522 
L 205.255117 -36.984641 
L 204.628066 -37.06476 
L 204.011392 -37.144878 
L 203.417614 -37.224997 
L 202.859396 -37.305116 
L 202.349052 -37.385235 
L 201.898037 -37.465353 
L 201.516461 -37.545472 
L 201.212649 -37.625591 
L 200.992777 -37.70571 
L 200.860607 -37.785828 
L 200.817328 -37.865947 
L 200.861534 -37.946066 
L 200.989311 -38.026185 
L 201.19445 -38.106303 
L 201.468762 -38.186422 
L 201.802471 -38.266541 
L 202.184676 -38.34666 
L 202.603838 -38.426778 
L 203.048274 -38.506897 
L 203.506634 -38.587016 
L 203.968329 -38.667135 
L 204.423898 -38.747253 
L 204.865287 -38.827372 
L 205.286046 -38.907491 
L 205.681423 -38.98761 
L 206.04836 -39.067728 
L 206.385408 -39.147847 
L 206.692551 -39.227966 
L 206.970976 -39.308085 
L 207.222788 -39.388203 
L 207.450702 -39.468322 
L 207.657731 -39.548441 
L 207.84689 -39.628559 
L 208.02093 -39.708678 
L 208.182133 -39.788797 
L 208.332157 -39.868916 
L 208.471967 -39.949034 
L 208.601824 -40.029153 
L 208.721351 -40.109272 
L 208.829659 -40.189391 
L 208.925511 -40.269509 
L 209.007528 -40.349628 
L 209.074398 -40.429747 
L 209.125081 -40.509866 
L 209.158982 -40.589984 
L 209.176097 -40.670103 
L 209.17709 -40.750222 
L 209.163319 -40.830341 
L 209.136798 -40.910459 
L 209.1001 -40.990578 
L 209.056207 -41.070697 
L 209.008324 -41.150816 
L 208.959672 -41.230934 
L 208.913272 -41.311053 
L 208.871746 -41.391172 
L 208.837146 -41.471291 
L 208.810837 -41.551409 
L 208.793422 -41.631528 
L 208.784745 -41.711647 
L 208.783945 -41.791766 
L 208.789577 -41.871884 
L 208.799776 -41.952003 
L 208.812457 -42.032122 
L 208.825536 -42.11224 
L 208.837142 -42.192359 
L 208.845813 -42.272478 
L 208.85066 -42.352597 
L 208.851469 -42.432715 
L 208.848753 -42.512834 
L 208.843738 -42.592953 
L 208.838285 -42.673072 
L 208.834762 -42.75319 
L 208.835868 -42.833309 
L 208.844432 -42.913428 
L 208.863199 -42.993547 
L 208.894628 -43.073665 
L 208.940706 -43.153784 
L 209.002799 -43.233903 
L 209.08156 -43.314022 
L 209.176875 -43.39414 
L 209.287877 -43.474259 
L 209.413 -43.554378 
L 209.550081 -43.634497 
L 209.696499 -43.714615 
L 209.849325 -43.794734 
L 210.005491 -43.874853 
L 210.161948 -43.954972 
L 210.315811 -44.03509 
L 210.464482 -44.115209 
L 210.605742 -44.195328 
L 210.737815 -44.275447 
L 212.396813 -44.275447 
L 212.396813 -44.275447 
L 212.528886 -44.195328 
L 212.670146 -44.115209 
L 212.818817 -44.03509 
L 212.97268 -43.954972 
L 213.129137 -43.874853 
L 213.285303 -43.794734 
L 213.438129 -43.714615 
L 213.584547 -43.634497 
L 213.721628 -43.554378 
L 213.846751 -43.474259 
L 213.957753 -43.39414 
L 214.053068 -43.314022 
L 214.131829 -43.233903 
L 214.193922 -43.153784 
L 214.24 -43.073665 
L 214.271429 -42.993547 
L 214.290196 -42.913428 
L 214.29876 -42.833309 
L 214.299866 -42.75319 
L 214.296343 -42.673072 
L 214.29089 -42.592953 
L 214.285875 -42.512834 
L 214.283159 -42.432715 
L 214.283968 -42.352597 
L 214.288814 -42.272478 
L 214.297486 -42.192359 
L 214.309092 -42.11224 
L 214.32217 -42.032122 
L 214.334852 -41.952003 
L 214.345051 -41.871884 
L 214.350683 -41.791766 
L 214.349883 -41.711647 
L 214.341206 -41.631528 
L 214.323791 -41.551409 
L 214.297482 -41.471291 
L 214.262882 -41.391172 
L 214.221356 -41.311053 
L 214.174956 -41.230934 
L 214.126304 -41.150816 
L 214.078421 -41.070697 
L 214.034528 -40.990578 
L 213.99783 -40.910459 
L 213.971309 -40.830341 
L 213.957538 -40.750222 
L 213.95853 -40.670103 
L 213.975646 -40.589984 
L 214.009547 -40.509866 
L 214.06023 -40.429747 
L 214.1271 -40.349628 
L 214.209117 -40.269509 
L 214.304969 -40.189391 
L 214.413277 -40.109272 
L 214.532804 -40.029153 
L 214.662661 -39.949034 
L 214.802471 -39.868916 
L 214.952495 -39.788797 
L 215.113697 -39.708678 
L 215.287738 -39.628559 
L 215.476897 -39.548441 
L 215.683926 -39.468322 
L 215.91184 -39.388203 
L 216.163652 -39.308085 
L 216.442077 -39.227966 
L 216.74922 -39.147847 
L 217.086268 -39.067728 
L 217.453205 -38.98761 
L 217.848581 -38.907491 
L 218.269341 -38.827372 
L 218.71073 -38.747253 
L 219.166299 -38.667135 
L 219.627994 -38.587016 
L 220.086354 -38.506897 
L 220.53079 -38.426778 
L 220.949951 -38.34666 
L 221.332157 -38.266541 
L 221.665866 -38.186422 
L 221.940178 -38.106303 
L 222.145317 -38.026185 
L 222.273094 -37.946066 
L 222.3173 -37.865947 
L 222.274021 -37.785828 
L 222.14185 -37.70571 
L 221.921979 -37.625591 
L 221.618167 -37.545472 
L 221.236591 -37.465353 
L 220.785576 -37.385235 
L 220.275232 -37.305116 
L 219.717014 -37.224997 
L 219.123236 -37.144878 
L 218.506562 -37.06476 
L 217.879511 -36.984641 
L 217.253995 -36.904522 
L 216.640925 -36.824404 
L 216.04989 -36.744285 
L 215.488925 -36.664166 
L 214.964378 -36.584047 
L 214.48087 -36.503929 
L 214.041331 -36.42381 
L 213.647118 -36.343691 
z
" style="stroke: #6f6f6f; stroke-width: 0.15"/>
    </defs>
    <g clip-path="url(#pb312154027)">
     <use xlink:href="#m2c8847faa0" x="0" y="84.96" style="fill: #cfcfcf; stroke: #6f6f6f; stroke-width: 0.15"/>
    </g>
   </g>
   <g id="PolyCollection_9">
    <defs>
     <path id="m98bfc6b5b9" d="M 239.33961 -41.440986 
L 237.544946 -41.440986 
L 237.39295 -41.717761 
L 237.230501 -41.994537 
L 237.060323 -42.271312 
L 236.885831 -42.548087 
L 236.71104 -42.824863 
L 236.540417 -43.101638 
L 236.378683 -43.378414 
L 236.230575 -43.655189 
L 236.100578 -43.931965 
L 235.992655 -44.20874 
L 235.909977 -44.485516 
L 235.854696 -44.762291 
L 235.827762 -45.039066 
L 235.828815 -45.315842 
L 235.856145 -45.592617 
L 235.906749 -45.869393 
L 235.976466 -46.146168 
L 236.060188 -46.422944 
L 236.152138 -46.699719 
L 236.246188 -46.976495 
L 236.336209 -47.25327 
L 236.41642 -47.530045 
L 236.48172 -47.806821 
L 236.52798 -48.083596 
L 236.552278 -48.360372 
L 236.553064 -48.637147 
L 236.530248 -48.913923 
L 236.485191 -49.190698 
L 236.420623 -49.467474 
L 236.340469 -49.744249 
L 236.249604 -50.021024 
L 236.153548 -50.2978 
L 236.058117 -50.574575 
L 235.969043 -50.851351 
L 235.8916 -51.128126 
L 235.830242 -51.404902 
L 235.788285 -51.681677 
L 235.767646 -51.958453 
L 235.76866 -52.235228 
L 235.789982 -52.512004 
L 235.828584 -52.788779 
L 235.87984 -53.065554 
L 235.937699 -53.34233 
L 235.994943 -53.619105 
L 236.043499 -53.895881 
L 236.074803 -54.172656 
L 236.080198 -54.449432 
L 236.051336 -54.726207 
L 235.980589 -55.002983 
L 235.861423 -55.279758 
L 235.688744 -55.556533 
L 235.45919 -55.833309 
L 235.171358 -56.110084 
L 234.825951 -56.38686 
L 234.425838 -56.663635 
L 233.976019 -56.940411 
L 233.48349 -57.217186 
L 232.957014 -57.493962 
L 232.406796 -57.770737 
L 231.844082 -58.047512 
L 231.280704 -58.324288 
L 230.728585 -58.601063 
L 230.199242 -58.877839 
L 229.70332 -59.154614 
L 229.250177 -59.43139 
L 228.847559 -59.708165 
L 228.501373 -59.984941 
L 228.21559 -60.261716 
L 227.992262 -60.538491 
L 227.831659 -60.815267 
L 227.732505 -61.092042 
L 227.692292 -61.368818 
L 227.707639 -61.645593 
L 227.774655 -61.922369 
L 227.889296 -62.199144 
L 228.047653 -62.47592 
L 228.246179 -62.752695 
L 228.481815 -63.029471 
L 228.752023 -63.306246 
L 229.054734 -63.583021 
L 229.388207 -63.859797 
L 229.75084 -64.136572 
L 230.140952 -64.413348 
L 230.55656 -64.690123 
L 230.995188 -64.966899 
L 231.453727 -65.243674 
L 231.928361 -65.52045 
L 232.414574 -65.797225 
L 232.907232 -66.074 
L 233.400738 -66.350776 
L 233.889242 -66.627551 
L 234.366879 -66.904327 
L 234.828027 -67.181102 
L 235.267553 -67.457878 
L 235.681019 -67.734653 
L 236.064851 -68.011429 
L 236.416447 -68.288204 
L 236.734218 -68.564979 
L 237.017573 -68.841755 
L 239.866983 -68.841755 
L 239.866983 -68.841755 
L 240.150338 -68.564979 
L 240.468108 -68.288204 
L 240.819705 -68.011429 
L 241.203537 -67.734653 
L 241.617003 -67.457878 
L 242.056529 -67.181102 
L 242.517677 -66.904327 
L 242.995314 -66.627551 
L 243.483818 -66.350776 
L 243.977324 -66.074 
L 244.469982 -65.797225 
L 244.956195 -65.52045 
L 245.430829 -65.243674 
L 245.889368 -64.966899 
L 246.327996 -64.690123 
L 246.743604 -64.413348 
L 247.133716 -64.136572 
L 247.496349 -63.859797 
L 247.829822 -63.583021 
L 248.132533 -63.306246 
L 248.402741 -63.029471 
L 248.638377 -62.752695 
L 248.836903 -62.47592 
L 248.99526 -62.199144 
L 249.109901 -61.922369 
L 249.176917 -61.645593 
L 249.192264 -61.368818 
L 249.152051 -61.092042 
L 249.052897 -60.815267 
L 248.892294 -60.538491 
L 248.668966 -60.261716 
L 248.383183 -59.984941 
L 248.036997 -59.708165 
L 247.634379 -59.43139 
L 247.181236 -59.154614 
L 246.685314 -58.877839 
L 246.155971 -58.601063 
L 245.603852 -58.324288 
L 245.040474 -58.047512 
L 244.47776 -57.770737 
L 243.927542 -57.493962 
L 243.401066 -57.217186 
L 242.908537 -56.940411 
L 242.458718 -56.663635 
L 242.058605 -56.38686 
L 241.713198 -56.110084 
L 241.425366 -55.833309 
L 241.195812 -55.556533 
L 241.023133 -55.279758 
L 240.903966 -55.002983 
L 240.83322 -54.726207 
L 240.804358 -54.449432 
L 240.809753 -54.172656 
L 240.841057 -53.895881 
L 240.889612 -53.619105 
L 240.946857 -53.34233 
L 241.004716 -53.065554 
L 241.055972 -52.788779 
L 241.094574 -52.512004 
L 241.115896 -52.235228 
L 241.11691 -51.958453 
L 241.096271 -51.681677 
L 241.054314 -51.404902 
L 240.992956 -51.128126 
L 240.915513 -50.851351 
L 240.826439 -50.574575 
L 240.731007 -50.2978 
L 240.634952 -50.021024 
L 240.544087 -49.744249 
L 240.463933 -49.467474 
L 240.399365 -49.190698 
L 240.354308 -48.913923 
L 240.331492 -48.637147 
L 240.332278 -48.360372 
L 240.356576 -48.083596 
L 240.402836 -47.806821 
L 240.468136 -47.530045 
L 240.548347 -47.25327 
L 240.638368 -46.976495 
L 240.732418 -46.699719 
L 240.824367 -46.422944 
L 240.90809 -46.146168 
L 240.977807 -45.869393 
L 241.028411 -45.592617 
L 241.055741 -45.315842 
L 241.056794 -45.039066 
L 241.02986 -44.762291 
L 240.974579 -44.485516 
L 240.891901 -44.20874 
L 240.783978 -43.931965 
L 240.653981 -43.655189 
L 240.505873 -43.378414 
L 240.344139 -43.101638 
L 240.173516 -42.824863 
L 239.998725 -42.548087 
L 239.824233 -42.271312 
L 239.654055 -41.994537 
L 239.491606 -41.717761 
L 239.33961 -41.440986 
z
" style="stroke: #6f6f6f; stroke-width: 0.15"/>
    </defs>
    <g clip-path="url(#pb312154027)">
     <use xlink:href="#m98bfc6b5b9" x="0" y="84.96" style="fill: #f3f3ae; stroke: #6f6f6f; stroke-width: 0.15"/>
    </g>
   </g>
   <g id="line2d_8">
    <path d="M 23.442566 48.17888 
L 23.442566 44.461739 
" clip-path="url(#pb312154027)" style="fill: none; stroke: #8c8c8c; stroke-width: 0.75; stroke-linecap: round"/>
   </g>
   <g id="line2d_9">
    <path d="M 23.442566 47.926843 
L 23.442566 45.978456 
" clip-path="url(#pb312154027)" style="fill: none; stroke: #8c8c8c; stroke-width: 4; stroke-linecap: round"/>
   </g>
   <g id="line2d_10">
    <path d="M 23.442566 47.669303 
" clip-path="url(#pb312154027)" style="fill: none; stroke: #6f6f6f; stroke-width: 1.2; stroke-linecap: round"/>
    <defs>
     <path id="ma0307b0035" d="M 0 0.833333 
C 0.221003 0.833333 0.432983 0.745528 0.589256 0.589256 
C 0.745528 0.432983 0.833333 0.221003 0.833333 0 
C 0.833333 -0.221003 0.745528 -0.432983 0.589256 -0.589256 
C 0.432983 -0.745528 0.221003 -0.833333 0 -0.833333 
C -0.221003 -0.833333 -0.432983 -0.745528 -0.589256 -0.589256 
C -0.745528 -0.432983 -0.833333 -0.221003 -0.833333 0 
C -0.833333 0.221003 -0.745528 0.432983 -0.589256 0.589256 
C -0.432983 0.745528 -0.221003 0.833333 0 0.833333 
z
" style="stroke: #ffffff; stroke-width: 0.8"/>
    </defs>
    <g clip-path="url(#pb312154027)">
     <use xlink:href="#ma0307b0035" x="23.442566" y="47.669303" style="fill: #ffffff; stroke: #ffffff; stroke-width: 0.8"/>
    </g>
   </g>
   <g id="line2d_11">
    <path d="M 50.31753 48.198929 
L 50.31753 41.175019 
" clip-path="url(#pb312154027)" style="fill: none; stroke: #8c8c8c; stroke-width: 0.75; stroke-linecap: round"/>
   </g>
   <g id="line2d_12">
    <path d="M 50.31753 47.149977 
L 50.31753 44.574613 
" clip-path="url(#pb312154027)" style="fill: none; stroke: #8c8c8c; stroke-width: 4; stroke-linecap: round"/>
   </g>
   <g id="line2d_13">
    <path d="M 50.31753 45.791696 
" clip-path="url(#pb312154027)" style="fill: none; stroke: #6f6f6f; stroke-width: 1.2; stroke-linecap: round"/>
    <g clip-path="url(#pb312154027)">
     <use xlink:href="#ma0307b0035" x="50.31753" y="45.791696" style="fill: #ffffff; stroke: #ffffff; stroke-width: 0.8"/>
    </g>
   </g>
   <g id="line2d_14">
    <path d="M 77.192494 44.807623 
L 77.192494 33.216639 
" clip-path="url(#pb312154027)" style="fill: none; stroke: #8c8c8c; stroke-width: 0.75; stroke-linecap: round"/>
   </g>
   <g id="line2d_15">
    <path d="M 77.192494 44.308932 
L 77.192494 39.779314 
" clip-path="url(#pb312154027)" style="fill: none; stroke: #8c8c8c; stroke-width: 4; stroke-linecap: round"/>
   </g>
   <g id="line2d_16">
    <path d="M 77.192494 42.224923 
" clip-path="url(#pb312154027)" style="fill: none; stroke: #6f6f6f; stroke-width: 1.2; stroke-linecap: round"/>
    <g clip-path="url(#pb312154027)">
     <use xlink:href="#ma0307b0035" x="77.192494" y="42.224923" style="fill: #ffffff; stroke: #ffffff; stroke-width: 0.8"/>
    </g>
   </g>
   <g id="line2d_17">
    <path d="M 104.067458 48.349799 
L 104.067458 47.91023 
" clip-path="url(#pb312154027)" style="fill: none; stroke: #8c8c8c; stroke-width: 0.75; stroke-linecap: round"/>
   </g>
   <g id="line2d_18">
    <path d="M 104.067458 48.285454 
L 104.067458 48.028077 
" clip-path="url(#pb312154027)" style="fill: none; stroke: #8c8c8c; stroke-width: 4; stroke-linecap: round"/>
   </g>
   <g id="line2d_19">
    <path d="M 104.067458 48.226443 
" clip-path="url(#pb312154027)" style="fill: none; stroke: #6f6f6f; stroke-width: 1.2; stroke-linecap: round"/>
    <g clip-path="url(#pb312154027)">
     <use xlink:href="#ma0307b0035" x="104.067458" y="48.226443" style="fill: #ffffff; stroke: #ffffff; stroke-width: 0.8"/>
    </g>
   </g>
   <g id="line2d_20">
    <path d="M 130.942422 48.053023 
L 130.942422 44.707324 
" clip-path="url(#pb312154027)" style="fill: none; stroke: #8c8c8c; stroke-width: 0.75; stroke-linecap: round"/>
   </g>
   <g id="line2d_21">
    <path d="M 130.942422 47.821829 
L 130.942422 45.838534 
" clip-path="url(#pb312154027)" style="fill: none; stroke: #8c8c8c; stroke-width: 4; stroke-linecap: round"/>
   </g>
   <g id="line2d_22">
    <path d="M 130.942422 47.193224 
" clip-path="url(#pb312154027)" style="fill: none; stroke: #6f6f6f; stroke-width: 1.2; stroke-linecap: round"/>
    <g clip-path="url(#pb312154027)">
     <use xlink:href="#ma0307b0035" x="130.942422" y="47.193224" style="fill: #ffffff; stroke: #ffffff; stroke-width: 0.8"/>
    </g>
   </g>
   <g id="line2d_23">
    <path d="M 157.817386 48.062416 
L 157.817386 41.828856 
" clip-path="url(#pb312154027)" style="fill: none; stroke: #8c8c8c; stroke-width: 0.75; stroke-linecap: round"/>
   </g>
   <g id="line2d_24">
    <path d="M 157.817386 47.771404 
L 157.817386 44.689388 
" clip-path="url(#pb312154027)" style="fill: none; stroke: #8c8c8c; stroke-width: 4; stroke-linecap: round"/>
   </g>
   <g id="line2d_25">
    <path d="M 157.817386 46.846385 
" clip-path="url(#pb312154027)" style="fill: none; stroke: #6f6f6f; stroke-width: 1.2; stroke-linecap: round"/>
    <g clip-path="url(#pb312154027)">
     <use xlink:href="#ma0307b0035" x="157.817386" y="46.846385" style="fill: #ffffff; stroke: #ffffff; stroke-width: 0.8"/>
    </g>
   </g>
   <g id="line2d_26">
    <path d="M 184.69235 48.215454 
L 184.69235 45.75112 
" clip-path="url(#pb312154027)" style="fill: none; stroke: #8c8c8c; stroke-width: 0.75; stroke-linecap: round"/>
   </g>
   <g id="line2d_27">
    <path d="M 184.69235 47.760687 
L 184.69235 46.773229 
" clip-path="url(#pb312154027)" style="fill: none; stroke: #8c8c8c; stroke-width: 4; stroke-linecap: round"/>
   </g>
   <g id="line2d_28">
    <path d="M 184.69235 47.378847 
" clip-path="url(#pb312154027)" style="fill: none; stroke: #6f6f6f; stroke-width: 1.2; stroke-linecap: round"/>
    <g clip-path="url(#pb312154027)">
     <use xlink:href="#ma0307b0035" x="184.69235" y="47.378847" style="fill: #ffffff; stroke: #ffffff; stroke-width: 0.8"/>
    </g>
   </g>
   <g id="line2d_29">
    <path d="M 211.567314 47.507988 
L 211.567314 41.792874 
" clip-path="url(#pb312154027)" style="fill: none; stroke: #8c8c8c; stroke-width: 0.75; stroke-linecap: round"/>
   </g>
   <g id="line2d_30">
    <path d="M 211.567314 47.190486 
L 211.567314 44.767837 
" clip-path="url(#pb312154027)" style="fill: none; stroke: #8c8c8c; stroke-width: 4; stroke-linecap: round"/>
   </g>
   <g id="line2d_31">
    <path d="M 211.567314 46.725167 
" clip-path="url(#pb312154027)" style="fill: none; stroke: #6f6f6f; stroke-width: 1.2; stroke-linecap: round"/>
    <g clip-path="url(#pb312154027)">
     <use xlink:href="#ma0307b0035" x="211.567314" y="46.725167" style="fill: #ffffff; stroke: #ffffff; stroke-width: 0.8"/>
    </g>
   </g>
   <g id="line2d_32">
    <path d="M 238.442278 32.958982 
L 238.442278 19.69578 
" clip-path="url(#pb312154027)" style="fill: none; stroke: #8c8c8c; stroke-width: 0.75; stroke-linecap: round"/>
   </g>
   <g id="line2d_33">
    <path d="M 238.442278 27.43752 
L 238.442278 22.289975 
" clip-path="url(#pb312154027)" style="fill: none; stroke: #8c8c8c; stroke-width: 4; stroke-linecap: round"/>
   </g>
   <g id="line2d_34">
    <path d="M 238.442278 24.75252 
" clip-path="url(#pb312154027)" style="fill: none; stroke: #6f6f6f; stroke-width: 1.2; stroke-linecap: round"/>
    <g clip-path="url(#pb312154027)">
     <use xlink:href="#ma0307b0035" x="238.442278" y="24.75252" style="fill: #ffffff; stroke: #ffffff; stroke-width: 0.8"/>
    </g>
   </g>
   <g id="patch_3">
    <path d="M 10.005084 54.222338 
L 10.005084 4.076256 
" style="fill: none; stroke: #777777; stroke-width: 0.5; stroke-linejoin: miter; stroke-linecap: square"/>
   </g>
   <g id="patch_4">
    <path d="M 10.005084 56.722338 
L 251.87976 56.722338 
" style="fill: none; stroke: #777777; stroke-width: 0.5; stroke-linejoin: miter; stroke-linecap: square"/>
   </g>
  </g>
 </g>
 <defs>
  <clipPath id="pb312154027">
   <rect x="10.005084" y="4.076256" width="241.874676" height="50.146082"/>
  </clipPath>
 </defs>
</svg>
