<?xml version="1.0" encoding="utf-8" standalone="no"?>
<!DOCTYPE svg PUBLIC "-//W3C//DTD SVG 1.1//EN"
  "http://www.w3.org/Graphics/SVG/1.1/DTD/svg11.dtd">
<svg xmlns:xlink="http://www.w3.org/1999/xlink" width="254.88pt" height="84.96pt" viewBox="0 0 254.88 84.96" xmlns="http://www.w3.org/2000/svg" version="1.1">
 <metadata>
  <rdf:RDF xmlns:dc="http://purl.org/dc/elements/1.1/" xmlns:cc="http://creativecommons.org/ns#" xmlns:rdf="http://www.w3.org/1999/02/22-rdf-syntax-ns#">
   <cc:Work>
    <dc:type rdf:resource="http://purl.org/dc/dcmitype/StillImage"/>
    <dc:date>2024-05-27T15:36:57.498267</dc:date>
    <dc:format>image/svg+xml</dc:format>
    <dc:creator>
     <cc:Agent>
      <dc:title>Matplotlib v3.8.3, https://matplotlib.org/</dc:title>
     </cc:Agent>
    </dc:creator>
   </cc:Work>
  </rdf:RDF>
 </metadata>
 <defs>
  <style type="text/css">*{stroke-linejoin: round; stroke-linecap: butt}</style>
 </defs>
 <g id="figure_1">
  <g id="patch_1">
   <path d="M 0 84.96 
L 254.88 84.96 
L 254.88 0 
L 0 0 
z
" style="fill: #ffffff"/>
  </g>
  <g id="axes_1">
   <g id="patch_2">
    <path d="M 10.005084 54.222338 
L 251.87976 54.222338 
L 251.87976 4.076256 
L 10.005084 4.076256 
z
" style="fill: #ffffff"/>
   </g>
   <g id="matplotlib.axis_1">
    <g id="xtick_1">
     <g id="text_1">
      <!-- CD20+ Cells -->
      <g style="fill: #333333" transform="translate(24.333152 78.266166) rotate(-90) scale(0.035 -0.035)">
       <defs>
        <path id="Helvetica-43" d="M 2422 4716 
Q 3294 4716 3775 4256 
Q 4256 3797 4309 3213 
L 3703 3213 
Q 3600 3656 3292 3915 
Q 2984 4175 2428 4175 
Q 1750 4175 1333 3698 
Q 916 3222 916 2238 
Q 916 1431 1292 929 
Q 1669 428 2416 428 
Q 3103 428 3463 956 
Q 3653 1234 3747 1688 
L 4353 1688 
Q 4272 963 3816 472 
Q 3269 -119 2341 -119 
Q 1541 -119 997 366 
Q 281 1006 281 2344 
Q 281 3359 819 4009 
Q 1400 4716 2422 4716 
z
M 2297 4716 
L 2297 4716 
z
" transform="scale(0.015625)"/>
        <path id="Helvetica-44" d="M 2250 531 
Q 2566 531 2769 597 
Q 3131 719 3363 1066 
Q 3547 1344 3628 1778 
Q 3675 2038 3675 2259 
Q 3675 3113 3336 3584 
Q 2997 4056 2244 4056 
L 1141 4056 
L 1141 531 
L 2250 531 
z
M 516 4591 
L 2375 4591 
Q 3322 4591 3844 3919 
Q 4309 3313 4309 2366 
Q 4309 1634 4034 1044 
Q 3550 0 2369 0 
L 516 0 
L 516 4591 
z
" transform="scale(0.015625)"/>
        <path id="Helvetica-32" d="M 200 0 
Q 231 578 439 1006 
Q 647 1434 1250 1784 
L 1850 2131 
Q 2253 2366 2416 2531 
Q 2672 2791 2672 3125 
Q 2672 3516 2437 3745 
Q 2203 3975 1813 3975 
Q 1234 3975 1013 3538 
Q 894 3303 881 2888 
L 309 2888 
Q 319 3472 525 3841 
Q 891 4491 1816 4491 
Q 2584 4491 2939 4075 
Q 3294 3659 3294 3150 
Q 3294 2613 2916 2231 
Q 2697 2009 2131 1694 
L 1703 1456 
Q 1397 1288 1222 1134 
Q 909 863 828 531 
L 3272 531 
L 3272 0 
L 200 0 
z
" transform="scale(0.015625)"/>
        <path id="Helvetica-30" d="M 1731 4475 
Q 2600 4475 2988 3759 
Q 3288 3206 3288 2244 
Q 3288 1331 3016 734 
Q 2622 -122 1728 -122 
Q 922 -122 528 578 
Q 200 1163 200 2147 
Q 200 2909 397 3456 
Q 766 4475 1731 4475 
z
M 1725 391 
Q 2163 391 2422 778 
Q 2681 1166 2681 2222 
Q 2681 2984 2493 3476 
Q 2306 3969 1766 3969 
Q 1269 3969 1039 3501 
Q 809 3034 809 2125 
Q 809 1441 956 1025 
Q 1181 391 1725 391 
z
" transform="scale(0.015625)"/>
        <path id="Helvetica-2b" d="M 288 1369 
L 288 1894 
L 1650 1894 
L 1650 3266 
L 2184 3266 
L 2184 1894 
L 3547 1894 
L 3547 1369 
L 2184 1369 
L 2184 0 
L 1650 0 
L 1650 1369 
L 288 1369 
z
" transform="scale(0.015625)"/>
        <path id="Helvetica-20" transform="scale(0.015625)"/>
        <path id="Helvetica-65" d="M 1806 3422 
Q 2163 3422 2497 3255 
Q 2831 3088 3006 2822 
Q 3175 2569 3231 2231 
Q 3281 2000 3281 1494 
L 828 1494 
Q 844 984 1069 676 
Q 1294 369 1766 369 
Q 2206 369 2469 659 
Q 2619 828 2681 1050 
L 3234 1050 
Q 3213 866 3089 639 
Q 2966 413 2813 269 
Q 2556 19 2178 -69 
Q 1975 -119 1719 -119 
Q 1094 -119 659 336 
Q 225 791 225 1609 
Q 225 2416 662 2919 
Q 1100 3422 1806 3422 
z
M 2703 1941 
Q 2669 2306 2544 2525 
Q 2313 2931 1772 2931 
Q 1384 2931 1121 2651 
Q 859 2372 844 1941 
L 2703 1941 
z
M 1753 3428 
L 1753 3428 
z
" transform="scale(0.015625)"/>
        <path id="Helvetica-6c" d="M 428 4591 
L 991 4591 
L 991 0 
L 428 0 
L 428 4591 
z
" transform="scale(0.015625)"/>
        <path id="Helvetica-73" d="M 747 1050 
Q 772 769 888 619 
Q 1100 347 1625 347 
Q 1938 347 2175 483 
Q 2413 619 2413 903 
Q 2413 1119 2222 1231 
Q 2100 1300 1741 1391 
L 1294 1503 
Q 866 1609 663 1741 
Q 300 1969 300 2372 
Q 300 2847 642 3140 
Q 984 3434 1563 3434 
Q 2319 3434 2653 2991 
Q 2863 2709 2856 2384 
L 2325 2384 
Q 2309 2575 2191 2731 
Q 1997 2953 1519 2953 
Q 1200 2953 1036 2831 
Q 872 2709 872 2509 
Q 872 2291 1088 2159 
Q 1213 2081 1456 2022 
L 1828 1931 
Q 2434 1784 2641 1647 
Q 2969 1431 2969 969 
Q 2969 522 2630 197 
Q 2291 -128 1597 -128 
Q 850 -128 539 211 
Q 228 550 206 1050 
L 747 1050 
z
M 1578 3428 
L 1578 3428 
z
" transform="scale(0.015625)"/>
       </defs>
       <use xlink:href="#Helvetica-43"/>
       <use xlink:href="#Helvetica-44" x="72.216797"/>
       <use xlink:href="#Helvetica-32" x="144.433594"/>
       <use xlink:href="#Helvetica-30" x="200.048828"/>
       <use xlink:href="#Helvetica-2b" x="255.664062"/>
       <use xlink:href="#Helvetica-20" x="314.0625"/>
       <use xlink:href="#Helvetica-43" x="341.845703"/>
       <use xlink:href="#Helvetica-65" x="414.0625"/>
       <use xlink:href="#Helvetica-6c" x="469.677734"/>
       <use xlink:href="#Helvetica-6c" x="491.894531"/>
       <use xlink:href="#Helvetica-73" x="514.111328"/>
      </g>
     </g>
    </g>
    <g id="xtick_2">
     <g id="text_2">
      <!-- TCRαδ+ Cells -->
      <g style="fill: #333333" transform="translate(51.208116 80.786713) rotate(-90) scale(0.035 -0.035)">
       <defs>
        <path id="Helvetica-54" d="M 3828 4591 
L 3828 4044 
L 2281 4044 
L 2281 0 
L 1650 0 
L 1650 4044 
L 103 4044 
L 103 4591 
L 3828 4591 
z
" transform="scale(0.015625)"/>
        <path id="Helvetica-52" d="M 2622 2488 
Q 3059 2488 3314 2663 
Q 3569 2838 3569 3294 
Q 3569 3784 3213 3963 
Q 3022 4056 2703 4056 
L 1184 4056 
L 1184 2488 
L 2622 2488 
z
M 563 4591 
L 2688 4591 
Q 3213 4591 3553 4438 
Q 4200 4144 4200 3353 
Q 4200 2941 4029 2678 
Q 3859 2416 3553 2256 
Q 3822 2147 3958 1969 
Q 4094 1791 4109 1391 
L 4131 775 
Q 4141 513 4175 384 
Q 4231 166 4375 103 
L 4375 0 
L 3613 0 
Q 3581 59 3562 153 
Q 3544 247 3531 516 
L 3494 1281 
Q 3472 1731 3159 1884 
Q 2981 1969 2600 1969 
L 1184 1969 
L 1184 0 
L 563 0 
L 563 4591 
z
" transform="scale(0.015625)"/>
        <path id="Helvetica-3b1" d="M 3347 703 
Q 3334 428 3525 434 
Q 3641 434 3700 475 
L 3700 -19 
Q 3628 -44 3513 -50 
Q 3391 -63 3309 -63 
Q 3084 -56 2956 103 
Q 2816 256 2816 475 
L 2803 475 
Q 2413 -63 1734 -63 
Q 1006 -50 647 459 
Q 281 953 281 1644 
Q 281 2350 634 2859 
Q 984 3378 1741 3391 
Q 2413 3391 2797 2847 
L 2809 2847 
L 2809 3328 
L 3347 3328 
L 3347 703 
z
M 1825 397 
Q 2075 397 2253 513 
Q 2425 622 2541 806 
Q 2766 1184 2766 1638 
Q 2766 2144 2559 2528 
Q 2350 2919 1797 2931 
Q 1306 2919 1081 2534 
Q 856 2156 856 1697 
Q 856 1209 1081 819 
Q 1306 409 1825 397 
z
" transform="scale(0.015625)"/>
        <path id="Helvetica-3b4" d="M 666 4519 
L 3188 4519 
L 3188 4056 
L 1394 4056 
L 1394 4044 
L 2509 3303 
Q 3134 2881 3372 2469 
Q 3591 2053 3584 1600 
Q 3578 934 3163 447 
Q 2738 -50 1938 -63 
Q 1203 -56 769 403 
Q 331 850 325 1556 
Q 341 3066 1863 3188 
L 1863 3200 
L 666 4056 
L 666 4519 
z
M 1991 397 
Q 2497 403 2731 794 
Q 2969 1166 2969 1606 
Q 2969 1856 2919 2041 
Q 2866 2222 2791 2344 
Q 2713 2463 2638 2541 
Q 2559 2619 2509 2650 
Q 2381 2766 2156 2766 
Q 947 2766 941 1528 
Q 941 1056 1216 738 
Q 1491 403 1991 397 
z
" transform="scale(0.015625)"/>
       </defs>
       <use xlink:href="#Helvetica-54"/>
       <use xlink:href="#Helvetica-43" x="61.083984"/>
       <use xlink:href="#Helvetica-52" x="133.300781"/>
       <use xlink:href="#Helvetica-3b1" x="205.517578"/>
       <use xlink:href="#Helvetica-3b4" x="266.601562"/>
       <use xlink:href="#Helvetica-2b" x="327.685547"/>
       <use xlink:href="#Helvetica-20" x="386.083984"/>
       <use xlink:href="#Helvetica-43" x="413.867188"/>
       <use xlink:href="#Helvetica-65" x="486.083984"/>
       <use xlink:href="#Helvetica-6c" x="541.699219"/>
       <use xlink:href="#Helvetica-6c" x="563.916016"/>
       <use xlink:href="#Helvetica-73" x="586.132812"/>
      </g>
     </g>
    </g>
    <g id="xtick_3">
     <g id="text_3">
      <!-- IL7R+ Cells -->
      <g style="fill: #333333" transform="translate(78.08308 76.710854) rotate(-90) scale(0.035 -0.035)">
       <defs>
        <path id="Helvetica-49" d="M 628 4591 
L 1256 4591 
L 1256 0 
L 628 0 
L 628 4591 
z
" transform="scale(0.015625)"/>
        <path id="Helvetica-4c" d="M 488 4591 
L 1109 4591 
L 1109 547 
L 3434 547 
L 3434 0 
L 488 0 
L 488 4591 
z
" transform="scale(0.015625)"/>
        <path id="Helvetica-37" d="M 3347 4400 
L 3347 3909 
Q 3131 3700 2773 3181 
Q 2416 2663 2141 2063 
Q 1869 1478 1728 997 
Q 1638 688 1494 0 
L 872 0 
Q 1084 1281 1809 2550 
Q 2238 3294 2709 3834 
L 234 3834 
L 234 4400 
L 3347 4400 
z
" transform="scale(0.015625)"/>
       </defs>
       <use xlink:href="#Helvetica-49"/>
       <use xlink:href="#Helvetica-4c" x="27.783203"/>
       <use xlink:href="#Helvetica-37" x="83.398438"/>
       <use xlink:href="#Helvetica-52" x="139.013672"/>
       <use xlink:href="#Helvetica-2b" x="211.230469"/>
       <use xlink:href="#Helvetica-20" x="269.628906"/>
       <use xlink:href="#Helvetica-43" x="297.412109"/>
       <use xlink:href="#Helvetica-65" x="369.628906"/>
       <use xlink:href="#Helvetica-6c" x="425.244141"/>
       <use xlink:href="#Helvetica-6c" x="447.460938"/>
       <use xlink:href="#Helvetica-73" x="469.677734"/>
      </g>
     </g>
    </g>
    <g id="xtick_4">
     <g id="text_4">
      <!-- EOMES+ Cells -->
      <g style="fill: #333333" transform="translate(104.958044 81.95976) rotate(-90) scale(0.035 -0.035)">
       <defs>
        <path id="Helvetica-45" d="M 547 4591 
L 3894 4591 
L 3894 4028 
L 1153 4028 
L 1153 2634 
L 3688 2634 
L 3688 2103 
L 1153 2103 
L 1153 547 
L 3941 547 
L 3941 0 
L 547 0 
L 547 4591 
z
M 2244 4591 
L 2244 4591 
z
" transform="scale(0.015625)"/>
        <path id="Helvetica-4f" d="M 2469 4716 
Q 3684 4716 4269 3934 
Q 4725 3325 4725 2375 
Q 4725 1347 4203 666 
Q 3591 -134 2456 -134 
Q 1397 -134 791 566 
Q 250 1241 250 2272 
Q 250 3203 713 3866 
Q 1306 4716 2469 4716 
z
M 2531 422 
Q 3353 422 3720 1011 
Q 4088 1600 4088 2366 
Q 4088 3175 3664 3669 
Q 3241 4163 2506 4163 
Q 1794 4163 1344 3673 
Q 894 3184 894 2231 
Q 894 1469 1280 945 
Q 1666 422 2531 422 
z
M 2488 4716 
L 2488 4716 
z
" transform="scale(0.015625)"/>
        <path id="Helvetica-4d" d="M 472 4591 
L 1363 4591 
L 2681 709 
L 3991 4591 
L 4872 4591 
L 4872 0 
L 4281 0 
L 4281 2709 
Q 4281 2850 4287 3175 
Q 4294 3500 4294 3872 
L 2984 0 
L 2369 0 
L 1050 3872 
L 1050 3731 
Q 1050 3563 1058 3217 
Q 1066 2872 1066 2709 
L 1066 0 
L 472 0 
L 472 4591 
z
" transform="scale(0.015625)"/>
        <path id="Helvetica-53" d="M 894 1481 
Q 916 1091 1078 847 
Q 1388 391 2169 391 
Q 2519 391 2806 491 
Q 3363 684 3363 1184 
Q 3363 1559 3128 1719 
Q 2891 1875 2384 1991 
L 1763 2131 
Q 1153 2269 900 2434 
Q 463 2722 463 3294 
Q 463 3913 891 4309 
Q 1319 4706 2103 4706 
Q 2825 4706 3329 4357 
Q 3834 4009 3834 3244 
L 3250 3244 
Q 3203 3613 3050 3809 
Q 2766 4169 2084 4169 
Q 1534 4169 1293 3937 
Q 1053 3706 1053 3400 
Q 1053 3063 1334 2906 
Q 1519 2806 2169 2656 
L 2813 2509 
Q 3278 2403 3531 2219 
Q 3969 1897 3969 1284 
Q 3969 522 3414 194 
Q 2859 -134 2125 -134 
Q 1269 -134 784 303 
Q 300 738 309 1481 
L 894 1481 
z
M 2150 4716 
L 2150 4716 
z
" transform="scale(0.015625)"/>
       </defs>
       <use xlink:href="#Helvetica-45"/>
       <use xlink:href="#Helvetica-4f" x="66.699219"/>
       <use xlink:href="#Helvetica-4d" x="144.482422"/>
       <use xlink:href="#Helvetica-45" x="227.783203"/>
       <use xlink:href="#Helvetica-53" x="294.482422"/>
       <use xlink:href="#Helvetica-2b" x="361.181641"/>
       <use xlink:href="#Helvetica-20" x="419.580078"/>
       <use xlink:href="#Helvetica-43" x="447.363281"/>
       <use xlink:href="#Helvetica-65" x="519.580078"/>
       <use xlink:href="#Helvetica-6c" x="575.195312"/>
       <use xlink:href="#Helvetica-6c" x="597.412109"/>
       <use xlink:href="#Helvetica-73" x="619.628906"/>
      </g>
     </g>
    </g>
    <g id="xtick_5">
     <g id="text_5">
      <!-- TBX+ Cells -->
      <g style="fill: #333333" transform="translate(131.833008 76.125151) rotate(-90) scale(0.035 -0.035)">
       <defs>
        <path id="Helvetica-42" d="M 2213 2650 
Q 2606 2650 2825 2759 
Q 3169 2931 3169 3378 
Q 3169 3828 2803 3984 
Q 2597 4072 2191 4072 
L 1081 4072 
L 1081 2650 
L 2213 2650 
z
M 2422 531 
Q 2994 531 3238 863 
Q 3391 1072 3391 1369 
Q 3391 1869 2944 2050 
Q 2706 2147 2316 2147 
L 1081 2147 
L 1081 531 
L 2422 531 
z
M 472 4591 
L 2444 4591 
Q 3250 4591 3591 4109 
Q 3791 3825 3791 3453 
Q 3791 3019 3544 2741 
Q 3416 2594 3175 2472 
Q 3528 2338 3703 2169 
Q 4013 1869 4013 1341 
Q 4013 897 3734 538 
Q 3319 0 2413 0 
L 472 0 
L 472 4591 
z
" transform="scale(0.015625)"/>
        <path id="Helvetica-58" d="M 881 0 
L 131 0 
L 1775 2353 
L 234 4591 
L 1013 4591 
L 2184 2834 
L 3347 4591 
L 4088 4591 
L 2547 2353 
L 4163 0 
L 3391 0 
L 2153 1888 
L 881 0 
z
" transform="scale(0.015625)"/>
       </defs>
       <use xlink:href="#Helvetica-54"/>
       <use xlink:href="#Helvetica-42" x="61.083984"/>
       <use xlink:href="#Helvetica-58" x="127.783203"/>
       <use xlink:href="#Helvetica-2b" x="194.482422"/>
       <use xlink:href="#Helvetica-20" x="252.880859"/>
       <use xlink:href="#Helvetica-43" x="280.664062"/>
       <use xlink:href="#Helvetica-65" x="352.880859"/>
       <use xlink:href="#Helvetica-6c" x="408.496094"/>
       <use xlink:href="#Helvetica-6c" x="430.712891"/>
       <use xlink:href="#Helvetica-73" x="452.929688"/>
      </g>
     </g>
    </g>
    <g id="xtick_6">
     <g id="text_6">
      <!-- GATA+ Cells -->
      <g style="fill: #333333" transform="translate(158.707972 78.847494) rotate(-90) scale(0.035 -0.035)">
       <defs>
        <path id="Helvetica-47" d="M 2472 4709 
Q 3119 4709 3591 4459 
Q 4275 4100 4428 3200 
L 3813 3200 
Q 3700 3703 3347 3933 
Q 2994 4163 2456 4163 
Q 1819 4163 1383 3684 
Q 947 3206 947 2259 
Q 947 1441 1306 927 
Q 1666 413 2478 413 
Q 3100 413 3508 773 
Q 3916 1134 3925 1941 
L 2488 1941 
L 2488 2456 
L 4503 2456 
L 4503 0 
L 4103 0 
L 3953 591 
Q 3638 244 3394 109 
Q 2984 -122 2353 -122 
Q 1538 -122 950 406 
Q 309 1069 309 2225 
Q 309 3378 934 4059 
Q 1528 4709 2472 4709 
z
M 2369 4716 
L 2369 4716 
z
" transform="scale(0.015625)"/>
        <path id="Helvetica-41" d="M 2844 1881 
L 2147 3909 
L 1406 1881 
L 2844 1881 
z
M 1822 4591 
L 2525 4591 
L 4191 0 
L 3509 0 
L 3044 1375 
L 1228 1375 
L 731 0 
L 94 0 
L 1822 4591 
z
" transform="scale(0.015625)"/>
       </defs>
       <use xlink:href="#Helvetica-47"/>
       <use xlink:href="#Helvetica-41" x="77.783203"/>
       <use xlink:href="#Helvetica-54" x="144.482422"/>
       <use xlink:href="#Helvetica-41" x="205.566406"/>
       <use xlink:href="#Helvetica-2b" x="272.265625"/>
       <use xlink:href="#Helvetica-20" x="330.664062"/>
       <use xlink:href="#Helvetica-43" x="358.447266"/>
       <use xlink:href="#Helvetica-65" x="430.664062"/>
       <use xlink:href="#Helvetica-6c" x="486.279297"/>
       <use xlink:href="#Helvetica-6c" x="508.496094"/>
       <use xlink:href="#Helvetica-73" x="530.712891"/>
      </g>
     </g>
    </g>
    <g id="xtick_7">
     <g id="text_7">
      <!-- ICOS+ Cells -->
      <g style="fill: #333333" transform="translate(185.582936 77.875151) rotate(-90) scale(0.035 -0.035)">
       <use xlink:href="#Helvetica-49"/>
       <use xlink:href="#Helvetica-43" x="27.783203"/>
       <use xlink:href="#Helvetica-4f" x="100"/>
       <use xlink:href="#Helvetica-53" x="177.783203"/>
       <use xlink:href="#Helvetica-2b" x="244.482422"/>
       <use xlink:href="#Helvetica-20" x="302.880859"/>
       <use xlink:href="#Helvetica-43" x="330.664062"/>
       <use xlink:href="#Helvetica-65" x="402.880859"/>
       <use xlink:href="#Helvetica-6c" x="458.496094"/>
       <use xlink:href="#Helvetica-6c" x="480.712891"/>
       <use xlink:href="#Helvetica-73" x="502.929688"/>
      </g>
     </g>
    </g>
    <g id="xtick_8">
     <g id="text_8">
      <!-- RORγT+ Cells -->
      <g style="fill: #333333" transform="translate(212.469931 81.179916) rotate(-90) scale(0.035 -0.035)">
       <defs>
        <path id="Helvetica-3b3" d="M 1556 225 
L 581 2444 
Q 481 2700 416 2803 
Q 347 2894 244 2894 
Q 91 2888 56 2872 
L 56 3334 
Q 166 3384 313 3391 
Q 641 3391 788 3250 
Q 863 3188 922 3078 
Q 978 2963 1038 2809 
L 1844 878 
L 2828 3328 
L 3431 3328 
L 2131 225 
L 2131 -1253 
L 1556 -1253 
L 1556 225 
z
" transform="scale(0.015625)"/>
       </defs>
       <use xlink:href="#Helvetica-52"/>
       <use xlink:href="#Helvetica-4f" x="72.216797"/>
       <use xlink:href="#Helvetica-52" x="150"/>
       <use xlink:href="#Helvetica-3b3" x="222.216797"/>
       <use xlink:href="#Helvetica-54" x="277.832031"/>
       <use xlink:href="#Helvetica-2b" x="338.916016"/>
       <use xlink:href="#Helvetica-20" x="397.314453"/>
       <use xlink:href="#Helvetica-43" x="425.097656"/>
       <use xlink:href="#Helvetica-65" x="497.314453"/>
       <use xlink:href="#Helvetica-6c" x="552.929688"/>
       <use xlink:href="#Helvetica-6c" x="575.146484"/>
       <use xlink:href="#Helvetica-73" x="597.363281"/>
      </g>
     </g>
    </g>
    <g id="xtick_9">
     <g id="text_9">
      <!-- AHR+ Cells -->
      <g style="fill: #333333" transform="translate(239.332864 76.708119) rotate(-90) scale(0.035 -0.035)">
       <defs>
        <path id="Helvetica-48" d="M 503 4591 
L 1131 4591 
L 1131 2694 
L 3519 2694 
L 3519 4591 
L 4147 4591 
L 4147 0 
L 3519 0 
L 3519 2147 
L 1131 2147 
L 1131 0 
L 503 0 
L 503 4591 
z
" transform="scale(0.015625)"/>
       </defs>
       <use xlink:href="#Helvetica-41"/>
       <use xlink:href="#Helvetica-48" x="66.699219"/>
       <use xlink:href="#Helvetica-52" x="138.916016"/>
       <use xlink:href="#Helvetica-2b" x="211.132812"/>
       <use xlink:href="#Helvetica-20" x="269.53125"/>
       <use xlink:href="#Helvetica-43" x="297.314453"/>
       <use xlink:href="#Helvetica-65" x="369.53125"/>
       <use xlink:href="#Helvetica-6c" x="425.146484"/>
       <use xlink:href="#Helvetica-6c" x="447.363281"/>
       <use xlink:href="#Helvetica-73" x="469.580078"/>
      </g>
     </g>
    </g>
   </g>
   <g id="matplotlib.axis_2">
    <g id="ytick_1">
     <g id="line2d_1">
      <defs>
       <path id="ma2b6590546" d="M 0 0 
L -1 0 
" style="stroke: #777777; stroke-width: 0.5"/>
      </defs>
      <g>
       <use xlink:href="#ma2b6590546" x="10.005084" y="48.355357" style="fill: #777777; stroke: #777777; stroke-width: 0.5"/>
      </g>
     </g>
     <g id="text_10">
      <!-- 0 -->
      <g style="fill: #333333" transform="translate(6.336803 49.431373) scale(0.03 -0.03)">
       <use xlink:href="#Helvetica-30"/>
      </g>
     </g>
    </g>
    <g id="ytick_2">
     <g id="line2d_2">
      <g>
       <use xlink:href="#ma2b6590546" x="10.005084" y="40.975507" style="fill: #777777; stroke: #777777; stroke-width: 0.5"/>
      </g>
     </g>
     <g id="text_11">
      <!-- 20 -->
      <g style="fill: #333333" transform="translate(4.668521 42.051523) scale(0.03 -0.03)">
       <use xlink:href="#Helvetica-32"/>
       <use xlink:href="#Helvetica-30" x="55.615234"/>
      </g>
     </g>
    </g>
    <g id="ytick_3">
     <g id="line2d_3">
      <g>
       <use xlink:href="#ma2b6590546" x="10.005084" y="33.595657" style="fill: #777777; stroke: #777777; stroke-width: 0.5"/>
      </g>
     </g>
     <g id="text_12">
      <!-- 40 -->
      <g style="fill: #333333" transform="translate(4.668521 34.671672) scale(0.03 -0.03)">
       <defs>
        <path id="Helvetica-34" d="M 2116 1584 
L 2116 3613 
L 681 1584 
L 2116 1584 
z
M 2125 0 
L 2125 1094 
L 163 1094 
L 163 1644 
L 2213 4488 
L 2688 4488 
L 2688 1584 
L 3347 1584 
L 3347 1094 
L 2688 1094 
L 2688 0 
L 2125 0 
z
" transform="scale(0.015625)"/>
       </defs>
       <use xlink:href="#Helvetica-34"/>
       <use xlink:href="#Helvetica-30" x="55.615234"/>
      </g>
     </g>
    </g>
    <g id="ytick_4">
     <g id="line2d_4">
      <g>
       <use xlink:href="#ma2b6590546" x="10.005084" y="26.215806" style="fill: #777777; stroke: #777777; stroke-width: 0.5"/>
      </g>
     </g>
     <g id="text_13">
      <!-- 60 -->
      <g style="fill: #333333" transform="translate(4.668521 27.291822) scale(0.03 -0.03)">
       <defs>
        <path id="Helvetica-36" d="M 1872 4494 
Q 2622 4494 2917 4105 
Q 3213 3716 3213 3303 
L 2656 3303 
Q 2606 3569 2497 3719 
Q 2294 4000 1881 4000 
Q 1409 4000 1131 3564 
Q 853 3128 822 2316 
Q 1016 2600 1309 2741 
Q 1578 2866 1909 2866 
Q 2472 2866 2890 2506 
Q 3309 2147 3309 1434 
Q 3309 825 2912 354 
Q 2516 -116 1781 -116 
Q 1153 -116 697 361 
Q 241 838 241 1966 
Q 241 2800 444 3381 
Q 834 4494 1872 4494 
z
M 1831 384 
Q 2275 384 2495 682 
Q 2716 981 2716 1388 
Q 2716 1731 2519 2042 
Q 2322 2353 1803 2353 
Q 1441 2353 1167 2112 
Q 894 1872 894 1388 
Q 894 963 1142 673 
Q 1391 384 1831 384 
z
" transform="scale(0.015625)"/>
       </defs>
       <use xlink:href="#Helvetica-36"/>
       <use xlink:href="#Helvetica-30" x="55.615234"/>
      </g>
     </g>
    </g>
    <g id="ytick_5">
     <g id="line2d_5">
      <g>
       <use xlink:href="#ma2b6590546" x="10.005084" y="18.835956" style="fill: #777777; stroke: #777777; stroke-width: 0.5"/>
      </g>
     </g>
     <g id="text_14">
      <!-- 80 -->
      <g style="fill: #333333" transform="translate(4.668521 19.911972) scale(0.03 -0.03)">
       <defs>
        <path id="Helvetica-38" d="M 1741 2600 
Q 2113 2600 2322 2808 
Q 2531 3016 2531 3303 
Q 2531 3553 2331 3762 
Q 2131 3972 1722 3972 
Q 1316 3972 1134 3762 
Q 953 3553 953 3272 
Q 953 2956 1187 2778 
Q 1422 2600 1741 2600 
z
M 1775 384 
Q 2166 384 2423 595 
Q 2681 806 2681 1225 
Q 2681 1659 2415 1884 
Q 2150 2109 1734 2109 
Q 1331 2109 1076 1879 
Q 822 1650 822 1244 
Q 822 894 1055 639 
Q 1288 384 1775 384 
z
M 975 2384 
Q 741 2484 609 2619 
Q 363 2869 363 3269 
Q 363 3769 725 4128 
Q 1088 4488 1753 4488 
Q 2397 4488 2762 4148 
Q 3128 3809 3128 3356 
Q 3128 2938 2916 2678 
Q 2797 2531 2547 2391 
Q 2825 2263 2984 2097 
Q 3281 1784 3281 1284 
Q 3281 694 2884 283 
Q 2488 -128 1763 -128 
Q 1109 -128 657 226 
Q 206 581 206 1256 
Q 206 1653 400 1942 
Q 594 2231 975 2384 
z
" transform="scale(0.015625)"/>
       </defs>
       <use xlink:href="#Helvetica-38"/>
       <use xlink:href="#Helvetica-30" x="55.615234"/>
      </g>
     </g>
    </g>
    <g id="ytick_6">
     <g id="line2d_6">
      <g>
       <use xlink:href="#ma2b6590546" x="10.005084" y="11.456106" style="fill: #777777; stroke: #777777; stroke-width: 0.5"/>
      </g>
     </g>
     <g id="text_15">
      <!-- 100 -->
      <g style="fill: #333333" transform="translate(3.00024 12.532122) scale(0.03 -0.03)">
       <defs>
        <path id="Helvetica-31" d="M 613 3169 
L 613 3600 
Q 1222 3659 1462 3798 
Q 1703 3938 1822 4456 
L 2266 4456 
L 2266 0 
L 1666 0 
L 1666 3169 
L 613 3169 
z
" transform="scale(0.015625)"/>
       </defs>
       <use xlink:href="#Helvetica-31"/>
       <use xlink:href="#Helvetica-30" x="55.615234"/>
       <use xlink:href="#Helvetica-30" x="111.230469"/>
      </g>
     </g>
    </g>
    <g id="ytick_7">
     <g id="line2d_7">
      <g>
       <use xlink:href="#ma2b6590546" x="10.005084" y="4.076256" style="fill: #777777; stroke: #777777; stroke-width: 0.5"/>
      </g>
     </g>
     <g id="text_16">
      <!-- 120 -->
      <g style="fill: #333333" transform="translate(3.00024 5.152271) scale(0.03 -0.03)">
       <use xlink:href="#Helvetica-31"/>
       <use xlink:href="#Helvetica-32" x="55.615234"/>
       <use xlink:href="#Helvetica-30" x="111.230469"/>
      </g>
     </g>
    </g>
   </g>
   <g id="PolyCollection_1">
    <defs>
     <path id="m17a1e65d8c" d="M 24.034323 -37.709475 
L 22.850809 -37.709475 
L 22.668193 -37.803334 
L 22.4506 -37.897193 
L 22.197064 -37.991052 
L 21.907482 -38.084911 
L 21.582335 -38.17877 
L 21.22227 -38.272629 
L 20.827678 -38.366488 
L 20.398394 -38.460347 
L 19.933654 -38.554206 
L 19.432422 -38.648065 
L 18.89411 -38.741924 
L 18.319632 -38.835783 
L 17.712616 -38.929642 
L 17.080533 -39.023501 
L 16.435438 -39.11736 
L 15.794074 -39.211219 
L 15.177128 -39.305078 
L 14.607597 -39.398937 
L 14.108385 -39.492796 
L 13.699415 -39.586655 
L 13.39468 -39.680514 
L 13.199732 -39.774373 
L 13.110089 -39.868232 
L 13.110948 -39.962091 
L 13.178385 -40.05595 
L 13.282031 -40.149809 
L 13.388945 -40.243668 
L 13.468187 -40.337527 
L 13.495458 -40.431386 
L 13.457096 -40.525245 
L 13.352739 -40.619104 
L 13.196165 -40.712963 
L 13.014013 -40.806822 
L 12.842449 -40.900681 
L 12.722188 -40.99454 
L 12.69258 -41.088399 
L 12.78569 -41.182258 
L 13.021348 -41.276117 
L 13.404004 -41.369976 
L 13.92192 -41.463835 
L 14.548787 -41.557694 
L 15.247443 -41.651553 
L 15.974969 -41.745412 
L 16.688237 -41.839271 
L 17.349012 -41.93313 
L 17.92783 -42.026989 
L 18.406222 -42.120848 
L 18.777186 -42.214707 
L 19.044105 -42.308566 
L 19.218537 -42.402425 
L 19.317367 -42.496284 
L 19.359827 -42.590142 
L 19.36478 -42.684001 
L 19.348572 -42.77786 
L 19.32361 -42.871719 
L 19.297766 -42.965578 
L 19.274564 -43.059437 
L 19.25406 -43.153296 
L 19.234226 -43.247155 
L 19.212595 -43.341014 
L 19.187852 -43.434873 
L 19.161114 -43.528732 
L 19.136622 -43.622591 
L 19.12174 -43.71645 
L 19.126231 -43.810309 
L 19.160956 -43.904168 
L 19.23622 -43.998027 
L 19.360073 -44.091886 
L 19.536877 -44.185745 
L 19.766365 -44.279604 
L 20.043354 -44.373463 
L 20.358123 -44.467322 
L 20.697381 -44.561181 
L 21.045613 -44.65504 
L 21.386618 -44.748899 
L 21.704979 -44.842758 
L 21.987318 -44.936617 
L 22.223209 -45.030476 
L 22.405728 -45.124335 
L 22.531678 -45.218194 
L 22.601535 -45.312053 
L 22.619221 -45.405912 
L 22.591723 -45.499771 
L 22.528598 -45.59363 
L 22.441338 -45.687489 
L 22.342602 -45.781348 
L 22.245291 -45.875207 
L 22.161536 -45.969066 
L 22.101666 -46.062925 
L 22.073304 -46.156784 
L 22.080713 -46.250643 
L 22.124525 -46.344502 
L 22.201891 -46.438361 
L 22.307058 -46.53222 
L 22.432257 -46.626079 
L 22.568771 -46.719938 
L 22.707995 -46.813797 
L 22.842342 -46.907656 
L 22.96587 -47.001515 
L 23.919262 -47.001515 
L 23.919262 -47.001515 
L 24.04279 -46.907656 
L 24.177137 -46.813797 
L 24.316361 -46.719938 
L 24.452875 -46.626079 
L 24.578074 -46.53222 
L 24.68324 -46.438361 
L 24.760606 -46.344502 
L 24.804418 -46.250643 
L 24.811828 -46.156784 
L 24.783466 -46.062925 
L 24.723596 -45.969066 
L 24.639841 -45.875207 
L 24.54253 -45.781348 
L 24.443793 -45.687489 
L 24.356534 -45.59363 
L 24.293408 -45.499771 
L 24.265911 -45.405912 
L 24.283597 -45.312053 
L 24.353454 -45.218194 
L 24.479403 -45.124335 
L 24.661923 -45.030476 
L 24.897814 -44.936617 
L 25.180153 -44.842758 
L 25.498514 -44.748899 
L 25.839518 -44.65504 
L 26.187751 -44.561181 
L 26.527008 -44.467322 
L 26.841778 -44.373463 
L 27.118766 -44.279604 
L 27.348254 -44.185745 
L 27.525059 -44.091886 
L 27.648912 -43.998027 
L 27.724175 -43.904168 
L 27.7589 -43.810309 
L 27.763392 -43.71645 
L 27.748509 -43.622591 
L 27.724017 -43.528732 
L 27.697279 -43.434873 
L 27.672537 -43.341014 
L 27.650905 -43.247155 
L 27.631072 -43.153296 
L 27.610567 -43.059437 
L 27.587365 -42.965578 
L 27.561521 -42.871719 
L 27.53656 -42.77786 
L 27.520351 -42.684001 
L 27.525305 -42.590142 
L 27.567764 -42.496284 
L 27.666594 -42.402425 
L 27.841026 -42.308566 
L 28.107946 -42.214707 
L 28.478909 -42.120848 
L 28.957301 -42.026989 
L 29.536119 -41.93313 
L 30.196895 -41.839271 
L 30.910163 -41.745412 
L 31.637688 -41.651553 
L 32.336345 -41.557694 
L 32.963212 -41.463835 
L 33.481127 -41.369976 
L 33.863784 -41.276117 
L 34.099442 -41.182258 
L 34.192551 -41.088399 
L 34.162943 -40.99454 
L 34.042682 -40.900681 
L 33.871118 -40.806822 
L 33.688966 -40.712963 
L 33.532393 -40.619104 
L 33.428036 -40.525245 
L 33.389673 -40.431386 
L 33.416945 -40.337527 
L 33.496186 -40.243668 
L 33.6031 -40.149809 
L 33.706746 -40.05595 
L 33.774183 -39.962091 
L 33.775042 -39.868232 
L 33.6854 -39.774373 
L 33.490451 -39.680514 
L 33.185716 -39.586655 
L 32.776746 -39.492796 
L 32.277534 -39.398937 
L 31.708003 -39.305078 
L 31.091057 -39.211219 
L 30.449694 -39.11736 
L 29.804599 -39.023501 
L 29.172515 -38.929642 
L 28.565499 -38.835783 
L 27.991021 -38.741924 
L 27.452709 -38.648065 
L 26.951477 -38.554206 
L 26.486737 -38.460347 
L 26.057453 -38.366488 
L 25.662862 -38.272629 
L 25.302796 -38.17877 
L 24.977649 -38.084911 
L 24.688068 -37.991052 
L 24.434531 -37.897193 
L 24.216939 -37.803334 
L 24.034323 -37.709475 
z
" style="stroke: #6f6f6f; stroke-width: 0.15"/>
    </defs>
    <g clip-path="url(#p255baa7067)">
     <use xlink:href="#m17a1e65d8c" x="0" y="84.96" style="fill: #abc9ea; stroke: #6f6f6f; stroke-width: 0.15"/>
    </g>
   </g>
   <g id="PolyCollection_2">
    <defs>
     <path id="m044b487daf" d="M 51.157435 -37.28122 
L 49.477625 -37.28122 
L 49.245587 -37.48147 
L 48.972183 -37.681719 
L 48.656229 -37.881969 
L 48.297933 -38.082219 
L 47.898991 -38.282469 
L 47.462578 -38.482719 
L 46.993244 -38.682968 
L 46.496726 -38.883218 
L 45.979719 -39.083468 
L 45.449628 -39.283718 
L 44.914326 -39.483967 
L 44.381929 -39.684217 
L 43.860582 -39.884467 
L 43.358233 -40.084717 
L 42.882362 -40.284967 
L 42.439659 -40.485216 
L 42.035625 -40.685466 
L 41.674141 -40.885716 
L 41.357054 -41.085966 
L 41.083868 -41.286215 
L 40.851628 -41.486465 
L 40.655096 -41.686715 
L 40.487272 -41.886965 
L 40.340258 -42.087214 
L 40.2064 -42.287464 
L 40.079597 -42.487714 
L 39.956561 -42.687964 
L 39.837851 -42.888214 
L 39.728453 -43.088463 
L 39.637771 -43.288713 
L 39.578943 -43.488963 
L 39.567544 -43.689213 
L 39.619786 -43.889462 
L 39.750484 -44.089712 
L 39.971065 -44.289962 
L 40.287919 -44.490212 
L 40.701332 -44.690462 
L 41.20518 -44.890711 
L 41.787389 -45.090961 
L 42.431093 -45.291211 
L 43.116279 -45.491461 
L 43.821669 -45.69171 
L 44.526554 -45.89196 
L 45.212346 -46.09221 
L 45.863669 -46.29246 
L 46.468915 -46.492709 
L 47.020276 -46.692959 
L 47.513356 -46.893209 
L 47.946481 -47.093459 
L 48.319887 -47.293709 
L 48.634904 -47.493958 
L 48.893268 -47.694208 
L 49.096618 -47.894458 
L 49.246201 -48.094708 
L 49.342791 -48.294957 
L 49.386774 -48.495207 
L 49.378372 -48.695457 
L 49.317942 -48.895707 
L 49.206323 -49.095957 
L 49.045168 -49.296206 
L 48.837239 -49.496456 
L 48.586633 -49.696706 
L 48.298912 -49.896956 
L 47.98112 -50.097205 
L 47.641693 -50.297455 
L 47.290262 -50.497705 
L 46.937355 -50.697955 
L 46.594021 -50.898205 
L 46.271405 -51.098454 
L 45.980278 -51.298704 
L 45.730548 -51.498954 
L 45.530773 -51.699204 
L 45.387704 -51.899453 
L 45.305872 -52.099703 
L 45.287278 -52.299953 
L 45.331206 -52.500203 
L 45.434221 -52.700452 
L 45.590366 -52.900702 
L 45.791578 -53.100952 
L 46.028297 -53.301202 
L 46.290208 -53.501452 
L 46.567056 -53.701701 
L 46.849413 -53.901951 
L 47.129317 -54.102201 
L 47.400696 -54.302451 
L 47.659535 -54.5027 
L 47.903775 -54.70295 
L 48.132996 -54.9032 
L 48.347941 -55.10345 
L 48.54998 -55.3037 
L 48.740605 -55.503949 
L 48.921024 -55.704199 
L 49.09191 -55.904449 
L 49.253319 -56.104699 
L 49.40475 -56.304948 
L 49.54532 -56.505198 
L 49.673996 -56.705448 
L 49.789829 -56.905698 
L 49.892153 -57.105947 
L 50.742907 -57.105947 
L 50.742907 -57.105947 
L 50.845231 -56.905698 
L 50.961064 -56.705448 
L 51.089739 -56.505198 
L 51.23031 -56.304948 
L 51.381741 -56.104699 
L 51.54315 -55.904449 
L 51.714036 -55.704199 
L 51.894454 -55.503949 
L 52.085079 -55.3037 
L 52.287118 -55.10345 
L 52.502063 -54.9032 
L 52.731284 -54.70295 
L 52.975524 -54.5027 
L 53.234363 -54.302451 
L 53.505743 -54.102201 
L 53.785647 -53.901951 
L 54.068004 -53.701701 
L 54.344852 -53.501452 
L 54.606763 -53.301202 
L 54.843481 -53.100952 
L 55.044694 -52.900702 
L 55.200839 -52.700452 
L 55.303853 -52.500203 
L 55.347781 -52.299953 
L 55.329187 -52.099703 
L 55.247356 -51.899453 
L 55.104287 -51.699204 
L 54.904512 -51.498954 
L 54.654781 -51.298704 
L 54.363654 -51.098454 
L 54.041039 -50.898205 
L 53.697705 -50.697955 
L 53.344797 -50.497705 
L 52.993366 -50.297455 
L 52.65394 -50.097205 
L 52.336147 -49.896956 
L 52.048426 -49.696706 
L 51.797821 -49.496456 
L 51.589892 -49.296206 
L 51.428736 -49.095957 
L 51.317118 -48.895707 
L 51.256688 -48.695457 
L 51.248286 -48.495207 
L 51.292269 -48.294957 
L 51.388859 -48.094708 
L 51.538442 -47.894458 
L 51.741792 -47.694208 
L 52.000156 -47.493958 
L 52.315172 -47.293709 
L 52.688578 -47.093459 
L 53.121704 -46.893209 
L 53.614784 -46.692959 
L 54.166145 -46.492709 
L 54.77139 -46.29246 
L 55.422713 -46.09221 
L 56.108506 -45.89196 
L 56.813391 -45.69171 
L 57.51878 -45.491461 
L 58.203966 -45.291211 
L 58.84767 -45.090961 
L 59.42988 -44.890711 
L 59.933728 -44.690462 
L 60.347141 -44.490212 
L 60.663994 -44.289962 
L 60.884576 -44.089712 
L 61.015274 -43.889462 
L 61.067515 -43.689213 
L 61.056116 -43.488963 
L 60.997289 -43.288713 
L 60.906606 -43.088463 
L 60.797209 -42.888214 
L 60.678499 -42.687964 
L 60.555463 -42.487714 
L 60.42866 -42.287464 
L 60.294802 -42.087214 
L 60.147787 -41.886965 
L 59.979964 -41.686715 
L 59.783432 -41.486465 
L 59.551191 -41.286215 
L 59.278005 -41.085966 
L 58.960919 -40.885716 
L 58.599435 -40.685466 
L 58.195401 -40.485216 
L 57.752698 -40.284967 
L 57.276827 -40.084717 
L 56.774477 -39.884467 
L 56.25313 -39.684217 
L 55.720733 -39.483967 
L 55.185431 -39.283718 
L 54.655341 -39.083468 
L 54.138334 -38.883218 
L 53.641816 -38.682968 
L 53.172481 -38.482719 
L 52.736069 -38.282469 
L 52.337126 -38.082219 
L 51.97883 -37.881969 
L 51.662876 -37.681719 
L 51.389472 -37.48147 
L 51.157435 -37.28122 
z
" style="stroke: #6f6f6f; stroke-width: 0.15"/>
    </defs>
    <g clip-path="url(#p255baa7067)">
     <use xlink:href="#m044b487daf" x="0" y="84.96" style="fill: #efb792; stroke: #6f6f6f; stroke-width: 0.15"/>
    </g>
   </g>
   <g id="PolyCollection_3">
    <defs>
     <path id="m2601b88187" d="M 77.675675 -42.829692 
L 76.709313 -42.829692 
L 76.587477 -43.012052 
L 76.450431 -43.194413 
L 76.30033 -43.376774 
L 76.140141 -43.559134 
L 75.973352 -43.741495 
L 75.803564 -43.923856 
L 75.634018 -44.106216 
L 75.46711 -44.288577 
L 75.303972 -44.470937 
L 75.144189 -44.653298 
L 74.985685 -44.835659 
L 74.824813 -45.018019 
L 74.656638 -45.20038 
L 74.475393 -45.382741 
L 74.275066 -45.565101 
L 74.050089 -45.747462 
L 73.796073 -45.929822 
L 73.510553 -46.112183 
L 73.1937 -46.294544 
L 72.848915 -46.476904 
L 72.483243 -46.659265 
L 72.107493 -46.841626 
L 71.735972 -47.023986 
L 71.38576 -47.206347 
L 71.075505 -47.388707 
L 70.823793 -47.571068 
L 70.647231 -47.753429 
L 70.558469 -47.935789 
L 70.564432 -48.11815 
L 70.665042 -48.300511 
L 70.852684 -48.482871 
L 71.112536 -48.665232 
L 71.423815 -48.847592 
L 71.761792 -49.029953 
L 72.100346 -49.212314 
L 72.414713 -49.394674 
L 72.68406 -49.577035 
L 72.893529 -49.759395 
L 73.035479 -49.941756 
L 73.10975 -50.124117 
L 73.122947 -50.306477 
L 73.08683 -50.488838 
L 73.016069 -50.671199 
L 72.925669 -50.853559 
L 72.828447 -51.03592 
L 72.732916 -51.21828 
L 72.641898 -51.400641 
L 72.552062 -51.583002 
L 72.454478 -51.765362 
L 72.336106 -51.947723 
L 72.182002 -52.130084 
L 71.977912 -52.312444 
L 71.712825 -52.494805 
L 71.381093 -52.677165 
L 70.983761 -52.859526 
L 70.52888 -53.041887 
L 70.03078 -53.224247 
L 69.508421 -53.406608 
L 68.983136 -53.588969 
L 68.476152 -53.771329 
L 68.006341 -53.95369 
L 67.588531 -54.13605 
L 67.232647 -54.318411 
L 66.943719 -54.500772 
L 66.722664 -54.683132 
L 66.567581 -54.865493 
L 66.475249 -55.047854 
L 66.442508 -55.230214 
L 66.467252 -55.412575 
L 66.548904 -55.594935 
L 66.688338 -55.777296 
L 66.887335 -55.959657 
L 67.147722 -56.142017 
L 67.470402 -56.324378 
L 67.854438 -56.506739 
L 68.296365 -56.689099 
L 68.789827 -56.87146 
L 69.325598 -57.05382 
L 69.891985 -57.236181 
L 70.475572 -57.418542 
L 71.062214 -57.600902 
L 71.638163 -57.783263 
L 72.191173 -57.965624 
L 72.711436 -58.147984 
L 73.192229 -58.330345 
L 73.630163 -58.512705 
L 74.025035 -58.695066 
L 74.379296 -58.877427 
L 74.697253 -59.059787 
L 74.984144 -59.242148 
L 75.245239 -59.424508 
L 75.485102 -59.606869 
L 75.707114 -59.78923 
L 75.913291 -59.97159 
L 76.104375 -60.153951 
L 76.280132 -60.336312 
L 76.439767 -60.518672 
L 76.582357 -60.701033 
L 76.707217 -60.883393 
L 77.677771 -60.883393 
L 77.677771 -60.883393 
L 77.802631 -60.701033 
L 77.94522 -60.518672 
L 78.104856 -60.336312 
L 78.280613 -60.153951 
L 78.471696 -59.97159 
L 78.677873 -59.78923 
L 78.899886 -59.606869 
L 79.139749 -59.424508 
L 79.400844 -59.242148 
L 79.687735 -59.059787 
L 80.005692 -58.877427 
L 80.359952 -58.695066 
L 80.754824 -58.512705 
L 81.192759 -58.330345 
L 81.673551 -58.147984 
L 82.193815 -57.965624 
L 82.746825 -57.783263 
L 83.322774 -57.600902 
L 83.909416 -57.418542 
L 84.493002 -57.236181 
L 85.059389 -57.05382 
L 85.595161 -56.87146 
L 86.088623 -56.689099 
L 86.53055 -56.506739 
L 86.914585 -56.324378 
L 87.237265 -56.142017 
L 87.497653 -55.959657 
L 87.69665 -55.777296 
L 87.836084 -55.594935 
L 87.917736 -55.412575 
L 87.942479 -55.230214 
L 87.909738 -55.047854 
L 87.817407 -54.865493 
L 87.662323 -54.683132 
L 87.441268 -54.500772 
L 87.152341 -54.318411 
L 86.796457 -54.13605 
L 86.378647 -53.95369 
L 85.908835 -53.771329 
L 85.401852 -53.588969 
L 84.876566 -53.406608 
L 84.354208 -53.224247 
L 83.856108 -53.041887 
L 83.401227 -52.859526 
L 83.003894 -52.677165 
L 82.672163 -52.494805 
L 82.407076 -52.312444 
L 82.202986 -52.130084 
L 82.048882 -51.947723 
L 81.930509 -51.765362 
L 81.832926 -51.583002 
L 81.74309 -51.400641 
L 81.652072 -51.21828 
L 81.556541 -51.03592 
L 81.459318 -50.853559 
L 81.368918 -50.671199 
L 81.298157 -50.488838 
L 81.262041 -50.306477 
L 81.275238 -50.124117 
L 81.349509 -49.941756 
L 81.491458 -49.759395 
L 81.700928 -49.577035 
L 81.970274 -49.394674 
L 82.284641 -49.212314 
L 82.623195 -49.029953 
L 82.961173 -48.847592 
L 83.272452 -48.665232 
L 83.532304 -48.482871 
L 83.719945 -48.300511 
L 83.820556 -48.11815 
L 83.826518 -47.935789 
L 83.737756 -47.753429 
L 83.561195 -47.571068 
L 83.309483 -47.388707 
L 82.999228 -47.206347 
L 82.649016 -47.023986 
L 82.277494 -46.841626 
L 81.901744 -46.659265 
L 81.536072 -46.476904 
L 81.191287 -46.294544 
L 80.874434 -46.112183 
L 80.588915 -45.929822 
L 80.334899 -45.747462 
L 80.109922 -45.565101 
L 79.909595 -45.382741 
L 79.728349 -45.20038 
L 79.560174 -45.018019 
L 79.399302 -44.835659 
L 79.240798 -44.653298 
L 79.081016 -44.470937 
L 78.917878 -44.288577 
L 78.750969 -44.106216 
L 78.581424 -43.923856 
L 78.411636 -43.741495 
L 78.244847 -43.559134 
L 78.084658 -43.376774 
L 77.934557 -43.194413 
L 77.79751 -43.012052 
L 77.675675 -42.829692 
z
" style="stroke: #6f6f6f; stroke-width: 0.15"/>
    </defs>
    <g clip-path="url(#p255baa7067)">
     <use xlink:href="#m2601b88187" x="0" y="84.96" style="fill: #98daa7; stroke: #6f6f6f; stroke-width: 0.15"/>
    </g>
   </g>
   <g id="PolyCollection_4">
    <defs>
     <path id="m100acf3095" d="M 105.138155 -36.644318 
L 102.996761 -36.644318 
L 102.77763 -36.652374 
L 102.52989 -36.660431 
L 102.253052 -36.668487 
L 101.947127 -36.676544 
L 101.612625 -36.684601 
L 101.250531 -36.692657 
L 100.862263 -36.700714 
L 100.449631 -36.708771 
L 100.0148 -36.716827 
L 99.56027 -36.724884 
L 99.08888 -36.73294 
L 98.603841 -36.740997 
L 98.108788 -36.749054 
L 97.607857 -36.75711 
L 97.105753 -36.765167 
L 96.607809 -36.773223 
L 96.120005 -36.78128 
L 95.648933 -36.789337 
L 95.201699 -36.797393 
L 94.785747 -36.80545 
L 94.408621 -36.813506 
L 94.077669 -36.821563 
L 93.799709 -36.82962 
L 93.580692 -36.837676 
L 93.425381 -36.845733 
L 93.337088 -36.853789 
L 93.317472 -36.861846 
L 93.366439 -36.869903 
L 93.48213 -36.877959 
L 93.661007 -36.886016 
L 93.898019 -36.894073 
L 94.186833 -36.902129 
L 94.520107 -36.910186 
L 94.889783 -36.918242 
L 95.287377 -36.926299 
L 95.704261 -36.934356 
L 96.131914 -36.942412 
L 96.562147 -36.950469 
L 96.98731 -36.958525 
L 97.400461 -36.966582 
L 97.795538 -36.974639 
L 98.167501 -36.982695 
L 98.512466 -36.990752 
L 98.827812 -36.998808 
L 99.112267 -37.006865 
L 99.365935 -37.014922 
L 99.590277 -37.022978 
L 99.788018 -37.031035 
L 99.96298 -37.039091 
L 100.119846 -37.047148 
L 100.263853 -37.055205 
L 100.400447 -37.063261 
L 100.534912 -37.071318 
L 100.672014 -37.079375 
L 100.815672 -37.087431 
L 100.968703 -37.095488 
L 101.132652 -37.103544 
L 101.307708 -37.111601 
L 101.492738 -37.119658 
L 101.685391 -37.127714 
L 101.882301 -37.135771 
L 102.079325 -37.143827 
L 102.271821 -37.151884 
L 102.454935 -37.159941 
L 102.623859 -37.167997 
L 102.774074 -37.176054 
L 102.901545 -37.18411 
L 103.002871 -37.192167 
L 103.075403 -37.200224 
L 103.117322 -37.20828 
L 103.127694 -37.216337 
L 103.106506 -37.224393 
L 103.054692 -37.23245 
L 102.974136 -37.240507 
L 102.867676 -37.248563 
L 102.73907 -37.25662 
L 102.592942 -37.264677 
L 102.43468 -37.272733 
L 102.270296 -37.28079 
L 102.10623 -37.288846 
L 101.949106 -37.296903 
L 101.805453 -37.30496 
L 101.681404 -37.313016 
L 101.582388 -37.321073 
L 101.512847 -37.329129 
L 101.475994 -37.337186 
L 101.473644 -37.345243 
L 101.506126 -37.353299 
L 101.572284 -37.361356 
L 101.669583 -37.369412 
L 101.794284 -37.377469 
L 101.94171 -37.385526 
L 102.10654 -37.393582 
L 102.283138 -37.401639 
L 102.465874 -37.409695 
L 102.649416 -37.417752 
L 102.828975 -37.425809 
L 103.000488 -37.433865 
L 103.160734 -37.441922 
L 104.974181 -37.441922 
L 104.974181 -37.441922 
L 105.134427 -37.433865 
L 105.305941 -37.425809 
L 105.4855 -37.417752 
L 105.669042 -37.409695 
L 105.851778 -37.401639 
L 106.028376 -37.393582 
L 106.193206 -37.385526 
L 106.340631 -37.377469 
L 106.465333 -37.369412 
L 106.562631 -37.361356 
L 106.62879 -37.353299 
L 106.661272 -37.345243 
L 106.658922 -37.337186 
L 106.622069 -37.329129 
L 106.552527 -37.321073 
L 106.453512 -37.313016 
L 106.329463 -37.30496 
L 106.18581 -37.296903 
L 106.028686 -37.288846 
L 105.864619 -37.28079 
L 105.700236 -37.272733 
L 105.541974 -37.264677 
L 105.395845 -37.25662 
L 105.267239 -37.248563 
L 105.160779 -37.240507 
L 105.080224 -37.23245 
L 105.028409 -37.224393 
L 105.007222 -37.216337 
L 105.017594 -37.20828 
L 105.059513 -37.200224 
L 105.132045 -37.192167 
L 105.233371 -37.18411 
L 105.360842 -37.176054 
L 105.511057 -37.167997 
L 105.679981 -37.159941 
L 105.863094 -37.151884 
L 106.055591 -37.143827 
L 106.252614 -37.135771 
L 106.449524 -37.127714 
L 106.642178 -37.119658 
L 106.827207 -37.111601 
L 107.002264 -37.103544 
L 107.166212 -37.095488 
L 107.319244 -37.087431 
L 107.462902 -37.079375 
L 107.600003 -37.071318 
L 107.734469 -37.063261 
L 107.871063 -37.055205 
L 108.01507 -37.047148 
L 108.171936 -37.039091 
L 108.346898 -37.031035 
L 108.544639 -37.022978 
L 108.76898 -37.014922 
L 109.022648 -37.006865 
L 109.307103 -36.998808 
L 109.62245 -36.990752 
L 109.967415 -36.982695 
L 110.339378 -36.974639 
L 110.734455 -36.966582 
L 111.147606 -36.958525 
L 111.572768 -36.950469 
L 112.003002 -36.942412 
L 112.430655 -36.934356 
L 112.847539 -36.926299 
L 113.245133 -36.918242 
L 113.614809 -36.910186 
L 113.948083 -36.902129 
L 114.236897 -36.894073 
L 114.473909 -36.886016 
L 114.652786 -36.877959 
L 114.768477 -36.869903 
L 114.817443 -36.861846 
L 114.797828 -36.853789 
L 114.709534 -36.845733 
L 114.554224 -36.837676 
L 114.335207 -36.82962 
L 114.057247 -36.821563 
L 113.726295 -36.813506 
L 113.349169 -36.80545 
L 112.933217 -36.797393 
L 112.485982 -36.789337 
L 112.014911 -36.78128 
L 111.527106 -36.773223 
L 111.029163 -36.765167 
L 110.527059 -36.75711 
L 110.026127 -36.749054 
L 109.531075 -36.740997 
L 109.046035 -36.73294 
L 108.574646 -36.724884 
L 108.120116 -36.716827 
L 107.685285 -36.708771 
L 107.272653 -36.700714 
L 106.884385 -36.692657 
L 106.52229 -36.684601 
L 106.187789 -36.676544 
L 105.881864 -36.668487 
L 105.605026 -36.660431 
L 105.357286 -36.652374 
L 105.138155 -36.644318 
z
" style="stroke: #6f6f6f; stroke-width: 0.15"/>
    </defs>
    <g clip-path="url(#p255baa7067)">
     <use xlink:href="#m100acf3095" x="0" y="84.96" style="fill: #f2aba8; stroke: #6f6f6f; stroke-width: 0.15"/>
    </g>
   </g>
   <g id="PolyCollection_5">
    <defs>
     <path id="m2535241086" d="M 132.802908 -36.456906 
L 129.081936 -36.456906 
L 128.695831 -36.483224 
L 128.259874 -36.509542 
L 127.774853 -36.53586 
L 127.24337 -36.562178 
L 126.670008 -36.588496 
L 126.061411 -36.614813 
L 125.426255 -36.641131 
L 124.775098 -36.667449 
L 124.12011 -36.693767 
L 123.474674 -36.720085 
L 122.852895 -36.746403 
L 122.269022 -36.772721 
L 121.736827 -36.799039 
L 121.268975 -36.825357 
L 120.876427 -36.851675 
L 120.567912 -36.877993 
L 120.349501 -36.904311 
L 120.224327 -36.930629 
L 120.192436 -36.956947 
L 120.250813 -36.983265 
L 120.393549 -37.009583 
L 120.612154 -37.035901 
L 120.895981 -37.062219 
L 121.232748 -37.088537 
L 121.609105 -37.114855 
L 122.011241 -37.141173 
L 122.425471 -37.167491 
L 122.838802 -37.193809 
L 123.239438 -37.220127 
L 123.61721 -37.246445 
L 123.963918 -37.272763 
L 124.273569 -37.299081 
L 124.542518 -37.325399 
L 124.76949 -37.351717 
L 124.955508 -37.378035 
L 125.10371 -37.404353 
L 125.219077 -37.430671 
L 125.308091 -37.456989 
L 125.378317 -37.483307 
L 125.437957 -37.509625 
L 125.495383 -37.535943 
L 125.558675 -37.562261 
L 125.635191 -37.588579 
L 125.731202 -37.614897 
L 125.851592 -37.641215 
L 125.999654 -37.667533 
L 126.176984 -37.693851 
L 126.383482 -37.720169 
L 126.617442 -37.746486 
L 126.875734 -37.772804 
L 127.154052 -37.799122 
L 127.447209 -37.82544 
L 127.749461 -37.851758 
L 128.054828 -37.878076 
L 128.357396 -37.904394 
L 128.651583 -37.930712 
L 128.932351 -37.95703 
L 129.195357 -37.983348 
L 129.437037 -38.009666 
L 129.654637 -38.035984 
L 129.846181 -38.062302 
L 130.0104 -38.08862 
L 130.146632 -38.114938 
L 130.254704 -38.141256 
L 130.334815 -38.167574 
L 130.387436 -38.193892 
L 130.413225 -38.22021 
L 130.412982 -38.246528 
L 130.387634 -38.272846 
L 130.338257 -38.299164 
L 130.266124 -38.325482 
L 130.172779 -38.3518 
L 130.060125 -38.378118 
L 129.930498 -38.404436 
L 129.786739 -38.430754 
L 129.632228 -38.457072 
L 129.470879 -38.48339 
L 129.307093 -38.509708 
L 129.145652 -38.536026 
L 128.991566 -38.562344 
L 128.849884 -38.588662 
L 128.725465 -38.61498 
L 128.622742 -38.641298 
L 128.545491 -38.667616 
L 128.49662 -38.693934 
L 128.478007 -38.720252 
L 128.490389 -38.74657 
L 128.533324 -38.772888 
L 128.605224 -38.799206 
L 128.703454 -38.825524 
L 128.824496 -38.851842 
L 128.964162 -38.87816 
L 129.117832 -38.904477 
L 129.280707 -38.930795 
L 129.448057 -38.957113 
L 129.615438 -38.983431 
L 129.778876 -39.009749 
L 129.935003 -39.036067 
L 130.081139 -39.062385 
L 131.803705 -39.062385 
L 131.803705 -39.062385 
L 131.949841 -39.036067 
L 132.105968 -39.009749 
L 132.269406 -38.983431 
L 132.436786 -38.957113 
L 132.604136 -38.930795 
L 132.767012 -38.904477 
L 132.920682 -38.87816 
L 133.060348 -38.851842 
L 133.18139 -38.825524 
L 133.27962 -38.799206 
L 133.351519 -38.772888 
L 133.394455 -38.74657 
L 133.406837 -38.720252 
L 133.388224 -38.693934 
L 133.339353 -38.667616 
L 133.262102 -38.641298 
L 133.159379 -38.61498 
L 133.03496 -38.588662 
L 132.893278 -38.562344 
L 132.739192 -38.536026 
L 132.577751 -38.509708 
L 132.413965 -38.48339 
L 132.252616 -38.457072 
L 132.098105 -38.430754 
L 131.954346 -38.404436 
L 131.824719 -38.378118 
L 131.712064 -38.3518 
L 131.61872 -38.325482 
L 131.546587 -38.299164 
L 131.497209 -38.272846 
L 131.471862 -38.246528 
L 131.471619 -38.22021 
L 131.497408 -38.193892 
L 131.550029 -38.167574 
L 131.63014 -38.141256 
L 131.738212 -38.114938 
L 131.874443 -38.08862 
L 132.038663 -38.062302 
L 132.230207 -38.035984 
L 132.447807 -38.009666 
L 132.689487 -37.983348 
L 132.952492 -37.95703 
L 133.233261 -37.930712 
L 133.527448 -37.904394 
L 133.830016 -37.878076 
L 134.135383 -37.851758 
L 134.437635 -37.82544 
L 134.730792 -37.799122 
L 135.009109 -37.772804 
L 135.267401 -37.746486 
L 135.501361 -37.720169 
L 135.707859 -37.693851 
L 135.88519 -37.667533 
L 136.033251 -37.641215 
L 136.153641 -37.614897 
L 136.249653 -37.588579 
L 136.326169 -37.562261 
L 136.38946 -37.535943 
L 136.446887 -37.509625 
L 136.506527 -37.483307 
L 136.576753 -37.456989 
L 136.665766 -37.430671 
L 136.781134 -37.404353 
L 136.929335 -37.378035 
L 137.115353 -37.351717 
L 137.342326 -37.325399 
L 137.611274 -37.299081 
L 137.920926 -37.272763 
L 138.267633 -37.246445 
L 138.645406 -37.220127 
L 139.046042 -37.193809 
L 139.459373 -37.167491 
L 139.873603 -37.141173 
L 140.275738 -37.114855 
L 140.652096 -37.088537 
L 140.988863 -37.062219 
L 141.27269 -37.035901 
L 141.491295 -37.009583 
L 141.634031 -36.983265 
L 141.692407 -36.956947 
L 141.660517 -36.930629 
L 141.535342 -36.904311 
L 141.316932 -36.877993 
L 141.008416 -36.851675 
L 140.615869 -36.825357 
L 140.148017 -36.799039 
L 139.615822 -36.772721 
L 139.031949 -36.746403 
L 138.410169 -36.720085 
L 137.764734 -36.693767 
L 137.109745 -36.667449 
L 136.458589 -36.641131 
L 135.823433 -36.614813 
L 135.214836 -36.588496 
L 134.641474 -36.562178 
L 134.109991 -36.53586 
L 133.62497 -36.509542 
L 133.189013 -36.483224 
L 132.802908 -36.456906 
z
" style="stroke: #6f6f6f; stroke-width: 0.15"/>
    </defs>
    <g clip-path="url(#p255baa7067)">
     <use xlink:href="#m2535241086" x="0" y="84.96" style="fill: #d3c4f6; stroke: #6f6f6f; stroke-width: 0.15"/>
    </g>
   </g>
   <g id="PolyCollection_6">
    <defs>
     <path id="m3a7050700d" d="M 160.739015 -40.387187 
L 154.895757 -40.387187 
L 154.448055 -40.529314 
L 153.966854 -40.671441 
L 153.456372 -40.813568 
L 152.922094 -40.955695 
L 152.370695 -41.097822 
L 151.809898 -41.23995 
L 151.248276 -41.382077 
L 150.69499 -41.524204 
L 150.159488 -41.666331 
L 149.651176 -41.808458 
L 149.179074 -41.950585 
L 148.75148 -42.092712 
L 148.375667 -42.234839 
L 148.057613 -42.376966 
L 147.8018 -42.519093 
L 147.611072 -42.66122 
L 147.486571 -42.803347 
L 147.427746 -42.945474 
L 147.432428 -43.087602 
L 147.496969 -43.229729 
L 147.616422 -43.371856 
L 147.784768 -43.513983 
L 147.995148 -43.65611 
L 148.240118 -43.798237 
L 148.511895 -43.940364 
L 148.802582 -44.082491 
L 149.104393 -44.224618 
L 149.409836 -44.366745 
L 149.71188 -44.508872 
L 150.004096 -44.650999 
L 150.280769 -44.793126 
L 150.536977 -44.935254 
L 150.768655 -45.077381 
L 150.972617 -45.219508 
L 151.146559 -45.361635 
L 151.289025 -45.503762 
L 151.399349 -45.645889 
L 151.477565 -45.788016 
L 151.524299 -45.930143 
L 151.540638 -46.07227 
L 151.527995 -46.214397 
L 151.487973 -46.356524 
L 151.422239 -46.498651 
L 151.332429 -46.640778 
L 151.220072 -46.782905 
L 151.086566 -46.925033 
L 150.933189 -47.06716 
L 150.761146 -47.209287 
L 150.571662 -47.351414 
L 150.366084 -47.493541 
L 150.146004 -47.635668 
L 149.913366 -47.777795 
L 149.670558 -47.919922 
L 149.420455 -48.062049 
L 149.166421 -48.204176 
L 148.912249 -48.346303 
L 148.662043 -48.48843 
L 148.420052 -48.630557 
L 148.190462 -48.772685 
L 147.977167 -48.914812 
L 147.783541 -49.056939 
L 147.612238 -49.199066 
L 147.46503 -49.341193 
L 147.342717 -49.48332 
L 147.24511 -49.625447 
L 147.171106 -49.767574 
L 147.118838 -49.909701 
L 147.085899 -50.051828 
L 147.069625 -50.193955 
L 147.0674 -50.336082 
L 147.076973 -50.478209 
L 147.096735 -50.620337 
L 147.125956 -50.762464 
L 147.164936 -50.904591 
L 147.215067 -51.046718 
L 147.278789 -51.188845 
L 147.359455 -51.330972 
L 147.461102 -51.473099 
L 147.588144 -51.615226 
L 147.745035 -51.757353 
L 147.935894 -51.89948 
L 148.164155 -52.041607 
L 148.432253 -52.183734 
L 148.741369 -52.325861 
L 149.091264 -52.467988 
L 149.4802 -52.610116 
L 149.904968 -52.752243 
L 150.360996 -52.89437 
L 150.84255 -53.036497 
L 151.342993 -53.178624 
L 151.855088 -53.320751 
L 152.371328 -53.462878 
L 152.884259 -53.605005 
L 153.386781 -53.747132 
L 153.872415 -53.889259 
L 154.335513 -54.031386 
L 154.771412 -54.173513 
L 155.17652 -54.31564 
L 155.548349 -54.457768 
L 160.086422 -54.457768 
L 160.086422 -54.457768 
L 160.458252 -54.31564 
L 160.86336 -54.173513 
L 161.299259 -54.031386 
L 161.762356 -53.889259 
L 162.24799 -53.747132 
L 162.750513 -53.605005 
L 163.263443 -53.462878 
L 163.779684 -53.320751 
L 164.291779 -53.178624 
L 164.792222 -53.036497 
L 165.273776 -52.89437 
L 165.729804 -52.752243 
L 166.154572 -52.610116 
L 166.543508 -52.467988 
L 166.893402 -52.325861 
L 167.202518 -52.183734 
L 167.470616 -52.041607 
L 167.698878 -51.89948 
L 167.889737 -51.757353 
L 168.046627 -51.615226 
L 168.17367 -51.473099 
L 168.275317 -51.330972 
L 168.355983 -51.188845 
L 168.419705 -51.046718 
L 168.469835 -50.904591 
L 168.508816 -50.762464 
L 168.538037 -50.620337 
L 168.557799 -50.478209 
L 168.567372 -50.336082 
L 168.565147 -50.193955 
L 168.548873 -50.051828 
L 168.515934 -49.909701 
L 168.463665 -49.767574 
L 168.389662 -49.625447 
L 168.292055 -49.48332 
L 168.169741 -49.341193 
L 168.022533 -49.199066 
L 167.851231 -49.056939 
L 167.657605 -48.914812 
L 167.44431 -48.772685 
L 167.214719 -48.630557 
L 166.972729 -48.48843 
L 166.722523 -48.346303 
L 166.468351 -48.204176 
L 166.214317 -48.062049 
L 165.964214 -47.919922 
L 165.721406 -47.777795 
L 165.488768 -47.635668 
L 165.268688 -47.493541 
L 165.06311 -47.351414 
L 164.873625 -47.209287 
L 164.701583 -47.06716 
L 164.548206 -46.925033 
L 164.4147 -46.782905 
L 164.302343 -46.640778 
L 164.212532 -46.498651 
L 164.146799 -46.356524 
L 164.106776 -46.214397 
L 164.094133 -46.07227 
L 164.110472 -45.930143 
L 164.157206 -45.788016 
L 164.235423 -45.645889 
L 164.345747 -45.503762 
L 164.488213 -45.361635 
L 164.662155 -45.219508 
L 164.866117 -45.077381 
L 165.097795 -44.935254 
L 165.354003 -44.793126 
L 165.630676 -44.650999 
L 165.922892 -44.508872 
L 166.224936 -44.366745 
L 166.530379 -44.224618 
L 166.832189 -44.082491 
L 167.122877 -43.940364 
L 167.394653 -43.798237 
L 167.639624 -43.65611 
L 167.850004 -43.513983 
L 168.018349 -43.371856 
L 168.137803 -43.229729 
L 168.202343 -43.087602 
L 168.207026 -42.945474 
L 168.148201 -42.803347 
L 168.0237 -42.66122 
L 167.832971 -42.519093 
L 167.577158 -42.376966 
L 167.259105 -42.234839 
L 166.883292 -42.092712 
L 166.455698 -41.950585 
L 165.983596 -41.808458 
L 165.475284 -41.666331 
L 164.939782 -41.524204 
L 164.386496 -41.382077 
L 163.824874 -41.23995 
L 163.264077 -41.097822 
L 162.712677 -40.955695 
L 162.1784 -40.813568 
L 161.667918 -40.671441 
L 161.186717 -40.529314 
L 160.739015 -40.387187 
z
" style="stroke: #6f6f6f; stroke-width: 0.15"/>
    </defs>
    <g clip-path="url(#p255baa7067)">
     <use xlink:href="#m3a7050700d" x="0" y="84.96" style="fill: #d6bba3; stroke: #6f6f6f; stroke-width: 0.15"/>
    </g>
   </g>
   <g id="PolyCollection_7">
    <defs>
     <path id="m1e7f13084b" d="M 186.832334 -37.175465 
L 182.552366 -37.175465 
L 182.1923 -37.222099 
L 181.80065 -37.268733 
L 181.380764 -37.315366 
L 180.93733 -37.362 
L 180.476359 -37.408634 
L 180.005069 -37.455267 
L 179.53171 -37.501901 
L 179.065292 -37.548535 
L 178.61525 -37.595168 
L 178.191049 -37.641802 
L 177.801751 -37.688436 
L 177.455572 -37.735069 
L 177.159453 -37.781703 
L 176.918678 -37.828337 
L 176.73656 -37.87497 
L 176.61423 -37.921604 
L 176.550537 -37.968238 
L 176.542076 -38.014871 
L 176.583338 -38.061505 
L 176.666985 -38.108139 
L 176.784228 -38.154772 
L 176.925281 -38.201406 
L 177.079874 -38.24804 
L 177.23777 -38.294673 
L 177.389279 -38.341307 
L 177.525721 -38.387941 
L 177.639806 -38.434574 
L 177.72593 -38.481208 
L 177.780353 -38.527842 
L 177.801261 -38.574475 
L 177.788724 -38.621109 
L 177.74454 -38.667743 
L 177.672006 -38.714376 
L 177.575614 -38.76101 
L 177.46071 -38.807644 
L 177.333142 -38.854277 
L 177.198906 -38.900911 
L 177.063823 -38.947545 
L 176.933259 -38.994178 
L 176.811904 -39.040812 
L 176.703601 -39.087446 
L 176.611253 -39.134079 
L 176.536783 -39.180713 
L 176.481144 -39.227347 
L 176.444384 -39.27398 
L 176.425739 -39.320614 
L 176.423744 -39.367248 
L 176.436361 -39.413881 
L 176.461105 -39.460515 
L 176.495156 -39.507149 
L 176.535463 -39.553783 
L 176.578833 -39.600416 
L 176.62199 -39.64705 
L 176.66164 -39.693684 
L 176.694508 -39.740317 
L 176.717384 -39.786951 
L 176.727171 -39.833585 
L 176.720941 -39.880218 
L 176.696008 -39.926852 
L 176.65002 -39.973486 
L 176.581069 -40.020119 
L 176.487809 -40.066753 
L 176.369591 -40.113387 
L 176.226588 -40.16002 
L 176.059912 -40.206654 
L 175.871706 -40.253288 
L 175.665198 -40.299921 
L 175.444714 -40.346555 
L 175.215634 -40.393189 
L 174.984296 -40.439822 
L 174.757839 -40.486456 
L 174.543998 -40.53309 
L 174.350851 -40.579723 
L 174.186535 -40.626357 
L 174.058938 -40.672991 
L 173.975391 -40.719624 
L 173.942364 -40.766258 
L 173.9652 -40.812892 
L 174.047875 -40.859525 
L 174.192822 -40.906159 
L 174.400815 -40.952793 
L 174.670918 -40.999426 
L 175.000506 -41.04606 
L 175.385361 -41.092694 
L 175.819824 -41.139327 
L 176.297011 -41.185961 
L 176.809073 -41.232595 
L 177.347483 -41.279228 
L 177.903349 -41.325862 
L 178.467721 -41.372496 
L 179.031893 -41.419129 
L 179.587676 -41.465763 
L 180.127626 -41.512397 
L 180.645241 -41.55903 
L 181.135087 -41.605664 
L 181.592886 -41.652298 
L 182.015539 -41.698931 
L 182.4011 -41.745565 
L 182.748709 -41.792199 
L 186.635991 -41.792199 
L 186.635991 -41.792199 
L 186.9836 -41.745565 
L 187.369161 -41.698931 
L 187.791813 -41.652298 
L 188.249613 -41.605664 
L 188.739459 -41.55903 
L 189.257074 -41.512397 
L 189.797024 -41.465763 
L 190.352806 -41.419129 
L 190.916979 -41.372496 
L 191.481351 -41.325862 
L 192.037217 -41.279228 
L 192.575627 -41.232595 
L 193.087689 -41.185961 
L 193.564876 -41.139327 
L 193.999339 -41.092694 
L 194.384194 -41.04606 
L 194.713782 -40.999426 
L 194.983884 -40.952793 
L 195.191878 -40.906159 
L 195.336825 -40.859525 
L 195.4195 -40.812892 
L 195.442336 -40.766258 
L 195.409309 -40.719624 
L 195.325761 -40.672991 
L 195.198164 -40.626357 
L 195.033848 -40.579723 
L 194.840702 -40.53309 
L 194.626861 -40.486456 
L 194.400404 -40.439822 
L 194.169066 -40.393189 
L 193.939986 -40.346555 
L 193.719502 -40.299921 
L 193.512994 -40.253288 
L 193.324788 -40.206654 
L 193.158112 -40.16002 
L 193.015109 -40.113387 
L 192.896891 -40.066753 
L 192.803631 -40.020119 
L 192.73468 -39.973486 
L 192.688692 -39.926852 
L 192.663759 -39.880218 
L 192.657529 -39.833585 
L 192.667316 -39.786951 
L 192.690192 -39.740317 
L 192.72306 -39.693684 
L 192.762709 -39.64705 
L 192.805867 -39.600416 
L 192.849237 -39.553783 
L 192.889544 -39.507149 
L 192.923595 -39.460515 
L 192.948338 -39.413881 
L 192.960956 -39.367248 
L 192.958961 -39.320614 
L 192.940316 -39.27398 
L 192.903556 -39.227347 
L 192.847917 -39.180713 
L 192.773446 -39.134079 
L 192.681099 -39.087446 
L 192.572796 -39.040812 
L 192.451441 -38.994178 
L 192.320877 -38.947545 
L 192.185794 -38.900911 
L 192.051558 -38.854277 
L 191.92399 -38.807644 
L 191.809086 -38.76101 
L 191.712693 -38.714376 
L 191.640159 -38.667743 
L 191.595976 -38.621109 
L 191.583439 -38.574475 
L 191.604347 -38.527842 
L 191.65877 -38.481208 
L 191.744894 -38.434574 
L 191.858979 -38.387941 
L 191.99542 -38.341307 
L 192.14693 -38.294673 
L 192.304826 -38.24804 
L 192.459418 -38.201406 
L 192.600472 -38.154772 
L 192.717715 -38.108139 
L 192.801362 -38.061505 
L 192.842624 -38.014871 
L 192.834163 -37.968238 
L 192.77047 -37.921604 
L 192.64814 -37.87497 
L 192.466022 -37.828337 
L 192.225247 -37.781703 
L 191.929128 -37.735069 
L 191.582949 -37.688436 
L 191.193651 -37.641802 
L 190.76945 -37.595168 
L 190.319408 -37.548535 
L 189.85299 -37.501901 
L 189.379631 -37.455267 
L 188.908341 -37.408634 
L 188.447369 -37.362 
L 188.003936 -37.315366 
L 187.58405 -37.268733 
L 187.1924 -37.222099 
L 186.832334 -37.175465 
z
" style="stroke: #6f6f6f; stroke-width: 0.15"/>
    </defs>
    <g clip-path="url(#p255baa7067)">
     <use xlink:href="#m1e7f13084b" x="0" y="84.96" style="fill: #f1b9e0; stroke: #6f6f6f; stroke-width: 0.15"/>
    </g>
   </g>
   <g id="PolyCollection_8">
    <defs>
     <path id="m0647bacf05" d="M 213.133404 -36.551023 
L 210.001224 -36.551023 
L 209.695598 -36.576005 
L 209.354453 -36.600987 
L 208.978895 -36.625969 
L 208.571155 -36.650951 
L 208.134598 -36.675932 
L 207.673665 -36.700914 
L 207.193748 -36.725896 
L 206.700993 -36.750878 
L 206.202053 -36.77586 
L 205.7038 -36.800842 
L 205.213015 -36.825823 
L 204.73609 -36.850805 
L 204.278753 -36.875787 
L 203.845847 -36.900769 
L 203.441178 -36.925751 
L 203.067439 -36.950732 
L 202.726222 -36.975714 
L 202.418091 -37.000696 
L 202.142731 -37.025678 
L 201.89913 -37.05066 
L 201.685775 -37.075642 
L 201.500853 -37.100623 
L 201.342417 -37.125605 
L 201.208517 -37.150587 
L 201.097287 -37.175569 
L 201.006984 -37.200551 
L 200.935998 -37.225532 
L 200.882844 -37.250514 
L 200.84615 -37.275496 
L 200.824672 -37.300478 
L 200.817328 -37.32546 
L 200.823281 -37.350441 
L 200.84204 -37.375423 
L 200.873589 -37.400405 
L 200.918509 -37.425387 
L 200.978065 -37.450369 
L 201.05424 -37.475351 
L 201.149686 -37.500332 
L 201.267581 -37.525314 
L 201.411383 -37.550296 
L 201.584504 -37.575278 
L 201.789917 -37.60026 
L 202.029743 -37.625241 
L 202.304849 -37.650223 
L 202.614525 -37.675205 
L 202.956257 -37.700187 
L 203.325648 -37.725169 
L 203.716504 -37.750151 
L 204.121081 -37.775132 
L 204.530485 -37.800114 
L 204.935196 -37.825096 
L 205.325665 -37.850078 
L 205.692937 -37.87506 
L 206.029246 -37.900041 
L 206.328521 -37.925023 
L 206.586764 -37.950005 
L 206.802267 -37.974987 
L 206.975644 -37.999969 
L 207.109682 -38.02495 
L 207.209027 -38.049932 
L 207.279729 -38.074914 
L 207.328689 -38.099896 
L 207.363071 -38.124878 
L 207.389703 -38.14986 
L 207.414554 -38.174841 
L 207.4423 -38.199823 
L 207.476031 -38.224805 
L 207.517124 -38.249787 
L 207.565274 -38.274769 
L 207.618688 -38.29975 
L 207.674415 -38.324732 
L 207.728782 -38.349714 
L 207.777881 -38.374696 
L 207.818076 -38.399678 
L 207.84647 -38.42466 
L 207.861298 -38.449641 
L 207.862197 -38.474623 
L 207.850345 -38.499605 
L 207.828447 -38.524587 
L 207.800581 -38.549569 
L 207.771906 -38.57455 
L 207.748277 -38.599532 
L 207.735795 -38.624514 
L 207.740338 -38.649496 
L 207.767105 -38.674478 
L 207.82023 -38.699459 
L 207.902477 -38.724441 
L 208.015059 -38.749423 
L 208.157575 -38.774405 
L 208.328068 -38.799387 
L 208.5232 -38.824369 
L 208.738512 -38.84935 
L 208.968746 -38.874332 
L 209.208202 -38.899314 
L 209.451088 -38.924296 
L 209.691852 -38.949278 
L 209.925457 -38.974259 
L 210.147593 -38.999241 
L 210.354821 -39.024223 
L 212.779807 -39.024223 
L 212.779807 -39.024223 
L 212.987035 -38.999241 
L 213.209171 -38.974259 
L 213.442776 -38.949278 
L 213.68354 -38.924296 
L 213.926426 -38.899314 
L 214.165882 -38.874332 
L 214.396116 -38.84935 
L 214.611428 -38.824369 
L 214.80656 -38.799387 
L 214.977053 -38.774405 
L 215.119569 -38.749423 
L 215.232151 -38.724441 
L 215.314398 -38.699459 
L 215.367522 -38.674478 
L 215.39429 -38.649496 
L 215.398833 -38.624514 
L 215.386351 -38.599532 
L 215.362722 -38.57455 
L 215.334046 -38.549569 
L 215.30618 -38.524587 
L 215.284283 -38.499605 
L 215.272431 -38.474623 
L 215.27333 -38.449641 
L 215.288158 -38.42466 
L 215.316552 -38.399678 
L 215.356747 -38.374696 
L 215.405846 -38.349714 
L 215.460213 -38.324732 
L 215.51594 -38.29975 
L 215.569354 -38.274769 
L 215.617504 -38.249787 
L 215.658597 -38.224805 
L 215.692328 -38.199823 
L 215.720073 -38.174841 
L 215.744925 -38.14986 
L 215.771557 -38.124878 
L 215.805939 -38.099896 
L 215.854899 -38.074914 
L 215.925601 -38.049932 
L 216.024946 -38.02495 
L 216.158984 -37.999969 
L 216.332361 -37.974987 
L 216.547864 -37.950005 
L 216.806107 -37.925023 
L 217.105382 -37.900041 
L 217.441691 -37.87506 
L 217.808963 -37.850078 
L 218.199432 -37.825096 
L 218.604143 -37.800114 
L 219.013547 -37.775132 
L 219.418124 -37.750151 
L 219.80898 -37.725169 
L 220.178371 -37.700187 
L 220.520102 -37.675205 
L 220.829779 -37.650223 
L 221.104885 -37.625241 
L 221.344711 -37.60026 
L 221.550124 -37.575278 
L 221.723245 -37.550296 
L 221.867047 -37.525314 
L 221.984942 -37.500332 
L 222.080388 -37.475351 
L 222.156563 -37.450369 
L 222.216119 -37.425387 
L 222.261039 -37.400405 
L 222.292588 -37.375423 
L 222.311347 -37.350441 
L 222.3173 -37.32546 
L 222.309956 -37.300478 
L 222.288478 -37.275496 
L 222.251784 -37.250514 
L 222.19863 -37.225532 
L 222.127644 -37.200551 
L 222.037341 -37.175569 
L 221.926111 -37.150587 
L 221.792211 -37.125605 
L 221.633774 -37.100623 
L 221.448853 -37.075642 
L 221.235498 -37.05066 
L 220.991897 -37.025678 
L 220.716537 -37.000696 
L 220.408406 -36.975714 
L 220.067188 -36.950732 
L 219.69345 -36.925751 
L 219.288781 -36.900769 
L 218.855875 -36.875787 
L 218.398538 -36.850805 
L 217.921613 -36.825823 
L 217.430828 -36.800842 
L 216.932574 -36.77586 
L 216.433635 -36.750878 
L 215.94088 -36.725896 
L 215.460963 -36.700914 
L 215.00003 -36.675932 
L 214.563473 -36.650951 
L 214.155733 -36.625969 
L 213.780175 -36.600987 
L 213.43903 -36.576005 
L 213.133404 -36.551023 
z
" style="stroke: #6f6f6f; stroke-width: 0.15"/>
    </defs>
    <g clip-path="url(#p255baa7067)">
     <use xlink:href="#m0647bacf05" x="0" y="84.96" style="fill: #cfcfcf; stroke: #6f6f6f; stroke-width: 0.15"/>
    </g>
   </g>
   <g id="PolyCollection_9">
    <defs>
     <path id="medc18fb336" d="M 239.395456 -36.619641 
L 237.4891 -36.619641 
L 237.305948 -36.841447 
L 237.109122 -37.063254 
L 236.90302 -37.28506 
L 236.693208 -37.506867 
L 236.48621 -37.728673 
L 236.289175 -37.95048 
L 236.109445 -38.172286 
L 235.954055 -38.394093 
L 235.829197 -38.615899 
L 235.739707 -38.837706 
L 235.688614 -39.059513 
L 235.676805 -39.281319 
L 235.702842 -39.503126 
L 235.762945 -39.724932 
L 235.851152 -39.946739 
L 235.959641 -40.168545 
L 236.079185 -40.390352 
L 236.199698 -40.612158 
L 236.310824 -40.833965 
L 236.402529 -41.055771 
L 236.465628 -41.277578 
L 236.492236 -41.499384 
L 236.476093 -41.721191 
L 236.412756 -41.942998 
L 236.299654 -42.164804 
L 236.136016 -42.386611 
L 235.922682 -42.608417 
L 235.661842 -42.830224 
L 235.356722 -43.05203 
L 235.011261 -43.273837 
L 234.629828 -43.495643 
L 234.21699 -43.71745 
L 233.777376 -43.939256 
L 233.31563 -44.161063 
L 232.836461 -44.382869 
L 232.344762 -44.604676 
L 231.845763 -44.826483 
L 231.345176 -45.048289 
L 230.849301 -45.270096 
L 230.36503 -45.491902 
L 229.899759 -45.713709 
L 229.461183 -45.935515 
L 229.056999 -46.157322 
L 228.694567 -46.379128 
L 228.380551 -46.600935 
L 228.120624 -46.822741 
L 227.919257 -47.044548 
L 227.779636 -47.266354 
L 227.7037 -47.488161 
L 227.692292 -47.709967 
L 227.745376 -47.931774 
L 227.862267 -48.153581 
L 228.041823 -48.375387 
L 228.282553 -48.597194 
L 228.582605 -48.819 
L 228.93964 -49.040807 
L 229.350617 -49.262613 
L 229.811526 -49.48442 
L 230.317124 -49.706226 
L 230.860752 -49.928033 
L 231.43426 -50.149839 
L 232.028085 -50.371646 
L 232.631494 -50.593452 
L 233.232957 -50.815259 
L 233.820635 -51.037066 
L 234.382915 -51.258872 
L 234.90894 -51.480679 
L 235.389087 -51.702485 
L 235.815348 -51.924292 
L 236.181594 -52.146098 
L 236.483722 -52.367905 
L 236.719689 -52.589711 
L 236.889463 -52.811518 
L 236.994915 -53.033324 
L 237.039674 -53.255131 
L 237.028969 -53.476937 
L 236.969459 -53.698744 
L 236.869057 -53.920551 
L 236.736726 -54.142357 
L 236.582236 -54.364164 
L 236.415882 -54.58597 
L 236.248129 -54.807777 
L 236.089216 -55.029583 
L 235.948712 -55.25139 
L 235.835074 -55.473196 
L 235.755217 -55.695003 
L 235.714164 -55.916809 
L 235.714796 -56.138616 
L 235.757738 -56.360422 
L 235.841401 -56.582229 
L 235.962173 -56.804036 
L 236.114754 -57.025842 
L 236.292588 -57.247649 
L 236.488368 -57.469455 
L 236.694549 -57.691262 
L 236.903839 -57.913068 
L 237.109615 -58.134875 
L 237.30624 -58.356681 
L 237.489269 -58.578488 
L 239.395287 -58.578488 
L 239.395287 -58.578488 
L 239.578316 -58.356681 
L 239.774941 -58.134875 
L 239.980717 -57.913068 
L 240.190007 -57.691262 
L 240.396188 -57.469455 
L 240.591968 -57.247649 
L 240.769802 -57.025842 
L 240.922383 -56.804036 
L 241.043155 -56.582229 
L 241.126818 -56.360422 
L 241.16976 -56.138616 
L 241.170392 -55.916809 
L 241.129339 -55.695003 
L 241.049482 -55.473196 
L 240.935844 -55.25139 
L 240.79534 -55.029583 
L 240.636427 -54.807777 
L 240.468674 -54.58597 
L 240.30232 -54.364164 
L 240.14783 -54.142357 
L 240.015498 -53.920551 
L 239.915097 -53.698744 
L 239.855587 -53.476937 
L 239.844882 -53.255131 
L 239.889641 -53.033324 
L 239.995093 -52.811518 
L 240.164867 -52.589711 
L 240.400834 -52.367905 
L 240.702962 -52.146098 
L 241.069208 -51.924292 
L 241.495469 -51.702485 
L 241.975616 -51.480679 
L 242.501641 -51.258872 
L 243.063921 -51.037066 
L 243.651599 -50.815259 
L 244.253062 -50.593452 
L 244.856471 -50.371646 
L 245.450296 -50.149839 
L 246.023804 -49.928033 
L 246.567432 -49.706226 
L 247.07303 -49.48442 
L 247.533939 -49.262613 
L 247.944916 -49.040807 
L 248.301951 -48.819 
L 248.602003 -48.597194 
L 248.842733 -48.375387 
L 249.022289 -48.153581 
L 249.13918 -47.931774 
L 249.192264 -47.709967 
L 249.180856 -47.488161 
L 249.10492 -47.266354 
L 248.965299 -47.044548 
L 248.763932 -46.822741 
L 248.504005 -46.600935 
L 248.189989 -46.379128 
L 247.827557 -46.157322 
L 247.423373 -45.935515 
L 246.984797 -45.713709 
L 246.519526 -45.491902 
L 246.035255 -45.270096 
L 245.539379 -45.048289 
L 245.038793 -44.826483 
L 244.539794 -44.604676 
L 244.048095 -44.382869 
L 243.568926 -44.161063 
L 243.10718 -43.939256 
L 242.667566 -43.71745 
L 242.254728 -43.495643 
L 241.873295 -43.273837 
L 241.527834 -43.05203 
L 241.222714 -42.830224 
L 240.961874 -42.608417 
L 240.74854 -42.386611 
L 240.584902 -42.164804 
L 240.4718 -41.942998 
L 240.408463 -41.721191 
L 240.39232 -41.499384 
L 240.418928 -41.277578 
L 240.482027 -41.055771 
L 240.573732 -40.833965 
L 240.684858 -40.612158 
L 240.805371 -40.390352 
L 240.924915 -40.168545 
L 241.033404 -39.946739 
L 241.121611 -39.724932 
L 241.181714 -39.503126 
L 241.207751 -39.281319 
L 241.195942 -39.059513 
L 241.144849 -38.837706 
L 241.055359 -38.615899 
L 240.930501 -38.394093 
L 240.775111 -38.172286 
L 240.595381 -37.95048 
L 240.398346 -37.728673 
L 240.191348 -37.506867 
L 239.981536 -37.28506 
L 239.775434 -37.063254 
L 239.578608 -36.841447 
L 239.395456 -36.619641 
z
" style="stroke: #6f6f6f; stroke-width: 0.15"/>
    </defs>
    <g clip-path="url(#p255baa7067)">
     <use xlink:href="#medc18fb336" x="0" y="84.96" style="fill: #f3f3ae; stroke: #6f6f6f; stroke-width: 0.15"/>
    </g>
   </g>
   <g id="line2d_8">
    <path d="M 23.442566 46.443831 
L 23.442566 38.765179 
" clip-path="url(#p255baa7067)" style="fill: none; stroke: #8c8c8c; stroke-width: 0.75; stroke-linecap: round"/>
   </g>
   <g id="line2d_9">
    <path d="M 23.442566 45.100396 
L 23.442566 42.544466 
" clip-path="url(#p255baa7067)" style="fill: none; stroke: #8c8c8c; stroke-width: 4; stroke-linecap: round"/>
   </g>
   <g id="line2d_10">
    <path d="M 23.442566 43.786963 
" clip-path="url(#p255baa7067)" style="fill: none; stroke: #6f6f6f; stroke-width: 1.2; stroke-linecap: round"/>
    <defs>
     <path id="ma538d8802e" d="M 0 0.833333 
C 0.221003 0.833333 0.432983 0.745528 0.589256 0.589256 
C 0.745528 0.432983 0.833333 0.221003 0.833333 0 
C 0.833333 -0.221003 0.745528 -0.432983 0.589256 -0.589256 
C 0.432983 -0.745528 0.221003 -0.833333 0 -0.833333 
C -0.221003 -0.833333 -0.432983 -0.745528 -0.589256 -0.589256 
C -0.745528 -0.432983 -0.833333 -0.221003 -0.833333 0 
C -0.833333 0.221003 -0.745528 0.432983 -0.589256 0.589256 
C -0.432983 0.745528 -0.221003 0.833333 0 0.833333 
z
" style="stroke: #ffffff; stroke-width: 0.8"/>
    </defs>
    <g clip-path="url(#p255baa7067)">
     <use xlink:href="#ma538d8802e" x="23.442566" y="43.786963" style="fill: #ffffff; stroke: #ffffff; stroke-width: 0.8"/>
    </g>
   </g>
   <g id="line2d_11">
    <path d="M 50.31753 45.679858 
L 50.31753 29.852975 
" clip-path="url(#p255baa7067)" style="fill: none; stroke: #8c8c8c; stroke-width: 0.75; stroke-linecap: round"/>
   </g>
   <g id="line2d_12">
    <path d="M 50.31753 43.4465 
L 50.31753 37.308011 
" clip-path="url(#p255baa7067)" style="fill: none; stroke: #8c8c8c; stroke-width: 4; stroke-linecap: round"/>
   </g>
   <g id="line2d_13">
    <path d="M 50.31753 40.696854 
" clip-path="url(#p255baa7067)" style="fill: none; stroke: #6f6f6f; stroke-width: 1.2; stroke-linecap: round"/>
    <g clip-path="url(#p255baa7067)">
     <use xlink:href="#ma538d8802e" x="50.31753" y="40.696854" style="fill: #ffffff; stroke: #ffffff; stroke-width: 0.8"/>
    </g>
   </g>
   <g id="line2d_14">
    <path d="M 77.192494 40.415888 
L 77.192494 25.791027 
" clip-path="url(#p255baa7067)" style="fill: none; stroke: #8c8c8c; stroke-width: 0.75; stroke-linecap: round"/>
   </g>
   <g id="line2d_15">
    <path d="M 77.192494 36.507862 
L 77.192494 29.235054 
" clip-path="url(#p255baa7067)" style="fill: none; stroke: #8c8c8c; stroke-width: 4; stroke-linecap: round"/>
   </g>
   <g id="line2d_16">
    <path d="M 77.192494 31.03832 
" clip-path="url(#p255baa7067)" style="fill: none; stroke: #6f6f6f; stroke-width: 1.2; stroke-linecap: round"/>
    <g clip-path="url(#p255baa7067)">
     <use xlink:href="#ma538d8802e" x="77.192494" y="31.03832" style="fill: #ffffff; stroke: #ffffff; stroke-width: 0.8"/>
    </g>
   </g>
   <g id="line2d_17">
    <path d="M 104.067458 48.215792 
L 104.067458 47.873018 
" clip-path="url(#p255baa7067)" style="fill: none; stroke: #8c8c8c; stroke-width: 0.75; stroke-linecap: round"/>
   </g>
   <g id="line2d_18">
    <path d="M 104.067458 48.122799 
L 104.067458 47.963643 
" clip-path="url(#p255baa7067)" style="fill: none; stroke: #8c8c8c; stroke-width: 4; stroke-linecap: round"/>
   </g>
   <g id="line2d_19">
    <path d="M 104.067458 48.072422 
" clip-path="url(#p255baa7067)" style="fill: none; stroke: #6f6f6f; stroke-width: 1.2; stroke-linecap: round"/>
    <g clip-path="url(#p255baa7067)">
     <use xlink:href="#ma538d8802e" x="104.067458" y="48.072422" style="fill: #ffffff; stroke: #ffffff; stroke-width: 0.8"/>
    </g>
   </g>
   <g id="line2d_20">
    <path d="M 130.942422 48.163721 
L 130.942422 47.242771 
" clip-path="url(#p255baa7067)" style="fill: none; stroke: #8c8c8c; stroke-width: 0.75; stroke-linecap: round"/>
   </g>
   <g id="line2d_21">
    <path d="M 130.942422 48.025044 
L 130.942422 47.371024 
" clip-path="url(#p255baa7067)" style="fill: none; stroke: #8c8c8c; stroke-width: 4; stroke-linecap: round"/>
   </g>
   <g id="line2d_22">
    <path d="M 130.942422 47.871863 
" clip-path="url(#p255baa7067)" style="fill: none; stroke: #6f6f6f; stroke-width: 1.2; stroke-linecap: round"/>
    <g clip-path="url(#p255baa7067)">
     <use xlink:href="#ma538d8802e" x="130.942422" y="47.871863" style="fill: #ffffff; stroke: #ffffff; stroke-width: 0.8"/>
    </g>
   </g>
   <g id="line2d_23">
    <path d="M 157.817386 42.476071 
L 157.817386 32.598974 
" clip-path="url(#p255baa7067)" style="fill: none; stroke: #8c8c8c; stroke-width: 0.75; stroke-linecap: round"/>
   </g>
   <g id="line2d_24">
    <path d="M 157.817386 41.098499 
L 157.817386 34.761527 
" clip-path="url(#p255baa7067)" style="fill: none; stroke: #8c8c8c; stroke-width: 4; stroke-linecap: round"/>
   </g>
   <g id="line2d_25">
    <path d="M 157.817386 36.865477 
" clip-path="url(#p255baa7067)" style="fill: none; stroke: #6f6f6f; stroke-width: 1.2; stroke-linecap: round"/>
    <g clip-path="url(#p255baa7067)">
     <use xlink:href="#ma538d8802e" x="157.817386" y="36.865477" style="fill: #ffffff; stroke: #ffffff; stroke-width: 0.8"/>
    </g>
   </g>
   <g id="line2d_26">
    <path d="M 184.69235 47.120124 
L 184.69235 43.832212 
" clip-path="url(#p255baa7067)" style="fill: none; stroke: #8c8c8c; stroke-width: 0.75; stroke-linecap: round"/>
   </g>
   <g id="line2d_27">
    <path d="M 184.69235 46.296133 
L 184.69235 44.33349 
" clip-path="url(#p255baa7067)" style="fill: none; stroke: #8c8c8c; stroke-width: 4; stroke-linecap: round"/>
   </g>
   <g id="line2d_28">
    <path d="M 184.69235 45.340218 
" clip-path="url(#p255baa7067)" style="fill: none; stroke: #6f6f6f; stroke-width: 1.2; stroke-linecap: round"/>
    <g clip-path="url(#p255baa7067)">
     <use xlink:href="#ma538d8802e" x="184.69235" y="45.340218" style="fill: #ffffff; stroke: #ffffff; stroke-width: 0.8"/>
    </g>
   </g>
   <g id="line2d_29">
    <path d="M 211.567314 48.087173 
L 211.567314 46.25758 
" clip-path="url(#p255baa7067)" style="fill: none; stroke: #8c8c8c; stroke-width: 0.75; stroke-linecap: round"/>
   </g>
   <g id="line2d_30">
    <path d="M 211.567314 47.761169 
L 211.567314 47.13572 
" clip-path="url(#p255baa7067)" style="fill: none; stroke: #8c8c8c; stroke-width: 4; stroke-linecap: round"/>
   </g>
   <g id="line2d_31">
    <path d="M 211.567314 47.462284 
" clip-path="url(#p255baa7067)" style="fill: none; stroke: #6f6f6f; stroke-width: 1.2; stroke-linecap: round"/>
    <g clip-path="url(#p255baa7067)">
     <use xlink:href="#ma538d8802e" x="211.567314" y="47.462284" style="fill: #ffffff; stroke: #ffffff; stroke-width: 0.8"/>
    </g>
   </g>
   <g id="line2d_32">
    <path d="M 238.442278 40.657325 
L 238.442278 35.267643 
" clip-path="url(#p255baa7067)" style="fill: none; stroke: #8c8c8c; stroke-width: 0.75; stroke-linecap: round"/>
   </g>
   <g id="line2d_33">
    <path d="M 238.442278 38.99 
L 238.442278 35.432078 
" clip-path="url(#p255baa7067)" style="fill: none; stroke: #8c8c8c; stroke-width: 4; stroke-linecap: round"/>
   </g>
   <g id="line2d_34">
    <path d="M 238.442278 37.69027 
" clip-path="url(#p255baa7067)" style="fill: none; stroke: #6f6f6f; stroke-width: 1.2; stroke-linecap: round"/>
    <g clip-path="url(#p255baa7067)">
     <use xlink:href="#ma538d8802e" x="238.442278" y="37.69027" style="fill: #ffffff; stroke: #ffffff; stroke-width: 0.8"/>
    </g>
   </g>
   <g id="patch_3">
    <path d="M 10.005084 54.222338 
L 10.005084 4.076256 
" style="fill: none; stroke: #777777; stroke-width: 0.5; stroke-linejoin: miter; stroke-linecap: square"/>
   </g>
   <g id="patch_4">
    <path d="M 10.005084 56.722338 
L 251.87976 56.722338 
" style="fill: none; stroke: #777777; stroke-width: 0.5; stroke-linejoin: miter; stroke-linecap: square"/>
   </g>
  </g>
 </g>
 <defs>
  <clipPath id="p255baa7067">
   <rect x="10.005084" y="4.076256" width="241.874676" height="50.146082"/>
  </clipPath>
 </defs>
</svg>
