<?xml version="1.0" encoding="utf-8" standalone="no"?>
<!DOCTYPE svg PUBLIC "-//W3C//DTD SVG 1.1//EN"
  "http://www.w3.org/Graphics/SVG/1.1/DTD/svg11.dtd">
<svg xmlns:xlink="http://www.w3.org/1999/xlink" width="254.88pt" height="84.96pt" viewBox="0 0 254.88 84.96" xmlns="http://www.w3.org/2000/svg" version="1.1">
 <metadata>
  <rdf:RDF xmlns:dc="http://purl.org/dc/elements/1.1/" xmlns:cc="http://creativecommons.org/ns#" xmlns:rdf="http://www.w3.org/1999/02/22-rdf-syntax-ns#">
   <cc:Work>
    <dc:type rdf:resource="http://purl.org/dc/dcmitype/StillImage"/>
    <dc:date>2024-05-27T15:37:16.699348</dc:date>
    <dc:format>image/svg+xml</dc:format>
    <dc:creator>
     <cc:Agent>
      <dc:title>Matplotlib v3.8.3, https://matplotlib.org/</dc:title>
     </cc:Agent>
    </dc:creator>
   </cc:Work>
  </rdf:RDF>
 </metadata>
 <defs>
  <style type="text/css">*{stroke-linejoin: round; stroke-linecap: butt}</style>
 </defs>
 <g id="figure_1">
  <g id="patch_1">
   <path d="M 0 84.96 
L 254.88 84.96 
L 254.88 0 
L 0 0 
z
" style="fill: #ffffff"/>
  </g>
  <g id="axes_1">
   <g id="patch_2">
    <path d="M 10.005084 54.222338 
L 251.87976 54.222338 
L 251.87976 4.076256 
L 10.005084 4.076256 
z
" style="fill: #ffffff"/>
   </g>
   <g id="matplotlib.axis_1">
    <g id="xtick_1">
     <g id="text_1">
      <!-- TdT+ Cells -->
      <g style="fill: #333333" transform="translate(24.333152 75.539994) rotate(-90) scale(0.035 -0.035)">
       <defs>
        <path id="Helvetica-54" d="M 3828 4591 
L 3828 4044 
L 2281 4044 
L 2281 0 
L 1650 0 
L 1650 4044 
L 103 4044 
L 103 4591 
L 3828 4591 
z
" transform="scale(0.015625)"/>
        <path id="Helvetica-64" d="M 769 1634 
Q 769 1097 997 734 
Q 1225 372 1728 372 
Q 2119 372 2370 708 
Q 2622 1044 2622 1672 
Q 2622 2306 2362 2611 
Q 2103 2916 1722 2916 
Q 1297 2916 1033 2591 
Q 769 2266 769 1634 
z
M 1616 3406 
Q 2000 3406 2259 3244 
Q 2409 3150 2600 2916 
L 2600 4606 
L 3141 4606 
L 3141 0 
L 2634 0 
L 2634 466 
Q 2438 156 2169 18 
Q 1900 -119 1553 -119 
Q 994 -119 584 351 
Q 175 822 175 1603 
Q 175 2334 548 2870 
Q 922 3406 1616 3406 
z
" transform="scale(0.015625)"/>
        <path id="Helvetica-2b" d="M 288 1369 
L 288 1894 
L 1650 1894 
L 1650 3266 
L 2184 3266 
L 2184 1894 
L 3547 1894 
L 3547 1369 
L 2184 1369 
L 2184 0 
L 1650 0 
L 1650 1369 
L 288 1369 
z
" transform="scale(0.015625)"/>
        <path id="Helvetica-20" transform="scale(0.015625)"/>
        <path id="Helvetica-43" d="M 2422 4716 
Q 3294 4716 3775 4256 
Q 4256 3797 4309 3213 
L 3703 3213 
Q 3600 3656 3292 3915 
Q 2984 4175 2428 4175 
Q 1750 4175 1333 3698 
Q 916 3222 916 2238 
Q 916 1431 1292 929 
Q 1669 428 2416 428 
Q 3103 428 3463 956 
Q 3653 1234 3747 1688 
L 4353 1688 
Q 4272 963 3816 472 
Q 3269 -119 2341 -119 
Q 1541 -119 997 366 
Q 281 1006 281 2344 
Q 281 3359 819 4009 
Q 1400 4716 2422 4716 
z
M 2297 4716 
L 2297 4716 
z
" transform="scale(0.015625)"/>
        <path id="Helvetica-65" d="M 1806 3422 
Q 2163 3422 2497 3255 
Q 2831 3088 3006 2822 
Q 3175 2569 3231 2231 
Q 3281 2000 3281 1494 
L 828 1494 
Q 844 984 1069 676 
Q 1294 369 1766 369 
Q 2206 369 2469 659 
Q 2619 828 2681 1050 
L 3234 1050 
Q 3213 866 3089 639 
Q 2966 413 2813 269 
Q 2556 19 2178 -69 
Q 1975 -119 1719 -119 
Q 1094 -119 659 336 
Q 225 791 225 1609 
Q 225 2416 662 2919 
Q 1100 3422 1806 3422 
z
M 2703 1941 
Q 2669 2306 2544 2525 
Q 2313 2931 1772 2931 
Q 1384 2931 1121 2651 
Q 859 2372 844 1941 
L 2703 1941 
z
M 1753 3428 
L 1753 3428 
z
" transform="scale(0.015625)"/>
        <path id="Helvetica-6c" d="M 428 4591 
L 991 4591 
L 991 0 
L 428 0 
L 428 4591 
z
" transform="scale(0.015625)"/>
        <path id="Helvetica-73" d="M 747 1050 
Q 772 769 888 619 
Q 1100 347 1625 347 
Q 1938 347 2175 483 
Q 2413 619 2413 903 
Q 2413 1119 2222 1231 
Q 2100 1300 1741 1391 
L 1294 1503 
Q 866 1609 663 1741 
Q 300 1969 300 2372 
Q 300 2847 642 3140 
Q 984 3434 1563 3434 
Q 2319 3434 2653 2991 
Q 2863 2709 2856 2384 
L 2325 2384 
Q 2309 2575 2191 2731 
Q 1997 2953 1519 2953 
Q 1200 2953 1036 2831 
Q 872 2709 872 2509 
Q 872 2291 1088 2159 
Q 1213 2081 1456 2022 
L 1828 1931 
Q 2434 1784 2641 1647 
Q 2969 1431 2969 969 
Q 2969 522 2630 197 
Q 2291 -128 1597 -128 
Q 850 -128 539 211 
Q 228 550 206 1050 
L 747 1050 
z
M 1578 3428 
L 1578 3428 
z
" transform="scale(0.015625)"/>
       </defs>
       <use xlink:href="#Helvetica-54"/>
       <use xlink:href="#Helvetica-64" x="61.083984"/>
       <use xlink:href="#Helvetica-54" x="116.699219"/>
       <use xlink:href="#Helvetica-2b" x="177.783203"/>
       <use xlink:href="#Helvetica-20" x="236.181641"/>
       <use xlink:href="#Helvetica-43" x="263.964844"/>
       <use xlink:href="#Helvetica-65" x="336.181641"/>
       <use xlink:href="#Helvetica-6c" x="391.796875"/>
       <use xlink:href="#Helvetica-6c" x="414.013672"/>
       <use xlink:href="#Helvetica-73" x="436.230469"/>
      </g>
     </g>
    </g>
    <g id="xtick_2">
     <g id="text_2">
      <!-- TCRαδ+ Cells -->
      <g style="fill: #333333" transform="translate(51.208116 80.786713) rotate(-90) scale(0.035 -0.035)">
       <defs>
        <path id="Helvetica-52" d="M 2622 2488 
Q 3059 2488 3314 2663 
Q 3569 2838 3569 3294 
Q 3569 3784 3213 3963 
Q 3022 4056 2703 4056 
L 1184 4056 
L 1184 2488 
L 2622 2488 
z
M 563 4591 
L 2688 4591 
Q 3213 4591 3553 4438 
Q 4200 4144 4200 3353 
Q 4200 2941 4029 2678 
Q 3859 2416 3553 2256 
Q 3822 2147 3958 1969 
Q 4094 1791 4109 1391 
L 4131 775 
Q 4141 513 4175 384 
Q 4231 166 4375 103 
L 4375 0 
L 3613 0 
Q 3581 59 3562 153 
Q 3544 247 3531 516 
L 3494 1281 
Q 3472 1731 3159 1884 
Q 2981 1969 2600 1969 
L 1184 1969 
L 1184 0 
L 563 0 
L 563 4591 
z
" transform="scale(0.015625)"/>
        <path id="Helvetica-3b1" d="M 3347 703 
Q 3334 428 3525 434 
Q 3641 434 3700 475 
L 3700 -19 
Q 3628 -44 3513 -50 
Q 3391 -63 3309 -63 
Q 3084 -56 2956 103 
Q 2816 256 2816 475 
L 2803 475 
Q 2413 -63 1734 -63 
Q 1006 -50 647 459 
Q 281 953 281 1644 
Q 281 2350 634 2859 
Q 984 3378 1741 3391 
Q 2413 3391 2797 2847 
L 2809 2847 
L 2809 3328 
L 3347 3328 
L 3347 703 
z
M 1825 397 
Q 2075 397 2253 513 
Q 2425 622 2541 806 
Q 2766 1184 2766 1638 
Q 2766 2144 2559 2528 
Q 2350 2919 1797 2931 
Q 1306 2919 1081 2534 
Q 856 2156 856 1697 
Q 856 1209 1081 819 
Q 1306 409 1825 397 
z
" transform="scale(0.015625)"/>
        <path id="Helvetica-3b4" d="M 666 4519 
L 3188 4519 
L 3188 4056 
L 1394 4056 
L 1394 4044 
L 2509 3303 
Q 3134 2881 3372 2469 
Q 3591 2053 3584 1600 
Q 3578 934 3163 447 
Q 2738 -50 1938 -63 
Q 1203 -56 769 403 
Q 331 850 325 1556 
Q 341 3066 1863 3188 
L 1863 3200 
L 666 4056 
L 666 4519 
z
M 1991 397 
Q 2497 403 2731 794 
Q 2969 1166 2969 1606 
Q 2969 1856 2919 2041 
Q 2866 2222 2791 2344 
Q 2713 2463 2638 2541 
Q 2559 2619 2509 2650 
Q 2381 2766 2156 2766 
Q 947 2766 941 1528 
Q 941 1056 1216 738 
Q 1491 403 1991 397 
z
" transform="scale(0.015625)"/>
       </defs>
       <use xlink:href="#Helvetica-54"/>
       <use xlink:href="#Helvetica-43" x="61.083984"/>
       <use xlink:href="#Helvetica-52" x="133.300781"/>
       <use xlink:href="#Helvetica-3b1" x="205.517578"/>
       <use xlink:href="#Helvetica-3b4" x="266.601562"/>
       <use xlink:href="#Helvetica-2b" x="327.685547"/>
       <use xlink:href="#Helvetica-20" x="386.083984"/>
       <use xlink:href="#Helvetica-43" x="413.867188"/>
       <use xlink:href="#Helvetica-65" x="486.083984"/>
       <use xlink:href="#Helvetica-6c" x="541.699219"/>
       <use xlink:href="#Helvetica-6c" x="563.916016"/>
       <use xlink:href="#Helvetica-73" x="586.132812"/>
      </g>
     </g>
    </g>
    <g id="xtick_3">
     <g id="text_3">
      <!-- IL7R+ Cells -->
      <g style="fill: #333333" transform="translate(78.08308 76.710854) rotate(-90) scale(0.035 -0.035)">
       <defs>
        <path id="Helvetica-49" d="M 628 4591 
L 1256 4591 
L 1256 0 
L 628 0 
L 628 4591 
z
" transform="scale(0.015625)"/>
        <path id="Helvetica-4c" d="M 488 4591 
L 1109 4591 
L 1109 547 
L 3434 547 
L 3434 0 
L 488 0 
L 488 4591 
z
" transform="scale(0.015625)"/>
        <path id="Helvetica-37" d="M 3347 4400 
L 3347 3909 
Q 3131 3700 2773 3181 
Q 2416 2663 2141 2063 
Q 1869 1478 1728 997 
Q 1638 688 1494 0 
L 872 0 
Q 1084 1281 1809 2550 
Q 2238 3294 2709 3834 
L 234 3834 
L 234 4400 
L 3347 4400 
z
" transform="scale(0.015625)"/>
       </defs>
       <use xlink:href="#Helvetica-49"/>
       <use xlink:href="#Helvetica-4c" x="27.783203"/>
       <use xlink:href="#Helvetica-37" x="83.398438"/>
       <use xlink:href="#Helvetica-52" x="139.013672"/>
       <use xlink:href="#Helvetica-2b" x="211.230469"/>
       <use xlink:href="#Helvetica-20" x="269.628906"/>
       <use xlink:href="#Helvetica-43" x="297.412109"/>
       <use xlink:href="#Helvetica-65" x="369.628906"/>
       <use xlink:href="#Helvetica-6c" x="425.244141"/>
       <use xlink:href="#Helvetica-6c" x="447.460938"/>
       <use xlink:href="#Helvetica-73" x="469.677734"/>
      </g>
     </g>
    </g>
    <g id="xtick_4">
     <g id="text_4">
      <!-- EOMES+ Cells -->
      <g style="fill: #333333" transform="translate(104.958044 81.95976) rotate(-90) scale(0.035 -0.035)">
       <defs>
        <path id="Helvetica-45" d="M 547 4591 
L 3894 4591 
L 3894 4028 
L 1153 4028 
L 1153 2634 
L 3688 2634 
L 3688 2103 
L 1153 2103 
L 1153 547 
L 3941 547 
L 3941 0 
L 547 0 
L 547 4591 
z
M 2244 4591 
L 2244 4591 
z
" transform="scale(0.015625)"/>
        <path id="Helvetica-4f" d="M 2469 4716 
Q 3684 4716 4269 3934 
Q 4725 3325 4725 2375 
Q 4725 1347 4203 666 
Q 3591 -134 2456 -134 
Q 1397 -134 791 566 
Q 250 1241 250 2272 
Q 250 3203 713 3866 
Q 1306 4716 2469 4716 
z
M 2531 422 
Q 3353 422 3720 1011 
Q 4088 1600 4088 2366 
Q 4088 3175 3664 3669 
Q 3241 4163 2506 4163 
Q 1794 4163 1344 3673 
Q 894 3184 894 2231 
Q 894 1469 1280 945 
Q 1666 422 2531 422 
z
M 2488 4716 
L 2488 4716 
z
" transform="scale(0.015625)"/>
        <path id="Helvetica-4d" d="M 472 4591 
L 1363 4591 
L 2681 709 
L 3991 4591 
L 4872 4591 
L 4872 0 
L 4281 0 
L 4281 2709 
Q 4281 2850 4287 3175 
Q 4294 3500 4294 3872 
L 2984 0 
L 2369 0 
L 1050 3872 
L 1050 3731 
Q 1050 3563 1058 3217 
Q 1066 2872 1066 2709 
L 1066 0 
L 472 0 
L 472 4591 
z
" transform="scale(0.015625)"/>
        <path id="Helvetica-53" d="M 894 1481 
Q 916 1091 1078 847 
Q 1388 391 2169 391 
Q 2519 391 2806 491 
Q 3363 684 3363 1184 
Q 3363 1559 3128 1719 
Q 2891 1875 2384 1991 
L 1763 2131 
Q 1153 2269 900 2434 
Q 463 2722 463 3294 
Q 463 3913 891 4309 
Q 1319 4706 2103 4706 
Q 2825 4706 3329 4357 
Q 3834 4009 3834 3244 
L 3250 3244 
Q 3203 3613 3050 3809 
Q 2766 4169 2084 4169 
Q 1534 4169 1293 3937 
Q 1053 3706 1053 3400 
Q 1053 3063 1334 2906 
Q 1519 2806 2169 2656 
L 2813 2509 
Q 3278 2403 3531 2219 
Q 3969 1897 3969 1284 
Q 3969 522 3414 194 
Q 2859 -134 2125 -134 
Q 1269 -134 784 303 
Q 300 738 309 1481 
L 894 1481 
z
M 2150 4716 
L 2150 4716 
z
" transform="scale(0.015625)"/>
       </defs>
       <use xlink:href="#Helvetica-45"/>
       <use xlink:href="#Helvetica-4f" x="66.699219"/>
       <use xlink:href="#Helvetica-4d" x="144.482422"/>
       <use xlink:href="#Helvetica-45" x="227.783203"/>
       <use xlink:href="#Helvetica-53" x="294.482422"/>
       <use xlink:href="#Helvetica-2b" x="361.181641"/>
       <use xlink:href="#Helvetica-20" x="419.580078"/>
       <use xlink:href="#Helvetica-43" x="447.363281"/>
       <use xlink:href="#Helvetica-65" x="519.580078"/>
       <use xlink:href="#Helvetica-6c" x="575.195312"/>
       <use xlink:href="#Helvetica-6c" x="597.412109"/>
       <use xlink:href="#Helvetica-73" x="619.628906"/>
      </g>
     </g>
    </g>
    <g id="xtick_5">
     <g id="text_5">
      <!-- TBX+ Cells -->
      <g style="fill: #333333" transform="translate(131.833008 76.125151) rotate(-90) scale(0.035 -0.035)">
       <defs>
        <path id="Helvetica-42" d="M 2213 2650 
Q 2606 2650 2825 2759 
Q 3169 2931 3169 3378 
Q 3169 3828 2803 3984 
Q 2597 4072 2191 4072 
L 1081 4072 
L 1081 2650 
L 2213 2650 
z
M 2422 531 
Q 2994 531 3238 863 
Q 3391 1072 3391 1369 
Q 3391 1869 2944 2050 
Q 2706 2147 2316 2147 
L 1081 2147 
L 1081 531 
L 2422 531 
z
M 472 4591 
L 2444 4591 
Q 3250 4591 3591 4109 
Q 3791 3825 3791 3453 
Q 3791 3019 3544 2741 
Q 3416 2594 3175 2472 
Q 3528 2338 3703 2169 
Q 4013 1869 4013 1341 
Q 4013 897 3734 538 
Q 3319 0 2413 0 
L 472 0 
L 472 4591 
z
" transform="scale(0.015625)"/>
        <path id="Helvetica-58" d="M 881 0 
L 131 0 
L 1775 2353 
L 234 4591 
L 1013 4591 
L 2184 2834 
L 3347 4591 
L 4088 4591 
L 2547 2353 
L 4163 0 
L 3391 0 
L 2153 1888 
L 881 0 
z
" transform="scale(0.015625)"/>
       </defs>
       <use xlink:href="#Helvetica-54"/>
       <use xlink:href="#Helvetica-42" x="61.083984"/>
       <use xlink:href="#Helvetica-58" x="127.783203"/>
       <use xlink:href="#Helvetica-2b" x="194.482422"/>
       <use xlink:href="#Helvetica-20" x="252.880859"/>
       <use xlink:href="#Helvetica-43" x="280.664062"/>
       <use xlink:href="#Helvetica-65" x="352.880859"/>
       <use xlink:href="#Helvetica-6c" x="408.496094"/>
       <use xlink:href="#Helvetica-6c" x="430.712891"/>
       <use xlink:href="#Helvetica-73" x="452.929688"/>
      </g>
     </g>
    </g>
    <g id="xtick_6">
     <g id="text_6">
      <!-- GATA+ Cells -->
      <g style="fill: #333333" transform="translate(158.707972 78.847494) rotate(-90) scale(0.035 -0.035)">
       <defs>
        <path id="Helvetica-47" d="M 2472 4709 
Q 3119 4709 3591 4459 
Q 4275 4100 4428 3200 
L 3813 3200 
Q 3700 3703 3347 3933 
Q 2994 4163 2456 4163 
Q 1819 4163 1383 3684 
Q 947 3206 947 2259 
Q 947 1441 1306 927 
Q 1666 413 2478 413 
Q 3100 413 3508 773 
Q 3916 1134 3925 1941 
L 2488 1941 
L 2488 2456 
L 4503 2456 
L 4503 0 
L 4103 0 
L 3953 591 
Q 3638 244 3394 109 
Q 2984 -122 2353 -122 
Q 1538 -122 950 406 
Q 309 1069 309 2225 
Q 309 3378 934 4059 
Q 1528 4709 2472 4709 
z
M 2369 4716 
L 2369 4716 
z
" transform="scale(0.015625)"/>
        <path id="Helvetica-41" d="M 2844 1881 
L 2147 3909 
L 1406 1881 
L 2844 1881 
z
M 1822 4591 
L 2525 4591 
L 4191 0 
L 3509 0 
L 3044 1375 
L 1228 1375 
L 731 0 
L 94 0 
L 1822 4591 
z
" transform="scale(0.015625)"/>
       </defs>
       <use xlink:href="#Helvetica-47"/>
       <use xlink:href="#Helvetica-41" x="77.783203"/>
       <use xlink:href="#Helvetica-54" x="144.482422"/>
       <use xlink:href="#Helvetica-41" x="205.566406"/>
       <use xlink:href="#Helvetica-2b" x="272.265625"/>
       <use xlink:href="#Helvetica-20" x="330.664062"/>
       <use xlink:href="#Helvetica-43" x="358.447266"/>
       <use xlink:href="#Helvetica-65" x="430.664062"/>
       <use xlink:href="#Helvetica-6c" x="486.279297"/>
       <use xlink:href="#Helvetica-6c" x="508.496094"/>
       <use xlink:href="#Helvetica-73" x="530.712891"/>
      </g>
     </g>
    </g>
    <g id="xtick_7">
     <g id="text_7">
      <!-- ICOS+ Cells -->
      <g style="fill: #333333" transform="translate(185.582936 77.875151) rotate(-90) scale(0.035 -0.035)">
       <use xlink:href="#Helvetica-49"/>
       <use xlink:href="#Helvetica-43" x="27.783203"/>
       <use xlink:href="#Helvetica-4f" x="100"/>
       <use xlink:href="#Helvetica-53" x="177.783203"/>
       <use xlink:href="#Helvetica-2b" x="244.482422"/>
       <use xlink:href="#Helvetica-20" x="302.880859"/>
       <use xlink:href="#Helvetica-43" x="330.664062"/>
       <use xlink:href="#Helvetica-65" x="402.880859"/>
       <use xlink:href="#Helvetica-6c" x="458.496094"/>
       <use xlink:href="#Helvetica-6c" x="480.712891"/>
       <use xlink:href="#Helvetica-73" x="502.929688"/>
      </g>
     </g>
    </g>
    <g id="xtick_8">
     <g id="text_8">
      <!-- RORγT+ Cells -->
      <g style="fill: #333333" transform="translate(212.469931 81.179916) rotate(-90) scale(0.035 -0.035)">
       <defs>
        <path id="Helvetica-3b3" d="M 1556 225 
L 581 2444 
Q 481 2700 416 2803 
Q 347 2894 244 2894 
Q 91 2888 56 2872 
L 56 3334 
Q 166 3384 313 3391 
Q 641 3391 788 3250 
Q 863 3188 922 3078 
Q 978 2963 1038 2809 
L 1844 878 
L 2828 3328 
L 3431 3328 
L 2131 225 
L 2131 -1253 
L 1556 -1253 
L 1556 225 
z
" transform="scale(0.015625)"/>
       </defs>
       <use xlink:href="#Helvetica-52"/>
       <use xlink:href="#Helvetica-4f" x="72.216797"/>
       <use xlink:href="#Helvetica-52" x="150"/>
       <use xlink:href="#Helvetica-3b3" x="222.216797"/>
       <use xlink:href="#Helvetica-54" x="277.832031"/>
       <use xlink:href="#Helvetica-2b" x="338.916016"/>
       <use xlink:href="#Helvetica-20" x="397.314453"/>
       <use xlink:href="#Helvetica-43" x="425.097656"/>
       <use xlink:href="#Helvetica-65" x="497.314453"/>
       <use xlink:href="#Helvetica-6c" x="552.929688"/>
       <use xlink:href="#Helvetica-6c" x="575.146484"/>
       <use xlink:href="#Helvetica-73" x="597.363281"/>
      </g>
     </g>
    </g>
    <g id="xtick_9">
     <g id="text_9">
      <!-- AHR+ Cells -->
      <g style="fill: #333333" transform="translate(239.332864 76.708119) rotate(-90) scale(0.035 -0.035)">
       <defs>
        <path id="Helvetica-48" d="M 503 4591 
L 1131 4591 
L 1131 2694 
L 3519 2694 
L 3519 4591 
L 4147 4591 
L 4147 0 
L 3519 0 
L 3519 2147 
L 1131 2147 
L 1131 0 
L 503 0 
L 503 4591 
z
" transform="scale(0.015625)"/>
       </defs>
       <use xlink:href="#Helvetica-41"/>
       <use xlink:href="#Helvetica-48" x="66.699219"/>
       <use xlink:href="#Helvetica-52" x="138.916016"/>
       <use xlink:href="#Helvetica-2b" x="211.132812"/>
       <use xlink:href="#Helvetica-20" x="269.53125"/>
       <use xlink:href="#Helvetica-43" x="297.314453"/>
       <use xlink:href="#Helvetica-65" x="369.53125"/>
       <use xlink:href="#Helvetica-6c" x="425.146484"/>
       <use xlink:href="#Helvetica-6c" x="447.363281"/>
       <use xlink:href="#Helvetica-73" x="469.580078"/>
      </g>
     </g>
    </g>
   </g>
   <g id="matplotlib.axis_2">
    <g id="ytick_1">
     <g id="line2d_1">
      <defs>
       <path id="me423f2ed42" d="M 0 0 
L -1 0 
" style="stroke: #777777; stroke-width: 0.5"/>
      </defs>
      <g>
       <use xlink:href="#me423f2ed42" x="10.005084" y="48.355357" style="fill: #777777; stroke: #777777; stroke-width: 0.5"/>
      </g>
     </g>
     <g id="text_10">
      <!-- 0 -->
      <g style="fill: #333333" transform="translate(6.336803 49.431373) scale(0.03 -0.03)">
       <defs>
        <path id="Helvetica-30" d="M 1731 4475 
Q 2600 4475 2988 3759 
Q 3288 3206 3288 2244 
Q 3288 1331 3016 734 
Q 2622 -122 1728 -122 
Q 922 -122 528 578 
Q 200 1163 200 2147 
Q 200 2909 397 3456 
Q 766 4475 1731 4475 
z
M 1725 391 
Q 2163 391 2422 778 
Q 2681 1166 2681 2222 
Q 2681 2984 2493 3476 
Q 2306 3969 1766 3969 
Q 1269 3969 1039 3501 
Q 809 3034 809 2125 
Q 809 1441 956 1025 
Q 1181 391 1725 391 
z
" transform="scale(0.015625)"/>
       </defs>
       <use xlink:href="#Helvetica-30"/>
      </g>
     </g>
    </g>
    <g id="ytick_2">
     <g id="line2d_2">
      <g>
       <use xlink:href="#me423f2ed42" x="10.005084" y="40.975507" style="fill: #777777; stroke: #777777; stroke-width: 0.5"/>
      </g>
     </g>
     <g id="text_11">
      <!-- 20 -->
      <g style="fill: #333333" transform="translate(4.668521 42.051523) scale(0.03 -0.03)">
       <defs>
        <path id="Helvetica-32" d="M 200 0 
Q 231 578 439 1006 
Q 647 1434 1250 1784 
L 1850 2131 
Q 2253 2366 2416 2531 
Q 2672 2791 2672 3125 
Q 2672 3516 2437 3745 
Q 2203 3975 1813 3975 
Q 1234 3975 1013 3538 
Q 894 3303 881 2888 
L 309 2888 
Q 319 3472 525 3841 
Q 891 4491 1816 4491 
Q 2584 4491 2939 4075 
Q 3294 3659 3294 3150 
Q 3294 2613 2916 2231 
Q 2697 2009 2131 1694 
L 1703 1456 
Q 1397 1288 1222 1134 
Q 909 863 828 531 
L 3272 531 
L 3272 0 
L 200 0 
z
" transform="scale(0.015625)"/>
       </defs>
       <use xlink:href="#Helvetica-32"/>
       <use xlink:href="#Helvetica-30" x="55.615234"/>
      </g>
     </g>
    </g>
    <g id="ytick_3">
     <g id="line2d_3">
      <g>
       <use xlink:href="#me423f2ed42" x="10.005084" y="33.595657" style="fill: #777777; stroke: #777777; stroke-width: 0.5"/>
      </g>
     </g>
     <g id="text_12">
      <!-- 40 -->
      <g style="fill: #333333" transform="translate(4.668521 34.671672) scale(0.03 -0.03)">
       <defs>
        <path id="Helvetica-34" d="M 2116 1584 
L 2116 3613 
L 681 1584 
L 2116 1584 
z
M 2125 0 
L 2125 1094 
L 163 1094 
L 163 1644 
L 2213 4488 
L 2688 4488 
L 2688 1584 
L 3347 1584 
L 3347 1094 
L 2688 1094 
L 2688 0 
L 2125 0 
z
" transform="scale(0.015625)"/>
       </defs>
       <use xlink:href="#Helvetica-34"/>
       <use xlink:href="#Helvetica-30" x="55.615234"/>
      </g>
     </g>
    </g>
    <g id="ytick_4">
     <g id="line2d_4">
      <g>
       <use xlink:href="#me423f2ed42" x="10.005084" y="26.215806" style="fill: #777777; stroke: #777777; stroke-width: 0.5"/>
      </g>
     </g>
     <g id="text_13">
      <!-- 60 -->
      <g style="fill: #333333" transform="translate(4.668521 27.291822) scale(0.03 -0.03)">
       <defs>
        <path id="Helvetica-36" d="M 1872 4494 
Q 2622 4494 2917 4105 
Q 3213 3716 3213 3303 
L 2656 3303 
Q 2606 3569 2497 3719 
Q 2294 4000 1881 4000 
Q 1409 4000 1131 3564 
Q 853 3128 822 2316 
Q 1016 2600 1309 2741 
Q 1578 2866 1909 2866 
Q 2472 2866 2890 2506 
Q 3309 2147 3309 1434 
Q 3309 825 2912 354 
Q 2516 -116 1781 -116 
Q 1153 -116 697 361 
Q 241 838 241 1966 
Q 241 2800 444 3381 
Q 834 4494 1872 4494 
z
M 1831 384 
Q 2275 384 2495 682 
Q 2716 981 2716 1388 
Q 2716 1731 2519 2042 
Q 2322 2353 1803 2353 
Q 1441 2353 1167 2112 
Q 894 1872 894 1388 
Q 894 963 1142 673 
Q 1391 384 1831 384 
z
" transform="scale(0.015625)"/>
       </defs>
       <use xlink:href="#Helvetica-36"/>
       <use xlink:href="#Helvetica-30" x="55.615234"/>
      </g>
     </g>
    </g>
    <g id="ytick_5">
     <g id="line2d_5">
      <g>
       <use xlink:href="#me423f2ed42" x="10.005084" y="18.835956" style="fill: #777777; stroke: #777777; stroke-width: 0.5"/>
      </g>
     </g>
     <g id="text_14">
      <!-- 80 -->
      <g style="fill: #333333" transform="translate(4.668521 19.911972) scale(0.03 -0.03)">
       <defs>
        <path id="Helvetica-38" d="M 1741 2600 
Q 2113 2600 2322 2808 
Q 2531 3016 2531 3303 
Q 2531 3553 2331 3762 
Q 2131 3972 1722 3972 
Q 1316 3972 1134 3762 
Q 953 3553 953 3272 
Q 953 2956 1187 2778 
Q 1422 2600 1741 2600 
z
M 1775 384 
Q 2166 384 2423 595 
Q 2681 806 2681 1225 
Q 2681 1659 2415 1884 
Q 2150 2109 1734 2109 
Q 1331 2109 1076 1879 
Q 822 1650 822 1244 
Q 822 894 1055 639 
Q 1288 384 1775 384 
z
M 975 2384 
Q 741 2484 609 2619 
Q 363 2869 363 3269 
Q 363 3769 725 4128 
Q 1088 4488 1753 4488 
Q 2397 4488 2762 4148 
Q 3128 3809 3128 3356 
Q 3128 2938 2916 2678 
Q 2797 2531 2547 2391 
Q 2825 2263 2984 2097 
Q 3281 1784 3281 1284 
Q 3281 694 2884 283 
Q 2488 -128 1763 -128 
Q 1109 -128 657 226 
Q 206 581 206 1256 
Q 206 1653 400 1942 
Q 594 2231 975 2384 
z
" transform="scale(0.015625)"/>
       </defs>
       <use xlink:href="#Helvetica-38"/>
       <use xlink:href="#Helvetica-30" x="55.615234"/>
      </g>
     </g>
    </g>
    <g id="ytick_6">
     <g id="line2d_6">
      <g>
       <use xlink:href="#me423f2ed42" x="10.005084" y="11.456106" style="fill: #777777; stroke: #777777; stroke-width: 0.5"/>
      </g>
     </g>
     <g id="text_15">
      <!-- 100 -->
      <g style="fill: #333333" transform="translate(3.00024 12.532122) scale(0.03 -0.03)">
       <defs>
        <path id="Helvetica-31" d="M 613 3169 
L 613 3600 
Q 1222 3659 1462 3798 
Q 1703 3938 1822 4456 
L 2266 4456 
L 2266 0 
L 1666 0 
L 1666 3169 
L 613 3169 
z
" transform="scale(0.015625)"/>
       </defs>
       <use xlink:href="#Helvetica-31"/>
       <use xlink:href="#Helvetica-30" x="55.615234"/>
       <use xlink:href="#Helvetica-30" x="111.230469"/>
      </g>
     </g>
    </g>
    <g id="ytick_7">
     <g id="line2d_7">
      <g>
       <use xlink:href="#me423f2ed42" x="10.005084" y="4.076256" style="fill: #777777; stroke: #777777; stroke-width: 0.5"/>
      </g>
     </g>
     <g id="text_16">
      <!-- 120 -->
      <g style="fill: #333333" transform="translate(3.00024 5.152271) scale(0.03 -0.03)">
       <use xlink:href="#Helvetica-31"/>
       <use xlink:href="#Helvetica-32" x="55.615234"/>
       <use xlink:href="#Helvetica-30" x="111.230469"/>
      </g>
     </g>
    </g>
   </g>
   <g id="PolyCollection_1">
    <defs>
     <path id="m809299a13d" d="M 25.33018 -36.560332 
L 21.554952 -36.560332 
L 21.103047 -36.647486 
L 20.596205 -36.734639 
L 20.042163 -36.821793 
L 19.452294 -36.908946 
L 18.841114 -36.9961 
L 18.225377 -37.083253 
L 17.622812 -37.170407 
L 17.050631 -37.257561 
L 16.523986 -37.344714 
L 16.054568 -37.431868 
L 15.649558 -37.519021 
L 15.311079 -37.606175 
L 15.03624 -37.693328 
L 14.817789 -37.780482 
L 14.64527 -37.867635 
L 14.506548 -37.954789 
L 14.389469 -38.041942 
L 14.283445 -38.129096 
L 14.180749 -38.216249 
L 14.077369 -38.303403 
L 13.973324 -38.390556 
L 13.872458 -38.47771 
L 13.781762 -38.564863 
L 13.710362 -38.652017 
L 13.668317 -38.73917 
L 13.665412 -38.826324 
L 13.710066 -38.913477 
L 13.808475 -39.000631 
L 13.964032 -39.087785 
L 14.177038 -39.174938 
L 14.44465 -39.262092 
L 14.761016 -39.349245 
L 15.117509 -39.436399 
L 15.503015 -39.523552 
L 15.904232 -39.610706 
L 16.305995 -39.697859 
L 16.691655 -39.785013 
L 17.043564 -39.872166 
L 17.343742 -39.95932 
L 17.574732 -40.046473 
L 17.720675 -40.133627 
L 17.768521 -40.22078 
L 17.709302 -40.307934 
L 17.539294 -40.395087 
L 17.260927 -40.482241 
L 16.883265 -40.569394 
L 16.421946 -40.656548 
L 15.898502 -40.743701 
L 15.339097 -40.830855 
L 14.772752 -40.918009 
L 14.229253 -41.005162 
L 13.736951 -41.092316 
L 13.320698 -41.179469 
L 13.000155 -41.266623 
L 12.788631 -41.353776 
L 12.69258 -41.44093 
L 12.711756 -41.528083 
L 12.83995 -41.615237 
L 13.066177 -41.70239 
L 13.37611 -41.789544 
L 13.753562 -41.876697 
L 14.181835 -41.963851 
L 14.644788 -42.051004 
L 15.127564 -42.138158 
L 15.616959 -42.225311 
L 16.101493 -42.312465 
L 16.571271 -42.399618 
L 17.017768 -42.486772 
L 17.433613 -42.573925 
L 17.812486 -42.661079 
L 18.149147 -42.748233 
L 18.439601 -42.835386 
L 18.681358 -42.92254 
L 18.873724 -43.009693 
L 19.018049 -43.096847 
L 19.117861 -43.184 
L 19.178845 -43.271154 
L 19.208638 -43.358307 
L 19.216452 -43.445461 
L 19.212552 -43.532614 
L 19.207636 -43.619768 
L 19.212171 -43.706921 
L 19.23573 -43.794075 
L 19.286409 -43.881228 
L 19.370332 -43.968382 
L 19.491309 -44.055535 
L 19.650647 -44.142689 
L 19.847151 -44.229842 
L 20.077289 -44.316996 
L 20.335528 -44.404149 
L 20.614794 -44.491303 
L 20.907037 -44.578457 
L 21.203827 -44.66561 
L 21.496948 -44.752764 
L 21.778923 -44.839917 
L 22.043437 -44.927071 
L 22.285622 -45.014224 
L 22.502195 -45.101378 
L 22.691453 -45.188531 
L 24.193679 -45.188531 
L 24.193679 -45.188531 
L 24.382937 -45.101378 
L 24.59951 -45.014224 
L 24.841694 -44.927071 
L 25.106208 -44.839917 
L 25.388183 -44.752764 
L 25.681304 -44.66561 
L 25.978095 -44.578457 
L 26.270338 -44.491303 
L 26.549604 -44.404149 
L 26.807842 -44.316996 
L 27.037981 -44.229842 
L 27.234484 -44.142689 
L 27.393823 -44.055535 
L 27.514799 -43.968382 
L 27.598723 -43.881228 
L 27.649402 -43.794075 
L 27.672961 -43.706921 
L 27.677495 -43.619768 
L 27.67258 -43.532614 
L 27.66868 -43.445461 
L 27.676494 -43.358307 
L 27.706286 -43.271154 
L 27.76727 -43.184 
L 27.867083 -43.096847 
L 28.011408 -43.009693 
L 28.203773 -42.92254 
L 28.44553 -42.835386 
L 28.735984 -42.748233 
L 29.072646 -42.661079 
L 29.451519 -42.573925 
L 29.867364 -42.486772 
L 30.31386 -42.399618 
L 30.783639 -42.312465 
L 31.268172 -42.225311 
L 31.757568 -42.138158 
L 32.240344 -42.051004 
L 32.703297 -41.963851 
L 33.131569 -41.876697 
L 33.509022 -41.789544 
L 33.818954 -41.70239 
L 34.045181 -41.615237 
L 34.173375 -41.528083 
L 34.192551 -41.44093 
L 34.096501 -41.353776 
L 33.884977 -41.266623 
L 33.564433 -41.179469 
L 33.148181 -41.092316 
L 32.655879 -41.005162 
L 32.112379 -40.918009 
L 31.546034 -40.830855 
L 30.986629 -40.743701 
L 30.463186 -40.656548 
L 30.001867 -40.569394 
L 29.624205 -40.482241 
L 29.345837 -40.395087 
L 29.175829 -40.307934 
L 29.11661 -40.22078 
L 29.164457 -40.133627 
L 29.3104 -40.046473 
L 29.54139 -39.95932 
L 29.841567 -39.872166 
L 30.193477 -39.785013 
L 30.579136 -39.697859 
L 30.980899 -39.610706 
L 31.382117 -39.523552 
L 31.767622 -39.436399 
L 32.124115 -39.349245 
L 32.440481 -39.262092 
L 32.708093 -39.174938 
L 32.921099 -39.087785 
L 33.076657 -39.000631 
L 33.175065 -38.913477 
L 33.21972 -38.826324 
L 33.216815 -38.73917 
L 33.17477 -38.652017 
L 33.103369 -38.564863 
L 33.012674 -38.47771 
L 32.911808 -38.390556 
L 32.807763 -38.303403 
L 32.704382 -38.216249 
L 32.601687 -38.129096 
L 32.495663 -38.041942 
L 32.378583 -37.954789 
L 32.239861 -37.867635 
L 32.067343 -37.780482 
L 31.848892 -37.693328 
L 31.574053 -37.606175 
L 31.235573 -37.519021 
L 30.830563 -37.431868 
L 30.361146 -37.344714 
L 29.8345 -37.257561 
L 29.26232 -37.170407 
L 28.659754 -37.083253 
L 28.044017 -36.9961 
L 27.432837 -36.908946 
L 26.842968 -36.821793 
L 26.288927 -36.734639 
L 25.782085 -36.647486 
L 25.33018 -36.560332 
z
" style="stroke: #6f6f6f; stroke-width: 0.15"/>
    </defs>
    <g clip-path="url(#p04d3ab25a2)">
     <use xlink:href="#m809299a13d" x="0" y="84.96" style="fill: #abc9ea; stroke: #6f6f6f; stroke-width: 0.15"/>
    </g>
   </g>
   <g id="PolyCollection_2">
    <defs>
     <path id="m15b48d5512" d="M 51.399831 -34.08882 
L 49.235229 -34.08882 
L 48.989148 -34.379418 
L 48.714507 -34.670016 
L 48.415062 -34.960614 
L 48.096253 -35.251212 
L 47.764957 -35.54181 
L 47.42905 -35.832407 
L 47.096789 -36.123005 
L 46.776069 -36.413603 
L 46.473631 -36.704201 
L 46.194312 -36.994799 
L 45.940422 -37.285397 
L 45.711354 -37.575995 
L 45.503487 -37.866593 
L 45.310398 -38.157191 
L 45.123411 -38.447789 
L 44.932402 -38.738387 
L 44.726807 -39.028985 
L 44.496704 -39.319583 
L 44.233881 -39.610181 
L 43.932759 -39.900779 
L 43.591088 -40.191377 
L 43.210353 -40.481975 
L 42.795859 -40.772573 
L 42.356495 -41.063171 
L 41.904208 -41.353769 
L 41.453251 -41.644367 
L 41.019253 -41.934965 
L 40.618201 -42.225563 
L 40.265405 -42.51616 
L 39.974506 -42.806758 
L 39.756608 -43.097356 
L 39.619575 -43.387954 
L 39.567544 -43.678552 
L 39.600699 -43.96915 
L 39.715309 -44.259748 
L 39.904052 -44.550346 
L 40.156599 -44.840944 
L 40.460415 -45.131542 
L 40.801725 -45.42214 
L 41.166551 -45.712738 
L 41.541726 -46.003336 
L 41.915799 -46.293934 
L 42.27972 -46.584532 
L 42.627262 -46.87513 
L 42.955124 -47.165728 
L 43.262727 -47.456326 
L 43.551736 -47.746924 
L 43.825383 -48.037522 
L 44.087678 -48.32812 
L 44.342617 -48.618718 
L 44.593476 -48.909315 
L 44.842268 -49.199913 
L 45.089423 -49.490511 
L 45.333689 -49.781109 
L 45.572263 -50.071707 
L 45.8011 -50.362305 
L 46.015349 -50.652903 
L 46.209854 -50.943501 
L 46.379664 -51.234099 
L 46.520488 -51.524697 
L 46.629048 -51.815295 
L 46.703317 -52.105893 
L 46.742593 -52.396491 
L 46.747429 -52.687089 
L 46.719427 -52.977687 
L 46.660912 -53.268285 
L 46.574545 -53.558883 
L 46.462936 -53.849481 
L 46.32831 -54.140079 
L 46.172311 -54.430677 
L 45.995977 -54.721275 
L 45.799943 -55.011873 
L 45.584834 -55.302471 
L 45.351825 -55.593068 
L 45.103282 -55.883666 
L 44.843363 -56.174264 
L 44.578475 -56.464862 
L 44.317467 -56.75546 
L 44.071484 -57.046058 
L 43.853454 -57.336656 
L 43.677231 -57.627254 
L 43.556489 -57.917852 
L 43.50348 -58.20845 
L 43.527828 -58.499048 
L 43.635505 -58.789646 
L 43.828132 -59.080244 
L 44.102686 -59.370842 
L 44.451659 -59.66144 
L 44.863633 -59.952038 
L 45.324201 -60.242636 
L 45.817114 -60.533234 
L 46.325513 -60.823832 
L 46.833121 -61.11443 
L 47.325266 -61.405028 
L 47.789658 -61.695626 
L 48.216872 -61.986223 
L 48.600536 -62.276821 
L 48.937243 -62.567419 
L 49.226254 -62.858017 
L 51.408805 -62.858017 
L 51.408805 -62.858017 
L 51.697817 -62.567419 
L 52.034524 -62.276821 
L 52.418188 -61.986223 
L 52.845402 -61.695626 
L 53.309793 -61.405028 
L 53.801938 -61.11443 
L 54.309547 -60.823832 
L 54.817946 -60.533234 
L 55.310858 -60.242636 
L 55.771426 -59.952038 
L 56.1834 -59.66144 
L 56.532373 -59.370842 
L 56.806928 -59.080244 
L 56.999555 -58.789646 
L 57.107232 -58.499048 
L 57.131579 -58.20845 
L 57.07857 -57.917852 
L 56.957828 -57.627254 
L 56.781606 -57.336656 
L 56.563575 -57.046058 
L 56.317592 -56.75546 
L 56.056585 -56.464862 
L 55.791697 -56.174264 
L 55.531778 -55.883666 
L 55.283235 -55.593068 
L 55.050226 -55.302471 
L 54.835117 -55.011873 
L 54.639083 -54.721275 
L 54.462749 -54.430677 
L 54.306749 -54.140079 
L 54.172124 -53.849481 
L 54.060515 -53.558883 
L 53.974148 -53.268285 
L 53.915632 -52.977687 
L 53.88763 -52.687089 
L 53.892467 -52.396491 
L 53.931742 -52.105893 
L 54.006011 -51.815295 
L 54.114572 -51.524697 
L 54.255395 -51.234099 
L 54.425206 -50.943501 
L 54.619711 -50.652903 
L 54.833959 -50.362305 
L 55.062796 -50.071707 
L 55.301371 -49.781109 
L 55.545637 -49.490511 
L 55.792791 -49.199913 
L 56.041584 -48.909315 
L 56.292442 -48.618718 
L 56.547381 -48.32812 
L 56.809676 -48.037522 
L 57.083323 -47.746924 
L 57.372332 -47.456326 
L 57.679935 -47.165728 
L 58.007798 -46.87513 
L 58.35534 -46.584532 
L 58.719261 -46.293934 
L 59.093333 -46.003336 
L 59.468509 -45.712738 
L 59.833335 -45.42214 
L 60.174645 -45.131542 
L 60.478461 -44.840944 
L 60.731008 -44.550346 
L 60.919751 -44.259748 
L 61.034361 -43.96915 
L 61.067515 -43.678552 
L 61.015485 -43.387954 
L 60.878452 -43.097356 
L 60.660554 -42.806758 
L 60.369655 -42.51616 
L 60.016858 -42.225563 
L 59.615807 -41.934965 
L 59.181808 -41.644367 
L 58.730852 -41.353769 
L 58.278565 -41.063171 
L 57.8392 -40.772573 
L 57.424706 -40.481975 
L 57.043971 -40.191377 
L 56.7023 -39.900779 
L 56.401178 -39.610181 
L 56.138356 -39.319583 
L 55.908253 -39.028985 
L 55.702657 -38.738387 
L 55.511649 -38.447789 
L 55.324662 -38.157191 
L 55.131573 -37.866593 
L 54.923705 -37.575995 
L 54.694638 -37.285397 
L 54.440747 -36.994799 
L 54.161428 -36.704201 
L 53.858991 -36.413603 
L 53.538271 -36.123005 
L 53.206009 -35.832407 
L 52.870102 -35.54181 
L 52.538806 -35.251212 
L 52.219997 -34.960614 
L 51.920552 -34.670016 
L 51.645912 -34.379418 
L 51.399831 -34.08882 
z
" style="stroke: #6f6f6f; stroke-width: 0.15"/>
    </defs>
    <g clip-path="url(#p04d3ab25a2)">
     <use xlink:href="#m15b48d5512" x="0" y="84.96" style="fill: #efb792; stroke: #6f6f6f; stroke-width: 0.15"/>
    </g>
   </g>
   <g id="PolyCollection_3">
    <defs>
     <path id="m8090bb908a" d="M 78.235507 -37.50016 
L 76.149481 -37.50016 
L 75.908824 -37.851561 
L 75.644377 -38.202963 
L 75.362546 -38.554365 
L 75.071731 -38.905766 
L 74.781776 -39.257168 
L 74.503129 -39.608569 
L 74.245785 -39.959971 
L 74.018133 -40.311372 
L 73.825857 -40.662774 
L 73.671067 -41.014175 
L 73.551811 -41.365577 
L 73.462094 -41.716978 
L 73.39245 -42.06838 
L 73.331026 -42.419781 
L 73.26507 -42.771183 
L 73.18262 -43.122585 
L 73.074159 -43.473986 
L 72.933983 -43.825388 
L 72.761067 -44.176789 
L 72.559273 -44.528191 
L 72.336861 -44.879592 
L 72.105348 -45.230994 
L 71.877885 -45.582395 
L 71.667403 -45.933797 
L 71.484811 -46.285198 
L 71.33752 -46.6366 
L 71.22853 -46.988002 
L 71.15621 -47.339403 
L 71.114774 -47.690805 
L 71.095373 -48.042206 
L 71.087577 -48.393608 
L 71.081006 -48.745009 
L 71.066815 -49.096411 
L 71.038817 -49.447812 
L 70.994047 -49.799214 
L 70.932742 -50.150615 
L 70.857757 -50.502017 
L 70.773565 -50.853418 
L 70.685044 -51.20482 
L 70.596287 -51.556222 
L 70.509638 -51.907623 
L 70.425122 -52.259025 
L 70.340359 -52.610426 
L 70.250946 -52.961828 
L 70.151241 -53.313229 
L 70.035377 -53.664631 
L 69.898328 -54.016032 
L 69.736833 -54.367434 
L 69.550005 -54.718835 
L 69.339535 -55.070237 
L 69.109449 -55.421639 
L 68.86549 -55.77304 
L 68.614244 -56.124442 
L 68.362202 -56.475843 
L 68.114952 -56.827245 
L 67.876664 -57.178646 
L 67.64997 -57.530048 
L 67.436268 -57.881449 
L 67.236349 -58.232851 
L 67.051186 -58.584252 
L 66.882673 -58.935654 
L 66.7341 -59.287056 
L 66.610188 -59.638457 
L 66.516633 -59.989859 
L 66.459196 -60.34126 
L 66.442508 -60.692662 
L 66.468839 -61.044063 
L 66.537105 -61.395465 
L 66.642374 -61.746866 
L 66.776024 -62.098268 
L 66.926597 -62.449669 
L 67.081244 -62.801071 
L 67.227538 -63.152472 
L 67.35536 -63.503874 
L 67.458525 -63.855276 
L 67.535895 -64.206677 
L 67.591778 -64.558079 
L 67.63557 -64.90948 
L 67.6807 -65.260882 
L 67.743069 -65.612283 
L 67.839206 -65.963685 
L 67.984423 -66.315086 
L 68.191191 -66.666488 
L 68.467918 -67.017889 
L 68.818229 -67.369291 
L 69.240773 -67.720693 
L 69.729505 -68.072094 
L 70.274353 -68.423496 
L 70.862162 -68.774897 
L 71.477778 -69.126299 
L 72.105179 -69.4777 
L 72.728549 -69.829102 
L 73.333217 -70.180503 
L 73.906424 -70.531905 
L 74.437867 -70.883306 
L 74.920019 -71.234708 
L 75.348222 -71.586109 
L 75.720574 -71.937511 
L 76.037641 -72.288913 
L 78.347346 -72.288913 
L 78.347346 -72.288913 
L 78.664414 -71.937511 
L 79.036766 -71.586109 
L 79.464969 -71.234708 
L 79.947121 -70.883306 
L 80.478564 -70.531905 
L 81.051771 -70.180503 
L 81.656439 -69.829102 
L 82.279809 -69.4777 
L 82.90721 -69.126299 
L 83.522826 -68.774897 
L 84.110634 -68.423496 
L 84.655483 -68.072094 
L 85.144215 -67.720693 
L 85.566759 -67.369291 
L 85.91707 -67.017889 
L 86.193796 -66.666488 
L 86.400565 -66.315086 
L 86.545782 -65.963685 
L 86.641919 -65.612283 
L 86.704288 -65.260882 
L 86.749418 -64.90948 
L 86.79321 -64.558079 
L 86.849093 -64.206677 
L 86.926463 -63.855276 
L 87.029628 -63.503874 
L 87.157449 -63.152472 
L 87.303744 -62.801071 
L 87.458391 -62.449669 
L 87.608964 -62.098268 
L 87.742614 -61.746866 
L 87.847883 -61.395465 
L 87.916149 -61.044063 
L 87.942479 -60.692662 
L 87.925792 -60.34126 
L 87.868355 -59.989859 
L 87.7748 -59.638457 
L 87.650888 -59.287056 
L 87.502315 -58.935654 
L 87.333802 -58.584252 
L 87.148638 -58.232851 
L 86.948719 -57.881449 
L 86.735018 -57.530048 
L 86.508324 -57.178646 
L 86.270035 -56.827245 
L 86.022786 -56.475843 
L 85.770744 -56.124442 
L 85.519498 -55.77304 
L 85.275538 -55.421639 
L 85.045453 -55.070237 
L 84.834983 -54.718835 
L 84.648155 -54.367434 
L 84.486659 -54.016032 
L 84.34961 -53.664631 
L 84.233746 -53.313229 
L 84.134042 -52.961828 
L 84.044629 -52.610426 
L 83.959865 -52.259025 
L 83.875349 -51.907623 
L 83.7887 -51.556222 
L 83.699944 -51.20482 
L 83.611423 -50.853418 
L 83.52723 -50.502017 
L 83.452246 -50.150615 
L 83.390941 -49.799214 
L 83.346171 -49.447812 
L 83.318172 -49.096411 
L 83.303982 -48.745009 
L 83.297411 -48.393608 
L 83.289615 -48.042206 
L 83.270214 -47.690805 
L 83.228778 -47.339403 
L 83.156458 -46.988002 
L 83.047468 -46.6366 
L 82.900177 -46.285198 
L 82.717584 -45.933797 
L 82.507103 -45.582395 
L 82.27964 -45.230994 
L 82.048126 -44.879592 
L 81.825715 -44.528191 
L 81.623921 -44.176789 
L 81.451004 -43.825388 
L 81.310828 -43.473986 
L 81.202368 -43.122585 
L 81.119918 -42.771183 
L 81.053962 -42.419781 
L 80.992538 -42.06838 
L 80.922893 -41.716978 
L 80.833176 -41.365577 
L 80.71392 -41.014175 
L 80.55913 -40.662774 
L 80.366855 -40.311372 
L 80.139203 -39.959971 
L 79.881859 -39.608569 
L 79.603211 -39.257168 
L 79.313256 -38.905766 
L 79.022442 -38.554365 
L 78.74061 -38.202963 
L 78.476163 -37.851561 
L 78.235507 -37.50016 
z
" style="stroke: #6f6f6f; stroke-width: 0.15"/>
    </defs>
    <g clip-path="url(#p04d3ab25a2)">
     <use xlink:href="#m8090bb908a" x="0" y="84.96" style="fill: #98daa7; stroke: #6f6f6f; stroke-width: 0.15"/>
    </g>
   </g>
   <g id="PolyCollection_4">
    <defs>
     <path id="m919f471b44" d="M 105.055521 -36.278857 
L 103.079395 -36.278857 
L 102.904674 -36.304692 
L 102.713127 -36.330527 
L 102.505769 -36.356362 
L 102.284005 -36.382197 
L 102.049541 -36.408033 
L 101.804263 -36.433868 
L 101.550089 -36.459703 
L 101.288803 -36.485538 
L 101.021888 -36.511373 
L 100.750375 -36.537208 
L 100.474728 -36.563044 
L 100.194773 -36.588879 
L 99.909691 -36.614714 
L 99.618084 -36.640549 
L 99.318108 -36.666384 
L 99.007673 -36.692219 
L 98.684695 -36.718055 
L 98.347388 -36.74389 
L 97.994557 -36.769725 
L 97.625885 -36.79556 
L 97.242175 -36.821395 
L 96.845528 -36.847231 
L 96.439441 -36.873066 
L 96.028806 -36.898901 
L 95.61981 -36.924736 
L 95.219744 -36.950571 
L 94.836719 -36.976406 
L 94.479327 -37.002242 
L 94.156253 -37.028077 
L 93.875872 -37.053912 
L 93.645865 -37.079747 
L 93.472861 -37.105582 
L 93.362151 -37.131417 
L 93.317472 -37.157253 
L 93.340876 -37.183088 
L 93.432695 -37.208923 
L 93.591583 -37.234758 
L 93.814641 -37.260593 
L 94.097599 -37.286429 
L 94.435037 -37.312264 
L 94.82064 -37.338099 
L 95.247445 -37.363934 
L 95.708089 -37.389769 
L 96.195027 -37.415604 
L 96.700719 -37.44144 
L 97.217783 -37.467275 
L 97.739112 -37.49311 
L 98.257954 -37.518945 
L 98.767974 -37.54478 
L 99.263283 -37.570615 
L 99.73846 -37.596451 
L 100.188566 -37.622286 
L 100.609146 -37.648121 
L 100.996236 -37.673956 
L 101.346368 -37.699791 
L 101.656577 -37.725627 
L 101.924405 -37.751462 
L 102.147917 -37.777297 
L 102.325704 -37.803132 
L 102.456906 -37.828967 
L 102.541223 -37.854802 
L 102.578942 -37.880638 
L 102.570959 -37.906473 
L 102.518805 -37.932308 
L 102.42468 -37.958143 
L 102.291467 -37.983978 
L 102.122754 -38.009814 
L 101.922829 -38.035649 
L 101.696661 -38.061484 
L 101.449858 -38.087319 
L 101.188585 -38.113154 
L 100.919464 -38.138989 
L 100.649434 -38.164825 
L 100.385591 -38.19066 
L 100.134994 -38.216495 
L 99.904469 -38.24233 
L 99.700396 -38.268165 
L 99.528507 -38.294 
L 99.393699 -38.319836 
L 99.299864 -38.345671 
L 99.249756 -38.371506 
L 99.244907 -38.397341 
L 99.285574 -38.423176 
L 99.370747 -38.449012 
L 99.498198 -38.474847 
L 99.664586 -38.500682 
L 99.865599 -38.526517 
L 100.096131 -38.552352 
L 100.350496 -38.578187 
L 100.622646 -38.604023 
L 100.906407 -38.629858 
L 101.195703 -38.655693 
L 101.484765 -38.681528 
L 101.768316 -38.707363 
L 102.041716 -38.733198 
L 102.301074 -38.759034 
L 102.543315 -38.784869 
L 102.766198 -38.810704 
L 102.968303 -38.836539 
L 105.166613 -38.836539 
L 105.166613 -38.836539 
L 105.368718 -38.810704 
L 105.591601 -38.784869 
L 105.833841 -38.759034 
L 106.0932 -38.733198 
L 106.3666 -38.707363 
L 106.65015 -38.681528 
L 106.939213 -38.655693 
L 107.228509 -38.629858 
L 107.51227 -38.604023 
L 107.78442 -38.578187 
L 108.038785 -38.552352 
L 108.269317 -38.526517 
L 108.47033 -38.500682 
L 108.636718 -38.474847 
L 108.764169 -38.449012 
L 108.849341 -38.423176 
L 108.890008 -38.397341 
L 108.88516 -38.371506 
L 108.835052 -38.345671 
L 108.741216 -38.319836 
L 108.606408 -38.294 
L 108.43452 -38.268165 
L 108.230447 -38.24233 
L 107.999921 -38.216495 
L 107.749324 -38.19066 
L 107.485481 -38.164825 
L 107.215452 -38.138989 
L 106.946331 -38.113154 
L 106.685058 -38.087319 
L 106.438254 -38.061484 
L 106.212087 -38.035649 
L 106.012162 -38.009814 
L 105.843449 -37.983978 
L 105.710236 -37.958143 
L 105.61611 -37.932308 
L 105.563957 -37.906473 
L 105.555974 -37.880638 
L 105.593693 -37.854802 
L 105.67801 -37.828967 
L 105.809212 -37.803132 
L 105.986999 -37.777297 
L 106.21051 -37.751462 
L 106.478339 -37.725627 
L 106.788548 -37.699791 
L 107.13868 -37.673956 
L 107.52577 -37.648121 
L 107.946349 -37.622286 
L 108.396455 -37.596451 
L 108.871633 -37.570615 
L 109.366941 -37.54478 
L 109.876961 -37.518945 
L 110.395804 -37.49311 
L 110.917133 -37.467275 
L 111.434197 -37.44144 
L 111.939889 -37.415604 
L 112.426827 -37.389769 
L 112.887471 -37.363934 
L 113.314276 -37.338099 
L 113.699879 -37.312264 
L 114.037317 -37.286429 
L 114.320274 -37.260593 
L 114.543333 -37.234758 
L 114.702221 -37.208923 
L 114.794039 -37.183088 
L 114.817443 -37.157253 
L 114.772764 -37.131417 
L 114.662055 -37.105582 
L 114.489051 -37.079747 
L 114.259043 -37.053912 
L 113.978663 -37.028077 
L 113.655589 -37.002242 
L 113.298197 -36.976406 
L 112.915172 -36.950571 
L 112.515105 -36.924736 
L 112.10611 -36.898901 
L 111.695474 -36.873066 
L 111.289388 -36.847231 
L 110.892741 -36.821395 
L 110.509031 -36.79556 
L 110.140358 -36.769725 
L 109.787527 -36.74389 
L 109.45022 -36.718055 
L 109.127243 -36.692219 
L 108.816808 -36.666384 
L 108.516832 -36.640549 
L 108.225225 -36.614714 
L 107.940143 -36.588879 
L 107.660187 -36.563044 
L 107.38454 -36.537208 
L 107.113028 -36.511373 
L 106.846112 -36.485538 
L 106.584826 -36.459703 
L 106.330653 -36.433868 
L 106.085375 -36.408033 
L 105.850911 -36.382197 
L 105.629147 -36.356362 
L 105.421789 -36.330527 
L 105.230242 -36.304692 
L 105.055521 -36.278857 
z
" style="stroke: #6f6f6f; stroke-width: 0.15"/>
    </defs>
    <g clip-path="url(#p04d3ab25a2)">
     <use xlink:href="#m919f471b44" x="0" y="84.96" style="fill: #f2aba8; stroke: #6f6f6f; stroke-width: 0.15"/>
    </g>
   </g>
   <g id="PolyCollection_5">
    <defs>
     <path id="m9f078a9262" d="M 132.313974 -36.55327 
L 129.57087 -36.55327 
L 129.34807 -36.557181 
L 129.105236 -36.561092 
L 128.843823 -36.565003 
L 128.565988 -36.568914 
L 128.274604 -36.572824 
L 127.973238 -36.576735 
L 127.666093 -36.580646 
L 127.357914 -36.584557 
L 127.053851 -36.588468 
L 126.7593 -36.592378 
L 126.479709 -36.596289 
L 126.220368 -36.6002 
L 125.98619 -36.604111 
L 125.781501 -36.608022 
L 125.609839 -36.611932 
L 125.473784 -36.615843 
L 125.374829 -36.619754 
L 125.313298 -36.623665 
L 125.288316 -36.627576 
L 125.297846 -36.631486 
L 125.338769 -36.635397 
L 125.407033 -36.639308 
L 125.497834 -36.643219 
L 125.605844 -36.64713 
L 125.72545 -36.65104 
L 125.851009 -36.654951 
L 125.977096 -36.658862 
L 126.098726 -36.662773 
L 126.211551 -36.666684 
L 126.312007 -36.670594 
L 126.397422 -36.674505 
L 126.466063 -36.678416 
L 126.51714 -36.682327 
L 126.550759 -36.686238 
L 126.567834 -36.690149 
L 126.56997 -36.694059 
L 126.559325 -36.69797 
L 126.538457 -36.701881 
L 126.510169 -36.705792 
L 126.477366 -36.709703 
L 126.442919 -36.713613 
L 126.409544 -36.717524 
L 126.379708 -36.721435 
L 126.35554 -36.725346 
L 126.33877 -36.729257 
L 126.330676 -36.733167 
L 126.332034 -36.737078 
L 126.343089 -36.740989 
L 126.363517 -36.7449 
L 126.392396 -36.748811 
L 126.428187 -36.752721 
L 126.468717 -36.756632 
L 126.511174 -36.760543 
L 126.55213 -36.764454 
L 126.587577 -36.768365 
L 126.612997 -36.772275 
L 126.62347 -36.776186 
L 126.613812 -36.780097 
L 126.578754 -36.784008 
L 126.513153 -36.787919 
L 126.412232 -36.791829 
L 126.271836 -36.79574 
L 126.088699 -36.799651 
L 125.8607 -36.803562 
L 125.5871 -36.807473 
L 125.268739 -36.811383 
L 124.908179 -36.815294 
L 124.509786 -36.819205 
L 124.079727 -36.823116 
L 123.62589 -36.827027 
L 123.157716 -36.830937 
L 122.685943 -36.834848 
L 122.222281 -36.838759 
L 121.779013 -36.84267 
L 121.368564 -36.846581 
L 121.003023 -36.850491 
L 120.693684 -36.854402 
L 120.45059 -36.858313 
L 120.282129 -36.862224 
L 120.194696 -36.866135 
L 120.192436 -36.870045 
L 120.27709 -36.873956 
L 120.447937 -36.877867 
L 120.701855 -36.881778 
L 121.033479 -36.885689 
L 121.43545 -36.889599 
L 121.898745 -36.89351 
L 122.413066 -36.897421 
L 122.967263 -36.901332 
L 123.549763 -36.905243 
L 124.149007 -36.909153 
L 124.753837 -36.913064 
L 125.353847 -36.916975 
L 125.939671 -36.920886 
L 126.503197 -36.924797 
L 127.037712 -36.928707 
L 127.537971 -36.932618 
L 128.000199 -36.936529 
L 128.422028 -36.94044 
L 133.462815 -36.94044 
L 133.462815 -36.94044 
L 133.884645 -36.936529 
L 134.346873 -36.932618 
L 134.847132 -36.928707 
L 135.381647 -36.924797 
L 135.945173 -36.920886 
L 136.530996 -36.916975 
L 137.131007 -36.913064 
L 137.735836 -36.909153 
L 138.33508 -36.905243 
L 138.917581 -36.901332 
L 139.471777 -36.897421 
L 139.986099 -36.89351 
L 140.449394 -36.889599 
L 140.851365 -36.885689 
L 141.182988 -36.881778 
L 141.436907 -36.877867 
L 141.607754 -36.873956 
L 141.692407 -36.870045 
L 141.690148 -36.866135 
L 141.602715 -36.862224 
L 141.434254 -36.858313 
L 141.19116 -36.854402 
L 140.881821 -36.850491 
L 140.51628 -36.846581 
L 140.10583 -36.84267 
L 139.662563 -36.838759 
L 139.198901 -36.834848 
L 138.727128 -36.830937 
L 138.258954 -36.827027 
L 137.805117 -36.823116 
L 137.375058 -36.819205 
L 136.976665 -36.815294 
L 136.616105 -36.811383 
L 136.297744 -36.807473 
L 136.024144 -36.803562 
L 135.796145 -36.799651 
L 135.613008 -36.79574 
L 135.472612 -36.791829 
L 135.371691 -36.787919 
L 135.30609 -36.784008 
L 135.271032 -36.780097 
L 135.261374 -36.776186 
L 135.271847 -36.772275 
L 135.297267 -36.768365 
L 135.332713 -36.764454 
L 135.37367 -36.760543 
L 135.416127 -36.756632 
L 135.456656 -36.752721 
L 135.492448 -36.748811 
L 135.521327 -36.7449 
L 135.541754 -36.740989 
L 135.55281 -36.737078 
L 135.554168 -36.733167 
L 135.546074 -36.729257 
L 135.529304 -36.725346 
L 135.505136 -36.721435 
L 135.4753 -36.717524 
L 135.441925 -36.713613 
L 135.407478 -36.709703 
L 135.374675 -36.705792 
L 135.346387 -36.701881 
L 135.325519 -36.69797 
L 135.314874 -36.694059 
L 135.31701 -36.690149 
L 135.334085 -36.686238 
L 135.367703 -36.682327 
L 135.418781 -36.678416 
L 135.487422 -36.674505 
L 135.572837 -36.670594 
L 135.673293 -36.666684 
L 135.786117 -36.662773 
L 135.907748 -36.658862 
L 136.033835 -36.654951 
L 136.159394 -36.65104 
L 136.279 -36.64713 
L 136.387009 -36.643219 
L 136.477811 -36.639308 
L 136.546075 -36.635397 
L 136.586998 -36.631486 
L 136.596528 -36.627576 
L 136.571546 -36.623665 
L 136.510015 -36.619754 
L 136.411059 -36.615843 
L 136.275004 -36.611932 
L 136.103342 -36.608022 
L 135.898654 -36.604111 
L 135.664476 -36.6002 
L 135.405134 -36.596289 
L 135.125543 -36.592378 
L 134.830993 -36.588468 
L 134.52693 -36.584557 
L 134.21875 -36.580646 
L 133.911606 -36.576735 
L 133.61024 -36.572824 
L 133.318856 -36.568914 
L 133.04102 -36.565003 
L 132.779607 -36.561092 
L 132.536774 -36.557181 
L 132.313974 -36.55327 
z
" style="stroke: #6f6f6f; stroke-width: 0.15"/>
    </defs>
    <g clip-path="url(#p04d3ab25a2)">
     <use xlink:href="#m9f078a9262" x="0" y="84.96" style="fill: #d3c4f6; stroke: #6f6f6f; stroke-width: 0.15"/>
    </g>
   </g>
   <g id="PolyCollection_6">
    <defs>
     <path id="m83c45ce63d" d="M 160.025698 -37.075324 
L 155.609074 -37.075324 
L 155.240432 -37.300816 
L 154.837296 -37.526309 
L 154.401739 -37.751802 
L 153.936887 -37.977295 
L 153.446907 -38.202788 
L 152.936942 -38.42828 
L 152.412986 -38.653773 
L 151.881715 -38.879266 
L 151.350276 -39.104759 
L 150.82604 -39.330252 
L 150.316342 -39.555744 
L 149.828217 -39.781237 
L 149.368154 -40.00673 
L 148.941877 -40.232223 
L 148.554177 -40.457716 
L 148.20879 -40.683208 
L 147.908343 -40.908701 
L 147.654353 -41.134194 
L 147.447284 -41.359687 
L 147.286654 -41.58518 
L 147.171171 -41.810672 
L 147.098895 -42.036165 
L 147.0674 -42.261658 
L 147.07394 -42.487151 
L 147.115585 -42.712644 
L 147.189339 -42.938136 
L 147.292232 -43.163629 
L 147.421373 -43.389122 
L 147.573983 -43.614615 
L 147.747413 -43.840108 
L 147.939136 -44.0656 
L 148.146744 -44.291093 
L 148.367938 -44.516586 
L 148.600524 -44.742079 
L 148.842414 -44.967571 
L 149.091628 -45.193064 
L 149.346308 -45.418557 
L 149.604717 -45.64405 
L 149.865241 -45.869543 
L 150.126373 -46.095035 
L 150.386692 -46.320528 
L 150.64482 -46.546021 
L 150.89937 -46.771514 
L 151.148888 -46.997007 
L 151.391793 -47.222499 
L 151.62632 -47.447992 
L 151.850486 -47.673485 
L 152.06207 -47.898978 
L 152.258624 -48.124471 
L 152.437519 -48.349963 
L 152.596014 -48.575456 
L 152.731356 -48.800949 
L 152.840905 -49.026442 
L 152.922261 -49.251935 
L 152.973398 -49.477427 
L 152.992791 -49.70292 
L 152.979515 -49.928413 
L 152.933323 -50.153906 
L 152.85469 -50.379399 
L 152.744823 -50.604891 
L 152.605631 -50.830384 
L 152.439679 -51.055877 
L 152.250108 -51.28137 
L 152.040549 -51.506863 
L 151.815029 -51.732355 
L 151.577881 -51.957848 
L 151.333664 -52.183341 
L 151.087091 -52.408834 
L 150.842976 -52.634327 
L 150.606189 -52.859819 
L 150.381617 -53.085312 
L 150.174126 -53.310805 
L 149.98852 -53.536298 
L 149.829476 -53.761791 
L 149.701478 -53.987283 
L 149.608718 -54.212776 
L 149.554986 -54.438269 
L 149.54354 -54.663762 
L 149.576973 -54.889255 
L 149.657079 -55.114747 
L 149.784734 -55.34024 
L 149.959797 -55.565733 
L 150.181048 -55.791226 
L 150.446172 -56.016718 
L 150.751783 -56.242211 
L 151.093505 -56.467704 
L 151.466098 -56.693197 
L 151.863626 -56.91869 
L 152.279659 -57.144182 
L 152.707496 -57.369675 
L 153.140398 -57.595168 
L 153.571813 -57.820661 
L 153.995592 -58.046154 
L 154.406164 -58.271646 
L 154.79869 -58.497139 
L 155.169162 -58.722632 
L 155.514464 -58.948125 
L 155.832394 -59.173618 
L 156.121631 -59.39911 
L 159.513141 -59.39911 
L 159.513141 -59.39911 
L 159.802378 -59.173618 
L 160.120307 -58.948125 
L 160.46561 -58.722632 
L 160.836082 -58.497139 
L 161.228607 -58.271646 
L 161.63918 -58.046154 
L 162.062958 -57.820661 
L 162.494374 -57.595168 
L 162.927276 -57.369675 
L 163.355113 -57.144182 
L 163.771146 -56.91869 
L 164.168674 -56.693197 
L 164.541267 -56.467704 
L 164.882989 -56.242211 
L 165.1886 -56.016718 
L 165.453724 -55.791226 
L 165.674975 -55.565733 
L 165.850038 -55.34024 
L 165.977692 -55.114747 
L 166.057799 -54.889255 
L 166.091232 -54.663762 
L 166.079786 -54.438269 
L 166.026054 -54.212776 
L 165.933294 -53.987283 
L 165.805296 -53.761791 
L 165.646252 -53.536298 
L 165.460645 -53.310805 
L 165.253155 -53.085312 
L 165.028583 -52.859819 
L 164.791796 -52.634327 
L 164.547681 -52.408834 
L 164.301108 -52.183341 
L 164.05689 -51.957848 
L 163.819743 -51.732355 
L 163.594223 -51.506863 
L 163.384664 -51.28137 
L 163.195093 -51.055877 
L 163.029141 -50.830384 
L 162.889949 -50.604891 
L 162.780081 -50.379399 
L 162.701449 -50.153906 
L 162.655257 -49.928413 
L 162.641981 -49.70292 
L 162.661373 -49.477427 
L 162.712511 -49.251935 
L 162.793867 -49.026442 
L 162.903415 -48.800949 
L 163.038758 -48.575456 
L 163.197252 -48.349963 
L 163.376147 -48.124471 
L 163.572702 -47.898978 
L 163.784286 -47.673485 
L 164.008452 -47.447992 
L 164.242979 -47.222499 
L 164.485884 -46.997007 
L 164.735402 -46.771514 
L 164.989952 -46.546021 
L 165.24808 -46.320528 
L 165.508399 -46.095035 
L 165.769531 -45.869543 
L 166.030054 -45.64405 
L 166.288463 -45.418557 
L 166.543144 -45.193064 
L 166.792358 -44.967571 
L 167.034247 -44.742079 
L 167.266834 -44.516586 
L 167.488028 -44.291093 
L 167.695636 -44.0656 
L 167.887359 -43.840108 
L 168.060789 -43.614615 
L 168.213399 -43.389122 
L 168.342539 -43.163629 
L 168.445432 -42.938136 
L 168.519187 -42.712644 
L 168.560832 -42.487151 
L 168.567372 -42.261658 
L 168.535877 -42.036165 
L 168.463601 -41.810672 
L 168.348118 -41.58518 
L 168.187488 -41.359687 
L 167.980419 -41.134194 
L 167.726429 -40.908701 
L 167.425981 -40.683208 
L 167.080595 -40.457716 
L 166.692894 -40.232223 
L 166.266618 -40.00673 
L 165.806554 -39.781237 
L 165.31843 -39.555744 
L 164.808732 -39.330252 
L 164.284496 -39.104759 
L 163.753057 -38.879266 
L 163.221786 -38.653773 
L 162.69783 -38.42828 
L 162.187864 -38.202788 
L 161.697885 -37.977295 
L 161.233033 -37.751802 
L 160.797476 -37.526309 
L 160.39434 -37.300816 
L 160.025698 -37.075324 
z
" style="stroke: #6f6f6f; stroke-width: 0.15"/>
    </defs>
    <g clip-path="url(#p04d3ab25a2)">
     <use xlink:href="#m83c45ce63d" x="0" y="84.96" style="fill: #d6bba3; stroke: #6f6f6f; stroke-width: 0.15"/>
    </g>
   </g>
   <g id="PolyCollection_7">
    <defs>
     <path id="mb86a3c19e9" d="M 185.543847 -35.722109 
L 183.840852 -35.722109 
L 183.674115 -35.882288 
L 183.491363 -36.042466 
L 183.294808 -36.202645 
L 183.08742 -36.362824 
L 182.872827 -36.523003 
L 182.655145 -36.683181 
L 182.438773 -36.84336 
L 182.228157 -37.003539 
L 182.027554 -37.163718 
L 181.840823 -37.323896 
L 181.671262 -37.484075 
L 181.521501 -37.644254 
L 181.393477 -37.804433 
L 181.288461 -37.964611 
L 181.207145 -38.12479 
L 181.149747 -38.284969 
L 181.116119 -38.445148 
L 181.105822 -38.605326 
L 181.118145 -38.765505 
L 181.15206 -38.925684 
L 181.206098 -39.085863 
L 181.278176 -39.246041 
L 181.365377 -39.40622 
L 181.463739 -39.566399 
L 181.568064 -39.726578 
L 181.671808 -39.886756 
L 181.76707 -40.046935 
L 181.84471 -40.207114 
L 181.894608 -40.367293 
L 181.906058 -40.527472 
L 181.868302 -40.68765 
L 181.771148 -40.847829 
L 181.605679 -41.008008 
L 181.364961 -41.168187 
L 181.044749 -41.328365 
L 180.644091 -41.488544 
L 180.165817 -41.648723 
L 179.616832 -41.808902 
L 179.008184 -41.96908 
L 178.354883 -42.129259 
L 177.675439 -42.289438 
L 176.991147 -42.449617 
L 176.325134 -42.609795 
L 175.701229 -42.769974 
L 175.142727 -42.930153 
L 174.671134 -43.090332 
L 174.304978 -43.25051 
L 174.058799 -43.410689 
L 173.942364 -43.570868 
L 173.960196 -43.731047 
L 174.11143 -43.891225 
L 174.390008 -44.051404 
L 174.785179 -44.211583 
L 175.282262 -44.371762 
L 175.863595 -44.53194 
L 176.509582 -44.692119 
L 177.199778 -44.852298 
L 177.913902 -45.012477 
L 178.632739 -45.172655 
L 179.338872 -45.332834 
L 180.017209 -45.493013 
L 180.655314 -45.653192 
L 181.243526 -45.81337 
L 181.77491 -45.973549 
L 182.24506 -46.133728 
L 182.651798 -46.293907 
L 182.994809 -46.454085 
L 183.275264 -46.614264 
L 183.495444 -46.774443 
L 183.658422 -46.934622 
L 183.767805 -47.094801 
L 183.827558 -47.254979 
L 183.841903 -47.415158 
L 183.8153 -47.575337 
L 183.752474 -47.735516 
L 183.658485 -47.895694 
L 183.538795 -48.055873 
L 183.399325 -48.216052 
L 183.246458 -48.376231 
L 183.086983 -48.536409 
L 182.927957 -48.696588 
L 182.776503 -48.856767 
L 182.639532 -49.016946 
L 182.523428 -49.177124 
L 182.433724 -49.337303 
L 182.374785 -49.497482 
L 182.349562 -49.657661 
L 182.359415 -49.817839 
L 182.404047 -49.978018 
L 182.481554 -50.138197 
L 182.588581 -50.298376 
L 182.720585 -50.458554 
L 182.872162 -50.618733 
L 183.037423 -50.778912 
L 183.210372 -50.939091 
L 183.385266 -51.099269 
L 183.55691 -51.259448 
L 183.720894 -51.419627 
L 183.873734 -51.579806 
L 185.510966 -51.579806 
L 185.510966 -51.579806 
L 185.663806 -51.419627 
L 185.82779 -51.259448 
L 185.999434 -51.099269 
L 186.174327 -50.939091 
L 186.347277 -50.778912 
L 186.512538 -50.618733 
L 186.664115 -50.458554 
L 186.796119 -50.298376 
L 186.903146 -50.138197 
L 186.980653 -49.978018 
L 187.025285 -49.817839 
L 187.035138 -49.657661 
L 187.009915 -49.497482 
L 186.950976 -49.337303 
L 186.861271 -49.177124 
L 186.745168 -49.016946 
L 186.608196 -48.856767 
L 186.456743 -48.696588 
L 186.297717 -48.536409 
L 186.138242 -48.376231 
L 185.985375 -48.216052 
L 185.845905 -48.055873 
L 185.726215 -47.895694 
L 185.632226 -47.735516 
L 185.5694 -47.575337 
L 185.542797 -47.415158 
L 185.557142 -47.254979 
L 185.616895 -47.094801 
L 185.726278 -46.934622 
L 185.889256 -46.774443 
L 186.109436 -46.614264 
L 186.389891 -46.454085 
L 186.732902 -46.293907 
L 187.13964 -46.133728 
L 187.60979 -45.973549 
L 188.141174 -45.81337 
L 188.729386 -45.653192 
L 189.367491 -45.493013 
L 190.045828 -45.332834 
L 190.751961 -45.172655 
L 191.470798 -45.012477 
L 192.184922 -44.852298 
L 192.875118 -44.692119 
L 193.521105 -44.53194 
L 194.102438 -44.371762 
L 194.599521 -44.211583 
L 194.994692 -44.051404 
L 195.27327 -43.891225 
L 195.424504 -43.731047 
L 195.442336 -43.570868 
L 195.3259 -43.410689 
L 195.079721 -43.25051 
L 194.713566 -43.090332 
L 194.241972 -42.930153 
L 193.683471 -42.769974 
L 193.059566 -42.609795 
L 192.393552 -42.449617 
L 191.70926 -42.289438 
L 191.029817 -42.129259 
L 190.376516 -41.96908 
L 189.767868 -41.808902 
L 189.218882 -41.648723 
L 188.740609 -41.488544 
L 188.339951 -41.328365 
L 188.019738 -41.168187 
L 187.779021 -41.008008 
L 187.613551 -40.847829 
L 187.516398 -40.68765 
L 187.478641 -40.527472 
L 187.490092 -40.367293 
L 187.53999 -40.207114 
L 187.61763 -40.046935 
L 187.712892 -39.886756 
L 187.816636 -39.726578 
L 187.920961 -39.566399 
L 188.019323 -39.40622 
L 188.106524 -39.246041 
L 188.178601 -39.085863 
L 188.23264 -38.925684 
L 188.266554 -38.765505 
L 188.278878 -38.605326 
L 188.268581 -38.445148 
L 188.234953 -38.284969 
L 188.177555 -38.12479 
L 188.096238 -37.964611 
L 187.991223 -37.804433 
L 187.863199 -37.644254 
L 187.713438 -37.484075 
L 187.543877 -37.323896 
L 187.357146 -37.163718 
L 187.156543 -37.003539 
L 186.945927 -36.84336 
L 186.729554 -36.683181 
L 186.511872 -36.523003 
L 186.297279 -36.362824 
L 186.089892 -36.202645 
L 185.893337 -36.042466 
L 185.710585 -35.882288 
L 185.543847 -35.722109 
z
" style="stroke: #6f6f6f; stroke-width: 0.15"/>
    </defs>
    <g clip-path="url(#p04d3ab25a2)">
     <use xlink:href="#mb86a3c19e9" x="0" y="84.96" style="fill: #f1b9e0; stroke: #6f6f6f; stroke-width: 0.15"/>
    </g>
   </g>
   <g id="PolyCollection_8">
    <defs>
     <path id="md67d3b7a93" d="M 213.226699 -36.105162 
L 209.907929 -36.105162 
L 209.582187 -36.210911 
L 209.223257 -36.31666 
L 208.834913 -36.422409 
L 208.422568 -36.528159 
L 207.99316 -36.633908 
L 207.554911 -36.739657 
L 207.116955 -36.845407 
L 206.688867 -36.951156 
L 206.280109 -37.056905 
L 205.899446 -37.162654 
L 205.554374 -37.268404 
L 205.250627 -37.374153 
L 204.99178 -37.479902 
L 204.779011 -37.585652 
L 204.611035 -37.691401 
L 204.484208 -37.79715 
L 204.392791 -37.902899 
L 204.329356 -38.008649 
L 204.285279 -38.114398 
L 204.251282 -38.220147 
L 204.217985 -38.325897 
L 204.176416 -38.431646 
L 204.118462 -38.537395 
L 204.037244 -38.643144 
L 203.9274 -38.748894 
L 203.785303 -38.854643 
L 203.609202 -38.960392 
L 203.399326 -39.066142 
L 203.157936 -39.171891 
L 202.889342 -39.27764 
L 202.599885 -39.383389 
L 202.297853 -39.489139 
L 201.993329 -39.594888 
L 201.697936 -39.700637 
L 201.424478 -39.806387 
L 201.186456 -39.912136 
L 200.997468 -40.017885 
L 200.870528 -40.123634 
L 200.817328 -40.229384 
L 200.847505 -40.335133 
L 200.96797 -40.440882 
L 201.182369 -40.546632 
L 201.490724 -40.652381 
L 201.889296 -40.75813 
L 202.370704 -40.863879 
L 202.92428 -40.969629 
L 203.536649 -41.075378 
L 204.192479 -41.181127 
L 204.875337 -41.286877 
L 205.568589 -41.392626 
L 206.25625 -41.498375 
L 206.923749 -41.604124 
L 207.558522 -41.709874 
L 208.150433 -41.815623 
L 208.691982 -41.921372 
L 209.178326 -42.027122 
L 209.607119 -42.132871 
L 209.978219 -42.23862 
L 210.293294 -42.344369 
L 210.555378 -42.450119 
L 210.768407 -42.555868 
L 210.936787 -42.661617 
L 211.06501 -42.767367 
L 211.157335 -42.873116 
L 211.217564 -42.978865 
L 211.24889 -43.084614 
L 211.25384 -43.190364 
L 211.234289 -43.296113 
L 211.191552 -43.401862 
L 211.126519 -43.507612 
L 211.039848 -43.613361 
L 210.932173 -43.71911 
L 210.804335 -43.824859 
L 210.657591 -43.930609 
L 210.493813 -44.036358 
L 210.315627 -44.142107 
L 210.126511 -44.247857 
L 209.930795 -44.353606 
L 209.733603 -44.459355 
L 209.540691 -44.565104 
L 209.358224 -44.670854 
L 209.192473 -44.776603 
L 209.049485 -44.882352 
L 208.934723 -44.988102 
L 208.852732 -45.093851 
L 208.806841 -45.1996 
L 208.798944 -45.305349 
L 208.829371 -45.411099 
L 208.896867 -45.516848 
L 208.998677 -45.622597 
L 209.130733 -45.728347 
L 209.287928 -45.834096 
L 209.464435 -45.939845 
L 209.654074 -46.045594 
L 209.850655 -46.151344 
L 210.048315 -46.257093 
L 210.241782 -46.362842 
L 210.426587 -46.468592 
L 210.599187 -46.574341 
L 212.535441 -46.574341 
L 212.535441 -46.574341 
L 212.708041 -46.468592 
L 212.892845 -46.362842 
L 213.086313 -46.257093 
L 213.283973 -46.151344 
L 213.480554 -46.045594 
L 213.670192 -45.939845 
L 213.8467 -45.834096 
L 214.003895 -45.728347 
L 214.135951 -45.622597 
L 214.237761 -45.516848 
L 214.305257 -45.411099 
L 214.335684 -45.305349 
L 214.327787 -45.1996 
L 214.281896 -45.093851 
L 214.199905 -44.988102 
L 214.085143 -44.882352 
L 213.942155 -44.776603 
L 213.776404 -44.670854 
L 213.593937 -44.565104 
L 213.401025 -44.459355 
L 213.203833 -44.353606 
L 213.008117 -44.247857 
L 212.819 -44.142107 
L 212.640815 -44.036358 
L 212.477037 -43.930609 
L 212.330293 -43.824859 
L 212.202454 -43.71911 
L 212.09478 -43.613361 
L 212.008109 -43.507612 
L 211.943076 -43.401862 
L 211.900339 -43.296113 
L 211.880788 -43.190364 
L 211.885738 -43.084614 
L 211.917064 -42.978865 
L 211.977292 -42.873116 
L 212.069618 -42.767367 
L 212.19784 -42.661617 
L 212.366221 -42.555868 
L 212.57925 -42.450119 
L 212.841334 -42.344369 
L 213.156409 -42.23862 
L 213.527509 -42.132871 
L 213.956302 -42.027122 
L 214.442646 -41.921372 
L 214.984195 -41.815623 
L 215.576106 -41.709874 
L 216.210879 -41.604124 
L 216.878377 -41.498375 
L 217.566039 -41.392626 
L 218.25929 -41.286877 
L 218.942149 -41.181127 
L 219.597979 -41.075378 
L 220.210348 -40.969629 
L 220.763924 -40.863879 
L 221.245332 -40.75813 
L 221.643904 -40.652381 
L 221.952259 -40.546632 
L 222.166658 -40.440882 
L 222.287123 -40.335133 
L 222.3173 -40.229384 
L 222.2641 -40.123634 
L 222.13716 -40.017885 
L 221.948172 -39.912136 
L 221.71015 -39.806387 
L 221.436692 -39.700637 
L 221.141299 -39.594888 
L 220.836775 -39.489139 
L 220.534743 -39.383389 
L 220.245286 -39.27764 
L 219.976692 -39.171891 
L 219.735302 -39.066142 
L 219.525426 -38.960392 
L 219.349325 -38.854643 
L 219.207228 -38.748894 
L 219.097384 -38.643144 
L 219.016165 -38.537395 
L 218.958212 -38.431646 
L 218.916643 -38.325897 
L 218.883346 -38.220147 
L 218.849349 -38.114398 
L 218.805272 -38.008649 
L 218.741837 -37.902899 
L 218.65042 -37.79715 
L 218.523593 -37.691401 
L 218.355617 -37.585652 
L 218.142848 -37.479902 
L 217.884001 -37.374153 
L 217.580254 -37.268404 
L 217.235182 -37.162654 
L 216.854518 -37.056905 
L 216.445761 -36.951156 
L 216.017673 -36.845407 
L 215.579717 -36.739657 
L 215.141468 -36.633908 
L 214.71206 -36.528159 
L 214.299715 -36.422409 
L 213.911371 -36.31666 
L 213.552441 -36.210911 
L 213.226699 -36.105162 
z
" style="stroke: #6f6f6f; stroke-width: 0.15"/>
    </defs>
    <g clip-path="url(#p04d3ab25a2)">
     <use xlink:href="#md67d3b7a93" x="0" y="84.96" style="fill: #cfcfcf; stroke: #6f6f6f; stroke-width: 0.15"/>
    </g>
   </g>
   <g id="PolyCollection_9">
    <defs>
     <path id="mb8ccf09421" d="M 240.373885 -34.063006 
L 236.510671 -34.063006 
L 236.159441 -34.251024 
L 235.770319 -34.439043 
L 235.344695 -34.627061 
L 234.885174 -34.81508 
L 234.395626 -35.003098 
L 233.88118 -35.191117 
L 233.348166 -35.379135 
L 232.80398 -35.567154 
L 232.256902 -35.755172 
L 231.715858 -35.943191 
L 231.190138 -36.131209 
L 230.68909 -36.319228 
L 230.2218 -36.507246 
L 229.796778 -36.695265 
L 229.421664 -36.883283 
L 229.102968 -37.071302 
L 228.845856 -37.25932 
L 228.65398 -37.447339 
L 228.529376 -37.635357 
L 228.472397 -37.823376 
L 228.481712 -38.011395 
L 228.554338 -38.199413 
L 228.685716 -38.387432 
L 228.869812 -38.57545 
L 229.099257 -38.763469 
L 229.365499 -38.951487 
L 229.658992 -39.139506 
L 229.969397 -39.327524 
L 230.285824 -39.515543 
L 230.597095 -39.703561 
L 230.892037 -39.89158 
L 231.159805 -40.079598 
L 231.390227 -40.267617 
L 231.574155 -40.455635 
L 231.703823 -40.643654 
L 231.773178 -40.831672 
L 231.778176 -41.019691 
L 231.717021 -41.207709 
L 231.590323 -41.395728 
L 231.401163 -41.583746 
L 231.15505 -41.771765 
L 230.859771 -41.959783 
L 230.525121 -42.147802 
L 230.162543 -42.335821 
L 229.784675 -42.523839 
L 229.404833 -42.711858 
L 229.036457 -42.899876 
L 228.69255 -43.087895 
L 228.385139 -43.275913 
L 228.124773 -43.463932 
L 227.920111 -43.65195 
L 227.777584 -43.839969 
L 227.701173 -44.027987 
L 227.692292 -44.216006 
L 227.749787 -44.404024 
L 227.870038 -44.592043 
L 228.047163 -44.780061 
L 228.273309 -44.96808 
L 228.53901 -45.156098 
L 228.833604 -45.344117 
L 229.145685 -45.532135 
L 229.463583 -45.720154 
L 229.775841 -45.908172 
L 230.071682 -46.096191 
L 230.341452 -46.284209 
L 230.577011 -46.472228 
L 230.772069 -46.660247 
L 230.922439 -46.848265 
L 231.026211 -47.036284 
L 231.083824 -47.224302 
L 231.098033 -47.412321 
L 231.073775 -47.600339 
L 231.017933 -47.788358 
L 230.939005 -47.976376 
L 230.846703 -48.164395 
L 230.751485 -48.352413 
L 230.664066 -48.540432 
L 230.594909 -48.72845 
L 230.553739 -48.916469 
L 230.549106 -49.104487 
L 230.588007 -49.292506 
L 230.675598 -49.480524 
L 230.815007 -49.668543 
L 231.007254 -49.856561 
L 231.25127 -50.04458 
L 231.544031 -50.232598 
L 231.88077 -50.420617 
L 232.255271 -50.608636 
L 232.660209 -50.796654 
L 233.087528 -50.984673 
L 233.528823 -51.172691 
L 233.97571 -51.36071 
L 234.420164 -51.548728 
L 234.854813 -51.736747 
L 235.273165 -51.924765 
L 235.669778 -52.112784 
L 236.040355 -52.300802 
L 236.381781 -52.488821 
L 236.692092 -52.676839 
L 240.192464 -52.676839 
L 240.192464 -52.676839 
L 240.502775 -52.488821 
L 240.844201 -52.300802 
L 241.214778 -52.112784 
L 241.611391 -51.924765 
L 242.029743 -51.736747 
L 242.464392 -51.548728 
L 242.908846 -51.36071 
L 243.355733 -51.172691 
L 243.797028 -50.984673 
L 244.224347 -50.796654 
L 244.629285 -50.608636 
L 245.003786 -50.420617 
L 245.340525 -50.232598 
L 245.633286 -50.04458 
L 245.877302 -49.856561 
L 246.069549 -49.668543 
L 246.208958 -49.480524 
L 246.296549 -49.292506 
L 246.33545 -49.104487 
L 246.330817 -48.916469 
L 246.289647 -48.72845 
L 246.22049 -48.540432 
L 246.133071 -48.352413 
L 246.037853 -48.164395 
L 245.945551 -47.976376 
L 245.866623 -47.788358 
L 245.810781 -47.600339 
L 245.786523 -47.412321 
L 245.800732 -47.224302 
L 245.858345 -47.036284 
L 245.962117 -46.848265 
L 246.112487 -46.660247 
L 246.307545 -46.472228 
L 246.543104 -46.284209 
L 246.812874 -46.096191 
L 247.108715 -45.908172 
L 247.420973 -45.720154 
L 247.738871 -45.532135 
L 248.050952 -45.344117 
L 248.345546 -45.156098 
L 248.611247 -44.96808 
L 248.837393 -44.780061 
L 249.014518 -44.592043 
L 249.134769 -44.404024 
L 249.192264 -44.216006 
L 249.183383 -44.027987 
L 249.106972 -43.839969 
L 248.964445 -43.65195 
L 248.759783 -43.463932 
L 248.499417 -43.275913 
L 248.192006 -43.087895 
L 247.848099 -42.899876 
L 247.479723 -42.711858 
L 247.099881 -42.523839 
L 246.722013 -42.335821 
L 246.359435 -42.147802 
L 246.024785 -41.959783 
L 245.729506 -41.771765 
L 245.483393 -41.583746 
L 245.294233 -41.395728 
L 245.167535 -41.207709 
L 245.10638 -41.019691 
L 245.111378 -40.831672 
L 245.180733 -40.643654 
L 245.310401 -40.455635 
L 245.494329 -40.267617 
L 245.724751 -40.079598 
L 245.992519 -39.89158 
L 246.287461 -39.703561 
L 246.598732 -39.515543 
L 246.915159 -39.327524 
L 247.225564 -39.139506 
L 247.519057 -38.951487 
L 247.785299 -38.763469 
L 248.014744 -38.57545 
L 248.19884 -38.387432 
L 248.330218 -38.199413 
L 248.402844 -38.011395 
L 248.412159 -37.823376 
L 248.35518 -37.635357 
L 248.230576 -37.447339 
L 248.0387 -37.25932 
L 247.781588 -37.071302 
L 247.462892 -36.883283 
L 247.087778 -36.695265 
L 246.662756 -36.507246 
L 246.195466 -36.319228 
L 245.694418 -36.131209 
L 245.168698 -35.943191 
L 244.627654 -35.755172 
L 244.080576 -35.567154 
L 243.53639 -35.379135 
L 243.003376 -35.191117 
L 242.48893 -35.003098 
L 241.999382 -34.81508 
L 241.539861 -34.627061 
L 241.114237 -34.439043 
L 240.725115 -34.251024 
L 240.373885 -34.063006 
z
" style="stroke: #6f6f6f; stroke-width: 0.15"/>
    </defs>
    <g clip-path="url(#p04d3ab25a2)">
     <use xlink:href="#mb8ccf09421" x="0" y="84.96" style="fill: #f3f3ae; stroke: #6f6f6f; stroke-width: 0.15"/>
    </g>
   </g>
   <g id="line2d_8">
    <path d="M 23.442566 47.509132 
L 23.442566 40.662005 
" clip-path="url(#p04d3ab25a2)" style="fill: none; stroke: #8c8c8c; stroke-width: 0.75; stroke-linecap: round"/>
   </g>
   <g id="line2d_9">
    <path d="M 23.442566 46.210593 
L 23.442566 43.160604 
" clip-path="url(#p04d3ab25a2)" style="fill: none; stroke: #8c8c8c; stroke-width: 4; stroke-linecap: round"/>
   </g>
   <g id="line2d_10">
    <path d="M 23.442566 44.543943 
" clip-path="url(#p04d3ab25a2)" style="fill: none; stroke: #6f6f6f; stroke-width: 1.2; stroke-linecap: round"/>
    <defs>
     <path id="m0122ecd905" d="M 0 0.833333 
C 0.221003 0.833333 0.432983 0.745528 0.589256 0.589256 
C 0.745528 0.432983 0.833333 0.221003 0.833333 0 
C 0.833333 -0.221003 0.745528 -0.432983 0.589256 -0.589256 
C 0.432983 -0.745528 0.221003 -0.833333 0 -0.833333 
C -0.221003 -0.833333 -0.432983 -0.745528 -0.589256 -0.589256 
C -0.745528 -0.432983 -0.833333 -0.221003 -0.833333 0 
C -0.833333 0.221003 -0.745528 0.432983 -0.589256 0.589256 
C -0.432983 0.745528 -0.221003 0.833333 0 0.833333 
z
" style="stroke: #ffffff; stroke-width: 0.8"/>
    </defs>
    <g clip-path="url(#p04d3ab25a2)">
     <use xlink:href="#m0122ecd905" x="23.442566" y="44.543943" style="fill: #ffffff; stroke: #ffffff; stroke-width: 0.8"/>
    </g>
   </g>
   <g id="line2d_11">
    <path d="M 50.31753 47.780963 
L 50.31753 25.192199 
" clip-path="url(#p04d3ab25a2)" style="fill: none; stroke: #8c8c8c; stroke-width: 0.75; stroke-linecap: round"/>
   </g>
   <g id="line2d_12">
    <path d="M 50.31753 42.189514 
L 50.31753 30.283404 
" clip-path="url(#p04d3ab25a2)" style="fill: none; stroke: #8c8c8c; stroke-width: 4; stroke-linecap: round"/>
   </g>
   <g id="line2d_13">
    <path d="M 50.31753 39.403496 
" clip-path="url(#p04d3ab25a2)" style="fill: none; stroke: #6f6f6f; stroke-width: 1.2; stroke-linecap: round"/>
    <g clip-path="url(#p04d3ab25a2)">
     <use xlink:href="#m0122ecd905" x="50.31753" y="39.403496" style="fill: #ffffff; stroke: #ffffff; stroke-width: 0.8"/>
    </g>
   </g>
   <g id="line2d_14">
    <path d="M 77.192494 43.938367 
L 77.192494 16.192561 
" clip-path="url(#p04d3ab25a2)" style="fill: none; stroke: #8c8c8c; stroke-width: 0.75; stroke-linecap: round"/>
   </g>
   <g id="line2d_15">
    <path d="M 77.192494 33.592359 
L 77.192494 22.297967 
" clip-path="url(#p04d3ab25a2)" style="fill: none; stroke: #8c8c8c; stroke-width: 4; stroke-linecap: round"/>
   </g>
   <g id="line2d_16">
    <path d="M 77.192494 27.318325 
" clip-path="url(#p04d3ab25a2)" style="fill: none; stroke: #6f6f6f; stroke-width: 1.2; stroke-linecap: round"/>
    <g clip-path="url(#p04d3ab25a2)">
     <use xlink:href="#m0122ecd905" x="77.192494" y="27.318325" style="fill: #ffffff; stroke: #ffffff; stroke-width: 0.8"/>
    </g>
   </g>
   <g id="line2d_17">
    <path d="M 104.067458 48.34009 
L 104.067458 46.464514 
" clip-path="url(#p04d3ab25a2)" style="fill: none; stroke: #8c8c8c; stroke-width: 0.75; stroke-linecap: round"/>
   </g>
   <g id="line2d_18">
    <path d="M 104.067458 47.898611 
L 104.067458 47.279549 
" clip-path="url(#p04d3ab25a2)" style="fill: none; stroke: #8c8c8c; stroke-width: 4; stroke-linecap: round"/>
   </g>
   <g id="line2d_19">
    <path d="M 104.067458 47.736448 
" clip-path="url(#p04d3ab25a2)" style="fill: none; stroke: #6f6f6f; stroke-width: 1.2; stroke-linecap: round"/>
    <g clip-path="url(#p04d3ab25a2)">
     <use xlink:href="#m0122ecd905" x="104.067458" y="47.736448" style="fill: #ffffff; stroke: #ffffff; stroke-width: 0.8"/>
    </g>
   </g>
   <g id="line2d_20">
    <path d="M 130.942422 48.348046 
L 130.942422 48.078243 
" clip-path="url(#p04d3ab25a2)" style="fill: none; stroke: #8c8c8c; stroke-width: 0.75; stroke-linecap: round"/>
   </g>
   <g id="line2d_21">
    <path d="M 130.942422 48.268988 
L 130.942422 48.091667 
" clip-path="url(#p04d3ab25a2)" style="fill: none; stroke: #8c8c8c; stroke-width: 4; stroke-linecap: round"/>
   </g>
   <g id="line2d_22">
    <path d="M 130.942422 48.151135 
" clip-path="url(#p04d3ab25a2)" style="fill: none; stroke: #6f6f6f; stroke-width: 1.2; stroke-linecap: round"/>
    <g clip-path="url(#p04d3ab25a2)">
     <use xlink:href="#m0122ecd905" x="130.942422" y="48.151135" style="fill: #ffffff; stroke: #ffffff; stroke-width: 0.8"/>
    </g>
   </g>
   <g id="line2d_23">
    <path d="M 157.817386 44.604586 
L 157.817386 28.84098 
" clip-path="url(#p04d3ab25a2)" style="fill: none; stroke: #8c8c8c; stroke-width: 0.75; stroke-linecap: round"/>
   </g>
   <g id="line2d_24">
    <path d="M 157.817386 42.335428 
L 157.817386 32.114765 
" clip-path="url(#p04d3ab25a2)" style="fill: none; stroke: #8c8c8c; stroke-width: 4; stroke-linecap: round"/>
   </g>
   <g id="line2d_25">
    <path d="M 157.817386 38.865203 
" clip-path="url(#p04d3ab25a2)" style="fill: none; stroke: #6f6f6f; stroke-width: 1.2; stroke-linecap: round"/>
    <g clip-path="url(#p04d3ab25a2)">
     <use xlink:href="#m0122ecd905" x="157.817386" y="38.865203" style="fill: #ffffff; stroke: #ffffff; stroke-width: 0.8"/>
    </g>
   </g>
   <g id="line2d_26">
    <path d="M 184.69235 45.443234 
L 184.69235 40.302875 
" clip-path="url(#p04d3ab25a2)" style="fill: none; stroke: #8c8c8c; stroke-width: 0.75; stroke-linecap: round"/>
   </g>
   <g id="line2d_27">
    <path d="M 184.69235 42.821183 
L 184.69235 40.9661 
" clip-path="url(#p04d3ab25a2)" style="fill: none; stroke: #8c8c8c; stroke-width: 4; stroke-linecap: round"/>
   </g>
   <g id="line2d_28">
    <path d="M 184.69235 41.493116 
" clip-path="url(#p04d3ab25a2)" style="fill: none; stroke: #6f6f6f; stroke-width: 1.2; stroke-linecap: round"/>
    <g clip-path="url(#p04d3ab25a2)">
     <use xlink:href="#m0122ecd905" x="184.69235" y="41.493116" style="fill: #ffffff; stroke: #ffffff; stroke-width: 0.8"/>
    </g>
   </g>
   <g id="line2d_29">
    <path d="M 211.567314 47.554711 
L 211.567314 44.27434 
" clip-path="url(#p04d3ab25a2)" style="fill: none; stroke: #8c8c8c; stroke-width: 0.75; stroke-linecap: round"/>
   </g>
   <g id="line2d_30">
    <path d="M 211.567314 46.439559 
L 211.567314 44.345753 
" clip-path="url(#p04d3ab25a2)" style="fill: none; stroke: #8c8c8c; stroke-width: 4; stroke-linecap: round"/>
   </g>
   <g id="line2d_31">
    <path d="M 211.567314 44.897808 
" clip-path="url(#p04d3ab25a2)" style="fill: none; stroke: #6f6f6f; stroke-width: 1.2; stroke-linecap: round"/>
    <g clip-path="url(#p04d3ab25a2)">
     <use xlink:href="#m0122ecd905" x="211.567314" y="44.897808" style="fill: #ffffff; stroke: #ffffff; stroke-width: 0.8"/>
    </g>
   </g>
   <g id="line2d_32">
    <path d="M 238.442278 48.296165 
L 238.442278 34.88399 
" clip-path="url(#p04d3ab25a2)" style="fill: none; stroke: #8c8c8c; stroke-width: 0.75; stroke-linecap: round"/>
   </g>
   <g id="line2d_33">
    <path d="M 238.442278 46.002129 
L 238.442278 38.683223 
" clip-path="url(#p04d3ab25a2)" style="fill: none; stroke: #8c8c8c; stroke-width: 4; stroke-linecap: round"/>
   </g>
   <g id="line2d_34">
    <path d="M 238.442278 41.391562 
" clip-path="url(#p04d3ab25a2)" style="fill: none; stroke: #6f6f6f; stroke-width: 1.2; stroke-linecap: round"/>
    <g clip-path="url(#p04d3ab25a2)">
     <use xlink:href="#m0122ecd905" x="238.442278" y="41.391562" style="fill: #ffffff; stroke: #ffffff; stroke-width: 0.8"/>
    </g>
   </g>
   <g id="patch_3">
    <path d="M 10.005084 54.222338 
L 10.005084 4.076256 
" style="fill: none; stroke: #777777; stroke-width: 0.5; stroke-linejoin: miter; stroke-linecap: square"/>
   </g>
   <g id="patch_4">
    <path d="M 10.005084 56.722338 
L 251.87976 56.722338 
" style="fill: none; stroke: #777777; stroke-width: 0.5; stroke-linejoin: miter; stroke-linecap: square"/>
   </g>
  </g>
 </g>
 <defs>
  <clipPath id="p04d3ab25a2">
   <rect x="10.005084" y="4.076256" width="241.874676" height="50.146082"/>
  </clipPath>
 </defs>
</svg>
