<?xml version="1.0" encoding="utf-8" standalone="no"?>
<!DOCTYPE svg PUBLIC "-//W3C//DTD SVG 1.1//EN"
  "http://www.w3.org/Graphics/SVG/1.1/DTD/svg11.dtd">
<svg xmlns:xlink="http://www.w3.org/1999/xlink" width="56.16pt" height="84.96pt" viewBox="0 0 56.16 84.96" xmlns="http://www.w3.org/2000/svg" version="1.1">
 <metadata>
  <rdf:RDF xmlns:dc="http://purl.org/dc/elements/1.1/" xmlns:cc="http://creativecommons.org/ns#" xmlns:rdf="http://www.w3.org/1999/02/22-rdf-syntax-ns#">
   <cc:Work>
    <dc:type rdf:resource="http://purl.org/dc/dcmitype/StillImage"/>
    <dc:date>2024-05-27T15:37:12.404372</dc:date>
    <dc:format>image/svg+xml</dc:format>
    <dc:creator>
     <cc:Agent>
      <dc:title>Matplotlib v3.8.3, https://matplotlib.org/</dc:title>
     </cc:Agent>
    </dc:creator>
   </cc:Work>
  </rdf:RDF>
 </metadata>
 <defs>
  <style type="text/css">*{stroke-linejoin: round; stroke-linecap: butt}</style>
 </defs>
 <g id="figure_1">
  <g id="patch_1">
   <path d="M 0 84.96 
L 56.16 84.96 
L 56.16 0 
L 0 0 
z
" style="fill: #ffffff"/>
  </g>
  <g id="axes_1">
   <g id="patch_2">
    <path d="M 10.005084 74.419526 
L 53.15976 74.419526 
L 53.15976 4.076256 
L 10.005084 4.076256 
z
" style="fill: #ffffff"/>
   </g>
   <g id="matplotlib.axis_1">
    <g id="xtick_1">
     <g id="text_1">
      <!-- ILC3 -->
      <g style="fill: #333333" transform="translate(17.097425 81.230229) scale(0.035 -0.035)">
       <defs>
        <path id="Helvetica-49" d="M 628 4591 
L 1256 4591 
L 1256 0 
L 628 0 
L 628 4591 
z
" transform="scale(0.015625)"/>
        <path id="Helvetica-4c" d="M 488 4591 
L 1109 4591 
L 1109 547 
L 3434 547 
L 3434 0 
L 488 0 
L 488 4591 
z
" transform="scale(0.015625)"/>
        <path id="Helvetica-43" d="M 2422 4716 
Q 3294 4716 3775 4256 
Q 4256 3797 4309 3213 
L 3703 3213 
Q 3600 3656 3292 3915 
Q 2984 4175 2428 4175 
Q 1750 4175 1333 3698 
Q 916 3222 916 2238 
Q 916 1431 1292 929 
Q 1669 428 2416 428 
Q 3103 428 3463 956 
Q 3653 1234 3747 1688 
L 4353 1688 
Q 4272 963 3816 472 
Q 3269 -119 2341 -119 
Q 1541 -119 997 366 
Q 281 1006 281 2344 
Q 281 3359 819 4009 
Q 1400 4716 2422 4716 
z
M 2297 4716 
L 2297 4716 
z
" transform="scale(0.015625)"/>
        <path id="Helvetica-33" d="M 1663 -122 
Q 869 -122 511 314 
Q 153 750 153 1375 
L 741 1375 
Q 778 941 903 744 
Q 1122 391 1694 391 
Q 2138 391 2406 628 
Q 2675 866 2675 1241 
Q 2675 1703 2392 1887 
Q 2109 2072 1606 2072 
Q 1550 2072 1492 2070 
Q 1434 2069 1375 2066 
L 1375 2563 
Q 1463 2553 1522 2550 
Q 1581 2547 1650 2547 
Q 1966 2547 2169 2647 
Q 2525 2822 2525 3272 
Q 2525 3606 2287 3787 
Q 2050 3969 1734 3969 
Q 1172 3969 956 3594 
Q 838 3388 822 3006 
L 266 3006 
Q 266 3506 466 3856 
Q 809 4481 1675 4481 
Q 2359 4481 2734 4176 
Q 3109 3872 3109 3294 
Q 3109 2881 2888 2625 
Q 2750 2466 2531 2375 
Q 2884 2278 3082 2001 
Q 3281 1725 3281 1325 
Q 3281 684 2859 281 
Q 2438 -122 1663 -122 
z
" transform="scale(0.015625)"/>
       </defs>
       <use xlink:href="#Helvetica-49"/>
       <use xlink:href="#Helvetica-4c" x="27.783203"/>
       <use xlink:href="#Helvetica-43" x="83.398438"/>
       <use xlink:href="#Helvetica-33" x="155.615234"/>
      </g>
     </g>
    </g>
    <g id="xtick_2">
     <g id="text_2">
      <!-- TH17 -->
      <g style="fill: #333333" transform="translate(38.092067 81.230229) scale(0.035 -0.035)">
       <defs>
        <path id="Helvetica-54" d="M 3828 4591 
L 3828 4044 
L 2281 4044 
L 2281 0 
L 1650 0 
L 1650 4044 
L 103 4044 
L 103 4591 
L 3828 4591 
z
" transform="scale(0.015625)"/>
        <path id="Helvetica-48" d="M 503 4591 
L 1131 4591 
L 1131 2694 
L 3519 2694 
L 3519 4591 
L 4147 4591 
L 4147 0 
L 3519 0 
L 3519 2147 
L 1131 2147 
L 1131 0 
L 503 0 
L 503 4591 
z
" transform="scale(0.015625)"/>
        <path id="Helvetica-31" d="M 613 3169 
L 613 3600 
Q 1222 3659 1462 3798 
Q 1703 3938 1822 4456 
L 2266 4456 
L 2266 0 
L 1666 0 
L 1666 3169 
L 613 3169 
z
" transform="scale(0.015625)"/>
        <path id="Helvetica-37" d="M 3347 4400 
L 3347 3909 
Q 3131 3700 2773 3181 
Q 2416 2663 2141 2063 
Q 1869 1478 1728 997 
Q 1638 688 1494 0 
L 872 0 
Q 1084 1281 1809 2550 
Q 2238 3294 2709 3834 
L 234 3834 
L 234 4400 
L 3347 4400 
z
" transform="scale(0.015625)"/>
       </defs>
       <use xlink:href="#Helvetica-54"/>
       <use xlink:href="#Helvetica-48" x="61.083984"/>
       <use xlink:href="#Helvetica-31" x="133.300781"/>
       <use xlink:href="#Helvetica-37" x="188.916016"/>
      </g>
     </g>
    </g>
   </g>
   <g id="matplotlib.axis_2">
    <g id="ytick_1">
     <g id="line2d_1">
      <defs>
       <path id="mfc891d3e07" d="M 0 0 
L -1 0 
" style="stroke: #777777; stroke-width: 0.5"/>
      </defs>
      <g>
       <use xlink:href="#mfc891d3e07" x="10.005084" y="65.703651" style="fill: #777777; stroke: #777777; stroke-width: 0.5"/>
      </g>
     </g>
     <g id="text_3">
      <!-- 0 -->
      <g style="fill: #333333" transform="translate(6.336802 66.779667) scale(0.03 -0.03)">
       <defs>
        <path id="Helvetica-30" d="M 1731 4475 
Q 2600 4475 2988 3759 
Q 3288 3206 3288 2244 
Q 3288 1331 3016 734 
Q 2622 -122 1728 -122 
Q 922 -122 528 578 
Q 200 1163 200 2147 
Q 200 2909 397 3456 
Q 766 4475 1731 4475 
z
M 1725 391 
Q 2163 391 2422 778 
Q 2681 1166 2681 2222 
Q 2681 2984 2493 3476 
Q 2306 3969 1766 3969 
Q 1269 3969 1039 3501 
Q 809 3034 809 2125 
Q 809 1441 956 1025 
Q 1181 391 1725 391 
z
" transform="scale(0.015625)"/>
       </defs>
       <use xlink:href="#Helvetica-30"/>
      </g>
     </g>
    </g>
    <g id="ytick_2">
     <g id="line2d_2">
      <g>
       <use xlink:href="#mfc891d3e07" x="10.005084" y="56.899737" style="fill: #777777; stroke: #777777; stroke-width: 0.5"/>
      </g>
     </g>
     <g id="text_4">
      <!-- 100 -->
      <g style="fill: #333333" transform="translate(3.00024 57.975753) scale(0.03 -0.03)">
       <use xlink:href="#Helvetica-31"/>
       <use xlink:href="#Helvetica-30" x="55.615234"/>
       <use xlink:href="#Helvetica-30" x="111.230469"/>
      </g>
     </g>
    </g>
    <g id="ytick_3">
     <g id="line2d_3">
      <g>
       <use xlink:href="#mfc891d3e07" x="10.005084" y="48.095824" style="fill: #777777; stroke: #777777; stroke-width: 0.5"/>
      </g>
     </g>
     <g id="text_5">
      <!-- 200 -->
      <g style="fill: #333333" transform="translate(3.00024 49.171839) scale(0.03 -0.03)">
       <defs>
        <path id="Helvetica-32" d="M 200 0 
Q 231 578 439 1006 
Q 647 1434 1250 1784 
L 1850 2131 
Q 2253 2366 2416 2531 
Q 2672 2791 2672 3125 
Q 2672 3516 2437 3745 
Q 2203 3975 1813 3975 
Q 1234 3975 1013 3538 
Q 894 3303 881 2888 
L 309 2888 
Q 319 3472 525 3841 
Q 891 4491 1816 4491 
Q 2584 4491 2939 4075 
Q 3294 3659 3294 3150 
Q 3294 2613 2916 2231 
Q 2697 2009 2131 1694 
L 1703 1456 
Q 1397 1288 1222 1134 
Q 909 863 828 531 
L 3272 531 
L 3272 0 
L 200 0 
z
" transform="scale(0.015625)"/>
       </defs>
       <use xlink:href="#Helvetica-32"/>
       <use xlink:href="#Helvetica-30" x="55.615234"/>
       <use xlink:href="#Helvetica-30" x="111.230469"/>
      </g>
     </g>
    </g>
    <g id="ytick_4">
     <g id="line2d_4">
      <g>
       <use xlink:href="#mfc891d3e07" x="10.005084" y="39.29191" style="fill: #777777; stroke: #777777; stroke-width: 0.5"/>
      </g>
     </g>
     <g id="text_6">
      <!-- 300 -->
      <g style="fill: #333333" transform="translate(3.00024 40.367926) scale(0.03 -0.03)">
       <use xlink:href="#Helvetica-33"/>
       <use xlink:href="#Helvetica-30" x="55.615234"/>
       <use xlink:href="#Helvetica-30" x="111.230469"/>
      </g>
     </g>
    </g>
    <g id="ytick_5">
     <g id="line2d_5">
      <g>
       <use xlink:href="#mfc891d3e07" x="10.005084" y="30.487997" style="fill: #777777; stroke: #777777; stroke-width: 0.5"/>
      </g>
     </g>
     <g id="text_7">
      <!-- 400 -->
      <g style="fill: #333333" transform="translate(3.00024 31.564012) scale(0.03 -0.03)">
       <defs>
        <path id="Helvetica-34" d="M 2116 1584 
L 2116 3613 
L 681 1584 
L 2116 1584 
z
M 2125 0 
L 2125 1094 
L 163 1094 
L 163 1644 
L 2213 4488 
L 2688 4488 
L 2688 1584 
L 3347 1584 
L 3347 1094 
L 2688 1094 
L 2688 0 
L 2125 0 
z
" transform="scale(0.015625)"/>
       </defs>
       <use xlink:href="#Helvetica-34"/>
       <use xlink:href="#Helvetica-30" x="55.615234"/>
       <use xlink:href="#Helvetica-30" x="111.230469"/>
      </g>
     </g>
    </g>
    <g id="ytick_6">
     <g id="line2d_6">
      <g>
       <use xlink:href="#mfc891d3e07" x="10.005084" y="21.684083" style="fill: #777777; stroke: #777777; stroke-width: 0.5"/>
      </g>
     </g>
     <g id="text_8">
      <!-- 500 -->
      <g style="fill: #333333" transform="translate(3.00024 22.760099) scale(0.03 -0.03)">
       <defs>
        <path id="Helvetica-35" d="M 791 1141 
Q 847 659 1238 475 
Q 1438 381 1700 381 
Q 2200 381 2440 700 
Q 2681 1019 2681 1406 
Q 2681 1875 2395 2131 
Q 2109 2388 1709 2388 
Q 1419 2388 1211 2275 
Q 1003 2163 856 1963 
L 369 1991 
L 709 4400 
L 3034 4400 
L 3034 3856 
L 1131 3856 
L 941 2613 
Q 1097 2731 1238 2791 
Q 1488 2894 1816 2894 
Q 2431 2894 2859 2497 
Q 3288 2100 3288 1491 
Q 3288 856 2895 371 
Q 2503 -113 1644 -113 
Q 1097 -113 676 195 
Q 256 503 206 1141 
L 791 1141 
z
" transform="scale(0.015625)"/>
       </defs>
       <use xlink:href="#Helvetica-35"/>
       <use xlink:href="#Helvetica-30" x="55.615234"/>
       <use xlink:href="#Helvetica-30" x="111.230469"/>
      </g>
     </g>
    </g>
    <g id="ytick_7">
     <g id="line2d_7">
      <g>
       <use xlink:href="#mfc891d3e07" x="10.005084" y="12.880169" style="fill: #777777; stroke: #777777; stroke-width: 0.5"/>
      </g>
     </g>
     <g id="text_9">
      <!-- 600 -->
      <g style="fill: #333333" transform="translate(3.00024 13.956185) scale(0.03 -0.03)">
       <defs>
        <path id="Helvetica-36" d="M 1872 4494 
Q 2622 4494 2917 4105 
Q 3213 3716 3213 3303 
L 2656 3303 
Q 2606 3569 2497 3719 
Q 2294 4000 1881 4000 
Q 1409 4000 1131 3564 
Q 853 3128 822 2316 
Q 1016 2600 1309 2741 
Q 1578 2866 1909 2866 
Q 2472 2866 2890 2506 
Q 3309 2147 3309 1434 
Q 3309 825 2912 354 
Q 2516 -116 1781 -116 
Q 1153 -116 697 361 
Q 241 838 241 1966 
Q 241 2800 444 3381 
Q 834 4494 1872 4494 
z
M 1831 384 
Q 2275 384 2495 682 
Q 2716 981 2716 1388 
Q 2716 1731 2519 2042 
Q 2322 2353 1803 2353 
Q 1441 2353 1167 2112 
Q 894 1872 894 1388 
Q 894 963 1142 673 
Q 1391 384 1831 384 
z
" transform="scale(0.015625)"/>
       </defs>
       <use xlink:href="#Helvetica-36"/>
       <use xlink:href="#Helvetica-30" x="55.615234"/>
       <use xlink:href="#Helvetica-30" x="111.230469"/>
      </g>
     </g>
    </g>
    <g id="ytick_8">
     <g id="line2d_8">
      <g>
       <use xlink:href="#mfc891d3e07" x="10.005084" y="4.076256" style="fill: #777777; stroke: #777777; stroke-width: 0.5"/>
      </g>
     </g>
     <g id="text_10">
      <!-- 700 -->
      <g style="fill: #333333" transform="translate(3.00024 5.152271) scale(0.03 -0.03)">
       <use xlink:href="#Helvetica-37"/>
       <use xlink:href="#Helvetica-30" x="55.615234"/>
       <use xlink:href="#Helvetica-30" x="111.230469"/>
      </g>
     </g>
    </g>
   </g>
   <g id="PolyCollection_1">
    <defs>
     <path id="m812a734404" d="M 21.563873 -18.804581 
L 20.023633 -18.804581 
L 19.870597 -18.853209 
L 19.699104 -18.901837 
L 19.509188 -18.950465 
L 19.301166 -18.999093 
L 19.075588 -19.047721 
L 18.833151 -19.096349 
L 18.574617 -19.144977 
L 18.300729 -19.193605 
L 18.01215 -19.242233 
L 17.709431 -19.290861 
L 17.393033 -19.339489 
L 17.063391 -19.388117 
L 16.721033 -19.436745 
L 16.366739 -19.485373 
L 16.001721 -19.534001 
L 15.627814 -19.582629 
L 15.247634 -19.631257 
L 14.8647 -19.679885 
L 14.483487 -19.728513 
L 14.109397 -19.777141 
L 13.748648 -19.825768 
L 13.408084 -19.874396 
L 13.094918 -19.923024 
L 12.816423 -19.971652 
L 12.579611 -20.02028 
L 12.390908 -20.068908 
L 12.255845 -20.117536 
L 12.178806 -20.166164 
L 12.162818 -20.214792 
L 12.209396 -20.26342 
L 12.318458 -20.312048 
L 12.488291 -20.360676 
L 12.715564 -20.409304 
L 12.995407 -20.457932 
L 13.321521 -20.50656 
L 13.686354 -20.555188 
L 14.081313 -20.603816 
L 14.497032 -20.652444 
L 14.923689 -20.701072 
L 15.351358 -20.7497 
L 15.770393 -20.798328 
L 16.171824 -20.846956 
L 16.547737 -20.895584 
L 16.891628 -20.944212 
L 17.198684 -20.99284 
L 17.46599 -21.041468 
L 17.692617 -21.090096 
L 17.879611 -21.138724 
L 18.029849 -21.187352 
L 18.147787 -21.23598 
L 18.23912 -21.284608 
L 18.310358 -21.333235 
L 18.368375 -21.381863 
L 18.419944 -21.430491 
L 18.471306 -21.479119 
L 18.527791 -21.527747 
L 18.59353 -21.576375 
L 18.671265 -21.625003 
L 18.762263 -21.673631 
L 18.86634 -21.722259 
L 18.981979 -21.770887 
L 19.106525 -21.819515 
L 19.236433 -21.868143 
L 19.367549 -21.916771 
L 19.495397 -21.965399 
L 19.615458 -22.014027 
L 19.723415 -22.062655 
L 19.815367 -22.111283 
L 19.887999 -22.159911 
L 19.938713 -22.208539 
L 19.965721 -22.257167 
L 19.968106 -22.305795 
L 19.945858 -22.354423 
L 19.899885 -22.403051 
L 19.831999 -22.451679 
L 19.744883 -22.500307 
L 19.642021 -22.548935 
L 19.527605 -22.597563 
L 19.406401 -22.646191 
L 19.283573 -22.694819 
L 19.16448 -22.743447 
L 19.05444 -22.792075 
L 18.958481 -22.840702 
L 18.881085 -22.88933 
L 18.82596 -22.937958 
L 18.795838 -22.986586 
L 18.792337 -23.035214 
L 18.815883 -23.083842 
L 18.865708 -23.13247 
L 18.939931 -23.181098 
L 19.035697 -23.229726 
L 19.149385 -23.278354 
L 19.276844 -23.326982 
L 19.413658 -23.37561 
L 19.555401 -23.424238 
L 19.697874 -23.472866 
L 19.837301 -23.521494 
L 19.970479 -23.570122 
L 20.094867 -23.61875 
L 21.492639 -23.61875 
L 21.492639 -23.61875 
L 21.617027 -23.570122 
L 21.750205 -23.521494 
L 21.889632 -23.472866 
L 22.032105 -23.424238 
L 22.173848 -23.37561 
L 22.310662 -23.326982 
L 22.438121 -23.278354 
L 22.551808 -23.229726 
L 22.647574 -23.181098 
L 22.721797 -23.13247 
L 22.771623 -23.083842 
L 22.795168 -23.035214 
L 22.791668 -22.986586 
L 22.761546 -22.937958 
L 22.706421 -22.88933 
L 22.629025 -22.840702 
L 22.533065 -22.792075 
L 22.423026 -22.743447 
L 22.303933 -22.694819 
L 22.181104 -22.646191 
L 22.0599 -22.597563 
L 21.945485 -22.548935 
L 21.842623 -22.500307 
L 21.755506 -22.451679 
L 21.687621 -22.403051 
L 21.641647 -22.354423 
L 21.6194 -22.305795 
L 21.621785 -22.257167 
L 21.648793 -22.208539 
L 21.699507 -22.159911 
L 21.772139 -22.111283 
L 21.864091 -22.062655 
L 21.972047 -22.014027 
L 22.092108 -21.965399 
L 22.219957 -21.916771 
L 22.351073 -21.868143 
L 22.480981 -21.819515 
L 22.605527 -21.770887 
L 22.721166 -21.722259 
L 22.825243 -21.673631 
L 22.91624 -21.625003 
L 22.993975 -21.576375 
L 23.059715 -21.527747 
L 23.1162 -21.479119 
L 23.167562 -21.430491 
L 23.219131 -21.381863 
L 23.277148 -21.333235 
L 23.348386 -21.284608 
L 23.439718 -21.23598 
L 23.557657 -21.187352 
L 23.707894 -21.138724 
L 23.894888 -21.090096 
L 24.121516 -21.041468 
L 24.388821 -20.99284 
L 24.695878 -20.944212 
L 25.039769 -20.895584 
L 25.415682 -20.846956 
L 25.817112 -20.798328 
L 26.236147 -20.7497 
L 26.663816 -20.701072 
L 27.090474 -20.652444 
L 27.506193 -20.603816 
L 27.901151 -20.555188 
L 28.265984 -20.50656 
L 28.592099 -20.457932 
L 28.871941 -20.409304 
L 29.099215 -20.360676 
L 29.269047 -20.312048 
L 29.37811 -20.26342 
L 29.424688 -20.214792 
L 29.408699 -20.166164 
L 29.331661 -20.117536 
L 29.196598 -20.068908 
L 29.007894 -20.02028 
L 28.771083 -19.971652 
L 28.492588 -19.923024 
L 28.179421 -19.874396 
L 27.838858 -19.825768 
L 27.478109 -19.777141 
L 27.104019 -19.728513 
L 26.722805 -19.679885 
L 26.339872 -19.631257 
L 25.959691 -19.582629 
L 25.585784 -19.534001 
L 25.220767 -19.485373 
L 24.866473 -19.436745 
L 24.524115 -19.388117 
L 24.194473 -19.339489 
L 23.878075 -19.290861 
L 23.575356 -19.242233 
L 23.286776 -19.193605 
L 23.012889 -19.144977 
L 22.754355 -19.096349 
L 22.511918 -19.047721 
L 22.286339 -18.999093 
L 22.078318 -18.950465 
L 21.888402 -18.901837 
L 21.716909 -18.853209 
L 21.563873 -18.804581 
z
" style="stroke: #7c7c7c; stroke-width: 0.15"/>
    </defs>
    <g clip-path="url(#p76882e142f)">
     <use xlink:href="#m812a734404" x="0" y="84.96" style="fill: #cfcfcf; stroke: #7c7c7c; stroke-width: 0.15"/>
    </g>
   </g>
   <g id="PolyCollection_2">
    <defs>
     <path id="m80e7571d0a" d="M 43.592208 -16.603601 
L 41.149974 -16.603601 
L 40.876361 -16.826004 
L 40.561921 -17.048406 
L 40.205758 -17.270809 
L 39.808287 -17.493212 
L 39.371463 -17.715615 
L 38.898958 -17.938018 
L 38.396268 -18.16042 
L 37.870729 -18.382823 
L 37.331429 -18.605226 
L 36.789003 -18.827629 
L 36.255316 -19.050031 
L 35.743038 -19.272434 
L 35.265138 -19.494837 
L 34.834313 -19.71724 
L 34.462397 -19.939642 
L 34.159792 -20.162045 
L 33.934943 -20.384448 
L 33.793928 -20.606851 
L 33.740156 -20.829253 
L 33.774225 -21.051656 
L 33.893941 -21.274059 
L 34.094484 -21.496462 
L 34.368719 -21.718865 
L 34.70762 -21.941267 
L 35.10077 -22.16367 
L 35.536896 -22.386073 
L 36.004413 -22.608476 
L 36.491915 -22.830878 
L 36.988616 -23.053281 
L 37.484691 -23.275684 
L 37.971527 -23.498087 
L 38.441871 -23.720489 
L 38.88989 -23.942892 
L 39.311148 -24.165295 
L 39.702525 -24.387698 
L 40.06209 -24.6101 
L 40.38895 -24.832503 
L 40.683085 -25.054906 
L 40.945191 -25.277309 
L 41.176522 -25.499712 
L 41.378759 -25.722114 
L 41.553885 -25.944517 
L 41.704083 -26.16692 
L 41.831647 -26.389323 
L 41.938911 -26.611725 
L 42.028183 -26.834128 
L 42.101701 -27.056531 
L 42.161587 -27.278934 
L 42.209817 -27.501336 
L 42.248199 -27.723739 
L 42.278356 -27.946142 
L 42.301714 -28.168545 
L 42.319503 -28.390947 
L 42.332756 -28.61335 
L 42.342314 -28.835753 
L 42.348834 -29.058156 
L 42.352796 -29.280558 
L 42.354514 -29.502961 
L 42.354143 -29.725364 
L 42.351686 -29.947767 
L 42.347 -30.17017 
L 42.339807 -30.392572 
L 42.329696 -30.614975 
L 42.316142 -30.837378 
L 42.298517 -31.059781 
L 42.276114 -31.282183 
L 42.248181 -31.504586 
L 42.21396 -31.726989 
L 42.172739 -31.949392 
L 42.123908 -32.171794 
L 42.067033 -32.394197 
L 42.001917 -32.6166 
L 41.928676 -32.839003 
L 41.847794 -33.061405 
L 41.760173 -33.283808 
L 41.667153 -33.506211 
L 41.570518 -33.728614 
L 41.472458 -33.951017 
L 41.375505 -34.173419 
L 41.282436 -34.395822 
L 41.196149 -34.618225 
L 41.119515 -34.840628 
L 41.05522 -35.06303 
L 41.005616 -35.285433 
L 40.972569 -35.507836 
L 40.957351 -35.730239 
L 40.960554 -35.952641 
L 40.982052 -36.175044 
L 41.021012 -36.397447 
L 41.075945 -36.61985 
L 41.144801 -36.842252 
L 41.225097 -37.064655 
L 41.314064 -37.287058 
L 41.408803 -37.509461 
L 41.506445 -37.731864 
L 41.604283 -37.954266 
L 41.699894 -38.176669 
L 41.791224 -38.399072 
L 41.876643 -38.621475 
L 42.865539 -38.621475 
L 42.865539 -38.621475 
L 42.950958 -38.399072 
L 43.042288 -38.176669 
L 43.137899 -37.954266 
L 43.235737 -37.731864 
L 43.333379 -37.509461 
L 43.428118 -37.287058 
L 43.517084 -37.064655 
L 43.59738 -36.842252 
L 43.666237 -36.61985 
L 43.72117 -36.397447 
L 43.76013 -36.175044 
L 43.781628 -35.952641 
L 43.784831 -35.730239 
L 43.769613 -35.507836 
L 43.736566 -35.285433 
L 43.686961 -35.06303 
L 43.622667 -34.840628 
L 43.546033 -34.618225 
L 43.459746 -34.395822 
L 43.366677 -34.173419 
L 43.269724 -33.951017 
L 43.171664 -33.728614 
L 43.075029 -33.506211 
L 42.982009 -33.283808 
L 42.894388 -33.061405 
L 42.813506 -32.839003 
L 42.740265 -32.6166 
L 42.675149 -32.394197 
L 42.618274 -32.171794 
L 42.569443 -31.949392 
L 42.528221 -31.726989 
L 42.494001 -31.504586 
L 42.466068 -31.282183 
L 42.443665 -31.059781 
L 42.42604 -30.837378 
L 42.412486 -30.614975 
L 42.402375 -30.392572 
L 42.395181 -30.17017 
L 42.390496 -29.947767 
L 42.388038 -29.725364 
L 42.387668 -29.502961 
L 42.389386 -29.280558 
L 42.393348 -29.058156 
L 42.399868 -28.835753 
L 42.409426 -28.61335 
L 42.422679 -28.390947 
L 42.440468 -28.168545 
L 42.463826 -27.946142 
L 42.493983 -27.723739 
L 42.532365 -27.501336 
L 42.580595 -27.278934 
L 42.640481 -27.056531 
L 42.713999 -26.834128 
L 42.803271 -26.611725 
L 42.910534 -26.389323 
L 43.038099 -26.16692 
L 43.188296 -25.944517 
L 43.363423 -25.722114 
L 43.56566 -25.499712 
L 43.796991 -25.277309 
L 44.059097 -25.054906 
L 44.353232 -24.832503 
L 44.680091 -24.6101 
L 45.039656 -24.387698 
L 45.431033 -24.165295 
L 45.852292 -23.942892 
L 46.30031 -23.720489 
L 46.770655 -23.498087 
L 47.25749 -23.275684 
L 47.753565 -23.053281 
L 48.250266 -22.830878 
L 48.737769 -22.608476 
L 49.205285 -22.386073 
L 49.641412 -22.16367 
L 50.034562 -21.941267 
L 50.373463 -21.718865 
L 50.647698 -21.496462 
L 50.848241 -21.274059 
L 50.967957 -21.051656 
L 51.002026 -20.829253 
L 50.948254 -20.606851 
L 50.807238 -20.384448 
L 50.58239 -20.162045 
L 50.279785 -19.939642 
L 49.907869 -19.71724 
L 49.477044 -19.494837 
L 48.999144 -19.272434 
L 48.486866 -19.050031 
L 47.953179 -18.827629 
L 47.410753 -18.605226 
L 46.871453 -18.382823 
L 46.345914 -18.16042 
L 45.843224 -17.938018 
L 45.370719 -17.715615 
L 44.933895 -17.493212 
L 44.536424 -17.270809 
L 44.180261 -17.048406 
L 43.865821 -16.826004 
L 43.592208 -16.603601 
z
" style="stroke: #7c7c7c; stroke-width: 0.15"/>
    </defs>
    <g clip-path="url(#p76882e142f)">
     <use xlink:href="#m80e7571d0a" x="0" y="84.96" style="fill: #f3f3ae; stroke: #7c7c7c; stroke-width: 0.15"/>
    </g>
   </g>
   <g id="line2d_9">
    <path d="M 20.793753 65.556571 
L 20.793753 63.408873 
" clip-path="url(#p76882e142f)" style="fill: none; stroke: #8c8c8c; stroke-width: 0.75; stroke-linecap: round"/>
   </g>
   <g id="line2d_10">
    <path d="M 20.793753 64.967082 
L 20.793753 64.119795 
" clip-path="url(#p76882e142f)" style="fill: none; stroke: #8c8c8c; stroke-width: 4; stroke-linecap: round"/>
   </g>
   <g id="line2d_11">
    <path d="M 20.793753 64.606349 
" clip-path="url(#p76882e142f)" style="fill: none; stroke: #7c7c7c; stroke-width: 1.2; stroke-linecap: round"/>
    <defs>
     <path id="m9457201ec4" d="M 0 0.833333 
C 0.221003 0.833333 0.432983 0.745528 0.589256 0.589256 
C 0.745528 0.432983 0.833333 0.221003 0.833333 0 
C 0.833333 -0.221003 0.745528 -0.432983 0.589256 -0.589256 
C 0.432983 -0.745528 0.221003 -0.833333 0 -0.833333 
C -0.221003 -0.833333 -0.432983 -0.745528 -0.589256 -0.589256 
C -0.745528 -0.432983 -0.833333 -0.221003 -0.833333 0 
C -0.833333 0.221003 -0.745528 0.432983 -0.589256 0.589256 
C -0.432983 0.745528 -0.221003 0.833333 0 0.833333 
z
" style="stroke: #ffffff; stroke-width: 0.8"/>
    </defs>
    <g clip-path="url(#p76882e142f)">
     <use xlink:href="#m9457201ec4" x="20.793753" y="64.606349" style="fill: #ffffff; stroke: #ffffff; stroke-width: 0.8"/>
    </g>
   </g>
   <g id="line2d_12">
    <path d="M 42.371091 65.537835 
L 42.371091 63.25679 
" clip-path="url(#p76882e142f)" style="fill: none; stroke: #8c8c8c; stroke-width: 0.75; stroke-linecap: round"/>
   </g>
   <g id="line2d_13">
    <path d="M 42.371091 64.295498 
L 42.371091 63.25679 
" clip-path="url(#p76882e142f)" style="fill: none; stroke: #8c8c8c; stroke-width: 4; stroke-linecap: round"/>
   </g>
   <g id="line2d_14">
    <path d="M 42.371091 63.901653 
" clip-path="url(#p76882e142f)" style="fill: none; stroke: #7c7c7c; stroke-width: 1.2; stroke-linecap: round"/>
    <g clip-path="url(#p76882e142f)">
     <use xlink:href="#m9457201ec4" x="42.371091" y="63.901653" style="fill: #ffffff; stroke: #ffffff; stroke-width: 0.8"/>
    </g>
   </g>
   <g id="patch_3">
    <path d="M 10.005084 74.419526 
L 10.005084 4.076256 
" style="fill: none; stroke: #777777; stroke-width: 0.5; stroke-linejoin: miter; stroke-linecap: square"/>
   </g>
   <g id="patch_4">
    <path d="M 10.005084 76.919526 
L 53.15976 76.919526 
" style="fill: none; stroke: #777777; stroke-width: 0.5; stroke-linejoin: miter; stroke-linecap: square"/>
   </g>
  </g>
 </g>
 <defs>
  <clipPath id="p76882e142f">
   <rect x="10.005084" y="4.076256" width="43.154676" height="70.34327"/>
  </clipPath>
 </defs>
</svg>
