<?xml version="1.0" encoding="utf-8" standalone="no"?>
<!DOCTYPE svg PUBLIC "-//W3C//DTD SVG 1.1//EN"
  "http://www.w3.org/Graphics/SVG/1.1/DTD/svg11.dtd">
<svg xmlns:xlink="http://www.w3.org/1999/xlink" width="56.16pt" height="84.96pt" viewBox="0 0 56.16 84.96" xmlns="http://www.w3.org/2000/svg" version="1.1">
 <metadata>
  <rdf:RDF xmlns:dc="http://purl.org/dc/elements/1.1/" xmlns:cc="http://creativecommons.org/ns#" xmlns:rdf="http://www.w3.org/1999/02/22-rdf-syntax-ns#">
   <cc:Work>
    <dc:type rdf:resource="http://purl.org/dc/dcmitype/StillImage"/>
    <dc:date>2024-05-27T15:37:07.606954</dc:date>
    <dc:format>image/svg+xml</dc:format>
    <dc:creator>
     <cc:Agent>
      <dc:title>Matplotlib v3.8.3, https://matplotlib.org/</dc:title>
     </cc:Agent>
    </dc:creator>
   </cc:Work>
  </rdf:RDF>
 </metadata>
 <defs>
  <style type="text/css">*{stroke-linejoin: round; stroke-linecap: butt}</style>
 </defs>
 <g id="figure_1">
  <g id="patch_1">
   <path d="M 0 84.96 
L 56.16 84.96 
L 56.16 0 
L 0 0 
z
" style="fill: #ffffff"/>
  </g>
  <g id="axes_1">
   <g id="patch_2">
    <path d="M 8.336802 74.419526 
L 53.15976 74.419526 
L 53.15976 4.076256 
L 8.336802 4.076256 
z
" style="fill: #ffffff"/>
   </g>
   <g id="matplotlib.axis_1">
    <g id="xtick_1">
     <g id="text_1">
      <!-- ILC3 -->
      <g style="fill: #333333" transform="translate(15.846214 81.230229) scale(0.035 -0.035)">
       <defs>
        <path id="Helvetica-49" d="M 628 4591 
L 1256 4591 
L 1256 0 
L 628 0 
L 628 4591 
z
" transform="scale(0.015625)"/>
        <path id="Helvetica-4c" d="M 488 4591 
L 1109 4591 
L 1109 547 
L 3434 547 
L 3434 0 
L 488 0 
L 488 4591 
z
" transform="scale(0.015625)"/>
        <path id="Helvetica-43" d="M 2422 4716 
Q 3294 4716 3775 4256 
Q 4256 3797 4309 3213 
L 3703 3213 
Q 3600 3656 3292 3915 
Q 2984 4175 2428 4175 
Q 1750 4175 1333 3698 
Q 916 3222 916 2238 
Q 916 1431 1292 929 
Q 1669 428 2416 428 
Q 3103 428 3463 956 
Q 3653 1234 3747 1688 
L 4353 1688 
Q 4272 963 3816 472 
Q 3269 -119 2341 -119 
Q 1541 -119 997 366 
Q 281 1006 281 2344 
Q 281 3359 819 4009 
Q 1400 4716 2422 4716 
z
M 2297 4716 
L 2297 4716 
z
" transform="scale(0.015625)"/>
        <path id="Helvetica-33" d="M 1663 -122 
Q 869 -122 511 314 
Q 153 750 153 1375 
L 741 1375 
Q 778 941 903 744 
Q 1122 391 1694 391 
Q 2138 391 2406 628 
Q 2675 866 2675 1241 
Q 2675 1703 2392 1887 
Q 2109 2072 1606 2072 
Q 1550 2072 1492 2070 
Q 1434 2069 1375 2066 
L 1375 2563 
Q 1463 2553 1522 2550 
Q 1581 2547 1650 2547 
Q 1966 2547 2169 2647 
Q 2525 2822 2525 3272 
Q 2525 3606 2287 3787 
Q 2050 3969 1734 3969 
Q 1172 3969 956 3594 
Q 838 3388 822 3006 
L 266 3006 
Q 266 3506 466 3856 
Q 809 4481 1675 4481 
Q 2359 4481 2734 4176 
Q 3109 3872 3109 3294 
Q 3109 2881 2888 2625 
Q 2750 2466 2531 2375 
Q 2884 2278 3082 2001 
Q 3281 1725 3281 1325 
Q 3281 684 2859 281 
Q 2438 -122 1663 -122 
z
" transform="scale(0.015625)"/>
       </defs>
       <use xlink:href="#Helvetica-49"/>
       <use xlink:href="#Helvetica-4c" x="27.783203"/>
       <use xlink:href="#Helvetica-43" x="83.398438"/>
       <use xlink:href="#Helvetica-33" x="155.615234"/>
      </g>
     </g>
    </g>
    <g id="xtick_2">
     <g id="text_2">
      <!-- TH17 -->
      <g style="fill: #333333" transform="translate(37.674997 81.230229) scale(0.035 -0.035)">
       <defs>
        <path id="Helvetica-54" d="M 3828 4591 
L 3828 4044 
L 2281 4044 
L 2281 0 
L 1650 0 
L 1650 4044 
L 103 4044 
L 103 4591 
L 3828 4591 
z
" transform="scale(0.015625)"/>
        <path id="Helvetica-48" d="M 503 4591 
L 1131 4591 
L 1131 2694 
L 3519 2694 
L 3519 4591 
L 4147 4591 
L 4147 0 
L 3519 0 
L 3519 2147 
L 1131 2147 
L 1131 0 
L 503 0 
L 503 4591 
z
" transform="scale(0.015625)"/>
        <path id="Helvetica-31" d="M 613 3169 
L 613 3600 
Q 1222 3659 1462 3798 
Q 1703 3938 1822 4456 
L 2266 4456 
L 2266 0 
L 1666 0 
L 1666 3169 
L 613 3169 
z
" transform="scale(0.015625)"/>
        <path id="Helvetica-37" d="M 3347 4400 
L 3347 3909 
Q 3131 3700 2773 3181 
Q 2416 2663 2141 2063 
Q 1869 1478 1728 997 
Q 1638 688 1494 0 
L 872 0 
Q 1084 1281 1809 2550 
Q 2238 3294 2709 3834 
L 234 3834 
L 234 4400 
L 3347 4400 
z
" transform="scale(0.015625)"/>
       </defs>
       <use xlink:href="#Helvetica-54"/>
       <use xlink:href="#Helvetica-48" x="61.083984"/>
       <use xlink:href="#Helvetica-31" x="133.300781"/>
       <use xlink:href="#Helvetica-37" x="188.916016"/>
      </g>
     </g>
    </g>
   </g>
   <g id="matplotlib.axis_2">
    <g id="ytick_1">
     <g id="line2d_1">
      <defs>
       <path id="maf8c705f81" d="M 0 0 
L -1 0 
" style="stroke: #777777; stroke-width: 0.5"/>
      </defs>
      <g>
       <use xlink:href="#maf8c705f81" x="8.336802" y="66.995102" style="fill: #777777; stroke: #777777; stroke-width: 0.5"/>
      </g>
     </g>
     <g id="text_3">
      <!-- 0 -->
      <g style="fill: #333333" transform="translate(4.668521 68.071117) scale(0.03 -0.03)">
       <defs>
        <path id="Helvetica-30" d="M 1731 4475 
Q 2600 4475 2988 3759 
Q 3288 3206 3288 2244 
Q 3288 1331 3016 734 
Q 2622 -122 1728 -122 
Q 922 -122 528 578 
Q 200 1163 200 2147 
Q 200 2909 397 3456 
Q 766 4475 1731 4475 
z
M 1725 391 
Q 2163 391 2422 778 
Q 2681 1166 2681 2222 
Q 2681 2984 2493 3476 
Q 2306 3969 1766 3969 
Q 1269 3969 1039 3501 
Q 809 3034 809 2125 
Q 809 1441 956 1025 
Q 1181 391 1725 391 
z
" transform="scale(0.015625)"/>
       </defs>
       <use xlink:href="#Helvetica-30"/>
      </g>
     </g>
    </g>
    <g id="ytick_2">
     <g id="line2d_2">
      <g>
       <use xlink:href="#maf8c705f81" x="8.336802" y="54.411333" style="fill: #777777; stroke: #777777; stroke-width: 0.5"/>
      </g>
     </g>
     <g id="text_4">
      <!-- 10 -->
      <g style="fill: #333333" transform="translate(3.00024 55.487348) scale(0.03 -0.03)">
       <use xlink:href="#Helvetica-31"/>
       <use xlink:href="#Helvetica-30" x="55.615234"/>
      </g>
     </g>
    </g>
    <g id="ytick_3">
     <g id="line2d_3">
      <g>
       <use xlink:href="#maf8c705f81" x="8.336802" y="41.827563" style="fill: #777777; stroke: #777777; stroke-width: 0.5"/>
      </g>
     </g>
     <g id="text_5">
      <!-- 20 -->
      <g style="fill: #333333" transform="translate(3.00024 42.903579) scale(0.03 -0.03)">
       <defs>
        <path id="Helvetica-32" d="M 200 0 
Q 231 578 439 1006 
Q 647 1434 1250 1784 
L 1850 2131 
Q 2253 2366 2416 2531 
Q 2672 2791 2672 3125 
Q 2672 3516 2437 3745 
Q 2203 3975 1813 3975 
Q 1234 3975 1013 3538 
Q 894 3303 881 2888 
L 309 2888 
Q 319 3472 525 3841 
Q 891 4491 1816 4491 
Q 2584 4491 2939 4075 
Q 3294 3659 3294 3150 
Q 3294 2613 2916 2231 
Q 2697 2009 2131 1694 
L 1703 1456 
Q 1397 1288 1222 1134 
Q 909 863 828 531 
L 3272 531 
L 3272 0 
L 200 0 
z
" transform="scale(0.015625)"/>
       </defs>
       <use xlink:href="#Helvetica-32"/>
       <use xlink:href="#Helvetica-30" x="55.615234"/>
      </g>
     </g>
    </g>
    <g id="ytick_4">
     <g id="line2d_4">
      <g>
       <use xlink:href="#maf8c705f81" x="8.336802" y="29.243794" style="fill: #777777; stroke: #777777; stroke-width: 0.5"/>
      </g>
     </g>
     <g id="text_6">
      <!-- 30 -->
      <g style="fill: #333333" transform="translate(3.00024 30.31981) scale(0.03 -0.03)">
       <use xlink:href="#Helvetica-33"/>
       <use xlink:href="#Helvetica-30" x="55.615234"/>
      </g>
     </g>
    </g>
    <g id="ytick_5">
     <g id="line2d_5">
      <g>
       <use xlink:href="#maf8c705f81" x="8.336802" y="16.660025" style="fill: #777777; stroke: #777777; stroke-width: 0.5"/>
      </g>
     </g>
     <g id="text_7">
      <!-- 40 -->
      <g style="fill: #333333" transform="translate(3.00024 17.73604) scale(0.03 -0.03)">
       <defs>
        <path id="Helvetica-34" d="M 2116 1584 
L 2116 3613 
L 681 1584 
L 2116 1584 
z
M 2125 0 
L 2125 1094 
L 163 1094 
L 163 1644 
L 2213 4488 
L 2688 4488 
L 2688 1584 
L 3347 1584 
L 3347 1094 
L 2688 1094 
L 2688 0 
L 2125 0 
z
" transform="scale(0.015625)"/>
       </defs>
       <use xlink:href="#Helvetica-34"/>
       <use xlink:href="#Helvetica-30" x="55.615234"/>
      </g>
     </g>
    </g>
    <g id="ytick_6">
     <g id="line2d_6">
      <g>
       <use xlink:href="#maf8c705f81" x="8.336802" y="4.076256" style="fill: #777777; stroke: #777777; stroke-width: 0.5"/>
      </g>
     </g>
     <g id="text_8">
      <!-- 50 -->
      <g style="fill: #333333" transform="translate(3.00024 5.152271) scale(0.03 -0.03)">
       <defs>
        <path id="Helvetica-35" d="M 791 1141 
Q 847 659 1238 475 
Q 1438 381 1700 381 
Q 2200 381 2440 700 
Q 2681 1019 2681 1406 
Q 2681 1875 2395 2131 
Q 2109 2388 1709 2388 
Q 1419 2388 1211 2275 
Q 1003 2163 856 1963 
L 369 1991 
L 709 4400 
L 3034 4400 
L 3034 3856 
L 1131 3856 
L 941 2613 
Q 1097 2731 1238 2791 
Q 1488 2894 1816 2894 
Q 2431 2894 2859 2497 
Q 3288 2100 3288 1491 
Q 3288 856 2895 371 
Q 2503 -113 1644 -113 
Q 1097 -113 676 195 
Q 256 503 206 1141 
L 791 1141 
z
" transform="scale(0.015625)"/>
       </defs>
       <use xlink:href="#Helvetica-35"/>
       <use xlink:href="#Helvetica-30" x="55.615234"/>
      </g>
     </g>
    </g>
   </g>
   <g id="PolyCollection_1">
    <defs>
     <path id="m5bcfd69519" d="M 20.436728 -17.932126 
L 18.648356 -17.932126 
L 18.464808 -17.936888 
L 18.258635 -17.941651 
L 18.030301 -17.946413 
L 17.780902 -17.951176 
L 17.512134 -17.955938 
L 17.226212 -17.9607 
L 16.925738 -17.965463 
L 16.61354 -17.970225 
L 16.292476 -17.974988 
L 15.965242 -17.97975 
L 15.634186 -17.984513 
L 15.30117 -17.989275 
L 14.967489 -17.994038 
L 14.633867 -17.9988 
L 14.300535 -18.003563 
L 13.967403 -18.008325 
L 13.634302 -18.013088 
L 13.301283 -18.01785 
L 12.968941 -18.022613 
L 12.63873 -18.027375 
L 12.313228 -18.032138 
L 11.996314 -18.0369 
L 11.693223 -18.041663 
L 11.410463 -18.046425 
L 11.155582 -18.051187 
L 10.936786 -18.05595 
L 10.762448 -18.060712 
L 10.640525 -18.065475 
L 10.57795 -18.070237 
L 10.580041 -18.075 
L 10.649989 -18.079762 
L 10.788483 -18.084525 
L 10.993498 -18.089287 
L 11.260281 -18.09405 
L 11.581543 -18.098812 
L 11.947843 -18.103575 
L 12.348131 -18.108337 
L 12.770414 -18.1131 
L 13.202481 -18.117862 
L 13.632636 -18.122625 
L 14.050369 -18.127387 
L 14.446921 -18.13215 
L 14.815694 -18.136912 
L 15.152481 -18.141675 
L 15.455507 -18.146437 
L 15.725287 -18.151199 
L 15.964313 -18.155962 
L 16.176631 -18.160724 
L 16.367321 -18.165487 
L 16.541953 -18.170249 
L 16.706063 -18.175012 
L 16.864681 -18.179774 
L 17.02196 -18.184537 
L 17.180919 -18.189299 
L 17.343315 -18.194062 
L 17.509631 -18.198824 
L 17.679181 -18.203587 
L 17.850291 -18.208349 
L 18.020535 -18.213112 
L 18.187 -18.217874 
L 18.346543 -18.222637 
L 18.496019 -18.227399 
L 18.632472 -18.232162 
L 18.753265 -18.236924 
L 18.856167 -18.241686 
L 18.939381 -18.246449 
L 19.001551 -18.251211 
L 19.041739 -18.255974 
L 19.059396 -18.260736 
L 19.054347 -18.265499 
L 19.026783 -18.270261 
L 18.977286 -18.275024 
L 18.906861 -18.279786 
L 18.816995 -18.284549 
L 18.709711 -18.289311 
L 18.587621 -18.294074 
L 18.453949 -18.298836 
L 18.312521 -18.303599 
L 18.167698 -18.308361 
L 18.024269 -18.313124 
L 17.887275 -18.317886 
L 17.761797 -18.322649 
L 17.652707 -18.327411 
L 17.564403 -18.332174 
L 17.500553 -18.336936 
L 17.463879 -18.341698 
L 17.455981 -18.346461 
L 17.477238 -18.351223 
L 17.526796 -18.355986 
L 17.602628 -18.360748 
L 17.701678 -18.365511 
L 17.820072 -18.370273 
L 17.953366 -18.375036 
L 18.096831 -18.379798 
L 18.245721 -18.384561 
L 18.39553 -18.389323 
L 18.54221 -18.394086 
L 18.682323 -18.398848 
L 18.813147 -18.403611 
L 20.271937 -18.403611 
L 20.271937 -18.403611 
L 20.402761 -18.398848 
L 20.542874 -18.394086 
L 20.689553 -18.389323 
L 20.839363 -18.384561 
L 20.988253 -18.379798 
L 21.131717 -18.375036 
L 21.265012 -18.370273 
L 21.383405 -18.365511 
L 21.482456 -18.360748 
L 21.558287 -18.355986 
L 21.607846 -18.351223 
L 21.629103 -18.346461 
L 21.621204 -18.341698 
L 21.58453 -18.336936 
L 21.520681 -18.332174 
L 21.432377 -18.327411 
L 21.323287 -18.322649 
L 21.197809 -18.317886 
L 21.060815 -18.313124 
L 20.917386 -18.308361 
L 20.772563 -18.303599 
L 20.631134 -18.298836 
L 20.497463 -18.294074 
L 20.375373 -18.289311 
L 20.268089 -18.284549 
L 20.178222 -18.279786 
L 20.107797 -18.275024 
L 20.0583 -18.270261 
L 20.030737 -18.265499 
L 20.025688 -18.260736 
L 20.043345 -18.255974 
L 20.083532 -18.251211 
L 20.145703 -18.246449 
L 20.228917 -18.241686 
L 20.331818 -18.236924 
L 20.452612 -18.232162 
L 20.589065 -18.227399 
L 20.738541 -18.222637 
L 20.898084 -18.217874 
L 21.064549 -18.213112 
L 21.234793 -18.208349 
L 21.405902 -18.203587 
L 21.575453 -18.198824 
L 21.741769 -18.194062 
L 21.904164 -18.189299 
L 22.063124 -18.184537 
L 22.220403 -18.179774 
L 22.379021 -18.175012 
L 22.543131 -18.170249 
L 22.717763 -18.165487 
L 22.908452 -18.160724 
L 23.12077 -18.155962 
L 23.359797 -18.151199 
L 23.629577 -18.146437 
L 23.932603 -18.141675 
L 24.26939 -18.136912 
L 24.638162 -18.13215 
L 25.034714 -18.127387 
L 25.452447 -18.122625 
L 25.882602 -18.117862 
L 26.31467 -18.1131 
L 26.736952 -18.108337 
L 27.137241 -18.103575 
L 27.503541 -18.098812 
L 27.824803 -18.09405 
L 28.091586 -18.089287 
L 28.296601 -18.084525 
L 28.435095 -18.079762 
L 28.505043 -18.075 
L 28.507133 -18.070237 
L 28.444559 -18.065475 
L 28.322636 -18.060712 
L 28.148298 -18.05595 
L 27.929502 -18.051187 
L 27.67462 -18.046425 
L 27.39186 -18.041663 
L 27.088769 -18.0369 
L 26.771855 -18.032138 
L 26.446354 -18.027375 
L 26.116143 -18.022613 
L 25.783801 -18.01785 
L 25.450781 -18.013088 
L 25.117681 -18.008325 
L 24.784549 -18.003563 
L 24.451217 -17.9988 
L 24.117595 -17.994038 
L 23.783914 -17.989275 
L 23.450898 -17.984513 
L 23.119842 -17.97975 
L 22.792607 -17.974988 
L 22.471544 -17.970225 
L 22.159346 -17.965463 
L 21.858872 -17.9607 
L 21.572949 -17.955938 
L 21.304182 -17.951176 
L 21.054783 -17.946413 
L 20.826449 -17.941651 
L 20.620275 -17.936888 
L 20.436728 -17.932126 
z
" style="stroke: #7c7c7c; stroke-width: 0.15"/>
    </defs>
    <g clip-path="url(#pd8c0990093)">
     <use xlink:href="#m5bcfd69519" x="0" y="84.96" style="fill: #cfcfcf; stroke: #7c7c7c; stroke-width: 0.15"/>
    </g>
   </g>
   <g id="PolyCollection_2">
    <defs>
     <path id="mcebe141330" d="M 43.517198 -17.745668 
L 40.390844 -17.745668 
L 40.083146 -17.772833 
L 39.738792 -17.799999 
L 39.3588 -17.827164 
L 38.945451 -17.854329 
L 38.502358 -17.881494 
L 38.034468 -17.908659 
L 37.54799 -17.935825 
L 37.050241 -17.96299 
L 36.549416 -17.990155 
L 36.054288 -18.01732 
L 35.573855 -18.044486 
L 35.116947 -18.071651 
L 34.691825 -18.098816 
L 34.305796 -18.125981 
L 33.964868 -18.153147 
L 33.673471 -18.180312 
L 33.434273 -18.207477 
L 33.248094 -18.234642 
L 33.113928 -18.261807 
L 33.029086 -18.288973 
L 32.989429 -18.316138 
L 32.989689 -18.343303 
L 33.023852 -18.370468 
L 33.085562 -18.397634 
L 33.168537 -18.424799 
L 33.266936 -18.451964 
L 33.375677 -18.479129 
L 33.490659 -18.506295 
L 33.608896 -18.53346 
L 33.728531 -18.560625 
L 33.84875 -18.58779 
L 33.969611 -18.614956 
L 34.091794 -18.642121 
L 34.216307 -18.669286 
L 34.344188 -18.696451 
L 34.476219 -18.723616 
L 34.612688 -18.750782 
L 34.753223 -18.777947 
L 34.896718 -18.805112 
L 35.041348 -18.832277 
L 35.184675 -18.859443 
L 35.323838 -18.886608 
L 35.455801 -18.913773 
L 35.577634 -18.940938 
L 35.686799 -18.968104 
L 35.781421 -18.995269 
L 35.860506 -19.022434 
L 35.924094 -19.049599 
L 35.973333 -19.076765 
L 36.010464 -19.10393 
L 36.038726 -19.131095 
L 36.062184 -19.15826 
L 36.08549 -19.185425 
L 36.113608 -19.212591 
L 36.15151 -19.239756 
L 36.203867 -19.266921 
L 36.274761 -19.294086 
L 36.367418 -19.321252 
L 36.484003 -19.348417 
L 36.625455 -19.375582 
L 36.7914 -19.402747 
L 36.98013 -19.429913 
L 37.188646 -19.457078 
L 37.412784 -19.484243 
L 37.64739 -19.511408 
L 37.886559 -19.538573 
L 38.123923 -19.565739 
L 38.35296 -19.592904 
L 38.567336 -19.620069 
L 38.761231 -19.647234 
L 38.929659 -19.6744 
L 39.068745 -19.701565 
L 39.175956 -19.72873 
L 39.25026 -19.755895 
L 39.292205 -19.783061 
L 39.303916 -19.810226 
L 39.289 -19.837391 
L 39.252366 -19.864556 
L 39.199969 -19.891722 
L 39.138493 -19.918887 
L 39.074984 -19.946052 
L 39.016472 -19.973217 
L 38.969587 -20.000382 
L 38.94021 -20.027548 
L 38.933171 -20.054713 
L 38.952022 -20.081878 
L 38.998886 -20.109043 
L 39.074412 -20.136209 
L 39.177803 -20.163374 
L 39.30695 -20.190539 
L 39.458622 -20.217704 
L 39.628721 -20.24487 
L 39.812566 -20.272035 
L 40.005186 -20.2992 
L 40.20161 -20.326365 
L 40.397121 -20.353531 
L 40.587469 -20.380696 
L 40.76903 -20.407861 
L 40.938908 -20.435026 
L 42.969133 -20.435026 
L 42.969133 -20.435026 
L 43.139011 -20.407861 
L 43.320573 -20.380696 
L 43.510921 -20.353531 
L 43.706432 -20.326365 
L 43.902856 -20.2992 
L 44.095476 -20.272035 
L 44.27932 -20.24487 
L 44.449419 -20.217704 
L 44.601091 -20.190539 
L 44.730238 -20.163374 
L 44.83363 -20.136209 
L 44.909155 -20.109043 
L 44.95602 -20.081878 
L 44.97487 -20.054713 
L 44.967831 -20.027548 
L 44.938454 -20.000382 
L 44.891569 -19.973217 
L 44.833057 -19.946052 
L 44.769548 -19.918887 
L 44.708072 -19.891722 
L 44.655676 -19.864556 
L 44.619042 -19.837391 
L 44.604126 -19.810226 
L 44.615836 -19.783061 
L 44.657781 -19.755895 
L 44.732085 -19.72873 
L 44.839297 -19.701565 
L 44.978383 -19.6744 
L 45.14681 -19.647234 
L 45.340705 -19.620069 
L 45.555081 -19.592904 
L 45.784119 -19.565739 
L 46.021482 -19.538573 
L 46.260651 -19.511408 
L 46.495257 -19.484243 
L 46.719395 -19.457078 
L 46.927912 -19.429913 
L 47.116641 -19.402747 
L 47.282586 -19.375582 
L 47.424038 -19.348417 
L 47.540623 -19.321252 
L 47.633281 -19.294086 
L 47.704174 -19.266921 
L 47.756532 -19.239756 
L 47.794433 -19.212591 
L 47.822552 -19.185425 
L 47.845857 -19.15826 
L 47.869315 -19.131095 
L 47.897578 -19.10393 
L 47.934709 -19.076765 
L 47.983947 -19.049599 
L 48.047535 -19.022434 
L 48.12662 -18.995269 
L 48.221242 -18.968104 
L 48.330407 -18.940938 
L 48.45224 -18.913773 
L 48.584203 -18.886608 
L 48.723367 -18.859443 
L 48.866693 -18.832277 
L 49.011323 -18.805112 
L 49.154818 -18.777947 
L 49.295354 -18.750782 
L 49.431822 -18.723616 
L 49.563853 -18.696451 
L 49.691734 -18.669286 
L 49.816247 -18.642121 
L 49.93843 -18.614956 
L 50.059291 -18.58779 
L 50.179511 -18.560625 
L 50.299145 -18.53346 
L 50.417382 -18.506295 
L 50.532365 -18.479129 
L 50.641105 -18.451964 
L 50.739504 -18.424799 
L 50.822479 -18.397634 
L 50.88419 -18.370468 
L 50.918352 -18.343303 
L 50.918612 -18.316138 
L 50.878955 -18.288973 
L 50.794113 -18.261807 
L 50.659947 -18.234642 
L 50.473768 -18.207477 
L 50.234571 -18.180312 
L 49.943174 -18.153147 
L 49.602245 -18.125981 
L 49.216216 -18.098816 
L 48.791094 -18.071651 
L 48.334186 -18.044486 
L 47.853753 -18.01732 
L 47.358625 -17.990155 
L 46.8578 -17.96299 
L 46.360051 -17.935825 
L 45.873573 -17.908659 
L 45.405683 -17.881494 
L 44.96259 -17.854329 
L 44.549241 -17.827164 
L 44.169249 -17.799999 
L 43.824895 -17.772833 
L 43.517198 -17.745668 
z
" style="stroke: #7c7c7c; stroke-width: 0.15"/>
    </defs>
    <g clip-path="url(#pd8c0990093)">
     <use xlink:href="#mcebe141330" x="0" y="84.96" style="fill: #f3f3ae; stroke: #7c7c7c; stroke-width: 0.15"/>
    </g>
   </g>
   <g id="line2d_7">
    <path d="M 19.542542 66.969661 
L 19.542542 66.781506 
" clip-path="url(#pd8c0990093)" style="fill: none; stroke: #8c8c8c; stroke-width: 0.75; stroke-linecap: round"/>
   </g>
   <g id="line2d_8">
    <path d="M 19.542542 66.905462 
L 19.542542 66.837237 
" clip-path="url(#pd8c0990093)" style="fill: none; stroke: #8c8c8c; stroke-width: 4; stroke-linecap: round"/>
   </g>
   <g id="line2d_9">
    <path d="M 19.542542 66.879791 
" clip-path="url(#pd8c0990093)" style="fill: none; stroke: #7c7c7c; stroke-width: 1.2; stroke-linecap: round"/>
    <defs>
     <path id="m4bf29fd12b" d="M 0 0.833333 
C 0.221003 0.833333 0.432983 0.745528 0.589256 0.589256 
C 0.745528 0.432983 0.833333 0.221003 0.833333 0 
C 0.833333 -0.221003 0.745528 -0.432983 0.589256 -0.589256 
C 0.432983 -0.745528 0.221003 -0.833333 0 -0.833333 
C -0.221003 -0.833333 -0.432983 -0.745528 -0.589256 -0.589256 
C -0.745528 -0.432983 -0.833333 -0.221003 -0.833333 0 
C -0.833333 0.221003 -0.745528 0.432983 -0.589256 0.589256 
C -0.432983 0.745528 -0.221003 0.833333 0 0.833333 
z
" style="stroke: #ffffff; stroke-width: 0.8"/>
    </defs>
    <g clip-path="url(#pd8c0990093)">
     <use xlink:href="#m4bf29fd12b" x="19.542542" y="66.879791" style="fill: #ffffff; stroke: #ffffff; stroke-width: 0.8"/>
    </g>
   </g>
   <g id="line2d_10">
    <path d="M 41.954021 66.85871 
L 41.954021 64.880596 
" clip-path="url(#pd8c0990093)" style="fill: none; stroke: #8c8c8c; stroke-width: 0.75; stroke-linecap: round"/>
   </g>
   <g id="line2d_11">
    <path d="M 41.954021 66.623867 
L 41.954021 65.704035 
" clip-path="url(#pd8c0990093)" style="fill: none; stroke: #8c8c8c; stroke-width: 4; stroke-linecap: round"/>
   </g>
   <g id="line2d_12">
    <path d="M 41.954021 66.220173 
" clip-path="url(#pd8c0990093)" style="fill: none; stroke: #7c7c7c; stroke-width: 1.2; stroke-linecap: round"/>
    <g clip-path="url(#pd8c0990093)">
     <use xlink:href="#m4bf29fd12b" x="41.954021" y="66.220173" style="fill: #ffffff; stroke: #ffffff; stroke-width: 0.8"/>
    </g>
   </g>
   <g id="patch_3">
    <path d="M 8.336802 74.419526 
L 8.336802 4.076256 
" style="fill: none; stroke: #777777; stroke-width: 0.5; stroke-linejoin: miter; stroke-linecap: square"/>
   </g>
   <g id="patch_4">
    <path d="M 8.336802 76.919526 
L 53.15976 76.919526 
" style="fill: none; stroke: #777777; stroke-width: 0.5; stroke-linejoin: miter; stroke-linecap: square"/>
   </g>
  </g>
 </g>
 <defs>
  <clipPath id="pd8c0990093">
   <rect x="8.336802" y="4.076256" width="44.822958" height="70.34327"/>
  </clipPath>
 </defs>
</svg>
