<?xml version="1.0" encoding="utf-8" standalone="no"?>
<!DOCTYPE svg PUBLIC "-//W3C//DTD SVG 1.1//EN"
  "http://www.w3.org/Graphics/SVG/1.1/DTD/svg11.dtd">
<svg xmlns:xlink="http://www.w3.org/1999/xlink" width="56.16pt" height="84.96pt" viewBox="0 0 56.16 84.96" xmlns="http://www.w3.org/2000/svg" version="1.1">
 <metadata>
  <rdf:RDF xmlns:dc="http://purl.org/dc/elements/1.1/" xmlns:cc="http://creativecommons.org/ns#" xmlns:rdf="http://www.w3.org/1999/02/22-rdf-syntax-ns#">
   <cc:Work>
    <dc:type rdf:resource="http://purl.org/dc/dcmitype/StillImage"/>
    <dc:date>2024-05-27T15:37:11.908643</dc:date>
    <dc:format>image/svg+xml</dc:format>
    <dc:creator>
     <cc:Agent>
      <dc:title>Matplotlib v3.8.3, https://matplotlib.org/</dc:title>
     </cc:Agent>
    </dc:creator>
   </cc:Work>
  </rdf:RDF>
 </metadata>
 <defs>
  <style type="text/css">*{stroke-linejoin: round; stroke-linecap: butt}</style>
 </defs>
 <g id="figure_1">
  <g id="patch_1">
   <path d="M 0 84.96 
L 56.16 84.96 
L 56.16 0 
L 0 0 
z
" style="fill: #ffffff"/>
  </g>
  <g id="axes_1">
   <g id="patch_2">
    <path d="M 10.005084 74.419526 
L 53.15976 74.419526 
L 53.15976 4.076256 
L 10.005084 4.076256 
z
" style="fill: #ffffff"/>
   </g>
   <g id="matplotlib.axis_1">
    <g id="xtick_1">
     <g id="text_1">
      <!-- ILC3 -->
      <g style="fill: #333333" transform="translate(17.097425 81.230229) scale(0.035 -0.035)">
       <defs>
        <path id="Helvetica-49" d="M 628 4591 
L 1256 4591 
L 1256 0 
L 628 0 
L 628 4591 
z
" transform="scale(0.015625)"/>
        <path id="Helvetica-4c" d="M 488 4591 
L 1109 4591 
L 1109 547 
L 3434 547 
L 3434 0 
L 488 0 
L 488 4591 
z
" transform="scale(0.015625)"/>
        <path id="Helvetica-43" d="M 2422 4716 
Q 3294 4716 3775 4256 
Q 4256 3797 4309 3213 
L 3703 3213 
Q 3600 3656 3292 3915 
Q 2984 4175 2428 4175 
Q 1750 4175 1333 3698 
Q 916 3222 916 2238 
Q 916 1431 1292 929 
Q 1669 428 2416 428 
Q 3103 428 3463 956 
Q 3653 1234 3747 1688 
L 4353 1688 
Q 4272 963 3816 472 
Q 3269 -119 2341 -119 
Q 1541 -119 997 366 
Q 281 1006 281 2344 
Q 281 3359 819 4009 
Q 1400 4716 2422 4716 
z
M 2297 4716 
L 2297 4716 
z
" transform="scale(0.015625)"/>
        <path id="Helvetica-33" d="M 1663 -122 
Q 869 -122 511 314 
Q 153 750 153 1375 
L 741 1375 
Q 778 941 903 744 
Q 1122 391 1694 391 
Q 2138 391 2406 628 
Q 2675 866 2675 1241 
Q 2675 1703 2392 1887 
Q 2109 2072 1606 2072 
Q 1550 2072 1492 2070 
Q 1434 2069 1375 2066 
L 1375 2563 
Q 1463 2553 1522 2550 
Q 1581 2547 1650 2547 
Q 1966 2547 2169 2647 
Q 2525 2822 2525 3272 
Q 2525 3606 2287 3787 
Q 2050 3969 1734 3969 
Q 1172 3969 956 3594 
Q 838 3388 822 3006 
L 266 3006 
Q 266 3506 466 3856 
Q 809 4481 1675 4481 
Q 2359 4481 2734 4176 
Q 3109 3872 3109 3294 
Q 3109 2881 2888 2625 
Q 2750 2466 2531 2375 
Q 2884 2278 3082 2001 
Q 3281 1725 3281 1325 
Q 3281 684 2859 281 
Q 2438 -122 1663 -122 
z
" transform="scale(0.015625)"/>
       </defs>
       <use xlink:href="#Helvetica-49"/>
       <use xlink:href="#Helvetica-4c" x="27.783203"/>
       <use xlink:href="#Helvetica-43" x="83.398438"/>
       <use xlink:href="#Helvetica-33" x="155.615234"/>
      </g>
     </g>
    </g>
    <g id="xtick_2">
     <g id="text_2">
      <!-- TH17 -->
      <g style="fill: #333333" transform="translate(38.092067 81.230229) scale(0.035 -0.035)">
       <defs>
        <path id="Helvetica-54" d="M 3828 4591 
L 3828 4044 
L 2281 4044 
L 2281 0 
L 1650 0 
L 1650 4044 
L 103 4044 
L 103 4591 
L 3828 4591 
z
" transform="scale(0.015625)"/>
        <path id="Helvetica-48" d="M 503 4591 
L 1131 4591 
L 1131 2694 
L 3519 2694 
L 3519 4591 
L 4147 4591 
L 4147 0 
L 3519 0 
L 3519 2147 
L 1131 2147 
L 1131 0 
L 503 0 
L 503 4591 
z
" transform="scale(0.015625)"/>
        <path id="Helvetica-31" d="M 613 3169 
L 613 3600 
Q 1222 3659 1462 3798 
Q 1703 3938 1822 4456 
L 2266 4456 
L 2266 0 
L 1666 0 
L 1666 3169 
L 613 3169 
z
" transform="scale(0.015625)"/>
        <path id="Helvetica-37" d="M 3347 4400 
L 3347 3909 
Q 3131 3700 2773 3181 
Q 2416 2663 2141 2063 
Q 1869 1478 1728 997 
Q 1638 688 1494 0 
L 872 0 
Q 1084 1281 1809 2550 
Q 2238 3294 2709 3834 
L 234 3834 
L 234 4400 
L 3347 4400 
z
" transform="scale(0.015625)"/>
       </defs>
       <use xlink:href="#Helvetica-54"/>
       <use xlink:href="#Helvetica-48" x="61.083984"/>
       <use xlink:href="#Helvetica-31" x="133.300781"/>
       <use xlink:href="#Helvetica-37" x="188.916016"/>
      </g>
     </g>
    </g>
   </g>
   <g id="matplotlib.axis_2">
    <g id="ytick_1">
     <g id="line2d_1">
      <defs>
       <path id="m574be27564" d="M 0 0 
L -1 0 
" style="stroke: #777777; stroke-width: 0.5"/>
      </defs>
      <g>
       <use xlink:href="#m574be27564" x="10.005084" y="65.703651" style="fill: #777777; stroke: #777777; stroke-width: 0.5"/>
      </g>
     </g>
     <g id="text_3">
      <!-- 0 -->
      <g style="fill: #333333" transform="translate(6.336802 66.779667) scale(0.03 -0.03)">
       <defs>
        <path id="Helvetica-30" d="M 1731 4475 
Q 2600 4475 2988 3759 
Q 3288 3206 3288 2244 
Q 3288 1331 3016 734 
Q 2622 -122 1728 -122 
Q 922 -122 528 578 
Q 200 1163 200 2147 
Q 200 2909 397 3456 
Q 766 4475 1731 4475 
z
M 1725 391 
Q 2163 391 2422 778 
Q 2681 1166 2681 2222 
Q 2681 2984 2493 3476 
Q 2306 3969 1766 3969 
Q 1269 3969 1039 3501 
Q 809 3034 809 2125 
Q 809 1441 956 1025 
Q 1181 391 1725 391 
z
" transform="scale(0.015625)"/>
       </defs>
       <use xlink:href="#Helvetica-30"/>
      </g>
     </g>
    </g>
    <g id="ytick_2">
     <g id="line2d_2">
      <g>
       <use xlink:href="#m574be27564" x="10.005084" y="56.899737" style="fill: #777777; stroke: #777777; stroke-width: 0.5"/>
      </g>
     </g>
     <g id="text_4">
      <!-- 100 -->
      <g style="fill: #333333" transform="translate(3.00024 57.975753) scale(0.03 -0.03)">
       <use xlink:href="#Helvetica-31"/>
       <use xlink:href="#Helvetica-30" x="55.615234"/>
       <use xlink:href="#Helvetica-30" x="111.230469"/>
      </g>
     </g>
    </g>
    <g id="ytick_3">
     <g id="line2d_3">
      <g>
       <use xlink:href="#m574be27564" x="10.005084" y="48.095824" style="fill: #777777; stroke: #777777; stroke-width: 0.5"/>
      </g>
     </g>
     <g id="text_5">
      <!-- 200 -->
      <g style="fill: #333333" transform="translate(3.00024 49.171839) scale(0.03 -0.03)">
       <defs>
        <path id="Helvetica-32" d="M 200 0 
Q 231 578 439 1006 
Q 647 1434 1250 1784 
L 1850 2131 
Q 2253 2366 2416 2531 
Q 2672 2791 2672 3125 
Q 2672 3516 2437 3745 
Q 2203 3975 1813 3975 
Q 1234 3975 1013 3538 
Q 894 3303 881 2888 
L 309 2888 
Q 319 3472 525 3841 
Q 891 4491 1816 4491 
Q 2584 4491 2939 4075 
Q 3294 3659 3294 3150 
Q 3294 2613 2916 2231 
Q 2697 2009 2131 1694 
L 1703 1456 
Q 1397 1288 1222 1134 
Q 909 863 828 531 
L 3272 531 
L 3272 0 
L 200 0 
z
" transform="scale(0.015625)"/>
       </defs>
       <use xlink:href="#Helvetica-32"/>
       <use xlink:href="#Helvetica-30" x="55.615234"/>
       <use xlink:href="#Helvetica-30" x="111.230469"/>
      </g>
     </g>
    </g>
    <g id="ytick_4">
     <g id="line2d_4">
      <g>
       <use xlink:href="#m574be27564" x="10.005084" y="39.29191" style="fill: #777777; stroke: #777777; stroke-width: 0.5"/>
      </g>
     </g>
     <g id="text_6">
      <!-- 300 -->
      <g style="fill: #333333" transform="translate(3.00024 40.367926) scale(0.03 -0.03)">
       <use xlink:href="#Helvetica-33"/>
       <use xlink:href="#Helvetica-30" x="55.615234"/>
       <use xlink:href="#Helvetica-30" x="111.230469"/>
      </g>
     </g>
    </g>
    <g id="ytick_5">
     <g id="line2d_5">
      <g>
       <use xlink:href="#m574be27564" x="10.005084" y="30.487997" style="fill: #777777; stroke: #777777; stroke-width: 0.5"/>
      </g>
     </g>
     <g id="text_7">
      <!-- 400 -->
      <g style="fill: #333333" transform="translate(3.00024 31.564012) scale(0.03 -0.03)">
       <defs>
        <path id="Helvetica-34" d="M 2116 1584 
L 2116 3613 
L 681 1584 
L 2116 1584 
z
M 2125 0 
L 2125 1094 
L 163 1094 
L 163 1644 
L 2213 4488 
L 2688 4488 
L 2688 1584 
L 3347 1584 
L 3347 1094 
L 2688 1094 
L 2688 0 
L 2125 0 
z
" transform="scale(0.015625)"/>
       </defs>
       <use xlink:href="#Helvetica-34"/>
       <use xlink:href="#Helvetica-30" x="55.615234"/>
       <use xlink:href="#Helvetica-30" x="111.230469"/>
      </g>
     </g>
    </g>
    <g id="ytick_6">
     <g id="line2d_6">
      <g>
       <use xlink:href="#m574be27564" x="10.005084" y="21.684083" style="fill: #777777; stroke: #777777; stroke-width: 0.5"/>
      </g>
     </g>
     <g id="text_8">
      <!-- 500 -->
      <g style="fill: #333333" transform="translate(3.00024 22.760099) scale(0.03 -0.03)">
       <defs>
        <path id="Helvetica-35" d="M 791 1141 
Q 847 659 1238 475 
Q 1438 381 1700 381 
Q 2200 381 2440 700 
Q 2681 1019 2681 1406 
Q 2681 1875 2395 2131 
Q 2109 2388 1709 2388 
Q 1419 2388 1211 2275 
Q 1003 2163 856 1963 
L 369 1991 
L 709 4400 
L 3034 4400 
L 3034 3856 
L 1131 3856 
L 941 2613 
Q 1097 2731 1238 2791 
Q 1488 2894 1816 2894 
Q 2431 2894 2859 2497 
Q 3288 2100 3288 1491 
Q 3288 856 2895 371 
Q 2503 -113 1644 -113 
Q 1097 -113 676 195 
Q 256 503 206 1141 
L 791 1141 
z
" transform="scale(0.015625)"/>
       </defs>
       <use xlink:href="#Helvetica-35"/>
       <use xlink:href="#Helvetica-30" x="55.615234"/>
       <use xlink:href="#Helvetica-30" x="111.230469"/>
      </g>
     </g>
    </g>
    <g id="ytick_7">
     <g id="line2d_7">
      <g>
       <use xlink:href="#m574be27564" x="10.005084" y="12.880169" style="fill: #777777; stroke: #777777; stroke-width: 0.5"/>
      </g>
     </g>
     <g id="text_9">
      <!-- 600 -->
      <g style="fill: #333333" transform="translate(3.00024 13.956185) scale(0.03 -0.03)">
       <defs>
        <path id="Helvetica-36" d="M 1872 4494 
Q 2622 4494 2917 4105 
Q 3213 3716 3213 3303 
L 2656 3303 
Q 2606 3569 2497 3719 
Q 2294 4000 1881 4000 
Q 1409 4000 1131 3564 
Q 853 3128 822 2316 
Q 1016 2600 1309 2741 
Q 1578 2866 1909 2866 
Q 2472 2866 2890 2506 
Q 3309 2147 3309 1434 
Q 3309 825 2912 354 
Q 2516 -116 1781 -116 
Q 1153 -116 697 361 
Q 241 838 241 1966 
Q 241 2800 444 3381 
Q 834 4494 1872 4494 
z
M 1831 384 
Q 2275 384 2495 682 
Q 2716 981 2716 1388 
Q 2716 1731 2519 2042 
Q 2322 2353 1803 2353 
Q 1441 2353 1167 2112 
Q 894 1872 894 1388 
Q 894 963 1142 673 
Q 1391 384 1831 384 
z
" transform="scale(0.015625)"/>
       </defs>
       <use xlink:href="#Helvetica-36"/>
       <use xlink:href="#Helvetica-30" x="55.615234"/>
       <use xlink:href="#Helvetica-30" x="111.230469"/>
      </g>
     </g>
    </g>
    <g id="ytick_8">
     <g id="line2d_8">
      <g>
       <use xlink:href="#m574be27564" x="10.005084" y="4.076256" style="fill: #777777; stroke: #777777; stroke-width: 0.5"/>
      </g>
     </g>
     <g id="text_10">
      <!-- 700 -->
      <g style="fill: #333333" transform="translate(3.00024 5.152271) scale(0.03 -0.03)">
       <use xlink:href="#Helvetica-37"/>
       <use xlink:href="#Helvetica-30" x="55.615234"/>
       <use xlink:href="#Helvetica-30" x="111.230469"/>
      </g>
     </g>
    </g>
   </g>
   <g id="PolyCollection_1">
    <defs>
     <path id="m6b04a1d709" d="M 21.644824 -18.84023 
L 19.942681 -18.84023 
L 19.774324 -18.887117 
L 19.586103 -18.934005 
L 19.378249 -18.980892 
L 19.151337 -19.027779 
L 18.906228 -19.074667 
L 18.643973 -19.121554 
L 18.365714 -19.168441 
L 18.072583 -19.215329 
L 17.765629 -19.262216 
L 17.445778 -19.309103 
L 17.113849 -19.355991 
L 16.770625 -19.402878 
L 16.416979 -19.449765 
L 16.05405 -19.496652 
L 15.683435 -19.54354 
L 15.307386 -19.590427 
L 14.928977 -19.637314 
L 14.552199 -19.684202 
L 14.181984 -19.731089 
L 13.824114 -19.777976 
L 13.485029 -19.824864 
L 13.171548 -19.871751 
L 12.890503 -19.918638 
L 12.648343 -19.965526 
L 12.450727 -20.012413 
L 12.302163 -20.0593 
L 12.205717 -20.106188 
L 12.162818 -20.153075 
L 12.173188 -20.199962 
L 12.234892 -20.24685 
L 12.34449 -20.293737 
L 12.497289 -20.340624 
L 12.68765 -20.387512 
L 12.909327 -20.434399 
L 13.155798 -20.481286 
L 13.420576 -20.528173 
L 13.69746 -20.575061 
L 13.980736 -20.621948 
L 14.265305 -20.668835 
L 14.546768 -20.715723 
L 14.821454 -20.76261 
L 15.086429 -20.809497 
L 15.339479 -20.856385 
L 15.579093 -20.903272 
L 15.804451 -20.950159 
L 16.015404 -20.997047 
L 16.212457 -21.043934 
L 16.396746 -21.090821 
L 16.569983 -21.137709 
L 16.734378 -21.184596 
L 16.892524 -21.231483 
L 17.047239 -21.278371 
L 17.201383 -21.325258 
L 17.357649 -21.372145 
L 17.518351 -21.419032 
L 17.685227 -21.46592 
L 17.859273 -21.512807 
L 18.040631 -21.559694 
L 18.228537 -21.606582 
L 18.421333 -21.653469 
L 18.616547 -21.700356 
L 18.811032 -21.747244 
L 19.001136 -21.794131 
L 19.182912 -21.841018 
L 19.352326 -21.887906 
L 19.505464 -21.934793 
L 19.638711 -21.98168 
L 19.748918 -22.028568 
L 19.833526 -22.075455 
L 19.890668 -22.122342 
L 19.919243 -22.16923 
L 19.918973 -22.216117 
L 19.890436 -22.263004 
L 19.83509 -22.309892 
L 19.755271 -22.356779 
L 19.654174 -22.403666 
L 19.535803 -22.450553 
L 19.404883 -22.497441 
L 19.266732 -22.544328 
L 19.127088 -22.591215 
L 18.991893 -22.638103 
L 18.867043 -22.68499 
L 18.758113 -22.731877 
L 18.670081 -22.778765 
L 18.607067 -22.825652 
L 18.572117 -22.872539 
L 18.567032 -22.919427 
L 18.592288 -22.966314 
L 18.64703 -23.013201 
L 18.729154 -23.060089 
L 18.835466 -23.106976 
L 18.961912 -23.153863 
L 19.103841 -23.200751 
L 19.256302 -23.247638 
L 19.414334 -23.294525 
L 19.573226 -23.341413 
L 19.728742 -23.3883 
L 19.87729 -23.435187 
L 20.016022 -23.482074 
L 21.571484 -23.482074 
L 21.571484 -23.482074 
L 21.710215 -23.435187 
L 21.858763 -23.3883 
L 22.01428 -23.341413 
L 22.173172 -23.294525 
L 22.331203 -23.247638 
L 22.483665 -23.200751 
L 22.625594 -23.153863 
L 22.752039 -23.106976 
L 22.858352 -23.060089 
L 22.940476 -23.013201 
L 22.995218 -22.966314 
L 23.020474 -22.919427 
L 23.015389 -22.872539 
L 22.980438 -22.825652 
L 22.917425 -22.778765 
L 22.829393 -22.731877 
L 22.720462 -22.68499 
L 22.595612 -22.638103 
L 22.460418 -22.591215 
L 22.320774 -22.544328 
L 22.182623 -22.497441 
L 22.051702 -22.450553 
L 21.933332 -22.403666 
L 21.832235 -22.356779 
L 21.752416 -22.309892 
L 21.69707 -22.263004 
L 21.668533 -22.216117 
L 21.668262 -22.16923 
L 21.696838 -22.122342 
L 21.753979 -22.075455 
L 21.838588 -22.028568 
L 21.948795 -21.98168 
L 22.082042 -21.934793 
L 22.235179 -21.887906 
L 22.404594 -21.841018 
L 22.58637 -21.794131 
L 22.776474 -21.747244 
L 22.970958 -21.700356 
L 23.166173 -21.653469 
L 23.358969 -21.606582 
L 23.546875 -21.559694 
L 23.728233 -21.512807 
L 23.902279 -21.46592 
L 24.069155 -21.419032 
L 24.229856 -21.372145 
L 24.386122 -21.325258 
L 24.540266 -21.278371 
L 24.694981 -21.231483 
L 24.853127 -21.184596 
L 25.017523 -21.137709 
L 25.19076 -21.090821 
L 25.375049 -21.043934 
L 25.572102 -20.997047 
L 25.783054 -20.950159 
L 26.008412 -20.903272 
L 26.248027 -20.856385 
L 26.501077 -20.809497 
L 26.766051 -20.76261 
L 27.040738 -20.715723 
L 27.322201 -20.668835 
L 27.60677 -20.621948 
L 27.890045 -20.575061 
L 28.16693 -20.528173 
L 28.431708 -20.481286 
L 28.678179 -20.434399 
L 28.899855 -20.387512 
L 29.090217 -20.340624 
L 29.243016 -20.293737 
L 29.352614 -20.24685 
L 29.414317 -20.199962 
L 29.424688 -20.153075 
L 29.381789 -20.106188 
L 29.285343 -20.0593 
L 29.136779 -20.012413 
L 28.939163 -19.965526 
L 28.697002 -19.918638 
L 28.415957 -19.871751 
L 28.102477 -19.824864 
L 27.763392 -19.777976 
L 27.405521 -19.731089 
L 27.035306 -19.684202 
L 26.658529 -19.637314 
L 26.280119 -19.590427 
L 25.904071 -19.54354 
L 25.533455 -19.496652 
L 25.170526 -19.449765 
L 24.816881 -19.402878 
L 24.473657 -19.355991 
L 24.141728 -19.309103 
L 23.821877 -19.262216 
L 23.514922 -19.215329 
L 23.221791 -19.168441 
L 22.943532 -19.121554 
L 22.681278 -19.074667 
L 22.436169 -19.027779 
L 22.209257 -18.980892 
L 22.001402 -18.934005 
L 21.813182 -18.887117 
L 21.644824 -18.84023 
z
" style="stroke: #7c7c7c; stroke-width: 0.15"/>
    </defs>
    <g clip-path="url(#p9b78dd3119)">
     <use xlink:href="#m6b04a1d709" x="0" y="84.96" style="fill: #cfcfcf; stroke: #7c7c7c; stroke-width: 0.15"/>
    </g>
   </g>
   <g id="PolyCollection_2">
    <defs>
     <path id="m18d3e4958a" d="M 43.488719 -16.852576 
L 41.253463 -16.852576 
L 41.006792 -17.069434 
L 40.72411 -17.286292 
L 40.404609 -17.50315 
L 40.04851 -17.720007 
L 39.657219 -17.936865 
L 39.233434 -18.153723 
L 38.781209 -18.370581 
L 38.305943 -18.587439 
L 37.814307 -18.804297 
L 37.314095 -19.021155 
L 36.814002 -19.238012 
L 36.323344 -19.45487 
L 35.851731 -19.671728 
L 35.408707 -19.888586 
L 35.003383 -20.105444 
L 34.644086 -20.322302 
L 34.338042 -20.539159 
L 34.091121 -20.756017 
L 33.907652 -20.972875 
L 33.790321 -21.189733 
L 33.740156 -21.406591 
L 33.756594 -21.623449 
L 33.837616 -21.840306 
L 33.979936 -22.057164 
L 34.179224 -22.274022 
L 34.430336 -22.49088 
L 34.727548 -22.707738 
L 35.064754 -22.924596 
L 35.435641 -23.141454 
L 35.833825 -23.358311 
L 36.252952 -23.575169 
L 36.686772 -23.792027 
L 37.129199 -24.008885 
L 37.574357 -24.225743 
L 38.016634 -24.442601 
L 38.450744 -24.659458 
L 38.871797 -24.876316 
L 39.275382 -25.093174 
L 39.657654 -25.310032 
L 40.015409 -25.52689 
L 40.346153 -25.743748 
L 40.648152 -25.960605 
L 40.920436 -26.177463 
L 41.162793 -26.394321 
L 41.375712 -26.611179 
L 41.560305 -26.828037 
L 41.718207 -27.044895 
L 41.851454 -27.261753 
L 41.962357 -27.47861 
L 42.053385 -27.695468 
L 42.127041 -27.912326 
L 42.18577 -28.129184 
L 42.231876 -28.346042 
L 42.267456 -28.5629 
L 42.294362 -28.779757 
L 42.314174 -28.996615 
L 42.328186 -29.213473 
L 42.337412 -29.430331 
L 42.342587 -29.647189 
L 42.344183 -29.864047 
L 42.342423 -30.080904 
L 42.337298 -30.297762 
L 42.328587 -30.51462 
L 42.315878 -30.731478 
L 42.298592 -30.948336 
L 42.276013 -31.165194 
L 42.247334 -31.382052 
L 42.2117 -31.598909 
L 42.168268 -31.815767 
L 42.116283 -32.032625 
L 42.055153 -32.249483 
L 41.984536 -32.466341 
L 41.904423 -32.683199 
L 41.815218 -32.900056 
L 41.717802 -33.116914 
L 41.61357 -33.333772 
L 41.504447 -33.55063 
L 41.392855 -33.767488 
L 41.281654 -33.984346 
L 41.174029 -34.201203 
L 41.073354 -34.418061 
L 40.983018 -34.634919 
L 40.90624 -34.851777 
L 40.845879 -35.068635 
L 40.804259 -35.285493 
L 40.783018 -35.502351 
L 40.783005 -35.719208 
L 40.804221 -35.936066 
L 40.845818 -36.152924 
L 40.906157 -36.369782 
L 40.982918 -36.58664 
L 41.073239 -36.803498 
L 41.173904 -37.020355 
L 41.281522 -37.237213 
L 41.392722 -37.454071 
L 41.504316 -37.670929 
L 41.613446 -37.887787 
L 41.717689 -38.104645 
L 41.815122 -38.321502 
L 42.92706 -38.321502 
L 42.92706 -38.321502 
L 43.024493 -38.104645 
L 43.128735 -37.887787 
L 43.237866 -37.670929 
L 43.34946 -37.454071 
L 43.460659 -37.237213 
L 43.568278 -37.020355 
L 43.668943 -36.803498 
L 43.759264 -36.58664 
L 43.836024 -36.369782 
L 43.896364 -36.152924 
L 43.937961 -35.936066 
L 43.959177 -35.719208 
L 43.959164 -35.502351 
L 43.937923 -35.285493 
L 43.896303 -35.068635 
L 43.835942 -34.851777 
L 43.759163 -34.634919 
L 43.668827 -34.418061 
L 43.568153 -34.201203 
L 43.460528 -33.984346 
L 43.349327 -33.767488 
L 43.237735 -33.55063 
L 43.128612 -33.333772 
L 43.02438 -33.116914 
L 42.926964 -32.900056 
L 42.837759 -32.683199 
L 42.757646 -32.466341 
L 42.687029 -32.249483 
L 42.625899 -32.032625 
L 42.573914 -31.815767 
L 42.530482 -31.598909 
L 42.494847 -31.382052 
L 42.466169 -31.165194 
L 42.44359 -30.948336 
L 42.426304 -30.731478 
L 42.413594 -30.51462 
L 42.404884 -30.297762 
L 42.399759 -30.080904 
L 42.397999 -29.864047 
L 42.399595 -29.647189 
L 42.40477 -29.430331 
L 42.413996 -29.213473 
L 42.428008 -28.996615 
L 42.44782 -28.779757 
L 42.474726 -28.5629 
L 42.510306 -28.346042 
L 42.556412 -28.129184 
L 42.615141 -27.912326 
L 42.688797 -27.695468 
L 42.779824 -27.47861 
L 42.890728 -27.261753 
L 43.023974 -27.044895 
L 43.181876 -26.828037 
L 43.36647 -26.611179 
L 43.579389 -26.394321 
L 43.821746 -26.177463 
L 44.09403 -25.960605 
L 44.396028 -25.743748 
L 44.726773 -25.52689 
L 45.084528 -25.310032 
L 45.466799 -25.093174 
L 45.870385 -24.876316 
L 46.291438 -24.659458 
L 46.725548 -24.442601 
L 47.167825 -24.225743 
L 47.612982 -24.008885 
L 48.055409 -23.792027 
L 48.48923 -23.575169 
L 48.908357 -23.358311 
L 49.306541 -23.141454 
L 49.677428 -22.924596 
L 50.014633 -22.707738 
L 50.311845 -22.49088 
L 50.562958 -22.274022 
L 50.762246 -22.057164 
L 50.904566 -21.840306 
L 50.985588 -21.623449 
L 51.002026 -21.406591 
L 50.951861 -21.189733 
L 50.83453 -20.972875 
L 50.651061 -20.756017 
L 50.40414 -20.539159 
L 50.098096 -20.322302 
L 49.738799 -20.105444 
L 49.333475 -19.888586 
L 48.890451 -19.671728 
L 48.418838 -19.45487 
L 47.92818 -19.238012 
L 47.428087 -19.021155 
L 46.927875 -18.804297 
L 46.436239 -18.587439 
L 45.960973 -18.370581 
L 45.508748 -18.153723 
L 45.084963 -17.936865 
L 44.693672 -17.720007 
L 44.337573 -17.50315 
L 44.018072 -17.286292 
L 43.73539 -17.069434 
L 43.488719 -16.852576 
z
" style="stroke: #7c7c7c; stroke-width: 0.15"/>
    </defs>
    <g clip-path="url(#p9b78dd3119)">
     <use xlink:href="#m18d3e4958a" x="0" y="84.96" style="fill: #f3f3ae; stroke: #7c7c7c; stroke-width: 0.15"/>
    </g>
   </g>
   <g id="line2d_9">
    <path d="M 20.793753 65.543607 
L 20.793753 63.494421 
" clip-path="url(#p9b78dd3119)" style="fill: none; stroke: #8c8c8c; stroke-width: 0.75; stroke-linecap: round"/>
   </g>
   <g id="line2d_10">
    <path d="M 20.793753 64.951797 
L 20.793753 63.935915 
" clip-path="url(#p9b78dd3119)" style="fill: none; stroke: #8c8c8c; stroke-width: 4; stroke-linecap: round"/>
   </g>
   <g id="line2d_11">
    <path d="M 20.793753 64.597804 
" clip-path="url(#p9b78dd3119)" style="fill: none; stroke: #7c7c7c; stroke-width: 1.2; stroke-linecap: round"/>
    <defs>
     <path id="ma69ab82b3e" d="M 0 0.833333 
C 0.221003 0.833333 0.432983 0.745528 0.589256 0.589256 
C 0.745528 0.432983 0.833333 0.221003 0.833333 0 
C 0.833333 -0.221003 0.745528 -0.432983 0.589256 -0.589256 
C 0.432983 -0.745528 0.221003 -0.833333 0 -0.833333 
C -0.221003 -0.833333 -0.432983 -0.745528 -0.589256 -0.589256 
C -0.745528 -0.432983 -0.833333 -0.221003 -0.833333 0 
C -0.833333 0.221003 -0.745528 0.432983 -0.589256 0.589256 
C -0.432983 0.745528 -0.221003 0.833333 0 0.833333 
z
" style="stroke: #ffffff; stroke-width: 0.8"/>
    </defs>
    <g clip-path="url(#p9b78dd3119)">
     <use xlink:href="#ma69ab82b3e" x="20.793753" y="64.597804" style="fill: #ffffff; stroke: #ffffff; stroke-width: 0.8"/>
    </g>
   </g>
   <g id="line2d_12">
    <path d="M 42.371091 65.396831 
L 42.371091 61.130158 
" clip-path="url(#p9b78dd3119)" style="fill: none; stroke: #8c8c8c; stroke-width: 0.75; stroke-linecap: round"/>
   </g>
   <g id="line2d_13">
    <path d="M 42.371091 63.896223 
L 42.371091 61.463648 
" clip-path="url(#p9b78dd3119)" style="fill: none; stroke: #8c8c8c; stroke-width: 4; stroke-linecap: round"/>
   </g>
   <g id="line2d_14">
    <path d="M 42.371091 63.472556 
" clip-path="url(#p9b78dd3119)" style="fill: none; stroke: #7c7c7c; stroke-width: 1.2; stroke-linecap: round"/>
    <g clip-path="url(#p9b78dd3119)">
     <use xlink:href="#ma69ab82b3e" x="42.371091" y="63.472556" style="fill: #ffffff; stroke: #ffffff; stroke-width: 0.8"/>
    </g>
   </g>
   <g id="patch_3">
    <path d="M 10.005084 74.419526 
L 10.005084 4.076256 
" style="fill: none; stroke: #777777; stroke-width: 0.5; stroke-linejoin: miter; stroke-linecap: square"/>
   </g>
   <g id="patch_4">
    <path d="M 10.005084 76.919526 
L 53.15976 76.919526 
" style="fill: none; stroke: #777777; stroke-width: 0.5; stroke-linejoin: miter; stroke-linecap: square"/>
   </g>
  </g>
 </g>
 <defs>
  <clipPath id="p9b78dd3119">
   <rect x="10.005084" y="4.076256" width="43.154676" height="70.34327"/>
  </clipPath>
 </defs>
</svg>
