<?xml version="1.0" encoding="utf-8" standalone="no"?>
<!DOCTYPE svg PUBLIC "-//W3C//DTD SVG 1.1//EN"
  "http://www.w3.org/Graphics/SVG/1.1/DTD/svg11.dtd">
<svg xmlns:xlink="http://www.w3.org/1999/xlink" width="84.96pt" height="84.96pt" viewBox="0 0 84.96 84.96" xmlns="http://www.w3.org/2000/svg" version="1.1">
 <metadata>
  <rdf:RDF xmlns:dc="http://purl.org/dc/elements/1.1/" xmlns:cc="http://creativecommons.org/ns#" xmlns:rdf="http://www.w3.org/1999/02/22-rdf-syntax-ns#">
   <cc:Work>
    <dc:type rdf:resource="http://purl.org/dc/dcmitype/StillImage"/>
    <dc:date>2024-05-27T15:37:15.168984</dc:date>
    <dc:format>image/svg+xml</dc:format>
    <dc:creator>
     <cc:Agent>
      <dc:title>Matplotlib v3.8.3, https://matplotlib.org/</dc:title>
     </cc:Agent>
    </dc:creator>
   </cc:Work>
  </rdf:RDF>
 </metadata>
 <defs>
  <style type="text/css">*{stroke-linejoin: round; stroke-linecap: butt}</style>
 </defs>
 <g id="figure_1">
  <g id="patch_1">
   <path d="M 0 84.96 
L 84.96 84.96 
L 84.96 0 
L 0 0 
z
" style="fill: #ffffff"/>
  </g>
  <g id="axes_1">
   <g id="patch_2">
    <path d="M 8.336802 74.419526 
L 81.95976 74.419526 
L 81.95976 4.076256 
L 8.336802 4.076256 
z
" style="fill: #ffffff"/>
   </g>
   <g id="matplotlib.axis_1">
    <g id="xtick_1">
     <g id="text_1">
      <!-- ILC3 -->
      <g style="fill: #333333" transform="translate(16.910967 81.230229) scale(0.035 -0.035)">
       <defs>
        <path id="Helvetica-49" d="M 628 4591 
L 1256 4591 
L 1256 0 
L 628 0 
L 628 4591 
z
" transform="scale(0.015625)"/>
        <path id="Helvetica-4c" d="M 488 4591 
L 1109 4591 
L 1109 547 
L 3434 547 
L 3434 0 
L 488 0 
L 488 4591 
z
" transform="scale(0.015625)"/>
        <path id="Helvetica-43" d="M 2422 4716 
Q 3294 4716 3775 4256 
Q 4256 3797 4309 3213 
L 3703 3213 
Q 3600 3656 3292 3915 
Q 2984 4175 2428 4175 
Q 1750 4175 1333 3698 
Q 916 3222 916 2238 
Q 916 1431 1292 929 
Q 1669 428 2416 428 
Q 3103 428 3463 956 
Q 3653 1234 3747 1688 
L 4353 1688 
Q 4272 963 3816 472 
Q 3269 -119 2341 -119 
Q 1541 -119 997 366 
Q 281 1006 281 2344 
Q 281 3359 819 4009 
Q 1400 4716 2422 4716 
z
M 2297 4716 
L 2297 4716 
z
" transform="scale(0.015625)"/>
        <path id="Helvetica-33" d="M 1663 -122 
Q 869 -122 511 314 
Q 153 750 153 1375 
L 741 1375 
Q 778 941 903 744 
Q 1122 391 1694 391 
Q 2138 391 2406 628 
Q 2675 866 2675 1241 
Q 2675 1703 2392 1887 
Q 2109 2072 1606 2072 
Q 1550 2072 1492 2070 
Q 1434 2069 1375 2066 
L 1375 2563 
Q 1463 2553 1522 2550 
Q 1581 2547 1650 2547 
Q 1966 2547 2169 2647 
Q 2525 2822 2525 3272 
Q 2525 3606 2287 3787 
Q 2050 3969 1734 3969 
Q 1172 3969 956 3594 
Q 838 3388 822 3006 
L 266 3006 
Q 266 3506 466 3856 
Q 809 4481 1675 4481 
Q 2359 4481 2734 4176 
Q 3109 3872 3109 3294 
Q 3109 2881 2888 2625 
Q 2750 2466 2531 2375 
Q 2884 2278 3082 2001 
Q 3281 1725 3281 1325 
Q 3281 684 2859 281 
Q 2438 -122 1663 -122 
z
" transform="scale(0.015625)"/>
       </defs>
       <use xlink:href="#Helvetica-49"/>
       <use xlink:href="#Helvetica-4c" x="27.783203"/>
       <use xlink:href="#Helvetica-43" x="83.398438"/>
       <use xlink:href="#Helvetica-33" x="155.615234"/>
      </g>
     </g>
    </g>
    <g id="xtick_2">
     <g id="text_2">
      <!-- TH17 -->
      <g style="fill: #333333" transform="translate(40.869258 81.230229) scale(0.035 -0.035)">
       <defs>
        <path id="Helvetica-54" d="M 3828 4591 
L 3828 4044 
L 2281 4044 
L 2281 0 
L 1650 0 
L 1650 4044 
L 103 4044 
L 103 4591 
L 3828 4591 
z
" transform="scale(0.015625)"/>
        <path id="Helvetica-48" d="M 503 4591 
L 1131 4591 
L 1131 2694 
L 3519 2694 
L 3519 4591 
L 4147 4591 
L 4147 0 
L 3519 0 
L 3519 2147 
L 1131 2147 
L 1131 0 
L 503 0 
L 503 4591 
z
" transform="scale(0.015625)"/>
        <path id="Helvetica-31" d="M 613 3169 
L 613 3600 
Q 1222 3659 1462 3798 
Q 1703 3938 1822 4456 
L 2266 4456 
L 2266 0 
L 1666 0 
L 1666 3169 
L 613 3169 
z
" transform="scale(0.015625)"/>
        <path id="Helvetica-37" d="M 3347 4400 
L 3347 3909 
Q 3131 3700 2773 3181 
Q 2416 2663 2141 2063 
Q 1869 1478 1728 997 
Q 1638 688 1494 0 
L 872 0 
Q 1084 1281 1809 2550 
Q 2238 3294 2709 3834 
L 234 3834 
L 234 4400 
L 3347 4400 
z
" transform="scale(0.015625)"/>
       </defs>
       <use xlink:href="#Helvetica-54"/>
       <use xlink:href="#Helvetica-48" x="61.083984"/>
       <use xlink:href="#Helvetica-31" x="133.300781"/>
       <use xlink:href="#Helvetica-37" x="188.916016"/>
      </g>
     </g>
    </g>
    <g id="xtick_3">
     <g id="text_3">
      <!-- icCD3+ ILC3 -->
      <g style="fill: #333333" transform="translate(59.720009 81.230229) scale(0.035 -0.035)">
       <defs>
        <path id="Helvetica-69" d="M 413 3331 
L 984 3331 
L 984 0 
L 413 0 
L 413 3331 
z
M 413 4591 
L 984 4591 
L 984 3953 
L 413 3953 
L 413 4591 
z
" transform="scale(0.015625)"/>
        <path id="Helvetica-63" d="M 1703 3444 
Q 2269 3444 2623 3169 
Q 2978 2894 3050 2222 
L 2503 2222 
Q 2453 2531 2275 2736 
Q 2097 2941 1703 2941 
Q 1166 2941 934 2416 
Q 784 2075 784 1575 
Q 784 1072 996 728 
Q 1209 384 1666 384 
Q 2016 384 2220 598 
Q 2425 813 2503 1184 
L 3050 1184 
Q 2956 519 2581 211 
Q 2206 -97 1622 -97 
Q 966 -97 575 383 
Q 184 863 184 1581 
Q 184 2463 612 2953 
Q 1041 3444 1703 3444 
z
M 1616 3428 
L 1616 3428 
z
" transform="scale(0.015625)"/>
        <path id="Helvetica-44" d="M 2250 531 
Q 2566 531 2769 597 
Q 3131 719 3363 1066 
Q 3547 1344 3628 1778 
Q 3675 2038 3675 2259 
Q 3675 3113 3336 3584 
Q 2997 4056 2244 4056 
L 1141 4056 
L 1141 531 
L 2250 531 
z
M 516 4591 
L 2375 4591 
Q 3322 4591 3844 3919 
Q 4309 3313 4309 2366 
Q 4309 1634 4034 1044 
Q 3550 0 2369 0 
L 516 0 
L 516 4591 
z
" transform="scale(0.015625)"/>
        <path id="Helvetica-2b" d="M 288 1369 
L 288 1894 
L 1650 1894 
L 1650 3266 
L 2184 3266 
L 2184 1894 
L 3547 1894 
L 3547 1369 
L 2184 1369 
L 2184 0 
L 1650 0 
L 1650 1369 
L 288 1369 
z
" transform="scale(0.015625)"/>
        <path id="Helvetica-20" transform="scale(0.015625)"/>
       </defs>
       <use xlink:href="#Helvetica-69"/>
       <use xlink:href="#Helvetica-63" x="22.216797"/>
       <use xlink:href="#Helvetica-43" x="72.216797"/>
       <use xlink:href="#Helvetica-44" x="144.433594"/>
       <use xlink:href="#Helvetica-33" x="216.650391"/>
       <use xlink:href="#Helvetica-2b" x="272.265625"/>
       <use xlink:href="#Helvetica-20" x="330.664062"/>
       <use xlink:href="#Helvetica-49" x="358.447266"/>
       <use xlink:href="#Helvetica-4c" x="386.230469"/>
       <use xlink:href="#Helvetica-43" x="441.845703"/>
       <use xlink:href="#Helvetica-33" x="514.0625"/>
      </g>
     </g>
    </g>
   </g>
   <g id="matplotlib.axis_2">
    <g id="ytick_1">
     <g id="line2d_1">
      <defs>
       <path id="mc70eb8d0d2" d="M 0 0 
L -1 0 
" style="stroke: #777777; stroke-width: 0.5"/>
      </defs>
      <g>
       <use xlink:href="#mc70eb8d0d2" x="8.336802" y="66.995102" style="fill: #777777; stroke: #777777; stroke-width: 0.5"/>
      </g>
     </g>
     <g id="text_4">
      <!-- 0 -->
      <g style="fill: #333333" transform="translate(4.668521 68.071117) scale(0.03 -0.03)">
       <defs>
        <path id="Helvetica-30" d="M 1731 4475 
Q 2600 4475 2988 3759 
Q 3288 3206 3288 2244 
Q 3288 1331 3016 734 
Q 2622 -122 1728 -122 
Q 922 -122 528 578 
Q 200 1163 200 2147 
Q 200 2909 397 3456 
Q 766 4475 1731 4475 
z
M 1725 391 
Q 2163 391 2422 778 
Q 2681 1166 2681 2222 
Q 2681 2984 2493 3476 
Q 2306 3969 1766 3969 
Q 1269 3969 1039 3501 
Q 809 3034 809 2125 
Q 809 1441 956 1025 
Q 1181 391 1725 391 
z
" transform="scale(0.015625)"/>
       </defs>
       <use xlink:href="#Helvetica-30"/>
      </g>
     </g>
    </g>
    <g id="ytick_2">
     <g id="line2d_2">
      <g>
       <use xlink:href="#mc70eb8d0d2" x="8.336802" y="54.411333" style="fill: #777777; stroke: #777777; stroke-width: 0.5"/>
      </g>
     </g>
     <g id="text_5">
      <!-- 10 -->
      <g style="fill: #333333" transform="translate(3.00024 55.487348) scale(0.03 -0.03)">
       <use xlink:href="#Helvetica-31"/>
       <use xlink:href="#Helvetica-30" x="55.615234"/>
      </g>
     </g>
    </g>
    <g id="ytick_3">
     <g id="line2d_3">
      <g>
       <use xlink:href="#mc70eb8d0d2" x="8.336802" y="41.827563" style="fill: #777777; stroke: #777777; stroke-width: 0.5"/>
      </g>
     </g>
     <g id="text_6">
      <!-- 20 -->
      <g style="fill: #333333" transform="translate(3.00024 42.903579) scale(0.03 -0.03)">
       <defs>
        <path id="Helvetica-32" d="M 200 0 
Q 231 578 439 1006 
Q 647 1434 1250 1784 
L 1850 2131 
Q 2253 2366 2416 2531 
Q 2672 2791 2672 3125 
Q 2672 3516 2437 3745 
Q 2203 3975 1813 3975 
Q 1234 3975 1013 3538 
Q 894 3303 881 2888 
L 309 2888 
Q 319 3472 525 3841 
Q 891 4491 1816 4491 
Q 2584 4491 2939 4075 
Q 3294 3659 3294 3150 
Q 3294 2613 2916 2231 
Q 2697 2009 2131 1694 
L 1703 1456 
Q 1397 1288 1222 1134 
Q 909 863 828 531 
L 3272 531 
L 3272 0 
L 200 0 
z
" transform="scale(0.015625)"/>
       </defs>
       <use xlink:href="#Helvetica-32"/>
       <use xlink:href="#Helvetica-30" x="55.615234"/>
      </g>
     </g>
    </g>
    <g id="ytick_4">
     <g id="line2d_4">
      <g>
       <use xlink:href="#mc70eb8d0d2" x="8.336802" y="29.243794" style="fill: #777777; stroke: #777777; stroke-width: 0.5"/>
      </g>
     </g>
     <g id="text_7">
      <!-- 30 -->
      <g style="fill: #333333" transform="translate(3.00024 30.31981) scale(0.03 -0.03)">
       <use xlink:href="#Helvetica-33"/>
       <use xlink:href="#Helvetica-30" x="55.615234"/>
      </g>
     </g>
    </g>
    <g id="ytick_5">
     <g id="line2d_5">
      <g>
       <use xlink:href="#mc70eb8d0d2" x="8.336802" y="16.660025" style="fill: #777777; stroke: #777777; stroke-width: 0.5"/>
      </g>
     </g>
     <g id="text_8">
      <!-- 40 -->
      <g style="fill: #333333" transform="translate(3.00024 17.73604) scale(0.03 -0.03)">
       <defs>
        <path id="Helvetica-34" d="M 2116 1584 
L 2116 3613 
L 681 1584 
L 2116 1584 
z
M 2125 0 
L 2125 1094 
L 163 1094 
L 163 1644 
L 2213 4488 
L 2688 4488 
L 2688 1584 
L 3347 1584 
L 3347 1094 
L 2688 1094 
L 2688 0 
L 2125 0 
z
" transform="scale(0.015625)"/>
       </defs>
       <use xlink:href="#Helvetica-34"/>
       <use xlink:href="#Helvetica-30" x="55.615234"/>
      </g>
     </g>
    </g>
    <g id="ytick_6">
     <g id="line2d_6">
      <g>
       <use xlink:href="#mc70eb8d0d2" x="8.336802" y="4.076256" style="fill: #777777; stroke: #777777; stroke-width: 0.5"/>
      </g>
     </g>
     <g id="text_9">
      <!-- 50 -->
      <g style="fill: #333333" transform="translate(3.00024 5.152271) scale(0.03 -0.03)">
       <defs>
        <path id="Helvetica-35" d="M 791 1141 
Q 847 659 1238 475 
Q 1438 381 1700 381 
Q 2200 381 2440 700 
Q 2681 1019 2681 1406 
Q 2681 1875 2395 2131 
Q 2109 2388 1709 2388 
Q 1419 2388 1211 2275 
Q 1003 2163 856 1963 
L 369 1991 
L 709 4400 
L 3034 4400 
L 3034 3856 
L 1131 3856 
L 941 2613 
Q 1097 2731 1238 2791 
Q 1488 2894 1816 2894 
Q 2431 2894 2859 2497 
Q 3288 2100 3288 1491 
Q 3288 856 2895 371 
Q 2503 -113 1644 -113 
Q 1097 -113 676 195 
Q 256 503 206 1141 
L 791 1141 
z
" transform="scale(0.015625)"/>
       </defs>
       <use xlink:href="#Helvetica-35"/>
       <use xlink:href="#Helvetica-30" x="55.615234"/>
      </g>
     </g>
    </g>
   </g>
   <g id="PolyCollection_1">
    <defs>
     <path id="m442e0f7fd7" d="M 22.049997 -17.875269 
L 19.164594 -17.875269 
L 18.857739 -17.908448 
L 18.511138 -17.941627 
L 18.125746 -17.974807 
L 17.703984 -18.007986 
L 17.249793 -18.041165 
L 16.768594 -18.074344 
L 16.267126 -18.107523 
L 15.753191 -18.140702 
L 15.235288 -18.173882 
L 14.722187 -18.207061 
L 14.22246 -18.24024 
L 13.74402 -18.273419 
L 13.293712 -18.306598 
L 12.876995 -18.339778 
L 12.497754 -18.372957 
L 12.158263 -18.406136 
L 11.859298 -18.439315 
L 11.600391 -18.472494 
L 11.380197 -18.505673 
L 11.196924 -18.538853 
L 11.048774 -18.572032 
L 10.934344 -18.605211 
L 10.85294 -18.63839 
L 10.804753 -18.671569 
L 10.790901 -18.704749 
L 10.813315 -18.737928 
L 10.874492 -18.771107 
L 10.977159 -18.804286 
L 11.123872 -18.837465 
L 11.316619 -18.870644 
L 11.556456 -18.903824 
L 11.843227 -18.937003 
L 12.175388 -18.970182 
L 12.549946 -19.003361 
L 12.962524 -19.03654 
L 13.407517 -19.06972 
L 13.878345 -19.102899 
L 14.367741 -19.136078 
L 14.868084 -19.169257 
L 15.37171 -19.202436 
L 15.871218 -19.235615 
L 16.359718 -19.268795 
L 16.831047 -19.301974 
L 17.27991 -19.335153 
L 17.701989 -19.368332 
L 18.093978 -19.401511 
L 18.453591 -19.43469 
L 18.779521 -19.46787 
L 19.071366 -19.501049 
L 19.329537 -19.534228 
L 19.555138 -19.567407 
L 19.749841 -19.600586 
L 19.915748 -19.633766 
L 20.055257 -19.666945 
L 20.170931 -19.700124 
L 20.265372 -19.733303 
L 20.341115 -19.766482 
L 20.400525 -19.799661 
L 20.445726 -19.832841 
L 20.478534 -19.86602 
L 20.500413 -19.899199 
L 20.51245 -19.932378 
L 20.515346 -19.965557 
L 20.509421 -19.998737 
L 20.494639 -20.031916 
L 20.47065 -20.065095 
L 20.436848 -20.098274 
L 20.392449 -20.131453 
L 20.336585 -20.164632 
L 20.268416 -20.197812 
L 20.187252 -20.230991 
L 20.092684 -20.26417 
L 19.984716 -20.297349 
L 19.863886 -20.330528 
L 19.731367 -20.363708 
L 19.589034 -20.396887 
L 19.43949 -20.430066 
L 19.286041 -20.463245 
L 19.13261 -20.496424 
L 18.9836 -20.529603 
L 18.843694 -20.562783 
L 18.717627 -20.595962 
L 18.609922 -20.629141 
L 18.52462 -20.66232 
L 18.465037 -20.695499 
L 18.433541 -20.728679 
L 18.431405 -20.761858 
L 18.458714 -20.795037 
L 18.514366 -20.828216 
L 18.596141 -20.861395 
L 18.70085 -20.894574 
L 18.824541 -20.927754 
L 18.962748 -20.960933 
L 19.110751 -20.994112 
L 19.263848 -21.027291 
L 19.417588 -21.06047 
L 19.56798 -21.09365 
L 19.711637 -21.126829 
L 19.845872 -21.160008 
L 21.368718 -21.160008 
L 21.368718 -21.160008 
L 21.502954 -21.126829 
L 21.646611 -21.09365 
L 21.797002 -21.06047 
L 21.950743 -21.027291 
L 22.10384 -20.994112 
L 22.251843 -20.960933 
L 22.39005 -20.927754 
L 22.513741 -20.894574 
L 22.61845 -20.861395 
L 22.700225 -20.828216 
L 22.755877 -20.795037 
L 22.783186 -20.761858 
L 22.78105 -20.728679 
L 22.749554 -20.695499 
L 22.68997 -20.66232 
L 22.604669 -20.629141 
L 22.496964 -20.595962 
L 22.370897 -20.562783 
L 22.230991 -20.529603 
L 22.081981 -20.496424 
L 21.92855 -20.463245 
L 21.775101 -20.430066 
L 21.625557 -20.396887 
L 21.483224 -20.363708 
L 21.350704 -20.330528 
L 21.229875 -20.297349 
L 21.121907 -20.26417 
L 21.027339 -20.230991 
L 20.946175 -20.197812 
L 20.878006 -20.164632 
L 20.822142 -20.131453 
L 20.777743 -20.098274 
L 20.743941 -20.065095 
L 20.719952 -20.031916 
L 20.70517 -19.998737 
L 20.699245 -19.965557 
L 20.702141 -19.932378 
L 20.714178 -19.899199 
L 20.736057 -19.86602 
L 20.768864 -19.832841 
L 20.814066 -19.799661 
L 20.873476 -19.766482 
L 20.949219 -19.733303 
L 21.04366 -19.700124 
L 21.159334 -19.666945 
L 21.298843 -19.633766 
L 21.46475 -19.600586 
L 21.659453 -19.567407 
L 21.885054 -19.534228 
L 22.143225 -19.501049 
L 22.43507 -19.46787 
L 22.760999 -19.43469 
L 23.120613 -19.401511 
L 23.512602 -19.368332 
L 23.93468 -19.335153 
L 24.383544 -19.301974 
L 24.854873 -19.268795 
L 25.343373 -19.235615 
L 25.842881 -19.202436 
L 26.346507 -19.169257 
L 26.846849 -19.136078 
L 27.336246 -19.102899 
L 27.807073 -19.06972 
L 28.252067 -19.03654 
L 28.664645 -19.003361 
L 29.039203 -18.970182 
L 29.371364 -18.937003 
L 29.658135 -18.903824 
L 29.897972 -18.870644 
L 30.090719 -18.837465 
L 30.237432 -18.804286 
L 30.340099 -18.771107 
L 30.401276 -18.737928 
L 30.42369 -18.704749 
L 30.409838 -18.671569 
L 30.361651 -18.63839 
L 30.280246 -18.605211 
L 30.165817 -18.572032 
L 30.017667 -18.538853 
L 29.834394 -18.505673 
L 29.6142 -18.472494 
L 29.355293 -18.439315 
L 29.056328 -18.406136 
L 28.716837 -18.372957 
L 28.337596 -18.339778 
L 27.920879 -18.306598 
L 27.470571 -18.273419 
L 26.992131 -18.24024 
L 26.492404 -18.207061 
L 25.979303 -18.173882 
L 25.4614 -18.140702 
L 24.947465 -18.107523 
L 24.445997 -18.074344 
L 23.964797 -18.041165 
L 23.510607 -18.007986 
L 23.088845 -17.974807 
L 22.703453 -17.941627 
L 22.356852 -17.908448 
L 22.049997 -17.875269 
z
" style="stroke: #7c7c7c; stroke-width: 0.15"/>
    </defs>
    <g clip-path="url(#paef029b3be)">
     <use xlink:href="#m442e0f7fd7" x="0" y="84.96" style="fill: #cfcfcf; stroke: #7c7c7c; stroke-width: 0.15"/>
    </g>
   </g>
   <g id="PolyCollection_2">
    <defs>
     <path id="m65f6c707da" d="M 46.427368 -17.89021 
L 43.869195 -17.89021 
L 43.646343 -17.902905 
L 43.406033 -17.915599 
L 43.151453 -17.928293 
L 42.886622 -17.940987 
L 42.616237 -17.953682 
L 42.345441 -17.966376 
L 42.079538 -17.97907 
L 41.82365 -17.991765 
L 41.582367 -18.004459 
L 41.359409 -18.017153 
L 41.15732 -18.029847 
L 40.977251 -18.042542 
L 40.818839 -18.055236 
L 40.6802 -18.06793 
L 40.558053 -18.080625 
L 40.447963 -18.093319 
L 40.344678 -18.106013 
L 40.242549 -18.118707 
L 40.135975 -18.131402 
L 40.019851 -18.144096 
L 39.889963 -18.15679 
L 39.743299 -18.169484 
L 39.578259 -18.182179 
L 39.394723 -18.194873 
L 39.194002 -18.207567 
L 38.978653 -18.220262 
L 38.752206 -18.232956 
L 38.518811 -18.24565 
L 38.282858 -18.258344 
L 38.04859 -18.271039 
L 37.819769 -18.283733 
L 37.599401 -18.296427 
L 37.389566 -18.309122 
L 37.191347 -18.321816 
L 37.004878 -18.33451 
L 36.829484 -18.347204 
L 36.663917 -18.359899 
L 36.506642 -18.372593 
L 36.356152 -18.385287 
L 36.211276 -18.397981 
L 36.071444 -18.410676 
L 35.936886 -18.42337 
L 35.808739 -18.436064 
L 35.689045 -18.448759 
L 35.580647 -18.461453 
L 35.486991 -18.474147 
L 35.411851 -18.486841 
L 35.359002 -18.499536 
L 35.331887 -18.51223 
L 35.333294 -18.524924 
L 35.36509 -18.537619 
L 35.428029 -18.550313 
L 35.521649 -18.563007 
L 35.644263 -18.575701 
L 35.793045 -18.588396 
L 35.96419 -18.60109 
L 36.153129 -18.613784 
L 36.354777 -18.626479 
L 36.563788 -18.639173 
L 36.774804 -18.651867 
L 36.982673 -18.664561 
L 37.182634 -18.677256 
L 37.370468 -18.68995 
L 37.542612 -18.702644 
L 37.696239 -18.715338 
L 37.829327 -18.728033 
L 37.940696 -18.740727 
L 38.030036 -18.753421 
L 38.097925 -18.766116 
L 38.145818 -18.77881 
L 38.176028 -18.791504 
L 38.191676 -18.804198 
L 38.19661 -18.816893 
L 38.1953 -18.829587 
L 38.192701 -18.842281 
L 38.194085 -18.854976 
L 38.204857 -18.86767 
L 38.230354 -18.880364 
L 38.275636 -18.893058 
L 38.345279 -18.905753 
L 38.443182 -18.918447 
L 38.572391 -18.931141 
L 38.734951 -18.943836 
L 38.931797 -18.95653 
L 39.162682 -18.969224 
L 39.426164 -18.981918 
L 39.719638 -18.994613 
L 40.039423 -19.007307 
L 40.380908 -19.020001 
L 40.738738 -19.032695 
L 41.107042 -19.04539 
L 41.479688 -19.058084 
L 41.850541 -19.070778 
L 42.213727 -19.083473 
L 42.563861 -19.096167 
L 42.896249 -19.108861 
L 43.207037 -19.121555 
L 43.493306 -19.13425 
L 43.753109 -19.146944 
L 46.543454 -19.146944 
L 46.543454 -19.146944 
L 46.803257 -19.13425 
L 47.089526 -19.121555 
L 47.400314 -19.108861 
L 47.732702 -19.096167 
L 48.082836 -19.083473 
L 48.446021 -19.070778 
L 48.816875 -19.058084 
L 49.18952 -19.04539 
L 49.557825 -19.032695 
L 49.915654 -19.020001 
L 50.257139 -19.007307 
L 50.576925 -18.994613 
L 50.870398 -18.981918 
L 51.133881 -18.969224 
L 51.364766 -18.95653 
L 51.561611 -18.943836 
L 51.724171 -18.931141 
L 51.85338 -18.918447 
L 51.951283 -18.905753 
L 52.020926 -18.893058 
L 52.066208 -18.880364 
L 52.091705 -18.86767 
L 52.102478 -18.854976 
L 52.103862 -18.842281 
L 52.101263 -18.829587 
L 52.099953 -18.816893 
L 52.104887 -18.804198 
L 52.120534 -18.791504 
L 52.150745 -18.77881 
L 52.198638 -18.766116 
L 52.266526 -18.753421 
L 52.355867 -18.740727 
L 52.467235 -18.728033 
L 52.600323 -18.715338 
L 52.753951 -18.702644 
L 52.926094 -18.68995 
L 53.113929 -18.677256 
L 53.31389 -18.664561 
L 53.521759 -18.651867 
L 53.732775 -18.639173 
L 53.941786 -18.626479 
L 54.143433 -18.613784 
L 54.332372 -18.60109 
L 54.503518 -18.588396 
L 54.6523 -18.575701 
L 54.774913 -18.563007 
L 54.868533 -18.550313 
L 54.931472 -18.537619 
L 54.963269 -18.524924 
L 54.964676 -18.51223 
L 54.93756 -18.499536 
L 54.884712 -18.486841 
L 54.809571 -18.474147 
L 54.715916 -18.461453 
L 54.607518 -18.448759 
L 54.487823 -18.436064 
L 54.359676 -18.42337 
L 54.225119 -18.410676 
L 54.085287 -18.397981 
L 53.94041 -18.385287 
L 53.78992 -18.372593 
L 53.632646 -18.359899 
L 53.467079 -18.347204 
L 53.291685 -18.33451 
L 53.105215 -18.321816 
L 52.906997 -18.309122 
L 52.697161 -18.296427 
L 52.476794 -18.283733 
L 52.247972 -18.271039 
L 52.013705 -18.258344 
L 51.777751 -18.24565 
L 51.544357 -18.232956 
L 51.31791 -18.220262 
L 51.102561 -18.207567 
L 50.901839 -18.194873 
L 50.718304 -18.182179 
L 50.553264 -18.169484 
L 50.4066 -18.15679 
L 50.276711 -18.144096 
L 50.160587 -18.131402 
L 50.054014 -18.118707 
L 49.951885 -18.106013 
L 49.8486 -18.093319 
L 49.738509 -18.080625 
L 49.616363 -18.06793 
L 49.477724 -18.055236 
L 49.319312 -18.042542 
L 49.139243 -18.029847 
L 48.937154 -18.017153 
L 48.714195 -18.004459 
L 48.472913 -17.991765 
L 48.217024 -17.97907 
L 47.951121 -17.966376 
L 47.680326 -17.953682 
L 47.409941 -17.940987 
L 47.14511 -17.928293 
L 46.89053 -17.915599 
L 46.65022 -17.902905 
L 46.427368 -17.89021 
z
" style="stroke: #7c7c7c; stroke-width: 0.15"/>
    </defs>
    <g clip-path="url(#paef029b3be)">
     <use xlink:href="#m65f6c707da" x="0" y="84.96" style="fill: #f3f3ae; stroke: #7c7c7c; stroke-width: 0.15"/>
    </g>
   </g>
   <g id="PolyCollection_3">
    <defs>
     <path id="mde9bc6daed" d="M 72.315295 -17.939973 
L 67.063239 -17.939973 
L 66.655028 -17.942086 
L 66.213519 -17.9442 
L 65.74191 -17.946313 
L 65.244623 -17.948426 
L 64.727292 -17.95054 
L 64.196691 -17.952653 
L 63.660611 -17.954767 
L 63.127665 -17.95688 
L 62.607047 -17.958993 
L 62.108235 -17.961107 
L 61.640669 -17.96322 
L 61.213403 -17.965334 
L 60.834756 -17.967447 
L 60.511987 -17.96956 
L 60.250997 -17.971674 
L 60.056094 -17.973787 
L 59.929823 -17.975901 
L 59.872873 -17.978014 
L 59.884069 -17.980127 
L 59.960454 -17.982241 
L 60.09744 -17.984354 
L 60.28904 -17.986468 
L 60.528144 -17.988581 
L 60.80684 -17.990694 
L 61.116747 -17.992808 
L 61.449353 -17.994921 
L 61.796328 -17.997035 
L 62.14981 -17.999148 
L 62.50263 -18.001261 
L 62.848501 -18.003375 
L 63.18213 -18.005488 
L 63.49929 -18.007602 
L 63.79682 -18.009715 
L 64.072596 -18.011828 
L 64.325457 -18.013942 
L 64.555103 -18.016055 
L 64.761983 -18.018169 
L 64.947172 -18.020282 
L 65.112247 -18.022395 
L 65.259174 -18.024509 
L 65.390198 -18.026622 
L 65.507746 -18.028736 
L 65.614339 -18.030849 
L 65.712514 -18.032962 
L 65.804746 -18.035076 
L 65.893379 -18.037189 
L 65.980558 -18.039303 
L 66.068155 -18.041416 
L 66.157711 -18.043529 
L 66.250367 -18.045643 
L 66.346808 -18.047756 
L 66.447219 -18.04987 
L 66.551248 -18.051983 
L 66.657993 -18.054097 
L 66.766005 -18.05621 
L 66.873322 -18.058323 
L 66.977514 -18.060437 
L 67.075771 -18.06255 
L 67.164997 -18.064664 
L 67.241939 -18.066777 
L 67.303321 -18.06889 
L 67.345998 -18.071004 
L 67.367108 -18.073117 
L 67.36423 -18.075231 
L 67.335525 -18.077344 
L 67.279871 -18.079457 
L 67.196965 -18.081571 
L 67.087407 -18.083684 
L 66.952747 -18.085798 
L 66.795489 -18.087911 
L 66.619066 -18.090024 
L 66.42776 -18.092138 
L 66.226598 -18.094251 
L 66.021197 -18.096365 
L 65.817581 -18.098478 
L 65.621979 -18.100591 
L 65.440597 -18.102705 
L 65.27939 -18.104818 
L 65.143838 -18.106932 
L 65.038733 -18.109045 
L 64.967996 -18.111158 
L 64.934534 -18.113272 
L 64.94013 -18.115385 
L 64.985392 -18.117499 
L 65.069748 -18.119612 
L 65.191495 -18.121725 
L 65.347893 -18.123839 
L 65.535304 -18.125952 
L 65.749359 -18.128066 
L 65.985157 -18.130179 
L 66.237466 -18.132292 
L 66.500933 -18.134406 
L 66.770281 -18.136519 
L 67.040486 -18.138633 
L 67.306936 -18.140746 
L 67.565546 -18.142859 
L 67.812846 -18.144973 
L 68.046035 -18.147086 
L 68.262996 -18.1492 
L 71.115538 -18.1492 
L 71.115538 -18.1492 
L 71.332499 -18.147086 
L 71.565689 -18.144973 
L 71.812989 -18.142859 
L 72.071598 -18.140746 
L 72.338048 -18.138633 
L 72.608254 -18.136519 
L 72.877601 -18.134406 
L 73.141068 -18.132292 
L 73.393377 -18.130179 
L 73.629175 -18.128066 
L 73.843231 -18.125952 
L 74.030641 -18.123839 
L 74.187039 -18.121725 
L 74.308786 -18.119612 
L 74.393143 -18.117499 
L 74.438404 -18.115385 
L 74.444 -18.113272 
L 74.410538 -18.111158 
L 74.339802 -18.109045 
L 74.234696 -18.106932 
L 74.099144 -18.104818 
L 73.937938 -18.102705 
L 73.756556 -18.100591 
L 73.560953 -18.098478 
L 73.357337 -18.096365 
L 73.151936 -18.094251 
L 72.950774 -18.092138 
L 72.759469 -18.090024 
L 72.583045 -18.087911 
L 72.425787 -18.085798 
L 72.291127 -18.083684 
L 72.18157 -18.081571 
L 72.098663 -18.079457 
L 72.043009 -18.077344 
L 72.014304 -18.075231 
L 72.011426 -18.073117 
L 72.032536 -18.071004 
L 72.075213 -18.06889 
L 72.136595 -18.066777 
L 72.213537 -18.064664 
L 72.302763 -18.06255 
L 72.40102 -18.060437 
L 72.505212 -18.058323 
L 72.612529 -18.05621 
L 72.720541 -18.054097 
L 72.827286 -18.051983 
L 72.931315 -18.04987 
L 73.031726 -18.047756 
L 73.128167 -18.045643 
L 73.220823 -18.043529 
L 73.310379 -18.041416 
L 73.397977 -18.039303 
L 73.485155 -18.037189 
L 73.573788 -18.035076 
L 73.66602 -18.032962 
L 73.764195 -18.030849 
L 73.870789 -18.028736 
L 73.988336 -18.026622 
L 74.11936 -18.024509 
L 74.266287 -18.022395 
L 74.431363 -18.020282 
L 74.616551 -18.018169 
L 74.823432 -18.016055 
L 75.053077 -18.013942 
L 75.305938 -18.011828 
L 75.581714 -18.009715 
L 75.879244 -18.007602 
L 76.196404 -18.005488 
L 76.530034 -18.003375 
L 76.875904 -18.001261 
L 77.228725 -17.999148 
L 77.582206 -17.997035 
L 77.929182 -17.994921 
L 78.261787 -17.992808 
L 78.571694 -17.990694 
L 78.85039 -17.988581 
L 79.089494 -17.986468 
L 79.281094 -17.984354 
L 79.418081 -17.982241 
L 79.494465 -17.980127 
L 79.505661 -17.978014 
L 79.448711 -17.975901 
L 79.32244 -17.973787 
L 79.127538 -17.971674 
L 78.866548 -17.96956 
L 78.543778 -17.967447 
L 78.165132 -17.965334 
L 77.737865 -17.96322 
L 77.270299 -17.961107 
L 76.771487 -17.958993 
L 76.250869 -17.95688 
L 75.717923 -17.954767 
L 75.181843 -17.952653 
L 74.651243 -17.95054 
L 74.133911 -17.948426 
L 73.636624 -17.946313 
L 73.165016 -17.9442 
L 72.723506 -17.942086 
L 72.315295 -17.939973 
z
" style="stroke: #7c7c7c; stroke-width: 0.15"/>
    </defs>
    <g clip-path="url(#paef029b3be)">
     <use xlink:href="#mde9bc6daed" x="0" y="84.96" style="fill: #c0ebe9; stroke: #7c7c7c; stroke-width: 0.15"/>
    </g>
   </g>
   <g id="line2d_7">
    <path d="M 20.607295 66.672386 
L 20.607295 65.800808 
" clip-path="url(#paef029b3be)" style="fill: none; stroke: #8c8c8c; stroke-width: 0.75; stroke-linecap: round"/>
   </g>
   <g id="line2d_8">
    <path d="M 20.607295 66.529694 
L 20.607295 65.996783 
" clip-path="url(#paef029b3be)" style="fill: none; stroke: #8c8c8c; stroke-width: 4; stroke-linecap: round"/>
   </g>
   <g id="line2d_9">
    <path d="M 20.607295 66.144431 
" clip-path="url(#paef029b3be)" style="fill: none; stroke: #7c7c7c; stroke-width: 1.2; stroke-linecap: round"/>
    <defs>
     <path id="maff570b140" d="M 0 0.833333 
C 0.221003 0.833333 0.432983 0.745528 0.589256 0.589256 
C 0.745528 0.432983 0.833333 0.221003 0.833333 0 
C 0.833333 -0.221003 0.745528 -0.432983 0.589256 -0.589256 
C 0.432983 -0.745528 0.221003 -0.833333 0 -0.833333 
C -0.221003 -0.833333 -0.432983 -0.745528 -0.589256 -0.589256 
C -0.745528 -0.432983 -0.833333 -0.221003 -0.833333 0 
C -0.833333 0.221003 -0.745528 0.432983 -0.589256 0.589256 
C -0.432983 0.745528 -0.221003 0.833333 0 0.833333 
z
" style="stroke: #ffffff; stroke-width: 0.8"/>
    </defs>
    <g clip-path="url(#paef029b3be)">
     <use xlink:href="#maff570b140" x="20.607295" y="66.144431" style="fill: #ffffff; stroke: #ffffff; stroke-width: 0.8"/>
    </g>
   </g>
   <g id="line2d_10">
    <path d="M 45.148281 66.907359 
L 45.148281 65.975487 
" clip-path="url(#paef029b3be)" style="fill: none; stroke: #8c8c8c; stroke-width: 0.75; stroke-linecap: round"/>
   </g>
   <g id="line2d_11">
    <path d="M 45.148281 66.615474 
L 45.148281 66.222824 
" clip-path="url(#paef029b3be)" style="fill: none; stroke: #8c8c8c; stroke-width: 4; stroke-linecap: round"/>
   </g>
   <g id="line2d_12">
    <path d="M 45.148281 66.426396 
" clip-path="url(#paef029b3be)" style="fill: none; stroke: #7c7c7c; stroke-width: 1.2; stroke-linecap: round"/>
    <g clip-path="url(#paef029b3be)">
     <use xlink:href="#maff570b140" x="45.148281" y="66.426396" style="fill: #ffffff; stroke: #ffffff; stroke-width: 0.8"/>
    </g>
   </g>
   <g id="line2d_13">
    <path d="M 69.689267 66.987739 
L 69.689267 66.843089 
" clip-path="url(#paef029b3be)" style="fill: none; stroke: #8c8c8c; stroke-width: 0.75; stroke-linecap: round"/>
   </g>
   <g id="line2d_14">
    <path d="M 69.689267 66.985172 
L 69.689267 66.894498 
" clip-path="url(#paef029b3be)" style="fill: none; stroke: #8c8c8c; stroke-width: 4; stroke-linecap: round"/>
   </g>
   <g id="line2d_15">
    <path d="M 69.689267 66.959885 
" clip-path="url(#paef029b3be)" style="fill: none; stroke: #7c7c7c; stroke-width: 1.2; stroke-linecap: round"/>
    <g clip-path="url(#paef029b3be)">
     <use xlink:href="#maff570b140" x="69.689267" y="66.959885" style="fill: #ffffff; stroke: #ffffff; stroke-width: 0.8"/>
    </g>
   </g>
   <g id="patch_3">
    <path d="M 8.336802 74.419526 
L 8.336802 4.076256 
" style="fill: none; stroke: #777777; stroke-width: 0.5; stroke-linejoin: miter; stroke-linecap: square"/>
   </g>
   <g id="patch_4">
    <path d="M 8.336802 76.919526 
L 81.95976 76.919526 
" style="fill: none; stroke: #777777; stroke-width: 0.5; stroke-linejoin: miter; stroke-linecap: square"/>
   </g>
  </g>
 </g>
 <defs>
  <clipPath id="paef029b3be">
   <rect x="8.336802" y="4.076256" width="73.622957" height="70.34327"/>
  </clipPath>
 </defs>
</svg>
