<?xml version="1.0" encoding="utf-8" standalone="no"?>
<!DOCTYPE svg PUBLIC "-//W3C//DTD SVG 1.1//EN"
  "http://www.w3.org/Graphics/SVG/1.1/DTD/svg11.dtd">
<svg xmlns:xlink="http://www.w3.org/1999/xlink" width="84.96pt" height="84.96pt" viewBox="0 0 84.96 84.96" xmlns="http://www.w3.org/2000/svg" version="1.1">
 <metadata>
  <rdf:RDF xmlns:dc="http://purl.org/dc/elements/1.1/" xmlns:cc="http://creativecommons.org/ns#" xmlns:rdf="http://www.w3.org/1999/02/22-rdf-syntax-ns#">
   <cc:Work>
    <dc:type rdf:resource="http://purl.org/dc/dcmitype/StillImage"/>
    <dc:date>2024-05-27T15:37:08.137569</dc:date>
    <dc:format>image/svg+xml</dc:format>
    <dc:creator>
     <cc:Agent>
      <dc:title>Matplotlib v3.8.3, https://matplotlib.org/</dc:title>
     </cc:Agent>
    </dc:creator>
   </cc:Work>
  </rdf:RDF>
 </metadata>
 <defs>
  <style type="text/css">*{stroke-linejoin: round; stroke-linecap: butt}</style>
 </defs>
 <g id="figure_1">
  <g id="patch_1">
   <path d="M 0 84.96 
L 84.96 84.96 
L 84.96 0 
L 0 0 
z
" style="fill: #ffffff"/>
  </g>
  <g id="axes_1">
   <g id="patch_2">
    <path d="M 13.341646 74.419526 
L 81.95976 74.419526 
L 81.95976 4.076256 
L 13.341646 4.076256 
z
" style="fill: #ffffff"/>
   </g>
   <g id="matplotlib.axis_1">
    <g id="xtick_1">
     <g id="text_1">
      <!-- B -->
      <g style="fill: #333333" transform="translate(23.610694 81.230229) scale(0.035 -0.035)">
       <defs>
        <path id="Helvetica-42" d="M 2213 2650 
Q 2606 2650 2825 2759 
Q 3169 2931 3169 3378 
Q 3169 3828 2803 3984 
Q 2597 4072 2191 4072 
L 1081 4072 
L 1081 2650 
L 2213 2650 
z
M 2422 531 
Q 2994 531 3238 863 
Q 3391 1072 3391 1369 
Q 3391 1869 2944 2050 
Q 2706 2147 2316 2147 
L 1081 2147 
L 1081 531 
L 2422 531 
z
M 472 4591 
L 2444 4591 
Q 3250 4591 3591 4109 
Q 3791 3825 3791 3453 
Q 3791 3019 3544 2741 
Q 3416 2594 3175 2472 
Q 3528 2338 3703 2169 
Q 4013 1869 4013 1341 
Q 4013 897 3734 538 
Q 3319 0 2413 0 
L 472 0 
L 472 4591 
z
" transform="scale(0.015625)"/>
       </defs>
       <use xlink:href="#Helvetica-42"/>
      </g>
     </g>
    </g>
    <g id="xtick_2">
     <g id="text_2">
      <!-- T -->
      <g style="fill: #333333" transform="translate(46.581836 81.230229) scale(0.035 -0.035)">
       <defs>
        <path id="Helvetica-54" d="M 3828 4591 
L 3828 4044 
L 2281 4044 
L 2281 0 
L 1650 0 
L 1650 4044 
L 103 4044 
L 103 4591 
L 3828 4591 
z
" transform="scale(0.015625)"/>
       </defs>
       <use xlink:href="#Helvetica-54"/>
      </g>
     </g>
    </g>
    <g id="xtick_3">
     <g id="text_3">
      <!-- IL7R Non B/T -->
      <g style="fill: #333333" transform="translate(59.922236 81.230229) scale(0.035 -0.035)">
       <defs>
        <path id="Helvetica-49" d="M 628 4591 
L 1256 4591 
L 1256 0 
L 628 0 
L 628 4591 
z
" transform="scale(0.015625)"/>
        <path id="Helvetica-4c" d="M 488 4591 
L 1109 4591 
L 1109 547 
L 3434 547 
L 3434 0 
L 488 0 
L 488 4591 
z
" transform="scale(0.015625)"/>
        <path id="Helvetica-37" d="M 3347 4400 
L 3347 3909 
Q 3131 3700 2773 3181 
Q 2416 2663 2141 2063 
Q 1869 1478 1728 997 
Q 1638 688 1494 0 
L 872 0 
Q 1084 1281 1809 2550 
Q 2238 3294 2709 3834 
L 234 3834 
L 234 4400 
L 3347 4400 
z
" transform="scale(0.015625)"/>
        <path id="Helvetica-52" d="M 2622 2488 
Q 3059 2488 3314 2663 
Q 3569 2838 3569 3294 
Q 3569 3784 3213 3963 
Q 3022 4056 2703 4056 
L 1184 4056 
L 1184 2488 
L 2622 2488 
z
M 563 4591 
L 2688 4591 
Q 3213 4591 3553 4438 
Q 4200 4144 4200 3353 
Q 4200 2941 4029 2678 
Q 3859 2416 3553 2256 
Q 3822 2147 3958 1969 
Q 4094 1791 4109 1391 
L 4131 775 
Q 4141 513 4175 384 
Q 4231 166 4375 103 
L 4375 0 
L 3613 0 
Q 3581 59 3562 153 
Q 3544 247 3531 516 
L 3494 1281 
Q 3472 1731 3159 1884 
Q 2981 1969 2600 1969 
L 1184 1969 
L 1184 0 
L 563 0 
L 563 4591 
z
" transform="scale(0.015625)"/>
        <path id="Helvetica-20" transform="scale(0.015625)"/>
        <path id="Helvetica-4e" d="M 488 4591 
L 1222 4591 
L 3541 872 
L 3541 4591 
L 4131 4591 
L 4131 0 
L 3434 0 
L 1081 3716 
L 1081 0 
L 488 0 
L 488 4591 
z
M 2269 4591 
L 2269 4591 
z
" transform="scale(0.015625)"/>
        <path id="Helvetica-6f" d="M 1741 363 
Q 2300 363 2508 786 
Q 2716 1209 2716 1728 
Q 2716 2197 2566 2491 
Q 2328 2953 1747 2953 
Q 1231 2953 997 2559 
Q 763 2166 763 1609 
Q 763 1075 997 719 
Q 1231 363 1741 363 
z
M 1763 3444 
Q 2409 3444 2856 3012 
Q 3303 2581 3303 1744 
Q 3303 934 2909 406 
Q 2516 -122 1688 -122 
Q 997 -122 590 345 
Q 184 813 184 1600 
Q 184 2444 612 2944 
Q 1041 3444 1763 3444 
z
M 1744 3428 
L 1744 3428 
z
" transform="scale(0.015625)"/>
        <path id="Helvetica-6e" d="M 413 3347 
L 947 3347 
L 947 2872 
Q 1184 3166 1450 3294 
Q 1716 3422 2041 3422 
Q 2753 3422 3003 2925 
Q 3141 2653 3141 2147 
L 3141 0 
L 2569 0 
L 2569 2109 
Q 2569 2416 2478 2603 
Q 2328 2916 1934 2916 
Q 1734 2916 1606 2875 
Q 1375 2806 1200 2600 
Q 1059 2434 1017 2257 
Q 975 2081 975 1753 
L 975 0 
L 413 0 
L 413 3347 
z
M 1734 3428 
L 1734 3428 
z
" transform="scale(0.015625)"/>
        <path id="Helvetica-2f" d="M 1456 4591 
L 1931 4591 
L 475 0 
L 0 0 
L 1456 4591 
z
" transform="scale(0.015625)"/>
       </defs>
       <use xlink:href="#Helvetica-49"/>
       <use xlink:href="#Helvetica-4c" x="27.783203"/>
       <use xlink:href="#Helvetica-37" x="83.398438"/>
       <use xlink:href="#Helvetica-52" x="139.013672"/>
       <use xlink:href="#Helvetica-20" x="211.230469"/>
       <use xlink:href="#Helvetica-4e" x="239.013672"/>
       <use xlink:href="#Helvetica-6f" x="311.230469"/>
       <use xlink:href="#Helvetica-6e" x="366.845703"/>
       <use xlink:href="#Helvetica-20" x="422.460938"/>
       <use xlink:href="#Helvetica-42" x="450.244141"/>
       <use xlink:href="#Helvetica-2f" x="516.943359"/>
       <use xlink:href="#Helvetica-54" x="544.726562"/>
      </g>
     </g>
    </g>
   </g>
   <g id="matplotlib.axis_2">
    <g id="ytick_1">
     <g id="line2d_1">
      <defs>
       <path id="mccc8c398a0" d="M 0 0 
L -1 0 
" style="stroke: #777777; stroke-width: 0.5"/>
      </defs>
      <g>
       <use xlink:href="#mccc8c398a0" x="13.341646" y="68.030497" style="fill: #777777; stroke: #777777; stroke-width: 0.5"/>
      </g>
     </g>
     <g id="text_4">
      <!-- 0 -->
      <g style="fill: #333333" transform="translate(9.673365 69.106513) scale(0.03 -0.03)">
       <defs>
        <path id="Helvetica-30" d="M 1731 4475 
Q 2600 4475 2988 3759 
Q 3288 3206 3288 2244 
Q 3288 1331 3016 734 
Q 2622 -122 1728 -122 
Q 922 -122 528 578 
Q 200 1163 200 2147 
Q 200 2909 397 3456 
Q 766 4475 1731 4475 
z
M 1725 391 
Q 2163 391 2422 778 
Q 2681 1166 2681 2222 
Q 2681 2984 2493 3476 
Q 2306 3969 1766 3969 
Q 1269 3969 1039 3501 
Q 809 3034 809 2125 
Q 809 1441 956 1025 
Q 1181 391 1725 391 
z
" transform="scale(0.015625)"/>
       </defs>
       <use xlink:href="#Helvetica-30"/>
      </g>
     </g>
    </g>
    <g id="ytick_2">
     <g id="line2d_2">
      <g>
       <use xlink:href="#mccc8c398a0" x="13.341646" y="55.239649" style="fill: #777777; stroke: #777777; stroke-width: 0.5"/>
      </g>
     </g>
     <g id="text_5">
      <!-- 2000 -->
      <g style="fill: #333333" transform="translate(4.668521 56.315664) scale(0.03 -0.03)">
       <defs>
        <path id="Helvetica-32" d="M 200 0 
Q 231 578 439 1006 
Q 647 1434 1250 1784 
L 1850 2131 
Q 2253 2366 2416 2531 
Q 2672 2791 2672 3125 
Q 2672 3516 2437 3745 
Q 2203 3975 1813 3975 
Q 1234 3975 1013 3538 
Q 894 3303 881 2888 
L 309 2888 
Q 319 3472 525 3841 
Q 891 4491 1816 4491 
Q 2584 4491 2939 4075 
Q 3294 3659 3294 3150 
Q 3294 2613 2916 2231 
Q 2697 2009 2131 1694 
L 1703 1456 
Q 1397 1288 1222 1134 
Q 909 863 828 531 
L 3272 531 
L 3272 0 
L 200 0 
z
" transform="scale(0.015625)"/>
       </defs>
       <use xlink:href="#Helvetica-32"/>
       <use xlink:href="#Helvetica-30" x="55.615234"/>
       <use xlink:href="#Helvetica-30" x="111.230469"/>
       <use xlink:href="#Helvetica-30" x="166.845703"/>
      </g>
     </g>
    </g>
    <g id="ytick_3">
     <g id="line2d_3">
      <g>
       <use xlink:href="#mccc8c398a0" x="13.341646" y="42.4488" style="fill: #777777; stroke: #777777; stroke-width: 0.5"/>
      </g>
     </g>
     <g id="text_6">
      <!-- 4000 -->
      <g style="fill: #333333" transform="translate(4.668521 43.524816) scale(0.03 -0.03)">
       <defs>
        <path id="Helvetica-34" d="M 2116 1584 
L 2116 3613 
L 681 1584 
L 2116 1584 
z
M 2125 0 
L 2125 1094 
L 163 1094 
L 163 1644 
L 2213 4488 
L 2688 4488 
L 2688 1584 
L 3347 1584 
L 3347 1094 
L 2688 1094 
L 2688 0 
L 2125 0 
z
" transform="scale(0.015625)"/>
       </defs>
       <use xlink:href="#Helvetica-34"/>
       <use xlink:href="#Helvetica-30" x="55.615234"/>
       <use xlink:href="#Helvetica-30" x="111.230469"/>
       <use xlink:href="#Helvetica-30" x="166.845703"/>
      </g>
     </g>
    </g>
    <g id="ytick_4">
     <g id="line2d_4">
      <g>
       <use xlink:href="#mccc8c398a0" x="13.341646" y="29.657952" style="fill: #777777; stroke: #777777; stroke-width: 0.5"/>
      </g>
     </g>
     <g id="text_7">
      <!-- 6000 -->
      <g style="fill: #333333" transform="translate(4.668521 30.733968) scale(0.03 -0.03)">
       <defs>
        <path id="Helvetica-36" d="M 1872 4494 
Q 2622 4494 2917 4105 
Q 3213 3716 3213 3303 
L 2656 3303 
Q 2606 3569 2497 3719 
Q 2294 4000 1881 4000 
Q 1409 4000 1131 3564 
Q 853 3128 822 2316 
Q 1016 2600 1309 2741 
Q 1578 2866 1909 2866 
Q 2472 2866 2890 2506 
Q 3309 2147 3309 1434 
Q 3309 825 2912 354 
Q 2516 -116 1781 -116 
Q 1153 -116 697 361 
Q 241 838 241 1966 
Q 241 2800 444 3381 
Q 834 4494 1872 4494 
z
M 1831 384 
Q 2275 384 2495 682 
Q 2716 981 2716 1388 
Q 2716 1731 2519 2042 
Q 2322 2353 1803 2353 
Q 1441 2353 1167 2112 
Q 894 1872 894 1388 
Q 894 963 1142 673 
Q 1391 384 1831 384 
z
" transform="scale(0.015625)"/>
       </defs>
       <use xlink:href="#Helvetica-36"/>
       <use xlink:href="#Helvetica-30" x="55.615234"/>
       <use xlink:href="#Helvetica-30" x="111.230469"/>
       <use xlink:href="#Helvetica-30" x="166.845703"/>
      </g>
     </g>
    </g>
    <g id="ytick_5">
     <g id="line2d_5">
      <g>
       <use xlink:href="#mccc8c398a0" x="13.341646" y="16.867104" style="fill: #777777; stroke: #777777; stroke-width: 0.5"/>
      </g>
     </g>
     <g id="text_8">
      <!-- 8000 -->
      <g style="fill: #333333" transform="translate(4.668521 17.94312) scale(0.03 -0.03)">
       <defs>
        <path id="Helvetica-38" d="M 1741 2600 
Q 2113 2600 2322 2808 
Q 2531 3016 2531 3303 
Q 2531 3553 2331 3762 
Q 2131 3972 1722 3972 
Q 1316 3972 1134 3762 
Q 953 3553 953 3272 
Q 953 2956 1187 2778 
Q 1422 2600 1741 2600 
z
M 1775 384 
Q 2166 384 2423 595 
Q 2681 806 2681 1225 
Q 2681 1659 2415 1884 
Q 2150 2109 1734 2109 
Q 1331 2109 1076 1879 
Q 822 1650 822 1244 
Q 822 894 1055 639 
Q 1288 384 1775 384 
z
M 975 2384 
Q 741 2484 609 2619 
Q 363 2869 363 3269 
Q 363 3769 725 4128 
Q 1088 4488 1753 4488 
Q 2397 4488 2762 4148 
Q 3128 3809 3128 3356 
Q 3128 2938 2916 2678 
Q 2797 2531 2547 2391 
Q 2825 2263 2984 2097 
Q 3281 1784 3281 1284 
Q 3281 694 2884 283 
Q 2488 -128 1763 -128 
Q 1109 -128 657 226 
Q 206 581 206 1256 
Q 206 1653 400 1942 
Q 594 2231 975 2384 
z
" transform="scale(0.015625)"/>
       </defs>
       <use xlink:href="#Helvetica-38"/>
       <use xlink:href="#Helvetica-30" x="55.615234"/>
       <use xlink:href="#Helvetica-30" x="111.230469"/>
       <use xlink:href="#Helvetica-30" x="166.845703"/>
      </g>
     </g>
    </g>
    <g id="ytick_6">
     <g id="line2d_6">
      <g>
       <use xlink:href="#mccc8c398a0" x="13.341646" y="4.076256" style="fill: #777777; stroke: #777777; stroke-width: 0.5"/>
      </g>
     </g>
     <g id="text_9">
      <!-- 10000 -->
      <g style="fill: #333333" transform="translate(3.00024 5.152271) scale(0.03 -0.03)">
       <defs>
        <path id="Helvetica-31" d="M 613 3169 
L 613 3600 
Q 1222 3659 1462 3798 
Q 1703 3938 1822 4456 
L 2266 4456 
L 2266 0 
L 1666 0 
L 1666 3169 
L 613 3169 
z
" transform="scale(0.015625)"/>
       </defs>
       <use xlink:href="#Helvetica-31"/>
       <use xlink:href="#Helvetica-30" x="55.615234"/>
       <use xlink:href="#Helvetica-30" x="111.230469"/>
       <use xlink:href="#Helvetica-30" x="166.845703"/>
       <use xlink:href="#Helvetica-30" x="222.460938"/>
      </g>
     </g>
    </g>
   </g>
   <g id="PolyCollection_1">
    <defs>
     <path id="mac980a95a1" d="M 25.531304 -24.443878 
L 24.024693 -24.443878 
L 23.795396 -24.781527 
L 23.528967 -25.119176 
L 23.229786 -25.456825 
L 22.905186 -25.794474 
L 22.564885 -26.132123 
L 22.219918 -26.469772 
L 21.881174 -26.807421 
L 21.557767 -27.145071 
L 21.255528 -27.48272 
L 20.975958 -27.820369 
L 20.715865 -28.158018 
L 20.467847 -28.495667 
L 20.221559 -28.833316 
L 19.965576 -29.170965 
L 19.689491 -29.508614 
L 19.385881 -29.846263 
L 19.051733 -30.183912 
L 18.689105 -30.521561 
L 18.3049 -30.85921 
L 17.909861 -31.196859 
L 17.51701 -31.534508 
L 17.13989 -31.872157 
L 16.790931 -32.209807 
L 16.480239 -32.547456 
L 16.214942 -32.885105 
L 15.99911 -33.222754 
L 15.834099 -33.560403 
L 15.719136 -33.898052 
L 15.651894 -34.235701 
L 15.628917 -34.57335 
L 15.645797 -34.910999 
L 15.697142 -35.248648 
L 15.776432 -35.586297 
L 15.875902 -35.923946 
L 15.9866 -36.261595 
L 16.098686 -36.599244 
L 16.202032 -36.936893 
L 16.287061 -37.274543 
L 16.345741 -37.612192 
L 16.372612 -37.949841 
L 16.36565 -38.28749 
L 16.326838 -38.625139 
L 16.262263 -38.962788 
L 16.181653 -39.300437 
L 16.097329 -39.638086 
L 16.022649 -39.975735 
L 15.970159 -40.313384 
L 15.949721 -40.651033 
L 15.966986 -40.988682 
L 16.022527 -41.326331 
L 16.111864 -41.66398 
L 16.226462 -42.001629 
L 16.355566 -42.339279 
L 16.48853 -42.676928 
L 16.617206 -43.014577 
L 16.737849 -43.352226 
L 16.852142 -43.689875 
L 16.967078 -44.027524 
L 17.093733 -44.365173 
L 17.245198 -44.702822 
L 17.43413 -45.040471 
L 17.670462 -45.37812 
L 17.959737 -45.715769 
L 18.302355 -46.053418 
L 18.693778 -46.391067 
L 19.125528 -46.728716 
L 19.586618 -47.066366 
L 20.065066 -47.404015 
L 20.549148 -47.741664 
L 21.028209 -48.079313 
L 21.492988 -48.416962 
L 21.935577 -48.754611 
L 22.349154 -49.09226 
L 22.727692 -49.429909 
L 23.065776 -49.767558 
L 23.358575 -50.105207 
L 23.602002 -50.442856 
L 23.792984 -50.780505 
L 23.929806 -51.118154 
L 24.012459 -51.455803 
L 24.042949 -51.793452 
L 24.025535 -52.131102 
L 23.966834 -52.468751 
L 23.875762 -52.8064 
L 23.76324 -53.144049 
L 23.641628 -53.481698 
L 23.523895 -53.819347 
L 23.422559 -54.156996 
L 23.348538 -54.494645 
L 23.310065 -54.832294 
L 23.311858 -55.169943 
L 23.354693 -55.507592 
L 23.435492 -55.845241 
L 23.54789 -56.18289 
L 23.683208 -56.520539 
L 23.831647 -56.858188 
L 23.983501 -57.195838 
L 24.130195 -57.533487 
L 24.26502 -57.871136 
L 25.290977 -57.871136 
L 25.290977 -57.871136 
L 25.425802 -57.533487 
L 25.572496 -57.195838 
L 25.72435 -56.858188 
L 25.87279 -56.520539 
L 26.008107 -56.18289 
L 26.120505 -55.845241 
L 26.201304 -55.507592 
L 26.244139 -55.169943 
L 26.245932 -54.832294 
L 26.207459 -54.494645 
L 26.133438 -54.156996 
L 26.032102 -53.819347 
L 25.914369 -53.481698 
L 25.792757 -53.144049 
L 25.680235 -52.8064 
L 25.589163 -52.468751 
L 25.530462 -52.131102 
L 25.513048 -51.793452 
L 25.543538 -51.455803 
L 25.626191 -51.118154 
L 25.763013 -50.780505 
L 25.953995 -50.442856 
L 26.197422 -50.105207 
L 26.490221 -49.767558 
L 26.828305 -49.429909 
L 27.206843 -49.09226 
L 27.62042 -48.754611 
L 28.063009 -48.416962 
L 28.527789 -48.079313 
L 29.006849 -47.741664 
L 29.490931 -47.404015 
L 29.96938 -47.066366 
L 30.430469 -46.728716 
L 30.862219 -46.391067 
L 31.253642 -46.053418 
L 31.59626 -45.715769 
L 31.885535 -45.37812 
L 32.121867 -45.040471 
L 32.310799 -44.702822 
L 32.462264 -44.365173 
L 32.58892 -44.027524 
L 32.703855 -43.689875 
L 32.818148 -43.352226 
L 32.938791 -43.014577 
L 33.067467 -42.676928 
L 33.200431 -42.339279 
L 33.329535 -42.001629 
L 33.444134 -41.66398 
L 33.53347 -41.326331 
L 33.589011 -40.988682 
L 33.606276 -40.651033 
L 33.585838 -40.313384 
L 33.533348 -39.975735 
L 33.458668 -39.638086 
L 33.374344 -39.300437 
L 33.293735 -38.962788 
L 33.229159 -38.625139 
L 33.190347 -38.28749 
L 33.183385 -37.949841 
L 33.210256 -37.612192 
L 33.268937 -37.274543 
L 33.353965 -36.936893 
L 33.457311 -36.599244 
L 33.569397 -36.261595 
L 33.680095 -35.923946 
L 33.779566 -35.586297 
L 33.858855 -35.248648 
L 33.9102 -34.910999 
L 33.92708 -34.57335 
L 33.904103 -34.235701 
L 33.836861 -33.898052 
L 33.721898 -33.560403 
L 33.556888 -33.222754 
L 33.341055 -32.885105 
L 33.075758 -32.547456 
L 32.765066 -32.209807 
L 32.416107 -31.872157 
L 32.038987 -31.534508 
L 31.646136 -31.196859 
L 31.251097 -30.85921 
L 30.866892 -30.521561 
L 30.504264 -30.183912 
L 30.170116 -29.846263 
L 29.866506 -29.508614 
L 29.590421 -29.170965 
L 29.334438 -28.833316 
L 29.08815 -28.495667 
L 28.840132 -28.158018 
L 28.580039 -27.820369 
L 28.300469 -27.48272 
L 27.998231 -27.145071 
L 27.674823 -26.807421 
L 27.33608 -26.469772 
L 26.991112 -26.132123 
L 26.650811 -25.794474 
L 26.326211 -25.456825 
L 26.02703 -25.119176 
L 25.760601 -24.781527 
L 25.531304 -24.443878 
z
" style="stroke: #414141; stroke-width: 0.15"/>
    </defs>
    <g clip-path="url(#p416a47200e)">
     <use xlink:href="#mac980a95a1" x="0" y="84.96" style="fill: #abc9ea; stroke: #414141; stroke-width: 0.15"/>
    </g>
   </g>
   <g id="PolyCollection_2">
    <defs>
     <path id="m721345d329" d="M 48.869411 -16.031918 
L 46.431995 -16.031918 
L 46.098352 -16.358327 
L 45.713162 -16.684736 
L 45.28063 -17.011145 
L 44.808782 -17.337554 
L 44.309492 -17.663963 
L 43.798091 -17.990372 
L 43.292528 -18.316781 
L 42.812123 -18.64319 
L 42.376009 -18.969599 
L 42.001406 -19.296008 
L 41.701938 -19.622417 
L 41.486161 -19.948826 
L 41.356522 -20.275235 
L 41.308875 -20.601644 
L 41.332637 -20.928053 
L 41.411599 -21.254462 
L 41.525319 -21.580872 
L 41.650962 -21.907281 
L 41.765389 -22.23369 
L 41.847278 -22.560099 
L 41.87904 -22.886508 
L 41.84833 -23.212917 
L 41.748982 -23.539326 
L 41.581279 -23.865735 
L 41.351554 -24.192144 
L 41.071173 -24.518553 
L 40.755073 -24.844962 
L 40.420033 -25.171371 
L 40.082924 -25.49778 
L 39.759147 -25.824189 
L 39.461441 -26.150598 
L 39.19917 -26.477007 
L 38.978124 -26.803416 
L 38.800783 -27.129825 
L 38.666943 -27.456234 
L 38.574535 -27.782643 
L 38.520506 -28.109052 
L 38.501621 -28.435461 
L 38.515087 -28.76187 
L 38.558963 -29.088279 
L 38.632366 -29.414688 
L 38.735494 -29.741097 
L 38.869506 -30.067506 
L 39.036325 -30.393915 
L 39.238356 -30.720324 
L 39.478158 -31.046733 
L 39.758058 -31.373142 
L 40.079732 -31.699551 
L 40.443749 -32.02596 
L 40.849154 -32.35237 
L 41.293118 -32.678779 
L 41.770734 -33.005188 
L 42.275014 -33.331597 
L 42.79711 -33.658006 
L 43.326764 -33.984415 
L 43.852934 -34.310824 
L 44.364546 -34.637233 
L 44.85124 -34.963642 
L 45.304059 -35.290051 
L 45.715962 -35.61646 
L 46.082124 -35.942869 
L 46.4 -36.269278 
L 46.669154 -36.595687 
L 46.890906 -36.922096 
L 47.067849 -37.248505 
L 47.203306 -37.574914 
L 47.300786 -37.901323 
L 47.363513 -38.227732 
L 47.394063 -38.554141 
L 47.394134 -38.88055 
L 47.364489 -39.206959 
L 47.305056 -39.533368 
L 47.21519 -39.859777 
L 47.094072 -40.186186 
L 46.941211 -40.512595 
L 46.756998 -40.839004 
L 46.543251 -41.165413 
L 46.303674 -41.491822 
L 46.044165 -41.818231 
L 45.772889 -42.14464 
L 45.500086 -42.471049 
L 45.237584 -42.797458 
L 44.99805 -43.123868 
L 44.794032 -43.450277 
L 44.636908 -43.776686 
L 44.535849 -44.103095 
L 44.496949 -44.429504 
L 44.522618 -44.755913 
L 44.61134 -45.082322 
L 44.75782 -45.408731 
L 44.953506 -45.73514 
L 45.187414 -46.061549 
L 45.447143 -46.387958 
L 45.719954 -46.714367 
L 45.993783 -47.040776 
L 46.258077 -47.367185 
L 46.504384 -47.693594 
L 46.726652 -48.020003 
L 46.921271 -48.346412 
L 48.380135 -48.346412 
L 48.380135 -48.346412 
L 48.574754 -48.020003 
L 48.797022 -47.693594 
L 49.043329 -47.367185 
L 49.307623 -47.040776 
L 49.581452 -46.714367 
L 49.854263 -46.387958 
L 50.113992 -46.061549 
L 50.3479 -45.73514 
L 50.543587 -45.408731 
L 50.690066 -45.082322 
L 50.778788 -44.755913 
L 50.804457 -44.429504 
L 50.765557 -44.103095 
L 50.664499 -43.776686 
L 50.507374 -43.450277 
L 50.303357 -43.123868 
L 50.063822 -42.797458 
L 49.801321 -42.471049 
L 49.528517 -42.14464 
L 49.257242 -41.818231 
L 48.997732 -41.491822 
L 48.758156 -41.165413 
L 48.544408 -40.839004 
L 48.360195 -40.512595 
L 48.207334 -40.186186 
L 48.086216 -39.859777 
L 47.99635 -39.533368 
L 47.936917 -39.206959 
L 47.907272 -38.88055 
L 47.907343 -38.554141 
L 47.937893 -38.227732 
L 48.000621 -37.901323 
L 48.0981 -37.574914 
L 48.233557 -37.248505 
L 48.4105 -36.922096 
L 48.632253 -36.595687 
L 48.901406 -36.269278 
L 49.219282 -35.942869 
L 49.585445 -35.61646 
L 49.997347 -35.290051 
L 50.450166 -34.963642 
L 50.936861 -34.637233 
L 51.448472 -34.310824 
L 51.974643 -33.984415 
L 52.504296 -33.658006 
L 53.026392 -33.331597 
L 53.530672 -33.005188 
L 54.008289 -32.678779 
L 54.452252 -32.35237 
L 54.857657 -32.02596 
L 55.221674 -31.699551 
L 55.543348 -31.373142 
L 55.823249 -31.046733 
L 56.06305 -30.720324 
L 56.265081 -30.393915 
L 56.4319 -30.067506 
L 56.565913 -29.741097 
L 56.66904 -29.414688 
L 56.742444 -29.088279 
L 56.78632 -28.76187 
L 56.799785 -28.435461 
L 56.7809 -28.109052 
L 56.726872 -27.782643 
L 56.634463 -27.456234 
L 56.500623 -27.129825 
L 56.323283 -26.803416 
L 56.102236 -26.477007 
L 55.839965 -26.150598 
L 55.542259 -25.824189 
L 55.218482 -25.49778 
L 54.881373 -25.171371 
L 54.546333 -24.844962 
L 54.230233 -24.518553 
L 53.949853 -24.192144 
L 53.720127 -23.865735 
L 53.552425 -23.539326 
L 53.453076 -23.212917 
L 53.422366 -22.886508 
L 53.454128 -22.560099 
L 53.536017 -22.23369 
L 53.650445 -21.907281 
L 53.776088 -21.580872 
L 53.889808 -21.254462 
L 53.968769 -20.928053 
L 53.992531 -20.601644 
L 53.944884 -20.275235 
L 53.815246 -19.948826 
L 53.599468 -19.622417 
L 53.3 -19.296008 
L 52.925398 -18.969599 
L 52.489283 -18.64319 
L 52.008878 -18.316781 
L 51.503315 -17.990372 
L 50.991914 -17.663963 
L 50.492624 -17.337554 
L 50.020776 -17.011145 
L 49.588244 -16.684736 
L 49.203054 -16.358327 
L 48.869411 -16.031918 
z
" style="stroke: #414141; stroke-width: 0.15"/>
    </defs>
    <g clip-path="url(#p416a47200e)">
     <use xlink:href="#m721345d329" x="0" y="84.96" style="fill: #efb792; stroke: #414141; stroke-width: 0.15"/>
    </g>
   </g>
   <g id="PolyCollection_3">
    <defs>
     <path id="m830b5f2156" d="M 71.640099 -15.74515 
L 69.406717 -15.74515 
L 69.092618 -15.875777 
L 68.722896 -16.006405 
L 68.297313 -16.137032 
L 67.818311 -16.26766 
L 67.291257 -16.398287 
L 66.724458 -16.528915 
L 66.128931 -16.659543 
L 65.517921 -16.79017 
L 64.906197 -16.920798 
L 64.309198 -17.051425 
L 63.742083 -17.182053 
L 63.218793 -17.31268 
L 62.751192 -17.443308 
L 62.348356 -17.573935 
L 62.016079 -17.704563 
L 61.756608 -17.83519 
L 61.568643 -17.965818 
L 61.447579 -18.096445 
L 61.385996 -18.227073 
L 61.374326 -18.357701 
L 61.401685 -18.488328 
L 61.456771 -18.618956 
L 61.528777 -18.749583 
L 61.608213 -18.880211 
L 61.687583 -19.010838 
L 61.761836 -19.141466 
L 61.828566 -19.272093 
L 61.887943 -19.402721 
L 61.942416 -19.533348 
L 61.996243 -19.663976 
L 62.054918 -19.794603 
L 62.124587 -19.925231 
L 62.21152 -20.055859 
L 62.321675 -20.186486 
L 62.460385 -20.317114 
L 62.632147 -20.447741 
L 62.840477 -20.578369 
L 63.087787 -20.708996 
L 63.375255 -20.839624 
L 63.702661 -20.970251 
L 64.0682 -21.100879 
L 64.468296 -21.231506 
L 64.897477 -21.362134 
L 65.348343 -21.492762 
L 65.811677 -21.623389 
L 66.276735 -21.754017 
L 66.731679 -21.884644 
L 67.164151 -22.015272 
L 67.561926 -22.145899 
L 67.913581 -22.276527 
L 68.209129 -22.407154 
L 68.44056 -22.537782 
L 68.602263 -22.668409 
L 68.691318 -22.799037 
L 68.707649 -22.929664 
L 68.654053 -23.060292 
L 68.536119 -23.19092 
L 68.362043 -23.321547 
L 68.142337 -23.452175 
L 67.889442 -23.582802 
L 67.617222 -23.71343 
L 67.340352 -23.844057 
L 67.073602 -23.974685 
L 66.831041 -24.105312 
L 66.625217 -24.23594 
L 66.466358 -24.366567 
L 66.361694 -24.497195 
L 66.314953 -24.627822 
L 66.326132 -24.75845 
L 66.391563 -24.889078 
L 66.504303 -25.019705 
L 66.654825 -25.150333 
L 66.831931 -25.28096 
L 67.023802 -25.411588 
L 67.219064 -25.542215 
L 67.407744 -25.672843 
L 67.582032 -25.80347 
L 67.736755 -25.934098 
L 67.869549 -26.064725 
L 67.980737 -26.195353 
L 68.07294 -26.32598 
L 68.150528 -26.456608 
L 68.218949 -26.587236 
L 68.284055 -26.717863 
L 68.35147 -26.848491 
L 68.426064 -26.979118 
L 68.511556 -27.109746 
L 68.610271 -27.240373 
L 68.723043 -27.371001 
L 68.849256 -27.501628 
L 68.987008 -27.632256 
L 69.133368 -27.762883 
L 69.284692 -27.893511 
L 69.43698 -28.024138 
L 69.586229 -28.154766 
L 69.728747 -28.285394 
L 69.861412 -28.416021 
L 69.98185 -28.546649 
L 70.088522 -28.677276 
L 70.958294 -28.677276 
L 70.958294 -28.677276 
L 71.064965 -28.546649 
L 71.185403 -28.416021 
L 71.318069 -28.285394 
L 71.460587 -28.154766 
L 71.609836 -28.024138 
L 71.762124 -27.893511 
L 71.913447 -27.762883 
L 72.059807 -27.632256 
L 72.19756 -27.501628 
L 72.323773 -27.371001 
L 72.436544 -27.240373 
L 72.535259 -27.109746 
L 72.620751 -26.979118 
L 72.695345 -26.848491 
L 72.762761 -26.717863 
L 72.827867 -26.587236 
L 72.896287 -26.456608 
L 72.973875 -26.32598 
L 73.066079 -26.195353 
L 73.177266 -26.064725 
L 73.310061 -25.934098 
L 73.464784 -25.80347 
L 73.639071 -25.672843 
L 73.827752 -25.542215 
L 74.023013 -25.411588 
L 74.214884 -25.28096 
L 74.39199 -25.150333 
L 74.542512 -25.019705 
L 74.655252 -24.889078 
L 74.720683 -24.75845 
L 74.731863 -24.627822 
L 74.685122 -24.497195 
L 74.580457 -24.366567 
L 74.421599 -24.23594 
L 74.215774 -24.105312 
L 73.973214 -23.974685 
L 73.706463 -23.844057 
L 73.429593 -23.71343 
L 73.157373 -23.582802 
L 72.904478 -23.452175 
L 72.684773 -23.321547 
L 72.510696 -23.19092 
L 72.392762 -23.060292 
L 72.339166 -22.929664 
L 72.355497 -22.799037 
L 72.444553 -22.668409 
L 72.606256 -22.537782 
L 72.837686 -22.407154 
L 73.133234 -22.276527 
L 73.48489 -22.145899 
L 73.882665 -22.015272 
L 74.315136 -21.884644 
L 74.77008 -21.754017 
L 75.235138 -21.623389 
L 75.698473 -21.492762 
L 76.149338 -21.362134 
L 76.578519 -21.231506 
L 76.978616 -21.100879 
L 77.344154 -20.970251 
L 77.67156 -20.839624 
L 77.959028 -20.708996 
L 78.206338 -20.578369 
L 78.414668 -20.447741 
L 78.586431 -20.317114 
L 78.725141 -20.186486 
L 78.835295 -20.055859 
L 78.922228 -19.925231 
L 78.991898 -19.794603 
L 79.050573 -19.663976 
L 79.104399 -19.533348 
L 79.158872 -19.402721 
L 79.218249 -19.272093 
L 79.284979 -19.141466 
L 79.359233 -19.010838 
L 79.438603 -18.880211 
L 79.518038 -18.749583 
L 79.590044 -18.618956 
L 79.645131 -18.488328 
L 79.67249 -18.357701 
L 79.66082 -18.227073 
L 79.599236 -18.096445 
L 79.478173 -17.965818 
L 79.290207 -17.83519 
L 79.030736 -17.704563 
L 78.698459 -17.573935 
L 78.295623 -17.443308 
L 77.828022 -17.31268 
L 77.304732 -17.182053 
L 76.737617 -17.051425 
L 76.140618 -16.920798 
L 75.528895 -16.79017 
L 74.917884 -16.659543 
L 74.322357 -16.528915 
L 73.755558 -16.398287 
L 73.228504 -16.26766 
L 72.749503 -16.137032 
L 72.323919 -16.006405 
L 71.954197 -15.875777 
L 71.640099 -15.74515 
z
" style="stroke: #414141; stroke-width: 0.15"/>
    </defs>
    <g clip-path="url(#p416a47200e)">
     <use xlink:href="#m830b5f2156" x="0" y="84.96" style="fill: #7e5c60; stroke: #414141; stroke-width: 0.15"/>
    </g>
   </g>
   <g id="line2d_7">
    <path d="M 24.777999 57.653096 
L 24.777999 29.95189 
" clip-path="url(#p416a47200e)" style="fill: none; stroke: #8c8c8c; stroke-width: 0.75; stroke-linecap: round"/>
   </g>
   <g id="line2d_8">
    <path d="M 24.777999 51.270208 
L 24.777999 42.047084 
" clip-path="url(#p416a47200e)" style="fill: none; stroke: #8c8c8c; stroke-width: 4; stroke-linecap: round"/>
   </g>
   <g id="line2d_9">
    <path d="M 24.777999 46.722743 
" clip-path="url(#p416a47200e)" style="fill: none; stroke: #414141; stroke-width: 1.2; stroke-linecap: round"/>
    <defs>
     <path id="m9f0cf20c9a" d="M 0 0.833333 
C 0.221003 0.833333 0.432983 0.745528 0.589256 0.589256 
C 0.745528 0.432983 0.833333 0.221003 0.833333 0 
C 0.833333 -0.221003 0.745528 -0.432983 0.589256 -0.589256 
C 0.432983 -0.745528 0.221003 -0.833333 0 -0.833333 
C -0.221003 -0.833333 -0.432983 -0.745528 -0.589256 -0.589256 
C -0.745528 -0.432983 -0.833333 -0.221003 -0.833333 0 
C -0.833333 0.221003 -0.745528 0.432983 -0.589256 0.589256 
C -0.432983 0.745528 -0.221003 0.833333 0 0.833333 
z
" style="stroke: #ffffff; stroke-width: 0.8"/>
    </defs>
    <g clip-path="url(#p416a47200e)">
     <use xlink:href="#m9f0cf20c9a" x="24.777999" y="46.722743" style="fill: #ffffff; stroke: #ffffff; stroke-width: 0.8"/>
    </g>
   </g>
   <g id="line2d_10">
    <path d="M 47.650703 65.763509 
L 47.650703 41.297762 
" clip-path="url(#p416a47200e)" style="fill: none; stroke: #8c8c8c; stroke-width: 0.75; stroke-linecap: round"/>
   </g>
   <g id="line2d_11">
    <path d="M 47.650703 60.798929 
L 47.650703 52.899104 
" clip-path="url(#p416a47200e)" style="fill: none; stroke: #8c8c8c; stroke-width: 4; stroke-linecap: round"/>
   </g>
   <g id="line2d_12">
    <path d="M 47.650703 56.978234 
" clip-path="url(#p416a47200e)" style="fill: none; stroke: #414141; stroke-width: 1.2; stroke-linecap: round"/>
    <g clip-path="url(#p416a47200e)">
     <use xlink:href="#m9f0cf20c9a" x="47.650703" y="56.978234" style="fill: #ffffff; stroke: #ffffff; stroke-width: 0.8"/>
    </g>
   </g>
   <g id="line2d_13">
    <path d="M 70.523408 67.918897 
L 70.523408 57.578677 
" clip-path="url(#p416a47200e)" style="fill: none; stroke: #8c8c8c; stroke-width: 0.75; stroke-linecap: round"/>
   </g>
   <g id="line2d_14">
    <path d="M 70.523408 66.737498 
L 70.523408 62.765105 
" clip-path="url(#p416a47200e)" style="fill: none; stroke: #8c8c8c; stroke-width: 4; stroke-linecap: round"/>
   </g>
   <g id="line2d_15">
    <path d="M 70.523408 64.977993 
" clip-path="url(#p416a47200e)" style="fill: none; stroke: #414141; stroke-width: 1.2; stroke-linecap: round"/>
    <g clip-path="url(#p416a47200e)">
     <use xlink:href="#m9f0cf20c9a" x="70.523408" y="64.977993" style="fill: #ffffff; stroke: #ffffff; stroke-width: 0.8"/>
    </g>
   </g>
   <g id="patch_3">
    <path d="M 13.341646 74.419526 
L 13.341646 4.076256 
" style="fill: none; stroke: #777777; stroke-width: 0.5; stroke-linejoin: miter; stroke-linecap: square"/>
   </g>
   <g id="patch_4">
    <path d="M 13.341646 76.919526 
L 81.95976 76.919526 
" style="fill: none; stroke: #777777; stroke-width: 0.5; stroke-linejoin: miter; stroke-linecap: square"/>
   </g>
  </g>
 </g>
 <defs>
  <clipPath id="p416a47200e">
   <rect x="13.341646" y="4.076256" width="68.618114" height="70.34327"/>
  </clipPath>
 </defs>
</svg>
