<?xml version="1.0" encoding="utf-8" standalone="no"?>
<!DOCTYPE svg PUBLIC "-//W3C//DTD SVG 1.1//EN"
  "http://www.w3.org/Graphics/SVG/1.1/DTD/svg11.dtd">
<svg xmlns:xlink="http://www.w3.org/1999/xlink" width="84.96pt" height="84.96pt" viewBox="0 0 84.96 84.96" xmlns="http://www.w3.org/2000/svg" version="1.1">
 <metadata>
  <rdf:RDF xmlns:dc="http://purl.org/dc/elements/1.1/" xmlns:cc="http://creativecommons.org/ns#" xmlns:rdf="http://www.w3.org/1999/02/22-rdf-syntax-ns#">
   <cc:Work>
    <dc:type rdf:resource="http://purl.org/dc/dcmitype/StillImage"/>
    <dc:date>2024-05-27T15:37:11.550429</dc:date>
    <dc:format>image/svg+xml</dc:format>
    <dc:creator>
     <cc:Agent>
      <dc:title>Matplotlib v3.8.3, https://matplotlib.org/</dc:title>
     </cc:Agent>
    </dc:creator>
   </cc:Work>
  </rdf:RDF>
 </metadata>
 <defs>
  <style type="text/css">*{stroke-linejoin: round; stroke-linecap: butt}</style>
 </defs>
 <g id="figure_1">
  <g id="patch_1">
   <path d="M 0 84.96 
L 84.96 84.96 
L 84.96 0 
L 0 0 
z
" style="fill: #ffffff"/>
  </g>
  <g id="axes_1">
   <g id="patch_2">
    <path d="M 10.005084 74.419526 
L 81.95976 74.419526 
L 81.95976 4.076256 
L 10.005084 4.076256 
z
" style="fill: #ffffff"/>
   </g>
   <g id="matplotlib.axis_1">
    <g id="xtick_1">
     <g id="text_1">
      <!-- NK/ILC1ie -->
      <g style="fill: #333333" transform="translate(14.021905 81.230229) scale(0.035 -0.035)">
       <defs>
        <path id="Helvetica-4e" d="M 488 4591 
L 1222 4591 
L 3541 872 
L 3541 4591 
L 4131 4591 
L 4131 0 
L 3434 0 
L 1081 3716 
L 1081 0 
L 488 0 
L 488 4591 
z
M 2269 4591 
L 2269 4591 
z
" transform="scale(0.015625)"/>
        <path id="Helvetica-4b" d="M 488 4591 
L 1094 4591 
L 1094 2353 
L 3331 4591 
L 4191 4591 
L 2281 2741 
L 4244 0 
L 3434 0 
L 1828 2303 
L 1094 1600 
L 1094 0 
L 488 0 
L 488 4591 
z
" transform="scale(0.015625)"/>
        <path id="Helvetica-2f" d="M 1456 4591 
L 1931 4591 
L 475 0 
L 0 0 
L 1456 4591 
z
" transform="scale(0.015625)"/>
        <path id="Helvetica-49" d="M 628 4591 
L 1256 4591 
L 1256 0 
L 628 0 
L 628 4591 
z
" transform="scale(0.015625)"/>
        <path id="Helvetica-4c" d="M 488 4591 
L 1109 4591 
L 1109 547 
L 3434 547 
L 3434 0 
L 488 0 
L 488 4591 
z
" transform="scale(0.015625)"/>
        <path id="Helvetica-43" d="M 2422 4716 
Q 3294 4716 3775 4256 
Q 4256 3797 4309 3213 
L 3703 3213 
Q 3600 3656 3292 3915 
Q 2984 4175 2428 4175 
Q 1750 4175 1333 3698 
Q 916 3222 916 2238 
Q 916 1431 1292 929 
Q 1669 428 2416 428 
Q 3103 428 3463 956 
Q 3653 1234 3747 1688 
L 4353 1688 
Q 4272 963 3816 472 
Q 3269 -119 2341 -119 
Q 1541 -119 997 366 
Q 281 1006 281 2344 
Q 281 3359 819 4009 
Q 1400 4716 2422 4716 
z
M 2297 4716 
L 2297 4716 
z
" transform="scale(0.015625)"/>
        <path id="Helvetica-31" d="M 613 3169 
L 613 3600 
Q 1222 3659 1462 3798 
Q 1703 3938 1822 4456 
L 2266 4456 
L 2266 0 
L 1666 0 
L 1666 3169 
L 613 3169 
z
" transform="scale(0.015625)"/>
        <path id="Helvetica-69" d="M 413 3331 
L 984 3331 
L 984 0 
L 413 0 
L 413 3331 
z
M 413 4591 
L 984 4591 
L 984 3953 
L 413 3953 
L 413 4591 
z
" transform="scale(0.015625)"/>
        <path id="Helvetica-65" d="M 1806 3422 
Q 2163 3422 2497 3255 
Q 2831 3088 3006 2822 
Q 3175 2569 3231 2231 
Q 3281 2000 3281 1494 
L 828 1494 
Q 844 984 1069 676 
Q 1294 369 1766 369 
Q 2206 369 2469 659 
Q 2619 828 2681 1050 
L 3234 1050 
Q 3213 866 3089 639 
Q 2966 413 2813 269 
Q 2556 19 2178 -69 
Q 1975 -119 1719 -119 
Q 1094 -119 659 336 
Q 225 791 225 1609 
Q 225 2416 662 2919 
Q 1100 3422 1806 3422 
z
M 2703 1941 
Q 2669 2306 2544 2525 
Q 2313 2931 1772 2931 
Q 1384 2931 1121 2651 
Q 859 2372 844 1941 
L 2703 1941 
z
M 1753 3428 
L 1753 3428 
z
" transform="scale(0.015625)"/>
       </defs>
       <use xlink:href="#Helvetica-4e"/>
       <use xlink:href="#Helvetica-4b" x="72.216797"/>
       <use xlink:href="#Helvetica-2f" x="138.916016"/>
       <use xlink:href="#Helvetica-49" x="166.699219"/>
       <use xlink:href="#Helvetica-4c" x="194.482422"/>
       <use xlink:href="#Helvetica-43" x="250.097656"/>
       <use xlink:href="#Helvetica-31" x="322.314453"/>
       <use xlink:href="#Helvetica-69" x="377.929688"/>
       <use xlink:href="#Helvetica-65" x="400.146484"/>
      </g>
     </g>
    </g>
    <g id="xtick_2">
     <g id="text_2">
      <!-- ILC1 -->
      <g style="fill: #333333" transform="translate(42.286094 81.230229) scale(0.035 -0.035)">
       <use xlink:href="#Helvetica-49"/>
       <use xlink:href="#Helvetica-4c" x="27.783203"/>
       <use xlink:href="#Helvetica-43" x="83.398438"/>
       <use xlink:href="#Helvetica-31" x="155.615234"/>
      </g>
     </g>
    </g>
    <g id="xtick_3">
     <g id="text_3">
      <!-- TH1 -->
      <g style="fill: #333333" transform="translate(66.661455 81.230229) scale(0.035 -0.035)">
       <defs>
        <path id="Helvetica-54" d="M 3828 4591 
L 3828 4044 
L 2281 4044 
L 2281 0 
L 1650 0 
L 1650 4044 
L 103 4044 
L 103 4591 
L 3828 4591 
z
" transform="scale(0.015625)"/>
        <path id="Helvetica-48" d="M 503 4591 
L 1131 4591 
L 1131 2694 
L 3519 2694 
L 3519 4591 
L 4147 4591 
L 4147 0 
L 3519 0 
L 3519 2147 
L 1131 2147 
L 1131 0 
L 503 0 
L 503 4591 
z
" transform="scale(0.015625)"/>
       </defs>
       <use xlink:href="#Helvetica-54"/>
       <use xlink:href="#Helvetica-48" x="61.083984"/>
       <use xlink:href="#Helvetica-31" x="133.300781"/>
      </g>
     </g>
    </g>
   </g>
   <g id="matplotlib.axis_2">
    <g id="ytick_1">
     <g id="line2d_1">
      <defs>
       <path id="m9c3c69819c" d="M 0 0 
L -1 0 
" style="stroke: #777777; stroke-width: 0.5"/>
      </defs>
      <g>
       <use xlink:href="#m9c3c69819c" x="10.005084" y="65.703651" style="fill: #777777; stroke: #777777; stroke-width: 0.5"/>
      </g>
     </g>
     <g id="text_4">
      <!-- 0 -->
      <g style="fill: #333333" transform="translate(6.336803 66.779667) scale(0.03 -0.03)">
       <defs>
        <path id="Helvetica-30" d="M 1731 4475 
Q 2600 4475 2988 3759 
Q 3288 3206 3288 2244 
Q 3288 1331 3016 734 
Q 2622 -122 1728 -122 
Q 922 -122 528 578 
Q 200 1163 200 2147 
Q 200 2909 397 3456 
Q 766 4475 1731 4475 
z
M 1725 391 
Q 2163 391 2422 778 
Q 2681 1166 2681 2222 
Q 2681 2984 2493 3476 
Q 2306 3969 1766 3969 
Q 1269 3969 1039 3501 
Q 809 3034 809 2125 
Q 809 1441 956 1025 
Q 1181 391 1725 391 
z
" transform="scale(0.015625)"/>
       </defs>
       <use xlink:href="#Helvetica-30"/>
      </g>
     </g>
    </g>
    <g id="ytick_2">
     <g id="line2d_2">
      <g>
       <use xlink:href="#m9c3c69819c" x="10.005084" y="56.899737" style="fill: #777777; stroke: #777777; stroke-width: 0.5"/>
      </g>
     </g>
     <g id="text_5">
      <!-- 100 -->
      <g style="fill: #333333" transform="translate(3.00024 57.975753) scale(0.03 -0.03)">
       <use xlink:href="#Helvetica-31"/>
       <use xlink:href="#Helvetica-30" x="55.615234"/>
       <use xlink:href="#Helvetica-30" x="111.230469"/>
      </g>
     </g>
    </g>
    <g id="ytick_3">
     <g id="line2d_3">
      <g>
       <use xlink:href="#m9c3c69819c" x="10.005084" y="48.095824" style="fill: #777777; stroke: #777777; stroke-width: 0.5"/>
      </g>
     </g>
     <g id="text_6">
      <!-- 200 -->
      <g style="fill: #333333" transform="translate(3.00024 49.171839) scale(0.03 -0.03)">
       <defs>
        <path id="Helvetica-32" d="M 200 0 
Q 231 578 439 1006 
Q 647 1434 1250 1784 
L 1850 2131 
Q 2253 2366 2416 2531 
Q 2672 2791 2672 3125 
Q 2672 3516 2437 3745 
Q 2203 3975 1813 3975 
Q 1234 3975 1013 3538 
Q 894 3303 881 2888 
L 309 2888 
Q 319 3472 525 3841 
Q 891 4491 1816 4491 
Q 2584 4491 2939 4075 
Q 3294 3659 3294 3150 
Q 3294 2613 2916 2231 
Q 2697 2009 2131 1694 
L 1703 1456 
Q 1397 1288 1222 1134 
Q 909 863 828 531 
L 3272 531 
L 3272 0 
L 200 0 
z
" transform="scale(0.015625)"/>
       </defs>
       <use xlink:href="#Helvetica-32"/>
       <use xlink:href="#Helvetica-30" x="55.615234"/>
       <use xlink:href="#Helvetica-30" x="111.230469"/>
      </g>
     </g>
    </g>
    <g id="ytick_4">
     <g id="line2d_4">
      <g>
       <use xlink:href="#m9c3c69819c" x="10.005084" y="39.29191" style="fill: #777777; stroke: #777777; stroke-width: 0.5"/>
      </g>
     </g>
     <g id="text_7">
      <!-- 300 -->
      <g style="fill: #333333" transform="translate(3.00024 40.367926) scale(0.03 -0.03)">
       <defs>
        <path id="Helvetica-33" d="M 1663 -122 
Q 869 -122 511 314 
Q 153 750 153 1375 
L 741 1375 
Q 778 941 903 744 
Q 1122 391 1694 391 
Q 2138 391 2406 628 
Q 2675 866 2675 1241 
Q 2675 1703 2392 1887 
Q 2109 2072 1606 2072 
Q 1550 2072 1492 2070 
Q 1434 2069 1375 2066 
L 1375 2563 
Q 1463 2553 1522 2550 
Q 1581 2547 1650 2547 
Q 1966 2547 2169 2647 
Q 2525 2822 2525 3272 
Q 2525 3606 2287 3787 
Q 2050 3969 1734 3969 
Q 1172 3969 956 3594 
Q 838 3388 822 3006 
L 266 3006 
Q 266 3506 466 3856 
Q 809 4481 1675 4481 
Q 2359 4481 2734 4176 
Q 3109 3872 3109 3294 
Q 3109 2881 2888 2625 
Q 2750 2466 2531 2375 
Q 2884 2278 3082 2001 
Q 3281 1725 3281 1325 
Q 3281 684 2859 281 
Q 2438 -122 1663 -122 
z
" transform="scale(0.015625)"/>
       </defs>
       <use xlink:href="#Helvetica-33"/>
       <use xlink:href="#Helvetica-30" x="55.615234"/>
       <use xlink:href="#Helvetica-30" x="111.230469"/>
      </g>
     </g>
    </g>
    <g id="ytick_5">
     <g id="line2d_5">
      <g>
       <use xlink:href="#m9c3c69819c" x="10.005084" y="30.487997" style="fill: #777777; stroke: #777777; stroke-width: 0.5"/>
      </g>
     </g>
     <g id="text_8">
      <!-- 400 -->
      <g style="fill: #333333" transform="translate(3.00024 31.564012) scale(0.03 -0.03)">
       <defs>
        <path id="Helvetica-34" d="M 2116 1584 
L 2116 3613 
L 681 1584 
L 2116 1584 
z
M 2125 0 
L 2125 1094 
L 163 1094 
L 163 1644 
L 2213 4488 
L 2688 4488 
L 2688 1584 
L 3347 1584 
L 3347 1094 
L 2688 1094 
L 2688 0 
L 2125 0 
z
" transform="scale(0.015625)"/>
       </defs>
       <use xlink:href="#Helvetica-34"/>
       <use xlink:href="#Helvetica-30" x="55.615234"/>
       <use xlink:href="#Helvetica-30" x="111.230469"/>
      </g>
     </g>
    </g>
    <g id="ytick_6">
     <g id="line2d_6">
      <g>
       <use xlink:href="#m9c3c69819c" x="10.005084" y="21.684083" style="fill: #777777; stroke: #777777; stroke-width: 0.5"/>
      </g>
     </g>
     <g id="text_9">
      <!-- 500 -->
      <g style="fill: #333333" transform="translate(3.00024 22.760099) scale(0.03 -0.03)">
       <defs>
        <path id="Helvetica-35" d="M 791 1141 
Q 847 659 1238 475 
Q 1438 381 1700 381 
Q 2200 381 2440 700 
Q 2681 1019 2681 1406 
Q 2681 1875 2395 2131 
Q 2109 2388 1709 2388 
Q 1419 2388 1211 2275 
Q 1003 2163 856 1963 
L 369 1991 
L 709 4400 
L 3034 4400 
L 3034 3856 
L 1131 3856 
L 941 2613 
Q 1097 2731 1238 2791 
Q 1488 2894 1816 2894 
Q 2431 2894 2859 2497 
Q 3288 2100 3288 1491 
Q 3288 856 2895 371 
Q 2503 -113 1644 -113 
Q 1097 -113 676 195 
Q 256 503 206 1141 
L 791 1141 
z
" transform="scale(0.015625)"/>
       </defs>
       <use xlink:href="#Helvetica-35"/>
       <use xlink:href="#Helvetica-30" x="55.615234"/>
       <use xlink:href="#Helvetica-30" x="111.230469"/>
      </g>
     </g>
    </g>
    <g id="ytick_7">
     <g id="line2d_7">
      <g>
       <use xlink:href="#m9c3c69819c" x="10.005084" y="12.880169" style="fill: #777777; stroke: #777777; stroke-width: 0.5"/>
      </g>
     </g>
     <g id="text_10">
      <!-- 600 -->
      <g style="fill: #333333" transform="translate(3.00024 13.956185) scale(0.03 -0.03)">
       <defs>
        <path id="Helvetica-36" d="M 1872 4494 
Q 2622 4494 2917 4105 
Q 3213 3716 3213 3303 
L 2656 3303 
Q 2606 3569 2497 3719 
Q 2294 4000 1881 4000 
Q 1409 4000 1131 3564 
Q 853 3128 822 2316 
Q 1016 2600 1309 2741 
Q 1578 2866 1909 2866 
Q 2472 2866 2890 2506 
Q 3309 2147 3309 1434 
Q 3309 825 2912 354 
Q 2516 -116 1781 -116 
Q 1153 -116 697 361 
Q 241 838 241 1966 
Q 241 2800 444 3381 
Q 834 4494 1872 4494 
z
M 1831 384 
Q 2275 384 2495 682 
Q 2716 981 2716 1388 
Q 2716 1731 2519 2042 
Q 2322 2353 1803 2353 
Q 1441 2353 1167 2112 
Q 894 1872 894 1388 
Q 894 963 1142 673 
Q 1391 384 1831 384 
z
" transform="scale(0.015625)"/>
       </defs>
       <use xlink:href="#Helvetica-36"/>
       <use xlink:href="#Helvetica-30" x="55.615234"/>
       <use xlink:href="#Helvetica-30" x="111.230469"/>
      </g>
     </g>
    </g>
    <g id="ytick_8">
     <g id="line2d_8">
      <g>
       <use xlink:href="#m9c3c69819c" x="10.005084" y="4.076256" style="fill: #777777; stroke: #777777; stroke-width: 0.5"/>
      </g>
     </g>
     <g id="text_11">
      <!-- 700 -->
      <g style="fill: #333333" transform="translate(3.00024 5.152271) scale(0.03 -0.03)">
       <defs>
        <path id="Helvetica-37" d="M 3347 4400 
L 3347 3909 
Q 3131 3700 2773 3181 
Q 2416 2663 2141 2063 
Q 1869 1478 1728 997 
Q 1638 688 1494 0 
L 872 0 
Q 1084 1281 1809 2550 
Q 2238 3294 2709 3834 
L 234 3834 
L 234 4400 
L 3347 4400 
z
" transform="scale(0.015625)"/>
       </defs>
       <use xlink:href="#Helvetica-37"/>
       <use xlink:href="#Helvetica-30" x="55.615234"/>
       <use xlink:href="#Helvetica-30" x="111.230469"/>
      </g>
     </g>
    </g>
   </g>
   <g id="PolyCollection_1">
    <defs>
     <path id="m309a78ebd2" d="M 23.285061 -19.074358 
L 20.709999 -19.074358 
L 20.475436 -19.087383 
L 20.213802 -19.100409 
L 19.925025 -19.113434 
L 19.609596 -19.126459 
L 19.26859 -19.139485 
L 18.903684 -19.15251 
L 18.517133 -19.165536 
L 18.11175 -19.178561 
L 17.690844 -19.191587 
L 17.258168 -19.204612 
L 16.817842 -19.217637 
L 16.374279 -19.230663 
L 15.932114 -19.243688 
L 15.496129 -19.256714 
L 15.071193 -19.269739 
L 14.662194 -19.282764 
L 14.273985 -19.29579 
L 13.911321 -19.308815 
L 13.578791 -19.321841 
L 13.280741 -19.334866 
L 13.021184 -19.347891 
L 12.803692 -19.360917 
L 12.631278 -19.373942 
L 12.506269 -19.386968 
L 12.430175 -19.399993 
L 12.403573 -19.413018 
L 12.426005 -19.426044 
L 12.495916 -19.439069 
L 12.610631 -19.452095 
L 12.766391 -19.46512 
L 12.958437 -19.478145 
L 13.181165 -19.491171 
L 13.428317 -19.504196 
L 13.693227 -19.517222 
L 13.969088 -19.530247 
L 14.249226 -19.543272 
L 14.527373 -19.556298 
L 14.797906 -19.569323 
L 15.05605 -19.582349 
L 15.298025 -19.595374 
L 15.521132 -19.608399 
L 15.72378 -19.621425 
L 15.905451 -19.63445 
L 16.066619 -19.647476 
L 16.208618 -19.660501 
L 16.333492 -19.673526 
L 16.443814 -19.686552 
L 16.542506 -19.699577 
L 16.632659 -19.712603 
L 16.717353 -19.725628 
L 16.7995 -19.738653 
L 16.881695 -19.751679 
L 16.96608 -19.764704 
L 17.054238 -19.77773 
L 17.147095 -19.790755 
L 17.244852 -19.80378 
L 17.346938 -19.816806 
L 17.452002 -19.829831 
L 17.557936 -19.842857 
L 17.661939 -19.855882 
L 17.760624 -19.868907 
L 17.850173 -19.881933 
L 17.926532 -19.894958 
L 17.985632 -19.907984 
L 18.023647 -19.921009 
L 18.037256 -19.934034 
L 18.023899 -19.94706 
L 17.982013 -19.960085 
L 17.911232 -19.973111 
L 17.812519 -19.986136 
L 17.688246 -19.999161 
L 17.542182 -20.012187 
L 17.379406 -20.025212 
L 17.206141 -20.038238 
L 17.029509 -20.051263 
L 16.857233 -20.064288 
L 16.697287 -20.077314 
L 16.557529 -20.090339 
L 16.445329 -20.103365 
L 16.367221 -20.11639 
L 16.328593 -20.129416 
L 16.333441 -20.142441 
L 16.384193 -20.155466 
L 16.481624 -20.168492 
L 16.624847 -20.181517 
L 16.811402 -20.194543 
L 17.037404 -20.207568 
L 17.297777 -20.220593 
L 17.586516 -20.233619 
L 17.89699 -20.246644 
L 18.222256 -20.25967 
L 18.555361 -20.272695 
L 18.889621 -20.28572 
L 19.218864 -20.298746 
L 19.537625 -20.311771 
L 19.841283 -20.324797 
L 20.126149 -20.337822 
L 20.389492 -20.350847 
L 20.629523 -20.363873 
L 23.365537 -20.363873 
L 23.365537 -20.363873 
L 23.605568 -20.350847 
L 23.868911 -20.337822 
L 24.153777 -20.324797 
L 24.457435 -20.311771 
L 24.776196 -20.298746 
L 25.105439 -20.28572 
L 25.439699 -20.272695 
L 25.772803 -20.25967 
L 26.09807 -20.246644 
L 26.408544 -20.233619 
L 26.697282 -20.220593 
L 26.957655 -20.207568 
L 27.183658 -20.194543 
L 27.370212 -20.181517 
L 27.513436 -20.168492 
L 27.610867 -20.155466 
L 27.661619 -20.142441 
L 27.666467 -20.129416 
L 27.627839 -20.11639 
L 27.549731 -20.103365 
L 27.437531 -20.090339 
L 27.297773 -20.077314 
L 27.137826 -20.064288 
L 26.96555 -20.051263 
L 26.788919 -20.038238 
L 26.615654 -20.025212 
L 26.452878 -20.012187 
L 26.306814 -19.999161 
L 26.182541 -19.986136 
L 26.083828 -19.973111 
L 26.013046 -19.960085 
L 25.971161 -19.94706 
L 25.957804 -19.934034 
L 25.971413 -19.921009 
L 26.009428 -19.907984 
L 26.068528 -19.894958 
L 26.144886 -19.881933 
L 26.234436 -19.868907 
L 26.333121 -19.855882 
L 26.437123 -19.842857 
L 26.543057 -19.829831 
L 26.648122 -19.816806 
L 26.750208 -19.80378 
L 26.847964 -19.790755 
L 26.940821 -19.77773 
L 27.02898 -19.764704 
L 27.113365 -19.751679 
L 27.195559 -19.738653 
L 27.277707 -19.725628 
L 27.362401 -19.712603 
L 27.452553 -19.699577 
L 27.551246 -19.686552 
L 27.661568 -19.673526 
L 27.786441 -19.660501 
L 27.928441 -19.647476 
L 28.089609 -19.63445 
L 28.27128 -19.621425 
L 28.473928 -19.608399 
L 28.697034 -19.595374 
L 28.939009 -19.582349 
L 29.197153 -19.569323 
L 29.467687 -19.556298 
L 29.745833 -19.543272 
L 30.025971 -19.530247 
L 30.301832 -19.517222 
L 30.566743 -19.504196 
L 30.813895 -19.491171 
L 31.036622 -19.478145 
L 31.228669 -19.46512 
L 31.384428 -19.452095 
L 31.499144 -19.439069 
L 31.569055 -19.426044 
L 31.591487 -19.413018 
L 31.564884 -19.399993 
L 31.488791 -19.386968 
L 31.363782 -19.373942 
L 31.191368 -19.360917 
L 30.973875 -19.347891 
L 30.714318 -19.334866 
L 30.416269 -19.321841 
L 30.083739 -19.308815 
L 29.721075 -19.29579 
L 29.332866 -19.282764 
L 28.923867 -19.269739 
L 28.49893 -19.256714 
L 28.062946 -19.243688 
L 27.62078 -19.230663 
L 27.177218 -19.217637 
L 26.736891 -19.204612 
L 26.304215 -19.191587 
L 25.88331 -19.178561 
L 25.477926 -19.165536 
L 25.091376 -19.15251 
L 24.726469 -19.139485 
L 24.385464 -19.126459 
L 24.070034 -19.113434 
L 23.781258 -19.100409 
L 23.519623 -19.087383 
L 23.285061 -19.074358 
z
" style="stroke: #6f6f6f; stroke-width: 0.15"/>
    </defs>
    <g clip-path="url(#p7cf55035de)">
     <use xlink:href="#m309a78ebd2" x="0" y="84.96" style="fill: #98daa7; stroke: #6f6f6f; stroke-width: 0.15"/>
    </g>
   </g>
   <g id="PolyCollection_2">
    <defs>
     <path id="me796337950" d="M 47.630595 -10.763691 
L 44.334249 -10.763691 
L 43.992634 -11.443647 
L 43.606905 -12.123603 
L 43.177666 -12.803558 
L 42.707076 -13.483514 
L 42.198998 -14.16347 
L 41.659076 -14.843426 
L 41.094718 -15.523382 
L 40.514995 -16.203338 
L 39.930427 -16.883294 
L 39.352682 -17.563249 
L 38.794192 -18.243205 
L 38.267696 -18.923161 
L 37.785749 -19.603117 
L 37.360215 -20.283073 
L 37.001776 -20.963029 
L 36.719485 -21.642984 
L 36.520396 -22.32294 
L 36.409283 -23.002896 
L 36.388465 -23.682852 
L 36.457753 -24.362808 
L 36.614502 -25.042764 
L 36.853776 -25.72272 
L 37.168606 -26.402675 
L 37.550318 -27.082631 
L 37.98892 -27.762587 
L 38.473513 -28.442543 
L 38.992716 -29.122499 
L 39.535074 -29.802455 
L 40.089437 -30.482411 
L 40.645298 -31.162366 
L 41.193068 -31.842322 
L 41.724296 -32.522278 
L 42.231821 -33.202234 
L 42.70986 -33.88219 
L 43.154035 -34.562146 
L 43.561341 -35.242101 
L 43.930072 -35.922057 
L 44.259704 -36.602013 
L 44.550745 -37.281969 
L 44.804573 -37.961925 
L 45.023258 -38.641881 
L 45.209387 -39.321837 
L 45.365893 -40.001792 
L 45.495898 -40.681748 
L 45.602582 -41.361704 
L 45.689062 -42.04166 
L 45.758303 -42.721616 
L 45.813052 -43.401572 
L 45.855792 -44.081527 
L 45.888713 -44.761483 
L 45.913707 -45.441439 
L 45.93237 -46.121395 
L 45.946014 -46.801351 
L 45.955688 -47.481307 
L 45.962198 -48.161263 
L 45.96613 -48.841218 
L 45.967872 -49.521174 
L 45.967629 -50.20113 
L 45.965438 -50.881086 
L 45.961183 -51.561042 
L 45.9546 -52.240998 
L 45.945288 -52.920953 
L 45.932718 -53.600909 
L 45.916248 -54.280865 
L 45.895136 -54.960821 
L 45.868572 -55.640777 
L 45.83571 -56.320733 
L 45.795716 -57.000689 
L 45.747823 -57.680644 
L 45.691395 -58.3606 
L 45.626005 -59.040556 
L 45.551505 -59.720512 
L 45.4681 -60.400468 
L 45.376411 -61.080424 
L 45.27752 -61.76038 
L 45.172991 -62.440335 
L 45.064864 -63.120291 
L 44.955613 -63.800247 
L 44.848069 -64.480203 
L 44.74531 -65.160159 
L 44.650519 -65.840115 
L 44.56683 -66.52007 
L 44.497149 -67.200026 
L 44.443996 -67.879982 
L 44.409347 -68.559938 
L 44.394517 -69.239894 
L 44.400073 -69.91985 
L 44.425804 -70.599806 
L 44.470726 -71.279761 
L 44.533153 -71.959717 
L 44.610795 -72.639673 
L 44.700901 -73.319629 
L 44.800422 -73.999585 
L 44.906176 -74.679541 
L 45.015017 -75.359496 
L 45.123988 -76.039452 
L 45.230438 -76.719408 
L 45.332125 -77.399364 
L 45.427262 -78.07932 
L 46.537582 -78.07932 
L 46.537582 -78.07932 
L 46.632719 -77.399364 
L 46.734405 -76.719408 
L 46.840856 -76.039452 
L 46.949826 -75.359496 
L 47.058668 -74.679541 
L 47.164422 -73.999585 
L 47.263942 -73.319629 
L 47.354049 -72.639673 
L 47.431691 -71.959717 
L 47.494118 -71.279761 
L 47.53904 -70.599806 
L 47.56477 -69.91985 
L 47.570327 -69.239894 
L 47.555497 -68.559938 
L 47.520848 -67.879982 
L 47.467694 -67.200026 
L 47.398014 -66.52007 
L 47.314324 -65.840115 
L 47.219534 -65.160159 
L 47.116775 -64.480203 
L 47.009231 -63.800247 
L 46.89998 -63.120291 
L 46.791853 -62.440335 
L 46.687324 -61.76038 
L 46.588433 -61.080424 
L 46.496744 -60.400468 
L 46.413339 -59.720512 
L 46.338839 -59.040556 
L 46.273449 -58.3606 
L 46.217021 -57.680644 
L 46.169127 -57.000689 
L 46.129133 -56.320733 
L 46.096272 -55.640777 
L 46.069708 -54.960821 
L 46.048596 -54.280865 
L 46.032125 -53.600909 
L 46.019556 -52.920953 
L 46.010244 -52.240998 
L 46.003661 -51.561042 
L 45.999405 -50.881086 
L 45.997215 -50.20113 
L 45.996972 -49.521174 
L 45.998714 -48.841218 
L 46.002646 -48.161263 
L 46.009156 -47.481307 
L 46.01883 -46.801351 
L 46.032474 -46.121395 
L 46.051137 -45.441439 
L 46.076131 -44.761483 
L 46.109052 -44.081527 
L 46.151791 -43.401572 
L 46.206541 -42.721616 
L 46.275782 -42.04166 
L 46.362262 -41.361704 
L 46.468945 -40.681748 
L 46.598951 -40.001792 
L 46.755457 -39.321837 
L 46.941586 -38.641881 
L 47.160271 -37.961925 
L 47.414099 -37.281969 
L 47.70514 -36.602013 
L 48.034772 -35.922057 
L 48.403503 -35.242101 
L 48.810809 -34.562146 
L 49.254983 -33.88219 
L 49.733023 -33.202234 
L 50.240548 -32.522278 
L 50.771776 -31.842322 
L 51.319546 -31.162366 
L 51.875406 -30.482411 
L 52.42977 -29.802455 
L 52.972127 -29.122499 
L 53.49133 -28.442543 
L 53.975924 -27.762587 
L 54.414526 -27.082631 
L 54.796238 -26.402675 
L 55.111068 -25.72272 
L 55.350342 -25.042764 
L 55.507091 -24.362808 
L 55.576379 -23.682852 
L 55.555561 -23.002896 
L 55.444448 -22.32294 
L 55.245359 -21.642984 
L 54.963068 -20.963029 
L 54.604629 -20.283073 
L 54.179095 -19.603117 
L 53.697148 -18.923161 
L 53.170652 -18.243205 
L 52.612162 -17.563249 
L 52.034417 -16.883294 
L 51.449849 -16.203338 
L 50.870126 -15.523382 
L 50.305768 -14.843426 
L 49.765846 -14.16347 
L 49.257768 -13.483514 
L 48.787178 -12.803558 
L 48.357938 -12.123603 
L 47.972209 -11.443647 
L 47.630595 -10.763691 
z
" style="stroke: #6f6f6f; stroke-width: 0.15"/>
    </defs>
    <g clip-path="url(#p7cf55035de)">
     <use xlink:href="#me796337950" x="0" y="84.96" style="fill: #f2aba8; stroke: #6f6f6f; stroke-width: 0.15"/>
    </g>
   </g>
   <g id="PolyCollection_3">
    <defs>
     <path id="m963fd8cf1d" d="M 72.677617 -14.730445 
L 67.257011 -14.730445 
L 66.790093 -15.065752 
L 66.283461 -15.40106 
L 65.742597 -15.736368 
L 65.174934 -16.071676 
L 64.589767 -16.406984 
L 63.998039 -16.742292 
L 63.412002 -17.0776 
L 62.844764 -17.412908 
L 62.309739 -17.748216 
L 61.820028 -18.083524 
L 61.387774 -18.418832 
L 61.023532 -18.75414 
L 60.735695 -19.089448 
L 60.530031 -19.424756 
L 60.409352 -19.760064 
L 60.373357 -20.095372 
L 60.418656 -20.430679 
L 60.538975 -20.765987 
L 60.725536 -21.101295 
L 60.967576 -21.436603 
L 61.252972 -21.771911 
L 61.568926 -22.107219 
L 61.902658 -22.442527 
L 62.242066 -22.777835 
L 62.576296 -23.113143 
L 62.896205 -23.448451 
L 63.194674 -23.783759 
L 63.466777 -24.119067 
L 63.709789 -24.454375 
L 63.92306 -24.789683 
L 64.10776 -25.124991 
L 64.266547 -25.460299 
L 64.403161 -25.795606 
L 64.522004 -26.130914 
L 64.627726 -26.466222 
L 64.724846 -26.80153 
L 64.817443 -27.136838 
L 64.908909 -27.472146 
L 65.001812 -27.807454 
L 65.097827 -28.142762 
L 65.197769 -28.47807 
L 65.30169 -28.813378 
L 65.409037 -29.148686 
L 65.518848 -29.483994 
L 65.629967 -29.819302 
L 65.741254 -30.15461 
L 65.851767 -30.489918 
L 65.960914 -30.825226 
L 66.068543 -31.160533 
L 66.174977 -31.495841 
L 66.280988 -31.831149 
L 66.387717 -32.166457 
L 66.496543 -32.501765 
L 66.608924 -32.837073 
L 66.726218 -33.172381 
L 66.849504 -33.507689 
L 66.979422 -33.842997 
L 67.116045 -34.178305 
L 67.258792 -34.513613 
L 67.406391 -34.848921 
L 67.5569 -35.184229 
L 67.70777 -35.519537 
L 67.85596 -35.854845 
L 67.998092 -36.190152 
L 68.13062 -36.52546 
L 68.250026 -36.860768 
L 68.353011 -37.196076 
L 68.436682 -37.531384 
L 68.498712 -37.866692 
L 68.537491 -38.202 
L 68.552223 -38.537308 
L 68.543006 -38.872616 
L 68.510855 -39.207924 
L 68.457698 -39.543232 
L 68.386319 -39.87854 
L 68.300265 -40.213848 
L 68.203717 -40.549156 
L 68.101324 -40.884464 
L 67.998016 -41.219772 
L 67.898792 -41.555079 
L 67.808507 -41.890387 
L 67.731658 -42.225695 
L 67.672182 -42.561003 
L 67.633289 -42.896311 
L 67.617323 -43.231619 
L 67.625675 -43.566927 
L 67.658742 -43.902235 
L 67.71594 -44.237543 
L 67.795774 -44.572851 
L 67.895945 -44.908159 
L 68.013499 -45.243467 
L 68.145009 -45.578775 
L 68.286755 -45.914083 
L 68.434927 -46.249391 
L 68.585796 -46.584699 
L 68.735879 -46.920006 
L 68.882067 -47.255314 
L 69.02172 -47.590622 
L 69.152727 -47.92593 
L 70.7819 -47.92593 
L 70.7819 -47.92593 
L 70.912908 -47.590622 
L 71.052561 -47.255314 
L 71.198749 -46.920006 
L 71.348832 -46.584699 
L 71.499701 -46.249391 
L 71.647873 -45.914083 
L 71.789619 -45.578775 
L 71.921128 -45.243467 
L 72.038683 -44.908159 
L 72.138854 -44.572851 
L 72.218688 -44.237543 
L 72.275886 -43.902235 
L 72.308953 -43.566927 
L 72.317305 -43.231619 
L 72.301339 -42.896311 
L 72.262446 -42.561003 
L 72.20297 -42.225695 
L 72.126121 -41.890387 
L 72.035836 -41.555079 
L 71.936612 -41.219772 
L 71.833304 -40.884464 
L 71.730911 -40.549156 
L 71.634363 -40.213848 
L 71.548309 -39.87854 
L 71.476929 -39.543232 
L 71.423773 -39.207924 
L 71.391622 -38.872616 
L 71.382405 -38.537308 
L 71.397137 -38.202 
L 71.435916 -37.866692 
L 71.497946 -37.531384 
L 71.581616 -37.196076 
L 71.684602 -36.860768 
L 71.804008 -36.52546 
L 71.936536 -36.190152 
L 72.078668 -35.854845 
L 72.226858 -35.519537 
L 72.377728 -35.184229 
L 72.528236 -34.848921 
L 72.675836 -34.513613 
L 72.818583 -34.178305 
L 72.955206 -33.842997 
L 73.085124 -33.507689 
L 73.20841 -33.172381 
L 73.325704 -32.837073 
L 73.438085 -32.501765 
L 73.546911 -32.166457 
L 73.65364 -31.831149 
L 73.759651 -31.495841 
L 73.866085 -31.160533 
L 73.973714 -30.825226 
L 74.082861 -30.489918 
L 74.193374 -30.15461 
L 74.304661 -29.819302 
L 74.41578 -29.483994 
L 74.525591 -29.148686 
L 74.632938 -28.813378 
L 74.736858 -28.47807 
L 74.836801 -28.142762 
L 74.932816 -27.807454 
L 75.025719 -27.472146 
L 75.117185 -27.136838 
L 75.209781 -26.80153 
L 75.306902 -26.466222 
L 75.412624 -26.130914 
L 75.531467 -25.795606 
L 75.668081 -25.460299 
L 75.826868 -25.124991 
L 76.011568 -24.789683 
L 76.224839 -24.454375 
L 76.467851 -24.119067 
L 76.739954 -23.783759 
L 77.038423 -23.448451 
L 77.358332 -23.113143 
L 77.692562 -22.777835 
L 78.031969 -22.442527 
L 78.365702 -22.107219 
L 78.681656 -21.771911 
L 78.967052 -21.436603 
L 79.209091 -21.101295 
L 79.395653 -20.765987 
L 79.515972 -20.430679 
L 79.561271 -20.095372 
L 79.525276 -19.760064 
L 79.404597 -19.424756 
L 79.198933 -19.089448 
L 78.911096 -18.75414 
L 78.546854 -18.418832 
L 78.1146 -18.083524 
L 77.624889 -17.748216 
L 77.089864 -17.412908 
L 76.522626 -17.0776 
L 75.936589 -16.742292 
L 75.34486 -16.406984 
L 74.759693 -16.071676 
L 74.192031 -15.736368 
L 73.651167 -15.40106 
L 73.144535 -15.065752 
L 72.677617 -14.730445 
z
" style="stroke: #6f6f6f; stroke-width: 0.15"/>
    </defs>
    <g clip-path="url(#p7cf55035de)">
     <use xlink:href="#m963fd8cf1d" x="0" y="84.96" style="fill: #d3c4f6; stroke: #6f6f6f; stroke-width: 0.15"/>
    </g>
   </g>
   <g id="line2d_9">
    <path d="M 21.99753 65.703651 
L 21.99753 64.778118 
" clip-path="url(#p7cf55035de)" style="fill: none; stroke: #8c8c8c; stroke-width: 0.75; stroke-linecap: round"/>
   </g>
   <g id="line2d_10">
    <path d="M 21.99753 65.530283 
L 21.99753 65.055586 
" clip-path="url(#p7cf55035de)" style="fill: none; stroke: #8c8c8c; stroke-width: 4; stroke-linecap: round"/>
   </g>
   <g id="line2d_11">
    <path d="M 21.99753 65.389297 
" clip-path="url(#p7cf55035de)" style="fill: none; stroke: #6f6f6f; stroke-width: 1.2; stroke-linecap: round"/>
    <defs>
     <path id="m82232467e2" d="M 0 0.833333 
C 0.221003 0.833333 0.432983 0.745528 0.589256 0.589256 
C 0.745528 0.432983 0.833333 0.221003 0.833333 0 
C 0.833333 -0.221003 0.745528 -0.432983 0.589256 -0.589256 
C 0.432983 -0.745528 0.221003 -0.833333 0 -0.833333 
C -0.221003 -0.833333 -0.432983 -0.745528 -0.589256 -0.589256 
C -0.745528 -0.432983 -0.833333 -0.221003 -0.833333 0 
C -0.833333 0.221003 -0.745528 0.432983 -0.589256 0.589256 
C -0.432983 0.745528 -0.221003 0.833333 0 0.833333 
z
" style="stroke: #ffffff; stroke-width: 0.8"/>
    </defs>
    <g clip-path="url(#p7cf55035de)">
     <use xlink:href="#m82232467e2" x="21.99753" y="65.389297" style="fill: #ffffff; stroke: #ffffff; stroke-width: 0.8"/>
    </g>
   </g>
   <g id="line2d_12">
    <path d="M 45.982422 65.511926 
L 45.982422 55.317115 
" clip-path="url(#p7cf55035de)" style="fill: none; stroke: #8c8c8c; stroke-width: 0.75; stroke-linecap: round"/>
   </g>
   <g id="line2d_13">
    <path d="M 45.982422 63.040624 
L 45.982422 57.395326 
" clip-path="url(#p7cf55035de)" style="fill: none; stroke: #8c8c8c; stroke-width: 4; stroke-linecap: round"/>
   </g>
   <g id="line2d_14">
    <path d="M 45.982422 61.132751 
" clip-path="url(#p7cf55035de)" style="fill: none; stroke: #6f6f6f; stroke-width: 1.2; stroke-linecap: round"/>
    <g clip-path="url(#p7cf55035de)">
     <use xlink:href="#m82232467e2" x="45.982422" y="61.132751" style="fill: #ffffff; stroke: #ffffff; stroke-width: 0.8"/>
    </g>
   </g>
   <g id="line2d_15">
    <path d="M 69.967314 65.675247 
L 69.967314 41.588378 
" clip-path="url(#p7cf55035de)" style="fill: none; stroke: #8c8c8c; stroke-width: 0.75; stroke-linecap: round"/>
   </g>
   <g id="line2d_16">
    <path d="M 69.967314 65.498046 
L 69.967314 55.166177 
" clip-path="url(#p7cf55035de)" style="fill: none; stroke: #8c8c8c; stroke-width: 4; stroke-linecap: round"/>
   </g>
   <g id="line2d_17">
    <path d="M 69.967314 61.665465 
" clip-path="url(#p7cf55035de)" style="fill: none; stroke: #6f6f6f; stroke-width: 1.2; stroke-linecap: round"/>
    <g clip-path="url(#p7cf55035de)">
     <use xlink:href="#m82232467e2" x="69.967314" y="61.665465" style="fill: #ffffff; stroke: #ffffff; stroke-width: 0.8"/>
    </g>
   </g>
   <g id="patch_3">
    <path d="M 10.005084 74.419526 
L 10.005084 4.076256 
" style="fill: none; stroke: #777777; stroke-width: 0.5; stroke-linejoin: miter; stroke-linecap: square"/>
   </g>
   <g id="patch_4">
    <path d="M 10.005084 76.919526 
L 81.95976 76.919526 
" style="fill: none; stroke: #777777; stroke-width: 0.5; stroke-linejoin: miter; stroke-linecap: square"/>
   </g>
  </g>
 </g>
 <defs>
  <clipPath id="p7cf55035de">
   <rect x="10.005084" y="4.076256" width="71.954676" height="70.34327"/>
  </clipPath>
 </defs>
</svg>
