<?xml version="1.0" encoding="utf-8" standalone="no"?>
<!DOCTYPE svg PUBLIC "-//W3C//DTD SVG 1.1//EN"
  "http://www.w3.org/Graphics/SVG/1.1/DTD/svg11.dtd">
<svg xmlns:xlink="http://www.w3.org/1999/xlink" width="56.16pt" height="84.96pt" viewBox="0 0 56.16 84.96" xmlns="http://www.w3.org/2000/svg" version="1.1">
 <metadata>
  <rdf:RDF xmlns:dc="http://purl.org/dc/elements/1.1/" xmlns:cc="http://creativecommons.org/ns#" xmlns:rdf="http://www.w3.org/1999/02/22-rdf-syntax-ns#">
   <cc:Work>
    <dc:type rdf:resource="http://purl.org/dc/dcmitype/StillImage"/>
    <dc:date>2024-05-27T15:37:01.779858</dc:date>
    <dc:format>image/svg+xml</dc:format>
    <dc:creator>
     <cc:Agent>
      <dc:title>Matplotlib v3.8.3, https://matplotlib.org/</dc:title>
     </cc:Agent>
    </dc:creator>
   </cc:Work>
  </rdf:RDF>
 </metadata>
 <defs>
  <style type="text/css">*{stroke-linejoin: round; stroke-linecap: butt}</style>
 </defs>
 <g id="figure_1">
  <g id="patch_1">
   <path d="M 0 84.96 
L 56.16 84.96 
L 56.16 0 
L 0 0 
z
" style="fill: #ffffff"/>
  </g>
  <g id="axes_1">
   <g id="patch_2">
    <path d="M 10.005084 74.419526 
L 53.15976 74.419526 
L 53.15976 4.076256 
L 10.005084 4.076256 
z
" style="fill: #ffffff"/>
   </g>
   <g id="matplotlib.axis_1">
    <g id="xtick_1">
     <g id="text_1">
      <!-- EOMES+ Cells -->
      <g style="fill: #333333" transform="translate(9.075042 81.230229) scale(0.035 -0.035)">
       <defs>
        <path id="Helvetica-45" d="M 547 4591 
L 3894 4591 
L 3894 4028 
L 1153 4028 
L 1153 2634 
L 3688 2634 
L 3688 2103 
L 1153 2103 
L 1153 547 
L 3941 547 
L 3941 0 
L 547 0 
L 547 4591 
z
M 2244 4591 
L 2244 4591 
z
" transform="scale(0.015625)"/>
        <path id="Helvetica-4f" d="M 2469 4716 
Q 3684 4716 4269 3934 
Q 4725 3325 4725 2375 
Q 4725 1347 4203 666 
Q 3591 -134 2456 -134 
Q 1397 -134 791 566 
Q 250 1241 250 2272 
Q 250 3203 713 3866 
Q 1306 4716 2469 4716 
z
M 2531 422 
Q 3353 422 3720 1011 
Q 4088 1600 4088 2366 
Q 4088 3175 3664 3669 
Q 3241 4163 2506 4163 
Q 1794 4163 1344 3673 
Q 894 3184 894 2231 
Q 894 1469 1280 945 
Q 1666 422 2531 422 
z
M 2488 4716 
L 2488 4716 
z
" transform="scale(0.015625)"/>
        <path id="Helvetica-4d" d="M 472 4591 
L 1363 4591 
L 2681 709 
L 3991 4591 
L 4872 4591 
L 4872 0 
L 4281 0 
L 4281 2709 
Q 4281 2850 4287 3175 
Q 4294 3500 4294 3872 
L 2984 0 
L 2369 0 
L 1050 3872 
L 1050 3731 
Q 1050 3563 1058 3217 
Q 1066 2872 1066 2709 
L 1066 0 
L 472 0 
L 472 4591 
z
" transform="scale(0.015625)"/>
        <path id="Helvetica-53" d="M 894 1481 
Q 916 1091 1078 847 
Q 1388 391 2169 391 
Q 2519 391 2806 491 
Q 3363 684 3363 1184 
Q 3363 1559 3128 1719 
Q 2891 1875 2384 1991 
L 1763 2131 
Q 1153 2269 900 2434 
Q 463 2722 463 3294 
Q 463 3913 891 4309 
Q 1319 4706 2103 4706 
Q 2825 4706 3329 4357 
Q 3834 4009 3834 3244 
L 3250 3244 
Q 3203 3613 3050 3809 
Q 2766 4169 2084 4169 
Q 1534 4169 1293 3937 
Q 1053 3706 1053 3400 
Q 1053 3063 1334 2906 
Q 1519 2806 2169 2656 
L 2813 2509 
Q 3278 2403 3531 2219 
Q 3969 1897 3969 1284 
Q 3969 522 3414 194 
Q 2859 -134 2125 -134 
Q 1269 -134 784 303 
Q 300 738 309 1481 
L 894 1481 
z
M 2150 4716 
L 2150 4716 
z
" transform="scale(0.015625)"/>
        <path id="Helvetica-2b" d="M 288 1369 
L 288 1894 
L 1650 1894 
L 1650 3266 
L 2184 3266 
L 2184 1894 
L 3547 1894 
L 3547 1369 
L 2184 1369 
L 2184 0 
L 1650 0 
L 1650 1369 
L 288 1369 
z
" transform="scale(0.015625)"/>
        <path id="Helvetica-20" transform="scale(0.015625)"/>
        <path id="Helvetica-43" d="M 2422 4716 
Q 3294 4716 3775 4256 
Q 4256 3797 4309 3213 
L 3703 3213 
Q 3600 3656 3292 3915 
Q 2984 4175 2428 4175 
Q 1750 4175 1333 3698 
Q 916 3222 916 2238 
Q 916 1431 1292 929 
Q 1669 428 2416 428 
Q 3103 428 3463 956 
Q 3653 1234 3747 1688 
L 4353 1688 
Q 4272 963 3816 472 
Q 3269 -119 2341 -119 
Q 1541 -119 997 366 
Q 281 1006 281 2344 
Q 281 3359 819 4009 
Q 1400 4716 2422 4716 
z
M 2297 4716 
L 2297 4716 
z
" transform="scale(0.015625)"/>
        <path id="Helvetica-65" d="M 1806 3422 
Q 2163 3422 2497 3255 
Q 2831 3088 3006 2822 
Q 3175 2569 3231 2231 
Q 3281 2000 3281 1494 
L 828 1494 
Q 844 984 1069 676 
Q 1294 369 1766 369 
Q 2206 369 2469 659 
Q 2619 828 2681 1050 
L 3234 1050 
Q 3213 866 3089 639 
Q 2966 413 2813 269 
Q 2556 19 2178 -69 
Q 1975 -119 1719 -119 
Q 1094 -119 659 336 
Q 225 791 225 1609 
Q 225 2416 662 2919 
Q 1100 3422 1806 3422 
z
M 2703 1941 
Q 2669 2306 2544 2525 
Q 2313 2931 1772 2931 
Q 1384 2931 1121 2651 
Q 859 2372 844 1941 
L 2703 1941 
z
M 1753 3428 
L 1753 3428 
z
" transform="scale(0.015625)"/>
        <path id="Helvetica-6c" d="M 428 4591 
L 991 4591 
L 991 0 
L 428 0 
L 428 4591 
z
" transform="scale(0.015625)"/>
        <path id="Helvetica-73" d="M 747 1050 
Q 772 769 888 619 
Q 1100 347 1625 347 
Q 1938 347 2175 483 
Q 2413 619 2413 903 
Q 2413 1119 2222 1231 
Q 2100 1300 1741 1391 
L 1294 1503 
Q 866 1609 663 1741 
Q 300 1969 300 2372 
Q 300 2847 642 3140 
Q 984 3434 1563 3434 
Q 2319 3434 2653 2991 
Q 2863 2709 2856 2384 
L 2325 2384 
Q 2309 2575 2191 2731 
Q 1997 2953 1519 2953 
Q 1200 2953 1036 2831 
Q 872 2709 872 2509 
Q 872 2291 1088 2159 
Q 1213 2081 1456 2022 
L 1828 1931 
Q 2434 1784 2641 1647 
Q 2969 1431 2969 969 
Q 2969 522 2630 197 
Q 2291 -128 1597 -128 
Q 850 -128 539 211 
Q 228 550 206 1050 
L 747 1050 
z
M 1578 3428 
L 1578 3428 
z
" transform="scale(0.015625)"/>
       </defs>
       <use xlink:href="#Helvetica-45"/>
       <use xlink:href="#Helvetica-4f" x="66.699219"/>
       <use xlink:href="#Helvetica-4d" x="144.482422"/>
       <use xlink:href="#Helvetica-45" x="227.783203"/>
       <use xlink:href="#Helvetica-53" x="294.482422"/>
       <use xlink:href="#Helvetica-2b" x="361.181641"/>
       <use xlink:href="#Helvetica-20" x="419.580078"/>
       <use xlink:href="#Helvetica-43" x="447.363281"/>
       <use xlink:href="#Helvetica-65" x="519.580078"/>
       <use xlink:href="#Helvetica-6c" x="575.195312"/>
       <use xlink:href="#Helvetica-6c" x="597.412109"/>
       <use xlink:href="#Helvetica-73" x="619.628906"/>
      </g>
     </g>
    </g>
    <g id="xtick_2">
     <g id="text_2">
      <!-- TBX+ Cells -->
      <g style="fill: #333333" transform="translate(33.569685 81.230229) scale(0.035 -0.035)">
       <defs>
        <path id="Helvetica-54" d="M 3828 4591 
L 3828 4044 
L 2281 4044 
L 2281 0 
L 1650 0 
L 1650 4044 
L 103 4044 
L 103 4591 
L 3828 4591 
z
" transform="scale(0.015625)"/>
        <path id="Helvetica-42" d="M 2213 2650 
Q 2606 2650 2825 2759 
Q 3169 2931 3169 3378 
Q 3169 3828 2803 3984 
Q 2597 4072 2191 4072 
L 1081 4072 
L 1081 2650 
L 2213 2650 
z
M 2422 531 
Q 2994 531 3238 863 
Q 3391 1072 3391 1369 
Q 3391 1869 2944 2050 
Q 2706 2147 2316 2147 
L 1081 2147 
L 1081 531 
L 2422 531 
z
M 472 4591 
L 2444 4591 
Q 3250 4591 3591 4109 
Q 3791 3825 3791 3453 
Q 3791 3019 3544 2741 
Q 3416 2594 3175 2472 
Q 3528 2338 3703 2169 
Q 4013 1869 4013 1341 
Q 4013 897 3734 538 
Q 3319 0 2413 0 
L 472 0 
L 472 4591 
z
" transform="scale(0.015625)"/>
        <path id="Helvetica-58" d="M 881 0 
L 131 0 
L 1775 2353 
L 234 4591 
L 1013 4591 
L 2184 2834 
L 3347 4591 
L 4088 4591 
L 2547 2353 
L 4163 0 
L 3391 0 
L 2153 1888 
L 881 0 
z
" transform="scale(0.015625)"/>
       </defs>
       <use xlink:href="#Helvetica-54"/>
       <use xlink:href="#Helvetica-42" x="61.083984"/>
       <use xlink:href="#Helvetica-58" x="127.783203"/>
       <use xlink:href="#Helvetica-2b" x="194.482422"/>
       <use xlink:href="#Helvetica-20" x="252.880859"/>
       <use xlink:href="#Helvetica-43" x="280.664062"/>
       <use xlink:href="#Helvetica-65" x="352.880859"/>
       <use xlink:href="#Helvetica-6c" x="408.496094"/>
       <use xlink:href="#Helvetica-6c" x="430.712891"/>
       <use xlink:href="#Helvetica-73" x="452.929688"/>
      </g>
     </g>
    </g>
   </g>
   <g id="matplotlib.axis_2">
    <g id="ytick_1">
     <g id="line2d_1">
      <defs>
       <path id="mac2d5d3619" d="M 0 0 
L -1 0 
" style="stroke: #777777; stroke-width: 0.5"/>
      </defs>
      <g>
       <use xlink:href="#mac2d5d3619" x="10.005084" y="66.189518" style="fill: #777777; stroke: #777777; stroke-width: 0.5"/>
      </g>
     </g>
     <g id="text_3">
      <!-- 0 -->
      <g style="fill: #333333" transform="translate(6.336802 67.265534) scale(0.03 -0.03)">
       <defs>
        <path id="Helvetica-30" d="M 1731 4475 
Q 2600 4475 2988 3759 
Q 3288 3206 3288 2244 
Q 3288 1331 3016 734 
Q 2622 -122 1728 -122 
Q 922 -122 528 578 
Q 200 1163 200 2147 
Q 200 2909 397 3456 
Q 766 4475 1731 4475 
z
M 1725 391 
Q 2163 391 2422 778 
Q 2681 1166 2681 2222 
Q 2681 2984 2493 3476 
Q 2306 3969 1766 3969 
Q 1269 3969 1039 3501 
Q 809 3034 809 2125 
Q 809 1441 956 1025 
Q 1181 391 1725 391 
z
" transform="scale(0.015625)"/>
       </defs>
       <use xlink:href="#Helvetica-30"/>
      </g>
     </g>
    </g>
    <g id="ytick_2">
     <g id="line2d_2">
      <g>
       <use xlink:href="#mac2d5d3619" x="10.005084" y="55.837308" style="fill: #777777; stroke: #777777; stroke-width: 0.5"/>
      </g>
     </g>
     <g id="text_4">
      <!-- 20 -->
      <g style="fill: #333333" transform="translate(4.668521 56.913323) scale(0.03 -0.03)">
       <defs>
        <path id="Helvetica-32" d="M 200 0 
Q 231 578 439 1006 
Q 647 1434 1250 1784 
L 1850 2131 
Q 2253 2366 2416 2531 
Q 2672 2791 2672 3125 
Q 2672 3516 2437 3745 
Q 2203 3975 1813 3975 
Q 1234 3975 1013 3538 
Q 894 3303 881 2888 
L 309 2888 
Q 319 3472 525 3841 
Q 891 4491 1816 4491 
Q 2584 4491 2939 4075 
Q 3294 3659 3294 3150 
Q 3294 2613 2916 2231 
Q 2697 2009 2131 1694 
L 1703 1456 
Q 1397 1288 1222 1134 
Q 909 863 828 531 
L 3272 531 
L 3272 0 
L 200 0 
z
" transform="scale(0.015625)"/>
       </defs>
       <use xlink:href="#Helvetica-32"/>
       <use xlink:href="#Helvetica-30" x="55.615234"/>
      </g>
     </g>
    </g>
    <g id="ytick_3">
     <g id="line2d_3">
      <g>
       <use xlink:href="#mac2d5d3619" x="10.005084" y="45.485097" style="fill: #777777; stroke: #777777; stroke-width: 0.5"/>
      </g>
     </g>
     <g id="text_5">
      <!-- 40 -->
      <g style="fill: #333333" transform="translate(4.668521 46.561113) scale(0.03 -0.03)">
       <defs>
        <path id="Helvetica-34" d="M 2116 1584 
L 2116 3613 
L 681 1584 
L 2116 1584 
z
M 2125 0 
L 2125 1094 
L 163 1094 
L 163 1644 
L 2213 4488 
L 2688 4488 
L 2688 1584 
L 3347 1584 
L 3347 1094 
L 2688 1094 
L 2688 0 
L 2125 0 
z
" transform="scale(0.015625)"/>
       </defs>
       <use xlink:href="#Helvetica-34"/>
       <use xlink:href="#Helvetica-30" x="55.615234"/>
      </g>
     </g>
    </g>
    <g id="ytick_4">
     <g id="line2d_4">
      <g>
       <use xlink:href="#mac2d5d3619" x="10.005084" y="35.132887" style="fill: #777777; stroke: #777777; stroke-width: 0.5"/>
      </g>
     </g>
     <g id="text_6">
      <!-- 60 -->
      <g style="fill: #333333" transform="translate(4.668521 36.208903) scale(0.03 -0.03)">
       <defs>
        <path id="Helvetica-36" d="M 1872 4494 
Q 2622 4494 2917 4105 
Q 3213 3716 3213 3303 
L 2656 3303 
Q 2606 3569 2497 3719 
Q 2294 4000 1881 4000 
Q 1409 4000 1131 3564 
Q 853 3128 822 2316 
Q 1016 2600 1309 2741 
Q 1578 2866 1909 2866 
Q 2472 2866 2890 2506 
Q 3309 2147 3309 1434 
Q 3309 825 2912 354 
Q 2516 -116 1781 -116 
Q 1153 -116 697 361 
Q 241 838 241 1966 
Q 241 2800 444 3381 
Q 834 4494 1872 4494 
z
M 1831 384 
Q 2275 384 2495 682 
Q 2716 981 2716 1388 
Q 2716 1731 2519 2042 
Q 2322 2353 1803 2353 
Q 1441 2353 1167 2112 
Q 894 1872 894 1388 
Q 894 963 1142 673 
Q 1391 384 1831 384 
z
" transform="scale(0.015625)"/>
       </defs>
       <use xlink:href="#Helvetica-36"/>
       <use xlink:href="#Helvetica-30" x="55.615234"/>
      </g>
     </g>
    </g>
    <g id="ytick_5">
     <g id="line2d_5">
      <g>
       <use xlink:href="#mac2d5d3619" x="10.005084" y="24.780677" style="fill: #777777; stroke: #777777; stroke-width: 0.5"/>
      </g>
     </g>
     <g id="text_7">
      <!-- 80 -->
      <g style="fill: #333333" transform="translate(4.668521 25.856692) scale(0.03 -0.03)">
       <defs>
        <path id="Helvetica-38" d="M 1741 2600 
Q 2113 2600 2322 2808 
Q 2531 3016 2531 3303 
Q 2531 3553 2331 3762 
Q 2131 3972 1722 3972 
Q 1316 3972 1134 3762 
Q 953 3553 953 3272 
Q 953 2956 1187 2778 
Q 1422 2600 1741 2600 
z
M 1775 384 
Q 2166 384 2423 595 
Q 2681 806 2681 1225 
Q 2681 1659 2415 1884 
Q 2150 2109 1734 2109 
Q 1331 2109 1076 1879 
Q 822 1650 822 1244 
Q 822 894 1055 639 
Q 1288 384 1775 384 
z
M 975 2384 
Q 741 2484 609 2619 
Q 363 2869 363 3269 
Q 363 3769 725 4128 
Q 1088 4488 1753 4488 
Q 2397 4488 2762 4148 
Q 3128 3809 3128 3356 
Q 3128 2938 2916 2678 
Q 2797 2531 2547 2391 
Q 2825 2263 2984 2097 
Q 3281 1784 3281 1284 
Q 3281 694 2884 283 
Q 2488 -128 1763 -128 
Q 1109 -128 657 226 
Q 206 581 206 1256 
Q 206 1653 400 1942 
Q 594 2231 975 2384 
z
" transform="scale(0.015625)"/>
       </defs>
       <use xlink:href="#Helvetica-38"/>
       <use xlink:href="#Helvetica-30" x="55.615234"/>
      </g>
     </g>
    </g>
    <g id="ytick_6">
     <g id="line2d_6">
      <g>
       <use xlink:href="#mac2d5d3619" x="10.005084" y="14.428466" style="fill: #777777; stroke: #777777; stroke-width: 0.5"/>
      </g>
     </g>
     <g id="text_8">
      <!-- 100 -->
      <g style="fill: #333333" transform="translate(3.00024 15.504482) scale(0.03 -0.03)">
       <defs>
        <path id="Helvetica-31" d="M 613 3169 
L 613 3600 
Q 1222 3659 1462 3798 
Q 1703 3938 1822 4456 
L 2266 4456 
L 2266 0 
L 1666 0 
L 1666 3169 
L 613 3169 
z
" transform="scale(0.015625)"/>
       </defs>
       <use xlink:href="#Helvetica-31"/>
       <use xlink:href="#Helvetica-30" x="55.615234"/>
       <use xlink:href="#Helvetica-30" x="111.230469"/>
      </g>
     </g>
    </g>
    <g id="ytick_7">
     <g id="line2d_7">
      <g>
       <use xlink:href="#mac2d5d3619" x="10.005084" y="4.076256" style="fill: #777777; stroke: #777777; stroke-width: 0.5"/>
      </g>
     </g>
     <g id="text_9">
      <!-- 120 -->
      <g style="fill: #333333" transform="translate(3.00024 5.152271) scale(0.03 -0.03)">
       <use xlink:href="#Helvetica-31"/>
       <use xlink:href="#Helvetica-32" x="55.615234"/>
       <use xlink:href="#Helvetica-30" x="111.230469"/>
      </g>
     </g>
    </g>
   </g>
   <g id="PolyCollection_1">
    <defs>
     <path id="m7803c92639" d="M 21.833354 -18.655182 
L 19.754151 -18.655182 
L 19.559897 -18.663897 
L 19.341048 -18.672613 
L 19.096786 -18.681328 
L 18.82669 -18.690043 
L 18.530801 -18.698758 
L 18.209677 -18.707474 
L 17.864454 -18.716189 
L 17.496882 -18.724904 
L 17.109367 -18.733619 
L 16.704988 -18.742334 
L 16.287503 -18.75105 
L 15.861332 -18.759765 
L 15.431519 -18.76848 
L 15.003666 -18.777195 
L 14.583835 -18.78591 
L 14.178425 -18.794626 
L 13.794009 -18.803341 
L 13.437151 -18.812056 
L 13.114201 -18.820771 
L 12.831074 -18.829486 
L 12.593027 -18.838202 
L 12.404452 -18.846917 
L 12.268684 -18.855632 
L 12.18786 -18.864347 
L 12.162818 -18.873063 
L 12.193056 -18.881778 
L 12.27676 -18.890493 
L 12.410887 -18.899208 
L 12.591311 -18.907923 
L 12.813013 -18.916639 
L 13.070303 -18.925354 
L 13.357065 -18.934069 
L 13.666993 -18.942784 
L 13.993816 -18.951499 
L 14.33149 -18.960215 
L 14.674346 -18.96893 
L 15.017197 -18.977645 
L 15.355391 -18.98636 
L 15.684828 -18.995075 
L 16.00194 -19.003791 
L 16.303643 -19.012506 
L 16.587287 -19.021221 
L 16.8506 -19.029936 
L 17.091643 -19.038651 
L 17.308785 -19.047367 
L 17.500695 -19.056082 
L 17.666362 -19.064797 
L 17.805117 -19.073512 
L 17.916681 -19.082228 
L 18.001196 -19.090943 
L 18.059261 -19.099658 
L 18.091944 -19.108373 
L 18.100765 -19.117088 
L 18.087657 -19.125804 
L 18.054901 -19.134519 
L 18.005023 -19.143234 
L 17.940686 -19.151949 
L 17.864562 -19.160664 
L 17.77921 -19.16938 
L 17.686965 -19.178095 
L 17.589851 -19.18681 
L 17.489522 -19.195525 
L 17.387246 -19.20424 
L 17.283927 -19.212956 
L 17.180159 -19.221671 
L 17.076323 -19.230386 
L 16.972697 -19.239101 
L 16.869588 -19.247817 
L 16.767458 -19.256532 
L 16.667034 -19.265247 
L 16.569402 -19.273962 
L 16.476061 -19.282677 
L 16.388933 -19.291393 
L 16.310338 -19.300108 
L 16.242918 -19.308823 
L 16.189526 -19.317538 
L 16.153092 -19.326253 
L 16.136453 -19.334969 
L 16.142198 -19.343684 
L 16.172497 -19.352399 
L 16.228961 -19.361114 
L 16.312522 -19.369829 
L 16.423354 -19.378545 
L 16.560828 -19.38726 
L 16.723519 -19.395975 
L 16.909249 -19.40469 
L 17.115169 -19.413405 
L 17.337876 -19.422121 
L 17.573558 -19.430836 
L 17.818144 -19.439551 
L 18.067473 -19.448266 
L 18.317447 -19.456982 
L 18.56418 -19.465697 
L 18.804125 -19.474412 
L 19.034174 -19.483127 
L 19.251735 -19.491842 
L 19.454771 -19.500558 
L 19.641818 -19.509273 
L 19.81197 -19.517988 
L 21.775536 -19.517988 
L 21.775536 -19.517988 
L 21.945688 -19.509273 
L 22.132734 -19.500558 
L 22.33577 -19.491842 
L 22.553331 -19.483127 
L 22.783381 -19.474412 
L 23.023326 -19.465697 
L 23.270059 -19.456982 
L 23.520032 -19.448266 
L 23.769361 -19.439551 
L 24.013948 -19.430836 
L 24.24963 -19.422121 
L 24.472337 -19.413405 
L 24.678257 -19.40469 
L 24.863986 -19.395975 
L 25.026678 -19.38726 
L 25.164152 -19.378545 
L 25.274983 -19.369829 
L 25.358544 -19.361114 
L 25.415008 -19.352399 
L 25.445307 -19.343684 
L 25.451052 -19.334969 
L 25.434414 -19.326253 
L 25.397979 -19.317538 
L 25.344588 -19.308823 
L 25.277167 -19.300108 
L 25.198572 -19.291393 
L 25.111445 -19.282677 
L 25.018104 -19.273962 
L 24.920472 -19.265247 
L 24.820048 -19.256532 
L 24.717917 -19.247817 
L 24.614809 -19.239101 
L 24.511183 -19.230386 
L 24.407346 -19.221671 
L 24.303578 -19.212956 
L 24.200259 -19.20424 
L 24.097984 -19.195525 
L 23.997655 -19.18681 
L 23.900541 -19.178095 
L 23.808296 -19.16938 
L 23.722943 -19.160664 
L 23.646819 -19.151949 
L 23.582482 -19.143234 
L 23.532605 -19.134519 
L 23.499848 -19.125804 
L 23.486741 -19.117088 
L 23.495561 -19.108373 
L 23.528244 -19.099658 
L 23.58631 -19.090943 
L 23.670825 -19.082228 
L 23.782388 -19.073512 
L 23.921144 -19.064797 
L 24.08681 -19.056082 
L 24.278721 -19.047367 
L 24.495862 -19.038651 
L 24.736905 -19.029936 
L 25.000218 -19.021221 
L 25.283863 -19.012506 
L 25.585566 -19.003791 
L 25.902677 -18.995075 
L 26.232115 -18.98636 
L 26.570309 -18.977645 
L 26.91316 -18.96893 
L 27.256016 -18.960215 
L 27.59369 -18.951499 
L 27.920513 -18.942784 
L 28.230441 -18.934069 
L 28.517202 -18.925354 
L 28.774493 -18.916639 
L 28.996194 -18.907923 
L 29.176618 -18.899208 
L 29.310746 -18.890493 
L 29.39445 -18.881778 
L 29.424688 -18.873063 
L 29.399646 -18.864347 
L 29.318822 -18.855632 
L 29.183054 -18.846917 
L 28.994478 -18.838202 
L 28.756432 -18.829486 
L 28.473305 -18.820771 
L 28.150355 -18.812056 
L 27.793497 -18.803341 
L 27.40908 -18.794626 
L 27.00367 -18.78591 
L 26.58384 -18.777195 
L 26.155987 -18.76848 
L 25.726174 -18.759765 
L 25.300003 -18.75105 
L 24.882517 -18.742334 
L 24.478138 -18.733619 
L 24.090624 -18.724904 
L 23.723052 -18.716189 
L 23.377828 -18.707474 
L 23.056705 -18.698758 
L 22.760815 -18.690043 
L 22.490719 -18.681328 
L 22.246457 -18.672613 
L 22.027608 -18.663897 
L 21.833354 -18.655182 
z
" style="stroke: #6f6f6f; stroke-width: 0.15"/>
    </defs>
    <g clip-path="url(#p697db2e0fd)">
     <use xlink:href="#m7803c92639" x="0" y="84.96" style="fill: #f2aba8; stroke: #6f6f6f; stroke-width: 0.15"/>
    </g>
   </g>
   <g id="PolyCollection_2">
    <defs>
     <path id="m23fcd90680" d="M 44.327139 -18.240729 
L 40.415043 -18.240729 
L 40.088603 -18.307406 
L 39.732249 -18.374082 
L 39.348125 -18.440758 
L 38.93938 -18.507434 
L 38.510154 -18.574111 
L 38.065518 -18.640787 
L 37.611366 -18.707463 
L 37.154253 -18.77414 
L 36.701197 -18.840816 
L 36.259441 -18.907492 
L 35.836198 -18.974168 
L 35.438395 -19.040845 
L 35.072416 -19.107521 
L 34.743877 -19.174197 
L 34.457439 -19.240873 
L 34.216667 -19.30755 
L 34.023944 -19.374226 
L 33.880453 -19.440902 
L 33.786211 -19.507578 
L 33.740156 -19.574255 
L 33.740285 -19.640931 
L 33.78382 -19.707607 
L 33.867394 -19.774283 
L 33.987238 -19.84096 
L 34.13937 -19.907636 
L 34.319752 -19.974312 
L 34.524422 -20.040988 
L 34.749589 -20.107665 
L 34.991691 -20.174341 
L 35.247417 -20.241017 
L 35.513687 -20.307693 
L 35.787622 -20.37437 
L 36.066482 -20.441046 
L 36.347609 -20.507722 
L 36.628368 -20.574398 
L 36.906104 -20.641075 
L 37.178113 -20.707751 
L 37.441653 -20.774427 
L 37.693963 -20.841104 
L 37.93233 -20.90778 
L 38.154159 -20.974456 
L 38.357075 -21.041132 
L 38.539021 -21.107809 
L 38.698366 -21.174485 
L 38.833986 -21.241161 
L 38.945337 -21.307837 
L 39.032491 -21.374514 
L 39.09614 -21.44119 
L 39.137563 -21.507866 
L 39.158559 -21.574542 
L 39.161346 -21.641219 
L 39.148437 -21.707895 
L 39.122506 -21.774571 
L 39.086243 -21.841247 
L 39.042221 -21.907924 
L 38.992781 -21.9746 
L 38.93994 -22.041276 
L 38.885335 -22.107952 
L 38.8302 -22.174629 
L 38.775378 -22.241305 
L 38.721364 -22.307981 
L 38.668377 -22.374657 
L 38.616441 -22.441334 
L 38.565486 -22.50801 
L 38.515438 -22.574686 
L 38.466309 -22.641362 
L 38.418265 -22.708039 
L 38.371683 -22.774715 
L 38.327175 -22.841391 
L 38.2856 -22.908068 
L 38.248052 -22.974744 
L 38.215826 -23.04142 
L 38.190378 -23.108096 
L 38.173272 -23.174773 
L 38.166116 -23.241449 
L 38.1705 -23.308125 
L 38.187936 -23.374801 
L 38.219792 -23.441478 
L 38.267234 -23.508154 
L 38.331174 -23.57483 
L 38.412218 -23.641506 
L 38.510626 -23.708183 
L 38.62628 -23.774859 
L 38.758662 -23.841535 
L 38.906847 -23.908211 
L 39.069508 -23.974888 
L 39.24494 -24.041564 
L 39.431102 -24.10824 
L 39.625669 -24.174916 
L 39.826107 -24.241593 
L 40.02975 -24.308269 
L 40.233891 -24.374945 
L 40.435873 -24.441621 
L 40.633173 -24.508298 
L 40.823489 -24.574974 
L 41.004802 -24.64165 
L 41.17543 -24.708326 
L 41.334064 -24.775003 
L 41.479779 -24.841679 
L 43.262403 -24.841679 
L 43.262403 -24.841679 
L 43.408118 -24.775003 
L 43.566751 -24.708326 
L 43.73738 -24.64165 
L 43.918692 -24.574974 
L 44.109009 -24.508298 
L 44.306309 -24.441621 
L 44.508291 -24.374945 
L 44.712432 -24.308269 
L 44.916075 -24.241593 
L 45.116513 -24.174916 
L 45.31108 -24.10824 
L 45.497242 -24.041564 
L 45.672674 -23.974888 
L 45.835335 -23.908211 
L 45.98352 -23.841535 
L 46.115902 -23.774859 
L 46.231556 -23.708183 
L 46.329964 -23.641506 
L 46.411008 -23.57483 
L 46.474948 -23.508154 
L 46.52239 -23.441478 
L 46.554246 -23.374801 
L 46.571681 -23.308125 
L 46.576066 -23.241449 
L 46.568909 -23.174773 
L 46.551803 -23.108096 
L 46.526356 -23.04142 
L 46.49413 -22.974744 
L 46.456581 -22.908068 
L 46.415007 -22.841391 
L 46.370499 -22.774715 
L 46.323916 -22.708039 
L 46.275873 -22.641362 
L 46.226744 -22.574686 
L 46.176696 -22.50801 
L 46.125741 -22.441334 
L 46.073805 -22.374657 
L 46.020818 -22.307981 
L 45.966804 -22.241305 
L 45.911982 -22.174629 
L 45.856847 -22.107952 
L 45.802242 -22.041276 
L 45.749401 -21.9746 
L 45.699961 -21.907924 
L 45.655939 -21.841247 
L 45.619676 -21.774571 
L 45.593745 -21.707895 
L 45.580836 -21.641219 
L 45.583623 -21.574542 
L 45.604618 -21.507866 
L 45.646042 -21.44119 
L 45.709691 -21.374514 
L 45.796845 -21.307837 
L 45.908196 -21.241161 
L 46.043816 -21.174485 
L 46.20316 -21.107809 
L 46.385107 -21.041132 
L 46.588023 -20.974456 
L 46.809852 -20.90778 
L 47.048218 -20.841104 
L 47.300529 -20.774427 
L 47.564069 -20.707751 
L 47.836078 -20.641075 
L 48.113814 -20.574398 
L 48.394573 -20.507722 
L 48.6757 -20.441046 
L 48.95456 -20.37437 
L 49.228495 -20.307693 
L 49.494765 -20.241017 
L 49.750491 -20.174341 
L 49.992593 -20.107665 
L 50.21776 -20.040988 
L 50.42243 -19.974312 
L 50.602812 -19.907636 
L 50.754944 -19.84096 
L 50.874788 -19.774283 
L 50.958361 -19.707607 
L 51.001897 -19.640931 
L 51.002026 -19.574255 
L 50.955971 -19.507578 
L 50.861729 -19.440902 
L 50.718238 -19.374226 
L 50.525515 -19.30755 
L 50.284742 -19.240873 
L 49.998305 -19.174197 
L 49.669766 -19.107521 
L 49.303787 -19.040845 
L 48.905984 -18.974168 
L 48.482741 -18.907492 
L 48.040984 -18.840816 
L 47.587928 -18.77414 
L 47.130816 -18.707463 
L 46.676664 -18.640787 
L 46.232028 -18.574111 
L 45.802801 -18.507434 
L 45.394057 -18.440758 
L 45.009933 -18.374082 
L 44.653579 -18.307406 
L 44.327139 -18.240729 
z
" style="stroke: #6f6f6f; stroke-width: 0.15"/>
    </defs>
    <g clip-path="url(#p697db2e0fd)">
     <use xlink:href="#m23fcd90680" x="0" y="84.96" style="fill: #d3c4f6; stroke: #6f6f6f; stroke-width: 0.15"/>
    </g>
   </g>
   <g id="line2d_8">
    <path d="M 20.793753 66.181721 
L 20.793753 65.565109 
" clip-path="url(#p697db2e0fd)" style="fill: none; stroke: #8c8c8c; stroke-width: 0.75; stroke-linecap: round"/>
   </g>
   <g id="line2d_9">
    <path d="M 20.793753 66.09146 
L 20.793753 65.73042 
" clip-path="url(#p697db2e0fd)" style="fill: none; stroke: #8c8c8c; stroke-width: 4; stroke-linecap: round"/>
   </g>
   <g id="line2d_10">
    <path d="M 20.793753 66.008682 
" clip-path="url(#p697db2e0fd)" style="fill: none; stroke: #6f6f6f; stroke-width: 1.2; stroke-linecap: round"/>
    <defs>
     <path id="m1df0421e0c" d="M 0 0.833333 
C 0.221003 0.833333 0.432983 0.745528 0.589256 0.589256 
C 0.745528 0.432983 0.833333 0.221003 0.833333 0 
C 0.833333 -0.221003 0.745528 -0.432983 0.589256 -0.589256 
C 0.432983 -0.745528 0.221003 -0.833333 0 -0.833333 
C -0.221003 -0.833333 -0.432983 -0.745528 -0.589256 -0.589256 
C -0.745528 -0.432983 -0.833333 -0.221003 -0.833333 0 
C -0.833333 0.221003 -0.745528 0.432983 -0.589256 0.589256 
C -0.432983 0.745528 -0.221003 0.833333 0 0.833333 
z
" style="stroke: #ffffff; stroke-width: 0.8"/>
    </defs>
    <g clip-path="url(#p697db2e0fd)">
     <use xlink:href="#m1df0421e0c" x="20.793753" y="66.008682" style="fill: #ffffff; stroke: #ffffff; stroke-width: 0.8"/>
    </g>
   </g>
   <g id="line2d_11">
    <path d="M 42.371091 65.765414 
L 42.371091 61.072177 
" clip-path="url(#p697db2e0fd)" style="fill: none; stroke: #8c8c8c; stroke-width: 0.75; stroke-linecap: round"/>
   </g>
   <g id="line2d_12">
    <path d="M 42.371091 65.441103 
L 42.371091 62.659002 
" clip-path="url(#p697db2e0fd)" style="fill: none; stroke: #8c8c8c; stroke-width: 4; stroke-linecap: round"/>
   </g>
   <g id="line2d_13">
    <path d="M 42.371091 64.559316 
" clip-path="url(#p697db2e0fd)" style="fill: none; stroke: #6f6f6f; stroke-width: 1.2; stroke-linecap: round"/>
    <g clip-path="url(#p697db2e0fd)">
     <use xlink:href="#m1df0421e0c" x="42.371091" y="64.559316" style="fill: #ffffff; stroke: #ffffff; stroke-width: 0.8"/>
    </g>
   </g>
   <g id="patch_3">
    <path d="M 10.005084 74.419526 
L 10.005084 4.076256 
" style="fill: none; stroke: #777777; stroke-width: 0.5; stroke-linejoin: miter; stroke-linecap: square"/>
   </g>
   <g id="patch_4">
    <path d="M 10.005084 76.919526 
L 53.15976 76.919526 
" style="fill: none; stroke: #777777; stroke-width: 0.5; stroke-linejoin: miter; stroke-linecap: square"/>
   </g>
  </g>
 </g>
 <defs>
  <clipPath id="p697db2e0fd">
   <rect x="10.005084" y="4.076256" width="43.154676" height="70.34327"/>
  </clipPath>
 </defs>
</svg>
