<?xml version="1.0" encoding="utf-8" standalone="no"?>
<!DOCTYPE svg PUBLIC "-//W3C//DTD SVG 1.1//EN"
  "http://www.w3.org/Graphics/SVG/1.1/DTD/svg11.dtd">
<svg xmlns:xlink="http://www.w3.org/1999/xlink" width="84.96pt" height="84.96pt" viewBox="0 0 84.96 84.96" xmlns="http://www.w3.org/2000/svg" version="1.1">
 <metadata>
  <rdf:RDF xmlns:dc="http://purl.org/dc/elements/1.1/" xmlns:cc="http://creativecommons.org/ns#" xmlns:rdf="http://www.w3.org/1999/02/22-rdf-syntax-ns#">
   <cc:Work>
    <dc:type rdf:resource="http://purl.org/dc/dcmitype/StillImage"/>
    <dc:date>2024-05-27T15:37:08.680870</dc:date>
    <dc:format>image/svg+xml</dc:format>
    <dc:creator>
     <cc:Agent>
      <dc:title>Matplotlib v3.8.3, https://matplotlib.org/</dc:title>
     </cc:Agent>
    </dc:creator>
   </cc:Work>
  </rdf:RDF>
 </metadata>
 <defs>
  <style type="text/css">*{stroke-linejoin: round; stroke-linecap: butt}</style>
 </defs>
 <g id="figure_1">
  <g id="patch_1">
   <path d="M 0 84.96 
L 84.96 84.96 
L 84.96 0 
L 0 0 
z
" style="fill: #ffffff"/>
  </g>
  <g id="axes_1">
   <g id="patch_2">
    <path d="M 10.005084 74.419526 
L 81.95976 74.419526 
L 81.95976 4.076256 
L 10.005084 4.076256 
z
" style="fill: #ffffff"/>
   </g>
   <g id="matplotlib.axis_1">
    <g id="xtick_1">
     <g id="text_1">
      <!-- NK/ILC1ie -->
      <g style="fill: #333333" transform="translate(14.021905 81.230229) scale(0.035 -0.035)">
       <defs>
        <path id="Helvetica-4e" d="M 488 4591 
L 1222 4591 
L 3541 872 
L 3541 4591 
L 4131 4591 
L 4131 0 
L 3434 0 
L 1081 3716 
L 1081 0 
L 488 0 
L 488 4591 
z
M 2269 4591 
L 2269 4591 
z
" transform="scale(0.015625)"/>
        <path id="Helvetica-4b" d="M 488 4591 
L 1094 4591 
L 1094 2353 
L 3331 4591 
L 4191 4591 
L 2281 2741 
L 4244 0 
L 3434 0 
L 1828 2303 
L 1094 1600 
L 1094 0 
L 488 0 
L 488 4591 
z
" transform="scale(0.015625)"/>
        <path id="Helvetica-2f" d="M 1456 4591 
L 1931 4591 
L 475 0 
L 0 0 
L 1456 4591 
z
" transform="scale(0.015625)"/>
        <path id="Helvetica-49" d="M 628 4591 
L 1256 4591 
L 1256 0 
L 628 0 
L 628 4591 
z
" transform="scale(0.015625)"/>
        <path id="Helvetica-4c" d="M 488 4591 
L 1109 4591 
L 1109 547 
L 3434 547 
L 3434 0 
L 488 0 
L 488 4591 
z
" transform="scale(0.015625)"/>
        <path id="Helvetica-43" d="M 2422 4716 
Q 3294 4716 3775 4256 
Q 4256 3797 4309 3213 
L 3703 3213 
Q 3600 3656 3292 3915 
Q 2984 4175 2428 4175 
Q 1750 4175 1333 3698 
Q 916 3222 916 2238 
Q 916 1431 1292 929 
Q 1669 428 2416 428 
Q 3103 428 3463 956 
Q 3653 1234 3747 1688 
L 4353 1688 
Q 4272 963 3816 472 
Q 3269 -119 2341 -119 
Q 1541 -119 997 366 
Q 281 1006 281 2344 
Q 281 3359 819 4009 
Q 1400 4716 2422 4716 
z
M 2297 4716 
L 2297 4716 
z
" transform="scale(0.015625)"/>
        <path id="Helvetica-31" d="M 613 3169 
L 613 3600 
Q 1222 3659 1462 3798 
Q 1703 3938 1822 4456 
L 2266 4456 
L 2266 0 
L 1666 0 
L 1666 3169 
L 613 3169 
z
" transform="scale(0.015625)"/>
        <path id="Helvetica-69" d="M 413 3331 
L 984 3331 
L 984 0 
L 413 0 
L 413 3331 
z
M 413 4591 
L 984 4591 
L 984 3953 
L 413 3953 
L 413 4591 
z
" transform="scale(0.015625)"/>
        <path id="Helvetica-65" d="M 1806 3422 
Q 2163 3422 2497 3255 
Q 2831 3088 3006 2822 
Q 3175 2569 3231 2231 
Q 3281 2000 3281 1494 
L 828 1494 
Q 844 984 1069 676 
Q 1294 369 1766 369 
Q 2206 369 2469 659 
Q 2619 828 2681 1050 
L 3234 1050 
Q 3213 866 3089 639 
Q 2966 413 2813 269 
Q 2556 19 2178 -69 
Q 1975 -119 1719 -119 
Q 1094 -119 659 336 
Q 225 791 225 1609 
Q 225 2416 662 2919 
Q 1100 3422 1806 3422 
z
M 2703 1941 
Q 2669 2306 2544 2525 
Q 2313 2931 1772 2931 
Q 1384 2931 1121 2651 
Q 859 2372 844 1941 
L 2703 1941 
z
M 1753 3428 
L 1753 3428 
z
" transform="scale(0.015625)"/>
       </defs>
       <use xlink:href="#Helvetica-4e"/>
       <use xlink:href="#Helvetica-4b" x="72.216797"/>
       <use xlink:href="#Helvetica-2f" x="138.916016"/>
       <use xlink:href="#Helvetica-49" x="166.699219"/>
       <use xlink:href="#Helvetica-4c" x="194.482422"/>
       <use xlink:href="#Helvetica-43" x="250.097656"/>
       <use xlink:href="#Helvetica-31" x="322.314453"/>
       <use xlink:href="#Helvetica-69" x="377.929688"/>
       <use xlink:href="#Helvetica-65" x="400.146484"/>
      </g>
     </g>
    </g>
    <g id="xtick_2">
     <g id="text_2">
      <!-- ILC1 -->
      <g style="fill: #333333" transform="translate(42.286094 81.230229) scale(0.035 -0.035)">
       <use xlink:href="#Helvetica-49"/>
       <use xlink:href="#Helvetica-4c" x="27.783203"/>
       <use xlink:href="#Helvetica-43" x="83.398438"/>
       <use xlink:href="#Helvetica-31" x="155.615234"/>
      </g>
     </g>
    </g>
    <g id="xtick_3">
     <g id="text_3">
      <!-- TH1 -->
      <g style="fill: #333333" transform="translate(66.661455 81.230229) scale(0.035 -0.035)">
       <defs>
        <path id="Helvetica-54" d="M 3828 4591 
L 3828 4044 
L 2281 4044 
L 2281 0 
L 1650 0 
L 1650 4044 
L 103 4044 
L 103 4591 
L 3828 4591 
z
" transform="scale(0.015625)"/>
        <path id="Helvetica-48" d="M 503 4591 
L 1131 4591 
L 1131 2694 
L 3519 2694 
L 3519 4591 
L 4147 4591 
L 4147 0 
L 3519 0 
L 3519 2147 
L 1131 2147 
L 1131 0 
L 503 0 
L 503 4591 
z
" transform="scale(0.015625)"/>
       </defs>
       <use xlink:href="#Helvetica-54"/>
       <use xlink:href="#Helvetica-48" x="61.083984"/>
       <use xlink:href="#Helvetica-31" x="133.300781"/>
      </g>
     </g>
    </g>
   </g>
   <g id="matplotlib.axis_2">
    <g id="ytick_1">
     <g id="line2d_1">
      <defs>
       <path id="m0d3302f50f" d="M 0 0 
L -1 0 
" style="stroke: #777777; stroke-width: 0.5"/>
      </defs>
      <g>
       <use xlink:href="#m0d3302f50f" x="10.005084" y="65.703651" style="fill: #777777; stroke: #777777; stroke-width: 0.5"/>
      </g>
     </g>
     <g id="text_4">
      <!-- 0 -->
      <g style="fill: #333333" transform="translate(6.336803 66.779667) scale(0.03 -0.03)">
       <defs>
        <path id="Helvetica-30" d="M 1731 4475 
Q 2600 4475 2988 3759 
Q 3288 3206 3288 2244 
Q 3288 1331 3016 734 
Q 2622 -122 1728 -122 
Q 922 -122 528 578 
Q 200 1163 200 2147 
Q 200 2909 397 3456 
Q 766 4475 1731 4475 
z
M 1725 391 
Q 2163 391 2422 778 
Q 2681 1166 2681 2222 
Q 2681 2984 2493 3476 
Q 2306 3969 1766 3969 
Q 1269 3969 1039 3501 
Q 809 3034 809 2125 
Q 809 1441 956 1025 
Q 1181 391 1725 391 
z
" transform="scale(0.015625)"/>
       </defs>
       <use xlink:href="#Helvetica-30"/>
      </g>
     </g>
    </g>
    <g id="ytick_2">
     <g id="line2d_2">
      <g>
       <use xlink:href="#m0d3302f50f" x="10.005084" y="56.899737" style="fill: #777777; stroke: #777777; stroke-width: 0.5"/>
      </g>
     </g>
     <g id="text_5">
      <!-- 100 -->
      <g style="fill: #333333" transform="translate(3.00024 57.975753) scale(0.03 -0.03)">
       <use xlink:href="#Helvetica-31"/>
       <use xlink:href="#Helvetica-30" x="55.615234"/>
       <use xlink:href="#Helvetica-30" x="111.230469"/>
      </g>
     </g>
    </g>
    <g id="ytick_3">
     <g id="line2d_3">
      <g>
       <use xlink:href="#m0d3302f50f" x="10.005084" y="48.095824" style="fill: #777777; stroke: #777777; stroke-width: 0.5"/>
      </g>
     </g>
     <g id="text_6">
      <!-- 200 -->
      <g style="fill: #333333" transform="translate(3.00024 49.171839) scale(0.03 -0.03)">
       <defs>
        <path id="Helvetica-32" d="M 200 0 
Q 231 578 439 1006 
Q 647 1434 1250 1784 
L 1850 2131 
Q 2253 2366 2416 2531 
Q 2672 2791 2672 3125 
Q 2672 3516 2437 3745 
Q 2203 3975 1813 3975 
Q 1234 3975 1013 3538 
Q 894 3303 881 2888 
L 309 2888 
Q 319 3472 525 3841 
Q 891 4491 1816 4491 
Q 2584 4491 2939 4075 
Q 3294 3659 3294 3150 
Q 3294 2613 2916 2231 
Q 2697 2009 2131 1694 
L 1703 1456 
Q 1397 1288 1222 1134 
Q 909 863 828 531 
L 3272 531 
L 3272 0 
L 200 0 
z
" transform="scale(0.015625)"/>
       </defs>
       <use xlink:href="#Helvetica-32"/>
       <use xlink:href="#Helvetica-30" x="55.615234"/>
       <use xlink:href="#Helvetica-30" x="111.230469"/>
      </g>
     </g>
    </g>
    <g id="ytick_4">
     <g id="line2d_4">
      <g>
       <use xlink:href="#m0d3302f50f" x="10.005084" y="39.29191" style="fill: #777777; stroke: #777777; stroke-width: 0.5"/>
      </g>
     </g>
     <g id="text_7">
      <!-- 300 -->
      <g style="fill: #333333" transform="translate(3.00024 40.367926) scale(0.03 -0.03)">
       <defs>
        <path id="Helvetica-33" d="M 1663 -122 
Q 869 -122 511 314 
Q 153 750 153 1375 
L 741 1375 
Q 778 941 903 744 
Q 1122 391 1694 391 
Q 2138 391 2406 628 
Q 2675 866 2675 1241 
Q 2675 1703 2392 1887 
Q 2109 2072 1606 2072 
Q 1550 2072 1492 2070 
Q 1434 2069 1375 2066 
L 1375 2563 
Q 1463 2553 1522 2550 
Q 1581 2547 1650 2547 
Q 1966 2547 2169 2647 
Q 2525 2822 2525 3272 
Q 2525 3606 2287 3787 
Q 2050 3969 1734 3969 
Q 1172 3969 956 3594 
Q 838 3388 822 3006 
L 266 3006 
Q 266 3506 466 3856 
Q 809 4481 1675 4481 
Q 2359 4481 2734 4176 
Q 3109 3872 3109 3294 
Q 3109 2881 2888 2625 
Q 2750 2466 2531 2375 
Q 2884 2278 3082 2001 
Q 3281 1725 3281 1325 
Q 3281 684 2859 281 
Q 2438 -122 1663 -122 
z
" transform="scale(0.015625)"/>
       </defs>
       <use xlink:href="#Helvetica-33"/>
       <use xlink:href="#Helvetica-30" x="55.615234"/>
       <use xlink:href="#Helvetica-30" x="111.230469"/>
      </g>
     </g>
    </g>
    <g id="ytick_5">
     <g id="line2d_5">
      <g>
       <use xlink:href="#m0d3302f50f" x="10.005084" y="30.487997" style="fill: #777777; stroke: #777777; stroke-width: 0.5"/>
      </g>
     </g>
     <g id="text_8">
      <!-- 400 -->
      <g style="fill: #333333" transform="translate(3.00024 31.564012) scale(0.03 -0.03)">
       <defs>
        <path id="Helvetica-34" d="M 2116 1584 
L 2116 3613 
L 681 1584 
L 2116 1584 
z
M 2125 0 
L 2125 1094 
L 163 1094 
L 163 1644 
L 2213 4488 
L 2688 4488 
L 2688 1584 
L 3347 1584 
L 3347 1094 
L 2688 1094 
L 2688 0 
L 2125 0 
z
" transform="scale(0.015625)"/>
       </defs>
       <use xlink:href="#Helvetica-34"/>
       <use xlink:href="#Helvetica-30" x="55.615234"/>
       <use xlink:href="#Helvetica-30" x="111.230469"/>
      </g>
     </g>
    </g>
    <g id="ytick_6">
     <g id="line2d_6">
      <g>
       <use xlink:href="#m0d3302f50f" x="10.005084" y="21.684083" style="fill: #777777; stroke: #777777; stroke-width: 0.5"/>
      </g>
     </g>
     <g id="text_9">
      <!-- 500 -->
      <g style="fill: #333333" transform="translate(3.00024 22.760099) scale(0.03 -0.03)">
       <defs>
        <path id="Helvetica-35" d="M 791 1141 
Q 847 659 1238 475 
Q 1438 381 1700 381 
Q 2200 381 2440 700 
Q 2681 1019 2681 1406 
Q 2681 1875 2395 2131 
Q 2109 2388 1709 2388 
Q 1419 2388 1211 2275 
Q 1003 2163 856 1963 
L 369 1991 
L 709 4400 
L 3034 4400 
L 3034 3856 
L 1131 3856 
L 941 2613 
Q 1097 2731 1238 2791 
Q 1488 2894 1816 2894 
Q 2431 2894 2859 2497 
Q 3288 2100 3288 1491 
Q 3288 856 2895 371 
Q 2503 -113 1644 -113 
Q 1097 -113 676 195 
Q 256 503 206 1141 
L 791 1141 
z
" transform="scale(0.015625)"/>
       </defs>
       <use xlink:href="#Helvetica-35"/>
       <use xlink:href="#Helvetica-30" x="55.615234"/>
       <use xlink:href="#Helvetica-30" x="111.230469"/>
      </g>
     </g>
    </g>
    <g id="ytick_7">
     <g id="line2d_7">
      <g>
       <use xlink:href="#m0d3302f50f" x="10.005084" y="12.880169" style="fill: #777777; stroke: #777777; stroke-width: 0.5"/>
      </g>
     </g>
     <g id="text_10">
      <!-- 600 -->
      <g style="fill: #333333" transform="translate(3.00024 13.956185) scale(0.03 -0.03)">
       <defs>
        <path id="Helvetica-36" d="M 1872 4494 
Q 2622 4494 2917 4105 
Q 3213 3716 3213 3303 
L 2656 3303 
Q 2606 3569 2497 3719 
Q 2294 4000 1881 4000 
Q 1409 4000 1131 3564 
Q 853 3128 822 2316 
Q 1016 2600 1309 2741 
Q 1578 2866 1909 2866 
Q 2472 2866 2890 2506 
Q 3309 2147 3309 1434 
Q 3309 825 2912 354 
Q 2516 -116 1781 -116 
Q 1153 -116 697 361 
Q 241 838 241 1966 
Q 241 2800 444 3381 
Q 834 4494 1872 4494 
z
M 1831 384 
Q 2275 384 2495 682 
Q 2716 981 2716 1388 
Q 2716 1731 2519 2042 
Q 2322 2353 1803 2353 
Q 1441 2353 1167 2112 
Q 894 1872 894 1388 
Q 894 963 1142 673 
Q 1391 384 1831 384 
z
" transform="scale(0.015625)"/>
       </defs>
       <use xlink:href="#Helvetica-36"/>
       <use xlink:href="#Helvetica-30" x="55.615234"/>
       <use xlink:href="#Helvetica-30" x="111.230469"/>
      </g>
     </g>
    </g>
    <g id="ytick_8">
     <g id="line2d_8">
      <g>
       <use xlink:href="#m0d3302f50f" x="10.005084" y="4.076256" style="fill: #777777; stroke: #777777; stroke-width: 0.5"/>
      </g>
     </g>
     <g id="text_11">
      <!-- 700 -->
      <g style="fill: #333333" transform="translate(3.00024 5.152271) scale(0.03 -0.03)">
       <defs>
        <path id="Helvetica-37" d="M 3347 4400 
L 3347 3909 
Q 3131 3700 2773 3181 
Q 2416 2663 2141 2063 
Q 1869 1478 1728 997 
Q 1638 688 1494 0 
L 872 0 
Q 1084 1281 1809 2550 
Q 2238 3294 2709 3834 
L 234 3834 
L 234 4400 
L 3347 4400 
z
" transform="scale(0.015625)"/>
       </defs>
       <use xlink:href="#Helvetica-37"/>
       <use xlink:href="#Helvetica-30" x="55.615234"/>
       <use xlink:href="#Helvetica-30" x="111.230469"/>
      </g>
     </g>
    </g>
   </g>
   <g id="PolyCollection_1">
    <defs>
     <path id="m2ad5ff5dee" d="M 24.017465 -19.270088 
L 19.977595 -19.270088 
L 19.635586 -19.271715 
L 19.259931 -19.273342 
L 18.852193 -19.274969 
L 18.414978 -19.276595 
L 17.951969 -19.278222 
L 17.467916 -19.279849 
L 16.968575 -19.281476 
L 16.4606 -19.283103 
L 15.951384 -19.284729 
L 15.448855 -19.286356 
L 14.961237 -19.287983 
L 14.496785 -19.28961 
L 14.063504 -19.291236 
L 13.668876 -19.292863 
L 13.319597 -19.29449 
L 13.021343 -19.296117 
L 12.778583 -19.297743 
L 12.594444 -19.29937 
L 12.470624 -19.300997 
L 12.407381 -19.302624 
L 12.403573 -19.304251 
L 12.456758 -19.305877 
L 12.563336 -19.307504 
L 12.718739 -19.309131 
L 12.917633 -19.310758 
L 13.154144 -19.312384 
L 13.422075 -19.314011 
L 13.715116 -19.315638 
L 14.027027 -19.317265 
L 14.351798 -19.318891 
L 14.683771 -19.320518 
L 15.017738 -19.322145 
L 15.348992 -19.323772 
L 15.673367 -19.325398 
L 15.987247 -19.327025 
L 16.287564 -19.328652 
L 16.571787 -19.330279 
L 16.837905 -19.331906 
L 17.084419 -19.333532 
L 17.310329 -19.335159 
L 17.515126 -19.336786 
L 17.69879 -19.338413 
L 17.861777 -19.340039 
L 18.005004 -19.341666 
L 18.129819 -19.343293 
L 18.237951 -19.34492 
L 18.331442 -19.346546 
L 18.412561 -19.348173 
L 18.48369 -19.3498 
L 18.547201 -19.351427 
L 18.605319 -19.353054 
L 18.659987 -19.35468 
L 18.712735 -19.356307 
L 18.764573 -19.357934 
L 18.815908 -19.359561 
L 18.866497 -19.361187 
L 18.915444 -19.362814 
L 18.961239 -19.364441 
L 19.001845 -19.366068 
L 19.034822 -19.367694 
L 19.057489 -19.369321 
L 19.067112 -19.370948 
L 19.0611 -19.372575 
L 19.037211 -19.374201 
L 18.993741 -19.375828 
L 18.929692 -19.377455 
L 18.844906 -19.379082 
L 18.740158 -19.380709 
L 18.617192 -19.382335 
L 18.478714 -19.383962 
L 18.328327 -19.385589 
L 18.170418 -19.387216 
L 18.009999 -19.388842 
L 17.852512 -19.390469 
L 17.703612 -19.392096 
L 17.568932 -19.393723 
L 17.453847 -19.395349 
L 17.363252 -19.396976 
L 17.301352 -19.398603 
L 17.271502 -19.40023 
L 17.276066 -19.401857 
L 17.316339 -19.403483 
L 17.39251 -19.40511 
L 17.503677 -19.406737 
L 17.64791 -19.408364 
L 17.822355 -19.40999 
L 18.023378 -19.411617 
L 18.246728 -19.413244 
L 18.487725 -19.414871 
L 18.741452 -19.416497 
L 19.002946 -19.418124 
L 19.26737 -19.419751 
L 19.530179 -19.421378 
L 19.787246 -19.423004 
L 20.034968 -19.424631 
L 20.270334 -19.426258 
L 20.490965 -19.427885 
L 20.695119 -19.429512 
L 20.881675 -19.431138 
L 23.113385 -19.431138 
L 23.113385 -19.431138 
L 23.29994 -19.429512 
L 23.504095 -19.427885 
L 23.724725 -19.426258 
L 23.960091 -19.424631 
L 24.207813 -19.423004 
L 24.464881 -19.421378 
L 24.72769 -19.419751 
L 24.992114 -19.418124 
L 25.253607 -19.416497 
L 25.507335 -19.414871 
L 25.748332 -19.413244 
L 25.971682 -19.411617 
L 26.172704 -19.40999 
L 26.34715 -19.408364 
L 26.491383 -19.406737 
L 26.60255 -19.40511 
L 26.67872 -19.403483 
L 26.718993 -19.401857 
L 26.723557 -19.40023 
L 26.693707 -19.398603 
L 26.631808 -19.396976 
L 26.541212 -19.395349 
L 26.426127 -19.393723 
L 26.291447 -19.392096 
L 26.142547 -19.390469 
L 25.98506 -19.388842 
L 25.824641 -19.387216 
L 25.666733 -19.385589 
L 25.516346 -19.383962 
L 25.377868 -19.382335 
L 25.254902 -19.380709 
L 25.150153 -19.379082 
L 25.065368 -19.377455 
L 25.001319 -19.375828 
L 24.957849 -19.374201 
L 24.93396 -19.372575 
L 24.927948 -19.370948 
L 24.93757 -19.369321 
L 24.960238 -19.367694 
L 24.993215 -19.366068 
L 25.033821 -19.364441 
L 25.079616 -19.362814 
L 25.128563 -19.361187 
L 25.179152 -19.359561 
L 25.230487 -19.357934 
L 25.282325 -19.356307 
L 25.335073 -19.35468 
L 25.38974 -19.353054 
L 25.447858 -19.351427 
L 25.511369 -19.3498 
L 25.582498 -19.348173 
L 25.663617 -19.346546 
L 25.757109 -19.34492 
L 25.86524 -19.343293 
L 25.990055 -19.341666 
L 26.133283 -19.340039 
L 26.29627 -19.338413 
L 26.479934 -19.336786 
L 26.684731 -19.335159 
L 26.91064 -19.333532 
L 27.157154 -19.331906 
L 27.423273 -19.330279 
L 27.707496 -19.328652 
L 28.007813 -19.327025 
L 28.321693 -19.325398 
L 28.646068 -19.323772 
L 28.977322 -19.322145 
L 29.311288 -19.320518 
L 29.643262 -19.318891 
L 29.968033 -19.317265 
L 30.279943 -19.315638 
L 30.572984 -19.314011 
L 30.840916 -19.312384 
L 31.077427 -19.310758 
L 31.276321 -19.309131 
L 31.431724 -19.307504 
L 31.538302 -19.305877 
L 31.591487 -19.304251 
L 31.587679 -19.302624 
L 31.524436 -19.300997 
L 31.400616 -19.29937 
L 31.216476 -19.297743 
L 30.973717 -19.296117 
L 30.675463 -19.29449 
L 30.326184 -19.292863 
L 29.931556 -19.291236 
L 29.498275 -19.28961 
L 29.033822 -19.287983 
L 28.546204 -19.286356 
L 28.043675 -19.284729 
L 27.534459 -19.283103 
L 27.026484 -19.281476 
L 26.527143 -19.279849 
L 26.04309 -19.278222 
L 25.580082 -19.276595 
L 25.142867 -19.274969 
L 24.735129 -19.273342 
L 24.359473 -19.271715 
L 24.017465 -19.270088 
z
" style="stroke: #6f6f6f; stroke-width: 0.15"/>
    </defs>
    <g clip-path="url(#p246d3a97d8)">
     <use xlink:href="#m2ad5ff5dee" x="0" y="84.96" style="fill: #98daa7; stroke: #6f6f6f; stroke-width: 0.15"/>
    </g>
   </g>
   <g id="PolyCollection_2">
    <defs>
     <path id="m19a76d5990" d="M 47.417068 -15.814159 
L 44.547776 -15.814159 
L 44.244949 -16.189451 
L 43.901781 -16.564742 
L 43.518466 -16.940033 
L 43.096521 -17.315324 
L 42.638895 -17.690616 
L 42.15002 -18.065907 
L 41.635769 -18.441198 
L 41.103335 -18.816489 
L 40.561022 -19.191781 
L 40.017965 -19.567072 
L 39.483786 -19.942363 
L 38.968217 -20.317654 
L 38.480709 -20.692946 
L 38.030057 -21.068237 
L 37.624072 -21.443528 
L 37.269309 -21.818819 
L 36.970877 -22.194111 
L 36.732335 -22.569402 
L 36.55567 -22.944693 
L 36.441354 -23.319984 
L 36.388465 -23.695276 
L 36.394847 -24.070567 
L 36.457301 -24.445858 
L 36.571786 -24.821149 
L 36.733604 -25.196441 
L 36.937578 -25.571732 
L 37.178199 -25.947023 
L 37.449755 -26.322315 
L 37.746432 -26.697606 
L 38.062415 -27.072897 
L 38.391961 -27.448188 
L 38.729488 -27.82348 
L 39.069665 -28.198771 
L 39.407503 -28.574062 
L 39.738465 -28.949353 
L 40.058574 -29.324645 
L 40.36452 -29.699936 
L 40.653767 -30.075227 
L 40.924628 -30.450518 
L 41.176319 -30.82581 
L 41.408975 -31.201101 
L 41.623614 -31.576392 
L 41.822058 -31.951683 
L 42.006798 -32.326975 
L 42.180819 -32.702266 
L 42.347386 -33.077557 
L 42.509816 -33.452848 
L 42.671239 -33.82814 
L 42.83438 -34.203431 
L 43.001364 -34.578722 
L 43.173585 -34.954013 
L 43.351611 -35.329305 
L 43.535173 -35.704596 
L 43.723204 -36.079887 
L 43.913934 -36.455178 
L 44.105035 -36.83047 
L 44.293785 -37.205761 
L 44.477248 -37.581052 
L 44.652448 -37.956343 
L 44.816521 -38.331635 
L 44.966841 -38.706926 
L 45.101099 -39.082217 
L 45.217362 -39.457508 
L 45.31408 -39.8328 
L 45.390082 -40.208091 
L 45.444546 -40.583382 
L 45.476971 -40.958673 
L 45.487148 -41.333965 
L 45.47515 -41.709256 
L 45.441336 -42.084547 
L 45.386376 -42.459839 
L 45.3113 -42.83513 
L 45.217549 -43.210421 
L 45.107035 -43.585712 
L 44.982192 -43.961004 
L 44.845997 -44.336295 
L 44.701972 -44.711586 
L 44.554137 -45.086877 
L 44.406911 -45.462169 
L 44.264983 -45.83746 
L 44.133126 -46.212751 
L 44.015987 -46.588042 
L 43.917862 -46.963334 
L 43.842464 -47.338625 
L 43.792724 -47.713916 
L 43.770614 -48.089207 
L 43.777041 -48.464499 
L 43.81179 -48.83979 
L 43.873546 -49.215081 
L 43.959982 -49.590372 
L 44.06791 -49.965664 
L 44.193473 -50.340955 
L 44.332384 -50.716246 
L 44.480158 -51.091537 
L 44.632358 -51.466829 
L 44.784805 -51.84212 
L 44.933756 -52.217411 
L 45.076038 -52.592702 
L 45.209131 -52.967994 
L 46.755712 -52.967994 
L 46.755712 -52.967994 
L 46.888806 -52.592702 
L 47.031088 -52.217411 
L 47.180039 -51.84212 
L 47.332485 -51.466829 
L 47.484686 -51.091537 
L 47.63246 -50.716246 
L 47.77137 -50.340955 
L 47.896934 -49.965664 
L 48.004861 -49.590372 
L 48.091298 -49.215081 
L 48.153054 -48.83979 
L 48.187802 -48.464499 
L 48.194229 -48.089207 
L 48.17212 -47.713916 
L 48.12238 -47.338625 
L 48.046982 -46.963334 
L 47.948857 -46.588042 
L 47.831718 -46.212751 
L 47.699861 -45.83746 
L 47.557933 -45.462169 
L 47.410707 -45.086877 
L 47.262871 -44.711586 
L 47.118847 -44.336295 
L 46.982652 -43.961004 
L 46.857808 -43.585712 
L 46.747295 -43.210421 
L 46.653544 -42.83513 
L 46.578468 -42.459839 
L 46.523508 -42.084547 
L 46.489694 -41.709256 
L 46.477696 -41.333965 
L 46.487873 -40.958673 
L 46.520298 -40.583382 
L 46.574762 -40.208091 
L 46.650764 -39.8328 
L 46.747482 -39.457508 
L 46.863744 -39.082217 
L 46.998003 -38.706926 
L 47.148322 -38.331635 
L 47.312396 -37.956343 
L 47.487596 -37.581052 
L 47.671059 -37.205761 
L 47.859808 -36.83047 
L 48.050909 -36.455178 
L 48.24164 -36.079887 
L 48.429671 -35.704596 
L 48.613233 -35.329305 
L 48.791259 -34.954013 
L 48.963479 -34.578722 
L 49.130464 -34.203431 
L 49.293604 -33.82814 
L 49.455028 -33.452848 
L 49.617458 -33.077557 
L 49.784025 -32.702266 
L 49.958045 -32.326975 
L 50.142785 -31.951683 
L 50.341229 -31.576392 
L 50.555869 -31.201101 
L 50.788525 -30.82581 
L 51.040216 -30.450518 
L 51.311076 -30.075227 
L 51.600323 -29.699936 
L 51.90627 -29.324645 
L 52.226379 -28.949353 
L 52.557341 -28.574062 
L 52.895179 -28.198771 
L 53.235356 -27.82348 
L 53.572883 -27.448188 
L 53.902429 -27.072897 
L 54.218411 -26.697606 
L 54.515089 -26.322315 
L 54.786644 -25.947023 
L 55.027265 -25.571732 
L 55.231239 -25.196441 
L 55.393058 -24.821149 
L 55.507543 -24.445858 
L 55.569997 -24.070567 
L 55.576379 -23.695276 
L 55.523489 -23.319984 
L 55.409174 -22.944693 
L 55.232509 -22.569402 
L 54.993966 -22.194111 
L 54.695535 -21.818819 
L 54.340772 -21.443528 
L 53.934787 -21.068237 
L 53.484135 -20.692946 
L 52.996627 -20.317654 
L 52.481058 -19.942363 
L 51.946879 -19.567072 
L 51.403822 -19.191781 
L 50.861509 -18.816489 
L 50.329074 -18.441198 
L 49.814823 -18.065907 
L 49.325949 -17.690616 
L 48.868323 -17.315324 
L 48.446377 -16.940033 
L 48.063063 -16.564742 
L 47.719895 -16.189451 
L 47.417068 -15.814159 
z
" style="stroke: #6f6f6f; stroke-width: 0.15"/>
    </defs>
    <g clip-path="url(#p246d3a97d8)">
     <use xlink:href="#m19a76d5990" x="0" y="84.96" style="fill: #f2aba8; stroke: #6f6f6f; stroke-width: 0.15"/>
    </g>
   </g>
   <g id="PolyCollection_3">
    <defs>
     <path id="mc941573c8c" d="M 71.964134 -18.801664 
L 67.970494 -18.801664 
L 67.605207 -18.838611 
L 67.201356 -18.875557 
L 66.760953 -18.912504 
L 66.287386 -18.94945 
L 65.785457 -18.986397 
L 65.261345 -19.023343 
L 64.722495 -19.06029 
L 64.177435 -19.097236 
L 63.635523 -19.134183 
L 63.106632 -19.171129 
L 62.600804 -19.208076 
L 62.127882 -19.245022 
L 61.697141 -19.281969 
L 61.316954 -19.318915 
L 60.994502 -19.355861 
L 60.735545 -19.392808 
L 60.544275 -19.429754 
L 60.42324 -19.466701 
L 60.373357 -19.503647 
L 60.39398 -19.540594 
L 60.483036 -19.57754 
L 60.637195 -19.614487 
L 60.852069 -19.651433 
L 61.12241 -19.68838 
L 61.442308 -19.725326 
L 61.805373 -19.762273 
L 62.204889 -19.799219 
L 62.63395 -19.836166 
L 63.085569 -19.873112 
L 63.552774 -19.910059 
L 64.02869 -19.947005 
L 64.506616 -19.983952 
L 64.980096 -20.020898 
L 65.442996 -20.057845 
L 65.889586 -20.094791 
L 66.314614 -20.131738 
L 66.713384 -20.168684 
L 67.08183 -20.205631 
L 67.416572 -20.242577 
L 67.714972 -20.279524 
L 67.975161 -20.31647 
L 68.196061 -20.353417 
L 68.37738 -20.390363 
L 68.519602 -20.427309 
L 68.623955 -20.464256 
L 68.692367 -20.501202 
L 68.72742 -20.538149 
L 68.732281 -20.575095 
L 68.71063 -20.612042 
L 68.666579 -20.648988 
L 68.604566 -20.685935 
L 68.529254 -20.722881 
L 68.445402 -20.759828 
L 68.357728 -20.796774 
L 68.27077 -20.833721 
L 68.188729 -20.870667 
L 68.115326 -20.907614 
L 68.053665 -20.94456 
L 68.006109 -20.981507 
L 67.974191 -21.018453 
L 67.958556 -21.0554 
L 67.958941 -21.092346 
L 67.974211 -21.129293 
L 68.002429 -21.166239 
L 68.040976 -21.203186 
L 68.08671 -21.240132 
L 68.136154 -21.277079 
L 68.185706 -21.314025 
L 68.231851 -21.350972 
L 68.27138 -21.387918 
L 68.301577 -21.424865 
L 68.320384 -21.461811 
L 68.326531 -21.498758 
L 68.319606 -21.535704 
L 68.300088 -21.57265 
L 68.269314 -21.609597 
L 68.229403 -21.646543 
L 68.183131 -21.68349 
L 68.133768 -21.720436 
L 68.084886 -21.757383 
L 68.040154 -21.794329 
L 68.003128 -21.831276 
L 67.977049 -21.868222 
L 67.964673 -21.905169 
L 67.968123 -21.942115 
L 67.988794 -21.979062 
L 68.027291 -22.016008 
L 68.08343 -22.052955 
L 68.156274 -22.089901 
L 68.244221 -22.126848 
L 68.345111 -22.163794 
L 68.456374 -22.200741 
L 68.575178 -22.237687 
L 68.69859 -22.274634 
L 68.823717 -22.31158 
L 68.947842 -22.348527 
L 69.068527 -22.385473 
L 69.183698 -22.42242 
L 69.29169 -22.459366 
L 70.642938 -22.459366 
L 70.642938 -22.459366 
L 70.75093 -22.42242 
L 70.866101 -22.385473 
L 70.986786 -22.348527 
L 71.110911 -22.31158 
L 71.236038 -22.274634 
L 71.359449 -22.237687 
L 71.478254 -22.200741 
L 71.589517 -22.163794 
L 71.690407 -22.126848 
L 71.778353 -22.089901 
L 71.851198 -22.052955 
L 71.907337 -22.016008 
L 71.945834 -21.979062 
L 71.966505 -21.942115 
L 71.969955 -21.905169 
L 71.957579 -21.868222 
L 71.9315 -21.831276 
L 71.894473 -21.794329 
L 71.849742 -21.757383 
L 71.80086 -21.720436 
L 71.751497 -21.68349 
L 71.705225 -21.646543 
L 71.665314 -21.609597 
L 71.63454 -21.57265 
L 71.615021 -21.535704 
L 71.608097 -21.498758 
L 71.614244 -21.461811 
L 71.633051 -21.424865 
L 71.663248 -21.387918 
L 71.702777 -21.350972 
L 71.748922 -21.314025 
L 71.798474 -21.277079 
L 71.847918 -21.240132 
L 71.893652 -21.203186 
L 71.932199 -21.166239 
L 71.960417 -21.129293 
L 71.975687 -21.092346 
L 71.976072 -21.0554 
L 71.960437 -21.018453 
L 71.928519 -20.981507 
L 71.880963 -20.94456 
L 71.819302 -20.907614 
L 71.745899 -20.870667 
L 71.663858 -20.833721 
L 71.576899 -20.796774 
L 71.489226 -20.759828 
L 71.405373 -20.722881 
L 71.330062 -20.685935 
L 71.268049 -20.648988 
L 71.223998 -20.612042 
L 71.202347 -20.575095 
L 71.207208 -20.538149 
L 71.242261 -20.501202 
L 71.310673 -20.464256 
L 71.415025 -20.427309 
L 71.557248 -20.390363 
L 71.738567 -20.353417 
L 71.959467 -20.31647 
L 72.219656 -20.279524 
L 72.518056 -20.242577 
L 72.852798 -20.205631 
L 73.221243 -20.168684 
L 73.620014 -20.131738 
L 74.045042 -20.094791 
L 74.491632 -20.057845 
L 74.954532 -20.020898 
L 75.428012 -19.983952 
L 75.905937 -19.947005 
L 76.381854 -19.910059 
L 76.849059 -19.873112 
L 77.300678 -19.836166 
L 77.729739 -19.799219 
L 78.129255 -19.762273 
L 78.49232 -19.725326 
L 78.812218 -19.68838 
L 79.082559 -19.651433 
L 79.297433 -19.614487 
L 79.451592 -19.57754 
L 79.540648 -19.540594 
L 79.561271 -19.503647 
L 79.511388 -19.466701 
L 79.390353 -19.429754 
L 79.199083 -19.392808 
L 78.940126 -19.355861 
L 78.617673 -19.318915 
L 78.237487 -19.281969 
L 77.806746 -19.245022 
L 77.333824 -19.208076 
L 76.827996 -19.171129 
L 76.299105 -19.134183 
L 75.757193 -19.097236 
L 75.212133 -19.06029 
L 74.673283 -19.023343 
L 74.149171 -18.986397 
L 73.647241 -18.94945 
L 73.173675 -18.912504 
L 72.733272 -18.875557 
L 72.329421 -18.838611 
L 71.964134 -18.801664 
z
" style="stroke: #6f6f6f; stroke-width: 0.15"/>
    </defs>
    <g clip-path="url(#p246d3a97d8)">
     <use xlink:href="#mc941573c8c" x="0" y="84.96" style="fill: #d3c4f6; stroke: #6f6f6f; stroke-width: 0.15"/>
    </g>
   </g>
   <g id="line2d_9">
    <path d="M 21.99753 65.666103 
L 21.99753 65.55267 
" clip-path="url(#p246d3a97d8)" style="fill: none; stroke: #8c8c8c; stroke-width: 0.75; stroke-linecap: round"/>
   </g>
   <g id="line2d_10">
    <path d="M 21.99753 65.657973 
L 21.99753 65.59185 
" clip-path="url(#p246d3a97d8)" style="fill: none; stroke: #8c8c8c; stroke-width: 4; stroke-linecap: round"/>
   </g>
   <g id="line2d_11">
    <path d="M 21.99753 65.639721 
" clip-path="url(#p246d3a97d8)" style="fill: none; stroke: #6f6f6f; stroke-width: 1.2; stroke-linecap: round"/>
    <defs>
     <path id="m17f808c1ab" d="M 0 0.833333 
C 0.221003 0.833333 0.432983 0.745528 0.589256 0.589256 
C 0.745528 0.432983 0.833333 0.221003 0.833333 0 
C 0.833333 -0.221003 0.745528 -0.432983 0.589256 -0.589256 
C 0.432983 -0.745528 0.221003 -0.833333 0 -0.833333 
C -0.221003 -0.833333 -0.432983 -0.745528 -0.589256 -0.589256 
C -0.745528 -0.432983 -0.833333 -0.221003 -0.833333 0 
C -0.833333 0.221003 -0.745528 0.432983 -0.589256 0.589256 
C -0.432983 0.745528 -0.221003 0.833333 0 0.833333 
z
" style="stroke: #ffffff; stroke-width: 0.8"/>
    </defs>
    <g clip-path="url(#p246d3a97d8)">
     <use xlink:href="#m17f808c1ab" x="21.99753" y="65.639721" style="fill: #ffffff; stroke: #ffffff; stroke-width: 0.8"/>
    </g>
   </g>
   <g id="line2d_12">
    <path d="M 45.982422 64.372592 
L 45.982422 50.564594 
" clip-path="url(#p246d3a97d8)" style="fill: none; stroke: #8c8c8c; stroke-width: 0.75; stroke-linecap: round"/>
   </g>
   <g id="line2d_13">
    <path d="M 45.982422 62.56462 
L 45.982422 54.319026 
" clip-path="url(#p246d3a97d8)" style="fill: none; stroke: #8c8c8c; stroke-width: 4; stroke-linecap: round"/>
   </g>
   <g id="line2d_14">
    <path d="M 45.982422 59.152997 
" clip-path="url(#p246d3a97d8)" style="fill: none; stroke: #6f6f6f; stroke-width: 1.2; stroke-linecap: round"/>
    <g clip-path="url(#p246d3a97d8)">
     <use xlink:href="#m17f808c1ab" x="45.982422" y="59.152997" style="fill: #ffffff; stroke: #ffffff; stroke-width: 0.8"/>
    </g>
   </g>
   <g id="line2d_15">
    <path d="M 69.967314 65.652821 
L 69.967314 63.918686 
" clip-path="url(#p246d3a97d8)" style="fill: none; stroke: #8c8c8c; stroke-width: 0.75; stroke-linecap: round"/>
   </g>
   <g id="line2d_16">
    <path d="M 69.967314 65.533191 
L 69.967314 64.814702 
" clip-path="url(#p246d3a97d8)" style="fill: none; stroke: #8c8c8c; stroke-width: 4; stroke-linecap: round"/>
   </g>
   <g id="line2d_17">
    <path d="M 69.967314 65.307016 
" clip-path="url(#p246d3a97d8)" style="fill: none; stroke: #6f6f6f; stroke-width: 1.2; stroke-linecap: round"/>
    <g clip-path="url(#p246d3a97d8)">
     <use xlink:href="#m17f808c1ab" x="69.967314" y="65.307016" style="fill: #ffffff; stroke: #ffffff; stroke-width: 0.8"/>
    </g>
   </g>
   <g id="patch_3">
    <path d="M 10.005084 74.419526 
L 10.005084 4.076256 
" style="fill: none; stroke: #777777; stroke-width: 0.5; stroke-linejoin: miter; stroke-linecap: square"/>
   </g>
   <g id="patch_4">
    <path d="M 10.005084 76.919526 
L 81.95976 76.919526 
" style="fill: none; stroke: #777777; stroke-width: 0.5; stroke-linejoin: miter; stroke-linecap: square"/>
   </g>
  </g>
 </g>
 <defs>
  <clipPath id="p246d3a97d8">
   <rect x="10.005084" y="4.076256" width="71.954676" height="70.34327"/>
  </clipPath>
 </defs>
</svg>
