<?xml version="1.0" encoding="utf-8" standalone="no"?>
<!DOCTYPE svg PUBLIC "-//W3C//DTD SVG 1.1//EN"
  "http://www.w3.org/Graphics/SVG/1.1/DTD/svg11.dtd">
<svg xmlns:xlink="http://www.w3.org/1999/xlink" width="84.96pt" height="84.96pt" viewBox="0 0 84.96 84.96" xmlns="http://www.w3.org/2000/svg" version="1.1">
 <metadata>
  <rdf:RDF xmlns:dc="http://purl.org/dc/elements/1.1/" xmlns:cc="http://creativecommons.org/ns#" xmlns:rdf="http://www.w3.org/1999/02/22-rdf-syntax-ns#">
   <cc:Work>
    <dc:type rdf:resource="http://purl.org/dc/dcmitype/StillImage"/>
    <dc:date>2024-05-27T15:37:02.176744</dc:date>
    <dc:format>image/svg+xml</dc:format>
    <dc:creator>
     <cc:Agent>
      <dc:title>Matplotlib v3.8.3, https://matplotlib.org/</dc:title>
     </cc:Agent>
    </dc:creator>
   </cc:Work>
  </rdf:RDF>
 </metadata>
 <defs>
  <style type="text/css">*{stroke-linejoin: round; stroke-linecap: butt}</style>
 </defs>
 <g id="figure_1">
  <g id="patch_1">
   <path d="M 0 84.96 
L 84.96 84.96 
L 84.96 0 
L 0 0 
z
" style="fill: #ffffff"/>
  </g>
  <g id="axes_1">
   <g id="patch_2">
    <path d="M 10.005084 74.419526 
L 81.95976 74.419526 
L 81.95976 4.076256 
L 10.005084 4.076256 
z
" style="fill: #ffffff"/>
   </g>
   <g id="matplotlib.axis_1">
    <g id="xtick_1">
     <g id="text_1">
      <!-- CD20+ Cells -->
      <g style="fill: #333333" transform="translate(12.125616 81.230229) scale(0.035 -0.035)">
       <defs>
        <path id="Helvetica-43" d="M 2422 4716 
Q 3294 4716 3775 4256 
Q 4256 3797 4309 3213 
L 3703 3213 
Q 3600 3656 3292 3915 
Q 2984 4175 2428 4175 
Q 1750 4175 1333 3698 
Q 916 3222 916 2238 
Q 916 1431 1292 929 
Q 1669 428 2416 428 
Q 3103 428 3463 956 
Q 3653 1234 3747 1688 
L 4353 1688 
Q 4272 963 3816 472 
Q 3269 -119 2341 -119 
Q 1541 -119 997 366 
Q 281 1006 281 2344 
Q 281 3359 819 4009 
Q 1400 4716 2422 4716 
z
M 2297 4716 
L 2297 4716 
z
" transform="scale(0.015625)"/>
        <path id="Helvetica-44" d="M 2250 531 
Q 2566 531 2769 597 
Q 3131 719 3363 1066 
Q 3547 1344 3628 1778 
Q 3675 2038 3675 2259 
Q 3675 3113 3336 3584 
Q 2997 4056 2244 4056 
L 1141 4056 
L 1141 531 
L 2250 531 
z
M 516 4591 
L 2375 4591 
Q 3322 4591 3844 3919 
Q 4309 3313 4309 2366 
Q 4309 1634 4034 1044 
Q 3550 0 2369 0 
L 516 0 
L 516 4591 
z
" transform="scale(0.015625)"/>
        <path id="Helvetica-32" d="M 200 0 
Q 231 578 439 1006 
Q 647 1434 1250 1784 
L 1850 2131 
Q 2253 2366 2416 2531 
Q 2672 2791 2672 3125 
Q 2672 3516 2437 3745 
Q 2203 3975 1813 3975 
Q 1234 3975 1013 3538 
Q 894 3303 881 2888 
L 309 2888 
Q 319 3472 525 3841 
Q 891 4491 1816 4491 
Q 2584 4491 2939 4075 
Q 3294 3659 3294 3150 
Q 3294 2613 2916 2231 
Q 2697 2009 2131 1694 
L 1703 1456 
Q 1397 1288 1222 1134 
Q 909 863 828 531 
L 3272 531 
L 3272 0 
L 200 0 
z
" transform="scale(0.015625)"/>
        <path id="Helvetica-30" d="M 1731 4475 
Q 2600 4475 2988 3759 
Q 3288 3206 3288 2244 
Q 3288 1331 3016 734 
Q 2622 -122 1728 -122 
Q 922 -122 528 578 
Q 200 1163 200 2147 
Q 200 2909 397 3456 
Q 766 4475 1731 4475 
z
M 1725 391 
Q 2163 391 2422 778 
Q 2681 1166 2681 2222 
Q 2681 2984 2493 3476 
Q 2306 3969 1766 3969 
Q 1269 3969 1039 3501 
Q 809 3034 809 2125 
Q 809 1441 956 1025 
Q 1181 391 1725 391 
z
" transform="scale(0.015625)"/>
        <path id="Helvetica-2b" d="M 288 1369 
L 288 1894 
L 1650 1894 
L 1650 3266 
L 2184 3266 
L 2184 1894 
L 3547 1894 
L 3547 1369 
L 2184 1369 
L 2184 0 
L 1650 0 
L 1650 1369 
L 288 1369 
z
" transform="scale(0.015625)"/>
        <path id="Helvetica-20" transform="scale(0.015625)"/>
        <path id="Helvetica-65" d="M 1806 3422 
Q 2163 3422 2497 3255 
Q 2831 3088 3006 2822 
Q 3175 2569 3231 2231 
Q 3281 2000 3281 1494 
L 828 1494 
Q 844 984 1069 676 
Q 1294 369 1766 369 
Q 2206 369 2469 659 
Q 2619 828 2681 1050 
L 3234 1050 
Q 3213 866 3089 639 
Q 2966 413 2813 269 
Q 2556 19 2178 -69 
Q 1975 -119 1719 -119 
Q 1094 -119 659 336 
Q 225 791 225 1609 
Q 225 2416 662 2919 
Q 1100 3422 1806 3422 
z
M 2703 1941 
Q 2669 2306 2544 2525 
Q 2313 2931 1772 2931 
Q 1384 2931 1121 2651 
Q 859 2372 844 1941 
L 2703 1941 
z
M 1753 3428 
L 1753 3428 
z
" transform="scale(0.015625)"/>
        <path id="Helvetica-6c" d="M 428 4591 
L 991 4591 
L 991 0 
L 428 0 
L 428 4591 
z
" transform="scale(0.015625)"/>
        <path id="Helvetica-73" d="M 747 1050 
Q 772 769 888 619 
Q 1100 347 1625 347 
Q 1938 347 2175 483 
Q 2413 619 2413 903 
Q 2413 1119 2222 1231 
Q 2100 1300 1741 1391 
L 1294 1503 
Q 866 1609 663 1741 
Q 300 1969 300 2372 
Q 300 2847 642 3140 
Q 984 3434 1563 3434 
Q 2319 3434 2653 2991 
Q 2863 2709 2856 2384 
L 2325 2384 
Q 2309 2575 2191 2731 
Q 1997 2953 1519 2953 
Q 1200 2953 1036 2831 
Q 872 2709 872 2509 
Q 872 2291 1088 2159 
Q 1213 2081 1456 2022 
L 1828 1931 
Q 2434 1784 2641 1647 
Q 2969 1431 2969 969 
Q 2969 522 2630 197 
Q 2291 -128 1597 -128 
Q 850 -128 539 211 
Q 228 550 206 1050 
L 747 1050 
z
M 1578 3428 
L 1578 3428 
z
" transform="scale(0.015625)"/>
       </defs>
       <use xlink:href="#Helvetica-43"/>
       <use xlink:href="#Helvetica-44" x="72.216797"/>
       <use xlink:href="#Helvetica-32" x="144.433594"/>
       <use xlink:href="#Helvetica-30" x="200.048828"/>
       <use xlink:href="#Helvetica-2b" x="255.664062"/>
       <use xlink:href="#Helvetica-20" x="314.0625"/>
       <use xlink:href="#Helvetica-43" x="341.845703"/>
       <use xlink:href="#Helvetica-65" x="414.0625"/>
       <use xlink:href="#Helvetica-6c" x="469.677734"/>
       <use xlink:href="#Helvetica-6c" x="491.894531"/>
       <use xlink:href="#Helvetica-73" x="514.111328"/>
      </g>
     </g>
    </g>
    <g id="xtick_2">
     <g id="text_2">
      <!-- TCRαδ+ Cells -->
      <g style="fill: #333333" transform="translate(34.850234 81.230229) scale(0.035 -0.035)">
       <defs>
        <path id="Helvetica-54" d="M 3828 4591 
L 3828 4044 
L 2281 4044 
L 2281 0 
L 1650 0 
L 1650 4044 
L 103 4044 
L 103 4591 
L 3828 4591 
z
" transform="scale(0.015625)"/>
        <path id="Helvetica-52" d="M 2622 2488 
Q 3059 2488 3314 2663 
Q 3569 2838 3569 3294 
Q 3569 3784 3213 3963 
Q 3022 4056 2703 4056 
L 1184 4056 
L 1184 2488 
L 2622 2488 
z
M 563 4591 
L 2688 4591 
Q 3213 4591 3553 4438 
Q 4200 4144 4200 3353 
Q 4200 2941 4029 2678 
Q 3859 2416 3553 2256 
Q 3822 2147 3958 1969 
Q 4094 1791 4109 1391 
L 4131 775 
Q 4141 513 4175 384 
Q 4231 166 4375 103 
L 4375 0 
L 3613 0 
Q 3581 59 3562 153 
Q 3544 247 3531 516 
L 3494 1281 
Q 3472 1731 3159 1884 
Q 2981 1969 2600 1969 
L 1184 1969 
L 1184 0 
L 563 0 
L 563 4591 
z
" transform="scale(0.015625)"/>
        <path id="Helvetica-3b1" d="M 3347 703 
Q 3334 428 3525 434 
Q 3641 434 3700 475 
L 3700 -19 
Q 3628 -44 3513 -50 
Q 3391 -63 3309 -63 
Q 3084 -56 2956 103 
Q 2816 256 2816 475 
L 2803 475 
Q 2413 -63 1734 -63 
Q 1006 -50 647 459 
Q 281 953 281 1644 
Q 281 2350 634 2859 
Q 984 3378 1741 3391 
Q 2413 3391 2797 2847 
L 2809 2847 
L 2809 3328 
L 3347 3328 
L 3347 703 
z
M 1825 397 
Q 2075 397 2253 513 
Q 2425 622 2541 806 
Q 2766 1184 2766 1638 
Q 2766 2144 2559 2528 
Q 2350 2919 1797 2931 
Q 1306 2919 1081 2534 
Q 856 2156 856 1697 
Q 856 1209 1081 819 
Q 1306 409 1825 397 
z
" transform="scale(0.015625)"/>
        <path id="Helvetica-3b4" d="M 666 4519 
L 3188 4519 
L 3188 4056 
L 1394 4056 
L 1394 4044 
L 2509 3303 
Q 3134 2881 3372 2469 
Q 3591 2053 3584 1600 
Q 3578 934 3163 447 
Q 2738 -50 1938 -63 
Q 1203 -56 769 403 
Q 331 850 325 1556 
Q 341 3066 1863 3188 
L 1863 3200 
L 666 4056 
L 666 4519 
z
M 1991 397 
Q 2497 403 2731 794 
Q 2969 1166 2969 1606 
Q 2969 1856 2919 2041 
Q 2866 2222 2791 2344 
Q 2713 2463 2638 2541 
Q 2559 2619 2509 2650 
Q 2381 2766 2156 2766 
Q 947 2766 941 1528 
Q 941 1056 1216 738 
Q 1491 403 1991 397 
z
" transform="scale(0.015625)"/>
       </defs>
       <use xlink:href="#Helvetica-54"/>
       <use xlink:href="#Helvetica-43" x="61.083984"/>
       <use xlink:href="#Helvetica-52" x="133.300781"/>
       <use xlink:href="#Helvetica-3b1" x="205.517578"/>
       <use xlink:href="#Helvetica-3b4" x="266.601562"/>
       <use xlink:href="#Helvetica-2b" x="327.685547"/>
       <use xlink:href="#Helvetica-20" x="386.083984"/>
       <use xlink:href="#Helvetica-43" x="413.867188"/>
       <use xlink:href="#Helvetica-65" x="486.083984"/>
       <use xlink:href="#Helvetica-6c" x="541.699219"/>
       <use xlink:href="#Helvetica-6c" x="563.916016"/>
       <use xlink:href="#Helvetica-73" x="586.132812"/>
      </g>
     </g>
    </g>
    <g id="xtick_3">
     <g id="text_3">
      <!-- IL7R+ Cells -->
      <g style="fill: #333333" transform="translate(60.873056 81.230229) scale(0.035 -0.035)">
       <defs>
        <path id="Helvetica-49" d="M 628 4591 
L 1256 4591 
L 1256 0 
L 628 0 
L 628 4591 
z
" transform="scale(0.015625)"/>
        <path id="Helvetica-4c" d="M 488 4591 
L 1109 4591 
L 1109 547 
L 3434 547 
L 3434 0 
L 488 0 
L 488 4591 
z
" transform="scale(0.015625)"/>
        <path id="Helvetica-37" d="M 3347 4400 
L 3347 3909 
Q 3131 3700 2773 3181 
Q 2416 2663 2141 2063 
Q 1869 1478 1728 997 
Q 1638 688 1494 0 
L 872 0 
Q 1084 1281 1809 2550 
Q 2238 3294 2709 3834 
L 234 3834 
L 234 4400 
L 3347 4400 
z
" transform="scale(0.015625)"/>
       </defs>
       <use xlink:href="#Helvetica-49"/>
       <use xlink:href="#Helvetica-4c" x="27.783203"/>
       <use xlink:href="#Helvetica-37" x="83.398438"/>
       <use xlink:href="#Helvetica-52" x="139.013672"/>
       <use xlink:href="#Helvetica-2b" x="211.230469"/>
       <use xlink:href="#Helvetica-20" x="269.628906"/>
       <use xlink:href="#Helvetica-43" x="297.412109"/>
       <use xlink:href="#Helvetica-65" x="369.628906"/>
       <use xlink:href="#Helvetica-6c" x="425.244141"/>
       <use xlink:href="#Helvetica-6c" x="447.460938"/>
       <use xlink:href="#Helvetica-73" x="469.677734"/>
      </g>
     </g>
    </g>
   </g>
   <g id="matplotlib.axis_2">
    <g id="ytick_1">
     <g id="line2d_1">
      <defs>
       <path id="m4ea1f46f27" d="M 0 0 
L -1 0 
" style="stroke: #777777; stroke-width: 0.5"/>
      </defs>
      <g>
       <use xlink:href="#m4ea1f46f27" x="10.005084" y="66.189518" style="fill: #777777; stroke: #777777; stroke-width: 0.5"/>
      </g>
     </g>
     <g id="text_4">
      <!-- 0 -->
      <g style="fill: #333333" transform="translate(6.336803 67.265534) scale(0.03 -0.03)">
       <use xlink:href="#Helvetica-30"/>
      </g>
     </g>
    </g>
    <g id="ytick_2">
     <g id="line2d_2">
      <g>
       <use xlink:href="#m4ea1f46f27" x="10.005084" y="55.837308" style="fill: #777777; stroke: #777777; stroke-width: 0.5"/>
      </g>
     </g>
     <g id="text_5">
      <!-- 20 -->
      <g style="fill: #333333" transform="translate(4.668521 56.913323) scale(0.03 -0.03)">
       <use xlink:href="#Helvetica-32"/>
       <use xlink:href="#Helvetica-30" x="55.615234"/>
      </g>
     </g>
    </g>
    <g id="ytick_3">
     <g id="line2d_3">
      <g>
       <use xlink:href="#m4ea1f46f27" x="10.005084" y="45.485097" style="fill: #777777; stroke: #777777; stroke-width: 0.5"/>
      </g>
     </g>
     <g id="text_6">
      <!-- 40 -->
      <g style="fill: #333333" transform="translate(4.668521 46.561113) scale(0.03 -0.03)">
       <defs>
        <path id="Helvetica-34" d="M 2116 1584 
L 2116 3613 
L 681 1584 
L 2116 1584 
z
M 2125 0 
L 2125 1094 
L 163 1094 
L 163 1644 
L 2213 4488 
L 2688 4488 
L 2688 1584 
L 3347 1584 
L 3347 1094 
L 2688 1094 
L 2688 0 
L 2125 0 
z
" transform="scale(0.015625)"/>
       </defs>
       <use xlink:href="#Helvetica-34"/>
       <use xlink:href="#Helvetica-30" x="55.615234"/>
      </g>
     </g>
    </g>
    <g id="ytick_4">
     <g id="line2d_4">
      <g>
       <use xlink:href="#m4ea1f46f27" x="10.005084" y="35.132887" style="fill: #777777; stroke: #777777; stroke-width: 0.5"/>
      </g>
     </g>
     <g id="text_7">
      <!-- 60 -->
      <g style="fill: #333333" transform="translate(4.668521 36.208903) scale(0.03 -0.03)">
       <defs>
        <path id="Helvetica-36" d="M 1872 4494 
Q 2622 4494 2917 4105 
Q 3213 3716 3213 3303 
L 2656 3303 
Q 2606 3569 2497 3719 
Q 2294 4000 1881 4000 
Q 1409 4000 1131 3564 
Q 853 3128 822 2316 
Q 1016 2600 1309 2741 
Q 1578 2866 1909 2866 
Q 2472 2866 2890 2506 
Q 3309 2147 3309 1434 
Q 3309 825 2912 354 
Q 2516 -116 1781 -116 
Q 1153 -116 697 361 
Q 241 838 241 1966 
Q 241 2800 444 3381 
Q 834 4494 1872 4494 
z
M 1831 384 
Q 2275 384 2495 682 
Q 2716 981 2716 1388 
Q 2716 1731 2519 2042 
Q 2322 2353 1803 2353 
Q 1441 2353 1167 2112 
Q 894 1872 894 1388 
Q 894 963 1142 673 
Q 1391 384 1831 384 
z
" transform="scale(0.015625)"/>
       </defs>
       <use xlink:href="#Helvetica-36"/>
       <use xlink:href="#Helvetica-30" x="55.615234"/>
      </g>
     </g>
    </g>
    <g id="ytick_5">
     <g id="line2d_5">
      <g>
       <use xlink:href="#m4ea1f46f27" x="10.005084" y="24.780677" style="fill: #777777; stroke: #777777; stroke-width: 0.5"/>
      </g>
     </g>
     <g id="text_8">
      <!-- 80 -->
      <g style="fill: #333333" transform="translate(4.668521 25.856692) scale(0.03 -0.03)">
       <defs>
        <path id="Helvetica-38" d="M 1741 2600 
Q 2113 2600 2322 2808 
Q 2531 3016 2531 3303 
Q 2531 3553 2331 3762 
Q 2131 3972 1722 3972 
Q 1316 3972 1134 3762 
Q 953 3553 953 3272 
Q 953 2956 1187 2778 
Q 1422 2600 1741 2600 
z
M 1775 384 
Q 2166 384 2423 595 
Q 2681 806 2681 1225 
Q 2681 1659 2415 1884 
Q 2150 2109 1734 2109 
Q 1331 2109 1076 1879 
Q 822 1650 822 1244 
Q 822 894 1055 639 
Q 1288 384 1775 384 
z
M 975 2384 
Q 741 2484 609 2619 
Q 363 2869 363 3269 
Q 363 3769 725 4128 
Q 1088 4488 1753 4488 
Q 2397 4488 2762 4148 
Q 3128 3809 3128 3356 
Q 3128 2938 2916 2678 
Q 2797 2531 2547 2391 
Q 2825 2263 2984 2097 
Q 3281 1784 3281 1284 
Q 3281 694 2884 283 
Q 2488 -128 1763 -128 
Q 1109 -128 657 226 
Q 206 581 206 1256 
Q 206 1653 400 1942 
Q 594 2231 975 2384 
z
" transform="scale(0.015625)"/>
       </defs>
       <use xlink:href="#Helvetica-38"/>
       <use xlink:href="#Helvetica-30" x="55.615234"/>
      </g>
     </g>
    </g>
    <g id="ytick_6">
     <g id="line2d_6">
      <g>
       <use xlink:href="#m4ea1f46f27" x="10.005084" y="14.428466" style="fill: #777777; stroke: #777777; stroke-width: 0.5"/>
      </g>
     </g>
     <g id="text_9">
      <!-- 100 -->
      <g style="fill: #333333" transform="translate(3.00024 15.504482) scale(0.03 -0.03)">
       <defs>
        <path id="Helvetica-31" d="M 613 3169 
L 613 3600 
Q 1222 3659 1462 3798 
Q 1703 3938 1822 4456 
L 2266 4456 
L 2266 0 
L 1666 0 
L 1666 3169 
L 613 3169 
z
" transform="scale(0.015625)"/>
       </defs>
       <use xlink:href="#Helvetica-31"/>
       <use xlink:href="#Helvetica-30" x="55.615234"/>
       <use xlink:href="#Helvetica-30" x="111.230469"/>
      </g>
     </g>
    </g>
    <g id="ytick_7">
     <g id="line2d_7">
      <g>
       <use xlink:href="#m4ea1f46f27" x="10.005084" y="4.076256" style="fill: #777777; stroke: #777777; stroke-width: 0.5"/>
      </g>
     </g>
     <g id="text_10">
      <!-- 120 -->
      <g style="fill: #333333" transform="translate(3.00024 5.152271) scale(0.03 -0.03)">
       <use xlink:href="#Helvetica-31"/>
       <use xlink:href="#Helvetica-32" x="55.615234"/>
       <use xlink:href="#Helvetica-30" x="111.230469"/>
      </g>
     </g>
    </g>
   </g>
   <g id="PolyCollection_1">
    <defs>
     <path id="mfc03a2f6f9" d="M 23.335134 -17.307856 
L 20.659926 -17.307856 
L 20.359916 -17.598195 
L 20.021103 -17.888534 
L 19.645695 -18.178873 
L 19.237783 -18.469212 
L 18.803393 -18.759551 
L 18.350384 -19.04989 
L 17.888221 -19.340229 
L 17.42761 -19.630568 
L 16.980027 -19.920907 
L 16.557165 -20.211246 
L 16.170353 -20.501585 
L 15.829988 -20.791924 
L 15.545018 -21.082263 
L 15.322518 -21.372602 
L 15.167388 -21.662941 
L 15.082177 -21.95328 
L 15.067025 -22.243619 
L 15.11974 -22.533958 
L 15.23595 -22.824298 
L 15.409345 -23.114637 
L 15.631964 -23.404976 
L 15.894523 -23.695315 
L 16.186762 -23.985654 
L 16.497822 -24.275993 
L 16.816626 -24.566332 
L 17.132282 -24.856671 
L 17.434492 -25.14701 
L 17.713955 -25.437349 
L 17.962755 -25.727688 
L 18.174705 -26.018027 
L 18.345618 -26.308366 
L 18.473482 -26.598705 
L 18.558511 -26.889044 
L 18.603055 -27.179383 
L 18.611359 -27.469722 
L 18.58919 -27.760061 
L 18.543342 -28.0504 
L 18.481071 -28.340739 
L 18.409486 -28.631078 
L 18.334969 -28.921417 
L 18.262663 -29.211756 
L 18.196077 -29.502095 
L 18.136851 -29.792434 
L 18.08468 -30.082773 
L 18.037428 -30.373112 
L 17.991394 -30.663451 
L 17.941716 -30.95379 
L 17.882861 -31.244129 
L 17.809155 -31.534468 
L 17.715309 -31.824807 
L 17.596886 -32.115146 
L 17.450663 -32.405485 
L 17.274888 -32.695825 
L 17.069382 -32.986164 
L 16.835524 -33.276503 
L 16.576108 -33.566842 
L 16.29511 -33.857181 
L 15.997395 -34.14752 
L 15.688392 -34.437859 
L 15.373768 -34.728198 
L 15.059134 -35.018537 
L 14.749783 -35.308876 
L 14.450488 -35.599215 
L 14.165344 -35.889554 
L 13.897674 -36.179893 
L 13.64998 -36.470232 
L 13.423948 -36.760571 
L 13.220508 -37.05091 
L 13.039945 -37.341249 
L 12.882074 -37.631588 
L 12.746458 -37.921927 
L 12.632676 -38.212266 
L 12.540608 -38.502605 
L 12.470719 -38.792944 
L 12.424288 -39.083283 
L 12.403573 -39.373622 
L 12.41184 -39.663961 
L 12.453266 -39.9543 
L 12.532685 -40.244639 
L 12.655194 -40.534978 
L 12.825658 -40.825317 
L 13.04815 -41.115656 
L 13.325402 -41.405995 
L 13.658313 -41.696334 
L 14.045603 -41.986673 
L 14.483624 -42.277012 
L 14.966382 -42.567351 
L 15.485762 -42.857691 
L 16.031933 -43.14803 
L 16.593898 -43.438369 
L 17.160125 -43.728708 
L 17.719212 -44.019047 
L 18.260504 -44.309386 
L 18.774629 -44.599725 
L 19.253896 -44.890064 
L 19.692552 -45.180403 
L 20.086871 -45.470742 
L 20.435108 -45.761081 
L 20.737316 -46.05142 
L 23.257743 -46.05142 
L 23.257743 -46.05142 
L 23.559952 -45.761081 
L 23.908188 -45.470742 
L 24.302508 -45.180403 
L 24.741163 -44.890064 
L 25.220431 -44.599725 
L 25.734555 -44.309386 
L 26.275847 -44.019047 
L 26.834934 -43.728708 
L 27.401162 -43.438369 
L 27.963126 -43.14803 
L 28.509298 -42.857691 
L 29.028678 -42.567351 
L 29.511436 -42.277012 
L 29.949457 -41.986673 
L 30.336747 -41.696334 
L 30.669658 -41.405995 
L 30.946909 -41.115656 
L 31.169402 -40.825317 
L 31.339866 -40.534978 
L 31.462375 -40.244639 
L 31.541794 -39.9543 
L 31.58322 -39.663961 
L 31.591487 -39.373622 
L 31.570771 -39.083283 
L 31.524341 -38.792944 
L 31.454451 -38.502605 
L 31.362384 -38.212266 
L 31.248602 -37.921927 
L 31.112986 -37.631588 
L 30.955115 -37.341249 
L 30.774552 -37.05091 
L 30.571111 -36.760571 
L 30.345079 -36.470232 
L 30.097385 -36.179893 
L 29.829715 -35.889554 
L 29.544572 -35.599215 
L 29.245276 -35.308876 
L 28.935926 -35.018537 
L 28.621292 -34.728198 
L 28.306668 -34.437859 
L 27.997665 -34.14752 
L 27.69995 -33.857181 
L 27.418952 -33.566842 
L 27.159536 -33.276503 
L 26.925678 -32.986164 
L 26.720172 -32.695825 
L 26.544396 -32.405485 
L 26.398174 -32.115146 
L 26.27975 -31.824807 
L 26.185905 -31.534468 
L 26.112199 -31.244129 
L 26.053343 -30.95379 
L 26.003665 -30.663451 
L 25.957631 -30.373112 
L 25.910379 -30.082773 
L 25.858208 -29.792434 
L 25.798982 -29.502095 
L 25.732397 -29.211756 
L 25.660091 -28.921417 
L 25.585573 -28.631078 
L 25.513988 -28.340739 
L 25.451717 -28.0504 
L 25.40587 -27.760061 
L 25.383701 -27.469722 
L 25.392005 -27.179383 
L 25.436548 -26.889044 
L 25.521578 -26.598705 
L 25.649442 -26.308366 
L 25.820355 -26.018027 
L 26.032304 -25.727688 
L 26.281104 -25.437349 
L 26.560567 -25.14701 
L 26.862777 -24.856671 
L 27.178434 -24.566332 
L 27.497238 -24.275993 
L 27.808298 -23.985654 
L 28.100537 -23.695315 
L 28.363096 -23.404976 
L 28.585715 -23.114637 
L 28.75911 -22.824298 
L 28.87532 -22.533958 
L 28.928034 -22.243619 
L 28.912883 -21.95328 
L 28.827671 -21.662941 
L 28.672542 -21.372602 
L 28.450042 -21.082263 
L 28.165071 -20.791924 
L 27.824706 -20.501585 
L 27.437895 -20.211246 
L 27.015033 -19.920907 
L 26.567449 -19.630568 
L 26.106839 -19.340229 
L 25.644676 -19.04989 
L 25.191666 -18.759551 
L 24.757276 -18.469212 
L 24.349365 -18.178873 
L 23.973956 -17.888534 
L 23.635144 -17.598195 
L 23.335134 -17.307856 
z
" style="stroke: #6f6f6f; stroke-width: 0.15"/>
    </defs>
    <g clip-path="url(#pbeb268b478)">
     <use xlink:href="#mfc03a2f6f9" x="0" y="84.96" style="fill: #abc9ea; stroke: #6f6f6f; stroke-width: 0.15"/>
    </g>
   </g>
   <g id="PolyCollection_2">
    <defs>
     <path id="m5e898aea87" d="M 46.988733 -19.745983 
L 44.976111 -19.745983 
L 44.705201 -20.041568 
L 44.395117 -20.337152 
L 44.050309 -20.632736 
L 43.678199 -20.92832 
L 43.288982 -21.223905 
L 42.895062 -21.519489 
L 42.510162 -21.815073 
L 42.148178 -22.110658 
L 41.821921 -22.406242 
L 41.541914 -22.701826 
L 41.315397 -22.997411 
L 41.145691 -23.292995 
L 41.031995 -23.588579 
L 40.96964 -23.884163 
L 40.95073 -24.179748 
L 40.965078 -24.475332 
L 41.001277 -24.770916 
L 41.047765 -25.066501 
L 41.093762 -25.362085 
L 41.129976 -25.657669 
L 41.149048 -25.953254 
L 41.145727 -26.248838 
L 41.11681 -26.544422 
L 41.060892 -26.840006 
L 40.977993 -27.135591 
L 40.869122 -27.431175 
L 40.735829 -27.726759 
L 40.579797 -28.022344 
L 40.402523 -28.317928 
L 40.205119 -28.613512 
L 39.988267 -28.909097 
L 39.752325 -29.204681 
L 39.497595 -29.500265 
L 39.224697 -29.795849 
L 38.935015 -30.091434 
L 38.631128 -30.387018 
L 38.317157 -30.682602 
L 37.998958 -30.978187 
L 37.684099 -31.273771 
L 37.381631 -31.569355 
L 37.101648 -31.86494 
L 36.854705 -32.160524 
L 36.651159 -32.456108 
L 36.500526 -32.751692 
L 36.410894 -33.047277 
L 36.388465 -33.342861 
L 36.437201 -33.638445 
L 36.55859 -33.93403 
L 36.751497 -34.229614 
L 37.012092 -34.525198 
L 37.333861 -34.820783 
L 37.707748 -35.116367 
L 38.122449 -35.411951 
L 38.564929 -35.707535 
L 39.021151 -36.00312 
L 39.476991 -36.298704 
L 39.919244 -36.594288 
L 40.336584 -36.889873 
L 40.72033 -37.185457 
L 41.064869 -37.481041 
L 41.367667 -37.776626 
L 41.628852 -38.07221 
L 41.850463 -38.367794 
L 42.035504 -38.663378 
L 42.187019 -38.958963 
L 42.307364 -39.254547 
L 42.39783 -39.550131 
L 42.458685 -39.845716 
L 42.489614 -40.1413 
L 42.490443 -40.436884 
L 42.461974 -40.732469 
L 42.406732 -41.028053 
L 42.32946 -41.323637 
L 42.23722 -41.619221 
L 42.13907 -41.914806 
L 42.045355 -42.21039 
L 41.966733 -42.505974 
L 41.913096 -42.801559 
L 41.892574 -43.097143 
L 41.91078 -43.392727 
L 41.970406 -43.688312 
L 42.071206 -43.983896 
L 42.21034 -44.27948 
L 42.382983 -44.575064 
L 42.583066 -44.870649 
L 42.804027 -45.166233 
L 43.039432 -45.461817 
L 43.283416 -45.757402 
L 43.530894 -46.052986 
L 43.77759 -46.34857 
L 44.019927 -46.644155 
L 44.254857 -46.939739 
L 44.479701 -47.235323 
L 44.69205 -47.530907 
L 44.889742 -47.826492 
L 45.070924 -48.122076 
L 45.234145 -48.41766 
L 45.378477 -48.713245 
L 45.50359 -49.008829 
L 46.461254 -49.008829 
L 46.461254 -49.008829 
L 46.586366 -48.713245 
L 46.730698 -48.41766 
L 46.89392 -48.122076 
L 47.075102 -47.826492 
L 47.272794 -47.530907 
L 47.485142 -47.235323 
L 47.709987 -46.939739 
L 47.944917 -46.644155 
L 48.187254 -46.34857 
L 48.43395 -46.052986 
L 48.681428 -45.757402 
L 48.925411 -45.461817 
L 49.160817 -45.166233 
L 49.381778 -44.870649 
L 49.581861 -44.575064 
L 49.754503 -44.27948 
L 49.893638 -43.983896 
L 49.994438 -43.688312 
L 50.054064 -43.392727 
L 50.07227 -43.097143 
L 50.051748 -42.801559 
L 49.998111 -42.505974 
L 49.919489 -42.21039 
L 49.825774 -41.914806 
L 49.727624 -41.619221 
L 49.635384 -41.323637 
L 49.558112 -41.028053 
L 49.50287 -40.732469 
L 49.4744 -40.436884 
L 49.47523 -40.1413 
L 49.506159 -39.845716 
L 49.567014 -39.550131 
L 49.65748 -39.254547 
L 49.777825 -38.958963 
L 49.92934 -38.663378 
L 50.114381 -38.367794 
L 50.335991 -38.07221 
L 50.597177 -37.776626 
L 50.899975 -37.481041 
L 51.244514 -37.185457 
L 51.62826 -36.889873 
L 52.0456 -36.594288 
L 52.487853 -36.298704 
L 52.943693 -36.00312 
L 53.399915 -35.707535 
L 53.842395 -35.411951 
L 54.257096 -35.116367 
L 54.630982 -34.820783 
L 54.952752 -34.525198 
L 55.213347 -34.229614 
L 55.406254 -33.93403 
L 55.527643 -33.638445 
L 55.576379 -33.342861 
L 55.553949 -33.047277 
L 55.464318 -32.751692 
L 55.313684 -32.456108 
L 55.110139 -32.160524 
L 54.863196 -31.86494 
L 54.583213 -31.569355 
L 54.280745 -31.273771 
L 53.965886 -30.978187 
L 53.647686 -30.682602 
L 53.333716 -30.387018 
L 53.029829 -30.091434 
L 52.740147 -29.795849 
L 52.467249 -29.500265 
L 52.212518 -29.204681 
L 51.976577 -28.909097 
L 51.759724 -28.613512 
L 51.562321 -28.317928 
L 51.385047 -28.022344 
L 51.229015 -27.726759 
L 51.095722 -27.431175 
L 50.986851 -27.135591 
L 50.903952 -26.840006 
L 50.848034 -26.544422 
L 50.819117 -26.248838 
L 50.815796 -25.953254 
L 50.834868 -25.657669 
L 50.871082 -25.362085 
L 50.917079 -25.066501 
L 50.963567 -24.770916 
L 50.999766 -24.475332 
L 51.014114 -24.179748 
L 50.995204 -23.884163 
L 50.932848 -23.588579 
L 50.819153 -23.292995 
L 50.649446 -22.997411 
L 50.42293 -22.701826 
L 50.142923 -22.406242 
L 49.816666 -22.110658 
L 49.454681 -21.815073 
L 49.069781 -21.519489 
L 48.675862 -21.223905 
L 48.286645 -20.92832 
L 47.914535 -20.632736 
L 47.569727 -20.337152 
L 47.259643 -20.041568 
L 46.988733 -19.745983 
z
" style="stroke: #6f6f6f; stroke-width: 0.15"/>
    </defs>
    <g clip-path="url(#pbeb268b478)">
     <use xlink:href="#m5e898aea87" x="0" y="84.96" style="fill: #efb792; stroke: #6f6f6f; stroke-width: 0.15"/>
    </g>
   </g>
   <g id="PolyCollection_3">
    <defs>
     <path id="m14b55f8d69" d="M 71.382642 -16.260701 
L 68.551986 -16.260701 
L 68.160444 -16.534919 
L 67.701555 -16.809138 
L 67.175908 -17.083357 
L 66.587697 -17.357576 
L 65.945094 -17.631794 
L 65.260331 -17.906013 
L 64.549462 -18.180232 
L 63.831782 -18.45445 
L 63.128938 -18.728669 
L 62.46379 -19.002888 
L 61.859117 -19.277107 
L 61.336273 -19.551325 
L 60.913895 -19.825544 
L 60.606787 -20.099763 
L 60.425021 -20.373982 
L 60.373357 -20.6482 
L 60.450969 -20.922419 
L 60.651514 -21.196638 
L 60.963518 -21.470856 
L 61.371046 -21.745075 
L 61.854622 -22.019294 
L 62.392339 -22.293513 
L 62.961104 -22.567731 
L 63.537931 -22.84195 
L 64.101222 -23.116169 
L 64.631936 -23.390387 
L 65.114573 -23.664606 
L 65.537897 -23.938825 
L 65.895341 -24.213044 
L 66.185054 -24.487262 
L 66.409594 -24.761481 
L 66.575296 -25.0357 
L 66.691372 -25.309919 
L 66.768839 -25.584137 
L 66.819397 -25.858356 
L 66.854352 -26.132575 
L 66.883724 -26.406793 
L 66.915593 -26.681012 
L 66.955753 -26.955231 
L 67.007668 -27.22945 
L 67.072702 -27.503668 
L 67.150535 -27.777887 
L 67.239694 -28.052106 
L 67.338079 -28.326324 
L 67.443419 -28.600543 
L 67.553591 -28.874762 
L 67.666774 -29.148981 
L 67.781457 -29.423199 
L 67.896339 -29.697418 
L 68.010163 -29.971637 
L 68.12156 -30.245856 
L 68.228954 -30.520074 
L 68.330535 -30.794293 
L 68.424347 -31.068512 
L 68.508435 -31.34273 
L 68.581044 -31.616949 
L 68.640817 -31.891168 
L 68.686941 -32.165387 
L 68.71923 -32.439605 
L 68.738102 -32.713824 
L 68.744489 -32.988043 
L 68.739671 -33.262261 
L 68.725095 -33.53648 
L 68.702206 -33.810699 
L 68.672333 -34.084918 
L 68.636639 -34.359136 
L 68.596155 -34.633355 
L 68.55187 -34.907574 
L 68.504852 -35.181793 
L 68.456366 -35.456011 
L 68.407947 -35.73023 
L 68.36141 -36.004449 
L 68.318777 -36.278667 
L 68.282142 -36.552886 
L 68.253477 -36.827105 
L 68.234447 -37.101324 
L 68.226233 -37.375542 
L 68.229432 -37.649761 
L 68.24403 -37.92398 
L 68.269473 -38.198198 
L 68.304802 -38.472417 
L 68.34884 -38.746636 
L 68.400388 -39.020855 
L 68.45839 -39.295073 
L 68.522038 -39.569292 
L 68.59081 -39.843511 
L 68.664414 -40.11773 
L 68.742684 -40.391948 
L 68.825431 -40.666167 
L 68.912297 -40.940386 
L 69.002637 -41.214604 
L 69.095456 -41.488823 
L 69.189413 -41.763042 
L 69.28289 -42.037261 
L 69.374115 -42.311479 
L 69.461313 -42.585698 
L 69.542859 -42.859917 
L 69.617414 -43.134135 
L 69.684022 -43.408354 
L 70.250606 -43.408354 
L 70.250606 -43.408354 
L 70.317214 -43.134135 
L 70.391769 -42.859917 
L 70.473315 -42.585698 
L 70.560513 -42.311479 
L 70.651738 -42.037261 
L 70.745215 -41.763042 
L 70.839172 -41.488823 
L 70.931991 -41.214604 
L 71.022331 -40.940386 
L 71.109197 -40.666167 
L 71.191944 -40.391948 
L 71.270214 -40.11773 
L 71.343818 -39.843511 
L 71.41259 -39.569292 
L 71.476238 -39.295073 
L 71.53424 -39.020855 
L 71.585788 -38.746636 
L 71.629826 -38.472417 
L 71.665155 -38.198198 
L 71.690598 -37.92398 
L 71.705196 -37.649761 
L 71.708395 -37.375542 
L 71.700181 -37.101324 
L 71.681151 -36.827105 
L 71.652486 -36.552886 
L 71.615851 -36.278667 
L 71.573218 -36.004449 
L 71.526681 -35.73023 
L 71.478262 -35.456011 
L 71.429776 -35.181793 
L 71.382758 -34.907574 
L 71.338473 -34.633355 
L 71.297989 -34.359136 
L 71.262295 -34.084918 
L 71.232421 -33.810699 
L 71.209533 -33.53648 
L 71.194957 -33.262261 
L 71.190139 -32.988043 
L 71.196526 -32.713824 
L 71.215398 -32.439605 
L 71.247686 -32.165387 
L 71.293811 -31.891168 
L 71.353583 -31.616949 
L 71.426193 -31.34273 
L 71.510281 -31.068512 
L 71.604093 -30.794293 
L 71.705674 -30.520074 
L 71.813067 -30.245856 
L 71.924465 -29.971637 
L 72.038288 -29.697418 
L 72.153171 -29.423199 
L 72.267854 -29.148981 
L 72.381037 -28.874762 
L 72.491209 -28.600543 
L 72.596549 -28.326324 
L 72.694934 -28.052106 
L 72.784093 -27.777887 
L 72.861926 -27.503668 
L 72.92696 -27.22945 
L 72.978875 -26.955231 
L 73.019035 -26.681012 
L 73.050903 -26.406793 
L 73.080276 -26.132575 
L 73.115231 -25.858356 
L 73.165789 -25.584137 
L 73.243256 -25.309919 
L 73.359332 -25.0357 
L 73.525034 -24.761481 
L 73.749574 -24.487262 
L 74.039287 -24.213044 
L 74.396731 -23.938825 
L 74.820055 -23.664606 
L 75.302692 -23.390387 
L 75.833406 -23.116169 
L 76.396697 -22.84195 
L 76.973524 -22.567731 
L 77.542289 -22.293513 
L 78.080006 -22.019294 
L 78.563582 -21.745075 
L 78.97111 -21.470856 
L 79.283114 -21.196638 
L 79.483659 -20.922419 
L 79.561271 -20.6482 
L 79.509607 -20.373982 
L 79.327841 -20.099763 
L 79.020733 -19.825544 
L 78.598355 -19.551325 
L 78.075511 -19.277107 
L 77.470838 -19.002888 
L 76.80569 -18.728669 
L 76.102846 -18.45445 
L 75.385166 -18.180232 
L 74.674297 -17.906013 
L 73.989534 -17.631794 
L 73.346931 -17.357576 
L 72.75872 -17.083357 
L 72.233073 -16.809138 
L 71.774184 -16.534919 
L 71.382642 -16.260701 
z
" style="stroke: #6f6f6f; stroke-width: 0.15"/>
    </defs>
    <g clip-path="url(#pbeb268b478)">
     <use xlink:href="#m14b55f8d69" x="0" y="84.96" style="fill: #98daa7; stroke: #6f6f6f; stroke-width: 0.15"/>
    </g>
   </g>
   <g id="line2d_8">
    <path d="M 21.99753 64.327672 
L 21.99753 42.233052 
" clip-path="url(#pbeb268b478)" style="fill: none; stroke: #8c8c8c; stroke-width: 0.75; stroke-linecap: round"/>
   </g>
   <g id="line2d_9">
    <path d="M 21.99753 60.467024 
L 21.99753 45.820927 
" clip-path="url(#pbeb268b478)" style="fill: none; stroke: #8c8c8c; stroke-width: 4; stroke-linecap: round"/>
   </g>
   <g id="line2d_10">
    <path d="M 21.99753 49.964367 
" clip-path="url(#pbeb268b478)" style="fill: none; stroke: #6f6f6f; stroke-width: 1.2; stroke-linecap: round"/>
    <defs>
     <path id="m19b90ebb1d" d="M 0 0.833333 
C 0.221003 0.833333 0.432983 0.745528 0.589256 0.589256 
C 0.745528 0.432983 0.833333 0.221003 0.833333 0 
C 0.833333 -0.221003 0.745528 -0.432983 0.589256 -0.589256 
C 0.432983 -0.745528 0.221003 -0.833333 0 -0.833333 
C -0.221003 -0.833333 -0.432983 -0.745528 -0.589256 -0.589256 
C -0.745528 -0.432983 -0.833333 -0.221003 -0.833333 0 
C -0.833333 0.221003 -0.745528 0.432983 -0.589256 0.589256 
C -0.432983 0.745528 -0.221003 0.833333 0 0.833333 
z
" style="stroke: #ffffff; stroke-width: 0.8"/>
    </defs>
    <g clip-path="url(#pbeb268b478)">
     <use xlink:href="#m19b90ebb1d" x="21.99753" y="49.964367" style="fill: #ffffff; stroke: #ffffff; stroke-width: 0.8"/>
    </g>
   </g>
   <g id="line2d_11">
    <path d="M 45.982422 62.378216 
L 45.982422 38.786971 
" clip-path="url(#pbeb268b478)" style="fill: none; stroke: #8c8c8c; stroke-width: 0.75; stroke-linecap: round"/>
   </g>
   <g id="line2d_12">
    <path d="M 45.982422 56.451743 
L 45.982422 48.4768 
" clip-path="url(#pbeb268b478)" style="fill: none; stroke: #8c8c8c; stroke-width: 4; stroke-linecap: round"/>
   </g>
   <g id="line2d_13">
    <path d="M 45.982422 51.948267 
" clip-path="url(#pbeb268b478)" style="fill: none; stroke: #6f6f6f; stroke-width: 1.2; stroke-linecap: round"/>
    <g clip-path="url(#pbeb268b478)">
     <use xlink:href="#m19b90ebb1d" x="45.982422" y="51.948267" style="fill: #ffffff; stroke: #ffffff; stroke-width: 0.8"/>
    </g>
   </g>
   <g id="line2d_14">
    <path d="M 69.967314 65.940986 
L 69.967314 46.929523 
" clip-path="url(#pbeb268b478)" style="fill: none; stroke: #8c8c8c; stroke-width: 0.75; stroke-linecap: round"/>
   </g>
   <g id="line2d_15">
    <path d="M 69.967314 64.773219 
L 69.967314 57.579813 
" clip-path="url(#pbeb268b478)" style="fill: none; stroke: #8c8c8c; stroke-width: 4; stroke-linecap: round"/>
   </g>
   <g id="line2d_16">
    <path d="M 69.967314 63.138411 
" clip-path="url(#pbeb268b478)" style="fill: none; stroke: #6f6f6f; stroke-width: 1.2; stroke-linecap: round"/>
    <g clip-path="url(#pbeb268b478)">
     <use xlink:href="#m19b90ebb1d" x="69.967314" y="63.138411" style="fill: #ffffff; stroke: #ffffff; stroke-width: 0.8"/>
    </g>
   </g>
   <g id="patch_3">
    <path d="M 10.005084 74.419526 
L 10.005084 4.076256 
" style="fill: none; stroke: #777777; stroke-width: 0.5; stroke-linejoin: miter; stroke-linecap: square"/>
   </g>
   <g id="patch_4">
    <path d="M 10.005084 76.919526 
L 81.95976 76.919526 
" style="fill: none; stroke: #777777; stroke-width: 0.5; stroke-linejoin: miter; stroke-linecap: square"/>
   </g>
  </g>
 </g>
 <defs>
  <clipPath id="pbeb268b478">
   <rect x="10.005084" y="4.076256" width="71.954676" height="70.34327"/>
  </clipPath>
 </defs>
</svg>
