<?xml version="1.0" encoding="utf-8" standalone="no"?>
<!DOCTYPE svg PUBLIC "-//W3C//DTD SVG 1.1//EN"
  "http://www.w3.org/Graphics/SVG/1.1/DTD/svg11.dtd">
<svg xmlns:xlink="http://www.w3.org/1999/xlink" width="169.92pt" height="84.96pt" viewBox="0 0 169.92 84.96" xmlns="http://www.w3.org/2000/svg" version="1.1">
 <metadata>
  <rdf:RDF xmlns:dc="http://purl.org/dc/elements/1.1/" xmlns:cc="http://creativecommons.org/ns#" xmlns:rdf="http://www.w3.org/1999/02/22-rdf-syntax-ns#">
   <cc:Work>
    <dc:type rdf:resource="http://purl.org/dc/dcmitype/StillImage"/>
    <dc:date>2024-05-27T15:37:26.792257</dc:date>
    <dc:format>image/svg+xml</dc:format>
    <dc:creator>
     <cc:Agent>
      <dc:title>Matplotlib v3.8.3, https://matplotlib.org/</dc:title>
     </cc:Agent>
    </dc:creator>
   </cc:Work>
  </rdf:RDF>
 </metadata>
 <defs>
  <style type="text/css">*{stroke-linejoin: round; stroke-linecap: butt}</style>
 </defs>
 <g id="figure_1">
  <g id="patch_1">
   <path d="M 0 84.96 
L 169.92 84.96 
L 169.92 0 
L 0 0 
z
" style="fill: #ffffff"/>
  </g>
  <g id="axes_1">
   <g id="patch_2">
    <path d="M 9.17024 74.419526 
L 82.376479 74.419526 
L 82.376479 4.076256 
L 9.17024 4.076256 
z
" style="fill: #ffffff"/>
   </g>
   <g id="matplotlib.axis_1">
    <g id="xtick_1">
     <g id="text_1">
      <!-- NK/ILC1ie -->
      <g style="fill: #333333" transform="translate(10.345395 81.230229) scale(0.035 -0.035)">
       <defs>
        <path id="Helvetica-4e" d="M 488 4591 
L 1222 4591 
L 3541 872 
L 3541 4591 
L 4131 4591 
L 4131 0 
L 3434 0 
L 1081 3716 
L 1081 0 
L 488 0 
L 488 4591 
z
M 2269 4591 
L 2269 4591 
z
" transform="scale(0.015625)"/>
        <path id="Helvetica-4b" d="M 488 4591 
L 1094 4591 
L 1094 2353 
L 3331 4591 
L 4191 4591 
L 2281 2741 
L 4244 0 
L 3434 0 
L 1828 2303 
L 1094 1600 
L 1094 0 
L 488 0 
L 488 4591 
z
" transform="scale(0.015625)"/>
        <path id="Helvetica-2f" d="M 1456 4591 
L 1931 4591 
L 475 0 
L 0 0 
L 1456 4591 
z
" transform="scale(0.015625)"/>
        <path id="Helvetica-49" d="M 628 4591 
L 1256 4591 
L 1256 0 
L 628 0 
L 628 4591 
z
" transform="scale(0.015625)"/>
        <path id="Helvetica-4c" d="M 488 4591 
L 1109 4591 
L 1109 547 
L 3434 547 
L 3434 0 
L 488 0 
L 488 4591 
z
" transform="scale(0.015625)"/>
        <path id="Helvetica-43" d="M 2422 4716 
Q 3294 4716 3775 4256 
Q 4256 3797 4309 3213 
L 3703 3213 
Q 3600 3656 3292 3915 
Q 2984 4175 2428 4175 
Q 1750 4175 1333 3698 
Q 916 3222 916 2238 
Q 916 1431 1292 929 
Q 1669 428 2416 428 
Q 3103 428 3463 956 
Q 3653 1234 3747 1688 
L 4353 1688 
Q 4272 963 3816 472 
Q 3269 -119 2341 -119 
Q 1541 -119 997 366 
Q 281 1006 281 2344 
Q 281 3359 819 4009 
Q 1400 4716 2422 4716 
z
M 2297 4716 
L 2297 4716 
z
" transform="scale(0.015625)"/>
        <path id="Helvetica-31" d="M 613 3169 
L 613 3600 
Q 1222 3659 1462 3798 
Q 1703 3938 1822 4456 
L 2266 4456 
L 2266 0 
L 1666 0 
L 1666 3169 
L 613 3169 
z
" transform="scale(0.015625)"/>
        <path id="Helvetica-69" d="M 413 3331 
L 984 3331 
L 984 0 
L 413 0 
L 413 3331 
z
M 413 4591 
L 984 4591 
L 984 3953 
L 413 3953 
L 413 4591 
z
" transform="scale(0.015625)"/>
        <path id="Helvetica-65" d="M 1806 3422 
Q 2163 3422 2497 3255 
Q 2831 3088 3006 2822 
Q 3175 2569 3231 2231 
Q 3281 2000 3281 1494 
L 828 1494 
Q 844 984 1069 676 
Q 1294 369 1766 369 
Q 2206 369 2469 659 
Q 2619 828 2681 1050 
L 3234 1050 
Q 3213 866 3089 639 
Q 2966 413 2813 269 
Q 2556 19 2178 -69 
Q 1975 -119 1719 -119 
Q 1094 -119 659 336 
Q 225 791 225 1609 
Q 225 2416 662 2919 
Q 1100 3422 1806 3422 
z
M 2703 1941 
Q 2669 2306 2544 2525 
Q 2313 2931 1772 2931 
Q 1384 2931 1121 2651 
Q 859 2372 844 1941 
L 2703 1941 
z
M 1753 3428 
L 1753 3428 
z
" transform="scale(0.015625)"/>
       </defs>
       <use xlink:href="#Helvetica-4e"/>
       <use xlink:href="#Helvetica-4b" x="72.216797"/>
       <use xlink:href="#Helvetica-2f" x="138.916016"/>
       <use xlink:href="#Helvetica-49" x="166.699219"/>
       <use xlink:href="#Helvetica-4c" x="194.482422"/>
       <use xlink:href="#Helvetica-43" x="250.097656"/>
       <use xlink:href="#Helvetica-31" x="322.314453"/>
       <use xlink:href="#Helvetica-69" x="377.929688"/>
       <use xlink:href="#Helvetica-65" x="400.146484"/>
      </g>
     </g>
    </g>
    <g id="xtick_2">
     <g id="text_2">
      <!-- ILC1 -->
      <g style="fill: #333333" transform="translate(32.926251 81.230229) scale(0.035 -0.035)">
       <use xlink:href="#Helvetica-49"/>
       <use xlink:href="#Helvetica-4c" x="27.783203"/>
       <use xlink:href="#Helvetica-43" x="83.398438"/>
       <use xlink:href="#Helvetica-31" x="155.615234"/>
      </g>
     </g>
    </g>
    <g id="xtick_3">
     <g id="text_3">
      <!-- ILC2 -->
      <g style="fill: #333333" transform="translate(51.227811 81.230229) scale(0.035 -0.035)">
       <defs>
        <path id="Helvetica-32" d="M 200 0 
Q 231 578 439 1006 
Q 647 1434 1250 1784 
L 1850 2131 
Q 2253 2366 2416 2531 
Q 2672 2791 2672 3125 
Q 2672 3516 2437 3745 
Q 2203 3975 1813 3975 
Q 1234 3975 1013 3538 
Q 894 3303 881 2888 
L 309 2888 
Q 319 3472 525 3841 
Q 891 4491 1816 4491 
Q 2584 4491 2939 4075 
Q 3294 3659 3294 3150 
Q 3294 2613 2916 2231 
Q 2697 2009 2131 1694 
L 1703 1456 
Q 1397 1288 1222 1134 
Q 909 863 828 531 
L 3272 531 
L 3272 0 
L 200 0 
z
" transform="scale(0.015625)"/>
       </defs>
       <use xlink:href="#Helvetica-49"/>
       <use xlink:href="#Helvetica-4c" x="27.783203"/>
       <use xlink:href="#Helvetica-43" x="83.398438"/>
       <use xlink:href="#Helvetica-32" x="155.615234"/>
      </g>
     </g>
    </g>
    <g id="xtick_4">
     <g id="text_4">
      <!-- ILC3 -->
      <g style="fill: #333333" transform="translate(69.529371 81.230229) scale(0.035 -0.035)">
       <defs>
        <path id="Helvetica-33" d="M 1663 -122 
Q 869 -122 511 314 
Q 153 750 153 1375 
L 741 1375 
Q 778 941 903 744 
Q 1122 391 1694 391 
Q 2138 391 2406 628 
Q 2675 866 2675 1241 
Q 2675 1703 2392 1887 
Q 2109 2072 1606 2072 
Q 1550 2072 1492 2070 
Q 1434 2069 1375 2066 
L 1375 2563 
Q 1463 2553 1522 2550 
Q 1581 2547 1650 2547 
Q 1966 2547 2169 2647 
Q 2525 2822 2525 3272 
Q 2525 3606 2287 3787 
Q 2050 3969 1734 3969 
Q 1172 3969 956 3594 
Q 838 3388 822 3006 
L 266 3006 
Q 266 3506 466 3856 
Q 809 4481 1675 4481 
Q 2359 4481 2734 4176 
Q 3109 3872 3109 3294 
Q 3109 2881 2888 2625 
Q 2750 2466 2531 2375 
Q 2884 2278 3082 2001 
Q 3281 1725 3281 1325 
Q 3281 684 2859 281 
Q 2438 -122 1663 -122 
z
" transform="scale(0.015625)"/>
       </defs>
       <use xlink:href="#Helvetica-49"/>
       <use xlink:href="#Helvetica-4c" x="27.783203"/>
       <use xlink:href="#Helvetica-43" x="83.398438"/>
       <use xlink:href="#Helvetica-33" x="155.615234"/>
      </g>
     </g>
    </g>
   </g>
   <g id="matplotlib.axis_2">
    <g id="ytick_1">
     <g id="line2d_1">
      <defs>
       <path id="m77c5fdd219" d="M 0 0 
L -1 0 
" style="stroke: #777777; stroke-width: 0.5"/>
      </defs>
      <g>
       <use xlink:href="#m77c5fdd219" x="9.17024" y="64.54325" style="fill: #777777; stroke: #777777; stroke-width: 0.5"/>
      </g>
     </g>
     <g id="text_5">
      <!-- 0.0 -->
      <g style="fill: #333333" transform="translate(3.00024 65.619266) scale(0.03 -0.03)">
       <defs>
        <path id="Helvetica-30" d="M 1731 4475 
Q 2600 4475 2988 3759 
Q 3288 3206 3288 2244 
Q 3288 1331 3016 734 
Q 2622 -122 1728 -122 
Q 922 -122 528 578 
Q 200 1163 200 2147 
Q 200 2909 397 3456 
Q 766 4475 1731 4475 
z
M 1725 391 
Q 2163 391 2422 778 
Q 2681 1166 2681 2222 
Q 2681 2984 2493 3476 
Q 2306 3969 1766 3969 
Q 1269 3969 1039 3501 
Q 809 3034 809 2125 
Q 809 1441 956 1025 
Q 1181 391 1725 391 
z
" transform="scale(0.015625)"/>
        <path id="Helvetica-2e" d="M 547 681 
L 1200 681 
L 1200 0 
L 547 0 
L 547 681 
z
" transform="scale(0.015625)"/>
       </defs>
       <use xlink:href="#Helvetica-30"/>
       <use xlink:href="#Helvetica-2e" x="55.615234"/>
       <use xlink:href="#Helvetica-30" x="83.398438"/>
      </g>
     </g>
    </g>
    <g id="ytick_2">
     <g id="line2d_2">
      <g>
       <use xlink:href="#m77c5fdd219" x="9.17024" y="54.465418" style="fill: #777777; stroke: #777777; stroke-width: 0.5"/>
      </g>
     </g>
     <g id="text_6">
      <!-- 0.5 -->
      <g style="fill: #333333" transform="translate(3.00024 55.541433) scale(0.03 -0.03)">
       <defs>
        <path id="Helvetica-35" d="M 791 1141 
Q 847 659 1238 475 
Q 1438 381 1700 381 
Q 2200 381 2440 700 
Q 2681 1019 2681 1406 
Q 2681 1875 2395 2131 
Q 2109 2388 1709 2388 
Q 1419 2388 1211 2275 
Q 1003 2163 856 1963 
L 369 1991 
L 709 4400 
L 3034 4400 
L 3034 3856 
L 1131 3856 
L 941 2613 
Q 1097 2731 1238 2791 
Q 1488 2894 1816 2894 
Q 2431 2894 2859 2497 
Q 3288 2100 3288 1491 
Q 3288 856 2895 371 
Q 2503 -113 1644 -113 
Q 1097 -113 676 195 
Q 256 503 206 1141 
L 791 1141 
z
" transform="scale(0.015625)"/>
       </defs>
       <use xlink:href="#Helvetica-30"/>
       <use xlink:href="#Helvetica-2e" x="55.615234"/>
       <use xlink:href="#Helvetica-35" x="83.398438"/>
      </g>
     </g>
    </g>
    <g id="ytick_3">
     <g id="line2d_3">
      <g>
       <use xlink:href="#m77c5fdd219" x="9.17024" y="44.387585" style="fill: #777777; stroke: #777777; stroke-width: 0.5"/>
      </g>
     </g>
     <g id="text_7">
      <!-- 1.0 -->
      <g style="fill: #333333" transform="translate(3.00024 45.463601) scale(0.03 -0.03)">
       <use xlink:href="#Helvetica-31"/>
       <use xlink:href="#Helvetica-2e" x="55.615234"/>
       <use xlink:href="#Helvetica-30" x="83.398438"/>
      </g>
     </g>
    </g>
    <g id="ytick_4">
     <g id="line2d_4">
      <g>
       <use xlink:href="#m77c5fdd219" x="9.17024" y="34.309753" style="fill: #777777; stroke: #777777; stroke-width: 0.5"/>
      </g>
     </g>
     <g id="text_8">
      <!-- 1.5 -->
      <g style="fill: #333333" transform="translate(3.00024 35.385768) scale(0.03 -0.03)">
       <use xlink:href="#Helvetica-31"/>
       <use xlink:href="#Helvetica-2e" x="55.615234"/>
       <use xlink:href="#Helvetica-35" x="83.398438"/>
      </g>
     </g>
    </g>
    <g id="ytick_5">
     <g id="line2d_5">
      <g>
       <use xlink:href="#m77c5fdd219" x="9.17024" y="24.23192" style="fill: #777777; stroke: #777777; stroke-width: 0.5"/>
      </g>
     </g>
     <g id="text_9">
      <!-- 2.0 -->
      <g style="fill: #333333" transform="translate(3.00024 25.307936) scale(0.03 -0.03)">
       <use xlink:href="#Helvetica-32"/>
       <use xlink:href="#Helvetica-2e" x="55.615234"/>
       <use xlink:href="#Helvetica-30" x="83.398438"/>
      </g>
     </g>
    </g>
    <g id="ytick_6">
     <g id="line2d_6">
      <g>
       <use xlink:href="#m77c5fdd219" x="9.17024" y="14.154088" style="fill: #777777; stroke: #777777; stroke-width: 0.5"/>
      </g>
     </g>
     <g id="text_10">
      <!-- 2.5 -->
      <g style="fill: #333333" transform="translate(3.00024 15.230104) scale(0.03 -0.03)">
       <use xlink:href="#Helvetica-32"/>
       <use xlink:href="#Helvetica-2e" x="55.615234"/>
       <use xlink:href="#Helvetica-35" x="83.398438"/>
      </g>
     </g>
    </g>
    <g id="ytick_7">
     <g id="line2d_7">
      <g>
       <use xlink:href="#m77c5fdd219" x="9.17024" y="4.076256" style="fill: #777777; stroke: #777777; stroke-width: 0.5"/>
      </g>
     </g>
     <g id="text_11">
      <!-- 3.0 -->
      <g style="fill: #333333" transform="translate(3.00024 5.152271) scale(0.03 -0.03)">
       <use xlink:href="#Helvetica-33"/>
       <use xlink:href="#Helvetica-2e" x="55.615234"/>
       <use xlink:href="#Helvetica-30" x="83.398438"/>
      </g>
     </g>
    </g>
   </g>
   <g id="PolyCollection_1">
    <defs>
     <path id="m938bdaeb84" d="M 18.603535 -12.240784 
L 18.038505 -12.240784 
L 17.962504 -12.819917 
L 17.870808 -13.399051 
L 17.761459 -13.978185 
L 17.63255 -14.557318 
L 17.4823 -15.136452 
L 17.309132 -15.715585 
L 17.111751 -16.294719 
L 16.889231 -16.873853 
L 16.641089 -17.452986 
L 16.367365 -18.03212 
L 16.06869 -18.611253 
L 15.746346 -19.190387 
L 15.402314 -19.76952 
L 15.03932 -20.348654 
L 14.660849 -20.927788 
L 14.271158 -21.506921 
L 13.875256 -22.086055 
L 13.478862 -22.665188 
L 13.088333 -23.244322 
L 12.710553 -23.823455 
L 12.35279 -24.402589 
L 12.022512 -24.981723 
L 11.727162 -25.560856 
L 11.473912 -26.13999 
L 11.269385 -26.719123 
L 11.11938 -27.298257 
L 11.028599 -27.87739 
L 11.000396 -28.456524 
L 11.036579 -29.035658 
L 11.137266 -29.614791 
L 11.300812 -30.193925 
L 11.523827 -30.773058 
L 11.801267 -31.352192 
L 12.126615 -31.931325 
L 12.492128 -32.510459 
L 12.889141 -33.089593 
L 13.30841 -33.668726 
L 13.740462 -34.24786 
L 14.175941 -34.826993 
L 14.605928 -35.406127 
L 15.0222 -35.98526 
L 15.417443 -36.564394 
L 15.785388 -37.143528 
L 16.120874 -37.722661 
L 16.41986 -38.301795 
L 16.679364 -38.880928 
L 16.897369 -39.460062 
L 17.072708 -40.039195 
L 17.204929 -40.618329 
L 17.294173 -41.197463 
L 17.341074 -41.776596 
L 17.346685 -42.35573 
L 17.312436 -42.934863 
L 17.240135 -43.513997 
L 17.131993 -44.09313 
L 16.990666 -44.672264 
L 16.81931 -45.251398 
L 16.62163 -45.830531 
L 16.401905 -46.409665 
L 16.16498 -46.988798 
L 15.916221 -47.567932 
L 15.661418 -48.147065 
L 15.406647 -48.726199 
L 15.158089 -49.305333 
L 14.921826 -49.884466 
L 14.703619 -50.4636 
L 14.508694 -51.042733 
L 14.34155 -51.621867 
L 14.205804 -52.201001 
L 14.104085 -52.780134 
L 14.037986 -53.359268 
L 14.008071 -53.938401 
L 14.013936 -54.517535 
L 14.054314 -55.096668 
L 14.127211 -55.675802 
L 14.230057 -56.254936 
L 14.359856 -56.834069 
L 14.513337 -57.413203 
L 14.687067 -57.992336 
L 14.877562 -58.57147 
L 15.081354 -59.150603 
L 15.295048 -59.729737 
L 15.515357 -60.308871 
L 15.739124 -60.888004 
L 15.963351 -61.467138 
L 16.185213 -62.046271 
L 16.40209 -62.625405 
L 16.611597 -63.204538 
L 16.811621 -63.783672 
L 17.000354 -64.362806 
L 17.176331 -64.941939 
L 17.338452 -65.521073 
L 17.485996 -66.100206 
L 17.618623 -66.67934 
L 17.736353 -67.258473 
L 17.839539 -67.837607 
L 17.928823 -68.416741 
L 18.005082 -68.995874 
L 18.069369 -69.575008 
L 18.57267 -69.575008 
L 18.57267 -69.575008 
L 18.636957 -68.995874 
L 18.713216 -68.416741 
L 18.802501 -67.837607 
L 18.905687 -67.258473 
L 19.023417 -66.67934 
L 19.156043 -66.100206 
L 19.303588 -65.521073 
L 19.465709 -64.941939 
L 19.641686 -64.362806 
L 19.830419 -63.783672 
L 20.030442 -63.204538 
L 20.23995 -62.625405 
L 20.456827 -62.046271 
L 20.678689 -61.467138 
L 20.902915 -60.888004 
L 21.126683 -60.308871 
L 21.346991 -59.729737 
L 21.560685 -59.150603 
L 21.764478 -58.57147 
L 21.954973 -57.992336 
L 22.128703 -57.413203 
L 22.282183 -56.834069 
L 22.411983 -56.254936 
L 22.514828 -55.675802 
L 22.587726 -55.096668 
L 22.628104 -54.517535 
L 22.633969 -53.938401 
L 22.604053 -53.359268 
L 22.537955 -52.780134 
L 22.436236 -52.201001 
L 22.30049 -51.621867 
L 22.133346 -51.042733 
L 21.938421 -50.4636 
L 21.720213 -49.884466 
L 21.48395 -49.305333 
L 21.235393 -48.726199 
L 20.980622 -48.147065 
L 20.725819 -47.567932 
L 20.47706 -46.988798 
L 20.240135 -46.409665 
L 20.020409 -45.830531 
L 19.82273 -45.251398 
L 19.651374 -44.672264 
L 19.510047 -44.09313 
L 19.401904 -43.513997 
L 19.329604 -42.934863 
L 19.295355 -42.35573 
L 19.300965 -41.776596 
L 19.347867 -41.197463 
L 19.437111 -40.618329 
L 19.569332 -40.039195 
L 19.744671 -39.460062 
L 19.962676 -38.880928 
L 20.222179 -38.301795 
L 20.521165 -37.722661 
L 20.856652 -37.143528 
L 21.224596 -36.564394 
L 21.61984 -35.98526 
L 22.036112 -35.406127 
L 22.466098 -34.826993 
L 22.901578 -34.24786 
L 23.33363 -33.668726 
L 23.752899 -33.089593 
L 24.149912 -32.510459 
L 24.515425 -31.931325 
L 24.840772 -31.352192 
L 25.118212 -30.773058 
L 25.341227 -30.193925 
L 25.504774 -29.614791 
L 25.60546 -29.035658 
L 25.641644 -28.456524 
L 25.613441 -27.87739 
L 25.522659 -27.298257 
L 25.372655 -26.719123 
L 25.168128 -26.13999 
L 24.914877 -25.560856 
L 24.619527 -24.981723 
L 24.289249 -24.402589 
L 23.931487 -23.823455 
L 23.553707 -23.244322 
L 23.163177 -22.665188 
L 22.766783 -22.086055 
L 22.370881 -21.506921 
L 21.981191 -20.927788 
L 21.60272 -20.348654 
L 21.239725 -19.76952 
L 20.895694 -19.190387 
L 20.573349 -18.611253 
L 20.274674 -18.03212 
L 20.000951 -17.452986 
L 19.752809 -16.873853 
L 19.530289 -16.294719 
L 19.332908 -15.715585 
L 19.15974 -15.136452 
L 19.00949 -14.557318 
L 18.880581 -13.978185 
L 18.771231 -13.399051 
L 18.679536 -12.819917 
L 18.603535 -12.240784 
z
" style="stroke: #444444; stroke-width: 0.15"/>
    </defs>
    <g clip-path="url(#p55f2fa4fc0)">
     <use xlink:href="#m938bdaeb84" x="0" y="84.96" style="fill: #546e8e; stroke: #444444; stroke-width: 0.15"/>
    </g>
   </g>
   <g id="PolyCollection_2">
    <defs>
     <path id="m9b0fa3246c" d="M 36.90294 -15.440213 
L 36.34222 -15.440213 
L 36.261156 -15.795741 
L 36.162335 -16.151268 
L 36.043492 -16.506796 
L 35.902471 -16.862324 
L 35.737313 -17.217851 
L 35.546362 -17.573379 
L 35.328358 -17.928907 
L 35.082534 -18.284434 
L 34.808697 -18.639962 
L 34.507307 -18.99549 
L 34.179541 -19.351017 
L 33.827353 -19.706545 
L 33.453513 -20.062073 
L 33.061654 -20.4176 
L 32.65629 -20.773128 
L 32.242821 -21.128656 
L 31.827522 -21.484183 
L 31.417476 -21.839711 
L 31.02048 -22.195239 
L 30.644878 -22.550766 
L 30.299346 -22.906294 
L 29.992595 -23.261821 
L 29.733034 -23.617349 
L 29.528375 -23.972877 
L 29.385224 -24.328404 
L 29.308677 -24.683932 
L 29.301956 -25.03946 
L 29.366112 -25.394987 
L 29.499839 -25.750515 
L 29.699403 -26.106043 
L 29.958714 -26.46157 
L 30.269533 -26.817098 
L 30.621813 -27.172626 
L 31.00415 -27.528153 
L 31.404305 -27.883681 
L 31.809785 -28.239209 
L 32.208417 -28.594736 
L 32.588902 -28.950264 
L 32.941298 -29.305792 
L 33.257413 -29.661319 
L 33.531089 -30.016847 
L 33.758354 -30.372375 
L 33.937456 -30.727902 
L 34.068774 -31.08343 
L 34.154618 -31.438958 
L 34.198951 -31.794485 
L 34.207045 -32.150013 
L 34.185101 -32.505541 
L 34.139868 -32.861068 
L 34.078276 -33.216596 
L 34.007109 -33.572124 
L 33.932734 -33.927651 
L 33.860895 -34.283179 
L 33.796567 -34.638706 
L 33.743869 -34.994234 
L 33.706031 -35.349762 
L 33.685384 -35.705289 
L 33.683386 -36.060817 
L 33.700643 -36.416345 
L 33.736946 -36.771872 
L 33.791296 -37.1274 
L 33.861947 -37.482928 
L 33.946449 -37.838455 
L 34.041724 -38.193983 
L 34.144167 -38.549511 
L 34.249791 -38.905038 
L 34.354415 -39.260566 
L 34.453893 -39.616094 
L 34.544359 -39.971621 
L 34.622495 -40.327149 
L 34.685778 -40.682677 
L 34.732684 -41.038204 
L 34.762845 -41.393732 
L 34.777107 -41.74926 
L 34.777511 -42.104787 
L 34.767165 -42.460315 
L 34.750036 -42.815843 
L 34.730663 -43.17137 
L 34.713819 -43.526898 
L 34.70416 -43.882426 
L 34.705874 -44.237953 
L 34.722387 -44.593481 
L 34.756124 -44.949009 
L 34.808366 -45.304536 
L 34.879199 -45.660064 
L 34.967563 -46.015592 
L 35.071386 -46.371119 
L 35.187788 -46.726647 
L 35.313328 -47.082174 
L 35.44428 -47.437702 
L 35.576894 -47.79323 
L 35.707634 -48.148757 
L 35.833377 -48.504285 
L 35.951545 -48.859813 
L 36.060191 -49.21534 
L 36.158019 -49.570868 
L 36.244358 -49.926396 
L 36.319095 -50.281923 
L 36.382583 -50.637451 
L 36.862576 -50.637451 
L 36.862576 -50.637451 
L 36.926064 -50.281923 
L 37.000801 -49.926396 
L 37.08714 -49.570868 
L 37.184968 -49.21534 
L 37.293614 -48.859813 
L 37.411783 -48.504285 
L 37.537525 -48.148757 
L 37.668265 -47.79323 
L 37.800879 -47.437702 
L 37.931831 -47.082174 
L 38.057371 -46.726647 
L 38.173773 -46.371119 
L 38.277596 -46.015592 
L 38.36596 -45.660064 
L 38.436793 -45.304536 
L 38.489035 -44.949009 
L 38.522772 -44.593481 
L 38.539285 -44.237953 
L 38.540999 -43.882426 
L 38.53134 -43.526898 
L 38.514496 -43.17137 
L 38.495123 -42.815843 
L 38.477995 -42.460315 
L 38.467649 -42.104787 
L 38.468052 -41.74926 
L 38.482314 -41.393732 
L 38.512475 -41.038204 
L 38.559381 -40.682677 
L 38.622664 -40.327149 
L 38.7008 -39.971621 
L 38.791266 -39.616094 
L 38.890744 -39.260566 
L 38.995368 -38.905038 
L 39.100992 -38.549511 
L 39.203435 -38.193983 
L 39.29871 -37.838455 
L 39.383212 -37.482928 
L 39.453863 -37.1274 
L 39.508213 -36.771872 
L 39.544516 -36.416345 
L 39.561773 -36.060817 
L 39.559775 -35.705289 
L 39.539128 -35.349762 
L 39.50129 -34.994234 
L 39.448592 -34.638706 
L 39.384264 -34.283179 
L 39.312425 -33.927651 
L 39.23805 -33.572124 
L 39.166883 -33.216596 
L 39.105291 -32.861068 
L 39.060058 -32.505541 
L 39.038114 -32.150013 
L 39.046208 -31.794485 
L 39.090541 -31.438958 
L 39.176385 -31.08343 
L 39.307703 -30.727902 
L 39.486805 -30.372375 
L 39.71407 -30.016847 
L 39.987746 -29.661319 
L 40.303861 -29.305792 
L 40.656257 -28.950264 
L 41.036742 -28.594736 
L 41.435374 -28.239209 
L 41.840854 -27.883681 
L 42.241009 -27.528153 
L 42.623346 -27.172626 
L 42.975626 -26.817098 
L 43.286445 -26.46157 
L 43.545756 -26.106043 
L 43.74532 -25.750515 
L 43.879047 -25.394987 
L 43.943203 -25.03946 
L 43.936482 -24.683932 
L 43.859935 -24.328404 
L 43.716784 -23.972877 
L 43.512125 -23.617349 
L 43.252564 -23.261821 
L 42.945813 -22.906294 
L 42.600281 -22.550766 
L 42.224679 -22.195239 
L 41.827683 -21.839711 
L 41.417637 -21.484183 
L 41.002338 -21.128656 
L 40.58887 -20.773128 
L 40.183505 -20.4176 
L 39.791646 -20.062073 
L 39.417806 -19.706545 
L 39.065618 -19.351017 
L 38.737852 -18.99549 
L 38.436462 -18.639962 
L 38.162625 -18.284434 
L 37.916801 -17.928907 
L 37.698797 -17.573379 
L 37.507846 -17.217851 
L 37.342688 -16.862324 
L 37.201667 -16.506796 
L 37.082824 -16.151268 
L 36.984003 -15.795741 
L 36.90294 -15.440213 
z
" style="stroke: #444444; stroke-width: 0.15"/>
    </defs>
    <g clip-path="url(#p55f2fa4fc0)">
     <use xlink:href="#m9b0fa3246c" x="0" y="84.96" style="fill: #e7a980; stroke: #444444; stroke-width: 0.15"/>
    </g>
   </g>
   <g id="PolyCollection_3">
    <defs>
     <path id="m0b68132a36" d="M 55.29087 -20.396884 
L 54.557408 -20.396884 
L 54.452888 -20.398116 
L 54.326834 -20.399349 
L 54.177194 -20.400582 
L 54.002305 -20.401815 
L 53.801021 -20.403048 
L 53.572822 -20.40428 
L 53.317894 -20.405513 
L 53.037164 -20.406746 
L 52.732306 -20.407979 
L 52.405699 -20.409212 
L 52.060358 -20.410444 
L 51.699849 -20.411677 
L 51.328196 -20.41291 
L 50.949791 -20.414143 
L 50.569323 -20.415376 
L 50.191715 -20.416609 
L 49.82208 -20.417841 
L 49.465661 -20.419074 
L 49.127759 -20.420307 
L 48.813625 -20.42154 
L 48.528296 -20.422773 
L 48.27638 -20.424005 
L 48.061799 -20.425238 
L 47.8875 -20.426471 
L 47.755171 -20.427704 
L 47.665 -20.428937 
L 47.615511 -20.43017 
L 47.603515 -20.431402 
L 47.624202 -20.432635 
L 47.671362 -20.433868 
L 47.737758 -20.435101 
L 47.815595 -20.436334 
L 47.897061 -20.437566 
L 47.974898 -20.438799 
L 48.042935 -20.440032 
L 48.096559 -20.441265 
L 48.133065 -20.442498 
L 48.151867 -20.443731 
L 48.154547 -20.444963 
L 48.144734 -20.446196 
L 48.127832 -20.447429 
L 48.110588 -20.448662 
L 48.100557 -20.449895 
L 48.105482 -20.451127 
L 48.13264 -20.45236 
L 48.188212 -20.453593 
L 48.276719 -20.454826 
L 48.400588 -20.456059 
L 48.559885 -20.457292 
L 48.752253 -20.458524 
L 48.973065 -20.459757 
L 49.215783 -20.46099 
L 49.472496 -20.462223 
L 49.734591 -20.463456 
L 49.993468 -20.464688 
L 50.241258 -20.465921 
L 50.471434 -20.467154 
L 50.679276 -20.468387 
L 50.862126 -20.46962 
L 51.019416 -20.470853 
L 51.152478 -20.472085 
L 51.264157 -20.473318 
L 51.358292 -20.474551 
L 51.439117 -20.475784 
L 51.510688 -20.477017 
L 51.576375 -20.478249 
L 51.638502 -20.479482 
L 51.698172 -20.480715 
L 51.755281 -20.481948 
L 51.808729 -20.483181 
L 51.85677 -20.484414 
L 51.897471 -20.485646 
L 51.929194 -20.486879 
L 51.951044 -20.488112 
L 51.963217 -20.489345 
L 51.967201 -20.490578 
L 51.965805 -20.49181 
L 51.963009 -20.493043 
L 51.963654 -20.494276 
L 51.973011 -20.495509 
L 51.996288 -20.496742 
L 52.038128 -20.497975 
L 52.102152 -20.499207 
L 52.190618 -20.50044 
L 52.304201 -20.501673 
L 52.441947 -20.502906 
L 52.601364 -20.504139 
L 52.778656 -20.505371 
L 52.969062 -20.506604 
L 53.167247 -20.507837 
L 53.367714 -20.50907 
L 53.56519 -20.510303 
L 53.754951 -20.511536 
L 53.93307 -20.512768 
L 54.096557 -20.514001 
L 54.243425 -20.515234 
L 54.372653 -20.516467 
L 54.484096 -20.5177 
L 54.578335 -20.518932 
L 55.269943 -20.518932 
L 55.269943 -20.518932 
L 55.364183 -20.5177 
L 55.475625 -20.516467 
L 55.604854 -20.515234 
L 55.751721 -20.514001 
L 55.915209 -20.512768 
L 56.093327 -20.511536 
L 56.283089 -20.510303 
L 56.480565 -20.50907 
L 56.681032 -20.507837 
L 56.879216 -20.506604 
L 57.069623 -20.505371 
L 57.246915 -20.504139 
L 57.406331 -20.502906 
L 57.544077 -20.501673 
L 57.657661 -20.50044 
L 57.746126 -20.499207 
L 57.81015 -20.497975 
L 57.85199 -20.496742 
L 57.875268 -20.495509 
L 57.884625 -20.494276 
L 57.885269 -20.493043 
L 57.882474 -20.49181 
L 57.881078 -20.490578 
L 57.885062 -20.489345 
L 57.897234 -20.488112 
L 57.919084 -20.486879 
L 57.950807 -20.485646 
L 57.991509 -20.484414 
L 58.03955 -20.483181 
L 58.092997 -20.481948 
L 58.150107 -20.480715 
L 58.209776 -20.479482 
L 58.271903 -20.478249 
L 58.33759 -20.477017 
L 58.409161 -20.475784 
L 58.489987 -20.474551 
L 58.584121 -20.473318 
L 58.695801 -20.472085 
L 58.828863 -20.470853 
L 58.986153 -20.46962 
L 59.169002 -20.468387 
L 59.376844 -20.467154 
L 59.607021 -20.465921 
L 59.85481 -20.464688 
L 60.113688 -20.463456 
L 60.375782 -20.462223 
L 60.632496 -20.46099 
L 60.875213 -20.459757 
L 61.096025 -20.458524 
L 61.288394 -20.457292 
L 61.447691 -20.456059 
L 61.57156 -20.454826 
L 61.660067 -20.453593 
L 61.715639 -20.45236 
L 61.742797 -20.451127 
L 61.747721 -20.449895 
L 61.73769 -20.448662 
L 61.720446 -20.447429 
L 61.703544 -20.446196 
L 61.693732 -20.444963 
L 61.696411 -20.443731 
L 61.715213 -20.442498 
L 61.751719 -20.441265 
L 61.805343 -20.440032 
L 61.87338 -20.438799 
L 61.951217 -20.437566 
L 62.032683 -20.436334 
L 62.11052 -20.435101 
L 62.176916 -20.433868 
L 62.224077 -20.432635 
L 62.244763 -20.431402 
L 62.232768 -20.43017 
L 62.183278 -20.428937 
L 62.093107 -20.427704 
L 61.960778 -20.426471 
L 61.786479 -20.425238 
L 61.571899 -20.424005 
L 61.319983 -20.422773 
L 61.034653 -20.42154 
L 60.720519 -20.420307 
L 60.382618 -20.419074 
L 60.026198 -20.417841 
L 59.656563 -20.416609 
L 59.278956 -20.415376 
L 58.898487 -20.414143 
L 58.520082 -20.41291 
L 58.148429 -20.411677 
L 57.787921 -20.410444 
L 57.44258 -20.409212 
L 57.115972 -20.407979 
L 56.811114 -20.406746 
L 56.530385 -20.405513 
L 56.275456 -20.40428 
L 56.047258 -20.403048 
L 55.845974 -20.401815 
L 55.671084 -20.400582 
L 55.521444 -20.399349 
L 55.39539 -20.398116 
L 55.29087 -20.396884 
z
" style="stroke: #444444; stroke-width: 0.15"/>
    </defs>
    <g clip-path="url(#p55f2fa4fc0)">
     <use xlink:href="#m0b68132a36" x="0" y="84.96" style="fill: #abc3de; stroke: #444444; stroke-width: 0.15"/>
    </g>
   </g>
   <g id="PolyCollection_4">
    <defs>
     <path id="m795735953f" d="M 73.506444 -19.038251 
L 72.944954 -19.038251 
L 72.86212 -19.148938 
L 72.761936 -19.259625 
L 72.642869 -19.370311 
L 72.503761 -19.480998 
L 72.34392 -19.591685 
L 72.163169 -19.702372 
L 71.96185 -19.813059 
L 71.740771 -19.923746 
L 71.501108 -20.034432 
L 71.244263 -20.145119 
L 70.971715 -20.255806 
L 70.684876 -20.366493 
L 70.384997 -20.47718 
L 70.073144 -20.587867 
L 69.750262 -20.698553 
L 69.417338 -20.80924 
L 69.075638 -20.919927 
L 68.726999 -21.030614 
L 68.374113 -21.141301 
L 68.020778 -21.251987 
L 67.672026 -21.362674 
L 67.33412 -21.473361 
L 67.014368 -21.584048 
L 66.720776 -21.694735 
L 66.461545 -21.805422 
L 66.244471 -21.916108 
L 66.076312 -22.026795 
L 65.962186 -22.137482 
L 65.905075 -22.248169 
L 65.905487 -22.358856 
L 65.961314 -22.469543 
L 66.067901 -22.580229 
L 66.218319 -22.690916 
L 66.403811 -22.801603 
L 66.614381 -22.91229 
L 66.839453 -23.022977 
L 67.068579 -23.133663 
L 67.292117 -23.24435 
L 67.501846 -23.355037 
L 67.691483 -23.465724 
L 67.857048 -23.576411 
L 67.997074 -23.687098 
L 68.112636 -23.797784 
L 68.20719 -23.908471 
L 68.286242 -24.019158 
L 68.356855 -24.129845 
L 68.427039 -24.240532 
L 68.505067 -24.351219 
L 68.598773 -24.461905 
L 68.7149 -24.572592 
L 68.858541 -24.683279 
L 69.032741 -24.793966 
L 69.238269 -24.904653 
L 69.473604 -25.015339 
L 69.735091 -25.126026 
L 70.017284 -25.236713 
L 70.313387 -25.3474 
L 70.615785 -25.458087 
L 70.916571 -25.568774 
L 71.208049 -25.67946 
L 71.483146 -25.790147 
L 71.735722 -25.900834 
L 71.960763 -26.011521 
L 72.154452 -26.122208 
L 72.314152 -26.232895 
L 72.438318 -26.343581 
L 72.526369 -26.454268 
L 72.578562 -26.564955 
L 72.595884 -26.675642 
L 72.579979 -26.786329 
L 72.533131 -26.897015 
L 72.458269 -27.007702 
L 72.359011 -27.118389 
L 72.239692 -27.229076 
L 72.105374 -27.339763 
L 71.961794 -27.45045 
L 71.815249 -27.561136 
L 71.672388 -27.671823 
L 71.539933 -27.78251 
L 71.424338 -27.893197 
L 71.331417 -28.003884 
L 71.265972 -28.114571 
L 71.231477 -28.225257 
L 71.229833 -28.335944 
L 71.26125 -28.446631 
L 71.324249 -28.557318 
L 71.415803 -28.668005 
L 71.53159 -28.778692 
L 71.666347 -28.889378 
L 71.814267 -29.000065 
L 71.969415 -29.110752 
L 72.12612 -29.221439 
L 72.279296 -29.332126 
L 72.424693 -29.442812 
L 72.559037 -29.553499 
L 72.680085 -29.664186 
L 72.786587 -29.774873 
L 72.878182 -29.88556 
L 72.95525 -29.996247 
L 73.496148 -29.996247 
L 73.496148 -29.996247 
L 73.573216 -29.88556 
L 73.664811 -29.774873 
L 73.771313 -29.664186 
L 73.892361 -29.553499 
L 74.026705 -29.442812 
L 74.172101 -29.332126 
L 74.325278 -29.221439 
L 74.481982 -29.110752 
L 74.637131 -29.000065 
L 74.785051 -28.889378 
L 74.919808 -28.778692 
L 75.035595 -28.668005 
L 75.127149 -28.557318 
L 75.190148 -28.446631 
L 75.221565 -28.335944 
L 75.219921 -28.225257 
L 75.185425 -28.114571 
L 75.119981 -28.003884 
L 75.02706 -27.893197 
L 74.911465 -27.78251 
L 74.77901 -27.671823 
L 74.636149 -27.561136 
L 74.489604 -27.45045 
L 74.346024 -27.339763 
L 74.211706 -27.229076 
L 74.092387 -27.118389 
L 73.993128 -27.007702 
L 73.918267 -26.897015 
L 73.871418 -26.786329 
L 73.855514 -26.675642 
L 73.872836 -26.564955 
L 73.925029 -26.454268 
L 74.01308 -26.343581 
L 74.137246 -26.232895 
L 74.296946 -26.122208 
L 74.490635 -26.011521 
L 74.715675 -25.900834 
L 74.968252 -25.790147 
L 75.243348 -25.67946 
L 75.534826 -25.568774 
L 75.835613 -25.458087 
L 76.138011 -25.3474 
L 76.434114 -25.236713 
L 76.716306 -25.126026 
L 76.977794 -25.015339 
L 77.213128 -24.904653 
L 77.418657 -24.793966 
L 77.592857 -24.683279 
L 77.736498 -24.572592 
L 77.852625 -24.461905 
L 77.946331 -24.351219 
L 78.024359 -24.240532 
L 78.094543 -24.129845 
L 78.165156 -24.019158 
L 78.244208 -23.908471 
L 78.338762 -23.797784 
L 78.454324 -23.687098 
L 78.59435 -23.576411 
L 78.759915 -23.465724 
L 78.949552 -23.355037 
L 79.159281 -23.24435 
L 79.382819 -23.133663 
L 79.611945 -23.022977 
L 79.837017 -22.91229 
L 80.047586 -22.801603 
L 80.233079 -22.690916 
L 80.383497 -22.580229 
L 80.490084 -22.469543 
L 80.545911 -22.358856 
L 80.546323 -22.248169 
L 80.489212 -22.137482 
L 80.375086 -22.026795 
L 80.206927 -21.916108 
L 79.989853 -21.805422 
L 79.730621 -21.694735 
L 79.43703 -21.584048 
L 79.117278 -21.473361 
L 78.779371 -21.362674 
L 78.43062 -21.251987 
L 78.077284 -21.141301 
L 77.724399 -21.030614 
L 77.375759 -20.919927 
L 77.03406 -20.80924 
L 76.701136 -20.698553 
L 76.378254 -20.587867 
L 76.066401 -20.47718 
L 75.766521 -20.366493 
L 75.479682 -20.255806 
L 75.207134 -20.145119 
L 74.95029 -20.034432 
L 74.710627 -19.923746 
L 74.489548 -19.813059 
L 74.288229 -19.702372 
L 74.107478 -19.591685 
L 73.947637 -19.480998 
L 73.808529 -19.370311 
L 73.689462 -19.259625 
L 73.589278 -19.148938 
L 73.506444 -19.038251 
z
" style="stroke: #444444; stroke-width: 0.15"/>
    </defs>
    <g clip-path="url(#p55f2fa4fc0)">
     <use xlink:href="#m795735953f" x="0" y="84.96" style="fill: #c447c3; stroke: #444444; stroke-width: 0.15"/>
    </g>
   </g>
   <g id="line2d_8">
    <path d="M 18.32102 62.398445 
L 18.32102 25.705763 
" clip-path="url(#p55f2fa4fc0)" style="fill: none; stroke: #8c8c8c; stroke-width: 0.75; stroke-linecap: round"/>
   </g>
   <g id="line2d_9">
    <path d="M 18.32102 57.21525 
L 18.32102 33.007238 
" clip-path="url(#p55f2fa4fc0)" style="fill: none; stroke: #8c8c8c; stroke-width: 4; stroke-linecap: round"/>
   </g>
   <g id="line2d_10">
    <path d="M 18.32102 53.711293 
" clip-path="url(#p55f2fa4fc0)" style="fill: none; stroke: #444444; stroke-width: 1.2; stroke-linecap: round"/>
    <defs>
     <path id="mad99dbf744" d="M 0 0.833333 
C 0.221003 0.833333 0.432983 0.745528 0.589256 0.589256 
C 0.745528 0.432983 0.833333 0.221003 0.833333 0 
C 0.833333 -0.221003 0.745528 -0.432983 0.589256 -0.589256 
C 0.432983 -0.745528 0.221003 -0.833333 0 -0.833333 
C -0.221003 -0.833333 -0.432983 -0.745528 -0.589256 -0.589256 
C -0.745528 -0.432983 -0.833333 -0.221003 -0.833333 0 
C -0.833333 0.221003 -0.745528 0.432983 -0.589256 0.589256 
C -0.432983 0.745528 -0.221003 0.833333 0 0.833333 
z
" style="stroke: #ffffff; stroke-width: 0.8"/>
    </defs>
    <g clip-path="url(#p55f2fa4fc0)">
     <use xlink:href="#mad99dbf744" x="18.32102" y="53.711293" style="fill: #ffffff; stroke: #ffffff; stroke-width: 0.8"/>
    </g>
   </g>
   <g id="line2d_11">
    <path d="M 36.62258 63.639087 
L 36.62258 40.203249 
" clip-path="url(#p55f2fa4fc0)" style="fill: none; stroke: #8c8c8c; stroke-width: 0.75; stroke-linecap: round"/>
   </g>
   <g id="line2d_12">
    <path d="M 36.62258 60.163615 
L 36.62258 49.923913 
" clip-path="url(#p55f2fa4fc0)" style="fill: none; stroke: #8c8c8c; stroke-width: 4; stroke-linecap: round"/>
   </g>
   <g id="line2d_13">
    <path d="M 36.62258 58.557229 
" clip-path="url(#p55f2fa4fc0)" style="fill: none; stroke: #444444; stroke-width: 1.2; stroke-linecap: round"/>
    <g clip-path="url(#p55f2fa4fc0)">
     <use xlink:href="#mad99dbf744" x="36.62258" y="58.557229" style="fill: #ffffff; stroke: #ffffff; stroke-width: 0.8"/>
    </g>
   </g>
   <g id="line2d_14">
    <path d="M 54.924139 64.54325 
L 54.924139 64.460934 
" clip-path="url(#p55f2fa4fc0)" style="fill: none; stroke: #8c8c8c; stroke-width: 0.75; stroke-linecap: round"/>
   </g>
   <g id="line2d_15">
    <path d="M 54.924139 64.529892 
L 54.924139 64.496544 
" clip-path="url(#p55f2fa4fc0)" style="fill: none; stroke: #8c8c8c; stroke-width: 4; stroke-linecap: round"/>
   </g>
   <g id="line2d_16">
    <path d="M 54.924139 64.51092 
" clip-path="url(#p55f2fa4fc0)" style="fill: none; stroke: #444444; stroke-width: 1.2; stroke-linecap: round"/>
    <g clip-path="url(#p55f2fa4fc0)">
     <use xlink:href="#mad99dbf744" x="54.924139" y="64.51092" style="fill: #ffffff; stroke: #ffffff; stroke-width: 0.8"/>
    </g>
   </g>
   <g id="line2d_17">
    <path d="M 73.225699 64.2131 
L 73.225699 60.046239 
" clip-path="url(#p55f2fa4fc0)" style="fill: none; stroke: #8c8c8c; stroke-width: 0.75; stroke-linecap: round"/>
   </g>
   <g id="line2d_18">
    <path d="M 73.225699 62.941318 
L 73.225699 60.446878 
" clip-path="url(#p55f2fa4fc0)" style="fill: none; stroke: #8c8c8c; stroke-width: 4; stroke-linecap: round"/>
   </g>
   <g id="line2d_19">
    <path d="M 73.225699 62.093913 
" clip-path="url(#p55f2fa4fc0)" style="fill: none; stroke: #444444; stroke-width: 1.2; stroke-linecap: round"/>
    <g clip-path="url(#p55f2fa4fc0)">
     <use xlink:href="#mad99dbf744" x="73.225699" y="62.093913" style="fill: #ffffff; stroke: #ffffff; stroke-width: 0.8"/>
    </g>
   </g>
   <g id="patch_3">
    <path d="M 9.17024 74.419526 
L 9.17024 4.076256 
" style="fill: none; stroke: #777777; stroke-width: 0.5; stroke-linejoin: miter; stroke-linecap: square"/>
   </g>
   <g id="patch_4">
    <path d="M 9.17024 76.919526 
L 82.376479 76.919526 
" style="fill: none; stroke: #777777; stroke-width: 0.5; stroke-linejoin: miter; stroke-linecap: square"/>
   </g>
   <g id="PathCollection_1">
    <defs>
     <path id="m309a618c7d" d="M 0 0.375 
C 0.099451 0.375 0.194842 0.335488 0.265165 0.265165 
C 0.335488 0.194842 0.375 0.099451 0.375 0 
C 0.375 -0.099451 0.335488 -0.194842 0.265165 -0.265165 
C 0.194842 -0.335488 0.099451 -0.375 0 -0.375 
C -0.099451 -0.375 -0.194842 -0.335488 -0.265165 -0.265165 
C -0.335488 -0.194842 -0.375 -0.099451 -0.375 0 
C -0.375 0.099451 -0.335488 0.194842 -0.265165 0.265165 
C -0.194842 0.335488 -0.099451 0.375 0 0.375 
z
"/>
    </defs>
    <g clip-path="url(#p55f2fa4fc0)">
     <use xlink:href="#m309a618c7d" x="18.259694" y="25.705763" style="fill: #642222"/>
     <use xlink:href="#m309a618c7d" x="17.074162" y="57.068824" style="fill: #642222"/>
     <use xlink:href="#m309a618c7d" x="16.557843" y="62.398445" style="fill: #642222"/>
     <use xlink:href="#m309a618c7d" x="17.713798" y="52.870439" style="fill: #642222"/>
     <use xlink:href="#m309a618c7d" x="18.775917" y="57.654527" style="fill: #642222"/>
     <use xlink:href="#m309a618c7d" x="17.566043" y="54.552147" style="fill: #642222"/>
     <use xlink:href="#m309a618c7d" x="16.923951" y="33.457168" style="fill: #642222"/>
     <use xlink:href="#m309a618c7d" x="19.631605" y="31.657449" style="fill: #642222"/>
    </g>
   </g>
   <g id="PathCollection_2">
    <g clip-path="url(#p55f2fa4fc0)">
     <use xlink:href="#m309a618c7d" x="37.162395" y="50.861222" style="fill: #642222"/>
     <use xlink:href="#m309a618c7d" x="36.833478" y="57.713866" style="fill: #642222"/>
     <use xlink:href="#m309a618c7d" x="37.770867" y="63.639087" style="fill: #642222"/>
     <use xlink:href="#m309a618c7d" x="37.588405" y="61.012844" style="fill: #642222"/>
     <use xlink:href="#m309a618c7d" x="37.461049" y="59.400592" style="fill: #642222"/>
     <use xlink:href="#m309a618c7d" x="34.853713" y="59.880539" style="fill: #642222"/>
     <use xlink:href="#m309a618c7d" x="36.906501" y="47.111986" style="fill: #642222"/>
     <use xlink:href="#m309a618c7d" x="37.283424" y="40.203249" style="fill: #642222"/>
    </g>
   </g>
   <g id="PathCollection_3">
    <g clip-path="url(#p55f2fa4fc0)">
     <use xlink:href="#m309a618c7d" x="53.643916" y="64.460934" style="fill: #642222"/>
     <use xlink:href="#m309a618c7d" x="55.751103" y="64.529584" style="fill: #642222"/>
     <use xlink:href="#m309a618c7d" x="55.694456" y="64.54325" style="fill: #642222"/>
     <use xlink:href="#m309a618c7d" x="53.508914" y="64.530814" style="fill: #642222"/>
     <use xlink:href="#m309a618c7d" x="56.622546" y="64.516443" style="fill: #642222"/>
     <use xlink:href="#m309a618c7d" x="55.271606" y="64.505398" style="fill: #642222"/>
     <use xlink:href="#m309a618c7d" x="56.180176" y="64.501447" style="fill: #642222"/>
     <use xlink:href="#m309a618c7d" x="53.219437" y="64.481836" style="fill: #642222"/>
    </g>
   </g>
   <g id="PathCollection_4">
    <g clip-path="url(#p55f2fa4fc0)">
     <use xlink:href="#m309a618c7d" x="73.376845" y="62.925234" style="fill: #642222"/>
     <use xlink:href="#m309a618c7d" x="73.639194" y="60.046239" style="fill: #642222"/>
     <use xlink:href="#m309a618c7d" x="73.120812" y="64.2131" style="fill: #642222"/>
     <use xlink:href="#m309a618c7d" x="73.75907" y="62.439845" style="fill: #642222"/>
     <use xlink:href="#m309a618c7d" x="72.675546" y="56.672402" style="fill: #642222"/>
     <use xlink:href="#m309a618c7d" x="74.908274" y="61.747982" style="fill: #642222"/>
     <use xlink:href="#m309a618c7d" x="71.842401" y="60.580424" style="fill: #642222"/>
     <use xlink:href="#m309a618c7d" x="73.951401" y="62.989571" style="fill: #642222"/>
    </g>
   </g>
  </g>
  <g id="axes_2">
   <g id="patch_5">
    <path d="M 93.713521 74.419526 
L 166.91976 74.419526 
L 166.91976 4.076256 
L 93.713521 4.076256 
z
" style="fill: #ffffff"/>
   </g>
   <g id="matplotlib.axis_3">
    <g id="xtick_5">
     <g id="text_12">
      <!-- T -->
      <g style="fill: #333333" transform="translate(101.795434 81.230229) scale(0.035 -0.035)">
       <defs>
        <path id="Helvetica-54" d="M 3828 4591 
L 3828 4044 
L 2281 4044 
L 2281 0 
L 1650 0 
L 1650 4044 
L 103 4044 
L 103 4591 
L 3828 4591 
z
" transform="scale(0.015625)"/>
       </defs>
       <use xlink:href="#Helvetica-54"/>
      </g>
     </g>
    </g>
    <g id="xtick_6">
     <g id="text_13">
      <!-- TH1 -->
      <g style="fill: #333333" transform="translate(117.860001 81.230229) scale(0.035 -0.035)">
       <defs>
        <path id="Helvetica-48" d="M 503 4591 
L 1131 4591 
L 1131 2694 
L 3519 2694 
L 3519 4591 
L 4147 4591 
L 4147 0 
L 3519 0 
L 3519 2147 
L 1131 2147 
L 1131 0 
L 503 0 
L 503 4591 
z
" transform="scale(0.015625)"/>
       </defs>
       <use xlink:href="#Helvetica-54"/>
       <use xlink:href="#Helvetica-48" x="61.083984"/>
       <use xlink:href="#Helvetica-31" x="133.300781"/>
      </g>
     </g>
    </g>
    <g id="xtick_7">
     <g id="text_14">
      <!-- TH2 -->
      <g style="fill: #333333" transform="translate(136.161561 81.230229) scale(0.035 -0.035)">
       <use xlink:href="#Helvetica-54"/>
       <use xlink:href="#Helvetica-48" x="61.083984"/>
       <use xlink:href="#Helvetica-32" x="133.300781"/>
      </g>
     </g>
    </g>
    <g id="xtick_8">
     <g id="text_15">
      <!-- TH17 -->
      <g style="fill: #333333" transform="translate(153.489957 81.230229) scale(0.035 -0.035)">
       <defs>
        <path id="Helvetica-37" d="M 3347 4400 
L 3347 3909 
Q 3131 3700 2773 3181 
Q 2416 2663 2141 2063 
Q 1869 1478 1728 997 
Q 1638 688 1494 0 
L 872 0 
Q 1084 1281 1809 2550 
Q 2238 3294 2709 3834 
L 234 3834 
L 234 4400 
L 3347 4400 
z
" transform="scale(0.015625)"/>
       </defs>
       <use xlink:href="#Helvetica-54"/>
       <use xlink:href="#Helvetica-48" x="61.083984"/>
       <use xlink:href="#Helvetica-31" x="133.300781"/>
       <use xlink:href="#Helvetica-37" x="188.916016"/>
      </g>
     </g>
    </g>
   </g>
   <g id="matplotlib.axis_4">
    <g id="ytick_8">
     <g id="line2d_20">
      <g>
       <use xlink:href="#m77c5fdd219" x="93.713521" y="66.326937" style="fill: #777777; stroke: #777777; stroke-width: 0.5"/>
      </g>
     </g>
     <g id="text_16">
      <!-- 0 -->
      <g style="fill: #333333" transform="translate(90.04524 67.402953) scale(0.03 -0.03)">
       <use xlink:href="#Helvetica-30"/>
      </g>
     </g>
    </g>
    <g id="ytick_9">
     <g id="line2d_21">
      <g>
       <use xlink:href="#m77c5fdd219" x="93.713521" y="55.951823" style="fill: #777777; stroke: #777777; stroke-width: 0.5"/>
      </g>
     </g>
     <g id="text_17">
      <!-- 5 -->
      <g style="fill: #333333" transform="translate(90.04524 57.027839) scale(0.03 -0.03)">
       <use xlink:href="#Helvetica-35"/>
      </g>
     </g>
    </g>
    <g id="ytick_10">
     <g id="line2d_22">
      <g>
       <use xlink:href="#m77c5fdd219" x="93.713521" y="45.57671" style="fill: #777777; stroke: #777777; stroke-width: 0.5"/>
      </g>
     </g>
     <g id="text_18">
      <!-- 10 -->
      <g style="fill: #333333" transform="translate(88.376959 46.652726) scale(0.03 -0.03)">
       <use xlink:href="#Helvetica-31"/>
       <use xlink:href="#Helvetica-30" x="55.615234"/>
      </g>
     </g>
    </g>
    <g id="ytick_11">
     <g id="line2d_23">
      <g>
       <use xlink:href="#m77c5fdd219" x="93.713521" y="35.201596" style="fill: #777777; stroke: #777777; stroke-width: 0.5"/>
      </g>
     </g>
     <g id="text_19">
      <!-- 15 -->
      <g style="fill: #333333" transform="translate(88.376959 36.277612) scale(0.03 -0.03)">
       <use xlink:href="#Helvetica-31"/>
       <use xlink:href="#Helvetica-35" x="55.615234"/>
      </g>
     </g>
    </g>
    <g id="ytick_12">
     <g id="line2d_24">
      <g>
       <use xlink:href="#m77c5fdd219" x="93.713521" y="24.826483" style="fill: #777777; stroke: #777777; stroke-width: 0.5"/>
      </g>
     </g>
     <g id="text_20">
      <!-- 20 -->
      <g style="fill: #333333" transform="translate(88.376959 25.902498) scale(0.03 -0.03)">
       <use xlink:href="#Helvetica-32"/>
       <use xlink:href="#Helvetica-30" x="55.615234"/>
      </g>
     </g>
    </g>
    <g id="ytick_13">
     <g id="line2d_25">
      <g>
       <use xlink:href="#m77c5fdd219" x="93.713521" y="14.451369" style="fill: #777777; stroke: #777777; stroke-width: 0.5"/>
      </g>
     </g>
     <g id="text_21">
      <!-- 25 -->
      <g style="fill: #333333" transform="translate(88.376959 15.527385) scale(0.03 -0.03)">
       <use xlink:href="#Helvetica-32"/>
       <use xlink:href="#Helvetica-35" x="55.615234"/>
      </g>
     </g>
    </g>
    <g id="ytick_14">
     <g id="line2d_26">
      <g>
       <use xlink:href="#m77c5fdd219" x="93.713521" y="4.076256" style="fill: #777777; stroke: #777777; stroke-width: 0.5"/>
      </g>
     </g>
     <g id="text_22">
      <!-- 30 -->
      <g style="fill: #333333" transform="translate(88.376959 5.152271) scale(0.03 -0.03)">
       <use xlink:href="#Helvetica-33"/>
       <use xlink:href="#Helvetica-30" x="55.615234"/>
      </g>
     </g>
    </g>
   </g>
   <g id="PolyCollection_5">
    <defs>
     <path id="mea68f684db" d="M 103.016326 -25.935167 
L 102.712276 -25.935167 
L 102.642471 -26.40952 
L 102.549749 -26.883873 
L 102.430436 -27.358226 
L 102.281484 -27.83258 
L 102.100689 -28.306933 
L 101.886723 -28.781286 
L 101.638922 -29.255639 
L 101.356873 -29.729993 
L 101.039935 -30.204346 
L 100.686893 -30.678699 
L 100.296014 -31.153052 
L 99.86569 -31.627405 
L 99.395696 -32.101759 
L 98.888923 -32.576112 
L 98.353169 -33.050465 
L 97.802456 -33.524818 
L 97.257328 -33.999171 
L 96.743744 -34.473525 
L 96.290514 -34.947878 
L 95.925594 -35.422231 
L 95.671924 -35.896584 
L 95.543677 -36.370937 
L 95.543732 -36.845291 
L 95.662965 -37.319644 
L 95.881511 -37.793997 
L 96.171703 -38.26835 
L 96.502058 -38.742703 
L 96.841467 -39.217057 
L 97.162824 -39.69141 
L 97.445531 -40.165763 
L 97.676673 -40.640116 
L 97.850965 -41.114469 
L 97.969822 -41.588823 
L 98.039991 -42.063176 
L 98.072114 -42.537529 
L 98.079455 -43.011882 
L 98.076826 -43.486235 
L 98.079619 -43.960589 
L 98.102816 -44.434942 
L 98.159869 -44.909295 
L 98.261485 -45.383648 
L 98.414465 -45.858001 
L 98.620793 -46.332355 
L 98.877215 -46.806708 
L 99.175437 -47.281061 
L 99.502951 -47.755414 
L 99.844393 -48.229767 
L 100.183192 -48.704121 
L 100.503282 -49.178474 
L 100.790609 -49.652827 
L 101.034283 -50.12718 
L 101.227242 -50.601533 
L 101.366436 -51.075887 
L 101.452562 -51.55024 
L 101.489491 -52.024593 
L 101.483514 -52.498946 
L 101.442574 -52.973299 
L 101.375627 -53.447653 
L 101.292181 -53.922006 
L 101.202019 -54.396359 
L 101.115013 -54.870712 
L 101.040895 -55.345065 
L 100.988866 -55.819419 
L 100.966975 -56.293772 
L 100.981329 -56.768125 
L 101.035276 -57.242478 
L 101.128773 -57.716831 
L 101.258144 -58.191185 
L 101.416344 -58.665538 
L 101.593736 -59.139891 
L 101.779231 -59.614244 
L 101.961577 -60.088597 
L 102.13054 -60.562951 
L 102.277789 -61.037304 
L 102.397371 -61.511657 
L 102.485798 -61.98601 
L 102.541853 -62.460363 
L 102.566251 -62.934717 
L 102.561301 -63.40907 
L 102.530663 -63.883423 
L 102.479184 -64.357776 
L 102.412789 -64.832129 
L 102.338316 -65.306483 
L 102.263207 -65.780836 
L 102.195012 -66.255189 
L 102.140736 -66.729542 
L 102.106101 -67.203895 
L 102.094882 -67.678249 
L 102.108453 -68.152602 
L 102.145662 -68.626955 
L 102.203077 -69.101308 
L 102.275557 -69.575661 
L 102.357036 -70.050015 
L 102.441372 -70.524368 
L 102.523089 -70.998721 
L 102.597921 -71.473074 
L 102.663067 -71.947427 
L 102.717198 -72.421781 
L 102.760246 -72.896134 
L 102.968356 -72.896134 
L 102.968356 -72.896134 
L 103.011404 -72.421781 
L 103.065535 -71.947427 
L 103.130681 -71.473074 
L 103.205513 -70.998721 
L 103.287231 -70.524368 
L 103.371566 -70.050015 
L 103.453045 -69.575661 
L 103.525525 -69.101308 
L 103.58294 -68.626955 
L 103.620149 -68.152602 
L 103.63372 -67.678249 
L 103.622501 -67.203895 
L 103.587866 -66.729542 
L 103.53359 -66.255189 
L 103.465396 -65.780836 
L 103.390286 -65.306483 
L 103.315813 -64.832129 
L 103.249418 -64.357776 
L 103.197939 -63.883423 
L 103.167301 -63.40907 
L 103.162352 -62.934717 
L 103.186749 -62.460363 
L 103.242804 -61.98601 
L 103.331231 -61.511657 
L 103.450813 -61.037304 
L 103.598062 -60.562951 
L 103.767025 -60.088597 
L 103.949371 -59.614244 
L 104.134866 -59.139891 
L 104.312258 -58.665538 
L 104.470458 -58.191185 
L 104.599829 -57.716831 
L 104.693326 -57.242478 
L 104.747273 -56.768125 
L 104.761627 -56.293772 
L 104.739736 -55.819419 
L 104.687707 -55.345065 
L 104.61359 -54.870712 
L 104.526583 -54.396359 
L 104.436421 -53.922006 
L 104.352975 -53.447653 
L 104.286028 -52.973299 
L 104.245089 -52.498946 
L 104.239111 -52.024593 
L 104.27604 -51.55024 
L 104.362166 -51.075887 
L 104.50136 -50.601533 
L 104.694319 -50.12718 
L 104.937993 -49.652827 
L 105.22532 -49.178474 
L 105.54541 -48.704121 
L 105.884209 -48.229767 
L 106.225651 -47.755414 
L 106.553166 -47.281061 
L 106.851387 -46.806708 
L 107.107809 -46.332355 
L 107.314137 -45.858001 
L 107.467117 -45.383648 
L 107.568734 -44.909295 
L 107.625786 -44.434942 
L 107.648983 -43.960589 
L 107.651777 -43.486235 
L 107.649147 -43.011882 
L 107.656488 -42.537529 
L 107.688611 -42.063176 
L 107.75878 -41.588823 
L 107.877638 -41.114469 
L 108.051929 -40.640116 
L 108.283071 -40.165763 
L 108.565778 -39.69141 
L 108.887135 -39.217057 
L 109.226545 -38.742703 
L 109.5569 -38.26835 
L 109.847092 -37.793997 
L 110.065637 -37.319644 
L 110.18487 -36.845291 
L 110.184925 -36.370937 
L 110.056678 -35.896584 
L 109.803008 -35.422231 
L 109.438088 -34.947878 
L 108.984858 -34.473525 
L 108.471275 -33.999171 
L 107.926146 -33.524818 
L 107.375433 -33.050465 
L 106.839679 -32.576112 
L 106.332906 -32.101759 
L 105.862912 -31.627405 
L 105.432588 -31.153052 
L 105.04171 -30.678699 
L 104.688667 -30.204346 
L 104.371729 -29.729993 
L 104.089681 -29.255639 
L 103.841879 -28.781286 
L 103.627913 -28.306933 
L 103.447118 -27.83258 
L 103.298166 -27.358226 
L 103.178854 -26.883873 
L 103.086131 -26.40952 
L 103.016326 -25.935167 
z
" style="stroke: #505050; stroke-width: 0.15"/>
    </defs>
    <g clip-path="url(#p29e10860d4)">
     <use xlink:href="#mea68f684db" x="0" y="84.96" style="fill: #bbba94; stroke: #505050; stroke-width: 0.15"/>
    </g>
   </g>
   <g id="PolyCollection_6">
    <defs>
     <path id="mbc5f73b0d6" d="M 121.577961 -17.837875 
L 120.753761 -17.837875 
L 120.635056 -17.886832 
L 120.490905 -17.935789 
L 120.318512 -17.984747 
L 120.115494 -18.033704 
L 119.8801 -18.082662 
L 119.611415 -18.131619 
L 119.309558 -18.180577 
L 118.975833 -18.229534 
L 118.612834 -18.278491 
L 118.224474 -18.327449 
L 117.815931 -18.376406 
L 117.393511 -18.425364 
L 116.964431 -18.474321 
L 116.536532 -18.523278 
L 116.117946 -18.572236 
L 115.716744 -18.621193 
L 115.340591 -18.670151 
L 114.996443 -18.719108 
L 114.690305 -18.768066 
L 114.42707 -18.817023 
L 114.210444 -18.86598 
L 114.042962 -18.914938 
L 113.92607 -18.963895 
L 113.860261 -19.012853 
L 113.845237 -19.06181 
L 113.880067 -19.110768 
L 113.963323 -19.159725 
L 114.093166 -19.208682 
L 114.267392 -19.25764 
L 114.483419 -19.306597 
L 114.738238 -19.355555 
L 115.02834 -19.404512 
L 115.349652 -19.453469 
L 115.69748 -19.502427 
L 116.066503 -19.551384 
L 116.450817 -19.600342 
L 116.844037 -19.649299 
L 117.239453 -19.698257 
L 117.630231 -19.747214 
L 118.009635 -19.796171 
L 118.371271 -19.845129 
L 118.709303 -19.894086 
L 119.018653 -19.943044 
L 119.295151 -19.992001 
L 119.535649 -20.040958 
L 119.738074 -20.089916 
L 119.901443 -20.138873 
L 120.02584 -20.187831 
L 120.112358 -20.236788 
L 120.163024 -20.285746 
L 120.180701 -20.334703 
L 120.168986 -20.38366 
L 120.132086 -20.432618 
L 120.074683 -20.481575 
L 120.001788 -20.530533 
L 119.918568 -20.57949 
L 119.830162 -20.628448 
L 119.74148 -20.677405 
L 119.656996 -20.726362 
L 119.580551 -20.77532 
L 119.515169 -20.824277 
L 119.462919 -20.873235 
L 119.424828 -20.922192 
L 119.400855 -20.971149 
L 119.389943 -21.020107 
L 119.390152 -21.069064 
L 119.398853 -21.118022 
L 119.412984 -21.166979 
L 119.429341 -21.215937 
L 119.44488 -21.264894 
L 119.457005 -21.313851 
L 119.463814 -21.362809 
L 119.464279 -21.411766 
L 119.458346 -21.460724 
L 119.446945 -21.509681 
L 119.431901 -21.558639 
L 119.415774 -21.607596 
L 119.401624 -21.656553 
L 119.392737 -21.705511 
L 119.392331 -21.754468 
L 119.40328 -21.803426 
L 119.427867 -21.852383 
L 119.4676 -21.90134 
L 119.5231 -21.950298 
L 119.594065 -21.999255 
L 119.679315 -22.048213 
L 119.776903 -22.09717 
L 119.884283 -22.146128 
L 119.998505 -22.195085 
L 120.116433 -22.244042 
L 120.234955 -22.293 
L 120.351164 -22.341957 
L 120.46251 -22.390915 
L 120.566907 -22.439872 
L 120.662789 -22.48883 
L 120.749127 -22.537787 
L 120.825405 -22.586744 
L 120.891563 -22.635702 
L 120.947923 -22.684659 
L 121.383799 -22.684659 
L 121.383799 -22.684659 
L 121.440159 -22.635702 
L 121.506316 -22.586744 
L 121.582594 -22.537787 
L 121.668933 -22.48883 
L 121.764815 -22.439872 
L 121.869211 -22.390915 
L 121.980557 -22.341957 
L 122.096766 -22.293 
L 122.215288 -22.244042 
L 122.333217 -22.195085 
L 122.447439 -22.146128 
L 122.554818 -22.09717 
L 122.652407 -22.048213 
L 122.737657 -21.999255 
L 122.808622 -21.950298 
L 122.864122 -21.90134 
L 122.903855 -21.852383 
L 122.928442 -21.803426 
L 122.939391 -21.754468 
L 122.938985 -21.705511 
L 122.930097 -21.656553 
L 122.915947 -21.607596 
L 122.89982 -21.558639 
L 122.884777 -21.509681 
L 122.873375 -21.460724 
L 122.867443 -21.411766 
L 122.867908 -21.362809 
L 122.874717 -21.313851 
L 122.886841 -21.264894 
L 122.90238 -21.215937 
L 122.918737 -21.166979 
L 122.932868 -21.118022 
L 122.94157 -21.069064 
L 122.941779 -21.020107 
L 122.930867 -20.971149 
L 122.906893 -20.922192 
L 122.868802 -20.873235 
L 122.816553 -20.824277 
L 122.751171 -20.77532 
L 122.674725 -20.726362 
L 122.590242 -20.677405 
L 122.50156 -20.628448 
L 122.413154 -20.57949 
L 122.329934 -20.530533 
L 122.257039 -20.481575 
L 122.199636 -20.432618 
L 122.162735 -20.38366 
L 122.15102 -20.334703 
L 122.168698 -20.285746 
L 122.219363 -20.236788 
L 122.305882 -20.187831 
L 122.430279 -20.138873 
L 122.593648 -20.089916 
L 122.796073 -20.040958 
L 123.036571 -19.992001 
L 123.313069 -19.943044 
L 123.622418 -19.894086 
L 123.96045 -19.845129 
L 124.322086 -19.796171 
L 124.701491 -19.747214 
L 125.092268 -19.698257 
L 125.487685 -19.649299 
L 125.880905 -19.600342 
L 126.265219 -19.551384 
L 126.634242 -19.502427 
L 126.982069 -19.453469 
L 127.303381 -19.404512 
L 127.593484 -19.355555 
L 127.848302 -19.306597 
L 128.064329 -19.25764 
L 128.238555 -19.208682 
L 128.368399 -19.159725 
L 128.451654 -19.110768 
L 128.486485 -19.06181 
L 128.471461 -19.012853 
L 128.405652 -18.963895 
L 128.288759 -18.914938 
L 128.121277 -18.86598 
L 127.904651 -18.817023 
L 127.641416 -18.768066 
L 127.335279 -18.719108 
L 126.991131 -18.670151 
L 126.614978 -18.621193 
L 126.213775 -18.572236 
L 125.795189 -18.523278 
L 125.36729 -18.474321 
L 124.93821 -18.425364 
L 124.515791 -18.376406 
L 124.107247 -18.327449 
L 123.718887 -18.278491 
L 123.355889 -18.229534 
L 123.022164 -18.180577 
L 122.720306 -18.131619 
L 122.451621 -18.082662 
L 122.216227 -18.033704 
L 122.01321 -17.984747 
L 121.840816 -17.935789 
L 121.696666 -17.886832 
L 121.577961 -17.837875 
z
" style="stroke: #505050; stroke-width: 0.15"/>
    </defs>
    <g clip-path="url(#p29e10860d4)">
     <use xlink:href="#mbc5f73b0d6" x="0" y="84.96" style="fill: #e7a980; stroke: #505050; stroke-width: 0.15"/>
    </g>
   </g>
   <g id="PolyCollection_7">
    <defs>
     <path id="mbf57948645" d="M 139.763654 -18.602156 
L 139.171187 -18.602156 
L 139.096252 -18.604017 
L 139.007452 -18.605877 
L 138.903552 -18.607737 
L 138.783503 -18.609598 
L 138.646506 -18.611458 
L 138.492062 -18.613318 
L 138.320016 -18.615179 
L 138.13057 -18.617039 
L 137.924292 -18.618899 
L 137.702087 -18.62076 
L 137.465157 -18.62262 
L 137.214939 -18.62448 
L 136.953031 -18.626341 
L 136.681117 -18.628201 
L 136.400897 -18.630061 
L 136.114029 -18.631921 
L 135.822097 -18.633782 
L 135.526607 -18.635642 
L 135.229013 -18.637502 
L 134.930773 -18.639363 
L 134.633438 -18.641223 
L 134.338743 -18.643083 
L 134.048716 -18.644944 
L 133.765774 -18.646804 
L 133.492789 -18.648664 
L 133.233127 -18.650525 
L 132.990638 -18.652385 
L 132.769594 -18.654245 
L 132.574571 -18.656106 
L 132.410289 -18.657966 
L 132.281408 -18.659826 
L 132.192297 -18.661686 
L 132.146797 -18.663547 
L 132.147983 -18.665407 
L 132.197964 -18.667267 
L 132.297707 -18.669128 
L 132.446928 -18.670988 
L 132.644033 -18.672848 
L 132.886129 -18.674709 
L 133.169096 -18.676569 
L 133.487717 -18.678429 
L 133.835852 -18.68029 
L 134.206651 -18.68215 
L 134.592785 -18.68401 
L 134.986689 -18.68587 
L 135.380789 -18.687731 
L 135.767719 -18.689591 
L 136.140504 -18.691451 
L 136.492712 -18.693312 
L 136.818561 -18.695172 
L 137.112997 -18.697032 
L 137.371733 -18.698893 
L 137.591253 -18.700753 
L 137.768804 -18.702613 
L 137.902364 -18.704474 
L 137.990611 -18.706334 
L 138.032892 -18.708194 
L 138.029196 -18.710055 
L 137.980147 -18.711915 
L 137.887001 -18.713775 
L 137.75167 -18.715635 
L 137.576741 -18.717496 
L 137.365507 -18.719356 
L 137.121999 -18.721216 
L 136.850996 -18.723077 
L 136.558025 -18.724937 
L 136.249327 -18.726797 
L 135.93179 -18.728658 
L 135.612842 -18.730518 
L 135.300301 -18.732378 
L 135.002185 -18.734239 
L 134.726486 -18.736099 
L 134.480913 -18.737959 
L 134.272622 -18.73982 
L 134.107935 -18.74168 
L 133.992085 -18.74354 
L 133.928976 -18.7454 
L 133.920997 -18.747261 
L 133.968902 -18.749121 
L 134.071749 -18.750981 
L 134.226932 -18.752842 
L 134.430287 -18.754702 
L 134.676272 -18.756562 
L 134.958225 -18.758423 
L 135.26866 -18.760283 
L 135.599606 -18.762143 
L 135.942956 -18.764004 
L 136.2908 -18.765864 
L 136.635734 -18.767724 
L 136.971118 -18.769584 
L 137.291278 -18.771445 
L 137.591636 -18.773305 
L 137.868771 -18.775165 
L 138.120414 -18.777026 
L 138.345391 -18.778886 
L 138.543505 -18.780746 
L 138.715401 -18.782607 
L 138.862396 -18.784467 
L 138.986312 -18.786327 
L 139.948529 -18.786327 
L 139.948529 -18.786327 
L 140.072445 -18.784467 
L 140.21944 -18.782607 
L 140.391336 -18.780746 
L 140.58945 -18.778886 
L 140.814426 -18.777026 
L 141.06607 -18.775165 
L 141.343205 -18.773305 
L 141.643563 -18.771445 
L 141.963723 -18.769584 
L 142.299107 -18.767724 
L 142.644041 -18.765864 
L 142.991885 -18.764004 
L 143.335235 -18.762143 
L 143.666181 -18.760283 
L 143.976616 -18.758423 
L 144.258569 -18.756562 
L 144.504554 -18.754702 
L 144.707909 -18.752842 
L 144.863092 -18.750981 
L 144.965939 -18.749121 
L 145.013844 -18.747261 
L 145.005865 -18.7454 
L 144.942756 -18.74354 
L 144.826905 -18.74168 
L 144.662219 -18.73982 
L 144.453928 -18.737959 
L 144.208355 -18.736099 
L 143.932656 -18.734239 
L 143.63454 -18.732378 
L 143.321999 -18.730518 
L 143.003051 -18.728658 
L 142.685514 -18.726797 
L 142.376816 -18.724937 
L 142.083845 -18.723077 
L 141.812842 -18.721216 
L 141.569334 -18.719356 
L 141.3581 -18.717496 
L 141.18317 -18.715635 
L 141.04784 -18.713775 
L 140.954694 -18.711915 
L 140.905645 -18.710055 
L 140.901949 -18.708194 
L 140.94423 -18.706334 
L 141.032477 -18.704474 
L 141.166037 -18.702613 
L 141.343588 -18.700753 
L 141.563108 -18.698893 
L 141.821844 -18.697032 
L 142.11628 -18.695172 
L 142.442129 -18.693312 
L 142.794337 -18.691451 
L 143.167122 -18.689591 
L 143.554052 -18.687731 
L 143.948152 -18.68587 
L 144.342056 -18.68401 
L 144.72819 -18.68215 
L 145.098989 -18.68029 
L 145.447123 -18.678429 
L 145.765745 -18.676569 
L 146.048712 -18.674709 
L 146.290808 -18.672848 
L 146.487913 -18.670988 
L 146.637134 -18.669128 
L 146.736877 -18.667267 
L 146.786858 -18.665407 
L 146.788044 -18.663547 
L 146.742544 -18.661686 
L 146.653433 -18.659826 
L 146.524552 -18.657966 
L 146.36027 -18.656106 
L 146.165247 -18.654245 
L 145.944203 -18.652385 
L 145.701714 -18.650525 
L 145.442052 -18.648664 
L 145.169067 -18.646804 
L 144.886125 -18.644944 
L 144.596098 -18.643083 
L 144.301403 -18.641223 
L 144.004068 -18.639363 
L 143.705828 -18.637502 
L 143.408234 -18.635642 
L 143.112743 -18.633782 
L 142.820812 -18.631921 
L 142.533944 -18.630061 
L 142.253724 -18.628201 
L 141.98181 -18.626341 
L 141.719902 -18.62448 
L 141.469684 -18.62262 
L 141.232754 -18.62076 
L 141.010549 -18.618899 
L 140.804271 -18.617039 
L 140.614825 -18.615179 
L 140.442779 -18.613318 
L 140.288335 -18.611458 
L 140.151338 -18.609598 
L 140.031289 -18.607737 
L 139.927389 -18.605877 
L 139.838589 -18.604017 
L 139.763654 -18.602156 
z
" style="stroke: #505050; stroke-width: 0.15"/>
    </defs>
    <g clip-path="url(#p29e10860d4)">
     <use xlink:href="#mbf57948645" x="0" y="84.96" style="fill: #abc3de; stroke: #505050; stroke-width: 0.15"/>
    </g>
   </g>
   <g id="PolyCollection_8">
    <defs>
     <path id="med8a6c49ab" d="M 158.08879 -17.918047 
L 157.44917 -17.918047 
L 157.34752 -17.967769 
L 157.221345 -18.017491 
L 157.067255 -18.067213 
L 156.882111 -18.116935 
L 156.663253 -18.166657 
L 156.408748 -18.216378 
L 156.117628 -18.2661 
L 155.790124 -18.315822 
L 155.427852 -18.365544 
L 155.033947 -18.415266 
L 154.61312 -18.464988 
L 154.171623 -18.514709 
L 153.717121 -18.564431 
L 153.258459 -18.614153 
L 152.805345 -18.663875 
L 152.36794 -18.713597 
L 151.956413 -18.763319 
L 151.580453 -18.813041 
L 151.248795 -18.862762 
L 150.968799 -18.912484 
L 150.746098 -18.962206 
L 150.584372 -19.011928 
L 150.485249 -19.06165 
L 150.448356 -19.111372 
L 150.471505 -19.161093 
L 150.551002 -19.210815 
L 150.682034 -19.260537 
L 150.8591 -19.310259 
L 151.076424 -19.359981 
L 151.328315 -19.409703 
L 151.609427 -19.459425 
L 151.914909 -19.509146 
L 152.240429 -19.558868 
L 152.582095 -19.60859 
L 152.93631 -19.658312 
L 153.299584 -19.708034 
L 153.668359 -19.757756 
L 154.038885 -19.807477 
L 154.407166 -19.857199 
L 154.768994 -19.906921 
L 155.120064 -19.956643 
L 155.456157 -20.006365 
L 155.773347 -20.056087 
L 156.068227 -20.105808 
L 156.338097 -20.15553 
L 156.5811 -20.205252 
L 156.796292 -20.254974 
L 156.98364 -20.304696 
L 157.143949 -20.354418 
L 157.278734 -20.40414 
L 157.390059 -20.453861 
L 157.480349 -20.503583 
L 157.552215 -20.553305 
L 157.608283 -20.603027 
L 157.651054 -20.652749 
L 157.682796 -20.702471 
L 157.705464 -20.752192 
L 157.720654 -20.801914 
L 157.729573 -20.851636 
L 157.733041 -20.901358 
L 157.731501 -20.95108 
L 157.725041 -21.000802 
L 157.713427 -21.050523 
L 157.696151 -21.100245 
L 157.672483 -21.149967 
L 157.641543 -21.199689 
L 157.602388 -21.249411 
L 157.554112 -21.299133 
L 157.49596 -21.348855 
L 157.42746 -21.398576 
L 157.348545 -21.448298 
L 157.259674 -21.49802 
L 157.161926 -21.547742 
L 157.05706 -21.597464 
L 156.947524 -21.647186 
L 156.836406 -21.696907 
L 156.727316 -21.746629 
L 156.624214 -21.796351 
L 156.531182 -21.846073 
L 156.452158 -21.895795 
L 156.390665 -21.945517 
L 156.349549 -21.995239 
L 156.330765 -22.04496 
L 156.335216 -22.094682 
L 156.362688 -22.144404 
L 156.411863 -22.194126 
L 156.480424 -22.243848 
L 156.565239 -22.29357 
L 156.662592 -22.343291 
L 156.768461 -22.393013 
L 156.87878 -22.442735 
L 156.989699 -22.492457 
L 157.097792 -22.542179 
L 157.200207 -22.591901 
L 157.294763 -22.641622 
L 157.379971 -22.691344 
L 157.455011 -22.741066 
L 157.51966 -22.790788 
L 157.574188 -22.84051 
L 157.963773 -22.84051 
L 157.963773 -22.84051 
L 158.0183 -22.790788 
L 158.082949 -22.741066 
L 158.157989 -22.691344 
L 158.243197 -22.641622 
L 158.337753 -22.591901 
L 158.440169 -22.542179 
L 158.548261 -22.492457 
L 158.65918 -22.442735 
L 158.7695 -22.393013 
L 158.875368 -22.343291 
L 158.972722 -22.29357 
L 159.057536 -22.243848 
L 159.126097 -22.194126 
L 159.175272 -22.144404 
L 159.202744 -22.094682 
L 159.207195 -22.04496 
L 159.188411 -21.995239 
L 159.147296 -21.945517 
L 159.085802 -21.895795 
L 159.006778 -21.846073 
L 158.913746 -21.796351 
L 158.810644 -21.746629 
L 158.701554 -21.696907 
L 158.590436 -21.647186 
L 158.4809 -21.597464 
L 158.376035 -21.547742 
L 158.278287 -21.49802 
L 158.189415 -21.448298 
L 158.110501 -21.398576 
L 158.042 -21.348855 
L 157.983849 -21.299133 
L 157.935572 -21.249411 
L 157.896417 -21.199689 
L 157.865478 -21.149967 
L 157.841809 -21.100245 
L 157.824533 -21.050523 
L 157.81292 -21.000802 
L 157.806459 -20.95108 
L 157.804919 -20.901358 
L 157.808388 -20.851636 
L 157.817307 -20.801914 
L 157.832496 -20.752192 
L 157.855165 -20.702471 
L 157.886907 -20.652749 
L 157.929678 -20.603027 
L 157.985745 -20.553305 
L 158.057611 -20.503583 
L 158.147901 -20.453861 
L 158.259226 -20.40414 
L 158.394012 -20.354418 
L 158.554321 -20.304696 
L 158.741668 -20.254974 
L 158.95686 -20.205252 
L 159.199863 -20.15553 
L 159.469733 -20.105808 
L 159.764614 -20.056087 
L 160.081804 -20.006365 
L 160.417896 -19.956643 
L 160.768967 -19.906921 
L 161.130794 -19.857199 
L 161.499075 -19.807477 
L 161.869601 -19.757756 
L 162.238376 -19.708034 
L 162.60165 -19.658312 
L 162.955865 -19.60859 
L 163.297532 -19.558868 
L 163.623051 -19.509146 
L 163.928533 -19.459425 
L 164.209645 -19.409703 
L 164.461536 -19.359981 
L 164.678861 -19.310259 
L 164.855927 -19.260537 
L 164.986959 -19.210815 
L 165.066455 -19.161093 
L 165.089604 -19.111372 
L 165.052711 -19.06165 
L 164.953588 -19.011928 
L 164.791862 -18.962206 
L 164.569161 -18.912484 
L 164.289165 -18.862762 
L 163.957507 -18.813041 
L 163.581547 -18.763319 
L 163.17002 -18.713597 
L 162.732616 -18.663875 
L 162.279501 -18.614153 
L 161.82084 -18.564431 
L 161.366338 -18.514709 
L 160.924841 -18.464988 
L 160.504014 -18.415266 
L 160.110109 -18.365544 
L 159.747837 -18.315822 
L 159.420332 -18.2661 
L 159.129212 -18.216378 
L 158.874707 -18.166657 
L 158.65585 -18.116935 
L 158.470705 -18.067213 
L 158.316615 -18.017491 
L 158.19044 -17.967769 
L 158.08879 -17.918047 
z
" style="stroke: #505050; stroke-width: 0.15"/>
    </defs>
    <g clip-path="url(#p29e10860d4)">
     <use xlink:href="#med8a6c49ab" x="0" y="84.96" style="fill: #c447c3; stroke: #505050; stroke-width: 0.15"/>
    </g>
   </g>
   <g id="line2d_27">
    <path d="M 102.864301 53.792833 
L 102.864301 27.54684 
" clip-path="url(#p29e10860d4)" style="fill: none; stroke: #8c8c8c; stroke-width: 0.75; stroke-linecap: round"/>
   </g>
   <g id="line2d_28">
    <path d="M 102.864301 48.667053 
L 102.864301 38.733454 
" clip-path="url(#p29e10860d4)" style="fill: none; stroke: #8c8c8c; stroke-width: 4; stroke-linecap: round"/>
   </g>
   <g id="line2d_29">
    <path d="M 102.864301 44.248876 
" clip-path="url(#p29e10860d4)" style="fill: none; stroke: #505050; stroke-width: 1.2; stroke-linecap: round"/>
    <g clip-path="url(#p29e10860d4)">
     <use xlink:href="#mad99dbf744" x="102.864301" y="44.248876" style="fill: #ffffff; stroke: #ffffff; stroke-width: 0.8"/>
    </g>
   </g>
   <g id="line2d_30">
    <path d="M 121.165861 66.294961 
L 121.165861 64.036573 
" clip-path="url(#p29e10860d4)" style="fill: none; stroke: #8c8c8c; stroke-width: 0.75; stroke-linecap: round"/>
   </g>
   <g id="line2d_31">
    <path d="M 121.165861 66.089702 
L 121.165861 65.090195 
" clip-path="url(#p29e10860d4)" style="fill: none; stroke: #8c8c8c; stroke-width: 4; stroke-linecap: round"/>
   </g>
   <g id="line2d_32">
    <path d="M 121.165861 65.666996 
" clip-path="url(#p29e10860d4)" style="fill: none; stroke: #505050; stroke-width: 1.2; stroke-linecap: round"/>
    <g clip-path="url(#p29e10860d4)">
     <use xlink:href="#mad99dbf744" x="121.165861" y="65.666996" style="fill: #ffffff; stroke: #ffffff; stroke-width: 0.8"/>
    </g>
   </g>
   <g id="line2d_33">
    <path d="M 139.46742 66.324291 
L 139.46742 66.207225 
" clip-path="url(#p29e10860d4)" style="fill: none; stroke: #8c8c8c; stroke-width: 0.75; stroke-linecap: round"/>
   </g>
   <g id="line2d_34">
    <path d="M 139.46742 66.296528 
L 139.46742 66.220608 
" clip-path="url(#p29e10860d4)" style="fill: none; stroke: #8c8c8c; stroke-width: 4; stroke-linecap: round"/>
   </g>
   <g id="line2d_35">
    <path d="M 139.46742 66.285705 
" clip-path="url(#p29e10860d4)" style="fill: none; stroke: #505050; stroke-width: 1.2; stroke-linecap: round"/>
    <g clip-path="url(#p29e10860d4)">
     <use xlink:href="#mad99dbf744" x="139.46742" y="66.285705" style="fill: #ffffff; stroke: #ffffff; stroke-width: 0.8"/>
    </g>
   </g>
   <g id="line2d_36">
    <path d="M 157.76898 66.261777 
L 157.76898 65.287521 
" clip-path="url(#p29e10860d4)" style="fill: none; stroke: #8c8c8c; stroke-width: 0.75; stroke-linecap: round"/>
   </g>
   <g id="line2d_37">
    <path d="M 157.76898 65.923676 
L 157.76898 65.305503 
" clip-path="url(#p29e10860d4)" style="fill: none; stroke: #8c8c8c; stroke-width: 4; stroke-linecap: round"/>
   </g>
   <g id="line2d_38">
    <path d="M 157.76898 65.816153 
" clip-path="url(#p29e10860d4)" style="fill: none; stroke: #505050; stroke-width: 1.2; stroke-linecap: round"/>
    <g clip-path="url(#p29e10860d4)">
     <use xlink:href="#mad99dbf744" x="157.76898" y="65.816153" style="fill: #ffffff; stroke: #ffffff; stroke-width: 0.8"/>
    </g>
   </g>
   <g id="patch_6">
    <path d="M 93.713521 74.419526 
L 93.713521 4.076256 
" style="fill: none; stroke: #777777; stroke-width: 0.5; stroke-linejoin: miter; stroke-linecap: square"/>
   </g>
   <g id="patch_7">
    <path d="M 93.713521 76.919526 
L 166.91976 76.919526 
" style="fill: none; stroke: #777777; stroke-width: 0.5; stroke-linejoin: miter; stroke-linecap: square"/>
   </g>
   <g id="PathCollection_5">
    <g clip-path="url(#p29e10860d4)">
     <use xlink:href="#m309a618c7d" x="102.265834" y="31.369339" style="fill: #642222"/>
     <use xlink:href="#m309a618c7d" x="103.742321" y="17.295866" style="fill: #642222"/>
     <use xlink:href="#m309a618c7d" x="102.435365" y="48.581521" style="fill: #642222"/>
     <use xlink:href="#m309a618c7d" x="104.156844" y="52.753064" style="fill: #642222"/>
     <use xlink:href="#m309a618c7d" x="104.162682" y="40.14916" style="fill: #642222"/>
     <use xlink:href="#m309a618c7d" x="101.047722" y="43.679027" style="fill: #642222"/>
     <use xlink:href="#m309a618c7d" x="101.494894" y="48.269593" style="fill: #642222"/>
     <use xlink:href="#m309a618c7d" x="102.811601" y="41.665134" style="fill: #642222"/>
     <use xlink:href="#m309a618c7d" x="103.526923" y="47.110892" style="fill: #642222"/>
     <use xlink:href="#m309a618c7d" x="103.748043" y="27.861143" style="fill: #642222"/>
     <use xlink:href="#m309a618c7d" x="101.728412" y="48.384149" style="fill: #642222"/>
     <use xlink:href="#m309a618c7d" x="104.188382" y="49.527831" style="fill: #642222"/>
     <use xlink:href="#m309a618c7d" x="101.270729" y="44.818725" style="fill: #642222"/>
     <use xlink:href="#m309a618c7d" x="103.111698" y="36.345893" style="fill: #642222"/>
     <use xlink:href="#m309a618c7d" x="102.424386" y="49.43132" style="fill: #642222"/>
     <use xlink:href="#m309a618c7d" x="103.851535" y="39.282766" style="fill: #642222"/>
     <use xlink:href="#m309a618c7d" x="102.890723" y="49.760385" style="fill: #642222"/>
     <use xlink:href="#m309a618c7d" x="101.274507" y="27.54684" style="fill: #642222"/>
     <use xlink:href="#m309a618c7d" x="103.618619" y="53.792833" style="fill: #642222"/>
     <use xlink:href="#m309a618c7d" x="104.331133" y="48.923649" style="fill: #642222"/>
     <use xlink:href="#m309a618c7d" x="102.750712" y="42.915533" style="fill: #642222"/>
     <use xlink:href="#m309a618c7d" x="103.17686" y="38.710611" style="fill: #642222"/>
     <use xlink:href="#m309a618c7d" x="101.726445" y="46.919702" style="fill: #642222"/>
     <use xlink:href="#m309a618c7d" x="102.025856" y="38.741068" style="fill: #642222"/>
    </g>
   </g>
   <g id="PathCollection_6">
    <g clip-path="url(#p29e10860d4)">
     <use xlink:href="#m309a618c7d" x="121.204572" y="63.102505" style="fill: #642222"/>
     <use xlink:href="#m309a618c7d" x="122.442599" y="64.036573" style="fill: #642222"/>
     <use xlink:href="#m309a618c7d" x="121.53648" y="66.294961" style="fill: #642222"/>
     <use xlink:href="#m309a618c7d" x="120.867132" y="66.188512" style="fill: #642222"/>
     <use xlink:href="#m309a618c7d" x="119.966212" y="65.550356" style="fill: #642222"/>
     <use xlink:href="#m309a618c7d" x="120.495905" y="66.056765" style="fill: #642222"/>
     <use xlink:href="#m309a618c7d" x="120.776513" y="65.783636" style="fill: #642222"/>
     <use xlink:href="#m309a618c7d" x="120.495837" y="65.441402" style="fill: #642222"/>
    </g>
   </g>
   <g id="PathCollection_7">
    <g clip-path="url(#p29e10860d4)">
     <use xlink:href="#m309a618c7d" x="138.327489" y="66.21041" style="fill: #642222"/>
     <use xlink:href="#m309a618c7d" x="140.093814" y="66.306762" style="fill: #642222"/>
     <use xlink:href="#m309a618c7d" x="139.324229" y="66.324291" style="fill: #642222"/>
     <use xlink:href="#m309a618c7d" x="138.933868" y="66.293116" style="fill: #642222"/>
     <use xlink:href="#m309a618c7d" x="138.563069" y="66.292531" style="fill: #642222"/>
     <use xlink:href="#m309a618c7d" x="137.966772" y="66.27888" style="fill: #642222"/>
     <use xlink:href="#m309a618c7d" x="141.157493" y="66.224008" style="fill: #642222"/>
     <use xlink:href="#m309a618c7d" x="139.848826" y="66.207225" style="fill: #642222"/>
    </g>
   </g>
   <g id="PathCollection_8">
    <g clip-path="url(#p29e10860d4)">
     <use xlink:href="#m309a618c7d" x="156.804028" y="66.123162" style="fill: #642222"/>
     <use xlink:href="#m309a618c7d" x="157.019148" y="62.899666" style="fill: #642222"/>
     <use xlink:href="#m309a618c7d" x="157.804791" y="66.261777" style="fill: #642222"/>
     <use xlink:href="#m309a618c7d" x="155.967668" y="65.857181" style="fill: #642222"/>
     <use xlink:href="#m309a618c7d" x="159.541574" y="65.311498" style="fill: #642222"/>
     <use xlink:href="#m309a618c7d" x="156.037131" y="65.803861" style="fill: #642222"/>
     <use xlink:href="#m309a618c7d" x="156.972801" y="65.287521" style="fill: #642222"/>
     <use xlink:href="#m309a618c7d" x="158.622444" y="65.828444" style="fill: #642222"/>
    </g>
   </g>
  </g>
 </g>
 <defs>
  <clipPath id="p55f2fa4fc0">
   <rect x="9.17024" y="4.076256" width="73.206239" height="70.34327"/>
  </clipPath>
  <clipPath id="p29e10860d4">
   <rect x="93.713521" y="4.076256" width="73.206239" height="70.34327"/>
  </clipPath>
 </defs>
</svg>
