<?xml version="1.0" encoding="utf-8" standalone="no"?>
<!DOCTYPE svg PUBLIC "-//W3C//DTD SVG 1.1//EN"
  "http://www.w3.org/Graphics/SVG/1.1/DTD/svg11.dtd">
<svg xmlns:xlink="http://www.w3.org/1999/xlink" width="84.96pt" height="84.96pt" viewBox="0 0 84.96 84.96" xmlns="http://www.w3.org/2000/svg" version="1.1">
 <metadata>
  <rdf:RDF xmlns:dc="http://purl.org/dc/elements/1.1/" xmlns:cc="http://creativecommons.org/ns#" xmlns:rdf="http://www.w3.org/1999/02/22-rdf-syntax-ns#">
   <cc:Work>
    <dc:type rdf:resource="http://purl.org/dc/dcmitype/StillImage"/>
    <dc:date>2024-05-27T15:37:04.971179</dc:date>
    <dc:format>image/svg+xml</dc:format>
    <dc:creator>
     <cc:Agent>
      <dc:title>Matplotlib v3.8.3, https://matplotlib.org/</dc:title>
     </cc:Agent>
    </dc:creator>
   </cc:Work>
  </rdf:RDF>
 </metadata>
 <defs>
  <style type="text/css">*{stroke-linejoin: round; stroke-linecap: butt}</style>
 </defs>
 <g id="figure_1">
  <g id="patch_1">
   <path d="M 0 84.96 
L 84.96 84.96 
L 84.96 0 
L 0 0 
z
" style="fill: #ffffff"/>
  </g>
  <g id="axes_1">
   <g id="patch_2">
    <path d="M 8.336802 74.419526 
L 81.95976 74.419526 
L 81.95976 4.076256 
L 8.336802 4.076256 
z
" style="fill: #ffffff"/>
   </g>
   <g id="matplotlib.axis_1">
    <g id="xtick_1">
     <g id="text_1">
      <!-- NK/ILC1ie -->
      <g style="fill: #333333" transform="translate(12.63167 81.230229) scale(0.035 -0.035)">
       <defs>
        <path id="Helvetica-4e" d="M 488 4591 
L 1222 4591 
L 3541 872 
L 3541 4591 
L 4131 4591 
L 4131 0 
L 3434 0 
L 1081 3716 
L 1081 0 
L 488 0 
L 488 4591 
z
M 2269 4591 
L 2269 4591 
z
" transform="scale(0.015625)"/>
        <path id="Helvetica-4b" d="M 488 4591 
L 1094 4591 
L 1094 2353 
L 3331 4591 
L 4191 4591 
L 2281 2741 
L 4244 0 
L 3434 0 
L 1828 2303 
L 1094 1600 
L 1094 0 
L 488 0 
L 488 4591 
z
" transform="scale(0.015625)"/>
        <path id="Helvetica-2f" d="M 1456 4591 
L 1931 4591 
L 475 0 
L 0 0 
L 1456 4591 
z
" transform="scale(0.015625)"/>
        <path id="Helvetica-49" d="M 628 4591 
L 1256 4591 
L 1256 0 
L 628 0 
L 628 4591 
z
" transform="scale(0.015625)"/>
        <path id="Helvetica-4c" d="M 488 4591 
L 1109 4591 
L 1109 547 
L 3434 547 
L 3434 0 
L 488 0 
L 488 4591 
z
" transform="scale(0.015625)"/>
        <path id="Helvetica-43" d="M 2422 4716 
Q 3294 4716 3775 4256 
Q 4256 3797 4309 3213 
L 3703 3213 
Q 3600 3656 3292 3915 
Q 2984 4175 2428 4175 
Q 1750 4175 1333 3698 
Q 916 3222 916 2238 
Q 916 1431 1292 929 
Q 1669 428 2416 428 
Q 3103 428 3463 956 
Q 3653 1234 3747 1688 
L 4353 1688 
Q 4272 963 3816 472 
Q 3269 -119 2341 -119 
Q 1541 -119 997 366 
Q 281 1006 281 2344 
Q 281 3359 819 4009 
Q 1400 4716 2422 4716 
z
M 2297 4716 
L 2297 4716 
z
" transform="scale(0.015625)"/>
        <path id="Helvetica-31" d="M 613 3169 
L 613 3600 
Q 1222 3659 1462 3798 
Q 1703 3938 1822 4456 
L 2266 4456 
L 2266 0 
L 1666 0 
L 1666 3169 
L 613 3169 
z
" transform="scale(0.015625)"/>
        <path id="Helvetica-69" d="M 413 3331 
L 984 3331 
L 984 0 
L 413 0 
L 413 3331 
z
M 413 4591 
L 984 4591 
L 984 3953 
L 413 3953 
L 413 4591 
z
" transform="scale(0.015625)"/>
        <path id="Helvetica-65" d="M 1806 3422 
Q 2163 3422 2497 3255 
Q 2831 3088 3006 2822 
Q 3175 2569 3231 2231 
Q 3281 2000 3281 1494 
L 828 1494 
Q 844 984 1069 676 
Q 1294 369 1766 369 
Q 2206 369 2469 659 
Q 2619 828 2681 1050 
L 3234 1050 
Q 3213 866 3089 639 
Q 2966 413 2813 269 
Q 2556 19 2178 -69 
Q 1975 -119 1719 -119 
Q 1094 -119 659 336 
Q 225 791 225 1609 
Q 225 2416 662 2919 
Q 1100 3422 1806 3422 
z
M 2703 1941 
Q 2669 2306 2544 2525 
Q 2313 2931 1772 2931 
Q 1384 2931 1121 2651 
Q 859 2372 844 1941 
L 2703 1941 
z
M 1753 3428 
L 1753 3428 
z
" transform="scale(0.015625)"/>
       </defs>
       <use xlink:href="#Helvetica-4e"/>
       <use xlink:href="#Helvetica-4b" x="72.216797"/>
       <use xlink:href="#Helvetica-2f" x="138.916016"/>
       <use xlink:href="#Helvetica-49" x="166.699219"/>
       <use xlink:href="#Helvetica-4c" x="194.482422"/>
       <use xlink:href="#Helvetica-43" x="250.097656"/>
       <use xlink:href="#Helvetica-31" x="322.314453"/>
       <use xlink:href="#Helvetica-69" x="377.929688"/>
       <use xlink:href="#Helvetica-65" x="400.146484"/>
      </g>
     </g>
    </g>
    <g id="xtick_2">
     <g id="text_2">
      <!-- ILC1 -->
      <g style="fill: #333333" transform="translate(41.451953 81.230229) scale(0.035 -0.035)">
       <use xlink:href="#Helvetica-49"/>
       <use xlink:href="#Helvetica-4c" x="27.783203"/>
       <use xlink:href="#Helvetica-43" x="83.398438"/>
       <use xlink:href="#Helvetica-31" x="155.615234"/>
      </g>
     </g>
    </g>
    <g id="xtick_3">
     <g id="text_3">
      <!-- TH1 -->
      <g style="fill: #333333" transform="translate(66.383408 81.230229) scale(0.035 -0.035)">
       <defs>
        <path id="Helvetica-54" d="M 3828 4591 
L 3828 4044 
L 2281 4044 
L 2281 0 
L 1650 0 
L 1650 4044 
L 103 4044 
L 103 4591 
L 3828 4591 
z
" transform="scale(0.015625)"/>
        <path id="Helvetica-48" d="M 503 4591 
L 1131 4591 
L 1131 2694 
L 3519 2694 
L 3519 4591 
L 4147 4591 
L 4147 0 
L 3519 0 
L 3519 2147 
L 1131 2147 
L 1131 0 
L 503 0 
L 503 4591 
z
" transform="scale(0.015625)"/>
       </defs>
       <use xlink:href="#Helvetica-54"/>
       <use xlink:href="#Helvetica-48" x="61.083984"/>
       <use xlink:href="#Helvetica-31" x="133.300781"/>
      </g>
     </g>
    </g>
   </g>
   <g id="matplotlib.axis_2">
    <g id="ytick_1">
     <g id="line2d_1">
      <defs>
       <path id="m75d85a5431" d="M 0 0 
L -1 0 
" style="stroke: #777777; stroke-width: 0.5"/>
      </defs>
      <g>
       <use xlink:href="#m75d85a5431" x="8.336802" y="66.995102" style="fill: #777777; stroke: #777777; stroke-width: 0.5"/>
      </g>
     </g>
     <g id="text_4">
      <!-- 0 -->
      <g style="fill: #333333" transform="translate(4.668521 68.071117) scale(0.03 -0.03)">
       <defs>
        <path id="Helvetica-30" d="M 1731 4475 
Q 2600 4475 2988 3759 
Q 3288 3206 3288 2244 
Q 3288 1331 3016 734 
Q 2622 -122 1728 -122 
Q 922 -122 528 578 
Q 200 1163 200 2147 
Q 200 2909 397 3456 
Q 766 4475 1731 4475 
z
M 1725 391 
Q 2163 391 2422 778 
Q 2681 1166 2681 2222 
Q 2681 2984 2493 3476 
Q 2306 3969 1766 3969 
Q 1269 3969 1039 3501 
Q 809 3034 809 2125 
Q 809 1441 956 1025 
Q 1181 391 1725 391 
z
" transform="scale(0.015625)"/>
       </defs>
       <use xlink:href="#Helvetica-30"/>
      </g>
     </g>
    </g>
    <g id="ytick_2">
     <g id="line2d_2">
      <g>
       <use xlink:href="#m75d85a5431" x="8.336802" y="54.411333" style="fill: #777777; stroke: #777777; stroke-width: 0.5"/>
      </g>
     </g>
     <g id="text_5">
      <!-- 10 -->
      <g style="fill: #333333" transform="translate(3.00024 55.487348) scale(0.03 -0.03)">
       <use xlink:href="#Helvetica-31"/>
       <use xlink:href="#Helvetica-30" x="55.615234"/>
      </g>
     </g>
    </g>
    <g id="ytick_3">
     <g id="line2d_3">
      <g>
       <use xlink:href="#m75d85a5431" x="8.336802" y="41.827563" style="fill: #777777; stroke: #777777; stroke-width: 0.5"/>
      </g>
     </g>
     <g id="text_6">
      <!-- 20 -->
      <g style="fill: #333333" transform="translate(3.00024 42.903579) scale(0.03 -0.03)">
       <defs>
        <path id="Helvetica-32" d="M 200 0 
Q 231 578 439 1006 
Q 647 1434 1250 1784 
L 1850 2131 
Q 2253 2366 2416 2531 
Q 2672 2791 2672 3125 
Q 2672 3516 2437 3745 
Q 2203 3975 1813 3975 
Q 1234 3975 1013 3538 
Q 894 3303 881 2888 
L 309 2888 
Q 319 3472 525 3841 
Q 891 4491 1816 4491 
Q 2584 4491 2939 4075 
Q 3294 3659 3294 3150 
Q 3294 2613 2916 2231 
Q 2697 2009 2131 1694 
L 1703 1456 
Q 1397 1288 1222 1134 
Q 909 863 828 531 
L 3272 531 
L 3272 0 
L 200 0 
z
" transform="scale(0.015625)"/>
       </defs>
       <use xlink:href="#Helvetica-32"/>
       <use xlink:href="#Helvetica-30" x="55.615234"/>
      </g>
     </g>
    </g>
    <g id="ytick_4">
     <g id="line2d_4">
      <g>
       <use xlink:href="#m75d85a5431" x="8.336802" y="29.243794" style="fill: #777777; stroke: #777777; stroke-width: 0.5"/>
      </g>
     </g>
     <g id="text_7">
      <!-- 30 -->
      <g style="fill: #333333" transform="translate(3.00024 30.31981) scale(0.03 -0.03)">
       <defs>
        <path id="Helvetica-33" d="M 1663 -122 
Q 869 -122 511 314 
Q 153 750 153 1375 
L 741 1375 
Q 778 941 903 744 
Q 1122 391 1694 391 
Q 2138 391 2406 628 
Q 2675 866 2675 1241 
Q 2675 1703 2392 1887 
Q 2109 2072 1606 2072 
Q 1550 2072 1492 2070 
Q 1434 2069 1375 2066 
L 1375 2563 
Q 1463 2553 1522 2550 
Q 1581 2547 1650 2547 
Q 1966 2547 2169 2647 
Q 2525 2822 2525 3272 
Q 2525 3606 2287 3787 
Q 2050 3969 1734 3969 
Q 1172 3969 956 3594 
Q 838 3388 822 3006 
L 266 3006 
Q 266 3506 466 3856 
Q 809 4481 1675 4481 
Q 2359 4481 2734 4176 
Q 3109 3872 3109 3294 
Q 3109 2881 2888 2625 
Q 2750 2466 2531 2375 
Q 2884 2278 3082 2001 
Q 3281 1725 3281 1325 
Q 3281 684 2859 281 
Q 2438 -122 1663 -122 
z
" transform="scale(0.015625)"/>
       </defs>
       <use xlink:href="#Helvetica-33"/>
       <use xlink:href="#Helvetica-30" x="55.615234"/>
      </g>
     </g>
    </g>
    <g id="ytick_5">
     <g id="line2d_5">
      <g>
       <use xlink:href="#m75d85a5431" x="8.336802" y="16.660025" style="fill: #777777; stroke: #777777; stroke-width: 0.5"/>
      </g>
     </g>
     <g id="text_8">
      <!-- 40 -->
      <g style="fill: #333333" transform="translate(3.00024 17.73604) scale(0.03 -0.03)">
       <defs>
        <path id="Helvetica-34" d="M 2116 1584 
L 2116 3613 
L 681 1584 
L 2116 1584 
z
M 2125 0 
L 2125 1094 
L 163 1094 
L 163 1644 
L 2213 4488 
L 2688 4488 
L 2688 1584 
L 3347 1584 
L 3347 1094 
L 2688 1094 
L 2688 0 
L 2125 0 
z
" transform="scale(0.015625)"/>
       </defs>
       <use xlink:href="#Helvetica-34"/>
       <use xlink:href="#Helvetica-30" x="55.615234"/>
      </g>
     </g>
    </g>
    <g id="ytick_6">
     <g id="line2d_6">
      <g>
       <use xlink:href="#m75d85a5431" x="8.336802" y="4.076256" style="fill: #777777; stroke: #777777; stroke-width: 0.5"/>
      </g>
     </g>
     <g id="text_9">
      <!-- 50 -->
      <g style="fill: #333333" transform="translate(3.00024 5.152271) scale(0.03 -0.03)">
       <defs>
        <path id="Helvetica-35" d="M 791 1141 
Q 847 659 1238 475 
Q 1438 381 1700 381 
Q 2200 381 2440 700 
Q 2681 1019 2681 1406 
Q 2681 1875 2395 2131 
Q 2109 2388 1709 2388 
Q 1419 2388 1211 2275 
Q 1003 2163 856 1963 
L 369 1991 
L 709 4400 
L 3034 4400 
L 3034 3856 
L 1131 3856 
L 941 2613 
Q 1097 2731 1238 2791 
Q 1488 2894 1816 2894 
Q 2431 2894 2859 2497 
Q 3288 2100 3288 1491 
Q 3288 856 2895 371 
Q 2503 -113 1644 -113 
Q 1097 -113 676 195 
Q 256 503 206 1141 
L 791 1141 
z
" transform="scale(0.015625)"/>
       </defs>
       <use xlink:href="#Helvetica-35"/>
       <use xlink:href="#Helvetica-30" x="55.615234"/>
      </g>
     </g>
    </g>
   </g>
   <g id="PolyCollection_1">
    <defs>
     <path id="m14abe4f36e" d="M 23.139088 -17.963181 
L 18.075503 -17.963181 
L 17.653564 -17.963621 
L 17.193327 -17.964062 
L 16.698021 -17.964502 
L 16.172397 -17.964942 
L 15.62276 -17.965383 
L 15.056923 -17.965823 
L 14.484093 -17.966264 
L 13.914661 -17.966704 
L 13.359924 -17.967144 
L 12.831733 -17.967585 
L 12.342084 -17.968025 
L 11.90267 -17.968465 
L 11.524422 -17.968906 
L 11.217055 -17.969346 
L 10.988655 -17.969787 
L 10.845323 -17.970227 
L 10.790901 -17.970667 
L 10.826804 -17.971108 
L 10.95195 -17.971548 
L 11.162815 -17.971988 
L 11.453589 -17.972429 
L 11.816437 -17.972869 
L 12.241838 -17.97331 
L 12.718991 -17.97375 
L 13.236245 -17.97419 
L 13.781558 -17.974631 
L 14.342925 -17.975071 
L 14.908777 -17.975511 
L 15.468328 -17.975952 
L 16.011845 -17.976392 
L 16.530848 -17.976833 
L 17.018225 -17.977273 
L 17.468282 -17.977713 
L 17.87671 -17.978154 
L 18.240502 -17.978594 
L 18.557834 -17.979034 
L 18.8279 -17.979475 
L 19.050749 -17.979915 
L 19.227115 -17.980355 
L 19.358261 -17.980796 
L 19.445844 -17.981236 
L 19.491812 -17.981677 
L 19.498328 -17.982117 
L 19.467731 -17.982557 
L 19.402522 -17.982998 
L 19.30538 -17.983438 
L 19.179187 -17.983878 
L 19.027071 -17.984319 
L 18.852444 -17.984759 
L 18.659028 -17.9852 
L 18.450866 -17.98564 
L 18.232312 -17.98608 
L 18.00799 -17.986521 
L 17.782714 -17.986961 
L 17.561396 -17.987401 
L 17.348907 -17.987842 
L 17.149937 -17.988282 
L 16.968828 -17.988723 
L 16.809413 -17.989163 
L 16.674868 -17.989603 
L 16.567577 -17.990044 
L 16.489036 -17.990484 
L 16.439789 -17.990924 
L 16.419423 -17.991365 
L 16.426597 -17.991805 
L 16.459129 -17.992246 
L 16.51413 -17.992686 
L 16.588163 -17.993126 
L 16.677445 -17.993567 
L 16.77805 -17.994007 
L 16.886119 -17.994447 
L 16.998064 -17.994888 
L 17.110736 -17.995328 
L 17.221563 -17.995769 
L 17.328649 -17.996209 
L 17.430821 -17.996649 
L 17.527623 -17.99709 
L 17.619273 -17.99753 
L 17.706571 -17.99797 
L 17.790777 -17.998411 
L 17.873466 -17.998851 
L 17.956374 -17.999292 
L 18.041241 -17.999732 
L 18.129666 -18.000172 
L 18.222985 -18.000613 
L 18.322172 -18.001053 
L 18.427778 -18.001493 
L 18.539897 -18.001934 
L 18.658173 -18.002374 
L 18.781833 -18.002814 
L 18.909743 -18.003255 
L 19.040489 -18.003695 
L 19.172469 -18.004136 
L 19.303984 -18.004576 
L 19.43333 -18.005016 
L 19.558886 -18.005457 
L 19.679185 -18.005897 
L 19.792967 -18.006337 
L 19.899222 -18.006778 
L 21.315369 -18.006778 
L 21.315369 -18.006778 
L 21.421624 -18.006337 
L 21.535406 -18.005897 
L 21.655705 -18.005457 
L 21.781261 -18.005016 
L 21.910607 -18.004576 
L 22.042121 -18.004136 
L 22.174102 -18.003695 
L 22.304848 -18.003255 
L 22.432758 -18.002814 
L 22.556417 -18.002374 
L 22.674694 -18.001934 
L 22.786813 -18.001493 
L 22.892419 -18.001053 
L 22.991606 -18.000613 
L 23.084925 -18.000172 
L 23.17335 -17.999732 
L 23.258217 -17.999292 
L 23.341125 -17.998851 
L 23.423814 -17.998411 
L 23.50802 -17.99797 
L 23.595318 -17.99753 
L 23.686968 -17.99709 
L 23.78377 -17.996649 
L 23.885942 -17.996209 
L 23.993028 -17.995769 
L 24.103855 -17.995328 
L 24.216526 -17.994888 
L 24.328472 -17.994447 
L 24.436541 -17.994007 
L 24.537146 -17.993567 
L 24.626428 -17.993126 
L 24.700461 -17.992686 
L 24.755462 -17.992246 
L 24.787994 -17.991805 
L 24.795168 -17.991365 
L 24.774801 -17.990924 
L 24.725555 -17.990484 
L 24.647013 -17.990044 
L 24.539723 -17.989603 
L 24.405178 -17.989163 
L 24.245763 -17.988723 
L 24.064653 -17.988282 
L 23.865683 -17.987842 
L 23.653195 -17.987401 
L 23.431877 -17.986961 
L 23.206601 -17.986521 
L 22.982278 -17.98608 
L 22.763725 -17.98564 
L 22.555563 -17.9852 
L 22.362146 -17.984759 
L 22.187519 -17.984319 
L 22.035404 -17.983878 
L 21.909211 -17.983438 
L 21.812068 -17.982998 
L 21.74686 -17.982557 
L 21.716263 -17.982117 
L 21.722779 -17.981677 
L 21.768747 -17.981236 
L 21.85633 -17.980796 
L 21.987476 -17.980355 
L 22.163842 -17.979915 
L 22.386691 -17.979475 
L 22.656757 -17.979034 
L 22.974088 -17.978594 
L 23.337881 -17.978154 
L 23.746308 -17.977713 
L 24.196365 -17.977273 
L 24.683743 -17.976833 
L 25.202745 -17.976392 
L 25.746262 -17.975952 
L 26.305814 -17.975511 
L 26.871666 -17.975071 
L 27.433033 -17.974631 
L 27.978346 -17.97419 
L 28.4956 -17.97375 
L 28.972752 -17.97331 
L 29.398154 -17.972869 
L 29.761002 -17.972429 
L 30.051776 -17.971988 
L 30.262641 -17.971548 
L 30.387787 -17.971108 
L 30.42369 -17.970667 
L 30.369268 -17.970227 
L 30.225936 -17.969787 
L 29.997536 -17.969346 
L 29.690169 -17.968906 
L 29.311921 -17.968465 
L 28.872507 -17.968025 
L 28.382858 -17.967585 
L 27.854667 -17.967144 
L 27.29993 -17.966704 
L 26.730498 -17.966264 
L 26.157668 -17.965823 
L 25.591831 -17.965383 
L 25.042194 -17.964942 
L 24.51657 -17.964502 
L 24.021264 -17.964062 
L 23.561027 -17.963621 
L 23.139088 -17.963181 
z
" style="stroke: #6f6f6f; stroke-width: 0.15"/>
    </defs>
    <g clip-path="url(#pdf2ed76048)">
     <use xlink:href="#m14abe4f36e" x="0" y="84.96" style="fill: #98daa7; stroke: #6f6f6f; stroke-width: 0.15"/>
    </g>
   </g>
   <g id="PolyCollection_2">
    <defs>
     <path id="m261cefab6e" d="M 46.883882 -18.313852 
L 43.412681 -18.313852 
L 43.079955 -18.340093 
L 42.709988 -18.366334 
L 42.304444 -18.392576 
L 41.86629 -18.418817 
L 41.399797 -18.445058 
L 40.910477 -18.4713 
L 40.404923 -18.497541 
L 39.890576 -18.523782 
L 39.375428 -18.550023 
L 38.867673 -18.576265 
L 38.375334 -18.602506 
L 37.905908 -18.628747 
L 37.466043 -18.654989 
L 37.061281 -18.68123 
L 36.695899 -18.707471 
L 36.372855 -18.733713 
L 36.093837 -18.759954 
L 35.859419 -18.786195 
L 35.669301 -18.812437 
L 35.522602 -18.838678 
L 35.418172 -18.864919 
L 35.354885 -18.89116 
L 35.331887 -18.917402 
L 35.348756 -18.943643 
L 35.405564 -18.969884 
L 35.502831 -18.996126 
L 35.641378 -19.022367 
L 35.822092 -19.048608 
L 36.045633 -19.07485 
L 36.312121 -19.101091 
L 36.620832 -19.127332 
L 36.969936 -19.153573 
L 37.356324 -19.179815 
L 37.775518 -19.206056 
L 38.221695 -19.232297 
L 38.687823 -19.258539 
L 39.165883 -19.28478 
L 39.647175 -19.311021 
L 40.122682 -19.337263 
L 40.583449 -19.363504 
L 41.020974 -19.389745 
L 41.427559 -19.415987 
L 41.796627 -19.442228 
L 42.122966 -19.468469 
L 42.402908 -19.49471 
L 42.634434 -19.520952 
L 42.817192 -19.547193 
L 42.95246 -19.573434 
L 43.043032 -19.599676 
L 43.09305 -19.625917 
L 43.107794 -19.652158 
L 43.093424 -19.6784 
L 43.056702 -19.704641 
L 43.004688 -19.730882 
L 42.944435 -19.757123 
L 42.88268 -19.783365 
L 42.825562 -19.809606 
L 42.778364 -19.835847 
L 42.745291 -19.862089 
L 42.729317 -19.88833 
L 42.732077 -19.914571 
L 42.753842 -19.940813 
L 42.793557 -19.967054 
L 42.848956 -19.993295 
L 42.916736 -20.019536 
L 42.992792 -20.045778 
L 43.072482 -20.072019 
L 43.150936 -20.09826 
L 43.223357 -20.124502 
L 43.28532 -20.150743 
L 43.333045 -20.176984 
L 43.363629 -20.203226 
L 43.375225 -20.229467 
L 43.367152 -20.255708 
L 43.339942 -20.28195 
L 43.295317 -20.308191 
L 43.236091 -20.334432 
L 43.166013 -20.360673 
L 43.089554 -20.386915 
L 43.011656 -20.413156 
L 42.937452 -20.439397 
L 42.871979 -20.465639 
L 42.8199 -20.49188 
L 42.785255 -20.518121 
L 42.771246 -20.544363 
L 42.780086 -20.570604 
L 42.812907 -20.596845 
L 42.869736 -20.623086 
L 42.949537 -20.649328 
L 43.050317 -20.675569 
L 43.169279 -20.70181 
L 43.303017 -20.728052 
L 43.447728 -20.754293 
L 43.599438 -20.780534 
L 43.754207 -20.806776 
L 43.908322 -20.833017 
L 44.058452 -20.859258 
L 44.201763 -20.885499 
L 44.335991 -20.911741 
L 45.960572 -20.911741 
L 45.960572 -20.911741 
L 46.094799 -20.885499 
L 46.23811 -20.859258 
L 46.388241 -20.833017 
L 46.542356 -20.806776 
L 46.697125 -20.780534 
L 46.848834 -20.754293 
L 46.993546 -20.728052 
L 47.127284 -20.70181 
L 47.246246 -20.675569 
L 47.347026 -20.649328 
L 47.426827 -20.623086 
L 47.483656 -20.596845 
L 47.516477 -20.570604 
L 47.525317 -20.544363 
L 47.511307 -20.518121 
L 47.476662 -20.49188 
L 47.424584 -20.465639 
L 47.359111 -20.439397 
L 47.284907 -20.413156 
L 47.207008 -20.386915 
L 47.130549 -20.360673 
L 47.060471 -20.334432 
L 47.001245 -20.308191 
L 46.956621 -20.28195 
L 46.929411 -20.255708 
L 46.921337 -20.229467 
L 46.932933 -20.203226 
L 46.963518 -20.176984 
L 47.011243 -20.150743 
L 47.073205 -20.124502 
L 47.145626 -20.09826 
L 47.22408 -20.072019 
L 47.303771 -20.045778 
L 47.379826 -20.019536 
L 47.447607 -19.993295 
L 47.503006 -19.967054 
L 47.542721 -19.940813 
L 47.564485 -19.914571 
L 47.567245 -19.88833 
L 47.551271 -19.862089 
L 47.518199 -19.835847 
L 47.471 -19.809606 
L 47.413883 -19.783365 
L 47.352128 -19.757123 
L 47.291874 -19.730882 
L 47.23986 -19.704641 
L 47.203138 -19.6784 
L 47.188769 -19.652158 
L 47.203512 -19.625917 
L 47.253531 -19.599676 
L 47.344102 -19.573434 
L 47.47937 -19.547193 
L 47.662129 -19.520952 
L 47.893654 -19.49471 
L 48.173597 -19.468469 
L 48.499936 -19.442228 
L 48.869003 -19.415987 
L 49.275588 -19.389745 
L 49.713113 -19.363504 
L 50.173881 -19.337263 
L 50.649387 -19.311021 
L 51.13068 -19.28478 
L 51.608739 -19.258539 
L 52.074867 -19.232297 
L 52.521045 -19.206056 
L 52.940238 -19.179815 
L 53.326626 -19.153573 
L 53.675731 -19.127332 
L 53.984441 -19.101091 
L 54.25093 -19.07485 
L 54.474471 -19.048608 
L 54.655184 -19.022367 
L 54.793732 -18.996126 
L 54.890999 -18.969884 
L 54.947807 -18.943643 
L 54.964676 -18.917402 
L 54.941678 -18.89116 
L 54.878391 -18.864919 
L 54.77396 -18.838678 
L 54.627261 -18.812437 
L 54.437144 -18.786195 
L 54.202726 -18.759954 
L 53.923707 -18.733713 
L 53.600663 -18.707471 
L 53.235282 -18.68123 
L 52.83052 -18.654989 
L 52.390654 -18.628747 
L 51.921229 -18.602506 
L 51.42889 -18.576265 
L 50.921134 -18.550023 
L 50.405987 -18.523782 
L 49.89164 -18.497541 
L 49.386085 -18.4713 
L 48.896765 -18.445058 
L 48.430273 -18.418817 
L 47.992118 -18.392576 
L 47.586575 -18.366334 
L 47.216608 -18.340093 
L 46.883882 -18.313852 
z
" style="stroke: #6f6f6f; stroke-width: 0.15"/>
    </defs>
    <g clip-path="url(#pdf2ed76048)">
     <use xlink:href="#m261cefab6e" x="0" y="84.96" style="fill: #f2aba8; stroke: #6f6f6f; stroke-width: 0.15"/>
    </g>
   </g>
   <g id="PolyCollection_3">
    <defs>
     <path id="m351caede4e" d="M 72.158465 -17.804282 
L 67.220069 -17.804282 
L 66.748232 -17.81691 
L 66.227516 -17.829539 
L 65.662608 -17.842167 
L 65.060675 -17.854795 
L 64.431395 -17.867424 
L 63.78685 -17.880052 
L 63.141241 -17.892681 
L 62.510443 -17.905309 
L 61.911399 -17.917938 
L 61.3614 -17.930566 
L 60.877259 -17.943194 
L 60.474476 -17.955823 
L 60.166406 -17.968451 
L 59.963533 -17.98108 
L 59.872873 -17.993708 
L 59.897571 -18.006336 
L 60.036723 -18.018965 
L 60.285429 -18.031593 
L 60.635079 -18.044222 
L 61.073848 -18.05685 
L 61.58736 -18.069479 
L 62.159467 -18.082107 
L 62.773086 -18.094735 
L 63.411038 -18.107364 
L 64.056819 -18.119992 
L 64.695279 -18.132621 
L 65.313147 -18.145249 
L 65.899404 -18.157877 
L 66.445489 -18.170506 
L 66.945337 -18.183134 
L 67.395285 -18.195763 
L 67.793858 -18.208391 
L 68.141476 -18.22102 
L 68.440105 -18.233648 
L 68.692892 -18.246276 
L 68.903806 -18.258905 
L 69.077304 -18.271533 
L 69.218046 -18.284162 
L 69.330656 -18.29679 
L 69.419541 -18.309418 
L 69.488762 -18.322047 
L 69.541955 -18.334675 
L 69.582293 -18.347304 
L 69.612482 -18.359932 
L 69.634777 -18.372561 
L 69.65102 -18.385189 
L 69.662687 -18.397817 
L 69.670935 -18.410446 
L 69.676651 -18.423074 
L 69.680502 -18.435703 
L 69.682969 -18.448331 
L 69.684387 -18.460959 
L 69.684968 -18.473588 
L 69.684822 -18.486216 
L 69.683974 -18.498845 
L 69.682367 -18.511473 
L 69.679873 -18.524102 
L 69.67629 -18.53673 
L 69.671342 -18.549358 
L 69.664673 -18.561987 
L 69.655855 -18.574615 
L 69.644378 -18.587244 
L 69.629662 -18.599872 
L 69.611062 -18.6125 
L 69.587891 -18.625129 
L 69.559437 -18.637757 
L 69.525004 -18.650386 
L 69.483949 -18.663014 
L 69.435734 -18.675643 
L 69.379979 -18.688271 
L 69.316522 -18.700899 
L 69.245473 -18.713528 
L 69.167268 -18.726156 
L 69.082701 -18.738785 
L 68.992951 -18.751413 
L 68.899581 -18.764041 
L 68.804514 -18.77667 
L 68.70998 -18.789298 
L 68.618445 -18.801927 
L 68.532503 -18.814555 
L 68.454765 -18.827184 
L 68.387723 -18.839812 
L 68.333622 -18.85244 
L 68.294336 -18.865069 
L 68.271258 -18.877697 
L 68.265216 -18.890326 
L 68.276431 -18.902954 
L 68.304497 -18.915582 
L 68.348406 -18.928211 
L 68.406614 -18.940839 
L 68.477121 -18.953468 
L 68.557596 -18.966096 
L 68.645496 -18.978725 
L 68.738201 -18.991353 
L 68.833146 -19.003981 
L 68.927925 -19.01661 
L 69.020393 -19.029238 
L 69.108731 -19.041867 
L 69.191492 -19.054495 
L 70.187042 -19.054495 
L 70.187042 -19.054495 
L 70.269803 -19.041867 
L 70.358141 -19.029238 
L 70.45061 -19.01661 
L 70.545388 -19.003981 
L 70.640333 -18.991353 
L 70.733039 -18.978725 
L 70.820938 -18.966096 
L 70.901413 -18.953468 
L 70.971921 -18.940839 
L 71.030128 -18.928211 
L 71.074038 -18.915582 
L 71.102103 -18.902954 
L 71.113318 -18.890326 
L 71.107277 -18.877697 
L 71.084198 -18.865069 
L 71.044912 -18.85244 
L 70.990812 -18.839812 
L 70.92377 -18.827184 
L 70.846031 -18.814555 
L 70.760089 -18.801927 
L 70.668554 -18.789298 
L 70.57402 -18.77667 
L 70.478953 -18.764041 
L 70.385583 -18.751413 
L 70.295833 -18.738785 
L 70.211266 -18.726156 
L 70.133061 -18.713528 
L 70.062013 -18.700899 
L 69.998556 -18.688271 
L 69.9428 -18.675643 
L 69.894585 -18.663014 
L 69.85353 -18.650386 
L 69.819097 -18.637757 
L 69.790643 -18.625129 
L 69.767472 -18.6125 
L 69.748873 -18.599872 
L 69.734156 -18.587244 
L 69.722679 -18.574615 
L 69.713861 -18.561987 
L 69.707193 -18.549358 
L 69.702244 -18.53673 
L 69.698661 -18.524102 
L 69.696167 -18.511473 
L 69.694561 -18.498845 
L 69.693712 -18.486216 
L 69.693566 -18.473588 
L 69.694147 -18.460959 
L 69.695565 -18.448331 
L 69.698033 -18.435703 
L 69.701883 -18.423074 
L 69.707599 -18.410446 
L 69.715847 -18.397817 
L 69.727514 -18.385189 
L 69.743757 -18.372561 
L 69.766052 -18.359932 
L 69.796241 -18.347304 
L 69.836579 -18.334675 
L 69.889772 -18.322047 
L 69.958993 -18.309418 
L 70.047878 -18.29679 
L 70.160488 -18.284162 
L 70.30123 -18.271533 
L 70.474728 -18.258905 
L 70.685642 -18.246276 
L 70.938429 -18.233648 
L 71.237058 -18.22102 
L 71.584676 -18.208391 
L 71.98325 -18.195763 
L 72.433197 -18.183134 
L 72.933045 -18.170506 
L 73.47913 -18.157877 
L 74.065388 -18.145249 
L 74.683255 -18.132621 
L 75.321715 -18.119992 
L 75.967496 -18.107364 
L 76.605448 -18.094735 
L 77.219067 -18.082107 
L 77.791174 -18.069479 
L 78.304686 -18.05685 
L 78.743455 -18.044222 
L 79.093105 -18.031593 
L 79.341811 -18.018965 
L 79.480963 -18.006336 
L 79.505661 -17.993708 
L 79.415001 -17.98108 
L 79.212128 -17.968451 
L 78.904059 -17.955823 
L 78.501275 -17.943194 
L 78.017134 -17.930566 
L 77.467135 -17.917938 
L 76.868092 -17.905309 
L 76.237293 -17.892681 
L 75.591684 -17.880052 
L 74.947139 -17.867424 
L 74.317859 -17.854795 
L 73.715926 -17.842167 
L 73.151018 -17.829539 
L 72.630302 -17.81691 
L 72.158465 -17.804282 
z
" style="stroke: #6f6f6f; stroke-width: 0.15"/>
    </defs>
    <g clip-path="url(#pdf2ed76048)">
     <use xlink:href="#m351caede4e" x="0" y="84.96" style="fill: #d3c4f6; stroke: #6f6f6f; stroke-width: 0.15"/>
    </g>
   </g>
   <g id="line2d_7">
    <path d="M 20.607295 66.990299 
L 20.607295 66.959743 
" clip-path="url(#pdf2ed76048)" style="fill: none; stroke: #8c8c8c; stroke-width: 0.75; stroke-linecap: round"/>
   </g>
   <g id="line2d_8">
    <path d="M 20.607295 66.989501 
L 20.607295 66.969635 
" clip-path="url(#pdf2ed76048)" style="fill: none; stroke: #8c8c8c; stroke-width: 4; stroke-linecap: round"/>
   </g>
   <g id="line2d_9">
    <path d="M 20.607295 66.988524 
" clip-path="url(#pdf2ed76048)" style="fill: none; stroke: #6f6f6f; stroke-width: 1.2; stroke-linecap: round"/>
    <defs>
     <path id="m6bc777397b" d="M 0 0.833333 
C 0.221003 0.833333 0.432983 0.745528 0.589256 0.589256 
C 0.745528 0.432983 0.833333 0.221003 0.833333 0 
C 0.833333 -0.221003 0.745528 -0.432983 0.589256 -0.589256 
C 0.432983 -0.745528 0.221003 -0.833333 0 -0.833333 
C -0.221003 -0.833333 -0.432983 -0.745528 -0.589256 -0.589256 
C -0.745528 -0.432983 -0.833333 -0.221003 -0.833333 0 
C -0.833333 0.221003 -0.745528 0.432983 -0.589256 0.589256 
C -0.432983 0.745528 -0.221003 0.833333 0 0.833333 
z
" style="stroke: #ffffff; stroke-width: 0.8"/>
    </defs>
    <g clip-path="url(#pdf2ed76048)">
     <use xlink:href="#m6bc777397b" x="20.607295" y="66.988524" style="fill: #ffffff; stroke: #ffffff; stroke-width: 0.8"/>
    </g>
   </g>
   <g id="line2d_10">
    <path d="M 45.148281 66.298702 
L 45.148281 65.061004 
" clip-path="url(#pdf2ed76048)" style="fill: none; stroke: #8c8c8c; stroke-width: 0.75; stroke-linecap: round"/>
   </g>
   <g id="line2d_11">
    <path d="M 45.148281 66.183677 
L 45.148281 65.583214 
" clip-path="url(#pdf2ed76048)" style="fill: none; stroke: #8c8c8c; stroke-width: 4; stroke-linecap: round"/>
   </g>
   <g id="line2d_12">
    <path d="M 45.148281 65.882093 
" clip-path="url(#pdf2ed76048)" style="fill: none; stroke: #6f6f6f; stroke-width: 1.2; stroke-linecap: round"/>
    <g clip-path="url(#pdf2ed76048)">
     <use xlink:href="#m6bc777397b" x="45.148281" y="65.882093" style="fill: #ffffff; stroke: #ffffff; stroke-width: 0.8"/>
    </g>
   </g>
   <g id="line2d_13">
    <path d="M 69.689267 66.98965 
L 69.689267 66.925472 
" clip-path="url(#pdf2ed76048)" style="fill: none; stroke: #8c8c8c; stroke-width: 0.75; stroke-linecap: round"/>
   </g>
   <g id="line2d_14">
    <path d="M 69.689267 66.973788 
L 69.689267 66.9411 
" clip-path="url(#pdf2ed76048)" style="fill: none; stroke: #8c8c8c; stroke-width: 4; stroke-linecap: round"/>
   </g>
   <g id="line2d_15">
    <path d="M 69.689267 66.962446 
" clip-path="url(#pdf2ed76048)" style="fill: none; stroke: #6f6f6f; stroke-width: 1.2; stroke-linecap: round"/>
    <g clip-path="url(#pdf2ed76048)">
     <use xlink:href="#m6bc777397b" x="69.689267" y="66.962446" style="fill: #ffffff; stroke: #ffffff; stroke-width: 0.8"/>
    </g>
   </g>
   <g id="patch_3">
    <path d="M 8.336802 74.419526 
L 8.336802 4.076256 
" style="fill: none; stroke: #777777; stroke-width: 0.5; stroke-linejoin: miter; stroke-linecap: square"/>
   </g>
   <g id="patch_4">
    <path d="M 8.336802 76.919526 
L 81.95976 76.919526 
" style="fill: none; stroke: #777777; stroke-width: 0.5; stroke-linejoin: miter; stroke-linecap: square"/>
   </g>
  </g>
 </g>
 <defs>
  <clipPath id="pdf2ed76048">
   <rect x="8.336802" y="4.076256" width="73.622957" height="70.34327"/>
  </clipPath>
 </defs>
</svg>
