<?xml version="1.0" encoding="utf-8" standalone="no"?>
<!DOCTYPE svg PUBLIC "-//W3C//DTD SVG 1.1//EN"
  "http://www.w3.org/Graphics/SVG/1.1/DTD/svg11.dtd">
<svg xmlns:xlink="http://www.w3.org/1999/xlink" width="254.88pt" height="105.84pt" viewBox="0 0 254.88 105.84" xmlns="http://www.w3.org/2000/svg" version="1.1">
 <metadata>
  <rdf:RDF xmlns:dc="http://purl.org/dc/elements/1.1/" xmlns:cc="http://creativecommons.org/ns#" xmlns:rdf="http://www.w3.org/1999/02/22-rdf-syntax-ns#">
   <cc:Work>
    <dc:type rdf:resource="http://purl.org/dc/dcmitype/StillImage"/>
    <dc:date>2024-05-27T15:37:23.501018</dc:date>
    <dc:format>image/svg+xml</dc:format>
    <dc:creator>
     <cc:Agent>
      <dc:title>Matplotlib v3.8.3, https://matplotlib.org/</dc:title>
     </cc:Agent>
    </dc:creator>
   </cc:Work>
  </rdf:RDF>
 </metadata>
 <defs>
  <style type="text/css">*{stroke-linejoin: round; stroke-linecap: butt}</style>
 </defs>
 <g id="figure_1">
  <g id="patch_1">
   <path d="M 0 105.84 
L 254.88 105.84 
L 254.88 0 
L 0 0 
z
" style="fill: #ffffff"/>
  </g>
  <g id="axes_1">
   <g id="patch_2">
    <path d="M 11.673365 74.229526 
L 251.87976 74.229526 
L 251.87976 4.076256 
L 11.673365 4.076256 
z
" style="fill: #ffffff"/>
   </g>
   <g id="matplotlib.axis_1">
    <g id="xtick_1">
     <g id="text_1">
      <!-- TH1 (TdT–) -->
      <g style="fill: #333333" transform="translate(25.921602 96.612494) rotate(-90) scale(0.035 -0.035)">
       <defs>
        <path id="Helvetica-54" d="M 3828 4591 
L 3828 4044 
L 2281 4044 
L 2281 0 
L 1650 0 
L 1650 4044 
L 103 4044 
L 103 4591 
L 3828 4591 
z
" transform="scale(0.015625)"/>
        <path id="Helvetica-48" d="M 503 4591 
L 1131 4591 
L 1131 2694 
L 3519 2694 
L 3519 4591 
L 4147 4591 
L 4147 0 
L 3519 0 
L 3519 2147 
L 1131 2147 
L 1131 0 
L 503 0 
L 503 4591 
z
" transform="scale(0.015625)"/>
        <path id="Helvetica-31" d="M 613 3169 
L 613 3600 
Q 1222 3659 1462 3798 
Q 1703 3938 1822 4456 
L 2266 4456 
L 2266 0 
L 1666 0 
L 1666 3169 
L 613 3169 
z
" transform="scale(0.015625)"/>
        <path id="Helvetica-20" transform="scale(0.015625)"/>
        <path id="Helvetica-28" d="M 1894 4666 
Q 1403 3713 1256 3263 
Q 1034 2578 1034 1681 
Q 1034 775 1288 25 
Q 1444 -438 1903 -1306 
L 1525 -1306 
Q 1069 -594 959 -397 
Q 850 -200 722 138 
Q 547 600 478 1125 
Q 444 1397 444 1644 
Q 444 2569 734 3291 
Q 919 3750 1503 4666 
L 1894 4666 
z
" transform="scale(0.015625)"/>
        <path id="Helvetica-64" d="M 769 1634 
Q 769 1097 997 734 
Q 1225 372 1728 372 
Q 2119 372 2370 708 
Q 2622 1044 2622 1672 
Q 2622 2306 2362 2611 
Q 2103 2916 1722 2916 
Q 1297 2916 1033 2591 
Q 769 2266 769 1634 
z
M 1616 3406 
Q 2000 3406 2259 3244 
Q 2409 3150 2600 2916 
L 2600 4606 
L 3141 4606 
L 3141 0 
L 2634 0 
L 2634 466 
Q 2438 156 2169 18 
Q 1900 -119 1553 -119 
Q 994 -119 584 351 
Q 175 822 175 1603 
Q 175 2334 548 2870 
Q 922 3406 1616 3406 
z
" transform="scale(0.015625)"/>
        <path id="Helvetica-2013" d="M -16 2000 
L 3569 2000 
L 3569 1541 
L -16 1541 
L -16 2000 
z
" transform="scale(0.015625)"/>
        <path id="Helvetica-29" d="M 222 -1306 
Q 719 -338 863 106 
Q 1081 778 1081 1681 
Q 1081 2584 828 3334 
Q 672 3797 213 4666 
L 591 4666 
Q 1072 3897 1173 3717 
Q 1275 3538 1394 3222 
Q 1544 2831 1608 2450 
Q 1672 2069 1672 1716 
Q 1672 791 1378 66 
Q 1194 -400 613 -1306 
L 222 -1306 
z
" transform="scale(0.015625)"/>
       </defs>
       <use xlink:href="#Helvetica-54"/>
       <use xlink:href="#Helvetica-48" x="61.083984"/>
       <use xlink:href="#Helvetica-31" x="133.300781"/>
       <use xlink:href="#Helvetica-20" x="188.916016"/>
       <use xlink:href="#Helvetica-28" x="216.699219"/>
       <use xlink:href="#Helvetica-54" x="250"/>
       <use xlink:href="#Helvetica-64" x="311.083984"/>
       <use xlink:href="#Helvetica-54" x="366.699219"/>
       <use xlink:href="#Helvetica-2013" x="427.783203"/>
       <use xlink:href="#Helvetica-29" x="483.398438"/>
      </g>
     </g>
    </g>
    <g id="xtick_2">
     <g id="text_2">
      <!-- TH1 (TdT+) -->
      <g style="fill: #333333" transform="translate(52.611202 96.710385) rotate(-90) scale(0.035 -0.035)">
       <defs>
        <path id="Helvetica-2b" d="M 288 1369 
L 288 1894 
L 1650 1894 
L 1650 3266 
L 2184 3266 
L 2184 1894 
L 3547 1894 
L 3547 1369 
L 2184 1369 
L 2184 0 
L 1650 0 
L 1650 1369 
L 288 1369 
z
" transform="scale(0.015625)"/>
       </defs>
       <use xlink:href="#Helvetica-54"/>
       <use xlink:href="#Helvetica-48" x="61.083984"/>
       <use xlink:href="#Helvetica-31" x="133.300781"/>
       <use xlink:href="#Helvetica-20" x="188.916016"/>
       <use xlink:href="#Helvetica-28" x="216.699219"/>
       <use xlink:href="#Helvetica-54" x="250"/>
       <use xlink:href="#Helvetica-64" x="311.083984"/>
       <use xlink:href="#Helvetica-54" x="366.699219"/>
       <use xlink:href="#Helvetica-2b" x="427.783203"/>
       <use xlink:href="#Helvetica-29" x="486.181641"/>
      </g>
     </g>
    </g>
    <g id="xtick_3">
     <g id="text_3">
      <!-- Immature TH1 -->
      <g style="fill: #333333" transform="translate(79.28795 100.893432) rotate(-90) scale(0.035 -0.035)">
       <defs>
        <path id="Helvetica-49" d="M 628 4591 
L 1256 4591 
L 1256 0 
L 628 0 
L 628 4591 
z
" transform="scale(0.015625)"/>
        <path id="Helvetica-6d" d="M 413 3347 
L 969 3347 
L 969 2872 
Q 1169 3119 1331 3231 
Q 1609 3422 1963 3422 
Q 2363 3422 2606 3225 
Q 2744 3113 2856 2894 
Q 3044 3163 3297 3292 
Q 3550 3422 3866 3422 
Q 4541 3422 4784 2934 
Q 4916 2672 4916 2228 
L 4916 0 
L 4331 0 
L 4331 2325 
Q 4331 2659 4164 2784 
Q 3997 2909 3756 2909 
Q 3425 2909 3186 2687 
Q 2947 2466 2947 1947 
L 2947 0 
L 2375 0 
L 2375 2184 
Q 2375 2525 2294 2681 
Q 2166 2916 1816 2916 
Q 1497 2916 1236 2669 
Q 975 2422 975 1775 
L 975 0 
L 413 0 
L 413 3347 
z
" transform="scale(0.015625)"/>
        <path id="Helvetica-61" d="M 844 891 
Q 844 647 1022 506 
Q 1200 366 1444 366 
Q 1741 366 2019 503 
Q 2488 731 2488 1250 
L 2488 1703 
Q 2384 1638 2221 1594 
Q 2059 1550 1903 1531 
L 1563 1488 
Q 1256 1447 1103 1359 
Q 844 1213 844 891 
z
M 2206 2028 
Q 2400 2053 2466 2191 
Q 2503 2266 2503 2406 
Q 2503 2694 2298 2823 
Q 2094 2953 1713 2953 
Q 1272 2953 1088 2716 
Q 984 2584 953 2325 
L 428 2325 
Q 444 2944 830 3186 
Q 1216 3428 1725 3428 
Q 2316 3428 2684 3203 
Q 3050 2978 3050 2503 
L 3050 575 
Q 3050 488 3086 434 
Q 3122 381 3238 381 
Q 3275 381 3322 386 
Q 3369 391 3422 400 
L 3422 -16 
Q 3291 -53 3222 -62 
Q 3153 -72 3034 -72 
Q 2744 -72 2613 134 
Q 2544 244 2516 444 
Q 2344 219 2022 53 
Q 1700 -113 1313 -113 
Q 847 -113 551 170 
Q 256 453 256 878 
Q 256 1344 547 1600 
Q 838 1856 1309 1916 
L 2206 2028 
z
M 1741 3428 
L 1741 3428 
z
" transform="scale(0.015625)"/>
        <path id="Helvetica-74" d="M 525 4281 
L 1094 4281 
L 1094 3347 
L 1628 3347 
L 1628 2888 
L 1094 2888 
L 1094 703 
Q 1094 528 1213 469 
Q 1278 434 1431 434 
Q 1472 434 1519 436 
Q 1566 438 1628 444 
L 1628 0 
Q 1531 -28 1426 -40 
Q 1322 -53 1200 -53 
Q 806 -53 665 148 
Q 525 350 525 672 
L 525 2888 
L 72 2888 
L 72 3347 
L 525 3347 
L 525 4281 
z
" transform="scale(0.015625)"/>
        <path id="Helvetica-75" d="M 975 3347 
L 975 1125 
Q 975 869 1056 706 
Q 1206 406 1616 406 
Q 2203 406 2416 931 
Q 2531 1213 2531 1703 
L 2531 3347 
L 3094 3347 
L 3094 0 
L 2563 0 
L 2569 494 
Q 2459 303 2297 172 
Q 1975 -91 1516 -91 
Q 800 -91 541 388 
Q 400 644 400 1072 
L 400 3347 
L 975 3347 
z
M 1747 3428 
L 1747 3428 
z
" transform="scale(0.015625)"/>
        <path id="Helvetica-72" d="M 428 3347 
L 963 3347 
L 963 2769 
Q 1028 2938 1284 3180 
Q 1541 3422 1875 3422 
Q 1891 3422 1928 3419 
Q 1966 3416 2056 3406 
L 2056 2813 
Q 2006 2822 1964 2825 
Q 1922 2828 1872 2828 
Q 1447 2828 1219 2554 
Q 991 2281 991 1925 
L 991 0 
L 428 0 
L 428 3347 
z
" transform="scale(0.015625)"/>
        <path id="Helvetica-65" d="M 1806 3422 
Q 2163 3422 2497 3255 
Q 2831 3088 3006 2822 
Q 3175 2569 3231 2231 
Q 3281 2000 3281 1494 
L 828 1494 
Q 844 984 1069 676 
Q 1294 369 1766 369 
Q 2206 369 2469 659 
Q 2619 828 2681 1050 
L 3234 1050 
Q 3213 866 3089 639 
Q 2966 413 2813 269 
Q 2556 19 2178 -69 
Q 1975 -119 1719 -119 
Q 1094 -119 659 336 
Q 225 791 225 1609 
Q 225 2416 662 2919 
Q 1100 3422 1806 3422 
z
M 2703 1941 
Q 2669 2306 2544 2525 
Q 2313 2931 1772 2931 
Q 1384 2931 1121 2651 
Q 859 2372 844 1941 
L 2703 1941 
z
M 1753 3428 
L 1753 3428 
z
" transform="scale(0.015625)"/>
       </defs>
       <use xlink:href="#Helvetica-49"/>
       <use xlink:href="#Helvetica-6d" x="27.783203"/>
       <use xlink:href="#Helvetica-6d" x="111.083984"/>
       <use xlink:href="#Helvetica-61" x="194.384766"/>
       <use xlink:href="#Helvetica-74" x="250"/>
       <use xlink:href="#Helvetica-75" x="277.783203"/>
       <use xlink:href="#Helvetica-72" x="333.398438"/>
       <use xlink:href="#Helvetica-65" x="366.699219"/>
       <use xlink:href="#Helvetica-20" x="422.314453"/>
       <use xlink:href="#Helvetica-54" x="450.097656"/>
       <use xlink:href="#Helvetica-48" x="511.181641"/>
       <use xlink:href="#Helvetica-31" x="583.398438"/>
      </g>
     </g>
    </g>
    <g id="xtick_4">
     <g id="text_4">
      <!-- TH2 (TdT–) -->
      <g style="fill: #333333" transform="translate(105.990401 96.612494) rotate(-90) scale(0.035 -0.035)">
       <defs>
        <path id="Helvetica-32" d="M 200 0 
Q 231 578 439 1006 
Q 647 1434 1250 1784 
L 1850 2131 
Q 2253 2366 2416 2531 
Q 2672 2791 2672 3125 
Q 2672 3516 2437 3745 
Q 2203 3975 1813 3975 
Q 1234 3975 1013 3538 
Q 894 3303 881 2888 
L 309 2888 
Q 319 3472 525 3841 
Q 891 4491 1816 4491 
Q 2584 4491 2939 4075 
Q 3294 3659 3294 3150 
Q 3294 2613 2916 2231 
Q 2697 2009 2131 1694 
L 1703 1456 
Q 1397 1288 1222 1134 
Q 909 863 828 531 
L 3272 531 
L 3272 0 
L 200 0 
z
" transform="scale(0.015625)"/>
       </defs>
       <use xlink:href="#Helvetica-54"/>
       <use xlink:href="#Helvetica-48" x="61.083984"/>
       <use xlink:href="#Helvetica-32" x="133.300781"/>
       <use xlink:href="#Helvetica-20" x="188.916016"/>
       <use xlink:href="#Helvetica-28" x="216.699219"/>
       <use xlink:href="#Helvetica-54" x="250"/>
       <use xlink:href="#Helvetica-64" x="311.083984"/>
       <use xlink:href="#Helvetica-54" x="366.699219"/>
       <use xlink:href="#Helvetica-2013" x="427.783203"/>
       <use xlink:href="#Helvetica-29" x="483.398438"/>
      </g>
     </g>
    </g>
    <g id="xtick_5">
     <g id="text_5">
      <!-- TH2 (TdT+) -->
      <g style="fill: #333333" transform="translate(132.68 96.710385) rotate(-90) scale(0.035 -0.035)">
       <use xlink:href="#Helvetica-54"/>
       <use xlink:href="#Helvetica-48" x="61.083984"/>
       <use xlink:href="#Helvetica-32" x="133.300781"/>
       <use xlink:href="#Helvetica-20" x="188.916016"/>
       <use xlink:href="#Helvetica-28" x="216.699219"/>
       <use xlink:href="#Helvetica-54" x="250"/>
       <use xlink:href="#Helvetica-64" x="311.083984"/>
       <use xlink:href="#Helvetica-54" x="366.699219"/>
       <use xlink:href="#Helvetica-2b" x="427.783203"/>
       <use xlink:href="#Helvetica-29" x="486.181641"/>
      </g>
     </g>
    </g>
    <g id="xtick_6">
     <g id="text_6">
      <!-- Immature TH2 -->
      <g style="fill: #333333" transform="translate(159.356748 100.893432) rotate(-90) scale(0.035 -0.035)">
       <use xlink:href="#Helvetica-49"/>
       <use xlink:href="#Helvetica-6d" x="27.783203"/>
       <use xlink:href="#Helvetica-6d" x="111.083984"/>
       <use xlink:href="#Helvetica-61" x="194.384766"/>
       <use xlink:href="#Helvetica-74" x="250"/>
       <use xlink:href="#Helvetica-75" x="277.783203"/>
       <use xlink:href="#Helvetica-72" x="333.398438"/>
       <use xlink:href="#Helvetica-65" x="366.699219"/>
       <use xlink:href="#Helvetica-20" x="422.314453"/>
       <use xlink:href="#Helvetica-54" x="450.097656"/>
       <use xlink:href="#Helvetica-48" x="511.181641"/>
       <use xlink:href="#Helvetica-32" x="583.398438"/>
      </g>
     </g>
    </g>
    <g id="xtick_7">
     <g id="text_7">
      <!-- TH17 (TdT–) -->
      <g style="fill: #333333" transform="translate(186.059199 98.558823) rotate(-90) scale(0.035 -0.035)">
       <defs>
        <path id="Helvetica-37" d="M 3347 4400 
L 3347 3909 
Q 3131 3700 2773 3181 
Q 2416 2663 2141 2063 
Q 1869 1478 1728 997 
Q 1638 688 1494 0 
L 872 0 
Q 1084 1281 1809 2550 
Q 2238 3294 2709 3834 
L 234 3834 
L 234 4400 
L 3347 4400 
z
" transform="scale(0.015625)"/>
       </defs>
       <use xlink:href="#Helvetica-54"/>
       <use xlink:href="#Helvetica-48" x="61.083984"/>
       <use xlink:href="#Helvetica-31" x="133.300781"/>
       <use xlink:href="#Helvetica-37" x="188.916016"/>
       <use xlink:href="#Helvetica-20" x="244.53125"/>
       <use xlink:href="#Helvetica-28" x="272.314453"/>
       <use xlink:href="#Helvetica-54" x="305.615234"/>
       <use xlink:href="#Helvetica-64" x="366.699219"/>
       <use xlink:href="#Helvetica-54" x="422.314453"/>
       <use xlink:href="#Helvetica-2013" x="483.398438"/>
       <use xlink:href="#Helvetica-29" x="539.013672"/>
      </g>
     </g>
    </g>
    <g id="xtick_8">
     <g id="text_8">
      <!-- TH17 (TdT+) -->
      <g style="fill: #333333" transform="translate(212.748798 98.656713) rotate(-90) scale(0.035 -0.035)">
       <use xlink:href="#Helvetica-54"/>
       <use xlink:href="#Helvetica-48" x="61.083984"/>
       <use xlink:href="#Helvetica-31" x="133.300781"/>
       <use xlink:href="#Helvetica-37" x="188.916016"/>
       <use xlink:href="#Helvetica-20" x="244.53125"/>
       <use xlink:href="#Helvetica-28" x="272.314453"/>
       <use xlink:href="#Helvetica-54" x="305.615234"/>
       <use xlink:href="#Helvetica-64" x="366.699219"/>
       <use xlink:href="#Helvetica-54" x="422.314453"/>
       <use xlink:href="#Helvetica-2b" x="483.398438"/>
       <use xlink:href="#Helvetica-29" x="541.796875"/>
      </g>
     </g>
    </g>
    <g id="xtick_9">
     <g id="text_9">
      <!-- Immature TH17 -->
      <g style="fill: #333333" transform="translate(239.425546 102.83976) rotate(-90) scale(0.035 -0.035)">
       <use xlink:href="#Helvetica-49"/>
       <use xlink:href="#Helvetica-6d" x="27.783203"/>
       <use xlink:href="#Helvetica-6d" x="111.083984"/>
       <use xlink:href="#Helvetica-61" x="194.384766"/>
       <use xlink:href="#Helvetica-74" x="250"/>
       <use xlink:href="#Helvetica-75" x="277.783203"/>
       <use xlink:href="#Helvetica-72" x="333.398438"/>
       <use xlink:href="#Helvetica-65" x="366.699219"/>
       <use xlink:href="#Helvetica-20" x="422.314453"/>
       <use xlink:href="#Helvetica-54" x="450.097656"/>
       <use xlink:href="#Helvetica-48" x="511.181641"/>
       <use xlink:href="#Helvetica-31" x="583.398438"/>
       <use xlink:href="#Helvetica-37" x="639.013672"/>
      </g>
     </g>
    </g>
   </g>
   <g id="matplotlib.axis_2">
    <g id="ytick_1">
     <g id="line2d_1">
      <defs>
       <path id="m8e1aa98d69" d="M 0 0 
L -1 0 
" style="stroke: #777777; stroke-width: 0.5"/>
      </defs>
      <g>
       <use xlink:href="#m8e1aa98d69" x="11.673365" y="62.561683" style="fill: #777777; stroke: #777777; stroke-width: 0.5"/>
      </g>
     </g>
     <g id="text_10">
      <!-- 0 -->
      <g style="fill: #333333" transform="translate(8.005084 63.637699) scale(0.03 -0.03)">
       <defs>
        <path id="Helvetica-30" d="M 1731 4475 
Q 2600 4475 2988 3759 
Q 3288 3206 3288 2244 
Q 3288 1331 3016 734 
Q 2622 -122 1728 -122 
Q 922 -122 528 578 
Q 200 1163 200 2147 
Q 200 2909 397 3456 
Q 766 4475 1731 4475 
z
M 1725 391 
Q 2163 391 2422 778 
Q 2681 1166 2681 2222 
Q 2681 2984 2493 3476 
Q 2306 3969 1766 3969 
Q 1269 3969 1039 3501 
Q 809 3034 809 2125 
Q 809 1441 956 1025 
Q 1181 391 1725 391 
z
" transform="scale(0.015625)"/>
       </defs>
       <use xlink:href="#Helvetica-30"/>
      </g>
     </g>
    </g>
    <g id="ytick_2">
     <g id="line2d_2">
      <g>
       <use xlink:href="#m8e1aa98d69" x="11.673365" y="47.940326" style="fill: #777777; stroke: #777777; stroke-width: 0.5"/>
      </g>
     </g>
     <g id="text_11">
      <!-- 500 -->
      <g style="fill: #333333" transform="translate(4.668521 49.016342) scale(0.03 -0.03)">
       <defs>
        <path id="Helvetica-35" d="M 791 1141 
Q 847 659 1238 475 
Q 1438 381 1700 381 
Q 2200 381 2440 700 
Q 2681 1019 2681 1406 
Q 2681 1875 2395 2131 
Q 2109 2388 1709 2388 
Q 1419 2388 1211 2275 
Q 1003 2163 856 1963 
L 369 1991 
L 709 4400 
L 3034 4400 
L 3034 3856 
L 1131 3856 
L 941 2613 
Q 1097 2731 1238 2791 
Q 1488 2894 1816 2894 
Q 2431 2894 2859 2497 
Q 3288 2100 3288 1491 
Q 3288 856 2895 371 
Q 2503 -113 1644 -113 
Q 1097 -113 676 195 
Q 256 503 206 1141 
L 791 1141 
z
" transform="scale(0.015625)"/>
       </defs>
       <use xlink:href="#Helvetica-35"/>
       <use xlink:href="#Helvetica-30" x="55.615234"/>
       <use xlink:href="#Helvetica-30" x="111.230469"/>
      </g>
     </g>
    </g>
    <g id="ytick_3">
     <g id="line2d_3">
      <g>
       <use xlink:href="#m8e1aa98d69" x="11.673365" y="33.318969" style="fill: #777777; stroke: #777777; stroke-width: 0.5"/>
      </g>
     </g>
     <g id="text_12">
      <!-- 1000 -->
      <g style="fill: #333333" transform="translate(3.00024 34.394985) scale(0.03 -0.03)">
       <use xlink:href="#Helvetica-31"/>
       <use xlink:href="#Helvetica-30" x="55.615234"/>
       <use xlink:href="#Helvetica-30" x="111.230469"/>
       <use xlink:href="#Helvetica-30" x="166.845703"/>
      </g>
     </g>
    </g>
    <g id="ytick_4">
     <g id="line2d_4">
      <g>
       <use xlink:href="#m8e1aa98d69" x="11.673365" y="18.697612" style="fill: #777777; stroke: #777777; stroke-width: 0.5"/>
      </g>
     </g>
     <g id="text_13">
      <!-- 1500 -->
      <g style="fill: #333333" transform="translate(3.00024 19.773628) scale(0.03 -0.03)">
       <use xlink:href="#Helvetica-31"/>
       <use xlink:href="#Helvetica-35" x="55.615234"/>
       <use xlink:href="#Helvetica-30" x="111.230469"/>
       <use xlink:href="#Helvetica-30" x="166.845703"/>
      </g>
     </g>
    </g>
    <g id="ytick_5">
     <g id="line2d_5">
      <g>
       <use xlink:href="#m8e1aa98d69" x="11.673365" y="4.076256" style="fill: #777777; stroke: #777777; stroke-width: 0.5"/>
      </g>
     </g>
     <g id="text_14">
      <!-- 2000 -->
      <g style="fill: #333333" transform="translate(3.00024 5.152271) scale(0.03 -0.03)">
       <use xlink:href="#Helvetica-32"/>
       <use xlink:href="#Helvetica-30" x="55.615234"/>
       <use xlink:href="#Helvetica-30" x="111.230469"/>
       <use xlink:href="#Helvetica-30" x="166.845703"/>
      </g>
     </g>
    </g>
   </g>
   <g id="PolyCollection_1">
    <defs>
     <path id="m16a1ff3466" d="M 25.792707 -43.161584 
L 24.243623 -43.161584 
L 24.009036 -43.168738 
L 23.721916 -43.175892 
L 23.376511 -43.183046 
L 22.968249 -43.1902 
L 22.494323 -43.197354 
L 21.954298 -43.204508 
L 21.350669 -43.211662 
L 20.68933 -43.218816 
L 19.979871 -43.22597 
L 19.235652 -43.233123 
L 18.473622 -43.240277 
L 17.713836 -43.247431 
L 16.978685 -43.254585 
L 16.291866 -43.261739 
L 15.677147 -43.268893 
L 15.157021 -43.276047 
L 14.751349 -43.283201 
L 14.476102 -43.290355 
L 14.342325 -43.297509 
L 14.3554 -43.304663 
L 14.514688 -43.311816 
L 14.813583 -43.31897 
L 15.239963 -43.326124 
L 15.777003 -43.333278 
L 16.404274 -43.340432 
L 17.099023 -43.347586 
L 17.837528 -43.35474 
L 18.596418 -43.361894 
L 19.353847 -43.369048 
L 20.090465 -43.376202 
L 20.790111 -43.383356 
L 21.440223 -43.39051 
L 22.031966 -43.397663 
L 22.560105 -43.404817 
L 23.022674 -43.411971 
L 23.420503 -43.419125 
L 23.756651 -43.426279 
L 24.035817 -43.433433 
L 24.263772 -43.440587 
L 24.446842 -43.447741 
L 24.591476 -43.454895 
L 24.703911 -43.462049 
L 24.789928 -43.469203 
L 24.854697 -43.476357 
L 24.902703 -43.48351 
L 24.937724 -43.490664 
L 24.962865 -43.497818 
L 24.980612 -43.504972 
L 24.992907 -43.512126 
L 25.001228 -43.51928 
L 25.006667 -43.526434 
L 25.009999 -43.533588 
L 25.011741 -43.540742 
L 25.012198 -43.547896 
L 25.011497 -43.55505 
L 25.009609 -43.562203 
L 25.006364 -43.569357 
L 25.001453 -43.576511 
L 24.99443 -43.583665 
L 24.984712 -43.590819 
L 24.971577 -43.597973 
L 24.954173 -43.605127 
L 24.931537 -43.612281 
L 24.902618 -43.619435 
L 24.866332 -43.626589 
L 24.821618 -43.633743 
L 24.767528 -43.640897 
L 24.703316 -43.64805 
L 24.62855 -43.655204 
L 24.543217 -43.662358 
L 24.447828 -43.669512 
L 24.343494 -43.676666 
L 24.231973 -43.68382 
L 24.115678 -43.690974 
L 23.997629 -43.698128 
L 23.881345 -43.705282 
L 23.770695 -43.712436 
L 23.669685 -43.71959 
L 23.582232 -43.726744 
L 23.511907 -43.733897 
L 23.461697 -43.741051 
L 23.433796 -43.748205 
L 23.429442 -43.755359 
L 23.44883 -43.762513 
L 23.491097 -43.769667 
L 23.554382 -43.776821 
L 23.635966 -43.783975 
L 23.732464 -43.791129 
L 23.840057 -43.798283 
L 23.954744 -43.805437 
L 24.072578 -43.812591 
L 24.189893 -43.819744 
L 24.303471 -43.826898 
L 24.41067 -43.834052 
L 24.50949 -43.841206 
L 24.598586 -43.84836 
L 24.677237 -43.855514 
L 24.745275 -43.862668 
L 24.802992 -43.869822 
L 25.233338 -43.869822 
L 25.233338 -43.869822 
L 25.291055 -43.862668 
L 25.359093 -43.855514 
L 25.437744 -43.84836 
L 25.52684 -43.841206 
L 25.625659 -43.834052 
L 25.732858 -43.826898 
L 25.846436 -43.819744 
L 25.963751 -43.812591 
L 26.081586 -43.805437 
L 26.196272 -43.798283 
L 26.303866 -43.791129 
L 26.400364 -43.783975 
L 26.481948 -43.776821 
L 26.545232 -43.769667 
L 26.587499 -43.762513 
L 26.606888 -43.755359 
L 26.602534 -43.748205 
L 26.574632 -43.741051 
L 26.524423 -43.733897 
L 26.454097 -43.726744 
L 26.366644 -43.71959 
L 26.265635 -43.712436 
L 26.154984 -43.705282 
L 26.038701 -43.698128 
L 25.920651 -43.690974 
L 25.804357 -43.68382 
L 25.692836 -43.676666 
L 25.588501 -43.669512 
L 25.493112 -43.662358 
L 25.40778 -43.655204 
L 25.333013 -43.64805 
L 25.268801 -43.640897 
L 25.214711 -43.633743 
L 25.169998 -43.626589 
L 25.133711 -43.619435 
L 25.104793 -43.612281 
L 25.082156 -43.605127 
L 25.064753 -43.597973 
L 25.051618 -43.590819 
L 25.041899 -43.583665 
L 25.034876 -43.576511 
L 25.029965 -43.569357 
L 25.02672 -43.562203 
L 25.024832 -43.55505 
L 25.024131 -43.547896 
L 25.024588 -43.540742 
L 25.02633 -43.533588 
L 25.029663 -43.526434 
L 25.035102 -43.51928 
L 25.043423 -43.512126 
L 25.055717 -43.504972 
L 25.073464 -43.497818 
L 25.098605 -43.490664 
L 25.133627 -43.48351 
L 25.181632 -43.476357 
L 25.246402 -43.469203 
L 25.332419 -43.462049 
L 25.444854 -43.454895 
L 25.589488 -43.447741 
L 25.772557 -43.440587 
L 26.000512 -43.433433 
L 26.279679 -43.426279 
L 26.615826 -43.419125 
L 27.013655 -43.411971 
L 27.476225 -43.404817 
L 28.004364 -43.397663 
L 28.596107 -43.39051 
L 29.246219 -43.383356 
L 29.945864 -43.376202 
L 30.682482 -43.369048 
L 31.439912 -43.361894 
L 32.198801 -43.35474 
L 32.937307 -43.347586 
L 33.632056 -43.340432 
L 34.259327 -43.333278 
L 34.796367 -43.326124 
L 35.222746 -43.31897 
L 35.521642 -43.311816 
L 35.68093 -43.304663 
L 35.694004 -43.297509 
L 35.560228 -43.290355 
L 35.284981 -43.283201 
L 34.879308 -43.276047 
L 34.359182 -43.268893 
L 33.744463 -43.261739 
L 33.057644 -43.254585 
L 32.322493 -43.247431 
L 31.562708 -43.240277 
L 30.800678 -43.233123 
L 30.056459 -43.22597 
L 29.346999 -43.218816 
L 28.685661 -43.211662 
L 28.082032 -43.204508 
L 27.542006 -43.197354 
L 27.06808 -43.1902 
L 26.659818 -43.183046 
L 26.314414 -43.175892 
L 26.027293 -43.168738 
L 25.792707 -43.161584 
z
" style="stroke: #595959; stroke-width: 0.15"/>
    </defs>
    <g clip-path="url(#p68c0212a78)">
     <use xlink:href="#m16a1ff3466" x="0" y="105.84" style="fill: #eab390; stroke: #595959; stroke-width: 0.15"/>
    </g>
   </g>
   <g id="PolyCollection_2">
    <defs>
     <path id="m98835f403d" d="M 52.872853 -43.275273 
L 50.542675 -43.275273 
L 50.232489 -43.275457 
L 49.866185 -43.275641 
L 49.441342 -43.275825 
L 48.957588 -43.276009 
L 48.417034 -43.276193 
L 47.824581 -43.276377 
L 47.188071 -43.276561 
L 46.51822 -43.276745 
L 45.828319 -43.276928 
L 45.13369 -43.277112 
L 44.450937 -43.277296 
L 43.797017 -43.27748 
L 43.188235 -43.277664 
L 42.639234 -43.277848 
L 42.162093 -43.278032 
L 41.765618 -43.278216 
L 41.454898 -43.2784 
L 41.231176 -43.278584 
L 41.092045 -43.278768 
L 41.031924 -43.278952 
L 41.042768 -43.279136 
L 41.114906 -43.27932 
L 41.237923 -43.279504 
L 41.40147 -43.279688 
L 41.595924 -43.279872 
L 41.812848 -43.280055 
L 42.045222 -43.280239 
L 42.287458 -43.280423 
L 42.535237 -43.280607 
L 42.785235 -43.280791 
L 43.034805 -43.280975 
L 43.281678 -43.281159 
L 43.523752 -43.281343 
L 43.758973 -43.281527 
L 43.985357 -43.281711 
L 44.201102 -43.281895 
L 44.404779 -43.282079 
L 44.595559 -43.282263 
L 44.773421 -43.282447 
L 44.939303 -43.282631 
L 45.095176 -43.282815 
L 45.244002 -43.282998 
L 45.3896 -43.283182 
L 45.536402 -43.283366 
L 45.689156 -43.28355 
L 45.852567 -43.283734 
L 46.030941 -43.283918 
L 46.227849 -43.284102 
L 46.44583 -43.284286 
L 46.686183 -43.28447 
L 46.948831 -43.284654 
L 47.232289 -43.284838 
L 47.533717 -43.285022 
L 47.849069 -43.285206 
L 48.173301 -43.28539 
L 48.50064 -43.285574 
L 48.824871 -43.285758 
L 49.139639 -43.285942 
L 49.438727 -43.286125 
L 49.716306 -43.286309 
L 49.967131 -43.286493 
L 50.186689 -43.286677 
L 50.371301 -43.286861 
L 50.518171 -43.287045 
L 50.625412 -43.287229 
L 50.692052 -43.287413 
L 50.718031 -43.287597 
L 50.704205 -43.287781 
L 50.652365 -43.287965 
L 50.565254 -43.288149 
L 50.446585 -43.288333 
L 50.301046 -43.288517 
L 50.134267 -43.288701 
L 49.952747 -43.288885 
L 49.763706 -43.289068 
L 49.574873 -43.289252 
L 49.394205 -43.289436 
L 49.229545 -43.28962 
L 49.088246 -43.289804 
L 48.976783 -43.289988 
L 48.90039 -43.290172 
L 48.862762 -43.290356 
L 48.865836 -43.29054 
L 48.909697 -43.290724 
L 48.992597 -43.290908 
L 49.111102 -43.291092 
L 49.260359 -43.291276 
L 49.434432 -43.29146 
L 49.626713 -43.291644 
L 49.830335 -43.291828 
L 50.038581 -43.292012 
L 50.24524 -43.292195 
L 50.444889 -43.292379 
L 50.633093 -43.292563 
L 50.806508 -43.292747 
L 50.962898 -43.292931 
L 51.101076 -43.293115 
L 51.220785 -43.293299 
L 51.322541 -43.293483 
L 52.092988 -43.293483 
L 52.092988 -43.293483 
L 52.194743 -43.293299 
L 52.314453 -43.293115 
L 52.45263 -43.292931 
L 52.60902 -43.292747 
L 52.782435 -43.292563 
L 52.970639 -43.292379 
L 53.170289 -43.292195 
L 53.376947 -43.292012 
L 53.585194 -43.291828 
L 53.788815 -43.291644 
L 53.981096 -43.29146 
L 54.15517 -43.291276 
L 54.304426 -43.291092 
L 54.422932 -43.290908 
L 54.505831 -43.290724 
L 54.549692 -43.29054 
L 54.552767 -43.290356 
L 54.515138 -43.290172 
L 54.438746 -43.289988 
L 54.327282 -43.289804 
L 54.185983 -43.28962 
L 54.021324 -43.289436 
L 53.840655 -43.289252 
L 53.651822 -43.289068 
L 53.462781 -43.288885 
L 53.281261 -43.288701 
L 53.114483 -43.288517 
L 52.968943 -43.288333 
L 52.850274 -43.288149 
L 52.763163 -43.287965 
L 52.711323 -43.287781 
L 52.697498 -43.287597 
L 52.723476 -43.287413 
L 52.790116 -43.287229 
L 52.897358 -43.287045 
L 53.044228 -43.286861 
L 53.228839 -43.286677 
L 53.448398 -43.286493 
L 53.699222 -43.286309 
L 53.976801 -43.286125 
L 54.27589 -43.285942 
L 54.590658 -43.285758 
L 54.914889 -43.285574 
L 55.242227 -43.28539 
L 55.56646 -43.285206 
L 55.881811 -43.285022 
L 56.18324 -43.284838 
L 56.466697 -43.284654 
L 56.729345 -43.28447 
L 56.969698 -43.284286 
L 57.18768 -43.284102 
L 57.384587 -43.283918 
L 57.562962 -43.283734 
L 57.726372 -43.28355 
L 57.879126 -43.283366 
L 58.025929 -43.283182 
L 58.171526 -43.282998 
L 58.320352 -43.282815 
L 58.476225 -43.282631 
L 58.642107 -43.282447 
L 58.819969 -43.282263 
L 59.010749 -43.282079 
L 59.214427 -43.281895 
L 59.430171 -43.281711 
L 59.656555 -43.281527 
L 59.891777 -43.281343 
L 60.13385 -43.281159 
L 60.380724 -43.280975 
L 60.630293 -43.280791 
L 60.880291 -43.280607 
L 61.12807 -43.280423 
L 61.370306 -43.280239 
L 61.60268 -43.280055 
L 61.819604 -43.279872 
L 62.014058 -43.279688 
L 62.177605 -43.279504 
L 62.300623 -43.27932 
L 62.372761 -43.279136 
L 62.383604 -43.278952 
L 62.323483 -43.278768 
L 62.184352 -43.278584 
L 61.960631 -43.2784 
L 61.64991 -43.278216 
L 61.253435 -43.278032 
L 60.776295 -43.277848 
L 60.227294 -43.277664 
L 59.618511 -43.27748 
L 58.964591 -43.277296 
L 58.281838 -43.277112 
L 57.58721 -43.276928 
L 56.897308 -43.276745 
L 56.227457 -43.276561 
L 55.590948 -43.276377 
L 54.998495 -43.276193 
L 54.45794 -43.276009 
L 53.974187 -43.275825 
L 53.549343 -43.275641 
L 53.183039 -43.275457 
L 52.872853 -43.275273 
z
" style="stroke: #595959; stroke-width: 0.15"/>
    </defs>
    <g clip-path="url(#p68c0212a78)">
     <use xlink:href="#m98835f403d" x="0" y="105.84" style="fill: #edbea0; stroke: #595959; stroke-width: 0.15"/>
    </g>
   </g>
   <g id="PolyCollection_3">
    <defs>
     <path id="mdd138377c9" d="M 78.842241 -43.27515 
L 77.952487 -43.27515 
L 77.811143 -43.275348 
L 77.635245 -43.275547 
L 77.419721 -43.275745 
L 77.159727 -43.275944 
L 76.850962 -43.276142 
L 76.490015 -43.276341 
L 76.074731 -43.276539 
L 75.604574 -43.276738 
L 75.080947 -43.276936 
L 74.507463 -43.277135 
L 73.890117 -43.277333 
L 73.237342 -43.277532 
L 72.559948 -43.27773 
L 71.870901 -43.277929 
L 71.184982 -43.278127 
L 70.518301 -43.278326 
L 69.887706 -43.278524 
L 69.310105 -43.278723 
L 68.801741 -43.278921 
L 68.377441 -43.27912 
L 68.04991 -43.279318 
L 67.82907 -43.279517 
L 67.721524 -43.279715 
L 67.730144 -43.279914 
L 67.853843 -43.280112 
L 68.08753 -43.280311 
L 68.422277 -43.280509 
L 68.845688 -43.280708 
L 69.342468 -43.280906 
L 69.895151 -43.281105 
L 70.484973 -43.281303 
L 71.092812 -43.281502 
L 71.700153 -43.2817 
L 72.29001 -43.281899 
L 72.847744 -43.282097 
L 73.361709 -43.282296 
L 73.823702 -43.282494 
L 74.229159 -43.282693 
L 74.577119 -43.282891 
L 74.869933 -43.28309 
L 75.112775 -43.283288 
L 75.312986 -43.283487 
L 75.479316 -43.283685 
L 75.621125 -43.283884 
L 75.747618 -43.284082 
L 75.867168 -43.284281 
L 75.986778 -43.284479 
L 76.11171 -43.284678 
L 76.245309 -43.284876 
L 76.388998 -43.285075 
L 76.542442 -43.285273 
L 76.703831 -43.285472 
L 76.870247 -43.28567 
L 77.038071 -43.285869 
L 77.203376 -43.286067 
L 77.362276 -43.286266 
L 77.511207 -43.286464 
L 77.647113 -43.286663 
L 77.767547 -43.286861 
L 77.870684 -43.28706 
L 77.955268 -43.287258 
L 78.020515 -43.287457 
L 78.065989 -43.287655 
L 78.091485 -43.287854 
L 78.096935 -43.288052 
L 78.082346 -43.288251 
L 78.047796 -43.288449 
L 77.993477 -43.288648 
L 77.91978 -43.288846 
L 77.827424 -43.289044 
L 77.7176 -43.289243 
L 77.592104 -43.289441 
L 77.453462 -43.28964 
L 77.304985 -43.289838 
L 77.150778 -43.290037 
L 76.995653 -43.290235 
L 76.844963 -43.290434 
L 76.704362 -43.290632 
L 76.5795 -43.290831 
L 76.47567 -43.291029 
L 76.397467 -43.291228 
L 76.348462 -43.291426 
L 76.33094 -43.291625 
L 76.345734 -43.291823 
L 76.392162 -43.292022 
L 76.468083 -43.29222 
L 76.570059 -43.292419 
L 76.693621 -43.292617 
L 76.833588 -43.292816 
L 76.984429 -43.293014 
L 77.140619 -43.293213 
L 77.296967 -43.293411 
L 77.448883 -43.29361 
L 77.592569 -43.293808 
L 77.725133 -43.294007 
L 77.844613 -43.294205 
L 77.949942 -43.294404 
L 78.040845 -43.294602 
L 78.117707 -43.294801 
L 78.67702 -43.294801 
L 78.67702 -43.294801 
L 78.753882 -43.294602 
L 78.844785 -43.294404 
L 78.950114 -43.294205 
L 79.069594 -43.294007 
L 79.202158 -43.293808 
L 79.345844 -43.29361 
L 79.49776 -43.293411 
L 79.654108 -43.293213 
L 79.810298 -43.293014 
L 79.961139 -43.292816 
L 80.101106 -43.292617 
L 80.224668 -43.292419 
L 80.326645 -43.29222 
L 80.402565 -43.292022 
L 80.448993 -43.291823 
L 80.463787 -43.291625 
L 80.446265 -43.291426 
L 80.39726 -43.291228 
L 80.319057 -43.291029 
L 80.215228 -43.290831 
L 80.090365 -43.290632 
L 79.949765 -43.290434 
L 79.799075 -43.290235 
L 79.643949 -43.290037 
L 79.489742 -43.289838 
L 79.341266 -43.28964 
L 79.202623 -43.289441 
L 79.077128 -43.289243 
L 78.967303 -43.289044 
L 78.874948 -43.288846 
L 78.801251 -43.288648 
L 78.746931 -43.288449 
L 78.712382 -43.288251 
L 78.697792 -43.288052 
L 78.703242 -43.287854 
L 78.728739 -43.287655 
L 78.774213 -43.287457 
L 78.839459 -43.287258 
L 78.924044 -43.28706 
L 79.02718 -43.286861 
L 79.147614 -43.286663 
L 79.28352 -43.286464 
L 79.432451 -43.286266 
L 79.591351 -43.286067 
L 79.756656 -43.285869 
L 79.92448 -43.28567 
L 80.090897 -43.285472 
L 80.252285 -43.285273 
L 80.405729 -43.285075 
L 80.549419 -43.284876 
L 80.683017 -43.284678 
L 80.80795 -43.284479 
L 80.927559 -43.284281 
L 81.047109 -43.284082 
L 81.173602 -43.283884 
L 81.315411 -43.283685 
L 81.481741 -43.283487 
L 81.681953 -43.283288 
L 81.924795 -43.28309 
L 82.217608 -43.282891 
L 82.565568 -43.282693 
L 82.971025 -43.282494 
L 83.433018 -43.282296 
L 83.946984 -43.282097 
L 84.504717 -43.281899 
L 85.094575 -43.2817 
L 85.701915 -43.281502 
L 86.309754 -43.281303 
L 86.899576 -43.281105 
L 87.45226 -43.280906 
L 87.949039 -43.280708 
L 88.37245 -43.280509 
L 88.707198 -43.280311 
L 88.940885 -43.280112 
L 89.064583 -43.279914 
L 89.073203 -43.279715 
L 88.965657 -43.279517 
L 88.744817 -43.279318 
L 88.417286 -43.27912 
L 87.992987 -43.278921 
L 87.484622 -43.278723 
L 86.907022 -43.278524 
L 86.276427 -43.278326 
L 85.609746 -43.278127 
L 84.923827 -43.277929 
L 84.23478 -43.27773 
L 83.557385 -43.277532 
L 82.90461 -43.277333 
L 82.287264 -43.277135 
L 81.71378 -43.276936 
L 81.190154 -43.276738 
L 80.719996 -43.276539 
L 80.304712 -43.276341 
L 79.943765 -43.276142 
L 79.635 -43.275944 
L 79.375006 -43.275745 
L 79.159482 -43.275547 
L 78.983585 -43.275348 
L 78.842241 -43.27515 
z
" style="stroke: #595959; stroke-width: 0.15"/>
    </defs>
    <g clip-path="url(#p68c0212a78)">
     <use xlink:href="#mdd138377c9" x="0" y="105.84" style="fill: #f0c9b0; stroke: #595959; stroke-width: 0.15"/>
    </g>
   </g>
   <g id="PolyCollection_4">
    <defs>
     <path id="m001c5bbd75" d="M 105.417822 -37.67037 
L 104.756104 -37.67037 
L 104.654071 -38.080237 
L 104.52924 -38.490104 
L 104.379173 -38.89997 
L 104.201839 -39.309837 
L 103.99576 -39.719704 
L 103.760115 -40.129571 
L 103.494798 -40.539438 
L 103.20041 -40.949305 
L 102.878192 -41.359172 
L 102.5299 -41.769039 
L 102.157641 -42.178906 
L 101.763695 -42.588773 
L 101.350362 -42.99864 
L 100.919842 -43.408507 
L 100.474201 -43.818374 
L 100.015413 -44.228241 
L 99.545481 -44.638107 
L 99.066635 -45.047974 
L 98.581565 -45.457841 
L 98.093656 -45.867708 
L 97.607202 -46.277575 
L 97.12754 -46.687442 
L 96.661103 -47.097309 
L 96.215366 -47.507176 
L 95.798686 -47.917043 
L 95.42005 -48.32691 
L 95.088743 -48.736777 
L 94.81397 -49.146644 
L 94.604449 -49.556511 
L 94.467994 -49.966377 
L 94.411123 -50.376244 
L 94.43869 -50.786111 
L 94.553572 -51.195978 
L 94.756426 -51.605845 
L 95.045521 -52.015712 
L 95.41667 -52.425579 
L 95.863276 -52.835446 
L 96.376496 -53.245313 
L 96.945524 -53.65518 
L 97.557993 -54.065047 
L 98.200468 -54.474914 
L 98.859014 -54.884781 
L 99.519785 -55.294648 
L 100.169612 -55.704514 
L 100.796542 -56.114381 
L 101.390277 -56.524248 
L 101.942512 -56.934115 
L 102.447122 -57.343982 
L 102.900219 -57.753849 
L 103.30007 -58.163716 
L 103.646896 -58.573583 
L 103.942589 -58.98345 
L 104.19036 -59.393317 
L 104.394369 -59.803184 
L 104.55935 -60.213051 
L 104.690262 -60.622918 
L 104.791992 -61.032785 
L 104.869107 -61.442651 
L 104.925662 -61.852518 
L 104.965072 -62.262385 
L 104.990031 -62.672252 
L 105.002477 -63.082119 
L 105.0036 -63.491986 
L 104.993876 -63.901853 
L 104.973138 -64.31172 
L 104.940678 -64.721587 
L 104.895373 -65.131454 
L 104.835858 -65.541321 
L 104.760722 -65.951188 
L 104.668734 -66.361055 
L 104.559096 -66.770922 
L 104.431692 -67.180788 
L 104.287326 -67.590655 
L 104.127908 -68.000522 
L 103.956578 -68.410389 
L 103.777718 -68.820256 
L 103.596857 -69.230123 
L 103.420445 -69.63999 
L 103.255501 -70.049857 
L 103.109177 -70.459724 
L 102.988244 -70.869591 
L 102.898586 -71.279458 
L 102.844717 -71.689325 
L 102.829414 -72.099192 
L 102.853473 -72.509058 
L 102.915643 -72.918925 
L 103.012735 -73.328792 
L 103.139891 -73.738659 
L 103.290987 -74.148526 
L 103.459122 -74.558393 
L 103.637136 -74.96826 
L 103.818104 -75.378127 
L 103.995765 -75.787994 
L 104.164845 -76.197861 
L 104.321256 -76.607728 
L 104.462177 -77.017595 
L 104.586014 -77.427462 
L 104.69228 -77.837329 
L 104.781404 -78.247195 
L 105.392522 -78.247195 
L 105.392522 -78.247195 
L 105.481646 -77.837329 
L 105.587912 -77.427462 
L 105.711749 -77.017595 
L 105.85267 -76.607728 
L 106.009082 -76.197861 
L 106.178161 -75.787994 
L 106.355823 -75.378127 
L 106.53679 -74.96826 
L 106.714804 -74.558393 
L 106.882939 -74.148526 
L 107.034035 -73.738659 
L 107.161191 -73.328792 
L 107.258283 -72.918925 
L 107.320453 -72.509058 
L 107.344512 -72.099192 
L 107.329209 -71.689325 
L 107.275341 -71.279458 
L 107.185682 -70.869591 
L 107.064749 -70.459724 
L 106.918425 -70.049857 
L 106.753481 -69.63999 
L 106.577069 -69.230123 
L 106.396208 -68.820256 
L 106.217349 -68.410389 
L 106.046018 -68.000522 
L 105.886601 -67.590655 
L 105.742234 -67.180788 
L 105.61483 -66.770922 
L 105.505192 -66.361055 
L 105.413204 -65.951188 
L 105.338068 -65.541321 
L 105.278553 -65.131454 
L 105.233248 -64.721587 
L 105.200788 -64.31172 
L 105.18005 -63.901853 
L 105.170326 -63.491986 
L 105.171449 -63.082119 
L 105.183896 -62.672252 
L 105.208854 -62.262385 
L 105.248264 -61.852518 
L 105.304819 -61.442651 
L 105.381934 -61.032785 
L 105.483665 -60.622918 
L 105.614577 -60.213051 
L 105.779557 -59.803184 
L 105.983566 -59.393317 
L 106.231338 -58.98345 
L 106.52703 -58.573583 
L 106.873857 -58.163716 
L 107.273707 -57.753849 
L 107.726805 -57.343982 
L 108.231415 -56.934115 
L 108.783649 -56.524248 
L 109.377385 -56.114381 
L 110.004314 -55.704514 
L 110.654141 -55.294648 
L 111.314912 -54.884781 
L 111.973458 -54.474914 
L 112.615933 -54.065047 
L 113.228402 -53.65518 
L 113.79743 -53.245313 
L 114.31065 -52.835446 
L 114.757256 -52.425579 
L 115.128405 -52.015712 
L 115.4175 -51.605845 
L 115.620354 -51.195978 
L 115.735237 -50.786111 
L 115.762803 -50.376244 
L 115.705932 -49.966377 
L 115.569477 -49.556511 
L 115.359956 -49.146644 
L 115.085184 -48.736777 
L 114.753876 -48.32691 
L 114.37524 -47.917043 
L 113.95856 -47.507176 
L 113.512824 -47.097309 
L 113.046387 -46.687442 
L 112.566724 -46.277575 
L 112.08027 -45.867708 
L 111.592361 -45.457841 
L 111.107291 -45.047974 
L 110.628445 -44.638107 
L 110.158513 -44.228241 
L 109.699725 -43.818374 
L 109.254084 -43.408507 
L 108.823564 -42.99864 
L 108.410231 -42.588773 
L 108.016285 -42.178906 
L 107.644026 -41.769039 
L 107.295734 -41.359172 
L 106.973516 -40.949305 
L 106.679128 -40.539438 
L 106.413811 -40.129571 
L 106.178166 -39.719704 
L 105.972087 -39.309837 
L 105.794753 -38.89997 
L 105.644686 -38.490104 
L 105.519855 -38.080237 
L 105.417822 -37.67037 
z
" style="stroke: #595959; stroke-width: 0.15"/>
    </defs>
    <g clip-path="url(#p68c0212a78)">
     <use xlink:href="#m001c5bbd75" x="0" y="105.84" style="fill: #b6cae3; stroke: #595959; stroke-width: 0.15"/>
    </g>
   </g>
   <g id="PolyCollection_5">
    <defs>
     <path id="m92746e9b7f" d="M 132.340295 -39.290813 
L 131.21283 -39.290813 
L 131.038661 -39.543614 
L 130.824398 -39.796415 
L 130.565236 -40.049215 
L 130.257071 -40.302016 
L 129.896899 -40.554817 
L 129.48322 -40.807618 
L 129.01641 -41.060419 
L 128.499012 -41.313219 
L 127.93593 -41.56602 
L 127.334456 -41.818821 
L 126.704139 -42.071622 
L 126.056459 -42.324422 
L 125.40434 -42.577223 
L 124.761507 -42.830024 
L 124.141763 -43.082825 
L 123.558225 -43.335625 
L 123.022608 -43.588426 
L 122.544613 -43.841227 
L 122.131499 -44.094028 
L 121.787847 -44.346828 
L 121.515567 -44.599629 
L 121.314104 -44.85243 
L 121.180816 -45.105231 
L 121.111464 -45.358031 
L 121.100723 -45.610832 
L 121.142661 -45.863633 
L 121.231115 -46.116434 
L 121.35993 -46.369234 
L 121.523046 -46.622035 
L 121.714475 -46.874836 
L 121.928195 -47.127637 
L 122.158044 -47.380437 
L 122.397669 -47.633238 
L 122.640593 -47.886039 
L 122.880431 -48.13884 
L 123.111249 -48.39164 
L 123.328037 -48.644441 
L 123.527232 -48.897242 
L 123.707206 -49.150043 
L 123.868627 -49.402843 
L 124.014622 -49.655644 
L 124.150686 -49.908445 
L 124.284315 -50.161246 
L 124.424394 -50.414047 
L 124.58039 -50.666847 
L 124.76144 -50.919648 
L 124.975446 -51.172449 
L 125.228266 -51.42525 
L 125.523107 -51.67805 
L 125.860178 -51.930851 
L 126.236631 -52.183652 
L 126.646792 -52.436453 
L 127.082635 -52.689253 
L 127.534433 -52.942054 
L 127.991515 -53.194855 
L 128.443027 -53.447656 
L 128.878635 -53.700456 
L 129.289092 -53.953257 
L 129.666641 -54.206058 
L 130.005234 -54.458859 
L 130.300573 -54.711659 
L 130.549998 -54.96446 
L 130.752273 -55.217261 
L 130.907307 -55.470062 
L 131.015861 -55.722862 
L 131.079299 -55.975663 
L 131.099389 -56.228464 
L 131.078204 -56.481265 
L 131.018107 -56.734065 
L 130.921826 -56.986866 
L 130.792584 -57.239667 
L 130.634268 -57.492468 
L 130.451584 -57.745268 
L 130.250173 -57.998069 
L 130.03664 -58.25087 
L 129.818482 -58.503671 
L 129.603893 -58.756472 
L 129.401447 -59.009272 
L 129.219691 -59.262073 
L 129.06666 -59.514874 
L 128.949378 -59.767675 
L 128.873393 -60.020475 
L 128.842383 -60.273276 
L 128.857894 -60.526077 
L 128.919242 -60.778878 
L 129.023567 -61.031678 
L 129.166074 -61.284479 
L 129.3404 -61.53728 
L 129.539087 -61.790081 
L 129.754115 -62.042881 
L 129.97743 -62.295682 
L 130.201435 -62.548483 
L 130.419391 -62.801284 
L 130.625709 -63.054084 
L 130.816119 -63.306885 
L 130.98772 -63.559686 
L 131.138923 -63.812487 
L 131.269308 -64.065287 
L 131.379423 -64.318088 
L 132.173702 -64.318088 
L 132.173702 -64.318088 
L 132.283817 -64.065287 
L 132.414202 -63.812487 
L 132.565405 -63.559686 
L 132.737006 -63.306885 
L 132.927416 -63.054084 
L 133.133734 -62.801284 
L 133.35169 -62.548483 
L 133.575695 -62.295682 
L 133.79901 -62.042881 
L 134.014038 -61.790081 
L 134.212725 -61.53728 
L 134.387051 -61.284479 
L 134.529558 -61.031678 
L 134.633883 -60.778878 
L 134.695231 -60.526077 
L 134.710742 -60.273276 
L 134.679732 -60.020475 
L 134.603747 -59.767675 
L 134.486465 -59.514874 
L 134.333434 -59.262073 
L 134.151678 -59.009272 
L 133.949232 -58.756472 
L 133.734643 -58.503671 
L 133.516485 -58.25087 
L 133.302952 -57.998069 
L 133.101541 -57.745268 
L 132.918857 -57.492468 
L 132.760541 -57.239667 
L 132.631299 -56.986866 
L 132.535018 -56.734065 
L 132.474921 -56.481265 
L 132.453736 -56.228464 
L 132.473826 -55.975663 
L 132.537264 -55.722862 
L 132.645818 -55.470062 
L 132.800852 -55.217261 
L 133.003127 -54.96446 
L 133.252552 -54.711659 
L 133.547891 -54.458859 
L 133.886484 -54.206058 
L 134.264033 -53.953257 
L 134.67449 -53.700456 
L 135.110098 -53.447656 
L 135.56161 -53.194855 
L 136.018692 -52.942054 
L 136.47049 -52.689253 
L 136.906333 -52.436453 
L 137.316494 -52.183652 
L 137.692947 -51.930851 
L 138.030018 -51.67805 
L 138.324859 -51.42525 
L 138.577679 -51.172449 
L 138.791685 -50.919648 
L 138.972735 -50.666847 
L 139.128731 -50.414047 
L 139.26881 -50.161246 
L 139.402439 -49.908445 
L 139.538503 -49.655644 
L 139.684498 -49.402843 
L 139.845919 -49.150043 
L 140.025893 -48.897242 
L 140.225088 -48.644441 
L 140.441876 -48.39164 
L 140.672694 -48.13884 
L 140.912532 -47.886039 
L 141.155456 -47.633238 
L 141.395081 -47.380437 
L 141.62493 -47.127637 
L 141.83865 -46.874836 
L 142.030079 -46.622035 
L 142.193195 -46.369234 
L 142.32201 -46.116434 
L 142.410464 -45.863633 
L 142.452402 -45.610832 
L 142.441661 -45.358031 
L 142.372309 -45.105231 
L 142.239021 -44.85243 
L 142.037558 -44.599629 
L 141.765278 -44.346828 
L 141.421626 -44.094028 
L 141.008512 -43.841227 
L 140.530517 -43.588426 
L 139.9949 -43.335625 
L 139.411362 -43.082825 
L 138.791618 -42.830024 
L 138.148785 -42.577223 
L 137.496666 -42.324422 
L 136.848986 -42.071622 
L 136.218669 -41.818821 
L 135.617195 -41.56602 
L 135.054113 -41.313219 
L 134.536715 -41.060419 
L 134.069905 -40.807618 
L 133.656226 -40.554817 
L 133.296054 -40.302016 
L 132.987889 -40.049215 
L 132.728727 -39.796415 
L 132.514464 -39.543614 
L 132.340295 -39.290813 
z
" style="stroke: #595959; stroke-width: 0.15"/>
    </defs>
    <g clip-path="url(#p68c0212a78)">
     <use xlink:href="#m92746e9b7f" x="0" y="105.84" style="fill: #c0d2e7; stroke: #595959; stroke-width: 0.15"/>
    </g>
   </g>
   <g id="PolyCollection_6">
    <defs>
     <path id="m31350b8172" d="M 158.920763 -42.275612 
L 158.011561 -42.275612 
L 157.888498 -42.338389 
L 157.742091 -42.401166 
L 157.570711 -42.463943 
L 157.373293 -42.526721 
L 157.14944 -42.589498 
L 156.899488 -42.652275 
L 156.624503 -42.715052 
L 156.326206 -42.77783 
L 156.006818 -42.840607 
L 155.668846 -42.903384 
L 155.31482 -42.966161 
L 154.947015 -43.028938 
L 154.567205 -43.091716 
L 154.176489 -43.154493 
L 153.775223 -43.21727 
L 153.363099 -43.280047 
L 152.939384 -43.342825 
L 152.503298 -43.405602 
L 152.054522 -43.468379 
L 151.59376 -43.531156 
L 151.123299 -43.593933 
L 150.647475 -43.656711 
L 150.172965 -43.719488 
L 149.708847 -43.782265 
L 149.266368 -43.845042 
L 148.858424 -43.90782 
L 148.498768 -43.970597 
L 148.20102 -44.033374 
L 147.977556 -44.096151 
L 147.838415 -44.158929 
L 147.790322 -44.221706 
L 147.835955 -44.284483 
L 147.973536 -44.34726 
L 148.196802 -44.410037 
L 148.495363 -44.472815 
L 148.855409 -44.535592 
L 149.2607 -44.598369 
L 149.693719 -44.661146 
L 150.136886 -44.723924 
L 150.573687 -44.786701 
L 150.989636 -44.849478 
L 151.372964 -44.912255 
L 151.715012 -44.975032 
L 152.010305 -45.03781 
L 152.256355 -45.100587 
L 152.453234 -45.163364 
L 152.60301 -45.226141 
L 152.709134 -45.288919 
L 152.775853 -45.351696 
L 152.807715 -45.414473 
L 152.809215 -45.47725 
L 152.784602 -45.540028 
L 152.737822 -45.602805 
L 152.672588 -45.665582 
L 152.592515 -45.728359 
L 152.501292 -45.791136 
L 152.402814 -45.853914 
L 152.301268 -45.916691 
L 152.201125 -45.979468 
L 152.107037 -46.042245 
L 152.02366 -46.105023 
L 151.955398 -46.1678 
L 151.906133 -46.230577 
L 151.878945 -46.293354 
L 151.875887 -46.356132 
L 151.897831 -46.418909 
L 151.944408 -46.481686 
L 152.014072 -46.544463 
L 152.104265 -46.60724 
L 152.211688 -46.670018 
L 152.332651 -46.732795 
L 152.463453 -46.795572 
L 152.600778 -46.858349 
L 152.742034 -46.921127 
L 152.885619 -46.983904 
L 153.031072 -47.046681 
L 153.179086 -47.109458 
L 153.331389 -47.172235 
L 153.490495 -47.235013 
L 153.659358 -47.29779 
L 153.840962 -47.360567 
L 154.037909 -47.423344 
L 154.252034 -47.486122 
L 154.484102 -47.548899 
L 154.733624 -47.611676 
L 154.998797 -47.674453 
L 155.276584 -47.737231 
L 155.562913 -47.800008 
L 155.852969 -47.862785 
L 156.141544 -47.925562 
L 156.423408 -47.988339 
L 156.693654 -48.051117 
L 156.947999 -48.113894 
L 157.183 -48.176671 
L 157.396189 -48.239448 
L 157.586117 -48.302226 
L 157.752313 -48.365003 
L 157.895188 -48.42778 
L 158.015879 -48.490557 
L 158.916445 -48.490557 
L 158.916445 -48.490557 
L 159.037136 -48.42778 
L 159.180011 -48.365003 
L 159.346207 -48.302226 
L 159.536135 -48.239448 
L 159.749323 -48.176671 
L 159.984324 -48.113894 
L 160.238669 -48.051117 
L 160.508916 -47.988339 
L 160.79078 -47.925562 
L 161.079355 -47.862785 
L 161.369411 -47.800008 
L 161.65574 -47.737231 
L 161.933527 -47.674453 
L 162.1987 -47.611676 
L 162.448222 -47.548899 
L 162.68029 -47.486122 
L 162.894415 -47.423344 
L 163.091362 -47.360567 
L 163.272966 -47.29779 
L 163.441829 -47.235013 
L 163.600935 -47.172235 
L 163.753238 -47.109458 
L 163.901252 -47.046681 
L 164.046705 -46.983904 
L 164.19029 -46.921127 
L 164.331546 -46.858349 
L 164.468871 -46.795572 
L 164.599673 -46.732795 
L 164.720636 -46.670018 
L 164.828059 -46.60724 
L 164.918252 -46.544463 
L 164.987916 -46.481686 
L 165.034493 -46.418909 
L 165.056437 -46.356132 
L 165.053379 -46.293354 
L 165.026191 -46.230577 
L 164.976926 -46.1678 
L 164.908664 -46.105023 
L 164.825287 -46.042245 
L 164.731199 -45.979468 
L 164.631056 -45.916691 
L 164.52951 -45.853914 
L 164.431032 -45.791136 
L 164.339809 -45.728359 
L 164.259736 -45.665582 
L 164.194502 -45.602805 
L 164.147722 -45.540028 
L 164.123109 -45.47725 
L 164.124609 -45.414473 
L 164.156471 -45.351696 
L 164.223189 -45.288919 
L 164.329314 -45.226141 
L 164.47909 -45.163364 
L 164.675969 -45.100587 
L 164.922019 -45.03781 
L 165.217312 -44.975032 
L 165.55936 -44.912255 
L 165.942687 -44.849478 
L 166.358637 -44.786701 
L 166.795438 -44.723924 
L 167.238605 -44.661146 
L 167.671624 -44.598369 
L 168.076914 -44.535592 
L 168.436961 -44.472815 
L 168.735521 -44.410037 
L 168.958788 -44.34726 
L 169.096369 -44.284483 
L 169.142002 -44.221706 
L 169.093909 -44.158929 
L 168.954767 -44.096151 
L 168.731304 -44.033374 
L 168.433556 -43.970597 
L 168.0739 -43.90782 
L 167.665956 -43.845042 
L 167.223477 -43.782265 
L 166.759358 -43.719488 
L 166.284849 -43.656711 
L 165.809024 -43.593933 
L 165.338564 -43.531156 
L 164.877802 -43.468379 
L 164.429026 -43.405602 
L 163.99294 -43.342825 
L 163.569225 -43.280047 
L 163.157101 -43.21727 
L 162.755835 -43.154493 
L 162.365119 -43.091716 
L 161.985309 -43.028938 
L 161.617504 -42.966161 
L 161.263478 -42.903384 
L 160.925506 -42.840607 
L 160.606118 -42.77783 
L 160.307821 -42.715052 
L 160.032836 -42.652275 
L 159.782884 -42.589498 
L 159.559031 -42.526721 
L 159.361613 -42.463943 
L 159.190233 -42.401166 
L 159.043826 -42.338389 
L 158.920763 -42.275612 
z
" style="stroke: #595959; stroke-width: 0.15"/>
    </defs>
    <g clip-path="url(#p68c0212a78)">
     <use xlink:href="#m31350b8172" x="0" y="105.84" style="fill: #cbdaeb; stroke: #595959; stroke-width: 0.15"/>
    </g>
   </g>
   <g id="PolyCollection_7">
    <defs>
     <path id="m3c5b3e93cd" d="M 185.824361 -42.368517 
L 184.487162 -42.368517 
L 184.283817 -42.42537 
L 184.035071 -42.482223 
L 183.736043 -42.539076 
L 183.382842 -42.59593 
L 182.973012 -42.652783 
L 182.505968 -42.709636 
L 181.983366 -42.76649 
L 181.409373 -42.823343 
L 180.79079 -42.880196 
L 180.137005 -42.93705 
L 179.459752 -42.993903 
L 178.772693 -43.050756 
L 178.090849 -43.10761 
L 177.429912 -43.164463 
L 176.805526 -43.221316 
L 176.232562 -43.27817 
L 175.724489 -43.335023 
L 175.292865 -43.391876 
L 174.946982 -43.448729 
L 174.693685 -43.505583 
L 174.537339 -43.562436 
L 174.479922 -43.619289 
L 174.521183 -43.676143 
L 174.658855 -43.732996 
L 174.888843 -43.789849 
L 175.205403 -43.846703 
L 175.601276 -43.903556 
L 176.067808 -43.960409 
L 176.595067 -44.017263 
L 177.171991 -44.074116 
L 177.786595 -44.130969 
L 178.426251 -44.187823 
L 179.078047 -44.244676 
L 179.729214 -44.301529 
L 180.367583 -44.358382 
L 180.982052 -44.415236 
L 181.562995 -44.472089 
L 182.102604 -44.528942 
L 182.595099 -44.585796 
L 183.036822 -44.642649 
L 183.426189 -44.699502 
L 183.763518 -44.756356 
L 184.050765 -44.813209 
L 184.291194 -44.870062 
L 184.489011 -44.926916 
L 184.649004 -44.983769 
L 184.776208 -45.040622 
L 184.875622 -45.097475 
L 184.951984 -45.154329 
L 185.00961 -45.211182 
L 185.052296 -45.268035 
L 185.083269 -45.324889 
L 185.10518 -45.381742 
L 185.12013 -45.438595 
L 185.129709 -45.495449 
L 185.135045 -45.552302 
L 185.136853 -45.609155 
L 185.135484 -45.666009 
L 185.130958 -45.722862 
L 185.122998 -45.779715 
L 185.111057 -45.836569 
L 185.094344 -45.893422 
L 185.071858 -45.950275 
L 185.042423 -46.007128 
L 185.004752 -46.063982 
L 184.957517 -46.120835 
L 184.899447 -46.177688 
L 184.829449 -46.234542 
L 184.74674 -46.291395 
L 184.650989 -46.348248 
L 184.542456 -46.405102 
L 184.422118 -46.461955 
L 184.291749 -46.518808 
L 184.15396 -46.575662 
L 184.012175 -46.632515 
L 183.870527 -46.689368 
L 183.73369 -46.746222 
L 183.606637 -46.803075 
L 183.494351 -46.859928 
L 183.401504 -46.916781 
L 183.332136 -46.973635 
L 183.289365 -47.030488 
L 183.275156 -47.087341 
L 183.290166 -47.144195 
L 183.3337 -47.201048 
L 183.403761 -47.257901 
L 183.497201 -47.314755 
L 183.609958 -47.371608 
L 183.737347 -47.428461 
L 183.874383 -47.485315 
L 184.016095 -47.542168 
L 184.157822 -47.599021 
L 184.295449 -47.655875 
L 184.425575 -47.712728 
L 184.545611 -47.769581 
L 184.653804 -47.826434 
L 184.749204 -47.883288 
L 184.831569 -47.940141 
L 184.901249 -47.996994 
L 185.410274 -47.996994 
L 185.410274 -47.996994 
L 185.479954 -47.940141 
L 185.562319 -47.883288 
L 185.657718 -47.826434 
L 185.765912 -47.769581 
L 185.885948 -47.712728 
L 186.016073 -47.655875 
L 186.1537 -47.599021 
L 186.295428 -47.542168 
L 186.43714 -47.485315 
L 186.574175 -47.428461 
L 186.701565 -47.371608 
L 186.814322 -47.314755 
L 186.907762 -47.257901 
L 186.977823 -47.201048 
L 187.021357 -47.144195 
L 187.036367 -47.087341 
L 187.022157 -47.030488 
L 186.979387 -46.973635 
L 186.910019 -46.916781 
L 186.817172 -46.859928 
L 186.704885 -46.803075 
L 186.577832 -46.746222 
L 186.440995 -46.689368 
L 186.299348 -46.632515 
L 186.157563 -46.575662 
L 186.019774 -46.518808 
L 185.889405 -46.461955 
L 185.769066 -46.405102 
L 185.660534 -46.348248 
L 185.564783 -46.291395 
L 185.482073 -46.234542 
L 185.412076 -46.177688 
L 185.354006 -46.120835 
L 185.306771 -46.063982 
L 185.269099 -46.007128 
L 185.239665 -45.950275 
L 185.217179 -45.893422 
L 185.200466 -45.836569 
L 185.188525 -45.779715 
L 185.180565 -45.722862 
L 185.176039 -45.666009 
L 185.17467 -45.609155 
L 185.176478 -45.552302 
L 185.181814 -45.495449 
L 185.191392 -45.438595 
L 185.206343 -45.381742 
L 185.228254 -45.324889 
L 185.259227 -45.268035 
L 185.301913 -45.211182 
L 185.359539 -45.154329 
L 185.4359 -45.097475 
L 185.535314 -45.040622 
L 185.662519 -44.983769 
L 185.822512 -44.926916 
L 186.020329 -44.870062 
L 186.260758 -44.813209 
L 186.548005 -44.756356 
L 186.885334 -44.699502 
L 187.2747 -44.642649 
L 187.716424 -44.585796 
L 188.208919 -44.528942 
L 188.748527 -44.472089 
L 189.329471 -44.415236 
L 189.943939 -44.358382 
L 190.582309 -44.301529 
L 191.233476 -44.244676 
L 191.885272 -44.187823 
L 192.524928 -44.130969 
L 193.139532 -44.074116 
L 193.716456 -44.017263 
L 194.243715 -43.960409 
L 194.710247 -43.903556 
L 195.10612 -43.846703 
L 195.42268 -43.789849 
L 195.652668 -43.732996 
L 195.79034 -43.676143 
L 195.831601 -43.619289 
L 195.774183 -43.562436 
L 195.617838 -43.505583 
L 195.364541 -43.448729 
L 195.018658 -43.391876 
L 194.587033 -43.335023 
L 194.078961 -43.27817 
L 193.505997 -43.221316 
L 192.88161 -43.164463 
L 192.220674 -43.10761 
L 191.53883 -43.050756 
L 190.851771 -42.993903 
L 190.174518 -42.93705 
L 189.520732 -42.880196 
L 188.90215 -42.823343 
L 188.328156 -42.76649 
L 187.805554 -42.709636 
L 187.33851 -42.652783 
L 186.928681 -42.59593 
L 186.57548 -42.539076 
L 186.276452 -42.482223 
L 186.027705 -42.42537 
L 185.824361 -42.368517 
z
" style="stroke: #595959; stroke-width: 0.15"/>
    </defs>
    <g clip-path="url(#p68c0212a78)">
     <use xlink:href="#m3c5b3e93cd" x="0" y="105.84" style="fill: #cc5eca; stroke: #595959; stroke-width: 0.15"/>
    </g>
   </g>
   <g id="PolyCollection_8">
    <defs>
     <path id="mec6f372a5a" d="M 212.855481 -33.520155 
L 210.835241 -33.520155 
L 210.556038 -34.098871 
L 210.221852 -34.677586 
L 209.828546 -35.256302 
L 209.373577 -35.835018 
L 208.85651 -36.413733 
L 208.2795 -36.992449 
L 207.647679 -37.571165 
L 206.969409 -38.149881 
L 206.256344 -38.728596 
L 205.523276 -39.307312 
L 204.787739 -39.886028 
L 204.069372 -40.464743 
L 203.389074 -41.043459 
L 202.767985 -41.622175 
L 202.226381 -42.200891 
L 201.782543 -42.779606 
L 201.451701 -43.358322 
L 201.245139 -43.937038 
L 201.169521 -44.515753 
L 201.226512 -45.094469 
L 201.4127 -45.673185 
L 201.719837 -46.2519 
L 202.13536 -46.830616 
L 202.643153 -47.409332 
L 203.224475 -47.988048 
L 203.858977 -48.566763 
L 204.525749 -49.145479 
L 205.204295 -49.724195 
L 205.875412 -50.30291 
L 206.521908 -50.881626 
L 207.129149 -51.460342 
L 207.685411 -52.039058 
L 208.18207 -52.617773 
L 208.613622 -53.196489 
L 208.97757 -53.775205 
L 209.274204 -54.35392 
L 209.506301 -54.932636 
L 209.678758 -55.511352 
L 209.798196 -56.090068 
L 209.87253 -56.668783 
L 209.910535 -57.247499 
L 209.921415 -57.826215 
L 209.914378 -58.40493 
L 209.898243 -58.983646 
L 209.881081 -59.562362 
L 209.869907 -60.141077 
L 209.870442 -60.719793 
L 209.886942 -61.298509 
L 209.922116 -61.877225 
L 209.977131 -62.45594 
L 210.051696 -63.034656 
L 210.144222 -63.613372 
L 210.252038 -64.192087 
L 210.371652 -64.770803 
L 210.499023 -65.349519 
L 210.629838 -65.928235 
L 210.759759 -66.50695 
L 210.884634 -67.085666 
L 211.000663 -67.664382 
L 211.104512 -68.243097 
L 211.193373 -68.821813 
L 211.264988 -69.400529 
L 211.317642 -69.979244 
L 211.350134 -70.55796 
L 211.361754 -71.136676 
L 211.352256 -71.715392 
L 211.321852 -72.294107 
L 211.271218 -72.872823 
L 211.201521 -73.451539 
L 211.114452 -74.030254 
L 211.012252 -74.60897 
L 210.897734 -75.187686 
L 210.774269 -75.766402 
L 210.645739 -76.345117 
L 210.516447 -76.923833 
L 210.390974 -77.502549 
L 210.273998 -78.081264 
L 210.17008 -78.65998 
L 210.083424 -79.238696 
L 210.01765 -79.817412 
L 209.975574 -80.396127 
L 209.959045 -80.974843 
L 209.968828 -81.553559 
L 210.004562 -82.132274 
L 210.064796 -82.71099 
L 210.147092 -83.289706 
L 210.248198 -83.868421 
L 210.36426 -84.447137 
L 210.49107 -85.025853 
L 210.62432 -85.604569 
L 210.759837 -86.183284 
L 210.893796 -86.762 
L 211.022875 -87.340716 
L 211.144377 -87.919431 
L 211.256276 -88.498147 
L 211.357228 -89.076863 
L 211.446531 -89.655579 
L 211.524048 -90.234294 
L 211.590115 -90.81301 
L 212.100607 -90.81301 
L 212.100607 -90.81301 
L 212.166674 -90.234294 
L 212.244191 -89.655579 
L 212.333494 -89.076863 
L 212.434446 -88.498147 
L 212.546345 -87.919431 
L 212.667846 -87.340716 
L 212.796926 -86.762 
L 212.930884 -86.183284 
L 213.066402 -85.604569 
L 213.199652 -85.025853 
L 213.326462 -84.447137 
L 213.442524 -83.868421 
L 213.543629 -83.289706 
L 213.625926 -82.71099 
L 213.68616 -82.132274 
L 213.721894 -81.553559 
L 213.731677 -80.974843 
L 213.715148 -80.396127 
L 213.673072 -79.817412 
L 213.607297 -79.238696 
L 213.520642 -78.65998 
L 213.416723 -78.081264 
L 213.299748 -77.502549 
L 213.174275 -76.923833 
L 213.044982 -76.345117 
L 212.916453 -75.766402 
L 212.792987 -75.187686 
L 212.678469 -74.60897 
L 212.57627 -74.030254 
L 212.4892 -73.451539 
L 212.419504 -72.872823 
L 212.36887 -72.294107 
L 212.338465 -71.715392 
L 212.328968 -71.136676 
L 212.340588 -70.55796 
L 212.37308 -69.979244 
L 212.425733 -69.400529 
L 212.497348 -68.821813 
L 212.586209 -68.243097 
L 212.690058 -67.664382 
L 212.806088 -67.085666 
L 212.930963 -66.50695 
L 213.060883 -65.928235 
L 213.191699 -65.349519 
L 213.31907 -64.770803 
L 213.438683 -64.192087 
L 213.5465 -63.613372 
L 213.639025 -63.034656 
L 213.713591 -62.45594 
L 213.768606 -61.877225 
L 213.80378 -61.298509 
L 213.82028 -60.719793 
L 213.820814 -60.141077 
L 213.809641 -59.562362 
L 213.792479 -58.983646 
L 213.776344 -58.40493 
L 213.769307 -57.826215 
L 213.780186 -57.247499 
L 213.818192 -56.668783 
L 213.892525 -56.090068 
L 214.011963 -55.511352 
L 214.184421 -54.932636 
L 214.416518 -54.35392 
L 214.713152 -53.775205 
L 215.0771 -53.196489 
L 215.508651 -52.617773 
L 216.005311 -52.039058 
L 216.561573 -51.460342 
L 217.168813 -50.881626 
L 217.81531 -50.30291 
L 218.486427 -49.724195 
L 219.164973 -49.145479 
L 219.831744 -48.566763 
L 220.466247 -47.988048 
L 221.047568 -47.409332 
L 221.555362 -46.830616 
L 221.970885 -46.2519 
L 222.278021 -45.673185 
L 222.46421 -45.094469 
L 222.521201 -44.515753 
L 222.445583 -43.937038 
L 222.23902 -43.358322 
L 221.908179 -42.779606 
L 221.464341 -42.200891 
L 220.922737 -41.622175 
L 220.301648 -41.043459 
L 219.621349 -40.464743 
L 218.902983 -39.886028 
L 218.167446 -39.307312 
L 217.434378 -38.728596 
L 216.721313 -38.149881 
L 216.043042 -37.571165 
L 215.411221 -36.992449 
L 214.834211 -36.413733 
L 214.317144 -35.835018 
L 213.862175 -35.256302 
L 213.468869 -34.677586 
L 213.134683 -34.098871 
L 212.855481 -33.520155 
z
" style="stroke: #595959; stroke-width: 0.15"/>
    </defs>
    <g clip-path="url(#p68c0212a78)">
     <use xlink:href="#mec6f372a5a" x="0" y="105.84" style="fill: #d275d2; stroke: #595959; stroke-width: 0.15"/>
    </g>
   </g>
   <g id="PolyCollection_9">
    <defs>
     <path id="me0f5ed40bb" d="M 239.143182 -40.210855 
L 237.926739 -40.210855 
L 237.738726 -40.404148 
L 237.507389 -40.59744 
L 237.227551 -40.790732 
L 236.894828 -40.984024 
L 236.506081 -41.177316 
L 236.059876 -41.370608 
L 235.55692 -41.5639 
L 235.00041 -41.757192 
L 234.396266 -41.950484 
L 233.753191 -42.143776 
L 233.082532 -42.337068 
L 232.397917 -42.53036 
L 231.714682 -42.723653 
L 231.049108 -42.916945 
L 230.417514 -43.110237 
L 229.835281 -43.303529 
L 229.315883 -43.496821 
L 228.870019 -43.690113 
L 228.50492 -43.883405 
L 228.223909 -44.076697 
L 228.026252 -44.269989 
L 227.907332 -44.463281 
L 227.85912 -44.656573 
L 227.870915 -44.849865 
L 227.930276 -45.043158 
L 228.024074 -45.23645 
L 228.139551 -45.429742 
L 228.265304 -45.623034 
L 228.392103 -45.816326 
L 228.513466 -46.009618 
L 228.625963 -46.20291 
L 228.72921 -46.396202 
L 228.825582 -46.589494 
L 228.919676 -46.782786 
L 229.0176 -46.976078 
L 229.126155 -47.16937 
L 229.252016 -47.362663 
L 229.400995 -47.555955 
L 229.57746 -47.749247 
L 229.783972 -47.942539 
L 230.021157 -48.135831 
L 230.28782 -48.329123 
L 230.581254 -48.522415 
L 230.89769 -48.715707 
L 231.232809 -48.908999 
L 231.582247 -49.102291 
L 231.942003 -49.295583 
L 232.308721 -49.488875 
L 232.679802 -49.682168 
L 233.053357 -49.87546 
L 233.428025 -50.068752 
L 233.802704 -50.262044 
L 234.176247 -50.455336 
L 234.547185 -50.648628 
L 234.913517 -50.84192 
L 235.272602 -51.035212 
L 235.621154 -51.228504 
L 235.955347 -51.421796 
L 236.270989 -51.615088 
L 236.563747 -51.80838 
L 236.82938 -52.001673 
L 237.063953 -52.194965 
L 237.264011 -52.388257 
L 237.426701 -52.581549 
L 237.549857 -52.774841 
L 237.632039 -52.968133 
L 237.672562 -53.161425 
L 237.671524 -53.354717 
L 237.629849 -53.548009 
L 237.549349 -53.741301 
L 237.432805 -53.934593 
L 237.28405 -54.127885 
L 237.108031 -54.321178 
L 236.910829 -54.51447 
L 236.6996 -54.707762 
L 236.48243 -54.901054 
L 236.268083 -55.094346 
L 236.065641 -55.287638 
L 235.884068 -55.48093 
L 235.731714 -55.674222 
L 235.615817 -55.867514 
L 235.542033 -56.060806 
L 235.514065 -56.254098 
L 235.533414 -56.44739 
L 235.599295 -56.640683 
L 235.708718 -56.833975 
L 235.856734 -57.027267 
L 236.036824 -57.220559 
L 236.241381 -57.413851 
L 236.462251 -57.607143 
L 236.691264 -57.800435 
L 236.920728 -57.993727 
L 237.143829 -58.187019 
L 237.354924 -58.380311 
L 237.549707 -58.573603 
L 237.725258 -58.766895 
L 237.879981 -58.960188 
L 238.013459 -59.15348 
L 238.126257 -59.346772 
L 238.943663 -59.346772 
L 238.943663 -59.346772 
L 239.056461 -59.15348 
L 239.18994 -58.960188 
L 239.344663 -58.766895 
L 239.520214 -58.573603 
L 239.714997 -58.380311 
L 239.926092 -58.187019 
L 240.149193 -57.993727 
L 240.378656 -57.800435 
L 240.60767 -57.607143 
L 240.828539 -57.413851 
L 241.033097 -57.220559 
L 241.213187 -57.027267 
L 241.361203 -56.833975 
L 241.470625 -56.640683 
L 241.536506 -56.44739 
L 241.555856 -56.254098 
L 241.527887 -56.060806 
L 241.454103 -55.867514 
L 241.338206 -55.674222 
L 241.185853 -55.48093 
L 241.00428 -55.287638 
L 240.801838 -55.094346 
L 240.58749 -54.901054 
L 240.370321 -54.707762 
L 240.159092 -54.51447 
L 239.961889 -54.321178 
L 239.785871 -54.127885 
L 239.637116 -53.934593 
L 239.520572 -53.741301 
L 239.440072 -53.548009 
L 239.398396 -53.354717 
L 239.397358 -53.161425 
L 239.437881 -52.968133 
L 239.520063 -52.774841 
L 239.64322 -52.581549 
L 239.80591 -52.388257 
L 240.005967 -52.194965 
L 240.24054 -52.001673 
L 240.506173 -51.80838 
L 240.798932 -51.615088 
L 241.114573 -51.421796 
L 241.448766 -51.228504 
L 241.797318 -51.035212 
L 242.156403 -50.84192 
L 242.522736 -50.648628 
L 242.893674 -50.455336 
L 243.267217 -50.262044 
L 243.641895 -50.068752 
L 244.016563 -49.87546 
L 244.390118 -49.682168 
L 244.761199 -49.488875 
L 245.127917 -49.295583 
L 245.487673 -49.102291 
L 245.837111 -48.908999 
L 246.172231 -48.715707 
L 246.488666 -48.522415 
L 246.7821 -48.329123 
L 247.048764 -48.135831 
L 247.285949 -47.942539 
L 247.49246 -47.749247 
L 247.668925 -47.555955 
L 247.817904 -47.362663 
L 247.943765 -47.16937 
L 248.05232 -46.976078 
L 248.150244 -46.782786 
L 248.244339 -46.589494 
L 248.34071 -46.396202 
L 248.443958 -46.20291 
L 248.556455 -46.009618 
L 248.677818 -45.816326 
L 248.804616 -45.623034 
L 248.930369 -45.429742 
L 249.045846 -45.23645 
L 249.139645 -45.043158 
L 249.199006 -44.849865 
L 249.2108 -44.656573 
L 249.162588 -44.463281 
L 249.043668 -44.269989 
L 248.846012 -44.076697 
L 248.565 -43.883405 
L 248.199902 -43.690113 
L 247.754038 -43.496821 
L 247.23464 -43.303529 
L 246.652406 -43.110237 
L 246.020812 -42.916945 
L 245.355238 -42.723653 
L 244.672004 -42.53036 
L 243.987388 -42.337068 
L 243.316729 -42.143776 
L 242.673655 -41.950484 
L 242.069511 -41.757192 
L 241.513001 -41.5639 
L 241.010044 -41.370608 
L 240.56384 -41.177316 
L 240.175092 -40.984024 
L 239.84237 -40.790732 
L 239.562532 -40.59744 
L 239.331195 -40.404148 
L 239.143182 -40.210855 
z
" style="stroke: #595959; stroke-width: 0.15"/>
    </defs>
    <g clip-path="url(#p68c0212a78)">
     <use xlink:href="#me0f5ed40bb" x="0" y="105.84" style="fill: #da8cd9; stroke: #595959; stroke-width: 0.15"/>
    </g>
   </g>
   <g id="line2d_6">
    <path d="M 25.018165 62.561683 
L 25.018165 62.510637 
" clip-path="url(#p68c0212a78)" style="fill: none; stroke: #8c8c8c; stroke-width: 0.75; stroke-linecap: round"/>
   </g>
   <g id="line2d_7">
    <path d="M 25.018165 62.552512 
L 25.018165 62.523198 
" clip-path="url(#p68c0212a78)" style="fill: none; stroke: #8c8c8c; stroke-width: 4; stroke-linecap: round"/>
   </g>
   <g id="line2d_8">
    <path d="M 25.018165 62.534039 
" clip-path="url(#p68c0212a78)" style="fill: none; stroke: #595959; stroke-width: 1.2; stroke-linecap: round"/>
    <defs>
     <path id="m33cae2a988" d="M 0 0.833333 
C 0.221003 0.833333 0.432983 0.745528 0.589256 0.589256 
C 0.745528 0.432983 0.833333 0.221003 0.833333 0 
C 0.833333 -0.221003 0.745528 -0.432983 0.589256 -0.589256 
C 0.432983 -0.745528 0.221003 -0.833333 0 -0.833333 
C -0.221003 -0.833333 -0.432983 -0.745528 -0.589256 -0.589256 
C -0.745528 -0.432983 -0.833333 -0.221003 -0.833333 0 
C -0.833333 0.221003 -0.745528 0.432983 -0.589256 0.589256 
C -0.432983 0.745528 -0.221003 0.833333 0 0.833333 
z
" style="stroke: #ffffff; stroke-width: 0.8"/>
    </defs>
    <g clip-path="url(#p68c0212a78)">
     <use xlink:href="#m33cae2a988" x="25.018165" y="62.534039" style="fill: #ffffff; stroke: #ffffff; stroke-width: 0.8"/>
    </g>
   </g>
   <g id="line2d_9">
    <path d="M 51.707764 62.561683 
L 51.707764 62.549561 
" clip-path="url(#p68c0212a78)" style="fill: none; stroke: #8c8c8c; stroke-width: 0.75; stroke-linecap: round"/>
   </g>
   <g id="line2d_10">
    <path d="M 51.707764 62.561683 
L 51.707764 62.556518 
" clip-path="url(#p68c0212a78)" style="fill: none; stroke: #8c8c8c; stroke-width: 4; stroke-linecap: round"/>
   </g>
   <g id="line2d_11">
    <path d="M 51.707764 62.559215 
" clip-path="url(#p68c0212a78)" style="fill: none; stroke: #595959; stroke-width: 1.2; stroke-linecap: round"/>
    <g clip-path="url(#p68c0212a78)">
     <use xlink:href="#m33cae2a988" x="51.707764" y="62.559215" style="fill: #ffffff; stroke: #ffffff; stroke-width: 0.8"/>
    </g>
   </g>
   <g id="line2d_12">
    <path d="M 78.397364 62.561683 
L 78.397364 62.555622 
" clip-path="url(#p68c0212a78)" style="fill: none; stroke: #8c8c8c; stroke-width: 0.75; stroke-linecap: round"/>
   </g>
   <g id="line2d_13">
    <path d="M 78.397364 62.560728 
L 78.397364 62.558131 
" clip-path="url(#p68c0212a78)" style="fill: none; stroke: #8c8c8c; stroke-width: 4; stroke-linecap: round"/>
   </g>
   <g id="line2d_14">
    <path d="M 78.397364 62.559669 
" clip-path="url(#p68c0212a78)" style="fill: none; stroke: #595959; stroke-width: 1.2; stroke-linecap: round"/>
    <g clip-path="url(#p68c0212a78)">
     <use xlink:href="#m33cae2a988" x="78.397364" y="62.559669" style="fill: #ffffff; stroke: #ffffff; stroke-width: 0.8"/>
    </g>
   </g>
   <g id="line2d_15">
    <path d="M 105.086963 61.975851 
L 105.086963 51.491688 
" clip-path="url(#p68c0212a78)" style="fill: none; stroke: #8c8c8c; stroke-width: 0.75; stroke-linecap: round"/>
   </g>
   <g id="line2d_16">
    <path d="M 105.086963 57.455419 
L 105.086963 53.158082 
" clip-path="url(#p68c0212a78)" style="fill: none; stroke: #8c8c8c; stroke-width: 4; stroke-linecap: round"/>
   </g>
   <g id="line2d_17">
    <path d="M 105.086963 54.921867 
" clip-path="url(#p68c0212a78)" style="fill: none; stroke: #595959; stroke-width: 1.2; stroke-linecap: round"/>
    <g clip-path="url(#p68c0212a78)">
     <use xlink:href="#m33cae2a988" x="105.086963" y="54.921867" style="fill: #ffffff; stroke: #ffffff; stroke-width: 0.8"/>
    </g>
   </g>
   <g id="line2d_18">
    <path d="M 131.776562 62.547704 
L 131.776562 54.082487 
" clip-path="url(#p68c0212a78)" style="fill: none; stroke: #8c8c8c; stroke-width: 0.75; stroke-linecap: round"/>
   </g>
   <g id="line2d_19">
    <path d="M 131.776562 60.928299 
L 131.776562 54.821272 
" clip-path="url(#p68c0212a78)" style="fill: none; stroke: #8c8c8c; stroke-width: 4; stroke-linecap: round"/>
   </g>
   <g id="line2d_20">
    <path d="M 131.776562 58.369431 
" clip-path="url(#p68c0212a78)" style="fill: none; stroke: #595959; stroke-width: 1.2; stroke-linecap: round"/>
    <g clip-path="url(#p68c0212a78)">
     <use xlink:href="#m33cae2a988" x="131.776562" y="58.369431" style="fill: #ffffff; stroke: #ffffff; stroke-width: 0.8"/>
    </g>
   </g>
   <g id="line2d_21">
    <path d="M 158.466162 62.528007 
L 158.466162 58.385824 
" clip-path="url(#p68c0212a78)" style="fill: none; stroke: #8c8c8c; stroke-width: 0.75; stroke-linecap: round"/>
   </g>
   <g id="line2d_22">
    <path d="M 158.466162 61.606586 
L 158.466162 59.603341 
" clip-path="url(#p68c0212a78)" style="fill: none; stroke: #8c8c8c; stroke-width: 4; stroke-linecap: round"/>
   </g>
   <g id="line2d_23">
    <path d="M 158.466162 60.994176 
" clip-path="url(#p68c0212a78)" style="fill: none; stroke: #595959; stroke-width: 1.2; stroke-linecap: round"/>
    <g clip-path="url(#p68c0212a78)">
     <use xlink:href="#m33cae2a988" x="158.466162" y="60.994176" style="fill: #ffffff; stroke: #ffffff; stroke-width: 0.8"/>
    </g>
   </g>
   <g id="line2d_24">
    <path d="M 185.155761 62.561048 
L 185.155761 61.830027 
" clip-path="url(#p68c0212a78)" style="fill: none; stroke: #8c8c8c; stroke-width: 0.75; stroke-linecap: round"/>
   </g>
   <g id="line2d_25">
    <path d="M 185.155761 62.445138 
L 185.155761 61.864906 
" clip-path="url(#p68c0212a78)" style="fill: none; stroke: #8c8c8c; stroke-width: 4; stroke-linecap: round"/>
   </g>
   <g id="line2d_26">
    <path d="M 185.155761 62.102791 
" clip-path="url(#p68c0212a78)" style="fill: none; stroke: #595959; stroke-width: 1.2; stroke-linecap: round"/>
    <g clip-path="url(#p68c0212a78)">
     <use xlink:href="#m33cae2a988" x="185.155761" y="62.102791" style="fill: #ffffff; stroke: #ffffff; stroke-width: 0.8"/>
    </g>
   </g>
   <g id="line2d_27">
    <path d="M 211.845361 62.561683 
L 211.845361 44.564268 
" clip-path="url(#p68c0212a78)" style="fill: none; stroke: #8c8c8c; stroke-width: 0.75; stroke-linecap: round"/>
   </g>
   <g id="line2d_28">
    <path d="M 211.845361 62.334315 
L 211.845361 54.365908 
" clip-path="url(#p68c0212a78)" style="fill: none; stroke: #8c8c8c; stroke-width: 4; stroke-linecap: round"/>
   </g>
   <g id="line2d_29">
    <path d="M 211.845361 61.018102 
" clip-path="url(#p68c0212a78)" style="fill: none; stroke: #595959; stroke-width: 1.2; stroke-linecap: round"/>
    <g clip-path="url(#p68c0212a78)">
     <use xlink:href="#m33cae2a988" x="211.845361" y="61.018102" style="fill: #ffffff; stroke: #ffffff; stroke-width: 0.8"/>
    </g>
   </g>
   <g id="line2d_30">
    <path d="M 238.53496 62.556607 
L 238.53496 55.657542 
" clip-path="url(#p68c0212a78)" style="fill: none; stroke: #8c8c8c; stroke-width: 0.75; stroke-linecap: round"/>
   </g>
   <g id="line2d_31">
    <path d="M 238.53496 61.464546 
L 238.53496 57.337403 
" clip-path="url(#p68c0212a78)" style="fill: none; stroke: #8c8c8c; stroke-width: 4; stroke-linecap: round"/>
   </g>
   <g id="line2d_32">
    <path d="M 238.53496 59.039421 
" clip-path="url(#p68c0212a78)" style="fill: none; stroke: #595959; stroke-width: 1.2; stroke-linecap: round"/>
    <g clip-path="url(#p68c0212a78)">
     <use xlink:href="#m33cae2a988" x="238.53496" y="59.039421" style="fill: #ffffff; stroke: #ffffff; stroke-width: 0.8"/>
    </g>
   </g>
   <g id="patch_3">
    <path d="M 11.673365 74.229526 
L 11.673365 4.076256 
" style="fill: none; stroke: #777777; stroke-width: 0.5; stroke-linejoin: miter; stroke-linecap: square"/>
   </g>
   <g id="patch_4">
    <path d="M 11.673365 76.729526 
L 251.87976 76.729526 
" style="fill: none; stroke: #777777; stroke-width: 0.5; stroke-linejoin: miter; stroke-linecap: square"/>
   </g>
   <g id="PathCollection_1">
    <defs>
     <path id="m202abcaab3" d="M 0 0.375 
C 0.099451 0.375 0.194842 0.335488 0.265165 0.265165 
C 0.335488 0.194842 0.375 0.099451 0.375 0 
C 0.375 -0.099451 0.335488 -0.194842 0.265165 -0.265165 
C 0.194842 -0.335488 0.099451 -0.375 0 -0.375 
C -0.099451 -0.375 -0.194842 -0.335488 -0.265165 -0.265165 
C -0.335488 -0.194842 -0.375 -0.099451 -0.375 0 
C -0.375 0.099451 -0.335488 0.194842 -0.265165 0.265165 
C -0.194842 0.335488 -0.099451 0.375 0 0.375 
z
"/>
    </defs>
    <g clip-path="url(#p68c0212a78)">
     <use xlink:href="#m202abcaab3" x="27.234342" y="62.561683" style="fill: #642222"/>
     <use xlink:href="#m202abcaab3" x="25.044933" y="62.556838" style="fill: #642222"/>
     <use xlink:href="#m202abcaab3" x="26.786913" y="62.533752" style="fill: #642222"/>
     <use xlink:href="#m202abcaab3" x="22.753778" y="62.534326" style="fill: #642222"/>
     <use xlink:href="#m202abcaab3" x="22.991449" y="62.55107" style="fill: #642222"/>
     <use xlink:href="#m202abcaab3" x="22.627149" y="62.510637" style="fill: #642222"/>
     <use xlink:href="#m202abcaab3" x="25.057437" y="62.527386" style="fill: #642222"/>
     <use xlink:href="#m202abcaab3" x="25.480633" y="62.086911" style="fill: #642222"/>
    </g>
   </g>
   <g id="PathCollection_2">
    <g clip-path="url(#p68c0212a78)">
     <use xlink:href="#m202abcaab3" x="50.774323" y="62.561683" style="fill: #642222"/>
     <use xlink:href="#m202abcaab3" x="49.745775" y="62.561683" style="fill: #642222"/>
     <use xlink:href="#m202abcaab3" x="50.180602" y="62.558967" style="fill: #642222"/>
     <use xlink:href="#m202abcaab3" x="49.851374" y="62.561683" style="fill: #642222"/>
     <use xlink:href="#m202abcaab3" x="50.598936" y="62.555315" style="fill: #642222"/>
     <use xlink:href="#m202abcaab3" x="50.016671" y="62.559463" style="fill: #642222"/>
     <use xlink:href="#m202abcaab3" x="54.238417" y="62.556919" style="fill: #642222"/>
     <use xlink:href="#m202abcaab3" x="51.809461" y="62.549561" style="fill: #642222"/>
    </g>
   </g>
   <g id="PathCollection_3">
    <g clip-path="url(#p68c0212a78)">
     <use xlink:href="#m202abcaab3" x="79.009017" y="62.561683" style="fill: #642222"/>
     <use xlink:href="#m202abcaab3" x="80.346242" y="62.560714" style="fill: #642222"/>
     <use xlink:href="#m202abcaab3" x="80.115119" y="62.558967" style="fill: #642222"/>
     <use xlink:href="#m202abcaab3" x="77.945681" y="62.560771" style="fill: #642222"/>
     <use xlink:href="#m202abcaab3" x="77.850278" y="62.55956" style="fill: #642222"/>
     <use xlink:href="#m202abcaab3" x="79.166792" y="62.548366" style="fill: #642222"/>
     <use xlink:href="#m202abcaab3" x="80.3374" y="62.559777" style="fill: #642222"/>
     <use xlink:href="#m202abcaab3" x="76.72669" y="62.555622" style="fill: #642222"/>
    </g>
   </g>
   <g id="PathCollection_4">
    <g clip-path="url(#p68c0212a78)">
     <use xlink:href="#m202abcaab3" x="105.001776" y="61.975851" style="fill: #642222"/>
     <use xlink:href="#m202abcaab3" x="106.258239" y="57.04639" style="fill: #642222"/>
     <use xlink:href="#m202abcaab3" x="103.494505" y="51.491688" style="fill: #642222"/>
     <use xlink:href="#m202abcaab3" x="104.764585" y="55.951593" style="fill: #642222"/>
     <use xlink:href="#m202abcaab3" x="104.034714" y="53.89214" style="fill: #642222"/>
     <use xlink:href="#m202abcaab3" x="104.762178" y="58.682505" style="fill: #642222"/>
     <use xlink:href="#m202abcaab3" x="105.133927" y="53.713547" style="fill: #642222"/>
     <use xlink:href="#m202abcaab3" x="104.268491" y="33.786584" style="fill: #642222"/>
    </g>
   </g>
   <g id="PathCollection_5">
    <g clip-path="url(#p68c0212a78)">
     <use xlink:href="#m202abcaab3" x="131.213613" y="62.547704" style="fill: #642222"/>
     <use xlink:href="#m202abcaab3" x="133.529593" y="61.503047" style="fill: #642222"/>
     <use xlink:href="#m202abcaab3" x="129.63502" y="58.160533" style="fill: #642222"/>
     <use xlink:href="#m202abcaab3" x="131.301939" y="58.578329" style="fill: #642222"/>
     <use xlink:href="#m202abcaab3" x="129.873324" y="45.523394" style="fill: #642222"/>
     <use xlink:href="#m202abcaab3" x="131.6517" y="60.736716" style="fill: #642222"/>
     <use xlink:href="#m202abcaab3" x="131.654486" y="54.082487" style="fill: #642222"/>
     <use xlink:href="#m202abcaab3" x="133.611908" y="55.067534" style="fill: #642222"/>
    </g>
   </g>
   <g id="PathCollection_6">
    <g clip-path="url(#p68c0212a78)">
     <use xlink:href="#m202abcaab3" x="159.054042" y="62.528007" style="fill: #642222"/>
     <use xlink:href="#m202abcaab3" x="160.676673" y="61.470355" style="fill: #642222"/>
     <use xlink:href="#m202abcaab3" x="160.799913" y="58.385824" style="fill: #642222"/>
     <use xlink:href="#m202abcaab3" x="159.893855" y="59.211182" style="fill: #642222"/>
     <use xlink:href="#m202abcaab3" x="157.830178" y="61.741702" style="fill: #642222"/>
     <use xlink:href="#m202abcaab3" x="156.473154" y="61.561547" style="fill: #642222"/>
     <use xlink:href="#m202abcaab3" x="160.633957" y="59.734061" style="fill: #642222"/>
     <use xlink:href="#m202abcaab3" x="159.386505" y="60.517997" style="fill: #642222"/>
    </g>
   </g>
   <g id="PathCollection_7">
    <g clip-path="url(#p68c0212a78)">
     <use xlink:href="#m202abcaab3" x="183.431083" y="62.561048" style="fill: #642222"/>
     <use xlink:href="#m202abcaab3" x="186.775385" y="62.427016" style="fill: #642222"/>
     <use xlink:href="#m202abcaab3" x="184.524691" y="61.830027" style="fill: #642222"/>
     <use xlink:href="#m202abcaab3" x="183.32054" y="62.499504" style="fill: #642222"/>
     <use xlink:href="#m202abcaab3" x="186.664685" y="58.753441" style="fill: #642222"/>
     <use xlink:href="#m202abcaab3" x="184.918245" y="62.315976" style="fill: #642222"/>
     <use xlink:href="#m202abcaab3" x="186.248818" y="61.876532" style="fill: #642222"/>
     <use xlink:href="#m202abcaab3" x="183.025793" y="61.889606" style="fill: #642222"/>
    </g>
   </g>
   <g id="PathCollection_8">
    <g clip-path="url(#p68c0212a78)">
     <use xlink:href="#m202abcaab3" x="212.38333" y="62.561683" style="fill: #642222"/>
     <use xlink:href="#m202abcaab3" x="210.010645" y="62.311866" style="fill: #642222"/>
     <use xlink:href="#m202abcaab3" x="214.061848" y="61.586271" style="fill: #642222"/>
     <use xlink:href="#m202abcaab3" x="209.42093" y="62.401664" style="fill: #642222"/>
     <use xlink:href="#m202abcaab3" x="214.081911" y="24.785152" style="fill: #642222"/>
     <use xlink:href="#m202abcaab3" x="210.61705" y="60.449932" style="fill: #642222"/>
     <use xlink:href="#m202abcaab3" x="213.066123" y="44.564268" style="fill: #642222"/>
     <use xlink:href="#m202abcaab3" x="213.738799" y="57.633121" style="fill: #642222"/>
    </g>
   </g>
   <g id="PathCollection_9">
    <g clip-path="url(#p68c0212a78)">
     <use xlink:href="#m202abcaab3" x="237.325847" y="62.556607" style="fill: #642222"/>
     <use xlink:href="#m202abcaab3" x="238.332667" y="61.354559" style="fill: #642222"/>
     <use xlink:href="#m202abcaab3" x="236.879837" y="59.850959" style="fill: #642222"/>
     <use xlink:href="#m202abcaab3" x="236.637639" y="61.794507" style="fill: #642222"/>
     <use xlink:href="#m202abcaab3" x="239.028128" y="58.227883" style="fill: #642222"/>
     <use xlink:href="#m202abcaab3" x="238.735164" y="55.657542" style="fill: #642222"/>
     <use xlink:href="#m202abcaab3" x="241.175289" y="49.565766" style="fill: #642222"/>
     <use xlink:href="#m202abcaab3" x="239.194643" y="57.897356" style="fill: #642222"/>
    </g>
   </g>
  </g>
 </g>
 <defs>
  <clipPath id="p68c0212a78">
   <rect x="11.673365" y="4.076256" width="240.206395" height="70.15327"/>
  </clipPath>
 </defs>
</svg>
