<?xml version="1.0" encoding="utf-8" standalone="no"?>
<!DOCTYPE svg PUBLIC "-//W3C//DTD SVG 1.1//EN"
  "http://www.w3.org/Graphics/SVG/1.1/DTD/svg11.dtd">
<svg xmlns:xlink="http://www.w3.org/1999/xlink" width="84.96pt" height="84.96pt" viewBox="0 0 84.96 84.96" xmlns="http://www.w3.org/2000/svg" version="1.1">
 <metadata>
  <rdf:RDF xmlns:dc="http://purl.org/dc/elements/1.1/" xmlns:cc="http://creativecommons.org/ns#" xmlns:rdf="http://www.w3.org/1999/02/22-rdf-syntax-ns#">
   <cc:Work>
    <dc:type rdf:resource="http://purl.org/dc/dcmitype/StillImage"/>
    <dc:date>2024-05-27T15:37:06.150271</dc:date>
    <dc:format>image/svg+xml</dc:format>
    <dc:creator>
     <cc:Agent>
      <dc:title>Matplotlib v3.8.3, https://matplotlib.org/</dc:title>
     </cc:Agent>
    </dc:creator>
   </cc:Work>
  </rdf:RDF>
 </metadata>
 <defs>
  <style type="text/css">*{stroke-linejoin: round; stroke-linecap: butt}</style>
 </defs>
 <g id="figure_1">
  <g id="patch_1">
   <path d="M 0 84.96 
L 84.96 84.96 
L 84.96 0 
L 0 0 
z
" style="fill: #ffffff"/>
  </g>
  <g id="axes_1">
   <g id="patch_2">
    <path d="M 8.336802 74.419526 
L 81.95976 74.419526 
L 81.95976 4.076256 
L 8.336802 4.076256 
z
" style="fill: #ffffff"/>
   </g>
   <g id="matplotlib.axis_1">
    <g id="xtick_1">
     <g id="text_1">
      <!-- NK/ILC1ie -->
      <g style="fill: #333333" transform="translate(12.63167 81.230229) scale(0.035 -0.035)">
       <defs>
        <path id="Helvetica-4e" d="M 488 4591 
L 1222 4591 
L 3541 872 
L 3541 4591 
L 4131 4591 
L 4131 0 
L 3434 0 
L 1081 3716 
L 1081 0 
L 488 0 
L 488 4591 
z
M 2269 4591 
L 2269 4591 
z
" transform="scale(0.015625)"/>
        <path id="Helvetica-4b" d="M 488 4591 
L 1094 4591 
L 1094 2353 
L 3331 4591 
L 4191 4591 
L 2281 2741 
L 4244 0 
L 3434 0 
L 1828 2303 
L 1094 1600 
L 1094 0 
L 488 0 
L 488 4591 
z
" transform="scale(0.015625)"/>
        <path id="Helvetica-2f" d="M 1456 4591 
L 1931 4591 
L 475 0 
L 0 0 
L 1456 4591 
z
" transform="scale(0.015625)"/>
        <path id="Helvetica-49" d="M 628 4591 
L 1256 4591 
L 1256 0 
L 628 0 
L 628 4591 
z
" transform="scale(0.015625)"/>
        <path id="Helvetica-4c" d="M 488 4591 
L 1109 4591 
L 1109 547 
L 3434 547 
L 3434 0 
L 488 0 
L 488 4591 
z
" transform="scale(0.015625)"/>
        <path id="Helvetica-43" d="M 2422 4716 
Q 3294 4716 3775 4256 
Q 4256 3797 4309 3213 
L 3703 3213 
Q 3600 3656 3292 3915 
Q 2984 4175 2428 4175 
Q 1750 4175 1333 3698 
Q 916 3222 916 2238 
Q 916 1431 1292 929 
Q 1669 428 2416 428 
Q 3103 428 3463 956 
Q 3653 1234 3747 1688 
L 4353 1688 
Q 4272 963 3816 472 
Q 3269 -119 2341 -119 
Q 1541 -119 997 366 
Q 281 1006 281 2344 
Q 281 3359 819 4009 
Q 1400 4716 2422 4716 
z
M 2297 4716 
L 2297 4716 
z
" transform="scale(0.015625)"/>
        <path id="Helvetica-31" d="M 613 3169 
L 613 3600 
Q 1222 3659 1462 3798 
Q 1703 3938 1822 4456 
L 2266 4456 
L 2266 0 
L 1666 0 
L 1666 3169 
L 613 3169 
z
" transform="scale(0.015625)"/>
        <path id="Helvetica-69" d="M 413 3331 
L 984 3331 
L 984 0 
L 413 0 
L 413 3331 
z
M 413 4591 
L 984 4591 
L 984 3953 
L 413 3953 
L 413 4591 
z
" transform="scale(0.015625)"/>
        <path id="Helvetica-65" d="M 1806 3422 
Q 2163 3422 2497 3255 
Q 2831 3088 3006 2822 
Q 3175 2569 3231 2231 
Q 3281 2000 3281 1494 
L 828 1494 
Q 844 984 1069 676 
Q 1294 369 1766 369 
Q 2206 369 2469 659 
Q 2619 828 2681 1050 
L 3234 1050 
Q 3213 866 3089 639 
Q 2966 413 2813 269 
Q 2556 19 2178 -69 
Q 1975 -119 1719 -119 
Q 1094 -119 659 336 
Q 225 791 225 1609 
Q 225 2416 662 2919 
Q 1100 3422 1806 3422 
z
M 2703 1941 
Q 2669 2306 2544 2525 
Q 2313 2931 1772 2931 
Q 1384 2931 1121 2651 
Q 859 2372 844 1941 
L 2703 1941 
z
M 1753 3428 
L 1753 3428 
z
" transform="scale(0.015625)"/>
       </defs>
       <use xlink:href="#Helvetica-4e"/>
       <use xlink:href="#Helvetica-4b" x="72.216797"/>
       <use xlink:href="#Helvetica-2f" x="138.916016"/>
       <use xlink:href="#Helvetica-49" x="166.699219"/>
       <use xlink:href="#Helvetica-4c" x="194.482422"/>
       <use xlink:href="#Helvetica-43" x="250.097656"/>
       <use xlink:href="#Helvetica-31" x="322.314453"/>
       <use xlink:href="#Helvetica-69" x="377.929688"/>
       <use xlink:href="#Helvetica-65" x="400.146484"/>
      </g>
     </g>
    </g>
    <g id="xtick_2">
     <g id="text_2">
      <!-- ILC1 -->
      <g style="fill: #333333" transform="translate(41.451953 81.230229) scale(0.035 -0.035)">
       <use xlink:href="#Helvetica-49"/>
       <use xlink:href="#Helvetica-4c" x="27.783203"/>
       <use xlink:href="#Helvetica-43" x="83.398438"/>
       <use xlink:href="#Helvetica-31" x="155.615234"/>
      </g>
     </g>
    </g>
    <g id="xtick_3">
     <g id="text_3">
      <!-- TH1 -->
      <g style="fill: #333333" transform="translate(66.383408 81.230229) scale(0.035 -0.035)">
       <defs>
        <path id="Helvetica-54" d="M 3828 4591 
L 3828 4044 
L 2281 4044 
L 2281 0 
L 1650 0 
L 1650 4044 
L 103 4044 
L 103 4591 
L 3828 4591 
z
" transform="scale(0.015625)"/>
        <path id="Helvetica-48" d="M 503 4591 
L 1131 4591 
L 1131 2694 
L 3519 2694 
L 3519 4591 
L 4147 4591 
L 4147 0 
L 3519 0 
L 3519 2147 
L 1131 2147 
L 1131 0 
L 503 0 
L 503 4591 
z
" transform="scale(0.015625)"/>
       </defs>
       <use xlink:href="#Helvetica-54"/>
       <use xlink:href="#Helvetica-48" x="61.083984"/>
       <use xlink:href="#Helvetica-31" x="133.300781"/>
      </g>
     </g>
    </g>
   </g>
   <g id="matplotlib.axis_2">
    <g id="ytick_1">
     <g id="line2d_1">
      <defs>
       <path id="m135253eada" d="M 0 0 
L -1 0 
" style="stroke: #777777; stroke-width: 0.5"/>
      </defs>
      <g>
       <use xlink:href="#m135253eada" x="8.336802" y="66.995102" style="fill: #777777; stroke: #777777; stroke-width: 0.5"/>
      </g>
     </g>
     <g id="text_4">
      <!-- 0 -->
      <g style="fill: #333333" transform="translate(4.668521 68.071117) scale(0.03 -0.03)">
       <defs>
        <path id="Helvetica-30" d="M 1731 4475 
Q 2600 4475 2988 3759 
Q 3288 3206 3288 2244 
Q 3288 1331 3016 734 
Q 2622 -122 1728 -122 
Q 922 -122 528 578 
Q 200 1163 200 2147 
Q 200 2909 397 3456 
Q 766 4475 1731 4475 
z
M 1725 391 
Q 2163 391 2422 778 
Q 2681 1166 2681 2222 
Q 2681 2984 2493 3476 
Q 2306 3969 1766 3969 
Q 1269 3969 1039 3501 
Q 809 3034 809 2125 
Q 809 1441 956 1025 
Q 1181 391 1725 391 
z
" transform="scale(0.015625)"/>
       </defs>
       <use xlink:href="#Helvetica-30"/>
      </g>
     </g>
    </g>
    <g id="ytick_2">
     <g id="line2d_2">
      <g>
       <use xlink:href="#m135253eada" x="8.336802" y="54.411333" style="fill: #777777; stroke: #777777; stroke-width: 0.5"/>
      </g>
     </g>
     <g id="text_5">
      <!-- 10 -->
      <g style="fill: #333333" transform="translate(3.00024 55.487348) scale(0.03 -0.03)">
       <use xlink:href="#Helvetica-31"/>
       <use xlink:href="#Helvetica-30" x="55.615234"/>
      </g>
     </g>
    </g>
    <g id="ytick_3">
     <g id="line2d_3">
      <g>
       <use xlink:href="#m135253eada" x="8.336802" y="41.827563" style="fill: #777777; stroke: #777777; stroke-width: 0.5"/>
      </g>
     </g>
     <g id="text_6">
      <!-- 20 -->
      <g style="fill: #333333" transform="translate(3.00024 42.903579) scale(0.03 -0.03)">
       <defs>
        <path id="Helvetica-32" d="M 200 0 
Q 231 578 439 1006 
Q 647 1434 1250 1784 
L 1850 2131 
Q 2253 2366 2416 2531 
Q 2672 2791 2672 3125 
Q 2672 3516 2437 3745 
Q 2203 3975 1813 3975 
Q 1234 3975 1013 3538 
Q 894 3303 881 2888 
L 309 2888 
Q 319 3472 525 3841 
Q 891 4491 1816 4491 
Q 2584 4491 2939 4075 
Q 3294 3659 3294 3150 
Q 3294 2613 2916 2231 
Q 2697 2009 2131 1694 
L 1703 1456 
Q 1397 1288 1222 1134 
Q 909 863 828 531 
L 3272 531 
L 3272 0 
L 200 0 
z
" transform="scale(0.015625)"/>
       </defs>
       <use xlink:href="#Helvetica-32"/>
       <use xlink:href="#Helvetica-30" x="55.615234"/>
      </g>
     </g>
    </g>
    <g id="ytick_4">
     <g id="line2d_4">
      <g>
       <use xlink:href="#m135253eada" x="8.336802" y="29.243794" style="fill: #777777; stroke: #777777; stroke-width: 0.5"/>
      </g>
     </g>
     <g id="text_7">
      <!-- 30 -->
      <g style="fill: #333333" transform="translate(3.00024 30.31981) scale(0.03 -0.03)">
       <defs>
        <path id="Helvetica-33" d="M 1663 -122 
Q 869 -122 511 314 
Q 153 750 153 1375 
L 741 1375 
Q 778 941 903 744 
Q 1122 391 1694 391 
Q 2138 391 2406 628 
Q 2675 866 2675 1241 
Q 2675 1703 2392 1887 
Q 2109 2072 1606 2072 
Q 1550 2072 1492 2070 
Q 1434 2069 1375 2066 
L 1375 2563 
Q 1463 2553 1522 2550 
Q 1581 2547 1650 2547 
Q 1966 2547 2169 2647 
Q 2525 2822 2525 3272 
Q 2525 3606 2287 3787 
Q 2050 3969 1734 3969 
Q 1172 3969 956 3594 
Q 838 3388 822 3006 
L 266 3006 
Q 266 3506 466 3856 
Q 809 4481 1675 4481 
Q 2359 4481 2734 4176 
Q 3109 3872 3109 3294 
Q 3109 2881 2888 2625 
Q 2750 2466 2531 2375 
Q 2884 2278 3082 2001 
Q 3281 1725 3281 1325 
Q 3281 684 2859 281 
Q 2438 -122 1663 -122 
z
" transform="scale(0.015625)"/>
       </defs>
       <use xlink:href="#Helvetica-33"/>
       <use xlink:href="#Helvetica-30" x="55.615234"/>
      </g>
     </g>
    </g>
    <g id="ytick_5">
     <g id="line2d_5">
      <g>
       <use xlink:href="#m135253eada" x="8.336802" y="16.660025" style="fill: #777777; stroke: #777777; stroke-width: 0.5"/>
      </g>
     </g>
     <g id="text_8">
      <!-- 40 -->
      <g style="fill: #333333" transform="translate(3.00024 17.73604) scale(0.03 -0.03)">
       <defs>
        <path id="Helvetica-34" d="M 2116 1584 
L 2116 3613 
L 681 1584 
L 2116 1584 
z
M 2125 0 
L 2125 1094 
L 163 1094 
L 163 1644 
L 2213 4488 
L 2688 4488 
L 2688 1584 
L 3347 1584 
L 3347 1094 
L 2688 1094 
L 2688 0 
L 2125 0 
z
" transform="scale(0.015625)"/>
       </defs>
       <use xlink:href="#Helvetica-34"/>
       <use xlink:href="#Helvetica-30" x="55.615234"/>
      </g>
     </g>
    </g>
    <g id="ytick_6">
     <g id="line2d_6">
      <g>
       <use xlink:href="#m135253eada" x="8.336802" y="4.076256" style="fill: #777777; stroke: #777777; stroke-width: 0.5"/>
      </g>
     </g>
     <g id="text_9">
      <!-- 50 -->
      <g style="fill: #333333" transform="translate(3.00024 5.152271) scale(0.03 -0.03)">
       <defs>
        <path id="Helvetica-35" d="M 791 1141 
Q 847 659 1238 475 
Q 1438 381 1700 381 
Q 2200 381 2440 700 
Q 2681 1019 2681 1406 
Q 2681 1875 2395 2131 
Q 2109 2388 1709 2388 
Q 1419 2388 1211 2275 
Q 1003 2163 856 1963 
L 369 1991 
L 709 4400 
L 3034 4400 
L 3034 3856 
L 1131 3856 
L 941 2613 
Q 1097 2731 1238 2791 
Q 1488 2894 1816 2894 
Q 2431 2894 2859 2497 
Q 3288 2100 3288 1491 
Q 3288 856 2895 371 
Q 2503 -113 1644 -113 
Q 1097 -113 676 195 
Q 256 503 206 1141 
L 791 1141 
z
" transform="scale(0.015625)"/>
       </defs>
       <use xlink:href="#Helvetica-35"/>
       <use xlink:href="#Helvetica-30" x="55.615234"/>
      </g>
     </g>
    </g>
   </g>
   <g id="PolyCollection_1">
    <defs>
     <path id="md77258316f" d="M 22.532327 -17.958867 
L 18.682264 -17.958867 
L 18.353755 -17.959294 
L 17.994372 -17.959722 
L 17.606229 -17.960149 
L 17.192427 -17.960576 
L 16.757021 -17.961004 
L 16.304924 -17.961431 
L 15.841757 -17.961859 
L 15.373649 -17.962286 
L 14.907 -17.962713 
L 14.448212 -17.963141 
L 14.00342 -17.963568 
L 13.578237 -17.963995 
L 13.177522 -17.964423 
L 12.805206 -17.96485 
L 12.464186 -17.965277 
L 12.156283 -17.965705 
L 11.882289 -17.966132 
L 11.64208 -17.96656 
L 11.434801 -17.966987 
L 11.259091 -17.967414 
L 11.113338 -17.967842 
L 10.99595 -17.968269 
L 10.905585 -17.968696 
L 10.841364 -17.969124 
L 10.803006 -17.969551 
L 10.790901 -17.969978 
L 10.806101 -17.970406 
L 10.850231 -17.970833 
L 10.925329 -17.97126 
L 11.033627 -17.971688 
L 11.177294 -17.972115 
L 11.358154 -17.972543 
L 11.577416 -17.97297 
L 11.835415 -17.973397 
L 12.131414 -17.973825 
L 12.463455 -17.974252 
L 12.828283 -17.974679 
L 13.221348 -17.975107 
L 13.636882 -17.975534 
L 14.06804 -17.975961 
L 14.507107 -17.976389 
L 14.94575 -17.976816 
L 15.375294 -17.977244 
L 15.787019 -17.977671 
L 16.172457 -17.978098 
L 16.523672 -17.978526 
L 16.833516 -17.978953 
L 17.095854 -17.97938 
L 17.305752 -17.979808 
L 17.459619 -17.980235 
L 17.555307 -17.980662 
L 17.592177 -17.98109 
L 17.571106 -17.981517 
L 17.49447 -17.981945 
L 17.366071 -17.982372 
L 17.191034 -17.982799 
L 16.975657 -17.983227 
L 16.727226 -17.983654 
L 16.453796 -17.984081 
L 16.163937 -17.984509 
L 15.866457 -17.984936 
L 15.570115 -17.985363 
L 15.283324 -17.985791 
L 15.013867 -17.986218 
L 14.768646 -17.986645 
L 14.553459 -17.987073 
L 14.37284 -17.9875 
L 14.229959 -17.987928 
L 14.126598 -17.988355 
L 14.063188 -17.988782 
L 14.038931 -17.98921 
L 14.051972 -17.989637 
L 14.099616 -17.990064 
L 14.178583 -17.990492 
L 14.285266 -17.990919 
L 14.415979 -17.991346 
L 14.56718 -17.991774 
L 14.735649 -17.992201 
L 14.918604 -17.992629 
L 15.113771 -17.993056 
L 15.319382 -17.993483 
L 15.534124 -17.993911 
L 15.757046 -17.994338 
L 15.987435 -17.994765 
L 16.224681 -17.995193 
L 16.468139 -17.99562 
L 16.717014 -17.996047 
L 16.970274 -17.996475 
L 17.226592 -17.996902 
L 17.484338 -17.99733 
L 17.741598 -17.997757 
L 17.996241 -17.998184 
L 18.245995 -17.998612 
L 18.488557 -17.999039 
L 18.721694 -17.999466 
L 18.943353 -17.999894 
L 19.151751 -18.000321 
L 19.345444 -18.000748 
L 19.523382 -18.001176 
L 21.691209 -18.001176 
L 21.691209 -18.001176 
L 21.869146 -18.000748 
L 22.06284 -18.000321 
L 22.271237 -17.999894 
L 22.492897 -17.999466 
L 22.726034 -17.999039 
L 22.968596 -17.998612 
L 23.21835 -17.998184 
L 23.472993 -17.997757 
L 23.730253 -17.99733 
L 23.987999 -17.996902 
L 24.244317 -17.996475 
L 24.497576 -17.996047 
L 24.746452 -17.99562 
L 24.98991 -17.995193 
L 25.227155 -17.994765 
L 25.457545 -17.994338 
L 25.680467 -17.993911 
L 25.895209 -17.993483 
L 26.10082 -17.993056 
L 26.295987 -17.992629 
L 26.478942 -17.992201 
L 26.64741 -17.991774 
L 26.798612 -17.991346 
L 26.929325 -17.990919 
L 27.036008 -17.990492 
L 27.114975 -17.990064 
L 27.162619 -17.989637 
L 27.17566 -17.98921 
L 27.151403 -17.988782 
L 27.087993 -17.988355 
L 26.984631 -17.987928 
L 26.841751 -17.9875 
L 26.661132 -17.987073 
L 26.445945 -17.986645 
L 26.200724 -17.986218 
L 25.931267 -17.985791 
L 25.644476 -17.985363 
L 25.348134 -17.984936 
L 25.050654 -17.984509 
L 24.760795 -17.984081 
L 24.487365 -17.983654 
L 24.238934 -17.983227 
L 24.023557 -17.982799 
L 23.848519 -17.982372 
L 23.720121 -17.981945 
L 23.643485 -17.981517 
L 23.622414 -17.98109 
L 23.659284 -17.980662 
L 23.754972 -17.980235 
L 23.908839 -17.979808 
L 24.118737 -17.97938 
L 24.381075 -17.978953 
L 24.690919 -17.978526 
L 25.042134 -17.978098 
L 25.427572 -17.977671 
L 25.839297 -17.977244 
L 26.268841 -17.976816 
L 26.707483 -17.976389 
L 27.146551 -17.975961 
L 27.577709 -17.975534 
L 27.993243 -17.975107 
L 28.386308 -17.974679 
L 28.751136 -17.974252 
L 29.083177 -17.973825 
L 29.379176 -17.973397 
L 29.637175 -17.97297 
L 29.856436 -17.972543 
L 30.037297 -17.972115 
L 30.180964 -17.971688 
L 30.289262 -17.97126 
L 30.36436 -17.970833 
L 30.40849 -17.970406 
L 30.42369 -17.969978 
L 30.411585 -17.969551 
L 30.373227 -17.969124 
L 30.309006 -17.968696 
L 30.218641 -17.968269 
L 30.101252 -17.967842 
L 29.9555 -17.967414 
L 29.779789 -17.966987 
L 29.57251 -17.96656 
L 29.332302 -17.966132 
L 29.058308 -17.965705 
L 28.750405 -17.965277 
L 28.409385 -17.96485 
L 28.037069 -17.964423 
L 27.636353 -17.963995 
L 27.21117 -17.963568 
L 26.766379 -17.963141 
L 26.307591 -17.962713 
L 25.840942 -17.962286 
L 25.372834 -17.961859 
L 24.909667 -17.961431 
L 24.45757 -17.961004 
L 24.022164 -17.960576 
L 23.608362 -17.960149 
L 23.220219 -17.959722 
L 22.860836 -17.959294 
L 22.532327 -17.958867 
z
" style="stroke: #6f6f6f; stroke-width: 0.15"/>
    </defs>
    <g clip-path="url(#p2a5084a9e6)">
     <use xlink:href="#md77258316f" x="0" y="84.96" style="fill: #98daa7; stroke: #6f6f6f; stroke-width: 0.15"/>
    </g>
   </g>
   <g id="PolyCollection_2">
    <defs>
     <path id="m890952db68" d="M 47.294841 -17.415269 
L 43.001721 -17.415269 
L 42.636387 -17.480236 
L 42.235944 -17.545202 
L 41.802551 -17.610169 
L 41.339563 -17.675135 
L 40.851543 -17.740102 
L 40.344224 -17.805068 
L 39.824394 -17.870035 
L 39.299728 -17.935001 
L 38.778551 -17.999968 
L 38.26955 -18.064934 
L 37.781441 -18.129901 
L 37.32262 -18.194867 
L 36.900794 -18.259834 
L 36.522643 -18.3248 
L 36.193508 -18.389767 
L 35.917137 -18.454733 
L 35.695513 -18.5197 
L 35.528758 -18.584666 
L 35.415144 -18.649633 
L 35.351196 -18.714599 
L 35.331887 -18.779566 
L 35.350921 -18.844532 
L 35.401081 -18.909499 
L 35.474625 -18.974465 
L 35.563697 -19.039432 
L 35.660751 -19.104398 
L 35.758927 -19.169365 
L 35.852393 -19.234331 
L 35.936604 -19.299298 
L 36.00848 -19.364264 
L 36.066494 -19.429231 
L 36.110654 -19.494197 
L 36.142403 -19.559164 
L 36.164438 -19.62413 
L 36.180462 -19.689097 
L 36.194894 -19.754063 
L 36.212562 -19.81903 
L 36.238392 -19.883996 
L 36.277121 -19.948963 
L 36.333045 -20.013929 
L 36.409826 -20.078896 
L 36.510345 -20.143862 
L 36.636627 -20.208829 
L 36.789813 -20.273795 
L 36.970182 -20.338762 
L 37.177214 -20.403728 
L 37.409671 -20.468695 
L 37.66569 -20.533661 
L 37.942882 -20.598628 
L 38.238412 -20.663594 
L 38.549071 -20.72856 
L 38.871326 -20.793527 
L 39.201355 -20.858493 
L 39.535071 -20.92346 
L 39.868133 -20.988426 
L 40.195966 -21.053393 
L 40.513784 -21.118359 
L 40.81663 -21.183326 
L 41.09944 -21.248292 
L 41.357125 -21.313259 
L 41.584687 -21.378225 
L 41.777354 -21.443192 
L 41.930741 -21.508158 
L 42.041022 -21.573125 
L 42.105113 -21.638091 
L 42.120859 -21.703058 
L 42.087195 -21.768024 
L 42.004307 -21.832991 
L 41.873739 -21.897957 
L 41.698476 -21.962924 
L 41.48296 -22.02789 
L 41.233057 -22.092857 
L 40.955955 -22.157823 
L 40.659999 -22.22279 
L 40.35446 -22.287756 
L 40.049247 -22.352723 
L 39.75457 -22.417689 
L 39.480575 -22.482656 
L 39.236958 -22.547622 
L 39.032583 -22.612589 
L 38.875128 -22.677555 
L 38.770773 -22.742522 
L 38.723957 -22.807488 
L 38.737209 -22.872455 
L 38.811069 -22.937421 
L 38.944107 -23.002388 
L 39.133029 -23.067354 
L 39.372875 -23.132321 
L 39.657278 -23.197287 
L 39.978795 -23.262254 
L 40.329251 -23.32722 
L 40.700116 -23.392187 
L 41.082859 -23.457153 
L 41.469282 -23.52212 
L 41.851805 -23.587086 
L 42.223697 -23.652053 
L 42.579243 -23.717019 
L 42.913846 -23.781986 
L 43.224061 -23.846952 
L 47.072501 -23.846952 
L 47.072501 -23.846952 
L 47.382716 -23.781986 
L 47.71732 -23.717019 
L 48.072866 -23.652053 
L 48.444758 -23.587086 
L 48.827281 -23.52212 
L 49.213704 -23.457153 
L 49.596447 -23.392187 
L 49.967312 -23.32722 
L 50.317768 -23.262254 
L 50.639284 -23.197287 
L 50.923688 -23.132321 
L 51.163533 -23.067354 
L 51.352456 -23.002388 
L 51.485494 -22.937421 
L 51.559354 -22.872455 
L 51.572606 -22.807488 
L 51.52579 -22.742522 
L 51.421435 -22.677555 
L 51.263979 -22.612589 
L 51.059604 -22.547622 
L 50.815987 -22.482656 
L 50.541993 -22.417689 
L 50.247316 -22.352723 
L 49.942102 -22.287756 
L 49.636563 -22.22279 
L 49.340608 -22.157823 
L 49.063506 -22.092857 
L 48.813603 -22.02789 
L 48.598087 -21.962924 
L 48.422823 -21.897957 
L 48.292256 -21.832991 
L 48.209367 -21.768024 
L 48.175704 -21.703058 
L 48.191449 -21.638091 
L 48.255541 -21.573125 
L 48.365822 -21.508158 
L 48.519208 -21.443192 
L 48.711876 -21.378225 
L 48.939438 -21.313259 
L 49.197123 -21.248292 
L 49.479932 -21.183326 
L 49.782779 -21.118359 
L 50.100597 -21.053393 
L 50.42843 -20.988426 
L 50.761492 -20.92346 
L 51.095207 -20.858493 
L 51.425237 -20.793527 
L 51.747492 -20.72856 
L 52.05815 -20.663594 
L 52.35368 -20.598628 
L 52.630872 -20.533661 
L 52.886891 -20.468695 
L 53.119348 -20.403728 
L 53.32638 -20.338762 
L 53.50675 -20.273795 
L 53.659936 -20.208829 
L 53.786218 -20.143862 
L 53.886737 -20.078896 
L 53.963517 -20.013929 
L 54.019442 -19.948963 
L 54.05817 -19.883996 
L 54.084001 -19.81903 
L 54.101669 -19.754063 
L 54.116101 -19.689097 
L 54.132124 -19.62413 
L 54.15416 -19.559164 
L 54.185909 -19.494197 
L 54.230069 -19.429231 
L 54.288082 -19.364264 
L 54.359959 -19.299298 
L 54.444169 -19.234331 
L 54.537635 -19.169365 
L 54.635811 -19.104398 
L 54.732865 -19.039432 
L 54.821938 -18.974465 
L 54.895481 -18.909499 
L 54.945642 -18.844532 
L 54.964676 -18.779566 
L 54.945366 -18.714599 
L 54.881418 -18.649633 
L 54.767805 -18.584666 
L 54.60105 -18.5197 
L 54.379425 -18.454733 
L 54.103055 -18.389767 
L 53.773919 -18.3248 
L 53.395769 -18.259834 
L 52.973943 -18.194867 
L 52.515121 -18.129901 
L 52.027013 -18.064934 
L 51.518012 -17.999968 
L 50.996835 -17.935001 
L 50.472169 -17.870035 
L 49.952339 -17.805068 
L 49.445019 -17.740102 
L 48.957 -17.675135 
L 48.494011 -17.610169 
L 48.060618 -17.545202 
L 47.660175 -17.480236 
L 47.294841 -17.415269 
z
" style="stroke: #6f6f6f; stroke-width: 0.15"/>
    </defs>
    <g clip-path="url(#p2a5084a9e6)">
     <use xlink:href="#m890952db68" x="0" y="84.96" style="fill: #f2aba8; stroke: #6f6f6f; stroke-width: 0.15"/>
    </g>
   </g>
   <g id="PolyCollection_3">
    <defs>
     <path id="m1652d69972" d="M 71.9512 -17.899621 
L 67.427335 -17.899621 
L 66.987888 -17.904662 
L 66.501406 -17.909704 
L 65.971821 -17.914746 
L 65.405273 -17.919788 
L 64.810112 -17.924829 
L 64.196758 -17.929871 
L 63.57741 -17.934913 
L 62.965602 -17.939954 
L 62.375631 -17.944996 
L 61.821884 -17.950038 
L 61.318113 -17.95508 
L 60.87672 -17.960121 
L 60.508092 -17.965163 
L 60.220059 -17.970205 
L 60.017511 -17.975246 
L 59.902222 -17.980288 
L 59.872873 -17.98533 
L 59.9253 -17.990372 
L 60.052914 -17.995413 
L 60.24727 -18.000455 
L 60.498724 -18.005497 
L 60.797108 -18.010538 
L 61.13238 -18.01558 
L 61.495174 -18.020622 
L 61.877223 -18.025664 
L 62.271623 -18.030705 
L 62.672928 -18.035747 
L 63.0771 -18.040789 
L 63.481323 -18.04583 
L 63.883734 -18.050872 
L 64.283105 -18.055914 
L 64.678522 -18.060956 
L 65.069104 -18.065997 
L 65.453776 -18.071039 
L 65.831137 -18.076081 
L 66.199406 -18.081122 
L 66.556454 -18.086164 
L 66.899909 -18.091206 
L 67.227294 -18.096248 
L 67.536205 -18.101289 
L 67.824474 -18.106331 
L 68.090321 -18.111373 
L 68.332471 -18.116414 
L 68.550218 -18.121456 
L 68.743454 -18.126498 
L 68.912644 -18.13154 
L 69.058768 -18.136581 
L 69.183235 -18.141623 
L 69.287775 -18.146665 
L 69.374333 -18.151706 
L 69.444955 -18.156748 
L 69.501688 -18.16179 
L 69.546498 -18.166832 
L 69.581197 -18.171873 
L 69.607396 -18.176915 
L 69.626466 -18.181957 
L 69.639523 -18.186999 
L 69.647413 -18.19204 
L 69.650718 -18.197082 
L 69.649759 -18.202124 
L 69.644612 -18.207165 
L 69.635126 -18.212207 
L 69.620943 -18.217249 
L 69.601526 -18.222291 
L 69.576198 -18.227332 
L 69.544177 -18.232374 
L 69.504634 -18.237416 
L 69.456753 -18.242457 
L 69.399799 -18.247499 
L 69.333199 -18.252541 
L 69.256621 -18.257583 
L 69.170058 -18.262624 
L 69.073901 -18.267666 
L 68.969002 -18.272708 
L 68.856717 -18.277749 
L 68.738913 -18.282791 
L 68.617956 -18.287833 
L 68.496655 -18.292875 
L 68.378165 -18.297916 
L 68.265866 -18.302958 
L 68.163208 -18.308 
L 68.073539 -18.313041 
L 67.999922 -18.318083 
L 67.944965 -18.323125 
L 67.910668 -18.328167 
L 67.8983 -18.333208 
L 67.908323 -18.33825 
L 67.940363 -18.343292 
L 67.993233 -18.348333 
L 68.065003 -18.353375 
L 68.153124 -18.358417 
L 68.254572 -18.363459 
L 68.36602 -18.3685 
L 68.484023 -18.373542 
L 68.605184 -18.378584 
L 68.726319 -18.383625 
L 68.844579 -18.388667 
L 68.95755 -18.393709 
L 69.063312 -18.398751 
L 70.315222 -18.398751 
L 70.315222 -18.398751 
L 70.420984 -18.393709 
L 70.533956 -18.388667 
L 70.652215 -18.383625 
L 70.77335 -18.378584 
L 70.894511 -18.373542 
L 71.012514 -18.3685 
L 71.123962 -18.363459 
L 71.22541 -18.358417 
L 71.313531 -18.353375 
L 71.385302 -18.348333 
L 71.438171 -18.343292 
L 71.470211 -18.33825 
L 71.480234 -18.333208 
L 71.467866 -18.328167 
L 71.433569 -18.323125 
L 71.378612 -18.318083 
L 71.304995 -18.313041 
L 71.215326 -18.308 
L 71.112668 -18.302958 
L 71.00037 -18.297916 
L 70.881879 -18.292875 
L 70.760578 -18.287833 
L 70.639621 -18.282791 
L 70.521817 -18.277749 
L 70.409532 -18.272708 
L 70.304633 -18.267666 
L 70.208477 -18.262624 
L 70.121913 -18.257583 
L 70.045335 -18.252541 
L 69.978735 -18.247499 
L 69.921781 -18.242457 
L 69.8739 -18.237416 
L 69.834357 -18.232374 
L 69.802336 -18.227332 
L 69.777008 -18.222291 
L 69.757591 -18.217249 
L 69.743408 -18.212207 
L 69.733922 -18.207165 
L 69.728776 -18.202124 
L 69.727816 -18.197082 
L 69.731121 -18.19204 
L 69.739011 -18.186999 
L 69.752068 -18.181957 
L 69.771139 -18.176915 
L 69.797337 -18.171873 
L 69.832037 -18.166832 
L 69.876846 -18.16179 
L 69.933579 -18.156748 
L 70.004201 -18.151706 
L 70.090759 -18.146665 
L 70.1953 -18.141623 
L 70.319766 -18.136581 
L 70.46589 -18.13154 
L 70.63508 -18.126498 
L 70.828316 -18.121456 
L 71.046063 -18.116414 
L 71.288213 -18.111373 
L 71.554061 -18.106331 
L 71.842329 -18.101289 
L 72.15124 -18.096248 
L 72.478625 -18.091206 
L 72.82208 -18.086164 
L 73.179129 -18.081122 
L 73.547397 -18.076081 
L 73.924758 -18.071039 
L 74.30943 -18.065997 
L 74.700012 -18.060956 
L 75.095429 -18.055914 
L 75.4948 -18.050872 
L 75.897211 -18.04583 
L 76.301434 -18.040789 
L 76.705606 -18.035747 
L 77.106912 -18.030705 
L 77.501311 -18.025664 
L 77.883361 -18.020622 
L 78.246155 -18.01558 
L 78.581426 -18.010538 
L 78.87981 -18.005497 
L 79.131264 -18.000455 
L 79.325621 -17.995413 
L 79.453235 -17.990372 
L 79.505661 -17.98533 
L 79.476313 -17.980288 
L 79.361023 -17.975246 
L 79.158475 -17.970205 
L 78.870442 -17.965163 
L 78.501814 -17.960121 
L 78.060421 -17.95508 
L 77.556651 -17.950038 
L 77.002903 -17.944996 
L 76.412932 -17.939954 
L 75.801124 -17.934913 
L 75.181776 -17.929871 
L 74.568422 -17.924829 
L 73.973261 -17.919788 
L 73.406713 -17.914746 
L 72.877129 -17.909704 
L 72.390646 -17.904662 
L 71.9512 -17.899621 
z
" style="stroke: #6f6f6f; stroke-width: 0.15"/>
    </defs>
    <g clip-path="url(#p2a5084a9e6)">
     <use xlink:href="#m1652d69972" x="0" y="84.96" style="fill: #d3c4f6; stroke: #6f6f6f; stroke-width: 0.15"/>
    </g>
   </g>
   <g id="line2d_7">
    <path d="M 20.607295 66.995102 
L 20.607295 66.964855 
" clip-path="url(#p2a5084a9e6)" style="fill: none; stroke: #8c8c8c; stroke-width: 0.75; stroke-linecap: round"/>
   </g>
   <g id="line2d_8">
    <path d="M 20.607295 66.991077 
L 20.607295 66.972505 
" clip-path="url(#p2a5084a9e6)" style="fill: none; stroke: #8c8c8c; stroke-width: 4; stroke-linecap: round"/>
   </g>
   <g id="line2d_9">
    <path d="M 20.607295 66.986109 
" clip-path="url(#p2a5084a9e6)" style="fill: none; stroke: #6f6f6f; stroke-width: 1.2; stroke-linecap: round"/>
    <defs>
     <path id="m558465fb8f" d="M 0 0.833333 
C 0.221003 0.833333 0.432983 0.745528 0.589256 0.589256 
C 0.745528 0.432983 0.833333 0.221003 0.833333 0 
C 0.833333 -0.221003 0.745528 -0.432983 0.589256 -0.589256 
C 0.432983 -0.745528 0.221003 -0.833333 0 -0.833333 
C -0.221003 -0.833333 -0.432983 -0.745528 -0.589256 -0.589256 
C -0.745528 -0.432983 -0.833333 -0.221003 -0.833333 0 
C -0.833333 0.221003 -0.745528 0.432983 -0.589256 0.589256 
C -0.432983 0.745528 -0.221003 0.833333 0 0.833333 
z
" style="stroke: #ffffff; stroke-width: 0.8"/>
    </defs>
    <g clip-path="url(#p2a5084a9e6)">
     <use xlink:href="#m558465fb8f" x="20.607295" y="66.986109" style="fill: #ffffff; stroke: #ffffff; stroke-width: 0.8"/>
    </g>
   </g>
   <g id="line2d_10">
    <path d="M 45.148281 66.604898 
L 45.148281 62.052881 
" clip-path="url(#p2a5084a9e6)" style="fill: none; stroke: #8c8c8c; stroke-width: 0.75; stroke-linecap: round"/>
   </g>
   <g id="line2d_11">
    <path d="M 45.148281 66.12819 
L 45.148281 63.616421 
" clip-path="url(#p2a5084a9e6)" style="fill: none; stroke: #8c8c8c; stroke-width: 4; stroke-linecap: round"/>
   </g>
   <g id="line2d_12">
    <path d="M 45.148281 64.976575 
" clip-path="url(#p2a5084a9e6)" style="fill: none; stroke: #6f6f6f; stroke-width: 1.2; stroke-linecap: round"/>
    <g clip-path="url(#p2a5084a9e6)">
     <use xlink:href="#m558465fb8f" x="45.148281" y="64.976575" style="fill: #ffffff; stroke: #ffffff; stroke-width: 0.8"/>
    </g>
   </g>
   <g id="line2d_13">
    <path d="M 69.689267 66.995102 
L 69.689267 66.904249 
" clip-path="url(#p2a5084a9e6)" style="fill: none; stroke: #8c8c8c; stroke-width: 0.75; stroke-linecap: round"/>
   </g>
   <g id="line2d_14">
    <path d="M 69.689267 66.988557 
L 69.689267 66.910238 
" clip-path="url(#p2a5084a9e6)" style="fill: none; stroke: #8c8c8c; stroke-width: 4; stroke-linecap: round"/>
   </g>
   <g id="line2d_15">
    <path d="M 69.689267 66.975651 
" clip-path="url(#p2a5084a9e6)" style="fill: none; stroke: #6f6f6f; stroke-width: 1.2; stroke-linecap: round"/>
    <g clip-path="url(#p2a5084a9e6)">
     <use xlink:href="#m558465fb8f" x="69.689267" y="66.975651" style="fill: #ffffff; stroke: #ffffff; stroke-width: 0.8"/>
    </g>
   </g>
   <g id="patch_3">
    <path d="M 8.336802 74.419526 
L 8.336802 4.076256 
" style="fill: none; stroke: #777777; stroke-width: 0.5; stroke-linejoin: miter; stroke-linecap: square"/>
   </g>
   <g id="patch_4">
    <path d="M 8.336802 76.919526 
L 81.95976 76.919526 
" style="fill: none; stroke: #777777; stroke-width: 0.5; stroke-linejoin: miter; stroke-linecap: square"/>
   </g>
  </g>
 </g>
 <defs>
  <clipPath id="p2a5084a9e6">
   <rect x="8.336802" y="4.076256" width="73.622957" height="70.34327"/>
  </clipPath>
 </defs>
</svg>
