<?xml version="1.0" encoding="utf-8" standalone="no"?>
<!DOCTYPE svg PUBLIC "-//W3C//DTD SVG 1.1//EN"
  "http://www.w3.org/Graphics/SVG/1.1/DTD/svg11.dtd">
<svg xmlns:xlink="http://www.w3.org/1999/xlink" width="84.96pt" height="84.96pt" viewBox="0 0 84.96 84.96" xmlns="http://www.w3.org/2000/svg" version="1.1">
 <metadata>
  <rdf:RDF xmlns:dc="http://purl.org/dc/elements/1.1/" xmlns:cc="http://creativecommons.org/ns#" xmlns:rdf="http://www.w3.org/1999/02/22-rdf-syntax-ns#">
   <cc:Work>
    <dc:type rdf:resource="http://purl.org/dc/dcmitype/StillImage"/>
    <dc:date>2024-05-27T15:36:59.788362</dc:date>
    <dc:format>image/svg+xml</dc:format>
    <dc:creator>
     <cc:Agent>
      <dc:title>Matplotlib v3.8.3, https://matplotlib.org/</dc:title>
     </cc:Agent>
    </dc:creator>
   </cc:Work>
  </rdf:RDF>
 </metadata>
 <defs>
  <style type="text/css">*{stroke-linejoin: round; stroke-linecap: butt}</style>
 </defs>
 <g id="figure_1">
  <g id="patch_1">
   <path d="M 0 84.96 
L 84.96 84.96 
L 84.96 0 
L 0 0 
z
" style="fill: #ffffff"/>
  </g>
  <g id="axes_1">
   <g id="patch_2">
    <path d="M 10.005084 74.419526 
L 81.95976 74.419526 
L 81.95976 4.076256 
L 10.005084 4.076256 
z
" style="fill: #ffffff"/>
   </g>
   <g id="matplotlib.axis_1">
    <g id="xtick_1">
     <g id="text_1">
      <!-- CD20+ Cells -->
      <g style="fill: #333333" transform="translate(12.125616 81.230229) scale(0.035 -0.035)">
       <defs>
        <path id="Helvetica-43" d="M 2422 4716 
Q 3294 4716 3775 4256 
Q 4256 3797 4309 3213 
L 3703 3213 
Q 3600 3656 3292 3915 
Q 2984 4175 2428 4175 
Q 1750 4175 1333 3698 
Q 916 3222 916 2238 
Q 916 1431 1292 929 
Q 1669 428 2416 428 
Q 3103 428 3463 956 
Q 3653 1234 3747 1688 
L 4353 1688 
Q 4272 963 3816 472 
Q 3269 -119 2341 -119 
Q 1541 -119 997 366 
Q 281 1006 281 2344 
Q 281 3359 819 4009 
Q 1400 4716 2422 4716 
z
M 2297 4716 
L 2297 4716 
z
" transform="scale(0.015625)"/>
        <path id="Helvetica-44" d="M 2250 531 
Q 2566 531 2769 597 
Q 3131 719 3363 1066 
Q 3547 1344 3628 1778 
Q 3675 2038 3675 2259 
Q 3675 3113 3336 3584 
Q 2997 4056 2244 4056 
L 1141 4056 
L 1141 531 
L 2250 531 
z
M 516 4591 
L 2375 4591 
Q 3322 4591 3844 3919 
Q 4309 3313 4309 2366 
Q 4309 1634 4034 1044 
Q 3550 0 2369 0 
L 516 0 
L 516 4591 
z
" transform="scale(0.015625)"/>
        <path id="Helvetica-32" d="M 200 0 
Q 231 578 439 1006 
Q 647 1434 1250 1784 
L 1850 2131 
Q 2253 2366 2416 2531 
Q 2672 2791 2672 3125 
Q 2672 3516 2437 3745 
Q 2203 3975 1813 3975 
Q 1234 3975 1013 3538 
Q 894 3303 881 2888 
L 309 2888 
Q 319 3472 525 3841 
Q 891 4491 1816 4491 
Q 2584 4491 2939 4075 
Q 3294 3659 3294 3150 
Q 3294 2613 2916 2231 
Q 2697 2009 2131 1694 
L 1703 1456 
Q 1397 1288 1222 1134 
Q 909 863 828 531 
L 3272 531 
L 3272 0 
L 200 0 
z
" transform="scale(0.015625)"/>
        <path id="Helvetica-30" d="M 1731 4475 
Q 2600 4475 2988 3759 
Q 3288 3206 3288 2244 
Q 3288 1331 3016 734 
Q 2622 -122 1728 -122 
Q 922 -122 528 578 
Q 200 1163 200 2147 
Q 200 2909 397 3456 
Q 766 4475 1731 4475 
z
M 1725 391 
Q 2163 391 2422 778 
Q 2681 1166 2681 2222 
Q 2681 2984 2493 3476 
Q 2306 3969 1766 3969 
Q 1269 3969 1039 3501 
Q 809 3034 809 2125 
Q 809 1441 956 1025 
Q 1181 391 1725 391 
z
" transform="scale(0.015625)"/>
        <path id="Helvetica-2b" d="M 288 1369 
L 288 1894 
L 1650 1894 
L 1650 3266 
L 2184 3266 
L 2184 1894 
L 3547 1894 
L 3547 1369 
L 2184 1369 
L 2184 0 
L 1650 0 
L 1650 1369 
L 288 1369 
z
" transform="scale(0.015625)"/>
        <path id="Helvetica-20" transform="scale(0.015625)"/>
        <path id="Helvetica-65" d="M 1806 3422 
Q 2163 3422 2497 3255 
Q 2831 3088 3006 2822 
Q 3175 2569 3231 2231 
Q 3281 2000 3281 1494 
L 828 1494 
Q 844 984 1069 676 
Q 1294 369 1766 369 
Q 2206 369 2469 659 
Q 2619 828 2681 1050 
L 3234 1050 
Q 3213 866 3089 639 
Q 2966 413 2813 269 
Q 2556 19 2178 -69 
Q 1975 -119 1719 -119 
Q 1094 -119 659 336 
Q 225 791 225 1609 
Q 225 2416 662 2919 
Q 1100 3422 1806 3422 
z
M 2703 1941 
Q 2669 2306 2544 2525 
Q 2313 2931 1772 2931 
Q 1384 2931 1121 2651 
Q 859 2372 844 1941 
L 2703 1941 
z
M 1753 3428 
L 1753 3428 
z
" transform="scale(0.015625)"/>
        <path id="Helvetica-6c" d="M 428 4591 
L 991 4591 
L 991 0 
L 428 0 
L 428 4591 
z
" transform="scale(0.015625)"/>
        <path id="Helvetica-73" d="M 747 1050 
Q 772 769 888 619 
Q 1100 347 1625 347 
Q 1938 347 2175 483 
Q 2413 619 2413 903 
Q 2413 1119 2222 1231 
Q 2100 1300 1741 1391 
L 1294 1503 
Q 866 1609 663 1741 
Q 300 1969 300 2372 
Q 300 2847 642 3140 
Q 984 3434 1563 3434 
Q 2319 3434 2653 2991 
Q 2863 2709 2856 2384 
L 2325 2384 
Q 2309 2575 2191 2731 
Q 1997 2953 1519 2953 
Q 1200 2953 1036 2831 
Q 872 2709 872 2509 
Q 872 2291 1088 2159 
Q 1213 2081 1456 2022 
L 1828 1931 
Q 2434 1784 2641 1647 
Q 2969 1431 2969 969 
Q 2969 522 2630 197 
Q 2291 -128 1597 -128 
Q 850 -128 539 211 
Q 228 550 206 1050 
L 747 1050 
z
M 1578 3428 
L 1578 3428 
z
" transform="scale(0.015625)"/>
       </defs>
       <use xlink:href="#Helvetica-43"/>
       <use xlink:href="#Helvetica-44" x="72.216797"/>
       <use xlink:href="#Helvetica-32" x="144.433594"/>
       <use xlink:href="#Helvetica-30" x="200.048828"/>
       <use xlink:href="#Helvetica-2b" x="255.664062"/>
       <use xlink:href="#Helvetica-20" x="314.0625"/>
       <use xlink:href="#Helvetica-43" x="341.845703"/>
       <use xlink:href="#Helvetica-65" x="414.0625"/>
       <use xlink:href="#Helvetica-6c" x="469.677734"/>
       <use xlink:href="#Helvetica-6c" x="491.894531"/>
       <use xlink:href="#Helvetica-73" x="514.111328"/>
      </g>
     </g>
    </g>
    <g id="xtick_2">
     <g id="text_2">
      <!-- TCRαδ+ Cells -->
      <g style="fill: #333333" transform="translate(34.850234 81.230229) scale(0.035 -0.035)">
       <defs>
        <path id="Helvetica-54" d="M 3828 4591 
L 3828 4044 
L 2281 4044 
L 2281 0 
L 1650 0 
L 1650 4044 
L 103 4044 
L 103 4591 
L 3828 4591 
z
" transform="scale(0.015625)"/>
        <path id="Helvetica-52" d="M 2622 2488 
Q 3059 2488 3314 2663 
Q 3569 2838 3569 3294 
Q 3569 3784 3213 3963 
Q 3022 4056 2703 4056 
L 1184 4056 
L 1184 2488 
L 2622 2488 
z
M 563 4591 
L 2688 4591 
Q 3213 4591 3553 4438 
Q 4200 4144 4200 3353 
Q 4200 2941 4029 2678 
Q 3859 2416 3553 2256 
Q 3822 2147 3958 1969 
Q 4094 1791 4109 1391 
L 4131 775 
Q 4141 513 4175 384 
Q 4231 166 4375 103 
L 4375 0 
L 3613 0 
Q 3581 59 3562 153 
Q 3544 247 3531 516 
L 3494 1281 
Q 3472 1731 3159 1884 
Q 2981 1969 2600 1969 
L 1184 1969 
L 1184 0 
L 563 0 
L 563 4591 
z
" transform="scale(0.015625)"/>
        <path id="Helvetica-3b1" d="M 3347 703 
Q 3334 428 3525 434 
Q 3641 434 3700 475 
L 3700 -19 
Q 3628 -44 3513 -50 
Q 3391 -63 3309 -63 
Q 3084 -56 2956 103 
Q 2816 256 2816 475 
L 2803 475 
Q 2413 -63 1734 -63 
Q 1006 -50 647 459 
Q 281 953 281 1644 
Q 281 2350 634 2859 
Q 984 3378 1741 3391 
Q 2413 3391 2797 2847 
L 2809 2847 
L 2809 3328 
L 3347 3328 
L 3347 703 
z
M 1825 397 
Q 2075 397 2253 513 
Q 2425 622 2541 806 
Q 2766 1184 2766 1638 
Q 2766 2144 2559 2528 
Q 2350 2919 1797 2931 
Q 1306 2919 1081 2534 
Q 856 2156 856 1697 
Q 856 1209 1081 819 
Q 1306 409 1825 397 
z
" transform="scale(0.015625)"/>
        <path id="Helvetica-3b4" d="M 666 4519 
L 3188 4519 
L 3188 4056 
L 1394 4056 
L 1394 4044 
L 2509 3303 
Q 3134 2881 3372 2469 
Q 3591 2053 3584 1600 
Q 3578 934 3163 447 
Q 2738 -50 1938 -63 
Q 1203 -56 769 403 
Q 331 850 325 1556 
Q 341 3066 1863 3188 
L 1863 3200 
L 666 4056 
L 666 4519 
z
M 1991 397 
Q 2497 403 2731 794 
Q 2969 1166 2969 1606 
Q 2969 1856 2919 2041 
Q 2866 2222 2791 2344 
Q 2713 2463 2638 2541 
Q 2559 2619 2509 2650 
Q 2381 2766 2156 2766 
Q 947 2766 941 1528 
Q 941 1056 1216 738 
Q 1491 403 1991 397 
z
" transform="scale(0.015625)"/>
       </defs>
       <use xlink:href="#Helvetica-54"/>
       <use xlink:href="#Helvetica-43" x="61.083984"/>
       <use xlink:href="#Helvetica-52" x="133.300781"/>
       <use xlink:href="#Helvetica-3b1" x="205.517578"/>
       <use xlink:href="#Helvetica-3b4" x="266.601562"/>
       <use xlink:href="#Helvetica-2b" x="327.685547"/>
       <use xlink:href="#Helvetica-20" x="386.083984"/>
       <use xlink:href="#Helvetica-43" x="413.867188"/>
       <use xlink:href="#Helvetica-65" x="486.083984"/>
       <use xlink:href="#Helvetica-6c" x="541.699219"/>
       <use xlink:href="#Helvetica-6c" x="563.916016"/>
       <use xlink:href="#Helvetica-73" x="586.132812"/>
      </g>
     </g>
    </g>
    <g id="xtick_3">
     <g id="text_3">
      <!-- IL7R+ Cells -->
      <g style="fill: #333333" transform="translate(60.873056 81.230229) scale(0.035 -0.035)">
       <defs>
        <path id="Helvetica-49" d="M 628 4591 
L 1256 4591 
L 1256 0 
L 628 0 
L 628 4591 
z
" transform="scale(0.015625)"/>
        <path id="Helvetica-4c" d="M 488 4591 
L 1109 4591 
L 1109 547 
L 3434 547 
L 3434 0 
L 488 0 
L 488 4591 
z
" transform="scale(0.015625)"/>
        <path id="Helvetica-37" d="M 3347 4400 
L 3347 3909 
Q 3131 3700 2773 3181 
Q 2416 2663 2141 2063 
Q 1869 1478 1728 997 
Q 1638 688 1494 0 
L 872 0 
Q 1084 1281 1809 2550 
Q 2238 3294 2709 3834 
L 234 3834 
L 234 4400 
L 3347 4400 
z
" transform="scale(0.015625)"/>
       </defs>
       <use xlink:href="#Helvetica-49"/>
       <use xlink:href="#Helvetica-4c" x="27.783203"/>
       <use xlink:href="#Helvetica-37" x="83.398438"/>
       <use xlink:href="#Helvetica-52" x="139.013672"/>
       <use xlink:href="#Helvetica-2b" x="211.230469"/>
       <use xlink:href="#Helvetica-20" x="269.628906"/>
       <use xlink:href="#Helvetica-43" x="297.412109"/>
       <use xlink:href="#Helvetica-65" x="369.628906"/>
       <use xlink:href="#Helvetica-6c" x="425.244141"/>
       <use xlink:href="#Helvetica-6c" x="447.460938"/>
       <use xlink:href="#Helvetica-73" x="469.677734"/>
      </g>
     </g>
    </g>
   </g>
   <g id="matplotlib.axis_2">
    <g id="ytick_1">
     <g id="line2d_1">
      <defs>
       <path id="mbc1dddd327" d="M 0 0 
L -1 0 
" style="stroke: #777777; stroke-width: 0.5"/>
      </defs>
      <g>
       <use xlink:href="#mbc1dddd327" x="10.005084" y="66.189518" style="fill: #777777; stroke: #777777; stroke-width: 0.5"/>
      </g>
     </g>
     <g id="text_4">
      <!-- 0 -->
      <g style="fill: #333333" transform="translate(6.336803 67.265534) scale(0.03 -0.03)">
       <use xlink:href="#Helvetica-30"/>
      </g>
     </g>
    </g>
    <g id="ytick_2">
     <g id="line2d_2">
      <g>
       <use xlink:href="#mbc1dddd327" x="10.005084" y="55.837308" style="fill: #777777; stroke: #777777; stroke-width: 0.5"/>
      </g>
     </g>
     <g id="text_5">
      <!-- 20 -->
      <g style="fill: #333333" transform="translate(4.668521 56.913323) scale(0.03 -0.03)">
       <use xlink:href="#Helvetica-32"/>
       <use xlink:href="#Helvetica-30" x="55.615234"/>
      </g>
     </g>
    </g>
    <g id="ytick_3">
     <g id="line2d_3">
      <g>
       <use xlink:href="#mbc1dddd327" x="10.005084" y="45.485097" style="fill: #777777; stroke: #777777; stroke-width: 0.5"/>
      </g>
     </g>
     <g id="text_6">
      <!-- 40 -->
      <g style="fill: #333333" transform="translate(4.668521 46.561113) scale(0.03 -0.03)">
       <defs>
        <path id="Helvetica-34" d="M 2116 1584 
L 2116 3613 
L 681 1584 
L 2116 1584 
z
M 2125 0 
L 2125 1094 
L 163 1094 
L 163 1644 
L 2213 4488 
L 2688 4488 
L 2688 1584 
L 3347 1584 
L 3347 1094 
L 2688 1094 
L 2688 0 
L 2125 0 
z
" transform="scale(0.015625)"/>
       </defs>
       <use xlink:href="#Helvetica-34"/>
       <use xlink:href="#Helvetica-30" x="55.615234"/>
      </g>
     </g>
    </g>
    <g id="ytick_4">
     <g id="line2d_4">
      <g>
       <use xlink:href="#mbc1dddd327" x="10.005084" y="35.132887" style="fill: #777777; stroke: #777777; stroke-width: 0.5"/>
      </g>
     </g>
     <g id="text_7">
      <!-- 60 -->
      <g style="fill: #333333" transform="translate(4.668521 36.208903) scale(0.03 -0.03)">
       <defs>
        <path id="Helvetica-36" d="M 1872 4494 
Q 2622 4494 2917 4105 
Q 3213 3716 3213 3303 
L 2656 3303 
Q 2606 3569 2497 3719 
Q 2294 4000 1881 4000 
Q 1409 4000 1131 3564 
Q 853 3128 822 2316 
Q 1016 2600 1309 2741 
Q 1578 2866 1909 2866 
Q 2472 2866 2890 2506 
Q 3309 2147 3309 1434 
Q 3309 825 2912 354 
Q 2516 -116 1781 -116 
Q 1153 -116 697 361 
Q 241 838 241 1966 
Q 241 2800 444 3381 
Q 834 4494 1872 4494 
z
M 1831 384 
Q 2275 384 2495 682 
Q 2716 981 2716 1388 
Q 2716 1731 2519 2042 
Q 2322 2353 1803 2353 
Q 1441 2353 1167 2112 
Q 894 1872 894 1388 
Q 894 963 1142 673 
Q 1391 384 1831 384 
z
" transform="scale(0.015625)"/>
       </defs>
       <use xlink:href="#Helvetica-36"/>
       <use xlink:href="#Helvetica-30" x="55.615234"/>
      </g>
     </g>
    </g>
    <g id="ytick_5">
     <g id="line2d_5">
      <g>
       <use xlink:href="#mbc1dddd327" x="10.005084" y="24.780677" style="fill: #777777; stroke: #777777; stroke-width: 0.5"/>
      </g>
     </g>
     <g id="text_8">
      <!-- 80 -->
      <g style="fill: #333333" transform="translate(4.668521 25.856692) scale(0.03 -0.03)">
       <defs>
        <path id="Helvetica-38" d="M 1741 2600 
Q 2113 2600 2322 2808 
Q 2531 3016 2531 3303 
Q 2531 3553 2331 3762 
Q 2131 3972 1722 3972 
Q 1316 3972 1134 3762 
Q 953 3553 953 3272 
Q 953 2956 1187 2778 
Q 1422 2600 1741 2600 
z
M 1775 384 
Q 2166 384 2423 595 
Q 2681 806 2681 1225 
Q 2681 1659 2415 1884 
Q 2150 2109 1734 2109 
Q 1331 2109 1076 1879 
Q 822 1650 822 1244 
Q 822 894 1055 639 
Q 1288 384 1775 384 
z
M 975 2384 
Q 741 2484 609 2619 
Q 363 2869 363 3269 
Q 363 3769 725 4128 
Q 1088 4488 1753 4488 
Q 2397 4488 2762 4148 
Q 3128 3809 3128 3356 
Q 3128 2938 2916 2678 
Q 2797 2531 2547 2391 
Q 2825 2263 2984 2097 
Q 3281 1784 3281 1284 
Q 3281 694 2884 283 
Q 2488 -128 1763 -128 
Q 1109 -128 657 226 
Q 206 581 206 1256 
Q 206 1653 400 1942 
Q 594 2231 975 2384 
z
" transform="scale(0.015625)"/>
       </defs>
       <use xlink:href="#Helvetica-38"/>
       <use xlink:href="#Helvetica-30" x="55.615234"/>
      </g>
     </g>
    </g>
    <g id="ytick_6">
     <g id="line2d_6">
      <g>
       <use xlink:href="#mbc1dddd327" x="10.005084" y="14.428466" style="fill: #777777; stroke: #777777; stroke-width: 0.5"/>
      </g>
     </g>
     <g id="text_9">
      <!-- 100 -->
      <g style="fill: #333333" transform="translate(3.00024 15.504482) scale(0.03 -0.03)">
       <defs>
        <path id="Helvetica-31" d="M 613 3169 
L 613 3600 
Q 1222 3659 1462 3798 
Q 1703 3938 1822 4456 
L 2266 4456 
L 2266 0 
L 1666 0 
L 1666 3169 
L 613 3169 
z
" transform="scale(0.015625)"/>
       </defs>
       <use xlink:href="#Helvetica-31"/>
       <use xlink:href="#Helvetica-30" x="55.615234"/>
       <use xlink:href="#Helvetica-30" x="111.230469"/>
      </g>
     </g>
    </g>
    <g id="ytick_7">
     <g id="line2d_7">
      <g>
       <use xlink:href="#mbc1dddd327" x="10.005084" y="4.076256" style="fill: #777777; stroke: #777777; stroke-width: 0.5"/>
      </g>
     </g>
     <g id="text_10">
      <!-- 120 -->
      <g style="fill: #333333" transform="translate(3.00024 5.152271) scale(0.03 -0.03)">
       <use xlink:href="#Helvetica-31"/>
       <use xlink:href="#Helvetica-32" x="55.615234"/>
       <use xlink:href="#Helvetica-30" x="111.230469"/>
      </g>
     </g>
    </g>
   </g>
   <g id="PolyCollection_1">
    <defs>
     <path id="mc5abf7f21d" d="M 22.576904 -20.517132 
L 21.418156 -20.517132 
L 21.235087 -20.651147 
L 21.014967 -20.785162 
L 20.756121 -20.919177 
L 20.4579 -21.053192 
L 20.120585 -21.187207 
L 19.745188 -21.321222 
L 19.333213 -21.455237 
L 18.886476 -21.589252 
L 18.407074 -21.723267 
L 17.89756 -21.857282 
L 17.361367 -21.991297 
L 16.803398 -22.125312 
L 16.230683 -22.259327 
L 15.652905 -22.393342 
L 15.082614 -22.527357 
L 14.534935 -22.661372 
L 14.026687 -22.795387 
L 13.574917 -22.929402 
L 13.195007 -23.063417 
L 12.898604 -23.197432 
L 12.691756 -23.331447 
L 12.573572 -23.465463 
L 12.535742 -23.599478 
L 12.563061 -23.733493 
L 12.634957 -23.867508 
L 12.727854 -24.001523 
L 12.818039 -24.135538 
L 12.884654 -24.269553 
L 12.912399 -24.403568 
L 12.893585 -24.537583 
L 12.829293 -24.671598 
L 12.729472 -24.805613 
L 12.611962 -24.939628 
L 12.500528 -25.073643 
L 12.422105 -25.207658 
L 12.403573 -25.341673 
L 12.468432 -25.475688 
L 12.633811 -25.609703 
L 12.908211 -25.743718 
L 13.290295 -25.877733 
L 13.768897 -26.011748 
L 14.324195 -26.145763 
L 14.929869 -26.279778 
L 15.55585 -26.413793 
L 16.171281 -26.547808 
L 16.747267 -26.681823 
L 17.259143 -26.815838 
L 17.688078 -26.949853 
L 18.021989 -27.083868 
L 18.255813 -27.217883 
L 18.391239 -27.351898 
L 18.436011 -27.485913 
L 18.402878 -27.619928 
L 18.308284 -27.753943 
L 18.170873 -27.887958 
L 18.009914 -28.021973 
L 17.843801 -28.155988 
L 17.688768 -28.290003 
L 17.557988 -28.424018 
L 17.461144 -28.558033 
L 17.404507 -28.692048 
L 17.39142 -28.826063 
L 17.423048 -28.960078 
L 17.499173 -29.094093 
L 17.618824 -29.228108 
L 17.780606 -29.362123 
L 17.982668 -29.496138 
L 18.222377 -29.630153 
L 18.495832 -29.764168 
L 18.797426 -29.898183 
L 19.119611 -30.032198 
L 19.452992 -30.166213 
L 19.786778 -30.300229 
L 20.109506 -30.434244 
L 20.40993 -30.568259 
L 20.677898 -30.702274 
L 20.905101 -30.836289 
L 21.085604 -30.970304 
L 21.216126 -31.104319 
L 21.296127 -31.238334 
L 21.327731 -31.372349 
L 21.315548 -31.506364 
L 21.266426 -31.640379 
L 21.189127 -31.774394 
L 21.093884 -31.908409 
L 20.991819 -32.042424 
L 20.894207 -32.176439 
L 20.811615 -32.310454 
L 20.753006 -32.444469 
L 20.724925 -32.578484 
L 20.730907 -32.712499 
L 20.771219 -32.846514 
L 20.842994 -32.980529 
L 20.94074 -33.114544 
L 21.057158 -33.248559 
L 21.184106 -33.382574 
L 21.313577 -33.516589 
L 21.438518 -33.650604 
L 21.553414 -33.784619 
L 22.441646 -33.784619 
L 22.441646 -33.784619 
L 22.556541 -33.650604 
L 22.681483 -33.516589 
L 22.810953 -33.382574 
L 22.937902 -33.248559 
L 23.05432 -33.114544 
L 23.152066 -32.980529 
L 23.22384 -32.846514 
L 23.264153 -32.712499 
L 23.270135 -32.578484 
L 23.242053 -32.444469 
L 23.183444 -32.310454 
L 23.100853 -32.176439 
L 23.003241 -32.042424 
L 22.901176 -31.908409 
L 22.805932 -31.774394 
L 22.728633 -31.640379 
L 22.679512 -31.506364 
L 22.667328 -31.372349 
L 22.698932 -31.238334 
L 22.778934 -31.104319 
L 22.909456 -30.970304 
L 23.089958 -30.836289 
L 23.317162 -30.702274 
L 23.58513 -30.568259 
L 23.885554 -30.434244 
L 24.208282 -30.300229 
L 24.542068 -30.166213 
L 24.875449 -30.032198 
L 25.197634 -29.898183 
L 25.499228 -29.764168 
L 25.772683 -29.630153 
L 26.012391 -29.496138 
L 26.214453 -29.362123 
L 26.376235 -29.228108 
L 26.495886 -29.094093 
L 26.572011 -28.960078 
L 26.60364 -28.826063 
L 26.590552 -28.692048 
L 26.533915 -28.558033 
L 26.437072 -28.424018 
L 26.306291 -28.290003 
L 26.151258 -28.155988 
L 25.985145 -28.021973 
L 25.824187 -27.887958 
L 25.686775 -27.753943 
L 25.592182 -27.619928 
L 25.559048 -27.485913 
L 25.60382 -27.351898 
L 25.739247 -27.217883 
L 25.97307 -27.083868 
L 26.306981 -26.949853 
L 26.735917 -26.815838 
L 27.247793 -26.681823 
L 27.823779 -26.547808 
L 28.43921 -26.413793 
L 29.065191 -26.279778 
L 29.670864 -26.145763 
L 30.226163 -26.011748 
L 30.704764 -25.877733 
L 31.086849 -25.743718 
L 31.361248 -25.609703 
L 31.526627 -25.475688 
L 31.591487 -25.341673 
L 31.572955 -25.207658 
L 31.494532 -25.073643 
L 31.383097 -24.939628 
L 31.265588 -24.805613 
L 31.165767 -24.671598 
L 31.101475 -24.537583 
L 31.082661 -24.403568 
L 31.110405 -24.269553 
L 31.177021 -24.135538 
L 31.267206 -24.001523 
L 31.360102 -23.867508 
L 31.431999 -23.733493 
L 31.459318 -23.599478 
L 31.421488 -23.465463 
L 31.303304 -23.331447 
L 31.096455 -23.197432 
L 30.800053 -23.063417 
L 30.420142 -22.929402 
L 29.968373 -22.795387 
L 29.460125 -22.661372 
L 28.912445 -22.527357 
L 28.342154 -22.393342 
L 27.764377 -22.259327 
L 27.191662 -22.125312 
L 26.633693 -21.991297 
L 26.0975 -21.857282 
L 25.587986 -21.723267 
L 25.108583 -21.589252 
L 24.661847 -21.455237 
L 24.249872 -21.321222 
L 23.874474 -21.187207 
L 23.53716 -21.053192 
L 23.238939 -20.919177 
L 22.980092 -20.785162 
L 22.759972 -20.651147 
L 22.576904 -20.517132 
z
" style="stroke: #6f6f6f; stroke-width: 0.15"/>
    </defs>
    <g clip-path="url(#p51438fc146)">
     <use xlink:href="#mc5abf7f21d" x="0" y="84.96" style="fill: #abc9ea; stroke: #6f6f6f; stroke-width: 0.15"/>
    </g>
   </g>
   <g id="PolyCollection_2">
    <defs>
     <path id="m9cc20093c1" d="M 46.707046 -19.681959 
L 45.257798 -19.681959 
L 45.058152 -19.956951 
L 44.822766 -20.231944 
L 44.550431 -20.506937 
L 44.241058 -20.78193 
L 43.895752 -21.056922 
L 43.51681 -21.331915 
L 43.107634 -21.606908 
L 42.672602 -21.881901 
L 42.216906 -22.156894 
L 41.746386 -22.431886 
L 41.267397 -22.706879 
L 40.786688 -22.981872 
L 40.3113 -23.256865 
L 39.84845 -23.531857 
L 39.405353 -23.80685 
L 38.988969 -24.081843 
L 38.605633 -24.356836 
L 38.2606 -24.631828 
L 37.957538 -24.906821 
L 37.698047 -25.181814 
L 37.481308 -25.456807 
L 37.303959 -25.7318 
L 37.16029 -26.006792 
L 37.042802 -26.281785 
L 36.943108 -26.556778 
L 36.853117 -26.831771 
L 36.766334 -27.106763 
L 36.679105 -27.381756 
L 36.591601 -27.656749 
L 36.508334 -27.931742 
L 36.438096 -28.206734 
L 36.393256 -28.481727 
L 36.388465 -28.75672 
L 36.438935 -29.031713 
L 36.55851 -29.306705 
L 36.757819 -29.581698 
L 37.042774 -29.856691 
L 37.413633 -30.131684 
L 37.864774 -30.406677 
L 38.385179 -30.681669 
L 38.959534 -30.956662 
L 39.569769 -31.231655 
L 40.19678 -31.506648 
L 40.822088 -31.78164 
L 41.429215 -32.056633 
L 42.004636 -32.331626 
L 42.538236 -32.606619 
L 43.023296 -32.881611 
L 43.456106 -33.156604 
L 43.835327 -33.431597 
L 44.161247 -33.70659 
L 44.435071 -33.981582 
L 44.658323 -34.256575 
L 44.832438 -34.531568 
L 44.958544 -34.806561 
L 45.037428 -35.081554 
L 45.069648 -35.356546 
L 45.055735 -35.631539 
L 44.996449 -35.906532 
L 44.893037 -36.181525 
L 44.747455 -36.456517 
L 44.562543 -36.73151 
L 44.342134 -37.006503 
L 44.091081 -37.281496 
L 43.815237 -37.556488 
L 43.521369 -37.831481 
L 43.217027 -38.106474 
L 42.910389 -38.381467 
L 42.610063 -38.65646 
L 42.324865 -38.931452 
L 42.063551 -39.206445 
L 41.834511 -39.481438 
L 41.645403 -39.756431 
L 41.502762 -40.031423 
L 41.411587 -40.306416 
L 41.374966 -40.581409 
L 41.393784 -40.856402 
L 41.466572 -41.131394 
L 41.589547 -41.406387 
L 41.756859 -41.68138 
L 41.961042 -41.956373 
L 42.193613 -42.231365 
L 42.445761 -42.506358 
L 42.709023 -42.781351 
L 42.975861 -43.056344 
L 43.240074 -43.331337 
L 43.496988 -43.606329 
L 43.743447 -43.881322 
L 43.97761 -44.156315 
L 44.198637 -44.431308 
L 44.406319 -44.7063 
L 44.600739 -44.981293 
L 44.782007 -45.256286 
L 44.950097 -45.531279 
L 45.104806 -45.806271 
L 45.245801 -46.081264 
L 45.372724 -46.356257 
L 45.485324 -46.63125 
L 45.583578 -46.906242 
L 46.381266 -46.906242 
L 46.381266 -46.906242 
L 46.47952 -46.63125 
L 46.59212 -46.356257 
L 46.719042 -46.081264 
L 46.860037 -45.806271 
L 47.014747 -45.531279 
L 47.182837 -45.256286 
L 47.364105 -44.981293 
L 47.558525 -44.7063 
L 47.766207 -44.431308 
L 47.987234 -44.156315 
L 48.221397 -43.881322 
L 48.467856 -43.606329 
L 48.72477 -43.331337 
L 48.988982 -43.056344 
L 49.255821 -42.781351 
L 49.519083 -42.506358 
L 49.771231 -42.231365 
L 50.003802 -41.956373 
L 50.207984 -41.68138 
L 50.375297 -41.406387 
L 50.498272 -41.131394 
L 50.571059 -40.856402 
L 50.589877 -40.581409 
L 50.553257 -40.306416 
L 50.462082 -40.031423 
L 50.319441 -39.756431 
L 50.130333 -39.481438 
L 49.901293 -39.206445 
L 49.639979 -38.931452 
L 49.354781 -38.65646 
L 49.054455 -38.381467 
L 48.747817 -38.106474 
L 48.443475 -37.831481 
L 48.149607 -37.556488 
L 47.873763 -37.281496 
L 47.62271 -37.006503 
L 47.4023 -36.73151 
L 47.217389 -36.456517 
L 47.071807 -36.181525 
L 46.968395 -35.906532 
L 46.909109 -35.631539 
L 46.895196 -35.356546 
L 46.927415 -35.081554 
L 47.0063 -34.806561 
L 47.132406 -34.531568 
L 47.30652 -34.256575 
L 47.529773 -33.981582 
L 47.803596 -33.70659 
L 48.129517 -33.431597 
L 48.508737 -33.156604 
L 48.941548 -32.881611 
L 49.426608 -32.606619 
L 49.960208 -32.331626 
L 50.535629 -32.056633 
L 51.142756 -31.78164 
L 51.768063 -31.506648 
L 52.395074 -31.231655 
L 53.00531 -30.956662 
L 53.579665 -30.681669 
L 54.100069 -30.406677 
L 54.551211 -30.131684 
L 54.92207 -29.856691 
L 55.207024 -29.581698 
L 55.406334 -29.306705 
L 55.525909 -29.031713 
L 55.576379 -28.75672 
L 55.571588 -28.481727 
L 55.526747 -28.206734 
L 55.45651 -27.931742 
L 55.373243 -27.656749 
L 55.285738 -27.381756 
L 55.19851 -27.106763 
L 55.111727 -26.831771 
L 55.021736 -26.556778 
L 54.922042 -26.281785 
L 54.804553 -26.006792 
L 54.660885 -25.7318 
L 54.483535 -25.456807 
L 54.266796 -25.181814 
L 54.007306 -24.906821 
L 53.704244 -24.631828 
L 53.359211 -24.356836 
L 52.975875 -24.081843 
L 52.559491 -23.80685 
L 52.116394 -23.531857 
L 51.653544 -23.256865 
L 51.178156 -22.981872 
L 50.697447 -22.706879 
L 50.218458 -22.431886 
L 49.747938 -22.156894 
L 49.292241 -21.881901 
L 48.85721 -21.606908 
L 48.448034 -21.331915 
L 48.069091 -21.056922 
L 47.723786 -20.78193 
L 47.414413 -20.506937 
L 47.142078 -20.231944 
L 46.906692 -19.956951 
L 46.707046 -19.681959 
z
" style="stroke: #6f6f6f; stroke-width: 0.15"/>
    </defs>
    <g clip-path="url(#p51438fc146)">
     <use xlink:href="#m9cc20093c1" x="0" y="84.96" style="fill: #efb792; stroke: #6f6f6f; stroke-width: 0.15"/>
    </g>
   </g>
   <g id="PolyCollection_3">
    <defs>
     <path id="m762b213d78" d="M 70.441422 -27.529642 
L 69.493206 -27.529642 
L 69.369281 -27.782471 
L 69.228248 -28.035301 
L 69.071988 -28.28813 
L 68.90345 -28.54096 
L 68.72649 -28.793789 
L 68.545572 -29.046619 
L 68.365348 -29.299448 
L 68.190159 -29.552278 
L 68.023495 -29.805107 
L 67.867492 -30.057937 
L 67.722512 -30.310766 
L 67.586875 -30.563596 
L 67.4568 -30.816425 
L 67.326579 -31.069255 
L 67.189017 -31.322084 
L 67.036132 -31.574914 
L 66.860081 -31.827743 
L 66.654236 -32.080573 
L 66.414311 -32.333402 
L 66.139395 -32.586232 
L 65.832726 -32.839061 
L 65.502064 -33.091891 
L 65.159518 -33.34472 
L 64.82079 -33.597549 
L 64.503826 -33.850379 
L 64.227031 -34.103208 
L 64.007226 -34.356038 
L 63.85764 -34.608867 
L 63.786235 -34.861697 
L 63.794626 -35.114526 
L 63.877797 -35.367356 
L 64.024679 -35.620185 
L 64.219527 -35.873015 
L 64.443889 -36.125844 
L 64.678884 -36.378674 
L 64.907415 -36.631503 
L 65.116001 -36.884333 
L 65.295937 -37.137162 
L 65.443635 -37.389992 
L 65.56013 -37.642821 
L 65.649857 -37.895651 
L 65.718941 -38.14848 
L 65.773297 -38.40131 
L 65.81688 -38.654139 
L 65.850361 -38.906969 
L 65.870475 -39.159798 
L 65.870134 -39.412627 
L 65.839312 -39.665457 
L 65.766553 -39.918286 
L 65.64086 -40.171116 
L 65.453674 -40.423945 
L 65.200585 -40.676775 
L 64.8825 -40.929604 
L 64.506036 -41.182434 
L 64.083085 -41.435263 
L 63.629577 -41.688093 
L 63.163682 -41.940922 
L 62.703745 -42.193752 
L 62.266314 -42.446581 
L 61.864611 -42.699411 
L 61.507678 -42.95224 
L 61.200311 -43.20507 
L 60.943724 -43.457899 
L 60.73674 -43.710729 
L 60.577226 -43.963558 
L 60.463436 -44.216388 
L 60.394995 -44.469217 
L 60.373357 -44.722047 
L 60.401673 -44.974876 
L 60.484167 -45.227705 
L 60.625181 -45.480535 
L 60.82811 -45.733364 
L 61.094435 -45.986194 
L 61.423009 -46.239023 
L 61.809693 -46.491853 
L 62.247363 -46.744682 
L 62.726255 -46.997512 
L 63.234585 -47.250341 
L 63.759354 -47.503171 
L 64.287262 -47.756 
L 64.80564 -48.00883 
L 65.303321 -48.261659 
L 65.771364 -48.514489 
L 66.203562 -48.767318 
L 66.596673 -49.020148 
L 66.950333 -49.272977 
L 67.266682 -49.525807 
L 67.54973 -49.778636 
L 67.804573 -50.031466 
L 68.036569 -50.284295 
L 68.2506 -50.537125 
L 68.450513 -50.789954 
L 68.63881 -51.042783 
L 68.816606 -51.295613 
L 68.983809 -51.548442 
L 69.139473 -51.801272 
L 69.282224 -52.054101 
L 69.410678 -52.306931 
L 69.523785 -52.55976 
L 70.410843 -52.55976 
L 70.410843 -52.55976 
L 70.52395 -52.306931 
L 70.652404 -52.054101 
L 70.795154 -51.801272 
L 70.950819 -51.548442 
L 71.118022 -51.295613 
L 71.295818 -51.042783 
L 71.484115 -50.789954 
L 71.684028 -50.537125 
L 71.898059 -50.284295 
L 72.130055 -50.031466 
L 72.384898 -49.778636 
L 72.667946 -49.525807 
L 72.984295 -49.272977 
L 73.337955 -49.020148 
L 73.731066 -48.767318 
L 74.163264 -48.514489 
L 74.631307 -48.261659 
L 75.128988 -48.00883 
L 75.647366 -47.756 
L 76.175274 -47.503171 
L 76.700043 -47.250341 
L 77.208373 -46.997512 
L 77.687265 -46.744682 
L 78.124935 -46.491853 
L 78.511619 -46.239023 
L 78.840193 -45.986194 
L 79.106518 -45.733364 
L 79.309447 -45.480535 
L 79.450461 -45.227705 
L 79.532955 -44.974876 
L 79.561271 -44.722047 
L 79.539633 -44.469217 
L 79.471192 -44.216388 
L 79.357402 -43.963558 
L 79.197888 -43.710729 
L 78.990904 -43.457899 
L 78.734317 -43.20507 
L 78.42695 -42.95224 
L 78.070017 -42.699411 
L 77.668314 -42.446581 
L 77.230883 -42.193752 
L 76.770946 -41.940922 
L 76.305051 -41.688093 
L 75.851543 -41.435263 
L 75.428592 -41.182434 
L 75.052128 -40.929604 
L 74.734043 -40.676775 
L 74.480954 -40.423945 
L 74.293768 -40.171116 
L 74.168075 -39.918286 
L 74.095315 -39.665457 
L 74.064494 -39.412627 
L 74.064153 -39.159798 
L 74.084267 -38.906969 
L 74.117748 -38.654139 
L 74.161331 -38.40131 
L 74.215687 -38.14848 
L 74.284771 -37.895651 
L 74.374498 -37.642821 
L 74.490993 -37.389992 
L 74.638691 -37.137162 
L 74.818627 -36.884333 
L 75.027213 -36.631503 
L 75.255744 -36.378674 
L 75.490739 -36.125844 
L 75.715101 -35.873015 
L 75.909948 -35.620185 
L 76.056831 -35.367356 
L 76.140002 -35.114526 
L 76.148393 -34.861697 
L 76.076988 -34.608867 
L 75.927402 -34.356038 
L 75.707597 -34.103208 
L 75.430802 -33.850379 
L 75.113838 -33.597549 
L 74.77511 -33.34472 
L 74.432564 -33.091891 
L 74.101902 -32.839061 
L 73.795233 -32.586232 
L 73.520317 -32.333402 
L 73.280392 -32.080573 
L 73.074547 -31.827743 
L 72.898496 -31.574914 
L 72.745611 -31.322084 
L 72.608049 -31.069255 
L 72.477828 -30.816425 
L 72.347753 -30.563596 
L 72.212116 -30.310766 
L 72.067136 -30.057937 
L 71.911133 -29.805107 
L 71.744469 -29.552278 
L 71.56928 -29.299448 
L 71.389056 -29.046619 
L 71.208138 -28.793789 
L 71.031178 -28.54096 
L 70.86264 -28.28813 
L 70.70638 -28.035301 
L 70.565347 -27.782471 
L 70.441422 -27.529642 
z
" style="stroke: #6f6f6f; stroke-width: 0.15"/>
    </defs>
    <g clip-path="url(#p51438fc146)">
     <use xlink:href="#m762b213d78" x="0" y="84.96" style="fill: #98daa7; stroke: #6f6f6f; stroke-width: 0.15"/>
    </g>
   </g>
   <g id="line2d_8">
    <path d="M 21.99753 63.289308 
L 21.99753 55.088336 
" clip-path="url(#p51438fc146)" style="fill: none; stroke: #8c8c8c; stroke-width: 0.75; stroke-linecap: round"/>
   </g>
   <g id="line2d_9">
    <path d="M 21.99753 61.397321 
L 21.99753 57.862393 
" clip-path="url(#p51438fc146)" style="fill: none; stroke: #8c8c8c; stroke-width: 4; stroke-linecap: round"/>
   </g>
   <g id="line2d_10">
    <path d="M 21.99753 59.629834 
" clip-path="url(#p51438fc146)" style="fill: none; stroke: #6f6f6f; stroke-width: 1.2; stroke-linecap: round"/>
    <defs>
     <path id="mab2598a351" d="M 0 0.833333 
C 0.221003 0.833333 0.432983 0.745528 0.589256 0.589256 
C 0.745528 0.432983 0.833333 0.221003 0.833333 0 
C 0.833333 -0.221003 0.745528 -0.432983 0.589256 -0.589256 
C 0.432983 -0.745528 0.221003 -0.833333 0 -0.833333 
C -0.221003 -0.833333 -0.432983 -0.745528 -0.589256 -0.589256 
C -0.745528 -0.432983 -0.833333 -0.221003 -0.833333 0 
C -0.833333 0.221003 -0.745528 0.432983 -0.589256 0.589256 
C -0.432983 0.745528 -0.221003 0.833333 0 0.833333 
z
" style="stroke: #ffffff; stroke-width: 0.8"/>
    </defs>
    <g clip-path="url(#p51438fc146)">
     <use xlink:href="#mab2598a351" x="21.99753" y="59.629834" style="fill: #ffffff; stroke: #ffffff; stroke-width: 0.8"/>
    </g>
   </g>
   <g id="line2d_11">
    <path d="M 45.982422 62.519808 
L 45.982422 40.811991 
" clip-path="url(#p51438fc146)" style="fill: none; stroke: #8c8c8c; stroke-width: 0.75; stroke-linecap: round"/>
   </g>
   <g id="line2d_12">
    <path d="M 45.982422 59.314787 
L 45.982422 50.809915 
" clip-path="url(#p51438fc146)" style="fill: none; stroke: #8c8c8c; stroke-width: 4; stroke-linecap: round"/>
   </g>
   <g id="line2d_13">
    <path d="M 45.982422 55.516026 
" clip-path="url(#p51438fc146)" style="fill: none; stroke: #6f6f6f; stroke-width: 1.2; stroke-linecap: round"/>
    <g clip-path="url(#p51438fc146)">
     <use xlink:href="#mab2598a351" x="45.982422" y="55.516026" style="fill: #ffffff; stroke: #ffffff; stroke-width: 0.8"/>
    </g>
   </g>
   <g id="line2d_14">
    <path d="M 69.967314 55.054312 
L 69.967314 34.776285 
" clip-path="url(#p51438fc146)" style="fill: none; stroke: #8c8c8c; stroke-width: 0.75; stroke-linecap: round"/>
   </g>
   <g id="line2d_15">
    <path d="M 69.967314 49.587947 
L 69.967314 39.463045 
" clip-path="url(#p51438fc146)" style="fill: none; stroke: #8c8c8c; stroke-width: 4; stroke-linecap: round"/>
   </g>
   <g id="line2d_16">
    <path d="M 69.967314 42.535379 
" clip-path="url(#p51438fc146)" style="fill: none; stroke: #6f6f6f; stroke-width: 1.2; stroke-linecap: round"/>
    <g clip-path="url(#p51438fc146)">
     <use xlink:href="#mab2598a351" x="69.967314" y="42.535379" style="fill: #ffffff; stroke: #ffffff; stroke-width: 0.8"/>
    </g>
   </g>
   <g id="patch_3">
    <path d="M 10.005084 74.419526 
L 10.005084 4.076256 
" style="fill: none; stroke: #777777; stroke-width: 0.5; stroke-linejoin: miter; stroke-linecap: square"/>
   </g>
   <g id="patch_4">
    <path d="M 10.005084 76.919526 
L 81.95976 76.919526 
" style="fill: none; stroke: #777777; stroke-width: 0.5; stroke-linejoin: miter; stroke-linecap: square"/>
   </g>
  </g>
 </g>
 <defs>
  <clipPath id="p51438fc146">
   <rect x="10.005084" y="4.076256" width="71.954676" height="70.34327"/>
  </clipPath>
 </defs>
</svg>
