<?xml version="1.0" encoding="utf-8" standalone="no"?>
<!DOCTYPE svg PUBLIC "-//W3C//DTD SVG 1.1//EN"
  "http://www.w3.org/Graphics/SVG/1.1/DTD/svg11.dtd">
<svg xmlns:xlink="http://www.w3.org/1999/xlink" width="84.96pt" height="84.96pt" viewBox="0 0 84.96 84.96" xmlns="http://www.w3.org/2000/svg" version="1.1">
 <metadata>
  <rdf:RDF xmlns:dc="http://purl.org/dc/elements/1.1/" xmlns:cc="http://creativecommons.org/ns#" xmlns:rdf="http://www.w3.org/1999/02/22-rdf-syntax-ns#">
   <cc:Work>
    <dc:type rdf:resource="http://purl.org/dc/dcmitype/StillImage"/>
    <dc:date>2024-05-27T15:37:03.444998</dc:date>
    <dc:format>image/svg+xml</dc:format>
    <dc:creator>
     <cc:Agent>
      <dc:title>Matplotlib v3.8.3, https://matplotlib.org/</dc:title>
     </cc:Agent>
    </dc:creator>
   </cc:Work>
  </rdf:RDF>
 </metadata>
 <defs>
  <style type="text/css">*{stroke-linejoin: round; stroke-linecap: butt}</style>
 </defs>
 <g id="figure_1">
  <g id="patch_1">
   <path d="M 0 84.96 
L 84.96 84.96 
L 84.96 0 
L 0 0 
z
" style="fill: #ffffff"/>
  </g>
  <g id="axes_1">
   <g id="patch_2">
    <path d="M 8.336802 74.419526 
L 81.95976 74.419526 
L 81.95976 4.076256 
L 8.336802 4.076256 
z
" style="fill: #ffffff"/>
   </g>
   <g id="matplotlib.axis_1">
    <g id="xtick_1">
     <g id="text_1">
      <!-- NK/ILC1ie -->
      <g style="fill: #333333" transform="translate(12.63167 81.230229) scale(0.035 -0.035)">
       <defs>
        <path id="Helvetica-4e" d="M 488 4591 
L 1222 4591 
L 3541 872 
L 3541 4591 
L 4131 4591 
L 4131 0 
L 3434 0 
L 1081 3716 
L 1081 0 
L 488 0 
L 488 4591 
z
M 2269 4591 
L 2269 4591 
z
" transform="scale(0.015625)"/>
        <path id="Helvetica-4b" d="M 488 4591 
L 1094 4591 
L 1094 2353 
L 3331 4591 
L 4191 4591 
L 2281 2741 
L 4244 0 
L 3434 0 
L 1828 2303 
L 1094 1600 
L 1094 0 
L 488 0 
L 488 4591 
z
" transform="scale(0.015625)"/>
        <path id="Helvetica-2f" d="M 1456 4591 
L 1931 4591 
L 475 0 
L 0 0 
L 1456 4591 
z
" transform="scale(0.015625)"/>
        <path id="Helvetica-49" d="M 628 4591 
L 1256 4591 
L 1256 0 
L 628 0 
L 628 4591 
z
" transform="scale(0.015625)"/>
        <path id="Helvetica-4c" d="M 488 4591 
L 1109 4591 
L 1109 547 
L 3434 547 
L 3434 0 
L 488 0 
L 488 4591 
z
" transform="scale(0.015625)"/>
        <path id="Helvetica-43" d="M 2422 4716 
Q 3294 4716 3775 4256 
Q 4256 3797 4309 3213 
L 3703 3213 
Q 3600 3656 3292 3915 
Q 2984 4175 2428 4175 
Q 1750 4175 1333 3698 
Q 916 3222 916 2238 
Q 916 1431 1292 929 
Q 1669 428 2416 428 
Q 3103 428 3463 956 
Q 3653 1234 3747 1688 
L 4353 1688 
Q 4272 963 3816 472 
Q 3269 -119 2341 -119 
Q 1541 -119 997 366 
Q 281 1006 281 2344 
Q 281 3359 819 4009 
Q 1400 4716 2422 4716 
z
M 2297 4716 
L 2297 4716 
z
" transform="scale(0.015625)"/>
        <path id="Helvetica-31" d="M 613 3169 
L 613 3600 
Q 1222 3659 1462 3798 
Q 1703 3938 1822 4456 
L 2266 4456 
L 2266 0 
L 1666 0 
L 1666 3169 
L 613 3169 
z
" transform="scale(0.015625)"/>
        <path id="Helvetica-69" d="M 413 3331 
L 984 3331 
L 984 0 
L 413 0 
L 413 3331 
z
M 413 4591 
L 984 4591 
L 984 3953 
L 413 3953 
L 413 4591 
z
" transform="scale(0.015625)"/>
        <path id="Helvetica-65" d="M 1806 3422 
Q 2163 3422 2497 3255 
Q 2831 3088 3006 2822 
Q 3175 2569 3231 2231 
Q 3281 2000 3281 1494 
L 828 1494 
Q 844 984 1069 676 
Q 1294 369 1766 369 
Q 2206 369 2469 659 
Q 2619 828 2681 1050 
L 3234 1050 
Q 3213 866 3089 639 
Q 2966 413 2813 269 
Q 2556 19 2178 -69 
Q 1975 -119 1719 -119 
Q 1094 -119 659 336 
Q 225 791 225 1609 
Q 225 2416 662 2919 
Q 1100 3422 1806 3422 
z
M 2703 1941 
Q 2669 2306 2544 2525 
Q 2313 2931 1772 2931 
Q 1384 2931 1121 2651 
Q 859 2372 844 1941 
L 2703 1941 
z
M 1753 3428 
L 1753 3428 
z
" transform="scale(0.015625)"/>
       </defs>
       <use xlink:href="#Helvetica-4e"/>
       <use xlink:href="#Helvetica-4b" x="72.216797"/>
       <use xlink:href="#Helvetica-2f" x="138.916016"/>
       <use xlink:href="#Helvetica-49" x="166.699219"/>
       <use xlink:href="#Helvetica-4c" x="194.482422"/>
       <use xlink:href="#Helvetica-43" x="250.097656"/>
       <use xlink:href="#Helvetica-31" x="322.314453"/>
       <use xlink:href="#Helvetica-69" x="377.929688"/>
       <use xlink:href="#Helvetica-65" x="400.146484"/>
      </g>
     </g>
    </g>
    <g id="xtick_2">
     <g id="text_2">
      <!-- ILC1 -->
      <g style="fill: #333333" transform="translate(41.451953 81.230229) scale(0.035 -0.035)">
       <use xlink:href="#Helvetica-49"/>
       <use xlink:href="#Helvetica-4c" x="27.783203"/>
       <use xlink:href="#Helvetica-43" x="83.398438"/>
       <use xlink:href="#Helvetica-31" x="155.615234"/>
      </g>
     </g>
    </g>
    <g id="xtick_3">
     <g id="text_3">
      <!-- TH1 -->
      <g style="fill: #333333" transform="translate(66.383408 81.230229) scale(0.035 -0.035)">
       <defs>
        <path id="Helvetica-54" d="M 3828 4591 
L 3828 4044 
L 2281 4044 
L 2281 0 
L 1650 0 
L 1650 4044 
L 103 4044 
L 103 4591 
L 3828 4591 
z
" transform="scale(0.015625)"/>
        <path id="Helvetica-48" d="M 503 4591 
L 1131 4591 
L 1131 2694 
L 3519 2694 
L 3519 4591 
L 4147 4591 
L 4147 0 
L 3519 0 
L 3519 2147 
L 1131 2147 
L 1131 0 
L 503 0 
L 503 4591 
z
" transform="scale(0.015625)"/>
       </defs>
       <use xlink:href="#Helvetica-54"/>
       <use xlink:href="#Helvetica-48" x="61.083984"/>
       <use xlink:href="#Helvetica-31" x="133.300781"/>
      </g>
     </g>
    </g>
   </g>
   <g id="matplotlib.axis_2">
    <g id="ytick_1">
     <g id="line2d_1">
      <defs>
       <path id="mad1d26398e" d="M 0 0 
L -1 0 
" style="stroke: #777777; stroke-width: 0.5"/>
      </defs>
      <g>
       <use xlink:href="#mad1d26398e" x="8.336802" y="66.995102" style="fill: #777777; stroke: #777777; stroke-width: 0.5"/>
      </g>
     </g>
     <g id="text_4">
      <!-- 0 -->
      <g style="fill: #333333" transform="translate(4.668521 68.071117) scale(0.03 -0.03)">
       <defs>
        <path id="Helvetica-30" d="M 1731 4475 
Q 2600 4475 2988 3759 
Q 3288 3206 3288 2244 
Q 3288 1331 3016 734 
Q 2622 -122 1728 -122 
Q 922 -122 528 578 
Q 200 1163 200 2147 
Q 200 2909 397 3456 
Q 766 4475 1731 4475 
z
M 1725 391 
Q 2163 391 2422 778 
Q 2681 1166 2681 2222 
Q 2681 2984 2493 3476 
Q 2306 3969 1766 3969 
Q 1269 3969 1039 3501 
Q 809 3034 809 2125 
Q 809 1441 956 1025 
Q 1181 391 1725 391 
z
" transform="scale(0.015625)"/>
       </defs>
       <use xlink:href="#Helvetica-30"/>
      </g>
     </g>
    </g>
    <g id="ytick_2">
     <g id="line2d_2">
      <g>
       <use xlink:href="#mad1d26398e" x="8.336802" y="54.411333" style="fill: #777777; stroke: #777777; stroke-width: 0.5"/>
      </g>
     </g>
     <g id="text_5">
      <!-- 10 -->
      <g style="fill: #333333" transform="translate(3.00024 55.487348) scale(0.03 -0.03)">
       <use xlink:href="#Helvetica-31"/>
       <use xlink:href="#Helvetica-30" x="55.615234"/>
      </g>
     </g>
    </g>
    <g id="ytick_3">
     <g id="line2d_3">
      <g>
       <use xlink:href="#mad1d26398e" x="8.336802" y="41.827563" style="fill: #777777; stroke: #777777; stroke-width: 0.5"/>
      </g>
     </g>
     <g id="text_6">
      <!-- 20 -->
      <g style="fill: #333333" transform="translate(3.00024 42.903579) scale(0.03 -0.03)">
       <defs>
        <path id="Helvetica-32" d="M 200 0 
Q 231 578 439 1006 
Q 647 1434 1250 1784 
L 1850 2131 
Q 2253 2366 2416 2531 
Q 2672 2791 2672 3125 
Q 2672 3516 2437 3745 
Q 2203 3975 1813 3975 
Q 1234 3975 1013 3538 
Q 894 3303 881 2888 
L 309 2888 
Q 319 3472 525 3841 
Q 891 4491 1816 4491 
Q 2584 4491 2939 4075 
Q 3294 3659 3294 3150 
Q 3294 2613 2916 2231 
Q 2697 2009 2131 1694 
L 1703 1456 
Q 1397 1288 1222 1134 
Q 909 863 828 531 
L 3272 531 
L 3272 0 
L 200 0 
z
" transform="scale(0.015625)"/>
       </defs>
       <use xlink:href="#Helvetica-32"/>
       <use xlink:href="#Helvetica-30" x="55.615234"/>
      </g>
     </g>
    </g>
    <g id="ytick_4">
     <g id="line2d_4">
      <g>
       <use xlink:href="#mad1d26398e" x="8.336802" y="29.243794" style="fill: #777777; stroke: #777777; stroke-width: 0.5"/>
      </g>
     </g>
     <g id="text_7">
      <!-- 30 -->
      <g style="fill: #333333" transform="translate(3.00024 30.31981) scale(0.03 -0.03)">
       <defs>
        <path id="Helvetica-33" d="M 1663 -122 
Q 869 -122 511 314 
Q 153 750 153 1375 
L 741 1375 
Q 778 941 903 744 
Q 1122 391 1694 391 
Q 2138 391 2406 628 
Q 2675 866 2675 1241 
Q 2675 1703 2392 1887 
Q 2109 2072 1606 2072 
Q 1550 2072 1492 2070 
Q 1434 2069 1375 2066 
L 1375 2563 
Q 1463 2553 1522 2550 
Q 1581 2547 1650 2547 
Q 1966 2547 2169 2647 
Q 2525 2822 2525 3272 
Q 2525 3606 2287 3787 
Q 2050 3969 1734 3969 
Q 1172 3969 956 3594 
Q 838 3388 822 3006 
L 266 3006 
Q 266 3506 466 3856 
Q 809 4481 1675 4481 
Q 2359 4481 2734 4176 
Q 3109 3872 3109 3294 
Q 3109 2881 2888 2625 
Q 2750 2466 2531 2375 
Q 2884 2278 3082 2001 
Q 3281 1725 3281 1325 
Q 3281 684 2859 281 
Q 2438 -122 1663 -122 
z
" transform="scale(0.015625)"/>
       </defs>
       <use xlink:href="#Helvetica-33"/>
       <use xlink:href="#Helvetica-30" x="55.615234"/>
      </g>
     </g>
    </g>
    <g id="ytick_5">
     <g id="line2d_5">
      <g>
       <use xlink:href="#mad1d26398e" x="8.336802" y="16.660025" style="fill: #777777; stroke: #777777; stroke-width: 0.5"/>
      </g>
     </g>
     <g id="text_8">
      <!-- 40 -->
      <g style="fill: #333333" transform="translate(3.00024 17.73604) scale(0.03 -0.03)">
       <defs>
        <path id="Helvetica-34" d="M 2116 1584 
L 2116 3613 
L 681 1584 
L 2116 1584 
z
M 2125 0 
L 2125 1094 
L 163 1094 
L 163 1644 
L 2213 4488 
L 2688 4488 
L 2688 1584 
L 3347 1584 
L 3347 1094 
L 2688 1094 
L 2688 0 
L 2125 0 
z
" transform="scale(0.015625)"/>
       </defs>
       <use xlink:href="#Helvetica-34"/>
       <use xlink:href="#Helvetica-30" x="55.615234"/>
      </g>
     </g>
    </g>
    <g id="ytick_6">
     <g id="line2d_6">
      <g>
       <use xlink:href="#mad1d26398e" x="8.336802" y="4.076256" style="fill: #777777; stroke: #777777; stroke-width: 0.5"/>
      </g>
     </g>
     <g id="text_9">
      <!-- 50 -->
      <g style="fill: #333333" transform="translate(3.00024 5.152271) scale(0.03 -0.03)">
       <defs>
        <path id="Helvetica-35" d="M 791 1141 
Q 847 659 1238 475 
Q 1438 381 1700 381 
Q 2200 381 2440 700 
Q 2681 1019 2681 1406 
Q 2681 1875 2395 2131 
Q 2109 2388 1709 2388 
Q 1419 2388 1211 2275 
Q 1003 2163 856 1963 
L 369 1991 
L 709 4400 
L 3034 4400 
L 3034 3856 
L 1131 3856 
L 941 2613 
Q 1097 2731 1238 2791 
Q 1488 2894 1816 2894 
Q 2431 2894 2859 2497 
Q 3288 2100 3288 1491 
Q 3288 856 2895 371 
Q 2503 -113 1644 -113 
Q 1097 -113 676 195 
Q 256 503 206 1141 
L 791 1141 
z
" transform="scale(0.015625)"/>
       </defs>
       <use xlink:href="#Helvetica-35"/>
       <use xlink:href="#Helvetica-30" x="55.615234"/>
      </g>
     </g>
    </g>
   </g>
   <g id="PolyCollection_1">
    <defs>
     <path id="m033cef9bac" d="M 22.215106 -17.958122 
L 18.999485 -17.958122 
L 18.695758 -17.958686 
L 18.356588 -17.959251 
L 17.982518 -17.959815 
L 17.575107 -17.96038 
L 17.136986 -17.960944 
L 16.671871 -17.961509 
L 16.184524 -17.962073 
L 15.680664 -17.962638 
L 15.166829 -17.963203 
L 14.650195 -17.963767 
L 14.138363 -17.964332 
L 13.639129 -17.964896 
L 13.160253 -17.965461 
L 12.709232 -17.966025 
L 12.293099 -17.96659 
L 11.918258 -17.967154 
L 11.590352 -17.967719 
L 11.314173 -17.968283 
L 11.093616 -17.968848 
L 10.931657 -17.969413 
L 10.830361 -17.969977 
L 10.790901 -17.970542 
L 10.813587 -17.971106 
L 10.897886 -17.971671 
L 11.042446 -17.972235 
L 11.245103 -17.9728 
L 11.50289 -17.973364 
L 11.812049 -17.973929 
L 12.168044 -17.974493 
L 12.565599 -17.975058 
L 12.998756 -17.975623 
L 13.460966 -17.976187 
L 13.945207 -17.976752 
L 14.444138 -17.977316 
L 14.950273 -17.977881 
L 15.456173 -17.978445 
L 15.954647 -17.97901 
L 16.438937 -17.979574 
L 16.902895 -17.980139 
L 17.341116 -17.980703 
L 17.74905 -17.981268 
L 18.123057 -17.981833 
L 18.460425 -17.982397 
L 18.75935 -17.982962 
L 19.018874 -17.983526 
L 19.238801 -17.984091 
L 19.419601 -17.984655 
L 19.562297 -17.98522 
L 19.668366 -17.985784 
L 19.739644 -17.986349 
L 19.778248 -17.986913 
L 19.78652 -17.987478 
L 19.766988 -17.988043 
L 19.722338 -17.988607 
L 19.655407 -17.989172 
L 19.569173 -17.989736 
L 19.46674 -17.990301 
L 19.351328 -17.990865 
L 19.226234 -17.99143 
L 19.094788 -17.991994 
L 18.960284 -17.992559 
L 18.825902 -17.993123 
L 18.694615 -17.993688 
L 18.569094 -17.994253 
L 18.451623 -17.994817 
L 18.344021 -17.995382 
L 18.247591 -17.995946 
L 18.163098 -17.996511 
L 18.090784 -17.997075 
L 18.030418 -17.99764 
L 17.981374 -17.998204 
L 17.942744 -17.998769 
L 17.913472 -17.999333 
L 17.892481 -17.999898 
L 17.878812 -18.000463 
L 17.871735 -18.001027 
L 17.870834 -18.001592 
L 17.876057 -18.002156 
L 17.887719 -18.002721 
L 17.906474 -18.003285 
L 17.933235 -18.00385 
L 17.969072 -18.004414 
L 18.015088 -18.004979 
L 18.072285 -18.005543 
L 18.141438 -18.006108 
L 18.22298 -18.006673 
L 18.31692 -18.007237 
L 18.422792 -18.007802 
L 18.539643 -18.008366 
L 18.66606 -18.008931 
L 18.800231 -18.009495 
L 18.940028 -18.01006 
L 19.083124 -18.010624 
L 19.227102 -18.011189 
L 19.369582 -18.011753 
L 19.508322 -18.012318 
L 19.641321 -18.012883 
L 19.766881 -18.013447 
L 19.883666 -18.014012 
L 21.330925 -18.014012 
L 21.330925 -18.014012 
L 21.44771 -18.013447 
L 21.57327 -18.012883 
L 21.706269 -18.012318 
L 21.845009 -18.011753 
L 21.987489 -18.011189 
L 22.131467 -18.010624 
L 22.274563 -18.01006 
L 22.41436 -18.009495 
L 22.54853 -18.008931 
L 22.674948 -18.008366 
L 22.791799 -18.007802 
L 22.897671 -18.007237 
L 22.99161 -18.006673 
L 23.073152 -18.006108 
L 23.142305 -18.005543 
L 23.199503 -18.004979 
L 23.245519 -18.004414 
L 23.281356 -18.00385 
L 23.308116 -18.003285 
L 23.326871 -18.002721 
L 23.338534 -18.002156 
L 23.343756 -18.001592 
L 23.342856 -18.001027 
L 23.335779 -18.000463 
L 23.32211 -17.999898 
L 23.301119 -17.999333 
L 23.271846 -17.998769 
L 23.233217 -17.998204 
L 23.184173 -17.99764 
L 23.123806 -17.997075 
L 23.051493 -17.996511 
L 22.967 -17.995946 
L 22.87057 -17.995382 
L 22.762967 -17.994817 
L 22.645497 -17.994253 
L 22.519976 -17.993688 
L 22.388689 -17.993123 
L 22.254307 -17.992559 
L 22.119803 -17.991994 
L 21.988357 -17.99143 
L 21.863263 -17.990865 
L 21.747851 -17.990301 
L 21.645418 -17.989736 
L 21.559183 -17.989172 
L 21.492253 -17.988607 
L 21.447603 -17.988043 
L 21.428071 -17.987478 
L 21.436343 -17.986913 
L 21.474947 -17.986349 
L 21.546225 -17.985784 
L 21.652294 -17.98522 
L 21.79499 -17.984655 
L 21.97579 -17.984091 
L 22.195717 -17.983526 
L 22.455241 -17.982962 
L 22.754165 -17.982397 
L 23.091534 -17.981833 
L 23.465541 -17.981268 
L 23.873475 -17.980703 
L 24.311696 -17.980139 
L 24.775653 -17.979574 
L 25.259944 -17.97901 
L 25.758418 -17.978445 
L 26.264318 -17.977881 
L 26.770453 -17.977316 
L 27.269384 -17.976752 
L 27.753625 -17.976187 
L 28.215835 -17.975623 
L 28.648992 -17.975058 
L 29.046547 -17.974493 
L 29.402542 -17.973929 
L 29.711701 -17.973364 
L 29.969488 -17.9728 
L 30.172145 -17.972235 
L 30.316705 -17.971671 
L 30.401004 -17.971106 
L 30.42369 -17.970542 
L 30.38423 -17.969977 
L 30.282934 -17.969413 
L 30.120975 -17.968848 
L 29.900418 -17.968283 
L 29.624239 -17.967719 
L 29.296333 -17.967154 
L 28.921492 -17.96659 
L 28.505359 -17.966025 
L 28.054338 -17.965461 
L 27.575462 -17.964896 
L 27.076228 -17.964332 
L 26.564395 -17.963767 
L 26.047761 -17.963203 
L 25.533927 -17.962638 
L 25.030067 -17.962073 
L 24.54272 -17.961509 
L 24.077605 -17.960944 
L 23.639483 -17.96038 
L 23.232073 -17.959815 
L 22.858003 -17.959251 
L 22.518832 -17.958686 
L 22.215106 -17.958122 
z
" style="stroke: #6f6f6f; stroke-width: 0.15"/>
    </defs>
    <g clip-path="url(#p5b9a2b0511)">
     <use xlink:href="#m033cef9bac" x="0" y="84.96" style="fill: #98daa7; stroke: #6f6f6f; stroke-width: 0.15"/>
    </g>
   </g>
   <g id="PolyCollection_2">
    <defs>
     <path id="mf4e5e2fed2" d="M 46.106155 -17.777101 
L 44.190407 -17.777101 
L 43.982724 -17.80807 
L 43.745534 -17.83904 
L 43.478042 -17.870009 
L 43.180075 -17.900979 
L 42.852134 -17.931948 
L 42.495413 -17.962918 
L 42.111797 -17.993887 
L 41.703834 -18.024857 
L 41.274689 -18.055826 
L 40.828076 -18.086796 
L 40.368191 -18.117765 
L 39.899637 -18.148735 
L 39.427349 -18.179704 
L 38.95652 -18.210674 
L 38.492534 -18.241643 
L 38.040891 -18.272613 
L 37.607135 -18.303582 
L 37.196775 -18.334552 
L 36.815199 -18.365521 
L 36.467582 -18.396491 
L 36.158791 -18.42746 
L 35.89329 -18.45843 
L 35.675042 -18.489399 
L 35.507424 -18.520369 
L 35.393155 -18.551338 
L 35.334232 -18.582308 
L 35.331887 -18.613277 
L 35.386557 -18.644247 
L 35.497871 -18.675216 
L 35.664641 -18.706186 
L 35.884878 -18.737155 
L 36.155808 -18.768125 
L 36.473903 -18.799094 
L 36.834918 -18.830064 
L 37.233956 -18.861033 
L 37.665529 -18.892003 
L 38.12366 -18.922972 
L 38.601984 -18.953941 
L 39.09388 -18.984911 
L 39.592622 -19.01588 
L 40.091529 -19.04685 
L 40.584144 -19.077819 
L 41.064387 -19.108789 
L 41.526723 -19.139758 
L 41.966296 -19.170728 
L 42.379047 -19.201697 
L 42.761794 -19.232667 
L 43.11228 -19.263636 
L 43.429177 -19.294606 
L 43.712053 -19.325575 
L 43.961304 -19.356545 
L 44.178052 -19.387514 
L 44.364021 -19.418484 
L 44.521398 -19.449453 
L 44.652684 -19.480423 
L 44.760551 -19.511392 
L 44.847706 -19.542362 
L 44.916765 -19.573331 
L 44.97015 -19.604301 
L 45.010007 -19.63527 
L 45.038137 -19.66624 
L 45.05596 -19.697209 
L 45.064489 -19.728179 
L 45.064324 -19.759148 
L 45.055671 -19.790118 
L 45.038369 -19.821087 
L 45.011945 -19.852057 
L 44.975678 -19.883026 
L 44.928695 -19.913996 
L 44.870067 -19.944965 
L 44.798941 -19.975935 
L 44.71467 -20.006904 
L 44.616957 -20.037874 
L 44.505989 -20.068843 
L 44.382563 -20.099812 
L 44.248176 -20.130782 
L 44.105084 -20.161751 
L 43.956301 -20.192721 
L 43.805546 -20.22369 
L 43.657115 -20.25466 
L 43.515707 -20.285629 
L 43.386184 -20.316599 
L 43.273302 -20.347568 
L 43.181427 -20.378538 
L 43.114253 -20.409507 
L 43.07456 -20.440477 
L 43.064017 -20.471446 
L 43.083073 -20.502416 
L 43.13092 -20.533385 
L 43.205552 -20.564355 
L 43.303904 -20.595324 
L 43.422062 -20.626294 
L 43.555519 -20.657263 
L 43.69946 -20.688233 
L 43.849048 -20.719202 
L 43.999682 -20.750172 
L 44.147225 -20.781141 
L 44.288164 -20.812111 
L 44.419722 -20.84308 
L 45.876841 -20.84308 
L 45.876841 -20.84308 
L 46.008398 -20.812111 
L 46.149338 -20.781141 
L 46.296881 -20.750172 
L 46.447515 -20.719202 
L 46.597102 -20.688233 
L 46.741044 -20.657263 
L 46.874501 -20.626294 
L 46.992659 -20.595324 
L 47.091011 -20.564355 
L 47.165643 -20.533385 
L 47.213489 -20.502416 
L 47.232545 -20.471446 
L 47.222002 -20.440477 
L 47.182309 -20.409507 
L 47.115136 -20.378538 
L 47.023261 -20.347568 
L 46.910379 -20.316599 
L 46.780855 -20.285629 
L 46.639447 -20.25466 
L 46.491017 -20.22369 
L 46.340261 -20.192721 
L 46.191479 -20.161751 
L 46.048387 -20.130782 
L 45.914 -20.099812 
L 45.790573 -20.068843 
L 45.679606 -20.037874 
L 45.581893 -20.006904 
L 45.497622 -19.975935 
L 45.426496 -19.944965 
L 45.367868 -19.913996 
L 45.320884 -19.883026 
L 45.284618 -19.852057 
L 45.258194 -19.821087 
L 45.240892 -19.790118 
L 45.232238 -19.759148 
L 45.232074 -19.728179 
L 45.240602 -19.697209 
L 45.258426 -19.66624 
L 45.286556 -19.63527 
L 45.326412 -19.604301 
L 45.379797 -19.573331 
L 45.448856 -19.542362 
L 45.536011 -19.511392 
L 45.643879 -19.480423 
L 45.775165 -19.449453 
L 45.932541 -19.418484 
L 46.11851 -19.387514 
L 46.335258 -19.356545 
L 46.58451 -19.325575 
L 46.867386 -19.294606 
L 47.184283 -19.263636 
L 47.534769 -19.232667 
L 47.917516 -19.201697 
L 48.330267 -19.170728 
L 48.76984 -19.139758 
L 49.232176 -19.108789 
L 49.712419 -19.077819 
L 50.205033 -19.04685 
L 50.703941 -19.01588 
L 51.202682 -18.984911 
L 51.694579 -18.953941 
L 52.172902 -18.922972 
L 52.631033 -18.892003 
L 53.062607 -18.861033 
L 53.461644 -18.830064 
L 53.82266 -18.799094 
L 54.140754 -18.768125 
L 54.411685 -18.737155 
L 54.631922 -18.706186 
L 54.798692 -18.675216 
L 54.910005 -18.644247 
L 54.964676 -18.613277 
L 54.962331 -18.582308 
L 54.903408 -18.551338 
L 54.789138 -18.520369 
L 54.62152 -18.489399 
L 54.403272 -18.45843 
L 54.137771 -18.42746 
L 53.828981 -18.396491 
L 53.481364 -18.365521 
L 53.099787 -18.334552 
L 52.689427 -18.303582 
L 52.255672 -18.272613 
L 51.804029 -18.241643 
L 51.340043 -18.210674 
L 50.869214 -18.179704 
L 50.396925 -18.148735 
L 49.928371 -18.117765 
L 49.468486 -18.086796 
L 49.021873 -18.055826 
L 48.592728 -18.024857 
L 48.184766 -17.993887 
L 47.80115 -17.962918 
L 47.444428 -17.931948 
L 47.116487 -17.900979 
L 46.818521 -17.870009 
L 46.551029 -17.83904 
L 46.313838 -17.80807 
L 46.106155 -17.777101 
z
" style="stroke: #6f6f6f; stroke-width: 0.15"/>
    </defs>
    <g clip-path="url(#p5b9a2b0511)">
     <use xlink:href="#mf4e5e2fed2" x="0" y="84.96" style="fill: #f2aba8; stroke: #6f6f6f; stroke-width: 0.15"/>
    </g>
   </g>
   <g id="PolyCollection_3">
    <defs>
     <path id="m95fdb5e7df" d="M 71.909885 -17.809508 
L 67.468649 -17.809508 
L 67.03953 -17.821686 
L 66.564246 -17.833865 
L 66.046315 -17.846043 
L 65.491324 -17.858222 
L 64.906946 -17.8704 
L 64.302838 -17.882579 
L 63.690399 -17.894757 
L 63.0824 -17.906936 
L 62.492489 -17.919114 
L 61.934611 -17.931293 
L 61.422366 -17.943471 
L 60.968356 -17.95565 
L 60.583564 -17.967828 
L 60.276815 -17.980007 
L 60.054353 -17.992185 
L 59.919563 -18.004364 
L 59.872873 -18.016542 
L 59.911812 -18.028721 
L 60.031245 -18.040899 
L 60.223735 -18.053078 
L 60.480019 -18.065256 
L 60.789555 -18.077435 
L 61.14109 -18.089613 
L 61.523225 -18.101792 
L 61.924931 -18.11397 
L 62.335991 -18.126149 
L 62.747356 -18.138327 
L 63.151398 -18.150506 
L 63.54206 -18.162684 
L 63.914908 -18.174863 
L 64.267096 -18.187041 
L 64.597254 -18.19922 
L 64.905315 -18.211398 
L 65.192301 -18.223577 
L 65.460078 -18.235755 
L 65.711092 -18.247934 
L 65.948115 -18.260112 
L 66.173993 -18.272291 
L 66.39143 -18.284469 
L 66.602797 -18.296648 
L 66.809991 -18.308826 
L 67.01434 -18.321005 
L 67.216555 -18.333183 
L 67.416738 -18.345362 
L 67.614431 -18.35754 
L 67.808702 -18.369719 
L 67.998261 -18.381897 
L 68.181592 -18.394076 
L 68.357088 -18.406254 
L 68.523177 -18.418433 
L 68.678437 -18.430611 
L 68.821682 -18.44279 
L 68.952022 -18.454968 
L 69.068886 -18.467147 
L 69.172023 -18.479326 
L 69.261476 -18.491504 
L 69.337525 -18.503683 
L 69.400631 -18.515861 
L 69.451359 -18.52804 
L 69.490309 -18.540218 
L 69.518041 -18.552397 
L 69.535028 -18.564575 
L 69.541603 -18.576754 
L 69.537942 -18.588932 
L 69.524055 -18.601111 
L 69.499804 -18.613289 
L 69.464936 -18.625468 
L 69.419144 -18.637646 
L 69.362139 -18.649825 
L 69.293728 -18.662003 
L 69.213914 -18.674182 
L 69.122983 -18.68636 
L 69.021592 -18.698539 
L 68.910838 -18.710717 
L 68.792306 -18.722896 
L 68.668087 -18.735074 
L 68.540763 -18.747253 
L 68.413345 -18.759431 
L 68.289183 -18.77161 
L 68.171836 -18.783788 
L 68.064911 -18.795967 
L 67.971884 -18.808145 
L 67.895921 -18.820324 
L 67.839697 -18.832502 
L 67.805243 -18.844681 
L 67.793825 -18.856859 
L 67.805865 -18.869038 
L 67.84092 -18.881216 
L 67.897704 -18.893395 
L 67.974169 -18.905573 
L 68.06763 -18.917752 
L 68.174917 -18.92993 
L 68.292555 -18.942109 
L 68.41695 -18.954287 
L 68.544566 -18.966466 
L 68.67209 -18.978644 
L 68.79656 -18.990823 
L 68.915466 -19.003001 
L 69.02681 -19.01518 
L 70.351724 -19.01518 
L 70.351724 -19.01518 
L 70.463069 -19.003001 
L 70.581974 -18.990823 
L 70.706444 -18.978644 
L 70.833968 -18.966466 
L 70.961584 -18.954287 
L 71.085979 -18.942109 
L 71.203617 -18.92993 
L 71.310904 -18.917752 
L 71.404365 -18.905573 
L 71.480831 -18.893395 
L 71.537614 -18.881216 
L 71.572669 -18.869038 
L 71.584709 -18.856859 
L 71.573291 -18.844681 
L 71.538837 -18.832502 
L 71.482613 -18.820324 
L 71.40665 -18.808145 
L 71.313623 -18.795967 
L 71.206698 -18.783788 
L 71.089351 -18.77161 
L 70.96519 -18.759431 
L 70.837771 -18.747253 
L 70.710447 -18.735074 
L 70.586228 -18.722896 
L 70.467696 -18.710717 
L 70.356942 -18.698539 
L 70.255551 -18.68636 
L 70.16462 -18.674182 
L 70.084806 -18.662003 
L 70.016395 -18.649825 
L 69.95939 -18.637646 
L 69.913599 -18.625468 
L 69.878731 -18.613289 
L 69.854479 -18.601111 
L 69.840592 -18.588932 
L 69.836931 -18.576754 
L 69.843506 -18.564575 
L 69.860493 -18.552397 
L 69.888226 -18.540218 
L 69.927175 -18.52804 
L 69.977903 -18.515861 
L 70.041009 -18.503683 
L 70.117059 -18.491504 
L 70.206511 -18.479326 
L 70.309648 -18.467147 
L 70.426512 -18.454968 
L 70.556852 -18.44279 
L 70.700097 -18.430611 
L 70.855358 -18.418433 
L 71.021446 -18.406254 
L 71.196942 -18.394076 
L 71.380273 -18.381897 
L 71.569833 -18.369719 
L 71.764103 -18.35754 
L 71.961796 -18.345362 
L 72.161979 -18.333183 
L 72.364194 -18.321005 
L 72.568543 -18.308826 
L 72.775737 -18.296648 
L 72.987104 -18.284469 
L 73.204541 -18.272291 
L 73.430419 -18.260112 
L 73.667442 -18.247934 
L 73.918456 -18.235755 
L 74.186233 -18.223577 
L 74.473219 -18.211398 
L 74.78128 -18.19922 
L 75.111438 -18.187041 
L 75.463626 -18.174863 
L 75.836474 -18.162684 
L 76.227136 -18.150506 
L 76.631178 -18.138327 
L 77.042543 -18.126149 
L 77.453603 -18.11397 
L 77.855309 -18.101792 
L 78.237444 -18.089613 
L 78.588979 -18.077435 
L 78.898515 -18.065256 
L 79.154799 -18.053078 
L 79.347289 -18.040899 
L 79.466722 -18.028721 
L 79.505661 -18.016542 
L 79.458971 -18.004364 
L 79.324182 -17.992185 
L 79.101719 -17.980007 
L 78.79497 -17.967828 
L 78.410178 -17.95565 
L 77.956168 -17.943471 
L 77.443923 -17.931293 
L 76.886045 -17.919114 
L 76.296134 -17.906936 
L 75.688135 -17.894757 
L 75.075696 -17.882579 
L 74.471588 -17.8704 
L 73.88721 -17.858222 
L 73.332219 -17.846043 
L 72.814288 -17.833865 
L 72.339004 -17.821686 
L 71.909885 -17.809508 
z
" style="stroke: #6f6f6f; stroke-width: 0.15"/>
    </defs>
    <g clip-path="url(#p5b9a2b0511)">
     <use xlink:href="#m95fdb5e7df" x="0" y="84.96" style="fill: #d3c4f6; stroke: #6f6f6f; stroke-width: 0.15"/>
    </g>
   </g>
   <g id="line2d_7">
    <path d="M 20.607295 66.994071 
L 20.607295 66.963416 
" clip-path="url(#p5b9a2b0511)" style="fill: none; stroke: #8c8c8c; stroke-width: 0.75; stroke-linecap: round"/>
   </g>
   <g id="line2d_8">
    <path d="M 20.607295 66.991923 
L 20.607295 66.979202 
" clip-path="url(#p5b9a2b0511)" style="fill: none; stroke: #8c8c8c; stroke-width: 4; stroke-linecap: round"/>
   </g>
   <g id="line2d_9">
    <path d="M 20.607295 66.98654 
" clip-path="url(#p5b9a2b0511)" style="fill: none; stroke: #6f6f6f; stroke-width: 1.2; stroke-linecap: round"/>
    <defs>
     <path id="mcb8124e19a" d="M 0 0.833333 
C 0.221003 0.833333 0.432983 0.745528 0.589256 0.589256 
C 0.745528 0.432983 0.833333 0.221003 0.833333 0 
C 0.833333 -0.221003 0.745528 -0.432983 0.589256 -0.589256 
C 0.432983 -0.745528 0.221003 -0.833333 0 -0.833333 
C -0.221003 -0.833333 -0.432983 -0.745528 -0.589256 -0.589256 
C -0.745528 -0.432983 -0.833333 -0.221003 -0.833333 0 
C -0.833333 0.221003 -0.745528 0.432983 -0.589256 0.589256 
C -0.432983 0.745528 -0.221003 0.833333 0 0.833333 
z
" style="stroke: #ffffff; stroke-width: 0.8"/>
    </defs>
    <g clip-path="url(#p5b9a2b0511)">
     <use xlink:href="#mcb8124e19a" x="20.607295" y="66.98654" style="fill: #ffffff; stroke: #ffffff; stroke-width: 0.8"/>
    </g>
   </g>
   <g id="line2d_10">
    <path d="M 45.148281 66.806797 
L 45.148281 65.954492 
" clip-path="url(#p5b9a2b0511)" style="fill: none; stroke: #8c8c8c; stroke-width: 0.75; stroke-linecap: round"/>
   </g>
   <g id="line2d_11">
    <path d="M 45.148281 66.491247 
L 45.148281 66.120353 
" clip-path="url(#p5b9a2b0511)" style="fill: none; stroke: #8c8c8c; stroke-width: 4; stroke-linecap: round"/>
   </g>
   <g id="line2d_12">
    <path d="M 45.148281 66.306301 
" clip-path="url(#p5b9a2b0511)" style="fill: none; stroke: #6f6f6f; stroke-width: 1.2; stroke-linecap: round"/>
    <g clip-path="url(#p5b9a2b0511)">
     <use xlink:href="#mcb8124e19a" x="45.148281" y="66.306301" style="fill: #ffffff; stroke: #ffffff; stroke-width: 0.8"/>
    </g>
   </g>
   <g id="line2d_13">
    <path d="M 69.689267 66.992011 
L 69.689267 66.660937 
" clip-path="url(#p5b9a2b0511)" style="fill: none; stroke: #8c8c8c; stroke-width: 0.75; stroke-linecap: round"/>
   </g>
   <g id="line2d_14">
    <path d="M 69.689267 66.968437 
L 69.689267 66.768322 
" clip-path="url(#p5b9a2b0511)" style="fill: none; stroke: #8c8c8c; stroke-width: 4; stroke-linecap: round"/>
   </g>
   <g id="line2d_15">
    <path d="M 69.689267 66.926889 
" clip-path="url(#p5b9a2b0511)" style="fill: none; stroke: #6f6f6f; stroke-width: 1.2; stroke-linecap: round"/>
    <g clip-path="url(#p5b9a2b0511)">
     <use xlink:href="#mcb8124e19a" x="69.689267" y="66.926889" style="fill: #ffffff; stroke: #ffffff; stroke-width: 0.8"/>
    </g>
   </g>
   <g id="patch_3">
    <path d="M 8.336802 74.419526 
L 8.336802 4.076256 
" style="fill: none; stroke: #777777; stroke-width: 0.5; stroke-linejoin: miter; stroke-linecap: square"/>
   </g>
   <g id="patch_4">
    <path d="M 8.336802 76.919526 
L 81.95976 76.919526 
" style="fill: none; stroke: #777777; stroke-width: 0.5; stroke-linejoin: miter; stroke-linecap: square"/>
   </g>
  </g>
 </g>
 <defs>
  <clipPath id="p5b9a2b0511">
   <rect x="8.336802" y="4.076256" width="73.622957" height="70.34327"/>
  </clipPath>
 </defs>
</svg>
