<?xml version="1.0" encoding="utf-8" standalone="no"?>
<!DOCTYPE svg PUBLIC "-//W3C//DTD SVG 1.1//EN"
  "http://www.w3.org/Graphics/SVG/1.1/DTD/svg11.dtd">
<svg xmlns:xlink="http://www.w3.org/1999/xlink" width="84.96pt" height="84.96pt" viewBox="0 0 84.96 84.96" xmlns="http://www.w3.org/2000/svg" version="1.1">
 <metadata>
  <rdf:RDF xmlns:dc="http://purl.org/dc/elements/1.1/" xmlns:cc="http://creativecommons.org/ns#" xmlns:rdf="http://www.w3.org/1999/02/22-rdf-syntax-ns#">
   <cc:Work>
    <dc:type rdf:resource="http://purl.org/dc/dcmitype/StillImage"/>
    <dc:date>2024-05-27T15:37:07.719320</dc:date>
    <dc:format>image/svg+xml</dc:format>
    <dc:creator>
     <cc:Agent>
      <dc:title>Matplotlib v3.8.3, https://matplotlib.org/</dc:title>
     </cc:Agent>
    </dc:creator>
   </cc:Work>
  </rdf:RDF>
 </metadata>
 <defs>
  <style type="text/css">*{stroke-linejoin: round; stroke-linecap: butt}</style>
 </defs>
 <g id="figure_1">
  <g id="patch_1">
   <path d="M 0 84.96 
L 84.96 84.96 
L 84.96 0 
L 0 0 
z
" style="fill: #ffffff"/>
  </g>
  <g id="axes_1">
   <g id="patch_2">
    <path d="M 8.336802 74.419526 
L 81.95976 74.419526 
L 81.95976 4.076256 
L 8.336802 4.076256 
z
" style="fill: #ffffff"/>
   </g>
   <g id="matplotlib.axis_1">
    <g id="xtick_1">
     <g id="text_1">
      <!-- NK/ILC1ie -->
      <g style="fill: #333333" transform="translate(12.63167 81.230229) scale(0.035 -0.035)">
       <defs>
        <path id="Helvetica-4e" d="M 488 4591 
L 1222 4591 
L 3541 872 
L 3541 4591 
L 4131 4591 
L 4131 0 
L 3434 0 
L 1081 3716 
L 1081 0 
L 488 0 
L 488 4591 
z
M 2269 4591 
L 2269 4591 
z
" transform="scale(0.015625)"/>
        <path id="Helvetica-4b" d="M 488 4591 
L 1094 4591 
L 1094 2353 
L 3331 4591 
L 4191 4591 
L 2281 2741 
L 4244 0 
L 3434 0 
L 1828 2303 
L 1094 1600 
L 1094 0 
L 488 0 
L 488 4591 
z
" transform="scale(0.015625)"/>
        <path id="Helvetica-2f" d="M 1456 4591 
L 1931 4591 
L 475 0 
L 0 0 
L 1456 4591 
z
" transform="scale(0.015625)"/>
        <path id="Helvetica-49" d="M 628 4591 
L 1256 4591 
L 1256 0 
L 628 0 
L 628 4591 
z
" transform="scale(0.015625)"/>
        <path id="Helvetica-4c" d="M 488 4591 
L 1109 4591 
L 1109 547 
L 3434 547 
L 3434 0 
L 488 0 
L 488 4591 
z
" transform="scale(0.015625)"/>
        <path id="Helvetica-43" d="M 2422 4716 
Q 3294 4716 3775 4256 
Q 4256 3797 4309 3213 
L 3703 3213 
Q 3600 3656 3292 3915 
Q 2984 4175 2428 4175 
Q 1750 4175 1333 3698 
Q 916 3222 916 2238 
Q 916 1431 1292 929 
Q 1669 428 2416 428 
Q 3103 428 3463 956 
Q 3653 1234 3747 1688 
L 4353 1688 
Q 4272 963 3816 472 
Q 3269 -119 2341 -119 
Q 1541 -119 997 366 
Q 281 1006 281 2344 
Q 281 3359 819 4009 
Q 1400 4716 2422 4716 
z
M 2297 4716 
L 2297 4716 
z
" transform="scale(0.015625)"/>
        <path id="Helvetica-31" d="M 613 3169 
L 613 3600 
Q 1222 3659 1462 3798 
Q 1703 3938 1822 4456 
L 2266 4456 
L 2266 0 
L 1666 0 
L 1666 3169 
L 613 3169 
z
" transform="scale(0.015625)"/>
        <path id="Helvetica-69" d="M 413 3331 
L 984 3331 
L 984 0 
L 413 0 
L 413 3331 
z
M 413 4591 
L 984 4591 
L 984 3953 
L 413 3953 
L 413 4591 
z
" transform="scale(0.015625)"/>
        <path id="Helvetica-65" d="M 1806 3422 
Q 2163 3422 2497 3255 
Q 2831 3088 3006 2822 
Q 3175 2569 3231 2231 
Q 3281 2000 3281 1494 
L 828 1494 
Q 844 984 1069 676 
Q 1294 369 1766 369 
Q 2206 369 2469 659 
Q 2619 828 2681 1050 
L 3234 1050 
Q 3213 866 3089 639 
Q 2966 413 2813 269 
Q 2556 19 2178 -69 
Q 1975 -119 1719 -119 
Q 1094 -119 659 336 
Q 225 791 225 1609 
Q 225 2416 662 2919 
Q 1100 3422 1806 3422 
z
M 2703 1941 
Q 2669 2306 2544 2525 
Q 2313 2931 1772 2931 
Q 1384 2931 1121 2651 
Q 859 2372 844 1941 
L 2703 1941 
z
M 1753 3428 
L 1753 3428 
z
" transform="scale(0.015625)"/>
       </defs>
       <use xlink:href="#Helvetica-4e"/>
       <use xlink:href="#Helvetica-4b" x="72.216797"/>
       <use xlink:href="#Helvetica-2f" x="138.916016"/>
       <use xlink:href="#Helvetica-49" x="166.699219"/>
       <use xlink:href="#Helvetica-4c" x="194.482422"/>
       <use xlink:href="#Helvetica-43" x="250.097656"/>
       <use xlink:href="#Helvetica-31" x="322.314453"/>
       <use xlink:href="#Helvetica-69" x="377.929688"/>
       <use xlink:href="#Helvetica-65" x="400.146484"/>
      </g>
     </g>
    </g>
    <g id="xtick_2">
     <g id="text_2">
      <!-- ILC1 -->
      <g style="fill: #333333" transform="translate(41.451953 81.230229) scale(0.035 -0.035)">
       <use xlink:href="#Helvetica-49"/>
       <use xlink:href="#Helvetica-4c" x="27.783203"/>
       <use xlink:href="#Helvetica-43" x="83.398438"/>
       <use xlink:href="#Helvetica-31" x="155.615234"/>
      </g>
     </g>
    </g>
    <g id="xtick_3">
     <g id="text_3">
      <!-- TH1 -->
      <g style="fill: #333333" transform="translate(66.383408 81.230229) scale(0.035 -0.035)">
       <defs>
        <path id="Helvetica-54" d="M 3828 4591 
L 3828 4044 
L 2281 4044 
L 2281 0 
L 1650 0 
L 1650 4044 
L 103 4044 
L 103 4591 
L 3828 4591 
z
" transform="scale(0.015625)"/>
        <path id="Helvetica-48" d="M 503 4591 
L 1131 4591 
L 1131 2694 
L 3519 2694 
L 3519 4591 
L 4147 4591 
L 4147 0 
L 3519 0 
L 3519 2147 
L 1131 2147 
L 1131 0 
L 503 0 
L 503 4591 
z
" transform="scale(0.015625)"/>
       </defs>
       <use xlink:href="#Helvetica-54"/>
       <use xlink:href="#Helvetica-48" x="61.083984"/>
       <use xlink:href="#Helvetica-31" x="133.300781"/>
      </g>
     </g>
    </g>
   </g>
   <g id="matplotlib.axis_2">
    <g id="ytick_1">
     <g id="line2d_1">
      <defs>
       <path id="m8645b79034" d="M 0 0 
L -1 0 
" style="stroke: #777777; stroke-width: 0.5"/>
      </defs>
      <g>
       <use xlink:href="#m8645b79034" x="8.336802" y="66.995102" style="fill: #777777; stroke: #777777; stroke-width: 0.5"/>
      </g>
     </g>
     <g id="text_4">
      <!-- 0 -->
      <g style="fill: #333333" transform="translate(4.668521 68.071117) scale(0.03 -0.03)">
       <defs>
        <path id="Helvetica-30" d="M 1731 4475 
Q 2600 4475 2988 3759 
Q 3288 3206 3288 2244 
Q 3288 1331 3016 734 
Q 2622 -122 1728 -122 
Q 922 -122 528 578 
Q 200 1163 200 2147 
Q 200 2909 397 3456 
Q 766 4475 1731 4475 
z
M 1725 391 
Q 2163 391 2422 778 
Q 2681 1166 2681 2222 
Q 2681 2984 2493 3476 
Q 2306 3969 1766 3969 
Q 1269 3969 1039 3501 
Q 809 3034 809 2125 
Q 809 1441 956 1025 
Q 1181 391 1725 391 
z
" transform="scale(0.015625)"/>
       </defs>
       <use xlink:href="#Helvetica-30"/>
      </g>
     </g>
    </g>
    <g id="ytick_2">
     <g id="line2d_2">
      <g>
       <use xlink:href="#m8645b79034" x="8.336802" y="54.411333" style="fill: #777777; stroke: #777777; stroke-width: 0.5"/>
      </g>
     </g>
     <g id="text_5">
      <!-- 10 -->
      <g style="fill: #333333" transform="translate(3.00024 55.487348) scale(0.03 -0.03)">
       <use xlink:href="#Helvetica-31"/>
       <use xlink:href="#Helvetica-30" x="55.615234"/>
      </g>
     </g>
    </g>
    <g id="ytick_3">
     <g id="line2d_3">
      <g>
       <use xlink:href="#m8645b79034" x="8.336802" y="41.827563" style="fill: #777777; stroke: #777777; stroke-width: 0.5"/>
      </g>
     </g>
     <g id="text_6">
      <!-- 20 -->
      <g style="fill: #333333" transform="translate(3.00024 42.903579) scale(0.03 -0.03)">
       <defs>
        <path id="Helvetica-32" d="M 200 0 
Q 231 578 439 1006 
Q 647 1434 1250 1784 
L 1850 2131 
Q 2253 2366 2416 2531 
Q 2672 2791 2672 3125 
Q 2672 3516 2437 3745 
Q 2203 3975 1813 3975 
Q 1234 3975 1013 3538 
Q 894 3303 881 2888 
L 309 2888 
Q 319 3472 525 3841 
Q 891 4491 1816 4491 
Q 2584 4491 2939 4075 
Q 3294 3659 3294 3150 
Q 3294 2613 2916 2231 
Q 2697 2009 2131 1694 
L 1703 1456 
Q 1397 1288 1222 1134 
Q 909 863 828 531 
L 3272 531 
L 3272 0 
L 200 0 
z
" transform="scale(0.015625)"/>
       </defs>
       <use xlink:href="#Helvetica-32"/>
       <use xlink:href="#Helvetica-30" x="55.615234"/>
      </g>
     </g>
    </g>
    <g id="ytick_4">
     <g id="line2d_4">
      <g>
       <use xlink:href="#m8645b79034" x="8.336802" y="29.243794" style="fill: #777777; stroke: #777777; stroke-width: 0.5"/>
      </g>
     </g>
     <g id="text_7">
      <!-- 30 -->
      <g style="fill: #333333" transform="translate(3.00024 30.31981) scale(0.03 -0.03)">
       <defs>
        <path id="Helvetica-33" d="M 1663 -122 
Q 869 -122 511 314 
Q 153 750 153 1375 
L 741 1375 
Q 778 941 903 744 
Q 1122 391 1694 391 
Q 2138 391 2406 628 
Q 2675 866 2675 1241 
Q 2675 1703 2392 1887 
Q 2109 2072 1606 2072 
Q 1550 2072 1492 2070 
Q 1434 2069 1375 2066 
L 1375 2563 
Q 1463 2553 1522 2550 
Q 1581 2547 1650 2547 
Q 1966 2547 2169 2647 
Q 2525 2822 2525 3272 
Q 2525 3606 2287 3787 
Q 2050 3969 1734 3969 
Q 1172 3969 956 3594 
Q 838 3388 822 3006 
L 266 3006 
Q 266 3506 466 3856 
Q 809 4481 1675 4481 
Q 2359 4481 2734 4176 
Q 3109 3872 3109 3294 
Q 3109 2881 2888 2625 
Q 2750 2466 2531 2375 
Q 2884 2278 3082 2001 
Q 3281 1725 3281 1325 
Q 3281 684 2859 281 
Q 2438 -122 1663 -122 
z
" transform="scale(0.015625)"/>
       </defs>
       <use xlink:href="#Helvetica-33"/>
       <use xlink:href="#Helvetica-30" x="55.615234"/>
      </g>
     </g>
    </g>
    <g id="ytick_5">
     <g id="line2d_5">
      <g>
       <use xlink:href="#m8645b79034" x="8.336802" y="16.660025" style="fill: #777777; stroke: #777777; stroke-width: 0.5"/>
      </g>
     </g>
     <g id="text_8">
      <!-- 40 -->
      <g style="fill: #333333" transform="translate(3.00024 17.73604) scale(0.03 -0.03)">
       <defs>
        <path id="Helvetica-34" d="M 2116 1584 
L 2116 3613 
L 681 1584 
L 2116 1584 
z
M 2125 0 
L 2125 1094 
L 163 1094 
L 163 1644 
L 2213 4488 
L 2688 4488 
L 2688 1584 
L 3347 1584 
L 3347 1094 
L 2688 1094 
L 2688 0 
L 2125 0 
z
" transform="scale(0.015625)"/>
       </defs>
       <use xlink:href="#Helvetica-34"/>
       <use xlink:href="#Helvetica-30" x="55.615234"/>
      </g>
     </g>
    </g>
    <g id="ytick_6">
     <g id="line2d_6">
      <g>
       <use xlink:href="#m8645b79034" x="8.336802" y="4.076256" style="fill: #777777; stroke: #777777; stroke-width: 0.5"/>
      </g>
     </g>
     <g id="text_9">
      <!-- 50 -->
      <g style="fill: #333333" transform="translate(3.00024 5.152271) scale(0.03 -0.03)">
       <defs>
        <path id="Helvetica-35" d="M 791 1141 
Q 847 659 1238 475 
Q 1438 381 1700 381 
Q 2200 381 2440 700 
Q 2681 1019 2681 1406 
Q 2681 1875 2395 2131 
Q 2109 2388 1709 2388 
Q 1419 2388 1211 2275 
Q 1003 2163 856 1963 
L 369 1991 
L 709 4400 
L 3034 4400 
L 3034 3856 
L 1131 3856 
L 941 2613 
Q 1097 2731 1238 2791 
Q 1488 2894 1816 2894 
Q 2431 2894 2859 2497 
Q 3288 2100 3288 1491 
Q 3288 856 2895 371 
Q 2503 -113 1644 -113 
Q 1097 -113 676 195 
Q 256 503 206 1141 
L 791 1141 
z
" transform="scale(0.015625)"/>
       </defs>
       <use xlink:href="#Helvetica-35"/>
       <use xlink:href="#Helvetica-30" x="55.615234"/>
      </g>
     </g>
    </g>
   </g>
   <g id="PolyCollection_1">
    <defs>
     <path id="ma80073f0ea" d="M 21.773235 -17.579785 
L 19.441356 -17.579785 
L 19.227086 -17.61672 
L 18.985802 -17.653654 
L 18.716538 -17.690589 
L 18.418748 -17.727523 
L 18.092383 -17.764458 
L 17.737952 -17.801393 
L 17.356578 -17.838327 
L 16.950049 -17.875262 
L 16.520849 -17.912196 
L 16.072171 -17.949131 
L 15.607923 -17.986066 
L 15.132706 -18.023 
L 14.651772 -18.059935 
L 14.170962 -18.096869 
L 13.696622 -18.133804 
L 13.23549 -18.170739 
L 12.794571 -18.207673 
L 12.380983 -18.244608 
L 12.001788 -18.281542 
L 11.663812 -18.318477 
L 11.373457 -18.355412 
L 11.136507 -18.392346 
L 10.957944 -18.429281 
L 10.84178 -18.466215 
L 10.790901 -18.50315 
L 10.806954 -18.540085 
L 10.890258 -18.577019 
L 11.039764 -18.613954 
L 11.253058 -18.650888 
L 11.526415 -18.687823 
L 11.854888 -18.724758 
L 12.232454 -18.761692 
L 12.652187 -18.798627 
L 13.106461 -18.835561 
L 13.587179 -18.872496 
L 14.086003 -18.909431 
L 14.594587 -18.946365 
L 15.104795 -18.9833 
L 15.608902 -19.020234 
L 16.099758 -19.057169 
L 16.570922 -19.094104 
L 17.016752 -19.131038 
L 17.432456 -19.167973 
L 17.814106 -19.204907 
L 18.158609 -19.241842 
L 18.463659 -19.278777 
L 18.727653 -19.315711 
L 18.949601 -19.352646 
L 19.129032 -19.38958 
L 19.265892 -19.426515 
L 19.360463 -19.46345 
L 19.413294 -19.500384 
L 19.425151 -19.537319 
L 19.396994 -19.574253 
L 19.329975 -19.611188 
L 19.225463 -19.648123 
L 19.085082 -19.685057 
L 18.910765 -19.721992 
L 18.704812 -19.758926 
L 18.469949 -19.795861 
L 18.209378 -19.832796 
L 17.926804 -19.86973 
L 17.62645 -19.906665 
L 17.313034 -19.943599 
L 16.991723 -19.980534 
L 16.668055 -20.017469 
L 16.34783 -20.054403 
L 16.036981 -20.091338 
L 15.741425 -20.128272 
L 15.466899 -20.165207 
L 15.218805 -20.202142 
L 15.002045 -20.239076 
L 14.820887 -20.276011 
L 14.678839 -20.312945 
L 14.578558 -20.34988 
L 14.521785 -20.386815 
L 14.509315 -20.423749 
L 14.540999 -20.460684 
L 14.615775 -20.497618 
L 14.731731 -20.534553 
L 14.886184 -20.571487 
L 15.075785 -20.608422 
L 15.296634 -20.645357 
L 15.544406 -20.682291 
L 15.814472 -20.719226 
L 16.102036 -20.75616 
L 16.402253 -20.793095 
L 16.710346 -20.83003 
L 17.021714 -20.866964 
L 17.332028 -20.903899 
L 17.637311 -20.940833 
L 17.934004 -20.977768 
L 18.21902 -21.014703 
L 18.489777 -21.051637 
L 18.744213 -21.088572 
L 18.980794 -21.125506 
L 19.198495 -21.162441 
L 19.396776 -21.199376 
L 19.575541 -21.23631 
L 21.63905 -21.23631 
L 21.63905 -21.23631 
L 21.817815 -21.199376 
L 22.016096 -21.162441 
L 22.233796 -21.125506 
L 22.470377 -21.088572 
L 22.724814 -21.051637 
L 22.99557 -21.014703 
L 23.280587 -20.977768 
L 23.57728 -20.940833 
L 23.882563 -20.903899 
L 24.192877 -20.866964 
L 24.504245 -20.83003 
L 24.812338 -20.793095 
L 25.112554 -20.75616 
L 25.400119 -20.719226 
L 25.670185 -20.682291 
L 25.917956 -20.645357 
L 26.138806 -20.608422 
L 26.328407 -20.571487 
L 26.48286 -20.534553 
L 26.598816 -20.497618 
L 26.673592 -20.460684 
L 26.705276 -20.423749 
L 26.692806 -20.386815 
L 26.636033 -20.34988 
L 26.535752 -20.312945 
L 26.393704 -20.276011 
L 26.212546 -20.239076 
L 25.995786 -20.202142 
L 25.747691 -20.165207 
L 25.473166 -20.128272 
L 25.17761 -20.091338 
L 24.866761 -20.054403 
L 24.546536 -20.017469 
L 24.222868 -19.980534 
L 23.901557 -19.943599 
L 23.588141 -19.906665 
L 23.287786 -19.86973 
L 23.005213 -19.832796 
L 22.744642 -19.795861 
L 22.509779 -19.758926 
L 22.303826 -19.721992 
L 22.129509 -19.685057 
L 21.989128 -19.648123 
L 21.884616 -19.611188 
L 21.817597 -19.574253 
L 21.78944 -19.537319 
L 21.801297 -19.500384 
L 21.854128 -19.46345 
L 21.948699 -19.426515 
L 22.085559 -19.38958 
L 22.26499 -19.352646 
L 22.486938 -19.315711 
L 22.750932 -19.278777 
L 23.055981 -19.241842 
L 23.400485 -19.204907 
L 23.782135 -19.167973 
L 24.197839 -19.131038 
L 24.643669 -19.094104 
L 25.114832 -19.057169 
L 25.605689 -19.020234 
L 26.109796 -18.9833 
L 26.620004 -18.946365 
L 27.128588 -18.909431 
L 27.627412 -18.872496 
L 28.10813 -18.835561 
L 28.562404 -18.798627 
L 28.982136 -18.761692 
L 29.359703 -18.724758 
L 29.688176 -18.687823 
L 29.961532 -18.650888 
L 30.174827 -18.613954 
L 30.324333 -18.577019 
L 30.407637 -18.540085 
L 30.42369 -18.50315 
L 30.372811 -18.466215 
L 30.256647 -18.429281 
L 30.078084 -18.392346 
L 29.841134 -18.355412 
L 29.550778 -18.318477 
L 29.212803 -18.281542 
L 28.833608 -18.244608 
L 28.42002 -18.207673 
L 27.979101 -18.170739 
L 27.517969 -18.133804 
L 27.043629 -18.096869 
L 26.562819 -18.059935 
L 26.081885 -18.023 
L 25.606668 -17.986066 
L 25.14242 -17.949131 
L 24.693742 -17.912196 
L 24.264541 -17.875262 
L 23.858013 -17.838327 
L 23.476639 -17.801393 
L 23.122207 -17.764458 
L 22.795842 -17.727523 
L 22.498053 -17.690589 
L 22.228788 -17.653654 
L 21.987505 -17.61672 
L 21.773235 -17.579785 
z
" style="stroke: #6f6f6f; stroke-width: 0.15"/>
    </defs>
    <g clip-path="url(#p0e295da3d5)">
     <use xlink:href="#ma80073f0ea" x="0" y="84.96" style="fill: #98daa7; stroke: #6f6f6f; stroke-width: 0.15"/>
    </g>
   </g>
   <g id="PolyCollection_2">
    <defs>
     <path id="madeea5ddf5" d="M 46.234999 -17.717487 
L 44.061564 -17.717487 
L 43.839742 -17.740994 
L 43.586959 -17.764501 
L 43.301888 -17.788008 
L 42.983718 -17.811514 
L 42.63225 -17.835021 
L 42.247982 -17.858528 
L 41.832199 -17.882035 
L 41.387047 -17.905542 
L 40.915597 -17.929049 
L 40.421893 -17.952556 
L 39.910988 -17.976063 
L 39.388945 -17.999569 
L 38.862807 -18.023076 
L 38.34053 -18.046583 
L 37.830863 -18.07009 
L 37.343171 -18.093597 
L 36.887211 -18.117104 
L 36.472839 -18.140611 
L 36.109675 -18.164118 
L 35.806729 -18.187624 
L 35.572006 -18.211131 
L 35.412112 -18.234638 
L 35.331887 -18.258145 
L 35.334093 -18.281652 
L 35.41918 -18.305159 
L 35.58515 -18.328666 
L 35.827534 -18.352173 
L 36.139498 -18.375679 
L 36.512062 -18.399186 
L 36.934439 -18.422693 
L 37.394463 -18.4462 
L 37.879091 -18.469707 
L 38.374941 -18.493214 
L 38.868842 -18.516721 
L 39.348365 -18.540228 
L 39.802295 -18.563734 
L 40.22103 -18.587241 
L 40.596886 -18.610748 
L 40.924293 -18.634255 
L 41.199872 -18.657762 
L 41.422409 -18.681269 
L 41.592724 -18.704776 
L 41.713455 -18.728282 
L 41.788771 -18.751789 
L 41.824045 -18.775296 
L 41.825503 -18.798803 
L 41.799873 -18.82231 
L 41.75406 -18.845817 
L 41.694853 -18.869324 
L 41.628687 -18.892831 
L 41.561464 -18.916337 
L 41.498418 -18.939844 
L 41.44405 -18.963351 
L 41.402091 -18.986858 
L 41.375508 -19.010365 
L 41.366526 -19.033872 
L 41.376654 -19.057379 
L 41.406719 -19.080886 
L 41.456886 -19.104392 
L 41.52667 -19.127899 
L 41.614944 -19.151406 
L 41.71995 -19.174913 
L 41.839308 -19.19842 
L 41.970055 -19.221927 
L 42.108704 -19.245434 
L 42.251335 -19.268941 
L 42.39373 -19.292447 
L 42.531535 -19.315954 
L 42.660455 -19.339461 
L 42.776469 -19.362968 
L 42.876055 -19.386475 
L 42.956395 -19.409982 
L 43.015566 -19.433489 
L 43.052683 -19.456996 
L 43.067989 -19.480502 
L 43.062879 -19.504009 
L 43.039859 -19.527516 
L 43.002428 -19.551023 
L 42.954898 -19.57453 
L 42.902166 -19.598037 
L 42.849437 -19.621544 
L 42.801933 -19.645051 
L 42.764597 -19.668557 
L 42.741821 -19.692064 
L 42.737204 -19.715571 
L 42.753374 -19.739078 
L 42.791869 -19.762585 
L 42.85309 -19.786092 
L 42.93633 -19.809599 
L 43.039867 -19.833105 
L 43.161116 -19.856612 
L 43.296822 -19.880119 
L 43.443283 -19.903626 
L 43.596578 -19.927133 
L 43.75279 -19.95064 
L 43.908206 -19.974147 
L 44.059482 -19.997654 
L 44.203765 -20.02116 
L 44.338777 -20.044667 
L 45.957786 -20.044667 
L 45.957786 -20.044667 
L 46.092798 -20.02116 
L 46.237081 -19.997654 
L 46.388356 -19.974147 
L 46.543772 -19.95064 
L 46.699984 -19.927133 
L 46.853279 -19.903626 
L 46.99974 -19.880119 
L 47.135446 -19.856612 
L 47.256695 -19.833105 
L 47.360232 -19.809599 
L 47.443472 -19.786092 
L 47.504694 -19.762585 
L 47.543188 -19.739078 
L 47.559359 -19.715571 
L 47.554742 -19.692064 
L 47.531965 -19.668557 
L 47.494629 -19.645051 
L 47.447125 -19.621544 
L 47.394396 -19.598037 
L 47.341664 -19.57453 
L 47.294135 -19.551023 
L 47.256703 -19.527516 
L 47.233683 -19.504009 
L 47.228574 -19.480502 
L 47.24388 -19.456996 
L 47.280996 -19.433489 
L 47.340167 -19.409982 
L 47.420507 -19.386475 
L 47.520093 -19.362968 
L 47.636108 -19.339461 
L 47.765027 -19.315954 
L 47.902832 -19.292447 
L 48.045227 -19.268941 
L 48.187859 -19.245434 
L 48.326507 -19.221927 
L 48.457255 -19.19842 
L 48.576613 -19.174913 
L 48.681618 -19.151406 
L 48.769893 -19.127899 
L 48.839676 -19.104392 
L 48.889843 -19.080886 
L 48.919909 -19.057379 
L 48.930037 -19.033872 
L 48.921054 -19.010365 
L 48.894472 -18.986858 
L 48.852513 -18.963351 
L 48.798144 -18.939844 
L 48.735099 -18.916337 
L 48.667875 -18.892831 
L 48.60171 -18.869324 
L 48.542503 -18.845817 
L 48.496689 -18.82231 
L 48.471059 -18.798803 
L 48.472517 -18.775296 
L 48.507791 -18.751789 
L 48.583108 -18.728282 
L 48.703838 -18.704776 
L 48.874154 -18.681269 
L 49.096691 -18.657762 
L 49.372269 -18.634255 
L 49.699676 -18.610748 
L 50.075533 -18.587241 
L 50.494268 -18.563734 
L 50.948197 -18.540228 
L 51.42772 -18.516721 
L 51.921622 -18.493214 
L 52.417471 -18.469707 
L 52.902099 -18.4462 
L 53.362124 -18.422693 
L 53.784501 -18.399186 
L 54.157065 -18.375679 
L 54.469028 -18.352173 
L 54.711412 -18.328666 
L 54.877382 -18.305159 
L 54.962469 -18.281652 
L 54.964676 -18.258145 
L 54.88445 -18.234638 
L 54.724556 -18.211131 
L 54.489833 -18.187624 
L 54.186888 -18.164118 
L 53.823724 -18.140611 
L 53.409352 -18.117104 
L 52.953392 -18.093597 
L 52.4657 -18.07009 
L 51.956032 -18.046583 
L 51.433755 -18.023076 
L 50.907617 -17.999569 
L 50.385574 -17.976063 
L 49.87467 -17.952556 
L 49.380966 -17.929049 
L 48.909515 -17.905542 
L 48.464363 -17.882035 
L 48.048581 -17.858528 
L 47.664313 -17.835021 
L 47.312844 -17.811514 
L 46.994675 -17.788008 
L 46.709603 -17.764501 
L 46.45682 -17.740994 
L 46.234999 -17.717487 
z
" style="stroke: #6f6f6f; stroke-width: 0.15"/>
    </defs>
    <g clip-path="url(#p0e295da3d5)">
     <use xlink:href="#madeea5ddf5" x="0" y="84.96" style="fill: #f2aba8; stroke: #6f6f6f; stroke-width: 0.15"/>
    </g>
   </g>
   <g id="PolyCollection_3">
    <defs>
     <path id="m6fb77674f4" d="M 71.301732 -17.580036 
L 68.076802 -17.580036 
L 67.76247 -17.610262 
L 67.410468 -17.640487 
L 67.021496 -17.670713 
L 66.597432 -17.700938 
L 66.141397 -17.731164 
L 65.657761 -17.761389 
L 65.15209 -17.791615 
L 64.631018 -17.82184 
L 64.102055 -17.852066 
L 63.573343 -17.882291 
L 63.053375 -17.912517 
L 62.550678 -17.942742 
L 62.073513 -17.972968 
L 61.629579 -18.003193 
L 61.225766 -18.033419 
L 60.867962 -18.063644 
L 60.560925 -18.09387 
L 60.308224 -18.124095 
L 60.112257 -18.154321 
L 59.974314 -18.184546 
L 59.8947 -18.214772 
L 59.872873 -18.244997 
L 59.907595 -18.275223 
L 59.997078 -18.305448 
L 60.139094 -18.335674 
L 60.331062 -18.365899 
L 60.570089 -18.396125 
L 60.852976 -18.42635 
L 61.176195 -18.456575 
L 61.535845 -18.486801 
L 61.927605 -18.517026 
L 62.346696 -18.547252 
L 62.787865 -18.577477 
L 63.245401 -18.607703 
L 63.71319 -18.637928 
L 64.184809 -18.668154 
L 64.653654 -18.698379 
L 65.113102 -18.728605 
L 65.556685 -18.75883 
L 65.978274 -18.789056 
L 66.37226 -18.819281 
L 66.733713 -18.849507 
L 67.058527 -18.879732 
L 67.343524 -18.909958 
L 67.586533 -18.940183 
L 67.786433 -18.970409 
L 67.943163 -19.000634 
L 68.0577 -19.03086 
L 68.132013 -19.061085 
L 68.168987 -19.091311 
L 68.17233 -19.121536 
L 68.146454 -19.151762 
L 68.096336 -19.181987 
L 68.027356 -19.212213 
L 67.94513 -19.242438 
L 67.855311 -19.272664 
L 67.763389 -19.302889 
L 67.674494 -19.333115 
L 67.593189 -19.36334 
L 67.523298 -19.393566 
L 67.467743 -19.423791 
L 67.428435 -19.454017 
L 67.406204 -19.484242 
L 67.400791 -19.514467 
L 67.410893 -19.544693 
L 67.434278 -19.574918 
L 67.467946 -19.605144 
L 67.508346 -19.635369 
L 67.551621 -19.665595 
L 67.593879 -19.69582 
L 67.631459 -19.726046 
L 67.661186 -19.756271 
L 67.680593 -19.786497 
L 67.68809 -19.816722 
L 67.683077 -19.846948 
L 67.665989 -19.877173 
L 67.63827 -19.907399 
L 67.602275 -19.937624 
L 67.561116 -19.96785 
L 67.51846 -19.998075 
L 67.478282 -20.028301 
L 67.444612 -20.058526 
L 67.421276 -20.088752 
L 67.411663 -20.118977 
L 67.418513 -20.149203 
L 67.443773 -20.179428 
L 67.48849 -20.209654 
L 67.55278 -20.239879 
L 67.63585 -20.270105 
L 67.73608 -20.30033 
L 67.851152 -20.330556 
L 67.978207 -20.360781 
L 68.114033 -20.391007 
L 68.255255 -20.421232 
L 68.398514 -20.451458 
L 68.540634 -20.481683 
L 68.678758 -20.511908 
L 68.810448 -20.542134 
L 68.933753 -20.572359 
L 70.444782 -20.572359 
L 70.444782 -20.572359 
L 70.568086 -20.542134 
L 70.699776 -20.511908 
L 70.8379 -20.481683 
L 70.98002 -20.451458 
L 71.123279 -20.421232 
L 71.264501 -20.391007 
L 71.400327 -20.360781 
L 71.527382 -20.330556 
L 71.642454 -20.30033 
L 71.742685 -20.270105 
L 71.825755 -20.239879 
L 71.890044 -20.209654 
L 71.934761 -20.179428 
L 71.960021 -20.149203 
L 71.966872 -20.118977 
L 71.957258 -20.088752 
L 71.933923 -20.058526 
L 71.900252 -20.028301 
L 71.860074 -19.998075 
L 71.817418 -19.96785 
L 71.77626 -19.937624 
L 71.740264 -19.907399 
L 71.712545 -19.877173 
L 71.695458 -19.846948 
L 71.690445 -19.816722 
L 71.697941 -19.786497 
L 71.717348 -19.756271 
L 71.747075 -19.726046 
L 71.784655 -19.69582 
L 71.826913 -19.665595 
L 71.870188 -19.635369 
L 71.910588 -19.605144 
L 71.944257 -19.574918 
L 71.967641 -19.544693 
L 71.977744 -19.514467 
L 71.97233 -19.484242 
L 71.950099 -19.454017 
L 71.910791 -19.423791 
L 71.855236 -19.393566 
L 71.785345 -19.36334 
L 71.704041 -19.333115 
L 71.615145 -19.302889 
L 71.523224 -19.272664 
L 71.433404 -19.242438 
L 71.351178 -19.212213 
L 71.282199 -19.181987 
L 71.23208 -19.151762 
L 71.206204 -19.121536 
L 71.209547 -19.091311 
L 71.246521 -19.061085 
L 71.320834 -19.03086 
L 71.435371 -19.000634 
L 71.592101 -18.970409 
L 71.792002 -18.940183 
L 72.035011 -18.909958 
L 72.320007 -18.879732 
L 72.644821 -18.849507 
L 73.006274 -18.819281 
L 73.40026 -18.789056 
L 73.821849 -18.75883 
L 74.265432 -18.728605 
L 74.72488 -18.698379 
L 75.193725 -18.668154 
L 75.665344 -18.637928 
L 76.133133 -18.607703 
L 76.590669 -18.577477 
L 77.031838 -18.547252 
L 77.450929 -18.517026 
L 77.842689 -18.486801 
L 78.202339 -18.456575 
L 78.525558 -18.42635 
L 78.808445 -18.396125 
L 79.047472 -18.365899 
L 79.23944 -18.335674 
L 79.381456 -18.305448 
L 79.470939 -18.275223 
L 79.505661 -18.244997 
L 79.483834 -18.214772 
L 79.40422 -18.184546 
L 79.266277 -18.154321 
L 79.07031 -18.124095 
L 78.81761 -18.09387 
L 78.510572 -18.063644 
L 78.152768 -18.033419 
L 77.748956 -18.003193 
L 77.305021 -17.972968 
L 76.827856 -17.942742 
L 76.32516 -17.912517 
L 75.805191 -17.882291 
L 75.27648 -17.852066 
L 74.747516 -17.82184 
L 74.226444 -17.791615 
L 73.720773 -17.761389 
L 73.237137 -17.731164 
L 72.781102 -17.700938 
L 72.357038 -17.670713 
L 71.968066 -17.640487 
L 71.616064 -17.610262 
L 71.301732 -17.580036 
z
" style="stroke: #6f6f6f; stroke-width: 0.15"/>
    </defs>
    <g clip-path="url(#p0e295da3d5)">
     <use xlink:href="#m6fb77674f4" x="0" y="84.96" style="fill: #d3c4f6; stroke: #6f6f6f; stroke-width: 0.15"/>
    </g>
   </g>
   <g id="line2d_7">
    <path d="M 20.607295 66.839352 
L 20.607295 64.264552 
" clip-path="url(#p0e295da3d5)" style="fill: none; stroke: #8c8c8c; stroke-width: 0.75; stroke-linecap: round"/>
   </g>
   <g id="line2d_8">
    <path d="M 20.607295 66.499617 
L 20.607295 64.700979 
" clip-path="url(#p0e295da3d5)" style="fill: none; stroke: #8c8c8c; stroke-width: 4; stroke-linecap: round"/>
   </g>
   <g id="line2d_9">
    <path d="M 20.607295 66.232185 
" clip-path="url(#p0e295da3d5)" style="fill: none; stroke: #6f6f6f; stroke-width: 1.2; stroke-linecap: round"/>
    <defs>
     <path id="m008340d0e3" d="M 0 0.833333 
C 0.221003 0.833333 0.432983 0.745528 0.589256 0.589256 
C 0.745528 0.432983 0.833333 0.221003 0.833333 0 
C 0.833333 -0.221003 0.745528 -0.432983 0.589256 -0.589256 
C 0.432983 -0.745528 0.221003 -0.833333 0 -0.833333 
C -0.221003 -0.833333 -0.432983 -0.745528 -0.589256 -0.589256 
C -0.745528 -0.432983 -0.833333 -0.221003 -0.833333 0 
C -0.833333 0.221003 -0.745528 0.432983 -0.589256 0.589256 
C -0.432983 0.745528 -0.221003 0.833333 0 0.833333 
z
" style="stroke: #ffffff; stroke-width: 0.8"/>
    </defs>
    <g clip-path="url(#p0e295da3d5)">
     <use xlink:href="#m008340d0e3" x="20.607295" y="66.232185" style="fill: #ffffff; stroke: #ffffff; stroke-width: 0.8"/>
    </g>
   </g>
   <g id="line2d_10">
    <path d="M 45.148281 66.933738 
L 45.148281 65.224107 
" clip-path="url(#p0e295da3d5)" style="fill: none; stroke: #8c8c8c; stroke-width: 0.75; stroke-linecap: round"/>
   </g>
   <g id="line2d_11">
    <path d="M 45.148281 66.697397 
L 45.148281 65.984202 
" clip-path="url(#p0e295da3d5)" style="fill: none; stroke: #8c8c8c; stroke-width: 4; stroke-linecap: round"/>
   </g>
   <g id="line2d_12">
    <path d="M 45.148281 66.590912 
" clip-path="url(#p0e295da3d5)" style="fill: none; stroke: #6f6f6f; stroke-width: 1.2; stroke-linecap: round"/>
    <g clip-path="url(#p0e295da3d5)">
     <use xlink:href="#m008340d0e3" x="45.148281" y="66.590912" style="fill: #ffffff; stroke: #ffffff; stroke-width: 0.8"/>
    </g>
   </g>
   <g id="line2d_13">
    <path d="M 69.689267 66.974225 
L 69.689267 65.487487 
" clip-path="url(#p0e295da3d5)" style="fill: none; stroke: #8c8c8c; stroke-width: 0.75; stroke-linecap: round"/>
   </g>
   <g id="line2d_14">
    <path d="M 69.689267 66.837369 
L 69.689267 66.155667 
" clip-path="url(#p0e295da3d5)" style="fill: none; stroke: #8c8c8c; stroke-width: 4; stroke-linecap: round"/>
   </g>
   <g id="line2d_15">
    <path d="M 69.689267 66.55927 
" clip-path="url(#p0e295da3d5)" style="fill: none; stroke: #6f6f6f; stroke-width: 1.2; stroke-linecap: round"/>
    <g clip-path="url(#p0e295da3d5)">
     <use xlink:href="#m008340d0e3" x="69.689267" y="66.55927" style="fill: #ffffff; stroke: #ffffff; stroke-width: 0.8"/>
    </g>
   </g>
   <g id="patch_3">
    <path d="M 8.336802 74.419526 
L 8.336802 4.076256 
" style="fill: none; stroke: #777777; stroke-width: 0.5; stroke-linejoin: miter; stroke-linecap: square"/>
   </g>
   <g id="patch_4">
    <path d="M 8.336802 76.919526 
L 81.95976 76.919526 
" style="fill: none; stroke: #777777; stroke-width: 0.5; stroke-linejoin: miter; stroke-linecap: square"/>
   </g>
  </g>
 </g>
 <defs>
  <clipPath id="p0e295da3d5">
   <rect x="8.336802" y="4.076256" width="73.622957" height="70.34327"/>
  </clipPath>
 </defs>
</svg>
