<?xml version="1.0" encoding="utf-8" standalone="no"?>
<!DOCTYPE svg PUBLIC "-//W3C//DTD SVG 1.1//EN"
  "http://www.w3.org/Graphics/SVG/1.1/DTD/svg11.dtd">
<svg xmlns:xlink="http://www.w3.org/1999/xlink" width="84.96pt" height="84.96pt" viewBox="0 0 84.96 84.96" xmlns="http://www.w3.org/2000/svg" version="1.1">
 <metadata>
  <rdf:RDF xmlns:dc="http://purl.org/dc/elements/1.1/" xmlns:cc="http://creativecommons.org/ns#" xmlns:rdf="http://www.w3.org/1999/02/22-rdf-syntax-ns#">
   <cc:Work>
    <dc:type rdf:resource="http://purl.org/dc/dcmitype/StillImage"/>
    <dc:date>2024-05-27T15:37:11.485751</dc:date>
    <dc:format>image/svg+xml</dc:format>
    <dc:creator>
     <cc:Agent>
      <dc:title>Matplotlib v3.8.3, https://matplotlib.org/</dc:title>
     </cc:Agent>
    </dc:creator>
   </cc:Work>
  </rdf:RDF>
 </metadata>
 <defs>
  <style type="text/css">*{stroke-linejoin: round; stroke-linecap: butt}</style>
 </defs>
 <g id="figure_1">
  <g id="patch_1">
   <path d="M 0 84.96 
L 84.96 84.96 
L 84.96 0 
L 0 0 
z
" style="fill: #ffffff"/>
  </g>
  <g id="axes_1">
   <g id="patch_2">
    <path d="M 13.341646 74.419526 
L 81.95976 74.419526 
L 81.95976 4.076256 
L 13.341646 4.076256 
z
" style="fill: #ffffff"/>
   </g>
   <g id="matplotlib.axis_1">
    <g id="xtick_1">
     <g id="text_1">
      <!-- B -->
      <g style="fill: #333333" transform="translate(23.610694 81.230229) scale(0.035 -0.035)">
       <defs>
        <path id="Helvetica-42" d="M 2213 2650 
Q 2606 2650 2825 2759 
Q 3169 2931 3169 3378 
Q 3169 3828 2803 3984 
Q 2597 4072 2191 4072 
L 1081 4072 
L 1081 2650 
L 2213 2650 
z
M 2422 531 
Q 2994 531 3238 863 
Q 3391 1072 3391 1369 
Q 3391 1869 2944 2050 
Q 2706 2147 2316 2147 
L 1081 2147 
L 1081 531 
L 2422 531 
z
M 472 4591 
L 2444 4591 
Q 3250 4591 3591 4109 
Q 3791 3825 3791 3453 
Q 3791 3019 3544 2741 
Q 3416 2594 3175 2472 
Q 3528 2338 3703 2169 
Q 4013 1869 4013 1341 
Q 4013 897 3734 538 
Q 3319 0 2413 0 
L 472 0 
L 472 4591 
z
" transform="scale(0.015625)"/>
       </defs>
       <use xlink:href="#Helvetica-42"/>
      </g>
     </g>
    </g>
    <g id="xtick_2">
     <g id="text_2">
      <!-- T -->
      <g style="fill: #333333" transform="translate(46.581836 81.230229) scale(0.035 -0.035)">
       <defs>
        <path id="Helvetica-54" d="M 3828 4591 
L 3828 4044 
L 2281 4044 
L 2281 0 
L 1650 0 
L 1650 4044 
L 103 4044 
L 103 4591 
L 3828 4591 
z
" transform="scale(0.015625)"/>
       </defs>
       <use xlink:href="#Helvetica-54"/>
      </g>
     </g>
    </g>
    <g id="xtick_3">
     <g id="text_3">
      <!-- IL7R Non B/T -->
      <g style="fill: #333333" transform="translate(59.922236 81.230229) scale(0.035 -0.035)">
       <defs>
        <path id="Helvetica-49" d="M 628 4591 
L 1256 4591 
L 1256 0 
L 628 0 
L 628 4591 
z
" transform="scale(0.015625)"/>
        <path id="Helvetica-4c" d="M 488 4591 
L 1109 4591 
L 1109 547 
L 3434 547 
L 3434 0 
L 488 0 
L 488 4591 
z
" transform="scale(0.015625)"/>
        <path id="Helvetica-37" d="M 3347 4400 
L 3347 3909 
Q 3131 3700 2773 3181 
Q 2416 2663 2141 2063 
Q 1869 1478 1728 997 
Q 1638 688 1494 0 
L 872 0 
Q 1084 1281 1809 2550 
Q 2238 3294 2709 3834 
L 234 3834 
L 234 4400 
L 3347 4400 
z
" transform="scale(0.015625)"/>
        <path id="Helvetica-52" d="M 2622 2488 
Q 3059 2488 3314 2663 
Q 3569 2838 3569 3294 
Q 3569 3784 3213 3963 
Q 3022 4056 2703 4056 
L 1184 4056 
L 1184 2488 
L 2622 2488 
z
M 563 4591 
L 2688 4591 
Q 3213 4591 3553 4438 
Q 4200 4144 4200 3353 
Q 4200 2941 4029 2678 
Q 3859 2416 3553 2256 
Q 3822 2147 3958 1969 
Q 4094 1791 4109 1391 
L 4131 775 
Q 4141 513 4175 384 
Q 4231 166 4375 103 
L 4375 0 
L 3613 0 
Q 3581 59 3562 153 
Q 3544 247 3531 516 
L 3494 1281 
Q 3472 1731 3159 1884 
Q 2981 1969 2600 1969 
L 1184 1969 
L 1184 0 
L 563 0 
L 563 4591 
z
" transform="scale(0.015625)"/>
        <path id="Helvetica-20" transform="scale(0.015625)"/>
        <path id="Helvetica-4e" d="M 488 4591 
L 1222 4591 
L 3541 872 
L 3541 4591 
L 4131 4591 
L 4131 0 
L 3434 0 
L 1081 3716 
L 1081 0 
L 488 0 
L 488 4591 
z
M 2269 4591 
L 2269 4591 
z
" transform="scale(0.015625)"/>
        <path id="Helvetica-6f" d="M 1741 363 
Q 2300 363 2508 786 
Q 2716 1209 2716 1728 
Q 2716 2197 2566 2491 
Q 2328 2953 1747 2953 
Q 1231 2953 997 2559 
Q 763 2166 763 1609 
Q 763 1075 997 719 
Q 1231 363 1741 363 
z
M 1763 3444 
Q 2409 3444 2856 3012 
Q 3303 2581 3303 1744 
Q 3303 934 2909 406 
Q 2516 -122 1688 -122 
Q 997 -122 590 345 
Q 184 813 184 1600 
Q 184 2444 612 2944 
Q 1041 3444 1763 3444 
z
M 1744 3428 
L 1744 3428 
z
" transform="scale(0.015625)"/>
        <path id="Helvetica-6e" d="M 413 3347 
L 947 3347 
L 947 2872 
Q 1184 3166 1450 3294 
Q 1716 3422 2041 3422 
Q 2753 3422 3003 2925 
Q 3141 2653 3141 2147 
L 3141 0 
L 2569 0 
L 2569 2109 
Q 2569 2416 2478 2603 
Q 2328 2916 1934 2916 
Q 1734 2916 1606 2875 
Q 1375 2806 1200 2600 
Q 1059 2434 1017 2257 
Q 975 2081 975 1753 
L 975 0 
L 413 0 
L 413 3347 
z
M 1734 3428 
L 1734 3428 
z
" transform="scale(0.015625)"/>
        <path id="Helvetica-2f" d="M 1456 4591 
L 1931 4591 
L 475 0 
L 0 0 
L 1456 4591 
z
" transform="scale(0.015625)"/>
       </defs>
       <use xlink:href="#Helvetica-49"/>
       <use xlink:href="#Helvetica-4c" x="27.783203"/>
       <use xlink:href="#Helvetica-37" x="83.398438"/>
       <use xlink:href="#Helvetica-52" x="139.013672"/>
       <use xlink:href="#Helvetica-20" x="211.230469"/>
       <use xlink:href="#Helvetica-4e" x="239.013672"/>
       <use xlink:href="#Helvetica-6f" x="311.230469"/>
       <use xlink:href="#Helvetica-6e" x="366.845703"/>
       <use xlink:href="#Helvetica-20" x="422.460938"/>
       <use xlink:href="#Helvetica-42" x="450.244141"/>
       <use xlink:href="#Helvetica-2f" x="516.943359"/>
       <use xlink:href="#Helvetica-54" x="544.726562"/>
      </g>
     </g>
    </g>
   </g>
   <g id="matplotlib.axis_2">
    <g id="ytick_1">
     <g id="line2d_1">
      <defs>
       <path id="m0a06607363" d="M 0 0 
L -1 0 
" style="stroke: #777777; stroke-width: 0.5"/>
      </defs>
      <g>
       <use xlink:href="#m0a06607363" x="13.341646" y="68.030497" style="fill: #777777; stroke: #777777; stroke-width: 0.5"/>
      </g>
     </g>
     <g id="text_4">
      <!-- 0 -->
      <g style="fill: #333333" transform="translate(9.673365 69.106513) scale(0.03 -0.03)">
       <defs>
        <path id="Helvetica-30" d="M 1731 4475 
Q 2600 4475 2988 3759 
Q 3288 3206 3288 2244 
Q 3288 1331 3016 734 
Q 2622 -122 1728 -122 
Q 922 -122 528 578 
Q 200 1163 200 2147 
Q 200 2909 397 3456 
Q 766 4475 1731 4475 
z
M 1725 391 
Q 2163 391 2422 778 
Q 2681 1166 2681 2222 
Q 2681 2984 2493 3476 
Q 2306 3969 1766 3969 
Q 1269 3969 1039 3501 
Q 809 3034 809 2125 
Q 809 1441 956 1025 
Q 1181 391 1725 391 
z
" transform="scale(0.015625)"/>
       </defs>
       <use xlink:href="#Helvetica-30"/>
      </g>
     </g>
    </g>
    <g id="ytick_2">
     <g id="line2d_2">
      <g>
       <use xlink:href="#m0a06607363" x="13.341646" y="55.239649" style="fill: #777777; stroke: #777777; stroke-width: 0.5"/>
      </g>
     </g>
     <g id="text_5">
      <!-- 2000 -->
      <g style="fill: #333333" transform="translate(4.668521 56.315664) scale(0.03 -0.03)">
       <defs>
        <path id="Helvetica-32" d="M 200 0 
Q 231 578 439 1006 
Q 647 1434 1250 1784 
L 1850 2131 
Q 2253 2366 2416 2531 
Q 2672 2791 2672 3125 
Q 2672 3516 2437 3745 
Q 2203 3975 1813 3975 
Q 1234 3975 1013 3538 
Q 894 3303 881 2888 
L 309 2888 
Q 319 3472 525 3841 
Q 891 4491 1816 4491 
Q 2584 4491 2939 4075 
Q 3294 3659 3294 3150 
Q 3294 2613 2916 2231 
Q 2697 2009 2131 1694 
L 1703 1456 
Q 1397 1288 1222 1134 
Q 909 863 828 531 
L 3272 531 
L 3272 0 
L 200 0 
z
" transform="scale(0.015625)"/>
       </defs>
       <use xlink:href="#Helvetica-32"/>
       <use xlink:href="#Helvetica-30" x="55.615234"/>
       <use xlink:href="#Helvetica-30" x="111.230469"/>
       <use xlink:href="#Helvetica-30" x="166.845703"/>
      </g>
     </g>
    </g>
    <g id="ytick_3">
     <g id="line2d_3">
      <g>
       <use xlink:href="#m0a06607363" x="13.341646" y="42.4488" style="fill: #777777; stroke: #777777; stroke-width: 0.5"/>
      </g>
     </g>
     <g id="text_6">
      <!-- 4000 -->
      <g style="fill: #333333" transform="translate(4.668521 43.524816) scale(0.03 -0.03)">
       <defs>
        <path id="Helvetica-34" d="M 2116 1584 
L 2116 3613 
L 681 1584 
L 2116 1584 
z
M 2125 0 
L 2125 1094 
L 163 1094 
L 163 1644 
L 2213 4488 
L 2688 4488 
L 2688 1584 
L 3347 1584 
L 3347 1094 
L 2688 1094 
L 2688 0 
L 2125 0 
z
" transform="scale(0.015625)"/>
       </defs>
       <use xlink:href="#Helvetica-34"/>
       <use xlink:href="#Helvetica-30" x="55.615234"/>
       <use xlink:href="#Helvetica-30" x="111.230469"/>
       <use xlink:href="#Helvetica-30" x="166.845703"/>
      </g>
     </g>
    </g>
    <g id="ytick_4">
     <g id="line2d_4">
      <g>
       <use xlink:href="#m0a06607363" x="13.341646" y="29.657952" style="fill: #777777; stroke: #777777; stroke-width: 0.5"/>
      </g>
     </g>
     <g id="text_7">
      <!-- 6000 -->
      <g style="fill: #333333" transform="translate(4.668521 30.733968) scale(0.03 -0.03)">
       <defs>
        <path id="Helvetica-36" d="M 1872 4494 
Q 2622 4494 2917 4105 
Q 3213 3716 3213 3303 
L 2656 3303 
Q 2606 3569 2497 3719 
Q 2294 4000 1881 4000 
Q 1409 4000 1131 3564 
Q 853 3128 822 2316 
Q 1016 2600 1309 2741 
Q 1578 2866 1909 2866 
Q 2472 2866 2890 2506 
Q 3309 2147 3309 1434 
Q 3309 825 2912 354 
Q 2516 -116 1781 -116 
Q 1153 -116 697 361 
Q 241 838 241 1966 
Q 241 2800 444 3381 
Q 834 4494 1872 4494 
z
M 1831 384 
Q 2275 384 2495 682 
Q 2716 981 2716 1388 
Q 2716 1731 2519 2042 
Q 2322 2353 1803 2353 
Q 1441 2353 1167 2112 
Q 894 1872 894 1388 
Q 894 963 1142 673 
Q 1391 384 1831 384 
z
" transform="scale(0.015625)"/>
       </defs>
       <use xlink:href="#Helvetica-36"/>
       <use xlink:href="#Helvetica-30" x="55.615234"/>
       <use xlink:href="#Helvetica-30" x="111.230469"/>
       <use xlink:href="#Helvetica-30" x="166.845703"/>
      </g>
     </g>
    </g>
    <g id="ytick_5">
     <g id="line2d_5">
      <g>
       <use xlink:href="#m0a06607363" x="13.341646" y="16.867104" style="fill: #777777; stroke: #777777; stroke-width: 0.5"/>
      </g>
     </g>
     <g id="text_8">
      <!-- 8000 -->
      <g style="fill: #333333" transform="translate(4.668521 17.94312) scale(0.03 -0.03)">
       <defs>
        <path id="Helvetica-38" d="M 1741 2600 
Q 2113 2600 2322 2808 
Q 2531 3016 2531 3303 
Q 2531 3553 2331 3762 
Q 2131 3972 1722 3972 
Q 1316 3972 1134 3762 
Q 953 3553 953 3272 
Q 953 2956 1187 2778 
Q 1422 2600 1741 2600 
z
M 1775 384 
Q 2166 384 2423 595 
Q 2681 806 2681 1225 
Q 2681 1659 2415 1884 
Q 2150 2109 1734 2109 
Q 1331 2109 1076 1879 
Q 822 1650 822 1244 
Q 822 894 1055 639 
Q 1288 384 1775 384 
z
M 975 2384 
Q 741 2484 609 2619 
Q 363 2869 363 3269 
Q 363 3769 725 4128 
Q 1088 4488 1753 4488 
Q 2397 4488 2762 4148 
Q 3128 3809 3128 3356 
Q 3128 2938 2916 2678 
Q 2797 2531 2547 2391 
Q 2825 2263 2984 2097 
Q 3281 1784 3281 1284 
Q 3281 694 2884 283 
Q 2488 -128 1763 -128 
Q 1109 -128 657 226 
Q 206 581 206 1256 
Q 206 1653 400 1942 
Q 594 2231 975 2384 
z
" transform="scale(0.015625)"/>
       </defs>
       <use xlink:href="#Helvetica-38"/>
       <use xlink:href="#Helvetica-30" x="55.615234"/>
       <use xlink:href="#Helvetica-30" x="111.230469"/>
       <use xlink:href="#Helvetica-30" x="166.845703"/>
      </g>
     </g>
    </g>
    <g id="ytick_6">
     <g id="line2d_6">
      <g>
       <use xlink:href="#m0a06607363" x="13.341646" y="4.076256" style="fill: #777777; stroke: #777777; stroke-width: 0.5"/>
      </g>
     </g>
     <g id="text_9">
      <!-- 10000 -->
      <g style="fill: #333333" transform="translate(3.00024 5.152271) scale(0.03 -0.03)">
       <defs>
        <path id="Helvetica-31" d="M 613 3169 
L 613 3600 
Q 1222 3659 1462 3798 
Q 1703 3938 1822 4456 
L 2266 4456 
L 2266 0 
L 1666 0 
L 1666 3169 
L 613 3169 
z
" transform="scale(0.015625)"/>
       </defs>
       <use xlink:href="#Helvetica-31"/>
       <use xlink:href="#Helvetica-30" x="55.615234"/>
       <use xlink:href="#Helvetica-30" x="111.230469"/>
       <use xlink:href="#Helvetica-30" x="166.845703"/>
       <use xlink:href="#Helvetica-30" x="222.460938"/>
      </g>
     </g>
    </g>
   </g>
   <g id="PolyCollection_1">
    <defs>
     <path id="m999d90ef38" d="M 25.349717 -16.347231 
L 24.20628 -16.347231 
L 24.026835 -16.452796 
L 23.807217 -16.55836 
L 23.542986 -16.663924 
L 23.230238 -16.769489 
L 22.865879 -16.875053 
L 22.447945 -16.980618 
L 21.975994 -17.086182 
L 21.451581 -17.191746 
L 20.878778 -17.297311 
L 20.264713 -17.402875 
L 19.620025 -17.508439 
L 18.959134 -17.614004 
L 18.300194 -17.719568 
L 17.664628 -17.825133 
L 17.076183 -17.930697 
L 16.5595 -18.036261 
L 16.138306 -18.141826 
L 15.833385 -18.24739 
L 15.660554 -18.352954 
L 15.628917 -18.458519 
L 15.739616 -18.564083 
L 15.985286 -18.669647 
L 16.350293 -18.775212 
L 16.811763 -18.880776 
L 17.341309 -18.986341 
L 17.907238 -19.091905 
L 18.477032 -19.197469 
L 19.019809 -19.303034 
L 19.508524 -19.408598 
L 19.921709 -19.514162 
L 20.244601 -19.619727 
L 20.469614 -19.725291 
L 20.596164 -19.830856 
L 20.629957 -19.93642 
L 20.58187 -20.041984 
L 20.466586 -20.147549 
L 20.301153 -20.253113 
L 20.103584 -20.358677 
L 19.891587 -20.464242 
L 19.681485 -20.569806 
L 19.487333 -20.675371 
L 19.320264 -20.780935 
L 19.188044 -20.886499 
L 19.094896 -20.992064 
L 19.041595 -21.097628 
L 19.025857 -21.203192 
L 19.04302 -21.308757 
L 19.086953 -21.414321 
L 19.151077 -21.519886 
L 19.22938 -21.62545 
L 19.317243 -21.731014 
L 19.411962 -21.836579 
L 19.512883 -21.942143 
L 19.621167 -22.047707 
L 19.739235 -22.153272 
L 19.870063 -22.258836 
L 20.016451 -22.364401 
L 20.180435 -22.469965 
L 20.362905 -22.575529 
L 20.563478 -22.681094 
L 20.78057 -22.786658 
L 21.011606 -22.892222 
L 21.253258 -22.997787 
L 21.501664 -23.103351 
L 21.752559 -23.208916 
L 22.001355 -23.31448 
L 22.243195 -23.420044 
L 22.473027 -23.525609 
L 22.685777 -23.631173 
L 22.876606 -23.736737 
L 23.04127 -23.842302 
L 23.176518 -23.947866 
L 23.280461 -24.053431 
L 23.352843 -24.158995 
L 23.395142 -24.264559 
L 23.410479 -24.370124 
L 23.403343 -24.475688 
L 23.379163 -24.581252 
L 23.343819 -24.686817 
L 23.303159 -24.792381 
L 23.262595 -24.897946 
L 23.226835 -25.00351 
L 23.199752 -25.109074 
L 23.184382 -25.214639 
L 23.182999 -25.320203 
L 23.197207 -25.425767 
L 23.228011 -25.531332 
L 23.275832 -25.636896 
L 23.340469 -25.742461 
L 23.42102 -25.848025 
L 23.515827 -25.953589 
L 23.622468 -26.059154 
L 23.737831 -26.164718 
L 23.858289 -26.270282 
L 23.979961 -26.375847 
L 24.099009 -26.481411 
L 24.211952 -26.586976 
L 24.315921 -26.69254 
L 24.408836 -26.798104 
L 25.147161 -26.798104 
L 25.147161 -26.798104 
L 25.240077 -26.69254 
L 25.344045 -26.586976 
L 25.456988 -26.481411 
L 25.576037 -26.375847 
L 25.697708 -26.270282 
L 25.818166 -26.164718 
L 25.933529 -26.059154 
L 26.04017 -25.953589 
L 26.134978 -25.848025 
L 26.215528 -25.742461 
L 26.280165 -25.636896 
L 26.327987 -25.531332 
L 26.35879 -25.425767 
L 26.372998 -25.320203 
L 26.371615 -25.214639 
L 26.356246 -25.109074 
L 26.329162 -25.00351 
L 26.293402 -24.897946 
L 26.252838 -24.792381 
L 26.212178 -24.686817 
L 26.176835 -24.581252 
L 26.152654 -24.475688 
L 26.145518 -24.370124 
L 26.160855 -24.264559 
L 26.203154 -24.158995 
L 26.275536 -24.053431 
L 26.379479 -23.947866 
L 26.514727 -23.842302 
L 26.679391 -23.736737 
L 26.87022 -23.631173 
L 27.08297 -23.525609 
L 27.312803 -23.420044 
L 27.554642 -23.31448 
L 27.803439 -23.208916 
L 28.054333 -23.103351 
L 28.302739 -22.997787 
L 28.544391 -22.892222 
L 28.775427 -22.786658 
L 28.992519 -22.681094 
L 29.193092 -22.575529 
L 29.375562 -22.469965 
L 29.539546 -22.364401 
L 29.685934 -22.258836 
L 29.816762 -22.153272 
L 29.93483 -22.047707 
L 30.043114 -21.942143 
L 30.144036 -21.836579 
L 30.238754 -21.731014 
L 30.326617 -21.62545 
L 30.40492 -21.519886 
L 30.469044 -21.414321 
L 30.512977 -21.308757 
L 30.53014 -21.203192 
L 30.514402 -21.097628 
L 30.461101 -20.992064 
L 30.367954 -20.886499 
L 30.235733 -20.780935 
L 30.068664 -20.675371 
L 29.874513 -20.569806 
L 29.66441 -20.464242 
L 29.452413 -20.358677 
L 29.254844 -20.253113 
L 29.089412 -20.147549 
L 28.974128 -20.041984 
L 28.92604 -19.93642 
L 28.959834 -19.830856 
L 29.086383 -19.725291 
L 29.311396 -19.619727 
L 29.634288 -19.514162 
L 30.047473 -19.408598 
L 30.536188 -19.303034 
L 31.078965 -19.197469 
L 31.648759 -19.091905 
L 32.214688 -18.986341 
L 32.744234 -18.880776 
L 33.205704 -18.775212 
L 33.570711 -18.669647 
L 33.816381 -18.564083 
L 33.92708 -18.458519 
L 33.895443 -18.352954 
L 33.722612 -18.24739 
L 33.417691 -18.141826 
L 32.996498 -18.036261 
L 32.479814 -17.930697 
L 31.891369 -17.825133 
L 31.255803 -17.719568 
L 30.596863 -17.614004 
L 29.935972 -17.508439 
L 29.291284 -17.402875 
L 28.677219 -17.297311 
L 28.104416 -17.191746 
L 27.580003 -17.086182 
L 27.108052 -16.980618 
L 26.690118 -16.875053 
L 26.325759 -16.769489 
L 26.013011 -16.663924 
L 25.74878 -16.55836 
L 25.529162 -16.452796 
L 25.349717 -16.347231 
z
" style="stroke: #414141; stroke-width: 0.15"/>
    </defs>
    <g clip-path="url(#p2cfc5e4999)">
     <use xlink:href="#m999d90ef38" x="0" y="84.96" style="fill: #abc9ea; stroke: #414141; stroke-width: 0.15"/>
    </g>
   </g>
   <g id="PolyCollection_2">
    <defs>
     <path id="m5d0c7f78cf" d="M 48.827832 -15.306888 
L 46.473574 -15.306888 
L 46.183749 -15.792329 
L 45.86205 -16.27777 
L 45.516549 -16.763212 
L 45.158357 -17.248653 
L 44.801049 -17.734095 
L 44.459692 -18.219536 
L 44.149569 -18.704977 
L 43.884728 -19.190419 
L 43.676552 -19.67586 
L 43.532561 -20.161301 
L 43.455601 -20.646743 
L 43.44357 -21.132184 
L 43.489693 -21.617626 
L 43.583306 -22.103067 
L 43.711014 -22.588508 
L 43.858053 -23.07395 
L 44.009649 -23.559391 
L 44.15222 -24.044833 
L 44.2743 -24.530274 
L 44.367127 -25.015715 
L 44.424906 -25.501157 
L 44.4448 -25.986598 
L 44.426719 -26.47204 
L 44.372973 -26.957481 
L 44.287832 -27.442922 
L 44.177027 -27.928364 
L 44.047191 -28.413805 
L 43.905233 -28.899247 
L 43.757665 -29.384688 
L 43.609913 -29.870129 
L 43.46566 -30.355571 
L 43.326334 -30.841012 
L 43.190797 -31.326453 
L 43.055348 -31.811895 
L 42.914061 -32.297336 
L 42.759469 -32.782778 
L 42.583528 -33.268219 
L 42.378748 -33.75366 
L 42.139343 -34.239102 
L 41.862243 -34.724543 
L 41.547825 -35.209985 
L 41.200267 -35.695426 
L 40.827477 -36.180867 
L 40.440624 -36.666309 
L 40.05334 -37.15175 
L 39.680697 -37.637192 
L 39.338078 -38.122633 
L 39.04005 -38.608074 
L 38.799307 -39.093516 
L 38.625759 -39.578957 
L 38.525775 -40.064399 
L 38.501621 -40.54984 
L 38.551106 -41.035281 
L 38.667488 -41.520723 
L 38.839686 -42.006164 
L 39.052851 -42.491605 
L 39.289329 -42.977047 
L 39.529997 -43.462488 
L 39.755913 -43.94793 
L 39.950117 -44.433371 
L 40.099401 -44.918812 
L 40.195789 -45.404254 
L 40.237519 -45.889695 
L 40.229322 -46.375137 
L 40.181943 -46.860578 
L 40.110895 -47.346019 
L 40.034643 -47.831461 
L 39.972433 -48.316902 
L 39.942104 -48.802344 
L 39.958189 -49.287785 
L 40.030555 -49.773226 
L 40.163749 -50.258668 
L 40.357069 -50.744109 
L 40.605266 -51.229551 
L 40.8997 -51.714992 
L 41.229707 -52.200433 
L 41.583942 -52.685875 
L 41.951517 -53.171316 
L 42.322838 -53.656757 
L 42.690075 -54.142199 
L 43.047346 -54.62764 
L 43.390654 -55.113082 
L 43.717685 -55.598523 
L 44.02754 -56.083964 
L 44.320433 -56.569406 
L 44.597402 -57.054847 
L 44.860009 -57.540289 
L 45.110043 -58.02573 
L 45.349238 -58.511171 
L 45.578997 -58.996613 
L 45.800185 -59.482054 
L 46.012991 -59.967496 
L 46.216905 -60.452937 
L 46.410801 -60.938378 
L 46.59312 -61.42382 
L 46.762118 -61.909261 
L 46.916142 -62.394703 
L 47.053873 -62.880144 
L 47.174516 -63.365585 
L 48.12689 -63.365585 
L 48.12689 -63.365585 
L 48.247533 -62.880144 
L 48.385264 -62.394703 
L 48.539288 -61.909261 
L 48.708287 -61.42382 
L 48.890605 -60.938378 
L 49.084501 -60.452937 
L 49.288415 -59.967496 
L 49.501222 -59.482054 
L 49.722409 -58.996613 
L 49.952168 -58.511171 
L 50.191363 -58.02573 
L 50.441398 -57.540289 
L 50.704004 -57.054847 
L 50.980973 -56.569406 
L 51.273867 -56.083964 
L 51.583721 -55.598523 
L 51.910753 -55.113082 
L 52.25406 -54.62764 
L 52.611331 -54.142199 
L 52.978569 -53.656757 
L 53.349889 -53.171316 
L 53.717465 -52.685875 
L 54.071699 -52.200433 
L 54.401706 -51.714992 
L 54.696141 -51.229551 
L 54.944337 -50.744109 
L 55.137657 -50.258668 
L 55.270851 -49.773226 
L 55.343218 -49.287785 
L 55.359302 -48.802344 
L 55.328973 -48.316902 
L 55.266763 -47.831461 
L 55.190511 -47.346019 
L 55.119464 -46.860578 
L 55.072084 -46.375137 
L 55.063888 -45.889695 
L 55.105617 -45.404254 
L 55.202005 -44.918812 
L 55.351289 -44.433371 
L 55.545494 -43.94793 
L 55.771409 -43.462488 
L 56.012078 -42.977047 
L 56.248555 -42.491605 
L 56.461721 -42.006164 
L 56.633919 -41.520723 
L 56.7503 -41.035281 
L 56.799785 -40.54984 
L 56.775631 -40.064399 
L 56.675647 -39.578957 
L 56.502099 -39.093516 
L 56.261356 -38.608074 
L 55.963328 -38.122633 
L 55.620709 -37.637192 
L 55.248066 -37.15175 
L 54.860782 -36.666309 
L 54.473929 -36.180867 
L 54.101139 -35.695426 
L 53.753581 -35.209985 
L 53.439164 -34.724543 
L 53.162063 -34.239102 
L 52.922658 -33.75366 
L 52.717878 -33.268219 
L 52.541938 -32.782778 
L 52.387346 -32.297336 
L 52.246058 -31.811895 
L 52.110609 -31.326453 
L 51.975072 -30.841012 
L 51.835746 -30.355571 
L 51.691494 -29.870129 
L 51.543741 -29.384688 
L 51.396174 -28.899247 
L 51.254216 -28.413805 
L 51.124379 -27.928364 
L 51.013574 -27.442922 
L 50.928433 -26.957481 
L 50.874687 -26.47204 
L 50.856607 -25.986598 
L 50.8765 -25.501157 
L 50.934279 -25.015715 
L 51.027106 -24.530274 
L 51.149186 -24.044833 
L 51.291757 -23.559391 
L 51.443353 -23.07395 
L 51.590392 -22.588508 
L 51.718101 -22.103067 
L 51.811713 -21.617626 
L 51.857837 -21.132184 
L 51.845806 -20.646743 
L 51.768845 -20.161301 
L 51.624854 -19.67586 
L 51.416679 -19.190419 
L 51.151838 -18.704977 
L 50.841715 -18.219536 
L 50.500358 -17.734095 
L 50.143049 -17.248653 
L 49.784857 -16.763212 
L 49.439357 -16.27777 
L 49.117657 -15.792329 
L 48.827832 -15.306888 
z
" style="stroke: #414141; stroke-width: 0.15"/>
    </defs>
    <g clip-path="url(#p2cfc5e4999)">
     <use xlink:href="#m5d0c7f78cf" x="0" y="84.96" style="fill: #efb792; stroke: #414141; stroke-width: 0.15"/>
    </g>
   </g>
   <g id="PolyCollection_3">
    <defs>
     <path id="m1a96b96d45" d="M 71.983813 -14.872638 
L 69.063002 -14.872638 
L 68.671789 -15.092669 
L 68.216358 -15.312699 
L 67.698171 -15.532729 
L 67.122325 -15.75276 
L 66.497879 -15.97279 
L 65.837864 -16.19282 
L 65.158938 -16.412851 
L 64.480655 -16.632881 
L 63.82439 -16.852911 
L 63.211979 -17.072942 
L 62.664211 -17.292972 
L 62.199296 -17.513002 
L 61.83149 -17.733033 
L 61.570017 -17.953063 
L 61.418404 -18.173093 
L 61.374326 -18.393124 
L 61.429962 -18.613154 
L 61.572836 -18.833184 
L 61.787044 -19.053215 
L 62.054749 -19.273245 
L 62.357771 -19.493275 
L 62.679108 -19.713306 
L 63.004257 -19.933336 
L 63.322184 -20.153366 
L 63.625877 -20.373397 
L 63.91245 -20.593427 
L 64.182802 -20.813458 
L 64.440892 -21.033488 
L 64.692741 -21.253518 
L 64.94527 -21.473549 
L 65.205116 -21.693579 
L 65.47756 -21.913609 
L 65.765677 -22.13364 
L 66.069789 -22.35367 
L 66.387276 -22.5737 
L 66.712736 -22.793731 
L 67.038458 -23.013761 
L 67.355156 -23.233791 
L 67.652851 -23.453822 
L 67.92182 -23.673852 
L 68.153504 -23.893882 
L 68.341294 -24.113913 
L 68.48113 -24.333943 
L 68.571873 -24.553973 
L 68.61542 -24.774004 
L 68.616571 -24.994034 
L 68.582674 -25.214064 
L 68.523067 -25.434095 
L 68.448383 -25.654125 
L 68.369761 -25.874155 
L 68.298039 -26.094186 
L 68.242979 -26.314216 
L 68.212608 -26.534246 
L 68.2127 -26.754277 
L 68.246462 -26.974307 
L 68.314435 -27.194337 
L 68.414612 -27.414368 
L 68.542745 -27.634398 
L 68.692808 -27.854428 
L 68.857564 -28.074459 
L 69.029165 -28.294489 
L 69.199738 -28.514519 
L 69.361902 -28.73455 
L 69.509176 -28.95458 
L 69.636274 -29.17461 
L 69.739261 -29.394641 
L 69.815599 -29.614671 
L 69.864095 -29.834701 
L 69.884774 -30.054732 
L 69.878704 -30.274762 
L 69.847794 -30.494792 
L 69.794598 -30.714823 
L 69.72211 -30.934853 
L 69.633602 -31.154883 
L 69.532485 -31.374914 
L 69.422207 -31.594944 
L 69.306204 -31.814974 
L 69.187876 -32.035005 
L 69.070607 -32.255035 
L 68.957794 -32.475065 
L 68.852871 -32.695096 
L 68.759309 -32.915126 
L 68.680573 -33.135156 
L 68.620006 -33.355187 
L 68.580669 -33.575217 
L 68.565121 -33.795247 
L 68.575178 -34.015278 
L 68.611688 -34.235308 
L 68.674351 -34.455338 
L 68.761637 -34.675369 
L 68.870802 -34.895399 
L 68.99803 -35.11543 
L 69.138685 -35.33546 
L 69.28764 -35.55549 
L 69.439645 -35.775521 
L 69.589704 -35.995551 
L 69.733391 -36.215581 
L 69.8671 -36.435612 
L 69.988188 -36.655642 
L 71.058627 -36.655642 
L 71.058627 -36.655642 
L 71.179716 -36.435612 
L 71.313424 -36.215581 
L 71.457111 -35.995551 
L 71.60717 -35.775521 
L 71.759176 -35.55549 
L 71.90813 -35.33546 
L 72.048785 -35.11543 
L 72.176014 -34.895399 
L 72.285178 -34.675369 
L 72.372464 -34.455338 
L 72.435128 -34.235308 
L 72.471637 -34.015278 
L 72.481694 -33.795247 
L 72.466146 -33.575217 
L 72.42681 -33.355187 
L 72.366243 -33.135156 
L 72.287506 -32.915126 
L 72.193945 -32.695096 
L 72.089022 -32.475065 
L 71.976208 -32.255035 
L 71.85894 -32.035005 
L 71.740612 -31.814974 
L 71.624608 -31.594944 
L 71.514331 -31.374914 
L 71.413213 -31.154883 
L 71.324706 -30.934853 
L 71.252218 -30.714823 
L 71.199021 -30.494792 
L 71.168112 -30.274762 
L 71.162041 -30.054732 
L 71.18272 -29.834701 
L 71.231217 -29.614671 
L 71.307555 -29.394641 
L 71.410541 -29.17461 
L 71.537639 -28.95458 
L 71.684913 -28.73455 
L 71.847077 -28.514519 
L 72.017651 -28.294489 
L 72.189252 -28.074459 
L 72.354008 -27.854428 
L 72.504071 -27.634398 
L 72.632203 -27.414368 
L 72.73238 -27.194337 
L 72.800354 -26.974307 
L 72.834116 -26.754277 
L 72.834207 -26.534246 
L 72.803836 -26.314216 
L 72.748777 -26.094186 
L 72.677054 -25.874155 
L 72.598432 -25.654125 
L 72.523748 -25.434095 
L 72.464142 -25.214064 
L 72.430245 -24.994034 
L 72.431396 -24.774004 
L 72.474942 -24.553973 
L 72.565685 -24.333943 
L 72.705521 -24.113913 
L 72.893311 -23.893882 
L 73.124995 -23.673852 
L 73.393964 -23.453822 
L 73.69166 -23.233791 
L 74.008358 -23.013761 
L 74.33408 -22.793731 
L 74.659539 -22.5737 
L 74.977027 -22.35367 
L 75.281139 -22.13364 
L 75.569255 -21.913609 
L 75.841699 -21.693579 
L 76.101545 -21.473549 
L 76.354074 -21.253518 
L 76.605924 -21.033488 
L 76.864014 -20.813458 
L 77.134365 -20.593427 
L 77.420939 -20.373397 
L 77.724632 -20.153366 
L 78.042558 -19.933336 
L 78.367707 -19.713306 
L 78.689045 -19.493275 
L 78.992066 -19.273245 
L 79.259772 -19.053215 
L 79.47398 -18.833184 
L 79.616853 -18.613154 
L 79.67249 -18.393124 
L 79.628412 -18.173093 
L 79.476799 -17.953063 
L 79.215325 -17.733033 
L 78.847519 -17.513002 
L 78.382604 -17.292972 
L 77.834836 -17.072942 
L 77.222426 -16.852911 
L 76.56616 -16.632881 
L 75.887878 -16.412851 
L 75.208951 -16.19282 
L 74.548937 -15.97279 
L 73.92449 -15.75276 
L 73.348644 -15.532729 
L 72.830457 -15.312699 
L 72.375026 -15.092669 
L 71.983813 -14.872638 
z
" style="stroke: #414141; stroke-width: 0.15"/>
    </defs>
    <g clip-path="url(#p2cfc5e4999)">
     <use xlink:href="#m1a96b96d45" x="0" y="84.96" style="fill: #7e5c60; stroke: #414141; stroke-width: 0.15"/>
    </g>
   </g>
   <g id="line2d_7">
    <path d="M 24.777999 67.62745 
L 24.777999 59.147214 
" clip-path="url(#p2cfc5e4999)" style="fill: none; stroke: #8c8c8c; stroke-width: 0.75; stroke-linecap: round"/>
   </g>
   <g id="line2d_8">
    <path d="M 24.777999 66.593267 
L 24.777999 62.805725 
" clip-path="url(#p2cfc5e4999)" style="fill: none; stroke: #8c8c8c; stroke-width: 4; stroke-linecap: round"/>
   </g>
   <g id="line2d_9">
    <path d="M 24.777999 64.681916 
" clip-path="url(#p2cfc5e4999)" style="fill: none; stroke: #414141; stroke-width: 1.2; stroke-linecap: round"/>
    <defs>
     <path id="m922046f68c" d="M 0 0.833333 
C 0.221003 0.833333 0.432983 0.745528 0.589256 0.589256 
C 0.745528 0.432983 0.833333 0.221003 0.833333 0 
C 0.833333 -0.221003 0.745528 -0.432983 0.589256 -0.589256 
C 0.432983 -0.745528 0.221003 -0.833333 0 -0.833333 
C -0.221003 -0.833333 -0.432983 -0.745528 -0.589256 -0.589256 
C -0.745528 -0.432983 -0.833333 -0.221003 -0.833333 0 
C -0.833333 0.221003 -0.745528 0.432983 -0.589256 0.589256 
C -0.432983 0.745528 -0.221003 0.833333 0 0.833333 
z
" style="stroke: #ffffff; stroke-width: 0.8"/>
    </defs>
    <g clip-path="url(#p2cfc5e4999)">
     <use xlink:href="#m922046f68c" x="24.777999" y="64.681916" style="fill: #ffffff; stroke: #ffffff; stroke-width: 0.8"/>
    </g>
   </g>
   <g id="line2d_10">
    <path d="M 47.650703 64.966255 
L 47.650703 26.281272 
" clip-path="url(#p2cfc5e4999)" style="fill: none; stroke: #8c8c8c; stroke-width: 0.75; stroke-linecap: round"/>
   </g>
   <g id="line2d_11">
    <path d="M 47.650703 52.584677 
L 47.650703 36.353371 
" clip-path="url(#p2cfc5e4999)" style="fill: none; stroke: #8c8c8c; stroke-width: 4; stroke-linecap: round"/>
   </g>
   <g id="line2d_12">
    <path d="M 47.650703 43.835979 
" clip-path="url(#p2cfc5e4999)" style="fill: none; stroke: #414141; stroke-width: 1.2; stroke-linecap: round"/>
    <g clip-path="url(#p2cfc5e4999)">
     <use xlink:href="#m922046f68c" x="47.650703" y="43.835979" style="fill: #ffffff; stroke: #ffffff; stroke-width: 0.8"/>
    </g>
   </g>
   <g id="line2d_13">
    <path d="M 70.523408 67.812381 
L 70.523408 57.651451 
" clip-path="url(#p2cfc5e4999)" style="fill: none; stroke: #8c8c8c; stroke-width: 0.75; stroke-linecap: round"/>
   </g>
   <g id="line2d_14">
    <path d="M 70.523408 66.756577 
L 70.523408 61.473198 
" clip-path="url(#p2cfc5e4999)" style="fill: none; stroke: #8c8c8c; stroke-width: 4; stroke-linecap: round"/>
   </g>
   <g id="line2d_15">
    <path d="M 70.523408 64.991033 
" clip-path="url(#p2cfc5e4999)" style="fill: none; stroke: #414141; stroke-width: 1.2; stroke-linecap: round"/>
    <g clip-path="url(#p2cfc5e4999)">
     <use xlink:href="#m922046f68c" x="70.523408" y="64.991033" style="fill: #ffffff; stroke: #ffffff; stroke-width: 0.8"/>
    </g>
   </g>
   <g id="patch_3">
    <path d="M 13.341646 74.419526 
L 13.341646 4.076256 
" style="fill: none; stroke: #777777; stroke-width: 0.5; stroke-linejoin: miter; stroke-linecap: square"/>
   </g>
   <g id="patch_4">
    <path d="M 13.341646 76.919526 
L 81.95976 76.919526 
" style="fill: none; stroke: #777777; stroke-width: 0.5; stroke-linejoin: miter; stroke-linecap: square"/>
   </g>
  </g>
 </g>
 <defs>
  <clipPath id="p2cfc5e4999">
   <rect x="13.341646" y="4.076256" width="68.618114" height="70.34327"/>
  </clipPath>
 </defs>
</svg>
