<?xml version="1.0" encoding="utf-8" standalone="no"?>
<!DOCTYPE svg PUBLIC "-//W3C//DTD SVG 1.1//EN"
  "http://www.w3.org/Graphics/SVG/1.1/DTD/svg11.dtd">
<svg xmlns:xlink="http://www.w3.org/1999/xlink" width="169.92pt" height="84.96pt" viewBox="0 0 169.92 84.96" xmlns="http://www.w3.org/2000/svg" version="1.1">
 <metadata>
  <rdf:RDF xmlns:dc="http://purl.org/dc/elements/1.1/" xmlns:cc="http://creativecommons.org/ns#" xmlns:rdf="http://www.w3.org/1999/02/22-rdf-syntax-ns#">
   <cc:Work>
    <dc:type rdf:resource="http://purl.org/dc/dcmitype/StillImage"/>
    <dc:date>2024-05-27T15:37:25.793004</dc:date>
    <dc:format>image/svg+xml</dc:format>
    <dc:creator>
     <cc:Agent>
      <dc:title>Matplotlib v3.8.3, https://matplotlib.org/</dc:title>
     </cc:Agent>
    </dc:creator>
   </cc:Work>
  </rdf:RDF>
 </metadata>
 <defs>
  <style type="text/css">*{stroke-linejoin: round; stroke-linecap: butt}</style>
 </defs>
 <g id="figure_1">
  <g id="patch_1">
   <path d="M 0 84.96 
L 169.92 84.96 
L 169.92 0 
L 0 0 
z
" style="fill: #ffffff"/>
  </g>
  <g id="axes_1">
   <g id="patch_2">
    <path d="M 6.668521 74.419526 
L 81.125619 74.419526 
L 81.125619 4.076256 
L 6.668521 4.076256 
z
" style="fill: #ffffff"/>
   </g>
   <g id="matplotlib.axis_1">
    <g id="xtick_1">
     <g id="text_1">
      <!-- NK/ILC1ie -->
      <g style="fill: #333333" transform="translate(8.000034 81.230229) scale(0.035 -0.035)">
       <defs>
        <path id="Helvetica-4e" d="M 488 4591 
L 1222 4591 
L 3541 872 
L 3541 4591 
L 4131 4591 
L 4131 0 
L 3434 0 
L 1081 3716 
L 1081 0 
L 488 0 
L 488 4591 
z
M 2269 4591 
L 2269 4591 
z
" transform="scale(0.015625)"/>
        <path id="Helvetica-4b" d="M 488 4591 
L 1094 4591 
L 1094 2353 
L 3331 4591 
L 4191 4591 
L 2281 2741 
L 4244 0 
L 3434 0 
L 1828 2303 
L 1094 1600 
L 1094 0 
L 488 0 
L 488 4591 
z
" transform="scale(0.015625)"/>
        <path id="Helvetica-2f" d="M 1456 4591 
L 1931 4591 
L 475 0 
L 0 0 
L 1456 4591 
z
" transform="scale(0.015625)"/>
        <path id="Helvetica-49" d="M 628 4591 
L 1256 4591 
L 1256 0 
L 628 0 
L 628 4591 
z
" transform="scale(0.015625)"/>
        <path id="Helvetica-4c" d="M 488 4591 
L 1109 4591 
L 1109 547 
L 3434 547 
L 3434 0 
L 488 0 
L 488 4591 
z
" transform="scale(0.015625)"/>
        <path id="Helvetica-43" d="M 2422 4716 
Q 3294 4716 3775 4256 
Q 4256 3797 4309 3213 
L 3703 3213 
Q 3600 3656 3292 3915 
Q 2984 4175 2428 4175 
Q 1750 4175 1333 3698 
Q 916 3222 916 2238 
Q 916 1431 1292 929 
Q 1669 428 2416 428 
Q 3103 428 3463 956 
Q 3653 1234 3747 1688 
L 4353 1688 
Q 4272 963 3816 472 
Q 3269 -119 2341 -119 
Q 1541 -119 997 366 
Q 281 1006 281 2344 
Q 281 3359 819 4009 
Q 1400 4716 2422 4716 
z
M 2297 4716 
L 2297 4716 
z
" transform="scale(0.015625)"/>
        <path id="Helvetica-31" d="M 613 3169 
L 613 3600 
Q 1222 3659 1462 3798 
Q 1703 3938 1822 4456 
L 2266 4456 
L 2266 0 
L 1666 0 
L 1666 3169 
L 613 3169 
z
" transform="scale(0.015625)"/>
        <path id="Helvetica-69" d="M 413 3331 
L 984 3331 
L 984 0 
L 413 0 
L 413 3331 
z
M 413 4591 
L 984 4591 
L 984 3953 
L 413 3953 
L 413 4591 
z
" transform="scale(0.015625)"/>
        <path id="Helvetica-65" d="M 1806 3422 
Q 2163 3422 2497 3255 
Q 2831 3088 3006 2822 
Q 3175 2569 3231 2231 
Q 3281 2000 3281 1494 
L 828 1494 
Q 844 984 1069 676 
Q 1294 369 1766 369 
Q 2206 369 2469 659 
Q 2619 828 2681 1050 
L 3234 1050 
Q 3213 866 3089 639 
Q 2966 413 2813 269 
Q 2556 19 2178 -69 
Q 1975 -119 1719 -119 
Q 1094 -119 659 336 
Q 225 791 225 1609 
Q 225 2416 662 2919 
Q 1100 3422 1806 3422 
z
M 2703 1941 
Q 2669 2306 2544 2525 
Q 2313 2931 1772 2931 
Q 1384 2931 1121 2651 
Q 859 2372 844 1941 
L 2703 1941 
z
M 1753 3428 
L 1753 3428 
z
" transform="scale(0.015625)"/>
       </defs>
       <use xlink:href="#Helvetica-4e"/>
       <use xlink:href="#Helvetica-4b" x="72.216797"/>
       <use xlink:href="#Helvetica-2f" x="138.916016"/>
       <use xlink:href="#Helvetica-49" x="166.699219"/>
       <use xlink:href="#Helvetica-4c" x="194.482422"/>
       <use xlink:href="#Helvetica-43" x="250.097656"/>
       <use xlink:href="#Helvetica-31" x="322.314453"/>
       <use xlink:href="#Helvetica-69" x="377.929688"/>
       <use xlink:href="#Helvetica-65" x="400.146484"/>
      </g>
     </g>
    </g>
    <g id="xtick_2">
     <g id="text_2">
      <!-- ILC1 -->
      <g style="fill: #333333" transform="translate(30.893605 81.230229) scale(0.035 -0.035)">
       <use xlink:href="#Helvetica-49"/>
       <use xlink:href="#Helvetica-4c" x="27.783203"/>
       <use xlink:href="#Helvetica-43" x="83.398438"/>
       <use xlink:href="#Helvetica-31" x="155.615234"/>
      </g>
     </g>
    </g>
    <g id="xtick_3">
     <g id="text_3">
      <!-- ILC2 -->
      <g style="fill: #333333" transform="translate(49.507879 81.230229) scale(0.035 -0.035)">
       <defs>
        <path id="Helvetica-32" d="M 200 0 
Q 231 578 439 1006 
Q 647 1434 1250 1784 
L 1850 2131 
Q 2253 2366 2416 2531 
Q 2672 2791 2672 3125 
Q 2672 3516 2437 3745 
Q 2203 3975 1813 3975 
Q 1234 3975 1013 3538 
Q 894 3303 881 2888 
L 309 2888 
Q 319 3472 525 3841 
Q 891 4491 1816 4491 
Q 2584 4491 2939 4075 
Q 3294 3659 3294 3150 
Q 3294 2613 2916 2231 
Q 2697 2009 2131 1694 
L 1703 1456 
Q 1397 1288 1222 1134 
Q 909 863 828 531 
L 3272 531 
L 3272 0 
L 200 0 
z
" transform="scale(0.015625)"/>
       </defs>
       <use xlink:href="#Helvetica-49"/>
       <use xlink:href="#Helvetica-4c" x="27.783203"/>
       <use xlink:href="#Helvetica-43" x="83.398438"/>
       <use xlink:href="#Helvetica-32" x="155.615234"/>
      </g>
     </g>
    </g>
    <g id="xtick_4">
     <g id="text_4">
      <!-- ILC3 -->
      <g style="fill: #333333" transform="translate(68.122154 81.230229) scale(0.035 -0.035)">
       <defs>
        <path id="Helvetica-33" d="M 1663 -122 
Q 869 -122 511 314 
Q 153 750 153 1375 
L 741 1375 
Q 778 941 903 744 
Q 1122 391 1694 391 
Q 2138 391 2406 628 
Q 2675 866 2675 1241 
Q 2675 1703 2392 1887 
Q 2109 2072 1606 2072 
Q 1550 2072 1492 2070 
Q 1434 2069 1375 2066 
L 1375 2563 
Q 1463 2553 1522 2550 
Q 1581 2547 1650 2547 
Q 1966 2547 2169 2647 
Q 2525 2822 2525 3272 
Q 2525 3606 2287 3787 
Q 2050 3969 1734 3969 
Q 1172 3969 956 3594 
Q 838 3388 822 3006 
L 266 3006 
Q 266 3506 466 3856 
Q 809 4481 1675 4481 
Q 2359 4481 2734 4176 
Q 3109 3872 3109 3294 
Q 3109 2881 2888 2625 
Q 2750 2466 2531 2375 
Q 2884 2278 3082 2001 
Q 3281 1725 3281 1325 
Q 3281 684 2859 281 
Q 2438 -122 1663 -122 
z
" transform="scale(0.015625)"/>
       </defs>
       <use xlink:href="#Helvetica-49"/>
       <use xlink:href="#Helvetica-4c" x="27.783203"/>
       <use xlink:href="#Helvetica-43" x="83.398438"/>
       <use xlink:href="#Helvetica-33" x="155.615234"/>
      </g>
     </g>
    </g>
   </g>
   <g id="matplotlib.axis_2">
    <g id="ytick_1">
     <g id="line2d_1">
      <defs>
       <path id="m7187810626" d="M 0 0 
L -1 0 
" style="stroke: #777777; stroke-width: 0.5"/>
      </defs>
      <g>
       <use xlink:href="#m7187810626" x="6.668521" y="65.244316" style="fill: #777777; stroke: #777777; stroke-width: 0.5"/>
      </g>
     </g>
     <g id="text_5">
      <!-- 0 -->
      <g style="fill: #333333" transform="translate(3.00024 66.320332) scale(0.03 -0.03)">
       <defs>
        <path id="Helvetica-30" d="M 1731 4475 
Q 2600 4475 2988 3759 
Q 3288 3206 3288 2244 
Q 3288 1331 3016 734 
Q 2622 -122 1728 -122 
Q 922 -122 528 578 
Q 200 1163 200 2147 
Q 200 2909 397 3456 
Q 766 4475 1731 4475 
z
M 1725 391 
Q 2163 391 2422 778 
Q 2681 1166 2681 2222 
Q 2681 2984 2493 3476 
Q 2306 3969 1766 3969 
Q 1269 3969 1039 3501 
Q 809 3034 809 2125 
Q 809 1441 956 1025 
Q 1181 391 1725 391 
z
" transform="scale(0.015625)"/>
       </defs>
       <use xlink:href="#Helvetica-30"/>
      </g>
     </g>
    </g>
    <g id="ytick_2">
     <g id="line2d_2">
      <g>
       <use xlink:href="#m7187810626" x="6.668521" y="55.04964" style="fill: #777777; stroke: #777777; stroke-width: 0.5"/>
      </g>
     </g>
     <g id="text_6">
      <!-- 1 -->
      <g style="fill: #333333" transform="translate(3.00024 56.125655) scale(0.03 -0.03)">
       <use xlink:href="#Helvetica-31"/>
      </g>
     </g>
    </g>
    <g id="ytick_3">
     <g id="line2d_3">
      <g>
       <use xlink:href="#m7187810626" x="6.668521" y="44.854963" style="fill: #777777; stroke: #777777; stroke-width: 0.5"/>
      </g>
     </g>
     <g id="text_7">
      <!-- 2 -->
      <g style="fill: #333333" transform="translate(3.00024 45.930978) scale(0.03 -0.03)">
       <use xlink:href="#Helvetica-32"/>
      </g>
     </g>
    </g>
    <g id="ytick_4">
     <g id="line2d_4">
      <g>
       <use xlink:href="#m7187810626" x="6.668521" y="34.660286" style="fill: #777777; stroke: #777777; stroke-width: 0.5"/>
      </g>
     </g>
     <g id="text_8">
      <!-- 3 -->
      <g style="fill: #333333" transform="translate(3.00024 35.736302) scale(0.03 -0.03)">
       <use xlink:href="#Helvetica-33"/>
      </g>
     </g>
    </g>
    <g id="ytick_5">
     <g id="line2d_5">
      <g>
       <use xlink:href="#m7187810626" x="6.668521" y="24.465609" style="fill: #777777; stroke: #777777; stroke-width: 0.5"/>
      </g>
     </g>
     <g id="text_9">
      <!-- 4 -->
      <g style="fill: #333333" transform="translate(3.00024 25.541625) scale(0.03 -0.03)">
       <defs>
        <path id="Helvetica-34" d="M 2116 1584 
L 2116 3613 
L 681 1584 
L 2116 1584 
z
M 2125 0 
L 2125 1094 
L 163 1094 
L 163 1644 
L 2213 4488 
L 2688 4488 
L 2688 1584 
L 3347 1584 
L 3347 1094 
L 2688 1094 
L 2688 0 
L 2125 0 
z
" transform="scale(0.015625)"/>
       </defs>
       <use xlink:href="#Helvetica-34"/>
      </g>
     </g>
    </g>
    <g id="ytick_6">
     <g id="line2d_6">
      <g>
       <use xlink:href="#m7187810626" x="6.668521" y="14.270932" style="fill: #777777; stroke: #777777; stroke-width: 0.5"/>
      </g>
     </g>
     <g id="text_10">
      <!-- 5 -->
      <g style="fill: #333333" transform="translate(3.00024 15.346948) scale(0.03 -0.03)">
       <defs>
        <path id="Helvetica-35" d="M 791 1141 
Q 847 659 1238 475 
Q 1438 381 1700 381 
Q 2200 381 2440 700 
Q 2681 1019 2681 1406 
Q 2681 1875 2395 2131 
Q 2109 2388 1709 2388 
Q 1419 2388 1211 2275 
Q 1003 2163 856 1963 
L 369 1991 
L 709 4400 
L 3034 4400 
L 3034 3856 
L 1131 3856 
L 941 2613 
Q 1097 2731 1238 2791 
Q 1488 2894 1816 2894 
Q 2431 2894 2859 2497 
Q 3288 2100 3288 1491 
Q 3288 856 2895 371 
Q 2503 -113 1644 -113 
Q 1097 -113 676 195 
Q 256 503 206 1141 
L 791 1141 
z
" transform="scale(0.015625)"/>
       </defs>
       <use xlink:href="#Helvetica-35"/>
      </g>
     </g>
    </g>
    <g id="ytick_7">
     <g id="line2d_7">
      <g>
       <use xlink:href="#m7187810626" x="6.668521" y="4.076256" style="fill: #777777; stroke: #777777; stroke-width: 0.5"/>
      </g>
     </g>
     <g id="text_11">
      <!-- 6 -->
      <g style="fill: #333333" transform="translate(3.00024 5.152271) scale(0.03 -0.03)">
       <defs>
        <path id="Helvetica-36" d="M 1872 4494 
Q 2622 4494 2917 4105 
Q 3213 3716 3213 3303 
L 2656 3303 
Q 2606 3569 2497 3719 
Q 2294 4000 1881 4000 
Q 1409 4000 1131 3564 
Q 853 3128 822 2316 
Q 1016 2600 1309 2741 
Q 1578 2866 1909 2866 
Q 2472 2866 2890 2506 
Q 3309 2147 3309 1434 
Q 3309 825 2912 354 
Q 2516 -116 1781 -116 
Q 1153 -116 697 361 
Q 241 838 241 1966 
Q 241 2800 444 3381 
Q 834 4494 1872 4494 
z
M 1831 384 
Q 2275 384 2495 682 
Q 2716 981 2716 1388 
Q 2716 1731 2519 2042 
Q 2322 2353 1803 2353 
Q 1441 2353 1167 2112 
Q 894 1872 894 1388 
Q 894 963 1142 673 
Q 1391 384 1831 384 
z
" transform="scale(0.015625)"/>
       </defs>
       <use xlink:href="#Helvetica-36"/>
      </g>
     </g>
    </g>
   </g>
   <g id="PolyCollection_1">
    <defs>
     <path id="md55751c7dd" d="M 16.370376 -19.719209 
L 15.580941 -19.719209 
L 15.474448 -19.720673 
L 15.345884 -19.722137 
L 15.192575 -19.723602 
L 15.012016 -19.725066 
L 14.80202 -19.72653 
L 14.560879 -19.727994 
L 14.287542 -19.729459 
L 13.98178 -19.730923 
L 13.644356 -19.732387 
L 13.277158 -19.733851 
L 12.883308 -19.735316 
L 12.467211 -19.73678 
L 12.03456 -19.738244 
L 11.592259 -19.739708 
L 11.14828 -19.741173 
L 10.711444 -19.742637 
L 10.291131 -19.744101 
L 9.896931 -19.745566 
L 9.538242 -19.74703 
L 9.223851 -19.748494 
L 8.961503 -19.749958 
L 8.757496 -19.751423 
L 8.61633 -19.752887 
L 8.540427 -19.754351 
L 8.529949 -19.755815 
L 8.58274 -19.75728 
L 8.694386 -19.758744 
L 8.858401 -19.760208 
L 9.066539 -19.761672 
L 9.309204 -19.763137 
L 9.57594 -19.764601 
L 9.855967 -19.766065 
L 10.138736 -19.76753 
L 10.414459 -19.768994 
L 10.67458 -19.770458 
L 10.912171 -19.771922 
L 11.122212 -19.773387 
L 11.301751 -19.774851 
L 11.44994 -19.776315 
L 11.567934 -19.777779 
L 11.658694 -19.779244 
L 11.726678 -19.780708 
L 11.777469 -19.782172 
L 11.817361 -19.783636 
L 11.852923 -19.785101 
L 11.890575 -19.786565 
L 11.936202 -19.788029 
L 11.994822 -19.789494 
L 12.070318 -19.790958 
L 12.165256 -19.792422 
L 12.280782 -19.793886 
L 12.4166 -19.795351 
L 12.571022 -19.796815 
L 12.741093 -19.798279 
L 12.922755 -19.799743 
L 13.111067 -19.801208 
L 13.30044 -19.802672 
L 13.484897 -19.804136 
L 13.65833 -19.8056 
L 13.814761 -19.807065 
L 13.948577 -19.808529 
L 14.054769 -19.809993 
L 14.129127 -19.811458 
L 14.168431 -19.812922 
L 14.1706 -19.814386 
L 14.134817 -19.81585 
L 14.061616 -19.817315 
L 13.952928 -19.818779 
L 13.812079 -19.820243 
L 13.643735 -19.821707 
L 13.453785 -19.823172 
L 13.249171 -19.824636 
L 13.037648 -19.8261 
L 12.827495 -19.827564 
L 12.627179 -19.829029 
L 12.444992 -19.830493 
L 12.288676 -19.831957 
L 12.165061 -19.833422 
L 12.079738 -19.834886 
L 12.036797 -19.83635 
L 12.038639 -19.837814 
L 12.085881 -19.839279 
L 12.177362 -19.840743 
L 12.310254 -19.842207 
L 12.480256 -19.843671 
L 12.681869 -19.845136 
L 12.908723 -19.8466 
L 13.153936 -19.848064 
L 13.410478 -19.849528 
L 13.671507 -19.850993 
L 13.930672 -19.852457 
L 14.182356 -19.853921 
L 14.421845 -19.855386 
L 14.645433 -19.85685 
L 14.850453 -19.858314 
L 15.035247 -19.859778 
L 15.199083 -19.861243 
L 15.34204 -19.862707 
L 15.464859 -19.864171 
L 16.486458 -19.864171 
L 16.486458 -19.864171 
L 16.609277 -19.862707 
L 16.752234 -19.861243 
L 16.91607 -19.859778 
L 17.100864 -19.858314 
L 17.305884 -19.85685 
L 17.529472 -19.855386 
L 17.768961 -19.853921 
L 18.020645 -19.852457 
L 18.27981 -19.850993 
L 18.540839 -19.849528 
L 18.797381 -19.848064 
L 19.042594 -19.8466 
L 19.269448 -19.845136 
L 19.471061 -19.843671 
L 19.641063 -19.842207 
L 19.773955 -19.840743 
L 19.865436 -19.839279 
L 19.912678 -19.837814 
L 19.91452 -19.83635 
L 19.871579 -19.834886 
L 19.786256 -19.833422 
L 19.662641 -19.831957 
L 19.506325 -19.830493 
L 19.324138 -19.829029 
L 19.123822 -19.827564 
L 18.913669 -19.8261 
L 18.702146 -19.824636 
L 18.497532 -19.823172 
L 18.307582 -19.821707 
L 18.139238 -19.820243 
L 17.998389 -19.818779 
L 17.889701 -19.817315 
L 17.8165 -19.81585 
L 17.780717 -19.814386 
L 17.782886 -19.812922 
L 17.82219 -19.811458 
L 17.896548 -19.809993 
L 18.00274 -19.808529 
L 18.136556 -19.807065 
L 18.292987 -19.8056 
L 18.46642 -19.804136 
L 18.650877 -19.802672 
L 18.84025 -19.801208 
L 19.028562 -19.799743 
L 19.210224 -19.798279 
L 19.380295 -19.796815 
L 19.534717 -19.795351 
L 19.670535 -19.793886 
L 19.786061 -19.792422 
L 19.880999 -19.790958 
L 19.956495 -19.789494 
L 20.015115 -19.788029 
L 20.060742 -19.786565 
L 20.098394 -19.785101 
L 20.133956 -19.783636 
L 20.173848 -19.782172 
L 20.224639 -19.780708 
L 20.292623 -19.779244 
L 20.383383 -19.777779 
L 20.501377 -19.776315 
L 20.649566 -19.774851 
L 20.829105 -19.773387 
L 21.039146 -19.771922 
L 21.276737 -19.770458 
L 21.536858 -19.768994 
L 21.812581 -19.76753 
L 22.09535 -19.766065 
L 22.375377 -19.764601 
L 22.642113 -19.763137 
L 22.884778 -19.761672 
L 23.092916 -19.760208 
L 23.256931 -19.758744 
L 23.368577 -19.75728 
L 23.421368 -19.755815 
L 23.41089 -19.754351 
L 23.334987 -19.752887 
L 23.193821 -19.751423 
L 22.989814 -19.749958 
L 22.727466 -19.748494 
L 22.413075 -19.74703 
L 22.054386 -19.745566 
L 21.660186 -19.744101 
L 21.239873 -19.742637 
L 20.803037 -19.741173 
L 20.359058 -19.739708 
L 19.916757 -19.738244 
L 19.484106 -19.73678 
L 19.06801 -19.735316 
L 18.674159 -19.733851 
L 18.306961 -19.732387 
L 17.969537 -19.730923 
L 17.663775 -19.729459 
L 17.390438 -19.727994 
L 17.149297 -19.72653 
L 16.939301 -19.725066 
L 16.758742 -19.723602 
L 16.605433 -19.722137 
L 16.476869 -19.720673 
L 16.370376 -19.719209 
z
" style="stroke: #444444; stroke-width: 0.15"/>
    </defs>
    <g clip-path="url(#pd8b8752f01)">
     <use xlink:href="#md55751c7dd" x="0" y="84.96" style="fill: #546e8e; stroke: #444444; stroke-width: 0.15"/>
    </g>
   </g>
   <g id="PolyCollection_2">
    <defs>
     <path id="me762492a4a" d="M 35.030693 -15.85403 
L 34.149173 -15.85403 
L 34.015287 -16.172527 
L 33.851352 -16.491025 
L 33.654044 -16.809522 
L 33.420675 -17.12802 
L 33.149491 -17.446517 
L 32.839985 -17.765014 
L 32.493154 -18.083512 
L 32.1117 -18.402009 
L 31.700124 -18.720507 
L 31.264687 -19.039004 
L 30.813232 -19.357501 
L 30.354858 -19.675999 
L 29.899459 -19.994496 
L 29.457166 -20.312993 
L 29.037738 -20.631491 
L 28.649963 -20.949988 
L 28.301128 -21.268486 
L 27.996615 -21.586983 
L 27.739678 -21.90548 
L 27.53142 -22.223978 
L 27.370971 -22.542475 
L 27.255847 -22.860973 
L 27.182448 -23.17947 
L 27.146622 -23.497967 
L 27.144223 -23.816465 
L 27.171607 -24.134962 
L 27.225982 -24.45346 
L 27.305592 -24.771957 
L 27.409713 -25.090454 
L 27.538457 -25.408952 
L 27.692444 -25.727449 
L 27.87237 -26.045946 
L 28.078547 -26.364444 
L 28.310482 -26.682941 
L 28.56654 -27.001439 
L 28.843754 -27.319936 
L 29.137795 -27.638433 
L 29.443113 -27.956931 
L 29.753237 -28.275428 
L 30.061194 -28.593926 
L 30.360005 -28.912423 
L 30.643214 -29.23092 
L 30.905375 -29.549418 
L 31.142463 -29.867915 
L 31.352163 -30.186413 
L 31.534003 -30.50491 
L 31.689336 -30.823407 
L 31.821147 -31.141905 
L 31.93374 -31.460402 
L 32.032307 -31.778899 
L 32.122444 -32.097397 
L 32.209651 -32.415894 
L 32.298865 -32.734392 
L 32.394071 -33.052889 
L 32.498009 -33.371386 
L 32.612016 -33.689884 
L 32.735991 -34.008381 
L 32.868481 -34.326879 
L 33.006864 -34.645376 
L 33.147612 -34.963873 
L 33.286589 -35.282371 
L 33.419359 -35.600868 
L 33.541489 -35.919366 
L 33.648804 -36.237863 
L 33.737611 -36.55636 
L 33.804866 -36.874858 
L 33.848301 -37.193355 
L 33.866503 -37.511853 
L 33.858976 -37.83035 
L 33.826169 -38.148847 
L 33.769483 -38.467345 
L 33.691263 -38.785842 
L 33.594758 -39.104339 
L 33.484043 -39.422837 
L 33.363913 -39.741334 
L 33.239712 -40.059832 
L 33.117128 -40.378329 
L 33.001935 -40.696826 
L 32.899708 -41.015324 
L 32.815521 -41.333821 
L 32.753658 -41.652319 
L 32.717364 -41.970816 
L 32.708647 -42.289313 
L 32.728168 -42.607811 
L 32.775225 -42.926308 
L 32.847827 -43.244806 
L 32.942864 -43.563303 
L 33.05635 -43.8818 
L 33.183709 -44.200298 
L 33.320092 -44.518795 
L 33.460686 -44.837292 
L 33.60099 -45.15579 
L 33.737039 -45.474287 
L 33.865563 -45.792785 
L 33.984081 -46.111282 
L 34.090919 -46.429779 
L 34.185172 -46.748277 
L 34.266619 -47.066774 
L 34.335607 -47.385272 
L 34.844259 -47.385272 
L 34.844259 -47.385272 
L 34.913247 -47.066774 
L 34.994694 -46.748277 
L 35.088947 -46.429779 
L 35.195785 -46.111282 
L 35.314303 -45.792785 
L 35.442828 -45.474287 
L 35.578876 -45.15579 
L 35.71918 -44.837292 
L 35.859774 -44.518795 
L 35.996157 -44.200298 
L 36.123516 -43.8818 
L 36.237002 -43.563303 
L 36.332039 -43.244806 
L 36.404641 -42.926308 
L 36.451698 -42.607811 
L 36.471219 -42.289313 
L 36.462502 -41.970816 
L 36.426208 -41.652319 
L 36.364346 -41.333821 
L 36.280158 -41.015324 
L 36.177931 -40.696826 
L 36.062738 -40.378329 
L 35.940154 -40.059832 
L 35.815954 -39.741334 
L 35.695823 -39.422837 
L 35.585108 -39.104339 
L 35.488603 -38.785842 
L 35.410383 -38.467345 
L 35.353698 -38.148847 
L 35.32089 -37.83035 
L 35.313363 -37.511853 
L 35.331565 -37.193355 
L 35.375 -36.874858 
L 35.442255 -36.55636 
L 35.531063 -36.237863 
L 35.638377 -35.919366 
L 35.760507 -35.600868 
L 35.893277 -35.282371 
L 36.032254 -34.963873 
L 36.173002 -34.645376 
L 36.311385 -34.326879 
L 36.443875 -34.008381 
L 36.56785 -33.689884 
L 36.681857 -33.371386 
L 36.785795 -33.052889 
L 36.881001 -32.734392 
L 36.970216 -32.415894 
L 37.057423 -32.097397 
L 37.147559 -31.778899 
L 37.246126 -31.460402 
L 37.358719 -31.141905 
L 37.49053 -30.823407 
L 37.645863 -30.50491 
L 37.827704 -30.186413 
L 38.037403 -29.867915 
L 38.274491 -29.549418 
L 38.536652 -29.23092 
L 38.819861 -28.912423 
L 39.118673 -28.593926 
L 39.426629 -28.275428 
L 39.736753 -27.956931 
L 40.042071 -27.638433 
L 40.336112 -27.319936 
L 40.613326 -27.001439 
L 40.869384 -26.682941 
L 41.101319 -26.364444 
L 41.307496 -26.045946 
L 41.487422 -25.727449 
L 41.641409 -25.408952 
L 41.770153 -25.090454 
L 41.874274 -24.771957 
L 41.953885 -24.45346 
L 42.008259 -24.134962 
L 42.035643 -23.816465 
L 42.033244 -23.497967 
L 41.997418 -23.17947 
L 41.924019 -22.860973 
L 41.808896 -22.542475 
L 41.648446 -22.223978 
L 41.440188 -21.90548 
L 41.183251 -21.586983 
L 40.878738 -21.268486 
L 40.529903 -20.949988 
L 40.142128 -20.631491 
L 39.7227 -20.312993 
L 39.280407 -19.994496 
L 38.825008 -19.675999 
L 38.366634 -19.357501 
L 37.91518 -19.039004 
L 37.479742 -18.720507 
L 37.068166 -18.402009 
L 36.686712 -18.083512 
L 36.339881 -17.765014 
L 36.030375 -17.446517 
L 35.759191 -17.12802 
L 35.525822 -16.809522 
L 35.328515 -16.491025 
L 35.164579 -16.172527 
L 35.030693 -15.85403 
z
" style="stroke: #444444; stroke-width: 0.15"/>
    </defs>
    <g clip-path="url(#pd8b8752f01)">
     <use xlink:href="#me762492a4a" x="0" y="84.96" style="fill: #e7a980; stroke: #444444; stroke-width: 0.15"/>
    </g>
   </g>
   <g id="PolyCollection_3">
    <defs>
     <path id="m79ce20e08c" d="M 53.717184 -11.371242 
L 52.691231 -11.371242 
L 52.55507 -11.916688 
L 52.392035 -12.462134 
L 52.199474 -13.00758 
L 51.975168 -13.553026 
L 51.717531 -14.098472 
L 51.425816 -14.643918 
L 51.100308 -15.189364 
L 50.742486 -15.73481 
L 50.355155 -16.280256 
L 49.942506 -16.825702 
L 49.510115 -17.371148 
L 49.064857 -17.916594 
L 48.614731 -18.46204 
L 48.168616 -19.007486 
L 47.735942 -19.552932 
L 47.326308 -20.098378 
L 46.949068 -20.643824 
L 46.612905 -21.18927 
L 46.325422 -21.734716 
L 46.092783 -22.280162 
L 45.91942 -22.825609 
L 45.807832 -23.371055 
L 45.758498 -23.916501 
L 45.769884 -24.461947 
L 45.838578 -25.007393 
L 45.959509 -25.552839 
L 46.126252 -26.098285 
L 46.331399 -26.643731 
L 46.566947 -27.189177 
L 46.824705 -27.734623 
L 47.09667 -28.280069 
L 47.375359 -28.825515 
L 47.654081 -29.370961 
L 47.927121 -29.916407 
L 48.189854 -30.461853 
L 48.438765 -31.007299 
L 48.671408 -31.552745 
L 48.886298 -32.098191 
L 49.08276 -32.643637 
L 49.260767 -33.189083 
L 49.420763 -33.734529 
L 49.563504 -34.279975 
L 49.689936 -34.825421 
L 49.801094 -35.370867 
L 49.898047 -35.916313 
L 49.981877 -36.46176 
L 50.05368 -37.007206 
L 50.114581 -37.552652 
L 50.16575 -38.098098 
L 50.208406 -38.643544 
L 50.243803 -39.18899 
L 50.27318 -39.734436 
L 50.297698 -40.279882 
L 50.318349 -40.825328 
L 50.335854 -41.370774 
L 50.350573 -41.91622 
L 50.362426 -42.461666 
L 50.370856 -43.007112 
L 50.374833 -43.552558 
L 50.372918 -44.098004 
L 50.363377 -44.64345 
L 50.344345 -45.188896 
L 50.314032 -45.734342 
L 50.270947 -46.279788 
L 50.214124 -46.825234 
L 50.143322 -47.37068 
L 50.059195 -47.916126 
L 49.963384 -48.461572 
L 49.858549 -49.007018 
L 49.748318 -49.552464 
L 49.637149 -50.097911 
L 49.530134 -50.643357 
L 49.43273 -51.188803 
L 49.350461 -51.734249 
L 49.288604 -52.279695 
L 49.251876 -52.825141 
L 49.244157 -53.370587 
L 49.268264 -53.916033 
L 49.325785 -54.461479 
L 49.416999 -55.006925 
L 49.54087 -55.552371 
L 49.69512 -56.097817 
L 49.876376 -56.643263 
L 50.080366 -57.188709 
L 50.302169 -57.734155 
L 50.536469 -58.279601 
L 50.777832 -58.825047 
L 51.020954 -59.370493 
L 51.260885 -59.915939 
L 51.493217 -60.461385 
L 51.714217 -61.006831 
L 51.920912 -61.552277 
L 52.111123 -62.097723 
L 52.283457 -62.643169 
L 52.43725 -63.188615 
L 52.572491 -63.734061 
L 52.68972 -64.279508 
L 52.789909 -64.824954 
L 52.874356 -65.3704 
L 53.534059 -65.3704 
L 53.534059 -65.3704 
L 53.618506 -64.824954 
L 53.718696 -64.279508 
L 53.835924 -63.734061 
L 53.971165 -63.188615 
L 54.124958 -62.643169 
L 54.297292 -62.097723 
L 54.487503 -61.552277 
L 54.694198 -61.006831 
L 54.915198 -60.461385 
L 55.14753 -59.915939 
L 55.387461 -59.370493 
L 55.630583 -58.825047 
L 55.871946 -58.279601 
L 56.106247 -57.734155 
L 56.328049 -57.188709 
L 56.53204 -56.643263 
L 56.713295 -56.097817 
L 56.867545 -55.552371 
L 56.991416 -55.006925 
L 57.082631 -54.461479 
L 57.140152 -53.916033 
L 57.164258 -53.370587 
L 57.156539 -52.825141 
L 57.119811 -52.279695 
L 57.057954 -51.734249 
L 56.975686 -51.188803 
L 56.878281 -50.643357 
L 56.771266 -50.097911 
L 56.660098 -49.552464 
L 56.549866 -49.007018 
L 56.445032 -48.461572 
L 56.34922 -47.916126 
L 56.265093 -47.37068 
L 56.194292 -46.825234 
L 56.137468 -46.279788 
L 56.094383 -45.734342 
L 56.06407 -45.188896 
L 56.045038 -44.64345 
L 56.035497 -44.098004 
L 56.033582 -43.552558 
L 56.037559 -43.007112 
L 56.045989 -42.461666 
L 56.057842 -41.91622 
L 56.072561 -41.370774 
L 56.090066 -40.825328 
L 56.110717 -40.279882 
L 56.135236 -39.734436 
L 56.164613 -39.18899 
L 56.200009 -38.643544 
L 56.242665 -38.098098 
L 56.293834 -37.552652 
L 56.354735 -37.007206 
L 56.426538 -36.46176 
L 56.510368 -35.916313 
L 56.607321 -35.370867 
L 56.718479 -34.825421 
L 56.844911 -34.279975 
L 56.987653 -33.734529 
L 57.147648 -33.189083 
L 57.325655 -32.643637 
L 57.522117 -32.098191 
L 57.737007 -31.552745 
L 57.96965 -31.007299 
L 58.218561 -30.461853 
L 58.481294 -29.916407 
L 58.754334 -29.370961 
L 59.033056 -28.825515 
L 59.311746 -28.280069 
L 59.58371 -27.734623 
L 59.841468 -27.189177 
L 60.077016 -26.643731 
L 60.282163 -26.098285 
L 60.448907 -25.552839 
L 60.569837 -25.007393 
L 60.638531 -24.461947 
L 60.649917 -23.916501 
L 60.600583 -23.371055 
L 60.488995 -22.825609 
L 60.315632 -22.280162 
L 60.082993 -21.734716 
L 59.795511 -21.18927 
L 59.459348 -20.643824 
L 59.082108 -20.098378 
L 58.672473 -19.552932 
L 58.239799 -19.007486 
L 57.793684 -18.46204 
L 57.343559 -17.916594 
L 56.8983 -17.371148 
L 56.465909 -16.825702 
L 56.053261 -16.280256 
L 55.665929 -15.73481 
L 55.308108 -15.189364 
L 54.982599 -14.643918 
L 54.690884 -14.098472 
L 54.433247 -13.553026 
L 54.208941 -13.00758 
L 54.01638 -12.462134 
L 53.853346 -11.916688 
L 53.717184 -11.371242 
z
" style="stroke: #444444; stroke-width: 0.15"/>
    </defs>
    <g clip-path="url(#pd8b8752f01)">
     <use xlink:href="#m79ce20e08c" x="0" y="84.96" style="fill: #abc3de; stroke: #444444; stroke-width: 0.15"/>
    </g>
   </g>
   <g id="PolyCollection_4">
    <defs>
     <path id="m1092b1d8e9" d="M 72.284821 -18.38301 
L 71.352143 -18.38301 
L 71.227475 -18.576289 
L 71.078284 -18.769567 
L 70.902275 -18.962846 
L 70.697598 -19.156125 
L 70.463028 -19.349404 
L 70.198134 -19.542683 
L 69.903429 -19.735961 
L 69.580483 -19.92924 
L 69.231983 -20.122519 
L 68.861724 -20.315798 
L 68.474529 -20.509077 
L 68.076098 -20.702356 
L 67.67278 -20.895634 
L 67.271297 -21.088913 
L 66.878427 -21.282192 
L 66.500681 -21.475471 
L 66.144 -21.66875 
L 65.813497 -21.862028 
L 65.513277 -22.055307 
L 65.246342 -22.248586 
L 65.014602 -22.441865 
L 64.818978 -22.635144 
L 64.659588 -22.828423 
L 64.535991 -23.021701 
L 64.44746 -23.21498 
L 64.39324 -23.408259 
L 64.372772 -23.601538 
L 64.385838 -23.794817 
L 64.43262 -23.988096 
L 64.51366 -24.181374 
L 64.629725 -24.374653 
L 64.7816 -24.567932 
L 64.969828 -24.761211 
L 65.194435 -24.95449 
L 65.45468 -25.147768 
L 65.748847 -25.341047 
L 66.074131 -25.534326 
L 66.426599 -25.727605 
L 66.801268 -25.920884 
L 67.192269 -26.114163 
L 67.593088 -26.307441 
L 67.996859 -26.50072 
L 68.396683 -26.693999 
L 68.785945 -26.887278 
L 69.158587 -27.080557 
L 69.509341 -27.273835 
L 69.833879 -27.467114 
L 70.128897 -27.660393 
L 70.392117 -27.853672 
L 70.622223 -28.046951 
L 70.818744 -28.24023 
L 70.981899 -28.433508 
L 71.112422 -28.626787 
L 71.211385 -28.820066 
L 71.28004 -29.013345 
L 71.319684 -29.206624 
L 71.33157 -29.399903 
L 71.31685 -29.593181 
L 71.276572 -29.78646 
L 71.211716 -29.979739 
L 71.123261 -30.173018 
L 71.012288 -30.366297 
L 70.88009 -30.559575 
L 70.728292 -30.752854 
L 70.558961 -30.946133 
L 70.374689 -31.139412 
L 70.178654 -31.332691 
L 69.974629 -31.52597 
L 69.766952 -31.719248 
L 69.560442 -31.912527 
L 69.360267 -32.105806 
L 69.171776 -32.299085 
L 69.000287 -32.492364 
L 68.850866 -32.685642 
L 68.728094 -32.878921 
L 68.635847 -33.0722 
L 68.5771 -33.265479 
L 68.55378 -33.458758 
L 68.566661 -33.652037 
L 68.615323 -33.845315 
L 68.698184 -34.038594 
L 68.812574 -34.231873 
L 68.954888 -34.425152 
L 69.120763 -34.618431 
L 69.305307 -34.81171 
L 69.503328 -35.004988 
L 69.709576 -35.198267 
L 69.918967 -35.391546 
L 70.126783 -35.584825 
L 70.328832 -35.778104 
L 70.521567 -35.971382 
L 70.702161 -36.164661 
L 70.868531 -36.35794 
L 71.019326 -36.551219 
L 71.153878 -36.744498 
L 71.272122 -36.937777 
L 71.374504 -37.131055 
L 71.461871 -37.324334 
L 71.535369 -37.517613 
L 72.101596 -37.517613 
L 72.101596 -37.517613 
L 72.175093 -37.324334 
L 72.26246 -37.131055 
L 72.364842 -36.937777 
L 72.483086 -36.744498 
L 72.617638 -36.551219 
L 72.768434 -36.35794 
L 72.934804 -36.164661 
L 73.115397 -35.971382 
L 73.308132 -35.778104 
L 73.510181 -35.584825 
L 73.717997 -35.391546 
L 73.927388 -35.198267 
L 74.133636 -35.004988 
L 74.331657 -34.81171 
L 74.516201 -34.618431 
L 74.682077 -34.425152 
L 74.82439 -34.231873 
L 74.938781 -34.038594 
L 75.021641 -33.845315 
L 75.070304 -33.652037 
L 75.083184 -33.458758 
L 75.059864 -33.265479 
L 75.001118 -33.0722 
L 74.90887 -32.878921 
L 74.786098 -32.685642 
L 74.636677 -32.492364 
L 74.465189 -32.299085 
L 74.276697 -32.105806 
L 74.076523 -31.912527 
L 73.870012 -31.719248 
L 73.662335 -31.52597 
L 73.45831 -31.332691 
L 73.262275 -31.139412 
L 73.078003 -30.946133 
L 72.908672 -30.752854 
L 72.756875 -30.559575 
L 72.624677 -30.366297 
L 72.513703 -30.173018 
L 72.425248 -29.979739 
L 72.360392 -29.78646 
L 72.320114 -29.593181 
L 72.305394 -29.399903 
L 72.31728 -29.206624 
L 72.356925 -29.013345 
L 72.425579 -28.820066 
L 72.524542 -28.626787 
L 72.655065 -28.433508 
L 72.81822 -28.24023 
L 73.014742 -28.046951 
L 73.244848 -27.853672 
L 73.508068 -27.660393 
L 73.803086 -27.467114 
L 74.127624 -27.273835 
L 74.478377 -27.080557 
L 74.851019 -26.887278 
L 75.240281 -26.693999 
L 75.640105 -26.50072 
L 76.043876 -26.307441 
L 76.444695 -26.114163 
L 76.835696 -25.920884 
L 77.210366 -25.727605 
L 77.562833 -25.534326 
L 77.888117 -25.341047 
L 78.182285 -25.147768 
L 78.442529 -24.95449 
L 78.667136 -24.761211 
L 78.855364 -24.567932 
L 79.007239 -24.374653 
L 79.123305 -24.181374 
L 79.204344 -23.988096 
L 79.251126 -23.794817 
L 79.264192 -23.601538 
L 79.243724 -23.408259 
L 79.189504 -23.21498 
L 79.100973 -23.021701 
L 78.977376 -22.828423 
L 78.817986 -22.635144 
L 78.622362 -22.441865 
L 78.390623 -22.248586 
L 78.123688 -22.055307 
L 77.823467 -21.862028 
L 77.492964 -21.66875 
L 77.136283 -21.475471 
L 76.758537 -21.282192 
L 76.365667 -21.088913 
L 75.964184 -20.895634 
L 75.560866 -20.702356 
L 75.162435 -20.509077 
L 74.775241 -20.315798 
L 74.404981 -20.122519 
L 74.056481 -19.92924 
L 73.733536 -19.735961 
L 73.438831 -19.542683 
L 73.173936 -19.349404 
L 72.939366 -19.156125 
L 72.73469 -18.962846 
L 72.558681 -18.769567 
L 72.40949 -18.576289 
L 72.284821 -18.38301 
z
" style="stroke: #444444; stroke-width: 0.15"/>
    </defs>
    <g clip-path="url(#pd8b8752f01)">
     <use xlink:href="#m1092b1d8e9" x="0" y="84.96" style="fill: #c447c3; stroke: #444444; stroke-width: 0.15"/>
    </g>
   </g>
   <g id="line2d_8">
    <path d="M 15.975659 65.214089 
L 15.975659 65.122531 
" clip-path="url(#pd8b8752f01)" style="fill: none; stroke: #8c8c8c; stroke-width: 0.75; stroke-linecap: round"/>
   </g>
   <g id="line2d_9">
    <path d="M 15.975659 65.202671 
L 15.975659 65.154206 
" clip-path="url(#pd8b8752f01)" style="fill: none; stroke: #8c8c8c; stroke-width: 4; stroke-linecap: round"/>
   </g>
   <g id="line2d_10">
    <path d="M 15.975659 65.188067 
" clip-path="url(#pd8b8752f01)" style="fill: none; stroke: #444444; stroke-width: 1.2; stroke-linecap: round"/>
    <defs>
     <path id="m0a03b64f78" d="M 0 0.833333 
C 0.221003 0.833333 0.432983 0.745528 0.589256 0.589256 
C 0.745528 0.432983 0.833333 0.221003 0.833333 0 
C 0.833333 -0.221003 0.745528 -0.432983 0.589256 -0.589256 
C 0.432983 -0.745528 0.221003 -0.833333 0 -0.833333 
C -0.221003 -0.833333 -0.432983 -0.745528 -0.589256 -0.589256 
C -0.745528 -0.432983 -0.833333 -0.221003 -0.833333 0 
C -0.833333 0.221003 -0.745528 0.432983 -0.589256 0.589256 
C -0.432983 0.745528 -0.221003 0.833333 0 0.833333 
z
" style="stroke: #ffffff; stroke-width: 0.8"/>
    </defs>
    <g clip-path="url(#pd8b8752f01)">
     <use xlink:href="#m0a03b64f78" x="15.975659" y="65.188067" style="fill: #ffffff; stroke: #ffffff; stroke-width: 0.8"/>
    </g>
   </g>
   <g id="line2d_11">
    <path d="M 34.589933 63.962163 
L 34.589933 52.064852 
" clip-path="url(#pd8b8752f01)" style="fill: none; stroke: #8c8c8c; stroke-width: 0.75; stroke-linecap: round"/>
   </g>
   <g id="line2d_12">
    <path d="M 34.589933 62.733324 
L 34.589933 55.846147 
" clip-path="url(#pd8b8752f01)" style="fill: none; stroke: #8c8c8c; stroke-width: 4; stroke-linecap: round"/>
   </g>
   <g id="line2d_13">
    <path d="M 34.589933 59.178785 
" clip-path="url(#pd8b8752f01)" style="fill: none; stroke: #444444; stroke-width: 1.2; stroke-linecap: round"/>
    <g clip-path="url(#pd8b8752f01)">
     <use xlink:href="#m0a03b64f78" x="34.589933" y="59.178785" style="fill: #ffffff; stroke: #ffffff; stroke-width: 0.8"/>
    </g>
   </g>
   <g id="line2d_14">
    <path d="M 53.204208 63.699976 
L 53.204208 29.478383 
" clip-path="url(#pd8b8752f01)" style="fill: none; stroke: #8c8c8c; stroke-width: 0.75; stroke-linecap: round"/>
   </g>
   <g id="line2d_15">
    <path d="M 53.204208 61.28395 
L 53.204208 39.914546 
" clip-path="url(#pd8b8752f01)" style="fill: none; stroke: #8c8c8c; stroke-width: 4; stroke-linecap: round"/>
   </g>
   <g id="line2d_16">
    <path d="M 53.204208 54.215776 
" clip-path="url(#pd8b8752f01)" style="fill: none; stroke: #444444; stroke-width: 1.2; stroke-linecap: round"/>
    <g clip-path="url(#pd8b8752f01)">
     <use xlink:href="#m0a03b64f78" x="53.204208" y="54.215776" style="fill: #ffffff; stroke: #ffffff; stroke-width: 0.8"/>
    </g>
   </g>
   <g id="line2d_17">
    <path d="M 71.818482 63.119787 
L 71.818482 50.899591 
" clip-path="url(#pd8b8752f01)" style="fill: none; stroke: #8c8c8c; stroke-width: 0.75; stroke-linecap: round"/>
   </g>
   <g id="line2d_18">
    <path d="M 71.818482 62.467834 
L 71.818482 57.723469 
" clip-path="url(#pd8b8752f01)" style="fill: none; stroke: #8c8c8c; stroke-width: 4; stroke-linecap: round"/>
   </g>
   <g id="line2d_19">
    <path d="M 71.818482 60.115288 
" clip-path="url(#pd8b8752f01)" style="fill: none; stroke: #444444; stroke-width: 1.2; stroke-linecap: round"/>
    <g clip-path="url(#pd8b8752f01)">
     <use xlink:href="#m0a03b64f78" x="71.818482" y="60.115288" style="fill: #ffffff; stroke: #ffffff; stroke-width: 0.8"/>
    </g>
   </g>
   <g id="patch_3">
    <path d="M 6.668521 74.419526 
L 6.668521 4.076256 
" style="fill: none; stroke: #777777; stroke-width: 0.5; stroke-linejoin: miter; stroke-linecap: square"/>
   </g>
   <g id="patch_4">
    <path d="M 6.668521 76.919526 
L 81.125619 76.919526 
" style="fill: none; stroke: #777777; stroke-width: 0.5; stroke-linejoin: miter; stroke-linecap: square"/>
   </g>
   <g id="PathCollection_1">
    <defs>
     <path id="m73d48c649d" d="M 0 0.375 
C 0.099451 0.375 0.194842 0.335488 0.265165 0.265165 
C 0.335488 0.194842 0.375 0.099451 0.375 0 
C 0.375 -0.099451 0.335488 -0.194842 0.265165 -0.265165 
C 0.194842 -0.335488 0.099451 -0.375 0 -0.375 
C -0.099451 -0.375 -0.194842 -0.335488 -0.265165 -0.265165 
C -0.335488 -0.194842 -0.375 -0.099451 -0.375 0 
C -0.375 0.099451 -0.335488 0.194842 -0.265165 0.265165 
C -0.194842 0.335488 -0.099451 0.375 0 0.375 
z
"/>
    </defs>
    <g clip-path="url(#pd8b8752f01)">
     <use xlink:href="#m73d48c649d" x="14.859183" y="65.122531" style="fill: #642222"/>
     <use xlink:href="#m73d48c649d" x="16.258184" y="65.207045" style="fill: #642222"/>
     <use xlink:href="#m73d48c649d" x="15.130003" y="65.201213" style="fill: #642222"/>
     <use xlink:href="#m73d48c649d" x="15.303518" y="65.174952" style="fill: #642222"/>
     <use xlink:href="#m73d48c649d" x="15.222428" y="65.164584" style="fill: #642222"/>
     <use xlink:href="#m73d48c649d" x="16.923332" y="65.201183" style="fill: #642222"/>
     <use xlink:href="#m73d48c649d" x="14.568116" y="65.123071" style="fill: #642222"/>
     <use xlink:href="#m73d48c649d" x="15.707734" y="65.214089" style="fill: #642222"/>
    </g>
   </g>
   <g id="PathCollection_2">
    <g clip-path="url(#pd8b8752f01)">
     <use xlink:href="#m73d48c649d" x="33.781272" y="52.064852" style="fill: #642222"/>
     <use xlink:href="#m73d48c649d" x="34.369735" y="63.962163" style="fill: #642222"/>
     <use xlink:href="#m73d48c649d" x="33.353928" y="62.885809" style="fill: #642222"/>
     <use xlink:href="#m73d48c649d" x="33.175352" y="58.85205" style="fill: #642222"/>
     <use xlink:href="#m73d48c649d" x="33.418454" y="42.718536" style="fill: #642222"/>
     <use xlink:href="#m73d48c649d" x="34.982041" y="59.505519" style="fill: #642222"/>
     <use xlink:href="#m73d48c649d" x="33.704251" y="57.106579" style="fill: #642222"/>
     <use xlink:href="#m73d48c649d" x="32.847422" y="62.682496" style="fill: #642222"/>
    </g>
   </g>
   <g id="PathCollection_3">
    <g clip-path="url(#pd8b8752f01)">
     <use xlink:href="#m73d48c649d" x="52.214079" y="32.691745" style="fill: #642222"/>
     <use xlink:href="#m73d48c649d" x="52.623707" y="63.699976" style="fill: #642222"/>
     <use xlink:href="#m73d48c649d" x="52.232887" y="50.823956" style="fill: #642222"/>
     <use xlink:href="#m73d48c649d" x="54.016571" y="62.45333" style="fill: #642222"/>
     <use xlink:href="#m73d48c649d" x="53.29799" y="42.322146" style="fill: #642222"/>
     <use xlink:href="#m73d48c649d" x="52.47012" y="57.607596" style="fill: #642222"/>
     <use xlink:href="#m73d48c649d" x="51.746505" y="29.478383" style="fill: #642222"/>
     <use xlink:href="#m73d48c649d" x="54.793934" y="60.894156" style="fill: #642222"/>
    </g>
   </g>
   <g id="PathCollection_4">
    <g clip-path="url(#pd8b8752f01)">
     <use xlink:href="#m73d48c649d" x="72.49835" y="59.615703" style="fill: #642222"/>
     <use xlink:href="#m73d48c649d" x="70.424732" y="52.046767" style="fill: #642222"/>
     <use xlink:href="#m73d48c649d" x="71.974112" y="63.119787" style="fill: #642222"/>
     <use xlink:href="#m73d48c649d" x="72.092148" y="59.911807" style="fill: #642222"/>
     <use xlink:href="#m73d48c649d" x="70.069785" y="50.899591" style="fill: #642222"/>
     <use xlink:href="#m73d48c649d" x="70.186295" y="60.318769" style="fill: #642222"/>
     <use xlink:href="#m73d48c649d" x="70.634693" y="62.396311" style="fill: #642222"/>
     <use xlink:href="#m73d48c649d" x="72.718976" y="62.682404" style="fill: #642222"/>
    </g>
   </g>
  </g>
  <g id="axes_2">
   <g id="patch_5">
    <path d="M 92.462662 74.419526 
L 166.91976 74.419526 
L 166.91976 4.076256 
L 92.462662 4.076256 
z
" style="fill: #ffffff"/>
   </g>
   <g id="matplotlib.axis_3">
    <g id="xtick_5">
     <g id="text_12">
      <!-- T -->
      <g style="fill: #333333" transform="translate(100.700932 81.230229) scale(0.035 -0.035)">
       <defs>
        <path id="Helvetica-54" d="M 3828 4591 
L 3828 4044 
L 2281 4044 
L 2281 0 
L 1650 0 
L 1650 4044 
L 103 4044 
L 103 4591 
L 3828 4591 
z
" transform="scale(0.015625)"/>
       </defs>
       <use xlink:href="#Helvetica-54"/>
      </g>
     </g>
    </g>
    <g id="xtick_6">
     <g id="text_13">
      <!-- TH1 -->
      <g style="fill: #333333" transform="translate(117.078214 81.230229) scale(0.035 -0.035)">
       <defs>
        <path id="Helvetica-48" d="M 503 4591 
L 1131 4591 
L 1131 2694 
L 3519 2694 
L 3519 4591 
L 4147 4591 
L 4147 0 
L 3519 0 
L 3519 2147 
L 1131 2147 
L 1131 0 
L 503 0 
L 503 4591 
z
" transform="scale(0.015625)"/>
       </defs>
       <use xlink:href="#Helvetica-54"/>
       <use xlink:href="#Helvetica-48" x="61.083984"/>
       <use xlink:href="#Helvetica-31" x="133.300781"/>
      </g>
     </g>
    </g>
    <g id="xtick_7">
     <g id="text_14">
      <!-- TH2 -->
      <g style="fill: #333333" transform="translate(135.692489 81.230229) scale(0.035 -0.035)">
       <use xlink:href="#Helvetica-54"/>
       <use xlink:href="#Helvetica-48" x="61.083984"/>
       <use xlink:href="#Helvetica-32" x="133.300781"/>
      </g>
     </g>
    </g>
    <g id="xtick_8">
     <g id="text_15">
      <!-- TH17 -->
      <g style="fill: #333333" transform="translate(153.333599 81.230229) scale(0.035 -0.035)">
       <defs>
        <path id="Helvetica-37" d="M 3347 4400 
L 3347 3909 
Q 3131 3700 2773 3181 
Q 2416 2663 2141 2063 
Q 1869 1478 1728 997 
Q 1638 688 1494 0 
L 872 0 
Q 1084 1281 1809 2550 
Q 2238 3294 2709 3834 
L 234 3834 
L 234 4400 
L 3347 4400 
z
" transform="scale(0.015625)"/>
       </defs>
       <use xlink:href="#Helvetica-54"/>
       <use xlink:href="#Helvetica-48" x="61.083984"/>
       <use xlink:href="#Helvetica-31" x="133.300781"/>
       <use xlink:href="#Helvetica-37" x="188.916016"/>
      </g>
     </g>
    </g>
   </g>
   <g id="matplotlib.axis_4">
    <g id="ytick_8">
     <g id="line2d_20">
      <g>
       <use xlink:href="#m7187810626" x="92.462662" y="68.121721" style="fill: #777777; stroke: #777777; stroke-width: 0.5"/>
      </g>
     </g>
     <g id="text_16">
      <!-- 0 -->
      <g style="fill: #333333" transform="translate(88.794381 69.197737) scale(0.03 -0.03)">
       <use xlink:href="#Helvetica-30"/>
      </g>
     </g>
    </g>
    <g id="ytick_9">
     <g id="line2d_21">
      <g>
       <use xlink:href="#m7187810626" x="92.462662" y="57.447477" style="fill: #777777; stroke: #777777; stroke-width: 0.5"/>
      </g>
     </g>
     <g id="text_17">
      <!-- 10 -->
      <g style="fill: #333333" transform="translate(87.126099 58.523493) scale(0.03 -0.03)">
       <use xlink:href="#Helvetica-31"/>
       <use xlink:href="#Helvetica-30" x="55.615234"/>
      </g>
     </g>
    </g>
    <g id="ytick_10">
     <g id="line2d_22">
      <g>
       <use xlink:href="#m7187810626" x="92.462662" y="46.773233" style="fill: #777777; stroke: #777777; stroke-width: 0.5"/>
      </g>
     </g>
     <g id="text_18">
      <!-- 20 -->
      <g style="fill: #333333" transform="translate(87.126099 47.849248) scale(0.03 -0.03)">
       <use xlink:href="#Helvetica-32"/>
       <use xlink:href="#Helvetica-30" x="55.615234"/>
      </g>
     </g>
    </g>
    <g id="ytick_11">
     <g id="line2d_23">
      <g>
       <use xlink:href="#m7187810626" x="92.462662" y="36.098989" style="fill: #777777; stroke: #777777; stroke-width: 0.5"/>
      </g>
     </g>
     <g id="text_19">
      <!-- 30 -->
      <g style="fill: #333333" transform="translate(87.126099 37.175004) scale(0.03 -0.03)">
       <use xlink:href="#Helvetica-33"/>
       <use xlink:href="#Helvetica-30" x="55.615234"/>
      </g>
     </g>
    </g>
    <g id="ytick_12">
     <g id="line2d_24">
      <g>
       <use xlink:href="#m7187810626" x="92.462662" y="25.424744" style="fill: #777777; stroke: #777777; stroke-width: 0.5"/>
      </g>
     </g>
     <g id="text_20">
      <!-- 40 -->
      <g style="fill: #333333" transform="translate(87.126099 26.50076) scale(0.03 -0.03)">
       <use xlink:href="#Helvetica-34"/>
       <use xlink:href="#Helvetica-30" x="55.615234"/>
      </g>
     </g>
    </g>
    <g id="ytick_13">
     <g id="line2d_25">
      <g>
       <use xlink:href="#m7187810626" x="92.462662" y="14.7505" style="fill: #777777; stroke: #777777; stroke-width: 0.5"/>
      </g>
     </g>
     <g id="text_21">
      <!-- 50 -->
      <g style="fill: #333333" transform="translate(87.126099 15.826516) scale(0.03 -0.03)">
       <use xlink:href="#Helvetica-35"/>
       <use xlink:href="#Helvetica-30" x="55.615234"/>
      </g>
     </g>
    </g>
    <g id="ytick_14">
     <g id="line2d_26">
      <g>
       <use xlink:href="#m7187810626" x="92.462662" y="4.076256" style="fill: #777777; stroke: #777777; stroke-width: 0.5"/>
      </g>
     </g>
     <g id="text_22">
      <!-- 60 -->
      <g style="fill: #333333" transform="translate(87.126099 5.152271) scale(0.03 -0.03)">
       <use xlink:href="#Helvetica-36"/>
       <use xlink:href="#Helvetica-30" x="55.615234"/>
      </g>
     </g>
    </g>
   </g>
   <g id="PolyCollection_5">
    <defs>
     <path id="mf1c88a8c32" d="M 101.932058 -15.92118 
L 101.607541 -15.92118 
L 101.538257 -16.464129 
L 101.4467 -17.007079 
L 101.328653 -17.550029 
L 101.18008 -18.092979 
L 100.997445 -18.635929 
L 100.778048 -19.178879 
L 100.520352 -19.721828 
L 100.224271 -20.264778 
L 99.891391 -20.807728 
L 99.525126 -21.350678 
L 99.13078 -21.893628 
L 98.715518 -22.436577 
L 98.288226 -22.979527 
L 97.859237 -23.522477 
L 97.439907 -24.065427 
L 97.042012 -24.608377 
L 96.676975 -25.151327 
L 96.354956 -25.694276 
L 96.083885 -26.237226 
L 95.868549 -26.780176 
L 95.709875 -27.323126 
L 95.604541 -27.866076 
L 95.545034 -28.409026 
L 95.520185 -28.951975 
L 95.51617 -29.494925 
L 95.517881 -30.037875 
L 95.510522 -30.580825 
L 95.48124 -31.123775 
L 95.420627 -31.666724 
L 95.32392 -32.209674 
L 95.191776 -32.752624 
L 95.030527 -33.295574 
L 94.851884 -33.838524 
L 94.672076 -34.381474 
L 94.51047 -34.924423 
L 94.387791 -35.467373 
L 94.324089 -36.010323 
L 94.336673 -36.553273 
L 94.438238 -37.096223 
L 94.635438 -37.639173 
L 94.928065 -38.182122 
L 95.308965 -38.725072 
L 95.764669 -39.268022 
L 96.276662 -39.810972 
L 96.823088 -40.353922 
L 97.380671 -40.896871 
L 97.926603 -41.439821 
L 98.440204 -41.982771 
L 98.904194 -42.525721 
L 99.305507 -43.068671 
L 99.635618 -43.611621 
L 99.890434 -44.15457 
L 100.069837 -44.69752 
L 100.176968 -45.24047 
L 100.217409 -45.78342 
L 100.198369 -46.32637 
L 100.128006 -46.869319 
L 100.01497 -47.412269 
L 99.86819 -47.955219 
L 99.696897 -48.498169 
L 99.510763 -49.041119 
L 99.320052 -49.584069 
L 99.13559 -50.127018 
L 98.968471 -50.669968 
L 98.82942 -51.212918 
L 98.727879 -51.755868 
L 98.670969 -52.298818 
L 98.662521 -52.841768 
L 98.702446 -53.384717 
L 98.786587 -53.927667 
L 98.907159 -54.470617 
L 99.05373 -55.013567 
L 99.214568 -55.556517 
L 99.378116 -56.099466 
L 99.534346 -56.642416 
L 99.675761 -57.185366 
L 99.79793 -57.728316 
L 99.899539 -58.271266 
L 99.982024 -58.814216 
L 100.048931 -59.357165 
L 100.105149 -59.900115 
L 100.156144 -60.443065 
L 100.207298 -60.986015 
L 100.263365 -61.528965 
L 100.328085 -62.071914 
L 100.403917 -62.614864 
L 100.491906 -63.157814 
L 100.591662 -63.700764 
L 100.701463 -64.243714 
L 100.818484 -64.786664 
L 100.939123 -65.329613 
L 101.05941 -65.872563 
L 101.175425 -66.415513 
L 101.283697 -66.958463 
L 101.381503 -67.501413 
L 101.467049 -68.044363 
L 101.539521 -68.587312 
L 101.599008 -69.130262 
L 101.64633 -69.673212 
L 101.893269 -69.673212 
L 101.893269 -69.673212 
L 101.94059 -69.130262 
L 102.000077 -68.587312 
L 102.07255 -68.044363 
L 102.158096 -67.501413 
L 102.255901 -66.958463 
L 102.364173 -66.415513 
L 102.480188 -65.872563 
L 102.600475 -65.329613 
L 102.721115 -64.786664 
L 102.838136 -64.243714 
L 102.947937 -63.700764 
L 103.047692 -63.157814 
L 103.135681 -62.614864 
L 103.211513 -62.071914 
L 103.276233 -61.528965 
L 103.3323 -60.986015 
L 103.383454 -60.443065 
L 103.43445 -59.900115 
L 103.490667 -59.357165 
L 103.557574 -58.814216 
L 103.64006 -58.271266 
L 103.741669 -57.728316 
L 103.863838 -57.185366 
L 104.005252 -56.642416 
L 104.161482 -56.099466 
L 104.32503 -55.556517 
L 104.485868 -55.013567 
L 104.632439 -54.470617 
L 104.753012 -53.927667 
L 104.837152 -53.384717 
L 104.877077 -52.841768 
L 104.86863 -52.298818 
L 104.811719 -51.755868 
L 104.710179 -51.212918 
L 104.571127 -50.669968 
L 104.404008 -50.127018 
L 104.219547 -49.584069 
L 104.028835 -49.041119 
L 103.842702 -48.498169 
L 103.671408 -47.955219 
L 103.524629 -47.412269 
L 103.411592 -46.869319 
L 103.34123 -46.32637 
L 103.322189 -45.78342 
L 103.36263 -45.24047 
L 103.469761 -44.69752 
L 103.649164 -44.15457 
L 103.903981 -43.611621 
L 104.234091 -43.068671 
L 104.635404 -42.525721 
L 105.099394 -41.982771 
L 105.612995 -41.439821 
L 106.158927 -40.896871 
L 106.71651 -40.353922 
L 107.262937 -39.810972 
L 107.774929 -39.268022 
L 108.230633 -38.725072 
L 108.611533 -38.182122 
L 108.904161 -37.639173 
L 109.10136 -37.096223 
L 109.202926 -36.553273 
L 109.215509 -36.010323 
L 109.151807 -35.467373 
L 109.029128 -34.924423 
L 108.867522 -34.381474 
L 108.687714 -33.838524 
L 108.509072 -33.295574 
L 108.347822 -32.752624 
L 108.215678 -32.209674 
L 108.118971 -31.666724 
L 108.058359 -31.123775 
L 108.029076 -30.580825 
L 108.021717 -30.037875 
L 108.023428 -29.494925 
L 108.019413 -28.951975 
L 107.994564 -28.409026 
L 107.935058 -27.866076 
L 107.829724 -27.323126 
L 107.671049 -26.780176 
L 107.455713 -26.237226 
L 107.184642 -25.694276 
L 106.862623 -25.151327 
L 106.497586 -24.608377 
L 106.099692 -24.065427 
L 105.680362 -23.522477 
L 105.251373 -22.979527 
L 104.82408 -22.436577 
L 104.408818 -21.893628 
L 104.014472 -21.350678 
L 103.648207 -20.807728 
L 103.315328 -20.264778 
L 103.019246 -19.721828 
L 102.76155 -19.178879 
L 102.542153 -18.635929 
L 102.359518 -18.092979 
L 102.210945 -17.550029 
L 102.092898 -17.007079 
L 102.001341 -16.464129 
L 101.932058 -15.92118 
z
" style="stroke: #505050; stroke-width: 0.15"/>
    </defs>
    <g clip-path="url(#pa60061dbe5)">
     <use xlink:href="#mf1c88a8c32" x="0" y="84.96" style="fill: #bbba94; stroke: #505050; stroke-width: 0.15"/>
    </g>
   </g>
   <g id="PolyCollection_6">
    <defs>
     <path id="m90d8f43aa8" d="M 120.924341 -16.78244 
L 119.843806 -16.78244 
L 119.700693 -16.785834 
L 119.529765 -16.789228 
L 119.328494 -16.792623 
L 119.094866 -16.796017 
L 118.827595 -16.799412 
L 118.526317 -16.802806 
L 118.191775 -16.8062 
L 117.825954 -16.809595 
L 117.432181 -16.812989 
L 117.015137 -16.816383 
L 116.58081 -16.819778 
L 116.13636 -16.823172 
L 115.689901 -16.826567 
L 115.250221 -16.829961 
L 114.826448 -16.833355 
L 114.427681 -16.83675 
L 114.062615 -16.840144 
L 113.739193 -16.843538 
L 113.464287 -16.846933 
L 113.243457 -16.850327 
L 113.080782 -16.853722 
L 112.978771 -16.857116 
L 112.938364 -16.86051 
L 112.959001 -16.863905 
L 113.038758 -16.867299 
L 113.174518 -16.870693 
L 113.362172 -16.874088 
L 113.596823 -16.877482 
L 113.872982 -16.880876 
L 114.184746 -16.884271 
L 114.525959 -16.887665 
L 114.890342 -16.89106 
L 115.271604 -16.894454 
L 115.663548 -16.897848 
L 116.060155 -16.901243 
L 116.455671 -16.904637 
L 116.844692 -16.908031 
L 117.222243 -16.911426 
L 117.583855 -16.91482 
L 117.925637 -16.918215 
L 118.244323 -16.921609 
L 118.537307 -16.925003 
L 118.802654 -16.928398 
L 119.039081 -16.931792 
L 119.245915 -16.935186 
L 119.423028 -16.938581 
L 119.570755 -16.941975 
L 119.689806 -16.94537 
L 119.781177 -16.948764 
L 119.846061 -16.952158 
L 119.885785 -16.955553 
L 119.901758 -16.958947 
L 119.895439 -16.962341 
L 119.868334 -16.965736 
L 119.822006 -16.96913 
L 119.758095 -16.972525 
L 119.678351 -16.975919 
L 119.584661 -16.979313 
L 119.47907 -16.982708 
L 119.363788 -16.986102 
L 119.241176 -16.989496 
L 119.11372 -16.992891 
L 118.983979 -16.996285 
L 118.854524 -16.999679 
L 118.727866 -17.003074 
L 118.606388 -17.006468 
L 118.492277 -17.009863 
L 118.387474 -17.013257 
L 118.29364 -17.016651 
L 118.21214 -17.020046 
L 118.144055 -17.02344 
L 118.090196 -17.026834 
L 118.051144 -17.030229 
L 118.027279 -17.033623 
L 118.018821 -17.037018 
L 118.025844 -17.040412 
L 118.048291 -17.043806 
L 118.085967 -17.047201 
L 118.138516 -17.050595 
L 118.205394 -17.053989 
L 118.285831 -17.057384 
L 118.378808 -17.060778 
L 118.483031 -17.064173 
L 118.596932 -17.067567 
L 118.71869 -17.070961 
L 118.846271 -17.074356 
L 118.977489 -17.07775 
L 119.110084 -17.081144 
L 119.241815 -17.084539 
L 119.370545 -17.087933 
L 119.494329 -17.091327 
L 119.611485 -17.094722 
L 119.720649 -17.098116 
L 119.820811 -17.101511 
L 119.911324 -17.104905 
L 119.991891 -17.108299 
L 120.062543 -17.111694 
L 120.123587 -17.115088 
L 120.175562 -17.118482 
L 120.592586 -17.118482 
L 120.592586 -17.118482 
L 120.64456 -17.115088 
L 120.705605 -17.111694 
L 120.776256 -17.108299 
L 120.856824 -17.104905 
L 120.947336 -17.101511 
L 121.047498 -17.098116 
L 121.156663 -17.094722 
L 121.273818 -17.091327 
L 121.397602 -17.087933 
L 121.526332 -17.084539 
L 121.658063 -17.081144 
L 121.790659 -17.07775 
L 121.921876 -17.074356 
L 122.049457 -17.070961 
L 122.171215 -17.067567 
L 122.285117 -17.064173 
L 122.389339 -17.060778 
L 122.482316 -17.057384 
L 122.562754 -17.053989 
L 122.629631 -17.050595 
L 122.68218 -17.047201 
L 122.719856 -17.043806 
L 122.742304 -17.040412 
L 122.749327 -17.037018 
L 122.740868 -17.033623 
L 122.717004 -17.030229 
L 122.677951 -17.026834 
L 122.624092 -17.02344 
L 122.556007 -17.020046 
L 122.474508 -17.016651 
L 122.380673 -17.013257 
L 122.27587 -17.009863 
L 122.161759 -17.006468 
L 122.040281 -17.003074 
L 121.913624 -16.999679 
L 121.784168 -16.996285 
L 121.654427 -16.992891 
L 121.526971 -16.989496 
L 121.40436 -16.986102 
L 121.289077 -16.982708 
L 121.183486 -16.979313 
L 121.089796 -16.975919 
L 121.010052 -16.972525 
L 120.946141 -16.96913 
L 120.899813 -16.965736 
L 120.872709 -16.962341 
L 120.86639 -16.958947 
L 120.882362 -16.955553 
L 120.922086 -16.952158 
L 120.98697 -16.948764 
L 121.078341 -16.94537 
L 121.197393 -16.941975 
L 121.34512 -16.938581 
L 121.522232 -16.935186 
L 121.729066 -16.931792 
L 121.965493 -16.928398 
L 122.230841 -16.925003 
L 122.523825 -16.921609 
L 122.84251 -16.918215 
L 123.184292 -16.91482 
L 123.545905 -16.911426 
L 123.923455 -16.908031 
L 124.312476 -16.904637 
L 124.707992 -16.901243 
L 125.104599 -16.897848 
L 125.496543 -16.894454 
L 125.877806 -16.89106 
L 126.242188 -16.887665 
L 126.583401 -16.884271 
L 126.895166 -16.880876 
L 127.171324 -16.877482 
L 127.405975 -16.874088 
L 127.593629 -16.870693 
L 127.72939 -16.867299 
L 127.809146 -16.863905 
L 127.829783 -16.86051 
L 127.789376 -16.857116 
L 127.687365 -16.853722 
L 127.52469 -16.850327 
L 127.303861 -16.846933 
L 127.028955 -16.843538 
L 126.705532 -16.840144 
L 126.340467 -16.83675 
L 125.941699 -16.833355 
L 125.517926 -16.829961 
L 125.078246 -16.826567 
L 124.631787 -16.823172 
L 124.187337 -16.819778 
L 123.753011 -16.816383 
L 123.335967 -16.812989 
L 122.942193 -16.809595 
L 122.576373 -16.8062 
L 122.24183 -16.802806 
L 121.940553 -16.799412 
L 121.673282 -16.796017 
L 121.439654 -16.792623 
L 121.238382 -16.789228 
L 121.067455 -16.785834 
L 120.924341 -16.78244 
z
" style="stroke: #505050; stroke-width: 0.15"/>
    </defs>
    <g clip-path="url(#pa60061dbe5)">
     <use xlink:href="#m90d8f43aa8" x="0" y="84.96" style="fill: #e7a980; stroke: #505050; stroke-width: 0.15"/>
    </g>
   </g>
   <g id="PolyCollection_7">
    <defs>
     <path id="m2c643e3179" d="M 139.543919 -16.474936 
L 138.452777 -16.474936 
L 138.288602 -16.594865 
L 138.08826 -16.714793 
L 137.848045 -16.834722 
L 137.565132 -16.95465 
L 137.237974 -17.074579 
L 136.866683 -17.194507 
L 136.453376 -17.314436 
L 136.002427 -17.434364 
L 135.520601 -17.554293 
L 135.017013 -17.674221 
L 134.50292 -17.79415 
L 133.991304 -17.914078 
L 133.49628 -18.034007 
L 133.032359 -18.153935 
L 132.613596 -18.273864 
L 132.252721 -18.393792 
L 131.960291 -18.513721 
L 131.74396 -18.633649 
L 131.607931 -18.753578 
L 131.552638 -18.873507 
L 131.574688 -18.993435 
L 131.667077 -19.113364 
L 131.819666 -19.233292 
L 132.019863 -19.353221 
L 132.253466 -19.473149 
L 132.505593 -19.593078 
L 132.761619 -19.713006 
L 133.00806 -19.832935 
L 133.233332 -19.952863 
L 133.42835 -20.072792 
L 133.586919 -20.19272 
L 133.705929 -20.312649 
L 133.785339 -20.432577 
L 133.827979 -20.552506 
L 133.839195 -20.672434 
L 133.826375 -20.792363 
L 133.798391 -20.912291 
L 133.764994 -21.03222 
L 133.736198 -21.152148 
L 133.721686 -21.272077 
L 133.730267 -21.392005 
L 133.769394 -21.511934 
L 133.844796 -21.631862 
L 133.9602 -21.751791 
L 134.117186 -21.871719 
L 134.315166 -21.991648 
L 134.551488 -22.111576 
L 134.821659 -22.231505 
L 135.119668 -22.351433 
L 135.438381 -22.471362 
L 135.769987 -22.59129 
L 136.106453 -22.711219 
L 136.439961 -22.831147 
L 136.763283 -22.951076 
L 137.07009 -23.071004 
L 137.35516 -23.190933 
L 137.61448 -23.310861 
L 137.845263 -23.43079 
L 138.04586 -23.550718 
L 138.215619 -23.670647 
L 138.354688 -23.790575 
L 138.463804 -23.910504 
L 138.544084 -24.030432 
L 138.596847 -24.150361 
L 138.623473 -24.270289 
L 138.625327 -24.390218 
L 138.603732 -24.510146 
L 138.560005 -24.630075 
L 138.495544 -24.750003 
L 138.411939 -24.869932 
L 138.311108 -24.98986 
L 138.195424 -25.109789 
L 138.067811 -25.229718 
L 137.931799 -25.349646 
L 137.791513 -25.469575 
L 137.651591 -25.589503 
L 137.517032 -25.709432 
L 137.392975 -25.82936 
L 137.284432 -25.949289 
L 137.195993 -26.069217 
L 137.131537 -26.189146 
L 137.093966 -26.309074 
L 137.085007 -26.429003 
L 137.105089 -26.548931 
L 137.153314 -26.66886 
L 137.227533 -26.788788 
L 137.3245 -26.908717 
L 137.440117 -27.028645 
L 137.569715 -27.148574 
L 137.70837 -27.268502 
L 137.851208 -27.388431 
L 137.993678 -27.508359 
L 138.13178 -27.628288 
L 138.262218 -27.748216 
L 138.382492 -27.868145 
L 138.490919 -27.988073 
L 138.586587 -28.108002 
L 138.669279 -28.22793 
L 138.739347 -28.347859 
L 139.257349 -28.347859 
L 139.257349 -28.347859 
L 139.327417 -28.22793 
L 139.410109 -28.108002 
L 139.505778 -27.988073 
L 139.614204 -27.868145 
L 139.734478 -27.748216 
L 139.864917 -27.628288 
L 140.003018 -27.508359 
L 140.145489 -27.388431 
L 140.288327 -27.268502 
L 140.426982 -27.148574 
L 140.55658 -27.028645 
L 140.672196 -26.908717 
L 140.769164 -26.788788 
L 140.843382 -26.66886 
L 140.891608 -26.548931 
L 140.911689 -26.429003 
L 140.90273 -26.309074 
L 140.86516 -26.189146 
L 140.800703 -26.069217 
L 140.712265 -25.949289 
L 140.603722 -25.82936 
L 140.479665 -25.709432 
L 140.345106 -25.589503 
L 140.205184 -25.469575 
L 140.064897 -25.349646 
L 139.928885 -25.229718 
L 139.801272 -25.109789 
L 139.685588 -24.98986 
L 139.584757 -24.869932 
L 139.501152 -24.750003 
L 139.436691 -24.630075 
L 139.392965 -24.510146 
L 139.371369 -24.390218 
L 139.373223 -24.270289 
L 139.39985 -24.150361 
L 139.452612 -24.030432 
L 139.532892 -23.910504 
L 139.642008 -23.790575 
L 139.781077 -23.670647 
L 139.950836 -23.550718 
L 140.151434 -23.43079 
L 140.382216 -23.310861 
L 140.641537 -23.190933 
L 140.926606 -23.071004 
L 141.233413 -22.951076 
L 141.556736 -22.831147 
L 141.890243 -22.711219 
L 142.22671 -22.59129 
L 142.558316 -22.471362 
L 142.877028 -22.351433 
L 143.175037 -22.231505 
L 143.445209 -22.111576 
L 143.681531 -21.991648 
L 143.879511 -21.871719 
L 144.036496 -21.751791 
L 144.1519 -21.631862 
L 144.227302 -21.511934 
L 144.26643 -21.392005 
L 144.27501 -21.272077 
L 144.260499 -21.152148 
L 144.231703 -21.03222 
L 144.198306 -20.912291 
L 144.170322 -20.792363 
L 144.157502 -20.672434 
L 144.168717 -20.552506 
L 144.211357 -20.432577 
L 144.290767 -20.312649 
L 144.409778 -20.19272 
L 144.568347 -20.072792 
L 144.763364 -19.952863 
L 144.988637 -19.832935 
L 145.235077 -19.713006 
L 145.491103 -19.593078 
L 145.74323 -19.473149 
L 145.976834 -19.353221 
L 146.177031 -19.233292 
L 146.32962 -19.113364 
L 146.422009 -18.993435 
L 146.444058 -18.873507 
L 146.388765 -18.753578 
L 146.252737 -18.633649 
L 146.036406 -18.513721 
L 145.743975 -18.393792 
L 145.3831 -18.273864 
L 144.964338 -18.153935 
L 144.500416 -18.034007 
L 144.005392 -17.914078 
L 143.493776 -17.79415 
L 142.979683 -17.674221 
L 142.476096 -17.554293 
L 141.994269 -17.434364 
L 141.543321 -17.314436 
L 141.130013 -17.194507 
L 140.758722 -17.074579 
L 140.431564 -16.95465 
L 140.148652 -16.834722 
L 139.908436 -16.714793 
L 139.708094 -16.594865 
L 139.543919 -16.474936 
z
" style="stroke: #505050; stroke-width: 0.15"/>
    </defs>
    <g clip-path="url(#pa60061dbe5)">
     <use xlink:href="#m2c643e3179" x="0" y="84.96" style="fill: #abc3de; stroke: #505050; stroke-width: 0.15"/>
    </g>
   </g>
   <g id="PolyCollection_8">
    <defs>
     <path id="m08a1efa95f" d="M 158.199212 -16.592132 
L 157.026034 -16.592132 
L 156.886374 -16.607963 
L 156.723752 -16.623793 
L 156.53709 -16.639623 
L 156.325921 -16.655453 
L 156.090515 -16.671284 
L 155.831968 -16.687114 
L 155.552251 -16.702944 
L 155.254205 -16.718774 
L 154.941477 -16.734604 
L 154.618384 -16.750435 
L 154.289718 -16.766265 
L 153.9605 -16.782095 
L 153.635693 -16.797925 
L 153.319907 -16.813756 
L 153.017112 -16.829586 
L 152.730397 -16.845416 
L 152.461794 -16.861246 
L 152.212197 -16.877076 
L 151.981386 -16.892907 
L 151.768164 -16.908737 
L 151.570594 -16.924567 
L 151.386334 -16.940397 
L 151.213015 -16.956228 
L 151.048654 -16.972058 
L 150.892034 -16.987888 
L 150.74303 -17.003718 
L 150.602829 -17.019548 
L 150.474023 -17.035379 
L 150.36056 -17.051209 
L 150.267539 -17.067039 
L 150.200886 -17.082869 
L 150.166913 -17.098699 
L 150.171813 -17.11453 
L 150.221136 -17.13036 
L 150.319285 -17.14619 
L 150.469091 -17.16202 
L 150.67149 -17.177851 
L 150.925338 -17.193681 
L 151.227377 -17.209511 
L 151.572341 -17.225341 
L 151.953202 -17.241171 
L 152.361513 -17.257002 
L 152.787836 -17.272832 
L 153.222188 -17.288662 
L 153.654497 -17.304492 
L 154.075011 -17.320323 
L 154.47465 -17.336153 
L 154.84527 -17.351983 
L 155.179846 -17.367813 
L 155.472556 -17.383643 
L 155.718805 -17.399474 
L 155.915171 -17.415304 
L 156.059329 -17.431134 
L 156.149944 -17.446964 
L 156.186579 -17.462795 
L 156.169604 -17.478625 
L 156.100157 -17.494455 
L 155.980114 -17.510285 
L 155.812108 -17.526115 
L 155.599566 -17.541946 
L 155.346749 -17.557776 
L 155.0588 -17.573606 
L 154.741761 -17.589436 
L 154.402555 -17.605267 
L 154.048923 -17.621097 
L 153.689296 -17.636927 
L 153.332616 -17.652757 
L 152.988093 -17.668587 
L 152.664922 -17.684418 
L 152.371967 -17.700248 
L 152.11743 -17.716078 
L 151.908535 -17.731908 
L 151.751237 -17.747738 
L 151.649982 -17.763569 
L 151.607533 -17.779399 
L 151.624877 -17.795229 
L 151.70121 -17.811059 
L 151.834007 -17.82689 
L 152.01917 -17.84272 
L 152.251243 -17.85855 
L 152.523676 -17.87438 
L 152.829133 -17.89021 
L 153.1598 -17.906041 
L 153.507713 -17.921871 
L 153.86505 -17.937701 
L 154.224402 -17.953531 
L 154.578999 -17.969362 
L 154.922886 -17.985192 
L 155.251046 -18.001022 
L 155.559469 -18.016852 
L 155.845168 -18.032682 
L 156.106155 -18.048513 
L 156.341372 -18.064343 
L 156.550596 -18.080173 
L 156.734321 -18.096003 
L 156.893627 -18.111834 
L 157.030047 -18.127664 
L 157.145436 -18.143494 
L 157.24185 -18.159324 
L 157.983396 -18.159324 
L 157.983396 -18.159324 
L 158.079809 -18.143494 
L 158.195199 -18.127664 
L 158.331619 -18.111834 
L 158.490924 -18.096003 
L 158.674649 -18.080173 
L 158.883873 -18.064343 
L 159.11909 -18.048513 
L 159.380077 -18.032682 
L 159.665776 -18.016852 
L 159.974199 -18.001022 
L 160.302359 -17.985192 
L 160.646247 -17.969362 
L 161.000844 -17.953531 
L 161.360195 -17.937701 
L 161.717532 -17.921871 
L 162.065445 -17.906041 
L 162.396113 -17.89021 
L 162.701569 -17.87438 
L 162.974003 -17.85855 
L 163.206075 -17.84272 
L 163.391238 -17.82689 
L 163.524035 -17.811059 
L 163.600368 -17.795229 
L 163.617713 -17.779399 
L 163.575264 -17.763569 
L 163.474008 -17.747738 
L 163.31671 -17.731908 
L 163.107815 -17.716078 
L 162.853279 -17.700248 
L 162.560323 -17.684418 
L 162.237152 -17.668587 
L 161.892629 -17.652757 
L 161.535949 -17.636927 
L 161.176323 -17.621097 
L 160.82269 -17.605267 
L 160.483485 -17.589436 
L 160.166445 -17.573606 
L 159.878497 -17.557776 
L 159.62568 -17.541946 
L 159.413137 -17.526115 
L 159.245132 -17.510285 
L 159.125089 -17.494455 
L 159.055641 -17.478625 
L 159.038667 -17.462795 
L 159.075301 -17.446964 
L 159.165917 -17.431134 
L 159.310075 -17.415304 
L 159.506441 -17.399474 
L 159.752689 -17.383643 
L 160.0454 -17.367813 
L 160.379975 -17.351983 
L 160.750596 -17.336153 
L 161.150234 -17.320323 
L 161.570749 -17.304492 
L 162.003057 -17.288662 
L 162.43741 -17.272832 
L 162.863732 -17.257002 
L 163.272044 -17.241171 
L 163.652904 -17.225341 
L 163.997868 -17.209511 
L 164.299907 -17.193681 
L 164.553756 -17.177851 
L 164.756155 -17.16202 
L 164.905961 -17.14619 
L 165.00411 -17.13036 
L 165.053432 -17.11453 
L 165.058333 -17.098699 
L 165.02436 -17.082869 
L 164.957707 -17.067039 
L 164.864686 -17.051209 
L 164.751222 -17.035379 
L 164.622417 -17.019548 
L 164.482216 -17.003718 
L 164.333212 -16.987888 
L 164.176592 -16.972058 
L 164.01223 -16.956228 
L 163.838911 -16.940397 
L 163.654651 -16.924567 
L 163.457082 -16.908737 
L 163.243859 -16.892907 
L 163.013048 -16.877076 
L 162.763452 -16.861246 
L 162.494848 -16.845416 
L 162.208133 -16.829586 
L 161.905338 -16.813756 
L 161.589552 -16.797925 
L 161.264746 -16.782095 
L 160.935527 -16.766265 
L 160.606862 -16.750435 
L 160.283768 -16.734604 
L 159.971041 -16.718774 
L 159.672995 -16.702944 
L 159.393277 -16.687114 
L 159.13473 -16.671284 
L 158.899324 -16.655453 
L 158.688156 -16.639623 
L 158.501493 -16.623793 
L 158.338871 -16.607963 
L 158.199212 -16.592132 
z
" style="stroke: #505050; stroke-width: 0.15"/>
    </defs>
    <g clip-path="url(#pa60061dbe5)">
     <use xlink:href="#m08a1efa95f" x="0" y="84.96" style="fill: #c447c3; stroke: #505050; stroke-width: 0.15"/>
    </g>
   </g>
   <g id="line2d_27">
    <path d="M 101.769799 62.47015 
L 101.769799 21.855458 
" clip-path="url(#pa60061dbe5)" style="fill: none; stroke: #8c8c8c; stroke-width: 0.75; stroke-linecap: round"/>
   </g>
   <g id="line2d_28">
    <path d="M 101.769799 56.490755 
L 101.769799 42.183705 
" clip-path="url(#pa60061dbe5)" style="fill: none; stroke: #8c8c8c; stroke-width: 4; stroke-linecap: round"/>
   </g>
   <g id="line2d_29">
    <path d="M 101.769799 48.422073 
" clip-path="url(#pa60061dbe5)" style="fill: none; stroke: #505050; stroke-width: 1.2; stroke-linecap: round"/>
    <g clip-path="url(#pa60061dbe5)">
     <use xlink:href="#m0a03b64f78" x="101.769799" y="48.422073" style="fill: #ffffff; stroke: #ffffff; stroke-width: 0.8"/>
    </g>
   </g>
   <g id="line2d_30">
    <path d="M 120.384074 68.117208 
L 120.384074 67.943775 
" clip-path="url(#pa60061dbe5)" style="fill: none; stroke: #8c8c8c; stroke-width: 0.75; stroke-linecap: round"/>
   </g>
   <g id="line2d_31">
    <path d="M 120.384074 68.10661 
L 120.384074 68.036882 
" clip-path="url(#pa60061dbe5)" style="fill: none; stroke: #8c8c8c; stroke-width: 4; stroke-linecap: round"/>
   </g>
   <g id="line2d_32">
    <path d="M 120.384074 68.087052 
" clip-path="url(#pa60061dbe5)" style="fill: none; stroke: #505050; stroke-width: 1.2; stroke-linecap: round"/>
    <g clip-path="url(#pa60061dbe5)">
     <use xlink:href="#m0a03b64f78" x="120.384074" y="68.087052" style="fill: #ffffff; stroke: #ffffff; stroke-width: 0.8"/>
    </g>
   </g>
   <g id="line2d_33">
    <path d="M 138.998348 66.543421 
L 138.998348 62.875478 
" clip-path="url(#pa60061dbe5)" style="fill: none; stroke: #8c8c8c; stroke-width: 0.75; stroke-linecap: round"/>
   </g>
   <g id="line2d_34">
    <path d="M 138.998348 66.219618 
L 138.998348 63.203931 
" clip-path="url(#pa60061dbe5)" style="fill: none; stroke: #8c8c8c; stroke-width: 4; stroke-linecap: round"/>
   </g>
   <g id="line2d_35">
    <path d="M 138.998348 64.856457 
" clip-path="url(#pa60061dbe5)" style="fill: none; stroke: #505050; stroke-width: 1.2; stroke-linecap: round"/>
    <g clip-path="url(#pa60061dbe5)">
     <use xlink:href="#m0a03b64f78" x="138.998348" y="64.856457" style="fill: #ffffff; stroke: #ffffff; stroke-width: 0.8"/>
    </g>
   </g>
   <g id="line2d_36">
    <path d="M 157.612623 68.076842 
L 157.612623 67.091702 
" clip-path="url(#pa60061dbe5)" style="fill: none; stroke: #8c8c8c; stroke-width: 0.75; stroke-linecap: round"/>
   </g>
   <g id="line2d_37">
    <path d="M 157.612623 67.891664 
L 157.612623 67.220565 
" clip-path="url(#pa60061dbe5)" style="fill: none; stroke: #8c8c8c; stroke-width: 4; stroke-linecap: round"/>
   </g>
   <g id="line2d_38">
    <path d="M 157.612623 67.792052 
" clip-path="url(#pa60061dbe5)" style="fill: none; stroke: #505050; stroke-width: 1.2; stroke-linecap: round"/>
    <g clip-path="url(#pa60061dbe5)">
     <use xlink:href="#m0a03b64f78" x="157.612623" y="67.792052" style="fill: #ffffff; stroke: #ffffff; stroke-width: 0.8"/>
    </g>
   </g>
   <g id="patch_6">
    <path d="M 92.462662 74.419526 
L 92.462662 4.076256 
" style="fill: none; stroke: #777777; stroke-width: 0.5; stroke-linejoin: miter; stroke-linecap: square"/>
   </g>
   <g id="patch_7">
    <path d="M 92.462662 76.919526 
L 166.91976 76.919526 
" style="fill: none; stroke: #777777; stroke-width: 0.5; stroke-linejoin: miter; stroke-linecap: square"/>
   </g>
   <g id="PathCollection_5">
    <g clip-path="url(#pa60061dbe5)">
     <use xlink:href="#m73d48c649d" x="100.035814" y="46.063138" style="fill: #642222"/>
     <use xlink:href="#m73d48c649d" x="100.971605" y="59.060075" style="fill: #642222"/>
     <use xlink:href="#m73d48c649d" x="102.240486" y="56.705479" style="fill: #642222"/>
     <use xlink:href="#m73d48c649d" x="102.53288" y="32.528803" style="fill: #642222"/>
     <use xlink:href="#m73d48c649d" x="103.336458" y="43.926842" style="fill: #642222"/>
     <use xlink:href="#m73d48c649d" x="100.784936" y="58.276882" style="fill: #642222"/>
     <use xlink:href="#m73d48c649d" x="102.188555" y="52.953681" style="fill: #642222"/>
     <use xlink:href="#m73d48c649d" x="101.6402" y="26.113078" style="fill: #642222"/>
     <use xlink:href="#m73d48c649d" x="101.053753" y="47.047742" style="fill: #642222"/>
     <use xlink:href="#m73d48c649d" x="103.06181" y="48.736235" style="fill: #642222"/>
     <use xlink:href="#m73d48c649d" x="101.42145" y="53.397242" style="fill: #642222"/>
     <use xlink:href="#m73d48c649d" x="101.676428" y="32.119649" style="fill: #642222"/>
     <use xlink:href="#m73d48c649d" x="103.032188" y="48.104321" style="fill: #642222"/>
     <use xlink:href="#m73d48c649d" x="100.243505" y="56.41918" style="fill: #642222"/>
     <use xlink:href="#m73d48c649d" x="102.730154" y="48.10791" style="fill: #642222"/>
     <use xlink:href="#m73d48c649d" x="101.232144" y="21.855458" style="fill: #642222"/>
     <use xlink:href="#m73d48c649d" x="100.374281" y="51.101957" style="fill: #642222"/>
     <use xlink:href="#m73d48c649d" x="102.692251" y="49.924802" style="fill: #642222"/>
     <use xlink:href="#m73d48c649d" x="102.991494" y="62.47015" style="fill: #642222"/>
     <use xlink:href="#m73d48c649d" x="99.995961" y="36.954293" style="fill: #642222"/>
     <use xlink:href="#m73d48c649d" x="100.706121" y="46.700905" style="fill: #642222"/>
     <use xlink:href="#m73d48c649d" x="101.502639" y="56.757485" style="fill: #642222"/>
     <use xlink:href="#m73d48c649d" x="103.237082" y="60.393313" style="fill: #642222"/>
     <use xlink:href="#m73d48c649d" x="100.492215" y="31.614665" style="fill: #642222"/>
    </g>
   </g>
   <g id="PathCollection_6">
    <g clip-path="url(#pa60061dbe5)">
     <use xlink:href="#m73d48c649d" x="118.880835" y="68.067917" style="fill: #642222"/>
     <use xlink:href="#m73d48c649d" x="118.991102" y="68.100648" style="fill: #642222"/>
     <use xlink:href="#m73d48c649d" x="118.921497" y="68.117208" style="fill: #642222"/>
     <use xlink:href="#m73d48c649d" x="121.488878" y="67.943775" style="fill: #642222"/>
     <use xlink:href="#m73d48c649d" x="121.354733" y="67.901869" style="fill: #642222"/>
     <use xlink:href="#m73d48c649d" x="119.041663" y="68.11694" style="fill: #642222"/>
     <use xlink:href="#m73d48c649d" x="119.686955" y="68.103166" style="fill: #642222"/>
     <use xlink:href="#m73d48c649d" x="121.71408" y="68.073456" style="fill: #642222"/>
    </g>
   </g>
   <g id="PathCollection_7">
    <g clip-path="url(#pa60061dbe5)">
     <use xlink:href="#m73d48c649d" x="138.047495" y="63.313415" style="fill: #642222"/>
     <use xlink:href="#m73d48c649d" x="138.647296" y="66.284095" style="fill: #642222"/>
     <use xlink:href="#m73d48c649d" x="139.294425" y="66.198126" style="fill: #642222"/>
     <use xlink:href="#m73d48c649d" x="140.070487" y="62.875478" style="fill: #642222"/>
     <use xlink:href="#m73d48c649d" x="138.43949" y="65.562807" style="fill: #642222"/>
     <use xlink:href="#m73d48c649d" x="137.687477" y="66.543421" style="fill: #642222"/>
     <use xlink:href="#m73d48c649d" x="139.647157" y="64.150107" style="fill: #642222"/>
     <use xlink:href="#m73d48c649d" x="138.726233" y="58.553784" style="fill: #642222"/>
    </g>
   </g>
   <g id="PathCollection_8">
    <g clip-path="url(#pa60061dbe5)">
     <use xlink:href="#m73d48c649d" x="157.578202" y="67.830296" style="fill: #642222"/>
     <use xlink:href="#m73d48c649d" x="158.372039" y="67.226389" style="fill: #642222"/>
     <use xlink:href="#m73d48c649d" x="158.208522" y="68.076842" style="fill: #642222"/>
     <use xlink:href="#m73d48c649d" x="157.45498" y="67.091702" style="fill: #642222"/>
     <use xlink:href="#m73d48c649d" x="157.764914" y="67.203093" style="fill: #642222"/>
     <use xlink:href="#m73d48c649d" x="157.162271" y="67.795917" style="fill: #642222"/>
     <use xlink:href="#m73d48c649d" x="156.208393" y="68.075768" style="fill: #642222"/>
     <use xlink:href="#m73d48c649d" x="157.102353" y="67.788187" style="fill: #642222"/>
    </g>
   </g>
  </g>
 </g>
 <defs>
  <clipPath id="pd8b8752f01">
   <rect x="6.668521" y="4.076256" width="74.457098" height="70.34327"/>
  </clipPath>
  <clipPath id="pa60061dbe5">
   <rect x="92.462662" y="4.076256" width="74.457098" height="70.34327"/>
  </clipPath>
 </defs>
</svg>
