<?xml version="1.0" encoding="utf-8" standalone="no"?>
<!DOCTYPE svg PUBLIC "-//W3C//DTD SVG 1.1//EN"
  "http://www.w3.org/Graphics/SVG/1.1/DTD/svg11.dtd">
<svg xmlns:xlink="http://www.w3.org/1999/xlink" width="56.16pt" height="84.96pt" viewBox="0 0 56.16 84.96" xmlns="http://www.w3.org/2000/svg" version="1.1">
 <metadata>
  <rdf:RDF xmlns:dc="http://purl.org/dc/elements/1.1/" xmlns:cc="http://creativecommons.org/ns#" xmlns:rdf="http://www.w3.org/1999/02/22-rdf-syntax-ns#">
   <cc:Work>
    <dc:type rdf:resource="http://purl.org/dc/dcmitype/StillImage"/>
    <dc:date>2024-05-27T15:37:17.209339</dc:date>
    <dc:format>image/svg+xml</dc:format>
    <dc:creator>
     <cc:Agent>
      <dc:title>Matplotlib v3.8.3, https://matplotlib.org/</dc:title>
     </cc:Agent>
    </dc:creator>
   </cc:Work>
  </rdf:RDF>
 </metadata>
 <defs>
  <style type="text/css">*{stroke-linejoin: round; stroke-linecap: butt}</style>
 </defs>
 <g id="figure_1">
  <g id="patch_1">
   <path d="M 0 84.96 
L 56.16 84.96 
L 56.16 0 
L 0 0 
z
" style="fill: #ffffff"/>
  </g>
  <g id="axes_1">
   <g id="patch_2">
    <path d="M 10.005084 74.419526 
L 53.15976 74.419526 
L 53.15976 4.076256 
L 10.005084 4.076256 
z
" style="fill: #ffffff"/>
   </g>
   <g id="matplotlib.axis_1">
    <g id="xtick_1">
     <g id="text_1">
      <!-- EOMES+ Cells -->
      <g style="fill: #333333" transform="translate(9.075042 81.230229) scale(0.035 -0.035)">
       <defs>
        <path id="Helvetica-45" d="M 547 4591 
L 3894 4591 
L 3894 4028 
L 1153 4028 
L 1153 2634 
L 3688 2634 
L 3688 2103 
L 1153 2103 
L 1153 547 
L 3941 547 
L 3941 0 
L 547 0 
L 547 4591 
z
M 2244 4591 
L 2244 4591 
z
" transform="scale(0.015625)"/>
        <path id="Helvetica-4f" d="M 2469 4716 
Q 3684 4716 4269 3934 
Q 4725 3325 4725 2375 
Q 4725 1347 4203 666 
Q 3591 -134 2456 -134 
Q 1397 -134 791 566 
Q 250 1241 250 2272 
Q 250 3203 713 3866 
Q 1306 4716 2469 4716 
z
M 2531 422 
Q 3353 422 3720 1011 
Q 4088 1600 4088 2366 
Q 4088 3175 3664 3669 
Q 3241 4163 2506 4163 
Q 1794 4163 1344 3673 
Q 894 3184 894 2231 
Q 894 1469 1280 945 
Q 1666 422 2531 422 
z
M 2488 4716 
L 2488 4716 
z
" transform="scale(0.015625)"/>
        <path id="Helvetica-4d" d="M 472 4591 
L 1363 4591 
L 2681 709 
L 3991 4591 
L 4872 4591 
L 4872 0 
L 4281 0 
L 4281 2709 
Q 4281 2850 4287 3175 
Q 4294 3500 4294 3872 
L 2984 0 
L 2369 0 
L 1050 3872 
L 1050 3731 
Q 1050 3563 1058 3217 
Q 1066 2872 1066 2709 
L 1066 0 
L 472 0 
L 472 4591 
z
" transform="scale(0.015625)"/>
        <path id="Helvetica-53" d="M 894 1481 
Q 916 1091 1078 847 
Q 1388 391 2169 391 
Q 2519 391 2806 491 
Q 3363 684 3363 1184 
Q 3363 1559 3128 1719 
Q 2891 1875 2384 1991 
L 1763 2131 
Q 1153 2269 900 2434 
Q 463 2722 463 3294 
Q 463 3913 891 4309 
Q 1319 4706 2103 4706 
Q 2825 4706 3329 4357 
Q 3834 4009 3834 3244 
L 3250 3244 
Q 3203 3613 3050 3809 
Q 2766 4169 2084 4169 
Q 1534 4169 1293 3937 
Q 1053 3706 1053 3400 
Q 1053 3063 1334 2906 
Q 1519 2806 2169 2656 
L 2813 2509 
Q 3278 2403 3531 2219 
Q 3969 1897 3969 1284 
Q 3969 522 3414 194 
Q 2859 -134 2125 -134 
Q 1269 -134 784 303 
Q 300 738 309 1481 
L 894 1481 
z
M 2150 4716 
L 2150 4716 
z
" transform="scale(0.015625)"/>
        <path id="Helvetica-2b" d="M 288 1369 
L 288 1894 
L 1650 1894 
L 1650 3266 
L 2184 3266 
L 2184 1894 
L 3547 1894 
L 3547 1369 
L 2184 1369 
L 2184 0 
L 1650 0 
L 1650 1369 
L 288 1369 
z
" transform="scale(0.015625)"/>
        <path id="Helvetica-20" transform="scale(0.015625)"/>
        <path id="Helvetica-43" d="M 2422 4716 
Q 3294 4716 3775 4256 
Q 4256 3797 4309 3213 
L 3703 3213 
Q 3600 3656 3292 3915 
Q 2984 4175 2428 4175 
Q 1750 4175 1333 3698 
Q 916 3222 916 2238 
Q 916 1431 1292 929 
Q 1669 428 2416 428 
Q 3103 428 3463 956 
Q 3653 1234 3747 1688 
L 4353 1688 
Q 4272 963 3816 472 
Q 3269 -119 2341 -119 
Q 1541 -119 997 366 
Q 281 1006 281 2344 
Q 281 3359 819 4009 
Q 1400 4716 2422 4716 
z
M 2297 4716 
L 2297 4716 
z
" transform="scale(0.015625)"/>
        <path id="Helvetica-65" d="M 1806 3422 
Q 2163 3422 2497 3255 
Q 2831 3088 3006 2822 
Q 3175 2569 3231 2231 
Q 3281 2000 3281 1494 
L 828 1494 
Q 844 984 1069 676 
Q 1294 369 1766 369 
Q 2206 369 2469 659 
Q 2619 828 2681 1050 
L 3234 1050 
Q 3213 866 3089 639 
Q 2966 413 2813 269 
Q 2556 19 2178 -69 
Q 1975 -119 1719 -119 
Q 1094 -119 659 336 
Q 225 791 225 1609 
Q 225 2416 662 2919 
Q 1100 3422 1806 3422 
z
M 2703 1941 
Q 2669 2306 2544 2525 
Q 2313 2931 1772 2931 
Q 1384 2931 1121 2651 
Q 859 2372 844 1941 
L 2703 1941 
z
M 1753 3428 
L 1753 3428 
z
" transform="scale(0.015625)"/>
        <path id="Helvetica-6c" d="M 428 4591 
L 991 4591 
L 991 0 
L 428 0 
L 428 4591 
z
" transform="scale(0.015625)"/>
        <path id="Helvetica-73" d="M 747 1050 
Q 772 769 888 619 
Q 1100 347 1625 347 
Q 1938 347 2175 483 
Q 2413 619 2413 903 
Q 2413 1119 2222 1231 
Q 2100 1300 1741 1391 
L 1294 1503 
Q 866 1609 663 1741 
Q 300 1969 300 2372 
Q 300 2847 642 3140 
Q 984 3434 1563 3434 
Q 2319 3434 2653 2991 
Q 2863 2709 2856 2384 
L 2325 2384 
Q 2309 2575 2191 2731 
Q 1997 2953 1519 2953 
Q 1200 2953 1036 2831 
Q 872 2709 872 2509 
Q 872 2291 1088 2159 
Q 1213 2081 1456 2022 
L 1828 1931 
Q 2434 1784 2641 1647 
Q 2969 1431 2969 969 
Q 2969 522 2630 197 
Q 2291 -128 1597 -128 
Q 850 -128 539 211 
Q 228 550 206 1050 
L 747 1050 
z
M 1578 3428 
L 1578 3428 
z
" transform="scale(0.015625)"/>
       </defs>
       <use xlink:href="#Helvetica-45"/>
       <use xlink:href="#Helvetica-4f" x="66.699219"/>
       <use xlink:href="#Helvetica-4d" x="144.482422"/>
       <use xlink:href="#Helvetica-45" x="227.783203"/>
       <use xlink:href="#Helvetica-53" x="294.482422"/>
       <use xlink:href="#Helvetica-2b" x="361.181641"/>
       <use xlink:href="#Helvetica-20" x="419.580078"/>
       <use xlink:href="#Helvetica-43" x="447.363281"/>
       <use xlink:href="#Helvetica-65" x="519.580078"/>
       <use xlink:href="#Helvetica-6c" x="575.195312"/>
       <use xlink:href="#Helvetica-6c" x="597.412109"/>
       <use xlink:href="#Helvetica-73" x="619.628906"/>
      </g>
     </g>
    </g>
    <g id="xtick_2">
     <g id="text_2">
      <!-- TBX+ Cells -->
      <g style="fill: #333333" transform="translate(33.569685 81.230229) scale(0.035 -0.035)">
       <defs>
        <path id="Helvetica-54" d="M 3828 4591 
L 3828 4044 
L 2281 4044 
L 2281 0 
L 1650 0 
L 1650 4044 
L 103 4044 
L 103 4591 
L 3828 4591 
z
" transform="scale(0.015625)"/>
        <path id="Helvetica-42" d="M 2213 2650 
Q 2606 2650 2825 2759 
Q 3169 2931 3169 3378 
Q 3169 3828 2803 3984 
Q 2597 4072 2191 4072 
L 1081 4072 
L 1081 2650 
L 2213 2650 
z
M 2422 531 
Q 2994 531 3238 863 
Q 3391 1072 3391 1369 
Q 3391 1869 2944 2050 
Q 2706 2147 2316 2147 
L 1081 2147 
L 1081 531 
L 2422 531 
z
M 472 4591 
L 2444 4591 
Q 3250 4591 3591 4109 
Q 3791 3825 3791 3453 
Q 3791 3019 3544 2741 
Q 3416 2594 3175 2472 
Q 3528 2338 3703 2169 
Q 4013 1869 4013 1341 
Q 4013 897 3734 538 
Q 3319 0 2413 0 
L 472 0 
L 472 4591 
z
" transform="scale(0.015625)"/>
        <path id="Helvetica-58" d="M 881 0 
L 131 0 
L 1775 2353 
L 234 4591 
L 1013 4591 
L 2184 2834 
L 3347 4591 
L 4088 4591 
L 2547 2353 
L 4163 0 
L 3391 0 
L 2153 1888 
L 881 0 
z
" transform="scale(0.015625)"/>
       </defs>
       <use xlink:href="#Helvetica-54"/>
       <use xlink:href="#Helvetica-42" x="61.083984"/>
       <use xlink:href="#Helvetica-58" x="127.783203"/>
       <use xlink:href="#Helvetica-2b" x="194.482422"/>
       <use xlink:href="#Helvetica-20" x="252.880859"/>
       <use xlink:href="#Helvetica-43" x="280.664062"/>
       <use xlink:href="#Helvetica-65" x="352.880859"/>
       <use xlink:href="#Helvetica-6c" x="408.496094"/>
       <use xlink:href="#Helvetica-6c" x="430.712891"/>
       <use xlink:href="#Helvetica-73" x="452.929688"/>
      </g>
     </g>
    </g>
   </g>
   <g id="matplotlib.axis_2">
    <g id="ytick_1">
     <g id="line2d_1">
      <defs>
       <path id="m20e49124c8" d="M 0 0 
L -1 0 
" style="stroke: #777777; stroke-width: 0.5"/>
      </defs>
      <g>
       <use xlink:href="#m20e49124c8" x="10.005084" y="66.189518" style="fill: #777777; stroke: #777777; stroke-width: 0.5"/>
      </g>
     </g>
     <g id="text_3">
      <!-- 0 -->
      <g style="fill: #333333" transform="translate(6.336802 67.265534) scale(0.03 -0.03)">
       <defs>
        <path id="Helvetica-30" d="M 1731 4475 
Q 2600 4475 2988 3759 
Q 3288 3206 3288 2244 
Q 3288 1331 3016 734 
Q 2622 -122 1728 -122 
Q 922 -122 528 578 
Q 200 1163 200 2147 
Q 200 2909 397 3456 
Q 766 4475 1731 4475 
z
M 1725 391 
Q 2163 391 2422 778 
Q 2681 1166 2681 2222 
Q 2681 2984 2493 3476 
Q 2306 3969 1766 3969 
Q 1269 3969 1039 3501 
Q 809 3034 809 2125 
Q 809 1441 956 1025 
Q 1181 391 1725 391 
z
" transform="scale(0.015625)"/>
       </defs>
       <use xlink:href="#Helvetica-30"/>
      </g>
     </g>
    </g>
    <g id="ytick_2">
     <g id="line2d_2">
      <g>
       <use xlink:href="#m20e49124c8" x="10.005084" y="55.837308" style="fill: #777777; stroke: #777777; stroke-width: 0.5"/>
      </g>
     </g>
     <g id="text_4">
      <!-- 20 -->
      <g style="fill: #333333" transform="translate(4.668521 56.913323) scale(0.03 -0.03)">
       <defs>
        <path id="Helvetica-32" d="M 200 0 
Q 231 578 439 1006 
Q 647 1434 1250 1784 
L 1850 2131 
Q 2253 2366 2416 2531 
Q 2672 2791 2672 3125 
Q 2672 3516 2437 3745 
Q 2203 3975 1813 3975 
Q 1234 3975 1013 3538 
Q 894 3303 881 2888 
L 309 2888 
Q 319 3472 525 3841 
Q 891 4491 1816 4491 
Q 2584 4491 2939 4075 
Q 3294 3659 3294 3150 
Q 3294 2613 2916 2231 
Q 2697 2009 2131 1694 
L 1703 1456 
Q 1397 1288 1222 1134 
Q 909 863 828 531 
L 3272 531 
L 3272 0 
L 200 0 
z
" transform="scale(0.015625)"/>
       </defs>
       <use xlink:href="#Helvetica-32"/>
       <use xlink:href="#Helvetica-30" x="55.615234"/>
      </g>
     </g>
    </g>
    <g id="ytick_3">
     <g id="line2d_3">
      <g>
       <use xlink:href="#m20e49124c8" x="10.005084" y="45.485097" style="fill: #777777; stroke: #777777; stroke-width: 0.5"/>
      </g>
     </g>
     <g id="text_5">
      <!-- 40 -->
      <g style="fill: #333333" transform="translate(4.668521 46.561113) scale(0.03 -0.03)">
       <defs>
        <path id="Helvetica-34" d="M 2116 1584 
L 2116 3613 
L 681 1584 
L 2116 1584 
z
M 2125 0 
L 2125 1094 
L 163 1094 
L 163 1644 
L 2213 4488 
L 2688 4488 
L 2688 1584 
L 3347 1584 
L 3347 1094 
L 2688 1094 
L 2688 0 
L 2125 0 
z
" transform="scale(0.015625)"/>
       </defs>
       <use xlink:href="#Helvetica-34"/>
       <use xlink:href="#Helvetica-30" x="55.615234"/>
      </g>
     </g>
    </g>
    <g id="ytick_4">
     <g id="line2d_4">
      <g>
       <use xlink:href="#m20e49124c8" x="10.005084" y="35.132887" style="fill: #777777; stroke: #777777; stroke-width: 0.5"/>
      </g>
     </g>
     <g id="text_6">
      <!-- 60 -->
      <g style="fill: #333333" transform="translate(4.668521 36.208903) scale(0.03 -0.03)">
       <defs>
        <path id="Helvetica-36" d="M 1872 4494 
Q 2622 4494 2917 4105 
Q 3213 3716 3213 3303 
L 2656 3303 
Q 2606 3569 2497 3719 
Q 2294 4000 1881 4000 
Q 1409 4000 1131 3564 
Q 853 3128 822 2316 
Q 1016 2600 1309 2741 
Q 1578 2866 1909 2866 
Q 2472 2866 2890 2506 
Q 3309 2147 3309 1434 
Q 3309 825 2912 354 
Q 2516 -116 1781 -116 
Q 1153 -116 697 361 
Q 241 838 241 1966 
Q 241 2800 444 3381 
Q 834 4494 1872 4494 
z
M 1831 384 
Q 2275 384 2495 682 
Q 2716 981 2716 1388 
Q 2716 1731 2519 2042 
Q 2322 2353 1803 2353 
Q 1441 2353 1167 2112 
Q 894 1872 894 1388 
Q 894 963 1142 673 
Q 1391 384 1831 384 
z
" transform="scale(0.015625)"/>
       </defs>
       <use xlink:href="#Helvetica-36"/>
       <use xlink:href="#Helvetica-30" x="55.615234"/>
      </g>
     </g>
    </g>
    <g id="ytick_5">
     <g id="line2d_5">
      <g>
       <use xlink:href="#m20e49124c8" x="10.005084" y="24.780677" style="fill: #777777; stroke: #777777; stroke-width: 0.5"/>
      </g>
     </g>
     <g id="text_7">
      <!-- 80 -->
      <g style="fill: #333333" transform="translate(4.668521 25.856692) scale(0.03 -0.03)">
       <defs>
        <path id="Helvetica-38" d="M 1741 2600 
Q 2113 2600 2322 2808 
Q 2531 3016 2531 3303 
Q 2531 3553 2331 3762 
Q 2131 3972 1722 3972 
Q 1316 3972 1134 3762 
Q 953 3553 953 3272 
Q 953 2956 1187 2778 
Q 1422 2600 1741 2600 
z
M 1775 384 
Q 2166 384 2423 595 
Q 2681 806 2681 1225 
Q 2681 1659 2415 1884 
Q 2150 2109 1734 2109 
Q 1331 2109 1076 1879 
Q 822 1650 822 1244 
Q 822 894 1055 639 
Q 1288 384 1775 384 
z
M 975 2384 
Q 741 2484 609 2619 
Q 363 2869 363 3269 
Q 363 3769 725 4128 
Q 1088 4488 1753 4488 
Q 2397 4488 2762 4148 
Q 3128 3809 3128 3356 
Q 3128 2938 2916 2678 
Q 2797 2531 2547 2391 
Q 2825 2263 2984 2097 
Q 3281 1784 3281 1284 
Q 3281 694 2884 283 
Q 2488 -128 1763 -128 
Q 1109 -128 657 226 
Q 206 581 206 1256 
Q 206 1653 400 1942 
Q 594 2231 975 2384 
z
" transform="scale(0.015625)"/>
       </defs>
       <use xlink:href="#Helvetica-38"/>
       <use xlink:href="#Helvetica-30" x="55.615234"/>
      </g>
     </g>
    </g>
    <g id="ytick_6">
     <g id="line2d_6">
      <g>
       <use xlink:href="#m20e49124c8" x="10.005084" y="14.428466" style="fill: #777777; stroke: #777777; stroke-width: 0.5"/>
      </g>
     </g>
     <g id="text_8">
      <!-- 100 -->
      <g style="fill: #333333" transform="translate(3.00024 15.504482) scale(0.03 -0.03)">
       <defs>
        <path id="Helvetica-31" d="M 613 3169 
L 613 3600 
Q 1222 3659 1462 3798 
Q 1703 3938 1822 4456 
L 2266 4456 
L 2266 0 
L 1666 0 
L 1666 3169 
L 613 3169 
z
" transform="scale(0.015625)"/>
       </defs>
       <use xlink:href="#Helvetica-31"/>
       <use xlink:href="#Helvetica-30" x="55.615234"/>
       <use xlink:href="#Helvetica-30" x="111.230469"/>
      </g>
     </g>
    </g>
    <g id="ytick_7">
     <g id="line2d_7">
      <g>
       <use xlink:href="#m20e49124c8" x="10.005084" y="4.076256" style="fill: #777777; stroke: #777777; stroke-width: 0.5"/>
      </g>
     </g>
     <g id="text_9">
      <!-- 120 -->
      <g style="fill: #333333" transform="translate(3.00024 5.152271) scale(0.03 -0.03)">
       <use xlink:href="#Helvetica-31"/>
       <use xlink:href="#Helvetica-32" x="55.615234"/>
       <use xlink:href="#Helvetica-30" x="111.230469"/>
      </g>
     </g>
    </g>
   </g>
   <g id="PolyCollection_1">
    <defs>
     <path id="m7e1f7935b6" d="M 21.587047 -18.31348 
L 20.000458 -18.31348 
L 19.860178 -18.34972 
L 19.706389 -18.385961 
L 19.539906 -18.422202 
L 19.361856 -18.458443 
L 19.17361 -18.494683 
L 18.976682 -18.530924 
L 18.772611 -18.567165 
L 18.56283 -18.603405 
L 18.34853 -18.639646 
L 18.130538 -18.675887 
L 17.909227 -18.712128 
L 17.684456 -18.748368 
L 17.45557 -18.784609 
L 17.221445 -18.82085 
L 16.980601 -18.857091 
L 16.731359 -18.893331 
L 16.472047 -18.929572 
L 16.20123 -18.965813 
L 15.91795 -19.002054 
L 15.621951 -19.038294 
L 15.313878 -19.074535 
L 14.995419 -19.110776 
L 14.66938 -19.147016 
L 14.33969 -19.183257 
L 14.011316 -19.219498 
L 13.690111 -19.255739 
L 13.382588 -19.291979 
L 13.095646 -19.32822 
L 12.836257 -19.364461 
L 12.611145 -19.400702 
L 12.426477 -19.436942 
L 12.287576 -19.473183 
L 12.19869 -19.509424 
L 12.162818 -19.545665 
L 12.181608 -19.581905 
L 12.255328 -19.618146 
L 12.382895 -19.654387 
L 12.561984 -19.690627 
L 12.789165 -19.726868 
L 13.060087 -19.763109 
L 13.369679 -19.79935 
L 13.712351 -19.83559 
L 14.082193 -19.871831 
L 14.473145 -19.908072 
L 14.879154 -19.944313 
L 15.294294 -19.980553 
L 15.712858 -20.016794 
L 16.129426 -20.053035 
L 16.53891 -20.089276 
L 16.936583 -20.125516 
L 17.318093 -20.161757 
L 17.679473 -20.197998 
L 18.017148 -20.234238 
L 18.327934 -20.270479 
L 18.609048 -20.30672 
L 18.858108 -20.342961 
L 19.073142 -20.379201 
L 19.252594 -20.415442 
L 19.395336 -20.451683 
L 19.500675 -20.487924 
L 19.568371 -20.524164 
L 19.598655 -20.560405 
L 19.592245 -20.596646 
L 19.550373 -20.632887 
L 19.474801 -20.669127 
L 19.367848 -20.705368 
L 19.232391 -20.741609 
L 19.071876 -20.777849 
L 18.890291 -20.81409 
L 18.692137 -20.850331 
L 18.482367 -20.886572 
L 18.266295 -20.922812 
L 18.049494 -20.959053 
L 17.83766 -20.995294 
L 17.636461 -21.031535 
L 17.451377 -21.067775 
L 17.287531 -21.104016 
L 17.149526 -21.140257 
L 17.041291 -21.176498 
L 16.965953 -21.212738 
L 16.925722 -21.248979 
L 16.921829 -21.28522 
L 16.95448 -21.32146 
L 17.022863 -21.357701 
L 17.125191 -21.393942 
L 17.25878 -21.430183 
L 17.420169 -21.466423 
L 17.605259 -21.502664 
L 17.809483 -21.538905 
L 18.027986 -21.575146 
L 18.255812 -21.611386 
L 18.488082 -21.647627 
L 18.720164 -21.683868 
L 18.94782 -21.720109 
L 19.167327 -21.756349 
L 19.375561 -21.79259 
L 19.570051 -21.828831 
L 19.748999 -21.865071 
L 19.911264 -21.901312 
L 21.676241 -21.901312 
L 21.676241 -21.901312 
L 21.838507 -21.865071 
L 22.017455 -21.828831 
L 22.211945 -21.79259 
L 22.420178 -21.756349 
L 22.639685 -21.720109 
L 22.867342 -21.683868 
L 23.099424 -21.647627 
L 23.331694 -21.611386 
L 23.559519 -21.575146 
L 23.778023 -21.538905 
L 23.982247 -21.502664 
L 24.167336 -21.466423 
L 24.328725 -21.430183 
L 24.462315 -21.393942 
L 24.564642 -21.357701 
L 24.633026 -21.32146 
L 24.665676 -21.28522 
L 24.661783 -21.248979 
L 24.621553 -21.212738 
L 24.546214 -21.176498 
L 24.43798 -21.140257 
L 24.299974 -21.104016 
L 24.136128 -21.067775 
L 23.951044 -21.031535 
L 23.749845 -20.995294 
L 23.538011 -20.959053 
L 23.321211 -20.922812 
L 23.105139 -20.886572 
L 22.895368 -20.850331 
L 22.697215 -20.81409 
L 22.51563 -20.777849 
L 22.355114 -20.741609 
L 22.219658 -20.705368 
L 22.112704 -20.669127 
L 22.037133 -20.632887 
L 21.99526 -20.596646 
L 21.98885 -20.560405 
L 22.019134 -20.524164 
L 22.086831 -20.487924 
L 22.19217 -20.451683 
L 22.334912 -20.415442 
L 22.514364 -20.379201 
L 22.729398 -20.342961 
L 22.978458 -20.30672 
L 23.259572 -20.270479 
L 23.570358 -20.234238 
L 23.908033 -20.197998 
L 24.269413 -20.161757 
L 24.650923 -20.125516 
L 25.048596 -20.089276 
L 25.45808 -20.053035 
L 25.874648 -20.016794 
L 26.293211 -19.980553 
L 26.708351 -19.944313 
L 27.114361 -19.908072 
L 27.505313 -19.871831 
L 27.875154 -19.83559 
L 28.217827 -19.79935 
L 28.527419 -19.763109 
L 28.798341 -19.726868 
L 29.025521 -19.690627 
L 29.20461 -19.654387 
L 29.332178 -19.618146 
L 29.405897 -19.581905 
L 29.424688 -19.545665 
L 29.388816 -19.509424 
L 29.29993 -19.473183 
L 29.161028 -19.436942 
L 28.97636 -19.400702 
L 28.751249 -19.364461 
L 28.49186 -19.32822 
L 28.204917 -19.291979 
L 27.897395 -19.255739 
L 27.57619 -19.219498 
L 27.247816 -19.183257 
L 26.918125 -19.147016 
L 26.592087 -19.110776 
L 26.273628 -19.074535 
L 25.965555 -19.038294 
L 25.669556 -19.002054 
L 25.386275 -18.965813 
L 25.115459 -18.929572 
L 24.856147 -18.893331 
L 24.606905 -18.857091 
L 24.366061 -18.82085 
L 24.131936 -18.784609 
L 23.903049 -18.748368 
L 23.678279 -18.712128 
L 23.456968 -18.675887 
L 23.238976 -18.639646 
L 23.024675 -18.603405 
L 22.814894 -18.567165 
L 22.610824 -18.530924 
L 22.413896 -18.494683 
L 22.225649 -18.458443 
L 22.0476 -18.422202 
L 21.881116 -18.385961 
L 21.727327 -18.34972 
L 21.587047 -18.31348 
z
" style="stroke: #6f6f6f; stroke-width: 0.15"/>
    </defs>
    <g clip-path="url(#ped6b0166c7)">
     <use xlink:href="#m7e1f7935b6" x="0" y="84.96" style="fill: #f2aba8; stroke: #6f6f6f; stroke-width: 0.15"/>
    </g>
   </g>
   <g id="PolyCollection_2">
    <defs>
     <path id="mf3a7658f5e" d="M 43.472281 -18.698418 
L 41.269901 -18.698418 
L 41.091019 -18.703904 
L 40.896054 -18.70939 
L 40.686171 -18.714876 
L 40.463103 -18.720362 
L 40.229156 -18.725848 
L 39.987196 -18.731334 
L 39.740596 -18.73682 
L 39.493166 -18.742306 
L 39.24904 -18.747792 
L 39.012552 -18.753278 
L 38.788074 -18.758764 
L 38.579854 -18.76425 
L 38.391838 -18.769735 
L 38.227498 -18.775221 
L 38.089674 -18.780707 
L 37.980438 -18.786193 
L 37.900989 -18.791679 
L 37.851586 -18.797165 
L 37.831529 -18.802651 
L 37.83918 -18.808137 
L 37.872037 -18.813623 
L 37.926845 -18.819109 
L 37.999747 -18.824595 
L 38.086466 -18.830081 
L 38.182495 -18.835567 
L 38.283304 -18.841053 
L 38.384536 -18.846539 
L 38.482191 -18.852025 
L 38.572775 -18.857511 
L 38.653429 -18.862997 
L 38.722007 -18.868482 
L 38.777117 -18.873968 
L 38.818126 -18.879454 
L 38.845118 -18.88494 
L 38.858827 -18.890426 
L 38.860542 -18.895912 
L 38.851996 -18.901398 
L 38.835241 -18.906884 
L 38.812529 -18.91237 
L 38.786192 -18.917856 
L 38.758535 -18.923342 
L 38.73174 -18.928828 
L 38.707784 -18.934314 
L 38.68838 -18.9398 
L 38.674917 -18.945286 
L 38.668418 -18.950772 
L 38.669508 -18.956258 
L 38.678385 -18.961743 
L 38.694785 -18.967229 
L 38.717972 -18.972715 
L 38.746708 -18.978201 
L 38.779248 -18.983687 
L 38.813336 -18.989173 
L 38.846219 -18.994659 
L 38.874678 -19.000145 
L 38.895088 -19.005631 
L 38.903496 -19.011117 
L 38.895742 -19.016603 
L 38.867595 -19.022089 
L 38.814925 -19.027575 
L 38.733897 -19.033061 
L 38.621176 -19.038547 
L 38.47414 -19.044033 
L 38.291084 -19.049519 
L 38.071417 -19.055005 
L 37.815811 -19.06049 
L 37.526326 -19.065976 
L 37.206464 -19.071462 
L 36.861179 -19.076948 
L 36.496803 -19.082434 
L 36.120916 -19.08792 
L 35.742139 -19.093406 
L 35.369875 -19.098892 
L 35.013985 -19.104378 
L 34.684443 -19.109864 
L 34.390959 -19.11535 
L 34.142597 -19.120836 
L 33.947422 -19.126322 
L 33.812168 -19.131808 
L 33.74197 -19.137294 
L 33.740156 -19.14278 
L 33.808122 -19.148266 
L 33.945292 -19.153752 
L 34.149157 -19.159237 
L 34.415411 -19.164723 
L 34.738145 -19.170209 
L 35.110115 -19.175695 
L 35.523053 -19.181181 
L 35.968005 -19.186667 
L 36.435682 -19.192153 
L 36.916803 -19.197639 
L 37.402408 -19.203125 
L 37.884143 -19.208611 
L 38.354488 -19.214097 
L 38.806931 -19.219583 
L 39.236082 -19.225069 
L 39.63773 -19.230555 
L 40.008842 -19.236041 
L 40.347521 -19.241527 
L 44.394661 -19.241527 
L 44.394661 -19.241527 
L 44.733339 -19.236041 
L 45.104452 -19.230555 
L 45.5061 -19.225069 
L 45.935251 -19.219583 
L 46.387693 -19.214097 
L 46.858039 -19.208611 
L 47.339774 -19.203125 
L 47.825379 -19.197639 
L 48.3065 -19.192153 
L 48.774177 -19.186667 
L 49.219129 -19.181181 
L 49.632067 -19.175695 
L 50.004037 -19.170209 
L 50.326771 -19.164723 
L 50.593024 -19.159237 
L 50.79689 -19.153752 
L 50.93406 -19.148266 
L 51.002026 -19.14278 
L 51.000212 -19.137294 
L 50.930014 -19.131808 
L 50.79476 -19.126322 
L 50.599585 -19.120836 
L 50.351223 -19.11535 
L 50.057739 -19.109864 
L 49.728197 -19.104378 
L 49.372307 -19.098892 
L 49.000042 -19.093406 
L 48.621266 -19.08792 
L 48.245379 -19.082434 
L 47.881003 -19.076948 
L 47.535718 -19.071462 
L 47.215856 -19.065976 
L 46.926371 -19.06049 
L 46.670765 -19.055005 
L 46.451098 -19.049519 
L 46.268042 -19.044033 
L 46.121005 -19.038547 
L 46.008284 -19.033061 
L 45.927257 -19.027575 
L 45.874587 -19.022089 
L 45.84644 -19.016603 
L 45.838686 -19.011117 
L 45.847094 -19.005631 
L 45.867503 -19.000145 
L 45.895963 -18.994659 
L 45.928846 -18.989173 
L 45.962934 -18.983687 
L 45.995474 -18.978201 
L 46.02421 -18.972715 
L 46.047397 -18.967229 
L 46.063797 -18.961743 
L 46.072673 -18.956258 
L 46.073764 -18.950772 
L 46.067265 -18.945286 
L 46.053801 -18.9398 
L 46.034397 -18.934314 
L 46.010442 -18.928828 
L 45.983646 -18.923342 
L 45.955989 -18.917856 
L 45.929653 -18.91237 
L 45.906941 -18.906884 
L 45.890186 -18.901398 
L 45.88164 -18.895912 
L 45.883355 -18.890426 
L 45.897064 -18.88494 
L 45.924056 -18.879454 
L 45.965064 -18.873968 
L 46.020175 -18.868482 
L 46.088753 -18.862997 
L 46.169407 -18.857511 
L 46.259991 -18.852025 
L 46.357646 -18.846539 
L 46.458878 -18.841053 
L 46.559687 -18.835567 
L 46.655716 -18.830081 
L 46.742435 -18.824595 
L 46.815337 -18.819109 
L 46.870145 -18.813623 
L 46.903001 -18.808137 
L 46.910652 -18.802651 
L 46.890595 -18.797165 
L 46.841193 -18.791679 
L 46.761744 -18.786193 
L 46.652508 -18.780707 
L 46.514684 -18.775221 
L 46.350344 -18.769735 
L 46.162328 -18.76425 
L 45.954108 -18.758764 
L 45.72963 -18.753278 
L 45.493142 -18.747792 
L 45.249016 -18.742306 
L 45.001586 -18.73682 
L 44.754986 -18.731334 
L 44.513026 -18.725848 
L 44.279079 -18.720362 
L 44.056011 -18.714876 
L 43.846128 -18.70939 
L 43.651163 -18.703904 
L 43.472281 -18.698418 
z
" style="stroke: #6f6f6f; stroke-width: 0.15"/>
    </defs>
    <g clip-path="url(#ped6b0166c7)">
     <use xlink:href="#mf3a7658f5e" x="0" y="84.96" style="fill: #d3c4f6; stroke: #6f6f6f; stroke-width: 0.15"/>
    </g>
   </g>
   <g id="line2d_8">
    <path d="M 20.793753 66.168103 
L 20.793753 63.537105 
" clip-path="url(#ped6b0166c7)" style="fill: none; stroke: #8c8c8c; stroke-width: 0.75; stroke-linecap: round"/>
   </g>
   <g id="line2d_9">
    <path d="M 20.793753 65.54881 
L 20.793753 64.68041 
" clip-path="url(#ped6b0166c7)" style="fill: none; stroke: #8c8c8c; stroke-width: 4; stroke-linecap: round"/>
   </g>
   <g id="line2d_10">
    <path d="M 20.793753 65.321333 
" clip-path="url(#ped6b0166c7)" style="fill: none; stroke: #6f6f6f; stroke-width: 1.2; stroke-linecap: round"/>
    <defs>
     <path id="m259c54bc10" d="M 0 0.833333 
C 0.221003 0.833333 0.432983 0.745528 0.589256 0.589256 
C 0.745528 0.432983 0.833333 0.221003 0.833333 0 
C 0.833333 -0.221003 0.745528 -0.432983 0.589256 -0.589256 
C 0.432983 -0.745528 0.221003 -0.833333 0 -0.833333 
C -0.221003 -0.833333 -0.432983 -0.745528 -0.589256 -0.589256 
C -0.745528 -0.432983 -0.833333 -0.221003 -0.833333 0 
C -0.833333 0.221003 -0.745528 0.432983 -0.589256 0.589256 
C -0.432983 0.745528 -0.221003 0.833333 0 0.833333 
z
" style="stroke: #ffffff; stroke-width: 0.8"/>
    </defs>
    <g clip-path="url(#ped6b0166c7)">
     <use xlink:href="#m259c54bc10" x="20.793753" y="65.321333" style="fill: #ffffff; stroke: #ffffff; stroke-width: 0.8"/>
    </g>
   </g>
   <g id="line2d_11">
    <path d="M 42.371091 66.179263 
L 42.371091 65.800792 
" clip-path="url(#ped6b0166c7)" style="fill: none; stroke: #8c8c8c; stroke-width: 0.75; stroke-linecap: round"/>
   </g>
   <g id="line2d_12">
    <path d="M 42.371091 66.068362 
L 42.371091 65.819622 
" clip-path="url(#ped6b0166c7)" style="fill: none; stroke: #8c8c8c; stroke-width: 4; stroke-linecap: round"/>
   </g>
   <g id="line2d_13">
    <path d="M 42.371091 65.903042 
" clip-path="url(#ped6b0166c7)" style="fill: none; stroke: #6f6f6f; stroke-width: 1.2; stroke-linecap: round"/>
    <g clip-path="url(#ped6b0166c7)">
     <use xlink:href="#m259c54bc10" x="42.371091" y="65.903042" style="fill: #ffffff; stroke: #ffffff; stroke-width: 0.8"/>
    </g>
   </g>
   <g id="patch_3">
    <path d="M 10.005084 74.419526 
L 10.005084 4.076256 
" style="fill: none; stroke: #777777; stroke-width: 0.5; stroke-linejoin: miter; stroke-linecap: square"/>
   </g>
   <g id="patch_4">
    <path d="M 10.005084 76.919526 
L 53.15976 76.919526 
" style="fill: none; stroke: #777777; stroke-width: 0.5; stroke-linejoin: miter; stroke-linecap: square"/>
   </g>
  </g>
 </g>
 <defs>
  <clipPath id="ped6b0166c7">
   <rect x="10.005084" y="4.076256" width="43.154676" height="70.34327"/>
  </clipPath>
 </defs>
</svg>
