<?xml version="1.0" encoding="utf-8" standalone="no"?>
<!DOCTYPE svg PUBLIC "-//W3C//DTD SVG 1.1//EN"
  "http://www.w3.org/Graphics/SVG/1.1/DTD/svg11.dtd">
<svg xmlns:xlink="http://www.w3.org/1999/xlink" width="56.16pt" height="84.96pt" viewBox="0 0 56.16 84.96" xmlns="http://www.w3.org/2000/svg" version="1.1">
 <metadata>
  <rdf:RDF xmlns:dc="http://purl.org/dc/elements/1.1/" xmlns:cc="http://creativecommons.org/ns#" xmlns:rdf="http://www.w3.org/1999/02/22-rdf-syntax-ns#">
   <cc:Work>
    <dc:type rdf:resource="http://purl.org/dc/dcmitype/StillImage"/>
    <dc:date>2024-05-27T15:37:04.463554</dc:date>
    <dc:format>image/svg+xml</dc:format>
    <dc:creator>
     <cc:Agent>
      <dc:title>Matplotlib v3.8.3, https://matplotlib.org/</dc:title>
     </cc:Agent>
    </dc:creator>
   </cc:Work>
  </rdf:RDF>
 </metadata>
 <defs>
  <style type="text/css">*{stroke-linejoin: round; stroke-linecap: butt}</style>
 </defs>
 <g id="figure_1">
  <g id="patch_1">
   <path d="M 0 84.96 
L 56.16 84.96 
L 56.16 0 
L 0 0 
z
" style="fill: #ffffff"/>
  </g>
  <g id="axes_1">
   <g id="patch_2">
    <path d="M 8.336802 74.419526 
L 53.15976 74.419526 
L 53.15976 4.076256 
L 8.336802 4.076256 
z
" style="fill: #ffffff"/>
   </g>
   <g id="matplotlib.axis_1">
    <g id="xtick_1">
     <g id="text_1">
      <!-- ILC2 -->
      <g style="fill: #333333" transform="translate(15.846214 81.230229) scale(0.035 -0.035)">
       <defs>
        <path id="Helvetica-49" d="M 628 4591 
L 1256 4591 
L 1256 0 
L 628 0 
L 628 4591 
z
" transform="scale(0.015625)"/>
        <path id="Helvetica-4c" d="M 488 4591 
L 1109 4591 
L 1109 547 
L 3434 547 
L 3434 0 
L 488 0 
L 488 4591 
z
" transform="scale(0.015625)"/>
        <path id="Helvetica-43" d="M 2422 4716 
Q 3294 4716 3775 4256 
Q 4256 3797 4309 3213 
L 3703 3213 
Q 3600 3656 3292 3915 
Q 2984 4175 2428 4175 
Q 1750 4175 1333 3698 
Q 916 3222 916 2238 
Q 916 1431 1292 929 
Q 1669 428 2416 428 
Q 3103 428 3463 956 
Q 3653 1234 3747 1688 
L 4353 1688 
Q 4272 963 3816 472 
Q 3269 -119 2341 -119 
Q 1541 -119 997 366 
Q 281 1006 281 2344 
Q 281 3359 819 4009 
Q 1400 4716 2422 4716 
z
M 2297 4716 
L 2297 4716 
z
" transform="scale(0.015625)"/>
        <path id="Helvetica-32" d="M 200 0 
Q 231 578 439 1006 
Q 647 1434 1250 1784 
L 1850 2131 
Q 2253 2366 2416 2531 
Q 2672 2791 2672 3125 
Q 2672 3516 2437 3745 
Q 2203 3975 1813 3975 
Q 1234 3975 1013 3538 
Q 894 3303 881 2888 
L 309 2888 
Q 319 3472 525 3841 
Q 891 4491 1816 4491 
Q 2584 4491 2939 4075 
Q 3294 3659 3294 3150 
Q 3294 2613 2916 2231 
Q 2697 2009 2131 1694 
L 1703 1456 
Q 1397 1288 1222 1134 
Q 909 863 828 531 
L 3272 531 
L 3272 0 
L 200 0 
z
" transform="scale(0.015625)"/>
       </defs>
       <use xlink:href="#Helvetica-49"/>
       <use xlink:href="#Helvetica-4c" x="27.783203"/>
       <use xlink:href="#Helvetica-43" x="83.398438"/>
       <use xlink:href="#Helvetica-32" x="155.615234"/>
      </g>
     </g>
    </g>
    <g id="xtick_2">
     <g id="text_2">
      <!-- TH2 -->
      <g style="fill: #333333" transform="translate(38.648161 81.230229) scale(0.035 -0.035)">
       <defs>
        <path id="Helvetica-54" d="M 3828 4591 
L 3828 4044 
L 2281 4044 
L 2281 0 
L 1650 0 
L 1650 4044 
L 103 4044 
L 103 4591 
L 3828 4591 
z
" transform="scale(0.015625)"/>
        <path id="Helvetica-48" d="M 503 4591 
L 1131 4591 
L 1131 2694 
L 3519 2694 
L 3519 4591 
L 4147 4591 
L 4147 0 
L 3519 0 
L 3519 2147 
L 1131 2147 
L 1131 0 
L 503 0 
L 503 4591 
z
" transform="scale(0.015625)"/>
       </defs>
       <use xlink:href="#Helvetica-54"/>
       <use xlink:href="#Helvetica-48" x="61.083984"/>
       <use xlink:href="#Helvetica-32" x="133.300781"/>
      </g>
     </g>
    </g>
   </g>
   <g id="matplotlib.axis_2">
    <g id="ytick_1">
     <g id="line2d_1">
      <defs>
       <path id="ma75585ae66" d="M 0 0 
L -1 0 
" style="stroke: #777777; stroke-width: 0.5"/>
      </defs>
      <g>
       <use xlink:href="#ma75585ae66" x="8.336802" y="66.995102" style="fill: #777777; stroke: #777777; stroke-width: 0.5"/>
      </g>
     </g>
     <g id="text_3">
      <!-- 0 -->
      <g style="fill: #333333" transform="translate(4.668521 68.071117) scale(0.03 -0.03)">
       <defs>
        <path id="Helvetica-30" d="M 1731 4475 
Q 2600 4475 2988 3759 
Q 3288 3206 3288 2244 
Q 3288 1331 3016 734 
Q 2622 -122 1728 -122 
Q 922 -122 528 578 
Q 200 1163 200 2147 
Q 200 2909 397 3456 
Q 766 4475 1731 4475 
z
M 1725 391 
Q 2163 391 2422 778 
Q 2681 1166 2681 2222 
Q 2681 2984 2493 3476 
Q 2306 3969 1766 3969 
Q 1269 3969 1039 3501 
Q 809 3034 809 2125 
Q 809 1441 956 1025 
Q 1181 391 1725 391 
z
" transform="scale(0.015625)"/>
       </defs>
       <use xlink:href="#Helvetica-30"/>
      </g>
     </g>
    </g>
    <g id="ytick_2">
     <g id="line2d_2">
      <g>
       <use xlink:href="#ma75585ae66" x="8.336802" y="54.411333" style="fill: #777777; stroke: #777777; stroke-width: 0.5"/>
      </g>
     </g>
     <g id="text_4">
      <!-- 10 -->
      <g style="fill: #333333" transform="translate(3.00024 55.487348) scale(0.03 -0.03)">
       <defs>
        <path id="Helvetica-31" d="M 613 3169 
L 613 3600 
Q 1222 3659 1462 3798 
Q 1703 3938 1822 4456 
L 2266 4456 
L 2266 0 
L 1666 0 
L 1666 3169 
L 613 3169 
z
" transform="scale(0.015625)"/>
       </defs>
       <use xlink:href="#Helvetica-31"/>
       <use xlink:href="#Helvetica-30" x="55.615234"/>
      </g>
     </g>
    </g>
    <g id="ytick_3">
     <g id="line2d_3">
      <g>
       <use xlink:href="#ma75585ae66" x="8.336802" y="41.827563" style="fill: #777777; stroke: #777777; stroke-width: 0.5"/>
      </g>
     </g>
     <g id="text_5">
      <!-- 20 -->
      <g style="fill: #333333" transform="translate(3.00024 42.903579) scale(0.03 -0.03)">
       <use xlink:href="#Helvetica-32"/>
       <use xlink:href="#Helvetica-30" x="55.615234"/>
      </g>
     </g>
    </g>
    <g id="ytick_4">
     <g id="line2d_4">
      <g>
       <use xlink:href="#ma75585ae66" x="8.336802" y="29.243794" style="fill: #777777; stroke: #777777; stroke-width: 0.5"/>
      </g>
     </g>
     <g id="text_6">
      <!-- 30 -->
      <g style="fill: #333333" transform="translate(3.00024 30.31981) scale(0.03 -0.03)">
       <defs>
        <path id="Helvetica-33" d="M 1663 -122 
Q 869 -122 511 314 
Q 153 750 153 1375 
L 741 1375 
Q 778 941 903 744 
Q 1122 391 1694 391 
Q 2138 391 2406 628 
Q 2675 866 2675 1241 
Q 2675 1703 2392 1887 
Q 2109 2072 1606 2072 
Q 1550 2072 1492 2070 
Q 1434 2069 1375 2066 
L 1375 2563 
Q 1463 2553 1522 2550 
Q 1581 2547 1650 2547 
Q 1966 2547 2169 2647 
Q 2525 2822 2525 3272 
Q 2525 3606 2287 3787 
Q 2050 3969 1734 3969 
Q 1172 3969 956 3594 
Q 838 3388 822 3006 
L 266 3006 
Q 266 3506 466 3856 
Q 809 4481 1675 4481 
Q 2359 4481 2734 4176 
Q 3109 3872 3109 3294 
Q 3109 2881 2888 2625 
Q 2750 2466 2531 2375 
Q 2884 2278 3082 2001 
Q 3281 1725 3281 1325 
Q 3281 684 2859 281 
Q 2438 -122 1663 -122 
z
" transform="scale(0.015625)"/>
       </defs>
       <use xlink:href="#Helvetica-33"/>
       <use xlink:href="#Helvetica-30" x="55.615234"/>
      </g>
     </g>
    </g>
    <g id="ytick_5">
     <g id="line2d_5">
      <g>
       <use xlink:href="#ma75585ae66" x="8.336802" y="16.660025" style="fill: #777777; stroke: #777777; stroke-width: 0.5"/>
      </g>
     </g>
     <g id="text_7">
      <!-- 40 -->
      <g style="fill: #333333" transform="translate(3.00024 17.73604) scale(0.03 -0.03)">
       <defs>
        <path id="Helvetica-34" d="M 2116 1584 
L 2116 3613 
L 681 1584 
L 2116 1584 
z
M 2125 0 
L 2125 1094 
L 163 1094 
L 163 1644 
L 2213 4488 
L 2688 4488 
L 2688 1584 
L 3347 1584 
L 3347 1094 
L 2688 1094 
L 2688 0 
L 2125 0 
z
" transform="scale(0.015625)"/>
       </defs>
       <use xlink:href="#Helvetica-34"/>
       <use xlink:href="#Helvetica-30" x="55.615234"/>
      </g>
     </g>
    </g>
    <g id="ytick_6">
     <g id="line2d_6">
      <g>
       <use xlink:href="#ma75585ae66" x="8.336802" y="4.076256" style="fill: #777777; stroke: #777777; stroke-width: 0.5"/>
      </g>
     </g>
     <g id="text_8">
      <!-- 50 -->
      <g style="fill: #333333" transform="translate(3.00024 5.152271) scale(0.03 -0.03)">
       <defs>
        <path id="Helvetica-35" d="M 791 1141 
Q 847 659 1238 475 
Q 1438 381 1700 381 
Q 2200 381 2440 700 
Q 2681 1019 2681 1406 
Q 2681 1875 2395 2131 
Q 2109 2388 1709 2388 
Q 1419 2388 1211 2275 
Q 1003 2163 856 1963 
L 369 1991 
L 709 4400 
L 3034 4400 
L 3034 3856 
L 1131 3856 
L 941 2613 
Q 1097 2731 1238 2791 
Q 1488 2894 1816 2894 
Q 2431 2894 2859 2497 
Q 3288 2100 3288 1491 
Q 3288 856 2895 371 
Q 2503 -113 1644 -113 
Q 1097 -113 676 195 
Q 256 503 206 1141 
L 791 1141 
z
" transform="scale(0.015625)"/>
       </defs>
       <use xlink:href="#Helvetica-35"/>
       <use xlink:href="#Helvetica-30" x="55.615234"/>
      </g>
     </g>
    </g>
   </g>
   <g id="PolyCollection_1">
    <defs>
     <path id="m5f4bd7da3d" d="M 21.609795 -17.923898 
L 17.475288 -17.923898 
L 17.111481 -17.944302 
L 16.711334 -17.964707 
L 16.277175 -17.985112 
L 15.81272 -18.005516 
L 15.323114 -18.025921 
L 14.814908 -18.046326 
L 14.295954 -18.06673 
L 13.775228 -18.087135 
L 13.262563 -18.107539 
L 12.768324 -18.127944 
L 12.303021 -18.148349 
L 11.876888 -18.168753 
L 11.499449 -18.189158 
L 11.1791 -18.209562 
L 10.922733 -18.229967 
L 10.735421 -18.250372 
L 10.620201 -18.270776 
L 10.57795 -18.291181 
L 10.607387 -18.311586 
L 10.705175 -18.33199 
L 10.866139 -18.352395 
L 11.083567 -18.372799 
L 11.349584 -18.393204 
L 11.655562 -18.413609 
L 11.992547 -18.434013 
L 12.351662 -18.454418 
L 12.724473 -18.474823 
L 13.103283 -18.495227 
L 13.481357 -18.515632 
L 13.853037 -18.536036 
L 14.213789 -18.556441 
L 14.560156 -18.576846 
L 14.889635 -18.59725 
L 15.200518 -18.617655 
L 15.491679 -18.638059 
L 15.762371 -18.658464 
L 16.012016 -18.678869 
L 16.240033 -18.699273 
L 16.4457 -18.719678 
L 16.628076 -18.740083 
L 16.785974 -18.760487 
L 16.917991 -18.780892 
L 17.022593 -18.801296 
L 17.098237 -18.821701 
L 17.143535 -18.842106 
L 17.157422 -18.86251 
L 17.139341 -18.882915 
L 17.089402 -18.90332 
L 17.008527 -18.923724 
L 16.898548 -18.944129 
L 16.762263 -18.964533 
L 16.603425 -18.984938 
L 16.426688 -19.005343 
L 16.237475 -19.025747 
L 16.041808 -19.046152 
L 15.846077 -19.066556 
L 15.656781 -19.086961 
L 15.480247 -19.107366 
L 15.322344 -19.12777 
L 15.188205 -19.148175 
L 15.081993 -19.16858 
L 15.006703 -19.188984 
L 14.964028 -19.209389 
L 14.954303 -19.229793 
L 14.976515 -19.250198 
L 15.0284 -19.270603 
L 15.106605 -19.291007 
L 15.206909 -19.311412 
L 15.324498 -19.331817 
L 15.454259 -19.352221 
L 15.591086 -19.372626 
L 15.730175 -19.39303 
L 15.867279 -19.413435 
L 15.998924 -19.43384 
L 16.122562 -19.454244 
L 16.236647 -19.474649 
L 16.340652 -19.495054 
L 16.43501 -19.515458 
L 16.520996 -19.535863 
L 16.600557 -19.556267 
L 16.676113 -19.576672 
L 16.750336 -19.597077 
L 16.825926 -19.617481 
L 16.905407 -19.637886 
L 16.990941 -19.65829 
L 17.084193 -19.678695 
L 17.186232 -19.6991 
L 17.297484 -19.719504 
L 17.417732 -19.739909 
L 17.54616 -19.760314 
L 17.681436 -19.780718 
L 17.821815 -19.801123 
L 17.965268 -19.821527 
L 18.109612 -19.841932 
L 18.252638 -19.862337 
L 18.392229 -19.882741 
L 18.526461 -19.903146 
L 18.653677 -19.923551 
L 18.772542 -19.943955 
L 20.312542 -19.943955 
L 20.312542 -19.943955 
L 20.431407 -19.923551 
L 20.558623 -19.903146 
L 20.692855 -19.882741 
L 20.832446 -19.862337 
L 20.975472 -19.841932 
L 21.119816 -19.821527 
L 21.263269 -19.801123 
L 21.403648 -19.780718 
L 21.538924 -19.760314 
L 21.667352 -19.739909 
L 21.7876 -19.719504 
L 21.898852 -19.6991 
L 22.000891 -19.678695 
L 22.094143 -19.65829 
L 22.179677 -19.637886 
L 22.259157 -19.617481 
L 22.334748 -19.597077 
L 22.408971 -19.576672 
L 22.484527 -19.556267 
L 22.564088 -19.535863 
L 22.650074 -19.515458 
L 22.744432 -19.495054 
L 22.848437 -19.474649 
L 22.962522 -19.454244 
L 23.086159 -19.43384 
L 23.217805 -19.413435 
L 23.354909 -19.39303 
L 23.493997 -19.372626 
L 23.630825 -19.352221 
L 23.760586 -19.331817 
L 23.878175 -19.311412 
L 23.978479 -19.291007 
L 24.056683 -19.270603 
L 24.108569 -19.250198 
L 24.130781 -19.229793 
L 24.121056 -19.209389 
L 24.078381 -19.188984 
L 24.003091 -19.16858 
L 23.896879 -19.148175 
L 23.76274 -19.12777 
L 23.604836 -19.107366 
L 23.428303 -19.086961 
L 23.239007 -19.066556 
L 23.043276 -19.046152 
L 22.847608 -19.025747 
L 22.658396 -19.005343 
L 22.481659 -18.984938 
L 22.322821 -18.964533 
L 22.186536 -18.944129 
L 22.076557 -18.923724 
L 21.995682 -18.90332 
L 21.945743 -18.882915 
L 21.927661 -18.86251 
L 21.941549 -18.842106 
L 21.986847 -18.821701 
L 22.062491 -18.801296 
L 22.167092 -18.780892 
L 22.299109 -18.760487 
L 22.457007 -18.740083 
L 22.639384 -18.719678 
L 22.845051 -18.699273 
L 23.073067 -18.678869 
L 23.322713 -18.658464 
L 23.593405 -18.638059 
L 23.884566 -18.617655 
L 24.195448 -18.59725 
L 24.524928 -18.576846 
L 24.871294 -18.556441 
L 25.232047 -18.536036 
L 25.603727 -18.515632 
L 25.9818 -18.495227 
L 26.360611 -18.474823 
L 26.733422 -18.454418 
L 27.092536 -18.434013 
L 27.429521 -18.413609 
L 27.7355 -18.393204 
L 28.001517 -18.372799 
L 28.218945 -18.352395 
L 28.379909 -18.33199 
L 28.477697 -18.311586 
L 28.507133 -18.291181 
L 28.464883 -18.270776 
L 28.349662 -18.250372 
L 28.162351 -18.229967 
L 27.905984 -18.209562 
L 27.585635 -18.189158 
L 27.208196 -18.168753 
L 26.782063 -18.148349 
L 26.31676 -18.127944 
L 25.822521 -18.107539 
L 25.309856 -18.087135 
L 24.789129 -18.06673 
L 24.270176 -18.046326 
L 23.76197 -18.025921 
L 23.272364 -18.005516 
L 22.807909 -17.985112 
L 22.37375 -17.964707 
L 21.973603 -17.944302 
L 21.609795 -17.923898 
z
" style="stroke: #717171; stroke-width: 0.15"/>
    </defs>
    <g clip-path="url(#p780f58b9bb)">
     <use xlink:href="#m5f4bd7da3d" x="0" y="84.96" style="fill: #d6bba3; stroke: #717171; stroke-width: 0.15"/>
    </g>
   </g>
   <g id="PolyCollection_2">
    <defs>
     <path id="m7fef3b9a4b" d="M 43.249793 -17.48228 
L 40.658248 -17.48228 
L 40.4037 -17.619375 
L 40.118186 -17.75647 
L 39.802009 -17.893566 
L 39.456324 -18.030661 
L 39.083172 -18.167756 
L 38.685485 -18.304851 
L 38.267037 -18.441947 
L 37.832361 -18.579042 
L 37.386625 -18.716137 
L 36.935482 -18.853233 
L 36.484898 -18.990328 
L 36.040971 -19.127423 
L 35.609756 -19.264518 
L 35.197095 -19.401614 
L 34.808473 -19.538709 
L 34.448891 -19.675804 
L 34.122758 -19.8129 
L 33.83381 -19.949995 
L 33.585042 -20.08709 
L 33.378641 -20.224185 
L 33.215939 -20.361281 
L 33.097359 -20.498376 
L 33.022365 -20.635471 
L 32.989429 -20.772567 
L 32.996012 -20.909662 
L 33.038575 -21.046757 
L 33.112637 -21.183852 
L 33.212885 -21.320948 
L 33.333354 -21.458043 
L 33.467667 -21.595138 
L 33.609344 -21.732234 
L 33.752152 -21.869329 
L 33.890481 -22.006424 
L 34.019721 -22.143519 
L 34.136592 -22.280615 
L 34.239399 -22.41771 
L 34.328187 -22.554805 
L 34.404758 -22.691901 
L 34.472543 -22.828996 
L 34.536332 -22.966091 
L 34.601878 -23.103186 
L 34.675393 -23.240282 
L 34.762994 -23.377377 
L 34.870141 -23.514472 
L 35.001114 -23.651568 
L 35.158592 -23.788663 
L 35.343362 -23.925758 
L 35.554194 -24.062854 
L 35.787897 -24.199949 
L 36.039536 -24.337044 
L 36.302817 -24.474139 
L 36.570572 -24.611235 
L 36.835316 -24.74833 
L 37.089827 -24.885425 
L 37.327677 -25.022521 
L 37.54369 -25.159616 
L 37.734264 -25.296711 
L 37.897559 -25.433806 
L 38.033514 -25.570902 
L 38.143713 -25.707997 
L 38.231118 -25.845092 
L 38.299694 -25.982188 
L 38.35397 -26.119283 
L 38.398581 -26.256378 
L 38.437827 -26.393473 
L 38.475303 -26.530569 
L 38.51362 -26.667664 
L 38.554246 -26.804759 
L 38.597473 -26.941855 
L 38.642516 -27.07895 
L 38.687717 -27.216045 
L 38.730844 -27.35314 
L 38.769436 -27.490236 
L 38.801172 -27.627331 
L 38.824222 -27.764426 
L 38.837538 -27.901522 
L 38.841067 -28.038617 
L 38.835861 -28.175712 
L 38.824076 -28.312807 
L 38.808856 -28.449903 
L 38.794129 -28.586998 
L 38.784313 -28.724093 
L 38.783987 -28.861189 
L 38.797535 -28.998284 
L 38.828805 -29.135379 
L 38.880826 -29.272474 
L 38.955572 -29.40957 
L 39.053835 -29.546665 
L 39.175174 -29.68376 
L 39.317968 -29.820856 
L 39.479546 -29.957951 
L 39.656393 -30.095046 
L 39.84439 -30.232141 
L 40.039091 -30.369237 
L 40.235988 -30.506332 
L 40.430766 -30.643427 
L 40.619515 -30.780523 
L 40.798887 -30.917618 
L 40.966211 -31.054713 
L 42.94183 -31.054713 
L 42.94183 -31.054713 
L 43.109154 -30.917618 
L 43.288527 -30.780523 
L 43.477275 -30.643427 
L 43.672054 -30.506332 
L 43.868951 -30.369237 
L 44.063651 -30.232141 
L 44.251648 -30.095046 
L 44.428495 -29.957951 
L 44.590074 -29.820856 
L 44.732867 -29.68376 
L 44.854206 -29.546665 
L 44.952469 -29.40957 
L 45.027216 -29.272474 
L 45.079236 -29.135379 
L 45.110507 -28.998284 
L 45.124054 -28.861189 
L 45.123728 -28.724093 
L 45.113912 -28.586998 
L 45.099185 -28.449903 
L 45.083965 -28.312807 
L 45.07218 -28.175712 
L 45.066974 -28.038617 
L 45.070503 -27.901522 
L 45.083819 -27.764426 
L 45.106869 -27.627331 
L 45.138605 -27.490236 
L 45.177197 -27.35314 
L 45.220324 -27.216045 
L 45.265525 -27.07895 
L 45.310568 -26.941855 
L 45.353795 -26.804759 
L 45.394421 -26.667664 
L 45.432739 -26.530569 
L 45.470215 -26.393473 
L 45.509461 -26.256378 
L 45.554071 -26.119283 
L 45.608347 -25.982188 
L 45.676923 -25.845092 
L 45.764328 -25.707997 
L 45.874527 -25.570902 
L 46.010482 -25.433806 
L 46.173777 -25.296711 
L 46.364352 -25.159616 
L 46.580364 -25.022521 
L 46.818214 -24.885425 
L 47.072725 -24.74833 
L 47.33747 -24.611235 
L 47.605224 -24.474139 
L 47.868505 -24.337044 
L 48.120145 -24.199949 
L 48.353847 -24.062854 
L 48.564679 -23.925758 
L 48.749449 -23.788663 
L 48.906927 -23.651568 
L 49.0379 -23.514472 
L 49.145047 -23.377377 
L 49.232648 -23.240282 
L 49.306163 -23.103186 
L 49.371709 -22.966091 
L 49.435499 -22.828996 
L 49.503283 -22.691901 
L 49.579854 -22.554805 
L 49.668642 -22.41771 
L 49.771449 -22.280615 
L 49.88832 -22.143519 
L 50.01756 -22.006424 
L 50.15589 -21.869329 
L 50.298697 -21.732234 
L 50.440374 -21.595138 
L 50.574688 -21.458043 
L 50.695156 -21.320948 
L 50.795404 -21.183852 
L 50.869466 -21.046757 
L 50.912029 -20.909662 
L 50.918612 -20.772567 
L 50.885676 -20.635471 
L 50.810682 -20.498376 
L 50.692102 -20.361281 
L 50.5294 -20.224185 
L 50.323 -20.08709 
L 50.074231 -19.949995 
L 49.785283 -19.8129 
L 49.45915 -19.675804 
L 49.099568 -19.538709 
L 48.710946 -19.401614 
L 48.298286 -19.264518 
L 47.86707 -19.127423 
L 47.423143 -18.990328 
L 46.972559 -18.853233 
L 46.521416 -18.716137 
L 46.075681 -18.579042 
L 45.641004 -18.441947 
L 45.222556 -18.304851 
L 44.824869 -18.167756 
L 44.451718 -18.030661 
L 44.106032 -17.893566 
L 43.789856 -17.75647 
L 43.504341 -17.619375 
L 43.249793 -17.48228 
z
" style="stroke: #717171; stroke-width: 0.15"/>
    </defs>
    <g clip-path="url(#p780f58b9bb)">
     <use xlink:href="#m7fef3b9a4b" x="0" y="84.96" style="fill: #f1b9e0; stroke: #717171; stroke-width: 0.15"/>
    </g>
   </g>
   <g id="line2d_7">
    <path d="M 19.542542 66.743845 
L 19.542542 65.308302 
" clip-path="url(#p780f58b9bb)" style="fill: none; stroke: #8c8c8c; stroke-width: 0.75; stroke-linecap: round"/>
   </g>
   <g id="line2d_8">
    <path d="M 19.542542 66.681008 
L 19.542542 65.765472 
" clip-path="url(#p780f58b9bb)" style="fill: none; stroke: #8c8c8c; stroke-width: 4; stroke-linecap: round"/>
   </g>
   <g id="line2d_9">
    <path d="M 19.542542 66.470163 
" clip-path="url(#p780f58b9bb)" style="fill: none; stroke: #717171; stroke-width: 1.2; stroke-linecap: round"/>
    <defs>
     <path id="mf88b3aaee1" d="M 0 0.833333 
C 0.221003 0.833333 0.432983 0.745528 0.589256 0.589256 
C 0.745528 0.432983 0.833333 0.221003 0.833333 0 
C 0.833333 -0.221003 0.745528 -0.432983 0.589256 -0.589256 
C 0.432983 -0.745528 0.221003 -0.833333 0 -0.833333 
C -0.221003 -0.833333 -0.432983 -0.745528 -0.589256 -0.589256 
C -0.745528 -0.432983 -0.833333 -0.221003 -0.833333 0 
C -0.833333 0.221003 -0.745528 0.432983 -0.589256 0.589256 
C -0.432983 0.745528 -0.221003 0.833333 0 0.833333 
z
" style="stroke: #ffffff; stroke-width: 0.8"/>
    </defs>
    <g clip-path="url(#p780f58b9bb)">
     <use xlink:href="#mf88b3aaee1" x="19.542542" y="66.470163" style="fill: #ffffff; stroke: #ffffff; stroke-width: 0.8"/>
    </g>
   </g>
   <g id="line2d_10">
    <path d="M 41.954021 65.694453 
L 41.954021 55.688554 
" clip-path="url(#p780f58b9bb)" style="fill: none; stroke: #8c8c8c; stroke-width: 0.75; stroke-linecap: round"/>
   </g>
   <g id="line2d_11">
    <path d="M 41.954021 64.128822 
L 41.954021 60.483195 
" clip-path="url(#p780f58b9bb)" style="fill: none; stroke: #8c8c8c; stroke-width: 4; stroke-linecap: round"/>
   </g>
   <g id="line2d_12">
    <path d="M 41.954021 62.250234 
" clip-path="url(#p780f58b9bb)" style="fill: none; stroke: #717171; stroke-width: 1.2; stroke-linecap: round"/>
    <g clip-path="url(#p780f58b9bb)">
     <use xlink:href="#mf88b3aaee1" x="41.954021" y="62.250234" style="fill: #ffffff; stroke: #ffffff; stroke-width: 0.8"/>
    </g>
   </g>
   <g id="patch_3">
    <path d="M 8.336802 74.419526 
L 8.336802 4.076256 
" style="fill: none; stroke: #777777; stroke-width: 0.5; stroke-linejoin: miter; stroke-linecap: square"/>
   </g>
   <g id="patch_4">
    <path d="M 8.336802 76.919526 
L 53.15976 76.919526 
" style="fill: none; stroke: #777777; stroke-width: 0.5; stroke-linejoin: miter; stroke-linecap: square"/>
   </g>
  </g>
 </g>
 <defs>
  <clipPath id="p780f58b9bb">
   <rect x="8.336802" y="4.076256" width="44.822958" height="70.34327"/>
  </clipPath>
 </defs>
</svg>
