<?xml version="1.0" encoding="utf-8" standalone="no"?>
<!DOCTYPE svg PUBLIC "-//W3C//DTD SVG 1.1//EN"
  "http://www.w3.org/Graphics/SVG/1.1/DTD/svg11.dtd">
<svg xmlns:xlink="http://www.w3.org/1999/xlink" width="56.16pt" height="84.96pt" viewBox="0 0 56.16 84.96" xmlns="http://www.w3.org/2000/svg" version="1.1">
 <metadata>
  <rdf:RDF xmlns:dc="http://purl.org/dc/elements/1.1/" xmlns:cc="http://creativecommons.org/ns#" xmlns:rdf="http://www.w3.org/1999/02/22-rdf-syntax-ns#">
   <cc:Work>
    <dc:type rdf:resource="http://purl.org/dc/dcmitype/StillImage"/>
    <dc:date>2024-05-27T15:37:09.505917</dc:date>
    <dc:format>image/svg+xml</dc:format>
    <dc:creator>
     <cc:Agent>
      <dc:title>Matplotlib v3.8.3, https://matplotlib.org/</dc:title>
     </cc:Agent>
    </dc:creator>
   </cc:Work>
  </rdf:RDF>
 </metadata>
 <defs>
  <style type="text/css">*{stroke-linejoin: round; stroke-linecap: butt}</style>
 </defs>
 <g id="figure_1">
  <g id="patch_1">
   <path d="M 0 84.96 
L 56.16 84.96 
L 56.16 0 
L 0 0 
z
" style="fill: #ffffff"/>
  </g>
  <g id="axes_1">
   <g id="patch_2">
    <path d="M 11.673365 74.419526 
L 53.15976 74.419526 
L 53.15976 4.076256 
L 11.673365 4.076256 
z
" style="fill: #ffffff"/>
   </g>
   <g id="matplotlib.axis_1">
    <g id="xtick_1">
     <g id="text_1">
      <!-- ILC2 -->
      <g style="fill: #333333" transform="translate(18.348636 81.230229) scale(0.035 -0.035)">
       <defs>
        <path id="Helvetica-49" d="M 628 4591 
L 1256 4591 
L 1256 0 
L 628 0 
L 628 4591 
z
" transform="scale(0.015625)"/>
        <path id="Helvetica-4c" d="M 488 4591 
L 1109 4591 
L 1109 547 
L 3434 547 
L 3434 0 
L 488 0 
L 488 4591 
z
" transform="scale(0.015625)"/>
        <path id="Helvetica-43" d="M 2422 4716 
Q 3294 4716 3775 4256 
Q 4256 3797 4309 3213 
L 3703 3213 
Q 3600 3656 3292 3915 
Q 2984 4175 2428 4175 
Q 1750 4175 1333 3698 
Q 916 3222 916 2238 
Q 916 1431 1292 929 
Q 1669 428 2416 428 
Q 3103 428 3463 956 
Q 3653 1234 3747 1688 
L 4353 1688 
Q 4272 963 3816 472 
Q 3269 -119 2341 -119 
Q 1541 -119 997 366 
Q 281 1006 281 2344 
Q 281 3359 819 4009 
Q 1400 4716 2422 4716 
z
M 2297 4716 
L 2297 4716 
z
" transform="scale(0.015625)"/>
        <path id="Helvetica-32" d="M 200 0 
Q 231 578 439 1006 
Q 647 1434 1250 1784 
L 1850 2131 
Q 2253 2366 2416 2531 
Q 2672 2791 2672 3125 
Q 2672 3516 2437 3745 
Q 2203 3975 1813 3975 
Q 1234 3975 1013 3538 
Q 894 3303 881 2888 
L 309 2888 
Q 319 3472 525 3841 
Q 891 4491 1816 4491 
Q 2584 4491 2939 4075 
Q 3294 3659 3294 3150 
Q 3294 2613 2916 2231 
Q 2697 2009 2131 1694 
L 1703 1456 
Q 1397 1288 1222 1134 
Q 909 863 828 531 
L 3272 531 
L 3272 0 
L 200 0 
z
" transform="scale(0.015625)"/>
       </defs>
       <use xlink:href="#Helvetica-49"/>
       <use xlink:href="#Helvetica-4c" x="27.783203"/>
       <use xlink:href="#Helvetica-43" x="83.398438"/>
       <use xlink:href="#Helvetica-32" x="155.615234"/>
      </g>
     </g>
    </g>
    <g id="xtick_2">
     <g id="text_2">
      <!-- TH2 -->
      <g style="fill: #333333" transform="translate(39.482302 81.230229) scale(0.035 -0.035)">
       <defs>
        <path id="Helvetica-54" d="M 3828 4591 
L 3828 4044 
L 2281 4044 
L 2281 0 
L 1650 0 
L 1650 4044 
L 103 4044 
L 103 4591 
L 3828 4591 
z
" transform="scale(0.015625)"/>
        <path id="Helvetica-48" d="M 503 4591 
L 1131 4591 
L 1131 2694 
L 3519 2694 
L 3519 4591 
L 4147 4591 
L 4147 0 
L 3519 0 
L 3519 2147 
L 1131 2147 
L 1131 0 
L 503 0 
L 503 4591 
z
" transform="scale(0.015625)"/>
       </defs>
       <use xlink:href="#Helvetica-54"/>
       <use xlink:href="#Helvetica-48" x="61.083984"/>
       <use xlink:href="#Helvetica-32" x="133.300781"/>
      </g>
     </g>
    </g>
   </g>
   <g id="matplotlib.axis_2">
    <g id="ytick_1">
     <g id="line2d_1">
      <defs>
       <path id="m5fece0b018" d="M 0 0 
L -1 0 
" style="stroke: #777777; stroke-width: 0.5"/>
      </defs>
      <g>
       <use xlink:href="#m5fece0b018" x="11.673365" y="64.727463" style="fill: #777777; stroke: #777777; stroke-width: 0.5"/>
      </g>
     </g>
     <g id="text_3">
      <!-- 0 -->
      <g style="fill: #333333" transform="translate(8.005084 65.803478) scale(0.03 -0.03)">
       <defs>
        <path id="Helvetica-30" d="M 1731 4475 
Q 2600 4475 2988 3759 
Q 3288 3206 3288 2244 
Q 3288 1331 3016 734 
Q 2622 -122 1728 -122 
Q 922 -122 528 578 
Q 200 1163 200 2147 
Q 200 2909 397 3456 
Q 766 4475 1731 4475 
z
M 1725 391 
Q 2163 391 2422 778 
Q 2681 1166 2681 2222 
Q 2681 2984 2493 3476 
Q 2306 3969 1766 3969 
Q 1269 3969 1039 3501 
Q 809 3034 809 2125 
Q 809 1441 956 1025 
Q 1181 391 1725 391 
z
" transform="scale(0.015625)"/>
       </defs>
       <use xlink:href="#Helvetica-30"/>
      </g>
     </g>
    </g>
    <g id="ytick_2">
     <g id="line2d_2">
      <g>
       <use xlink:href="#m5fece0b018" x="11.673365" y="52.597221" style="fill: #777777; stroke: #777777; stroke-width: 0.5"/>
      </g>
     </g>
     <g id="text_4">
      <!-- 1000 -->
      <g style="fill: #333333" transform="translate(3.00024 53.673237) scale(0.03 -0.03)">
       <defs>
        <path id="Helvetica-31" d="M 613 3169 
L 613 3600 
Q 1222 3659 1462 3798 
Q 1703 3938 1822 4456 
L 2266 4456 
L 2266 0 
L 1666 0 
L 1666 3169 
L 613 3169 
z
" transform="scale(0.015625)"/>
       </defs>
       <use xlink:href="#Helvetica-31"/>
       <use xlink:href="#Helvetica-30" x="55.615234"/>
       <use xlink:href="#Helvetica-30" x="111.230469"/>
       <use xlink:href="#Helvetica-30" x="166.845703"/>
      </g>
     </g>
    </g>
    <g id="ytick_3">
     <g id="line2d_3">
      <g>
       <use xlink:href="#m5fece0b018" x="11.673365" y="40.46698" style="fill: #777777; stroke: #777777; stroke-width: 0.5"/>
      </g>
     </g>
     <g id="text_5">
      <!-- 2000 -->
      <g style="fill: #333333" transform="translate(3.00024 41.542996) scale(0.03 -0.03)">
       <use xlink:href="#Helvetica-32"/>
       <use xlink:href="#Helvetica-30" x="55.615234"/>
       <use xlink:href="#Helvetica-30" x="111.230469"/>
       <use xlink:href="#Helvetica-30" x="166.845703"/>
      </g>
     </g>
    </g>
    <g id="ytick_4">
     <g id="line2d_4">
      <g>
       <use xlink:href="#m5fece0b018" x="11.673365" y="28.336738" style="fill: #777777; stroke: #777777; stroke-width: 0.5"/>
      </g>
     </g>
     <g id="text_6">
      <!-- 3000 -->
      <g style="fill: #333333" transform="translate(3.00024 29.412754) scale(0.03 -0.03)">
       <defs>
        <path id="Helvetica-33" d="M 1663 -122 
Q 869 -122 511 314 
Q 153 750 153 1375 
L 741 1375 
Q 778 941 903 744 
Q 1122 391 1694 391 
Q 2138 391 2406 628 
Q 2675 866 2675 1241 
Q 2675 1703 2392 1887 
Q 2109 2072 1606 2072 
Q 1550 2072 1492 2070 
Q 1434 2069 1375 2066 
L 1375 2563 
Q 1463 2553 1522 2550 
Q 1581 2547 1650 2547 
Q 1966 2547 2169 2647 
Q 2525 2822 2525 3272 
Q 2525 3606 2287 3787 
Q 2050 3969 1734 3969 
Q 1172 3969 956 3594 
Q 838 3388 822 3006 
L 266 3006 
Q 266 3506 466 3856 
Q 809 4481 1675 4481 
Q 2359 4481 2734 4176 
Q 3109 3872 3109 3294 
Q 3109 2881 2888 2625 
Q 2750 2466 2531 2375 
Q 2884 2278 3082 2001 
Q 3281 1725 3281 1325 
Q 3281 684 2859 281 
Q 2438 -122 1663 -122 
z
" transform="scale(0.015625)"/>
       </defs>
       <use xlink:href="#Helvetica-33"/>
       <use xlink:href="#Helvetica-30" x="55.615234"/>
       <use xlink:href="#Helvetica-30" x="111.230469"/>
       <use xlink:href="#Helvetica-30" x="166.845703"/>
      </g>
     </g>
    </g>
    <g id="ytick_5">
     <g id="line2d_5">
      <g>
       <use xlink:href="#m5fece0b018" x="11.673365" y="16.206497" style="fill: #777777; stroke: #777777; stroke-width: 0.5"/>
      </g>
     </g>
     <g id="text_7">
      <!-- 4000 -->
      <g style="fill: #333333" transform="translate(3.00024 17.282513) scale(0.03 -0.03)">
       <defs>
        <path id="Helvetica-34" d="M 2116 1584 
L 2116 3613 
L 681 1584 
L 2116 1584 
z
M 2125 0 
L 2125 1094 
L 163 1094 
L 163 1644 
L 2213 4488 
L 2688 4488 
L 2688 1584 
L 3347 1584 
L 3347 1094 
L 2688 1094 
L 2688 0 
L 2125 0 
z
" transform="scale(0.015625)"/>
       </defs>
       <use xlink:href="#Helvetica-34"/>
       <use xlink:href="#Helvetica-30" x="55.615234"/>
       <use xlink:href="#Helvetica-30" x="111.230469"/>
       <use xlink:href="#Helvetica-30" x="166.845703"/>
      </g>
     </g>
    </g>
    <g id="ytick_6">
     <g id="line2d_6">
      <g>
       <use xlink:href="#m5fece0b018" x="11.673365" y="4.076256" style="fill: #777777; stroke: #777777; stroke-width: 0.5"/>
      </g>
     </g>
     <g id="text_8">
      <!-- 5000 -->
      <g style="fill: #333333" transform="translate(3.00024 5.152271) scale(0.03 -0.03)">
       <defs>
        <path id="Helvetica-35" d="M 791 1141 
Q 847 659 1238 475 
Q 1438 381 1700 381 
Q 2200 381 2440 700 
Q 2681 1019 2681 1406 
Q 2681 1875 2395 2131 
Q 2109 2388 1709 2388 
Q 1419 2388 1211 2275 
Q 1003 2163 856 1963 
L 369 1991 
L 709 4400 
L 3034 4400 
L 3034 3856 
L 1131 3856 
L 941 2613 
Q 1097 2731 1238 2791 
Q 1488 2894 1816 2894 
Q 2431 2894 2859 2497 
Q 3288 2100 3288 1491 
Q 3288 856 2895 371 
Q 2503 -113 1644 -113 
Q 1097 -113 676 195 
Q 256 503 206 1141 
L 791 1141 
z
" transform="scale(0.015625)"/>
       </defs>
       <use xlink:href="#Helvetica-35"/>
       <use xlink:href="#Helvetica-30" x="55.615234"/>
       <use xlink:href="#Helvetica-30" x="111.230469"/>
       <use xlink:href="#Helvetica-30" x="166.845703"/>
      </g>
     </g>
    </g>
   </g>
   <g id="PolyCollection_1">
    <defs>
     <path id="m62852070ac" d="M 24.067838 -20.083124 
L 20.02209 -20.083124 
L 19.647417 -20.096258 
L 19.234984 -20.109393 
L 18.788126 -20.122527 
L 18.311892 -20.135662 
L 17.813049 -20.148796 
L 17.299994 -20.16193 
L 16.782556 -20.175065 
L 16.271693 -20.188199 
L 15.7791 -20.201333 
L 15.316731 -20.214468 
L 14.896279 -20.227602 
L 14.528637 -20.240737 
L 14.223377 -20.253871 
L 13.98828 -20.267005 
L 13.828957 -20.28014 
L 13.748568 -20.293274 
L 13.747685 -20.306409 
L 13.824275 -20.319543 
L 13.973827 -20.332677 
L 14.189588 -20.345812 
L 14.462909 -20.358946 
L 14.783659 -20.37208 
L 15.140688 -20.385215 
L 15.522307 -20.398349 
L 15.916756 -20.411484 
L 16.312649 -20.424618 
L 16.69936 -20.437752 
L 17.067356 -20.450887 
L 17.408459 -20.464021 
L 17.716042 -20.477155 
L 17.985152 -20.49029 
L 18.212576 -20.503424 
L 18.396836 -20.516559 
L 18.538139 -20.529693 
L 18.638269 -20.542827 
L 18.700442 -20.555962 
L 18.729111 -20.569096 
L 18.729748 -20.582231 
L 18.708595 -20.595365 
L 18.672387 -20.608499 
L 18.628076 -20.621634 
L 18.582552 -20.634768 
L 18.542365 -20.647902 
L 18.513478 -20.661037 
L 18.501048 -20.674171 
L 18.509249 -20.687306 
L 18.541141 -20.70044 
L 18.598598 -20.713574 
L 18.682288 -20.726709 
L 18.791708 -20.739843 
L 18.925275 -20.752977 
L 19.080456 -20.766112 
L 19.253928 -20.779246 
L 19.441778 -20.792381 
L 19.63969 -20.805515 
L 19.843157 -20.818649 
L 20.04766 -20.831784 
L 20.24884 -20.844918 
L 20.442637 -20.858053 
L 20.625398 -20.871187 
L 20.793948 -20.884321 
L 20.945637 -20.897456 
L 21.078349 -20.91059 
L 21.190495 -20.923724 
L 21.280986 -20.936859 
L 21.349203 -20.949993 
L 21.394953 -20.963128 
L 21.418445 -20.976262 
L 21.420261 -20.989396 
L 21.401343 -21.002531 
L 21.362986 -21.015665 
L 21.306841 -21.028799 
L 21.234919 -21.041934 
L 21.149585 -21.055068 
L 21.053558 -21.068203 
L 20.949874 -21.081337 
L 20.841847 -21.094471 
L 20.732997 -21.107606 
L 20.626954 -21.12074 
L 20.527349 -21.133875 
L 20.437676 -21.147009 
L 20.361158 -21.160143 
L 20.300606 -21.173278 
L 20.258293 -21.186412 
L 20.235848 -21.199546 
L 20.23418 -21.212681 
L 20.253441 -21.225815 
L 20.293026 -21.23895 
L 20.351617 -21.252084 
L 20.427266 -21.265218 
L 20.517507 -21.278353 
L 20.619494 -21.291487 
L 20.730155 -21.304621 
L 20.846344 -21.317756 
L 20.964989 -21.33089 
L 21.083221 -21.344025 
L 21.198483 -21.357159 
L 21.308609 -21.370293 
L 21.411868 -21.383428 
L 22.67806 -21.383428 
L 22.67806 -21.383428 
L 22.781319 -21.370293 
L 22.891444 -21.357159 
L 23.006707 -21.344025 
L 23.124939 -21.33089 
L 23.243583 -21.317756 
L 23.359772 -21.304621 
L 23.470434 -21.291487 
L 23.572421 -21.278353 
L 23.662661 -21.265218 
L 23.73831 -21.252084 
L 23.796901 -21.23895 
L 23.836486 -21.225815 
L 23.855748 -21.212681 
L 23.85408 -21.199546 
L 23.831635 -21.186412 
L 23.789322 -21.173278 
L 23.72877 -21.160143 
L 23.652251 -21.147009 
L 23.562578 -21.133875 
L 23.462973 -21.12074 
L 23.356931 -21.107606 
L 23.248081 -21.094471 
L 23.140054 -21.081337 
L 23.03637 -21.068203 
L 22.940342 -21.055068 
L 22.855009 -21.041934 
L 22.783086 -21.028799 
L 22.726942 -21.015665 
L 22.688585 -21.002531 
L 22.669667 -20.989396 
L 22.671483 -20.976262 
L 22.694975 -20.963128 
L 22.740725 -20.949993 
L 22.808941 -20.936859 
L 22.899433 -20.923724 
L 23.011579 -20.91059 
L 23.144291 -20.897456 
L 23.29598 -20.884321 
L 23.46453 -20.871187 
L 23.64729 -20.858053 
L 23.841088 -20.844918 
L 24.042268 -20.831784 
L 24.246771 -20.818649 
L 24.450237 -20.805515 
L 24.64815 -20.792381 
L 24.835999 -20.779246 
L 25.009472 -20.766112 
L 25.164652 -20.752977 
L 25.29822 -20.739843 
L 25.40764 -20.726709 
L 25.491329 -20.713574 
L 25.548786 -20.70044 
L 25.580678 -20.687306 
L 25.588879 -20.674171 
L 25.576449 -20.661037 
L 25.547562 -20.647902 
L 25.507375 -20.634768 
L 25.461851 -20.621634 
L 25.417541 -20.608499 
L 25.381333 -20.595365 
L 25.360179 -20.582231 
L 25.360817 -20.569096 
L 25.389486 -20.555962 
L 25.451658 -20.542827 
L 25.551788 -20.529693 
L 25.693091 -20.516559 
L 25.877351 -20.503424 
L 26.104775 -20.49029 
L 26.373886 -20.477155 
L 26.681469 -20.464021 
L 27.022571 -20.450887 
L 27.390567 -20.437752 
L 27.777278 -20.424618 
L 28.173171 -20.411484 
L 28.567621 -20.398349 
L 28.949239 -20.385215 
L 29.306268 -20.37208 
L 29.627018 -20.358946 
L 29.900339 -20.345812 
L 30.1161 -20.332677 
L 30.265652 -20.319543 
L 30.342243 -20.306409 
L 30.34136 -20.293274 
L 30.260971 -20.28014 
L 30.101647 -20.267005 
L 29.866551 -20.253871 
L 29.56129 -20.240737 
L 29.193648 -20.227602 
L 28.773196 -20.214468 
L 28.310827 -20.201333 
L 27.818234 -20.188199 
L 27.307372 -20.175065 
L 26.789933 -20.16193 
L 26.276878 -20.148796 
L 25.778035 -20.135662 
L 25.301801 -20.122527 
L 24.854944 -20.109393 
L 24.44251 -20.096258 
L 24.067838 -20.083124 
z
" style="stroke: #717171; stroke-width: 0.15"/>
    </defs>
    <g clip-path="url(#pf3770d4b65)">
     <use xlink:href="#m62852070ac" x="0" y="84.96" style="fill: #d6bba3; stroke: #717171; stroke-width: 0.15"/>
    </g>
   </g>
   <g id="PolyCollection_2">
    <defs>
     <path id="md72e4fd300" d="M 44.256319 -18.43733 
L 41.320004 -18.43733 
L 41.012086 -18.597331 
L 40.66459 -18.757331 
L 40.278459 -18.917332 
L 39.856157 -19.077333 
L 39.401787 -19.237334 
L 38.921123 -19.397335 
L 38.421547 -19.557335 
L 37.911878 -19.717336 
L 37.402107 -19.877337 
L 36.903033 -20.037338 
L 36.425831 -20.197338 
L 35.981567 -20.357339 
L 35.58071 -20.51734 
L 35.232646 -20.677341 
L 34.945256 -20.837342 
L 34.72457 -20.997342 
L 34.574516 -21.157343 
L 34.496797 -21.317344 
L 34.490882 -21.477345 
L 34.554114 -21.637346 
L 34.681924 -21.797346 
L 34.868131 -21.957347 
L 35.105301 -22.117348 
L 35.385151 -22.277349 
L 35.698955 -22.437349 
L 36.037941 -22.59735 
L 36.393659 -22.757351 
L 36.758297 -22.917352 
L 37.124925 -23.077353 
L 37.487682 -23.237353 
L 37.841875 -23.397354 
L 38.184009 -23.557355 
L 38.511745 -23.717356 
L 38.823795 -23.877356 
L 39.119768 -24.037357 
L 39.399984 -24.197358 
L 39.665262 -24.357359 
L 39.916716 -24.51736 
L 40.155556 -24.67736 
L 40.382923 -24.837361 
L 40.599761 -24.997362 
L 40.806732 -25.157363 
L 41.004179 -25.317364 
L 41.192133 -25.477364 
L 41.370354 -25.637365 
L 41.538402 -25.797366 
L 41.695725 -25.957367 
L 41.841744 -26.117367 
L 41.975944 -26.277368 
L 42.097945 -26.437369 
L 42.207549 -26.59737 
L 42.304771 -26.757371 
L 42.389845 -26.917371 
L 42.463203 -27.077372 
L 42.525444 -27.237373 
L 42.577288 -27.397374 
L 42.619519 -27.557375 
L 42.652928 -27.717375 
L 42.678259 -27.877376 
L 42.696162 -28.037377 
L 42.707149 -28.197378 
L 42.711567 -28.357378 
L 42.709581 -28.517379 
L 42.701169 -28.67738 
L 42.686136 -28.837381 
L 42.664137 -28.997382 
L 42.634712 -29.157382 
L 42.597349 -29.317383 
L 42.551536 -29.477384 
L 42.496845 -29.637385 
L 42.433008 -29.797385 
L 42.359999 -29.957386 
L 42.278112 -30.117387 
L 42.188028 -30.277388 
L 42.090864 -30.437389 
L 41.988196 -30.597389 
L 41.882055 -30.75739 
L 41.774889 -30.917391 
L 41.669486 -31.077392 
L 41.568867 -31.237393 
L 41.47615 -31.397393 
L 41.394397 -31.557394 
L 41.326444 -31.717395 
L 41.274741 -31.877396 
L 41.241208 -32.037396 
L 41.227112 -32.197397 
L 41.232993 -32.357398 
L 41.258625 -32.517399 
L 41.303034 -32.6774 
L 41.364558 -32.8374 
L 41.44095 -32.997401 
L 41.529514 -33.157402 
L 41.627264 -33.317403 
L 41.731088 -33.477404 
L 41.837912 -33.637404 
L 41.944843 -33.797405 
L 42.049292 -33.957406 
L 42.149068 -34.117407 
L 42.242425 -34.277407 
L 43.333898 -34.277407 
L 43.333898 -34.277407 
L 43.427255 -34.117407 
L 43.52703 -33.957406 
L 43.63148 -33.797405 
L 43.738411 -33.637404 
L 43.845234 -33.477404 
L 43.949058 -33.317403 
L 44.046808 -33.157402 
L 44.135373 -32.997401 
L 44.211764 -32.8374 
L 44.273288 -32.6774 
L 44.317698 -32.517399 
L 44.34333 -32.357398 
L 44.34921 -32.197397 
L 44.335115 -32.037396 
L 44.301581 -31.877396 
L 44.249879 -31.717395 
L 44.181926 -31.557394 
L 44.100172 -31.397393 
L 44.007456 -31.237393 
L 43.906836 -31.077392 
L 43.801433 -30.917391 
L 43.694267 -30.75739 
L 43.588127 -30.597389 
L 43.485459 -30.437389 
L 43.388294 -30.277388 
L 43.29821 -30.117387 
L 43.216323 -29.957386 
L 43.143314 -29.797385 
L 43.079477 -29.637385 
L 43.024787 -29.477384 
L 42.978974 -29.317383 
L 42.94161 -29.157382 
L 42.912186 -28.997382 
L 42.890186 -28.837381 
L 42.875153 -28.67738 
L 42.866742 -28.517379 
L 42.864755 -28.357378 
L 42.869173 -28.197378 
L 42.88016 -28.037377 
L 42.898063 -27.877376 
L 42.923395 -27.717375 
L 42.956803 -27.557375 
L 42.999034 -27.397374 
L 43.050878 -27.237373 
L 43.11312 -27.077372 
L 43.186478 -26.917371 
L 43.271551 -26.757371 
L 43.368774 -26.59737 
L 43.478378 -26.437369 
L 43.600378 -26.277368 
L 43.734579 -26.117367 
L 43.880598 -25.957367 
L 44.03792 -25.797366 
L 44.205969 -25.637365 
L 44.38419 -25.477364 
L 44.572144 -25.317364 
L 44.769591 -25.157363 
L 44.976562 -24.997362 
L 45.193399 -24.837361 
L 45.420766 -24.67736 
L 45.659606 -24.51736 
L 45.91106 -24.357359 
L 46.176339 -24.197358 
L 46.456554 -24.037357 
L 46.752528 -23.877356 
L 47.064577 -23.717356 
L 47.392313 -23.557355 
L 47.734447 -23.397354 
L 48.088641 -23.237353 
L 48.451398 -23.077353 
L 48.818026 -22.917352 
L 49.182663 -22.757351 
L 49.538382 -22.59735 
L 49.877368 -22.437349 
L 50.191171 -22.277349 
L 50.471021 -22.117348 
L 50.708192 -21.957347 
L 50.894398 -21.797346 
L 51.022208 -21.637346 
L 51.08544 -21.477345 
L 51.079525 -21.317344 
L 51.001807 -21.157343 
L 50.851753 -20.997342 
L 50.631066 -20.837342 
L 50.343677 -20.677341 
L 49.995613 -20.51734 
L 49.594755 -20.357339 
L 49.150492 -20.197338 
L 48.673289 -20.037338 
L 48.174215 -19.877337 
L 47.664445 -19.717336 
L 47.154776 -19.557335 
L 46.655199 -19.397335 
L 46.174536 -19.237334 
L 45.720166 -19.077333 
L 45.297864 -18.917332 
L 44.911732 -18.757331 
L 44.564237 -18.597331 
L 44.256319 -18.43733 
z
" style="stroke: #717171; stroke-width: 0.15"/>
    </defs>
    <g clip-path="url(#pf3770d4b65)">
     <use xlink:href="#md72e4fd300" x="0" y="84.96" style="fill: #f1b9e0; stroke: #717171; stroke-width: 0.15"/>
    </g>
   </g>
   <g id="line2d_7">
    <path d="M 22.044964 64.700924 
L 22.044964 63.752524 
" clip-path="url(#pf3770d4b65)" style="fill: none; stroke: #8c8c8c; stroke-width: 0.75; stroke-linecap: round"/>
   </g>
   <g id="line2d_8">
    <path d="M 22.044964 64.673275 
L 22.044964 64.286039 
" clip-path="url(#pf3770d4b65)" style="fill: none; stroke: #8c8c8c; stroke-width: 4; stroke-linecap: round"/>
   </g>
   <g id="line2d_9">
    <path d="M 22.044964 64.6069 
" clip-path="url(#pf3770d4b65)" style="fill: none; stroke: #717171; stroke-width: 1.2; stroke-linecap: round"/>
    <defs>
     <path id="m40d5c78344" d="M 0 0.833333 
C 0.221003 0.833333 0.432983 0.745528 0.589256 0.589256 
C 0.745528 0.432983 0.833333 0.221003 0.833333 0 
C 0.833333 -0.221003 0.745528 -0.432983 0.589256 -0.589256 
C 0.432983 -0.745528 0.221003 -0.833333 0 -0.833333 
C -0.221003 -0.833333 -0.432983 -0.745528 -0.589256 -0.589256 
C -0.745528 -0.432983 -0.833333 -0.221003 -0.833333 0 
C -0.833333 0.221003 -0.745528 0.432983 -0.589256 0.589256 
C -0.432983 0.745528 -0.221003 0.833333 0 0.833333 
z
" style="stroke: #ffffff; stroke-width: 0.8"/>
    </defs>
    <g clip-path="url(#pf3770d4b65)">
     <use xlink:href="#m40d5c78344" x="22.044964" y="64.6069" style="fill: #ffffff; stroke: #ffffff; stroke-width: 0.8"/>
    </g>
   </g>
   <g id="line2d_10">
    <path d="M 42.788161 64.475649 
L 42.788161 60.426447 
" clip-path="url(#pf3770d4b65)" style="fill: none; stroke: #8c8c8c; stroke-width: 0.75; stroke-linecap: round"/>
   </g>
   <g id="line2d_11">
    <path d="M 42.788161 63.943281 
L 42.788161 61.927134 
" clip-path="url(#pf3770d4b65)" style="fill: none; stroke: #8c8c8c; stroke-width: 4; stroke-linecap: round"/>
   </g>
   <g id="line2d_12">
    <path d="M 42.788161 63.249356 
" clip-path="url(#pf3770d4b65)" style="fill: none; stroke: #717171; stroke-width: 1.2; stroke-linecap: round"/>
    <g clip-path="url(#pf3770d4b65)">
     <use xlink:href="#m40d5c78344" x="42.788161" y="63.249356" style="fill: #ffffff; stroke: #ffffff; stroke-width: 0.8"/>
    </g>
   </g>
   <g id="patch_3">
    <path d="M 11.673365 74.419526 
L 11.673365 4.076256 
" style="fill: none; stroke: #777777; stroke-width: 0.5; stroke-linejoin: miter; stroke-linecap: square"/>
   </g>
   <g id="patch_4">
    <path d="M 11.673365 76.919526 
L 53.15976 76.919526 
" style="fill: none; stroke: #777777; stroke-width: 0.5; stroke-linejoin: miter; stroke-linecap: square"/>
   </g>
  </g>
 </g>
 <defs>
  <clipPath id="pf3770d4b65">
   <rect x="11.673365" y="4.076256" width="41.486395" height="70.34327"/>
  </clipPath>
 </defs>
</svg>
