<?xml version="1.0" encoding="utf-8" standalone="no"?>
<!DOCTYPE svg PUBLIC "-//W3C//DTD SVG 1.1//EN"
  "http://www.w3.org/Graphics/SVG/1.1/DTD/svg11.dtd">
<svg xmlns:xlink="http://www.w3.org/1999/xlink" width="84.96pt" height="84.96pt" viewBox="0 0 84.96 84.96" xmlns="http://www.w3.org/2000/svg" version="1.1">
 <metadata>
  <rdf:RDF xmlns:dc="http://purl.org/dc/elements/1.1/" xmlns:cc="http://creativecommons.org/ns#" xmlns:rdf="http://www.w3.org/1999/02/22-rdf-syntax-ns#">
   <cc:Work>
    <dc:type rdf:resource="http://purl.org/dc/dcmitype/StillImage"/>
    <dc:date>2024-05-27T15:37:10.512343</dc:date>
    <dc:format>image/svg+xml</dc:format>
    <dc:creator>
     <cc:Agent>
      <dc:title>Matplotlib v3.8.3, https://matplotlib.org/</dc:title>
     </cc:Agent>
    </dc:creator>
   </cc:Work>
  </rdf:RDF>
 </metadata>
 <defs>
  <style type="text/css">*{stroke-linejoin: round; stroke-linecap: butt}</style>
 </defs>
 <g id="figure_1">
  <g id="patch_1">
   <path d="M 0 84.96 
L 84.96 84.96 
L 84.96 0 
L 0 0 
z
" style="fill: #ffffff"/>
  </g>
  <g id="axes_1">
   <g id="patch_2">
    <path d="M 13.341646 74.419526 
L 81.95976 74.419526 
L 81.95976 4.076256 
L 13.341646 4.076256 
z
" style="fill: #ffffff"/>
   </g>
   <g id="matplotlib.axis_1">
    <g id="xtick_1">
     <g id="text_1">
      <!-- B -->
      <g style="fill: #333333" transform="translate(23.610694 81.230229) scale(0.035 -0.035)">
       <defs>
        <path id="Helvetica-42" d="M 2213 2650 
Q 2606 2650 2825 2759 
Q 3169 2931 3169 3378 
Q 3169 3828 2803 3984 
Q 2597 4072 2191 4072 
L 1081 4072 
L 1081 2650 
L 2213 2650 
z
M 2422 531 
Q 2994 531 3238 863 
Q 3391 1072 3391 1369 
Q 3391 1869 2944 2050 
Q 2706 2147 2316 2147 
L 1081 2147 
L 1081 531 
L 2422 531 
z
M 472 4591 
L 2444 4591 
Q 3250 4591 3591 4109 
Q 3791 3825 3791 3453 
Q 3791 3019 3544 2741 
Q 3416 2594 3175 2472 
Q 3528 2338 3703 2169 
Q 4013 1869 4013 1341 
Q 4013 897 3734 538 
Q 3319 0 2413 0 
L 472 0 
L 472 4591 
z
" transform="scale(0.015625)"/>
       </defs>
       <use xlink:href="#Helvetica-42"/>
      </g>
     </g>
    </g>
    <g id="xtick_2">
     <g id="text_2">
      <!-- T -->
      <g style="fill: #333333" transform="translate(46.581836 81.230229) scale(0.035 -0.035)">
       <defs>
        <path id="Helvetica-54" d="M 3828 4591 
L 3828 4044 
L 2281 4044 
L 2281 0 
L 1650 0 
L 1650 4044 
L 103 4044 
L 103 4591 
L 3828 4591 
z
" transform="scale(0.015625)"/>
       </defs>
       <use xlink:href="#Helvetica-54"/>
      </g>
     </g>
    </g>
    <g id="xtick_3">
     <g id="text_3">
      <!-- IL7R Non B/T -->
      <g style="fill: #333333" transform="translate(59.922236 81.230229) scale(0.035 -0.035)">
       <defs>
        <path id="Helvetica-49" d="M 628 4591 
L 1256 4591 
L 1256 0 
L 628 0 
L 628 4591 
z
" transform="scale(0.015625)"/>
        <path id="Helvetica-4c" d="M 488 4591 
L 1109 4591 
L 1109 547 
L 3434 547 
L 3434 0 
L 488 0 
L 488 4591 
z
" transform="scale(0.015625)"/>
        <path id="Helvetica-37" d="M 3347 4400 
L 3347 3909 
Q 3131 3700 2773 3181 
Q 2416 2663 2141 2063 
Q 1869 1478 1728 997 
Q 1638 688 1494 0 
L 872 0 
Q 1084 1281 1809 2550 
Q 2238 3294 2709 3834 
L 234 3834 
L 234 4400 
L 3347 4400 
z
" transform="scale(0.015625)"/>
        <path id="Helvetica-52" d="M 2622 2488 
Q 3059 2488 3314 2663 
Q 3569 2838 3569 3294 
Q 3569 3784 3213 3963 
Q 3022 4056 2703 4056 
L 1184 4056 
L 1184 2488 
L 2622 2488 
z
M 563 4591 
L 2688 4591 
Q 3213 4591 3553 4438 
Q 4200 4144 4200 3353 
Q 4200 2941 4029 2678 
Q 3859 2416 3553 2256 
Q 3822 2147 3958 1969 
Q 4094 1791 4109 1391 
L 4131 775 
Q 4141 513 4175 384 
Q 4231 166 4375 103 
L 4375 0 
L 3613 0 
Q 3581 59 3562 153 
Q 3544 247 3531 516 
L 3494 1281 
Q 3472 1731 3159 1884 
Q 2981 1969 2600 1969 
L 1184 1969 
L 1184 0 
L 563 0 
L 563 4591 
z
" transform="scale(0.015625)"/>
        <path id="Helvetica-20" transform="scale(0.015625)"/>
        <path id="Helvetica-4e" d="M 488 4591 
L 1222 4591 
L 3541 872 
L 3541 4591 
L 4131 4591 
L 4131 0 
L 3434 0 
L 1081 3716 
L 1081 0 
L 488 0 
L 488 4591 
z
M 2269 4591 
L 2269 4591 
z
" transform="scale(0.015625)"/>
        <path id="Helvetica-6f" d="M 1741 363 
Q 2300 363 2508 786 
Q 2716 1209 2716 1728 
Q 2716 2197 2566 2491 
Q 2328 2953 1747 2953 
Q 1231 2953 997 2559 
Q 763 2166 763 1609 
Q 763 1075 997 719 
Q 1231 363 1741 363 
z
M 1763 3444 
Q 2409 3444 2856 3012 
Q 3303 2581 3303 1744 
Q 3303 934 2909 406 
Q 2516 -122 1688 -122 
Q 997 -122 590 345 
Q 184 813 184 1600 
Q 184 2444 612 2944 
Q 1041 3444 1763 3444 
z
M 1744 3428 
L 1744 3428 
z
" transform="scale(0.015625)"/>
        <path id="Helvetica-6e" d="M 413 3347 
L 947 3347 
L 947 2872 
Q 1184 3166 1450 3294 
Q 1716 3422 2041 3422 
Q 2753 3422 3003 2925 
Q 3141 2653 3141 2147 
L 3141 0 
L 2569 0 
L 2569 2109 
Q 2569 2416 2478 2603 
Q 2328 2916 1934 2916 
Q 1734 2916 1606 2875 
Q 1375 2806 1200 2600 
Q 1059 2434 1017 2257 
Q 975 2081 975 1753 
L 975 0 
L 413 0 
L 413 3347 
z
M 1734 3428 
L 1734 3428 
z
" transform="scale(0.015625)"/>
        <path id="Helvetica-2f" d="M 1456 4591 
L 1931 4591 
L 475 0 
L 0 0 
L 1456 4591 
z
" transform="scale(0.015625)"/>
       </defs>
       <use xlink:href="#Helvetica-49"/>
       <use xlink:href="#Helvetica-4c" x="27.783203"/>
       <use xlink:href="#Helvetica-37" x="83.398438"/>
       <use xlink:href="#Helvetica-52" x="139.013672"/>
       <use xlink:href="#Helvetica-20" x="211.230469"/>
       <use xlink:href="#Helvetica-4e" x="239.013672"/>
       <use xlink:href="#Helvetica-6f" x="311.230469"/>
       <use xlink:href="#Helvetica-6e" x="366.845703"/>
       <use xlink:href="#Helvetica-20" x="422.460938"/>
       <use xlink:href="#Helvetica-42" x="450.244141"/>
       <use xlink:href="#Helvetica-2f" x="516.943359"/>
       <use xlink:href="#Helvetica-54" x="544.726562"/>
      </g>
     </g>
    </g>
   </g>
   <g id="matplotlib.axis_2">
    <g id="ytick_1">
     <g id="line2d_1">
      <defs>
       <path id="m2df41e9628" d="M 0 0 
L -1 0 
" style="stroke: #777777; stroke-width: 0.5"/>
      </defs>
      <g>
       <use xlink:href="#m2df41e9628" x="13.341646" y="68.030497" style="fill: #777777; stroke: #777777; stroke-width: 0.5"/>
      </g>
     </g>
     <g id="text_4">
      <!-- 0 -->
      <g style="fill: #333333" transform="translate(9.673365 69.106513) scale(0.03 -0.03)">
       <defs>
        <path id="Helvetica-30" d="M 1731 4475 
Q 2600 4475 2988 3759 
Q 3288 3206 3288 2244 
Q 3288 1331 3016 734 
Q 2622 -122 1728 -122 
Q 922 -122 528 578 
Q 200 1163 200 2147 
Q 200 2909 397 3456 
Q 766 4475 1731 4475 
z
M 1725 391 
Q 2163 391 2422 778 
Q 2681 1166 2681 2222 
Q 2681 2984 2493 3476 
Q 2306 3969 1766 3969 
Q 1269 3969 1039 3501 
Q 809 3034 809 2125 
Q 809 1441 956 1025 
Q 1181 391 1725 391 
z
" transform="scale(0.015625)"/>
       </defs>
       <use xlink:href="#Helvetica-30"/>
      </g>
     </g>
    </g>
    <g id="ytick_2">
     <g id="line2d_2">
      <g>
       <use xlink:href="#m2df41e9628" x="13.341646" y="55.239649" style="fill: #777777; stroke: #777777; stroke-width: 0.5"/>
      </g>
     </g>
     <g id="text_5">
      <!-- 2000 -->
      <g style="fill: #333333" transform="translate(4.668521 56.315664) scale(0.03 -0.03)">
       <defs>
        <path id="Helvetica-32" d="M 200 0 
Q 231 578 439 1006 
Q 647 1434 1250 1784 
L 1850 2131 
Q 2253 2366 2416 2531 
Q 2672 2791 2672 3125 
Q 2672 3516 2437 3745 
Q 2203 3975 1813 3975 
Q 1234 3975 1013 3538 
Q 894 3303 881 2888 
L 309 2888 
Q 319 3472 525 3841 
Q 891 4491 1816 4491 
Q 2584 4491 2939 4075 
Q 3294 3659 3294 3150 
Q 3294 2613 2916 2231 
Q 2697 2009 2131 1694 
L 1703 1456 
Q 1397 1288 1222 1134 
Q 909 863 828 531 
L 3272 531 
L 3272 0 
L 200 0 
z
" transform="scale(0.015625)"/>
       </defs>
       <use xlink:href="#Helvetica-32"/>
       <use xlink:href="#Helvetica-30" x="55.615234"/>
       <use xlink:href="#Helvetica-30" x="111.230469"/>
       <use xlink:href="#Helvetica-30" x="166.845703"/>
      </g>
     </g>
    </g>
    <g id="ytick_3">
     <g id="line2d_3">
      <g>
       <use xlink:href="#m2df41e9628" x="13.341646" y="42.4488" style="fill: #777777; stroke: #777777; stroke-width: 0.5"/>
      </g>
     </g>
     <g id="text_6">
      <!-- 4000 -->
      <g style="fill: #333333" transform="translate(4.668521 43.524816) scale(0.03 -0.03)">
       <defs>
        <path id="Helvetica-34" d="M 2116 1584 
L 2116 3613 
L 681 1584 
L 2116 1584 
z
M 2125 0 
L 2125 1094 
L 163 1094 
L 163 1644 
L 2213 4488 
L 2688 4488 
L 2688 1584 
L 3347 1584 
L 3347 1094 
L 2688 1094 
L 2688 0 
L 2125 0 
z
" transform="scale(0.015625)"/>
       </defs>
       <use xlink:href="#Helvetica-34"/>
       <use xlink:href="#Helvetica-30" x="55.615234"/>
       <use xlink:href="#Helvetica-30" x="111.230469"/>
       <use xlink:href="#Helvetica-30" x="166.845703"/>
      </g>
     </g>
    </g>
    <g id="ytick_4">
     <g id="line2d_4">
      <g>
       <use xlink:href="#m2df41e9628" x="13.341646" y="29.657952" style="fill: #777777; stroke: #777777; stroke-width: 0.5"/>
      </g>
     </g>
     <g id="text_7">
      <!-- 6000 -->
      <g style="fill: #333333" transform="translate(4.668521 30.733968) scale(0.03 -0.03)">
       <defs>
        <path id="Helvetica-36" d="M 1872 4494 
Q 2622 4494 2917 4105 
Q 3213 3716 3213 3303 
L 2656 3303 
Q 2606 3569 2497 3719 
Q 2294 4000 1881 4000 
Q 1409 4000 1131 3564 
Q 853 3128 822 2316 
Q 1016 2600 1309 2741 
Q 1578 2866 1909 2866 
Q 2472 2866 2890 2506 
Q 3309 2147 3309 1434 
Q 3309 825 2912 354 
Q 2516 -116 1781 -116 
Q 1153 -116 697 361 
Q 241 838 241 1966 
Q 241 2800 444 3381 
Q 834 4494 1872 4494 
z
M 1831 384 
Q 2275 384 2495 682 
Q 2716 981 2716 1388 
Q 2716 1731 2519 2042 
Q 2322 2353 1803 2353 
Q 1441 2353 1167 2112 
Q 894 1872 894 1388 
Q 894 963 1142 673 
Q 1391 384 1831 384 
z
" transform="scale(0.015625)"/>
       </defs>
       <use xlink:href="#Helvetica-36"/>
       <use xlink:href="#Helvetica-30" x="55.615234"/>
       <use xlink:href="#Helvetica-30" x="111.230469"/>
       <use xlink:href="#Helvetica-30" x="166.845703"/>
      </g>
     </g>
    </g>
    <g id="ytick_5">
     <g id="line2d_5">
      <g>
       <use xlink:href="#m2df41e9628" x="13.341646" y="16.867104" style="fill: #777777; stroke: #777777; stroke-width: 0.5"/>
      </g>
     </g>
     <g id="text_8">
      <!-- 8000 -->
      <g style="fill: #333333" transform="translate(4.668521 17.94312) scale(0.03 -0.03)">
       <defs>
        <path id="Helvetica-38" d="M 1741 2600 
Q 2113 2600 2322 2808 
Q 2531 3016 2531 3303 
Q 2531 3553 2331 3762 
Q 2131 3972 1722 3972 
Q 1316 3972 1134 3762 
Q 953 3553 953 3272 
Q 953 2956 1187 2778 
Q 1422 2600 1741 2600 
z
M 1775 384 
Q 2166 384 2423 595 
Q 2681 806 2681 1225 
Q 2681 1659 2415 1884 
Q 2150 2109 1734 2109 
Q 1331 2109 1076 1879 
Q 822 1650 822 1244 
Q 822 894 1055 639 
Q 1288 384 1775 384 
z
M 975 2384 
Q 741 2484 609 2619 
Q 363 2869 363 3269 
Q 363 3769 725 4128 
Q 1088 4488 1753 4488 
Q 2397 4488 2762 4148 
Q 3128 3809 3128 3356 
Q 3128 2938 2916 2678 
Q 2797 2531 2547 2391 
Q 2825 2263 2984 2097 
Q 3281 1784 3281 1284 
Q 3281 694 2884 283 
Q 2488 -128 1763 -128 
Q 1109 -128 657 226 
Q 206 581 206 1256 
Q 206 1653 400 1942 
Q 594 2231 975 2384 
z
" transform="scale(0.015625)"/>
       </defs>
       <use xlink:href="#Helvetica-38"/>
       <use xlink:href="#Helvetica-30" x="55.615234"/>
       <use xlink:href="#Helvetica-30" x="111.230469"/>
       <use xlink:href="#Helvetica-30" x="166.845703"/>
      </g>
     </g>
    </g>
    <g id="ytick_6">
     <g id="line2d_6">
      <g>
       <use xlink:href="#m2df41e9628" x="13.341646" y="4.076256" style="fill: #777777; stroke: #777777; stroke-width: 0.5"/>
      </g>
     </g>
     <g id="text_9">
      <!-- 10000 -->
      <g style="fill: #333333" transform="translate(3.00024 5.152271) scale(0.03 -0.03)">
       <defs>
        <path id="Helvetica-31" d="M 613 3169 
L 613 3600 
Q 1222 3659 1462 3798 
Q 1703 3938 1822 4456 
L 2266 4456 
L 2266 0 
L 1666 0 
L 1666 3169 
L 613 3169 
z
" transform="scale(0.015625)"/>
       </defs>
       <use xlink:href="#Helvetica-31"/>
       <use xlink:href="#Helvetica-30" x="55.615234"/>
       <use xlink:href="#Helvetica-30" x="111.230469"/>
       <use xlink:href="#Helvetica-30" x="166.845703"/>
       <use xlink:href="#Helvetica-30" x="222.460938"/>
      </g>
     </g>
    </g>
   </g>
   <g id="PolyCollection_1">
    <defs>
     <path id="m6402d8a534" d="M 25.279099 -17.920104 
L 24.276898 -17.920104 
L 24.142245 -18.478702 
L 23.986776 -19.037299 
L 23.811417 -19.595897 
L 23.618063 -20.154495 
L 23.409455 -20.713093 
L 23.188953 -21.27169 
L 22.960218 -21.830288 
L 22.72685 -22.388886 
L 22.492042 -22.947484 
L 22.258304 -23.506081 
L 22.027315 -24.064679 
L 21.799926 -24.623277 
L 21.576336 -25.181875 
L 21.356388 -25.740472 
L 21.139955 -26.29907 
L 20.927342 -26.857668 
L 20.719617 -27.416266 
L 20.51881 -27.974863 
L 20.327944 -28.533461 
L 20.15087 -29.092059 
L 19.99194 -29.650657 
L 19.855549 -30.209254 
L 19.745646 -30.767852 
L 19.665261 -31.32645 
L 19.61614 -31.885048 
L 19.598526 -32.443645 
L 19.611105 -33.002243 
L 19.651102 -33.560841 
L 19.71448 -34.119439 
L 19.796178 -34.678036 
L 19.890317 -35.236634 
L 19.99033 -35.795232 
L 20.088985 -36.35383 
L 20.178334 -36.912427 
L 20.249644 -37.471025 
L 20.293414 -38.029623 
L 20.299576 -38.588221 
L 20.257967 -39.146818 
L 20.159115 -39.705416 
L 19.995284 -40.264014 
L 19.761692 -40.822612 
L 19.457689 -41.381209 
L 19.087715 -41.939807 
L 18.661792 -42.498405 
L 18.195425 -43.057003 
L 17.708819 -43.6156 
L 17.225472 -44.174198 
L 16.770287 -44.732796 
L 16.367438 -45.291394 
L 16.038262 -45.849991 
L 15.799435 -46.408589 
L 15.661651 -46.967187 
L 15.628917 -47.525785 
L 15.698505 -48.084382 
L 15.861502 -48.64298 
L 16.10385 -49.201578 
L 16.407716 -49.760176 
L 16.753058 -50.318773 
L 17.119218 -50.877371 
L 17.486454 -51.435969 
L 17.837285 -51.994567 
L 18.157596 -52.553164 
L 18.437415 -53.111762 
L 18.671334 -53.67036 
L 18.858525 -54.228958 
L 19.002355 -54.787555 
L 19.109623 -55.346153 
L 19.18949 -55.904751 
L 19.252217 -56.463349 
L 19.307865 -57.021946 
L 19.365099 -57.580544 
L 19.43029 -58.139142 
L 19.507001 -58.69774 
L 19.59595 -59.256337 
L 19.695437 -59.814935 
L 19.80214 -60.373533 
L 19.912143 -60.932131 
L 20.022008 -61.490728 
L 20.129688 -62.049326 
L 20.235131 -62.607924 
L 20.340469 -63.166522 
L 20.449783 -63.72512 
L 20.568484 -64.283717 
L 20.702456 -64.842315 
L 20.857103 -65.400913 
L 21.03648 -65.959511 
L 21.242623 -66.518108 
L 21.475189 -67.076706 
L 21.73142 -67.635304 
L 22.006415 -68.193902 
L 22.293644 -68.752499 
L 22.585602 -69.311097 
L 22.874521 -69.869695 
L 23.15303 -70.428293 
L 23.414712 -70.98689 
L 23.654495 -71.545488 
L 23.868874 -72.104086 
L 24.055955 -72.662684 
L 24.215355 -73.221281 
L 25.340642 -73.221281 
L 25.340642 -73.221281 
L 25.500042 -72.662684 
L 25.687123 -72.104086 
L 25.901502 -71.545488 
L 26.141285 -70.98689 
L 26.402967 -70.428293 
L 26.681476 -69.869695 
L 26.970395 -69.311097 
L 27.262353 -68.752499 
L 27.549582 -68.193902 
L 27.824577 -67.635304 
L 28.080808 -67.076706 
L 28.313374 -66.518108 
L 28.519517 -65.959511 
L 28.698894 -65.400913 
L 28.853542 -64.842315 
L 28.987513 -64.283717 
L 29.106214 -63.72512 
L 29.215528 -63.166522 
L 29.320866 -62.607924 
L 29.426309 -62.049326 
L 29.533989 -61.490728 
L 29.643854 -60.932131 
L 29.753857 -60.373533 
L 29.86056 -59.814935 
L 29.960047 -59.256337 
L 30.048996 -58.69774 
L 30.125707 -58.139142 
L 30.190898 -57.580544 
L 30.248132 -57.021946 
L 30.30378 -56.463349 
L 30.366507 -55.904751 
L 30.446374 -55.346153 
L 30.553642 -54.787555 
L 30.697472 -54.228958 
L 30.884663 -53.67036 
L 31.118582 -53.111762 
L 31.398401 -52.553164 
L 31.718712 -51.994567 
L 32.069543 -51.435969 
L 32.436779 -50.877371 
L 32.802939 -50.318773 
L 33.148281 -49.760176 
L 33.452147 -49.201578 
L 33.694495 -48.64298 
L 33.857492 -48.084382 
L 33.92708 -47.525785 
L 33.894346 -46.967187 
L 33.756562 -46.408589 
L 33.517735 -45.849991 
L 33.188559 -45.291394 
L 32.785711 -44.732796 
L 32.330526 -44.174198 
L 31.847178 -43.6156 
L 31.360572 -43.057003 
L 30.894205 -42.498405 
L 30.468282 -41.939807 
L 30.098308 -41.381209 
L 29.794305 -40.822612 
L 29.560713 -40.264014 
L 29.396883 -39.705416 
L 29.29803 -39.146818 
L 29.256421 -38.588221 
L 29.262583 -38.029623 
L 29.306353 -37.471025 
L 29.377663 -36.912427 
L 29.467012 -36.35383 
L 29.565667 -35.795232 
L 29.66568 -35.236634 
L 29.759819 -34.678036 
L 29.841517 -34.119439 
L 29.904895 -33.560841 
L 29.944892 -33.002243 
L 29.957471 -32.443645 
L 29.939857 -31.885048 
L 29.890736 -31.32645 
L 29.810351 -30.767852 
L 29.700448 -30.209254 
L 29.564057 -29.650657 
L 29.405127 -29.092059 
L 29.228054 -28.533461 
L 29.037187 -27.974863 
L 28.83638 -27.416266 
L 28.628655 -26.857668 
L 28.416042 -26.29907 
L 28.19961 -25.740472 
L 27.979661 -25.181875 
L 27.756071 -24.623277 
L 27.528682 -24.064679 
L 27.297693 -23.506081 
L 27.063955 -22.947484 
L 26.829147 -22.388886 
L 26.595779 -21.830288 
L 26.367044 -21.27169 
L 26.146542 -20.713093 
L 25.937934 -20.154495 
L 25.74458 -19.595897 
L 25.569221 -19.037299 
L 25.413752 -18.478702 
L 25.279099 -17.920104 
z
" style="stroke: #414141; stroke-width: 0.15"/>
    </defs>
    <g clip-path="url(#p4a40a06712)">
     <use xlink:href="#m6402d8a534" x="0" y="84.96" style="fill: #abc9ea; stroke: #414141; stroke-width: 0.15"/>
    </g>
   </g>
   <g id="PolyCollection_2">
    <defs>
     <path id="mcc0e444c0b" d="M 48.460417 -15.506535 
L 46.840989 -15.506535 
L 46.576764 -15.741583 
L 46.258276 -15.976631 
L 45.884062 -16.211679 
L 45.454952 -16.446727 
L 44.974112 -16.681775 
L 44.446921 -16.916823 
L 43.880742 -17.151871 
L 43.284697 -17.386919 
L 42.66953 -17.621967 
L 42.047561 -17.857015 
L 41.432675 -18.092063 
L 40.840188 -18.327111 
L 40.286401 -18.562159 
L 39.787697 -18.797208 
L 39.359152 -19.032256 
L 39.012812 -19.267304 
L 38.755946 -19.502352 
L 38.589725 -19.7374 
L 38.508735 -19.972448 
L 38.501621 -20.207496 
L 38.552866 -20.442544 
L 38.645419 -20.677592 
L 38.763633 -20.91264 
L 38.895812 -21.147688 
L 39.035771 -21.382736 
L 39.183027 -21.617784 
L 39.341581 -21.852832 
L 39.517644 -22.08788 
L 39.716917 -22.322928 
L 39.94214 -22.557976 
L 40.191552 -22.793024 
L 40.458619 -23.028072 
L 40.733093 -23.26312 
L 41.003082 -23.498169 
L 41.257632 -23.733217 
L 41.489172 -23.968265 
L 41.695266 -24.203313 
L 41.879281 -24.438361 
L 42.049835 -24.673409 
L 42.219161 -24.908457 
L 42.400736 -25.143505 
L 42.606666 -25.378553 
L 42.845361 -25.613601 
L 43.119938 -25.848649 
L 43.427658 -26.083697 
L 43.760468 -26.318745 
L 44.106484 -26.553793 
L 44.452106 -26.788841 
L 44.784287 -27.023889 
L 45.092525 -27.258937 
L 45.370198 -27.493985 
L 45.615054 -27.729033 
L 45.828831 -27.964081 
L 46.016204 -28.19913 
L 46.183335 -28.434178 
L 46.336371 -28.669226 
L 46.480205 -28.904274 
L 46.61767 -29.139322 
L 46.749267 -29.37437 
L 46.873365 -29.609418 
L 46.986745 -29.844466 
L 47.085321 -30.079514 
L 47.164876 -30.314562 
L 47.221715 -30.54961 
L 47.253169 -30.784658 
L 47.257947 -31.019706 
L 47.236357 -31.254754 
L 47.190415 -31.489802 
L 47.123837 -31.72485 
L 47.041909 -31.959898 
L 46.951184 -32.194946 
L 46.858998 -32.429994 
L 46.7728 -32.665042 
L 46.699359 -32.90009 
L 46.643936 -33.135139 
L 46.609574 -33.370187 
L 46.596637 -33.605235 
L 46.602725 -33.840283 
L 46.623011 -34.075331 
L 46.650987 -34.310379 
L 46.67951 -34.545427 
L 46.701978 -34.780475 
L 46.713436 -35.015523 
L 46.711418 -35.250571 
L 46.696361 -35.485619 
L 46.671541 -35.720667 
L 46.642519 -35.955715 
L 46.61621 -36.190763 
L 46.59975 -36.425811 
L 46.599352 -36.660859 
L 46.619356 -36.895907 
L 46.661634 -37.130955 
L 46.725413 -37.366003 
L 46.807535 -37.601051 
L 46.903052 -37.8361 
L 47.006031 -38.071148 
L 47.110397 -38.306196 
L 47.210683 -38.541244 
L 47.302565 -38.776292 
L 47.998841 -38.776292 
L 47.998841 -38.776292 
L 48.090724 -38.541244 
L 48.19101 -38.306196 
L 48.295376 -38.071148 
L 48.398354 -37.8361 
L 48.493871 -37.601051 
L 48.575994 -37.366003 
L 48.639773 -37.130955 
L 48.68205 -36.895907 
L 48.702055 -36.660859 
L 48.701656 -36.425811 
L 48.685196 -36.190763 
L 48.658887 -35.955715 
L 48.629865 -35.720667 
L 48.605045 -35.485619 
L 48.589989 -35.250571 
L 48.58797 -35.015523 
L 48.599429 -34.780475 
L 48.621897 -34.545427 
L 48.650419 -34.310379 
L 48.678395 -34.075331 
L 48.698681 -33.840283 
L 48.704769 -33.605235 
L 48.691832 -33.370187 
L 48.65747 -33.135139 
L 48.602047 -32.90009 
L 48.528606 -32.665042 
L 48.442408 -32.429994 
L 48.350222 -32.194946 
L 48.259497 -31.959898 
L 48.177569 -31.72485 
L 48.110992 -31.489802 
L 48.065049 -31.254754 
L 48.04346 -31.019706 
L 48.048237 -30.784658 
L 48.079691 -30.54961 
L 48.13653 -30.314562 
L 48.216085 -30.079514 
L 48.314661 -29.844466 
L 48.428041 -29.609418 
L 48.552139 -29.37437 
L 48.683736 -29.139322 
L 48.821201 -28.904274 
L 48.965035 -28.669226 
L 49.118072 -28.434178 
L 49.285202 -28.19913 
L 49.472575 -27.964081 
L 49.686352 -27.729033 
L 49.931208 -27.493985 
L 50.208881 -27.258937 
L 50.517119 -27.023889 
L 50.8493 -26.788841 
L 51.194922 -26.553793 
L 51.540939 -26.318745 
L 51.873748 -26.083697 
L 52.181468 -25.848649 
L 52.456045 -25.613601 
L 52.69474 -25.378553 
L 52.900671 -25.143505 
L 53.082246 -24.908457 
L 53.251572 -24.673409 
L 53.422125 -24.438361 
L 53.60614 -24.203313 
L 53.812234 -23.968265 
L 54.043774 -23.733217 
L 54.298325 -23.498169 
L 54.568314 -23.26312 
L 54.842787 -23.028072 
L 55.109855 -22.793024 
L 55.359266 -22.557976 
L 55.584489 -22.322928 
L 55.783762 -22.08788 
L 55.959825 -21.852832 
L 56.118379 -21.617784 
L 56.265636 -21.382736 
L 56.405595 -21.147688 
L 56.537773 -20.91264 
L 56.655987 -20.677592 
L 56.748541 -20.442544 
L 56.799785 -20.207496 
L 56.792671 -19.972448 
L 56.711682 -19.7374 
L 56.54546 -19.502352 
L 56.288595 -19.267304 
L 55.942254 -19.032256 
L 55.513709 -18.797208 
L 55.015005 -18.562159 
L 54.461218 -18.327111 
L 53.868732 -18.092063 
L 53.253846 -17.857015 
L 52.631876 -17.621967 
L 52.016709 -17.386919 
L 51.420665 -17.151871 
L 50.854485 -16.916823 
L 50.327294 -16.681775 
L 49.846454 -16.446727 
L 49.417344 -16.211679 
L 49.04313 -15.976631 
L 48.724642 -15.741583 
L 48.460417 -15.506535 
z
" style="stroke: #414141; stroke-width: 0.15"/>
    </defs>
    <g clip-path="url(#p4a40a06712)">
     <use xlink:href="#mcc0e444c0b" x="0" y="84.96" style="fill: #efb792; stroke: #414141; stroke-width: 0.15"/>
    </g>
   </g>
   <g id="PolyCollection_3">
    <defs>
     <path id="me740901da1" d="M 71.707284 -15.756854 
L 69.339531 -15.756854 
L 68.955586 -15.900135 
L 68.492328 -16.043415 
L 67.948967 -16.186695 
L 67.329941 -16.329975 
L 66.645678 -16.473255 
L 65.912809 -16.616535 
L 65.153724 -16.759816 
L 64.395401 -16.903096 
L 63.667596 -17.046376 
L 63.000552 -17.189656 
L 62.422514 -17.332936 
L 61.957334 -17.476217 
L 61.62248 -17.619497 
L 61.427679 -17.762777 
L 61.374326 -17.906057 
L 61.455677 -18.049337 
L 61.657739 -18.192618 
L 61.960691 -18.335898 
L 62.340637 -18.479178 
L 62.771502 -18.622458 
L 63.226898 -18.765738 
L 63.681855 -18.909018 
L 64.114309 -19.052299 
L 64.506297 -19.195579 
L 64.844791 -19.338859 
L 65.122106 -19.482139 
L 65.335849 -19.625419 
L 65.488383 -19.7687 
L 65.585838 -19.91198 
L 65.636782 -20.05526 
L 65.650713 -20.19854 
L 65.636592 -20.34182 
L 65.601662 -20.4851 
L 65.55073 -20.628381 
L 65.48606 -20.771661 
L 65.407866 -20.914941 
L 65.315305 -21.058221 
L 65.207753 -21.201501 
L 65.086089 -21.344782 
L 64.953694 -21.488062 
L 64.816941 -21.631342 
L 64.685047 -21.774622 
L 64.569296 -21.917902 
L 64.481778 -22.061182 
L 64.433882 -22.204463 
L 64.434844 -22.347743 
L 64.490629 -22.491023 
L 64.603332 -22.634303 
L 64.771208 -22.777583 
L 64.989238 -22.920864 
L 65.250109 -23.064144 
L 65.545337 -23.207424 
L 65.866316 -23.350704 
L 66.205093 -23.493984 
L 66.554758 -23.637264 
L 66.909458 -23.780545 
L 67.264122 -23.923825 
L 67.614038 -24.067105 
L 67.954449 -24.210385 
L 68.280288 -24.353665 
L 68.586136 -24.496946 
L 68.866409 -24.640226 
L 69.115719 -24.783506 
L 69.329345 -24.926786 
L 69.503706 -25.070066 
L 69.636771 -25.213346 
L 69.728326 -25.356627 
L 69.780094 -25.499907 
L 69.795678 -25.643187 
L 69.780341 -25.786467 
L 69.74064 -25.929747 
L 69.683936 -26.073028 
L 69.617817 -26.216308 
L 69.549473 -26.359588 
L 69.485107 -26.502868 
L 69.429423 -26.646148 
L 69.3853 -26.789428 
L 69.35368 -26.932709 
L 69.333729 -27.075989 
L 69.323241 -27.219269 
L 69.319242 -27.362549 
L 69.318682 -27.505829 
L 69.319118 -27.64911 
L 69.319245 -27.79239 
L 69.319187 -27.93567 
L 69.320505 -28.07895 
L 69.325904 -28.22223 
L 69.338724 -28.36551 
L 69.362303 -28.508791 
L 69.39934 -28.652071 
L 69.451377 -28.795351 
L 69.518484 -28.938631 
L 69.599203 -29.081911 
L 69.690728 -29.225192 
L 69.789277 -29.368472 
L 69.890586 -29.511752 
L 69.990416 -29.655032 
L 70.084995 -29.798312 
L 70.17135 -29.941592 
L 70.875466 -29.941592 
L 70.875466 -29.941592 
L 70.96182 -29.798312 
L 71.056399 -29.655032 
L 71.156229 -29.511752 
L 71.257539 -29.368472 
L 71.356088 -29.225192 
L 71.447612 -29.081911 
L 71.528331 -28.938631 
L 71.595439 -28.795351 
L 71.647475 -28.652071 
L 71.684512 -28.508791 
L 71.708091 -28.36551 
L 71.720911 -28.22223 
L 71.72631 -28.07895 
L 71.727628 -27.93567 
L 71.727571 -27.79239 
L 71.727697 -27.64911 
L 71.728133 -27.505829 
L 71.727573 -27.362549 
L 71.723574 -27.219269 
L 71.713087 -27.075989 
L 71.693136 -26.932709 
L 71.661516 -26.789428 
L 71.617392 -26.646148 
L 71.561708 -26.502868 
L 71.497342 -26.359588 
L 71.428999 -26.216308 
L 71.362879 -26.073028 
L 71.306175 -25.929747 
L 71.266475 -25.786467 
L 71.251137 -25.643187 
L 71.266721 -25.499907 
L 71.318489 -25.356627 
L 71.410044 -25.213346 
L 71.543109 -25.070066 
L 71.717471 -24.926786 
L 71.931096 -24.783506 
L 72.180406 -24.640226 
L 72.460679 -24.496946 
L 72.766528 -24.353665 
L 73.092367 -24.210385 
L 73.432778 -24.067105 
L 73.782694 -23.923825 
L 74.137358 -23.780545 
L 74.492057 -23.637264 
L 74.841722 -23.493984 
L 75.180499 -23.350704 
L 75.501479 -23.207424 
L 75.796706 -23.064144 
L 76.057577 -22.920864 
L 76.275608 -22.777583 
L 76.443483 -22.634303 
L 76.556187 -22.491023 
L 76.611971 -22.347743 
L 76.612934 -22.204463 
L 76.565038 -22.061182 
L 76.47752 -21.917902 
L 76.361769 -21.774622 
L 76.229874 -21.631342 
L 76.093121 -21.488062 
L 75.960726 -21.344782 
L 75.839063 -21.201501 
L 75.731511 -21.058221 
L 75.638949 -20.914941 
L 75.560755 -20.771661 
L 75.496085 -20.628381 
L 75.445153 -20.4851 
L 75.410223 -20.34182 
L 75.396103 -20.19854 
L 75.410034 -20.05526 
L 75.460978 -19.91198 
L 75.558433 -19.7687 
L 75.710966 -19.625419 
L 75.924709 -19.482139 
L 76.202024 -19.338859 
L 76.540518 -19.195579 
L 76.932507 -19.052299 
L 77.364961 -18.909018 
L 77.819917 -18.765738 
L 78.275314 -18.622458 
L 78.706178 -18.479178 
L 79.086124 -18.335898 
L 79.389076 -18.192618 
L 79.591138 -18.049337 
L 79.67249 -17.906057 
L 79.619137 -17.762777 
L 79.424336 -17.619497 
L 79.089482 -17.476217 
L 78.624301 -17.332936 
L 78.046263 -17.189656 
L 77.37922 -17.046376 
L 76.651414 -16.903096 
L 75.893092 -16.759816 
L 75.134007 -16.616535 
L 74.401138 -16.473255 
L 73.716874 -16.329975 
L 73.097849 -16.186695 
L 72.554488 -16.043415 
L 72.091229 -15.900135 
L 71.707284 -15.756854 
z
" style="stroke: #414141; stroke-width: 0.15"/>
    </defs>
    <g clip-path="url(#p4a40a06712)">
     <use xlink:href="#me740901da1" x="0" y="84.96" style="fill: #7e5c60; stroke: #414141; stroke-width: 0.15"/>
    </g>
   </g>
   <g id="line2d_7">
    <path d="M 24.777999 61.748481 
L 24.777999 17.030134 
" clip-path="url(#p4a40a06712)" style="fill: none; stroke: #8c8c8c; stroke-width: 0.75; stroke-linecap: round"/>
   </g>
   <g id="line2d_8">
    <path d="M 24.777999 48.083596 
L 24.777999 29.279677 
" clip-path="url(#p4a40a06712)" style="fill: none; stroke: #8c8c8c; stroke-width: 4; stroke-linecap: round"/>
   </g>
   <g id="line2d_9">
    <path d="M 24.777999 38.402536 
" clip-path="url(#p4a40a06712)" style="fill: none; stroke: #414141; stroke-width: 1.2; stroke-linecap: round"/>
    <defs>
     <path id="m94ddbed468" d="M 0 0.833333 
C 0.221003 0.833333 0.432983 0.745528 0.589256 0.589256 
C 0.745528 0.432983 0.833333 0.221003 0.833333 0 
C 0.833333 -0.221003 0.745528 -0.432983 0.589256 -0.589256 
C 0.432983 -0.745528 0.221003 -0.833333 0 -0.833333 
C -0.221003 -0.833333 -0.432983 -0.745528 -0.589256 -0.589256 
C -0.745528 -0.432983 -0.833333 -0.221003 -0.833333 0 
C -0.833333 0.221003 -0.745528 0.432983 -0.589256 0.589256 
C -0.432983 0.745528 -0.221003 0.833333 0 0.833333 
z
" style="stroke: #ffffff; stroke-width: 0.8"/>
    </defs>
    <g clip-path="url(#p4a40a06712)">
     <use xlink:href="#m94ddbed468" x="24.777999" y="38.402536" style="fill: #ffffff; stroke: #ffffff; stroke-width: 0.8"/>
    </g>
   </g>
   <g id="line2d_10">
    <path d="M 47.650703 67.461864 
L 47.650703 56.511665 
" clip-path="url(#p4a40a06712)" style="fill: none; stroke: #8c8c8c; stroke-width: 0.75; stroke-linecap: round"/>
   </g>
   <g id="line2d_11">
    <path d="M 47.650703 65.098911 
L 47.650703 59.994856 
" clip-path="url(#p4a40a06712)" style="fill: none; stroke: #8c8c8c; stroke-width: 4; stroke-linecap: round"/>
   </g>
   <g id="line2d_12">
    <path d="M 47.650703 62.941213 
" clip-path="url(#p4a40a06712)" style="fill: none; stroke: #414141; stroke-width: 1.2; stroke-linecap: round"/>
    <g clip-path="url(#p4a40a06712)">
     <use xlink:href="#m94ddbed468" x="47.650703" y="62.941213" style="fill: #ffffff; stroke: #ffffff; stroke-width: 0.8"/>
    </g>
   </g>
   <g id="line2d_13">
    <path d="M 70.523408 67.889009 
L 70.523408 56.332544 
" clip-path="url(#p4a40a06712)" style="fill: none; stroke: #8c8c8c; stroke-width: 0.75; stroke-linecap: round"/>
   </g>
   <g id="line2d_14">
    <path d="M 70.523408 67.016911 
L 70.523408 62.520539 
" clip-path="url(#p4a40a06712)" style="fill: none; stroke: #8c8c8c; stroke-width: 4; stroke-linecap: round"/>
   </g>
   <g id="line2d_15">
    <path d="M 70.523408 64.699529 
" clip-path="url(#p4a40a06712)" style="fill: none; stroke: #414141; stroke-width: 1.2; stroke-linecap: round"/>
    <g clip-path="url(#p4a40a06712)">
     <use xlink:href="#m94ddbed468" x="70.523408" y="64.699529" style="fill: #ffffff; stroke: #ffffff; stroke-width: 0.8"/>
    </g>
   </g>
   <g id="patch_3">
    <path d="M 13.341646 74.419526 
L 13.341646 4.076256 
" style="fill: none; stroke: #777777; stroke-width: 0.5; stroke-linejoin: miter; stroke-linecap: square"/>
   </g>
   <g id="patch_4">
    <path d="M 13.341646 76.919526 
L 81.95976 76.919526 
" style="fill: none; stroke: #777777; stroke-width: 0.5; stroke-linejoin: miter; stroke-linecap: square"/>
   </g>
  </g>
 </g>
 <defs>
  <clipPath id="p4a40a06712">
   <rect x="13.341646" y="4.076256" width="68.618114" height="70.34327"/>
  </clipPath>
 </defs>
</svg>
