<?xml version="1.0" encoding="utf-8" standalone="no"?>
<!DOCTYPE svg PUBLIC "-//W3C//DTD SVG 1.1//EN"
  "http://www.w3.org/Graphics/SVG/1.1/DTD/svg11.dtd">
<svg xmlns:xlink="http://www.w3.org/1999/xlink" width="254.88pt" height="84.96pt" viewBox="0 0 254.88 84.96" xmlns="http://www.w3.org/2000/svg" version="1.1">
 <metadata>
  <rdf:RDF xmlns:dc="http://purl.org/dc/elements/1.1/" xmlns:cc="http://creativecommons.org/ns#" xmlns:rdf="http://www.w3.org/1999/02/22-rdf-syntax-ns#">
   <cc:Work>
    <dc:type rdf:resource="http://purl.org/dc/dcmitype/StillImage"/>
    <dc:date>2024-05-27T15:36:58.731310</dc:date>
    <dc:format>image/svg+xml</dc:format>
    <dc:creator>
     <cc:Agent>
      <dc:title>Matplotlib v3.8.3, https://matplotlib.org/</dc:title>
     </cc:Agent>
    </dc:creator>
   </cc:Work>
  </rdf:RDF>
 </metadata>
 <defs>
  <style type="text/css">*{stroke-linejoin: round; stroke-linecap: butt}</style>
 </defs>
 <g id="figure_1">
  <g id="patch_1">
   <path d="M 0 84.96 
L 254.88 84.96 
L 254.88 0 
L 0 0 
z
" style="fill: #ffffff"/>
  </g>
  <g id="axes_1">
   <g id="patch_2">
    <path d="M 10.005084 54.222338 
L 251.87976 54.222338 
L 251.87976 4.076256 
L 10.005084 4.076256 
z
" style="fill: #ffffff"/>
   </g>
   <g id="matplotlib.axis_1">
    <g id="xtick_1">
     <g id="text_1">
      <!-- CD20+ Cells -->
      <g style="fill: #333333" transform="translate(24.333152 78.266166) rotate(-90) scale(0.035 -0.035)">
       <defs>
        <path id="Helvetica-43" d="M 2422 4716 
Q 3294 4716 3775 4256 
Q 4256 3797 4309 3213 
L 3703 3213 
Q 3600 3656 3292 3915 
Q 2984 4175 2428 4175 
Q 1750 4175 1333 3698 
Q 916 3222 916 2238 
Q 916 1431 1292 929 
Q 1669 428 2416 428 
Q 3103 428 3463 956 
Q 3653 1234 3747 1688 
L 4353 1688 
Q 4272 963 3816 472 
Q 3269 -119 2341 -119 
Q 1541 -119 997 366 
Q 281 1006 281 2344 
Q 281 3359 819 4009 
Q 1400 4716 2422 4716 
z
M 2297 4716 
L 2297 4716 
z
" transform="scale(0.015625)"/>
        <path id="Helvetica-44" d="M 2250 531 
Q 2566 531 2769 597 
Q 3131 719 3363 1066 
Q 3547 1344 3628 1778 
Q 3675 2038 3675 2259 
Q 3675 3113 3336 3584 
Q 2997 4056 2244 4056 
L 1141 4056 
L 1141 531 
L 2250 531 
z
M 516 4591 
L 2375 4591 
Q 3322 4591 3844 3919 
Q 4309 3313 4309 2366 
Q 4309 1634 4034 1044 
Q 3550 0 2369 0 
L 516 0 
L 516 4591 
z
" transform="scale(0.015625)"/>
        <path id="Helvetica-32" d="M 200 0 
Q 231 578 439 1006 
Q 647 1434 1250 1784 
L 1850 2131 
Q 2253 2366 2416 2531 
Q 2672 2791 2672 3125 
Q 2672 3516 2437 3745 
Q 2203 3975 1813 3975 
Q 1234 3975 1013 3538 
Q 894 3303 881 2888 
L 309 2888 
Q 319 3472 525 3841 
Q 891 4491 1816 4491 
Q 2584 4491 2939 4075 
Q 3294 3659 3294 3150 
Q 3294 2613 2916 2231 
Q 2697 2009 2131 1694 
L 1703 1456 
Q 1397 1288 1222 1134 
Q 909 863 828 531 
L 3272 531 
L 3272 0 
L 200 0 
z
" transform="scale(0.015625)"/>
        <path id="Helvetica-30" d="M 1731 4475 
Q 2600 4475 2988 3759 
Q 3288 3206 3288 2244 
Q 3288 1331 3016 734 
Q 2622 -122 1728 -122 
Q 922 -122 528 578 
Q 200 1163 200 2147 
Q 200 2909 397 3456 
Q 766 4475 1731 4475 
z
M 1725 391 
Q 2163 391 2422 778 
Q 2681 1166 2681 2222 
Q 2681 2984 2493 3476 
Q 2306 3969 1766 3969 
Q 1269 3969 1039 3501 
Q 809 3034 809 2125 
Q 809 1441 956 1025 
Q 1181 391 1725 391 
z
" transform="scale(0.015625)"/>
        <path id="Helvetica-2b" d="M 288 1369 
L 288 1894 
L 1650 1894 
L 1650 3266 
L 2184 3266 
L 2184 1894 
L 3547 1894 
L 3547 1369 
L 2184 1369 
L 2184 0 
L 1650 0 
L 1650 1369 
L 288 1369 
z
" transform="scale(0.015625)"/>
        <path id="Helvetica-20" transform="scale(0.015625)"/>
        <path id="Helvetica-65" d="M 1806 3422 
Q 2163 3422 2497 3255 
Q 2831 3088 3006 2822 
Q 3175 2569 3231 2231 
Q 3281 2000 3281 1494 
L 828 1494 
Q 844 984 1069 676 
Q 1294 369 1766 369 
Q 2206 369 2469 659 
Q 2619 828 2681 1050 
L 3234 1050 
Q 3213 866 3089 639 
Q 2966 413 2813 269 
Q 2556 19 2178 -69 
Q 1975 -119 1719 -119 
Q 1094 -119 659 336 
Q 225 791 225 1609 
Q 225 2416 662 2919 
Q 1100 3422 1806 3422 
z
M 2703 1941 
Q 2669 2306 2544 2525 
Q 2313 2931 1772 2931 
Q 1384 2931 1121 2651 
Q 859 2372 844 1941 
L 2703 1941 
z
M 1753 3428 
L 1753 3428 
z
" transform="scale(0.015625)"/>
        <path id="Helvetica-6c" d="M 428 4591 
L 991 4591 
L 991 0 
L 428 0 
L 428 4591 
z
" transform="scale(0.015625)"/>
        <path id="Helvetica-73" d="M 747 1050 
Q 772 769 888 619 
Q 1100 347 1625 347 
Q 1938 347 2175 483 
Q 2413 619 2413 903 
Q 2413 1119 2222 1231 
Q 2100 1300 1741 1391 
L 1294 1503 
Q 866 1609 663 1741 
Q 300 1969 300 2372 
Q 300 2847 642 3140 
Q 984 3434 1563 3434 
Q 2319 3434 2653 2991 
Q 2863 2709 2856 2384 
L 2325 2384 
Q 2309 2575 2191 2731 
Q 1997 2953 1519 2953 
Q 1200 2953 1036 2831 
Q 872 2709 872 2509 
Q 872 2291 1088 2159 
Q 1213 2081 1456 2022 
L 1828 1931 
Q 2434 1784 2641 1647 
Q 2969 1431 2969 969 
Q 2969 522 2630 197 
Q 2291 -128 1597 -128 
Q 850 -128 539 211 
Q 228 550 206 1050 
L 747 1050 
z
M 1578 3428 
L 1578 3428 
z
" transform="scale(0.015625)"/>
       </defs>
       <use xlink:href="#Helvetica-43"/>
       <use xlink:href="#Helvetica-44" x="72.216797"/>
       <use xlink:href="#Helvetica-32" x="144.433594"/>
       <use xlink:href="#Helvetica-30" x="200.048828"/>
       <use xlink:href="#Helvetica-2b" x="255.664062"/>
       <use xlink:href="#Helvetica-20" x="314.0625"/>
       <use xlink:href="#Helvetica-43" x="341.845703"/>
       <use xlink:href="#Helvetica-65" x="414.0625"/>
       <use xlink:href="#Helvetica-6c" x="469.677734"/>
       <use xlink:href="#Helvetica-6c" x="491.894531"/>
       <use xlink:href="#Helvetica-73" x="514.111328"/>
      </g>
     </g>
    </g>
    <g id="xtick_2">
     <g id="text_2">
      <!-- TCRαδ+ Cells -->
      <g style="fill: #333333" transform="translate(51.208116 80.786713) rotate(-90) scale(0.035 -0.035)">
       <defs>
        <path id="Helvetica-54" d="M 3828 4591 
L 3828 4044 
L 2281 4044 
L 2281 0 
L 1650 0 
L 1650 4044 
L 103 4044 
L 103 4591 
L 3828 4591 
z
" transform="scale(0.015625)"/>
        <path id="Helvetica-52" d="M 2622 2488 
Q 3059 2488 3314 2663 
Q 3569 2838 3569 3294 
Q 3569 3784 3213 3963 
Q 3022 4056 2703 4056 
L 1184 4056 
L 1184 2488 
L 2622 2488 
z
M 563 4591 
L 2688 4591 
Q 3213 4591 3553 4438 
Q 4200 4144 4200 3353 
Q 4200 2941 4029 2678 
Q 3859 2416 3553 2256 
Q 3822 2147 3958 1969 
Q 4094 1791 4109 1391 
L 4131 775 
Q 4141 513 4175 384 
Q 4231 166 4375 103 
L 4375 0 
L 3613 0 
Q 3581 59 3562 153 
Q 3544 247 3531 516 
L 3494 1281 
Q 3472 1731 3159 1884 
Q 2981 1969 2600 1969 
L 1184 1969 
L 1184 0 
L 563 0 
L 563 4591 
z
" transform="scale(0.015625)"/>
        <path id="Helvetica-3b1" d="M 3347 703 
Q 3334 428 3525 434 
Q 3641 434 3700 475 
L 3700 -19 
Q 3628 -44 3513 -50 
Q 3391 -63 3309 -63 
Q 3084 -56 2956 103 
Q 2816 256 2816 475 
L 2803 475 
Q 2413 -63 1734 -63 
Q 1006 -50 647 459 
Q 281 953 281 1644 
Q 281 2350 634 2859 
Q 984 3378 1741 3391 
Q 2413 3391 2797 2847 
L 2809 2847 
L 2809 3328 
L 3347 3328 
L 3347 703 
z
M 1825 397 
Q 2075 397 2253 513 
Q 2425 622 2541 806 
Q 2766 1184 2766 1638 
Q 2766 2144 2559 2528 
Q 2350 2919 1797 2931 
Q 1306 2919 1081 2534 
Q 856 2156 856 1697 
Q 856 1209 1081 819 
Q 1306 409 1825 397 
z
" transform="scale(0.015625)"/>
        <path id="Helvetica-3b4" d="M 666 4519 
L 3188 4519 
L 3188 4056 
L 1394 4056 
L 1394 4044 
L 2509 3303 
Q 3134 2881 3372 2469 
Q 3591 2053 3584 1600 
Q 3578 934 3163 447 
Q 2738 -50 1938 -63 
Q 1203 -56 769 403 
Q 331 850 325 1556 
Q 341 3066 1863 3188 
L 1863 3200 
L 666 4056 
L 666 4519 
z
M 1991 397 
Q 2497 403 2731 794 
Q 2969 1166 2969 1606 
Q 2969 1856 2919 2041 
Q 2866 2222 2791 2344 
Q 2713 2463 2638 2541 
Q 2559 2619 2509 2650 
Q 2381 2766 2156 2766 
Q 947 2766 941 1528 
Q 941 1056 1216 738 
Q 1491 403 1991 397 
z
" transform="scale(0.015625)"/>
       </defs>
       <use xlink:href="#Helvetica-54"/>
       <use xlink:href="#Helvetica-43" x="61.083984"/>
       <use xlink:href="#Helvetica-52" x="133.300781"/>
       <use xlink:href="#Helvetica-3b1" x="205.517578"/>
       <use xlink:href="#Helvetica-3b4" x="266.601562"/>
       <use xlink:href="#Helvetica-2b" x="327.685547"/>
       <use xlink:href="#Helvetica-20" x="386.083984"/>
       <use xlink:href="#Helvetica-43" x="413.867188"/>
       <use xlink:href="#Helvetica-65" x="486.083984"/>
       <use xlink:href="#Helvetica-6c" x="541.699219"/>
       <use xlink:href="#Helvetica-6c" x="563.916016"/>
       <use xlink:href="#Helvetica-73" x="586.132812"/>
      </g>
     </g>
    </g>
    <g id="xtick_3">
     <g id="text_3">
      <!-- IL7R+ Cells -->
      <g style="fill: #333333" transform="translate(78.08308 76.710854) rotate(-90) scale(0.035 -0.035)">
       <defs>
        <path id="Helvetica-49" d="M 628 4591 
L 1256 4591 
L 1256 0 
L 628 0 
L 628 4591 
z
" transform="scale(0.015625)"/>
        <path id="Helvetica-4c" d="M 488 4591 
L 1109 4591 
L 1109 547 
L 3434 547 
L 3434 0 
L 488 0 
L 488 4591 
z
" transform="scale(0.015625)"/>
        <path id="Helvetica-37" d="M 3347 4400 
L 3347 3909 
Q 3131 3700 2773 3181 
Q 2416 2663 2141 2063 
Q 1869 1478 1728 997 
Q 1638 688 1494 0 
L 872 0 
Q 1084 1281 1809 2550 
Q 2238 3294 2709 3834 
L 234 3834 
L 234 4400 
L 3347 4400 
z
" transform="scale(0.015625)"/>
       </defs>
       <use xlink:href="#Helvetica-49"/>
       <use xlink:href="#Helvetica-4c" x="27.783203"/>
       <use xlink:href="#Helvetica-37" x="83.398438"/>
       <use xlink:href="#Helvetica-52" x="139.013672"/>
       <use xlink:href="#Helvetica-2b" x="211.230469"/>
       <use xlink:href="#Helvetica-20" x="269.628906"/>
       <use xlink:href="#Helvetica-43" x="297.412109"/>
       <use xlink:href="#Helvetica-65" x="369.628906"/>
       <use xlink:href="#Helvetica-6c" x="425.244141"/>
       <use xlink:href="#Helvetica-6c" x="447.460938"/>
       <use xlink:href="#Helvetica-73" x="469.677734"/>
      </g>
     </g>
    </g>
    <g id="xtick_4">
     <g id="text_4">
      <!-- EOMES+ Cells -->
      <g style="fill: #333333" transform="translate(104.958044 81.95976) rotate(-90) scale(0.035 -0.035)">
       <defs>
        <path id="Helvetica-45" d="M 547 4591 
L 3894 4591 
L 3894 4028 
L 1153 4028 
L 1153 2634 
L 3688 2634 
L 3688 2103 
L 1153 2103 
L 1153 547 
L 3941 547 
L 3941 0 
L 547 0 
L 547 4591 
z
M 2244 4591 
L 2244 4591 
z
" transform="scale(0.015625)"/>
        <path id="Helvetica-4f" d="M 2469 4716 
Q 3684 4716 4269 3934 
Q 4725 3325 4725 2375 
Q 4725 1347 4203 666 
Q 3591 -134 2456 -134 
Q 1397 -134 791 566 
Q 250 1241 250 2272 
Q 250 3203 713 3866 
Q 1306 4716 2469 4716 
z
M 2531 422 
Q 3353 422 3720 1011 
Q 4088 1600 4088 2366 
Q 4088 3175 3664 3669 
Q 3241 4163 2506 4163 
Q 1794 4163 1344 3673 
Q 894 3184 894 2231 
Q 894 1469 1280 945 
Q 1666 422 2531 422 
z
M 2488 4716 
L 2488 4716 
z
" transform="scale(0.015625)"/>
        <path id="Helvetica-4d" d="M 472 4591 
L 1363 4591 
L 2681 709 
L 3991 4591 
L 4872 4591 
L 4872 0 
L 4281 0 
L 4281 2709 
Q 4281 2850 4287 3175 
Q 4294 3500 4294 3872 
L 2984 0 
L 2369 0 
L 1050 3872 
L 1050 3731 
Q 1050 3563 1058 3217 
Q 1066 2872 1066 2709 
L 1066 0 
L 472 0 
L 472 4591 
z
" transform="scale(0.015625)"/>
        <path id="Helvetica-53" d="M 894 1481 
Q 916 1091 1078 847 
Q 1388 391 2169 391 
Q 2519 391 2806 491 
Q 3363 684 3363 1184 
Q 3363 1559 3128 1719 
Q 2891 1875 2384 1991 
L 1763 2131 
Q 1153 2269 900 2434 
Q 463 2722 463 3294 
Q 463 3913 891 4309 
Q 1319 4706 2103 4706 
Q 2825 4706 3329 4357 
Q 3834 4009 3834 3244 
L 3250 3244 
Q 3203 3613 3050 3809 
Q 2766 4169 2084 4169 
Q 1534 4169 1293 3937 
Q 1053 3706 1053 3400 
Q 1053 3063 1334 2906 
Q 1519 2806 2169 2656 
L 2813 2509 
Q 3278 2403 3531 2219 
Q 3969 1897 3969 1284 
Q 3969 522 3414 194 
Q 2859 -134 2125 -134 
Q 1269 -134 784 303 
Q 300 738 309 1481 
L 894 1481 
z
M 2150 4716 
L 2150 4716 
z
" transform="scale(0.015625)"/>
       </defs>
       <use xlink:href="#Helvetica-45"/>
       <use xlink:href="#Helvetica-4f" x="66.699219"/>
       <use xlink:href="#Helvetica-4d" x="144.482422"/>
       <use xlink:href="#Helvetica-45" x="227.783203"/>
       <use xlink:href="#Helvetica-53" x="294.482422"/>
       <use xlink:href="#Helvetica-2b" x="361.181641"/>
       <use xlink:href="#Helvetica-20" x="419.580078"/>
       <use xlink:href="#Helvetica-43" x="447.363281"/>
       <use xlink:href="#Helvetica-65" x="519.580078"/>
       <use xlink:href="#Helvetica-6c" x="575.195312"/>
       <use xlink:href="#Helvetica-6c" x="597.412109"/>
       <use xlink:href="#Helvetica-73" x="619.628906"/>
      </g>
     </g>
    </g>
    <g id="xtick_5">
     <g id="text_5">
      <!-- TBX+ Cells -->
      <g style="fill: #333333" transform="translate(131.833008 76.125151) rotate(-90) scale(0.035 -0.035)">
       <defs>
        <path id="Helvetica-42" d="M 2213 2650 
Q 2606 2650 2825 2759 
Q 3169 2931 3169 3378 
Q 3169 3828 2803 3984 
Q 2597 4072 2191 4072 
L 1081 4072 
L 1081 2650 
L 2213 2650 
z
M 2422 531 
Q 2994 531 3238 863 
Q 3391 1072 3391 1369 
Q 3391 1869 2944 2050 
Q 2706 2147 2316 2147 
L 1081 2147 
L 1081 531 
L 2422 531 
z
M 472 4591 
L 2444 4591 
Q 3250 4591 3591 4109 
Q 3791 3825 3791 3453 
Q 3791 3019 3544 2741 
Q 3416 2594 3175 2472 
Q 3528 2338 3703 2169 
Q 4013 1869 4013 1341 
Q 4013 897 3734 538 
Q 3319 0 2413 0 
L 472 0 
L 472 4591 
z
" transform="scale(0.015625)"/>
        <path id="Helvetica-58" d="M 881 0 
L 131 0 
L 1775 2353 
L 234 4591 
L 1013 4591 
L 2184 2834 
L 3347 4591 
L 4088 4591 
L 2547 2353 
L 4163 0 
L 3391 0 
L 2153 1888 
L 881 0 
z
" transform="scale(0.015625)"/>
       </defs>
       <use xlink:href="#Helvetica-54"/>
       <use xlink:href="#Helvetica-42" x="61.083984"/>
       <use xlink:href="#Helvetica-58" x="127.783203"/>
       <use xlink:href="#Helvetica-2b" x="194.482422"/>
       <use xlink:href="#Helvetica-20" x="252.880859"/>
       <use xlink:href="#Helvetica-43" x="280.664062"/>
       <use xlink:href="#Helvetica-65" x="352.880859"/>
       <use xlink:href="#Helvetica-6c" x="408.496094"/>
       <use xlink:href="#Helvetica-6c" x="430.712891"/>
       <use xlink:href="#Helvetica-73" x="452.929688"/>
      </g>
     </g>
    </g>
    <g id="xtick_6">
     <g id="text_6">
      <!-- GATA+ Cells -->
      <g style="fill: #333333" transform="translate(158.707972 78.847494) rotate(-90) scale(0.035 -0.035)">
       <defs>
        <path id="Helvetica-47" d="M 2472 4709 
Q 3119 4709 3591 4459 
Q 4275 4100 4428 3200 
L 3813 3200 
Q 3700 3703 3347 3933 
Q 2994 4163 2456 4163 
Q 1819 4163 1383 3684 
Q 947 3206 947 2259 
Q 947 1441 1306 927 
Q 1666 413 2478 413 
Q 3100 413 3508 773 
Q 3916 1134 3925 1941 
L 2488 1941 
L 2488 2456 
L 4503 2456 
L 4503 0 
L 4103 0 
L 3953 591 
Q 3638 244 3394 109 
Q 2984 -122 2353 -122 
Q 1538 -122 950 406 
Q 309 1069 309 2225 
Q 309 3378 934 4059 
Q 1528 4709 2472 4709 
z
M 2369 4716 
L 2369 4716 
z
" transform="scale(0.015625)"/>
        <path id="Helvetica-41" d="M 2844 1881 
L 2147 3909 
L 1406 1881 
L 2844 1881 
z
M 1822 4591 
L 2525 4591 
L 4191 0 
L 3509 0 
L 3044 1375 
L 1228 1375 
L 731 0 
L 94 0 
L 1822 4591 
z
" transform="scale(0.015625)"/>
       </defs>
       <use xlink:href="#Helvetica-47"/>
       <use xlink:href="#Helvetica-41" x="77.783203"/>
       <use xlink:href="#Helvetica-54" x="144.482422"/>
       <use xlink:href="#Helvetica-41" x="205.566406"/>
       <use xlink:href="#Helvetica-2b" x="272.265625"/>
       <use xlink:href="#Helvetica-20" x="330.664062"/>
       <use xlink:href="#Helvetica-43" x="358.447266"/>
       <use xlink:href="#Helvetica-65" x="430.664062"/>
       <use xlink:href="#Helvetica-6c" x="486.279297"/>
       <use xlink:href="#Helvetica-6c" x="508.496094"/>
       <use xlink:href="#Helvetica-73" x="530.712891"/>
      </g>
     </g>
    </g>
    <g id="xtick_7">
     <g id="text_7">
      <!-- ICOS+ Cells -->
      <g style="fill: #333333" transform="translate(185.582936 77.875151) rotate(-90) scale(0.035 -0.035)">
       <use xlink:href="#Helvetica-49"/>
       <use xlink:href="#Helvetica-43" x="27.783203"/>
       <use xlink:href="#Helvetica-4f" x="100"/>
       <use xlink:href="#Helvetica-53" x="177.783203"/>
       <use xlink:href="#Helvetica-2b" x="244.482422"/>
       <use xlink:href="#Helvetica-20" x="302.880859"/>
       <use xlink:href="#Helvetica-43" x="330.664062"/>
       <use xlink:href="#Helvetica-65" x="402.880859"/>
       <use xlink:href="#Helvetica-6c" x="458.496094"/>
       <use xlink:href="#Helvetica-6c" x="480.712891"/>
       <use xlink:href="#Helvetica-73" x="502.929688"/>
      </g>
     </g>
    </g>
    <g id="xtick_8">
     <g id="text_8">
      <!-- RORγT+ Cells -->
      <g style="fill: #333333" transform="translate(212.469931 81.179916) rotate(-90) scale(0.035 -0.035)">
       <defs>
        <path id="Helvetica-3b3" d="M 1556 225 
L 581 2444 
Q 481 2700 416 2803 
Q 347 2894 244 2894 
Q 91 2888 56 2872 
L 56 3334 
Q 166 3384 313 3391 
Q 641 3391 788 3250 
Q 863 3188 922 3078 
Q 978 2963 1038 2809 
L 1844 878 
L 2828 3328 
L 3431 3328 
L 2131 225 
L 2131 -1253 
L 1556 -1253 
L 1556 225 
z
" transform="scale(0.015625)"/>
       </defs>
       <use xlink:href="#Helvetica-52"/>
       <use xlink:href="#Helvetica-4f" x="72.216797"/>
       <use xlink:href="#Helvetica-52" x="150"/>
       <use xlink:href="#Helvetica-3b3" x="222.216797"/>
       <use xlink:href="#Helvetica-54" x="277.832031"/>
       <use xlink:href="#Helvetica-2b" x="338.916016"/>
       <use xlink:href="#Helvetica-20" x="397.314453"/>
       <use xlink:href="#Helvetica-43" x="425.097656"/>
       <use xlink:href="#Helvetica-65" x="497.314453"/>
       <use xlink:href="#Helvetica-6c" x="552.929688"/>
       <use xlink:href="#Helvetica-6c" x="575.146484"/>
       <use xlink:href="#Helvetica-73" x="597.363281"/>
      </g>
     </g>
    </g>
    <g id="xtick_9">
     <g id="text_9">
      <!-- AHR+ Cells -->
      <g style="fill: #333333" transform="translate(239.332864 76.708119) rotate(-90) scale(0.035 -0.035)">
       <defs>
        <path id="Helvetica-48" d="M 503 4591 
L 1131 4591 
L 1131 2694 
L 3519 2694 
L 3519 4591 
L 4147 4591 
L 4147 0 
L 3519 0 
L 3519 2147 
L 1131 2147 
L 1131 0 
L 503 0 
L 503 4591 
z
" transform="scale(0.015625)"/>
       </defs>
       <use xlink:href="#Helvetica-41"/>
       <use xlink:href="#Helvetica-48" x="66.699219"/>
       <use xlink:href="#Helvetica-52" x="138.916016"/>
       <use xlink:href="#Helvetica-2b" x="211.132812"/>
       <use xlink:href="#Helvetica-20" x="269.53125"/>
       <use xlink:href="#Helvetica-43" x="297.314453"/>
       <use xlink:href="#Helvetica-65" x="369.53125"/>
       <use xlink:href="#Helvetica-6c" x="425.146484"/>
       <use xlink:href="#Helvetica-6c" x="447.363281"/>
       <use xlink:href="#Helvetica-73" x="469.580078"/>
      </g>
     </g>
    </g>
   </g>
   <g id="matplotlib.axis_2">
    <g id="ytick_1">
     <g id="line2d_1">
      <defs>
       <path id="m2559597dc1" d="M 0 0 
L -1 0 
" style="stroke: #777777; stroke-width: 0.5"/>
      </defs>
      <g>
       <use xlink:href="#m2559597dc1" x="10.005084" y="48.355357" style="fill: #777777; stroke: #777777; stroke-width: 0.5"/>
      </g>
     </g>
     <g id="text_10">
      <!-- 0 -->
      <g style="fill: #333333" transform="translate(6.336803 49.431373) scale(0.03 -0.03)">
       <use xlink:href="#Helvetica-30"/>
      </g>
     </g>
    </g>
    <g id="ytick_2">
     <g id="line2d_2">
      <g>
       <use xlink:href="#m2559597dc1" x="10.005084" y="40.975507" style="fill: #777777; stroke: #777777; stroke-width: 0.5"/>
      </g>
     </g>
     <g id="text_11">
      <!-- 20 -->
      <g style="fill: #333333" transform="translate(4.668521 42.051523) scale(0.03 -0.03)">
       <use xlink:href="#Helvetica-32"/>
       <use xlink:href="#Helvetica-30" x="55.615234"/>
      </g>
     </g>
    </g>
    <g id="ytick_3">
     <g id="line2d_3">
      <g>
       <use xlink:href="#m2559597dc1" x="10.005084" y="33.595657" style="fill: #777777; stroke: #777777; stroke-width: 0.5"/>
      </g>
     </g>
     <g id="text_12">
      <!-- 40 -->
      <g style="fill: #333333" transform="translate(4.668521 34.671672) scale(0.03 -0.03)">
       <defs>
        <path id="Helvetica-34" d="M 2116 1584 
L 2116 3613 
L 681 1584 
L 2116 1584 
z
M 2125 0 
L 2125 1094 
L 163 1094 
L 163 1644 
L 2213 4488 
L 2688 4488 
L 2688 1584 
L 3347 1584 
L 3347 1094 
L 2688 1094 
L 2688 0 
L 2125 0 
z
" transform="scale(0.015625)"/>
       </defs>
       <use xlink:href="#Helvetica-34"/>
       <use xlink:href="#Helvetica-30" x="55.615234"/>
      </g>
     </g>
    </g>
    <g id="ytick_4">
     <g id="line2d_4">
      <g>
       <use xlink:href="#m2559597dc1" x="10.005084" y="26.215806" style="fill: #777777; stroke: #777777; stroke-width: 0.5"/>
      </g>
     </g>
     <g id="text_13">
      <!-- 60 -->
      <g style="fill: #333333" transform="translate(4.668521 27.291822) scale(0.03 -0.03)">
       <defs>
        <path id="Helvetica-36" d="M 1872 4494 
Q 2622 4494 2917 4105 
Q 3213 3716 3213 3303 
L 2656 3303 
Q 2606 3569 2497 3719 
Q 2294 4000 1881 4000 
Q 1409 4000 1131 3564 
Q 853 3128 822 2316 
Q 1016 2600 1309 2741 
Q 1578 2866 1909 2866 
Q 2472 2866 2890 2506 
Q 3309 2147 3309 1434 
Q 3309 825 2912 354 
Q 2516 -116 1781 -116 
Q 1153 -116 697 361 
Q 241 838 241 1966 
Q 241 2800 444 3381 
Q 834 4494 1872 4494 
z
M 1831 384 
Q 2275 384 2495 682 
Q 2716 981 2716 1388 
Q 2716 1731 2519 2042 
Q 2322 2353 1803 2353 
Q 1441 2353 1167 2112 
Q 894 1872 894 1388 
Q 894 963 1142 673 
Q 1391 384 1831 384 
z
" transform="scale(0.015625)"/>
       </defs>
       <use xlink:href="#Helvetica-36"/>
       <use xlink:href="#Helvetica-30" x="55.615234"/>
      </g>
     </g>
    </g>
    <g id="ytick_5">
     <g id="line2d_5">
      <g>
       <use xlink:href="#m2559597dc1" x="10.005084" y="18.835956" style="fill: #777777; stroke: #777777; stroke-width: 0.5"/>
      </g>
     </g>
     <g id="text_14">
      <!-- 80 -->
      <g style="fill: #333333" transform="translate(4.668521 19.911972) scale(0.03 -0.03)">
       <defs>
        <path id="Helvetica-38" d="M 1741 2600 
Q 2113 2600 2322 2808 
Q 2531 3016 2531 3303 
Q 2531 3553 2331 3762 
Q 2131 3972 1722 3972 
Q 1316 3972 1134 3762 
Q 953 3553 953 3272 
Q 953 2956 1187 2778 
Q 1422 2600 1741 2600 
z
M 1775 384 
Q 2166 384 2423 595 
Q 2681 806 2681 1225 
Q 2681 1659 2415 1884 
Q 2150 2109 1734 2109 
Q 1331 2109 1076 1879 
Q 822 1650 822 1244 
Q 822 894 1055 639 
Q 1288 384 1775 384 
z
M 975 2384 
Q 741 2484 609 2619 
Q 363 2869 363 3269 
Q 363 3769 725 4128 
Q 1088 4488 1753 4488 
Q 2397 4488 2762 4148 
Q 3128 3809 3128 3356 
Q 3128 2938 2916 2678 
Q 2797 2531 2547 2391 
Q 2825 2263 2984 2097 
Q 3281 1784 3281 1284 
Q 3281 694 2884 283 
Q 2488 -128 1763 -128 
Q 1109 -128 657 226 
Q 206 581 206 1256 
Q 206 1653 400 1942 
Q 594 2231 975 2384 
z
" transform="scale(0.015625)"/>
       </defs>
       <use xlink:href="#Helvetica-38"/>
       <use xlink:href="#Helvetica-30" x="55.615234"/>
      </g>
     </g>
    </g>
    <g id="ytick_6">
     <g id="line2d_6">
      <g>
       <use xlink:href="#m2559597dc1" x="10.005084" y="11.456106" style="fill: #777777; stroke: #777777; stroke-width: 0.5"/>
      </g>
     </g>
     <g id="text_15">
      <!-- 100 -->
      <g style="fill: #333333" transform="translate(3.00024 12.532122) scale(0.03 -0.03)">
       <defs>
        <path id="Helvetica-31" d="M 613 3169 
L 613 3600 
Q 1222 3659 1462 3798 
Q 1703 3938 1822 4456 
L 2266 4456 
L 2266 0 
L 1666 0 
L 1666 3169 
L 613 3169 
z
" transform="scale(0.015625)"/>
       </defs>
       <use xlink:href="#Helvetica-31"/>
       <use xlink:href="#Helvetica-30" x="55.615234"/>
       <use xlink:href="#Helvetica-30" x="111.230469"/>
      </g>
     </g>
    </g>
    <g id="ytick_7">
     <g id="line2d_7">
      <g>
       <use xlink:href="#m2559597dc1" x="10.005084" y="4.076256" style="fill: #777777; stroke: #777777; stroke-width: 0.5"/>
      </g>
     </g>
     <g id="text_16">
      <!-- 120 -->
      <g style="fill: #333333" transform="translate(3.00024 5.152271) scale(0.03 -0.03)">
       <use xlink:href="#Helvetica-31"/>
       <use xlink:href="#Helvetica-32" x="55.615234"/>
       <use xlink:href="#Helvetica-30" x="111.230469"/>
      </g>
     </g>
    </g>
   </g>
   <g id="PolyCollection_1">
    <defs>
     <path id="mfcd8942b39" d="M 24.194445 -36.770083 
L 22.690687 -36.770083 
L 22.457289 -36.809314 
L 22.173436 -36.848544 
L 21.834558 -36.887775 
L 21.437181 -36.927005 
L 20.979282 -36.966236 
L 20.460651 -37.005467 
L 19.883259 -37.044697 
L 19.251642 -37.083928 
L 18.57326 -37.123158 
L 17.858784 -37.162389 
L 17.122245 -37.20162 
L 16.38093 -37.24085 
L 15.654928 -37.280081 
L 14.966245 -37.319311 
L 14.337463 -37.358542 
L 13.790001 -37.397773 
L 13.342135 -37.437003 
L 13.007016 -37.476234 
L 12.791 -37.515464 
L 12.69258 -37.554695 
L 12.702191 -37.593926 
L 12.802994 -37.633156 
L 12.972627 -37.672387 
L 13.185682 -37.711617 
L 13.416581 -37.750848 
L 13.642379 -37.790079 
L 13.845075 -37.829309 
L 14.013052 -37.86854 
L 14.141488 -37.90777 
L 14.231716 -37.947001 
L 14.289767 -37.986232 
L 14.324435 -38.025462 
L 14.345294 -38.064693 
L 14.361048 -38.103923 
L 14.378513 -38.143154 
L 14.402324 -38.182385 
L 14.435315 -38.221615 
L 14.479354 -38.260846 
L 14.536312 -38.300076 
L 14.608857 -38.339307 
L 14.700831 -38.378538 
L 14.817095 -38.417768 
L 14.962861 -38.456999 
L 15.142693 -38.496229 
L 15.359417 -38.53546 
L 15.613208 -38.574691 
L 15.901063 -38.613921 
L 16.216798 -38.653152 
L 16.551555 -38.692383 
L 16.894717 -38.731613 
L 17.235053 -38.770844 
L 17.561871 -38.810074 
L 17.86599 -38.849305 
L 18.140396 -38.888536 
L 18.380509 -38.927766 
L 18.584097 -38.966997 
L 18.750904 -39.006227 
L 18.882119 -39.045458 
L 18.979831 -39.084689 
L 19.046565 -39.123919 
L 19.085013 -39.16315 
L 19.097976 -39.20238 
L 19.088503 -39.241611 
L 19.060191 -39.280842 
L 19.017524 -39.320072 
L 18.96617 -39.359303 
L 18.913115 -39.398533 
L 18.866557 -39.437764 
L 18.835518 -39.476995 
L 18.82918 -39.516225 
L 18.856011 -39.555456 
L 18.92279 -39.594686 
L 19.033671 -39.633917 
L 19.189453 -39.673148 
L 19.387179 -39.712378 
L 19.620177 -39.751609 
L 19.878563 -39.790839 
L 20.150185 -39.83007 
L 20.421884 -39.869301 
L 20.68093 -39.908531 
L 20.916415 -39.947762 
L 21.120429 -39.986992 
L 21.288844 -40.026223 
L 21.421604 -40.065454 
L 21.52248 -40.104684 
L 21.598355 -40.143915 
L 21.658139 -40.183145 
L 21.711487 -40.222376 
L 21.767517 -40.261607 
L 21.833704 -40.300837 
L 21.915095 -40.340068 
L 22.013919 -40.379298 
L 22.129621 -40.418529 
L 22.259266 -40.45776 
L 22.398194 -40.49699 
L 22.540816 -40.536221 
L 22.681412 -40.575451 
L 22.814807 -40.614682 
L 22.93687 -40.653913 
L 23.948262 -40.653913 
L 23.948262 -40.653913 
L 24.070324 -40.614682 
L 24.20372 -40.575451 
L 24.344315 -40.536221 
L 24.486937 -40.49699 
L 24.625865 -40.45776 
L 24.75551 -40.418529 
L 24.871213 -40.379298 
L 24.970036 -40.340068 
L 25.051427 -40.300837 
L 25.117615 -40.261607 
L 25.173645 -40.222376 
L 25.226992 -40.183145 
L 25.286776 -40.143915 
L 25.362652 -40.104684 
L 25.463528 -40.065454 
L 25.596287 -40.026223 
L 25.764703 -39.986992 
L 25.968717 -39.947762 
L 26.204201 -39.908531 
L 26.463247 -39.869301 
L 26.734947 -39.83007 
L 27.006568 -39.790839 
L 27.264954 -39.751609 
L 27.497952 -39.712378 
L 27.695679 -39.673148 
L 27.85146 -39.633917 
L 27.962342 -39.594686 
L 28.02912 -39.555456 
L 28.055952 -39.516225 
L 28.049614 -39.476995 
L 28.018574 -39.437764 
L 27.972016 -39.398533 
L 27.918961 -39.359303 
L 27.867607 -39.320072 
L 27.82494 -39.280842 
L 27.796628 -39.241611 
L 27.787156 -39.20238 
L 27.800118 -39.16315 
L 27.838567 -39.123919 
L 27.905301 -39.084689 
L 28.003012 -39.045458 
L 28.134228 -39.006227 
L 28.301035 -38.966997 
L 28.504623 -38.927766 
L 28.744736 -38.888536 
L 29.019141 -38.849305 
L 29.32326 -38.810074 
L 29.650078 -38.770844 
L 29.990414 -38.731613 
L 30.333576 -38.692383 
L 30.668333 -38.653152 
L 30.984068 -38.613921 
L 31.271924 -38.574691 
L 31.525714 -38.53546 
L 31.742439 -38.496229 
L 31.92227 -38.456999 
L 32.068036 -38.417768 
L 32.1843 -38.378538 
L 32.276275 -38.339307 
L 32.348819 -38.300076 
L 32.405777 -38.260846 
L 32.449817 -38.221615 
L 32.482808 -38.182385 
L 32.506618 -38.143154 
L 32.524083 -38.103923 
L 32.539838 -38.064693 
L 32.560697 -38.025462 
L 32.595365 -37.986232 
L 32.653415 -37.947001 
L 32.743643 -37.90777 
L 32.872079 -37.86854 
L 33.040057 -37.829309 
L 33.242752 -37.790079 
L 33.468551 -37.750848 
L 33.699449 -37.711617 
L 33.912505 -37.672387 
L 34.082137 -37.633156 
L 34.182941 -37.593926 
L 34.192551 -37.554695 
L 34.094132 -37.515464 
L 33.878115 -37.476234 
L 33.542997 -37.437003 
L 33.095131 -37.397773 
L 32.547668 -37.358542 
L 31.918886 -37.319311 
L 31.230203 -37.280081 
L 30.504202 -37.24085 
L 29.762887 -37.20162 
L 29.026348 -37.162389 
L 28.311872 -37.123158 
L 27.633489 -37.083928 
L 27.001873 -37.044697 
L 26.424481 -37.005467 
L 25.905849 -36.966236 
L 25.447951 -36.927005 
L 25.050574 -36.887775 
L 24.711695 -36.848544 
L 24.427842 -36.809314 
L 24.194445 -36.770083 
z
" style="stroke: #6f6f6f; stroke-width: 0.15"/>
    </defs>
    <g clip-path="url(#pbd9f38bdca)">
     <use xlink:href="#mfcd8942b39" x="0" y="84.96" style="fill: #abc9ea; stroke: #6f6f6f; stroke-width: 0.15"/>
    </g>
   </g>
   <g id="PolyCollection_2">
    <defs>
     <path id="me7264b20f2" d="M 50.803332 -38.149142 
L 49.831727 -38.149142 
L 49.67699 -38.236961 
L 49.490642 -38.324781 
L 49.27074 -38.412601 
L 49.015604 -38.500421 
L 48.72344 -38.588241 
L 48.391886 -38.676061 
L 48.017641 -38.76388 
L 47.596351 -38.8517 
L 47.122943 -38.93952 
L 46.592509 -39.02734 
L 46.001734 -39.11516 
L 45.350706 -39.20298 
L 44.644786 -39.290799 
L 43.896118 -39.378619 
L 43.124331 -39.466439 
L 42.356091 -39.554259 
L 41.623355 -39.642079 
L 40.960438 -39.729899 
L 40.4003 -39.817718 
L 39.970626 -39.905538 
L 39.690399 -39.993358 
L 39.567544 -40.081178 
L 39.59807 -40.168998 
L 39.766793 -40.256818 
L 40.049468 -40.344637 
L 40.415894 -40.432457 
L 40.833433 -40.520277 
L 41.270401 -40.608097 
L 41.698891 -40.695917 
L 42.096765 -40.783737 
L 42.448761 -40.871556 
L 42.746779 -40.959376 
L 42.989532 -41.047196 
L 43.181745 -41.135016 
L 43.333054 -41.222836 
L 43.456738 -41.310656 
L 43.568328 -41.398475 
L 43.684137 -41.486295 
L 43.819765 -41.574115 
L 43.98865 -41.661935 
L 44.200762 -41.749755 
L 44.461584 -41.837574 
L 44.771501 -41.925394 
L 45.125713 -42.013214 
L 45.514709 -42.101034 
L 45.92529 -42.188854 
L 46.342021 -42.276674 
L 46.748944 -42.364493 
L 47.131308 -42.452313 
L 47.477082 -42.540133 
L 47.778018 -42.627953 
L 48.030122 -42.715773 
L 48.233462 -42.803593 
L 48.391402 -42.891412 
L 48.509408 -42.979232 
L 48.5937 -43.067052 
L 48.650019 -43.154872 
L 48.682765 -43.242692 
L 48.694666 -43.330512 
L 48.687012 -43.418331 
L 48.660362 -43.506151 
L 48.615522 -43.593971 
L 48.554531 -43.681791 
L 48.481384 -43.769611 
L 48.402325 -43.857431 
L 48.325594 -43.94525 
L 48.260666 -44.03307 
L 48.21714 -44.12089 
L 48.203458 -44.20871 
L 48.225715 -44.29653 
L 48.286758 -44.38435 
L 48.385719 -44.472169 
L 48.518041 -44.559989 
L 48.675967 -44.647809 
L 48.8494 -44.735629 
L 49.026977 -44.823449 
L 49.197205 -44.911269 
L 49.349526 -44.999088 
L 49.475211 -45.086908 
L 49.568012 -45.174728 
L 49.624578 -45.262548 
L 49.644623 -45.350368 
L 49.630871 -45.438188 
L 49.588792 -45.526007 
L 49.526121 -45.613827 
L 49.452197 -45.701647 
L 49.377116 -45.789467 
L 49.310782 -45.877287 
L 49.261933 -45.965107 
L 49.237267 -46.052926 
L 49.240792 -46.140746 
L 49.273508 -46.228566 
L 49.333473 -46.316386 
L 49.416242 -46.404206 
L 49.515599 -46.492026 
L 49.624454 -46.579845 
L 49.735748 -46.667665 
L 49.843226 -46.755485 
L 49.941989 -46.843305 
L 50.693071 -46.843305 
L 50.693071 -46.843305 
L 50.791833 -46.755485 
L 50.899312 -46.667665 
L 51.010605 -46.579845 
L 51.11946 -46.492026 
L 51.218818 -46.404206 
L 51.301586 -46.316386 
L 51.361551 -46.228566 
L 51.394267 -46.140746 
L 51.397792 -46.052926 
L 51.373127 -45.965107 
L 51.324278 -45.877287 
L 51.257944 -45.789467 
L 51.182863 -45.701647 
L 51.108938 -45.613827 
L 51.046268 -45.526007 
L 51.004188 -45.438188 
L 50.990437 -45.350368 
L 51.010482 -45.262548 
L 51.067048 -45.174728 
L 51.159849 -45.086908 
L 51.285534 -44.999088 
L 51.437855 -44.911269 
L 51.608082 -44.823449 
L 51.785659 -44.735629 
L 51.959093 -44.647809 
L 52.117019 -44.559989 
L 52.24934 -44.472169 
L 52.348302 -44.38435 
L 52.409345 -44.29653 
L 52.431602 -44.20871 
L 52.41792 -44.12089 
L 52.374393 -44.03307 
L 52.309466 -43.94525 
L 52.232734 -43.857431 
L 52.153676 -43.769611 
L 52.080529 -43.681791 
L 52.019537 -43.593971 
L 51.974698 -43.506151 
L 51.948048 -43.418331 
L 51.940394 -43.330512 
L 51.952295 -43.242692 
L 51.985041 -43.154872 
L 52.041359 -43.067052 
L 52.125651 -42.979232 
L 52.243657 -42.891412 
L 52.401597 -42.803593 
L 52.604938 -42.715773 
L 52.857041 -42.627953 
L 53.157978 -42.540133 
L 53.503751 -42.452313 
L 53.886115 -42.364493 
L 54.293038 -42.276674 
L 54.709769 -42.188854 
L 55.12035 -42.101034 
L 55.509347 -42.013214 
L 55.863558 -41.925394 
L 56.173476 -41.837574 
L 56.434297 -41.749755 
L 56.64641 -41.661935 
L 56.815295 -41.574115 
L 56.950923 -41.486295 
L 57.066731 -41.398475 
L 57.178321 -41.310656 
L 57.302006 -41.222836 
L 57.453315 -41.135016 
L 57.645527 -41.047196 
L 57.888281 -40.959376 
L 58.186299 -40.871556 
L 58.538294 -40.783737 
L 58.936168 -40.695917 
L 59.364658 -40.608097 
L 59.801627 -40.520277 
L 60.219166 -40.432457 
L 60.585592 -40.344637 
L 60.868267 -40.256818 
L 61.03699 -40.168998 
L 61.067515 -40.081178 
L 60.944661 -39.993358 
L 60.664433 -39.905538 
L 60.23476 -39.817718 
L 59.674621 -39.729899 
L 59.011705 -39.642079 
L 58.278968 -39.554259 
L 57.510729 -39.466439 
L 56.738942 -39.378619 
L 55.990274 -39.290799 
L 55.284354 -39.20298 
L 54.633326 -39.11516 
L 54.042551 -39.02734 
L 53.512117 -38.93952 
L 53.038709 -38.8517 
L 52.617418 -38.76388 
L 52.243173 -38.676061 
L 51.91162 -38.588241 
L 51.619456 -38.500421 
L 51.36432 -38.412601 
L 51.144417 -38.324781 
L 50.95807 -38.236961 
L 50.803332 -38.149142 
z
" style="stroke: #6f6f6f; stroke-width: 0.15"/>
    </defs>
    <g clip-path="url(#pbd9f38bdca)">
     <use xlink:href="#me7264b20f2" x="0" y="84.96" style="fill: #efb792; stroke: #6f6f6f; stroke-width: 0.15"/>
    </g>
   </g>
   <g id="PolyCollection_3">
    <defs>
     <path id="m64efbc75a2" d="M 77.712728 -37.341507 
L 76.67226 -37.341507 
L 76.521078 -37.408936 
L 76.354616 -37.476365 
L 76.180708 -37.543795 
L 76.0088 -37.611224 
L 75.848268 -37.678653 
L 75.70616 -37.746083 
L 75.584732 -37.813512 
L 75.479241 -37.880941 
L 75.376544 -37.948371 
L 75.25497 -38.0158 
L 75.08581 -38.083229 
L 74.83648 -38.150659 
L 74.475184 -38.218088 
L 73.976549 -38.285517 
L 73.327467 -38.352947 
L 72.532134 -38.420376 
L 71.615222 -38.487806 
L 70.622189 -38.555235 
L 69.616088 -38.622664 
L 68.670791 -38.690094 
L 67.861291 -38.757523 
L 67.252485 -38.824952 
L 66.888407 -38.892382 
L 66.784052 -38.959811 
L 66.921618 -39.02724 
L 67.2522 -39.09467 
L 67.702868 -39.162099 
L 68.187925 -39.229528 
L 68.622244 -39.296958 
L 68.934186 -39.364387 
L 69.075733 -39.431816 
L 69.028178 -39.499246 
L 68.802665 -39.566675 
L 68.435956 -39.634104 
L 67.982679 -39.701534 
L 67.505835 -39.768963 
L 67.067402 -39.836392 
L 66.72059 -39.903822 
L 66.504658 -39.971251 
L 66.442508 -40.03868 
L 66.540675 -40.10611 
L 66.790928 -40.173539 
L 67.172668 -40.240968 
L 67.65549 -40.308398 
L 68.201631 -40.375827 
L 68.768408 -40.443256 
L 69.310925 -40.510686 
L 69.785348 -40.578115 
L 70.152842 -40.645544 
L 70.383933 -40.712974 
L 70.462753 -40.780403 
L 70.390404 -40.847832 
L 70.186627 -40.915262 
L 69.889144 -40.982691 
L 69.550342 -41.05012 
L 69.23147 -41.11755 
L 68.994992 -41.184979 
L 68.896228 -41.252408 
L 68.975658 -41.319838 
L 69.253292 -41.387267 
L 69.726174 -41.454696 
L 70.369491 -41.522126 
L 71.141036 -41.589555 
L 71.988064 -41.656985 
L 72.855141 -41.724414 
L 73.691482 -41.791843 
L 74.456537 -41.859273 
L 75.123103 -41.926702 
L 75.677864 -41.994131 
L 76.119787 -42.061561 
L 76.457132 -42.12899 
L 76.703922 -42.196419 
L 76.87659 -42.263849 
L 76.991273 -42.331278 
L 77.061978 -42.398707 
L 77.099569 -42.466137 
L 77.11147 -42.533566 
L 77.101855 -42.600995 
L 77.072202 -42.668425 
L 77.022062 -42.735854 
L 76.949994 -42.803283 
L 76.854617 -42.870713 
L 76.735682 -42.938142 
L 76.595061 -43.005571 
L 76.437488 -43.073001 
L 76.270842 -43.14043 
L 76.105852 -43.207859 
L 75.955148 -43.275289 
L 75.831754 -43.342718 
L 75.747267 -43.410147 
L 75.710065 -43.477577 
L 75.723947 -43.545006 
L 75.787488 -43.612435 
L 75.894284 -43.679865 
L 76.034016 -43.747294 
L 76.194089 -43.814723 
L 76.361492 -43.882153 
L 76.524499 -43.949582 
L 76.673907 -44.017011 
L 77.71108 -44.017011 
L 77.71108 -44.017011 
L 77.860489 -43.949582 
L 78.023495 -43.882153 
L 78.190898 -43.814723 
L 78.350971 -43.747294 
L 78.490703 -43.679865 
L 78.5975 -43.612435 
L 78.661041 -43.545006 
L 78.674923 -43.477577 
L 78.637721 -43.410147 
L 78.553233 -43.342718 
L 78.42984 -43.275289 
L 78.279136 -43.207859 
L 78.114146 -43.14043 
L 77.9475 -43.073001 
L 77.789926 -43.005571 
L 77.649306 -42.938142 
L 77.53037 -42.870713 
L 77.434994 -42.803283 
L 77.362926 -42.735854 
L 77.312785 -42.668425 
L 77.283132 -42.600995 
L 77.273518 -42.533566 
L 77.285418 -42.466137 
L 77.32301 -42.398707 
L 77.393714 -42.331278 
L 77.508398 -42.263849 
L 77.681065 -42.196419 
L 77.927855 -42.12899 
L 78.265201 -42.061561 
L 78.707124 -41.994131 
L 79.261884 -41.926702 
L 79.92845 -41.859273 
L 80.693506 -41.791843 
L 81.529847 -41.724414 
L 82.396924 -41.656985 
L 83.243951 -41.589555 
L 84.015496 -41.522126 
L 84.658813 -41.454696 
L 85.131695 -41.387267 
L 85.40933 -41.319838 
L 85.48876 -41.252408 
L 85.389996 -41.184979 
L 85.153518 -41.11755 
L 84.834646 -41.05012 
L 84.495844 -40.982691 
L 84.19836 -40.915262 
L 83.994584 -40.847832 
L 83.922235 -40.780403 
L 84.001055 -40.712974 
L 84.232146 -40.645544 
L 84.59964 -40.578115 
L 85.074063 -40.510686 
L 85.61658 -40.443256 
L 86.183357 -40.375827 
L 86.729498 -40.308398 
L 87.212319 -40.240968 
L 87.59406 -40.173539 
L 87.844313 -40.10611 
L 87.942479 -40.03868 
L 87.88033 -39.971251 
L 87.664397 -39.903822 
L 87.317586 -39.836392 
L 86.879152 -39.768963 
L 86.402308 -39.701534 
L 85.949032 -39.634104 
L 85.582322 -39.566675 
L 85.356809 -39.499246 
L 85.309255 -39.431816 
L 85.450802 -39.364387 
L 85.762744 -39.296958 
L 86.197063 -39.229528 
L 86.682119 -39.162099 
L 87.132787 -39.09467 
L 87.463369 -39.02724 
L 87.600936 -38.959811 
L 87.496581 -38.892382 
L 87.132503 -38.824952 
L 86.523696 -38.757523 
L 85.714196 -38.690094 
L 84.768899 -38.622664 
L 83.762798 -38.555235 
L 82.769766 -38.487806 
L 81.852854 -38.420376 
L 81.057521 -38.352947 
L 80.408438 -38.285517 
L 79.909804 -38.218088 
L 79.548508 -38.150659 
L 79.299178 -38.083229 
L 79.130017 -38.0158 
L 79.008444 -37.948371 
L 78.905746 -37.880941 
L 78.800256 -37.813512 
L 78.678828 -37.746083 
L 78.53672 -37.678653 
L 78.376187 -37.611224 
L 78.20428 -37.543795 
L 78.030371 -37.476365 
L 77.86391 -37.408936 
L 77.712728 -37.341507 
z
" style="stroke: #6f6f6f; stroke-width: 0.15"/>
    </defs>
    <g clip-path="url(#pbd9f38bdca)">
     <use xlink:href="#m64efbc75a2" x="0" y="84.96" style="fill: #98daa7; stroke: #6f6f6f; stroke-width: 0.15"/>
    </g>
   </g>
   <g id="PolyCollection_4">
    <defs>
     <path id="mcd6a60c417" d="M 105.259426 -36.126822 
L 102.875489 -36.126822 
L 102.654709 -36.177645 
L 102.414776 -36.228468 
L 102.158774 -36.279292 
L 101.890683 -36.330115 
L 101.615206 -36.380938 
L 101.337525 -36.431761 
L 101.062992 -36.482584 
L 100.796779 -36.533407 
L 100.543528 -36.58423 
L 100.307018 -36.635053 
L 100.089908 -36.685877 
L 99.893559 -36.7367 
L 99.717984 -36.787523 
L 99.561908 -36.838346 
L 99.422952 -36.889169 
L 99.297912 -36.939992 
L 99.183094 -36.990815 
L 99.074693 -37.041639 
L 98.969137 -37.092462 
L 98.863394 -37.143285 
L 98.755189 -37.194108 
L 98.64312 -37.244931 
L 98.526668 -37.295754 
L 98.406111 -37.346577 
L 98.282354 -37.3974 
L 98.156709 -37.448224 
L 98.030646 -37.499047 
L 97.905551 -37.54987 
L 97.782509 -37.600693 
L 97.662135 -37.651516 
L 97.544458 -37.702339 
L 97.428867 -37.753162 
L 97.314114 -37.803986 
L 97.198366 -37.854809 
L 97.079308 -37.905632 
L 96.954282 -37.956455 
L 96.820454 -38.007278 
L 96.675006 -38.058101 
L 96.515352 -38.108924 
L 96.339352 -38.159747 
L 96.145533 -38.210571 
L 95.933302 -38.261394 
L 95.703131 -38.312217 
L 95.456706 -38.36304 
L 95.197026 -38.413863 
L 94.92844 -38.464686 
L 94.656607 -38.515509 
L 94.38838 -38.566333 
L 94.13161 -38.617156 
L 93.894873 -38.667979 
L 93.68714 -38.718802 
L 93.517392 -38.769625 
L 93.394213 -38.820448 
L 93.325381 -38.871271 
L 93.317472 -38.922095 
L 93.375513 -38.972918 
L 93.502692 -39.023741 
L 93.700147 -39.074564 
L 93.966844 -39.125387 
L 94.299544 -39.17621 
L 94.692871 -39.227033 
L 95.139459 -39.277856 
L 95.630184 -39.32868 
L 96.15447 -39.379503 
L 96.700643 -39.430326 
L 97.256338 -39.481149 
L 97.80893 -39.531972 
L 98.345982 -39.582795 
L 98.855698 -39.633618 
L 99.327355 -39.684442 
L 99.751715 -39.735265 
L 100.121382 -39.786088 
L 100.431107 -39.836911 
L 100.678006 -39.887734 
L 100.861692 -39.938557 
L 100.984301 -39.98938 
L 101.0504 -40.040203 
L 101.066779 -40.091027 
L 101.042127 -40.14185 
L 100.986607 -40.192673 
L 100.911336 -40.243496 
L 100.827815 -40.294319 
L 100.747327 -40.345142 
L 100.680347 -40.395965 
L 100.636004 -40.446789 
L 100.621634 -40.497612 
L 100.64245 -40.548435 
L 100.701353 -40.599258 
L 100.798909 -40.650081 
L 100.933463 -40.700904 
L 101.101404 -40.751727 
L 101.29753 -40.80255 
L 101.515503 -40.853374 
L 101.748325 -40.904197 
L 101.988825 -40.95502 
L 102.230096 -41.005843 
L 102.465869 -41.056666 
L 102.690791 -41.107489 
L 102.900608 -41.158312 
L 105.234307 -41.158312 
L 105.234307 -41.158312 
L 105.444125 -41.107489 
L 105.669047 -41.056666 
L 105.90482 -41.005843 
L 106.146091 -40.95502 
L 106.386591 -40.904197 
L 106.619413 -40.853374 
L 106.837385 -40.80255 
L 107.033512 -40.751727 
L 107.201453 -40.700904 
L 107.336007 -40.650081 
L 107.433563 -40.599258 
L 107.492466 -40.548435 
L 107.513281 -40.497612 
L 107.498911 -40.446789 
L 107.454569 -40.395965 
L 107.387588 -40.345142 
L 107.3071 -40.294319 
L 107.22358 -40.243496 
L 107.148309 -40.192673 
L 107.092788 -40.14185 
L 107.068137 -40.091027 
L 107.084515 -40.040203 
L 107.150614 -39.98938 
L 107.273224 -39.938557 
L 107.45691 -39.887734 
L 107.703809 -39.836911 
L 108.013533 -39.786088 
L 108.383201 -39.735265 
L 108.807561 -39.684442 
L 109.279218 -39.633618 
L 109.788934 -39.582795 
L 110.325986 -39.531972 
L 110.878577 -39.481149 
L 111.434272 -39.430326 
L 111.980446 -39.379503 
L 112.504731 -39.32868 
L 112.995457 -39.277856 
L 113.442044 -39.227033 
L 113.835371 -39.17621 
L 114.168072 -39.125387 
L 114.434769 -39.074564 
L 114.632224 -39.023741 
L 114.759402 -38.972918 
L 114.817443 -38.922095 
L 114.809535 -38.871271 
L 114.740703 -38.820448 
L 114.617524 -38.769625 
L 114.447776 -38.718802 
L 114.240043 -38.667979 
L 114.003306 -38.617156 
L 113.746536 -38.566333 
L 113.478309 -38.515509 
L 113.206476 -38.464686 
L 112.93789 -38.413863 
L 112.67821 -38.36304 
L 112.431785 -38.312217 
L 112.201614 -38.261394 
L 111.989383 -38.210571 
L 111.795564 -38.159747 
L 111.619564 -38.108924 
L 111.459909 -38.058101 
L 111.314462 -38.007278 
L 111.180633 -37.956455 
L 111.055607 -37.905632 
L 110.93655 -37.854809 
L 110.820802 -37.803986 
L 110.706048 -37.753162 
L 110.590458 -37.702339 
L 110.472781 -37.651516 
L 110.352407 -37.600693 
L 110.229365 -37.54987 
L 110.104269 -37.499047 
L 109.978207 -37.448224 
L 109.852562 -37.3974 
L 109.728805 -37.346577 
L 109.608248 -37.295754 
L 109.491796 -37.244931 
L 109.379726 -37.194108 
L 109.271521 -37.143285 
L 109.165779 -37.092462 
L 109.060223 -37.041639 
L 108.951821 -36.990815 
L 108.837004 -36.939992 
L 108.711963 -36.889169 
L 108.573008 -36.838346 
L 108.416932 -36.787523 
L 108.241357 -36.7367 
L 108.045008 -36.685877 
L 107.827897 -36.635053 
L 107.591388 -36.58423 
L 107.338136 -36.533407 
L 107.071924 -36.482584 
L 106.79739 -36.431761 
L 106.519709 -36.380938 
L 106.244233 -36.330115 
L 105.976142 -36.279292 
L 105.72014 -36.228468 
L 105.480206 -36.177645 
L 105.259426 -36.126822 
z
" style="stroke: #6f6f6f; stroke-width: 0.15"/>
    </defs>
    <g clip-path="url(#pbd9f38bdca)">
     <use xlink:href="#mcd6a60c417" x="0" y="84.96" style="fill: #f2aba8; stroke: #6f6f6f; stroke-width: 0.15"/>
    </g>
   </g>
   <g id="PolyCollection_5">
    <defs>
     <path id="m74e915c60b" d="M 132.346847 -36.42858 
L 129.537997 -36.42858 
L 129.246969 -36.474094 
L 128.916329 -36.519608 
L 128.54517 -36.565122 
L 128.133476 -36.610636 
L 127.682248 -36.65615 
L 127.193601 -36.701664 
L 126.670844 -36.747177 
L 126.118532 -36.792691 
L 125.54249 -36.838205 
L 124.949803 -36.883719 
L 124.348769 -36.929233 
L 123.748809 -36.974747 
L 123.160318 -37.020261 
L 122.594458 -37.065774 
L 122.06288 -37.111288 
L 121.577372 -37.156802 
L 121.149439 -37.202316 
L 120.789817 -37.24783 
L 120.507942 -37.293344 
L 120.311409 -37.338858 
L 120.205444 -37.384372 
L 120.192436 -37.429885 
L 120.271576 -37.475399 
L 120.438634 -37.520913 
L 120.685913 -37.566427 
L 121.002406 -37.611941 
L 121.374153 -37.657455 
L 121.784799 -37.702969 
L 122.21632 -37.748482 
L 122.64988 -37.793996 
L 123.066769 -37.83951 
L 123.449352 -37.885024 
L 123.781981 -37.930538 
L 124.051802 -37.976052 
L 124.2494 -38.021566 
L 124.369262 -38.067079 
L 124.410011 -38.112593 
L 124.374412 -38.158107 
L 124.269159 -38.203621 
L 124.104445 -38.249135 
L 123.893369 -38.294649 
L 123.651203 -38.340163 
L 123.394573 -38.385677 
L 123.140601 -38.43119 
L 122.90606 -38.476704 
L 122.706579 -38.522218 
L 122.555945 -38.567732 
L 122.46553 -38.613246 
L 122.443869 -38.65876 
L 122.496395 -38.704274 
L 122.625341 -38.749787 
L 122.829802 -38.795301 
L 123.105942 -38.840815 
L 123.44732 -38.886329 
L 123.84532 -38.931843 
L 124.289643 -38.977357 
L 124.768838 -39.022871 
L 125.270832 -39.068384 
L 125.783447 -39.113898 
L 126.294856 -39.159412 
L 126.793978 -39.204926 
L 127.270794 -39.25044 
L 127.716568 -39.295954 
L 128.123991 -39.341468 
L 128.487238 -39.386982 
L 128.801967 -39.432495 
L 129.065262 -39.478009 
L 129.27554 -39.523523 
L 129.432454 -39.569037 
L 129.536786 -39.614551 
L 129.59035 -39.660065 
L 129.595926 -39.705579 
L 129.557192 -39.751092 
L 129.478684 -39.796606 
L 129.365751 -39.84212 
L 129.224499 -39.887634 
L 129.061713 -39.933148 
L 128.884741 -39.978662 
L 128.701332 -40.024176 
L 128.519429 -40.069689 
L 128.34691 -40.115203 
L 128.1913 -40.160717 
L 128.059468 -40.206231 
L 127.95732 -40.251745 
L 127.889533 -40.297259 
L 127.859332 -40.342773 
L 127.868345 -40.388287 
L 127.91655 -40.4338 
L 128.00231 -40.479314 
L 128.122515 -40.524828 
L 128.272795 -40.570342 
L 128.447812 -40.615856 
L 128.641587 -40.66137 
L 128.847848 -40.706884 
L 129.060375 -40.752397 
L 129.273297 -40.797911 
L 129.481358 -40.843425 
L 129.680097 -40.888939 
L 129.865971 -40.934453 
L 132.018873 -40.934453 
L 132.018873 -40.934453 
L 132.204747 -40.888939 
L 132.403486 -40.843425 
L 132.611546 -40.797911 
L 132.824469 -40.752397 
L 133.036995 -40.706884 
L 133.243257 -40.66137 
L 133.437031 -40.615856 
L 133.612048 -40.570342 
L 133.762329 -40.524828 
L 133.882534 -40.479314 
L 133.968294 -40.4338 
L 134.016499 -40.388287 
L 134.025512 -40.342773 
L 133.99531 -40.297259 
L 133.927524 -40.251745 
L 133.825376 -40.206231 
L 133.693544 -40.160717 
L 133.537934 -40.115203 
L 133.365414 -40.069689 
L 133.183511 -40.024176 
L 133.000103 -39.978662 
L 132.823131 -39.933148 
L 132.660345 -39.887634 
L 132.519093 -39.84212 
L 132.40616 -39.796606 
L 132.327652 -39.751092 
L 132.288918 -39.705579 
L 132.294494 -39.660065 
L 132.348058 -39.614551 
L 132.452389 -39.569037 
L 132.609304 -39.523523 
L 132.819582 -39.478009 
L 133.082877 -39.432495 
L 133.397606 -39.386982 
L 133.760853 -39.341468 
L 134.168275 -39.295954 
L 134.614049 -39.25044 
L 135.090865 -39.204926 
L 135.589988 -39.159412 
L 136.101397 -39.113898 
L 136.614011 -39.068384 
L 137.116006 -39.022871 
L 137.5952 -38.977357 
L 138.039524 -38.931843 
L 138.437524 -38.886329 
L 138.778902 -38.840815 
L 139.055042 -38.795301 
L 139.259503 -38.749787 
L 139.388449 -38.704274 
L 139.440975 -38.65876 
L 139.419314 -38.613246 
L 139.328899 -38.567732 
L 139.178265 -38.522218 
L 138.978784 -38.476704 
L 138.744243 -38.43119 
L 138.490271 -38.385677 
L 138.233641 -38.340163 
L 137.991474 -38.294649 
L 137.780398 -38.249135 
L 137.615684 -38.203621 
L 137.510431 -38.158107 
L 137.474833 -38.112593 
L 137.515582 -38.067079 
L 137.635444 -38.021566 
L 137.833042 -37.976052 
L 138.102862 -37.930538 
L 138.435492 -37.885024 
L 138.818075 -37.83951 
L 139.234964 -37.793996 
L 139.668524 -37.748482 
L 140.100045 -37.702969 
L 140.510691 -37.657455 
L 140.882438 -37.611941 
L 141.198931 -37.566427 
L 141.44621 -37.520913 
L 141.613267 -37.475399 
L 141.692407 -37.429885 
L 141.6794 -37.384372 
L 141.573435 -37.338858 
L 141.376902 -37.293344 
L 141.095027 -37.24783 
L 140.735405 -37.202316 
L 140.307472 -37.156802 
L 139.821964 -37.111288 
L 139.290386 -37.065774 
L 138.724525 -37.020261 
L 138.136034 -36.974747 
L 137.536075 -36.929233 
L 136.935041 -36.883719 
L 136.342354 -36.838205 
L 135.766312 -36.792691 
L 135.214 -36.747177 
L 134.691243 -36.701664 
L 134.202596 -36.65615 
L 133.751368 -36.610636 
L 133.339674 -36.565122 
L 132.968515 -36.519608 
L 132.637875 -36.474094 
L 132.346847 -36.42858 
z
" style="stroke: #6f6f6f; stroke-width: 0.15"/>
    </defs>
    <g clip-path="url(#pbd9f38bdca)">
     <use xlink:href="#m74e915c60b" x="0" y="84.96" style="fill: #d3c4f6; stroke: #6f6f6f; stroke-width: 0.15"/>
    </g>
   </g>
   <g id="PolyCollection_6">
    <defs>
     <path id="m005f0a7446" d="M 159.166479 -36.583637 
L 156.468293 -36.583637 
L 156.200612 -36.585828 
L 155.903217 -36.588019 
L 155.578237 -36.59021 
L 155.229116 -36.592401 
L 154.860626 -36.594592 
L 154.478785 -36.596783 
L 154.090698 -36.598974 
L 153.704296 -36.601165 
L 153.328004 -36.603356 
L 152.970338 -36.605547 
L 152.639468 -36.607738 
L 152.34276 -36.609929 
L 152.086346 -36.61212 
L 151.874744 -36.614311 
L 151.710556 -36.616502 
L 151.594274 -36.618693 
L 151.524219 -36.620884 
L 151.496595 -36.623075 
L 151.505682 -36.625266 
L 151.544138 -36.627457 
L 151.603388 -36.629648 
L 151.674073 -36.631839 
L 151.746525 -36.63403 
L 151.811223 -36.636221 
L 151.859215 -36.638412 
L 151.882462 -36.640603 
L 151.87411 -36.642794 
L 151.828673 -36.644985 
L 151.742137 -36.647176 
L 151.612008 -36.649367 
L 151.437311 -36.651557 
L 151.218581 -36.653748 
L 150.957841 -36.655939 
L 150.658597 -36.65813 
L 150.325835 -36.660321 
L 149.966018 -36.662512 
L 149.587051 -36.664703 
L 149.198204 -36.666894 
L 148.809937 -36.669085 
L 148.433641 -36.671276 
L 148.081257 -36.673467 
L 147.764784 -36.675658 
L 147.495715 -36.677849 
L 147.284417 -36.68004 
L 147.139523 -36.682231 
L 147.0674 -36.684422 
L 147.071735 -36.686613 
L 147.153299 -36.688804 
L 147.309927 -36.690995 
L 147.536708 -36.693186 
L 147.826378 -36.695377 
L 148.169887 -36.697568 
L 148.557062 -36.699759 
L 148.977315 -36.70195 
L 149.420315 -36.704141 
L 149.876559 -36.706332 
L 150.337794 -36.708523 
L 150.797258 -36.710714 
L 151.249729 -36.712905 
L 151.6914 -36.715096 
L 152.119619 -36.717287 
L 152.532532 -36.719478 
L 152.928694 -36.721669 
L 153.306702 -36.72386 
L 153.66489 -36.726051 
L 154.001135 -36.728242 
L 154.312776 -36.730433 
L 154.596669 -36.732624 
L 154.849358 -36.734815 
L 155.067335 -36.737006 
L 155.247366 -36.739197 
L 155.386845 -36.741388 
L 155.484136 -36.743579 
L 155.53887 -36.74577 
L 155.552168 -36.747961 
L 155.52677 -36.750152 
L 155.467054 -36.752343 
L 155.378935 -36.754534 
L 155.269652 -36.756725 
L 155.147457 -36.758916 
L 155.021216 -36.761107 
L 154.899956 -36.763298 
L 154.792389 -36.765489 
L 154.70644 -36.76768 
L 154.648824 -36.769871 
L 154.624694 -36.772062 
L 154.637391 -36.774253 
L 154.688318 -36.776444 
L 154.776932 -36.778635 
L 154.900875 -36.780826 
L 155.056203 -36.783017 
L 155.237711 -36.785208 
L 155.439319 -36.787399 
L 155.654479 -36.78959 
L 155.876584 -36.791781 
L 156.099333 -36.793972 
L 156.317041 -36.796163 
L 156.52487 -36.798354 
L 156.718976 -36.800545 
L 158.915796 -36.800545 
L 158.915796 -36.800545 
L 159.109902 -36.798354 
L 159.317731 -36.796163 
L 159.535439 -36.793972 
L 159.758188 -36.791781 
L 159.980293 -36.78959 
L 160.195453 -36.787399 
L 160.397061 -36.785208 
L 160.578569 -36.783017 
L 160.733896 -36.780826 
L 160.85784 -36.778635 
L 160.946454 -36.776444 
L 160.997381 -36.774253 
L 161.010078 -36.772062 
L 160.985948 -36.769871 
L 160.928332 -36.76768 
L 160.842383 -36.765489 
L 160.734816 -36.763298 
L 160.613556 -36.761107 
L 160.487315 -36.758916 
L 160.365119 -36.756725 
L 160.255837 -36.754534 
L 160.167717 -36.752343 
L 160.108002 -36.750152 
L 160.082604 -36.747961 
L 160.095902 -36.74577 
L 160.150636 -36.743579 
L 160.247927 -36.741388 
L 160.387406 -36.739197 
L 160.567437 -36.737006 
L 160.785414 -36.734815 
L 161.038103 -36.732624 
L 161.321996 -36.730433 
L 161.633637 -36.728242 
L 161.969881 -36.726051 
L 162.32807 -36.72386 
L 162.706078 -36.721669 
L 163.10224 -36.719478 
L 163.515153 -36.717287 
L 163.943372 -36.715096 
L 164.385043 -36.712905 
L 164.837514 -36.710714 
L 165.296978 -36.708523 
L 165.758213 -36.706332 
L 166.214457 -36.704141 
L 166.657457 -36.70195 
L 167.07771 -36.699759 
L 167.464885 -36.697568 
L 167.808394 -36.695377 
L 168.098064 -36.693186 
L 168.324844 -36.690995 
L 168.481473 -36.688804 
L 168.563037 -36.686613 
L 168.567372 -36.684422 
L 168.495249 -36.682231 
L 168.350355 -36.68004 
L 168.139057 -36.677849 
L 167.869988 -36.675658 
L 167.553515 -36.673467 
L 167.201131 -36.671276 
L 166.824835 -36.669085 
L 166.436568 -36.666894 
L 166.04772 -36.664703 
L 165.668754 -36.662512 
L 165.308937 -36.660321 
L 164.976175 -36.65813 
L 164.67693 -36.655939 
L 164.41619 -36.653748 
L 164.197461 -36.651557 
L 164.022764 -36.649367 
L 163.892635 -36.647176 
L 163.806099 -36.644985 
L 163.760662 -36.642794 
L 163.75231 -36.640603 
L 163.775557 -36.638412 
L 163.823549 -36.636221 
L 163.888247 -36.63403 
L 163.960699 -36.631839 
L 164.031384 -36.629648 
L 164.090634 -36.627457 
L 164.129089 -36.625266 
L 164.138177 -36.623075 
L 164.110553 -36.620884 
L 164.040498 -36.618693 
L 163.924216 -36.616502 
L 163.760027 -36.614311 
L 163.548425 -36.61212 
L 163.292012 -36.609929 
L 162.995304 -36.607738 
L 162.664434 -36.605547 
L 162.306768 -36.603356 
L 161.930476 -36.601165 
L 161.544074 -36.598974 
L 161.155987 -36.596783 
L 160.774146 -36.594592 
L 160.405656 -36.592401 
L 160.056535 -36.59021 
L 159.731554 -36.588019 
L 159.434159 -36.585828 
L 159.166479 -36.583637 
z
" style="stroke: #6f6f6f; stroke-width: 0.15"/>
    </defs>
    <g clip-path="url(#pbd9f38bdca)">
     <use xlink:href="#m005f0a7446" x="0" y="84.96" style="fill: #d6bba3; stroke: #6f6f6f; stroke-width: 0.15"/>
    </g>
   </g>
   <g id="PolyCollection_7">
    <defs>
     <path id="me919a72a3e" d="M 186.316021 -36.527563 
L 183.068679 -36.527563 
L 182.778232 -36.534317 
L 182.456003 -36.54107 
L 182.102359 -36.547823 
L 181.718361 -36.554577 
L 181.305789 -36.56133 
L 180.867139 -36.568083 
L 180.405606 -36.574837 
L 179.92504 -36.58159 
L 179.429902 -36.588343 
L 178.925206 -36.595097 
L 178.41646 -36.60185 
L 177.909602 -36.608604 
L 177.410936 -36.615357 
L 176.927063 -36.62211 
L 176.464797 -36.628864 
L 176.031069 -36.635617 
L 175.632792 -36.64237 
L 175.276714 -36.649124 
L 174.969211 -36.655877 
L 174.716068 -36.66263 
L 174.522214 -36.669384 
L 174.391452 -36.676137 
L 174.326185 -36.682891 
L 174.327164 -36.689644 
L 174.39329 -36.696397 
L 174.521478 -36.703151 
L 174.706627 -36.709904 
L 174.941679 -36.716657 
L 175.217813 -36.723411 
L 175.524738 -36.730164 
L 175.851095 -36.736918 
L 176.184938 -36.743671 
L 176.514265 -36.750424 
L 176.827569 -36.757178 
L 177.114366 -36.763931 
L 177.365673 -36.770684 
L 177.574395 -36.777438 
L 177.735602 -36.784191 
L 177.846674 -36.790944 
L 177.907313 -36.797698 
L 177.919425 -36.804451 
L 177.886871 -36.811205 
L 177.815132 -36.817958 
L 177.710886 -36.824711 
L 177.581548 -36.831465 
L 177.43479 -36.838218 
L 177.278079 -36.844971 
L 177.11825 -36.851725 
L 176.961154 -36.858478 
L 176.811373 -36.865231 
L 176.672041 -36.871985 
L 176.544765 -36.878738 
L 176.429637 -36.885492 
L 176.325358 -36.892245 
L 176.229444 -36.898998 
L 176.138501 -36.905752 
L 176.048572 -36.912505 
L 175.955506 -36.919258 
L 175.855346 -36.926012 
L 175.744701 -36.932765 
L 175.621089 -36.939518 
L 175.483203 -36.946272 
L 175.331115 -36.953025 
L 175.166372 -36.959779 
L 174.991994 -36.966532 
L 174.812368 -36.973285 
L 174.633052 -36.980039 
L 174.460489 -36.986792 
L 174.301672 -36.993545 
L 174.163774 -37.000299 
L 174.053775 -37.007052 
L 173.978108 -37.013806 
L 173.942364 -37.020559 
L 173.95105 -37.027312 
L 174.007431 -37.034066 
L 174.113457 -37.040819 
L 174.269757 -37.047572 
L 174.475709 -37.054326 
L 174.729558 -37.061079 
L 175.028564 -37.067832 
L 175.369176 -37.074586 
L 175.747196 -37.081339 
L 176.157942 -37.088093 
L 176.596384 -37.094846 
L 177.057266 -37.101599 
L 177.5352 -37.108353 
L 178.024752 -37.115106 
L 178.520509 -37.121859 
L 179.017154 -37.128613 
L 179.509531 -37.135366 
L 179.992725 -37.142119 
L 180.462137 -37.148873 
L 180.913572 -37.155626 
L 181.343318 -37.16238 
L 181.748225 -37.169133 
L 182.125765 -37.175886 
L 182.474076 -37.18264 
L 182.791982 -37.189393 
L 183.078989 -37.196146 
L 186.305711 -37.196146 
L 186.305711 -37.196146 
L 186.592718 -37.189393 
L 186.910624 -37.18264 
L 187.258935 -37.175886 
L 187.636475 -37.169133 
L 188.041382 -37.16238 
L 188.471128 -37.155626 
L 188.922563 -37.148873 
L 189.391975 -37.142119 
L 189.875169 -37.135366 
L 190.367546 -37.128613 
L 190.864191 -37.121859 
L 191.359948 -37.115106 
L 191.849499 -37.108353 
L 192.327434 -37.101599 
L 192.788316 -37.094846 
L 193.226758 -37.088093 
L 193.637504 -37.081339 
L 194.015524 -37.074586 
L 194.356136 -37.067832 
L 194.655142 -37.061079 
L 194.908991 -37.054326 
L 195.114943 -37.047572 
L 195.271243 -37.040819 
L 195.377269 -37.034066 
L 195.43365 -37.027312 
L 195.442336 -37.020559 
L 195.406592 -37.013806 
L 195.330925 -37.007052 
L 195.220925 -37.000299 
L 195.083028 -36.993545 
L 194.924211 -36.986792 
L 194.751648 -36.980039 
L 194.572331 -36.973285 
L 194.392706 -36.966532 
L 194.218328 -36.959779 
L 194.053585 -36.953025 
L 193.901497 -36.946272 
L 193.763611 -36.939518 
L 193.639998 -36.932765 
L 193.529354 -36.926012 
L 193.429194 -36.919258 
L 193.336128 -36.912505 
L 193.246199 -36.905752 
L 193.155256 -36.898998 
L 193.059342 -36.892245 
L 192.955063 -36.885492 
L 192.839935 -36.878738 
L 192.712659 -36.871985 
L 192.573327 -36.865231 
L 192.423546 -36.858478 
L 192.266449 -36.851725 
L 192.106621 -36.844971 
L 191.94991 -36.838218 
L 191.803152 -36.831465 
L 191.673814 -36.824711 
L 191.569568 -36.817958 
L 191.497829 -36.811205 
L 191.465275 -36.804451 
L 191.477387 -36.797698 
L 191.538026 -36.790944 
L 191.649098 -36.784191 
L 191.810305 -36.777438 
L 192.019027 -36.770684 
L 192.270334 -36.763931 
L 192.557131 -36.757178 
L 192.870434 -36.750424 
L 193.199762 -36.743671 
L 193.533605 -36.736918 
L 193.859962 -36.730164 
L 194.166887 -36.723411 
L 194.443021 -36.716657 
L 194.678073 -36.709904 
L 194.863221 -36.703151 
L 194.99141 -36.696397 
L 195.057536 -36.689644 
L 195.058515 -36.682891 
L 194.993247 -36.676137 
L 194.862486 -36.669384 
L 194.668632 -36.66263 
L 194.415489 -36.655877 
L 194.107986 -36.649124 
L 193.751907 -36.64237 
L 193.353631 -36.635617 
L 192.919902 -36.628864 
L 192.457637 -36.62211 
L 191.973764 -36.615357 
L 191.475098 -36.608604 
L 190.96824 -36.60185 
L 190.459493 -36.595097 
L 189.954798 -36.588343 
L 189.45966 -36.58159 
L 188.979094 -36.574837 
L 188.51756 -36.568083 
L 188.078911 -36.56133 
L 187.666339 -36.554577 
L 187.282341 -36.547823 
L 186.928697 -36.54107 
L 186.606468 -36.534317 
L 186.316021 -36.527563 
z
" style="stroke: #6f6f6f; stroke-width: 0.15"/>
    </defs>
    <g clip-path="url(#pbd9f38bdca)">
     <use xlink:href="#me919a72a3e" x="0" y="84.96" style="fill: #f1b9e0; stroke: #6f6f6f; stroke-width: 0.15"/>
    </g>
   </g>
   <g id="PolyCollection_8">
    <defs>
     <path id="ma95219f44f" d="M 212.468562 -35.987912 
L 210.666066 -35.987912 
L 210.488051 -36.076853 
L 210.29263 -36.165795 
L 210.08209 -36.254736 
L 209.859519 -36.343677 
L 209.628672 -36.432619 
L 209.393785 -36.52156 
L 209.159318 -36.610501 
L 208.929679 -36.699443 
L 208.708924 -36.788384 
L 208.500478 -36.877325 
L 208.306895 -36.966267 
L 208.129681 -37.055208 
L 207.969174 -37.14415 
L 207.824504 -37.233091 
L 207.693613 -37.322032 
L 207.573323 -37.410974 
L 207.459445 -37.499915 
L 207.346909 -37.588856 
L 207.229917 -37.677798 
L 207.10212 -37.766739 
L 206.956828 -37.85568 
L 206.787269 -37.944622 
L 206.586922 -38.033563 
L 206.349917 -38.122504 
L 206.071516 -38.211446 
L 205.748644 -38.300387 
L 205.380427 -38.389328 
L 204.968699 -38.47827 
L 204.518384 -38.567211 
L 204.037701 -38.656152 
L 203.538119 -38.745094 
L 203.034036 -38.834035 
L 202.542153 -38.922977 
L 202.080587 -39.011918 
L 201.667771 -39.100859 
L 201.321252 -39.189801 
L 201.056483 -39.278742 
L 200.88575 -39.367683 
L 200.817328 -39.456625 
L 200.854967 -39.545566 
L 200.99775 -39.634507 
L 201.240327 -39.723449 
L 201.5735 -39.81239 
L 201.985065 -39.901331 
L 202.460819 -39.990273 
L 202.985622 -40.079214 
L 203.544392 -40.168155 
L 204.122955 -40.257097 
L 204.708672 -40.346038 
L 205.290823 -40.434979 
L 205.860757 -40.523921 
L 206.411822 -40.612862 
L 206.939149 -40.701804 
L 207.439339 -40.790745 
L 207.910117 -40.879686 
L 208.350009 -40.968628 
L 208.758072 -41.057569 
L 209.133702 -41.14651 
L 209.476515 -41.235452 
L 209.786293 -41.324393 
L 210.062979 -41.413334 
L 210.306688 -41.502276 
L 210.51772 -41.591217 
L 210.696561 -41.680158 
L 210.843862 -41.7691 
L 210.960391 -41.858041 
L 211.046981 -41.946982 
L 211.104472 -42.035924 
L 211.133663 -42.124865 
L 211.135304 -42.213806 
L 211.11012 -42.302748 
L 211.058873 -42.391689 
L 210.982484 -42.48063 
L 210.882172 -42.569572 
L 210.759622 -42.658513 
L 210.617148 -42.747455 
L 210.457828 -42.836396 
L 210.285596 -42.925337 
L 210.10525 -43.014279 
L 209.922384 -43.10322 
L 209.743222 -43.192161 
L 209.574359 -43.281103 
L 209.422435 -43.370044 
L 209.293749 -43.458985 
L 209.193871 -43.547927 
L 209.127263 -43.636868 
L 209.096973 -43.725809 
L 209.104415 -43.814751 
L 209.149268 -43.903692 
L 209.229507 -43.992633 
L 209.341556 -44.081575 
L 209.480559 -44.170516 
L 209.640726 -44.259457 
L 209.815733 -44.348399 
L 209.999137 -44.43734 
L 210.184756 -44.526282 
L 210.366999 -44.615223 
L 210.541117 -44.704164 
L 210.703362 -44.793106 
L 212.431266 -44.793106 
L 212.431266 -44.793106 
L 212.593511 -44.704164 
L 212.767629 -44.615223 
L 212.949872 -44.526282 
L 213.135491 -44.43734 
L 213.318895 -44.348399 
L 213.493902 -44.259457 
L 213.654069 -44.170516 
L 213.793072 -44.081575 
L 213.905121 -43.992633 
L 213.98536 -43.903692 
L 214.030213 -43.814751 
L 214.037655 -43.725809 
L 214.007365 -43.636868 
L 213.940757 -43.547927 
L 213.840879 -43.458985 
L 213.712193 -43.370044 
L 213.560269 -43.281103 
L 213.391406 -43.192161 
L 213.212244 -43.10322 
L 213.029378 -43.014279 
L 212.849032 -42.925337 
L 212.676799 -42.836396 
L 212.51748 -42.747455 
L 212.375006 -42.658513 
L 212.252456 -42.569572 
L 212.152144 -42.48063 
L 212.075755 -42.391689 
L 212.024508 -42.302748 
L 211.999323 -42.213806 
L 212.000965 -42.124865 
L 212.030156 -42.035924 
L 212.087646 -41.946982 
L 212.174237 -41.858041 
L 212.290766 -41.7691 
L 212.438067 -41.680158 
L 212.616908 -41.591217 
L 212.82794 -41.502276 
L 213.071649 -41.413334 
L 213.348335 -41.324393 
L 213.658113 -41.235452 
L 214.000926 -41.14651 
L 214.376556 -41.057569 
L 214.784619 -40.968628 
L 215.224511 -40.879686 
L 215.695289 -40.790745 
L 216.195479 -40.701804 
L 216.722806 -40.612862 
L 217.273871 -40.523921 
L 217.843805 -40.434979 
L 218.425956 -40.346038 
L 219.011672 -40.257097 
L 219.590236 -40.168155 
L 220.149006 -40.079214 
L 220.673809 -39.990273 
L 221.149563 -39.901331 
L 221.561128 -39.81239 
L 221.894301 -39.723449 
L 222.136878 -39.634507 
L 222.279661 -39.545566 
L 222.3173 -39.456625 
L 222.248878 -39.367683 
L 222.078145 -39.278742 
L 221.813376 -39.189801 
L 221.466857 -39.100859 
L 221.054041 -39.011918 
L 220.592475 -38.922977 
L 220.100592 -38.834035 
L 219.596509 -38.745094 
L 219.096927 -38.656152 
L 218.616244 -38.567211 
L 218.165929 -38.47827 
L 217.754201 -38.389328 
L 217.385984 -38.300387 
L 217.063111 -38.211446 
L 216.784711 -38.122504 
L 216.547706 -38.033563 
L 216.347359 -37.944622 
L 216.1778 -37.85568 
L 216.032507 -37.766739 
L 215.904711 -37.677798 
L 215.787719 -37.588856 
L 215.675183 -37.499915 
L 215.561305 -37.410974 
L 215.441015 -37.322032 
L 215.310124 -37.233091 
L 215.165454 -37.14415 
L 215.004947 -37.055208 
L 214.827733 -36.966267 
L 214.63415 -36.877325 
L 214.425704 -36.788384 
L 214.204948 -36.699443 
L 213.97531 -36.610501 
L 213.740843 -36.52156 
L 213.505956 -36.432619 
L 213.275109 -36.343677 
L 213.052538 -36.254736 
L 212.841998 -36.165795 
L 212.646576 -36.076853 
L 212.468562 -35.987912 
z
" style="stroke: #6f6f6f; stroke-width: 0.15"/>
    </defs>
    <g clip-path="url(#pbd9f38bdca)">
     <use xlink:href="#ma95219f44f" x="0" y="84.96" style="fill: #cfcfcf; stroke: #6f6f6f; stroke-width: 0.15"/>
    </g>
   </g>
   <g id="PolyCollection_9">
    <defs>
     <path id="m2d8d62b17e" d="M 239.776122 -36.52874 
L 237.108434 -36.52874 
L 236.864082 -36.586413 
L 236.594003 -36.644086 
L 236.299339 -36.70176 
L 235.981987 -36.759433 
L 235.644572 -36.817106 
L 235.290386 -36.87478 
L 234.923277 -36.932453 
L 234.547508 -36.990126 
L 234.167586 -37.0478 
L 233.788077 -37.105473 
L 233.413411 -37.163146 
L 233.047703 -37.22082 
L 232.69459 -37.278493 
L 232.3571 -37.336167 
L 232.037559 -37.39384 
L 231.737541 -37.451513 
L 231.457858 -37.509187 
L 231.198588 -37.56686 
L 230.959135 -37.624533 
L 230.738319 -37.682207 
L 230.534475 -37.73988 
L 230.345565 -37.797553 
L 230.169298 -37.855227 
L 230.003236 -37.9129 
L 229.844906 -37.970573 
L 229.6919 -38.028247 
L 229.541973 -38.08592 
L 229.393141 -38.143594 
L 229.243773 -38.201267 
L 229.092692 -38.25894 
L 228.939274 -38.316614 
L 228.783549 -38.374287 
L 228.626295 -38.43196 
L 228.469123 -38.489634 
L 228.31454 -38.547307 
L 228.165984 -38.60498 
L 228.027805 -38.662654 
L 227.905199 -38.720327 
L 227.80408 -38.778 
L 227.730881 -38.835674 
L 227.692292 -38.893347 
L 227.69494 -38.95102 
L 227.745026 -39.008694 
L 227.847936 -39.066367 
L 228.007864 -39.124041 
L 228.227451 -39.181714 
L 228.507495 -39.239387 
L 228.846736 -39.297061 
L 229.241746 -39.354734 
L 229.686937 -39.412407 
L 230.174692 -39.470081 
L 230.695602 -39.527754 
L 231.238808 -39.585427 
L 231.792427 -39.643101 
L 232.344018 -39.700774 
L 232.881073 -39.758447 
L 233.391506 -39.816121 
L 233.864099 -39.873794 
L 234.288894 -39.931468 
L 234.657512 -39.989141 
L 234.963391 -40.046814 
L 235.20194 -40.104488 
L 235.370613 -40.162161 
L 235.468904 -40.219834 
L 235.498284 -40.277508 
L 235.462078 -40.335181 
L 235.365301 -40.392854 
L 235.214458 -40.450528 
L 235.017318 -40.508201 
L 234.782665 -40.565874 
L 234.52004 -40.623548 
L 234.239466 -40.681221 
L 233.951177 -40.738895 
L 233.665342 -40.796568 
L 233.39179 -40.854241 
L 233.139763 -40.911915 
L 232.91767 -40.969588 
L 232.732877 -41.027261 
L 232.591522 -41.084935 
L 232.498373 -41.142608 
L 232.456721 -41.200281 
L 232.468323 -41.257955 
L 232.533389 -41.315628 
L 232.650623 -41.373301 
L 232.817307 -41.430975 
L 233.029433 -41.488648 
L 233.281881 -41.546321 
L 233.568622 -41.603995 
L 233.882964 -41.661668 
L 234.2178 -41.719342 
L 234.565875 -41.777015 
L 234.920039 -41.834688 
L 235.273495 -41.892362 
L 235.620002 -41.950035 
L 235.954059 -42.007708 
L 236.271031 -42.065382 
L 236.567236 -42.123055 
L 236.839971 -42.180728 
L 237.087508 -42.238402 
L 239.797048 -42.238402 
L 239.797048 -42.238402 
L 240.044585 -42.180728 
L 240.31732 -42.123055 
L 240.613525 -42.065382 
L 240.930497 -42.007708 
L 241.264554 -41.950035 
L 241.611061 -41.892362 
L 241.964517 -41.834688 
L 242.318681 -41.777015 
L 242.666756 -41.719342 
L 243.001592 -41.661668 
L 243.315934 -41.603995 
L 243.602675 -41.546321 
L 243.855123 -41.488648 
L 244.067249 -41.430975 
L 244.233933 -41.373301 
L 244.351167 -41.315628 
L 244.416233 -41.257955 
L 244.427835 -41.200281 
L 244.386183 -41.142608 
L 244.293034 -41.084935 
L 244.151679 -41.027261 
L 243.966886 -40.969588 
L 243.744793 -40.911915 
L 243.492766 -40.854241 
L 243.219214 -40.796568 
L 242.933379 -40.738895 
L 242.64509 -40.681221 
L 242.364516 -40.623548 
L 242.101891 -40.565874 
L 241.867238 -40.508201 
L 241.670097 -40.450528 
L 241.519255 -40.392854 
L 241.422478 -40.335181 
L 241.386272 -40.277508 
L 241.415652 -40.219834 
L 241.513943 -40.162161 
L 241.682616 -40.104488 
L 241.921165 -40.046814 
L 242.227044 -39.989141 
L 242.595662 -39.931468 
L 243.020457 -39.873794 
L 243.49305 -39.816121 
L 244.003483 -39.758447 
L 244.540538 -39.700774 
L 245.092129 -39.643101 
L 245.645748 -39.585427 
L 246.188954 -39.527754 
L 246.709864 -39.470081 
L 247.197619 -39.412407 
L 247.64281 -39.354734 
L 248.03782 -39.297061 
L 248.377061 -39.239387 
L 248.657105 -39.181714 
L 248.876692 -39.124041 
L 249.03662 -39.066367 
L 249.13953 -39.008694 
L 249.189615 -38.95102 
L 249.192264 -38.893347 
L 249.153675 -38.835674 
L 249.080476 -38.778 
L 248.979357 -38.720327 
L 248.856751 -38.662654 
L 248.718572 -38.60498 
L 248.570016 -38.547307 
L 248.415433 -38.489634 
L 248.258261 -38.43196 
L 248.101007 -38.374287 
L 247.945282 -38.316614 
L 247.791864 -38.25894 
L 247.640783 -38.201267 
L 247.491415 -38.143594 
L 247.342583 -38.08592 
L 247.192656 -38.028247 
L 247.03965 -37.970573 
L 246.881319 -37.9129 
L 246.715258 -37.855227 
L 246.538991 -37.797553 
L 246.350081 -37.73988 
L 246.146237 -37.682207 
L 245.925421 -37.624533 
L 245.685968 -37.56686 
L 245.426698 -37.509187 
L 245.147015 -37.451513 
L 244.846997 -37.39384 
L 244.527456 -37.336167 
L 244.189966 -37.278493 
L 243.836853 -37.22082 
L 243.471145 -37.163146 
L 243.096479 -37.105473 
L 242.71697 -37.0478 
L 242.337048 -36.990126 
L 241.961279 -36.932453 
L 241.59417 -36.87478 
L 241.239984 -36.817106 
L 240.902569 -36.759433 
L 240.585217 -36.70176 
L 240.290553 -36.644086 
L 240.020474 -36.586413 
L 239.776122 -36.52874 
z
" style="stroke: #6f6f6f; stroke-width: 0.15"/>
    </defs>
    <g clip-path="url(#pbd9f38bdca)">
     <use xlink:href="#m2d8d62b17e" x="0" y="84.96" style="fill: #f3f3ae; stroke: #6f6f6f; stroke-width: 0.15"/>
    </g>
   </g>
   <g id="line2d_8">
    <path d="M 23.442566 47.825639 
L 23.442566 44.670365 
" clip-path="url(#pbd9f38bdca)" style="fill: none; stroke: #8c8c8c; stroke-width: 0.75; stroke-linecap: round"/>
   </g>
   <g id="line2d_9">
    <path d="M 23.442566 47.37481 
L 23.442566 46.110721 
" clip-path="url(#pbd9f38bdca)" style="fill: none; stroke: #8c8c8c; stroke-width: 4; stroke-linecap: round"/>
   </g>
   <g id="line2d_10">
    <path d="M 23.442566 46.806701 
" clip-path="url(#pbd9f38bdca)" style="fill: none; stroke: #6f6f6f; stroke-width: 1.2; stroke-linecap: round"/>
    <defs>
     <path id="m7f85790db0" d="M 0 0.833333 
C 0.221003 0.833333 0.432983 0.745528 0.589256 0.589256 
C 0.745528 0.432983 0.833333 0.221003 0.833333 0 
C 0.833333 -0.221003 0.745528 -0.432983 0.589256 -0.589256 
C 0.432983 -0.745528 0.221003 -0.833333 0 -0.833333 
C -0.221003 -0.833333 -0.432983 -0.745528 -0.589256 -0.589256 
C -0.745528 -0.432983 -0.833333 -0.221003 -0.833333 0 
C -0.833333 0.221003 -0.745528 0.432983 -0.589256 0.589256 
C -0.432983 0.745528 -0.221003 0.833333 0 0.833333 
z
" style="stroke: #ffffff; stroke-width: 0.8"/>
    </defs>
    <g clip-path="url(#pbd9f38bdca)">
     <use xlink:href="#m7f85790db0" x="23.442566" y="46.806701" style="fill: #ffffff; stroke: #ffffff; stroke-width: 0.8"/>
    </g>
   </g>
   <g id="line2d_11">
    <path d="M 50.31753 46.066531 
L 50.31753 40.486742 
" clip-path="url(#pbd9f38bdca)" style="fill: none; stroke: #8c8c8c; stroke-width: 0.75; stroke-linecap: round"/>
   </g>
   <g id="line2d_12">
    <path d="M 50.31753 45.046551 
L 50.31753 43.125422 
" clip-path="url(#pbd9f38bdca)" style="fill: none; stroke: #8c8c8c; stroke-width: 4; stroke-linecap: round"/>
   </g>
   <g id="line2d_13">
    <path d="M 50.31753 44.251879 
" clip-path="url(#pbd9f38bdca)" style="fill: none; stroke: #6f6f6f; stroke-width: 1.2; stroke-linecap: round"/>
    <g clip-path="url(#pbd9f38bdca)">
     <use xlink:href="#m7f85790db0" x="50.31753" y="44.251879" style="fill: #ffffff; stroke: #ffffff; stroke-width: 0.8"/>
    </g>
   </g>
   <g id="line2d_14">
    <path d="M 77.192494 47.094556 
L 77.192494 41.466926 
" clip-path="url(#pbd9f38bdca)" style="fill: none; stroke: #8c8c8c; stroke-width: 0.75; stroke-linecap: round"/>
   </g>
   <g id="line2d_15">
    <path d="M 77.192494 45.968276 
L 77.192494 43.969104 
" clip-path="url(#pbd9f38bdca)" style="fill: none; stroke: #8c8c8c; stroke-width: 4; stroke-linecap: round"/>
   </g>
   <g id="line2d_16">
    <path d="M 77.192494 44.97852 
" clip-path="url(#pbd9f38bdca)" style="fill: none; stroke: #6f6f6f; stroke-width: 1.2; stroke-linecap: round"/>
    <g clip-path="url(#pbd9f38bdca)">
     <use xlink:href="#m7f85790db0" x="77.192494" y="44.97852" style="fill: #ffffff; stroke: #ffffff; stroke-width: 0.8"/>
    </g>
   </g>
   <g id="line2d_17">
    <path d="M 104.067458 48.212669 
L 104.067458 44.422196 
" clip-path="url(#pbd9f38bdca)" style="fill: none; stroke: #8c8c8c; stroke-width: 0.75; stroke-linecap: round"/>
   </g>
   <g id="line2d_18">
    <path d="M 104.067458 47.105079 
L 104.067458 45.839006 
" clip-path="url(#pbd9f38bdca)" style="fill: none; stroke: #8c8c8c; stroke-width: 4; stroke-linecap: round"/>
   </g>
   <g id="line2d_19">
    <path d="M 104.067458 46.275178 
" clip-path="url(#pbd9f38bdca)" style="fill: none; stroke: #6f6f6f; stroke-width: 1.2; stroke-linecap: round"/>
    <g clip-path="url(#pbd9f38bdca)">
     <use xlink:href="#m7f85790db0" x="104.067458" y="46.275178" style="fill: #ffffff; stroke: #ffffff; stroke-width: 0.8"/>
    </g>
   </g>
   <g id="line2d_20">
    <path d="M 130.942422 47.954334 
L 130.942422 44.602633 
" clip-path="url(#pbd9f38bdca)" style="fill: none; stroke: #8c8c8c; stroke-width: 0.75; stroke-linecap: round"/>
   </g>
   <g id="line2d_21">
    <path d="M 130.942422 47.464857 
L 130.942422 46.239336 
" clip-path="url(#pbd9f38bdca)" style="fill: none; stroke: #8c8c8c; stroke-width: 4; stroke-linecap: round"/>
   </g>
   <g id="line2d_22">
    <path d="M 130.942422 46.94218 
" clip-path="url(#pbd9f38bdca)" style="fill: none; stroke: #6f6f6f; stroke-width: 1.2; stroke-linecap: round"/>
    <g clip-path="url(#pbd9f38bdca)">
     <use xlink:href="#m7f85790db0" x="130.942422" y="46.94218" style="fill: #ffffff; stroke: #ffffff; stroke-width: 0.8"/>
    </g>
   </g>
   <g id="line2d_23">
    <path d="M 157.817386 48.34918 
L 157.817386 48.24094 
" clip-path="url(#pbd9f38bdca)" style="fill: none; stroke: #8c8c8c; stroke-width: 0.75; stroke-linecap: round"/>
   </g>
   <g id="line2d_24">
    <path d="M 157.817386 48.311039 
L 157.817386 48.262497 
" clip-path="url(#pbd9f38bdca)" style="fill: none; stroke: #8c8c8c; stroke-width: 4; stroke-linecap: round"/>
   </g>
   <g id="line2d_25">
    <path d="M 157.817386 48.275791 
" clip-path="url(#pbd9f38bdca)" style="fill: none; stroke: #6f6f6f; stroke-width: 1.2; stroke-linecap: round"/>
    <g clip-path="url(#pbd9f38bdca)">
     <use xlink:href="#m7f85790db0" x="157.817386" y="48.275791" style="fill: #ffffff; stroke: #ffffff; stroke-width: 0.8"/>
    </g>
   </g>
   <g id="line2d_26">
    <path d="M 184.69235 48.339366 
L 184.69235 47.856924 
" clip-path="url(#pbd9f38bdca)" style="fill: none; stroke: #8c8c8c; stroke-width: 0.75; stroke-linecap: round"/>
   </g>
   <g id="line2d_27">
    <path d="M 184.69235 48.252994 
L 184.69235 47.948087 
" clip-path="url(#pbd9f38bdca)" style="fill: none; stroke: #8c8c8c; stroke-width: 4; stroke-linecap: round"/>
   </g>
   <g id="line2d_28">
    <path d="M 184.69235 48.081888 
" clip-path="url(#pbd9f38bdca)" style="fill: none; stroke: #6f6f6f; stroke-width: 1.2; stroke-linecap: round"/>
    <g clip-path="url(#pbd9f38bdca)">
     <use xlink:href="#m7f85790db0" x="184.69235" y="48.081888" style="fill: #ffffff; stroke: #ffffff; stroke-width: 0.8"/>
    </g>
   </g>
   <g id="line2d_29">
    <path d="M 211.567314 46.893468 
L 211.567314 44.393436 
" clip-path="url(#pbd9f38bdca)" style="fill: none; stroke: #8c8c8c; stroke-width: 0.75; stroke-linecap: round"/>
   </g>
   <g id="line2d_30">
    <path d="M 211.567314 46.050664 
L 211.567314 45.070726 
" clip-path="url(#pbd9f38bdca)" style="fill: none; stroke: #8c8c8c; stroke-width: 4; stroke-linecap: round"/>
   </g>
   <g id="line2d_31">
    <path d="M 211.567314 45.517449 
" clip-path="url(#pbd9f38bdca)" style="fill: none; stroke: #6f6f6f; stroke-width: 1.2; stroke-linecap: round"/>
    <g clip-path="url(#pbd9f38bdca)">
     <use xlink:href="#m7f85790db0" x="211.567314" y="45.517449" style="fill: #ffffff; stroke: #ffffff; stroke-width: 0.8"/>
    </g>
   </g>
   <g id="line2d_32">
    <path d="M 238.442278 47.668994 
L 238.442278 43.483865 
" clip-path="url(#pbd9f38bdca)" style="fill: none; stroke: #8c8c8c; stroke-width: 0.75; stroke-linecap: round"/>
   </g>
   <g id="line2d_33">
    <path d="M 238.442278 46.741799 
L 238.442278 45.209877 
" clip-path="url(#pbd9f38bdca)" style="fill: none; stroke: #8c8c8c; stroke-width: 4; stroke-linecap: round"/>
   </g>
   <g id="line2d_34">
    <path d="M 238.442278 45.936311 
" clip-path="url(#pbd9f38bdca)" style="fill: none; stroke: #6f6f6f; stroke-width: 1.2; stroke-linecap: round"/>
    <g clip-path="url(#pbd9f38bdca)">
     <use xlink:href="#m7f85790db0" x="238.442278" y="45.936311" style="fill: #ffffff; stroke: #ffffff; stroke-width: 0.8"/>
    </g>
   </g>
   <g id="patch_3">
    <path d="M 10.005084 54.222338 
L 10.005084 4.076256 
" style="fill: none; stroke: #777777; stroke-width: 0.5; stroke-linejoin: miter; stroke-linecap: square"/>
   </g>
   <g id="patch_4">
    <path d="M 10.005084 56.722338 
L 251.87976 56.722338 
" style="fill: none; stroke: #777777; stroke-width: 0.5; stroke-linejoin: miter; stroke-linecap: square"/>
   </g>
  </g>
 </g>
 <defs>
  <clipPath id="pbd9f38bdca">
   <rect x="10.005084" y="4.076256" width="241.874676" height="50.146082"/>
  </clipPath>
 </defs>
</svg>
