<?xml version="1.0" encoding="utf-8" standalone="no"?>
<!DOCTYPE svg PUBLIC "-//W3C//DTD SVG 1.1//EN"
  "http://www.w3.org/Graphics/SVG/1.1/DTD/svg11.dtd">
<svg xmlns:xlink="http://www.w3.org/1999/xlink" width="56.16pt" height="84.96pt" viewBox="0 0 56.16 84.96" xmlns="http://www.w3.org/2000/svg" version="1.1">
 <metadata>
  <rdf:RDF xmlns:dc="http://purl.org/dc/elements/1.1/" xmlns:cc="http://creativecommons.org/ns#" xmlns:rdf="http://www.w3.org/1999/02/22-rdf-syntax-ns#">
   <cc:Work>
    <dc:type rdf:resource="http://purl.org/dc/dcmitype/StillImage"/>
    <dc:date>2024-05-27T15:37:01.343590</dc:date>
    <dc:format>image/svg+xml</dc:format>
    <dc:creator>
     <cc:Agent>
      <dc:title>Matplotlib v3.8.3, https://matplotlib.org/</dc:title>
     </cc:Agent>
    </dc:creator>
   </cc:Work>
  </rdf:RDF>
 </metadata>
 <defs>
  <style type="text/css">*{stroke-linejoin: round; stroke-linecap: butt}</style>
 </defs>
 <g id="figure_1">
  <g id="patch_1">
   <path d="M 0 84.96 
L 56.16 84.96 
L 56.16 0 
L 0 0 
z
" style="fill: #ffffff"/>
  </g>
  <g id="axes_1">
   <g id="patch_2">
    <path d="M 10.005084 74.419526 
L 53.15976 74.419526 
L 53.15976 4.076256 
L 10.005084 4.076256 
z
" style="fill: #ffffff"/>
   </g>
   <g id="matplotlib.axis_1">
    <g id="xtick_1">
     <g id="text_1">
      <!-- GATA+ Cells -->
      <g style="fill: #333333" transform="translate(10.631175 81.230229) scale(0.035 -0.035)">
       <defs>
        <path id="Helvetica-47" d="M 2472 4709 
Q 3119 4709 3591 4459 
Q 4275 4100 4428 3200 
L 3813 3200 
Q 3700 3703 3347 3933 
Q 2994 4163 2456 4163 
Q 1819 4163 1383 3684 
Q 947 3206 947 2259 
Q 947 1441 1306 927 
Q 1666 413 2478 413 
Q 3100 413 3508 773 
Q 3916 1134 3925 1941 
L 2488 1941 
L 2488 2456 
L 4503 2456 
L 4503 0 
L 4103 0 
L 3953 591 
Q 3638 244 3394 109 
Q 2984 -122 2353 -122 
Q 1538 -122 950 406 
Q 309 1069 309 2225 
Q 309 3378 934 4059 
Q 1528 4709 2472 4709 
z
M 2369 4716 
L 2369 4716 
z
" transform="scale(0.015625)"/>
        <path id="Helvetica-41" d="M 2844 1881 
L 2147 3909 
L 1406 1881 
L 2844 1881 
z
M 1822 4591 
L 2525 4591 
L 4191 0 
L 3509 0 
L 3044 1375 
L 1228 1375 
L 731 0 
L 94 0 
L 1822 4591 
z
" transform="scale(0.015625)"/>
        <path id="Helvetica-54" d="M 3828 4591 
L 3828 4044 
L 2281 4044 
L 2281 0 
L 1650 0 
L 1650 4044 
L 103 4044 
L 103 4591 
L 3828 4591 
z
" transform="scale(0.015625)"/>
        <path id="Helvetica-2b" d="M 288 1369 
L 288 1894 
L 1650 1894 
L 1650 3266 
L 2184 3266 
L 2184 1894 
L 3547 1894 
L 3547 1369 
L 2184 1369 
L 2184 0 
L 1650 0 
L 1650 1369 
L 288 1369 
z
" transform="scale(0.015625)"/>
        <path id="Helvetica-20" transform="scale(0.015625)"/>
        <path id="Helvetica-43" d="M 2422 4716 
Q 3294 4716 3775 4256 
Q 4256 3797 4309 3213 
L 3703 3213 
Q 3600 3656 3292 3915 
Q 2984 4175 2428 4175 
Q 1750 4175 1333 3698 
Q 916 3222 916 2238 
Q 916 1431 1292 929 
Q 1669 428 2416 428 
Q 3103 428 3463 956 
Q 3653 1234 3747 1688 
L 4353 1688 
Q 4272 963 3816 472 
Q 3269 -119 2341 -119 
Q 1541 -119 997 366 
Q 281 1006 281 2344 
Q 281 3359 819 4009 
Q 1400 4716 2422 4716 
z
M 2297 4716 
L 2297 4716 
z
" transform="scale(0.015625)"/>
        <path id="Helvetica-65" d="M 1806 3422 
Q 2163 3422 2497 3255 
Q 2831 3088 3006 2822 
Q 3175 2569 3231 2231 
Q 3281 2000 3281 1494 
L 828 1494 
Q 844 984 1069 676 
Q 1294 369 1766 369 
Q 2206 369 2469 659 
Q 2619 828 2681 1050 
L 3234 1050 
Q 3213 866 3089 639 
Q 2966 413 2813 269 
Q 2556 19 2178 -69 
Q 1975 -119 1719 -119 
Q 1094 -119 659 336 
Q 225 791 225 1609 
Q 225 2416 662 2919 
Q 1100 3422 1806 3422 
z
M 2703 1941 
Q 2669 2306 2544 2525 
Q 2313 2931 1772 2931 
Q 1384 2931 1121 2651 
Q 859 2372 844 1941 
L 2703 1941 
z
M 1753 3428 
L 1753 3428 
z
" transform="scale(0.015625)"/>
        <path id="Helvetica-6c" d="M 428 4591 
L 991 4591 
L 991 0 
L 428 0 
L 428 4591 
z
" transform="scale(0.015625)"/>
        <path id="Helvetica-73" d="M 747 1050 
Q 772 769 888 619 
Q 1100 347 1625 347 
Q 1938 347 2175 483 
Q 2413 619 2413 903 
Q 2413 1119 2222 1231 
Q 2100 1300 1741 1391 
L 1294 1503 
Q 866 1609 663 1741 
Q 300 1969 300 2372 
Q 300 2847 642 3140 
Q 984 3434 1563 3434 
Q 2319 3434 2653 2991 
Q 2863 2709 2856 2384 
L 2325 2384 
Q 2309 2575 2191 2731 
Q 1997 2953 1519 2953 
Q 1200 2953 1036 2831 
Q 872 2709 872 2509 
Q 872 2291 1088 2159 
Q 1213 2081 1456 2022 
L 1828 1931 
Q 2434 1784 2641 1647 
Q 2969 1431 2969 969 
Q 2969 522 2630 197 
Q 2291 -128 1597 -128 
Q 850 -128 539 211 
Q 228 550 206 1050 
L 747 1050 
z
M 1578 3428 
L 1578 3428 
z
" transform="scale(0.015625)"/>
       </defs>
       <use xlink:href="#Helvetica-47"/>
       <use xlink:href="#Helvetica-41" x="77.783203"/>
       <use xlink:href="#Helvetica-54" x="144.482422"/>
       <use xlink:href="#Helvetica-41" x="205.566406"/>
       <use xlink:href="#Helvetica-2b" x="272.265625"/>
       <use xlink:href="#Helvetica-20" x="330.664062"/>
       <use xlink:href="#Helvetica-43" x="358.447266"/>
       <use xlink:href="#Helvetica-65" x="430.664062"/>
       <use xlink:href="#Helvetica-6c" x="486.279297"/>
       <use xlink:href="#Helvetica-6c" x="508.496094"/>
       <use xlink:href="#Helvetica-73" x="530.712891"/>
      </g>
     </g>
    </g>
    <g id="xtick_2">
     <g id="text_2">
      <!-- ICOS+ Cells -->
      <g style="fill: #333333" transform="translate(32.694685 81.230229) scale(0.035 -0.035)">
       <defs>
        <path id="Helvetica-49" d="M 628 4591 
L 1256 4591 
L 1256 0 
L 628 0 
L 628 4591 
z
" transform="scale(0.015625)"/>
        <path id="Helvetica-4f" d="M 2469 4716 
Q 3684 4716 4269 3934 
Q 4725 3325 4725 2375 
Q 4725 1347 4203 666 
Q 3591 -134 2456 -134 
Q 1397 -134 791 566 
Q 250 1241 250 2272 
Q 250 3203 713 3866 
Q 1306 4716 2469 4716 
z
M 2531 422 
Q 3353 422 3720 1011 
Q 4088 1600 4088 2366 
Q 4088 3175 3664 3669 
Q 3241 4163 2506 4163 
Q 1794 4163 1344 3673 
Q 894 3184 894 2231 
Q 894 1469 1280 945 
Q 1666 422 2531 422 
z
M 2488 4716 
L 2488 4716 
z
" transform="scale(0.015625)"/>
        <path id="Helvetica-53" d="M 894 1481 
Q 916 1091 1078 847 
Q 1388 391 2169 391 
Q 2519 391 2806 491 
Q 3363 684 3363 1184 
Q 3363 1559 3128 1719 
Q 2891 1875 2384 1991 
L 1763 2131 
Q 1153 2269 900 2434 
Q 463 2722 463 3294 
Q 463 3913 891 4309 
Q 1319 4706 2103 4706 
Q 2825 4706 3329 4357 
Q 3834 4009 3834 3244 
L 3250 3244 
Q 3203 3613 3050 3809 
Q 2766 4169 2084 4169 
Q 1534 4169 1293 3937 
Q 1053 3706 1053 3400 
Q 1053 3063 1334 2906 
Q 1519 2806 2169 2656 
L 2813 2509 
Q 3278 2403 3531 2219 
Q 3969 1897 3969 1284 
Q 3969 522 3414 194 
Q 2859 -134 2125 -134 
Q 1269 -134 784 303 
Q 300 738 309 1481 
L 894 1481 
z
M 2150 4716 
L 2150 4716 
z
" transform="scale(0.015625)"/>
       </defs>
       <use xlink:href="#Helvetica-49"/>
       <use xlink:href="#Helvetica-43" x="27.783203"/>
       <use xlink:href="#Helvetica-4f" x="100"/>
       <use xlink:href="#Helvetica-53" x="177.783203"/>
       <use xlink:href="#Helvetica-2b" x="244.482422"/>
       <use xlink:href="#Helvetica-20" x="302.880859"/>
       <use xlink:href="#Helvetica-43" x="330.664062"/>
       <use xlink:href="#Helvetica-65" x="402.880859"/>
       <use xlink:href="#Helvetica-6c" x="458.496094"/>
       <use xlink:href="#Helvetica-6c" x="480.712891"/>
       <use xlink:href="#Helvetica-73" x="502.929688"/>
      </g>
     </g>
    </g>
   </g>
   <g id="matplotlib.axis_2">
    <g id="ytick_1">
     <g id="line2d_1">
      <defs>
       <path id="m1cb5b22d99" d="M 0 0 
L -1 0 
" style="stroke: #777777; stroke-width: 0.5"/>
      </defs>
      <g>
       <use xlink:href="#m1cb5b22d99" x="10.005084" y="66.189518" style="fill: #777777; stroke: #777777; stroke-width: 0.5"/>
      </g>
     </g>
     <g id="text_3">
      <!-- 0 -->
      <g style="fill: #333333" transform="translate(6.336802 67.265534) scale(0.03 -0.03)">
       <defs>
        <path id="Helvetica-30" d="M 1731 4475 
Q 2600 4475 2988 3759 
Q 3288 3206 3288 2244 
Q 3288 1331 3016 734 
Q 2622 -122 1728 -122 
Q 922 -122 528 578 
Q 200 1163 200 2147 
Q 200 2909 397 3456 
Q 766 4475 1731 4475 
z
M 1725 391 
Q 2163 391 2422 778 
Q 2681 1166 2681 2222 
Q 2681 2984 2493 3476 
Q 2306 3969 1766 3969 
Q 1269 3969 1039 3501 
Q 809 3034 809 2125 
Q 809 1441 956 1025 
Q 1181 391 1725 391 
z
" transform="scale(0.015625)"/>
       </defs>
       <use xlink:href="#Helvetica-30"/>
      </g>
     </g>
    </g>
    <g id="ytick_2">
     <g id="line2d_2">
      <g>
       <use xlink:href="#m1cb5b22d99" x="10.005084" y="55.837308" style="fill: #777777; stroke: #777777; stroke-width: 0.5"/>
      </g>
     </g>
     <g id="text_4">
      <!-- 20 -->
      <g style="fill: #333333" transform="translate(4.668521 56.913323) scale(0.03 -0.03)">
       <defs>
        <path id="Helvetica-32" d="M 200 0 
Q 231 578 439 1006 
Q 647 1434 1250 1784 
L 1850 2131 
Q 2253 2366 2416 2531 
Q 2672 2791 2672 3125 
Q 2672 3516 2437 3745 
Q 2203 3975 1813 3975 
Q 1234 3975 1013 3538 
Q 894 3303 881 2888 
L 309 2888 
Q 319 3472 525 3841 
Q 891 4491 1816 4491 
Q 2584 4491 2939 4075 
Q 3294 3659 3294 3150 
Q 3294 2613 2916 2231 
Q 2697 2009 2131 1694 
L 1703 1456 
Q 1397 1288 1222 1134 
Q 909 863 828 531 
L 3272 531 
L 3272 0 
L 200 0 
z
" transform="scale(0.015625)"/>
       </defs>
       <use xlink:href="#Helvetica-32"/>
       <use xlink:href="#Helvetica-30" x="55.615234"/>
      </g>
     </g>
    </g>
    <g id="ytick_3">
     <g id="line2d_3">
      <g>
       <use xlink:href="#m1cb5b22d99" x="10.005084" y="45.485097" style="fill: #777777; stroke: #777777; stroke-width: 0.5"/>
      </g>
     </g>
     <g id="text_5">
      <!-- 40 -->
      <g style="fill: #333333" transform="translate(4.668521 46.561113) scale(0.03 -0.03)">
       <defs>
        <path id="Helvetica-34" d="M 2116 1584 
L 2116 3613 
L 681 1584 
L 2116 1584 
z
M 2125 0 
L 2125 1094 
L 163 1094 
L 163 1644 
L 2213 4488 
L 2688 4488 
L 2688 1584 
L 3347 1584 
L 3347 1094 
L 2688 1094 
L 2688 0 
L 2125 0 
z
" transform="scale(0.015625)"/>
       </defs>
       <use xlink:href="#Helvetica-34"/>
       <use xlink:href="#Helvetica-30" x="55.615234"/>
      </g>
     </g>
    </g>
    <g id="ytick_4">
     <g id="line2d_4">
      <g>
       <use xlink:href="#m1cb5b22d99" x="10.005084" y="35.132887" style="fill: #777777; stroke: #777777; stroke-width: 0.5"/>
      </g>
     </g>
     <g id="text_6">
      <!-- 60 -->
      <g style="fill: #333333" transform="translate(4.668521 36.208903) scale(0.03 -0.03)">
       <defs>
        <path id="Helvetica-36" d="M 1872 4494 
Q 2622 4494 2917 4105 
Q 3213 3716 3213 3303 
L 2656 3303 
Q 2606 3569 2497 3719 
Q 2294 4000 1881 4000 
Q 1409 4000 1131 3564 
Q 853 3128 822 2316 
Q 1016 2600 1309 2741 
Q 1578 2866 1909 2866 
Q 2472 2866 2890 2506 
Q 3309 2147 3309 1434 
Q 3309 825 2912 354 
Q 2516 -116 1781 -116 
Q 1153 -116 697 361 
Q 241 838 241 1966 
Q 241 2800 444 3381 
Q 834 4494 1872 4494 
z
M 1831 384 
Q 2275 384 2495 682 
Q 2716 981 2716 1388 
Q 2716 1731 2519 2042 
Q 2322 2353 1803 2353 
Q 1441 2353 1167 2112 
Q 894 1872 894 1388 
Q 894 963 1142 673 
Q 1391 384 1831 384 
z
" transform="scale(0.015625)"/>
       </defs>
       <use xlink:href="#Helvetica-36"/>
       <use xlink:href="#Helvetica-30" x="55.615234"/>
      </g>
     </g>
    </g>
    <g id="ytick_5">
     <g id="line2d_5">
      <g>
       <use xlink:href="#m1cb5b22d99" x="10.005084" y="24.780677" style="fill: #777777; stroke: #777777; stroke-width: 0.5"/>
      </g>
     </g>
     <g id="text_7">
      <!-- 80 -->
      <g style="fill: #333333" transform="translate(4.668521 25.856692) scale(0.03 -0.03)">
       <defs>
        <path id="Helvetica-38" d="M 1741 2600 
Q 2113 2600 2322 2808 
Q 2531 3016 2531 3303 
Q 2531 3553 2331 3762 
Q 2131 3972 1722 3972 
Q 1316 3972 1134 3762 
Q 953 3553 953 3272 
Q 953 2956 1187 2778 
Q 1422 2600 1741 2600 
z
M 1775 384 
Q 2166 384 2423 595 
Q 2681 806 2681 1225 
Q 2681 1659 2415 1884 
Q 2150 2109 1734 2109 
Q 1331 2109 1076 1879 
Q 822 1650 822 1244 
Q 822 894 1055 639 
Q 1288 384 1775 384 
z
M 975 2384 
Q 741 2484 609 2619 
Q 363 2869 363 3269 
Q 363 3769 725 4128 
Q 1088 4488 1753 4488 
Q 2397 4488 2762 4148 
Q 3128 3809 3128 3356 
Q 3128 2938 2916 2678 
Q 2797 2531 2547 2391 
Q 2825 2263 2984 2097 
Q 3281 1784 3281 1284 
Q 3281 694 2884 283 
Q 2488 -128 1763 -128 
Q 1109 -128 657 226 
Q 206 581 206 1256 
Q 206 1653 400 1942 
Q 594 2231 975 2384 
z
" transform="scale(0.015625)"/>
       </defs>
       <use xlink:href="#Helvetica-38"/>
       <use xlink:href="#Helvetica-30" x="55.615234"/>
      </g>
     </g>
    </g>
    <g id="ytick_6">
     <g id="line2d_6">
      <g>
       <use xlink:href="#m1cb5b22d99" x="10.005084" y="14.428466" style="fill: #777777; stroke: #777777; stroke-width: 0.5"/>
      </g>
     </g>
     <g id="text_8">
      <!-- 100 -->
      <g style="fill: #333333" transform="translate(3.00024 15.504482) scale(0.03 -0.03)">
       <defs>
        <path id="Helvetica-31" d="M 613 3169 
L 613 3600 
Q 1222 3659 1462 3798 
Q 1703 3938 1822 4456 
L 2266 4456 
L 2266 0 
L 1666 0 
L 1666 3169 
L 613 3169 
z
" transform="scale(0.015625)"/>
       </defs>
       <use xlink:href="#Helvetica-31"/>
       <use xlink:href="#Helvetica-30" x="55.615234"/>
       <use xlink:href="#Helvetica-30" x="111.230469"/>
      </g>
     </g>
    </g>
    <g id="ytick_7">
     <g id="line2d_7">
      <g>
       <use xlink:href="#m1cb5b22d99" x="10.005084" y="4.076256" style="fill: #777777; stroke: #777777; stroke-width: 0.5"/>
      </g>
     </g>
     <g id="text_9">
      <!-- 120 -->
      <g style="fill: #333333" transform="translate(3.00024 5.152271) scale(0.03 -0.03)">
       <use xlink:href="#Helvetica-31"/>
       <use xlink:href="#Helvetica-32" x="55.615234"/>
       <use xlink:href="#Helvetica-30" x="111.230469"/>
      </g>
     </g>
    </g>
   </g>
   <g id="PolyCollection_1">
    <defs>
     <path id="m9b1c23d305" d="M 22.812599 -16.886873 
L 18.774907 -16.886873 
L 18.41642 -17.056526 
L 18.023076 -17.22618 
L 17.597682 -17.395834 
L 17.144438 -17.565488 
L 16.668932 -17.735142 
L 16.178053 -17.904795 
L 15.679824 -18.074449 
L 15.18315 -18.244103 
L 14.697494 -18.413757 
L 14.2325 -18.583411 
L 13.797578 -18.753064 
L 13.40149 -18.922718 
L 13.051947 -19.092372 
L 12.755272 -19.262026 
L 12.516125 -19.43168 
L 12.337341 -19.601333 
L 12.219865 -19.770987 
L 12.162818 -19.940641 
L 12.163652 -20.110295 
L 12.218419 -20.279949 
L 12.322095 -20.449603 
L 12.468951 -20.619256 
L 12.652936 -20.78891 
L 12.868036 -20.958564 
L 13.10858 -21.128218 
L 13.369482 -21.297872 
L 13.646393 -21.467525 
L 13.935764 -21.637179 
L 14.23482 -21.806833 
L 14.541462 -21.976487 
L 14.85411 -22.146141 
L 15.171515 -22.315794 
L 15.492549 -22.485448 
L 15.81602 -22.655102 
L 16.140508 -22.824756 
L 16.464249 -22.99441 
L 16.785067 -23.164063 
L 17.100376 -23.333717 
L 17.407218 -23.503371 
L 17.702361 -23.673025 
L 17.982422 -23.842679 
L 18.244026 -24.012332 
L 18.483956 -24.181986 
L 18.699322 -24.35164 
L 18.887698 -24.521294 
L 19.047251 -24.690948 
L 19.176833 -24.860601 
L 19.27605 -25.030255 
L 19.345292 -25.199909 
L 19.385735 -25.369563 
L 19.399302 -25.539217 
L 19.388609 -25.70887 
L 19.356863 -25.878524 
L 19.307754 -26.048178 
L 19.245315 -26.217832 
L 19.173763 -26.387486 
L 19.097341 -26.557139 
L 19.02014 -26.726793 
L 18.945933 -26.896447 
L 18.87802 -27.066101 
L 18.81909 -27.235755 
L 18.771112 -27.405408 
L 18.735265 -27.575062 
L 18.711909 -27.744716 
L 18.700603 -27.91437 
L 18.70017 -28.084024 
L 18.708804 -28.253677 
L 18.724223 -28.423331 
L 18.743845 -28.592985 
L 18.764986 -28.762639 
L 18.785063 -28.932293 
L 18.80179 -29.101946 
L 18.813345 -29.2716 
L 18.818514 -29.441254 
L 18.816779 -29.610908 
L 18.808361 -29.780562 
L 18.794212 -29.950215 
L 18.775943 -30.119869 
L 18.755723 -30.289523 
L 18.736117 -30.459177 
L 18.719919 -30.628831 
L 18.709957 -30.798484 
L 18.708902 -30.968138 
L 18.719095 -31.137792 
L 18.742393 -31.307446 
L 18.780062 -31.4771 
L 18.832703 -31.646753 
L 18.900225 -31.816407 
L 18.981873 -31.986061 
L 19.076282 -32.155715 
L 19.181578 -32.325369 
L 19.295498 -32.495023 
L 19.415526 -32.664676 
L 19.539037 -32.83433 
L 19.663428 -33.003984 
L 19.786243 -33.173638 
L 19.905272 -33.343292 
L 20.018628 -33.512945 
L 20.124796 -33.682599 
L 21.462709 -33.682599 
L 21.462709 -33.682599 
L 21.568878 -33.512945 
L 21.682234 -33.343292 
L 21.801263 -33.173638 
L 21.924077 -33.003984 
L 22.048468 -32.83433 
L 22.171979 -32.664676 
L 22.292008 -32.495023 
L 22.405928 -32.325369 
L 22.511224 -32.155715 
L 22.605633 -31.986061 
L 22.68728 -31.816407 
L 22.754803 -31.646753 
L 22.807443 -31.4771 
L 22.845113 -31.307446 
L 22.868411 -31.137792 
L 22.878603 -30.968138 
L 22.877548 -30.798484 
L 22.867586 -30.628831 
L 22.851389 -30.459177 
L 22.831783 -30.289523 
L 22.811562 -30.119869 
L 22.793294 -29.950215 
L 22.779144 -29.780562 
L 22.770727 -29.610908 
L 22.768992 -29.441254 
L 22.774161 -29.2716 
L 22.785716 -29.101946 
L 22.802442 -28.932293 
L 22.82252 -28.762639 
L 22.843661 -28.592985 
L 22.863282 -28.423331 
L 22.878701 -28.253677 
L 22.887336 -28.084024 
L 22.886902 -27.91437 
L 22.875597 -27.744716 
L 22.852241 -27.575062 
L 22.816394 -27.405408 
L 22.768416 -27.235755 
L 22.709486 -27.066101 
L 22.641573 -26.896447 
L 22.567366 -26.726793 
L 22.490164 -26.557139 
L 22.413742 -26.387486 
L 22.342191 -26.217832 
L 22.279751 -26.048178 
L 22.230643 -25.878524 
L 22.198897 -25.70887 
L 22.188203 -25.539217 
L 22.201771 -25.369563 
L 22.242213 -25.199909 
L 22.311456 -25.030255 
L 22.410673 -24.860601 
L 22.540255 -24.690948 
L 22.699807 -24.521294 
L 22.888183 -24.35164 
L 23.103549 -24.181986 
L 23.34348 -24.012332 
L 23.605083 -23.842679 
L 23.885145 -23.673025 
L 24.180287 -23.503371 
L 24.487129 -23.333717 
L 24.802438 -23.164063 
L 25.123257 -22.99441 
L 25.446997 -22.824756 
L 25.771486 -22.655102 
L 26.094957 -22.485448 
L 26.415991 -22.315794 
L 26.733395 -22.146141 
L 27.046044 -21.976487 
L 27.352686 -21.806833 
L 27.651742 -21.637179 
L 27.941113 -21.467525 
L 28.218024 -21.297872 
L 28.478926 -21.128218 
L 28.71947 -20.958564 
L 28.934569 -20.78891 
L 29.118555 -20.619256 
L 29.265411 -20.449603 
L 29.369087 -20.279949 
L 29.423854 -20.110295 
L 29.424688 -19.940641 
L 29.36764 -19.770987 
L 29.250165 -19.601333 
L 29.07138 -19.43168 
L 28.832234 -19.262026 
L 28.535558 -19.092372 
L 28.186016 -18.922718 
L 27.789927 -18.753064 
L 27.355006 -18.583411 
L 26.890011 -18.413757 
L 26.404355 -18.244103 
L 25.907682 -18.074449 
L 25.409453 -17.904795 
L 24.918574 -17.735142 
L 24.443067 -17.565488 
L 23.989823 -17.395834 
L 23.564429 -17.22618 
L 23.171086 -17.056526 
L 22.812599 -16.886873 
z
" style="stroke: #6f6f6f; stroke-width: 0.15"/>
    </defs>
    <g clip-path="url(#pdbd84b9fea)">
     <use xlink:href="#m9b1c23d305" x="0" y="84.96" style="fill: #d6bba3; stroke: #6f6f6f; stroke-width: 0.15"/>
    </g>
   </g>
   <g id="PolyCollection_2">
    <defs>
     <path id="maee971daad" d="M 43.721714 -17.429747 
L 41.020468 -17.429747 
L 40.743431 -17.558108 
L 40.430886 -17.686469 
L 40.083064 -17.81483 
L 39.701268 -17.943191 
L 39.287961 -18.071552 
L 38.846809 -18.199913 
L 38.382672 -18.328274 
L 37.901544 -18.456635 
L 37.410438 -18.584996 
L 36.917232 -18.713357 
L 36.430462 -18.841718 
L 35.95909 -18.970078 
L 35.51224 -19.098439 
L 35.098917 -19.2268 
L 34.727715 -19.355161 
L 34.40653 -19.483522 
L 34.142276 -19.611883 
L 33.940618 -19.740244 
L 33.80574 -19.868605 
L 33.740156 -19.996966 
L 33.744567 -20.125327 
L 33.817802 -20.253688 
L 33.956825 -20.382049 
L 34.156835 -20.51041 
L 34.411459 -20.638771 
L 34.713023 -20.767131 
L 35.052901 -20.895492 
L 35.421916 -21.023853 
L 35.810771 -21.152214 
L 36.210474 -21.280575 
L 36.612735 -21.408936 
L 37.010297 -21.537297 
L 37.397182 -21.665658 
L 37.768837 -21.794019 
L 38.122164 -21.92238 
L 38.455456 -22.050741 
L 38.768227 -22.179102 
L 39.060987 -22.307463 
L 39.334968 -22.435824 
L 39.591829 -22.564185 
L 39.833391 -22.692545 
L 40.061392 -22.820906 
L 40.277314 -22.949267 
L 40.48226 -23.077628 
L 40.676903 -23.205989 
L 40.8615 -23.33435 
L 41.035948 -23.462711 
L 41.199875 -23.591072 
L 41.352756 -23.719433 
L 41.494027 -23.847794 
L 41.623182 -23.976155 
L 41.739863 -24.104516 
L 41.84391 -24.232877 
L 41.935387 -24.361238 
L 42.014579 -24.489598 
L 42.081968 -24.617959 
L 42.138181 -24.74632 
L 42.183936 -24.874681 
L 42.219979 -25.003042 
L 42.247021 -25.131403 
L 42.265677 -25.259764 
L 42.276426 -25.388125 
L 42.279574 -25.516486 
L 42.275233 -25.644847 
L 42.263326 -25.773208 
L 42.243598 -25.901569 
L 42.215653 -26.02993 
L 42.179005 -26.158291 
L 42.13314 -26.286651 
L 42.077601 -26.415012 
L 42.012074 -26.543373 
L 41.93648 -26.671734 
L 41.851062 -26.800095 
L 41.756472 -26.928456 
L 41.653823 -27.056817 
L 41.544731 -27.185178 
L 41.431319 -27.313539 
L 41.316178 -27.4419 
L 41.202295 -27.570261 
L 41.092943 -27.698622 
L 40.991534 -27.826983 
L 40.901445 -27.955344 
L 40.825842 -28.083705 
L 40.767488 -28.212065 
L 40.728583 -28.340426 
L 40.710626 -28.468787 
L 40.714315 -28.597148 
L 40.739505 -28.725509 
L 40.785221 -28.85387 
L 40.849714 -28.982231 
L 40.930576 -29.110592 
L 41.024888 -29.238953 
L 41.129395 -29.367314 
L 41.240693 -29.495675 
L 41.355406 -29.624036 
L 41.470352 -29.752397 
L 41.582685 -29.880758 
L 41.689988 -30.009118 
L 41.790343 -30.137479 
L 42.951839 -30.137479 
L 42.951839 -30.137479 
L 43.052194 -30.009118 
L 43.159497 -29.880758 
L 43.271829 -29.752397 
L 43.386776 -29.624036 
L 43.501489 -29.495675 
L 43.612787 -29.367314 
L 43.717294 -29.238953 
L 43.811606 -29.110592 
L 43.892468 -28.982231 
L 43.956961 -28.85387 
L 44.002676 -28.725509 
L 44.027867 -28.597148 
L 44.031556 -28.468787 
L 44.013598 -28.340426 
L 43.974694 -28.212065 
L 43.91634 -28.083705 
L 43.840737 -27.955344 
L 43.750648 -27.826983 
L 43.649239 -27.698622 
L 43.539887 -27.570261 
L 43.426004 -27.4419 
L 43.310863 -27.313539 
L 43.19745 -27.185178 
L 43.088359 -27.056817 
L 42.98571 -26.928456 
L 42.891119 -26.800095 
L 42.805702 -26.671734 
L 42.730108 -26.543373 
L 42.664581 -26.415012 
L 42.609042 -26.286651 
L 42.563177 -26.158291 
L 42.526528 -26.02993 
L 42.498584 -25.901569 
L 42.478856 -25.773208 
L 42.466949 -25.644847 
L 42.462608 -25.516486 
L 42.465756 -25.388125 
L 42.476505 -25.259764 
L 42.495161 -25.131403 
L 42.522203 -25.003042 
L 42.558246 -24.874681 
L 42.604001 -24.74632 
L 42.660214 -24.617959 
L 42.727603 -24.489598 
L 42.806795 -24.361238 
L 42.898272 -24.232877 
L 43.002319 -24.104516 
L 43.119 -23.976155 
L 43.248155 -23.847794 
L 43.389426 -23.719433 
L 43.542307 -23.591072 
L 43.706234 -23.462711 
L 43.880682 -23.33435 
L 44.065279 -23.205989 
L 44.259922 -23.077628 
L 44.464868 -22.949267 
L 44.68079 -22.820906 
L 44.908791 -22.692545 
L 45.150353 -22.564185 
L 45.407214 -22.435824 
L 45.681194 -22.307463 
L 45.973955 -22.179102 
L 46.286726 -22.050741 
L 46.620017 -21.92238 
L 46.973345 -21.794019 
L 47.345 -21.665658 
L 47.731885 -21.537297 
L 48.129447 -21.408936 
L 48.531708 -21.280575 
L 48.931411 -21.152214 
L 49.320266 -21.023853 
L 49.689281 -20.895492 
L 50.029159 -20.767131 
L 50.330723 -20.638771 
L 50.585347 -20.51041 
L 50.785357 -20.382049 
L 50.92438 -20.253688 
L 50.997615 -20.125327 
L 51.002026 -19.996966 
L 50.936441 -19.868605 
L 50.801564 -19.740244 
L 50.599906 -19.611883 
L 50.335651 -19.483522 
L 50.014467 -19.355161 
L 49.643265 -19.2268 
L 49.229942 -19.098439 
L 48.783092 -18.970078 
L 48.31172 -18.841718 
L 47.82495 -18.713357 
L 47.331744 -18.584996 
L 46.840638 -18.456635 
L 46.359509 -18.328274 
L 45.895373 -18.199913 
L 45.454221 -18.071552 
L 45.040914 -17.943191 
L 44.659118 -17.81483 
L 44.311295 -17.686469 
L 43.998751 -17.558108 
L 43.721714 -17.429747 
z
" style="stroke: #6f6f6f; stroke-width: 0.15"/>
    </defs>
    <g clip-path="url(#pdbd84b9fea)">
     <use xlink:href="#maee971daad" x="0" y="84.96" style="fill: #f1b9e0; stroke: #6f6f6f; stroke-width: 0.15"/>
    </g>
   </g>
   <g id="line2d_8">
    <path d="M 20.793753 65.72817 
L 20.793753 57.33665 
" clip-path="url(#pdbd84b9fea)" style="fill: none; stroke: #8c8c8c; stroke-width: 0.75; stroke-linecap: round"/>
   </g>
   <g id="line2d_9">
    <path d="M 20.793753 65.360347 
L 20.793753 61.079971 
" clip-path="url(#pdbd84b9fea)" style="fill: none; stroke: #8c8c8c; stroke-width: 4; stroke-linecap: round"/>
   </g>
   <g id="line2d_10">
    <path d="M 20.793753 63.948023 
" clip-path="url(#pdbd84b9fea)" style="fill: none; stroke: #6f6f6f; stroke-width: 1.2; stroke-linecap: round"/>
    <defs>
     <path id="me8c8552193" d="M 0 0.833333 
C 0.221003 0.833333 0.432983 0.745528 0.589256 0.589256 
C 0.745528 0.432983 0.833333 0.221003 0.833333 0 
C 0.833333 -0.221003 0.745528 -0.432983 0.589256 -0.589256 
C 0.432983 -0.745528 0.221003 -0.833333 0 -0.833333 
C -0.221003 -0.833333 -0.432983 -0.745528 -0.589256 -0.589256 
C -0.745528 -0.432983 -0.833333 -0.221003 -0.833333 0 
C -0.833333 0.221003 -0.745528 0.432983 -0.589256 0.589256 
C -0.432983 0.745528 -0.221003 0.833333 0 0.833333 
z
" style="stroke: #ffffff; stroke-width: 0.8"/>
    </defs>
    <g clip-path="url(#pdbd84b9fea)">
     <use xlink:href="#me8c8552193" x="20.793753" y="63.948023" style="fill: #ffffff; stroke: #ffffff; stroke-width: 0.8"/>
    </g>
   </g>
   <g id="line2d_11">
    <path d="M 42.371091 65.903949 
L 42.371091 62.464771 
" clip-path="url(#pdbd84b9fea)" style="fill: none; stroke: #8c8c8c; stroke-width: 0.75; stroke-linecap: round"/>
   </g>
   <g id="line2d_12">
    <path d="M 42.371091 65.208316 
L 42.371091 63.794727 
" clip-path="url(#pdbd84b9fea)" style="fill: none; stroke: #8c8c8c; stroke-width: 4; stroke-linecap: round"/>
   </g>
   <g id="line2d_13">
    <path d="M 42.371091 64.552138 
" clip-path="url(#pdbd84b9fea)" style="fill: none; stroke: #6f6f6f; stroke-width: 1.2; stroke-linecap: round"/>
    <g clip-path="url(#pdbd84b9fea)">
     <use xlink:href="#me8c8552193" x="42.371091" y="64.552138" style="fill: #ffffff; stroke: #ffffff; stroke-width: 0.8"/>
    </g>
   </g>
   <g id="patch_3">
    <path d="M 10.005084 74.419526 
L 10.005084 4.076256 
" style="fill: none; stroke: #777777; stroke-width: 0.5; stroke-linejoin: miter; stroke-linecap: square"/>
   </g>
   <g id="patch_4">
    <path d="M 10.005084 76.919526 
L 53.15976 76.919526 
" style="fill: none; stroke: #777777; stroke-width: 0.5; stroke-linejoin: miter; stroke-linecap: square"/>
   </g>
  </g>
 </g>
 <defs>
  <clipPath id="pdbd84b9fea">
   <rect x="10.005084" y="4.076256" width="43.154676" height="70.34327"/>
  </clipPath>
 </defs>
</svg>
