<?xml version="1.0" encoding="utf-8" standalone="no"?>
<!DOCTYPE svg PUBLIC "-//W3C//DTD SVG 1.1//EN"
  "http://www.w3.org/Graphics/SVG/1.1/DTD/svg11.dtd">
<svg xmlns:xlink="http://www.w3.org/1999/xlink" width="84.96pt" height="84.96pt" viewBox="0 0 84.96 84.96" xmlns="http://www.w3.org/2000/svg" version="1.1">
 <metadata>
  <rdf:RDF xmlns:dc="http://purl.org/dc/elements/1.1/" xmlns:cc="http://creativecommons.org/ns#" xmlns:rdf="http://www.w3.org/1999/02/22-rdf-syntax-ns#">
   <cc:Work>
    <dc:type rdf:resource="http://purl.org/dc/dcmitype/StillImage"/>
    <dc:date>2024-05-27T15:37:11.244862</dc:date>
    <dc:format>image/svg+xml</dc:format>
    <dc:creator>
     <cc:Agent>
      <dc:title>Matplotlib v3.8.3, https://matplotlib.org/</dc:title>
     </cc:Agent>
    </dc:creator>
   </cc:Work>
  </rdf:RDF>
 </metadata>
 <defs>
  <style type="text/css">*{stroke-linejoin: round; stroke-linecap: butt}</style>
 </defs>
 <g id="figure_1">
  <g id="patch_1">
   <path d="M 0 84.96 
L 84.96 84.96 
L 84.96 0 
L 0 0 
z
" style="fill: #ffffff"/>
  </g>
  <g id="axes_1">
   <g id="patch_2">
    <path d="M 13.341646 74.419526 
L 81.95976 74.419526 
L 81.95976 4.076256 
L 13.341646 4.076256 
z
" style="fill: #ffffff"/>
   </g>
   <g id="matplotlib.axis_1">
    <g id="xtick_1">
     <g id="text_1">
      <!-- B -->
      <g style="fill: #333333" transform="translate(23.610694 81.230229) scale(0.035 -0.035)">
       <defs>
        <path id="Helvetica-42" d="M 2213 2650 
Q 2606 2650 2825 2759 
Q 3169 2931 3169 3378 
Q 3169 3828 2803 3984 
Q 2597 4072 2191 4072 
L 1081 4072 
L 1081 2650 
L 2213 2650 
z
M 2422 531 
Q 2994 531 3238 863 
Q 3391 1072 3391 1369 
Q 3391 1869 2944 2050 
Q 2706 2147 2316 2147 
L 1081 2147 
L 1081 531 
L 2422 531 
z
M 472 4591 
L 2444 4591 
Q 3250 4591 3591 4109 
Q 3791 3825 3791 3453 
Q 3791 3019 3544 2741 
Q 3416 2594 3175 2472 
Q 3528 2338 3703 2169 
Q 4013 1869 4013 1341 
Q 4013 897 3734 538 
Q 3319 0 2413 0 
L 472 0 
L 472 4591 
z
" transform="scale(0.015625)"/>
       </defs>
       <use xlink:href="#Helvetica-42"/>
      </g>
     </g>
    </g>
    <g id="xtick_2">
     <g id="text_2">
      <!-- T -->
      <g style="fill: #333333" transform="translate(46.581836 81.230229) scale(0.035 -0.035)">
       <defs>
        <path id="Helvetica-54" d="M 3828 4591 
L 3828 4044 
L 2281 4044 
L 2281 0 
L 1650 0 
L 1650 4044 
L 103 4044 
L 103 4591 
L 3828 4591 
z
" transform="scale(0.015625)"/>
       </defs>
       <use xlink:href="#Helvetica-54"/>
      </g>
     </g>
    </g>
    <g id="xtick_3">
     <g id="text_3">
      <!-- IL7R Non B/T -->
      <g style="fill: #333333" transform="translate(59.922236 81.230229) scale(0.035 -0.035)">
       <defs>
        <path id="Helvetica-49" d="M 628 4591 
L 1256 4591 
L 1256 0 
L 628 0 
L 628 4591 
z
" transform="scale(0.015625)"/>
        <path id="Helvetica-4c" d="M 488 4591 
L 1109 4591 
L 1109 547 
L 3434 547 
L 3434 0 
L 488 0 
L 488 4591 
z
" transform="scale(0.015625)"/>
        <path id="Helvetica-37" d="M 3347 4400 
L 3347 3909 
Q 3131 3700 2773 3181 
Q 2416 2663 2141 2063 
Q 1869 1478 1728 997 
Q 1638 688 1494 0 
L 872 0 
Q 1084 1281 1809 2550 
Q 2238 3294 2709 3834 
L 234 3834 
L 234 4400 
L 3347 4400 
z
" transform="scale(0.015625)"/>
        <path id="Helvetica-52" d="M 2622 2488 
Q 3059 2488 3314 2663 
Q 3569 2838 3569 3294 
Q 3569 3784 3213 3963 
Q 3022 4056 2703 4056 
L 1184 4056 
L 1184 2488 
L 2622 2488 
z
M 563 4591 
L 2688 4591 
Q 3213 4591 3553 4438 
Q 4200 4144 4200 3353 
Q 4200 2941 4029 2678 
Q 3859 2416 3553 2256 
Q 3822 2147 3958 1969 
Q 4094 1791 4109 1391 
L 4131 775 
Q 4141 513 4175 384 
Q 4231 166 4375 103 
L 4375 0 
L 3613 0 
Q 3581 59 3562 153 
Q 3544 247 3531 516 
L 3494 1281 
Q 3472 1731 3159 1884 
Q 2981 1969 2600 1969 
L 1184 1969 
L 1184 0 
L 563 0 
L 563 4591 
z
" transform="scale(0.015625)"/>
        <path id="Helvetica-20" transform="scale(0.015625)"/>
        <path id="Helvetica-4e" d="M 488 4591 
L 1222 4591 
L 3541 872 
L 3541 4591 
L 4131 4591 
L 4131 0 
L 3434 0 
L 1081 3716 
L 1081 0 
L 488 0 
L 488 4591 
z
M 2269 4591 
L 2269 4591 
z
" transform="scale(0.015625)"/>
        <path id="Helvetica-6f" d="M 1741 363 
Q 2300 363 2508 786 
Q 2716 1209 2716 1728 
Q 2716 2197 2566 2491 
Q 2328 2953 1747 2953 
Q 1231 2953 997 2559 
Q 763 2166 763 1609 
Q 763 1075 997 719 
Q 1231 363 1741 363 
z
M 1763 3444 
Q 2409 3444 2856 3012 
Q 3303 2581 3303 1744 
Q 3303 934 2909 406 
Q 2516 -122 1688 -122 
Q 997 -122 590 345 
Q 184 813 184 1600 
Q 184 2444 612 2944 
Q 1041 3444 1763 3444 
z
M 1744 3428 
L 1744 3428 
z
" transform="scale(0.015625)"/>
        <path id="Helvetica-6e" d="M 413 3347 
L 947 3347 
L 947 2872 
Q 1184 3166 1450 3294 
Q 1716 3422 2041 3422 
Q 2753 3422 3003 2925 
Q 3141 2653 3141 2147 
L 3141 0 
L 2569 0 
L 2569 2109 
Q 2569 2416 2478 2603 
Q 2328 2916 1934 2916 
Q 1734 2916 1606 2875 
Q 1375 2806 1200 2600 
Q 1059 2434 1017 2257 
Q 975 2081 975 1753 
L 975 0 
L 413 0 
L 413 3347 
z
M 1734 3428 
L 1734 3428 
z
" transform="scale(0.015625)"/>
        <path id="Helvetica-2f" d="M 1456 4591 
L 1931 4591 
L 475 0 
L 0 0 
L 1456 4591 
z
" transform="scale(0.015625)"/>
       </defs>
       <use xlink:href="#Helvetica-49"/>
       <use xlink:href="#Helvetica-4c" x="27.783203"/>
       <use xlink:href="#Helvetica-37" x="83.398438"/>
       <use xlink:href="#Helvetica-52" x="139.013672"/>
       <use xlink:href="#Helvetica-20" x="211.230469"/>
       <use xlink:href="#Helvetica-4e" x="239.013672"/>
       <use xlink:href="#Helvetica-6f" x="311.230469"/>
       <use xlink:href="#Helvetica-6e" x="366.845703"/>
       <use xlink:href="#Helvetica-20" x="422.460938"/>
       <use xlink:href="#Helvetica-42" x="450.244141"/>
       <use xlink:href="#Helvetica-2f" x="516.943359"/>
       <use xlink:href="#Helvetica-54" x="544.726562"/>
      </g>
     </g>
    </g>
   </g>
   <g id="matplotlib.axis_2">
    <g id="ytick_1">
     <g id="line2d_1">
      <defs>
       <path id="m4b526d6120" d="M 0 0 
L -1 0 
" style="stroke: #777777; stroke-width: 0.5"/>
      </defs>
      <g>
       <use xlink:href="#m4b526d6120" x="13.341646" y="68.030497" style="fill: #777777; stroke: #777777; stroke-width: 0.5"/>
      </g>
     </g>
     <g id="text_4">
      <!-- 0 -->
      <g style="fill: #333333" transform="translate(9.673365 69.106513) scale(0.03 -0.03)">
       <defs>
        <path id="Helvetica-30" d="M 1731 4475 
Q 2600 4475 2988 3759 
Q 3288 3206 3288 2244 
Q 3288 1331 3016 734 
Q 2622 -122 1728 -122 
Q 922 -122 528 578 
Q 200 1163 200 2147 
Q 200 2909 397 3456 
Q 766 4475 1731 4475 
z
M 1725 391 
Q 2163 391 2422 778 
Q 2681 1166 2681 2222 
Q 2681 2984 2493 3476 
Q 2306 3969 1766 3969 
Q 1269 3969 1039 3501 
Q 809 3034 809 2125 
Q 809 1441 956 1025 
Q 1181 391 1725 391 
z
" transform="scale(0.015625)"/>
       </defs>
       <use xlink:href="#Helvetica-30"/>
      </g>
     </g>
    </g>
    <g id="ytick_2">
     <g id="line2d_2">
      <g>
       <use xlink:href="#m4b526d6120" x="13.341646" y="55.239649" style="fill: #777777; stroke: #777777; stroke-width: 0.5"/>
      </g>
     </g>
     <g id="text_5">
      <!-- 2000 -->
      <g style="fill: #333333" transform="translate(4.668521 56.315664) scale(0.03 -0.03)">
       <defs>
        <path id="Helvetica-32" d="M 200 0 
Q 231 578 439 1006 
Q 647 1434 1250 1784 
L 1850 2131 
Q 2253 2366 2416 2531 
Q 2672 2791 2672 3125 
Q 2672 3516 2437 3745 
Q 2203 3975 1813 3975 
Q 1234 3975 1013 3538 
Q 894 3303 881 2888 
L 309 2888 
Q 319 3472 525 3841 
Q 891 4491 1816 4491 
Q 2584 4491 2939 4075 
Q 3294 3659 3294 3150 
Q 3294 2613 2916 2231 
Q 2697 2009 2131 1694 
L 1703 1456 
Q 1397 1288 1222 1134 
Q 909 863 828 531 
L 3272 531 
L 3272 0 
L 200 0 
z
" transform="scale(0.015625)"/>
       </defs>
       <use xlink:href="#Helvetica-32"/>
       <use xlink:href="#Helvetica-30" x="55.615234"/>
       <use xlink:href="#Helvetica-30" x="111.230469"/>
       <use xlink:href="#Helvetica-30" x="166.845703"/>
      </g>
     </g>
    </g>
    <g id="ytick_3">
     <g id="line2d_3">
      <g>
       <use xlink:href="#m4b526d6120" x="13.341646" y="42.4488" style="fill: #777777; stroke: #777777; stroke-width: 0.5"/>
      </g>
     </g>
     <g id="text_6">
      <!-- 4000 -->
      <g style="fill: #333333" transform="translate(4.668521 43.524816) scale(0.03 -0.03)">
       <defs>
        <path id="Helvetica-34" d="M 2116 1584 
L 2116 3613 
L 681 1584 
L 2116 1584 
z
M 2125 0 
L 2125 1094 
L 163 1094 
L 163 1644 
L 2213 4488 
L 2688 4488 
L 2688 1584 
L 3347 1584 
L 3347 1094 
L 2688 1094 
L 2688 0 
L 2125 0 
z
" transform="scale(0.015625)"/>
       </defs>
       <use xlink:href="#Helvetica-34"/>
       <use xlink:href="#Helvetica-30" x="55.615234"/>
       <use xlink:href="#Helvetica-30" x="111.230469"/>
       <use xlink:href="#Helvetica-30" x="166.845703"/>
      </g>
     </g>
    </g>
    <g id="ytick_4">
     <g id="line2d_4">
      <g>
       <use xlink:href="#m4b526d6120" x="13.341646" y="29.657952" style="fill: #777777; stroke: #777777; stroke-width: 0.5"/>
      </g>
     </g>
     <g id="text_7">
      <!-- 6000 -->
      <g style="fill: #333333" transform="translate(4.668521 30.733968) scale(0.03 -0.03)">
       <defs>
        <path id="Helvetica-36" d="M 1872 4494 
Q 2622 4494 2917 4105 
Q 3213 3716 3213 3303 
L 2656 3303 
Q 2606 3569 2497 3719 
Q 2294 4000 1881 4000 
Q 1409 4000 1131 3564 
Q 853 3128 822 2316 
Q 1016 2600 1309 2741 
Q 1578 2866 1909 2866 
Q 2472 2866 2890 2506 
Q 3309 2147 3309 1434 
Q 3309 825 2912 354 
Q 2516 -116 1781 -116 
Q 1153 -116 697 361 
Q 241 838 241 1966 
Q 241 2800 444 3381 
Q 834 4494 1872 4494 
z
M 1831 384 
Q 2275 384 2495 682 
Q 2716 981 2716 1388 
Q 2716 1731 2519 2042 
Q 2322 2353 1803 2353 
Q 1441 2353 1167 2112 
Q 894 1872 894 1388 
Q 894 963 1142 673 
Q 1391 384 1831 384 
z
" transform="scale(0.015625)"/>
       </defs>
       <use xlink:href="#Helvetica-36"/>
       <use xlink:href="#Helvetica-30" x="55.615234"/>
       <use xlink:href="#Helvetica-30" x="111.230469"/>
       <use xlink:href="#Helvetica-30" x="166.845703"/>
      </g>
     </g>
    </g>
    <g id="ytick_5">
     <g id="line2d_5">
      <g>
       <use xlink:href="#m4b526d6120" x="13.341646" y="16.867104" style="fill: #777777; stroke: #777777; stroke-width: 0.5"/>
      </g>
     </g>
     <g id="text_8">
      <!-- 8000 -->
      <g style="fill: #333333" transform="translate(4.668521 17.94312) scale(0.03 -0.03)">
       <defs>
        <path id="Helvetica-38" d="M 1741 2600 
Q 2113 2600 2322 2808 
Q 2531 3016 2531 3303 
Q 2531 3553 2331 3762 
Q 2131 3972 1722 3972 
Q 1316 3972 1134 3762 
Q 953 3553 953 3272 
Q 953 2956 1187 2778 
Q 1422 2600 1741 2600 
z
M 1775 384 
Q 2166 384 2423 595 
Q 2681 806 2681 1225 
Q 2681 1659 2415 1884 
Q 2150 2109 1734 2109 
Q 1331 2109 1076 1879 
Q 822 1650 822 1244 
Q 822 894 1055 639 
Q 1288 384 1775 384 
z
M 975 2384 
Q 741 2484 609 2619 
Q 363 2869 363 3269 
Q 363 3769 725 4128 
Q 1088 4488 1753 4488 
Q 2397 4488 2762 4148 
Q 3128 3809 3128 3356 
Q 3128 2938 2916 2678 
Q 2797 2531 2547 2391 
Q 2825 2263 2984 2097 
Q 3281 1784 3281 1284 
Q 3281 694 2884 283 
Q 2488 -128 1763 -128 
Q 1109 -128 657 226 
Q 206 581 206 1256 
Q 206 1653 400 1942 
Q 594 2231 975 2384 
z
" transform="scale(0.015625)"/>
       </defs>
       <use xlink:href="#Helvetica-38"/>
       <use xlink:href="#Helvetica-30" x="55.615234"/>
       <use xlink:href="#Helvetica-30" x="111.230469"/>
       <use xlink:href="#Helvetica-30" x="166.845703"/>
      </g>
     </g>
    </g>
    <g id="ytick_6">
     <g id="line2d_6">
      <g>
       <use xlink:href="#m4b526d6120" x="13.341646" y="4.076256" style="fill: #777777; stroke: #777777; stroke-width: 0.5"/>
      </g>
     </g>
     <g id="text_9">
      <!-- 10000 -->
      <g style="fill: #333333" transform="translate(3.00024 5.152271) scale(0.03 -0.03)">
       <defs>
        <path id="Helvetica-31" d="M 613 3169 
L 613 3600 
Q 1222 3659 1462 3798 
Q 1703 3938 1822 4456 
L 2266 4456 
L 2266 0 
L 1666 0 
L 1666 3169 
L 613 3169 
z
" transform="scale(0.015625)"/>
       </defs>
       <use xlink:href="#Helvetica-31"/>
       <use xlink:href="#Helvetica-30" x="55.615234"/>
       <use xlink:href="#Helvetica-30" x="111.230469"/>
       <use xlink:href="#Helvetica-30" x="166.845703"/>
       <use xlink:href="#Helvetica-30" x="222.460938"/>
      </g>
     </g>
    </g>
   </g>
   <g id="PolyCollection_1">
    <defs>
     <path id="m6a3a983703" d="M 25.848135 -13.950686 
L 23.707862 -13.950686 
L 23.437607 -14.316518 
L 23.125183 -14.682349 
L 22.771275 -15.048181 
L 22.378616 -15.414012 
L 21.952162 -15.779844 
L 21.499108 -16.145675 
L 21.028729 -16.511507 
L 20.552037 -16.877339 
L 20.081266 -17.24317 
L 19.629229 -17.609002 
L 19.208581 -17.974833 
L 18.831077 -18.340665 
L 18.506866 -18.706496 
L 18.243908 -19.072328 
L 18.047538 -19.438159 
L 17.920235 -19.803991 
L 17.861581 -20.169822 
L 17.868418 -20.535654 
L 17.935173 -20.901486 
L 18.054307 -21.267317 
L 18.216855 -21.633149 
L 18.412996 -21.99898 
L 18.632635 -22.364812 
L 18.865933 -22.730643 
L 19.103771 -23.096475 
L 19.338109 -23.462306 
L 19.562227 -23.828138 
L 19.770825 -24.19397 
L 19.959992 -24.559801 
L 20.127033 -24.925633 
L 20.270193 -25.291464 
L 20.388313 -25.657296 
L 20.480453 -26.023127 
L 20.545561 -26.388959 
L 20.582223 -26.75479 
L 20.58856 -27.120622 
L 20.562283 -27.486453 
L 20.500921 -27.852285 
L 20.402206 -28.218117 
L 20.264542 -28.583948 
L 20.087519 -28.94978 
L 19.872371 -29.315611 
L 19.622307 -29.681443 
L 19.342662 -30.047274 
L 19.040806 -30.413106 
L 18.725833 -30.778937 
L 18.408028 -31.144769 
L 18.098179 -31.5106 
L 17.806811 -31.876432 
L 17.54341 -32.242264 
L 17.315739 -32.608095 
L 17.129302 -32.973927 
L 16.987002 -33.339758 
L 16.889018 -33.70559 
L 16.832908 -34.071421 
L 16.813879 -34.437253 
L 16.825226 -34.803084 
L 16.858849 -35.168916 
L 16.905837 -35.534748 
L 16.957041 -35.900579 
L 17.003635 -36.266411 
L 17.037608 -36.632242 
L 17.052196 -36.998074 
L 17.04223 -37.363905 
L 17.004392 -37.729737 
L 16.937379 -38.095568 
L 16.841966 -38.4614 
L 16.720965 -38.827231 
L 16.579085 -39.193063 
L 16.422684 -39.558895 
L 16.259448 -39.924726 
L 16.097995 -40.290558 
L 15.947434 -40.656389 
L 15.816914 -41.022221 
L 15.715192 -41.388052 
L 15.650239 -41.753884 
L 15.628917 -42.119715 
L 15.656733 -42.485547 
L 15.737688 -42.851379 
L 15.874198 -43.21721 
L 16.06709 -43.583042 
L 16.315654 -43.948873 
L 16.617724 -44.314705 
L 16.96979 -44.680536 
L 17.367113 -45.046368 
L 17.803852 -45.412199 
L 18.273204 -45.778031 
L 18.767562 -46.143862 
L 19.278705 -46.509694 
L 19.798025 -46.875526 
L 20.316796 -47.241357 
L 20.826468 -47.607189 
L 21.318988 -47.97302 
L 21.78711 -48.338852 
L 22.224678 -48.704683 
L 22.626846 -49.070515 
L 22.990229 -49.436346 
L 23.312951 -49.802178 
L 23.594604 -50.16801 
L 25.961393 -50.16801 
L 25.961393 -50.16801 
L 26.243046 -49.802178 
L 26.565768 -49.436346 
L 26.929151 -49.070515 
L 27.331319 -48.704683 
L 27.768887 -48.338852 
L 28.23701 -47.97302 
L 28.729529 -47.607189 
L 29.239201 -47.241357 
L 29.757972 -46.875526 
L 30.277292 -46.509694 
L 30.788435 -46.143862 
L 31.282793 -45.778031 
L 31.752145 -45.412199 
L 32.188884 -45.046368 
L 32.586207 -44.680536 
L 32.938273 -44.314705 
L 33.240343 -43.948873 
L 33.488907 -43.583042 
L 33.681799 -43.21721 
L 33.818309 -42.851379 
L 33.899264 -42.485547 
L 33.92708 -42.119715 
L 33.905758 -41.753884 
L 33.840805 -41.388052 
L 33.739083 -41.022221 
L 33.608564 -40.656389 
L 33.458002 -40.290558 
L 33.296549 -39.924726 
L 33.133313 -39.558895 
L 32.976912 -39.193063 
L 32.835032 -38.827231 
L 32.714031 -38.4614 
L 32.618618 -38.095568 
L 32.551605 -37.729737 
L 32.513767 -37.363905 
L 32.503801 -36.998074 
L 32.51839 -36.632242 
L 32.552362 -36.266411 
L 32.598956 -35.900579 
L 32.65016 -35.534748 
L 32.697148 -35.168916 
L 32.730771 -34.803084 
L 32.742118 -34.437253 
L 32.723089 -34.071421 
L 32.666979 -33.70559 
L 32.568996 -33.339758 
L 32.426695 -32.973927 
L 32.240258 -32.608095 
L 32.012587 -32.242264 
L 31.749186 -31.876432 
L 31.457818 -31.5106 
L 31.147969 -31.144769 
L 30.830164 -30.778937 
L 30.515191 -30.413106 
L 30.213335 -30.047274 
L 29.93369 -29.681443 
L 29.683626 -29.315611 
L 29.468478 -28.94978 
L 29.291455 -28.583948 
L 29.153791 -28.218117 
L 29.055076 -27.852285 
L 28.993714 -27.486453 
L 28.967437 -27.120622 
L 28.973774 -26.75479 
L 29.010436 -26.388959 
L 29.075544 -26.023127 
L 29.167684 -25.657296 
L 29.285804 -25.291464 
L 29.428965 -24.925633 
L 29.596005 -24.559801 
L 29.785172 -24.19397 
L 29.993771 -23.828138 
L 30.217888 -23.462306 
L 30.452226 -23.096475 
L 30.690064 -22.730643 
L 30.923362 -22.364812 
L 31.143001 -21.99898 
L 31.339143 -21.633149 
L 31.50169 -21.267317 
L 31.620824 -20.901486 
L 31.687579 -20.535654 
L 31.694416 -20.169822 
L 31.635762 -19.803991 
L 31.508459 -19.438159 
L 31.312089 -19.072328 
L 31.049131 -18.706496 
L 30.72492 -18.340665 
L 30.347416 -17.974833 
L 29.926768 -17.609002 
L 29.474731 -17.24317 
L 29.00396 -16.877339 
L 28.527268 -16.511507 
L 28.056889 -16.145675 
L 27.603835 -15.779844 
L 27.177381 -15.414012 
L 26.784722 -15.048181 
L 26.430814 -14.682349 
L 26.11839 -14.316518 
L 25.848135 -13.950686 
z
" style="stroke: #414141; stroke-width: 0.15"/>
    </defs>
    <g clip-path="url(#p7e1247f015)">
     <use xlink:href="#m6a3a983703" x="0" y="84.96" style="fill: #abc9ea; stroke: #414141; stroke-width: 0.15"/>
    </g>
   </g>
   <g id="PolyCollection_2">
    <defs>
     <path id="mcc99b0fa91" d="M 48.393497 -18.341707 
L 46.907909 -18.341707 
L 46.699594 -18.628437 
L 46.460598 -18.915168 
L 46.195384 -19.201898 
L 45.911398 -19.488628 
L 45.618956 -19.775358 
L 45.330755 -20.062089 
L 45.060996 -20.348819 
L 44.824174 -20.635549 
L 44.63367 -20.922279 
L 44.500305 -21.20901 
L 44.431062 -21.49574 
L 44.428146 -21.78247 
L 44.488558 -22.0692 
L 44.604236 -22.355931 
L 44.762771 -22.642661 
L 44.948622 -22.929391 
L 45.144665 -23.216121 
L 45.333904 -23.502852 
L 45.501112 -23.789582 
L 45.634237 -24.076312 
L 45.725409 -24.363042 
L 45.771447 -24.649773 
L 45.773834 -24.936503 
L 45.738168 -25.223233 
L 45.673165 -25.509964 
L 45.589328 -25.796694 
L 45.497427 -26.083424 
L 45.406953 -26.370154 
L 45.32474 -26.656885 
L 45.253892 -26.943615 
L 45.19319 -27.230345 
L 45.137044 -27.517075 
L 45.076035 -27.803806 
L 44.998013 -28.090536 
L 44.889635 -28.377266 
L 44.738164 -28.663996 
L 44.533315 -28.950727 
L 44.268888 -29.237457 
L 43.943959 -29.524187 
L 43.563444 -29.810917 
L 43.137901 -30.097648 
L 42.682581 -30.384378 
L 42.215792 -30.671108 
L 41.756809 -30.957838 
L 41.32358 -31.244569 
L 40.930582 -31.531299 
L 40.587139 -31.818029 
L 40.296472 -32.104759 
L 40.05565 -32.39149 
L 39.856486 -32.67822 
L 39.687241 -32.96495 
L 39.534908 -33.25168 
L 39.387697 -33.538411 
L 39.237352 -33.825141 
L 39.080902 -34.111871 
L 38.921551 -34.398601 
L 38.768559 -34.685332 
L 38.636104 -34.972062 
L 38.541292 -35.258792 
L 38.501621 -35.545522 
L 38.532283 -35.832253 
L 38.643715 -36.118983 
L 38.839769 -36.405713 
L 39.116779 -36.692443 
L 39.463636 -36.979174 
L 39.862877 -37.265904 
L 40.292597 -37.552634 
L 40.728932 -37.839364 
L 41.148749 -38.126095 
L 41.532184 -38.412825 
L 41.864714 -38.699555 
L 42.138486 -38.986285 
L 42.35279 -39.273016 
L 42.513627 -39.559746 
L 42.632478 -39.846476 
L 42.724478 -40.133206 
L 42.806268 -40.419937 
L 42.893821 -40.706667 
L 43.000561 -40.993397 
L 43.135997 -41.280127 
L 43.305039 -41.566858 
L 43.50801 -41.853588 
L 43.741305 -42.140318 
L 43.998479 -42.427048 
L 44.271571 -42.713779 
L 44.552378 -43.000509 
L 44.833501 -43.287239 
L 45.109009 -43.573969 
L 45.374693 -43.8607 
L 45.627952 -44.14743 
L 45.867426 -44.43416 
L 46.092518 -44.72089 
L 46.302942 -45.007621 
L 46.498392 -45.294351 
L 46.678388 -45.581081 
L 46.842282 -45.867811 
L 46.989393 -46.154542 
L 47.119196 -46.441272 
L 47.231507 -46.728002 
L 48.0699 -46.728002 
L 48.0699 -46.728002 
L 48.18221 -46.441272 
L 48.312013 -46.154542 
L 48.459124 -45.867811 
L 48.623018 -45.581081 
L 48.803014 -45.294351 
L 48.998465 -45.007621 
L 49.208888 -44.72089 
L 49.43398 -44.43416 
L 49.673454 -44.14743 
L 49.926713 -43.8607 
L 50.192397 -43.573969 
L 50.467905 -43.287239 
L 50.749028 -43.000509 
L 51.029835 -42.713779 
L 51.302927 -42.427048 
L 51.560102 -42.140318 
L 51.793396 -41.853588 
L 51.996368 -41.566858 
L 52.165409 -41.280127 
L 52.300846 -40.993397 
L 52.407585 -40.706667 
L 52.495138 -40.419937 
L 52.576928 -40.133206 
L 52.668928 -39.846476 
L 52.787779 -39.559746 
L 52.948616 -39.273016 
L 53.16292 -38.986285 
L 53.436693 -38.699555 
L 53.769222 -38.412825 
L 54.152658 -38.126095 
L 54.572474 -37.839364 
L 55.00881 -37.552634 
L 55.438529 -37.265904 
L 55.83777 -36.979174 
L 56.184627 -36.692443 
L 56.461637 -36.405713 
L 56.657692 -36.118983 
L 56.769123 -35.832253 
L 56.799785 -35.545522 
L 56.760114 -35.258792 
L 56.665303 -34.972062 
L 56.532848 -34.685332 
L 56.379856 -34.398601 
L 56.220504 -34.111871 
L 56.064054 -33.825141 
L 55.91371 -33.538411 
L 55.766498 -33.25168 
L 55.614165 -32.96495 
L 55.444921 -32.67822 
L 55.245757 -32.39149 
L 55.004935 -32.104759 
L 54.714267 -31.818029 
L 54.370824 -31.531299 
L 53.977827 -31.244569 
L 53.544597 -30.957838 
L 53.085614 -30.671108 
L 52.618825 -30.384378 
L 52.163505 -30.097648 
L 51.737963 -29.810917 
L 51.357447 -29.524187 
L 51.032519 -29.237457 
L 50.768091 -28.950727 
L 50.563242 -28.663996 
L 50.411771 -28.377266 
L 50.303393 -28.090536 
L 50.225371 -27.803806 
L 50.164362 -27.517075 
L 50.108216 -27.230345 
L 50.047515 -26.943615 
L 49.976667 -26.656885 
L 49.894453 -26.370154 
L 49.80398 -26.083424 
L 49.712078 -25.796694 
L 49.628242 -25.509964 
L 49.563238 -25.223233 
L 49.527572 -24.936503 
L 49.529959 -24.649773 
L 49.575998 -24.363042 
L 49.66717 -24.076312 
L 49.800295 -23.789582 
L 49.967502 -23.502852 
L 50.156741 -23.216121 
L 50.352785 -22.929391 
L 50.538635 -22.642661 
L 50.69717 -22.355931 
L 50.812848 -22.0692 
L 50.873261 -21.78247 
L 50.870345 -21.49574 
L 50.801101 -21.20901 
L 50.667737 -20.922279 
L 50.477233 -20.635549 
L 50.24041 -20.348819 
L 49.970651 -20.062089 
L 49.68245 -19.775358 
L 49.390008 -19.488628 
L 49.106022 -19.201898 
L 48.840808 -18.915168 
L 48.601812 -18.628437 
L 48.393497 -18.341707 
z
" style="stroke: #414141; stroke-width: 0.15"/>
    </defs>
    <g clip-path="url(#p7e1247f015)">
     <use xlink:href="#mcc99b0fa91" x="0" y="84.96" style="fill: #efb792; stroke: #414141; stroke-width: 0.15"/>
    </g>
   </g>
   <g id="PolyCollection_3">
    <defs>
     <path id="m4139444414" d="M 72.403423 -15.628936 
L 68.643392 -15.628936 
L 68.153668 -15.778621 
L 67.592462 -15.928306 
L 66.965926 -16.077991 
L 66.285319 -16.227676 
L 65.56707 -16.37736 
L 64.832349 -16.527045 
L 64.106119 -16.67673 
L 63.415691 -16.826415 
L 62.788914 -16.9761 
L 62.252144 -17.125785 
L 61.828222 -17.275469 
L 61.534666 -17.425154 
L 61.382277 -17.574839 
L 61.374326 -17.724524 
L 61.506375 -17.874209 
L 61.766773 -18.023893 
L 62.137726 -18.173578 
L 62.596831 -18.323263 
L 63.118897 -18.472948 
L 63.677851 -18.622633 
L 64.248573 -18.772318 
L 64.808491 -18.922002 
L 65.338817 -19.071687 
L 65.825373 -19.221372 
L 66.258965 -19.371057 
L 66.635343 -19.520742 
L 66.954784 -19.670427 
L 67.221387 -19.820111 
L 67.442163 -19.969796 
L 67.626025 -20.119481 
L 67.782768 -20.269166 
L 67.922122 -20.418851 
L 68.052948 -20.568536 
L 68.182619 -20.71822 
L 68.316622 -20.867905 
L 68.45838 -21.01759 
L 68.609275 -21.167275 
L 68.768854 -21.31696 
L 68.935165 -21.466644 
L 69.105174 -21.616329 
L 69.27522 -21.766014 
L 69.441455 -21.915699 
L 69.600226 -22.065384 
L 69.748383 -22.215069 
L 69.883487 -22.364753 
L 70.003914 -22.514438 
L 70.108869 -22.664123 
L 70.198326 -22.813808 
L 70.272902 -22.963493 
L 70.333706 -23.113178 
L 70.382172 -23.262862 
L 70.419895 -23.412547 
L 70.44849 -23.562232 
L 70.469474 -23.711917 
L 70.484178 -23.861602 
L 70.493689 -24.011286 
L 70.498815 -24.160971 
L 70.500075 -24.310656 
L 70.497701 -24.460341 
L 70.491658 -24.610026 
L 70.481675 -24.759711 
L 70.467289 -24.909395 
L 70.447899 -25.05908 
L 70.422829 -25.208765 
L 70.391405 -25.35845 
L 70.353029 -25.508135 
L 70.307258 -25.65782 
L 70.253876 -25.807504 
L 70.192941 -25.957189 
L 70.124818 -26.106874 
L 70.050184 -26.256559 
L 69.97 -26.406244 
L 69.885468 -26.555928 
L 69.797975 -26.705613 
L 69.709029 -26.855298 
L 69.620219 -27.004983 
L 69.533183 -27.154668 
L 69.449604 -27.304353 
L 69.371224 -27.454037 
L 69.299859 -27.603722 
L 69.237413 -27.753407 
L 69.185855 -27.903092 
L 69.147159 -28.052777 
L 69.123198 -28.202462 
L 69.115592 -28.352146 
L 69.125535 -28.501831 
L 69.153624 -28.651516 
L 69.199707 -28.801201 
L 69.262807 -28.950886 
L 69.341104 -29.10057 
L 69.432019 -29.250255 
L 69.532373 -29.39994 
L 69.638612 -29.549625 
L 69.747065 -29.69931 
L 69.854206 -29.848995 
L 69.956892 -29.998679 
L 70.052544 -30.148364 
L 70.139254 -30.298049 
L 70.215833 -30.447734 
L 70.830983 -30.447734 
L 70.830983 -30.447734 
L 70.907561 -30.298049 
L 70.994272 -30.148364 
L 71.089923 -29.998679 
L 71.192609 -29.848995 
L 71.299751 -29.69931 
L 71.408203 -29.549625 
L 71.514442 -29.39994 
L 71.614797 -29.250255 
L 71.705712 -29.10057 
L 71.784008 -28.950886 
L 71.847108 -28.801201 
L 71.893192 -28.651516 
L 71.92128 -28.501831 
L 71.931223 -28.352146 
L 71.923617 -28.202462 
L 71.899656 -28.052777 
L 71.860961 -27.903092 
L 71.809403 -27.753407 
L 71.746957 -27.603722 
L 71.675592 -27.454037 
L 71.597211 -27.304353 
L 71.513632 -27.154668 
L 71.426596 -27.004983 
L 71.337787 -26.855298 
L 71.248841 -26.705613 
L 71.161347 -26.555928 
L 71.076815 -26.406244 
L 70.996631 -26.256559 
L 70.921997 -26.106874 
L 70.853875 -25.957189 
L 70.79294 -25.807504 
L 70.739557 -25.65782 
L 70.693787 -25.508135 
L 70.65541 -25.35845 
L 70.623986 -25.208765 
L 70.598917 -25.05908 
L 70.579527 -24.909395 
L 70.565141 -24.759711 
L 70.555158 -24.610026 
L 70.549114 -24.460341 
L 70.54674 -24.310656 
L 70.548 -24.160971 
L 70.553127 -24.011286 
L 70.562638 -23.861602 
L 70.577342 -23.711917 
L 70.598325 -23.562232 
L 70.626921 -23.412547 
L 70.664644 -23.262862 
L 70.71311 -23.113178 
L 70.773914 -22.963493 
L 70.84849 -22.813808 
L 70.937946 -22.664123 
L 71.042902 -22.514438 
L 71.163328 -22.364753 
L 71.298432 -22.215069 
L 71.44659 -22.065384 
L 71.605361 -21.915699 
L 71.771595 -21.766014 
L 71.941642 -21.616329 
L 72.11165 -21.466644 
L 72.277961 -21.31696 
L 72.43754 -21.167275 
L 72.588435 -21.01759 
L 72.730193 -20.867905 
L 72.864197 -20.71822 
L 72.993867 -20.568536 
L 73.124693 -20.418851 
L 73.264047 -20.269166 
L 73.42079 -20.119481 
L 73.604652 -19.969796 
L 73.825428 -19.820111 
L 74.092031 -19.670427 
L 74.411473 -19.520742 
L 74.787851 -19.371057 
L 75.221443 -19.221372 
L 75.707998 -19.071687 
L 76.238324 -18.922002 
L 76.798242 -18.772318 
L 77.368965 -18.622633 
L 77.927918 -18.472948 
L 78.449984 -18.323263 
L 78.90909 -18.173578 
L 79.280043 -18.023893 
L 79.54044 -17.874209 
L 79.67249 -17.724524 
L 79.664538 -17.574839 
L 79.51215 -17.425154 
L 79.218593 -17.275469 
L 78.794671 -17.125785 
L 78.257901 -16.9761 
L 77.631124 -16.826415 
L 76.940697 -16.67673 
L 76.214467 -16.527045 
L 75.479746 -16.37736 
L 74.761496 -16.227676 
L 74.080889 -16.077991 
L 73.454354 -15.928306 
L 72.893147 -15.778621 
L 72.403423 -15.628936 
z
" style="stroke: #414141; stroke-width: 0.15"/>
    </defs>
    <g clip-path="url(#p7e1247f015)">
     <use xlink:href="#m4139444414" x="0" y="84.96" style="fill: #7e5c60; stroke: #414141; stroke-width: 0.15"/>
    </g>
   </g>
   <g id="line2d_7">
    <path d="M 24.777999 67.038501 
L 24.777999 38.762804 
" clip-path="url(#p7e1247f015)" style="fill: none; stroke: #8c8c8c; stroke-width: 0.75; stroke-linecap: round"/>
   </g>
   <g id="line2d_8">
    <path d="M 24.777999 59.932791 
L 24.777999 43.491768 
" clip-path="url(#p7e1247f015)" style="fill: none; stroke: #8c8c8c; stroke-width: 4; stroke-linecap: round"/>
   </g>
   <g id="line2d_9">
    <path d="M 24.777999 50.848641 
" clip-path="url(#p7e1247f015)" style="fill: none; stroke: #414141; stroke-width: 1.2; stroke-linecap: round"/>
    <defs>
     <path id="med17cad960" d="M 0 0.833333 
C 0.221003 0.833333 0.432983 0.745528 0.589256 0.589256 
C 0.745528 0.432983 0.833333 0.221003 0.833333 0 
C 0.833333 -0.221003 0.745528 -0.432983 0.589256 -0.589256 
C 0.432983 -0.745528 0.221003 -0.833333 0 -0.833333 
C -0.221003 -0.833333 -0.432983 -0.745528 -0.589256 -0.589256 
C -0.745528 -0.432983 -0.833333 -0.221003 -0.833333 0 
C -0.833333 0.221003 -0.745528 0.432983 -0.589256 0.589256 
C -0.432983 0.745528 -0.221003 0.833333 0 0.833333 
z
" style="stroke: #ffffff; stroke-width: 0.8"/>
    </defs>
    <g clip-path="url(#p7e1247f015)">
     <use xlink:href="#med17cad960" x="24.777999" y="50.848641" style="fill: #ffffff; stroke: #ffffff; stroke-width: 0.8"/>
    </g>
   </g>
   <g id="line2d_10">
    <path d="M 47.650703 58.518776 
L 47.650703 40.886396 
" clip-path="url(#p7e1247f015)" style="fill: none; stroke: #8c8c8c; stroke-width: 0.75; stroke-linecap: round"/>
   </g>
   <g id="line2d_11">
    <path d="M 47.650703 53.708776 
L 47.650703 47.894709 
" clip-path="url(#p7e1247f015)" style="fill: none; stroke: #8c8c8c; stroke-width: 4; stroke-linecap: round"/>
   </g>
   <g id="line2d_12">
    <path d="M 47.650703 50.026162 
" clip-path="url(#p7e1247f015)" style="fill: none; stroke: #414141; stroke-width: 1.2; stroke-linecap: round"/>
    <g clip-path="url(#p7e1247f015)">
     <use xlink:href="#med17cad960" x="47.650703" y="50.026162" style="fill: #ffffff; stroke: #ffffff; stroke-width: 0.8"/>
    </g>
   </g>
   <g id="line2d_13">
    <path d="M 70.523408 67.817347 
L 70.523408 63.698977 
" clip-path="url(#p7e1247f015)" style="fill: none; stroke: #8c8c8c; stroke-width: 0.75; stroke-linecap: round"/>
   </g>
   <g id="line2d_14">
    <path d="M 70.523408 67.62858 
L 70.523408 65.015558 
" clip-path="url(#p7e1247f015)" style="fill: none; stroke: #8c8c8c; stroke-width: 4; stroke-linecap: round"/>
   </g>
   <g id="line2d_15">
    <path d="M 70.523408 67.095842 
" clip-path="url(#p7e1247f015)" style="fill: none; stroke: #414141; stroke-width: 1.2; stroke-linecap: round"/>
    <g clip-path="url(#p7e1247f015)">
     <use xlink:href="#med17cad960" x="70.523408" y="67.095842" style="fill: #ffffff; stroke: #ffffff; stroke-width: 0.8"/>
    </g>
   </g>
   <g id="patch_3">
    <path d="M 13.341646 74.419526 
L 13.341646 4.076256 
" style="fill: none; stroke: #777777; stroke-width: 0.5; stroke-linejoin: miter; stroke-linecap: square"/>
   </g>
   <g id="patch_4">
    <path d="M 13.341646 76.919526 
L 81.95976 76.919526 
" style="fill: none; stroke: #777777; stroke-width: 0.5; stroke-linejoin: miter; stroke-linecap: square"/>
   </g>
  </g>
 </g>
 <defs>
  <clipPath id="p7e1247f015">
   <rect x="13.341646" y="4.076256" width="68.618114" height="70.34327"/>
  </clipPath>
 </defs>
</svg>
