<?xml version="1.0" encoding="utf-8" standalone="no"?>
<!DOCTYPE svg PUBLIC "-//W3C//DTD SVG 1.1//EN"
  "http://www.w3.org/Graphics/SVG/1.1/DTD/svg11.dtd">
<svg xmlns:xlink="http://www.w3.org/1999/xlink" width="56.16pt" height="84.96pt" viewBox="0 0 56.16 84.96" xmlns="http://www.w3.org/2000/svg" version="1.1">
 <metadata>
  <rdf:RDF xmlns:dc="http://purl.org/dc/elements/1.1/" xmlns:cc="http://creativecommons.org/ns#" xmlns:rdf="http://www.w3.org/1999/02/22-rdf-syntax-ns#">
   <cc:Work>
    <dc:type rdf:resource="http://purl.org/dc/dcmitype/StillImage"/>
    <dc:date>2024-05-27T15:37:08.744851</dc:date>
    <dc:format>image/svg+xml</dc:format>
    <dc:creator>
     <cc:Agent>
      <dc:title>Matplotlib v3.8.3, https://matplotlib.org/</dc:title>
     </cc:Agent>
    </dc:creator>
   </cc:Work>
  </rdf:RDF>
 </metadata>
 <defs>
  <style type="text/css">*{stroke-linejoin: round; stroke-linecap: butt}</style>
 </defs>
 <g id="figure_1">
  <g id="patch_1">
   <path d="M 0 84.96 
L 56.16 84.96 
L 56.16 0 
L 0 0 
z
" style="fill: #ffffff"/>
  </g>
  <g id="axes_1">
   <g id="patch_2">
    <path d="M 11.673365 74.419526 
L 53.15976 74.419526 
L 53.15976 4.076256 
L 11.673365 4.076256 
z
" style="fill: #ffffff"/>
   </g>
   <g id="matplotlib.axis_1">
    <g id="xtick_1">
     <g id="text_1">
      <!-- ILC2 -->
      <g style="fill: #333333" transform="translate(18.348636 81.230229) scale(0.035 -0.035)">
       <defs>
        <path id="Helvetica-49" d="M 628 4591 
L 1256 4591 
L 1256 0 
L 628 0 
L 628 4591 
z
" transform="scale(0.015625)"/>
        <path id="Helvetica-4c" d="M 488 4591 
L 1109 4591 
L 1109 547 
L 3434 547 
L 3434 0 
L 488 0 
L 488 4591 
z
" transform="scale(0.015625)"/>
        <path id="Helvetica-43" d="M 2422 4716 
Q 3294 4716 3775 4256 
Q 4256 3797 4309 3213 
L 3703 3213 
Q 3600 3656 3292 3915 
Q 2984 4175 2428 4175 
Q 1750 4175 1333 3698 
Q 916 3222 916 2238 
Q 916 1431 1292 929 
Q 1669 428 2416 428 
Q 3103 428 3463 956 
Q 3653 1234 3747 1688 
L 4353 1688 
Q 4272 963 3816 472 
Q 3269 -119 2341 -119 
Q 1541 -119 997 366 
Q 281 1006 281 2344 
Q 281 3359 819 4009 
Q 1400 4716 2422 4716 
z
M 2297 4716 
L 2297 4716 
z
" transform="scale(0.015625)"/>
        <path id="Helvetica-32" d="M 200 0 
Q 231 578 439 1006 
Q 647 1434 1250 1784 
L 1850 2131 
Q 2253 2366 2416 2531 
Q 2672 2791 2672 3125 
Q 2672 3516 2437 3745 
Q 2203 3975 1813 3975 
Q 1234 3975 1013 3538 
Q 894 3303 881 2888 
L 309 2888 
Q 319 3472 525 3841 
Q 891 4491 1816 4491 
Q 2584 4491 2939 4075 
Q 3294 3659 3294 3150 
Q 3294 2613 2916 2231 
Q 2697 2009 2131 1694 
L 1703 1456 
Q 1397 1288 1222 1134 
Q 909 863 828 531 
L 3272 531 
L 3272 0 
L 200 0 
z
" transform="scale(0.015625)"/>
       </defs>
       <use xlink:href="#Helvetica-49"/>
       <use xlink:href="#Helvetica-4c" x="27.783203"/>
       <use xlink:href="#Helvetica-43" x="83.398438"/>
       <use xlink:href="#Helvetica-32" x="155.615234"/>
      </g>
     </g>
    </g>
    <g id="xtick_2">
     <g id="text_2">
      <!-- TH2 -->
      <g style="fill: #333333" transform="translate(39.482302 81.230229) scale(0.035 -0.035)">
       <defs>
        <path id="Helvetica-54" d="M 3828 4591 
L 3828 4044 
L 2281 4044 
L 2281 0 
L 1650 0 
L 1650 4044 
L 103 4044 
L 103 4591 
L 3828 4591 
z
" transform="scale(0.015625)"/>
        <path id="Helvetica-48" d="M 503 4591 
L 1131 4591 
L 1131 2694 
L 3519 2694 
L 3519 4591 
L 4147 4591 
L 4147 0 
L 3519 0 
L 3519 2147 
L 1131 2147 
L 1131 0 
L 503 0 
L 503 4591 
z
" transform="scale(0.015625)"/>
       </defs>
       <use xlink:href="#Helvetica-54"/>
       <use xlink:href="#Helvetica-48" x="61.083984"/>
       <use xlink:href="#Helvetica-32" x="133.300781"/>
      </g>
     </g>
    </g>
   </g>
   <g id="matplotlib.axis_2">
    <g id="ytick_1">
     <g id="line2d_1">
      <defs>
       <path id="mec578e6b30" d="M 0 0 
L -1 0 
" style="stroke: #777777; stroke-width: 0.5"/>
      </defs>
      <g>
       <use xlink:href="#mec578e6b30" x="11.673365" y="64.727463" style="fill: #777777; stroke: #777777; stroke-width: 0.5"/>
      </g>
     </g>
     <g id="text_3">
      <!-- 0 -->
      <g style="fill: #333333" transform="translate(8.005084 65.803478) scale(0.03 -0.03)">
       <defs>
        <path id="Helvetica-30" d="M 1731 4475 
Q 2600 4475 2988 3759 
Q 3288 3206 3288 2244 
Q 3288 1331 3016 734 
Q 2622 -122 1728 -122 
Q 922 -122 528 578 
Q 200 1163 200 2147 
Q 200 2909 397 3456 
Q 766 4475 1731 4475 
z
M 1725 391 
Q 2163 391 2422 778 
Q 2681 1166 2681 2222 
Q 2681 2984 2493 3476 
Q 2306 3969 1766 3969 
Q 1269 3969 1039 3501 
Q 809 3034 809 2125 
Q 809 1441 956 1025 
Q 1181 391 1725 391 
z
" transform="scale(0.015625)"/>
       </defs>
       <use xlink:href="#Helvetica-30"/>
      </g>
     </g>
    </g>
    <g id="ytick_2">
     <g id="line2d_2">
      <g>
       <use xlink:href="#mec578e6b30" x="11.673365" y="52.597221" style="fill: #777777; stroke: #777777; stroke-width: 0.5"/>
      </g>
     </g>
     <g id="text_4">
      <!-- 1000 -->
      <g style="fill: #333333" transform="translate(3.00024 53.673237) scale(0.03 -0.03)">
       <defs>
        <path id="Helvetica-31" d="M 613 3169 
L 613 3600 
Q 1222 3659 1462 3798 
Q 1703 3938 1822 4456 
L 2266 4456 
L 2266 0 
L 1666 0 
L 1666 3169 
L 613 3169 
z
" transform="scale(0.015625)"/>
       </defs>
       <use xlink:href="#Helvetica-31"/>
       <use xlink:href="#Helvetica-30" x="55.615234"/>
       <use xlink:href="#Helvetica-30" x="111.230469"/>
       <use xlink:href="#Helvetica-30" x="166.845703"/>
      </g>
     </g>
    </g>
    <g id="ytick_3">
     <g id="line2d_3">
      <g>
       <use xlink:href="#mec578e6b30" x="11.673365" y="40.46698" style="fill: #777777; stroke: #777777; stroke-width: 0.5"/>
      </g>
     </g>
     <g id="text_5">
      <!-- 2000 -->
      <g style="fill: #333333" transform="translate(3.00024 41.542996) scale(0.03 -0.03)">
       <use xlink:href="#Helvetica-32"/>
       <use xlink:href="#Helvetica-30" x="55.615234"/>
       <use xlink:href="#Helvetica-30" x="111.230469"/>
       <use xlink:href="#Helvetica-30" x="166.845703"/>
      </g>
     </g>
    </g>
    <g id="ytick_4">
     <g id="line2d_4">
      <g>
       <use xlink:href="#mec578e6b30" x="11.673365" y="28.336738" style="fill: #777777; stroke: #777777; stroke-width: 0.5"/>
      </g>
     </g>
     <g id="text_6">
      <!-- 3000 -->
      <g style="fill: #333333" transform="translate(3.00024 29.412754) scale(0.03 -0.03)">
       <defs>
        <path id="Helvetica-33" d="M 1663 -122 
Q 869 -122 511 314 
Q 153 750 153 1375 
L 741 1375 
Q 778 941 903 744 
Q 1122 391 1694 391 
Q 2138 391 2406 628 
Q 2675 866 2675 1241 
Q 2675 1703 2392 1887 
Q 2109 2072 1606 2072 
Q 1550 2072 1492 2070 
Q 1434 2069 1375 2066 
L 1375 2563 
Q 1463 2553 1522 2550 
Q 1581 2547 1650 2547 
Q 1966 2547 2169 2647 
Q 2525 2822 2525 3272 
Q 2525 3606 2287 3787 
Q 2050 3969 1734 3969 
Q 1172 3969 956 3594 
Q 838 3388 822 3006 
L 266 3006 
Q 266 3506 466 3856 
Q 809 4481 1675 4481 
Q 2359 4481 2734 4176 
Q 3109 3872 3109 3294 
Q 3109 2881 2888 2625 
Q 2750 2466 2531 2375 
Q 2884 2278 3082 2001 
Q 3281 1725 3281 1325 
Q 3281 684 2859 281 
Q 2438 -122 1663 -122 
z
" transform="scale(0.015625)"/>
       </defs>
       <use xlink:href="#Helvetica-33"/>
       <use xlink:href="#Helvetica-30" x="55.615234"/>
       <use xlink:href="#Helvetica-30" x="111.230469"/>
       <use xlink:href="#Helvetica-30" x="166.845703"/>
      </g>
     </g>
    </g>
    <g id="ytick_5">
     <g id="line2d_5">
      <g>
       <use xlink:href="#mec578e6b30" x="11.673365" y="16.206497" style="fill: #777777; stroke: #777777; stroke-width: 0.5"/>
      </g>
     </g>
     <g id="text_7">
      <!-- 4000 -->
      <g style="fill: #333333" transform="translate(3.00024 17.282513) scale(0.03 -0.03)">
       <defs>
        <path id="Helvetica-34" d="M 2116 1584 
L 2116 3613 
L 681 1584 
L 2116 1584 
z
M 2125 0 
L 2125 1094 
L 163 1094 
L 163 1644 
L 2213 4488 
L 2688 4488 
L 2688 1584 
L 3347 1584 
L 3347 1094 
L 2688 1094 
L 2688 0 
L 2125 0 
z
" transform="scale(0.015625)"/>
       </defs>
       <use xlink:href="#Helvetica-34"/>
       <use xlink:href="#Helvetica-30" x="55.615234"/>
       <use xlink:href="#Helvetica-30" x="111.230469"/>
       <use xlink:href="#Helvetica-30" x="166.845703"/>
      </g>
     </g>
    </g>
    <g id="ytick_6">
     <g id="line2d_6">
      <g>
       <use xlink:href="#mec578e6b30" x="11.673365" y="4.076256" style="fill: #777777; stroke: #777777; stroke-width: 0.5"/>
      </g>
     </g>
     <g id="text_8">
      <!-- 5000 -->
      <g style="fill: #333333" transform="translate(3.00024 5.152271) scale(0.03 -0.03)">
       <defs>
        <path id="Helvetica-35" d="M 791 1141 
Q 847 659 1238 475 
Q 1438 381 1700 381 
Q 2200 381 2440 700 
Q 2681 1019 2681 1406 
Q 2681 1875 2395 2131 
Q 2109 2388 1709 2388 
Q 1419 2388 1211 2275 
Q 1003 2163 856 1963 
L 369 1991 
L 709 4400 
L 3034 4400 
L 3034 3856 
L 1131 3856 
L 941 2613 
Q 1097 2731 1238 2791 
Q 1488 2894 1816 2894 
Q 2431 2894 2859 2497 
Q 3288 2100 3288 1491 
Q 3288 856 2895 371 
Q 2503 -113 1644 -113 
Q 1097 -113 676 195 
Q 256 503 206 1141 
L 791 1141 
z
" transform="scale(0.015625)"/>
       </defs>
       <use xlink:href="#Helvetica-35"/>
       <use xlink:href="#Helvetica-30" x="55.615234"/>
       <use xlink:href="#Helvetica-30" x="111.230469"/>
       <use xlink:href="#Helvetica-30" x="166.845703"/>
      </g>
     </g>
    </g>
   </g>
   <g id="PolyCollection_1">
    <defs>
     <path id="m4917509d06" d="M 23.703946 -19.231668 
L 20.385981 -19.231668 
L 20.091112 -19.315672 
L 19.764701 -19.399676 
L 19.407773 -19.483681 
L 19.022348 -19.567685 
L 18.611512 -19.651689 
L 18.179436 -19.735693 
L 17.731353 -19.819698 
L 17.273485 -19.903702 
L 16.812911 -19.987706 
L 16.35739 -20.07171 
L 15.91513 -20.155715 
L 15.494527 -20.239719 
L 15.103871 -20.323723 
L 14.751045 -20.407727 
L 14.443219 -20.491732 
L 14.186567 -20.575736 
L 13.986017 -20.65974 
L 13.845045 -20.743744 
L 13.765532 -20.827749 
L 13.747685 -20.911753 
L 13.790028 -20.995757 
L 13.889477 -21.079761 
L 14.041471 -21.163766 
L 14.240171 -21.24777 
L 14.478721 -21.331774 
L 14.749528 -21.415778 
L 15.044584 -21.499783 
L 15.355787 -21.583787 
L 15.675247 -21.667791 
L 15.995576 -21.751795 
L 16.310129 -21.8358 
L 16.613201 -21.919804 
L 16.900153 -22.003808 
L 17.167485 -22.087812 
L 17.412835 -22.171817 
L 17.634921 -22.255821 
L 17.833431 -22.339825 
L 18.008865 -22.42383 
L 18.16235 -22.507834 
L 18.295444 -22.591838 
L 18.409937 -22.675842 
L 18.507663 -22.759847 
L 18.590349 -22.843851 
L 18.65949 -22.927855 
L 18.716272 -23.011859 
L 18.761537 -23.095864 
L 18.795794 -23.179868 
L 18.819261 -23.263872 
L 18.83194 -23.347876 
L 18.83371 -23.431881 
L 18.82443 -23.515885 
L 18.804031 -23.599889 
L 18.772605 -23.683893 
L 18.73047 -23.767898 
L 18.678207 -23.851902 
L 18.616674 -23.935906 
L 18.546994 -24.01991 
L 18.47052 -24.103915 
L 18.388779 -24.187919 
L 18.303415 -24.271923 
L 18.216119 -24.355927 
L 18.128566 -24.439932 
L 18.042367 -24.523936 
L 17.959024 -24.60794 
L 17.879907 -24.691944 
L 17.806246 -24.775949 
L 17.739135 -24.859953 
L 17.679552 -24.943957 
L 17.62838 -25.027961 
L 17.586441 -25.111966 
L 17.554524 -25.19597 
L 17.533403 -25.279974 
L 17.52386 -25.363978 
L 17.526686 -25.447983 
L 17.542673 -25.531987 
L 17.5726 -25.615991 
L 17.617197 -25.699996 
L 17.677113 -25.784 
L 17.752861 -25.868004 
L 17.844778 -25.952008 
L 17.952969 -26.036013 
L 18.077266 -26.120017 
L 18.217191 -26.204021 
L 18.371931 -26.288025 
L 18.540331 -26.37203 
L 18.720894 -26.456034 
L 18.911809 -26.540038 
L 19.11099 -26.624042 
L 19.316134 -26.708047 
L 19.524783 -26.792051 
L 19.734407 -26.876055 
L 19.942483 -26.960059 
L 20.146578 -27.044064 
L 20.344421 -27.128068 
L 20.533981 -27.212072 
L 20.713511 -27.296076 
L 20.881597 -27.380081 
L 21.037178 -27.464085 
L 21.179555 -27.548089 
L 22.910372 -27.548089 
L 22.910372 -27.548089 
L 23.052749 -27.464085 
L 23.208331 -27.380081 
L 23.376417 -27.296076 
L 23.555947 -27.212072 
L 23.745506 -27.128068 
L 23.94335 -27.044064 
L 24.147444 -26.960059 
L 24.35552 -26.876055 
L 24.565144 -26.792051 
L 24.773794 -26.708047 
L 24.978937 -26.624042 
L 25.178119 -26.540038 
L 25.369034 -26.456034 
L 25.549596 -26.37203 
L 25.717996 -26.288025 
L 25.872737 -26.204021 
L 26.012662 -26.120017 
L 26.136959 -26.036013 
L 26.24515 -25.952008 
L 26.337066 -25.868004 
L 26.412815 -25.784 
L 26.47273 -25.699996 
L 26.517328 -25.615991 
L 26.547254 -25.531987 
L 26.563242 -25.447983 
L 26.566067 -25.363978 
L 26.556524 -25.279974 
L 26.535404 -25.19597 
L 26.503486 -25.111966 
L 26.461548 -25.027961 
L 26.410376 -24.943957 
L 26.350792 -24.859953 
L 26.283681 -24.775949 
L 26.21002 -24.691944 
L 26.130903 -24.60794 
L 26.04756 -24.523936 
L 25.961362 -24.439932 
L 25.873809 -24.355927 
L 25.786512 -24.271923 
L 25.701148 -24.187919 
L 25.619408 -24.103915 
L 25.542933 -24.01991 
L 25.473254 -23.935906 
L 25.411721 -23.851902 
L 25.359458 -23.767898 
L 25.317322 -23.683893 
L 25.285897 -23.599889 
L 25.265498 -23.515885 
L 25.256217 -23.431881 
L 25.257988 -23.347876 
L 25.270667 -23.263872 
L 25.294133 -23.179868 
L 25.32839 -23.095864 
L 25.373656 -23.011859 
L 25.430437 -22.927855 
L 25.499578 -22.843851 
L 25.582264 -22.759847 
L 25.679991 -22.675842 
L 25.794483 -22.591838 
L 25.927578 -22.507834 
L 26.081063 -22.42383 
L 26.256496 -22.339825 
L 26.455006 -22.255821 
L 26.677093 -22.171817 
L 26.922443 -22.087812 
L 27.189774 -22.003808 
L 27.476726 -21.919804 
L 27.779798 -21.8358 
L 28.094352 -21.751795 
L 28.41468 -21.667791 
L 28.73414 -21.583787 
L 29.045343 -21.499783 
L 29.3404 -21.415778 
L 29.611207 -21.331774 
L 29.849756 -21.24777 
L 30.048457 -21.163766 
L 30.20045 -21.079761 
L 30.299899 -20.995757 
L 30.342243 -20.911753 
L 30.324395 -20.827749 
L 30.244882 -20.743744 
L 30.103911 -20.65974 
L 29.903361 -20.575736 
L 29.646709 -20.491732 
L 29.338882 -20.407727 
L 28.986056 -20.323723 
L 28.595401 -20.239719 
L 28.174798 -20.155715 
L 27.732538 -20.07171 
L 27.277016 -19.987706 
L 26.816443 -19.903702 
L 26.358575 -19.819698 
L 25.910492 -19.735693 
L 25.478415 -19.651689 
L 25.067579 -19.567685 
L 24.682155 -19.483681 
L 24.325226 -19.399676 
L 23.998816 -19.315672 
L 23.703946 -19.231668 
z
" style="stroke: #717171; stroke-width: 0.15"/>
    </defs>
    <g clip-path="url(#pfbc4ff4129)">
     <use xlink:href="#m4917509d06" x="0" y="84.96" style="fill: #d6bba3; stroke: #717171; stroke-width: 0.15"/>
    </g>
   </g>
   <g id="PolyCollection_2">
    <defs>
     <path id="m0a97b0e2cf" d="M 44.567527 -20.226373 
L 41.008795 -20.226373 
L 40.660719 -20.408235 
L 40.274745 -20.590096 
L 39.853668 -20.771958 
L 39.40192 -20.95382 
L 38.925576 -21.135682 
L 38.432244 -21.317544 
L 37.930843 -21.499406 
L 37.431283 -21.681268 
L 36.94405 -21.863129 
L 36.479716 -22.044991 
L 36.04841 -22.226853 
L 35.659295 -22.408715 
L 35.320055 -22.590577 
L 35.03647 -22.772439 
L 34.812076 -22.954301 
L 34.647956 -23.136162 
L 34.542674 -23.318024 
L 34.492348 -23.499886 
L 34.490882 -23.681748 
L 34.53032 -23.86361 
L 34.601322 -24.045472 
L 34.69372 -24.227334 
L 34.797141 -24.409195 
L 34.901634 -24.591057 
L 34.998292 -24.772919 
L 35.079814 -24.954781 
L 35.140973 -25.136643 
L 35.178965 -25.318505 
L 35.193607 -25.500367 
L 35.187364 -25.682228 
L 35.1652 -25.86409 
L 35.134261 -26.045952 
L 35.103394 -26.227814 
L 35.082546 -26.409676 
L 35.082071 -26.591538 
L 35.112005 -26.7734 
L 35.181355 -26.955261 
L 35.297459 -27.137123 
L 35.465468 -27.318985 
L 35.687989 -27.500847 
L 35.964907 -27.682709 
L 36.293408 -27.864571 
L 36.668189 -28.046433 
L 37.081828 -28.228294 
L 37.525281 -28.410156 
L 37.988466 -28.592018 
L 38.46087 -28.77388 
L 38.932146 -28.955742 
L 39.392639 -29.137604 
L 39.833824 -29.319466 
L 40.248623 -29.501327 
L 40.631591 -29.683189 
L 40.978976 -29.865051 
L 41.288666 -30.046913 
L 41.560037 -30.228775 
L 41.793732 -30.410637 
L 41.991399 -30.592499 
L 42.155403 -30.77436 
L 42.288545 -30.956222 
L 42.393809 -31.138084 
L 42.474131 -31.319946 
L 42.532224 -31.501808 
L 42.570447 -31.68367 
L 42.590719 -31.865532 
L 42.594488 -32.047393 
L 42.582739 -32.229255 
L 42.556041 -32.411117 
L 42.514633 -32.592979 
L 42.45853 -32.774841 
L 42.387661 -32.956703 
L 42.302009 -33.138565 
L 42.201766 -33.320426 
L 42.087473 -33.502288 
L 41.960158 -33.68415 
L 41.821429 -33.866012 
L 41.673546 -34.047874 
L 41.519436 -34.229736 
L 41.362657 -34.411598 
L 41.207305 -34.593459 
L 41.057865 -34.775321 
L 40.919021 -34.957183 
L 40.79542 -35.139045 
L 40.69142 -35.320907 
L 40.610843 -35.502769 
L 40.556742 -35.684631 
L 40.53121 -35.866492 
L 40.535247 -36.048354 
L 40.568696 -36.230216 
L 40.630251 -36.412078 
L 40.717545 -36.59394 
L 40.827299 -36.775802 
L 40.955527 -36.957664 
L 41.097777 -37.139525 
L 41.249382 -37.321387 
L 41.405714 -37.503249 
L 41.562412 -37.685111 
L 41.715565 -37.866973 
L 41.861861 -38.048835 
L 41.998668 -38.230697 
L 43.577654 -38.230697 
L 43.577654 -38.230697 
L 43.714461 -38.048835 
L 43.860757 -37.866973 
L 44.013911 -37.685111 
L 44.170608 -37.503249 
L 44.326941 -37.321387 
L 44.478546 -37.139525 
L 44.620795 -36.957664 
L 44.749024 -36.775802 
L 44.858778 -36.59394 
L 44.946072 -36.412078 
L 45.007627 -36.230216 
L 45.041075 -36.048354 
L 45.045112 -35.866492 
L 45.019581 -35.684631 
L 44.96548 -35.502769 
L 44.884903 -35.320907 
L 44.780903 -35.139045 
L 44.657301 -34.957183 
L 44.518457 -34.775321 
L 44.369018 -34.593459 
L 44.213665 -34.411598 
L 44.056886 -34.229736 
L 43.902776 -34.047874 
L 43.754894 -33.866012 
L 43.616165 -33.68415 
L 43.488849 -33.502288 
L 43.374557 -33.320426 
L 43.274313 -33.138565 
L 43.188661 -32.956703 
L 43.117792 -32.774841 
L 43.06169 -32.592979 
L 43.020281 -32.411117 
L 42.993584 -32.229255 
L 42.981834 -32.047393 
L 42.985603 -31.865532 
L 43.005875 -31.68367 
L 43.044098 -31.501808 
L 43.102192 -31.319946 
L 43.182514 -31.138084 
L 43.287777 -30.956222 
L 43.42092 -30.77436 
L 43.584923 -30.592499 
L 43.78259 -30.410637 
L 44.016286 -30.228775 
L 44.287656 -30.046913 
L 44.597346 -29.865051 
L 44.944732 -29.683189 
L 45.327699 -29.501327 
L 45.742499 -29.319466 
L 46.183684 -29.137604 
L 46.644176 -28.955742 
L 47.115452 -28.77388 
L 47.587857 -28.592018 
L 48.051042 -28.410156 
L 48.494495 -28.228294 
L 48.908133 -28.046433 
L 49.282914 -27.864571 
L 49.611415 -27.682709 
L 49.888333 -27.500847 
L 50.110854 -27.318985 
L 50.278864 -27.137123 
L 50.394968 -26.955261 
L 50.464318 -26.7734 
L 50.494252 -26.591538 
L 50.493777 -26.409676 
L 50.472928 -26.227814 
L 50.442061 -26.045952 
L 50.411122 -25.86409 
L 50.388958 -25.682228 
L 50.382715 -25.500367 
L 50.397357 -25.318505 
L 50.43535 -25.136643 
L 50.496509 -24.954781 
L 50.57803 -24.772919 
L 50.674689 -24.591057 
L 50.779181 -24.409195 
L 50.882602 -24.227334 
L 50.975001 -24.045472 
L 51.046002 -23.86361 
L 51.08544 -23.681748 
L 51.083974 -23.499886 
L 51.033649 -23.318024 
L 50.928366 -23.136162 
L 50.764247 -22.954301 
L 50.539852 -22.772439 
L 50.256267 -22.590577 
L 49.917027 -22.408715 
L 49.527912 -22.226853 
L 49.096607 -22.044991 
L 48.632272 -21.863129 
L 48.145039 -21.681268 
L 47.64548 -21.499406 
L 47.144079 -21.317544 
L 46.650746 -21.135682 
L 46.174403 -20.95382 
L 45.722655 -20.771958 
L 45.301577 -20.590096 
L 44.915604 -20.408235 
L 44.567527 -20.226373 
z
" style="stroke: #717171; stroke-width: 0.15"/>
    </defs>
    <g clip-path="url(#pfbc4ff4129)">
     <use xlink:href="#m0a97b0e2cf" x="0" y="84.96" style="fill: #f1b9e0; stroke: #717171; stroke-width: 0.15"/>
    </g>
   </g>
   <g id="line2d_7">
    <path d="M 22.044964 64.513962 
L 22.044964 58.626281 
" clip-path="url(#pfbc4ff4129)" style="fill: none; stroke: #8c8c8c; stroke-width: 0.75; stroke-linecap: round"/>
   </g>
   <g id="line2d_8">
    <path d="M 22.044964 64.065991 
L 22.044964 60.320466 
" clip-path="url(#pfbc4ff4129)" style="fill: none; stroke: #8c8c8c; stroke-width: 4; stroke-linecap: round"/>
   </g>
   <g id="line2d_9">
    <path d="M 22.044964 62.84258 
" clip-path="url(#pfbc4ff4129)" style="fill: none; stroke: #717171; stroke-width: 1.2; stroke-linecap: round"/>
    <defs>
     <path id="m51639a147f" d="M 0 0.833333 
C 0.221003 0.833333 0.432983 0.745528 0.589256 0.589256 
C 0.745528 0.432983 0.833333 0.221003 0.833333 0 
C 0.833333 -0.221003 0.745528 -0.432983 0.589256 -0.589256 
C 0.432983 -0.745528 0.221003 -0.833333 0 -0.833333 
C -0.221003 -0.833333 -0.432983 -0.745528 -0.589256 -0.589256 
C -0.745528 -0.432983 -0.833333 -0.221003 -0.833333 0 
C -0.833333 0.221003 -0.745528 0.432983 -0.589256 0.589256 
C -0.432983 0.745528 -0.221003 0.833333 0 0.833333 
z
" style="stroke: #ffffff; stroke-width: 0.8"/>
    </defs>
    <g clip-path="url(#pfbc4ff4129)">
     <use xlink:href="#m51639a147f" x="22.044964" y="62.84258" style="fill: #ffffff; stroke: #ffffff; stroke-width: 0.8"/>
    </g>
   </g>
   <g id="line2d_10">
    <path d="M 42.788161 62.43564 
L 42.788161 57.434011 
" clip-path="url(#pfbc4ff4129)" style="fill: none; stroke: #8c8c8c; stroke-width: 0.75; stroke-linecap: round"/>
   </g>
   <g id="line2d_11">
    <path d="M 42.788161 61.628253 
L 42.788161 57.468822 
" clip-path="url(#pfbc4ff4129)" style="fill: none; stroke: #8c8c8c; stroke-width: 4; stroke-linecap: round"/>
   </g>
   <g id="line2d_12">
    <path d="M 42.788161 59.278366 
" clip-path="url(#pfbc4ff4129)" style="fill: none; stroke: #717171; stroke-width: 1.2; stroke-linecap: round"/>
    <g clip-path="url(#pfbc4ff4129)">
     <use xlink:href="#m51639a147f" x="42.788161" y="59.278366" style="fill: #ffffff; stroke: #ffffff; stroke-width: 0.8"/>
    </g>
   </g>
   <g id="patch_3">
    <path d="M 11.673365 74.419526 
L 11.673365 4.076256 
" style="fill: none; stroke: #777777; stroke-width: 0.5; stroke-linejoin: miter; stroke-linecap: square"/>
   </g>
   <g id="patch_4">
    <path d="M 11.673365 76.919526 
L 53.15976 76.919526 
" style="fill: none; stroke: #777777; stroke-width: 0.5; stroke-linejoin: miter; stroke-linecap: square"/>
   </g>
  </g>
 </g>
 <defs>
  <clipPath id="pfbc4ff4129">
   <rect x="11.673365" y="4.076256" width="41.486395" height="70.34327"/>
  </clipPath>
 </defs>
</svg>
