<?xml version="1.0" encoding="utf-8" standalone="no"?>
<!DOCTYPE svg PUBLIC "-//W3C//DTD SVG 1.1//EN"
  "http://www.w3.org/Graphics/SVG/1.1/DTD/svg11.dtd">
<svg xmlns:xlink="http://www.w3.org/1999/xlink" width="169.92pt" height="84.96pt" viewBox="0 0 169.92 84.96" xmlns="http://www.w3.org/2000/svg" version="1.1">
 <metadata>
  <rdf:RDF xmlns:dc="http://purl.org/dc/elements/1.1/" xmlns:cc="http://creativecommons.org/ns#" xmlns:rdf="http://www.w3.org/1999/02/22-rdf-syntax-ns#">
   <cc:Work>
    <dc:type rdf:resource="http://purl.org/dc/dcmitype/StillImage"/>
    <dc:date>2024-05-27T15:37:26.244970</dc:date>
    <dc:format>image/svg+xml</dc:format>
    <dc:creator>
     <cc:Agent>
      <dc:title>Matplotlib v3.8.3, https://matplotlib.org/</dc:title>
     </cc:Agent>
    </dc:creator>
   </cc:Work>
  </rdf:RDF>
 </metadata>
 <defs>
  <style type="text/css">*{stroke-linejoin: round; stroke-linecap: butt}</style>
 </defs>
 <g id="figure_1">
  <g id="patch_1">
   <path d="M 0 84.96 
L 169.92 84.96 
L 169.92 0 
L 0 0 
z
" style="fill: #ffffff"/>
  </g>
  <g id="axes_1">
   <g id="patch_2">
    <path d="M 8.420709 74.419526 
L 82.001713 74.419526 
L 82.001713 4.076256 
L 8.420709 4.076256 
z
" style="fill: #ffffff"/>
   </g>
   <g id="matplotlib.axis_1">
    <g id="xtick_1">
     <g id="text_1">
      <!-- NK/ILC1ie -->
      <g style="fill: #333333" transform="translate(9.642709 81.230229) scale(0.035 -0.035)">
       <defs>
        <path id="Helvetica-4e" d="M 488 4591 
L 1222 4591 
L 3541 872 
L 3541 4591 
L 4131 4591 
L 4131 0 
L 3434 0 
L 1081 3716 
L 1081 0 
L 488 0 
L 488 4591 
z
M 2269 4591 
L 2269 4591 
z
" transform="scale(0.015625)"/>
        <path id="Helvetica-4b" d="M 488 4591 
L 1094 4591 
L 1094 2353 
L 3331 4591 
L 4191 4591 
L 2281 2741 
L 4244 0 
L 3434 0 
L 1828 2303 
L 1094 1600 
L 1094 0 
L 488 0 
L 488 4591 
z
" transform="scale(0.015625)"/>
        <path id="Helvetica-2f" d="M 1456 4591 
L 1931 4591 
L 475 0 
L 0 0 
L 1456 4591 
z
" transform="scale(0.015625)"/>
        <path id="Helvetica-49" d="M 628 4591 
L 1256 4591 
L 1256 0 
L 628 0 
L 628 4591 
z
" transform="scale(0.015625)"/>
        <path id="Helvetica-4c" d="M 488 4591 
L 1109 4591 
L 1109 547 
L 3434 547 
L 3434 0 
L 488 0 
L 488 4591 
z
" transform="scale(0.015625)"/>
        <path id="Helvetica-43" d="M 2422 4716 
Q 3294 4716 3775 4256 
Q 4256 3797 4309 3213 
L 3703 3213 
Q 3600 3656 3292 3915 
Q 2984 4175 2428 4175 
Q 1750 4175 1333 3698 
Q 916 3222 916 2238 
Q 916 1431 1292 929 
Q 1669 428 2416 428 
Q 3103 428 3463 956 
Q 3653 1234 3747 1688 
L 4353 1688 
Q 4272 963 3816 472 
Q 3269 -119 2341 -119 
Q 1541 -119 997 366 
Q 281 1006 281 2344 
Q 281 3359 819 4009 
Q 1400 4716 2422 4716 
z
M 2297 4716 
L 2297 4716 
z
" transform="scale(0.015625)"/>
        <path id="Helvetica-31" d="M 613 3169 
L 613 3600 
Q 1222 3659 1462 3798 
Q 1703 3938 1822 4456 
L 2266 4456 
L 2266 0 
L 1666 0 
L 1666 3169 
L 613 3169 
z
" transform="scale(0.015625)"/>
        <path id="Helvetica-69" d="M 413 3331 
L 984 3331 
L 984 0 
L 413 0 
L 413 3331 
z
M 413 4591 
L 984 4591 
L 984 3953 
L 413 3953 
L 413 4591 
z
" transform="scale(0.015625)"/>
        <path id="Helvetica-65" d="M 1806 3422 
Q 2163 3422 2497 3255 
Q 2831 3088 3006 2822 
Q 3175 2569 3231 2231 
Q 3281 2000 3281 1494 
L 828 1494 
Q 844 984 1069 676 
Q 1294 369 1766 369 
Q 2206 369 2469 659 
Q 2619 828 2681 1050 
L 3234 1050 
Q 3213 866 3089 639 
Q 2966 413 2813 269 
Q 2556 19 2178 -69 
Q 1975 -119 1719 -119 
Q 1094 -119 659 336 
Q 225 791 225 1609 
Q 225 2416 662 2919 
Q 1100 3422 1806 3422 
z
M 2703 1941 
Q 2669 2306 2544 2525 
Q 2313 2931 1772 2931 
Q 1384 2931 1121 2651 
Q 859 2372 844 1941 
L 2703 1941 
z
M 1753 3428 
L 1753 3428 
z
" transform="scale(0.015625)"/>
       </defs>
       <use xlink:href="#Helvetica-4e"/>
       <use xlink:href="#Helvetica-4b" x="72.216797"/>
       <use xlink:href="#Helvetica-2f" x="138.916016"/>
       <use xlink:href="#Helvetica-49" x="166.699219"/>
       <use xlink:href="#Helvetica-4c" x="194.482422"/>
       <use xlink:href="#Helvetica-43" x="250.097656"/>
       <use xlink:href="#Helvetica-31" x="322.314453"/>
       <use xlink:href="#Helvetica-69" x="377.929688"/>
       <use xlink:href="#Helvetica-65" x="400.146484"/>
      </g>
     </g>
    </g>
    <g id="xtick_2">
     <g id="text_2">
      <!-- ILC1 -->
      <g style="fill: #333333" transform="translate(32.317257 81.230229) scale(0.035 -0.035)">
       <use xlink:href="#Helvetica-49"/>
       <use xlink:href="#Helvetica-4c" x="27.783203"/>
       <use xlink:href="#Helvetica-43" x="83.398438"/>
       <use xlink:href="#Helvetica-31" x="155.615234"/>
      </g>
     </g>
    </g>
    <g id="xtick_3">
     <g id="text_3">
      <!-- ILC2 -->
      <g style="fill: #333333" transform="translate(50.712508 81.230229) scale(0.035 -0.035)">
       <defs>
        <path id="Helvetica-32" d="M 200 0 
Q 231 578 439 1006 
Q 647 1434 1250 1784 
L 1850 2131 
Q 2253 2366 2416 2531 
Q 2672 2791 2672 3125 
Q 2672 3516 2437 3745 
Q 2203 3975 1813 3975 
Q 1234 3975 1013 3538 
Q 894 3303 881 2888 
L 309 2888 
Q 319 3472 525 3841 
Q 891 4491 1816 4491 
Q 2584 4491 2939 4075 
Q 3294 3659 3294 3150 
Q 3294 2613 2916 2231 
Q 2697 2009 2131 1694 
L 1703 1456 
Q 1397 1288 1222 1134 
Q 909 863 828 531 
L 3272 531 
L 3272 0 
L 200 0 
z
" transform="scale(0.015625)"/>
       </defs>
       <use xlink:href="#Helvetica-49"/>
       <use xlink:href="#Helvetica-4c" x="27.783203"/>
       <use xlink:href="#Helvetica-43" x="83.398438"/>
       <use xlink:href="#Helvetica-32" x="155.615234"/>
      </g>
     </g>
    </g>
    <g id="xtick_4">
     <g id="text_4">
      <!-- ILC3 -->
      <g style="fill: #333333" transform="translate(69.107759 81.230229) scale(0.035 -0.035)">
       <defs>
        <path id="Helvetica-33" d="M 1663 -122 
Q 869 -122 511 314 
Q 153 750 153 1375 
L 741 1375 
Q 778 941 903 744 
Q 1122 391 1694 391 
Q 2138 391 2406 628 
Q 2675 866 2675 1241 
Q 2675 1703 2392 1887 
Q 2109 2072 1606 2072 
Q 1550 2072 1492 2070 
Q 1434 2069 1375 2066 
L 1375 2563 
Q 1463 2553 1522 2550 
Q 1581 2547 1650 2547 
Q 1966 2547 2169 2647 
Q 2525 2822 2525 3272 
Q 2525 3606 2287 3787 
Q 2050 3969 1734 3969 
Q 1172 3969 956 3594 
Q 838 3388 822 3006 
L 266 3006 
Q 266 3506 466 3856 
Q 809 4481 1675 4481 
Q 2359 4481 2734 4176 
Q 3109 3872 3109 3294 
Q 3109 2881 2888 2625 
Q 2750 2466 2531 2375 
Q 2884 2278 3082 2001 
Q 3281 1725 3281 1325 
Q 3281 684 2859 281 
Q 2438 -122 1663 -122 
z
" transform="scale(0.015625)"/>
       </defs>
       <use xlink:href="#Helvetica-49"/>
       <use xlink:href="#Helvetica-4c" x="27.783203"/>
       <use xlink:href="#Helvetica-43" x="83.398438"/>
       <use xlink:href="#Helvetica-33" x="155.615234"/>
      </g>
     </g>
    </g>
   </g>
   <g id="matplotlib.axis_2">
    <g id="ytick_1">
     <g id="line2d_1">
      <defs>
       <path id="me886b3d1aa" d="M 0 0 
L -1 0 
" style="stroke: #777777; stroke-width: 0.5"/>
      </defs>
      <g>
       <use xlink:href="#me886b3d1aa" x="8.420709" y="73.526593" style="fill: #777777; stroke: #777777; stroke-width: 0.5"/>
      </g>
     </g>
     <g id="text_5">
      <!-- −1 -->
      <g style="fill: #333333" transform="translate(3.00024 74.602608) scale(0.03 -0.03)">
       <defs>
        <path id="Helvetica-2212" d="M 3547 1894 
L 3547 1369 
L 288 1369 
L 288 1894 
L 3547 1894 
z
" transform="scale(0.015625)"/>
       </defs>
       <use xlink:href="#Helvetica-2212"/>
       <use xlink:href="#Helvetica-31" x="58.398438"/>
      </g>
     </g>
    </g>
    <g id="ytick_2">
     <g id="line2d_2">
      <g>
       <use xlink:href="#me886b3d1aa" x="8.420709" y="63.605116" style="fill: #777777; stroke: #777777; stroke-width: 0.5"/>
      </g>
     </g>
     <g id="text_6">
      <!-- 0 -->
      <g style="fill: #333333" transform="translate(4.752427 64.681132) scale(0.03 -0.03)">
       <defs>
        <path id="Helvetica-30" d="M 1731 4475 
Q 2600 4475 2988 3759 
Q 3288 3206 3288 2244 
Q 3288 1331 3016 734 
Q 2622 -122 1728 -122 
Q 922 -122 528 578 
Q 200 1163 200 2147 
Q 200 2909 397 3456 
Q 766 4475 1731 4475 
z
M 1725 391 
Q 2163 391 2422 778 
Q 2681 1166 2681 2222 
Q 2681 2984 2493 3476 
Q 2306 3969 1766 3969 
Q 1269 3969 1039 3501 
Q 809 3034 809 2125 
Q 809 1441 956 1025 
Q 1181 391 1725 391 
z
" transform="scale(0.015625)"/>
       </defs>
       <use xlink:href="#Helvetica-30"/>
      </g>
     </g>
    </g>
    <g id="ytick_3">
     <g id="line2d_3">
      <g>
       <use xlink:href="#me886b3d1aa" x="8.420709" y="53.683639" style="fill: #777777; stroke: #777777; stroke-width: 0.5"/>
      </g>
     </g>
     <g id="text_7">
      <!-- 1 -->
      <g style="fill: #333333" transform="translate(4.752427 54.759655) scale(0.03 -0.03)">
       <use xlink:href="#Helvetica-31"/>
      </g>
     </g>
    </g>
    <g id="ytick_4">
     <g id="line2d_4">
      <g>
       <use xlink:href="#me886b3d1aa" x="8.420709" y="43.762163" style="fill: #777777; stroke: #777777; stroke-width: 0.5"/>
      </g>
     </g>
     <g id="text_8">
      <!-- 2 -->
      <g style="fill: #333333" transform="translate(4.752427 44.838178) scale(0.03 -0.03)">
       <use xlink:href="#Helvetica-32"/>
      </g>
     </g>
    </g>
    <g id="ytick_5">
     <g id="line2d_5">
      <g>
       <use xlink:href="#me886b3d1aa" x="8.420709" y="33.840686" style="fill: #777777; stroke: #777777; stroke-width: 0.5"/>
      </g>
     </g>
     <g id="text_9">
      <!-- 3 -->
      <g style="fill: #333333" transform="translate(4.752427 34.916701) scale(0.03 -0.03)">
       <use xlink:href="#Helvetica-33"/>
      </g>
     </g>
    </g>
    <g id="ytick_6">
     <g id="line2d_6">
      <g>
       <use xlink:href="#me886b3d1aa" x="8.420709" y="23.919209" style="fill: #777777; stroke: #777777; stroke-width: 0.5"/>
      </g>
     </g>
     <g id="text_10">
      <!-- 4 -->
      <g style="fill: #333333" transform="translate(4.752427 24.995225) scale(0.03 -0.03)">
       <defs>
        <path id="Helvetica-34" d="M 2116 1584 
L 2116 3613 
L 681 1584 
L 2116 1584 
z
M 2125 0 
L 2125 1094 
L 163 1094 
L 163 1644 
L 2213 4488 
L 2688 4488 
L 2688 1584 
L 3347 1584 
L 3347 1094 
L 2688 1094 
L 2688 0 
L 2125 0 
z
" transform="scale(0.015625)"/>
       </defs>
       <use xlink:href="#Helvetica-34"/>
      </g>
     </g>
    </g>
    <g id="ytick_7">
     <g id="line2d_7">
      <g>
       <use xlink:href="#me886b3d1aa" x="8.420709" y="13.997732" style="fill: #777777; stroke: #777777; stroke-width: 0.5"/>
      </g>
     </g>
     <g id="text_11">
      <!-- 5 -->
      <g style="fill: #333333" transform="translate(4.752427 15.073748) scale(0.03 -0.03)">
       <defs>
        <path id="Helvetica-35" d="M 791 1141 
Q 847 659 1238 475 
Q 1438 381 1700 381 
Q 2200 381 2440 700 
Q 2681 1019 2681 1406 
Q 2681 1875 2395 2131 
Q 2109 2388 1709 2388 
Q 1419 2388 1211 2275 
Q 1003 2163 856 1963 
L 369 1991 
L 709 4400 
L 3034 4400 
L 3034 3856 
L 1131 3856 
L 941 2613 
Q 1097 2731 1238 2791 
Q 1488 2894 1816 2894 
Q 2431 2894 2859 2497 
Q 3288 2100 3288 1491 
Q 3288 856 2895 371 
Q 2503 -113 1644 -113 
Q 1097 -113 676 195 
Q 256 503 206 1141 
L 791 1141 
z
" transform="scale(0.015625)"/>
       </defs>
       <use xlink:href="#Helvetica-35"/>
      </g>
     </g>
    </g>
    <g id="ytick_8">
     <g id="line2d_8">
      <g>
       <use xlink:href="#me886b3d1aa" x="8.420709" y="4.076256" style="fill: #777777; stroke: #777777; stroke-width: 0.5"/>
      </g>
     </g>
     <g id="text_12">
      <!-- 6 -->
      <g style="fill: #333333" transform="translate(4.752427 5.152271) scale(0.03 -0.03)">
       <defs>
        <path id="Helvetica-36" d="M 1872 4494 
Q 2622 4494 2917 4105 
Q 3213 3716 3213 3303 
L 2656 3303 
Q 2606 3569 2497 3719 
Q 2294 4000 1881 4000 
Q 1409 4000 1131 3564 
Q 853 3128 822 2316 
Q 1016 2600 1309 2741 
Q 1578 2866 1909 2866 
Q 2472 2866 2890 2506 
Q 3309 2147 3309 1434 
Q 3309 825 2912 354 
Q 2516 -116 1781 -116 
Q 1153 -116 697 361 
Q 241 838 241 1966 
Q 241 2800 444 3381 
Q 834 4494 1872 4494 
z
M 1831 384 
Q 2275 384 2495 682 
Q 2716 981 2716 1388 
Q 2716 1731 2519 2042 
Q 2322 2353 1803 2353 
Q 1441 2353 1167 2112 
Q 894 1872 894 1388 
Q 894 963 1142 673 
Q 1391 384 1831 384 
z
" transform="scale(0.015625)"/>
       </defs>
       <use xlink:href="#Helvetica-36"/>
      </g>
     </g>
    </g>
   </g>
   <g id="PolyCollection_1">
    <defs>
     <path id="m4c31a542a6" d="M 18.027578 -21.151829 
L 17.20909 -21.151829 
L 17.097503 -21.163407 
L 16.963018 -21.174985 
L 16.803117 -21.186562 
L 16.615579 -21.19814 
L 16.398645 -21.209718 
L 16.151189 -21.221296 
L 15.872881 -21.232874 
L 15.564338 -21.244451 
L 15.227233 -21.256029 
L 14.864363 -21.267607 
L 14.479659 -21.279185 
L 14.078131 -21.290763 
L 13.665743 -21.30234 
L 13.249226 -21.313918 
L 12.835835 -21.325496 
L 12.43306 -21.337074 
L 12.048325 -21.348652 
L 11.688676 -21.360229 
L 11.360494 -21.371807 
L 11.069262 -21.383385 
L 10.819373 -21.394963 
L 10.61403 -21.406541 
L 10.455202 -21.418118 
L 10.343666 -21.429696 
L 10.279103 -21.441274 
L 10.260234 -21.452852 
L 10.284987 -21.46443 
L 10.350668 -21.476007 
L 10.454114 -21.487585 
L 10.591824 -21.499163 
L 10.760056 -21.510741 
L 10.954892 -21.522319 
L 11.172272 -21.533897 
L 11.408015 -21.545474 
L 11.657838 -21.557052 
L 11.917388 -21.56863 
L 12.182292 -21.580208 
L 12.448247 -21.591786 
L 12.71113 -21.603363 
L 12.967143 -21.614941 
L 13.212962 -21.626519 
L 13.445889 -21.638097 
L 13.66398 -21.649675 
L 13.866126 -21.661252 
L 14.05209 -21.67283 
L 14.222465 -21.684408 
L 14.378572 -21.695986 
L 14.522295 -21.707564 
L 14.655858 -21.719141 
L 14.781578 -21.730719 
L 14.901602 -21.742297 
L 15.017657 -21.753875 
L 15.13084 -21.765453 
L 15.241457 -21.77703 
L 15.348943 -21.788608 
L 15.451842 -21.800186 
L 15.547884 -21.811764 
L 15.634123 -21.823342 
L 15.707142 -21.834919 
L 15.763304 -21.846497 
L 15.799031 -21.858075 
L 15.811096 -21.869653 
L 15.796898 -21.881231 
L 15.754715 -21.892808 
L 15.68391 -21.904386 
L 15.585076 -21.915964 
L 15.460121 -21.927542 
L 15.312269 -21.93912 
L 15.145992 -21.950697 
L 14.966864 -21.962275 
L 14.781345 -21.973853 
L 14.596513 -21.985431 
L 14.419738 -21.997009 
L 14.258348 -22.008586 
L 14.119267 -22.020164 
L 14.008685 -22.031742 
L 13.931751 -22.04332 
L 13.892324 -22.054898 
L 13.8928 -22.066476 
L 13.93401 -22.078053 
L 14.015216 -22.089631 
L 14.134188 -22.101209 
L 14.287361 -22.112787 
L 14.470064 -22.124365 
L 14.676788 -22.135942 
L 14.901502 -22.14752 
L 15.137954 -22.159098 
L 15.379983 -22.170676 
L 15.62178 -22.182254 
L 15.85812 -22.193831 
L 16.084526 -22.205409 
L 16.297381 -22.216987 
L 16.493976 -22.228565 
L 16.672506 -22.240143 
L 16.832012 -22.25172 
L 16.972295 -22.263298 
L 17.093796 -22.274876 
L 17.197468 -22.286454 
L 17.284638 -22.298032 
L 17.95203 -22.298032 
L 17.95203 -22.298032 
L 18.039201 -22.286454 
L 18.142872 -22.274876 
L 18.264373 -22.263298 
L 18.404656 -22.25172 
L 18.564163 -22.240143 
L 18.742692 -22.228565 
L 18.939288 -22.216987 
L 19.152142 -22.205409 
L 19.378548 -22.193831 
L 19.614888 -22.182254 
L 19.856686 -22.170676 
L 20.098714 -22.159098 
L 20.335167 -22.14752 
L 20.55988 -22.135942 
L 20.766605 -22.124365 
L 20.949307 -22.112787 
L 21.102481 -22.101209 
L 21.221453 -22.089631 
L 21.302659 -22.078053 
L 21.343869 -22.066476 
L 21.344345 -22.054898 
L 21.304918 -22.04332 
L 21.227983 -22.031742 
L 21.117401 -22.020164 
L 20.978321 -22.008586 
L 20.81693 -21.997009 
L 20.640156 -21.985431 
L 20.455323 -21.973853 
L 20.269805 -21.962275 
L 20.090676 -21.950697 
L 19.924399 -21.93912 
L 19.776547 -21.927542 
L 19.651592 -21.915964 
L 19.552759 -21.904386 
L 19.481953 -21.892808 
L 19.439771 -21.881231 
L 19.425573 -21.869653 
L 19.437638 -21.858075 
L 19.473365 -21.846497 
L 19.529527 -21.834919 
L 19.602546 -21.823342 
L 19.688785 -21.811764 
L 19.784827 -21.800186 
L 19.887726 -21.788608 
L 19.995211 -21.77703 
L 20.105829 -21.765453 
L 20.219011 -21.753875 
L 20.335066 -21.742297 
L 20.45509 -21.730719 
L 20.580811 -21.719141 
L 20.714374 -21.707564 
L 20.858096 -21.695986 
L 21.014204 -21.684408 
L 21.184578 -21.67283 
L 21.370542 -21.661252 
L 21.572689 -21.649675 
L 21.79078 -21.638097 
L 22.023707 -21.626519 
L 22.269526 -21.614941 
L 22.525538 -21.603363 
L 22.788422 -21.591786 
L 23.054377 -21.580208 
L 23.319281 -21.56863 
L 23.578831 -21.557052 
L 23.828654 -21.545474 
L 24.064397 -21.533897 
L 24.281776 -21.522319 
L 24.476612 -21.510741 
L 24.644845 -21.499163 
L 24.782555 -21.487585 
L 24.886 -21.476007 
L 24.951681 -21.46443 
L 24.976435 -21.452852 
L 24.957565 -21.441274 
L 24.893002 -21.429696 
L 24.781467 -21.418118 
L 24.622639 -21.406541 
L 24.417295 -21.394963 
L 24.167407 -21.383385 
L 23.876174 -21.371807 
L 23.547993 -21.360229 
L 23.188343 -21.348652 
L 22.803608 -21.337074 
L 22.400834 -21.325496 
L 21.987442 -21.313918 
L 21.570926 -21.30234 
L 21.158538 -21.290763 
L 20.75701 -21.279185 
L 20.372306 -21.267607 
L 20.009436 -21.256029 
L 19.67233 -21.244451 
L 19.363787 -21.232874 
L 19.08548 -21.221296 
L 18.838023 -21.209718 
L 18.62109 -21.19814 
L 18.433552 -21.186562 
L 18.273651 -21.174985 
L 18.139165 -21.163407 
L 18.027578 -21.151829 
z
" style="stroke: #444444; stroke-width: 0.15"/>
    </defs>
    <g clip-path="url(#p68c8412b1c)">
     <use xlink:href="#m4c31a542a6" x="0" y="84.96" style="fill: #546e8e; stroke: #444444; stroke-width: 0.15"/>
    </g>
   </g>
   <g id="PolyCollection_2">
    <defs>
     <path id="me6e2186670" d="M 36.528746 -10.674389 
L 35.498425 -10.674389 
L 35.341923 -11.335778 
L 35.150204 -11.997166 
L 34.919348 -12.658554 
L 34.646191 -13.319943 
L 34.328718 -13.981331 
L 33.966459 -14.64272 
L 33.560863 -15.304108 
L 33.115607 -15.965496 
L 32.636793 -16.626885 
L 32.133011 -17.288273 
L 31.615225 -17.949661 
L 31.096471 -18.61105 
L 30.591371 -19.272438 
L 30.115474 -19.933827 
L 29.684473 -20.595215 
L 29.313342 -21.256603 
L 29.015469 -21.917992 
L 28.801847 -22.57938 
L 28.680397 -23.240769 
L 28.655485 -23.902157 
L 28.727658 -24.563545 
L 28.893646 -25.224934 
L 29.146602 -25.886322 
L 29.476575 -26.547711 
L 29.871149 -27.209099 
L 30.316221 -27.870487 
L 30.796815 -28.531876 
L 31.2979 -29.193264 
L 31.805134 -29.854653 
L 32.305486 -30.516041 
L 32.787717 -31.177429 
L 33.242689 -31.838818 
L 33.66351 -32.500206 
L 34.04553 -33.161595 
L 34.386202 -33.822983 
L 34.684846 -34.484371 
L 34.942355 -35.14576 
L 35.160852 -35.807148 
L 35.343361 -36.468537 
L 35.493481 -37.129925 
L 35.615103 -37.791313 
L 35.712176 -38.452702 
L 35.788517 -39.11409 
L 35.847679 -39.775479 
L 35.89286 -40.436867 
L 35.926863 -41.098255 
L 35.952077 -41.759644 
L 35.97049 -42.421032 
L 35.983717 -43.082421 
L 35.993042 -43.743809 
L 35.999454 -44.405197 
L 36.003693 -45.066586 
L 36.00629 -45.727974 
L 36.007595 -46.389362 
L 36.007809 -47.050751 
L 36.006998 -47.712139 
L 36.005108 -48.373528 
L 36.001974 -49.034916 
L 35.997321 -49.696304 
L 35.990765 -50.357693 
L 35.981819 -51.019081 
L 35.969897 -51.68047 
L 35.954326 -52.341858 
L 35.934369 -53.003246 
L 35.909256 -53.664635 
L 35.87823 -54.326023 
L 35.840606 -54.987412 
L 35.795834 -55.6488 
L 35.743585 -56.310188 
L 35.683819 -56.971577 
L 35.616864 -57.632965 
L 35.543473 -58.294354 
L 35.464861 -58.955742 
L 35.38271 -59.61713 
L 35.29914 -60.278519 
L 35.216636 -60.939907 
L 35.137937 -61.601296 
L 35.065899 -62.262684 
L 35.003318 -62.924072 
L 34.952759 -63.585461 
L 34.916377 -64.246849 
L 34.895769 -64.908238 
L 34.891856 -65.569626 
L 34.904814 -66.231014 
L 34.93406 -66.892403 
L 34.9783 -67.553791 
L 35.035619 -68.21518 
L 35.103622 -68.876568 
L 35.179596 -69.537956 
L 35.260691 -70.199345 
L 35.344096 -70.860733 
L 35.427191 -71.522122 
L 35.507676 -72.18351 
L 35.583661 -72.844898 
L 35.653714 -73.506287 
L 35.71687 -74.167675 
L 35.772612 -74.829063 
L 35.820818 -75.490452 
L 35.861693 -76.15184 
L 36.165478 -76.15184 
L 36.165478 -76.15184 
L 36.206353 -75.490452 
L 36.254559 -74.829063 
L 36.310301 -74.167675 
L 36.373457 -73.506287 
L 36.44351 -72.844898 
L 36.519495 -72.18351 
L 36.59998 -71.522122 
L 36.683075 -70.860733 
L 36.76648 -70.199345 
L 36.847575 -69.537956 
L 36.923549 -68.876568 
L 36.991551 -68.21518 
L 37.048871 -67.553791 
L 37.093111 -66.892403 
L 37.122357 -66.231014 
L 37.135315 -65.569626 
L 37.131401 -64.908238 
L 37.110794 -64.246849 
L 37.074412 -63.585461 
L 37.023853 -62.924072 
L 36.961272 -62.262684 
L 36.889233 -61.601296 
L 36.810535 -60.939907 
L 36.728031 -60.278519 
L 36.64446 -59.61713 
L 36.56231 -58.955742 
L 36.483698 -58.294354 
L 36.410307 -57.632965 
L 36.343352 -56.971577 
L 36.283586 -56.310188 
L 36.231336 -55.6488 
L 36.186565 -54.987412 
L 36.14894 -54.326023 
L 36.117915 -53.664635 
L 36.092802 -53.003246 
L 36.072845 -52.341858 
L 36.057274 -51.68047 
L 36.045352 -51.019081 
L 36.036406 -50.357693 
L 36.02985 -49.696304 
L 36.025196 -49.034916 
L 36.022063 -48.373528 
L 36.020173 -47.712139 
L 36.019362 -47.050751 
L 36.019576 -46.389362 
L 36.020881 -45.727974 
L 36.023478 -45.066586 
L 36.027717 -44.405197 
L 36.034129 -43.743809 
L 36.043453 -43.082421 
L 36.056681 -42.421032 
L 36.075094 -41.759644 
L 36.100308 -41.098255 
L 36.134311 -40.436867 
L 36.179492 -39.775479 
L 36.238653 -39.11409 
L 36.314994 -38.452702 
L 36.412067 -37.791313 
L 36.53369 -37.129925 
L 36.68381 -36.468537 
L 36.866319 -35.807148 
L 37.084816 -35.14576 
L 37.342324 -34.484371 
L 37.640969 -33.822983 
L 37.98164 -33.161595 
L 38.363661 -32.500206 
L 38.784482 -31.838818 
L 39.239454 -31.177429 
L 39.721685 -30.516041 
L 40.222037 -29.854653 
L 40.729271 -29.193264 
L 41.230356 -28.531876 
L 41.71095 -27.870487 
L 42.156022 -27.209099 
L 42.550596 -26.547711 
L 42.880568 -25.886322 
L 43.133525 -25.224934 
L 43.299513 -24.563545 
L 43.371686 -23.902157 
L 43.346773 -23.240769 
L 43.225324 -22.57938 
L 43.011702 -21.917992 
L 42.713829 -21.256603 
L 42.342698 -20.595215 
L 41.911697 -19.933827 
L 41.4358 -19.272438 
L 40.9307 -18.61105 
L 40.411946 -17.949661 
L 39.89416 -17.288273 
L 39.390378 -16.626885 
L 38.911564 -15.965496 
L 38.466308 -15.304108 
L 38.060712 -14.64272 
L 37.698453 -13.981331 
L 37.38098 -13.319943 
L 37.107823 -12.658554 
L 36.876967 -11.997166 
L 36.685248 -11.335778 
L 36.528746 -10.674389 
z
" style="stroke: #444444; stroke-width: 0.15"/>
    </defs>
    <g clip-path="url(#p68c8412b1c)">
     <use xlink:href="#me6e2186670" x="0" y="84.96" style="fill: #e7a980; stroke: #444444; stroke-width: 0.15"/>
    </g>
   </g>
   <g id="PolyCollection_3">
    <defs>
     <path id="mc7d5dc0ed6" d="M 55.07166 -17.523732 
L 53.746013 -17.523732 
L 53.566415 -17.748483 
L 53.35202 -17.973234 
L 53.100156 -18.197984 
L 52.809065 -18.422735 
L 52.478198 -18.647486 
L 52.108488 -18.872237 
L 51.702582 -19.096988 
L 51.264991 -19.321738 
L 50.802144 -19.546489 
L 50.322331 -19.77124 
L 49.835508 -19.995991 
L 49.352984 -20.220741 
L 48.886985 -20.445492 
L 48.450131 -20.670243 
L 48.054851 -20.894994 
L 47.712776 -21.119745 
L 47.434158 -21.344495 
L 47.227351 -21.569246 
L 47.098396 -21.793997 
L 47.050736 -22.018748 
L 47.085075 -22.243498 
L 47.199396 -22.468249 
L 47.389116 -22.693 
L 47.647376 -22.917751 
L 47.965426 -23.142502 
L 48.33308 -23.367252 
L 48.739207 -23.592003 
L 49.172224 -23.816754 
L 49.620567 -24.041505 
L 50.073102 -24.266256 
L 50.519488 -24.491006 
L 50.950446 -24.715757 
L 51.357968 -24.940508 
L 51.735435 -25.165259 
L 52.077678 -25.390009 
L 52.380976 -25.61476 
L 52.643014 -25.839511 
L 52.862797 -26.064262 
L 53.04055 -26.289013 
L 53.177599 -26.513763 
L 53.27625 -26.738514 
L 53.339654 -26.963265 
L 53.37168 -27.188016 
L 53.376779 -27.412766 
L 53.35984 -27.637517 
L 53.326045 -27.862268 
L 53.280706 -28.087019 
L 53.229099 -28.31177 
L 53.176287 -28.53652 
L 53.126946 -28.761271 
L 53.085193 -28.986022 
L 53.054435 -29.210773 
L 53.037239 -29.435523 
L 53.035248 -29.660274 
L 53.049127 -29.885025 
L 53.078571 -30.109776 
L 53.122356 -30.334527 
L 53.178438 -30.559277 
L 53.244093 -30.784028 
L 53.316085 -31.008779 
L 53.390858 -31.23353 
L 53.464733 -31.458281 
L 53.534096 -31.683031 
L 53.595586 -31.907782 
L 53.646246 -32.132533 
L 53.683662 -32.357284 
L 53.706059 -32.582034 
L 53.712385 -32.806785 
L 53.702344 -33.031536 
L 53.676413 -33.256287 
L 53.635825 -33.481038 
L 53.582517 -33.705788 
L 53.519056 -33.930539 
L 53.448529 -34.15529 
L 53.374406 -34.380041 
L 53.300385 -34.604791 
L 53.230215 -34.829542 
L 53.167506 -35.054293 
L 53.115551 -35.279044 
L 53.077153 -35.503795 
L 53.054478 -35.728545 
L 53.048947 -35.953296 
L 53.061172 -36.178047 
L 53.090948 -36.402798 
L 53.137284 -36.627548 
L 53.198497 -36.852299 
L 53.272336 -37.07705 
L 53.356143 -37.301801 
L 53.447021 -37.526552 
L 53.542016 -37.751302 
L 53.638271 -37.976053 
L 53.733177 -38.200804 
L 53.824475 -38.425555 
L 53.910332 -38.650306 
L 53.989379 -38.875056 
L 54.060708 -39.099807 
L 54.123852 -39.324558 
L 54.178728 -39.549309 
L 54.225573 -39.774059 
L 54.5921 -39.774059 
L 54.5921 -39.774059 
L 54.638945 -39.549309 
L 54.693821 -39.324558 
L 54.756965 -39.099807 
L 54.828294 -38.875056 
L 54.907341 -38.650306 
L 54.993198 -38.425555 
L 55.084496 -38.200804 
L 55.179402 -37.976053 
L 55.275657 -37.751302 
L 55.370651 -37.526552 
L 55.46153 -37.301801 
L 55.545337 -37.07705 
L 55.619176 -36.852299 
L 55.680389 -36.627548 
L 55.726725 -36.402798 
L 55.756501 -36.178047 
L 55.768726 -35.953296 
L 55.763195 -35.728545 
L 55.740519 -35.503795 
L 55.702122 -35.279044 
L 55.650167 -35.054293 
L 55.587458 -34.829542 
L 55.517288 -34.604791 
L 55.443267 -34.380041 
L 55.369144 -34.15529 
L 55.298617 -33.930539 
L 55.235156 -33.705788 
L 55.181848 -33.481038 
L 55.14126 -33.256287 
L 55.115329 -33.031536 
L 55.105288 -32.806785 
L 55.111614 -32.582034 
L 55.134011 -32.357284 
L 55.171427 -32.132533 
L 55.222087 -31.907782 
L 55.283577 -31.683031 
L 55.35294 -31.458281 
L 55.426815 -31.23353 
L 55.501588 -31.008779 
L 55.57358 -30.784028 
L 55.639235 -30.559277 
L 55.695317 -30.334527 
L 55.739102 -30.109776 
L 55.768546 -29.885025 
L 55.782425 -29.660274 
L 55.780434 -29.435523 
L 55.763238 -29.210773 
L 55.73248 -28.986022 
L 55.690727 -28.761271 
L 55.641386 -28.53652 
L 55.588574 -28.31177 
L 55.536967 -28.087019 
L 55.491628 -27.862268 
L 55.457833 -27.637517 
L 55.440894 -27.412766 
L 55.445993 -27.188016 
L 55.478019 -26.963265 
L 55.541423 -26.738514 
L 55.640074 -26.513763 
L 55.777123 -26.289013 
L 55.954876 -26.064262 
L 56.174659 -25.839511 
L 56.436697 -25.61476 
L 56.739995 -25.390009 
L 57.082238 -25.165259 
L 57.459705 -24.940508 
L 57.867226 -24.715757 
L 58.298185 -24.491006 
L 58.744571 -24.266256 
L 59.197106 -24.041505 
L 59.645449 -23.816754 
L 60.078466 -23.592003 
L 60.484593 -23.367252 
L 60.852247 -23.142502 
L 61.170297 -22.917751 
L 61.428557 -22.693 
L 61.618277 -22.468249 
L 61.732598 -22.243498 
L 61.766937 -22.018748 
L 61.719277 -21.793997 
L 61.590322 -21.569246 
L 61.383515 -21.344495 
L 61.104897 -21.119745 
L 60.762822 -20.894994 
L 60.367541 -20.670243 
L 59.930688 -20.445492 
L 59.464689 -20.220741 
L 58.982165 -19.995991 
L 58.495342 -19.77124 
L 58.015529 -19.546489 
L 57.552682 -19.321738 
L 57.115091 -19.096988 
L 56.709185 -18.872237 
L 56.339475 -18.647486 
L 56.008608 -18.422735 
L 55.717517 -18.197984 
L 55.465653 -17.973234 
L 55.251258 -17.748483 
L 55.07166 -17.523732 
z
" style="stroke: #444444; stroke-width: 0.15"/>
    </defs>
    <g clip-path="url(#p68c8412b1c)">
     <use xlink:href="#mc7d5dc0ed6" x="0" y="84.96" style="fill: #abc3de; stroke: #444444; stroke-width: 0.15"/>
    </g>
   </g>
   <g id="PolyCollection_4">
    <defs>
     <path id="m1b76451169" d="M 73.369606 -19.945469 
L 72.238569 -19.945469 
L 72.070938 -20.039101 
L 71.866987 -20.132732 
L 71.623088 -20.226364 
L 71.336497 -20.319996 
L 71.005738 -20.413628 
L 70.630978 -20.50726 
L 70.214367 -20.600892 
L 69.760306 -20.694524 
L 69.275584 -20.788156 
L 68.769385 -20.881787 
L 68.253109 -20.975419 
L 67.740023 -21.069051 
L 67.244739 -21.162683 
L 66.782539 -21.256315 
L 66.368603 -21.349947 
L 66.017177 -21.443579 
L 65.740765 -21.537211 
L 65.549385 -21.630843 
L 65.449977 -21.724474 
L 65.445987 -21.818106 
L 65.537184 -21.911738 
L 65.719698 -22.00537 
L 65.986298 -22.099002 
L 66.326859 -22.192634 
L 66.728998 -22.286266 
L 67.178803 -22.379898 
L 67.661618 -22.47353 
L 68.162802 -22.567161 
L 68.668428 -22.660793 
L 69.165874 -22.754425 
L 69.644267 -22.848057 
L 70.094783 -22.941689 
L 70.510783 -23.035321 
L 70.887809 -23.128953 
L 71.223458 -23.222585 
L 71.517157 -23.316217 
L 71.769873 -23.409848 
L 71.98379 -23.50348 
L 72.161974 -23.597112 
L 72.308063 -23.690744 
L 72.425979 -23.784376 
L 72.51969 -23.878008 
L 72.59303 -23.97164 
L 72.649553 -24.065272 
L 72.692457 -24.158903 
L 72.724526 -24.252535 
L 72.748127 -24.346167 
L 72.76522 -24.439799 
L 72.777384 -24.533431 
L 72.785867 -24.627063 
L 72.79162 -24.720695 
L 72.795349 -24.814327 
L 72.79755 -24.907959 
L 72.798544 -25.00159 
L 72.798503 -25.095222 
L 72.797469 -25.188854 
L 72.795366 -25.282486 
L 72.792011 -25.376118 
L 72.78711 -25.46975 
L 72.780266 -25.563382 
L 72.770978 -25.657014 
L 72.758651 -25.750646 
L 72.742606 -25.844277 
L 72.722102 -25.937909 
L 72.696373 -26.031541 
L 72.664669 -26.125173 
L 72.626318 -26.218805 
L 72.580796 -26.312437 
L 72.527795 -26.406069 
L 72.46731 -26.499701 
L 72.399703 -26.593332 
L 72.325762 -26.686964 
L 72.246735 -26.780596 
L 72.164333 -26.874228 
L 72.080695 -26.96786 
L 71.998317 -27.061492 
L 71.919936 -27.155124 
L 71.848394 -27.248756 
L 71.786462 -27.342388 
L 71.73667 -27.436019 
L 71.701132 -27.529651 
L 71.6814 -27.623283 
L 71.678351 -27.716915 
L 71.69212 -27.810547 
L 71.722095 -27.904179 
L 71.766956 -27.997811 
L 71.824777 -28.091443 
L 71.893159 -28.185075 
L 71.969397 -28.278706 
L 72.050656 -28.372338 
L 72.134143 -28.46597 
L 72.217258 -28.559602 
L 72.297725 -28.653234 
L 72.373672 -28.746866 
L 72.443681 -28.840498 
L 72.506802 -28.93413 
L 72.562524 -29.027762 
L 72.610727 -29.121393 
L 72.651619 -29.215025 
L 72.956556 -29.215025 
L 72.956556 -29.215025 
L 72.997448 -29.121393 
L 73.045652 -29.027762 
L 73.101373 -28.93413 
L 73.164494 -28.840498 
L 73.234503 -28.746866 
L 73.31045 -28.653234 
L 73.390917 -28.559602 
L 73.474032 -28.46597 
L 73.557519 -28.372338 
L 73.638778 -28.278706 
L 73.715016 -28.185075 
L 73.783398 -28.091443 
L 73.841219 -27.997811 
L 73.88608 -27.904179 
L 73.916055 -27.810547 
L 73.929824 -27.716915 
L 73.926775 -27.623283 
L 73.907043 -27.529651 
L 73.871505 -27.436019 
L 73.821713 -27.342388 
L 73.759781 -27.248756 
L 73.688239 -27.155124 
L 73.609859 -27.061492 
L 73.52748 -26.96786 
L 73.443842 -26.874228 
L 73.36144 -26.780596 
L 73.282413 -26.686964 
L 73.208472 -26.593332 
L 73.140865 -26.499701 
L 73.08038 -26.406069 
L 73.02738 -26.312437 
L 72.981857 -26.218805 
L 72.943506 -26.125173 
L 72.911803 -26.031541 
L 72.886073 -25.937909 
L 72.865569 -25.844277 
L 72.849524 -25.750646 
L 72.837197 -25.657014 
L 72.82791 -25.563382 
L 72.821065 -25.46975 
L 72.816164 -25.376118 
L 72.812809 -25.282486 
L 72.810706 -25.188854 
L 72.809672 -25.095222 
L 72.809631 -25.00159 
L 72.810625 -24.907959 
L 72.812826 -24.814327 
L 72.816555 -24.720695 
L 72.822309 -24.627063 
L 72.830791 -24.533431 
L 72.842956 -24.439799 
L 72.860048 -24.346167 
L 72.883649 -24.252535 
L 72.915718 -24.158903 
L 72.958622 -24.065272 
L 73.015146 -23.97164 
L 73.088485 -23.878008 
L 73.182197 -23.784376 
L 73.300112 -23.690744 
L 73.446201 -23.597112 
L 73.624386 -23.50348 
L 73.838302 -23.409848 
L 74.091018 -23.316217 
L 74.384717 -23.222585 
L 74.720366 -23.128953 
L 75.097393 -23.035321 
L 75.513392 -22.941689 
L 75.963908 -22.848057 
L 76.442301 -22.754425 
L 76.939747 -22.660793 
L 77.445373 -22.567161 
L 77.946557 -22.47353 
L 78.429372 -22.379898 
L 78.879178 -22.286266 
L 79.281316 -22.192634 
L 79.621877 -22.099002 
L 79.888477 -22.00537 
L 80.070991 -21.911738 
L 80.162188 -21.818106 
L 80.158199 -21.724474 
L 80.05879 -21.630843 
L 79.86741 -21.537211 
L 79.590998 -21.443579 
L 79.239573 -21.349947 
L 78.825636 -21.256315 
L 78.363437 -21.162683 
L 77.868152 -21.069051 
L 77.355067 -20.975419 
L 76.83879 -20.881787 
L 76.332591 -20.788156 
L 75.847869 -20.694524 
L 75.393808 -20.600892 
L 74.977197 -20.50726 
L 74.602437 -20.413628 
L 74.271678 -20.319996 
L 73.985088 -20.226364 
L 73.741189 -20.132732 
L 73.537237 -20.039101 
L 73.369606 -19.945469 
z
" style="stroke: #444444; stroke-width: 0.15"/>
    </defs>
    <g clip-path="url(#p68c8412b1c)">
     <use xlink:href="#m1b76451169" x="0" y="84.96" style="fill: #c447c3; stroke: #444444; stroke-width: 0.15"/>
    </g>
   </g>
   <g id="line2d_9">
    <path d="M 17.618334 63.601733 
L 17.618334 62.868407 
" clip-path="url(#p68c8412b1c)" style="fill: none; stroke: #8c8c8c; stroke-width: 0.75; stroke-linecap: round"/>
   </g>
   <g id="line2d_10">
    <path d="M 17.618334 63.534014 
L 17.618334 63.135852 
" clip-path="url(#p68c8412b1c)" style="fill: none; stroke: #8c8c8c; stroke-width: 4; stroke-linecap: round"/>
   </g>
   <g id="line2d_11">
    <path d="M 17.618334 63.409078 
" clip-path="url(#p68c8412b1c)" style="fill: none; stroke: #444444; stroke-width: 1.2; stroke-linecap: round"/>
    <defs>
     <path id="m2f5ad47030" d="M 0 0.833333 
C 0.221003 0.833333 0.432983 0.745528 0.589256 0.589256 
C 0.745528 0.432983 0.833333 0.221003 0.833333 0 
C 0.833333 -0.221003 0.745528 -0.432983 0.589256 -0.589256 
C 0.432983 -0.745528 0.221003 -0.833333 0 -0.833333 
C -0.221003 -0.833333 -0.432983 -0.745528 -0.589256 -0.589256 
C -0.745528 -0.432983 -0.833333 -0.221003 -0.833333 0 
C -0.833333 0.221003 -0.745528 0.432983 -0.589256 0.589256 
C -0.432983 0.745528 -0.221003 0.833333 0 0.833333 
z
" style="stroke: #ffffff; stroke-width: 0.8"/>
    </defs>
    <g clip-path="url(#p68c8412b1c)">
     <use xlink:href="#m2f5ad47030" x="17.618334" y="63.409078" style="fill: #ffffff; stroke: #ffffff; stroke-width: 0.8"/>
    </g>
   </g>
   <g id="line2d_12">
    <path d="M 36.013585 63.525635 
L 36.013585 57.163627 
" clip-path="url(#p68c8412b1c)" style="fill: none; stroke: #8c8c8c; stroke-width: 0.75; stroke-linecap: round"/>
   </g>
   <g id="line2d_13">
    <path d="M 36.013585 62.25333 
L 36.013585 59.344072 
" clip-path="url(#p68c8412b1c)" style="fill: none; stroke: #8c8c8c; stroke-width: 4; stroke-linecap: round"/>
   </g>
   <g id="line2d_14">
    <path d="M 36.013585 60.970041 
" clip-path="url(#p68c8412b1c)" style="fill: none; stroke: #444444; stroke-width: 1.2; stroke-linecap: round"/>
    <g clip-path="url(#p68c8412b1c)">
     <use xlink:href="#m2f5ad47030" x="36.013585" y="60.970041" style="fill: #ffffff; stroke: #ffffff; stroke-width: 0.8"/>
    </g>
   </g>
   <g id="line2d_15">
    <path d="M 54.408836 63.602556 
L 54.408836 55.338294 
" clip-path="url(#p68c8412b1c)" style="fill: none; stroke: #8c8c8c; stroke-width: 0.75; stroke-linecap: round"/>
   </g>
   <g id="line2d_16">
    <path d="M 54.408836 63.561275 
L 54.408836 59.818592 
" clip-path="url(#p68c8412b1c)" style="fill: none; stroke: #8c8c8c; stroke-width: 4; stroke-linecap: round"/>
   </g>
   <g id="line2d_17">
    <path d="M 54.408836 62.51986 
" clip-path="url(#p68c8412b1c)" style="fill: none; stroke: #444444; stroke-width: 1.2; stroke-linecap: round"/>
    <g clip-path="url(#p68c8412b1c)">
     <use xlink:href="#m2f5ad47030" x="54.408836" y="62.51986" style="fill: #ffffff; stroke: #ffffff; stroke-width: 0.8"/>
    </g>
   </g>
   <g id="line2d_18">
    <path d="M 72.804088 63.486515 
L 72.804088 62.703889 
" clip-path="url(#p68c8412b1c)" style="fill: none; stroke: #8c8c8c; stroke-width: 0.75; stroke-linecap: round"/>
   </g>
   <g id="line2d_19">
    <path d="M 72.804088 63.361578 
L 72.804088 62.792691 
" clip-path="url(#p68c8412b1c)" style="fill: none; stroke: #8c8c8c; stroke-width: 4; stroke-linecap: round"/>
   </g>
   <g id="line2d_20">
    <path d="M 72.804088 63.205052 
" clip-path="url(#p68c8412b1c)" style="fill: none; stroke: #444444; stroke-width: 1.2; stroke-linecap: round"/>
    <g clip-path="url(#p68c8412b1c)">
     <use xlink:href="#m2f5ad47030" x="72.804088" y="63.205052" style="fill: #ffffff; stroke: #ffffff; stroke-width: 0.8"/>
    </g>
   </g>
   <g id="patch_3">
    <path d="M 8.420709 74.419526 
L 8.420709 4.076256 
" style="fill: none; stroke: #777777; stroke-width: 0.5; stroke-linejoin: miter; stroke-linecap: square"/>
   </g>
   <g id="patch_4">
    <path d="M 8.420709 76.919526 
L 82.001713 76.919526 
" style="fill: none; stroke: #777777; stroke-width: 0.5; stroke-linejoin: miter; stroke-linecap: square"/>
   </g>
   <g id="PathCollection_1">
    <defs>
     <path id="m7d372cbe33" d="M 0 0.375 
C 0.099451 0.375 0.194842 0.335488 0.265165 0.265165 
C 0.335488 0.194842 0.375 0.099451 0.375 0 
C 0.375 -0.099451 0.335488 -0.194842 0.265165 -0.265165 
C 0.194842 -0.335488 0.099451 -0.375 0 -0.375 
C -0.099451 -0.375 -0.194842 -0.335488 -0.265165 -0.265165 
C -0.335488 -0.194842 -0.375 -0.099451 -0.375 0 
C -0.375 0.099451 -0.335488 0.194842 -0.265165 0.265165 
C -0.194842 0.335488 -0.099451 0.375 0 0.375 
z
"/>
    </defs>
    <g clip-path="url(#p68c8412b1c)">
     <use xlink:href="#m7d372cbe33" x="17.762444" y="63.430329" style="fill: #642222"/>
     <use xlink:href="#m7d372cbe33" x="19.358858" y="63.601733" style="fill: #642222"/>
     <use xlink:href="#m7d372cbe33" x="17.939517" y="63.55659" style="fill: #642222"/>
     <use xlink:href="#m7d372cbe33" x="18.924511" y="62.868407" style="fill: #642222"/>
     <use xlink:href="#m7d372cbe33" x="16.08326" y="62.926229" style="fill: #642222"/>
     <use xlink:href="#m7d372cbe33" x="16.109575" y="63.387826" style="fill: #642222"/>
     <use xlink:href="#m7d372cbe33" x="19.387924" y="63.205727" style="fill: #642222"/>
     <use xlink:href="#m7d372cbe33" x="16.196322" y="63.526488" style="fill: #642222"/>
    </g>
   </g>
   <g id="PathCollection_2">
    <g clip-path="url(#p68c8412b1c)">
     <use xlink:href="#m7d372cbe33" x="35.11822" y="63.206372" style="fill: #642222"/>
     <use xlink:href="#m7d372cbe33" x="35.28674" y="63.525635" style="fill: #642222"/>
     <use xlink:href="#m7d372cbe33" x="34.286185" y="61.415198" style="fill: #642222"/>
     <use xlink:href="#m7d372cbe33" x="35.419753" y="19.568136" style="fill: #642222"/>
     <use xlink:href="#m7d372cbe33" x="36.107753" y="57.163627" style="fill: #642222"/>
     <use xlink:href="#m7d372cbe33" x="36.294618" y="61.935649" style="fill: #642222"/>
     <use xlink:href="#m7d372cbe33" x="36.473441" y="60.070888" style="fill: #642222"/>
     <use xlink:href="#m7d372cbe33" x="36.790019" y="60.524884" style="fill: #642222"/>
    </g>
   </g>
   <g id="PathCollection_3">
    <g clip-path="url(#p68c8412b1c)">
     <use xlink:href="#m7d372cbe33" x="56.04429" y="63.602556" style="fill: #642222"/>
     <use xlink:href="#m7d372cbe33" x="55.766656" y="63.553723" style="fill: #642222"/>
     <use xlink:href="#m7d372cbe33" x="55.76483" y="61.312025" style="fill: #642222"/>
     <use xlink:href="#m7d372cbe33" x="55.973461" y="49.019652" style="fill: #642222"/>
     <use xlink:href="#m7d372cbe33" x="52.646597" y="55.338294" style="fill: #642222"/>
     <use xlink:href="#m7d372cbe33" x="53.50985" y="62.98293" style="fill: #642222"/>
     <use xlink:href="#m7d372cbe33" x="53.106189" y="63.583934" style="fill: #642222"/>
     <use xlink:href="#m7d372cbe33" x="53.620035" y="62.05679" style="fill: #642222"/>
    </g>
   </g>
   <g id="PathCollection_4">
    <g clip-path="url(#p68c8412b1c)">
     <use xlink:href="#m7d372cbe33" x="72.789116" y="63.105193" style="fill: #642222"/>
     <use xlink:href="#m7d372cbe33" x="72.368976" y="63.486515" style="fill: #642222"/>
     <use xlink:href="#m7d372cbe33" x="74.295506" y="62.822292" style="fill: #642222"/>
     <use xlink:href="#m7d372cbe33" x="74.509774" y="57.272991" style="fill: #642222"/>
     <use xlink:href="#m7d372cbe33" x="72.359162" y="63.328317" style="fill: #642222"/>
     <use xlink:href="#m7d372cbe33" x="73.854529" y="63.304912" style="fill: #642222"/>
     <use xlink:href="#m7d372cbe33" x="71.651582" y="62.703889" style="fill: #642222"/>
     <use xlink:href="#m7d372cbe33" x="72.726918" y="63.461364" style="fill: #642222"/>
    </g>
   </g>
  </g>
  <g id="axes_2">
   <g id="patch_5">
    <path d="M 93.338756 74.419526 
L 166.91976 74.419526 
L 166.91976 4.076256 
L 93.338756 4.076256 
z
" style="fill: #ffffff"/>
   </g>
   <g id="matplotlib.axis_3">
    <g id="xtick_5">
     <g id="text_13">
      <!-- T -->
      <g style="fill: #333333" transform="translate(101.467514 81.230229) scale(0.035 -0.035)">
       <defs>
        <path id="Helvetica-54" d="M 3828 4591 
L 3828 4044 
L 2281 4044 
L 2281 0 
L 1650 0 
L 1650 4044 
L 103 4044 
L 103 4591 
L 3828 4591 
z
" transform="scale(0.015625)"/>
       </defs>
       <use xlink:href="#Helvetica-54"/>
      </g>
     </g>
    </g>
    <g id="xtick_6">
     <g id="text_14">
      <!-- TH1 -->
      <g style="fill: #333333" transform="translate(117.625773 81.230229) scale(0.035 -0.035)">
       <defs>
        <path id="Helvetica-48" d="M 503 4591 
L 1131 4591 
L 1131 2694 
L 3519 2694 
L 3519 4591 
L 4147 4591 
L 4147 0 
L 3519 0 
L 3519 2147 
L 1131 2147 
L 1131 0 
L 503 0 
L 503 4591 
z
" transform="scale(0.015625)"/>
       </defs>
       <use xlink:href="#Helvetica-54"/>
       <use xlink:href="#Helvetica-48" x="61.083984"/>
       <use xlink:href="#Helvetica-31" x="133.300781"/>
      </g>
     </g>
    </g>
    <g id="xtick_7">
     <g id="text_15">
      <!-- TH2 -->
      <g style="fill: #333333" transform="translate(136.021024 81.230229) scale(0.035 -0.035)">
       <use xlink:href="#Helvetica-54"/>
       <use xlink:href="#Helvetica-48" x="61.083984"/>
       <use xlink:href="#Helvetica-32" x="133.300781"/>
      </g>
     </g>
    </g>
    <g id="xtick_8">
     <g id="text_16">
      <!-- TH17 -->
      <g style="fill: #333333" transform="translate(153.443111 81.230229) scale(0.035 -0.035)">
       <defs>
        <path id="Helvetica-37" d="M 3347 4400 
L 3347 3909 
Q 3131 3700 2773 3181 
Q 2416 2663 2141 2063 
Q 1869 1478 1728 997 
Q 1638 688 1494 0 
L 872 0 
Q 1084 1281 1809 2550 
Q 2238 3294 2709 3834 
L 234 3834 
L 234 4400 
L 3347 4400 
z
" transform="scale(0.015625)"/>
       </defs>
       <use xlink:href="#Helvetica-54"/>
       <use xlink:href="#Helvetica-48" x="61.083984"/>
       <use xlink:href="#Helvetica-31" x="133.300781"/>
       <use xlink:href="#Helvetica-37" x="188.916016"/>
      </g>
     </g>
    </g>
   </g>
   <g id="matplotlib.axis_4">
    <g id="ytick_9">
     <g id="line2d_21">
      <g>
       <use xlink:href="#me886b3d1aa" x="93.338756" y="66.995102" style="fill: #777777; stroke: #777777; stroke-width: 0.5"/>
      </g>
     </g>
     <g id="text_17">
      <!-- 0 -->
      <g style="fill: #333333" transform="translate(89.670474 68.071117) scale(0.03 -0.03)">
       <use xlink:href="#Helvetica-30"/>
      </g>
     </g>
    </g>
    <g id="ytick_10">
     <g id="line2d_22">
      <g>
       <use xlink:href="#me886b3d1aa" x="93.338756" y="54.411333" style="fill: #777777; stroke: #777777; stroke-width: 0.5"/>
      </g>
     </g>
     <g id="text_18">
      <!-- 10 -->
      <g style="fill: #333333" transform="translate(88.002193 55.487348) scale(0.03 -0.03)">
       <use xlink:href="#Helvetica-31"/>
       <use xlink:href="#Helvetica-30" x="55.615234"/>
      </g>
     </g>
    </g>
    <g id="ytick_11">
     <g id="line2d_23">
      <g>
       <use xlink:href="#me886b3d1aa" x="93.338756" y="41.827563" style="fill: #777777; stroke: #777777; stroke-width: 0.5"/>
      </g>
     </g>
     <g id="text_19">
      <!-- 20 -->
      <g style="fill: #333333" transform="translate(88.002193 42.903579) scale(0.03 -0.03)">
       <use xlink:href="#Helvetica-32"/>
       <use xlink:href="#Helvetica-30" x="55.615234"/>
      </g>
     </g>
    </g>
    <g id="ytick_12">
     <g id="line2d_24">
      <g>
       <use xlink:href="#me886b3d1aa" x="93.338756" y="29.243794" style="fill: #777777; stroke: #777777; stroke-width: 0.5"/>
      </g>
     </g>
     <g id="text_20">
      <!-- 30 -->
      <g style="fill: #333333" transform="translate(88.002193 30.31981) scale(0.03 -0.03)">
       <use xlink:href="#Helvetica-33"/>
       <use xlink:href="#Helvetica-30" x="55.615234"/>
      </g>
     </g>
    </g>
    <g id="ytick_13">
     <g id="line2d_25">
      <g>
       <use xlink:href="#me886b3d1aa" x="93.338756" y="16.660025" style="fill: #777777; stroke: #777777; stroke-width: 0.5"/>
      </g>
     </g>
     <g id="text_21">
      <!-- 40 -->
      <g style="fill: #333333" transform="translate(88.002193 17.73604) scale(0.03 -0.03)">
       <use xlink:href="#Helvetica-34"/>
       <use xlink:href="#Helvetica-30" x="55.615234"/>
      </g>
     </g>
    </g>
    <g id="ytick_14">
     <g id="line2d_26">
      <g>
       <use xlink:href="#me886b3d1aa" x="93.338756" y="4.076256" style="fill: #777777; stroke: #777777; stroke-width: 0.5"/>
      </g>
     </g>
     <g id="text_22">
      <!-- 50 -->
      <g style="fill: #333333" transform="translate(88.002193 5.152271) scale(0.03 -0.03)">
       <use xlink:href="#Helvetica-35"/>
       <use xlink:href="#Helvetica-30" x="55.615234"/>
      </g>
     </g>
    </g>
   </g>
   <g id="PolyCollection_5">
    <defs>
     <path id="me08fc581d9" d="M 102.753492 -17.637389 
L 102.31927 -17.637389 
L 102.234942 -18.15986 
L 102.127793 -18.682332 
L 101.995656 -19.204803 
L 101.837639 -19.727275 
L 101.654595 -20.249746 
L 101.449489 -20.772218 
L 101.227567 -21.294689 
L 100.996263 -21.817161 
L 100.764795 -22.339632 
L 100.543451 -22.862104 
L 100.342653 -23.384576 
L 100.171881 -23.907047 
L 100.038651 -24.429519 
L 99.947677 -24.95199 
L 99.900374 -25.474462 
L 99.894784 -25.996933 
L 99.925923 -26.519405 
L 99.986508 -27.041876 
L 100.067905 -27.564348 
L 100.161176 -28.086819 
L 100.258016 -28.609291 
L 100.351489 -29.131762 
L 100.436461 -29.654234 
L 100.509708 -30.176706 
L 100.569766 -30.699177 
L 100.616569 -31.221649 
L 100.651 -31.74412 
L 100.674432 -32.266592 
L 100.688345 -32.789063 
L 100.69405 -33.311535 
L 100.692537 -33.834006 
L 100.684429 -34.356478 
L 100.670008 -34.878949 
L 100.649272 -35.401421 
L 100.62198 -35.923893 
L 100.587684 -36.446364 
L 100.545717 -36.968836 
L 100.495166 -37.491307 
L 100.434851 -38.013779 
L 100.363341 -38.53625 
L 100.279023 -39.058722 
L 100.180238 -39.581193 
L 100.065468 -40.103665 
L 99.933533 -40.626136 
L 99.783749 -41.148608 
L 99.616002 -41.671079 
L 99.430689 -42.193551 
L 99.228536 -42.716023 
L 99.010313 -43.238494 
L 98.776543 -43.760966 
L 98.527288 -44.283437 
L 98.262128 -44.805909 
L 97.980421 -45.32838 
L 97.681849 -45.850852 
L 97.3672 -46.373323 
L 97.039266 -46.895795 
L 96.703639 -47.418266 
L 96.369211 -47.940738 
L 96.048169 -48.463209 
L 95.755382 -48.985681 
L 95.507186 -49.508153 
L 95.319673 -50.030624 
L 95.206752 -50.553096 
L 95.178281 -51.075567 
L 95.238585 -51.598039 
L 95.385651 -52.12051 
L 95.611129 -52.642982 
L 95.901174 -53.165453 
L 96.23798 -53.687925 
L 96.601781 -54.210396 
L 96.972994 -54.732868 
L 97.334201 -55.25534 
L 97.671707 -55.777811 
L 97.976508 -56.300283 
L 98.244598 -56.822754 
L 98.47667 -57.345226 
L 98.677314 -57.867697 
L 98.853897 -58.390169 
L 99.015292 -58.91264 
L 99.170635 -59.435112 
L 99.328237 -59.957583 
L 99.494745 -60.480055 
L 99.674608 -61.002526 
L 99.869836 -61.524998 
L 100.080061 -62.04747 
L 100.302811 -62.569941 
L 100.533973 -63.092413 
L 100.768356 -63.614884 
L 101.000279 -64.137356 
L 101.224142 -64.659827 
L 101.434911 -65.182299 
L 101.628486 -65.70477 
L 101.80193 -66.227242 
L 101.953563 -66.749713 
L 102.082918 -67.272185 
L 102.190602 -67.794656 
L 102.278082 -68.317128 
L 102.347431 -68.8396 
L 102.401075 -69.362071 
L 102.671687 -69.362071 
L 102.671687 -69.362071 
L 102.725332 -68.8396 
L 102.79468 -68.317128 
L 102.88216 -67.794656 
L 102.989844 -67.272185 
L 103.1192 -66.749713 
L 103.270832 -66.227242 
L 103.444277 -65.70477 
L 103.637852 -65.182299 
L 103.848621 -64.659827 
L 104.072484 -64.137356 
L 104.304406 -63.614884 
L 104.538789 -63.092413 
L 104.769952 -62.569941 
L 104.992701 -62.04747 
L 105.202926 -61.524998 
L 105.398155 -61.002526 
L 105.578017 -60.480055 
L 105.744526 -59.957583 
L 105.902127 -59.435112 
L 106.057471 -58.91264 
L 106.218866 -58.390169 
L 106.395448 -57.867697 
L 106.596092 -57.345226 
L 106.828164 -56.822754 
L 107.096254 -56.300283 
L 107.401055 -55.777811 
L 107.738562 -55.25534 
L 108.099769 -54.732868 
L 108.470981 -54.210396 
L 108.834782 -53.687925 
L 109.171588 -53.165453 
L 109.461633 -52.642982 
L 109.687112 -52.12051 
L 109.834178 -51.598039 
L 109.894482 -51.075567 
L 109.86601 -50.553096 
L 109.75309 -50.030624 
L 109.565577 -49.508153 
L 109.31738 -48.985681 
L 109.024594 -48.463209 
L 108.703551 -47.940738 
L 108.369123 -47.418266 
L 108.033497 -46.895795 
L 107.705562 -46.373323 
L 107.390914 -45.850852 
L 107.092341 -45.32838 
L 106.810634 -44.805909 
L 106.545475 -44.283437 
L 106.296219 -43.760966 
L 106.062449 -43.238494 
L 105.844227 -42.716023 
L 105.642073 -42.193551 
L 105.45676 -41.671079 
L 105.289013 -41.148608 
L 105.139229 -40.626136 
L 105.007294 -40.103665 
L 104.892524 -39.581193 
L 104.79374 -39.058722 
L 104.709421 -38.53625 
L 104.637911 -38.013779 
L 104.577596 -37.491307 
L 104.527045 -36.968836 
L 104.485078 -36.446364 
L 104.450783 -35.923893 
L 104.423491 -35.401421 
L 104.402754 -34.878949 
L 104.388333 -34.356478 
L 104.380226 -33.834006 
L 104.378713 -33.311535 
L 104.384417 -32.789063 
L 104.398331 -32.266592 
L 104.421763 -31.74412 
L 104.456193 -31.221649 
L 104.502996 -30.699177 
L 104.563054 -30.176706 
L 104.636302 -29.654234 
L 104.721273 -29.131762 
L 104.814747 -28.609291 
L 104.911587 -28.086819 
L 105.004857 -27.564348 
L 105.086255 -27.041876 
L 105.146839 -26.519405 
L 105.177979 -25.996933 
L 105.172388 -25.474462 
L 105.125086 -24.95199 
L 105.034111 -24.429519 
L 104.900881 -23.907047 
L 104.73011 -23.384576 
L 104.529311 -22.862104 
L 104.307968 -22.339632 
L 104.076499 -21.817161 
L 103.845195 -21.294689 
L 103.623273 -20.772218 
L 103.418167 -20.249746 
L 103.235123 -19.727275 
L 103.077106 -19.204803 
L 102.944969 -18.682332 
L 102.83782 -18.15986 
L 102.753492 -17.637389 
z
" style="stroke: #505050; stroke-width: 0.15"/>
    </defs>
    <g clip-path="url(#p2d894e2577)">
     <use xlink:href="#me08fc581d9" x="0" y="84.96" style="fill: #bbba94; stroke: #505050; stroke-width: 0.15"/>
    </g>
   </g>
   <g id="PolyCollection_6">
    <defs>
     <path id="m33353db198" d="M 121.639448 -17.127444 
L 120.223817 -17.127444 
L 120.024249 -17.17908 
L 119.785454 -17.230716 
L 119.504943 -17.282352 
L 119.181578 -17.333988 
L 118.815934 -17.385624 
L 118.410603 -17.43726 
L 117.970381 -17.488896 
L 117.502322 -17.540532 
L 117.015604 -17.592168 
L 116.521205 -17.643804 
L 116.031396 -17.69544 
L 115.559074 -17.747076 
L 115.116984 -17.798712 
L 114.716905 -17.850348 
L 114.368875 -17.901984 
L 114.080528 -17.95362 
L 113.856633 -18.005256 
L 113.698866 -18.056892 
L 113.605863 -18.108528 
L 113.573532 -18.160164 
L 113.595597 -18.2118 
L 113.664313 -18.263436 
L 113.771264 -18.315072 
L 113.908162 -18.366708 
L 114.067548 -18.418344 
L 114.243343 -18.46998 
L 114.43118 -18.521616 
L 114.628512 -18.573252 
L 114.834488 -18.624888 
L 115.049648 -18.676524 
L 115.275479 -18.72816 
L 115.513895 -18.779796 
L 115.766723 -18.831432 
L 116.035234 -18.883068 
L 116.319787 -18.934704 
L 116.619608 -18.98634 
L 116.93271 -19.037976 
L 117.255969 -19.089612 
L 117.585305 -19.141248 
L 117.915963 -19.192884 
L 118.242845 -19.24452 
L 118.560854 -19.296156 
L 118.865212 -19.347792 
L 119.151739 -19.399428 
L 119.417055 -19.451064 
L 119.658704 -19.5027 
L 119.875202 -19.554336 
L 120.06601 -19.605972 
L 120.231443 -19.657608 
L 120.372542 -19.709244 
L 120.490909 -19.76088 
L 120.588536 -19.812516 
L 120.667636 -19.864152 
L 120.73049 -19.915788 
L 120.779305 -19.967424 
L 120.816112 -20.01906 
L 120.84268 -20.070696 
L 120.860459 -20.122332 
L 120.870547 -20.173968 
L 120.873678 -20.225604 
L 120.870226 -20.27724 
L 120.860228 -20.328876 
L 120.843425 -20.380512 
L 120.819313 -20.432148 
L 120.787213 -20.483784 
L 120.74636 -20.53542 
L 120.696001 -20.587056 
L 120.63551 -20.638692 
L 120.564507 -20.690328 
L 120.482981 -20.741964 
L 120.391399 -20.7936 
L 120.290797 -20.845236 
L 120.182841 -20.896872 
L 120.069835 -20.948508 
L 119.954692 -21.000144 
L 119.840832 -21.05178 
L 119.73204 -21.103416 
L 119.632262 -21.155052 
L 119.545381 -21.206688 
L 119.474965 -21.258324 
L 119.424026 -21.30996 
L 119.394805 -21.361596 
L 119.388613 -21.413232 
L 119.40573 -21.464868 
L 119.445384 -21.516504 
L 119.50581 -21.56814 
L 119.584381 -21.619776 
L 119.677796 -21.671412 
L 119.782308 -21.723048 
L 119.893977 -21.774684 
L 120.008905 -21.82632 
L 120.123463 -21.877956 
L 120.234459 -21.929592 
L 120.339269 -21.981228 
L 120.435902 -22.032864 
L 120.52302 -22.0845 
L 120.599901 -22.136136 
L 120.666373 -22.187772 
L 120.72272 -22.239408 
L 121.140545 -22.239408 
L 121.140545 -22.239408 
L 121.196892 -22.187772 
L 121.263363 -22.136136 
L 121.340244 -22.0845 
L 121.427362 -22.032864 
L 121.523996 -21.981228 
L 121.628806 -21.929592 
L 121.739802 -21.877956 
L 121.854359 -21.82632 
L 121.969288 -21.774684 
L 122.080956 -21.723048 
L 122.185469 -21.671412 
L 122.278883 -21.619776 
L 122.357455 -21.56814 
L 122.417881 -21.516504 
L 122.457535 -21.464868 
L 122.474651 -21.413232 
L 122.468459 -21.361596 
L 122.439239 -21.30996 
L 122.388299 -21.258324 
L 122.317883 -21.206688 
L 122.231002 -21.155052 
L 122.131225 -21.103416 
L 122.022432 -21.05178 
L 121.908572 -21.000144 
L 121.793429 -20.948508 
L 121.680424 -20.896872 
L 121.572467 -20.845236 
L 121.471866 -20.7936 
L 121.380284 -20.741964 
L 121.298758 -20.690328 
L 121.227755 -20.638692 
L 121.167264 -20.587056 
L 121.116905 -20.53542 
L 121.076051 -20.483784 
L 121.043951 -20.432148 
L 121.019839 -20.380512 
L 121.003036 -20.328876 
L 120.993039 -20.27724 
L 120.989587 -20.225604 
L 120.992717 -20.173968 
L 121.002806 -20.122332 
L 121.020585 -20.070696 
L 121.047153 -20.01906 
L 121.08396 -19.967424 
L 121.132775 -19.915788 
L 121.195628 -19.864152 
L 121.274729 -19.812516 
L 121.372356 -19.76088 
L 121.490722 -19.709244 
L 121.631821 -19.657608 
L 121.797255 -19.605972 
L 121.988063 -19.554336 
L 122.204561 -19.5027 
L 122.44621 -19.451064 
L 122.711525 -19.399428 
L 122.998053 -19.347792 
L 123.302411 -19.296156 
L 123.620419 -19.24452 
L 123.947302 -19.192884 
L 124.27796 -19.141248 
L 124.607295 -19.089612 
L 124.930554 -19.037976 
L 125.243657 -18.98634 
L 125.543477 -18.934704 
L 125.828031 -18.883068 
L 126.096542 -18.831432 
L 126.349369 -18.779796 
L 126.587786 -18.72816 
L 126.813616 -18.676524 
L 127.028777 -18.624888 
L 127.234753 -18.573252 
L 127.432084 -18.521616 
L 127.619922 -18.46998 
L 127.795717 -18.418344 
L 127.955103 -18.366708 
L 128.092 -18.315072 
L 128.198952 -18.263436 
L 128.267668 -18.2118 
L 128.289733 -18.160164 
L 128.257401 -18.108528 
L 128.164398 -18.056892 
L 128.006632 -18.005256 
L 127.782736 -17.95362 
L 127.494389 -17.901984 
L 127.146359 -17.850348 
L 126.746281 -17.798712 
L 126.30419 -17.747076 
L 125.831868 -17.69544 
L 125.342059 -17.643804 
L 124.84766 -17.592168 
L 124.360942 -17.540532 
L 123.892884 -17.488896 
L 123.452662 -17.43726 
L 123.04733 -17.385624 
L 122.681687 -17.333988 
L 122.358322 -17.282352 
L 122.077811 -17.230716 
L 121.839015 -17.17908 
L 121.639448 -17.127444 
z
" style="stroke: #505050; stroke-width: 0.15"/>
    </defs>
    <g clip-path="url(#p2d894e2577)">
     <use xlink:href="#m33353db198" x="0" y="84.96" style="fill: #e7a980; stroke: #505050; stroke-width: 0.15"/>
    </g>
   </g>
   <g id="PolyCollection_7">
    <defs>
     <path id="mb6bbb0fb68" d="M 139.816894 -14.132095 
L 138.836873 -14.132095 
L 138.709028 -14.341517 
L 138.556218 -14.550939 
L 138.37594 -14.760361 
L 138.166058 -14.969784 
L 137.924977 -15.179206 
L 137.651833 -15.388628 
L 137.346664 -15.59805 
L 137.010569 -15.807472 
L 136.645828 -16.016894 
L 136.255974 -16.226317 
L 135.845804 -16.435739 
L 135.421313 -16.645161 
L 134.989558 -16.854583 
L 134.558445 -17.064005 
L 134.136439 -17.273427 
L 133.732235 -17.48285 
L 133.354374 -17.692272 
L 133.010865 -17.901694 
L 132.708803 -18.111116 
L 132.454042 -18.320538 
L 132.250917 -18.52996 
L 132.102065 -18.739383 
L 132.008331 -18.948805 
L 131.968783 -19.158227 
L 131.980827 -19.367649 
L 132.040412 -19.577071 
L 132.142311 -19.786494 
L 132.280456 -19.995916 
L 132.44829 -20.205338 
L 132.639135 -20.41476 
L 132.846527 -20.624182 
L 133.064508 -20.833604 
L 133.287862 -21.043027 
L 133.512274 -21.252449 
L 133.734415 -21.461871 
L 133.951959 -21.671293 
L 134.163516 -21.880715 
L 134.368518 -22.090137 
L 134.567055 -22.29956 
L 134.759676 -22.508982 
L 134.947175 -22.718404 
L 135.130385 -22.927826 
L 135.309967 -23.137248 
L 135.486252 -23.346671 
L 135.659097 -23.556093 
L 135.827803 -23.765515 
L 135.991079 -23.974937 
L 136.147059 -24.184359 
L 136.293369 -24.393781 
L 136.427237 -24.603204 
L 136.545644 -24.812626 
L 136.645492 -25.022048 
L 136.72379 -25.23147 
L 136.777834 -25.440892 
L 136.805371 -25.650314 
L 136.804745 -25.859737 
L 136.774998 -26.069159 
L 136.715941 -26.278581 
L 136.628178 -26.488003 
L 136.513094 -26.697425 
L 136.372814 -26.906848 
L 136.21013 -27.11627 
L 136.028417 -27.325692 
L 135.831537 -27.535114 
L 135.623749 -27.744536 
L 135.409616 -27.953958 
L 135.193929 -28.163381 
L 134.981625 -28.372803 
L 134.777724 -28.582225 
L 134.587251 -28.791647 
L 134.415154 -29.001069 
L 134.266215 -29.210491 
L 134.144939 -29.419914 
L 134.055422 -29.629336 
L 134.001217 -29.838758 
L 133.985182 -30.04818 
L 134.009337 -30.257602 
L 134.074734 -30.467025 
L 134.181359 -30.676447 
L 134.32807 -30.885869 
L 134.512591 -31.095291 
L 134.731564 -31.304713 
L 134.980651 -31.514135 
L 135.254701 -31.723558 
L 135.547953 -31.93298 
L 135.854281 -32.142402 
L 136.167443 -32.351824 
L 136.481339 -32.561246 
L 136.790247 -32.770668 
L 137.089025 -32.980091 
L 137.373273 -33.189513 
L 137.639441 -33.398935 
L 137.884883 -33.608357 
L 138.107862 -33.817779 
L 138.307506 -34.027202 
L 138.483727 -34.236624 
L 138.637111 -34.446046 
L 138.768792 -34.655468 
L 138.880316 -34.86489 
L 139.773451 -34.86489 
L 139.773451 -34.86489 
L 139.884974 -34.655468 
L 140.016655 -34.446046 
L 140.17004 -34.236624 
L 140.346261 -34.027202 
L 140.545905 -33.817779 
L 140.768884 -33.608357 
L 141.014326 -33.398935 
L 141.280493 -33.189513 
L 141.564742 -32.980091 
L 141.86352 -32.770668 
L 142.172428 -32.561246 
L 142.486324 -32.351824 
L 142.799486 -32.142402 
L 143.105813 -31.93298 
L 143.399066 -31.723558 
L 143.673115 -31.514135 
L 143.922203 -31.304713 
L 144.141175 -31.095291 
L 144.325697 -30.885869 
L 144.472408 -30.676447 
L 144.579032 -30.467025 
L 144.644429 -30.257602 
L 144.668584 -30.04818 
L 144.652549 -29.838758 
L 144.598345 -29.629336 
L 144.508828 -29.419914 
L 144.387551 -29.210491 
L 144.238613 -29.001069 
L 144.066516 -28.791647 
L 143.876042 -28.582225 
L 143.672142 -28.372803 
L 143.459838 -28.163381 
L 143.244151 -27.953958 
L 143.030018 -27.744536 
L 142.82223 -27.535114 
L 142.62535 -27.325692 
L 142.443636 -27.11627 
L 142.280952 -26.906848 
L 142.140672 -26.697425 
L 142.025589 -26.488003 
L 141.937825 -26.278581 
L 141.878768 -26.069159 
L 141.849022 -25.859737 
L 141.848396 -25.650314 
L 141.875933 -25.440892 
L 141.929976 -25.23147 
L 142.008274 -25.022048 
L 142.108123 -24.812626 
L 142.22653 -24.603204 
L 142.360398 -24.393781 
L 142.506708 -24.184359 
L 142.662688 -23.974937 
L 142.825964 -23.765515 
L 142.99467 -23.556093 
L 143.167515 -23.346671 
L 143.343799 -23.137248 
L 143.523382 -22.927826 
L 143.706591 -22.718404 
L 143.894091 -22.508982 
L 144.086712 -22.29956 
L 144.285249 -22.090137 
L 144.490251 -21.880715 
L 144.701808 -21.671293 
L 144.919351 -21.461871 
L 145.141493 -21.252449 
L 145.365905 -21.043027 
L 145.589258 -20.833604 
L 145.80724 -20.624182 
L 146.014632 -20.41476 
L 146.205477 -20.205338 
L 146.373311 -19.995916 
L 146.511455 -19.786494 
L 146.613355 -19.577071 
L 146.67294 -19.367649 
L 146.684984 -19.158227 
L 146.645436 -18.948805 
L 146.551702 -18.739383 
L 146.40285 -18.52996 
L 146.199725 -18.320538 
L 145.944963 -18.111116 
L 145.642902 -17.901694 
L 145.299392 -17.692272 
L 144.921532 -17.48285 
L 144.517327 -17.273427 
L 144.095322 -17.064005 
L 143.664208 -16.854583 
L 143.232454 -16.645161 
L 142.807963 -16.435739 
L 142.397793 -16.226317 
L 142.007939 -16.016894 
L 141.643198 -15.807472 
L 141.307102 -15.59805 
L 141.001933 -15.388628 
L 140.728789 -15.179206 
L 140.487709 -14.969784 
L 140.277826 -14.760361 
L 140.097549 -14.550939 
L 139.944739 -14.341517 
L 139.816894 -14.132095 
z
" style="stroke: #505050; stroke-width: 0.15"/>
    </defs>
    <g clip-path="url(#p2d894e2577)">
     <use xlink:href="#mb6bbb0fb68" x="0" y="84.96" style="fill: #abc3de; stroke: #505050; stroke-width: 0.15"/>
    </g>
   </g>
   <g id="PolyCollection_8">
    <defs>
     <path id="m63d893e81f" d="M 158.390411 -17.785758 
L 157.053858 -17.785758 
L 156.874146 -17.796434 
L 156.659596 -17.80711 
L 156.40742 -17.817786 
L 156.115705 -17.828462 
L 155.783719 -17.839138 
L 155.412207 -17.849814 
L 155.003642 -17.86049 
L 154.562414 -17.871166 
L 154.09493 -17.881842 
L 153.609584 -17.892518 
L 153.116609 -17.903194 
L 152.627774 -17.91387 
L 152.155958 -17.924546 
L 151.714599 -17.935222 
L 151.317058 -17.945898 
L 150.97593 -17.956574 
L 150.70236 -17.96725 
L 150.505406 -17.977926 
L 150.391497 -17.988602 
L 150.364034 -17.999278 
L 150.423164 -18.009954 
L 150.565744 -18.02063 
L 150.785502 -18.031306 
L 151.073377 -18.041982 
L 151.418015 -18.052657 
L 151.806388 -18.063333 
L 152.224477 -18.074009 
L 152.657986 -18.084685 
L 153.09303 -18.095361 
L 153.516759 -18.106037 
L 153.917877 -18.116713 
L 154.28704 -18.127389 
L 154.617114 -18.138065 
L 154.903285 -18.148741 
L 155.143043 -18.159417 
L 155.336038 -18.170093 
L 155.483838 -18.180769 
L 155.58961 -18.191445 
L 155.657757 -18.202121 
L 155.693536 -18.212797 
L 155.702677 -18.223473 
L 155.691032 -18.234149 
L 155.66428 -18.244825 
L 155.627685 -18.255501 
L 155.585928 -18.266177 
L 155.543008 -18.276853 
L 155.502215 -18.287529 
L 155.466159 -18.298205 
L 155.436833 -18.308881 
L 155.415717 -18.319557 
L 155.403881 -18.330233 
L 155.402079 -18.340909 
L 155.410824 -18.351585 
L 155.430436 -18.36226 
L 155.461043 -18.372936 
L 155.502566 -18.383612 
L 155.554665 -18.394288 
L 155.616681 -18.404964 
L 155.687577 -18.41564 
L 155.765893 -18.426316 
L 155.849731 -18.436992 
L 155.936782 -18.447668 
L 156.024388 -18.458344 
L 156.109654 -18.46902 
L 156.189597 -18.479696 
L 156.261318 -18.490372 
L 156.322193 -18.501048 
L 156.370057 -18.511724 
L 156.403375 -18.5224 
L 156.421376 -18.533076 
L 156.424141 -18.543752 
L 156.412637 -18.554428 
L 156.388691 -18.565104 
L 156.354899 -18.57578 
L 156.314489 -18.586456 
L 156.27113 -18.597132 
L 156.228713 -18.607808 
L 156.191112 -18.618484 
L 156.161953 -18.62916 
L 156.144391 -18.639836 
L 156.140933 -18.650512 
L 156.1533 -18.661187 
L 156.182348 -18.671863 
L 156.228051 -18.682539 
L 156.289544 -18.693215 
L 156.365215 -18.703891 
L 156.452846 -18.714567 
L 156.549781 -18.725243 
L 156.653109 -18.735919 
L 156.759849 -18.746595 
L 156.867123 -18.757271 
L 156.972294 -18.767947 
L 157.073089 -18.778623 
L 157.167665 -18.789299 
L 157.25465 -18.799975 
L 157.333147 -18.810651 
L 157.402703 -18.821327 
L 157.463259 -18.832003 
L 157.515087 -18.842679 
L 157.929182 -18.842679 
L 157.929182 -18.842679 
L 157.981009 -18.832003 
L 158.041566 -18.821327 
L 158.111122 -18.810651 
L 158.189619 -18.799975 
L 158.276604 -18.789299 
L 158.37118 -18.778623 
L 158.471974 -18.767947 
L 158.577146 -18.757271 
L 158.68442 -18.746595 
L 158.79116 -18.735919 
L 158.894488 -18.725243 
L 158.991423 -18.714567 
L 159.079054 -18.703891 
L 159.154725 -18.693215 
L 159.216218 -18.682539 
L 159.261921 -18.671863 
L 159.290969 -18.661187 
L 159.303336 -18.650512 
L 159.299878 -18.639836 
L 159.282316 -18.62916 
L 159.253157 -18.618484 
L 159.215556 -18.607808 
L 159.173139 -18.597132 
L 159.12978 -18.586456 
L 159.08937 -18.57578 
L 159.055578 -18.565104 
L 159.031631 -18.554428 
L 159.020128 -18.543752 
L 159.022893 -18.533076 
L 159.040894 -18.5224 
L 159.074212 -18.511724 
L 159.122076 -18.501048 
L 159.18295 -18.490372 
L 159.254672 -18.479696 
L 159.334615 -18.46902 
L 159.419881 -18.458344 
L 159.507487 -18.447668 
L 159.594538 -18.436992 
L 159.678376 -18.426316 
L 159.756692 -18.41564 
L 159.827588 -18.404964 
L 159.889604 -18.394288 
L 159.941703 -18.383612 
L 159.983226 -18.372936 
L 160.013833 -18.36226 
L 160.033445 -18.351585 
L 160.04219 -18.340909 
L 160.040388 -18.330233 
L 160.028552 -18.319557 
L 160.007436 -18.308881 
L 159.97811 -18.298205 
L 159.942054 -18.287529 
L 159.901261 -18.276853 
L 159.858341 -18.266177 
L 159.816584 -18.255501 
L 159.779989 -18.244825 
L 159.753237 -18.234149 
L 159.741592 -18.223473 
L 159.750733 -18.212797 
L 159.786512 -18.202121 
L 159.854659 -18.191445 
L 159.960431 -18.180769 
L 160.108231 -18.170093 
L 160.301226 -18.159417 
L 160.540984 -18.148741 
L 160.827155 -18.138065 
L 161.157228 -18.127389 
L 161.526392 -18.116713 
L 161.92751 -18.106037 
L 162.351239 -18.095361 
L 162.786283 -18.084685 
L 163.219792 -18.074009 
L 163.637881 -18.063333 
L 164.026253 -18.052657 
L 164.370892 -18.041982 
L 164.658767 -18.031306 
L 164.878525 -18.02063 
L 165.021105 -18.009954 
L 165.080235 -17.999278 
L 165.052772 -17.988602 
L 164.938862 -17.977926 
L 164.741909 -17.96725 
L 164.468339 -17.956574 
L 164.127211 -17.945898 
L 163.72967 -17.935222 
L 163.288311 -17.924546 
L 162.816495 -17.91387 
L 162.32766 -17.903194 
L 161.834685 -17.892518 
L 161.349339 -17.881842 
L 160.881855 -17.871166 
L 160.440627 -17.86049 
L 160.032062 -17.849814 
L 159.660549 -17.839138 
L 159.328564 -17.828462 
L 159.036849 -17.817786 
L 158.784672 -17.80711 
L 158.570122 -17.796434 
L 158.390411 -17.785758 
z
" style="stroke: #505050; stroke-width: 0.15"/>
    </defs>
    <g clip-path="url(#p2d894e2577)">
     <use xlink:href="#m63d893e81f" x="0" y="84.96" style="fill: #c447c3; stroke: #505050; stroke-width: 0.15"/>
    </g>
   </g>
   <g id="line2d_27">
    <path d="M 102.536381 60.70274 
L 102.536381 22.2178 
" clip-path="url(#p2d894e2577)" style="fill: none; stroke: #8c8c8c; stroke-width: 0.75; stroke-linecap: round"/>
   </g>
   <g id="line2d_28">
    <path d="M 102.536381 45.463219 
L 102.536381 32.710142 
" clip-path="url(#p2d894e2577)" style="fill: none; stroke: #8c8c8c; stroke-width: 4; stroke-linecap: round"/>
   </g>
   <g id="line2d_29">
    <path d="M 102.536381 35.069968 
" clip-path="url(#p2d894e2577)" style="fill: none; stroke: #505050; stroke-width: 1.2; stroke-linecap: round"/>
    <g clip-path="url(#p2d894e2577)">
     <use xlink:href="#m2f5ad47030" x="102.536381" y="35.069968" style="fill: #ffffff; stroke: #ffffff; stroke-width: 0.8"/>
    </g>
   </g>
   <g id="line2d_30">
    <path d="M 120.931632 66.994244 
L 120.931632 65.949347 
" clip-path="url(#p2d894e2577)" style="fill: none; stroke: #8c8c8c; stroke-width: 0.75; stroke-linecap: round"/>
   </g>
   <g id="line2d_31">
    <path d="M 120.931632 66.9747 
L 120.931632 66.128787 
" clip-path="url(#p2d894e2577)" style="fill: none; stroke: #8c8c8c; stroke-width: 4; stroke-linecap: round"/>
   </g>
   <g id="line2d_32">
    <path d="M 120.931632 66.613983 
" clip-path="url(#p2d894e2577)" style="fill: none; stroke: #505050; stroke-width: 1.2; stroke-linecap: round"/>
    <g clip-path="url(#p2d894e2577)">
     <use xlink:href="#m2f5ad47030" x="120.931632" y="66.613983" style="fill: #ffffff; stroke: #ffffff; stroke-width: 0.8"/>
    </g>
   </g>
   <g id="line2d_33">
    <path d="M 139.326883 66.94251 
L 139.326883 53.980505 
" clip-path="url(#p2d894e2577)" style="fill: none; stroke: #8c8c8c; stroke-width: 0.75; stroke-linecap: round"/>
   </g>
   <g id="line2d_34">
    <path d="M 139.326883 65.974494 
L 139.326883 56.253329 
" clip-path="url(#p2d894e2577)" style="fill: none; stroke: #8c8c8c; stroke-width: 4; stroke-linecap: round"/>
   </g>
   <g id="line2d_35">
    <path d="M 139.326883 62.495082 
" clip-path="url(#p2d894e2577)" style="fill: none; stroke: #505050; stroke-width: 1.2; stroke-linecap: round"/>
    <g clip-path="url(#p2d894e2577)">
     <use xlink:href="#m2f5ad47030" x="139.326883" y="62.495082" style="fill: #ffffff; stroke: #ffffff; stroke-width: 0.8"/>
    </g>
   </g>
   <g id="line2d_36">
    <path d="M 157.722134 66.988537 
L 157.722134 66.303026 
" clip-path="url(#p2d894e2577)" style="fill: none; stroke: #8c8c8c; stroke-width: 0.75; stroke-linecap: round"/>
   </g>
   <g id="line2d_37">
    <path d="M 157.722134 66.977411 
L 157.722134 66.654069 
" clip-path="url(#p2d894e2577)" style="fill: none; stroke: #8c8c8c; stroke-width: 4; stroke-linecap: round"/>
   </g>
   <g id="line2d_38">
    <path d="M 157.722134 66.931925 
" clip-path="url(#p2d894e2577)" style="fill: none; stroke: #505050; stroke-width: 1.2; stroke-linecap: round"/>
    <g clip-path="url(#p2d894e2577)">
     <use xlink:href="#m2f5ad47030" x="157.722134" y="66.931925" style="fill: #ffffff; stroke: #ffffff; stroke-width: 0.8"/>
    </g>
   </g>
   <g id="patch_6">
    <path d="M 93.338756 74.419526 
L 93.338756 4.076256 
" style="fill: none; stroke: #777777; stroke-width: 0.5; stroke-linejoin: miter; stroke-linecap: square"/>
   </g>
   <g id="patch_7">
    <path d="M 93.338756 76.919526 
L 166.91976 76.919526 
" style="fill: none; stroke: #777777; stroke-width: 0.5; stroke-linejoin: miter; stroke-linecap: square"/>
   </g>
   <g id="PathCollection_5">
    <g clip-path="url(#p2d894e2577)">
     <use xlink:href="#m7d372cbe33" x="103.89936" y="59.954643" style="fill: #642222"/>
     <use xlink:href="#m7d372cbe33" x="103.908483" y="32.894215" style="fill: #642222"/>
     <use xlink:href="#m7d372cbe33" x="101.642416" y="34.058798" style="fill: #642222"/>
     <use xlink:href="#m7d372cbe33" x="104.195846" y="24.671761" style="fill: #642222"/>
     <use xlink:href="#m7d372cbe33" x="102.464274" y="25.378273" style="fill: #642222"/>
     <use xlink:href="#m7d372cbe33" x="103.137404" y="41.416444" style="fill: #642222"/>
     <use xlink:href="#m7d372cbe33" x="101.125584" y="37.463483" style="fill: #642222"/>
     <use xlink:href="#m7d372cbe33" x="103.264238" y="27.741014" style="fill: #642222"/>
     <use xlink:href="#m7d372cbe33" x="103.570974" y="59.398865" style="fill: #642222"/>
     <use xlink:href="#m7d372cbe33" x="103.011342" y="39.829429" style="fill: #642222"/>
     <use xlink:href="#m7d372cbe33" x="101.603732" y="32.767404" style="fill: #642222"/>
     <use xlink:href="#m7d372cbe33" x="103.820834" y="29.567266" style="fill: #642222"/>
     <use xlink:href="#m7d372cbe33" x="103.225412" y="34.878829" style="fill: #642222"/>
     <use xlink:href="#m7d372cbe33" x="102.043783" y="54.919213" style="fill: #642222"/>
     <use xlink:href="#m7d372cbe33" x="101.126769" y="22.2178" style="fill: #642222"/>
     <use xlink:href="#m7d372cbe33" x="103.659856" y="35.261107" style="fill: #642222"/>
     <use xlink:href="#m7d372cbe33" x="103.521493" y="60.70274" style="fill: #642222"/>
     <use xlink:href="#m7d372cbe33" x="101.944113" y="39.627956" style="fill: #642222"/>
     <use xlink:href="#m7d372cbe33" x="103.171524" y="47.66383" style="fill: #642222"/>
     <use xlink:href="#m7d372cbe33" x="102.323808" y="33.224749" style="fill: #642222"/>
     <use xlink:href="#m7d372cbe33" x="101.775196" y="34.204152" style="fill: #642222"/>
     <use xlink:href="#m7d372cbe33" x="104.059188" y="51.455766" style="fill: #642222"/>
     <use xlink:href="#m7d372cbe33" x="102.294296" y="44.729683" style="fill: #642222"/>
     <use xlink:href="#m7d372cbe33" x="103.367977" y="32.538354" style="fill: #642222"/>
    </g>
   </g>
   <g id="PathCollection_6">
    <g clip-path="url(#p2d894e2577)">
     <use xlink:href="#m7d372cbe33" x="122.524123" y="66.986096" style="fill: #642222"/>
     <use xlink:href="#m7d372cbe33" x="121.088887" y="66.994244" style="fill: #642222"/>
     <use xlink:href="#m7d372cbe33" x="119.120483" y="66.864635" style="fill: #642222"/>
     <use xlink:href="#m7d372cbe33" x="120.0323" y="65.949347" style="fill: #642222"/>
     <use xlink:href="#m7d372cbe33" x="119.223404" y="63.558905" style="fill: #642222"/>
     <use xlink:href="#m7d372cbe33" x="122.605314" y="66.970902" style="fill: #642222"/>
     <use xlink:href="#m7d372cbe33" x="120.047988" y="66.363332" style="fill: #642222"/>
     <use xlink:href="#m7d372cbe33" x="119.270034" y="66.1886" style="fill: #642222"/>
    </g>
   </g>
   <g id="PathCollection_7">
    <g clip-path="url(#p2d894e2577)">
     <use xlink:href="#m7d372cbe33" x="138.670855" y="66.94251" style="fill: #642222"/>
     <use xlink:href="#m7d372cbe33" x="139.873821" y="65.938551" style="fill: #642222"/>
     <use xlink:href="#m7d372cbe33" x="139.489859" y="54.563507" style="fill: #642222"/>
     <use xlink:href="#m7d372cbe33" x="139.120334" y="61.343844" style="fill: #642222"/>
     <use xlink:href="#m7d372cbe33" x="138.668886" y="53.980505" style="fill: #642222"/>
     <use xlink:href="#m7d372cbe33" x="139.960762" y="66.082324" style="fill: #642222"/>
     <use xlink:href="#m7d372cbe33" x="140.312594" y="63.64632" style="fill: #642222"/>
     <use xlink:href="#m7d372cbe33" x="141.015324" y="56.816603" style="fill: #642222"/>
    </g>
   </g>
   <g id="PathCollection_8">
    <g clip-path="url(#p2d894e2577)">
     <use xlink:href="#m7d372cbe33" x="157.891152" y="66.988531" style="fill: #642222"/>
     <use xlink:href="#m7d372cbe33" x="158.405801" y="66.973704" style="fill: #642222"/>
     <use xlink:href="#m7d372cbe33" x="157.7897" y="66.920841" style="fill: #642222"/>
     <use xlink:href="#m7d372cbe33" x="158.062459" y="66.303026" style="fill: #642222"/>
     <use xlink:href="#m7d372cbe33" x="158.976209" y="66.549022" style="fill: #642222"/>
     <use xlink:href="#m7d372cbe33" x="158.90116" y="66.988537" style="fill: #642222"/>
     <use xlink:href="#m7d372cbe33" x="156.329861" y="66.689085" style="fill: #642222"/>
     <use xlink:href="#m7d372cbe33" x="157.99443" y="66.943009" style="fill: #642222"/>
    </g>
   </g>
  </g>
 </g>
 <defs>
  <clipPath id="p68c8412b1c">
   <rect x="8.420709" y="4.076256" width="73.581004" height="70.34327"/>
  </clipPath>
  <clipPath id="p2d894e2577">
   <rect x="93.338756" y="4.076256" width="73.581004" height="70.34327"/>
  </clipPath>
 </defs>
</svg>
