<?xml version="1.0" encoding="utf-8" standalone="no"?>
<!DOCTYPE svg PUBLIC "-//W3C//DTD SVG 1.1//EN"
  "http://www.w3.org/Graphics/SVG/1.1/DTD/svg11.dtd">
<svg xmlns:xlink="http://www.w3.org/1999/xlink" width="84.96pt" height="84.96pt" viewBox="0 0 84.96 84.96" xmlns="http://www.w3.org/2000/svg" version="1.1">
 <metadata>
  <rdf:RDF xmlns:dc="http://purl.org/dc/elements/1.1/" xmlns:cc="http://creativecommons.org/ns#" xmlns:rdf="http://www.w3.org/1999/02/22-rdf-syntax-ns#">
   <cc:Work>
    <dc:type rdf:resource="http://purl.org/dc/dcmitype/StillImage"/>
    <dc:date>2024-05-27T15:37:05.633580</dc:date>
    <dc:format>image/svg+xml</dc:format>
    <dc:creator>
     <cc:Agent>
      <dc:title>Matplotlib v3.8.3, https://matplotlib.org/</dc:title>
     </cc:Agent>
    </dc:creator>
   </cc:Work>
  </rdf:RDF>
 </metadata>
 <defs>
  <style type="text/css">*{stroke-linejoin: round; stroke-linecap: butt}</style>
 </defs>
 <g id="figure_1">
  <g id="patch_1">
   <path d="M 0 84.96 
L 84.96 84.96 
L 84.96 0 
L 0 0 
z
" style="fill: #ffffff"/>
  </g>
  <g id="axes_1">
   <g id="patch_2">
    <path d="M 8.336802 74.419526 
L 81.95976 74.419526 
L 81.95976 4.076256 
L 8.336802 4.076256 
z
" style="fill: #ffffff"/>
   </g>
   <g id="matplotlib.axis_1">
    <g id="xtick_1">
     <g id="text_1">
      <!-- B -->
      <g style="fill: #333333" transform="translate(19.439991 81.230229) scale(0.035 -0.035)">
       <defs>
        <path id="Helvetica-42" d="M 2213 2650 
Q 2606 2650 2825 2759 
Q 3169 2931 3169 3378 
Q 3169 3828 2803 3984 
Q 2597 4072 2191 4072 
L 1081 4072 
L 1081 2650 
L 2213 2650 
z
M 2422 531 
Q 2994 531 3238 863 
Q 3391 1072 3391 1369 
Q 3391 1869 2944 2050 
Q 2706 2147 2316 2147 
L 1081 2147 
L 1081 531 
L 2422 531 
z
M 472 4591 
L 2444 4591 
Q 3250 4591 3591 4109 
Q 3791 3825 3791 3453 
Q 3791 3019 3544 2741 
Q 3416 2594 3175 2472 
Q 3528 2338 3703 2169 
Q 4013 1869 4013 1341 
Q 4013 897 3734 538 
Q 3319 0 2413 0 
L 472 0 
L 472 4591 
z
" transform="scale(0.015625)"/>
       </defs>
       <use xlink:href="#Helvetica-42"/>
      </g>
     </g>
    </g>
    <g id="xtick_2">
     <g id="text_2">
      <!-- T -->
      <g style="fill: #333333" transform="translate(44.079414 81.230229) scale(0.035 -0.035)">
       <defs>
        <path id="Helvetica-54" d="M 3828 4591 
L 3828 4044 
L 2281 4044 
L 2281 0 
L 1650 0 
L 1650 4044 
L 103 4044 
L 103 4591 
L 3828 4591 
z
" transform="scale(0.015625)"/>
       </defs>
       <use xlink:href="#Helvetica-54"/>
      </g>
     </g>
    </g>
    <g id="xtick_3">
     <g id="text_3">
      <!-- IL7R Non B/T -->
      <g style="fill: #333333" transform="translate(59.088095 81.230229) scale(0.035 -0.035)">
       <defs>
        <path id="Helvetica-49" d="M 628 4591 
L 1256 4591 
L 1256 0 
L 628 0 
L 628 4591 
z
" transform="scale(0.015625)"/>
        <path id="Helvetica-4c" d="M 488 4591 
L 1109 4591 
L 1109 547 
L 3434 547 
L 3434 0 
L 488 0 
L 488 4591 
z
" transform="scale(0.015625)"/>
        <path id="Helvetica-37" d="M 3347 4400 
L 3347 3909 
Q 3131 3700 2773 3181 
Q 2416 2663 2141 2063 
Q 1869 1478 1728 997 
Q 1638 688 1494 0 
L 872 0 
Q 1084 1281 1809 2550 
Q 2238 3294 2709 3834 
L 234 3834 
L 234 4400 
L 3347 4400 
z
" transform="scale(0.015625)"/>
        <path id="Helvetica-52" d="M 2622 2488 
Q 3059 2488 3314 2663 
Q 3569 2838 3569 3294 
Q 3569 3784 3213 3963 
Q 3022 4056 2703 4056 
L 1184 4056 
L 1184 2488 
L 2622 2488 
z
M 563 4591 
L 2688 4591 
Q 3213 4591 3553 4438 
Q 4200 4144 4200 3353 
Q 4200 2941 4029 2678 
Q 3859 2416 3553 2256 
Q 3822 2147 3958 1969 
Q 4094 1791 4109 1391 
L 4131 775 
Q 4141 513 4175 384 
Q 4231 166 4375 103 
L 4375 0 
L 3613 0 
Q 3581 59 3562 153 
Q 3544 247 3531 516 
L 3494 1281 
Q 3472 1731 3159 1884 
Q 2981 1969 2600 1969 
L 1184 1969 
L 1184 0 
L 563 0 
L 563 4591 
z
" transform="scale(0.015625)"/>
        <path id="Helvetica-20" transform="scale(0.015625)"/>
        <path id="Helvetica-4e" d="M 488 4591 
L 1222 4591 
L 3541 872 
L 3541 4591 
L 4131 4591 
L 4131 0 
L 3434 0 
L 1081 3716 
L 1081 0 
L 488 0 
L 488 4591 
z
M 2269 4591 
L 2269 4591 
z
" transform="scale(0.015625)"/>
        <path id="Helvetica-6f" d="M 1741 363 
Q 2300 363 2508 786 
Q 2716 1209 2716 1728 
Q 2716 2197 2566 2491 
Q 2328 2953 1747 2953 
Q 1231 2953 997 2559 
Q 763 2166 763 1609 
Q 763 1075 997 719 
Q 1231 363 1741 363 
z
M 1763 3444 
Q 2409 3444 2856 3012 
Q 3303 2581 3303 1744 
Q 3303 934 2909 406 
Q 2516 -122 1688 -122 
Q 997 -122 590 345 
Q 184 813 184 1600 
Q 184 2444 612 2944 
Q 1041 3444 1763 3444 
z
M 1744 3428 
L 1744 3428 
z
" transform="scale(0.015625)"/>
        <path id="Helvetica-6e" d="M 413 3347 
L 947 3347 
L 947 2872 
Q 1184 3166 1450 3294 
Q 1716 3422 2041 3422 
Q 2753 3422 3003 2925 
Q 3141 2653 3141 2147 
L 3141 0 
L 2569 0 
L 2569 2109 
Q 2569 2416 2478 2603 
Q 2328 2916 1934 2916 
Q 1734 2916 1606 2875 
Q 1375 2806 1200 2600 
Q 1059 2434 1017 2257 
Q 975 2081 975 1753 
L 975 0 
L 413 0 
L 413 3347 
z
M 1734 3428 
L 1734 3428 
z
" transform="scale(0.015625)"/>
        <path id="Helvetica-2f" d="M 1456 4591 
L 1931 4591 
L 475 0 
L 0 0 
L 1456 4591 
z
" transform="scale(0.015625)"/>
       </defs>
       <use xlink:href="#Helvetica-49"/>
       <use xlink:href="#Helvetica-4c" x="27.783203"/>
       <use xlink:href="#Helvetica-37" x="83.398438"/>
       <use xlink:href="#Helvetica-52" x="139.013672"/>
       <use xlink:href="#Helvetica-20" x="211.230469"/>
       <use xlink:href="#Helvetica-4e" x="239.013672"/>
       <use xlink:href="#Helvetica-6f" x="311.230469"/>
       <use xlink:href="#Helvetica-6e" x="366.845703"/>
       <use xlink:href="#Helvetica-20" x="422.460938"/>
       <use xlink:href="#Helvetica-42" x="450.244141"/>
       <use xlink:href="#Helvetica-2f" x="516.943359"/>
       <use xlink:href="#Helvetica-54" x="544.726562"/>
      </g>
     </g>
    </g>
   </g>
   <g id="matplotlib.axis_2">
    <g id="ytick_1">
     <g id="line2d_1">
      <defs>
       <path id="m458bc4dd07" d="M 0 0 
L -1 0 
" style="stroke: #777777; stroke-width: 0.5"/>
      </defs>
      <g>
       <use xlink:href="#m458bc4dd07" x="8.336802" y="66.673159" style="fill: #777777; stroke: #777777; stroke-width: 0.5"/>
      </g>
     </g>
     <g id="text_4">
      <!-- 0 -->
      <g style="fill: #333333" transform="translate(4.668521 67.749174) scale(0.03 -0.03)">
       <defs>
        <path id="Helvetica-30" d="M 1731 4475 
Q 2600 4475 2988 3759 
Q 3288 3206 3288 2244 
Q 3288 1331 3016 734 
Q 2622 -122 1728 -122 
Q 922 -122 528 578 
Q 200 1163 200 2147 
Q 200 2909 397 3456 
Q 766 4475 1731 4475 
z
M 1725 391 
Q 2163 391 2422 778 
Q 2681 1166 2681 2222 
Q 2681 2984 2493 3476 
Q 2306 3969 1766 3969 
Q 1269 3969 1039 3501 
Q 809 3034 809 2125 
Q 809 1441 956 1025 
Q 1181 391 1725 391 
z
" transform="scale(0.015625)"/>
       </defs>
       <use xlink:href="#Helvetica-30"/>
      </g>
     </g>
    </g>
    <g id="ytick_2">
     <g id="line2d_2">
      <g>
       <use xlink:href="#m458bc4dd07" x="8.336802" y="58.848546" style="fill: #777777; stroke: #777777; stroke-width: 0.5"/>
      </g>
     </g>
     <g id="text_5">
      <!-- 10 -->
      <g style="fill: #333333" transform="translate(3.00024 59.924562) scale(0.03 -0.03)">
       <defs>
        <path id="Helvetica-31" d="M 613 3169 
L 613 3600 
Q 1222 3659 1462 3798 
Q 1703 3938 1822 4456 
L 2266 4456 
L 2266 0 
L 1666 0 
L 1666 3169 
L 613 3169 
z
" transform="scale(0.015625)"/>
       </defs>
       <use xlink:href="#Helvetica-31"/>
       <use xlink:href="#Helvetica-30" x="55.615234"/>
      </g>
     </g>
    </g>
    <g id="ytick_3">
     <g id="line2d_3">
      <g>
       <use xlink:href="#m458bc4dd07" x="8.336802" y="51.023933" style="fill: #777777; stroke: #777777; stroke-width: 0.5"/>
      </g>
     </g>
     <g id="text_6">
      <!-- 20 -->
      <g style="fill: #333333" transform="translate(3.00024 52.099949) scale(0.03 -0.03)">
       <defs>
        <path id="Helvetica-32" d="M 200 0 
Q 231 578 439 1006 
Q 647 1434 1250 1784 
L 1850 2131 
Q 2253 2366 2416 2531 
Q 2672 2791 2672 3125 
Q 2672 3516 2437 3745 
Q 2203 3975 1813 3975 
Q 1234 3975 1013 3538 
Q 894 3303 881 2888 
L 309 2888 
Q 319 3472 525 3841 
Q 891 4491 1816 4491 
Q 2584 4491 2939 4075 
Q 3294 3659 3294 3150 
Q 3294 2613 2916 2231 
Q 2697 2009 2131 1694 
L 1703 1456 
Q 1397 1288 1222 1134 
Q 909 863 828 531 
L 3272 531 
L 3272 0 
L 200 0 
z
" transform="scale(0.015625)"/>
       </defs>
       <use xlink:href="#Helvetica-32"/>
       <use xlink:href="#Helvetica-30" x="55.615234"/>
      </g>
     </g>
    </g>
    <g id="ytick_4">
     <g id="line2d_4">
      <g>
       <use xlink:href="#m458bc4dd07" x="8.336802" y="43.19932" style="fill: #777777; stroke: #777777; stroke-width: 0.5"/>
      </g>
     </g>
     <g id="text_7">
      <!-- 30 -->
      <g style="fill: #333333" transform="translate(3.00024 44.275336) scale(0.03 -0.03)">
       <defs>
        <path id="Helvetica-33" d="M 1663 -122 
Q 869 -122 511 314 
Q 153 750 153 1375 
L 741 1375 
Q 778 941 903 744 
Q 1122 391 1694 391 
Q 2138 391 2406 628 
Q 2675 866 2675 1241 
Q 2675 1703 2392 1887 
Q 2109 2072 1606 2072 
Q 1550 2072 1492 2070 
Q 1434 2069 1375 2066 
L 1375 2563 
Q 1463 2553 1522 2550 
Q 1581 2547 1650 2547 
Q 1966 2547 2169 2647 
Q 2525 2822 2525 3272 
Q 2525 3606 2287 3787 
Q 2050 3969 1734 3969 
Q 1172 3969 956 3594 
Q 838 3388 822 3006 
L 266 3006 
Q 266 3506 466 3856 
Q 809 4481 1675 4481 
Q 2359 4481 2734 4176 
Q 3109 3872 3109 3294 
Q 3109 2881 2888 2625 
Q 2750 2466 2531 2375 
Q 2884 2278 3082 2001 
Q 3281 1725 3281 1325 
Q 3281 684 2859 281 
Q 2438 -122 1663 -122 
z
" transform="scale(0.015625)"/>
       </defs>
       <use xlink:href="#Helvetica-33"/>
       <use xlink:href="#Helvetica-30" x="55.615234"/>
      </g>
     </g>
    </g>
    <g id="ytick_5">
     <g id="line2d_5">
      <g>
       <use xlink:href="#m458bc4dd07" x="8.336802" y="35.374707" style="fill: #777777; stroke: #777777; stroke-width: 0.5"/>
      </g>
     </g>
     <g id="text_8">
      <!-- 40 -->
      <g style="fill: #333333" transform="translate(3.00024 36.450723) scale(0.03 -0.03)">
       <defs>
        <path id="Helvetica-34" d="M 2116 1584 
L 2116 3613 
L 681 1584 
L 2116 1584 
z
M 2125 0 
L 2125 1094 
L 163 1094 
L 163 1644 
L 2213 4488 
L 2688 4488 
L 2688 1584 
L 3347 1584 
L 3347 1094 
L 2688 1094 
L 2688 0 
L 2125 0 
z
" transform="scale(0.015625)"/>
       </defs>
       <use xlink:href="#Helvetica-34"/>
       <use xlink:href="#Helvetica-30" x="55.615234"/>
      </g>
     </g>
    </g>
    <g id="ytick_6">
     <g id="line2d_6">
      <g>
       <use xlink:href="#m458bc4dd07" x="8.336802" y="27.550094" style="fill: #777777; stroke: #777777; stroke-width: 0.5"/>
      </g>
     </g>
     <g id="text_9">
      <!-- 50 -->
      <g style="fill: #333333" transform="translate(3.00024 28.62611) scale(0.03 -0.03)">
       <defs>
        <path id="Helvetica-35" d="M 791 1141 
Q 847 659 1238 475 
Q 1438 381 1700 381 
Q 2200 381 2440 700 
Q 2681 1019 2681 1406 
Q 2681 1875 2395 2131 
Q 2109 2388 1709 2388 
Q 1419 2388 1211 2275 
Q 1003 2163 856 1963 
L 369 1991 
L 709 4400 
L 3034 4400 
L 3034 3856 
L 1131 3856 
L 941 2613 
Q 1097 2731 1238 2791 
Q 1488 2894 1816 2894 
Q 2431 2894 2859 2497 
Q 3288 2100 3288 1491 
Q 3288 856 2895 371 
Q 2503 -113 1644 -113 
Q 1097 -113 676 195 
Q 256 503 206 1141 
L 791 1141 
z
" transform="scale(0.015625)"/>
       </defs>
       <use xlink:href="#Helvetica-35"/>
       <use xlink:href="#Helvetica-30" x="55.615234"/>
      </g>
     </g>
    </g>
    <g id="ytick_7">
     <g id="line2d_7">
      <g>
       <use xlink:href="#m458bc4dd07" x="8.336802" y="19.725481" style="fill: #777777; stroke: #777777; stroke-width: 0.5"/>
      </g>
     </g>
     <g id="text_10">
      <!-- 60 -->
      <g style="fill: #333333" transform="translate(3.00024 20.801497) scale(0.03 -0.03)">
       <defs>
        <path id="Helvetica-36" d="M 1872 4494 
Q 2622 4494 2917 4105 
Q 3213 3716 3213 3303 
L 2656 3303 
Q 2606 3569 2497 3719 
Q 2294 4000 1881 4000 
Q 1409 4000 1131 3564 
Q 853 3128 822 2316 
Q 1016 2600 1309 2741 
Q 1578 2866 1909 2866 
Q 2472 2866 2890 2506 
Q 3309 2147 3309 1434 
Q 3309 825 2912 354 
Q 2516 -116 1781 -116 
Q 1153 -116 697 361 
Q 241 838 241 1966 
Q 241 2800 444 3381 
Q 834 4494 1872 4494 
z
M 1831 384 
Q 2275 384 2495 682 
Q 2716 981 2716 1388 
Q 2716 1731 2519 2042 
Q 2322 2353 1803 2353 
Q 1441 2353 1167 2112 
Q 894 1872 894 1388 
Q 894 963 1142 673 
Q 1391 384 1831 384 
z
" transform="scale(0.015625)"/>
       </defs>
       <use xlink:href="#Helvetica-36"/>
       <use xlink:href="#Helvetica-30" x="55.615234"/>
      </g>
     </g>
    </g>
    <g id="ytick_8">
     <g id="line2d_8">
      <g>
       <use xlink:href="#m458bc4dd07" x="8.336802" y="11.900869" style="fill: #777777; stroke: #777777; stroke-width: 0.5"/>
      </g>
     </g>
     <g id="text_11">
      <!-- 70 -->
      <g style="fill: #333333" transform="translate(3.00024 12.976884) scale(0.03 -0.03)">
       <use xlink:href="#Helvetica-37"/>
       <use xlink:href="#Helvetica-30" x="55.615234"/>
      </g>
     </g>
    </g>
    <g id="ytick_9">
     <g id="line2d_9">
      <g>
       <use xlink:href="#m458bc4dd07" x="8.336802" y="4.076256" style="fill: #777777; stroke: #777777; stroke-width: 0.5"/>
      </g>
     </g>
     <g id="text_12">
      <!-- 80 -->
      <g style="fill: #333333" transform="translate(3.00024 5.152271) scale(0.03 -0.03)">
       <defs>
        <path id="Helvetica-38" d="M 1741 2600 
Q 2113 2600 2322 2808 
Q 2531 3016 2531 3303 
Q 2531 3553 2331 3762 
Q 2131 3972 1722 3972 
Q 1316 3972 1134 3762 
Q 953 3553 953 3272 
Q 953 2956 1187 2778 
Q 1422 2600 1741 2600 
z
M 1775 384 
Q 2166 384 2423 595 
Q 2681 806 2681 1225 
Q 2681 1659 2415 1884 
Q 2150 2109 1734 2109 
Q 1331 2109 1076 1879 
Q 822 1650 822 1244 
Q 822 894 1055 639 
Q 1288 384 1775 384 
z
M 975 2384 
Q 741 2484 609 2619 
Q 363 2869 363 3269 
Q 363 3769 725 4128 
Q 1088 4488 1753 4488 
Q 2397 4488 2762 4148 
Q 3128 3809 3128 3356 
Q 3128 2938 2916 2678 
Q 2797 2531 2547 2391 
Q 2825 2263 2984 2097 
Q 3281 1784 3281 1284 
Q 3281 694 2884 283 
Q 2488 -128 1763 -128 
Q 1109 -128 657 226 
Q 206 581 206 1256 
Q 206 1653 400 1942 
Q 594 2231 975 2384 
z
" transform="scale(0.015625)"/>
       </defs>
       <use xlink:href="#Helvetica-38"/>
       <use xlink:href="#Helvetica-30" x="55.615234"/>
      </g>
     </g>
    </g>
   </g>
   <g id="PolyCollection_1">
    <defs>
     <path id="m6d35317d5a" d="M 22.150475 -17.667942 
L 19.064116 -17.667942 
L 18.674716 -17.775955 
L 18.222373 -17.883967 
L 17.70706 -17.991979 
L 17.131763 -18.099991 
L 16.502927 -18.208003 
L 15.830713 -18.316015 
L 15.129009 -18.424027 
L 14.415152 -18.532039 
L 13.709335 -18.640051 
L 13.033719 -18.748063 
L 12.41129 -18.856075 
L 11.864536 -18.964087 
L 11.414053 -19.0721 
L 11.077202 -19.180112 
L 10.866933 -19.288124 
L 10.790901 -19.396136 
L 10.850941 -19.504148 
L 11.04297 -19.61216 
L 11.357317 -19.720172 
L 11.779433 -19.828184 
L 12.290924 -19.936196 
L 12.870796 -20.044208 
L 13.496783 -20.15222 
L 14.146658 -20.260233 
L 14.79941 -20.368245 
L 15.436209 -20.476257 
L 16.041101 -20.584269 
L 16.601423 -20.692281 
L 17.107943 -20.800293 
L 17.554757 -20.908305 
L 17.939003 -21.016317 
L 18.260431 -21.124329 
L 18.520919 -21.232341 
L 18.723948 -21.340353 
L 18.87412 -21.448365 
L 18.976718 -21.556378 
L 19.037346 -21.66439 
L 19.061656 -21.772402 
L 19.055151 -21.880414 
L 19.023075 -21.988426 
L 18.970354 -22.096438 
L 18.9016 -22.20445 
L 18.821132 -22.312462 
L 18.733022 -22.420474 
L 18.641127 -22.528486 
L 18.549115 -22.636498 
L 18.460462 -22.744511 
L 18.37842 -22.852523 
L 18.305965 -22.960535 
L 18.24572 -23.068547 
L 18.199876 -23.176559 
L 18.17011 -23.284571 
L 18.157523 -23.392583 
L 18.162604 -23.500595 
L 18.185214 -23.608607 
L 18.224618 -23.716619 
L 18.279522 -23.824631 
L 18.348147 -23.932643 
L 18.428302 -24.040656 
L 18.517455 -24.148668 
L 18.612805 -24.25668 
L 18.711332 -24.364692 
L 18.809845 -24.472704 
L 18.905017 -24.580716 
L 18.993429 -24.688728 
L 19.071625 -24.79674 
L 19.136194 -24.904752 
L 19.183879 -25.012764 
L 19.211724 -25.120776 
L 19.217255 -25.228789 
L 19.198671 -25.336801 
L 19.155054 -25.444813 
L 19.086556 -25.552825 
L 18.994547 -25.660837 
L 18.881701 -25.768849 
L 18.752003 -25.876861 
L 18.610656 -25.984873 
L 18.463885 -26.092885 
L 18.318652 -26.200897 
L 18.182279 -26.308909 
L 18.062028 -26.416921 
L 17.964651 -26.524934 
L 17.895958 -26.632946 
L 17.860442 -26.740958 
L 17.860989 -26.84897 
L 17.898705 -26.956982 
L 17.97287 -27.064994 
L 18.081033 -27.173006 
L 18.219216 -27.281018 
L 18.38223 -27.38903 
L 18.564054 -27.497042 
L 18.758245 -27.605054 
L 18.958354 -27.713067 
L 19.15829 -27.821079 
L 19.352632 -27.929091 
L 19.536854 -28.037103 
L 19.707456 -28.145115 
L 19.862009 -28.253127 
L 19.999122 -28.361139 
L 21.215469 -28.361139 
L 21.215469 -28.361139 
L 21.352582 -28.253127 
L 21.507135 -28.145115 
L 21.677737 -28.037103 
L 21.861959 -27.929091 
L 22.056301 -27.821079 
L 22.256237 -27.713067 
L 22.456346 -27.605054 
L 22.650537 -27.497042 
L 22.83236 -27.38903 
L 22.995374 -27.281018 
L 23.133558 -27.173006 
L 23.24172 -27.064994 
L 23.315886 -26.956982 
L 23.353601 -26.84897 
L 23.354148 -26.740958 
L 23.318632 -26.632946 
L 23.24994 -26.524934 
L 23.152563 -26.416921 
L 23.032312 -26.308909 
L 22.895939 -26.200897 
L 22.750705 -26.092885 
L 22.603935 -25.984873 
L 22.462588 -25.876861 
L 22.33289 -25.768849 
L 22.220044 -25.660837 
L 22.128035 -25.552825 
L 22.059537 -25.444813 
L 22.01592 -25.336801 
L 21.997336 -25.228789 
L 22.002866 -25.120776 
L 22.030712 -25.012764 
L 22.078397 -24.904752 
L 22.142965 -24.79674 
L 22.221162 -24.688728 
L 22.309573 -24.580716 
L 22.404745 -24.472704 
L 22.503258 -24.364692 
L 22.601786 -24.25668 
L 22.697136 -24.148668 
L 22.786289 -24.040656 
L 22.866444 -23.932643 
L 22.935069 -23.824631 
L 22.989973 -23.716619 
L 23.029377 -23.608607 
L 23.051987 -23.500595 
L 23.057068 -23.392583 
L 23.044481 -23.284571 
L 23.014715 -23.176559 
L 22.968871 -23.068547 
L 22.908626 -22.960535 
L 22.836171 -22.852523 
L 22.754129 -22.744511 
L 22.665475 -22.636498 
L 22.573464 -22.528486 
L 22.481569 -22.420474 
L 22.393458 -22.312462 
L 22.312991 -22.20445 
L 22.244237 -22.096438 
L 22.191516 -21.988426 
L 22.15944 -21.880414 
L 22.152935 -21.772402 
L 22.177245 -21.66439 
L 22.237873 -21.556378 
L 22.34047 -21.448365 
L 22.490642 -21.340353 
L 22.693672 -21.232341 
L 22.954159 -21.124329 
L 23.275588 -21.016317 
L 23.659834 -20.908305 
L 24.106648 -20.800293 
L 24.613168 -20.692281 
L 25.17349 -20.584269 
L 25.778382 -20.476257 
L 26.415181 -20.368245 
L 27.067933 -20.260233 
L 27.717808 -20.15222 
L 28.343795 -20.044208 
L 28.923666 -19.936196 
L 29.435158 -19.828184 
L 29.857274 -19.720172 
L 30.17162 -19.61216 
L 30.36365 -19.504148 
L 30.42369 -19.396136 
L 30.347658 -19.288124 
L 30.137389 -19.180112 
L 29.800538 -19.0721 
L 29.350055 -18.964087 
L 28.803301 -18.856075 
L 28.180872 -18.748063 
L 27.505256 -18.640051 
L 26.799439 -18.532039 
L 26.085581 -18.424027 
L 25.383877 -18.316015 
L 24.711664 -18.208003 
L 24.082828 -18.099991 
L 23.507531 -17.991979 
L 22.992217 -17.883967 
L 22.539875 -17.775955 
L 22.150475 -17.667942 
z
" style="stroke: #414141; stroke-width: 0.15"/>
    </defs>
    <g clip-path="url(#p9c4645f238)">
     <use xlink:href="#m6d35317d5a" x="0" y="84.96" style="fill: #abc9ea; stroke: #414141; stroke-width: 0.15"/>
    </g>
   </g>
   <g id="PolyCollection_2">
    <defs>
     <path id="mac4dd398e7" d="M 46.042689 -16.787627 
L 44.253873 -16.787627 
L 43.942986 -16.997326 
L 43.561163 -17.207026 
L 43.105634 -17.416725 
L 42.578094 -17.626424 
L 41.985605 -17.836124 
L 41.341031 -18.045823 
L 40.662842 -18.255523 
L 39.974187 -18.465222 
L 39.301248 -18.674921 
L 38.67101 -18.884621 
L 38.108703 -19.09432 
L 37.635238 -19.304019 
L 37.265006 -19.513719 
L 37.004339 -19.723418 
L 36.85088 -19.933118 
L 36.793914 -20.142817 
L 36.81562 -20.352516 
L 36.89303 -20.562216 
L 37.000423 -20.771915 
L 37.111827 -20.981614 
L 37.203353 -21.191314 
L 37.25512 -21.401013 
L 37.252665 -21.610712 
L 37.187787 -21.820412 
L 37.058876 -22.030111 
L 36.870813 -22.239811 
L 36.634519 -22.44951 
L 36.36622 -22.659209 
L 36.086436 -22.868909 
L 35.818686 -23.078608 
L 35.587873 -23.288307 
L 35.418367 -23.498007 
L 35.331887 -23.707706 
L 35.34536 -23.917406 
L 35.469049 -24.127105 
L 35.705254 -24.336804 
L 36.047888 -24.546504 
L 36.483075 -24.756203 
L 36.990784 -24.965902 
L 37.547281 -25.175602 
L 38.128016 -25.385301 
L 38.710471 -25.595001 
L 39.276488 -25.8047 
L 39.813705 -26.014399 
L 40.315909 -26.224099 
L 40.782348 -26.433798 
L 41.216232 -26.643497 
L 41.622801 -26.853197 
L 42.007374 -27.062896 
L 42.373749 -27.272596 
L 42.723195 -27.482295 
L 43.054125 -27.691994 
L 43.362382 -27.901694 
L 43.641963 -28.111393 
L 43.885958 -28.321092 
L 44.087504 -28.530792 
L 44.240607 -28.740491 
L 44.340769 -28.950191 
L 44.385446 -29.15989 
L 44.374363 -29.369589 
L 44.309772 -29.579289 
L 44.196644 -29.788988 
L 44.042788 -29.998687 
L 43.858809 -30.208387 
L 43.657811 -30.418086 
L 43.454753 -30.627786 
L 43.265451 -30.837485 
L 43.105254 -31.047184 
L 42.98757 -31.256884 
L 42.92242 -31.466583 
L 42.91529 -31.676282 
L 42.966457 -31.885982 
L 43.070945 -32.095681 
L 43.219117 -32.305381 
L 43.39781 -32.51508 
L 43.591844 -32.724779 
L 43.785657 -32.934479 
L 43.964864 -33.144178 
L 44.11754 -33.353877 
L 44.235128 -33.563577 
L 44.312933 -33.773276 
L 44.350228 -33.982976 
L 44.350007 -34.192675 
L 44.318469 -34.402374 
L 44.264281 -34.612074 
L 44.197678 -34.821773 
L 44.129457 -35.031472 
L 44.069943 -35.241172 
L 44.028008 -35.450871 
L 44.01026 -35.660571 
L 44.020485 -35.87027 
L 44.059432 -36.079969 
L 44.124966 -36.289669 
L 44.212552 -36.499368 
L 44.316 -36.709067 
L 44.428336 -36.918767 
L 44.542665 -37.128466 
L 44.652898 -37.338165 
L 44.754264 -37.547865 
L 45.542299 -37.547865 
L 45.542299 -37.547865 
L 45.643664 -37.338165 
L 45.753898 -37.128466 
L 45.868227 -36.918767 
L 45.980563 -36.709067 
L 46.08401 -36.499368 
L 46.171596 -36.289669 
L 46.23713 -36.079969 
L 46.276078 -35.87027 
L 46.286303 -35.660571 
L 46.268555 -35.450871 
L 46.22662 -35.241172 
L 46.167105 -35.031472 
L 46.098884 -34.821773 
L 46.032281 -34.612074 
L 45.978094 -34.402374 
L 45.946556 -34.192675 
L 45.946334 -33.982976 
L 45.983629 -33.773276 
L 46.061435 -33.563577 
L 46.179022 -33.353877 
L 46.331698 -33.144178 
L 46.510906 -32.934479 
L 46.704719 -32.724779 
L 46.898752 -32.51508 
L 47.077446 -32.305381 
L 47.225617 -32.095681 
L 47.330106 -31.885982 
L 47.381273 -31.676282 
L 47.374143 -31.466583 
L 47.308993 -31.256884 
L 47.191308 -31.047184 
L 47.031112 -30.837485 
L 46.841809 -30.627786 
L 46.638751 -30.418086 
L 46.437753 -30.208387 
L 46.253775 -29.998687 
L 46.099919 -29.788988 
L 45.986791 -29.579289 
L 45.922199 -29.369589 
L 45.911117 -29.15989 
L 45.955793 -28.950191 
L 46.055956 -28.740491 
L 46.209058 -28.530792 
L 46.410604 -28.321092 
L 46.6546 -28.111393 
L 46.934181 -27.901694 
L 47.242438 -27.691994 
L 47.573368 -27.482295 
L 47.922813 -27.272596 
L 48.289188 -27.062896 
L 48.673762 -26.853197 
L 49.080331 -26.643497 
L 49.514214 -26.433798 
L 49.980653 -26.224099 
L 50.482857 -26.014399 
L 51.020074 -25.8047 
L 51.586092 -25.595001 
L 52.168546 -25.385301 
L 52.749281 -25.175602 
L 53.305778 -24.965902 
L 53.813488 -24.756203 
L 54.248675 -24.546504 
L 54.591308 -24.336804 
L 54.827514 -24.127105 
L 54.951202 -23.917406 
L 54.964676 -23.707706 
L 54.878195 -23.498007 
L 54.70869 -23.288307 
L 54.477876 -23.078608 
L 54.210127 -22.868909 
L 53.930343 -22.659209 
L 53.662043 -22.44951 
L 53.425749 -22.239811 
L 53.237686 -22.030111 
L 53.108776 -21.820412 
L 53.043897 -21.610712 
L 53.041442 -21.401013 
L 53.09321 -21.191314 
L 53.184735 -20.981614 
L 53.29614 -20.771915 
L 53.403533 -20.562216 
L 53.480943 -20.352516 
L 53.502648 -20.142817 
L 53.445682 -19.933118 
L 53.292223 -19.723418 
L 53.031557 -19.513719 
L 52.661324 -19.304019 
L 52.18786 -19.09432 
L 51.625552 -18.884621 
L 50.995314 -18.674921 
L 50.322375 -18.465222 
L 49.633721 -18.255523 
L 48.955532 -18.045823 
L 48.310958 -17.836124 
L 47.718468 -17.626424 
L 47.190929 -17.416725 
L 46.7354 -17.207026 
L 46.353577 -16.997326 
L 46.042689 -16.787627 
z
" style="stroke: #414141; stroke-width: 0.15"/>
    </defs>
    <g clip-path="url(#p9c4645f238)">
     <use xlink:href="#mac4dd398e7" x="0" y="84.96" style="fill: #efb792; stroke: #414141; stroke-width: 0.15"/>
    </g>
   </g>
   <g id="PolyCollection_3">
    <defs>
     <path id="mc46f895898" d="M 70.198562 -18.71972 
L 69.179973 -18.71972 
L 69.015453 -18.963034 
L 68.814985 -19.206348 
L 68.575327 -19.449661 
L 68.293727 -19.692975 
L 67.967975 -19.936289 
L 67.596481 -20.179603 
L 67.178442 -20.422917 
L 66.714125 -20.666231 
L 66.205277 -20.909545 
L 65.655612 -21.152859 
L 65.071272 -21.396173 
L 64.461138 -21.639487 
L 63.836857 -21.882801 
L 63.212496 -22.126115 
L 62.603802 -22.369429 
L 62.027126 -22.612742 
L 61.498182 -22.856056 
L 61.030796 -23.09937 
L 60.635878 -23.342684 
L 60.320764 -23.585998 
L 60.089008 -23.829312 
L 59.940651 -24.072626 
L 59.872873 -24.31594 
L 59.880889 -24.559254 
L 59.95893 -24.802568 
L 60.101116 -25.045882 
L 60.302089 -25.289196 
L 60.557286 -25.532509 
L 60.862831 -25.775823 
L 61.215057 -26.019137 
L 61.60978 -26.262451 
L 62.041456 -26.505765 
L 62.502437 -26.749079 
L 62.982488 -26.992393 
L 63.468726 -27.235707 
L 63.946037 -27.479021 
L 64.397961 -27.722335 
L 64.807914 -27.965649 
L 65.160577 -28.208963 
L 65.443221 -28.452277 
L 65.646791 -28.69559 
L 65.766605 -28.938904 
L 65.80262 -29.182218 
L 65.759299 -29.425532 
L 65.64516 -29.668846 
L 65.472133 -29.91216 
L 65.254813 -30.155474 
L 65.00969 -30.398788 
L 64.754358 -30.642102 
L 64.506707 -30.885416 
L 64.284066 -31.12873 
L 64.102283 -31.372044 
L 63.974792 -31.615358 
L 63.911717 -31.858671 
L 63.919141 -32.101985 
L 63.998647 -32.345299 
L 64.147257 -32.588613 
L 64.357802 -32.831927 
L 64.619736 -33.075241 
L 64.920302 -33.318555 
L 65.245901 -33.561869 
L 65.583474 -33.805183 
L 65.921702 -34.048497 
L 66.251852 -34.291811 
L 66.568165 -34.535125 
L 66.867764 -34.778438 
L 67.150134 -35.021752 
L 67.416314 -35.265066 
L 67.667983 -35.50838 
L 67.906591 -35.751694 
L 68.132723 -35.995008 
L 68.345747 -36.238322 
L 68.543779 -36.481636 
L 68.723925 -36.72495 
L 68.882688 -36.968264 
L 69.016456 -37.211578 
L 69.121971 -37.454892 
L 69.196735 -37.698206 
L 69.239315 -37.941519 
L 69.249574 -38.184833 
L 69.228839 -38.428147 
L 69.180013 -38.671461 
L 69.107622 -38.914775 
L 69.01776 -39.158089 
L 68.917887 -39.401403 
L 68.816429 -39.644717 
L 68.722198 -39.888031 
L 68.643642 -40.131345 
L 68.58803 -40.374659 
L 68.560691 -40.617973 
L 68.564436 -40.861287 
L 68.599283 -41.1046 
L 68.662526 -41.347914 
L 68.749174 -41.591228 
L 68.852642 -41.834542 
L 68.965616 -42.077856 
L 69.080908 -42.32117 
L 69.192194 -42.564484 
L 69.294529 -42.807798 
L 70.084005 -42.807798 
L 70.084005 -42.807798 
L 70.186341 -42.564484 
L 70.297626 -42.32117 
L 70.412918 -42.077856 
L 70.525892 -41.834542 
L 70.629361 -41.591228 
L 70.716008 -41.347914 
L 70.779252 -41.1046 
L 70.814098 -40.861287 
L 70.817844 -40.617973 
L 70.790504 -40.374659 
L 70.734892 -40.131345 
L 70.656336 -39.888031 
L 70.562105 -39.644717 
L 70.460647 -39.401403 
L 70.360774 -39.158089 
L 70.270912 -38.914775 
L 70.198521 -38.671461 
L 70.149695 -38.428147 
L 70.12896 -38.184833 
L 70.139219 -37.941519 
L 70.181799 -37.698206 
L 70.256563 -37.454892 
L 70.362079 -37.211578 
L 70.495846 -36.968264 
L 70.654609 -36.72495 
L 70.834755 -36.481636 
L 71.032788 -36.238322 
L 71.245811 -35.995008 
L 71.471943 -35.751694 
L 71.710552 -35.50838 
L 71.96222 -35.265066 
L 72.228401 -35.021752 
L 72.51077 -34.778438 
L 72.810369 -34.535125 
L 73.126682 -34.291811 
L 73.456832 -34.048497 
L 73.79506 -33.805183 
L 74.132633 -33.561869 
L 74.458232 -33.318555 
L 74.758798 -33.075241 
L 75.020732 -32.831927 
L 75.231277 -32.588613 
L 75.379887 -32.345299 
L 75.459393 -32.101985 
L 75.466817 -31.858671 
L 75.403742 -31.615358 
L 75.276251 -31.372044 
L 75.094469 -31.12873 
L 74.871827 -30.885416 
L 74.624176 -30.642102 
L 74.368844 -30.398788 
L 74.123721 -30.155474 
L 73.906402 -29.91216 
L 73.733374 -29.668846 
L 73.619235 -29.425532 
L 73.575914 -29.182218 
L 73.611929 -28.938904 
L 73.731743 -28.69559 
L 73.935313 -28.452277 
L 74.217957 -28.208963 
L 74.57062 -27.965649 
L 74.980573 -27.722335 
L 75.432497 -27.479021 
L 75.909808 -27.235707 
L 76.396046 -26.992393 
L 76.876097 -26.749079 
L 77.337078 -26.505765 
L 77.768754 -26.262451 
L 78.163477 -26.019137 
L 78.515703 -25.775823 
L 78.821248 -25.532509 
L 79.076445 -25.289196 
L 79.277418 -25.045882 
L 79.419604 -24.802568 
L 79.497645 -24.559254 
L 79.505661 -24.31594 
L 79.437883 -24.072626 
L 79.289526 -23.829312 
L 79.05777 -23.585998 
L 78.742656 -23.342684 
L 78.347739 -23.09937 
L 77.880352 -22.856056 
L 77.351408 -22.612742 
L 76.774733 -22.369429 
L 76.166038 -22.126115 
L 75.541677 -21.882801 
L 74.917397 -21.639487 
L 74.307262 -21.396173 
L 73.722922 -21.152859 
L 73.173257 -20.909545 
L 72.664409 -20.666231 
L 72.200092 -20.422917 
L 71.782053 -20.179603 
L 71.410559 -19.936289 
L 71.084807 -19.692975 
L 70.803207 -19.449661 
L 70.563549 -19.206348 
L 70.363081 -18.963034 
L 70.198562 -18.71972 
z
" style="stroke: #414141; stroke-width: 0.15"/>
    </defs>
    <g clip-path="url(#p9c4645f238)">
     <use xlink:href="#mc46f895898" x="0" y="84.96" style="fill: #7e5c60; stroke: #414141; stroke-width: 0.15"/>
    </g>
   </g>
   <g id="line2d_10">
    <path d="M 20.607295 66.044605 
L 20.607295 57.846313 
" clip-path="url(#p9c4645f238)" style="fill: none; stroke: #8c8c8c; stroke-width: 0.75; stroke-linecap: round"/>
   </g>
   <g id="line2d_11">
    <path d="M 20.607295 65.591482 
L 20.607295 61.593466 
" clip-path="url(#p9c4645f238)" style="fill: none; stroke: #8c8c8c; stroke-width: 4; stroke-linecap: round"/>
   </g>
   <g id="line2d_12">
    <path d="M 20.607295 65.34003 
" clip-path="url(#p9c4645f238)" style="fill: none; stroke: #414141; stroke-width: 1.2; stroke-linecap: round"/>
    <defs>
     <path id="m77b77b9888" d="M 0 0.833333 
C 0.221003 0.833333 0.432983 0.745528 0.589256 0.589256 
C 0.745528 0.432983 0.833333 0.221003 0.833333 0 
C 0.833333 -0.221003 0.745528 -0.432983 0.589256 -0.589256 
C 0.432983 -0.745528 0.221003 -0.833333 0 -0.833333 
C -0.221003 -0.833333 -0.432983 -0.745528 -0.589256 -0.589256 
C -0.745528 -0.432983 -0.833333 -0.221003 -0.833333 0 
C -0.833333 0.221003 -0.745528 0.432983 -0.589256 0.589256 
C -0.432983 0.745528 -0.221003 0.833333 0 0.833333 
z
" style="stroke: #ffffff; stroke-width: 0.8"/>
    </defs>
    <g clip-path="url(#p9c4645f238)">
     <use xlink:href="#m77b77b9888" x="20.607295" y="65.34003" style="fill: #ffffff; stroke: #ffffff; stroke-width: 0.8"/>
    </g>
   </g>
   <g id="line2d_13">
    <path d="M 45.148281 66.357296 
L 45.148281 57.930996 
" clip-path="url(#p9c4645f238)" style="fill: none; stroke: #8c8c8c; stroke-width: 0.75; stroke-linecap: round"/>
   </g>
   <g id="line2d_14">
    <path d="M 45.148281 64.27059 
L 45.148281 60.129215 
" clip-path="url(#p9c4645f238)" style="fill: none; stroke: #8c8c8c; stroke-width: 4; stroke-linecap: round"/>
   </g>
   <g id="line2d_15">
    <path d="M 45.148281 61.550339 
" clip-path="url(#p9c4645f238)" style="fill: none; stroke: #414141; stroke-width: 1.2; stroke-linecap: round"/>
    <g clip-path="url(#p9c4645f238)">
     <use xlink:href="#m77b77b9888" x="45.148281" y="61.550339" style="fill: #ffffff; stroke: #ffffff; stroke-width: 0.8"/>
    </g>
   </g>
   <g id="line2d_16">
    <path d="M 69.689267 64.150173 
L 69.689267 44.24231 
" clip-path="url(#p9c4645f238)" style="fill: none; stroke: #8c8c8c; stroke-width: 0.75; stroke-linecap: round"/>
   </g>
   <g id="line2d_17">
    <path d="M 69.689267 60.92378 
L 69.689267 53.50061 
" clip-path="url(#p9c4645f238)" style="fill: none; stroke: #8c8c8c; stroke-width: 4; stroke-linecap: round"/>
   </g>
   <g id="line2d_18">
    <path d="M 69.689267 58.613366 
" clip-path="url(#p9c4645f238)" style="fill: none; stroke: #414141; stroke-width: 1.2; stroke-linecap: round"/>
    <g clip-path="url(#p9c4645f238)">
     <use xlink:href="#m77b77b9888" x="69.689267" y="58.613366" style="fill: #ffffff; stroke: #ffffff; stroke-width: 0.8"/>
    </g>
   </g>
   <g id="patch_3">
    <path d="M 8.336802 74.419526 
L 8.336802 4.076256 
" style="fill: none; stroke: #777777; stroke-width: 0.5; stroke-linejoin: miter; stroke-linecap: square"/>
   </g>
   <g id="patch_4">
    <path d="M 8.336802 76.919526 
L 81.95976 76.919526 
" style="fill: none; stroke: #777777; stroke-width: 0.5; stroke-linejoin: miter; stroke-linecap: square"/>
   </g>
  </g>
 </g>
 <defs>
  <clipPath id="p9c4645f238">
   <rect x="8.336802" y="4.076256" width="73.622957" height="70.34327"/>
  </clipPath>
 </defs>
</svg>
