<?xml version="1.0" encoding="utf-8" standalone="no"?>
<!DOCTYPE svg PUBLIC "-//W3C//DTD SVG 1.1//EN"
  "http://www.w3.org/Graphics/SVG/1.1/DTD/svg11.dtd">
<svg xmlns:xlink="http://www.w3.org/1999/xlink" width="56.16pt" height="84.96pt" viewBox="0 0 56.16 84.96" xmlns="http://www.w3.org/2000/svg" version="1.1">
 <metadata>
  <rdf:RDF xmlns:dc="http://purl.org/dc/elements/1.1/" xmlns:cc="http://creativecommons.org/ns#" xmlns:rdf="http://www.w3.org/1999/02/22-rdf-syntax-ns#">
   <cc:Work>
    <dc:type rdf:resource="http://purl.org/dc/dcmitype/StillImage"/>
    <dc:date>2024-05-27T15:37:05.745023</dc:date>
    <dc:format>image/svg+xml</dc:format>
    <dc:creator>
     <cc:Agent>
      <dc:title>Matplotlib v3.8.3, https://matplotlib.org/</dc:title>
     </cc:Agent>
    </dc:creator>
   </cc:Work>
  </rdf:RDF>
 </metadata>
 <defs>
  <style type="text/css">*{stroke-linejoin: round; stroke-linecap: butt}</style>
 </defs>
 <g id="figure_1">
  <g id="patch_1">
   <path d="M 0 84.96 
L 56.16 84.96 
L 56.16 0 
L 0 0 
z
" style="fill: #ffffff"/>
  </g>
  <g id="axes_1">
   <g id="patch_2">
    <path d="M 8.336802 74.419526 
L 53.15976 74.419526 
L 53.15976 4.076256 
L 8.336802 4.076256 
z
" style="fill: #ffffff"/>
   </g>
   <g id="matplotlib.axis_1">
    <g id="xtick_1">
     <g id="text_1">
      <!-- ILC2 -->
      <g style="fill: #333333" transform="translate(15.846214 81.230229) scale(0.035 -0.035)">
       <defs>
        <path id="Helvetica-49" d="M 628 4591 
L 1256 4591 
L 1256 0 
L 628 0 
L 628 4591 
z
" transform="scale(0.015625)"/>
        <path id="Helvetica-4c" d="M 488 4591 
L 1109 4591 
L 1109 547 
L 3434 547 
L 3434 0 
L 488 0 
L 488 4591 
z
" transform="scale(0.015625)"/>
        <path id="Helvetica-43" d="M 2422 4716 
Q 3294 4716 3775 4256 
Q 4256 3797 4309 3213 
L 3703 3213 
Q 3600 3656 3292 3915 
Q 2984 4175 2428 4175 
Q 1750 4175 1333 3698 
Q 916 3222 916 2238 
Q 916 1431 1292 929 
Q 1669 428 2416 428 
Q 3103 428 3463 956 
Q 3653 1234 3747 1688 
L 4353 1688 
Q 4272 963 3816 472 
Q 3269 -119 2341 -119 
Q 1541 -119 997 366 
Q 281 1006 281 2344 
Q 281 3359 819 4009 
Q 1400 4716 2422 4716 
z
M 2297 4716 
L 2297 4716 
z
" transform="scale(0.015625)"/>
        <path id="Helvetica-32" d="M 200 0 
Q 231 578 439 1006 
Q 647 1434 1250 1784 
L 1850 2131 
Q 2253 2366 2416 2531 
Q 2672 2791 2672 3125 
Q 2672 3516 2437 3745 
Q 2203 3975 1813 3975 
Q 1234 3975 1013 3538 
Q 894 3303 881 2888 
L 309 2888 
Q 319 3472 525 3841 
Q 891 4491 1816 4491 
Q 2584 4491 2939 4075 
Q 3294 3659 3294 3150 
Q 3294 2613 2916 2231 
Q 2697 2009 2131 1694 
L 1703 1456 
Q 1397 1288 1222 1134 
Q 909 863 828 531 
L 3272 531 
L 3272 0 
L 200 0 
z
" transform="scale(0.015625)"/>
       </defs>
       <use xlink:href="#Helvetica-49"/>
       <use xlink:href="#Helvetica-4c" x="27.783203"/>
       <use xlink:href="#Helvetica-43" x="83.398438"/>
       <use xlink:href="#Helvetica-32" x="155.615234"/>
      </g>
     </g>
    </g>
    <g id="xtick_2">
     <g id="text_2">
      <!-- TH2 -->
      <g style="fill: #333333" transform="translate(38.648161 81.230229) scale(0.035 -0.035)">
       <defs>
        <path id="Helvetica-54" d="M 3828 4591 
L 3828 4044 
L 2281 4044 
L 2281 0 
L 1650 0 
L 1650 4044 
L 103 4044 
L 103 4591 
L 3828 4591 
z
" transform="scale(0.015625)"/>
        <path id="Helvetica-48" d="M 503 4591 
L 1131 4591 
L 1131 2694 
L 3519 2694 
L 3519 4591 
L 4147 4591 
L 4147 0 
L 3519 0 
L 3519 2147 
L 1131 2147 
L 1131 0 
L 503 0 
L 503 4591 
z
" transform="scale(0.015625)"/>
       </defs>
       <use xlink:href="#Helvetica-54"/>
       <use xlink:href="#Helvetica-48" x="61.083984"/>
       <use xlink:href="#Helvetica-32" x="133.300781"/>
      </g>
     </g>
    </g>
   </g>
   <g id="matplotlib.axis_2">
    <g id="ytick_1">
     <g id="line2d_1">
      <defs>
       <path id="m4ef4b61111" d="M 0 0 
L -1 0 
" style="stroke: #777777; stroke-width: 0.5"/>
      </defs>
      <g>
       <use xlink:href="#m4ef4b61111" x="8.336802" y="66.995102" style="fill: #777777; stroke: #777777; stroke-width: 0.5"/>
      </g>
     </g>
     <g id="text_3">
      <!-- 0 -->
      <g style="fill: #333333" transform="translate(4.668521 68.071117) scale(0.03 -0.03)">
       <defs>
        <path id="Helvetica-30" d="M 1731 4475 
Q 2600 4475 2988 3759 
Q 3288 3206 3288 2244 
Q 3288 1331 3016 734 
Q 2622 -122 1728 -122 
Q 922 -122 528 578 
Q 200 1163 200 2147 
Q 200 2909 397 3456 
Q 766 4475 1731 4475 
z
M 1725 391 
Q 2163 391 2422 778 
Q 2681 1166 2681 2222 
Q 2681 2984 2493 3476 
Q 2306 3969 1766 3969 
Q 1269 3969 1039 3501 
Q 809 3034 809 2125 
Q 809 1441 956 1025 
Q 1181 391 1725 391 
z
" transform="scale(0.015625)"/>
       </defs>
       <use xlink:href="#Helvetica-30"/>
      </g>
     </g>
    </g>
    <g id="ytick_2">
     <g id="line2d_2">
      <g>
       <use xlink:href="#m4ef4b61111" x="8.336802" y="54.411333" style="fill: #777777; stroke: #777777; stroke-width: 0.5"/>
      </g>
     </g>
     <g id="text_4">
      <!-- 10 -->
      <g style="fill: #333333" transform="translate(3.00024 55.487348) scale(0.03 -0.03)">
       <defs>
        <path id="Helvetica-31" d="M 613 3169 
L 613 3600 
Q 1222 3659 1462 3798 
Q 1703 3938 1822 4456 
L 2266 4456 
L 2266 0 
L 1666 0 
L 1666 3169 
L 613 3169 
z
" transform="scale(0.015625)"/>
       </defs>
       <use xlink:href="#Helvetica-31"/>
       <use xlink:href="#Helvetica-30" x="55.615234"/>
      </g>
     </g>
    </g>
    <g id="ytick_3">
     <g id="line2d_3">
      <g>
       <use xlink:href="#m4ef4b61111" x="8.336802" y="41.827563" style="fill: #777777; stroke: #777777; stroke-width: 0.5"/>
      </g>
     </g>
     <g id="text_5">
      <!-- 20 -->
      <g style="fill: #333333" transform="translate(3.00024 42.903579) scale(0.03 -0.03)">
       <use xlink:href="#Helvetica-32"/>
       <use xlink:href="#Helvetica-30" x="55.615234"/>
      </g>
     </g>
    </g>
    <g id="ytick_4">
     <g id="line2d_4">
      <g>
       <use xlink:href="#m4ef4b61111" x="8.336802" y="29.243794" style="fill: #777777; stroke: #777777; stroke-width: 0.5"/>
      </g>
     </g>
     <g id="text_6">
      <!-- 30 -->
      <g style="fill: #333333" transform="translate(3.00024 30.31981) scale(0.03 -0.03)">
       <defs>
        <path id="Helvetica-33" d="M 1663 -122 
Q 869 -122 511 314 
Q 153 750 153 1375 
L 741 1375 
Q 778 941 903 744 
Q 1122 391 1694 391 
Q 2138 391 2406 628 
Q 2675 866 2675 1241 
Q 2675 1703 2392 1887 
Q 2109 2072 1606 2072 
Q 1550 2072 1492 2070 
Q 1434 2069 1375 2066 
L 1375 2563 
Q 1463 2553 1522 2550 
Q 1581 2547 1650 2547 
Q 1966 2547 2169 2647 
Q 2525 2822 2525 3272 
Q 2525 3606 2287 3787 
Q 2050 3969 1734 3969 
Q 1172 3969 956 3594 
Q 838 3388 822 3006 
L 266 3006 
Q 266 3506 466 3856 
Q 809 4481 1675 4481 
Q 2359 4481 2734 4176 
Q 3109 3872 3109 3294 
Q 3109 2881 2888 2625 
Q 2750 2466 2531 2375 
Q 2884 2278 3082 2001 
Q 3281 1725 3281 1325 
Q 3281 684 2859 281 
Q 2438 -122 1663 -122 
z
" transform="scale(0.015625)"/>
       </defs>
       <use xlink:href="#Helvetica-33"/>
       <use xlink:href="#Helvetica-30" x="55.615234"/>
      </g>
     </g>
    </g>
    <g id="ytick_5">
     <g id="line2d_5">
      <g>
       <use xlink:href="#m4ef4b61111" x="8.336802" y="16.660025" style="fill: #777777; stroke: #777777; stroke-width: 0.5"/>
      </g>
     </g>
     <g id="text_7">
      <!-- 40 -->
      <g style="fill: #333333" transform="translate(3.00024 17.73604) scale(0.03 -0.03)">
       <defs>
        <path id="Helvetica-34" d="M 2116 1584 
L 2116 3613 
L 681 1584 
L 2116 1584 
z
M 2125 0 
L 2125 1094 
L 163 1094 
L 163 1644 
L 2213 4488 
L 2688 4488 
L 2688 1584 
L 3347 1584 
L 3347 1094 
L 2688 1094 
L 2688 0 
L 2125 0 
z
" transform="scale(0.015625)"/>
       </defs>
       <use xlink:href="#Helvetica-34"/>
       <use xlink:href="#Helvetica-30" x="55.615234"/>
      </g>
     </g>
    </g>
    <g id="ytick_6">
     <g id="line2d_6">
      <g>
       <use xlink:href="#m4ef4b61111" x="8.336802" y="4.076256" style="fill: #777777; stroke: #777777; stroke-width: 0.5"/>
      </g>
     </g>
     <g id="text_8">
      <!-- 50 -->
      <g style="fill: #333333" transform="translate(3.00024 5.152271) scale(0.03 -0.03)">
       <defs>
        <path id="Helvetica-35" d="M 791 1141 
Q 847 659 1238 475 
Q 1438 381 1700 381 
Q 2200 381 2440 700 
Q 2681 1019 2681 1406 
Q 2681 1875 2395 2131 
Q 2109 2388 1709 2388 
Q 1419 2388 1211 2275 
Q 1003 2163 856 1963 
L 369 1991 
L 709 4400 
L 3034 4400 
L 3034 3856 
L 1131 3856 
L 941 2613 
Q 1097 2731 1238 2791 
Q 1488 2894 1816 2894 
Q 2431 2894 2859 2497 
Q 3288 2100 3288 1491 
Q 3288 856 2895 371 
Q 2503 -113 1644 -113 
Q 1097 -113 676 195 
Q 256 503 206 1141 
L 791 1141 
z
" transform="scale(0.015625)"/>
       </defs>
       <use xlink:href="#Helvetica-35"/>
       <use xlink:href="#Helvetica-30" x="55.615234"/>
      </g>
     </g>
    </g>
   </g>
   <g id="PolyCollection_1">
    <defs>
     <path id="m244f493391" d="M 21.457938 -17.646282 
L 17.627146 -17.646282 
L 17.243301 -17.671435 
L 16.814796 -17.696588 
L 16.344137 -17.721741 
L 15.835811 -17.746893 
L 15.296383 -17.772046 
L 14.734471 -17.797199 
L 14.160601 -17.822352 
L 13.586925 -17.847504 
L 13.02681 -17.872657 
L 12.494308 -17.89781 
L 12.003558 -17.922962 
L 11.568122 -17.948115 
L 11.200335 -17.973268 
L 10.910695 -17.998421 
L 10.707334 -18.023573 
L 10.595627 -18.048726 
L 10.57795 -18.073879 
L 10.653614 -18.099032 
L 10.818965 -18.124184 
L 11.067648 -18.149337 
L 11.391006 -18.17449 
L 11.778581 -18.199643 
L 12.21867 -18.224795 
L 12.698904 -18.249948 
L 13.20681 -18.275101 
L 13.730312 -18.300254 
L 14.258157 -18.325406 
L 14.780249 -18.350559 
L 15.287872 -18.375712 
L 15.773823 -18.400865 
L 16.232449 -18.426017 
L 16.659603 -18.45117 
L 17.05255 -18.476323 
L 17.409823 -18.501476 
L 17.731049 -18.526628 
L 18.016776 -18.551781 
L 18.268285 -18.576934 
L 18.487422 -18.602086 
L 18.676437 -18.627239 
L 18.837846 -18.652392 
L 18.974305 -18.677545 
L 19.088518 -18.702697 
L 19.183145 -18.72785 
L 19.260741 -18.753003 
L 19.32371 -18.778156 
L 19.374265 -18.803308 
L 19.414411 -18.828461 
L 19.445928 -18.853614 
L 19.470373 -18.878767 
L 19.489081 -18.903919 
L 19.503176 -18.929072 
L 19.513583 -18.954225 
L 19.521042 -18.979378 
L 19.526124 -19.00453 
L 19.529244 -19.029683 
L 19.530678 -19.054836 
L 19.530566 -19.079989 
L 19.528928 -19.105141 
L 19.525666 -19.130294 
L 19.520569 -19.155447 
L 19.513318 -19.1806 
L 19.503491 -19.205752 
L 19.490572 -19.230905 
L 19.473959 -19.256058 
L 19.452984 -19.28121 
L 19.426939 -19.306363 
L 19.395106 -19.331516 
L 19.3568 -19.356669 
L 19.311423 -19.381821 
L 19.258513 -19.406974 
L 19.197812 -19.432127 
L 19.129323 -19.45728 
L 19.053368 -19.482432 
L 18.970633 -19.507585 
L 18.882196 -19.532738 
L 18.789542 -19.557891 
L 18.694535 -19.583043 
L 18.599387 -19.608196 
L 18.506573 -19.633349 
L 18.41874 -19.658502 
L 18.338579 -19.683654 
L 18.268698 -19.708807 
L 18.211478 -19.73396 
L 18.168938 -19.759113 
L 18.14262 -19.784265 
L 18.133493 -19.809418 
L 18.141897 -19.834571 
L 18.16752 -19.859723 
L 18.209416 -19.884876 
L 18.266066 -19.910029 
L 18.335469 -19.935182 
L 18.415255 -19.960334 
L 18.502825 -19.985487 
L 18.595486 -20.01064 
L 18.690588 -20.035793 
L 18.785646 -20.060945 
L 18.878438 -20.086098 
L 18.967081 -20.111251 
L 19.050077 -20.136404 
L 20.035007 -20.136404 
L 20.035007 -20.136404 
L 20.118003 -20.111251 
L 20.206646 -20.086098 
L 20.299438 -20.060945 
L 20.394496 -20.035793 
L 20.489598 -20.01064 
L 20.582259 -19.985487 
L 20.669829 -19.960334 
L 20.749615 -19.935182 
L 20.819018 -19.910029 
L 20.875668 -19.884876 
L 20.917564 -19.859723 
L 20.943186 -19.834571 
L 20.951591 -19.809418 
L 20.942464 -19.784265 
L 20.916146 -19.759113 
L 20.873606 -19.73396 
L 20.816385 -19.708807 
L 20.746505 -19.683654 
L 20.666344 -19.658502 
L 20.57851 -19.633349 
L 20.485697 -19.608196 
L 20.390548 -19.583043 
L 20.295542 -19.557891 
L 20.202887 -19.532738 
L 20.114451 -19.507585 
L 20.031716 -19.482432 
L 19.955761 -19.45728 
L 19.887272 -19.432127 
L 19.826571 -19.406974 
L 19.773661 -19.381821 
L 19.728283 -19.356669 
L 19.689978 -19.331516 
L 19.658145 -19.306363 
L 19.6321 -19.28121 
L 19.611125 -19.256058 
L 19.594512 -19.230905 
L 19.581593 -19.205752 
L 19.571766 -19.1806 
L 19.564515 -19.155447 
L 19.559418 -19.130294 
L 19.556155 -19.105141 
L 19.554518 -19.079989 
L 19.554406 -19.054836 
L 19.555839 -19.029683 
L 19.55896 -19.00453 
L 19.564042 -18.979378 
L 19.5715 -18.954225 
L 19.581907 -18.929072 
L 19.596002 -18.903919 
L 19.614711 -18.878767 
L 19.639156 -18.853614 
L 19.670673 -18.828461 
L 19.710819 -18.803308 
L 19.761374 -18.778156 
L 19.824343 -18.753003 
L 19.901939 -18.72785 
L 19.996566 -18.702697 
L 20.110778 -18.677545 
L 20.247238 -18.652392 
L 20.408647 -18.627239 
L 20.597662 -18.602086 
L 20.816799 -18.576934 
L 21.068308 -18.551781 
L 21.354035 -18.526628 
L 21.675261 -18.501476 
L 22.032533 -18.476323 
L 22.425481 -18.45117 
L 22.852635 -18.426017 
L 23.31126 -18.400865 
L 23.797212 -18.375712 
L 24.304835 -18.350559 
L 24.826927 -18.325406 
L 25.354772 -18.300254 
L 25.878274 -18.275101 
L 26.386179 -18.249948 
L 26.866414 -18.224795 
L 27.306502 -18.199643 
L 27.694078 -18.17449 
L 28.017436 -18.149337 
L 28.266119 -18.124184 
L 28.431469 -18.099032 
L 28.507133 -18.073879 
L 28.489457 -18.048726 
L 28.37775 -18.023573 
L 28.174389 -17.998421 
L 27.884748 -17.973268 
L 27.516962 -17.948115 
L 27.081526 -17.922962 
L 26.590775 -17.89781 
L 26.058274 -17.872657 
L 25.498159 -17.847504 
L 24.924483 -17.822352 
L 24.350613 -17.797199 
L 23.788701 -17.772046 
L 23.249272 -17.746893 
L 22.740947 -17.721741 
L 22.270288 -17.696588 
L 21.841782 -17.671435 
L 21.457938 -17.646282 
z
" style="stroke: #717171; stroke-width: 0.15"/>
    </defs>
    <g clip-path="url(#p07092a420f)">
     <use xlink:href="#m244f493391" x="0" y="84.96" style="fill: #d6bba3; stroke: #717171; stroke-width: 0.15"/>
    </g>
   </g>
   <g id="PolyCollection_2">
    <defs>
     <path id="m3400a59978" d="M 44.103707 -16.143516 
L 39.804334 -16.143516 
L 39.401711 -16.289941 
L 38.958237 -16.436367 
L 38.47755 -16.582793 
L 37.965132 -16.729219 
L 37.428299 -16.875644 
L 36.876089 -17.02207 
L 36.319034 -17.168496 
L 35.76882 -17.314922 
L 35.237849 -17.461347 
L 34.738728 -17.607773 
L 34.283711 -17.754199 
L 33.884136 -17.900624 
L 33.549884 -18.04705 
L 33.288909 -18.193476 
L 33.106872 -18.339902 
L 33.006888 -18.486327 
L 32.989429 -18.632753 
L 33.052366 -18.779179 
L 33.191155 -18.925604 
L 33.399154 -19.07203 
L 33.668029 -19.218456 
L 33.988246 -19.364882 
L 34.349579 -19.511307 
L 34.741626 -19.657733 
L 35.154288 -19.804159 
L 35.57818 -19.950584 
L 36.004953 -20.09701 
L 36.427524 -20.243436 
L 36.84019 -20.389862 
L 37.238649 -20.536287 
L 37.619925 -20.682713 
L 37.982227 -20.829139 
L 38.324749 -20.975565 
L 38.647443 -21.12199 
L 38.950795 -21.268416 
L 39.2356 -21.414842 
L 39.502777 -21.561267 
L 39.753224 -21.707693 
L 39.987715 -21.854119 
L 40.206847 -22.000545 
L 40.41103 -22.14697 
L 40.600509 -22.293396 
L 40.77541 -22.439822 
L 40.935805 -22.586247 
L 41.08177 -22.732673 
L 41.213448 -22.879099 
L 41.331095 -23.025525 
L 41.435109 -23.17195 
L 41.526039 -23.318376 
L 41.604585 -23.464802 
L 41.671572 -23.611228 
L 41.727921 -23.757653 
L 41.774609 -23.904079 
L 41.812624 -24.050505 
L 41.842921 -24.19693 
L 41.866386 -24.343356 
L 41.883795 -24.489782 
L 41.895786 -24.636208 
L 41.902839 -24.782633 
L 41.90526 -24.929059 
L 41.903172 -25.075485 
L 41.896518 -25.22191 
L 41.885071 -25.368336 
L 41.868446 -25.514762 
L 41.846132 -25.661188 
L 41.817525 -25.807613 
L 41.781973 -25.954039 
L 41.738835 -26.100465 
L 41.687539 -26.24689 
L 41.627654 -26.393316 
L 41.558963 -26.539742 
L 41.481534 -26.686168 
L 41.395783 -26.832593 
L 41.302528 -26.979019 
L 41.203019 -27.125445 
L 41.098949 -27.271871 
L 40.992435 -27.418296 
L 40.885962 -27.564722 
L 40.782307 -27.711148 
L 40.68442 -27.857573 
L 40.595297 -28.003999 
L 40.517826 -28.150425 
L 40.454633 -28.296851 
L 40.407939 -28.443276 
L 40.379425 -28.589702 
L 40.370136 -28.736128 
L 40.380414 -28.882553 
L 40.40988 -29.028979 
L 40.457455 -29.175405 
L 40.521429 -29.321831 
L 40.599558 -29.468256 
L 40.689198 -29.614682 
L 40.787451 -29.761108 
L 40.891324 -29.907534 
L 40.997871 -30.053959 
L 41.10433 -30.200385 
L 41.208236 -30.346811 
L 41.307497 -30.493236 
L 41.40045 -30.639662 
L 42.507592 -30.639662 
L 42.507592 -30.639662 
L 42.600544 -30.493236 
L 42.699806 -30.346811 
L 42.803711 -30.200385 
L 42.910171 -30.053959 
L 43.016717 -29.907534 
L 43.12059 -29.761108 
L 43.218844 -29.614682 
L 43.308483 -29.468256 
L 43.386612 -29.321831 
L 43.450586 -29.175405 
L 43.498162 -29.028979 
L 43.527628 -28.882553 
L 43.537906 -28.736128 
L 43.528616 -28.589702 
L 43.500102 -28.443276 
L 43.453408 -28.296851 
L 43.390216 -28.150425 
L 43.312744 -28.003999 
L 43.223621 -27.857573 
L 43.125734 -27.711148 
L 43.022079 -27.564722 
L 42.915606 -27.418296 
L 42.809092 -27.271871 
L 42.705023 -27.125445 
L 42.605514 -26.979019 
L 42.512258 -26.832593 
L 42.426507 -26.686168 
L 42.349078 -26.539742 
L 42.280388 -26.393316 
L 42.220502 -26.24689 
L 42.169206 -26.100465 
L 42.126068 -25.954039 
L 42.090517 -25.807613 
L 42.06191 -25.661188 
L 42.039595 -25.514762 
L 42.02297 -25.368336 
L 42.011523 -25.22191 
L 42.004869 -25.075485 
L 42.002781 -24.929059 
L 42.005202 -24.782633 
L 42.012255 -24.636208 
L 42.024246 -24.489782 
L 42.041655 -24.343356 
L 42.06512 -24.19693 
L 42.095418 -24.050505 
L 42.133432 -23.904079 
L 42.18012 -23.757653 
L 42.23647 -23.611228 
L 42.303457 -23.464802 
L 42.382002 -23.318376 
L 42.472932 -23.17195 
L 42.576946 -23.025525 
L 42.694593 -22.879099 
L 42.826272 -22.732673 
L 42.972236 -22.586247 
L 43.132631 -22.439822 
L 43.307533 -22.293396 
L 43.497012 -22.14697 
L 43.701195 -22.000545 
L 43.920327 -21.854119 
L 44.154817 -21.707693 
L 44.405264 -21.561267 
L 44.672441 -21.414842 
L 44.957246 -21.268416 
L 45.260598 -21.12199 
L 45.583293 -20.975565 
L 45.925814 -20.829139 
L 46.288116 -20.682713 
L 46.669392 -20.536287 
L 47.067851 -20.389862 
L 47.480517 -20.243436 
L 47.903088 -20.09701 
L 48.329862 -19.950584 
L 48.753753 -19.804159 
L 49.166416 -19.657733 
L 49.558463 -19.511307 
L 49.919795 -19.364882 
L 50.240012 -19.218456 
L 50.508888 -19.07203 
L 50.716886 -18.925604 
L 50.855675 -18.779179 
L 50.918612 -18.632753 
L 50.901153 -18.486327 
L 50.801169 -18.339902 
L 50.619132 -18.193476 
L 50.358157 -18.04705 
L 50.023905 -17.900624 
L 49.62433 -17.754199 
L 49.169314 -17.607773 
L 48.670192 -17.461347 
L 48.139221 -17.314922 
L 47.589007 -17.168496 
L 47.031952 -17.02207 
L 46.479743 -16.875644 
L 45.94291 -16.729219 
L 45.430491 -16.582793 
L 44.949805 -16.436367 
L 44.50633 -16.289941 
L 44.103707 -16.143516 
z
" style="stroke: #717171; stroke-width: 0.15"/>
    </defs>
    <g clip-path="url(#p07092a420f)">
     <use xlink:href="#m3400a59978" x="0" y="84.96" style="fill: #f1b9e0; stroke: #717171; stroke-width: 0.15"/>
    </g>
   </g>
   <g id="line2d_7">
    <path d="M 19.542542 66.987252 
L 19.542542 66.646558 
" clip-path="url(#p07092a420f)" style="fill: none; stroke: #8c8c8c; stroke-width: 0.75; stroke-linecap: round"/>
   </g>
   <g id="line2d_8">
    <path d="M 19.542542 66.942898 
L 19.542542 66.785854 
" clip-path="url(#p07092a420f)" style="fill: none; stroke: #8c8c8c; stroke-width: 4; stroke-linecap: round"/>
   </g>
   <g id="line2d_9">
    <path d="M 19.542542 66.895769 
" clip-path="url(#p07092a420f)" style="fill: none; stroke: #717171; stroke-width: 1.2; stroke-linecap: round"/>
    <defs>
     <path id="mb1eb6c3755" d="M 0 0.833333 
C 0.221003 0.833333 0.432983 0.745528 0.589256 0.589256 
C 0.745528 0.432983 0.833333 0.221003 0.833333 0 
C 0.833333 -0.221003 0.745528 -0.432983 0.589256 -0.589256 
C 0.432983 -0.745528 0.221003 -0.833333 0 -0.833333 
C -0.221003 -0.833333 -0.432983 -0.745528 -0.589256 -0.589256 
C -0.745528 -0.432983 -0.833333 -0.221003 -0.833333 0 
C -0.833333 0.221003 -0.745528 0.432983 -0.589256 0.589256 
C -0.432983 0.745528 -0.221003 0.833333 0 0.833333 
z
" style="stroke: #ffffff; stroke-width: 0.8"/>
    </defs>
    <g clip-path="url(#p07092a420f)">
     <use xlink:href="#mb1eb6c3755" x="19.542542" y="66.895769" style="fill: #ffffff; stroke: #ffffff; stroke-width: 0.8"/>
    </g>
   </g>
   <g id="line2d_10">
    <path d="M 41.954021 66.90924 
L 41.954021 63.834971 
" clip-path="url(#p07092a420f)" style="fill: none; stroke: #8c8c8c; stroke-width: 0.75; stroke-linecap: round"/>
   </g>
   <g id="line2d_11">
    <path d="M 41.954021 66.824988 
L 41.954021 65.128198 
" clip-path="url(#p07092a420f)" style="fill: none; stroke: #8c8c8c; stroke-width: 4; stroke-linecap: round"/>
   </g>
   <g id="line2d_12">
    <path d="M 41.954021 66.176624 
" clip-path="url(#p07092a420f)" style="fill: none; stroke: #717171; stroke-width: 1.2; stroke-linecap: round"/>
    <g clip-path="url(#p07092a420f)">
     <use xlink:href="#mb1eb6c3755" x="41.954021" y="66.176624" style="fill: #ffffff; stroke: #ffffff; stroke-width: 0.8"/>
    </g>
   </g>
   <g id="patch_3">
    <path d="M 8.336802 74.419526 
L 8.336802 4.076256 
" style="fill: none; stroke: #777777; stroke-width: 0.5; stroke-linejoin: miter; stroke-linecap: square"/>
   </g>
   <g id="patch_4">
    <path d="M 8.336802 76.919526 
L 53.15976 76.919526 
" style="fill: none; stroke: #777777; stroke-width: 0.5; stroke-linejoin: miter; stroke-linecap: square"/>
   </g>
  </g>
 </g>
 <defs>
  <clipPath id="p07092a420f">
   <rect x="8.336802" y="4.076256" width="44.822958" height="70.34327"/>
  </clipPath>
 </defs>
</svg>
