<?xml version="1.0" encoding="utf-8" standalone="no"?>
<!DOCTYPE svg PUBLIC "-//W3C//DTD SVG 1.1//EN"
  "http://www.w3.org/Graphics/SVG/1.1/DTD/svg11.dtd">
<svg xmlns:xlink="http://www.w3.org/1999/xlink" width="56.16pt" height="84.96pt" viewBox="0 0 56.16 84.96" xmlns="http://www.w3.org/2000/svg" version="1.1">
 <metadata>
  <rdf:RDF xmlns:dc="http://purl.org/dc/elements/1.1/" xmlns:cc="http://creativecommons.org/ns#" xmlns:rdf="http://www.w3.org/1999/02/22-rdf-syntax-ns#">
   <cc:Work>
    <dc:type rdf:resource="http://purl.org/dc/dcmitype/StillImage"/>
    <dc:date>2024-05-27T15:37:02.231128</dc:date>
    <dc:format>image/svg+xml</dc:format>
    <dc:creator>
     <cc:Agent>
      <dc:title>Matplotlib v3.8.3, https://matplotlib.org/</dc:title>
     </cc:Agent>
    </dc:creator>
   </cc:Work>
  </rdf:RDF>
 </metadata>
 <defs>
  <style type="text/css">*{stroke-linejoin: round; stroke-linecap: butt}</style>
 </defs>
 <g id="figure_1">
  <g id="patch_1">
   <path d="M 0 84.96 
L 56.16 84.96 
L 56.16 0 
L 0 0 
z
" style="fill: #ffffff"/>
  </g>
  <g id="axes_1">
   <g id="patch_2">
    <path d="M 10.005084 74.419526 
L 53.15976 74.419526 
L 53.15976 4.076256 
L 10.005084 4.076256 
z
" style="fill: #ffffff"/>
   </g>
   <g id="matplotlib.axis_1">
    <g id="xtick_1">
     <g id="text_1">
      <!-- EOMES+ Cells -->
      <g style="fill: #333333" transform="translate(9.075042 81.230229) scale(0.035 -0.035)">
       <defs>
        <path id="Helvetica-45" d="M 547 4591 
L 3894 4591 
L 3894 4028 
L 1153 4028 
L 1153 2634 
L 3688 2634 
L 3688 2103 
L 1153 2103 
L 1153 547 
L 3941 547 
L 3941 0 
L 547 0 
L 547 4591 
z
M 2244 4591 
L 2244 4591 
z
" transform="scale(0.015625)"/>
        <path id="Helvetica-4f" d="M 2469 4716 
Q 3684 4716 4269 3934 
Q 4725 3325 4725 2375 
Q 4725 1347 4203 666 
Q 3591 -134 2456 -134 
Q 1397 -134 791 566 
Q 250 1241 250 2272 
Q 250 3203 713 3866 
Q 1306 4716 2469 4716 
z
M 2531 422 
Q 3353 422 3720 1011 
Q 4088 1600 4088 2366 
Q 4088 3175 3664 3669 
Q 3241 4163 2506 4163 
Q 1794 4163 1344 3673 
Q 894 3184 894 2231 
Q 894 1469 1280 945 
Q 1666 422 2531 422 
z
M 2488 4716 
L 2488 4716 
z
" transform="scale(0.015625)"/>
        <path id="Helvetica-4d" d="M 472 4591 
L 1363 4591 
L 2681 709 
L 3991 4591 
L 4872 4591 
L 4872 0 
L 4281 0 
L 4281 2709 
Q 4281 2850 4287 3175 
Q 4294 3500 4294 3872 
L 2984 0 
L 2369 0 
L 1050 3872 
L 1050 3731 
Q 1050 3563 1058 3217 
Q 1066 2872 1066 2709 
L 1066 0 
L 472 0 
L 472 4591 
z
" transform="scale(0.015625)"/>
        <path id="Helvetica-53" d="M 894 1481 
Q 916 1091 1078 847 
Q 1388 391 2169 391 
Q 2519 391 2806 491 
Q 3363 684 3363 1184 
Q 3363 1559 3128 1719 
Q 2891 1875 2384 1991 
L 1763 2131 
Q 1153 2269 900 2434 
Q 463 2722 463 3294 
Q 463 3913 891 4309 
Q 1319 4706 2103 4706 
Q 2825 4706 3329 4357 
Q 3834 4009 3834 3244 
L 3250 3244 
Q 3203 3613 3050 3809 
Q 2766 4169 2084 4169 
Q 1534 4169 1293 3937 
Q 1053 3706 1053 3400 
Q 1053 3063 1334 2906 
Q 1519 2806 2169 2656 
L 2813 2509 
Q 3278 2403 3531 2219 
Q 3969 1897 3969 1284 
Q 3969 522 3414 194 
Q 2859 -134 2125 -134 
Q 1269 -134 784 303 
Q 300 738 309 1481 
L 894 1481 
z
M 2150 4716 
L 2150 4716 
z
" transform="scale(0.015625)"/>
        <path id="Helvetica-2b" d="M 288 1369 
L 288 1894 
L 1650 1894 
L 1650 3266 
L 2184 3266 
L 2184 1894 
L 3547 1894 
L 3547 1369 
L 2184 1369 
L 2184 0 
L 1650 0 
L 1650 1369 
L 288 1369 
z
" transform="scale(0.015625)"/>
        <path id="Helvetica-20" transform="scale(0.015625)"/>
        <path id="Helvetica-43" d="M 2422 4716 
Q 3294 4716 3775 4256 
Q 4256 3797 4309 3213 
L 3703 3213 
Q 3600 3656 3292 3915 
Q 2984 4175 2428 4175 
Q 1750 4175 1333 3698 
Q 916 3222 916 2238 
Q 916 1431 1292 929 
Q 1669 428 2416 428 
Q 3103 428 3463 956 
Q 3653 1234 3747 1688 
L 4353 1688 
Q 4272 963 3816 472 
Q 3269 -119 2341 -119 
Q 1541 -119 997 366 
Q 281 1006 281 2344 
Q 281 3359 819 4009 
Q 1400 4716 2422 4716 
z
M 2297 4716 
L 2297 4716 
z
" transform="scale(0.015625)"/>
        <path id="Helvetica-65" d="M 1806 3422 
Q 2163 3422 2497 3255 
Q 2831 3088 3006 2822 
Q 3175 2569 3231 2231 
Q 3281 2000 3281 1494 
L 828 1494 
Q 844 984 1069 676 
Q 1294 369 1766 369 
Q 2206 369 2469 659 
Q 2619 828 2681 1050 
L 3234 1050 
Q 3213 866 3089 639 
Q 2966 413 2813 269 
Q 2556 19 2178 -69 
Q 1975 -119 1719 -119 
Q 1094 -119 659 336 
Q 225 791 225 1609 
Q 225 2416 662 2919 
Q 1100 3422 1806 3422 
z
M 2703 1941 
Q 2669 2306 2544 2525 
Q 2313 2931 1772 2931 
Q 1384 2931 1121 2651 
Q 859 2372 844 1941 
L 2703 1941 
z
M 1753 3428 
L 1753 3428 
z
" transform="scale(0.015625)"/>
        <path id="Helvetica-6c" d="M 428 4591 
L 991 4591 
L 991 0 
L 428 0 
L 428 4591 
z
" transform="scale(0.015625)"/>
        <path id="Helvetica-73" d="M 747 1050 
Q 772 769 888 619 
Q 1100 347 1625 347 
Q 1938 347 2175 483 
Q 2413 619 2413 903 
Q 2413 1119 2222 1231 
Q 2100 1300 1741 1391 
L 1294 1503 
Q 866 1609 663 1741 
Q 300 1969 300 2372 
Q 300 2847 642 3140 
Q 984 3434 1563 3434 
Q 2319 3434 2653 2991 
Q 2863 2709 2856 2384 
L 2325 2384 
Q 2309 2575 2191 2731 
Q 1997 2953 1519 2953 
Q 1200 2953 1036 2831 
Q 872 2709 872 2509 
Q 872 2291 1088 2159 
Q 1213 2081 1456 2022 
L 1828 1931 
Q 2434 1784 2641 1647 
Q 2969 1431 2969 969 
Q 2969 522 2630 197 
Q 2291 -128 1597 -128 
Q 850 -128 539 211 
Q 228 550 206 1050 
L 747 1050 
z
M 1578 3428 
L 1578 3428 
z
" transform="scale(0.015625)"/>
       </defs>
       <use xlink:href="#Helvetica-45"/>
       <use xlink:href="#Helvetica-4f" x="66.699219"/>
       <use xlink:href="#Helvetica-4d" x="144.482422"/>
       <use xlink:href="#Helvetica-45" x="227.783203"/>
       <use xlink:href="#Helvetica-53" x="294.482422"/>
       <use xlink:href="#Helvetica-2b" x="361.181641"/>
       <use xlink:href="#Helvetica-20" x="419.580078"/>
       <use xlink:href="#Helvetica-43" x="447.363281"/>
       <use xlink:href="#Helvetica-65" x="519.580078"/>
       <use xlink:href="#Helvetica-6c" x="575.195312"/>
       <use xlink:href="#Helvetica-6c" x="597.412109"/>
       <use xlink:href="#Helvetica-73" x="619.628906"/>
      </g>
     </g>
    </g>
    <g id="xtick_2">
     <g id="text_2">
      <!-- TBX+ Cells -->
      <g style="fill: #333333" transform="translate(33.569685 81.230229) scale(0.035 -0.035)">
       <defs>
        <path id="Helvetica-54" d="M 3828 4591 
L 3828 4044 
L 2281 4044 
L 2281 0 
L 1650 0 
L 1650 4044 
L 103 4044 
L 103 4591 
L 3828 4591 
z
" transform="scale(0.015625)"/>
        <path id="Helvetica-42" d="M 2213 2650 
Q 2606 2650 2825 2759 
Q 3169 2931 3169 3378 
Q 3169 3828 2803 3984 
Q 2597 4072 2191 4072 
L 1081 4072 
L 1081 2650 
L 2213 2650 
z
M 2422 531 
Q 2994 531 3238 863 
Q 3391 1072 3391 1369 
Q 3391 1869 2944 2050 
Q 2706 2147 2316 2147 
L 1081 2147 
L 1081 531 
L 2422 531 
z
M 472 4591 
L 2444 4591 
Q 3250 4591 3591 4109 
Q 3791 3825 3791 3453 
Q 3791 3019 3544 2741 
Q 3416 2594 3175 2472 
Q 3528 2338 3703 2169 
Q 4013 1869 4013 1341 
Q 4013 897 3734 538 
Q 3319 0 2413 0 
L 472 0 
L 472 4591 
z
" transform="scale(0.015625)"/>
        <path id="Helvetica-58" d="M 881 0 
L 131 0 
L 1775 2353 
L 234 4591 
L 1013 4591 
L 2184 2834 
L 3347 4591 
L 4088 4591 
L 2547 2353 
L 4163 0 
L 3391 0 
L 2153 1888 
L 881 0 
z
" transform="scale(0.015625)"/>
       </defs>
       <use xlink:href="#Helvetica-54"/>
       <use xlink:href="#Helvetica-42" x="61.083984"/>
       <use xlink:href="#Helvetica-58" x="127.783203"/>
       <use xlink:href="#Helvetica-2b" x="194.482422"/>
       <use xlink:href="#Helvetica-20" x="252.880859"/>
       <use xlink:href="#Helvetica-43" x="280.664062"/>
       <use xlink:href="#Helvetica-65" x="352.880859"/>
       <use xlink:href="#Helvetica-6c" x="408.496094"/>
       <use xlink:href="#Helvetica-6c" x="430.712891"/>
       <use xlink:href="#Helvetica-73" x="452.929688"/>
      </g>
     </g>
    </g>
   </g>
   <g id="matplotlib.axis_2">
    <g id="ytick_1">
     <g id="line2d_1">
      <defs>
       <path id="m8ea83085a5" d="M 0 0 
L -1 0 
" style="stroke: #777777; stroke-width: 0.5"/>
      </defs>
      <g>
       <use xlink:href="#m8ea83085a5" x="10.005084" y="66.189518" style="fill: #777777; stroke: #777777; stroke-width: 0.5"/>
      </g>
     </g>
     <g id="text_3">
      <!-- 0 -->
      <g style="fill: #333333" transform="translate(6.336802 67.265534) scale(0.03 -0.03)">
       <defs>
        <path id="Helvetica-30" d="M 1731 4475 
Q 2600 4475 2988 3759 
Q 3288 3206 3288 2244 
Q 3288 1331 3016 734 
Q 2622 -122 1728 -122 
Q 922 -122 528 578 
Q 200 1163 200 2147 
Q 200 2909 397 3456 
Q 766 4475 1731 4475 
z
M 1725 391 
Q 2163 391 2422 778 
Q 2681 1166 2681 2222 
Q 2681 2984 2493 3476 
Q 2306 3969 1766 3969 
Q 1269 3969 1039 3501 
Q 809 3034 809 2125 
Q 809 1441 956 1025 
Q 1181 391 1725 391 
z
" transform="scale(0.015625)"/>
       </defs>
       <use xlink:href="#Helvetica-30"/>
      </g>
     </g>
    </g>
    <g id="ytick_2">
     <g id="line2d_2">
      <g>
       <use xlink:href="#m8ea83085a5" x="10.005084" y="55.837308" style="fill: #777777; stroke: #777777; stroke-width: 0.5"/>
      </g>
     </g>
     <g id="text_4">
      <!-- 20 -->
      <g style="fill: #333333" transform="translate(4.668521 56.913323) scale(0.03 -0.03)">
       <defs>
        <path id="Helvetica-32" d="M 200 0 
Q 231 578 439 1006 
Q 647 1434 1250 1784 
L 1850 2131 
Q 2253 2366 2416 2531 
Q 2672 2791 2672 3125 
Q 2672 3516 2437 3745 
Q 2203 3975 1813 3975 
Q 1234 3975 1013 3538 
Q 894 3303 881 2888 
L 309 2888 
Q 319 3472 525 3841 
Q 891 4491 1816 4491 
Q 2584 4491 2939 4075 
Q 3294 3659 3294 3150 
Q 3294 2613 2916 2231 
Q 2697 2009 2131 1694 
L 1703 1456 
Q 1397 1288 1222 1134 
Q 909 863 828 531 
L 3272 531 
L 3272 0 
L 200 0 
z
" transform="scale(0.015625)"/>
       </defs>
       <use xlink:href="#Helvetica-32"/>
       <use xlink:href="#Helvetica-30" x="55.615234"/>
      </g>
     </g>
    </g>
    <g id="ytick_3">
     <g id="line2d_3">
      <g>
       <use xlink:href="#m8ea83085a5" x="10.005084" y="45.485097" style="fill: #777777; stroke: #777777; stroke-width: 0.5"/>
      </g>
     </g>
     <g id="text_5">
      <!-- 40 -->
      <g style="fill: #333333" transform="translate(4.668521 46.561113) scale(0.03 -0.03)">
       <defs>
        <path id="Helvetica-34" d="M 2116 1584 
L 2116 3613 
L 681 1584 
L 2116 1584 
z
M 2125 0 
L 2125 1094 
L 163 1094 
L 163 1644 
L 2213 4488 
L 2688 4488 
L 2688 1584 
L 3347 1584 
L 3347 1094 
L 2688 1094 
L 2688 0 
L 2125 0 
z
" transform="scale(0.015625)"/>
       </defs>
       <use xlink:href="#Helvetica-34"/>
       <use xlink:href="#Helvetica-30" x="55.615234"/>
      </g>
     </g>
    </g>
    <g id="ytick_4">
     <g id="line2d_4">
      <g>
       <use xlink:href="#m8ea83085a5" x="10.005084" y="35.132887" style="fill: #777777; stroke: #777777; stroke-width: 0.5"/>
      </g>
     </g>
     <g id="text_6">
      <!-- 60 -->
      <g style="fill: #333333" transform="translate(4.668521 36.208903) scale(0.03 -0.03)">
       <defs>
        <path id="Helvetica-36" d="M 1872 4494 
Q 2622 4494 2917 4105 
Q 3213 3716 3213 3303 
L 2656 3303 
Q 2606 3569 2497 3719 
Q 2294 4000 1881 4000 
Q 1409 4000 1131 3564 
Q 853 3128 822 2316 
Q 1016 2600 1309 2741 
Q 1578 2866 1909 2866 
Q 2472 2866 2890 2506 
Q 3309 2147 3309 1434 
Q 3309 825 2912 354 
Q 2516 -116 1781 -116 
Q 1153 -116 697 361 
Q 241 838 241 1966 
Q 241 2800 444 3381 
Q 834 4494 1872 4494 
z
M 1831 384 
Q 2275 384 2495 682 
Q 2716 981 2716 1388 
Q 2716 1731 2519 2042 
Q 2322 2353 1803 2353 
Q 1441 2353 1167 2112 
Q 894 1872 894 1388 
Q 894 963 1142 673 
Q 1391 384 1831 384 
z
" transform="scale(0.015625)"/>
       </defs>
       <use xlink:href="#Helvetica-36"/>
       <use xlink:href="#Helvetica-30" x="55.615234"/>
      </g>
     </g>
    </g>
    <g id="ytick_5">
     <g id="line2d_5">
      <g>
       <use xlink:href="#m8ea83085a5" x="10.005084" y="24.780677" style="fill: #777777; stroke: #777777; stroke-width: 0.5"/>
      </g>
     </g>
     <g id="text_7">
      <!-- 80 -->
      <g style="fill: #333333" transform="translate(4.668521 25.856692) scale(0.03 -0.03)">
       <defs>
        <path id="Helvetica-38" d="M 1741 2600 
Q 2113 2600 2322 2808 
Q 2531 3016 2531 3303 
Q 2531 3553 2331 3762 
Q 2131 3972 1722 3972 
Q 1316 3972 1134 3762 
Q 953 3553 953 3272 
Q 953 2956 1187 2778 
Q 1422 2600 1741 2600 
z
M 1775 384 
Q 2166 384 2423 595 
Q 2681 806 2681 1225 
Q 2681 1659 2415 1884 
Q 2150 2109 1734 2109 
Q 1331 2109 1076 1879 
Q 822 1650 822 1244 
Q 822 894 1055 639 
Q 1288 384 1775 384 
z
M 975 2384 
Q 741 2484 609 2619 
Q 363 2869 363 3269 
Q 363 3769 725 4128 
Q 1088 4488 1753 4488 
Q 2397 4488 2762 4148 
Q 3128 3809 3128 3356 
Q 3128 2938 2916 2678 
Q 2797 2531 2547 2391 
Q 2825 2263 2984 2097 
Q 3281 1784 3281 1284 
Q 3281 694 2884 283 
Q 2488 -128 1763 -128 
Q 1109 -128 657 226 
Q 206 581 206 1256 
Q 206 1653 400 1942 
Q 594 2231 975 2384 
z
" transform="scale(0.015625)"/>
       </defs>
       <use xlink:href="#Helvetica-38"/>
       <use xlink:href="#Helvetica-30" x="55.615234"/>
      </g>
     </g>
    </g>
    <g id="ytick_6">
     <g id="line2d_6">
      <g>
       <use xlink:href="#m8ea83085a5" x="10.005084" y="14.428466" style="fill: #777777; stroke: #777777; stroke-width: 0.5"/>
      </g>
     </g>
     <g id="text_8">
      <!-- 100 -->
      <g style="fill: #333333" transform="translate(3.00024 15.504482) scale(0.03 -0.03)">
       <defs>
        <path id="Helvetica-31" d="M 613 3169 
L 613 3600 
Q 1222 3659 1462 3798 
Q 1703 3938 1822 4456 
L 2266 4456 
L 2266 0 
L 1666 0 
L 1666 3169 
L 613 3169 
z
" transform="scale(0.015625)"/>
       </defs>
       <use xlink:href="#Helvetica-31"/>
       <use xlink:href="#Helvetica-30" x="55.615234"/>
       <use xlink:href="#Helvetica-30" x="111.230469"/>
      </g>
     </g>
    </g>
    <g id="ytick_7">
     <g id="line2d_7">
      <g>
       <use xlink:href="#m8ea83085a5" x="10.005084" y="4.076256" style="fill: #777777; stroke: #777777; stroke-width: 0.5"/>
      </g>
     </g>
     <g id="text_9">
      <!-- 120 -->
      <g style="fill: #333333" transform="translate(3.00024 5.152271) scale(0.03 -0.03)">
       <use xlink:href="#Helvetica-31"/>
       <use xlink:href="#Helvetica-32" x="55.615234"/>
       <use xlink:href="#Helvetica-30" x="111.230469"/>
      </g>
     </g>
    </g>
   </g>
   <g id="PolyCollection_1">
    <defs>
     <path id="m4ea0ea2eb6" d="M 21.951511 -17.758986 
L 19.635994 -17.758986 
L 19.387343 -17.848079 
L 19.103485 -17.937172 
L 18.783691 -18.026264 
L 18.428195 -18.115357 
L 18.038342 -18.20445 
L 17.616697 -18.293542 
L 17.167118 -18.382635 
L 16.694771 -18.471728 
L 16.206081 -18.56082 
L 15.708626 -18.649913 
L 15.210953 -18.739006 
L 14.722328 -18.828098 
L 14.252428 -18.917191 
L 13.81098 -19.006284 
L 13.407365 -19.095376 
L 13.050206 -19.184469 
L 12.746966 -19.273562 
L 12.503575 -19.362654 
L 12.324117 -19.451747 
L 12.210599 -19.54084 
L 12.162818 -19.629932 
L 12.178339 -19.719025 
L 12.252598 -19.808117 
L 12.379108 -19.89721 
L 12.549778 -19.986303 
L 12.7553 -20.075395 
L 12.98561 -20.164488 
L 13.230362 -20.253581 
L 13.479413 -20.342673 
L 13.723282 -20.431766 
L 13.953556 -20.520859 
L 14.163235 -20.609951 
L 14.347007 -20.699044 
L 14.501428 -20.788137 
L 14.625032 -20.877229 
L 14.71834 -20.966322 
L 14.783795 -21.055415 
L 14.825609 -21.144507 
L 14.84953 -21.2336 
L 14.86254 -21.322693 
L 14.872473 -21.411785 
L 14.887599 -21.500878 
L 14.916154 -21.589971 
L 14.965873 -21.679063 
L 15.043532 -21.768156 
L 15.154538 -21.857249 
L 15.3026 -21.946341 
L 15.489502 -22.035434 
L 15.714999 -22.124527 
L 15.976846 -22.213619 
L 16.270961 -22.302712 
L 16.591699 -22.391805 
L 16.93222 -22.480897 
L 17.284922 -22.56999 
L 17.641888 -22.659083 
L 17.995325 -22.748175 
L 18.337951 -22.837268 
L 18.663312 -22.926361 
L 18.965998 -23.015453 
L 19.241768 -23.104546 
L 19.487571 -23.193639 
L 19.701485 -23.282731 
L 19.882592 -23.371824 
L 20.0308 -23.460917 
L 20.146651 -23.550009 
L 20.231136 -23.639102 
L 20.285521 -23.728195 
L 20.311224 -23.817287 
L 20.309732 -23.90638 
L 20.282571 -23.995473 
L 20.231323 -24.084565 
L 20.157689 -24.173658 
L 20.063575 -24.262751 
L 19.951191 -24.351843 
L 19.82315 -24.440936 
L 19.682542 -24.530029 
L 19.532975 -24.619121 
L 19.378562 -24.708214 
L 19.223859 -24.797307 
L 19.073739 -24.886399 
L 18.933221 -24.975492 
L 18.80725 -25.064585 
L 18.700457 -25.153677 
L 18.616907 -25.24277 
L 18.55987 -25.331863 
L 18.531629 -25.420955 
L 18.533334 -25.510048 
L 18.564939 -25.599141 
L 18.625208 -25.688233 
L 18.711797 -25.777326 
L 18.821411 -25.866418 
L 18.950012 -25.955511 
L 19.093067 -26.044604 
L 19.24581 -26.133696 
L 19.403505 -26.222789 
L 19.561682 -26.311882 
L 19.716331 -26.400974 
L 19.864055 -26.490067 
L 20.002155 -26.57916 
L 21.58535 -26.57916 
L 21.58535 -26.57916 
L 21.723451 -26.490067 
L 21.871174 -26.400974 
L 22.025824 -26.311882 
L 22.184 -26.222789 
L 22.341696 -26.133696 
L 22.494439 -26.044604 
L 22.637493 -25.955511 
L 22.766095 -25.866418 
L 22.875709 -25.777326 
L 22.962298 -25.688233 
L 23.022567 -25.599141 
L 23.054172 -25.510048 
L 23.055877 -25.420955 
L 23.027635 -25.331863 
L 22.970599 -25.24277 
L 22.887049 -25.153677 
L 22.780255 -25.064585 
L 22.654285 -24.975492 
L 22.513767 -24.886399 
L 22.363647 -24.797307 
L 22.208943 -24.708214 
L 22.054531 -24.619121 
L 21.904963 -24.530029 
L 21.764356 -24.440936 
L 21.636315 -24.351843 
L 21.523931 -24.262751 
L 21.429817 -24.173658 
L 21.356183 -24.084565 
L 21.304935 -23.995473 
L 21.277773 -23.90638 
L 21.276281 -23.817287 
L 21.301985 -23.728195 
L 21.35637 -23.639102 
L 21.440854 -23.550009 
L 21.556706 -23.460917 
L 21.704913 -23.371824 
L 21.88602 -23.282731 
L 22.099935 -23.193639 
L 22.345738 -23.104546 
L 22.621508 -23.015453 
L 22.924194 -22.926361 
L 23.249554 -22.837268 
L 23.592181 -22.748175 
L 23.945618 -22.659083 
L 24.302584 -22.56999 
L 24.655285 -22.480897 
L 24.995807 -22.391805 
L 25.316544 -22.302712 
L 25.610659 -22.213619 
L 25.872507 -22.124527 
L 26.098004 -22.035434 
L 26.284905 -21.946341 
L 26.432967 -21.857249 
L 26.543973 -21.768156 
L 26.621632 -21.679063 
L 26.671352 -21.589971 
L 26.699907 -21.500878 
L 26.715033 -21.411785 
L 26.724966 -21.322693 
L 26.737975 -21.2336 
L 26.761897 -21.144507 
L 26.803711 -21.055415 
L 26.869166 -20.966322 
L 26.962474 -20.877229 
L 27.086077 -20.788137 
L 27.240499 -20.699044 
L 27.42427 -20.609951 
L 27.63395 -20.520859 
L 27.864223 -20.431766 
L 28.108092 -20.342673 
L 28.357144 -20.253581 
L 28.601896 -20.164488 
L 28.832205 -20.075395 
L 29.037728 -19.986303 
L 29.208397 -19.89721 
L 29.334908 -19.808117 
L 29.409167 -19.719025 
L 29.424688 -19.629932 
L 29.376906 -19.54084 
L 29.263388 -19.451747 
L 29.08393 -19.362654 
L 28.840539 -19.273562 
L 28.537299 -19.184469 
L 28.180141 -19.095376 
L 27.776526 -19.006284 
L 27.335078 -18.917191 
L 26.865178 -18.828098 
L 26.376553 -18.739006 
L 25.878879 -18.649913 
L 25.381425 -18.56082 
L 24.892735 -18.471728 
L 24.420387 -18.382635 
L 23.970808 -18.293542 
L 23.549164 -18.20445 
L 23.15931 -18.115357 
L 22.803814 -18.026264 
L 22.48402 -17.937172 
L 22.200163 -17.848079 
L 21.951511 -17.758986 
z
" style="stroke: #6f6f6f; stroke-width: 0.15"/>
    </defs>
    <g clip-path="url(#p45791cf21f)">
     <use xlink:href="#m4ea0ea2eb6" x="0" y="84.96" style="fill: #f2aba8; stroke: #6f6f6f; stroke-width: 0.15"/>
    </g>
   </g>
   <g id="PolyCollection_2">
    <defs>
     <path id="m872dcc70d0" d="M 44.148474 -17.597588 
L 40.593708 -17.597588 
L 40.293947 -17.67627 
L 39.963774 -17.754951 
L 39.604199 -17.833633 
L 39.217139 -17.912315 
L 38.805467 -17.990997 
L 38.373042 -18.069679 
L 37.924689 -18.14836 
L 37.466132 -18.227042 
L 37.003893 -18.305724 
L 36.545137 -18.384406 
L 36.097481 -18.463087 
L 35.66877 -18.541769 
L 35.266828 -18.620451 
L 34.899197 -18.699133 
L 34.57288 -18.777815 
L 34.294096 -18.856496 
L 34.06806 -18.935178 
L 33.898806 -19.01386 
L 33.789059 -19.092542 
L 33.740156 -19.171223 
L 33.752028 -19.249905 
L 33.823248 -19.328587 
L 33.951118 -19.407269 
L 34.131815 -19.485951 
L 34.360568 -19.564632 
L 34.631867 -19.643314 
L 34.939679 -19.721996 
L 35.277672 -19.800678 
L 35.639424 -19.879359 
L 36.01862 -19.958041 
L 36.409215 -20.036723 
L 36.805571 -20.115405 
L 37.202557 -20.194087 
L 37.595615 -20.272768 
L 37.980796 -20.35145 
L 38.354763 -20.430132 
L 38.714781 -20.508814 
L 39.058674 -20.587495 
L 39.384784 -20.666177 
L 39.691911 -20.744859 
L 39.979261 -20.823541 
L 40.246382 -20.902223 
L 40.493116 -20.980904 
L 40.719543 -21.059586 
L 40.92594 -21.138268 
L 41.112734 -21.21695 
L 41.280472 -21.295631 
L 41.429779 -21.374313 
L 41.561334 -21.452995 
L 41.675832 -21.531677 
L 41.773962 -21.610359 
L 41.856374 -21.68904 
L 41.923658 -21.767722 
L 41.97632 -21.846404 
L 42.014758 -21.925086 
L 42.039257 -22.003767 
L 42.049973 -22.082449 
L 42.04694 -22.161131 
L 42.030076 -22.239813 
L 41.999204 -22.318494 
L 41.954084 -22.397176 
L 41.894448 -22.475858 
L 41.820057 -22.55454 
L 41.730754 -22.633222 
L 41.62653 -22.711903 
L 41.507589 -22.790585 
L 41.374409 -22.869267 
L 41.22781 -22.947949 
L 41.068996 -23.02663 
L 40.899595 -23.105312 
L 40.721674 -23.183994 
L 40.537742 -23.262676 
L 40.350715 -23.341358 
L 40.163871 -23.420039 
L 39.980772 -23.498721 
L 39.805164 -23.577403 
L 39.640865 -23.656085 
L 39.491632 -23.734766 
L 39.361024 -23.813448 
L 39.252263 -23.89213 
L 39.168109 -23.970812 
L 39.110743 -24.049494 
L 39.081673 -24.128175 
L 39.081672 -24.206857 
L 39.110742 -24.285539 
L 39.168116 -24.364221 
L 39.252293 -24.442902 
L 39.3611 -24.521584 
L 39.491788 -24.600266 
L 39.641148 -24.678948 
L 39.805638 -24.75763 
L 39.981528 -24.836311 
L 40.165032 -24.914993 
L 40.352446 -24.993675 
L 40.540267 -25.072357 
L 40.725289 -25.151038 
L 40.904691 -25.22972 
L 41.076086 -25.308402 
L 41.237557 -25.387084 
L 43.504625 -25.387084 
L 43.504625 -25.387084 
L 43.666096 -25.308402 
L 43.837491 -25.22972 
L 44.016893 -25.151038 
L 44.201915 -25.072357 
L 44.389736 -24.993675 
L 44.57715 -24.914993 
L 44.760654 -24.836311 
L 44.936544 -24.75763 
L 45.101034 -24.678948 
L 45.250394 -24.600266 
L 45.381082 -24.521584 
L 45.489889 -24.442902 
L 45.574066 -24.364221 
L 45.63144 -24.285539 
L 45.66051 -24.206857 
L 45.660509 -24.128175 
L 45.631439 -24.049494 
L 45.574073 -23.970812 
L 45.489919 -23.89213 
L 45.381158 -23.813448 
L 45.250549 -23.734766 
L 45.101316 -23.656085 
L 44.937018 -23.577403 
L 44.76141 -23.498721 
L 44.578311 -23.420039 
L 44.391467 -23.341358 
L 44.20444 -23.262676 
L 44.020508 -23.183994 
L 43.842587 -23.105312 
L 43.673186 -23.02663 
L 43.514372 -22.947949 
L 43.367773 -22.869267 
L 43.234593 -22.790585 
L 43.115652 -22.711903 
L 43.011428 -22.633222 
L 42.922125 -22.55454 
L 42.847734 -22.475858 
L 42.788098 -22.397176 
L 42.742977 -22.318494 
L 42.712106 -22.239813 
L 42.695242 -22.161131 
L 42.692209 -22.082449 
L 42.702925 -22.003767 
L 42.727424 -21.925086 
L 42.765862 -21.846404 
L 42.818523 -21.767722 
L 42.885808 -21.68904 
L 42.96822 -21.610359 
L 43.06635 -21.531677 
L 43.180848 -21.452995 
L 43.312403 -21.374313 
L 43.46171 -21.295631 
L 43.629448 -21.21695 
L 43.816242 -21.138268 
L 44.022639 -21.059586 
L 44.249066 -20.980904 
L 44.4958 -20.902223 
L 44.762921 -20.823541 
L 45.050271 -20.744859 
L 45.357398 -20.666177 
L 45.683508 -20.587495 
L 46.027401 -20.508814 
L 46.387419 -20.430132 
L 46.761386 -20.35145 
L 47.146567 -20.272768 
L 47.539625 -20.194087 
L 47.936611 -20.115405 
L 48.332967 -20.036723 
L 48.723562 -19.958041 
L 49.102758 -19.879359 
L 49.46451 -19.800678 
L 49.802503 -19.721996 
L 50.110315 -19.643314 
L 50.381614 -19.564632 
L 50.610367 -19.485951 
L 50.791064 -19.407269 
L 50.918934 -19.328587 
L 50.990153 -19.249905 
L 51.002026 -19.171223 
L 50.953122 -19.092542 
L 50.843375 -19.01386 
L 50.674122 -18.935178 
L 50.448086 -18.856496 
L 50.169302 -18.777815 
L 49.842985 -18.699133 
L 49.475354 -18.620451 
L 49.073411 -18.541769 
L 48.6447 -18.463087 
L 48.197045 -18.384406 
L 47.738289 -18.305724 
L 47.27605 -18.227042 
L 46.817493 -18.14836 
L 46.36914 -18.069679 
L 45.936715 -17.990997 
L 45.525043 -17.912315 
L 45.137982 -17.833633 
L 44.778408 -17.754951 
L 44.448235 -17.67627 
L 44.148474 -17.597588 
z
" style="stroke: #6f6f6f; stroke-width: 0.15"/>
    </defs>
    <g clip-path="url(#p45791cf21f)">
     <use xlink:href="#m872dcc70d0" x="0" y="84.96" style="fill: #d3c4f6; stroke: #6f6f6f; stroke-width: 0.15"/>
    </g>
   </g>
   <g id="line2d_8">
    <path d="M 20.793753 66.082548 
L 20.793753 59.499306 
" clip-path="url(#p45791cf21f)" style="fill: none; stroke: #8c8c8c; stroke-width: 0.75; stroke-linecap: round"/>
   </g>
   <g id="line2d_9">
    <path d="M 20.793753 65.368771 
L 20.793753 63.006699 
" clip-path="url(#p45791cf21f)" style="fill: none; stroke: #8c8c8c; stroke-width: 4; stroke-linecap: round"/>
   </g>
   <g id="line2d_10">
    <path d="M 20.793753 64.554812 
" clip-path="url(#p45791cf21f)" style="fill: none; stroke: #6f6f6f; stroke-width: 1.2; stroke-linecap: round"/>
    <defs>
     <path id="me866cfc4f6" d="M 0 0.833333 
C 0.221003 0.833333 0.432983 0.745528 0.589256 0.589256 
C 0.745528 0.432983 0.833333 0.221003 0.833333 0 
C 0.833333 -0.221003 0.745528 -0.432983 0.589256 -0.589256 
C 0.432983 -0.745528 0.221003 -0.833333 0 -0.833333 
C -0.221003 -0.833333 -0.432983 -0.745528 -0.589256 -0.589256 
C -0.745528 -0.432983 -0.833333 -0.221003 -0.833333 0 
C -0.833333 0.221003 -0.745528 0.432983 -0.589256 0.589256 
C -0.432983 0.745528 -0.221003 0.833333 0 0.833333 
z
" style="stroke: #ffffff; stroke-width: 0.8"/>
    </defs>
    <g clip-path="url(#p45791cf21f)">
     <use xlink:href="#me866cfc4f6" x="20.793753" y="64.554812" style="fill: #ffffff; stroke: #ffffff; stroke-width: 0.8"/>
    </g>
   </g>
   <g id="line2d_11">
    <path d="M 42.371091 66.151686 
L 42.371091 60.783643 
" clip-path="url(#p45791cf21f)" style="fill: none; stroke: #8c8c8c; stroke-width: 0.75; stroke-linecap: round"/>
   </g>
   <g id="line2d_12">
    <path d="M 42.371091 65.905188 
L 42.371091 63.719834 
" clip-path="url(#p45791cf21f)" style="fill: none; stroke: #8c8c8c; stroke-width: 4; stroke-linecap: round"/>
   </g>
   <g id="line2d_13">
    <path d="M 42.371091 65.66196 
" clip-path="url(#p45791cf21f)" style="fill: none; stroke: #6f6f6f; stroke-width: 1.2; stroke-linecap: round"/>
    <g clip-path="url(#p45791cf21f)">
     <use xlink:href="#me866cfc4f6" x="42.371091" y="65.66196" style="fill: #ffffff; stroke: #ffffff; stroke-width: 0.8"/>
    </g>
   </g>
   <g id="patch_3">
    <path d="M 10.005084 74.419526 
L 10.005084 4.076256 
" style="fill: none; stroke: #777777; stroke-width: 0.5; stroke-linejoin: miter; stroke-linecap: square"/>
   </g>
   <g id="patch_4">
    <path d="M 10.005084 76.919526 
L 53.15976 76.919526 
" style="fill: none; stroke: #777777; stroke-width: 0.5; stroke-linejoin: miter; stroke-linecap: square"/>
   </g>
  </g>
 </g>
 <defs>
  <clipPath id="p45791cf21f">
   <rect x="10.005084" y="4.076256" width="43.154676" height="70.34327"/>
  </clipPath>
 </defs>
</svg>
