<?xml version="1.0" encoding="utf-8" standalone="no"?>
<!DOCTYPE svg PUBLIC "-//W3C//DTD SVG 1.1//EN"
  "http://www.w3.org/Graphics/SVG/1.1/DTD/svg11.dtd">
<svg xmlns:xlink="http://www.w3.org/1999/xlink" width="84.96pt" height="84.96pt" viewBox="0 0 84.96 84.96" xmlns="http://www.w3.org/2000/svg" version="1.1">
 <metadata>
  <rdf:RDF xmlns:dc="http://purl.org/dc/elements/1.1/" xmlns:cc="http://creativecommons.org/ns#" xmlns:rdf="http://www.w3.org/1999/02/22-rdf-syntax-ns#">
   <cc:Work>
    <dc:type rdf:resource="http://purl.org/dc/dcmitype/StillImage"/>
    <dc:date>2024-05-27T15:37:03.683381</dc:date>
    <dc:format>image/svg+xml</dc:format>
    <dc:creator>
     <cc:Agent>
      <dc:title>Matplotlib v3.8.3, https://matplotlib.org/</dc:title>
     </cc:Agent>
    </dc:creator>
   </cc:Work>
  </rdf:RDF>
 </metadata>
 <defs>
  <style type="text/css">*{stroke-linejoin: round; stroke-linecap: butt}</style>
 </defs>
 <g id="figure_1">
  <g id="patch_1">
   <path d="M 0 84.96 
L 84.96 84.96 
L 84.96 0 
L 0 0 
z
" style="fill: #ffffff"/>
  </g>
  <g id="axes_1">
   <g id="patch_2">
    <path d="M 8.336802 74.419526 
L 81.95976 74.419526 
L 81.95976 4.076256 
L 8.336802 4.076256 
z
" style="fill: #ffffff"/>
   </g>
   <g id="matplotlib.axis_1">
    <g id="xtick_1">
     <g id="text_1">
      <!-- NK/ILC1ie -->
      <g style="fill: #333333" transform="translate(12.63167 81.230229) scale(0.035 -0.035)">
       <defs>
        <path id="Helvetica-4e" d="M 488 4591 
L 1222 4591 
L 3541 872 
L 3541 4591 
L 4131 4591 
L 4131 0 
L 3434 0 
L 1081 3716 
L 1081 0 
L 488 0 
L 488 4591 
z
M 2269 4591 
L 2269 4591 
z
" transform="scale(0.015625)"/>
        <path id="Helvetica-4b" d="M 488 4591 
L 1094 4591 
L 1094 2353 
L 3331 4591 
L 4191 4591 
L 2281 2741 
L 4244 0 
L 3434 0 
L 1828 2303 
L 1094 1600 
L 1094 0 
L 488 0 
L 488 4591 
z
" transform="scale(0.015625)"/>
        <path id="Helvetica-2f" d="M 1456 4591 
L 1931 4591 
L 475 0 
L 0 0 
L 1456 4591 
z
" transform="scale(0.015625)"/>
        <path id="Helvetica-49" d="M 628 4591 
L 1256 4591 
L 1256 0 
L 628 0 
L 628 4591 
z
" transform="scale(0.015625)"/>
        <path id="Helvetica-4c" d="M 488 4591 
L 1109 4591 
L 1109 547 
L 3434 547 
L 3434 0 
L 488 0 
L 488 4591 
z
" transform="scale(0.015625)"/>
        <path id="Helvetica-43" d="M 2422 4716 
Q 3294 4716 3775 4256 
Q 4256 3797 4309 3213 
L 3703 3213 
Q 3600 3656 3292 3915 
Q 2984 4175 2428 4175 
Q 1750 4175 1333 3698 
Q 916 3222 916 2238 
Q 916 1431 1292 929 
Q 1669 428 2416 428 
Q 3103 428 3463 956 
Q 3653 1234 3747 1688 
L 4353 1688 
Q 4272 963 3816 472 
Q 3269 -119 2341 -119 
Q 1541 -119 997 366 
Q 281 1006 281 2344 
Q 281 3359 819 4009 
Q 1400 4716 2422 4716 
z
M 2297 4716 
L 2297 4716 
z
" transform="scale(0.015625)"/>
        <path id="Helvetica-31" d="M 613 3169 
L 613 3600 
Q 1222 3659 1462 3798 
Q 1703 3938 1822 4456 
L 2266 4456 
L 2266 0 
L 1666 0 
L 1666 3169 
L 613 3169 
z
" transform="scale(0.015625)"/>
        <path id="Helvetica-69" d="M 413 3331 
L 984 3331 
L 984 0 
L 413 0 
L 413 3331 
z
M 413 4591 
L 984 4591 
L 984 3953 
L 413 3953 
L 413 4591 
z
" transform="scale(0.015625)"/>
        <path id="Helvetica-65" d="M 1806 3422 
Q 2163 3422 2497 3255 
Q 2831 3088 3006 2822 
Q 3175 2569 3231 2231 
Q 3281 2000 3281 1494 
L 828 1494 
Q 844 984 1069 676 
Q 1294 369 1766 369 
Q 2206 369 2469 659 
Q 2619 828 2681 1050 
L 3234 1050 
Q 3213 866 3089 639 
Q 2966 413 2813 269 
Q 2556 19 2178 -69 
Q 1975 -119 1719 -119 
Q 1094 -119 659 336 
Q 225 791 225 1609 
Q 225 2416 662 2919 
Q 1100 3422 1806 3422 
z
M 2703 1941 
Q 2669 2306 2544 2525 
Q 2313 2931 1772 2931 
Q 1384 2931 1121 2651 
Q 859 2372 844 1941 
L 2703 1941 
z
M 1753 3428 
L 1753 3428 
z
" transform="scale(0.015625)"/>
       </defs>
       <use xlink:href="#Helvetica-4e"/>
       <use xlink:href="#Helvetica-4b" x="72.216797"/>
       <use xlink:href="#Helvetica-2f" x="138.916016"/>
       <use xlink:href="#Helvetica-49" x="166.699219"/>
       <use xlink:href="#Helvetica-4c" x="194.482422"/>
       <use xlink:href="#Helvetica-43" x="250.097656"/>
       <use xlink:href="#Helvetica-31" x="322.314453"/>
       <use xlink:href="#Helvetica-69" x="377.929688"/>
       <use xlink:href="#Helvetica-65" x="400.146484"/>
      </g>
     </g>
    </g>
    <g id="xtick_2">
     <g id="text_2">
      <!-- ILC1 -->
      <g style="fill: #333333" transform="translate(41.451953 81.230229) scale(0.035 -0.035)">
       <use xlink:href="#Helvetica-49"/>
       <use xlink:href="#Helvetica-4c" x="27.783203"/>
       <use xlink:href="#Helvetica-43" x="83.398438"/>
       <use xlink:href="#Helvetica-31" x="155.615234"/>
      </g>
     </g>
    </g>
    <g id="xtick_3">
     <g id="text_3">
      <!-- TH1 -->
      <g style="fill: #333333" transform="translate(66.383408 81.230229) scale(0.035 -0.035)">
       <defs>
        <path id="Helvetica-54" d="M 3828 4591 
L 3828 4044 
L 2281 4044 
L 2281 0 
L 1650 0 
L 1650 4044 
L 103 4044 
L 103 4591 
L 3828 4591 
z
" transform="scale(0.015625)"/>
        <path id="Helvetica-48" d="M 503 4591 
L 1131 4591 
L 1131 2694 
L 3519 2694 
L 3519 4591 
L 4147 4591 
L 4147 0 
L 3519 0 
L 3519 2147 
L 1131 2147 
L 1131 0 
L 503 0 
L 503 4591 
z
" transform="scale(0.015625)"/>
       </defs>
       <use xlink:href="#Helvetica-54"/>
       <use xlink:href="#Helvetica-48" x="61.083984"/>
       <use xlink:href="#Helvetica-31" x="133.300781"/>
      </g>
     </g>
    </g>
   </g>
   <g id="matplotlib.axis_2">
    <g id="ytick_1">
     <g id="line2d_1">
      <defs>
       <path id="m8db7d5a7f8" d="M 0 0 
L -1 0 
" style="stroke: #777777; stroke-width: 0.5"/>
      </defs>
      <g>
       <use xlink:href="#m8db7d5a7f8" x="8.336802" y="66.995102" style="fill: #777777; stroke: #777777; stroke-width: 0.5"/>
      </g>
     </g>
     <g id="text_4">
      <!-- 0 -->
      <g style="fill: #333333" transform="translate(4.668521 68.071117) scale(0.03 -0.03)">
       <defs>
        <path id="Helvetica-30" d="M 1731 4475 
Q 2600 4475 2988 3759 
Q 3288 3206 3288 2244 
Q 3288 1331 3016 734 
Q 2622 -122 1728 -122 
Q 922 -122 528 578 
Q 200 1163 200 2147 
Q 200 2909 397 3456 
Q 766 4475 1731 4475 
z
M 1725 391 
Q 2163 391 2422 778 
Q 2681 1166 2681 2222 
Q 2681 2984 2493 3476 
Q 2306 3969 1766 3969 
Q 1269 3969 1039 3501 
Q 809 3034 809 2125 
Q 809 1441 956 1025 
Q 1181 391 1725 391 
z
" transform="scale(0.015625)"/>
       </defs>
       <use xlink:href="#Helvetica-30"/>
      </g>
     </g>
    </g>
    <g id="ytick_2">
     <g id="line2d_2">
      <g>
       <use xlink:href="#m8db7d5a7f8" x="8.336802" y="54.411333" style="fill: #777777; stroke: #777777; stroke-width: 0.5"/>
      </g>
     </g>
     <g id="text_5">
      <!-- 10 -->
      <g style="fill: #333333" transform="translate(3.00024 55.487348) scale(0.03 -0.03)">
       <use xlink:href="#Helvetica-31"/>
       <use xlink:href="#Helvetica-30" x="55.615234"/>
      </g>
     </g>
    </g>
    <g id="ytick_3">
     <g id="line2d_3">
      <g>
       <use xlink:href="#m8db7d5a7f8" x="8.336802" y="41.827563" style="fill: #777777; stroke: #777777; stroke-width: 0.5"/>
      </g>
     </g>
     <g id="text_6">
      <!-- 20 -->
      <g style="fill: #333333" transform="translate(3.00024 42.903579) scale(0.03 -0.03)">
       <defs>
        <path id="Helvetica-32" d="M 200 0 
Q 231 578 439 1006 
Q 647 1434 1250 1784 
L 1850 2131 
Q 2253 2366 2416 2531 
Q 2672 2791 2672 3125 
Q 2672 3516 2437 3745 
Q 2203 3975 1813 3975 
Q 1234 3975 1013 3538 
Q 894 3303 881 2888 
L 309 2888 
Q 319 3472 525 3841 
Q 891 4491 1816 4491 
Q 2584 4491 2939 4075 
Q 3294 3659 3294 3150 
Q 3294 2613 2916 2231 
Q 2697 2009 2131 1694 
L 1703 1456 
Q 1397 1288 1222 1134 
Q 909 863 828 531 
L 3272 531 
L 3272 0 
L 200 0 
z
" transform="scale(0.015625)"/>
       </defs>
       <use xlink:href="#Helvetica-32"/>
       <use xlink:href="#Helvetica-30" x="55.615234"/>
      </g>
     </g>
    </g>
    <g id="ytick_4">
     <g id="line2d_4">
      <g>
       <use xlink:href="#m8db7d5a7f8" x="8.336802" y="29.243794" style="fill: #777777; stroke: #777777; stroke-width: 0.5"/>
      </g>
     </g>
     <g id="text_7">
      <!-- 30 -->
      <g style="fill: #333333" transform="translate(3.00024 30.31981) scale(0.03 -0.03)">
       <defs>
        <path id="Helvetica-33" d="M 1663 -122 
Q 869 -122 511 314 
Q 153 750 153 1375 
L 741 1375 
Q 778 941 903 744 
Q 1122 391 1694 391 
Q 2138 391 2406 628 
Q 2675 866 2675 1241 
Q 2675 1703 2392 1887 
Q 2109 2072 1606 2072 
Q 1550 2072 1492 2070 
Q 1434 2069 1375 2066 
L 1375 2563 
Q 1463 2553 1522 2550 
Q 1581 2547 1650 2547 
Q 1966 2547 2169 2647 
Q 2525 2822 2525 3272 
Q 2525 3606 2287 3787 
Q 2050 3969 1734 3969 
Q 1172 3969 956 3594 
Q 838 3388 822 3006 
L 266 3006 
Q 266 3506 466 3856 
Q 809 4481 1675 4481 
Q 2359 4481 2734 4176 
Q 3109 3872 3109 3294 
Q 3109 2881 2888 2625 
Q 2750 2466 2531 2375 
Q 2884 2278 3082 2001 
Q 3281 1725 3281 1325 
Q 3281 684 2859 281 
Q 2438 -122 1663 -122 
z
" transform="scale(0.015625)"/>
       </defs>
       <use xlink:href="#Helvetica-33"/>
       <use xlink:href="#Helvetica-30" x="55.615234"/>
      </g>
     </g>
    </g>
    <g id="ytick_5">
     <g id="line2d_5">
      <g>
       <use xlink:href="#m8db7d5a7f8" x="8.336802" y="16.660025" style="fill: #777777; stroke: #777777; stroke-width: 0.5"/>
      </g>
     </g>
     <g id="text_8">
      <!-- 40 -->
      <g style="fill: #333333" transform="translate(3.00024 17.73604) scale(0.03 -0.03)">
       <defs>
        <path id="Helvetica-34" d="M 2116 1584 
L 2116 3613 
L 681 1584 
L 2116 1584 
z
M 2125 0 
L 2125 1094 
L 163 1094 
L 163 1644 
L 2213 4488 
L 2688 4488 
L 2688 1584 
L 3347 1584 
L 3347 1094 
L 2688 1094 
L 2688 0 
L 2125 0 
z
" transform="scale(0.015625)"/>
       </defs>
       <use xlink:href="#Helvetica-34"/>
       <use xlink:href="#Helvetica-30" x="55.615234"/>
      </g>
     </g>
    </g>
    <g id="ytick_6">
     <g id="line2d_6">
      <g>
       <use xlink:href="#m8db7d5a7f8" x="8.336802" y="4.076256" style="fill: #777777; stroke: #777777; stroke-width: 0.5"/>
      </g>
     </g>
     <g id="text_9">
      <!-- 50 -->
      <g style="fill: #333333" transform="translate(3.00024 5.152271) scale(0.03 -0.03)">
       <defs>
        <path id="Helvetica-35" d="M 791 1141 
Q 847 659 1238 475 
Q 1438 381 1700 381 
Q 2200 381 2440 700 
Q 2681 1019 2681 1406 
Q 2681 1875 2395 2131 
Q 2109 2388 1709 2388 
Q 1419 2388 1211 2275 
Q 1003 2163 856 1963 
L 369 1991 
L 709 4400 
L 3034 4400 
L 3034 3856 
L 1131 3856 
L 941 2613 
Q 1097 2731 1238 2791 
Q 1488 2894 1816 2894 
Q 2431 2894 2859 2497 
Q 3288 2100 3288 1491 
Q 3288 856 2895 371 
Q 2503 -113 1644 -113 
Q 1097 -113 676 195 
Q 256 503 206 1141 
L 791 1141 
z
" transform="scale(0.015625)"/>
       </defs>
       <use xlink:href="#Helvetica-35"/>
       <use xlink:href="#Helvetica-30" x="55.615234"/>
      </g>
     </g>
    </g>
   </g>
   <g id="PolyCollection_1">
    <defs>
     <path id="m74fed15f05" d="M 22.657962 -17.960657 
L 18.556629 -17.960657 
L 18.180112 -17.960966 
L 17.763026 -17.961275 
L 17.307186 -17.961584 
L 16.815845 -17.961892 
L 16.293761 -17.962201 
L 15.74721 -17.96251 
L 15.183908 -17.962819 
L 14.612874 -17.963128 
L 14.044205 -17.963436 
L 13.488789 -17.963745 
L 12.957955 -17.964054 
L 12.463087 -17.964363 
L 12.015213 -17.964671 
L 11.624594 -17.96498 
L 11.300337 -17.965289 
L 11.050043 -17.965598 
L 10.879523 -17.965906 
L 10.792584 -17.966215 
L 10.790901 -17.966524 
L 10.873977 -17.966833 
L 11.039191 -17.967141 
L 11.281931 -17.96745 
L 11.5958 -17.967759 
L 11.972878 -17.968068 
L 12.404039 -17.968376 
L 12.87928 -17.968685 
L 13.388079 -17.968994 
L 13.919739 -17.969303 
L 14.463708 -17.969612 
L 15.009879 -17.96992 
L 15.548836 -17.970229 
L 16.072061 -17.970538 
L 16.572083 -17.970847 
L 17.042574 -17.971155 
L 17.478393 -17.971464 
L 17.875594 -17.971773 
L 18.231379 -17.972082 
L 18.54403 -17.97239 
L 18.812822 -17.972699 
L 19.037912 -17.973008 
L 19.220236 -17.973317 
L 19.361399 -17.973625 
L 19.463581 -17.973934 
L 19.529451 -17.974243 
L 19.562093 -17.974552 
L 19.564945 -17.97486 
L 19.541745 -17.975169 
L 19.496477 -17.975478 
L 19.433325 -17.975787 
L 19.35661 -17.976095 
L 19.270719 -17.976404 
L 19.180024 -17.976713 
L 19.088784 -17.977022 
L 19.00103 -17.977331 
L 18.920451 -17.977639 
L 18.850271 -17.977948 
L 18.793129 -17.978257 
L 18.750981 -17.978566 
L 18.725019 -17.978874 
L 18.715618 -17.979183 
L 18.722324 -17.979492 
L 18.743883 -17.979801 
L 18.778302 -17.980109 
L 18.82296 -17.980418 
L 18.874751 -17.980727 
L 18.930246 -17.981036 
L 18.985889 -17.981344 
L 19.038185 -17.981653 
L 19.083896 -17.981962 
L 19.120222 -17.982271 
L 19.144951 -17.982579 
L 19.156586 -17.982888 
L 19.154424 -17.983197 
L 19.138599 -17.983506 
L 19.110074 -17.983815 
L 19.070585 -17.984123 
L 19.022554 -17.984432 
L 18.968947 -17.984741 
L 18.913121 -17.98505 
L 18.858638 -17.985358 
L 18.809074 -17.985667 
L 18.767831 -17.985976 
L 18.737956 -17.986285 
L 18.721995 -17.986593 
L 18.721863 -17.986902 
L 18.738767 -17.987211 
L 18.773162 -17.98752 
L 18.824758 -17.987828 
L 18.892562 -17.988137 
L 18.974964 -17.988446 
L 19.069844 -17.988755 
L 19.174709 -17.989063 
L 19.286835 -17.989372 
L 19.403415 -17.989681 
L 19.52169 -17.98999 
L 19.639078 -17.990298 
L 19.753264 -17.990607 
L 19.862283 -17.990916 
L 19.964555 -17.991225 
L 21.250036 -17.991225 
L 21.250036 -17.991225 
L 21.352308 -17.990916 
L 21.461326 -17.990607 
L 21.575513 -17.990298 
L 21.692901 -17.98999 
L 21.811176 -17.989681 
L 21.927756 -17.989372 
L 22.039882 -17.989063 
L 22.144747 -17.988755 
L 22.239627 -17.988446 
L 22.322029 -17.988137 
L 22.389833 -17.987828 
L 22.441429 -17.98752 
L 22.475824 -17.987211 
L 22.492728 -17.986902 
L 22.492596 -17.986593 
L 22.476634 -17.986285 
L 22.44676 -17.985976 
L 22.405516 -17.985667 
L 22.355953 -17.985358 
L 22.30147 -17.98505 
L 22.245644 -17.984741 
L 22.192037 -17.984432 
L 22.144006 -17.984123 
L 22.104517 -17.983815 
L 22.075992 -17.983506 
L 22.060167 -17.983197 
L 22.058005 -17.982888 
L 22.06964 -17.982579 
L 22.094369 -17.982271 
L 22.130695 -17.981962 
L 22.176406 -17.981653 
L 22.228702 -17.981344 
L 22.284344 -17.981036 
L 22.33984 -17.980727 
L 22.391631 -17.980418 
L 22.436289 -17.980109 
L 22.470708 -17.979801 
L 22.492266 -17.979492 
L 22.498973 -17.979183 
L 22.489572 -17.978874 
L 22.46361 -17.978566 
L 22.421462 -17.978257 
L 22.36432 -17.977948 
L 22.29414 -17.977639 
L 22.213561 -17.977331 
L 22.125807 -17.977022 
L 22.034567 -17.976713 
L 21.943872 -17.976404 
L 21.857981 -17.976095 
L 21.781266 -17.975787 
L 21.718114 -17.975478 
L 21.672846 -17.975169 
L 21.649645 -17.97486 
L 21.652498 -17.974552 
L 21.68514 -17.974243 
L 21.75101 -17.973934 
L 21.853192 -17.973625 
L 21.994355 -17.973317 
L 22.176678 -17.973008 
L 22.401769 -17.972699 
L 22.67056 -17.97239 
L 22.983212 -17.972082 
L 23.338996 -17.971773 
L 23.736197 -17.971464 
L 24.172017 -17.971155 
L 24.642507 -17.970847 
L 25.142529 -17.970538 
L 25.665755 -17.970229 
L 26.204712 -17.96992 
L 26.750883 -17.969612 
L 27.294852 -17.969303 
L 27.826511 -17.968994 
L 28.335311 -17.968685 
L 28.810552 -17.968376 
L 29.241712 -17.968068 
L 29.618791 -17.967759 
L 29.93266 -17.96745 
L 30.1754 -17.967141 
L 30.340614 -17.966833 
L 30.42369 -17.966524 
L 30.422007 -17.966215 
L 30.335068 -17.965906 
L 30.164548 -17.965598 
L 29.914254 -17.965289 
L 29.589997 -17.96498 
L 29.199378 -17.964671 
L 28.751504 -17.964363 
L 28.256636 -17.964054 
L 27.725801 -17.963745 
L 27.170385 -17.963436 
L 26.601717 -17.963128 
L 26.030683 -17.962819 
L 25.467381 -17.96251 
L 24.92083 -17.962201 
L 24.398746 -17.961892 
L 23.907404 -17.961584 
L 23.451565 -17.961275 
L 23.034479 -17.960966 
L 22.657962 -17.960657 
z
" style="stroke: #6f6f6f; stroke-width: 0.15"/>
    </defs>
    <g clip-path="url(#p51d2dd1cf9)">
     <use xlink:href="#m74fed15f05" x="0" y="84.96" style="fill: #98daa7; stroke: #6f6f6f; stroke-width: 0.15"/>
    </g>
   </g>
   <g id="PolyCollection_2">
    <defs>
     <path id="m283caf1237" d="M 46.903467 -17.685472 
L 43.393095 -17.685472 
L 43.023543 -17.708527 
L 42.605615 -17.731581 
L 42.14015 -17.754636 
L 41.629846 -17.777691 
L 41.079444 -17.800746 
L 40.495825 -17.8238 
L 39.888001 -17.846855 
L 39.266973 -17.86991 
L 38.645464 -17.892964 
L 38.037526 -17.916019 
L 37.458028 -17.939074 
L 36.922066 -17.962128 
L 36.444307 -17.985183 
L 36.038327 -18.008238 
L 35.71597 -18.031293 
L 35.486776 -18.054347 
L 35.357521 -18.077402 
L 35.331887 -18.100457 
L 35.410298 -18.123511 
L 35.589923 -18.146566 
L 35.864846 -18.169621 
L 36.226384 -18.192676 
L 36.663544 -18.21573 
L 37.163562 -18.238785 
L 37.712512 -18.26184 
L 38.29593 -18.284894 
L 38.899423 -18.307949 
L 39.509228 -18.331004 
L 40.112682 -18.354059 
L 40.698614 -18.377113 
L 41.257603 -18.400168 
L 41.782144 -18.423223 
L 42.266691 -18.446277 
L 42.707606 -18.469332 
L 43.103032 -18.492387 
L 43.452692 -18.515441 
L 43.757651 -18.538496 
L 44.020056 -18.561551 
L 44.242863 -18.584606 
L 44.429582 -18.60766 
L 44.58404 -18.630715 
L 44.710179 -18.65377 
L 44.81188 -18.676824 
L 44.892842 -18.699879 
L 44.956479 -18.722934 
L 45.005866 -18.745989 
L 45.043705 -18.769043 
L 45.072318 -18.792098 
L 45.093661 -18.815153 
L 45.109343 -18.838207 
L 45.120663 -18.861262 
L 45.128641 -18.884317 
L 45.134056 -18.907372 
L 45.137478 -18.930426 
L 45.139297 -18.953481 
L 45.139747 -18.976536 
L 45.138923 -18.99959 
L 45.136795 -19.022645 
L 45.133218 -19.0457 
L 45.127932 -19.068754 
L 45.120572 -19.091809 
L 45.110665 -19.114864 
L 45.097638 -19.137919 
L 45.080827 -19.160973 
L 45.059492 -19.184028 
L 45.032841 -19.207083 
L 45.000061 -19.230137 
L 44.960365 -19.253192 
L 44.913041 -19.276247 
L 44.857521 -19.299302 
L 44.793439 -19.322356 
L 44.720709 -19.345411 
L 44.639589 -19.368466 
L 44.550732 -19.39152 
L 44.455233 -19.414575 
L 44.354637 -19.43763 
L 44.250935 -19.460685 
L 44.146515 -19.483739 
L 44.044089 -19.506794 
L 43.946585 -19.529849 
L 43.857012 -19.552903 
L 43.778312 -19.575958 
L 43.713199 -19.599013 
L 43.664006 -19.622067 
L 43.632543 -19.645122 
L 43.61999 -19.668177 
L 43.626824 -19.691232 
L 43.652785 -19.714286 
L 43.696896 -19.737341 
L 43.757521 -19.760396 
L 43.83247 -19.78345 
L 43.919125 -19.806505 
L 44.014597 -19.82956 
L 44.115878 -19.852615 
L 44.220002 -19.875669 
L 44.324182 -19.898724 
L 44.425923 -19.921779 
L 44.523112 -19.944833 
L 44.614068 -19.967888 
L 45.682494 -19.967888 
L 45.682494 -19.967888 
L 45.77345 -19.944833 
L 45.870639 -19.921779 
L 45.972381 -19.898724 
L 46.07656 -19.875669 
L 46.180685 -19.852615 
L 46.281966 -19.82956 
L 46.377437 -19.806505 
L 46.464093 -19.78345 
L 46.539041 -19.760396 
L 46.599667 -19.737341 
L 46.643777 -19.714286 
L 46.669738 -19.691232 
L 46.676572 -19.668177 
L 46.66402 -19.645122 
L 46.632557 -19.622067 
L 46.583363 -19.599013 
L 46.51825 -19.575958 
L 46.43955 -19.552903 
L 46.349978 -19.529849 
L 46.252473 -19.506794 
L 46.150048 -19.483739 
L 46.045628 -19.460685 
L 45.941926 -19.43763 
L 45.84133 -19.414575 
L 45.74583 -19.39152 
L 45.656973 -19.368466 
L 45.575853 -19.345411 
L 45.503124 -19.322356 
L 45.439042 -19.299302 
L 45.383521 -19.276247 
L 45.336198 -19.253192 
L 45.296502 -19.230137 
L 45.263722 -19.207083 
L 45.23707 -19.184028 
L 45.215736 -19.160973 
L 45.198925 -19.137919 
L 45.185898 -19.114864 
L 45.175991 -19.091809 
L 45.16863 -19.068754 
L 45.163345 -19.0457 
L 45.159768 -19.022645 
L 45.15764 -18.99959 
L 45.156816 -18.976536 
L 45.157266 -18.953481 
L 45.159085 -18.930426 
L 45.162507 -18.907372 
L 45.167922 -18.884317 
L 45.1759 -18.861262 
L 45.18722 -18.838207 
L 45.202902 -18.815153 
L 45.224244 -18.792098 
L 45.252858 -18.769043 
L 45.290696 -18.745989 
L 45.340083 -18.722934 
L 45.403721 -18.699879 
L 45.484682 -18.676824 
L 45.586384 -18.65377 
L 45.712522 -18.630715 
L 45.866981 -18.60766 
L 46.0537 -18.584606 
L 46.276507 -18.561551 
L 46.538911 -18.538496 
L 46.843871 -18.515441 
L 47.19353 -18.492387 
L 47.588956 -18.469332 
L 48.029872 -18.446277 
L 48.514418 -18.423223 
L 49.038959 -18.400168 
L 49.597949 -18.377113 
L 50.18388 -18.354059 
L 50.787335 -18.331004 
L 51.397139 -18.307949 
L 52.000633 -18.284894 
L 52.584051 -18.26184 
L 53.133 -18.238785 
L 53.633018 -18.21573 
L 54.070178 -18.192676 
L 54.431717 -18.169621 
L 54.706639 -18.146566 
L 54.886265 -18.123511 
L 54.964676 -18.100457 
L 54.939041 -18.077402 
L 54.809786 -18.054347 
L 54.580593 -18.031293 
L 54.258236 -18.008238 
L 53.852256 -17.985183 
L 53.374497 -17.962128 
L 52.838534 -17.939074 
L 52.259037 -17.916019 
L 51.651098 -17.892964 
L 51.029589 -17.86991 
L 50.408561 -17.846855 
L 49.800737 -17.8238 
L 49.217119 -17.800746 
L 48.666716 -17.777691 
L 48.156413 -17.754636 
L 47.690948 -17.731581 
L 47.273019 -17.708527 
L 46.903467 -17.685472 
z
" style="stroke: #6f6f6f; stroke-width: 0.15"/>
    </defs>
    <g clip-path="url(#p51d2dd1cf9)">
     <use xlink:href="#m283caf1237" x="0" y="84.96" style="fill: #f2aba8; stroke: #6f6f6f; stroke-width: 0.15"/>
    </g>
   </g>
   <g id="PolyCollection_3">
    <defs>
     <path id="m25d642c0d3" d="M 72.092829 -17.842703 
L 67.285706 -17.842703 
L 66.839067 -17.852086 
L 66.348251 -17.861469 
L 65.817585 -17.870852 
L 65.25341 -17.880236 
L 64.664046 -17.889619 
L 64.059636 -17.899002 
L 63.451856 -17.908385 
L 62.853514 -17.917769 
L 62.278052 -17.927152 
L 61.738974 -17.936535 
L 61.249247 -17.945918 
L 60.820717 -17.955302 
L 60.463564 -17.964685 
L 60.185864 -17.974068 
L 59.993263 -17.983451 
L 59.8888 -17.992835 
L 59.872873 -18.002218 
L 59.943354 -18.011601 
L 60.095834 -18.020984 
L 60.323965 -18.030367 
L 60.619872 -18.039751 
L 60.974595 -18.049134 
L 61.378531 -18.058517 
L 61.821845 -18.0679 
L 62.294825 -18.077284 
L 62.788174 -18.086667 
L 63.293217 -18.09605 
L 63.802053 -18.105433 
L 64.307629 -18.114817 
L 64.803775 -18.1242 
L 65.285194 -18.133583 
L 65.747435 -18.142966 
L 66.186846 -18.15235 
L 66.600532 -18.161733 
L 66.986311 -18.171116 
L 67.342664 -18.180499 
L 67.668701 -18.189883 
L 67.964119 -18.199266 
L 68.229155 -18.208649 
L 68.464537 -18.218032 
L 68.671426 -18.227415 
L 68.851352 -18.236799 
L 69.006138 -18.246182 
L 69.13783 -18.255565 
L 69.248613 -18.264948 
L 69.340736 -18.274332 
L 69.416445 -18.283715 
L 69.477915 -18.293098 
L 69.527204 -18.302481 
L 69.566205 -18.311865 
L 69.596624 -18.321248 
L 69.619956 -18.330631 
L 69.637475 -18.340014 
L 69.650239 -18.349398 
L 69.659085 -18.358781 
L 69.664643 -18.368164 
L 69.667344 -18.377547 
L 69.667429 -18.38693 
L 69.66496 -18.396314 
L 69.65983 -18.405697 
L 69.651773 -18.41508 
L 69.640376 -18.424463 
L 69.625093 -18.433847 
L 69.605265 -18.44323 
L 69.580143 -18.452613 
L 69.548924 -18.461996 
L 69.510791 -18.47138 
L 69.464966 -18.480763 
L 69.410773 -18.490146 
L 69.3477 -18.499529 
L 69.275477 -18.508913 
L 69.194143 -18.518296 
L 69.104112 -18.527679 
L 69.006225 -18.537062 
L 68.901785 -18.546446 
L 68.79256 -18.555829 
L 68.680764 -18.565212 
L 68.569005 -18.574595 
L 68.460193 -18.583978 
L 68.357426 -18.593362 
L 68.263848 -18.602745 
L 68.182491 -18.612128 
L 68.116115 -18.621511 
L 68.067051 -18.630895 
L 68.037068 -18.640278 
L 68.027263 -18.649661 
L 68.037999 -18.659044 
L 68.06888 -18.668428 
L 68.118774 -18.677811 
L 68.185886 -18.687194 
L 68.267861 -18.696577 
L 68.361925 -18.705961 
L 68.465035 -18.715344 
L 68.574048 -18.724727 
L 68.68587 -18.73411 
L 68.797603 -18.743493 
L 68.906657 -18.752877 
L 69.010837 -18.76226 
L 69.108394 -18.771643 
L 70.27014 -18.771643 
L 70.27014 -18.771643 
L 70.367698 -18.76226 
L 70.471877 -18.752877 
L 70.580931 -18.743493 
L 70.692664 -18.73411 
L 70.804486 -18.724727 
L 70.913499 -18.715344 
L 71.016609 -18.705961 
L 71.110673 -18.696577 
L 71.192648 -18.687194 
L 71.25976 -18.677811 
L 71.309654 -18.668428 
L 71.340535 -18.659044 
L 71.351271 -18.649661 
L 71.341466 -18.640278 
L 71.311483 -18.630895 
L 71.262419 -18.621511 
L 71.196043 -18.612128 
L 71.114686 -18.602745 
L 71.021108 -18.593362 
L 70.918341 -18.583978 
L 70.809529 -18.574595 
L 70.69777 -18.565212 
L 70.585974 -18.555829 
L 70.476749 -18.546446 
L 70.372309 -18.537062 
L 70.274422 -18.527679 
L 70.184392 -18.518296 
L 70.103057 -18.508913 
L 70.030834 -18.499529 
L 69.967761 -18.490146 
L 69.913568 -18.480763 
L 69.867744 -18.47138 
L 69.829611 -18.461996 
L 69.798391 -18.452613 
L 69.773269 -18.44323 
L 69.753441 -18.433847 
L 69.738158 -18.424463 
L 69.726761 -18.41508 
L 69.718704 -18.405697 
L 69.713574 -18.396314 
L 69.711105 -18.38693 
L 69.71119 -18.377547 
L 69.713891 -18.368164 
L 69.71945 -18.358781 
L 69.728295 -18.349398 
L 69.741059 -18.340014 
L 69.758578 -18.330631 
L 69.78191 -18.321248 
L 69.812329 -18.311865 
L 69.851331 -18.302481 
L 69.900619 -18.293098 
L 69.96209 -18.283715 
L 70.037798 -18.274332 
L 70.129921 -18.264948 
L 70.240704 -18.255565 
L 70.372396 -18.246182 
L 70.527183 -18.236799 
L 70.707108 -18.227415 
L 70.913997 -18.218032 
L 71.149379 -18.208649 
L 71.414415 -18.199266 
L 71.709833 -18.189883 
L 72.035871 -18.180499 
L 72.392224 -18.171116 
L 72.778002 -18.161733 
L 73.191689 -18.15235 
L 73.631099 -18.142966 
L 74.09334 -18.133583 
L 74.574759 -18.1242 
L 75.070905 -18.114817 
L 75.576481 -18.105433 
L 76.085317 -18.09605 
L 76.59036 -18.086667 
L 77.083709 -18.077284 
L 77.55669 -18.0679 
L 78.000003 -18.058517 
L 78.403939 -18.049134 
L 78.758662 -18.039751 
L 79.054569 -18.030367 
L 79.2827 -18.020984 
L 79.435181 -18.011601 
L 79.505661 -18.002218 
L 79.489734 -17.992835 
L 79.385271 -17.983451 
L 79.192671 -17.974068 
L 78.914971 -17.964685 
L 78.557817 -17.955302 
L 78.129287 -17.945918 
L 77.639561 -17.936535 
L 77.100482 -17.927152 
L 76.52502 -17.917769 
L 75.926678 -17.908385 
L 75.318898 -17.899002 
L 74.714488 -17.889619 
L 74.125125 -17.880236 
L 73.560949 -17.870852 
L 73.030283 -17.861469 
L 72.539468 -17.852086 
L 72.092829 -17.842703 
z
" style="stroke: #6f6f6f; stroke-width: 0.15"/>
    </defs>
    <g clip-path="url(#p51d2dd1cf9)">
     <use xlink:href="#m25d642c0d3" x="0" y="84.96" style="fill: #d3c4f6; stroke: #6f6f6f; stroke-width: 0.15"/>
    </g>
   </g>
   <g id="line2d_7">
    <path d="M 20.607295 66.995102 
L 20.607295 66.980995 
" clip-path="url(#p51d2dd1cf9)" style="fill: none; stroke: #8c8c8c; stroke-width: 0.75; stroke-linecap: round"/>
   </g>
   <g id="line2d_8">
    <path d="M 20.607295 66.994494 
L 20.607295 66.988629 
" clip-path="url(#p51d2dd1cf9)" style="fill: none; stroke: #8c8c8c; stroke-width: 4; stroke-linecap: round"/>
   </g>
   <g id="line2d_9">
    <path d="M 20.607295 66.99281 
" clip-path="url(#p51d2dd1cf9)" style="fill: none; stroke: #6f6f6f; stroke-width: 1.2; stroke-linecap: round"/>
    <defs>
     <path id="m7b5b7c97ea" d="M 0 0.833333 
C 0.221003 0.833333 0.432983 0.745528 0.589256 0.589256 
C 0.745528 0.432983 0.833333 0.221003 0.833333 0 
C 0.833333 -0.221003 0.745528 -0.432983 0.589256 -0.589256 
C 0.432983 -0.745528 0.221003 -0.833333 0 -0.833333 
C -0.221003 -0.833333 -0.432983 -0.745528 -0.589256 -0.589256 
C -0.745528 -0.432983 -0.833333 -0.221003 -0.833333 0 
C -0.833333 0.221003 -0.745528 0.432983 -0.589256 0.589256 
C -0.432983 0.745528 -0.221003 0.833333 0 0.833333 
z
" style="stroke: #ffffff; stroke-width: 0.8"/>
    </defs>
    <g clip-path="url(#p51d2dd1cf9)">
     <use xlink:href="#m7b5b7c97ea" x="20.607295" y="66.99281" style="fill: #ffffff; stroke: #ffffff; stroke-width: 0.8"/>
    </g>
   </g>
   <g id="line2d_10">
    <path d="M 45.148281 66.978227 
L 45.148281 66.713296 
" clip-path="url(#p51d2dd1cf9)" style="fill: none; stroke: #8c8c8c; stroke-width: 0.75; stroke-linecap: round"/>
   </g>
   <g id="line2d_11">
    <path d="M 45.148281 66.919446 
L 45.148281 66.761729 
" clip-path="url(#p51d2dd1cf9)" style="fill: none; stroke: #8c8c8c; stroke-width: 4; stroke-linecap: round"/>
   </g>
   <g id="line2d_12">
    <path d="M 45.148281 66.855423 
" clip-path="url(#p51d2dd1cf9)" style="fill: none; stroke: #6f6f6f; stroke-width: 1.2; stroke-linecap: round"/>
    <g clip-path="url(#p51d2dd1cf9)">
     <use xlink:href="#m7b5b7c97ea" x="45.148281" y="66.855423" style="fill: #ffffff; stroke: #ffffff; stroke-width: 0.8"/>
    </g>
   </g>
   <g id="line2d_13">
    <path d="M 69.689267 66.995102 
L 69.689267 66.84948 
" clip-path="url(#p51d2dd1cf9)" style="fill: none; stroke: #8c8c8c; stroke-width: 0.75; stroke-linecap: round"/>
   </g>
   <g id="line2d_14">
    <path d="M 69.689267 66.990959 
L 69.689267 66.884641 
" clip-path="url(#p51d2dd1cf9)" style="fill: none; stroke: #8c8c8c; stroke-width: 4; stroke-linecap: round"/>
   </g>
   <g id="line2d_15">
    <path d="M 69.689267 66.963276 
" clip-path="url(#p51d2dd1cf9)" style="fill: none; stroke: #6f6f6f; stroke-width: 1.2; stroke-linecap: round"/>
    <g clip-path="url(#p51d2dd1cf9)">
     <use xlink:href="#m7b5b7c97ea" x="69.689267" y="66.963276" style="fill: #ffffff; stroke: #ffffff; stroke-width: 0.8"/>
    </g>
   </g>
   <g id="patch_3">
    <path d="M 8.336802 74.419526 
L 8.336802 4.076256 
" style="fill: none; stroke: #777777; stroke-width: 0.5; stroke-linejoin: miter; stroke-linecap: square"/>
   </g>
   <g id="patch_4">
    <path d="M 8.336802 76.919526 
L 81.95976 76.919526 
" style="fill: none; stroke: #777777; stroke-width: 0.5; stroke-linejoin: miter; stroke-linecap: square"/>
   </g>
  </g>
 </g>
 <defs>
  <clipPath id="p51d2dd1cf9">
   <rect x="8.336802" y="4.076256" width="73.622957" height="70.34327"/>
  </clipPath>
 </defs>
</svg>
