<?xml version="1.0" encoding="utf-8" standalone="no"?>
<!DOCTYPE svg PUBLIC "-//W3C//DTD SVG 1.1//EN"
  "http://www.w3.org/Graphics/SVG/1.1/DTD/svg11.dtd">
<svg xmlns:xlink="http://www.w3.org/1999/xlink" width="113.04pt" height="84.96pt" viewBox="0 0 113.04 84.96" xmlns="http://www.w3.org/2000/svg" version="1.1">
 <metadata>
  <rdf:RDF xmlns:dc="http://purl.org/dc/elements/1.1/" xmlns:cc="http://creativecommons.org/ns#" xmlns:rdf="http://www.w3.org/1999/02/22-rdf-syntax-ns#">
   <cc:Work>
    <dc:type rdf:resource="http://purl.org/dc/dcmitype/StillImage"/>
    <dc:date>2024-05-27T15:37:19.661279</dc:date>
    <dc:format>image/svg+xml</dc:format>
    <dc:creator>
     <cc:Agent>
      <dc:title>Matplotlib v3.8.3, https://matplotlib.org/</dc:title>
     </cc:Agent>
    </dc:creator>
   </cc:Work>
  </rdf:RDF>
 </metadata>
 <defs>
  <style type="text/css">*{stroke-linejoin: round; stroke-linecap: butt}</style>
 </defs>
 <g id="figure_1">
  <g id="patch_1">
   <path d="M 0 84.96 
L 113.04 84.96 
L 113.04 0 
L 0 0 
z
" style="fill: #ffffff"/>
  </g>
  <g id="axes_1">
   <g id="patch_2">
    <path d="M 11.673365 74.393822 
L 110.029896 74.393822 
L 110.029896 4.076256 
L 11.673365 4.076256 
z
" style="fill: #ffffff"/>
   </g>
   <g id="matplotlib.axis_1">
    <g id="xtick_1">
     <g id="text_1">
      <!-- ILC3 -->
      <g style="fill: #333333" transform="translate(20.271603 81.204526) scale(0.035 -0.035)">
       <defs>
        <path id="Helvetica-49" d="M 628 4591 
L 1256 4591 
L 1256 0 
L 628 0 
L 628 4591 
z
" transform="scale(0.015625)"/>
        <path id="Helvetica-4c" d="M 488 4591 
L 1109 4591 
L 1109 547 
L 3434 547 
L 3434 0 
L 488 0 
L 488 4591 
z
" transform="scale(0.015625)"/>
        <path id="Helvetica-43" d="M 2422 4716 
Q 3294 4716 3775 4256 
Q 4256 3797 4309 3213 
L 3703 3213 
Q 3600 3656 3292 3915 
Q 2984 4175 2428 4175 
Q 1750 4175 1333 3698 
Q 916 3222 916 2238 
Q 916 1431 1292 929 
Q 1669 428 2416 428 
Q 3103 428 3463 956 
Q 3653 1234 3747 1688 
L 4353 1688 
Q 4272 963 3816 472 
Q 3269 -119 2341 -119 
Q 1541 -119 997 366 
Q 281 1006 281 2344 
Q 281 3359 819 4009 
Q 1400 4716 2422 4716 
z
M 2297 4716 
L 2297 4716 
z
" transform="scale(0.015625)"/>
        <path id="Helvetica-33" d="M 1663 -122 
Q 869 -122 511 314 
Q 153 750 153 1375 
L 741 1375 
Q 778 941 903 744 
Q 1122 391 1694 391 
Q 2138 391 2406 628 
Q 2675 866 2675 1241 
Q 2675 1703 2392 1887 
Q 2109 2072 1606 2072 
Q 1550 2072 1492 2070 
Q 1434 2069 1375 2066 
L 1375 2563 
Q 1463 2553 1522 2550 
Q 1581 2547 1650 2547 
Q 1966 2547 2169 2647 
Q 2525 2822 2525 3272 
Q 2525 3606 2287 3787 
Q 2050 3969 1734 3969 
Q 1172 3969 956 3594 
Q 838 3388 822 3006 
L 266 3006 
Q 266 3506 466 3856 
Q 809 4481 1675 4481 
Q 2359 4481 2734 4176 
Q 3109 3872 3109 3294 
Q 3109 2881 2888 2625 
Q 2750 2466 2531 2375 
Q 2884 2278 3082 2001 
Q 3281 1725 3281 1325 
Q 3281 684 2859 281 
Q 2438 -122 1663 -122 
z
" transform="scale(0.015625)"/>
       </defs>
       <use xlink:href="#Helvetica-49"/>
       <use xlink:href="#Helvetica-4c" x="27.783203"/>
       <use xlink:href="#Helvetica-43" x="83.398438"/>
       <use xlink:href="#Helvetica-33" x="155.615234"/>
      </g>
     </g>
    </g>
    <g id="xtick_2">
     <g id="text_2">
      <!-- TH17 (TdT–) -->
      <g style="fill: #333333" transform="translate(38.542416 81.230229) scale(0.035 -0.035)">
       <defs>
        <path id="Helvetica-54" d="M 3828 4591 
L 3828 4044 
L 2281 4044 
L 2281 0 
L 1650 0 
L 1650 4044 
L 103 4044 
L 103 4591 
L 3828 4591 
z
" transform="scale(0.015625)"/>
        <path id="Helvetica-48" d="M 503 4591 
L 1131 4591 
L 1131 2694 
L 3519 2694 
L 3519 4591 
L 4147 4591 
L 4147 0 
L 3519 0 
L 3519 2147 
L 1131 2147 
L 1131 0 
L 503 0 
L 503 4591 
z
" transform="scale(0.015625)"/>
        <path id="Helvetica-31" d="M 613 3169 
L 613 3600 
Q 1222 3659 1462 3798 
Q 1703 3938 1822 4456 
L 2266 4456 
L 2266 0 
L 1666 0 
L 1666 3169 
L 613 3169 
z
" transform="scale(0.015625)"/>
        <path id="Helvetica-37" d="M 3347 4400 
L 3347 3909 
Q 3131 3700 2773 3181 
Q 2416 2663 2141 2063 
Q 1869 1478 1728 997 
Q 1638 688 1494 0 
L 872 0 
Q 1084 1281 1809 2550 
Q 2238 3294 2709 3834 
L 234 3834 
L 234 4400 
L 3347 4400 
z
" transform="scale(0.015625)"/>
        <path id="Helvetica-20" transform="scale(0.015625)"/>
        <path id="Helvetica-28" d="M 1894 4666 
Q 1403 3713 1256 3263 
Q 1034 2578 1034 1681 
Q 1034 775 1288 25 
Q 1444 -438 1903 -1306 
L 1525 -1306 
Q 1069 -594 959 -397 
Q 850 -200 722 138 
Q 547 600 478 1125 
Q 444 1397 444 1644 
Q 444 2569 734 3291 
Q 919 3750 1503 4666 
L 1894 4666 
z
" transform="scale(0.015625)"/>
        <path id="Helvetica-64" d="M 769 1634 
Q 769 1097 997 734 
Q 1225 372 1728 372 
Q 2119 372 2370 708 
Q 2622 1044 2622 1672 
Q 2622 2306 2362 2611 
Q 2103 2916 1722 2916 
Q 1297 2916 1033 2591 
Q 769 2266 769 1634 
z
M 1616 3406 
Q 2000 3406 2259 3244 
Q 2409 3150 2600 2916 
L 2600 4606 
L 3141 4606 
L 3141 0 
L 2634 0 
L 2634 466 
Q 2438 156 2169 18 
Q 1900 -119 1553 -119 
Q 994 -119 584 351 
Q 175 822 175 1603 
Q 175 2334 548 2870 
Q 922 3406 1616 3406 
z
" transform="scale(0.015625)"/>
        <path id="Helvetica-2013" d="M -16 2000 
L 3569 2000 
L 3569 1541 
L -16 1541 
L -16 2000 
z
" transform="scale(0.015625)"/>
        <path id="Helvetica-29" d="M 222 -1306 
Q 719 -338 863 106 
Q 1081 778 1081 1681 
Q 1081 2584 828 3334 
Q 672 3797 213 4666 
L 591 4666 
Q 1072 3897 1173 3717 
Q 1275 3538 1394 3222 
Q 1544 2831 1608 2450 
Q 1672 2069 1672 1716 
Q 1672 791 1378 66 
Q 1194 -400 613 -1306 
L 222 -1306 
z
" transform="scale(0.015625)"/>
       </defs>
       <use xlink:href="#Helvetica-54"/>
       <use xlink:href="#Helvetica-48" x="61.083984"/>
       <use xlink:href="#Helvetica-31" x="133.300781"/>
       <use xlink:href="#Helvetica-37" x="188.916016"/>
       <use xlink:href="#Helvetica-20" x="244.53125"/>
       <use xlink:href="#Helvetica-28" x="272.314453"/>
       <use xlink:href="#Helvetica-54" x="305.615234"/>
       <use xlink:href="#Helvetica-64" x="366.699219"/>
       <use xlink:href="#Helvetica-54" x="422.314453"/>
       <use xlink:href="#Helvetica-2013" x="483.398438"/>
       <use xlink:href="#Helvetica-29" x="539.013672"/>
      </g>
     </g>
    </g>
    <g id="xtick_3">
     <g id="text_3">
      <!-- TH17 (TdT+) -->
      <g style="fill: #333333" transform="translate(63.082603 81.230229) scale(0.035 -0.035)">
       <defs>
        <path id="Helvetica-2b" d="M 288 1369 
L 288 1894 
L 1650 1894 
L 1650 3266 
L 2184 3266 
L 2184 1894 
L 3547 1894 
L 3547 1369 
L 2184 1369 
L 2184 0 
L 1650 0 
L 1650 1369 
L 288 1369 
z
" transform="scale(0.015625)"/>
       </defs>
       <use xlink:href="#Helvetica-54"/>
       <use xlink:href="#Helvetica-48" x="61.083984"/>
       <use xlink:href="#Helvetica-31" x="133.300781"/>
       <use xlink:href="#Helvetica-37" x="188.916016"/>
       <use xlink:href="#Helvetica-20" x="244.53125"/>
       <use xlink:href="#Helvetica-28" x="272.314453"/>
       <use xlink:href="#Helvetica-54" x="305.615234"/>
       <use xlink:href="#Helvetica-64" x="366.699219"/>
       <use xlink:href="#Helvetica-54" x="422.314453"/>
       <use xlink:href="#Helvetica-2b" x="483.398438"/>
       <use xlink:href="#Helvetica-29" x="541.796875"/>
      </g>
     </g>
    </g>
    <g id="xtick_4">
     <g id="text_4">
      <!-- Immature TH17 -->
      <g style="fill: #333333" transform="translate(85.580213 81.204526) scale(0.035 -0.035)">
       <defs>
        <path id="Helvetica-6d" d="M 413 3347 
L 969 3347 
L 969 2872 
Q 1169 3119 1331 3231 
Q 1609 3422 1963 3422 
Q 2363 3422 2606 3225 
Q 2744 3113 2856 2894 
Q 3044 3163 3297 3292 
Q 3550 3422 3866 3422 
Q 4541 3422 4784 2934 
Q 4916 2672 4916 2228 
L 4916 0 
L 4331 0 
L 4331 2325 
Q 4331 2659 4164 2784 
Q 3997 2909 3756 2909 
Q 3425 2909 3186 2687 
Q 2947 2466 2947 1947 
L 2947 0 
L 2375 0 
L 2375 2184 
Q 2375 2525 2294 2681 
Q 2166 2916 1816 2916 
Q 1497 2916 1236 2669 
Q 975 2422 975 1775 
L 975 0 
L 413 0 
L 413 3347 
z
" transform="scale(0.015625)"/>
        <path id="Helvetica-61" d="M 844 891 
Q 844 647 1022 506 
Q 1200 366 1444 366 
Q 1741 366 2019 503 
Q 2488 731 2488 1250 
L 2488 1703 
Q 2384 1638 2221 1594 
Q 2059 1550 1903 1531 
L 1563 1488 
Q 1256 1447 1103 1359 
Q 844 1213 844 891 
z
M 2206 2028 
Q 2400 2053 2466 2191 
Q 2503 2266 2503 2406 
Q 2503 2694 2298 2823 
Q 2094 2953 1713 2953 
Q 1272 2953 1088 2716 
Q 984 2584 953 2325 
L 428 2325 
Q 444 2944 830 3186 
Q 1216 3428 1725 3428 
Q 2316 3428 2684 3203 
Q 3050 2978 3050 2503 
L 3050 575 
Q 3050 488 3086 434 
Q 3122 381 3238 381 
Q 3275 381 3322 386 
Q 3369 391 3422 400 
L 3422 -16 
Q 3291 -53 3222 -62 
Q 3153 -72 3034 -72 
Q 2744 -72 2613 134 
Q 2544 244 2516 444 
Q 2344 219 2022 53 
Q 1700 -113 1313 -113 
Q 847 -113 551 170 
Q 256 453 256 878 
Q 256 1344 547 1600 
Q 838 1856 1309 1916 
L 2206 2028 
z
M 1741 3428 
L 1741 3428 
z
" transform="scale(0.015625)"/>
        <path id="Helvetica-74" d="M 525 4281 
L 1094 4281 
L 1094 3347 
L 1628 3347 
L 1628 2888 
L 1094 2888 
L 1094 703 
Q 1094 528 1213 469 
Q 1278 434 1431 434 
Q 1472 434 1519 436 
Q 1566 438 1628 444 
L 1628 0 
Q 1531 -28 1426 -40 
Q 1322 -53 1200 -53 
Q 806 -53 665 148 
Q 525 350 525 672 
L 525 2888 
L 72 2888 
L 72 3347 
L 525 3347 
L 525 4281 
z
" transform="scale(0.015625)"/>
        <path id="Helvetica-75" d="M 975 3347 
L 975 1125 
Q 975 869 1056 706 
Q 1206 406 1616 406 
Q 2203 406 2416 931 
Q 2531 1213 2531 1703 
L 2531 3347 
L 3094 3347 
L 3094 0 
L 2563 0 
L 2569 494 
Q 2459 303 2297 172 
Q 1975 -91 1516 -91 
Q 800 -91 541 388 
Q 400 644 400 1072 
L 400 3347 
L 975 3347 
z
M 1747 3428 
L 1747 3428 
z
" transform="scale(0.015625)"/>
        <path id="Helvetica-72" d="M 428 3347 
L 963 3347 
L 963 2769 
Q 1028 2938 1284 3180 
Q 1541 3422 1875 3422 
Q 1891 3422 1928 3419 
Q 1966 3416 2056 3406 
L 2056 2813 
Q 2006 2822 1964 2825 
Q 1922 2828 1872 2828 
Q 1447 2828 1219 2554 
Q 991 2281 991 1925 
L 991 0 
L 428 0 
L 428 3347 
z
" transform="scale(0.015625)"/>
        <path id="Helvetica-65" d="M 1806 3422 
Q 2163 3422 2497 3255 
Q 2831 3088 3006 2822 
Q 3175 2569 3231 2231 
Q 3281 2000 3281 1494 
L 828 1494 
Q 844 984 1069 676 
Q 1294 369 1766 369 
Q 2206 369 2469 659 
Q 2619 828 2681 1050 
L 3234 1050 
Q 3213 866 3089 639 
Q 2966 413 2813 269 
Q 2556 19 2178 -69 
Q 1975 -119 1719 -119 
Q 1094 -119 659 336 
Q 225 791 225 1609 
Q 225 2416 662 2919 
Q 1100 3422 1806 3422 
z
M 2703 1941 
Q 2669 2306 2544 2525 
Q 2313 2931 1772 2931 
Q 1384 2931 1121 2651 
Q 859 2372 844 1941 
L 2703 1941 
z
M 1753 3428 
L 1753 3428 
z
" transform="scale(0.015625)"/>
       </defs>
       <use xlink:href="#Helvetica-49"/>
       <use xlink:href="#Helvetica-6d" x="27.783203"/>
       <use xlink:href="#Helvetica-6d" x="111.083984"/>
       <use xlink:href="#Helvetica-61" x="194.384766"/>
       <use xlink:href="#Helvetica-74" x="250"/>
       <use xlink:href="#Helvetica-75" x="277.783203"/>
       <use xlink:href="#Helvetica-72" x="333.398438"/>
       <use xlink:href="#Helvetica-65" x="366.699219"/>
       <use xlink:href="#Helvetica-20" x="422.314453"/>
       <use xlink:href="#Helvetica-54" x="450.097656"/>
       <use xlink:href="#Helvetica-48" x="511.181641"/>
       <use xlink:href="#Helvetica-31" x="583.398438"/>
       <use xlink:href="#Helvetica-37" x="639.013672"/>
      </g>
     </g>
    </g>
   </g>
   <g id="matplotlib.axis_2">
    <g id="ytick_1">
     <g id="line2d_1">
      <defs>
       <path id="m9a5fc6fde7" d="M 0 0 
L -1 0 
" style="stroke: #777777; stroke-width: 0.5"/>
      </defs>
      <g>
       <use xlink:href="#m9a5fc6fde7" x="11.673365" y="66.139421" style="fill: #777777; stroke: #777777; stroke-width: 0.5"/>
      </g>
     </g>
     <g id="text_5">
      <!-- 0 -->
      <g style="fill: #333333" transform="translate(8.005084 67.215437) scale(0.03 -0.03)">
       <defs>
        <path id="Helvetica-30" d="M 1731 4475 
Q 2600 4475 2988 3759 
Q 3288 3206 3288 2244 
Q 3288 1331 3016 734 
Q 2622 -122 1728 -122 
Q 922 -122 528 578 
Q 200 1163 200 2147 
Q 200 2909 397 3456 
Q 766 4475 1731 4475 
z
M 1725 391 
Q 2163 391 2422 778 
Q 2681 1166 2681 2222 
Q 2681 2984 2493 3476 
Q 2306 3969 1766 3969 
Q 1269 3969 1039 3501 
Q 809 3034 809 2125 
Q 809 1441 956 1025 
Q 1181 391 1725 391 
z
" transform="scale(0.015625)"/>
       </defs>
       <use xlink:href="#Helvetica-30"/>
      </g>
     </g>
    </g>
    <g id="ytick_2">
     <g id="line2d_2">
      <g>
       <use xlink:href="#m9a5fc6fde7" x="11.673365" y="55.79556" style="fill: #777777; stroke: #777777; stroke-width: 0.5"/>
      </g>
     </g>
     <g id="text_6">
      <!-- 500 -->
      <g style="fill: #333333" transform="translate(4.668521 56.871576) scale(0.03 -0.03)">
       <defs>
        <path id="Helvetica-35" d="M 791 1141 
Q 847 659 1238 475 
Q 1438 381 1700 381 
Q 2200 381 2440 700 
Q 2681 1019 2681 1406 
Q 2681 1875 2395 2131 
Q 2109 2388 1709 2388 
Q 1419 2388 1211 2275 
Q 1003 2163 856 1963 
L 369 1991 
L 709 4400 
L 3034 4400 
L 3034 3856 
L 1131 3856 
L 941 2613 
Q 1097 2731 1238 2791 
Q 1488 2894 1816 2894 
Q 2431 2894 2859 2497 
Q 3288 2100 3288 1491 
Q 3288 856 2895 371 
Q 2503 -113 1644 -113 
Q 1097 -113 676 195 
Q 256 503 206 1141 
L 791 1141 
z
" transform="scale(0.015625)"/>
       </defs>
       <use xlink:href="#Helvetica-35"/>
       <use xlink:href="#Helvetica-30" x="55.615234"/>
       <use xlink:href="#Helvetica-30" x="111.230469"/>
      </g>
     </g>
    </g>
    <g id="ytick_3">
     <g id="line2d_3">
      <g>
       <use xlink:href="#m9a5fc6fde7" x="11.673365" y="45.4517" style="fill: #777777; stroke: #777777; stroke-width: 0.5"/>
      </g>
     </g>
     <g id="text_7">
      <!-- 1000 -->
      <g style="fill: #333333" transform="translate(3.00024 46.527715) scale(0.03 -0.03)">
       <use xlink:href="#Helvetica-31"/>
       <use xlink:href="#Helvetica-30" x="55.615234"/>
       <use xlink:href="#Helvetica-30" x="111.230469"/>
       <use xlink:href="#Helvetica-30" x="166.845703"/>
      </g>
     </g>
    </g>
    <g id="ytick_4">
     <g id="line2d_4">
      <g>
       <use xlink:href="#m9a5fc6fde7" x="11.673365" y="35.107839" style="fill: #777777; stroke: #777777; stroke-width: 0.5"/>
      </g>
     </g>
     <g id="text_8">
      <!-- 1500 -->
      <g style="fill: #333333" transform="translate(3.00024 36.183854) scale(0.03 -0.03)">
       <use xlink:href="#Helvetica-31"/>
       <use xlink:href="#Helvetica-35" x="55.615234"/>
       <use xlink:href="#Helvetica-30" x="111.230469"/>
       <use xlink:href="#Helvetica-30" x="166.845703"/>
      </g>
     </g>
    </g>
    <g id="ytick_5">
     <g id="line2d_5">
      <g>
       <use xlink:href="#m9a5fc6fde7" x="11.673365" y="24.763978" style="fill: #777777; stroke: #777777; stroke-width: 0.5"/>
      </g>
     </g>
     <g id="text_9">
      <!-- 2000 -->
      <g style="fill: #333333" transform="translate(3.00024 25.839993) scale(0.03 -0.03)">
       <defs>
        <path id="Helvetica-32" d="M 200 0 
Q 231 578 439 1006 
Q 647 1434 1250 1784 
L 1850 2131 
Q 2253 2366 2416 2531 
Q 2672 2791 2672 3125 
Q 2672 3516 2437 3745 
Q 2203 3975 1813 3975 
Q 1234 3975 1013 3538 
Q 894 3303 881 2888 
L 309 2888 
Q 319 3472 525 3841 
Q 891 4491 1816 4491 
Q 2584 4491 2939 4075 
Q 3294 3659 3294 3150 
Q 3294 2613 2916 2231 
Q 2697 2009 2131 1694 
L 1703 1456 
Q 1397 1288 1222 1134 
Q 909 863 828 531 
L 3272 531 
L 3272 0 
L 200 0 
z
" transform="scale(0.015625)"/>
       </defs>
       <use xlink:href="#Helvetica-32"/>
       <use xlink:href="#Helvetica-30" x="55.615234"/>
       <use xlink:href="#Helvetica-30" x="111.230469"/>
       <use xlink:href="#Helvetica-30" x="166.845703"/>
      </g>
     </g>
    </g>
    <g id="ytick_6">
     <g id="line2d_6">
      <g>
       <use xlink:href="#m9a5fc6fde7" x="11.673365" y="14.420117" style="fill: #777777; stroke: #777777; stroke-width: 0.5"/>
      </g>
     </g>
     <g id="text_10">
      <!-- 2500 -->
      <g style="fill: #333333" transform="translate(3.00024 15.496132) scale(0.03 -0.03)">
       <use xlink:href="#Helvetica-32"/>
       <use xlink:href="#Helvetica-35" x="55.615234"/>
       <use xlink:href="#Helvetica-30" x="111.230469"/>
       <use xlink:href="#Helvetica-30" x="166.845703"/>
      </g>
     </g>
    </g>
    <g id="ytick_7">
     <g id="line2d_7">
      <g>
       <use xlink:href="#m9a5fc6fde7" x="11.673365" y="4.076256" style="fill: #777777; stroke: #777777; stroke-width: 0.5"/>
      </g>
     </g>
     <g id="text_11">
      <!-- 3000 -->
      <g style="fill: #333333" transform="translate(3.00024 5.152271) scale(0.03 -0.03)">
       <use xlink:href="#Helvetica-33"/>
       <use xlink:href="#Helvetica-30" x="55.615234"/>
       <use xlink:href="#Helvetica-30" x="111.230469"/>
       <use xlink:href="#Helvetica-30" x="166.845703"/>
      </g>
     </g>
    </g>
   </g>
   <g id="PolyCollection_1">
    <defs>
     <path id="m22f254c34a" d="M 25.308194 -18.626018 
L 22.627669 -18.626018 
L 22.377667 -18.641361 
L 22.100634 -18.656704 
L 21.797438 -18.672047 
L 21.469579 -18.68739 
L 21.119128 -18.702734 
L 20.748639 -18.718077 
L 20.361034 -18.73342 
L 19.959472 -18.748763 
L 19.547233 -18.764106 
L 19.127605 -18.779449 
L 18.703825 -18.794792 
L 18.279041 -18.810135 
L 17.856334 -18.825478 
L 17.438771 -18.840821 
L 17.029488 -18.856165 
L 16.631786 -18.871508 
L 16.249208 -18.886851 
L 15.885587 -18.902194 
L 15.545045 -18.917537 
L 15.23192 -18.93288 
L 14.950633 -18.948223 
L 14.705483 -18.963566 
L 14.500408 -18.978909 
L 14.338715 -18.994252 
L 14.222817 -19.009595 
L 14.154004 -19.024939 
L 14.132278 -19.040282 
L 14.156268 -19.055625 
L 14.223228 -19.070968 
L 14.32914 -19.086311 
L 14.468891 -19.101654 
L 14.636515 -19.116997 
L 14.825484 -19.13234 
L 15.029007 -19.147683 
L 15.240325 -19.163026 
L 15.452976 -19.17837 
L 15.661005 -19.193713 
L 15.85913 -19.209056 
L 16.042831 -19.224399 
L 16.208393 -19.239742 
L 16.35289 -19.255085 
L 16.474144 -19.270428 
L 16.570643 -19.285771 
L 16.64147 -19.301114 
L 16.686229 -19.316457 
L 16.704995 -19.3318 
L 16.698293 -19.347144 
L 16.66712 -19.362487 
L 16.612992 -19.37783 
L 16.538029 -19.393173 
L 16.445048 -19.408516 
L 16.337659 -19.423859 
L 16.220334 -19.439202 
L 16.098429 -19.454545 
L 15.978139 -19.469888 
L 15.866368 -19.485231 
L 15.770501 -19.500575 
L 15.698098 -19.515918 
L 15.656491 -19.531261 
L 15.652347 -19.546604 
L 15.691203 -19.561947 
L 15.777019 -19.57729 
L 15.911802 -19.592633 
L 16.095333 -19.607976 
L 16.325027 -19.623319 
L 16.595959 -19.638662 
L 16.90105 -19.654006 
L 17.231426 -19.669349 
L 17.576905 -19.684692 
L 17.9266 -19.700035 
L 18.269576 -19.715378 
L 18.595529 -19.730721 
L 18.895414 -19.746064 
L 19.161997 -19.761407 
L 19.390279 -19.77675 
L 19.577754 -19.792093 
L 19.724509 -19.807436 
L 19.833128 -19.82278 
L 19.908447 -19.838123 
L 19.957147 -19.853466 
L 19.98725 -19.868809 
L 20.007534 -19.884152 
L 20.026924 -19.899495 
L 20.053903 -19.914838 
L 20.09598 -19.930181 
L 20.159255 -19.945524 
L 20.24811 -19.960867 
L 20.365028 -19.976211 
L 20.510565 -19.991554 
L 20.68345 -20.006897 
L 20.880796 -20.02224 
L 21.098416 -20.037583 
L 21.331185 -20.052926 
L 21.573433 -20.068269 
L 21.819335 -20.083612 
L 22.063268 -20.098955 
L 22.300104 -20.114298 
L 22.525442 -20.129641 
L 22.73576 -20.144985 
L 25.200103 -20.144985 
L 25.200103 -20.144985 
L 25.41042 -20.129641 
L 25.635759 -20.114298 
L 25.872595 -20.098955 
L 26.116527 -20.083612 
L 26.36243 -20.068269 
L 26.604678 -20.052926 
L 26.837447 -20.037583 
L 27.055067 -20.02224 
L 27.252413 -20.006897 
L 27.425297 -19.991554 
L 27.570835 -19.976211 
L 27.687753 -19.960867 
L 27.776608 -19.945524 
L 27.839883 -19.930181 
L 27.88196 -19.914838 
L 27.908939 -19.899495 
L 27.928329 -19.884152 
L 27.948613 -19.868809 
L 27.978716 -19.853466 
L 28.027416 -19.838123 
L 28.102735 -19.82278 
L 28.211354 -19.807436 
L 28.358109 -19.792093 
L 28.545584 -19.77675 
L 28.773866 -19.761407 
L 29.040449 -19.746064 
L 29.340334 -19.730721 
L 29.666286 -19.715378 
L 30.009263 -19.700035 
L 30.358958 -19.684692 
L 30.704437 -19.669349 
L 31.034813 -19.654006 
L 31.339904 -19.638662 
L 31.610836 -19.623319 
L 31.84053 -19.607976 
L 32.024061 -19.592633 
L 32.158844 -19.57729 
L 32.24466 -19.561947 
L 32.283515 -19.546604 
L 32.279372 -19.531261 
L 32.237765 -19.515918 
L 32.165361 -19.500575 
L 32.069495 -19.485231 
L 31.957724 -19.469888 
L 31.837434 -19.454545 
L 31.715529 -19.439202 
L 31.598204 -19.423859 
L 31.490815 -19.408516 
L 31.397834 -19.393173 
L 31.322871 -19.37783 
L 31.268743 -19.362487 
L 31.23757 -19.347144 
L 31.230868 -19.3318 
L 31.249633 -19.316457 
L 31.294392 -19.301114 
L 31.36522 -19.285771 
L 31.461719 -19.270428 
L 31.582973 -19.255085 
L 31.72747 -19.239742 
L 31.893031 -19.224399 
L 32.076732 -19.209056 
L 32.274858 -19.193713 
L 32.482887 -19.17837 
L 32.695538 -19.163026 
L 32.906856 -19.147683 
L 33.110379 -19.13234 
L 33.299348 -19.116997 
L 33.466972 -19.101654 
L 33.606723 -19.086311 
L 33.712635 -19.070968 
L 33.779595 -19.055625 
L 33.803585 -19.040282 
L 33.781859 -19.024939 
L 33.713046 -19.009595 
L 33.597148 -18.994252 
L 33.435455 -18.978909 
L 33.23038 -18.963566 
L 32.98523 -18.948223 
L 32.703942 -18.93288 
L 32.390818 -18.917537 
L 32.050276 -18.902194 
L 31.686655 -18.886851 
L 31.304077 -18.871508 
L 30.906375 -18.856165 
L 30.497092 -18.840821 
L 30.079529 -18.825478 
L 29.656822 -18.810135 
L 29.232038 -18.794792 
L 28.808257 -18.779449 
L 28.38863 -18.764106 
L 27.97639 -18.748763 
L 27.574829 -18.73342 
L 27.187224 -18.718077 
L 26.816735 -18.702734 
L 26.466284 -18.68739 
L 26.138425 -18.672047 
L 25.835229 -18.656704 
L 25.558196 -18.641361 
L 25.308194 -18.626018 
z
" style="stroke: #595959; stroke-width: 0.15"/>
    </defs>
    <g clip-path="url(#pa1d8c5b292)">
     <use xlink:href="#m22f254c34a" x="0" y="84.96" style="fill: #cfcfcf; stroke: #595959; stroke-width: 0.15"/>
    </g>
   </g>
   <g id="PolyCollection_2">
    <defs>
     <path id="m41efb812bf" d="M 50.483397 -17.893915 
L 46.630731 -17.893915 
L 46.241575 -17.96589 
L 45.805471 -18.037866 
L 45.324226 -18.109841 
L 44.801529 -18.181817 
L 44.243069 -18.253792 
L 43.65656 -18.325768 
L 43.05164 -18.397743 
L 42.439651 -18.469719 
L 41.8333 -18.541694 
L 41.246199 -18.61367 
L 40.692328 -18.685645 
L 40.185426 -18.757621 
L 39.73837 -18.829596 
L 39.36257 -18.901571 
L 39.067425 -18.973547 
L 38.859882 -19.045522 
L 38.744123 -19.117498 
L 38.721411 -19.189473 
L 38.790099 -19.261449 
L 38.945794 -19.333424 
L 39.18168 -19.4054 
L 39.488942 -19.477375 
L 39.85729 -19.549351 
L 40.275518 -19.621326 
L 40.73206 -19.693302 
L 41.215521 -19.765277 
L 41.715128 -19.837253 
L 42.221086 -19.909228 
L 42.724839 -19.981204 
L 43.219199 -20.053179 
L 43.698391 -20.125155 
L 44.157994 -20.19713 
L 44.594822 -20.269106 
L 45.006752 -20.341081 
L 45.392533 -20.413057 
L 45.751601 -20.485032 
L 46.083897 -20.557008 
L 46.389722 -20.628983 
L 46.669626 -20.700959 
L 46.924326 -20.772934 
L 47.154659 -20.84491 
L 47.36156 -20.916885 
L 47.546053 -20.988861 
L 47.709255 -21.060836 
L 47.852377 -21.132811 
L 47.976725 -21.204787 
L 48.083692 -21.276762 
L 48.17474 -21.348738 
L 48.251374 -21.420713 
L 48.315115 -21.492689 
L 48.367464 -21.564664 
L 48.409862 -21.63664 
L 48.443663 -21.708615 
L 48.470099 -21.780591 
L 48.490255 -21.852566 
L 48.50505 -21.924542 
L 48.515224 -21.996517 
L 48.521324 -22.068493 
L 48.523706 -22.140468 
L 48.522526 -22.212444 
L 48.517753 -22.284419 
L 48.50917 -22.356395 
L 48.496388 -22.42837 
L 48.478866 -22.500346 
L 48.455937 -22.572321 
L 48.426842 -22.644297 
L 48.390773 -22.716272 
L 48.34693 -22.788248 
L 48.294583 -22.860223 
L 48.233146 -22.932199 
L 48.162257 -23.004174 
L 48.081852 -23.07615 
L 47.99224 -23.148125 
L 47.894168 -23.220101 
L 47.78886 -23.292076 
L 47.678034 -23.364052 
L 47.563893 -23.436027 
L 47.449072 -23.508002 
L 47.336554 -23.579978 
L 47.229556 -23.651953 
L 47.131375 -23.723929 
L 47.045231 -23.795904 
L 46.974088 -23.86788 
L 46.920489 -23.939855 
L 46.8864 -24.011831 
L 46.873097 -24.083806 
L 46.881082 -24.155782 
L 46.910053 -24.227757 
L 46.958923 -24.299733 
L 47.025888 -24.371708 
L 47.108538 -24.443684 
L 47.203998 -24.515659 
L 47.309098 -24.587635 
L 47.420541 -24.65961 
L 47.535079 -24.731586 
L 47.649656 -24.803561 
L 47.761542 -24.875537 
L 47.868423 -24.947512 
L 47.968458 -25.019488 
L 49.14567 -25.019488 
L 49.14567 -25.019488 
L 49.245705 -24.947512 
L 49.352586 -24.875537 
L 49.464473 -24.803561 
L 49.57905 -24.731586 
L 49.693587 -24.65961 
L 49.80503 -24.587635 
L 49.91013 -24.515659 
L 50.00559 -24.443684 
L 50.08824 -24.371708 
L 50.155206 -24.299733 
L 50.204076 -24.227757 
L 50.233047 -24.155782 
L 50.241032 -24.083806 
L 50.227729 -24.011831 
L 50.19364 -23.939855 
L 50.14004 -23.86788 
L 50.068898 -23.795904 
L 49.982754 -23.723929 
L 49.884573 -23.651953 
L 49.777574 -23.579978 
L 49.665057 -23.508002 
L 49.550235 -23.436027 
L 49.436095 -23.364052 
L 49.325269 -23.292076 
L 49.21996 -23.220101 
L 49.121888 -23.148125 
L 49.032276 -23.07615 
L 48.951871 -23.004174 
L 48.880982 -22.932199 
L 48.819546 -22.860223 
L 48.767199 -22.788248 
L 48.723355 -22.716272 
L 48.687286 -22.644297 
L 48.658191 -22.572321 
L 48.635263 -22.500346 
L 48.617741 -22.42837 
L 48.604959 -22.356395 
L 48.596375 -22.284419 
L 48.591602 -22.212444 
L 48.590423 -22.140468 
L 48.592804 -22.068493 
L 48.598905 -21.996517 
L 48.609078 -21.924542 
L 48.623874 -21.852566 
L 48.644029 -21.780591 
L 48.670465 -21.708615 
L 48.704266 -21.63664 
L 48.746665 -21.564664 
L 48.799013 -21.492689 
L 48.862755 -21.420713 
L 48.939389 -21.348738 
L 49.030436 -21.276762 
L 49.137403 -21.204787 
L 49.261752 -21.132811 
L 49.404874 -21.060836 
L 49.568075 -20.988861 
L 49.752569 -20.916885 
L 49.959469 -20.84491 
L 50.189803 -20.772934 
L 50.444502 -20.700959 
L 50.724406 -20.628983 
L 51.030232 -20.557008 
L 51.362527 -20.485032 
L 51.721595 -20.413057 
L 52.107377 -20.341081 
L 52.519306 -20.269106 
L 52.956134 -20.19713 
L 53.415738 -20.125155 
L 53.89493 -20.053179 
L 54.38929 -19.981204 
L 54.893042 -19.909228 
L 55.399001 -19.837253 
L 55.898607 -19.765277 
L 56.382068 -19.693302 
L 56.838611 -19.621326 
L 57.256838 -19.549351 
L 57.625187 -19.477375 
L 57.932449 -19.4054 
L 58.168334 -19.333424 
L 58.32403 -19.261449 
L 58.392717 -19.189473 
L 58.370006 -19.117498 
L 58.254247 -19.045522 
L 58.046703 -18.973547 
L 57.751558 -18.901571 
L 57.375758 -18.829596 
L 56.928702 -18.757621 
L 56.4218 -18.685645 
L 55.867929 -18.61367 
L 55.280829 -18.541694 
L 54.674477 -18.469719 
L 54.062489 -18.397743 
L 53.457568 -18.325768 
L 52.871059 -18.253792 
L 52.3126 -18.181817 
L 51.789902 -18.109841 
L 51.308658 -18.037866 
L 50.872554 -17.96589 
L 50.483397 -17.893915 
z
" style="stroke: #595959; stroke-width: 0.15"/>
    </defs>
    <g clip-path="url(#pa1d8c5b292)">
     <use xlink:href="#m41efb812bf" x="0" y="84.96" style="fill: #cc5eca; stroke: #595959; stroke-width: 0.15"/>
    </g>
   </g>
   <g id="PolyCollection_3">
    <defs>
     <path id="m2c4731f3c7" d="M 75.082551 -17.856822 
L 71.209843 -17.856822 
L 70.88106 -17.923587 
L 70.52069 -17.990352 
L 70.130489 -18.057117 
L 69.713165 -18.123882 
L 69.272366 -18.190647 
L 68.812615 -18.257413 
L 68.339194 -18.324178 
L 67.857985 -18.390943 
L 67.375276 -18.457708 
L 66.897538 -18.524473 
L 66.431191 -18.591238 
L 65.982381 -18.658003 
L 65.556777 -18.724768 
L 65.159403 -18.791533 
L 64.794524 -18.858298 
L 64.465591 -18.925063 
L 64.175238 -18.991828 
L 63.925341 -19.058594 
L 63.717125 -19.125359 
L 63.551294 -19.192124 
L 63.428189 -19.258889 
L 63.34793 -19.325654 
L 63.310544 -19.392419 
L 63.316055 -19.459184 
L 63.364524 -19.525949 
L 63.456036 -19.592714 
L 63.590637 -19.659479 
L 63.76823 -19.726244 
L 63.98843 -19.793009 
L 64.250417 -19.859775 
L 64.55278 -19.92654 
L 64.893394 -19.993305 
L 65.26933 -20.06007 
L 65.676814 -20.126835 
L 66.111252 -20.1936 
L 66.567306 -20.260365 
L 67.039032 -20.32713 
L 67.520056 -20.393895 
L 68.003793 -20.46066 
L 68.483669 -20.527425 
L 68.953351 -20.59419 
L 69.406957 -20.660955 
L 69.839235 -20.727721 
L 70.245696 -20.794486 
L 70.622704 -20.861251 
L 70.967512 -20.928016 
L 71.27825 -20.994781 
L 71.553868 -21.061546 
L 71.794044 -21.128311 
L 71.999067 -21.195076 
L 72.169705 -21.261841 
L 72.307068 -21.328606 
L 72.412481 -21.395371 
L 72.487368 -21.462136 
L 72.533156 -21.528902 
L 72.551216 -21.595667 
L 72.542816 -21.662432 
L 72.509116 -21.729197 
L 72.451183 -21.795962 
L 72.370031 -21.862727 
L 72.266679 -21.929492 
L 72.14222 -21.996257 
L 71.997901 -22.063022 
L 71.835194 -22.129787 
L 71.655868 -22.196552 
L 71.462045 -22.263317 
L 71.256233 -22.330083 
L 71.041348 -22.396848 
L 70.820696 -22.463613 
L 70.597942 -22.530378 
L 70.377047 -22.597143 
L 70.162184 -22.663908 
L 69.957628 -22.730673 
L 69.767637 -22.797438 
L 69.596324 -22.864203 
L 69.447516 -22.930968 
L 69.324628 -22.997733 
L 69.230542 -23.064498 
L 69.167498 -23.131264 
L 69.137017 -23.198029 
L 69.13984 -23.264794 
L 69.175902 -23.331559 
L 69.244337 -23.398324 
L 69.343507 -23.465089 
L 69.471071 -23.531854 
L 69.62407 -23.598619 
L 69.799036 -23.665384 
L 69.992121 -23.732149 
L 70.199234 -23.798914 
L 70.416178 -23.865679 
L 70.638788 -23.932444 
L 70.863061 -23.99921 
L 71.085269 -24.065975 
L 71.30205 -24.13274 
L 71.510489 -24.199505 
L 71.708162 -24.26627 
L 71.893166 -24.333035 
L 72.064119 -24.3998 
L 72.220145 -24.466565 
L 74.072249 -24.466565 
L 74.072249 -24.466565 
L 74.228275 -24.3998 
L 74.399228 -24.333035 
L 74.584232 -24.26627 
L 74.781905 -24.199505 
L 74.990344 -24.13274 
L 75.207126 -24.065975 
L 75.429333 -23.99921 
L 75.653606 -23.932444 
L 75.876216 -23.865679 
L 76.09316 -23.798914 
L 76.300273 -23.732149 
L 76.493358 -23.665384 
L 76.668324 -23.598619 
L 76.821323 -23.531854 
L 76.948887 -23.465089 
L 77.048058 -23.398324 
L 77.116492 -23.331559 
L 77.152554 -23.264794 
L 77.155377 -23.198029 
L 77.124896 -23.131264 
L 77.061852 -23.064498 
L 76.967766 -22.997733 
L 76.844878 -22.930968 
L 76.69607 -22.864203 
L 76.524757 -22.797438 
L 76.334766 -22.730673 
L 76.13021 -22.663908 
L 75.915347 -22.597143 
L 75.694452 -22.530378 
L 75.471699 -22.463613 
L 75.251046 -22.396848 
L 75.036161 -22.330083 
L 74.830349 -22.263317 
L 74.636526 -22.196552 
L 74.4572 -22.129787 
L 74.294493 -22.063022 
L 74.150174 -21.996257 
L 74.025715 -21.929492 
L 73.922363 -21.862727 
L 73.841211 -21.795962 
L 73.783278 -21.729197 
L 73.749578 -21.662432 
L 73.741178 -21.595667 
L 73.759238 -21.528902 
L 73.805026 -21.462136 
L 73.879913 -21.395371 
L 73.985326 -21.328606 
L 74.122689 -21.261841 
L 74.293327 -21.195076 
L 74.49835 -21.128311 
L 74.738526 -21.061546 
L 75.014144 -20.994781 
L 75.324882 -20.928016 
L 75.66969 -20.861251 
L 76.046698 -20.794486 
L 76.453159 -20.727721 
L 76.885437 -20.660955 
L 77.339043 -20.59419 
L 77.808725 -20.527425 
L 78.288601 -20.46066 
L 78.772338 -20.393895 
L 79.253362 -20.32713 
L 79.725088 -20.260365 
L 80.181142 -20.1936 
L 80.61558 -20.126835 
L 81.023064 -20.06007 
L 81.399 -19.993305 
L 81.739614 -19.92654 
L 82.041977 -19.859775 
L 82.303964 -19.793009 
L 82.524164 -19.726244 
L 82.701757 -19.659479 
L 82.836358 -19.592714 
L 82.92787 -19.525949 
L 82.976339 -19.459184 
L 82.98185 -19.392419 
L 82.944465 -19.325654 
L 82.864205 -19.258889 
L 82.7411 -19.192124 
L 82.575269 -19.125359 
L 82.367053 -19.058594 
L 82.117156 -18.991828 
L 81.826803 -18.925063 
L 81.49787 -18.858298 
L 81.132991 -18.791533 
L 80.735617 -18.724768 
L 80.310013 -18.658003 
L 79.861203 -18.591238 
L 79.394856 -18.524473 
L 78.917118 -18.457708 
L 78.434409 -18.390943 
L 77.9532 -18.324178 
L 77.479779 -18.257413 
L 77.020028 -18.190647 
L 76.579229 -18.123882 
L 76.161905 -18.057117 
L 75.771704 -17.990352 
L 75.411334 -17.923587 
L 75.082551 -17.856822 
z
" style="stroke: #595959; stroke-width: 0.15"/>
    </defs>
    <g clip-path="url(#pa1d8c5b292)">
     <use xlink:href="#m2c4731f3c7" x="0" y="84.96" style="fill: #d275d2; stroke: #595959; stroke-width: 0.15"/>
    </g>
   </g>
   <g id="PolyCollection_4">
    <defs>
     <path id="m1cf9b11b6c" d="M 99.312779 -18.078821 
L 96.157881 -18.078821 
L 95.869132 -18.131213 
L 95.546852 -18.183606 
L 95.191093 -18.235998 
L 94.802724 -18.288391 
L 94.3835 -18.340783 
L 93.936113 -18.393175 
L 93.464211 -18.445568 
L 92.972384 -18.49796 
L 92.466115 -18.550353 
L 91.951703 -18.602745 
L 91.436156 -18.655138 
L 90.92705 -18.70753 
L 90.432369 -18.759923 
L 89.96033 -18.812315 
L 89.519178 -18.864707 
L 89.116989 -18.9171 
L 88.761453 -18.969492 
L 88.459665 -19.021885 
L 88.217914 -19.074277 
L 88.041486 -19.12667 
L 87.934486 -19.179062 
L 87.899677 -19.231455 
L 87.938355 -19.283847 
L 88.050263 -19.33624 
L 88.233543 -19.388632 
L 88.484744 -19.441024 
L 88.798886 -19.493417 
L 89.16957 -19.545809 
L 89.589148 -19.598202 
L 90.048941 -19.650594 
L 90.539485 -19.702987 
L 91.050823 -19.755379 
L 91.572791 -19.807772 
L 92.095327 -19.860164 
L 92.608745 -19.912556 
L 93.104001 -19.964949 
L 93.572913 -20.017341 
L 94.008335 -20.069734 
L 94.404294 -20.122126 
L 94.756061 -20.174519 
L 95.06019 -20.226911 
L 95.3145 -20.279304 
L 95.518031 -20.331696 
L 95.670961 -20.384089 
L 95.77451 -20.436481 
L 95.830825 -20.488873 
L 95.842856 -20.541266 
L 95.814229 -20.593658 
L 95.749119 -20.646051 
L 95.652128 -20.698443 
L 95.528161 -20.750836 
L 95.382309 -20.803228 
L 95.219737 -20.855621 
L 95.045569 -20.908013 
L 94.864793 -20.960405 
L 94.682153 -21.012798 
L 94.502064 -21.06519 
L 94.32853 -21.117583 
L 94.165071 -21.169975 
L 94.014671 -21.222368 
L 93.879734 -21.27476 
L 93.762066 -21.327153 
L 93.662863 -21.379545 
L 93.582733 -21.431938 
L 93.521724 -21.48433 
L 93.479377 -21.536722 
L 93.454795 -21.589115 
L 93.446724 -21.641507 
L 93.453647 -21.6939 
L 93.47389 -21.746292 
L 93.50572 -21.798685 
L 93.547455 -21.851077 
L 93.597556 -21.90347 
L 93.654716 -21.955862 
L 93.717922 -22.008254 
L 93.7865 -22.060647 
L 93.860131 -22.113039 
L 93.938843 -22.165432 
L 94.022971 -22.217824 
L 94.113094 -22.270217 
L 94.209952 -22.322609 
L 94.314341 -22.375002 
L 94.427016 -22.427394 
L 94.548576 -22.479787 
L 94.679378 -22.532179 
L 94.819454 -22.584571 
L 94.968462 -22.636964 
L 95.125658 -22.689356 
L 95.289904 -22.741749 
L 95.4597 -22.794141 
L 95.633246 -22.846534 
L 95.808521 -22.898926 
L 95.983378 -22.951319 
L 96.155644 -23.003711 
L 96.323218 -23.056103 
L 96.484161 -23.108496 
L 96.636776 -23.160888 
L 96.779661 -23.213281 
L 96.91175 -23.265673 
L 98.55891 -23.265673 
L 98.55891 -23.265673 
L 98.690998 -23.213281 
L 98.833884 -23.160888 
L 98.986499 -23.108496 
L 99.147442 -23.056103 
L 99.315016 -23.003711 
L 99.487281 -22.951319 
L 99.662139 -22.898926 
L 99.837414 -22.846534 
L 100.01096 -22.794141 
L 100.180756 -22.741749 
L 100.345002 -22.689356 
L 100.502198 -22.636964 
L 100.651206 -22.584571 
L 100.791282 -22.532179 
L 100.922084 -22.479787 
L 101.043644 -22.427394 
L 101.156318 -22.375002 
L 101.260708 -22.322609 
L 101.357565 -22.270217 
L 101.447689 -22.217824 
L 101.531817 -22.165432 
L 101.610529 -22.113039 
L 101.68416 -22.060647 
L 101.752737 -22.008254 
L 101.815943 -21.955862 
L 101.873104 -21.90347 
L 101.923205 -21.851077 
L 101.96494 -21.798685 
L 101.99677 -21.746292 
L 102.017012 -21.6939 
L 102.023936 -21.641507 
L 102.015865 -21.589115 
L 101.991283 -21.536722 
L 101.948936 -21.48433 
L 101.887927 -21.431938 
L 101.807797 -21.379545 
L 101.708594 -21.327153 
L 101.590926 -21.27476 
L 101.455989 -21.222368 
L 101.305589 -21.169975 
L 101.14213 -21.117583 
L 100.968595 -21.06519 
L 100.788507 -21.012798 
L 100.605867 -20.960405 
L 100.42509 -20.908013 
L 100.250923 -20.855621 
L 100.08835 -20.803228 
L 99.942499 -20.750836 
L 99.818532 -20.698443 
L 99.721541 -20.646051 
L 99.656431 -20.593658 
L 99.627803 -20.541266 
L 99.639834 -20.488873 
L 99.69615 -20.436481 
L 99.799699 -20.384089 
L 99.952629 -20.331696 
L 100.156159 -20.279304 
L 100.41047 -20.226911 
L 100.714599 -20.174519 
L 101.066366 -20.122126 
L 101.462325 -20.069734 
L 101.897747 -20.017341 
L 102.366658 -19.964949 
L 102.861915 -19.912556 
L 103.375333 -19.860164 
L 103.897868 -19.807772 
L 104.419837 -19.755379 
L 104.931174 -19.702987 
L 105.421719 -19.650594 
L 105.881511 -19.598202 
L 106.30109 -19.545809 
L 106.671774 -19.493417 
L 106.985916 -19.441024 
L 107.237117 -19.388632 
L 107.420397 -19.33624 
L 107.532304 -19.283847 
L 107.570983 -19.231455 
L 107.536174 -19.179062 
L 107.429174 -19.12667 
L 107.252746 -19.074277 
L 107.010995 -19.021885 
L 106.709206 -18.969492 
L 106.353671 -18.9171 
L 105.951482 -18.864707 
L 105.51033 -18.812315 
L 105.03829 -18.759923 
L 104.54361 -18.70753 
L 104.034504 -18.655138 
L 103.518957 -18.602745 
L 103.004545 -18.550353 
L 102.498276 -18.49796 
L 102.006448 -18.445568 
L 101.534547 -18.393175 
L 101.08716 -18.340783 
L 100.667936 -18.288391 
L 100.279566 -18.235998 
L 99.923808 -18.183606 
L 99.601528 -18.131213 
L 99.312779 -18.078821 
z
" style="stroke: #595959; stroke-width: 0.15"/>
    </defs>
    <g clip-path="url(#pa1d8c5b292)">
     <use xlink:href="#m1cf9b11b6c" x="0" y="84.96" style="fill: #da8cd9; stroke: #595959; stroke-width: 0.15"/>
    </g>
   </g>
   <g id="line2d_8">
    <path d="M 23.967931 66.136319 
L 23.967931 65.012678 
" clip-path="url(#pa1d8c5b292)" style="fill: none; stroke: #8c8c8c; stroke-width: 0.75; stroke-linecap: round"/>
   </g>
   <g id="line2d_9">
    <path d="M 23.967931 65.928985 
L 23.967931 65.38201 
" clip-path="url(#pa1d8c5b292)" style="fill: none; stroke: #8c8c8c; stroke-width: 4; stroke-linecap: round"/>
   </g>
   <g id="line2d_10">
    <path d="M 23.967931 65.670261 
" clip-path="url(#pa1d8c5b292)" style="fill: none; stroke: #595959; stroke-width: 1.2; stroke-linecap: round"/>
    <defs>
     <path id="ma406ac5868" d="M 0 0.833333 
C 0.221003 0.833333 0.432983 0.745528 0.589256 0.589256 
C 0.745528 0.432983 0.833333 0.221003 0.833333 0 
C 0.833333 -0.221003 0.745528 -0.432983 0.589256 -0.589256 
C 0.432983 -0.745528 0.221003 -0.833333 0 -0.833333 
C -0.221003 -0.833333 -0.432983 -0.745528 -0.589256 -0.589256 
C -0.745528 -0.432983 -0.833333 -0.221003 -0.833333 0 
C -0.833333 0.221003 -0.745528 0.432983 -0.589256 0.589256 
C -0.432983 0.745528 -0.221003 0.833333 0 0.833333 
z
" style="stroke: #ffffff; stroke-width: 0.8"/>
    </defs>
    <g clip-path="url(#pa1d8c5b292)">
     <use xlink:href="#ma406ac5868" x="23.967931" y="65.670261" style="fill: #ffffff; stroke: #ffffff; stroke-width: 0.8"/>
    </g>
   </g>
   <g id="line2d_11">
    <path d="M 48.557064 66.139421 
L 48.557064 64.756045 
" clip-path="url(#pa1d8c5b292)" style="fill: none; stroke: #8c8c8c; stroke-width: 0.75; stroke-linecap: round"/>
   </g>
   <g id="line2d_12">
    <path d="M 48.557064 65.998507 
L 48.557064 65.327032 
" clip-path="url(#pa1d8c5b292)" style="fill: none; stroke: #8c8c8c; stroke-width: 4; stroke-linecap: round"/>
   </g>
   <g id="line2d_13">
    <path d="M 48.557064 65.673576 
" clip-path="url(#pa1d8c5b292)" style="fill: none; stroke: #595959; stroke-width: 1.2; stroke-linecap: round"/>
    <g clip-path="url(#pa1d8c5b292)">
     <use xlink:href="#ma406ac5868" x="48.557064" y="65.673576" style="fill: #ffffff; stroke: #ffffff; stroke-width: 0.8"/>
    </g>
   </g>
   <g id="line2d_14">
    <path d="M 73.146197 66.139421 
L 73.146197 62.011204 
" clip-path="url(#pa1d8c5b292)" style="fill: none; stroke: #8c8c8c; stroke-width: 0.75; stroke-linecap: round"/>
   </g>
   <g id="line2d_15">
    <path d="M 73.146197 65.963881 
L 73.146197 64.20409 
" clip-path="url(#pa1d8c5b292)" style="fill: none; stroke: #8c8c8c; stroke-width: 4; stroke-linecap: round"/>
   </g>
   <g id="line2d_16">
    <path d="M 73.146197 65.09685 
" clip-path="url(#pa1d8c5b292)" style="fill: none; stroke: #595959; stroke-width: 1.2; stroke-linecap: round"/>
    <g clip-path="url(#pa1d8c5b292)">
     <use xlink:href="#ma406ac5868" x="73.146197" y="65.09685" style="fill: #ffffff; stroke: #ffffff; stroke-width: 0.8"/>
    </g>
   </g>
   <g id="line2d_17">
    <path d="M 97.73533 66.136319 
L 97.73533 62.439187 
" clip-path="url(#pa1d8c5b292)" style="fill: none; stroke: #8c8c8c; stroke-width: 0.75; stroke-linecap: round"/>
   </g>
   <g id="line2d_18">
    <path d="M 97.73533 65.722576 
L 97.73533 63.631019 
" clip-path="url(#pa1d8c5b292)" style="fill: none; stroke: #8c8c8c; stroke-width: 4; stroke-linecap: round"/>
   </g>
   <g id="line2d_19">
    <path d="M 97.73533 65.478556 
" clip-path="url(#pa1d8c5b292)" style="fill: none; stroke: #595959; stroke-width: 1.2; stroke-linecap: round"/>
    <g clip-path="url(#pa1d8c5b292)">
     <use xlink:href="#ma406ac5868" x="97.73533" y="65.478556" style="fill: #ffffff; stroke: #ffffff; stroke-width: 0.8"/>
    </g>
   </g>
   <g id="patch_3">
    <path d="M 11.673365 74.393822 
L 11.673365 4.076256 
" style="fill: none; stroke: #777777; stroke-width: 0.5; stroke-linejoin: miter; stroke-linecap: square"/>
   </g>
   <g id="patch_4">
    <path d="M 11.673365 76.893822 
L 110.029896 76.893822 
" style="fill: none; stroke: #777777; stroke-width: 0.5; stroke-linejoin: miter; stroke-linecap: square"/>
   </g>
  </g>
 </g>
 <defs>
  <clipPath id="pa1d8c5b292">
   <rect x="11.673365" y="4.076256" width="98.356531" height="70.317567"/>
  </clipPath>
 </defs>
</svg>
