<?xml version="1.0" encoding="utf-8" standalone="no"?>
<!DOCTYPE svg PUBLIC "-//W3C//DTD SVG 1.1//EN"
  "http://www.w3.org/Graphics/SVG/1.1/DTD/svg11.dtd">
<svg xmlns:xlink="http://www.w3.org/1999/xlink" width="84.96pt" height="56.16pt" viewBox="0 0 84.96 56.16" xmlns="http://www.w3.org/2000/svg" version="1.1">
 <metadata>
  <rdf:RDF xmlns:dc="http://purl.org/dc/elements/1.1/" xmlns:cc="http://creativecommons.org/ns#" xmlns:rdf="http://www.w3.org/1999/02/22-rdf-syntax-ns#">
   <cc:Work>
    <dc:type rdf:resource="http://purl.org/dc/dcmitype/StillImage"/>
    <dc:date>2024-05-27T15:37:26.566554</dc:date>
    <dc:format>image/svg+xml</dc:format>
    <dc:creator>
     <cc:Agent>
      <dc:title>Matplotlib v3.8.3, https://matplotlib.org/</dc:title>
     </cc:Agent>
    </dc:creator>
   </cc:Work>
  </rdf:RDF>
 </metadata>
 <defs>
  <style type="text/css">*{stroke-linejoin: round; stroke-linecap: butt}</style>
 </defs>
 <g id="figure_1">
  <g id="patch_1">
   <path d="M 0 56.16 
L 84.96 56.16 
L 84.96 0 
L 0 0 
z
" style="fill: #ffffff"/>
  </g>
  <g id="axes_1">
   <g id="patch_2">
    <path d="M 8.040474 45.323198 
L 80.571088 45.323198 
L 80.571088 3.00024 
L 8.040474 3.00024 
z
" style="fill: #ffffff"/>
   </g>
   <g id="matplotlib.axis_1">
    <g id="xtick_1">
     <g id="line2d_1">
      <defs>
       <path id="mef091b6fe2" d="M 0 0 
L 0 1 
" style="stroke: #777777; stroke-width: 0.5"/>
      </defs>
      <g>
       <use xlink:href="#mef091b6fe2" x="19.876014" y="47.823198" style="fill: #777777; stroke: #777777; stroke-width: 0.5"/>
      </g>
     </g>
     <g id="text_1">
      <!-- 0 -->
      <g style="fill: #333333" transform="translate(20.639373 51.491479) rotate(-90) scale(0.03 -0.03)">
       <defs>
        <path id="Helvetica-30" d="M 1731 4475 
Q 2600 4475 2988 3759 
Q 3288 3206 3288 2244 
Q 3288 1331 3016 734 
Q 2622 -122 1728 -122 
Q 922 -122 528 578 
Q 200 1163 200 2147 
Q 200 2909 397 3456 
Q 766 4475 1731 4475 
z
M 1725 391 
Q 2163 391 2422 778 
Q 2681 1166 2681 2222 
Q 2681 2984 2493 3476 
Q 2306 3969 1766 3969 
Q 1269 3969 1039 3501 
Q 809 3034 809 2125 
Q 809 1441 956 1025 
Q 1181 391 1725 391 
z
" transform="scale(0.015625)"/>
       </defs>
       <use xlink:href="#Helvetica-30"/>
      </g>
     </g>
    </g>
    <g id="xtick_2">
     <g id="line2d_2">
      <g>
       <use xlink:href="#mef091b6fe2" x="35.049782" y="47.823198" style="fill: #777777; stroke: #777777; stroke-width: 0.5"/>
      </g>
     </g>
     <g id="text_2">
      <!-- 5 -->
      <g style="fill: #333333" transform="translate(35.813142 51.491479) rotate(-90) scale(0.03 -0.03)">
       <defs>
        <path id="Helvetica-35" d="M 791 1141 
Q 847 659 1238 475 
Q 1438 381 1700 381 
Q 2200 381 2440 700 
Q 2681 1019 2681 1406 
Q 2681 1875 2395 2131 
Q 2109 2388 1709 2388 
Q 1419 2388 1211 2275 
Q 1003 2163 856 1963 
L 369 1991 
L 709 4400 
L 3034 4400 
L 3034 3856 
L 1131 3856 
L 941 2613 
Q 1097 2731 1238 2791 
Q 1488 2894 1816 2894 
Q 2431 2894 2859 2497 
Q 3288 2100 3288 1491 
Q 3288 856 2895 371 
Q 2503 -113 1644 -113 
Q 1097 -113 676 195 
Q 256 503 206 1141 
L 791 1141 
z
" transform="scale(0.015625)"/>
       </defs>
       <use xlink:href="#Helvetica-35"/>
      </g>
     </g>
    </g>
    <g id="xtick_3">
     <g id="line2d_3">
      <g>
       <use xlink:href="#mef091b6fe2" x="50.223551" y="47.823198" style="fill: #777777; stroke: #777777; stroke-width: 0.5"/>
      </g>
     </g>
     <g id="text_3">
      <!-- 10 -->
      <g style="fill: #333333" transform="translate(50.98691 53.15976) rotate(-90) scale(0.03 -0.03)">
       <defs>
        <path id="Helvetica-31" d="M 613 3169 
L 613 3600 
Q 1222 3659 1462 3798 
Q 1703 3938 1822 4456 
L 2266 4456 
L 2266 0 
L 1666 0 
L 1666 3169 
L 613 3169 
z
" transform="scale(0.015625)"/>
       </defs>
       <use xlink:href="#Helvetica-31"/>
       <use xlink:href="#Helvetica-30" x="55.615234"/>
      </g>
     </g>
    </g>
    <g id="xtick_4">
     <g id="line2d_4">
      <g>
       <use xlink:href="#mef091b6fe2" x="65.39732" y="47.823198" style="fill: #777777; stroke: #777777; stroke-width: 0.5"/>
      </g>
     </g>
     <g id="text_4">
      <!-- 15 -->
      <g style="fill: #333333" transform="translate(66.160679 53.15976) rotate(-90) scale(0.03 -0.03)">
       <use xlink:href="#Helvetica-31"/>
       <use xlink:href="#Helvetica-35" x="55.615234"/>
      </g>
     </g>
    </g>
    <g id="xtick_5">
     <g id="line2d_5">
      <g>
       <use xlink:href="#mef091b6fe2" x="80.571088" y="47.823198" style="fill: #777777; stroke: #777777; stroke-width: 0.5"/>
      </g>
     </g>
     <g id="text_5">
      <!-- 20 -->
      <g style="fill: #333333" transform="translate(81.334447 53.15976) rotate(-90) scale(0.03 -0.03)">
       <defs>
        <path id="Helvetica-32" d="M 200 0 
Q 231 578 439 1006 
Q 647 1434 1250 1784 
L 1850 2131 
Q 2253 2366 2416 2531 
Q 2672 2791 2672 3125 
Q 2672 3516 2437 3745 
Q 2203 3975 1813 3975 
Q 1234 3975 1013 3538 
Q 894 3303 881 2888 
L 309 2888 
Q 319 3472 525 3841 
Q 891 4491 1816 4491 
Q 2584 4491 2939 4075 
Q 3294 3659 3294 3150 
Q 3294 2613 2916 2231 
Q 2697 2009 2131 1694 
L 1703 1456 
Q 1397 1288 1222 1134 
Q 909 863 828 531 
L 3272 531 
L 3272 0 
L 200 0 
z
" transform="scale(0.015625)"/>
       </defs>
       <use xlink:href="#Helvetica-32"/>
       <use xlink:href="#Helvetica-30" x="55.615234"/>
      </g>
     </g>
    </g>
   </g>
   <g id="matplotlib.axis_2">
    <g id="ytick_1">
     <g id="text_6">
      <!-- TH1 -->
      <g style="fill: #333333" transform="translate(3.729771 8.798715) rotate(-270) scale(0.035 -0.035)">
       <defs>
        <path id="Helvetica-54" d="M 3828 4591 
L 3828 4044 
L 2281 4044 
L 2281 0 
L 1650 0 
L 1650 4044 
L 103 4044 
L 103 4591 
L 3828 4591 
z
" transform="scale(0.015625)"/>
        <path id="Helvetica-48" d="M 503 4591 
L 1131 4591 
L 1131 2694 
L 3519 2694 
L 3519 4591 
L 4147 4591 
L 4147 0 
L 3519 0 
L 3519 2147 
L 1131 2147 
L 1131 0 
L 503 0 
L 503 4591 
z
" transform="scale(0.015625)"/>
       </defs>
       <use xlink:href="#Helvetica-54"/>
       <use xlink:href="#Helvetica-48" x="61.083984"/>
       <use xlink:href="#Helvetica-31" x="133.300781"/>
      </g>
     </g>
    </g>
    <g id="ytick_2">
     <g id="text_7">
      <!-- TH2 -->
      <g style="fill: #333333" transform="translate(3.729771 22.906367) rotate(-270) scale(0.035 -0.035)">
       <use xlink:href="#Helvetica-54"/>
       <use xlink:href="#Helvetica-48" x="61.083984"/>
       <use xlink:href="#Helvetica-32" x="133.300781"/>
      </g>
     </g>
    </g>
    <g id="ytick_3">
     <g id="text_8">
      <!-- TH17 -->
      <g style="fill: #333333" transform="translate(3.729771 37.01402) rotate(-270) scale(0.035 -0.035)">
       <defs>
        <path id="Helvetica-37" d="M 3347 4400 
L 3347 3909 
Q 3131 3700 2773 3181 
Q 2416 2663 2141 2063 
Q 1869 1478 1728 997 
Q 1638 688 1494 0 
L 872 0 
Q 1084 1281 1809 2550 
Q 2238 3294 2709 3834 
L 234 3834 
L 234 4400 
L 3347 4400 
z
" transform="scale(0.015625)"/>
       </defs>
       <use xlink:href="#Helvetica-54"/>
       <use xlink:href="#Helvetica-48" x="61.083984"/>
       <use xlink:href="#Helvetica-31" x="133.300781"/>
       <use xlink:href="#Helvetica-37" x="188.916016"/>
      </g>
     </g>
    </g>
   </g>
   <g id="PolyCollection_1">
    <defs>
     <path id="m89e0bec15a" d="M 17.856375 -45.563097 
L 17.856375 -46.64877 
L 17.980902 -46.801822 
L 18.10543 -46.984959 
L 18.229957 -47.200088 
L 18.354485 -47.448082 
L 18.479012 -47.728501 
L 18.60354 -48.039357 
L 18.728067 -48.376971 
L 18.852595 -48.735934 
L 18.977122 -49.109207 
L 19.10165 -49.48837 
L 19.226177 -49.864014 
L 19.350705 -50.226246 
L 19.475232 -50.565293 
L 19.59976 -50.872121 
L 19.724287 -51.139031 
L 19.848815 -51.36017 
L 19.973342 -51.531879 
L 20.09787 -51.652874 
L 20.222397 -51.724199 
L 20.346925 -51.748995 
L 20.471452 -51.732073 
L 20.59598 -51.679373 
L 20.720507 -51.59735 
L 20.845035 -51.492361 
L 20.969562 -51.370125 
L 21.09409 -51.235305 
L 21.218617 -51.091249 
L 21.343145 -50.939911 
L 21.467672 -50.781945 
L 21.5922 -50.616934 
L 21.716727 -50.443741 
L 21.841255 -50.260895 
L 21.965782 -50.066997 
L 22.09031 -49.861071 
L 22.214837 -49.642842 
L 22.339365 -49.412904 
L 22.463892 -49.17278 
L 22.58842 -48.924867 
L 22.712947 -48.672293 
L 22.837475 -48.418705 
L 22.962002 -48.168013 
L 23.08653 -47.924127 
L 23.211057 -47.690709 
L 23.335585 -47.470966 
L 23.460112 -47.267491 
L 23.58464 -47.082166 
L 23.709167 -46.916129 
L 23.833695 -46.769795 
L 23.958222 -46.642921 
L 24.08275 -46.53471 
L 24.207277 -46.443933 
L 24.331805 -46.369061 
L 24.456332 -46.308397 
L 24.58086 -46.260194 
L 24.705387 -46.222757 
L 24.829915 -46.194529 
L 24.954442 -46.174153 
L 25.07897 -46.160518 
L 25.203497 -46.152781 
L 25.328025 -46.15038 
L 25.452552 -46.153028 
L 25.57708 -46.160695 
L 25.701607 -46.173581 
L 25.826135 -46.192073 
L 25.950662 -46.216691 
L 26.07519 -46.248022 
L 26.199717 -46.286644 
L 26.324245 -46.333036 
L 26.448772 -46.387489 
L 26.5733 -46.450013 
L 26.697827 -46.520249 
L 26.822355 -46.597402 
L 26.946882 -46.680196 
L 27.07141 -46.766861 
L 27.195937 -46.855167 
L 27.320465 -46.942488 
L 27.444992 -47.025923 
L 27.56952 -47.102444 
L 27.694047 -47.169075 
L 27.818575 -47.223078 
L 27.943102 -47.262145 
L 28.06763 -47.284554 
L 28.192157 -47.289303 
L 28.316685 -47.276176 
L 28.441212 -47.245765 
L 28.56574 -47.199423 
L 28.690267 -47.139165 
L 28.814795 -47.067524 
L 28.939322 -46.987371 
L 29.06385 -46.901731 
L 29.188377 -46.81359 
L 29.312905 -46.725733 
L 29.437432 -46.640609 
L 29.56196 -46.560228 
L 29.686487 -46.486118 
L 29.811015 -46.419306 
L 29.935542 -46.360344 
L 30.060069 -46.309366 
L 30.184597 -46.266153 
L 30.184597 -45.945715 
L 30.184597 -45.945715 
L 30.060069 -45.902502 
L 29.935542 -45.851523 
L 29.811015 -45.792562 
L 29.686487 -45.725749 
L 29.56196 -45.651639 
L 29.437432 -45.571259 
L 29.312905 -45.486134 
L 29.188377 -45.398278 
L 29.06385 -45.310137 
L 28.939322 -45.224496 
L 28.814795 -45.144344 
L 28.690267 -45.072702 
L 28.56574 -45.012445 
L 28.441212 -44.966103 
L 28.316685 -44.935691 
L 28.192157 -44.922564 
L 28.06763 -44.927313 
L 27.943102 -44.949723 
L 27.818575 -44.988789 
L 27.694047 -45.042793 
L 27.56952 -45.109423 
L 27.444992 -45.185944 
L 27.320465 -45.26938 
L 27.195937 -45.356701 
L 27.07141 -45.445006 
L 26.946882 -45.531672 
L 26.822355 -45.614466 
L 26.697827 -45.691619 
L 26.5733 -45.761855 
L 26.448772 -45.824379 
L 26.324245 -45.878832 
L 26.199717 -45.925224 
L 26.07519 -45.963845 
L 25.950662 -45.995176 
L 25.826135 -46.019794 
L 25.701607 -46.038286 
L 25.57708 -46.051173 
L 25.452552 -46.05884 
L 25.328025 -46.061488 
L 25.203497 -46.059086 
L 25.07897 -46.05135 
L 24.954442 -46.037714 
L 24.829915 -46.017339 
L 24.705387 -45.989111 
L 24.58086 -45.951674 
L 24.456332 -45.903471 
L 24.331805 -45.842807 
L 24.207277 -45.767935 
L 24.08275 -45.677157 
L 23.958222 -45.568946 
L 23.833695 -45.442072 
L 23.709167 -45.295738 
L 23.58464 -45.129702 
L 23.460112 -44.944377 
L 23.335585 -44.740901 
L 23.211057 -44.521158 
L 23.08653 -44.287741 
L 22.962002 -44.043854 
L 22.837475 -43.793162 
L 22.712947 -43.539574 
L 22.58842 -43.287001 
L 22.463892 -43.039088 
L 22.339365 -42.798964 
L 22.214837 -42.569026 
L 22.09031 -42.350797 
L 21.965782 -42.144871 
L 21.841255 -41.950973 
L 21.716727 -41.768127 
L 21.5922 -41.594933 
L 21.467672 -41.429923 
L 21.343145 -41.271956 
L 21.218617 -41.120619 
L 21.09409 -40.976563 
L 20.969562 -40.841743 
L 20.845035 -40.719507 
L 20.720507 -40.614517 
L 20.59598 -40.532494 
L 20.471452 -40.479795 
L 20.346925 -40.462873 
L 20.222397 -40.487668 
L 20.09787 -40.558994 
L 19.973342 -40.679988 
L 19.848815 -40.851698 
L 19.724287 -41.072836 
L 19.59976 -41.339747 
L 19.475232 -41.646574 
L 19.350705 -41.985621 
L 19.226177 -42.347854 
L 19.10165 -42.723497 
L 18.977122 -43.102661 
L 18.852595 -43.475934 
L 18.728067 -43.834896 
L 18.60354 -44.17251 
L 18.479012 -44.483367 
L 18.354485 -44.763785 
L 18.229957 -45.01178 
L 18.10543 -45.226909 
L 17.980902 -45.410045 
L 17.856375 -45.563097 
z
" style="stroke: #505050; stroke-width: 0.15"/>
    </defs>
    <g clip-path="url(#pc114782d69)">
     <use xlink:href="#m89e0bec15a" x="0" y="56.16" style="fill: #e7a980; stroke: #505050; stroke-width: 0.15"/>
    </g>
   </g>
   <g id="PolyCollection_2">
    <defs>
     <path id="m4c66ac28af" d="M 10.632667 -31.622483 
L 10.632667 -32.374079 
L 11.137718 -32.472126 
L 11.642769 -32.589319 
L 12.14782 -32.727577 
L 12.652872 -32.888539 
L 13.157923 -33.073428 
L 13.662974 -33.282907 
L 14.168025 -33.516947 
L 14.673076 -33.774705 
L 15.178127 -34.054431 
L 15.683179 -34.353417 
L 16.18823 -34.667985 
L 16.693281 -34.993534 
L 17.198332 -35.324655 
L 17.703383 -35.655283 
L 18.208434 -35.978927 
L 18.713486 -36.288919 
L 19.218537 -36.578707 
L 19.723588 -36.84215 
L 20.228639 -37.073807 
L 20.73369 -37.269189 
L 21.238741 -37.424969 
L 21.743793 -37.539126 
L 22.248844 -37.611012 
L 22.753895 -37.641342 
L 23.258946 -37.632106 
L 23.763997 -37.586409 
L 24.269048 -37.50826 
L 24.774099 -37.402315 
L 25.279151 -37.2736 
L 25.784202 -37.127237 
L 26.289253 -36.968184 
L 26.794304 -36.801011 
L 27.299355 -36.629716 
L 27.804406 -36.457611 
L 28.309458 -36.287247 
L 28.814509 -36.120408 
L 29.31956 -35.958162 
L 29.824611 -35.800942 
L 30.329662 -35.64868 
L 30.834713 -35.500956 
L 31.339765 -35.357159 
L 31.844816 -35.216652 
L 32.349867 -35.078927 
L 32.854918 -34.943731 
L 33.359969 -34.811174 
L 33.86502 -34.68179 
L 34.370072 -34.55657 
L 34.875123 -34.436946 
L 35.380174 -34.324739 
L 35.885225 -34.222073 
L 36.390276 -34.131264 
L 36.895327 -34.054689 
L 37.400378 -33.994641 
L 37.90543 -33.953194 
L 38.410481 -33.932075 
L 38.915532 -33.932555 
L 39.420583 -33.955368 
L 39.925634 -34.00066 
L 40.430685 -34.067967 
L 40.935737 -34.156227 
L 41.440788 -34.26381 
L 41.945839 -34.388576 
L 42.45089 -34.527935 
L 42.955941 -34.678926 
L 43.460992 -34.838283 
L 43.966044 -35.002505 
L 44.471095 -35.167919 
L 44.976146 -35.330739 
L 45.481197 -35.487114 
L 45.986248 -35.633192 
L 46.491299 -35.765176 
L 46.996351 -35.879399 
L 47.501402 -35.972409 
L 48.006453 -36.041061 
L 48.511504 -36.082631 
L 49.016555 -36.094929 
L 49.521606 -36.076404 
L 50.026658 -36.02625 
L 50.531709 -35.944477 
L 51.03676 -35.831962 
L 51.541811 -35.690449 
L 52.046862 -35.522515 
L 52.551913 -35.331486 
L 53.056964 -35.121312 
L 53.562016 -34.896411 
L 54.067067 -34.661483 
L 54.572118 -34.421314 
L 55.077169 -34.180581 
L 55.58222 -33.943674 
L 56.087271 -33.714535 
L 56.592323 -33.49654 
L 57.097374 -33.292411 
L 57.602425 -33.104178 
L 58.107476 -32.933171 
L 58.612527 -32.780061 
L 59.117578 -32.644913 
L 59.62263 -32.52728 
L 60.127681 -32.426291 
L 60.632732 -32.340762 
L 60.632732 -31.655801 
L 60.632732 -31.655801 
L 60.127681 -31.570271 
L 59.62263 -31.469283 
L 59.117578 -31.351649 
L 58.612527 -31.216502 
L 58.107476 -31.063391 
L 57.602425 -30.892385 
L 57.097374 -30.704151 
L 56.592323 -30.500022 
L 56.087271 -30.282027 
L 55.58222 -30.052889 
L 55.077169 -29.815982 
L 54.572118 -29.575249 
L 54.067067 -29.335079 
L 53.562016 -29.100151 
L 53.056964 -28.87525 
L 52.551913 -28.665077 
L 52.046862 -28.474047 
L 51.541811 -28.306113 
L 51.03676 -28.1646 
L 50.531709 -28.052085 
L 50.026658 -27.970313 
L 49.521606 -27.920158 
L 49.016555 -27.901634 
L 48.511504 -27.913931 
L 48.006453 -27.955502 
L 47.501402 -28.024154 
L 46.996351 -28.117163 
L 46.491299 -28.231387 
L 45.986248 -28.363371 
L 45.481197 -28.509449 
L 44.976146 -28.665824 
L 44.471095 -28.828643 
L 43.966044 -28.994058 
L 43.460992 -29.15828 
L 42.955941 -29.317637 
L 42.45089 -29.468627 
L 41.945839 -29.607987 
L 41.440788 -29.732752 
L 40.935737 -29.840335 
L 40.430685 -29.928595 
L 39.925634 -29.995902 
L 39.420583 -30.041194 
L 38.915532 -30.064007 
L 38.410481 -30.064488 
L 37.90543 -30.043369 
L 37.400378 -30.001922 
L 36.895327 -29.941874 
L 36.390276 -29.865298 
L 35.885225 -29.77449 
L 35.380174 -29.671824 
L 34.875123 -29.559616 
L 34.370072 -29.439992 
L 33.86502 -29.314773 
L 33.359969 -29.185389 
L 32.854918 -29.052831 
L 32.349867 -28.917635 
L 31.844816 -28.77991 
L 31.339765 -28.639404 
L 30.834713 -28.495607 
L 30.329662 -28.347882 
L 29.824611 -28.195621 
L 29.31956 -28.038401 
L 28.814509 -27.876154 
L 28.309458 -27.709316 
L 27.804406 -27.538951 
L 27.299355 -27.366846 
L 26.794304 -27.195552 
L 26.289253 -27.028378 
L 25.784202 -26.869325 
L 25.279151 -26.722963 
L 24.774099 -26.594248 
L 24.269048 -26.488302 
L 23.763997 -26.410154 
L 23.258946 -26.364457 
L 22.753895 -26.35522 
L 22.248844 -26.38555 
L 21.743793 -26.457437 
L 21.238741 -26.571594 
L 20.73369 -26.727374 
L 20.228639 -26.922755 
L 19.723588 -27.154412 
L 19.218537 -27.417856 
L 18.713486 -27.707644 
L 18.208434 -28.017635 
L 17.703383 -28.341279 
L 17.198332 -28.671908 
L 16.693281 -29.003028 
L 16.18823 -29.328578 
L 15.683179 -29.643145 
L 15.178127 -29.942131 
L 14.673076 -30.221858 
L 14.168025 -30.479615 
L 13.662974 -30.713655 
L 13.157923 -30.923134 
L 12.652872 -31.108023 
L 12.14782 -31.268986 
L 11.642769 -31.407244 
L 11.137718 -31.524436 
L 10.632667 -31.622483 
z
" style="stroke: #505050; stroke-width: 0.15"/>
    </defs>
    <g clip-path="url(#pc114782d69)">
     <use xlink:href="#m4c66ac28af" x="0" y="56.16" style="fill: #abc3de; stroke: #505050; stroke-width: 0.15"/>
    </g>
   </g>
   <g id="PolyCollection_3">
    <defs>
     <path id="m0a81c476cb" d="M 19.443993 -17.378115 
L 19.443993 -18.403142 
L 19.469739 -18.540966 
L 19.495486 -18.705508 
L 19.521233 -18.898907 
L 19.546979 -19.122629 
L 19.572726 -19.377234 
L 19.598472 -19.662154 
L 19.624219 -19.97549 
L 19.649966 -20.313876 
L 19.675712 -20.672398 
L 19.701459 -21.044618 
L 19.727205 -21.42269 
L 19.752952 -21.797586 
L 19.778698 -22.159431 
L 19.804445 -22.497917 
L 19.830192 -22.802798 
L 19.855938 -23.064416 
L 19.881685 -23.274221 
L 19.907431 -23.425269 
L 19.933178 -23.512628 
L 19.958925 -23.53369 
L 19.984671 -23.488342 
L 20.010418 -23.378995 
L 20.036164 -23.210458 
L 20.061911 -22.989682 
L 20.087658 -22.725372 
L 20.113404 -22.427522 
L 20.139151 -22.106882 
L 20.164897 -21.774417 
L 20.190644 -21.440773 
L 20.216391 -21.115808 
L 20.242137 -20.808183 
L 20.267884 -20.525065 
L 20.29363 -20.271926 
L 20.319377 -20.052456 
L 20.345124 -19.868581 
L 20.37087 -19.720569 
L 20.396617 -19.607219 
L 20.422363 -19.526101 
L 20.44811 -19.473837 
L 20.473857 -19.446398 
L 20.499603 -19.439388 
L 20.52535 -19.448318 
L 20.551096 -19.468835 
L 20.576843 -19.4969 
L 20.60259 -19.528925 
L 20.628336 -19.561841 
L 20.654083 -19.593125 
L 20.679829 -19.620778 
L 20.705576 -19.643268 
L 20.731323 -19.659462 
L 20.757069 -19.668539 
L 20.782816 -19.669922 
L 20.808562 -19.663215 
L 20.834309 -19.648174 
L 20.860056 -19.624701 
L 20.885802 -19.592856 
L 20.911549 -19.552901 
L 20.937295 -19.505339 
L 20.963042 -19.450968 
L 20.988789 -19.390906 
L 21.014535 -19.326609 
L 21.040282 -19.259848 
L 21.066028 -19.192662 
L 21.091775 -19.127269 
L 21.117522 -19.065959 
L 21.143268 -19.010955 
L 21.169015 -18.964269 
L 21.194761 -18.927562 
L 21.220508 -18.902009 
L 21.246255 -18.888204 
L 21.272001 -18.886083 
L 21.297748 -18.894906 
L 21.323494 -18.913271 
L 21.349241 -18.939186 
L 21.374988 -18.970178 
L 21.400734 -19.00343 
L 21.426481 -19.035961 
L 21.452227 -19.064797 
L 21.477974 -19.08716 
L 21.503721 -19.100629 
L 21.529467 -19.103281 
L 21.555214 -19.093796 
L 21.58096 -19.071519 
L 21.606707 -19.036468 
L 21.632454 -18.989308 
L 21.6582 -18.931275 
L 21.683947 -18.864069 
L 21.709693 -18.789728 
L 21.73544 -18.710484 
L 21.761187 -18.628623 
L 21.786933 -18.546353 
L 21.81268 -18.465695 
L 21.838426 -18.388393 
L 21.864173 -18.315862 
L 21.88992 -18.249151 
L 21.915666 -18.18895 
L 21.941413 -18.135607 
L 21.967159 -18.089165 
L 21.992906 -18.049417 
L 21.992906 -17.731841 
L 21.992906 -17.731841 
L 21.967159 -17.692093 
L 21.941413 -17.645651 
L 21.915666 -17.592307 
L 21.88992 -17.532107 
L 21.864173 -17.465396 
L 21.838426 -17.392864 
L 21.81268 -17.315563 
L 21.786933 -17.234905 
L 21.761187 -17.152635 
L 21.73544 -17.070773 
L 21.709693 -16.991529 
L 21.683947 -16.917189 
L 21.6582 -16.849983 
L 21.632454 -16.791949 
L 21.606707 -16.744789 
L 21.58096 -16.709738 
L 21.555214 -16.687461 
L 21.529467 -16.677977 
L 21.503721 -16.680629 
L 21.477974 -16.694097 
L 21.452227 -16.71646 
L 21.426481 -16.745297 
L 21.400734 -16.777827 
L 21.374988 -16.81108 
L 21.349241 -16.842071 
L 21.323494 -16.867987 
L 21.297748 -16.886352 
L 21.272001 -16.895174 
L 21.246255 -16.893053 
L 21.220508 -16.879248 
L 21.194761 -16.853696 
L 21.169015 -16.816988 
L 21.143268 -16.770302 
L 21.117522 -16.715298 
L 21.091775 -16.653988 
L 21.066028 -16.588596 
L 21.040282 -16.521409 
L 21.014535 -16.454649 
L 20.988789 -16.390351 
L 20.963042 -16.33029 
L 20.937295 -16.275918 
L 20.911549 -16.228357 
L 20.885802 -16.188401 
L 20.860056 -16.156557 
L 20.834309 -16.133083 
L 20.808562 -16.118043 
L 20.782816 -16.111336 
L 20.757069 -16.112718 
L 20.731323 -16.121796 
L 20.705576 -16.137989 
L 20.679829 -16.16048 
L 20.654083 -16.188132 
L 20.628336 -16.219417 
L 20.60259 -16.252333 
L 20.576843 -16.284358 
L 20.551096 -16.312423 
L 20.52535 -16.332939 
L 20.499603 -16.34187 
L 20.473857 -16.33486 
L 20.44811 -16.30742 
L 20.422363 -16.255157 
L 20.396617 -16.174038 
L 20.37087 -16.060688 
L 20.345124 -15.912677 
L 20.319377 -15.728802 
L 20.29363 -15.509332 
L 20.267884 -15.256193 
L 20.242137 -14.973074 
L 20.216391 -14.66545 
L 20.190644 -14.340484 
L 20.164897 -14.006841 
L 20.139151 -13.674375 
L 20.113404 -13.353736 
L 20.087658 -13.055885 
L 20.061911 -12.791576 
L 20.036164 -12.570799 
L 20.010418 -12.402263 
L 19.984671 -12.292915 
L 19.958925 -12.247568 
L 19.933178 -12.26863 
L 19.907431 -12.355989 
L 19.881685 -12.507036 
L 19.855938 -12.716842 
L 19.830192 -12.978459 
L 19.804445 -13.283341 
L 19.778698 -13.621827 
L 19.752952 -13.983671 
L 19.727205 -14.358568 
L 19.701459 -14.736639 
L 19.675712 -15.10886 
L 19.649966 -15.467382 
L 19.624219 -15.805767 
L 19.598472 -16.119104 
L 19.572726 -16.404023 
L 19.546979 -16.658629 
L 19.521233 -16.88235 
L 19.495486 -17.075749 
L 19.469739 -17.240291 
L 19.443993 -17.378115 
z
" style="stroke: #505050; stroke-width: 0.15"/>
    </defs>
    <g clip-path="url(#pc114782d69)">
     <use xlink:href="#m0a81c476cb" x="0" y="56.16" style="fill: #c447c3; stroke: #505050; stroke-width: 0.15"/>
    </g>
   </g>
   <g id="line2d_6">
    <path d="M 19.878084 10.054066 
L 22.398 10.054066 
" clip-path="url(#pc114782d69)" style="fill: none; stroke: #8c8c8c; stroke-width: 0.75; stroke-linecap: round"/>
   </g>
   <g id="line2d_7">
    <path d="M 19.925215 10.054066 
L 21.965254 10.054066 
" clip-path="url(#pc114782d69)" style="fill: none; stroke: #8c8c8c; stroke-width: 4; stroke-linecap: round"/>
   </g>
   <g id="line2d_8">
    <path d="M 20.795135 10.054066 
" clip-path="url(#pc114782d69)" style="fill: none; stroke: #505050; stroke-width: 1.2; stroke-linecap: round"/>
    <defs>
     <path id="m6948fc2d87" d="M 0 0.833333 
C 0.221003 0.833333 0.432983 0.745528 0.589256 0.589256 
C 0.745528 0.432983 0.833333 0.221003 0.833333 0 
C 0.833333 -0.221003 0.745528 -0.432983 0.589256 -0.589256 
C 0.432983 -0.745528 0.221003 -0.833333 0 -0.833333 
C -0.221003 -0.833333 -0.432983 -0.745528 -0.589256 -0.589256 
C -0.745528 -0.432983 -0.833333 -0.221003 -0.833333 0 
C -0.833333 0.221003 -0.745528 0.432983 -0.589256 0.589256 
C -0.432983 0.745528 -0.221003 0.833333 0 0.833333 
z
" style="stroke: #ffffff; stroke-width: 0.8"/>
    </defs>
    <g clip-path="url(#pc114782d69)">
     <use xlink:href="#m6948fc2d87" x="20.795135" y="10.054066" style="fill: #ffffff; stroke: #ffffff; stroke-width: 0.8"/>
    </g>
   </g>
   <g id="line2d_9">
    <path d="M 20.002845 24.161719 
L 51.262554 24.161719 
" clip-path="url(#pc114782d69)" style="fill: none; stroke: #8c8c8c; stroke-width: 0.75; stroke-linecap: round"/>
   </g>
   <g id="line2d_10">
    <path d="M 22.337353 24.161719 
L 45.781316 24.161719 
" clip-path="url(#pc114782d69)" style="fill: none; stroke: #8c8c8c; stroke-width: 4; stroke-linecap: round"/>
   </g>
   <g id="line2d_11">
    <path d="M 30.728446 24.161719 
" clip-path="url(#pc114782d69)" style="fill: none; stroke: #505050; stroke-width: 1.2; stroke-linecap: round"/>
    <g clip-path="url(#pc114782d69)">
     <use xlink:href="#m6948fc2d87" x="30.728446" y="24.161719" style="fill: #ffffff; stroke: #ffffff; stroke-width: 0.8"/>
    </g>
   </g>
   <g id="line2d_12">
    <path d="M 19.891846 38.269371 
L 21.545053 38.269371 
" clip-path="url(#pc114782d69)" style="fill: none; stroke: #8c8c8c; stroke-width: 0.75; stroke-linecap: round"/>
   </g>
   <g id="line2d_13">
    <path d="M 19.918678 38.269371 
L 20.698462 38.269371 
" clip-path="url(#pc114782d69)" style="fill: none; stroke: #8c8c8c; stroke-width: 4; stroke-linecap: round"/>
   </g>
   <g id="line2d_14">
    <path d="M 20.028374 38.269371 
" clip-path="url(#pc114782d69)" style="fill: none; stroke: #505050; stroke-width: 1.2; stroke-linecap: round"/>
    <g clip-path="url(#pc114782d69)">
     <use xlink:href="#m6948fc2d87" x="20.028374" y="38.269371" style="fill: #ffffff; stroke: #ffffff; stroke-width: 0.8"/>
    </g>
   </g>
   <g id="patch_3">
    <path d="M 8.040474 45.323197 
L 8.040474 3.00024 
" style="fill: none; stroke: #777777; stroke-width: 0.5; stroke-linejoin: miter; stroke-linecap: square"/>
   </g>
   <g id="patch_4">
    <path d="M 8.040474 47.823198 
L 80.571088 47.823198 
" style="fill: none; stroke: #777777; stroke-width: 0.5; stroke-linejoin: miter; stroke-linecap: square"/>
   </g>
   <g id="PathCollection_1">
    <defs>
     <path id="m6f5f8d51e7" d="M 0 0.375 
C 0.099451 0.375 0.194842 0.335488 0.265165 0.265165 
C 0.335488 0.194842 0.375 0.099451 0.375 0 
C 0.375 -0.099451 0.335488 -0.194842 0.265165 -0.265165 
C 0.194842 -0.335488 0.099451 -0.375 0 -0.375 
C -0.099451 -0.375 -0.194842 -0.335488 -0.265165 -0.265165 
C -0.335488 -0.194842 -0.375 -0.099451 -0.375 0 
C -0.375 0.099451 -0.335488 0.194842 -0.265165 0.265165 
C -0.194842 0.335488 -0.099451 0.375 0 0.375 
z
"/>
    </defs>
    <g clip-path="url(#pc114782d69)">
     <use xlink:href="#m6f5f8d51e7" x="19.897734" y="10.301135" style="fill: #642222"/>
     <use xlink:href="#m6f5f8d51e7" x="19.878084" y="10.731228" style="fill: #642222"/>
     <use xlink:href="#m6f5f8d51e7" x="20.190654" y="10.706587" style="fill: #642222"/>
     <use xlink:href="#m6f5f8d51e7" x="22.398" y="10.43161" style="fill: #642222"/>
     <use xlink:href="#m6f5f8d51e7" x="28.162888" y="8.667828" style="fill: #642222"/>
     <use xlink:href="#m6f5f8d51e7" x="19.934375" y="11.346521" style="fill: #642222"/>
     <use xlink:href="#m6f5f8d51e7" x="21.399615" y="10.250421" style="fill: #642222"/>
     <use xlink:href="#m6f5f8d51e7" x="21.821006" y="9.972649" style="fill: #642222"/>
    </g>
   </g>
   <g id="PathCollection_2">
    <g clip-path="url(#pc114782d69)">
     <use xlink:href="#m6f5f8d51e7" x="20.002845" y="23.000016" style="fill: #642222"/>
     <use xlink:href="#m6f5f8d51e7" x="22.424036" y="22.975364" style="fill: #642222"/>
     <use xlink:href="#m6f5f8d51e7" x="49.856561" y="22.911568" style="fill: #642222"/>
     <use xlink:href="#m6f5f8d51e7" x="33.50482" y="24.429905" style="fill: #642222"/>
     <use xlink:href="#m6f5f8d51e7" x="51.262554" y="23.49754" style="fill: #642222"/>
     <use xlink:href="#m6f5f8d51e7" x="22.077306" y="25.295818" style="fill: #642222"/>
     <use xlink:href="#m6f5f8d51e7" x="27.952073" y="23.711683" style="fill: #642222"/>
     <use xlink:href="#m6f5f8d51e7" x="44.422902" y="24.823089" style="fill: #642222"/>
    </g>
   </g>
   <g id="PathCollection_3">
    <g clip-path="url(#pc114782d69)">
     <use xlink:href="#m6f5f8d51e7" x="19.891861" y="38.95814" style="fill: #642222"/>
     <use xlink:href="#m6f5f8d51e7" x="19.927617" y="38.980716" style="fill: #642222"/>
     <use xlink:href="#m6f5f8d51e7" x="20.055104" y="37.411733" style="fill: #642222"/>
     <use xlink:href="#m6f5f8d51e7" x="21.545053" y="39.454207" style="fill: #642222"/>
     <use xlink:href="#m6f5f8d51e7" x="20.951798" y="39.624019" style="fill: #642222"/>
     <use xlink:href="#m6f5f8d51e7" x="19.891846" y="38.846561" style="fill: #642222"/>
     <use xlink:href="#m6f5f8d51e7" x="20.614017" y="38.507438" style="fill: #642222"/>
     <use xlink:href="#m6f5f8d51e7" x="20.001644" y="36.991309" style="fill: #642222"/>
    </g>
   </g>
  </g>
 </g>
 <defs>
  <clipPath id="pc114782d69">
   <rect x="8.040474" y="3.00024" width="72.530614" height="42.322957"/>
  </clipPath>
 </defs>
</svg>
