<?xml version="1.0" encoding="utf-8" standalone="no"?>
<!DOCTYPE svg PUBLIC "-//W3C//DTD SVG 1.1//EN"
  "http://www.w3.org/Graphics/SVG/1.1/DTD/svg11.dtd">
<svg xmlns:xlink="http://www.w3.org/1999/xlink" width="141.12pt" height="84.96pt" viewBox="0 0 141.12 84.96" xmlns="http://www.w3.org/2000/svg" version="1.1">
 <metadata>
  <rdf:RDF xmlns:dc="http://purl.org/dc/elements/1.1/" xmlns:cc="http://creativecommons.org/ns#" xmlns:rdf="http://www.w3.org/1999/02/22-rdf-syntax-ns#">
   <cc:Work>
    <dc:type rdf:resource="http://purl.org/dc/dcmitype/StillImage"/>
    <dc:date>2024-05-27T15:37:19.437219</dc:date>
    <dc:format>image/svg+xml</dc:format>
    <dc:creator>
     <cc:Agent>
      <dc:title>Matplotlib v3.8.3, https://matplotlib.org/</dc:title>
     </cc:Agent>
    </dc:creator>
   </cc:Work>
  </rdf:RDF>
 </metadata>
 <defs>
  <style type="text/css">*{stroke-linejoin: round; stroke-linecap: butt}</style>
 </defs>
 <g id="figure_1">
  <g id="patch_1">
   <path d="M 0 84.96 
L 141.12 84.96 
L 141.12 0 
L 0 0 
z
" style="fill: #ffffff"/>
  </g>
  <g id="axes_1">
   <g id="patch_2">
    <path d="M 13.341646 74.419526 
L 138.11976 74.419526 
L 138.11976 4.076256 
L 13.341646 4.076256 
z
" style="fill: #ffffff"/>
   </g>
   <g id="matplotlib.axis_1">
    <g id="xtick_1">
     <g id="text_1">
      <!-- Immature T -->
      <g style="fill: #333333" transform="translate(16.874497 81.230229) scale(0.035 -0.035)">
       <defs>
        <path id="Helvetica-49" d="M 628 4591 
L 1256 4591 
L 1256 0 
L 628 0 
L 628 4591 
z
" transform="scale(0.015625)"/>
        <path id="Helvetica-6d" d="M 413 3347 
L 969 3347 
L 969 2872 
Q 1169 3119 1331 3231 
Q 1609 3422 1963 3422 
Q 2363 3422 2606 3225 
Q 2744 3113 2856 2894 
Q 3044 3163 3297 3292 
Q 3550 3422 3866 3422 
Q 4541 3422 4784 2934 
Q 4916 2672 4916 2228 
L 4916 0 
L 4331 0 
L 4331 2325 
Q 4331 2659 4164 2784 
Q 3997 2909 3756 2909 
Q 3425 2909 3186 2687 
Q 2947 2466 2947 1947 
L 2947 0 
L 2375 0 
L 2375 2184 
Q 2375 2525 2294 2681 
Q 2166 2916 1816 2916 
Q 1497 2916 1236 2669 
Q 975 2422 975 1775 
L 975 0 
L 413 0 
L 413 3347 
z
" transform="scale(0.015625)"/>
        <path id="Helvetica-61" d="M 844 891 
Q 844 647 1022 506 
Q 1200 366 1444 366 
Q 1741 366 2019 503 
Q 2488 731 2488 1250 
L 2488 1703 
Q 2384 1638 2221 1594 
Q 2059 1550 1903 1531 
L 1563 1488 
Q 1256 1447 1103 1359 
Q 844 1213 844 891 
z
M 2206 2028 
Q 2400 2053 2466 2191 
Q 2503 2266 2503 2406 
Q 2503 2694 2298 2823 
Q 2094 2953 1713 2953 
Q 1272 2953 1088 2716 
Q 984 2584 953 2325 
L 428 2325 
Q 444 2944 830 3186 
Q 1216 3428 1725 3428 
Q 2316 3428 2684 3203 
Q 3050 2978 3050 2503 
L 3050 575 
Q 3050 488 3086 434 
Q 3122 381 3238 381 
Q 3275 381 3322 386 
Q 3369 391 3422 400 
L 3422 -16 
Q 3291 -53 3222 -62 
Q 3153 -72 3034 -72 
Q 2744 -72 2613 134 
Q 2544 244 2516 444 
Q 2344 219 2022 53 
Q 1700 -113 1313 -113 
Q 847 -113 551 170 
Q 256 453 256 878 
Q 256 1344 547 1600 
Q 838 1856 1309 1916 
L 2206 2028 
z
M 1741 3428 
L 1741 3428 
z
" transform="scale(0.015625)"/>
        <path id="Helvetica-74" d="M 525 4281 
L 1094 4281 
L 1094 3347 
L 1628 3347 
L 1628 2888 
L 1094 2888 
L 1094 703 
Q 1094 528 1213 469 
Q 1278 434 1431 434 
Q 1472 434 1519 436 
Q 1566 438 1628 444 
L 1628 0 
Q 1531 -28 1426 -40 
Q 1322 -53 1200 -53 
Q 806 -53 665 148 
Q 525 350 525 672 
L 525 2888 
L 72 2888 
L 72 3347 
L 525 3347 
L 525 4281 
z
" transform="scale(0.015625)"/>
        <path id="Helvetica-75" d="M 975 3347 
L 975 1125 
Q 975 869 1056 706 
Q 1206 406 1616 406 
Q 2203 406 2416 931 
Q 2531 1213 2531 1703 
L 2531 3347 
L 3094 3347 
L 3094 0 
L 2563 0 
L 2569 494 
Q 2459 303 2297 172 
Q 1975 -91 1516 -91 
Q 800 -91 541 388 
Q 400 644 400 1072 
L 400 3347 
L 975 3347 
z
M 1747 3428 
L 1747 3428 
z
" transform="scale(0.015625)"/>
        <path id="Helvetica-72" d="M 428 3347 
L 963 3347 
L 963 2769 
Q 1028 2938 1284 3180 
Q 1541 3422 1875 3422 
Q 1891 3422 1928 3419 
Q 1966 3416 2056 3406 
L 2056 2813 
Q 2006 2822 1964 2825 
Q 1922 2828 1872 2828 
Q 1447 2828 1219 2554 
Q 991 2281 991 1925 
L 991 0 
L 428 0 
L 428 3347 
z
" transform="scale(0.015625)"/>
        <path id="Helvetica-65" d="M 1806 3422 
Q 2163 3422 2497 3255 
Q 2831 3088 3006 2822 
Q 3175 2569 3231 2231 
Q 3281 2000 3281 1494 
L 828 1494 
Q 844 984 1069 676 
Q 1294 369 1766 369 
Q 2206 369 2469 659 
Q 2619 828 2681 1050 
L 3234 1050 
Q 3213 866 3089 639 
Q 2966 413 2813 269 
Q 2556 19 2178 -69 
Q 1975 -119 1719 -119 
Q 1094 -119 659 336 
Q 225 791 225 1609 
Q 225 2416 662 2919 
Q 1100 3422 1806 3422 
z
M 2703 1941 
Q 2669 2306 2544 2525 
Q 2313 2931 1772 2931 
Q 1384 2931 1121 2651 
Q 859 2372 844 1941 
L 2703 1941 
z
M 1753 3428 
L 1753 3428 
z
" transform="scale(0.015625)"/>
        <path id="Helvetica-20" transform="scale(0.015625)"/>
        <path id="Helvetica-54" d="M 3828 4591 
L 3828 4044 
L 2281 4044 
L 2281 0 
L 1650 0 
L 1650 4044 
L 103 4044 
L 103 4591 
L 3828 4591 
z
" transform="scale(0.015625)"/>
       </defs>
       <use xlink:href="#Helvetica-49"/>
       <use xlink:href="#Helvetica-6d" x="27.783203"/>
       <use xlink:href="#Helvetica-6d" x="111.083984"/>
       <use xlink:href="#Helvetica-61" x="194.384766"/>
       <use xlink:href="#Helvetica-74" x="250"/>
       <use xlink:href="#Helvetica-75" x="277.783203"/>
       <use xlink:href="#Helvetica-72" x="333.398438"/>
       <use xlink:href="#Helvetica-65" x="366.699219"/>
       <use xlink:href="#Helvetica-20" x="422.314453"/>
       <use xlink:href="#Helvetica-54" x="450.097656"/>
      </g>
     </g>
    </g>
    <g id="xtick_2">
     <g id="text_2">
      <!-- Mature T -->
      <g style="fill: #333333" transform="translate(43.773987 81.230229) scale(0.035 -0.035)">
       <defs>
        <path id="Helvetica-4d" d="M 472 4591 
L 1363 4591 
L 2681 709 
L 3991 4591 
L 4872 4591 
L 4872 0 
L 4281 0 
L 4281 2709 
Q 4281 2850 4287 3175 
Q 4294 3500 4294 3872 
L 2984 0 
L 2369 0 
L 1050 3872 
L 1050 3731 
Q 1050 3563 1058 3217 
Q 1066 2872 1066 2709 
L 1066 0 
L 472 0 
L 472 4591 
z
" transform="scale(0.015625)"/>
       </defs>
       <use xlink:href="#Helvetica-4d"/>
       <use xlink:href="#Helvetica-61" x="83.300781"/>
       <use xlink:href="#Helvetica-74" x="138.916016"/>
       <use xlink:href="#Helvetica-75" x="166.699219"/>
       <use xlink:href="#Helvetica-72" x="222.314453"/>
       <use xlink:href="#Helvetica-65" x="255.615234"/>
       <use xlink:href="#Helvetica-20" x="311.230469"/>
       <use xlink:href="#Helvetica-54" x="339.013672"/>
      </g>
     </g>
    </g>
    <g id="xtick_3">
     <g id="text_3">
      <!-- IL7R Non T -->
      <g style="fill: #333333" transform="translate(66.783008 81.230229) scale(0.035 -0.035)">
       <defs>
        <path id="Helvetica-4c" d="M 488 4591 
L 1109 4591 
L 1109 547 
L 3434 547 
L 3434 0 
L 488 0 
L 488 4591 
z
" transform="scale(0.015625)"/>
        <path id="Helvetica-37" d="M 3347 4400 
L 3347 3909 
Q 3131 3700 2773 3181 
Q 2416 2663 2141 2063 
Q 1869 1478 1728 997 
Q 1638 688 1494 0 
L 872 0 
Q 1084 1281 1809 2550 
Q 2238 3294 2709 3834 
L 234 3834 
L 234 4400 
L 3347 4400 
z
" transform="scale(0.015625)"/>
        <path id="Helvetica-52" d="M 2622 2488 
Q 3059 2488 3314 2663 
Q 3569 2838 3569 3294 
Q 3569 3784 3213 3963 
Q 3022 4056 2703 4056 
L 1184 4056 
L 1184 2488 
L 2622 2488 
z
M 563 4591 
L 2688 4591 
Q 3213 4591 3553 4438 
Q 4200 4144 4200 3353 
Q 4200 2941 4029 2678 
Q 3859 2416 3553 2256 
Q 3822 2147 3958 1969 
Q 4094 1791 4109 1391 
L 4131 775 
Q 4141 513 4175 384 
Q 4231 166 4375 103 
L 4375 0 
L 3613 0 
Q 3581 59 3562 153 
Q 3544 247 3531 516 
L 3494 1281 
Q 3472 1731 3159 1884 
Q 2981 1969 2600 1969 
L 1184 1969 
L 1184 0 
L 563 0 
L 563 4591 
z
" transform="scale(0.015625)"/>
        <path id="Helvetica-4e" d="M 488 4591 
L 1222 4591 
L 3541 872 
L 3541 4591 
L 4131 4591 
L 4131 0 
L 3434 0 
L 1081 3716 
L 1081 0 
L 488 0 
L 488 4591 
z
M 2269 4591 
L 2269 4591 
z
" transform="scale(0.015625)"/>
        <path id="Helvetica-6f" d="M 1741 363 
Q 2300 363 2508 786 
Q 2716 1209 2716 1728 
Q 2716 2197 2566 2491 
Q 2328 2953 1747 2953 
Q 1231 2953 997 2559 
Q 763 2166 763 1609 
Q 763 1075 997 719 
Q 1231 363 1741 363 
z
M 1763 3444 
Q 2409 3444 2856 3012 
Q 3303 2581 3303 1744 
Q 3303 934 2909 406 
Q 2516 -122 1688 -122 
Q 997 -122 590 345 
Q 184 813 184 1600 
Q 184 2444 612 2944 
Q 1041 3444 1763 3444 
z
M 1744 3428 
L 1744 3428 
z
" transform="scale(0.015625)"/>
        <path id="Helvetica-6e" d="M 413 3347 
L 947 3347 
L 947 2872 
Q 1184 3166 1450 3294 
Q 1716 3422 2041 3422 
Q 2753 3422 3003 2925 
Q 3141 2653 3141 2147 
L 3141 0 
L 2569 0 
L 2569 2109 
Q 2569 2416 2478 2603 
Q 2328 2916 1934 2916 
Q 1734 2916 1606 2875 
Q 1375 2806 1200 2600 
Q 1059 2434 1017 2257 
Q 975 2081 975 1753 
L 975 0 
L 413 0 
L 413 3347 
z
M 1734 3428 
L 1734 3428 
z
" transform="scale(0.015625)"/>
       </defs>
       <use xlink:href="#Helvetica-49"/>
       <use xlink:href="#Helvetica-4c" x="27.783203"/>
       <use xlink:href="#Helvetica-37" x="83.398438"/>
       <use xlink:href="#Helvetica-52" x="139.013672"/>
       <use xlink:href="#Helvetica-20" x="211.230469"/>
       <use xlink:href="#Helvetica-4e" x="239.013672"/>
       <use xlink:href="#Helvetica-6f" x="311.230469"/>
       <use xlink:href="#Helvetica-6e" x="366.845703"/>
       <use xlink:href="#Helvetica-20" x="422.460938"/>
       <use xlink:href="#Helvetica-54" x="450.244141"/>
      </g>
     </g>
    </g>
    <g id="xtick_4">
     <g id="text_4">
      <!-- IL7R Immature T -->
      <g style="fill: #333333" transform="translate(87.558865 81.230229) scale(0.035 -0.035)">
       <use xlink:href="#Helvetica-49"/>
       <use xlink:href="#Helvetica-4c" x="27.783203"/>
       <use xlink:href="#Helvetica-37" x="83.398438"/>
       <use xlink:href="#Helvetica-52" x="139.013672"/>
       <use xlink:href="#Helvetica-20" x="211.230469"/>
       <use xlink:href="#Helvetica-49" x="239.013672"/>
       <use xlink:href="#Helvetica-6d" x="266.796875"/>
       <use xlink:href="#Helvetica-6d" x="350.097656"/>
       <use xlink:href="#Helvetica-61" x="433.398438"/>
       <use xlink:href="#Helvetica-74" x="489.013672"/>
       <use xlink:href="#Helvetica-75" x="516.796875"/>
       <use xlink:href="#Helvetica-72" x="572.412109"/>
       <use xlink:href="#Helvetica-65" x="605.712891"/>
       <use xlink:href="#Helvetica-20" x="661.328125"/>
       <use xlink:href="#Helvetica-54" x="689.111328"/>
      </g>
     </g>
    </g>
    <g id="xtick_5">
     <g id="text_5">
      <!-- IL7R Mature T -->
      <g style="fill: #333333" transform="translate(114.458355 81.230229) scale(0.035 -0.035)">
       <use xlink:href="#Helvetica-49"/>
       <use xlink:href="#Helvetica-4c" x="27.783203"/>
       <use xlink:href="#Helvetica-37" x="83.398438"/>
       <use xlink:href="#Helvetica-52" x="139.013672"/>
       <use xlink:href="#Helvetica-20" x="211.230469"/>
       <use xlink:href="#Helvetica-4d" x="239.013672"/>
       <use xlink:href="#Helvetica-61" x="322.314453"/>
       <use xlink:href="#Helvetica-74" x="377.929688"/>
       <use xlink:href="#Helvetica-75" x="405.712891"/>
       <use xlink:href="#Helvetica-72" x="461.328125"/>
       <use xlink:href="#Helvetica-65" x="494.628906"/>
       <use xlink:href="#Helvetica-20" x="550.244141"/>
       <use xlink:href="#Helvetica-54" x="578.027344"/>
      </g>
     </g>
    </g>
   </g>
   <g id="matplotlib.axis_2">
    <g id="ytick_1">
     <g id="line2d_1">
      <defs>
       <path id="m92039ddb55" d="M 0 0 
L -1 0 
" style="stroke: #777777; stroke-width: 0.5"/>
      </defs>
      <g>
       <use xlink:href="#m92039ddb55" x="13.341646" y="68.030497" style="fill: #777777; stroke: #777777; stroke-width: 0.5"/>
      </g>
     </g>
     <g id="text_6">
      <!-- 0 -->
      <g style="fill: #333333" transform="translate(9.673365 69.106513) scale(0.03 -0.03)">
       <defs>
        <path id="Helvetica-30" d="M 1731 4475 
Q 2600 4475 2988 3759 
Q 3288 3206 3288 2244 
Q 3288 1331 3016 734 
Q 2622 -122 1728 -122 
Q 922 -122 528 578 
Q 200 1163 200 2147 
Q 200 2909 397 3456 
Q 766 4475 1731 4475 
z
M 1725 391 
Q 2163 391 2422 778 
Q 2681 1166 2681 2222 
Q 2681 2984 2493 3476 
Q 2306 3969 1766 3969 
Q 1269 3969 1039 3501 
Q 809 3034 809 2125 
Q 809 1441 956 1025 
Q 1181 391 1725 391 
z
" transform="scale(0.015625)"/>
       </defs>
       <use xlink:href="#Helvetica-30"/>
      </g>
     </g>
    </g>
    <g id="ytick_2">
     <g id="line2d_2">
      <g>
       <use xlink:href="#m92039ddb55" x="13.341646" y="55.239649" style="fill: #777777; stroke: #777777; stroke-width: 0.5"/>
      </g>
     </g>
     <g id="text_7">
      <!-- 2000 -->
      <g style="fill: #333333" transform="translate(4.668521 56.315664) scale(0.03 -0.03)">
       <defs>
        <path id="Helvetica-32" d="M 200 0 
Q 231 578 439 1006 
Q 647 1434 1250 1784 
L 1850 2131 
Q 2253 2366 2416 2531 
Q 2672 2791 2672 3125 
Q 2672 3516 2437 3745 
Q 2203 3975 1813 3975 
Q 1234 3975 1013 3538 
Q 894 3303 881 2888 
L 309 2888 
Q 319 3472 525 3841 
Q 891 4491 1816 4491 
Q 2584 4491 2939 4075 
Q 3294 3659 3294 3150 
Q 3294 2613 2916 2231 
Q 2697 2009 2131 1694 
L 1703 1456 
Q 1397 1288 1222 1134 
Q 909 863 828 531 
L 3272 531 
L 3272 0 
L 200 0 
z
" transform="scale(0.015625)"/>
       </defs>
       <use xlink:href="#Helvetica-32"/>
       <use xlink:href="#Helvetica-30" x="55.615234"/>
       <use xlink:href="#Helvetica-30" x="111.230469"/>
       <use xlink:href="#Helvetica-30" x="166.845703"/>
      </g>
     </g>
    </g>
    <g id="ytick_3">
     <g id="line2d_3">
      <g>
       <use xlink:href="#m92039ddb55" x="13.341646" y="42.4488" style="fill: #777777; stroke: #777777; stroke-width: 0.5"/>
      </g>
     </g>
     <g id="text_8">
      <!-- 4000 -->
      <g style="fill: #333333" transform="translate(4.668521 43.524816) scale(0.03 -0.03)">
       <defs>
        <path id="Helvetica-34" d="M 2116 1584 
L 2116 3613 
L 681 1584 
L 2116 1584 
z
M 2125 0 
L 2125 1094 
L 163 1094 
L 163 1644 
L 2213 4488 
L 2688 4488 
L 2688 1584 
L 3347 1584 
L 3347 1094 
L 2688 1094 
L 2688 0 
L 2125 0 
z
" transform="scale(0.015625)"/>
       </defs>
       <use xlink:href="#Helvetica-34"/>
       <use xlink:href="#Helvetica-30" x="55.615234"/>
       <use xlink:href="#Helvetica-30" x="111.230469"/>
       <use xlink:href="#Helvetica-30" x="166.845703"/>
      </g>
     </g>
    </g>
    <g id="ytick_4">
     <g id="line2d_4">
      <g>
       <use xlink:href="#m92039ddb55" x="13.341646" y="29.657952" style="fill: #777777; stroke: #777777; stroke-width: 0.5"/>
      </g>
     </g>
     <g id="text_9">
      <!-- 6000 -->
      <g style="fill: #333333" transform="translate(4.668521 30.733968) scale(0.03 -0.03)">
       <defs>
        <path id="Helvetica-36" d="M 1872 4494 
Q 2622 4494 2917 4105 
Q 3213 3716 3213 3303 
L 2656 3303 
Q 2606 3569 2497 3719 
Q 2294 4000 1881 4000 
Q 1409 4000 1131 3564 
Q 853 3128 822 2316 
Q 1016 2600 1309 2741 
Q 1578 2866 1909 2866 
Q 2472 2866 2890 2506 
Q 3309 2147 3309 1434 
Q 3309 825 2912 354 
Q 2516 -116 1781 -116 
Q 1153 -116 697 361 
Q 241 838 241 1966 
Q 241 2800 444 3381 
Q 834 4494 1872 4494 
z
M 1831 384 
Q 2275 384 2495 682 
Q 2716 981 2716 1388 
Q 2716 1731 2519 2042 
Q 2322 2353 1803 2353 
Q 1441 2353 1167 2112 
Q 894 1872 894 1388 
Q 894 963 1142 673 
Q 1391 384 1831 384 
z
" transform="scale(0.015625)"/>
       </defs>
       <use xlink:href="#Helvetica-36"/>
       <use xlink:href="#Helvetica-30" x="55.615234"/>
       <use xlink:href="#Helvetica-30" x="111.230469"/>
       <use xlink:href="#Helvetica-30" x="166.845703"/>
      </g>
     </g>
    </g>
    <g id="ytick_5">
     <g id="line2d_5">
      <g>
       <use xlink:href="#m92039ddb55" x="13.341646" y="16.867104" style="fill: #777777; stroke: #777777; stroke-width: 0.5"/>
      </g>
     </g>
     <g id="text_10">
      <!-- 8000 -->
      <g style="fill: #333333" transform="translate(4.668521 17.94312) scale(0.03 -0.03)">
       <defs>
        <path id="Helvetica-38" d="M 1741 2600 
Q 2113 2600 2322 2808 
Q 2531 3016 2531 3303 
Q 2531 3553 2331 3762 
Q 2131 3972 1722 3972 
Q 1316 3972 1134 3762 
Q 953 3553 953 3272 
Q 953 2956 1187 2778 
Q 1422 2600 1741 2600 
z
M 1775 384 
Q 2166 384 2423 595 
Q 2681 806 2681 1225 
Q 2681 1659 2415 1884 
Q 2150 2109 1734 2109 
Q 1331 2109 1076 1879 
Q 822 1650 822 1244 
Q 822 894 1055 639 
Q 1288 384 1775 384 
z
M 975 2384 
Q 741 2484 609 2619 
Q 363 2869 363 3269 
Q 363 3769 725 4128 
Q 1088 4488 1753 4488 
Q 2397 4488 2762 4148 
Q 3128 3809 3128 3356 
Q 3128 2938 2916 2678 
Q 2797 2531 2547 2391 
Q 2825 2263 2984 2097 
Q 3281 1784 3281 1284 
Q 3281 694 2884 283 
Q 2488 -128 1763 -128 
Q 1109 -128 657 226 
Q 206 581 206 1256 
Q 206 1653 400 1942 
Q 594 2231 975 2384 
z
" transform="scale(0.015625)"/>
       </defs>
       <use xlink:href="#Helvetica-38"/>
       <use xlink:href="#Helvetica-30" x="55.615234"/>
       <use xlink:href="#Helvetica-30" x="111.230469"/>
       <use xlink:href="#Helvetica-30" x="166.845703"/>
      </g>
     </g>
    </g>
    <g id="ytick_6">
     <g id="line2d_6">
      <g>
       <use xlink:href="#m92039ddb55" x="13.341646" y="4.076256" style="fill: #777777; stroke: #777777; stroke-width: 0.5"/>
      </g>
     </g>
     <g id="text_11">
      <!-- 10000 -->
      <g style="fill: #333333" transform="translate(3.00024 5.152271) scale(0.03 -0.03)">
       <defs>
        <path id="Helvetica-31" d="M 613 3169 
L 613 3600 
Q 1222 3659 1462 3798 
Q 1703 3938 1822 4456 
L 2266 4456 
L 2266 0 
L 1666 0 
L 1666 3169 
L 613 3169 
z
" transform="scale(0.015625)"/>
       </defs>
       <use xlink:href="#Helvetica-31"/>
       <use xlink:href="#Helvetica-30" x="55.615234"/>
       <use xlink:href="#Helvetica-30" x="111.230469"/>
       <use xlink:href="#Helvetica-30" x="166.845703"/>
       <use xlink:href="#Helvetica-30" x="222.460938"/>
      </g>
     </g>
    </g>
   </g>
   <g id="PolyCollection_1">
    <defs>
     <path id="mab8b47ac34" d="M 26.899003 -15.911548 
L 24.739912 -15.911548 
L 24.454645 -16.086333 
L 24.126824 -16.261118 
L 23.759605 -16.435903 
L 23.358864 -16.610688 
L 22.933116 -16.785473 
L 22.493129 -16.960258 
L 22.051248 -17.135043 
L 21.62047 -17.309828 
L 21.213365 -17.484613 
L 20.840972 -17.659398 
L 20.511802 -17.834183 
L 20.231069 -18.008967 
L 20.000258 -18.183752 
L 19.817065 -18.358537 
L 19.675704 -18.533322 
L 19.567534 -18.708107 
L 19.481889 -18.882892 
L 19.40703 -19.057677 
L 19.33108 -19.232462 
L 19.242878 -19.407247 
L 19.132699 -19.582032 
L 18.992807 -19.756817 
L 18.817878 -19.931602 
L 18.605298 -20.106387 
L 18.355369 -20.281172 
L 18.07143 -20.455957 
L 17.7599 -20.630742 
L 17.430191 -20.805527 
L 17.094481 -20.980312 
L 16.767295 -21.155097 
L 16.464878 -21.329882 
L 16.204366 -21.504667 
L 16.002779 -21.679451 
L 15.875914 -21.854236 
L 15.837209 -22.029021 
L 15.896687 -22.203806 
L 16.060077 -22.378591 
L 16.328195 -22.553376 
L 16.696647 -22.728161 
L 17.155895 -22.902946 
L 17.691677 -23.077731 
L 18.285751 -23.252516 
L 18.91691 -23.427301 
L 19.562187 -23.602086 
L 20.198159 -23.776871 
L 20.802265 -23.951656 
L 21.354054 -24.126441 
L 21.836284 -24.301226 
L 22.235815 -24.476011 
L 22.544255 -24.650796 
L 22.758314 -24.825581 
L 22.879858 -25.000366 
L 22.91566 -25.17515 
L 22.876842 -25.349935 
L 22.778053 -25.52472 
L 22.636418 -25.699505 
L 22.470331 -25.87429 
L 22.298172 -26.049075 
L 22.137055 -26.22386 
L 22.001705 -26.398645 
L 21.903549 -26.57343 
L 21.850112 -26.748215 
L 21.844743 -26.923 
L 21.886676 -27.097785 
L 21.971417 -27.27257 
L 22.091374 -27.447355 
L 22.236671 -27.62214 
L 22.396069 -27.796925 
L 22.557902 -27.97171 
L 22.710988 -28.146495 
L 22.845436 -28.32128 
L 22.953335 -28.496065 
L 23.029274 -28.670849 
L 23.070688 -28.845634 
L 23.077979 -29.020419 
L 23.054437 -29.195204 
L 23.00593 -29.369989 
L 22.940398 -29.544774 
L 22.867183 -29.719559 
L 22.796254 -29.894344 
L 22.737402 -30.069129 
L 22.699476 -30.243914 
L 22.689739 -30.418699 
L 22.713395 -30.593484 
L 22.773324 -30.768269 
L 22.870023 -30.943054 
L 23.001749 -31.117839 
L 23.164807 -31.292624 
L 23.353967 -31.467409 
L 23.562927 -31.642194 
L 23.784804 -31.816979 
L 24.012603 -31.991764 
L 24.239634 -32.166549 
L 24.459862 -32.341333 
L 24.668172 -32.516118 
L 24.860545 -32.690903 
L 25.034143 -32.865688 
L 25.187305 -33.040473 
L 25.319471 -33.215258 
L 26.319444 -33.215258 
L 26.319444 -33.215258 
L 26.45161 -33.040473 
L 26.604773 -32.865688 
L 26.778371 -32.690903 
L 26.970744 -32.516118 
L 27.179053 -32.341333 
L 27.399281 -32.166549 
L 27.626312 -31.991764 
L 27.854111 -31.816979 
L 28.075988 -31.642194 
L 28.284948 -31.467409 
L 28.474108 -31.292624 
L 28.637167 -31.117839 
L 28.768892 -30.943054 
L 28.865592 -30.768269 
L 28.92552 -30.593484 
L 28.949176 -30.418699 
L 28.939439 -30.243914 
L 28.901513 -30.069129 
L 28.842661 -29.894344 
L 28.771733 -29.719559 
L 28.698518 -29.544774 
L 28.632986 -29.369989 
L 28.584479 -29.195204 
L 28.560937 -29.020419 
L 28.568228 -28.845634 
L 28.609641 -28.670849 
L 28.685581 -28.496065 
L 28.793479 -28.32128 
L 28.927927 -28.146495 
L 29.081013 -27.97171 
L 29.242847 -27.796925 
L 29.402244 -27.62214 
L 29.547541 -27.447355 
L 29.667498 -27.27257 
L 29.752239 -27.097785 
L 29.794173 -26.923 
L 29.788803 -26.748215 
L 29.735367 -26.57343 
L 29.637211 -26.398645 
L 29.50186 -26.22386 
L 29.340743 -26.049075 
L 29.168584 -25.87429 
L 29.002497 -25.699505 
L 28.860862 -25.52472 
L 28.762073 -25.349935 
L 28.723255 -25.17515 
L 28.759057 -25.000366 
L 28.880602 -24.825581 
L 29.09466 -24.650796 
L 29.4031 -24.476011 
L 29.802631 -24.301226 
L 30.284861 -24.126441 
L 30.83665 -23.951656 
L 31.440756 -23.776871 
L 32.076728 -23.602086 
L 32.722005 -23.427301 
L 33.353164 -23.252516 
L 33.947238 -23.077731 
L 34.48302 -22.902946 
L 34.942268 -22.728161 
L 35.31072 -22.553376 
L 35.578838 -22.378591 
L 35.742229 -22.203806 
L 35.801707 -22.029021 
L 35.763001 -21.854236 
L 35.636136 -21.679451 
L 35.434549 -21.504667 
L 35.174037 -21.329882 
L 34.871621 -21.155097 
L 34.544434 -20.980312 
L 34.208724 -20.805527 
L 33.879015 -20.630742 
L 33.567485 -20.455957 
L 33.283547 -20.281172 
L 33.033617 -20.106387 
L 32.821037 -19.931602 
L 32.646109 -19.756817 
L 32.506216 -19.582032 
L 32.396037 -19.407247 
L 32.307836 -19.232462 
L 32.231885 -19.057677 
L 32.157026 -18.882892 
L 32.071382 -18.708107 
L 31.963211 -18.533322 
L 31.82185 -18.358537 
L 31.638657 -18.183752 
L 31.407847 -18.008967 
L 31.127113 -17.834183 
L 30.797943 -17.659398 
L 30.42555 -17.484613 
L 30.018445 -17.309828 
L 29.587667 -17.135043 
L 29.145786 -16.960258 
L 28.7058 -16.785473 
L 28.280052 -16.610688 
L 27.879311 -16.435903 
L 27.512091 -16.261118 
L 27.18427 -16.086333 
L 26.899003 -15.911548 
z
" style="stroke: #525252; stroke-width: 0.15"/>
    </defs>
    <g clip-path="url(#p9d9a31d33f)">
     <use xlink:href="#mab8b47ac34" x="0" y="84.96" style="fill: #c3c3a2; stroke: #525252; stroke-width: 0.15"/>
    </g>
   </g>
   <g id="PolyCollection_2">
    <defs>
     <path id="m98fd7afbc4" d="M 51.77306 -11.15907 
L 49.777101 -11.15907 
L 49.539605 -11.845212 
L 49.271598 -12.531353 
L 48.975816 -13.217495 
L 48.656517 -13.903636 
L 48.319267 -14.589778 
L 47.970528 -15.275919 
L 47.617114 -15.962061 
L 47.265549 -16.648203 
L 46.92141 -17.334344 
L 46.58874 -18.020486 
L 46.269625 -18.706627 
L 45.963986 -19.392769 
L 45.669643 -20.07891 
L 45.382648 -20.765052 
L 45.097852 -21.451193 
L 44.809627 -22.137335 
L 44.512684 -22.823476 
L 44.20285 -23.509618 
L 43.877745 -24.195759 
L 43.537274 -24.881901 
L 43.183891 -25.568043 
L 42.822625 -26.254184 
L 42.460877 -26.940326 
L 42.108018 -27.626467 
L 41.774838 -28.312609 
L 41.472876 -28.99875 
L 41.213691 -29.684892 
L 41.008101 -30.371033 
L 40.865433 -31.057175 
L 40.792831 -31.743316 
L 40.794657 -32.429458 
L 40.872039 -33.115599 
L 41.022612 -33.801741 
L 41.240498 -34.487882 
L 41.516548 -35.174024 
L 41.838852 -35.860166 
L 42.193493 -36.546307 
L 42.565484 -37.232449 
L 42.939818 -37.91859 
L 43.302515 -38.604732 
L 43.641574 -39.290873 
L 43.947734 -39.977015 
L 44.214965 -40.663156 
L 44.440669 -41.349298 
L 44.625565 -42.035439 
L 44.773322 -42.721581 
L 44.889981 -43.407722 
L 44.983257 -44.093864 
L 45.061804 -44.780006 
L 45.134521 -45.466147 
L 45.209944 -46.152289 
L 45.295766 -46.83843 
L 45.398484 -47.524572 
L 45.523153 -48.210713 
L 45.673233 -48.896855 
L 45.850483 -49.582996 
L 46.054888 -50.269138 
L 46.284617 -50.955279 
L 46.535991 -51.641421 
L 46.803517 -52.327562 
L 47.079982 -53.013704 
L 47.356655 -53.699846 
L 47.623608 -54.385987 
L 47.870168 -55.072129 
L 48.085479 -55.75827 
L 48.25916 -56.444412 
L 48.382003 -57.130553 
L 48.446665 -57.816695 
L 48.448289 -58.502836 
L 48.385 -59.188978 
L 48.258225 -59.875119 
L 48.072799 -60.561261 
L 47.836833 -61.247402 
L 47.561348 -61.933544 
L 47.2597 -62.619686 
L 46.946827 -63.305827 
L 46.638385 -63.991969 
L 46.349849 -64.67811 
L 46.095631 -65.364252 
L 45.888315 -66.050393 
L 45.738027 -66.736535 
L 45.652013 -67.422676 
L 45.634407 -68.108818 
L 45.686212 -68.794959 
L 45.805442 -69.481101 
L 45.987429 -70.167242 
L 46.225225 -70.853384 
L 46.510088 -71.539526 
L 46.832008 -72.225667 
L 47.180248 -72.911809 
L 47.543883 -73.59795 
L 47.912309 -74.284092 
L 48.275697 -74.970233 
L 48.625384 -75.656375 
L 48.954174 -76.342516 
L 49.256526 -77.028658 
L 49.528643 -77.714799 
L 49.768435 -78.400941 
L 49.975392 -79.087082 
L 51.574768 -79.087082 
L 51.574768 -79.087082 
L 51.781725 -78.400941 
L 52.021518 -77.714799 
L 52.293634 -77.028658 
L 52.595987 -76.342516 
L 52.924776 -75.656375 
L 53.274464 -74.970233 
L 53.637852 -74.284092 
L 54.006277 -73.59795 
L 54.369913 -72.911809 
L 54.718153 -72.225667 
L 55.040073 -71.539526 
L 55.324936 -70.853384 
L 55.562732 -70.167242 
L 55.744719 -69.481101 
L 55.863949 -68.794959 
L 55.915753 -68.108818 
L 55.898148 -67.422676 
L 55.812134 -66.736535 
L 55.661846 -66.050393 
L 55.454529 -65.364252 
L 55.200312 -64.67811 
L 54.911776 -63.991969 
L 54.603334 -63.305827 
L 54.290461 -62.619686 
L 53.988813 -61.933544 
L 53.713328 -61.247402 
L 53.477361 -60.561261 
L 53.291935 -59.875119 
L 53.165161 -59.188978 
L 53.101872 -58.502836 
L 53.103496 -57.816695 
L 53.168158 -57.130553 
L 53.291001 -56.444412 
L 53.464682 -55.75827 
L 53.679993 -55.072129 
L 53.926553 -54.385987 
L 54.193506 -53.699846 
L 54.470179 -53.013704 
L 54.746644 -52.327562 
L 55.01417 -51.641421 
L 55.265544 -50.955279 
L 55.495272 -50.269138 
L 55.699678 -49.582996 
L 55.876927 -48.896855 
L 56.027007 -48.210713 
L 56.151677 -47.524572 
L 56.254395 -46.83843 
L 56.340217 -46.152289 
L 56.41564 -45.466147 
L 56.488357 -44.780006 
L 56.566904 -44.093864 
L 56.660179 -43.407722 
L 56.776838 -42.721581 
L 56.924596 -42.035439 
L 57.109492 -41.349298 
L 57.335196 -40.663156 
L 57.602427 -39.977015 
L 57.908587 -39.290873 
L 58.247646 -38.604732 
L 58.610343 -37.91859 
L 58.984677 -37.232449 
L 59.356668 -36.546307 
L 59.711309 -35.860166 
L 60.033613 -35.174024 
L 60.309663 -34.487882 
L 60.527549 -33.801741 
L 60.678122 -33.115599 
L 60.755504 -32.429458 
L 60.757329 -31.743316 
L 60.684728 -31.057175 
L 60.54206 -30.371033 
L 60.336469 -29.684892 
L 60.077285 -28.99875 
L 59.775323 -28.312609 
L 59.442143 -27.626467 
L 59.089284 -26.940326 
L 58.727535 -26.254184 
L 58.36627 -25.568043 
L 58.012887 -24.881901 
L 57.672416 -24.195759 
L 57.347311 -23.509618 
L 57.037477 -22.823476 
L 56.740534 -22.137335 
L 56.452309 -21.451193 
L 56.167512 -20.765052 
L 55.880518 -20.07891 
L 55.586175 -19.392769 
L 55.280535 -18.706627 
L 54.96142 -18.020486 
L 54.628751 -17.334344 
L 54.284612 -16.648203 
L 53.933047 -15.962061 
L 53.579633 -15.275919 
L 53.230894 -14.589778 
L 52.893643 -13.903636 
L 52.574345 -13.217495 
L 52.278562 -12.531353 
L 52.010556 -11.845212 
L 51.77306 -11.15907 
z
" style="stroke: #525252; stroke-width: 0.15"/>
    </defs>
    <g clip-path="url(#p9d9a31d33f)">
     <use xlink:href="#m98fd7afbc4" x="0" y="84.96" style="fill: #cbcbaf; stroke: #525252; stroke-width: 0.15"/>
    </g>
   </g>
   <g id="PolyCollection_3">
    <defs>
     <path id="m042d03f4c3" d="M 76.804415 -22.042944 
L 74.656991 -22.042944 
L 74.360473 -22.446425 
L 74.014496 -22.849907 
L 73.619802 -23.253388 
L 73.179359 -23.65687 
L 72.698326 -24.060351 
L 72.183791 -24.463833 
L 71.644326 -24.867314 
L 71.089415 -25.270796 
L 70.52882 -25.674277 
L 69.971998 -26.077758 
L 69.427633 -26.48124 
L 68.903341 -26.884721 
L 68.405567 -27.288203 
L 67.93965 -27.691684 
L 67.510012 -28.095166 
L 67.12039 -28.498647 
L 66.774057 -28.902129 
L 66.47397 -29.30561 
L 66.222824 -29.709092 
L 66.023014 -30.112573 
L 65.876519 -30.516054 
L 65.78476 -30.919536 
L 65.748454 -31.323017 
L 65.767485 -31.726499 
L 65.840808 -32.12998 
L 65.966365 -32.533462 
L 66.141008 -32.936943 
L 66.360417 -33.340425 
L 66.619002 -33.743906 
L 66.909818 -34.147388 
L 67.224514 -34.550869 
L 67.553364 -34.954351 
L 67.885415 -35.357832 
L 68.208789 -35.761313 
L 68.511135 -36.164795 
L 68.780231 -36.568276 
L 69.004683 -36.971758 
L 69.17467 -37.375239 
L 69.282653 -37.778721 
L 69.323983 -38.182202 
L 69.29735 -38.585684 
L 69.205026 -38.989165 
L 69.052892 -39.392647 
L 68.850267 -39.796128 
L 68.609553 -40.19961 
L 68.345741 -40.603091 
L 68.075808 -41.006572 
L 67.818024 -41.410054 
L 67.591175 -41.813535 
L 67.413699 -42.217017 
L 67.302736 -42.620498 
L 67.273111 -43.02398 
L 67.336296 -43.427461 
L 67.499435 -43.830943 
L 67.764535 -44.234424 
L 68.127967 -44.637906 
L 68.580364 -45.041387 
L 69.107007 -45.444868 
L 69.688699 -45.84835 
L 70.303076 -46.251831 
L 70.926226 -46.655313 
L 71.534442 -47.058794 
L 72.105916 -47.462276 
L 72.622199 -47.865757 
L 73.069268 -48.269239 
L 73.438142 -48.67272 
L 73.724991 -49.076202 
L 73.930808 -49.479683 
L 74.060695 -49.883165 
L 74.122899 -50.286646 
L 74.127712 -50.690127 
L 74.086358 -51.093609 
L 74.009985 -51.49709 
L 73.908859 -51.900572 
L 73.791819 -52.304053 
L 73.666039 -52.707535 
L 73.537069 -53.111016 
L 73.409148 -53.514498 
L 73.285664 -53.917979 
L 73.169695 -54.321461 
L 73.064491 -54.724942 
L 72.973803 -55.128424 
L 72.901987 -55.531905 
L 72.853844 -55.935386 
L 72.834232 -56.338868 
L 72.847505 -56.742349 
L 72.896893 -57.145831 
L 72.98394 -57.549312 
L 73.108092 -57.952794 
L 73.26654 -58.356275 
L 73.454322 -58.759757 
L 73.6647 -59.163238 
L 73.889726 -59.56672 
L 74.120944 -59.970201 
L 74.350096 -60.373682 
L 74.569767 -60.777164 
L 74.773875 -61.180645 
L 74.957977 -61.584127 
L 75.119368 -61.987608 
L 76.342038 -61.987608 
L 76.342038 -61.987608 
L 76.503429 -61.584127 
L 76.687531 -61.180645 
L 76.89164 -60.777164 
L 77.11131 -60.373682 
L 77.340462 -59.970201 
L 77.57168 -59.56672 
L 77.796706 -59.163238 
L 78.007084 -58.759757 
L 78.194867 -58.356275 
L 78.353314 -57.952794 
L 78.477467 -57.549312 
L 78.564513 -57.145831 
L 78.613902 -56.742349 
L 78.627174 -56.338868 
L 78.607562 -55.935386 
L 78.55942 -55.531905 
L 78.487604 -55.128424 
L 78.396916 -54.724942 
L 78.291711 -54.321461 
L 78.175742 -53.917979 
L 78.052258 -53.514498 
L 77.924337 -53.111016 
L 77.795368 -52.707535 
L 77.669587 -52.304053 
L 77.552548 -51.900572 
L 77.451421 -51.49709 
L 77.375048 -51.093609 
L 77.333694 -50.690127 
L 77.338507 -50.286646 
L 77.400712 -49.883165 
L 77.530598 -49.479683 
L 77.736415 -49.076202 
L 78.023264 -48.67272 
L 78.392138 -48.269239 
L 78.839208 -47.865757 
L 79.35549 -47.462276 
L 79.926964 -47.058794 
L 80.53518 -46.655313 
L 81.15833 -46.251831 
L 81.772707 -45.84835 
L 82.354399 -45.444868 
L 82.881042 -45.041387 
L 83.33344 -44.637906 
L 83.696872 -44.234424 
L 83.961972 -43.830943 
L 84.12511 -43.427461 
L 84.188295 -43.02398 
L 84.15867 -42.620498 
L 84.047707 -42.217017 
L 83.870231 -41.813535 
L 83.643382 -41.410054 
L 83.385598 -41.006572 
L 83.115665 -40.603091 
L 82.851853 -40.19961 
L 82.611139 -39.796128 
L 82.408514 -39.392647 
L 82.256381 -38.989165 
L 82.164056 -38.585684 
L 82.137423 -38.182202 
L 82.178754 -37.778721 
L 82.286736 -37.375239 
L 82.456723 -36.971758 
L 82.681175 -36.568276 
L 82.950271 -36.164795 
L 83.252617 -35.761313 
L 83.575991 -35.357832 
L 83.908043 -34.954351 
L 84.236892 -34.550869 
L 84.551588 -34.147388 
L 84.842404 -33.743906 
L 85.100989 -33.340425 
L 85.320398 -32.936943 
L 85.495042 -32.533462 
L 85.620598 -32.12998 
L 85.693921 -31.726499 
L 85.712952 -31.323017 
L 85.676646 -30.919536 
L 85.584887 -30.516054 
L 85.438392 -30.112573 
L 85.238582 -29.709092 
L 84.987437 -29.30561 
L 84.68735 -28.902129 
L 84.341016 -28.498647 
L 83.951394 -28.095166 
L 83.521756 -27.691684 
L 83.05584 -27.288203 
L 82.558066 -26.884721 
L 82.033774 -26.48124 
L 81.489409 -26.077758 
L 80.932587 -25.674277 
L 80.371991 -25.270796 
L 79.81708 -24.867314 
L 79.277615 -24.463833 
L 78.76308 -24.060351 
L 78.282047 -23.65687 
L 77.841605 -23.253388 
L 77.44691 -22.849907 
L 77.100933 -22.446425 
L 76.804415 -22.042944 
z
" style="stroke: #525252; stroke-width: 0.15"/>
    </defs>
    <g clip-path="url(#p9d9a31d33f)">
     <use xlink:href="#m042d03f4c3" x="0" y="84.96" style="fill: #977c7f; stroke: #525252; stroke-width: 0.15"/>
    </g>
   </g>
   <g id="PolyCollection_4">
    <defs>
     <path id="m9ec0138e21" d="M 101.946638 -16.221439 
L 99.426014 -16.221439 
L 99.114801 -16.309487 
L 98.755487 -16.397535 
L 98.348177 -16.485583 
L 97.894872 -16.573631 
L 97.399599 -16.661679 
L 96.868412 -16.749727 
L 96.309228 -16.837775 
L 95.731534 -16.925823 
L 95.145943 -17.013871 
L 94.563672 -17.101919 
L 93.995956 -17.189967 
L 93.453474 -17.278015 
L 92.945824 -17.366063 
L 92.481105 -17.454111 
L 92.065641 -17.542159 
L 91.703853 -17.630207 
L 91.398305 -17.718255 
L 91.149882 -17.806303 
L 90.958077 -17.894351 
L 90.821355 -17.982399 
L 90.737521 -18.070447 
L 90.704077 -18.158495 
L 90.718498 -18.246543 
L 90.77843 -18.33459 
L 90.881771 -18.422638 
L 91.026649 -18.510686 
L 91.211311 -18.598734 
L 91.433934 -18.686782 
L 91.692383 -18.77483 
L 91.983957 -18.862878 
L 92.305128 -18.950926 
L 92.651322 -19.038974 
L 93.016742 -19.127022 
L 93.394274 -19.21507 
L 93.775491 -19.303118 
L 94.150775 -19.391166 
L 94.509576 -19.479214 
L 94.840813 -19.567262 
L 95.133413 -19.65531 
L 95.37697 -19.743358 
L 95.562469 -19.831406 
L 95.683032 -19.919454 
L 95.734598 -20.007502 
L 95.71646 -20.09555 
L 95.631581 -20.183598 
L 95.486627 -20.271646 
L 95.291687 -20.359694 
L 95.059667 -20.447742 
L 94.805426 -20.53579 
L 94.5447 -20.623837 
L 94.292945 -20.711885 
L 94.064207 -20.799933 
L 93.870144 -20.887981 
L 93.719298 -20.976029 
L 93.616685 -21.064077 
L 93.563736 -21.152125 
L 93.558557 -21.240173 
L 93.596473 -21.328221 
L 93.670736 -21.416269 
L 93.773327 -21.504317 
L 93.895728 -21.592365 
L 94.029591 -21.680413 
L 94.167242 -21.768461 
L 94.302003 -21.856509 
L 94.42833 -21.944557 
L 94.541812 -22.032605 
L 94.639081 -22.120653 
L 94.717685 -22.208701 
L 94.775979 -22.296749 
L 94.813072 -22.384797 
L 94.828833 -22.472845 
L 94.823968 -22.560893 
L 94.80013 -22.648941 
L 94.760037 -22.736989 
L 94.70756 -22.825036 
L 94.647728 -22.913084 
L 94.586657 -23.001132 
L 94.531352 -23.08918 
L 94.489417 -23.177228 
L 94.468662 -23.265276 
L 94.476658 -23.353324 
L 94.520254 -23.441372 
L 94.605117 -23.52942 
L 94.735314 -23.617468 
L 94.912989 -23.705516 
L 95.138157 -23.793564 
L 95.408637 -23.881612 
L 95.720126 -23.96966 
L 96.06643 -24.057708 
L 96.439811 -24.145756 
L 96.831446 -24.233804 
L 97.231947 -24.321852 
L 97.631901 -24.4099 
L 98.022395 -24.497948 
L 98.395472 -24.585996 
L 98.744495 -24.674044 
L 99.064385 -24.762092 
L 99.351735 -24.85014 
L 99.604791 -24.938188 
L 101.767861 -24.938188 
L 101.767861 -24.938188 
L 102.020917 -24.85014 
L 102.308267 -24.762092 
L 102.628157 -24.674044 
L 102.97718 -24.585996 
L 103.350257 -24.497948 
L 103.740751 -24.4099 
L 104.140705 -24.321852 
L 104.541205 -24.233804 
L 104.932841 -24.145756 
L 105.306222 -24.057708 
L 105.652526 -23.96966 
L 105.964015 -23.881612 
L 106.234494 -23.793564 
L 106.459663 -23.705516 
L 106.637338 -23.617468 
L 106.767535 -23.52942 
L 106.852398 -23.441372 
L 106.895994 -23.353324 
L 106.90399 -23.265276 
L 106.883235 -23.177228 
L 106.8413 -23.08918 
L 106.785995 -23.001132 
L 106.724924 -22.913084 
L 106.665092 -22.825036 
L 106.612614 -22.736989 
L 106.572522 -22.648941 
L 106.548684 -22.560893 
L 106.543819 -22.472845 
L 106.55958 -22.384797 
L 106.596673 -22.296749 
L 106.654967 -22.208701 
L 106.733571 -22.120653 
L 106.830839 -22.032605 
L 106.944321 -21.944557 
L 107.070648 -21.856509 
L 107.20541 -21.768461 
L 107.343061 -21.680413 
L 107.476924 -21.592365 
L 107.599325 -21.504317 
L 107.701915 -21.416269 
L 107.776179 -21.328221 
L 107.814094 -21.240173 
L 107.808916 -21.152125 
L 107.755967 -21.064077 
L 107.653354 -20.976029 
L 107.502508 -20.887981 
L 107.308445 -20.799933 
L 107.079707 -20.711885 
L 106.827952 -20.623837 
L 106.567225 -20.53579 
L 106.312984 -20.447742 
L 106.080965 -20.359694 
L 105.886024 -20.271646 
L 105.741071 -20.183598 
L 105.656192 -20.09555 
L 105.638054 -20.007502 
L 105.689619 -19.919454 
L 105.810182 -19.831406 
L 105.995682 -19.743358 
L 106.239238 -19.65531 
L 106.531839 -19.567262 
L 106.863076 -19.479214 
L 107.221877 -19.391166 
L 107.597161 -19.303118 
L 107.978378 -19.21507 
L 108.35591 -19.127022 
L 108.72133 -19.038974 
L 109.067524 -18.950926 
L 109.388695 -18.862878 
L 109.680268 -18.77483 
L 109.938718 -18.686782 
L 110.161341 -18.598734 
L 110.346003 -18.510686 
L 110.490881 -18.422638 
L 110.594221 -18.33459 
L 110.654153 -18.246543 
L 110.668575 -18.158495 
L 110.635131 -18.070447 
L 110.551297 -17.982399 
L 110.414575 -17.894351 
L 110.22277 -17.806303 
L 109.974347 -17.718255 
L 109.668799 -17.630207 
L 109.307011 -17.542159 
L 108.891546 -17.454111 
L 108.426828 -17.366063 
L 107.919178 -17.278015 
L 107.376696 -17.189967 
L 106.80898 -17.101919 
L 106.226709 -17.013871 
L 105.641118 -16.925823 
L 105.063423 -16.837775 
L 104.50424 -16.749727 
L 103.973052 -16.661679 
L 103.47778 -16.573631 
L 103.024474 -16.485583 
L 102.617164 -16.397535 
L 102.257851 -16.309487 
L 101.946638 -16.221439 
z
" style="stroke: #525252; stroke-width: 0.15"/>
    </defs>
    <g clip-path="url(#p9d9a31d33f)">
     <use xlink:href="#m9ec0138e21" x="0" y="84.96" style="fill: #a48c8f; stroke: #525252; stroke-width: 0.15"/>
    </g>
   </g>
   <g id="PolyCollection_5">
    <defs>
     <path id="mbff4434e44" d="M 126.646728 -10.962387 
L 124.637169 -10.962387 
L 124.389444 -11.631192 
L 124.106886 -12.299997 
L 123.791406 -12.968801 
L 123.44653 -13.637606 
L 123.077252 -14.306411 
L 122.689704 -14.975216 
L 122.290682 -15.64402 
L 121.887037 -16.312825 
L 121.485038 -16.98163 
L 121.089759 -17.650434 
L 120.704599 -18.319239 
L 120.330994 -18.988044 
L 119.96839 -19.656848 
L 119.6145 -20.325653 
L 119.26582 -20.994458 
L 118.918371 -21.663262 
L 118.568564 -22.332067 
L 118.214106 -23.000872 
L 117.854807 -23.669677 
L 117.4932 -24.338481 
L 117.134871 -25.007286 
L 116.788438 -25.676091 
L 116.465161 -26.344895 
L 116.178192 -27.0137 
L 115.941532 -27.682505 
L 115.768789 -28.351309 
L 115.671863 -29.020114 
L 115.6597 -29.688919 
L 115.737251 -30.357723 
L 115.904768 -31.026528 
L 116.157516 -31.695333 
L 116.485958 -32.364138 
L 116.876386 -33.032942 
L 117.311954 -33.701747 
L 117.773976 -34.370552 
L 118.243361 -35.039356 
L 118.702022 -35.708161 
L 119.134103 -36.376966 
L 119.526921 -37.04577 
L 119.871537 -37.714575 
L 120.162938 -38.38338 
L 120.399867 -39.052184 
L 120.584366 -39.720989 
L 120.721128 -40.389794 
L 120.816767 -41.058599 
L 120.879089 -41.727403 
L 120.916443 -42.396208 
L 120.937195 -43.065013 
L 120.949322 -43.733817 
L 120.960117 -44.402622 
L 120.975986 -45.071427 
L 121.002277 -45.740231 
L 121.043143 -46.409036 
L 121.101393 -47.077841 
L 121.178364 -47.746645 
L 121.273808 -48.41545 
L 121.385836 -49.084255 
L 121.510952 -49.75306 
L 121.644206 -50.421864 
L 121.779481 -51.090669 
L 121.909927 -51.759474 
L 122.028497 -52.428278 
L 122.128578 -53.097083 
L 122.204618 -53.765888 
L 122.252711 -54.434692 
L 122.271053 -55.103497 
L 122.260196 -55.772302 
L 122.223077 -56.441106 
L 122.164778 -57.109911 
L 122.092046 -57.778716 
L 122.012628 -58.447521 
L 121.934476 -59.116325 
L 121.864952 -59.78513 
L 121.810113 -60.453935 
L 121.774198 -61.122739 
L 121.759361 -61.791544 
L 121.765716 -62.460349 
L 121.791651 -63.129153 
L 121.834379 -63.797958 
L 121.89062 -64.466763 
L 121.957305 -65.135567 
L 122.03218 -65.804372 
L 122.114224 -66.473177 
L 122.203797 -67.141982 
L 122.302516 -67.810786 
L 122.412882 -68.479591 
L 122.537732 -69.148396 
L 122.67961 -69.8172 
L 122.840174 -70.486005 
L 123.019737 -71.15481 
L 123.217005 -71.823614 
L 123.429055 -72.492419 
L 123.651548 -73.161224 
L 123.87912 -73.830028 
L 124.105894 -74.498833 
L 124.326029 -75.167638 
L 124.534224 -75.836443 
L 124.726122 -76.505247 
L 124.898568 -77.174052 
L 126.385329 -77.174052 
L 126.385329 -77.174052 
L 126.557775 -76.505247 
L 126.749673 -75.836443 
L 126.957869 -75.167638 
L 127.178003 -74.498833 
L 127.404777 -73.830028 
L 127.632349 -73.161224 
L 127.854842 -72.492419 
L 128.066893 -71.823614 
L 128.26416 -71.15481 
L 128.443723 -70.486005 
L 128.604287 -69.8172 
L 128.746165 -69.148396 
L 128.871015 -68.479591 
L 128.981381 -67.810786 
L 129.0801 -67.141982 
L 129.169673 -66.473177 
L 129.251717 -65.804372 
L 129.326593 -65.135567 
L 129.393277 -64.466763 
L 129.449518 -63.797958 
L 129.492246 -63.129153 
L 129.518181 -62.460349 
L 129.524536 -61.791544 
L 129.5097 -61.122739 
L 129.473784 -60.453935 
L 129.418945 -59.78513 
L 129.349421 -59.116325 
L 129.271269 -58.447521 
L 129.191851 -57.778716 
L 129.11912 -57.109911 
L 129.06082 -56.441106 
L 129.023701 -55.772302 
L 129.012845 -55.103497 
L 129.031186 -54.434692 
L 129.07928 -53.765888 
L 129.155319 -53.097083 
L 129.2554 -52.428278 
L 129.373971 -51.759474 
L 129.504416 -51.090669 
L 129.639691 -50.421864 
L 129.772945 -49.75306 
L 129.898061 -49.084255 
L 130.010089 -48.41545 
L 130.105533 -47.746645 
L 130.182505 -47.077841 
L 130.240755 -46.409036 
L 130.28162 -45.740231 
L 130.307911 -45.071427 
L 130.32378 -44.402622 
L 130.334576 -43.733817 
L 130.346702 -43.065013 
L 130.367455 -42.396208 
L 130.404809 -41.727403 
L 130.46713 -41.058599 
L 130.562769 -40.389794 
L 130.699532 -39.720989 
L 130.884031 -39.052184 
L 131.12096 -38.38338 
L 131.41236 -37.714575 
L 131.756976 -37.04577 
L 132.149794 -36.376966 
L 132.581876 -35.708161 
L 133.040536 -35.039356 
L 133.509922 -34.370552 
L 133.971943 -33.701747 
L 134.407511 -33.032942 
L 134.79794 -32.364138 
L 135.126381 -31.695333 
L 135.379129 -31.026528 
L 135.546646 -30.357723 
L 135.624198 -29.688919 
L 135.612034 -29.020114 
L 135.515108 -28.351309 
L 135.342365 -27.682505 
L 135.105705 -27.0137 
L 134.818736 -26.344895 
L 134.495459 -25.676091 
L 134.149027 -25.007286 
L 133.790697 -24.338481 
L 133.42909 -23.669677 
L 133.069791 -23.000872 
L 132.715333 -22.332067 
L 132.365527 -21.663262 
L 132.018077 -20.994458 
L 131.669398 -20.325653 
L 131.315507 -19.656848 
L 130.952903 -18.988044 
L 130.579298 -18.319239 
L 130.194138 -17.650434 
L 129.79886 -16.98163 
L 129.39686 -16.312825 
L 128.993215 -15.64402 
L 128.594193 -14.975216 
L 128.206646 -14.306411 
L 127.837367 -13.637606 
L 127.492491 -12.968801 
L 127.177011 -12.299997 
L 126.894453 -11.631192 
L 126.646728 -10.962387 
z
" style="stroke: #525252; stroke-width: 0.15"/>
    </defs>
    <g clip-path="url(#p9d9a31d33f)">
     <use xlink:href="#mbff4434e44" x="0" y="84.96" style="fill: #b29ca0; stroke: #525252; stroke-width: 0.15"/>
    </g>
   </g>
   <g id="line2d_7">
    <path d="M 25.819458 67.322792 
L 25.819458 53.470401 
" clip-path="url(#p9d9a31d33f)" style="fill: none; stroke: #8c8c8c; stroke-width: 0.75; stroke-linecap: round"/>
   </g>
   <g id="line2d_8">
    <path d="M 25.819458 64.83846 
L 25.819458 58.65205 
" clip-path="url(#p9d9a31d33f)" style="fill: none; stroke: #8c8c8c; stroke-width: 4; stroke-linecap: round"/>
   </g>
   <g id="line2d_9">
    <path d="M 25.819458 62.674519 
" clip-path="url(#p9d9a31d33f)" style="fill: none; stroke: #525252; stroke-width: 1.2; stroke-linecap: round"/>
    <defs>
     <path id="m32ecf36d38" d="M 0 0.833333 
C 0.221003 0.833333 0.432983 0.745528 0.589256 0.589256 
C 0.745528 0.432983 0.833333 0.221003 0.833333 0 
C 0.833333 -0.221003 0.745528 -0.432983 0.589256 -0.589256 
C 0.432983 -0.745528 0.221003 -0.833333 0 -0.833333 
C -0.221003 -0.833333 -0.432983 -0.745528 -0.589256 -0.589256 
C -0.745528 -0.432983 -0.833333 -0.221003 -0.833333 0 
C -0.833333 0.221003 -0.745528 0.432983 -0.589256 0.589256 
C -0.432983 0.745528 -0.221003 0.833333 0 0.833333 
z
" style="stroke: #ffffff; stroke-width: 0.8"/>
    </defs>
    <g clip-path="url(#p9d9a31d33f)">
     <use xlink:href="#m32ecf36d38" x="25.819458" y="62.674519" style="fill: #ffffff; stroke: #ffffff; stroke-width: 0.8"/>
    </g>
   </g>
   <g id="line2d_10">
    <path d="M 50.77508 66.700806 
L 50.77508 12.973041 
" clip-path="url(#p9d9a31d33f)" style="fill: none; stroke: #8c8c8c; stroke-width: 0.75; stroke-linecap: round"/>
   </g>
   <g id="line2d_11">
    <path d="M 50.77508 55.841397 
L 50.77508 33.373151 
" clip-path="url(#p9d9a31d33f)" style="fill: none; stroke: #8c8c8c; stroke-width: 4; stroke-linecap: round"/>
   </g>
   <g id="line2d_12">
    <path d="M 50.77508 49.263221 
" clip-path="url(#p9d9a31d33f)" style="fill: none; stroke: #525252; stroke-width: 1.2; stroke-linecap: round"/>
    <g clip-path="url(#p9d9a31d33f)">
     <use xlink:href="#m32ecf36d38" x="50.77508" y="49.263221" style="fill: #ffffff; stroke: #ffffff; stroke-width: 0.8"/>
    </g>
   </g>
   <g id="line2d_13">
    <path d="M 75.730703 59.055433 
L 75.730703 26.834015 
" clip-path="url(#p9d9a31d33f)" style="fill: none; stroke: #8c8c8c; stroke-width: 0.75; stroke-linecap: round"/>
   </g>
   <g id="line2d_14">
    <path d="M 75.730703 54.08225 
L 75.730703 40.810722 
" clip-path="url(#p9d9a31d33f)" style="fill: none; stroke: #8c8c8c; stroke-width: 4; stroke-linecap: round"/>
   </g>
   <g id="line2d_15">
    <path d="M 75.730703 48.671575 
" clip-path="url(#p9d9a31d33f)" style="fill: none; stroke: #525252; stroke-width: 1.2; stroke-linecap: round"/>
    <g clip-path="url(#p9d9a31d33f)">
     <use xlink:href="#m32ecf36d38" x="75.730703" y="48.671575" style="fill: #ffffff; stroke: #ffffff; stroke-width: 0.8"/>
    </g>
   </g>
   <g id="line2d_16">
    <path d="M 100.686326 67.778998 
L 100.686326 60.981375 
" clip-path="url(#p9d9a31d33f)" style="fill: none; stroke: #8c8c8c; stroke-width: 0.75; stroke-linecap: round"/>
   </g>
   <g id="line2d_17">
    <path d="M 100.686326 66.560745 
L 100.686326 62.85387 
" clip-path="url(#p9d9a31d33f)" style="fill: none; stroke: #8c8c8c; stroke-width: 4; stroke-linecap: round"/>
   </g>
   <g id="line2d_18">
    <path d="M 100.686326 64.78378 
" clip-path="url(#p9d9a31d33f)" style="fill: none; stroke: #525252; stroke-width: 1.2; stroke-linecap: round"/>
    <g clip-path="url(#p9d9a31d33f)">
     <use xlink:href="#m32ecf36d38" x="100.686326" y="64.78378" style="fill: #ffffff; stroke: #ffffff; stroke-width: 0.8"/>
    </g>
   </g>
   <g id="line2d_19">
    <path d="M 125.641949 67.131127 
L 125.641949 14.652434 
" clip-path="url(#p9d9a31d33f)" style="fill: none; stroke: #8c8c8c; stroke-width: 0.75; stroke-linecap: round"/>
   </g>
   <g id="line2d_20">
    <path d="M 125.641949 57.003619 
L 125.641949 35.573217 
" clip-path="url(#p9d9a31d33f)" style="fill: none; stroke: #8c8c8c; stroke-width: 4; stroke-linecap: round"/>
   </g>
   <g id="line2d_21">
    <path d="M 125.641949 52.364829 
" clip-path="url(#p9d9a31d33f)" style="fill: none; stroke: #525252; stroke-width: 1.2; stroke-linecap: round"/>
    <g clip-path="url(#p9d9a31d33f)">
     <use xlink:href="#m32ecf36d38" x="125.641949" y="52.364829" style="fill: #ffffff; stroke: #ffffff; stroke-width: 0.8"/>
    </g>
   </g>
   <g id="patch_3">
    <path d="M 13.341646 74.419526 
L 13.341646 4.076256 
" style="fill: none; stroke: #777777; stroke-width: 0.5; stroke-linejoin: miter; stroke-linecap: square"/>
   </g>
   <g id="patch_4">
    <path d="M 13.341646 76.919526 
L 138.11976 76.919526 
" style="fill: none; stroke: #777777; stroke-width: 0.5; stroke-linejoin: miter; stroke-linecap: square"/>
   </g>
  </g>
 </g>
 <defs>
  <clipPath id="p9d9a31d33f">
   <rect x="13.341646" y="4.076256" width="124.778114" height="70.34327"/>
  </clipPath>
 </defs>
</svg>
