<?xml version="1.0" encoding="utf-8" standalone="no"?>
<!DOCTYPE svg PUBLIC "-//W3C//DTD SVG 1.1//EN"
  "http://www.w3.org/Graphics/SVG/1.1/DTD/svg11.dtd">
<svg xmlns:xlink="http://www.w3.org/1999/xlink" width="84.96pt" height="84.96pt" viewBox="0 0 84.96 84.96" xmlns="http://www.w3.org/2000/svg" version="1.1">
 <metadata>
  <rdf:RDF xmlns:dc="http://purl.org/dc/elements/1.1/" xmlns:cc="http://creativecommons.org/ns#" xmlns:rdf="http://www.w3.org/1999/02/22-rdf-syntax-ns#">
   <cc:Work>
    <dc:type rdf:resource="http://purl.org/dc/dcmitype/StillImage"/>
    <dc:date>2024-05-27T15:37:06.078214</dc:date>
    <dc:format>image/svg+xml</dc:format>
    <dc:creator>
     <cc:Agent>
      <dc:title>Matplotlib v3.8.3, https://matplotlib.org/</dc:title>
     </cc:Agent>
    </dc:creator>
   </cc:Work>
  </rdf:RDF>
 </metadata>
 <defs>
  <style type="text/css">*{stroke-linejoin: round; stroke-linecap: butt}</style>
 </defs>
 <g id="figure_1">
  <g id="patch_1">
   <path d="M 0 84.96 
L 84.96 84.96 
L 84.96 0 
L 0 0 
z
" style="fill: #ffffff"/>
  </g>
  <g id="axes_1">
   <g id="patch_2">
    <path d="M 8.336802 74.419526 
L 81.95976 74.419526 
L 81.95976 4.076256 
L 8.336802 4.076256 
z
" style="fill: #ffffff"/>
   </g>
   <g id="matplotlib.axis_1">
    <g id="xtick_1">
     <g id="text_1">
      <!-- B -->
      <g style="fill: #333333" transform="translate(19.439991 81.230229) scale(0.035 -0.035)">
       <defs>
        <path id="Helvetica-42" d="M 2213 2650 
Q 2606 2650 2825 2759 
Q 3169 2931 3169 3378 
Q 3169 3828 2803 3984 
Q 2597 4072 2191 4072 
L 1081 4072 
L 1081 2650 
L 2213 2650 
z
M 2422 531 
Q 2994 531 3238 863 
Q 3391 1072 3391 1369 
Q 3391 1869 2944 2050 
Q 2706 2147 2316 2147 
L 1081 2147 
L 1081 531 
L 2422 531 
z
M 472 4591 
L 2444 4591 
Q 3250 4591 3591 4109 
Q 3791 3825 3791 3453 
Q 3791 3019 3544 2741 
Q 3416 2594 3175 2472 
Q 3528 2338 3703 2169 
Q 4013 1869 4013 1341 
Q 4013 897 3734 538 
Q 3319 0 2413 0 
L 472 0 
L 472 4591 
z
" transform="scale(0.015625)"/>
       </defs>
       <use xlink:href="#Helvetica-42"/>
      </g>
     </g>
    </g>
    <g id="xtick_2">
     <g id="text_2">
      <!-- T -->
      <g style="fill: #333333" transform="translate(44.079414 81.230229) scale(0.035 -0.035)">
       <defs>
        <path id="Helvetica-54" d="M 3828 4591 
L 3828 4044 
L 2281 4044 
L 2281 0 
L 1650 0 
L 1650 4044 
L 103 4044 
L 103 4591 
L 3828 4591 
z
" transform="scale(0.015625)"/>
       </defs>
       <use xlink:href="#Helvetica-54"/>
      </g>
     </g>
    </g>
    <g id="xtick_3">
     <g id="text_3">
      <!-- IL7R Non B/T -->
      <g style="fill: #333333" transform="translate(59.088095 81.230229) scale(0.035 -0.035)">
       <defs>
        <path id="Helvetica-49" d="M 628 4591 
L 1256 4591 
L 1256 0 
L 628 0 
L 628 4591 
z
" transform="scale(0.015625)"/>
        <path id="Helvetica-4c" d="M 488 4591 
L 1109 4591 
L 1109 547 
L 3434 547 
L 3434 0 
L 488 0 
L 488 4591 
z
" transform="scale(0.015625)"/>
        <path id="Helvetica-37" d="M 3347 4400 
L 3347 3909 
Q 3131 3700 2773 3181 
Q 2416 2663 2141 2063 
Q 1869 1478 1728 997 
Q 1638 688 1494 0 
L 872 0 
Q 1084 1281 1809 2550 
Q 2238 3294 2709 3834 
L 234 3834 
L 234 4400 
L 3347 4400 
z
" transform="scale(0.015625)"/>
        <path id="Helvetica-52" d="M 2622 2488 
Q 3059 2488 3314 2663 
Q 3569 2838 3569 3294 
Q 3569 3784 3213 3963 
Q 3022 4056 2703 4056 
L 1184 4056 
L 1184 2488 
L 2622 2488 
z
M 563 4591 
L 2688 4591 
Q 3213 4591 3553 4438 
Q 4200 4144 4200 3353 
Q 4200 2941 4029 2678 
Q 3859 2416 3553 2256 
Q 3822 2147 3958 1969 
Q 4094 1791 4109 1391 
L 4131 775 
Q 4141 513 4175 384 
Q 4231 166 4375 103 
L 4375 0 
L 3613 0 
Q 3581 59 3562 153 
Q 3544 247 3531 516 
L 3494 1281 
Q 3472 1731 3159 1884 
Q 2981 1969 2600 1969 
L 1184 1969 
L 1184 0 
L 563 0 
L 563 4591 
z
" transform="scale(0.015625)"/>
        <path id="Helvetica-20" transform="scale(0.015625)"/>
        <path id="Helvetica-4e" d="M 488 4591 
L 1222 4591 
L 3541 872 
L 3541 4591 
L 4131 4591 
L 4131 0 
L 3434 0 
L 1081 3716 
L 1081 0 
L 488 0 
L 488 4591 
z
M 2269 4591 
L 2269 4591 
z
" transform="scale(0.015625)"/>
        <path id="Helvetica-6f" d="M 1741 363 
Q 2300 363 2508 786 
Q 2716 1209 2716 1728 
Q 2716 2197 2566 2491 
Q 2328 2953 1747 2953 
Q 1231 2953 997 2559 
Q 763 2166 763 1609 
Q 763 1075 997 719 
Q 1231 363 1741 363 
z
M 1763 3444 
Q 2409 3444 2856 3012 
Q 3303 2581 3303 1744 
Q 3303 934 2909 406 
Q 2516 -122 1688 -122 
Q 997 -122 590 345 
Q 184 813 184 1600 
Q 184 2444 612 2944 
Q 1041 3444 1763 3444 
z
M 1744 3428 
L 1744 3428 
z
" transform="scale(0.015625)"/>
        <path id="Helvetica-6e" d="M 413 3347 
L 947 3347 
L 947 2872 
Q 1184 3166 1450 3294 
Q 1716 3422 2041 3422 
Q 2753 3422 3003 2925 
Q 3141 2653 3141 2147 
L 3141 0 
L 2569 0 
L 2569 2109 
Q 2569 2416 2478 2603 
Q 2328 2916 1934 2916 
Q 1734 2916 1606 2875 
Q 1375 2806 1200 2600 
Q 1059 2434 1017 2257 
Q 975 2081 975 1753 
L 975 0 
L 413 0 
L 413 3347 
z
M 1734 3428 
L 1734 3428 
z
" transform="scale(0.015625)"/>
        <path id="Helvetica-2f" d="M 1456 4591 
L 1931 4591 
L 475 0 
L 0 0 
L 1456 4591 
z
" transform="scale(0.015625)"/>
       </defs>
       <use xlink:href="#Helvetica-49"/>
       <use xlink:href="#Helvetica-4c" x="27.783203"/>
       <use xlink:href="#Helvetica-37" x="83.398438"/>
       <use xlink:href="#Helvetica-52" x="139.013672"/>
       <use xlink:href="#Helvetica-20" x="211.230469"/>
       <use xlink:href="#Helvetica-4e" x="239.013672"/>
       <use xlink:href="#Helvetica-6f" x="311.230469"/>
       <use xlink:href="#Helvetica-6e" x="366.845703"/>
       <use xlink:href="#Helvetica-20" x="422.460938"/>
       <use xlink:href="#Helvetica-42" x="450.244141"/>
       <use xlink:href="#Helvetica-2f" x="516.943359"/>
       <use xlink:href="#Helvetica-54" x="544.726562"/>
      </g>
     </g>
    </g>
   </g>
   <g id="matplotlib.axis_2">
    <g id="ytick_1">
     <g id="line2d_1">
      <defs>
       <path id="macce4d2f40" d="M 0 0 
L -1 0 
" style="stroke: #777777; stroke-width: 0.5"/>
      </defs>
      <g>
       <use xlink:href="#macce4d2f40" x="8.336802" y="66.673159" style="fill: #777777; stroke: #777777; stroke-width: 0.5"/>
      </g>
     </g>
     <g id="text_4">
      <!-- 0 -->
      <g style="fill: #333333" transform="translate(4.668521 67.749174) scale(0.03 -0.03)">
       <defs>
        <path id="Helvetica-30" d="M 1731 4475 
Q 2600 4475 2988 3759 
Q 3288 3206 3288 2244 
Q 3288 1331 3016 734 
Q 2622 -122 1728 -122 
Q 922 -122 528 578 
Q 200 1163 200 2147 
Q 200 2909 397 3456 
Q 766 4475 1731 4475 
z
M 1725 391 
Q 2163 391 2422 778 
Q 2681 1166 2681 2222 
Q 2681 2984 2493 3476 
Q 2306 3969 1766 3969 
Q 1269 3969 1039 3501 
Q 809 3034 809 2125 
Q 809 1441 956 1025 
Q 1181 391 1725 391 
z
" transform="scale(0.015625)"/>
       </defs>
       <use xlink:href="#Helvetica-30"/>
      </g>
     </g>
    </g>
    <g id="ytick_2">
     <g id="line2d_2">
      <g>
       <use xlink:href="#macce4d2f40" x="8.336802" y="58.848546" style="fill: #777777; stroke: #777777; stroke-width: 0.5"/>
      </g>
     </g>
     <g id="text_5">
      <!-- 10 -->
      <g style="fill: #333333" transform="translate(3.00024 59.924562) scale(0.03 -0.03)">
       <defs>
        <path id="Helvetica-31" d="M 613 3169 
L 613 3600 
Q 1222 3659 1462 3798 
Q 1703 3938 1822 4456 
L 2266 4456 
L 2266 0 
L 1666 0 
L 1666 3169 
L 613 3169 
z
" transform="scale(0.015625)"/>
       </defs>
       <use xlink:href="#Helvetica-31"/>
       <use xlink:href="#Helvetica-30" x="55.615234"/>
      </g>
     </g>
    </g>
    <g id="ytick_3">
     <g id="line2d_3">
      <g>
       <use xlink:href="#macce4d2f40" x="8.336802" y="51.023933" style="fill: #777777; stroke: #777777; stroke-width: 0.5"/>
      </g>
     </g>
     <g id="text_6">
      <!-- 20 -->
      <g style="fill: #333333" transform="translate(3.00024 52.099949) scale(0.03 -0.03)">
       <defs>
        <path id="Helvetica-32" d="M 200 0 
Q 231 578 439 1006 
Q 647 1434 1250 1784 
L 1850 2131 
Q 2253 2366 2416 2531 
Q 2672 2791 2672 3125 
Q 2672 3516 2437 3745 
Q 2203 3975 1813 3975 
Q 1234 3975 1013 3538 
Q 894 3303 881 2888 
L 309 2888 
Q 319 3472 525 3841 
Q 891 4491 1816 4491 
Q 2584 4491 2939 4075 
Q 3294 3659 3294 3150 
Q 3294 2613 2916 2231 
Q 2697 2009 2131 1694 
L 1703 1456 
Q 1397 1288 1222 1134 
Q 909 863 828 531 
L 3272 531 
L 3272 0 
L 200 0 
z
" transform="scale(0.015625)"/>
       </defs>
       <use xlink:href="#Helvetica-32"/>
       <use xlink:href="#Helvetica-30" x="55.615234"/>
      </g>
     </g>
    </g>
    <g id="ytick_4">
     <g id="line2d_4">
      <g>
       <use xlink:href="#macce4d2f40" x="8.336802" y="43.19932" style="fill: #777777; stroke: #777777; stroke-width: 0.5"/>
      </g>
     </g>
     <g id="text_7">
      <!-- 30 -->
      <g style="fill: #333333" transform="translate(3.00024 44.275336) scale(0.03 -0.03)">
       <defs>
        <path id="Helvetica-33" d="M 1663 -122 
Q 869 -122 511 314 
Q 153 750 153 1375 
L 741 1375 
Q 778 941 903 744 
Q 1122 391 1694 391 
Q 2138 391 2406 628 
Q 2675 866 2675 1241 
Q 2675 1703 2392 1887 
Q 2109 2072 1606 2072 
Q 1550 2072 1492 2070 
Q 1434 2069 1375 2066 
L 1375 2563 
Q 1463 2553 1522 2550 
Q 1581 2547 1650 2547 
Q 1966 2547 2169 2647 
Q 2525 2822 2525 3272 
Q 2525 3606 2287 3787 
Q 2050 3969 1734 3969 
Q 1172 3969 956 3594 
Q 838 3388 822 3006 
L 266 3006 
Q 266 3506 466 3856 
Q 809 4481 1675 4481 
Q 2359 4481 2734 4176 
Q 3109 3872 3109 3294 
Q 3109 2881 2888 2625 
Q 2750 2466 2531 2375 
Q 2884 2278 3082 2001 
Q 3281 1725 3281 1325 
Q 3281 684 2859 281 
Q 2438 -122 1663 -122 
z
" transform="scale(0.015625)"/>
       </defs>
       <use xlink:href="#Helvetica-33"/>
       <use xlink:href="#Helvetica-30" x="55.615234"/>
      </g>
     </g>
    </g>
    <g id="ytick_5">
     <g id="line2d_5">
      <g>
       <use xlink:href="#macce4d2f40" x="8.336802" y="35.374707" style="fill: #777777; stroke: #777777; stroke-width: 0.5"/>
      </g>
     </g>
     <g id="text_8">
      <!-- 40 -->
      <g style="fill: #333333" transform="translate(3.00024 36.450723) scale(0.03 -0.03)">
       <defs>
        <path id="Helvetica-34" d="M 2116 1584 
L 2116 3613 
L 681 1584 
L 2116 1584 
z
M 2125 0 
L 2125 1094 
L 163 1094 
L 163 1644 
L 2213 4488 
L 2688 4488 
L 2688 1584 
L 3347 1584 
L 3347 1094 
L 2688 1094 
L 2688 0 
L 2125 0 
z
" transform="scale(0.015625)"/>
       </defs>
       <use xlink:href="#Helvetica-34"/>
       <use xlink:href="#Helvetica-30" x="55.615234"/>
      </g>
     </g>
    </g>
    <g id="ytick_6">
     <g id="line2d_6">
      <g>
       <use xlink:href="#macce4d2f40" x="8.336802" y="27.550094" style="fill: #777777; stroke: #777777; stroke-width: 0.5"/>
      </g>
     </g>
     <g id="text_9">
      <!-- 50 -->
      <g style="fill: #333333" transform="translate(3.00024 28.62611) scale(0.03 -0.03)">
       <defs>
        <path id="Helvetica-35" d="M 791 1141 
Q 847 659 1238 475 
Q 1438 381 1700 381 
Q 2200 381 2440 700 
Q 2681 1019 2681 1406 
Q 2681 1875 2395 2131 
Q 2109 2388 1709 2388 
Q 1419 2388 1211 2275 
Q 1003 2163 856 1963 
L 369 1991 
L 709 4400 
L 3034 4400 
L 3034 3856 
L 1131 3856 
L 941 2613 
Q 1097 2731 1238 2791 
Q 1488 2894 1816 2894 
Q 2431 2894 2859 2497 
Q 3288 2100 3288 1491 
Q 3288 856 2895 371 
Q 2503 -113 1644 -113 
Q 1097 -113 676 195 
Q 256 503 206 1141 
L 791 1141 
z
" transform="scale(0.015625)"/>
       </defs>
       <use xlink:href="#Helvetica-35"/>
       <use xlink:href="#Helvetica-30" x="55.615234"/>
      </g>
     </g>
    </g>
    <g id="ytick_7">
     <g id="line2d_7">
      <g>
       <use xlink:href="#macce4d2f40" x="8.336802" y="19.725481" style="fill: #777777; stroke: #777777; stroke-width: 0.5"/>
      </g>
     </g>
     <g id="text_10">
      <!-- 60 -->
      <g style="fill: #333333" transform="translate(3.00024 20.801497) scale(0.03 -0.03)">
       <defs>
        <path id="Helvetica-36" d="M 1872 4494 
Q 2622 4494 2917 4105 
Q 3213 3716 3213 3303 
L 2656 3303 
Q 2606 3569 2497 3719 
Q 2294 4000 1881 4000 
Q 1409 4000 1131 3564 
Q 853 3128 822 2316 
Q 1016 2600 1309 2741 
Q 1578 2866 1909 2866 
Q 2472 2866 2890 2506 
Q 3309 2147 3309 1434 
Q 3309 825 2912 354 
Q 2516 -116 1781 -116 
Q 1153 -116 697 361 
Q 241 838 241 1966 
Q 241 2800 444 3381 
Q 834 4494 1872 4494 
z
M 1831 384 
Q 2275 384 2495 682 
Q 2716 981 2716 1388 
Q 2716 1731 2519 2042 
Q 2322 2353 1803 2353 
Q 1441 2353 1167 2112 
Q 894 1872 894 1388 
Q 894 963 1142 673 
Q 1391 384 1831 384 
z
" transform="scale(0.015625)"/>
       </defs>
       <use xlink:href="#Helvetica-36"/>
       <use xlink:href="#Helvetica-30" x="55.615234"/>
      </g>
     </g>
    </g>
    <g id="ytick_8">
     <g id="line2d_8">
      <g>
       <use xlink:href="#macce4d2f40" x="8.336802" y="11.900869" style="fill: #777777; stroke: #777777; stroke-width: 0.5"/>
      </g>
     </g>
     <g id="text_11">
      <!-- 70 -->
      <g style="fill: #333333" transform="translate(3.00024 12.976884) scale(0.03 -0.03)">
       <use xlink:href="#Helvetica-37"/>
       <use xlink:href="#Helvetica-30" x="55.615234"/>
      </g>
     </g>
    </g>
    <g id="ytick_9">
     <g id="line2d_9">
      <g>
       <use xlink:href="#macce4d2f40" x="8.336802" y="4.076256" style="fill: #777777; stroke: #777777; stroke-width: 0.5"/>
      </g>
     </g>
     <g id="text_12">
      <!-- 80 -->
      <g style="fill: #333333" transform="translate(3.00024 5.152271) scale(0.03 -0.03)">
       <defs>
        <path id="Helvetica-38" d="M 1741 2600 
Q 2113 2600 2322 2808 
Q 2531 3016 2531 3303 
Q 2531 3553 2331 3762 
Q 2131 3972 1722 3972 
Q 1316 3972 1134 3762 
Q 953 3553 953 3272 
Q 953 2956 1187 2778 
Q 1422 2600 1741 2600 
z
M 1775 384 
Q 2166 384 2423 595 
Q 2681 806 2681 1225 
Q 2681 1659 2415 1884 
Q 2150 2109 1734 2109 
Q 1331 2109 1076 1879 
Q 822 1650 822 1244 
Q 822 894 1055 639 
Q 1288 384 1775 384 
z
M 975 2384 
Q 741 2484 609 2619 
Q 363 2869 363 3269 
Q 363 3769 725 4128 
Q 1088 4488 1753 4488 
Q 2397 4488 2762 4148 
Q 3128 3809 3128 3356 
Q 3128 2938 2916 2678 
Q 2797 2531 2547 2391 
Q 2825 2263 2984 2097 
Q 3281 1784 3281 1284 
Q 3281 694 2884 283 
Q 2488 -128 1763 -128 
Q 1109 -128 657 226 
Q 206 581 206 1256 
Q 206 1653 400 1942 
Q 594 2231 975 2384 
z
" transform="scale(0.015625)"/>
       </defs>
       <use xlink:href="#Helvetica-38"/>
       <use xlink:href="#Helvetica-30" x="55.615234"/>
      </g>
     </g>
    </g>
   </g>
   <g id="PolyCollection_1">
    <defs>
     <path id="m0cf95a1100" d="M 22.346366 -17.626499 
L 18.868225 -17.626499 
L 18.417207 -17.71498 
L 17.894965 -17.80346 
L 17.303768 -17.89194 
L 16.650093 -17.98042 
L 15.945042 -18.0689 
L 15.204411 -18.15738 
L 14.448361 -18.24586 
L 13.700654 -18.334341 
L 12.987471 -18.422821 
L 12.33588 -18.511301 
L 11.772083 -18.599781 
L 11.319589 -18.688261 
L 10.997505 -18.776741 
L 10.819116 -18.865221 
L 10.790901 -18.953701 
L 10.912099 -19.042182 
L 11.174851 -19.130662 
L 11.564907 -19.219142 
L 12.062793 -19.307622 
L 12.645316 -19.396102 
L 13.287229 -19.484582 
L 13.962897 -19.573062 
L 14.647807 -19.661543 
L 15.319797 -19.750023 
L 15.959954 -19.838503 
L 16.553133 -19.926983 
L 17.088138 -20.015463 
L 17.557607 -20.103943 
L 17.957686 -20.192423 
L 18.28756 -20.280904 
L 18.54893 -20.369384 
L 18.745482 -20.457864 
L 18.882406 -20.546344 
L 18.965968 -20.634824 
L 19.003159 -20.723304 
L 19.001402 -20.811784 
L 18.968302 -20.900264 
L 18.911432 -20.988745 
L 18.83813 -21.077225 
L 18.755304 -21.165705 
L 18.669239 -21.254185 
L 18.585417 -21.342665 
L 18.508343 -21.431145 
L 18.441417 -21.519625 
L 18.386849 -21.608106 
L 18.345632 -21.696586 
L 18.317606 -21.785066 
L 18.301586 -21.873546 
L 18.295573 -21.962026 
L 18.297029 -22.050506 
L 18.303188 -22.138986 
L 18.311374 -22.227467 
L 18.319303 -22.315947 
L 18.325322 -22.404427 
L 18.328574 -22.492907 
L 18.329053 -22.581387 
L 18.327555 -22.669867 
L 18.325526 -22.758347 
L 18.32483 -22.846828 
L 18.327455 -22.935308 
L 18.335209 -23.023788 
L 18.349438 -23.112268 
L 18.370801 -23.200748 
L 18.399133 -23.289228 
L 18.433427 -23.377708 
L 18.471918 -23.466188 
L 18.512277 -23.554669 
L 18.551887 -23.643149 
L 18.588155 -23.731629 
L 18.618838 -23.820109 
L 18.642319 -23.908589 
L 18.657821 -23.997069 
L 18.665515 -24.085549 
L 18.666514 -24.17403 
L 18.662767 -24.26251 
L 18.656863 -24.35099 
L 18.651771 -24.43947 
L 18.650565 -24.52795 
L 18.656146 -24.61643 
L 18.671022 -24.70491 
L 18.697128 -24.793391 
L 18.735734 -24.881871 
L 18.787412 -24.970351 
L 18.852065 -25.058831 
L 18.928999 -25.147311 
L 19.017021 -25.235791 
L 19.114547 -25.324271 
L 19.219711 -25.412751 
L 19.330462 -25.501232 
L 19.444654 -25.589712 
L 19.560126 -25.678192 
L 19.674773 -25.766672 
L 19.786611 -25.855152 
L 19.893845 -25.943632 
L 19.994921 -26.032112 
L 20.088578 -26.120593 
L 20.173876 -26.209073 
L 20.25022 -26.297553 
L 20.317358 -26.386033 
L 20.897233 -26.386033 
L 20.897233 -26.386033 
L 20.96437 -26.297553 
L 21.040715 -26.209073 
L 21.126013 -26.120593 
L 21.219669 -26.032112 
L 21.320746 -25.943632 
L 21.42798 -25.855152 
L 21.539818 -25.766672 
L 21.654464 -25.678192 
L 21.769936 -25.589712 
L 21.884129 -25.501232 
L 21.99488 -25.412751 
L 22.100044 -25.324271 
L 22.19757 -25.235791 
L 22.285592 -25.147311 
L 22.362526 -25.058831 
L 22.427179 -24.970351 
L 22.478857 -24.881871 
L 22.517463 -24.793391 
L 22.543569 -24.70491 
L 22.558444 -24.61643 
L 22.564026 -24.52795 
L 22.562819 -24.43947 
L 22.557728 -24.35099 
L 22.551824 -24.26251 
L 22.548077 -24.17403 
L 22.549076 -24.085549 
L 22.55677 -23.997069 
L 22.572272 -23.908589 
L 22.595753 -23.820109 
L 22.626435 -23.731629 
L 22.662704 -23.643149 
L 22.702314 -23.554669 
L 22.742673 -23.466188 
L 22.781164 -23.377708 
L 22.815458 -23.289228 
L 22.84379 -23.200748 
L 22.865152 -23.112268 
L 22.879382 -23.023788 
L 22.887136 -22.935308 
L 22.889761 -22.846828 
L 22.889065 -22.758347 
L 22.887036 -22.669867 
L 22.885538 -22.581387 
L 22.886016 -22.492907 
L 22.889268 -22.404427 
L 22.895288 -22.315947 
L 22.903216 -22.227467 
L 22.911402 -22.138986 
L 22.917561 -22.050506 
L 22.919018 -21.962026 
L 22.913005 -21.873546 
L 22.896984 -21.785066 
L 22.868958 -21.696586 
L 22.827742 -21.608106 
L 22.773173 -21.519625 
L 22.706248 -21.431145 
L 22.629174 -21.342665 
L 22.545352 -21.254185 
L 22.459287 -21.165705 
L 22.376461 -21.077225 
L 22.303159 -20.988745 
L 22.246289 -20.900264 
L 22.213189 -20.811784 
L 22.211432 -20.723304 
L 22.248623 -20.634824 
L 22.332185 -20.546344 
L 22.469109 -20.457864 
L 22.665661 -20.369384 
L 22.927031 -20.280904 
L 23.256905 -20.192423 
L 23.656984 -20.103943 
L 24.126453 -20.015463 
L 24.661457 -19.926983 
L 25.254636 -19.838503 
L 25.894793 -19.750023 
L 26.566784 -19.661543 
L 27.251694 -19.573062 
L 27.927362 -19.484582 
L 28.569275 -19.396102 
L 29.151797 -19.307622 
L 29.649684 -19.219142 
L 30.03974 -19.130662 
L 30.302492 -19.042182 
L 30.42369 -18.953701 
L 30.395475 -18.865221 
L 30.217085 -18.776741 
L 29.895002 -18.688261 
L 29.442508 -18.599781 
L 28.878711 -18.511301 
L 28.22712 -18.422821 
L 27.513937 -18.334341 
L 26.76623 -18.24586 
L 26.01018 -18.15738 
L 25.269549 -18.0689 
L 24.564498 -17.98042 
L 23.910823 -17.89194 
L 23.319625 -17.80346 
L 22.797384 -17.71498 
L 22.346366 -17.626499 
z
" style="stroke: #414141; stroke-width: 0.15"/>
    </defs>
    <g clip-path="url(#p03a9a98deb)">
     <use xlink:href="#m0cf95a1100" x="0" y="84.96" style="fill: #abc9ea; stroke: #414141; stroke-width: 0.15"/>
    </g>
   </g>
   <g id="PolyCollection_2">
    <defs>
     <path id="mc37ae3e3c4" d="M 46.117094 -16.664798 
L 44.179469 -16.664798 
L 43.844057 -16.887524 
L 43.43279 -17.110249 
L 42.943027 -17.332975 
L 42.376972 -17.555701 
L 41.742602 -17.778426 
L 41.054052 -18.001152 
L 40.331326 -18.223878 
L 39.599194 -18.446603 
L 38.885351 -18.669329 
L 38.217959 -18.892055 
L 37.622901 -19.11478 
L 37.121086 -19.337506 
L 36.726226 -19.560232 
L 36.443409 -19.782957 
L 36.268697 -20.005683 
L 36.189815 -20.228409 
L 36.187803 -20.451134 
L 36.239373 -20.67386 
L 36.319591 -20.896586 
L 36.404505 -21.119312 
L 36.473372 -21.342037 
L 36.510261 -21.564763 
L 36.504932 -21.787489 
L 36.453061 -22.010214 
L 36.355935 -22.23294 
L 36.219806 -22.455666 
L 36.05508 -22.678391 
L 35.875416 -22.901117 
L 35.696783 -23.123843 
L 35.53643 -23.346568 
L 35.411734 -23.569294 
L 35.338947 -23.79202 
L 35.331887 -24.014745 
L 35.400773 -24.237471 
L 35.551363 -24.460197 
L 35.784603 -24.682922 
L 36.09685 -24.905648 
L 36.480668 -25.128374 
L 36.926004 -25.351099 
L 37.421504 -25.573825 
L 37.95568 -25.796551 
L 38.517715 -26.019277 
L 39.0978 -26.242002 
L 39.687031 -26.464728 
L 40.277032 -26.687454 
L 40.859513 -26.910179 
L 41.42597 -27.132905 
L 41.967663 -27.355631 
L 42.475903 -27.578356 
L 42.942567 -27.801082 
L 43.360702 -28.023808 
L 43.725044 -28.246533 
L 44.032316 -28.469259 
L 44.281236 -28.691985 
L 44.47225 -28.91471 
L 44.607065 -29.137436 
L 44.68813 -29.360162 
L 44.718186 -29.582887 
L 44.700027 -29.805613 
L 44.636524 -30.028339 
L 44.530922 -30.251065 
L 44.38734 -30.47379 
L 44.211353 -30.696516 
L 44.010488 -30.919242 
L 43.794486 -31.141967 
L 43.575173 -31.364693 
L 43.365899 -31.587419 
L 43.180542 -31.810144 
L 43.032201 -32.03287 
L 42.931763 -32.255596 
L 42.886577 -32.478321 
L 42.899471 -32.701047 
L 42.968283 -32.923773 
L 43.086016 -33.146498 
L 43.241575 -33.369224 
L 43.420999 -33.59195 
L 43.608984 -33.814675 
L 43.790481 -34.037401 
L 43.952174 -34.260127 
L 44.083668 -34.482852 
L 44.178286 -34.705578 
L 44.233452 -34.928304 
L 44.250644 -35.15103 
L 44.234991 -35.373755 
L 44.194553 -35.596481 
L 44.139359 -35.819207 
L 44.080315 -36.041932 
L 44.028044 -36.264658 
L 43.991807 -36.487384 
L 43.978605 -36.710109 
L 43.992567 -36.932835 
L 44.034715 -37.155561 
L 44.1031 -37.378286 
L 44.193308 -37.601012 
L 44.299211 -37.823738 
L 44.41386 -38.046463 
L 44.530359 -38.269189 
L 44.642604 -38.491915 
L 44.745804 -38.71464 
L 45.550758 -38.71464 
L 45.550758 -38.71464 
L 45.653959 -38.491915 
L 45.766204 -38.269189 
L 45.882702 -38.046463 
L 45.997351 -37.823738 
L 46.103255 -37.601012 
L 46.193463 -37.378286 
L 46.261848 -37.155561 
L 46.303995 -36.932835 
L 46.317958 -36.710109 
L 46.304755 -36.487384 
L 46.268519 -36.264658 
L 46.216248 -36.041932 
L 46.157203 -35.819207 
L 46.10201 -35.596481 
L 46.061571 -35.373755 
L 46.045919 -35.15103 
L 46.063111 -34.928304 
L 46.118276 -34.705578 
L 46.212895 -34.482852 
L 46.344389 -34.260127 
L 46.506082 -34.037401 
L 46.687579 -33.814675 
L 46.875563 -33.59195 
L 47.054988 -33.369224 
L 47.210547 -33.146498 
L 47.328279 -32.923773 
L 47.397092 -32.701047 
L 47.409985 -32.478321 
L 47.364799 -32.255596 
L 47.264361 -32.03287 
L 47.116021 -31.810144 
L 46.930664 -31.587419 
L 46.72139 -31.364693 
L 46.502077 -31.141967 
L 46.286074 -30.919242 
L 46.08521 -30.696516 
L 45.909222 -30.47379 
L 45.76564 -30.251065 
L 45.660038 -30.028339 
L 45.596536 -29.805613 
L 45.578377 -29.582887 
L 45.608433 -29.360162 
L 45.689497 -29.137436 
L 45.824313 -28.91471 
L 46.015326 -28.691985 
L 46.264246 -28.469259 
L 46.571518 -28.246533 
L 46.93586 -28.023808 
L 47.353996 -27.801082 
L 47.82066 -27.578356 
L 48.328899 -27.355631 
L 48.870592 -27.132905 
L 49.437049 -26.910179 
L 50.01953 -26.687454 
L 50.609531 -26.464728 
L 51.198762 -26.242002 
L 51.778847 -26.019277 
L 52.340883 -25.796551 
L 52.875058 -25.573825 
L 53.370558 -25.351099 
L 53.815894 -25.128374 
L 54.199713 -24.905648 
L 54.51196 -24.682922 
L 54.745199 -24.460197 
L 54.89579 -24.237471 
L 54.964676 -24.014745 
L 54.957616 -23.79202 
L 54.884828 -23.569294 
L 54.760133 -23.346568 
L 54.599779 -23.123843 
L 54.421146 -22.901117 
L 54.241482 -22.678391 
L 54.076756 -22.455666 
L 53.940628 -22.23294 
L 53.843501 -22.010214 
L 53.791631 -21.787489 
L 53.786302 -21.564763 
L 53.82319 -21.342037 
L 53.892058 -21.119312 
L 53.976971 -20.896586 
L 54.057189 -20.67386 
L 54.108759 -20.451134 
L 54.106748 -20.228409 
L 54.027866 -20.005683 
L 53.853154 -19.782957 
L 53.570336 -19.560232 
L 53.175476 -19.337506 
L 52.673661 -19.11478 
L 52.078603 -18.892055 
L 51.411212 -18.669329 
L 50.697368 -18.446603 
L 49.965237 -18.223878 
L 49.24251 -18.001152 
L 48.553961 -17.778426 
L 47.91959 -17.555701 
L 47.353536 -17.332975 
L 46.863772 -17.110249 
L 46.452505 -16.887524 
L 46.117094 -16.664798 
z
" style="stroke: #414141; stroke-width: 0.15"/>
    </defs>
    <g clip-path="url(#p03a9a98deb)">
     <use xlink:href="#mc37ae3e3c4" x="0" y="84.96" style="fill: #efb792; stroke: #414141; stroke-width: 0.15"/>
    </g>
   </g>
   <g id="PolyCollection_3">
    <defs>
     <path id="mab793122f0" d="M 70.265085 -18.85215 
L 69.113449 -18.85215 
L 68.918811 -19.114173 
L 68.679012 -19.376195 
L 68.389858 -19.638218 
L 68.048285 -19.900241 
L 67.652664 -20.162263 
L 67.203092 -20.424286 
L 66.701656 -20.686309 
L 66.152676 -20.948331 
L 65.562896 -21.210354 
L 64.941589 -21.472377 
L 64.300502 -21.734399 
L 63.653579 -21.996422 
L 63.016421 -22.258445 
L 62.405451 -22.520467 
L 61.836856 -22.78249 
L 61.325392 -23.044513 
L 60.883227 -23.306535 
L 60.518986 -23.568558 
L 60.237192 -23.830581 
L 60.03821 -24.092603 
L 59.91875 -24.354626 
L 59.872873 -24.616649 
L 59.89333 -24.878671 
L 59.973004 -25.140694 
L 60.106149 -25.402716 
L 60.289161 -25.664739 
L 60.520679 -25.926762 
L 60.800948 -26.188784 
L 61.130565 -26.450807 
L 61.508837 -26.71283 
L 61.932137 -26.974852 
L 62.392628 -27.236875 
L 62.87767 -27.498898 
L 63.370101 -27.76092 
L 63.84935 -28.022943 
L 64.293252 -28.284966 
L 64.680229 -28.546988 
L 64.99153 -28.809011 
L 65.213215 -29.071034 
L 65.337661 -29.333056 
L 65.364459 -29.595079 
L 65.300665 -29.857102 
L 65.160405 -30.119124 
L 64.963883 -30.381147 
L 64.735838 -30.64317 
L 64.503541 -30.905192 
L 64.294454 -31.167215 
L 64.133742 -31.429238 
L 64.041897 -31.69126 
L 64.032753 -31.953283 
L 64.112184 -32.215306 
L 64.277698 -32.477328 
L 64.519014 -32.739351 
L 64.819574 -33.001374 
L 65.158762 -33.263396 
L 65.514507 -33.525419 
L 65.865873 -33.787442 
L 66.195277 -34.049464 
L 66.490036 -34.311487 
L 66.743115 -34.57351 
L 66.95306 -34.835532 
L 67.123264 -35.097555 
L 67.260755 -35.359578 
L 67.374782 -35.6216 
L 67.475383 -35.883623 
L 67.572128 -36.145646 
L 67.673118 -36.407668 
L 67.784292 -36.669691 
L 67.909036 -36.931714 
L 68.048081 -37.193736 
L 68.199649 -37.455759 
L 68.359817 -37.717781 
L 68.523035 -37.979804 
L 68.682757 -38.241827 
L 68.832089 -38.503849 
L 68.964415 -38.765872 
L 69.073922 -39.027895 
L 69.156017 -39.289917 
L 69.207614 -39.55194 
L 69.227332 -39.813963 
L 69.21561 -40.075985 
L 69.174767 -40.338008 
L 69.108989 -40.600031 
L 69.024224 -40.862053 
L 68.927931 -41.124076 
L 68.828653 -41.386099 
L 68.735393 -41.648121 
L 68.656846 -41.910144 
L 68.60055 -42.172167 
L 68.572102 -42.434189 
L 68.57455 -42.696212 
L 68.608101 -42.958235 
L 68.670178 -43.220257 
L 68.75585 -43.48228 
L 68.858544 -43.744303 
L 68.970911 -44.006325 
L 69.085711 -44.268348 
L 69.196562 -44.530371 
L 69.298476 -44.792393 
L 70.080059 -44.792393 
L 70.080059 -44.792393 
L 70.181972 -44.530371 
L 70.292824 -44.268348 
L 70.407623 -44.006325 
L 70.51999 -43.744303 
L 70.622684 -43.48228 
L 70.708357 -43.220257 
L 70.770433 -42.958235 
L 70.803984 -42.696212 
L 70.806432 -42.434189 
L 70.777984 -42.172167 
L 70.721688 -41.910144 
L 70.643141 -41.648121 
L 70.549881 -41.386099 
L 70.450603 -41.124076 
L 70.35431 -40.862053 
L 70.269545 -40.600031 
L 70.203767 -40.338008 
L 70.162924 -40.075985 
L 70.151202 -39.813963 
L 70.170921 -39.55194 
L 70.222518 -39.289917 
L 70.304612 -39.027895 
L 70.41412 -38.765872 
L 70.546445 -38.503849 
L 70.695778 -38.241827 
L 70.855499 -37.979804 
L 71.018717 -37.717781 
L 71.178885 -37.455759 
L 71.330453 -37.193736 
L 71.469498 -36.931714 
L 71.594242 -36.669691 
L 71.705416 -36.407668 
L 71.806406 -36.145646 
L 71.903151 -35.883623 
L 72.003752 -35.6216 
L 72.117779 -35.359578 
L 72.255271 -35.097555 
L 72.425474 -34.835532 
L 72.63542 -34.57351 
L 72.888498 -34.311487 
L 73.183257 -34.049464 
L 73.512661 -33.787442 
L 73.864027 -33.525419 
L 74.219772 -33.263396 
L 74.55896 -33.001374 
L 74.85952 -32.739351 
L 75.100837 -32.477328 
L 75.26635 -32.215306 
L 75.345781 -31.953283 
L 75.336637 -31.69126 
L 75.244792 -31.429238 
L 75.08408 -31.167215 
L 74.874993 -30.905192 
L 74.642696 -30.64317 
L 74.414651 -30.381147 
L 74.218129 -30.119124 
L 74.07787 -29.857102 
L 74.014075 -29.595079 
L 74.040873 -29.333056 
L 74.165319 -29.071034 
L 74.387004 -28.809011 
L 74.698305 -28.546988 
L 75.085282 -28.284966 
L 75.529184 -28.022943 
L 76.008434 -27.76092 
L 76.500864 -27.498898 
L 76.985907 -27.236875 
L 77.446397 -26.974852 
L 77.869697 -26.71283 
L 78.247969 -26.450807 
L 78.577586 -26.188784 
L 78.857856 -25.926762 
L 79.089373 -25.664739 
L 79.272385 -25.402716 
L 79.40553 -25.140694 
L 79.485204 -24.878671 
L 79.505661 -24.616649 
L 79.459784 -24.354626 
L 79.340324 -24.092603 
L 79.141342 -23.830581 
L 78.859548 -23.568558 
L 78.495307 -23.306535 
L 78.053142 -23.044513 
L 77.541678 -22.78249 
L 76.973083 -22.520467 
L 76.362113 -22.258445 
L 75.724955 -21.996422 
L 75.078032 -21.734399 
L 74.436945 -21.472377 
L 73.815638 -21.210354 
L 73.225859 -20.948331 
L 72.676878 -20.686309 
L 72.175442 -20.424286 
L 71.72587 -20.162263 
L 71.330249 -19.900241 
L 70.988676 -19.638218 
L 70.699522 -19.376195 
L 70.459723 -19.114173 
L 70.265085 -18.85215 
z
" style="stroke: #414141; stroke-width: 0.15"/>
    </defs>
    <g clip-path="url(#p03a9a98deb)">
     <use xlink:href="#mab793122f0" x="0" y="84.96" style="fill: #7e5c60; stroke: #414141; stroke-width: 0.15"/>
    </g>
   </g>
   <g id="line2d_10">
    <path d="M 20.607295 66.374734 
L 20.607295 59.532733 
" clip-path="url(#p03a9a98deb)" style="fill: none; stroke: #8c8c8c; stroke-width: 0.75; stroke-linecap: round"/>
   </g>
   <g id="line2d_11">
    <path d="M 20.607295 66.109122 
L 20.607295 62.921051 
" clip-path="url(#p03a9a98deb)" style="fill: none; stroke: #8c8c8c; stroke-width: 4; stroke-linecap: round"/>
   </g>
   <g id="line2d_12">
    <path d="M 20.607295 65.78633 
" clip-path="url(#p03a9a98deb)" style="fill: none; stroke: #414141; stroke-width: 1.2; stroke-linecap: round"/>
    <defs>
     <path id="m163e2c6cb8" d="M 0 0.833333 
C 0.221003 0.833333 0.432983 0.745528 0.589256 0.589256 
C 0.745528 0.432983 0.833333 0.221003 0.833333 0 
C 0.833333 -0.221003 0.745528 -0.432983 0.589256 -0.589256 
C 0.432983 -0.745528 0.221003 -0.833333 0 -0.833333 
C -0.221003 -0.833333 -0.432983 -0.745528 -0.589256 -0.589256 
C -0.745528 -0.432983 -0.833333 -0.221003 -0.833333 0 
C -0.833333 0.221003 -0.745528 0.432983 -0.589256 0.589256 
C -0.432983 0.745528 -0.221003 0.833333 0 0.833333 
z
" style="stroke: #ffffff; stroke-width: 0.8"/>
    </defs>
    <g clip-path="url(#p03a9a98deb)">
     <use xlink:href="#m163e2c6cb8" x="20.607295" y="65.78633" style="fill: #ffffff; stroke: #ffffff; stroke-width: 0.8"/>
    </g>
   </g>
   <g id="line2d_13">
    <path d="M 45.148281 66.360813 
L 45.148281 58.332597 
" clip-path="url(#p03a9a98deb)" style="fill: none; stroke: #8c8c8c; stroke-width: 0.75; stroke-linecap: round"/>
   </g>
   <g id="line2d_14">
    <path d="M 45.148281 64.290719 
L 45.148281 59.78519 
" clip-path="url(#p03a9a98deb)" style="fill: none; stroke: #8c8c8c; stroke-width: 4; stroke-linecap: round"/>
   </g>
   <g id="line2d_15">
    <path d="M 45.148281 61.599277 
" clip-path="url(#p03a9a98deb)" style="fill: none; stroke: #414141; stroke-width: 1.2; stroke-linecap: round"/>
    <g clip-path="url(#p03a9a98deb)">
     <use xlink:href="#m163e2c6cb8" x="45.148281" y="61.599277" style="fill: #ffffff; stroke: #ffffff; stroke-width: 0.8"/>
    </g>
   </g>
   <g id="line2d_16">
    <path d="M 69.689267 63.869656 
L 69.689267 47.938971 
" clip-path="url(#p03a9a98deb)" style="fill: none; stroke: #8c8c8c; stroke-width: 0.75; stroke-linecap: round"/>
   </g>
   <g id="line2d_17">
    <path d="M 69.689267 60.629506 
L 69.689267 53.410353 
" clip-path="url(#p03a9a98deb)" style="fill: none; stroke: #8c8c8c; stroke-width: 4; stroke-linecap: round"/>
   </g>
   <g id="line2d_18">
    <path d="M 69.689267 58.143464 
" clip-path="url(#p03a9a98deb)" style="fill: none; stroke: #414141; stroke-width: 1.2; stroke-linecap: round"/>
    <g clip-path="url(#p03a9a98deb)">
     <use xlink:href="#m163e2c6cb8" x="69.689267" y="58.143464" style="fill: #ffffff; stroke: #ffffff; stroke-width: 0.8"/>
    </g>
   </g>
   <g id="patch_3">
    <path d="M 8.336802 74.419526 
L 8.336802 4.076256 
" style="fill: none; stroke: #777777; stroke-width: 0.5; stroke-linejoin: miter; stroke-linecap: square"/>
   </g>
   <g id="patch_4">
    <path d="M 8.336802 76.919526 
L 81.95976 76.919526 
" style="fill: none; stroke: #777777; stroke-width: 0.5; stroke-linejoin: miter; stroke-linecap: square"/>
   </g>
  </g>
 </g>
 <defs>
  <clipPath id="p03a9a98deb">
   <rect x="8.336802" y="4.076256" width="73.622957" height="70.34327"/>
  </clipPath>
 </defs>
</svg>
