<?xml version="1.0" encoding="utf-8" standalone="no"?>
<!DOCTYPE svg PUBLIC "-//W3C//DTD SVG 1.1//EN"
  "http://www.w3.org/Graphics/SVG/1.1/DTD/svg11.dtd">
<svg xmlns:xlink="http://www.w3.org/1999/xlink" width="84.96pt" height="84.96pt" viewBox="0 0 84.96 84.96" xmlns="http://www.w3.org/2000/svg" version="1.1">
 <metadata>
  <rdf:RDF xmlns:dc="http://purl.org/dc/elements/1.1/" xmlns:cc="http://creativecommons.org/ns#" xmlns:rdf="http://www.w3.org/1999/02/22-rdf-syntax-ns#">
   <cc:Work>
    <dc:type rdf:resource="http://purl.org/dc/dcmitype/StillImage"/>
    <dc:date>2024-05-27T15:37:01.713533</dc:date>
    <dc:format>image/svg+xml</dc:format>
    <dc:creator>
     <cc:Agent>
      <dc:title>Matplotlib v3.8.3, https://matplotlib.org/</dc:title>
     </cc:Agent>
    </dc:creator>
   </cc:Work>
  </rdf:RDF>
 </metadata>
 <defs>
  <style type="text/css">*{stroke-linejoin: round; stroke-linecap: butt}</style>
 </defs>
 <g id="figure_1">
  <g id="patch_1">
   <path d="M 0 84.96 
L 84.96 84.96 
L 84.96 0 
L 0 0 
z
" style="fill: #ffffff"/>
  </g>
  <g id="axes_1">
   <g id="patch_2">
    <path d="M 10.005084 74.419526 
L 81.95976 74.419526 
L 81.95976 4.076256 
L 10.005084 4.076256 
z
" style="fill: #ffffff"/>
   </g>
   <g id="matplotlib.axis_1">
    <g id="xtick_1">
     <g id="text_1">
      <!-- CD20+ Cells -->
      <g style="fill: #333333" transform="translate(12.125616 81.230229) scale(0.035 -0.035)">
       <defs>
        <path id="Helvetica-43" d="M 2422 4716 
Q 3294 4716 3775 4256 
Q 4256 3797 4309 3213 
L 3703 3213 
Q 3600 3656 3292 3915 
Q 2984 4175 2428 4175 
Q 1750 4175 1333 3698 
Q 916 3222 916 2238 
Q 916 1431 1292 929 
Q 1669 428 2416 428 
Q 3103 428 3463 956 
Q 3653 1234 3747 1688 
L 4353 1688 
Q 4272 963 3816 472 
Q 3269 -119 2341 -119 
Q 1541 -119 997 366 
Q 281 1006 281 2344 
Q 281 3359 819 4009 
Q 1400 4716 2422 4716 
z
M 2297 4716 
L 2297 4716 
z
" transform="scale(0.015625)"/>
        <path id="Helvetica-44" d="M 2250 531 
Q 2566 531 2769 597 
Q 3131 719 3363 1066 
Q 3547 1344 3628 1778 
Q 3675 2038 3675 2259 
Q 3675 3113 3336 3584 
Q 2997 4056 2244 4056 
L 1141 4056 
L 1141 531 
L 2250 531 
z
M 516 4591 
L 2375 4591 
Q 3322 4591 3844 3919 
Q 4309 3313 4309 2366 
Q 4309 1634 4034 1044 
Q 3550 0 2369 0 
L 516 0 
L 516 4591 
z
" transform="scale(0.015625)"/>
        <path id="Helvetica-32" d="M 200 0 
Q 231 578 439 1006 
Q 647 1434 1250 1784 
L 1850 2131 
Q 2253 2366 2416 2531 
Q 2672 2791 2672 3125 
Q 2672 3516 2437 3745 
Q 2203 3975 1813 3975 
Q 1234 3975 1013 3538 
Q 894 3303 881 2888 
L 309 2888 
Q 319 3472 525 3841 
Q 891 4491 1816 4491 
Q 2584 4491 2939 4075 
Q 3294 3659 3294 3150 
Q 3294 2613 2916 2231 
Q 2697 2009 2131 1694 
L 1703 1456 
Q 1397 1288 1222 1134 
Q 909 863 828 531 
L 3272 531 
L 3272 0 
L 200 0 
z
" transform="scale(0.015625)"/>
        <path id="Helvetica-30" d="M 1731 4475 
Q 2600 4475 2988 3759 
Q 3288 3206 3288 2244 
Q 3288 1331 3016 734 
Q 2622 -122 1728 -122 
Q 922 -122 528 578 
Q 200 1163 200 2147 
Q 200 2909 397 3456 
Q 766 4475 1731 4475 
z
M 1725 391 
Q 2163 391 2422 778 
Q 2681 1166 2681 2222 
Q 2681 2984 2493 3476 
Q 2306 3969 1766 3969 
Q 1269 3969 1039 3501 
Q 809 3034 809 2125 
Q 809 1441 956 1025 
Q 1181 391 1725 391 
z
" transform="scale(0.015625)"/>
        <path id="Helvetica-2b" d="M 288 1369 
L 288 1894 
L 1650 1894 
L 1650 3266 
L 2184 3266 
L 2184 1894 
L 3547 1894 
L 3547 1369 
L 2184 1369 
L 2184 0 
L 1650 0 
L 1650 1369 
L 288 1369 
z
" transform="scale(0.015625)"/>
        <path id="Helvetica-20" transform="scale(0.015625)"/>
        <path id="Helvetica-65" d="M 1806 3422 
Q 2163 3422 2497 3255 
Q 2831 3088 3006 2822 
Q 3175 2569 3231 2231 
Q 3281 2000 3281 1494 
L 828 1494 
Q 844 984 1069 676 
Q 1294 369 1766 369 
Q 2206 369 2469 659 
Q 2619 828 2681 1050 
L 3234 1050 
Q 3213 866 3089 639 
Q 2966 413 2813 269 
Q 2556 19 2178 -69 
Q 1975 -119 1719 -119 
Q 1094 -119 659 336 
Q 225 791 225 1609 
Q 225 2416 662 2919 
Q 1100 3422 1806 3422 
z
M 2703 1941 
Q 2669 2306 2544 2525 
Q 2313 2931 1772 2931 
Q 1384 2931 1121 2651 
Q 859 2372 844 1941 
L 2703 1941 
z
M 1753 3428 
L 1753 3428 
z
" transform="scale(0.015625)"/>
        <path id="Helvetica-6c" d="M 428 4591 
L 991 4591 
L 991 0 
L 428 0 
L 428 4591 
z
" transform="scale(0.015625)"/>
        <path id="Helvetica-73" d="M 747 1050 
Q 772 769 888 619 
Q 1100 347 1625 347 
Q 1938 347 2175 483 
Q 2413 619 2413 903 
Q 2413 1119 2222 1231 
Q 2100 1300 1741 1391 
L 1294 1503 
Q 866 1609 663 1741 
Q 300 1969 300 2372 
Q 300 2847 642 3140 
Q 984 3434 1563 3434 
Q 2319 3434 2653 2991 
Q 2863 2709 2856 2384 
L 2325 2384 
Q 2309 2575 2191 2731 
Q 1997 2953 1519 2953 
Q 1200 2953 1036 2831 
Q 872 2709 872 2509 
Q 872 2291 1088 2159 
Q 1213 2081 1456 2022 
L 1828 1931 
Q 2434 1784 2641 1647 
Q 2969 1431 2969 969 
Q 2969 522 2630 197 
Q 2291 -128 1597 -128 
Q 850 -128 539 211 
Q 228 550 206 1050 
L 747 1050 
z
M 1578 3428 
L 1578 3428 
z
" transform="scale(0.015625)"/>
       </defs>
       <use xlink:href="#Helvetica-43"/>
       <use xlink:href="#Helvetica-44" x="72.216797"/>
       <use xlink:href="#Helvetica-32" x="144.433594"/>
       <use xlink:href="#Helvetica-30" x="200.048828"/>
       <use xlink:href="#Helvetica-2b" x="255.664062"/>
       <use xlink:href="#Helvetica-20" x="314.0625"/>
       <use xlink:href="#Helvetica-43" x="341.845703"/>
       <use xlink:href="#Helvetica-65" x="414.0625"/>
       <use xlink:href="#Helvetica-6c" x="469.677734"/>
       <use xlink:href="#Helvetica-6c" x="491.894531"/>
       <use xlink:href="#Helvetica-73" x="514.111328"/>
      </g>
     </g>
    </g>
    <g id="xtick_2">
     <g id="text_2">
      <!-- TCRαδ+ Cells -->
      <g style="fill: #333333" transform="translate(34.850234 81.230229) scale(0.035 -0.035)">
       <defs>
        <path id="Helvetica-54" d="M 3828 4591 
L 3828 4044 
L 2281 4044 
L 2281 0 
L 1650 0 
L 1650 4044 
L 103 4044 
L 103 4591 
L 3828 4591 
z
" transform="scale(0.015625)"/>
        <path id="Helvetica-52" d="M 2622 2488 
Q 3059 2488 3314 2663 
Q 3569 2838 3569 3294 
Q 3569 3784 3213 3963 
Q 3022 4056 2703 4056 
L 1184 4056 
L 1184 2488 
L 2622 2488 
z
M 563 4591 
L 2688 4591 
Q 3213 4591 3553 4438 
Q 4200 4144 4200 3353 
Q 4200 2941 4029 2678 
Q 3859 2416 3553 2256 
Q 3822 2147 3958 1969 
Q 4094 1791 4109 1391 
L 4131 775 
Q 4141 513 4175 384 
Q 4231 166 4375 103 
L 4375 0 
L 3613 0 
Q 3581 59 3562 153 
Q 3544 247 3531 516 
L 3494 1281 
Q 3472 1731 3159 1884 
Q 2981 1969 2600 1969 
L 1184 1969 
L 1184 0 
L 563 0 
L 563 4591 
z
" transform="scale(0.015625)"/>
        <path id="Helvetica-3b1" d="M 3347 703 
Q 3334 428 3525 434 
Q 3641 434 3700 475 
L 3700 -19 
Q 3628 -44 3513 -50 
Q 3391 -63 3309 -63 
Q 3084 -56 2956 103 
Q 2816 256 2816 475 
L 2803 475 
Q 2413 -63 1734 -63 
Q 1006 -50 647 459 
Q 281 953 281 1644 
Q 281 2350 634 2859 
Q 984 3378 1741 3391 
Q 2413 3391 2797 2847 
L 2809 2847 
L 2809 3328 
L 3347 3328 
L 3347 703 
z
M 1825 397 
Q 2075 397 2253 513 
Q 2425 622 2541 806 
Q 2766 1184 2766 1638 
Q 2766 2144 2559 2528 
Q 2350 2919 1797 2931 
Q 1306 2919 1081 2534 
Q 856 2156 856 1697 
Q 856 1209 1081 819 
Q 1306 409 1825 397 
z
" transform="scale(0.015625)"/>
        <path id="Helvetica-3b4" d="M 666 4519 
L 3188 4519 
L 3188 4056 
L 1394 4056 
L 1394 4044 
L 2509 3303 
Q 3134 2881 3372 2469 
Q 3591 2053 3584 1600 
Q 3578 934 3163 447 
Q 2738 -50 1938 -63 
Q 1203 -56 769 403 
Q 331 850 325 1556 
Q 341 3066 1863 3188 
L 1863 3200 
L 666 4056 
L 666 4519 
z
M 1991 397 
Q 2497 403 2731 794 
Q 2969 1166 2969 1606 
Q 2969 1856 2919 2041 
Q 2866 2222 2791 2344 
Q 2713 2463 2638 2541 
Q 2559 2619 2509 2650 
Q 2381 2766 2156 2766 
Q 947 2766 941 1528 
Q 941 1056 1216 738 
Q 1491 403 1991 397 
z
" transform="scale(0.015625)"/>
       </defs>
       <use xlink:href="#Helvetica-54"/>
       <use xlink:href="#Helvetica-43" x="61.083984"/>
       <use xlink:href="#Helvetica-52" x="133.300781"/>
       <use xlink:href="#Helvetica-3b1" x="205.517578"/>
       <use xlink:href="#Helvetica-3b4" x="266.601562"/>
       <use xlink:href="#Helvetica-2b" x="327.685547"/>
       <use xlink:href="#Helvetica-20" x="386.083984"/>
       <use xlink:href="#Helvetica-43" x="413.867188"/>
       <use xlink:href="#Helvetica-65" x="486.083984"/>
       <use xlink:href="#Helvetica-6c" x="541.699219"/>
       <use xlink:href="#Helvetica-6c" x="563.916016"/>
       <use xlink:href="#Helvetica-73" x="586.132812"/>
      </g>
     </g>
    </g>
    <g id="xtick_3">
     <g id="text_3">
      <!-- IL7R+ Cells -->
      <g style="fill: #333333" transform="translate(60.873056 81.230229) scale(0.035 -0.035)">
       <defs>
        <path id="Helvetica-49" d="M 628 4591 
L 1256 4591 
L 1256 0 
L 628 0 
L 628 4591 
z
" transform="scale(0.015625)"/>
        <path id="Helvetica-4c" d="M 488 4591 
L 1109 4591 
L 1109 547 
L 3434 547 
L 3434 0 
L 488 0 
L 488 4591 
z
" transform="scale(0.015625)"/>
        <path id="Helvetica-37" d="M 3347 4400 
L 3347 3909 
Q 3131 3700 2773 3181 
Q 2416 2663 2141 2063 
Q 1869 1478 1728 997 
Q 1638 688 1494 0 
L 872 0 
Q 1084 1281 1809 2550 
Q 2238 3294 2709 3834 
L 234 3834 
L 234 4400 
L 3347 4400 
z
" transform="scale(0.015625)"/>
       </defs>
       <use xlink:href="#Helvetica-49"/>
       <use xlink:href="#Helvetica-4c" x="27.783203"/>
       <use xlink:href="#Helvetica-37" x="83.398438"/>
       <use xlink:href="#Helvetica-52" x="139.013672"/>
       <use xlink:href="#Helvetica-2b" x="211.230469"/>
       <use xlink:href="#Helvetica-20" x="269.628906"/>
       <use xlink:href="#Helvetica-43" x="297.412109"/>
       <use xlink:href="#Helvetica-65" x="369.628906"/>
       <use xlink:href="#Helvetica-6c" x="425.244141"/>
       <use xlink:href="#Helvetica-6c" x="447.460938"/>
       <use xlink:href="#Helvetica-73" x="469.677734"/>
      </g>
     </g>
    </g>
   </g>
   <g id="matplotlib.axis_2">
    <g id="ytick_1">
     <g id="line2d_1">
      <defs>
       <path id="m98383d2b72" d="M 0 0 
L -1 0 
" style="stroke: #777777; stroke-width: 0.5"/>
      </defs>
      <g>
       <use xlink:href="#m98383d2b72" x="10.005084" y="66.189518" style="fill: #777777; stroke: #777777; stroke-width: 0.5"/>
      </g>
     </g>
     <g id="text_4">
      <!-- 0 -->
      <g style="fill: #333333" transform="translate(6.336803 67.265534) scale(0.03 -0.03)">
       <use xlink:href="#Helvetica-30"/>
      </g>
     </g>
    </g>
    <g id="ytick_2">
     <g id="line2d_2">
      <g>
       <use xlink:href="#m98383d2b72" x="10.005084" y="55.837308" style="fill: #777777; stroke: #777777; stroke-width: 0.5"/>
      </g>
     </g>
     <g id="text_5">
      <!-- 20 -->
      <g style="fill: #333333" transform="translate(4.668521 56.913323) scale(0.03 -0.03)">
       <use xlink:href="#Helvetica-32"/>
       <use xlink:href="#Helvetica-30" x="55.615234"/>
      </g>
     </g>
    </g>
    <g id="ytick_3">
     <g id="line2d_3">
      <g>
       <use xlink:href="#m98383d2b72" x="10.005084" y="45.485097" style="fill: #777777; stroke: #777777; stroke-width: 0.5"/>
      </g>
     </g>
     <g id="text_6">
      <!-- 40 -->
      <g style="fill: #333333" transform="translate(4.668521 46.561113) scale(0.03 -0.03)">
       <defs>
        <path id="Helvetica-34" d="M 2116 1584 
L 2116 3613 
L 681 1584 
L 2116 1584 
z
M 2125 0 
L 2125 1094 
L 163 1094 
L 163 1644 
L 2213 4488 
L 2688 4488 
L 2688 1584 
L 3347 1584 
L 3347 1094 
L 2688 1094 
L 2688 0 
L 2125 0 
z
" transform="scale(0.015625)"/>
       </defs>
       <use xlink:href="#Helvetica-34"/>
       <use xlink:href="#Helvetica-30" x="55.615234"/>
      </g>
     </g>
    </g>
    <g id="ytick_4">
     <g id="line2d_4">
      <g>
       <use xlink:href="#m98383d2b72" x="10.005084" y="35.132887" style="fill: #777777; stroke: #777777; stroke-width: 0.5"/>
      </g>
     </g>
     <g id="text_7">
      <!-- 60 -->
      <g style="fill: #333333" transform="translate(4.668521 36.208903) scale(0.03 -0.03)">
       <defs>
        <path id="Helvetica-36" d="M 1872 4494 
Q 2622 4494 2917 4105 
Q 3213 3716 3213 3303 
L 2656 3303 
Q 2606 3569 2497 3719 
Q 2294 4000 1881 4000 
Q 1409 4000 1131 3564 
Q 853 3128 822 2316 
Q 1016 2600 1309 2741 
Q 1578 2866 1909 2866 
Q 2472 2866 2890 2506 
Q 3309 2147 3309 1434 
Q 3309 825 2912 354 
Q 2516 -116 1781 -116 
Q 1153 -116 697 361 
Q 241 838 241 1966 
Q 241 2800 444 3381 
Q 834 4494 1872 4494 
z
M 1831 384 
Q 2275 384 2495 682 
Q 2716 981 2716 1388 
Q 2716 1731 2519 2042 
Q 2322 2353 1803 2353 
Q 1441 2353 1167 2112 
Q 894 1872 894 1388 
Q 894 963 1142 673 
Q 1391 384 1831 384 
z
" transform="scale(0.015625)"/>
       </defs>
       <use xlink:href="#Helvetica-36"/>
       <use xlink:href="#Helvetica-30" x="55.615234"/>
      </g>
     </g>
    </g>
    <g id="ytick_5">
     <g id="line2d_5">
      <g>
       <use xlink:href="#m98383d2b72" x="10.005084" y="24.780677" style="fill: #777777; stroke: #777777; stroke-width: 0.5"/>
      </g>
     </g>
     <g id="text_8">
      <!-- 80 -->
      <g style="fill: #333333" transform="translate(4.668521 25.856692) scale(0.03 -0.03)">
       <defs>
        <path id="Helvetica-38" d="M 1741 2600 
Q 2113 2600 2322 2808 
Q 2531 3016 2531 3303 
Q 2531 3553 2331 3762 
Q 2131 3972 1722 3972 
Q 1316 3972 1134 3762 
Q 953 3553 953 3272 
Q 953 2956 1187 2778 
Q 1422 2600 1741 2600 
z
M 1775 384 
Q 2166 384 2423 595 
Q 2681 806 2681 1225 
Q 2681 1659 2415 1884 
Q 2150 2109 1734 2109 
Q 1331 2109 1076 1879 
Q 822 1650 822 1244 
Q 822 894 1055 639 
Q 1288 384 1775 384 
z
M 975 2384 
Q 741 2484 609 2619 
Q 363 2869 363 3269 
Q 363 3769 725 4128 
Q 1088 4488 1753 4488 
Q 2397 4488 2762 4148 
Q 3128 3809 3128 3356 
Q 3128 2938 2916 2678 
Q 2797 2531 2547 2391 
Q 2825 2263 2984 2097 
Q 3281 1784 3281 1284 
Q 3281 694 2884 283 
Q 2488 -128 1763 -128 
Q 1109 -128 657 226 
Q 206 581 206 1256 
Q 206 1653 400 1942 
Q 594 2231 975 2384 
z
" transform="scale(0.015625)"/>
       </defs>
       <use xlink:href="#Helvetica-38"/>
       <use xlink:href="#Helvetica-30" x="55.615234"/>
      </g>
     </g>
    </g>
    <g id="ytick_6">
     <g id="line2d_6">
      <g>
       <use xlink:href="#m98383d2b72" x="10.005084" y="14.428466" style="fill: #777777; stroke: #777777; stroke-width: 0.5"/>
      </g>
     </g>
     <g id="text_9">
      <!-- 100 -->
      <g style="fill: #333333" transform="translate(3.00024 15.504482) scale(0.03 -0.03)">
       <defs>
        <path id="Helvetica-31" d="M 613 3169 
L 613 3600 
Q 1222 3659 1462 3798 
Q 1703 3938 1822 4456 
L 2266 4456 
L 2266 0 
L 1666 0 
L 1666 3169 
L 613 3169 
z
" transform="scale(0.015625)"/>
       </defs>
       <use xlink:href="#Helvetica-31"/>
       <use xlink:href="#Helvetica-30" x="55.615234"/>
       <use xlink:href="#Helvetica-30" x="111.230469"/>
      </g>
     </g>
    </g>
    <g id="ytick_7">
     <g id="line2d_7">
      <g>
       <use xlink:href="#m98383d2b72" x="10.005084" y="4.076256" style="fill: #777777; stroke: #777777; stroke-width: 0.5"/>
      </g>
     </g>
     <g id="text_10">
      <!-- 120 -->
      <g style="fill: #333333" transform="translate(3.00024 5.152271) scale(0.03 -0.03)">
       <use xlink:href="#Helvetica-31"/>
       <use xlink:href="#Helvetica-32" x="55.615234"/>
       <use xlink:href="#Helvetica-30" x="111.230469"/>
      </g>
     </g>
    </g>
   </g>
   <g id="PolyCollection_1">
    <defs>
     <path id="m5a05d055b7" d="M 23.25767 -18.265976 
L 20.737389 -18.265976 
L 20.40462 -18.333839 
L 20.013774 -18.401701 
L 19.563378 -18.469564 
L 19.054395 -18.537427 
L 18.49068 -18.605289 
L 17.879276 -18.673152 
L 17.230539 -18.741015 
L 16.558012 -18.808878 
L 15.878059 -18.87674 
L 15.209226 -18.944603 
L 14.571385 -19.012466 
L 13.984695 -19.080328 
L 13.468464 -19.148191 
L 13.040003 -19.216054 
L 12.71357 -19.283916 
L 12.499496 -19.351779 
L 12.403573 -19.419642 
L 12.426751 -19.487504 
L 12.565172 -19.555367 
L 12.810523 -19.62323 
L 13.150674 -19.691093 
L 13.570532 -19.758955 
L 14.053016 -19.826818 
L 14.580095 -19.894681 
L 15.133765 -19.962543 
L 15.69693 -20.030406 
L 16.25411 -20.098269 
L 16.791955 -20.166131 
L 17.299566 -20.233994 
L 17.768609 -20.301857 
L 18.19328 -20.369719 
L 18.570134 -20.437582 
L 18.897822 -20.505445 
L 19.176777 -20.573308 
L 19.408876 -20.64117 
L 19.597107 -20.709033 
L 19.745254 -20.776896 
L 19.857609 -20.844758 
L 19.938727 -20.912621 
L 19.993212 -20.980484 
L 20.025536 -21.048346 
L 20.039902 -21.116209 
L 20.040126 -21.184072 
L 20.029555 -21.251934 
L 20.011008 -21.319797 
L 19.986748 -21.38766 
L 19.958476 -21.455523 
L 19.927353 -21.523385 
L 19.894045 -21.591248 
L 19.858802 -21.659111 
L 19.821558 -21.726973 
L 19.782061 -21.794836 
L 19.740015 -21.862699 
L 19.695243 -21.930561 
L 19.647834 -21.998424 
L 19.598288 -22.066287 
L 19.547611 -22.134149 
L 19.497366 -22.202012 
L 19.449648 -22.269875 
L 19.406992 -22.337738 
L 19.3722 -22.4056 
L 19.348104 -22.473463 
L 19.33728 -22.541326 
L 19.341757 -22.609188 
L 19.362728 -22.677051 
L 19.400324 -22.744914 
L 19.453475 -22.812776 
L 19.519876 -22.880639 
L 19.596079 -22.948502 
L 19.677707 -23.016364 
L 19.759779 -23.084227 
L 19.837111 -23.15209 
L 19.904762 -23.219953 
L 19.958473 -23.287815 
L 19.995074 -23.355678 
L 20.012787 -23.423541 
L 20.011434 -23.491403 
L 19.99249 -23.559266 
L 19.959004 -23.627129 
L 19.915386 -23.694991 
L 19.867065 -23.762854 
L 19.820079 -23.830717 
L 19.7806 -23.89858 
L 19.754461 -23.966442 
L 19.746715 -24.034305 
L 19.761265 -24.102168 
L 19.800598 -24.17003 
L 19.865637 -24.237893 
L 19.955726 -24.305756 
L 20.06874 -24.373618 
L 20.201305 -24.441481 
L 20.349101 -24.509344 
L 20.507221 -24.577206 
L 20.670536 -24.645069 
L 20.834054 -24.712932 
L 20.993224 -24.780795 
L 21.144173 -24.848657 
L 21.283863 -24.91652 
L 21.410158 -24.984383 
L 22.584902 -24.984383 
L 22.584902 -24.984383 
L 22.711197 -24.91652 
L 22.850886 -24.848657 
L 23.001835 -24.780795 
L 23.161005 -24.712932 
L 23.324523 -24.645069 
L 23.487839 -24.577206 
L 23.645958 -24.509344 
L 23.793755 -24.441481 
L 23.92632 -24.373618 
L 24.039334 -24.305756 
L 24.129422 -24.237893 
L 24.194461 -24.17003 
L 24.233794 -24.102168 
L 24.248345 -24.034305 
L 24.240599 -23.966442 
L 24.21446 -23.89858 
L 24.17498 -23.830717 
L 24.127994 -23.762854 
L 24.079674 -23.694991 
L 24.036055 -23.627129 
L 24.00257 -23.559266 
L 23.983626 -23.491403 
L 23.982272 -23.423541 
L 23.999986 -23.355678 
L 24.036586 -23.287815 
L 24.090298 -23.219953 
L 24.157948 -23.15209 
L 24.235281 -23.084227 
L 24.317353 -23.016364 
L 24.398981 -22.948502 
L 24.475183 -22.880639 
L 24.541585 -22.812776 
L 24.594736 -22.744914 
L 24.632332 -22.677051 
L 24.653302 -22.609188 
L 24.657779 -22.541326 
L 24.646956 -22.473463 
L 24.622859 -22.4056 
L 24.588067 -22.337738 
L 24.545412 -22.269875 
L 24.497694 -22.202012 
L 24.447448 -22.134149 
L 24.396772 -22.066287 
L 24.347226 -21.998424 
L 24.299817 -21.930561 
L 24.255044 -21.862699 
L 24.212999 -21.794836 
L 24.173501 -21.726973 
L 24.136258 -21.659111 
L 24.101015 -21.591248 
L 24.067707 -21.523385 
L 24.036583 -21.455523 
L 24.008312 -21.38766 
L 23.984052 -21.319797 
L 23.965505 -21.251934 
L 23.954933 -21.184072 
L 23.955157 -21.116209 
L 23.969523 -21.048346 
L 24.001848 -20.980484 
L 24.056332 -20.912621 
L 24.13745 -20.844758 
L 24.249806 -20.776896 
L 24.397952 -20.709033 
L 24.586184 -20.64117 
L 24.818283 -20.573308 
L 25.097238 -20.505445 
L 25.424926 -20.437582 
L 25.80178 -20.369719 
L 26.226451 -20.301857 
L 26.695494 -20.233994 
L 27.203104 -20.166131 
L 27.74095 -20.098269 
L 28.298129 -20.030406 
L 28.861294 -19.962543 
L 29.414965 -19.894681 
L 29.942043 -19.826818 
L 30.424528 -19.758955 
L 30.844385 -19.691093 
L 31.184537 -19.62323 
L 31.429888 -19.555367 
L 31.568309 -19.487504 
L 31.591487 -19.419642 
L 31.495564 -19.351779 
L 31.28149 -19.283916 
L 30.955056 -19.216054 
L 30.526595 -19.148191 
L 30.010365 -19.080328 
L 29.423675 -19.012466 
L 28.785834 -18.944603 
L 28.117001 -18.87674 
L 27.437047 -18.808878 
L 26.764521 -18.741015 
L 26.115783 -18.673152 
L 25.50438 -18.605289 
L 24.940664 -18.537427 
L 24.431682 -18.469564 
L 23.981285 -18.401701 
L 23.59044 -18.333839 
L 23.25767 -18.265976 
z
" style="stroke: #6f6f6f; stroke-width: 0.15"/>
    </defs>
    <g clip-path="url(#p622d31ced4)">
     <use xlink:href="#m5a05d055b7" x="0" y="84.96" style="fill: #abc9ea; stroke: #6f6f6f; stroke-width: 0.15"/>
    </g>
   </g>
   <g id="PolyCollection_2">
    <defs>
     <path id="m3b4375a5f1" d="M 46.814819 -17.606512 
L 45.150025 -17.606512 
L 44.86199 -17.764496 
L 44.505845 -17.922479 
L 44.076592 -18.080463 
L 43.572489 -18.238447 
L 42.996027 -18.396431 
L 42.354689 -18.554415 
L 41.661347 -18.712399 
L 40.934144 -18.870383 
L 40.195761 -19.028367 
L 39.472039 -19.186351 
L 38.790011 -19.344335 
L 38.175505 -19.502319 
L 37.650599 -19.660303 
L 37.231256 -19.818287 
L 36.925517 -19.976271 
L 36.732563 -20.134255 
L 36.642867 -20.292239 
L 36.639456 -20.450223 
L 36.700135 -20.608206 
L 36.800313 -20.76619 
L 36.91598 -20.924174 
L 37.026316 -21.082158 
L 37.115543 -21.240142 
L 37.17376 -21.398126 
L 37.19675 -21.55611 
L 37.184973 -21.714094 
L 37.142102 -21.872078 
L 37.073542 -22.030062 
L 36.985291 -22.188046 
L 36.883366 -22.34603 
L 36.773828 -22.504014 
L 36.663239 -22.661998 
L 36.559288 -22.819982 
L 36.471271 -22.977966 
L 36.410205 -23.13595 
L 36.388465 -23.293933 
L 36.418963 -23.451917 
L 36.514026 -23.609901 
L 36.684164 -23.767885 
L 36.93693 -23.925869 
L 37.276027 -24.083853 
L 37.700737 -24.241837 
L 38.205713 -24.399821 
L 38.78113 -24.557805 
L 39.413164 -24.715789 
L 40.08478 -24.873773 
L 40.776789 -25.031757 
L 41.469101 -25.189741 
L 42.142081 -25.347725 
L 42.777872 -25.505709 
L 43.361524 -25.663693 
L 43.881796 -25.821677 
L 44.331532 -25.979661 
L 44.707564 -26.137644 
L 45.010214 -26.295628 
L 45.242484 -26.453612 
L 45.40911 -26.611596 
L 45.515632 -26.76958 
L 45.567647 -26.927564 
L 45.570336 -27.085548 
L 45.528309 -27.243532 
L 45.44577 -27.401516 
L 45.326905 -27.5595 
L 45.176407 -27.717484 
L 44.999992 -27.875468 
L 44.804786 -28.033452 
L 44.599469 -28.191436 
L 44.394108 -28.34942 
L 44.199667 -28.507404 
L 44.027229 -28.665388 
L 43.887021 -28.823371 
L 43.787382 -28.981355 
L 43.733815 -29.139339 
L 43.728288 -29.297323 
L 43.768877 -29.455307 
L 43.84986 -29.613291 
L 43.962243 -29.771275 
L 44.094688 -29.929259 
L 44.234738 -30.087243 
L 44.370183 -30.245227 
L 44.490407 -30.403211 
L 44.587527 -30.561195 
L 44.657206 -30.719179 
L 44.698996 -30.877163 
L 44.716203 -31.035147 
L 44.715262 -31.193131 
L 44.704733 -31.351115 
L 44.694061 -31.509098 
L 44.692271 -31.667082 
L 44.706795 -31.825066 
L 44.742594 -31.98305 
L 44.801693 -32.141034 
L 44.883157 -32.299018 
L 44.983486 -32.457002 
L 45.097317 -32.614986 
L 45.218298 -32.77297 
L 45.339975 -32.930954 
L 45.456553 -33.088938 
L 45.563444 -33.246922 
L 46.4014 -33.246922 
L 46.4014 -33.246922 
L 46.50829 -33.088938 
L 46.624869 -32.930954 
L 46.746546 -32.77297 
L 46.867527 -32.614986 
L 46.981357 -32.457002 
L 47.081687 -32.299018 
L 47.163151 -32.141034 
L 47.22225 -31.98305 
L 47.258049 -31.825066 
L 47.272572 -31.667082 
L 47.270782 -31.509098 
L 47.260111 -31.351115 
L 47.249582 -31.193131 
L 47.24864 -31.035147 
L 47.265847 -30.877163 
L 47.307638 -30.719179 
L 47.377317 -30.561195 
L 47.474437 -30.403211 
L 47.59466 -30.245227 
L 47.730106 -30.087243 
L 47.870156 -29.929259 
L 48.002601 -29.771275 
L 48.114983 -29.613291 
L 48.195967 -29.455307 
L 48.236556 -29.297323 
L 48.231028 -29.139339 
L 48.177462 -28.981355 
L 48.077822 -28.823371 
L 47.937614 -28.665388 
L 47.765176 -28.507404 
L 47.570736 -28.34942 
L 47.365375 -28.191436 
L 47.160058 -28.033452 
L 46.964852 -27.875468 
L 46.788437 -27.717484 
L 46.637939 -27.5595 
L 46.519073 -27.401516 
L 46.436534 -27.243532 
L 46.394508 -27.085548 
L 46.397196 -26.927564 
L 46.449212 -26.76958 
L 46.555734 -26.611596 
L 46.72236 -26.453612 
L 46.95463 -26.295628 
L 47.25728 -26.137644 
L 47.633312 -25.979661 
L 48.083047 -25.821677 
L 48.60332 -25.663693 
L 49.186972 -25.505709 
L 49.822762 -25.347725 
L 50.495743 -25.189741 
L 51.188054 -25.031757 
L 51.880063 -24.873773 
L 52.55168 -24.715789 
L 53.183713 -24.557805 
L 53.75913 -24.399821 
L 54.264107 -24.241837 
L 54.688816 -24.083853 
L 55.027914 -23.925869 
L 55.28068 -23.767885 
L 55.450818 -23.609901 
L 55.54588 -23.451917 
L 55.576379 -23.293933 
L 55.554639 -23.13595 
L 55.493573 -22.977966 
L 55.405555 -22.819982 
L 55.301604 -22.661998 
L 55.191016 -22.504014 
L 55.081478 -22.34603 
L 54.979553 -22.188046 
L 54.891301 -22.030062 
L 54.822742 -21.872078 
L 54.779871 -21.714094 
L 54.768094 -21.55611 
L 54.791084 -21.398126 
L 54.849301 -21.240142 
L 54.938528 -21.082158 
L 55.048864 -20.924174 
L 55.16453 -20.76619 
L 55.264709 -20.608206 
L 55.325388 -20.450223 
L 55.321977 -20.292239 
L 55.232281 -20.134255 
L 55.039327 -19.976271 
L 54.733588 -19.818287 
L 54.314245 -19.660303 
L 53.789338 -19.502319 
L 53.174833 -19.344335 
L 52.492804 -19.186351 
L 51.769083 -19.028367 
L 51.0307 -18.870383 
L 50.303497 -18.712399 
L 49.610155 -18.554415 
L 48.968817 -18.396431 
L 48.392355 -18.238447 
L 47.888252 -18.080463 
L 47.458999 -17.922479 
L 47.102854 -17.764496 
L 46.814819 -17.606512 
z
" style="stroke: #6f6f6f; stroke-width: 0.15"/>
    </defs>
    <g clip-path="url(#p622d31ced4)">
     <use xlink:href="#m3b4375a5f1" x="0" y="84.96" style="fill: #efb792; stroke: #6f6f6f; stroke-width: 0.15"/>
    </g>
   </g>
   <g id="PolyCollection_3">
    <defs>
     <path id="m189f431ede" d="M 72.054311 -21.774546 
L 67.880317 -21.774546 
L 67.33453 -21.978633 
L 66.714462 -22.18272 
L 66.030213 -22.386807 
L 65.297694 -22.590894 
L 64.538121 -22.794981 
L 63.776807 -22.999068 
L 63.041333 -23.203155 
L 62.359257 -23.407242 
L 61.755647 -23.611329 
L 61.250761 -23.815416 
L 60.858194 -24.019503 
L 60.583768 -24.22359 
L 60.425313 -24.427677 
L 60.373357 -24.631764 
L 60.412593 -24.835851 
L 60.523882 -25.039938 
L 60.686478 -25.244025 
L 60.880147 -25.448112 
L 61.08692 -25.652199 
L 61.292282 -25.856285 
L 61.485753 -26.060372 
L 61.66089 -26.264459 
L 61.814849 -26.468546 
L 61.947689 -26.672633 
L 62.061584 -26.87672 
L 62.160102 -27.080807 
L 62.247627 -27.284894 
L 62.328951 -27.488981 
L 62.408999 -27.693068 
L 62.492627 -27.897155 
L 62.584426 -28.101242 
L 62.68848 -28.305329 
L 62.808095 -28.509416 
L 62.945518 -28.713503 
L 63.101719 -28.91759 
L 63.276318 -29.121677 
L 63.467709 -29.325764 
L 63.673381 -29.529851 
L 63.890417 -29.733938 
L 64.116063 -29.938025 
L 64.348256 -30.142112 
L 64.585982 -30.346199 
L 64.829377 -30.550286 
L 65.079517 -30.754373 
L 65.337947 -30.95846 
L 65.606012 -31.162547 
L 65.884149 -31.366634 
L 66.171265 -31.570721 
L 66.464354 -31.774808 
L 66.758427 -31.978895 
L 67.046784 -32.182982 
L 67.321586 -32.387069 
L 67.574634 -32.591156 
L 67.798226 -32.795243 
L 67.985949 -32.999329 
L 68.133297 -33.203416 
L 68.238025 -33.407503 
L 68.300213 -33.61159 
L 68.322067 -33.815677 
L 68.307514 -34.019764 
L 68.26169 -34.223851 
L 68.190428 -34.427938 
L 68.099822 -34.632025 
L 67.995933 -34.836112 
L 67.884656 -35.040199 
L 67.771705 -35.244286 
L 67.662678 -35.448373 
L 67.563105 -35.65246 
L 67.478414 -35.856547 
L 67.41376 -36.060634 
L 67.373711 -36.264721 
L 67.361815 -36.468808 
L 67.380133 -36.672895 
L 67.428832 -36.876982 
L 67.505936 -37.081069 
L 67.607324 -37.285156 
L 67.727013 -37.489243 
L 67.857706 -37.69333 
L 67.991558 -37.897417 
L 68.121043 -38.101504 
L 68.239795 -38.305591 
L 68.343302 -38.509678 
L 68.429354 -38.713765 
L 68.498161 -38.917852 
L 68.552166 -39.121939 
L 68.595556 -39.326026 
L 68.633577 -39.530113 
L 68.671753 -39.7342 
L 68.715132 -39.938287 
L 68.767648 -40.142373 
L 68.831702 -40.34646 
L 68.907981 -40.550547 
L 68.995519 -40.754634 
L 69.091973 -40.958721 
L 69.19404 -41.162808 
L 69.297936 -41.366895 
L 69.399872 -41.570982 
L 69.496457 -41.775069 
L 69.58499 -41.979156 
L 70.349638 -41.979156 
L 70.349638 -41.979156 
L 70.43817 -41.775069 
L 70.534756 -41.570982 
L 70.636692 -41.366895 
L 70.740588 -41.162808 
L 70.842654 -40.958721 
L 70.939109 -40.754634 
L 71.026647 -40.550547 
L 71.102926 -40.34646 
L 71.16698 -40.142373 
L 71.219496 -39.938287 
L 71.262874 -39.7342 
L 71.301051 -39.530113 
L 71.339072 -39.326026 
L 71.382462 -39.121939 
L 71.436467 -38.917852 
L 71.505274 -38.713765 
L 71.591325 -38.509678 
L 71.694833 -38.305591 
L 71.813584 -38.101504 
L 71.943069 -37.897417 
L 72.076922 -37.69333 
L 72.207615 -37.489243 
L 72.327304 -37.285156 
L 72.428692 -37.081069 
L 72.505796 -36.876982 
L 72.554494 -36.672895 
L 72.572813 -36.468808 
L 72.560916 -36.264721 
L 72.520867 -36.060634 
L 72.456214 -35.856547 
L 72.371523 -35.65246 
L 72.27195 -35.448373 
L 72.162923 -35.244286 
L 72.049972 -35.040199 
L 71.938695 -34.836112 
L 71.834806 -34.632025 
L 71.7442 -34.427938 
L 71.672938 -34.223851 
L 71.627114 -34.019764 
L 71.612561 -33.815677 
L 71.634415 -33.61159 
L 71.696603 -33.407503 
L 71.801331 -33.203416 
L 71.948679 -32.999329 
L 72.136402 -32.795243 
L 72.359994 -32.591156 
L 72.613042 -32.387069 
L 72.887844 -32.182982 
L 73.1762 -31.978895 
L 73.470274 -31.774808 
L 73.763363 -31.570721 
L 74.050479 -31.366634 
L 74.328616 -31.162547 
L 74.596681 -30.95846 
L 74.855111 -30.754373 
L 75.105251 -30.550286 
L 75.348645 -30.346199 
L 75.586372 -30.142112 
L 75.818565 -29.938025 
L 76.044211 -29.733938 
L 76.261247 -29.529851 
L 76.466919 -29.325764 
L 76.65831 -29.121677 
L 76.832909 -28.91759 
L 76.98911 -28.713503 
L 77.126533 -28.509416 
L 77.246148 -28.305329 
L 77.350202 -28.101242 
L 77.442 -27.897155 
L 77.525629 -27.693068 
L 77.605677 -27.488981 
L 77.687001 -27.284894 
L 77.774526 -27.080807 
L 77.873044 -26.87672 
L 77.986939 -26.672633 
L 78.119779 -26.468546 
L 78.273738 -26.264459 
L 78.448874 -26.060372 
L 78.642346 -25.856285 
L 78.847708 -25.652199 
L 79.054481 -25.448112 
L 79.24815 -25.244025 
L 79.410746 -25.039938 
L 79.522035 -24.835851 
L 79.561271 -24.631764 
L 79.509315 -24.427677 
L 79.35086 -24.22359 
L 79.076434 -24.019503 
L 78.683867 -23.815416 
L 78.178981 -23.611329 
L 77.575371 -23.407242 
L 76.893295 -23.203155 
L 76.157821 -22.999068 
L 75.396507 -22.794981 
L 74.636933 -22.590894 
L 73.904415 -22.386807 
L 73.220166 -22.18272 
L 72.600098 -21.978633 
L 72.054311 -21.774546 
z
" style="stroke: #6f6f6f; stroke-width: 0.15"/>
    </defs>
    <g clip-path="url(#p622d31ced4)">
     <use xlink:href="#m189f431ede" x="0" y="84.96" style="fill: #98daa7; stroke: #6f6f6f; stroke-width: 0.15"/>
    </g>
   </g>
   <g id="line2d_8">
    <path d="M 21.99753 65.941962 
L 21.99753 60.72768 
" clip-path="url(#p622d31ced4)" style="fill: none; stroke: #8c8c8c; stroke-width: 0.75; stroke-linecap: round"/>
   </g>
   <g id="line2d_9">
    <path d="M 21.99753 65.588413 
L 21.99753 62.855279 
" clip-path="url(#p622d31ced4)" style="fill: none; stroke: #8c8c8c; stroke-width: 4; stroke-linecap: round"/>
   </g>
   <g id="line2d_10">
    <path d="M 21.99753 65.227144 
" clip-path="url(#p622d31ced4)" style="fill: none; stroke: #6f6f6f; stroke-width: 1.2; stroke-linecap: round"/>
    <defs>
     <path id="m829026cf36" d="M 0 0.833333 
C 0.221003 0.833333 0.432983 0.745528 0.589256 0.589256 
C 0.745528 0.432983 0.833333 0.221003 0.833333 0 
C 0.833333 -0.221003 0.745528 -0.432983 0.589256 -0.589256 
C 0.432983 -0.745528 0.221003 -0.833333 0 -0.833333 
C -0.221003 -0.833333 -0.432983 -0.745528 -0.589256 -0.589256 
C -0.745528 -0.432983 -0.833333 -0.221003 -0.833333 0 
C -0.833333 0.221003 -0.745528 0.432983 -0.589256 0.589256 
C -0.432983 0.745528 -0.221003 0.833333 0 0.833333 
z
" style="stroke: #ffffff; stroke-width: 0.8"/>
    </defs>
    <g clip-path="url(#p622d31ced4)">
     <use xlink:href="#m829026cf36" x="21.99753" y="65.227144" style="fill: #ffffff; stroke: #ffffff; stroke-width: 0.8"/>
    </g>
   </g>
   <g id="line2d_11">
    <path d="M 45.982422 65.970087 
L 45.982422 56.117176 
" clip-path="url(#p622d31ced4)" style="fill: none; stroke: #8c8c8c; stroke-width: 0.75; stroke-linecap: round"/>
   </g>
   <g id="line2d_12">
    <path d="M 45.982422 64.498651 
L 45.982422 60.886016 
" clip-path="url(#p622d31ced4)" style="fill: none; stroke: #8c8c8c; stroke-width: 4; stroke-linecap: round"/>
   </g>
   <g id="line2d_13">
    <path d="M 45.982422 62.593299 
" clip-path="url(#p622d31ced4)" style="fill: none; stroke: #6f6f6f; stroke-width: 1.2; stroke-linecap: round"/>
    <g clip-path="url(#p622d31ced4)">
     <use xlink:href="#m829026cf36" x="45.982422" y="62.593299" style="fill: #ffffff; stroke: #ffffff; stroke-width: 0.8"/>
    </g>
   </g>
   <g id="line2d_14">
    <path d="M 69.967314 61.212873 
L 69.967314 44.953424 
" clip-path="url(#p622d31ced4)" style="fill: none; stroke: #8c8c8c; stroke-width: 0.75; stroke-linecap: round"/>
   </g>
   <g id="line2d_15">
    <path d="M 69.967314 60.513326 
L 69.967314 54.159328 
" clip-path="url(#p622d31ced4)" style="fill: none; stroke: #8c8c8c; stroke-width: 4; stroke-linecap: round"/>
   </g>
   <g id="line2d_16">
    <path d="M 69.967314 57.589948 
" clip-path="url(#p622d31ced4)" style="fill: none; stroke: #6f6f6f; stroke-width: 1.2; stroke-linecap: round"/>
    <g clip-path="url(#p622d31ced4)">
     <use xlink:href="#m829026cf36" x="69.967314" y="57.589948" style="fill: #ffffff; stroke: #ffffff; stroke-width: 0.8"/>
    </g>
   </g>
   <g id="patch_3">
    <path d="M 10.005084 74.419526 
L 10.005084 4.076256 
" style="fill: none; stroke: #777777; stroke-width: 0.5; stroke-linejoin: miter; stroke-linecap: square"/>
   </g>
   <g id="patch_4">
    <path d="M 10.005084 76.919526 
L 81.95976 76.919526 
" style="fill: none; stroke: #777777; stroke-width: 0.5; stroke-linejoin: miter; stroke-linecap: square"/>
   </g>
  </g>
 </g>
 <defs>
  <clipPath id="p622d31ced4">
   <rect x="10.005084" y="4.076256" width="71.954676" height="70.34327"/>
  </clipPath>
 </defs>
</svg>
