<?xml version="1.0" encoding="utf-8" standalone="no"?>
<!DOCTYPE svg PUBLIC "-//W3C//DTD SVG 1.1//EN"
  "http://www.w3.org/Graphics/SVG/1.1/DTD/svg11.dtd">
<svg xmlns:xlink="http://www.w3.org/1999/xlink" width="84.96pt" height="84.96pt" viewBox="0 0 84.96 84.96" xmlns="http://www.w3.org/2000/svg" version="1.1">
 <metadata>
  <rdf:RDF xmlns:dc="http://purl.org/dc/elements/1.1/" xmlns:cc="http://creativecommons.org/ns#" xmlns:rdf="http://www.w3.org/1999/02/22-rdf-syntax-ns#">
   <cc:Work>
    <dc:type rdf:resource="http://purl.org/dc/dcmitype/StillImage"/>
    <dc:date>2024-05-27T15:37:08.947313</dc:date>
    <dc:format>image/svg+xml</dc:format>
    <dc:creator>
     <cc:Agent>
      <dc:title>Matplotlib v3.8.3, https://matplotlib.org/</dc:title>
     </cc:Agent>
    </dc:creator>
   </cc:Work>
  </rdf:RDF>
 </metadata>
 <defs>
  <style type="text/css">*{stroke-linejoin: round; stroke-linecap: butt}</style>
 </defs>
 <g id="figure_1">
  <g id="patch_1">
   <path d="M 0 84.96 
L 84.96 84.96 
L 84.96 0 
L 0 0 
z
" style="fill: #ffffff"/>
  </g>
  <g id="axes_1">
   <g id="patch_2">
    <path d="M 10.005084 74.419526 
L 81.95976 74.419526 
L 81.95976 4.076256 
L 10.005084 4.076256 
z
" style="fill: #ffffff"/>
   </g>
   <g id="matplotlib.axis_1">
    <g id="xtick_1">
     <g id="text_1">
      <!-- NK/ILC1ie -->
      <g style="fill: #333333" transform="translate(14.021905 81.230229) scale(0.035 -0.035)">
       <defs>
        <path id="Helvetica-4e" d="M 488 4591 
L 1222 4591 
L 3541 872 
L 3541 4591 
L 4131 4591 
L 4131 0 
L 3434 0 
L 1081 3716 
L 1081 0 
L 488 0 
L 488 4591 
z
M 2269 4591 
L 2269 4591 
z
" transform="scale(0.015625)"/>
        <path id="Helvetica-4b" d="M 488 4591 
L 1094 4591 
L 1094 2353 
L 3331 4591 
L 4191 4591 
L 2281 2741 
L 4244 0 
L 3434 0 
L 1828 2303 
L 1094 1600 
L 1094 0 
L 488 0 
L 488 4591 
z
" transform="scale(0.015625)"/>
        <path id="Helvetica-2f" d="M 1456 4591 
L 1931 4591 
L 475 0 
L 0 0 
L 1456 4591 
z
" transform="scale(0.015625)"/>
        <path id="Helvetica-49" d="M 628 4591 
L 1256 4591 
L 1256 0 
L 628 0 
L 628 4591 
z
" transform="scale(0.015625)"/>
        <path id="Helvetica-4c" d="M 488 4591 
L 1109 4591 
L 1109 547 
L 3434 547 
L 3434 0 
L 488 0 
L 488 4591 
z
" transform="scale(0.015625)"/>
        <path id="Helvetica-43" d="M 2422 4716 
Q 3294 4716 3775 4256 
Q 4256 3797 4309 3213 
L 3703 3213 
Q 3600 3656 3292 3915 
Q 2984 4175 2428 4175 
Q 1750 4175 1333 3698 
Q 916 3222 916 2238 
Q 916 1431 1292 929 
Q 1669 428 2416 428 
Q 3103 428 3463 956 
Q 3653 1234 3747 1688 
L 4353 1688 
Q 4272 963 3816 472 
Q 3269 -119 2341 -119 
Q 1541 -119 997 366 
Q 281 1006 281 2344 
Q 281 3359 819 4009 
Q 1400 4716 2422 4716 
z
M 2297 4716 
L 2297 4716 
z
" transform="scale(0.015625)"/>
        <path id="Helvetica-31" d="M 613 3169 
L 613 3600 
Q 1222 3659 1462 3798 
Q 1703 3938 1822 4456 
L 2266 4456 
L 2266 0 
L 1666 0 
L 1666 3169 
L 613 3169 
z
" transform="scale(0.015625)"/>
        <path id="Helvetica-69" d="M 413 3331 
L 984 3331 
L 984 0 
L 413 0 
L 413 3331 
z
M 413 4591 
L 984 4591 
L 984 3953 
L 413 3953 
L 413 4591 
z
" transform="scale(0.015625)"/>
        <path id="Helvetica-65" d="M 1806 3422 
Q 2163 3422 2497 3255 
Q 2831 3088 3006 2822 
Q 3175 2569 3231 2231 
Q 3281 2000 3281 1494 
L 828 1494 
Q 844 984 1069 676 
Q 1294 369 1766 369 
Q 2206 369 2469 659 
Q 2619 828 2681 1050 
L 3234 1050 
Q 3213 866 3089 639 
Q 2966 413 2813 269 
Q 2556 19 2178 -69 
Q 1975 -119 1719 -119 
Q 1094 -119 659 336 
Q 225 791 225 1609 
Q 225 2416 662 2919 
Q 1100 3422 1806 3422 
z
M 2703 1941 
Q 2669 2306 2544 2525 
Q 2313 2931 1772 2931 
Q 1384 2931 1121 2651 
Q 859 2372 844 1941 
L 2703 1941 
z
M 1753 3428 
L 1753 3428 
z
" transform="scale(0.015625)"/>
       </defs>
       <use xlink:href="#Helvetica-4e"/>
       <use xlink:href="#Helvetica-4b" x="72.216797"/>
       <use xlink:href="#Helvetica-2f" x="138.916016"/>
       <use xlink:href="#Helvetica-49" x="166.699219"/>
       <use xlink:href="#Helvetica-4c" x="194.482422"/>
       <use xlink:href="#Helvetica-43" x="250.097656"/>
       <use xlink:href="#Helvetica-31" x="322.314453"/>
       <use xlink:href="#Helvetica-69" x="377.929688"/>
       <use xlink:href="#Helvetica-65" x="400.146484"/>
      </g>
     </g>
    </g>
    <g id="xtick_2">
     <g id="text_2">
      <!-- ILC1 -->
      <g style="fill: #333333" transform="translate(42.286094 81.230229) scale(0.035 -0.035)">
       <use xlink:href="#Helvetica-49"/>
       <use xlink:href="#Helvetica-4c" x="27.783203"/>
       <use xlink:href="#Helvetica-43" x="83.398438"/>
       <use xlink:href="#Helvetica-31" x="155.615234"/>
      </g>
     </g>
    </g>
    <g id="xtick_3">
     <g id="text_3">
      <!-- TH1 -->
      <g style="fill: #333333" transform="translate(66.661455 81.230229) scale(0.035 -0.035)">
       <defs>
        <path id="Helvetica-54" d="M 3828 4591 
L 3828 4044 
L 2281 4044 
L 2281 0 
L 1650 0 
L 1650 4044 
L 103 4044 
L 103 4591 
L 3828 4591 
z
" transform="scale(0.015625)"/>
        <path id="Helvetica-48" d="M 503 4591 
L 1131 4591 
L 1131 2694 
L 3519 2694 
L 3519 4591 
L 4147 4591 
L 4147 0 
L 3519 0 
L 3519 2147 
L 1131 2147 
L 1131 0 
L 503 0 
L 503 4591 
z
" transform="scale(0.015625)"/>
       </defs>
       <use xlink:href="#Helvetica-54"/>
       <use xlink:href="#Helvetica-48" x="61.083984"/>
       <use xlink:href="#Helvetica-31" x="133.300781"/>
      </g>
     </g>
    </g>
   </g>
   <g id="matplotlib.axis_2">
    <g id="ytick_1">
     <g id="line2d_1">
      <defs>
       <path id="md408270aea" d="M 0 0 
L -1 0 
" style="stroke: #777777; stroke-width: 0.5"/>
      </defs>
      <g>
       <use xlink:href="#md408270aea" x="10.005084" y="65.703651" style="fill: #777777; stroke: #777777; stroke-width: 0.5"/>
      </g>
     </g>
     <g id="text_4">
      <!-- 0 -->
      <g style="fill: #333333" transform="translate(6.336803 66.779667) scale(0.03 -0.03)">
       <defs>
        <path id="Helvetica-30" d="M 1731 4475 
Q 2600 4475 2988 3759 
Q 3288 3206 3288 2244 
Q 3288 1331 3016 734 
Q 2622 -122 1728 -122 
Q 922 -122 528 578 
Q 200 1163 200 2147 
Q 200 2909 397 3456 
Q 766 4475 1731 4475 
z
M 1725 391 
Q 2163 391 2422 778 
Q 2681 1166 2681 2222 
Q 2681 2984 2493 3476 
Q 2306 3969 1766 3969 
Q 1269 3969 1039 3501 
Q 809 3034 809 2125 
Q 809 1441 956 1025 
Q 1181 391 1725 391 
z
" transform="scale(0.015625)"/>
       </defs>
       <use xlink:href="#Helvetica-30"/>
      </g>
     </g>
    </g>
    <g id="ytick_2">
     <g id="line2d_2">
      <g>
       <use xlink:href="#md408270aea" x="10.005084" y="56.899737" style="fill: #777777; stroke: #777777; stroke-width: 0.5"/>
      </g>
     </g>
     <g id="text_5">
      <!-- 100 -->
      <g style="fill: #333333" transform="translate(3.00024 57.975753) scale(0.03 -0.03)">
       <use xlink:href="#Helvetica-31"/>
       <use xlink:href="#Helvetica-30" x="55.615234"/>
       <use xlink:href="#Helvetica-30" x="111.230469"/>
      </g>
     </g>
    </g>
    <g id="ytick_3">
     <g id="line2d_3">
      <g>
       <use xlink:href="#md408270aea" x="10.005084" y="48.095824" style="fill: #777777; stroke: #777777; stroke-width: 0.5"/>
      </g>
     </g>
     <g id="text_6">
      <!-- 200 -->
      <g style="fill: #333333" transform="translate(3.00024 49.171839) scale(0.03 -0.03)">
       <defs>
        <path id="Helvetica-32" d="M 200 0 
Q 231 578 439 1006 
Q 647 1434 1250 1784 
L 1850 2131 
Q 2253 2366 2416 2531 
Q 2672 2791 2672 3125 
Q 2672 3516 2437 3745 
Q 2203 3975 1813 3975 
Q 1234 3975 1013 3538 
Q 894 3303 881 2888 
L 309 2888 
Q 319 3472 525 3841 
Q 891 4491 1816 4491 
Q 2584 4491 2939 4075 
Q 3294 3659 3294 3150 
Q 3294 2613 2916 2231 
Q 2697 2009 2131 1694 
L 1703 1456 
Q 1397 1288 1222 1134 
Q 909 863 828 531 
L 3272 531 
L 3272 0 
L 200 0 
z
" transform="scale(0.015625)"/>
       </defs>
       <use xlink:href="#Helvetica-32"/>
       <use xlink:href="#Helvetica-30" x="55.615234"/>
       <use xlink:href="#Helvetica-30" x="111.230469"/>
      </g>
     </g>
    </g>
    <g id="ytick_4">
     <g id="line2d_4">
      <g>
       <use xlink:href="#md408270aea" x="10.005084" y="39.29191" style="fill: #777777; stroke: #777777; stroke-width: 0.5"/>
      </g>
     </g>
     <g id="text_7">
      <!-- 300 -->
      <g style="fill: #333333" transform="translate(3.00024 40.367926) scale(0.03 -0.03)">
       <defs>
        <path id="Helvetica-33" d="M 1663 -122 
Q 869 -122 511 314 
Q 153 750 153 1375 
L 741 1375 
Q 778 941 903 744 
Q 1122 391 1694 391 
Q 2138 391 2406 628 
Q 2675 866 2675 1241 
Q 2675 1703 2392 1887 
Q 2109 2072 1606 2072 
Q 1550 2072 1492 2070 
Q 1434 2069 1375 2066 
L 1375 2563 
Q 1463 2553 1522 2550 
Q 1581 2547 1650 2547 
Q 1966 2547 2169 2647 
Q 2525 2822 2525 3272 
Q 2525 3606 2287 3787 
Q 2050 3969 1734 3969 
Q 1172 3969 956 3594 
Q 838 3388 822 3006 
L 266 3006 
Q 266 3506 466 3856 
Q 809 4481 1675 4481 
Q 2359 4481 2734 4176 
Q 3109 3872 3109 3294 
Q 3109 2881 2888 2625 
Q 2750 2466 2531 2375 
Q 2884 2278 3082 2001 
Q 3281 1725 3281 1325 
Q 3281 684 2859 281 
Q 2438 -122 1663 -122 
z
" transform="scale(0.015625)"/>
       </defs>
       <use xlink:href="#Helvetica-33"/>
       <use xlink:href="#Helvetica-30" x="55.615234"/>
       <use xlink:href="#Helvetica-30" x="111.230469"/>
      </g>
     </g>
    </g>
    <g id="ytick_5">
     <g id="line2d_5">
      <g>
       <use xlink:href="#md408270aea" x="10.005084" y="30.487997" style="fill: #777777; stroke: #777777; stroke-width: 0.5"/>
      </g>
     </g>
     <g id="text_8">
      <!-- 400 -->
      <g style="fill: #333333" transform="translate(3.00024 31.564012) scale(0.03 -0.03)">
       <defs>
        <path id="Helvetica-34" d="M 2116 1584 
L 2116 3613 
L 681 1584 
L 2116 1584 
z
M 2125 0 
L 2125 1094 
L 163 1094 
L 163 1644 
L 2213 4488 
L 2688 4488 
L 2688 1584 
L 3347 1584 
L 3347 1094 
L 2688 1094 
L 2688 0 
L 2125 0 
z
" transform="scale(0.015625)"/>
       </defs>
       <use xlink:href="#Helvetica-34"/>
       <use xlink:href="#Helvetica-30" x="55.615234"/>
       <use xlink:href="#Helvetica-30" x="111.230469"/>
      </g>
     </g>
    </g>
    <g id="ytick_6">
     <g id="line2d_6">
      <g>
       <use xlink:href="#md408270aea" x="10.005084" y="21.684083" style="fill: #777777; stroke: #777777; stroke-width: 0.5"/>
      </g>
     </g>
     <g id="text_9">
      <!-- 500 -->
      <g style="fill: #333333" transform="translate(3.00024 22.760099) scale(0.03 -0.03)">
       <defs>
        <path id="Helvetica-35" d="M 791 1141 
Q 847 659 1238 475 
Q 1438 381 1700 381 
Q 2200 381 2440 700 
Q 2681 1019 2681 1406 
Q 2681 1875 2395 2131 
Q 2109 2388 1709 2388 
Q 1419 2388 1211 2275 
Q 1003 2163 856 1963 
L 369 1991 
L 709 4400 
L 3034 4400 
L 3034 3856 
L 1131 3856 
L 941 2613 
Q 1097 2731 1238 2791 
Q 1488 2894 1816 2894 
Q 2431 2894 2859 2497 
Q 3288 2100 3288 1491 
Q 3288 856 2895 371 
Q 2503 -113 1644 -113 
Q 1097 -113 676 195 
Q 256 503 206 1141 
L 791 1141 
z
" transform="scale(0.015625)"/>
       </defs>
       <use xlink:href="#Helvetica-35"/>
       <use xlink:href="#Helvetica-30" x="55.615234"/>
       <use xlink:href="#Helvetica-30" x="111.230469"/>
      </g>
     </g>
    </g>
    <g id="ytick_7">
     <g id="line2d_7">
      <g>
       <use xlink:href="#md408270aea" x="10.005084" y="12.880169" style="fill: #777777; stroke: #777777; stroke-width: 0.5"/>
      </g>
     </g>
     <g id="text_10">
      <!-- 600 -->
      <g style="fill: #333333" transform="translate(3.00024 13.956185) scale(0.03 -0.03)">
       <defs>
        <path id="Helvetica-36" d="M 1872 4494 
Q 2622 4494 2917 4105 
Q 3213 3716 3213 3303 
L 2656 3303 
Q 2606 3569 2497 3719 
Q 2294 4000 1881 4000 
Q 1409 4000 1131 3564 
Q 853 3128 822 2316 
Q 1016 2600 1309 2741 
Q 1578 2866 1909 2866 
Q 2472 2866 2890 2506 
Q 3309 2147 3309 1434 
Q 3309 825 2912 354 
Q 2516 -116 1781 -116 
Q 1153 -116 697 361 
Q 241 838 241 1966 
Q 241 2800 444 3381 
Q 834 4494 1872 4494 
z
M 1831 384 
Q 2275 384 2495 682 
Q 2716 981 2716 1388 
Q 2716 1731 2519 2042 
Q 2322 2353 1803 2353 
Q 1441 2353 1167 2112 
Q 894 1872 894 1388 
Q 894 963 1142 673 
Q 1391 384 1831 384 
z
" transform="scale(0.015625)"/>
       </defs>
       <use xlink:href="#Helvetica-36"/>
       <use xlink:href="#Helvetica-30" x="55.615234"/>
       <use xlink:href="#Helvetica-30" x="111.230469"/>
      </g>
     </g>
    </g>
    <g id="ytick_8">
     <g id="line2d_8">
      <g>
       <use xlink:href="#md408270aea" x="10.005084" y="4.076256" style="fill: #777777; stroke: #777777; stroke-width: 0.5"/>
      </g>
     </g>
     <g id="text_11">
      <!-- 700 -->
      <g style="fill: #333333" transform="translate(3.00024 5.152271) scale(0.03 -0.03)">
       <defs>
        <path id="Helvetica-37" d="M 3347 4400 
L 3347 3909 
Q 3131 3700 2773 3181 
Q 2416 2663 2141 2063 
Q 1869 1478 1728 997 
Q 1638 688 1494 0 
L 872 0 
Q 1084 1281 1809 2550 
Q 2238 3294 2709 3834 
L 234 3834 
L 234 4400 
L 3347 4400 
z
" transform="scale(0.015625)"/>
       </defs>
       <use xlink:href="#Helvetica-37"/>
       <use xlink:href="#Helvetica-30" x="55.615234"/>
       <use xlink:href="#Helvetica-30" x="111.230469"/>
      </g>
     </g>
    </g>
   </g>
   <g id="PolyCollection_1">
    <defs>
     <path id="m304a17d247" d="M 47.673894 -18.490874 
L 44.29095 -18.490874 
L 43.949829 -18.547584 
L 43.565181 -18.604293 
L 43.137463 -18.661003 
L 42.668658 -18.717713 
L 42.162455 -18.774422 
L 41.624355 -18.831132 
L 41.061695 -18.887842 
L 40.483567 -18.944552 
L 39.900622 -19.001261 
L 39.324763 -19.057971 
L 38.768718 -19.114681 
L 38.24553 -19.17139 
L 37.767966 -19.2281 
L 37.347891 -19.28481 
L 36.995643 -19.341519 
L 36.719452 -19.398229 
L 36.524947 -19.454939 
L 36.414789 -19.511649 
L 36.388465 -19.568358 
L 36.442265 -19.625068 
L 36.569449 -19.681778 
L 36.760606 -19.738487 
L 37.00418 -19.795197 
L 37.287128 -19.851907 
L 37.595679 -19.908616 
L 37.916124 -19.965326 
L 38.235593 -20.022036 
L 38.542769 -20.078746 
L 38.828472 -20.135455 
L 39.086089 -20.192165 
L 39.311817 -20.248875 
L 39.504702 -20.305584 
L 39.66648 -20.362294 
L 39.80124 -20.419004 
L 39.914936 -20.475713 
L 40.014784 -20.532423 
L 40.108608 -20.589133 
L 40.204174 -20.645843 
L 40.30856 -20.702552 
L 40.427619 -20.759262 
L 40.565562 -20.815972 
L 40.724688 -20.872681 
L 40.905272 -20.929391 
L 41.10562 -20.986101 
L 41.322262 -21.04281 
L 41.550278 -21.09952 
L 41.783706 -21.15623 
L 42.016019 -21.21294 
L 42.240612 -21.269649 
L 42.451272 -21.326359 
L 42.642601 -21.383069 
L 42.810349 -21.439778 
L 42.951661 -21.496488 
L 43.065199 -21.553198 
L 43.151164 -21.609907 
L 43.211195 -21.666617 
L 43.248182 -21.723327 
L 43.265997 -21.780037 
L 43.269166 -21.836746 
L 43.262521 -21.893456 
L 43.250839 -21.950166 
L 43.238507 -22.006875 
L 43.229237 -22.063585 
L 43.225842 -22.120295 
L 43.230094 -22.177004 
L 43.242663 -22.233714 
L 43.26316 -22.290424 
L 43.290244 -22.347134 
L 43.321822 -22.403843 
L 43.355284 -22.460553 
L 43.387793 -22.517263 
L 43.416572 -22.573972 
L 43.439188 -22.630682 
L 43.453798 -22.687392 
L 43.459344 -22.744101 
L 43.455675 -22.800811 
L 43.443605 -22.857521 
L 43.42487 -22.914231 
L 43.402031 -22.97094 
L 43.378295 -23.02765 
L 43.357295 -23.08436 
L 43.342832 -23.141069 
L 43.338606 -23.197779 
L 43.347964 -23.254489 
L 43.373668 -23.311198 
L 43.417715 -23.367908 
L 43.481217 -23.424618 
L 43.56434 -23.481328 
L 43.666315 -23.538037 
L 43.785508 -23.594747 
L 43.919543 -23.651457 
L 44.065467 -23.708166 
L 44.219942 -23.764876 
L 44.379438 -23.821586 
L 44.540433 -23.878295 
L 44.699585 -23.935005 
L 44.853882 -23.991715 
L 45.000748 -24.048425 
L 45.138122 -24.105134 
L 46.826722 -24.105134 
L 46.826722 -24.105134 
L 46.964096 -24.048425 
L 47.110962 -23.991715 
L 47.265259 -23.935005 
L 47.424411 -23.878295 
L 47.585406 -23.821586 
L 47.744902 -23.764876 
L 47.899376 -23.708166 
L 48.045301 -23.651457 
L 48.179336 -23.594747 
L 48.298529 -23.538037 
L 48.400504 -23.481328 
L 48.483627 -23.424618 
L 48.547129 -23.367908 
L 48.591176 -23.311198 
L 48.61688 -23.254489 
L 48.626238 -23.197779 
L 48.622012 -23.141069 
L 48.607549 -23.08436 
L 48.586549 -23.02765 
L 48.562813 -22.97094 
L 48.539974 -22.914231 
L 48.521239 -22.857521 
L 48.509168 -22.800811 
L 48.5055 -22.744101 
L 48.511045 -22.687392 
L 48.525655 -22.630682 
L 48.548272 -22.573972 
L 48.577051 -22.517263 
L 48.60956 -22.460553 
L 48.643022 -22.403843 
L 48.674599 -22.347134 
L 48.701684 -22.290424 
L 48.72218 -22.233714 
L 48.73475 -22.177004 
L 48.739001 -22.120295 
L 48.735607 -22.063585 
L 48.726337 -22.006875 
L 48.714005 -21.950166 
L 48.702323 -21.893456 
L 48.695678 -21.836746 
L 48.698847 -21.780037 
L 48.716661 -21.723327 
L 48.753648 -21.666617 
L 48.813679 -21.609907 
L 48.899644 -21.553198 
L 49.013183 -21.496488 
L 49.154495 -21.439778 
L 49.322243 -21.383069 
L 49.513572 -21.326359 
L 49.724232 -21.269649 
L 49.948825 -21.21294 
L 50.181138 -21.15623 
L 50.414566 -21.09952 
L 50.642581 -21.04281 
L 50.859224 -20.986101 
L 51.059572 -20.929391 
L 51.240156 -20.872681 
L 51.399281 -20.815972 
L 51.537225 -20.759262 
L 51.656284 -20.702552 
L 51.760669 -20.645843 
L 51.856235 -20.589133 
L 51.95006 -20.532423 
L 52.049908 -20.475713 
L 52.163603 -20.419004 
L 52.298364 -20.362294 
L 52.460142 -20.305584 
L 52.653027 -20.248875 
L 52.878755 -20.192165 
L 53.136372 -20.135455 
L 53.422075 -20.078746 
L 53.729251 -20.022036 
L 54.04872 -19.965326 
L 54.369164 -19.908616 
L 54.677716 -19.851907 
L 54.960664 -19.795197 
L 55.204238 -19.738487 
L 55.395395 -19.681778 
L 55.522579 -19.625068 
L 55.576379 -19.568358 
L 55.550055 -19.511649 
L 55.439897 -19.454939 
L 55.245392 -19.398229 
L 54.969201 -19.341519 
L 54.616953 -19.28481 
L 54.196878 -19.2281 
L 53.719314 -19.17139 
L 53.196126 -19.114681 
L 52.640081 -19.057971 
L 52.064221 -19.001261 
L 51.481277 -18.944552 
L 50.903149 -18.887842 
L 50.340489 -18.831132 
L 49.802389 -18.774422 
L 49.296186 -18.717713 
L 48.827381 -18.661003 
L 48.399662 -18.604293 
L 48.015015 -18.547584 
L 47.673894 -18.490874 
z
" style="stroke: #6f6f6f; stroke-width: 0.15"/>
    </defs>
    <g clip-path="url(#p76f1273c49)">
     <use xlink:href="#m304a17d247" x="0" y="84.96" style="fill: #f2aba8; stroke: #6f6f6f; stroke-width: 0.15"/>
    </g>
   </g>
   <g id="PolyCollection_2">
    <defs>
     <path id="md6678fcd4f" d="M 73.323902 -19.179795 
L 66.610726 -19.179795 
L 66.064375 -19.185498 
L 65.481748 -19.191202 
L 64.871957 -19.196905 
L 64.246422 -19.202608 
L 63.618615 -19.208312 
L 63.003655 -19.214015 
L 62.417746 -19.219719 
L 61.877501 -19.225422 
L 61.399171 -19.231125 
L 60.997844 -19.236829 
L 60.686659 -19.242532 
L 60.476089 -19.248236 
L 60.373357 -19.253939 
L 60.382028 -19.259643 
L 60.501801 -19.265346 
L 60.728524 -19.271049 
L 61.054438 -19.276753 
L 61.468616 -19.282456 
L 61.957567 -19.28816 
L 62.505972 -19.293863 
L 63.097468 -19.299566 
L 63.715461 -19.30527 
L 64.343869 -19.310973 
L 64.967799 -19.316677 
L 65.574072 -19.32238 
L 66.151614 -19.328083 
L 66.691682 -19.333787 
L 67.187935 -19.33949 
L 67.636367 -19.345194 
L 68.035129 -19.350897 
L 68.384256 -19.3566 
L 68.685347 -19.362304 
L 68.941216 -19.368007 
L 69.155545 -19.373711 
L 69.332556 -19.379414 
L 69.476727 -19.385117 
L 69.592552 -19.390821 
L 69.684352 -19.396524 
L 69.756142 -19.402228 
L 69.811544 -19.407931 
L 69.853741 -19.413634 
L 69.88546 -19.419338 
L 69.908994 -19.425041 
L 69.926225 -19.430745 
L 69.938671 -19.436448 
L 69.947531 -19.442151 
L 69.953734 -19.447855 
L 69.957984 -19.453558 
L 69.9608 -19.459262 
L 69.962554 -19.464965 
L 69.963497 -19.470669 
L 69.963781 -19.476372 
L 69.963478 -19.482075 
L 69.96259 -19.487779 
L 69.961053 -19.493482 
L 69.958743 -19.499186 
L 69.955476 -19.504889 
L 69.951003 -19.510592 
L 69.94501 -19.516296 
L 69.937117 -19.521999 
L 69.926873 -19.527703 
L 69.913767 -19.533406 
L 69.897225 -19.539109 
L 69.876631 -19.544813 
L 69.851345 -19.550516 
L 69.820728 -19.55622 
L 69.784175 -19.561923 
L 69.741163 -19.567626 
L 69.691287 -19.57333 
L 69.634321 -19.579033 
L 69.57026 -19.584737 
L 69.499367 -19.59044 
L 69.422214 -19.596143 
L 69.339708 -19.601847 
L 69.253098 -19.60755 
L 69.163965 -19.613254 
L 69.074192 -19.618957 
L 68.985907 -19.62466 
L 68.901408 -19.630364 
L 68.823064 -19.636067 
L 68.753214 -19.641771 
L 68.694046 -19.647474 
L 68.647487 -19.653178 
L 68.615098 -19.658881 
L 68.597987 -19.664584 
L 68.596749 -19.670288 
L 68.611425 -19.675991 
L 68.641506 -19.681695 
L 68.685961 -19.687398 
L 68.743293 -19.693101 
L 68.811626 -19.698805 
L 68.888804 -19.704508 
L 68.972506 -19.710212 
L 69.060357 -19.715915 
L 69.150044 -19.721618 
L 69.239406 -19.727322 
L 69.326519 -19.733025 
L 69.409751 -19.738729 
L 69.487801 -19.744432 
L 70.446827 -19.744432 
L 70.446827 -19.744432 
L 70.524877 -19.738729 
L 70.608109 -19.733025 
L 70.695222 -19.727322 
L 70.784584 -19.721618 
L 70.874271 -19.715915 
L 70.962122 -19.710212 
L 71.045824 -19.704508 
L 71.123002 -19.698805 
L 71.191334 -19.693101 
L 71.248667 -19.687398 
L 71.293122 -19.681695 
L 71.323203 -19.675991 
L 71.337879 -19.670288 
L 71.33664 -19.664584 
L 71.31953 -19.658881 
L 71.287141 -19.653178 
L 71.240582 -19.647474 
L 71.181414 -19.641771 
L 71.111563 -19.636067 
L 71.03322 -19.630364 
L 70.94872 -19.62466 
L 70.860436 -19.618957 
L 70.770663 -19.613254 
L 70.68153 -19.60755 
L 70.59492 -19.601847 
L 70.512414 -19.596143 
L 70.435261 -19.59044 
L 70.364368 -19.584737 
L 70.300306 -19.579033 
L 70.243341 -19.57333 
L 70.193465 -19.567626 
L 70.150453 -19.561923 
L 70.1139 -19.55622 
L 70.083283 -19.550516 
L 70.057997 -19.544813 
L 70.037403 -19.539109 
L 70.020861 -19.533406 
L 70.007754 -19.527703 
L 69.997511 -19.521999 
L 69.989618 -19.516296 
L 69.983625 -19.510592 
L 69.979152 -19.504889 
L 69.975885 -19.499186 
L 69.973575 -19.493482 
L 69.972038 -19.487779 
L 69.97115 -19.482075 
L 69.970847 -19.476372 
L 69.971131 -19.470669 
L 69.972074 -19.464965 
L 69.973828 -19.459262 
L 69.976644 -19.453558 
L 69.980894 -19.447855 
L 69.987096 -19.442151 
L 69.995957 -19.436448 
L 70.008403 -19.430745 
L 70.025634 -19.425041 
L 70.049168 -19.419338 
L 70.080887 -19.413634 
L 70.123084 -19.407931 
L 70.178486 -19.402228 
L 70.250276 -19.396524 
L 70.342076 -19.390821 
L 70.4579 -19.385117 
L 70.602072 -19.379414 
L 70.779083 -19.373711 
L 70.993412 -19.368007 
L 71.249281 -19.362304 
L 71.550372 -19.3566 
L 71.899499 -19.350897 
L 72.298261 -19.345194 
L 72.746693 -19.33949 
L 73.242946 -19.333787 
L 73.783014 -19.328083 
L 74.360556 -19.32238 
L 74.966829 -19.316677 
L 75.590759 -19.310973 
L 76.219167 -19.30527 
L 76.837159 -19.299566 
L 77.428656 -19.293863 
L 77.977061 -19.28816 
L 78.466012 -19.282456 
L 78.88019 -19.276753 
L 79.206104 -19.271049 
L 79.432827 -19.265346 
L 79.5526 -19.259643 
L 79.561271 -19.253939 
L 79.458539 -19.248236 
L 79.247969 -19.242532 
L 78.936783 -19.236829 
L 78.535457 -19.231125 
L 78.057127 -19.225422 
L 77.516882 -19.219719 
L 76.930973 -19.214015 
L 76.316013 -19.208312 
L 75.688206 -19.202608 
L 75.062671 -19.196905 
L 74.45288 -19.191202 
L 73.870253 -19.185498 
L 73.323902 -19.179795 
z
" style="stroke: #6f6f6f; stroke-width: 0.15"/>
    </defs>
    <g clip-path="url(#p76f1273c49)">
     <use xlink:href="#md6678fcd4f" x="0" y="84.96" style="fill: #d3c4f6; stroke: #6f6f6f; stroke-width: 0.15"/>
    </g>
   </g>
   <g id="line2d_9">
    <path d="M 12.403573 65.703651 
L 31.591487 65.703651 
" clip-path="url(#p76f1273c49)" style="fill: none; stroke: #6f6f6f; stroke-width: 0.15; stroke-linecap: round"/>
   </g>
   <g id="line2d_10">
    <path d="M 45.982422 65.703651 
L 45.982422 61.620341 
" clip-path="url(#p76f1273c49)" style="fill: none; stroke: #8c8c8c; stroke-width: 0.75; stroke-linecap: round"/>
   </g>
   <g id="line2d_11">
    <path d="M 45.982422 65.370595 
L 45.982422 63.84881 
" clip-path="url(#p76f1273c49)" style="fill: none; stroke: #8c8c8c; stroke-width: 4; stroke-linecap: round"/>
   </g>
   <g id="line2d_12">
    <path d="M 45.982422 64.769467 
" clip-path="url(#p76f1273c49)" style="fill: none; stroke: #6f6f6f; stroke-width: 1.2; stroke-linecap: round"/>
    <defs>
     <path id="mfee224b756" d="M 0 0.833333 
C 0.221003 0.833333 0.432983 0.745528 0.589256 0.589256 
C 0.745528 0.432983 0.833333 0.221003 0.833333 0 
C 0.833333 -0.221003 0.745528 -0.432983 0.589256 -0.589256 
C 0.432983 -0.745528 0.221003 -0.833333 0 -0.833333 
C -0.221003 -0.833333 -0.432983 -0.745528 -0.589256 -0.589256 
C -0.745528 -0.432983 -0.833333 -0.221003 -0.833333 0 
C -0.833333 0.221003 -0.745528 0.432983 -0.589256 0.589256 
C -0.432983 0.745528 -0.221003 0.833333 0 0.833333 
z
" style="stroke: #ffffff; stroke-width: 0.8"/>
    </defs>
    <g clip-path="url(#p76f1273c49)">
     <use xlink:href="#mfee224b756" x="45.982422" y="64.769467" style="fill: #ffffff; stroke: #ffffff; stroke-width: 0.8"/>
    </g>
   </g>
   <g id="line2d_13">
    <path d="M 69.967314 65.703651 
L 69.967314 65.703651 
" clip-path="url(#p76f1273c49)" style="fill: none; stroke: #8c8c8c; stroke-width: 0.75; stroke-linecap: round"/>
   </g>
   <g id="line2d_14">
    <path d="M 69.967314 65.703651 
L 69.967314 65.703651 
" clip-path="url(#p76f1273c49)" style="fill: none; stroke: #8c8c8c; stroke-width: 4; stroke-linecap: round"/>
   </g>
   <g id="line2d_15">
    <path d="M 69.967314 65.703651 
" clip-path="url(#p76f1273c49)" style="fill: none; stroke: #6f6f6f; stroke-width: 1.2; stroke-linecap: round"/>
    <g clip-path="url(#p76f1273c49)">
     <use xlink:href="#mfee224b756" x="69.967314" y="65.703651" style="fill: #ffffff; stroke: #ffffff; stroke-width: 0.8"/>
    </g>
   </g>
   <g id="patch_3">
    <path d="M 10.005084 74.419526 
L 10.005084 4.076256 
" style="fill: none; stroke: #777777; stroke-width: 0.5; stroke-linejoin: miter; stroke-linecap: square"/>
   </g>
   <g id="patch_4">
    <path d="M 10.005084 76.919526 
L 81.95976 76.919526 
" style="fill: none; stroke: #777777; stroke-width: 0.5; stroke-linejoin: miter; stroke-linecap: square"/>
   </g>
  </g>
 </g>
 <defs>
  <clipPath id="p76f1273c49">
   <rect x="10.005084" y="4.076256" width="71.954676" height="70.34327"/>
  </clipPath>
 </defs>
</svg>
