<?xml version="1.0" encoding="utf-8" standalone="no"?>
<!DOCTYPE svg PUBLIC "-//W3C//DTD SVG 1.1//EN"
  "http://www.w3.org/Graphics/SVG/1.1/DTD/svg11.dtd">
<svg xmlns:xlink="http://www.w3.org/1999/xlink" width="56.16pt" height="84.96pt" viewBox="0 0 56.16 84.96" xmlns="http://www.w3.org/2000/svg" version="1.1">
 <metadata>
  <rdf:RDF xmlns:dc="http://purl.org/dc/elements/1.1/" xmlns:cc="http://creativecommons.org/ns#" xmlns:rdf="http://www.w3.org/1999/02/22-rdf-syntax-ns#">
   <cc:Work>
    <dc:type rdf:resource="http://purl.org/dc/dcmitype/StillImage"/>
    <dc:date>2024-05-27T15:36:59.953000</dc:date>
    <dc:format>image/svg+xml</dc:format>
    <dc:creator>
     <cc:Agent>
      <dc:title>Matplotlib v3.8.3, https://matplotlib.org/</dc:title>
     </cc:Agent>
    </dc:creator>
   </cc:Work>
  </rdf:RDF>
 </metadata>
 <defs>
  <style type="text/css">*{stroke-linejoin: round; stroke-linecap: butt}</style>
 </defs>
 <g id="figure_1">
  <g id="patch_1">
   <path d="M 0 84.96 
L 56.16 84.96 
L 56.16 0 
L 0 0 
z
" style="fill: #ffffff"/>
  </g>
  <g id="axes_1">
   <g id="patch_2">
    <path d="M 10.005084 74.395463 
L 53.15976 74.395463 
L 53.15976 4.076256 
L 10.005084 4.076256 
z
" style="fill: #ffffff"/>
   </g>
   <g id="matplotlib.axis_1">
    <g id="xtick_1">
     <g id="text_1">
      <!-- RORγT+ Cells -->
      <g style="fill: #333333" transform="translate(9.464964 81.230229) scale(0.035 -0.035)">
       <defs>
        <path id="Helvetica-52" d="M 2622 2488 
Q 3059 2488 3314 2663 
Q 3569 2838 3569 3294 
Q 3569 3784 3213 3963 
Q 3022 4056 2703 4056 
L 1184 4056 
L 1184 2488 
L 2622 2488 
z
M 563 4591 
L 2688 4591 
Q 3213 4591 3553 4438 
Q 4200 4144 4200 3353 
Q 4200 2941 4029 2678 
Q 3859 2416 3553 2256 
Q 3822 2147 3958 1969 
Q 4094 1791 4109 1391 
L 4131 775 
Q 4141 513 4175 384 
Q 4231 166 4375 103 
L 4375 0 
L 3613 0 
Q 3581 59 3562 153 
Q 3544 247 3531 516 
L 3494 1281 
Q 3472 1731 3159 1884 
Q 2981 1969 2600 1969 
L 1184 1969 
L 1184 0 
L 563 0 
L 563 4591 
z
" transform="scale(0.015625)"/>
        <path id="Helvetica-4f" d="M 2469 4716 
Q 3684 4716 4269 3934 
Q 4725 3325 4725 2375 
Q 4725 1347 4203 666 
Q 3591 -134 2456 -134 
Q 1397 -134 791 566 
Q 250 1241 250 2272 
Q 250 3203 713 3866 
Q 1306 4716 2469 4716 
z
M 2531 422 
Q 3353 422 3720 1011 
Q 4088 1600 4088 2366 
Q 4088 3175 3664 3669 
Q 3241 4163 2506 4163 
Q 1794 4163 1344 3673 
Q 894 3184 894 2231 
Q 894 1469 1280 945 
Q 1666 422 2531 422 
z
M 2488 4716 
L 2488 4716 
z
" transform="scale(0.015625)"/>
        <path id="Helvetica-3b3" d="M 1556 225 
L 581 2444 
Q 481 2700 416 2803 
Q 347 2894 244 2894 
Q 91 2888 56 2872 
L 56 3334 
Q 166 3384 313 3391 
Q 641 3391 788 3250 
Q 863 3188 922 3078 
Q 978 2963 1038 2809 
L 1844 878 
L 2828 3328 
L 3431 3328 
L 2131 225 
L 2131 -1253 
L 1556 -1253 
L 1556 225 
z
" transform="scale(0.015625)"/>
        <path id="Helvetica-54" d="M 3828 4591 
L 3828 4044 
L 2281 4044 
L 2281 0 
L 1650 0 
L 1650 4044 
L 103 4044 
L 103 4591 
L 3828 4591 
z
" transform="scale(0.015625)"/>
        <path id="Helvetica-2b" d="M 288 1369 
L 288 1894 
L 1650 1894 
L 1650 3266 
L 2184 3266 
L 2184 1894 
L 3547 1894 
L 3547 1369 
L 2184 1369 
L 2184 0 
L 1650 0 
L 1650 1369 
L 288 1369 
z
" transform="scale(0.015625)"/>
        <path id="Helvetica-20" transform="scale(0.015625)"/>
        <path id="Helvetica-43" d="M 2422 4716 
Q 3294 4716 3775 4256 
Q 4256 3797 4309 3213 
L 3703 3213 
Q 3600 3656 3292 3915 
Q 2984 4175 2428 4175 
Q 1750 4175 1333 3698 
Q 916 3222 916 2238 
Q 916 1431 1292 929 
Q 1669 428 2416 428 
Q 3103 428 3463 956 
Q 3653 1234 3747 1688 
L 4353 1688 
Q 4272 963 3816 472 
Q 3269 -119 2341 -119 
Q 1541 -119 997 366 
Q 281 1006 281 2344 
Q 281 3359 819 4009 
Q 1400 4716 2422 4716 
z
M 2297 4716 
L 2297 4716 
z
" transform="scale(0.015625)"/>
        <path id="Helvetica-65" d="M 1806 3422 
Q 2163 3422 2497 3255 
Q 2831 3088 3006 2822 
Q 3175 2569 3231 2231 
Q 3281 2000 3281 1494 
L 828 1494 
Q 844 984 1069 676 
Q 1294 369 1766 369 
Q 2206 369 2469 659 
Q 2619 828 2681 1050 
L 3234 1050 
Q 3213 866 3089 639 
Q 2966 413 2813 269 
Q 2556 19 2178 -69 
Q 1975 -119 1719 -119 
Q 1094 -119 659 336 
Q 225 791 225 1609 
Q 225 2416 662 2919 
Q 1100 3422 1806 3422 
z
M 2703 1941 
Q 2669 2306 2544 2525 
Q 2313 2931 1772 2931 
Q 1384 2931 1121 2651 
Q 859 2372 844 1941 
L 2703 1941 
z
M 1753 3428 
L 1753 3428 
z
" transform="scale(0.015625)"/>
        <path id="Helvetica-6c" d="M 428 4591 
L 991 4591 
L 991 0 
L 428 0 
L 428 4591 
z
" transform="scale(0.015625)"/>
        <path id="Helvetica-73" d="M 747 1050 
Q 772 769 888 619 
Q 1100 347 1625 347 
Q 1938 347 2175 483 
Q 2413 619 2413 903 
Q 2413 1119 2222 1231 
Q 2100 1300 1741 1391 
L 1294 1503 
Q 866 1609 663 1741 
Q 300 1969 300 2372 
Q 300 2847 642 3140 
Q 984 3434 1563 3434 
Q 2319 3434 2653 2991 
Q 2863 2709 2856 2384 
L 2325 2384 
Q 2309 2575 2191 2731 
Q 1997 2953 1519 2953 
Q 1200 2953 1036 2831 
Q 872 2709 872 2509 
Q 872 2291 1088 2159 
Q 1213 2081 1456 2022 
L 1828 1931 
Q 2434 1784 2641 1647 
Q 2969 1431 2969 969 
Q 2969 522 2630 197 
Q 2291 -128 1597 -128 
Q 850 -128 539 211 
Q 228 550 206 1050 
L 747 1050 
z
M 1578 3428 
L 1578 3428 
z
" transform="scale(0.015625)"/>
       </defs>
       <use xlink:href="#Helvetica-52"/>
       <use xlink:href="#Helvetica-4f" x="72.216797"/>
       <use xlink:href="#Helvetica-52" x="150"/>
       <use xlink:href="#Helvetica-3b3" x="222.216797"/>
       <use xlink:href="#Helvetica-54" x="277.832031"/>
       <use xlink:href="#Helvetica-2b" x="338.916016"/>
       <use xlink:href="#Helvetica-20" x="397.314453"/>
       <use xlink:href="#Helvetica-43" x="425.097656"/>
       <use xlink:href="#Helvetica-65" x="497.314453"/>
       <use xlink:href="#Helvetica-6c" x="552.929688"/>
       <use xlink:href="#Helvetica-6c" x="575.146484"/>
       <use xlink:href="#Helvetica-73" x="597.363281"/>
      </g>
     </g>
    </g>
    <g id="xtick_2">
     <g id="text_2">
      <!-- AHR+ Cells -->
      <g style="fill: #333333" transform="translate(33.2782 81.206166) scale(0.035 -0.035)">
       <defs>
        <path id="Helvetica-41" d="M 2844 1881 
L 2147 3909 
L 1406 1881 
L 2844 1881 
z
M 1822 4591 
L 2525 4591 
L 4191 0 
L 3509 0 
L 3044 1375 
L 1228 1375 
L 731 0 
L 94 0 
L 1822 4591 
z
" transform="scale(0.015625)"/>
        <path id="Helvetica-48" d="M 503 4591 
L 1131 4591 
L 1131 2694 
L 3519 2694 
L 3519 4591 
L 4147 4591 
L 4147 0 
L 3519 0 
L 3519 2147 
L 1131 2147 
L 1131 0 
L 503 0 
L 503 4591 
z
" transform="scale(0.015625)"/>
       </defs>
       <use xlink:href="#Helvetica-41"/>
       <use xlink:href="#Helvetica-48" x="66.699219"/>
       <use xlink:href="#Helvetica-52" x="138.916016"/>
       <use xlink:href="#Helvetica-2b" x="211.132812"/>
       <use xlink:href="#Helvetica-20" x="269.53125"/>
       <use xlink:href="#Helvetica-43" x="297.314453"/>
       <use xlink:href="#Helvetica-65" x="369.53125"/>
       <use xlink:href="#Helvetica-6c" x="425.146484"/>
       <use xlink:href="#Helvetica-6c" x="447.363281"/>
       <use xlink:href="#Helvetica-73" x="469.580078"/>
      </g>
     </g>
    </g>
   </g>
   <g id="matplotlib.axis_2">
    <g id="ytick_1">
     <g id="line2d_1">
      <defs>
       <path id="mba30b6ccd2" d="M 0 0 
L -1 0 
" style="stroke: #777777; stroke-width: 0.5"/>
      </defs>
      <g>
       <use xlink:href="#mba30b6ccd2" x="10.005084" y="66.168271" style="fill: #777777; stroke: #777777; stroke-width: 0.5"/>
      </g>
     </g>
     <g id="text_3">
      <!-- 0 -->
      <g style="fill: #333333" transform="translate(6.336802 67.244287) scale(0.03 -0.03)">
       <defs>
        <path id="Helvetica-30" d="M 1731 4475 
Q 2600 4475 2988 3759 
Q 3288 3206 3288 2244 
Q 3288 1331 3016 734 
Q 2622 -122 1728 -122 
Q 922 -122 528 578 
Q 200 1163 200 2147 
Q 200 2909 397 3456 
Q 766 4475 1731 4475 
z
M 1725 391 
Q 2163 391 2422 778 
Q 2681 1166 2681 2222 
Q 2681 2984 2493 3476 
Q 2306 3969 1766 3969 
Q 1269 3969 1039 3501 
Q 809 3034 809 2125 
Q 809 1441 956 1025 
Q 1181 391 1725 391 
z
" transform="scale(0.015625)"/>
       </defs>
       <use xlink:href="#Helvetica-30"/>
      </g>
     </g>
    </g>
    <g id="ytick_2">
     <g id="line2d_2">
      <g>
       <use xlink:href="#mba30b6ccd2" x="10.005084" y="55.819602" style="fill: #777777; stroke: #777777; stroke-width: 0.5"/>
      </g>
     </g>
     <g id="text_4">
      <!-- 20 -->
      <g style="fill: #333333" transform="translate(4.668521 56.895617) scale(0.03 -0.03)">
       <defs>
        <path id="Helvetica-32" d="M 200 0 
Q 231 578 439 1006 
Q 647 1434 1250 1784 
L 1850 2131 
Q 2253 2366 2416 2531 
Q 2672 2791 2672 3125 
Q 2672 3516 2437 3745 
Q 2203 3975 1813 3975 
Q 1234 3975 1013 3538 
Q 894 3303 881 2888 
L 309 2888 
Q 319 3472 525 3841 
Q 891 4491 1816 4491 
Q 2584 4491 2939 4075 
Q 3294 3659 3294 3150 
Q 3294 2613 2916 2231 
Q 2697 2009 2131 1694 
L 1703 1456 
Q 1397 1288 1222 1134 
Q 909 863 828 531 
L 3272 531 
L 3272 0 
L 200 0 
z
" transform="scale(0.015625)"/>
       </defs>
       <use xlink:href="#Helvetica-32"/>
       <use xlink:href="#Helvetica-30" x="55.615234"/>
      </g>
     </g>
    </g>
    <g id="ytick_3">
     <g id="line2d_3">
      <g>
       <use xlink:href="#mba30b6ccd2" x="10.005084" y="45.470933" style="fill: #777777; stroke: #777777; stroke-width: 0.5"/>
      </g>
     </g>
     <g id="text_5">
      <!-- 40 -->
      <g style="fill: #333333" transform="translate(4.668521 46.546948) scale(0.03 -0.03)">
       <defs>
        <path id="Helvetica-34" d="M 2116 1584 
L 2116 3613 
L 681 1584 
L 2116 1584 
z
M 2125 0 
L 2125 1094 
L 163 1094 
L 163 1644 
L 2213 4488 
L 2688 4488 
L 2688 1584 
L 3347 1584 
L 3347 1094 
L 2688 1094 
L 2688 0 
L 2125 0 
z
" transform="scale(0.015625)"/>
       </defs>
       <use xlink:href="#Helvetica-34"/>
       <use xlink:href="#Helvetica-30" x="55.615234"/>
      </g>
     </g>
    </g>
    <g id="ytick_4">
     <g id="line2d_4">
      <g>
       <use xlink:href="#mba30b6ccd2" x="10.005084" y="35.122263" style="fill: #777777; stroke: #777777; stroke-width: 0.5"/>
      </g>
     </g>
     <g id="text_6">
      <!-- 60 -->
      <g style="fill: #333333" transform="translate(4.668521 36.198279) scale(0.03 -0.03)">
       <defs>
        <path id="Helvetica-36" d="M 1872 4494 
Q 2622 4494 2917 4105 
Q 3213 3716 3213 3303 
L 2656 3303 
Q 2606 3569 2497 3719 
Q 2294 4000 1881 4000 
Q 1409 4000 1131 3564 
Q 853 3128 822 2316 
Q 1016 2600 1309 2741 
Q 1578 2866 1909 2866 
Q 2472 2866 2890 2506 
Q 3309 2147 3309 1434 
Q 3309 825 2912 354 
Q 2516 -116 1781 -116 
Q 1153 -116 697 361 
Q 241 838 241 1966 
Q 241 2800 444 3381 
Q 834 4494 1872 4494 
z
M 1831 384 
Q 2275 384 2495 682 
Q 2716 981 2716 1388 
Q 2716 1731 2519 2042 
Q 2322 2353 1803 2353 
Q 1441 2353 1167 2112 
Q 894 1872 894 1388 
Q 894 963 1142 673 
Q 1391 384 1831 384 
z
" transform="scale(0.015625)"/>
       </defs>
       <use xlink:href="#Helvetica-36"/>
       <use xlink:href="#Helvetica-30" x="55.615234"/>
      </g>
     </g>
    </g>
    <g id="ytick_5">
     <g id="line2d_5">
      <g>
       <use xlink:href="#mba30b6ccd2" x="10.005084" y="24.773594" style="fill: #777777; stroke: #777777; stroke-width: 0.5"/>
      </g>
     </g>
     <g id="text_7">
      <!-- 80 -->
      <g style="fill: #333333" transform="translate(4.668521 25.84961) scale(0.03 -0.03)">
       <defs>
        <path id="Helvetica-38" d="M 1741 2600 
Q 2113 2600 2322 2808 
Q 2531 3016 2531 3303 
Q 2531 3553 2331 3762 
Q 2131 3972 1722 3972 
Q 1316 3972 1134 3762 
Q 953 3553 953 3272 
Q 953 2956 1187 2778 
Q 1422 2600 1741 2600 
z
M 1775 384 
Q 2166 384 2423 595 
Q 2681 806 2681 1225 
Q 2681 1659 2415 1884 
Q 2150 2109 1734 2109 
Q 1331 2109 1076 1879 
Q 822 1650 822 1244 
Q 822 894 1055 639 
Q 1288 384 1775 384 
z
M 975 2384 
Q 741 2484 609 2619 
Q 363 2869 363 3269 
Q 363 3769 725 4128 
Q 1088 4488 1753 4488 
Q 2397 4488 2762 4148 
Q 3128 3809 3128 3356 
Q 3128 2938 2916 2678 
Q 2797 2531 2547 2391 
Q 2825 2263 2984 2097 
Q 3281 1784 3281 1284 
Q 3281 694 2884 283 
Q 2488 -128 1763 -128 
Q 1109 -128 657 226 
Q 206 581 206 1256 
Q 206 1653 400 1942 
Q 594 2231 975 2384 
z
" transform="scale(0.015625)"/>
       </defs>
       <use xlink:href="#Helvetica-38"/>
       <use xlink:href="#Helvetica-30" x="55.615234"/>
      </g>
     </g>
    </g>
    <g id="ytick_6">
     <g id="line2d_6">
      <g>
       <use xlink:href="#mba30b6ccd2" x="10.005084" y="14.424925" style="fill: #777777; stroke: #777777; stroke-width: 0.5"/>
      </g>
     </g>
     <g id="text_8">
      <!-- 100 -->
      <g style="fill: #333333" transform="translate(3.00024 15.50094) scale(0.03 -0.03)">
       <defs>
        <path id="Helvetica-31" d="M 613 3169 
L 613 3600 
Q 1222 3659 1462 3798 
Q 1703 3938 1822 4456 
L 2266 4456 
L 2266 0 
L 1666 0 
L 1666 3169 
L 613 3169 
z
" transform="scale(0.015625)"/>
       </defs>
       <use xlink:href="#Helvetica-31"/>
       <use xlink:href="#Helvetica-30" x="55.615234"/>
       <use xlink:href="#Helvetica-30" x="111.230469"/>
      </g>
     </g>
    </g>
    <g id="ytick_7">
     <g id="line2d_7">
      <g>
       <use xlink:href="#mba30b6ccd2" x="10.005084" y="4.076256" style="fill: #777777; stroke: #777777; stroke-width: 0.5"/>
      </g>
     </g>
     <g id="text_9">
      <!-- 120 -->
      <g style="fill: #333333" transform="translate(3.00024 5.152271) scale(0.03 -0.03)">
       <use xlink:href="#Helvetica-31"/>
       <use xlink:href="#Helvetica-32" x="55.615234"/>
       <use xlink:href="#Helvetica-30" x="111.230469"/>
      </g>
     </g>
    </g>
   </g>
   <g id="PolyCollection_1">
    <defs>
     <path id="m17d79cb811" d="M 22.014856 -18.702664 
L 19.572649 -18.702664 
L 19.334371 -18.737779 
L 19.068238 -18.772894 
L 18.775004 -18.808009 
L 18.456269 -18.843124 
L 18.114492 -18.878239 
L 17.752943 -18.913354 
L 17.375618 -18.948469 
L 16.987094 -18.983584 
L 16.592352 -19.018699 
L 16.196568 -19.053814 
L 15.804893 -19.088929 
L 15.422232 -19.124044 
L 15.053053 -19.159159 
L 14.701222 -19.194274 
L 14.369894 -19.229389 
L 14.061449 -19.264503 
L 13.777496 -19.299618 
L 13.518912 -19.334733 
L 13.285934 -19.369848 
L 13.078275 -19.404963 
L 12.895243 -19.440078 
L 12.735868 -19.475193 
L 12.599004 -19.510308 
L 12.483413 -19.545423 
L 12.387815 -19.580538 
L 12.310921 -19.615653 
L 12.251444 -19.650768 
L 12.208107 -19.685883 
L 12.179661 -19.720998 
L 12.164921 -19.756113 
L 12.162818 -19.791228 
L 12.17249 -19.826343 
L 12.193387 -19.861458 
L 12.225373 -19.896573 
L 12.268833 -19.931688 
L 12.324734 -19.966802 
L 12.394643 -20.001917 
L 12.480663 -20.037032 
L 12.585305 -20.072147 
L 12.711276 -20.107262 
L 12.861204 -20.142377 
L 13.037315 -20.177492 
L 13.241104 -20.212607 
L 13.473026 -20.247722 
L 13.732242 -20.282837 
L 14.016459 -20.317952 
L 14.321884 -20.353067 
L 14.643313 -20.388182 
L 14.974338 -20.423297 
L 15.307681 -20.458412 
L 15.635616 -20.493527 
L 15.950447 -20.528642 
L 16.245003 -20.563757 
L 16.513103 -20.598872 
L 16.749953 -20.633987 
L 16.952441 -20.669101 
L 17.1193 -20.704216 
L 17.251133 -20.739331 
L 17.35029 -20.774446 
L 17.42062 -20.809561 
L 17.467109 -20.844676 
L 17.495445 -20.879791 
L 17.511547 -20.914906 
L 17.521092 -20.950021 
L 17.529091 -20.985136 
L 17.53954 -21.020251 
L 17.555178 -21.055366 
L 17.577368 -21.090481 
L 17.606118 -21.125596 
L 17.640212 -21.160711 
L 17.677471 -21.195826 
L 17.71508 -21.230941 
L 17.749981 -21.266056 
L 17.779267 -21.301171 
L 17.800564 -21.336286 
L 17.812343 -21.3714 
L 17.81415 -21.406515 
L 17.806729 -21.44163 
L 17.792024 -21.476745 
L 17.773063 -21.51186 
L 17.753747 -21.546975 
L 17.738547 -21.58209 
L 17.732158 -21.617205 
L 17.739122 -21.65232 
L 17.763477 -21.687435 
L 17.808443 -21.72255 
L 17.876182 -21.757665 
L 17.967645 -21.79278 
L 18.082522 -21.827895 
L 18.219281 -21.86301 
L 18.375303 -21.898125 
L 18.547084 -21.93324 
L 18.73049 -21.968355 
L 18.921033 -22.00347 
L 19.114152 -22.038585 
L 19.30547 -22.073699 
L 19.491016 -22.108814 
L 19.667394 -22.143929 
L 19.831892 -22.179044 
L 21.755613 -22.179044 
L 21.755613 -22.179044 
L 21.920111 -22.143929 
L 22.09649 -22.108814 
L 22.282036 -22.073699 
L 22.473354 -22.038585 
L 22.666472 -22.00347 
L 22.857015 -21.968355 
L 23.040421 -21.93324 
L 23.212203 -21.898125 
L 23.368225 -21.86301 
L 23.504984 -21.827895 
L 23.619861 -21.79278 
L 23.711324 -21.757665 
L 23.779063 -21.72255 
L 23.824029 -21.687435 
L 23.848384 -21.65232 
L 23.855348 -21.617205 
L 23.848958 -21.58209 
L 23.833759 -21.546975 
L 23.814443 -21.51186 
L 23.795482 -21.476745 
L 23.780777 -21.44163 
L 23.773356 -21.406515 
L 23.775163 -21.3714 
L 23.786942 -21.336286 
L 23.808238 -21.301171 
L 23.837525 -21.266056 
L 23.872425 -21.230941 
L 23.910035 -21.195826 
L 23.947293 -21.160711 
L 23.981388 -21.125596 
L 24.010137 -21.090481 
L 24.032328 -21.055366 
L 24.047965 -21.020251 
L 24.058414 -20.985136 
L 24.066413 -20.950021 
L 24.075958 -20.914906 
L 24.09206 -20.879791 
L 24.120397 -20.844676 
L 24.166886 -20.809561 
L 24.237216 -20.774446 
L 24.336373 -20.739331 
L 24.468206 -20.704216 
L 24.635065 -20.669101 
L 24.837553 -20.633987 
L 25.074403 -20.598872 
L 25.342502 -20.563757 
L 25.637059 -20.528642 
L 25.95189 -20.493527 
L 26.279825 -20.458412 
L 26.613168 -20.423297 
L 26.944192 -20.388182 
L 27.265621 -20.353067 
L 27.571047 -20.317952 
L 27.855264 -20.282837 
L 28.114479 -20.247722 
L 28.346401 -20.212607 
L 28.550191 -20.177492 
L 28.726302 -20.142377 
L 28.876229 -20.107262 
L 29.002201 -20.072147 
L 29.106843 -20.037032 
L 29.192863 -20.001917 
L 29.262771 -19.966802 
L 29.318673 -19.931688 
L 29.362133 -19.896573 
L 29.394119 -19.861458 
L 29.415015 -19.826343 
L 29.424688 -19.791228 
L 29.422585 -19.756113 
L 29.407844 -19.720998 
L 29.379399 -19.685883 
L 29.336062 -19.650768 
L 29.276585 -19.615653 
L 29.199691 -19.580538 
L 29.104093 -19.545423 
L 28.988502 -19.510308 
L 28.851638 -19.475193 
L 28.692263 -19.440078 
L 28.50923 -19.404963 
L 28.301571 -19.369848 
L 28.068594 -19.334733 
L 27.81001 -19.299618 
L 27.526056 -19.264503 
L 27.217612 -19.229389 
L 26.886284 -19.194274 
L 26.534453 -19.159159 
L 26.165274 -19.124044 
L 25.782613 -19.088929 
L 25.390937 -19.053814 
L 24.995154 -19.018699 
L 24.600412 -18.983584 
L 24.211888 -18.948469 
L 23.834563 -18.913354 
L 23.473014 -18.878239 
L 23.131236 -18.843124 
L 22.812502 -18.808009 
L 22.519267 -18.772894 
L 22.253134 -18.737779 
L 22.014856 -18.702664 
z
" style="stroke: #6f6f6f; stroke-width: 0.15"/>
    </defs>
    <g clip-path="url(#pfa78145918)">
     <use xlink:href="#m17d79cb811" x="0" y="84.96" style="fill: #cfcfcf; stroke: #6f6f6f; stroke-width: 0.15"/>
    </g>
   </g>
   <g id="PolyCollection_2">
    <defs>
     <path id="m7e79722b2e" d="M 43.138543 -18.984523 
L 41.603639 -18.984523 
L 41.456211 -19.297236 
L 41.297768 -19.609949 
L 41.131843 -19.922662 
L 40.962904 -20.235375 
L 40.796187 -20.548088 
L 40.637423 -20.860801 
L 40.492499 -21.173514 
L 40.367044 -21.486227 
L 40.266004 -21.79894 
L 40.193226 -22.111653 
L 40.151093 -22.424365 
L 40.140256 -22.737078 
L 40.159487 -23.049791 
L 40.205664 -23.362504 
L 40.273901 -23.675217 
L 40.357812 -23.98793 
L 40.449877 -24.300643 
L 40.541885 -24.613356 
L 40.625413 -24.926069 
L 40.692301 -25.238782 
L 40.735085 -25.551495 
L 40.747353 -25.864208 
L 40.724011 -26.176921 
L 40.661437 -26.489634 
L 40.557526 -26.802347 
L 40.411631 -27.11506 
L 40.224422 -27.427773 
L 39.997681 -27.740486 
L 39.734072 -28.053198 
L 39.436897 -28.365911 
L 39.109897 -28.678624 
L 38.757091 -28.991337 
L 38.382687 -29.30405 
L 37.991059 -29.616763 
L 37.58679 -29.929476 
L 37.174743 -30.242189 
L 36.760154 -30.554902 
L 36.348685 -30.867615 
L 35.946434 -31.180328 
L 35.55986 -31.493041 
L 35.195621 -31.805754 
L 34.86033 -32.118467 
L 34.560263 -32.43118 
L 34.301044 -32.743893 
L 34.087362 -33.056606 
L 33.922758 -33.369319 
L 33.809514 -33.682032 
L 33.748672 -33.994744 
L 33.740156 -34.307457 
L 33.782994 -34.62017 
L 33.875588 -34.932883 
L 34.015975 -35.245596 
L 34.202045 -35.558309 
L 34.43166 -35.871022 
L 34.702666 -36.183735 
L 35.012788 -36.496448 
L 35.359444 -36.809161 
L 35.739502 -37.121874 
L 36.149045 -37.434587 
L 36.583186 -37.7473 
L 37.035985 -38.060013 
L 37.500473 -38.372726 
L 37.968822 -38.685439 
L 38.432609 -38.998152 
L 38.883181 -39.310865 
L 39.312048 -39.623578 
L 39.711281 -39.93629 
L 40.073864 -40.249003 
L 40.39398 -40.561716 
L 40.667206 -40.874429 
L 40.89062 -41.187142 
L 41.062826 -41.499855 
L 41.183925 -41.812568 
L 41.255442 -42.125281 
L 41.280222 -42.437994 
L 41.262334 -42.750707 
L 41.206947 -43.06342 
L 41.120212 -43.376133 
L 41.009117 -43.688846 
L 40.881305 -44.001559 
L 40.744852 -44.314272 
L 40.607997 -44.626985 
L 40.478817 -44.939698 
L 40.36488 -45.252411 
L 40.272877 -45.565124 
L 40.208286 -45.877836 
L 40.175077 -46.190549 
L 40.175516 -46.503262 
L 40.210067 -46.815975 
L 40.277421 -47.128688 
L 40.374653 -47.441401 
L 40.497486 -47.754114 
L 40.640637 -48.066827 
L 40.798224 -48.37954 
L 40.964174 -48.692253 
L 41.132622 -49.004966 
L 41.298238 -49.317679 
L 41.45649 -49.630392 
L 41.603801 -49.943105 
L 43.13838 -49.943105 
L 43.13838 -49.943105 
L 43.285692 -49.630392 
L 43.443944 -49.317679 
L 43.60956 -49.004966 
L 43.778008 -48.692253 
L 43.943958 -48.37954 
L 44.101545 -48.066827 
L 44.244696 -47.754114 
L 44.367529 -47.441401 
L 44.464761 -47.128688 
L 44.532115 -46.815975 
L 44.566665 -46.503262 
L 44.567105 -46.190549 
L 44.533896 -45.877836 
L 44.469305 -45.565124 
L 44.377302 -45.252411 
L 44.263365 -44.939698 
L 44.134185 -44.626985 
L 43.99733 -44.314272 
L 43.860877 -44.001559 
L 43.733065 -43.688846 
L 43.62197 -43.376133 
L 43.535235 -43.06342 
L 43.479848 -42.750707 
L 43.461959 -42.437994 
L 43.48674 -42.125281 
L 43.558256 -41.812568 
L 43.679356 -41.499855 
L 43.851562 -41.187142 
L 44.074976 -40.874429 
L 44.348202 -40.561716 
L 44.668318 -40.249003 
L 45.030901 -39.93629 
L 45.430134 -39.623578 
L 45.859 -39.310865 
L 46.309573 -38.998152 
L 46.77336 -38.685439 
L 47.241708 -38.372726 
L 47.706197 -38.060013 
L 48.158996 -37.7473 
L 48.593137 -37.434587 
L 49.00268 -37.121874 
L 49.382738 -36.809161 
L 49.729394 -36.496448 
L 50.039516 -36.183735 
L 50.310522 -35.871022 
L 50.540137 -35.558309 
L 50.726207 -35.245596 
L 50.866594 -34.932883 
L 50.959188 -34.62017 
L 51.002026 -34.307457 
L 50.99351 -33.994744 
L 50.932667 -33.682032 
L 50.819424 -33.369319 
L 50.65482 -33.056606 
L 50.441138 -32.743893 
L 50.181919 -32.43118 
L 49.881852 -32.118467 
L 49.546561 -31.805754 
L 49.182321 -31.493041 
L 48.795748 -31.180328 
L 48.393497 -30.867615 
L 47.982028 -30.554902 
L 47.567439 -30.242189 
L 47.155392 -29.929476 
L 46.751123 -29.616763 
L 46.359495 -29.30405 
L 45.985091 -28.991337 
L 45.632285 -28.678624 
L 45.305285 -28.365911 
L 45.00811 -28.053198 
L 44.744501 -27.740486 
L 44.51776 -27.427773 
L 44.330551 -27.11506 
L 44.184656 -26.802347 
L 44.080745 -26.489634 
L 44.018171 -26.176921 
L 43.994829 -25.864208 
L 44.007097 -25.551495 
L 44.049881 -25.238782 
L 44.116769 -24.926069 
L 44.200297 -24.613356 
L 44.292305 -24.300643 
L 44.38437 -23.98793 
L 44.468281 -23.675217 
L 44.536518 -23.362504 
L 44.582695 -23.049791 
L 44.601926 -22.737078 
L 44.591089 -22.424365 
L 44.548956 -22.111653 
L 44.476177 -21.79894 
L 44.375138 -21.486227 
L 44.249683 -21.173514 
L 44.104759 -20.860801 
L 43.945995 -20.548088 
L 43.779278 -20.235375 
L 43.610339 -19.922662 
L 43.444413 -19.609949 
L 43.285971 -19.297236 
L 43.138543 -18.984523 
z
" style="stroke: #6f6f6f; stroke-width: 0.15"/>
    </defs>
    <g clip-path="url(#pfa78145918)">
     <use xlink:href="#m7e79722b2e" x="0" y="84.96" style="fill: #f3f3ae; stroke: #6f6f6f; stroke-width: 0.15"/>
    </g>
   </g>
   <g id="line2d_8">
    <path d="M 20.793753 65.805051 
L 20.793753 63.23324 
" clip-path="url(#pfa78145918)" style="fill: none; stroke: #8c8c8c; stroke-width: 0.75; stroke-linecap: round"/>
   </g>
   <g id="line2d_9">
    <path d="M 20.793753 65.347517 
L 20.793753 64.468803 
" clip-path="url(#pfa78145918)" style="fill: none; stroke: #8c8c8c; stroke-width: 4; stroke-linecap: round"/>
   </g>
   <g id="line2d_10">
    <path d="M 20.793753 64.931845 
" clip-path="url(#pfa78145918)" style="fill: none; stroke: #6f6f6f; stroke-width: 1.2; stroke-linecap: round"/>
    <defs>
     <path id="med20ff8d8f" d="M 0 0.833333 
C 0.221003 0.833333 0.432983 0.745528 0.589256 0.589256 
C 0.745528 0.432983 0.833333 0.221003 0.833333 0 
C 0.833333 -0.221003 0.745528 -0.432983 0.589256 -0.589256 
C 0.432983 -0.745528 0.221003 -0.833333 0 -0.833333 
C -0.221003 -0.833333 -0.432983 -0.745528 -0.589256 -0.589256 
C -0.745528 -0.432983 -0.833333 -0.221003 -0.833333 0 
C -0.833333 0.221003 -0.745528 0.432983 -0.589256 0.589256 
C -0.432983 0.745528 -0.221003 0.833333 0 0.833333 
z
" style="stroke: #ffffff; stroke-width: 0.8"/>
    </defs>
    <g clip-path="url(#pfa78145918)">
     <use xlink:href="#med20ff8d8f" x="20.793753" y="64.931845" style="fill: #ffffff; stroke: #ffffff; stroke-width: 0.8"/>
    </g>
   </g>
   <g id="line2d_11">
    <path d="M 42.371091 55.231292 
L 42.371091 47.492441 
" clip-path="url(#pfa78145918)" style="fill: none; stroke: #8c8c8c; stroke-width: 0.75; stroke-linecap: round"/>
   </g>
   <g id="line2d_12">
    <path d="M 42.371091 53.027846 
L 42.371091 47.965876 
" clip-path="url(#pfa78145918)" style="fill: none; stroke: #8c8c8c; stroke-width: 4; stroke-linecap: round"/>
   </g>
   <g id="line2d_13">
    <path d="M 42.371091 51.148745 
" clip-path="url(#pfa78145918)" style="fill: none; stroke: #6f6f6f; stroke-width: 1.2; stroke-linecap: round"/>
    <g clip-path="url(#pfa78145918)">
     <use xlink:href="#med20ff8d8f" x="42.371091" y="51.148745" style="fill: #ffffff; stroke: #ffffff; stroke-width: 0.8"/>
    </g>
   </g>
   <g id="patch_3">
    <path d="M 10.005084 74.395463 
L 10.005084 4.076256 
" style="fill: none; stroke: #777777; stroke-width: 0.5; stroke-linejoin: miter; stroke-linecap: square"/>
   </g>
   <g id="patch_4">
    <path d="M 10.005084 76.895463 
L 53.15976 76.895463 
" style="fill: none; stroke: #777777; stroke-width: 0.5; stroke-linejoin: miter; stroke-linecap: square"/>
   </g>
  </g>
 </g>
 <defs>
  <clipPath id="pfa78145918">
   <rect x="10.005084" y="4.076256" width="43.154676" height="70.319207"/>
  </clipPath>
 </defs>
</svg>
