<?xml version="1.0" encoding="utf-8" standalone="no"?>
<!DOCTYPE svg PUBLIC "-//W3C//DTD SVG 1.1//EN"
  "http://www.w3.org/Graphics/SVG/1.1/DTD/svg11.dtd">
<svg xmlns:xlink="http://www.w3.org/1999/xlink" width="56.16pt" height="84.96pt" viewBox="0 0 56.16 84.96" xmlns="http://www.w3.org/2000/svg" version="1.1">
 <metadata>
  <rdf:RDF xmlns:dc="http://purl.org/dc/elements/1.1/" xmlns:cc="http://creativecommons.org/ns#" xmlns:rdf="http://www.w3.org/1999/02/22-rdf-syntax-ns#">
   <cc:Work>
    <dc:type rdf:resource="http://purl.org/dc/dcmitype/StillImage"/>
    <dc:date>2024-05-27T15:37:13.857119</dc:date>
    <dc:format>image/svg+xml</dc:format>
    <dc:creator>
     <cc:Agent>
      <dc:title>Matplotlib v3.8.3, https://matplotlib.org/</dc:title>
     </cc:Agent>
    </dc:creator>
   </cc:Work>
  </rdf:RDF>
 </metadata>
 <defs>
  <style type="text/css">*{stroke-linejoin: round; stroke-linecap: butt}</style>
 </defs>
 <g id="figure_1">
  <g id="patch_1">
   <path d="M 0 84.96 
L 56.16 84.96 
L 56.16 0 
L 0 0 
z
" style="fill: #ffffff"/>
  </g>
  <g id="axes_1">
   <g id="patch_2">
    <path d="M 13.341646 74.419526 
L 53.15976 74.419526 
L 53.15976 4.076256 
L 13.341646 4.076256 
z
" style="fill: #ffffff"/>
   </g>
   <g id="matplotlib.axis_1">
    <g id="xtick_1">
     <g id="text_1">
      <!-- T -->
      <g style="fill: #333333" transform="translate(22.227307 81.230229) scale(0.035 -0.035)">
       <defs>
        <path id="Helvetica-54" d="M 3828 4591 
L 3828 4044 
L 2281 4044 
L 2281 0 
L 1650 0 
L 1650 4044 
L 103 4044 
L 103 4591 
L 3828 4591 
z
" transform="scale(0.015625)"/>
       </defs>
       <use xlink:href="#Helvetica-54"/>
      </g>
     </g>
    </g>
    <g id="xtick_2">
     <g id="text_2">
      <!-- IL7R Non T -->
      <g style="fill: #333333" transform="translate(34.257536 81.230229) scale(0.035 -0.035)">
       <defs>
        <path id="Helvetica-49" d="M 628 4591 
L 1256 4591 
L 1256 0 
L 628 0 
L 628 4591 
z
" transform="scale(0.015625)"/>
        <path id="Helvetica-4c" d="M 488 4591 
L 1109 4591 
L 1109 547 
L 3434 547 
L 3434 0 
L 488 0 
L 488 4591 
z
" transform="scale(0.015625)"/>
        <path id="Helvetica-37" d="M 3347 4400 
L 3347 3909 
Q 3131 3700 2773 3181 
Q 2416 2663 2141 2063 
Q 1869 1478 1728 997 
Q 1638 688 1494 0 
L 872 0 
Q 1084 1281 1809 2550 
Q 2238 3294 2709 3834 
L 234 3834 
L 234 4400 
L 3347 4400 
z
" transform="scale(0.015625)"/>
        <path id="Helvetica-52" d="M 2622 2488 
Q 3059 2488 3314 2663 
Q 3569 2838 3569 3294 
Q 3569 3784 3213 3963 
Q 3022 4056 2703 4056 
L 1184 4056 
L 1184 2488 
L 2622 2488 
z
M 563 4591 
L 2688 4591 
Q 3213 4591 3553 4438 
Q 4200 4144 4200 3353 
Q 4200 2941 4029 2678 
Q 3859 2416 3553 2256 
Q 3822 2147 3958 1969 
Q 4094 1791 4109 1391 
L 4131 775 
Q 4141 513 4175 384 
Q 4231 166 4375 103 
L 4375 0 
L 3613 0 
Q 3581 59 3562 153 
Q 3544 247 3531 516 
L 3494 1281 
Q 3472 1731 3159 1884 
Q 2981 1969 2600 1969 
L 1184 1969 
L 1184 0 
L 563 0 
L 563 4591 
z
" transform="scale(0.015625)"/>
        <path id="Helvetica-20" transform="scale(0.015625)"/>
        <path id="Helvetica-4e" d="M 488 4591 
L 1222 4591 
L 3541 872 
L 3541 4591 
L 4131 4591 
L 4131 0 
L 3434 0 
L 1081 3716 
L 1081 0 
L 488 0 
L 488 4591 
z
M 2269 4591 
L 2269 4591 
z
" transform="scale(0.015625)"/>
        <path id="Helvetica-6f" d="M 1741 363 
Q 2300 363 2508 786 
Q 2716 1209 2716 1728 
Q 2716 2197 2566 2491 
Q 2328 2953 1747 2953 
Q 1231 2953 997 2559 
Q 763 2166 763 1609 
Q 763 1075 997 719 
Q 1231 363 1741 363 
z
M 1763 3444 
Q 2409 3444 2856 3012 
Q 3303 2581 3303 1744 
Q 3303 934 2909 406 
Q 2516 -122 1688 -122 
Q 997 -122 590 345 
Q 184 813 184 1600 
Q 184 2444 612 2944 
Q 1041 3444 1763 3444 
z
M 1744 3428 
L 1744 3428 
z
" transform="scale(0.015625)"/>
        <path id="Helvetica-6e" d="M 413 3347 
L 947 3347 
L 947 2872 
Q 1184 3166 1450 3294 
Q 1716 3422 2041 3422 
Q 2753 3422 3003 2925 
Q 3141 2653 3141 2147 
L 3141 0 
L 2569 0 
L 2569 2109 
Q 2569 2416 2478 2603 
Q 2328 2916 1934 2916 
Q 1734 2916 1606 2875 
Q 1375 2806 1200 2600 
Q 1059 2434 1017 2257 
Q 975 2081 975 1753 
L 975 0 
L 413 0 
L 413 3347 
z
M 1734 3428 
L 1734 3428 
z
" transform="scale(0.015625)"/>
       </defs>
       <use xlink:href="#Helvetica-49"/>
       <use xlink:href="#Helvetica-4c" x="27.783203"/>
       <use xlink:href="#Helvetica-37" x="83.398438"/>
       <use xlink:href="#Helvetica-52" x="139.013672"/>
       <use xlink:href="#Helvetica-20" x="211.230469"/>
       <use xlink:href="#Helvetica-4e" x="239.013672"/>
       <use xlink:href="#Helvetica-6f" x="311.230469"/>
       <use xlink:href="#Helvetica-6e" x="366.845703"/>
       <use xlink:href="#Helvetica-20" x="422.460938"/>
       <use xlink:href="#Helvetica-54" x="450.244141"/>
      </g>
     </g>
    </g>
   </g>
   <g id="matplotlib.axis_2">
    <g id="ytick_1">
     <g id="line2d_1">
      <defs>
       <path id="m95096ceca4" d="M 0 0 
L -1 0 
" style="stroke: #777777; stroke-width: 0.5"/>
      </defs>
      <g>
       <use xlink:href="#m95096ceca4" x="13.341646" y="68.030497" style="fill: #777777; stroke: #777777; stroke-width: 0.5"/>
      </g>
     </g>
     <g id="text_3">
      <!-- 0 -->
      <g style="fill: #333333" transform="translate(9.673365 69.106513) scale(0.03 -0.03)">
       <defs>
        <path id="Helvetica-30" d="M 1731 4475 
Q 2600 4475 2988 3759 
Q 3288 3206 3288 2244 
Q 3288 1331 3016 734 
Q 2622 -122 1728 -122 
Q 922 -122 528 578 
Q 200 1163 200 2147 
Q 200 2909 397 3456 
Q 766 4475 1731 4475 
z
M 1725 391 
Q 2163 391 2422 778 
Q 2681 1166 2681 2222 
Q 2681 2984 2493 3476 
Q 2306 3969 1766 3969 
Q 1269 3969 1039 3501 
Q 809 3034 809 2125 
Q 809 1441 956 1025 
Q 1181 391 1725 391 
z
" transform="scale(0.015625)"/>
       </defs>
       <use xlink:href="#Helvetica-30"/>
      </g>
     </g>
    </g>
    <g id="ytick_2">
     <g id="line2d_2">
      <g>
       <use xlink:href="#m95096ceca4" x="13.341646" y="55.239649" style="fill: #777777; stroke: #777777; stroke-width: 0.5"/>
      </g>
     </g>
     <g id="text_4">
      <!-- 2000 -->
      <g style="fill: #333333" transform="translate(4.668521 56.315664) scale(0.03 -0.03)">
       <defs>
        <path id="Helvetica-32" d="M 200 0 
Q 231 578 439 1006 
Q 647 1434 1250 1784 
L 1850 2131 
Q 2253 2366 2416 2531 
Q 2672 2791 2672 3125 
Q 2672 3516 2437 3745 
Q 2203 3975 1813 3975 
Q 1234 3975 1013 3538 
Q 894 3303 881 2888 
L 309 2888 
Q 319 3472 525 3841 
Q 891 4491 1816 4491 
Q 2584 4491 2939 4075 
Q 3294 3659 3294 3150 
Q 3294 2613 2916 2231 
Q 2697 2009 2131 1694 
L 1703 1456 
Q 1397 1288 1222 1134 
Q 909 863 828 531 
L 3272 531 
L 3272 0 
L 200 0 
z
" transform="scale(0.015625)"/>
       </defs>
       <use xlink:href="#Helvetica-32"/>
       <use xlink:href="#Helvetica-30" x="55.615234"/>
       <use xlink:href="#Helvetica-30" x="111.230469"/>
       <use xlink:href="#Helvetica-30" x="166.845703"/>
      </g>
     </g>
    </g>
    <g id="ytick_3">
     <g id="line2d_3">
      <g>
       <use xlink:href="#m95096ceca4" x="13.341646" y="42.4488" style="fill: #777777; stroke: #777777; stroke-width: 0.5"/>
      </g>
     </g>
     <g id="text_5">
      <!-- 4000 -->
      <g style="fill: #333333" transform="translate(4.668521 43.524816) scale(0.03 -0.03)">
       <defs>
        <path id="Helvetica-34" d="M 2116 1584 
L 2116 3613 
L 681 1584 
L 2116 1584 
z
M 2125 0 
L 2125 1094 
L 163 1094 
L 163 1644 
L 2213 4488 
L 2688 4488 
L 2688 1584 
L 3347 1584 
L 3347 1094 
L 2688 1094 
L 2688 0 
L 2125 0 
z
" transform="scale(0.015625)"/>
       </defs>
       <use xlink:href="#Helvetica-34"/>
       <use xlink:href="#Helvetica-30" x="55.615234"/>
       <use xlink:href="#Helvetica-30" x="111.230469"/>
       <use xlink:href="#Helvetica-30" x="166.845703"/>
      </g>
     </g>
    </g>
    <g id="ytick_4">
     <g id="line2d_4">
      <g>
       <use xlink:href="#m95096ceca4" x="13.341646" y="29.657952" style="fill: #777777; stroke: #777777; stroke-width: 0.5"/>
      </g>
     </g>
     <g id="text_6">
      <!-- 6000 -->
      <g style="fill: #333333" transform="translate(4.668521 30.733968) scale(0.03 -0.03)">
       <defs>
        <path id="Helvetica-36" d="M 1872 4494 
Q 2622 4494 2917 4105 
Q 3213 3716 3213 3303 
L 2656 3303 
Q 2606 3569 2497 3719 
Q 2294 4000 1881 4000 
Q 1409 4000 1131 3564 
Q 853 3128 822 2316 
Q 1016 2600 1309 2741 
Q 1578 2866 1909 2866 
Q 2472 2866 2890 2506 
Q 3309 2147 3309 1434 
Q 3309 825 2912 354 
Q 2516 -116 1781 -116 
Q 1153 -116 697 361 
Q 241 838 241 1966 
Q 241 2800 444 3381 
Q 834 4494 1872 4494 
z
M 1831 384 
Q 2275 384 2495 682 
Q 2716 981 2716 1388 
Q 2716 1731 2519 2042 
Q 2322 2353 1803 2353 
Q 1441 2353 1167 2112 
Q 894 1872 894 1388 
Q 894 963 1142 673 
Q 1391 384 1831 384 
z
" transform="scale(0.015625)"/>
       </defs>
       <use xlink:href="#Helvetica-36"/>
       <use xlink:href="#Helvetica-30" x="55.615234"/>
       <use xlink:href="#Helvetica-30" x="111.230469"/>
       <use xlink:href="#Helvetica-30" x="166.845703"/>
      </g>
     </g>
    </g>
    <g id="ytick_5">
     <g id="line2d_5">
      <g>
       <use xlink:href="#m95096ceca4" x="13.341646" y="16.867104" style="fill: #777777; stroke: #777777; stroke-width: 0.5"/>
      </g>
     </g>
     <g id="text_7">
      <!-- 8000 -->
      <g style="fill: #333333" transform="translate(4.668521 17.94312) scale(0.03 -0.03)">
       <defs>
        <path id="Helvetica-38" d="M 1741 2600 
Q 2113 2600 2322 2808 
Q 2531 3016 2531 3303 
Q 2531 3553 2331 3762 
Q 2131 3972 1722 3972 
Q 1316 3972 1134 3762 
Q 953 3553 953 3272 
Q 953 2956 1187 2778 
Q 1422 2600 1741 2600 
z
M 1775 384 
Q 2166 384 2423 595 
Q 2681 806 2681 1225 
Q 2681 1659 2415 1884 
Q 2150 2109 1734 2109 
Q 1331 2109 1076 1879 
Q 822 1650 822 1244 
Q 822 894 1055 639 
Q 1288 384 1775 384 
z
M 975 2384 
Q 741 2484 609 2619 
Q 363 2869 363 3269 
Q 363 3769 725 4128 
Q 1088 4488 1753 4488 
Q 2397 4488 2762 4148 
Q 3128 3809 3128 3356 
Q 3128 2938 2916 2678 
Q 2797 2531 2547 2391 
Q 2825 2263 2984 2097 
Q 3281 1784 3281 1284 
Q 3281 694 2884 283 
Q 2488 -128 1763 -128 
Q 1109 -128 657 226 
Q 206 581 206 1256 
Q 206 1653 400 1942 
Q 594 2231 975 2384 
z
" transform="scale(0.015625)"/>
       </defs>
       <use xlink:href="#Helvetica-38"/>
       <use xlink:href="#Helvetica-30" x="55.615234"/>
       <use xlink:href="#Helvetica-30" x="111.230469"/>
       <use xlink:href="#Helvetica-30" x="166.845703"/>
      </g>
     </g>
    </g>
    <g id="ytick_6">
     <g id="line2d_6">
      <g>
       <use xlink:href="#m95096ceca4" x="13.341646" y="4.076256" style="fill: #777777; stroke: #777777; stroke-width: 0.5"/>
      </g>
     </g>
     <g id="text_8">
      <!-- 10000 -->
      <g style="fill: #333333" transform="translate(3.00024 5.152271) scale(0.03 -0.03)">
       <defs>
        <path id="Helvetica-31" d="M 613 3169 
L 613 3600 
Q 1222 3659 1462 3798 
Q 1703 3938 1822 4456 
L 2266 4456 
L 2266 0 
L 1666 0 
L 1666 3169 
L 613 3169 
z
" transform="scale(0.015625)"/>
       </defs>
       <use xlink:href="#Helvetica-31"/>
       <use xlink:href="#Helvetica-30" x="55.615234"/>
       <use xlink:href="#Helvetica-30" x="111.230469"/>
       <use xlink:href="#Helvetica-30" x="166.845703"/>
       <use xlink:href="#Helvetica-30" x="222.460938"/>
      </g>
     </g>
    </g>
   </g>
   <g id="PolyCollection_1">
    <defs>
     <path id="m1d6a22daae" d="M 24.785793 -16.199118 
L 21.806557 -16.199118 
L 21.504226 -16.338698 
L 21.164023 -16.478278 
L 20.786778 -16.617858 
L 20.374743 -16.757438 
L 19.931729 -16.897018 
L 19.463187 -17.036599 
L 18.976195 -17.176179 
L 18.479366 -17.315759 
L 17.982649 -17.455339 
L 17.497045 -17.594919 
L 17.034225 -17.734499 
L 16.606083 -17.874079 
L 16.224236 -18.013659 
L 15.899499 -18.153239 
L 15.641374 -18.29282 
L 15.457574 -18.4324 
L 15.353622 -18.57198 
L 15.332552 -18.71156 
L 15.394724 -18.85114 
L 15.537779 -18.99072 
L 15.756731 -19.1303 
L 16.044189 -19.26988 
L 16.390705 -19.40946 
L 16.785214 -19.54904 
L 17.215542 -19.688621 
L 17.668962 -19.828201 
L 18.13274 -19.967781 
L 18.594669 -20.107361 
L 19.043544 -20.246941 
L 19.469553 -20.386521 
L 19.864592 -20.526101 
L 20.222465 -20.665681 
L 20.538983 -20.805261 
L 20.811964 -20.944842 
L 21.041143 -21.084422 
L 21.227996 -21.224002 
L 21.375507 -21.363582 
L 21.487883 -21.503162 
L 21.570241 -21.642742 
L 21.628281 -21.782322 
L 21.667964 -21.921902 
L 21.695209 -22.061482 
L 21.715612 -22.201062 
L 21.734219 -22.340643 
L 21.755338 -22.480223 
L 21.782409 -22.619803 
L 21.81793 -22.759383 
L 21.863444 -22.898963 
L 21.919566 -23.038543 
L 21.98607 -23.178123 
L 22.062003 -23.317703 
L 22.145826 -23.457283 
L 22.235578 -23.596864 
L 22.329029 -23.736444 
L 22.423833 -23.876024 
L 22.517669 -24.015604 
L 22.608345 -24.155184 
L 22.693885 -24.294764 
L 22.772577 -24.434344 
L 22.843003 -24.573924 
L 22.904033 -24.713504 
L 22.954808 -24.853084 
L 22.994705 -24.992665 
L 23.023295 -25.132245 
L 23.040308 -25.271825 
L 23.045599 -25.411405 
L 23.039127 -25.550985 
L 23.020948 -25.690565 
L 22.991226 -25.830145 
L 22.950257 -25.969725 
L 22.898499 -26.109305 
L 22.83662 -26.248886 
L 22.765537 -26.388466 
L 22.686455 -26.528046 
L 22.600891 -26.667626 
L 22.510681 -26.807206 
L 22.417965 -26.946786 
L 22.325145 -27.086366 
L 22.234817 -27.225946 
L 22.14968 -27.365526 
L 22.072424 -27.505107 
L 22.005604 -27.644687 
L 21.951516 -27.784267 
L 21.912077 -27.923847 
L 21.888715 -28.063427 
L 21.88229 -28.203007 
L 21.893049 -28.342587 
L 21.920609 -28.482167 
L 21.963982 -28.621747 
L 22.021636 -28.761327 
L 22.091588 -28.900908 
L 22.171512 -29.040488 
L 22.258872 -29.180068 
L 22.351053 -29.319648 
L 22.445491 -29.459228 
L 22.539781 -29.598808 
L 22.631781 -29.738388 
L 22.719671 -29.877968 
L 22.802003 -30.017548 
L 23.790346 -30.017548 
L 23.790346 -30.017548 
L 23.872679 -29.877968 
L 23.960569 -29.738388 
L 24.052568 -29.598808 
L 24.146859 -29.459228 
L 24.241296 -29.319648 
L 24.333478 -29.180068 
L 24.420838 -29.040488 
L 24.500761 -28.900908 
L 24.570713 -28.761327 
L 24.628368 -28.621747 
L 24.671741 -28.482167 
L 24.6993 -28.342587 
L 24.710059 -28.203007 
L 24.703635 -28.063427 
L 24.680272 -27.923847 
L 24.640833 -27.784267 
L 24.586746 -27.644687 
L 24.519926 -27.505107 
L 24.442669 -27.365526 
L 24.357532 -27.225946 
L 24.267205 -27.086366 
L 24.174385 -26.946786 
L 24.081669 -26.807206 
L 23.991459 -26.667626 
L 23.905894 -26.528046 
L 23.826812 -26.388466 
L 23.755729 -26.248886 
L 23.693851 -26.109305 
L 23.642093 -25.969725 
L 23.601123 -25.830145 
L 23.571401 -25.690565 
L 23.553222 -25.550985 
L 23.54675 -25.411405 
L 23.552041 -25.271825 
L 23.569054 -25.132245 
L 23.597645 -24.992665 
L 23.637541 -24.853084 
L 23.688316 -24.713504 
L 23.749347 -24.573924 
L 23.819773 -24.434344 
L 23.898465 -24.294764 
L 23.984004 -24.155184 
L 24.07468 -24.015604 
L 24.168516 -23.876024 
L 24.263321 -23.736444 
L 24.356771 -23.596864 
L 24.446523 -23.457283 
L 24.530347 -23.317703 
L 24.606279 -23.178123 
L 24.672783 -23.038543 
L 24.728905 -22.898963 
L 24.774419 -22.759383 
L 24.809941 -22.619803 
L 24.837011 -22.480223 
L 24.85813 -22.340643 
L 24.876738 -22.201062 
L 24.897141 -22.061482 
L 24.924385 -21.921902 
L 24.964069 -21.782322 
L 25.022109 -21.642742 
L 25.104466 -21.503162 
L 25.216842 -21.363582 
L 25.364353 -21.224002 
L 25.551207 -21.084422 
L 25.780386 -20.944842 
L 26.053367 -20.805261 
L 26.369884 -20.665681 
L 26.727757 -20.526101 
L 27.122797 -20.386521 
L 27.548806 -20.246941 
L 27.99768 -20.107361 
L 28.45961 -19.967781 
L 28.923388 -19.828201 
L 29.376807 -19.688621 
L 29.807136 -19.54904 
L 30.201644 -19.40946 
L 30.54816 -19.26988 
L 30.835618 -19.1303 
L 31.05457 -18.99072 
L 31.197625 -18.85114 
L 31.259797 -18.71156 
L 31.238727 -18.57198 
L 31.134776 -18.4324 
L 30.950975 -18.29282 
L 30.69285 -18.153239 
L 30.368113 -18.013659 
L 29.986266 -17.874079 
L 29.558125 -17.734499 
L 29.095305 -17.594919 
L 28.609701 -17.455339 
L 28.112984 -17.315759 
L 27.616154 -17.176179 
L 27.129162 -17.036599 
L 26.66062 -16.897018 
L 26.217607 -16.757438 
L 25.805571 -16.617858 
L 25.428326 -16.478278 
L 25.088123 -16.338698 
L 24.785793 -16.199118 
z
" style="stroke: #525252; stroke-width: 0.15"/>
    </defs>
    <g clip-path="url(#pa9aa1576ca)">
     <use xlink:href="#m1d6a22daae" x="0" y="84.96" style="fill: #bbba94; stroke: #525252; stroke-width: 0.15"/>
    </g>
   </g>
   <g id="PolyCollection_2">
    <defs>
     <path id="m038dbb9881" d="M 44.694132 -17.305356 
L 41.716331 -17.305356 
L 41.410263 -17.385578 
L 41.066296 -17.4658 
L 40.685709 -17.546022 
L 40.271292 -17.626243 
L 39.827442 -17.706465 
L 39.360175 -17.786687 
L 38.877039 -17.866909 
L 38.386925 -17.947131 
L 37.899774 -18.027353 
L 37.426191 -18.107575 
L 36.976987 -18.187797 
L 36.562679 -18.268018 
L 36.192977 -18.34824 
L 35.876293 -18.428462 
L 35.61932 -18.508684 
L 35.426695 -18.588906 
L 35.300785 -18.669128 
L 35.241609 -18.74935 
L 35.246898 -18.829571 
L 35.312295 -18.909793 
L 35.431664 -18.990015 
L 35.597504 -19.070237 
L 35.801411 -19.150459 
L 36.034576 -19.230681 
L 36.288271 -19.310903 
L 36.554288 -19.391125 
L 36.825317 -19.471346 
L 37.09523 -19.551568 
L 37.359269 -19.63179 
L 37.614121 -19.712012 
L 37.857907 -19.792234 
L 38.090068 -19.872456 
L 38.311186 -19.952678 
L 38.522751 -20.032899 
L 38.72689 -20.113121 
L 38.926089 -20.193343 
L 39.12292 -20.273565 
L 39.319793 -20.353787 
L 39.518745 -20.434009 
L 39.721282 -20.514231 
L 39.928273 -20.594453 
L 40.139898 -20.674674 
L 40.355655 -20.754896 
L 40.574414 -20.835118 
L 40.794515 -20.91534 
L 41.013893 -20.995562 
L 41.230225 -21.075784 
L 41.441084 -21.156006 
L 41.644084 -21.236228 
L 41.837016 -21.316449 
L 42.017959 -21.396671 
L 42.185358 -21.476893 
L 42.338073 -21.557115 
L 42.475395 -21.637337 
L 42.597031 -21.717559 
L 42.703062 -21.797781 
L 42.793881 -21.878002 
L 42.870118 -21.958224 
L 42.932551 -22.038446 
L 42.982029 -22.118668 
L 43.019387 -22.19889 
L 43.045381 -22.279112 
L 43.060633 -22.359334 
L 43.065596 -22.439556 
L 43.06054 -22.519777 
L 43.045557 -22.599999 
L 43.020587 -22.680221 
L 42.985465 -22.760443 
L 42.939984 -22.840665 
L 42.883978 -22.920887 
L 42.817404 -23.001109 
L 42.740436 -23.081331 
L 42.653552 -23.161552 
L 42.557613 -23.241774 
L 42.453914 -23.321996 
L 42.344223 -23.402218 
L 42.230769 -23.48244 
L 42.116214 -23.562662 
L 42.003567 -23.642884 
L 41.896078 -23.723105 
L 41.79709 -23.803327 
L 41.709876 -23.883549 
L 41.637464 -23.963771 
L 41.582466 -24.043993 
L 41.546921 -24.124215 
L 41.532172 -24.204437 
L 41.538783 -24.284659 
L 41.566503 -24.36488 
L 41.61428 -24.445102 
L 41.68033 -24.525324 
L 41.762249 -24.605546 
L 41.857154 -24.685768 
L 41.961853 -24.76599 
L 42.073024 -24.846212 
L 42.187382 -24.926433 
L 42.30184 -25.006655 
L 42.413637 -25.086877 
L 42.520431 -25.167099 
L 42.620361 -25.247321 
L 43.790102 -25.247321 
L 43.790102 -25.247321 
L 43.890032 -25.167099 
L 43.996826 -25.086877 
L 44.108623 -25.006655 
L 44.223081 -24.926433 
L 44.337439 -24.846212 
L 44.44861 -24.76599 
L 44.553309 -24.685768 
L 44.648214 -24.605546 
L 44.730133 -24.525324 
L 44.796184 -24.445102 
L 44.84396 -24.36488 
L 44.87168 -24.284659 
L 44.878291 -24.204437 
L 44.863542 -24.124215 
L 44.827997 -24.043993 
L 44.772999 -23.963771 
L 44.700587 -23.883549 
L 44.613373 -23.803327 
L 44.514385 -23.723105 
L 44.406896 -23.642884 
L 44.294249 -23.562662 
L 44.179694 -23.48244 
L 44.066241 -23.402218 
L 43.956549 -23.321996 
L 43.85285 -23.241774 
L 43.756911 -23.161552 
L 43.670027 -23.081331 
L 43.593059 -23.001109 
L 43.526485 -22.920887 
L 43.470479 -22.840665 
L 43.424998 -22.760443 
L 43.389876 -22.680221 
L 43.364906 -22.599999 
L 43.349923 -22.519777 
L 43.344867 -22.439556 
L 43.349831 -22.359334 
L 43.365082 -22.279112 
L 43.391076 -22.19889 
L 43.428434 -22.118668 
L 43.477912 -22.038446 
L 43.540345 -21.958224 
L 43.616582 -21.878002 
L 43.707401 -21.797781 
L 43.813433 -21.717559 
L 43.935068 -21.637337 
L 44.07239 -21.557115 
L 44.225105 -21.476893 
L 44.392504 -21.396671 
L 44.573447 -21.316449 
L 44.76638 -21.236228 
L 44.969379 -21.156006 
L 45.180238 -21.075784 
L 45.39657 -20.995562 
L 45.615948 -20.91534 
L 45.836049 -20.835118 
L 46.054808 -20.754896 
L 46.270565 -20.674674 
L 46.48219 -20.594453 
L 46.689181 -20.514231 
L 46.891718 -20.434009 
L 47.09067 -20.353787 
L 47.287543 -20.273565 
L 47.484374 -20.193343 
L 47.683573 -20.113121 
L 47.887712 -20.032899 
L 48.099277 -19.952678 
L 48.320395 -19.872456 
L 48.552556 -19.792234 
L 48.796342 -19.712012 
L 49.051194 -19.63179 
L 49.315233 -19.551568 
L 49.585146 -19.471346 
L 49.856175 -19.391125 
L 50.122192 -19.310903 
L 50.375887 -19.230681 
L 50.609052 -19.150459 
L 50.812959 -19.070237 
L 50.978799 -18.990015 
L 51.098168 -18.909793 
L 51.163565 -18.829571 
L 51.168854 -18.74935 
L 51.109678 -18.669128 
L 50.983768 -18.588906 
L 50.791143 -18.508684 
L 50.53417 -18.428462 
L 50.217487 -18.34824 
L 49.847784 -18.268018 
L 49.433476 -18.187797 
L 48.984272 -18.107575 
L 48.510689 -18.027353 
L 48.023538 -17.947131 
L 47.533424 -17.866909 
L 47.050288 -17.786687 
L 46.583021 -17.706465 
L 46.139171 -17.626243 
L 45.724754 -17.546022 
L 45.344167 -17.4658 
L 45.0002 -17.385578 
L 44.694132 -17.305356 
z
" style="stroke: #525252; stroke-width: 0.15"/>
    </defs>
    <g clip-path="url(#pa9aa1576ca)">
     <use xlink:href="#m038dbb9881" x="0" y="84.96" style="fill: #977c7f; stroke: #525252; stroke-width: 0.15"/>
    </g>
   </g>
   <g id="line2d_7">
    <path d="M 23.296175 66.929042 
L 23.296175 64.886404 
" clip-path="url(#pa9aa1576ca)" style="fill: none; stroke: #8c8c8c; stroke-width: 0.75; stroke-linecap: round"/>
   </g>
   <g id="line2d_8">
    <path d="M 23.296175 66.538511 
L 23.296175 64.886404 
" clip-path="url(#pa9aa1576ca)" style="fill: none; stroke: #8c8c8c; stroke-width: 4; stroke-linecap: round"/>
   </g>
   <g id="line2d_9">
    <path d="M 23.296175 65.932225 
" clip-path="url(#pa9aa1576ca)" style="fill: none; stroke: #525252; stroke-width: 1.2; stroke-linecap: round"/>
    <defs>
     <path id="m44c590ac9f" d="M 0 0.833333 
C 0.221003 0.833333 0.432983 0.745528 0.589256 0.589256 
C 0.745528 0.432983 0.833333 0.221003 0.833333 0 
C 0.833333 -0.221003 0.745528 -0.432983 0.589256 -0.589256 
C 0.432983 -0.745528 0.221003 -0.833333 0 -0.833333 
C -0.221003 -0.833333 -0.432983 -0.745528 -0.589256 -0.589256 
C -0.745528 -0.432983 -0.833333 -0.221003 -0.833333 0 
C -0.833333 0.221003 -0.745528 0.432983 -0.589256 0.589256 
C -0.432983 0.745528 -0.221003 0.833333 0 0.833333 
z
" style="stroke: #ffffff; stroke-width: 0.8"/>
    </defs>
    <g clip-path="url(#pa9aa1576ca)">
     <use xlink:href="#m44c590ac9f" x="23.296175" y="65.932225" style="fill: #ffffff; stroke: #ffffff; stroke-width: 0.8"/>
    </g>
   </g>
   <g id="line2d_10">
    <path d="M 43.205232 66.627093 
L 43.205232 64.331075 
" clip-path="url(#pa9aa1576ca)" style="fill: none; stroke: #8c8c8c; stroke-width: 0.75; stroke-linecap: round"/>
   </g>
   <g id="line2d_11">
    <path d="M 43.205232 66.289267 
L 43.205232 64.811012 
" clip-path="url(#pa9aa1576ca)" style="fill: none; stroke: #8c8c8c; stroke-width: 4; stroke-linecap: round"/>
   </g>
   <g id="line2d_12">
    <path d="M 43.205232 65.944249 
" clip-path="url(#pa9aa1576ca)" style="fill: none; stroke: #525252; stroke-width: 1.2; stroke-linecap: round"/>
    <g clip-path="url(#pa9aa1576ca)">
     <use xlink:href="#m44c590ac9f" x="43.205232" y="65.944249" style="fill: #ffffff; stroke: #ffffff; stroke-width: 0.8"/>
    </g>
   </g>
   <g id="patch_3">
    <path d="M 13.341646 74.419526 
L 13.341646 4.076256 
" style="fill: none; stroke: #777777; stroke-width: 0.5; stroke-linejoin: miter; stroke-linecap: square"/>
   </g>
   <g id="patch_4">
    <path d="M 13.341646 76.919526 
L 53.15976 76.919526 
" style="fill: none; stroke: #777777; stroke-width: 0.5; stroke-linejoin: miter; stroke-linecap: square"/>
   </g>
  </g>
 </g>
 <defs>
  <clipPath id="pa9aa1576ca">
   <rect x="13.341646" y="4.076256" width="39.818114" height="70.34327"/>
  </clipPath>
 </defs>
</svg>
