<?xml version="1.0" encoding="utf-8" standalone="no"?>
<!DOCTYPE svg PUBLIC "-//W3C//DTD SVG 1.1//EN"
  "http://www.w3.org/Graphics/SVG/1.1/DTD/svg11.dtd">
<svg xmlns:xlink="http://www.w3.org/1999/xlink" width="141.12pt" height="84.96pt" viewBox="0 0 141.12 84.96" xmlns="http://www.w3.org/2000/svg" version="1.1">
 <metadata>
  <rdf:RDF xmlns:dc="http://purl.org/dc/elements/1.1/" xmlns:cc="http://creativecommons.org/ns#" xmlns:rdf="http://www.w3.org/1999/02/22-rdf-syntax-ns#">
   <cc:Work>
    <dc:type rdf:resource="http://purl.org/dc/dcmitype/StillImage"/>
    <dc:date>2024-05-27T15:37:19.852922</dc:date>
    <dc:format>image/svg+xml</dc:format>
    <dc:creator>
     <cc:Agent>
      <dc:title>Matplotlib v3.8.3, https://matplotlib.org/</dc:title>
     </cc:Agent>
    </dc:creator>
   </cc:Work>
  </rdf:RDF>
 </metadata>
 <defs>
  <style type="text/css">*{stroke-linejoin: round; stroke-linecap: butt}</style>
 </defs>
 <g id="figure_1">
  <g id="patch_1">
   <path d="M 0 84.96 
L 141.12 84.96 
L 141.12 0 
L 0 0 
z
" style="fill: #ffffff"/>
  </g>
  <g id="axes_1">
   <g id="patch_2">
    <path d="M 10.005084 74.393822 
L 138.11976 74.393822 
L 138.11976 4.076256 
L 10.005084 4.076256 
z
" style="fill: #ffffff"/>
   </g>
   <g id="matplotlib.axis_1">
    <g id="xtick_1">
     <g id="text_1">
      <!-- NK/ILC1ie -->
      <g style="fill: #333333" transform="translate(14.840926 81.204526) scale(0.035 -0.035)">
       <defs>
        <path id="Helvetica-4e" d="M 488 4591 
L 1222 4591 
L 3541 872 
L 3541 4591 
L 4131 4591 
L 4131 0 
L 3434 0 
L 1081 3716 
L 1081 0 
L 488 0 
L 488 4591 
z
M 2269 4591 
L 2269 4591 
z
" transform="scale(0.015625)"/>
        <path id="Helvetica-4b" d="M 488 4591 
L 1094 4591 
L 1094 2353 
L 3331 4591 
L 4191 4591 
L 2281 2741 
L 4244 0 
L 3434 0 
L 1828 2303 
L 1094 1600 
L 1094 0 
L 488 0 
L 488 4591 
z
" transform="scale(0.015625)"/>
        <path id="Helvetica-2f" d="M 1456 4591 
L 1931 4591 
L 475 0 
L 0 0 
L 1456 4591 
z
" transform="scale(0.015625)"/>
        <path id="Helvetica-49" d="M 628 4591 
L 1256 4591 
L 1256 0 
L 628 0 
L 628 4591 
z
" transform="scale(0.015625)"/>
        <path id="Helvetica-4c" d="M 488 4591 
L 1109 4591 
L 1109 547 
L 3434 547 
L 3434 0 
L 488 0 
L 488 4591 
z
" transform="scale(0.015625)"/>
        <path id="Helvetica-43" d="M 2422 4716 
Q 3294 4716 3775 4256 
Q 4256 3797 4309 3213 
L 3703 3213 
Q 3600 3656 3292 3915 
Q 2984 4175 2428 4175 
Q 1750 4175 1333 3698 
Q 916 3222 916 2238 
Q 916 1431 1292 929 
Q 1669 428 2416 428 
Q 3103 428 3463 956 
Q 3653 1234 3747 1688 
L 4353 1688 
Q 4272 963 3816 472 
Q 3269 -119 2341 -119 
Q 1541 -119 997 366 
Q 281 1006 281 2344 
Q 281 3359 819 4009 
Q 1400 4716 2422 4716 
z
M 2297 4716 
L 2297 4716 
z
" transform="scale(0.015625)"/>
        <path id="Helvetica-31" d="M 613 3169 
L 613 3600 
Q 1222 3659 1462 3798 
Q 1703 3938 1822 4456 
L 2266 4456 
L 2266 0 
L 1666 0 
L 1666 3169 
L 613 3169 
z
" transform="scale(0.015625)"/>
        <path id="Helvetica-69" d="M 413 3331 
L 984 3331 
L 984 0 
L 413 0 
L 413 3331 
z
M 413 4591 
L 984 4591 
L 984 3953 
L 413 3953 
L 413 4591 
z
" transform="scale(0.015625)"/>
        <path id="Helvetica-65" d="M 1806 3422 
Q 2163 3422 2497 3255 
Q 2831 3088 3006 2822 
Q 3175 2569 3231 2231 
Q 3281 2000 3281 1494 
L 828 1494 
Q 844 984 1069 676 
Q 1294 369 1766 369 
Q 2206 369 2469 659 
Q 2619 828 2681 1050 
L 3234 1050 
Q 3213 866 3089 639 
Q 2966 413 2813 269 
Q 2556 19 2178 -69 
Q 1975 -119 1719 -119 
Q 1094 -119 659 336 
Q 225 791 225 1609 
Q 225 2416 662 2919 
Q 1100 3422 1806 3422 
z
M 2703 1941 
Q 2669 2306 2544 2525 
Q 2313 2931 1772 2931 
Q 1384 2931 1121 2651 
Q 859 2372 844 1941 
L 2703 1941 
z
M 1753 3428 
L 1753 3428 
z
" transform="scale(0.015625)"/>
       </defs>
       <use xlink:href="#Helvetica-4e"/>
       <use xlink:href="#Helvetica-4b" x="72.216797"/>
       <use xlink:href="#Helvetica-2f" x="138.916016"/>
       <use xlink:href="#Helvetica-49" x="166.699219"/>
       <use xlink:href="#Helvetica-4c" x="194.482422"/>
       <use xlink:href="#Helvetica-43" x="250.097656"/>
       <use xlink:href="#Helvetica-31" x="322.314453"/>
       <use xlink:href="#Helvetica-69" x="377.929688"/>
       <use xlink:href="#Helvetica-65" x="400.146484"/>
      </g>
     </g>
    </g>
    <g id="xtick_2">
     <g id="text_2">
      <!-- ILC1 -->
      <g style="fill: #333333" transform="translate(44.743158 81.204526) scale(0.035 -0.035)">
       <use xlink:href="#Helvetica-49"/>
       <use xlink:href="#Helvetica-4c" x="27.783203"/>
       <use xlink:href="#Helvetica-43" x="83.398438"/>
       <use xlink:href="#Helvetica-31" x="155.615234"/>
      </g>
     </g>
    </g>
    <g id="xtick_3">
     <g id="text_3">
      <!-- TH1 (TdT–) -->
      <g style="fill: #333333" transform="translate(65.020938 81.230229) scale(0.035 -0.035)">
       <defs>
        <path id="Helvetica-54" d="M 3828 4591 
L 3828 4044 
L 2281 4044 
L 2281 0 
L 1650 0 
L 1650 4044 
L 103 4044 
L 103 4591 
L 3828 4591 
z
" transform="scale(0.015625)"/>
        <path id="Helvetica-48" d="M 503 4591 
L 1131 4591 
L 1131 2694 
L 3519 2694 
L 3519 4591 
L 4147 4591 
L 4147 0 
L 3519 0 
L 3519 2147 
L 1131 2147 
L 1131 0 
L 503 0 
L 503 4591 
z
" transform="scale(0.015625)"/>
        <path id="Helvetica-20" transform="scale(0.015625)"/>
        <path id="Helvetica-28" d="M 1894 4666 
Q 1403 3713 1256 3263 
Q 1034 2578 1034 1681 
Q 1034 775 1288 25 
Q 1444 -438 1903 -1306 
L 1525 -1306 
Q 1069 -594 959 -397 
Q 850 -200 722 138 
Q 547 600 478 1125 
Q 444 1397 444 1644 
Q 444 2569 734 3291 
Q 919 3750 1503 4666 
L 1894 4666 
z
" transform="scale(0.015625)"/>
        <path id="Helvetica-64" d="M 769 1634 
Q 769 1097 997 734 
Q 1225 372 1728 372 
Q 2119 372 2370 708 
Q 2622 1044 2622 1672 
Q 2622 2306 2362 2611 
Q 2103 2916 1722 2916 
Q 1297 2916 1033 2591 
Q 769 2266 769 1634 
z
M 1616 3406 
Q 2000 3406 2259 3244 
Q 2409 3150 2600 2916 
L 2600 4606 
L 3141 4606 
L 3141 0 
L 2634 0 
L 2634 466 
Q 2438 156 2169 18 
Q 1900 -119 1553 -119 
Q 994 -119 584 351 
Q 175 822 175 1603 
Q 175 2334 548 2870 
Q 922 3406 1616 3406 
z
" transform="scale(0.015625)"/>
        <path id="Helvetica-2013" d="M -16 2000 
L 3569 2000 
L 3569 1541 
L -16 1541 
L -16 2000 
z
" transform="scale(0.015625)"/>
        <path id="Helvetica-29" d="M 222 -1306 
Q 719 -338 863 106 
Q 1081 778 1081 1681 
Q 1081 2584 828 3334 
Q 672 3797 213 4666 
L 591 4666 
Q 1072 3897 1173 3717 
Q 1275 3538 1394 3222 
Q 1544 2831 1608 2450 
Q 1672 2069 1672 1716 
Q 1672 791 1378 66 
Q 1194 -400 613 -1306 
L 222 -1306 
z
" transform="scale(0.015625)"/>
       </defs>
       <use xlink:href="#Helvetica-54"/>
       <use xlink:href="#Helvetica-48" x="61.083984"/>
       <use xlink:href="#Helvetica-31" x="133.300781"/>
       <use xlink:href="#Helvetica-20" x="188.916016"/>
       <use xlink:href="#Helvetica-28" x="216.699219"/>
       <use xlink:href="#Helvetica-54" x="250"/>
       <use xlink:href="#Helvetica-64" x="311.083984"/>
       <use xlink:href="#Helvetica-54" x="366.699219"/>
       <use xlink:href="#Helvetica-2013" x="427.783203"/>
       <use xlink:href="#Helvetica-29" x="483.398438"/>
      </g>
     </g>
    </g>
    <g id="xtick_4">
     <g id="text_4">
      <!-- TH1 (TdT+) -->
      <g style="fill: #333333" transform="translate(90.594927 81.230229) scale(0.035 -0.035)">
       <defs>
        <path id="Helvetica-2b" d="M 288 1369 
L 288 1894 
L 1650 1894 
L 1650 3266 
L 2184 3266 
L 2184 1894 
L 3547 1894 
L 3547 1369 
L 2184 1369 
L 2184 0 
L 1650 0 
L 1650 1369 
L 288 1369 
z
" transform="scale(0.015625)"/>
       </defs>
       <use xlink:href="#Helvetica-54"/>
       <use xlink:href="#Helvetica-48" x="61.083984"/>
       <use xlink:href="#Helvetica-31" x="133.300781"/>
       <use xlink:href="#Helvetica-20" x="188.916016"/>
       <use xlink:href="#Helvetica-28" x="216.699219"/>
       <use xlink:href="#Helvetica-54" x="250"/>
       <use xlink:href="#Helvetica-64" x="311.083984"/>
       <use xlink:href="#Helvetica-54" x="366.699219"/>
       <use xlink:href="#Helvetica-2b" x="427.783203"/>
       <use xlink:href="#Helvetica-29" x="486.181641"/>
      </g>
     </g>
    </g>
    <g id="xtick_5">
     <g id="text_5">
      <!-- Immature TH1 -->
      <g style="fill: #333333" transform="translate(114.126339 81.204526) scale(0.035 -0.035)">
       <defs>
        <path id="Helvetica-6d" d="M 413 3347 
L 969 3347 
L 969 2872 
Q 1169 3119 1331 3231 
Q 1609 3422 1963 3422 
Q 2363 3422 2606 3225 
Q 2744 3113 2856 2894 
Q 3044 3163 3297 3292 
Q 3550 3422 3866 3422 
Q 4541 3422 4784 2934 
Q 4916 2672 4916 2228 
L 4916 0 
L 4331 0 
L 4331 2325 
Q 4331 2659 4164 2784 
Q 3997 2909 3756 2909 
Q 3425 2909 3186 2687 
Q 2947 2466 2947 1947 
L 2947 0 
L 2375 0 
L 2375 2184 
Q 2375 2525 2294 2681 
Q 2166 2916 1816 2916 
Q 1497 2916 1236 2669 
Q 975 2422 975 1775 
L 975 0 
L 413 0 
L 413 3347 
z
" transform="scale(0.015625)"/>
        <path id="Helvetica-61" d="M 844 891 
Q 844 647 1022 506 
Q 1200 366 1444 366 
Q 1741 366 2019 503 
Q 2488 731 2488 1250 
L 2488 1703 
Q 2384 1638 2221 1594 
Q 2059 1550 1903 1531 
L 1563 1488 
Q 1256 1447 1103 1359 
Q 844 1213 844 891 
z
M 2206 2028 
Q 2400 2053 2466 2191 
Q 2503 2266 2503 2406 
Q 2503 2694 2298 2823 
Q 2094 2953 1713 2953 
Q 1272 2953 1088 2716 
Q 984 2584 953 2325 
L 428 2325 
Q 444 2944 830 3186 
Q 1216 3428 1725 3428 
Q 2316 3428 2684 3203 
Q 3050 2978 3050 2503 
L 3050 575 
Q 3050 488 3086 434 
Q 3122 381 3238 381 
Q 3275 381 3322 386 
Q 3369 391 3422 400 
L 3422 -16 
Q 3291 -53 3222 -62 
Q 3153 -72 3034 -72 
Q 2744 -72 2613 134 
Q 2544 244 2516 444 
Q 2344 219 2022 53 
Q 1700 -113 1313 -113 
Q 847 -113 551 170 
Q 256 453 256 878 
Q 256 1344 547 1600 
Q 838 1856 1309 1916 
L 2206 2028 
z
M 1741 3428 
L 1741 3428 
z
" transform="scale(0.015625)"/>
        <path id="Helvetica-74" d="M 525 4281 
L 1094 4281 
L 1094 3347 
L 1628 3347 
L 1628 2888 
L 1094 2888 
L 1094 703 
Q 1094 528 1213 469 
Q 1278 434 1431 434 
Q 1472 434 1519 436 
Q 1566 438 1628 444 
L 1628 0 
Q 1531 -28 1426 -40 
Q 1322 -53 1200 -53 
Q 806 -53 665 148 
Q 525 350 525 672 
L 525 2888 
L 72 2888 
L 72 3347 
L 525 3347 
L 525 4281 
z
" transform="scale(0.015625)"/>
        <path id="Helvetica-75" d="M 975 3347 
L 975 1125 
Q 975 869 1056 706 
Q 1206 406 1616 406 
Q 2203 406 2416 931 
Q 2531 1213 2531 1703 
L 2531 3347 
L 3094 3347 
L 3094 0 
L 2563 0 
L 2569 494 
Q 2459 303 2297 172 
Q 1975 -91 1516 -91 
Q 800 -91 541 388 
Q 400 644 400 1072 
L 400 3347 
L 975 3347 
z
M 1747 3428 
L 1747 3428 
z
" transform="scale(0.015625)"/>
        <path id="Helvetica-72" d="M 428 3347 
L 963 3347 
L 963 2769 
Q 1028 2938 1284 3180 
Q 1541 3422 1875 3422 
Q 1891 3422 1928 3419 
Q 1966 3416 2056 3406 
L 2056 2813 
Q 2006 2822 1964 2825 
Q 1922 2828 1872 2828 
Q 1447 2828 1219 2554 
Q 991 2281 991 1925 
L 991 0 
L 428 0 
L 428 3347 
z
" transform="scale(0.015625)"/>
       </defs>
       <use xlink:href="#Helvetica-49"/>
       <use xlink:href="#Helvetica-6d" x="27.783203"/>
       <use xlink:href="#Helvetica-6d" x="111.083984"/>
       <use xlink:href="#Helvetica-61" x="194.384766"/>
       <use xlink:href="#Helvetica-74" x="250"/>
       <use xlink:href="#Helvetica-75" x="277.783203"/>
       <use xlink:href="#Helvetica-72" x="333.398438"/>
       <use xlink:href="#Helvetica-65" x="366.699219"/>
       <use xlink:href="#Helvetica-20" x="422.314453"/>
       <use xlink:href="#Helvetica-54" x="450.097656"/>
       <use xlink:href="#Helvetica-48" x="511.181641"/>
       <use xlink:href="#Helvetica-31" x="583.398438"/>
      </g>
     </g>
    </g>
   </g>
   <g id="matplotlib.axis_2">
    <g id="ytick_1">
     <g id="line2d_1">
      <defs>
       <path id="m8e5616a784" d="M 0 0 
L -1 0 
" style="stroke: #777777; stroke-width: 0.5"/>
      </defs>
      <g>
       <use xlink:href="#m8e5616a784" x="10.005084" y="65.488978" style="fill: #777777; stroke: #777777; stroke-width: 0.5"/>
      </g>
     </g>
     <g id="text_6">
      <!-- 0 -->
      <g style="fill: #333333" transform="translate(6.336803 66.564993) scale(0.03 -0.03)">
       <defs>
        <path id="Helvetica-30" d="M 1731 4475 
Q 2600 4475 2988 3759 
Q 3288 3206 3288 2244 
Q 3288 1331 3016 734 
Q 2622 -122 1728 -122 
Q 922 -122 528 578 
Q 200 1163 200 2147 
Q 200 2909 397 3456 
Q 766 4475 1731 4475 
z
M 1725 391 
Q 2163 391 2422 778 
Q 2681 1166 2681 2222 
Q 2681 2984 2493 3476 
Q 2306 3969 1766 3969 
Q 1269 3969 1039 3501 
Q 809 3034 809 2125 
Q 809 1441 956 1025 
Q 1181 391 1725 391 
z
" transform="scale(0.015625)"/>
       </defs>
       <use xlink:href="#Helvetica-30"/>
      </g>
     </g>
    </g>
    <g id="ytick_2">
     <g id="line2d_2">
      <g>
       <use xlink:href="#m8e5616a784" x="10.005084" y="50.135797" style="fill: #777777; stroke: #777777; stroke-width: 0.5"/>
      </g>
     </g>
     <g id="text_7">
      <!-- 50 -->
      <g style="fill: #333333" transform="translate(4.668521 51.211813) scale(0.03 -0.03)">
       <defs>
        <path id="Helvetica-35" d="M 791 1141 
Q 847 659 1238 475 
Q 1438 381 1700 381 
Q 2200 381 2440 700 
Q 2681 1019 2681 1406 
Q 2681 1875 2395 2131 
Q 2109 2388 1709 2388 
Q 1419 2388 1211 2275 
Q 1003 2163 856 1963 
L 369 1991 
L 709 4400 
L 3034 4400 
L 3034 3856 
L 1131 3856 
L 941 2613 
Q 1097 2731 1238 2791 
Q 1488 2894 1816 2894 
Q 2431 2894 2859 2497 
Q 3288 2100 3288 1491 
Q 3288 856 2895 371 
Q 2503 -113 1644 -113 
Q 1097 -113 676 195 
Q 256 503 206 1141 
L 791 1141 
z
" transform="scale(0.015625)"/>
       </defs>
       <use xlink:href="#Helvetica-35"/>
       <use xlink:href="#Helvetica-30" x="55.615234"/>
      </g>
     </g>
    </g>
    <g id="ytick_3">
     <g id="line2d_3">
      <g>
       <use xlink:href="#m8e5616a784" x="10.005084" y="34.782617" style="fill: #777777; stroke: #777777; stroke-width: 0.5"/>
      </g>
     </g>
     <g id="text_8">
      <!-- 100 -->
      <g style="fill: #333333" transform="translate(3.00024 35.858632) scale(0.03 -0.03)">
       <use xlink:href="#Helvetica-31"/>
       <use xlink:href="#Helvetica-30" x="55.615234"/>
       <use xlink:href="#Helvetica-30" x="111.230469"/>
      </g>
     </g>
    </g>
    <g id="ytick_4">
     <g id="line2d_4">
      <g>
       <use xlink:href="#m8e5616a784" x="10.005084" y="19.429436" style="fill: #777777; stroke: #777777; stroke-width: 0.5"/>
      </g>
     </g>
     <g id="text_9">
      <!-- 150 -->
      <g style="fill: #333333" transform="translate(3.00024 20.505452) scale(0.03 -0.03)">
       <use xlink:href="#Helvetica-31"/>
       <use xlink:href="#Helvetica-35" x="55.615234"/>
       <use xlink:href="#Helvetica-30" x="111.230469"/>
      </g>
     </g>
    </g>
    <g id="ytick_5">
     <g id="line2d_5">
      <g>
       <use xlink:href="#m8e5616a784" x="10.005084" y="4.076256" style="fill: #777777; stroke: #777777; stroke-width: 0.5"/>
      </g>
     </g>
     <g id="text_10">
      <!-- 200 -->
      <g style="fill: #333333" transform="translate(3.00024 5.152271) scale(0.03 -0.03)">
       <defs>
        <path id="Helvetica-32" d="M 200 0 
Q 231 578 439 1006 
Q 647 1434 1250 1784 
L 1850 2131 
Q 2253 2366 2416 2531 
Q 2672 2791 2672 3125 
Q 2672 3516 2437 3745 
Q 2203 3975 1813 3975 
Q 1234 3975 1013 3538 
Q 894 3303 881 2888 
L 309 2888 
Q 319 3472 525 3841 
Q 891 4491 1816 4491 
Q 2584 4491 2939 4075 
Q 3294 3659 3294 3150 
Q 3294 2613 2916 2231 
Q 2697 2009 2131 1694 
L 1703 1456 
Q 1397 1288 1222 1134 
Q 909 863 828 531 
L 3272 531 
L 3272 0 
L 200 0 
z
" transform="scale(0.015625)"/>
       </defs>
       <use xlink:href="#Helvetica-32"/>
       <use xlink:href="#Helvetica-30" x="55.615234"/>
       <use xlink:href="#Helvetica-30" x="111.230469"/>
      </g>
     </g>
    </g>
   </g>
   <g id="PolyCollection_1">
    <defs>
     <path id="m959a522fca" d="M 25.044875 -19.412646 
L 20.588228 -19.412646 
L 20.198033 -19.416888 
L 19.769658 -19.42113 
L 19.305558 -19.425372 
L 18.809504 -19.429614 
L 18.286585 -19.433856 
L 17.743142 -19.438098 
L 17.186636 -19.44234 
L 16.625452 -19.446582 
L 16.068642 -19.450824 
L 15.525633 -19.455066 
L 15.00589 -19.459308 
L 14.518583 -19.46355 
L 14.072259 -19.467792 
L 13.674536 -19.472034 
L 13.331847 -19.476276 
L 13.049248 -19.480518 
L 12.830285 -19.48476 
L 12.676938 -19.489001 
L 12.589645 -19.493243 
L 12.567377 -19.497485 
L 12.60779 -19.501727 
L 12.7074 -19.505969 
L 12.861806 -19.510211 
L 13.065909 -19.514453 
L 13.31414 -19.518695 
L 13.600657 -19.522937 
L 13.919525 -19.527179 
L 14.26485 -19.531421 
L 14.630867 -19.535663 
L 15.011998 -19.539905 
L 15.402856 -19.544147 
L 15.798226 -19.548389 
L 16.193022 -19.552631 
L 16.582237 -19.556873 
L 16.960891 -19.561115 
L 17.324005 -19.565357 
L 17.666593 -19.569599 
L 17.983699 -19.573841 
L 18.270475 -19.578083 
L 18.522298 -19.582325 
L 18.734931 -19.586567 
L 18.904719 -19.590808 
L 19.028798 -19.59505 
L 19.105317 -19.599292 
L 19.133639 -19.603534 
L 19.114522 -19.607776 
L 19.050237 -19.612018 
L 18.94463 -19.61626 
L 18.8031 -19.620502 
L 18.632494 -19.624744 
L 18.440909 -19.628986 
L 18.237409 -19.633228 
L 18.031672 -19.63747 
L 17.833573 -19.641712 
L 17.65274 -19.645954 
L 17.498094 -19.650196 
L 17.377417 -19.654438 
L 17.296958 -19.65868 
L 17.261127 -19.662922 
L 17.272273 -19.667164 
L 17.330577 -19.671406 
L 17.434068 -19.675648 
L 17.578756 -19.67989 
L 17.758873 -19.684132 
L 17.967212 -19.688374 
L 18.195541 -19.692616 
L 18.435061 -19.696857 
L 18.676884 -19.701099 
L 18.912501 -19.705341 
L 19.134215 -19.709583 
L 19.335506 -19.713825 
L 19.511327 -19.718067 
L 19.658297 -19.722309 
L 19.774802 -19.726551 
L 19.860988 -19.730793 
L 19.918664 -19.735035 
L 19.951115 -19.739277 
L 19.962844 -19.743519 
L 19.959264 -19.747761 
L 19.946349 -19.752003 
L 19.930279 -19.756245 
L 19.917087 -19.760487 
L 19.912341 -19.764729 
L 19.920864 -19.768971 
L 19.946514 -19.773213 
L 19.992035 -19.777455 
L 20.058977 -19.781697 
L 20.147692 -19.785939 
L 20.257398 -19.790181 
L 20.386303 -19.794423 
L 20.531773 -19.798665 
L 20.690541 -19.802906 
L 20.858922 -19.807148 
L 21.033045 -19.81139 
L 21.209057 -19.815632 
L 21.383317 -19.819874 
L 21.552541 -19.824116 
L 21.713926 -19.828358 
L 21.865216 -19.8326 
L 23.767886 -19.8326 
L 23.767886 -19.8326 
L 23.919177 -19.828358 
L 24.080562 -19.824116 
L 24.249786 -19.819874 
L 24.424045 -19.815632 
L 24.600058 -19.81139 
L 24.774181 -19.807148 
L 24.942562 -19.802906 
L 25.101329 -19.798665 
L 25.2468 -19.794423 
L 25.375704 -19.790181 
L 25.485411 -19.785939 
L 25.574126 -19.781697 
L 25.641068 -19.777455 
L 25.686589 -19.773213 
L 25.712239 -19.768971 
L 25.720762 -19.764729 
L 25.716016 -19.760487 
L 25.702824 -19.756245 
L 25.686753 -19.752003 
L 25.673838 -19.747761 
L 25.670258 -19.743519 
L 25.681988 -19.739277 
L 25.714439 -19.735035 
L 25.772115 -19.730793 
L 25.858301 -19.726551 
L 25.974806 -19.722309 
L 26.121776 -19.718067 
L 26.297597 -19.713825 
L 26.498888 -19.709583 
L 26.720601 -19.705341 
L 26.956219 -19.701099 
L 27.198042 -19.696857 
L 27.437562 -19.692616 
L 27.665891 -19.688374 
L 27.87423 -19.684132 
L 28.054346 -19.67989 
L 28.199035 -19.675648 
L 28.302526 -19.671406 
L 28.36083 -19.667164 
L 28.371975 -19.662922 
L 28.336145 -19.65868 
L 28.255686 -19.654438 
L 28.135008 -19.650196 
L 27.980363 -19.645954 
L 27.799529 -19.641712 
L 27.601431 -19.63747 
L 27.395694 -19.633228 
L 27.192194 -19.628986 
L 27.000609 -19.624744 
L 26.830003 -19.620502 
L 26.688473 -19.61626 
L 26.582866 -19.612018 
L 26.51858 -19.607776 
L 26.499463 -19.603534 
L 26.527786 -19.599292 
L 26.604305 -19.59505 
L 26.728384 -19.590808 
L 26.898172 -19.586567 
L 27.110805 -19.582325 
L 27.362628 -19.578083 
L 27.649404 -19.573841 
L 27.96651 -19.569599 
L 28.309098 -19.565357 
L 28.672212 -19.561115 
L 29.050866 -19.556873 
L 29.440081 -19.552631 
L 29.834877 -19.548389 
L 30.230247 -19.544147 
L 30.621104 -19.539905 
L 31.002235 -19.535663 
L 31.368253 -19.531421 
L 31.713578 -19.527179 
L 32.032446 -19.522937 
L 32.318963 -19.518695 
L 32.567193 -19.514453 
L 32.771297 -19.510211 
L 32.925703 -19.505969 
L 33.025313 -19.501727 
L 33.065725 -19.497485 
L 33.043458 -19.493243 
L 32.956165 -19.489001 
L 32.802818 -19.48476 
L 32.583854 -19.480518 
L 32.301255 -19.476276 
L 31.958567 -19.472034 
L 31.560843 -19.467792 
L 31.114519 -19.46355 
L 30.627213 -19.459308 
L 30.10747 -19.455066 
L 29.56446 -19.450824 
L 29.007651 -19.446582 
L 28.446467 -19.44234 
L 27.889961 -19.438098 
L 27.346517 -19.433856 
L 26.823599 -19.429614 
L 26.327545 -19.425372 
L 25.863445 -19.42113 
L 25.43507 -19.416888 
L 25.044875 -19.412646 
z
" style="stroke: #6f6f6f; stroke-width: 0.15"/>
    </defs>
    <g clip-path="url(#pb2097559ba)">
     <use xlink:href="#m959a522fca" x="0" y="84.96" style="fill: #98daa7; stroke: #6f6f6f; stroke-width: 0.15"/>
    </g>
   </g>
   <g id="PolyCollection_2">
    <defs>
     <path id="mcce0b568d9" d="M 50.11762 -18.35444 
L 46.761353 -18.35444 
L 46.408058 -18.445849 
L 46.009508 -18.537257 
L 45.566865 -18.628665 
L 45.083006 -18.720073 
L 44.562624 -18.811481 
L 44.01222 -18.90289 
L 43.439976 -18.994298 
L 42.855508 -19.085706 
L 42.269488 -19.177114 
L 41.693169 -19.268522 
L 41.137833 -19.359931 
L 40.614199 -19.451339 
L 40.131835 -19.542747 
L 39.698631 -19.634155 
L 39.320363 -19.725564 
L 39.000403 -19.816972 
L 38.739587 -19.90838 
L 38.536266 -19.999788 
L 38.386532 -20.091196 
L 38.284595 -20.182605 
L 38.223277 -20.274013 
L 38.194588 -20.365421 
L 38.190313 -20.456829 
L 38.202575 -20.548237 
L 38.224329 -20.639646 
L 38.249739 -20.731054 
L 38.274437 -20.822462 
L 38.295649 -20.91387 
L 38.312198 -21.005278 
L 38.324421 -21.096687 
L 38.333999 -21.188095 
L 38.34376 -21.279503 
L 38.357462 -21.370911 
L 38.379574 -21.462319 
L 38.41508 -21.553728 
L 38.469276 -21.645136 
L 38.547585 -21.736544 
L 38.655353 -21.827952 
L 38.797631 -21.91936 
L 38.978926 -22.010769 
L 39.202942 -22.102177 
L 39.472303 -22.193585 
L 39.788289 -22.284993 
L 40.150624 -22.376401 
L 40.55732 -22.46781 
L 41.004623 -22.559218 
L 41.487075 -22.650626 
L 41.997686 -22.742034 
L 42.528233 -22.833442 
L 43.069638 -22.924851 
L 43.612418 -23.016259 
L 44.147154 -23.107667 
L 44.664951 -23.199075 
L 45.157834 -23.290483 
L 45.61907 -23.381892 
L 46.043375 -23.4733 
L 46.427014 -23.564708 
L 46.767778 -23.656116 
L 47.064868 -23.747524 
L 47.318692 -23.838933 
L 47.530613 -23.930341 
L 47.702663 -24.021749 
L 47.837259 -24.113157 
L 47.936946 -24.204565 
L 48.004173 -24.295974 
L 48.041138 -24.387382 
L 48.049689 -24.47879 
L 48.031298 -24.570198 
L 47.987099 -24.661606 
L 47.917991 -24.753015 
L 47.824779 -24.844423 
L 47.708362 -24.935831 
L 47.569926 -25.027239 
L 47.411143 -25.118647 
L 47.234343 -25.210056 
L 47.042644 -25.301464 
L 46.840019 -25.392872 
L 46.631293 -25.48428 
L 46.422056 -25.575688 
L 46.21849 -25.667097 
L 46.027122 -25.758505 
L 45.854516 -25.849913 
L 45.706923 -25.941321 
L 45.589925 -26.032729 
L 45.508095 -26.124138 
L 45.464707 -26.215546 
L 45.461523 -26.306954 
L 45.498677 -26.398362 
L 45.574672 -26.48977 
L 45.686475 -26.581179 
L 45.829721 -26.672587 
L 45.998999 -26.763995 
L 46.188186 -26.855403 
L 46.390817 -26.946811 
L 46.600443 -27.03822 
L 46.810964 -27.129628 
L 47.016905 -27.221036 
L 47.213623 -27.312444 
L 47.397436 -27.403852 
L 49.481537 -27.403852 
L 49.481537 -27.403852 
L 49.66535 -27.312444 
L 49.862068 -27.221036 
L 50.068009 -27.129628 
L 50.27853 -27.03822 
L 50.488156 -26.946811 
L 50.690787 -26.855403 
L 50.879975 -26.763995 
L 51.049252 -26.672587 
L 51.192499 -26.581179 
L 51.304301 -26.48977 
L 51.380296 -26.398362 
L 51.417451 -26.306954 
L 51.414266 -26.215546 
L 51.370878 -26.124138 
L 51.289048 -26.032729 
L 51.172051 -25.941321 
L 51.024457 -25.849913 
L 50.851851 -25.758505 
L 50.660483 -25.667097 
L 50.456917 -25.575688 
L 50.24768 -25.48428 
L 50.038955 -25.392872 
L 49.83633 -25.301464 
L 49.64463 -25.210056 
L 49.467831 -25.118647 
L 49.309048 -25.027239 
L 49.170612 -24.935831 
L 49.054194 -24.844423 
L 48.960982 -24.753015 
L 48.891874 -24.661606 
L 48.847676 -24.570198 
L 48.829284 -24.47879 
L 48.837835 -24.387382 
L 48.8748 -24.295974 
L 48.942028 -24.204565 
L 49.041714 -24.113157 
L 49.176311 -24.021749 
L 49.34836 -23.930341 
L 49.560281 -23.838933 
L 49.814106 -23.747524 
L 50.111195 -23.656116 
L 50.451959 -23.564708 
L 50.835598 -23.4733 
L 51.259904 -23.381892 
L 51.721139 -23.290483 
L 52.214023 -23.199075 
L 52.731819 -23.107667 
L 53.266556 -23.016259 
L 53.809335 -22.924851 
L 54.35074 -22.833442 
L 54.881287 -22.742034 
L 55.391899 -22.650626 
L 55.87435 -22.559218 
L 56.321654 -22.46781 
L 56.728349 -22.376401 
L 57.090684 -22.284993 
L 57.406671 -22.193585 
L 57.676031 -22.102177 
L 57.900047 -22.010769 
L 58.081343 -21.91936 
L 58.22362 -21.827952 
L 58.331388 -21.736544 
L 58.409697 -21.645136 
L 58.463893 -21.553728 
L 58.499399 -21.462319 
L 58.521512 -21.370911 
L 58.535213 -21.279503 
L 58.544974 -21.188095 
L 58.554552 -21.096687 
L 58.566775 -21.005278 
L 58.583325 -20.91387 
L 58.604536 -20.822462 
L 58.629234 -20.731054 
L 58.654644 -20.639646 
L 58.676398 -20.548237 
L 58.688661 -20.456829 
L 58.684385 -20.365421 
L 58.655696 -20.274013 
L 58.594378 -20.182605 
L 58.492441 -20.091196 
L 58.342707 -19.999788 
L 58.139387 -19.90838 
L 57.87857 -19.816972 
L 57.55861 -19.725564 
L 57.180343 -19.634155 
L 56.747138 -19.542747 
L 56.264774 -19.451339 
L 55.74114 -19.359931 
L 55.185804 -19.268522 
L 54.609485 -19.177114 
L 54.023465 -19.085706 
L 53.438997 -18.994298 
L 52.866754 -18.90289 
L 52.316349 -18.811481 
L 51.795967 -18.720073 
L 51.312109 -18.628665 
L 50.869465 -18.537257 
L 50.470915 -18.445849 
L 50.11762 -18.35444 
z
" style="stroke: #6f6f6f; stroke-width: 0.15"/>
    </defs>
    <g clip-path="url(#pb2097559ba)">
     <use xlink:href="#mcce0b568d9" x="0" y="84.96" style="fill: #f2aba8; stroke: #6f6f6f; stroke-width: 0.15"/>
    </g>
   </g>
   <g id="PolyCollection_3">
    <defs>
     <path id="ma11c864be0" d="M 76.765479 -19.15189 
L 71.359365 -19.15189 
L 70.85316 -19.176088 
L 70.297015 -19.200287 
L 69.696491 -19.224485 
L 69.059758 -19.248684 
L 68.397594 -19.272882 
L 67.723222 -19.297081 
L 67.051972 -19.321279 
L 66.400772 -19.345478 
L 65.787478 -19.369676 
L 65.230087 -19.393875 
L 64.745874 -19.418073 
L 64.350508 -19.442272 
L 64.057211 -19.46647 
L 63.876027 -19.490669 
L 63.813248 -19.514867 
L 63.871051 -19.539066 
L 64.047378 -19.563265 
L 64.33605 -19.587463 
L 64.727133 -19.611662 
L 65.207502 -19.63586 
L 65.76157 -19.660059 
L 66.37213 -19.684257 
L 67.021231 -19.708456 
L 67.691039 -19.732654 
L 68.364633 -19.756853 
L 69.026662 -19.781051 
L 69.66386 -19.80525 
L 70.265391 -19.829448 
L 70.823011 -19.853647 
L 71.331072 -19.877845 
L 71.786389 -19.902044 
L 72.187987 -19.926242 
L 72.536777 -19.950441 
L 72.835185 -19.974639 
L 73.086768 -19.998838 
L 73.295845 -20.023036 
L 73.467159 -20.047235 
L 73.60559 -20.071433 
L 73.715926 -20.095632 
L 73.802683 -20.11983 
L 73.869991 -20.144029 
L 73.921519 -20.168227 
L 73.960447 -20.192426 
L 73.98947 -20.216624 
L 74.010823 -20.240823 
L 74.026319 -20.265021 
L 74.037403 -20.28922 
L 74.045202 -20.313418 
L 74.050575 -20.337617 
L 74.054163 -20.361816 
L 74.056425 -20.386014 
L 74.057675 -20.410213 
L 74.058108 -20.434411 
L 74.057817 -20.45861 
L 74.05681 -20.482808 
L 74.055016 -20.507007 
L 74.05229 -20.531205 
L 74.048411 -20.555404 
L 74.043084 -20.579602 
L 74.035934 -20.603801 
L 74.026506 -20.627999 
L 74.014266 -20.652198 
L 73.998608 -20.676396 
L 73.978862 -20.700595 
L 73.954312 -20.724793 
L 73.924227 -20.748992 
L 73.88789 -20.77319 
L 73.844647 -20.797389 
L 73.793953 -20.821587 
L 73.735434 -20.845786 
L 73.668946 -20.869984 
L 73.594628 -20.894183 
L 73.512955 -20.918381 
L 73.424778 -20.94258 
L 73.331341 -20.966778 
L 73.234284 -20.990977 
L 73.135614 -21.015175 
L 73.037651 -21.039374 
L 72.942948 -21.063572 
L 72.854188 -21.087771 
L 72.774059 -21.111969 
L 72.705123 -21.136168 
L 72.64968 -21.160366 
L 72.60964 -21.184565 
L 72.586417 -21.208764 
L 72.580842 -21.232962 
L 72.593114 -21.257161 
L 72.622794 -21.281359 
L 72.668823 -21.305558 
L 72.72959 -21.329756 
L 72.803023 -21.353955 
L 72.88671 -21.378153 
L 72.978024 -21.402352 
L 73.074264 -21.42655 
L 73.172782 -21.450749 
L 73.271102 -21.474947 
L 73.367013 -21.499146 
L 73.458643 -21.523344 
L 73.544498 -21.547543 
L 74.580346 -21.547543 
L 74.580346 -21.547543 
L 74.666201 -21.523344 
L 74.75783 -21.499146 
L 74.853742 -21.474947 
L 74.952062 -21.450749 
L 75.05058 -21.42655 
L 75.14682 -21.402352 
L 75.238134 -21.378153 
L 75.32182 -21.353955 
L 75.395254 -21.329756 
L 75.456021 -21.305558 
L 75.50205 -21.281359 
L 75.531729 -21.257161 
L 75.544002 -21.232962 
L 75.538427 -21.208764 
L 75.515203 -21.184565 
L 75.475164 -21.160366 
L 75.419721 -21.136168 
L 75.350785 -21.111969 
L 75.270656 -21.087771 
L 75.181895 -21.063572 
L 75.087193 -21.039374 
L 74.989229 -21.015175 
L 74.890559 -20.990977 
L 74.793503 -20.966778 
L 74.700066 -20.94258 
L 74.611889 -20.918381 
L 74.530216 -20.894183 
L 74.455897 -20.869984 
L 74.389409 -20.845786 
L 74.330891 -20.821587 
L 74.280197 -20.797389 
L 74.236953 -20.77319 
L 74.200617 -20.748992 
L 74.170531 -20.724793 
L 74.145982 -20.700595 
L 74.126236 -20.676396 
L 74.110578 -20.652198 
L 74.098338 -20.627999 
L 74.08891 -20.603801 
L 74.081759 -20.579602 
L 74.076432 -20.555404 
L 74.072554 -20.531205 
L 74.069828 -20.507007 
L 74.068034 -20.482808 
L 74.067027 -20.45861 
L 74.066736 -20.434411 
L 74.067168 -20.410213 
L 74.068418 -20.386014 
L 74.070681 -20.361816 
L 74.074269 -20.337617 
L 74.079642 -20.313418 
L 74.087441 -20.28922 
L 74.098525 -20.265021 
L 74.114021 -20.240823 
L 74.135373 -20.216624 
L 74.164397 -20.192426 
L 74.203325 -20.168227 
L 74.254853 -20.144029 
L 74.322161 -20.11983 
L 74.408918 -20.095632 
L 74.519254 -20.071433 
L 74.657685 -20.047235 
L 74.828999 -20.023036 
L 75.038076 -19.998838 
L 75.289659 -19.974639 
L 75.588067 -19.950441 
L 75.936857 -19.926242 
L 76.338455 -19.902044 
L 76.793772 -19.877845 
L 77.301833 -19.853647 
L 77.859453 -19.829448 
L 78.460984 -19.80525 
L 79.098182 -19.781051 
L 79.760211 -19.756853 
L 80.433804 -19.732654 
L 81.103613 -19.708456 
L 81.752713 -19.684257 
L 82.363273 -19.660059 
L 82.917342 -19.63586 
L 83.397711 -19.611662 
L 83.788794 -19.587463 
L 84.077466 -19.563265 
L 84.253793 -19.539066 
L 84.311596 -19.514867 
L 84.248816 -19.490669 
L 84.067632 -19.46647 
L 83.774336 -19.442272 
L 83.37897 -19.418073 
L 82.894757 -19.393875 
L 82.337366 -19.369676 
L 81.724072 -19.345478 
L 81.072871 -19.321279 
L 80.401622 -19.297081 
L 79.72725 -19.272882 
L 79.065085 -19.248684 
L 78.428352 -19.224485 
L 77.827829 -19.200287 
L 77.271684 -19.176088 
L 76.765479 -19.15189 
z
" style="stroke: #6f6f6f; stroke-width: 0.15"/>
    </defs>
    <g clip-path="url(#pb2097559ba)">
     <use xlink:href="#ma11c864be0" x="0" y="84.96" style="fill: #eab390; stroke: #6f6f6f; stroke-width: 0.15"/>
    </g>
   </g>
   <g id="PolyCollection_4">
    <defs>
     <path id="m88da987d19" d="M 102.692629 -19.451367 
L 96.678085 -19.451367 
L 96.188212 -19.452769 
L 95.659785 -19.454171 
L 95.098316 -19.455573 
L 94.511098 -19.456975 
L 93.907114 -19.458377 
L 93.296848 -19.459779 
L 92.691997 -19.46118 
L 92.105081 -19.462582 
L 91.548984 -19.463984 
L 91.036436 -19.465386 
L 90.579463 -19.466788 
L 90.18885 -19.46819 
L 89.873632 -19.469592 
L 89.640669 -19.470993 
L 89.49431 -19.472395 
L 89.436183 -19.473797 
L 89.465128 -19.475199 
L 89.577264 -19.476601 
L 89.7662 -19.478003 
L 90.023369 -19.479405 
L 90.338466 -19.480807 
L 90.699953 -19.482208 
L 91.095614 -19.48361 
L 91.513108 -19.485012 
L 91.940495 -19.486414 
L 92.366703 -19.487816 
L 92.781909 -19.489218 
L 93.177817 -19.49062 
L 93.547821 -19.492021 
L 93.887051 -19.493423 
L 94.19231 -19.494825 
L 94.461919 -19.496227 
L 94.695484 -19.497629 
L 94.893612 -19.499031 
L 95.057611 -19.500433 
L 95.189197 -19.501834 
L 95.290222 -19.503236 
L 95.362477 -19.504638 
L 95.407542 -19.50604 
L 95.426739 -19.507442 
L 95.421144 -19.508844 
L 95.39169 -19.510246 
L 95.339318 -19.511648 
L 95.26517 -19.513049 
L 95.170798 -19.514451 
L 95.058355 -19.515853 
L 94.930758 -19.517255 
L 94.791781 -19.518657 
L 94.646073 -19.520059 
L 94.499099 -19.521461 
L 94.356973 -19.522862 
L 94.22623 -19.524264 
L 94.113518 -19.525666 
L 94.025247 -19.527068 
L 93.967225 -19.52847 
L 93.9443 -19.529872 
L 93.960038 -19.531274 
L 94.016473 -19.532675 
L 94.113937 -19.534077 
L 94.250991 -19.535479 
L 94.424463 -19.536881 
L 94.629585 -19.538283 
L 94.860233 -19.539685 
L 95.109232 -19.541087 
L 95.368732 -19.542488 
L 95.630604 -19.54389 
L 95.88685 -19.545292 
L 96.129998 -19.546694 
L 96.353447 -19.548096 
L 96.551766 -19.549498 
L 96.720917 -19.5509 
L 96.858395 -19.552302 
L 96.96329 -19.553703 
L 97.036265 -19.555105 
L 97.079451 -19.556507 
L 97.096286 -19.557909 
L 97.091282 -19.559311 
L 97.069763 -19.560713 
L 97.037568 -19.562115 
L 97.000741 -19.563516 
L 96.965234 -19.564918 
L 96.936617 -19.56632 
L 96.919836 -19.567722 
L 96.918997 -19.569124 
L 96.937224 -19.570526 
L 96.976559 -19.571928 
L 97.03793 -19.573329 
L 97.121185 -19.574731 
L 97.225167 -19.576133 
L 97.347846 -19.577535 
L 97.486484 -19.578937 
L 97.637822 -19.580339 
L 97.79828 -19.581741 
L 97.964157 -19.583143 
L 98.131811 -19.584544 
L 98.297823 -19.585946 
L 98.459127 -19.587348 
L 98.61311 -19.58875 
L 98.757667 -19.590152 
L 100.613047 -19.590152 
L 100.613047 -19.590152 
L 100.757605 -19.58875 
L 100.911587 -19.587348 
L 101.072891 -19.585946 
L 101.238903 -19.584544 
L 101.406557 -19.583143 
L 101.572434 -19.581741 
L 101.732893 -19.580339 
L 101.884231 -19.578937 
L 102.022868 -19.577535 
L 102.145547 -19.576133 
L 102.249529 -19.574731 
L 102.332784 -19.573329 
L 102.394156 -19.571928 
L 102.43349 -19.570526 
L 102.451717 -19.569124 
L 102.450878 -19.567722 
L 102.434097 -19.56632 
L 102.405481 -19.564918 
L 102.369973 -19.563516 
L 102.333147 -19.562115 
L 102.300951 -19.560713 
L 102.279432 -19.559311 
L 102.274428 -19.557909 
L 102.291263 -19.556507 
L 102.334449 -19.555105 
L 102.407424 -19.553703 
L 102.512319 -19.552302 
L 102.649797 -19.5509 
L 102.818948 -19.549498 
L 103.017267 -19.548096 
L 103.240716 -19.546694 
L 103.483864 -19.545292 
L 103.740111 -19.54389 
L 104.001982 -19.542488 
L 104.261482 -19.541087 
L 104.510481 -19.539685 
L 104.741129 -19.538283 
L 104.946251 -19.536881 
L 105.119723 -19.535479 
L 105.256777 -19.534077 
L 105.354241 -19.532675 
L 105.410676 -19.531274 
L 105.426414 -19.529872 
L 105.403489 -19.52847 
L 105.345467 -19.527068 
L 105.257197 -19.525666 
L 105.144484 -19.524264 
L 105.013741 -19.522862 
L 104.871616 -19.521461 
L 104.724641 -19.520059 
L 104.578934 -19.518657 
L 104.439956 -19.517255 
L 104.312359 -19.515853 
L 104.199916 -19.514451 
L 104.105544 -19.513049 
L 104.031396 -19.511648 
L 103.979024 -19.510246 
L 103.94957 -19.508844 
L 103.943975 -19.507442 
L 103.963172 -19.50604 
L 104.008237 -19.504638 
L 104.080492 -19.503236 
L 104.181518 -19.501834 
L 104.313103 -19.500433 
L 104.477103 -19.499031 
L 104.67523 -19.497629 
L 104.908795 -19.496227 
L 105.178404 -19.494825 
L 105.483663 -19.493423 
L 105.822893 -19.492021 
L 106.192897 -19.49062 
L 106.588805 -19.489218 
L 107.004011 -19.487816 
L 107.430219 -19.486414 
L 107.857606 -19.485012 
L 108.2751 -19.48361 
L 108.670761 -19.482208 
L 109.032248 -19.480807 
L 109.347345 -19.479405 
L 109.604514 -19.478003 
L 109.79345 -19.476601 
L 109.905586 -19.475199 
L 109.934531 -19.473797 
L 109.876405 -19.472395 
L 109.730045 -19.470993 
L 109.497082 -19.469592 
L 109.181865 -19.46819 
L 108.791251 -19.466788 
L 108.334278 -19.465386 
L 107.82173 -19.463984 
L 107.265634 -19.462582 
L 106.678717 -19.46118 
L 106.073866 -19.459779 
L 105.463601 -19.458377 
L 104.859617 -19.456975 
L 104.272399 -19.455573 
L 103.71093 -19.454171 
L 103.182502 -19.452769 
L 102.692629 -19.451367 
z
" style="stroke: #6f6f6f; stroke-width: 0.15"/>
    </defs>
    <g clip-path="url(#pb2097559ba)">
     <use xlink:href="#m88da987d19" x="0" y="84.96" style="fill: #edbea0; stroke: #6f6f6f; stroke-width: 0.15"/>
    </g>
   </g>
   <g id="PolyCollection_5">
    <defs>
     <path id="me5a89d8da8" d="M 126.398359 -19.44579 
L 124.218226 -19.44579 
L 123.991212 -19.447661 
L 123.730822 -19.449532 
L 123.435243 -19.451403 
L 123.103218 -19.453273 
L 122.734187 -19.455144 
L 122.328423 -19.457015 
L 121.887159 -19.458886 
L 121.412703 -19.460757 
L 120.908523 -19.462628 
L 120.379309 -19.464499 
L 119.830988 -19.46637 
L 119.270702 -19.468241 
L 118.706723 -19.470112 
L 118.148321 -19.471983 
L 117.605563 -19.473854 
L 117.089067 -19.475725 
L 116.609687 -19.477595 
L 116.178172 -19.479466 
L 115.804784 -19.481337 
L 115.498905 -19.483208 
L 115.268655 -19.485079 
L 115.120534 -19.48695 
L 115.059118 -19.488821 
L 115.086822 -19.490692 
L 115.203753 -19.492563 
L 115.407658 -19.494434 
L 115.693982 -19.496305 
L 116.056031 -19.498176 
L 116.485222 -19.500047 
L 116.971425 -19.501917 
L 117.503366 -19.503788 
L 118.069062 -19.505659 
L 118.656279 -19.50753 
L 119.252967 -19.509401 
L 119.847669 -19.511272 
L 120.429864 -19.513143 
L 120.990243 -19.515014 
L 121.520901 -19.516885 
L 122.015448 -19.518756 
L 122.469034 -19.520627 
L 122.8783 -19.522498 
L 123.241273 -19.524369 
L 123.557209 -19.526239 
L 123.826407 -19.52811 
L 124.050012 -19.529981 
L 124.229825 -19.531852 
L 124.368119 -19.533723 
L 124.467492 -19.535594 
L 124.530748 -19.537465 
L 124.560812 -19.539336 
L 124.560682 -19.541207 
L 124.533412 -19.543078 
L 124.482109 -19.544949 
L 124.409956 -19.54682 
L 124.320223 -19.54869 
L 124.216284 -19.550561 
L 124.101608 -19.552432 
L 123.979736 -19.554303 
L 123.854227 -19.556174 
L 123.728579 -19.558045 
L 123.606131 -19.559916 
L 123.489945 -19.561787 
L 123.382686 -19.563658 
L 123.286507 -19.565529 
L 123.202952 -19.5674 
L 123.132891 -19.569271 
L 123.076489 -19.571142 
L 123.03323 -19.573012 
L 123.001979 -19.574883 
L 122.981101 -19.576754 
L 122.968612 -19.578625 
L 122.962358 -19.580496 
L 122.960211 -19.582367 
L 122.960262 -19.584238 
L 122.960989 -19.586109 
L 122.961398 -19.58798 
L 122.96111 -19.589851 
L 122.960397 -19.591722 
L 122.96016 -19.593593 
L 122.961844 -19.595464 
L 122.967311 -19.597334 
L 122.978678 -19.599205 
L 122.998123 -19.601076 
L 123.027699 -19.602947 
L 123.069147 -19.604818 
L 123.123748 -19.606689 
L 123.192204 -19.60856 
L 123.274575 -19.610431 
L 123.370257 -19.612302 
L 123.47802 -19.614173 
L 123.596083 -19.616044 
L 123.722229 -19.617915 
L 123.853937 -19.619786 
L 123.988535 -19.621656 
L 124.123348 -19.623527 
L 124.25583 -19.625398 
L 124.383684 -19.627269 
L 124.504949 -19.62914 
L 124.618059 -19.631011 
L 125.998526 -19.631011 
L 125.998526 -19.631011 
L 126.111636 -19.62914 
L 126.232901 -19.627269 
L 126.360755 -19.625398 
L 126.493237 -19.623527 
L 126.62805 -19.621656 
L 126.762648 -19.619786 
L 126.894356 -19.617915 
L 127.020502 -19.616044 
L 127.138565 -19.614173 
L 127.246328 -19.612302 
L 127.34201 -19.610431 
L 127.42438 -19.60856 
L 127.492837 -19.606689 
L 127.547438 -19.604818 
L 127.588886 -19.602947 
L 127.618462 -19.601076 
L 127.637907 -19.599205 
L 127.649274 -19.597334 
L 127.654741 -19.595464 
L 127.656425 -19.593593 
L 127.656187 -19.591722 
L 127.655475 -19.589851 
L 127.655187 -19.58798 
L 127.655596 -19.586109 
L 127.656323 -19.584238 
L 127.656374 -19.582367 
L 127.654227 -19.580496 
L 127.647973 -19.578625 
L 127.635484 -19.576754 
L 127.614606 -19.574883 
L 127.583355 -19.573012 
L 127.540095 -19.571142 
L 127.483693 -19.569271 
L 127.413632 -19.5674 
L 127.330078 -19.565529 
L 127.233899 -19.563658 
L 127.12664 -19.561787 
L 127.010453 -19.559916 
L 126.888005 -19.558045 
L 126.762358 -19.556174 
L 126.636849 -19.554303 
L 126.514977 -19.552432 
L 126.400301 -19.550561 
L 126.296361 -19.54869 
L 126.206629 -19.54682 
L 126.134475 -19.544949 
L 126.083173 -19.543078 
L 126.055903 -19.541207 
L 126.055773 -19.539336 
L 126.085837 -19.537465 
L 126.149093 -19.535594 
L 126.248466 -19.533723 
L 126.38676 -19.531852 
L 126.566573 -19.529981 
L 126.790178 -19.52811 
L 127.059375 -19.526239 
L 127.375311 -19.524369 
L 127.738285 -19.522498 
L 128.147551 -19.520627 
L 128.601137 -19.518756 
L 129.095684 -19.516885 
L 129.626342 -19.515014 
L 130.18672 -19.513143 
L 130.768915 -19.511272 
L 131.363618 -19.509401 
L 131.960306 -19.50753 
L 132.547523 -19.505659 
L 133.113219 -19.503788 
L 133.645159 -19.501917 
L 134.131363 -19.500047 
L 134.560554 -19.498176 
L 134.922602 -19.496305 
L 135.208927 -19.494434 
L 135.412832 -19.492563 
L 135.529762 -19.490692 
L 135.557466 -19.488821 
L 135.496051 -19.48695 
L 135.34793 -19.485079 
L 135.11768 -19.483208 
L 134.811801 -19.481337 
L 134.438413 -19.479466 
L 134.006898 -19.477595 
L 133.527518 -19.475725 
L 133.011021 -19.473854 
L 132.468264 -19.471983 
L 131.909862 -19.470112 
L 131.345883 -19.468241 
L 130.785597 -19.46637 
L 130.237276 -19.464499 
L 129.708061 -19.462628 
L 129.203882 -19.460757 
L 128.729426 -19.458886 
L 128.288162 -19.457015 
L 127.882398 -19.455144 
L 127.513367 -19.453273 
L 127.181342 -19.451403 
L 126.885763 -19.449532 
L 126.625373 -19.447661 
L 126.398359 -19.44579 
z
" style="stroke: #6f6f6f; stroke-width: 0.15"/>
    </defs>
    <g clip-path="url(#pb2097559ba)">
     <use xlink:href="#me5a89d8da8" x="0" y="84.96" style="fill: #f0c9b0; stroke: #6f6f6f; stroke-width: 0.15"/>
    </g>
   </g>
   <g id="line2d_6">
    <path d="M 22.816551 65.488978 
L 22.816551 65.185776 
" clip-path="url(#pb2097559ba)" style="fill: none; stroke: #8c8c8c; stroke-width: 0.75; stroke-linecap: round"/>
   </g>
   <g id="line2d_7">
    <path d="M 22.816551 65.466448 
L 22.816551 65.297873 
" clip-path="url(#pb2097559ba)" style="fill: none; stroke: #8c8c8c; stroke-width: 4; stroke-linecap: round"/>
   </g>
   <g id="line2d_8">
    <path d="M 22.816551 65.42029 
" clip-path="url(#pb2097559ba)" style="fill: none; stroke: #6f6f6f; stroke-width: 1.2; stroke-linecap: round"/>
    <defs>
     <path id="mf093bffffc" d="M 0 0.833333 
C 0.221003 0.833333 0.432983 0.745528 0.589256 0.589256 
C 0.745528 0.432983 0.833333 0.221003 0.833333 0 
C 0.833333 -0.221003 0.745528 -0.432983 0.589256 -0.589256 
C 0.432983 -0.745528 0.221003 -0.833333 0 -0.833333 
C -0.221003 -0.833333 -0.432983 -0.745528 -0.589256 -0.589256 
C -0.745528 -0.432983 -0.833333 -0.221003 -0.833333 0 
C -0.833333 0.221003 -0.745528 0.432983 -0.589256 0.589256 
C -0.432983 0.745528 -0.221003 0.833333 0 0.833333 
z
" style="stroke: #ffffff; stroke-width: 0.8"/>
    </defs>
    <g clip-path="url(#pb2097559ba)">
     <use xlink:href="#mf093bffffc" x="22.816551" y="65.42029" style="fill: #ffffff; stroke: #ffffff; stroke-width: 0.8"/>
    </g>
   </g>
   <g id="line2d_9">
    <path d="M 48.439487 65.470174 
L 48.439487 62.500086 
" clip-path="url(#pb2097559ba)" style="fill: none; stroke: #8c8c8c; stroke-width: 0.75; stroke-linecap: round"/>
   </g>
   <g id="line2d_10">
    <path d="M 48.439487 64.823899 
L 48.439487 62.621237 
" clip-path="url(#pb2097559ba)" style="fill: none; stroke: #8c8c8c; stroke-width: 4; stroke-linecap: round"/>
   </g>
   <g id="line2d_11">
    <path d="M 48.439487 63.682807 
" clip-path="url(#pb2097559ba)" style="fill: none; stroke: #6f6f6f; stroke-width: 1.2; stroke-linecap: round"/>
    <g clip-path="url(#pb2097559ba)">
     <use xlink:href="#mf093bffffc" x="48.439487" y="63.682807" style="fill: #ffffff; stroke: #ffffff; stroke-width: 0.8"/>
    </g>
   </g>
   <g id="line2d_12">
    <path d="M 74.062422 65.488978 
L 74.062422 65.380001 
" clip-path="url(#pb2097559ba)" style="fill: none; stroke: #8c8c8c; stroke-width: 0.75; stroke-linecap: round"/>
   </g>
   <g id="line2d_13">
    <path d="M 74.062422 65.462527 
L 74.062422 65.4112 
" clip-path="url(#pb2097559ba)" style="fill: none; stroke: #8c8c8c; stroke-width: 4; stroke-linecap: round"/>
   </g>
   <g id="line2d_14">
    <path d="M 74.062422 65.443243 
" clip-path="url(#pb2097559ba)" style="fill: none; stroke: #6f6f6f; stroke-width: 1.2; stroke-linecap: round"/>
    <g clip-path="url(#pb2097559ba)">
     <use xlink:href="#mf093bffffc" x="74.062422" y="65.443243" style="fill: #ffffff; stroke: #ffffff; stroke-width: 0.8"/>
    </g>
   </g>
   <g id="line2d_15">
    <path d="M 99.685357 65.488978 
L 99.685357 65.389503 
" clip-path="url(#pb2097559ba)" style="fill: none; stroke: #8c8c8c; stroke-width: 0.75; stroke-linecap: round"/>
   </g>
   <g id="line2d_16">
    <path d="M 99.685357 65.488978 
L 99.685357 65.428181 
" clip-path="url(#pb2097559ba)" style="fill: none; stroke: #8c8c8c; stroke-width: 4; stroke-linecap: round"/>
   </g>
   <g id="line2d_17">
    <path d="M 99.685357 65.466901 
" clip-path="url(#pb2097559ba)" style="fill: none; stroke: #6f6f6f; stroke-width: 1.2; stroke-linecap: round"/>
    <g clip-path="url(#pb2097559ba)">
     <use xlink:href="#mf093bffffc" x="99.685357" y="65.466901" style="fill: #ffffff; stroke: #ffffff; stroke-width: 0.8"/>
    </g>
   </g>
   <g id="line2d_18">
    <path d="M 125.308292 65.488978 
L 125.308292 65.441024 
" clip-path="url(#pb2097559ba)" style="fill: none; stroke: #8c8c8c; stroke-width: 0.75; stroke-linecap: round"/>
   </g>
   <g id="line2d_19">
    <path d="M 125.308292 65.474347 
L 125.308292 65.441024 
" clip-path="url(#pb2097559ba)" style="fill: none; stroke: #8c8c8c; stroke-width: 4; stroke-linecap: round"/>
   </g>
   <g id="line2d_20">
    <path d="M 125.308292 65.466406 
" clip-path="url(#pb2097559ba)" style="fill: none; stroke: #6f6f6f; stroke-width: 1.2; stroke-linecap: round"/>
    <g clip-path="url(#pb2097559ba)">
     <use xlink:href="#mf093bffffc" x="125.308292" y="65.466406" style="fill: #ffffff; stroke: #ffffff; stroke-width: 0.8"/>
    </g>
   </g>
   <g id="patch_3">
    <path d="M 10.005084 74.393822 
L 10.005084 4.076256 
" style="fill: none; stroke: #777777; stroke-width: 0.5; stroke-linejoin: miter; stroke-linecap: square"/>
   </g>
   <g id="patch_4">
    <path d="M 10.005084 76.893822 
L 138.11976 76.893822 
" style="fill: none; stroke: #777777; stroke-width: 0.5; stroke-linejoin: miter; stroke-linecap: square"/>
   </g>
  </g>
 </g>
 <defs>
  <clipPath id="pb2097559ba">
   <rect x="10.005084" y="4.076256" width="128.114676" height="70.317567"/>
  </clipPath>
 </defs>
</svg>
