<?xml version="1.0" encoding="utf-8" standalone="no"?>
<!DOCTYPE svg PUBLIC "-//W3C//DTD SVG 1.1//EN"
  "http://www.w3.org/Graphics/SVG/1.1/DTD/svg11.dtd">
<svg xmlns:xlink="http://www.w3.org/1999/xlink" width="198pt" height="84.96pt" viewBox="0 0 198 84.96" xmlns="http://www.w3.org/2000/svg" version="1.1">
 <metadata>
  <rdf:RDF xmlns:dc="http://purl.org/dc/elements/1.1/" xmlns:cc="http://creativecommons.org/ns#" xmlns:rdf="http://www.w3.org/1999/02/22-rdf-syntax-ns#">
   <cc:Work>
    <dc:type rdf:resource="http://purl.org/dc/dcmitype/StillImage"/>
    <dc:date>2024-05-27T15:37:14.183438</dc:date>
    <dc:format>image/svg+xml</dc:format>
    <dc:creator>
     <cc:Agent>
      <dc:title>Matplotlib v3.8.3, https://matplotlib.org/</dc:title>
     </cc:Agent>
    </dc:creator>
   </cc:Work>
  </rdf:RDF>
 </metadata>
 <defs>
  <style type="text/css">*{stroke-linejoin: round; stroke-linecap: butt}</style>
 </defs>
 <g id="figure_1">
  <g id="patch_1">
   <path d="M 0 84.96 
L 198 84.96 
L 198 0 
L 0 0 
z
" style="fill: #ffffff"/>
  </g>
  <g id="axes_1">
   <g id="patch_2">
    <path d="M 10.005084 54.222338 
L 194.99976 54.222338 
L 194.99976 4.076256 
L 10.005084 4.076256 
z
" style="fill: #ffffff"/>
   </g>
   <g id="matplotlib.axis_1">
    <g id="xtick_1">
     <g id="text_1">
      <!-- CD3+ Cells -->
      <g style="fill: #333333" transform="translate(24.109575 76.319838) rotate(-90) scale(0.035 -0.035)">
       <defs>
        <path id="Helvetica-43" d="M 2422 4716 
Q 3294 4716 3775 4256 
Q 4256 3797 4309 3213 
L 3703 3213 
Q 3600 3656 3292 3915 
Q 2984 4175 2428 4175 
Q 1750 4175 1333 3698 
Q 916 3222 916 2238 
Q 916 1431 1292 929 
Q 1669 428 2416 428 
Q 3103 428 3463 956 
Q 3653 1234 3747 1688 
L 4353 1688 
Q 4272 963 3816 472 
Q 3269 -119 2341 -119 
Q 1541 -119 997 366 
Q 281 1006 281 2344 
Q 281 3359 819 4009 
Q 1400 4716 2422 4716 
z
M 2297 4716 
L 2297 4716 
z
" transform="scale(0.015625)"/>
        <path id="Helvetica-44" d="M 2250 531 
Q 2566 531 2769 597 
Q 3131 719 3363 1066 
Q 3547 1344 3628 1778 
Q 3675 2038 3675 2259 
Q 3675 3113 3336 3584 
Q 2997 4056 2244 4056 
L 1141 4056 
L 1141 531 
L 2250 531 
z
M 516 4591 
L 2375 4591 
Q 3322 4591 3844 3919 
Q 4309 3313 4309 2366 
Q 4309 1634 4034 1044 
Q 3550 0 2369 0 
L 516 0 
L 516 4591 
z
" transform="scale(0.015625)"/>
        <path id="Helvetica-33" d="M 1663 -122 
Q 869 -122 511 314 
Q 153 750 153 1375 
L 741 1375 
Q 778 941 903 744 
Q 1122 391 1694 391 
Q 2138 391 2406 628 
Q 2675 866 2675 1241 
Q 2675 1703 2392 1887 
Q 2109 2072 1606 2072 
Q 1550 2072 1492 2070 
Q 1434 2069 1375 2066 
L 1375 2563 
Q 1463 2553 1522 2550 
Q 1581 2547 1650 2547 
Q 1966 2547 2169 2647 
Q 2525 2822 2525 3272 
Q 2525 3606 2287 3787 
Q 2050 3969 1734 3969 
Q 1172 3969 956 3594 
Q 838 3388 822 3006 
L 266 3006 
Q 266 3506 466 3856 
Q 809 4481 1675 4481 
Q 2359 4481 2734 4176 
Q 3109 3872 3109 3294 
Q 3109 2881 2888 2625 
Q 2750 2466 2531 2375 
Q 2884 2278 3082 2001 
Q 3281 1725 3281 1325 
Q 3281 684 2859 281 
Q 2438 -122 1663 -122 
z
" transform="scale(0.015625)"/>
        <path id="Helvetica-2b" d="M 288 1369 
L 288 1894 
L 1650 1894 
L 1650 3266 
L 2184 3266 
L 2184 1894 
L 3547 1894 
L 3547 1369 
L 2184 1369 
L 2184 0 
L 1650 0 
L 1650 1369 
L 288 1369 
z
" transform="scale(0.015625)"/>
        <path id="Helvetica-20" transform="scale(0.015625)"/>
        <path id="Helvetica-65" d="M 1806 3422 
Q 2163 3422 2497 3255 
Q 2831 3088 3006 2822 
Q 3175 2569 3231 2231 
Q 3281 2000 3281 1494 
L 828 1494 
Q 844 984 1069 676 
Q 1294 369 1766 369 
Q 2206 369 2469 659 
Q 2619 828 2681 1050 
L 3234 1050 
Q 3213 866 3089 639 
Q 2966 413 2813 269 
Q 2556 19 2178 -69 
Q 1975 -119 1719 -119 
Q 1094 -119 659 336 
Q 225 791 225 1609 
Q 225 2416 662 2919 
Q 1100 3422 1806 3422 
z
M 2703 1941 
Q 2669 2306 2544 2525 
Q 2313 2931 1772 2931 
Q 1384 2931 1121 2651 
Q 859 2372 844 1941 
L 2703 1941 
z
M 1753 3428 
L 1753 3428 
z
" transform="scale(0.015625)"/>
        <path id="Helvetica-6c" d="M 428 4591 
L 991 4591 
L 991 0 
L 428 0 
L 428 4591 
z
" transform="scale(0.015625)"/>
        <path id="Helvetica-73" d="M 747 1050 
Q 772 769 888 619 
Q 1100 347 1625 347 
Q 1938 347 2175 483 
Q 2413 619 2413 903 
Q 2413 1119 2222 1231 
Q 2100 1300 1741 1391 
L 1294 1503 
Q 866 1609 663 1741 
Q 300 1969 300 2372 
Q 300 2847 642 3140 
Q 984 3434 1563 3434 
Q 2319 3434 2653 2991 
Q 2863 2709 2856 2384 
L 2325 2384 
Q 2309 2575 2191 2731 
Q 1997 2953 1519 2953 
Q 1200 2953 1036 2831 
Q 872 2709 872 2509 
Q 872 2291 1088 2159 
Q 1213 2081 1456 2022 
L 1828 1931 
Q 2434 1784 2641 1647 
Q 2969 1431 2969 969 
Q 2969 522 2630 197 
Q 2291 -128 1597 -128 
Q 850 -128 539 211 
Q 228 550 206 1050 
L 747 1050 
z
M 1578 3428 
L 1578 3428 
z
" transform="scale(0.015625)"/>
       </defs>
       <use xlink:href="#Helvetica-43"/>
       <use xlink:href="#Helvetica-44" x="72.216797"/>
       <use xlink:href="#Helvetica-33" x="144.433594"/>
       <use xlink:href="#Helvetica-2b" x="200.048828"/>
       <use xlink:href="#Helvetica-20" x="258.447266"/>
       <use xlink:href="#Helvetica-43" x="286.230469"/>
       <use xlink:href="#Helvetica-65" x="358.447266"/>
       <use xlink:href="#Helvetica-6c" x="414.0625"/>
       <use xlink:href="#Helvetica-6c" x="436.279297"/>
       <use xlink:href="#Helvetica-73" x="458.496094"/>
      </g>
     </g>
    </g>
    <g id="xtick_2">
     <g id="text_2">
      <!-- TCRαδ+ Cells -->
      <g style="fill: #333333" transform="translate(50.537386 80.786713) rotate(-90) scale(0.035 -0.035)">
       <defs>
        <path id="Helvetica-54" d="M 3828 4591 
L 3828 4044 
L 2281 4044 
L 2281 0 
L 1650 0 
L 1650 4044 
L 103 4044 
L 103 4591 
L 3828 4591 
z
" transform="scale(0.015625)"/>
        <path id="Helvetica-52" d="M 2622 2488 
Q 3059 2488 3314 2663 
Q 3569 2838 3569 3294 
Q 3569 3784 3213 3963 
Q 3022 4056 2703 4056 
L 1184 4056 
L 1184 2488 
L 2622 2488 
z
M 563 4591 
L 2688 4591 
Q 3213 4591 3553 4438 
Q 4200 4144 4200 3353 
Q 4200 2941 4029 2678 
Q 3859 2416 3553 2256 
Q 3822 2147 3958 1969 
Q 4094 1791 4109 1391 
L 4131 775 
Q 4141 513 4175 384 
Q 4231 166 4375 103 
L 4375 0 
L 3613 0 
Q 3581 59 3562 153 
Q 3544 247 3531 516 
L 3494 1281 
Q 3472 1731 3159 1884 
Q 2981 1969 2600 1969 
L 1184 1969 
L 1184 0 
L 563 0 
L 563 4591 
z
" transform="scale(0.015625)"/>
        <path id="Helvetica-3b1" d="M 3347 703 
Q 3334 428 3525 434 
Q 3641 434 3700 475 
L 3700 -19 
Q 3628 -44 3513 -50 
Q 3391 -63 3309 -63 
Q 3084 -56 2956 103 
Q 2816 256 2816 475 
L 2803 475 
Q 2413 -63 1734 -63 
Q 1006 -50 647 459 
Q 281 953 281 1644 
Q 281 2350 634 2859 
Q 984 3378 1741 3391 
Q 2413 3391 2797 2847 
L 2809 2847 
L 2809 3328 
L 3347 3328 
L 3347 703 
z
M 1825 397 
Q 2075 397 2253 513 
Q 2425 622 2541 806 
Q 2766 1184 2766 1638 
Q 2766 2144 2559 2528 
Q 2350 2919 1797 2931 
Q 1306 2919 1081 2534 
Q 856 2156 856 1697 
Q 856 1209 1081 819 
Q 1306 409 1825 397 
z
" transform="scale(0.015625)"/>
        <path id="Helvetica-3b4" d="M 666 4519 
L 3188 4519 
L 3188 4056 
L 1394 4056 
L 1394 4044 
L 2509 3303 
Q 3134 2881 3372 2469 
Q 3591 2053 3584 1600 
Q 3578 934 3163 447 
Q 2738 -50 1938 -63 
Q 1203 -56 769 403 
Q 331 850 325 1556 
Q 341 3066 1863 3188 
L 1863 3200 
L 666 4056 
L 666 4519 
z
M 1991 397 
Q 2497 403 2731 794 
Q 2969 1166 2969 1606 
Q 2969 1856 2919 2041 
Q 2866 2222 2791 2344 
Q 2713 2463 2638 2541 
Q 2559 2619 2509 2650 
Q 2381 2766 2156 2766 
Q 947 2766 941 1528 
Q 941 1056 1216 738 
Q 1491 403 1991 397 
z
" transform="scale(0.015625)"/>
       </defs>
       <use xlink:href="#Helvetica-54"/>
       <use xlink:href="#Helvetica-43" x="61.083984"/>
       <use xlink:href="#Helvetica-52" x="133.300781"/>
       <use xlink:href="#Helvetica-3b1" x="205.517578"/>
       <use xlink:href="#Helvetica-3b4" x="266.601562"/>
       <use xlink:href="#Helvetica-2b" x="327.685547"/>
       <use xlink:href="#Helvetica-20" x="386.083984"/>
       <use xlink:href="#Helvetica-43" x="413.867188"/>
       <use xlink:href="#Helvetica-65" x="486.083984"/>
       <use xlink:href="#Helvetica-6c" x="541.699219"/>
       <use xlink:href="#Helvetica-6c" x="563.916016"/>
       <use xlink:href="#Helvetica-73" x="586.132812"/>
      </g>
     </g>
    </g>
    <g id="xtick_3">
     <g id="text_3">
      <!-- IL7R+ Cells -->
      <g style="fill: #333333" transform="translate(76.965197 76.710854) rotate(-90) scale(0.035 -0.035)">
       <defs>
        <path id="Helvetica-49" d="M 628 4591 
L 1256 4591 
L 1256 0 
L 628 0 
L 628 4591 
z
" transform="scale(0.015625)"/>
        <path id="Helvetica-4c" d="M 488 4591 
L 1109 4591 
L 1109 547 
L 3434 547 
L 3434 0 
L 488 0 
L 488 4591 
z
" transform="scale(0.015625)"/>
        <path id="Helvetica-37" d="M 3347 4400 
L 3347 3909 
Q 3131 3700 2773 3181 
Q 2416 2663 2141 2063 
Q 1869 1478 1728 997 
Q 1638 688 1494 0 
L 872 0 
Q 1084 1281 1809 2550 
Q 2238 3294 2709 3834 
L 234 3834 
L 234 4400 
L 3347 4400 
z
" transform="scale(0.015625)"/>
       </defs>
       <use xlink:href="#Helvetica-49"/>
       <use xlink:href="#Helvetica-4c" x="27.783203"/>
       <use xlink:href="#Helvetica-37" x="83.398438"/>
       <use xlink:href="#Helvetica-52" x="139.013672"/>
       <use xlink:href="#Helvetica-2b" x="211.230469"/>
       <use xlink:href="#Helvetica-20" x="269.628906"/>
       <use xlink:href="#Helvetica-43" x="297.412109"/>
       <use xlink:href="#Helvetica-65" x="369.628906"/>
       <use xlink:href="#Helvetica-6c" x="425.244141"/>
       <use xlink:href="#Helvetica-6c" x="447.460938"/>
       <use xlink:href="#Helvetica-73" x="469.677734"/>
      </g>
     </g>
    </g>
    <g id="xtick_4">
     <g id="text_4">
      <!-- EOMES+ Cells -->
      <g style="fill: #333333" transform="translate(103.393008 81.95976) rotate(-90) scale(0.035 -0.035)">
       <defs>
        <path id="Helvetica-45" d="M 547 4591 
L 3894 4591 
L 3894 4028 
L 1153 4028 
L 1153 2634 
L 3688 2634 
L 3688 2103 
L 1153 2103 
L 1153 547 
L 3941 547 
L 3941 0 
L 547 0 
L 547 4591 
z
M 2244 4591 
L 2244 4591 
z
" transform="scale(0.015625)"/>
        <path id="Helvetica-4f" d="M 2469 4716 
Q 3684 4716 4269 3934 
Q 4725 3325 4725 2375 
Q 4725 1347 4203 666 
Q 3591 -134 2456 -134 
Q 1397 -134 791 566 
Q 250 1241 250 2272 
Q 250 3203 713 3866 
Q 1306 4716 2469 4716 
z
M 2531 422 
Q 3353 422 3720 1011 
Q 4088 1600 4088 2366 
Q 4088 3175 3664 3669 
Q 3241 4163 2506 4163 
Q 1794 4163 1344 3673 
Q 894 3184 894 2231 
Q 894 1469 1280 945 
Q 1666 422 2531 422 
z
M 2488 4716 
L 2488 4716 
z
" transform="scale(0.015625)"/>
        <path id="Helvetica-4d" d="M 472 4591 
L 1363 4591 
L 2681 709 
L 3991 4591 
L 4872 4591 
L 4872 0 
L 4281 0 
L 4281 2709 
Q 4281 2850 4287 3175 
Q 4294 3500 4294 3872 
L 2984 0 
L 2369 0 
L 1050 3872 
L 1050 3731 
Q 1050 3563 1058 3217 
Q 1066 2872 1066 2709 
L 1066 0 
L 472 0 
L 472 4591 
z
" transform="scale(0.015625)"/>
        <path id="Helvetica-53" d="M 894 1481 
Q 916 1091 1078 847 
Q 1388 391 2169 391 
Q 2519 391 2806 491 
Q 3363 684 3363 1184 
Q 3363 1559 3128 1719 
Q 2891 1875 2384 1991 
L 1763 2131 
Q 1153 2269 900 2434 
Q 463 2722 463 3294 
Q 463 3913 891 4309 
Q 1319 4706 2103 4706 
Q 2825 4706 3329 4357 
Q 3834 4009 3834 3244 
L 3250 3244 
Q 3203 3613 3050 3809 
Q 2766 4169 2084 4169 
Q 1534 4169 1293 3937 
Q 1053 3706 1053 3400 
Q 1053 3063 1334 2906 
Q 1519 2806 2169 2656 
L 2813 2509 
Q 3278 2403 3531 2219 
Q 3969 1897 3969 1284 
Q 3969 522 3414 194 
Q 2859 -134 2125 -134 
Q 1269 -134 784 303 
Q 300 738 309 1481 
L 894 1481 
z
M 2150 4716 
L 2150 4716 
z
" transform="scale(0.015625)"/>
       </defs>
       <use xlink:href="#Helvetica-45"/>
       <use xlink:href="#Helvetica-4f" x="66.699219"/>
       <use xlink:href="#Helvetica-4d" x="144.482422"/>
       <use xlink:href="#Helvetica-45" x="227.783203"/>
       <use xlink:href="#Helvetica-53" x="294.482422"/>
       <use xlink:href="#Helvetica-2b" x="361.181641"/>
       <use xlink:href="#Helvetica-20" x="419.580078"/>
       <use xlink:href="#Helvetica-43" x="447.363281"/>
       <use xlink:href="#Helvetica-65" x="519.580078"/>
       <use xlink:href="#Helvetica-6c" x="575.195312"/>
       <use xlink:href="#Helvetica-6c" x="597.412109"/>
       <use xlink:href="#Helvetica-73" x="619.628906"/>
      </g>
     </g>
    </g>
    <g id="xtick_5">
     <g id="text_5">
      <!-- TBX+ Cells -->
      <g style="fill: #333333" transform="translate(129.820819 76.125151) rotate(-90) scale(0.035 -0.035)">
       <defs>
        <path id="Helvetica-42" d="M 2213 2650 
Q 2606 2650 2825 2759 
Q 3169 2931 3169 3378 
Q 3169 3828 2803 3984 
Q 2597 4072 2191 4072 
L 1081 4072 
L 1081 2650 
L 2213 2650 
z
M 2422 531 
Q 2994 531 3238 863 
Q 3391 1072 3391 1369 
Q 3391 1869 2944 2050 
Q 2706 2147 2316 2147 
L 1081 2147 
L 1081 531 
L 2422 531 
z
M 472 4591 
L 2444 4591 
Q 3250 4591 3591 4109 
Q 3791 3825 3791 3453 
Q 3791 3019 3544 2741 
Q 3416 2594 3175 2472 
Q 3528 2338 3703 2169 
Q 4013 1869 4013 1341 
Q 4013 897 3734 538 
Q 3319 0 2413 0 
L 472 0 
L 472 4591 
z
" transform="scale(0.015625)"/>
        <path id="Helvetica-58" d="M 881 0 
L 131 0 
L 1775 2353 
L 234 4591 
L 1013 4591 
L 2184 2834 
L 3347 4591 
L 4088 4591 
L 2547 2353 
L 4163 0 
L 3391 0 
L 2153 1888 
L 881 0 
z
" transform="scale(0.015625)"/>
       </defs>
       <use xlink:href="#Helvetica-54"/>
       <use xlink:href="#Helvetica-42" x="61.083984"/>
       <use xlink:href="#Helvetica-58" x="127.783203"/>
       <use xlink:href="#Helvetica-2b" x="194.482422"/>
       <use xlink:href="#Helvetica-20" x="252.880859"/>
       <use xlink:href="#Helvetica-43" x="280.664062"/>
       <use xlink:href="#Helvetica-65" x="352.880859"/>
       <use xlink:href="#Helvetica-6c" x="408.496094"/>
       <use xlink:href="#Helvetica-6c" x="430.712891"/>
       <use xlink:href="#Helvetica-73" x="452.929688"/>
      </g>
     </g>
    </g>
    <g id="xtick_6">
     <g id="text_6">
      <!-- RORγT+ Cells -->
      <g style="fill: #333333" transform="translate(156.260661 81.179916) rotate(-90) scale(0.035 -0.035)">
       <defs>
        <path id="Helvetica-3b3" d="M 1556 225 
L 581 2444 
Q 481 2700 416 2803 
Q 347 2894 244 2894 
Q 91 2888 56 2872 
L 56 3334 
Q 166 3384 313 3391 
Q 641 3391 788 3250 
Q 863 3188 922 3078 
Q 978 2963 1038 2809 
L 1844 878 
L 2828 3328 
L 3431 3328 
L 2131 225 
L 2131 -1253 
L 1556 -1253 
L 1556 225 
z
" transform="scale(0.015625)"/>
       </defs>
       <use xlink:href="#Helvetica-52"/>
       <use xlink:href="#Helvetica-4f" x="72.216797"/>
       <use xlink:href="#Helvetica-52" x="150"/>
       <use xlink:href="#Helvetica-3b3" x="222.216797"/>
       <use xlink:href="#Helvetica-54" x="277.832031"/>
       <use xlink:href="#Helvetica-2b" x="338.916016"/>
       <use xlink:href="#Helvetica-20" x="397.314453"/>
       <use xlink:href="#Helvetica-43" x="425.097656"/>
       <use xlink:href="#Helvetica-65" x="497.314453"/>
       <use xlink:href="#Helvetica-6c" x="552.929688"/>
       <use xlink:href="#Helvetica-6c" x="575.146484"/>
       <use xlink:href="#Helvetica-73" x="597.363281"/>
      </g>
     </g>
    </g>
    <g id="xtick_7">
     <g id="text_7">
      <!-- AHR+ Cells -->
      <g style="fill: #333333" transform="translate(182.67644 76.708119) rotate(-90) scale(0.035 -0.035)">
       <defs>
        <path id="Helvetica-41" d="M 2844 1881 
L 2147 3909 
L 1406 1881 
L 2844 1881 
z
M 1822 4591 
L 2525 4591 
L 4191 0 
L 3509 0 
L 3044 1375 
L 1228 1375 
L 731 0 
L 94 0 
L 1822 4591 
z
" transform="scale(0.015625)"/>
        <path id="Helvetica-48" d="M 503 4591 
L 1131 4591 
L 1131 2694 
L 3519 2694 
L 3519 4591 
L 4147 4591 
L 4147 0 
L 3519 0 
L 3519 2147 
L 1131 2147 
L 1131 0 
L 503 0 
L 503 4591 
z
" transform="scale(0.015625)"/>
       </defs>
       <use xlink:href="#Helvetica-41"/>
       <use xlink:href="#Helvetica-48" x="66.699219"/>
       <use xlink:href="#Helvetica-52" x="138.916016"/>
       <use xlink:href="#Helvetica-2b" x="211.132812"/>
       <use xlink:href="#Helvetica-20" x="269.53125"/>
       <use xlink:href="#Helvetica-43" x="297.314453"/>
       <use xlink:href="#Helvetica-65" x="369.53125"/>
       <use xlink:href="#Helvetica-6c" x="425.146484"/>
       <use xlink:href="#Helvetica-6c" x="447.363281"/>
       <use xlink:href="#Helvetica-73" x="469.580078"/>
      </g>
     </g>
    </g>
   </g>
   <g id="matplotlib.axis_2">
    <g id="ytick_1">
     <g id="line2d_1">
      <defs>
       <path id="m9705eab515" d="M 0 0 
L -1 0 
" style="stroke: #777777; stroke-width: 0.5"/>
      </defs>
      <g>
       <use xlink:href="#m9705eab515" x="10.005084" y="48.355357" style="fill: #777777; stroke: #777777; stroke-width: 0.5"/>
      </g>
     </g>
     <g id="text_8">
      <!-- 0 -->
      <g style="fill: #333333" transform="translate(6.336802 49.431373) scale(0.03 -0.03)">
       <defs>
        <path id="Helvetica-30" d="M 1731 4475 
Q 2600 4475 2988 3759 
Q 3288 3206 3288 2244 
Q 3288 1331 3016 734 
Q 2622 -122 1728 -122 
Q 922 -122 528 578 
Q 200 1163 200 2147 
Q 200 2909 397 3456 
Q 766 4475 1731 4475 
z
M 1725 391 
Q 2163 391 2422 778 
Q 2681 1166 2681 2222 
Q 2681 2984 2493 3476 
Q 2306 3969 1766 3969 
Q 1269 3969 1039 3501 
Q 809 3034 809 2125 
Q 809 1441 956 1025 
Q 1181 391 1725 391 
z
" transform="scale(0.015625)"/>
       </defs>
       <use xlink:href="#Helvetica-30"/>
      </g>
     </g>
    </g>
    <g id="ytick_2">
     <g id="line2d_2">
      <g>
       <use xlink:href="#m9705eab515" x="10.005084" y="40.975507" style="fill: #777777; stroke: #777777; stroke-width: 0.5"/>
      </g>
     </g>
     <g id="text_9">
      <!-- 20 -->
      <g style="fill: #333333" transform="translate(4.668521 42.051523) scale(0.03 -0.03)">
       <defs>
        <path id="Helvetica-32" d="M 200 0 
Q 231 578 439 1006 
Q 647 1434 1250 1784 
L 1850 2131 
Q 2253 2366 2416 2531 
Q 2672 2791 2672 3125 
Q 2672 3516 2437 3745 
Q 2203 3975 1813 3975 
Q 1234 3975 1013 3538 
Q 894 3303 881 2888 
L 309 2888 
Q 319 3472 525 3841 
Q 891 4491 1816 4491 
Q 2584 4491 2939 4075 
Q 3294 3659 3294 3150 
Q 3294 2613 2916 2231 
Q 2697 2009 2131 1694 
L 1703 1456 
Q 1397 1288 1222 1134 
Q 909 863 828 531 
L 3272 531 
L 3272 0 
L 200 0 
z
" transform="scale(0.015625)"/>
       </defs>
       <use xlink:href="#Helvetica-32"/>
       <use xlink:href="#Helvetica-30" x="55.615234"/>
      </g>
     </g>
    </g>
    <g id="ytick_3">
     <g id="line2d_3">
      <g>
       <use xlink:href="#m9705eab515" x="10.005084" y="33.595657" style="fill: #777777; stroke: #777777; stroke-width: 0.5"/>
      </g>
     </g>
     <g id="text_10">
      <!-- 40 -->
      <g style="fill: #333333" transform="translate(4.668521 34.671672) scale(0.03 -0.03)">
       <defs>
        <path id="Helvetica-34" d="M 2116 1584 
L 2116 3613 
L 681 1584 
L 2116 1584 
z
M 2125 0 
L 2125 1094 
L 163 1094 
L 163 1644 
L 2213 4488 
L 2688 4488 
L 2688 1584 
L 3347 1584 
L 3347 1094 
L 2688 1094 
L 2688 0 
L 2125 0 
z
" transform="scale(0.015625)"/>
       </defs>
       <use xlink:href="#Helvetica-34"/>
       <use xlink:href="#Helvetica-30" x="55.615234"/>
      </g>
     </g>
    </g>
    <g id="ytick_4">
     <g id="line2d_4">
      <g>
       <use xlink:href="#m9705eab515" x="10.005084" y="26.215806" style="fill: #777777; stroke: #777777; stroke-width: 0.5"/>
      </g>
     </g>
     <g id="text_11">
      <!-- 60 -->
      <g style="fill: #333333" transform="translate(4.668521 27.291822) scale(0.03 -0.03)">
       <defs>
        <path id="Helvetica-36" d="M 1872 4494 
Q 2622 4494 2917 4105 
Q 3213 3716 3213 3303 
L 2656 3303 
Q 2606 3569 2497 3719 
Q 2294 4000 1881 4000 
Q 1409 4000 1131 3564 
Q 853 3128 822 2316 
Q 1016 2600 1309 2741 
Q 1578 2866 1909 2866 
Q 2472 2866 2890 2506 
Q 3309 2147 3309 1434 
Q 3309 825 2912 354 
Q 2516 -116 1781 -116 
Q 1153 -116 697 361 
Q 241 838 241 1966 
Q 241 2800 444 3381 
Q 834 4494 1872 4494 
z
M 1831 384 
Q 2275 384 2495 682 
Q 2716 981 2716 1388 
Q 2716 1731 2519 2042 
Q 2322 2353 1803 2353 
Q 1441 2353 1167 2112 
Q 894 1872 894 1388 
Q 894 963 1142 673 
Q 1391 384 1831 384 
z
" transform="scale(0.015625)"/>
       </defs>
       <use xlink:href="#Helvetica-36"/>
       <use xlink:href="#Helvetica-30" x="55.615234"/>
      </g>
     </g>
    </g>
    <g id="ytick_5">
     <g id="line2d_5">
      <g>
       <use xlink:href="#m9705eab515" x="10.005084" y="18.835956" style="fill: #777777; stroke: #777777; stroke-width: 0.5"/>
      </g>
     </g>
     <g id="text_12">
      <!-- 80 -->
      <g style="fill: #333333" transform="translate(4.668521 19.911972) scale(0.03 -0.03)">
       <defs>
        <path id="Helvetica-38" d="M 1741 2600 
Q 2113 2600 2322 2808 
Q 2531 3016 2531 3303 
Q 2531 3553 2331 3762 
Q 2131 3972 1722 3972 
Q 1316 3972 1134 3762 
Q 953 3553 953 3272 
Q 953 2956 1187 2778 
Q 1422 2600 1741 2600 
z
M 1775 384 
Q 2166 384 2423 595 
Q 2681 806 2681 1225 
Q 2681 1659 2415 1884 
Q 2150 2109 1734 2109 
Q 1331 2109 1076 1879 
Q 822 1650 822 1244 
Q 822 894 1055 639 
Q 1288 384 1775 384 
z
M 975 2384 
Q 741 2484 609 2619 
Q 363 2869 363 3269 
Q 363 3769 725 4128 
Q 1088 4488 1753 4488 
Q 2397 4488 2762 4148 
Q 3128 3809 3128 3356 
Q 3128 2938 2916 2678 
Q 2797 2531 2547 2391 
Q 2825 2263 2984 2097 
Q 3281 1784 3281 1284 
Q 3281 694 2884 283 
Q 2488 -128 1763 -128 
Q 1109 -128 657 226 
Q 206 581 206 1256 
Q 206 1653 400 1942 
Q 594 2231 975 2384 
z
" transform="scale(0.015625)"/>
       </defs>
       <use xlink:href="#Helvetica-38"/>
       <use xlink:href="#Helvetica-30" x="55.615234"/>
      </g>
     </g>
    </g>
    <g id="ytick_6">
     <g id="line2d_6">
      <g>
       <use xlink:href="#m9705eab515" x="10.005084" y="11.456106" style="fill: #777777; stroke: #777777; stroke-width: 0.5"/>
      </g>
     </g>
     <g id="text_13">
      <!-- 100 -->
      <g style="fill: #333333" transform="translate(3.00024 12.532122) scale(0.03 -0.03)">
       <defs>
        <path id="Helvetica-31" d="M 613 3169 
L 613 3600 
Q 1222 3659 1462 3798 
Q 1703 3938 1822 4456 
L 2266 4456 
L 2266 0 
L 1666 0 
L 1666 3169 
L 613 3169 
z
" transform="scale(0.015625)"/>
       </defs>
       <use xlink:href="#Helvetica-31"/>
       <use xlink:href="#Helvetica-30" x="55.615234"/>
       <use xlink:href="#Helvetica-30" x="111.230469"/>
      </g>
     </g>
    </g>
    <g id="ytick_7">
     <g id="line2d_7">
      <g>
       <use xlink:href="#m9705eab515" x="10.005084" y="4.076256" style="fill: #777777; stroke: #777777; stroke-width: 0.5"/>
      </g>
     </g>
     <g id="text_14">
      <!-- 120 -->
      <g style="fill: #333333" transform="translate(3.00024 5.152271) scale(0.03 -0.03)">
       <use xlink:href="#Helvetica-31"/>
       <use xlink:href="#Helvetica-32" x="55.615234"/>
       <use xlink:href="#Helvetica-30" x="111.230469"/>
      </g>
     </g>
    </g>
   </g>
   <g id="PolyCollection_1">
    <defs>
     <path id="m95684db2bd" d="M 24.781084 -37.042384 
L 21.656895 -37.042384 
L 21.243327 -37.223631 
L 20.760381 -37.404878 
L 20.208053 -37.586124 
L 19.589746 -37.767371 
L 18.912713 -37.948618 
L 18.188258 -38.129864 
L 17.431658 -38.311111 
L 16.661737 -38.492358 
L 15.900124 -38.673605 
L 15.170195 -38.854851 
L 14.495794 -39.036098 
L 13.899804 -39.217345 
L 13.402716 -39.398591 
L 13.021305 -39.579838 
L 12.767546 -39.761085 
L 12.647865 -39.942331 
L 12.662805 -40.123578 
L 12.807124 -40.304825 
L 13.070316 -40.486072 
L 13.437482 -40.667318 
L 13.890465 -40.848565 
L 14.409121 -41.029812 
L 14.972601 -41.211058 
L 15.560516 -41.392305 
L 16.153892 -41.573552 
L 16.735852 -41.754798 
L 17.291984 -41.936045 
L 17.81044 -42.117292 
L 18.281774 -42.298539 
L 18.698626 -42.479785 
L 19.055312 -42.661032 
L 19.347412 -42.842279 
L 19.571419 -43.023525 
L 19.724489 -43.204772 
L 19.804334 -43.386019 
L 19.809248 -43.567265 
L 19.738256 -43.748512 
L 19.59137 -43.929759 
L 19.369909 -44.111005 
L 19.076875 -44.292252 
L 18.717307 -44.473499 
L 18.29862 -44.654746 
L 17.830843 -44.835992 
L 17.326723 -45.017239 
L 16.801645 -45.198486 
L 16.273307 -45.379732 
L 15.76114 -45.560979 
L 15.285463 -45.742226 
L 14.866406 -45.923472 
L 14.52269 -46.104719 
L 14.270369 -46.285966 
L 14.121663 -46.467213 
L 14.084043 -46.648459 
L 14.15966 -46.829706 
L 14.345231 -47.010953 
L 14.632385 -47.192199 
L 15.008446 -47.373446 
L 15.457554 -47.554693 
L 15.961983 -47.735939 
L 16.503505 -47.917186 
L 17.06463 -48.098433 
L 17.629603 -48.27968 
L 18.185078 -48.460926 
L 18.72043 -48.642173 
L 19.227738 -48.82342 
L 19.701504 -49.004666 
L 20.138198 -49.185913 
L 20.53573 -49.36716 
L 20.89295 -49.548406 
L 21.209228 -49.729653 
L 21.484174 -49.9109 
L 21.717503 -50.092146 
L 21.909036 -50.273393 
L 22.058812 -50.45464 
L 22.167273 -50.635887 
L 22.235481 -50.817133 
L 22.265333 -50.99838 
L 22.259734 -51.179627 
L 22.222707 -51.360873 
L 22.159412 -51.54212 
L 22.076064 -51.723367 
L 21.97974 -51.904613 
L 21.878087 -52.08586 
L 21.778936 -52.267107 
L 21.689859 -52.448354 
L 21.617705 -52.6296 
L 21.568156 -52.810847 
L 21.545355 -52.992094 
L 21.551652 -53.17334 
L 21.587485 -53.354587 
L 21.651432 -53.535834 
L 21.740408 -53.71708 
L 21.850003 -53.898327 
L 21.974901 -54.079574 
L 22.109358 -54.260821 
L 22.247656 -54.442067 
L 22.384521 -54.623314 
L 22.515433 -54.804561 
L 22.636846 -54.985807 
L 23.801133 -54.985807 
L 23.801133 -54.985807 
L 23.922545 -54.804561 
L 24.053458 -54.623314 
L 24.190322 -54.442067 
L 24.328621 -54.260821 
L 24.463077 -54.079574 
L 24.587976 -53.898327 
L 24.69757 -53.71708 
L 24.786547 -53.535834 
L 24.850494 -53.354587 
L 24.886327 -53.17334 
L 24.892623 -52.992094 
L 24.869823 -52.810847 
L 24.820273 -52.6296 
L 24.748119 -52.448354 
L 24.659042 -52.267107 
L 24.559891 -52.08586 
L 24.458238 -51.904613 
L 24.361914 -51.723367 
L 24.278566 -51.54212 
L 24.215272 -51.360873 
L 24.178245 -51.179627 
L 24.172646 -50.99838 
L 24.202497 -50.817133 
L 24.270705 -50.635887 
L 24.379166 -50.45464 
L 24.528942 -50.273393 
L 24.720475 -50.092146 
L 24.953804 -49.9109 
L 25.228751 -49.729653 
L 25.545028 -49.548406 
L 25.902248 -49.36716 
L 26.299781 -49.185913 
L 26.736474 -49.004666 
L 27.21024 -48.82342 
L 27.717549 -48.642173 
L 28.252901 -48.460926 
L 28.808375 -48.27968 
L 29.373348 -48.098433 
L 29.934473 -47.917186 
L 30.475995 -47.735939 
L 30.980425 -47.554693 
L 31.429532 -47.373446 
L 31.805593 -47.192199 
L 32.092747 -47.010953 
L 32.278318 -46.829706 
L 32.353935 -46.648459 
L 32.316315 -46.467213 
L 32.16761 -46.285966 
L 31.915288 -46.104719 
L 31.571573 -45.923472 
L 31.152515 -45.742226 
L 30.676838 -45.560979 
L 30.164672 -45.379732 
L 29.636334 -45.198486 
L 29.111255 -45.017239 
L 28.607136 -44.835992 
L 28.139358 -44.654746 
L 27.720672 -44.473499 
L 27.361104 -44.292252 
L 27.068069 -44.111005 
L 26.846609 -43.929759 
L 26.699722 -43.748512 
L 26.62873 -43.567265 
L 26.633644 -43.386019 
L 26.71349 -43.204772 
L 26.866559 -43.023525 
L 27.090566 -42.842279 
L 27.382666 -42.661032 
L 27.739352 -42.479785 
L 28.156204 -42.298539 
L 28.627538 -42.117292 
L 29.145994 -41.936045 
L 29.702127 -41.754798 
L 30.284086 -41.573552 
L 30.877462 -41.392305 
L 31.465377 -41.211058 
L 32.028857 -41.029812 
L 32.547514 -40.848565 
L 33.000496 -40.667318 
L 33.367662 -40.486072 
L 33.630854 -40.304825 
L 33.775174 -40.123578 
L 33.790114 -39.942331 
L 33.670432 -39.761085 
L 33.416673 -39.579838 
L 33.035263 -39.398591 
L 32.538175 -39.217345 
L 31.942184 -39.036098 
L 31.267783 -38.854851 
L 30.537855 -38.673605 
L 29.776241 -38.492358 
L 29.006321 -38.311111 
L 28.24972 -38.129864 
L 27.525266 -37.948618 
L 26.848232 -37.767371 
L 26.229926 -37.586124 
L 25.677598 -37.404878 
L 25.194651 -37.223631 
L 24.781084 -37.042384 
z
" style="stroke: #6f6f6f; stroke-width: 0.15"/>
    </defs>
    <g clip-path="url(#p63cc134e70)">
     <use xlink:href="#m95684db2bd" x="0" y="84.96" style="fill: #abc9ea; stroke: #6f6f6f; stroke-width: 0.15"/>
    </g>
   </g>
   <g id="PolyCollection_2">
    <defs>
     <path id="ma839281e81" d="M 51.150019 -35.419815 
L 48.143581 -35.419815 
L 47.71353 -35.690772 
L 47.210847 -35.961728 
L 46.638983 -36.232684 
L 46.006441 -36.50364 
L 45.327083 -36.774596 
L 44.619918 -37.045552 
L 43.908336 -37.316509 
L 43.218769 -37.587465 
L 42.578873 -37.858421 
L 42.015401 -38.129377 
L 41.551952 -38.400333 
L 41.206892 -38.671289 
L 40.991653 -38.942246 
L 40.909641 -39.213202 
L 40.955888 -39.484158 
L 41.117473 -39.755114 
L 41.374658 -40.02607 
L 41.7026 -40.297026 
L 42.073394 -40.567982 
L 42.458237 -40.838939 
L 42.829455 -41.109895 
L 43.162212 -41.380851 
L 43.435781 -41.651807 
L 43.634327 -41.922763 
L 43.747218 -42.193719 
L 43.76894 -42.464676 
L 43.698716 -42.735632 
L 43.539949 -43.006588 
L 43.299576 -43.277544 
L 42.987427 -43.5485 
L 42.615643 -43.819456 
L 42.198165 -44.090413 
L 41.750317 -44.361369 
L 41.288443 -44.632325 
L 40.829569 -44.903281 
L 40.39105 -45.174237 
L 39.990161 -45.445193 
L 39.643605 -45.716149 
L 39.366927 -45.987106 
L 39.173865 -46.258062 
L 39.075676 -46.529018 
L 39.08051 -46.799974 
L 39.1929 -47.07093 
L 39.413442 -47.341886 
L 39.738706 -47.612843 
L 40.161404 -47.883799 
L 40.670801 -48.154755 
L 41.25331 -48.425711 
L 41.893239 -48.696667 
L 42.5736 -48.967623 
L 43.276925 -49.23858 
L 43.986049 -49.509536 
L 44.684806 -49.780492 
L 45.358637 -50.051448 
L 45.995077 -50.322404 
L 46.584114 -50.59336 
L 47.118412 -50.864317 
L 47.593388 -51.135273 
L 48.007132 -51.406229 
L 48.360195 -51.677185 
L 48.655236 -51.948141 
L 48.896585 -52.219097 
L 49.089744 -52.490053 
L 49.240885 -52.76101 
L 49.356364 -53.031966 
L 49.442313 -53.302922 
L 49.504305 -53.573878 
L 49.547116 -53.844834 
L 49.574578 -54.11579 
L 49.589501 -54.386747 
L 49.59367 -54.657703 
L 49.587884 -54.928659 
L 49.572045 -55.199615 
L 49.545294 -55.470571 
L 49.506194 -55.741527 
L 49.452969 -56.012484 
L 49.383808 -56.28344 
L 49.297221 -56.554396 
L 49.192434 -56.825352 
L 49.069784 -57.096308 
L 48.931057 -57.367264 
L 48.77972 -57.63822 
L 48.620979 -57.909177 
L 48.461616 -58.180133 
L 48.309595 -58.451089 
L 48.173447 -58.722045 
L 48.0615 -58.993001 
L 47.981042 -59.263957 
L 47.93754 -59.534914 
L 47.934026 -59.80587 
L 47.970748 -60.076826 
L 48.045139 -60.347782 
L 48.152117 -60.618738 
L 48.284655 -60.889694 
L 48.434547 -61.160651 
L 48.593241 -61.431607 
L 48.752631 -61.702563 
L 48.905701 -61.973519 
L 49.046969 -62.244475 
L 50.246631 -62.244475 
L 50.246631 -62.244475 
L 50.387899 -61.973519 
L 50.540969 -61.702563 
L 50.700359 -61.431607 
L 50.859053 -61.160651 
L 51.008945 -60.889694 
L 51.141483 -60.618738 
L 51.248461 -60.347782 
L 51.322852 -60.076826 
L 51.359574 -59.80587 
L 51.356061 -59.534914 
L 51.312559 -59.263957 
L 51.2321 -58.993001 
L 51.120153 -58.722045 
L 50.984005 -58.451089 
L 50.831984 -58.180133 
L 50.672621 -57.909177 
L 50.51388 -57.63822 
L 50.362543 -57.367264 
L 50.223816 -57.096308 
L 50.101166 -56.825352 
L 49.99638 -56.554396 
L 49.909792 -56.28344 
L 49.840631 -56.012484 
L 49.787406 -55.741527 
L 49.748306 -55.470571 
L 49.721555 -55.199615 
L 49.705716 -54.928659 
L 49.69993 -54.657703 
L 49.704099 -54.386747 
L 49.719022 -54.11579 
L 49.746484 -53.844834 
L 49.789296 -53.573878 
L 49.851287 -53.302922 
L 49.937236 -53.031966 
L 50.052715 -52.76101 
L 50.203856 -52.490053 
L 50.397016 -52.219097 
L 50.638364 -51.948141 
L 50.933405 -51.677185 
L 51.286468 -51.406229 
L 51.700213 -51.135273 
L 52.175188 -50.864317 
L 52.709486 -50.59336 
L 53.298523 -50.322404 
L 53.934963 -50.051448 
L 54.608794 -49.780492 
L 55.307551 -49.509536 
L 56.016675 -49.23858 
L 56.72 -48.967623 
L 57.400361 -48.696667 
L 58.040291 -48.425711 
L 58.622799 -48.154755 
L 59.132196 -47.883799 
L 59.554894 -47.612843 
L 59.880158 -47.341886 
L 60.1007 -47.07093 
L 60.21309 -46.799974 
L 60.217924 -46.529018 
L 60.119735 -46.258062 
L 59.926673 -45.987106 
L 59.649995 -45.716149 
L 59.303439 -45.445193 
L 58.90255 -45.174237 
L 58.464031 -44.903281 
L 58.005157 -44.632325 
L 57.543283 -44.361369 
L 57.095435 -44.090413 
L 56.677957 -43.819456 
L 56.306173 -43.5485 
L 55.994025 -43.277544 
L 55.753651 -43.006588 
L 55.594884 -42.735632 
L 55.52466 -42.464676 
L 55.546382 -42.193719 
L 55.659273 -41.922763 
L 55.857819 -41.651807 
L 56.131389 -41.380851 
L 56.464145 -41.109895 
L 56.835363 -40.838939 
L 57.220206 -40.567982 
L 57.591 -40.297026 
L 57.918942 -40.02607 
L 58.176127 -39.755114 
L 58.337712 -39.484158 
L 58.383959 -39.213202 
L 58.301947 -38.942246 
L 58.086708 -38.671289 
L 57.741648 -38.400333 
L 57.2782 -38.129377 
L 56.714727 -37.858421 
L 56.074832 -37.587465 
L 55.385264 -37.316509 
L 54.673682 -37.045552 
L 53.966517 -36.774596 
L 53.287159 -36.50364 
L 52.654617 -36.232684 
L 52.082753 -35.961728 
L 51.58007 -35.690772 
L 51.150019 -35.419815 
z
" style="stroke: #6f6f6f; stroke-width: 0.15"/>
    </defs>
    <g clip-path="url(#p63cc134e70)">
     <use xlink:href="#ma839281e81" x="0" y="84.96" style="fill: #efb792; stroke: #6f6f6f; stroke-width: 0.15"/>
    </g>
   </g>
   <g id="PolyCollection_3">
    <defs>
     <path id="m8b4aee6d25" d="M 78.47201 -34.090673 
L 73.677212 -34.090673 
L 73.103965 -34.340081 
L 72.45609 -34.589488 
L 71.741494 -34.838896 
L 70.973276 -35.088304 
L 70.169701 -35.337711 
L 69.353692 -35.587119 
L 68.551783 -35.836527 
L 67.79261 -36.085934 
L 67.105001 -36.335342 
L 66.515868 -36.58475 
L 66.048068 -36.834158 
L 65.718498 -37.083565 
L 65.536604 -37.332973 
L 65.503487 -37.582381 
L 65.611706 -37.831788 
L 65.845789 -38.081196 
L 66.183377 -38.330604 
L 66.596889 -38.580011 
L 67.055485 -38.829419 
L 67.52716 -39.078827 
L 67.980755 -39.328234 
L 68.387752 -39.577642 
L 68.723741 -39.82705 
L 68.969528 -40.076457 
L 69.111883 -40.325865 
L 69.143966 -40.575273 
L 69.065466 -40.824681 
L 68.882503 -41.074088 
L 68.607292 -41.323496 
L 68.257587 -41.572904 
L 67.855854 -41.822311 
L 67.428183 -42.071719 
L 67.00292 -42.321127 
L 66.609045 -42.570534 
L 66.274377 -42.819942 
L 66.023718 -43.06935 
L 65.877071 -43.318757 
L 65.848116 -43.568165 
L 65.943081 -43.817573 
L 66.160148 -44.06698 
L 66.489483 -44.316388 
L 66.91388 -44.565796 
L 67.410006 -44.815204 
L 67.950122 -45.064611 
L 68.504126 -45.314019 
L 69.041765 -45.563427 
L 69.534787 -45.812834 
L 69.958909 -46.062242 
L 70.295403 -46.31165 
L 70.532234 -46.561057 
L 70.664645 -46.810465 
L 70.695199 -47.059873 
L 70.633269 -47.30928 
L 70.494067 -47.558688 
L 70.297275 -47.808096 
L 70.065428 -48.057503 
L 69.822165 -48.306911 
L 69.590513 -48.556319 
L 69.391318 -48.805727 
L 69.241976 -49.055134 
L 69.155522 -49.304542 
L 69.140142 -49.55395 
L 69.199114 -49.803357 
L 69.331126 -50.052765 
L 69.530896 -50.302173 
L 69.790006 -50.55158 
L 70.097812 -50.800988 
L 70.442359 -51.050396 
L 70.811188 -51.299803 
L 71.192013 -51.549211 
L 71.573225 -51.798619 
L 71.944248 -52.048026 
L 72.295779 -52.297434 
L 72.61995 -52.546842 
L 72.910453 -52.79625 
L 73.162653 -53.045657 
L 73.373702 -53.295065 
L 73.542649 -53.544473 
L 73.670496 -53.79388 
L 73.760206 -54.043288 
L 73.816587 -54.292696 
L 73.846059 -54.542103 
L 73.856289 -54.791511 
L 73.855695 -55.040919 
L 73.852871 -55.290326 
L 73.855979 -55.539734 
L 73.87216 -55.789142 
L 73.907037 -56.038549 
L 73.964349 -56.287957 
L 74.045774 -56.537365 
L 74.150927 -56.786773 
L 74.277549 -57.03618 
L 74.421848 -57.285588 
L 74.578942 -57.534996 
L 74.743363 -57.784403 
L 74.909548 -58.033811 
L 75.072283 -58.283219 
L 75.227053 -58.532626 
L 75.370283 -58.782034 
L 76.778939 -58.782034 
L 76.778939 -58.782034 
L 76.922169 -58.532626 
L 77.076939 -58.283219 
L 77.239674 -58.033811 
L 77.405859 -57.784403 
L 77.57028 -57.534996 
L 77.727374 -57.285588 
L 77.871673 -57.03618 
L 77.998295 -56.786773 
L 78.103448 -56.537365 
L 78.184873 -56.287957 
L 78.242185 -56.038549 
L 78.277061 -55.789142 
L 78.293243 -55.539734 
L 78.296351 -55.290326 
L 78.293527 -55.040919 
L 78.292932 -54.791511 
L 78.303163 -54.542103 
L 78.332635 -54.292696 
L 78.389016 -54.043288 
L 78.478726 -53.79388 
L 78.606573 -53.544473 
L 78.77552 -53.295065 
L 78.986569 -53.045657 
L 79.238769 -52.79625 
L 79.529272 -52.546842 
L 79.853443 -52.297434 
L 80.204974 -52.048026 
L 80.575997 -51.798619 
L 80.957209 -51.549211 
L 81.338034 -51.299803 
L 81.706863 -51.050396 
L 82.05141 -50.800988 
L 82.359216 -50.55158 
L 82.618326 -50.302173 
L 82.818096 -50.052765 
L 82.950108 -49.803357 
L 83.00908 -49.55395 
L 82.9937 -49.304542 
L 82.907245 -49.055134 
L 82.757904 -48.805727 
L 82.558709 -48.556319 
L 82.327057 -48.306911 
L 82.083794 -48.057503 
L 81.851947 -47.808096 
L 81.655155 -47.558688 
L 81.515953 -47.30928 
L 81.454023 -47.059873 
L 81.484577 -46.810465 
L 81.616988 -46.561057 
L 81.853819 -46.31165 
L 82.190313 -46.062242 
L 82.614435 -45.812834 
L 83.107457 -45.563427 
L 83.645096 -45.314019 
L 84.1991 -45.064611 
L 84.739215 -44.815204 
L 85.235342 -44.565796 
L 85.659739 -44.316388 
L 85.989074 -44.06698 
L 86.206141 -43.817573 
L 86.301106 -43.568165 
L 86.272151 -43.318757 
L 86.125504 -43.06935 
L 85.874845 -42.819942 
L 85.540177 -42.570534 
L 85.146302 -42.321127 
L 84.721039 -42.071719 
L 84.293368 -41.822311 
L 83.891635 -41.572904 
L 83.54193 -41.323496 
L 83.266719 -41.074088 
L 83.083756 -40.824681 
L 83.005256 -40.575273 
L 83.037339 -40.325865 
L 83.179694 -40.076457 
L 83.425481 -39.82705 
L 83.76147 -39.577642 
L 84.168467 -39.328234 
L 84.622062 -39.078827 
L 85.093737 -38.829419 
L 85.552333 -38.580011 
L 85.965845 -38.330604 
L 86.303433 -38.081196 
L 86.537516 -37.831788 
L 86.645735 -37.582381 
L 86.612618 -37.332973 
L 86.430724 -37.083565 
L 86.101154 -36.834158 
L 85.633354 -36.58475 
L 85.04422 -36.335342 
L 84.356612 -36.085934 
L 83.597439 -35.836527 
L 82.79553 -35.587119 
L 81.979521 -35.337711 
L 81.175946 -35.088304 
L 80.407728 -34.838896 
L 79.693132 -34.589488 
L 79.045257 -34.340081 
L 78.47201 -34.090673 
z
" style="stroke: #6f6f6f; stroke-width: 0.15"/>
    </defs>
    <g clip-path="url(#p63cc134e70)">
     <use xlink:href="#m8b4aee6d25" x="0" y="84.96" style="fill: #98daa7; stroke: #6f6f6f; stroke-width: 0.15"/>
    </g>
   </g>
   <g id="PolyCollection_4">
    <defs>
     <path id="m417618ee20" d="M 104.006992 -36.500784 
L 100.997852 -36.500784 
L 100.680005 -36.510062 
L 100.319653 -36.51934 
L 99.91674 -36.528617 
L 99.472473 -36.537895 
L 98.98942 -36.547172 
L 98.471575 -36.55645 
L 97.924338 -36.565728 
L 97.354446 -36.575005 
L 96.76983 -36.584283 
L 96.179413 -36.593561 
L 95.592865 -36.602838 
L 95.020306 -36.612116 
L 94.471979 -36.621394 
L 93.957908 -36.630671 
L 93.487537 -36.639949 
L 93.06937 -36.649226 
L 92.710619 -36.658504 
L 92.416867 -36.667782 
L 92.191769 -36.677059 
L 92.036803 -36.686337 
L 91.951089 -36.695615 
L 91.931298 -36.704892 
L 91.971678 -36.71417 
L 92.064212 -36.723447 
L 92.198912 -36.732725 
L 92.364266 -36.742003 
L 92.547809 -36.75128 
L 92.736814 -36.760558 
L 92.919036 -36.769836 
L 93.083489 -36.779113 
L 93.221177 -36.788391 
L 93.325724 -36.797669 
L 93.393851 -36.806946 
L 93.425647 -36.816224 
L 93.424609 -36.825501 
L 93.39744 -36.834779 
L 93.353605 -36.844057 
L 93.304693 -36.853334 
L 93.263615 -36.862612 
L 93.243715 -36.87189 
L 93.257858 -36.881167 
L 93.317558 -36.890445 
L 93.432224 -36.899722 
L 93.60857 -36.909 
L 93.850224 -36.918278 
L 94.157559 -36.927555 
L 94.527754 -36.936833 
L 94.955046 -36.946111 
L 95.431174 -36.955388 
L 95.945939 -36.964666 
L 96.487847 -36.973944 
L 97.044789 -36.983221 
L 97.604686 -36.992499 
L 98.15608 -37.001776 
L 98.688619 -37.011054 
L 99.193418 -37.020332 
L 99.663294 -37.029609 
L 100.09286 -37.038887 
L 100.478494 -37.048165 
L 100.818204 -37.057442 
L 101.111417 -37.06672 
L 101.358705 -37.075997 
L 101.561489 -37.085275 
L 101.721747 -37.094553 
L 101.841742 -37.10383 
L 101.923799 -37.113108 
L 101.970142 -37.122386 
L 101.982795 -37.131663 
L 101.963555 -37.140941 
L 101.914038 -37.150219 
L 101.835775 -37.159496 
L 101.730359 -37.168774 
L 101.599625 -37.178051 
L 101.445827 -37.187329 
L 101.27181 -37.196607 
L 101.081141 -37.205884 
L 100.878183 -37.215162 
L 100.668102 -37.22444 
L 100.456786 -37.233717 
L 100.250681 -37.242995 
L 100.056552 -37.252272 
L 99.881173 -37.26155 
L 99.730984 -37.270828 
L 99.61173 -37.280105 
L 99.528117 -37.289383 
L 99.483523 -37.298661 
L 99.479779 -37.307938 
L 99.517056 -37.317216 
L 99.593853 -37.326494 
L 99.707103 -37.335771 
L 99.852378 -37.345049 
L 100.024178 -37.354326 
L 100.216274 -37.363604 
L 100.422085 -37.372882 
L 100.635044 -37.382159 
L 100.848939 -37.391437 
L 101.058193 -37.400715 
L 101.258075 -37.409992 
L 101.444836 -37.41927 
L 103.560008 -37.41927 
L 103.560008 -37.41927 
L 103.746769 -37.409992 
L 103.946651 -37.400715 
L 104.155904 -37.391437 
L 104.3698 -37.382159 
L 104.582759 -37.372882 
L 104.78857 -37.363604 
L 104.980666 -37.354326 
L 105.152466 -37.345049 
L 105.297741 -37.335771 
L 105.410991 -37.326494 
L 105.487788 -37.317216 
L 105.525064 -37.307938 
L 105.521321 -37.298661 
L 105.476726 -37.289383 
L 105.393114 -37.280105 
L 105.273859 -37.270828 
L 105.123671 -37.26155 
L 104.948292 -37.252272 
L 104.754162 -37.242995 
L 104.548058 -37.233717 
L 104.336742 -37.22444 
L 104.126661 -37.215162 
L 103.923703 -37.205884 
L 103.733033 -37.196607 
L 103.559016 -37.187329 
L 103.405219 -37.178051 
L 103.274485 -37.168774 
L 103.169069 -37.159496 
L 103.090805 -37.150219 
L 103.041288 -37.140941 
L 103.022049 -37.131663 
L 103.034702 -37.122386 
L 103.081045 -37.113108 
L 103.163102 -37.10383 
L 103.283097 -37.094553 
L 103.443354 -37.085275 
L 103.646139 -37.075997 
L 103.893427 -37.06672 
L 104.18664 -37.057442 
L 104.52635 -37.048165 
L 104.911983 -37.038887 
L 105.341549 -37.029609 
L 105.811426 -37.020332 
L 106.316225 -37.011054 
L 106.848763 -37.001776 
L 107.400157 -36.992499 
L 107.960055 -36.983221 
L 108.516997 -36.973944 
L 109.058905 -36.964666 
L 109.573669 -36.955388 
L 110.049798 -36.946111 
L 110.47709 -36.936833 
L 110.847284 -36.927555 
L 111.15462 -36.918278 
L 111.396274 -36.909 
L 111.57262 -36.899722 
L 111.687286 -36.890445 
L 111.746986 -36.881167 
L 111.761128 -36.87189 
L 111.741229 -36.862612 
L 111.700151 -36.853334 
L 111.651239 -36.844057 
L 111.607404 -36.834779 
L 111.580235 -36.825501 
L 111.579197 -36.816224 
L 111.610993 -36.806946 
L 111.679119 -36.797669 
L 111.783667 -36.788391 
L 111.921355 -36.779113 
L 112.085808 -36.769836 
L 112.26803 -36.760558 
L 112.457034 -36.75128 
L 112.640578 -36.742003 
L 112.805932 -36.732725 
L 112.940632 -36.723447 
L 113.033166 -36.71417 
L 113.073546 -36.704892 
L 113.053755 -36.695615 
L 112.968041 -36.686337 
L 112.813075 -36.677059 
L 112.587977 -36.667782 
L 112.294225 -36.658504 
L 111.935473 -36.649226 
L 111.517307 -36.639949 
L 111.046936 -36.630671 
L 110.532865 -36.621394 
L 109.984538 -36.612116 
L 109.411978 -36.602838 
L 108.825431 -36.593561 
L 108.235014 -36.584283 
L 107.650397 -36.575005 
L 107.080506 -36.565728 
L 106.533269 -36.55645 
L 106.015423 -36.547172 
L 105.532371 -36.537895 
L 105.088103 -36.528617 
L 104.685191 -36.51934 
L 104.324839 -36.510062 
L 104.006992 -36.500784 
z
" style="stroke: #6f6f6f; stroke-width: 0.15"/>
    </defs>
    <g clip-path="url(#p63cc134e70)">
     <use xlink:href="#m417618ee20" x="0" y="84.96" style="fill: #f2aba8; stroke: #6f6f6f; stroke-width: 0.15"/>
    </g>
   </g>
   <g id="PolyCollection_5">
    <defs>
     <path id="m1067653dc9" d="M 129.858448 -36.281357 
L 128.002018 -36.281357 
L 127.828435 -36.307566 
L 127.63784 -36.333774 
L 127.43178 -36.359983 
L 127.212395 -36.386192 
L 126.982329 -36.4124 
L 126.744593 -36.438609 
L 126.502379 -36.464817 
L 126.25885 -36.491026 
L 126.016908 -36.517234 
L 125.778959 -36.543443 
L 125.546703 -36.569652 
L 125.320961 -36.59586 
L 125.101551 -36.622069 
L 124.887236 -36.648277 
L 124.675743 -36.674486 
L 124.463854 -36.700695 
L 124.247579 -36.726903 
L 124.022392 -36.753112 
L 123.783532 -36.77932 
L 123.526352 -36.805529 
L 123.246695 -36.831738 
L 122.9413 -36.857946 
L 122.608198 -36.884155 
L 122.247077 -36.910363 
L 121.859606 -36.936572 
L 121.449668 -36.962781 
L 121.023488 -36.988989 
L 120.589619 -37.015198 
L 120.158778 -37.041406 
L 119.743509 -37.067615 
L 119.357683 -37.093824 
L 119.015848 -37.120032 
L 118.73247 -37.146241 
L 118.521102 -37.172449 
L 118.393553 -37.198658 
L 118.359108 -37.224867 
L 118.423879 -37.251075 
L 118.590321 -37.277284 
L 118.85698 -37.303492 
L 119.218481 -37.329701 
L 119.665755 -37.35591 
L 120.186497 -37.382118 
L 120.765811 -37.408327 
L 121.386983 -37.434535 
L 122.032332 -37.460744 
L 122.684062 -37.486953 
L 123.325074 -37.513161 
L 123.939673 -37.53937 
L 124.51414 -37.565578 
L 125.037162 -37.591787 
L 125.50009 -37.617996 
L 125.897057 -37.644204 
L 126.224957 -37.670413 
L 126.483311 -37.696621 
L 126.674052 -37.72283 
L 126.801233 -37.749039 
L 126.870699 -37.775247 
L 126.889721 -37.801456 
L 126.866614 -37.827664 
L 126.810338 -37.853873 
L 126.730098 -37.880082 
L 126.634949 -37.90629 
L 126.53341 -37.932499 
L 126.433108 -37.958707 
L 126.34047 -37.984916 
L 126.260476 -38.011125 
L 126.196489 -38.037333 
L 126.150191 -38.063542 
L 126.121618 -38.08975 
L 126.109314 -38.115959 
L 126.110578 -38.142168 
L 126.12181 -38.168376 
L 126.138915 -38.194585 
L 126.157738 -38.220793 
L 126.174493 -38.247002 
L 126.186151 -38.273211 
L 126.190748 -38.299419 
L 126.187589 -38.325628 
L 126.177329 -38.351836 
L 126.161923 -38.378045 
L 126.144458 -38.404254 
L 126.128872 -38.430462 
L 126.1196 -38.456671 
L 126.121183 -38.482879 
L 126.13786 -38.509088 
L 126.173207 -38.535297 
L 126.229832 -38.561505 
L 126.309165 -38.587714 
L 126.411353 -38.613922 
L 126.535266 -38.640131 
L 126.678598 -38.666339 
L 126.838067 -38.692548 
L 127.009668 -38.718757 
L 127.188962 -38.744965 
L 127.37138 -38.771174 
L 127.552502 -38.797382 
L 127.728297 -38.823591 
L 127.895314 -38.8498 
L 128.050804 -38.876008 
L 129.809662 -38.876008 
L 129.809662 -38.876008 
L 129.965152 -38.8498 
L 130.132169 -38.823591 
L 130.307964 -38.797382 
L 130.489085 -38.771174 
L 130.671503 -38.744965 
L 130.850797 -38.718757 
L 131.022398 -38.692548 
L 131.181868 -38.666339 
L 131.3252 -38.640131 
L 131.449112 -38.613922 
L 131.5513 -38.587714 
L 131.630633 -38.561505 
L 131.687258 -38.535297 
L 131.722605 -38.509088 
L 131.739283 -38.482879 
L 131.740865 -38.456671 
L 131.731594 -38.430462 
L 131.716007 -38.404254 
L 131.698542 -38.378045 
L 131.683137 -38.351836 
L 131.672876 -38.325628 
L 131.669717 -38.299419 
L 131.674314 -38.273211 
L 131.685972 -38.247002 
L 131.702728 -38.220793 
L 131.721551 -38.194585 
L 131.738656 -38.168376 
L 131.749888 -38.142168 
L 131.751152 -38.115959 
L 131.738847 -38.08975 
L 131.710275 -38.063542 
L 131.663977 -38.037333 
L 131.59999 -38.011125 
L 131.519995 -37.984916 
L 131.427358 -37.958707 
L 131.327056 -37.932499 
L 131.225516 -37.90629 
L 131.130367 -37.880082 
L 131.050128 -37.853873 
L 130.993851 -37.827664 
L 130.970744 -37.801456 
L 130.989766 -37.775247 
L 131.059232 -37.749039 
L 131.186413 -37.72283 
L 131.377154 -37.696621 
L 131.635509 -37.670413 
L 131.963408 -37.644204 
L 132.360375 -37.617996 
L 132.823303 -37.591787 
L 133.346325 -37.565578 
L 133.920793 -37.53937 
L 134.535391 -37.513161 
L 135.176404 -37.486953 
L 135.828134 -37.460744 
L 136.473482 -37.434535 
L 137.094655 -37.408327 
L 137.673968 -37.382118 
L 138.194711 -37.35591 
L 138.641984 -37.329701 
L 139.003485 -37.303492 
L 139.270145 -37.277284 
L 139.436587 -37.251075 
L 139.501357 -37.224867 
L 139.466913 -37.198658 
L 139.339364 -37.172449 
L 139.127996 -37.146241 
L 138.844617 -37.120032 
L 138.502782 -37.093824 
L 138.116956 -37.067615 
L 137.701687 -37.041406 
L 137.270847 -37.015198 
L 136.836978 -36.988989 
L 136.410797 -36.962781 
L 136.000859 -36.936572 
L 135.613388 -36.910363 
L 135.252268 -36.884155 
L 134.919165 -36.857946 
L 134.613771 -36.831738 
L 134.334114 -36.805529 
L 134.076933 -36.77932 
L 133.838074 -36.753112 
L 133.612887 -36.726903 
L 133.396611 -36.700695 
L 133.184722 -36.674486 
L 132.973229 -36.648277 
L 132.758915 -36.622069 
L 132.539505 -36.59586 
L 132.313763 -36.569652 
L 132.081507 -36.543443 
L 131.843558 -36.517234 
L 131.601615 -36.491026 
L 131.358087 -36.464817 
L 131.115873 -36.438609 
L 130.878136 -36.4124 
L 130.648071 -36.386192 
L 130.428686 -36.359983 
L 130.222626 -36.333774 
L 130.03203 -36.307566 
L 129.858448 -36.281357 
z
" style="stroke: #6f6f6f; stroke-width: 0.15"/>
    </defs>
    <g clip-path="url(#p63cc134e70)">
     <use xlink:href="#m1067653dc9" x="0" y="84.96" style="fill: #d3c4f6; stroke: #6f6f6f; stroke-width: 0.15"/>
    </g>
   </g>
   <g id="PolyCollection_6">
    <defs>
     <path id="m82d4876907" d="M 156.232899 -36.079143 
L 154.483188 -36.079143 
L 154.316151 -36.125437 
L 154.132211 -36.17173 
L 153.932583 -36.218024 
L 153.718868 -36.264317 
L 153.49289 -36.310611 
L 153.256494 -36.356905 
L 153.011305 -36.403198 
L 152.758485 -36.449492 
L 152.498511 -36.495786 
L 152.231009 -36.542079 
L 151.95468 -36.588373 
L 151.667328 -36.634667 
L 151.366019 -36.68096 
L 151.047369 -36.727254 
L 150.707931 -36.773547 
L 150.344672 -36.819841 
L 149.955483 -36.866135 
L 149.539669 -36.912428 
L 149.098381 -36.958722 
L 148.634925 -37.005016 
L 148.154908 -37.051309 
L 147.666216 -37.097603 
L 147.178789 -37.143897 
L 146.704232 -37.19019 
L 146.255274 -37.236484 
L 145.845126 -37.282778 
L 145.486789 -37.329071 
L 145.192355 -37.375365 
L 144.972365 -37.421658 
L 144.835255 -37.467952 
L 144.786919 -37.514246 
L 144.830415 -37.560539 
L 144.965808 -37.606833 
L 145.190166 -37.653127 
L 145.497679 -37.69942 
L 145.879904 -37.745714 
L 146.326112 -37.792008 
L 146.823723 -37.838301 
L 147.358813 -37.884595 
L 147.916673 -37.930888 
L 148.482407 -37.977182 
L 149.041536 -38.023476 
L 149.580591 -38.069769 
L 150.087662 -38.116063 
L 150.552887 -38.162357 
L 150.968825 -38.20865 
L 151.330724 -38.254944 
L 151.63663 -38.301238 
L 151.887353 -38.347531 
L 152.086275 -38.393825 
L 152.23901 -38.440119 
L 152.352948 -38.486412 
L 152.436702 -38.532706 
L 152.499501 -38.578999 
L 152.550573 -38.625293 
L 152.598561 -38.671587 
L 152.651005 -38.71788 
L 152.713933 -38.764174 
L 152.791573 -38.810468 
L 152.886216 -38.856761 
L 152.998201 -38.903055 
L 153.126048 -38.949349 
L 153.266689 -38.995642 
L 153.415778 -39.041936 
L 153.568066 -39.08823 
L 153.717779 -39.134523 
L 153.859007 -39.180817 
L 153.986054 -39.22711 
L 154.093744 -39.273404 
L 154.177687 -39.319698 
L 154.23447 -39.365991 
L 154.261815 -39.412285 
L 154.258666 -39.458579 
L 154.225248 -39.504872 
L 154.163069 -39.551166 
L 154.074882 -39.59746 
L 153.964605 -39.643753 
L 153.837192 -39.690047 
L 153.69845 -39.73634 
L 153.554814 -39.782634 
L 153.41307 -39.828928 
L 153.280042 -39.875221 
L 153.162264 -39.921515 
L 153.065645 -39.967809 
L 152.995151 -40.014102 
L 152.954546 -40.060396 
L 152.946189 -40.10669 
L 152.970925 -40.152983 
L 153.028072 -40.199277 
L 153.115504 -40.245571 
L 153.22983 -40.291864 
L 153.366645 -40.338158 
L 153.520843 -40.384451 
L 153.686942 -40.430745 
L 153.859424 -40.477039 
L 154.033034 -40.523332 
L 154.203041 -40.569626 
L 154.365426 -40.61592 
L 154.517006 -40.662213 
L 156.199081 -40.662213 
L 156.199081 -40.662213 
L 156.350662 -40.61592 
L 156.513047 -40.569626 
L 156.683053 -40.523332 
L 156.856664 -40.477039 
L 157.029145 -40.430745 
L 157.195245 -40.384451 
L 157.349442 -40.338158 
L 157.486258 -40.291864 
L 157.600583 -40.245571 
L 157.688015 -40.199277 
L 157.745162 -40.152983 
L 157.769899 -40.10669 
L 157.761542 -40.060396 
L 157.720937 -40.014102 
L 157.650443 -39.967809 
L 157.553823 -39.921515 
L 157.436046 -39.875221 
L 157.303018 -39.828928 
L 157.161273 -39.782634 
L 157.017637 -39.73634 
L 156.878895 -39.690047 
L 156.751482 -39.643753 
L 156.641206 -39.59746 
L 156.553019 -39.551166 
L 156.490839 -39.504872 
L 156.457421 -39.458579 
L 156.454273 -39.412285 
L 156.481617 -39.365991 
L 156.538401 -39.319698 
L 156.622343 -39.273404 
L 156.730034 -39.22711 
L 156.85708 -39.180817 
L 156.998308 -39.134523 
L 157.148021 -39.08823 
L 157.300309 -39.041936 
L 157.449399 -38.995642 
L 157.590039 -38.949349 
L 157.717887 -38.903055 
L 157.829872 -38.856761 
L 157.924514 -38.810468 
L 158.002155 -38.764174 
L 158.065082 -38.71788 
L 158.117526 -38.671587 
L 158.165514 -38.625293 
L 158.216586 -38.578999 
L 158.279385 -38.532706 
L 158.363139 -38.486412 
L 158.477077 -38.440119 
L 158.629813 -38.393825 
L 158.828734 -38.347531 
L 159.079458 -38.301238 
L 159.385363 -38.254944 
L 159.747262 -38.20865 
L 160.1632 -38.162357 
L 160.628425 -38.116063 
L 161.135497 -38.069769 
L 161.674551 -38.023476 
L 162.23368 -37.977182 
L 162.799414 -37.930888 
L 163.357275 -37.884595 
L 163.892364 -37.838301 
L 164.389975 -37.792008 
L 164.836183 -37.745714 
L 165.218408 -37.69942 
L 165.525921 -37.653127 
L 165.750279 -37.606833 
L 165.885673 -37.560539 
L 165.929168 -37.514246 
L 165.880832 -37.467952 
L 165.743723 -37.421658 
L 165.523733 -37.375365 
L 165.229298 -37.329071 
L 164.870961 -37.282778 
L 164.460814 -37.236484 
L 164.011856 -37.19019 
L 163.537299 -37.143897 
L 163.049871 -37.097603 
L 162.561179 -37.051309 
L 162.081162 -37.005016 
L 161.617706 -36.958722 
L 161.176418 -36.912428 
L 160.760604 -36.866135 
L 160.371415 -36.819841 
L 160.008157 -36.773547 
L 159.668719 -36.727254 
L 159.350068 -36.68096 
L 159.04876 -36.634667 
L 158.761407 -36.588373 
L 158.485078 -36.542079 
L 158.217577 -36.495786 
L 157.957602 -36.449492 
L 157.704782 -36.403198 
L 157.459594 -36.356905 
L 157.223197 -36.310611 
L 156.997219 -36.264317 
L 156.783504 -36.218024 
L 156.583876 -36.17173 
L 156.399936 -36.125437 
L 156.232899 -36.079143 
z
" style="stroke: #6f6f6f; stroke-width: 0.15"/>
    </defs>
    <g clip-path="url(#p63cc134e70)">
     <use xlink:href="#m82d4876907" x="0" y="84.96" style="fill: #cfcfcf; stroke: #6f6f6f; stroke-width: 0.15"/>
    </g>
   </g>
   <g id="PolyCollection_7">
    <defs>
     <path id="m1dcc34fcfc" d="M 182.836976 -55.707837 
L 180.734733 -55.707837 
L 180.558942 -55.901199 
L 180.370121 -56.094562 
L 180.170737 -56.287924 
L 179.963888 -56.481287 
L 179.753206 -56.674649 
L 179.542709 -56.868012 
L 179.33661 -57.061374 
L 179.139092 -57.254737 
L 178.954072 -57.448099 
L 178.784959 -57.641462 
L 178.634447 -57.834824 
L 178.504343 -58.028187 
L 178.395462 -58.221549 
L 178.307597 -58.414912 
L 178.239571 -58.608274 
L 178.18937 -58.801637 
L 178.154351 -58.994999 
L 178.1315 -59.188362 
L 178.11773 -59.381724 
L 178.110179 -59.575087 
L 178.106481 -59.768449 
L 178.104999 -59.961812 
L 178.104969 -60.155174 
L 178.106566 -60.348537 
L 178.110865 -60.541899 
L 178.119715 -60.735262 
L 178.135517 -60.928624 
L 178.16095 -61.121987 
L 178.198646 -61.315349 
L 178.250854 -61.508712 
L 178.319122 -61.702074 
L 178.404012 -61.895437 
L 178.50489 -62.088799 
L 178.619779 -62.282162 
L 178.745309 -62.475524 
L 178.876749 -62.668887 
L 179.008123 -62.862249 
L 179.132405 -63.055612 
L 179.241769 -63.248974 
L 179.327894 -63.442336 
L 179.382303 -63.635699 
L 179.396728 -63.829061 
L 179.363476 -64.022424 
L 179.275807 -64.215786 
L 179.128294 -64.409149 
L 178.91716 -64.602511 
L 178.640576 -64.795874 
L 178.298909 -64.989236 
L 177.894886 -65.182599 
L 177.433685 -65.375961 
L 176.922892 -65.569324 
L 176.372357 -65.762686 
L 175.793896 -65.956049 
L 175.200871 -66.149411 
L 174.607647 -66.342774 
L 174.02894 -66.536136 
L 173.479114 -66.729499 
L 172.971439 -66.922861 
L 172.517399 -67.116224 
L 172.126072 -67.309586 
L 171.803647 -67.502949 
L 171.553125 -67.696311 
L 171.374225 -67.889674 
L 171.263509 -68.083036 
L 171.21473 -68.276399 
L 171.219367 -68.469761 
L 171.267311 -68.663124 
L 171.347656 -68.856486 
L 171.449514 -69.049849 
L 171.562806 -69.243211 
L 171.678966 -69.436574 
L 171.791493 -69.629936 
L 171.896332 -69.823299 
L 171.992047 -70.016661 
L 172.079783 -70.210024 
L 172.163036 -70.403386 
L 172.247255 -70.596749 
L 172.339304 -70.790111 
L 172.446845 -70.983474 
L 172.577689 -71.176836 
L 172.739156 -71.370199 
L 172.937495 -71.563561 
L 173.17741 -71.756924 
L 173.461708 -71.950286 
L 173.791089 -72.143649 
L 174.164097 -72.337011 
L 174.577209 -72.530374 
L 175.025053 -72.723736 
L 175.50074 -72.917099 
L 175.996267 -73.110461 
L 176.502963 -73.303824 
L 177.011953 -73.497186 
L 177.514588 -73.690549 
L 178.002841 -73.883911 
L 178.469626 -74.077274 
L 178.909032 -74.270636 
L 179.316473 -74.463998 
L 179.688747 -74.657361 
L 180.024012 -74.850723 
L 183.547697 -74.850723 
L 183.547697 -74.850723 
L 183.882962 -74.657361 
L 184.255236 -74.463998 
L 184.662677 -74.270636 
L 185.102083 -74.077274 
L 185.568868 -73.883911 
L 186.057122 -73.690549 
L 186.559757 -73.497186 
L 187.068746 -73.303824 
L 187.575442 -73.110461 
L 188.070969 -72.917099 
L 188.546656 -72.723736 
L 188.9945 -72.530374 
L 189.407612 -72.337011 
L 189.78062 -72.143649 
L 190.110001 -71.950286 
L 190.394299 -71.756924 
L 190.634214 -71.563561 
L 190.832553 -71.370199 
L 190.99402 -71.176836 
L 191.124864 -70.983474 
L 191.232406 -70.790111 
L 191.324454 -70.596749 
L 191.408673 -70.403386 
L 191.491926 -70.210024 
L 191.579662 -70.016661 
L 191.675377 -69.823299 
L 191.780216 -69.629936 
L 191.892743 -69.436574 
L 192.008903 -69.243211 
L 192.122195 -69.049849 
L 192.224053 -68.856486 
L 192.304398 -68.663124 
L 192.352342 -68.469761 
L 192.356979 -68.276399 
L 192.3082 -68.083036 
L 192.197484 -67.889674 
L 192.018584 -67.696311 
L 191.768062 -67.502949 
L 191.445637 -67.309586 
L 191.05431 -67.116224 
L 190.60027 -66.922861 
L 190.092596 -66.729499 
L 189.542769 -66.536136 
L 188.964063 -66.342774 
L 188.370838 -66.149411 
L 187.777814 -65.956049 
L 187.199352 -65.762686 
L 186.648817 -65.569324 
L 186.138024 -65.375961 
L 185.676823 -65.182599 
L 185.272801 -64.989236 
L 184.931133 -64.795874 
L 184.654549 -64.602511 
L 184.443415 -64.409149 
L 184.295902 -64.215786 
L 184.208233 -64.022424 
L 184.174981 -63.829061 
L 184.189406 -63.635699 
L 184.243816 -63.442336 
L 184.32994 -63.248974 
L 184.439304 -63.055612 
L 184.563586 -62.862249 
L 184.69496 -62.668887 
L 184.8264 -62.475524 
L 184.95193 -62.282162 
L 185.066819 -62.088799 
L 185.167697 -61.895437 
L 185.252588 -61.702074 
L 185.320855 -61.508712 
L 185.373063 -61.315349 
L 185.410759 -61.121987 
L 185.436192 -60.928624 
L 185.451995 -60.735262 
L 185.460844 -60.541899 
L 185.465143 -60.348537 
L 185.46674 -60.155174 
L 185.46671 -59.961812 
L 185.465228 -59.768449 
L 185.461531 -59.575087 
L 185.453979 -59.381724 
L 185.440209 -59.188362 
L 185.417358 -58.994999 
L 185.382339 -58.801637 
L 185.332138 -58.608274 
L 185.264112 -58.414912 
L 185.176247 -58.221549 
L 185.067366 -58.028187 
L 184.937262 -57.834824 
L 184.78675 -57.641462 
L 184.617637 -57.448099 
L 184.432617 -57.254737 
L 184.235099 -57.061374 
L 184.029 -56.868012 
L 183.818504 -56.674649 
L 183.607821 -56.481287 
L 183.400972 -56.287924 
L 183.201588 -56.094562 
L 183.012767 -55.901199 
L 182.836976 -55.707837 
z
" style="stroke: #6f6f6f; stroke-width: 0.15"/>
    </defs>
    <g clip-path="url(#p63cc134e70)">
     <use xlink:href="#m1dcc34fcfc" x="0" y="84.96" style="fill: #f3f3ae; stroke: #6f6f6f; stroke-width: 0.15"/>
    </g>
   </g>
   <g id="line2d_8">
    <path d="M 23.218989 46.000774 
L 23.218989 31.891034 
" clip-path="url(#p63cc134e70)" style="fill: none; stroke: #8c8c8c; stroke-width: 0.75; stroke-linecap: round"/>
   </g>
   <g id="line2d_9">
    <path d="M 23.218989 44.771381 
L 23.218989 38.199463 
" clip-path="url(#p63cc134e70)" style="fill: none; stroke: #8c8c8c; stroke-width: 4; stroke-linecap: round"/>
   </g>
   <g id="line2d_10">
    <path d="M 23.218989 41.315167 
" clip-path="url(#p63cc134e70)" style="fill: none; stroke: #6f6f6f; stroke-width: 1.2; stroke-linecap: round"/>
    <defs>
     <path id="md6ddb727ec" d="M 0 0.833333 
C 0.221003 0.833333 0.432983 0.745528 0.589256 0.589256 
C 0.745528 0.432983 0.833333 0.221003 0.833333 0 
C 0.833333 -0.221003 0.745528 -0.432983 0.589256 -0.589256 
C 0.432983 -0.745528 0.221003 -0.833333 0 -0.833333 
C -0.221003 -0.833333 -0.432983 -0.745528 -0.589256 -0.589256 
C -0.745528 -0.432983 -0.833333 -0.221003 -0.833333 0 
C -0.833333 0.221003 -0.745528 0.432983 -0.589256 0.589256 
C -0.432983 0.745528 -0.221003 0.833333 0 0.833333 
z
" style="stroke: #ffffff; stroke-width: 0.8"/>
    </defs>
    <g clip-path="url(#p63cc134e70)">
     <use xlink:href="#md6ddb727ec" x="23.218989" y="41.315167" style="fill: #ffffff; stroke: #ffffff; stroke-width: 0.8"/>
    </g>
   </g>
   <g id="line2d_11">
    <path d="M 49.6468 46.989552 
L 49.6468 35.530973 
" clip-path="url(#p63cc134e70)" style="fill: none; stroke: #8c8c8c; stroke-width: 0.75; stroke-linecap: round"/>
   </g>
   <g id="line2d_12">
    <path d="M 49.6468 45.414309 
L 49.6468 37.581459 
" clip-path="url(#p63cc134e70)" style="fill: none; stroke: #8c8c8c; stroke-width: 4; stroke-linecap: round"/>
   </g>
   <g id="line2d_13">
    <path d="M 49.6468 39.985718 
" clip-path="url(#p63cc134e70)" style="fill: none; stroke: #6f6f6f; stroke-width: 1.2; stroke-linecap: round"/>
    <g clip-path="url(#p63cc134e70)">
     <use xlink:href="#md6ddb727ec" x="49.6468" y="39.985718" style="fill: #ffffff; stroke: #ffffff; stroke-width: 0.8"/>
    </g>
   </g>
   <g id="line2d_14">
    <path d="M 76.074611 48.153073 
L 76.074611 28.89422 
" clip-path="url(#p63cc134e70)" style="fill: none; stroke: #8c8c8c; stroke-width: 0.75; stroke-linecap: round"/>
   </g>
   <g id="line2d_15">
    <path d="M 76.074611 47.404272 
L 76.074611 36.071832 
" clip-path="url(#p63cc134e70)" style="fill: none; stroke: #8c8c8c; stroke-width: 4; stroke-linecap: round"/>
   </g>
   <g id="line2d_16">
    <path d="M 76.074611 41.520562 
" clip-path="url(#p63cc134e70)" style="fill: none; stroke: #6f6f6f; stroke-width: 1.2; stroke-linecap: round"/>
    <g clip-path="url(#p63cc134e70)">
     <use xlink:href="#md6ddb727ec" x="76.074611" y="41.520562" style="fill: #ffffff; stroke: #ffffff; stroke-width: 0.8"/>
    </g>
   </g>
   <g id="line2d_17">
    <path d="M 102.502422 48.344101 
L 102.502422 48.01698 
" clip-path="url(#p63cc134e70)" style="fill: none; stroke: #8c8c8c; stroke-width: 0.75; stroke-linecap: round"/>
   </g>
   <g id="line2d_18">
    <path d="M 102.502422 48.255293 
L 102.502422 48.048924 
" clip-path="url(#p63cc134e70)" style="fill: none; stroke: #8c8c8c; stroke-width: 4; stroke-linecap: round"/>
   </g>
   <g id="line2d_19">
    <path d="M 102.502422 48.156299 
" clip-path="url(#p63cc134e70)" style="fill: none; stroke: #6f6f6f; stroke-width: 1.2; stroke-linecap: round"/>
    <g clip-path="url(#p63cc134e70)">
     <use xlink:href="#md6ddb727ec" x="102.502422" y="48.156299" style="fill: #ffffff; stroke: #ffffff; stroke-width: 0.8"/>
    </g>
   </g>
   <g id="line2d_20">
    <path d="M 128.930233 48.351605 
L 128.930233 46.907098 
" clip-path="url(#p63cc134e70)" style="fill: none; stroke: #8c8c8c; stroke-width: 0.75; stroke-linecap: round"/>
   </g>
   <g id="line2d_21">
    <path d="M 128.930233 47.835011 
L 128.930233 47.424939 
" clip-path="url(#p63cc134e70)" style="fill: none; stroke: #8c8c8c; stroke-width: 4; stroke-linecap: round"/>
   </g>
   <g id="line2d_22">
    <path d="M 128.930233 47.716921 
" clip-path="url(#p63cc134e70)" style="fill: none; stroke: #6f6f6f; stroke-width: 1.2; stroke-linecap: round"/>
    <g clip-path="url(#p63cc134e70)">
     <use xlink:href="#md6ddb727ec" x="128.930233" y="47.716921" style="fill: #ffffff; stroke: #ffffff; stroke-width: 0.8"/>
    </g>
   </g>
   <g id="line2d_23">
    <path d="M 155.358044 48.317597 
L 155.358044 46.198703 
" clip-path="url(#p63cc134e70)" style="fill: none; stroke: #8c8c8c; stroke-width: 0.75; stroke-linecap: round"/>
   </g>
   <g id="line2d_24">
    <path d="M 155.358044 47.593094 
L 155.358044 46.909757 
" clip-path="url(#p63cc134e70)" style="fill: none; stroke: #8c8c8c; stroke-width: 4; stroke-linecap: round"/>
   </g>
   <g id="line2d_25">
    <path d="M 155.358044 47.341543 
" clip-path="url(#p63cc134e70)" style="fill: none; stroke: #6f6f6f; stroke-width: 1.2; stroke-linecap: round"/>
    <g clip-path="url(#p63cc134e70)">
     <use xlink:href="#md6ddb727ec" x="155.358044" y="47.341543" style="fill: #ffffff; stroke: #ffffff; stroke-width: 0.8"/>
    </g>
   </g>
   <g id="line2d_26">
    <path d="M 181.785855 23.21538 
L 181.785855 12.67202 
" clip-path="url(#p63cc134e70)" style="fill: none; stroke: #8c8c8c; stroke-width: 0.75; stroke-linecap: round"/>
   </g>
   <g id="line2d_27">
    <path d="M 181.785855 18.914779 
L 181.785855 14.276553 
" clip-path="url(#p63cc134e70)" style="fill: none; stroke: #8c8c8c; stroke-width: 4; stroke-linecap: round"/>
   </g>
   <g id="line2d_28">
    <path d="M 181.785855 17.229336 
" clip-path="url(#p63cc134e70)" style="fill: none; stroke: #6f6f6f; stroke-width: 1.2; stroke-linecap: round"/>
    <g clip-path="url(#p63cc134e70)">
     <use xlink:href="#md6ddb727ec" x="181.785855" y="17.229336" style="fill: #ffffff; stroke: #ffffff; stroke-width: 0.8"/>
    </g>
   </g>
   <g id="patch_3">
    <path d="M 10.005084 54.222338 
L 10.005084 4.076256 
" style="fill: none; stroke: #777777; stroke-width: 0.5; stroke-linejoin: miter; stroke-linecap: square"/>
   </g>
   <g id="patch_4">
    <path d="M 10.005084 56.722338 
L 194.99976 56.722338 
" style="fill: none; stroke: #777777; stroke-width: 0.5; stroke-linejoin: miter; stroke-linecap: square"/>
   </g>
  </g>
 </g>
 <defs>
  <clipPath id="p63cc134e70">
   <rect x="10.005084" y="4.076256" width="184.994676" height="50.146082"/>
  </clipPath>
 </defs>
</svg>
