<?xml version="1.0" encoding="utf-8" standalone="no"?>
<!DOCTYPE svg PUBLIC "-//W3C//DTD SVG 1.1//EN"
  "http://www.w3.org/Graphics/SVG/1.1/DTD/svg11.dtd">
<svg xmlns:xlink="http://www.w3.org/1999/xlink" width="56.16pt" height="84.96pt" viewBox="0 0 56.16 84.96" xmlns="http://www.w3.org/2000/svg" version="1.1">
 <metadata>
  <rdf:RDF xmlns:dc="http://purl.org/dc/elements/1.1/" xmlns:cc="http://creativecommons.org/ns#" xmlns:rdf="http://www.w3.org/1999/02/22-rdf-syntax-ns#">
   <cc:Work>
    <dc:type rdf:resource="http://purl.org/dc/dcmitype/StillImage"/>
    <dc:date>2024-05-27T15:37:10.392304</dc:date>
    <dc:format>image/svg+xml</dc:format>
    <dc:creator>
     <cc:Agent>
      <dc:title>Matplotlib v3.8.3, https://matplotlib.org/</dc:title>
     </cc:Agent>
    </dc:creator>
   </cc:Work>
  </rdf:RDF>
 </metadata>
 <defs>
  <style type="text/css">*{stroke-linejoin: round; stroke-linecap: butt}</style>
 </defs>
 <g id="figure_1">
  <g id="patch_1">
   <path d="M 0 84.96 
L 56.16 84.96 
L 56.16 0 
L 0 0 
z
" style="fill: #ffffff"/>
  </g>
  <g id="axes_1">
   <g id="patch_2">
    <path d="M 11.673365 74.419526 
L 53.15976 74.419526 
L 53.15976 4.076256 
L 11.673365 4.076256 
z
" style="fill: #ffffff"/>
   </g>
   <g id="matplotlib.axis_1">
    <g id="xtick_1">
     <g id="text_1">
      <!-- ILC2 -->
      <g style="fill: #333333" transform="translate(18.348636 81.230229) scale(0.035 -0.035)">
       <defs>
        <path id="Helvetica-49" d="M 628 4591 
L 1256 4591 
L 1256 0 
L 628 0 
L 628 4591 
z
" transform="scale(0.015625)"/>
        <path id="Helvetica-4c" d="M 488 4591 
L 1109 4591 
L 1109 547 
L 3434 547 
L 3434 0 
L 488 0 
L 488 4591 
z
" transform="scale(0.015625)"/>
        <path id="Helvetica-43" d="M 2422 4716 
Q 3294 4716 3775 4256 
Q 4256 3797 4309 3213 
L 3703 3213 
Q 3600 3656 3292 3915 
Q 2984 4175 2428 4175 
Q 1750 4175 1333 3698 
Q 916 3222 916 2238 
Q 916 1431 1292 929 
Q 1669 428 2416 428 
Q 3103 428 3463 956 
Q 3653 1234 3747 1688 
L 4353 1688 
Q 4272 963 3816 472 
Q 3269 -119 2341 -119 
Q 1541 -119 997 366 
Q 281 1006 281 2344 
Q 281 3359 819 4009 
Q 1400 4716 2422 4716 
z
M 2297 4716 
L 2297 4716 
z
" transform="scale(0.015625)"/>
        <path id="Helvetica-32" d="M 200 0 
Q 231 578 439 1006 
Q 647 1434 1250 1784 
L 1850 2131 
Q 2253 2366 2416 2531 
Q 2672 2791 2672 3125 
Q 2672 3516 2437 3745 
Q 2203 3975 1813 3975 
Q 1234 3975 1013 3538 
Q 894 3303 881 2888 
L 309 2888 
Q 319 3472 525 3841 
Q 891 4491 1816 4491 
Q 2584 4491 2939 4075 
Q 3294 3659 3294 3150 
Q 3294 2613 2916 2231 
Q 2697 2009 2131 1694 
L 1703 1456 
Q 1397 1288 1222 1134 
Q 909 863 828 531 
L 3272 531 
L 3272 0 
L 200 0 
z
" transform="scale(0.015625)"/>
       </defs>
       <use xlink:href="#Helvetica-49"/>
       <use xlink:href="#Helvetica-4c" x="27.783203"/>
       <use xlink:href="#Helvetica-43" x="83.398438"/>
       <use xlink:href="#Helvetica-32" x="155.615234"/>
      </g>
     </g>
    </g>
    <g id="xtick_2">
     <g id="text_2">
      <!-- TH2 -->
      <g style="fill: #333333" transform="translate(39.482302 81.230229) scale(0.035 -0.035)">
       <defs>
        <path id="Helvetica-54" d="M 3828 4591 
L 3828 4044 
L 2281 4044 
L 2281 0 
L 1650 0 
L 1650 4044 
L 103 4044 
L 103 4591 
L 3828 4591 
z
" transform="scale(0.015625)"/>
        <path id="Helvetica-48" d="M 503 4591 
L 1131 4591 
L 1131 2694 
L 3519 2694 
L 3519 4591 
L 4147 4591 
L 4147 0 
L 3519 0 
L 3519 2147 
L 1131 2147 
L 1131 0 
L 503 0 
L 503 4591 
z
" transform="scale(0.015625)"/>
       </defs>
       <use xlink:href="#Helvetica-54"/>
       <use xlink:href="#Helvetica-48" x="61.083984"/>
       <use xlink:href="#Helvetica-32" x="133.300781"/>
      </g>
     </g>
    </g>
   </g>
   <g id="matplotlib.axis_2">
    <g id="ytick_1">
     <g id="line2d_1">
      <defs>
       <path id="m86c27d3f1a" d="M 0 0 
L -1 0 
" style="stroke: #777777; stroke-width: 0.5"/>
      </defs>
      <g>
       <use xlink:href="#m86c27d3f1a" x="11.673365" y="64.727463" style="fill: #777777; stroke: #777777; stroke-width: 0.5"/>
      </g>
     </g>
     <g id="text_3">
      <!-- 0 -->
      <g style="fill: #333333" transform="translate(8.005084 65.803478) scale(0.03 -0.03)">
       <defs>
        <path id="Helvetica-30" d="M 1731 4475 
Q 2600 4475 2988 3759 
Q 3288 3206 3288 2244 
Q 3288 1331 3016 734 
Q 2622 -122 1728 -122 
Q 922 -122 528 578 
Q 200 1163 200 2147 
Q 200 2909 397 3456 
Q 766 4475 1731 4475 
z
M 1725 391 
Q 2163 391 2422 778 
Q 2681 1166 2681 2222 
Q 2681 2984 2493 3476 
Q 2306 3969 1766 3969 
Q 1269 3969 1039 3501 
Q 809 3034 809 2125 
Q 809 1441 956 1025 
Q 1181 391 1725 391 
z
" transform="scale(0.015625)"/>
       </defs>
       <use xlink:href="#Helvetica-30"/>
      </g>
     </g>
    </g>
    <g id="ytick_2">
     <g id="line2d_2">
      <g>
       <use xlink:href="#m86c27d3f1a" x="11.673365" y="52.597221" style="fill: #777777; stroke: #777777; stroke-width: 0.5"/>
      </g>
     </g>
     <g id="text_4">
      <!-- 1000 -->
      <g style="fill: #333333" transform="translate(3.00024 53.673237) scale(0.03 -0.03)">
       <defs>
        <path id="Helvetica-31" d="M 613 3169 
L 613 3600 
Q 1222 3659 1462 3798 
Q 1703 3938 1822 4456 
L 2266 4456 
L 2266 0 
L 1666 0 
L 1666 3169 
L 613 3169 
z
" transform="scale(0.015625)"/>
       </defs>
       <use xlink:href="#Helvetica-31"/>
       <use xlink:href="#Helvetica-30" x="55.615234"/>
       <use xlink:href="#Helvetica-30" x="111.230469"/>
       <use xlink:href="#Helvetica-30" x="166.845703"/>
      </g>
     </g>
    </g>
    <g id="ytick_3">
     <g id="line2d_3">
      <g>
       <use xlink:href="#m86c27d3f1a" x="11.673365" y="40.46698" style="fill: #777777; stroke: #777777; stroke-width: 0.5"/>
      </g>
     </g>
     <g id="text_5">
      <!-- 2000 -->
      <g style="fill: #333333" transform="translate(3.00024 41.542996) scale(0.03 -0.03)">
       <use xlink:href="#Helvetica-32"/>
       <use xlink:href="#Helvetica-30" x="55.615234"/>
       <use xlink:href="#Helvetica-30" x="111.230469"/>
       <use xlink:href="#Helvetica-30" x="166.845703"/>
      </g>
     </g>
    </g>
    <g id="ytick_4">
     <g id="line2d_4">
      <g>
       <use xlink:href="#m86c27d3f1a" x="11.673365" y="28.336738" style="fill: #777777; stroke: #777777; stroke-width: 0.5"/>
      </g>
     </g>
     <g id="text_6">
      <!-- 3000 -->
      <g style="fill: #333333" transform="translate(3.00024 29.412754) scale(0.03 -0.03)">
       <defs>
        <path id="Helvetica-33" d="M 1663 -122 
Q 869 -122 511 314 
Q 153 750 153 1375 
L 741 1375 
Q 778 941 903 744 
Q 1122 391 1694 391 
Q 2138 391 2406 628 
Q 2675 866 2675 1241 
Q 2675 1703 2392 1887 
Q 2109 2072 1606 2072 
Q 1550 2072 1492 2070 
Q 1434 2069 1375 2066 
L 1375 2563 
Q 1463 2553 1522 2550 
Q 1581 2547 1650 2547 
Q 1966 2547 2169 2647 
Q 2525 2822 2525 3272 
Q 2525 3606 2287 3787 
Q 2050 3969 1734 3969 
Q 1172 3969 956 3594 
Q 838 3388 822 3006 
L 266 3006 
Q 266 3506 466 3856 
Q 809 4481 1675 4481 
Q 2359 4481 2734 4176 
Q 3109 3872 3109 3294 
Q 3109 2881 2888 2625 
Q 2750 2466 2531 2375 
Q 2884 2278 3082 2001 
Q 3281 1725 3281 1325 
Q 3281 684 2859 281 
Q 2438 -122 1663 -122 
z
" transform="scale(0.015625)"/>
       </defs>
       <use xlink:href="#Helvetica-33"/>
       <use xlink:href="#Helvetica-30" x="55.615234"/>
       <use xlink:href="#Helvetica-30" x="111.230469"/>
       <use xlink:href="#Helvetica-30" x="166.845703"/>
      </g>
     </g>
    </g>
    <g id="ytick_5">
     <g id="line2d_5">
      <g>
       <use xlink:href="#m86c27d3f1a" x="11.673365" y="16.206497" style="fill: #777777; stroke: #777777; stroke-width: 0.5"/>
      </g>
     </g>
     <g id="text_7">
      <!-- 4000 -->
      <g style="fill: #333333" transform="translate(3.00024 17.282513) scale(0.03 -0.03)">
       <defs>
        <path id="Helvetica-34" d="M 2116 1584 
L 2116 3613 
L 681 1584 
L 2116 1584 
z
M 2125 0 
L 2125 1094 
L 163 1094 
L 163 1644 
L 2213 4488 
L 2688 4488 
L 2688 1584 
L 3347 1584 
L 3347 1094 
L 2688 1094 
L 2688 0 
L 2125 0 
z
" transform="scale(0.015625)"/>
       </defs>
       <use xlink:href="#Helvetica-34"/>
       <use xlink:href="#Helvetica-30" x="55.615234"/>
       <use xlink:href="#Helvetica-30" x="111.230469"/>
       <use xlink:href="#Helvetica-30" x="166.845703"/>
      </g>
     </g>
    </g>
    <g id="ytick_6">
     <g id="line2d_6">
      <g>
       <use xlink:href="#m86c27d3f1a" x="11.673365" y="4.076256" style="fill: #777777; stroke: #777777; stroke-width: 0.5"/>
      </g>
     </g>
     <g id="text_8">
      <!-- 5000 -->
      <g style="fill: #333333" transform="translate(3.00024 5.152271) scale(0.03 -0.03)">
       <defs>
        <path id="Helvetica-35" d="M 791 1141 
Q 847 659 1238 475 
Q 1438 381 1700 381 
Q 2200 381 2440 700 
Q 2681 1019 2681 1406 
Q 2681 1875 2395 2131 
Q 2109 2388 1709 2388 
Q 1419 2388 1211 2275 
Q 1003 2163 856 1963 
L 369 1991 
L 709 4400 
L 3034 4400 
L 3034 3856 
L 1131 3856 
L 941 2613 
Q 1097 2731 1238 2791 
Q 1488 2894 1816 2894 
Q 2431 2894 2859 2497 
Q 3288 2100 3288 1491 
Q 3288 856 2895 371 
Q 2503 -113 1644 -113 
Q 1097 -113 676 195 
Q 256 503 206 1141 
L 791 1141 
z
" transform="scale(0.015625)"/>
       </defs>
       <use xlink:href="#Helvetica-35"/>
       <use xlink:href="#Helvetica-30" x="55.615234"/>
       <use xlink:href="#Helvetica-30" x="111.230469"/>
       <use xlink:href="#Helvetica-30" x="166.845703"/>
      </g>
     </g>
    </g>
   </g>
   <g id="PolyCollection_1">
    <defs>
     <path id="mdee570a619" d="M 24.200055 -19.956485 
L 19.889872 -19.956485 
L 19.487225 -19.977855 
L 19.04509 -19.999226 
L 18.567855 -20.020596 
L 18.06191 -20.041967 
L 17.535622 -20.063338 
L 16.999181 -20.084708 
L 16.464314 -20.106079 
L 15.943864 -20.12745 
L 15.451262 -20.14882 
L 14.999918 -20.170191 
L 14.602563 -20.191561 
L 14.270598 -20.212932 
L 14.013499 -20.234303 
L 13.838308 -20.255673 
L 13.749281 -20.277044 
L 13.747685 -20.298414 
L 13.831786 -20.319785 
L 13.997021 -20.341156 
L 14.236327 -20.362526 
L 14.540602 -20.383897 
L 14.899273 -20.405268 
L 15.300889 -20.426638 
L 15.73373 -20.448009 
L 16.186366 -20.469379 
L 16.648124 -20.49075 
L 17.109466 -20.512121 
L 17.562233 -20.533491 
L 17.999776 -20.554862 
L 18.416969 -20.576233 
L 18.810138 -20.597603 
L 19.176912 -20.618974 
L 19.516031 -20.640344 
L 19.827141 -20.661715 
L 20.110579 -20.683086 
L 20.367185 -20.704456 
L 20.598136 -20.725827 
L 20.804819 -20.747198 
L 20.988732 -20.768568 
L 21.151419 -20.789939 
L 21.294432 -20.811309 
L 21.419307 -20.83268 
L 21.527552 -20.854051 
L 21.620646 -20.875421 
L 21.700031 -20.896792 
L 21.767113 -20.918162 
L 21.82325 -20.939533 
L 21.869745 -20.960904 
L 21.907833 -20.982274 
L 21.938666 -21.003645 
L 21.963306 -21.025016 
L 21.982706 -21.046386 
L 21.997709 -21.067757 
L 22.009036 -21.089127 
L 22.017281 -21.110498 
L 22.022917 -21.131869 
L 22.026286 -21.153239 
L 22.027608 -21.17461 
L 22.026976 -21.195981 
L 22.024367 -21.217351 
L 22.019637 -21.238722 
L 22.012533 -21.260092 
L 22.002695 -21.281463 
L 21.989669 -21.302834 
L 21.972919 -21.324204 
L 21.95185 -21.345575 
L 21.925833 -21.366945 
L 21.894241 -21.388316 
L 21.856485 -21.409687 
L 21.812071 -21.431057 
L 21.760643 -21.452428 
L 21.702045 -21.473799 
L 21.636371 -21.495169 
L 21.564013 -21.51654 
L 21.485699 -21.53791 
L 21.402515 -21.559281 
L 21.315903 -21.580652 
L 21.227641 -21.602022 
L 21.139802 -21.623393 
L 21.054673 -21.644764 
L 20.974671 -21.666134 
L 20.902228 -21.687505 
L 20.839671 -21.708875 
L 20.7891 -21.730246 
L 20.752268 -21.751617 
L 20.730487 -21.772987 
L 20.72454 -21.794358 
L 20.734645 -21.815728 
L 20.760434 -21.837099 
L 20.80098 -21.85847 
L 20.85485 -21.87984 
L 20.920189 -21.901211 
L 20.994826 -21.922582 
L 21.076395 -21.943952 
L 21.162457 -21.965323 
L 21.25062 -21.986693 
L 21.338641 -22.008064 
L 21.424523 -22.029435 
L 21.506568 -22.050805 
L 21.583427 -22.072176 
L 22.5065 -22.072176 
L 22.5065 -22.072176 
L 22.583359 -22.050805 
L 22.665405 -22.029435 
L 22.751286 -22.008064 
L 22.839308 -21.986693 
L 22.92747 -21.965323 
L 23.013532 -21.943952 
L 23.095102 -21.922582 
L 23.169739 -21.901211 
L 23.235077 -21.87984 
L 23.288947 -21.85847 
L 23.329493 -21.837099 
L 23.355283 -21.815728 
L 23.365388 -21.794358 
L 23.359441 -21.772987 
L 23.337659 -21.751617 
L 23.300828 -21.730246 
L 23.250257 -21.708875 
L 23.1877 -21.687505 
L 23.115256 -21.666134 
L 23.035254 -21.644764 
L 22.950126 -21.623393 
L 22.862286 -21.602022 
L 22.774025 -21.580652 
L 22.687412 -21.559281 
L 22.604228 -21.53791 
L 22.525915 -21.51654 
L 22.453557 -21.495169 
L 22.387883 -21.473799 
L 22.329285 -21.452428 
L 22.277857 -21.431057 
L 22.233442 -21.409687 
L 22.195687 -21.388316 
L 22.164094 -21.366945 
L 22.138078 -21.345575 
L 22.117009 -21.324204 
L 22.100259 -21.302834 
L 22.087232 -21.281463 
L 22.077394 -21.260092 
L 22.07029 -21.238722 
L 22.065561 -21.217351 
L 22.062951 -21.195981 
L 22.06232 -21.17461 
L 22.063641 -21.153239 
L 22.06701 -21.131869 
L 22.072646 -21.110498 
L 22.080892 -21.089127 
L 22.092218 -21.067757 
L 22.107221 -21.046386 
L 22.126622 -21.025016 
L 22.151261 -21.003645 
L 22.182095 -20.982274 
L 22.220182 -20.960904 
L 22.266677 -20.939533 
L 22.322814 -20.918162 
L 22.389896 -20.896792 
L 22.469282 -20.875421 
L 22.562375 -20.854051 
L 22.67062 -20.83268 
L 22.795495 -20.811309 
L 22.938508 -20.789939 
L 23.101196 -20.768568 
L 23.285108 -20.747198 
L 23.491791 -20.725827 
L 23.722742 -20.704456 
L 23.979348 -20.683086 
L 24.262786 -20.661715 
L 24.573896 -20.640344 
L 24.913016 -20.618974 
L 25.279789 -20.597603 
L 25.672958 -20.576233 
L 26.090152 -20.554862 
L 26.527694 -20.533491 
L 26.980462 -20.512121 
L 27.441804 -20.49075 
L 27.903562 -20.469379 
L 28.356197 -20.448009 
L 28.789039 -20.426638 
L 29.190655 -20.405268 
L 29.549325 -20.383897 
L 29.853601 -20.362526 
L 30.092906 -20.341156 
L 30.258141 -20.319785 
L 30.342243 -20.298414 
L 30.340646 -20.277044 
L 30.251619 -20.255673 
L 30.076429 -20.234303 
L 29.819329 -20.212932 
L 29.487365 -20.191561 
L 29.090009 -20.170191 
L 28.638665 -20.14882 
L 28.146064 -20.12745 
L 27.625613 -20.106079 
L 27.090746 -20.084708 
L 26.554306 -20.063338 
L 26.028017 -20.041967 
L 25.522072 -20.020596 
L 25.044837 -19.999226 
L 24.602702 -19.977855 
L 24.200055 -19.956485 
z
" style="stroke: #717171; stroke-width: 0.15"/>
    </defs>
    <g clip-path="url(#p6dd30daed4)">
     <use xlink:href="#mdee570a619" x="0" y="84.96" style="fill: #d6bba3; stroke: #717171; stroke-width: 0.15"/>
    </g>
   </g>
   <g id="PolyCollection_2">
    <defs>
     <path id="md98e27ab24" d="M 45.090709 -18.434939 
L 40.485614 -18.434939 
L 40.069748 -18.574973 
L 39.616094 -18.715008 
L 39.129691 -18.855042 
L 38.617558 -18.995076 
L 38.088631 -19.135111 
L 37.553574 -19.275145 
L 37.024447 -19.415179 
L 36.514266 -19.555213 
L 36.03644 -19.695248 
L 35.604152 -19.835282 
L 35.229697 -19.975316 
L 34.923833 -20.11535 
L 34.695199 -20.255385 
L 34.549842 -20.395419 
L 34.490882 -20.535453 
L 34.518363 -20.675487 
L 34.629283 -20.815522 
L 34.817816 -20.955556 
L 35.075698 -21.09559 
L 35.39275 -21.235625 
L 35.757494 -21.375659 
L 36.157811 -21.515693 
L 36.581595 -21.655727 
L 37.017347 -21.795762 
L 37.454677 -21.935796 
L 37.884679 -22.07583 
L 38.300173 -22.215864 
L 38.695792 -22.355899 
L 39.067947 -22.495933 
L 39.414674 -22.635967 
L 39.7354 -22.776002 
L 40.03065 -22.916036 
L 40.301738 -23.05607 
L 40.550466 -23.196104 
L 40.778851 -23.336139 
L 40.988903 -23.476173 
L 41.182464 -23.616207 
L 41.361104 -23.756241 
L 41.526072 -23.896276 
L 41.678305 -24.03631 
L 41.818464 -24.176344 
L 41.946994 -24.316378 
L 42.064204 -24.456413 
L 42.170336 -24.596447 
L 42.265632 -24.736481 
L 42.350386 -24.876516 
L 42.424974 -25.01655 
L 42.489874 -25.156584 
L 42.545664 -25.296618 
L 42.593003 -25.436653 
L 42.632616 -25.576687 
L 42.665255 -25.716721 
L 42.691673 -25.856755 
L 42.712588 -25.99679 
L 42.728657 -26.136824 
L 42.740446 -26.276858 
L 42.748415 -26.416892 
L 42.752899 -26.556927 
L 42.754097 -26.696961 
L 42.752071 -26.836995 
L 42.746743 -26.97703 
L 42.737901 -27.117064 
L 42.725211 -27.257098 
L 42.708232 -27.397132 
L 42.686445 -27.537167 
L 42.659279 -27.677201 
L 42.626153 -27.817235 
L 42.586523 -27.957269 
L 42.539931 -28.097304 
L 42.486063 -28.237338 
L 42.424809 -28.377372 
L 42.356313 -28.517407 
L 42.281026 -28.657441 
L 42.199741 -28.797475 
L 42.11361 -28.937509 
L 42.02415 -29.077544 
L 41.933212 -29.217578 
L 41.842937 -29.357612 
L 41.755678 -29.497646 
L 41.673906 -29.637681 
L 41.6001 -29.777715 
L 41.536617 -29.917749 
L 41.485576 -30.057783 
L 41.448734 -30.197818 
L 41.427391 -30.337852 
L 41.42231 -30.477886 
L 41.433675 -30.617921 
L 41.461076 -30.757955 
L 41.503539 -30.897989 
L 41.559576 -31.038023 
L 41.62728 -31.178058 
L 41.704427 -31.318092 
L 41.788597 -31.458126 
L 41.877301 -31.59816 
L 41.968102 -31.738195 
L 42.058718 -31.878229 
L 42.147113 -32.018263 
L 42.231562 -32.158298 
L 42.31069 -32.298332 
L 43.265633 -32.298332 
L 43.265633 -32.298332 
L 43.344761 -32.158298 
L 43.42921 -32.018263 
L 43.517605 -31.878229 
L 43.608221 -31.738195 
L 43.699021 -31.59816 
L 43.787726 -31.458126 
L 43.871896 -31.318092 
L 43.949042 -31.178058 
L 44.016746 -31.038023 
L 44.072784 -30.897989 
L 44.115246 -30.757955 
L 44.142647 -30.617921 
L 44.154012 -30.477886 
L 44.148932 -30.337852 
L 44.127588 -30.197818 
L 44.090747 -30.057783 
L 44.039705 -29.917749 
L 43.976223 -29.777715 
L 43.902416 -29.637681 
L 43.820645 -29.497646 
L 43.733386 -29.357612 
L 43.643111 -29.217578 
L 43.552173 -29.077544 
L 43.462712 -28.937509 
L 43.376582 -28.797475 
L 43.295296 -28.657441 
L 43.22001 -28.517407 
L 43.151514 -28.377372 
L 43.090259 -28.237338 
L 43.036392 -28.097304 
L 42.9898 -27.957269 
L 42.950169 -27.817235 
L 42.917044 -27.677201 
L 42.889878 -27.537167 
L 42.86809 -27.397132 
L 42.851112 -27.257098 
L 42.838421 -27.117064 
L 42.829579 -26.97703 
L 42.824251 -26.836995 
L 42.822225 -26.696961 
L 42.823424 -26.556927 
L 42.827907 -26.416892 
L 42.835876 -26.276858 
L 42.847666 -26.136824 
L 42.863734 -25.99679 
L 42.88465 -25.856755 
L 42.911067 -25.716721 
L 42.943706 -25.576687 
L 42.983319 -25.436653 
L 43.030659 -25.296618 
L 43.086448 -25.156584 
L 43.151349 -25.01655 
L 43.225937 -24.876516 
L 43.31069 -24.736481 
L 43.405986 -24.596447 
L 43.512118 -24.456413 
L 43.629328 -24.316378 
L 43.757859 -24.176344 
L 43.898017 -24.03631 
L 44.050251 -23.896276 
L 44.215219 -23.756241 
L 44.393858 -23.616207 
L 44.587419 -23.476173 
L 44.797472 -23.336139 
L 45.025857 -23.196104 
L 45.274585 -23.05607 
L 45.545673 -22.916036 
L 45.840923 -22.776002 
L 46.161648 -22.635967 
L 46.508376 -22.495933 
L 46.880531 -22.355899 
L 47.27615 -22.215864 
L 47.691643 -22.07583 
L 48.121646 -21.935796 
L 48.558975 -21.795762 
L 48.994727 -21.655727 
L 49.418511 -21.515693 
L 49.818829 -21.375659 
L 50.183573 -21.235625 
L 50.500624 -21.09559 
L 50.758506 -20.955556 
L 50.947039 -20.815522 
L 51.057959 -20.675487 
L 51.08544 -20.535453 
L 51.02648 -20.395419 
L 50.881123 -20.255385 
L 50.65249 -20.11535 
L 50.346626 -19.975316 
L 49.97217 -19.835282 
L 49.539883 -19.695248 
L 49.062057 -19.555213 
L 48.551875 -19.415179 
L 48.022749 -19.275145 
L 47.487691 -19.135111 
L 46.958765 -18.995076 
L 46.446632 -18.855042 
L 45.960229 -18.715008 
L 45.506575 -18.574973 
L 45.090709 -18.434939 
z
" style="stroke: #717171; stroke-width: 0.15"/>
    </defs>
    <g clip-path="url(#p6dd30daed4)">
     <use xlink:href="#md98e27ab24" x="0" y="84.96" style="fill: #f1b9e0; stroke: #717171; stroke-width: 0.15"/>
    </g>
   </g>
   <g id="line2d_7">
    <path d="M 22.044964 64.722921 
L 22.044964 64.591976 
" clip-path="url(#p6dd30daed4)" style="fill: none; stroke: #8c8c8c; stroke-width: 0.75; stroke-linecap: round"/>
   </g>
   <g id="line2d_8">
    <path d="M 22.044964 64.702911 
L 22.044964 64.591976 
" clip-path="url(#p6dd30daed4)" style="fill: none; stroke: #8c8c8c; stroke-width: 4; stroke-linecap: round"/>
   </g>
   <g id="line2d_9">
    <path d="M 22.044964 64.670051 
" clip-path="url(#p6dd30daed4)" style="fill: none; stroke: #717171; stroke-width: 1.2; stroke-linecap: round"/>
    <defs>
     <path id="mb5a7f272f8" d="M 0 0.833333 
C 0.221003 0.833333 0.432983 0.745528 0.589256 0.589256 
C 0.745528 0.432983 0.833333 0.221003 0.833333 0 
C 0.833333 -0.221003 0.745528 -0.432983 0.589256 -0.589256 
C 0.432983 -0.745528 0.221003 -0.833333 0 -0.833333 
C -0.221003 -0.833333 -0.432983 -0.745528 -0.589256 -0.589256 
C -0.745528 -0.432983 -0.833333 -0.221003 -0.833333 0 
C -0.833333 0.221003 -0.745528 0.432983 -0.589256 0.589256 
C -0.432983 0.745528 -0.221003 0.833333 0 0.833333 
z
" style="stroke: #ffffff; stroke-width: 0.8"/>
    </defs>
    <g clip-path="url(#p6dd30daed4)">
     <use xlink:href="#mb5a7f272f8" x="22.044964" y="64.670051" style="fill: #ffffff; stroke: #ffffff; stroke-width: 0.8"/>
    </g>
   </g>
   <g id="line2d_10">
    <path d="M 42.788161 64.677792 
L 42.788161 63.603561 
" clip-path="url(#p6dd30daed4)" style="fill: none; stroke: #8c8c8c; stroke-width: 0.75; stroke-linecap: round"/>
   </g>
   <g id="line2d_11">
    <path d="M 42.788161 64.619424 
L 42.788161 63.603561 
" clip-path="url(#p6dd30daed4)" style="fill: none; stroke: #8c8c8c; stroke-width: 4; stroke-linecap: round"/>
   </g>
   <g id="line2d_12">
    <path d="M 42.788161 64.38152 
" clip-path="url(#p6dd30daed4)" style="fill: none; stroke: #717171; stroke-width: 1.2; stroke-linecap: round"/>
    <g clip-path="url(#p6dd30daed4)">
     <use xlink:href="#mb5a7f272f8" x="42.788161" y="64.38152" style="fill: #ffffff; stroke: #ffffff; stroke-width: 0.8"/>
    </g>
   </g>
   <g id="patch_3">
    <path d="M 11.673365 74.419526 
L 11.673365 4.076256 
" style="fill: none; stroke: #777777; stroke-width: 0.5; stroke-linejoin: miter; stroke-linecap: square"/>
   </g>
   <g id="patch_4">
    <path d="M 11.673365 76.919526 
L 53.15976 76.919526 
" style="fill: none; stroke: #777777; stroke-width: 0.5; stroke-linejoin: miter; stroke-linecap: square"/>
   </g>
  </g>
 </g>
 <defs>
  <clipPath id="p6dd30daed4">
   <rect x="11.673365" y="4.076256" width="41.486395" height="70.34327"/>
  </clipPath>
 </defs>
</svg>
