<?xml version="1.0" encoding="utf-8" standalone="no"?>
<!DOCTYPE svg PUBLIC "-//W3C//DTD SVG 1.1//EN"
  "http://www.w3.org/Graphics/SVG/1.1/DTD/svg11.dtd">
<svg xmlns:xlink="http://www.w3.org/1999/xlink" width="84.96pt" height="84.96pt" viewBox="0 0 84.96 84.96" xmlns="http://www.w3.org/2000/svg" version="1.1">
 <metadata>
  <rdf:RDF xmlns:dc="http://purl.org/dc/elements/1.1/" xmlns:cc="http://creativecommons.org/ns#" xmlns:rdf="http://www.w3.org/1999/02/22-rdf-syntax-ns#">
   <cc:Work>
    <dc:type rdf:resource="http://purl.org/dc/dcmitype/StillImage"/>
    <dc:date>2024-05-27T15:37:17.151501</dc:date>
    <dc:format>image/svg+xml</dc:format>
    <dc:creator>
     <cc:Agent>
      <dc:title>Matplotlib v3.8.3, https://matplotlib.org/</dc:title>
     </cc:Agent>
    </dc:creator>
   </cc:Work>
  </rdf:RDF>
 </metadata>
 <defs>
  <style type="text/css">*{stroke-linejoin: round; stroke-linecap: butt}</style>
 </defs>
 <g id="figure_1">
  <g id="patch_1">
   <path d="M 0 84.96 
L 84.96 84.96 
L 84.96 0 
L 0 0 
z
" style="fill: #ffffff"/>
  </g>
  <g id="axes_1">
   <g id="patch_2">
    <path d="M 10.005084 74.419526 
L 81.95976 74.419526 
L 81.95976 4.076256 
L 10.005084 4.076256 
z
" style="fill: #ffffff"/>
   </g>
   <g id="matplotlib.axis_1">
    <g id="xtick_1">
     <g id="text_1">
      <!-- TdT+ Cells -->
      <g style="fill: #333333" transform="translate(13.488702 81.230229) scale(0.035 -0.035)">
       <defs>
        <path id="Helvetica-54" d="M 3828 4591 
L 3828 4044 
L 2281 4044 
L 2281 0 
L 1650 0 
L 1650 4044 
L 103 4044 
L 103 4591 
L 3828 4591 
z
" transform="scale(0.015625)"/>
        <path id="Helvetica-64" d="M 769 1634 
Q 769 1097 997 734 
Q 1225 372 1728 372 
Q 2119 372 2370 708 
Q 2622 1044 2622 1672 
Q 2622 2306 2362 2611 
Q 2103 2916 1722 2916 
Q 1297 2916 1033 2591 
Q 769 2266 769 1634 
z
M 1616 3406 
Q 2000 3406 2259 3244 
Q 2409 3150 2600 2916 
L 2600 4606 
L 3141 4606 
L 3141 0 
L 2634 0 
L 2634 466 
Q 2438 156 2169 18 
Q 1900 -119 1553 -119 
Q 994 -119 584 351 
Q 175 822 175 1603 
Q 175 2334 548 2870 
Q 922 3406 1616 3406 
z
" transform="scale(0.015625)"/>
        <path id="Helvetica-2b" d="M 288 1369 
L 288 1894 
L 1650 1894 
L 1650 3266 
L 2184 3266 
L 2184 1894 
L 3547 1894 
L 3547 1369 
L 2184 1369 
L 2184 0 
L 1650 0 
L 1650 1369 
L 288 1369 
z
" transform="scale(0.015625)"/>
        <path id="Helvetica-20" transform="scale(0.015625)"/>
        <path id="Helvetica-43" d="M 2422 4716 
Q 3294 4716 3775 4256 
Q 4256 3797 4309 3213 
L 3703 3213 
Q 3600 3656 3292 3915 
Q 2984 4175 2428 4175 
Q 1750 4175 1333 3698 
Q 916 3222 916 2238 
Q 916 1431 1292 929 
Q 1669 428 2416 428 
Q 3103 428 3463 956 
Q 3653 1234 3747 1688 
L 4353 1688 
Q 4272 963 3816 472 
Q 3269 -119 2341 -119 
Q 1541 -119 997 366 
Q 281 1006 281 2344 
Q 281 3359 819 4009 
Q 1400 4716 2422 4716 
z
M 2297 4716 
L 2297 4716 
z
" transform="scale(0.015625)"/>
        <path id="Helvetica-65" d="M 1806 3422 
Q 2163 3422 2497 3255 
Q 2831 3088 3006 2822 
Q 3175 2569 3231 2231 
Q 3281 2000 3281 1494 
L 828 1494 
Q 844 984 1069 676 
Q 1294 369 1766 369 
Q 2206 369 2469 659 
Q 2619 828 2681 1050 
L 3234 1050 
Q 3213 866 3089 639 
Q 2966 413 2813 269 
Q 2556 19 2178 -69 
Q 1975 -119 1719 -119 
Q 1094 -119 659 336 
Q 225 791 225 1609 
Q 225 2416 662 2919 
Q 1100 3422 1806 3422 
z
M 2703 1941 
Q 2669 2306 2544 2525 
Q 2313 2931 1772 2931 
Q 1384 2931 1121 2651 
Q 859 2372 844 1941 
L 2703 1941 
z
M 1753 3428 
L 1753 3428 
z
" transform="scale(0.015625)"/>
        <path id="Helvetica-6c" d="M 428 4591 
L 991 4591 
L 991 0 
L 428 0 
L 428 4591 
z
" transform="scale(0.015625)"/>
        <path id="Helvetica-73" d="M 747 1050 
Q 772 769 888 619 
Q 1100 347 1625 347 
Q 1938 347 2175 483 
Q 2413 619 2413 903 
Q 2413 1119 2222 1231 
Q 2100 1300 1741 1391 
L 1294 1503 
Q 866 1609 663 1741 
Q 300 1969 300 2372 
Q 300 2847 642 3140 
Q 984 3434 1563 3434 
Q 2319 3434 2653 2991 
Q 2863 2709 2856 2384 
L 2325 2384 
Q 2309 2575 2191 2731 
Q 1997 2953 1519 2953 
Q 1200 2953 1036 2831 
Q 872 2709 872 2509 
Q 872 2291 1088 2159 
Q 1213 2081 1456 2022 
L 1828 1931 
Q 2434 1784 2641 1647 
Q 2969 1431 2969 969 
Q 2969 522 2630 197 
Q 2291 -128 1597 -128 
Q 850 -128 539 211 
Q 228 550 206 1050 
L 747 1050 
z
M 1578 3428 
L 1578 3428 
z
" transform="scale(0.015625)"/>
       </defs>
       <use xlink:href="#Helvetica-54"/>
       <use xlink:href="#Helvetica-64" x="61.083984"/>
       <use xlink:href="#Helvetica-54" x="116.699219"/>
       <use xlink:href="#Helvetica-2b" x="177.783203"/>
       <use xlink:href="#Helvetica-20" x="236.181641"/>
       <use xlink:href="#Helvetica-43" x="263.964844"/>
       <use xlink:href="#Helvetica-65" x="336.181641"/>
       <use xlink:href="#Helvetica-6c" x="391.796875"/>
       <use xlink:href="#Helvetica-6c" x="414.013672"/>
       <use xlink:href="#Helvetica-73" x="436.230469"/>
      </g>
     </g>
    </g>
    <g id="xtick_2">
     <g id="text_2">
      <!-- TCRαδ+ Cells -->
      <g style="fill: #333333" transform="translate(34.850234 81.230229) scale(0.035 -0.035)">
       <defs>
        <path id="Helvetica-52" d="M 2622 2488 
Q 3059 2488 3314 2663 
Q 3569 2838 3569 3294 
Q 3569 3784 3213 3963 
Q 3022 4056 2703 4056 
L 1184 4056 
L 1184 2488 
L 2622 2488 
z
M 563 4591 
L 2688 4591 
Q 3213 4591 3553 4438 
Q 4200 4144 4200 3353 
Q 4200 2941 4029 2678 
Q 3859 2416 3553 2256 
Q 3822 2147 3958 1969 
Q 4094 1791 4109 1391 
L 4131 775 
Q 4141 513 4175 384 
Q 4231 166 4375 103 
L 4375 0 
L 3613 0 
Q 3581 59 3562 153 
Q 3544 247 3531 516 
L 3494 1281 
Q 3472 1731 3159 1884 
Q 2981 1969 2600 1969 
L 1184 1969 
L 1184 0 
L 563 0 
L 563 4591 
z
" transform="scale(0.015625)"/>
        <path id="Helvetica-3b1" d="M 3347 703 
Q 3334 428 3525 434 
Q 3641 434 3700 475 
L 3700 -19 
Q 3628 -44 3513 -50 
Q 3391 -63 3309 -63 
Q 3084 -56 2956 103 
Q 2816 256 2816 475 
L 2803 475 
Q 2413 -63 1734 -63 
Q 1006 -50 647 459 
Q 281 953 281 1644 
Q 281 2350 634 2859 
Q 984 3378 1741 3391 
Q 2413 3391 2797 2847 
L 2809 2847 
L 2809 3328 
L 3347 3328 
L 3347 703 
z
M 1825 397 
Q 2075 397 2253 513 
Q 2425 622 2541 806 
Q 2766 1184 2766 1638 
Q 2766 2144 2559 2528 
Q 2350 2919 1797 2931 
Q 1306 2919 1081 2534 
Q 856 2156 856 1697 
Q 856 1209 1081 819 
Q 1306 409 1825 397 
z
" transform="scale(0.015625)"/>
        <path id="Helvetica-3b4" d="M 666 4519 
L 3188 4519 
L 3188 4056 
L 1394 4056 
L 1394 4044 
L 2509 3303 
Q 3134 2881 3372 2469 
Q 3591 2053 3584 1600 
Q 3578 934 3163 447 
Q 2738 -50 1938 -63 
Q 1203 -56 769 403 
Q 331 850 325 1556 
Q 341 3066 1863 3188 
L 1863 3200 
L 666 4056 
L 666 4519 
z
M 1991 397 
Q 2497 403 2731 794 
Q 2969 1166 2969 1606 
Q 2969 1856 2919 2041 
Q 2866 2222 2791 2344 
Q 2713 2463 2638 2541 
Q 2559 2619 2509 2650 
Q 2381 2766 2156 2766 
Q 947 2766 941 1528 
Q 941 1056 1216 738 
Q 1491 403 1991 397 
z
" transform="scale(0.015625)"/>
       </defs>
       <use xlink:href="#Helvetica-54"/>
       <use xlink:href="#Helvetica-43" x="61.083984"/>
       <use xlink:href="#Helvetica-52" x="133.300781"/>
       <use xlink:href="#Helvetica-3b1" x="205.517578"/>
       <use xlink:href="#Helvetica-3b4" x="266.601562"/>
       <use xlink:href="#Helvetica-2b" x="327.685547"/>
       <use xlink:href="#Helvetica-20" x="386.083984"/>
       <use xlink:href="#Helvetica-43" x="413.867188"/>
       <use xlink:href="#Helvetica-65" x="486.083984"/>
       <use xlink:href="#Helvetica-6c" x="541.699219"/>
       <use xlink:href="#Helvetica-6c" x="563.916016"/>
       <use xlink:href="#Helvetica-73" x="586.132812"/>
      </g>
     </g>
    </g>
    <g id="xtick_3">
     <g id="text_3">
      <!-- IL7R+ Cells -->
      <g style="fill: #333333" transform="translate(60.873056 81.230229) scale(0.035 -0.035)">
       <defs>
        <path id="Helvetica-49" d="M 628 4591 
L 1256 4591 
L 1256 0 
L 628 0 
L 628 4591 
z
" transform="scale(0.015625)"/>
        <path id="Helvetica-4c" d="M 488 4591 
L 1109 4591 
L 1109 547 
L 3434 547 
L 3434 0 
L 488 0 
L 488 4591 
z
" transform="scale(0.015625)"/>
        <path id="Helvetica-37" d="M 3347 4400 
L 3347 3909 
Q 3131 3700 2773 3181 
Q 2416 2663 2141 2063 
Q 1869 1478 1728 997 
Q 1638 688 1494 0 
L 872 0 
Q 1084 1281 1809 2550 
Q 2238 3294 2709 3834 
L 234 3834 
L 234 4400 
L 3347 4400 
z
" transform="scale(0.015625)"/>
       </defs>
       <use xlink:href="#Helvetica-49"/>
       <use xlink:href="#Helvetica-4c" x="27.783203"/>
       <use xlink:href="#Helvetica-37" x="83.398438"/>
       <use xlink:href="#Helvetica-52" x="139.013672"/>
       <use xlink:href="#Helvetica-2b" x="211.230469"/>
       <use xlink:href="#Helvetica-20" x="269.628906"/>
       <use xlink:href="#Helvetica-43" x="297.412109"/>
       <use xlink:href="#Helvetica-65" x="369.628906"/>
       <use xlink:href="#Helvetica-6c" x="425.244141"/>
       <use xlink:href="#Helvetica-6c" x="447.460938"/>
       <use xlink:href="#Helvetica-73" x="469.677734"/>
      </g>
     </g>
    </g>
   </g>
   <g id="matplotlib.axis_2">
    <g id="ytick_1">
     <g id="line2d_1">
      <defs>
       <path id="m112243338a" d="M 0 0 
L -1 0 
" style="stroke: #777777; stroke-width: 0.5"/>
      </defs>
      <g>
       <use xlink:href="#m112243338a" x="10.005084" y="66.189518" style="fill: #777777; stroke: #777777; stroke-width: 0.5"/>
      </g>
     </g>
     <g id="text_4">
      <!-- 0 -->
      <g style="fill: #333333" transform="translate(6.336803 67.265534) scale(0.03 -0.03)">
       <defs>
        <path id="Helvetica-30" d="M 1731 4475 
Q 2600 4475 2988 3759 
Q 3288 3206 3288 2244 
Q 3288 1331 3016 734 
Q 2622 -122 1728 -122 
Q 922 -122 528 578 
Q 200 1163 200 2147 
Q 200 2909 397 3456 
Q 766 4475 1731 4475 
z
M 1725 391 
Q 2163 391 2422 778 
Q 2681 1166 2681 2222 
Q 2681 2984 2493 3476 
Q 2306 3969 1766 3969 
Q 1269 3969 1039 3501 
Q 809 3034 809 2125 
Q 809 1441 956 1025 
Q 1181 391 1725 391 
z
" transform="scale(0.015625)"/>
       </defs>
       <use xlink:href="#Helvetica-30"/>
      </g>
     </g>
    </g>
    <g id="ytick_2">
     <g id="line2d_2">
      <g>
       <use xlink:href="#m112243338a" x="10.005084" y="55.837308" style="fill: #777777; stroke: #777777; stroke-width: 0.5"/>
      </g>
     </g>
     <g id="text_5">
      <!-- 20 -->
      <g style="fill: #333333" transform="translate(4.668521 56.913323) scale(0.03 -0.03)">
       <defs>
        <path id="Helvetica-32" d="M 200 0 
Q 231 578 439 1006 
Q 647 1434 1250 1784 
L 1850 2131 
Q 2253 2366 2416 2531 
Q 2672 2791 2672 3125 
Q 2672 3516 2437 3745 
Q 2203 3975 1813 3975 
Q 1234 3975 1013 3538 
Q 894 3303 881 2888 
L 309 2888 
Q 319 3472 525 3841 
Q 891 4491 1816 4491 
Q 2584 4491 2939 4075 
Q 3294 3659 3294 3150 
Q 3294 2613 2916 2231 
Q 2697 2009 2131 1694 
L 1703 1456 
Q 1397 1288 1222 1134 
Q 909 863 828 531 
L 3272 531 
L 3272 0 
L 200 0 
z
" transform="scale(0.015625)"/>
       </defs>
       <use xlink:href="#Helvetica-32"/>
       <use xlink:href="#Helvetica-30" x="55.615234"/>
      </g>
     </g>
    </g>
    <g id="ytick_3">
     <g id="line2d_3">
      <g>
       <use xlink:href="#m112243338a" x="10.005084" y="45.485097" style="fill: #777777; stroke: #777777; stroke-width: 0.5"/>
      </g>
     </g>
     <g id="text_6">
      <!-- 40 -->
      <g style="fill: #333333" transform="translate(4.668521 46.561113) scale(0.03 -0.03)">
       <defs>
        <path id="Helvetica-34" d="M 2116 1584 
L 2116 3613 
L 681 1584 
L 2116 1584 
z
M 2125 0 
L 2125 1094 
L 163 1094 
L 163 1644 
L 2213 4488 
L 2688 4488 
L 2688 1584 
L 3347 1584 
L 3347 1094 
L 2688 1094 
L 2688 0 
L 2125 0 
z
" transform="scale(0.015625)"/>
       </defs>
       <use xlink:href="#Helvetica-34"/>
       <use xlink:href="#Helvetica-30" x="55.615234"/>
      </g>
     </g>
    </g>
    <g id="ytick_4">
     <g id="line2d_4">
      <g>
       <use xlink:href="#m112243338a" x="10.005084" y="35.132887" style="fill: #777777; stroke: #777777; stroke-width: 0.5"/>
      </g>
     </g>
     <g id="text_7">
      <!-- 60 -->
      <g style="fill: #333333" transform="translate(4.668521 36.208903) scale(0.03 -0.03)">
       <defs>
        <path id="Helvetica-36" d="M 1872 4494 
Q 2622 4494 2917 4105 
Q 3213 3716 3213 3303 
L 2656 3303 
Q 2606 3569 2497 3719 
Q 2294 4000 1881 4000 
Q 1409 4000 1131 3564 
Q 853 3128 822 2316 
Q 1016 2600 1309 2741 
Q 1578 2866 1909 2866 
Q 2472 2866 2890 2506 
Q 3309 2147 3309 1434 
Q 3309 825 2912 354 
Q 2516 -116 1781 -116 
Q 1153 -116 697 361 
Q 241 838 241 1966 
Q 241 2800 444 3381 
Q 834 4494 1872 4494 
z
M 1831 384 
Q 2275 384 2495 682 
Q 2716 981 2716 1388 
Q 2716 1731 2519 2042 
Q 2322 2353 1803 2353 
Q 1441 2353 1167 2112 
Q 894 1872 894 1388 
Q 894 963 1142 673 
Q 1391 384 1831 384 
z
" transform="scale(0.015625)"/>
       </defs>
       <use xlink:href="#Helvetica-36"/>
       <use xlink:href="#Helvetica-30" x="55.615234"/>
      </g>
     </g>
    </g>
    <g id="ytick_5">
     <g id="line2d_5">
      <g>
       <use xlink:href="#m112243338a" x="10.005084" y="24.780677" style="fill: #777777; stroke: #777777; stroke-width: 0.5"/>
      </g>
     </g>
     <g id="text_8">
      <!-- 80 -->
      <g style="fill: #333333" transform="translate(4.668521 25.856692) scale(0.03 -0.03)">
       <defs>
        <path id="Helvetica-38" d="M 1741 2600 
Q 2113 2600 2322 2808 
Q 2531 3016 2531 3303 
Q 2531 3553 2331 3762 
Q 2131 3972 1722 3972 
Q 1316 3972 1134 3762 
Q 953 3553 953 3272 
Q 953 2956 1187 2778 
Q 1422 2600 1741 2600 
z
M 1775 384 
Q 2166 384 2423 595 
Q 2681 806 2681 1225 
Q 2681 1659 2415 1884 
Q 2150 2109 1734 2109 
Q 1331 2109 1076 1879 
Q 822 1650 822 1244 
Q 822 894 1055 639 
Q 1288 384 1775 384 
z
M 975 2384 
Q 741 2484 609 2619 
Q 363 2869 363 3269 
Q 363 3769 725 4128 
Q 1088 4488 1753 4488 
Q 2397 4488 2762 4148 
Q 3128 3809 3128 3356 
Q 3128 2938 2916 2678 
Q 2797 2531 2547 2391 
Q 2825 2263 2984 2097 
Q 3281 1784 3281 1284 
Q 3281 694 2884 283 
Q 2488 -128 1763 -128 
Q 1109 -128 657 226 
Q 206 581 206 1256 
Q 206 1653 400 1942 
Q 594 2231 975 2384 
z
" transform="scale(0.015625)"/>
       </defs>
       <use xlink:href="#Helvetica-38"/>
       <use xlink:href="#Helvetica-30" x="55.615234"/>
      </g>
     </g>
    </g>
    <g id="ytick_6">
     <g id="line2d_6">
      <g>
       <use xlink:href="#m112243338a" x="10.005084" y="14.428466" style="fill: #777777; stroke: #777777; stroke-width: 0.5"/>
      </g>
     </g>
     <g id="text_9">
      <!-- 100 -->
      <g style="fill: #333333" transform="translate(3.00024 15.504482) scale(0.03 -0.03)">
       <defs>
        <path id="Helvetica-31" d="M 613 3169 
L 613 3600 
Q 1222 3659 1462 3798 
Q 1703 3938 1822 4456 
L 2266 4456 
L 2266 0 
L 1666 0 
L 1666 3169 
L 613 3169 
z
" transform="scale(0.015625)"/>
       </defs>
       <use xlink:href="#Helvetica-31"/>
       <use xlink:href="#Helvetica-30" x="55.615234"/>
       <use xlink:href="#Helvetica-30" x="111.230469"/>
      </g>
     </g>
    </g>
    <g id="ytick_7">
     <g id="line2d_7">
      <g>
       <use xlink:href="#m112243338a" x="10.005084" y="4.076256" style="fill: #777777; stroke: #777777; stroke-width: 0.5"/>
      </g>
     </g>
     <g id="text_10">
      <!-- 120 -->
      <g style="fill: #333333" transform="translate(3.00024 5.152271) scale(0.03 -0.03)">
       <use xlink:href="#Helvetica-31"/>
       <use xlink:href="#Helvetica-32" x="55.615234"/>
       <use xlink:href="#Helvetica-30" x="111.230469"/>
      </g>
     </g>
    </g>
   </g>
   <g id="PolyCollection_1">
    <defs>
     <path id="mdb1c6fc50a" d="M 23.682154 -18.708324 
L 20.312906 -18.708324 
L 19.909597 -18.83058 
L 19.45726 -18.952837 
L 18.962799 -19.075093 
L 18.436363 -19.197349 
L 17.890908 -19.319605 
L 17.341386 -19.441861 
L 16.803619 -19.564117 
L 16.292969 -19.686373 
L 15.822958 -19.808629 
L 15.40402 -19.930885 
L 15.042564 -20.053141 
L 14.740484 -20.175397 
L 14.495201 -20.297654 
L 14.300241 -20.41991 
L 14.146275 -20.542166 
L 14.022471 -20.664422 
L 13.917982 -20.786678 
L 13.82336 -20.908934 
L 13.731708 -21.03119 
L 13.639445 -21.153446 
L 13.546588 -21.275702 
L 13.456569 -21.397958 
L 13.375627 -21.520214 
L 13.311905 -21.64247 
L 13.274381 -21.764727 
L 13.271789 -21.886983 
L 13.311641 -22.009239 
L 13.399467 -22.131495 
L 13.538296 -22.253751 
L 13.728396 -22.376007 
L 13.96723 -22.498263 
L 14.249574 -22.620519 
L 14.567731 -22.742775 
L 14.91178 -22.865031 
L 15.269851 -22.987287 
L 15.62841 -23.109544 
L 15.972596 -23.2318 
L 16.286662 -23.354056 
L 16.554559 -23.476312 
L 16.760709 -23.598568 
L 16.890958 -23.720824 
L 16.933659 -23.84308 
L 16.880808 -23.965336 
L 16.729082 -24.087592 
L 16.48065 -24.209848 
L 16.143601 -24.332104 
L 15.731891 -24.45436 
L 15.264738 -24.576617 
L 14.76549 -24.698873 
L 14.260048 -24.821129 
L 13.774995 -24.943385 
L 13.335634 -25.065641 
L 12.964145 -25.187897 
L 12.678072 -25.310153 
L 12.489294 -25.432409 
L 12.403573 -25.554665 
L 12.420687 -25.676921 
L 12.535095 -25.799177 
L 12.736994 -25.921434 
L 13.013598 -26.04369 
L 13.350459 -26.165946 
L 13.732677 -26.288202 
L 14.145845 -26.410458 
L 14.576704 -26.532714 
L 15.013471 -26.65497 
L 15.445899 -26.777226 
L 15.865159 -26.899482 
L 16.26364 -27.021738 
L 16.634766 -27.143994 
L 16.972896 -27.266251 
L 17.273353 -27.388507 
L 17.532573 -27.510763 
L 17.748331 -27.633019 
L 17.920011 -27.755275 
L 18.048815 -27.877531 
L 18.137894 -27.999787 
L 18.19232 -28.122043 
L 18.218909 -28.244299 
L 18.225882 -28.366555 
L 18.222402 -28.488811 
L 18.218015 -28.611067 
L 18.222062 -28.733324 
L 18.243087 -28.85558 
L 18.288317 -28.977836 
L 18.363215 -29.100092 
L 18.471182 -29.222348 
L 18.613385 -29.344604 
L 18.788758 -29.46686 
L 18.994148 -29.589116 
L 19.224615 -29.711372 
L 19.47385 -29.833628 
L 19.734666 -29.955884 
L 19.99954 -30.078141 
L 20.26114 -30.200397 
L 20.512792 -30.322653 
L 20.74886 -30.444909 
L 20.965001 -30.567165 
L 21.158284 -30.689421 
L 21.32719 -30.811677 
L 22.66787 -30.811677 
L 22.66787 -30.811677 
L 22.836775 -30.689421 
L 23.030058 -30.567165 
L 23.246199 -30.444909 
L 23.482268 -30.322653 
L 23.73392 -30.200397 
L 23.99552 -30.078141 
L 24.260394 -29.955884 
L 24.52121 -29.833628 
L 24.770444 -29.711372 
L 25.000912 -29.589116 
L 25.206302 -29.46686 
L 25.381674 -29.344604 
L 25.523878 -29.222348 
L 25.631844 -29.100092 
L 25.706743 -28.977836 
L 25.751972 -28.85558 
L 25.772998 -28.733324 
L 25.777044 -28.611067 
L 25.772658 -28.488811 
L 25.769177 -28.366555 
L 25.776151 -28.244299 
L 25.80274 -28.122043 
L 25.857166 -27.999787 
L 25.946244 -27.877531 
L 26.075049 -27.755275 
L 26.246728 -27.633019 
L 26.462487 -27.510763 
L 26.721706 -27.388507 
L 27.022164 -27.266251 
L 27.360294 -27.143994 
L 27.73142 -27.021738 
L 28.129901 -26.899482 
L 28.549161 -26.777226 
L 28.981588 -26.65497 
L 29.418355 -26.532714 
L 29.849215 -26.410458 
L 30.262383 -26.288202 
L 30.6446 -26.165946 
L 30.981462 -26.04369 
L 31.258065 -25.921434 
L 31.459964 -25.799177 
L 31.574373 -25.676921 
L 31.591487 -25.554665 
L 31.505765 -25.432409 
L 31.316988 -25.310153 
L 31.030915 -25.187897 
L 30.659425 -25.065641 
L 30.220064 -24.943385 
L 29.735012 -24.821129 
L 29.22957 -24.698873 
L 28.730322 -24.576617 
L 28.263169 -24.45436 
L 27.851458 -24.332104 
L 27.51441 -24.209848 
L 27.265977 -24.087592 
L 27.114251 -23.965336 
L 27.061401 -23.84308 
L 27.104102 -23.720824 
L 27.23435 -23.598568 
L 27.4405 -23.476312 
L 27.708397 -23.354056 
L 28.022463 -23.2318 
L 28.36665 -23.109544 
L 28.725208 -22.987287 
L 29.08328 -22.865031 
L 29.427329 -22.742775 
L 29.745485 -22.620519 
L 30.02783 -22.498263 
L 30.266664 -22.376007 
L 30.456764 -22.253751 
L 30.595593 -22.131495 
L 30.683419 -22.009239 
L 30.723271 -21.886983 
L 30.720678 -21.764727 
L 30.683155 -21.64247 
L 30.619433 -21.520214 
L 30.53849 -21.397958 
L 30.448471 -21.275702 
L 30.355615 -21.153446 
L 30.263352 -21.03119 
L 30.1717 -20.908934 
L 30.077078 -20.786678 
L 29.972589 -20.664422 
L 29.848784 -20.542166 
L 29.694818 -20.41991 
L 29.499859 -20.297654 
L 29.254575 -20.175397 
L 28.952495 -20.053141 
L 28.591039 -19.930885 
L 28.172101 -19.808629 
L 27.702091 -19.686373 
L 27.191441 -19.564117 
L 26.653674 -19.441861 
L 26.104152 -19.319605 
L 25.558697 -19.197349 
L 25.032261 -19.075093 
L 24.5378 -18.952837 
L 24.085462 -18.83058 
L 23.682154 -18.708324 
z
" style="stroke: #6f6f6f; stroke-width: 0.15"/>
    </defs>
    <g clip-path="url(#p6930e971e2)">
     <use xlink:href="#mdb1c6fc50a" x="0" y="84.96" style="fill: #abc9ea; stroke: #6f6f6f; stroke-width: 0.15"/>
    </g>
   </g>
   <g id="PolyCollection_2">
    <defs>
     <path id="mea0d4cd91a" d="M 46.948335 -15.241368 
L 45.016509 -15.241368 
L 44.796891 -15.649009 
L 44.551785 -16.056651 
L 44.284542 -16.464292 
L 44.000016 -16.871933 
L 43.704347 -17.279574 
L 43.404563 -17.687215 
L 43.108032 -18.094857 
L 42.821801 -18.502498 
L 42.551888 -18.910139 
L 42.302606 -19.31778 
L 42.076018 -19.725422 
L 41.871584 -20.133063 
L 41.68607 -20.540704 
L 41.513745 -20.948345 
L 41.346866 -21.355986 
L 41.176399 -21.763628 
L 40.992912 -22.171269 
L 40.787554 -22.57891 
L 40.552995 -22.986551 
L 40.284255 -23.394193 
L 39.979326 -23.801834 
L 39.639535 -24.209475 
L 39.269615 -24.617116 
L 38.877498 -25.024757 
L 38.473849 -25.432399 
L 38.071387 -25.84004 
L 37.68406 -26.247681 
L 37.326137 -26.655322 
L 37.011279 -27.062964 
L 36.751663 -27.470605 
L 36.557197 -27.878246 
L 36.4349 -28.285887 
L 36.388465 -28.693528 
L 36.418055 -29.10117 
L 36.520339 -29.508811 
L 36.688786 -29.916452 
L 36.914174 -30.324093 
L 37.185318 -30.731735 
L 37.489925 -31.139376 
L 37.815518 -31.547017 
L 38.150348 -31.954658 
L 38.484194 -32.362299 
L 38.80898 -32.769941 
L 39.119148 -33.177582 
L 39.411753 -33.585223 
L 39.686277 -33.992864 
L 39.944206 -34.400506 
L 40.188426 -34.808147 
L 40.422514 -35.215788 
L 40.650038 -35.623429 
L 40.87392 -36.031071 
L 41.095958 -36.438712 
L 41.316534 -36.846353 
L 41.534532 -37.253994 
L 41.74745 -37.661635 
L 41.951679 -38.069277 
L 42.142888 -38.476918 
L 42.316476 -38.884559 
L 42.468025 -39.2922 
L 42.593705 -39.699842 
L 42.690591 -40.107483 
L 42.756873 -40.515124 
L 42.791925 -40.922765 
L 42.796242 -41.330406 
L 42.771251 -41.738048 
L 42.719028 -42.145689 
L 42.641949 -42.55333 
L 42.542342 -42.960971 
L 42.422194 -43.368613 
L 42.28297 -43.776254 
L 42.125599 -44.183895 
L 41.950646 -44.591536 
L 41.758669 -44.999177 
L 41.550717 -45.406819 
L 41.328902 -45.81446 
L 41.096934 -46.222101 
L 40.860532 -46.629742 
L 40.627592 -47.037384 
L 40.408062 -47.445025 
L 40.213478 -47.852666 
L 40.056206 -48.260307 
L 39.948448 -48.667948 
L 39.901139 -49.07559 
L 39.922869 -49.483231 
L 40.018967 -49.890872 
L 40.190879 -50.298513 
L 40.435908 -50.706155 
L 40.747354 -51.113796 
L 41.115025 -51.521437 
L 41.526064 -51.929078 
L 41.96597 -52.336719 
L 42.419697 -52.744361 
L 42.872719 -53.152002 
L 43.31194 -53.559643 
L 43.726392 -53.967284 
L 44.107664 -54.374926 
L 44.450069 -54.782567 
L 44.750568 -55.190208 
L 45.0085 -55.597849 
L 46.956344 -55.597849 
L 46.956344 -55.597849 
L 47.214276 -55.190208 
L 47.514775 -54.782567 
L 47.85718 -54.374926 
L 48.238452 -53.967284 
L 48.652904 -53.559643 
L 49.092125 -53.152002 
L 49.545146 -52.744361 
L 49.998874 -52.336719 
L 50.438779 -51.929078 
L 50.849819 -51.521437 
L 51.21749 -51.113796 
L 51.528935 -50.706155 
L 51.773965 -50.298513 
L 51.945877 -49.890872 
L 52.041975 -49.483231 
L 52.063704 -49.07559 
L 52.016396 -48.667948 
L 51.908638 -48.260307 
L 51.751366 -47.852666 
L 51.556782 -47.445025 
L 51.337252 -47.037384 
L 51.104312 -46.629742 
L 50.86791 -46.222101 
L 50.635942 -45.81446 
L 50.414126 -45.406819 
L 50.206175 -44.999177 
L 50.014198 -44.591536 
L 49.839245 -44.183895 
L 49.681874 -43.776254 
L 49.54265 -43.368613 
L 49.422502 -42.960971 
L 49.322895 -42.55333 
L 49.245816 -42.145689 
L 49.193593 -41.738048 
L 49.168602 -41.330406 
L 49.172918 -40.922765 
L 49.20797 -40.515124 
L 49.274253 -40.107483 
L 49.371139 -39.699842 
L 49.496818 -39.2922 
L 49.648368 -38.884559 
L 49.821956 -38.476918 
L 50.013165 -38.069277 
L 50.217393 -37.661635 
L 50.430312 -37.253994 
L 50.64831 -36.846353 
L 50.868886 -36.438712 
L 51.090924 -36.031071 
L 51.314806 -35.623429 
L 51.54233 -35.215788 
L 51.776418 -34.808147 
L 52.020637 -34.400506 
L 52.278567 -33.992864 
L 52.553091 -33.585223 
L 52.845696 -33.177582 
L 53.155864 -32.769941 
L 53.48065 -32.362299 
L 53.814496 -31.954658 
L 54.149326 -31.547017 
L 54.474919 -31.139376 
L 54.779525 -30.731735 
L 55.05067 -30.324093 
L 55.276058 -29.916452 
L 55.444504 -29.508811 
L 55.546789 -29.10117 
L 55.576379 -28.693528 
L 55.529943 -28.285887 
L 55.407646 -27.878246 
L 55.213181 -27.470605 
L 54.953564 -27.062964 
L 54.638707 -26.655322 
L 54.280783 -26.247681 
L 53.893456 -25.84004 
L 53.490994 -25.432399 
L 53.087346 -25.024757 
L 52.695229 -24.617116 
L 52.325309 -24.209475 
L 51.985517 -23.801834 
L 51.680589 -23.394193 
L 51.411849 -22.986551 
L 51.177289 -22.57891 
L 50.971931 -22.171269 
L 50.788445 -21.763628 
L 50.617977 -21.355986 
L 50.451098 -20.948345 
L 50.278774 -20.540704 
L 50.09326 -20.133063 
L 49.888826 -19.725422 
L 49.662238 -19.31778 
L 49.412956 -18.910139 
L 49.143042 -18.502498 
L 48.856812 -18.094857 
L 48.560281 -17.687215 
L 48.260497 -17.279574 
L 47.964828 -16.871933 
L 47.680302 -16.464292 
L 47.413059 -16.056651 
L 47.167953 -15.649009 
L 46.948335 -15.241368 
z
" style="stroke: #6f6f6f; stroke-width: 0.15"/>
    </defs>
    <g clip-path="url(#p6930e971e2)">
     <use xlink:href="#mea0d4cd91a" x="0" y="84.96" style="fill: #efb792; stroke: #6f6f6f; stroke-width: 0.15"/>
    </g>
   </g>
   <g id="PolyCollection_3">
    <defs>
     <path id="mb6e9167f9c" d="M 70.898164 -20.026683 
L 69.036464 -20.026683 
L 68.821687 -20.519618 
L 68.585678 -21.012552 
L 68.334154 -21.505487 
L 68.074613 -21.998421 
L 67.81584 -22.491356 
L 67.567157 -22.98429 
L 67.337487 -23.477225 
L 67.134316 -23.970159 
L 66.962718 -24.463094 
L 66.824574 -24.956028 
L 66.718142 -25.448963 
L 66.638073 -25.941897 
L 66.575918 -26.434832 
L 66.521099 -26.927766 
L 66.462236 -27.420701 
L 66.388653 -27.913635 
L 66.291856 -28.40657 
L 66.166754 -28.899504 
L 66.012432 -29.392439 
L 65.832339 -29.885373 
L 65.633845 -30.378308 
L 65.427228 -30.871242 
L 65.224226 -31.364177 
L 65.036379 -31.857111 
L 64.873422 -32.350046 
L 64.74197 -32.84298 
L 64.644701 -33.335915 
L 64.580158 -33.828849 
L 64.543178 -34.321784 
L 64.525863 -34.814718 
L 64.518906 -35.307653 
L 64.513041 -35.800587 
L 64.500377 -36.293522 
L 64.475389 -36.786456 
L 64.435433 -37.279391 
L 64.380721 -37.772325 
L 64.3138 -38.26526 
L 64.238662 -38.758194 
L 64.15966 -39.251129 
L 64.080448 -39.744063 
L 64.003117 -40.236998 
L 63.92769 -40.729932 
L 63.852042 -41.222867 
L 63.772244 -41.715801 
L 63.683262 -42.208735 
L 63.579857 -42.70167 
L 63.457546 -43.194604 
L 63.313417 -43.687539 
L 63.14668 -44.180473 
L 62.958844 -44.673408 
L 62.753501 -45.166342 
L 62.535777 -45.659277 
L 62.311549 -46.152211 
L 62.086611 -46.645146 
L 61.865951 -47.13808 
L 61.653287 -47.631015 
L 61.450971 -48.123949 
L 61.260251 -48.616884 
L 61.08183 -49.109818 
L 60.916579 -49.602753 
L 60.766188 -50.095687 
L 60.633592 -50.588622 
L 60.523005 -51.081556 
L 60.439511 -51.574491 
L 60.38825 -52.067425 
L 60.373357 -52.56036 
L 60.396856 -53.053294 
L 60.457781 -53.546229 
L 60.55173 -54.039163 
L 60.671007 -54.532098 
L 60.805388 -55.025032 
L 60.943404 -55.517967 
L 61.073967 -56.010901 
L 61.188043 -56.503836 
L 61.280113 -56.99677 
L 61.349163 -57.489705 
L 61.399037 -57.982639 
L 61.438119 -58.475574 
L 61.478397 -58.968508 
L 61.534058 -59.461443 
L 61.619857 -59.954377 
L 61.749458 -60.447312 
L 61.933991 -60.940246 
L 62.180959 -61.433181 
L 62.493598 -61.926115 
L 62.870703 -62.41905 
L 63.306878 -62.911984 
L 63.793134 -63.404919 
L 64.317731 -63.897853 
L 64.867145 -64.390787 
L 65.427077 -64.883722 
L 65.983411 -65.376656 
L 66.523055 -65.869591 
L 67.034621 -66.362525 
L 67.508913 -66.85546 
L 67.939216 -67.348394 
L 68.321371 -67.841329 
L 68.653681 -68.334263 
L 68.936652 -68.827198 
L 70.997976 -68.827198 
L 70.997976 -68.827198 
L 71.280947 -68.334263 
L 71.613257 -67.841329 
L 71.995412 -67.348394 
L 72.425715 -66.85546 
L 72.900007 -66.362525 
L 73.411573 -65.869591 
L 73.951217 -65.376656 
L 74.507551 -64.883722 
L 75.067483 -64.390787 
L 75.616896 -63.897853 
L 76.141493 -63.404919 
L 76.62775 -62.911984 
L 77.063925 -62.41905 
L 77.44103 -61.926115 
L 77.753669 -61.433181 
L 78.000637 -60.940246 
L 78.18517 -60.447312 
L 78.314771 -59.954377 
L 78.40057 -59.461443 
L 78.456231 -58.968508 
L 78.496508 -58.475574 
L 78.535591 -57.982639 
L 78.585465 -57.489705 
L 78.654514 -56.99677 
L 78.746585 -56.503836 
L 78.860661 -56.010901 
L 78.991223 -55.517967 
L 79.12924 -55.025032 
L 79.263621 -54.532098 
L 79.382898 -54.039163 
L 79.476847 -53.546229 
L 79.537772 -53.053294 
L 79.561271 -52.56036 
L 79.546378 -52.067425 
L 79.495117 -51.574491 
L 79.411623 -51.081556 
L 79.301036 -50.588622 
L 79.16844 -50.095687 
L 79.018049 -49.602753 
L 78.852798 -49.109818 
L 78.674377 -48.616884 
L 78.483657 -48.123949 
L 78.281341 -47.631015 
L 78.068677 -47.13808 
L 77.848017 -46.645146 
L 77.623079 -46.152211 
L 77.398851 -45.659277 
L 77.181127 -45.166342 
L 76.975784 -44.673408 
L 76.787947 -44.180473 
L 76.62121 -43.687539 
L 76.477082 -43.194604 
L 76.354771 -42.70167 
L 76.251366 -42.208735 
L 76.162384 -41.715801 
L 76.082586 -41.222867 
L 76.006938 -40.729932 
L 75.931511 -40.236998 
L 75.85418 -39.744063 
L 75.774968 -39.251129 
L 75.695966 -38.758194 
L 75.620828 -38.26526 
L 75.553906 -37.772325 
L 75.499194 -37.279391 
L 75.459239 -36.786456 
L 75.434251 -36.293522 
L 75.421587 -35.800587 
L 75.415722 -35.307653 
L 75.408765 -34.814718 
L 75.39145 -34.321784 
L 75.35447 -33.828849 
L 75.289927 -33.335915 
L 75.192658 -32.84298 
L 75.061206 -32.350046 
L 74.898249 -31.857111 
L 74.710402 -31.364177 
L 74.5074 -30.871242 
L 74.300783 -30.378308 
L 74.102289 -29.885373 
L 73.922196 -29.392439 
L 73.767874 -28.899504 
L 73.642772 -28.40657 
L 73.545975 -27.913635 
L 73.472392 -27.420701 
L 73.413529 -26.927766 
L 73.35871 -26.434832 
L 73.296555 -25.941897 
L 73.216486 -25.448963 
L 73.110054 -24.956028 
L 72.97191 -24.463094 
L 72.800312 -23.970159 
L 72.597141 -23.477225 
L 72.367471 -22.98429 
L 72.118788 -22.491356 
L 71.860015 -21.998421 
L 71.600474 -21.505487 
L 71.34895 -21.012552 
L 71.112941 -20.519618 
L 70.898164 -20.026683 
z
" style="stroke: #6f6f6f; stroke-width: 0.15"/>
    </defs>
    <g clip-path="url(#p6930e971e2)">
     <use xlink:href="#mb6e9167f9c" x="0" y="84.96" style="fill: #98daa7; stroke: #6f6f6f; stroke-width: 0.15"/>
    </g>
   </g>
   <g id="line2d_8">
    <path d="M 21.99753 65.002461 
L 21.99753 55.397537 
" clip-path="url(#p6930e971e2)" style="fill: none; stroke: #8c8c8c; stroke-width: 0.75; stroke-linecap: round"/>
   </g>
   <g id="line2d_9">
    <path d="M 21.99753 63.180914 
L 21.99753 58.90249 
" clip-path="url(#p6930e971e2)" style="fill: none; stroke: #8c8c8c; stroke-width: 4; stroke-linecap: round"/>
   </g>
   <g id="line2d_10">
    <path d="M 21.99753 60.842992 
" clip-path="url(#p6930e971e2)" style="fill: none; stroke: #6f6f6f; stroke-width: 1.2; stroke-linecap: round"/>
    <defs>
     <path id="m129ebeee4e" d="M 0 0.833333 
C 0.221003 0.833333 0.432983 0.745528 0.589256 0.589256 
C 0.745528 0.432983 0.833333 0.221003 0.833333 0 
C 0.833333 -0.221003 0.745528 -0.432983 0.589256 -0.589256 
C 0.432983 -0.745528 0.221003 -0.833333 0 -0.833333 
C -0.221003 -0.833333 -0.432983 -0.745528 -0.589256 -0.589256 
C -0.745528 -0.432983 -0.833333 -0.221003 -0.833333 0 
C -0.833333 0.221003 -0.745528 0.432983 -0.589256 0.589256 
C -0.432983 0.745528 -0.221003 0.833333 0 0.833333 
z
" style="stroke: #ffffff; stroke-width: 0.8"/>
    </defs>
    <g clip-path="url(#p6930e971e2)">
     <use xlink:href="#m129ebeee4e" x="21.99753" y="60.842992" style="fill: #ffffff; stroke: #ffffff; stroke-width: 0.8"/>
    </g>
   </g>
   <g id="line2d_11">
    <path d="M 45.982422 65.383778 
L 45.982422 33.697005 
" clip-path="url(#p6930e971e2)" style="fill: none; stroke: #8c8c8c; stroke-width: 0.75; stroke-linecap: round"/>
   </g>
   <g id="line2d_12">
    <path d="M 45.982422 57.540277 
L 45.982422 40.838779 
" clip-path="url(#p6930e971e2)" style="fill: none; stroke: #8c8c8c; stroke-width: 4; stroke-linecap: round"/>
   </g>
   <g id="line2d_13">
    <path d="M 45.982422 53.632143 
" clip-path="url(#p6930e971e2)" style="fill: none; stroke: #6f6f6f; stroke-width: 1.2; stroke-linecap: round"/>
    <g clip-path="url(#p6930e971e2)">
     <use xlink:href="#m129ebeee4e" x="45.982422" y="53.632143" style="fill: #ffffff; stroke: #ffffff; stroke-width: 0.8"/>
    </g>
   </g>
   <g id="line2d_14">
    <path d="M 69.967314 59.99351 
L 69.967314 21.072609 
" clip-path="url(#p6930e971e2)" style="fill: none; stroke: #8c8c8c; stroke-width: 0.75; stroke-linecap: round"/>
   </g>
   <g id="line2d_15">
    <path d="M 69.967314 45.480471 
L 69.967314 29.637071 
" clip-path="url(#p6930e971e2)" style="fill: none; stroke: #8c8c8c; stroke-width: 4; stroke-linecap: round"/>
   </g>
   <g id="line2d_16">
    <path d="M 69.967314 36.679463 
" clip-path="url(#p6930e971e2)" style="fill: none; stroke: #6f6f6f; stroke-width: 1.2; stroke-linecap: round"/>
    <g clip-path="url(#p6930e971e2)">
     <use xlink:href="#m129ebeee4e" x="69.967314" y="36.679463" style="fill: #ffffff; stroke: #ffffff; stroke-width: 0.8"/>
    </g>
   </g>
   <g id="patch_3">
    <path d="M 10.005084 74.419526 
L 10.005084 4.076256 
" style="fill: none; stroke: #777777; stroke-width: 0.5; stroke-linejoin: miter; stroke-linecap: square"/>
   </g>
   <g id="patch_4">
    <path d="M 10.005084 76.919526 
L 81.95976 76.919526 
" style="fill: none; stroke: #777777; stroke-width: 0.5; stroke-linejoin: miter; stroke-linecap: square"/>
   </g>
  </g>
 </g>
 <defs>
  <clipPath id="p6930e971e2">
   <rect x="10.005084" y="4.076256" width="71.954676" height="70.34327"/>
  </clipPath>
 </defs>
</svg>
