<?xml version="1.0" encoding="utf-8" standalone="no"?>
<!DOCTYPE svg PUBLIC "-//W3C//DTD SVG 1.1//EN"
  "http://www.w3.org/Graphics/SVG/1.1/DTD/svg11.dtd">
<svg xmlns:xlink="http://www.w3.org/1999/xlink" width="56.16pt" height="84.96pt" viewBox="0 0 56.16 84.96" xmlns="http://www.w3.org/2000/svg" version="1.1">
 <metadata>
  <rdf:RDF xmlns:dc="http://purl.org/dc/elements/1.1/" xmlns:cc="http://creativecommons.org/ns#" xmlns:rdf="http://www.w3.org/1999/02/22-rdf-syntax-ns#">
   <cc:Work>
    <dc:type rdf:resource="http://purl.org/dc/dcmitype/StillImage"/>
    <dc:date>2024-05-27T15:37:04.708318</dc:date>
    <dc:format>image/svg+xml</dc:format>
    <dc:creator>
     <cc:Agent>
      <dc:title>Matplotlib v3.8.3, https://matplotlib.org/</dc:title>
     </cc:Agent>
    </dc:creator>
   </cc:Work>
  </rdf:RDF>
 </metadata>
 <defs>
  <style type="text/css">*{stroke-linejoin: round; stroke-linecap: butt}</style>
 </defs>
 <g id="figure_1">
  <g id="patch_1">
   <path d="M 0 84.96 
L 56.16 84.96 
L 56.16 0 
L 0 0 
z
" style="fill: #ffffff"/>
  </g>
  <g id="axes_1">
   <g id="patch_2">
    <path d="M 8.336802 74.419526 
L 53.15976 74.419526 
L 53.15976 4.076256 
L 8.336802 4.076256 
z
" style="fill: #ffffff"/>
   </g>
   <g id="matplotlib.axis_1">
    <g id="xtick_1">
     <g id="text_1">
      <!-- ILC2 -->
      <g style="fill: #333333" transform="translate(15.846214 81.230229) scale(0.035 -0.035)">
       <defs>
        <path id="Helvetica-49" d="M 628 4591 
L 1256 4591 
L 1256 0 
L 628 0 
L 628 4591 
z
" transform="scale(0.015625)"/>
        <path id="Helvetica-4c" d="M 488 4591 
L 1109 4591 
L 1109 547 
L 3434 547 
L 3434 0 
L 488 0 
L 488 4591 
z
" transform="scale(0.015625)"/>
        <path id="Helvetica-43" d="M 2422 4716 
Q 3294 4716 3775 4256 
Q 4256 3797 4309 3213 
L 3703 3213 
Q 3600 3656 3292 3915 
Q 2984 4175 2428 4175 
Q 1750 4175 1333 3698 
Q 916 3222 916 2238 
Q 916 1431 1292 929 
Q 1669 428 2416 428 
Q 3103 428 3463 956 
Q 3653 1234 3747 1688 
L 4353 1688 
Q 4272 963 3816 472 
Q 3269 -119 2341 -119 
Q 1541 -119 997 366 
Q 281 1006 281 2344 
Q 281 3359 819 4009 
Q 1400 4716 2422 4716 
z
M 2297 4716 
L 2297 4716 
z
" transform="scale(0.015625)"/>
        <path id="Helvetica-32" d="M 200 0 
Q 231 578 439 1006 
Q 647 1434 1250 1784 
L 1850 2131 
Q 2253 2366 2416 2531 
Q 2672 2791 2672 3125 
Q 2672 3516 2437 3745 
Q 2203 3975 1813 3975 
Q 1234 3975 1013 3538 
Q 894 3303 881 2888 
L 309 2888 
Q 319 3472 525 3841 
Q 891 4491 1816 4491 
Q 2584 4491 2939 4075 
Q 3294 3659 3294 3150 
Q 3294 2613 2916 2231 
Q 2697 2009 2131 1694 
L 1703 1456 
Q 1397 1288 1222 1134 
Q 909 863 828 531 
L 3272 531 
L 3272 0 
L 200 0 
z
" transform="scale(0.015625)"/>
       </defs>
       <use xlink:href="#Helvetica-49"/>
       <use xlink:href="#Helvetica-4c" x="27.783203"/>
       <use xlink:href="#Helvetica-43" x="83.398438"/>
       <use xlink:href="#Helvetica-32" x="155.615234"/>
      </g>
     </g>
    </g>
    <g id="xtick_2">
     <g id="text_2">
      <!-- TH2 -->
      <g style="fill: #333333" transform="translate(38.648161 81.230229) scale(0.035 -0.035)">
       <defs>
        <path id="Helvetica-54" d="M 3828 4591 
L 3828 4044 
L 2281 4044 
L 2281 0 
L 1650 0 
L 1650 4044 
L 103 4044 
L 103 4591 
L 3828 4591 
z
" transform="scale(0.015625)"/>
        <path id="Helvetica-48" d="M 503 4591 
L 1131 4591 
L 1131 2694 
L 3519 2694 
L 3519 4591 
L 4147 4591 
L 4147 0 
L 3519 0 
L 3519 2147 
L 1131 2147 
L 1131 0 
L 503 0 
L 503 4591 
z
" transform="scale(0.015625)"/>
       </defs>
       <use xlink:href="#Helvetica-54"/>
       <use xlink:href="#Helvetica-48" x="61.083984"/>
       <use xlink:href="#Helvetica-32" x="133.300781"/>
      </g>
     </g>
    </g>
   </g>
   <g id="matplotlib.axis_2">
    <g id="ytick_1">
     <g id="line2d_1">
      <defs>
       <path id="mbb1b0590ec" d="M 0 0 
L -1 0 
" style="stroke: #777777; stroke-width: 0.5"/>
      </defs>
      <g>
       <use xlink:href="#mbb1b0590ec" x="8.336802" y="66.995102" style="fill: #777777; stroke: #777777; stroke-width: 0.5"/>
      </g>
     </g>
     <g id="text_3">
      <!-- 0 -->
      <g style="fill: #333333" transform="translate(4.668521 68.071117) scale(0.03 -0.03)">
       <defs>
        <path id="Helvetica-30" d="M 1731 4475 
Q 2600 4475 2988 3759 
Q 3288 3206 3288 2244 
Q 3288 1331 3016 734 
Q 2622 -122 1728 -122 
Q 922 -122 528 578 
Q 200 1163 200 2147 
Q 200 2909 397 3456 
Q 766 4475 1731 4475 
z
M 1725 391 
Q 2163 391 2422 778 
Q 2681 1166 2681 2222 
Q 2681 2984 2493 3476 
Q 2306 3969 1766 3969 
Q 1269 3969 1039 3501 
Q 809 3034 809 2125 
Q 809 1441 956 1025 
Q 1181 391 1725 391 
z
" transform="scale(0.015625)"/>
       </defs>
       <use xlink:href="#Helvetica-30"/>
      </g>
     </g>
    </g>
    <g id="ytick_2">
     <g id="line2d_2">
      <g>
       <use xlink:href="#mbb1b0590ec" x="8.336802" y="54.411333" style="fill: #777777; stroke: #777777; stroke-width: 0.5"/>
      </g>
     </g>
     <g id="text_4">
      <!-- 10 -->
      <g style="fill: #333333" transform="translate(3.00024 55.487348) scale(0.03 -0.03)">
       <defs>
        <path id="Helvetica-31" d="M 613 3169 
L 613 3600 
Q 1222 3659 1462 3798 
Q 1703 3938 1822 4456 
L 2266 4456 
L 2266 0 
L 1666 0 
L 1666 3169 
L 613 3169 
z
" transform="scale(0.015625)"/>
       </defs>
       <use xlink:href="#Helvetica-31"/>
       <use xlink:href="#Helvetica-30" x="55.615234"/>
      </g>
     </g>
    </g>
    <g id="ytick_3">
     <g id="line2d_3">
      <g>
       <use xlink:href="#mbb1b0590ec" x="8.336802" y="41.827563" style="fill: #777777; stroke: #777777; stroke-width: 0.5"/>
      </g>
     </g>
     <g id="text_5">
      <!-- 20 -->
      <g style="fill: #333333" transform="translate(3.00024 42.903579) scale(0.03 -0.03)">
       <use xlink:href="#Helvetica-32"/>
       <use xlink:href="#Helvetica-30" x="55.615234"/>
      </g>
     </g>
    </g>
    <g id="ytick_4">
     <g id="line2d_4">
      <g>
       <use xlink:href="#mbb1b0590ec" x="8.336802" y="29.243794" style="fill: #777777; stroke: #777777; stroke-width: 0.5"/>
      </g>
     </g>
     <g id="text_6">
      <!-- 30 -->
      <g style="fill: #333333" transform="translate(3.00024 30.31981) scale(0.03 -0.03)">
       <defs>
        <path id="Helvetica-33" d="M 1663 -122 
Q 869 -122 511 314 
Q 153 750 153 1375 
L 741 1375 
Q 778 941 903 744 
Q 1122 391 1694 391 
Q 2138 391 2406 628 
Q 2675 866 2675 1241 
Q 2675 1703 2392 1887 
Q 2109 2072 1606 2072 
Q 1550 2072 1492 2070 
Q 1434 2069 1375 2066 
L 1375 2563 
Q 1463 2553 1522 2550 
Q 1581 2547 1650 2547 
Q 1966 2547 2169 2647 
Q 2525 2822 2525 3272 
Q 2525 3606 2287 3787 
Q 2050 3969 1734 3969 
Q 1172 3969 956 3594 
Q 838 3388 822 3006 
L 266 3006 
Q 266 3506 466 3856 
Q 809 4481 1675 4481 
Q 2359 4481 2734 4176 
Q 3109 3872 3109 3294 
Q 3109 2881 2888 2625 
Q 2750 2466 2531 2375 
Q 2884 2278 3082 2001 
Q 3281 1725 3281 1325 
Q 3281 684 2859 281 
Q 2438 -122 1663 -122 
z
" transform="scale(0.015625)"/>
       </defs>
       <use xlink:href="#Helvetica-33"/>
       <use xlink:href="#Helvetica-30" x="55.615234"/>
      </g>
     </g>
    </g>
    <g id="ytick_5">
     <g id="line2d_5">
      <g>
       <use xlink:href="#mbb1b0590ec" x="8.336802" y="16.660025" style="fill: #777777; stroke: #777777; stroke-width: 0.5"/>
      </g>
     </g>
     <g id="text_7">
      <!-- 40 -->
      <g style="fill: #333333" transform="translate(3.00024 17.73604) scale(0.03 -0.03)">
       <defs>
        <path id="Helvetica-34" d="M 2116 1584 
L 2116 3613 
L 681 1584 
L 2116 1584 
z
M 2125 0 
L 2125 1094 
L 163 1094 
L 163 1644 
L 2213 4488 
L 2688 4488 
L 2688 1584 
L 3347 1584 
L 3347 1094 
L 2688 1094 
L 2688 0 
L 2125 0 
z
" transform="scale(0.015625)"/>
       </defs>
       <use xlink:href="#Helvetica-34"/>
       <use xlink:href="#Helvetica-30" x="55.615234"/>
      </g>
     </g>
    </g>
    <g id="ytick_6">
     <g id="line2d_6">
      <g>
       <use xlink:href="#mbb1b0590ec" x="8.336802" y="4.076256" style="fill: #777777; stroke: #777777; stroke-width: 0.5"/>
      </g>
     </g>
     <g id="text_8">
      <!-- 50 -->
      <g style="fill: #333333" transform="translate(3.00024 5.152271) scale(0.03 -0.03)">
       <defs>
        <path id="Helvetica-35" d="M 791 1141 
Q 847 659 1238 475 
Q 1438 381 1700 381 
Q 2200 381 2440 700 
Q 2681 1019 2681 1406 
Q 2681 1875 2395 2131 
Q 2109 2388 1709 2388 
Q 1419 2388 1211 2275 
Q 1003 2163 856 1963 
L 369 1991 
L 709 4400 
L 3034 4400 
L 3034 3856 
L 1131 3856 
L 941 2613 
Q 1097 2731 1238 2791 
Q 1488 2894 1816 2894 
Q 2431 2894 2859 2497 
Q 3288 2100 3288 1491 
Q 3288 856 2895 371 
Q 2503 -113 1644 -113 
Q 1097 -113 676 195 
Q 256 503 206 1141 
L 791 1141 
z
" transform="scale(0.015625)"/>
       </defs>
       <use xlink:href="#Helvetica-35"/>
       <use xlink:href="#Helvetica-30" x="55.615234"/>
      </g>
     </g>
    </g>
   </g>
   <g id="PolyCollection_1">
    <defs>
     <path id="m87b03e8ebf" d="M 21.338411 -17.258605 
L 17.746673 -17.258605 
L 17.430205 -17.320078 
L 17.0803 -17.381551 
L 16.698102 -17.443024 
L 16.285805 -17.504497 
L 15.846719 -17.565971 
L 15.385286 -17.627444 
L 14.907045 -17.688917 
L 14.41855 -17.75039 
L 13.927221 -17.811863 
L 13.441149 -17.873336 
L 12.968851 -17.934809 
L 12.518993 -17.996283 
L 12.100077 -18.057756 
L 11.720135 -18.119229 
L 11.386412 -18.180702 
L 11.10509 -18.242175 
L 10.881036 -18.303648 
L 10.717618 -18.365121 
L 10.616572 -18.426595 
L 10.57795 -18.488068 
L 10.600138 -18.549541 
L 10.679945 -18.611014 
L 10.812769 -18.672487 
L 10.992805 -18.73396 
L 11.213315 -18.795433 
L 11.466914 -18.856907 
L 11.745879 -18.91838 
L 12.04245 -18.979853 
L 12.349115 -19.041326 
L 12.658861 -19.102799 
L 12.965386 -19.164272 
L 13.263253 -19.225745 
L 13.547991 -19.287219 
L 13.816142 -19.348692 
L 14.06525 -19.410165 
L 14.29381 -19.471638 
L 14.501166 -19.533111 
L 14.687401 -19.594584 
L 14.853191 -19.656057 
L 14.999667 -19.717531 
L 15.128279 -19.779004 
L 15.240675 -19.840477 
L 15.3386 -19.90195 
L 15.423815 -19.963423 
L 15.498042 -20.024896 
L 15.562929 -20.086369 
L 15.62003 -20.147843 
L 15.670793 -20.209316 
L 15.716553 -20.270789 
L 15.758525 -20.332262 
L 15.797783 -20.393735 
L 15.835235 -20.455208 
L 15.871586 -20.516681 
L 15.907295 -20.578155 
L 15.942533 -20.639628 
L 15.977135 -20.701101 
L 16.010575 -20.762574 
L 16.041953 -20.824047 
L 16.070009 -20.88552 
L 16.093165 -20.946993 
L 16.109601 -21.008467 
L 16.117358 -21.06994 
L 16.114465 -21.131413 
L 16.099095 -21.192886 
L 16.069713 -21.254359 
L 16.025238 -21.315832 
L 15.965182 -21.377306 
L 15.889768 -21.438779 
L 15.800005 -21.500252 
L 15.697735 -21.561725 
L 15.585612 -21.623198 
L 15.467051 -21.684671 
L 15.346109 -21.746144 
L 15.227344 -21.807618 
L 15.115622 -21.869091 
L 15.01591 -21.930564 
L 14.933053 -21.992037 
L 14.871555 -22.05351 
L 14.835376 -22.114983 
L 14.827744 -22.176456 
L 14.85102 -22.23793 
L 14.906589 -22.299403 
L 14.994811 -22.360876 
L 15.115017 -22.422349 
L 15.265553 -22.483822 
L 15.443868 -22.545295 
L 15.646645 -22.606768 
L 15.86995 -22.668242 
L 16.109413 -22.729715 
L 16.360411 -22.791188 
L 16.618252 -22.852661 
L 16.878346 -22.914134 
L 17.136366 -22.975607 
L 17.388377 -23.03708 
L 17.630936 -23.098554 
L 17.861168 -23.160027 
L 18.0768 -23.2215 
L 18.276175 -23.282973 
L 18.458234 -23.344446 
L 20.62685 -23.344446 
L 20.62685 -23.344446 
L 20.808909 -23.282973 
L 21.008284 -23.2215 
L 21.223916 -23.160027 
L 21.454147 -23.098554 
L 21.696707 -23.03708 
L 21.948718 -22.975607 
L 22.206738 -22.914134 
L 22.466832 -22.852661 
L 22.724672 -22.791188 
L 22.97567 -22.729715 
L 23.215134 -22.668242 
L 23.438439 -22.606768 
L 23.641215 -22.545295 
L 23.819531 -22.483822 
L 23.970067 -22.422349 
L 24.090273 -22.360876 
L 24.178495 -22.299403 
L 24.234064 -22.23793 
L 24.257339 -22.176456 
L 24.249708 -22.114983 
L 24.213528 -22.05351 
L 24.152031 -21.992037 
L 24.069174 -21.930564 
L 23.969461 -21.869091 
L 23.857739 -21.807618 
L 23.738975 -21.746144 
L 23.618033 -21.684671 
L 23.499471 -21.623198 
L 23.387349 -21.561725 
L 23.285079 -21.500252 
L 23.195316 -21.438779 
L 23.119901 -21.377306 
L 23.059846 -21.315832 
L 23.015371 -21.254359 
L 22.985989 -21.192886 
L 22.970618 -21.131413 
L 22.967726 -21.06994 
L 22.975482 -21.008467 
L 22.991919 -20.946993 
L 23.015075 -20.88552 
L 23.043131 -20.824047 
L 23.074509 -20.762574 
L 23.107949 -20.701101 
L 23.142551 -20.639628 
L 23.177788 -20.578155 
L 23.213498 -20.516681 
L 23.249849 -20.455208 
L 23.2873 -20.393735 
L 23.326558 -20.332262 
L 23.368531 -20.270789 
L 23.414291 -20.209316 
L 23.465054 -20.147843 
L 23.522154 -20.086369 
L 23.587042 -20.024896 
L 23.661269 -19.963423 
L 23.746483 -19.90195 
L 23.844409 -19.840477 
L 23.956805 -19.779004 
L 24.085417 -19.717531 
L 24.231893 -19.656057 
L 24.397682 -19.594584 
L 24.583917 -19.533111 
L 24.791274 -19.471638 
L 25.019833 -19.410165 
L 25.268942 -19.348692 
L 25.537093 -19.287219 
L 25.821831 -19.225745 
L 26.119697 -19.164272 
L 26.426223 -19.102799 
L 26.735969 -19.041326 
L 27.042634 -18.979853 
L 27.339204 -18.91838 
L 27.618169 -18.856907 
L 27.871769 -18.795433 
L 28.092279 -18.73396 
L 28.272315 -18.672487 
L 28.405139 -18.611014 
L 28.484946 -18.549541 
L 28.507133 -18.488068 
L 28.468511 -18.426595 
L 28.367466 -18.365121 
L 28.204048 -18.303648 
L 27.979994 -18.242175 
L 27.698671 -18.180702 
L 27.364949 -18.119229 
L 26.985006 -18.057756 
L 26.566091 -17.996283 
L 26.116233 -17.934809 
L 25.643935 -17.873336 
L 25.157863 -17.811863 
L 24.666534 -17.75039 
L 24.178039 -17.688917 
L 23.699798 -17.627444 
L 23.238365 -17.565971 
L 22.799279 -17.504497 
L 22.386982 -17.443024 
L 22.004784 -17.381551 
L 21.654879 -17.320078 
L 21.338411 -17.258605 
z
" style="stroke: #717171; stroke-width: 0.15"/>
    </defs>
    <g clip-path="url(#p910b2d0dda)">
     <use xlink:href="#m87b03e8ebf" x="0" y="84.96" style="fill: #d6bba3; stroke: #717171; stroke-width: 0.15"/>
    </g>
   </g>
   <g id="PolyCollection_2">
    <defs>
     <path id="mefcf528e56" d="M 43.771495 -18.093348 
L 40.136546 -18.093348 
L 39.767862 -18.223884 
L 39.355246 -18.354419 
L 38.900841 -18.484955 
L 38.408676 -18.61549 
L 37.884762 -18.746026 
L 37.337077 -18.876561 
L 36.775422 -19.007097 
L 36.211145 -19.137632 
L 35.656741 -19.268168 
L 35.125329 -19.398704 
L 34.630044 -19.529239 
L 34.183386 -19.659775 
L 33.796544 -19.79031 
L 33.478779 -19.920846 
L 33.236872 -20.051381 
L 33.074716 -20.181917 
L 32.993058 -20.312452 
L 32.989429 -20.442988 
L 33.058257 -20.573523 
L 33.191171 -20.704059 
L 33.377467 -20.834594 
L 33.604703 -20.96513 
L 33.859385 -21.095665 
L 34.127704 -21.226201 
L 34.39627 -21.356736 
L 34.65279 -21.487272 
L 34.886675 -21.617807 
L 35.08952 -21.748343 
L 35.255443 -21.878878 
L 35.381283 -22.009414 
L 35.466632 -22.139949 
L 35.513726 -22.270485 
L 35.527207 -22.40102 
L 35.513761 -22.531556 
L 35.481681 -22.662091 
L 35.44036 -22.792627 
L 35.399749 -22.923162 
L 35.369814 -23.053698 
L 35.360008 -23.184234 
L 35.378793 -23.314769 
L 35.433224 -23.445305 
L 35.528626 -23.57584 
L 35.668362 -23.706376 
L 35.853721 -23.836911 
L 36.083913 -23.967447 
L 36.356175 -24.097982 
L 36.66598 -24.228518 
L 37.007332 -24.359053 
L 37.373121 -24.489589 
L 37.755521 -24.620124 
L 38.146401 -24.75066 
L 38.537724 -24.881195 
L 38.921901 -25.011731 
L 39.29209 -25.142266 
L 39.642428 -25.272802 
L 39.968165 -25.403337 
L 40.265734 -25.533873 
L 40.532726 -25.664408 
L 40.767805 -25.794944 
L 40.970572 -25.925479 
L 41.141388 -26.056015 
L 41.281182 -26.18655 
L 41.391256 -26.317086 
L 41.473114 -26.447621 
L 41.528307 -26.578157 
L 41.558328 -26.708693 
L 41.564548 -26.839228 
L 41.548192 -26.969764 
L 41.510366 -27.100299 
L 41.452121 -27.230835 
L 41.374545 -27.36137 
L 41.278879 -27.491906 
L 41.166629 -27.622441 
L 41.039687 -27.752977 
L 40.900416 -27.883512 
L 40.751707 -28.014048 
L 40.596994 -28.144583 
L 40.440217 -28.275119 
L 40.285728 -28.405654 
L 40.138152 -28.53619 
L 40.002197 -28.666725 
L 39.882441 -28.797261 
L 39.783093 -28.927796 
L 39.707773 -29.058332 
L 39.659294 -29.188867 
L 39.639501 -29.319403 
L 39.649163 -29.449938 
L 39.687919 -29.580474 
L 39.754309 -29.711009 
L 39.845865 -29.841545 
L 39.959265 -29.97208 
L 40.090532 -30.102616 
L 40.235268 -30.233152 
L 40.388892 -30.363687 
L 40.546884 -30.494223 
L 40.704992 -30.624758 
L 40.859414 -30.755294 
L 41.006925 -30.885829 
L 41.144964 -31.016365 
L 42.763077 -31.016365 
L 42.763077 -31.016365 
L 42.901116 -30.885829 
L 43.048627 -30.755294 
L 43.203049 -30.624758 
L 43.361158 -30.494223 
L 43.519149 -30.363687 
L 43.672774 -30.233152 
L 43.817509 -30.102616 
L 43.948776 -29.97208 
L 44.062176 -29.841545 
L 44.153733 -29.711009 
L 44.220123 -29.580474 
L 44.258878 -29.449938 
L 44.26854 -29.319403 
L 44.248748 -29.188867 
L 44.200268 -29.058332 
L 44.124948 -28.927796 
L 44.025601 -28.797261 
L 43.905844 -28.666725 
L 43.769889 -28.53619 
L 43.622313 -28.405654 
L 43.467825 -28.275119 
L 43.311048 -28.144583 
L 43.156335 -28.014048 
L 43.007625 -27.883512 
L 42.868354 -27.752977 
L 42.741412 -27.622441 
L 42.629163 -27.491906 
L 42.533496 -27.36137 
L 42.45592 -27.230835 
L 42.397675 -27.100299 
L 42.359849 -26.969764 
L 42.343493 -26.839228 
L 42.349713 -26.708693 
L 42.379735 -26.578157 
L 42.434927 -26.447621 
L 42.516785 -26.317086 
L 42.626859 -26.18655 
L 42.766653 -26.056015 
L 42.937469 -25.925479 
L 43.140237 -25.794944 
L 43.375316 -25.664408 
L 43.642307 -25.533873 
L 43.939876 -25.403337 
L 44.265614 -25.272802 
L 44.615951 -25.142266 
L 44.986141 -25.011731 
L 45.370317 -24.881195 
L 45.76164 -24.75066 
L 46.152521 -24.620124 
L 46.53492 -24.489589 
L 46.900709 -24.359053 
L 47.242061 -24.228518 
L 47.551867 -24.097982 
L 47.824129 -23.967447 
L 48.05432 -23.836911 
L 48.239679 -23.706376 
L 48.379415 -23.57584 
L 48.474817 -23.445305 
L 48.529248 -23.314769 
L 48.548033 -23.184234 
L 48.538227 -23.053698 
L 48.508292 -22.923162 
L 48.467681 -22.792627 
L 48.42636 -22.662091 
L 48.394281 -22.531556 
L 48.380835 -22.40102 
L 48.394315 -22.270485 
L 48.441409 -22.139949 
L 48.526758 -22.009414 
L 48.652598 -21.878878 
L 48.818522 -21.748343 
L 49.021366 -21.617807 
L 49.255251 -21.487272 
L 49.511771 -21.356736 
L 49.780337 -21.226201 
L 50.048657 -21.095665 
L 50.303339 -20.96513 
L 50.530574 -20.834594 
L 50.71687 -20.704059 
L 50.849784 -20.573523 
L 50.918612 -20.442988 
L 50.914983 -20.312452 
L 50.833325 -20.181917 
L 50.67117 -20.051381 
L 50.429263 -19.920846 
L 50.111497 -19.79031 
L 49.724655 -19.659775 
L 49.277997 -19.529239 
L 48.782712 -19.398704 
L 48.2513 -19.268168 
L 47.696896 -19.137632 
L 47.13262 -19.007097 
L 46.570964 -18.876561 
L 46.023279 -18.746026 
L 45.499365 -18.61549 
L 45.0072 -18.484955 
L 44.552795 -18.354419 
L 44.140179 -18.223884 
L 43.771495 -18.093348 
z
" style="stroke: #717171; stroke-width: 0.15"/>
    </defs>
    <g clip-path="url(#p910b2d0dda)">
     <use xlink:href="#mefcf528e56" x="0" y="84.96" style="fill: #f1b9e0; stroke: #717171; stroke-width: 0.15"/>
    </g>
   </g>
   <g id="line2d_7">
    <path d="M 19.542542 66.805084 
L 19.542542 62.511865 
" clip-path="url(#p910b2d0dda)" style="fill: none; stroke: #8c8c8c; stroke-width: 0.75; stroke-linecap: round"/>
   </g>
   <g id="line2d_8">
    <path d="M 19.542542 66.5091 
L 19.542542 63.85911 
" clip-path="url(#p910b2d0dda)" style="fill: none; stroke: #8c8c8c; stroke-width: 4; stroke-linecap: round"/>
   </g>
   <g id="line2d_9">
    <path d="M 19.542542 65.602506 
" clip-path="url(#p910b2d0dda)" style="fill: none; stroke: #717171; stroke-width: 1.2; stroke-linecap: round"/>
    <defs>
     <path id="m36aa3e1c20" d="M 0 0.833333 
C 0.221003 0.833333 0.432983 0.745528 0.589256 0.589256 
C 0.745528 0.432983 0.833333 0.221003 0.833333 0 
C 0.833333 -0.221003 0.745528 -0.432983 0.589256 -0.589256 
C 0.432983 -0.745528 0.221003 -0.833333 0 -0.833333 
C -0.221003 -0.833333 -0.432983 -0.745528 -0.589256 -0.589256 
C -0.745528 -0.432983 -0.833333 -0.221003 -0.833333 0 
C -0.833333 0.221003 -0.745528 0.432983 -0.589256 0.589256 
C -0.432983 0.745528 -0.221003 0.833333 0 0.833333 
z
" style="stroke: #ffffff; stroke-width: 0.8"/>
    </defs>
    <g clip-path="url(#p910b2d0dda)">
     <use xlink:href="#m36aa3e1c20" x="19.542542" y="65.602506" style="fill: #ffffff; stroke: #ffffff; stroke-width: 0.8"/>
    </g>
   </g>
   <g id="line2d_10">
    <path d="M 41.954021 65.192365 
L 41.954021 60.944822 
" clip-path="url(#p910b2d0dda)" style="fill: none; stroke: #8c8c8c; stroke-width: 0.75; stroke-linecap: round"/>
   </g>
   <g id="line2d_11">
    <path d="M 41.954021 64.75171 
L 41.954021 61.232926 
" clip-path="url(#p910b2d0dda)" style="fill: none; stroke: #8c8c8c; stroke-width: 4; stroke-linecap: round"/>
   </g>
   <g id="line2d_12">
    <path d="M 41.954021 63.13392 
" clip-path="url(#p910b2d0dda)" style="fill: none; stroke: #717171; stroke-width: 1.2; stroke-linecap: round"/>
    <g clip-path="url(#p910b2d0dda)">
     <use xlink:href="#m36aa3e1c20" x="41.954021" y="63.13392" style="fill: #ffffff; stroke: #ffffff; stroke-width: 0.8"/>
    </g>
   </g>
   <g id="patch_3">
    <path d="M 8.336802 74.419526 
L 8.336802 4.076256 
" style="fill: none; stroke: #777777; stroke-width: 0.5; stroke-linejoin: miter; stroke-linecap: square"/>
   </g>
   <g id="patch_4">
    <path d="M 8.336802 76.919526 
L 53.15976 76.919526 
" style="fill: none; stroke: #777777; stroke-width: 0.5; stroke-linejoin: miter; stroke-linecap: square"/>
   </g>
  </g>
 </g>
 <defs>
  <clipPath id="p910b2d0dda">
   <rect x="8.336802" y="4.076256" width="44.822958" height="70.34327"/>
  </clipPath>
 </defs>
</svg>
