<?xml version="1.0" encoding="utf-8" standalone="no"?>
<!DOCTYPE svg PUBLIC "-//W3C//DTD SVG 1.1//EN"
  "http://www.w3.org/Graphics/SVG/1.1/DTD/svg11.dtd">
<svg xmlns:xlink="http://www.w3.org/1999/xlink" width="84.96pt" height="84.96pt" viewBox="0 0 84.96 84.96" xmlns="http://www.w3.org/2000/svg" version="1.1">
 <metadata>
  <rdf:RDF xmlns:dc="http://purl.org/dc/elements/1.1/" xmlns:cc="http://creativecommons.org/ns#" xmlns:rdf="http://www.w3.org/1999/02/22-rdf-syntax-ns#">
   <cc:Work>
    <dc:type rdf:resource="http://purl.org/dc/dcmitype/StillImage"/>
    <dc:date>2024-05-27T15:37:01.956497</dc:date>
    <dc:format>image/svg+xml</dc:format>
    <dc:creator>
     <cc:Agent>
      <dc:title>Matplotlib v3.8.3, https://matplotlib.org/</dc:title>
     </cc:Agent>
    </dc:creator>
   </cc:Work>
  </rdf:RDF>
 </metadata>
 <defs>
  <style type="text/css">*{stroke-linejoin: round; stroke-linecap: butt}</style>
 </defs>
 <g id="figure_1">
  <g id="patch_1">
   <path d="M 0 84.96 
L 84.96 84.96 
L 84.96 0 
L 0 0 
z
" style="fill: #ffffff"/>
  </g>
  <g id="axes_1">
   <g id="patch_2">
    <path d="M 10.005084 74.419526 
L 81.95976 74.419526 
L 81.95976 4.076256 
L 10.005084 4.076256 
z
" style="fill: #ffffff"/>
   </g>
   <g id="matplotlib.axis_1">
    <g id="xtick_1">
     <g id="text_1">
      <!-- CD20+ Cells -->
      <g style="fill: #333333" transform="translate(12.125616 81.230229) scale(0.035 -0.035)">
       <defs>
        <path id="Helvetica-43" d="M 2422 4716 
Q 3294 4716 3775 4256 
Q 4256 3797 4309 3213 
L 3703 3213 
Q 3600 3656 3292 3915 
Q 2984 4175 2428 4175 
Q 1750 4175 1333 3698 
Q 916 3222 916 2238 
Q 916 1431 1292 929 
Q 1669 428 2416 428 
Q 3103 428 3463 956 
Q 3653 1234 3747 1688 
L 4353 1688 
Q 4272 963 3816 472 
Q 3269 -119 2341 -119 
Q 1541 -119 997 366 
Q 281 1006 281 2344 
Q 281 3359 819 4009 
Q 1400 4716 2422 4716 
z
M 2297 4716 
L 2297 4716 
z
" transform="scale(0.015625)"/>
        <path id="Helvetica-44" d="M 2250 531 
Q 2566 531 2769 597 
Q 3131 719 3363 1066 
Q 3547 1344 3628 1778 
Q 3675 2038 3675 2259 
Q 3675 3113 3336 3584 
Q 2997 4056 2244 4056 
L 1141 4056 
L 1141 531 
L 2250 531 
z
M 516 4591 
L 2375 4591 
Q 3322 4591 3844 3919 
Q 4309 3313 4309 2366 
Q 4309 1634 4034 1044 
Q 3550 0 2369 0 
L 516 0 
L 516 4591 
z
" transform="scale(0.015625)"/>
        <path id="Helvetica-32" d="M 200 0 
Q 231 578 439 1006 
Q 647 1434 1250 1784 
L 1850 2131 
Q 2253 2366 2416 2531 
Q 2672 2791 2672 3125 
Q 2672 3516 2437 3745 
Q 2203 3975 1813 3975 
Q 1234 3975 1013 3538 
Q 894 3303 881 2888 
L 309 2888 
Q 319 3472 525 3841 
Q 891 4491 1816 4491 
Q 2584 4491 2939 4075 
Q 3294 3659 3294 3150 
Q 3294 2613 2916 2231 
Q 2697 2009 2131 1694 
L 1703 1456 
Q 1397 1288 1222 1134 
Q 909 863 828 531 
L 3272 531 
L 3272 0 
L 200 0 
z
" transform="scale(0.015625)"/>
        <path id="Helvetica-30" d="M 1731 4475 
Q 2600 4475 2988 3759 
Q 3288 3206 3288 2244 
Q 3288 1331 3016 734 
Q 2622 -122 1728 -122 
Q 922 -122 528 578 
Q 200 1163 200 2147 
Q 200 2909 397 3456 
Q 766 4475 1731 4475 
z
M 1725 391 
Q 2163 391 2422 778 
Q 2681 1166 2681 2222 
Q 2681 2984 2493 3476 
Q 2306 3969 1766 3969 
Q 1269 3969 1039 3501 
Q 809 3034 809 2125 
Q 809 1441 956 1025 
Q 1181 391 1725 391 
z
" transform="scale(0.015625)"/>
        <path id="Helvetica-2b" d="M 288 1369 
L 288 1894 
L 1650 1894 
L 1650 3266 
L 2184 3266 
L 2184 1894 
L 3547 1894 
L 3547 1369 
L 2184 1369 
L 2184 0 
L 1650 0 
L 1650 1369 
L 288 1369 
z
" transform="scale(0.015625)"/>
        <path id="Helvetica-20" transform="scale(0.015625)"/>
        <path id="Helvetica-65" d="M 1806 3422 
Q 2163 3422 2497 3255 
Q 2831 3088 3006 2822 
Q 3175 2569 3231 2231 
Q 3281 2000 3281 1494 
L 828 1494 
Q 844 984 1069 676 
Q 1294 369 1766 369 
Q 2206 369 2469 659 
Q 2619 828 2681 1050 
L 3234 1050 
Q 3213 866 3089 639 
Q 2966 413 2813 269 
Q 2556 19 2178 -69 
Q 1975 -119 1719 -119 
Q 1094 -119 659 336 
Q 225 791 225 1609 
Q 225 2416 662 2919 
Q 1100 3422 1806 3422 
z
M 2703 1941 
Q 2669 2306 2544 2525 
Q 2313 2931 1772 2931 
Q 1384 2931 1121 2651 
Q 859 2372 844 1941 
L 2703 1941 
z
M 1753 3428 
L 1753 3428 
z
" transform="scale(0.015625)"/>
        <path id="Helvetica-6c" d="M 428 4591 
L 991 4591 
L 991 0 
L 428 0 
L 428 4591 
z
" transform="scale(0.015625)"/>
        <path id="Helvetica-73" d="M 747 1050 
Q 772 769 888 619 
Q 1100 347 1625 347 
Q 1938 347 2175 483 
Q 2413 619 2413 903 
Q 2413 1119 2222 1231 
Q 2100 1300 1741 1391 
L 1294 1503 
Q 866 1609 663 1741 
Q 300 1969 300 2372 
Q 300 2847 642 3140 
Q 984 3434 1563 3434 
Q 2319 3434 2653 2991 
Q 2863 2709 2856 2384 
L 2325 2384 
Q 2309 2575 2191 2731 
Q 1997 2953 1519 2953 
Q 1200 2953 1036 2831 
Q 872 2709 872 2509 
Q 872 2291 1088 2159 
Q 1213 2081 1456 2022 
L 1828 1931 
Q 2434 1784 2641 1647 
Q 2969 1431 2969 969 
Q 2969 522 2630 197 
Q 2291 -128 1597 -128 
Q 850 -128 539 211 
Q 228 550 206 1050 
L 747 1050 
z
M 1578 3428 
L 1578 3428 
z
" transform="scale(0.015625)"/>
       </defs>
       <use xlink:href="#Helvetica-43"/>
       <use xlink:href="#Helvetica-44" x="72.216797"/>
       <use xlink:href="#Helvetica-32" x="144.433594"/>
       <use xlink:href="#Helvetica-30" x="200.048828"/>
       <use xlink:href="#Helvetica-2b" x="255.664062"/>
       <use xlink:href="#Helvetica-20" x="314.0625"/>
       <use xlink:href="#Helvetica-43" x="341.845703"/>
       <use xlink:href="#Helvetica-65" x="414.0625"/>
       <use xlink:href="#Helvetica-6c" x="469.677734"/>
       <use xlink:href="#Helvetica-6c" x="491.894531"/>
       <use xlink:href="#Helvetica-73" x="514.111328"/>
      </g>
     </g>
    </g>
    <g id="xtick_2">
     <g id="text_2">
      <!-- TCRαδ+ Cells -->
      <g style="fill: #333333" transform="translate(34.850234 81.230229) scale(0.035 -0.035)">
       <defs>
        <path id="Helvetica-54" d="M 3828 4591 
L 3828 4044 
L 2281 4044 
L 2281 0 
L 1650 0 
L 1650 4044 
L 103 4044 
L 103 4591 
L 3828 4591 
z
" transform="scale(0.015625)"/>
        <path id="Helvetica-52" d="M 2622 2488 
Q 3059 2488 3314 2663 
Q 3569 2838 3569 3294 
Q 3569 3784 3213 3963 
Q 3022 4056 2703 4056 
L 1184 4056 
L 1184 2488 
L 2622 2488 
z
M 563 4591 
L 2688 4591 
Q 3213 4591 3553 4438 
Q 4200 4144 4200 3353 
Q 4200 2941 4029 2678 
Q 3859 2416 3553 2256 
Q 3822 2147 3958 1969 
Q 4094 1791 4109 1391 
L 4131 775 
Q 4141 513 4175 384 
Q 4231 166 4375 103 
L 4375 0 
L 3613 0 
Q 3581 59 3562 153 
Q 3544 247 3531 516 
L 3494 1281 
Q 3472 1731 3159 1884 
Q 2981 1969 2600 1969 
L 1184 1969 
L 1184 0 
L 563 0 
L 563 4591 
z
" transform="scale(0.015625)"/>
        <path id="Helvetica-3b1" d="M 3347 703 
Q 3334 428 3525 434 
Q 3641 434 3700 475 
L 3700 -19 
Q 3628 -44 3513 -50 
Q 3391 -63 3309 -63 
Q 3084 -56 2956 103 
Q 2816 256 2816 475 
L 2803 475 
Q 2413 -63 1734 -63 
Q 1006 -50 647 459 
Q 281 953 281 1644 
Q 281 2350 634 2859 
Q 984 3378 1741 3391 
Q 2413 3391 2797 2847 
L 2809 2847 
L 2809 3328 
L 3347 3328 
L 3347 703 
z
M 1825 397 
Q 2075 397 2253 513 
Q 2425 622 2541 806 
Q 2766 1184 2766 1638 
Q 2766 2144 2559 2528 
Q 2350 2919 1797 2931 
Q 1306 2919 1081 2534 
Q 856 2156 856 1697 
Q 856 1209 1081 819 
Q 1306 409 1825 397 
z
" transform="scale(0.015625)"/>
        <path id="Helvetica-3b4" d="M 666 4519 
L 3188 4519 
L 3188 4056 
L 1394 4056 
L 1394 4044 
L 2509 3303 
Q 3134 2881 3372 2469 
Q 3591 2053 3584 1600 
Q 3578 934 3163 447 
Q 2738 -50 1938 -63 
Q 1203 -56 769 403 
Q 331 850 325 1556 
Q 341 3066 1863 3188 
L 1863 3200 
L 666 4056 
L 666 4519 
z
M 1991 397 
Q 2497 403 2731 794 
Q 2969 1166 2969 1606 
Q 2969 1856 2919 2041 
Q 2866 2222 2791 2344 
Q 2713 2463 2638 2541 
Q 2559 2619 2509 2650 
Q 2381 2766 2156 2766 
Q 947 2766 941 1528 
Q 941 1056 1216 738 
Q 1491 403 1991 397 
z
" transform="scale(0.015625)"/>
       </defs>
       <use xlink:href="#Helvetica-54"/>
       <use xlink:href="#Helvetica-43" x="61.083984"/>
       <use xlink:href="#Helvetica-52" x="133.300781"/>
       <use xlink:href="#Helvetica-3b1" x="205.517578"/>
       <use xlink:href="#Helvetica-3b4" x="266.601562"/>
       <use xlink:href="#Helvetica-2b" x="327.685547"/>
       <use xlink:href="#Helvetica-20" x="386.083984"/>
       <use xlink:href="#Helvetica-43" x="413.867188"/>
       <use xlink:href="#Helvetica-65" x="486.083984"/>
       <use xlink:href="#Helvetica-6c" x="541.699219"/>
       <use xlink:href="#Helvetica-6c" x="563.916016"/>
       <use xlink:href="#Helvetica-73" x="586.132812"/>
      </g>
     </g>
    </g>
    <g id="xtick_3">
     <g id="text_3">
      <!-- IL7R+ Cells -->
      <g style="fill: #333333" transform="translate(60.873056 81.230229) scale(0.035 -0.035)">
       <defs>
        <path id="Helvetica-49" d="M 628 4591 
L 1256 4591 
L 1256 0 
L 628 0 
L 628 4591 
z
" transform="scale(0.015625)"/>
        <path id="Helvetica-4c" d="M 488 4591 
L 1109 4591 
L 1109 547 
L 3434 547 
L 3434 0 
L 488 0 
L 488 4591 
z
" transform="scale(0.015625)"/>
        <path id="Helvetica-37" d="M 3347 4400 
L 3347 3909 
Q 3131 3700 2773 3181 
Q 2416 2663 2141 2063 
Q 1869 1478 1728 997 
Q 1638 688 1494 0 
L 872 0 
Q 1084 1281 1809 2550 
Q 2238 3294 2709 3834 
L 234 3834 
L 234 4400 
L 3347 4400 
z
" transform="scale(0.015625)"/>
       </defs>
       <use xlink:href="#Helvetica-49"/>
       <use xlink:href="#Helvetica-4c" x="27.783203"/>
       <use xlink:href="#Helvetica-37" x="83.398438"/>
       <use xlink:href="#Helvetica-52" x="139.013672"/>
       <use xlink:href="#Helvetica-2b" x="211.230469"/>
       <use xlink:href="#Helvetica-20" x="269.628906"/>
       <use xlink:href="#Helvetica-43" x="297.412109"/>
       <use xlink:href="#Helvetica-65" x="369.628906"/>
       <use xlink:href="#Helvetica-6c" x="425.244141"/>
       <use xlink:href="#Helvetica-6c" x="447.460938"/>
       <use xlink:href="#Helvetica-73" x="469.677734"/>
      </g>
     </g>
    </g>
   </g>
   <g id="matplotlib.axis_2">
    <g id="ytick_1">
     <g id="line2d_1">
      <defs>
       <path id="m46c18dde3e" d="M 0 0 
L -1 0 
" style="stroke: #777777; stroke-width: 0.5"/>
      </defs>
      <g>
       <use xlink:href="#m46c18dde3e" x="10.005084" y="66.189518" style="fill: #777777; stroke: #777777; stroke-width: 0.5"/>
      </g>
     </g>
     <g id="text_4">
      <!-- 0 -->
      <g style="fill: #333333" transform="translate(6.336803 67.265534) scale(0.03 -0.03)">
       <use xlink:href="#Helvetica-30"/>
      </g>
     </g>
    </g>
    <g id="ytick_2">
     <g id="line2d_2">
      <g>
       <use xlink:href="#m46c18dde3e" x="10.005084" y="55.837308" style="fill: #777777; stroke: #777777; stroke-width: 0.5"/>
      </g>
     </g>
     <g id="text_5">
      <!-- 20 -->
      <g style="fill: #333333" transform="translate(4.668521 56.913323) scale(0.03 -0.03)">
       <use xlink:href="#Helvetica-32"/>
       <use xlink:href="#Helvetica-30" x="55.615234"/>
      </g>
     </g>
    </g>
    <g id="ytick_3">
     <g id="line2d_3">
      <g>
       <use xlink:href="#m46c18dde3e" x="10.005084" y="45.485097" style="fill: #777777; stroke: #777777; stroke-width: 0.5"/>
      </g>
     </g>
     <g id="text_6">
      <!-- 40 -->
      <g style="fill: #333333" transform="translate(4.668521 46.561113) scale(0.03 -0.03)">
       <defs>
        <path id="Helvetica-34" d="M 2116 1584 
L 2116 3613 
L 681 1584 
L 2116 1584 
z
M 2125 0 
L 2125 1094 
L 163 1094 
L 163 1644 
L 2213 4488 
L 2688 4488 
L 2688 1584 
L 3347 1584 
L 3347 1094 
L 2688 1094 
L 2688 0 
L 2125 0 
z
" transform="scale(0.015625)"/>
       </defs>
       <use xlink:href="#Helvetica-34"/>
       <use xlink:href="#Helvetica-30" x="55.615234"/>
      </g>
     </g>
    </g>
    <g id="ytick_4">
     <g id="line2d_4">
      <g>
       <use xlink:href="#m46c18dde3e" x="10.005084" y="35.132887" style="fill: #777777; stroke: #777777; stroke-width: 0.5"/>
      </g>
     </g>
     <g id="text_7">
      <!-- 60 -->
      <g style="fill: #333333" transform="translate(4.668521 36.208903) scale(0.03 -0.03)">
       <defs>
        <path id="Helvetica-36" d="M 1872 4494 
Q 2622 4494 2917 4105 
Q 3213 3716 3213 3303 
L 2656 3303 
Q 2606 3569 2497 3719 
Q 2294 4000 1881 4000 
Q 1409 4000 1131 3564 
Q 853 3128 822 2316 
Q 1016 2600 1309 2741 
Q 1578 2866 1909 2866 
Q 2472 2866 2890 2506 
Q 3309 2147 3309 1434 
Q 3309 825 2912 354 
Q 2516 -116 1781 -116 
Q 1153 -116 697 361 
Q 241 838 241 1966 
Q 241 2800 444 3381 
Q 834 4494 1872 4494 
z
M 1831 384 
Q 2275 384 2495 682 
Q 2716 981 2716 1388 
Q 2716 1731 2519 2042 
Q 2322 2353 1803 2353 
Q 1441 2353 1167 2112 
Q 894 1872 894 1388 
Q 894 963 1142 673 
Q 1391 384 1831 384 
z
" transform="scale(0.015625)"/>
       </defs>
       <use xlink:href="#Helvetica-36"/>
       <use xlink:href="#Helvetica-30" x="55.615234"/>
      </g>
     </g>
    </g>
    <g id="ytick_5">
     <g id="line2d_5">
      <g>
       <use xlink:href="#m46c18dde3e" x="10.005084" y="24.780677" style="fill: #777777; stroke: #777777; stroke-width: 0.5"/>
      </g>
     </g>
     <g id="text_8">
      <!-- 80 -->
      <g style="fill: #333333" transform="translate(4.668521 25.856692) scale(0.03 -0.03)">
       <defs>
        <path id="Helvetica-38" d="M 1741 2600 
Q 2113 2600 2322 2808 
Q 2531 3016 2531 3303 
Q 2531 3553 2331 3762 
Q 2131 3972 1722 3972 
Q 1316 3972 1134 3762 
Q 953 3553 953 3272 
Q 953 2956 1187 2778 
Q 1422 2600 1741 2600 
z
M 1775 384 
Q 2166 384 2423 595 
Q 2681 806 2681 1225 
Q 2681 1659 2415 1884 
Q 2150 2109 1734 2109 
Q 1331 2109 1076 1879 
Q 822 1650 822 1244 
Q 822 894 1055 639 
Q 1288 384 1775 384 
z
M 975 2384 
Q 741 2484 609 2619 
Q 363 2869 363 3269 
Q 363 3769 725 4128 
Q 1088 4488 1753 4488 
Q 2397 4488 2762 4148 
Q 3128 3809 3128 3356 
Q 3128 2938 2916 2678 
Q 2797 2531 2547 2391 
Q 2825 2263 2984 2097 
Q 3281 1784 3281 1284 
Q 3281 694 2884 283 
Q 2488 -128 1763 -128 
Q 1109 -128 657 226 
Q 206 581 206 1256 
Q 206 1653 400 1942 
Q 594 2231 975 2384 
z
" transform="scale(0.015625)"/>
       </defs>
       <use xlink:href="#Helvetica-38"/>
       <use xlink:href="#Helvetica-30" x="55.615234"/>
      </g>
     </g>
    </g>
    <g id="ytick_6">
     <g id="line2d_6">
      <g>
       <use xlink:href="#m46c18dde3e" x="10.005084" y="14.428466" style="fill: #777777; stroke: #777777; stroke-width: 0.5"/>
      </g>
     </g>
     <g id="text_9">
      <!-- 100 -->
      <g style="fill: #333333" transform="translate(3.00024 15.504482) scale(0.03 -0.03)">
       <defs>
        <path id="Helvetica-31" d="M 613 3169 
L 613 3600 
Q 1222 3659 1462 3798 
Q 1703 3938 1822 4456 
L 2266 4456 
L 2266 0 
L 1666 0 
L 1666 3169 
L 613 3169 
z
" transform="scale(0.015625)"/>
       </defs>
       <use xlink:href="#Helvetica-31"/>
       <use xlink:href="#Helvetica-30" x="55.615234"/>
       <use xlink:href="#Helvetica-30" x="111.230469"/>
      </g>
     </g>
    </g>
    <g id="ytick_7">
     <g id="line2d_7">
      <g>
       <use xlink:href="#m46c18dde3e" x="10.005084" y="4.076256" style="fill: #777777; stroke: #777777; stroke-width: 0.5"/>
      </g>
     </g>
     <g id="text_10">
      <!-- 120 -->
      <g style="fill: #333333" transform="translate(3.00024 5.152271) scale(0.03 -0.03)">
       <use xlink:href="#Helvetica-31"/>
       <use xlink:href="#Helvetica-32" x="55.615234"/>
       <use xlink:href="#Helvetica-30" x="111.230469"/>
      </g>
     </g>
    </g>
   </g>
   <g id="PolyCollection_1">
    <defs>
     <path id="mbc922c886d" d="M 22.792403 -17.72059 
L 21.202657 -17.72059 
L 20.990503 -17.91474 
L 20.745449 -18.10889 
L 20.46932 -18.30304 
L 20.165992 -18.497191 
L 19.84143 -18.691341 
L 19.503528 -18.885491 
L 19.161736 -19.079642 
L 18.826495 -19.273792 
L 18.508513 -19.467942 
L 18.217969 -19.662092 
L 17.963718 -19.856243 
L 17.752588 -20.050393 
L 17.588853 -20.244543 
L 17.473934 -20.438693 
L 17.406368 -20.632844 
L 17.382026 -20.826994 
L 17.394562 -21.021144 
L 17.436014 -21.215295 
L 17.497501 -21.409445 
L 17.569922 -21.603595 
L 17.6446 -21.797745 
L 17.713814 -21.991896 
L 17.771189 -22.186046 
L 17.811934 -22.380196 
L 17.832935 -22.574346 
L 17.832717 -22.768497 
L 17.811297 -22.962647 
L 17.769948 -23.156797 
L 17.71089 -23.350948 
L 17.636924 -23.545098 
L 17.551014 -23.739248 
L 17.455856 -23.933398 
L 17.353451 -24.127549 
L 17.244727 -24.321699 
L 17.129258 -24.515849 
L 17.005142 -24.709999 
L 16.869063 -24.90415 
L 16.71658 -25.0983 
L 16.542635 -25.29245 
L 16.342234 -25.486601 
L 16.111242 -25.680751 
L 15.84719 -25.874901 
L 15.549983 -26.069051 
L 15.222406 -26.263202 
L 14.870331 -26.457352 
L 14.502598 -26.651502 
L 14.13053 -26.845652 
L 13.767139 -27.039803 
L 13.426087 -27.233953 
L 13.120495 -27.428103 
L 12.861721 -27.622253 
L 12.65823 -27.816404 
L 12.514666 -28.010554 
L 12.431247 -28.204704 
L 12.403573 -28.398855 
L 12.422914 -28.593005 
L 12.476995 -28.787155 
L 12.551244 -28.981305 
L 12.630402 -29.175456 
L 12.700312 -29.369606 
L 12.74966 -29.563756 
L 12.771404 -29.757906 
L 12.763656 -29.952057 
L 12.729829 -30.146207 
L 12.677997 -30.340357 
L 12.619514 -30.534508 
L 12.567121 -30.728658 
L 12.532845 -30.922808 
L 12.52605 -31.116958 
L 12.552013 -31.311109 
L 12.611265 -31.505259 
L 12.699836 -31.699409 
L 12.810343 -31.893559 
L 12.93371 -32.08771 
L 13.061192 -32.28186 
L 13.186313 -32.47601 
L 13.306358 -32.670161 
L 13.423155 -32.864311 
L 13.543019 -33.058461 
L 13.67589 -33.252611 
L 13.833848 -33.446762 
L 14.029275 -33.640912 
L 14.272992 -33.835062 
L 14.572648 -34.029212 
L 14.93162 -34.223363 
L 15.348509 -34.417513 
L 15.817277 -34.611663 
L 16.32792 -34.805814 
L 16.867539 -34.999964 
L 17.421607 -35.194114 
L 17.975265 -35.388264 
L 18.514492 -35.582415 
L 19.027026 -35.776565 
L 19.503005 -35.970715 
L 19.935295 -36.164865 
L 20.319549 -36.359016 
L 20.654033 -36.553166 
L 20.939292 -36.747316 
L 21.177715 -36.941466 
L 22.817345 -36.941466 
L 22.817345 -36.941466 
L 23.055767 -36.747316 
L 23.341026 -36.553166 
L 23.67551 -36.359016 
L 24.059764 -36.164865 
L 24.492055 -35.970715 
L 24.968034 -35.776565 
L 25.480568 -35.582415 
L 26.019794 -35.388264 
L 26.573453 -35.194114 
L 27.127521 -34.999964 
L 27.667139 -34.805814 
L 28.177783 -34.611663 
L 28.646551 -34.417513 
L 29.063439 -34.223363 
L 29.422411 -34.029212 
L 29.722068 -33.835062 
L 29.965784 -33.640912 
L 30.161212 -33.446762 
L 30.31917 -33.252611 
L 30.45204 -33.058461 
L 30.571904 -32.864311 
L 30.688702 -32.670161 
L 30.808747 -32.47601 
L 30.933868 -32.28186 
L 31.06135 -32.08771 
L 31.184717 -31.893559 
L 31.295224 -31.699409 
L 31.383795 -31.505259 
L 31.443047 -31.311109 
L 31.469009 -31.116958 
L 31.462215 -30.922808 
L 31.427938 -30.728658 
L 31.375546 -30.534508 
L 31.317063 -30.340357 
L 31.26523 -30.146207 
L 31.231404 -29.952057 
L 31.223655 -29.757906 
L 31.245399 -29.563756 
L 31.294747 -29.369606 
L 31.364657 -29.175456 
L 31.443816 -28.981305 
L 31.518065 -28.787155 
L 31.572145 -28.593005 
L 31.591487 -28.398855 
L 31.563813 -28.204704 
L 31.480393 -28.010554 
L 31.336829 -27.816404 
L 31.133338 -27.622253 
L 30.874565 -27.428103 
L 30.568973 -27.233953 
L 30.22792 -27.039803 
L 29.86453 -26.845652 
L 29.492461 -26.651502 
L 29.124728 -26.457352 
L 28.772654 -26.263202 
L 28.445076 -26.069051 
L 28.14787 -25.874901 
L 27.883818 -25.680751 
L 27.652826 -25.486601 
L 27.452424 -25.29245 
L 27.27848 -25.0983 
L 27.125997 -24.90415 
L 26.989917 -24.709999 
L 26.865801 -24.515849 
L 26.750333 -24.321699 
L 26.641608 -24.127549 
L 26.539204 -23.933398 
L 26.444046 -23.739248 
L 26.358136 -23.545098 
L 26.284169 -23.350948 
L 26.225112 -23.156797 
L 26.183763 -22.962647 
L 26.162343 -22.768497 
L 26.162124 -22.574346 
L 26.183125 -22.380196 
L 26.223871 -22.186046 
L 26.281246 -21.991896 
L 26.35046 -21.797745 
L 26.425138 -21.603595 
L 26.497559 -21.409445 
L 26.559046 -21.215295 
L 26.600498 -21.021144 
L 26.613033 -20.826994 
L 26.588692 -20.632844 
L 26.521125 -20.438693 
L 26.406207 -20.244543 
L 26.242471 -20.050393 
L 26.031342 -19.856243 
L 25.777091 -19.662092 
L 25.486547 -19.467942 
L 25.168564 -19.273792 
L 24.833323 -19.079642 
L 24.491532 -18.885491 
L 24.15363 -18.691341 
L 23.829068 -18.497191 
L 23.525739 -18.30304 
L 23.24961 -18.10889 
L 23.004556 -17.91474 
L 22.792403 -17.72059 
z
" style="stroke: #6f6f6f; stroke-width: 0.15"/>
    </defs>
    <g clip-path="url(#p6952f8d0be)">
     <use xlink:href="#mbc922c886d" x="0" y="84.96" style="fill: #abc9ea; stroke: #6f6f6f; stroke-width: 0.15"/>
    </g>
   </g>
   <g id="PolyCollection_2">
    <defs>
     <path id="m1bb898b37e" d="M 47.103345 -18.895987 
L 44.861499 -18.895987 
L 44.573775 -19.192717 
L 44.250617 -19.489447 
L 43.899094 -19.786177 
L 43.529465 -20.082907 
L 43.154718 -20.379636 
L 42.789712 -20.676366 
L 42.449982 -20.973096 
L 42.150344 -21.269826 
L 41.903476 -21.566555 
L 41.71869 -21.863285 
L 41.601068 -22.160015 
L 41.551102 -22.456745 
L 41.564875 -22.753475 
L 41.63477 -23.050204 
L 41.750544 -23.346934 
L 41.900624 -23.643664 
L 42.073391 -23.940394 
L 42.258279 -24.237123 
L 42.446535 -24.533853 
L 42.631566 -24.830583 
L 42.808877 -25.127313 
L 42.975642 -25.424042 
L 43.130048 -25.720772 
L 43.270526 -26.017502 
L 43.395028 -26.314232 
L 43.50046 -26.610962 
L 43.582386 -26.907691 
L 43.635021 -27.204421 
L 43.651544 -27.501151 
L 43.624681 -27.797881 
L 43.547465 -28.09461 
L 43.414098 -28.39134 
L 43.22077 -28.68807 
L 42.966352 -28.9848 
L 42.652857 -29.28153 
L 42.28561 -29.578259 
L 41.873111 -29.874989 
L 41.426595 -30.171719 
L 40.959345 -30.468449 
L 40.48581 -30.765178 
L 40.02064 -31.061908 
L 39.5777 -31.358638 
L 39.169161 -31.655368 
L 38.80474 -31.952098 
L 38.491133 -32.248827 
L 38.231683 -32.545557 
L 38.026288 -32.842287 
L 37.871548 -33.139017 
L 37.761129 -33.435746 
L 37.686312 -33.732476 
L 37.636701 -34.029206 
L 37.601031 -34.325936 
L 37.568067 -34.622665 
L 37.527513 -34.919395 
L 37.470917 -35.216125 
L 37.392473 -35.512855 
L 37.289676 -35.809585 
L 37.163726 -36.106314 
L 37.019624 -36.403044 
L 36.865888 -36.699774 
L 36.713897 -36.996504 
L 36.576872 -37.293233 
L 36.468618 -37.589963 
L 36.402162 -37.886693 
L 36.388465 -38.183423 
L 36.435402 -38.480153 
L 36.547135 -38.776882 
L 36.72397 -39.073612 
L 36.962686 -39.370342 
L 37.257237 -39.667072 
L 37.599689 -39.963801 
L 37.98118 -40.260531 
L 38.392759 -40.557261 
L 38.825955 -40.853991 
L 39.273052 -41.150721 
L 39.727077 -41.44745 
L 40.181622 -41.74418 
L 40.630615 -42.04091 
L 41.068167 -42.33764 
L 41.488593 -42.634369 
L 41.886629 -42.931099 
L 42.257801 -43.227829 
L 42.598872 -43.524559 
L 42.908228 -43.821288 
L 43.186114 -44.118018 
L 43.434612 -44.414748 
L 43.65737 -44.711478 
L 43.859092 -45.008208 
L 44.044886 -45.304937 
L 44.219578 -45.601667 
L 44.387124 -45.898397 
L 44.550187 -46.195127 
L 44.709962 -46.491856 
L 44.866241 -46.788586 
L 45.017674 -47.085316 
L 45.162178 -47.382046 
L 45.297386 -47.678776 
L 45.421072 -47.975505 
L 45.531489 -48.272235 
L 46.433355 -48.272235 
L 46.433355 -48.272235 
L 46.543772 -47.975505 
L 46.667458 -47.678776 
L 46.802666 -47.382046 
L 46.94717 -47.085316 
L 47.098603 -46.788586 
L 47.254881 -46.491856 
L 47.414657 -46.195127 
L 47.57772 -45.898397 
L 47.745265 -45.601667 
L 47.919958 -45.304937 
L 48.105752 -45.008208 
L 48.307474 -44.711478 
L 48.530232 -44.414748 
L 48.77873 -44.118018 
L 49.056615 -43.821288 
L 49.365972 -43.524559 
L 49.707043 -43.227829 
L 50.078215 -42.931099 
L 50.476251 -42.634369 
L 50.896677 -42.33764 
L 51.334229 -42.04091 
L 51.783222 -41.74418 
L 52.237767 -41.44745 
L 52.691792 -41.150721 
L 53.138888 -40.853991 
L 53.572085 -40.557261 
L 53.983664 -40.260531 
L 54.365155 -39.963801 
L 54.707607 -39.667072 
L 55.002158 -39.370342 
L 55.240873 -39.073612 
L 55.417709 -38.776882 
L 55.529442 -38.480153 
L 55.576379 -38.183423 
L 55.562682 -37.886693 
L 55.496225 -37.589963 
L 55.387972 -37.293233 
L 55.250947 -36.996504 
L 55.098956 -36.699774 
L 54.94522 -36.403044 
L 54.801117 -36.106314 
L 54.675168 -35.809585 
L 54.572371 -35.512855 
L 54.493927 -35.216125 
L 54.437331 -34.919395 
L 54.396777 -34.622665 
L 54.363812 -34.325936 
L 54.328143 -34.029206 
L 54.278532 -33.732476 
L 54.203715 -33.435746 
L 54.093296 -33.139017 
L 53.938556 -32.842287 
L 53.73316 -32.545557 
L 53.473711 -32.248827 
L 53.160104 -31.952098 
L 52.795682 -31.655368 
L 52.387144 -31.358638 
L 51.944203 -31.061908 
L 51.479034 -30.765178 
L 51.005499 -30.468449 
L 50.538248 -30.171719 
L 50.091733 -29.874989 
L 49.679234 -29.578259 
L 49.311987 -29.28153 
L 48.998492 -28.9848 
L 48.744074 -28.68807 
L 48.550746 -28.39134 
L 48.417378 -28.09461 
L 48.340163 -27.797881 
L 48.313299 -27.501151 
L 48.329823 -27.204421 
L 48.382458 -26.907691 
L 48.464383 -26.610962 
L 48.569816 -26.314232 
L 48.694318 -26.017502 
L 48.834796 -25.720772 
L 48.989202 -25.424042 
L 49.155967 -25.127313 
L 49.333278 -24.830583 
L 49.518309 -24.533853 
L 49.706564 -24.237123 
L 49.891452 -23.940394 
L 50.064219 -23.643664 
L 50.214299 -23.346934 
L 50.330074 -23.050204 
L 50.399968 -22.753475 
L 50.413742 -22.456745 
L 50.363775 -22.160015 
L 50.246154 -21.863285 
L 50.061368 -21.566555 
L 49.8145 -21.269826 
L 49.514862 -20.973096 
L 49.175132 -20.676366 
L 48.810126 -20.379636 
L 48.435378 -20.082907 
L 48.065749 -19.786177 
L 47.714227 -19.489447 
L 47.391068 -19.192717 
L 47.103345 -18.895987 
z
" style="stroke: #6f6f6f; stroke-width: 0.15"/>
    </defs>
    <g clip-path="url(#p6952f8d0be)">
     <use xlink:href="#m1bb898b37e" x="0" y="84.96" style="fill: #efb792; stroke: #6f6f6f; stroke-width: 0.15"/>
    </g>
   </g>
   <g id="PolyCollection_3">
    <defs>
     <path id="me3b21cb8e2" d="M 71.120836 -15.325582 
L 68.813792 -15.325582 
L 68.489297 -15.707659 
L 68.108843 -16.089736 
L 67.673049 -16.471814 
L 67.185286 -16.853891 
L 66.651741 -17.235968 
L 66.081176 -17.618046 
L 65.484443 -18.000123 
L 64.873773 -18.382201 
L 64.26197 -18.764278 
L 63.661629 -19.146355 
L 63.084516 -19.528433 
L 62.541191 -19.91051 
L 62.040949 -20.292588 
L 61.592013 -20.674665 
L 61.201912 -21.056742 
L 60.877879 -21.43882 
L 60.627105 -21.820897 
L 60.456712 -22.202975 
L 60.373357 -22.585052 
L 60.382486 -22.967129 
L 60.487327 -23.349207 
L 60.687805 -23.731284 
L 60.979613 -24.113362 
L 61.353634 -24.495439 
L 61.7959 -24.877516 
L 62.288158 -25.259594 
L 62.809027 -25.641671 
L 63.335605 -26.023748 
L 63.845343 -26.405826 
L 64.317926 -26.787903 
L 64.736925 -27.169981 
L 65.091029 -27.552058 
L 65.374716 -27.934135 
L 65.588342 -28.316213 
L 65.737657 -28.69829 
L 65.832877 -29.080368 
L 65.887439 -29.462445 
L 65.916606 -29.844522 
L 65.936061 -30.2266 
L 65.96062 -30.608677 
L 66.003153 -30.990755 
L 66.073758 -31.372832 
L 66.179219 -31.754909 
L 66.322754 -32.136987 
L 66.504024 -32.519064 
L 66.719392 -32.901142 
L 66.962383 -33.283219 
L 67.224315 -33.665296 
L 67.495048 -34.047374 
L 67.763784 -34.429451 
L 68.019872 -34.811528 
L 68.253556 -35.193606 
L 68.456608 -35.575683 
L 68.622818 -35.957761 
L 68.748308 -36.339838 
L 68.831672 -36.721915 
L 68.873935 -37.103993 
L 68.878364 -37.48607 
L 68.850148 -37.868148 
L 68.795971 -38.250225 
L 68.72352 -38.632302 
L 68.640944 -39.01438 
L 68.556309 -39.396457 
L 68.477063 -39.778535 
L 68.40955 -40.160612 
L 68.35861 -40.542689 
L 68.327281 -40.924767 
L 68.316639 -41.306844 
L 68.325786 -41.688922 
L 68.352009 -42.070999 
L 68.391078 -42.453076 
L 68.437693 -42.835154 
L 68.486022 -43.217231 
L 68.530294 -43.599308 
L 68.56538 -43.981386 
L 68.587317 -44.363463 
L 68.593712 -44.745541 
L 68.583975 -45.127618 
L 68.559381 -45.509695 
L 68.522934 -45.891773 
L 68.479057 -46.27385 
L 68.433156 -46.655928 
L 68.391092 -47.038005 
L 68.358633 -47.420082 
L 68.340926 -47.80216 
L 68.342059 -48.184237 
L 68.364737 -48.566315 
L 68.410097 -48.948392 
L 68.477683 -49.330469 
L 68.565554 -49.712547 
L 68.670518 -50.094624 
L 68.788461 -50.476702 
L 68.914724 -50.858779 
L 69.044497 -51.240856 
L 69.173187 -51.622934 
L 69.296726 -52.005011 
L 69.411801 -52.387088 
L 69.515984 -52.769166 
L 69.60777 -53.151243 
L 70.326858 -53.151243 
L 70.326858 -53.151243 
L 70.418644 -52.769166 
L 70.522827 -52.387088 
L 70.637902 -52.005011 
L 70.761441 -51.622934 
L 70.890131 -51.240856 
L 71.019904 -50.858779 
L 71.146167 -50.476702 
L 71.26411 -50.094624 
L 71.369074 -49.712547 
L 71.456945 -49.330469 
L 71.524531 -48.948392 
L 71.569891 -48.566315 
L 71.592568 -48.184237 
L 71.593702 -47.80216 
L 71.575995 -47.420082 
L 71.543536 -47.038005 
L 71.501472 -46.655928 
L 71.455571 -46.27385 
L 71.411694 -45.891773 
L 71.375247 -45.509695 
L 71.350653 -45.127618 
L 71.340916 -44.745541 
L 71.347311 -44.363463 
L 71.369248 -43.981386 
L 71.404334 -43.599308 
L 71.448605 -43.217231 
L 71.496935 -42.835154 
L 71.54355 -42.453076 
L 71.582619 -42.070999 
L 71.608841 -41.688922 
L 71.617989 -41.306844 
L 71.607347 -40.924767 
L 71.576018 -40.542689 
L 71.525078 -40.160612 
L 71.457565 -39.778535 
L 71.378319 -39.396457 
L 71.293684 -39.01438 
L 71.211108 -38.632302 
L 71.138657 -38.250225 
L 71.08448 -37.868148 
L 71.056264 -37.48607 
L 71.060693 -37.103993 
L 71.102956 -36.721915 
L 71.18632 -36.339838 
L 71.31181 -35.957761 
L 71.47802 -35.575683 
L 71.681072 -35.193606 
L 71.914755 -34.811528 
L 72.170844 -34.429451 
L 72.43958 -34.047374 
L 72.710313 -33.665296 
L 72.972245 -33.283219 
L 73.215236 -32.901142 
L 73.430604 -32.519064 
L 73.611874 -32.136987 
L 73.755409 -31.754909 
L 73.86087 -31.372832 
L 73.931474 -30.990755 
L 73.974008 -30.608677 
L 73.998567 -30.2266 
L 74.018022 -29.844522 
L 74.047189 -29.462445 
L 74.101751 -29.080368 
L 74.196971 -28.69829 
L 74.346286 -28.316213 
L 74.559912 -27.934135 
L 74.843599 -27.552058 
L 75.197703 -27.169981 
L 75.616702 -26.787903 
L 76.089285 -26.405826 
L 76.599023 -26.023748 
L 77.125601 -25.641671 
L 77.64647 -25.259594 
L 78.138728 -24.877516 
L 78.580994 -24.495439 
L 78.955015 -24.113362 
L 79.246823 -23.731284 
L 79.447301 -23.349207 
L 79.552141 -22.967129 
L 79.561271 -22.585052 
L 79.477916 -22.202975 
L 79.307523 -21.820897 
L 79.056749 -21.43882 
L 78.732716 -21.056742 
L 78.342615 -20.674665 
L 77.893679 -20.292588 
L 77.393437 -19.91051 
L 76.850112 -19.528433 
L 76.272999 -19.146355 
L 75.672658 -18.764278 
L 75.060855 -18.382201 
L 74.450185 -18.000123 
L 73.853452 -17.618046 
L 73.282887 -17.235968 
L 72.749341 -16.853891 
L 72.261579 -16.471814 
L 71.825784 -16.089736 
L 71.445331 -15.707659 
L 71.120836 -15.325582 
z
" style="stroke: #6f6f6f; stroke-width: 0.15"/>
    </defs>
    <g clip-path="url(#p6952f8d0be)">
     <use xlink:href="#me3b21cb8e2" x="0" y="84.96" style="fill: #98daa7; stroke: #6f6f6f; stroke-width: 0.15"/>
    </g>
   </g>
   <g id="line2d_8">
    <path d="M 21.99753 65.323547 
L 21.99753 49.934397 
" clip-path="url(#p6952f8d0be)" style="fill: none; stroke: #8c8c8c; stroke-width: 0.75; stroke-linecap: round"/>
   </g>
   <g id="line2d_9">
    <path d="M 21.99753 59.616411 
L 21.99753 53.603276 
" clip-path="url(#p6952f8d0be)" style="fill: none; stroke: #8c8c8c; stroke-width: 4; stroke-linecap: round"/>
   </g>
   <g id="line2d_10">
    <path d="M 21.99753 56.280798 
" clip-path="url(#p6952f8d0be)" style="fill: none; stroke: #6f6f6f; stroke-width: 1.2; stroke-linecap: round"/>
    <defs>
     <path id="m0146dad635" d="M 0 0.833333 
C 0.221003 0.833333 0.432983 0.745528 0.589256 0.589256 
C 0.745528 0.432983 0.833333 0.221003 0.833333 0 
C 0.833333 -0.221003 0.745528 -0.432983 0.589256 -0.589256 
C 0.432983 -0.745528 0.221003 -0.833333 0 -0.833333 
C -0.221003 -0.833333 -0.432983 -0.745528 -0.589256 -0.589256 
C -0.745528 -0.432983 -0.833333 -0.221003 -0.833333 0 
C -0.833333 0.221003 -0.745528 0.432983 -0.589256 0.589256 
C -0.432983 0.745528 -0.221003 0.833333 0 0.833333 
z
" style="stroke: #ffffff; stroke-width: 0.8"/>
    </defs>
    <g clip-path="url(#p6952f8d0be)">
     <use xlink:href="#m0146dad635" x="21.99753" y="56.280798" style="fill: #ffffff; stroke: #ffffff; stroke-width: 0.8"/>
    </g>
   </g>
   <g id="line2d_11">
    <path d="M 45.982422 63.228566 
L 45.982422 39.523211 
" clip-path="url(#p6952f8d0be)" style="fill: none; stroke: #8c8c8c; stroke-width: 0.75; stroke-linecap: round"/>
   </g>
   <g id="line2d_12">
    <path d="M 45.982422 53.830473 
L 45.982422 46.205763 
" clip-path="url(#p6952f8d0be)" style="fill: none; stroke: #8c8c8c; stroke-width: 4; stroke-linecap: round"/>
   </g>
   <g id="line2d_13">
    <path d="M 45.982422 49.864304 
" clip-path="url(#p6952f8d0be)" style="fill: none; stroke: #6f6f6f; stroke-width: 1.2; stroke-linecap: round"/>
    <g clip-path="url(#p6952f8d0be)">
     <use xlink:href="#m0146dad635" x="45.982422" y="49.864304" style="fill: #ffffff; stroke: #ffffff; stroke-width: 0.8"/>
    </g>
   </g>
   <g id="line2d_14">
    <path d="M 69.967314 65.919511 
L 69.967314 42.840725 
" clip-path="url(#p6952f8d0be)" style="fill: none; stroke: #8c8c8c; stroke-width: 0.75; stroke-linecap: round"/>
   </g>
   <g id="line2d_15">
    <path d="M 69.967314 62.769132 
L 69.967314 53.347273 
" clip-path="url(#p6952f8d0be)" style="fill: none; stroke: #8c8c8c; stroke-width: 4; stroke-linecap: round"/>
   </g>
   <g id="line2d_16">
    <path d="M 69.967314 60.655701 
" clip-path="url(#p6952f8d0be)" style="fill: none; stroke: #6f6f6f; stroke-width: 1.2; stroke-linecap: round"/>
    <g clip-path="url(#p6952f8d0be)">
     <use xlink:href="#m0146dad635" x="69.967314" y="60.655701" style="fill: #ffffff; stroke: #ffffff; stroke-width: 0.8"/>
    </g>
   </g>
   <g id="patch_3">
    <path d="M 10.005084 74.419526 
L 10.005084 4.076256 
" style="fill: none; stroke: #777777; stroke-width: 0.5; stroke-linejoin: miter; stroke-linecap: square"/>
   </g>
   <g id="patch_4">
    <path d="M 10.005084 76.919526 
L 81.95976 76.919526 
" style="fill: none; stroke: #777777; stroke-width: 0.5; stroke-linejoin: miter; stroke-linecap: square"/>
   </g>
  </g>
 </g>
 <defs>
  <clipPath id="p6952f8d0be">
   <rect x="10.005084" y="4.076256" width="71.954676" height="70.34327"/>
  </clipPath>
 </defs>
</svg>
