<?xml version="1.0" encoding="utf-8" standalone="no"?>
<!DOCTYPE svg PUBLIC "-//W3C//DTD SVG 1.1//EN"
  "http://www.w3.org/Graphics/SVG/1.1/DTD/svg11.dtd">
<svg xmlns:xlink="http://www.w3.org/1999/xlink" width="113.04pt" height="84.96pt" viewBox="0 0 113.04 84.96" xmlns="http://www.w3.org/2000/svg" version="1.1">
 <metadata>
  <rdf:RDF xmlns:dc="http://purl.org/dc/elements/1.1/" xmlns:cc="http://creativecommons.org/ns#" xmlns:rdf="http://www.w3.org/1999/02/22-rdf-syntax-ns#">
   <cc:Work>
    <dc:type rdf:resource="http://purl.org/dc/dcmitype/StillImage"/>
    <dc:date>2024-05-27T15:37:18.311330</dc:date>
    <dc:format>image/svg+xml</dc:format>
    <dc:creator>
     <cc:Agent>
      <dc:title>Matplotlib v3.8.3, https://matplotlib.org/</dc:title>
     </cc:Agent>
    </dc:creator>
   </cc:Work>
  </rdf:RDF>
 </metadata>
 <defs>
  <style type="text/css">*{stroke-linejoin: round; stroke-linecap: butt}</style>
 </defs>
 <g id="figure_1">
  <g id="patch_1">
   <path d="M 0 84.96 
L 113.04 84.96 
L 113.04 0 
L 0 0 
z
" style="fill: #ffffff"/>
  </g>
  <g id="axes_1">
   <g id="patch_2">
    <path d="M 8.336802 74.393822 
L 110.03976 74.393822 
L 110.03976 4.076256 
L 8.336802 4.076256 
z
" style="fill: #ffffff"/>
   </g>
   <g id="matplotlib.axis_1">
    <g id="xtick_1">
     <g id="text_1">
      <!-- ILC3 -->
      <g style="fill: #333333" transform="translate(17.353344 81.204526) scale(0.035 -0.035)">
       <defs>
        <path id="Helvetica-49" d="M 628 4591 
L 1256 4591 
L 1256 0 
L 628 0 
L 628 4591 
z
" transform="scale(0.015625)"/>
        <path id="Helvetica-4c" d="M 488 4591 
L 1109 4591 
L 1109 547 
L 3434 547 
L 3434 0 
L 488 0 
L 488 4591 
z
" transform="scale(0.015625)"/>
        <path id="Helvetica-43" d="M 2422 4716 
Q 3294 4716 3775 4256 
Q 4256 3797 4309 3213 
L 3703 3213 
Q 3600 3656 3292 3915 
Q 2984 4175 2428 4175 
Q 1750 4175 1333 3698 
Q 916 3222 916 2238 
Q 916 1431 1292 929 
Q 1669 428 2416 428 
Q 3103 428 3463 956 
Q 3653 1234 3747 1688 
L 4353 1688 
Q 4272 963 3816 472 
Q 3269 -119 2341 -119 
Q 1541 -119 997 366 
Q 281 1006 281 2344 
Q 281 3359 819 4009 
Q 1400 4716 2422 4716 
z
M 2297 4716 
L 2297 4716 
z
" transform="scale(0.015625)"/>
        <path id="Helvetica-33" d="M 1663 -122 
Q 869 -122 511 314 
Q 153 750 153 1375 
L 741 1375 
Q 778 941 903 744 
Q 1122 391 1694 391 
Q 2138 391 2406 628 
Q 2675 866 2675 1241 
Q 2675 1703 2392 1887 
Q 2109 2072 1606 2072 
Q 1550 2072 1492 2070 
Q 1434 2069 1375 2066 
L 1375 2563 
Q 1463 2553 1522 2550 
Q 1581 2547 1650 2547 
Q 1966 2547 2169 2647 
Q 2525 2822 2525 3272 
Q 2525 3606 2287 3787 
Q 2050 3969 1734 3969 
Q 1172 3969 956 3594 
Q 838 3388 822 3006 
L 266 3006 
Q 266 3506 466 3856 
Q 809 4481 1675 4481 
Q 2359 4481 2734 4176 
Q 3109 3872 3109 3294 
Q 3109 2881 2888 2625 
Q 2750 2466 2531 2375 
Q 2884 2278 3082 2001 
Q 3281 1725 3281 1325 
Q 3281 684 2859 281 
Q 2438 -122 1663 -122 
z
" transform="scale(0.015625)"/>
       </defs>
       <use xlink:href="#Helvetica-49"/>
       <use xlink:href="#Helvetica-4c" x="27.783203"/>
       <use xlink:href="#Helvetica-43" x="83.398438"/>
       <use xlink:href="#Helvetica-33" x="155.615234"/>
      </g>
     </g>
    </g>
    <g id="xtick_2">
     <g id="text_2">
      <!-- TH17 (TdT–) -->
      <g style="fill: #333333" transform="translate(36.460763 81.230229) scale(0.035 -0.035)">
       <defs>
        <path id="Helvetica-54" d="M 3828 4591 
L 3828 4044 
L 2281 4044 
L 2281 0 
L 1650 0 
L 1650 4044 
L 103 4044 
L 103 4591 
L 3828 4591 
z
" transform="scale(0.015625)"/>
        <path id="Helvetica-48" d="M 503 4591 
L 1131 4591 
L 1131 2694 
L 3519 2694 
L 3519 4591 
L 4147 4591 
L 4147 0 
L 3519 0 
L 3519 2147 
L 1131 2147 
L 1131 0 
L 503 0 
L 503 4591 
z
" transform="scale(0.015625)"/>
        <path id="Helvetica-31" d="M 613 3169 
L 613 3600 
Q 1222 3659 1462 3798 
Q 1703 3938 1822 4456 
L 2266 4456 
L 2266 0 
L 1666 0 
L 1666 3169 
L 613 3169 
z
" transform="scale(0.015625)"/>
        <path id="Helvetica-37" d="M 3347 4400 
L 3347 3909 
Q 3131 3700 2773 3181 
Q 2416 2663 2141 2063 
Q 1869 1478 1728 997 
Q 1638 688 1494 0 
L 872 0 
Q 1084 1281 1809 2550 
Q 2238 3294 2709 3834 
L 234 3834 
L 234 4400 
L 3347 4400 
z
" transform="scale(0.015625)"/>
        <path id="Helvetica-20" transform="scale(0.015625)"/>
        <path id="Helvetica-28" d="M 1894 4666 
Q 1403 3713 1256 3263 
Q 1034 2578 1034 1681 
Q 1034 775 1288 25 
Q 1444 -438 1903 -1306 
L 1525 -1306 
Q 1069 -594 959 -397 
Q 850 -200 722 138 
Q 547 600 478 1125 
Q 444 1397 444 1644 
Q 444 2569 734 3291 
Q 919 3750 1503 4666 
L 1894 4666 
z
" transform="scale(0.015625)"/>
        <path id="Helvetica-64" d="M 769 1634 
Q 769 1097 997 734 
Q 1225 372 1728 372 
Q 2119 372 2370 708 
Q 2622 1044 2622 1672 
Q 2622 2306 2362 2611 
Q 2103 2916 1722 2916 
Q 1297 2916 1033 2591 
Q 769 2266 769 1634 
z
M 1616 3406 
Q 2000 3406 2259 3244 
Q 2409 3150 2600 2916 
L 2600 4606 
L 3141 4606 
L 3141 0 
L 2634 0 
L 2634 466 
Q 2438 156 2169 18 
Q 1900 -119 1553 -119 
Q 994 -119 584 351 
Q 175 822 175 1603 
Q 175 2334 548 2870 
Q 922 3406 1616 3406 
z
" transform="scale(0.015625)"/>
        <path id="Helvetica-2013" d="M -16 2000 
L 3569 2000 
L 3569 1541 
L -16 1541 
L -16 2000 
z
" transform="scale(0.015625)"/>
        <path id="Helvetica-29" d="M 222 -1306 
Q 719 -338 863 106 
Q 1081 778 1081 1681 
Q 1081 2584 828 3334 
Q 672 3797 213 4666 
L 591 4666 
Q 1072 3897 1173 3717 
Q 1275 3538 1394 3222 
Q 1544 2831 1608 2450 
Q 1672 2069 1672 1716 
Q 1672 791 1378 66 
Q 1194 -400 613 -1306 
L 222 -1306 
z
" transform="scale(0.015625)"/>
       </defs>
       <use xlink:href="#Helvetica-54"/>
       <use xlink:href="#Helvetica-48" x="61.083984"/>
       <use xlink:href="#Helvetica-31" x="133.300781"/>
       <use xlink:href="#Helvetica-37" x="188.916016"/>
       <use xlink:href="#Helvetica-20" x="244.53125"/>
       <use xlink:href="#Helvetica-28" x="272.314453"/>
       <use xlink:href="#Helvetica-54" x="305.615234"/>
       <use xlink:href="#Helvetica-64" x="366.699219"/>
       <use xlink:href="#Helvetica-54" x="422.314453"/>
       <use xlink:href="#Helvetica-2013" x="483.398438"/>
       <use xlink:href="#Helvetica-29" x="539.013672"/>
      </g>
     </g>
    </g>
    <g id="xtick_3">
     <g id="text_3">
      <!-- TH17 (TdT+) -->
      <g style="fill: #333333" transform="translate(61.837557 81.230229) scale(0.035 -0.035)">
       <defs>
        <path id="Helvetica-2b" d="M 288 1369 
L 288 1894 
L 1650 1894 
L 1650 3266 
L 2184 3266 
L 2184 1894 
L 3547 1894 
L 3547 1369 
L 2184 1369 
L 2184 0 
L 1650 0 
L 1650 1369 
L 288 1369 
z
" transform="scale(0.015625)"/>
       </defs>
       <use xlink:href="#Helvetica-54"/>
       <use xlink:href="#Helvetica-48" x="61.083984"/>
       <use xlink:href="#Helvetica-31" x="133.300781"/>
       <use xlink:href="#Helvetica-37" x="188.916016"/>
       <use xlink:href="#Helvetica-20" x="244.53125"/>
       <use xlink:href="#Helvetica-28" x="272.314453"/>
       <use xlink:href="#Helvetica-54" x="305.615234"/>
       <use xlink:href="#Helvetica-64" x="366.699219"/>
       <use xlink:href="#Helvetica-54" x="422.314453"/>
       <use xlink:href="#Helvetica-2b" x="483.398438"/>
       <use xlink:href="#Helvetica-29" x="541.796875"/>
      </g>
     </g>
    </g>
    <g id="xtick_4">
     <g id="text_4">
      <!-- Immature TH17 -->
      <g style="fill: #333333" transform="translate(85.171773 81.204526) scale(0.035 -0.035)">
       <defs>
        <path id="Helvetica-6d" d="M 413 3347 
L 969 3347 
L 969 2872 
Q 1169 3119 1331 3231 
Q 1609 3422 1963 3422 
Q 2363 3422 2606 3225 
Q 2744 3113 2856 2894 
Q 3044 3163 3297 3292 
Q 3550 3422 3866 3422 
Q 4541 3422 4784 2934 
Q 4916 2672 4916 2228 
L 4916 0 
L 4331 0 
L 4331 2325 
Q 4331 2659 4164 2784 
Q 3997 2909 3756 2909 
Q 3425 2909 3186 2687 
Q 2947 2466 2947 1947 
L 2947 0 
L 2375 0 
L 2375 2184 
Q 2375 2525 2294 2681 
Q 2166 2916 1816 2916 
Q 1497 2916 1236 2669 
Q 975 2422 975 1775 
L 975 0 
L 413 0 
L 413 3347 
z
" transform="scale(0.015625)"/>
        <path id="Helvetica-61" d="M 844 891 
Q 844 647 1022 506 
Q 1200 366 1444 366 
Q 1741 366 2019 503 
Q 2488 731 2488 1250 
L 2488 1703 
Q 2384 1638 2221 1594 
Q 2059 1550 1903 1531 
L 1563 1488 
Q 1256 1447 1103 1359 
Q 844 1213 844 891 
z
M 2206 2028 
Q 2400 2053 2466 2191 
Q 2503 2266 2503 2406 
Q 2503 2694 2298 2823 
Q 2094 2953 1713 2953 
Q 1272 2953 1088 2716 
Q 984 2584 953 2325 
L 428 2325 
Q 444 2944 830 3186 
Q 1216 3428 1725 3428 
Q 2316 3428 2684 3203 
Q 3050 2978 3050 2503 
L 3050 575 
Q 3050 488 3086 434 
Q 3122 381 3238 381 
Q 3275 381 3322 386 
Q 3369 391 3422 400 
L 3422 -16 
Q 3291 -53 3222 -62 
Q 3153 -72 3034 -72 
Q 2744 -72 2613 134 
Q 2544 244 2516 444 
Q 2344 219 2022 53 
Q 1700 -113 1313 -113 
Q 847 -113 551 170 
Q 256 453 256 878 
Q 256 1344 547 1600 
Q 838 1856 1309 1916 
L 2206 2028 
z
M 1741 3428 
L 1741 3428 
z
" transform="scale(0.015625)"/>
        <path id="Helvetica-74" d="M 525 4281 
L 1094 4281 
L 1094 3347 
L 1628 3347 
L 1628 2888 
L 1094 2888 
L 1094 703 
Q 1094 528 1213 469 
Q 1278 434 1431 434 
Q 1472 434 1519 436 
Q 1566 438 1628 444 
L 1628 0 
Q 1531 -28 1426 -40 
Q 1322 -53 1200 -53 
Q 806 -53 665 148 
Q 525 350 525 672 
L 525 2888 
L 72 2888 
L 72 3347 
L 525 3347 
L 525 4281 
z
" transform="scale(0.015625)"/>
        <path id="Helvetica-75" d="M 975 3347 
L 975 1125 
Q 975 869 1056 706 
Q 1206 406 1616 406 
Q 2203 406 2416 931 
Q 2531 1213 2531 1703 
L 2531 3347 
L 3094 3347 
L 3094 0 
L 2563 0 
L 2569 494 
Q 2459 303 2297 172 
Q 1975 -91 1516 -91 
Q 800 -91 541 388 
Q 400 644 400 1072 
L 400 3347 
L 975 3347 
z
M 1747 3428 
L 1747 3428 
z
" transform="scale(0.015625)"/>
        <path id="Helvetica-72" d="M 428 3347 
L 963 3347 
L 963 2769 
Q 1028 2938 1284 3180 
Q 1541 3422 1875 3422 
Q 1891 3422 1928 3419 
Q 1966 3416 2056 3406 
L 2056 2813 
Q 2006 2822 1964 2825 
Q 1922 2828 1872 2828 
Q 1447 2828 1219 2554 
Q 991 2281 991 1925 
L 991 0 
L 428 0 
L 428 3347 
z
" transform="scale(0.015625)"/>
        <path id="Helvetica-65" d="M 1806 3422 
Q 2163 3422 2497 3255 
Q 2831 3088 3006 2822 
Q 3175 2569 3231 2231 
Q 3281 2000 3281 1494 
L 828 1494 
Q 844 984 1069 676 
Q 1294 369 1766 369 
Q 2206 369 2469 659 
Q 2619 828 2681 1050 
L 3234 1050 
Q 3213 866 3089 639 
Q 2966 413 2813 269 
Q 2556 19 2178 -69 
Q 1975 -119 1719 -119 
Q 1094 -119 659 336 
Q 225 791 225 1609 
Q 225 2416 662 2919 
Q 1100 3422 1806 3422 
z
M 2703 1941 
Q 2669 2306 2544 2525 
Q 2313 2931 1772 2931 
Q 1384 2931 1121 2651 
Q 859 2372 844 1941 
L 2703 1941 
z
M 1753 3428 
L 1753 3428 
z
" transform="scale(0.015625)"/>
       </defs>
       <use xlink:href="#Helvetica-49"/>
       <use xlink:href="#Helvetica-6d" x="27.783203"/>
       <use xlink:href="#Helvetica-6d" x="111.083984"/>
       <use xlink:href="#Helvetica-61" x="194.384766"/>
       <use xlink:href="#Helvetica-74" x="250"/>
       <use xlink:href="#Helvetica-75" x="277.783203"/>
       <use xlink:href="#Helvetica-72" x="333.398438"/>
       <use xlink:href="#Helvetica-65" x="366.699219"/>
       <use xlink:href="#Helvetica-20" x="422.314453"/>
       <use xlink:href="#Helvetica-54" x="450.097656"/>
       <use xlink:href="#Helvetica-48" x="511.181641"/>
       <use xlink:href="#Helvetica-31" x="583.398438"/>
       <use xlink:href="#Helvetica-37" x="639.013672"/>
      </g>
     </g>
    </g>
   </g>
   <g id="matplotlib.axis_2">
    <g id="ytick_1">
     <g id="line2d_1">
      <defs>
       <path id="m64fc4cfbaf" d="M 0 0 
L -1 0 
" style="stroke: #777777; stroke-width: 0.5"/>
      </defs>
      <g>
       <use xlink:href="#m64fc4cfbaf" x="8.336802" y="62.919408" style="fill: #777777; stroke: #777777; stroke-width: 0.5"/>
      </g>
     </g>
     <g id="text_5">
      <!-- 0 -->
      <g style="fill: #333333" transform="translate(4.668521 63.995423) scale(0.03 -0.03)">
       <defs>
        <path id="Helvetica-30" d="M 1731 4475 
Q 2600 4475 2988 3759 
Q 3288 3206 3288 2244 
Q 3288 1331 3016 734 
Q 2622 -122 1728 -122 
Q 922 -122 528 578 
Q 200 1163 200 2147 
Q 200 2909 397 3456 
Q 766 4475 1731 4475 
z
M 1725 391 
Q 2163 391 2422 778 
Q 2681 1166 2681 2222 
Q 2681 2984 2493 3476 
Q 2306 3969 1766 3969 
Q 1269 3969 1039 3501 
Q 809 3034 809 2125 
Q 809 1441 956 1025 
Q 1181 391 1725 391 
z
" transform="scale(0.015625)"/>
       </defs>
       <use xlink:href="#Helvetica-30"/>
      </g>
     </g>
    </g>
    <g id="ytick_2">
     <g id="line2d_2">
      <g>
       <use xlink:href="#m64fc4cfbaf" x="8.336802" y="48.20862" style="fill: #777777; stroke: #777777; stroke-width: 0.5"/>
      </g>
     </g>
     <g id="text_6">
      <!-- 5 -->
      <g style="fill: #333333" transform="translate(4.668521 49.284635) scale(0.03 -0.03)">
       <defs>
        <path id="Helvetica-35" d="M 791 1141 
Q 847 659 1238 475 
Q 1438 381 1700 381 
Q 2200 381 2440 700 
Q 2681 1019 2681 1406 
Q 2681 1875 2395 2131 
Q 2109 2388 1709 2388 
Q 1419 2388 1211 2275 
Q 1003 2163 856 1963 
L 369 1991 
L 709 4400 
L 3034 4400 
L 3034 3856 
L 1131 3856 
L 941 2613 
Q 1097 2731 1238 2791 
Q 1488 2894 1816 2894 
Q 2431 2894 2859 2497 
Q 3288 2100 3288 1491 
Q 3288 856 2895 371 
Q 2503 -113 1644 -113 
Q 1097 -113 676 195 
Q 256 503 206 1141 
L 791 1141 
z
" transform="scale(0.015625)"/>
       </defs>
       <use xlink:href="#Helvetica-35"/>
      </g>
     </g>
    </g>
    <g id="ytick_3">
     <g id="line2d_3">
      <g>
       <use xlink:href="#m64fc4cfbaf" x="8.336802" y="33.497832" style="fill: #777777; stroke: #777777; stroke-width: 0.5"/>
      </g>
     </g>
     <g id="text_7">
      <!-- 10 -->
      <g style="fill: #333333" transform="translate(3.00024 34.573847) scale(0.03 -0.03)">
       <use xlink:href="#Helvetica-31"/>
       <use xlink:href="#Helvetica-30" x="55.615234"/>
      </g>
     </g>
    </g>
    <g id="ytick_4">
     <g id="line2d_4">
      <g>
       <use xlink:href="#m64fc4cfbaf" x="8.336802" y="18.787044" style="fill: #777777; stroke: #777777; stroke-width: 0.5"/>
      </g>
     </g>
     <g id="text_8">
      <!-- 15 -->
      <g style="fill: #333333" transform="translate(3.00024 19.863059) scale(0.03 -0.03)">
       <use xlink:href="#Helvetica-31"/>
       <use xlink:href="#Helvetica-35" x="55.615234"/>
      </g>
     </g>
    </g>
    <g id="ytick_5">
     <g id="line2d_5">
      <g>
       <use xlink:href="#m64fc4cfbaf" x="8.336802" y="4.076256" style="fill: #777777; stroke: #777777; stroke-width: 0.5"/>
      </g>
     </g>
     <g id="text_9">
      <!-- 20 -->
      <g style="fill: #333333" transform="translate(3.00024 5.152271) scale(0.03 -0.03)">
       <defs>
        <path id="Helvetica-32" d="M 200 0 
Q 231 578 439 1006 
Q 647 1434 1250 1784 
L 1850 2131 
Q 2253 2366 2416 2531 
Q 2672 2791 2672 3125 
Q 2672 3516 2437 3745 
Q 2203 3975 1813 3975 
Q 1234 3975 1013 3538 
Q 894 3303 881 2888 
L 309 2888 
Q 319 3472 525 3841 
Q 891 4491 1816 4491 
Q 2584 4491 2939 4075 
Q 3294 3659 3294 3150 
Q 3294 2613 2916 2231 
Q 2697 2009 2131 1694 
L 1703 1456 
Q 1397 1288 1222 1134 
Q 909 863 828 531 
L 3272 531 
L 3272 0 
L 200 0 
z
" transform="scale(0.015625)"/>
       </defs>
       <use xlink:href="#Helvetica-32"/>
       <use xlink:href="#Helvetica-30" x="55.615234"/>
      </g>
     </g>
    </g>
   </g>
   <g id="PolyCollection_1">
    <defs>
     <path id="m070b1d1e8f" d="M 22.508425 -21.844648 
L 19.590919 -21.844648 
L 19.313881 -21.86034 
L 19.006326 -21.876032 
L 18.669248 -21.891723 
L 18.304384 -21.907415 
L 17.914166 -21.923106 
L 17.501616 -21.938798 
L 17.070232 -21.95449 
L 16.623849 -21.970181 
L 16.166511 -21.985873 
L 15.702369 -22.001564 
L 15.235604 -22.017256 
L 14.770407 -22.032948 
L 14.310988 -22.048639 
L 13.861626 -22.064331 
L 13.426727 -22.080022 
L 13.010877 -22.095714 
L 12.618858 -22.111406 
L 12.255611 -22.127097 
L 11.926117 -22.142789 
L 11.635211 -22.158481 
L 11.387316 -22.174172 
L 11.186128 -22.189864 
L 11.034287 -22.205555 
L 10.933068 -22.221247 
L 10.882131 -22.236939 
L 10.879376 -22.25263 
L 10.920931 -22.268322 
L 11.001268 -22.284013 
L 11.113476 -22.299705 
L 11.249635 -22.315397 
L 11.401285 -22.331088 
L 11.559923 -22.34678 
L 11.717494 -22.362471 
L 11.866819 -22.378163 
L 12.001927 -22.393855 
L 12.118255 -22.409546 
L 12.212724 -22.425238 
L 12.283674 -22.440929 
L 12.330697 -22.456621 
L 12.354394 -22.472313 
L 12.356086 -22.488004 
L 12.33754 -22.503696 
L 12.300726 -22.519387 
L 12.247646 -22.535079 
L 12.180256 -22.550771 
L 12.100478 -22.566462 
L 12.010305 -22.582154 
L 11.911965 -22.597846 
L 11.808138 -22.613537 
L 11.702157 -22.629229 
L 11.598189 -22.64492 
L 11.501333 -22.660612 
L 11.417617 -22.676304 
L 11.353875 -22.691995 
L 11.317491 -22.707687 
L 11.316029 -22.723378 
L 11.356755 -22.73907 
L 11.446112 -22.754762 
L 11.589175 -22.770453 
L 11.789138 -22.786145 
L 12.046902 -22.801836 
L 12.360781 -22.817528 
L 12.726381 -22.83322 
L 13.136666 -22.848911 
L 13.582207 -22.864603 
L 14.051604 -22.880294 
L 14.532061 -22.895986 
L 15.010051 -22.911678 
L 15.472054 -22.927369 
L 15.905289 -22.943061 
L 16.298404 -22.958752 
L 16.64208 -22.974444 
L 16.929508 -22.990136 
L 17.156717 -23.005827 
L 17.322732 -23.021519 
L 17.429565 -23.03721 
L 17.482035 -23.052902 
L 17.487437 -23.068594 
L 17.455091 -23.084285 
L 17.395771 -23.099977 
L 17.321089 -23.115669 
L 17.242835 -23.13136 
L 17.172333 -23.147052 
L 17.119847 -23.162743 
L 17.094065 -23.178435 
L 17.101703 -23.194127 
L 17.147244 -23.209818 
L 17.232818 -23.22551 
L 17.358244 -23.241201 
L 17.521198 -23.256893 
L 17.717516 -23.272585 
L 17.941574 -23.288276 
L 18.186738 -23.303968 
L 18.445833 -23.319659 
L 18.711594 -23.335351 
L 18.97708 -23.351043 
L 19.236015 -23.366734 
L 19.483042 -23.382426 
L 19.713891 -23.398117 
L 22.385453 -23.398117 
L 22.385453 -23.398117 
L 22.616302 -23.382426 
L 22.863329 -23.366734 
L 23.122264 -23.351043 
L 23.38775 -23.335351 
L 23.653512 -23.319659 
L 23.912606 -23.303968 
L 24.157771 -23.288276 
L 24.381828 -23.272585 
L 24.578146 -23.256893 
L 24.741101 -23.241201 
L 24.866526 -23.22551 
L 24.952101 -23.209818 
L 24.997641 -23.194127 
L 25.00528 -23.178435 
L 24.979497 -23.162743 
L 24.927011 -23.147052 
L 24.856509 -23.13136 
L 24.778255 -23.115669 
L 24.703573 -23.099977 
L 24.644254 -23.084285 
L 24.611907 -23.068594 
L 24.61731 -23.052902 
L 24.669779 -23.03721 
L 24.776612 -23.021519 
L 24.942627 -23.005827 
L 25.169836 -22.990136 
L 25.457265 -22.974444 
L 25.80094 -22.958752 
L 26.194055 -22.943061 
L 26.62729 -22.927369 
L 27.089294 -22.911678 
L 27.567284 -22.895986 
L 28.04774 -22.880294 
L 28.517138 -22.864603 
L 28.962678 -22.848911 
L 29.372964 -22.83322 
L 29.738564 -22.817528 
L 30.052442 -22.801836 
L 30.310206 -22.786145 
L 30.51017 -22.770453 
L 30.653232 -22.754762 
L 30.74259 -22.73907 
L 30.783316 -22.723378 
L 30.781853 -22.707687 
L 30.74547 -22.691995 
L 30.681728 -22.676304 
L 30.598012 -22.660612 
L 30.501156 -22.64492 
L 30.397188 -22.629229 
L 30.291207 -22.613537 
L 30.187379 -22.597846 
L 30.08904 -22.582154 
L 29.998866 -22.566462 
L 29.919088 -22.550771 
L 29.851698 -22.535079 
L 29.798618 -22.519387 
L 29.761804 -22.503696 
L 29.743258 -22.488004 
L 29.744951 -22.472313 
L 29.768647 -22.456621 
L 29.81567 -22.440929 
L 29.88662 -22.425238 
L 29.981089 -22.409546 
L 30.097417 -22.393855 
L 30.232525 -22.378163 
L 30.38185 -22.362471 
L 30.539421 -22.34678 
L 30.698059 -22.331088 
L 30.849709 -22.315397 
L 30.985868 -22.299705 
L 31.098076 -22.284013 
L 31.178414 -22.268322 
L 31.219968 -22.25263 
L 31.217214 -22.236939 
L 31.166276 -22.221247 
L 31.065057 -22.205555 
L 30.913216 -22.189864 
L 30.712028 -22.174172 
L 30.464133 -22.158481 
L 30.173227 -22.142789 
L 29.843734 -22.127097 
L 29.480486 -22.111406 
L 29.088468 -22.095714 
L 28.672617 -22.080022 
L 28.237718 -22.064331 
L 27.788356 -22.048639 
L 27.328938 -22.032948 
L 26.863741 -22.017256 
L 26.396976 -22.001564 
L 25.932833 -21.985873 
L 25.475495 -21.970181 
L 25.029112 -21.95449 
L 24.597728 -21.938798 
L 24.185179 -21.923106 
L 23.79496 -21.907415 
L 23.430097 -21.891723 
L 23.093018 -21.876032 
L 22.785464 -21.86034 
L 22.508425 -21.844648 
z
" style="stroke: #595959; stroke-width: 0.15"/>
    </defs>
    <g clip-path="url(#pc5b3d0243a)">
     <use xlink:href="#m070b1d1e8f" x="0" y="84.96" style="fill: #cfcfcf; stroke: #595959; stroke-width: 0.15"/>
    </g>
   </g>
   <g id="PolyCollection_2">
    <defs>
     <path id="ma6e7cb6069" d="M 48.463249 -21.133232 
L 44.487574 -21.133232 
L 44.086611 -21.203744 
L 43.637411 -21.274256 
L 43.141844 -21.344768 
L 42.603704 -21.41528 
L 42.028826 -21.485792 
L 41.425104 -21.556304 
L 40.802387 -21.626816 
L 40.172254 -21.697328 
L 39.547659 -21.76784 
L 38.942472 -21.838351 
L 38.370923 -21.908863 
L 37.846994 -21.979375 
L 37.383787 -22.049887 
L 36.992912 -22.120399 
L 36.683939 -22.190911 
L 36.463952 -22.261423 
L 36.337236 -22.331935 
L 36.305116 -22.402447 
L 36.365966 -22.472959 
L 36.515378 -22.543471 
L 36.746475 -22.613983 
L 37.050355 -22.684495 
L 37.416608 -22.755007 
L 37.83389 -22.825518 
L 38.290496 -22.89603 
L 38.774896 -22.966542 
L 39.276206 -23.037054 
L 39.784561 -23.107566 
L 40.291373 -23.178078 
L 40.789481 -23.24859 
L 41.273188 -23.319102 
L 41.738194 -23.389614 
L 42.181467 -23.460126 
L 42.601053 -23.530638 
L 42.995865 -23.60115 
L 43.365469 -23.671662 
L 43.709887 -23.742174 
L 44.029437 -23.812685 
L 44.324602 -23.883197 
L 44.595955 -23.953709 
L 44.844109 -24.024221 
L 45.069711 -24.094733 
L 45.273447 -24.165245 
L 45.456067 -24.235757 
L 45.618414 -24.306269 
L 45.761438 -24.376781 
L 45.886215 -24.447293 
L 45.99394 -24.517805 
L 46.085914 -24.588317 
L 46.16352 -24.658829 
L 46.228182 -24.729341 
L 46.28133 -24.799852 
L 46.324358 -24.870364 
L 46.358576 -24.940876 
L 46.385182 -25.011388 
L 46.405225 -25.0819 
L 46.41958 -25.152412 
L 46.428932 -25.222924 
L 46.433762 -25.293436 
L 46.434341 -25.363948 
L 46.430732 -25.43446 
L 46.422792 -25.504972 
L 46.410186 -25.575484 
L 46.392407 -25.645996 
L 46.368804 -25.716508 
L 46.338619 -25.787019 
L 46.301032 -25.857531 
L 46.255224 -25.928043 
L 46.200443 -25.998555 
L 46.136084 -26.069067 
L 46.061769 -26.139579 
L 45.977432 -26.210091 
L 45.883399 -26.280603 
L 45.78045 -26.351115 
L 45.669868 -26.421627 
L 45.553459 -26.492139 
L 45.433532 -26.562651 
L 45.312855 -26.633163 
L 45.194566 -26.703675 
L 45.082043 -26.774186 
L 44.978759 -26.844698 
L 44.888101 -26.91521 
L 44.813191 -26.985722 
L 44.756707 -27.056234 
L 44.720726 -27.126746 
L 44.706593 -27.197258 
L 44.714842 -27.26777 
L 44.745162 -27.338282 
L 44.796414 -27.408794 
L 44.866704 -27.479306 
L 44.953499 -27.549818 
L 45.053776 -27.62033 
L 45.1642 -27.690842 
L 45.281306 -27.761353 
L 45.401673 -27.831865 
L 45.522089 -27.902377 
L 45.639679 -27.972889 
L 45.752008 -28.043401 
L 45.85714 -28.113913 
L 47.093683 -28.113913 
L 47.093683 -28.113913 
L 47.198815 -28.043401 
L 47.311144 -27.972889 
L 47.428735 -27.902377 
L 47.54915 -27.831865 
L 47.669517 -27.761353 
L 47.786623 -27.690842 
L 47.897047 -27.62033 
L 47.997325 -27.549818 
L 48.084119 -27.479306 
L 48.154409 -27.408794 
L 48.205661 -27.338282 
L 48.235981 -27.26777 
L 48.244231 -27.197258 
L 48.230097 -27.126746 
L 48.194116 -27.056234 
L 48.137632 -26.985722 
L 48.062722 -26.91521 
L 47.972064 -26.844698 
L 47.86878 -26.774186 
L 47.756257 -26.703675 
L 47.637968 -26.633163 
L 47.517292 -26.562651 
L 47.397365 -26.492139 
L 47.280955 -26.421627 
L 47.170373 -26.351115 
L 47.067425 -26.280603 
L 46.973391 -26.210091 
L 46.889054 -26.139579 
L 46.814739 -26.069067 
L 46.75038 -25.998555 
L 46.695599 -25.928043 
L 46.649791 -25.857531 
L 46.612204 -25.787019 
L 46.582019 -25.716508 
L 46.558416 -25.645996 
L 46.540638 -25.575484 
L 46.528031 -25.504972 
L 46.520091 -25.43446 
L 46.516482 -25.363948 
L 46.517061 -25.293436 
L 46.521891 -25.222924 
L 46.531244 -25.152412 
L 46.545599 -25.0819 
L 46.565641 -25.011388 
L 46.592247 -24.940876 
L 46.626466 -24.870364 
L 46.669493 -24.799852 
L 46.722642 -24.729341 
L 46.787304 -24.658829 
L 46.864909 -24.588317 
L 46.956883 -24.517805 
L 47.064608 -24.447293 
L 47.189385 -24.376781 
L 47.33241 -24.306269 
L 47.494756 -24.235757 
L 47.677377 -24.165245 
L 47.881112 -24.094733 
L 48.106714 -24.024221 
L 48.354869 -23.953709 
L 48.626221 -23.883197 
L 48.921387 -23.812685 
L 49.240936 -23.742174 
L 49.585355 -23.671662 
L 49.954958 -23.60115 
L 50.34977 -23.530638 
L 50.769356 -23.460126 
L 51.21263 -23.389614 
L 51.677636 -23.319102 
L 52.161342 -23.24859 
L 52.65945 -23.178078 
L 53.166262 -23.107566 
L 53.674617 -23.037054 
L 54.175927 -22.966542 
L 54.660327 -22.89603 
L 55.116933 -22.825518 
L 55.534215 -22.755007 
L 55.900468 -22.684495 
L 56.204348 -22.613983 
L 56.435445 -22.543471 
L 56.584857 -22.472959 
L 56.645707 -22.402447 
L 56.613588 -22.331935 
L 56.486871 -22.261423 
L 56.266885 -22.190911 
L 55.957911 -22.120399 
L 55.567036 -22.049887 
L 55.103829 -21.979375 
L 54.5799 -21.908863 
L 54.008351 -21.838351 
L 53.403164 -21.76784 
L 52.778569 -21.697328 
L 52.148436 -21.626816 
L 51.525719 -21.556304 
L 50.921997 -21.485792 
L 50.347119 -21.41528 
L 49.808979 -21.344768 
L 49.313412 -21.274256 
L 48.864212 -21.203744 
L 48.463249 -21.133232 
z
" style="stroke: #595959; stroke-width: 0.15"/>
    </defs>
    <g clip-path="url(#pc5b3d0243a)">
     <use xlink:href="#ma6e7cb6069" x="0" y="84.96" style="fill: #cc5eca; stroke: #595959; stroke-width: 0.15"/>
    </g>
   </g>
   <g id="PolyCollection_3">
    <defs>
     <path id="mfbbd0430b3" d="M 73.886836 -21.042981 
L 69.915465 -21.042981 
L 69.591063 -21.109477 
L 69.236316 -21.175973 
L 68.852693 -21.242468 
L 68.442495 -21.308964 
L 68.008848 -21.375459 
L 67.55566 -21.441955 
L 67.087536 -21.50845 
L 66.609664 -21.574946 
L 66.127659 -21.641441 
L 65.647398 -21.707937 
L 65.174826 -21.774433 
L 64.715779 -21.840928 
L 64.275807 -21.907424 
L 63.860024 -21.973919 
L 63.472991 -22.040415 
L 63.118639 -22.10691 
L 62.800235 -22.173406 
L 62.520389 -22.239901 
L 62.2811 -22.306397 
L 62.083835 -22.372893 
L 61.929615 -22.439388 
L 61.81912 -22.505884 
L 61.752782 -22.572379 
L 61.730855 -22.638875 
L 61.753463 -22.70537 
L 61.82061 -22.771866 
L 61.932161 -22.838362 
L 62.087782 -22.904857 
L 62.286859 -22.971353 
L 62.528398 -23.037848 
L 62.810927 -23.104344 
L 63.132398 -23.170839 
L 63.490119 -23.237335 
L 63.88071 -23.30383 
L 64.300107 -23.370326 
L 64.743601 -23.436822 
L 65.205928 -23.503317 
L 65.681395 -23.569813 
L 66.164035 -23.636308 
L 66.647786 -23.702804 
L 67.126679 -23.769299 
L 67.595024 -23.835795 
L 68.047575 -23.90229 
L 68.479675 -23.968786 
L 68.887369 -24.035282 
L 69.267465 -24.101777 
L 69.617573 -24.168273 
L 69.936089 -24.234768 
L 70.22215 -24.301264 
L 70.475552 -24.367759 
L 70.69665 -24.434255 
L 70.886239 -24.50075 
L 71.045428 -24.567246 
L 71.175511 -24.633742 
L 71.277852 -24.700237 
L 71.35378 -24.766733 
L 71.404502 -24.833228 
L 71.431045 -24.899724 
L 71.434215 -24.966219 
L 71.414589 -25.032715 
L 71.372533 -25.09921 
L 71.308243 -25.165706 
L 71.22181 -25.232202 
L 71.113307 -25.298697 
L 70.982885 -25.365193 
L 70.830882 -25.431688 
L 70.657936 -25.498184 
L 70.465088 -25.564679 
L 70.25388 -25.631175 
L 70.026428 -25.69767 
L 69.785474 -25.764166 
L 69.534397 -25.830662 
L 69.277202 -25.897157 
L 69.018453 -25.963653 
L 68.76318 -26.030148 
L 68.516743 -26.096644 
L 68.284664 -26.163139 
L 68.072433 -26.229635 
L 67.885307 -26.296131 
L 67.728096 -26.362626 
L 67.604964 -26.429122 
L 67.519247 -26.495617 
L 67.473306 -26.562113 
L 67.46842 -26.628608 
L 67.504728 -26.695104 
L 67.581224 -26.761599 
L 67.6958 -26.828095 
L 67.845349 -26.894591 
L 68.025898 -26.961086 
L 68.232791 -27.027582 
L 68.460881 -27.094077 
L 68.704746 -27.160573 
L 68.9589 -27.227068 
L 69.217993 -27.293564 
L 69.47699 -27.360059 
L 69.731323 -27.426555 
L 69.977006 -27.493051 
L 70.210715 -27.559546 
L 70.429826 -27.626042 
L 73.372475 -27.626042 
L 73.372475 -27.626042 
L 73.591587 -27.559546 
L 73.825295 -27.493051 
L 74.070979 -27.426555 
L 74.325312 -27.360059 
L 74.584309 -27.293564 
L 74.843402 -27.227068 
L 75.097556 -27.160573 
L 75.341421 -27.094077 
L 75.569511 -27.027582 
L 75.776404 -26.961086 
L 75.956953 -26.894591 
L 76.106501 -26.828095 
L 76.221078 -26.761599 
L 76.297573 -26.695104 
L 76.333882 -26.628608 
L 76.328996 -26.562113 
L 76.283055 -26.495617 
L 76.197338 -26.429122 
L 76.074206 -26.362626 
L 75.916995 -26.296131 
L 75.729869 -26.229635 
L 75.517638 -26.163139 
L 75.285559 -26.096644 
L 75.039122 -26.030148 
L 74.783849 -25.963653 
L 74.5251 -25.897157 
L 74.267905 -25.830662 
L 74.016828 -25.764166 
L 73.775874 -25.69767 
L 73.548422 -25.631175 
L 73.337214 -25.564679 
L 73.144366 -25.498184 
L 72.97142 -25.431688 
L 72.819417 -25.365193 
L 72.688995 -25.298697 
L 72.580492 -25.232202 
L 72.494059 -25.165706 
L 72.429769 -25.09921 
L 72.387713 -25.032715 
L 72.368087 -24.966219 
L 72.371257 -24.899724 
L 72.3978 -24.833228 
L 72.448522 -24.766733 
L 72.52445 -24.700237 
L 72.626791 -24.633742 
L 72.756874 -24.567246 
L 72.916063 -24.50075 
L 73.105652 -24.434255 
L 73.32675 -24.367759 
L 73.580152 -24.301264 
L 73.866213 -24.234768 
L 74.184729 -24.168273 
L 74.534837 -24.101777 
L 74.914933 -24.035282 
L 75.322626 -23.968786 
L 75.754727 -23.90229 
L 76.207278 -23.835795 
L 76.675623 -23.769299 
L 77.154516 -23.702804 
L 77.638267 -23.636308 
L 78.120906 -23.569813 
L 78.596374 -23.503317 
L 79.058701 -23.436822 
L 79.502195 -23.370326 
L 79.921592 -23.30383 
L 80.312183 -23.237335 
L 80.669903 -23.170839 
L 80.991375 -23.104344 
L 81.273904 -23.037848 
L 81.515443 -22.971353 
L 81.71452 -22.904857 
L 81.87014 -22.838362 
L 81.981692 -22.771866 
L 82.048839 -22.70537 
L 82.071447 -22.638875 
L 82.049519 -22.572379 
L 81.983182 -22.505884 
L 81.872687 -22.439388 
L 81.718467 -22.372893 
L 81.521201 -22.306397 
L 81.281913 -22.239901 
L 81.002067 -22.173406 
L 80.683663 -22.10691 
L 80.329311 -22.040415 
L 79.942278 -21.973919 
L 79.526495 -21.907424 
L 79.086523 -21.840928 
L 78.627476 -21.774433 
L 78.154904 -21.707937 
L 77.674642 -21.641441 
L 77.192638 -21.574946 
L 76.714766 -21.50845 
L 76.246642 -21.441955 
L 75.793453 -21.375459 
L 75.359807 -21.308964 
L 74.949609 -21.242468 
L 74.565986 -21.175973 
L 74.211239 -21.109477 
L 73.886836 -21.042981 
z
" style="stroke: #595959; stroke-width: 0.15"/>
    </defs>
    <g clip-path="url(#pc5b3d0243a)">
     <use xlink:href="#mfbbd0430b3" x="0" y="84.96" style="fill: #d275d2; stroke: #595959; stroke-width: 0.15"/>
    </g>
   </g>
   <g id="PolyCollection_4">
    <defs>
     <path id="m88a71a71a8" d="M 98.980017 -21.267739 
L 95.673763 -21.267739 
L 95.378357 -21.320849 
L 95.049238 -21.37396 
L 94.686398 -21.427071 
L 94.290617 -21.480182 
L 93.863543 -21.533293 
L 93.407744 -21.586404 
L 92.926745 -21.639515 
L 92.425019 -21.692625 
L 91.907958 -21.745736 
L 91.381803 -21.798847 
L 90.853549 -21.851958 
L 90.330815 -21.905069 
L 89.821683 -21.95818 
L 89.334516 -22.011291 
L 88.877761 -22.064401 
L 88.459728 -22.117512 
L 88.088364 -22.170623 
L 87.77103 -22.223734 
L 87.514277 -22.276845 
L 87.323635 -22.329956 
L 87.203425 -22.383067 
L 87.156595 -22.436177 
L 87.184595 -22.489288 
L 87.287292 -22.542399 
L 87.462935 -22.59551 
L 87.708169 -22.648621 
L 88.018104 -22.701732 
L 88.386439 -22.754842 
L 88.805638 -22.807953 
L 89.267143 -22.861064 
L 89.761627 -22.914175 
L 90.279272 -22.967286 
L 90.810059 -23.020397 
L 91.344052 -23.073508 
L 91.871676 -23.126618 
L 92.383969 -23.179729 
L 92.87279 -23.23284 
L 93.331003 -23.285951 
L 93.752598 -23.339062 
L 94.132776 -23.392173 
L 94.467985 -23.445284 
L 94.755909 -23.498394 
L 94.995433 -23.551505 
L 95.186558 -23.604616 
L 95.33031 -23.657727 
L 95.428621 -23.710838 
L 95.484197 -23.763949 
L 95.500385 -23.81706 
L 95.481031 -23.87017 
L 95.430341 -23.923281 
L 95.352737 -23.976392 
L 95.252726 -24.029503 
L 95.134771 -24.082614 
L 95.003168 -24.135725 
L 94.861941 -24.188836 
L 94.714742 -24.241946 
L 94.564784 -24.295057 
L 94.414781 -24.348168 
L 94.266921 -24.401279 
L 94.122867 -24.45439 
L 93.983777 -24.507501 
L 93.850362 -24.560612 
L 93.722958 -24.613722 
L 93.601623 -24.666833 
L 93.486244 -24.719944 
L 93.376651 -24.773055 
L 93.272728 -24.826166 
L 93.174514 -24.879277 
L 93.082288 -24.932388 
L 92.996624 -24.985498 
L 92.918427 -25.038609 
L 92.848929 -25.09172 
L 92.789663 -25.144831 
L 92.7424 -25.197942 
L 92.709072 -25.251053 
L 92.691664 -25.304164 
L 92.692106 -25.357274 
L 92.712156 -25.410385 
L 92.753284 -25.463496 
L 92.816574 -25.516607 
L 92.902638 -25.569718 
L 93.011554 -25.622829 
L 93.142828 -25.675939 
L 93.295392 -25.72905 
L 93.467615 -25.782161 
L 93.657358 -25.835272 
L 93.862037 -25.888383 
L 94.078714 -25.941494 
L 94.304204 -25.994605 
L 94.535182 -26.047715 
L 94.768298 -26.100826 
L 95.00029 -26.153937 
L 95.228084 -26.207048 
L 95.448883 -26.260159 
L 95.660239 -26.31327 
L 95.860106 -26.366381 
L 96.046872 -26.419491 
L 96.219367 -26.472602 
L 96.376863 -26.525713 
L 98.276917 -26.525713 
L 98.276917 -26.525713 
L 98.434413 -26.472602 
L 98.606909 -26.419491 
L 98.793674 -26.366381 
L 98.993541 -26.31327 
L 99.204898 -26.260159 
L 99.425697 -26.207048 
L 99.653491 -26.153937 
L 99.885483 -26.100826 
L 100.118599 -26.047715 
L 100.349576 -25.994605 
L 100.575066 -25.941494 
L 100.791744 -25.888383 
L 100.996422 -25.835272 
L 101.186165 -25.782161 
L 101.358389 -25.72905 
L 101.510952 -25.675939 
L 101.642227 -25.622829 
L 101.751143 -25.569718 
L 101.837206 -25.516607 
L 101.900497 -25.463496 
L 101.941625 -25.410385 
L 101.961674 -25.357274 
L 101.962117 -25.304164 
L 101.944709 -25.251053 
L 101.91138 -25.197942 
L 101.864118 -25.144831 
L 101.804852 -25.09172 
L 101.735354 -25.038609 
L 101.657157 -24.985498 
L 101.571493 -24.932388 
L 101.479267 -24.879277 
L 101.381053 -24.826166 
L 101.27713 -24.773055 
L 101.167537 -24.719944 
L 101.052158 -24.666833 
L 100.930823 -24.613722 
L 100.803419 -24.560612 
L 100.670004 -24.507501 
L 100.530914 -24.45439 
L 100.386859 -24.401279 
L 100.239 -24.348168 
L 100.088996 -24.295057 
L 99.939038 -24.241946 
L 99.79184 -24.188836 
L 99.650612 -24.135725 
L 99.51901 -24.082614 
L 99.401055 -24.029503 
L 99.301044 -23.976392 
L 99.22344 -23.923281 
L 99.172749 -23.87017 
L 99.153396 -23.81706 
L 99.169584 -23.763949 
L 99.22516 -23.710838 
L 99.32347 -23.657727 
L 99.467223 -23.604616 
L 99.658348 -23.551505 
L 99.897871 -23.498394 
L 100.185796 -23.445284 
L 100.521005 -23.392173 
L 100.901183 -23.339062 
L 101.322778 -23.285951 
L 101.780991 -23.23284 
L 102.269812 -23.179729 
L 102.782104 -23.126618 
L 103.309729 -23.073508 
L 103.843722 -23.020397 
L 104.374508 -22.967286 
L 104.892154 -22.914175 
L 105.386638 -22.861064 
L 105.848142 -22.807953 
L 106.267341 -22.754842 
L 106.635677 -22.701732 
L 106.945612 -22.648621 
L 107.190845 -22.59551 
L 107.366488 -22.542399 
L 107.469186 -22.489288 
L 107.497186 -22.436177 
L 107.450356 -22.383067 
L 107.330145 -22.329956 
L 107.139504 -22.276845 
L 106.882751 -22.223734 
L 106.565417 -22.170623 
L 106.194053 -22.117512 
L 105.776019 -22.064401 
L 105.319264 -22.011291 
L 104.832098 -21.95818 
L 104.322965 -21.905069 
L 103.800231 -21.851958 
L 103.271978 -21.798847 
L 102.745823 -21.745736 
L 102.228761 -21.692625 
L 101.727035 -21.639515 
L 101.246036 -21.586404 
L 100.790238 -21.533293 
L 100.363163 -21.480182 
L 99.967382 -21.427071 
L 99.604542 -21.37396 
L 99.275423 -21.320849 
L 98.980017 -21.267739 
z
" style="stroke: #595959; stroke-width: 0.15"/>
    </defs>
    <g clip-path="url(#pc5b3d0243a)">
     <use xlink:href="#m88a71a71a8" x="0" y="84.96" style="fill: #da8cd9; stroke: #595959; stroke-width: 0.15"/>
    </g>
   </g>
   <g id="line2d_6">
    <path d="M 21.049672 62.916304 
L 21.049672 61.76093 
" clip-path="url(#pc5b3d0243a)" style="fill: none; stroke: #8c8c8c; stroke-width: 0.75; stroke-linecap: round"/>
   </g>
   <g id="line2d_7">
    <path d="M 21.049672 62.711005 
L 21.049672 62.178712 
" clip-path="url(#pc5b3d0243a)" style="fill: none; stroke: #8c8c8c; stroke-width: 4; stroke-linecap: round"/>
   </g>
   <g id="line2d_8">
    <path d="M 21.049672 62.430752 
" clip-path="url(#pc5b3d0243a)" style="fill: none; stroke: #595959; stroke-width: 1.2; stroke-linecap: round"/>
    <defs>
     <path id="m67db46af52" d="M 0 0.833333 
C 0.221003 0.833333 0.432983 0.745528 0.589256 0.589256 
C 0.745528 0.432983 0.833333 0.221003 0.833333 0 
C 0.833333 -0.221003 0.745528 -0.432983 0.589256 -0.589256 
C 0.432983 -0.745528 0.221003 -0.833333 0 -0.833333 
C -0.221003 -0.833333 -0.432983 -0.745528 -0.589256 -0.589256 
C -0.745528 -0.432983 -0.833333 -0.221003 -0.833333 0 
C -0.833333 0.221003 -0.745528 0.432983 -0.589256 0.589256 
C -0.432983 0.745528 -0.221003 0.833333 0 0.833333 
z
" style="stroke: #ffffff; stroke-width: 0.8"/>
    </defs>
    <g clip-path="url(#pc5b3d0243a)">
     <use xlink:href="#m67db46af52" x="21.049672" y="62.430752" style="fill: #ffffff; stroke: #ffffff; stroke-width: 0.8"/>
    </g>
   </g>
   <g id="line2d_9">
    <path d="M 46.475412 62.919408 
L 46.475412 61.497069 
" clip-path="url(#pc5b3d0243a)" style="fill: none; stroke: #8c8c8c; stroke-width: 0.75; stroke-linecap: round"/>
   </g>
   <g id="line2d_10">
    <path d="M 46.475412 62.77745 
L 46.475412 62.051027 
" clip-path="url(#pc5b3d0243a)" style="fill: none; stroke: #8c8c8c; stroke-width: 4; stroke-linecap: round"/>
   </g>
   <g id="line2d_11">
    <path d="M 46.475412 62.460811 
" clip-path="url(#pc5b3d0243a)" style="fill: none; stroke: #595959; stroke-width: 1.2; stroke-linecap: round"/>
    <g clip-path="url(#pc5b3d0243a)">
     <use xlink:href="#m67db46af52" x="46.475412" y="62.460811" style="fill: #ffffff; stroke: #ffffff; stroke-width: 0.8"/>
    </g>
   </g>
   <g id="line2d_12">
    <path d="M 71.901151 62.919408 
L 71.901151 58.331569 
" clip-path="url(#pc5b3d0243a)" style="fill: none; stroke: #8c8c8c; stroke-width: 0.75; stroke-linecap: round"/>
   </g>
   <g id="line2d_13">
    <path d="M 71.901151 62.742681 
L 71.901151 60.879586 
" clip-path="url(#pc5b3d0243a)" style="fill: none; stroke: #8c8c8c; stroke-width: 4; stroke-linecap: round"/>
   </g>
   <g id="line2d_14">
    <path d="M 71.901151 61.87736 
" clip-path="url(#pc5b3d0243a)" style="fill: none; stroke: #595959; stroke-width: 1.2; stroke-linecap: round"/>
    <g clip-path="url(#pc5b3d0243a)">
     <use xlink:href="#m67db46af52" x="71.901151" y="61.87736" style="fill: #ffffff; stroke: #ffffff; stroke-width: 0.8"/>
    </g>
   </g>
   <g id="line2d_15">
    <path d="M 97.32689 62.916304 
L 97.32689 59.210244 
" clip-path="url(#pc5b3d0243a)" style="fill: none; stroke: #8c8c8c; stroke-width: 0.75; stroke-linecap: round"/>
   </g>
   <g id="line2d_16">
    <path d="M 97.32689 62.499496 
L 97.32689 60.288398 
" clip-path="url(#pc5b3d0243a)" style="fill: none; stroke: #8c8c8c; stroke-width: 4; stroke-linecap: round"/>
   </g>
   <g id="line2d_17">
    <path d="M 97.32689 62.274434 
" clip-path="url(#pc5b3d0243a)" style="fill: none; stroke: #595959; stroke-width: 1.2; stroke-linecap: round"/>
    <g clip-path="url(#pc5b3d0243a)">
     <use xlink:href="#m67db46af52" x="97.32689" y="62.274434" style="fill: #ffffff; stroke: #ffffff; stroke-width: 0.8"/>
    </g>
   </g>
   <g id="patch_3">
    <path d="M 8.336802 74.393822 
L 8.336802 4.076256 
" style="fill: none; stroke: #777777; stroke-width: 0.5; stroke-linejoin: miter; stroke-linecap: square"/>
   </g>
   <g id="patch_4">
    <path d="M 8.336802 76.893822 
L 110.03976 76.893822 
" style="fill: none; stroke: #777777; stroke-width: 0.5; stroke-linejoin: miter; stroke-linecap: square"/>
   </g>
  </g>
 </g>
 <defs>
  <clipPath id="pc5b3d0243a">
   <rect x="8.336802" y="4.076256" width="101.702957" height="70.317567"/>
  </clipPath>
 </defs>
</svg>
