<?xml version="1.0" encoding="utf-8" standalone="no"?>
<!DOCTYPE svg PUBLIC "-//W3C//DTD SVG 1.1//EN"
  "http://www.w3.org/Graphics/SVG/1.1/DTD/svg11.dtd">
<svg xmlns:xlink="http://www.w3.org/1999/xlink" width="56.16pt" height="84.96pt" viewBox="0 0 56.16 84.96" xmlns="http://www.w3.org/2000/svg" version="1.1">
 <metadata>
  <rdf:RDF xmlns:dc="http://purl.org/dc/elements/1.1/" xmlns:cc="http://creativecommons.org/ns#" xmlns:rdf="http://www.w3.org/1999/02/22-rdf-syntax-ns#">
   <cc:Work>
    <dc:type rdf:resource="http://purl.org/dc/dcmitype/StillImage"/>
    <dc:date>2024-05-27T15:37:03.739225</dc:date>
    <dc:format>image/svg+xml</dc:format>
    <dc:creator>
     <cc:Agent>
      <dc:title>Matplotlib v3.8.3, https://matplotlib.org/</dc:title>
     </cc:Agent>
    </dc:creator>
   </cc:Work>
  </rdf:RDF>
 </metadata>
 <defs>
  <style type="text/css">*{stroke-linejoin: round; stroke-linecap: butt}</style>
 </defs>
 <g id="figure_1">
  <g id="patch_1">
   <path d="M 0 84.96 
L 56.16 84.96 
L 56.16 0 
L 0 0 
z
" style="fill: #ffffff"/>
  </g>
  <g id="axes_1">
   <g id="patch_2">
    <path d="M 8.336802 74.419526 
L 53.15976 74.419526 
L 53.15976 4.076256 
L 8.336802 4.076256 
z
" style="fill: #ffffff"/>
   </g>
   <g id="matplotlib.axis_1">
    <g id="xtick_1">
     <g id="text_1">
      <!-- ILC2 -->
      <g style="fill: #333333" transform="translate(15.846214 81.230229) scale(0.035 -0.035)">
       <defs>
        <path id="Helvetica-49" d="M 628 4591 
L 1256 4591 
L 1256 0 
L 628 0 
L 628 4591 
z
" transform="scale(0.015625)"/>
        <path id="Helvetica-4c" d="M 488 4591 
L 1109 4591 
L 1109 547 
L 3434 547 
L 3434 0 
L 488 0 
L 488 4591 
z
" transform="scale(0.015625)"/>
        <path id="Helvetica-43" d="M 2422 4716 
Q 3294 4716 3775 4256 
Q 4256 3797 4309 3213 
L 3703 3213 
Q 3600 3656 3292 3915 
Q 2984 4175 2428 4175 
Q 1750 4175 1333 3698 
Q 916 3222 916 2238 
Q 916 1431 1292 929 
Q 1669 428 2416 428 
Q 3103 428 3463 956 
Q 3653 1234 3747 1688 
L 4353 1688 
Q 4272 963 3816 472 
Q 3269 -119 2341 -119 
Q 1541 -119 997 366 
Q 281 1006 281 2344 
Q 281 3359 819 4009 
Q 1400 4716 2422 4716 
z
M 2297 4716 
L 2297 4716 
z
" transform="scale(0.015625)"/>
        <path id="Helvetica-32" d="M 200 0 
Q 231 578 439 1006 
Q 647 1434 1250 1784 
L 1850 2131 
Q 2253 2366 2416 2531 
Q 2672 2791 2672 3125 
Q 2672 3516 2437 3745 
Q 2203 3975 1813 3975 
Q 1234 3975 1013 3538 
Q 894 3303 881 2888 
L 309 2888 
Q 319 3472 525 3841 
Q 891 4491 1816 4491 
Q 2584 4491 2939 4075 
Q 3294 3659 3294 3150 
Q 3294 2613 2916 2231 
Q 2697 2009 2131 1694 
L 1703 1456 
Q 1397 1288 1222 1134 
Q 909 863 828 531 
L 3272 531 
L 3272 0 
L 200 0 
z
" transform="scale(0.015625)"/>
       </defs>
       <use xlink:href="#Helvetica-49"/>
       <use xlink:href="#Helvetica-4c" x="27.783203"/>
       <use xlink:href="#Helvetica-43" x="83.398438"/>
       <use xlink:href="#Helvetica-32" x="155.615234"/>
      </g>
     </g>
    </g>
    <g id="xtick_2">
     <g id="text_2">
      <!-- TH2 -->
      <g style="fill: #333333" transform="translate(38.648161 81.230229) scale(0.035 -0.035)">
       <defs>
        <path id="Helvetica-54" d="M 3828 4591 
L 3828 4044 
L 2281 4044 
L 2281 0 
L 1650 0 
L 1650 4044 
L 103 4044 
L 103 4591 
L 3828 4591 
z
" transform="scale(0.015625)"/>
        <path id="Helvetica-48" d="M 503 4591 
L 1131 4591 
L 1131 2694 
L 3519 2694 
L 3519 4591 
L 4147 4591 
L 4147 0 
L 3519 0 
L 3519 2147 
L 1131 2147 
L 1131 0 
L 503 0 
L 503 4591 
z
" transform="scale(0.015625)"/>
       </defs>
       <use xlink:href="#Helvetica-54"/>
       <use xlink:href="#Helvetica-48" x="61.083984"/>
       <use xlink:href="#Helvetica-32" x="133.300781"/>
      </g>
     </g>
    </g>
   </g>
   <g id="matplotlib.axis_2">
    <g id="ytick_1">
     <g id="line2d_1">
      <defs>
       <path id="m1f6f1e4ee2" d="M 0 0 
L -1 0 
" style="stroke: #777777; stroke-width: 0.5"/>
      </defs>
      <g>
       <use xlink:href="#m1f6f1e4ee2" x="8.336802" y="66.995102" style="fill: #777777; stroke: #777777; stroke-width: 0.5"/>
      </g>
     </g>
     <g id="text_3">
      <!-- 0 -->
      <g style="fill: #333333" transform="translate(4.668521 68.071117) scale(0.03 -0.03)">
       <defs>
        <path id="Helvetica-30" d="M 1731 4475 
Q 2600 4475 2988 3759 
Q 3288 3206 3288 2244 
Q 3288 1331 3016 734 
Q 2622 -122 1728 -122 
Q 922 -122 528 578 
Q 200 1163 200 2147 
Q 200 2909 397 3456 
Q 766 4475 1731 4475 
z
M 1725 391 
Q 2163 391 2422 778 
Q 2681 1166 2681 2222 
Q 2681 2984 2493 3476 
Q 2306 3969 1766 3969 
Q 1269 3969 1039 3501 
Q 809 3034 809 2125 
Q 809 1441 956 1025 
Q 1181 391 1725 391 
z
" transform="scale(0.015625)"/>
       </defs>
       <use xlink:href="#Helvetica-30"/>
      </g>
     </g>
    </g>
    <g id="ytick_2">
     <g id="line2d_2">
      <g>
       <use xlink:href="#m1f6f1e4ee2" x="8.336802" y="54.411333" style="fill: #777777; stroke: #777777; stroke-width: 0.5"/>
      </g>
     </g>
     <g id="text_4">
      <!-- 10 -->
      <g style="fill: #333333" transform="translate(3.00024 55.487348) scale(0.03 -0.03)">
       <defs>
        <path id="Helvetica-31" d="M 613 3169 
L 613 3600 
Q 1222 3659 1462 3798 
Q 1703 3938 1822 4456 
L 2266 4456 
L 2266 0 
L 1666 0 
L 1666 3169 
L 613 3169 
z
" transform="scale(0.015625)"/>
       </defs>
       <use xlink:href="#Helvetica-31"/>
       <use xlink:href="#Helvetica-30" x="55.615234"/>
      </g>
     </g>
    </g>
    <g id="ytick_3">
     <g id="line2d_3">
      <g>
       <use xlink:href="#m1f6f1e4ee2" x="8.336802" y="41.827563" style="fill: #777777; stroke: #777777; stroke-width: 0.5"/>
      </g>
     </g>
     <g id="text_5">
      <!-- 20 -->
      <g style="fill: #333333" transform="translate(3.00024 42.903579) scale(0.03 -0.03)">
       <use xlink:href="#Helvetica-32"/>
       <use xlink:href="#Helvetica-30" x="55.615234"/>
      </g>
     </g>
    </g>
    <g id="ytick_4">
     <g id="line2d_4">
      <g>
       <use xlink:href="#m1f6f1e4ee2" x="8.336802" y="29.243794" style="fill: #777777; stroke: #777777; stroke-width: 0.5"/>
      </g>
     </g>
     <g id="text_6">
      <!-- 30 -->
      <g style="fill: #333333" transform="translate(3.00024 30.31981) scale(0.03 -0.03)">
       <defs>
        <path id="Helvetica-33" d="M 1663 -122 
Q 869 -122 511 314 
Q 153 750 153 1375 
L 741 1375 
Q 778 941 903 744 
Q 1122 391 1694 391 
Q 2138 391 2406 628 
Q 2675 866 2675 1241 
Q 2675 1703 2392 1887 
Q 2109 2072 1606 2072 
Q 1550 2072 1492 2070 
Q 1434 2069 1375 2066 
L 1375 2563 
Q 1463 2553 1522 2550 
Q 1581 2547 1650 2547 
Q 1966 2547 2169 2647 
Q 2525 2822 2525 3272 
Q 2525 3606 2287 3787 
Q 2050 3969 1734 3969 
Q 1172 3969 956 3594 
Q 838 3388 822 3006 
L 266 3006 
Q 266 3506 466 3856 
Q 809 4481 1675 4481 
Q 2359 4481 2734 4176 
Q 3109 3872 3109 3294 
Q 3109 2881 2888 2625 
Q 2750 2466 2531 2375 
Q 2884 2278 3082 2001 
Q 3281 1725 3281 1325 
Q 3281 684 2859 281 
Q 2438 -122 1663 -122 
z
" transform="scale(0.015625)"/>
       </defs>
       <use xlink:href="#Helvetica-33"/>
       <use xlink:href="#Helvetica-30" x="55.615234"/>
      </g>
     </g>
    </g>
    <g id="ytick_5">
     <g id="line2d_5">
      <g>
       <use xlink:href="#m1f6f1e4ee2" x="8.336802" y="16.660025" style="fill: #777777; stroke: #777777; stroke-width: 0.5"/>
      </g>
     </g>
     <g id="text_7">
      <!-- 40 -->
      <g style="fill: #333333" transform="translate(3.00024 17.73604) scale(0.03 -0.03)">
       <defs>
        <path id="Helvetica-34" d="M 2116 1584 
L 2116 3613 
L 681 1584 
L 2116 1584 
z
M 2125 0 
L 2125 1094 
L 163 1094 
L 163 1644 
L 2213 4488 
L 2688 4488 
L 2688 1584 
L 3347 1584 
L 3347 1094 
L 2688 1094 
L 2688 0 
L 2125 0 
z
" transform="scale(0.015625)"/>
       </defs>
       <use xlink:href="#Helvetica-34"/>
       <use xlink:href="#Helvetica-30" x="55.615234"/>
      </g>
     </g>
    </g>
    <g id="ytick_6">
     <g id="line2d_6">
      <g>
       <use xlink:href="#m1f6f1e4ee2" x="8.336802" y="4.076256" style="fill: #777777; stroke: #777777; stroke-width: 0.5"/>
      </g>
     </g>
     <g id="text_8">
      <!-- 50 -->
      <g style="fill: #333333" transform="translate(3.00024 5.152271) scale(0.03 -0.03)">
       <defs>
        <path id="Helvetica-35" d="M 791 1141 
Q 847 659 1238 475 
Q 1438 381 1700 381 
Q 2200 381 2440 700 
Q 2681 1019 2681 1406 
Q 2681 1875 2395 2131 
Q 2109 2388 1709 2388 
Q 1419 2388 1211 2275 
Q 1003 2163 856 1963 
L 369 1991 
L 709 4400 
L 3034 4400 
L 3034 3856 
L 1131 3856 
L 941 2613 
Q 1097 2731 1238 2791 
Q 1488 2894 1816 2894 
Q 2431 2894 2859 2497 
Q 3288 2100 3288 1491 
Q 3288 856 2895 371 
Q 2503 -113 1644 -113 
Q 1097 -113 676 195 
Q 256 503 206 1141 
L 791 1141 
z
" transform="scale(0.015625)"/>
       </defs>
       <use xlink:href="#Helvetica-35"/>
       <use xlink:href="#Helvetica-30" x="55.615234"/>
      </g>
     </g>
    </g>
   </g>
   <g id="PolyCollection_1">
    <defs>
     <path id="m4e0f0a0429" d="M 21.751587 -17.146926 
L 17.333496 -17.146926 
L 16.934266 -17.223418 
L 16.496163 -17.29991 
L 16.022742 -17.376402 
L 15.519265 -17.452894 
L 14.992689 -17.529386 
L 14.451571 -17.605879 
L 13.905857 -17.682371 
L 13.366578 -17.758863 
L 12.845451 -17.835355 
L 12.354417 -17.911847 
L 11.905125 -17.988339 
L 11.508411 -18.064831 
L 11.173794 -18.141323 
L 10.909025 -18.217815 
L 10.719725 -18.294308 
L 10.609127 -18.3708 
L 10.57795 -18.447292 
L 10.624396 -18.523784 
L 10.744283 -18.600276 
L 10.931294 -18.676768 
L 11.177324 -18.75326 
L 11.472892 -18.829752 
L 11.80761 -18.906244 
L 12.17065 -18.982737 
L 12.551209 -19.059229 
L 12.93893 -19.135721 
L 13.324267 -19.212213 
L 13.698778 -19.288705 
L 14.055338 -19.365197 
L 14.388269 -19.441689 
L 14.693398 -19.518181 
L 14.968028 -19.594673 
L 15.210853 -19.671166 
L 15.421824 -19.747658 
L 15.601969 -19.82415 
L 15.753191 -19.900642 
L 15.878059 -19.977134 
L 15.979595 -20.053626 
L 16.061082 -20.130118 
L 16.125895 -20.20661 
L 16.177364 -20.283102 
L 16.218671 -20.359595 
L 16.252784 -20.436087 
L 16.282428 -20.512579 
L 16.310076 -20.589071 
L 16.337968 -20.665563 
L 16.368132 -20.742055 
L 16.402408 -20.818547 
L 16.442465 -20.895039 
L 16.489799 -20.971531 
L 16.54572 -21.048024 
L 16.611313 -21.124516 
L 16.687388 -21.201008 
L 16.774419 -21.2775 
L 16.872485 -21.353992 
L 16.98121 -21.430484 
L 17.099728 -21.506976 
L 17.226664 -21.583468 
L 17.360143 -21.659961 
L 17.497833 -21.736453 
L 17.63701 -21.812945 
L 17.774655 -21.889437 
L 17.907569 -21.965929 
L 18.032502 -22.042421 
L 18.146292 -22.118913 
L 18.245996 -22.195405 
L 18.329025 -22.271897 
L 18.393257 -22.34839 
L 18.43714 -22.424882 
L 18.459766 -22.501374 
L 18.460931 -22.577866 
L 18.441164 -22.654358 
L 18.40173 -22.73085 
L 18.34461 -22.807342 
L 18.272441 -22.883834 
L 18.188445 -22.960326 
L 18.096317 -23.036819 
L 18.000095 -23.113311 
L 17.90401 -23.189803 
L 17.812316 -23.266295 
L 17.729119 -23.342787 
L 17.658204 -23.419279 
L 17.602872 -23.495771 
L 17.565796 -23.572263 
L 17.548916 -23.648755 
L 17.553356 -23.725248 
L 17.579396 -23.80174 
L 17.626482 -23.878232 
L 17.693284 -23.954724 
L 17.777786 -24.031216 
L 17.877415 -24.107708 
L 17.989195 -24.1842 
L 18.109904 -24.260692 
L 18.236243 -24.337184 
L 18.364986 -24.413677 
L 18.493122 -24.490169 
L 18.617967 -24.566661 
L 18.73724 -24.643153 
L 18.849121 -24.719645 
L 20.235963 -24.719645 
L 20.235963 -24.719645 
L 20.347843 -24.643153 
L 20.467117 -24.566661 
L 20.591961 -24.490169 
L 20.720098 -24.413677 
L 20.848841 -24.337184 
L 20.975179 -24.260692 
L 21.095888 -24.1842 
L 21.207668 -24.107708 
L 21.307298 -24.031216 
L 21.3918 -23.954724 
L 21.458601 -23.878232 
L 21.505688 -23.80174 
L 21.531728 -23.725248 
L 21.536168 -23.648755 
L 21.519287 -23.572263 
L 21.482212 -23.495771 
L 21.426879 -23.419279 
L 21.355965 -23.342787 
L 21.272768 -23.266295 
L 21.181074 -23.189803 
L 21.084989 -23.113311 
L 20.988767 -23.036819 
L 20.896639 -22.960326 
L 20.812643 -22.883834 
L 20.740474 -22.807342 
L 20.683353 -22.73085 
L 20.64392 -22.654358 
L 20.624153 -22.577866 
L 20.625318 -22.501374 
L 20.647944 -22.424882 
L 20.691826 -22.34839 
L 20.756059 -22.271897 
L 20.839088 -22.195405 
L 20.938792 -22.118913 
L 21.052581 -22.042421 
L 21.177515 -21.965929 
L 21.310429 -21.889437 
L 21.448074 -21.812945 
L 21.587251 -21.736453 
L 21.724941 -21.659961 
L 21.85842 -21.583468 
L 21.985356 -21.506976 
L 22.103874 -21.430484 
L 22.212599 -21.353992 
L 22.310665 -21.2775 
L 22.397696 -21.201008 
L 22.473771 -21.124516 
L 22.539364 -21.048024 
L 22.595285 -20.971531 
L 22.642619 -20.895039 
L 22.682675 -20.818547 
L 22.716951 -20.742055 
L 22.747115 -20.665563 
L 22.775008 -20.589071 
L 22.802656 -20.512579 
L 22.8323 -20.436087 
L 22.866413 -20.359595 
L 22.907719 -20.283102 
L 22.959189 -20.20661 
L 23.024002 -20.130118 
L 23.105489 -20.053626 
L 23.207025 -19.977134 
L 23.331892 -19.900642 
L 23.483115 -19.82415 
L 23.66326 -19.747658 
L 23.874231 -19.671166 
L 24.117056 -19.594673 
L 24.391685 -19.518181 
L 24.696814 -19.441689 
L 25.029746 -19.365197 
L 25.386306 -19.288705 
L 25.760816 -19.212213 
L 26.146154 -19.135721 
L 26.533875 -19.059229 
L 26.914434 -18.982737 
L 27.277474 -18.906244 
L 27.612192 -18.829752 
L 27.90776 -18.75326 
L 28.153789 -18.676768 
L 28.340801 -18.600276 
L 28.460688 -18.523784 
L 28.507133 -18.447292 
L 28.475956 -18.3708 
L 28.365359 -18.294308 
L 28.176059 -18.217815 
L 27.91129 -18.141323 
L 27.576672 -18.064831 
L 27.179959 -17.988339 
L 26.730667 -17.911847 
L 26.239633 -17.835355 
L 25.718506 -17.758863 
L 25.179227 -17.682371 
L 24.633513 -17.605879 
L 24.092395 -17.529386 
L 23.565819 -17.452894 
L 23.062341 -17.376402 
L 22.588921 -17.29991 
L 22.150818 -17.223418 
L 21.751587 -17.146926 
z
" style="stroke: #717171; stroke-width: 0.15"/>
    </defs>
    <g clip-path="url(#p230b785521)">
     <use xlink:href="#m4e0f0a0429" x="0" y="84.96" style="fill: #d6bba3; stroke: #717171; stroke-width: 0.15"/>
    </g>
   </g>
   <g id="PolyCollection_2">
    <defs>
     <path id="m43c4102739" d="M 43.388473 -13.412802 
L 40.519568 -13.412802 
L 40.23899 -13.806333 
L 39.929669 -14.199865 
L 39.594633 -14.593397 
L 39.238216 -14.986929 
L 38.865931 -15.38046 
L 38.484227 -15.773992 
L 38.100146 -16.167524 
L 37.720884 -16.561056 
L 37.353296 -16.954587 
L 37.003396 -17.348119 
L 36.675889 -17.741651 
L 36.373803 -18.135183 
L 36.098249 -18.528715 
L 35.848373 -18.922246 
L 35.621487 -19.315778 
L 35.413402 -19.70931 
L 35.218934 -20.102842 
L 35.032517 -20.496373 
L 34.848887 -20.889905 
L 34.663744 -21.283437 
L 34.474314 -21.676969 
L 34.279763 -22.0705 
L 34.081382 -22.464032 
L 33.882541 -22.857564 
L 33.688402 -23.251096 
L 33.50542 -23.644628 
L 33.340697 -24.038159 
L 33.201255 -24.431691 
L 33.093323 -24.825223 
L 33.021725 -25.218755 
L 32.989429 -25.612286 
L 32.997325 -26.005818 
L 33.044245 -26.39935 
L 33.12722 -26.792882 
L 33.241935 -27.186413 
L 33.383321 -27.579945 
L 33.546203 -27.973477 
L 33.725921 -28.367009 
L 33.918843 -28.760541 
L 34.122715 -29.154072 
L 34.336802 -29.547604 
L 34.561811 -29.941136 
L 34.799621 -30.334668 
L 35.052852 -30.728199 
L 35.324345 -31.121731 
L 35.616607 -31.515263 
L 35.931313 -31.908795 
L 36.268899 -32.302326 
L 36.628308 -32.695858 
L 37.006909 -33.08939 
L 37.400578 -33.482922 
L 37.803936 -33.876454 
L 38.2107 -34.269985 
L 38.614105 -34.663517 
L 39.007344 -35.057049 
L 39.383986 -35.450581 
L 39.73832 -35.844112 
L 40.065618 -36.237644 
L 40.362284 -36.631176 
L 40.625894 -37.024708 
L 40.855142 -37.418239 
L 41.049707 -37.811771 
L 41.210064 -38.205303 
L 41.337264 -38.598835 
L 41.432723 -38.992367 
L 41.498022 -39.385898 
L 41.534754 -39.77943 
L 41.544417 -40.172962 
L 41.528374 -40.566494 
L 41.487866 -40.960025 
L 41.424077 -41.353557 
L 41.338246 -41.747089 
L 41.231807 -42.140621 
L 41.106532 -42.534152 
L 40.964677 -42.927684 
L 40.809088 -43.321216 
L 40.643274 -43.714748 
L 40.471408 -44.10828 
L 40.298273 -44.501811 
L 40.12913 -44.895343 
L 39.969517 -45.288875 
L 39.825005 -45.682407 
L 39.700907 -46.075938 
L 39.601981 -46.46947 
L 39.532142 -46.863002 
L 39.494223 -47.256534 
L 39.489786 -47.650065 
L 39.519025 -48.043597 
L 39.580755 -48.437129 
L 39.672491 -48.830661 
L 39.790621 -49.224193 
L 39.930637 -49.617724 
L 40.087424 -50.011256 
L 40.255569 -50.404788 
L 40.429665 -50.79832 
L 40.604591 -51.191851 
L 40.775752 -51.585383 
L 40.939247 -51.978915 
L 41.091987 -52.372447 
L 42.816054 -52.372447 
L 42.816054 -52.372447 
L 42.968794 -51.978915 
L 43.132289 -51.585383 
L 43.30345 -51.191851 
L 43.478377 -50.79832 
L 43.652472 -50.404788 
L 43.820617 -50.011256 
L 43.977405 -49.617724 
L 44.117421 -49.224193 
L 44.23555 -48.830661 
L 44.327287 -48.437129 
L 44.389016 -48.043597 
L 44.418255 -47.650065 
L 44.413819 -47.256534 
L 44.375899 -46.863002 
L 44.306061 -46.46947 
L 44.207134 -46.075938 
L 44.083036 -45.682407 
L 43.938524 -45.288875 
L 43.778912 -44.895343 
L 43.609768 -44.501811 
L 43.436634 -44.10828 
L 43.264768 -43.714748 
L 43.098953 -43.321216 
L 42.943364 -42.927684 
L 42.801509 -42.534152 
L 42.676234 -42.140621 
L 42.569795 -41.747089 
L 42.483965 -41.353557 
L 42.420176 -40.960025 
L 42.379667 -40.566494 
L 42.363625 -40.172962 
L 42.373288 -39.77943 
L 42.410019 -39.385898 
L 42.475318 -38.992367 
L 42.570777 -38.598835 
L 42.697978 -38.205303 
L 42.858334 -37.811771 
L 43.052899 -37.418239 
L 43.282148 -37.024708 
L 43.545757 -36.631176 
L 43.842423 -36.237644 
L 44.169722 -35.844112 
L 44.524056 -35.450581 
L 44.900697 -35.057049 
L 45.293937 -34.663517 
L 45.697342 -34.269985 
L 46.104106 -33.876454 
L 46.507464 -33.482922 
L 46.901132 -33.08939 
L 47.279733 -32.695858 
L 47.639143 -32.302326 
L 47.976728 -31.908795 
L 48.291434 -31.515263 
L 48.583696 -31.121731 
L 48.855189 -30.728199 
L 49.108421 -30.334668 
L 49.346231 -29.941136 
L 49.571239 -29.547604 
L 49.785326 -29.154072 
L 49.989198 -28.760541 
L 50.18212 -28.367009 
L 50.361838 -27.973477 
L 50.52472 -27.579945 
L 50.666106 -27.186413 
L 50.780821 -26.792882 
L 50.863796 -26.39935 
L 50.910716 -26.005818 
L 50.918612 -25.612286 
L 50.886316 -25.218755 
L 50.814718 -24.825223 
L 50.706786 -24.431691 
L 50.567344 -24.038159 
L 50.402621 -23.644628 
L 50.21964 -23.251096 
L 50.025501 -22.857564 
L 49.82666 -22.464032 
L 49.628278 -22.0705 
L 49.433727 -21.676969 
L 49.244298 -21.283437 
L 49.059154 -20.889905 
L 48.875525 -20.496373 
L 48.689108 -20.102842 
L 48.494639 -19.70931 
L 48.286555 -19.315778 
L 48.059668 -18.922246 
L 47.809792 -18.528715 
L 47.534239 -18.135183 
L 47.232152 -17.741651 
L 46.904646 -17.348119 
L 46.554745 -16.954587 
L 46.187157 -16.561056 
L 45.807895 -16.167524 
L 45.423814 -15.773992 
L 45.042111 -15.38046 
L 44.669825 -14.986929 
L 44.313408 -14.593397 
L 43.978372 -14.199865 
L 43.669051 -13.806333 
L 43.388473 -13.412802 
z
" style="stroke: #717171; stroke-width: 0.15"/>
    </defs>
    <g clip-path="url(#p230b785521)">
     <use xlink:href="#m43c4102739" x="0" y="84.96" style="fill: #f1b9e0; stroke: #717171; stroke-width: 0.15"/>
    </g>
   </g>
   <g id="line2d_7">
    <path d="M 19.542542 66.777469 
L 19.542542 61.27596 
" clip-path="url(#p230b785521)" style="fill: none; stroke: #8c8c8c; stroke-width: 0.75; stroke-linecap: round"/>
   </g>
   <g id="line2d_8">
    <path d="M 19.542542 66.681294 
L 19.542542 64.398074 
" clip-path="url(#p230b785521)" style="fill: none; stroke: #8c8c8c; stroke-width: 4; stroke-linecap: round"/>
   </g>
   <g id="line2d_9">
    <path d="M 19.542542 66.12728 
" clip-path="url(#p230b785521)" style="fill: none; stroke: #717171; stroke-width: 1.2; stroke-linecap: round"/>
    <defs>
     <path id="m78140efd5c" d="M 0 0.833333 
C 0.221003 0.833333 0.432983 0.745528 0.589256 0.589256 
C 0.745528 0.432983 0.833333 0.221003 0.833333 0 
C 0.833333 -0.221003 0.745528 -0.432983 0.589256 -0.589256 
C 0.432983 -0.745528 0.221003 -0.833333 0 -0.833333 
C -0.221003 -0.833333 -0.432983 -0.745528 -0.589256 -0.589256 
C -0.745528 -0.432983 -0.833333 -0.221003 -0.833333 0 
C -0.833333 0.221003 -0.745528 0.432983 -0.589256 0.589256 
C -0.432983 0.745528 -0.221003 0.833333 0 0.833333 
z
" style="stroke: #ffffff; stroke-width: 0.8"/>
    </defs>
    <g clip-path="url(#p230b785521)">
     <use xlink:href="#m78140efd5c" x="19.542542" y="66.12728" style="fill: #ffffff; stroke: #ffffff; stroke-width: 0.8"/>
    </g>
   </g>
   <g id="line2d_10">
    <path d="M 41.954021 66.680106 
L 41.954021 53.06586 
" clip-path="url(#p230b785521)" style="fill: none; stroke: #8c8c8c; stroke-width: 0.75; stroke-linecap: round"/>
   </g>
   <g id="line2d_11">
    <path d="M 41.954021 61.768581 
L 41.954021 53.655287 
" clip-path="url(#p230b785521)" style="fill: none; stroke: #8c8c8c; stroke-width: 4; stroke-linecap: round"/>
   </g>
   <g id="line2d_12">
    <path d="M 41.954021 59.16798 
" clip-path="url(#p230b785521)" style="fill: none; stroke: #717171; stroke-width: 1.2; stroke-linecap: round"/>
    <g clip-path="url(#p230b785521)">
     <use xlink:href="#m78140efd5c" x="41.954021" y="59.16798" style="fill: #ffffff; stroke: #ffffff; stroke-width: 0.8"/>
    </g>
   </g>
   <g id="patch_3">
    <path d="M 8.336802 74.419526 
L 8.336802 4.076256 
" style="fill: none; stroke: #777777; stroke-width: 0.5; stroke-linejoin: miter; stroke-linecap: square"/>
   </g>
   <g id="patch_4">
    <path d="M 8.336802 76.919526 
L 53.15976 76.919526 
" style="fill: none; stroke: #777777; stroke-width: 0.5; stroke-linejoin: miter; stroke-linecap: square"/>
   </g>
  </g>
 </g>
 <defs>
  <clipPath id="p230b785521">
   <rect x="8.336802" y="4.076256" width="44.822958" height="70.34327"/>
  </clipPath>
 </defs>
</svg>
