<?xml version="1.0" encoding="utf-8" standalone="no"?>
<!DOCTYPE svg PUBLIC "-//W3C//DTD SVG 1.1//EN"
  "http://www.w3.org/Graphics/SVG/1.1/DTD/svg11.dtd">
<svg xmlns:xlink="http://www.w3.org/1999/xlink" width="141.12pt" height="84.96pt" viewBox="0 0 141.12 84.96" xmlns="http://www.w3.org/2000/svg" version="1.1">
 <metadata>
  <rdf:RDF xmlns:dc="http://purl.org/dc/elements/1.1/" xmlns:cc="http://creativecommons.org/ns#" xmlns:rdf="http://www.w3.org/1999/02/22-rdf-syntax-ns#">
   <cc:Work>
    <dc:type rdf:resource="http://purl.org/dc/dcmitype/StillImage"/>
    <dc:date>2024-05-27T15:37:15.737176</dc:date>
    <dc:format>image/svg+xml</dc:format>
    <dc:creator>
     <cc:Agent>
      <dc:title>Matplotlib v3.8.3, https://matplotlib.org/</dc:title>
     </cc:Agent>
    </dc:creator>
   </cc:Work>
  </rdf:RDF>
 </metadata>
 <defs>
  <style type="text/css">*{stroke-linejoin: round; stroke-linecap: butt}</style>
 </defs>
 <g id="figure_1">
  <g id="patch_1">
   <path d="M 0 84.96 
L 141.12 84.96 
L 141.12 0 
L 0 0 
z
" style="fill: #ffffff"/>
  </g>
  <g id="axes_1">
   <g id="patch_2">
    <path d="M 10.005084 74.419526 
L 138.11976 74.419526 
L 138.11976 4.076256 
L 10.005084 4.076256 
z
" style="fill: #ffffff"/>
   </g>
   <g id="matplotlib.axis_1">
    <g id="xtick_1">
     <g id="text_1">
      <!-- NK/ILC1ie -->
      <g style="fill: #333333" transform="translate(14.840926 81.230229) scale(0.035 -0.035)">
       <defs>
        <path id="Helvetica-4e" d="M 488 4591 
L 1222 4591 
L 3541 872 
L 3541 4591 
L 4131 4591 
L 4131 0 
L 3434 0 
L 1081 3716 
L 1081 0 
L 488 0 
L 488 4591 
z
M 2269 4591 
L 2269 4591 
z
" transform="scale(0.015625)"/>
        <path id="Helvetica-4b" d="M 488 4591 
L 1094 4591 
L 1094 2353 
L 3331 4591 
L 4191 4591 
L 2281 2741 
L 4244 0 
L 3434 0 
L 1828 2303 
L 1094 1600 
L 1094 0 
L 488 0 
L 488 4591 
z
" transform="scale(0.015625)"/>
        <path id="Helvetica-2f" d="M 1456 4591 
L 1931 4591 
L 475 0 
L 0 0 
L 1456 4591 
z
" transform="scale(0.015625)"/>
        <path id="Helvetica-49" d="M 628 4591 
L 1256 4591 
L 1256 0 
L 628 0 
L 628 4591 
z
" transform="scale(0.015625)"/>
        <path id="Helvetica-4c" d="M 488 4591 
L 1109 4591 
L 1109 547 
L 3434 547 
L 3434 0 
L 488 0 
L 488 4591 
z
" transform="scale(0.015625)"/>
        <path id="Helvetica-43" d="M 2422 4716 
Q 3294 4716 3775 4256 
Q 4256 3797 4309 3213 
L 3703 3213 
Q 3600 3656 3292 3915 
Q 2984 4175 2428 4175 
Q 1750 4175 1333 3698 
Q 916 3222 916 2238 
Q 916 1431 1292 929 
Q 1669 428 2416 428 
Q 3103 428 3463 956 
Q 3653 1234 3747 1688 
L 4353 1688 
Q 4272 963 3816 472 
Q 3269 -119 2341 -119 
Q 1541 -119 997 366 
Q 281 1006 281 2344 
Q 281 3359 819 4009 
Q 1400 4716 2422 4716 
z
M 2297 4716 
L 2297 4716 
z
" transform="scale(0.015625)"/>
        <path id="Helvetica-31" d="M 613 3169 
L 613 3600 
Q 1222 3659 1462 3798 
Q 1703 3938 1822 4456 
L 2266 4456 
L 2266 0 
L 1666 0 
L 1666 3169 
L 613 3169 
z
" transform="scale(0.015625)"/>
        <path id="Helvetica-69" d="M 413 3331 
L 984 3331 
L 984 0 
L 413 0 
L 413 3331 
z
M 413 4591 
L 984 4591 
L 984 3953 
L 413 3953 
L 413 4591 
z
" transform="scale(0.015625)"/>
        <path id="Helvetica-65" d="M 1806 3422 
Q 2163 3422 2497 3255 
Q 2831 3088 3006 2822 
Q 3175 2569 3231 2231 
Q 3281 2000 3281 1494 
L 828 1494 
Q 844 984 1069 676 
Q 1294 369 1766 369 
Q 2206 369 2469 659 
Q 2619 828 2681 1050 
L 3234 1050 
Q 3213 866 3089 639 
Q 2966 413 2813 269 
Q 2556 19 2178 -69 
Q 1975 -119 1719 -119 
Q 1094 -119 659 336 
Q 225 791 225 1609 
Q 225 2416 662 2919 
Q 1100 3422 1806 3422 
z
M 2703 1941 
Q 2669 2306 2544 2525 
Q 2313 2931 1772 2931 
Q 1384 2931 1121 2651 
Q 859 2372 844 1941 
L 2703 1941 
z
M 1753 3428 
L 1753 3428 
z
" transform="scale(0.015625)"/>
       </defs>
       <use xlink:href="#Helvetica-4e"/>
       <use xlink:href="#Helvetica-4b" x="72.216797"/>
       <use xlink:href="#Helvetica-2f" x="138.916016"/>
       <use xlink:href="#Helvetica-49" x="166.699219"/>
       <use xlink:href="#Helvetica-4c" x="194.482422"/>
       <use xlink:href="#Helvetica-43" x="250.097656"/>
       <use xlink:href="#Helvetica-31" x="322.314453"/>
       <use xlink:href="#Helvetica-69" x="377.929688"/>
       <use xlink:href="#Helvetica-65" x="400.146484"/>
      </g>
     </g>
    </g>
    <g id="xtick_2">
     <g id="text_2">
      <!-- ILC1 -->
      <g style="fill: #333333" transform="translate(44.743158 81.230229) scale(0.035 -0.035)">
       <use xlink:href="#Helvetica-49"/>
       <use xlink:href="#Helvetica-4c" x="27.783203"/>
       <use xlink:href="#Helvetica-43" x="83.398438"/>
       <use xlink:href="#Helvetica-31" x="155.615234"/>
      </g>
     </g>
    </g>
    <g id="xtick_3">
     <g id="text_3">
      <!-- TH1 -->
      <g style="fill: #333333" transform="translate(70.756563 81.230229) scale(0.035 -0.035)">
       <defs>
        <path id="Helvetica-54" d="M 3828 4591 
L 3828 4044 
L 2281 4044 
L 2281 0 
L 1650 0 
L 1650 4044 
L 103 4044 
L 103 4591 
L 3828 4591 
z
" transform="scale(0.015625)"/>
        <path id="Helvetica-48" d="M 503 4591 
L 1131 4591 
L 1131 2694 
L 3519 2694 
L 3519 4591 
L 4147 4591 
L 4147 0 
L 3519 0 
L 3519 2147 
L 1131 2147 
L 1131 0 
L 503 0 
L 503 4591 
z
" transform="scale(0.015625)"/>
       </defs>
       <use xlink:href="#Helvetica-54"/>
       <use xlink:href="#Helvetica-48" x="61.083984"/>
       <use xlink:href="#Helvetica-31" x="133.300781"/>
      </g>
     </g>
    </g>
    <g id="xtick_4">
     <g id="text_4">
      <!-- icCD3+ NK/ILC1ie -->
      <g style="fill: #333333" transform="translate(85.436802 81.230229) scale(0.035 -0.035)">
       <defs>
        <path id="Helvetica-63" d="M 1703 3444 
Q 2269 3444 2623 3169 
Q 2978 2894 3050 2222 
L 2503 2222 
Q 2453 2531 2275 2736 
Q 2097 2941 1703 2941 
Q 1166 2941 934 2416 
Q 784 2075 784 1575 
Q 784 1072 996 728 
Q 1209 384 1666 384 
Q 2016 384 2220 598 
Q 2425 813 2503 1184 
L 3050 1184 
Q 2956 519 2581 211 
Q 2206 -97 1622 -97 
Q 966 -97 575 383 
Q 184 863 184 1581 
Q 184 2463 612 2953 
Q 1041 3444 1703 3444 
z
M 1616 3428 
L 1616 3428 
z
" transform="scale(0.015625)"/>
        <path id="Helvetica-44" d="M 2250 531 
Q 2566 531 2769 597 
Q 3131 719 3363 1066 
Q 3547 1344 3628 1778 
Q 3675 2038 3675 2259 
Q 3675 3113 3336 3584 
Q 2997 4056 2244 4056 
L 1141 4056 
L 1141 531 
L 2250 531 
z
M 516 4591 
L 2375 4591 
Q 3322 4591 3844 3919 
Q 4309 3313 4309 2366 
Q 4309 1634 4034 1044 
Q 3550 0 2369 0 
L 516 0 
L 516 4591 
z
" transform="scale(0.015625)"/>
        <path id="Helvetica-33" d="M 1663 -122 
Q 869 -122 511 314 
Q 153 750 153 1375 
L 741 1375 
Q 778 941 903 744 
Q 1122 391 1694 391 
Q 2138 391 2406 628 
Q 2675 866 2675 1241 
Q 2675 1703 2392 1887 
Q 2109 2072 1606 2072 
Q 1550 2072 1492 2070 
Q 1434 2069 1375 2066 
L 1375 2563 
Q 1463 2553 1522 2550 
Q 1581 2547 1650 2547 
Q 1966 2547 2169 2647 
Q 2525 2822 2525 3272 
Q 2525 3606 2287 3787 
Q 2050 3969 1734 3969 
Q 1172 3969 956 3594 
Q 838 3388 822 3006 
L 266 3006 
Q 266 3506 466 3856 
Q 809 4481 1675 4481 
Q 2359 4481 2734 4176 
Q 3109 3872 3109 3294 
Q 3109 2881 2888 2625 
Q 2750 2466 2531 2375 
Q 2884 2278 3082 2001 
Q 3281 1725 3281 1325 
Q 3281 684 2859 281 
Q 2438 -122 1663 -122 
z
" transform="scale(0.015625)"/>
        <path id="Helvetica-2b" d="M 288 1369 
L 288 1894 
L 1650 1894 
L 1650 3266 
L 2184 3266 
L 2184 1894 
L 3547 1894 
L 3547 1369 
L 2184 1369 
L 2184 0 
L 1650 0 
L 1650 1369 
L 288 1369 
z
" transform="scale(0.015625)"/>
        <path id="Helvetica-20" transform="scale(0.015625)"/>
       </defs>
       <use xlink:href="#Helvetica-69"/>
       <use xlink:href="#Helvetica-63" x="22.216797"/>
       <use xlink:href="#Helvetica-43" x="72.216797"/>
       <use xlink:href="#Helvetica-44" x="144.433594"/>
       <use xlink:href="#Helvetica-33" x="216.650391"/>
       <use xlink:href="#Helvetica-2b" x="272.265625"/>
       <use xlink:href="#Helvetica-20" x="330.664062"/>
       <use xlink:href="#Helvetica-4e" x="358.447266"/>
       <use xlink:href="#Helvetica-4b" x="430.664062"/>
       <use xlink:href="#Helvetica-2f" x="497.363281"/>
       <use xlink:href="#Helvetica-49" x="525.146484"/>
       <use xlink:href="#Helvetica-4c" x="552.929688"/>
       <use xlink:href="#Helvetica-43" x="608.544922"/>
       <use xlink:href="#Helvetica-31" x="680.761719"/>
       <use xlink:href="#Helvetica-69" x="736.376953"/>
       <use xlink:href="#Helvetica-65" x="758.59375"/>
      </g>
     </g>
    </g>
    <g id="xtick_5">
     <g id="text_5">
      <!-- icCD3+ ILC1 -->
      <g style="fill: #333333" transform="translate(115.339035 81.230229) scale(0.035 -0.035)">
       <use xlink:href="#Helvetica-69"/>
       <use xlink:href="#Helvetica-63" x="22.216797"/>
       <use xlink:href="#Helvetica-43" x="72.216797"/>
       <use xlink:href="#Helvetica-44" x="144.433594"/>
       <use xlink:href="#Helvetica-33" x="216.650391"/>
       <use xlink:href="#Helvetica-2b" x="272.265625"/>
       <use xlink:href="#Helvetica-20" x="330.664062"/>
       <use xlink:href="#Helvetica-49" x="358.447266"/>
       <use xlink:href="#Helvetica-4c" x="386.230469"/>
       <use xlink:href="#Helvetica-43" x="441.845703"/>
       <use xlink:href="#Helvetica-31" x="514.0625"/>
      </g>
     </g>
    </g>
   </g>
   <g id="matplotlib.axis_2">
    <g id="ytick_1">
     <g id="line2d_1">
      <defs>
       <path id="md3a5ddd7f0" d="M 0 0 
L -1 0 
" style="stroke: #777777; stroke-width: 0.5"/>
      </defs>
      <g>
       <use xlink:href="#md3a5ddd7f0" x="10.005084" y="65.703651" style="fill: #777777; stroke: #777777; stroke-width: 0.5"/>
      </g>
     </g>
     <g id="text_6">
      <!-- 0 -->
      <g style="fill: #333333" transform="translate(6.336803 66.779667) scale(0.03 -0.03)">
       <defs>
        <path id="Helvetica-30" d="M 1731 4475 
Q 2600 4475 2988 3759 
Q 3288 3206 3288 2244 
Q 3288 1331 3016 734 
Q 2622 -122 1728 -122 
Q 922 -122 528 578 
Q 200 1163 200 2147 
Q 200 2909 397 3456 
Q 766 4475 1731 4475 
z
M 1725 391 
Q 2163 391 2422 778 
Q 2681 1166 2681 2222 
Q 2681 2984 2493 3476 
Q 2306 3969 1766 3969 
Q 1269 3969 1039 3501 
Q 809 3034 809 2125 
Q 809 1441 956 1025 
Q 1181 391 1725 391 
z
" transform="scale(0.015625)"/>
       </defs>
       <use xlink:href="#Helvetica-30"/>
      </g>
     </g>
    </g>
    <g id="ytick_2">
     <g id="line2d_2">
      <g>
       <use xlink:href="#md3a5ddd7f0" x="10.005084" y="56.899737" style="fill: #777777; stroke: #777777; stroke-width: 0.5"/>
      </g>
     </g>
     <g id="text_7">
      <!-- 100 -->
      <g style="fill: #333333" transform="translate(3.00024 57.975753) scale(0.03 -0.03)">
       <use xlink:href="#Helvetica-31"/>
       <use xlink:href="#Helvetica-30" x="55.615234"/>
       <use xlink:href="#Helvetica-30" x="111.230469"/>
      </g>
     </g>
    </g>
    <g id="ytick_3">
     <g id="line2d_3">
      <g>
       <use xlink:href="#md3a5ddd7f0" x="10.005084" y="48.095824" style="fill: #777777; stroke: #777777; stroke-width: 0.5"/>
      </g>
     </g>
     <g id="text_8">
      <!-- 200 -->
      <g style="fill: #333333" transform="translate(3.00024 49.171839) scale(0.03 -0.03)">
       <defs>
        <path id="Helvetica-32" d="M 200 0 
Q 231 578 439 1006 
Q 647 1434 1250 1784 
L 1850 2131 
Q 2253 2366 2416 2531 
Q 2672 2791 2672 3125 
Q 2672 3516 2437 3745 
Q 2203 3975 1813 3975 
Q 1234 3975 1013 3538 
Q 894 3303 881 2888 
L 309 2888 
Q 319 3472 525 3841 
Q 891 4491 1816 4491 
Q 2584 4491 2939 4075 
Q 3294 3659 3294 3150 
Q 3294 2613 2916 2231 
Q 2697 2009 2131 1694 
L 1703 1456 
Q 1397 1288 1222 1134 
Q 909 863 828 531 
L 3272 531 
L 3272 0 
L 200 0 
z
" transform="scale(0.015625)"/>
       </defs>
       <use xlink:href="#Helvetica-32"/>
       <use xlink:href="#Helvetica-30" x="55.615234"/>
       <use xlink:href="#Helvetica-30" x="111.230469"/>
      </g>
     </g>
    </g>
    <g id="ytick_4">
     <g id="line2d_4">
      <g>
       <use xlink:href="#md3a5ddd7f0" x="10.005084" y="39.29191" style="fill: #777777; stroke: #777777; stroke-width: 0.5"/>
      </g>
     </g>
     <g id="text_9">
      <!-- 300 -->
      <g style="fill: #333333" transform="translate(3.00024 40.367926) scale(0.03 -0.03)">
       <use xlink:href="#Helvetica-33"/>
       <use xlink:href="#Helvetica-30" x="55.615234"/>
       <use xlink:href="#Helvetica-30" x="111.230469"/>
      </g>
     </g>
    </g>
    <g id="ytick_5">
     <g id="line2d_5">
      <g>
       <use xlink:href="#md3a5ddd7f0" x="10.005084" y="30.487997" style="fill: #777777; stroke: #777777; stroke-width: 0.5"/>
      </g>
     </g>
     <g id="text_10">
      <!-- 400 -->
      <g style="fill: #333333" transform="translate(3.00024 31.564012) scale(0.03 -0.03)">
       <defs>
        <path id="Helvetica-34" d="M 2116 1584 
L 2116 3613 
L 681 1584 
L 2116 1584 
z
M 2125 0 
L 2125 1094 
L 163 1094 
L 163 1644 
L 2213 4488 
L 2688 4488 
L 2688 1584 
L 3347 1584 
L 3347 1094 
L 2688 1094 
L 2688 0 
L 2125 0 
z
" transform="scale(0.015625)"/>
       </defs>
       <use xlink:href="#Helvetica-34"/>
       <use xlink:href="#Helvetica-30" x="55.615234"/>
       <use xlink:href="#Helvetica-30" x="111.230469"/>
      </g>
     </g>
    </g>
    <g id="ytick_6">
     <g id="line2d_6">
      <g>
       <use xlink:href="#md3a5ddd7f0" x="10.005084" y="21.684083" style="fill: #777777; stroke: #777777; stroke-width: 0.5"/>
      </g>
     </g>
     <g id="text_11">
      <!-- 500 -->
      <g style="fill: #333333" transform="translate(3.00024 22.760099) scale(0.03 -0.03)">
       <defs>
        <path id="Helvetica-35" d="M 791 1141 
Q 847 659 1238 475 
Q 1438 381 1700 381 
Q 2200 381 2440 700 
Q 2681 1019 2681 1406 
Q 2681 1875 2395 2131 
Q 2109 2388 1709 2388 
Q 1419 2388 1211 2275 
Q 1003 2163 856 1963 
L 369 1991 
L 709 4400 
L 3034 4400 
L 3034 3856 
L 1131 3856 
L 941 2613 
Q 1097 2731 1238 2791 
Q 1488 2894 1816 2894 
Q 2431 2894 2859 2497 
Q 3288 2100 3288 1491 
Q 3288 856 2895 371 
Q 2503 -113 1644 -113 
Q 1097 -113 676 195 
Q 256 503 206 1141 
L 791 1141 
z
" transform="scale(0.015625)"/>
       </defs>
       <use xlink:href="#Helvetica-35"/>
       <use xlink:href="#Helvetica-30" x="55.615234"/>
       <use xlink:href="#Helvetica-30" x="111.230469"/>
      </g>
     </g>
    </g>
    <g id="ytick_7">
     <g id="line2d_7">
      <g>
       <use xlink:href="#md3a5ddd7f0" x="10.005084" y="12.880169" style="fill: #777777; stroke: #777777; stroke-width: 0.5"/>
      </g>
     </g>
     <g id="text_12">
      <!-- 600 -->
      <g style="fill: #333333" transform="translate(3.00024 13.956185) scale(0.03 -0.03)">
       <defs>
        <path id="Helvetica-36" d="M 1872 4494 
Q 2622 4494 2917 4105 
Q 3213 3716 3213 3303 
L 2656 3303 
Q 2606 3569 2497 3719 
Q 2294 4000 1881 4000 
Q 1409 4000 1131 3564 
Q 853 3128 822 2316 
Q 1016 2600 1309 2741 
Q 1578 2866 1909 2866 
Q 2472 2866 2890 2506 
Q 3309 2147 3309 1434 
Q 3309 825 2912 354 
Q 2516 -116 1781 -116 
Q 1153 -116 697 361 
Q 241 838 241 1966 
Q 241 2800 444 3381 
Q 834 4494 1872 4494 
z
M 1831 384 
Q 2275 384 2495 682 
Q 2716 981 2716 1388 
Q 2716 1731 2519 2042 
Q 2322 2353 1803 2353 
Q 1441 2353 1167 2112 
Q 894 1872 894 1388 
Q 894 963 1142 673 
Q 1391 384 1831 384 
z
" transform="scale(0.015625)"/>
       </defs>
       <use xlink:href="#Helvetica-36"/>
       <use xlink:href="#Helvetica-30" x="55.615234"/>
       <use xlink:href="#Helvetica-30" x="111.230469"/>
      </g>
     </g>
    </g>
    <g id="ytick_8">
     <g id="line2d_8">
      <g>
       <use xlink:href="#md3a5ddd7f0" x="10.005084" y="4.076256" style="fill: #777777; stroke: #777777; stroke-width: 0.5"/>
      </g>
     </g>
     <g id="text_13">
      <!-- 700 -->
      <g style="fill: #333333" transform="translate(3.00024 5.152271) scale(0.03 -0.03)">
       <defs>
        <path id="Helvetica-37" d="M 3347 4400 
L 3347 3909 
Q 3131 3700 2773 3181 
Q 2416 2663 2141 2063 
Q 1869 1478 1728 997 
Q 1638 688 1494 0 
L 872 0 
Q 1084 1281 1809 2550 
Q 2238 3294 2709 3834 
L 234 3834 
L 234 4400 
L 3347 4400 
z
" transform="scale(0.015625)"/>
       </defs>
       <use xlink:href="#Helvetica-37"/>
       <use xlink:href="#Helvetica-30" x="55.615234"/>
       <use xlink:href="#Helvetica-30" x="111.230469"/>
      </g>
     </g>
    </g>
   </g>
   <g id="PolyCollection_1">
    <defs>
     <path id="m7e272aca4c" d="M 25.202189 -19.160663 
L 20.430913 -19.160663 
L 19.981946 -19.167863 
L 19.48584 -19.175062 
L 18.946158 -19.182261 
L 18.368536 -19.18946 
L 17.760726 -19.19666 
L 17.132518 -19.203859 
L 16.495532 -19.211058 
L 15.862885 -19.218258 
L 15.248729 -19.225457 
L 14.667692 -19.232656 
L 14.134256 -19.239855 
L 13.662091 -19.247055 
L 13.263417 -19.254254 
L 12.948415 -19.261453 
L 12.724739 -19.268653 
L 12.59716 -19.275852 
L 12.567377 -19.283051 
L 12.633984 -19.29025 
L 12.792611 -19.29745 
L 13.036219 -19.304649 
L 13.355509 -19.311848 
L 13.739433 -19.319048 
L 14.175742 -19.326247 
L 14.651555 -19.333446 
L 15.153896 -19.340645 
L 15.670178 -19.347845 
L 16.188609 -19.355044 
L 16.69851 -19.362243 
L 17.190548 -19.369443 
L 17.656877 -19.376642 
L 18.091208 -19.383841 
L 18.488821 -19.39104 
L 18.846528 -19.39824 
L 19.162605 -19.405439 
L 19.4367 -19.412638 
L 19.669725 -19.419838 
L 19.863733 -19.427037 
L 20.021782 -19.434236 
L 20.147784 -19.441435 
L 20.246331 -19.448635 
L 20.322511 -19.455834 
L 20.381703 -19.463033 
L 20.429355 -19.470233 
L 20.470771 -19.477432 
L 20.510891 -19.484631 
L 20.554096 -19.49183 
L 20.604042 -19.49903 
L 20.663528 -19.506229 
L 20.734419 -19.513428 
L 20.817619 -19.520627 
L 20.913096 -19.527827 
L 21.019959 -19.535026 
L 21.136572 -19.542225 
L 21.260704 -19.549425 
L 21.389696 -19.556624 
L 21.520632 -19.563823 
L 21.650503 -19.571022 
L 21.776354 -19.578222 
L 21.895405 -19.585421 
L 22.005139 -19.59262 
L 22.103365 -19.59982 
L 22.18824 -19.607019 
L 22.258279 -19.614218 
L 22.312337 -19.621417 
L 22.34959 -19.628617 
L 22.369503 -19.635816 
L 22.371811 -19.643015 
L 22.356508 -19.650215 
L 22.323849 -19.657414 
L 22.274362 -19.664613 
L 22.208877 -19.671812 
L 22.12856 -19.679012 
L 22.034944 -19.686211 
L 21.92996 -19.69341 
L 21.815948 -19.70061 
L 21.695646 -19.707809 
L 21.57216 -19.715008 
L 21.448891 -19.722207 
L 21.32944 -19.729407 
L 21.217484 -19.736606 
L 21.116629 -19.743805 
L 21.03025 -19.751005 
L 20.96133 -19.758204 
L 20.912314 -19.765403 
L 20.884978 -19.772602 
L 20.880334 -19.779802 
L 20.898582 -19.787001 
L 20.939099 -19.7942 
L 21.00048 -19.8014 
L 21.080626 -19.808599 
L 21.176858 -19.815798 
L 21.286075 -19.822997 
L 21.404916 -19.830197 
L 21.529932 -19.837396 
L 21.65775 -19.844595 
L 21.785218 -19.851795 
L 21.909524 -19.858994 
L 22.028286 -19.866193 
L 22.139602 -19.873392 
L 23.4935 -19.873392 
L 23.4935 -19.873392 
L 23.604817 -19.866193 
L 23.723578 -19.858994 
L 23.847884 -19.851795 
L 23.975352 -19.844595 
L 24.103171 -19.837396 
L 24.228187 -19.830197 
L 24.347028 -19.822997 
L 24.456245 -19.815798 
L 24.552477 -19.808599 
L 24.632622 -19.8014 
L 24.694004 -19.7942 
L 24.734521 -19.787001 
L 24.752769 -19.779802 
L 24.748125 -19.772602 
L 24.720788 -19.765403 
L 24.671772 -19.758204 
L 24.602853 -19.751005 
L 24.516474 -19.743805 
L 24.415619 -19.736606 
L 24.303663 -19.729407 
L 24.184212 -19.722207 
L 24.060943 -19.715008 
L 23.937457 -19.707809 
L 23.817155 -19.70061 
L 23.703143 -19.69341 
L 23.598159 -19.686211 
L 23.504543 -19.679012 
L 23.424226 -19.671812 
L 23.358741 -19.664613 
L 23.309254 -19.657414 
L 23.276595 -19.650215 
L 23.261292 -19.643015 
L 23.2636 -19.635816 
L 23.283512 -19.628617 
L 23.320765 -19.621417 
L 23.374824 -19.614218 
L 23.444863 -19.607019 
L 23.529738 -19.59982 
L 23.627963 -19.59262 
L 23.737698 -19.585421 
L 23.856749 -19.578222 
L 23.9826 -19.571022 
L 24.112471 -19.563823 
L 24.243407 -19.556624 
L 24.372399 -19.549425 
L 24.496531 -19.542225 
L 24.613144 -19.535026 
L 24.720007 -19.527827 
L 24.815484 -19.520627 
L 24.898684 -19.513428 
L 24.969575 -19.506229 
L 25.029061 -19.49903 
L 25.079006 -19.49183 
L 25.122212 -19.484631 
L 25.162332 -19.477432 
L 25.203748 -19.470233 
L 25.2514 -19.463033 
L 25.310591 -19.455834 
L 25.386772 -19.448635 
L 25.485319 -19.441435 
L 25.611321 -19.434236 
L 25.76937 -19.427037 
L 25.963378 -19.419838 
L 26.196402 -19.412638 
L 26.470498 -19.405439 
L 26.786575 -19.39824 
L 27.144282 -19.39104 
L 27.541895 -19.383841 
L 27.976226 -19.376642 
L 28.442555 -19.369443 
L 28.934593 -19.362243 
L 29.444494 -19.355044 
L 29.962924 -19.347845 
L 30.479207 -19.340645 
L 30.981548 -19.333446 
L 31.457361 -19.326247 
L 31.89367 -19.319048 
L 32.277594 -19.311848 
L 32.596884 -19.304649 
L 32.840492 -19.29745 
L 32.999119 -19.29025 
L 33.065725 -19.283051 
L 33.035943 -19.275852 
L 32.908364 -19.268653 
L 32.684688 -19.261453 
L 32.369686 -19.254254 
L 31.971012 -19.247055 
L 31.498847 -19.239855 
L 30.96541 -19.232656 
L 30.384374 -19.225457 
L 29.770217 -19.218258 
L 29.137571 -19.211058 
L 28.500585 -19.203859 
L 27.872376 -19.19666 
L 27.264566 -19.18946 
L 26.686945 -19.182261 
L 26.147263 -19.175062 
L 25.651157 -19.167863 
L 25.202189 -19.160663 
z
" style="stroke: #6f6f6f; stroke-width: 0.15"/>
    </defs>
    <g clip-path="url(#p99cf031a16)">
     <use xlink:href="#m7e272aca4c" x="0" y="84.96" style="fill: #98daa7; stroke: #6f6f6f; stroke-width: 0.15"/>
    </g>
   </g>
   <g id="PolyCollection_2">
    <defs>
     <path id="m10434877dc" d="M 50.33822 -14.274977 
L 46.540753 -14.274977 
L 46.139977 -14.679012 
L 45.686896 -15.083047 
L 45.182665 -15.487082 
L 44.63056 -15.891117 
L 44.036189 -16.295152 
L 43.407598 -16.699187 
L 42.75525 -17.103221 
L 42.091853 -17.507256 
L 41.432024 -17.911291 
L 40.791814 -18.315326 
L 40.188087 -18.719361 
L 39.637802 -19.123396 
L 39.157227 -19.52743 
L 38.761146 -19.931465 
L 38.462103 -20.3355 
L 38.269747 -20.739535 
L 38.190313 -21.14357 
L 38.226288 -21.547605 
L 38.376289 -21.951639 
L 38.635143 -22.355674 
L 38.99419 -22.759709 
L 39.441759 -23.163744 
L 39.963794 -23.567779 
L 40.544581 -23.971814 
L 41.167528 -24.375849 
L 41.815931 -24.779883 
L 42.473695 -25.183918 
L 43.125958 -25.587953 
L 43.759593 -25.991988 
L 44.363562 -26.396023 
L 44.929126 -26.800058 
L 45.449908 -27.204092 
L 45.921824 -27.608127 
L 46.342915 -28.012162 
L 46.713087 -28.416197 
L 47.033807 -28.820232 
L 47.307769 -29.224267 
L 47.538562 -29.628301 
L 47.730351 -30.032336 
L 47.887597 -30.436371 
L 48.01482 -30.840406 
L 48.116408 -31.244441 
L 48.196476 -31.648476 
L 48.25877 -32.05251 
L 48.306614 -32.456545 
L 48.342887 -32.86058 
L 48.370029 -33.264615 
L 48.390067 -33.66865 
L 48.404645 -34.072685 
L 48.415076 -34.47672 
L 48.422378 -34.880754 
L 48.427323 -35.284789 
L 48.430474 -35.688824 
L 48.432218 -36.092859 
L 48.432793 -36.496894 
L 48.43231 -36.900929 
L 48.430764 -37.304963 
L 48.428048 -37.708998 
L 48.42395 -38.113033 
L 48.418163 -38.517068 
L 48.410279 -38.921103 
L 48.399793 -39.325138 
L 48.386106 -39.729172 
L 48.368534 -40.133207 
L 48.346321 -40.537242 
L 48.318666 -40.941277 
L 48.284757 -41.345312 
L 48.243809 -41.749347 
L 48.195127 -42.153382 
L 48.13816 -42.557416 
L 48.072573 -42.961451 
L 47.998316 -43.365486 
L 47.915687 -43.769521 
L 47.825385 -44.173556 
L 47.728548 -44.577591 
L 47.626769 -44.981625 
L 47.522077 -45.38566 
L 47.416892 -45.789695 
L 47.31395 -46.19373 
L 47.216189 -46.597765 
L 47.12662 -47.0018 
L 47.048172 -47.405834 
L 46.983537 -47.809869 
L 46.935017 -48.213904 
L 46.904387 -48.617939 
L 46.892787 -49.021974 
L 46.900654 -49.426009 
L 46.927691 -49.830044 
L 46.972889 -50.234078 
L 47.034588 -50.638113 
L 47.110577 -51.042148 
L 47.19823 -51.446183 
L 47.294648 -51.850218 
L 47.396826 -52.254253 
L 47.5018 -52.658287 
L 47.606786 -53.062322 
L 47.709296 -53.466357 
L 47.807221 -53.870392 
L 47.898883 -54.274427 
L 48.980091 -54.274427 
L 48.980091 -54.274427 
L 49.071752 -53.870392 
L 49.169677 -53.466357 
L 49.272187 -53.062322 
L 49.377174 -52.658287 
L 49.482147 -52.254253 
L 49.584325 -51.850218 
L 49.680744 -51.446183 
L 49.768396 -51.042148 
L 49.844386 -50.638113 
L 49.906085 -50.234078 
L 49.951283 -49.830044 
L 49.978319 -49.426009 
L 49.986186 -49.021974 
L 49.974586 -48.617939 
L 49.943956 -48.213904 
L 49.895436 -47.809869 
L 49.830801 -47.405834 
L 49.752353 -47.0018 
L 49.662784 -46.597765 
L 49.565023 -46.19373 
L 49.462081 -45.789695 
L 49.356897 -45.38566 
L 49.252204 -44.981625 
L 49.150425 -44.577591 
L 49.053589 -44.173556 
L 48.963286 -43.769521 
L 48.880657 -43.365486 
L 48.8064 -42.961451 
L 48.740813 -42.557416 
L 48.683846 -42.153382 
L 48.635164 -41.749347 
L 48.594217 -41.345312 
L 48.560307 -40.941277 
L 48.532653 -40.537242 
L 48.51044 -40.133207 
L 48.492867 -39.729172 
L 48.47918 -39.325138 
L 48.468694 -38.921103 
L 48.46081 -38.517068 
L 48.455023 -38.113033 
L 48.450926 -37.708998 
L 48.448209 -37.304963 
L 48.446664 -36.900929 
L 48.44618 -36.496894 
L 48.446755 -36.092859 
L 48.448499 -35.688824 
L 48.45165 -35.284789 
L 48.456595 -34.880754 
L 48.463897 -34.47672 
L 48.474328 -34.072685 
L 48.488907 -33.66865 
L 48.508944 -33.264615 
L 48.536087 -32.86058 
L 48.57236 -32.456545 
L 48.620204 -32.05251 
L 48.682497 -31.648476 
L 48.762565 -31.244441 
L 48.864153 -30.840406 
L 48.991376 -30.436371 
L 49.148622 -30.032336 
L 49.340411 -29.628301 
L 49.571204 -29.224267 
L 49.845167 -28.820232 
L 50.165886 -28.416197 
L 50.536058 -28.012162 
L 50.957149 -27.608127 
L 51.429065 -27.204092 
L 51.949847 -26.800058 
L 52.515411 -26.396023 
L 53.119381 -25.991988 
L 53.753015 -25.587953 
L 54.405279 -25.183918 
L 55.063042 -24.779883 
L 55.711445 -24.375849 
L 56.334392 -23.971814 
L 56.91518 -23.567779 
L 57.437214 -23.163744 
L 57.884783 -22.759709 
L 58.24383 -22.355674 
L 58.502685 -21.951639 
L 58.652685 -21.547605 
L 58.688661 -21.14357 
L 58.609226 -20.739535 
L 58.41687 -20.3355 
L 58.117828 -19.931465 
L 57.721746 -19.52743 
L 57.241171 -19.123396 
L 56.690886 -18.719361 
L 56.087159 -18.315326 
L 55.446949 -17.911291 
L 54.787121 -17.507256 
L 54.123723 -17.103221 
L 53.471375 -16.699187 
L 52.842784 -16.295152 
L 52.248413 -15.891117 
L 51.696308 -15.487082 
L 51.192078 -15.083047 
L 50.738996 -14.679012 
L 50.33822 -14.274977 
z
" style="stroke: #6f6f6f; stroke-width: 0.15"/>
    </defs>
    <g clip-path="url(#p99cf031a16)">
     <use xlink:href="#m10434877dc" x="0" y="84.96" style="fill: #f2aba8; stroke: #6f6f6f; stroke-width: 0.15"/>
    </g>
   </g>
   <g id="PolyCollection_3">
    <defs>
     <path id="mbc30f255cf" d="M 77.169086 -18.723663 
L 70.955758 -18.723663 
L 70.482626 -18.759285 
L 69.975016 -18.794906 
L 69.437812 -18.830528 
L 68.877362 -18.866149 
L 68.301409 -18.901771 
L 67.718952 -18.937393 
L 67.14003 -18.973014 
L 66.575436 -19.008636 
L 66.036376 -19.044258 
L 65.534085 -19.079879 
L 65.079409 -19.115501 
L 64.682399 -19.151122 
L 64.351918 -19.186744 
L 64.095289 -19.222366 
L 63.91801 -19.257987 
L 63.823554 -19.293609 
L 63.813248 -19.329231 
L 63.886262 -19.364852 
L 64.039685 -19.400474 
L 64.268695 -19.436095 
L 64.5668 -19.471717 
L 64.926144 -19.507339 
L 65.337848 -19.54296 
L 65.792372 -19.578582 
L 66.279875 -19.614204 
L 66.790557 -19.649825 
L 67.314958 -19.685447 
L 67.844219 -19.721068 
L 68.370284 -19.75669 
L 68.88604 -19.792312 
L 69.38541 -19.827933 
L 69.863383 -19.863555 
L 70.316003 -19.899177 
L 70.740321 -19.934798 
L 71.134313 -19.97042 
L 71.496782 -20.006041 
L 71.827244 -20.041663 
L 72.125813 -20.077285 
L 72.393081 -20.112906 
L 72.630009 -20.148528 
L 72.837822 -20.18415 
L 73.017917 -20.219771 
L 73.171782 -20.255393 
L 73.300924 -20.291015 
L 73.40682 -20.326636 
L 73.490867 -20.362258 
L 73.554354 -20.397879 
L 73.598442 -20.433501 
L 73.624161 -20.469123 
L 73.632407 -20.504744 
L 73.623961 -20.540366 
L 73.599515 -20.575988 
L 73.559694 -20.611609 
L 73.505102 -20.647231 
L 73.436355 -20.682852 
L 73.354125 -20.718474 
L 73.259178 -20.754096 
L 73.15241 -20.789717 
L 73.034872 -20.825339 
L 72.907791 -20.860961 
L 72.772577 -20.896582 
L 72.630823 -20.932204 
L 72.484285 -20.967825 
L 72.334865 -21.003447 
L 72.184573 -21.039069 
L 72.035485 -21.07469 
L 71.889703 -21.110312 
L 71.749305 -21.145934 
L 71.616303 -21.181555 
L 71.492599 -21.217177 
L 71.379949 -21.252798 
L 71.279937 -21.28842 
L 71.193947 -21.324042 
L 71.123153 -21.359663 
L 71.068507 -21.395285 
L 71.030733 -21.430907 
L 71.010326 -21.466528 
L 71.007553 -21.50215 
L 71.022449 -21.537771 
L 71.054825 -21.573393 
L 71.10426 -21.609015 
L 71.170105 -21.644636 
L 71.251486 -21.680258 
L 71.347307 -21.71588 
L 71.456258 -21.751501 
L 71.576833 -21.787123 
L 71.707348 -21.822744 
L 71.845974 -21.858366 
L 71.99077 -21.893988 
L 72.139729 -21.929609 
L 72.290824 -21.965231 
L 72.442062 -22.000853 
L 72.591532 -22.036474 
L 72.737453 -22.072096 
L 72.878222 -22.107717 
L 73.012448 -22.143339 
L 73.138979 -22.178961 
L 73.256918 -22.214582 
L 73.365629 -22.250204 
L 74.759214 -22.250204 
L 74.759214 -22.250204 
L 74.867926 -22.214582 
L 74.985865 -22.178961 
L 75.112395 -22.143339 
L 75.246622 -22.107717 
L 75.387391 -22.072096 
L 75.533312 -22.036474 
L 75.682781 -22.000853 
L 75.834019 -21.965231 
L 75.985115 -21.929609 
L 76.134074 -21.893988 
L 76.27887 -21.858366 
L 76.417496 -21.822744 
L 76.548011 -21.787123 
L 76.668586 -21.751501 
L 76.777537 -21.71588 
L 76.873358 -21.680258 
L 76.954739 -21.644636 
L 77.020584 -21.609015 
L 77.070019 -21.573393 
L 77.102394 -21.537771 
L 77.117291 -21.50215 
L 77.114518 -21.466528 
L 77.094111 -21.430907 
L 77.056336 -21.395285 
L 77.00169 -21.359663 
L 76.930897 -21.324042 
L 76.844907 -21.28842 
L 76.744894 -21.252798 
L 76.632245 -21.217177 
L 76.508541 -21.181555 
L 76.375539 -21.145934 
L 76.235141 -21.110312 
L 76.089359 -21.07469 
L 75.940271 -21.039069 
L 75.789979 -21.003447 
L 75.640559 -20.967825 
L 75.494021 -20.932204 
L 75.352266 -20.896582 
L 75.217053 -20.860961 
L 75.089972 -20.825339 
L 74.972434 -20.789717 
L 74.865666 -20.754096 
L 74.770719 -20.718474 
L 74.688489 -20.682852 
L 74.619742 -20.647231 
L 74.56515 -20.611609 
L 74.525329 -20.575988 
L 74.500882 -20.540366 
L 74.492437 -20.504744 
L 74.500683 -20.469123 
L 74.526401 -20.433501 
L 74.57049 -20.397879 
L 74.633977 -20.362258 
L 74.718024 -20.326636 
L 74.82392 -20.291015 
L 74.953062 -20.255393 
L 75.106926 -20.219771 
L 75.287021 -20.18415 
L 75.494834 -20.148528 
L 75.731762 -20.112906 
L 75.999031 -20.077285 
L 76.297599 -20.041663 
L 76.628062 -20.006041 
L 76.990531 -19.97042 
L 77.384523 -19.934798 
L 77.808841 -19.899177 
L 78.261461 -19.863555 
L 78.739434 -19.827933 
L 79.238804 -19.792312 
L 79.75456 -19.75669 
L 80.280625 -19.721068 
L 80.809886 -19.685447 
L 81.334287 -19.649825 
L 81.844969 -19.614204 
L 82.332472 -19.578582 
L 82.786996 -19.54296 
L 83.1987 -19.507339 
L 83.558044 -19.471717 
L 83.856149 -19.436095 
L 84.085159 -19.400474 
L 84.238582 -19.364852 
L 84.311596 -19.329231 
L 84.30129 -19.293609 
L 84.206833 -19.257987 
L 84.029555 -19.222366 
L 83.772925 -19.186744 
L 83.442444 -19.151122 
L 83.045435 -19.115501 
L 82.590759 -19.079879 
L 82.088467 -19.044258 
L 81.549408 -19.008636 
L 80.984814 -18.973014 
L 80.405892 -18.937393 
L 79.823435 -18.901771 
L 79.247482 -18.866149 
L 78.687032 -18.830528 
L 78.149828 -18.794906 
L 77.642218 -18.759285 
L 77.169086 -18.723663 
z
" style="stroke: #6f6f6f; stroke-width: 0.15"/>
    </defs>
    <g clip-path="url(#p99cf031a16)">
     <use xlink:href="#mbc30f255cf" x="0" y="84.96" style="fill: #d3c4f6; stroke: #6f6f6f; stroke-width: 0.15"/>
    </g>
   </g>
   <g id="PolyCollection_4">
    <defs>
     <path id="m556a282ebc" d="M 102.571733 -19.231411 
L 96.798982 -19.231411 
L 96.319495 -19.233144 
L 95.799185 -19.234877 
L 95.242822 -19.23661 
L 94.657029 -19.238344 
L 94.050262 -19.240077 
L 93.432702 -19.24181 
L 92.816029 -19.243543 
L 92.213104 -19.245276 
L 91.637553 -19.247009 
L 91.103268 -19.248742 
L 90.623863 -19.250476 
L 90.212092 -19.252209 
L 89.87929 -19.253942 
L 89.634839 -19.255675 
L 89.485724 -19.257408 
L 89.436183 -19.259141 
L 89.487493 -19.260874 
L 89.637888 -19.262608 
L 89.882634 -19.264341 
L 90.214238 -19.266074 
L 90.622787 -19.267807 
L 91.096393 -19.26954 
L 91.621706 -19.271273 
L 92.184478 -19.273007 
L 92.770132 -19.27474 
L 93.364306 -19.276473 
L 93.953351 -19.278206 
L 94.524749 -19.279939 
L 95.067451 -19.281672 
L 95.57211 -19.283405 
L 96.031224 -19.285139 
L 96.439185 -19.286872 
L 96.792247 -19.288605 
L 97.08843 -19.290338 
L 97.327368 -19.292071 
L 97.510131 -19.293804 
L 97.639021 -19.295538 
L 97.717359 -19.297271 
L 97.749286 -19.299004 
L 97.739562 -19.300737 
L 97.693396 -19.30247 
L 97.616275 -19.304203 
L 97.513831 -19.305936 
L 97.391714 -19.30767 
L 97.255482 -19.309403 
L 97.11051 -19.311136 
L 96.961909 -19.312869 
L 96.814457 -19.314602 
L 96.672534 -19.316335 
L 96.540077 -19.318069 
L 96.420535 -19.319802 
L 96.316833 -19.321535 
L 96.231344 -19.323268 
L 96.165871 -19.325001 
L 96.12163 -19.326734 
L 96.099245 -19.328467 
L 96.098746 -19.330201 
L 96.119584 -19.331934 
L 96.160643 -19.333667 
L 96.220271 -19.3354 
L 96.296326 -19.337133 
L 96.386227 -19.338866 
L 96.48703 -19.3406 
L 96.595515 -19.342333 
L 96.708289 -19.344066 
L 96.821904 -19.345799 
L 96.932985 -19.347532 
L 97.03836 -19.349265 
L 97.135195 -19.350998 
L 97.221117 -19.352732 
L 97.294326 -19.354465 
L 97.353679 -19.356198 
L 97.398749 -19.357931 
L 97.429855 -19.359664 
L 97.448041 -19.361397 
L 97.455031 -19.363131 
L 97.45314 -19.364864 
L 97.445153 -19.366597 
L 97.43418 -19.36833 
L 97.423493 -19.370063 
L 97.41635 -19.371796 
L 97.415829 -19.373529 
L 97.424672 -19.375263 
L 97.445147 -19.376996 
L 97.478946 -19.378729 
L 97.527114 -19.380462 
L 97.590018 -19.382195 
L 97.667357 -19.383928 
L 97.758204 -19.385662 
L 97.861083 -19.387395 
L 97.974071 -19.389128 
L 98.094916 -19.390861 
L 98.221165 -19.392594 
L 98.350291 -19.394327 
L 98.479813 -19.39606 
L 98.607402 -19.397794 
L 98.730971 -19.399527 
L 98.848734 -19.40126 
L 98.959254 -19.402993 
L 100.41146 -19.402993 
L 100.41146 -19.402993 
L 100.52198 -19.40126 
L 100.639744 -19.399527 
L 100.763312 -19.397794 
L 100.890902 -19.39606 
L 101.020424 -19.394327 
L 101.14955 -19.392594 
L 101.275799 -19.390861 
L 101.396644 -19.389128 
L 101.509632 -19.387395 
L 101.61251 -19.385662 
L 101.703357 -19.383928 
L 101.780696 -19.382195 
L 101.8436 -19.380462 
L 101.891768 -19.378729 
L 101.925567 -19.376996 
L 101.946042 -19.375263 
L 101.954885 -19.373529 
L 101.954365 -19.371796 
L 101.947221 -19.370063 
L 101.936534 -19.36833 
L 101.925561 -19.366597 
L 101.917575 -19.364864 
L 101.915684 -19.363131 
L 101.922674 -19.361397 
L 101.940859 -19.359664 
L 101.971965 -19.357931 
L 102.017036 -19.356198 
L 102.076388 -19.354465 
L 102.149597 -19.352732 
L 102.235519 -19.350998 
L 102.332354 -19.349265 
L 102.437729 -19.347532 
L 102.54881 -19.345799 
L 102.662425 -19.344066 
L 102.775199 -19.342333 
L 102.883684 -19.3406 
L 102.984488 -19.338866 
L 103.074388 -19.337133 
L 103.150443 -19.3354 
L 103.210072 -19.333667 
L 103.25113 -19.331934 
L 103.271968 -19.330201 
L 103.27147 -19.328467 
L 103.249084 -19.326734 
L 103.204843 -19.325001 
L 103.13937 -19.323268 
L 103.053881 -19.321535 
L 102.950179 -19.319802 
L 102.830637 -19.318069 
L 102.698181 -19.316335 
L 102.556258 -19.314602 
L 102.408805 -19.312869 
L 102.260204 -19.311136 
L 102.115233 -19.309403 
L 101.979 -19.30767 
L 101.856883 -19.305936 
L 101.754439 -19.304203 
L 101.677319 -19.30247 
L 101.631152 -19.300737 
L 101.621429 -19.299004 
L 101.653355 -19.297271 
L 101.731693 -19.295538 
L 101.860583 -19.293804 
L 102.043346 -19.292071 
L 102.282285 -19.290338 
L 102.578467 -19.288605 
L 102.931529 -19.286872 
L 103.33949 -19.285139 
L 103.798604 -19.283405 
L 104.303263 -19.281672 
L 104.845965 -19.279939 
L 105.417363 -19.278206 
L 106.006408 -19.276473 
L 106.600583 -19.27474 
L 107.186237 -19.273007 
L 107.749009 -19.271273 
L 108.274321 -19.26954 
L 108.747927 -19.267807 
L 109.156476 -19.266074 
L 109.488081 -19.264341 
L 109.732827 -19.262608 
L 109.883222 -19.260874 
L 109.934531 -19.259141 
L 109.884991 -19.257408 
L 109.735876 -19.255675 
L 109.491425 -19.253942 
L 109.158622 -19.252209 
L 108.746852 -19.250476 
L 108.267446 -19.248742 
L 107.733161 -19.247009 
L 107.15761 -19.245276 
L 106.554685 -19.243543 
L 105.938012 -19.24181 
L 105.320452 -19.240077 
L 104.713686 -19.238344 
L 104.127892 -19.23661 
L 103.571529 -19.234877 
L 103.051219 -19.233144 
L 102.571733 -19.231411 
z
" style="stroke: #6f6f6f; stroke-width: 0.15"/>
    </defs>
    <g clip-path="url(#p99cf031a16)">
     <use xlink:href="#m556a282ebc" x="0" y="84.96" style="fill: #d6bba3; stroke: #6f6f6f; stroke-width: 0.15"/>
    </g>
   </g>
   <g id="PolyCollection_5">
    <defs>
     <path id="m2cd3448ae4" d="M 127.965015 -17.357689 
L 122.65157 -17.357689 
L 122.147764 -17.503034 
L 121.593072 -17.648379 
L 120.992895 -17.793725 
L 120.355293 -17.93907 
L 119.691002 -18.084415 
L 119.013283 -18.22976 
L 118.337587 -18.375105 
L 117.681047 -18.52045 
L 117.061801 -18.665795 
L 116.498188 -18.81114 
L 116.007862 -18.956485 
L 115.606879 -19.10183 
L 115.308828 -19.247176 
L 115.124065 -19.392521 
L 115.059118 -19.537866 
L 115.116306 -19.683211 
L 115.293596 -19.828556 
L 115.584727 -19.973901 
L 115.979577 -20.119246 
L 116.464746 -20.264591 
L 117.02431 -20.409936 
L 117.640687 -20.555282 
L 118.295549 -20.700627 
L 118.970711 -20.845972 
L 119.648946 -20.991317 
L 120.314668 -21.136662 
L 120.954457 -21.282007 
L 121.557401 -21.427352 
L 122.115261 -21.572697 
L 122.622469 -21.718042 
L 123.075967 -21.863387 
L 123.474954 -22.008733 
L 123.820533 -22.154078 
L 124.115328 -22.299423 
L 124.363086 -22.444768 
L 124.568296 -22.590113 
L 124.735843 -22.735458 
L 124.870722 -22.880803 
L 124.977798 -23.026148 
L 125.06164 -23.171493 
L 125.1264 -23.316839 
L 125.175748 -23.462184 
L 125.21285 -23.607529 
L 125.240372 -23.752874 
L 125.260512 -23.898219 
L 125.275047 -24.043564 
L 125.285383 -24.188909 
L 125.292609 -24.334254 
L 125.297553 -24.479599 
L 125.300823 -24.624944 
L 125.302856 -24.77029 
L 125.303946 -24.915635 
L 125.30427 -25.06098 
L 125.303912 -25.206325 
L 125.302869 -25.35167 
L 125.301067 -25.497015 
L 125.298355 -25.64236 
L 125.294512 -25.787705 
L 125.289242 -25.93305 
L 125.282172 -26.078396 
L 125.272849 -26.223741 
L 125.260743 -26.369086 
L 125.24525 -26.514431 
L 125.225704 -26.659776 
L 125.201392 -26.805121 
L 125.171586 -26.950466 
L 125.13557 -27.095811 
L 125.092691 -27.241156 
L 125.042404 -27.386501 
L 124.984333 -27.531847 
L 124.918328 -27.677192 
L 124.844521 -27.822537 
L 124.763382 -27.967882 
L 124.67575 -28.113227 
L 124.582858 -28.258572 
L 124.486335 -28.403917 
L 124.388173 -28.549262 
L 124.290681 -28.694607 
L 124.196399 -28.839953 
L 124.107998 -28.985298 
L 124.028158 -29.130643 
L 123.959433 -29.275988 
L 123.904118 -29.421333 
L 123.864121 -29.566678 
L 123.840855 -29.712023 
L 123.835153 -29.857368 
L 123.847222 -30.002713 
L 123.876626 -30.148058 
L 123.922316 -30.293404 
L 123.98269 -30.438749 
L 124.055688 -30.584094 
L 124.138907 -30.729439 
L 124.229731 -30.874784 
L 124.32547 -31.020129 
L 124.423485 -31.165474 
L 124.521308 -31.310819 
L 124.616738 -31.456164 
L 124.707908 -31.60151 
L 124.793329 -31.746855 
L 125.823256 -31.746855 
L 125.823256 -31.746855 
L 125.908677 -31.60151 
L 125.999846 -31.456164 
L 126.095276 -31.310819 
L 126.1931 -31.165474 
L 126.291115 -31.020129 
L 126.386854 -30.874784 
L 126.477678 -30.729439 
L 126.560897 -30.584094 
L 126.633895 -30.438749 
L 126.694269 -30.293404 
L 126.739959 -30.148058 
L 126.769363 -30.002713 
L 126.781431 -29.857368 
L 126.77573 -29.712023 
L 126.752464 -29.566678 
L 126.712467 -29.421333 
L 126.657152 -29.275988 
L 126.588427 -29.130643 
L 126.508587 -28.985298 
L 126.420186 -28.839953 
L 126.325904 -28.694607 
L 126.228412 -28.549262 
L 126.13025 -28.403917 
L 126.033727 -28.258572 
L 125.940835 -28.113227 
L 125.853203 -27.967882 
L 125.772063 -27.822537 
L 125.698257 -27.677192 
L 125.632252 -27.531847 
L 125.574181 -27.386501 
L 125.523894 -27.241156 
L 125.481014 -27.095811 
L 125.444999 -26.950466 
L 125.415192 -26.805121 
L 125.390881 -26.659776 
L 125.371335 -26.514431 
L 125.355842 -26.369086 
L 125.343735 -26.223741 
L 125.334412 -26.078396 
L 125.327342 -25.93305 
L 125.322073 -25.787705 
L 125.31823 -25.64236 
L 125.315518 -25.497015 
L 125.313715 -25.35167 
L 125.312673 -25.206325 
L 125.312314 -25.06098 
L 125.312639 -24.915635 
L 125.313728 -24.77029 
L 125.315762 -24.624944 
L 125.319032 -24.479599 
L 125.323975 -24.334254 
L 125.331202 -24.188909 
L 125.341537 -24.043564 
L 125.356073 -23.898219 
L 125.376213 -23.752874 
L 125.403735 -23.607529 
L 125.440836 -23.462184 
L 125.490185 -23.316839 
L 125.554944 -23.171493 
L 125.638786 -23.026148 
L 125.745863 -22.880803 
L 125.880742 -22.735458 
L 126.048289 -22.590113 
L 126.253499 -22.444768 
L 126.501257 -22.299423 
L 126.796052 -22.154078 
L 127.14163 -22.008733 
L 127.540617 -21.863387 
L 127.994116 -21.718042 
L 128.501323 -21.572697 
L 129.059184 -21.427352 
L 129.662128 -21.282007 
L 130.301916 -21.136662 
L 130.967639 -20.991317 
L 131.645874 -20.845972 
L 132.321036 -20.700627 
L 132.975898 -20.555282 
L 133.592275 -20.409936 
L 134.151839 -20.264591 
L 134.637007 -20.119246 
L 135.031858 -19.973901 
L 135.322989 -19.828556 
L 135.500279 -19.683211 
L 135.557466 -19.537866 
L 135.49252 -19.392521 
L 135.307757 -19.247176 
L 135.009705 -19.10183 
L 134.608722 -18.956485 
L 134.118397 -18.81114 
L 133.554784 -18.665795 
L 132.935538 -18.52045 
L 132.278998 -18.375105 
L 131.603302 -18.22976 
L 130.925583 -18.084415 
L 130.261292 -17.93907 
L 129.62369 -17.793725 
L 129.023512 -17.648379 
L 128.46882 -17.503034 
L 127.965015 -17.357689 
z
" style="stroke: #6f6f6f; stroke-width: 0.15"/>
    </defs>
    <g clip-path="url(#p99cf031a16)">
     <use xlink:href="#m2cd3448ae4" x="0" y="84.96" style="fill: #f1b9e0; stroke: #6f6f6f; stroke-width: 0.15"/>
    </g>
   </g>
   <g id="line2d_9">
    <path d="M 22.816551 65.703651 
L 22.816551 65.457112 
" clip-path="url(#p99cf031a16)" style="fill: none; stroke: #8c8c8c; stroke-width: 0.75; stroke-linecap: round"/>
   </g>
   <g id="line2d_10">
    <path d="M 22.816551 65.690188 
L 22.816551 65.560879 
" clip-path="url(#p99cf031a16)" style="fill: none; stroke: #8c8c8c; stroke-width: 4; stroke-linecap: round"/>
   </g>
   <g id="line2d_11">
    <path d="M 22.816551 65.670334 
" clip-path="url(#p99cf031a16)" style="fill: none; stroke: #6f6f6f; stroke-width: 1.2; stroke-linecap: round"/>
    <defs>
     <path id="m858de4b185" d="M 0 0.833333 
C 0.221003 0.833333 0.432983 0.745528 0.589256 0.589256 
C 0.745528 0.432983 0.833333 0.221003 0.833333 0 
C 0.833333 -0.221003 0.745528 -0.432983 0.589256 -0.589256 
C 0.432983 -0.745528 0.221003 -0.833333 0 -0.833333 
C -0.221003 -0.833333 -0.432983 -0.745528 -0.589256 -0.589256 
C -0.745528 -0.432983 -0.833333 -0.221003 -0.833333 0 
C -0.833333 0.221003 -0.745528 0.432983 -0.589256 0.589256 
C -0.432983 0.745528 -0.221003 0.833333 0 0.833333 
z
" style="stroke: #ffffff; stroke-width: 0.8"/>
    </defs>
    <g clip-path="url(#p99cf031a16)">
     <use xlink:href="#m858de4b185" x="22.816551" y="65.670334" style="fill: #ffffff; stroke: #ffffff; stroke-width: 0.8"/>
    </g>
   </g>
   <g id="line2d_12">
    <path d="M 48.439487 65.471432 
L 48.439487 61.561479 
" clip-path="url(#p99cf031a16)" style="fill: none; stroke: #8c8c8c; stroke-width: 0.75; stroke-linecap: round"/>
   </g>
   <g id="line2d_13">
    <path d="M 48.439487 64.518057 
L 48.439487 62.457574 
" clip-path="url(#p99cf031a16)" style="fill: none; stroke: #8c8c8c; stroke-width: 4; stroke-linecap: round"/>
   </g>
   <g id="line2d_14">
    <path d="M 48.439487 63.545076 
" clip-path="url(#p99cf031a16)" style="fill: none; stroke: #6f6f6f; stroke-width: 1.2; stroke-linecap: round"/>
    <g clip-path="url(#p99cf031a16)">
     <use xlink:href="#m858de4b185" x="48.439487" y="63.545076" style="fill: #ffffff; stroke: #ffffff; stroke-width: 0.8"/>
    </g>
   </g>
   <g id="line2d_15">
    <path d="M 74.062422 65.703651 
L 74.062422 63.697646 
" clip-path="url(#p99cf031a16)" style="fill: none; stroke: #8c8c8c; stroke-width: 0.75; stroke-linecap: round"/>
   </g>
   <g id="line2d_16">
    <path d="M 74.062422 65.686964 
L 74.062422 64.869225 
" clip-path="url(#p99cf031a16)" style="fill: none; stroke: #8c8c8c; stroke-width: 4; stroke-linecap: round"/>
   </g>
   <g id="line2d_17">
    <path d="M 74.062422 65.681843 
" clip-path="url(#p99cf031a16)" style="fill: none; stroke: #6f6f6f; stroke-width: 1.2; stroke-linecap: round"/>
    <g clip-path="url(#p99cf031a16)">
     <use xlink:href="#m858de4b185" x="74.062422" y="65.681843" style="fill: #ffffff; stroke: #ffffff; stroke-width: 0.8"/>
    </g>
   </g>
   <g id="line2d_18">
    <path d="M 99.685357 65.703651 
L 99.685357 65.581945 
" clip-path="url(#p99cf031a16)" style="fill: none; stroke: #8c8c8c; stroke-width: 0.75; stroke-linecap: round"/>
   </g>
   <g id="line2d_19">
    <path d="M 99.685357 65.701966 
L 99.685357 65.636082 
" clip-path="url(#p99cf031a16)" style="fill: none; stroke: #8c8c8c; stroke-width: 4; stroke-linecap: round"/>
   </g>
   <g id="line2d_20">
    <path d="M 99.685357 65.69789 
" clip-path="url(#p99cf031a16)" style="fill: none; stroke: #6f6f6f; stroke-width: 1.2; stroke-linecap: round"/>
    <g clip-path="url(#p99cf031a16)">
     <use xlink:href="#m858de4b185" x="99.685357" y="65.69789" style="fill: #ffffff; stroke: #ffffff; stroke-width: 0.8"/>
    </g>
   </g>
   <g id="line2d_21">
    <path d="M 125.308292 65.686718 
L 125.308292 65.196166 
" clip-path="url(#p99cf031a16)" style="fill: none; stroke: #8c8c8c; stroke-width: 0.75; stroke-linecap: round"/>
   </g>
   <g id="line2d_22">
    <path d="M 125.308292 65.46811 
L 125.308292 65.250559 
" clip-path="url(#p99cf031a16)" style="fill: none; stroke: #8c8c8c; stroke-width: 4; stroke-linecap: round"/>
   </g>
   <g id="line2d_23">
    <path d="M 125.308292 65.407103 
" clip-path="url(#p99cf031a16)" style="fill: none; stroke: #6f6f6f; stroke-width: 1.2; stroke-linecap: round"/>
    <g clip-path="url(#p99cf031a16)">
     <use xlink:href="#m858de4b185" x="125.308292" y="65.407103" style="fill: #ffffff; stroke: #ffffff; stroke-width: 0.8"/>
    </g>
   </g>
   <g id="patch_3">
    <path d="M 10.005084 74.419526 
L 10.005084 4.076256 
" style="fill: none; stroke: #777777; stroke-width: 0.5; stroke-linejoin: miter; stroke-linecap: square"/>
   </g>
   <g id="patch_4">
    <path d="M 10.005084 76.919526 
L 138.11976 76.919526 
" style="fill: none; stroke: #777777; stroke-width: 0.5; stroke-linejoin: miter; stroke-linecap: square"/>
   </g>
  </g>
 </g>
 <defs>
  <clipPath id="p99cf031a16">
   <rect x="10.005084" y="4.076256" width="128.114676" height="70.34327"/>
  </clipPath>
 </defs>
</svg>
