<?xml version="1.0" encoding="utf-8" standalone="no"?>
<!DOCTYPE svg PUBLIC "-//W3C//DTD SVG 1.1//EN"
  "http://www.w3.org/Graphics/SVG/1.1/DTD/svg11.dtd">
<svg xmlns:xlink="http://www.w3.org/1999/xlink" width="56.16pt" height="84.96pt" viewBox="0 0 56.16 84.96" xmlns="http://www.w3.org/2000/svg" version="1.1">
 <metadata>
  <rdf:RDF xmlns:dc="http://purl.org/dc/elements/1.1/" xmlns:cc="http://creativecommons.org/ns#" xmlns:rdf="http://www.w3.org/1999/02/22-rdf-syntax-ns#">
   <cc:Work>
    <dc:type rdf:resource="http://purl.org/dc/dcmitype/StillImage"/>
    <dc:date>2024-05-27T15:37:09.800340</dc:date>
    <dc:format>image/svg+xml</dc:format>
    <dc:creator>
     <cc:Agent>
      <dc:title>Matplotlib v3.8.3, https://matplotlib.org/</dc:title>
     </cc:Agent>
    </dc:creator>
   </cc:Work>
  </rdf:RDF>
 </metadata>
 <defs>
  <style type="text/css">*{stroke-linejoin: round; stroke-linecap: butt}</style>
 </defs>
 <g id="figure_1">
  <g id="patch_1">
   <path d="M 0 84.96 
L 56.16 84.96 
L 56.16 0 
L 0 0 
z
" style="fill: #ffffff"/>
  </g>
  <g id="axes_1">
   <g id="patch_2">
    <path d="M 10.005084 74.419526 
L 53.15976 74.419526 
L 53.15976 4.076256 
L 10.005084 4.076256 
z
" style="fill: #ffffff"/>
   </g>
   <g id="matplotlib.axis_1">
    <g id="xtick_1">
     <g id="text_1">
      <!-- ILC3 -->
      <g style="fill: #333333" transform="translate(17.097425 81.230229) scale(0.035 -0.035)">
       <defs>
        <path id="Helvetica-49" d="M 628 4591 
L 1256 4591 
L 1256 0 
L 628 0 
L 628 4591 
z
" transform="scale(0.015625)"/>
        <path id="Helvetica-4c" d="M 488 4591 
L 1109 4591 
L 1109 547 
L 3434 547 
L 3434 0 
L 488 0 
L 488 4591 
z
" transform="scale(0.015625)"/>
        <path id="Helvetica-43" d="M 2422 4716 
Q 3294 4716 3775 4256 
Q 4256 3797 4309 3213 
L 3703 3213 
Q 3600 3656 3292 3915 
Q 2984 4175 2428 4175 
Q 1750 4175 1333 3698 
Q 916 3222 916 2238 
Q 916 1431 1292 929 
Q 1669 428 2416 428 
Q 3103 428 3463 956 
Q 3653 1234 3747 1688 
L 4353 1688 
Q 4272 963 3816 472 
Q 3269 -119 2341 -119 
Q 1541 -119 997 366 
Q 281 1006 281 2344 
Q 281 3359 819 4009 
Q 1400 4716 2422 4716 
z
M 2297 4716 
L 2297 4716 
z
" transform="scale(0.015625)"/>
        <path id="Helvetica-33" d="M 1663 -122 
Q 869 -122 511 314 
Q 153 750 153 1375 
L 741 1375 
Q 778 941 903 744 
Q 1122 391 1694 391 
Q 2138 391 2406 628 
Q 2675 866 2675 1241 
Q 2675 1703 2392 1887 
Q 2109 2072 1606 2072 
Q 1550 2072 1492 2070 
Q 1434 2069 1375 2066 
L 1375 2563 
Q 1463 2553 1522 2550 
Q 1581 2547 1650 2547 
Q 1966 2547 2169 2647 
Q 2525 2822 2525 3272 
Q 2525 3606 2287 3787 
Q 2050 3969 1734 3969 
Q 1172 3969 956 3594 
Q 838 3388 822 3006 
L 266 3006 
Q 266 3506 466 3856 
Q 809 4481 1675 4481 
Q 2359 4481 2734 4176 
Q 3109 3872 3109 3294 
Q 3109 2881 2888 2625 
Q 2750 2466 2531 2375 
Q 2884 2278 3082 2001 
Q 3281 1725 3281 1325 
Q 3281 684 2859 281 
Q 2438 -122 1663 -122 
z
" transform="scale(0.015625)"/>
       </defs>
       <use xlink:href="#Helvetica-49"/>
       <use xlink:href="#Helvetica-4c" x="27.783203"/>
       <use xlink:href="#Helvetica-43" x="83.398438"/>
       <use xlink:href="#Helvetica-33" x="155.615234"/>
      </g>
     </g>
    </g>
    <g id="xtick_2">
     <g id="text_2">
      <!-- TH17 -->
      <g style="fill: #333333" transform="translate(38.092067 81.230229) scale(0.035 -0.035)">
       <defs>
        <path id="Helvetica-54" d="M 3828 4591 
L 3828 4044 
L 2281 4044 
L 2281 0 
L 1650 0 
L 1650 4044 
L 103 4044 
L 103 4591 
L 3828 4591 
z
" transform="scale(0.015625)"/>
        <path id="Helvetica-48" d="M 503 4591 
L 1131 4591 
L 1131 2694 
L 3519 2694 
L 3519 4591 
L 4147 4591 
L 4147 0 
L 3519 0 
L 3519 2147 
L 1131 2147 
L 1131 0 
L 503 0 
L 503 4591 
z
" transform="scale(0.015625)"/>
        <path id="Helvetica-31" d="M 613 3169 
L 613 3600 
Q 1222 3659 1462 3798 
Q 1703 3938 1822 4456 
L 2266 4456 
L 2266 0 
L 1666 0 
L 1666 3169 
L 613 3169 
z
" transform="scale(0.015625)"/>
        <path id="Helvetica-37" d="M 3347 4400 
L 3347 3909 
Q 3131 3700 2773 3181 
Q 2416 2663 2141 2063 
Q 1869 1478 1728 997 
Q 1638 688 1494 0 
L 872 0 
Q 1084 1281 1809 2550 
Q 2238 3294 2709 3834 
L 234 3834 
L 234 4400 
L 3347 4400 
z
" transform="scale(0.015625)"/>
       </defs>
       <use xlink:href="#Helvetica-54"/>
       <use xlink:href="#Helvetica-48" x="61.083984"/>
       <use xlink:href="#Helvetica-31" x="133.300781"/>
       <use xlink:href="#Helvetica-37" x="188.916016"/>
      </g>
     </g>
    </g>
   </g>
   <g id="matplotlib.axis_2">
    <g id="ytick_1">
     <g id="line2d_1">
      <defs>
       <path id="mdbbceea955" d="M 0 0 
L -1 0 
" style="stroke: #777777; stroke-width: 0.5"/>
      </defs>
      <g>
       <use xlink:href="#mdbbceea955" x="10.005084" y="65.703651" style="fill: #777777; stroke: #777777; stroke-width: 0.5"/>
      </g>
     </g>
     <g id="text_3">
      <!-- 0 -->
      <g style="fill: #333333" transform="translate(6.336802 66.779667) scale(0.03 -0.03)">
       <defs>
        <path id="Helvetica-30" d="M 1731 4475 
Q 2600 4475 2988 3759 
Q 3288 3206 3288 2244 
Q 3288 1331 3016 734 
Q 2622 -122 1728 -122 
Q 922 -122 528 578 
Q 200 1163 200 2147 
Q 200 2909 397 3456 
Q 766 4475 1731 4475 
z
M 1725 391 
Q 2163 391 2422 778 
Q 2681 1166 2681 2222 
Q 2681 2984 2493 3476 
Q 2306 3969 1766 3969 
Q 1269 3969 1039 3501 
Q 809 3034 809 2125 
Q 809 1441 956 1025 
Q 1181 391 1725 391 
z
" transform="scale(0.015625)"/>
       </defs>
       <use xlink:href="#Helvetica-30"/>
      </g>
     </g>
    </g>
    <g id="ytick_2">
     <g id="line2d_2">
      <g>
       <use xlink:href="#mdbbceea955" x="10.005084" y="56.899737" style="fill: #777777; stroke: #777777; stroke-width: 0.5"/>
      </g>
     </g>
     <g id="text_4">
      <!-- 100 -->
      <g style="fill: #333333" transform="translate(3.00024 57.975753) scale(0.03 -0.03)">
       <use xlink:href="#Helvetica-31"/>
       <use xlink:href="#Helvetica-30" x="55.615234"/>
       <use xlink:href="#Helvetica-30" x="111.230469"/>
      </g>
     </g>
    </g>
    <g id="ytick_3">
     <g id="line2d_3">
      <g>
       <use xlink:href="#mdbbceea955" x="10.005084" y="48.095824" style="fill: #777777; stroke: #777777; stroke-width: 0.5"/>
      </g>
     </g>
     <g id="text_5">
      <!-- 200 -->
      <g style="fill: #333333" transform="translate(3.00024 49.171839) scale(0.03 -0.03)">
       <defs>
        <path id="Helvetica-32" d="M 200 0 
Q 231 578 439 1006 
Q 647 1434 1250 1784 
L 1850 2131 
Q 2253 2366 2416 2531 
Q 2672 2791 2672 3125 
Q 2672 3516 2437 3745 
Q 2203 3975 1813 3975 
Q 1234 3975 1013 3538 
Q 894 3303 881 2888 
L 309 2888 
Q 319 3472 525 3841 
Q 891 4491 1816 4491 
Q 2584 4491 2939 4075 
Q 3294 3659 3294 3150 
Q 3294 2613 2916 2231 
Q 2697 2009 2131 1694 
L 1703 1456 
Q 1397 1288 1222 1134 
Q 909 863 828 531 
L 3272 531 
L 3272 0 
L 200 0 
z
" transform="scale(0.015625)"/>
       </defs>
       <use xlink:href="#Helvetica-32"/>
       <use xlink:href="#Helvetica-30" x="55.615234"/>
       <use xlink:href="#Helvetica-30" x="111.230469"/>
      </g>
     </g>
    </g>
    <g id="ytick_4">
     <g id="line2d_4">
      <g>
       <use xlink:href="#mdbbceea955" x="10.005084" y="39.29191" style="fill: #777777; stroke: #777777; stroke-width: 0.5"/>
      </g>
     </g>
     <g id="text_6">
      <!-- 300 -->
      <g style="fill: #333333" transform="translate(3.00024 40.367926) scale(0.03 -0.03)">
       <use xlink:href="#Helvetica-33"/>
       <use xlink:href="#Helvetica-30" x="55.615234"/>
       <use xlink:href="#Helvetica-30" x="111.230469"/>
      </g>
     </g>
    </g>
    <g id="ytick_5">
     <g id="line2d_5">
      <g>
       <use xlink:href="#mdbbceea955" x="10.005084" y="30.487997" style="fill: #777777; stroke: #777777; stroke-width: 0.5"/>
      </g>
     </g>
     <g id="text_7">
      <!-- 400 -->
      <g style="fill: #333333" transform="translate(3.00024 31.564012) scale(0.03 -0.03)">
       <defs>
        <path id="Helvetica-34" d="M 2116 1584 
L 2116 3613 
L 681 1584 
L 2116 1584 
z
M 2125 0 
L 2125 1094 
L 163 1094 
L 163 1644 
L 2213 4488 
L 2688 4488 
L 2688 1584 
L 3347 1584 
L 3347 1094 
L 2688 1094 
L 2688 0 
L 2125 0 
z
" transform="scale(0.015625)"/>
       </defs>
       <use xlink:href="#Helvetica-34"/>
       <use xlink:href="#Helvetica-30" x="55.615234"/>
       <use xlink:href="#Helvetica-30" x="111.230469"/>
      </g>
     </g>
    </g>
    <g id="ytick_6">
     <g id="line2d_6">
      <g>
       <use xlink:href="#mdbbceea955" x="10.005084" y="21.684083" style="fill: #777777; stroke: #777777; stroke-width: 0.5"/>
      </g>
     </g>
     <g id="text_8">
      <!-- 500 -->
      <g style="fill: #333333" transform="translate(3.00024 22.760099) scale(0.03 -0.03)">
       <defs>
        <path id="Helvetica-35" d="M 791 1141 
Q 847 659 1238 475 
Q 1438 381 1700 381 
Q 2200 381 2440 700 
Q 2681 1019 2681 1406 
Q 2681 1875 2395 2131 
Q 2109 2388 1709 2388 
Q 1419 2388 1211 2275 
Q 1003 2163 856 1963 
L 369 1991 
L 709 4400 
L 3034 4400 
L 3034 3856 
L 1131 3856 
L 941 2613 
Q 1097 2731 1238 2791 
Q 1488 2894 1816 2894 
Q 2431 2894 2859 2497 
Q 3288 2100 3288 1491 
Q 3288 856 2895 371 
Q 2503 -113 1644 -113 
Q 1097 -113 676 195 
Q 256 503 206 1141 
L 791 1141 
z
" transform="scale(0.015625)"/>
       </defs>
       <use xlink:href="#Helvetica-35"/>
       <use xlink:href="#Helvetica-30" x="55.615234"/>
       <use xlink:href="#Helvetica-30" x="111.230469"/>
      </g>
     </g>
    </g>
    <g id="ytick_7">
     <g id="line2d_7">
      <g>
       <use xlink:href="#mdbbceea955" x="10.005084" y="12.880169" style="fill: #777777; stroke: #777777; stroke-width: 0.5"/>
      </g>
     </g>
     <g id="text_9">
      <!-- 600 -->
      <g style="fill: #333333" transform="translate(3.00024 13.956185) scale(0.03 -0.03)">
       <defs>
        <path id="Helvetica-36" d="M 1872 4494 
Q 2622 4494 2917 4105 
Q 3213 3716 3213 3303 
L 2656 3303 
Q 2606 3569 2497 3719 
Q 2294 4000 1881 4000 
Q 1409 4000 1131 3564 
Q 853 3128 822 2316 
Q 1016 2600 1309 2741 
Q 1578 2866 1909 2866 
Q 2472 2866 2890 2506 
Q 3309 2147 3309 1434 
Q 3309 825 2912 354 
Q 2516 -116 1781 -116 
Q 1153 -116 697 361 
Q 241 838 241 1966 
Q 241 2800 444 3381 
Q 834 4494 1872 4494 
z
M 1831 384 
Q 2275 384 2495 682 
Q 2716 981 2716 1388 
Q 2716 1731 2519 2042 
Q 2322 2353 1803 2353 
Q 1441 2353 1167 2112 
Q 894 1872 894 1388 
Q 894 963 1142 673 
Q 1391 384 1831 384 
z
" transform="scale(0.015625)"/>
       </defs>
       <use xlink:href="#Helvetica-36"/>
       <use xlink:href="#Helvetica-30" x="55.615234"/>
       <use xlink:href="#Helvetica-30" x="111.230469"/>
      </g>
     </g>
    </g>
    <g id="ytick_8">
     <g id="line2d_8">
      <g>
       <use xlink:href="#mdbbceea955" x="10.005084" y="4.076256" style="fill: #777777; stroke: #777777; stroke-width: 0.5"/>
      </g>
     </g>
     <g id="text_10">
      <!-- 700 -->
      <g style="fill: #333333" transform="translate(3.00024 5.152271) scale(0.03 -0.03)">
       <use xlink:href="#Helvetica-37"/>
       <use xlink:href="#Helvetica-30" x="55.615234"/>
       <use xlink:href="#Helvetica-30" x="111.230469"/>
      </g>
     </g>
    </g>
   </g>
   <g id="PolyCollection_1">
    <defs>
     <path id="m7d88eb98a7" d="M 22.635211 -17.714696 
L 18.952294 -17.714696 
L 18.606599 -17.850052 
L 18.224225 -17.985408 
L 17.807417 -18.120765 
L 17.359808 -18.256121 
L 16.886436 -18.391478 
L 16.39369 -18.526834 
L 15.889185 -18.66219 
L 15.38156 -18.797547 
L 14.880223 -18.932903 
L 14.395039 -19.068259 
L 13.935995 -19.203616 
L 13.51284 -19.338972 
L 13.134746 -19.474329 
L 12.809972 -19.609685 
L 12.545586 -19.745041 
L 12.347217 -19.880398 
L 12.218874 -20.015754 
L 12.162818 -20.15111 
L 12.179498 -20.286467 
L 12.267544 -20.421823 
L 12.423813 -20.557179 
L 12.643498 -20.692536 
L 12.920275 -20.827892 
L 13.246509 -20.963249 
L 13.613498 -21.098605 
L 14.011758 -21.233961 
L 14.431339 -21.369318 
L 14.862166 -21.504674 
L 15.29439 -21.64003 
L 15.718736 -21.775387 
L 16.126833 -21.910743 
L 16.511505 -22.0461 
L 16.86701 -22.181456 
L 17.189207 -22.316812 
L 17.47565 -22.452169 
L 17.725589 -22.587525 
L 17.939885 -22.722881 
L 18.120851 -22.858238 
L 18.272009 -22.993594 
L 18.397805 -23.128951 
L 18.503282 -23.264307 
L 18.593742 -23.399663 
L 18.67442 -23.53502 
L 18.75018 -23.670376 
L 18.825274 -23.805732 
L 18.903146 -23.941089 
L 18.986313 -24.076445 
L 19.076324 -24.211802 
L 19.173769 -24.347158 
L 19.278371 -24.482514 
L 19.3891 -24.617871 
L 19.504346 -24.753227 
L 19.622085 -24.888583 
L 19.740064 -25.02394 
L 19.855962 -25.159296 
L 19.967539 -25.294653 
L 20.072738 -25.430009 
L 20.169771 -25.565365 
L 20.257152 -25.700722 
L 20.333713 -25.836078 
L 20.398579 -25.971434 
L 20.451136 -26.106791 
L 20.490981 -26.242147 
L 20.517868 -26.377504 
L 20.531667 -26.51286 
L 20.532327 -26.648216 
L 20.519857 -26.783573 
L 20.49433 -26.918929 
L 20.455902 -27.054285 
L 20.40485 -27.189642 
L 20.341625 -27.324998 
L 20.266908 -27.460355 
L 20.181673 -27.595711 
L 20.087234 -27.731067 
L 19.985285 -27.866424 
L 19.87791 -28.00178 
L 19.76757 -28.137136 
L 19.657055 -28.272493 
L 19.549403 -28.407849 
L 19.447793 -28.543206 
L 19.355412 -28.678562 
L 19.275302 -28.813918 
L 19.210211 -28.949275 
L 19.162441 -29.084631 
L 19.133723 -29.219987 
L 19.125114 -29.355344 
L 19.136941 -29.4907 
L 19.168775 -29.626057 
L 19.219466 -29.761413 
L 19.287208 -29.896769 
L 19.36965 -30.032126 
L 19.464027 -30.167482 
L 19.567321 -30.302838 
L 19.676411 -30.438195 
L 19.788236 -30.573551 
L 19.899926 -30.708908 
L 20.008918 -30.844264 
L 20.113039 -30.97962 
L 20.210562 -31.114977 
L 21.376944 -31.114977 
L 21.376944 -31.114977 
L 21.474466 -30.97962 
L 21.578588 -30.844264 
L 21.68758 -30.708908 
L 21.79927 -30.573551 
L 21.911095 -30.438195 
L 22.020185 -30.302838 
L 22.123478 -30.167482 
L 22.217856 -30.032126 
L 22.300298 -29.896769 
L 22.36804 -29.761413 
L 22.418731 -29.626057 
L 22.450565 -29.4907 
L 22.462391 -29.355344 
L 22.453783 -29.219987 
L 22.425065 -29.084631 
L 22.377295 -28.949275 
L 22.312203 -28.813918 
L 22.232094 -28.678562 
L 22.139712 -28.543206 
L 22.038103 -28.407849 
L 21.930451 -28.272493 
L 21.819935 -28.137136 
L 21.709596 -28.00178 
L 21.602221 -27.866424 
L 21.500272 -27.731067 
L 21.405833 -27.595711 
L 21.320597 -27.460355 
L 21.245881 -27.324998 
L 21.182655 -27.189642 
L 21.131604 -27.054285 
L 21.093176 -26.918929 
L 21.067648 -26.783573 
L 21.055178 -26.648216 
L 21.055838 -26.51286 
L 21.069638 -26.377504 
L 21.096525 -26.242147 
L 21.13637 -26.106791 
L 21.188927 -25.971434 
L 21.253793 -25.836078 
L 21.330354 -25.700722 
L 21.417735 -25.565365 
L 21.514768 -25.430009 
L 21.619967 -25.294653 
L 21.731543 -25.159296 
L 21.847442 -25.02394 
L 21.965421 -24.888583 
L 22.08316 -24.753227 
L 22.198405 -24.617871 
L 22.309135 -24.482514 
L 22.413736 -24.347158 
L 22.511182 -24.211802 
L 22.601192 -24.076445 
L 22.68436 -23.941089 
L 22.762231 -23.805732 
L 22.837325 -23.670376 
L 22.913086 -23.53502 
L 22.993763 -23.399663 
L 23.084224 -23.264307 
L 23.189701 -23.128951 
L 23.315497 -22.993594 
L 23.466655 -22.858238 
L 23.64762 -22.722881 
L 23.861917 -22.587525 
L 24.111855 -22.452169 
L 24.398299 -22.316812 
L 24.720496 -22.181456 
L 25.076 -22.0461 
L 25.460673 -21.910743 
L 25.86877 -21.775387 
L 26.293116 -21.64003 
L 26.725339 -21.504674 
L 27.156166 -21.369318 
L 27.575748 -21.233961 
L 27.974008 -21.098605 
L 28.340997 -20.963249 
L 28.667231 -20.827892 
L 28.944008 -20.692536 
L 29.163692 -20.557179 
L 29.319962 -20.421823 
L 29.408008 -20.286467 
L 29.424688 -20.15111 
L 29.368632 -20.015754 
L 29.240289 -19.880398 
L 29.04192 -19.745041 
L 28.777533 -19.609685 
L 28.45276 -19.474329 
L 28.074665 -19.338972 
L 27.651511 -19.203616 
L 27.192466 -19.068259 
L 26.707283 -18.932903 
L 26.205946 -18.797547 
L 25.698321 -18.66219 
L 25.193816 -18.526834 
L 24.70107 -18.391478 
L 24.227698 -18.256121 
L 23.780088 -18.120765 
L 23.36328 -17.985408 
L 22.980906 -17.850052 
L 22.635211 -17.714696 
z
" style="stroke: #7c7c7c; stroke-width: 0.15"/>
    </defs>
    <g clip-path="url(#p784849be9c)">
     <use xlink:href="#m7d88eb98a7" x="0" y="84.96" style="fill: #cfcfcf; stroke: #7c7c7c; stroke-width: 0.15"/>
    </g>
   </g>
   <g id="PolyCollection_2">
    <defs>
     <path id="maab32ed06e" d="M 44.211312 -17.487732 
L 40.53087 -17.487732 
L 40.157542 -17.624591 
L 39.74031 -17.761449 
L 39.281748 -17.898307 
L 38.786458 -18.035166 
L 38.261156 -18.172024 
L 37.714647 -18.308882 
L 37.157638 -18.44574 
L 36.602416 -18.582599 
L 36.062374 -18.719457 
L 35.55141 -18.856315 
L 35.083237 -18.993174 
L 34.670648 -19.130032 
L 34.324781 -19.26689 
L 34.05446 -19.403749 
L 33.865653 -19.540607 
L 33.7611 -19.677465 
L 33.740156 -19.814324 
L 33.798853 -19.951182 
L 33.930197 -20.08804 
L 34.124662 -20.224899 
L 34.370862 -20.361757 
L 34.656319 -20.498615 
L 34.968298 -20.635474 
L 35.294602 -20.772332 
L 35.624293 -20.90919 
L 35.948277 -21.046049 
L 36.259692 -21.182907 
L 36.55411 -21.319765 
L 36.829524 -21.456624 
L 37.086141 -21.593482 
L 37.326026 -21.73034 
L 37.552623 -21.867198 
L 37.770212 -22.004057 
L 37.983362 -22.140915 
L 38.196415 -22.277773 
L 38.413053 -22.414632 
L 38.635973 -22.55149 
L 38.86669 -22.688348 
L 39.105464 -22.825207 
L 39.35136 -22.962065 
L 39.602393 -23.098923 
L 39.855761 -23.235782 
L 40.108122 -23.37264 
L 40.35588 -23.509498 
L 40.595466 -23.646357 
L 40.823583 -23.783215 
L 41.037399 -23.920073 
L 41.234685 -24.056932 
L 41.413883 -24.19379 
L 41.574124 -24.330648 
L 41.71519 -24.467507 
L 41.837441 -24.604365 
L 41.941707 -24.741223 
L 42.029168 -24.878082 
L 42.101239 -25.01494 
L 42.159439 -25.151798 
L 42.205295 -25.288657 
L 42.240243 -25.425515 
L 42.26556 -25.562373 
L 42.282307 -25.699231 
L 42.291298 -25.83609 
L 42.293084 -25.972948 
L 42.287948 -26.109806 
L 42.275927 -26.246665 
L 42.256837 -26.383523 
L 42.230318 -26.520381 
L 42.195885 -26.65724 
L 42.153002 -26.794098 
L 42.101151 -26.930956 
L 42.039916 -27.067815 
L 41.969073 -27.204673 
L 41.888669 -27.341531 
L 41.799104 -27.47839 
L 41.701197 -27.615248 
L 41.596224 -27.752106 
L 41.485941 -27.888965 
L 41.372567 -28.025823 
L 41.258738 -28.162681 
L 41.147421 -28.29954 
L 41.041795 -28.436398 
L 40.945113 -28.573256 
L 40.860534 -28.710115 
L 40.790956 -28.846973 
L 40.738851 -28.983831 
L 40.706121 -29.12069 
L 40.693982 -29.257548 
L 40.702889 -29.394406 
L 40.732508 -29.531264 
L 40.781737 -29.668123 
L 40.848774 -29.804981 
L 40.931225 -29.941839 
L 41.026248 -30.078698 
L 41.130715 -30.215556 
L 41.241379 -30.352414 
L 41.355042 -30.489273 
L 41.468702 -30.626131 
L 41.579674 -30.762989 
L 41.685683 -30.899848 
L 41.784919 -31.036706 
L 42.957263 -31.036706 
L 42.957263 -31.036706 
L 43.056499 -30.899848 
L 43.162507 -30.762989 
L 43.273479 -30.626131 
L 43.387139 -30.489273 
L 43.500803 -30.352414 
L 43.611467 -30.215556 
L 43.715934 -30.078698 
L 43.810957 -29.941839 
L 43.893408 -29.804981 
L 43.960445 -29.668123 
L 44.009674 -29.531264 
L 44.039293 -29.394406 
L 44.0482 -29.257548 
L 44.036061 -29.12069 
L 44.003331 -28.983831 
L 43.951226 -28.846973 
L 43.881648 -28.710115 
L 43.797068 -28.573256 
L 43.700387 -28.436398 
L 43.594761 -28.29954 
L 43.483443 -28.162681 
L 43.369615 -28.025823 
L 43.256241 -27.888965 
L 43.145958 -27.752106 
L 43.040985 -27.615248 
L 42.943077 -27.47839 
L 42.853513 -27.341531 
L 42.773109 -27.204673 
L 42.702266 -27.067815 
L 42.641031 -26.930956 
L 42.58918 -26.794098 
L 42.546297 -26.65724 
L 42.511864 -26.520381 
L 42.485344 -26.383523 
L 42.466255 -26.246665 
L 42.454234 -26.109806 
L 42.449098 -25.972948 
L 42.450884 -25.83609 
L 42.459875 -25.699231 
L 42.476622 -25.562373 
L 42.501939 -25.425515 
L 42.536887 -25.288657 
L 42.582742 -25.151798 
L 42.640943 -25.01494 
L 42.713013 -24.878082 
L 42.800475 -24.741223 
L 42.90474 -24.604365 
L 43.026991 -24.467507 
L 43.168058 -24.330648 
L 43.328299 -24.19379 
L 43.507497 -24.056932 
L 43.704782 -23.920073 
L 43.918599 -23.783215 
L 44.146716 -23.646357 
L 44.386302 -23.509498 
L 44.634059 -23.37264 
L 44.886421 -23.235782 
L 45.139789 -23.098923 
L 45.390822 -22.962065 
L 45.636718 -22.825207 
L 45.875492 -22.688348 
L 46.106208 -22.55149 
L 46.329128 -22.414632 
L 46.545767 -22.277773 
L 46.75882 -22.140915 
L 46.97197 -22.004057 
L 47.189559 -21.867198 
L 47.416156 -21.73034 
L 47.656041 -21.593482 
L 47.912658 -21.456624 
L 48.188072 -21.319765 
L 48.48249 -21.182907 
L 48.793905 -21.046049 
L 49.117889 -20.90919 
L 49.44758 -20.772332 
L 49.773884 -20.635474 
L 50.085862 -20.498615 
L 50.37132 -20.361757 
L 50.61752 -20.224899 
L 50.811985 -20.08804 
L 50.943329 -19.951182 
L 51.002026 -19.814324 
L 50.981082 -19.677465 
L 50.876529 -19.540607 
L 50.687722 -19.403749 
L 50.417401 -19.26689 
L 50.071534 -19.130032 
L 49.658945 -18.993174 
L 49.190772 -18.856315 
L 48.679808 -18.719457 
L 48.139766 -18.582599 
L 47.584544 -18.44574 
L 47.027535 -18.308882 
L 46.481025 -18.172024 
L 45.955724 -18.035166 
L 45.460434 -17.898307 
L 45.001872 -17.761449 
L 44.58464 -17.624591 
L 44.211312 -17.487732 
z
" style="stroke: #7c7c7c; stroke-width: 0.15"/>
    </defs>
    <g clip-path="url(#p784849be9c)">
     <use xlink:href="#maab32ed06e" x="0" y="84.96" style="fill: #f3f3ae; stroke: #7c7c7c; stroke-width: 0.15"/>
    </g>
   </g>
   <g id="line2d_9">
    <path d="M 20.793753 65.475193 
L 20.793753 61.13136 
" clip-path="url(#p784849be9c)" style="fill: none; stroke: #8c8c8c; stroke-width: 0.75; stroke-linecap: round"/>
   </g>
   <g id="line2d_10">
    <path d="M 20.793753 65.363609 
L 20.793753 63.169001 
" clip-path="url(#p784849be9c)" style="fill: none; stroke: #8c8c8c; stroke-width: 4; stroke-linecap: round"/>
   </g>
   <g id="line2d_11">
    <path d="M 20.793753 64.240888 
" clip-path="url(#p784849be9c)" style="fill: none; stroke: #7c7c7c; stroke-width: 1.2; stroke-linecap: round"/>
    <defs>
     <path id="mdcd35b6b3c" d="M 0 0.833333 
C 0.221003 0.833333 0.432983 0.745528 0.589256 0.589256 
C 0.745528 0.432983 0.833333 0.221003 0.833333 0 
C 0.833333 -0.221003 0.745528 -0.432983 0.589256 -0.589256 
C 0.432983 -0.745528 0.221003 -0.833333 0 -0.833333 
C -0.221003 -0.833333 -0.432983 -0.745528 -0.589256 -0.589256 
C -0.745528 -0.432983 -0.833333 -0.221003 -0.833333 0 
C -0.833333 0.221003 -0.745528 0.432983 -0.589256 0.589256 
C -0.432983 0.745528 -0.221003 0.833333 0 0.833333 
z
" style="stroke: #ffffff; stroke-width: 0.8"/>
    </defs>
    <g clip-path="url(#p784849be9c)">
     <use xlink:href="#mdcd35b6b3c" x="20.793753" y="64.240888" style="fill: #ffffff; stroke: #ffffff; stroke-width: 0.8"/>
    </g>
   </g>
   <g id="line2d_12">
    <path d="M 42.371091 65.703651 
L 42.371091 62.522904 
" clip-path="url(#p784849be9c)" style="fill: none; stroke: #8c8c8c; stroke-width: 0.75; stroke-linecap: round"/>
   </g>
   <g id="line2d_13">
    <path d="M 42.371091 65.342547 
L 42.371091 62.821185 
" clip-path="url(#p784849be9c)" style="fill: none; stroke: #8c8c8c; stroke-width: 4; stroke-linecap: round"/>
   </g>
   <g id="line2d_14">
    <path d="M 42.371091 65.088655 
" clip-path="url(#p784849be9c)" style="fill: none; stroke: #7c7c7c; stroke-width: 1.2; stroke-linecap: round"/>
    <g clip-path="url(#p784849be9c)">
     <use xlink:href="#mdcd35b6b3c" x="42.371091" y="65.088655" style="fill: #ffffff; stroke: #ffffff; stroke-width: 0.8"/>
    </g>
   </g>
   <g id="patch_3">
    <path d="M 10.005084 74.419526 
L 10.005084 4.076256 
" style="fill: none; stroke: #777777; stroke-width: 0.5; stroke-linejoin: miter; stroke-linecap: square"/>
   </g>
   <g id="patch_4">
    <path d="M 10.005084 76.919526 
L 53.15976 76.919526 
" style="fill: none; stroke: #777777; stroke-width: 0.5; stroke-linejoin: miter; stroke-linecap: square"/>
   </g>
  </g>
 </g>
 <defs>
  <clipPath id="p784849be9c">
   <rect x="10.005084" y="4.076256" width="43.154676" height="70.34327"/>
  </clipPath>
 </defs>
</svg>
