<?xml version="1.0" encoding="utf-8" standalone="no"?>
<!DOCTYPE svg PUBLIC "-//W3C//DTD SVG 1.1//EN"
  "http://www.w3.org/Graphics/SVG/1.1/DTD/svg11.dtd">
<svg xmlns:xlink="http://www.w3.org/1999/xlink" width="56.16pt" height="84.96pt" viewBox="0 0 56.16 84.96" xmlns="http://www.w3.org/2000/svg" version="1.1">
 <metadata>
  <rdf:RDF xmlns:dc="http://purl.org/dc/elements/1.1/" xmlns:cc="http://creativecommons.org/ns#" xmlns:rdf="http://www.w3.org/1999/02/22-rdf-syntax-ns#">
   <cc:Work>
    <dc:type rdf:resource="http://purl.org/dc/dcmitype/StillImage"/>
    <dc:date>2024-05-27T15:37:08.254793</dc:date>
    <dc:format>image/svg+xml</dc:format>
    <dc:creator>
     <cc:Agent>
      <dc:title>Matplotlib v3.8.3, https://matplotlib.org/</dc:title>
     </cc:Agent>
    </dc:creator>
   </cc:Work>
  </rdf:RDF>
 </metadata>
 <defs>
  <style type="text/css">*{stroke-linejoin: round; stroke-linecap: butt}</style>
 </defs>
 <g id="figure_1">
  <g id="patch_1">
   <path d="M 0 84.96 
L 56.16 84.96 
L 56.16 0 
L 0 0 
z
" style="fill: #ffffff"/>
  </g>
  <g id="axes_1">
   <g id="patch_2">
    <path d="M 11.673365 74.419526 
L 53.15976 74.419526 
L 53.15976 4.076256 
L 11.673365 4.076256 
z
" style="fill: #ffffff"/>
   </g>
   <g id="matplotlib.axis_1">
    <g id="xtick_1">
     <g id="text_1">
      <!-- ILC2 -->
      <g style="fill: #333333" transform="translate(18.348636 81.230229) scale(0.035 -0.035)">
       <defs>
        <path id="Helvetica-49" d="M 628 4591 
L 1256 4591 
L 1256 0 
L 628 0 
L 628 4591 
z
" transform="scale(0.015625)"/>
        <path id="Helvetica-4c" d="M 488 4591 
L 1109 4591 
L 1109 547 
L 3434 547 
L 3434 0 
L 488 0 
L 488 4591 
z
" transform="scale(0.015625)"/>
        <path id="Helvetica-43" d="M 2422 4716 
Q 3294 4716 3775 4256 
Q 4256 3797 4309 3213 
L 3703 3213 
Q 3600 3656 3292 3915 
Q 2984 4175 2428 4175 
Q 1750 4175 1333 3698 
Q 916 3222 916 2238 
Q 916 1431 1292 929 
Q 1669 428 2416 428 
Q 3103 428 3463 956 
Q 3653 1234 3747 1688 
L 4353 1688 
Q 4272 963 3816 472 
Q 3269 -119 2341 -119 
Q 1541 -119 997 366 
Q 281 1006 281 2344 
Q 281 3359 819 4009 
Q 1400 4716 2422 4716 
z
M 2297 4716 
L 2297 4716 
z
" transform="scale(0.015625)"/>
        <path id="Helvetica-32" d="M 200 0 
Q 231 578 439 1006 
Q 647 1434 1250 1784 
L 1850 2131 
Q 2253 2366 2416 2531 
Q 2672 2791 2672 3125 
Q 2672 3516 2437 3745 
Q 2203 3975 1813 3975 
Q 1234 3975 1013 3538 
Q 894 3303 881 2888 
L 309 2888 
Q 319 3472 525 3841 
Q 891 4491 1816 4491 
Q 2584 4491 2939 4075 
Q 3294 3659 3294 3150 
Q 3294 2613 2916 2231 
Q 2697 2009 2131 1694 
L 1703 1456 
Q 1397 1288 1222 1134 
Q 909 863 828 531 
L 3272 531 
L 3272 0 
L 200 0 
z
" transform="scale(0.015625)"/>
       </defs>
       <use xlink:href="#Helvetica-49"/>
       <use xlink:href="#Helvetica-4c" x="27.783203"/>
       <use xlink:href="#Helvetica-43" x="83.398438"/>
       <use xlink:href="#Helvetica-32" x="155.615234"/>
      </g>
     </g>
    </g>
    <g id="xtick_2">
     <g id="text_2">
      <!-- TH2 -->
      <g style="fill: #333333" transform="translate(39.482302 81.230229) scale(0.035 -0.035)">
       <defs>
        <path id="Helvetica-54" d="M 3828 4591 
L 3828 4044 
L 2281 4044 
L 2281 0 
L 1650 0 
L 1650 4044 
L 103 4044 
L 103 4591 
L 3828 4591 
z
" transform="scale(0.015625)"/>
        <path id="Helvetica-48" d="M 503 4591 
L 1131 4591 
L 1131 2694 
L 3519 2694 
L 3519 4591 
L 4147 4591 
L 4147 0 
L 3519 0 
L 3519 2147 
L 1131 2147 
L 1131 0 
L 503 0 
L 503 4591 
z
" transform="scale(0.015625)"/>
       </defs>
       <use xlink:href="#Helvetica-54"/>
       <use xlink:href="#Helvetica-48" x="61.083984"/>
       <use xlink:href="#Helvetica-32" x="133.300781"/>
      </g>
     </g>
    </g>
   </g>
   <g id="matplotlib.axis_2">
    <g id="ytick_1">
     <g id="line2d_1">
      <defs>
       <path id="m713f8c1c96" d="M 0 0 
L -1 0 
" style="stroke: #777777; stroke-width: 0.5"/>
      </defs>
      <g>
       <use xlink:href="#m713f8c1c96" x="11.673365" y="64.727463" style="fill: #777777; stroke: #777777; stroke-width: 0.5"/>
      </g>
     </g>
     <g id="text_3">
      <!-- 0 -->
      <g style="fill: #333333" transform="translate(8.005084 65.803478) scale(0.03 -0.03)">
       <defs>
        <path id="Helvetica-30" d="M 1731 4475 
Q 2600 4475 2988 3759 
Q 3288 3206 3288 2244 
Q 3288 1331 3016 734 
Q 2622 -122 1728 -122 
Q 922 -122 528 578 
Q 200 1163 200 2147 
Q 200 2909 397 3456 
Q 766 4475 1731 4475 
z
M 1725 391 
Q 2163 391 2422 778 
Q 2681 1166 2681 2222 
Q 2681 2984 2493 3476 
Q 2306 3969 1766 3969 
Q 1269 3969 1039 3501 
Q 809 3034 809 2125 
Q 809 1441 956 1025 
Q 1181 391 1725 391 
z
" transform="scale(0.015625)"/>
       </defs>
       <use xlink:href="#Helvetica-30"/>
      </g>
     </g>
    </g>
    <g id="ytick_2">
     <g id="line2d_2">
      <g>
       <use xlink:href="#m713f8c1c96" x="11.673365" y="52.597221" style="fill: #777777; stroke: #777777; stroke-width: 0.5"/>
      </g>
     </g>
     <g id="text_4">
      <!-- 1000 -->
      <g style="fill: #333333" transform="translate(3.00024 53.673237) scale(0.03 -0.03)">
       <defs>
        <path id="Helvetica-31" d="M 613 3169 
L 613 3600 
Q 1222 3659 1462 3798 
Q 1703 3938 1822 4456 
L 2266 4456 
L 2266 0 
L 1666 0 
L 1666 3169 
L 613 3169 
z
" transform="scale(0.015625)"/>
       </defs>
       <use xlink:href="#Helvetica-31"/>
       <use xlink:href="#Helvetica-30" x="55.615234"/>
       <use xlink:href="#Helvetica-30" x="111.230469"/>
       <use xlink:href="#Helvetica-30" x="166.845703"/>
      </g>
     </g>
    </g>
    <g id="ytick_3">
     <g id="line2d_3">
      <g>
       <use xlink:href="#m713f8c1c96" x="11.673365" y="40.46698" style="fill: #777777; stroke: #777777; stroke-width: 0.5"/>
      </g>
     </g>
     <g id="text_5">
      <!-- 2000 -->
      <g style="fill: #333333" transform="translate(3.00024 41.542996) scale(0.03 -0.03)">
       <use xlink:href="#Helvetica-32"/>
       <use xlink:href="#Helvetica-30" x="55.615234"/>
       <use xlink:href="#Helvetica-30" x="111.230469"/>
       <use xlink:href="#Helvetica-30" x="166.845703"/>
      </g>
     </g>
    </g>
    <g id="ytick_4">
     <g id="line2d_4">
      <g>
       <use xlink:href="#m713f8c1c96" x="11.673365" y="28.336738" style="fill: #777777; stroke: #777777; stroke-width: 0.5"/>
      </g>
     </g>
     <g id="text_6">
      <!-- 3000 -->
      <g style="fill: #333333" transform="translate(3.00024 29.412754) scale(0.03 -0.03)">
       <defs>
        <path id="Helvetica-33" d="M 1663 -122 
Q 869 -122 511 314 
Q 153 750 153 1375 
L 741 1375 
Q 778 941 903 744 
Q 1122 391 1694 391 
Q 2138 391 2406 628 
Q 2675 866 2675 1241 
Q 2675 1703 2392 1887 
Q 2109 2072 1606 2072 
Q 1550 2072 1492 2070 
Q 1434 2069 1375 2066 
L 1375 2563 
Q 1463 2553 1522 2550 
Q 1581 2547 1650 2547 
Q 1966 2547 2169 2647 
Q 2525 2822 2525 3272 
Q 2525 3606 2287 3787 
Q 2050 3969 1734 3969 
Q 1172 3969 956 3594 
Q 838 3388 822 3006 
L 266 3006 
Q 266 3506 466 3856 
Q 809 4481 1675 4481 
Q 2359 4481 2734 4176 
Q 3109 3872 3109 3294 
Q 3109 2881 2888 2625 
Q 2750 2466 2531 2375 
Q 2884 2278 3082 2001 
Q 3281 1725 3281 1325 
Q 3281 684 2859 281 
Q 2438 -122 1663 -122 
z
" transform="scale(0.015625)"/>
       </defs>
       <use xlink:href="#Helvetica-33"/>
       <use xlink:href="#Helvetica-30" x="55.615234"/>
       <use xlink:href="#Helvetica-30" x="111.230469"/>
       <use xlink:href="#Helvetica-30" x="166.845703"/>
      </g>
     </g>
    </g>
    <g id="ytick_5">
     <g id="line2d_5">
      <g>
       <use xlink:href="#m713f8c1c96" x="11.673365" y="16.206497" style="fill: #777777; stroke: #777777; stroke-width: 0.5"/>
      </g>
     </g>
     <g id="text_7">
      <!-- 4000 -->
      <g style="fill: #333333" transform="translate(3.00024 17.282513) scale(0.03 -0.03)">
       <defs>
        <path id="Helvetica-34" d="M 2116 1584 
L 2116 3613 
L 681 1584 
L 2116 1584 
z
M 2125 0 
L 2125 1094 
L 163 1094 
L 163 1644 
L 2213 4488 
L 2688 4488 
L 2688 1584 
L 3347 1584 
L 3347 1094 
L 2688 1094 
L 2688 0 
L 2125 0 
z
" transform="scale(0.015625)"/>
       </defs>
       <use xlink:href="#Helvetica-34"/>
       <use xlink:href="#Helvetica-30" x="55.615234"/>
       <use xlink:href="#Helvetica-30" x="111.230469"/>
       <use xlink:href="#Helvetica-30" x="166.845703"/>
      </g>
     </g>
    </g>
    <g id="ytick_6">
     <g id="line2d_6">
      <g>
       <use xlink:href="#m713f8c1c96" x="11.673365" y="4.076256" style="fill: #777777; stroke: #777777; stroke-width: 0.5"/>
      </g>
     </g>
     <g id="text_8">
      <!-- 5000 -->
      <g style="fill: #333333" transform="translate(3.00024 5.152271) scale(0.03 -0.03)">
       <defs>
        <path id="Helvetica-35" d="M 791 1141 
Q 847 659 1238 475 
Q 1438 381 1700 381 
Q 2200 381 2440 700 
Q 2681 1019 2681 1406 
Q 2681 1875 2395 2131 
Q 2109 2388 1709 2388 
Q 1419 2388 1211 2275 
Q 1003 2163 856 1963 
L 369 1991 
L 709 4400 
L 3034 4400 
L 3034 3856 
L 1131 3856 
L 941 2613 
Q 1097 2731 1238 2791 
Q 1488 2894 1816 2894 
Q 2431 2894 2859 2497 
Q 3288 2100 3288 1491 
Q 3288 856 2895 371 
Q 2503 -113 1644 -113 
Q 1097 -113 676 195 
Q 256 503 206 1141 
L 791 1141 
z
" transform="scale(0.015625)"/>
       </defs>
       <use xlink:href="#Helvetica-35"/>
       <use xlink:href="#Helvetica-30" x="55.615234"/>
       <use xlink:href="#Helvetica-30" x="111.230469"/>
       <use xlink:href="#Helvetica-30" x="166.845703"/>
      </g>
     </g>
    </g>
   </g>
   <g id="PolyCollection_1">
    <defs>
     <path id="m3ef6b87be4" d="M 24.089847 -19.179808 
L 20.000081 -19.179808 
L 19.631475 -19.281347 
L 19.227194 -19.382886 
L 18.790548 -19.484425 
L 18.326399 -19.585964 
L 17.841159 -19.687503 
L 17.342685 -19.789042 
L 16.840086 -19.890581 
L 16.343434 -19.99212 
L 15.863404 -20.093659 
L 15.410836 -20.195198 
L 14.996272 -20.296737 
L 14.629481 -20.398276 
L 14.318998 -20.499815 
L 14.071726 -20.601354 
L 13.892615 -20.702893 
L 13.784437 -20.804431 
L 13.747685 -20.90597 
L 13.780594 -21.007509 
L 13.879275 -21.109048 
L 14.037962 -21.210587 
L 14.249342 -21.312126 
L 14.504949 -21.413665 
L 14.795599 -21.515204 
L 15.111821 -21.616743 
L 15.444277 -21.718282 
L 15.784139 -21.819821 
L 16.123399 -21.92136 
L 16.455108 -22.022899 
L 16.773537 -22.124438 
L 17.07425 -22.225977 
L 17.354103 -22.327516 
L 17.611175 -22.429055 
L 17.844639 -22.530594 
L 18.054599 -22.632133 
L 18.241894 -22.733672 
L 18.407902 -22.835211 
L 18.554343 -22.93675 
L 18.683112 -23.038289 
L 18.796138 -23.139828 
L 18.895281 -23.241367 
L 18.982275 -23.342906 
L 19.058707 -23.444445 
L 19.126032 -23.545984 
L 19.185616 -23.647523 
L 19.238792 -23.749062 
L 19.286919 -23.850601 
L 19.33143 -23.95214 
L 19.37387 -24.053679 
L 19.415892 -24.155218 
L 19.459235 -24.256757 
L 19.505667 -24.358296 
L 19.556901 -24.459835 
L 19.614493 -24.561374 
L 19.67973 -24.662913 
L 19.753523 -24.764452 
L 19.836314 -24.865991 
L 19.928002 -24.96753 
L 20.027907 -25.069069 
L 20.134764 -25.170608 
L 20.246762 -25.272147 
L 20.361607 -25.373686 
L 20.476628 -25.475225 
L 20.588892 -25.576764 
L 20.695351 -25.678303 
L 20.792981 -25.779842 
L 20.878925 -25.881381 
L 20.950632 -25.98292 
L 21.005973 -26.084458 
L 21.043348 -26.185997 
L 21.061761 -26.287536 
L 21.06088 -26.389075 
L 21.041064 -26.490614 
L 21.003375 -26.592153 
L 20.949548 -26.693692 
L 20.881948 -26.795231 
L 20.803493 -26.89677 
L 20.717556 -26.998309 
L 20.627842 -27.099848 
L 20.538243 -27.201387 
L 20.452687 -27.302926 
L 20.374974 -27.404465 
L 20.308613 -27.506004 
L 20.256669 -27.607543 
L 20.221633 -27.709082 
L 20.205316 -27.810621 
L 20.208775 -27.91216 
L 20.232283 -28.013699 
L 20.275338 -28.115238 
L 20.336714 -28.216777 
L 20.414548 -28.318316 
L 20.506457 -28.419855 
L 20.609678 -28.521394 
L 20.721222 -28.622933 
L 20.838022 -28.724472 
L 20.957081 -28.826011 
L 21.075602 -28.92755 
L 21.191087 -29.029089 
L 21.301418 -29.130628 
L 21.404901 -29.232167 
L 22.685027 -29.232167 
L 22.685027 -29.232167 
L 22.78851 -29.130628 
L 22.89884 -29.029089 
L 23.014325 -28.92755 
L 23.132846 -28.826011 
L 23.251906 -28.724472 
L 23.368706 -28.622933 
L 23.480249 -28.521394 
L 23.583471 -28.419855 
L 23.675379 -28.318316 
L 23.753213 -28.216777 
L 23.814589 -28.115238 
L 23.857644 -28.013699 
L 23.881152 -27.91216 
L 23.884611 -27.810621 
L 23.868294 -27.709082 
L 23.833259 -27.607543 
L 23.781315 -27.506004 
L 23.714953 -27.404465 
L 23.63724 -27.302926 
L 23.551685 -27.201387 
L 23.462086 -27.099848 
L 23.372371 -26.998309 
L 23.286435 -26.89677 
L 23.20798 -26.795231 
L 23.14038 -26.693692 
L 23.086552 -26.592153 
L 23.048863 -26.490614 
L 23.029048 -26.389075 
L 23.028166 -26.287536 
L 23.046579 -26.185997 
L 23.083954 -26.084458 
L 23.139296 -25.98292 
L 23.211003 -25.881381 
L 23.296947 -25.779842 
L 23.394576 -25.678303 
L 23.501035 -25.576764 
L 23.6133 -25.475225 
L 23.72832 -25.373686 
L 23.843165 -25.272147 
L 23.955163 -25.170608 
L 24.062021 -25.069069 
L 24.161926 -24.96753 
L 24.253613 -24.865991 
L 24.336404 -24.764452 
L 24.410198 -24.662913 
L 24.475434 -24.561374 
L 24.533026 -24.459835 
L 24.58426 -24.358296 
L 24.630693 -24.256757 
L 24.674036 -24.155218 
L 24.716057 -24.053679 
L 24.758497 -23.95214 
L 24.803009 -23.850601 
L 24.851136 -23.749062 
L 24.904312 -23.647523 
L 24.963896 -23.545984 
L 25.031221 -23.444445 
L 25.107652 -23.342906 
L 25.194646 -23.241367 
L 25.293789 -23.139828 
L 25.406815 -23.038289 
L 25.535585 -22.93675 
L 25.682026 -22.835211 
L 25.848033 -22.733672 
L 26.035328 -22.632133 
L 26.245288 -22.530594 
L 26.478753 -22.429055 
L 26.735824 -22.327516 
L 27.015677 -22.225977 
L 27.31639 -22.124438 
L 27.63482 -22.022899 
L 27.966529 -21.92136 
L 28.305788 -21.819821 
L 28.64565 -21.718282 
L 28.978107 -21.616743 
L 29.294328 -21.515204 
L 29.584978 -21.413665 
L 29.840586 -21.312126 
L 30.051966 -21.210587 
L 30.210653 -21.109048 
L 30.309334 -21.007509 
L 30.342243 -20.90597 
L 30.305491 -20.804431 
L 30.197312 -20.702893 
L 30.018201 -20.601354 
L 29.77093 -20.499815 
L 29.460447 -20.398276 
L 29.093655 -20.296737 
L 28.679092 -20.195198 
L 28.226524 -20.093659 
L 27.746493 -19.99212 
L 27.249842 -19.890581 
L 26.747242 -19.789042 
L 26.248768 -19.687503 
L 25.763528 -19.585964 
L 25.29938 -19.484425 
L 24.862733 -19.382886 
L 24.458453 -19.281347 
L 24.089847 -19.179808 
z
" style="stroke: #717171; stroke-width: 0.15"/>
    </defs>
    <g clip-path="url(#pae807699e6)">
     <use xlink:href="#m3ef6b87be4" x="0" y="84.96" style="fill: #d6bba3; stroke: #717171; stroke-width: 0.15"/>
    </g>
   </g>
   <g id="PolyCollection_2">
    <defs>
     <path id="ma8152b8d57" d="M 44.099525 -14.218296 
L 41.476797 -14.218296 
L 41.220232 -14.742425 
L 40.937497 -15.266554 
L 40.631438 -15.790684 
L 40.30611 -16.314813 
L 39.966661 -16.838942 
L 39.619101 -17.363071 
L 39.269977 -17.887201 
L 38.925961 -18.41133 
L 38.593379 -18.935459 
L 38.277737 -19.459588 
L 37.983274 -19.983718 
L 37.712615 -20.507847 
L 37.466539 -21.031976 
L 37.243935 -21.556105 
L 37.04193 -22.080235 
L 36.856217 -22.604364 
L 36.681542 -23.128493 
L 36.512309 -23.652623 
L 36.343256 -24.176752 
L 36.170099 -24.700881 
L 35.990106 -25.22501 
L 35.802501 -25.74914 
L 35.608666 -26.273269 
L 35.412096 -26.797398 
L 35.218124 -27.321527 
L 35.033424 -27.845657 
L 34.865366 -28.369786 
L 34.721275 -28.893915 
L 34.607712 -29.418044 
L 34.529825 -29.942174 
L 34.490882 -30.466303 
L 34.492016 -30.990432 
L 34.532217 -31.514562 
L 34.608569 -32.038691 
L 34.716693 -32.56282 
L 34.851335 -33.086949 
L 35.007027 -33.611079 
L 35.178728 -34.135208 
L 35.362366 -34.659337 
L 35.555228 -35.183466 
L 35.756142 -35.707596 
L 35.965441 -36.231725 
L 36.184726 -36.755854 
L 36.416471 -37.279983 
L 36.663513 -37.804113 
L 36.928512 -38.328242 
L 37.21344 -38.852371 
L 37.519166 -39.376501 
L 37.84517 -39.90063 
L 38.189431 -40.424759 
L 38.548472 -40.948888 
L 38.917561 -41.473018 
L 39.291026 -41.997147 
L 39.662651 -42.521276 
L 40.02609 -43.045405 
L 40.375274 -43.569535 
L 40.70475 -44.093664 
L 41.009943 -44.617793 
L 41.287316 -45.141922 
L 41.534425 -45.666052 
L 41.749884 -46.190181 
L 41.933243 -46.71431 
L 42.084828 -47.23844 
L 42.205532 -47.762569 
L 42.296616 -48.286698 
L 42.359525 -48.810827 
L 42.395735 -49.334957 
L 42.406651 -49.859086 
L 42.393563 -50.383215 
L 42.357648 -50.907344 
L 42.300036 -51.431474 
L 42.221899 -51.955603 
L 42.124585 -52.479732 
L 42.009748 -53.003862 
L 41.879481 -53.527991 
L 41.73642 -54.05212 
L 41.583806 -54.576249 
L 41.425493 -55.100379 
L 41.265897 -55.624508 
L 41.109877 -56.148637 
L 40.962551 -56.672766 
L 40.829069 -57.196896 
L 40.714346 -57.721025 
L 40.622788 -58.245154 
L 40.558027 -58.769283 
L 40.522692 -59.293413 
L 40.518244 -59.817542 
L 40.544876 -60.341671 
L 40.601507 -60.865801 
L 40.685854 -61.38993 
L 40.794587 -61.914059 
L 40.92355 -62.438188 
L 41.06802 -62.962318 
L 41.222999 -63.486447 
L 41.383492 -64.010576 
L 41.544769 -64.534705 
L 41.702581 -65.058835 
L 41.853326 -65.582964 
L 41.994148 -66.107093 
L 43.582175 -66.107093 
L 43.582175 -66.107093 
L 43.722997 -65.582964 
L 43.873742 -65.058835 
L 44.031554 -64.534705 
L 44.19283 -64.010576 
L 44.353323 -63.486447 
L 44.508302 -62.962318 
L 44.652773 -62.438188 
L 44.781736 -61.914059 
L 44.890469 -61.38993 
L 44.974815 -60.865801 
L 45.031446 -60.341671 
L 45.058078 -59.817542 
L 45.05363 -59.293413 
L 45.018296 -58.769283 
L 44.953534 -58.245154 
L 44.861976 -57.721025 
L 44.747253 -57.196896 
L 44.613771 -56.672766 
L 44.466445 -56.148637 
L 44.310425 -55.624508 
L 44.15083 -55.100379 
L 43.992517 -54.576249 
L 43.839902 -54.05212 
L 43.696841 -53.527991 
L 43.566575 -53.003862 
L 43.451738 -52.479732 
L 43.354424 -51.955603 
L 43.276287 -51.431474 
L 43.218674 -50.907344 
L 43.18276 -50.383215 
L 43.169671 -49.859086 
L 43.180587 -49.334957 
L 43.216797 -48.810827 
L 43.279706 -48.286698 
L 43.370791 -47.762569 
L 43.491494 -47.23844 
L 43.643079 -46.71431 
L 43.826439 -46.190181 
L 44.041897 -45.666052 
L 44.289007 -45.141922 
L 44.56638 -44.617793 
L 44.871573 -44.093664 
L 45.201048 -43.569535 
L 45.550232 -43.045405 
L 45.913672 -42.521276 
L 46.285296 -41.997147 
L 46.658761 -41.473018 
L 47.02785 -40.948888 
L 47.386891 -40.424759 
L 47.731152 -39.90063 
L 48.057157 -39.376501 
L 48.362882 -38.852371 
L 48.647811 -38.328242 
L 48.912809 -37.804113 
L 49.159851 -37.279983 
L 49.391596 -36.755854 
L 49.610882 -36.231725 
L 49.82018 -35.707596 
L 50.021094 -35.183466 
L 50.213957 -34.659337 
L 50.397595 -34.135208 
L 50.569295 -33.611079 
L 50.724988 -33.086949 
L 50.85963 -32.56282 
L 50.967753 -32.038691 
L 51.044105 -31.514562 
L 51.084306 -30.990432 
L 51.08544 -30.466303 
L 51.046498 -29.942174 
L 50.968611 -29.418044 
L 50.855047 -28.893915 
L 50.710957 -28.369786 
L 50.542898 -27.845657 
L 50.358199 -27.321527 
L 50.164227 -26.797398 
L 49.967657 -26.273269 
L 49.773821 -25.74914 
L 49.586217 -25.22501 
L 49.406224 -24.700881 
L 49.233067 -24.176752 
L 49.064013 -23.652623 
L 48.894781 -23.128493 
L 48.720105 -22.604364 
L 48.534393 -22.080235 
L 48.332388 -21.556105 
L 48.109783 -21.031976 
L 47.863708 -20.507847 
L 47.593048 -19.983718 
L 47.298586 -19.459588 
L 46.982943 -18.935459 
L 46.650361 -18.41133 
L 46.306345 -17.887201 
L 45.957222 -17.363071 
L 45.609662 -16.838942 
L 45.270212 -16.314813 
L 44.944885 -15.790684 
L 44.638826 -15.266554 
L 44.356091 -14.742425 
L 44.099525 -14.218296 
z
" style="stroke: #717171; stroke-width: 0.15"/>
    </defs>
    <g clip-path="url(#pae807699e6)">
     <use xlink:href="#ma8152b8d57" x="0" y="84.96" style="fill: #f1b9e0; stroke: #717171; stroke-width: 0.15"/>
    </g>
   </g>
   <g id="line2d_7">
    <path d="M 22.044964 64.408207 
L 22.044964 57.099819 
" clip-path="url(#pae807699e6)" style="fill: none; stroke: #8c8c8c; stroke-width: 0.75; stroke-linecap: round"/>
   </g>
   <g id="line2d_8">
    <path d="M 22.044964 64.298596 
L 22.044964 61.393921 
" clip-path="url(#pae807699e6)" style="fill: none; stroke: #8c8c8c; stroke-width: 4; stroke-linecap: round"/>
   </g>
   <g id="line2d_9">
    <path d="M 22.044964 63.529136 
" clip-path="url(#pae807699e6)" style="fill: none; stroke: #717171; stroke-width: 1.2; stroke-linecap: round"/>
    <defs>
     <path id="m41b7320c91" d="M 0 0.833333 
C 0.221003 0.833333 0.432983 0.745528 0.589256 0.589256 
C 0.745528 0.432983 0.833333 0.221003 0.833333 0 
C 0.833333 -0.221003 0.745528 -0.432983 0.589256 -0.589256 
C 0.432983 -0.745528 0.221003 -0.833333 0 -0.833333 
C -0.221003 -0.833333 -0.432983 -0.745528 -0.589256 -0.589256 
C -0.745528 -0.432983 -0.833333 -0.221003 -0.833333 0 
C -0.833333 0.221003 -0.745528 0.432983 -0.589256 0.589256 
C -0.432983 0.745528 -0.221003 0.833333 0 0.833333 
z
" style="stroke: #ffffff; stroke-width: 0.8"/>
    </defs>
    <g clip-path="url(#pae807699e6)">
     <use xlink:href="#m41b7320c91" x="22.044964" y="63.529136" style="fill: #ffffff; stroke: #ffffff; stroke-width: 0.8"/>
    </g>
   </g>
   <g id="line2d_10">
    <path d="M 42.788161 64.265382 
L 42.788161 46.108049 
" clip-path="url(#pae807699e6)" style="fill: none; stroke: #8c8c8c; stroke-width: 0.75; stroke-linecap: round"/>
   </g>
   <g id="line2d_11">
    <path d="M 42.788161 57.151452 
L 42.788161 46.79338 
" clip-path="url(#pae807699e6)" style="fill: none; stroke: #8c8c8c; stroke-width: 4; stroke-linecap: round"/>
   </g>
   <g id="line2d_12">
    <path d="M 42.788161 54.486895 
" clip-path="url(#pae807699e6)" style="fill: none; stroke: #717171; stroke-width: 1.2; stroke-linecap: round"/>
    <g clip-path="url(#pae807699e6)">
     <use xlink:href="#m41b7320c91" x="42.788161" y="54.486895" style="fill: #ffffff; stroke: #ffffff; stroke-width: 0.8"/>
    </g>
   </g>
   <g id="patch_3">
    <path d="M 11.673365 74.419526 
L 11.673365 4.076256 
" style="fill: none; stroke: #777777; stroke-width: 0.5; stroke-linejoin: miter; stroke-linecap: square"/>
   </g>
   <g id="patch_4">
    <path d="M 11.673365 76.919526 
L 53.15976 76.919526 
" style="fill: none; stroke: #777777; stroke-width: 0.5; stroke-linejoin: miter; stroke-linecap: square"/>
   </g>
  </g>
 </g>
 <defs>
  <clipPath id="pae807699e6">
   <rect x="11.673365" y="4.076256" width="41.486395" height="70.34327"/>
  </clipPath>
 </defs>
</svg>
