<?xml version="1.0" encoding="utf-8" standalone="no"?>
<!DOCTYPE svg PUBLIC "-//W3C//DTD SVG 1.1//EN"
  "http://www.w3.org/Graphics/SVG/1.1/DTD/svg11.dtd">
<svg xmlns:xlink="http://www.w3.org/1999/xlink" width="84.96pt" height="84.96pt" viewBox="0 0 84.96 84.96" xmlns="http://www.w3.org/2000/svg" version="1.1">
 <metadata>
  <rdf:RDF xmlns:dc="http://purl.org/dc/elements/1.1/" xmlns:cc="http://creativecommons.org/ns#" xmlns:rdf="http://www.w3.org/1999/02/22-rdf-syntax-ns#">
   <cc:Work>
    <dc:type rdf:resource="http://purl.org/dc/dcmitype/StillImage"/>
    <dc:date>2024-05-27T15:37:10.578428</dc:date>
    <dc:format>image/svg+xml</dc:format>
    <dc:creator>
     <cc:Agent>
      <dc:title>Matplotlib v3.8.3, https://matplotlib.org/</dc:title>
     </cc:Agent>
    </dc:creator>
   </cc:Work>
  </rdf:RDF>
 </metadata>
 <defs>
  <style type="text/css">*{stroke-linejoin: round; stroke-linecap: butt}</style>
 </defs>
 <g id="figure_1">
  <g id="patch_1">
   <path d="M 0 84.96 
L 84.96 84.96 
L 84.96 0 
L 0 0 
z
" style="fill: #ffffff"/>
  </g>
  <g id="axes_1">
   <g id="patch_2">
    <path d="M 10.005084 74.419526 
L 81.95976 74.419526 
L 81.95976 4.076256 
L 10.005084 4.076256 
z
" style="fill: #ffffff"/>
   </g>
   <g id="matplotlib.axis_1">
    <g id="xtick_1">
     <g id="text_1">
      <!-- NK/ILC1ie -->
      <g style="fill: #333333" transform="translate(14.021905 81.230229) scale(0.035 -0.035)">
       <defs>
        <path id="Helvetica-4e" d="M 488 4591 
L 1222 4591 
L 3541 872 
L 3541 4591 
L 4131 4591 
L 4131 0 
L 3434 0 
L 1081 3716 
L 1081 0 
L 488 0 
L 488 4591 
z
M 2269 4591 
L 2269 4591 
z
" transform="scale(0.015625)"/>
        <path id="Helvetica-4b" d="M 488 4591 
L 1094 4591 
L 1094 2353 
L 3331 4591 
L 4191 4591 
L 2281 2741 
L 4244 0 
L 3434 0 
L 1828 2303 
L 1094 1600 
L 1094 0 
L 488 0 
L 488 4591 
z
" transform="scale(0.015625)"/>
        <path id="Helvetica-2f" d="M 1456 4591 
L 1931 4591 
L 475 0 
L 0 0 
L 1456 4591 
z
" transform="scale(0.015625)"/>
        <path id="Helvetica-49" d="M 628 4591 
L 1256 4591 
L 1256 0 
L 628 0 
L 628 4591 
z
" transform="scale(0.015625)"/>
        <path id="Helvetica-4c" d="M 488 4591 
L 1109 4591 
L 1109 547 
L 3434 547 
L 3434 0 
L 488 0 
L 488 4591 
z
" transform="scale(0.015625)"/>
        <path id="Helvetica-43" d="M 2422 4716 
Q 3294 4716 3775 4256 
Q 4256 3797 4309 3213 
L 3703 3213 
Q 3600 3656 3292 3915 
Q 2984 4175 2428 4175 
Q 1750 4175 1333 3698 
Q 916 3222 916 2238 
Q 916 1431 1292 929 
Q 1669 428 2416 428 
Q 3103 428 3463 956 
Q 3653 1234 3747 1688 
L 4353 1688 
Q 4272 963 3816 472 
Q 3269 -119 2341 -119 
Q 1541 -119 997 366 
Q 281 1006 281 2344 
Q 281 3359 819 4009 
Q 1400 4716 2422 4716 
z
M 2297 4716 
L 2297 4716 
z
" transform="scale(0.015625)"/>
        <path id="Helvetica-31" d="M 613 3169 
L 613 3600 
Q 1222 3659 1462 3798 
Q 1703 3938 1822 4456 
L 2266 4456 
L 2266 0 
L 1666 0 
L 1666 3169 
L 613 3169 
z
" transform="scale(0.015625)"/>
        <path id="Helvetica-69" d="M 413 3331 
L 984 3331 
L 984 0 
L 413 0 
L 413 3331 
z
M 413 4591 
L 984 4591 
L 984 3953 
L 413 3953 
L 413 4591 
z
" transform="scale(0.015625)"/>
        <path id="Helvetica-65" d="M 1806 3422 
Q 2163 3422 2497 3255 
Q 2831 3088 3006 2822 
Q 3175 2569 3231 2231 
Q 3281 2000 3281 1494 
L 828 1494 
Q 844 984 1069 676 
Q 1294 369 1766 369 
Q 2206 369 2469 659 
Q 2619 828 2681 1050 
L 3234 1050 
Q 3213 866 3089 639 
Q 2966 413 2813 269 
Q 2556 19 2178 -69 
Q 1975 -119 1719 -119 
Q 1094 -119 659 336 
Q 225 791 225 1609 
Q 225 2416 662 2919 
Q 1100 3422 1806 3422 
z
M 2703 1941 
Q 2669 2306 2544 2525 
Q 2313 2931 1772 2931 
Q 1384 2931 1121 2651 
Q 859 2372 844 1941 
L 2703 1941 
z
M 1753 3428 
L 1753 3428 
z
" transform="scale(0.015625)"/>
       </defs>
       <use xlink:href="#Helvetica-4e"/>
       <use xlink:href="#Helvetica-4b" x="72.216797"/>
       <use xlink:href="#Helvetica-2f" x="138.916016"/>
       <use xlink:href="#Helvetica-49" x="166.699219"/>
       <use xlink:href="#Helvetica-4c" x="194.482422"/>
       <use xlink:href="#Helvetica-43" x="250.097656"/>
       <use xlink:href="#Helvetica-31" x="322.314453"/>
       <use xlink:href="#Helvetica-69" x="377.929688"/>
       <use xlink:href="#Helvetica-65" x="400.146484"/>
      </g>
     </g>
    </g>
    <g id="xtick_2">
     <g id="text_2">
      <!-- ILC1 -->
      <g style="fill: #333333" transform="translate(42.286094 81.230229) scale(0.035 -0.035)">
       <use xlink:href="#Helvetica-49"/>
       <use xlink:href="#Helvetica-4c" x="27.783203"/>
       <use xlink:href="#Helvetica-43" x="83.398438"/>
       <use xlink:href="#Helvetica-31" x="155.615234"/>
      </g>
     </g>
    </g>
    <g id="xtick_3">
     <g id="text_3">
      <!-- TH1 -->
      <g style="fill: #333333" transform="translate(66.661455 81.230229) scale(0.035 -0.035)">
       <defs>
        <path id="Helvetica-54" d="M 3828 4591 
L 3828 4044 
L 2281 4044 
L 2281 0 
L 1650 0 
L 1650 4044 
L 103 4044 
L 103 4591 
L 3828 4591 
z
" transform="scale(0.015625)"/>
        <path id="Helvetica-48" d="M 503 4591 
L 1131 4591 
L 1131 2694 
L 3519 2694 
L 3519 4591 
L 4147 4591 
L 4147 0 
L 3519 0 
L 3519 2147 
L 1131 2147 
L 1131 0 
L 503 0 
L 503 4591 
z
" transform="scale(0.015625)"/>
       </defs>
       <use xlink:href="#Helvetica-54"/>
       <use xlink:href="#Helvetica-48" x="61.083984"/>
       <use xlink:href="#Helvetica-31" x="133.300781"/>
      </g>
     </g>
    </g>
   </g>
   <g id="matplotlib.axis_2">
    <g id="ytick_1">
     <g id="line2d_1">
      <defs>
       <path id="m8a425e5733" d="M 0 0 
L -1 0 
" style="stroke: #777777; stroke-width: 0.5"/>
      </defs>
      <g>
       <use xlink:href="#m8a425e5733" x="10.005084" y="65.703651" style="fill: #777777; stroke: #777777; stroke-width: 0.5"/>
      </g>
     </g>
     <g id="text_4">
      <!-- 0 -->
      <g style="fill: #333333" transform="translate(6.336803 66.779667) scale(0.03 -0.03)">
       <defs>
        <path id="Helvetica-30" d="M 1731 4475 
Q 2600 4475 2988 3759 
Q 3288 3206 3288 2244 
Q 3288 1331 3016 734 
Q 2622 -122 1728 -122 
Q 922 -122 528 578 
Q 200 1163 200 2147 
Q 200 2909 397 3456 
Q 766 4475 1731 4475 
z
M 1725 391 
Q 2163 391 2422 778 
Q 2681 1166 2681 2222 
Q 2681 2984 2493 3476 
Q 2306 3969 1766 3969 
Q 1269 3969 1039 3501 
Q 809 3034 809 2125 
Q 809 1441 956 1025 
Q 1181 391 1725 391 
z
" transform="scale(0.015625)"/>
       </defs>
       <use xlink:href="#Helvetica-30"/>
      </g>
     </g>
    </g>
    <g id="ytick_2">
     <g id="line2d_2">
      <g>
       <use xlink:href="#m8a425e5733" x="10.005084" y="56.899737" style="fill: #777777; stroke: #777777; stroke-width: 0.5"/>
      </g>
     </g>
     <g id="text_5">
      <!-- 100 -->
      <g style="fill: #333333" transform="translate(3.00024 57.975753) scale(0.03 -0.03)">
       <use xlink:href="#Helvetica-31"/>
       <use xlink:href="#Helvetica-30" x="55.615234"/>
       <use xlink:href="#Helvetica-30" x="111.230469"/>
      </g>
     </g>
    </g>
    <g id="ytick_3">
     <g id="line2d_3">
      <g>
       <use xlink:href="#m8a425e5733" x="10.005084" y="48.095824" style="fill: #777777; stroke: #777777; stroke-width: 0.5"/>
      </g>
     </g>
     <g id="text_6">
      <!-- 200 -->
      <g style="fill: #333333" transform="translate(3.00024 49.171839) scale(0.03 -0.03)">
       <defs>
        <path id="Helvetica-32" d="M 200 0 
Q 231 578 439 1006 
Q 647 1434 1250 1784 
L 1850 2131 
Q 2253 2366 2416 2531 
Q 2672 2791 2672 3125 
Q 2672 3516 2437 3745 
Q 2203 3975 1813 3975 
Q 1234 3975 1013 3538 
Q 894 3303 881 2888 
L 309 2888 
Q 319 3472 525 3841 
Q 891 4491 1816 4491 
Q 2584 4491 2939 4075 
Q 3294 3659 3294 3150 
Q 3294 2613 2916 2231 
Q 2697 2009 2131 1694 
L 1703 1456 
Q 1397 1288 1222 1134 
Q 909 863 828 531 
L 3272 531 
L 3272 0 
L 200 0 
z
" transform="scale(0.015625)"/>
       </defs>
       <use xlink:href="#Helvetica-32"/>
       <use xlink:href="#Helvetica-30" x="55.615234"/>
       <use xlink:href="#Helvetica-30" x="111.230469"/>
      </g>
     </g>
    </g>
    <g id="ytick_4">
     <g id="line2d_4">
      <g>
       <use xlink:href="#m8a425e5733" x="10.005084" y="39.29191" style="fill: #777777; stroke: #777777; stroke-width: 0.5"/>
      </g>
     </g>
     <g id="text_7">
      <!-- 300 -->
      <g style="fill: #333333" transform="translate(3.00024 40.367926) scale(0.03 -0.03)">
       <defs>
        <path id="Helvetica-33" d="M 1663 -122 
Q 869 -122 511 314 
Q 153 750 153 1375 
L 741 1375 
Q 778 941 903 744 
Q 1122 391 1694 391 
Q 2138 391 2406 628 
Q 2675 866 2675 1241 
Q 2675 1703 2392 1887 
Q 2109 2072 1606 2072 
Q 1550 2072 1492 2070 
Q 1434 2069 1375 2066 
L 1375 2563 
Q 1463 2553 1522 2550 
Q 1581 2547 1650 2547 
Q 1966 2547 2169 2647 
Q 2525 2822 2525 3272 
Q 2525 3606 2287 3787 
Q 2050 3969 1734 3969 
Q 1172 3969 956 3594 
Q 838 3388 822 3006 
L 266 3006 
Q 266 3506 466 3856 
Q 809 4481 1675 4481 
Q 2359 4481 2734 4176 
Q 3109 3872 3109 3294 
Q 3109 2881 2888 2625 
Q 2750 2466 2531 2375 
Q 2884 2278 3082 2001 
Q 3281 1725 3281 1325 
Q 3281 684 2859 281 
Q 2438 -122 1663 -122 
z
" transform="scale(0.015625)"/>
       </defs>
       <use xlink:href="#Helvetica-33"/>
       <use xlink:href="#Helvetica-30" x="55.615234"/>
       <use xlink:href="#Helvetica-30" x="111.230469"/>
      </g>
     </g>
    </g>
    <g id="ytick_5">
     <g id="line2d_5">
      <g>
       <use xlink:href="#m8a425e5733" x="10.005084" y="30.487997" style="fill: #777777; stroke: #777777; stroke-width: 0.5"/>
      </g>
     </g>
     <g id="text_8">
      <!-- 400 -->
      <g style="fill: #333333" transform="translate(3.00024 31.564012) scale(0.03 -0.03)">
       <defs>
        <path id="Helvetica-34" d="M 2116 1584 
L 2116 3613 
L 681 1584 
L 2116 1584 
z
M 2125 0 
L 2125 1094 
L 163 1094 
L 163 1644 
L 2213 4488 
L 2688 4488 
L 2688 1584 
L 3347 1584 
L 3347 1094 
L 2688 1094 
L 2688 0 
L 2125 0 
z
" transform="scale(0.015625)"/>
       </defs>
       <use xlink:href="#Helvetica-34"/>
       <use xlink:href="#Helvetica-30" x="55.615234"/>
       <use xlink:href="#Helvetica-30" x="111.230469"/>
      </g>
     </g>
    </g>
    <g id="ytick_6">
     <g id="line2d_6">
      <g>
       <use xlink:href="#m8a425e5733" x="10.005084" y="21.684083" style="fill: #777777; stroke: #777777; stroke-width: 0.5"/>
      </g>
     </g>
     <g id="text_9">
      <!-- 500 -->
      <g style="fill: #333333" transform="translate(3.00024 22.760099) scale(0.03 -0.03)">
       <defs>
        <path id="Helvetica-35" d="M 791 1141 
Q 847 659 1238 475 
Q 1438 381 1700 381 
Q 2200 381 2440 700 
Q 2681 1019 2681 1406 
Q 2681 1875 2395 2131 
Q 2109 2388 1709 2388 
Q 1419 2388 1211 2275 
Q 1003 2163 856 1963 
L 369 1991 
L 709 4400 
L 3034 4400 
L 3034 3856 
L 1131 3856 
L 941 2613 
Q 1097 2731 1238 2791 
Q 1488 2894 1816 2894 
Q 2431 2894 2859 2497 
Q 3288 2100 3288 1491 
Q 3288 856 2895 371 
Q 2503 -113 1644 -113 
Q 1097 -113 676 195 
Q 256 503 206 1141 
L 791 1141 
z
" transform="scale(0.015625)"/>
       </defs>
       <use xlink:href="#Helvetica-35"/>
       <use xlink:href="#Helvetica-30" x="55.615234"/>
       <use xlink:href="#Helvetica-30" x="111.230469"/>
      </g>
     </g>
    </g>
    <g id="ytick_7">
     <g id="line2d_7">
      <g>
       <use xlink:href="#m8a425e5733" x="10.005084" y="12.880169" style="fill: #777777; stroke: #777777; stroke-width: 0.5"/>
      </g>
     </g>
     <g id="text_10">
      <!-- 600 -->
      <g style="fill: #333333" transform="translate(3.00024 13.956185) scale(0.03 -0.03)">
       <defs>
        <path id="Helvetica-36" d="M 1872 4494 
Q 2622 4494 2917 4105 
Q 3213 3716 3213 3303 
L 2656 3303 
Q 2606 3569 2497 3719 
Q 2294 4000 1881 4000 
Q 1409 4000 1131 3564 
Q 853 3128 822 2316 
Q 1016 2600 1309 2741 
Q 1578 2866 1909 2866 
Q 2472 2866 2890 2506 
Q 3309 2147 3309 1434 
Q 3309 825 2912 354 
Q 2516 -116 1781 -116 
Q 1153 -116 697 361 
Q 241 838 241 1966 
Q 241 2800 444 3381 
Q 834 4494 1872 4494 
z
M 1831 384 
Q 2275 384 2495 682 
Q 2716 981 2716 1388 
Q 2716 1731 2519 2042 
Q 2322 2353 1803 2353 
Q 1441 2353 1167 2112 
Q 894 1872 894 1388 
Q 894 963 1142 673 
Q 1391 384 1831 384 
z
" transform="scale(0.015625)"/>
       </defs>
       <use xlink:href="#Helvetica-36"/>
       <use xlink:href="#Helvetica-30" x="55.615234"/>
       <use xlink:href="#Helvetica-30" x="111.230469"/>
      </g>
     </g>
    </g>
    <g id="ytick_8">
     <g id="line2d_8">
      <g>
       <use xlink:href="#m8a425e5733" x="10.005084" y="4.076256" style="fill: #777777; stroke: #777777; stroke-width: 0.5"/>
      </g>
     </g>
     <g id="text_11">
      <!-- 700 -->
      <g style="fill: #333333" transform="translate(3.00024 5.152271) scale(0.03 -0.03)">
       <defs>
        <path id="Helvetica-37" d="M 3347 4400 
L 3347 3909 
Q 3131 3700 2773 3181 
Q 2416 2663 2141 2063 
Q 1869 1478 1728 997 
Q 1638 688 1494 0 
L 872 0 
Q 1084 1281 1809 2550 
Q 2238 3294 2709 3834 
L 234 3834 
L 234 4400 
L 3347 4400 
z
" transform="scale(0.015625)"/>
       </defs>
       <use xlink:href="#Helvetica-37"/>
       <use xlink:href="#Helvetica-30" x="55.615234"/>
       <use xlink:href="#Helvetica-30" x="111.230469"/>
      </g>
     </g>
    </g>
   </g>
   <g id="PolyCollection_1">
    <defs>
     <path id="md62624fd9d" d="M 25.335509 -19.228348 
L 18.65955 -19.228348 
L 18.137306 -19.230355 
L 17.581296 -19.232363 
L 16.999446 -19.23437 
L 16.401645 -19.236378 
L 15.799551 -19.238385 
L 15.206266 -19.240393 
L 14.635891 -19.2424 
L 14.102979 -19.244408 
L 13.621915 -19.246415 
L 13.206246 -19.248423 
L 12.868021 -19.25043 
L 12.617166 -19.252438 
L 12.46095 -19.254445 
L 12.403573 -19.256453 
L 12.445915 -19.25846 
L 12.58545 -19.260468 
L 12.816353 -19.262475 
L 13.129776 -19.264483 
L 13.51428 -19.26649 
L 13.956402 -19.268498 
L 14.4413 -19.270505 
L 14.953457 -19.272513 
L 15.477372 -19.27452 
L 15.998222 -19.276528 
L 16.502445 -19.278535 
L 16.978213 -19.280543 
L 17.415789 -19.28255 
L 17.807743 -19.284558 
L 18.149036 -19.286565 
L 18.43699 -19.288572 
L 18.671134 -19.29058 
L 18.852973 -19.292587 
L 18.985697 -19.294595 
L 19.073837 -19.296602 
L 19.122925 -19.29861 
L 19.139138 -19.300617 
L 19.128989 -19.302625 
L 19.099033 -19.304632 
L 19.055631 -19.30664 
L 19.004762 -19.308647 
L 18.951881 -19.310655 
L 18.901826 -19.312662 
L 18.858768 -19.31467 
L 18.82619 -19.316677 
L 18.806892 -19.318685 
L 18.803021 -19.320692 
L 18.816096 -19.3227 
L 18.847052 -19.324707 
L 18.896272 -19.326715 
L 18.963621 -19.328722 
L 19.048483 -19.33073 
L 19.149784 -19.332737 
L 19.266025 -19.334745 
L 19.395317 -19.336752 
L 19.535417 -19.33876 
L 19.683779 -19.340767 
L 19.837608 -19.342775 
L 19.993927 -19.344782 
L 20.149648 -19.34679 
L 20.301652 -19.348797 
L 20.446874 -19.350805 
L 20.582381 -19.352812 
L 20.705456 -19.35482 
L 20.813667 -19.356827 
L 20.90494 -19.358834 
L 20.977614 -19.360842 
L 21.03049 -19.362849 
L 21.062869 -19.364857 
L 21.074581 -19.366864 
L 21.066001 -19.368872 
L 21.038052 -19.370879 
L 20.992201 -19.372887 
L 20.930434 -19.374894 
L 20.855218 -19.376902 
L 20.769447 -19.378909 
L 20.676369 -19.380917 
L 20.579491 -19.382924 
L 20.482477 -19.384932 
L 20.389024 -19.386939 
L 20.302731 -19.388947 
L 20.226967 -19.390954 
L 20.16474 -19.392962 
L 20.118576 -19.394969 
L 20.090424 -19.396977 
L 20.081573 -19.398984 
L 20.092615 -19.400992 
L 20.123428 -19.402999 
L 20.173203 -19.405007 
L 20.240503 -19.407014 
L 20.323347 -19.409022 
L 20.419326 -19.411029 
L 20.525723 -19.413037 
L 20.639655 -19.415044 
L 20.758204 -19.417052 
L 20.878543 -19.419059 
L 20.998045 -19.421067 
L 21.114373 -19.423074 
L 21.225546 -19.425082 
L 21.329974 -19.427089 
L 22.665085 -19.427089 
L 22.665085 -19.427089 
L 22.769514 -19.425082 
L 22.880686 -19.423074 
L 22.997015 -19.421067 
L 23.116517 -19.419059 
L 23.236856 -19.417052 
L 23.355405 -19.415044 
L 23.469337 -19.413037 
L 23.575734 -19.411029 
L 23.671712 -19.409022 
L 23.754557 -19.407014 
L 23.821857 -19.405007 
L 23.871632 -19.402999 
L 23.902445 -19.400992 
L 23.913486 -19.398984 
L 23.904636 -19.396977 
L 23.876484 -19.394969 
L 23.83032 -19.392962 
L 23.768093 -19.390954 
L 23.692328 -19.388947 
L 23.606035 -19.386939 
L 23.512582 -19.384932 
L 23.415569 -19.382924 
L 23.318691 -19.380917 
L 23.225612 -19.378909 
L 23.139842 -19.376902 
L 23.064626 -19.374894 
L 23.002859 -19.372887 
L 22.957008 -19.370879 
L 22.929059 -19.368872 
L 22.920478 -19.366864 
L 22.93219 -19.364857 
L 22.964569 -19.362849 
L 23.017445 -19.360842 
L 23.090119 -19.358834 
L 23.181393 -19.356827 
L 23.289604 -19.35482 
L 23.412678 -19.352812 
L 23.548185 -19.350805 
L 23.693407 -19.348797 
L 23.845412 -19.34679 
L 24.001133 -19.344782 
L 24.157451 -19.342775 
L 24.311281 -19.340767 
L 24.459643 -19.33876 
L 24.599743 -19.336752 
L 24.729034 -19.334745 
L 24.845275 -19.332737 
L 24.946576 -19.33073 
L 25.031438 -19.328722 
L 25.098788 -19.326715 
L 25.148008 -19.324707 
L 25.178963 -19.3227 
L 25.192039 -19.320692 
L 25.188167 -19.318685 
L 25.16887 -19.316677 
L 25.136291 -19.31467 
L 25.093233 -19.312662 
L 25.043179 -19.310655 
L 24.990298 -19.308647 
L 24.939429 -19.30664 
L 24.896027 -19.304632 
L 24.86607 -19.302625 
L 24.855921 -19.300617 
L 24.872135 -19.29861 
L 24.921222 -19.296602 
L 25.009363 -19.294595 
L 25.142086 -19.292587 
L 25.323926 -19.29058 
L 25.558069 -19.288572 
L 25.846023 -19.286565 
L 26.187317 -19.284558 
L 26.57927 -19.28255 
L 27.016846 -19.280543 
L 27.492614 -19.278535 
L 27.996837 -19.276528 
L 28.517687 -19.27452 
L 29.041602 -19.272513 
L 29.553759 -19.270505 
L 30.038658 -19.268498 
L 30.48078 -19.26649 
L 30.865284 -19.264483 
L 31.178706 -19.262475 
L 31.40961 -19.260468 
L 31.549145 -19.25846 
L 31.591487 -19.256453 
L 31.53411 -19.254445 
L 31.377893 -19.252438 
L 31.127038 -19.25043 
L 30.788813 -19.248423 
L 30.373145 -19.246415 
L 29.892081 -19.244408 
L 29.359169 -19.2424 
L 28.788794 -19.240393 
L 28.195508 -19.238385 
L 27.593414 -19.236378 
L 26.995613 -19.23437 
L 26.413763 -19.232363 
L 25.857754 -19.230355 
L 25.335509 -19.228348 
z
" style="stroke: #6f6f6f; stroke-width: 0.15"/>
    </defs>
    <g clip-path="url(#p4ee318208e)">
     <use xlink:href="#md62624fd9d" x="0" y="84.96" style="fill: #98daa7; stroke: #6f6f6f; stroke-width: 0.15"/>
    </g>
   </g>
   <g id="PolyCollection_2">
    <defs>
     <path id="m64a7978740" d="M 48.48574 -16.722129 
L 43.479103 -16.722129 
L 43.05857 -16.899144 
L 42.600335 -17.076158 
L 42.10798 -17.253173 
L 41.586654 -17.430188 
L 41.043078 -17.607202 
L 40.485469 -17.784217 
L 39.923367 -17.961231 
L 39.36738 -18.138246 
L 38.82884 -18.315261 
L 38.319385 -18.492275 
L 37.850491 -18.66929 
L 37.432973 -18.846304 
L 37.07648 -19.023319 
L 36.789027 -19.200334 
L 36.576578 -19.377348 
L 36.442723 -19.554363 
L 36.388465 -19.731377 
L 36.412128 -19.908392 
L 36.50941 -20.085407 
L 36.673562 -20.262421 
L 36.895699 -20.439436 
L 37.165214 -20.61645 
L 37.470271 -20.793465 
L 37.798352 -20.97048 
L 38.13682 -21.147494 
L 38.473466 -21.324509 
L 38.797007 -21.501523 
L 39.097516 -21.678538 
L 39.366747 -21.855553 
L 39.598369 -22.032567 
L 39.788073 -22.209582 
L 39.933581 -22.386596 
L 40.034547 -22.563611 
L 40.09238 -22.740626 
L 40.109998 -22.91764 
L 40.091543 -23.094655 
L 40.042064 -23.271669 
L 39.96721 -23.448684 
L 39.872933 -23.625699 
L 39.765224 -23.802713 
L 39.649888 -23.979728 
L 39.532368 -24.156742 
L 39.417614 -24.333757 
L 39.310001 -24.510772 
L 39.213279 -24.687786 
L 39.130559 -24.864801 
L 39.064324 -25.041815 
L 39.016447 -25.21883 
L 38.98822 -25.395845 
L 38.980376 -25.572859 
L 38.993113 -25.749874 
L 39.026103 -25.926888 
L 39.078499 -26.103903 
L 39.148938 -26.280918 
L 39.235538 -26.457932 
L 39.335911 -26.634947 
L 39.447183 -26.811961 
L 39.566032 -26.988976 
L 39.68876 -27.165991 
L 39.811379 -27.343005 
L 39.929739 -27.52002 
L 40.039679 -27.697035 
L 40.137196 -27.874049 
L 40.218639 -28.051064 
L 40.2809 -28.228078 
L 40.321605 -28.405093 
L 40.339282 -28.582108 
L 40.333499 -28.759122 
L 40.30496 -28.936137 
L 40.255544 -29.113151 
L 40.188288 -29.290166 
L 40.10731 -29.467181 
L 40.017668 -29.644195 
L 39.925162 -29.82121 
L 39.836094 -29.998224 
L 39.756996 -30.175239 
L 39.694333 -30.352254 
L 39.654212 -30.529268 
L 39.642098 -30.706283 
L 39.662571 -30.883297 
L 39.719115 -31.060312 
L 39.813974 -31.237327 
L 39.948062 -31.414341 
L 40.120947 -31.591356 
L 40.330889 -31.76837 
L 40.574948 -31.945385 
L 40.849145 -32.1224 
L 41.148653 -32.299414 
L 41.468029 -32.476429 
L 41.801454 -32.653443 
L 42.142977 -32.830458 
L 42.486746 -33.007473 
L 42.827218 -33.184487 
L 43.159335 -33.361502 
L 43.478666 -33.538516 
L 43.781502 -33.715531 
L 44.064916 -33.892546 
L 44.326778 -34.06956 
L 44.565734 -34.246575 
L 47.39911 -34.246575 
L 47.39911 -34.246575 
L 47.638066 -34.06956 
L 47.899928 -33.892546 
L 48.183342 -33.715531 
L 48.486178 -33.538516 
L 48.805509 -33.361502 
L 49.137626 -33.184487 
L 49.478098 -33.007473 
L 49.821867 -32.830458 
L 50.16339 -32.653443 
L 50.496815 -32.476429 
L 50.816191 -32.299414 
L 51.115699 -32.1224 
L 51.389895 -31.945385 
L 51.633955 -31.76837 
L 51.843897 -31.591356 
L 52.016781 -31.414341 
L 52.15087 -31.237327 
L 52.245729 -31.060312 
L 52.302273 -30.883297 
L 52.322746 -30.706283 
L 52.310632 -30.529268 
L 52.270511 -30.352254 
L 52.207848 -30.175239 
L 52.12875 -29.998224 
L 52.039682 -29.82121 
L 51.947175 -29.644195 
L 51.857533 -29.467181 
L 51.776556 -29.290166 
L 51.7093 -29.113151 
L 51.659884 -28.936137 
L 51.631345 -28.759122 
L 51.625562 -28.582108 
L 51.643239 -28.405093 
L 51.683944 -28.228078 
L 51.746205 -28.051064 
L 51.827648 -27.874049 
L 51.925165 -27.697035 
L 52.035105 -27.52002 
L 52.153465 -27.343005 
L 52.276084 -27.165991 
L 52.398812 -26.988976 
L 52.517661 -26.811961 
L 52.628933 -26.634947 
L 52.729306 -26.457932 
L 52.815906 -26.280918 
L 52.886345 -26.103903 
L 52.938741 -25.926888 
L 52.971731 -25.749874 
L 52.984468 -25.572859 
L 52.976624 -25.395845 
L 52.948397 -25.21883 
L 52.90052 -25.041815 
L 52.834285 -24.864801 
L 52.751565 -24.687786 
L 52.654843 -24.510772 
L 52.547229 -24.333757 
L 52.432476 -24.156742 
L 52.314956 -23.979728 
L 52.19962 -23.802713 
L 52.091911 -23.625699 
L 51.997634 -23.448684 
L 51.92278 -23.271669 
L 51.873301 -23.094655 
L 51.854845 -22.91764 
L 51.872464 -22.740626 
L 51.930297 -22.563611 
L 52.031263 -22.386596 
L 52.17677 -22.209582 
L 52.366475 -22.032567 
L 52.598097 -21.855553 
L 52.867328 -21.678538 
L 53.167836 -21.501523 
L 53.491378 -21.324509 
L 53.828024 -21.147494 
L 54.166492 -20.97048 
L 54.494573 -20.793465 
L 54.799629 -20.61645 
L 55.069144 -20.439436 
L 55.291282 -20.262421 
L 55.455434 -20.085407 
L 55.552716 -19.908392 
L 55.576379 -19.731377 
L 55.522121 -19.554363 
L 55.388266 -19.377348 
L 55.175817 -19.200334 
L 54.888364 -19.023319 
L 54.531871 -18.846304 
L 54.114353 -18.66929 
L 53.645459 -18.492275 
L 53.136004 -18.315261 
L 52.597464 -18.138246 
L 52.041477 -17.961231 
L 51.479375 -17.784217 
L 50.921766 -17.607202 
L 50.37819 -17.430188 
L 49.856864 -17.253173 
L 49.364508 -17.076158 
L 48.906274 -16.899144 
L 48.48574 -16.722129 
z
" style="stroke: #6f6f6f; stroke-width: 0.15"/>
    </defs>
    <g clip-path="url(#p4ee318208e)">
     <use xlink:href="#m64a7978740" x="0" y="84.96" style="fill: #f2aba8; stroke: #6f6f6f; stroke-width: 0.15"/>
    </g>
   </g>
   <g id="PolyCollection_3">
    <defs>
     <path id="m58e8e581a6" d="M 73.028251 -18.842881 
L 66.906377 -18.842881 
L 66.4059 -18.873604 
L 65.870398 -18.904327 
L 65.307327 -18.93505 
L 64.726023 -18.965773 
L 64.137452 -18.996496 
L 63.553815 -19.027219 
L 62.988031 -19.057942 
L 62.453126 -19.088665 
L 61.961551 -19.119388 
L 61.524488 -19.150111 
L 61.151197 -19.180834 
L 60.848455 -19.211557 
L 60.620134 -19.24228 
L 60.466964 -19.273003 
L 60.386509 -19.303727 
L 60.373357 -19.33445 
L 60.419522 -19.365173 
L 60.515021 -19.395896 
L 60.648586 -19.426619 
L 60.808451 -19.457342 
L 60.983145 -19.488065 
L 61.162227 -19.518788 
L 61.336903 -19.549511 
L 61.500471 -19.580234 
L 61.648572 -19.610957 
L 61.779223 -19.64168 
L 61.892648 -19.672403 
L 61.990926 -19.703126 
L 62.077511 -19.733849 
L 62.156666 -19.764572 
L 62.232871 -19.795295 
L 62.31028 -19.826018 
L 62.39225 -19.856741 
L 62.481012 -19.887464 
L 62.577488 -19.918187 
L 62.681272 -19.94891 
L 62.790761 -19.979633 
L 62.903424 -20.010356 
L 63.016152 -20.041079 
L 63.125674 -20.071802 
L 63.228972 -20.102525 
L 63.323664 -20.133248 
L 63.408316 -20.163971 
L 63.482657 -20.194694 
L 63.547671 -20.225417 
L 63.605579 -20.25614 
L 63.659706 -20.286864 
L 63.71425 -20.317587 
L 63.773978 -20.34831 
L 63.84388 -20.379033 
L 63.928806 -20.409756 
L 64.033115 -20.440479 
L 64.16036 -20.471202 
L 64.313039 -20.501925 
L 64.492404 -20.532648 
L 64.69836 -20.563371 
L 64.929446 -20.594094 
L 65.182883 -20.624817 
L 65.454704 -20.65554 
L 65.739936 -20.686263 
L 66.032823 -20.716986 
L 66.327085 -20.747709 
L 66.616188 -20.778432 
L 66.893614 -20.809155 
L 67.153127 -20.839878 
L 67.389011 -20.870601 
L 67.596284 -20.901324 
L 67.770881 -20.932047 
L 67.909798 -20.96277 
L 68.011196 -20.993493 
L 68.074471 -21.024216 
L 68.100276 -21.054939 
L 68.090509 -21.085662 
L 68.048253 -21.116385 
L 67.977682 -21.147108 
L 67.883918 -21.177831 
L 67.772856 -21.208554 
L 67.650949 -21.239277 
L 67.524969 -21.27 
L 67.401742 -21.300724 
L 67.287875 -21.331447 
L 67.189487 -21.36217 
L 67.111956 -21.392893 
L 67.0597 -21.423616 
L 67.036001 -21.454339 
L 67.042888 -21.485062 
L 67.081083 -21.515785 
L 67.150019 -21.546508 
L 67.24792 -21.577231 
L 67.371947 -21.607954 
L 67.518389 -21.638677 
L 67.682895 -21.6694 
L 67.860718 -21.700123 
L 68.046974 -21.730846 
L 68.236871 -21.761569 
L 68.425927 -21.792292 
L 68.610136 -21.823015 
L 68.7861 -21.853738 
L 68.9511 -21.884461 
L 70.983528 -21.884461 
L 70.983528 -21.884461 
L 71.148528 -21.853738 
L 71.324492 -21.823015 
L 71.508701 -21.792292 
L 71.697757 -21.761569 
L 71.887654 -21.730846 
L 72.07391 -21.700123 
L 72.251733 -21.6694 
L 72.416239 -21.638677 
L 72.562681 -21.607954 
L 72.686708 -21.577231 
L 72.784609 -21.546508 
L 72.853545 -21.515785 
L 72.89174 -21.485062 
L 72.898627 -21.454339 
L 72.874928 -21.423616 
L 72.822672 -21.392893 
L 72.745141 -21.36217 
L 72.646753 -21.331447 
L 72.532886 -21.300724 
L 72.409659 -21.27 
L 72.283679 -21.239277 
L 72.161772 -21.208554 
L 72.05071 -21.177831 
L 71.956946 -21.147108 
L 71.886374 -21.116385 
L 71.844119 -21.085662 
L 71.834352 -21.054939 
L 71.860157 -21.024216 
L 71.923432 -20.993493 
L 72.02483 -20.96277 
L 72.163747 -20.932047 
L 72.338344 -20.901324 
L 72.545617 -20.870601 
L 72.781501 -20.839878 
L 73.041014 -20.809155 
L 73.31844 -20.778432 
L 73.607543 -20.747709 
L 73.901805 -20.716986 
L 74.194692 -20.686263 
L 74.479923 -20.65554 
L 74.751745 -20.624817 
L 75.005182 -20.594094 
L 75.236268 -20.563371 
L 75.442224 -20.532648 
L 75.621589 -20.501925 
L 75.774267 -20.471202 
L 75.901513 -20.440479 
L 76.005822 -20.409756 
L 76.090748 -20.379033 
L 76.16065 -20.34831 
L 76.220378 -20.317587 
L 76.274922 -20.286864 
L 76.329049 -20.25614 
L 76.386957 -20.225417 
L 76.451971 -20.194694 
L 76.526311 -20.163971 
L 76.610964 -20.133248 
L 76.705656 -20.102525 
L 76.808954 -20.071802 
L 76.918476 -20.041079 
L 77.031204 -20.010356 
L 77.143866 -19.979633 
L 77.253356 -19.94891 
L 77.35714 -19.918187 
L 77.453616 -19.887464 
L 77.542378 -19.856741 
L 77.624348 -19.826018 
L 77.701757 -19.795295 
L 77.777962 -19.764572 
L 77.857117 -19.733849 
L 77.943702 -19.703126 
L 78.04198 -19.672403 
L 78.155405 -19.64168 
L 78.286056 -19.610957 
L 78.434157 -19.580234 
L 78.597725 -19.549511 
L 78.772401 -19.518788 
L 78.951483 -19.488065 
L 79.126177 -19.457342 
L 79.286042 -19.426619 
L 79.419607 -19.395896 
L 79.515106 -19.365173 
L 79.561271 -19.33445 
L 79.548119 -19.303727 
L 79.467664 -19.273003 
L 79.314494 -19.24228 
L 79.086173 -19.211557 
L 78.783431 -19.180834 
L 78.41014 -19.150111 
L 77.973077 -19.119388 
L 77.481502 -19.088665 
L 76.946597 -19.057942 
L 76.380813 -19.027219 
L 75.797176 -18.996496 
L 75.208605 -18.965773 
L 74.627301 -18.93505 
L 74.06423 -18.904327 
L 73.528728 -18.873604 
L 73.028251 -18.842881 
z
" style="stroke: #6f6f6f; stroke-width: 0.15"/>
    </defs>
    <g clip-path="url(#p4ee318208e)">
     <use xlink:href="#m58e8e581a6" x="0" y="84.96" style="fill: #d3c4f6; stroke: #6f6f6f; stroke-width: 0.15"/>
    </g>
   </g>
   <g id="line2d_9">
    <path d="M 21.99753 65.703651 
L 21.99753 65.560912 
" clip-path="url(#p4ee318208e)" style="fill: none; stroke: #8c8c8c; stroke-width: 0.75; stroke-linecap: round"/>
   </g>
   <g id="line2d_10">
    <path d="M 21.99753 65.703651 
L 21.99753 65.64448 
" clip-path="url(#p4ee318208e)" style="fill: none; stroke: #8c8c8c; stroke-width: 4; stroke-linecap: round"/>
   </g>
   <g id="line2d_11">
    <path d="M 21.99753 65.703651 
" clip-path="url(#p4ee318208e)" style="fill: none; stroke: #6f6f6f; stroke-width: 1.2; stroke-linecap: round"/>
    <defs>
     <path id="m1645e81c2b" d="M 0 0.833333 
C 0.221003 0.833333 0.432983 0.745528 0.589256 0.589256 
C 0.745528 0.432983 0.833333 0.221003 0.833333 0 
C 0.833333 -0.221003 0.745528 -0.432983 0.589256 -0.589256 
C 0.432983 -0.745528 0.221003 -0.833333 0 -0.833333 
C -0.221003 -0.833333 -0.432983 -0.745528 -0.589256 -0.589256 
C -0.745528 -0.432983 -0.833333 -0.221003 -0.833333 0 
C -0.833333 0.221003 -0.745528 0.432983 -0.589256 0.589256 
C -0.432983 0.745528 -0.221003 0.833333 0 0.833333 
z
" style="stroke: #ffffff; stroke-width: 0.8"/>
    </defs>
    <g clip-path="url(#p4ee318208e)">
     <use xlink:href="#m1645e81c2b" x="21.99753" y="65.703651" style="fill: #ffffff; stroke: #ffffff; stroke-width: 0.8"/>
    </g>
   </g>
   <g id="line2d_12">
    <path d="M 45.982422 65.66595 
L 45.982422 53.285346 
" clip-path="url(#p4ee318208e)" style="fill: none; stroke: #8c8c8c; stroke-width: 0.75; stroke-linecap: round"/>
   </g>
   <g id="line2d_13">
    <path d="M 45.982422 65.081872 
L 45.982422 56.897326 
" clip-path="url(#p4ee318208e)" style="fill: none; stroke: #8c8c8c; stroke-width: 4; stroke-linecap: round"/>
   </g>
   <g id="line2d_14">
    <path d="M 45.982422 60.383389 
" clip-path="url(#p4ee318208e)" style="fill: none; stroke: #6f6f6f; stroke-width: 1.2; stroke-linecap: round"/>
    <g clip-path="url(#p4ee318208e)">
     <use xlink:href="#m1645e81c2b" x="45.982422" y="60.383389" style="fill: #ffffff; stroke: #ffffff; stroke-width: 0.8"/>
    </g>
   </g>
   <g id="line2d_15">
    <path d="M 69.967314 65.703651 
L 69.967314 63.489007 
" clip-path="url(#p4ee318208e)" style="fill: none; stroke: #8c8c8c; stroke-width: 0.75; stroke-linecap: round"/>
   </g>
   <g id="line2d_16">
    <path d="M 69.967314 65.703651 
L 69.967314 64.562867 
" clip-path="url(#p4ee318208e)" style="fill: none; stroke: #8c8c8c; stroke-width: 4; stroke-linecap: round"/>
   </g>
   <g id="line2d_17">
    <path d="M 69.967314 65.116611 
" clip-path="url(#p4ee318208e)" style="fill: none; stroke: #6f6f6f; stroke-width: 1.2; stroke-linecap: round"/>
    <g clip-path="url(#p4ee318208e)">
     <use xlink:href="#m1645e81c2b" x="69.967314" y="65.116611" style="fill: #ffffff; stroke: #ffffff; stroke-width: 0.8"/>
    </g>
   </g>
   <g id="patch_3">
    <path d="M 10.005084 74.419526 
L 10.005084 4.076256 
" style="fill: none; stroke: #777777; stroke-width: 0.5; stroke-linejoin: miter; stroke-linecap: square"/>
   </g>
   <g id="patch_4">
    <path d="M 10.005084 76.919526 
L 81.95976 76.919526 
" style="fill: none; stroke: #777777; stroke-width: 0.5; stroke-linejoin: miter; stroke-linecap: square"/>
   </g>
  </g>
 </g>
 <defs>
  <clipPath id="p4ee318208e">
   <rect x="10.005084" y="4.076256" width="71.954676" height="70.34327"/>
  </clipPath>
 </defs>
</svg>
