<?xml version="1.0" encoding="utf-8" standalone="no"?>
<!DOCTYPE svg PUBLIC "-//W3C//DTD SVG 1.1//EN"
  "http://www.w3.org/Graphics/SVG/1.1/DTD/svg11.dtd">
<svg xmlns:xlink="http://www.w3.org/1999/xlink" width="56.16pt" height="84.96pt" viewBox="0 0 56.16 84.96" xmlns="http://www.w3.org/2000/svg" version="1.1">
 <metadata>
  <rdf:RDF xmlns:dc="http://purl.org/dc/elements/1.1/" xmlns:cc="http://creativecommons.org/ns#" xmlns:rdf="http://www.w3.org/1999/02/22-rdf-syntax-ns#">
   <cc:Work>
    <dc:type rdf:resource="http://purl.org/dc/dcmitype/StillImage"/>
    <dc:date>2024-05-27T15:37:03.792603</dc:date>
    <dc:format>image/svg+xml</dc:format>
    <dc:creator>
     <cc:Agent>
      <dc:title>Matplotlib v3.8.3, https://matplotlib.org/</dc:title>
     </cc:Agent>
    </dc:creator>
   </cc:Work>
  </rdf:RDF>
 </metadata>
 <defs>
  <style type="text/css">*{stroke-linejoin: round; stroke-linecap: butt}</style>
 </defs>
 <g id="figure_1">
  <g id="patch_1">
   <path d="M 0 84.96 
L 56.16 84.96 
L 56.16 0 
L 0 0 
z
" style="fill: #ffffff"/>
  </g>
  <g id="axes_1">
   <g id="patch_2">
    <path d="M 8.336802 74.419526 
L 53.15976 74.419526 
L 53.15976 4.076256 
L 8.336802 4.076256 
z
" style="fill: #ffffff"/>
   </g>
   <g id="matplotlib.axis_1">
    <g id="xtick_1">
     <g id="text_1">
      <!-- ILC3 -->
      <g style="fill: #333333" transform="translate(15.846214 81.230229) scale(0.035 -0.035)">
       <defs>
        <path id="Helvetica-49" d="M 628 4591 
L 1256 4591 
L 1256 0 
L 628 0 
L 628 4591 
z
" transform="scale(0.015625)"/>
        <path id="Helvetica-4c" d="M 488 4591 
L 1109 4591 
L 1109 547 
L 3434 547 
L 3434 0 
L 488 0 
L 488 4591 
z
" transform="scale(0.015625)"/>
        <path id="Helvetica-43" d="M 2422 4716 
Q 3294 4716 3775 4256 
Q 4256 3797 4309 3213 
L 3703 3213 
Q 3600 3656 3292 3915 
Q 2984 4175 2428 4175 
Q 1750 4175 1333 3698 
Q 916 3222 916 2238 
Q 916 1431 1292 929 
Q 1669 428 2416 428 
Q 3103 428 3463 956 
Q 3653 1234 3747 1688 
L 4353 1688 
Q 4272 963 3816 472 
Q 3269 -119 2341 -119 
Q 1541 -119 997 366 
Q 281 1006 281 2344 
Q 281 3359 819 4009 
Q 1400 4716 2422 4716 
z
M 2297 4716 
L 2297 4716 
z
" transform="scale(0.015625)"/>
        <path id="Helvetica-33" d="M 1663 -122 
Q 869 -122 511 314 
Q 153 750 153 1375 
L 741 1375 
Q 778 941 903 744 
Q 1122 391 1694 391 
Q 2138 391 2406 628 
Q 2675 866 2675 1241 
Q 2675 1703 2392 1887 
Q 2109 2072 1606 2072 
Q 1550 2072 1492 2070 
Q 1434 2069 1375 2066 
L 1375 2563 
Q 1463 2553 1522 2550 
Q 1581 2547 1650 2547 
Q 1966 2547 2169 2647 
Q 2525 2822 2525 3272 
Q 2525 3606 2287 3787 
Q 2050 3969 1734 3969 
Q 1172 3969 956 3594 
Q 838 3388 822 3006 
L 266 3006 
Q 266 3506 466 3856 
Q 809 4481 1675 4481 
Q 2359 4481 2734 4176 
Q 3109 3872 3109 3294 
Q 3109 2881 2888 2625 
Q 2750 2466 2531 2375 
Q 2884 2278 3082 2001 
Q 3281 1725 3281 1325 
Q 3281 684 2859 281 
Q 2438 -122 1663 -122 
z
" transform="scale(0.015625)"/>
       </defs>
       <use xlink:href="#Helvetica-49"/>
       <use xlink:href="#Helvetica-4c" x="27.783203"/>
       <use xlink:href="#Helvetica-43" x="83.398438"/>
       <use xlink:href="#Helvetica-33" x="155.615234"/>
      </g>
     </g>
    </g>
    <g id="xtick_2">
     <g id="text_2">
      <!-- TH17 -->
      <g style="fill: #333333" transform="translate(37.674997 81.230229) scale(0.035 -0.035)">
       <defs>
        <path id="Helvetica-54" d="M 3828 4591 
L 3828 4044 
L 2281 4044 
L 2281 0 
L 1650 0 
L 1650 4044 
L 103 4044 
L 103 4591 
L 3828 4591 
z
" transform="scale(0.015625)"/>
        <path id="Helvetica-48" d="M 503 4591 
L 1131 4591 
L 1131 2694 
L 3519 2694 
L 3519 4591 
L 4147 4591 
L 4147 0 
L 3519 0 
L 3519 2147 
L 1131 2147 
L 1131 0 
L 503 0 
L 503 4591 
z
" transform="scale(0.015625)"/>
        <path id="Helvetica-31" d="M 613 3169 
L 613 3600 
Q 1222 3659 1462 3798 
Q 1703 3938 1822 4456 
L 2266 4456 
L 2266 0 
L 1666 0 
L 1666 3169 
L 613 3169 
z
" transform="scale(0.015625)"/>
        <path id="Helvetica-37" d="M 3347 4400 
L 3347 3909 
Q 3131 3700 2773 3181 
Q 2416 2663 2141 2063 
Q 1869 1478 1728 997 
Q 1638 688 1494 0 
L 872 0 
Q 1084 1281 1809 2550 
Q 2238 3294 2709 3834 
L 234 3834 
L 234 4400 
L 3347 4400 
z
" transform="scale(0.015625)"/>
       </defs>
       <use xlink:href="#Helvetica-54"/>
       <use xlink:href="#Helvetica-48" x="61.083984"/>
       <use xlink:href="#Helvetica-31" x="133.300781"/>
       <use xlink:href="#Helvetica-37" x="188.916016"/>
      </g>
     </g>
    </g>
   </g>
   <g id="matplotlib.axis_2">
    <g id="ytick_1">
     <g id="line2d_1">
      <defs>
       <path id="m2ce57527f4" d="M 0 0 
L -1 0 
" style="stroke: #777777; stroke-width: 0.5"/>
      </defs>
      <g>
       <use xlink:href="#m2ce57527f4" x="8.336802" y="66.995102" style="fill: #777777; stroke: #777777; stroke-width: 0.5"/>
      </g>
     </g>
     <g id="text_3">
      <!-- 0 -->
      <g style="fill: #333333" transform="translate(4.668521 68.071117) scale(0.03 -0.03)">
       <defs>
        <path id="Helvetica-30" d="M 1731 4475 
Q 2600 4475 2988 3759 
Q 3288 3206 3288 2244 
Q 3288 1331 3016 734 
Q 2622 -122 1728 -122 
Q 922 -122 528 578 
Q 200 1163 200 2147 
Q 200 2909 397 3456 
Q 766 4475 1731 4475 
z
M 1725 391 
Q 2163 391 2422 778 
Q 2681 1166 2681 2222 
Q 2681 2984 2493 3476 
Q 2306 3969 1766 3969 
Q 1269 3969 1039 3501 
Q 809 3034 809 2125 
Q 809 1441 956 1025 
Q 1181 391 1725 391 
z
" transform="scale(0.015625)"/>
       </defs>
       <use xlink:href="#Helvetica-30"/>
      </g>
     </g>
    </g>
    <g id="ytick_2">
     <g id="line2d_2">
      <g>
       <use xlink:href="#m2ce57527f4" x="8.336802" y="54.411333" style="fill: #777777; stroke: #777777; stroke-width: 0.5"/>
      </g>
     </g>
     <g id="text_4">
      <!-- 10 -->
      <g style="fill: #333333" transform="translate(3.00024 55.487348) scale(0.03 -0.03)">
       <use xlink:href="#Helvetica-31"/>
       <use xlink:href="#Helvetica-30" x="55.615234"/>
      </g>
     </g>
    </g>
    <g id="ytick_3">
     <g id="line2d_3">
      <g>
       <use xlink:href="#m2ce57527f4" x="8.336802" y="41.827563" style="fill: #777777; stroke: #777777; stroke-width: 0.5"/>
      </g>
     </g>
     <g id="text_5">
      <!-- 20 -->
      <g style="fill: #333333" transform="translate(3.00024 42.903579) scale(0.03 -0.03)">
       <defs>
        <path id="Helvetica-32" d="M 200 0 
Q 231 578 439 1006 
Q 647 1434 1250 1784 
L 1850 2131 
Q 2253 2366 2416 2531 
Q 2672 2791 2672 3125 
Q 2672 3516 2437 3745 
Q 2203 3975 1813 3975 
Q 1234 3975 1013 3538 
Q 894 3303 881 2888 
L 309 2888 
Q 319 3472 525 3841 
Q 891 4491 1816 4491 
Q 2584 4491 2939 4075 
Q 3294 3659 3294 3150 
Q 3294 2613 2916 2231 
Q 2697 2009 2131 1694 
L 1703 1456 
Q 1397 1288 1222 1134 
Q 909 863 828 531 
L 3272 531 
L 3272 0 
L 200 0 
z
" transform="scale(0.015625)"/>
       </defs>
       <use xlink:href="#Helvetica-32"/>
       <use xlink:href="#Helvetica-30" x="55.615234"/>
      </g>
     </g>
    </g>
    <g id="ytick_4">
     <g id="line2d_4">
      <g>
       <use xlink:href="#m2ce57527f4" x="8.336802" y="29.243794" style="fill: #777777; stroke: #777777; stroke-width: 0.5"/>
      </g>
     </g>
     <g id="text_6">
      <!-- 30 -->
      <g style="fill: #333333" transform="translate(3.00024 30.31981) scale(0.03 -0.03)">
       <use xlink:href="#Helvetica-33"/>
       <use xlink:href="#Helvetica-30" x="55.615234"/>
      </g>
     </g>
    </g>
    <g id="ytick_5">
     <g id="line2d_5">
      <g>
       <use xlink:href="#m2ce57527f4" x="8.336802" y="16.660025" style="fill: #777777; stroke: #777777; stroke-width: 0.5"/>
      </g>
     </g>
     <g id="text_7">
      <!-- 40 -->
      <g style="fill: #333333" transform="translate(3.00024 17.73604) scale(0.03 -0.03)">
       <defs>
        <path id="Helvetica-34" d="M 2116 1584 
L 2116 3613 
L 681 1584 
L 2116 1584 
z
M 2125 0 
L 2125 1094 
L 163 1094 
L 163 1644 
L 2213 4488 
L 2688 4488 
L 2688 1584 
L 3347 1584 
L 3347 1094 
L 2688 1094 
L 2688 0 
L 2125 0 
z
" transform="scale(0.015625)"/>
       </defs>
       <use xlink:href="#Helvetica-34"/>
       <use xlink:href="#Helvetica-30" x="55.615234"/>
      </g>
     </g>
    </g>
    <g id="ytick_6">
     <g id="line2d_6">
      <g>
       <use xlink:href="#m2ce57527f4" x="8.336802" y="4.076256" style="fill: #777777; stroke: #777777; stroke-width: 0.5"/>
      </g>
     </g>
     <g id="text_8">
      <!-- 50 -->
      <g style="fill: #333333" transform="translate(3.00024 5.152271) scale(0.03 -0.03)">
       <defs>
        <path id="Helvetica-35" d="M 791 1141 
Q 847 659 1238 475 
Q 1438 381 1700 381 
Q 2200 381 2440 700 
Q 2681 1019 2681 1406 
Q 2681 1875 2395 2131 
Q 2109 2388 1709 2388 
Q 1419 2388 1211 2275 
Q 1003 2163 856 1963 
L 369 1991 
L 709 4400 
L 3034 4400 
L 3034 3856 
L 1131 3856 
L 941 2613 
Q 1097 2731 1238 2791 
Q 1488 2894 1816 2894 
Q 2431 2894 2859 2497 
Q 3288 2100 3288 1491 
Q 3288 856 2895 371 
Q 2503 -113 1644 -113 
Q 1097 -113 676 195 
Q 256 503 206 1141 
L 791 1141 
z
" transform="scale(0.015625)"/>
       </defs>
       <use xlink:href="#Helvetica-35"/>
       <use xlink:href="#Helvetica-30" x="55.615234"/>
      </g>
     </g>
    </g>
   </g>
   <g id="PolyCollection_1">
    <defs>
     <path id="m0230a102a3" d="M 22.217439 -17.709356 
L 16.867645 -17.709356 
L 16.399339 -17.728467 
L 15.891591 -17.747578 
L 15.350648 -17.766689 
L 14.784941 -17.7858 
L 14.204982 -17.804912 
L 13.623127 -17.824023 
L 13.053188 -17.843134 
L 12.509915 -17.862245 
L 12.008363 -17.881356 
L 11.563187 -17.900467 
L 11.187901 -17.919579 
L 10.894157 -17.93869 
L 10.691091 -17.957801 
L 10.584797 -17.976912 
L 10.57795 -17.996023 
L 10.669636 -18.015134 
L 10.855377 -18.034246 
L 11.127374 -18.053357 
L 11.474933 -18.072468 
L 11.885062 -18.091579 
L 12.343168 -18.11069 
L 12.833839 -18.129801 
L 13.34162 -18.148913 
L 13.851763 -18.168024 
L 14.350878 -18.187135 
L 14.82747 -18.206246 
L 15.272321 -18.225357 
L 15.678714 -18.244468 
L 16.042486 -18.263579 
L 16.361941 -18.282691 
L 16.637629 -18.301802 
L 16.872011 -18.320913 
L 17.069074 -18.340024 
L 17.233882 -18.359135 
L 17.372142 -18.378246 
L 17.489774 -18.397358 
L 17.592535 -18.416469 
L 17.685708 -18.43558 
L 17.773854 -18.454691 
L 17.860655 -18.473802 
L 17.948831 -18.492913 
L 18.040131 -18.512025 
L 18.135389 -18.531136 
L 18.234628 -18.550247 
L 18.337203 -18.569358 
L 18.441965 -18.588469 
L 18.547426 -18.60758 
L 18.651928 -18.626692 
L 18.753787 -18.645803 
L 18.851414 -18.664914 
L 18.94341 -18.684025 
L 19.028623 -18.703136 
L 19.106185 -18.722247 
L 19.175511 -18.741359 
L 19.236277 -18.76047 
L 19.288385 -18.779581 
L 19.331914 -18.798692 
L 19.367058 -18.817803 
L 19.394073 -18.836914 
L 19.413222 -18.856026 
L 19.424731 -18.875137 
L 19.428752 -18.894248 
L 19.425343 -18.913359 
L 19.414459 -18.93247 
L 19.395963 -18.951581 
L 19.369643 -18.970692 
L 19.335251 -18.989804 
L 19.292549 -19.008915 
L 19.241368 -19.028026 
L 19.181665 -19.047137 
L 19.11359 -19.066248 
L 19.037545 -19.085359 
L 18.954237 -19.104471 
L 18.86471 -19.123582 
L 18.770371 -19.142693 
L 18.672978 -19.161804 
L 18.574617 -19.180915 
L 18.477642 -19.200026 
L 18.384595 -19.219138 
L 18.298106 -19.238249 
L 18.220772 -19.25736 
L 18.155032 -19.276471 
L 18.103044 -19.295582 
L 18.066562 -19.314693 
L 18.046846 -19.333805 
L 18.044583 -19.352916 
L 18.059855 -19.372027 
L 18.092128 -19.391138 
L 18.140284 -19.410249 
L 18.202691 -19.42936 
L 18.277286 -19.448472 
L 18.361697 -19.467583 
L 18.453359 -19.486694 
L 18.549652 -19.505805 
L 18.648012 -19.524916 
L 18.74605 -19.544027 
L 18.841634 -19.563138 
L 18.932958 -19.58225 
L 19.018581 -19.601361 
L 20.066503 -19.601361 
L 20.066503 -19.601361 
L 20.152126 -19.58225 
L 20.24345 -19.563138 
L 20.339034 -19.544027 
L 20.437072 -19.524916 
L 20.535432 -19.505805 
L 20.631724 -19.486694 
L 20.723387 -19.467583 
L 20.807797 -19.448472 
L 20.882393 -19.42936 
L 20.944799 -19.410249 
L 20.992956 -19.391138 
L 21.025229 -19.372027 
L 21.0405 -19.352916 
L 21.038238 -19.333805 
L 21.018522 -19.314693 
L 20.98204 -19.295582 
L 20.930051 -19.276471 
L 20.864312 -19.25736 
L 20.786978 -19.238249 
L 20.700489 -19.219138 
L 20.607442 -19.200026 
L 20.510467 -19.180915 
L 20.412106 -19.161804 
L 20.314713 -19.142693 
L 20.220374 -19.123582 
L 20.130847 -19.104471 
L 20.047539 -19.085359 
L 19.971494 -19.066248 
L 19.903419 -19.047137 
L 19.843716 -19.028026 
L 19.792534 -19.008915 
L 19.749833 -18.989804 
L 19.715441 -18.970692 
L 19.689121 -18.951581 
L 19.670624 -18.93247 
L 19.659741 -18.913359 
L 19.656332 -18.894248 
L 19.660353 -18.875137 
L 19.671862 -18.856026 
L 19.691011 -18.836914 
L 19.718026 -18.817803 
L 19.75317 -18.798692 
L 19.796698 -18.779581 
L 19.848807 -18.76047 
L 19.909573 -18.741359 
L 19.978898 -18.722247 
L 20.056461 -18.703136 
L 20.141674 -18.684025 
L 20.23367 -18.664914 
L 20.331297 -18.645803 
L 20.433156 -18.626692 
L 20.537658 -18.60758 
L 20.643119 -18.588469 
L 20.74788 -18.569358 
L 20.850456 -18.550247 
L 20.949695 -18.531136 
L 21.044953 -18.512025 
L 21.136253 -18.492913 
L 21.224429 -18.473802 
L 21.31123 -18.454691 
L 21.399376 -18.43558 
L 21.492548 -18.416469 
L 21.59531 -18.397358 
L 21.712942 -18.378246 
L 21.851201 -18.359135 
L 22.01601 -18.340024 
L 22.213072 -18.320913 
L 22.447455 -18.301802 
L 22.723142 -18.282691 
L 23.042598 -18.263579 
L 23.40637 -18.244468 
L 23.812762 -18.225357 
L 24.257614 -18.206246 
L 24.734206 -18.187135 
L 25.233321 -18.168024 
L 25.743463 -18.148913 
L 26.251245 -18.129801 
L 26.741916 -18.11069 
L 27.200022 -18.091579 
L 27.610151 -18.072468 
L 27.95771 -18.053357 
L 28.229706 -18.034246 
L 28.415447 -18.015134 
L 28.507133 -17.996023 
L 28.500287 -17.976912 
L 28.393993 -17.957801 
L 28.190927 -17.93869 
L 27.897183 -17.919579 
L 27.521897 -17.900467 
L 27.076721 -17.881356 
L 26.575169 -17.862245 
L 26.031896 -17.843134 
L 25.461957 -17.824023 
L 24.880102 -17.804912 
L 24.300143 -17.7858 
L 23.734436 -17.766689 
L 23.193493 -17.747578 
L 22.685744 -17.728467 
L 22.217439 -17.709356 
z
" style="stroke: #7c7c7c; stroke-width: 0.15"/>
    </defs>
    <g clip-path="url(#pa6deb7ae78)">
     <use xlink:href="#m0230a102a3" x="0" y="84.96" style="fill: #cfcfcf; stroke: #7c7c7c; stroke-width: 0.15"/>
    </g>
   </g>
   <g id="PolyCollection_2">
    <defs>
     <path id="m70f138b8e2" d="M 44.342562 -17.652613 
L 39.565479 -17.652613 
L 39.125257 -17.676782 
L 38.643033 -17.700951 
L 38.123787 -17.725119 
L 37.574653 -17.749288 
L 37.004882 -17.773457 
L 36.425668 -17.797625 
L 35.849825 -17.821794 
L 35.291322 -17.845962 
L 34.764709 -17.870131 
L 34.284439 -17.8943 
L 33.864156 -17.918468 
L 33.51598 -17.942637 
L 33.249848 -17.966806 
L 33.072971 -17.990974 
L 32.989429 -18.015143 
L 32.999968 -18.039312 
L 33.101987 -18.06348 
L 33.289745 -18.087649 
L 33.554741 -18.111817 
L 33.886262 -18.135986 
L 34.272043 -18.160155 
L 34.698976 -18.184323 
L 35.153832 -18.208492 
L 35.62393 -18.232661 
L 36.097702 -18.256829 
L 36.565137 -18.280998 
L 37.018069 -18.305167 
L 37.450308 -18.329335 
L 37.857621 -18.353504 
L 38.237588 -18.377672 
L 38.589357 -18.401841 
L 38.913334 -18.42601 
L 39.210845 -18.450178 
L 39.483802 -18.474347 
L 39.734394 -18.498516 
L 39.96484 -18.522684 
L 40.177191 -18.546853 
L 40.373212 -18.571022 
L 40.55432 -18.59519 
L 40.72158 -18.619359 
L 40.875741 -18.643527 
L 41.017306 -18.667696 
L 41.146609 -18.691865 
L 41.263901 -18.716033 
L 41.36942 -18.740202 
L 41.463457 -18.764371 
L 41.546388 -18.788539 
L 41.618702 -18.812708 
L 41.681 -18.836877 
L 41.73398 -18.861045 
L 41.778414 -18.885214 
L 41.815116 -18.909382 
L 41.844905 -18.933551 
L 41.86857 -18.95772 
L 41.886838 -18.981888 
L 41.900343 -19.006057 
L 41.909602 -19.030226 
L 41.915 -19.054394 
L 41.916776 -19.078563 
L 41.915018 -19.102732 
L 41.909659 -19.1269 
L 41.900485 -19.151069 
L 41.887149 -19.175237 
L 41.869183 -19.199406 
L 41.846029 -19.223575 
L 41.817071 -19.247743 
L 41.781676 -19.271912 
L 41.739248 -19.296081 
L 41.689278 -19.320249 
L 41.631413 -19.344418 
L 41.565515 -19.368587 
L 41.49172 -19.392755 
L 41.410497 -19.416924 
L 41.322684 -19.441092 
L 41.229516 -19.465261 
L 41.132622 -19.48943 
L 41.034 -19.513598 
L 40.935968 -19.537767 
L 40.841083 -19.561936 
L 40.752034 -19.586104 
L 40.671525 -19.610273 
L 40.602136 -19.634442 
L 40.546188 -19.65861 
L 40.505617 -19.682779 
L 40.481857 -19.706947 
L 40.475765 -19.731116 
L 40.487559 -19.755285 
L 40.516813 -19.779453 
L 40.562482 -19.803622 
L 40.622957 -19.827791 
L 40.696168 -19.851959 
L 40.779696 -19.876128 
L 40.870907 -19.900297 
L 40.967089 -19.924465 
L 41.065581 -19.948634 
L 41.163895 -19.972802 
L 41.25981 -19.996971 
L 41.351441 -20.02114 
L 41.437289 -20.045308 
L 42.470752 -20.045308 
L 42.470752 -20.045308 
L 42.5566 -20.02114 
L 42.648232 -19.996971 
L 42.744146 -19.972802 
L 42.84246 -19.948634 
L 42.940952 -19.924465 
L 43.037134 -19.900297 
L 43.128345 -19.876128 
L 43.211873 -19.851959 
L 43.285084 -19.827791 
L 43.34556 -19.803622 
L 43.391228 -19.779453 
L 43.420483 -19.755285 
L 43.432277 -19.731116 
L 43.426184 -19.706947 
L 43.402425 -19.682779 
L 43.361853 -19.65861 
L 43.305905 -19.634442 
L 43.236516 -19.610273 
L 43.156007 -19.586104 
L 43.066959 -19.561936 
L 42.972073 -19.537767 
L 42.874042 -19.513598 
L 42.77542 -19.48943 
L 42.678525 -19.465261 
L 42.585357 -19.441092 
L 42.497545 -19.416924 
L 42.416322 -19.392755 
L 42.342527 -19.368587 
L 42.276628 -19.344418 
L 42.218763 -19.320249 
L 42.168793 -19.296081 
L 42.126365 -19.271912 
L 42.09097 -19.247743 
L 42.062012 -19.223575 
L 42.038858 -19.199406 
L 42.020892 -19.175237 
L 42.007556 -19.151069 
L 41.998383 -19.1269 
L 41.993023 -19.102732 
L 41.991265 -19.078563 
L 41.993041 -19.054394 
L 41.998439 -19.030226 
L 42.007698 -19.006057 
L 42.021203 -18.981888 
L 42.039471 -18.95772 
L 42.063136 -18.933551 
L 42.092926 -18.909382 
L 42.129628 -18.885214 
L 42.174062 -18.861045 
L 42.227041 -18.836877 
L 42.289339 -18.812708 
L 42.361653 -18.788539 
L 42.444585 -18.764371 
L 42.538621 -18.740202 
L 42.64414 -18.716033 
L 42.761432 -18.691865 
L 42.890735 -18.667696 
L 43.0323 -18.643527 
L 43.186462 -18.619359 
L 43.353721 -18.59519 
L 43.534829 -18.571022 
L 43.730851 -18.546853 
L 43.943201 -18.522684 
L 44.173647 -18.498516 
L 44.42424 -18.474347 
L 44.697196 -18.450178 
L 44.994708 -18.42601 
L 45.318684 -18.401841 
L 45.670453 -18.377672 
L 46.05042 -18.353504 
L 46.457733 -18.329335 
L 46.889972 -18.305167 
L 47.342905 -18.280998 
L 47.81034 -18.256829 
L 48.284111 -18.232661 
L 48.754209 -18.208492 
L 49.209066 -18.184323 
L 49.635999 -18.160155 
L 50.021779 -18.135986 
L 50.353301 -18.111817 
L 50.618296 -18.087649 
L 50.806054 -18.06348 
L 50.908074 -18.039312 
L 50.918612 -18.015143 
L 50.83507 -17.990974 
L 50.658193 -17.966806 
L 50.392062 -17.942637 
L 50.043885 -17.918468 
L 49.623602 -17.8943 
L 49.143332 -17.870131 
L 48.616719 -17.845962 
L 48.058217 -17.821794 
L 47.482373 -17.797625 
L 46.90316 -17.773457 
L 46.333389 -17.749288 
L 45.784254 -17.725119 
L 45.265008 -17.700951 
L 44.782784 -17.676782 
L 44.342562 -17.652613 
z
" style="stroke: #7c7c7c; stroke-width: 0.15"/>
    </defs>
    <g clip-path="url(#pa6deb7ae78)">
     <use xlink:href="#m70f138b8e2" x="0" y="84.96" style="fill: #f3f3ae; stroke: #7c7c7c; stroke-width: 0.15"/>
    </g>
   </g>
   <g id="line2d_7">
    <path d="M 19.542542 66.995102 
L 19.542542 66.8318 
" clip-path="url(#pa6deb7ae78)" style="fill: none; stroke: #8c8c8c; stroke-width: 0.75; stroke-linecap: round"/>
   </g>
   <g id="line2d_8">
    <path d="M 19.542542 66.9925 
L 19.542542 66.8318 
" clip-path="url(#pa6deb7ae78)" style="fill: none; stroke: #8c8c8c; stroke-width: 4; stroke-linecap: round"/>
   </g>
   <g id="line2d_9">
    <path d="M 19.542542 66.965373 
" clip-path="url(#pa6deb7ae78)" style="fill: none; stroke: #7c7c7c; stroke-width: 1.2; stroke-linecap: round"/>
    <defs>
     <path id="m4e1d2c0523" d="M 0 0.833333 
C 0.221003 0.833333 0.432983 0.745528 0.589256 0.589256 
C 0.745528 0.432983 0.833333 0.221003 0.833333 0 
C 0.833333 -0.221003 0.745528 -0.432983 0.589256 -0.589256 
C 0.432983 -0.745528 0.221003 -0.833333 0 -0.833333 
C -0.221003 -0.833333 -0.432983 -0.745528 -0.589256 -0.589256 
C -0.745528 -0.432983 -0.833333 -0.221003 -0.833333 0 
C -0.833333 0.221003 -0.745528 0.432983 -0.589256 0.589256 
C -0.432983 0.745528 -0.221003 0.833333 0 0.833333 
z
" style="stroke: #ffffff; stroke-width: 0.8"/>
    </defs>
    <g clip-path="url(#pa6deb7ae78)">
     <use xlink:href="#m4e1d2c0523" x="19.542542" y="66.965373" style="fill: #ffffff; stroke: #ffffff; stroke-width: 0.8"/>
    </g>
   </g>
   <g id="line2d_10">
    <path d="M 41.954021 66.989332 
L 41.954021 66.530741 
" clip-path="url(#pa6deb7ae78)" style="fill: none; stroke: #8c8c8c; stroke-width: 0.75; stroke-linecap: round"/>
   </g>
   <g id="line2d_11">
    <path d="M 41.954021 66.978113 
L 41.954021 66.789206 
" clip-path="url(#pa6deb7ae78)" style="fill: none; stroke: #8c8c8c; stroke-width: 4; stroke-linecap: round"/>
   </g>
   <g id="line2d_12">
    <path d="M 41.954021 66.932967 
" clip-path="url(#pa6deb7ae78)" style="fill: none; stroke: #7c7c7c; stroke-width: 1.2; stroke-linecap: round"/>
    <g clip-path="url(#pa6deb7ae78)">
     <use xlink:href="#m4e1d2c0523" x="41.954021" y="66.932967" style="fill: #ffffff; stroke: #ffffff; stroke-width: 0.8"/>
    </g>
   </g>
   <g id="patch_3">
    <path d="M 8.336802 74.419526 
L 8.336802 4.076256 
" style="fill: none; stroke: #777777; stroke-width: 0.5; stroke-linejoin: miter; stroke-linecap: square"/>
   </g>
   <g id="patch_4">
    <path d="M 8.336802 76.919526 
L 53.15976 76.919526 
" style="fill: none; stroke: #777777; stroke-width: 0.5; stroke-linejoin: miter; stroke-linecap: square"/>
   </g>
  </g>
 </g>
 <defs>
  <clipPath id="pa6deb7ae78">
   <rect x="8.336802" y="4.076256" width="44.822958" height="70.34327"/>
  </clipPath>
 </defs>
</svg>
