<?xml version="1.0" encoding="utf-8" standalone="no"?>
<!DOCTYPE svg PUBLIC "-//W3C//DTD SVG 1.1//EN"
  "http://www.w3.org/Graphics/SVG/1.1/DTD/svg11.dtd">
<svg xmlns:xlink="http://www.w3.org/1999/xlink" width="56.16pt" height="84.96pt" viewBox="0 0 56.16 84.96" xmlns="http://www.w3.org/2000/svg" version="1.1">
 <metadata>
  <rdf:RDF xmlns:dc="http://purl.org/dc/elements/1.1/" xmlns:cc="http://creativecommons.org/ns#" xmlns:rdf="http://www.w3.org/1999/02/22-rdf-syntax-ns#">
   <cc:Work>
    <dc:type rdf:resource="http://purl.org/dc/dcmitype/StillImage"/>
    <dc:date>2024-05-27T15:37:16.168090</dc:date>
    <dc:format>image/svg+xml</dc:format>
    <dc:creator>
     <cc:Agent>
      <dc:title>Matplotlib v3.8.3, https://matplotlib.org/</dc:title>
     </cc:Agent>
    </dc:creator>
   </cc:Work>
  </rdf:RDF>
 </metadata>
 <defs>
  <style type="text/css">*{stroke-linejoin: round; stroke-linecap: butt}</style>
 </defs>
 <g id="figure_1">
  <g id="patch_1">
   <path d="M 0 84.96 
L 56.16 84.96 
L 56.16 0 
L 0 0 
z
" style="fill: #ffffff"/>
  </g>
  <g id="axes_1">
   <g id="patch_2">
    <path d="M 13.341646 74.419526 
L 53.15976 74.419526 
L 53.15976 4.076256 
L 13.341646 4.076256 
z
" style="fill: #ffffff"/>
   </g>
   <g id="matplotlib.axis_1">
    <g id="xtick_1">
     <g id="text_1">
      <!-- T -->
      <g style="fill: #333333" transform="translate(22.227307 81.230229) scale(0.035 -0.035)">
       <defs>
        <path id="Helvetica-54" d="M 3828 4591 
L 3828 4044 
L 2281 4044 
L 2281 0 
L 1650 0 
L 1650 4044 
L 103 4044 
L 103 4591 
L 3828 4591 
z
" transform="scale(0.015625)"/>
       </defs>
       <use xlink:href="#Helvetica-54"/>
      </g>
     </g>
    </g>
    <g id="xtick_2">
     <g id="text_2">
      <!-- IL7R Non T -->
      <g style="fill: #333333" transform="translate(34.257536 81.230229) scale(0.035 -0.035)">
       <defs>
        <path id="Helvetica-49" d="M 628 4591 
L 1256 4591 
L 1256 0 
L 628 0 
L 628 4591 
z
" transform="scale(0.015625)"/>
        <path id="Helvetica-4c" d="M 488 4591 
L 1109 4591 
L 1109 547 
L 3434 547 
L 3434 0 
L 488 0 
L 488 4591 
z
" transform="scale(0.015625)"/>
        <path id="Helvetica-37" d="M 3347 4400 
L 3347 3909 
Q 3131 3700 2773 3181 
Q 2416 2663 2141 2063 
Q 1869 1478 1728 997 
Q 1638 688 1494 0 
L 872 0 
Q 1084 1281 1809 2550 
Q 2238 3294 2709 3834 
L 234 3834 
L 234 4400 
L 3347 4400 
z
" transform="scale(0.015625)"/>
        <path id="Helvetica-52" d="M 2622 2488 
Q 3059 2488 3314 2663 
Q 3569 2838 3569 3294 
Q 3569 3784 3213 3963 
Q 3022 4056 2703 4056 
L 1184 4056 
L 1184 2488 
L 2622 2488 
z
M 563 4591 
L 2688 4591 
Q 3213 4591 3553 4438 
Q 4200 4144 4200 3353 
Q 4200 2941 4029 2678 
Q 3859 2416 3553 2256 
Q 3822 2147 3958 1969 
Q 4094 1791 4109 1391 
L 4131 775 
Q 4141 513 4175 384 
Q 4231 166 4375 103 
L 4375 0 
L 3613 0 
Q 3581 59 3562 153 
Q 3544 247 3531 516 
L 3494 1281 
Q 3472 1731 3159 1884 
Q 2981 1969 2600 1969 
L 1184 1969 
L 1184 0 
L 563 0 
L 563 4591 
z
" transform="scale(0.015625)"/>
        <path id="Helvetica-20" transform="scale(0.015625)"/>
        <path id="Helvetica-4e" d="M 488 4591 
L 1222 4591 
L 3541 872 
L 3541 4591 
L 4131 4591 
L 4131 0 
L 3434 0 
L 1081 3716 
L 1081 0 
L 488 0 
L 488 4591 
z
M 2269 4591 
L 2269 4591 
z
" transform="scale(0.015625)"/>
        <path id="Helvetica-6f" d="M 1741 363 
Q 2300 363 2508 786 
Q 2716 1209 2716 1728 
Q 2716 2197 2566 2491 
Q 2328 2953 1747 2953 
Q 1231 2953 997 2559 
Q 763 2166 763 1609 
Q 763 1075 997 719 
Q 1231 363 1741 363 
z
M 1763 3444 
Q 2409 3444 2856 3012 
Q 3303 2581 3303 1744 
Q 3303 934 2909 406 
Q 2516 -122 1688 -122 
Q 997 -122 590 345 
Q 184 813 184 1600 
Q 184 2444 612 2944 
Q 1041 3444 1763 3444 
z
M 1744 3428 
L 1744 3428 
z
" transform="scale(0.015625)"/>
        <path id="Helvetica-6e" d="M 413 3347 
L 947 3347 
L 947 2872 
Q 1184 3166 1450 3294 
Q 1716 3422 2041 3422 
Q 2753 3422 3003 2925 
Q 3141 2653 3141 2147 
L 3141 0 
L 2569 0 
L 2569 2109 
Q 2569 2416 2478 2603 
Q 2328 2916 1934 2916 
Q 1734 2916 1606 2875 
Q 1375 2806 1200 2600 
Q 1059 2434 1017 2257 
Q 975 2081 975 1753 
L 975 0 
L 413 0 
L 413 3347 
z
M 1734 3428 
L 1734 3428 
z
" transform="scale(0.015625)"/>
       </defs>
       <use xlink:href="#Helvetica-49"/>
       <use xlink:href="#Helvetica-4c" x="27.783203"/>
       <use xlink:href="#Helvetica-37" x="83.398438"/>
       <use xlink:href="#Helvetica-52" x="139.013672"/>
       <use xlink:href="#Helvetica-20" x="211.230469"/>
       <use xlink:href="#Helvetica-4e" x="239.013672"/>
       <use xlink:href="#Helvetica-6f" x="311.230469"/>
       <use xlink:href="#Helvetica-6e" x="366.845703"/>
       <use xlink:href="#Helvetica-20" x="422.460938"/>
       <use xlink:href="#Helvetica-54" x="450.244141"/>
      </g>
     </g>
    </g>
   </g>
   <g id="matplotlib.axis_2">
    <g id="ytick_1">
     <g id="line2d_1">
      <defs>
       <path id="m494ef1dee3" d="M 0 0 
L -1 0 
" style="stroke: #777777; stroke-width: 0.5"/>
      </defs>
      <g>
       <use xlink:href="#m494ef1dee3" x="13.341646" y="68.030497" style="fill: #777777; stroke: #777777; stroke-width: 0.5"/>
      </g>
     </g>
     <g id="text_3">
      <!-- 0 -->
      <g style="fill: #333333" transform="translate(9.673365 69.106513) scale(0.03 -0.03)">
       <defs>
        <path id="Helvetica-30" d="M 1731 4475 
Q 2600 4475 2988 3759 
Q 3288 3206 3288 2244 
Q 3288 1331 3016 734 
Q 2622 -122 1728 -122 
Q 922 -122 528 578 
Q 200 1163 200 2147 
Q 200 2909 397 3456 
Q 766 4475 1731 4475 
z
M 1725 391 
Q 2163 391 2422 778 
Q 2681 1166 2681 2222 
Q 2681 2984 2493 3476 
Q 2306 3969 1766 3969 
Q 1269 3969 1039 3501 
Q 809 3034 809 2125 
Q 809 1441 956 1025 
Q 1181 391 1725 391 
z
" transform="scale(0.015625)"/>
       </defs>
       <use xlink:href="#Helvetica-30"/>
      </g>
     </g>
    </g>
    <g id="ytick_2">
     <g id="line2d_2">
      <g>
       <use xlink:href="#m494ef1dee3" x="13.341646" y="55.239649" style="fill: #777777; stroke: #777777; stroke-width: 0.5"/>
      </g>
     </g>
     <g id="text_4">
      <!-- 2000 -->
      <g style="fill: #333333" transform="translate(4.668521 56.315664) scale(0.03 -0.03)">
       <defs>
        <path id="Helvetica-32" d="M 200 0 
Q 231 578 439 1006 
Q 647 1434 1250 1784 
L 1850 2131 
Q 2253 2366 2416 2531 
Q 2672 2791 2672 3125 
Q 2672 3516 2437 3745 
Q 2203 3975 1813 3975 
Q 1234 3975 1013 3538 
Q 894 3303 881 2888 
L 309 2888 
Q 319 3472 525 3841 
Q 891 4491 1816 4491 
Q 2584 4491 2939 4075 
Q 3294 3659 3294 3150 
Q 3294 2613 2916 2231 
Q 2697 2009 2131 1694 
L 1703 1456 
Q 1397 1288 1222 1134 
Q 909 863 828 531 
L 3272 531 
L 3272 0 
L 200 0 
z
" transform="scale(0.015625)"/>
       </defs>
       <use xlink:href="#Helvetica-32"/>
       <use xlink:href="#Helvetica-30" x="55.615234"/>
       <use xlink:href="#Helvetica-30" x="111.230469"/>
       <use xlink:href="#Helvetica-30" x="166.845703"/>
      </g>
     </g>
    </g>
    <g id="ytick_3">
     <g id="line2d_3">
      <g>
       <use xlink:href="#m494ef1dee3" x="13.341646" y="42.4488" style="fill: #777777; stroke: #777777; stroke-width: 0.5"/>
      </g>
     </g>
     <g id="text_5">
      <!-- 4000 -->
      <g style="fill: #333333" transform="translate(4.668521 43.524816) scale(0.03 -0.03)">
       <defs>
        <path id="Helvetica-34" d="M 2116 1584 
L 2116 3613 
L 681 1584 
L 2116 1584 
z
M 2125 0 
L 2125 1094 
L 163 1094 
L 163 1644 
L 2213 4488 
L 2688 4488 
L 2688 1584 
L 3347 1584 
L 3347 1094 
L 2688 1094 
L 2688 0 
L 2125 0 
z
" transform="scale(0.015625)"/>
       </defs>
       <use xlink:href="#Helvetica-34"/>
       <use xlink:href="#Helvetica-30" x="55.615234"/>
       <use xlink:href="#Helvetica-30" x="111.230469"/>
       <use xlink:href="#Helvetica-30" x="166.845703"/>
      </g>
     </g>
    </g>
    <g id="ytick_4">
     <g id="line2d_4">
      <g>
       <use xlink:href="#m494ef1dee3" x="13.341646" y="29.657952" style="fill: #777777; stroke: #777777; stroke-width: 0.5"/>
      </g>
     </g>
     <g id="text_6">
      <!-- 6000 -->
      <g style="fill: #333333" transform="translate(4.668521 30.733968) scale(0.03 -0.03)">
       <defs>
        <path id="Helvetica-36" d="M 1872 4494 
Q 2622 4494 2917 4105 
Q 3213 3716 3213 3303 
L 2656 3303 
Q 2606 3569 2497 3719 
Q 2294 4000 1881 4000 
Q 1409 4000 1131 3564 
Q 853 3128 822 2316 
Q 1016 2600 1309 2741 
Q 1578 2866 1909 2866 
Q 2472 2866 2890 2506 
Q 3309 2147 3309 1434 
Q 3309 825 2912 354 
Q 2516 -116 1781 -116 
Q 1153 -116 697 361 
Q 241 838 241 1966 
Q 241 2800 444 3381 
Q 834 4494 1872 4494 
z
M 1831 384 
Q 2275 384 2495 682 
Q 2716 981 2716 1388 
Q 2716 1731 2519 2042 
Q 2322 2353 1803 2353 
Q 1441 2353 1167 2112 
Q 894 1872 894 1388 
Q 894 963 1142 673 
Q 1391 384 1831 384 
z
" transform="scale(0.015625)"/>
       </defs>
       <use xlink:href="#Helvetica-36"/>
       <use xlink:href="#Helvetica-30" x="55.615234"/>
       <use xlink:href="#Helvetica-30" x="111.230469"/>
       <use xlink:href="#Helvetica-30" x="166.845703"/>
      </g>
     </g>
    </g>
    <g id="ytick_5">
     <g id="line2d_5">
      <g>
       <use xlink:href="#m494ef1dee3" x="13.341646" y="16.867104" style="fill: #777777; stroke: #777777; stroke-width: 0.5"/>
      </g>
     </g>
     <g id="text_7">
      <!-- 8000 -->
      <g style="fill: #333333" transform="translate(4.668521 17.94312) scale(0.03 -0.03)">
       <defs>
        <path id="Helvetica-38" d="M 1741 2600 
Q 2113 2600 2322 2808 
Q 2531 3016 2531 3303 
Q 2531 3553 2331 3762 
Q 2131 3972 1722 3972 
Q 1316 3972 1134 3762 
Q 953 3553 953 3272 
Q 953 2956 1187 2778 
Q 1422 2600 1741 2600 
z
M 1775 384 
Q 2166 384 2423 595 
Q 2681 806 2681 1225 
Q 2681 1659 2415 1884 
Q 2150 2109 1734 2109 
Q 1331 2109 1076 1879 
Q 822 1650 822 1244 
Q 822 894 1055 639 
Q 1288 384 1775 384 
z
M 975 2384 
Q 741 2484 609 2619 
Q 363 2869 363 3269 
Q 363 3769 725 4128 
Q 1088 4488 1753 4488 
Q 2397 4488 2762 4148 
Q 3128 3809 3128 3356 
Q 3128 2938 2916 2678 
Q 2797 2531 2547 2391 
Q 2825 2263 2984 2097 
Q 3281 1784 3281 1284 
Q 3281 694 2884 283 
Q 2488 -128 1763 -128 
Q 1109 -128 657 226 
Q 206 581 206 1256 
Q 206 1653 400 1942 
Q 594 2231 975 2384 
z
" transform="scale(0.015625)"/>
       </defs>
       <use xlink:href="#Helvetica-38"/>
       <use xlink:href="#Helvetica-30" x="55.615234"/>
       <use xlink:href="#Helvetica-30" x="111.230469"/>
       <use xlink:href="#Helvetica-30" x="166.845703"/>
      </g>
     </g>
    </g>
    <g id="ytick_6">
     <g id="line2d_6">
      <g>
       <use xlink:href="#m494ef1dee3" x="13.341646" y="4.076256" style="fill: #777777; stroke: #777777; stroke-width: 0.5"/>
      </g>
     </g>
     <g id="text_8">
      <!-- 10000 -->
      <g style="fill: #333333" transform="translate(3.00024 5.152271) scale(0.03 -0.03)">
       <defs>
        <path id="Helvetica-31" d="M 613 3169 
L 613 3600 
Q 1222 3659 1462 3798 
Q 1703 3938 1822 4456 
L 2266 4456 
L 2266 0 
L 1666 0 
L 1666 3169 
L 613 3169 
z
" transform="scale(0.015625)"/>
       </defs>
       <use xlink:href="#Helvetica-31"/>
       <use xlink:href="#Helvetica-30" x="55.615234"/>
       <use xlink:href="#Helvetica-30" x="111.230469"/>
       <use xlink:href="#Helvetica-30" x="166.845703"/>
       <use xlink:href="#Helvetica-30" x="222.460938"/>
      </g>
     </g>
    </g>
   </g>
   <g id="PolyCollection_1">
    <defs>
     <path id="m83d1f04703" d="M 24.243679 -15.822838 
L 22.34867 -15.822838 
L 22.116851 -15.96834 
L 21.846416 -16.113841 
L 21.535795 -16.259343 
L 21.184614 -16.404845 
L 20.793944 -16.550347 
L 20.366507 -16.695849 
L 19.906809 -16.841351 
L 19.421184 -16.986853 
L 18.917743 -17.132355 
L 18.406201 -17.277857 
L 17.897596 -17.423359 
L 17.403904 -17.568861 
L 16.937562 -17.714363 
L 16.510938 -17.859864 
L 16.135767 -18.005366 
L 15.822596 -18.150868 
L 15.580271 -18.29637 
L 15.415505 -18.441872 
L 15.332552 -18.587374 
L 15.333009 -18.732876 
L 15.415762 -18.878378 
L 15.577069 -19.02388 
L 15.810784 -19.169382 
L 16.108692 -19.314884 
L 16.460938 -19.460386 
L 16.856509 -19.605887 
L 17.283758 -19.751389 
L 17.730907 -19.896891 
L 18.186531 -20.042393 
L 18.639977 -20.187895 
L 19.081712 -20.333397 
L 19.50359 -20.478899 
L 19.899022 -20.624401 
L 20.263071 -20.769903 
L 20.592458 -20.915405 
L 20.885505 -21.060907 
L 21.142016 -21.206408 
L 21.363105 -21.35191 
L 21.551 -21.497412 
L 21.708813 -21.642914 
L 21.840293 -21.788416 
L 21.949585 -21.933918 
L 22.040987 -22.07942 
L 22.118718 -22.224922 
L 22.186727 -22.370424 
L 22.248514 -22.515926 
L 22.307007 -22.661428 
L 22.364478 -22.80693 
L 22.422507 -22.952431 
L 22.481986 -23.097933 
L 22.543172 -23.243435 
L 22.605766 -23.388937 
L 22.669018 -23.534439 
L 22.731838 -23.679941 
L 22.792918 -23.825443 
L 22.850832 -23.970945 
L 22.904127 -24.116447 
L 22.951389 -24.261949 
L 22.991286 -24.407451 
L 23.022588 -24.552953 
L 23.044174 -24.698454 
L 23.055019 -24.843956 
L 23.054188 -24.989458 
L 23.040827 -25.13496 
L 23.014169 -25.280462 
L 22.973553 -25.425964 
L 22.918461 -25.571466 
L 22.848581 -25.716968 
L 22.763873 -25.86247 
L 22.664657 -26.007972 
L 22.551696 -26.153474 
L 22.42627 -26.298975 
L 22.290235 -26.444477 
L 22.146052 -26.589979 
L 21.996772 -26.735481 
L 21.845991 -26.880983 
L 21.697742 -27.026485 
L 21.556354 -27.171987 
L 21.42627 -27.317489 
L 21.31183 -27.462991 
L 21.21705 -27.608493 
L 21.145399 -27.753995 
L 21.099594 -27.899497 
L 21.081432 -28.044998 
L 21.091681 -28.1905 
L 21.130027 -28.336002 
L 21.195087 -28.481504 
L 21.28449 -28.627006 
L 21.395025 -28.772508 
L 21.522825 -28.91801 
L 21.663598 -29.063512 
L 21.812859 -29.209014 
L 21.966169 -29.354516 
L 22.119349 -29.500018 
L 22.268658 -29.64552 
L 22.410933 -29.791021 
L 22.543666 -29.936523 
L 22.665049 -30.082025 
L 22.773952 -30.227527 
L 23.818398 -30.227527 
L 23.818398 -30.227527 
L 23.927301 -30.082025 
L 24.048683 -29.936523 
L 24.181417 -29.791021 
L 24.323691 -29.64552 
L 24.473 -29.500018 
L 24.62618 -29.354516 
L 24.77949 -29.209014 
L 24.928751 -29.063512 
L 25.069524 -28.91801 
L 25.197325 -28.772508 
L 25.307859 -28.627006 
L 25.397263 -28.481504 
L 25.462322 -28.336002 
L 25.500668 -28.1905 
L 25.510918 -28.044998 
L 25.492756 -27.899497 
L 25.44695 -27.753995 
L 25.375299 -27.608493 
L 25.28052 -27.462991 
L 25.16608 -27.317489 
L 25.035995 -27.171987 
L 24.894607 -27.026485 
L 24.746358 -26.880983 
L 24.595577 -26.735481 
L 24.446298 -26.589979 
L 24.302114 -26.444477 
L 24.166079 -26.298975 
L 24.040654 -26.153474 
L 23.927692 -26.007972 
L 23.828477 -25.86247 
L 23.743769 -25.716968 
L 23.673888 -25.571466 
L 23.618796 -25.425964 
L 23.57818 -25.280462 
L 23.551522 -25.13496 
L 23.538162 -24.989458 
L 23.537331 -24.843956 
L 23.548175 -24.698454 
L 23.569761 -24.552953 
L 23.601064 -24.407451 
L 23.64096 -24.261949 
L 23.688222 -24.116447 
L 23.741517 -23.970945 
L 23.799431 -23.825443 
L 23.860511 -23.679941 
L 23.923332 -23.534439 
L 23.986583 -23.388937 
L 24.049177 -23.243435 
L 24.110363 -23.097933 
L 24.169842 -22.952431 
L 24.227871 -22.80693 
L 24.285343 -22.661428 
L 24.343836 -22.515926 
L 24.405622 -22.370424 
L 24.473631 -22.224922 
L 24.551363 -22.07942 
L 24.642764 -21.933918 
L 24.752056 -21.788416 
L 24.883537 -21.642914 
L 25.041349 -21.497412 
L 25.229245 -21.35191 
L 25.450334 -21.206408 
L 25.706844 -21.060907 
L 25.999891 -20.915405 
L 26.329279 -20.769903 
L 26.693327 -20.624401 
L 27.088759 -20.478899 
L 27.510637 -20.333397 
L 27.952373 -20.187895 
L 28.405819 -20.042393 
L 28.861443 -19.896891 
L 29.308592 -19.751389 
L 29.73584 -19.605887 
L 30.131412 -19.460386 
L 30.483657 -19.314884 
L 30.781566 -19.169382 
L 31.015281 -19.02388 
L 31.176588 -18.878378 
L 31.25934 -18.732876 
L 31.259797 -18.587374 
L 31.176845 -18.441872 
L 31.012079 -18.29637 
L 30.769754 -18.150868 
L 30.456582 -18.005366 
L 30.081412 -17.859864 
L 29.654788 -17.714363 
L 29.188445 -17.568861 
L 28.694753 -17.423359 
L 28.186149 -17.277857 
L 27.674607 -17.132355 
L 27.171166 -16.986853 
L 26.685541 -16.841351 
L 26.225842 -16.695849 
L 25.798405 -16.550347 
L 25.407736 -16.404845 
L 25.056554 -16.259343 
L 24.745933 -16.113841 
L 24.475499 -15.96834 
L 24.243679 -15.822838 
z
" style="stroke: #525252; stroke-width: 0.15"/>
    </defs>
    <g clip-path="url(#p5236436fec)">
     <use xlink:href="#m83d1f04703" x="0" y="84.96" style="fill: #bbba94; stroke: #525252; stroke-width: 0.15"/>
    </g>
   </g>
   <g id="PolyCollection_2">
    <defs>
     <path id="m6723372e66" d="M 44.035676 -16.555059 
L 42.374788 -16.555059 
L 42.101299 -16.711583 
L 41.7685 -16.868108 
L 41.374028 -17.024632 
L 40.918766 -17.181156 
L 40.407445 -17.337681 
L 39.848953 -17.494205 
L 39.25624 -17.650729 
L 38.645779 -17.807254 
L 38.036597 -17.963778 
L 37.448949 -18.120303 
L 36.902795 -18.276827 
L 36.416252 -18.433351 
L 36.004209 -18.589876 
L 35.6773 -18.7464 
L 35.441333 -18.902924 
L 35.297255 -19.059449 
L 35.241609 -19.215973 
L 35.267407 -19.372497 
L 35.365276 -19.529022 
L 35.524704 -19.685546 
L 35.735217 -19.842071 
L 35.98734 -19.998595 
L 36.273251 -20.155119 
L 36.587045 -20.311644 
L 36.924641 -20.468168 
L 37.283365 -20.624692 
L 37.661317 -20.781217 
L 38.056634 -20.937741 
L 38.466786 -21.094265 
L 38.888028 -21.25079 
L 39.315088 -21.407314 
L 39.741144 -21.563839 
L 40.158095 -21.720363 
L 40.557075 -21.876887 
L 40.929139 -22.033412 
L 41.266012 -22.189936 
L 41.560819 -22.34646 
L 41.808694 -22.502985 
L 42.007208 -22.659509 
L 42.156586 -22.816033 
L 42.25969 -22.972558 
L 42.321778 -23.129082 
L 42.350077 -23.285607 
L 42.353191 -23.442131 
L 42.34041 -23.598655 
L 42.32096 -23.75518 
L 42.303289 -23.911704 
L 42.294426 -24.068228 
L 42.299507 -24.224753 
L 42.321504 -24.381277 
L 42.361188 -24.537801 
L 42.417318 -24.694326 
L 42.487039 -24.85085 
L 42.566394 -25.007375 
L 42.650911 -25.163899 
L 42.736148 -25.320423 
L 42.818158 -25.476948 
L 42.893809 -25.633472 
L 42.960946 -25.789996 
L 43.01841 -25.946521 
L 43.065934 -26.103045 
L 43.103958 -26.259569 
L 43.133416 -26.416094 
L 43.155514 -26.572618 
L 43.17154 -26.729143 
L 43.182721 -26.885667 
L 43.190112 -27.042191 
L 43.194537 -27.198716 
L 43.19655 -27.35524 
L 43.196425 -27.511764 
L 43.194142 -27.668289 
L 43.189397 -27.824813 
L 43.181601 -27.981337 
L 43.169901 -28.137862 
L 43.153215 -28.294386 
L 43.130307 -28.450911 
L 43.099888 -28.607435 
L 43.060778 -28.763959 
L 43.012095 -28.920484 
L 42.953483 -29.077008 
L 42.885325 -29.233532 
L 42.80893 -29.390057 
L 42.726631 -29.546581 
L 42.641769 -29.703105 
L 42.558534 -29.85963 
L 42.481659 -30.016154 
L 42.415997 -30.172679 
L 42.366014 -30.329203 
L 42.335296 -30.485727 
L 42.32612 -30.642252 
L 42.339179 -30.798776 
L 42.373489 -30.9553 
L 42.426518 -31.111825 
L 42.494492 -31.268349 
L 42.572839 -31.424873 
L 42.656692 -31.581398 
L 42.741387 -31.737922 
L 42.822864 -31.894447 
L 42.897951 -32.050971 
L 43.512512 -32.050971 
L 43.512512 -32.050971 
L 43.5876 -31.894447 
L 43.669076 -31.737922 
L 43.753771 -31.581398 
L 43.837625 -31.424873 
L 43.915971 -31.268349 
L 43.983945 -31.111825 
L 44.036974 -30.9553 
L 44.071284 -30.798776 
L 44.084343 -30.642252 
L 44.075167 -30.485727 
L 44.044449 -30.329203 
L 43.994466 -30.172679 
L 43.928804 -30.016154 
L 43.851929 -29.85963 
L 43.768694 -29.703105 
L 43.683832 -29.546581 
L 43.601533 -29.390057 
L 43.525138 -29.233532 
L 43.45698 -29.077008 
L 43.398368 -28.920484 
L 43.349686 -28.763959 
L 43.310575 -28.607435 
L 43.280156 -28.450911 
L 43.257248 -28.294386 
L 43.240562 -28.137862 
L 43.228862 -27.981337 
L 43.221066 -27.824813 
L 43.216321 -27.668289 
L 43.214038 -27.511764 
L 43.213913 -27.35524 
L 43.215927 -27.198716 
L 43.220351 -27.042191 
L 43.227742 -26.885667 
L 43.238923 -26.729143 
L 43.254949 -26.572618 
L 43.277047 -26.416094 
L 43.306505 -26.259569 
L 43.344529 -26.103045 
L 43.392053 -25.946521 
L 43.449517 -25.789996 
L 43.516654 -25.633472 
L 43.592305 -25.476948 
L 43.674315 -25.320423 
L 43.759552 -25.163899 
L 43.844069 -25.007375 
L 43.923424 -24.85085 
L 43.993145 -24.694326 
L 44.049276 -24.537801 
L 44.088959 -24.381277 
L 44.110956 -24.224753 
L 44.116037 -24.068228 
L 44.107174 -23.911704 
L 44.089503 -23.75518 
L 44.070053 -23.598655 
L 44.057272 -23.442131 
L 44.060387 -23.285607 
L 44.088685 -23.129082 
L 44.150773 -22.972558 
L 44.253877 -22.816033 
L 44.403255 -22.659509 
L 44.601769 -22.502985 
L 44.849644 -22.34646 
L 45.144451 -22.189936 
L 45.481324 -22.033412 
L 45.853388 -21.876887 
L 46.252368 -21.720363 
L 46.669319 -21.563839 
L 47.095375 -21.407314 
L 47.522435 -21.25079 
L 47.943678 -21.094265 
L 48.35383 -20.937741 
L 48.749146 -20.781217 
L 49.127098 -20.624692 
L 49.485822 -20.468168 
L 49.823418 -20.311644 
L 50.137212 -20.155119 
L 50.423123 -19.998595 
L 50.675247 -19.842071 
L 50.885759 -19.685546 
L 51.045187 -19.529022 
L 51.143056 -19.372497 
L 51.168854 -19.215973 
L 51.113208 -19.059449 
L 50.96913 -18.902924 
L 50.733163 -18.7464 
L 50.406254 -18.589876 
L 49.994211 -18.433351 
L 49.507668 -18.276827 
L 48.961515 -18.120303 
L 48.373866 -17.963778 
L 47.764684 -17.807254 
L 47.154223 -17.650729 
L 46.56151 -17.494205 
L 46.003018 -17.337681 
L 45.491697 -17.181156 
L 45.036435 -17.024632 
L 44.641964 -16.868108 
L 44.309164 -16.711583 
L 44.035676 -16.555059 
z
" style="stroke: #525252; stroke-width: 0.15"/>
    </defs>
    <g clip-path="url(#p5236436fec)">
     <use xlink:href="#m6723372e66" x="0" y="84.96" style="fill: #977c7f; stroke: #525252; stroke-width: 0.15"/>
    </g>
   </g>
   <g id="line2d_7">
    <path d="M 23.296175 67.383646 
L 23.296175 62.337172 
" clip-path="url(#p5236436fec)" style="fill: none; stroke: #8c8c8c; stroke-width: 0.75; stroke-linecap: round"/>
   </g>
   <g id="line2d_8">
    <path d="M 23.296175 66.677677 
L 23.296175 63.984816 
" clip-path="url(#p5236436fec)" style="fill: none; stroke: #8c8c8c; stroke-width: 4; stroke-linecap: round"/>
   </g>
   <g id="line2d_9">
    <path d="M 23.296175 65.932225 
" clip-path="url(#p5236436fec)" style="fill: none; stroke: #525252; stroke-width: 1.2; stroke-linecap: round"/>
    <defs>
     <path id="m7193f151bf" d="M 0 0.833333 
C 0.221003 0.833333 0.432983 0.745528 0.589256 0.589256 
C 0.745528 0.432983 0.833333 0.221003 0.833333 0 
C 0.833333 -0.221003 0.745528 -0.432983 0.589256 -0.589256 
C 0.432983 -0.745528 0.221003 -0.833333 0 -0.833333 
C -0.221003 -0.833333 -0.432983 -0.745528 -0.589256 -0.589256 
C -0.745528 -0.432983 -0.833333 -0.221003 -0.833333 0 
C -0.833333 0.221003 -0.745528 0.432983 -0.589256 0.589256 
C -0.432983 0.745528 -0.221003 0.833333 0 0.833333 
z
" style="stroke: #ffffff; stroke-width: 0.8"/>
    </defs>
    <g clip-path="url(#p5236436fec)">
     <use xlink:href="#m7193f151bf" x="23.296175" y="65.932225" style="fill: #ffffff; stroke: #ffffff; stroke-width: 0.8"/>
    </g>
   </g>
   <g id="line2d_10">
    <path d="M 43.205232 66.982469 
L 43.205232 63.479418 
" clip-path="url(#p5236436fec)" style="fill: none; stroke: #8c8c8c; stroke-width: 0.75; stroke-linecap: round"/>
   </g>
   <g id="line2d_11">
    <path d="M 43.205232 66.216931 
L 43.205232 64.197749 
" clip-path="url(#p5236436fec)" style="fill: none; stroke: #8c8c8c; stroke-width: 4; stroke-linecap: round"/>
   </g>
   <g id="line2d_12">
    <path d="M 43.205232 65.291674 
" clip-path="url(#p5236436fec)" style="fill: none; stroke: #525252; stroke-width: 1.2; stroke-linecap: round"/>
    <g clip-path="url(#p5236436fec)">
     <use xlink:href="#m7193f151bf" x="43.205232" y="65.291674" style="fill: #ffffff; stroke: #ffffff; stroke-width: 0.8"/>
    </g>
   </g>
   <g id="patch_3">
    <path d="M 13.341646 74.419526 
L 13.341646 4.076256 
" style="fill: none; stroke: #777777; stroke-width: 0.5; stroke-linejoin: miter; stroke-linecap: square"/>
   </g>
   <g id="patch_4">
    <path d="M 13.341646 76.919526 
L 53.15976 76.919526 
" style="fill: none; stroke: #777777; stroke-width: 0.5; stroke-linejoin: miter; stroke-linecap: square"/>
   </g>
  </g>
 </g>
 <defs>
  <clipPath id="p5236436fec">
   <rect x="13.341646" y="4.076256" width="39.818114" height="70.34327"/>
  </clipPath>
 </defs>
</svg>
