<?xml version="1.0" encoding="utf-8" standalone="no"?>
<!DOCTYPE svg PUBLIC "-//W3C//DTD SVG 1.1//EN"
  "http://www.w3.org/Graphics/SVG/1.1/DTD/svg11.dtd">
<svg xmlns:xlink="http://www.w3.org/1999/xlink" width="254.88pt" height="84.96pt" viewBox="0 0 254.88 84.96" xmlns="http://www.w3.org/2000/svg" version="1.1">
 <metadata>
  <rdf:RDF xmlns:dc="http://purl.org/dc/elements/1.1/" xmlns:cc="http://creativecommons.org/ns#" xmlns:rdf="http://www.w3.org/1999/02/22-rdf-syntax-ns#">
   <cc:Work>
    <dc:type rdf:resource="http://purl.org/dc/dcmitype/StillImage"/>
    <dc:date>2024-05-27T15:36:58.111893</dc:date>
    <dc:format>image/svg+xml</dc:format>
    <dc:creator>
     <cc:Agent>
      <dc:title>Matplotlib v3.8.3, https://matplotlib.org/</dc:title>
     </cc:Agent>
    </dc:creator>
   </cc:Work>
  </rdf:RDF>
 </metadata>
 <defs>
  <style type="text/css">*{stroke-linejoin: round; stroke-linecap: butt}</style>
 </defs>
 <g id="figure_1">
  <g id="patch_1">
   <path d="M 0 84.96 
L 254.88 84.96 
L 254.88 0 
L 0 0 
z
" style="fill: #ffffff"/>
  </g>
  <g id="axes_1">
   <g id="patch_2">
    <path d="M 10.005084 54.222338 
L 251.87976 54.222338 
L 251.87976 4.076256 
L 10.005084 4.076256 
z
" style="fill: #ffffff"/>
   </g>
   <g id="matplotlib.axis_1">
    <g id="xtick_1">
     <g id="text_1">
      <!-- CD20+ Cells -->
      <g style="fill: #333333" transform="translate(24.333152 78.266166) rotate(-90) scale(0.035 -0.035)">
       <defs>
        <path id="Helvetica-43" d="M 2422 4716 
Q 3294 4716 3775 4256 
Q 4256 3797 4309 3213 
L 3703 3213 
Q 3600 3656 3292 3915 
Q 2984 4175 2428 4175 
Q 1750 4175 1333 3698 
Q 916 3222 916 2238 
Q 916 1431 1292 929 
Q 1669 428 2416 428 
Q 3103 428 3463 956 
Q 3653 1234 3747 1688 
L 4353 1688 
Q 4272 963 3816 472 
Q 3269 -119 2341 -119 
Q 1541 -119 997 366 
Q 281 1006 281 2344 
Q 281 3359 819 4009 
Q 1400 4716 2422 4716 
z
M 2297 4716 
L 2297 4716 
z
" transform="scale(0.015625)"/>
        <path id="Helvetica-44" d="M 2250 531 
Q 2566 531 2769 597 
Q 3131 719 3363 1066 
Q 3547 1344 3628 1778 
Q 3675 2038 3675 2259 
Q 3675 3113 3336 3584 
Q 2997 4056 2244 4056 
L 1141 4056 
L 1141 531 
L 2250 531 
z
M 516 4591 
L 2375 4591 
Q 3322 4591 3844 3919 
Q 4309 3313 4309 2366 
Q 4309 1634 4034 1044 
Q 3550 0 2369 0 
L 516 0 
L 516 4591 
z
" transform="scale(0.015625)"/>
        <path id="Helvetica-32" d="M 200 0 
Q 231 578 439 1006 
Q 647 1434 1250 1784 
L 1850 2131 
Q 2253 2366 2416 2531 
Q 2672 2791 2672 3125 
Q 2672 3516 2437 3745 
Q 2203 3975 1813 3975 
Q 1234 3975 1013 3538 
Q 894 3303 881 2888 
L 309 2888 
Q 319 3472 525 3841 
Q 891 4491 1816 4491 
Q 2584 4491 2939 4075 
Q 3294 3659 3294 3150 
Q 3294 2613 2916 2231 
Q 2697 2009 2131 1694 
L 1703 1456 
Q 1397 1288 1222 1134 
Q 909 863 828 531 
L 3272 531 
L 3272 0 
L 200 0 
z
" transform="scale(0.015625)"/>
        <path id="Helvetica-30" d="M 1731 4475 
Q 2600 4475 2988 3759 
Q 3288 3206 3288 2244 
Q 3288 1331 3016 734 
Q 2622 -122 1728 -122 
Q 922 -122 528 578 
Q 200 1163 200 2147 
Q 200 2909 397 3456 
Q 766 4475 1731 4475 
z
M 1725 391 
Q 2163 391 2422 778 
Q 2681 1166 2681 2222 
Q 2681 2984 2493 3476 
Q 2306 3969 1766 3969 
Q 1269 3969 1039 3501 
Q 809 3034 809 2125 
Q 809 1441 956 1025 
Q 1181 391 1725 391 
z
" transform="scale(0.015625)"/>
        <path id="Helvetica-2b" d="M 288 1369 
L 288 1894 
L 1650 1894 
L 1650 3266 
L 2184 3266 
L 2184 1894 
L 3547 1894 
L 3547 1369 
L 2184 1369 
L 2184 0 
L 1650 0 
L 1650 1369 
L 288 1369 
z
" transform="scale(0.015625)"/>
        <path id="Helvetica-20" transform="scale(0.015625)"/>
        <path id="Helvetica-65" d="M 1806 3422 
Q 2163 3422 2497 3255 
Q 2831 3088 3006 2822 
Q 3175 2569 3231 2231 
Q 3281 2000 3281 1494 
L 828 1494 
Q 844 984 1069 676 
Q 1294 369 1766 369 
Q 2206 369 2469 659 
Q 2619 828 2681 1050 
L 3234 1050 
Q 3213 866 3089 639 
Q 2966 413 2813 269 
Q 2556 19 2178 -69 
Q 1975 -119 1719 -119 
Q 1094 -119 659 336 
Q 225 791 225 1609 
Q 225 2416 662 2919 
Q 1100 3422 1806 3422 
z
M 2703 1941 
Q 2669 2306 2544 2525 
Q 2313 2931 1772 2931 
Q 1384 2931 1121 2651 
Q 859 2372 844 1941 
L 2703 1941 
z
M 1753 3428 
L 1753 3428 
z
" transform="scale(0.015625)"/>
        <path id="Helvetica-6c" d="M 428 4591 
L 991 4591 
L 991 0 
L 428 0 
L 428 4591 
z
" transform="scale(0.015625)"/>
        <path id="Helvetica-73" d="M 747 1050 
Q 772 769 888 619 
Q 1100 347 1625 347 
Q 1938 347 2175 483 
Q 2413 619 2413 903 
Q 2413 1119 2222 1231 
Q 2100 1300 1741 1391 
L 1294 1503 
Q 866 1609 663 1741 
Q 300 1969 300 2372 
Q 300 2847 642 3140 
Q 984 3434 1563 3434 
Q 2319 3434 2653 2991 
Q 2863 2709 2856 2384 
L 2325 2384 
Q 2309 2575 2191 2731 
Q 1997 2953 1519 2953 
Q 1200 2953 1036 2831 
Q 872 2709 872 2509 
Q 872 2291 1088 2159 
Q 1213 2081 1456 2022 
L 1828 1931 
Q 2434 1784 2641 1647 
Q 2969 1431 2969 969 
Q 2969 522 2630 197 
Q 2291 -128 1597 -128 
Q 850 -128 539 211 
Q 228 550 206 1050 
L 747 1050 
z
M 1578 3428 
L 1578 3428 
z
" transform="scale(0.015625)"/>
       </defs>
       <use xlink:href="#Helvetica-43"/>
       <use xlink:href="#Helvetica-44" x="72.216797"/>
       <use xlink:href="#Helvetica-32" x="144.433594"/>
       <use xlink:href="#Helvetica-30" x="200.048828"/>
       <use xlink:href="#Helvetica-2b" x="255.664062"/>
       <use xlink:href="#Helvetica-20" x="314.0625"/>
       <use xlink:href="#Helvetica-43" x="341.845703"/>
       <use xlink:href="#Helvetica-65" x="414.0625"/>
       <use xlink:href="#Helvetica-6c" x="469.677734"/>
       <use xlink:href="#Helvetica-6c" x="491.894531"/>
       <use xlink:href="#Helvetica-73" x="514.111328"/>
      </g>
     </g>
    </g>
    <g id="xtick_2">
     <g id="text_2">
      <!-- TCRαδ+ Cells -->
      <g style="fill: #333333" transform="translate(51.208116 80.786713) rotate(-90) scale(0.035 -0.035)">
       <defs>
        <path id="Helvetica-54" d="M 3828 4591 
L 3828 4044 
L 2281 4044 
L 2281 0 
L 1650 0 
L 1650 4044 
L 103 4044 
L 103 4591 
L 3828 4591 
z
" transform="scale(0.015625)"/>
        <path id="Helvetica-52" d="M 2622 2488 
Q 3059 2488 3314 2663 
Q 3569 2838 3569 3294 
Q 3569 3784 3213 3963 
Q 3022 4056 2703 4056 
L 1184 4056 
L 1184 2488 
L 2622 2488 
z
M 563 4591 
L 2688 4591 
Q 3213 4591 3553 4438 
Q 4200 4144 4200 3353 
Q 4200 2941 4029 2678 
Q 3859 2416 3553 2256 
Q 3822 2147 3958 1969 
Q 4094 1791 4109 1391 
L 4131 775 
Q 4141 513 4175 384 
Q 4231 166 4375 103 
L 4375 0 
L 3613 0 
Q 3581 59 3562 153 
Q 3544 247 3531 516 
L 3494 1281 
Q 3472 1731 3159 1884 
Q 2981 1969 2600 1969 
L 1184 1969 
L 1184 0 
L 563 0 
L 563 4591 
z
" transform="scale(0.015625)"/>
        <path id="Helvetica-3b1" d="M 3347 703 
Q 3334 428 3525 434 
Q 3641 434 3700 475 
L 3700 -19 
Q 3628 -44 3513 -50 
Q 3391 -63 3309 -63 
Q 3084 -56 2956 103 
Q 2816 256 2816 475 
L 2803 475 
Q 2413 -63 1734 -63 
Q 1006 -50 647 459 
Q 281 953 281 1644 
Q 281 2350 634 2859 
Q 984 3378 1741 3391 
Q 2413 3391 2797 2847 
L 2809 2847 
L 2809 3328 
L 3347 3328 
L 3347 703 
z
M 1825 397 
Q 2075 397 2253 513 
Q 2425 622 2541 806 
Q 2766 1184 2766 1638 
Q 2766 2144 2559 2528 
Q 2350 2919 1797 2931 
Q 1306 2919 1081 2534 
Q 856 2156 856 1697 
Q 856 1209 1081 819 
Q 1306 409 1825 397 
z
" transform="scale(0.015625)"/>
        <path id="Helvetica-3b4" d="M 666 4519 
L 3188 4519 
L 3188 4056 
L 1394 4056 
L 1394 4044 
L 2509 3303 
Q 3134 2881 3372 2469 
Q 3591 2053 3584 1600 
Q 3578 934 3163 447 
Q 2738 -50 1938 -63 
Q 1203 -56 769 403 
Q 331 850 325 1556 
Q 341 3066 1863 3188 
L 1863 3200 
L 666 4056 
L 666 4519 
z
M 1991 397 
Q 2497 403 2731 794 
Q 2969 1166 2969 1606 
Q 2969 1856 2919 2041 
Q 2866 2222 2791 2344 
Q 2713 2463 2638 2541 
Q 2559 2619 2509 2650 
Q 2381 2766 2156 2766 
Q 947 2766 941 1528 
Q 941 1056 1216 738 
Q 1491 403 1991 397 
z
" transform="scale(0.015625)"/>
       </defs>
       <use xlink:href="#Helvetica-54"/>
       <use xlink:href="#Helvetica-43" x="61.083984"/>
       <use xlink:href="#Helvetica-52" x="133.300781"/>
       <use xlink:href="#Helvetica-3b1" x="205.517578"/>
       <use xlink:href="#Helvetica-3b4" x="266.601562"/>
       <use xlink:href="#Helvetica-2b" x="327.685547"/>
       <use xlink:href="#Helvetica-20" x="386.083984"/>
       <use xlink:href="#Helvetica-43" x="413.867188"/>
       <use xlink:href="#Helvetica-65" x="486.083984"/>
       <use xlink:href="#Helvetica-6c" x="541.699219"/>
       <use xlink:href="#Helvetica-6c" x="563.916016"/>
       <use xlink:href="#Helvetica-73" x="586.132812"/>
      </g>
     </g>
    </g>
    <g id="xtick_3">
     <g id="text_3">
      <!-- IL7R+ Cells -->
      <g style="fill: #333333" transform="translate(78.08308 76.710854) rotate(-90) scale(0.035 -0.035)">
       <defs>
        <path id="Helvetica-49" d="M 628 4591 
L 1256 4591 
L 1256 0 
L 628 0 
L 628 4591 
z
" transform="scale(0.015625)"/>
        <path id="Helvetica-4c" d="M 488 4591 
L 1109 4591 
L 1109 547 
L 3434 547 
L 3434 0 
L 488 0 
L 488 4591 
z
" transform="scale(0.015625)"/>
        <path id="Helvetica-37" d="M 3347 4400 
L 3347 3909 
Q 3131 3700 2773 3181 
Q 2416 2663 2141 2063 
Q 1869 1478 1728 997 
Q 1638 688 1494 0 
L 872 0 
Q 1084 1281 1809 2550 
Q 2238 3294 2709 3834 
L 234 3834 
L 234 4400 
L 3347 4400 
z
" transform="scale(0.015625)"/>
       </defs>
       <use xlink:href="#Helvetica-49"/>
       <use xlink:href="#Helvetica-4c" x="27.783203"/>
       <use xlink:href="#Helvetica-37" x="83.398438"/>
       <use xlink:href="#Helvetica-52" x="139.013672"/>
       <use xlink:href="#Helvetica-2b" x="211.230469"/>
       <use xlink:href="#Helvetica-20" x="269.628906"/>
       <use xlink:href="#Helvetica-43" x="297.412109"/>
       <use xlink:href="#Helvetica-65" x="369.628906"/>
       <use xlink:href="#Helvetica-6c" x="425.244141"/>
       <use xlink:href="#Helvetica-6c" x="447.460938"/>
       <use xlink:href="#Helvetica-73" x="469.677734"/>
      </g>
     </g>
    </g>
    <g id="xtick_4">
     <g id="text_4">
      <!-- EOMES+ Cells -->
      <g style="fill: #333333" transform="translate(104.958044 81.95976) rotate(-90) scale(0.035 -0.035)">
       <defs>
        <path id="Helvetica-45" d="M 547 4591 
L 3894 4591 
L 3894 4028 
L 1153 4028 
L 1153 2634 
L 3688 2634 
L 3688 2103 
L 1153 2103 
L 1153 547 
L 3941 547 
L 3941 0 
L 547 0 
L 547 4591 
z
M 2244 4591 
L 2244 4591 
z
" transform="scale(0.015625)"/>
        <path id="Helvetica-4f" d="M 2469 4716 
Q 3684 4716 4269 3934 
Q 4725 3325 4725 2375 
Q 4725 1347 4203 666 
Q 3591 -134 2456 -134 
Q 1397 -134 791 566 
Q 250 1241 250 2272 
Q 250 3203 713 3866 
Q 1306 4716 2469 4716 
z
M 2531 422 
Q 3353 422 3720 1011 
Q 4088 1600 4088 2366 
Q 4088 3175 3664 3669 
Q 3241 4163 2506 4163 
Q 1794 4163 1344 3673 
Q 894 3184 894 2231 
Q 894 1469 1280 945 
Q 1666 422 2531 422 
z
M 2488 4716 
L 2488 4716 
z
" transform="scale(0.015625)"/>
        <path id="Helvetica-4d" d="M 472 4591 
L 1363 4591 
L 2681 709 
L 3991 4591 
L 4872 4591 
L 4872 0 
L 4281 0 
L 4281 2709 
Q 4281 2850 4287 3175 
Q 4294 3500 4294 3872 
L 2984 0 
L 2369 0 
L 1050 3872 
L 1050 3731 
Q 1050 3563 1058 3217 
Q 1066 2872 1066 2709 
L 1066 0 
L 472 0 
L 472 4591 
z
" transform="scale(0.015625)"/>
        <path id="Helvetica-53" d="M 894 1481 
Q 916 1091 1078 847 
Q 1388 391 2169 391 
Q 2519 391 2806 491 
Q 3363 684 3363 1184 
Q 3363 1559 3128 1719 
Q 2891 1875 2384 1991 
L 1763 2131 
Q 1153 2269 900 2434 
Q 463 2722 463 3294 
Q 463 3913 891 4309 
Q 1319 4706 2103 4706 
Q 2825 4706 3329 4357 
Q 3834 4009 3834 3244 
L 3250 3244 
Q 3203 3613 3050 3809 
Q 2766 4169 2084 4169 
Q 1534 4169 1293 3937 
Q 1053 3706 1053 3400 
Q 1053 3063 1334 2906 
Q 1519 2806 2169 2656 
L 2813 2509 
Q 3278 2403 3531 2219 
Q 3969 1897 3969 1284 
Q 3969 522 3414 194 
Q 2859 -134 2125 -134 
Q 1269 -134 784 303 
Q 300 738 309 1481 
L 894 1481 
z
M 2150 4716 
L 2150 4716 
z
" transform="scale(0.015625)"/>
       </defs>
       <use xlink:href="#Helvetica-45"/>
       <use xlink:href="#Helvetica-4f" x="66.699219"/>
       <use xlink:href="#Helvetica-4d" x="144.482422"/>
       <use xlink:href="#Helvetica-45" x="227.783203"/>
       <use xlink:href="#Helvetica-53" x="294.482422"/>
       <use xlink:href="#Helvetica-2b" x="361.181641"/>
       <use xlink:href="#Helvetica-20" x="419.580078"/>
       <use xlink:href="#Helvetica-43" x="447.363281"/>
       <use xlink:href="#Helvetica-65" x="519.580078"/>
       <use xlink:href="#Helvetica-6c" x="575.195312"/>
       <use xlink:href="#Helvetica-6c" x="597.412109"/>
       <use xlink:href="#Helvetica-73" x="619.628906"/>
      </g>
     </g>
    </g>
    <g id="xtick_5">
     <g id="text_5">
      <!-- TBX+ Cells -->
      <g style="fill: #333333" transform="translate(131.833008 76.125151) rotate(-90) scale(0.035 -0.035)">
       <defs>
        <path id="Helvetica-42" d="M 2213 2650 
Q 2606 2650 2825 2759 
Q 3169 2931 3169 3378 
Q 3169 3828 2803 3984 
Q 2597 4072 2191 4072 
L 1081 4072 
L 1081 2650 
L 2213 2650 
z
M 2422 531 
Q 2994 531 3238 863 
Q 3391 1072 3391 1369 
Q 3391 1869 2944 2050 
Q 2706 2147 2316 2147 
L 1081 2147 
L 1081 531 
L 2422 531 
z
M 472 4591 
L 2444 4591 
Q 3250 4591 3591 4109 
Q 3791 3825 3791 3453 
Q 3791 3019 3544 2741 
Q 3416 2594 3175 2472 
Q 3528 2338 3703 2169 
Q 4013 1869 4013 1341 
Q 4013 897 3734 538 
Q 3319 0 2413 0 
L 472 0 
L 472 4591 
z
" transform="scale(0.015625)"/>
        <path id="Helvetica-58" d="M 881 0 
L 131 0 
L 1775 2353 
L 234 4591 
L 1013 4591 
L 2184 2834 
L 3347 4591 
L 4088 4591 
L 2547 2353 
L 4163 0 
L 3391 0 
L 2153 1888 
L 881 0 
z
" transform="scale(0.015625)"/>
       </defs>
       <use xlink:href="#Helvetica-54"/>
       <use xlink:href="#Helvetica-42" x="61.083984"/>
       <use xlink:href="#Helvetica-58" x="127.783203"/>
       <use xlink:href="#Helvetica-2b" x="194.482422"/>
       <use xlink:href="#Helvetica-20" x="252.880859"/>
       <use xlink:href="#Helvetica-43" x="280.664062"/>
       <use xlink:href="#Helvetica-65" x="352.880859"/>
       <use xlink:href="#Helvetica-6c" x="408.496094"/>
       <use xlink:href="#Helvetica-6c" x="430.712891"/>
       <use xlink:href="#Helvetica-73" x="452.929688"/>
      </g>
     </g>
    </g>
    <g id="xtick_6">
     <g id="text_6">
      <!-- GATA+ Cells -->
      <g style="fill: #333333" transform="translate(158.707972 78.847494) rotate(-90) scale(0.035 -0.035)">
       <defs>
        <path id="Helvetica-47" d="M 2472 4709 
Q 3119 4709 3591 4459 
Q 4275 4100 4428 3200 
L 3813 3200 
Q 3700 3703 3347 3933 
Q 2994 4163 2456 4163 
Q 1819 4163 1383 3684 
Q 947 3206 947 2259 
Q 947 1441 1306 927 
Q 1666 413 2478 413 
Q 3100 413 3508 773 
Q 3916 1134 3925 1941 
L 2488 1941 
L 2488 2456 
L 4503 2456 
L 4503 0 
L 4103 0 
L 3953 591 
Q 3638 244 3394 109 
Q 2984 -122 2353 -122 
Q 1538 -122 950 406 
Q 309 1069 309 2225 
Q 309 3378 934 4059 
Q 1528 4709 2472 4709 
z
M 2369 4716 
L 2369 4716 
z
" transform="scale(0.015625)"/>
        <path id="Helvetica-41" d="M 2844 1881 
L 2147 3909 
L 1406 1881 
L 2844 1881 
z
M 1822 4591 
L 2525 4591 
L 4191 0 
L 3509 0 
L 3044 1375 
L 1228 1375 
L 731 0 
L 94 0 
L 1822 4591 
z
" transform="scale(0.015625)"/>
       </defs>
       <use xlink:href="#Helvetica-47"/>
       <use xlink:href="#Helvetica-41" x="77.783203"/>
       <use xlink:href="#Helvetica-54" x="144.482422"/>
       <use xlink:href="#Helvetica-41" x="205.566406"/>
       <use xlink:href="#Helvetica-2b" x="272.265625"/>
       <use xlink:href="#Helvetica-20" x="330.664062"/>
       <use xlink:href="#Helvetica-43" x="358.447266"/>
       <use xlink:href="#Helvetica-65" x="430.664062"/>
       <use xlink:href="#Helvetica-6c" x="486.279297"/>
       <use xlink:href="#Helvetica-6c" x="508.496094"/>
       <use xlink:href="#Helvetica-73" x="530.712891"/>
      </g>
     </g>
    </g>
    <g id="xtick_7">
     <g id="text_7">
      <!-- ICOS+ Cells -->
      <g style="fill: #333333" transform="translate(185.582936 77.875151) rotate(-90) scale(0.035 -0.035)">
       <use xlink:href="#Helvetica-49"/>
       <use xlink:href="#Helvetica-43" x="27.783203"/>
       <use xlink:href="#Helvetica-4f" x="100"/>
       <use xlink:href="#Helvetica-53" x="177.783203"/>
       <use xlink:href="#Helvetica-2b" x="244.482422"/>
       <use xlink:href="#Helvetica-20" x="302.880859"/>
       <use xlink:href="#Helvetica-43" x="330.664062"/>
       <use xlink:href="#Helvetica-65" x="402.880859"/>
       <use xlink:href="#Helvetica-6c" x="458.496094"/>
       <use xlink:href="#Helvetica-6c" x="480.712891"/>
       <use xlink:href="#Helvetica-73" x="502.929688"/>
      </g>
     </g>
    </g>
    <g id="xtick_8">
     <g id="text_8">
      <!-- RORγT+ Cells -->
      <g style="fill: #333333" transform="translate(212.469931 81.179916) rotate(-90) scale(0.035 -0.035)">
       <defs>
        <path id="Helvetica-3b3" d="M 1556 225 
L 581 2444 
Q 481 2700 416 2803 
Q 347 2894 244 2894 
Q 91 2888 56 2872 
L 56 3334 
Q 166 3384 313 3391 
Q 641 3391 788 3250 
Q 863 3188 922 3078 
Q 978 2963 1038 2809 
L 1844 878 
L 2828 3328 
L 3431 3328 
L 2131 225 
L 2131 -1253 
L 1556 -1253 
L 1556 225 
z
" transform="scale(0.015625)"/>
       </defs>
       <use xlink:href="#Helvetica-52"/>
       <use xlink:href="#Helvetica-4f" x="72.216797"/>
       <use xlink:href="#Helvetica-52" x="150"/>
       <use xlink:href="#Helvetica-3b3" x="222.216797"/>
       <use xlink:href="#Helvetica-54" x="277.832031"/>
       <use xlink:href="#Helvetica-2b" x="338.916016"/>
       <use xlink:href="#Helvetica-20" x="397.314453"/>
       <use xlink:href="#Helvetica-43" x="425.097656"/>
       <use xlink:href="#Helvetica-65" x="497.314453"/>
       <use xlink:href="#Helvetica-6c" x="552.929688"/>
       <use xlink:href="#Helvetica-6c" x="575.146484"/>
       <use xlink:href="#Helvetica-73" x="597.363281"/>
      </g>
     </g>
    </g>
    <g id="xtick_9">
     <g id="text_9">
      <!-- AHR+ Cells -->
      <g style="fill: #333333" transform="translate(239.332864 76.708119) rotate(-90) scale(0.035 -0.035)">
       <defs>
        <path id="Helvetica-48" d="M 503 4591 
L 1131 4591 
L 1131 2694 
L 3519 2694 
L 3519 4591 
L 4147 4591 
L 4147 0 
L 3519 0 
L 3519 2147 
L 1131 2147 
L 1131 0 
L 503 0 
L 503 4591 
z
" transform="scale(0.015625)"/>
       </defs>
       <use xlink:href="#Helvetica-41"/>
       <use xlink:href="#Helvetica-48" x="66.699219"/>
       <use xlink:href="#Helvetica-52" x="138.916016"/>
       <use xlink:href="#Helvetica-2b" x="211.132812"/>
       <use xlink:href="#Helvetica-20" x="269.53125"/>
       <use xlink:href="#Helvetica-43" x="297.314453"/>
       <use xlink:href="#Helvetica-65" x="369.53125"/>
       <use xlink:href="#Helvetica-6c" x="425.146484"/>
       <use xlink:href="#Helvetica-6c" x="447.363281"/>
       <use xlink:href="#Helvetica-73" x="469.580078"/>
      </g>
     </g>
    </g>
   </g>
   <g id="matplotlib.axis_2">
    <g id="ytick_1">
     <g id="line2d_1">
      <defs>
       <path id="m43e6004496" d="M 0 0 
L -1 0 
" style="stroke: #777777; stroke-width: 0.5"/>
      </defs>
      <g>
       <use xlink:href="#m43e6004496" x="10.005084" y="48.355357" style="fill: #777777; stroke: #777777; stroke-width: 0.5"/>
      </g>
     </g>
     <g id="text_10">
      <!-- 0 -->
      <g style="fill: #333333" transform="translate(6.336803 49.431373) scale(0.03 -0.03)">
       <use xlink:href="#Helvetica-30"/>
      </g>
     </g>
    </g>
    <g id="ytick_2">
     <g id="line2d_2">
      <g>
       <use xlink:href="#m43e6004496" x="10.005084" y="40.975507" style="fill: #777777; stroke: #777777; stroke-width: 0.5"/>
      </g>
     </g>
     <g id="text_11">
      <!-- 20 -->
      <g style="fill: #333333" transform="translate(4.668521 42.051523) scale(0.03 -0.03)">
       <use xlink:href="#Helvetica-32"/>
       <use xlink:href="#Helvetica-30" x="55.615234"/>
      </g>
     </g>
    </g>
    <g id="ytick_3">
     <g id="line2d_3">
      <g>
       <use xlink:href="#m43e6004496" x="10.005084" y="33.595657" style="fill: #777777; stroke: #777777; stroke-width: 0.5"/>
      </g>
     </g>
     <g id="text_12">
      <!-- 40 -->
      <g style="fill: #333333" transform="translate(4.668521 34.671672) scale(0.03 -0.03)">
       <defs>
        <path id="Helvetica-34" d="M 2116 1584 
L 2116 3613 
L 681 1584 
L 2116 1584 
z
M 2125 0 
L 2125 1094 
L 163 1094 
L 163 1644 
L 2213 4488 
L 2688 4488 
L 2688 1584 
L 3347 1584 
L 3347 1094 
L 2688 1094 
L 2688 0 
L 2125 0 
z
" transform="scale(0.015625)"/>
       </defs>
       <use xlink:href="#Helvetica-34"/>
       <use xlink:href="#Helvetica-30" x="55.615234"/>
      </g>
     </g>
    </g>
    <g id="ytick_4">
     <g id="line2d_4">
      <g>
       <use xlink:href="#m43e6004496" x="10.005084" y="26.215806" style="fill: #777777; stroke: #777777; stroke-width: 0.5"/>
      </g>
     </g>
     <g id="text_13">
      <!-- 60 -->
      <g style="fill: #333333" transform="translate(4.668521 27.291822) scale(0.03 -0.03)">
       <defs>
        <path id="Helvetica-36" d="M 1872 4494 
Q 2622 4494 2917 4105 
Q 3213 3716 3213 3303 
L 2656 3303 
Q 2606 3569 2497 3719 
Q 2294 4000 1881 4000 
Q 1409 4000 1131 3564 
Q 853 3128 822 2316 
Q 1016 2600 1309 2741 
Q 1578 2866 1909 2866 
Q 2472 2866 2890 2506 
Q 3309 2147 3309 1434 
Q 3309 825 2912 354 
Q 2516 -116 1781 -116 
Q 1153 -116 697 361 
Q 241 838 241 1966 
Q 241 2800 444 3381 
Q 834 4494 1872 4494 
z
M 1831 384 
Q 2275 384 2495 682 
Q 2716 981 2716 1388 
Q 2716 1731 2519 2042 
Q 2322 2353 1803 2353 
Q 1441 2353 1167 2112 
Q 894 1872 894 1388 
Q 894 963 1142 673 
Q 1391 384 1831 384 
z
" transform="scale(0.015625)"/>
       </defs>
       <use xlink:href="#Helvetica-36"/>
       <use xlink:href="#Helvetica-30" x="55.615234"/>
      </g>
     </g>
    </g>
    <g id="ytick_5">
     <g id="line2d_5">
      <g>
       <use xlink:href="#m43e6004496" x="10.005084" y="18.835956" style="fill: #777777; stroke: #777777; stroke-width: 0.5"/>
      </g>
     </g>
     <g id="text_14">
      <!-- 80 -->
      <g style="fill: #333333" transform="translate(4.668521 19.911972) scale(0.03 -0.03)">
       <defs>
        <path id="Helvetica-38" d="M 1741 2600 
Q 2113 2600 2322 2808 
Q 2531 3016 2531 3303 
Q 2531 3553 2331 3762 
Q 2131 3972 1722 3972 
Q 1316 3972 1134 3762 
Q 953 3553 953 3272 
Q 953 2956 1187 2778 
Q 1422 2600 1741 2600 
z
M 1775 384 
Q 2166 384 2423 595 
Q 2681 806 2681 1225 
Q 2681 1659 2415 1884 
Q 2150 2109 1734 2109 
Q 1331 2109 1076 1879 
Q 822 1650 822 1244 
Q 822 894 1055 639 
Q 1288 384 1775 384 
z
M 975 2384 
Q 741 2484 609 2619 
Q 363 2869 363 3269 
Q 363 3769 725 4128 
Q 1088 4488 1753 4488 
Q 2397 4488 2762 4148 
Q 3128 3809 3128 3356 
Q 3128 2938 2916 2678 
Q 2797 2531 2547 2391 
Q 2825 2263 2984 2097 
Q 3281 1784 3281 1284 
Q 3281 694 2884 283 
Q 2488 -128 1763 -128 
Q 1109 -128 657 226 
Q 206 581 206 1256 
Q 206 1653 400 1942 
Q 594 2231 975 2384 
z
" transform="scale(0.015625)"/>
       </defs>
       <use xlink:href="#Helvetica-38"/>
       <use xlink:href="#Helvetica-30" x="55.615234"/>
      </g>
     </g>
    </g>
    <g id="ytick_6">
     <g id="line2d_6">
      <g>
       <use xlink:href="#m43e6004496" x="10.005084" y="11.456106" style="fill: #777777; stroke: #777777; stroke-width: 0.5"/>
      </g>
     </g>
     <g id="text_15">
      <!-- 100 -->
      <g style="fill: #333333" transform="translate(3.00024 12.532122) scale(0.03 -0.03)">
       <defs>
        <path id="Helvetica-31" d="M 613 3169 
L 613 3600 
Q 1222 3659 1462 3798 
Q 1703 3938 1822 4456 
L 2266 4456 
L 2266 0 
L 1666 0 
L 1666 3169 
L 613 3169 
z
" transform="scale(0.015625)"/>
       </defs>
       <use xlink:href="#Helvetica-31"/>
       <use xlink:href="#Helvetica-30" x="55.615234"/>
       <use xlink:href="#Helvetica-30" x="111.230469"/>
      </g>
     </g>
    </g>
    <g id="ytick_7">
     <g id="line2d_7">
      <g>
       <use xlink:href="#m43e6004496" x="10.005084" y="4.076256" style="fill: #777777; stroke: #777777; stroke-width: 0.5"/>
      </g>
     </g>
     <g id="text_16">
      <!-- 120 -->
      <g style="fill: #333333" transform="translate(3.00024 5.152271) scale(0.03 -0.03)">
       <use xlink:href="#Helvetica-31"/>
       <use xlink:href="#Helvetica-32" x="55.615234"/>
       <use xlink:href="#Helvetica-30" x="111.230469"/>
      </g>
     </g>
    </g>
   </g>
   <g id="PolyCollection_1">
    <defs>
     <path id="m697f9826a9" d="M 23.936777 -37.160371 
L 22.948354 -37.160371 
L 22.830171 -37.481829 
L 22.700066 -37.803288 
L 22.561092 -38.124747 
L 22.41693 -38.446205 
L 22.271375 -38.767664 
L 22.127638 -39.089122 
L 21.987568 -39.410581 
L 21.850885 -39.73204 
L 21.71457 -40.053498 
L 21.57256 -40.374957 
L 21.415839 -40.696416 
L 21.233015 -41.017874 
L 21.011365 -41.339333 
L 20.738265 -41.660792 
L 20.40286 -41.98225 
L 19.997745 -42.303709 
L 19.520427 -42.625168 
L 18.974341 -42.946626 
L 18.369235 -43.268085 
L 17.720859 -43.589543 
L 17.049948 -43.911002 
L 16.380633 -44.232461 
L 15.738478 -44.553919 
L 15.148399 -44.875378 
L 14.632715 -45.196837 
L 14.209551 -45.518295 
L 13.891747 -45.839754 
L 13.686313 -46.161213 
L 13.594434 -46.482671 
L 13.61192 -46.80413 
L 13.730002 -47.125588 
L 13.936322 -47.447047 
L 14.216054 -47.768506 
L 14.553025 -48.089964 
L 14.930814 -48.411423 
L 15.333764 -48.732882 
L 15.74785 -49.05434 
L 16.161375 -49.375799 
L 16.565397 -49.697258 
L 16.953858 -50.018716 
L 17.32336 -50.340175 
L 17.672594 -50.661634 
L 18.001465 -50.983092 
L 18.310018 -51.304551 
L 18.597314 -51.626009 
L 18.860416 -51.947468 
L 19.093664 -52.268927 
L 19.28838 -52.590385 
L 19.433103 -52.911844 
L 19.514353 -53.233303 
L 19.517894 -53.554761 
L 19.430362 -53.87622 
L 19.241075 -54.197679 
L 18.943813 -54.519137 
L 18.538349 -54.840596 
L 18.031503 -55.162054 
L 17.437567 -55.483513 
L 16.777985 -55.804972 
L 16.080254 -56.12643 
L 15.376126 -56.447889 
L 14.699246 -56.769348 
L 14.082484 -57.090806 
L 13.555239 -57.412265 
L 13.141057 -57.733724 
L 12.85583 -58.055182 
L 12.706814 -58.376641 
L 12.69258 -58.6981 
L 12.803868 -59.019558 
L 13.025202 -59.341017 
L 13.337008 -59.662475 
L 13.717917 -59.983934 
L 14.146935 -60.305393 
L 14.6052 -60.626851 
L 15.077158 -60.94831 
L 15.551075 -61.269769 
L 16.018951 -61.591227 
L 16.475964 -61.912686 
L 16.919644 -62.234145 
L 17.348979 -62.555603 
L 17.763638 -62.877062 
L 18.163423 -63.19852 
L 18.548004 -63.519979 
L 18.916907 -63.841438 
L 19.269678 -64.162896 
L 19.606113 -64.484355 
L 19.926453 -64.805814 
L 20.231462 -65.127272 
L 20.522344 -65.448731 
L 20.800528 -65.77019 
L 21.067358 -66.091648 
L 21.323781 -66.413107 
L 21.570093 -66.734566 
L 21.805823 -67.056024 
L 22.029769 -67.377483 
L 22.240178 -67.698941 
L 22.435034 -68.0204 
L 22.61239 -68.341859 
L 22.770684 -68.663317 
L 22.908971 -68.984776 
L 23.976161 -68.984776 
L 23.976161 -68.984776 
L 24.114448 -68.663317 
L 24.272741 -68.341859 
L 24.450098 -68.0204 
L 24.644954 -67.698941 
L 24.855363 -67.377483 
L 25.079309 -67.056024 
L 25.315039 -66.734566 
L 25.561351 -66.413107 
L 25.817773 -66.091648 
L 26.084604 -65.77019 
L 26.362788 -65.448731 
L 26.65367 -65.127272 
L 26.958679 -64.805814 
L 27.279019 -64.484355 
L 27.615453 -64.162896 
L 27.968224 -63.841438 
L 28.337128 -63.519979 
L 28.721709 -63.19852 
L 29.121494 -62.877062 
L 29.536153 -62.555603 
L 29.965488 -62.234145 
L 30.409168 -61.912686 
L 30.866181 -61.591227 
L 31.334057 -61.269769 
L 31.807973 -60.94831 
L 32.279931 -60.626851 
L 32.738197 -60.305393 
L 33.167215 -59.983934 
L 33.548124 -59.662475 
L 33.859929 -59.341017 
L 34.081263 -59.019558 
L 34.192551 -58.6981 
L 34.178318 -58.376641 
L 34.029302 -58.055182 
L 33.744074 -57.733724 
L 33.329893 -57.412265 
L 32.802648 -57.090806 
L 32.185885 -56.769348 
L 31.509005 -56.447889 
L 30.804878 -56.12643 
L 30.107147 -55.804972 
L 29.447564 -55.483513 
L 28.853629 -55.162054 
L 28.346782 -54.840596 
L 27.941318 -54.519137 
L 27.644057 -54.197679 
L 27.454769 -53.87622 
L 27.367237 -53.554761 
L 27.370778 -53.233303 
L 27.452028 -52.911844 
L 27.596751 -52.590385 
L 27.791468 -52.268927 
L 28.024715 -51.947468 
L 28.287817 -51.626009 
L 28.575114 -51.304551 
L 28.883667 -50.983092 
L 29.212537 -50.661634 
L 29.561771 -50.340175 
L 29.931274 -50.018716 
L 30.319735 -49.697258 
L 30.723757 -49.375799 
L 31.137281 -49.05434 
L 31.551368 -48.732882 
L 31.954317 -48.411423 
L 32.332107 -48.089964 
L 32.669078 -47.768506 
L 32.948809 -47.447047 
L 33.15513 -47.125588 
L 33.273211 -46.80413 
L 33.290698 -46.482671 
L 33.198819 -46.161213 
L 32.993384 -45.839754 
L 32.67558 -45.518295 
L 32.252417 -45.196837 
L 31.736733 -44.875378 
L 31.146654 -44.553919 
L 30.504499 -44.232461 
L 29.835183 -43.911002 
L 29.164273 -43.589543 
L 28.515897 -43.268085 
L 27.910791 -42.946626 
L 27.364704 -42.625168 
L 26.887387 -42.303709 
L 26.482272 -41.98225 
L 26.146867 -41.660792 
L 25.873767 -41.339333 
L 25.652116 -41.017874 
L 25.469292 -40.696416 
L 25.312572 -40.374957 
L 25.170561 -40.053498 
L 25.034247 -39.73204 
L 24.897563 -39.410581 
L 24.757493 -39.089122 
L 24.613757 -38.767664 
L 24.468201 -38.446205 
L 24.32404 -38.124747 
L 24.185065 -37.803288 
L 24.054961 -37.481829 
L 23.936777 -37.160371 
z
" style="stroke: #6f6f6f; stroke-width: 0.15"/>
    </defs>
    <g clip-path="url(#pd6375347b2)">
     <use xlink:href="#m697f9826a9" x="0" y="84.96" style="fill: #abc9ea; stroke: #6f6f6f; stroke-width: 0.15"/>
    </g>
   </g>
   <g id="PolyCollection_2">
    <defs>
     <path id="mf7899708ea" d="M 51.311524 -35.451631 
L 49.323535 -35.451631 
L 49.039102 -35.62844 
L 48.699506 -35.805249 
L 48.302023 -35.982058 
L 47.846098 -36.158867 
L 47.333832 -36.335676 
L 46.770349 -36.512485 
L 46.163969 -36.689294 
L 45.526136 -36.866102 
L 44.87107 -37.042911 
L 44.215127 -37.21972 
L 43.575899 -37.396529 
L 42.971122 -37.573338 
L 42.41748 -37.750147 
L 41.929439 -37.926956 
L 41.518231 -38.103764 
L 41.19112 -38.280573 
L 40.951039 -38.457382 
L 40.796649 -38.634191 
L 40.722811 -38.811 
L 40.721412 -38.987809 
L 40.782412 -39.164618 
L 40.894978 -39.341427 
L 41.048529 -39.518235 
L 41.233554 -39.695044 
L 41.442093 -39.871853 
L 41.667843 -40.048662 
L 41.905912 -40.225471 
L 42.152316 -40.40228 
L 42.403343 -40.579089 
L 42.654959 -40.755898 
L 42.902391 -40.932706 
L 43.140007 -41.109515 
L 43.361528 -41.286324 
L 43.560567 -41.463133 
L 43.731399 -41.639942 
L 43.86982 -41.816751 
L 43.973939 -41.99356 
L 44.04475 -42.170369 
L 44.086343 -42.347177 
L 44.10571 -42.523986 
L 44.112124 -42.700795 
L 44.116179 -42.877604 
L 44.128583 -43.054413 
L 44.158882 -43.231222 
L 44.214262 -43.408031 
L 44.298575 -43.58484 
L 44.411705 -43.761648 
L 44.549344 -43.938457 
L 44.703167 -44.115266 
L 44.8614 -44.292075 
L 45.009689 -44.468884 
L 45.132172 -44.645693 
L 45.212678 -44.822502 
L 45.235935 -44.999311 
L 45.188723 -45.176119 
L 45.060912 -45.352928 
L 44.846339 -45.529737 
L 44.543499 -45.706546 
L 44.156015 -45.883355 
L 43.692848 -46.060164 
L 43.168224 -46.236973 
L 42.601235 -46.413781 
L 42.015089 -46.59059 
L 41.436016 -46.767399 
L 40.891852 -46.944208 
L 40.410386 -47.121017 
L 40.017576 -47.297826 
L 39.735788 -47.474635 
L 39.582197 -47.651444 
L 39.567544 -47.828252 
L 39.695339 -48.005061 
L 39.961628 -48.18187 
L 40.355339 -48.358679 
L 40.859181 -48.535488 
L 41.451013 -48.712297 
L 42.105549 -48.889106 
L 42.796226 -49.065915 
L 43.497082 -49.242723 
L 44.184465 -49.419532 
L 44.838424 -49.596341 
L 45.443699 -49.77315 
L 45.990231 -49.949959 
L 46.473186 -50.126768 
L 46.892545 -50.303577 
L 47.252318 -50.480386 
L 47.559506 -50.657194 
L 47.82294 -50.834003 
L 48.05212 -51.010812 
L 48.256174 -51.187621 
L 48.443039 -51.36443 
L 48.618909 -51.541239 
L 48.787974 -51.718048 
L 48.952442 -51.894857 
L 49.11278 -52.071665 
L 49.268112 -52.248474 
L 49.4167 -52.425283 
L 49.556425 -52.602092 
L 49.685215 -52.778901 
L 49.80137 -52.95571 
L 50.833689 -52.95571 
L 50.833689 -52.95571 
L 50.949845 -52.778901 
L 51.078635 -52.602092 
L 51.21836 -52.425283 
L 51.366948 -52.248474 
L 51.522279 -52.071665 
L 51.682617 -51.894857 
L 51.847085 -51.718048 
L 52.016151 -51.541239 
L 52.19202 -51.36443 
L 52.378886 -51.187621 
L 52.58294 -51.010812 
L 52.81212 -50.834003 
L 53.075554 -50.657194 
L 53.382742 -50.480386 
L 53.742514 -50.303577 
L 54.161874 -50.126768 
L 54.644829 -49.949959 
L 55.19136 -49.77315 
L 55.796636 -49.596341 
L 56.450595 -49.419532 
L 57.137977 -49.242723 
L 57.838834 -49.065915 
L 58.529511 -48.889106 
L 59.184046 -48.712297 
L 59.775879 -48.535488 
L 60.279721 -48.358679 
L 60.673431 -48.18187 
L 60.93972 -48.005061 
L 61.067515 -47.828252 
L 61.052862 -47.651444 
L 60.899272 -47.474635 
L 60.617483 -47.297826 
L 60.224674 -47.121017 
L 59.743208 -46.944208 
L 59.199043 -46.767399 
L 58.61997 -46.59059 
L 58.033825 -46.413781 
L 57.466836 -46.236973 
L 56.942212 -46.060164 
L 56.479044 -45.883355 
L 56.09156 -45.706546 
L 55.788721 -45.529737 
L 55.574148 -45.352928 
L 55.446336 -45.176119 
L 55.399125 -44.999311 
L 55.422382 -44.822502 
L 55.502888 -44.645693 
L 55.625371 -44.468884 
L 55.773659 -44.292075 
L 55.931893 -44.115266 
L 56.085716 -43.938457 
L 56.223354 -43.761648 
L 56.336485 -43.58484 
L 56.420797 -43.408031 
L 56.476177 -43.231222 
L 56.506477 -43.054413 
L 56.518881 -42.877604 
L 56.522936 -42.700795 
L 56.52935 -42.523986 
L 56.548716 -42.347177 
L 56.590309 -42.170369 
L 56.66112 -41.99356 
L 56.76524 -41.816751 
L 56.90366 -41.639942 
L 57.074492 -41.463133 
L 57.273532 -41.286324 
L 57.495053 -41.109515 
L 57.732668 -40.932706 
L 57.980101 -40.755898 
L 58.231717 -40.579089 
L 58.482743 -40.40228 
L 58.729147 -40.225471 
L 58.967217 -40.048662 
L 59.192966 -39.871853 
L 59.401505 -39.695044 
L 59.58653 -39.518235 
L 59.740082 -39.341427 
L 59.852647 -39.164618 
L 59.913647 -38.987809 
L 59.912248 -38.811 
L 59.838411 -38.634191 
L 59.684021 -38.457382 
L 59.44394 -38.280573 
L 59.116829 -38.103764 
L 58.705621 -37.926956 
L 58.217579 -37.750147 
L 57.663938 -37.573338 
L 57.059161 -37.396529 
L 56.419933 -37.21972 
L 55.76399 -37.042911 
L 55.108924 -36.866102 
L 54.471091 -36.689294 
L 53.86471 -36.512485 
L 53.301227 -36.335676 
L 52.788961 -36.158867 
L 52.333036 -35.982058 
L 51.935554 -35.805249 
L 51.595957 -35.62844 
L 51.311524 -35.451631 
z
" style="stroke: #6f6f6f; stroke-width: 0.15"/>
    </defs>
    <g clip-path="url(#pd6375347b2)">
     <use xlink:href="#mf7899708ea" x="0" y="84.96" style="fill: #efb792; stroke: #6f6f6f; stroke-width: 0.15"/>
    </g>
   </g>
   <g id="PolyCollection_3">
    <defs>
     <path id="ma31bccbe87" d="M 79.0423 -35.4582 
L 75.342687 -35.4582 
L 74.854741 -35.601793 
L 74.297714 -35.745386 
L 73.679843 -35.888979 
L 73.014867 -36.032572 
L 72.321782 -36.176166 
L 71.623941 -36.319759 
L 70.94747 -36.463352 
L 70.319137 -36.606945 
L 69.763831 -36.750538 
L 69.301974 -36.894131 
L 68.947175 -37.037725 
L 68.704456 -37.181318 
L 68.569335 -37.324911 
L 68.527943 -37.468504 
L 68.558207 -37.612097 
L 68.632023 -37.75569 
L 68.718188 -37.899284 
L 68.785766 -38.042877 
L 68.807485 -38.18647 
L 68.7628 -38.330063 
L 68.640219 -38.473656 
L 68.438633 -38.61725 
L 68.167486 -38.760843 
L 67.845725 -38.904436 
L 67.499681 -39.048029 
L 67.160086 -39.191622 
L 66.858613 -39.335215 
L 66.624338 -39.478809 
L 66.480582 -39.622402 
L 66.442508 -39.765995 
L 66.51578 -39.909588 
L 66.696423 -40.053181 
L 66.971866 -40.196774 
L 67.322976 -40.340368 
L 67.726744 -40.483961 
L 68.159217 -40.627554 
L 68.598219 -40.771147 
L 69.0255 -40.91474 
L 69.428025 -41.058334 
L 69.798304 -41.201927 
L 70.133812 -41.34552 
L 70.435711 -41.489113 
L 70.70717 -41.632706 
L 70.951653 -41.776299 
L 71.171475 -41.919893 
L 71.366896 -42.063486 
L 71.535851 -42.207079 
L 71.674322 -42.350672 
L 71.777217 -42.494265 
L 71.83955 -42.637858 
L 71.857666 -42.781452 
L 71.83029 -42.925045 
L 71.759201 -43.068638 
L 71.649464 -43.212231 
L 71.509177 -43.355824 
L 71.348824 -43.499418 
L 71.180355 -43.643011 
L 71.016138 -43.786604 
L 70.867948 -43.930197 
L 70.7461 -44.07379 
L 70.658826 -44.217383 
L 70.61192 -44.360977 
L 70.608653 -44.50457 
L 70.649905 -44.648163 
L 70.734463 -44.791756 
L 70.859415 -44.935349 
L 71.020569 -45.078942 
L 71.212861 -45.222536 
L 71.430706 -45.366129 
L 71.668297 -45.509722 
L 71.919834 -45.653315 
L 72.179699 -45.796908 
L 72.442597 -45.940502 
L 72.703658 -46.084095 
L 72.95853 -46.227688 
L 73.203459 -46.371281 
L 73.435361 -46.514874 
L 73.651898 -46.658467 
L 73.851553 -46.802061 
L 74.033693 -46.945654 
L 74.198626 -47.089247 
L 74.347616 -47.23284 
L 74.482849 -47.376433 
L 74.607321 -47.520026 
L 74.724646 -47.66362 
L 74.838773 -47.807213 
L 74.953629 -47.950806 
L 75.072741 -48.094399 
L 75.198854 -48.237992 
L 75.333635 -48.381586 
L 75.477477 -48.525179 
L 75.629458 -48.668772 
L 75.787456 -48.812365 
L 75.948401 -48.955958 
L 76.108629 -49.099551 
L 76.264289 -49.243145 
L 76.411734 -49.386738 
L 76.547859 -49.530331 
L 76.670337 -49.673924 
L 77.714651 -49.673924 
L 77.714651 -49.673924 
L 77.837128 -49.530331 
L 77.973254 -49.386738 
L 78.120699 -49.243145 
L 78.276359 -49.099551 
L 78.436587 -48.955958 
L 78.597531 -48.812365 
L 78.75553 -48.668772 
L 78.907511 -48.525179 
L 79.051353 -48.381586 
L 79.186134 -48.237992 
L 79.312247 -48.094399 
L 79.431358 -47.950806 
L 79.546215 -47.807213 
L 79.660341 -47.66362 
L 79.777667 -47.520026 
L 79.902139 -47.376433 
L 80.037371 -47.23284 
L 80.186362 -47.089247 
L 80.351295 -46.945654 
L 80.533435 -46.802061 
L 80.733089 -46.658467 
L 80.949627 -46.514874 
L 81.181529 -46.371281 
L 81.426458 -46.227688 
L 81.68133 -46.084095 
L 81.942391 -45.940502 
L 82.205288 -45.796908 
L 82.465154 -45.653315 
L 82.71669 -45.509722 
L 82.954282 -45.366129 
L 83.172127 -45.222536 
L 83.364418 -45.078942 
L 83.525573 -44.935349 
L 83.650525 -44.791756 
L 83.735083 -44.648163 
L 83.776334 -44.50457 
L 83.773067 -44.360977 
L 83.726162 -44.217383 
L 83.638888 -44.07379 
L 83.517039 -43.930197 
L 83.368849 -43.786604 
L 83.204633 -43.643011 
L 83.036163 -43.499418 
L 82.87581 -43.355824 
L 82.735523 -43.212231 
L 82.625786 -43.068638 
L 82.554698 -42.925045 
L 82.527321 -42.781452 
L 82.545438 -42.637858 
L 82.607771 -42.494265 
L 82.710666 -42.350672 
L 82.849136 -42.207079 
L 83.018091 -42.063486 
L 83.213513 -41.919893 
L 83.433335 -41.776299 
L 83.677818 -41.632706 
L 83.949277 -41.489113 
L 84.251175 -41.34552 
L 84.586684 -41.201927 
L 84.956963 -41.058334 
L 85.359488 -40.91474 
L 85.786769 -40.771147 
L 86.225771 -40.627554 
L 86.658244 -40.483961 
L 87.062012 -40.340368 
L 87.413122 -40.196774 
L 87.688565 -40.053181 
L 87.869207 -39.909588 
L 87.942479 -39.765995 
L 87.904406 -39.622402 
L 87.76065 -39.478809 
L 87.526375 -39.335215 
L 87.224901 -39.191622 
L 86.885306 -39.048029 
L 86.539262 -38.904436 
L 86.217502 -38.760843 
L 85.946354 -38.61725 
L 85.744769 -38.473656 
L 85.622187 -38.330063 
L 85.577502 -38.18647 
L 85.599222 -38.042877 
L 85.666799 -37.899284 
L 85.752965 -37.75569 
L 85.826781 -37.612097 
L 85.857044 -37.468504 
L 85.815652 -37.324911 
L 85.680532 -37.181318 
L 85.437812 -37.037725 
L 85.083013 -36.894131 
L 84.621157 -36.750538 
L 84.065851 -36.606945 
L 83.437517 -36.463352 
L 82.761047 -36.319759 
L 82.063205 -36.176166 
L 81.370121 -36.032572 
L 80.705145 -35.888979 
L 80.087274 -35.745386 
L 79.530246 -35.601793 
L 79.0423 -35.4582 
z
" style="stroke: #6f6f6f; stroke-width: 0.15"/>
    </defs>
    <g clip-path="url(#pd6375347b2)">
     <use xlink:href="#ma31bccbe87" x="0" y="84.96" style="fill: #98daa7; stroke: #6f6f6f; stroke-width: 0.15"/>
    </g>
   </g>
   <g id="PolyCollection_4">
    <defs>
     <path id="m7e1a22a484" d="M 106.371797 -36.512002 
L 101.763119 -36.512002 
L 101.348184 -36.518866 
L 100.893479 -36.525729 
L 100.402921 -36.532592 
L 99.882209 -36.539455 
L 99.338795 -36.546319 
L 98.781742 -36.553182 
L 98.221467 -36.560045 
L 97.669371 -36.566909 
L 97.137368 -36.573772 
L 96.637336 -36.580635 
L 96.180532 -36.587499 
L 95.777002 -36.594362 
L 95.435025 -36.601225 
L 95.160649 -36.608089 
L 94.95734 -36.614952 
L 94.825786 -36.621815 
L 94.763866 -36.628679 
L 94.766795 -36.635542 
L 94.827418 -36.642405 
L 94.936658 -36.649268 
L 95.084044 -36.656132 
L 95.258311 -36.662995 
L 95.447988 -36.669858 
L 95.641964 -36.676722 
L 95.829962 -36.683585 
L 96.00291 -36.690448 
L 96.153179 -36.697312 
L 96.274707 -36.704175 
L 96.362994 -36.711038 
L 96.415013 -36.717902 
L 96.429063 -36.724765 
L 96.404589 -36.731628 
L 96.342019 -36.738491 
L 96.242632 -36.745355 
L 96.108467 -36.752218 
L 95.942303 -36.759081 
L 95.747664 -36.765945 
L 95.528865 -36.772808 
L 95.291042 -36.779671 
L 95.040152 -36.786535 
L 94.782906 -36.793398 
L 94.526614 -36.800261 
L 94.278933 -36.807125 
L 94.047514 -36.813988 
L 93.839581 -36.820851 
L 93.661454 -36.827714 
L 93.518084 -36.834578 
L 93.412636 -36.841441 
L 93.346169 -36.848304 
L 93.317472 -36.855168 
L 93.32307 -36.862031 
L 93.357431 -36.868894 
L 93.413355 -36.875758 
L 93.482535 -36.882621 
L 93.55623 -36.889484 
L 93.625998 -36.896348 
L 93.684426 -36.903211 
L 93.72578 -36.910074 
L 93.746513 -36.916938 
L 93.745584 -36.923801 
L 93.724557 -36.930664 
L 93.687459 -36.937527 
L 93.64043 -36.944391 
L 93.591179 -36.951254 
L 93.548314 -36.958117 
L 93.520605 -36.964981 
L 93.516254 -36.971844 
L 93.542243 -36.978707 
L 93.603812 -36.985571 
L 93.704119 -36.992434 
L 93.844108 -36.999297 
L 94.022577 -37.006161 
L 94.236444 -37.013024 
L 94.481158 -37.019887 
L 94.751217 -37.02675 
L 95.040732 -37.033614 
L 95.343966 -37.040477 
L 95.655818 -37.04734 
L 95.972178 -37.054204 
L 96.290153 -37.061067 
L 96.608135 -37.06793 
L 96.925719 -37.074794 
L 97.243499 -37.081657 
L 97.562769 -37.08852 
L 97.885168 -37.095384 
L 98.212318 -37.102247 
L 98.545488 -37.10911 
L 98.88532 -37.115974 
L 99.231648 -37.122837 
L 99.583405 -37.1297 
L 99.938637 -37.136563 
L 100.294611 -37.143427 
L 100.647984 -37.15029 
L 100.99503 -37.157153 
L 101.331893 -37.164017 
L 101.654826 -37.17088 
L 101.960423 -37.177743 
L 102.245796 -37.184607 
L 102.508709 -37.19147 
L 105.626206 -37.19147 
L 105.626206 -37.19147 
L 105.88912 -37.184607 
L 106.174493 -37.177743 
L 106.48009 -37.17088 
L 106.803023 -37.164017 
L 107.139886 -37.157153 
L 107.486932 -37.15029 
L 107.840305 -37.143427 
L 108.196278 -37.136563 
L 108.551511 -37.1297 
L 108.903267 -37.122837 
L 109.249595 -37.115974 
L 109.589428 -37.10911 
L 109.922598 -37.102247 
L 110.249748 -37.095384 
L 110.572147 -37.08852 
L 110.891417 -37.081657 
L 111.209197 -37.074794 
L 111.526781 -37.06793 
L 111.844763 -37.061067 
L 112.162738 -37.054204 
L 112.479098 -37.04734 
L 112.79095 -37.040477 
L 113.094184 -37.033614 
L 113.383699 -37.02675 
L 113.653758 -37.019887 
L 113.898472 -37.013024 
L 114.112338 -37.006161 
L 114.290808 -36.999297 
L 114.430797 -36.992434 
L 114.531104 -36.985571 
L 114.592673 -36.978707 
L 114.618662 -36.971844 
L 114.614311 -36.964981 
L 114.586601 -36.958117 
L 114.543736 -36.951254 
L 114.494486 -36.944391 
L 114.447457 -36.937527 
L 114.410359 -36.930664 
L 114.389331 -36.923801 
L 114.388403 -36.916938 
L 114.409135 -36.910074 
L 114.450489 -36.903211 
L 114.508918 -36.896348 
L 114.578686 -36.889484 
L 114.65238 -36.882621 
L 114.721561 -36.875758 
L 114.777485 -36.868894 
L 114.811845 -36.862031 
L 114.817443 -36.855168 
L 114.788747 -36.848304 
L 114.72228 -36.841441 
L 114.616832 -36.834578 
L 114.473462 -36.827714 
L 114.295335 -36.820851 
L 114.087401 -36.813988 
L 113.855983 -36.807125 
L 113.608302 -36.800261 
L 113.35201 -36.793398 
L 113.094764 -36.786535 
L 112.843874 -36.779671 
L 112.606051 -36.772808 
L 112.387252 -36.765945 
L 112.192613 -36.759081 
L 112.026449 -36.752218 
L 111.892284 -36.745355 
L 111.792896 -36.738491 
L 111.730327 -36.731628 
L 111.705853 -36.724765 
L 111.719902 -36.717902 
L 111.771921 -36.711038 
L 111.860208 -36.704175 
L 111.981737 -36.697312 
L 112.132006 -36.690448 
L 112.304953 -36.683585 
L 112.492952 -36.676722 
L 112.686928 -36.669858 
L 112.876605 -36.662995 
L 113.050871 -36.656132 
L 113.198258 -36.649268 
L 113.307498 -36.642405 
L 113.368121 -36.635542 
L 113.371049 -36.628679 
L 113.30913 -36.621815 
L 113.177576 -36.614952 
L 112.974267 -36.608089 
L 112.69989 -36.601225 
L 112.357913 -36.594362 
L 111.954383 -36.587499 
L 111.49758 -36.580635 
L 110.997548 -36.573772 
L 110.465544 -36.566909 
L 109.913449 -36.560045 
L 109.353174 -36.553182 
L 108.796121 -36.546319 
L 108.252706 -36.539455 
L 107.731994 -36.532592 
L 107.241436 -36.525729 
L 106.786731 -36.518866 
L 106.371797 -36.512002 
z
" style="stroke: #6f6f6f; stroke-width: 0.15"/>
    </defs>
    <g clip-path="url(#pd6375347b2)">
     <use xlink:href="#m7e1a22a484" x="0" y="84.96" style="fill: #f2aba8; stroke: #6f6f6f; stroke-width: 0.15"/>
    </g>
   </g>
   <g id="PolyCollection_5">
    <defs>
     <path id="mbbe6b4934f" d="M 133.274619 -36.180314 
L 128.610224 -36.180314 
L 128.225678 -36.212612 
L 127.812917 -36.244911 
L 127.377283 -36.277209 
L 126.925547 -36.309508 
L 126.465724 -36.341807 
L 126.006795 -36.374105 
L 125.558323 -36.406404 
L 125.129987 -36.438702 
L 124.731066 -36.471001 
L 124.3699 -36.503299 
L 124.053364 -36.535598 
L 123.78641 -36.567896 
L 123.571693 -36.600195 
L 123.40934 -36.632493 
L 123.296866 -36.664792 
L 123.229262 -36.697091 
L 123.199245 -36.729389 
L 123.197667 -36.761688 
L 123.21405 -36.793986 
L 123.237205 -36.826285 
L 123.255911 -36.858583 
L 123.259586 -36.890882 
L 123.238915 -36.92318 
L 123.186398 -36.955479 
L 123.096772 -36.987777 
L 122.967297 -37.020076 
L 122.797883 -37.052375 
L 122.591061 -37.084673 
L 122.351806 -37.116972 
L 122.087232 -37.14927 
L 121.806175 -37.181569 
L 121.518712 -37.213867 
L 121.235623 -37.246166 
L 120.967857 -37.278464 
L 120.726 -37.310763 
L 120.51981 -37.343061 
L 120.357806 -37.37536 
L 120.246952 -37.407659 
L 120.192436 -37.439957 
L 120.197549 -37.472256 
L 120.263661 -37.504554 
L 120.390282 -37.536853 
L 120.575209 -37.569151 
L 120.81471 -37.60145 
L 121.103764 -37.633748 
L 121.436304 -37.666047 
L 121.805471 -37.698345 
L 122.203851 -37.730644 
L 122.623682 -37.762942 
L 123.057046 -37.795241 
L 123.496025 -37.82754 
L 123.932838 -37.859838 
L 124.359958 -37.892137 
L 124.770229 -37.924435 
L 125.156976 -37.956734 
L 125.514124 -37.989032 
L 125.836322 -38.021331 
L 126.119072 -38.053629 
L 126.358858 -38.085928 
L 126.553261 -38.118226 
L 126.701052 -38.150525 
L 126.802253 -38.182824 
L 126.858151 -38.215122 
L 126.871258 -38.247421 
L 126.845225 -38.279719 
L 126.784693 -38.312018 
L 126.695105 -38.344316 
L 126.582488 -38.376615 
L 126.453207 -38.408913 
L 126.313734 -38.441212 
L 126.170417 -38.47351 
L 126.029289 -38.505809 
L 125.895911 -38.538108 
L 125.77527 -38.570406 
L 125.671711 -38.602705 
L 125.588918 -38.635003 
L 125.529928 -38.667302 
L 125.49716 -38.6996 
L 125.492456 -38.731899 
L 125.517122 -38.764197 
L 125.57195 -38.796496 
L 125.657234 -38.828794 
L 125.772758 -38.861093 
L 125.917782 -38.893392 
L 126.091018 -38.92569 
L 126.290607 -38.957989 
L 126.514116 -38.990287 
L 126.758554 -39.022586 
L 127.020419 -39.054884 
L 127.295774 -39.087183 
L 127.580362 -39.119481 
L 127.869737 -39.15178 
L 128.159423 -39.184078 
L 128.44507 -39.216377 
L 128.722616 -39.248675 
L 128.988424 -39.280974 
L 129.239398 -39.313273 
L 129.473068 -39.345571 
L 129.687633 -39.37787 
L 132.197211 -39.37787 
L 132.197211 -39.37787 
L 132.411776 -39.345571 
L 132.645446 -39.313273 
L 132.89642 -39.280974 
L 133.162228 -39.248675 
L 133.439773 -39.216377 
L 133.725421 -39.184078 
L 134.015106 -39.15178 
L 134.304482 -39.119481 
L 134.58907 -39.087183 
L 134.864425 -39.054884 
L 135.126289 -39.022586 
L 135.370728 -38.990287 
L 135.594237 -38.957989 
L 135.793826 -38.92569 
L 135.967062 -38.893392 
L 136.112086 -38.861093 
L 136.22761 -38.828794 
L 136.312893 -38.796496 
L 136.367722 -38.764197 
L 136.392388 -38.731899 
L 136.387684 -38.6996 
L 136.354916 -38.667302 
L 136.295926 -38.635003 
L 136.213133 -38.602705 
L 136.109574 -38.570406 
L 135.988932 -38.538108 
L 135.855555 -38.505809 
L 135.714426 -38.47351 
L 135.571109 -38.441212 
L 135.431637 -38.408913 
L 135.302356 -38.376615 
L 135.189738 -38.344316 
L 135.100151 -38.312018 
L 135.039618 -38.279719 
L 135.013585 -38.247421 
L 135.026693 -38.215122 
L 135.08259 -38.182824 
L 135.183792 -38.150525 
L 135.331583 -38.118226 
L 135.525986 -38.085928 
L 135.765772 -38.053629 
L 136.048522 -38.021331 
L 136.37072 -37.989032 
L 136.727868 -37.956734 
L 137.114615 -37.924435 
L 137.524886 -37.892137 
L 137.952006 -37.859838 
L 138.388818 -37.82754 
L 138.827798 -37.795241 
L 139.261162 -37.762942 
L 139.680993 -37.730644 
L 140.079372 -37.698345 
L 140.44854 -37.666047 
L 140.78108 -37.633748 
L 141.070133 -37.60145 
L 141.309635 -37.569151 
L 141.494561 -37.536853 
L 141.621183 -37.504554 
L 141.687294 -37.472256 
L 141.692407 -37.439957 
L 141.637892 -37.407659 
L 141.527038 -37.37536 
L 141.365034 -37.343061 
L 141.158844 -37.310763 
L 140.916987 -37.278464 
L 140.64922 -37.246166 
L 140.366132 -37.213867 
L 140.078669 -37.181569 
L 139.797612 -37.14927 
L 139.533037 -37.116972 
L 139.293783 -37.084673 
L 139.086961 -37.052375 
L 138.917547 -37.020076 
L 138.788072 -36.987777 
L 138.698446 -36.955479 
L 138.645928 -36.92318 
L 138.625258 -36.890882 
L 138.628932 -36.858583 
L 138.647639 -36.826285 
L 138.670794 -36.793986 
L 138.687176 -36.761688 
L 138.685599 -36.729389 
L 138.655582 -36.697091 
L 138.587978 -36.664792 
L 138.475504 -36.632493 
L 138.313151 -36.600195 
L 138.098434 -36.567896 
L 137.831479 -36.535598 
L 137.514944 -36.503299 
L 137.153778 -36.471001 
L 136.754857 -36.438702 
L 136.326521 -36.406404 
L 135.878049 -36.374105 
L 135.41912 -36.341807 
L 134.959297 -36.309508 
L 134.50756 -36.277209 
L 134.071927 -36.244911 
L 133.659166 -36.212612 
L 133.274619 -36.180314 
z
" style="stroke: #6f6f6f; stroke-width: 0.15"/>
    </defs>
    <g clip-path="url(#pd6375347b2)">
     <use xlink:href="#mbbe6b4934f" x="0" y="84.96" style="fill: #d3c4f6; stroke: #6f6f6f; stroke-width: 0.15"/>
    </g>
   </g>
   <g id="PolyCollection_6">
    <defs>
     <path id="mfa3ee69ba6" d="M 159.025693 -35.657982 
L 156.609078 -35.657982 
L 156.383606 -35.760327 
L 156.138695 -35.862672 
L 155.877549 -35.965017 
L 155.604191 -36.067363 
L 155.323212 -36.169708 
L 155.039432 -36.272053 
L 154.757478 -36.374398 
L 154.481328 -36.476743 
L 154.21385 -36.579089 
L 153.956409 -36.681434 
L 153.708572 -36.783779 
L 153.467979 -36.886124 
L 153.230407 -36.988469 
L 152.990047 -37.090815 
L 152.73999 -37.19316 
L 152.472896 -37.295505 
L 152.181788 -37.39785 
L 151.860909 -37.500195 
L 151.506545 -37.60254 
L 151.117732 -37.704886 
L 150.696756 -37.807231 
L 150.249391 -37.909576 
L 149.784808 -38.011921 
L 149.315155 -38.114266 
L 148.854825 -38.216612 
L 148.419463 -38.318957 
L 148.024789 -38.421302 
L 147.685353 -38.523647 
L 147.413321 -38.625992 
L 147.217428 -38.728338 
L 147.102179 -38.830683 
L 147.0674 -38.933028 
L 147.108168 -39.035373 
L 147.21514 -39.137718 
L 147.375261 -39.240064 
L 147.572763 -39.342409 
L 147.790398 -39.444754 
L 148.010762 -39.547099 
L 148.217616 -39.649444 
L 148.397084 -39.751789 
L 148.538627 -39.854135 
L 148.635733 -39.95648 
L 148.686268 -40.058825 
L 148.692491 -40.16117 
L 148.66074 -40.263515 
L 148.600838 -40.365861 
L 148.525288 -40.468206 
L 148.448321 -40.570551 
L 148.384879 -40.672896 
L 148.349609 -40.775241 
L 148.355936 -40.877587 
L 148.415257 -40.979932 
L 148.536312 -41.082277 
L 148.724743 -41.184622 
L 148.982858 -41.286967 
L 149.309603 -41.389313 
L 149.700714 -41.491658 
L 150.149038 -41.594003 
L 150.644989 -41.696348 
L 151.177102 -41.798693 
L 151.732638 -41.901038 
L 152.298218 -42.003384 
L 152.860421 -42.105729 
L 153.406346 -42.208074 
L 153.924075 -42.310419 
L 154.403056 -42.412764 
L 154.834368 -42.51511 
L 155.210894 -42.617455 
L 155.527403 -42.7198 
L 155.780555 -42.822145 
L 155.968862 -42.92449 
L 156.092613 -43.026836 
L 156.153783 -43.129181 
L 156.155939 -43.231526 
L 156.104143 -43.333871 
L 156.004844 -43.436216 
L 155.865753 -43.538562 
L 155.695684 -43.640907 
L 155.504343 -43.743252 
L 155.302056 -43.845597 
L 155.09944 -43.947942 
L 154.907007 -44.050287 
L 154.734735 -44.152633 
L 154.591617 -44.254978 
L 154.485235 -44.357323 
L 154.421381 -44.459668 
L 154.403779 -44.562013 
L 154.433916 -44.664359 
L 154.51102 -44.766704 
L 154.632178 -44.869049 
L 154.79259 -44.971394 
L 154.985941 -45.073739 
L 155.204847 -45.176085 
L 155.441353 -45.27843 
L 155.687422 -45.380775 
L 155.935388 -45.48312 
L 156.17834 -45.585465 
L 156.41041 -45.687811 
L 156.626952 -45.790156 
L 159.007819 -45.790156 
L 159.007819 -45.790156 
L 159.224362 -45.687811 
L 159.456431 -45.585465 
L 159.699384 -45.48312 
L 159.94735 -45.380775 
L 160.193418 -45.27843 
L 160.429925 -45.176085 
L 160.648831 -45.073739 
L 160.842182 -44.971394 
L 161.002594 -44.869049 
L 161.123752 -44.766704 
L 161.200856 -44.664359 
L 161.230993 -44.562013 
L 161.213391 -44.459668 
L 161.149537 -44.357323 
L 161.043155 -44.254978 
L 160.900037 -44.152633 
L 160.727765 -44.050287 
L 160.535332 -43.947942 
L 160.332716 -43.845597 
L 160.130429 -43.743252 
L 159.939087 -43.640907 
L 159.769019 -43.538562 
L 159.629928 -43.436216 
L 159.530629 -43.333871 
L 159.478833 -43.231526 
L 159.480989 -43.129181 
L 159.542159 -43.026836 
L 159.66591 -42.92449 
L 159.854217 -42.822145 
L 160.107369 -42.7198 
L 160.423877 -42.617455 
L 160.800404 -42.51511 
L 161.231715 -42.412764 
L 161.710696 -42.310419 
L 162.228426 -42.208074 
L 162.774351 -42.105729 
L 163.336554 -42.003384 
L 163.902133 -41.901038 
L 164.45767 -41.798693 
L 164.989782 -41.696348 
L 165.485734 -41.594003 
L 165.934058 -41.491658 
L 166.325168 -41.389313 
L 166.651914 -41.286967 
L 166.910029 -41.184622 
L 167.09846 -41.082277 
L 167.219515 -40.979932 
L 167.278836 -40.877587 
L 167.285163 -40.775241 
L 167.249893 -40.672896 
L 167.186451 -40.570551 
L 167.109484 -40.468206 
L 167.033934 -40.365861 
L 166.974032 -40.263515 
L 166.942281 -40.16117 
L 166.948504 -40.058825 
L 166.999039 -39.95648 
L 167.096144 -39.854135 
L 167.237688 -39.751789 
L 167.417156 -39.649444 
L 167.62401 -39.547099 
L 167.844374 -39.444754 
L 168.062009 -39.342409 
L 168.259511 -39.240064 
L 168.419631 -39.137718 
L 168.526604 -39.035373 
L 168.567372 -38.933028 
L 168.532593 -38.830683 
L 168.417344 -38.728338 
L 168.221451 -38.625992 
L 167.949419 -38.523647 
L 167.609983 -38.421302 
L 167.215309 -38.318957 
L 166.779947 -38.216612 
L 166.319617 -38.114266 
L 165.849964 -38.011921 
L 165.38538 -37.909576 
L 164.938016 -37.807231 
L 164.51704 -37.704886 
L 164.128226 -37.60254 
L 163.773862 -37.500195 
L 163.452984 -37.39785 
L 163.161876 -37.295505 
L 162.894782 -37.19316 
L 162.644725 -37.090815 
L 162.404365 -36.988469 
L 162.166793 -36.886124 
L 161.9262 -36.783779 
L 161.678363 -36.681434 
L 161.420921 -36.579089 
L 161.153444 -36.476743 
L 160.877293 -36.374398 
L 160.59534 -36.272053 
L 160.311559 -36.169708 
L 160.030581 -36.067363 
L 159.757223 -35.965017 
L 159.496077 -35.862672 
L 159.251166 -35.760327 
L 159.025693 -35.657982 
z
" style="stroke: #6f6f6f; stroke-width: 0.15"/>
    </defs>
    <g clip-path="url(#pd6375347b2)">
     <use xlink:href="#mfa3ee69ba6" x="0" y="84.96" style="fill: #d6bba3; stroke: #6f6f6f; stroke-width: 0.15"/>
    </g>
   </g>
   <g id="PolyCollection_7">
    <defs>
     <path id="maa4e49ee93" d="M 186.290071 -34.706233 
L 183.094629 -34.706233 
L 182.782532 -34.915025 
L 182.432406 -35.123816 
L 182.044373 -35.332607 
L 181.619508 -35.541399 
L 181.159901 -35.75019 
L 180.668689 -35.958981 
L 180.150057 -36.167773 
L 179.609203 -36.376564 
L 179.052275 -36.585355 
L 178.486276 -36.794146 
L 177.918944 -37.002938 
L 177.358598 -37.211729 
L 176.813962 -37.42052 
L 176.293952 -37.629312 
L 175.807436 -37.838103 
L 175.362961 -38.046894 
L 174.96846 -38.255686 
L 174.630945 -38.464477 
L 174.356201 -38.673268 
L 174.148499 -38.88206 
L 174.010357 -39.090851 
L 173.942364 -39.299642 
L 173.943095 -39.508433 
L 174.009117 -39.717225 
L 174.135116 -39.926016 
L 174.31411 -40.134807 
L 174.537759 -40.343599 
L 174.796728 -40.55239 
L 175.081078 -40.761181 
L 175.380659 -40.969973 
L 175.685458 -41.178764 
L 175.985888 -41.387555 
L 176.273001 -41.596346 
L 176.538623 -41.805138 
L 176.77542 -42.013929 
L 176.976922 -42.22272 
L 177.137524 -42.431512 
L 177.252493 -42.640303 
L 177.318019 -42.849094 
L 177.331306 -43.057886 
L 177.290723 -43.266677 
L 177.196003 -43.475468 
L 177.048453 -43.684259 
L 176.851166 -43.893051 
L 176.609181 -44.101842 
L 176.329555 -44.310633 
L 176.021323 -44.519425 
L 175.695318 -44.728216 
L 175.363851 -44.937007 
L 175.040253 -45.145799 
L 174.738314 -45.35459 
L 174.471652 -45.563381 
L 174.253053 -45.772173 
L 174.093842 -45.980964 
L 174.003316 -46.189755 
L 173.988301 -46.398546 
L 174.052828 -46.607338 
L 174.197974 -46.816129 
L 174.421856 -47.02492 
L 174.719762 -47.233712 
L 175.084419 -47.442503 
L 175.506348 -47.651294 
L 175.974311 -47.860086 
L 176.475786 -48.068877 
L 176.997481 -48.277668 
L 177.525844 -48.486459 
L 178.047553 -48.695251 
L 178.549994 -48.904042 
L 179.021689 -49.112833 
L 179.452687 -49.321625 
L 179.834894 -49.530416 
L 180.16234 -49.739207 
L 180.431378 -49.947999 
L 180.640791 -50.15679 
L 180.79181 -50.365581 
L 180.888029 -50.574372 
L 180.935222 -50.783164 
L 180.941046 -50.991955 
L 180.914665 -51.200746 
L 180.866291 -51.409538 
L 180.806662 -51.618329 
L 180.746501 -51.82712 
L 180.69598 -52.035912 
L 180.66421 -52.244703 
L 180.658811 -52.453494 
L 180.685577 -52.662286 
L 180.748251 -52.871077 
L 180.848439 -53.079868 
L 180.985655 -53.288659 
L 181.157483 -53.497451 
L 181.359855 -53.706242 
L 181.587405 -53.915033 
L 181.83387 -54.123825 
L 182.092521 -54.332616 
L 182.356572 -54.541407 
L 182.619551 -54.750199 
L 182.875607 -54.95899 
L 183.119748 -55.167781 
L 183.347984 -55.376572 
L 186.036716 -55.376572 
L 186.036716 -55.376572 
L 186.264952 -55.167781 
L 186.509093 -54.95899 
L 186.765149 -54.750199 
L 187.028127 -54.541407 
L 187.292179 -54.332616 
L 187.55083 -54.123825 
L 187.797295 -53.915033 
L 188.024845 -53.706242 
L 188.227217 -53.497451 
L 188.399045 -53.288659 
L 188.536261 -53.079868 
L 188.636449 -52.871077 
L 188.699123 -52.662286 
L 188.725888 -52.453494 
L 188.72049 -52.244703 
L 188.68872 -52.035912 
L 188.638199 -51.82712 
L 188.578038 -51.618329 
L 188.518409 -51.409538 
L 188.470034 -51.200746 
L 188.443654 -50.991955 
L 188.449478 -50.783164 
L 188.49667 -50.574372 
L 188.59289 -50.365581 
L 188.743909 -50.15679 
L 188.953322 -49.947999 
L 189.22236 -49.739207 
L 189.549806 -49.530416 
L 189.932012 -49.321625 
L 190.363011 -49.112833 
L 190.834706 -48.904042 
L 191.337147 -48.695251 
L 191.858856 -48.486459 
L 192.387218 -48.277668 
L 192.908914 -48.068877 
L 193.410389 -47.860086 
L 193.878352 -47.651294 
L 194.300281 -47.442503 
L 194.664937 -47.233712 
L 194.962844 -47.02492 
L 195.186726 -46.816129 
L 195.331872 -46.607338 
L 195.396399 -46.398546 
L 195.381384 -46.189755 
L 195.290858 -45.980964 
L 195.131647 -45.772173 
L 194.913048 -45.563381 
L 194.646386 -45.35459 
L 194.344447 -45.145799 
L 194.020849 -44.937007 
L 193.689382 -44.728216 
L 193.363377 -44.519425 
L 193.055145 -44.310633 
L 192.775519 -44.101842 
L 192.533534 -43.893051 
L 192.336247 -43.684259 
L 192.188697 -43.475468 
L 192.093977 -43.266677 
L 192.053394 -43.057886 
L 192.066681 -42.849094 
L 192.132207 -42.640303 
L 192.247176 -42.431512 
L 192.407777 -42.22272 
L 192.60928 -42.013929 
L 192.846077 -41.805138 
L 193.111699 -41.596346 
L 193.398811 -41.387555 
L 193.699242 -41.178764 
L 194.004041 -40.969973 
L 194.303622 -40.761181 
L 194.587972 -40.55239 
L 194.84694 -40.343599 
L 195.07059 -40.134807 
L 195.249584 -39.926016 
L 195.375583 -39.717225 
L 195.441605 -39.508433 
L 195.442336 -39.299642 
L 195.374343 -39.090851 
L 195.236201 -38.88206 
L 195.028499 -38.673268 
L 194.753755 -38.464477 
L 194.41624 -38.255686 
L 194.021739 -38.046894 
L 193.577264 -37.838103 
L 193.090747 -37.629312 
L 192.570738 -37.42052 
L 192.026102 -37.211729 
L 191.465756 -37.002938 
L 190.898424 -36.794146 
L 190.332425 -36.585355 
L 189.775497 -36.376564 
L 189.234643 -36.167773 
L 188.716011 -35.958981 
L 188.224799 -35.75019 
L 187.765191 -35.541399 
L 187.340326 -35.332607 
L 186.952294 -35.123816 
L 186.602168 -34.915025 
L 186.290071 -34.706233 
z
" style="stroke: #6f6f6f; stroke-width: 0.15"/>
    </defs>
    <g clip-path="url(#pd6375347b2)">
     <use xlink:href="#maa4e49ee93" x="0" y="84.96" style="fill: #f1b9e0; stroke: #6f6f6f; stroke-width: 0.15"/>
    </g>
   </g>
   <g id="PolyCollection_8">
    <defs>
     <path id="m96ee6823e2" d="M 212.933315 -36.474731 
L 210.201312 -36.474731 
L 209.946982 -36.487664 
L 209.665539 -36.500597 
L 209.358483 -36.51353 
L 209.028305 -36.526462 
L 208.678508 -36.539395 
L 208.313557 -36.552328 
L 207.938792 -36.565261 
L 207.560262 -36.578193 
L 207.184524 -36.591126 
L 206.818385 -36.604059 
L 206.468631 -36.616992 
L 206.141728 -36.629925 
L 205.84355 -36.642857 
L 205.579126 -36.65579 
L 205.352432 -36.668723 
L 205.166261 -36.681656 
L 205.022148 -36.694588 
L 204.920387 -36.707521 
L 204.860117 -36.720454 
L 204.839471 -36.733387 
L 204.855784 -36.74632 
L 204.905818 -36.759252 
L 204.986004 -36.772185 
L 205.092662 -36.785118 
L 205.22218 -36.798051 
L 205.371139 -36.810983 
L 205.536365 -36.823916 
L 205.714917 -36.836849 
L 205.903993 -36.849782 
L 206.100794 -36.862715 
L 206.302337 -36.875647 
L 206.505269 -36.88858 
L 206.705678 -36.901513 
L 206.898956 -36.914446 
L 207.07972 -36.927378 
L 207.24181 -36.940311 
L 207.378392 -36.953244 
L 207.482153 -36.966177 
L 207.545585 -36.97911 
L 207.56136 -36.992042 
L 207.522757 -37.004975 
L 207.424124 -37.017908 
L 207.261335 -37.030841 
L 207.032221 -37.043773 
L 206.736921 -37.056706 
L 206.378144 -37.069639 
L 205.961291 -37.082572 
L 205.494433 -37.095505 
L 204.98814 -37.108437 
L 204.455137 -37.12137 
L 203.909833 -37.134303 
L 203.367718 -37.147236 
L 202.844681 -37.160168 
L 202.356286 -37.173101 
L 201.917044 -37.186034 
L 201.539747 -37.198967 
L 201.23489 -37.2119 
L 201.010232 -37.224832 
L 200.870509 -37.237765 
L 200.817328 -37.250698 
L 200.84923 -37.263631 
L 200.96191 -37.276563 
L 201.148584 -37.289496 
L 201.400442 -37.302429 
L 201.707179 -37.315362 
L 202.057553 -37.328295 
L 202.439927 -37.341227 
L 202.84278 -37.35416 
L 203.255165 -37.367093 
L 203.667081 -37.380026 
L 204.069776 -37.392958 
L 204.455965 -37.405891 
L 204.819974 -37.418824 
L 205.157808 -37.431757 
L 205.467156 -37.44469 
L 205.747337 -37.457622 
L 205.999184 -37.470555 
L 206.224888 -37.483488 
L 206.427779 -37.496421 
L 206.61208 -37.509353 
L 206.782619 -37.522286 
L 206.944523 -37.535219 
L 207.102903 -37.548152 
L 207.262546 -37.561085 
L 207.427639 -37.574017 
L 207.601535 -37.58695 
L 207.786578 -37.599883 
L 207.984002 -37.612816 
L 208.193903 -37.625748 
L 208.415295 -37.638681 
L 208.646225 -37.651614 
L 208.883957 -37.664547 
L 209.125187 -37.67748 
L 209.366287 -37.690412 
L 209.603547 -37.703345 
L 209.833399 -37.716278 
L 210.052617 -37.729211 
L 210.258466 -37.742143 
L 210.448804 -37.755076 
L 212.685824 -37.755076 
L 212.685824 -37.755076 
L 212.876162 -37.742143 
L 213.082011 -37.729211 
L 213.301229 -37.716278 
L 213.531081 -37.703345 
L 213.768341 -37.690412 
L 214.009441 -37.67748 
L 214.250671 -37.664547 
L 214.488403 -37.651614 
L 214.719333 -37.638681 
L 214.940725 -37.625748 
L 215.150626 -37.612816 
L 215.34805 -37.599883 
L 215.533093 -37.58695 
L 215.706989 -37.574017 
L 215.872082 -37.561085 
L 216.031725 -37.548152 
L 216.190105 -37.535219 
L 216.352009 -37.522286 
L 216.522548 -37.509353 
L 216.706849 -37.496421 
L 216.90974 -37.483488 
L 217.135444 -37.470555 
L 217.387291 -37.457622 
L 217.667472 -37.44469 
L 217.97682 -37.431757 
L 218.314654 -37.418824 
L 218.678663 -37.405891 
L 219.064852 -37.392958 
L 219.467547 -37.380026 
L 219.879463 -37.367093 
L 220.291848 -37.35416 
L 220.694701 -37.341227 
L 221.077074 -37.328295 
L 221.427448 -37.315362 
L 221.734186 -37.302429 
L 221.986044 -37.289496 
L 222.172717 -37.276563 
L 222.285398 -37.263631 
L 222.3173 -37.250698 
L 222.264119 -37.237765 
L 222.124396 -37.224832 
L 221.899738 -37.2119 
L 221.594881 -37.198967 
L 221.217584 -37.186034 
L 220.778342 -37.173101 
L 220.289946 -37.160168 
L 219.76691 -37.147236 
L 219.224795 -37.134303 
L 218.679491 -37.12137 
L 218.146488 -37.108437 
L 217.640195 -37.095505 
L 217.173337 -37.082572 
L 216.756484 -37.069639 
L 216.397707 -37.056706 
L 216.102407 -37.043773 
L 215.873293 -37.030841 
L 215.710504 -37.017908 
L 215.611871 -37.004975 
L 215.573268 -36.992042 
L 215.589043 -36.97911 
L 215.652475 -36.966177 
L 215.756236 -36.953244 
L 215.892818 -36.940311 
L 216.054908 -36.927378 
L 216.235672 -36.914446 
L 216.42895 -36.901513 
L 216.629359 -36.88858 
L 216.832291 -36.875647 
L 217.033834 -36.862715 
L 217.230635 -36.849782 
L 217.419711 -36.836849 
L 217.598262 -36.823916 
L 217.763489 -36.810983 
L 217.912448 -36.798051 
L 218.041966 -36.785118 
L 218.148624 -36.772185 
L 218.22881 -36.759252 
L 218.278844 -36.74632 
L 218.295157 -36.733387 
L 218.274511 -36.720454 
L 218.214241 -36.707521 
L 218.11248 -36.694588 
L 217.968367 -36.681656 
L 217.782196 -36.668723 
L 217.555502 -36.65579 
L 217.291077 -36.642857 
L 216.9929 -36.629925 
L 216.665997 -36.616992 
L 216.316243 -36.604059 
L 215.950104 -36.591126 
L 215.574366 -36.578193 
L 215.195836 -36.565261 
L 214.821071 -36.552328 
L 214.45612 -36.539395 
L 214.106323 -36.526462 
L 213.776145 -36.51353 
L 213.469089 -36.500597 
L 213.187646 -36.487664 
L 212.933315 -36.474731 
z
" style="stroke: #6f6f6f; stroke-width: 0.15"/>
    </defs>
    <g clip-path="url(#pd6375347b2)">
     <use xlink:href="#m96ee6823e2" x="0" y="84.96" style="fill: #cfcfcf; stroke: #6f6f6f; stroke-width: 0.15"/>
    </g>
   </g>
   <g id="PolyCollection_9">
    <defs>
     <path id="m9482fd7f95" d="M 240.271756 -48.077354 
L 236.6128 -48.077354 
L 236.309385 -48.320951 
L 235.97643 -48.564548 
L 235.615052 -48.808146 
L 235.227142 -49.051743 
L 234.815377 -49.29534 
L 234.383188 -49.538937 
L 233.934689 -49.782534 
L 233.474573 -50.026131 
L 233.007979 -50.269729 
L 232.540325 -50.513326 
L 232.077134 -50.756923 
L 231.623849 -51.00052 
L 231.185664 -51.244117 
L 230.767369 -51.487714 
L 230.373227 -51.731312 
L 230.006893 -51.974909 
L 229.671375 -52.218506 
L 229.369043 -52.462103 
L 229.101681 -52.7057 
L 228.870571 -52.949298 
L 228.676609 -53.192895 
L 228.520426 -53.436492 
L 228.402508 -53.680089 
L 228.323303 -53.923686 
L 228.283292 -54.167283 
L 228.28302 -54.410881 
L 228.323091 -54.654478 
L 228.404103 -54.898075 
L 228.526549 -55.141672 
L 228.690684 -55.385269 
L 228.896366 -55.628867 
L 229.142893 -55.872464 
L 229.428846 -56.116061 
L 229.751961 -56.359658 
L 230.109034 -56.603255 
L 230.495875 -56.846852 
L 230.907313 -57.09045 
L 231.337265 -57.334047 
L 231.778845 -57.577644 
L 232.224531 -57.821241 
L 232.666357 -58.064838 
L 233.096141 -58.308436 
L 233.505716 -58.552033 
L 233.887161 -58.79563 
L 234.233025 -59.039227 
L 234.536526 -59.282824 
L 234.79172 -59.526421 
L 234.993644 -59.770019 
L 235.138416 -60.013616 
L 235.223307 -60.257213 
L 235.246781 -60.50081 
L 235.208496 -60.744407 
L 235.109284 -60.988005 
L 234.951109 -61.231602 
L 234.736992 -61.475199 
L 234.47093 -61.718796 
L 234.157782 -61.962393 
L 233.803155 -62.20599 
L 233.413268 -62.449588 
L 232.994808 -62.693185 
L 232.55478 -62.936782 
L 232.100361 -63.180379 
L 231.638748 -63.423976 
L 231.177029 -63.667573 
L 230.722054 -63.911171 
L 230.280338 -64.154768 
L 229.857979 -64.398365 
L 229.460604 -64.641962 
L 229.093338 -64.885559 
L 228.760797 -65.129157 
L 228.467094 -65.372754 
L 228.215859 -65.616351 
L 228.01026 -65.859948 
L 227.853029 -66.103545 
L 227.746461 -66.347142 
L 227.692416 -66.59074 
L 227.692292 -66.834337 
L 227.746979 -67.077934 
L 227.856802 -67.321531 
L 228.021449 -67.565128 
L 228.239901 -67.808726 
L 228.510364 -68.052323 
L 228.830219 -68.29592 
L 229.195998 -68.539517 
L 229.603391 -68.783114 
L 230.047296 -69.026711 
L 230.5219 -69.270309 
L 231.020813 -69.513906 
L 231.537218 -69.757503 
L 232.064067 -70.0011 
L 232.594275 -70.244697 
L 233.120933 -70.488295 
L 233.637506 -70.731892 
L 234.138014 -70.975489 
L 234.617191 -71.219086 
L 235.070596 -71.462683 
L 235.494699 -71.70628 
L 235.886913 -71.949878 
L 236.245591 -72.193475 
L 240.638965 -72.193475 
L 240.638965 -72.193475 
L 240.997643 -71.949878 
L 241.389857 -71.70628 
L 241.81396 -71.462683 
L 242.267365 -71.219086 
L 242.746542 -70.975489 
L 243.24705 -70.731892 
L 243.763623 -70.488295 
L 244.290281 -70.244697 
L 244.820489 -70.0011 
L 245.347338 -69.757503 
L 245.863743 -69.513906 
L 246.362656 -69.270309 
L 246.83726 -69.026711 
L 247.281165 -68.783114 
L 247.688558 -68.539517 
L 248.054337 -68.29592 
L 248.374192 -68.052323 
L 248.644655 -67.808726 
L 248.863107 -67.565128 
L 249.027754 -67.321531 
L 249.137577 -67.077934 
L 249.192264 -66.834337 
L 249.19214 -66.59074 
L 249.138095 -66.347142 
L 249.031527 -66.103545 
L 248.874295 -65.859948 
L 248.668697 -65.616351 
L 248.417462 -65.372754 
L 248.123758 -65.129157 
L 247.791218 -64.885559 
L 247.423952 -64.641962 
L 247.026577 -64.398365 
L 246.604218 -64.154768 
L 246.162502 -63.911171 
L 245.707527 -63.667573 
L 245.245808 -63.423976 
L 244.784195 -63.180379 
L 244.329776 -62.936782 
L 243.889748 -62.693185 
L 243.471288 -62.449588 
L 243.081401 -62.20599 
L 242.726774 -61.962393 
L 242.413626 -61.718796 
L 242.147563 -61.475199 
L 241.933447 -61.231602 
L 241.775272 -60.988005 
L 241.67606 -60.744407 
L 241.637775 -60.50081 
L 241.661249 -60.257213 
L 241.74614 -60.013616 
L 241.890912 -59.770019 
L 242.092836 -59.526421 
L 242.34803 -59.282824 
L 242.651531 -59.039227 
L 242.997395 -58.79563 
L 243.37884 -58.552033 
L 243.788415 -58.308436 
L 244.218199 -58.064838 
L 244.660025 -57.821241 
L 245.10571 -57.577644 
L 245.547291 -57.334047 
L 245.977243 -57.09045 
L 246.388681 -56.846852 
L 246.775522 -56.603255 
L 247.132595 -56.359658 
L 247.45571 -56.116061 
L 247.741663 -55.872464 
L 247.98819 -55.628867 
L 248.193872 -55.385269 
L 248.358007 -55.141672 
L 248.480453 -54.898075 
L 248.561465 -54.654478 
L 248.601536 -54.410881 
L 248.601264 -54.167283 
L 248.561253 -53.923686 
L 248.482048 -53.680089 
L 248.36413 -53.436492 
L 248.207947 -53.192895 
L 248.013985 -52.949298 
L 247.782875 -52.7057 
L 247.515513 -52.462103 
L 247.213181 -52.218506 
L 246.877663 -51.974909 
L 246.511329 -51.731312 
L 246.117187 -51.487714 
L 245.698892 -51.244117 
L 245.260707 -51.00052 
L 244.807422 -50.756923 
L 244.34423 -50.513326 
L 243.876577 -50.269729 
L 243.409983 -50.026131 
L 242.949867 -49.782534 
L 242.501368 -49.538937 
L 242.069179 -49.29534 
L 241.657414 -49.051743 
L 241.269504 -48.808146 
L 240.908126 -48.564548 
L 240.575171 -48.320951 
L 240.271756 -48.077354 
z
" style="stroke: #6f6f6f; stroke-width: 0.15"/>
    </defs>
    <g clip-path="url(#pd6375347b2)">
     <use xlink:href="#m9482fd7f95" x="0" y="84.96" style="fill: #f3f3ae; stroke: #6f6f6f; stroke-width: 0.15"/>
    </g>
   </g>
   <g id="line2d_8">
    <path d="M 23.442566 44.75649 
L 23.442566 19.018364 
" clip-path="url(#pd6375347b2)" style="fill: none; stroke: #8c8c8c; stroke-width: 0.75; stroke-linecap: round"/>
   </g>
   <g id="line2d_9">
    <path d="M 23.442566 37.882044 
L 23.442566 26.241278 
" clip-path="url(#pd6375347b2)" style="fill: none; stroke: #8c8c8c; stroke-width: 4; stroke-linecap: round"/>
   </g>
   <g id="line2d_10">
    <path d="M 23.442566 30.65224 
" clip-path="url(#pd6375347b2)" style="fill: none; stroke: #6f6f6f; stroke-width: 1.2; stroke-linecap: round"/>
    <defs>
     <path id="me46a9ce82a" d="M 0 0.833333 
C 0.221003 0.833333 0.432983 0.745528 0.589256 0.589256 
C 0.745528 0.432983 0.833333 0.221003 0.833333 0 
C 0.833333 -0.221003 0.745528 -0.432983 0.589256 -0.589256 
C 0.432983 -0.745528 0.221003 -0.833333 0 -0.833333 
C -0.221003 -0.833333 -0.432983 -0.745528 -0.589256 -0.589256 
C -0.745528 -0.432983 -0.833333 -0.221003 -0.833333 0 
C -0.833333 0.221003 -0.745528 0.432983 -0.589256 0.589256 
C -0.432983 0.745528 -0.221003 0.833333 0 0.833333 
z
" style="stroke: #ffffff; stroke-width: 0.8"/>
    </defs>
    <g clip-path="url(#pd6375347b2)">
     <use xlink:href="#me46a9ce82a" x="23.442566" y="30.65224" style="fill: #ffffff; stroke: #ffffff; stroke-width: 0.8"/>
    </g>
   </g>
   <g id="line2d_11">
    <path d="M 50.31753 47.696389 
L 50.31753 33.81627 
" clip-path="url(#pd6375347b2)" style="fill: none; stroke: #8c8c8c; stroke-width: 0.75; stroke-linecap: round"/>
   </g>
   <g id="line2d_12">
    <path d="M 50.31753 45.378784 
L 50.31753 37.463989 
" clip-path="url(#pd6375347b2)" style="fill: none; stroke: #8c8c8c; stroke-width: 4; stroke-linecap: round"/>
   </g>
   <g id="line2d_13">
    <path d="M 50.31753 41.515494 
" clip-path="url(#pd6375347b2)" style="fill: none; stroke: #6f6f6f; stroke-width: 1.2; stroke-linecap: round"/>
    <g clip-path="url(#pd6375347b2)">
     <use xlink:href="#me46a9ce82a" x="50.31753" y="41.515494" style="fill: #ffffff; stroke: #ffffff; stroke-width: 0.8"/>
    </g>
   </g>
   <g id="line2d_14">
    <path d="M 77.192494 48.078129 
L 77.192494 36.709748 
" clip-path="url(#pd6375347b2)" style="fill: none; stroke: #8c8c8c; stroke-width: 0.75; stroke-linecap: round"/>
   </g>
   <g id="line2d_15">
    <path d="M 77.192494 45.941485 
L 77.192494 41.02606 
" clip-path="url(#pd6375347b2)" style="fill: none; stroke: #8c8c8c; stroke-width: 4; stroke-linecap: round"/>
   </g>
   <g id="line2d_16">
    <path d="M 77.192494 44.856545 
" clip-path="url(#pd6375347b2)" style="fill: none; stroke: #6f6f6f; stroke-width: 1.2; stroke-linecap: round"/>
    <g clip-path="url(#pd6375347b2)">
     <use xlink:href="#me46a9ce82a" x="77.192494" y="44.856545" style="fill: #ffffff; stroke: #ffffff; stroke-width: 0.8"/>
    </g>
   </g>
   <g id="line2d_17">
    <path d="M 104.067458 48.355357 
L 104.067458 47.861171 
" clip-path="url(#pd6375347b2)" style="fill: none; stroke: #8c8c8c; stroke-width: 0.75; stroke-linecap: round"/>
   </g>
   <g id="line2d_18">
    <path d="M 104.067458 48.246163 
L 104.067458 47.979916 
" clip-path="url(#pd6375347b2)" style="fill: none; stroke: #8c8c8c; stroke-width: 4; stroke-linecap: round"/>
   </g>
   <g id="line2d_19">
    <path d="M 104.067458 48.109623 
" clip-path="url(#pd6375347b2)" style="fill: none; stroke: #6f6f6f; stroke-width: 1.2; stroke-linecap: round"/>
    <g clip-path="url(#pd6375347b2)">
     <use xlink:href="#me46a9ce82a" x="104.067458" y="48.109623" style="fill: #ffffff; stroke: #ffffff; stroke-width: 0.8"/>
    </g>
   </g>
   <g id="line2d_20">
    <path d="M 130.942422 48.342563 
L 130.942422 46.019254 
" clip-path="url(#pd6375347b2)" style="fill: none; stroke: #8c8c8c; stroke-width: 0.75; stroke-linecap: round"/>
   </g>
   <g id="line2d_21">
    <path d="M 130.942422 47.907862 
L 130.942422 46.944205 
" clip-path="url(#pd6375347b2)" style="fill: none; stroke: #8c8c8c; stroke-width: 4; stroke-linecap: round"/>
   </g>
   <g id="line2d_22">
    <path d="M 130.942422 47.483599 
" clip-path="url(#pd6375347b2)" style="fill: none; stroke: #6f6f6f; stroke-width: 1.2; stroke-linecap: round"/>
    <g clip-path="url(#pd6375347b2)">
     <use xlink:href="#me46a9ce82a" x="130.942422" y="47.483599" style="fill: #ffffff; stroke: #ffffff; stroke-width: 0.8"/>
    </g>
   </g>
   <g id="line2d_23">
    <path d="M 157.817386 48.067807 
L 157.817386 40.404055 
" clip-path="url(#pd6375347b2)" style="fill: none; stroke: #8c8c8c; stroke-width: 0.75; stroke-linecap: round"/>
   </g>
   <g id="line2d_24">
    <path d="M 157.817386 46.198477 
L 157.817386 43.780122 
" clip-path="url(#pd6375347b2)" style="fill: none; stroke: #8c8c8c; stroke-width: 4; stroke-linecap: round"/>
   </g>
   <g id="line2d_25">
    <path d="M 157.817386 45.183555 
" clip-path="url(#pd6375347b2)" style="fill: none; stroke: #6f6f6f; stroke-width: 1.2; stroke-linecap: round"/>
    <g clip-path="url(#pd6375347b2)">
     <use xlink:href="#me46a9ce82a" x="157.817386" y="45.183555" style="fill: #ffffff; stroke: #ffffff; stroke-width: 0.8"/>
    </g>
   </g>
   <g id="line2d_26">
    <path d="M 184.69235 47.557106 
L 184.69235 32.280088 
" clip-path="url(#pd6375347b2)" style="fill: none; stroke: #8c8c8c; stroke-width: 0.75; stroke-linecap: round"/>
   </g>
   <g id="line2d_27">
    <path d="M 184.69235 45.34013 
L 184.69235 38.403064 
" clip-path="url(#pd6375347b2)" style="fill: none; stroke: #8c8c8c; stroke-width: 4; stroke-linecap: round"/>
   </g>
   <g id="line2d_28">
    <path d="M 184.69235 40.741816 
" clip-path="url(#pd6375347b2)" style="fill: none; stroke: #6f6f6f; stroke-width: 1.2; stroke-linecap: round"/>
    <g clip-path="url(#pd6375347b2)">
     <use xlink:href="#me46a9ce82a" x="184.69235" y="40.741816" style="fill: #ffffff; stroke: #ffffff; stroke-width: 0.8"/>
    </g>
   </g>
   <g id="line2d_29">
    <path d="M 211.567314 48.313952 
L 211.567314 47.376241 
" clip-path="url(#pd6375347b2)" style="fill: none; stroke: #8c8c8c; stroke-width: 0.75; stroke-linecap: round"/>
   </g>
   <g id="line2d_30">
    <path d="M 211.567314 48.103666 
L 211.567314 47.67052 
" clip-path="url(#pd6375347b2)" style="fill: none; stroke: #8c8c8c; stroke-width: 4; stroke-linecap: round"/>
   </g>
   <g id="line2d_31">
    <path d="M 211.567314 47.749745 
" clip-path="url(#pd6375347b2)" style="fill: none; stroke: #6f6f6f; stroke-width: 1.2; stroke-linecap: round"/>
    <g clip-path="url(#pd6375347b2)">
     <use xlink:href="#me46a9ce82a" x="211.567314" y="47.749745" style="fill: #ffffff; stroke: #ffffff; stroke-width: 0.8"/>
    </g>
   </g>
   <g id="line2d_32">
    <path d="M 238.442278 33.236809 
L 238.442278 16.412362 
" clip-path="url(#pd6375347b2)" style="fill: none; stroke: #8c8c8c; stroke-width: 0.75; stroke-linecap: round"/>
   </g>
   <g id="line2d_33">
    <path d="M 238.442278 29.823872 
L 238.442278 18.772885 
" clip-path="url(#pd6375347b2)" style="fill: none; stroke: #8c8c8c; stroke-width: 4; stroke-linecap: round"/>
   </g>
   <g id="line2d_34">
    <path d="M 238.442278 24.718492 
" clip-path="url(#pd6375347b2)" style="fill: none; stroke: #6f6f6f; stroke-width: 1.2; stroke-linecap: round"/>
    <g clip-path="url(#pd6375347b2)">
     <use xlink:href="#me46a9ce82a" x="238.442278" y="24.718492" style="fill: #ffffff; stroke: #ffffff; stroke-width: 0.8"/>
    </g>
   </g>
   <g id="patch_3">
    <path d="M 10.005084 54.222338 
L 10.005084 4.076256 
" style="fill: none; stroke: #777777; stroke-width: 0.5; stroke-linejoin: miter; stroke-linecap: square"/>
   </g>
   <g id="patch_4">
    <path d="M 10.005084 56.722338 
L 251.87976 56.722338 
" style="fill: none; stroke: #777777; stroke-width: 0.5; stroke-linejoin: miter; stroke-linecap: square"/>
   </g>
  </g>
 </g>
 <defs>
  <clipPath id="pd6375347b2">
   <rect x="10.005084" y="4.076256" width="241.874676" height="50.146082"/>
  </clipPath>
 </defs>
</svg>
