<?xml version="1.0" encoding="utf-8" standalone="no"?>
<!DOCTYPE svg PUBLIC "-//W3C//DTD SVG 1.1//EN"
  "http://www.w3.org/Graphics/SVG/1.1/DTD/svg11.dtd">
<svg xmlns:xlink="http://www.w3.org/1999/xlink" width="113.04pt" height="84.96pt" viewBox="0 0 113.04 84.96" xmlns="http://www.w3.org/2000/svg" version="1.1">
 <metadata>
  <rdf:RDF xmlns:dc="http://purl.org/dc/elements/1.1/" xmlns:cc="http://creativecommons.org/ns#" xmlns:rdf="http://www.w3.org/1999/02/22-rdf-syntax-ns#">
   <cc:Work>
    <dc:type rdf:resource="http://purl.org/dc/dcmitype/StillImage"/>
    <dc:date>2024-05-27T15:37:19.592235</dc:date>
    <dc:format>image/svg+xml</dc:format>
    <dc:creator>
     <cc:Agent>
      <dc:title>Matplotlib v3.8.3, https://matplotlib.org/</dc:title>
     </cc:Agent>
    </dc:creator>
   </cc:Work>
  </rdf:RDF>
 </metadata>
 <defs>
  <style type="text/css">*{stroke-linejoin: round; stroke-linecap: butt}</style>
 </defs>
 <g id="figure_1">
  <g id="patch_1">
   <path d="M 0 84.96 
L 113.04 84.96 
L 113.04 0 
L 0 0 
z
" style="fill: #ffffff"/>
  </g>
  <g id="axes_1">
   <g id="patch_2">
    <path d="M 11.673365 74.393822 
L 110.03976 74.393822 
L 110.03976 4.076256 
L 11.673365 4.076256 
z
" style="fill: #ffffff"/>
   </g>
   <g id="matplotlib.axis_1">
    <g id="xtick_1">
     <g id="text_1">
      <!-- ILC2 -->
      <g style="fill: #333333" transform="translate(20.272836 81.204526) scale(0.035 -0.035)">
       <defs>
        <path id="Helvetica-49" d="M 628 4591 
L 1256 4591 
L 1256 0 
L 628 0 
L 628 4591 
z
" transform="scale(0.015625)"/>
        <path id="Helvetica-4c" d="M 488 4591 
L 1109 4591 
L 1109 547 
L 3434 547 
L 3434 0 
L 488 0 
L 488 4591 
z
" transform="scale(0.015625)"/>
        <path id="Helvetica-43" d="M 2422 4716 
Q 3294 4716 3775 4256 
Q 4256 3797 4309 3213 
L 3703 3213 
Q 3600 3656 3292 3915 
Q 2984 4175 2428 4175 
Q 1750 4175 1333 3698 
Q 916 3222 916 2238 
Q 916 1431 1292 929 
Q 1669 428 2416 428 
Q 3103 428 3463 956 
Q 3653 1234 3747 1688 
L 4353 1688 
Q 4272 963 3816 472 
Q 3269 -119 2341 -119 
Q 1541 -119 997 366 
Q 281 1006 281 2344 
Q 281 3359 819 4009 
Q 1400 4716 2422 4716 
z
M 2297 4716 
L 2297 4716 
z
" transform="scale(0.015625)"/>
        <path id="Helvetica-32" d="M 200 0 
Q 231 578 439 1006 
Q 647 1434 1250 1784 
L 1850 2131 
Q 2253 2366 2416 2531 
Q 2672 2791 2672 3125 
Q 2672 3516 2437 3745 
Q 2203 3975 1813 3975 
Q 1234 3975 1013 3538 
Q 894 3303 881 2888 
L 309 2888 
Q 319 3472 525 3841 
Q 891 4491 1816 4491 
Q 2584 4491 2939 4075 
Q 3294 3659 3294 3150 
Q 3294 2613 2916 2231 
Q 2697 2009 2131 1694 
L 1703 1456 
Q 1397 1288 1222 1134 
Q 909 863 828 531 
L 3272 531 
L 3272 0 
L 200 0 
z
" transform="scale(0.015625)"/>
       </defs>
       <use xlink:href="#Helvetica-49"/>
       <use xlink:href="#Helvetica-4c" x="27.783203"/>
       <use xlink:href="#Helvetica-43" x="83.398438"/>
       <use xlink:href="#Helvetica-32" x="155.615234"/>
      </g>
     </g>
    </g>
    <g id="xtick_2">
     <g id="text_2">
      <!-- TH2 (TdT–) -->
      <g style="fill: #333333" transform="translate(39.519279 81.230229) scale(0.035 -0.035)">
       <defs>
        <path id="Helvetica-54" d="M 3828 4591 
L 3828 4044 
L 2281 4044 
L 2281 0 
L 1650 0 
L 1650 4044 
L 103 4044 
L 103 4591 
L 3828 4591 
z
" transform="scale(0.015625)"/>
        <path id="Helvetica-48" d="M 503 4591 
L 1131 4591 
L 1131 2694 
L 3519 2694 
L 3519 4591 
L 4147 4591 
L 4147 0 
L 3519 0 
L 3519 2147 
L 1131 2147 
L 1131 0 
L 503 0 
L 503 4591 
z
" transform="scale(0.015625)"/>
        <path id="Helvetica-20" transform="scale(0.015625)"/>
        <path id="Helvetica-28" d="M 1894 4666 
Q 1403 3713 1256 3263 
Q 1034 2578 1034 1681 
Q 1034 775 1288 25 
Q 1444 -438 1903 -1306 
L 1525 -1306 
Q 1069 -594 959 -397 
Q 850 -200 722 138 
Q 547 600 478 1125 
Q 444 1397 444 1644 
Q 444 2569 734 3291 
Q 919 3750 1503 4666 
L 1894 4666 
z
" transform="scale(0.015625)"/>
        <path id="Helvetica-64" d="M 769 1634 
Q 769 1097 997 734 
Q 1225 372 1728 372 
Q 2119 372 2370 708 
Q 2622 1044 2622 1672 
Q 2622 2306 2362 2611 
Q 2103 2916 1722 2916 
Q 1297 2916 1033 2591 
Q 769 2266 769 1634 
z
M 1616 3406 
Q 2000 3406 2259 3244 
Q 2409 3150 2600 2916 
L 2600 4606 
L 3141 4606 
L 3141 0 
L 2634 0 
L 2634 466 
Q 2438 156 2169 18 
Q 1900 -119 1553 -119 
Q 994 -119 584 351 
Q 175 822 175 1603 
Q 175 2334 548 2870 
Q 922 3406 1616 3406 
z
" transform="scale(0.015625)"/>
        <path id="Helvetica-2013" d="M -16 2000 
L 3569 2000 
L 3569 1541 
L -16 1541 
L -16 2000 
z
" transform="scale(0.015625)"/>
        <path id="Helvetica-29" d="M 222 -1306 
Q 719 -338 863 106 
Q 1081 778 1081 1681 
Q 1081 2584 828 3334 
Q 672 3797 213 4666 
L 591 4666 
Q 1072 3897 1173 3717 
Q 1275 3538 1394 3222 
Q 1544 2831 1608 2450 
Q 1672 2069 1672 1716 
Q 1672 791 1378 66 
Q 1194 -400 613 -1306 
L 222 -1306 
z
" transform="scale(0.015625)"/>
       </defs>
       <use xlink:href="#Helvetica-54"/>
       <use xlink:href="#Helvetica-48" x="61.083984"/>
       <use xlink:href="#Helvetica-32" x="133.300781"/>
       <use xlink:href="#Helvetica-20" x="188.916016"/>
       <use xlink:href="#Helvetica-28" x="216.699219"/>
       <use xlink:href="#Helvetica-54" x="250"/>
       <use xlink:href="#Helvetica-64" x="311.083984"/>
       <use xlink:href="#Helvetica-54" x="366.699219"/>
       <use xlink:href="#Helvetica-2013" x="427.783203"/>
       <use xlink:href="#Helvetica-29" x="483.398438"/>
      </g>
     </g>
    </g>
    <g id="xtick_3">
     <g id="text_3">
      <!-- TH2 (TdT+) -->
      <g style="fill: #333333" transform="translate(64.061932 81.230229) scale(0.035 -0.035)">
       <defs>
        <path id="Helvetica-2b" d="M 288 1369 
L 288 1894 
L 1650 1894 
L 1650 3266 
L 2184 3266 
L 2184 1894 
L 3547 1894 
L 3547 1369 
L 2184 1369 
L 2184 0 
L 1650 0 
L 1650 1369 
L 288 1369 
z
" transform="scale(0.015625)"/>
       </defs>
       <use xlink:href="#Helvetica-54"/>
       <use xlink:href="#Helvetica-48" x="61.083984"/>
       <use xlink:href="#Helvetica-32" x="133.300781"/>
       <use xlink:href="#Helvetica-20" x="188.916016"/>
       <use xlink:href="#Helvetica-28" x="216.699219"/>
       <use xlink:href="#Helvetica-54" x="250"/>
       <use xlink:href="#Helvetica-64" x="311.083984"/>
       <use xlink:href="#Helvetica-54" x="366.699219"/>
       <use xlink:href="#Helvetica-2b" x="427.783203"/>
       <use xlink:href="#Helvetica-29" x="486.181641"/>
      </g>
     </g>
    </g>
    <g id="xtick_4">
     <g id="text_4">
      <!-- Immature TH2 -->
      <g style="fill: #333333" transform="translate(86.562007 81.204526) scale(0.035 -0.035)">
       <defs>
        <path id="Helvetica-6d" d="M 413 3347 
L 969 3347 
L 969 2872 
Q 1169 3119 1331 3231 
Q 1609 3422 1963 3422 
Q 2363 3422 2606 3225 
Q 2744 3113 2856 2894 
Q 3044 3163 3297 3292 
Q 3550 3422 3866 3422 
Q 4541 3422 4784 2934 
Q 4916 2672 4916 2228 
L 4916 0 
L 4331 0 
L 4331 2325 
Q 4331 2659 4164 2784 
Q 3997 2909 3756 2909 
Q 3425 2909 3186 2687 
Q 2947 2466 2947 1947 
L 2947 0 
L 2375 0 
L 2375 2184 
Q 2375 2525 2294 2681 
Q 2166 2916 1816 2916 
Q 1497 2916 1236 2669 
Q 975 2422 975 1775 
L 975 0 
L 413 0 
L 413 3347 
z
" transform="scale(0.015625)"/>
        <path id="Helvetica-61" d="M 844 891 
Q 844 647 1022 506 
Q 1200 366 1444 366 
Q 1741 366 2019 503 
Q 2488 731 2488 1250 
L 2488 1703 
Q 2384 1638 2221 1594 
Q 2059 1550 1903 1531 
L 1563 1488 
Q 1256 1447 1103 1359 
Q 844 1213 844 891 
z
M 2206 2028 
Q 2400 2053 2466 2191 
Q 2503 2266 2503 2406 
Q 2503 2694 2298 2823 
Q 2094 2953 1713 2953 
Q 1272 2953 1088 2716 
Q 984 2584 953 2325 
L 428 2325 
Q 444 2944 830 3186 
Q 1216 3428 1725 3428 
Q 2316 3428 2684 3203 
Q 3050 2978 3050 2503 
L 3050 575 
Q 3050 488 3086 434 
Q 3122 381 3238 381 
Q 3275 381 3322 386 
Q 3369 391 3422 400 
L 3422 -16 
Q 3291 -53 3222 -62 
Q 3153 -72 3034 -72 
Q 2744 -72 2613 134 
Q 2544 244 2516 444 
Q 2344 219 2022 53 
Q 1700 -113 1313 -113 
Q 847 -113 551 170 
Q 256 453 256 878 
Q 256 1344 547 1600 
Q 838 1856 1309 1916 
L 2206 2028 
z
M 1741 3428 
L 1741 3428 
z
" transform="scale(0.015625)"/>
        <path id="Helvetica-74" d="M 525 4281 
L 1094 4281 
L 1094 3347 
L 1628 3347 
L 1628 2888 
L 1094 2888 
L 1094 703 
Q 1094 528 1213 469 
Q 1278 434 1431 434 
Q 1472 434 1519 436 
Q 1566 438 1628 444 
L 1628 0 
Q 1531 -28 1426 -40 
Q 1322 -53 1200 -53 
Q 806 -53 665 148 
Q 525 350 525 672 
L 525 2888 
L 72 2888 
L 72 3347 
L 525 3347 
L 525 4281 
z
" transform="scale(0.015625)"/>
        <path id="Helvetica-75" d="M 975 3347 
L 975 1125 
Q 975 869 1056 706 
Q 1206 406 1616 406 
Q 2203 406 2416 931 
Q 2531 1213 2531 1703 
L 2531 3347 
L 3094 3347 
L 3094 0 
L 2563 0 
L 2569 494 
Q 2459 303 2297 172 
Q 1975 -91 1516 -91 
Q 800 -91 541 388 
Q 400 644 400 1072 
L 400 3347 
L 975 3347 
z
M 1747 3428 
L 1747 3428 
z
" transform="scale(0.015625)"/>
        <path id="Helvetica-72" d="M 428 3347 
L 963 3347 
L 963 2769 
Q 1028 2938 1284 3180 
Q 1541 3422 1875 3422 
Q 1891 3422 1928 3419 
Q 1966 3416 2056 3406 
L 2056 2813 
Q 2006 2822 1964 2825 
Q 1922 2828 1872 2828 
Q 1447 2828 1219 2554 
Q 991 2281 991 1925 
L 991 0 
L 428 0 
L 428 3347 
z
" transform="scale(0.015625)"/>
        <path id="Helvetica-65" d="M 1806 3422 
Q 2163 3422 2497 3255 
Q 2831 3088 3006 2822 
Q 3175 2569 3231 2231 
Q 3281 2000 3281 1494 
L 828 1494 
Q 844 984 1069 676 
Q 1294 369 1766 369 
Q 2206 369 2469 659 
Q 2619 828 2681 1050 
L 3234 1050 
Q 3213 866 3089 639 
Q 2966 413 2813 269 
Q 2556 19 2178 -69 
Q 1975 -119 1719 -119 
Q 1094 -119 659 336 
Q 225 791 225 1609 
Q 225 2416 662 2919 
Q 1100 3422 1806 3422 
z
M 2703 1941 
Q 2669 2306 2544 2525 
Q 2313 2931 1772 2931 
Q 1384 2931 1121 2651 
Q 859 2372 844 1941 
L 2703 1941 
z
M 1753 3428 
L 1753 3428 
z
" transform="scale(0.015625)"/>
       </defs>
       <use xlink:href="#Helvetica-49"/>
       <use xlink:href="#Helvetica-6d" x="27.783203"/>
       <use xlink:href="#Helvetica-6d" x="111.083984"/>
       <use xlink:href="#Helvetica-61" x="194.384766"/>
       <use xlink:href="#Helvetica-74" x="250"/>
       <use xlink:href="#Helvetica-75" x="277.783203"/>
       <use xlink:href="#Helvetica-72" x="333.398438"/>
       <use xlink:href="#Helvetica-65" x="366.699219"/>
       <use xlink:href="#Helvetica-20" x="422.314453"/>
       <use xlink:href="#Helvetica-54" x="450.097656"/>
       <use xlink:href="#Helvetica-48" x="511.181641"/>
       <use xlink:href="#Helvetica-32" x="583.398438"/>
      </g>
     </g>
    </g>
   </g>
   <g id="matplotlib.axis_2">
    <g id="ytick_1">
     <g id="line2d_1">
      <defs>
       <path id="ma1b273196a" d="M 0 0 
L -1 0 
" style="stroke: #777777; stroke-width: 0.5"/>
      </defs>
      <g>
       <use xlink:href="#ma1b273196a" x="11.673365" y="66.139421" style="fill: #777777; stroke: #777777; stroke-width: 0.5"/>
      </g>
     </g>
     <g id="text_5">
      <!-- 0 -->
      <g style="fill: #333333" transform="translate(8.005084 67.215437) scale(0.03 -0.03)">
       <defs>
        <path id="Helvetica-30" d="M 1731 4475 
Q 2600 4475 2988 3759 
Q 3288 3206 3288 2244 
Q 3288 1331 3016 734 
Q 2622 -122 1728 -122 
Q 922 -122 528 578 
Q 200 1163 200 2147 
Q 200 2909 397 3456 
Q 766 4475 1731 4475 
z
M 1725 391 
Q 2163 391 2422 778 
Q 2681 1166 2681 2222 
Q 2681 2984 2493 3476 
Q 2306 3969 1766 3969 
Q 1269 3969 1039 3501 
Q 809 3034 809 2125 
Q 809 1441 956 1025 
Q 1181 391 1725 391 
z
" transform="scale(0.015625)"/>
       </defs>
       <use xlink:href="#Helvetica-30"/>
      </g>
     </g>
    </g>
    <g id="ytick_2">
     <g id="line2d_2">
      <g>
       <use xlink:href="#ma1b273196a" x="11.673365" y="55.79556" style="fill: #777777; stroke: #777777; stroke-width: 0.5"/>
      </g>
     </g>
     <g id="text_6">
      <!-- 500 -->
      <g style="fill: #333333" transform="translate(4.668521 56.871576) scale(0.03 -0.03)">
       <defs>
        <path id="Helvetica-35" d="M 791 1141 
Q 847 659 1238 475 
Q 1438 381 1700 381 
Q 2200 381 2440 700 
Q 2681 1019 2681 1406 
Q 2681 1875 2395 2131 
Q 2109 2388 1709 2388 
Q 1419 2388 1211 2275 
Q 1003 2163 856 1963 
L 369 1991 
L 709 4400 
L 3034 4400 
L 3034 3856 
L 1131 3856 
L 941 2613 
Q 1097 2731 1238 2791 
Q 1488 2894 1816 2894 
Q 2431 2894 2859 2497 
Q 3288 2100 3288 1491 
Q 3288 856 2895 371 
Q 2503 -113 1644 -113 
Q 1097 -113 676 195 
Q 256 503 206 1141 
L 791 1141 
z
" transform="scale(0.015625)"/>
       </defs>
       <use xlink:href="#Helvetica-35"/>
       <use xlink:href="#Helvetica-30" x="55.615234"/>
       <use xlink:href="#Helvetica-30" x="111.230469"/>
      </g>
     </g>
    </g>
    <g id="ytick_3">
     <g id="line2d_3">
      <g>
       <use xlink:href="#ma1b273196a" x="11.673365" y="45.4517" style="fill: #777777; stroke: #777777; stroke-width: 0.5"/>
      </g>
     </g>
     <g id="text_7">
      <!-- 1000 -->
      <g style="fill: #333333" transform="translate(3.00024 46.527715) scale(0.03 -0.03)">
       <defs>
        <path id="Helvetica-31" d="M 613 3169 
L 613 3600 
Q 1222 3659 1462 3798 
Q 1703 3938 1822 4456 
L 2266 4456 
L 2266 0 
L 1666 0 
L 1666 3169 
L 613 3169 
z
" transform="scale(0.015625)"/>
       </defs>
       <use xlink:href="#Helvetica-31"/>
       <use xlink:href="#Helvetica-30" x="55.615234"/>
       <use xlink:href="#Helvetica-30" x="111.230469"/>
       <use xlink:href="#Helvetica-30" x="166.845703"/>
      </g>
     </g>
    </g>
    <g id="ytick_4">
     <g id="line2d_4">
      <g>
       <use xlink:href="#ma1b273196a" x="11.673365" y="35.107839" style="fill: #777777; stroke: #777777; stroke-width: 0.5"/>
      </g>
     </g>
     <g id="text_8">
      <!-- 1500 -->
      <g style="fill: #333333" transform="translate(3.00024 36.183854) scale(0.03 -0.03)">
       <use xlink:href="#Helvetica-31"/>
       <use xlink:href="#Helvetica-35" x="55.615234"/>
       <use xlink:href="#Helvetica-30" x="111.230469"/>
       <use xlink:href="#Helvetica-30" x="166.845703"/>
      </g>
     </g>
    </g>
    <g id="ytick_5">
     <g id="line2d_5">
      <g>
       <use xlink:href="#ma1b273196a" x="11.673365" y="24.763978" style="fill: #777777; stroke: #777777; stroke-width: 0.5"/>
      </g>
     </g>
     <g id="text_9">
      <!-- 2000 -->
      <g style="fill: #333333" transform="translate(3.00024 25.839993) scale(0.03 -0.03)">
       <use xlink:href="#Helvetica-32"/>
       <use xlink:href="#Helvetica-30" x="55.615234"/>
       <use xlink:href="#Helvetica-30" x="111.230469"/>
       <use xlink:href="#Helvetica-30" x="166.845703"/>
      </g>
     </g>
    </g>
    <g id="ytick_6">
     <g id="line2d_6">
      <g>
       <use xlink:href="#ma1b273196a" x="11.673365" y="14.420117" style="fill: #777777; stroke: #777777; stroke-width: 0.5"/>
      </g>
     </g>
     <g id="text_10">
      <!-- 2500 -->
      <g style="fill: #333333" transform="translate(3.00024 15.496132) scale(0.03 -0.03)">
       <use xlink:href="#Helvetica-32"/>
       <use xlink:href="#Helvetica-35" x="55.615234"/>
       <use xlink:href="#Helvetica-30" x="111.230469"/>
       <use xlink:href="#Helvetica-30" x="166.845703"/>
      </g>
     </g>
    </g>
    <g id="ytick_7">
     <g id="line2d_7">
      <g>
       <use xlink:href="#ma1b273196a" x="11.673365" y="4.076256" style="fill: #777777; stroke: #777777; stroke-width: 0.5"/>
      </g>
     </g>
     <g id="text_11">
      <!-- 3000 -->
      <g style="fill: #333333" transform="translate(3.00024 5.152271) scale(0.03 -0.03)">
       <defs>
        <path id="Helvetica-33" d="M 1663 -122 
Q 869 -122 511 314 
Q 153 750 153 1375 
L 741 1375 
Q 778 941 903 744 
Q 1122 391 1694 391 
Q 2138 391 2406 628 
Q 2675 866 2675 1241 
Q 2675 1703 2392 1887 
Q 2109 2072 1606 2072 
Q 1550 2072 1492 2070 
Q 1434 2069 1375 2066 
L 1375 2563 
Q 1463 2553 1522 2550 
Q 1581 2547 1650 2547 
Q 1966 2547 2169 2647 
Q 2525 2822 2525 3272 
Q 2525 3606 2287 3787 
Q 2050 3969 1734 3969 
Q 1172 3969 956 3594 
Q 838 3388 822 3006 
L 266 3006 
Q 266 3506 466 3856 
Q 809 4481 1675 4481 
Q 2359 4481 2734 4176 
Q 3109 3872 3109 3294 
Q 3109 2881 2888 2625 
Q 2750 2466 2531 2375 
Q 2884 2278 3082 2001 
Q 3281 1725 3281 1325 
Q 3281 684 2859 281 
Q 2438 -122 1663 -122 
z
" transform="scale(0.015625)"/>
       </defs>
       <use xlink:href="#Helvetica-33"/>
       <use xlink:href="#Helvetica-30" x="55.615234"/>
       <use xlink:href="#Helvetica-30" x="111.230469"/>
       <use xlink:href="#Helvetica-30" x="166.845703"/>
      </g>
     </g>
    </g>
   </g>
   <g id="PolyCollection_1">
    <defs>
     <path id="mc4fbc114ac" d="M 25.344507 -17.430555 
L 22.593822 -17.430555 
L 22.327284 -17.583762 
L 22.033068 -17.736968 
L 21.713865 -17.890175 
L 21.373679 -18.043382 
L 21.017781 -18.196589 
L 20.652555 -18.349796 
L 20.285245 -18.503003 
L 19.923601 -18.65621 
L 19.575443 -18.809416 
L 19.24817 -18.962623 
L 18.948247 -19.11583 
L 18.680716 -19.269037 
L 18.448768 -19.422244 
L 18.253423 -19.575451 
L 18.093349 -19.728658 
L 17.964851 -19.881865 
L 17.862034 -20.035071 
L 17.777143 -20.188278 
L 17.701066 -20.341485 
L 17.623953 -20.494692 
L 17.53593 -20.647899 
L 17.42784 -20.801106 
L 17.29196 -20.954313 
L 17.122655 -21.107519 
L 16.916898 -21.260726 
L 16.674643 -21.413933 
L 16.398994 -21.56714 
L 16.096181 -21.720347 
L 15.775325 -21.873554 
L 15.44801 -22.026761 
L 15.127677 -22.179968 
L 14.828891 -22.333174 
L 14.566508 -22.486381 
L 14.354802 -22.639588 
L 14.206607 -22.792795 
L 14.132525 -22.946002 
L 14.140255 -23.099209 
L 14.234087 -23.252416 
L 14.414596 -23.405622 
L 14.678565 -23.558829 
L 15.019129 -23.712036 
L 15.426153 -23.865243 
L 15.886794 -24.01845 
L 16.386228 -24.171657 
L 16.908489 -24.324864 
L 17.437343 -24.478071 
L 17.957169 -24.631277 
L 18.453763 -24.784484 
L 18.915031 -24.937691 
L 19.331513 -25.090898 
L 19.696736 -25.244105 
L 20.007355 -25.397312 
L 20.263099 -25.550519 
L 20.466532 -25.703725 
L 20.622655 -25.856932 
L 20.738382 -26.010139 
L 20.821929 -26.163346 
L 20.882168 -26.316553 
L 20.92798 -26.46976 
L 20.967653 -26.622967 
L 21.008367 -26.776174 
L 21.055783 -26.92938 
L 21.113769 -27.082587 
L 21.184262 -27.235794 
L 21.267281 -27.389001 
L 21.361064 -27.542208 
L 21.462336 -27.695415 
L 21.56666 -27.848622 
L 21.668855 -28.001828 
L 21.763456 -28.155035 
L 21.845169 -28.308242 
L 21.909302 -28.461449 
L 21.952137 -28.614656 
L 21.971232 -28.767863 
L 21.965625 -28.92107 
L 21.935933 -29.074277 
L 21.884345 -29.227483 
L 21.814505 -29.38069 
L 21.731305 -29.533897 
L 21.640589 -29.687104 
L 21.5488 -29.840311 
L 21.462586 -29.993518 
L 21.388399 -30.146725 
L 21.332106 -30.299931 
L 21.29865 -30.453138 
L 21.29177 -30.606345 
L 21.313817 -30.759552 
L 21.365653 -30.912759 
L 21.446665 -31.065966 
L 21.554861 -31.219173 
L 21.687061 -31.37238 
L 21.839145 -31.525586 
L 22.006348 -31.678793 
L 22.183575 -31.832 
L 22.3657 -31.985207 
L 22.547849 -32.138414 
L 22.725628 -32.291621 
L 22.895293 -32.444828 
L 23.053865 -32.598034 
L 24.884463 -32.598034 
L 24.884463 -32.598034 
L 25.043036 -32.444828 
L 25.212701 -32.291621 
L 25.390479 -32.138414 
L 25.572629 -31.985207 
L 25.754754 -31.832 
L 25.93198 -31.678793 
L 26.099184 -31.525586 
L 26.251268 -31.37238 
L 26.383467 -31.219173 
L 26.491664 -31.065966 
L 26.572676 -30.912759 
L 26.624512 -30.759552 
L 26.646559 -30.606345 
L 26.639679 -30.453138 
L 26.606222 -30.299931 
L 26.549929 -30.146725 
L 26.475742 -29.993518 
L 26.389529 -29.840311 
L 26.29774 -29.687104 
L 26.207024 -29.533897 
L 26.123824 -29.38069 
L 26.053984 -29.227483 
L 26.002395 -29.074277 
L 25.972703 -28.92107 
L 25.967097 -28.767863 
L 25.986192 -28.614656 
L 26.029027 -28.461449 
L 26.093159 -28.308242 
L 26.174873 -28.155035 
L 26.269474 -28.001828 
L 26.371669 -27.848622 
L 26.475992 -27.695415 
L 26.577265 -27.542208 
L 26.671048 -27.389001 
L 26.754067 -27.235794 
L 26.82456 -27.082587 
L 26.882546 -26.92938 
L 26.929962 -26.776174 
L 26.970676 -26.622967 
L 27.010349 -26.46976 
L 27.05616 -26.316553 
L 27.116399 -26.163346 
L 27.199947 -26.010139 
L 27.315673 -25.856932 
L 27.471797 -25.703725 
L 27.67523 -25.550519 
L 27.930973 -25.397312 
L 28.241592 -25.244105 
L 28.606816 -25.090898 
L 29.023298 -24.937691 
L 29.484565 -24.784484 
L 29.98116 -24.631277 
L 30.500986 -24.478071 
L 31.02984 -24.324864 
L 31.5521 -24.171657 
L 32.051535 -24.01845 
L 32.512176 -23.865243 
L 32.919199 -23.712036 
L 33.259764 -23.558829 
L 33.523733 -23.405622 
L 33.704242 -23.252416 
L 33.798074 -23.099209 
L 33.805804 -22.946002 
L 33.731722 -22.792795 
L 33.583527 -22.639588 
L 33.371821 -22.486381 
L 33.109438 -22.333174 
L 32.810652 -22.179968 
L 32.490319 -22.026761 
L 32.163004 -21.873554 
L 31.842148 -21.720347 
L 31.539335 -21.56714 
L 31.263685 -21.413933 
L 31.02143 -21.260726 
L 30.815674 -21.107519 
L 30.646369 -20.954313 
L 30.510489 -20.801106 
L 30.402399 -20.647899 
L 30.314376 -20.494692 
L 30.237263 -20.341485 
L 30.161185 -20.188278 
L 30.076295 -20.035071 
L 29.973477 -19.881865 
L 29.844979 -19.728658 
L 29.684906 -19.575451 
L 29.489561 -19.422244 
L 29.257613 -19.269037 
L 28.990082 -19.11583 
L 28.690159 -18.962623 
L 28.362885 -18.809416 
L 28.014727 -18.65621 
L 27.653083 -18.503003 
L 27.285774 -18.349796 
L 26.920548 -18.196589 
L 26.56465 -18.043382 
L 26.224464 -17.890175 
L 25.905261 -17.736968 
L 25.611045 -17.583762 
L 25.344507 -17.430555 
z
" style="stroke: #717171; stroke-width: 0.15"/>
    </defs>
    <g clip-path="url(#p7fcbcc9ad4)">
     <use xlink:href="#mc4fbc114ac" x="0" y="84.96" style="fill: #d6bba3; stroke: #717171; stroke-width: 0.15"/>
    </g>
   </g>
   <g id="PolyCollection_2">
    <defs>
     <path id="med0d67c81c" d="M 49.822842 -13.727642 
L 47.298684 -13.727642 
L 47.071506 -14.211734 
L 46.820531 -14.695826 
L 46.546608 -15.179918 
L 46.251195 -15.66401 
L 45.936332 -16.148102 
L 45.604577 -16.632194 
L 45.258906 -17.116286 
L 44.902594 -17.600378 
L 44.539064 -18.08447 
L 44.171739 -18.568562 
L 43.803888 -19.052654 
L 43.438493 -19.536746 
L 43.07814 -20.020838 
L 42.724952 -20.50493 
L 42.380557 -20.989022 
L 42.046111 -21.473114 
L 41.722355 -21.957206 
L 41.409717 -22.441298 
L 41.108444 -22.92539 
L 40.818747 -23.409482 
L 40.540948 -23.893574 
L 40.275625 -24.377666 
L 40.023722 -24.861759 
L 39.78663 -25.345851 
L 39.566225 -25.829943 
L 39.364854 -26.314035 
L 39.185278 -26.798127 
L 39.030565 -27.282219 
L 38.903956 -27.766311 
L 38.808692 -28.250403 
L 38.747844 -28.734495 
L 38.724124 -29.218587 
L 38.739717 -29.702679 
L 38.796139 -30.186771 
L 38.894109 -30.670863 
L 39.033469 -31.154955 
L 39.213133 -31.639047 
L 39.431073 -32.123139 
L 39.684336 -32.607231 
L 39.969088 -33.091323 
L 40.280687 -33.575415 
L 40.613767 -34.059507 
L 40.962353 -34.543599 
L 41.319976 -35.027691 
L 41.67982 -35.511783 
L 42.034872 -35.995875 
L 42.378099 -36.479967 
L 42.702636 -36.964059 
L 43.001982 -37.448151 
L 43.270208 -37.932243 
L 43.502163 -38.416335 
L 43.693666 -38.900427 
L 43.841672 -39.384519 
L 43.944404 -39.868611 
L 44.001441 -40.352703 
L 44.013738 -40.836795 
L 43.983598 -41.320888 
L 43.91457 -41.80498 
L 43.811295 -42.289072 
L 43.679295 -42.773164 
L 43.52473 -43.257256 
L 43.354127 -43.741348 
L 43.174109 -44.22544 
L 42.991131 -44.709532 
L 42.811247 -45.193624 
L 42.639915 -45.677716 
L 42.481854 -46.161808 
L 42.340957 -46.6459 
L 42.220262 -47.129992 
L 42.12197 -47.614084 
L 42.047518 -48.098176 
L 41.997686 -48.582268 
L 41.972723 -49.06636 
L 41.972491 -49.550452 
L 41.996601 -50.034544 
L 42.044544 -50.518636 
L 42.115783 -51.002728 
L 42.209828 -51.48682 
L 42.32626 -51.970912 
L 42.464728 -52.455004 
L 42.624902 -52.939096 
L 42.806407 -53.423188 
L 43.008724 -53.90728 
L 43.231099 -54.391372 
L 43.472442 -54.875464 
L 43.731249 -55.359556 
L 44.005554 -55.843648 
L 44.292906 -56.32774 
L 44.590395 -56.811832 
L 44.89471 -57.295924 
L 45.202239 -57.780017 
L 45.509192 -58.264109 
L 45.81175 -58.748201 
L 46.106209 -59.232293 
L 46.389137 -59.716385 
L 46.657497 -60.200477 
L 46.908756 -60.684569 
L 47.140962 -61.168661 
L 47.352777 -61.652753 
L 49.768749 -61.652753 
L 49.768749 -61.652753 
L 49.980565 -61.168661 
L 50.21277 -60.684569 
L 50.46403 -60.200477 
L 50.732389 -59.716385 
L 51.015317 -59.232293 
L 51.309777 -58.748201 
L 51.612334 -58.264109 
L 51.919287 -57.780017 
L 52.226816 -57.295924 
L 52.531132 -56.811832 
L 52.82862 -56.32774 
L 53.115972 -55.843648 
L 53.390277 -55.359556 
L 53.649085 -54.875464 
L 53.890427 -54.391372 
L 54.112802 -53.90728 
L 54.315119 -53.423188 
L 54.496624 -52.939096 
L 54.656798 -52.455004 
L 54.795266 -51.970912 
L 54.911698 -51.48682 
L 55.005743 -51.002728 
L 55.076982 -50.518636 
L 55.124925 -50.034544 
L 55.149035 -49.550452 
L 55.148803 -49.06636 
L 55.12384 -48.582268 
L 55.074008 -48.098176 
L 54.999557 -47.614084 
L 54.901264 -47.129992 
L 54.780569 -46.6459 
L 54.639672 -46.161808 
L 54.481611 -45.677716 
L 54.310279 -45.193624 
L 54.130395 -44.709532 
L 53.947418 -44.22544 
L 53.7674 -43.741348 
L 53.596797 -43.257256 
L 53.442231 -42.773164 
L 53.310231 -42.289072 
L 53.206956 -41.80498 
L 53.137929 -41.320888 
L 53.107789 -40.836795 
L 53.120086 -40.352703 
L 53.177122 -39.868611 
L 53.279854 -39.384519 
L 53.42786 -38.900427 
L 53.619363 -38.416335 
L 53.851319 -37.932243 
L 54.119545 -37.448151 
L 54.41889 -36.964059 
L 54.743427 -36.479967 
L 55.086655 -35.995875 
L 55.441707 -35.511783 
L 55.80155 -35.027691 
L 56.159173 -34.543599 
L 56.507759 -34.059507 
L 56.84084 -33.575415 
L 57.152438 -33.091323 
L 57.43719 -32.607231 
L 57.690453 -32.123139 
L 57.908393 -31.639047 
L 58.088057 -31.154955 
L 58.227417 -30.670863 
L 58.325387 -30.186771 
L 58.381809 -29.702679 
L 58.397403 -29.218587 
L 58.373682 -28.734495 
L 58.312834 -28.250403 
L 58.217571 -27.766311 
L 58.090961 -27.282219 
L 57.936248 -26.798127 
L 57.756672 -26.314035 
L 57.555301 -25.829943 
L 57.334896 -25.345851 
L 57.097805 -24.861759 
L 56.845901 -24.377666 
L 56.580578 -23.893574 
L 56.302779 -23.409482 
L 56.013082 -22.92539 
L 55.711809 -22.441298 
L 55.399171 -21.957206 
L 55.075415 -21.473114 
L 54.740969 -20.989022 
L 54.396575 -20.50493 
L 54.043387 -20.020838 
L 53.683034 -19.536746 
L 53.317638 -19.052654 
L 52.949787 -18.568562 
L 52.582462 -18.08447 
L 52.218932 -17.600378 
L 51.86262 -17.116286 
L 51.516949 -16.632194 
L 51.185194 -16.148102 
L 50.870331 -15.66401 
L 50.574918 -15.179918 
L 50.300995 -14.695826 
L 50.05002 -14.211734 
L 49.822842 -13.727642 
z
" style="stroke: #717171; stroke-width: 0.15"/>
    </defs>
    <g clip-path="url(#p7fcbcc9ad4)">
     <use xlink:href="#med0d67c81c" x="0" y="84.96" style="fill: #b6cae3; stroke: #717171; stroke-width: 0.15"/>
    </g>
   </g>
   <g id="PolyCollection_3">
    <defs>
     <path id="m6203e3eef1" d="M 74.473686 -18.140029 
L 71.831038 -18.140029 
L 71.602097 -18.19433 
L 71.353529 -18.248632 
L 71.087697 -18.302934 
L 70.807684 -18.357235 
L 70.517188 -18.411537 
L 70.220361 -18.465838 
L 69.921599 -18.52014 
L 69.625298 -18.574442 
L 69.335602 -18.628743 
L 69.056152 -18.683045 
L 68.789865 -18.737346 
L 68.538759 -18.791648 
L 68.303848 -18.84595 
L 68.085109 -18.900251 
L 67.881527 -18.954553 
L 67.691219 -19.008854 
L 67.511614 -19.063156 
L 67.339683 -19.117458 
L 67.172187 -19.171759 
L 67.005928 -19.226061 
L 66.837973 -19.280362 
L 66.665844 -19.334664 
L 66.487649 -19.388966 
L 66.302165 -19.443267 
L 66.108859 -19.497569 
L 65.907865 -19.55187 
L 65.699925 -19.606172 
L 65.486308 -19.660474 
L 65.268722 -19.714775 
L 65.049233 -19.769077 
L 64.830198 -19.823378 
L 64.61421 -19.87768 
L 64.40407 -19.931982 
L 64.202771 -19.986283 
L 64.013483 -20.040585 
L 63.839547 -20.094886 
L 63.684446 -20.149188 
L 63.551767 -20.20349 
L 63.445127 -20.257791 
L 63.368073 -20.312093 
L 63.323947 -20.366394 
L 63.315722 -20.420696 
L 63.345816 -20.474998 
L 63.415884 -20.529299 
L 63.52662 -20.583601 
L 63.677558 -20.637902 
L 63.86691 -20.692204 
L 64.091443 -20.746506 
L 64.346426 -20.800807 
L 64.625642 -20.855109 
L 64.921491 -20.90941 
L 65.225188 -20.963712 
L 65.527047 -21.018014 
L 65.816858 -21.072315 
L 66.084326 -21.126617 
L 66.319566 -21.180918 
L 66.513618 -21.23522 
L 66.658946 -21.289522 
L 66.749897 -21.343823 
L 66.783077 -21.398125 
L 66.757613 -21.452426 
L 66.675279 -21.506728 
L 66.540473 -21.56103 
L 66.360032 -21.615331 
L 66.142904 -21.669633 
L 65.899688 -21.723934 
L 65.642076 -21.778236 
L 65.38224 -21.832538 
L 65.132202 -21.886839 
L 64.903246 -21.941141 
L 64.70539 -21.995442 
L 64.546989 -22.049744 
L 64.434454 -22.104046 
L 64.372131 -22.158347 
L 64.362321 -22.212649 
L 64.405425 -22.26695 
L 64.500199 -22.321252 
L 64.644068 -22.375554 
L 64.833478 -22.429855 
L 65.064238 -22.484157 
L 65.331825 -22.538458 
L 65.631632 -22.59276 
L 65.959133 -22.647062 
L 66.309982 -22.701363 
L 66.680036 -22.755665 
L 67.065332 -22.809966 
L 67.462024 -22.864268 
L 67.866313 -22.91857 
L 68.274396 -22.972871 
L 68.682423 -23.027173 
L 69.086509 -23.081474 
L 69.482773 -23.135776 
L 69.867419 -23.190078 
L 70.236843 -23.244379 
L 70.587749 -23.298681 
L 70.917272 -23.352982 
L 71.223083 -23.407284 
L 71.503467 -23.461586 
L 71.75737 -23.515887 
L 74.547353 -23.515887 
L 74.547353 -23.515887 
L 74.801257 -23.461586 
L 75.081641 -23.407284 
L 75.387452 -23.352982 
L 75.716975 -23.298681 
L 76.067881 -23.244379 
L 76.437304 -23.190078 
L 76.821951 -23.135776 
L 77.218215 -23.081474 
L 77.622301 -23.027173 
L 78.030328 -22.972871 
L 78.43841 -22.91857 
L 78.8427 -22.864268 
L 79.239391 -22.809966 
L 79.624687 -22.755665 
L 79.994742 -22.701363 
L 80.345591 -22.647062 
L 80.673092 -22.59276 
L 80.972899 -22.538458 
L 81.240486 -22.484157 
L 81.471246 -22.429855 
L 81.660655 -22.375554 
L 81.804524 -22.321252 
L 81.899298 -22.26695 
L 81.942403 -22.212649 
L 81.932593 -22.158347 
L 81.87027 -22.104046 
L 81.757735 -22.049744 
L 81.599333 -21.995442 
L 81.401478 -21.941141 
L 81.172521 -21.886839 
L 80.922484 -21.832538 
L 80.662648 -21.778236 
L 80.405036 -21.723934 
L 80.16182 -21.669633 
L 79.944692 -21.615331 
L 79.764251 -21.56103 
L 79.629445 -21.506728 
L 79.547111 -21.452426 
L 79.521646 -21.398125 
L 79.554827 -21.343823 
L 79.645778 -21.289522 
L 79.791106 -21.23522 
L 79.985157 -21.180918 
L 80.220398 -21.126617 
L 80.487866 -21.072315 
L 80.777676 -21.018014 
L 81.079536 -20.963712 
L 81.383232 -20.90941 
L 81.679082 -20.855109 
L 81.958297 -20.800807 
L 82.213281 -20.746506 
L 82.437814 -20.692204 
L 82.627166 -20.637902 
L 82.778103 -20.583601 
L 82.888839 -20.529299 
L 82.958908 -20.474998 
L 82.989001 -20.420696 
L 82.980777 -20.366394 
L 82.936651 -20.312093 
L 82.859597 -20.257791 
L 82.752957 -20.20349 
L 82.620278 -20.149188 
L 82.465177 -20.094886 
L 82.291241 -20.040585 
L 82.101953 -19.986283 
L 81.900653 -19.931982 
L 81.690514 -19.87768 
L 81.474526 -19.823378 
L 81.25549 -19.769077 
L 81.036002 -19.714775 
L 80.818416 -19.660474 
L 80.604799 -19.606172 
L 80.396858 -19.55187 
L 80.195865 -19.497569 
L 80.002559 -19.443267 
L 79.817075 -19.388966 
L 79.63888 -19.334664 
L 79.466751 -19.280362 
L 79.298796 -19.226061 
L 79.132537 -19.171759 
L 78.965041 -19.117458 
L 78.79311 -19.063156 
L 78.613505 -19.008854 
L 78.423196 -18.954553 
L 78.219615 -18.900251 
L 78.000875 -18.84595 
L 77.765965 -18.791648 
L 77.514859 -18.737346 
L 77.248572 -18.683045 
L 76.969122 -18.628743 
L 76.679426 -18.574442 
L 76.383125 -18.52014 
L 76.084362 -18.465838 
L 75.787536 -18.411537 
L 75.49704 -18.357235 
L 75.217027 -18.302934 
L 74.951194 -18.248632 
L 74.702627 -18.19433 
L 74.473686 -18.140029 
z
" style="stroke: #717171; stroke-width: 0.15"/>
    </defs>
    <g clip-path="url(#p7fcbcc9ad4)">
     <use xlink:href="#m6203e3eef1" x="0" y="84.96" style="fill: #c0d2e7; stroke: #717171; stroke-width: 0.15"/>
    </g>
   </g>
   <g id="PolyCollection_4">
    <defs>
     <path id="mc9daf0f852" d="M 99.796196 -18.432969 
L 95.691725 -18.432969 
L 95.302138 -18.467878 
L 94.872125 -18.502787 
L 94.404989 -18.537697 
L 93.905722 -18.572606 
L 93.380951 -18.607516 
L 92.838758 -18.642425 
L 92.288393 -18.677335 
L 91.739863 -18.712244 
L 91.203455 -18.747154 
L 90.689193 -18.782063 
L 90.206299 -18.816973 
L 89.762687 -18.851882 
L 89.364548 -18.886792 
L 89.016065 -18.921701 
L 88.719284 -18.95661 
L 88.474165 -18.99152 
L 88.278808 -19.026429 
L 88.129829 -19.061339 
L 88.022859 -19.096248 
L 87.953104 -19.131158 
L 87.915918 -19.166067 
L 87.907321 -19.200977 
L 87.924408 -19.235886 
L 87.96561 -19.270796 
L 88.030773 -19.305705 
L 88.121054 -19.340615 
L 88.23864 -19.375524 
L 88.386335 -19.410434 
L 88.567041 -19.445343 
L 88.783218 -19.480252 
L 89.036357 -19.515162 
L 89.326539 -19.550071 
L 89.652129 -19.584981 
L 90.009622 -19.61989 
L 90.393673 -19.6548 
L 90.797311 -19.689709 
L 91.212291 -19.724619 
L 91.62959 -19.759528 
L 92.039963 -19.794438 
L 92.434531 -19.829347 
L 92.805346 -19.864257 
L 93.145882 -19.899166 
L 93.451409 -19.934075 
L 93.719236 -19.968985 
L 93.948796 -20.003894 
L 94.141578 -20.038804 
L 94.300916 -20.073713 
L 94.431663 -20.108623 
L 94.539767 -20.143532 
L 94.631805 -20.178442 
L 94.714494 -20.213351 
L 94.794235 -20.248261 
L 94.876696 -20.28317 
L 94.96649 -20.31808 
L 95.06694 -20.352989 
L 95.179953 -20.387899 
L 95.305998 -20.422808 
L 95.444175 -20.457717 
L 95.592375 -20.492627 
L 95.747485 -20.527536 
L 95.905646 -20.562446 
L 96.062518 -20.597355 
L 96.213548 -20.632265 
L 96.354214 -20.667174 
L 96.480247 -20.702084 
L 96.587807 -20.736993 
L 96.67363 -20.771903 
L 96.735133 -20.806812 
L 96.770495 -20.841722 
L 96.778705 -20.876631 
L 96.759594 -20.911541 
L 96.713848 -20.94645 
L 96.643009 -20.981359 
L 96.549452 -21.016269 
L 96.436352 -21.051178 
L 96.307615 -21.086088 
L 96.167789 -21.120997 
L 96.021935 -21.155907 
L 95.875469 -21.190816 
L 95.733969 -21.225726 
L 95.602957 -21.260635 
L 95.487668 -21.295545 
L 95.392812 -21.330454 
L 95.322354 -21.365364 
L 95.279325 -21.400273 
L 95.265674 -21.435182 
L 95.282181 -21.470092 
L 95.328435 -21.505001 
L 95.402882 -21.539911 
L 95.502935 -21.57482 
L 95.625139 -21.60973 
L 95.765391 -21.644639 
L 95.919168 -21.679549 
L 96.081781 -21.714458 
L 96.248613 -21.749368 
L 96.415328 -21.784277 
L 96.578049 -21.819187 
L 96.73349 -21.854096 
L 96.879036 -21.889006 
L 98.608885 -21.889006 
L 98.608885 -21.889006 
L 98.754431 -21.854096 
L 98.909873 -21.819187 
L 99.072594 -21.784277 
L 99.239308 -21.749368 
L 99.40614 -21.714458 
L 99.568754 -21.679549 
L 99.722531 -21.644639 
L 99.862782 -21.60973 
L 99.984987 -21.57482 
L 100.085039 -21.539911 
L 100.159486 -21.505001 
L 100.205741 -21.470092 
L 100.222247 -21.435182 
L 100.208596 -21.400273 
L 100.165567 -21.365364 
L 100.095109 -21.330454 
L 100.000253 -21.295545 
L 99.884964 -21.260635 
L 99.753953 -21.225726 
L 99.612453 -21.190816 
L 99.465986 -21.155907 
L 99.320132 -21.120997 
L 99.180306 -21.086088 
L 99.051569 -21.051178 
L 98.938469 -21.016269 
L 98.844913 -20.981359 
L 98.774073 -20.94645 
L 98.728327 -20.911541 
L 98.709216 -20.876631 
L 98.717426 -20.841722 
L 98.752788 -20.806812 
L 98.814291 -20.771903 
L 98.900114 -20.736993 
L 99.007674 -20.702084 
L 99.133707 -20.667174 
L 99.274373 -20.632265 
L 99.425403 -20.597355 
L 99.582275 -20.562446 
L 99.740436 -20.527536 
L 99.895546 -20.492627 
L 100.043746 -20.457717 
L 100.181924 -20.422808 
L 100.307968 -20.387899 
L 100.420982 -20.352989 
L 100.521432 -20.31808 
L 100.611226 -20.28317 
L 100.693687 -20.248261 
L 100.773427 -20.213351 
L 100.856117 -20.178442 
L 100.948154 -20.143532 
L 101.056258 -20.108623 
L 101.187005 -20.073713 
L 101.346344 -20.038804 
L 101.539125 -20.003894 
L 101.768685 -19.968985 
L 102.036512 -19.934075 
L 102.342039 -19.899166 
L 102.682575 -19.864257 
L 103.053391 -19.829347 
L 103.447959 -19.794438 
L 103.858331 -19.759528 
L 104.27563 -19.724619 
L 104.690611 -19.689709 
L 105.094248 -19.6548 
L 105.4783 -19.61989 
L 105.835792 -19.584981 
L 106.161382 -19.550071 
L 106.451565 -19.515162 
L 106.704703 -19.480252 
L 106.92088 -19.445343 
L 107.101586 -19.410434 
L 107.249281 -19.375524 
L 107.366867 -19.340615 
L 107.457148 -19.305705 
L 107.522311 -19.270796 
L 107.563513 -19.235886 
L 107.5806 -19.200977 
L 107.572003 -19.166067 
L 107.534817 -19.131158 
L 107.465062 -19.096248 
L 107.358092 -19.061339 
L 107.209113 -19.026429 
L 107.013756 -18.99152 
L 106.768638 -18.95661 
L 106.471856 -18.921701 
L 106.123373 -18.886792 
L 105.725234 -18.851882 
L 105.281622 -18.816973 
L 104.798728 -18.782063 
L 104.284466 -18.747154 
L 103.748058 -18.712244 
L 103.199529 -18.677335 
L 102.649163 -18.642425 
L 102.10697 -18.607516 
L 101.582199 -18.572606 
L 101.082932 -18.537697 
L 100.615796 -18.502787 
L 100.185783 -18.467878 
L 99.796196 -18.432969 
z
" style="stroke: #717171; stroke-width: 0.15"/>
    </defs>
    <g clip-path="url(#p7fcbcc9ad4)">
     <use xlink:href="#mc9daf0f852" x="0" y="84.96" style="fill: #cbdaeb; stroke: #717171; stroke-width: 0.15"/>
    </g>
   </g>
   <g id="line2d_8">
    <path d="M 23.969164 65.591355 
L 23.969164 58.013877 
" clip-path="url(#p7fcbcc9ad4)" style="fill: none; stroke: #8c8c8c; stroke-width: 0.75; stroke-linecap: round"/>
   </g>
   <g id="line2d_9">
    <path d="M 23.969164 63.408595 
L 23.969164 60.581001 
" clip-path="url(#p7fcbcc9ad4)" style="fill: none; stroke: #8c8c8c; stroke-width: 4; stroke-linecap: round"/>
   </g>
   <g id="line2d_10">
    <path d="M 23.969164 61.683188 
" clip-path="url(#p7fcbcc9ad4)" style="fill: none; stroke: #717171; stroke-width: 1.2; stroke-linecap: round"/>
    <defs>
     <path id="mfb4d672081" d="M 0 0.833333 
C 0.221003 0.833333 0.432983 0.745528 0.589256 0.589256 
C 0.745528 0.432983 0.833333 0.221003 0.833333 0 
C 0.833333 -0.221003 0.745528 -0.432983 0.589256 -0.589256 
C 0.432983 -0.745528 0.221003 -0.833333 0 -0.833333 
C -0.221003 -0.833333 -0.432983 -0.745528 -0.589256 -0.589256 
C -0.745528 -0.432983 -0.833333 -0.221003 -0.833333 0 
C -0.833333 0.221003 -0.745528 0.432983 -0.589256 0.589256 
C -0.432983 0.745528 -0.221003 0.833333 0 0.833333 
z
" style="stroke: #ffffff; stroke-width: 0.8"/>
    </defs>
    <g clip-path="url(#p7fcbcc9ad4)">
     <use xlink:href="#mfb4d672081" x="23.969164" y="61.683188" style="fill: #ffffff; stroke: #ffffff; stroke-width: 0.8"/>
    </g>
   </g>
   <g id="line2d_11">
    <path d="M 48.560763 64.71681 
L 48.560763 29.822795 
" clip-path="url(#p7fcbcc9ad4)" style="fill: none; stroke: #8c8c8c; stroke-width: 0.75; stroke-linecap: round"/>
   </g>
   <g id="line2d_12">
    <path d="M 48.560763 56.853774 
L 48.560763 38.811739 
" clip-path="url(#p7fcbcc9ad4)" style="fill: none; stroke: #8c8c8c; stroke-width: 4; stroke-linecap: round"/>
   </g>
   <g id="line2d_13">
    <path d="M 48.560763 51.706534 
" clip-path="url(#p7fcbcc9ad4)" style="fill: none; stroke: #717171; stroke-width: 1.2; stroke-linecap: round"/>
    <g clip-path="url(#p7fcbcc9ad4)">
     <use xlink:href="#mfb4d672081" x="48.560763" y="51.706534" style="fill: #ffffff; stroke: #ffffff; stroke-width: 0.8"/>
    </g>
   </g>
   <g id="line2d_14">
    <path d="M 73.152362 66.106337 
L 73.152362 62.157746 
" clip-path="url(#p7fcbcc9ad4)" style="fill: none; stroke: #8c8c8c; stroke-width: 0.75; stroke-linecap: round"/>
   </g>
   <g id="line2d_15">
    <path d="M 73.152362 64.941877 
L 73.152362 62.946058 
" clip-path="url(#p7fcbcc9ad4)" style="fill: none; stroke: #8c8c8c; stroke-width: 4; stroke-linecap: round"/>
   </g>
   <g id="line2d_16">
    <path d="M 73.152362 64.215555 
" clip-path="url(#p7fcbcc9ad4)" style="fill: none; stroke: #717171; stroke-width: 1.2; stroke-linecap: round"/>
    <g clip-path="url(#p7fcbcc9ad4)">
     <use xlink:href="#mfb4d672081" x="73.152362" y="64.215555" style="fill: #ffffff; stroke: #ffffff; stroke-width: 0.8"/>
    </g>
   </g>
   <g id="line2d_17">
    <path d="M 97.743961 66.073253 
L 97.743961 64.656976 
" clip-path="url(#p7fcbcc9ad4)" style="fill: none; stroke: #8c8c8c; stroke-width: 0.75; stroke-linecap: round"/>
   </g>
   <g id="line2d_18">
    <path d="M 97.743961 65.972845 
L 97.743961 65.211788 
" clip-path="url(#p7fcbcc9ad4)" style="fill: none; stroke: #8c8c8c; stroke-width: 4; stroke-linecap: round"/>
   </g>
   <g id="line2d_19">
    <path d="M 97.743961 65.482659 
" clip-path="url(#p7fcbcc9ad4)" style="fill: none; stroke: #717171; stroke-width: 1.2; stroke-linecap: round"/>
    <g clip-path="url(#p7fcbcc9ad4)">
     <use xlink:href="#mfb4d672081" x="97.743961" y="65.482659" style="fill: #ffffff; stroke: #ffffff; stroke-width: 0.8"/>
    </g>
   </g>
   <g id="patch_3">
    <path d="M 11.673365 74.393822 
L 11.673365 4.076256 
" style="fill: none; stroke: #777777; stroke-width: 0.5; stroke-linejoin: miter; stroke-linecap: square"/>
   </g>
   <g id="patch_4">
    <path d="M 11.673365 76.893822 
L 110.03976 76.893822 
" style="fill: none; stroke: #777777; stroke-width: 0.5; stroke-linejoin: miter; stroke-linecap: square"/>
   </g>
  </g>
 </g>
 <defs>
  <clipPath id="p7fcbcc9ad4">
   <rect x="11.673365" y="4.076256" width="98.366395" height="70.317567"/>
  </clipPath>
 </defs>
</svg>
