<?xml version="1.0" encoding="utf-8" standalone="no"?>
<!DOCTYPE svg PUBLIC "-//W3C//DTD SVG 1.1//EN"
  "http://www.w3.org/Graphics/SVG/1.1/DTD/svg11.dtd">
<svg xmlns:xlink="http://www.w3.org/1999/xlink" width="84.96pt" height="84.96pt" viewBox="0 0 84.96 84.96" xmlns="http://www.w3.org/2000/svg" version="1.1">
 <metadata>
  <rdf:RDF xmlns:dc="http://purl.org/dc/elements/1.1/" xmlns:cc="http://creativecommons.org/ns#" xmlns:rdf="http://www.w3.org/1999/02/22-rdf-syntax-ns#">
   <cc:Work>
    <dc:type rdf:resource="http://purl.org/dc/dcmitype/StillImage"/>
    <dc:date>2024-05-27T15:37:11.799280</dc:date>
    <dc:format>image/svg+xml</dc:format>
    <dc:creator>
     <cc:Agent>
      <dc:title>Matplotlib v3.8.3, https://matplotlib.org/</dc:title>
     </cc:Agent>
    </dc:creator>
   </cc:Work>
  </rdf:RDF>
 </metadata>
 <defs>
  <style type="text/css">*{stroke-linejoin: round; stroke-linecap: butt}</style>
 </defs>
 <g id="figure_1">
  <g id="patch_1">
   <path d="M 0 84.96 
L 84.96 84.96 
L 84.96 0 
L 0 0 
z
" style="fill: #ffffff"/>
  </g>
  <g id="axes_1">
   <g id="patch_2">
    <path d="M 10.005084 74.419526 
L 81.95976 74.419526 
L 81.95976 4.076256 
L 10.005084 4.076256 
z
" style="fill: #ffffff"/>
   </g>
   <g id="matplotlib.axis_1">
    <g id="xtick_1">
     <g id="text_1">
      <!-- NK/ILC1ie -->
      <g style="fill: #333333" transform="translate(14.021905 81.230229) scale(0.035 -0.035)">
       <defs>
        <path id="Helvetica-4e" d="M 488 4591 
L 1222 4591 
L 3541 872 
L 3541 4591 
L 4131 4591 
L 4131 0 
L 3434 0 
L 1081 3716 
L 1081 0 
L 488 0 
L 488 4591 
z
M 2269 4591 
L 2269 4591 
z
" transform="scale(0.015625)"/>
        <path id="Helvetica-4b" d="M 488 4591 
L 1094 4591 
L 1094 2353 
L 3331 4591 
L 4191 4591 
L 2281 2741 
L 4244 0 
L 3434 0 
L 1828 2303 
L 1094 1600 
L 1094 0 
L 488 0 
L 488 4591 
z
" transform="scale(0.015625)"/>
        <path id="Helvetica-2f" d="M 1456 4591 
L 1931 4591 
L 475 0 
L 0 0 
L 1456 4591 
z
" transform="scale(0.015625)"/>
        <path id="Helvetica-49" d="M 628 4591 
L 1256 4591 
L 1256 0 
L 628 0 
L 628 4591 
z
" transform="scale(0.015625)"/>
        <path id="Helvetica-4c" d="M 488 4591 
L 1109 4591 
L 1109 547 
L 3434 547 
L 3434 0 
L 488 0 
L 488 4591 
z
" transform="scale(0.015625)"/>
        <path id="Helvetica-43" d="M 2422 4716 
Q 3294 4716 3775 4256 
Q 4256 3797 4309 3213 
L 3703 3213 
Q 3600 3656 3292 3915 
Q 2984 4175 2428 4175 
Q 1750 4175 1333 3698 
Q 916 3222 916 2238 
Q 916 1431 1292 929 
Q 1669 428 2416 428 
Q 3103 428 3463 956 
Q 3653 1234 3747 1688 
L 4353 1688 
Q 4272 963 3816 472 
Q 3269 -119 2341 -119 
Q 1541 -119 997 366 
Q 281 1006 281 2344 
Q 281 3359 819 4009 
Q 1400 4716 2422 4716 
z
M 2297 4716 
L 2297 4716 
z
" transform="scale(0.015625)"/>
        <path id="Helvetica-31" d="M 613 3169 
L 613 3600 
Q 1222 3659 1462 3798 
Q 1703 3938 1822 4456 
L 2266 4456 
L 2266 0 
L 1666 0 
L 1666 3169 
L 613 3169 
z
" transform="scale(0.015625)"/>
        <path id="Helvetica-69" d="M 413 3331 
L 984 3331 
L 984 0 
L 413 0 
L 413 3331 
z
M 413 4591 
L 984 4591 
L 984 3953 
L 413 3953 
L 413 4591 
z
" transform="scale(0.015625)"/>
        <path id="Helvetica-65" d="M 1806 3422 
Q 2163 3422 2497 3255 
Q 2831 3088 3006 2822 
Q 3175 2569 3231 2231 
Q 3281 2000 3281 1494 
L 828 1494 
Q 844 984 1069 676 
Q 1294 369 1766 369 
Q 2206 369 2469 659 
Q 2619 828 2681 1050 
L 3234 1050 
Q 3213 866 3089 639 
Q 2966 413 2813 269 
Q 2556 19 2178 -69 
Q 1975 -119 1719 -119 
Q 1094 -119 659 336 
Q 225 791 225 1609 
Q 225 2416 662 2919 
Q 1100 3422 1806 3422 
z
M 2703 1941 
Q 2669 2306 2544 2525 
Q 2313 2931 1772 2931 
Q 1384 2931 1121 2651 
Q 859 2372 844 1941 
L 2703 1941 
z
M 1753 3428 
L 1753 3428 
z
" transform="scale(0.015625)"/>
       </defs>
       <use xlink:href="#Helvetica-4e"/>
       <use xlink:href="#Helvetica-4b" x="72.216797"/>
       <use xlink:href="#Helvetica-2f" x="138.916016"/>
       <use xlink:href="#Helvetica-49" x="166.699219"/>
       <use xlink:href="#Helvetica-4c" x="194.482422"/>
       <use xlink:href="#Helvetica-43" x="250.097656"/>
       <use xlink:href="#Helvetica-31" x="322.314453"/>
       <use xlink:href="#Helvetica-69" x="377.929688"/>
       <use xlink:href="#Helvetica-65" x="400.146484"/>
      </g>
     </g>
    </g>
    <g id="xtick_2">
     <g id="text_2">
      <!-- ILC1 -->
      <g style="fill: #333333" transform="translate(42.286094 81.230229) scale(0.035 -0.035)">
       <use xlink:href="#Helvetica-49"/>
       <use xlink:href="#Helvetica-4c" x="27.783203"/>
       <use xlink:href="#Helvetica-43" x="83.398438"/>
       <use xlink:href="#Helvetica-31" x="155.615234"/>
      </g>
     </g>
    </g>
    <g id="xtick_3">
     <g id="text_3">
      <!-- TH1 -->
      <g style="fill: #333333" transform="translate(66.661455 81.230229) scale(0.035 -0.035)">
       <defs>
        <path id="Helvetica-54" d="M 3828 4591 
L 3828 4044 
L 2281 4044 
L 2281 0 
L 1650 0 
L 1650 4044 
L 103 4044 
L 103 4591 
L 3828 4591 
z
" transform="scale(0.015625)"/>
        <path id="Helvetica-48" d="M 503 4591 
L 1131 4591 
L 1131 2694 
L 3519 2694 
L 3519 4591 
L 4147 4591 
L 4147 0 
L 3519 0 
L 3519 2147 
L 1131 2147 
L 1131 0 
L 503 0 
L 503 4591 
z
" transform="scale(0.015625)"/>
       </defs>
       <use xlink:href="#Helvetica-54"/>
       <use xlink:href="#Helvetica-48" x="61.083984"/>
       <use xlink:href="#Helvetica-31" x="133.300781"/>
      </g>
     </g>
    </g>
   </g>
   <g id="matplotlib.axis_2">
    <g id="ytick_1">
     <g id="line2d_1">
      <defs>
       <path id="m4031c14a75" d="M 0 0 
L -1 0 
" style="stroke: #777777; stroke-width: 0.5"/>
      </defs>
      <g>
       <use xlink:href="#m4031c14a75" x="10.005084" y="65.703651" style="fill: #777777; stroke: #777777; stroke-width: 0.5"/>
      </g>
     </g>
     <g id="text_4">
      <!-- 0 -->
      <g style="fill: #333333" transform="translate(6.336803 66.779667) scale(0.03 -0.03)">
       <defs>
        <path id="Helvetica-30" d="M 1731 4475 
Q 2600 4475 2988 3759 
Q 3288 3206 3288 2244 
Q 3288 1331 3016 734 
Q 2622 -122 1728 -122 
Q 922 -122 528 578 
Q 200 1163 200 2147 
Q 200 2909 397 3456 
Q 766 4475 1731 4475 
z
M 1725 391 
Q 2163 391 2422 778 
Q 2681 1166 2681 2222 
Q 2681 2984 2493 3476 
Q 2306 3969 1766 3969 
Q 1269 3969 1039 3501 
Q 809 3034 809 2125 
Q 809 1441 956 1025 
Q 1181 391 1725 391 
z
" transform="scale(0.015625)"/>
       </defs>
       <use xlink:href="#Helvetica-30"/>
      </g>
     </g>
    </g>
    <g id="ytick_2">
     <g id="line2d_2">
      <g>
       <use xlink:href="#m4031c14a75" x="10.005084" y="56.899737" style="fill: #777777; stroke: #777777; stroke-width: 0.5"/>
      </g>
     </g>
     <g id="text_5">
      <!-- 100 -->
      <g style="fill: #333333" transform="translate(3.00024 57.975753) scale(0.03 -0.03)">
       <use xlink:href="#Helvetica-31"/>
       <use xlink:href="#Helvetica-30" x="55.615234"/>
       <use xlink:href="#Helvetica-30" x="111.230469"/>
      </g>
     </g>
    </g>
    <g id="ytick_3">
     <g id="line2d_3">
      <g>
       <use xlink:href="#m4031c14a75" x="10.005084" y="48.095824" style="fill: #777777; stroke: #777777; stroke-width: 0.5"/>
      </g>
     </g>
     <g id="text_6">
      <!-- 200 -->
      <g style="fill: #333333" transform="translate(3.00024 49.171839) scale(0.03 -0.03)">
       <defs>
        <path id="Helvetica-32" d="M 200 0 
Q 231 578 439 1006 
Q 647 1434 1250 1784 
L 1850 2131 
Q 2253 2366 2416 2531 
Q 2672 2791 2672 3125 
Q 2672 3516 2437 3745 
Q 2203 3975 1813 3975 
Q 1234 3975 1013 3538 
Q 894 3303 881 2888 
L 309 2888 
Q 319 3472 525 3841 
Q 891 4491 1816 4491 
Q 2584 4491 2939 4075 
Q 3294 3659 3294 3150 
Q 3294 2613 2916 2231 
Q 2697 2009 2131 1694 
L 1703 1456 
Q 1397 1288 1222 1134 
Q 909 863 828 531 
L 3272 531 
L 3272 0 
L 200 0 
z
" transform="scale(0.015625)"/>
       </defs>
       <use xlink:href="#Helvetica-32"/>
       <use xlink:href="#Helvetica-30" x="55.615234"/>
       <use xlink:href="#Helvetica-30" x="111.230469"/>
      </g>
     </g>
    </g>
    <g id="ytick_4">
     <g id="line2d_4">
      <g>
       <use xlink:href="#m4031c14a75" x="10.005084" y="39.29191" style="fill: #777777; stroke: #777777; stroke-width: 0.5"/>
      </g>
     </g>
     <g id="text_7">
      <!-- 300 -->
      <g style="fill: #333333" transform="translate(3.00024 40.367926) scale(0.03 -0.03)">
       <defs>
        <path id="Helvetica-33" d="M 1663 -122 
Q 869 -122 511 314 
Q 153 750 153 1375 
L 741 1375 
Q 778 941 903 744 
Q 1122 391 1694 391 
Q 2138 391 2406 628 
Q 2675 866 2675 1241 
Q 2675 1703 2392 1887 
Q 2109 2072 1606 2072 
Q 1550 2072 1492 2070 
Q 1434 2069 1375 2066 
L 1375 2563 
Q 1463 2553 1522 2550 
Q 1581 2547 1650 2547 
Q 1966 2547 2169 2647 
Q 2525 2822 2525 3272 
Q 2525 3606 2287 3787 
Q 2050 3969 1734 3969 
Q 1172 3969 956 3594 
Q 838 3388 822 3006 
L 266 3006 
Q 266 3506 466 3856 
Q 809 4481 1675 4481 
Q 2359 4481 2734 4176 
Q 3109 3872 3109 3294 
Q 3109 2881 2888 2625 
Q 2750 2466 2531 2375 
Q 2884 2278 3082 2001 
Q 3281 1725 3281 1325 
Q 3281 684 2859 281 
Q 2438 -122 1663 -122 
z
" transform="scale(0.015625)"/>
       </defs>
       <use xlink:href="#Helvetica-33"/>
       <use xlink:href="#Helvetica-30" x="55.615234"/>
       <use xlink:href="#Helvetica-30" x="111.230469"/>
      </g>
     </g>
    </g>
    <g id="ytick_5">
     <g id="line2d_5">
      <g>
       <use xlink:href="#m4031c14a75" x="10.005084" y="30.487997" style="fill: #777777; stroke: #777777; stroke-width: 0.5"/>
      </g>
     </g>
     <g id="text_8">
      <!-- 400 -->
      <g style="fill: #333333" transform="translate(3.00024 31.564012) scale(0.03 -0.03)">
       <defs>
        <path id="Helvetica-34" d="M 2116 1584 
L 2116 3613 
L 681 1584 
L 2116 1584 
z
M 2125 0 
L 2125 1094 
L 163 1094 
L 163 1644 
L 2213 4488 
L 2688 4488 
L 2688 1584 
L 3347 1584 
L 3347 1094 
L 2688 1094 
L 2688 0 
L 2125 0 
z
" transform="scale(0.015625)"/>
       </defs>
       <use xlink:href="#Helvetica-34"/>
       <use xlink:href="#Helvetica-30" x="55.615234"/>
       <use xlink:href="#Helvetica-30" x="111.230469"/>
      </g>
     </g>
    </g>
    <g id="ytick_6">
     <g id="line2d_6">
      <g>
       <use xlink:href="#m4031c14a75" x="10.005084" y="21.684083" style="fill: #777777; stroke: #777777; stroke-width: 0.5"/>
      </g>
     </g>
     <g id="text_9">
      <!-- 500 -->
      <g style="fill: #333333" transform="translate(3.00024 22.760099) scale(0.03 -0.03)">
       <defs>
        <path id="Helvetica-35" d="M 791 1141 
Q 847 659 1238 475 
Q 1438 381 1700 381 
Q 2200 381 2440 700 
Q 2681 1019 2681 1406 
Q 2681 1875 2395 2131 
Q 2109 2388 1709 2388 
Q 1419 2388 1211 2275 
Q 1003 2163 856 1963 
L 369 1991 
L 709 4400 
L 3034 4400 
L 3034 3856 
L 1131 3856 
L 941 2613 
Q 1097 2731 1238 2791 
Q 1488 2894 1816 2894 
Q 2431 2894 2859 2497 
Q 3288 2100 3288 1491 
Q 3288 856 2895 371 
Q 2503 -113 1644 -113 
Q 1097 -113 676 195 
Q 256 503 206 1141 
L 791 1141 
z
" transform="scale(0.015625)"/>
       </defs>
       <use xlink:href="#Helvetica-35"/>
       <use xlink:href="#Helvetica-30" x="55.615234"/>
       <use xlink:href="#Helvetica-30" x="111.230469"/>
      </g>
     </g>
    </g>
    <g id="ytick_7">
     <g id="line2d_7">
      <g>
       <use xlink:href="#m4031c14a75" x="10.005084" y="12.880169" style="fill: #777777; stroke: #777777; stroke-width: 0.5"/>
      </g>
     </g>
     <g id="text_10">
      <!-- 600 -->
      <g style="fill: #333333" transform="translate(3.00024 13.956185) scale(0.03 -0.03)">
       <defs>
        <path id="Helvetica-36" d="M 1872 4494 
Q 2622 4494 2917 4105 
Q 3213 3716 3213 3303 
L 2656 3303 
Q 2606 3569 2497 3719 
Q 2294 4000 1881 4000 
Q 1409 4000 1131 3564 
Q 853 3128 822 2316 
Q 1016 2600 1309 2741 
Q 1578 2866 1909 2866 
Q 2472 2866 2890 2506 
Q 3309 2147 3309 1434 
Q 3309 825 2912 354 
Q 2516 -116 1781 -116 
Q 1153 -116 697 361 
Q 241 838 241 1966 
Q 241 2800 444 3381 
Q 834 4494 1872 4494 
z
M 1831 384 
Q 2275 384 2495 682 
Q 2716 981 2716 1388 
Q 2716 1731 2519 2042 
Q 2322 2353 1803 2353 
Q 1441 2353 1167 2112 
Q 894 1872 894 1388 
Q 894 963 1142 673 
Q 1391 384 1831 384 
z
" transform="scale(0.015625)"/>
       </defs>
       <use xlink:href="#Helvetica-36"/>
       <use xlink:href="#Helvetica-30" x="55.615234"/>
       <use xlink:href="#Helvetica-30" x="111.230469"/>
      </g>
     </g>
    </g>
    <g id="ytick_8">
     <g id="line2d_8">
      <g>
       <use xlink:href="#m4031c14a75" x="10.005084" y="4.076256" style="fill: #777777; stroke: #777777; stroke-width: 0.5"/>
      </g>
     </g>
     <g id="text_11">
      <!-- 700 -->
      <g style="fill: #333333" transform="translate(3.00024 5.152271) scale(0.03 -0.03)">
       <defs>
        <path id="Helvetica-37" d="M 3347 4400 
L 3347 3909 
Q 3131 3700 2773 3181 
Q 2416 2663 2141 2063 
Q 1869 1478 1728 997 
Q 1638 688 1494 0 
L 872 0 
Q 1084 1281 1809 2550 
Q 2238 3294 2709 3834 
L 234 3834 
L 234 4400 
L 3347 4400 
z
" transform="scale(0.015625)"/>
       </defs>
       <use xlink:href="#Helvetica-37"/>
       <use xlink:href="#Helvetica-30" x="55.615234"/>
       <use xlink:href="#Helvetica-30" x="111.230469"/>
      </g>
     </g>
    </g>
   </g>
   <g id="PolyCollection_1">
    <defs>
     <path id="m04ae363cb0" d="M 23.031769 -17.054563 
L 20.96329 -17.054563 
L 20.769794 -17.286278 
L 20.551671 -17.517993 
L 20.307976 -17.749709 
L 20.038091 -17.981424 
L 19.741772 -18.21314 
L 19.419191 -18.444855 
L 19.070976 -18.676571 
L 18.698253 -18.908286 
L 18.302676 -19.140002 
L 17.886467 -19.371717 
L 17.452443 -19.603433 
L 17.004045 -19.835148 
L 16.545352 -20.066864 
L 16.081095 -20.298579 
L 15.61664 -20.530295 
L 15.157953 -20.76201 
L 14.711541 -20.993726 
L 14.284353 -21.225441 
L 13.883649 -21.457157 
L 13.516826 -21.688872 
L 13.191222 -21.920588 
L 12.913877 -22.152303 
L 12.691289 -22.384019 
L 12.529156 -22.615734 
L 12.432126 -22.84745 
L 12.403573 -23.079165 
L 12.445408 -23.310881 
L 12.557944 -23.542596 
L 12.73982 -23.774312 
L 12.987994 -24.006027 
L 13.297812 -24.237742 
L 13.663134 -24.469458 
L 14.076536 -24.701173 
L 14.529553 -24.932889 
L 15.012963 -25.164604 
L 15.517087 -25.39632 
L 16.032099 -25.628035 
L 16.548324 -25.859751 
L 17.056499 -26.091466 
L 17.548011 -26.323182 
L 18.015078 -26.554897 
L 18.450887 -26.786613 
L 18.849674 -27.018328 
L 19.206764 -27.250044 
L 19.518567 -27.481759 
L 19.78254 -27.713475 
L 19.997125 -27.94519 
L 20.161676 -28.176906 
L 20.276378 -28.408621 
L 20.342165 -28.640337 
L 20.360656 -28.872052 
L 20.334084 -29.103768 
L 20.265254 -29.335483 
L 20.15749 -29.567199 
L 20.014605 -29.798914 
L 19.840855 -30.03063 
L 19.640897 -30.262345 
L 19.419731 -30.494061 
L 19.18263 -30.725776 
L 18.935049 -30.957491 
L 18.682525 -31.189207 
L 18.430549 -31.420922 
L 18.18444 -31.652638 
L 17.949209 -31.884353 
L 17.729429 -32.116069 
L 17.529114 -32.347784 
L 17.351626 -32.5795 
L 17.1996 -32.811215 
L 17.074914 -33.042931 
L 16.978684 -33.274646 
L 16.911303 -33.506362 
L 16.872509 -33.738077 
L 16.861484 -33.969793 
L 16.876967 -34.201508 
L 16.91738 -34.433224 
L 16.980954 -34.664939 
L 17.065841 -34.896655 
L 17.17021 -35.12837 
L 17.292317 -35.360086 
L 17.430543 -35.591801 
L 17.583405 -35.823517 
L 17.749543 -36.055232 
L 17.927678 -36.286948 
L 18.116562 -36.518663 
L 18.31492 -36.750379 
L 18.52139 -36.982094 
L 18.734485 -37.21381 
L 18.952558 -37.445525 
L 19.173797 -37.677241 
L 19.39624 -37.908956 
L 19.61781 -38.140671 
L 19.83637 -38.372387 
L 20.049792 -38.604102 
L 20.256029 -38.835818 
L 20.453191 -39.067533 
L 20.639613 -39.299249 
L 20.813915 -39.530964 
L 20.975039 -39.76268 
L 21.122275 -39.994395 
L 22.872785 -39.994395 
L 22.872785 -39.994395 
L 23.020021 -39.76268 
L 23.181145 -39.530964 
L 23.355446 -39.299249 
L 23.541869 -39.067533 
L 23.739031 -38.835818 
L 23.945267 -38.604102 
L 24.158689 -38.372387 
L 24.37725 -38.140671 
L 24.59882 -37.908956 
L 24.821263 -37.677241 
L 25.042502 -37.445525 
L 25.260575 -37.21381 
L 25.47367 -36.982094 
L 25.68014 -36.750379 
L 25.878497 -36.518663 
L 26.067381 -36.286948 
L 26.245516 -36.055232 
L 26.411654 -35.823517 
L 26.564517 -35.591801 
L 26.702742 -35.360086 
L 26.824849 -35.12837 
L 26.929219 -34.896655 
L 27.014106 -34.664939 
L 27.077679 -34.433224 
L 27.118092 -34.201508 
L 27.133575 -33.969793 
L 27.12255 -33.738077 
L 27.083757 -33.506362 
L 27.016376 -33.274646 
L 26.920146 -33.042931 
L 26.79546 -32.811215 
L 26.643434 -32.5795 
L 26.465945 -32.347784 
L 26.265631 -32.116069 
L 26.04585 -31.884353 
L 25.81062 -31.652638 
L 25.564511 -31.420922 
L 25.312534 -31.189207 
L 25.06001 -30.957491 
L 24.81243 -30.725776 
L 24.575329 -30.494061 
L 24.354163 -30.262345 
L 24.154205 -30.03063 
L 23.980455 -29.798914 
L 23.83757 -29.567199 
L 23.729806 -29.335483 
L 23.660975 -29.103768 
L 23.634404 -28.872052 
L 23.652894 -28.640337 
L 23.718682 -28.408621 
L 23.833383 -28.176906 
L 23.997934 -27.94519 
L 24.212519 -27.713475 
L 24.476492 -27.481759 
L 24.788296 -27.250044 
L 25.145386 -27.018328 
L 25.544173 -26.786613 
L 25.979981 -26.554897 
L 26.447049 -26.323182 
L 26.938561 -26.091466 
L 27.446736 -25.859751 
L 27.96296 -25.628035 
L 28.477973 -25.39632 
L 28.982097 -25.164604 
L 29.465506 -24.932889 
L 29.918524 -24.701173 
L 30.331926 -24.469458 
L 30.697248 -24.237742 
L 31.007065 -24.006027 
L 31.25524 -23.774312 
L 31.437116 -23.542596 
L 31.549652 -23.310881 
L 31.591487 -23.079165 
L 31.562933 -22.84745 
L 31.465903 -22.615734 
L 31.30377 -22.384019 
L 31.081183 -22.152303 
L 30.803838 -21.920588 
L 30.478233 -21.688872 
L 30.111411 -21.457157 
L 29.710706 -21.225441 
L 29.283519 -20.993726 
L 28.837107 -20.76201 
L 28.37842 -20.530295 
L 27.913964 -20.298579 
L 27.449707 -20.066864 
L 26.991015 -19.835148 
L 26.542616 -19.603433 
L 26.108592 -19.371717 
L 25.692383 -19.140002 
L 25.296807 -18.908286 
L 24.924083 -18.676571 
L 24.575869 -18.444855 
L 24.253287 -18.21314 
L 23.956968 -17.981424 
L 23.687084 -17.749709 
L 23.443389 -17.517993 
L 23.225266 -17.286278 
L 23.031769 -17.054563 
z
" style="stroke: #6f6f6f; stroke-width: 0.15"/>
    </defs>
    <g clip-path="url(#pe15d6c33d0)">
     <use xlink:href="#m04ae363cb0" x="0" y="84.96" style="fill: #98daa7; stroke: #6f6f6f; stroke-width: 0.15"/>
    </g>
   </g>
   <g id="PolyCollection_2">
    <defs>
     <path id="ma76346ae52" d="M 47.042494 -17.849823 
L 44.92235 -17.849823 
L 44.709558 -17.992416 
L 44.468487 -18.135009 
L 44.198295 -18.277602 
L 43.898622 -18.420195 
L 43.569643 -18.562788 
L 43.212105 -18.705381 
L 42.827361 -18.847974 
L 42.417388 -18.990567 
L 41.984802 -19.13316 
L 41.532878 -19.275753 
L 41.065556 -19.418346 
L 40.587447 -19.560939 
L 40.103833 -19.703533 
L 39.62065 -19.846126 
L 39.144446 -19.988719 
L 38.682319 -20.131312 
L 38.241806 -20.273905 
L 37.830732 -20.416498 
L 37.457017 -20.559091 
L 37.128437 -20.701684 
L 36.852346 -20.844277 
L 36.635379 -20.98687 
L 36.483147 -21.129463 
L 36.399939 -21.272056 
L 36.388465 -21.414649 
L 36.44964 -21.557242 
L 36.582448 -21.699835 
L 36.783875 -21.842428 
L 37.04894 -21.985021 
L 37.37081 -22.127614 
L 37.741004 -22.270207 
L 38.149663 -22.4128 
L 38.585893 -22.555393 
L 39.038149 -22.697986 
L 39.494641 -22.840579 
L 39.943756 -22.983172 
L 40.374463 -23.125765 
L 40.776699 -23.268358 
L 41.141708 -23.410951 
L 41.462326 -23.553544 
L 41.7332 -23.696137 
L 41.950945 -23.83873 
L 42.114208 -23.981323 
L 42.223663 -24.123916 
L 42.28193 -24.266509 
L 42.29341 -24.409102 
L 42.264067 -24.551695 
L 42.201143 -24.694288 
L 42.112834 -24.836881 
L 42.007939 -24.979475 
L 41.895484 -25.122068 
L 41.784364 -25.264661 
L 41.682983 -25.407254 
L 41.598938 -25.549847 
L 41.538738 -25.69244 
L 41.507578 -25.835033 
L 41.509171 -25.977626 
L 41.545644 -26.120219 
L 41.617506 -26.262812 
L 41.723669 -26.405405 
L 41.861548 -26.547998 
L 42.027204 -26.690591 
L 42.215551 -26.833184 
L 42.420593 -26.975777 
L 42.635702 -27.11837 
L 42.853913 -27.260963 
L 43.068233 -27.403556 
L 43.27194 -27.546149 
L 43.458877 -27.688742 
L 43.623714 -27.831335 
L 43.762177 -27.973928 
L 43.871227 -28.116521 
L 43.949191 -28.259114 
L 43.995829 -28.401707 
L 44.012333 -28.5443 
L 44.001265 -28.686893 
L 43.966426 -28.829486 
L 43.912669 -28.972079 
L 43.845652 -29.114672 
L 43.771554 -29.257265 
L 43.696761 -29.399858 
L 43.627546 -29.542451 
L 43.569752 -29.685044 
L 43.528503 -29.827637 
L 43.507961 -29.97023 
L 43.511143 -30.112823 
L 43.539803 -30.255417 
L 43.594403 -30.39801 
L 43.674149 -30.540603 
L 43.777105 -30.683196 
L 43.900369 -30.825789 
L 44.040294 -30.968382 
L 44.192735 -31.110975 
L 44.353309 -31.253568 
L 44.517641 -31.396161 
L 44.681591 -31.538754 
L 44.841434 -31.681347 
L 44.994 -31.82394 
L 45.136759 -31.966533 
L 46.828085 -31.966533 
L 46.828085 -31.966533 
L 46.970844 -31.82394 
L 47.12341 -31.681347 
L 47.283253 -31.538754 
L 47.447202 -31.396161 
L 47.611535 -31.253568 
L 47.772108 -31.110975 
L 47.924549 -30.968382 
L 48.064474 -30.825789 
L 48.187739 -30.683196 
L 48.290695 -30.540603 
L 48.37044 -30.39801 
L 48.42504 -30.255417 
L 48.453701 -30.112823 
L 48.456882 -29.97023 
L 48.436341 -29.827637 
L 48.395092 -29.685044 
L 48.337298 -29.542451 
L 48.268083 -29.399858 
L 48.19329 -29.257265 
L 48.119192 -29.114672 
L 48.052174 -28.972079 
L 47.998418 -28.829486 
L 47.963579 -28.686893 
L 47.952511 -28.5443 
L 47.969014 -28.401707 
L 48.015652 -28.259114 
L 48.093617 -28.116521 
L 48.202667 -27.973928 
L 48.34113 -27.831335 
L 48.505967 -27.688742 
L 48.692904 -27.546149 
L 48.896611 -27.403556 
L 49.11093 -27.260963 
L 49.329142 -27.11837 
L 49.544251 -26.975777 
L 49.749292 -26.833184 
L 49.937639 -26.690591 
L 50.103296 -26.547998 
L 50.241175 -26.405405 
L 50.347338 -26.262812 
L 50.419199 -26.120219 
L 50.455673 -25.977626 
L 50.457266 -25.835033 
L 50.426106 -25.69244 
L 50.365906 -25.549847 
L 50.281861 -25.407254 
L 50.18048 -25.264661 
L 50.06936 -25.122068 
L 49.956905 -24.979475 
L 49.852009 -24.836881 
L 49.763701 -24.694288 
L 49.700777 -24.551695 
L 49.671434 -24.409102 
L 49.682914 -24.266509 
L 49.741181 -24.123916 
L 49.850636 -23.981323 
L 50.013898 -23.83873 
L 50.231643 -23.696137 
L 50.502518 -23.553544 
L 50.823135 -23.410951 
L 51.188144 -23.268358 
L 51.590381 -23.125765 
L 52.021088 -22.983172 
L 52.470203 -22.840579 
L 52.926695 -22.697986 
L 53.37895 -22.555393 
L 53.815181 -22.4128 
L 54.22384 -22.270207 
L 54.594033 -22.127614 
L 54.915904 -21.985021 
L 55.180969 -21.842428 
L 55.382396 -21.699835 
L 55.515203 -21.557242 
L 55.576379 -21.414649 
L 55.564904 -21.272056 
L 55.481697 -21.129463 
L 55.329465 -20.98687 
L 55.112498 -20.844277 
L 54.836407 -20.701684 
L 54.507826 -20.559091 
L 54.134112 -20.416498 
L 53.723038 -20.273905 
L 53.282524 -20.131312 
L 52.820398 -19.988719 
L 52.344194 -19.846126 
L 51.86101 -19.703533 
L 51.377397 -19.560939 
L 50.899288 -19.418346 
L 50.431966 -19.275753 
L 49.980042 -19.13316 
L 49.547456 -18.990567 
L 49.137482 -18.847974 
L 48.752738 -18.705381 
L 48.395201 -18.562788 
L 48.066222 -18.420195 
L 47.766548 -18.277602 
L 47.496356 -18.135009 
L 47.255286 -17.992416 
L 47.042494 -17.849823 
z
" style="stroke: #6f6f6f; stroke-width: 0.15"/>
    </defs>
    <g clip-path="url(#pe15d6c33d0)">
     <use xlink:href="#ma76346ae52" x="0" y="84.96" style="fill: #f2aba8; stroke: #6f6f6f; stroke-width: 0.15"/>
    </g>
   </g>
   <g id="PolyCollection_3">
    <defs>
     <path id="mfb746372c0" d="M 71.55757 -16.711513 
L 68.377058 -16.711513 
L 68.075501 -16.906898 
L 67.738637 -17.102282 
L 67.367063 -17.297667 
L 66.962425 -17.493051 
L 66.527484 -17.688436 
L 66.066133 -17.88382 
L 65.583353 -18.079205 
L 65.085119 -18.274589 
L 64.578243 -18.469974 
L 64.070168 -18.665358 
L 63.568726 -18.860743 
L 63.081867 -19.056127 
L 62.61738 -19.251512 
L 62.182627 -19.446896 
L 61.784303 -19.642281 
L 61.428237 -19.837665 
L 61.11925 -20.03305 
L 60.861073 -20.228434 
L 60.656328 -20.423819 
L 60.506563 -20.619203 
L 60.41234 -20.814588 
L 60.373357 -21.009972 
L 60.388583 -21.205357 
L 60.456402 -21.400741 
L 60.574741 -21.596126 
L 60.741177 -21.79151 
L 60.953007 -21.986895 
L 61.207291 -22.182279 
L 61.500851 -22.377664 
L 61.830263 -22.573048 
L 62.191814 -22.768433 
L 62.581471 -22.963817 
L 62.99485 -23.159202 
L 63.427213 -23.354586 
L 63.873483 -23.549971 
L 64.328301 -23.745355 
L 64.786106 -23.94074 
L 65.241249 -24.136124 
L 65.688127 -24.331509 
L 66.121322 -24.526893 
L 66.535744 -24.722278 
L 66.926764 -24.917662 
L 67.290325 -25.113047 
L 67.623023 -25.308431 
L 67.92216 -25.503816 
L 68.185766 -25.6992 
L 68.412593 -25.894585 
L 68.602078 -26.08997 
L 68.754298 -26.285354 
L 68.869908 -26.480739 
L 68.950077 -26.676123 
L 68.99643 -26.871508 
L 69.010989 -27.066892 
L 68.996124 -27.262277 
L 68.954517 -27.457661 
L 68.889118 -27.653046 
L 68.803114 -27.84843 
L 68.699883 -28.043815 
L 68.582947 -28.239199 
L 68.455912 -28.434584 
L 68.32239 -28.629968 
L 68.185914 -28.825353 
L 68.049845 -29.020737 
L 67.917271 -29.216122 
L 67.790915 -29.411506 
L 67.673048 -29.606891 
L 67.565436 -29.802275 
L 67.469297 -29.99766 
L 67.38531 -30.193044 
L 67.313646 -30.388429 
L 67.254038 -30.583813 
L 67.205881 -30.779198 
L 67.168356 -30.974582 
L 67.140558 -31.169967 
L 67.121629 -31.365351 
L 67.110874 -31.560736 
L 67.107856 -31.75612 
L 67.112448 -31.951505 
L 67.124855 -32.146889 
L 67.145589 -32.342274 
L 67.175408 -32.537658 
L 67.21522 -32.733043 
L 67.265967 -32.928427 
L 67.328498 -33.123812 
L 67.403445 -33.319196 
L 67.491114 -33.514581 
L 67.591401 -33.709965 
L 67.703738 -33.90535 
L 67.827084 -34.100734 
L 67.959948 -34.296119 
L 68.100444 -34.491503 
L 68.246385 -34.686888 
L 68.395385 -34.882272 
L 68.54498 -35.077657 
L 68.692745 -35.273041 
L 68.836407 -35.468426 
L 68.973936 -35.66381 
L 69.103619 -35.859195 
L 69.22411 -36.054579 
L 70.710518 -36.054579 
L 70.710518 -36.054579 
L 70.831009 -35.859195 
L 70.960692 -35.66381 
L 71.098221 -35.468426 
L 71.241883 -35.273041 
L 71.389648 -35.077657 
L 71.539243 -34.882272 
L 71.688243 -34.686888 
L 71.834184 -34.491503 
L 71.97468 -34.296119 
L 72.107544 -34.100734 
L 72.23089 -33.90535 
L 72.343227 -33.709965 
L 72.443513 -33.514581 
L 72.531183 -33.319196 
L 72.60613 -33.123812 
L 72.668661 -32.928427 
L 72.719408 -32.733043 
L 72.759219 -32.537658 
L 72.789039 -32.342274 
L 72.809773 -32.146889 
L 72.82218 -31.951505 
L 72.826772 -31.75612 
L 72.823753 -31.560736 
L 72.812999 -31.365351 
L 72.79407 -31.169967 
L 72.766272 -30.974582 
L 72.728747 -30.779198 
L 72.68059 -30.583813 
L 72.620982 -30.388429 
L 72.549318 -30.193044 
L 72.465331 -29.99766 
L 72.369192 -29.802275 
L 72.26158 -29.606891 
L 72.143713 -29.411506 
L 72.017357 -29.216122 
L 71.884783 -29.020737 
L 71.748714 -28.825353 
L 71.612238 -28.629968 
L 71.478716 -28.434584 
L 71.35168 -28.239199 
L 71.234745 -28.043815 
L 71.131514 -27.84843 
L 71.04551 -27.653046 
L 70.980111 -27.457661 
L 70.938504 -27.262277 
L 70.923639 -27.066892 
L 70.938198 -26.871508 
L 70.984551 -26.676123 
L 71.06472 -26.480739 
L 71.18033 -26.285354 
L 71.33255 -26.08997 
L 71.522035 -25.894585 
L 71.748862 -25.6992 
L 72.012468 -25.503816 
L 72.311605 -25.308431 
L 72.644303 -25.113047 
L 73.007864 -24.917662 
L 73.398884 -24.722278 
L 73.813306 -24.526893 
L 74.2465 -24.331509 
L 74.693378 -24.136124 
L 75.148522 -23.94074 
L 75.606327 -23.745355 
L 76.061145 -23.549971 
L 76.507415 -23.354586 
L 76.939778 -23.159202 
L 77.353157 -22.963817 
L 77.742814 -22.768433 
L 78.104365 -22.573048 
L 78.433776 -22.377664 
L 78.727337 -22.182279 
L 78.981621 -21.986895 
L 79.193451 -21.79151 
L 79.359887 -21.596126 
L 79.478226 -21.400741 
L 79.546045 -21.205357 
L 79.561271 -21.009972 
L 79.522288 -20.814588 
L 79.428065 -20.619203 
L 79.2783 -20.423819 
L 79.073555 -20.228434 
L 78.815378 -20.03305 
L 78.506391 -19.837665 
L 78.150325 -19.642281 
L 77.752001 -19.446896 
L 77.317248 -19.251512 
L 76.852761 -19.056127 
L 76.365902 -18.860743 
L 75.86446 -18.665358 
L 75.356385 -18.469974 
L 74.849509 -18.274589 
L 74.351275 -18.079205 
L 73.868495 -17.88382 
L 73.407144 -17.688436 
L 72.972203 -17.493051 
L 72.567565 -17.297667 
L 72.195991 -17.102282 
L 71.859127 -16.906898 
L 71.55757 -16.711513 
z
" style="stroke: #6f6f6f; stroke-width: 0.15"/>
    </defs>
    <g clip-path="url(#pe15d6c33d0)">
     <use xlink:href="#mfb746372c0" x="0" y="84.96" style="fill: #d3c4f6; stroke: #6f6f6f; stroke-width: 0.15"/>
    </g>
   </g>
   <g id="line2d_9">
    <path d="M 21.99753 64.653022 
L 21.99753 48.21802 
" clip-path="url(#pe15d6c33d0)" style="fill: none; stroke: #8c8c8c; stroke-width: 0.75; stroke-linecap: round"/>
   </g>
   <g id="line2d_10">
    <path d="M 21.99753 62.143344 
L 21.99753 52.268723 
" clip-path="url(#pe15d6c33d0)" style="fill: none; stroke: #8c8c8c; stroke-width: 4; stroke-linecap: round"/>
   </g>
   <g id="line2d_11">
    <path d="M 21.99753 60.69844 
" clip-path="url(#pe15d6c33d0)" style="fill: none; stroke: #6f6f6f; stroke-width: 1.2; stroke-linecap: round"/>
    <defs>
     <path id="meceff82e86" d="M 0 0.833333 
C 0.221003 0.833333 0.432983 0.745528 0.589256 0.589256 
C 0.745528 0.432983 0.833333 0.221003 0.833333 0 
C 0.833333 -0.221003 0.745528 -0.432983 0.589256 -0.589256 
C 0.432983 -0.745528 0.221003 -0.833333 0 -0.833333 
C -0.221003 -0.833333 -0.432983 -0.745528 -0.589256 -0.589256 
C -0.745528 -0.432983 -0.833333 -0.221003 -0.833333 0 
C -0.833333 0.221003 -0.745528 0.432983 -0.589256 0.589256 
C -0.432983 0.745528 -0.221003 0.833333 0 0.833333 
z
" style="stroke: #ffffff; stroke-width: 0.8"/>
    </defs>
    <g clip-path="url(#pe15d6c33d0)">
     <use xlink:href="#meceff82e86" x="21.99753" y="60.69844" style="fill: #ffffff; stroke: #ffffff; stroke-width: 0.8"/>
    </g>
   </g>
   <g id="line2d_12">
    <path d="M 45.982422 65.260747 
L 45.982422 54.842897 
" clip-path="url(#pe15d6c33d0)" style="fill: none; stroke: #8c8c8c; stroke-width: 0.75; stroke-linecap: round"/>
   </g>
   <g id="line2d_13">
    <path d="M 45.982422 63.71345 
L 45.982422 59.25817 
" clip-path="url(#pe15d6c33d0)" style="fill: none; stroke: #8c8c8c; stroke-width: 4; stroke-linecap: round"/>
   </g>
   <g id="line2d_14">
    <path d="M 45.982422 62.806685 
" clip-path="url(#pe15d6c33d0)" style="fill: none; stroke: #6f6f6f; stroke-width: 1.2; stroke-linecap: round"/>
    <g clip-path="url(#pe15d6c33d0)">
     <use xlink:href="#meceff82e86" x="45.982422" y="62.806685" style="fill: #ffffff; stroke: #ffffff; stroke-width: 0.8"/>
    </g>
   </g>
   <g id="line2d_15">
    <path d="M 69.967314 65.551509 
L 69.967314 54.843863 
" clip-path="url(#pe15d6c33d0)" style="fill: none; stroke: #8c8c8c; stroke-width: 0.75; stroke-linecap: round"/>
   </g>
   <g id="line2d_16">
    <path d="M 69.967314 64.659403 
L 69.967314 60.110111 
" clip-path="url(#pe15d6c33d0)" style="fill: none; stroke: #8c8c8c; stroke-width: 4; stroke-linecap: round"/>
   </g>
   <g id="line2d_17">
    <path d="M 69.967314 62.793959 
" clip-path="url(#pe15d6c33d0)" style="fill: none; stroke: #6f6f6f; stroke-width: 1.2; stroke-linecap: round"/>
    <g clip-path="url(#pe15d6c33d0)">
     <use xlink:href="#meceff82e86" x="69.967314" y="62.793959" style="fill: #ffffff; stroke: #ffffff; stroke-width: 0.8"/>
    </g>
   </g>
   <g id="patch_3">
    <path d="M 10.005084 74.419526 
L 10.005084 4.076256 
" style="fill: none; stroke: #777777; stroke-width: 0.5; stroke-linejoin: miter; stroke-linecap: square"/>
   </g>
   <g id="patch_4">
    <path d="M 10.005084 76.919526 
L 81.95976 76.919526 
" style="fill: none; stroke: #777777; stroke-width: 0.5; stroke-linejoin: miter; stroke-linecap: square"/>
   </g>
  </g>
 </g>
 <defs>
  <clipPath id="pe15d6c33d0">
   <rect x="10.005084" y="4.076256" width="71.954676" height="70.34327"/>
  </clipPath>
 </defs>
</svg>
