<?xml version="1.0" encoding="utf-8" standalone="no"?>
<!DOCTYPE svg PUBLIC "-//W3C//DTD SVG 1.1//EN"
  "http://www.w3.org/Graphics/SVG/1.1/DTD/svg11.dtd">
<svg xmlns:xlink="http://www.w3.org/1999/xlink" width="141.12pt" height="84.96pt" viewBox="0 0 141.12 84.96" xmlns="http://www.w3.org/2000/svg" version="1.1">
 <metadata>
  <rdf:RDF xmlns:dc="http://purl.org/dc/elements/1.1/" xmlns:cc="http://creativecommons.org/ns#" xmlns:rdf="http://www.w3.org/1999/02/22-rdf-syntax-ns#">
   <cc:Work>
    <dc:type rdf:resource="http://purl.org/dc/dcmitype/StillImage"/>
    <dc:date>2024-05-27T15:37:12.638811</dc:date>
    <dc:format>image/svg+xml</dc:format>
    <dc:creator>
     <cc:Agent>
      <dc:title>Matplotlib v3.8.3, https://matplotlib.org/</dc:title>
     </cc:Agent>
    </dc:creator>
   </cc:Work>
  </rdf:RDF>
 </metadata>
 <defs>
  <style type="text/css">*{stroke-linejoin: round; stroke-linecap: butt}</style>
 </defs>
 <g id="figure_1">
  <g id="patch_1">
   <path d="M 0 84.96 
L 141.12 84.96 
L 141.12 0 
L 0 0 
z
" style="fill: #ffffff"/>
  </g>
  <g id="axes_1">
   <g id="patch_2">
    <path d="M 10.005084 74.395463 
L 138.11976 74.395463 
L 138.11976 4.076256 
L 10.005084 4.076256 
z
" style="fill: #ffffff"/>
   </g>
   <g id="matplotlib.axis_1">
    <g id="xtick_1">
     <g id="text_1">
      <!-- CD3+ Cells -->
      <g style="fill: #333333" transform="translate(13.917801 81.206166) scale(0.035 -0.035)">
       <defs>
        <path id="Helvetica-43" d="M 2422 4716 
Q 3294 4716 3775 4256 
Q 4256 3797 4309 3213 
L 3703 3213 
Q 3600 3656 3292 3915 
Q 2984 4175 2428 4175 
Q 1750 4175 1333 3698 
Q 916 3222 916 2238 
Q 916 1431 1292 929 
Q 1669 428 2416 428 
Q 3103 428 3463 956 
Q 3653 1234 3747 1688 
L 4353 1688 
Q 4272 963 3816 472 
Q 3269 -119 2341 -119 
Q 1541 -119 997 366 
Q 281 1006 281 2344 
Q 281 3359 819 4009 
Q 1400 4716 2422 4716 
z
M 2297 4716 
L 2297 4716 
z
" transform="scale(0.015625)"/>
        <path id="Helvetica-44" d="M 2250 531 
Q 2566 531 2769 597 
Q 3131 719 3363 1066 
Q 3547 1344 3628 1778 
Q 3675 2038 3675 2259 
Q 3675 3113 3336 3584 
Q 2997 4056 2244 4056 
L 1141 4056 
L 1141 531 
L 2250 531 
z
M 516 4591 
L 2375 4591 
Q 3322 4591 3844 3919 
Q 4309 3313 4309 2366 
Q 4309 1634 4034 1044 
Q 3550 0 2369 0 
L 516 0 
L 516 4591 
z
" transform="scale(0.015625)"/>
        <path id="Helvetica-33" d="M 1663 -122 
Q 869 -122 511 314 
Q 153 750 153 1375 
L 741 1375 
Q 778 941 903 744 
Q 1122 391 1694 391 
Q 2138 391 2406 628 
Q 2675 866 2675 1241 
Q 2675 1703 2392 1887 
Q 2109 2072 1606 2072 
Q 1550 2072 1492 2070 
Q 1434 2069 1375 2066 
L 1375 2563 
Q 1463 2553 1522 2550 
Q 1581 2547 1650 2547 
Q 1966 2547 2169 2647 
Q 2525 2822 2525 3272 
Q 2525 3606 2287 3787 
Q 2050 3969 1734 3969 
Q 1172 3969 956 3594 
Q 838 3388 822 3006 
L 266 3006 
Q 266 3506 466 3856 
Q 809 4481 1675 4481 
Q 2359 4481 2734 4176 
Q 3109 3872 3109 3294 
Q 3109 2881 2888 2625 
Q 2750 2466 2531 2375 
Q 2884 2278 3082 2001 
Q 3281 1725 3281 1325 
Q 3281 684 2859 281 
Q 2438 -122 1663 -122 
z
" transform="scale(0.015625)"/>
        <path id="Helvetica-2b" d="M 288 1369 
L 288 1894 
L 1650 1894 
L 1650 3266 
L 2184 3266 
L 2184 1894 
L 3547 1894 
L 3547 1369 
L 2184 1369 
L 2184 0 
L 1650 0 
L 1650 1369 
L 288 1369 
z
" transform="scale(0.015625)"/>
        <path id="Helvetica-20" transform="scale(0.015625)"/>
        <path id="Helvetica-65" d="M 1806 3422 
Q 2163 3422 2497 3255 
Q 2831 3088 3006 2822 
Q 3175 2569 3231 2231 
Q 3281 2000 3281 1494 
L 828 1494 
Q 844 984 1069 676 
Q 1294 369 1766 369 
Q 2206 369 2469 659 
Q 2619 828 2681 1050 
L 3234 1050 
Q 3213 866 3089 639 
Q 2966 413 2813 269 
Q 2556 19 2178 -69 
Q 1975 -119 1719 -119 
Q 1094 -119 659 336 
Q 225 791 225 1609 
Q 225 2416 662 2919 
Q 1100 3422 1806 3422 
z
M 2703 1941 
Q 2669 2306 2544 2525 
Q 2313 2931 1772 2931 
Q 1384 2931 1121 2651 
Q 859 2372 844 1941 
L 2703 1941 
z
M 1753 3428 
L 1753 3428 
z
" transform="scale(0.015625)"/>
        <path id="Helvetica-6c" d="M 428 4591 
L 991 4591 
L 991 0 
L 428 0 
L 428 4591 
z
" transform="scale(0.015625)"/>
        <path id="Helvetica-73" d="M 747 1050 
Q 772 769 888 619 
Q 1100 347 1625 347 
Q 1938 347 2175 483 
Q 2413 619 2413 903 
Q 2413 1119 2222 1231 
Q 2100 1300 1741 1391 
L 1294 1503 
Q 866 1609 663 1741 
Q 300 1969 300 2372 
Q 300 2847 642 3140 
Q 984 3434 1563 3434 
Q 2319 3434 2653 2991 
Q 2863 2709 2856 2384 
L 2325 2384 
Q 2309 2575 2191 2731 
Q 1997 2953 1519 2953 
Q 1200 2953 1036 2831 
Q 872 2709 872 2509 
Q 872 2291 1088 2159 
Q 1213 2081 1456 2022 
L 1828 1931 
Q 2434 1784 2641 1647 
Q 2969 1431 2969 969 
Q 2969 522 2630 197 
Q 2291 -128 1597 -128 
Q 850 -128 539 211 
Q 228 550 206 1050 
L 747 1050 
z
M 1578 3428 
L 1578 3428 
z
" transform="scale(0.015625)"/>
       </defs>
       <use xlink:href="#Helvetica-43"/>
       <use xlink:href="#Helvetica-44" x="72.216797"/>
       <use xlink:href="#Helvetica-33" x="144.433594"/>
       <use xlink:href="#Helvetica-2b" x="200.048828"/>
       <use xlink:href="#Helvetica-20" x="258.447266"/>
       <use xlink:href="#Helvetica-43" x="286.230469"/>
       <use xlink:href="#Helvetica-65" x="358.447266"/>
       <use xlink:href="#Helvetica-6c" x="414.0625"/>
       <use xlink:href="#Helvetica-6c" x="436.279297"/>
       <use xlink:href="#Helvetica-73" x="458.496094"/>
      </g>
     </g>
    </g>
    <g id="xtick_2">
     <g id="text_2">
      <!-- TCRαδ+ Cells -->
      <g style="fill: #333333" transform="translate(37.307299 81.206166) scale(0.035 -0.035)">
       <defs>
        <path id="Helvetica-54" d="M 3828 4591 
L 3828 4044 
L 2281 4044 
L 2281 0 
L 1650 0 
L 1650 4044 
L 103 4044 
L 103 4591 
L 3828 4591 
z
" transform="scale(0.015625)"/>
        <path id="Helvetica-52" d="M 2622 2488 
Q 3059 2488 3314 2663 
Q 3569 2838 3569 3294 
Q 3569 3784 3213 3963 
Q 3022 4056 2703 4056 
L 1184 4056 
L 1184 2488 
L 2622 2488 
z
M 563 4591 
L 2688 4591 
Q 3213 4591 3553 4438 
Q 4200 4144 4200 3353 
Q 4200 2941 4029 2678 
Q 3859 2416 3553 2256 
Q 3822 2147 3958 1969 
Q 4094 1791 4109 1391 
L 4131 775 
Q 4141 513 4175 384 
Q 4231 166 4375 103 
L 4375 0 
L 3613 0 
Q 3581 59 3562 153 
Q 3544 247 3531 516 
L 3494 1281 
Q 3472 1731 3159 1884 
Q 2981 1969 2600 1969 
L 1184 1969 
L 1184 0 
L 563 0 
L 563 4591 
z
" transform="scale(0.015625)"/>
        <path id="Helvetica-3b1" d="M 3347 703 
Q 3334 428 3525 434 
Q 3641 434 3700 475 
L 3700 -19 
Q 3628 -44 3513 -50 
Q 3391 -63 3309 -63 
Q 3084 -56 2956 103 
Q 2816 256 2816 475 
L 2803 475 
Q 2413 -63 1734 -63 
Q 1006 -50 647 459 
Q 281 953 281 1644 
Q 281 2350 634 2859 
Q 984 3378 1741 3391 
Q 2413 3391 2797 2847 
L 2809 2847 
L 2809 3328 
L 3347 3328 
L 3347 703 
z
M 1825 397 
Q 2075 397 2253 513 
Q 2425 622 2541 806 
Q 2766 1184 2766 1638 
Q 2766 2144 2559 2528 
Q 2350 2919 1797 2931 
Q 1306 2919 1081 2534 
Q 856 2156 856 1697 
Q 856 1209 1081 819 
Q 1306 409 1825 397 
z
" transform="scale(0.015625)"/>
        <path id="Helvetica-3b4" d="M 666 4519 
L 3188 4519 
L 3188 4056 
L 1394 4056 
L 1394 4044 
L 2509 3303 
Q 3134 2881 3372 2469 
Q 3591 2053 3584 1600 
Q 3578 934 3163 447 
Q 2738 -50 1938 -63 
Q 1203 -56 769 403 
Q 331 850 325 1556 
Q 341 3066 1863 3188 
L 1863 3200 
L 666 4056 
L 666 4519 
z
M 1991 397 
Q 2497 403 2731 794 
Q 2969 1166 2969 1606 
Q 2969 1856 2919 2041 
Q 2866 2222 2791 2344 
Q 2713 2463 2638 2541 
Q 2559 2619 2509 2650 
Q 2381 2766 2156 2766 
Q 947 2766 941 1528 
Q 941 1056 1216 738 
Q 1491 403 1991 397 
z
" transform="scale(0.015625)"/>
       </defs>
       <use xlink:href="#Helvetica-54"/>
       <use xlink:href="#Helvetica-43" x="61.083984"/>
       <use xlink:href="#Helvetica-52" x="133.300781"/>
       <use xlink:href="#Helvetica-3b1" x="205.517578"/>
       <use xlink:href="#Helvetica-3b4" x="266.601562"/>
       <use xlink:href="#Helvetica-2b" x="327.685547"/>
       <use xlink:href="#Helvetica-20" x="386.083984"/>
       <use xlink:href="#Helvetica-43" x="413.867188"/>
       <use xlink:href="#Helvetica-65" x="486.083984"/>
       <use xlink:href="#Helvetica-6c" x="541.699219"/>
       <use xlink:href="#Helvetica-6c" x="563.916016"/>
       <use xlink:href="#Helvetica-73" x="586.132812"/>
      </g>
     </g>
    </g>
    <g id="xtick_3">
     <g id="text_3">
      <!-- IL7R+ Cells -->
      <g style="fill: #333333" transform="translate(64.968164 81.206166) scale(0.035 -0.035)">
       <defs>
        <path id="Helvetica-49" d="M 628 4591 
L 1256 4591 
L 1256 0 
L 628 0 
L 628 4591 
z
" transform="scale(0.015625)"/>
        <path id="Helvetica-4c" d="M 488 4591 
L 1109 4591 
L 1109 547 
L 3434 547 
L 3434 0 
L 488 0 
L 488 4591 
z
" transform="scale(0.015625)"/>
        <path id="Helvetica-37" d="M 3347 4400 
L 3347 3909 
Q 3131 3700 2773 3181 
Q 2416 2663 2141 2063 
Q 1869 1478 1728 997 
Q 1638 688 1494 0 
L 872 0 
Q 1084 1281 1809 2550 
Q 2238 3294 2709 3834 
L 234 3834 
L 234 4400 
L 3347 4400 
z
" transform="scale(0.015625)"/>
       </defs>
       <use xlink:href="#Helvetica-49"/>
       <use xlink:href="#Helvetica-4c" x="27.783203"/>
       <use xlink:href="#Helvetica-37" x="83.398438"/>
       <use xlink:href="#Helvetica-52" x="139.013672"/>
       <use xlink:href="#Helvetica-2b" x="211.230469"/>
       <use xlink:href="#Helvetica-20" x="269.628906"/>
       <use xlink:href="#Helvetica-43" x="297.412109"/>
       <use xlink:href="#Helvetica-65" x="369.628906"/>
       <use xlink:href="#Helvetica-6c" x="425.244141"/>
       <use xlink:href="#Helvetica-6c" x="447.460938"/>
       <use xlink:href="#Helvetica-73" x="469.677734"/>
      </g>
     </g>
    </g>
    <g id="xtick_4">
     <g id="text_4">
      <!-- RORγT+ Cells -->
      <g style="fill: #333333" transform="translate(88.356568 81.230229) scale(0.035 -0.035)">
       <defs>
        <path id="Helvetica-4f" d="M 2469 4716 
Q 3684 4716 4269 3934 
Q 4725 3325 4725 2375 
Q 4725 1347 4203 666 
Q 3591 -134 2456 -134 
Q 1397 -134 791 566 
Q 250 1241 250 2272 
Q 250 3203 713 3866 
Q 1306 4716 2469 4716 
z
M 2531 422 
Q 3353 422 3720 1011 
Q 4088 1600 4088 2366 
Q 4088 3175 3664 3669 
Q 3241 4163 2506 4163 
Q 1794 4163 1344 3673 
Q 894 3184 894 2231 
Q 894 1469 1280 945 
Q 1666 422 2531 422 
z
M 2488 4716 
L 2488 4716 
z
" transform="scale(0.015625)"/>
        <path id="Helvetica-3b3" d="M 1556 225 
L 581 2444 
Q 481 2700 416 2803 
Q 347 2894 244 2894 
Q 91 2888 56 2872 
L 56 3334 
Q 166 3384 313 3391 
Q 641 3391 788 3250 
Q 863 3188 922 3078 
Q 978 2963 1038 2809 
L 1844 878 
L 2828 3328 
L 3431 3328 
L 2131 225 
L 2131 -1253 
L 1556 -1253 
L 1556 225 
z
" transform="scale(0.015625)"/>
       </defs>
       <use xlink:href="#Helvetica-52"/>
       <use xlink:href="#Helvetica-4f" x="72.216797"/>
       <use xlink:href="#Helvetica-52" x="150"/>
       <use xlink:href="#Helvetica-3b3" x="222.216797"/>
       <use xlink:href="#Helvetica-54" x="277.832031"/>
       <use xlink:href="#Helvetica-2b" x="338.916016"/>
       <use xlink:href="#Helvetica-20" x="397.314453"/>
       <use xlink:href="#Helvetica-43" x="425.097656"/>
       <use xlink:href="#Helvetica-65" x="497.314453"/>
       <use xlink:href="#Helvetica-6c" x="552.929688"/>
       <use xlink:href="#Helvetica-6c" x="575.146484"/>
       <use xlink:href="#Helvetica-73" x="597.363281"/>
      </g>
     </g>
    </g>
    <g id="xtick_5">
     <g id="text_5">
      <!-- AHR+ Cells -->
      <g style="fill: #333333" transform="translate(116.215402 81.206166) scale(0.035 -0.035)">
       <defs>
        <path id="Helvetica-41" d="M 2844 1881 
L 2147 3909 
L 1406 1881 
L 2844 1881 
z
M 1822 4591 
L 2525 4591 
L 4191 0 
L 3509 0 
L 3044 1375 
L 1228 1375 
L 731 0 
L 94 0 
L 1822 4591 
z
" transform="scale(0.015625)"/>
        <path id="Helvetica-48" d="M 503 4591 
L 1131 4591 
L 1131 2694 
L 3519 2694 
L 3519 4591 
L 4147 4591 
L 4147 0 
L 3519 0 
L 3519 2147 
L 1131 2147 
L 1131 0 
L 503 0 
L 503 4591 
z
" transform="scale(0.015625)"/>
       </defs>
       <use xlink:href="#Helvetica-41"/>
       <use xlink:href="#Helvetica-48" x="66.699219"/>
       <use xlink:href="#Helvetica-52" x="138.916016"/>
       <use xlink:href="#Helvetica-2b" x="211.132812"/>
       <use xlink:href="#Helvetica-20" x="269.53125"/>
       <use xlink:href="#Helvetica-43" x="297.314453"/>
       <use xlink:href="#Helvetica-65" x="369.53125"/>
       <use xlink:href="#Helvetica-6c" x="425.146484"/>
       <use xlink:href="#Helvetica-6c" x="447.363281"/>
       <use xlink:href="#Helvetica-73" x="469.580078"/>
      </g>
     </g>
    </g>
   </g>
   <g id="matplotlib.axis_2">
    <g id="ytick_1">
     <g id="line2d_1">
      <defs>
       <path id="m71f6b5c36b" d="M 0 0 
L -1 0 
" style="stroke: #777777; stroke-width: 0.5"/>
      </defs>
      <g>
       <use xlink:href="#m71f6b5c36b" x="10.005084" y="66.168271" style="fill: #777777; stroke: #777777; stroke-width: 0.5"/>
      </g>
     </g>
     <g id="text_6">
      <!-- 0 -->
      <g style="fill: #333333" transform="translate(6.336803 67.244287) scale(0.03 -0.03)">
       <defs>
        <path id="Helvetica-30" d="M 1731 4475 
Q 2600 4475 2988 3759 
Q 3288 3206 3288 2244 
Q 3288 1331 3016 734 
Q 2622 -122 1728 -122 
Q 922 -122 528 578 
Q 200 1163 200 2147 
Q 200 2909 397 3456 
Q 766 4475 1731 4475 
z
M 1725 391 
Q 2163 391 2422 778 
Q 2681 1166 2681 2222 
Q 2681 2984 2493 3476 
Q 2306 3969 1766 3969 
Q 1269 3969 1039 3501 
Q 809 3034 809 2125 
Q 809 1441 956 1025 
Q 1181 391 1725 391 
z
" transform="scale(0.015625)"/>
       </defs>
       <use xlink:href="#Helvetica-30"/>
      </g>
     </g>
    </g>
    <g id="ytick_2">
     <g id="line2d_2">
      <g>
       <use xlink:href="#m71f6b5c36b" x="10.005084" y="55.819602" style="fill: #777777; stroke: #777777; stroke-width: 0.5"/>
      </g>
     </g>
     <g id="text_7">
      <!-- 20 -->
      <g style="fill: #333333" transform="translate(4.668521 56.895617) scale(0.03 -0.03)">
       <defs>
        <path id="Helvetica-32" d="M 200 0 
Q 231 578 439 1006 
Q 647 1434 1250 1784 
L 1850 2131 
Q 2253 2366 2416 2531 
Q 2672 2791 2672 3125 
Q 2672 3516 2437 3745 
Q 2203 3975 1813 3975 
Q 1234 3975 1013 3538 
Q 894 3303 881 2888 
L 309 2888 
Q 319 3472 525 3841 
Q 891 4491 1816 4491 
Q 2584 4491 2939 4075 
Q 3294 3659 3294 3150 
Q 3294 2613 2916 2231 
Q 2697 2009 2131 1694 
L 1703 1456 
Q 1397 1288 1222 1134 
Q 909 863 828 531 
L 3272 531 
L 3272 0 
L 200 0 
z
" transform="scale(0.015625)"/>
       </defs>
       <use xlink:href="#Helvetica-32"/>
       <use xlink:href="#Helvetica-30" x="55.615234"/>
      </g>
     </g>
    </g>
    <g id="ytick_3">
     <g id="line2d_3">
      <g>
       <use xlink:href="#m71f6b5c36b" x="10.005084" y="45.470933" style="fill: #777777; stroke: #777777; stroke-width: 0.5"/>
      </g>
     </g>
     <g id="text_8">
      <!-- 40 -->
      <g style="fill: #333333" transform="translate(4.668521 46.546948) scale(0.03 -0.03)">
       <defs>
        <path id="Helvetica-34" d="M 2116 1584 
L 2116 3613 
L 681 1584 
L 2116 1584 
z
M 2125 0 
L 2125 1094 
L 163 1094 
L 163 1644 
L 2213 4488 
L 2688 4488 
L 2688 1584 
L 3347 1584 
L 3347 1094 
L 2688 1094 
L 2688 0 
L 2125 0 
z
" transform="scale(0.015625)"/>
       </defs>
       <use xlink:href="#Helvetica-34"/>
       <use xlink:href="#Helvetica-30" x="55.615234"/>
      </g>
     </g>
    </g>
    <g id="ytick_4">
     <g id="line2d_4">
      <g>
       <use xlink:href="#m71f6b5c36b" x="10.005084" y="35.122263" style="fill: #777777; stroke: #777777; stroke-width: 0.5"/>
      </g>
     </g>
     <g id="text_9">
      <!-- 60 -->
      <g style="fill: #333333" transform="translate(4.668521 36.198279) scale(0.03 -0.03)">
       <defs>
        <path id="Helvetica-36" d="M 1872 4494 
Q 2622 4494 2917 4105 
Q 3213 3716 3213 3303 
L 2656 3303 
Q 2606 3569 2497 3719 
Q 2294 4000 1881 4000 
Q 1409 4000 1131 3564 
Q 853 3128 822 2316 
Q 1016 2600 1309 2741 
Q 1578 2866 1909 2866 
Q 2472 2866 2890 2506 
Q 3309 2147 3309 1434 
Q 3309 825 2912 354 
Q 2516 -116 1781 -116 
Q 1153 -116 697 361 
Q 241 838 241 1966 
Q 241 2800 444 3381 
Q 834 4494 1872 4494 
z
M 1831 384 
Q 2275 384 2495 682 
Q 2716 981 2716 1388 
Q 2716 1731 2519 2042 
Q 2322 2353 1803 2353 
Q 1441 2353 1167 2112 
Q 894 1872 894 1388 
Q 894 963 1142 673 
Q 1391 384 1831 384 
z
" transform="scale(0.015625)"/>
       </defs>
       <use xlink:href="#Helvetica-36"/>
       <use xlink:href="#Helvetica-30" x="55.615234"/>
      </g>
     </g>
    </g>
    <g id="ytick_5">
     <g id="line2d_5">
      <g>
       <use xlink:href="#m71f6b5c36b" x="10.005084" y="24.773594" style="fill: #777777; stroke: #777777; stroke-width: 0.5"/>
      </g>
     </g>
     <g id="text_10">
      <!-- 80 -->
      <g style="fill: #333333" transform="translate(4.668521 25.84961) scale(0.03 -0.03)">
       <defs>
        <path id="Helvetica-38" d="M 1741 2600 
Q 2113 2600 2322 2808 
Q 2531 3016 2531 3303 
Q 2531 3553 2331 3762 
Q 2131 3972 1722 3972 
Q 1316 3972 1134 3762 
Q 953 3553 953 3272 
Q 953 2956 1187 2778 
Q 1422 2600 1741 2600 
z
M 1775 384 
Q 2166 384 2423 595 
Q 2681 806 2681 1225 
Q 2681 1659 2415 1884 
Q 2150 2109 1734 2109 
Q 1331 2109 1076 1879 
Q 822 1650 822 1244 
Q 822 894 1055 639 
Q 1288 384 1775 384 
z
M 975 2384 
Q 741 2484 609 2619 
Q 363 2869 363 3269 
Q 363 3769 725 4128 
Q 1088 4488 1753 4488 
Q 2397 4488 2762 4148 
Q 3128 3809 3128 3356 
Q 3128 2938 2916 2678 
Q 2797 2531 2547 2391 
Q 2825 2263 2984 2097 
Q 3281 1784 3281 1284 
Q 3281 694 2884 283 
Q 2488 -128 1763 -128 
Q 1109 -128 657 226 
Q 206 581 206 1256 
Q 206 1653 400 1942 
Q 594 2231 975 2384 
z
" transform="scale(0.015625)"/>
       </defs>
       <use xlink:href="#Helvetica-38"/>
       <use xlink:href="#Helvetica-30" x="55.615234"/>
      </g>
     </g>
    </g>
    <g id="ytick_6">
     <g id="line2d_6">
      <g>
       <use xlink:href="#m71f6b5c36b" x="10.005084" y="14.424925" style="fill: #777777; stroke: #777777; stroke-width: 0.5"/>
      </g>
     </g>
     <g id="text_11">
      <!-- 100 -->
      <g style="fill: #333333" transform="translate(3.00024 15.50094) scale(0.03 -0.03)">
       <defs>
        <path id="Helvetica-31" d="M 613 3169 
L 613 3600 
Q 1222 3659 1462 3798 
Q 1703 3938 1822 4456 
L 2266 4456 
L 2266 0 
L 1666 0 
L 1666 3169 
L 613 3169 
z
" transform="scale(0.015625)"/>
       </defs>
       <use xlink:href="#Helvetica-31"/>
       <use xlink:href="#Helvetica-30" x="55.615234"/>
       <use xlink:href="#Helvetica-30" x="111.230469"/>
      </g>
     </g>
    </g>
    <g id="ytick_7">
     <g id="line2d_7">
      <g>
       <use xlink:href="#m71f6b5c36b" x="10.005084" y="4.076256" style="fill: #777777; stroke: #777777; stroke-width: 0.5"/>
      </g>
     </g>
     <g id="text_12">
      <!-- 120 -->
      <g style="fill: #333333" transform="translate(3.00024 5.152271) scale(0.03 -0.03)">
       <use xlink:href="#Helvetica-31"/>
       <use xlink:href="#Helvetica-32" x="55.615234"/>
       <use xlink:href="#Helvetica-30" x="111.230469"/>
      </g>
     </g>
    </g>
   </g>
   <g id="PolyCollection_1">
    <defs>
     <path id="mdbfd5b78de" d="M 23.962523 -19.94485 
L 21.67058 -19.94485 
L 21.454682 -20.036171 
L 21.212326 -20.127492 
L 20.943083 -20.218813 
L 20.64701 -20.310134 
L 20.324689 -20.401455 
L 19.97723 -20.492776 
L 19.606265 -20.584097 
L 19.213921 -20.675418 
L 18.802775 -20.76674 
L 18.375805 -20.858061 
L 17.936324 -20.949382 
L 17.487928 -21.040703 
L 17.034441 -21.132024 
L 16.57987 -21.223345 
L 16.128372 -21.314666 
L 15.684237 -21.405987 
L 15.251868 -21.497308 
L 14.835776 -21.58863 
L 14.440566 -21.679951 
L 14.070913 -21.771272 
L 13.731525 -21.862593 
L 13.427083 -21.953914 
L 13.162156 -22.045235 
L 12.941095 -22.136556 
L 12.767904 -22.227877 
L 12.646097 -22.319198 
L 12.578554 -22.41052 
L 12.567377 -22.501841 
L 12.613771 -22.593162 
L 12.717945 -22.684483 
L 12.879055 -22.775804 
L 13.09519 -22.867125 
L 13.363396 -22.958446 
L 13.679752 -23.049767 
L 14.039479 -23.141088 
L 14.437081 -23.23241 
L 14.866512 -23.323731 
L 15.321353 -23.415052 
L 15.794988 -23.506373 
L 16.28078 -23.597694 
L 16.77223 -23.689015 
L 17.263113 -23.780336 
L 17.747593 -23.871657 
L 18.220319 -23.962978 
L 18.676482 -24.0543 
L 19.111865 -24.145621 
L 19.522853 -24.236942 
L 19.906437 -24.328263 
L 20.260191 -24.419584 
L 20.582239 -24.510905 
L 20.87121 -24.602226 
L 21.126176 -24.693547 
L 21.346601 -24.784868 
L 21.532267 -24.87619 
L 21.683221 -24.967511 
L 21.799718 -25.058832 
L 21.882174 -25.150153 
L 21.931138 -25.241474 
L 21.947277 -25.332795 
L 21.931376 -25.424116 
L 21.884359 -25.515437 
L 21.80733 -25.606758 
L 21.701614 -25.69808 
L 21.568826 -25.789401 
L 21.410922 -25.880722 
L 21.230262 -25.972043 
L 21.029654 -26.063364 
L 20.812382 -26.154685 
L 20.582217 -26.246006 
L 20.343388 -26.337327 
L 20.100537 -26.428648 
L 19.858638 -26.51997 
L 19.622882 -26.611291 
L 19.39855 -26.702612 
L 19.190856 -26.793933 
L 19.004786 -26.885254 
L 18.844929 -26.976575 
L 18.715319 -27.067896 
L 18.619288 -27.159217 
L 18.55934 -27.250538 
L 18.537061 -27.34186 
L 18.553057 -27.433181 
L 18.606933 -27.524502 
L 18.697315 -27.615823 
L 18.821904 -27.707144 
L 18.977576 -27.798465 
L 19.160501 -27.889786 
L 19.3663 -27.981107 
L 19.59021 -28.072428 
L 19.827262 -28.163749 
L 20.07246 -28.255071 
L 20.320949 -28.346392 
L 20.568169 -28.437713 
L 20.809984 -28.529034 
L 21.042786 -28.620355 
L 21.263568 -28.711676 
L 21.469961 -28.802997 
L 21.660249 -28.894318 
L 21.833345 -28.985639 
L 23.799758 -28.985639 
L 23.799758 -28.985639 
L 23.972854 -28.894318 
L 24.163142 -28.802997 
L 24.369535 -28.711676 
L 24.590316 -28.620355 
L 24.823118 -28.529034 
L 25.064933 -28.437713 
L 25.312153 -28.346392 
L 25.560643 -28.255071 
L 25.805841 -28.163749 
L 26.042893 -28.072428 
L 26.266803 -27.981107 
L 26.472602 -27.889786 
L 26.655527 -27.798465 
L 26.811198 -27.707144 
L 26.935788 -27.615823 
L 27.02617 -27.524502 
L 27.080046 -27.433181 
L 27.096042 -27.34186 
L 27.073763 -27.250538 
L 27.013815 -27.159217 
L 26.917784 -27.067896 
L 26.788174 -26.976575 
L 26.628317 -26.885254 
L 26.442247 -26.793933 
L 26.234553 -26.702612 
L 26.010221 -26.611291 
L 25.774465 -26.51997 
L 25.532565 -26.428648 
L 25.289715 -26.337327 
L 25.050886 -26.246006 
L 24.820721 -26.154685 
L 24.603449 -26.063364 
L 24.402841 -25.972043 
L 24.222181 -25.880722 
L 24.064277 -25.789401 
L 23.931488 -25.69808 
L 23.825773 -25.606758 
L 23.748744 -25.515437 
L 23.701727 -25.424116 
L 23.685826 -25.332795 
L 23.701964 -25.241474 
L 23.750929 -25.150153 
L 23.833385 -25.058832 
L 23.949882 -24.967511 
L 24.100836 -24.87619 
L 24.286502 -24.784868 
L 24.506926 -24.693547 
L 24.761893 -24.602226 
L 25.050863 -24.510905 
L 25.372912 -24.419584 
L 25.726666 -24.328263 
L 26.110249 -24.236942 
L 26.521238 -24.145621 
L 26.95662 -24.0543 
L 27.412784 -23.962978 
L 27.88551 -23.871657 
L 28.36999 -23.780336 
L 28.860873 -23.689015 
L 29.352323 -23.597694 
L 29.838115 -23.506373 
L 30.31175 -23.415052 
L 30.766591 -23.323731 
L 31.196022 -23.23241 
L 31.593624 -23.141088 
L 31.95335 -23.049767 
L 32.269707 -22.958446 
L 32.537913 -22.867125 
L 32.754048 -22.775804 
L 32.915158 -22.684483 
L 33.019332 -22.593162 
L 33.065725 -22.501841 
L 33.054549 -22.41052 
L 32.987006 -22.319198 
L 32.865199 -22.227877 
L 32.692008 -22.136556 
L 32.470947 -22.045235 
L 32.20602 -21.953914 
L 31.901577 -21.862593 
L 31.562189 -21.771272 
L 31.192536 -21.679951 
L 30.797326 -21.58863 
L 30.381235 -21.497308 
L 29.948866 -21.405987 
L 29.504731 -21.314666 
L 29.053233 -21.223345 
L 28.598661 -21.132024 
L 28.145174 -21.040703 
L 27.696779 -20.949382 
L 27.257298 -20.858061 
L 26.830327 -20.76674 
L 26.419182 -20.675418 
L 26.026838 -20.584097 
L 25.655873 -20.492776 
L 25.308414 -20.401455 
L 24.986092 -20.310134 
L 24.69002 -20.218813 
L 24.420776 -20.127492 
L 24.178421 -20.036171 
L 23.962523 -19.94485 
z
" style="stroke: #6f6f6f; stroke-width: 0.15"/>
    </defs>
    <g clip-path="url(#pfd3a6eda6d)">
     <use xlink:href="#mdbfd5b78de" x="0" y="84.96" style="fill: #abc9ea; stroke: #6f6f6f; stroke-width: 0.15"/>
    </g>
   </g>
   <g id="PolyCollection_2">
    <defs>
     <path id="m0e86b68301" d="M 49.635578 -19.345732 
L 47.243396 -19.345732 
L 46.997028 -19.523076 
L 46.717917 -19.700419 
L 46.405637 -19.877763 
L 46.060563 -20.055107 
L 45.683939 -20.232451 
L 45.27792 -20.409795 
L 44.845563 -20.587138 
L 44.390788 -20.764482 
L 43.918286 -20.941826 
L 43.433396 -21.11917 
L 42.941945 -21.296514 
L 42.450058 -21.473858 
L 41.963959 -21.651201 
L 41.489763 -21.828545 
L 41.033274 -22.005889 
L 40.599813 -22.183233 
L 40.194068 -22.360577 
L 39.819996 -22.53792 
L 39.480775 -22.715264 
L 39.178807 -22.892608 
L 38.915775 -23.069952 
L 38.69275 -23.247296 
L 38.510324 -23.42464 
L 38.368769 -23.601983 
L 38.26819 -23.779327 
L 38.208659 -23.956671 
L 38.190313 -24.134015 
L 38.213392 -24.311359 
L 38.278232 -24.488702 
L 38.385175 -24.666046 
L 38.534444 -24.84339 
L 38.725959 -25.020734 
L 38.959138 -25.198078 
L 39.232692 -25.375422 
L 39.544444 -25.552765 
L 39.891187 -25.730109 
L 40.268608 -25.907453 
L 40.671287 -26.084797 
L 41.092777 -26.262141 
L 41.525771 -26.439484 
L 41.962345 -26.616828 
L 42.394263 -26.794172 
L 42.813332 -26.971516 
L 43.21178 -27.14886 
L 43.582636 -27.326204 
L 43.92008 -27.503547 
L 44.219751 -27.680891 
L 44.478972 -27.858235 
L 44.696894 -28.035579 
L 44.874526 -28.212923 
L 45.014661 -28.390266 
L 45.121689 -28.56761 
L 45.201308 -28.744954 
L 45.260157 -28.922298 
L 45.305387 -29.099642 
L 45.344201 -29.276986 
L 45.383399 -29.454329 
L 45.428952 -29.631673 
L 45.485647 -29.809017 
L 45.556807 -29.986361 
L 45.644132 -30.163705 
L 45.74764 -30.341048 
L 45.865724 -30.518392 
L 45.995319 -30.695736 
L 46.132146 -30.87308 
L 46.27104 -31.050424 
L 46.406302 -31.227767 
L 46.532087 -31.405111 
L 46.642776 -31.582455 
L 46.733326 -31.759799 
L 46.799577 -31.937143 
L 46.838506 -32.114487 
L 46.848407 -32.29183 
L 46.829005 -32.469174 
L 46.781497 -32.646518 
L 46.70851 -32.823862 
L 46.613993 -33.001206 
L 46.503036 -33.178549 
L 46.381629 -33.355893 
L 46.256366 -33.533237 
L 46.13412 -33.710581 
L 46.02169 -33.887925 
L 45.925449 -34.065269 
L 45.851018 -34.242612 
L 45.802975 -34.419956 
L 45.78463 -34.5973 
L 45.797876 -34.774644 
L 45.843126 -34.951988 
L 45.919347 -35.129331 
L 46.024174 -35.306675 
L 46.154103 -35.484019 
L 46.304745 -35.661363 
L 46.471121 -35.838707 
L 46.647964 -36.016051 
L 46.830018 -36.193394 
L 47.012312 -36.370738 
L 47.190379 -36.548082 
L 47.360425 -36.725426 
L 47.519433 -36.90277 
L 49.35954 -36.90277 
L 49.35954 -36.90277 
L 49.518548 -36.725426 
L 49.688594 -36.548082 
L 49.866661 -36.370738 
L 50.048955 -36.193394 
L 50.23101 -36.016051 
L 50.407852 -35.838707 
L 50.574228 -35.661363 
L 50.724871 -35.484019 
L 50.854799 -35.306675 
L 50.959626 -35.129331 
L 51.035847 -34.951988 
L 51.081098 -34.774644 
L 51.094343 -34.5973 
L 51.075998 -34.419956 
L 51.027955 -34.242612 
L 50.953524 -34.065269 
L 50.857284 -33.887925 
L 50.744853 -33.710581 
L 50.622607 -33.533237 
L 50.497345 -33.355893 
L 50.375937 -33.178549 
L 50.26498 -33.001206 
L 50.170464 -32.823862 
L 50.097477 -32.646518 
L 50.049968 -32.469174 
L 50.030567 -32.29183 
L 50.040467 -32.114487 
L 50.079396 -31.937143 
L 50.145647 -31.759799 
L 50.236197 -31.582455 
L 50.346886 -31.405111 
L 50.472671 -31.227767 
L 50.607934 -31.050424 
L 50.746827 -30.87308 
L 50.883655 -30.695736 
L 51.013249 -30.518392 
L 51.131333 -30.341048 
L 51.234841 -30.163705 
L 51.322166 -29.986361 
L 51.393327 -29.809017 
L 51.450021 -29.631673 
L 51.495574 -29.454329 
L 51.534772 -29.276986 
L 51.573587 -29.099642 
L 51.618817 -28.922298 
L 51.677666 -28.744954 
L 51.757284 -28.56761 
L 51.864312 -28.390266 
L 52.004447 -28.212923 
L 52.18208 -28.035579 
L 52.400001 -27.858235 
L 52.659223 -27.680891 
L 52.958893 -27.503547 
L 53.296337 -27.326204 
L 53.667193 -27.14886 
L 54.065641 -26.971516 
L 54.48471 -26.794172 
L 54.916628 -26.616828 
L 55.353202 -26.439484 
L 55.786196 -26.262141 
L 56.207686 -26.084797 
L 56.610365 -25.907453 
L 56.987786 -25.730109 
L 57.334529 -25.552765 
L 57.646281 -25.375422 
L 57.919836 -25.198078 
L 58.153014 -25.020734 
L 58.344529 -24.84339 
L 58.493798 -24.666046 
L 58.600741 -24.488702 
L 58.665581 -24.311359 
L 58.688661 -24.134015 
L 58.670314 -23.956671 
L 58.610783 -23.779327 
L 58.510205 -23.601983 
L 58.36865 -23.42464 
L 58.186223 -23.247296 
L 57.963198 -23.069952 
L 57.700166 -22.892608 
L 57.398198 -22.715264 
L 57.058977 -22.53792 
L 56.684906 -22.360577 
L 56.27916 -22.183233 
L 55.845699 -22.005889 
L 55.389211 -21.828545 
L 54.915014 -21.651201 
L 54.428915 -21.473858 
L 53.937028 -21.296514 
L 53.445577 -21.11917 
L 52.960687 -20.941826 
L 52.488185 -20.764482 
L 52.03341 -20.587138 
L 51.601053 -20.409795 
L 51.195034 -20.232451 
L 50.818411 -20.055107 
L 50.473336 -19.877763 
L 50.161056 -19.700419 
L 49.881945 -19.523076 
L 49.635578 -19.345732 
z
" style="stroke: #6f6f6f; stroke-width: 0.15"/>
    </defs>
    <g clip-path="url(#pfd3a6eda6d)">
     <use xlink:href="#m0e86b68301" x="0" y="84.96" style="fill: #efb792; stroke: #6f6f6f; stroke-width: 0.15"/>
    </g>
   </g>
   <g id="PolyCollection_3">
    <defs>
     <path id="mbd5a9f8dfe" d="M 75.461639 -21.584402 
L 72.663205 -21.584402 
L 72.385351 -21.747802 
L 72.070968 -21.911202 
L 71.719306 -22.074601 
L 71.330459 -22.238001 
L 70.905487 -22.401401 
L 70.4465 -22.564801 
L 69.956732 -22.728201 
L 69.440564 -22.8916 
L 68.903516 -23.055 
L 68.352196 -23.2184 
L 67.794206 -23.3818 
L 67.238008 -23.5452 
L 66.692749 -23.708599 
L 66.168051 -23.871999 
L 65.673768 -24.035399 
L 65.219721 -24.198799 
L 64.815411 -24.362199 
L 64.469723 -24.525598 
L 64.190631 -24.688998 
L 63.984918 -24.852398 
L 63.857907 -25.015798 
L 63.813248 -25.179198 
L 63.852733 -25.342597 
L 63.976191 -25.505997 
L 64.181435 -25.669397 
L 64.464302 -25.832797 
L 64.81876 -25.996197 
L 65.237101 -26.159596 
L 65.710198 -26.322996 
L 66.227825 -26.486396 
L 66.779017 -26.649796 
L 67.352454 -26.813196 
L 67.936847 -26.976595 
L 68.521308 -27.139995 
L 69.095681 -27.303395 
L 69.650815 -27.466795 
L 70.178781 -27.630195 
L 70.673003 -27.793594 
L 71.128324 -27.956994 
L 71.541 -28.120394 
L 71.90863 -28.283794 
L 72.230036 -28.447194 
L 72.505113 -28.610593 
L 72.734651 -28.773993 
L 72.920161 -28.937393 
L 73.063702 -29.100793 
L 73.167738 -29.264193 
L 73.235012 -29.427592 
L 73.268456 -29.590992 
L 73.271134 -29.754392 
L 73.246206 -29.917792 
L 73.196921 -30.081192 
L 73.126617 -30.244591 
L 73.038725 -30.407991 
L 72.936776 -30.571391 
L 72.824379 -30.734791 
L 72.705194 -30.898191 
L 72.582871 -31.06159 
L 72.460973 -31.22499 
L 72.342874 -31.38839 
L 72.231646 -31.55179 
L 72.129941 -31.71519 
L 72.039875 -31.878589 
L 71.962938 -32.041989 
L 71.899927 -32.205389 
L 71.850917 -32.368789 
L 71.815279 -32.532189 
L 71.791746 -32.695588 
L 71.77852 -32.858988 
L 71.773423 -33.022388 
L 71.774076 -33.185788 
L 71.778094 -33.349188 
L 71.783283 -33.512587 
L 71.787816 -33.675987 
L 71.790395 -33.839387 
L 71.790346 -34.002787 
L 71.787685 -34.166187 
L 71.783113 -34.329586 
L 71.777961 -34.492986 
L 71.774075 -34.656386 
L 71.773672 -34.819786 
L 71.779154 -34.983186 
L 71.792916 -35.146585 
L 71.817154 -35.309985 
L 71.853692 -35.473385 
L 71.903835 -35.636785 
L 71.968275 -35.800185 
L 72.047034 -35.963584 
L 72.13946 -36.126984 
L 72.244273 -36.290384 
L 72.35965 -36.453784 
L 72.483343 -36.617184 
L 72.612815 -36.780583 
L 72.74539 -36.943983 
L 72.878395 -37.107383 
L 73.009296 -37.270783 
L 73.135806 -37.434183 
L 73.255973 -37.597582 
L 73.368233 -37.760982 
L 74.756611 -37.760982 
L 74.756611 -37.760982 
L 74.868871 -37.597582 
L 74.989038 -37.434183 
L 75.115548 -37.270783 
L 75.246449 -37.107383 
L 75.379454 -36.943983 
L 75.512028 -36.780583 
L 75.6415 -36.617184 
L 75.765193 -36.453784 
L 75.880571 -36.290384 
L 75.985384 -36.126984 
L 76.07781 -35.963584 
L 76.156569 -35.800185 
L 76.221009 -35.636785 
L 76.271152 -35.473385 
L 76.307689 -35.309985 
L 76.331928 -35.146585 
L 76.34569 -34.983186 
L 76.351172 -34.819786 
L 76.350769 -34.656386 
L 76.346883 -34.492986 
L 76.34173 -34.329586 
L 76.337159 -34.166187 
L 76.334498 -34.002787 
L 76.334449 -33.839387 
L 76.337027 -33.675987 
L 76.341561 -33.512587 
L 76.346749 -33.349188 
L 76.350768 -33.185788 
L 76.351421 -33.022388 
L 76.346324 -32.858988 
L 76.333098 -32.695588 
L 76.309564 -32.532189 
L 76.273927 -32.368789 
L 76.224916 -32.205389 
L 76.161905 -32.041989 
L 76.084969 -31.878589 
L 75.994903 -31.71519 
L 75.893197 -31.55179 
L 75.78197 -31.38839 
L 75.663871 -31.22499 
L 75.541973 -31.06159 
L 75.41965 -30.898191 
L 75.300465 -30.734791 
L 75.188068 -30.571391 
L 75.086118 -30.407991 
L 74.998227 -30.244591 
L 74.927922 -30.081192 
L 74.878637 -29.917792 
L 74.853709 -29.754392 
L 74.856387 -29.590992 
L 74.889832 -29.427592 
L 74.957106 -29.264193 
L 75.061142 -29.100793 
L 75.204683 -28.937393 
L 75.390192 -28.773993 
L 75.61973 -28.610593 
L 75.894807 -28.447194 
L 76.216214 -28.283794 
L 76.583844 -28.120394 
L 76.99652 -27.956994 
L 77.451841 -27.793594 
L 77.946063 -27.630195 
L 78.474028 -27.466795 
L 79.029163 -27.303395 
L 79.603536 -27.139995 
L 80.187997 -26.976595 
L 80.77239 -26.813196 
L 81.345826 -26.649796 
L 81.897018 -26.486396 
L 82.414646 -26.322996 
L 82.887743 -26.159596 
L 83.306084 -25.996197 
L 83.660542 -25.832797 
L 83.943409 -25.669397 
L 84.148653 -25.505997 
L 84.27211 -25.342597 
L 84.311596 -25.179198 
L 84.266937 -25.015798 
L 84.139926 -24.852398 
L 83.934212 -24.688998 
L 83.655121 -24.525598 
L 83.309433 -24.362199 
L 82.905123 -24.198799 
L 82.451076 -24.035399 
L 81.956793 -23.871999 
L 81.432095 -23.708599 
L 80.886836 -23.5452 
L 80.330638 -23.3818 
L 79.772648 -23.2184 
L 79.221328 -23.055 
L 78.68428 -22.8916 
L 78.168112 -22.728201 
L 77.678344 -22.564801 
L 77.219357 -22.401401 
L 76.794384 -22.238001 
L 76.405538 -22.074601 
L 76.053876 -21.911202 
L 75.739492 -21.747802 
L 75.461639 -21.584402 
z
" style="stroke: #6f6f6f; stroke-width: 0.15"/>
    </defs>
    <g clip-path="url(#pfd3a6eda6d)">
     <use xlink:href="#mbd5a9f8dfe" x="0" y="84.96" style="fill: #98daa7; stroke: #6f6f6f; stroke-width: 0.15"/>
    </g>
   </g>
   <g id="PolyCollection_4">
    <defs>
     <path id="m3244cde367" d="M 101.003637 -18.794562 
L 98.367078 -18.794562 
L 98.125699 -18.840396 
L 97.860461 -18.886231 
L 97.5733 -18.932065 
L 97.267064 -18.977899 
L 96.945484 -19.023733 
L 96.613099 -19.069568 
L 96.275134 -19.115402 
L 95.937338 -19.161236 
L 95.605787 -19.20707 
L 95.286676 -19.252905 
L 94.98609 -19.298739 
L 94.709792 -19.344573 
L 94.463013 -19.390407 
L 94.250267 -19.436242 
L 94.075189 -19.482076 
L 93.940399 -19.52791 
L 93.847385 -19.573744 
L 93.796414 -19.619579 
L 93.786466 -19.665413 
L 93.815182 -19.711247 
L 93.878849 -19.757081 
L 93.972415 -19.802916 
L 94.089544 -19.84875 
L 94.222729 -19.894584 
L 94.363462 -19.940418 
L 94.502476 -19.986253 
L 94.630054 -20.032087 
L 94.736403 -20.077921 
L 94.812083 -20.123755 
L 94.848463 -20.16959 
L 94.838182 -20.215424 
L 94.775584 -20.261258 
L 94.657083 -20.307092 
L 94.481444 -20.352926 
L 94.249925 -20.398761 
L 93.966291 -20.444595 
L 93.636663 -20.490429 
L 93.269225 -20.536263 
L 92.873798 -20.582098 
L 92.461316 -20.627932 
L 92.043232 -20.673766 
L 91.630922 -20.7196 
L 91.235103 -20.765435 
L 90.865344 -20.811269 
L 90.529677 -20.857103 
L 90.234352 -20.902937 
L 89.983732 -20.948772 
L 89.780338 -20.994606 
L 89.625008 -21.04044 
L 89.517148 -21.086274 
L 89.455046 -21.132109 
L 89.436183 -21.177943 
L 89.457533 -21.223777 
L 89.515801 -21.269611 
L 89.607595 -21.315446 
L 89.72951 -21.36128 
L 89.878148 -21.407114 
L 90.05008 -21.452948 
L 90.241777 -21.498783 
L 90.449538 -21.544617 
L 90.669439 -21.590451 
L 90.897331 -21.636285 
L 91.128886 -21.68212 
L 91.35971 -21.727954 
L 91.585494 -21.773788 
L 91.802217 -21.819622 
L 92.006349 -21.865457 
L 92.195053 -21.911291 
L 92.366355 -21.957125 
L 92.519264 -22.002959 
L 92.653838 -22.048794 
L 92.771177 -22.094628 
L 92.873365 -22.140462 
L 92.963351 -22.186296 
L 93.04479 -22.232131 
L 93.121856 -22.277965 
L 93.199045 -22.323799 
L 93.280961 -22.369633 
L 93.37212 -22.415468 
L 93.476759 -22.461302 
L 93.598658 -22.507136 
L 93.74098 -22.55297 
L 93.906141 -22.598804 
L 94.095691 -22.644639 
L 94.310238 -22.690473 
L 94.549394 -22.736307 
L 94.811774 -22.782141 
L 95.095034 -22.827976 
L 95.395952 -22.87381 
L 95.710565 -22.919644 
L 96.03434 -22.965478 
L 96.362376 -23.011313 
L 96.689632 -23.057147 
L 97.011152 -23.102981 
L 97.322283 -23.148815 
L 97.618871 -23.19465 
L 97.897412 -23.240484 
L 98.155162 -23.286318 
L 98.390193 -23.332152 
L 100.980521 -23.332152 
L 100.980521 -23.332152 
L 101.215552 -23.286318 
L 101.473302 -23.240484 
L 101.751843 -23.19465 
L 102.048431 -23.148815 
L 102.359563 -23.102981 
L 102.681082 -23.057147 
L 103.008338 -23.011313 
L 103.336374 -22.965478 
L 103.660149 -22.919644 
L 103.974763 -22.87381 
L 104.275681 -22.827976 
L 104.55894 -22.782141 
L 104.82132 -22.736307 
L 105.060477 -22.690473 
L 105.275023 -22.644639 
L 105.464574 -22.598804 
L 105.629734 -22.55297 
L 105.772057 -22.507136 
L 105.893955 -22.461302 
L 105.998594 -22.415468 
L 106.089754 -22.369633 
L 106.17167 -22.323799 
L 106.248858 -22.277965 
L 106.325925 -22.232131 
L 106.407363 -22.186296 
L 106.497349 -22.140462 
L 106.599537 -22.094628 
L 106.716876 -22.048794 
L 106.85145 -22.002959 
L 107.004359 -21.957125 
L 107.175661 -21.911291 
L 107.364365 -21.865457 
L 107.568497 -21.819622 
L 107.78522 -21.773788 
L 108.011005 -21.727954 
L 108.241828 -21.68212 
L 108.473384 -21.636285 
L 108.701275 -21.590451 
L 108.921177 -21.544617 
L 109.128937 -21.498783 
L 109.320634 -21.452948 
L 109.492566 -21.407114 
L 109.641204 -21.36128 
L 109.763119 -21.315446 
L 109.854913 -21.269611 
L 109.913181 -21.223777 
L 109.934531 -21.177943 
L 109.915668 -21.132109 
L 109.853566 -21.086274 
L 109.745707 -21.04044 
L 109.590376 -20.994606 
L 109.386982 -20.948772 
L 109.136363 -20.902937 
L 108.841037 -20.857103 
L 108.50537 -20.811269 
L 108.135611 -20.765435 
L 107.739792 -20.7196 
L 107.327482 -20.673766 
L 106.909399 -20.627932 
L 106.496916 -20.582098 
L 106.101489 -20.536263 
L 105.734051 -20.490429 
L 105.404423 -20.444595 
L 105.120789 -20.398761 
L 104.88927 -20.352926 
L 104.713631 -20.307092 
L 104.59513 -20.261258 
L 104.532532 -20.215424 
L 104.522252 -20.16959 
L 104.558632 -20.123755 
L 104.634312 -20.077921 
L 104.74066 -20.032087 
L 104.868238 -19.986253 
L 105.007252 -19.940418 
L 105.147985 -19.894584 
L 105.28117 -19.84875 
L 105.3983 -19.802916 
L 105.491865 -19.757081 
L 105.555532 -19.711247 
L 105.584248 -19.665413 
L 105.5743 -19.619579 
L 105.52333 -19.573744 
L 105.430315 -19.52791 
L 105.295525 -19.482076 
L 105.120447 -19.436242 
L 104.907701 -19.390407 
L 104.660922 -19.344573 
L 104.384624 -19.298739 
L 104.084039 -19.252905 
L 103.764927 -19.20707 
L 103.433377 -19.161236 
L 103.09558 -19.115402 
L 102.757615 -19.069568 
L 102.42523 -19.023733 
L 102.10365 -18.977899 
L 101.797414 -18.932065 
L 101.510253 -18.886231 
L 101.245015 -18.840396 
L 101.003637 -18.794562 
z
" style="stroke: #6f6f6f; stroke-width: 0.15"/>
    </defs>
    <g clip-path="url(#pfd3a6eda6d)">
     <use xlink:href="#m3244cde367" x="0" y="84.96" style="fill: #cfcfcf; stroke: #6f6f6f; stroke-width: 0.15"/>
    </g>
   </g>
   <g id="PolyCollection_5">
    <defs>
     <path id="mb30332b8f9" d="M 126.154557 -27.948125 
L 124.462028 -27.948125 
L 124.320161 -28.370876 
L 124.168651 -28.793627 
L 124.010007 -29.216378 
L 123.847379 -29.639129 
L 123.684476 -30.061879 
L 123.525437 -30.48463 
L 123.374663 -30.907381 
L 123.236602 -31.330132 
L 123.115516 -31.752883 
L 123.015239 -32.175634 
L 122.938938 -32.598385 
L 122.888899 -33.021136 
L 122.866357 -33.443887 
L 122.871383 -33.866637 
L 122.902824 -34.289388 
L 122.958331 -34.712139 
L 123.034437 -35.13489 
L 123.126711 -35.557641 
L 123.229959 -35.980392 
L 123.338463 -36.403143 
L 123.446246 -36.825894 
L 123.547347 -37.248645 
L 123.63608 -37.671395 
L 123.70728 -38.094146 
L 123.756513 -38.516897 
L 123.780246 -38.939648 
L 123.77597 -39.362399 
L 123.742278 -39.78515 
L 123.678892 -40.207901 
L 123.586645 -40.630652 
L 123.467412 -41.053403 
L 123.324015 -41.476154 
L 123.160085 -41.898904 
L 122.979896 -42.321655 
L 122.788192 -42.744406 
L 122.589993 -43.167157 
L 122.390406 -43.589908 
L 122.194438 -44.012659 
L 122.006825 -44.43541 
L 121.831885 -44.858161 
L 121.673381 -45.280912 
L 121.534417 -45.703662 
L 121.417353 -46.126413 
L 121.323734 -46.549164 
L 121.254236 -46.971915 
L 121.208627 -47.394666 
L 121.185728 -47.817417 
L 121.183387 -48.240168 
L 121.198468 -48.662919 
L 121.226857 -49.08567 
L 121.263488 -49.508421 
L 121.302422 -49.931171 
L 121.33696 -50.353922 
L 121.359825 -50.776673 
L 121.363397 -51.199424 
L 121.340013 -51.622175 
L 121.282319 -52.044926 
L 121.183665 -52.467677 
L 121.03851 -52.890428 
L 120.842821 -53.313179 
L 120.594437 -53.735929 
L 120.29335 -54.15868 
L 119.941907 -54.581431 
L 119.544871 -55.004182 
L 119.109365 -55.426933 
L 118.644667 -55.849684 
L 118.161877 -56.272435 
L 117.67347 -56.695186 
L 117.192769 -57.117937 
L 116.733356 -57.540687 
L 116.308486 -57.963438 
L 115.930514 -58.386189 
L 115.610402 -58.80894 
L 115.357301 -59.231691 
L 115.178261 -59.654442 
L 115.078053 -60.077193 
L 115.059118 -60.499944 
L 115.121625 -60.922695 
L 115.263622 -61.345446 
L 115.481262 -61.768196 
L 115.769072 -62.190947 
L 116.120252 -62.613698 
L 116.526974 -63.036449 
L 116.980678 -63.4592 
L 117.472348 -63.881951 
L 117.99276 -64.304702 
L 118.53271 -64.727453 
L 119.083221 -65.150204 
L 119.635723 -65.572954 
L 120.182215 -65.995705 
L 120.715411 -66.418456 
L 121.228863 -66.841207 
L 121.717063 -67.263958 
L 122.175513 -67.686709 
L 122.600769 -68.10946 
L 122.990452 -68.532211 
L 123.343216 -68.954962 
L 123.658697 -69.377713 
L 123.937413 -69.800463 
L 126.679171 -69.800463 
L 126.679171 -69.800463 
L 126.957888 -69.377713 
L 127.273369 -68.954962 
L 127.626133 -68.532211 
L 128.015815 -68.10946 
L 128.441071 -67.686709 
L 128.899521 -67.263958 
L 129.387721 -66.841207 
L 129.901174 -66.418456 
L 130.43437 -65.995705 
L 130.980862 -65.572954 
L 131.533363 -65.150204 
L 132.083875 -64.727453 
L 132.623825 -64.304702 
L 133.144237 -63.881951 
L 133.635906 -63.4592 
L 134.089611 -63.036449 
L 134.496333 -62.613698 
L 134.847512 -62.190947 
L 135.135323 -61.768196 
L 135.352963 -61.345446 
L 135.49496 -60.922695 
L 135.557466 -60.499944 
L 135.538531 -60.077193 
L 135.438323 -59.654442 
L 135.259283 -59.231691 
L 135.006183 -58.80894 
L 134.68607 -58.386189 
L 134.308099 -57.963438 
L 133.883228 -57.540687 
L 133.423816 -57.117937 
L 132.943114 -56.695186 
L 132.454708 -56.272435 
L 131.971918 -55.849684 
L 131.50722 -55.426933 
L 131.071714 -55.004182 
L 130.674678 -54.581431 
L 130.323234 -54.15868 
L 130.022148 -53.735929 
L 129.773763 -53.313179 
L 129.578075 -52.890428 
L 129.43292 -52.467677 
L 129.334266 -52.044926 
L 129.276572 -51.622175 
L 129.253188 -51.199424 
L 129.256759 -50.776673 
L 129.279625 -50.353922 
L 129.314163 -49.931171 
L 129.353097 -49.508421 
L 129.389728 -49.08567 
L 129.418116 -48.662919 
L 129.433198 -48.240168 
L 129.430857 -47.817417 
L 129.407957 -47.394666 
L 129.362349 -46.971915 
L 129.292851 -46.549164 
L 129.199232 -46.126413 
L 129.082168 -45.703662 
L 128.943204 -45.280912 
L 128.7847 -44.858161 
L 128.60976 -44.43541 
L 128.422147 -44.012659 
L 128.226179 -43.589908 
L 128.026591 -43.167157 
L 127.828393 -42.744406 
L 127.636689 -42.321655 
L 127.4565 -41.898904 
L 127.292569 -41.476154 
L 127.149173 -41.053403 
L 127.02994 -40.630652 
L 126.937692 -40.207901 
L 126.874307 -39.78515 
L 126.840615 -39.362399 
L 126.836339 -38.939648 
L 126.860072 -38.516897 
L 126.909305 -38.094146 
L 126.980505 -37.671395 
L 127.069238 -37.248645 
L 127.170339 -36.825894 
L 127.278122 -36.403143 
L 127.386626 -35.980392 
L 127.489874 -35.557641 
L 127.582148 -35.13489 
L 127.658254 -34.712139 
L 127.713761 -34.289388 
L 127.745202 -33.866637 
L 127.750227 -33.443887 
L 127.727686 -33.021136 
L 127.677647 -32.598385 
L 127.601346 -32.175634 
L 127.501069 -31.752883 
L 127.379983 -31.330132 
L 127.241921 -30.907381 
L 127.091147 -30.48463 
L 126.932109 -30.061879 
L 126.769206 -29.639129 
L 126.606578 -29.216378 
L 126.447934 -28.793627 
L 126.296424 -28.370876 
L 126.154557 -27.948125 
z
" style="stroke: #6f6f6f; stroke-width: 0.15"/>
    </defs>
    <g clip-path="url(#pfd3a6eda6d)">
     <use xlink:href="#mb30332b8f9" x="0" y="84.96" style="fill: #f3f3ae; stroke: #6f6f6f; stroke-width: 0.15"/>
    </g>
   </g>
   <g id="line2d_8">
    <path d="M 22.816551 63.75314 
L 22.816551 57.984305 
" clip-path="url(#pfd3a6eda6d)" style="fill: none; stroke: #8c8c8c; stroke-width: 0.75; stroke-linecap: round"/>
   </g>
   <g id="line2d_9">
    <path d="M 22.816551 62.651948 
L 22.816551 60.49146 
" clip-path="url(#pfd3a6eda6d)" style="fill: none; stroke: #8c8c8c; stroke-width: 4; stroke-linecap: round"/>
   </g>
   <g id="line2d_10">
    <path d="M 22.816551 62.235644 
" clip-path="url(#pfd3a6eda6d)" style="fill: none; stroke: #6f6f6f; stroke-width: 1.2; stroke-linecap: round"/>
    <defs>
     <path id="m623d6dbdec" d="M 0 0.833333 
C 0.221003 0.833333 0.432983 0.745528 0.589256 0.589256 
C 0.745528 0.432983 0.833333 0.221003 0.833333 0 
C 0.833333 -0.221003 0.745528 -0.432983 0.589256 -0.589256 
C 0.432983 -0.745528 0.221003 -0.833333 0 -0.833333 
C -0.221003 -0.833333 -0.432983 -0.745528 -0.589256 -0.589256 
C -0.745528 -0.432983 -0.833333 -0.221003 -0.833333 0 
C -0.833333 0.221003 -0.745528 0.432983 -0.589256 0.589256 
C -0.432983 0.745528 -0.221003 0.833333 0 0.833333 
z
" style="stroke: #ffffff; stroke-width: 0.8"/>
    </defs>
    <g clip-path="url(#pfd3a6eda6d)">
     <use xlink:href="#m623d6dbdec" x="22.816551" y="62.235644" style="fill: #ffffff; stroke: #ffffff; stroke-width: 0.8"/>
    </g>
   </g>
   <g id="line2d_11">
    <path d="M 48.439487 63.367038 
L 48.439487 55.103176 
" clip-path="url(#pfd3a6eda6d)" style="fill: none; stroke: #8c8c8c; stroke-width: 0.75; stroke-linecap: round"/>
   </g>
   <g id="line2d_12">
    <path d="M 48.439487 61.760653 
L 48.439487 57.649988 
" clip-path="url(#pfd3a6eda6d)" style="fill: none; stroke: #8c8c8c; stroke-width: 4; stroke-linecap: round"/>
   </g>
   <g id="line2d_13">
    <path d="M 48.439487 59.928595 
" clip-path="url(#pfd3a6eda6d)" style="fill: none; stroke: #6f6f6f; stroke-width: 1.2; stroke-linecap: round"/>
    <g clip-path="url(#pfd3a6eda6d)">
     <use xlink:href="#m623d6dbdec" x="48.439487" y="59.928595" style="fill: #ffffff; stroke: #ffffff; stroke-width: 0.8"/>
    </g>
   </g>
   <g id="line2d_14">
    <path d="M 74.062422 61.14865 
L 74.062422 57.196623 
" clip-path="url(#pfd3a6eda6d)" style="fill: none; stroke: #8c8c8c; stroke-width: 0.75; stroke-linecap: round"/>
   </g>
   <g id="line2d_15">
    <path d="M 74.062422 60.000027 
L 74.062422 57.196623 
" clip-path="url(#pfd3a6eda6d)" style="fill: none; stroke: #8c8c8c; stroke-width: 4; stroke-linecap: round"/>
   </g>
   <g id="line2d_16">
    <path d="M 74.062422 59.321177 
" clip-path="url(#pfd3a6eda6d)" style="fill: none; stroke: #6f6f6f; stroke-width: 1.2; stroke-linecap: round"/>
    <g clip-path="url(#pfd3a6eda6d)">
     <use xlink:href="#m623d6dbdec" x="74.062422" y="59.321177" style="fill: #ffffff; stroke: #ffffff; stroke-width: 0.8"/>
    </g>
   </g>
   <g id="line2d_17">
    <path d="M 99.685357 65.572727 
L 99.685357 62.220558 
" clip-path="url(#pfd3a6eda6d)" style="fill: none; stroke: #8c8c8c; stroke-width: 0.75; stroke-linecap: round"/>
   </g>
   <g id="line2d_18">
    <path d="M 99.685357 64.381408 
L 99.685357 63.178633 
" clip-path="url(#pfd3a6eda6d)" style="fill: none; stroke: #8c8c8c; stroke-width: 4; stroke-linecap: round"/>
   </g>
   <g id="line2d_19">
    <path d="M 99.685357 63.8115 
" clip-path="url(#pfd3a6eda6d)" style="fill: none; stroke: #6f6f6f; stroke-width: 1.2; stroke-linecap: round"/>
    <g clip-path="url(#pfd3a6eda6d)">
     <use xlink:href="#m623d6dbdec" x="99.685357" y="63.8115" style="fill: #ffffff; stroke: #ffffff; stroke-width: 0.8"/>
    </g>
   </g>
   <g id="line2d_20">
    <path d="M 125.308292 51.49514 
L 125.308292 20.676272 
" clip-path="url(#pfd3a6eda6d)" style="fill: none; stroke: #8c8c8c; stroke-width: 0.75; stroke-linecap: round"/>
   </g>
   <g id="line2d_21">
    <path d="M 125.308292 36.284817 
L 125.308292 24.787066 
" clip-path="url(#pfd3a6eda6d)" style="fill: none; stroke: #8c8c8c; stroke-width: 4; stroke-linecap: round"/>
   </g>
   <g id="line2d_22">
    <path d="M 125.308292 26.236832 
" clip-path="url(#pfd3a6eda6d)" style="fill: none; stroke: #6f6f6f; stroke-width: 1.2; stroke-linecap: round"/>
    <g clip-path="url(#pfd3a6eda6d)">
     <use xlink:href="#m623d6dbdec" x="125.308292" y="26.236832" style="fill: #ffffff; stroke: #ffffff; stroke-width: 0.8"/>
    </g>
   </g>
   <g id="patch_3">
    <path d="M 10.005084 74.395463 
L 10.005084 4.076256 
" style="fill: none; stroke: #777777; stroke-width: 0.5; stroke-linejoin: miter; stroke-linecap: square"/>
   </g>
   <g id="patch_4">
    <path d="M 10.005084 76.895463 
L 138.11976 76.895463 
" style="fill: none; stroke: #777777; stroke-width: 0.5; stroke-linejoin: miter; stroke-linecap: square"/>
   </g>
  </g>
 </g>
 <defs>
  <clipPath id="pfd3a6eda6d">
   <rect x="10.005084" y="4.076256" width="128.114676" height="70.319207"/>
  </clipPath>
 </defs>
</svg>
