<?xml version="1.0" encoding="utf-8" standalone="no"?>
<!DOCTYPE svg PUBLIC "-//W3C//DTD SVG 1.1//EN"
  "http://www.w3.org/Graphics/SVG/1.1/DTD/svg11.dtd">
<svg xmlns:xlink="http://www.w3.org/1999/xlink" width="84.96pt" height="84.96pt" viewBox="0 0 84.96 84.96" xmlns="http://www.w3.org/2000/svg" version="1.1">
 <metadata>
  <rdf:RDF xmlns:dc="http://purl.org/dc/elements/1.1/" xmlns:cc="http://creativecommons.org/ns#" xmlns:rdf="http://www.w3.org/1999/02/22-rdf-syntax-ns#">
   <cc:Work>
    <dc:type rdf:resource="http://purl.org/dc/dcmitype/StillImage"/>
    <dc:date>2024-05-27T15:37:04.406175</dc:date>
    <dc:format>image/svg+xml</dc:format>
    <dc:creator>
     <cc:Agent>
      <dc:title>Matplotlib v3.8.3, https://matplotlib.org/</dc:title>
     </cc:Agent>
    </dc:creator>
   </cc:Work>
  </rdf:RDF>
 </metadata>
 <defs>
  <style type="text/css">*{stroke-linejoin: round; stroke-linecap: butt}</style>
 </defs>
 <g id="figure_1">
  <g id="patch_1">
   <path d="M 0 84.96 
L 84.96 84.96 
L 84.96 0 
L 0 0 
z
" style="fill: #ffffff"/>
  </g>
  <g id="axes_1">
   <g id="patch_2">
    <path d="M 8.336802 74.419526 
L 81.95976 74.419526 
L 81.95976 4.076256 
L 8.336802 4.076256 
z
" style="fill: #ffffff"/>
   </g>
   <g id="matplotlib.axis_1">
    <g id="xtick_1">
     <g id="text_1">
      <!-- NK/ILC1ie -->
      <g style="fill: #333333" transform="translate(12.63167 81.230229) scale(0.035 -0.035)">
       <defs>
        <path id="Helvetica-4e" d="M 488 4591 
L 1222 4591 
L 3541 872 
L 3541 4591 
L 4131 4591 
L 4131 0 
L 3434 0 
L 1081 3716 
L 1081 0 
L 488 0 
L 488 4591 
z
M 2269 4591 
L 2269 4591 
z
" transform="scale(0.015625)"/>
        <path id="Helvetica-4b" d="M 488 4591 
L 1094 4591 
L 1094 2353 
L 3331 4591 
L 4191 4591 
L 2281 2741 
L 4244 0 
L 3434 0 
L 1828 2303 
L 1094 1600 
L 1094 0 
L 488 0 
L 488 4591 
z
" transform="scale(0.015625)"/>
        <path id="Helvetica-2f" d="M 1456 4591 
L 1931 4591 
L 475 0 
L 0 0 
L 1456 4591 
z
" transform="scale(0.015625)"/>
        <path id="Helvetica-49" d="M 628 4591 
L 1256 4591 
L 1256 0 
L 628 0 
L 628 4591 
z
" transform="scale(0.015625)"/>
        <path id="Helvetica-4c" d="M 488 4591 
L 1109 4591 
L 1109 547 
L 3434 547 
L 3434 0 
L 488 0 
L 488 4591 
z
" transform="scale(0.015625)"/>
        <path id="Helvetica-43" d="M 2422 4716 
Q 3294 4716 3775 4256 
Q 4256 3797 4309 3213 
L 3703 3213 
Q 3600 3656 3292 3915 
Q 2984 4175 2428 4175 
Q 1750 4175 1333 3698 
Q 916 3222 916 2238 
Q 916 1431 1292 929 
Q 1669 428 2416 428 
Q 3103 428 3463 956 
Q 3653 1234 3747 1688 
L 4353 1688 
Q 4272 963 3816 472 
Q 3269 -119 2341 -119 
Q 1541 -119 997 366 
Q 281 1006 281 2344 
Q 281 3359 819 4009 
Q 1400 4716 2422 4716 
z
M 2297 4716 
L 2297 4716 
z
" transform="scale(0.015625)"/>
        <path id="Helvetica-31" d="M 613 3169 
L 613 3600 
Q 1222 3659 1462 3798 
Q 1703 3938 1822 4456 
L 2266 4456 
L 2266 0 
L 1666 0 
L 1666 3169 
L 613 3169 
z
" transform="scale(0.015625)"/>
        <path id="Helvetica-69" d="M 413 3331 
L 984 3331 
L 984 0 
L 413 0 
L 413 3331 
z
M 413 4591 
L 984 4591 
L 984 3953 
L 413 3953 
L 413 4591 
z
" transform="scale(0.015625)"/>
        <path id="Helvetica-65" d="M 1806 3422 
Q 2163 3422 2497 3255 
Q 2831 3088 3006 2822 
Q 3175 2569 3231 2231 
Q 3281 2000 3281 1494 
L 828 1494 
Q 844 984 1069 676 
Q 1294 369 1766 369 
Q 2206 369 2469 659 
Q 2619 828 2681 1050 
L 3234 1050 
Q 3213 866 3089 639 
Q 2966 413 2813 269 
Q 2556 19 2178 -69 
Q 1975 -119 1719 -119 
Q 1094 -119 659 336 
Q 225 791 225 1609 
Q 225 2416 662 2919 
Q 1100 3422 1806 3422 
z
M 2703 1941 
Q 2669 2306 2544 2525 
Q 2313 2931 1772 2931 
Q 1384 2931 1121 2651 
Q 859 2372 844 1941 
L 2703 1941 
z
M 1753 3428 
L 1753 3428 
z
" transform="scale(0.015625)"/>
       </defs>
       <use xlink:href="#Helvetica-4e"/>
       <use xlink:href="#Helvetica-4b" x="72.216797"/>
       <use xlink:href="#Helvetica-2f" x="138.916016"/>
       <use xlink:href="#Helvetica-49" x="166.699219"/>
       <use xlink:href="#Helvetica-4c" x="194.482422"/>
       <use xlink:href="#Helvetica-43" x="250.097656"/>
       <use xlink:href="#Helvetica-31" x="322.314453"/>
       <use xlink:href="#Helvetica-69" x="377.929688"/>
       <use xlink:href="#Helvetica-65" x="400.146484"/>
      </g>
     </g>
    </g>
    <g id="xtick_2">
     <g id="text_2">
      <!-- ILC1 -->
      <g style="fill: #333333" transform="translate(41.451953 81.230229) scale(0.035 -0.035)">
       <use xlink:href="#Helvetica-49"/>
       <use xlink:href="#Helvetica-4c" x="27.783203"/>
       <use xlink:href="#Helvetica-43" x="83.398438"/>
       <use xlink:href="#Helvetica-31" x="155.615234"/>
      </g>
     </g>
    </g>
    <g id="xtick_3">
     <g id="text_3">
      <!-- TH1 -->
      <g style="fill: #333333" transform="translate(66.383408 81.230229) scale(0.035 -0.035)">
       <defs>
        <path id="Helvetica-54" d="M 3828 4591 
L 3828 4044 
L 2281 4044 
L 2281 0 
L 1650 0 
L 1650 4044 
L 103 4044 
L 103 4591 
L 3828 4591 
z
" transform="scale(0.015625)"/>
        <path id="Helvetica-48" d="M 503 4591 
L 1131 4591 
L 1131 2694 
L 3519 2694 
L 3519 4591 
L 4147 4591 
L 4147 0 
L 3519 0 
L 3519 2147 
L 1131 2147 
L 1131 0 
L 503 0 
L 503 4591 
z
" transform="scale(0.015625)"/>
       </defs>
       <use xlink:href="#Helvetica-54"/>
       <use xlink:href="#Helvetica-48" x="61.083984"/>
       <use xlink:href="#Helvetica-31" x="133.300781"/>
      </g>
     </g>
    </g>
   </g>
   <g id="matplotlib.axis_2">
    <g id="ytick_1">
     <g id="line2d_1">
      <defs>
       <path id="m4b7c9ad503" d="M 0 0 
L -1 0 
" style="stroke: #777777; stroke-width: 0.5"/>
      </defs>
      <g>
       <use xlink:href="#m4b7c9ad503" x="8.336802" y="66.995102" style="fill: #777777; stroke: #777777; stroke-width: 0.5"/>
      </g>
     </g>
     <g id="text_4">
      <!-- 0 -->
      <g style="fill: #333333" transform="translate(4.668521 68.071117) scale(0.03 -0.03)">
       <defs>
        <path id="Helvetica-30" d="M 1731 4475 
Q 2600 4475 2988 3759 
Q 3288 3206 3288 2244 
Q 3288 1331 3016 734 
Q 2622 -122 1728 -122 
Q 922 -122 528 578 
Q 200 1163 200 2147 
Q 200 2909 397 3456 
Q 766 4475 1731 4475 
z
M 1725 391 
Q 2163 391 2422 778 
Q 2681 1166 2681 2222 
Q 2681 2984 2493 3476 
Q 2306 3969 1766 3969 
Q 1269 3969 1039 3501 
Q 809 3034 809 2125 
Q 809 1441 956 1025 
Q 1181 391 1725 391 
z
" transform="scale(0.015625)"/>
       </defs>
       <use xlink:href="#Helvetica-30"/>
      </g>
     </g>
    </g>
    <g id="ytick_2">
     <g id="line2d_2">
      <g>
       <use xlink:href="#m4b7c9ad503" x="8.336802" y="54.411333" style="fill: #777777; stroke: #777777; stroke-width: 0.5"/>
      </g>
     </g>
     <g id="text_5">
      <!-- 10 -->
      <g style="fill: #333333" transform="translate(3.00024 55.487348) scale(0.03 -0.03)">
       <use xlink:href="#Helvetica-31"/>
       <use xlink:href="#Helvetica-30" x="55.615234"/>
      </g>
     </g>
    </g>
    <g id="ytick_3">
     <g id="line2d_3">
      <g>
       <use xlink:href="#m4b7c9ad503" x="8.336802" y="41.827563" style="fill: #777777; stroke: #777777; stroke-width: 0.5"/>
      </g>
     </g>
     <g id="text_6">
      <!-- 20 -->
      <g style="fill: #333333" transform="translate(3.00024 42.903579) scale(0.03 -0.03)">
       <defs>
        <path id="Helvetica-32" d="M 200 0 
Q 231 578 439 1006 
Q 647 1434 1250 1784 
L 1850 2131 
Q 2253 2366 2416 2531 
Q 2672 2791 2672 3125 
Q 2672 3516 2437 3745 
Q 2203 3975 1813 3975 
Q 1234 3975 1013 3538 
Q 894 3303 881 2888 
L 309 2888 
Q 319 3472 525 3841 
Q 891 4491 1816 4491 
Q 2584 4491 2939 4075 
Q 3294 3659 3294 3150 
Q 3294 2613 2916 2231 
Q 2697 2009 2131 1694 
L 1703 1456 
Q 1397 1288 1222 1134 
Q 909 863 828 531 
L 3272 531 
L 3272 0 
L 200 0 
z
" transform="scale(0.015625)"/>
       </defs>
       <use xlink:href="#Helvetica-32"/>
       <use xlink:href="#Helvetica-30" x="55.615234"/>
      </g>
     </g>
    </g>
    <g id="ytick_4">
     <g id="line2d_4">
      <g>
       <use xlink:href="#m4b7c9ad503" x="8.336802" y="29.243794" style="fill: #777777; stroke: #777777; stroke-width: 0.5"/>
      </g>
     </g>
     <g id="text_7">
      <!-- 30 -->
      <g style="fill: #333333" transform="translate(3.00024 30.31981) scale(0.03 -0.03)">
       <defs>
        <path id="Helvetica-33" d="M 1663 -122 
Q 869 -122 511 314 
Q 153 750 153 1375 
L 741 1375 
Q 778 941 903 744 
Q 1122 391 1694 391 
Q 2138 391 2406 628 
Q 2675 866 2675 1241 
Q 2675 1703 2392 1887 
Q 2109 2072 1606 2072 
Q 1550 2072 1492 2070 
Q 1434 2069 1375 2066 
L 1375 2563 
Q 1463 2553 1522 2550 
Q 1581 2547 1650 2547 
Q 1966 2547 2169 2647 
Q 2525 2822 2525 3272 
Q 2525 3606 2287 3787 
Q 2050 3969 1734 3969 
Q 1172 3969 956 3594 
Q 838 3388 822 3006 
L 266 3006 
Q 266 3506 466 3856 
Q 809 4481 1675 4481 
Q 2359 4481 2734 4176 
Q 3109 3872 3109 3294 
Q 3109 2881 2888 2625 
Q 2750 2466 2531 2375 
Q 2884 2278 3082 2001 
Q 3281 1725 3281 1325 
Q 3281 684 2859 281 
Q 2438 -122 1663 -122 
z
" transform="scale(0.015625)"/>
       </defs>
       <use xlink:href="#Helvetica-33"/>
       <use xlink:href="#Helvetica-30" x="55.615234"/>
      </g>
     </g>
    </g>
    <g id="ytick_5">
     <g id="line2d_5">
      <g>
       <use xlink:href="#m4b7c9ad503" x="8.336802" y="16.660025" style="fill: #777777; stroke: #777777; stroke-width: 0.5"/>
      </g>
     </g>
     <g id="text_8">
      <!-- 40 -->
      <g style="fill: #333333" transform="translate(3.00024 17.73604) scale(0.03 -0.03)">
       <defs>
        <path id="Helvetica-34" d="M 2116 1584 
L 2116 3613 
L 681 1584 
L 2116 1584 
z
M 2125 0 
L 2125 1094 
L 163 1094 
L 163 1644 
L 2213 4488 
L 2688 4488 
L 2688 1584 
L 3347 1584 
L 3347 1094 
L 2688 1094 
L 2688 0 
L 2125 0 
z
" transform="scale(0.015625)"/>
       </defs>
       <use xlink:href="#Helvetica-34"/>
       <use xlink:href="#Helvetica-30" x="55.615234"/>
      </g>
     </g>
    </g>
    <g id="ytick_6">
     <g id="line2d_6">
      <g>
       <use xlink:href="#m4b7c9ad503" x="8.336802" y="4.076256" style="fill: #777777; stroke: #777777; stroke-width: 0.5"/>
      </g>
     </g>
     <g id="text_9">
      <!-- 50 -->
      <g style="fill: #333333" transform="translate(3.00024 5.152271) scale(0.03 -0.03)">
       <defs>
        <path id="Helvetica-35" d="M 791 1141 
Q 847 659 1238 475 
Q 1438 381 1700 381 
Q 2200 381 2440 700 
Q 2681 1019 2681 1406 
Q 2681 1875 2395 2131 
Q 2109 2388 1709 2388 
Q 1419 2388 1211 2275 
Q 1003 2163 856 1963 
L 369 1991 
L 709 4400 
L 3034 4400 
L 3034 3856 
L 1131 3856 
L 941 2613 
Q 1097 2731 1238 2791 
Q 1488 2894 1816 2894 
Q 2431 2894 2859 2497 
Q 3288 2100 3288 1491 
Q 3288 856 2895 371 
Q 2503 -113 1644 -113 
Q 1097 -113 676 195 
Q 256 503 206 1141 
L 791 1141 
z
" transform="scale(0.015625)"/>
       </defs>
       <use xlink:href="#Helvetica-35"/>
       <use xlink:href="#Helvetica-30" x="55.615234"/>
      </g>
     </g>
    </g>
   </g>
   <g id="PolyCollection_1">
    <defs>
     <path id="m3b315fcc99" d="M 46.889443 -17.885607 
L 43.40712 -17.885607 
L 43.060522 -17.891429 
L 42.670555 -17.897251 
L 42.237815 -17.903072 
L 41.764406 -17.908894 
L 41.254104 -17.914716 
L 40.712444 -17.920538 
L 40.146723 -17.926359 
L 39.565901 -17.932181 
L 38.980394 -17.938003 
L 38.401749 -17.943825 
L 37.842227 -17.949647 
L 37.314294 -17.955468 
L 36.830049 -17.96129 
L 36.400636 -17.967112 
L 36.03566 -17.972934 
L 35.742659 -17.978755 
L 35.526682 -17.984577 
L 35.389982 -17.990399 
L 35.331887 -17.996221 
L 35.348834 -18.002043 
L 35.434594 -18.007864 
L 35.580666 -18.013686 
L 35.776806 -18.019508 
L 36.011683 -18.02533 
L 36.273575 -18.031151 
L 36.551094 -18.036973 
L 36.833848 -18.042795 
L 37.113022 -18.048617 
L 37.381818 -18.054439 
L 37.635724 -18.06026 
L 37.872603 -18.066082 
L 38.092603 -18.071904 
L 38.297886 -18.077726 
L 38.492231 -18.083547 
L 38.680517 -18.089369 
L 38.868167 -18.095191 
L 39.060564 -18.101013 
L 39.262521 -18.106835 
L 39.477817 -18.112656 
L 39.708848 -18.118478 
L 39.956407 -18.1243 
L 40.219603 -18.130122 
L 40.495915 -18.135943 
L 40.781374 -18.141765 
L 41.070841 -18.147587 
L 41.35836 -18.153409 
L 41.637554 -18.159231 
L 41.902033 -18.165052 
L 42.145787 -18.170874 
L 42.363532 -18.176696 
L 42.551005 -18.182518 
L 42.705172 -18.188339 
L 42.824366 -18.194161 
L 42.908333 -18.199983 
L 42.958199 -18.205805 
L 42.976364 -18.211627 
L 42.966324 -18.217448 
L 42.932451 -18.22327 
L 42.879725 -18.229092 
L 42.813449 -18.234914 
L 42.738958 -18.240735 
L 42.66133 -18.246557 
L 42.585139 -18.252379 
L 42.514232 -18.258201 
L 42.451574 -18.264023 
L 42.399148 -18.269844 
L 42.357932 -18.275666 
L 42.327936 -18.281488 
L 42.308322 -18.28731 
L 42.297569 -18.293131 
L 42.293686 -18.298953 
L 42.294461 -18.304775 
L 42.297707 -18.310597 
L 42.301505 -18.316419 
L 42.304407 -18.32224 
L 42.3056 -18.328062 
L 42.304996 -18.333884 
L 42.303265 -18.339706 
L 42.301793 -18.345527 
L 42.30257 -18.351349 
L 42.308033 -18.357171 
L 42.320856 -18.362993 
L 42.343737 -18.368815 
L 42.379165 -18.374636 
L 42.429213 -18.380458 
L 42.495371 -18.38628 
L 42.578414 -18.392102 
L 42.678339 -18.397923 
L 42.79435 -18.403745 
L 42.92491 -18.409567 
L 43.067835 -18.415389 
L 43.220435 -18.421211 
L 43.379674 -18.427032 
L 43.542346 -18.432854 
L 43.705253 -18.438676 
L 43.865355 -18.444498 
L 44.019915 -18.450319 
L 44.166594 -18.456141 
L 44.303521 -18.461963 
L 45.993041 -18.461963 
L 45.993041 -18.461963 
L 46.129969 -18.456141 
L 46.276647 -18.450319 
L 46.431207 -18.444498 
L 46.59131 -18.438676 
L 46.754216 -18.432854 
L 46.916889 -18.427032 
L 47.076127 -18.421211 
L 47.228727 -18.415389 
L 47.371652 -18.409567 
L 47.502212 -18.403745 
L 47.618223 -18.397923 
L 47.718148 -18.392102 
L 47.801192 -18.38628 
L 47.86735 -18.380458 
L 47.917398 -18.374636 
L 47.952825 -18.368815 
L 47.975706 -18.362993 
L 47.98853 -18.357171 
L 47.993992 -18.351349 
L 47.994769 -18.345527 
L 47.993297 -18.339706 
L 47.991567 -18.333884 
L 47.990963 -18.328062 
L 47.992155 -18.32224 
L 47.995058 -18.316419 
L 47.998855 -18.310597 
L 48.002102 -18.304775 
L 48.002877 -18.298953 
L 47.998994 -18.293131 
L 47.98824 -18.28731 
L 47.968626 -18.281488 
L 47.938631 -18.275666 
L 47.897414 -18.269844 
L 47.844989 -18.264023 
L 47.782331 -18.258201 
L 47.711424 -18.252379 
L 47.635232 -18.246557 
L 47.557605 -18.240735 
L 47.483113 -18.234914 
L 47.416838 -18.229092 
L 47.364112 -18.22327 
L 47.330239 -18.217448 
L 47.320199 -18.211627 
L 47.338363 -18.205805 
L 47.38823 -18.199983 
L 47.472197 -18.194161 
L 47.591391 -18.188339 
L 47.745558 -18.182518 
L 47.93303 -18.176696 
L 48.150776 -18.170874 
L 48.394529 -18.165052 
L 48.659008 -18.159231 
L 48.938202 -18.153409 
L 49.225721 -18.147587 
L 49.515188 -18.141765 
L 49.800648 -18.135943 
L 50.07696 -18.130122 
L 50.340155 -18.1243 
L 50.587714 -18.118478 
L 50.818745 -18.112656 
L 51.034042 -18.106835 
L 51.235999 -18.101013 
L 51.428396 -18.095191 
L 51.616045 -18.089369 
L 51.804332 -18.083547 
L 51.998676 -18.077726 
L 52.20396 -18.071904 
L 52.423959 -18.066082 
L 52.660839 -18.06026 
L 52.914744 -18.054439 
L 53.18354 -18.048617 
L 53.462715 -18.042795 
L 53.745469 -18.036973 
L 54.022987 -18.031151 
L 54.28488 -18.02533 
L 54.519756 -18.019508 
L 54.715897 -18.013686 
L 54.861968 -18.007864 
L 54.947729 -18.002043 
L 54.964676 -17.996221 
L 54.90658 -17.990399 
L 54.76988 -17.984577 
L 54.553903 -17.978755 
L 54.260903 -17.972934 
L 53.895926 -17.967112 
L 53.466513 -17.96129 
L 52.982269 -17.955468 
L 52.454335 -17.949647 
L 51.894814 -17.943825 
L 51.316169 -17.938003 
L 50.730661 -17.932181 
L 50.14984 -17.926359 
L 49.584119 -17.920538 
L 49.042459 -17.914716 
L 48.532157 -17.908894 
L 48.058748 -17.903072 
L 47.626007 -17.897251 
L 47.236041 -17.891429 
L 46.889443 -17.885607 
z
" style="stroke: #6f6f6f; stroke-width: 0.15"/>
    </defs>
    <g clip-path="url(#p081b368a56)">
     <use xlink:href="#m3b315fcc99" x="0" y="84.96" style="fill: #f2aba8; stroke: #6f6f6f; stroke-width: 0.15"/>
    </g>
   </g>
   <g id="PolyCollection_2">
    <defs>
     <path id="m86aa90679d" d="M 73.123678 -17.956775 
L 66.254856 -17.956775 
L 65.695838 -17.95738 
L 65.099702 -17.957985 
L 64.475773 -17.958591 
L 63.835735 -17.959196 
L 63.193373 -17.959801 
L 62.564154 -17.960406 
L 61.964661 -17.961011 
L 61.41189 -17.961617 
L 60.92247 -17.962222 
L 60.511839 -17.962827 
L 60.193439 -17.963432 
L 59.977986 -17.964037 
L 59.872873 -17.964643 
L 59.881745 -17.965248 
L 60.004294 -17.965853 
L 60.236274 -17.966458 
L 60.569745 -17.967063 
L 60.993525 -17.967669 
L 61.493813 -17.968274 
L 62.054932 -17.968879 
L 62.660143 -17.969484 
L 63.292463 -17.970089 
L 63.935442 -17.970695 
L 64.573838 -17.9713 
L 65.194167 -17.971905 
L 65.785099 -17.97251 
L 66.337689 -17.973115 
L 66.845447 -17.973721 
L 67.304277 -17.974326 
L 67.712284 -17.974931 
L 68.069506 -17.975536 
L 68.377577 -17.976141 
L 68.639379 -17.976747 
L 68.858677 -17.977352 
L 69.039792 -17.977957 
L 69.187306 -17.978562 
L 69.305816 -17.979167 
L 69.399744 -17.979773 
L 69.473199 -17.980378 
L 69.529886 -17.980983 
L 69.57306 -17.981588 
L 69.605516 -17.982193 
L 69.629595 -17.982799 
L 69.647226 -17.983404 
L 69.65996 -17.984009 
L 69.669026 -17.984614 
L 69.675373 -17.985219 
L 69.679721 -17.985825 
L 69.682602 -17.98643 
L 69.684397 -17.987035 
L 69.685362 -17.98764 
L 69.685652 -17.988245 
L 69.685342 -17.988851 
L 69.684433 -17.989456 
L 69.682861 -17.990061 
L 69.680497 -17.990666 
L 69.677154 -17.991271 
L 69.672577 -17.991877 
L 69.666446 -17.992482 
L 69.65837 -17.993087 
L 69.647889 -17.993692 
L 69.634478 -17.994297 
L 69.617553 -17.994903 
L 69.596482 -17.995508 
L 69.57061 -17.996113 
L 69.539282 -17.996718 
L 69.501882 -17.997323 
L 69.457872 -17.997929 
L 69.406841 -17.998534 
L 69.348554 -17.999139 
L 69.283007 -17.999744 
L 69.21047 -18.000349 
L 69.131529 -18.000955 
L 69.04711 -18.00156 
L 68.958491 -18.002165 
L 68.867292 -18.00277 
L 68.775438 -18.003375 
L 68.685107 -18.003981 
L 68.598648 -18.004586 
L 68.518488 -18.005191 
L 68.447018 -18.005796 
L 68.386478 -18.006401 
L 68.33884 -18.007007 
L 68.3057 -18.007612 
L 68.288193 -18.008217 
L 68.286925 -18.008822 
L 68.301941 -18.009427 
L 68.33272 -18.010033 
L 68.378206 -18.010638 
L 68.436867 -18.011243 
L 68.506785 -18.011848 
L 68.585752 -18.012453 
L 68.671394 -18.013059 
L 68.761282 -18.013664 
L 68.853048 -18.014269 
L 68.944482 -18.014874 
L 69.033615 -18.015479 
L 69.118777 -18.016085 
L 69.198637 -18.01669 
L 70.179897 -18.01669 
L 70.179897 -18.01669 
L 70.259757 -18.016085 
L 70.344919 -18.015479 
L 70.434052 -18.014874 
L 70.525486 -18.014269 
L 70.617252 -18.013664 
L 70.70714 -18.013059 
L 70.792782 -18.012453 
L 70.87175 -18.011848 
L 70.941667 -18.011243 
L 71.000328 -18.010638 
L 71.045814 -18.010033 
L 71.076593 -18.009427 
L 71.091609 -18.008822 
L 71.090342 -18.008217 
L 71.072835 -18.007612 
L 71.039695 -18.007007 
L 70.992056 -18.006401 
L 70.931516 -18.005796 
L 70.860046 -18.005191 
L 70.779886 -18.004586 
L 70.693428 -18.003981 
L 70.603096 -18.003375 
L 70.511242 -18.00277 
L 70.420043 -18.002165 
L 70.331424 -18.00156 
L 70.247005 -18.000955 
L 70.168064 -18.000349 
L 70.095527 -17.999744 
L 70.02998 -17.999139 
L 69.971693 -17.998534 
L 69.920662 -17.997929 
L 69.876652 -17.997323 
L 69.839252 -17.996718 
L 69.807925 -17.996113 
L 69.782052 -17.995508 
L 69.760981 -17.994903 
L 69.744056 -17.994297 
L 69.730645 -17.993692 
L 69.720165 -17.993087 
L 69.712088 -17.992482 
L 69.705957 -17.991877 
L 69.70138 -17.991271 
L 69.698037 -17.990666 
L 69.695674 -17.990061 
L 69.694101 -17.989456 
L 69.693192 -17.988851 
L 69.692882 -17.988245 
L 69.693173 -17.98764 
L 69.694137 -17.987035 
L 69.695932 -17.98643 
L 69.698813 -17.985825 
L 69.703162 -17.985219 
L 69.709508 -17.984614 
L 69.718574 -17.984009 
L 69.731308 -17.983404 
L 69.748939 -17.982799 
L 69.773019 -17.982193 
L 69.805474 -17.981588 
L 69.848648 -17.980983 
L 69.905335 -17.980378 
L 69.97879 -17.979773 
L 70.072718 -17.979167 
L 70.191228 -17.978562 
L 70.338742 -17.977957 
L 70.519857 -17.977352 
L 70.739155 -17.976747 
L 71.000957 -17.976141 
L 71.309029 -17.975536 
L 71.66625 -17.974931 
L 72.074257 -17.974326 
L 72.533087 -17.973721 
L 73.040845 -17.973115 
L 73.593435 -17.97251 
L 74.184367 -17.971905 
L 74.804697 -17.9713 
L 75.443092 -17.970695 
L 76.086071 -17.970089 
L 76.718391 -17.969484 
L 77.323602 -17.968879 
L 77.884721 -17.968274 
L 78.385009 -17.967669 
L 78.808789 -17.967063 
L 79.14226 -17.966458 
L 79.37424 -17.965853 
L 79.496789 -17.965248 
L 79.505661 -17.964643 
L 79.400548 -17.964037 
L 79.185095 -17.963432 
L 78.866695 -17.962827 
L 78.456064 -17.962222 
L 77.966644 -17.961617 
L 77.413873 -17.961011 
L 76.81438 -17.960406 
L 76.185162 -17.959801 
L 75.542799 -17.959196 
L 74.902761 -17.958591 
L 74.278832 -17.957985 
L 73.682696 -17.95738 
L 73.123678 -17.956775 
z
" style="stroke: #6f6f6f; stroke-width: 0.15"/>
    </defs>
    <g clip-path="url(#p081b368a56)">
     <use xlink:href="#m86aa90679d" x="0" y="84.96" style="fill: #d3c4f6; stroke: #6f6f6f; stroke-width: 0.15"/>
    </g>
   </g>
   <g id="line2d_7">
    <path d="M 10.790901 66.995102 
L 30.42369 66.995102 
" clip-path="url(#p081b368a56)" style="fill: none; stroke: #6f6f6f; stroke-width: 0.15; stroke-linecap: round"/>
   </g>
   <g id="line2d_8">
    <path d="M 45.148281 66.995102 
L 45.148281 66.689423 
" clip-path="url(#p081b368a56)" style="fill: none; stroke: #8c8c8c; stroke-width: 0.75; stroke-linecap: round"/>
   </g>
   <g id="line2d_9">
    <path d="M 45.148281 66.962371 
L 45.148281 66.809574 
" clip-path="url(#p081b368a56)" style="fill: none; stroke: #8c8c8c; stroke-width: 4; stroke-linecap: round"/>
   </g>
   <g id="line2d_10">
    <path d="M 45.148281 66.906698 
" clip-path="url(#p081b368a56)" style="fill: none; stroke: #6f6f6f; stroke-width: 1.2; stroke-linecap: round"/>
    <defs>
     <path id="m5a6898015f" d="M 0 0.833333 
C 0.221003 0.833333 0.432983 0.745528 0.589256 0.589256 
C 0.745528 0.432983 0.833333 0.221003 0.833333 0 
C 0.833333 -0.221003 0.745528 -0.432983 0.589256 -0.589256 
C 0.432983 -0.745528 0.221003 -0.833333 0 -0.833333 
C -0.221003 -0.833333 -0.432983 -0.745528 -0.589256 -0.589256 
C -0.745528 -0.432983 -0.833333 -0.221003 -0.833333 0 
C -0.833333 0.221003 -0.745528 0.432983 -0.589256 0.589256 
C -0.432983 0.745528 -0.221003 0.833333 0 0.833333 
z
" style="stroke: #ffffff; stroke-width: 0.8"/>
    </defs>
    <g clip-path="url(#p081b368a56)">
     <use xlink:href="#m5a6898015f" x="45.148281" y="66.906698" style="fill: #ffffff; stroke: #ffffff; stroke-width: 0.8"/>
    </g>
   </g>
   <g id="line2d_11">
    <path d="M 69.689267 66.995102 
L 69.689267 66.995102 
" clip-path="url(#p081b368a56)" style="fill: none; stroke: #8c8c8c; stroke-width: 0.75; stroke-linecap: round"/>
   </g>
   <g id="line2d_12">
    <path d="M 69.689267 66.995102 
L 69.689267 66.995102 
" clip-path="url(#p081b368a56)" style="fill: none; stroke: #8c8c8c; stroke-width: 4; stroke-linecap: round"/>
   </g>
   <g id="line2d_13">
    <path d="M 69.689267 66.995102 
" clip-path="url(#p081b368a56)" style="fill: none; stroke: #6f6f6f; stroke-width: 1.2; stroke-linecap: round"/>
    <g clip-path="url(#p081b368a56)">
     <use xlink:href="#m5a6898015f" x="69.689267" y="66.995102" style="fill: #ffffff; stroke: #ffffff; stroke-width: 0.8"/>
    </g>
   </g>
   <g id="patch_3">
    <path d="M 8.336802 74.419526 
L 8.336802 4.076256 
" style="fill: none; stroke: #777777; stroke-width: 0.5; stroke-linejoin: miter; stroke-linecap: square"/>
   </g>
   <g id="patch_4">
    <path d="M 8.336802 76.919526 
L 81.95976 76.919526 
" style="fill: none; stroke: #777777; stroke-width: 0.5; stroke-linejoin: miter; stroke-linecap: square"/>
   </g>
  </g>
 </g>
 <defs>
  <clipPath id="p081b368a56">
   <rect x="8.336802" y="4.076256" width="73.622957" height="70.34327"/>
  </clipPath>
 </defs>
</svg>
