<?xml version="1.0" encoding="utf-8" standalone="no"?>
<!DOCTYPE svg PUBLIC "-//W3C//DTD SVG 1.1//EN"
  "http://www.w3.org/Graphics/SVG/1.1/DTD/svg11.dtd">
<svg xmlns:xlink="http://www.w3.org/1999/xlink" width="169.92pt" height="105.84pt" viewBox="0 0 169.92 105.84" xmlns="http://www.w3.org/2000/svg" version="1.1">
 <metadata>
  <rdf:RDF xmlns:dc="http://purl.org/dc/elements/1.1/" xmlns:cc="http://creativecommons.org/ns#" xmlns:rdf="http://www.w3.org/1999/02/22-rdf-syntax-ns#">
   <cc:Work>
    <dc:type rdf:resource="http://purl.org/dc/dcmitype/StillImage"/>
    <dc:date>2024-05-27T15:37:22.737719</dc:date>
    <dc:format>image/svg+xml</dc:format>
    <dc:creator>
     <cc:Agent>
      <dc:title>Matplotlib v3.8.3, https://matplotlib.org/</dc:title>
     </cc:Agent>
    </dc:creator>
   </cc:Work>
  </rdf:RDF>
 </metadata>
 <defs>
  <style type="text/css">*{stroke-linejoin: round; stroke-linecap: butt}</style>
 </defs>
 <g id="figure_1">
  <g id="patch_1">
   <path d="M 0 105.84 
L 169.92 105.84 
L 169.92 0 
L 0 0 
z
" style="fill: #ffffff"/>
  </g>
  <g id="axes_1">
   <g id="patch_2">
    <path d="M 9.17024 80.649838 
L 75.721366 80.649838 
L 75.721366 4.076256 
L 9.17024 4.076256 
z
" style="fill: #ffffff"/>
   </g>
   <g id="matplotlib.axis_1">
    <g id="xtick_1">
     <g id="text_1">
      <!-- NK/ILC1ie -->
      <g style="fill: #333333" transform="translate(18.379717 100.901088) rotate(-90) scale(0.035 -0.035)">
       <defs>
        <path id="Helvetica-4e" d="M 488 4591 
L 1222 4591 
L 3541 872 
L 3541 4591 
L 4131 4591 
L 4131 0 
L 3434 0 
L 1081 3716 
L 1081 0 
L 488 0 
L 488 4591 
z
M 2269 4591 
L 2269 4591 
z
" transform="scale(0.015625)"/>
        <path id="Helvetica-4b" d="M 488 4591 
L 1094 4591 
L 1094 2353 
L 3331 4591 
L 4191 4591 
L 2281 2741 
L 4244 0 
L 3434 0 
L 1828 2303 
L 1094 1600 
L 1094 0 
L 488 0 
L 488 4591 
z
" transform="scale(0.015625)"/>
        <path id="Helvetica-2f" d="M 1456 4591 
L 1931 4591 
L 475 0 
L 0 0 
L 1456 4591 
z
" transform="scale(0.015625)"/>
        <path id="Helvetica-49" d="M 628 4591 
L 1256 4591 
L 1256 0 
L 628 0 
L 628 4591 
z
" transform="scale(0.015625)"/>
        <path id="Helvetica-4c" d="M 488 4591 
L 1109 4591 
L 1109 547 
L 3434 547 
L 3434 0 
L 488 0 
L 488 4591 
z
" transform="scale(0.015625)"/>
        <path id="Helvetica-43" d="M 2422 4716 
Q 3294 4716 3775 4256 
Q 4256 3797 4309 3213 
L 3703 3213 
Q 3600 3656 3292 3915 
Q 2984 4175 2428 4175 
Q 1750 4175 1333 3698 
Q 916 3222 916 2238 
Q 916 1431 1292 929 
Q 1669 428 2416 428 
Q 3103 428 3463 956 
Q 3653 1234 3747 1688 
L 4353 1688 
Q 4272 963 3816 472 
Q 3269 -119 2341 -119 
Q 1541 -119 997 366 
Q 281 1006 281 2344 
Q 281 3359 819 4009 
Q 1400 4716 2422 4716 
z
M 2297 4716 
L 2297 4716 
z
" transform="scale(0.015625)"/>
        <path id="Helvetica-31" d="M 613 3169 
L 613 3600 
Q 1222 3659 1462 3798 
Q 1703 3938 1822 4456 
L 2266 4456 
L 2266 0 
L 1666 0 
L 1666 3169 
L 613 3169 
z
" transform="scale(0.015625)"/>
        <path id="Helvetica-69" d="M 413 3331 
L 984 3331 
L 984 0 
L 413 0 
L 413 3331 
z
M 413 4591 
L 984 4591 
L 984 3953 
L 413 3953 
L 413 4591 
z
" transform="scale(0.015625)"/>
        <path id="Helvetica-65" d="M 1806 3422 
Q 2163 3422 2497 3255 
Q 2831 3088 3006 2822 
Q 3175 2569 3231 2231 
Q 3281 2000 3281 1494 
L 828 1494 
Q 844 984 1069 676 
Q 1294 369 1766 369 
Q 2206 369 2469 659 
Q 2619 828 2681 1050 
L 3234 1050 
Q 3213 866 3089 639 
Q 2966 413 2813 269 
Q 2556 19 2178 -69 
Q 1975 -119 1719 -119 
Q 1094 -119 659 336 
Q 225 791 225 1609 
Q 225 2416 662 2919 
Q 1100 3422 1806 3422 
z
M 2703 1941 
Q 2669 2306 2544 2525 
Q 2313 2931 1772 2931 
Q 1384 2931 1121 2651 
Q 859 2372 844 1941 
L 2703 1941 
z
M 1753 3428 
L 1753 3428 
z
" transform="scale(0.015625)"/>
       </defs>
       <use xlink:href="#Helvetica-4e"/>
       <use xlink:href="#Helvetica-4b" x="72.216797"/>
       <use xlink:href="#Helvetica-2f" x="138.916016"/>
       <use xlink:href="#Helvetica-49" x="166.699219"/>
       <use xlink:href="#Helvetica-4c" x="194.482422"/>
       <use xlink:href="#Helvetica-43" x="250.097656"/>
       <use xlink:href="#Helvetica-31" x="322.314453"/>
       <use xlink:href="#Helvetica-69" x="377.929688"/>
       <use xlink:href="#Helvetica-65" x="400.146484"/>
      </g>
     </g>
    </g>
    <g id="xtick_2">
     <g id="text_2">
      <!-- ILC1 -->
      <g style="fill: #333333" transform="translate(35.017498 92.342494) rotate(-90) scale(0.035 -0.035)">
       <use xlink:href="#Helvetica-49"/>
       <use xlink:href="#Helvetica-4c" x="27.783203"/>
       <use xlink:href="#Helvetica-43" x="83.398438"/>
       <use xlink:href="#Helvetica-31" x="155.615234"/>
      </g>
     </g>
    </g>
    <g id="xtick_3">
     <g id="text_3">
      <!-- ILC2 -->
      <g style="fill: #333333" transform="translate(51.65528 92.342494) rotate(-90) scale(0.035 -0.035)">
       <defs>
        <path id="Helvetica-32" d="M 200 0 
Q 231 578 439 1006 
Q 647 1434 1250 1784 
L 1850 2131 
Q 2253 2366 2416 2531 
Q 2672 2791 2672 3125 
Q 2672 3516 2437 3745 
Q 2203 3975 1813 3975 
Q 1234 3975 1013 3538 
Q 894 3303 881 2888 
L 309 2888 
Q 319 3472 525 3841 
Q 891 4491 1816 4491 
Q 2584 4491 2939 4075 
Q 3294 3659 3294 3150 
Q 3294 2613 2916 2231 
Q 2697 2009 2131 1694 
L 1703 1456 
Q 1397 1288 1222 1134 
Q 909 863 828 531 
L 3272 531 
L 3272 0 
L 200 0 
z
" transform="scale(0.015625)"/>
       </defs>
       <use xlink:href="#Helvetica-49"/>
       <use xlink:href="#Helvetica-4c" x="27.783203"/>
       <use xlink:href="#Helvetica-43" x="83.398438"/>
       <use xlink:href="#Helvetica-32" x="155.615234"/>
      </g>
     </g>
    </g>
    <g id="xtick_4">
     <g id="text_4">
      <!-- ILC3 -->
      <g style="fill: #333333" transform="translate(68.293061 92.342494) rotate(-90) scale(0.035 -0.035)">
       <defs>
        <path id="Helvetica-33" d="M 1663 -122 
Q 869 -122 511 314 
Q 153 750 153 1375 
L 741 1375 
Q 778 941 903 744 
Q 1122 391 1694 391 
Q 2138 391 2406 628 
Q 2675 866 2675 1241 
Q 2675 1703 2392 1887 
Q 2109 2072 1606 2072 
Q 1550 2072 1492 2070 
Q 1434 2069 1375 2066 
L 1375 2563 
Q 1463 2553 1522 2550 
Q 1581 2547 1650 2547 
Q 1966 2547 2169 2647 
Q 2525 2822 2525 3272 
Q 2525 3606 2287 3787 
Q 2050 3969 1734 3969 
Q 1172 3969 956 3594 
Q 838 3388 822 3006 
L 266 3006 
Q 266 3506 466 3856 
Q 809 4481 1675 4481 
Q 2359 4481 2734 4176 
Q 3109 3872 3109 3294 
Q 3109 2881 2888 2625 
Q 2750 2466 2531 2375 
Q 2884 2278 3082 2001 
Q 3281 1725 3281 1325 
Q 3281 684 2859 281 
Q 2438 -122 1663 -122 
z
" transform="scale(0.015625)"/>
       </defs>
       <use xlink:href="#Helvetica-49"/>
       <use xlink:href="#Helvetica-4c" x="27.783203"/>
       <use xlink:href="#Helvetica-43" x="83.398438"/>
       <use xlink:href="#Helvetica-33" x="155.615234"/>
      </g>
     </g>
    </g>
   </g>
   <g id="matplotlib.axis_2">
    <g id="ytick_1">
     <g id="line2d_1">
      <defs>
       <path id="mb09e53b13b" d="M 0 0 
L -1 0 
" style="stroke: #777777; stroke-width: 0.5"/>
      </defs>
      <g>
       <use xlink:href="#mb09e53b13b" x="9.17024" y="72.293256" style="fill: #777777; stroke: #777777; stroke-width: 0.5"/>
      </g>
     </g>
     <g id="text_5">
      <!-- 0.0 -->
      <g style="fill: #333333" transform="translate(3.00024 73.369271) scale(0.03 -0.03)">
       <defs>
        <path id="Helvetica-30" d="M 1731 4475 
Q 2600 4475 2988 3759 
Q 3288 3206 3288 2244 
Q 3288 1331 3016 734 
Q 2622 -122 1728 -122 
Q 922 -122 528 578 
Q 200 1163 200 2147 
Q 200 2909 397 3456 
Q 766 4475 1731 4475 
z
M 1725 391 
Q 2163 391 2422 778 
Q 2681 1166 2681 2222 
Q 2681 2984 2493 3476 
Q 2306 3969 1766 3969 
Q 1269 3969 1039 3501 
Q 809 3034 809 2125 
Q 809 1441 956 1025 
Q 1181 391 1725 391 
z
" transform="scale(0.015625)"/>
        <path id="Helvetica-2e" d="M 547 681 
L 1200 681 
L 1200 0 
L 547 0 
L 547 681 
z
" transform="scale(0.015625)"/>
       </defs>
       <use xlink:href="#Helvetica-30"/>
       <use xlink:href="#Helvetica-2e" x="55.615234"/>
       <use xlink:href="#Helvetica-30" x="83.398438"/>
      </g>
     </g>
    </g>
    <g id="ytick_2">
     <g id="line2d_2">
      <g>
       <use xlink:href="#mb09e53b13b" x="9.17024" y="63.766131" style="fill: #777777; stroke: #777777; stroke-width: 0.5"/>
      </g>
     </g>
     <g id="text_6">
      <!-- 0.5 -->
      <g style="fill: #333333" transform="translate(3.00024 64.842146) scale(0.03 -0.03)">
       <defs>
        <path id="Helvetica-35" d="M 791 1141 
Q 847 659 1238 475 
Q 1438 381 1700 381 
Q 2200 381 2440 700 
Q 2681 1019 2681 1406 
Q 2681 1875 2395 2131 
Q 2109 2388 1709 2388 
Q 1419 2388 1211 2275 
Q 1003 2163 856 1963 
L 369 1991 
L 709 4400 
L 3034 4400 
L 3034 3856 
L 1131 3856 
L 941 2613 
Q 1097 2731 1238 2791 
Q 1488 2894 1816 2894 
Q 2431 2894 2859 2497 
Q 3288 2100 3288 1491 
Q 3288 856 2895 371 
Q 2503 -113 1644 -113 
Q 1097 -113 676 195 
Q 256 503 206 1141 
L 791 1141 
z
" transform="scale(0.015625)"/>
       </defs>
       <use xlink:href="#Helvetica-30"/>
       <use xlink:href="#Helvetica-2e" x="55.615234"/>
       <use xlink:href="#Helvetica-35" x="83.398438"/>
      </g>
     </g>
    </g>
    <g id="ytick_3">
     <g id="line2d_3">
      <g>
       <use xlink:href="#mb09e53b13b" x="9.17024" y="55.239006" style="fill: #777777; stroke: #777777; stroke-width: 0.5"/>
      </g>
     </g>
     <g id="text_7">
      <!-- 1.0 -->
      <g style="fill: #333333" transform="translate(3.00024 56.315021) scale(0.03 -0.03)">
       <use xlink:href="#Helvetica-31"/>
       <use xlink:href="#Helvetica-2e" x="55.615234"/>
       <use xlink:href="#Helvetica-30" x="83.398438"/>
      </g>
     </g>
    </g>
    <g id="ytick_4">
     <g id="line2d_4">
      <g>
       <use xlink:href="#mb09e53b13b" x="9.17024" y="46.711881" style="fill: #777777; stroke: #777777; stroke-width: 0.5"/>
      </g>
     </g>
     <g id="text_8">
      <!-- 1.5 -->
      <g style="fill: #333333" transform="translate(3.00024 47.787896) scale(0.03 -0.03)">
       <use xlink:href="#Helvetica-31"/>
       <use xlink:href="#Helvetica-2e" x="55.615234"/>
       <use xlink:href="#Helvetica-35" x="83.398438"/>
      </g>
     </g>
    </g>
    <g id="ytick_5">
     <g id="line2d_5">
      <g>
       <use xlink:href="#mb09e53b13b" x="9.17024" y="38.184756" style="fill: #777777; stroke: #777777; stroke-width: 0.5"/>
      </g>
     </g>
     <g id="text_9">
      <!-- 2.0 -->
      <g style="fill: #333333" transform="translate(3.00024 39.260771) scale(0.03 -0.03)">
       <use xlink:href="#Helvetica-32"/>
       <use xlink:href="#Helvetica-2e" x="55.615234"/>
       <use xlink:href="#Helvetica-30" x="83.398438"/>
      </g>
     </g>
    </g>
    <g id="ytick_6">
     <g id="line2d_6">
      <g>
       <use xlink:href="#mb09e53b13b" x="9.17024" y="29.657631" style="fill: #777777; stroke: #777777; stroke-width: 0.5"/>
      </g>
     </g>
     <g id="text_10">
      <!-- 2.5 -->
      <g style="fill: #333333" transform="translate(3.00024 30.733646) scale(0.03 -0.03)">
       <use xlink:href="#Helvetica-32"/>
       <use xlink:href="#Helvetica-2e" x="55.615234"/>
       <use xlink:href="#Helvetica-35" x="83.398438"/>
      </g>
     </g>
    </g>
    <g id="ytick_7">
     <g id="line2d_7">
      <g>
       <use xlink:href="#mb09e53b13b" x="9.17024" y="21.130506" style="fill: #777777; stroke: #777777; stroke-width: 0.5"/>
      </g>
     </g>
     <g id="text_11">
      <!-- 3.0 -->
      <g style="fill: #333333" transform="translate(3.00024 22.206521) scale(0.03 -0.03)">
       <use xlink:href="#Helvetica-33"/>
       <use xlink:href="#Helvetica-2e" x="55.615234"/>
       <use xlink:href="#Helvetica-30" x="83.398438"/>
      </g>
     </g>
    </g>
    <g id="ytick_8">
     <g id="line2d_8">
      <g>
       <use xlink:href="#mb09e53b13b" x="9.17024" y="12.603381" style="fill: #777777; stroke: #777777; stroke-width: 0.5"/>
      </g>
     </g>
     <g id="text_12">
      <!-- 3.5 -->
      <g style="fill: #333333" transform="translate(3.00024 13.679396) scale(0.03 -0.03)">
       <use xlink:href="#Helvetica-33"/>
       <use xlink:href="#Helvetica-2e" x="55.615234"/>
       <use xlink:href="#Helvetica-35" x="83.398438"/>
      </g>
     </g>
    </g>
    <g id="ytick_9">
     <g id="line2d_9">
      <g>
       <use xlink:href="#mb09e53b13b" x="9.17024" y="4.076256" style="fill: #777777; stroke: #777777; stroke-width: 0.5"/>
      </g>
     </g>
     <g id="text_13">
      <!-- 4.0 -->
      <g style="fill: #333333" transform="translate(3.00024 5.152271) scale(0.03 -0.03)">
       <defs>
        <path id="Helvetica-34" d="M 2116 1584 
L 2116 3613 
L 681 1584 
L 2116 1584 
z
M 2125 0 
L 2125 1094 
L 163 1094 
L 163 1644 
L 2213 4488 
L 2688 4488 
L 2688 1584 
L 3347 1584 
L 3347 1094 
L 2688 1094 
L 2688 0 
L 2125 0 
z
" transform="scale(0.015625)"/>
       </defs>
       <use xlink:href="#Helvetica-34"/>
       <use xlink:href="#Helvetica-2e" x="55.615234"/>
       <use xlink:href="#Helvetica-30" x="83.398438"/>
      </g>
     </g>
    </g>
   </g>
   <g id="PolyCollection_1">
    <defs>
     <path id="m781a4b790d" d="M 17.985947 -33.517408 
L 16.992314 -33.517408 
L 16.871966 -33.519263 
L 16.730664 -33.521117 
L 16.566907 -33.522971 
L 16.379604 -33.524825 
L 16.168188 -33.52668 
L 15.932716 -33.528534 
L 15.673959 -33.530388 
L 15.393451 -33.532243 
L 15.093505 -33.534097 
L 14.777188 -33.535951 
L 14.448244 -33.537806 
L 14.110986 -33.53966 
L 13.770137 -33.541514 
L 13.430655 -33.543369 
L 13.097534 -33.545223 
L 12.775613 -33.547077 
L 12.46939 -33.548932 
L 12.182872 -33.550786 
L 11.919461 -33.55264 
L 11.681884 -33.554495 
L 11.472176 -33.556349 
L 11.291701 -33.558203 
L 11.141216 -33.560058 
L 11.020954 -33.561912 
L 10.930727 -33.563766 
L 10.870025 -33.565621 
L 10.838097 -33.567475 
L 10.834018 -33.569329 
L 10.856732 -33.571183 
L 10.905061 -33.573038 
L 10.977705 -33.574892 
L 11.073226 -33.576746 
L 11.190022 -33.578601 
L 11.326325 -33.580455 
L 11.480194 -33.582309 
L 11.649545 -33.584164 
L 11.832187 -33.586018 
L 12.025888 -33.587872 
L 12.228438 -33.589727 
L 12.437721 -33.591581 
L 12.651777 -33.593435 
L 12.86884 -33.59529 
L 13.087351 -33.597144 
L 13.30594 -33.598998 
L 13.52338 -33.600853 
L 13.738504 -33.602707 
L 13.950115 -33.604561 
L 14.156877 -33.606416 
L 14.357215 -33.60827 
L 14.549228 -33.610124 
L 14.730628 -33.611979 
L 14.898714 -33.613833 
L 15.05039 -33.615687 
L 15.182226 -33.617541 
L 15.290551 -33.619396 
L 15.371603 -33.62125 
L 15.421697 -33.623104 
L 15.43742 -33.624959 
L 15.415839 -33.626813 
L 15.354717 -33.628667 
L 15.252715 -33.630522 
L 15.109573 -33.632376 
L 14.926263 -33.63423 
L 14.705101 -33.636085 
L 14.449805 -33.637939 
L 14.165488 -33.639793 
L 13.858599 -33.641648 
L 13.536778 -33.643502 
L 13.208657 -33.645356 
L 12.883586 -33.647211 
L 12.571311 -33.649065 
L 12.281609 -33.650919 
L 12.023893 -33.652774 
L 11.806822 -33.654628 
L 11.637929 -33.656482 
L 11.52328 -33.658337 
L 11.467213 -33.660191 
L 11.472141 -33.662045 
L 11.538462 -33.663899 
L 11.664558 -33.665754 
L 11.846903 -33.667608 
L 12.080261 -33.669462 
L 12.357962 -33.671317 
L 12.672239 -33.673171 
L 13.014608 -33.675025 
L 13.376255 -33.67688 
L 13.748424 -33.678734 
L 14.12276 -33.680588 
L 14.491613 -33.682443 
L 14.848276 -33.684297 
L 15.187149 -33.686151 
L 15.503832 -33.688006 
L 15.795151 -33.68986 
L 16.059114 -33.691714 
L 16.294822 -33.693569 
L 16.502336 -33.695423 
L 16.682519 -33.697277 
L 16.836869 -33.699132 
L 16.967346 -33.700986 
L 18.010915 -33.700986 
L 18.010915 -33.700986 
L 18.141392 -33.699132 
L 18.295742 -33.697277 
L 18.475926 -33.695423 
L 18.68344 -33.693569 
L 18.919148 -33.691714 
L 19.183111 -33.68986 
L 19.47443 -33.688006 
L 19.791113 -33.686151 
L 20.129985 -33.684297 
L 20.486648 -33.682443 
L 20.855502 -33.680588 
L 21.229837 -33.678734 
L 21.602006 -33.67688 
L 21.963654 -33.675025 
L 22.306022 -33.673171 
L 22.620299 -33.671317 
L 22.898 -33.669462 
L 23.131359 -33.667608 
L 23.313704 -33.665754 
L 23.4398 -33.663899 
L 23.50612 -33.662045 
L 23.511048 -33.660191 
L 23.454981 -33.658337 
L 23.340333 -33.656482 
L 23.171439 -33.654628 
L 22.954369 -33.652774 
L 22.696653 -33.650919 
L 22.40695 -33.649065 
L 22.094676 -33.647211 
L 21.769605 -33.645356 
L 21.441484 -33.643502 
L 21.119663 -33.641648 
L 20.812773 -33.639793 
L 20.528457 -33.637939 
L 20.27316 -33.636085 
L 20.051999 -33.63423 
L 19.868689 -33.632376 
L 19.725547 -33.630522 
L 19.623544 -33.628667 
L 19.562423 -33.626813 
L 19.540842 -33.624959 
L 19.556564 -33.623104 
L 19.606658 -33.62125 
L 19.687711 -33.619396 
L 19.796036 -33.617541 
L 19.927871 -33.615687 
L 20.079548 -33.613833 
L 20.247634 -33.611979 
L 20.429033 -33.610124 
L 20.621046 -33.60827 
L 20.821385 -33.606416 
L 21.028147 -33.604561 
L 21.239758 -33.602707 
L 21.454882 -33.600853 
L 21.672321 -33.598998 
L 21.890911 -33.597144 
L 22.109421 -33.59529 
L 22.326484 -33.593435 
L 22.54054 -33.591581 
L 22.749824 -33.589727 
L 22.952373 -33.587872 
L 23.146074 -33.586018 
L 23.328717 -33.584164 
L 23.498068 -33.582309 
L 23.651937 -33.580455 
L 23.788239 -33.578601 
L 23.905036 -33.576746 
L 24.000556 -33.574892 
L 24.073201 -33.573038 
L 24.12153 -33.571183 
L 24.144243 -33.569329 
L 24.140165 -33.567475 
L 24.108236 -33.565621 
L 24.047534 -33.563766 
L 23.957308 -33.561912 
L 23.837046 -33.560058 
L 23.68656 -33.558203 
L 23.506085 -33.556349 
L 23.296377 -33.554495 
L 23.058801 -33.55264 
L 22.795389 -33.550786 
L 22.508872 -33.548932 
L 22.202648 -33.547077 
L 21.880727 -33.545223 
L 21.547607 -33.543369 
L 21.208125 -33.541514 
L 20.867276 -33.53966 
L 20.530018 -33.537806 
L 20.201074 -33.535951 
L 19.884756 -33.534097 
L 19.584811 -33.532243 
L 19.304303 -33.530388 
L 19.045546 -33.528534 
L 18.810074 -33.52668 
L 18.598657 -33.524825 
L 18.411355 -33.522971 
L 18.247598 -33.521117 
L 18.106296 -33.519263 
L 17.985947 -33.517408 
z
" style="stroke: #444444; stroke-width: 0.15"/>
    </defs>
    <g clip-path="url(#pe2a542fbf1)">
     <use xlink:href="#m781a4b790d" x="0" y="105.84" style="fill: #546e8e; stroke: #444444; stroke-width: 0.15"/>
    </g>
   </g>
   <g id="PolyCollection_2">
    <defs>
     <path id="me748c26dd7" d="M 34.599488 -32.546841 
L 33.654337 -32.546841 
L 33.53105 -32.604842 
L 33.384873 -32.662843 
L 33.214234 -32.720845 
L 33.018189 -32.778846 
L 32.796616 -32.836847 
L 32.550391 -32.894848 
L 32.281533 -32.952849 
L 31.993298 -33.01085 
L 31.690202 -33.068851 
L 31.377964 -33.126852 
L 31.063353 -33.184853 
L 30.753943 -33.242854 
L 30.457781 -33.300855 
L 30.182975 -33.358856 
L 29.937239 -33.416857 
L 29.727414 -33.474858 
L 29.559002 -33.532859 
L 29.435759 -33.59086 
L 29.359362 -33.648862 
L 29.329202 -33.706863 
L 29.342308 -33.764864 
L 29.393419 -33.822865 
L 29.475215 -33.880866 
L 29.578668 -33.938867 
L 29.693527 -33.996868 
L 29.808872 -34.054869 
L 29.913732 -34.11287 
L 29.997703 -34.170871 
L 30.051542 -34.228872 
L 30.067697 -34.286873 
L 30.040744 -34.344874 
L 29.967705 -34.402875 
L 29.848236 -34.460876 
L 29.684668 -34.518878 
L 29.481913 -34.576879 
L 29.247232 -34.63488 
L 28.989883 -34.692881 
L 28.720664 -34.750882 
L 28.451379 -34.808883 
L 28.194244 -34.866884 
L 27.961281 -34.924885 
L 27.763702 -34.982886 
L 27.611344 -35.040887 
L 27.512158 -35.098888 
L 27.4718 -35.156889 
L 27.493326 -35.21489 
L 27.577032 -35.272891 
L 27.720416 -35.330892 
L 27.918292 -35.388894 
L 28.163035 -35.446895 
L 28.444943 -35.504896 
L 28.75269 -35.562897 
L 29.07386 -35.620898 
L 29.395511 -35.678899 
L 29.704755 -35.7369 
L 29.989311 -35.794901 
L 30.238024 -35.852902 
L 30.441308 -35.910903 
L 30.591514 -35.968904 
L 30.683198 -36.026905 
L 30.7133 -36.084906 
L 30.681223 -36.142907 
L 30.58881 -36.200908 
L 30.440244 -36.258909 
L 30.24186 -36.316911 
L 30.001881 -36.374912 
L 29.730101 -36.432913 
L 29.437508 -36.490914 
L 29.135872 -36.548915 
L 28.837307 -36.606916 
L 28.553819 -36.664917 
L 28.296863 -36.722918 
L 28.076916 -36.780919 
L 27.903096 -36.83892 
L 27.782828 -36.896921 
L 27.721592 -36.954922 
L 27.722743 -37.012923 
L 27.787434 -37.070924 
L 27.91463 -37.128925 
L 28.101221 -37.186927 
L 28.342219 -37.244928 
L 28.631046 -37.302929 
L 28.959868 -37.36093 
L 29.319982 -37.418931 
L 29.702221 -37.476932 
L 30.09735 -37.534933 
L 30.496447 -37.592934 
L 30.891231 -37.650935 
L 31.274334 -37.708936 
L 31.639507 -37.766937 
L 31.981742 -37.824938 
L 32.29733 -37.882939 
L 32.58384 -37.94094 
L 32.840045 -37.998941 
L 33.065793 -38.056943 
L 33.261849 -38.114944 
L 33.429714 -38.172945 
L 33.571441 -38.230946 
L 33.689455 -38.288947 
L 34.564369 -38.288947 
L 34.564369 -38.288947 
L 34.682383 -38.230946 
L 34.824111 -38.172945 
L 34.991976 -38.114944 
L 35.188031 -38.056943 
L 35.413779 -37.998941 
L 35.669984 -37.94094 
L 35.956495 -37.882939 
L 36.272083 -37.824938 
L 36.614318 -37.766937 
L 36.97949 -37.708936 
L 37.362594 -37.650935 
L 37.757377 -37.592934 
L 38.156475 -37.534933 
L 38.551604 -37.476932 
L 38.933843 -37.418931 
L 39.293957 -37.36093 
L 39.622779 -37.302929 
L 39.911605 -37.244928 
L 40.152604 -37.186927 
L 40.339194 -37.128925 
L 40.466391 -37.070924 
L 40.531082 -37.012923 
L 40.532233 -36.954922 
L 40.470996 -36.896921 
L 40.350729 -36.83892 
L 40.176908 -36.780919 
L 39.956962 -36.722918 
L 39.700006 -36.664917 
L 39.416518 -36.606916 
L 39.117953 -36.548915 
L 38.816317 -36.490914 
L 38.523723 -36.432913 
L 38.251943 -36.374912 
L 38.011965 -36.316911 
L 37.81358 -36.258909 
L 37.665015 -36.200908 
L 37.572602 -36.142907 
L 37.540524 -36.084906 
L 37.570627 -36.026905 
L 37.66231 -35.968904 
L 37.812516 -35.910903 
L 38.015801 -35.852902 
L 38.264514 -35.794901 
L 38.54907 -35.7369 
L 38.858313 -35.678899 
L 39.179965 -35.620898 
L 39.501135 -35.562897 
L 39.808882 -35.504896 
L 40.090789 -35.446895 
L 40.335533 -35.388894 
L 40.533409 -35.330892 
L 40.676792 -35.272891 
L 40.760498 -35.21489 
L 40.782025 -35.156889 
L 40.741666 -35.098888 
L 40.64248 -35.040887 
L 40.490122 -34.982886 
L 40.292544 -34.924885 
L 40.059581 -34.866884 
L 39.802446 -34.808883 
L 39.53316 -34.750882 
L 39.263942 -34.692881 
L 39.006593 -34.63488 
L 38.771912 -34.576879 
L 38.569157 -34.518878 
L 38.405589 -34.460876 
L 38.286119 -34.402875 
L 38.213081 -34.344874 
L 38.186127 -34.286873 
L 38.202282 -34.228872 
L 38.256121 -34.170871 
L 38.340092 -34.11287 
L 38.444953 -34.054869 
L 38.560298 -33.996868 
L 38.675156 -33.938867 
L 38.77861 -33.880866 
L 38.860405 -33.822865 
L 38.911517 -33.764864 
L 38.924622 -33.706863 
L 38.894462 -33.648862 
L 38.818066 -33.59086 
L 38.694822 -33.532859 
L 38.526411 -33.474858 
L 38.316585 -33.416857 
L 38.070849 -33.358856 
L 37.796043 -33.300855 
L 37.499881 -33.242854 
L 37.190472 -33.184853 
L 36.875861 -33.126852 
L 36.563623 -33.068851 
L 36.260527 -33.01085 
L 35.972292 -32.952849 
L 35.703434 -32.894848 
L 35.457209 -32.836847 
L 35.235636 -32.778846 
L 35.039591 -32.720845 
L 34.868951 -32.662843 
L 34.722774 -32.604842 
L 34.599488 -32.546841 
z
" style="stroke: #444444; stroke-width: 0.15"/>
    </defs>
    <g clip-path="url(#pe2a542fbf1)">
     <use xlink:href="#me748c26dd7" x="0" y="105.84" style="fill: #e7a980; stroke: #444444; stroke-width: 0.15"/>
    </g>
   </g>
   <g id="PolyCollection_3">
    <defs>
     <path id="m5db8208071" d="M 51.259082 -28.087065 
L 50.270306 -28.087065 
L 50.148708 -28.46793 
L 50.006188 -28.848796 
L 49.841577 -29.229661 
L 49.654265 -29.610527 
L 49.444326 -29.991392 
L 49.212624 -30.372258 
L 48.960888 -30.753123 
L 48.691727 -31.133989 
L 48.408592 -31.514854 
L 48.115672 -31.89572 
L 47.817716 -32.276585 
L 47.519803 -32.657451 
L 47.227059 -33.038316 
L 46.944346 -33.419182 
L 46.675949 -33.800047 
L 46.425289 -34.180913 
L 46.194686 -34.561778 
L 45.985212 -34.942644 
L 45.796633 -35.323509 
L 45.627481 -35.704375 
L 45.475226 -36.08524 
L 45.336574 -36.466106 
L 45.207832 -36.846971 
L 45.08534 -37.227837 
L 44.965915 -37.608702 
L 44.847268 -37.989568 
L 44.728352 -38.370433 
L 44.609605 -38.751299 
L 44.493062 -39.132164 
L 44.382317 -39.51303 
L 44.282335 -39.893895 
L 44.199123 -40.274761 
L 44.139301 -40.655626 
L 44.109581 -41.036492 
L 44.116236 -41.417357 
L 44.164566 -41.798223 
L 44.258439 -42.179088 
L 44.399923 -42.559954 
L 44.589045 -42.940819 
L 44.823704 -43.321685 
L 45.099715 -43.702551 
L 45.411007 -44.083416 
L 45.749928 -44.464282 
L 46.107643 -44.845147 
L 46.474584 -45.226013 
L 46.840927 -45.606878 
L 47.197048 -45.987744 
L 47.533937 -46.368609 
L 47.84355 -46.749475 
L 48.119079 -47.13034 
L 48.355134 -47.511206 
L 48.547836 -47.892071 
L 48.694832 -48.272937 
L 48.795233 -48.653802 
L 48.849498 -49.034668 
L 48.85927 -49.415533 
L 48.827186 -49.796399 
L 48.756674 -50.177264 
L 48.651745 -50.55813 
L 48.516797 -50.938995 
L 48.356441 -51.319861 
L 48.175352 -51.700726 
L 47.978162 -52.081592 
L 47.769375 -52.462457 
L 47.553336 -52.843323 
L 47.334223 -53.224188 
L 47.116069 -53.605054 
L 46.902803 -53.985919 
L 46.698295 -54.366785 
L 46.506404 -54.74765 
L 46.330994 -55.128516 
L 46.175929 -55.509381 
L 46.045028 -55.890247 
L 45.941983 -56.271112 
L 45.870229 -56.651978 
L 45.83279 -57.032843 
L 45.832111 -57.413709 
L 45.869871 -57.794574 
L 45.946835 -58.17544 
L 46.06272 -58.556305 
L 46.216126 -58.937171 
L 46.404523 -59.318036 
L 46.624308 -59.698902 
L 46.870928 -60.079767 
L 47.139067 -60.460633 
L 47.422874 -60.841499 
L 47.71623 -61.222364 
L 48.013013 -61.60323 
L 48.307364 -61.984095 
L 48.593922 -62.364961 
L 48.86801 -62.745826 
L 49.125777 -63.126692 
L 49.364277 -63.507557 
L 49.581493 -63.888423 
L 49.776305 -64.269288 
L 49.948419 -64.650154 
L 50.098256 -65.031019 
L 50.226826 -65.411885 
L 50.335587 -65.79275 
L 51.193801 -65.79275 
L 51.193801 -65.79275 
L 51.302562 -65.411885 
L 51.431131 -65.031019 
L 51.580969 -64.650154 
L 51.753083 -64.269288 
L 51.947895 -63.888423 
L 52.165111 -63.507557 
L 52.403611 -63.126692 
L 52.661378 -62.745826 
L 52.935466 -62.364961 
L 53.222023 -61.984095 
L 53.516375 -61.60323 
L 53.813158 -61.222364 
L 54.106513 -60.841499 
L 54.390321 -60.460633 
L 54.658459 -60.079767 
L 54.905079 -59.698902 
L 55.124864 -59.318036 
L 55.313261 -58.937171 
L 55.466668 -58.556305 
L 55.582553 -58.17544 
L 55.659516 -57.794574 
L 55.697277 -57.413709 
L 55.696597 -57.032843 
L 55.659159 -56.651978 
L 55.587405 -56.271112 
L 55.484359 -55.890247 
L 55.353459 -55.509381 
L 55.198394 -55.128516 
L 55.022983 -54.74765 
L 54.831092 -54.366785 
L 54.626585 -53.985919 
L 54.413318 -53.605054 
L 54.195164 -53.224188 
L 53.976052 -52.843323 
L 53.760013 -52.462457 
L 53.551226 -52.081592 
L 53.354035 -51.700726 
L 53.172947 -51.319861 
L 53.01259 -50.938995 
L 52.877642 -50.55813 
L 52.772713 -50.177264 
L 52.702202 -49.796399 
L 52.670118 -49.415533 
L 52.67989 -49.034668 
L 52.734154 -48.653802 
L 52.834556 -48.272937 
L 52.981552 -47.892071 
L 53.174254 -47.511206 
L 53.410309 -47.13034 
L 53.685838 -46.749475 
L 53.995451 -46.368609 
L 54.332339 -45.987744 
L 54.68846 -45.606878 
L 55.054804 -45.226013 
L 55.421745 -44.845147 
L 55.779459 -44.464282 
L 56.11838 -44.083416 
L 56.429673 -43.702551 
L 56.705684 -43.321685 
L 56.940343 -42.940819 
L 57.129465 -42.559954 
L 57.270948 -42.179088 
L 57.364821 -41.798223 
L 57.413152 -41.417357 
L 57.419806 -41.036492 
L 57.390087 -40.655626 
L 57.330264 -40.274761 
L 57.247053 -39.893895 
L 57.147071 -39.51303 
L 57.036326 -39.132164 
L 56.919783 -38.751299 
L 56.801036 -38.370433 
L 56.68212 -37.989568 
L 56.563473 -37.608702 
L 56.444048 -37.227837 
L 56.321556 -36.846971 
L 56.192814 -36.466106 
L 56.054161 -36.08524 
L 55.901907 -35.704375 
L 55.732754 -35.323509 
L 55.544176 -34.942644 
L 55.334701 -34.561778 
L 55.104099 -34.180913 
L 54.853439 -33.800047 
L 54.585042 -33.419182 
L 54.302329 -33.038316 
L 54.009585 -32.657451 
L 53.711672 -32.276585 
L 53.413716 -31.89572 
L 53.120795 -31.514854 
L 52.837661 -31.133989 
L 52.5685 -30.753123 
L 52.316763 -30.372258 
L 52.085062 -29.991392 
L 51.875122 -29.610527 
L 51.68781 -29.229661 
L 51.5232 -28.848796 
L 51.380679 -28.46793 
L 51.259082 -28.087065 
z
" style="stroke: #444444; stroke-width: 0.15"/>
    </defs>
    <g clip-path="url(#pe2a542fbf1)">
     <use xlink:href="#m5db8208071" x="0" y="105.84" style="fill: #abc3de; stroke: #444444; stroke-width: 0.15"/>
    </g>
   </g>
   <g id="PolyCollection_4">
    <defs>
     <path id="m454a1539fa" d="M 67.678501 -32.237642 
L 67.12645 -32.237642 
L 67.052515 -32.317156 
L 66.964932 -32.39667 
L 66.862952 -32.476184 
L 66.746252 -32.555697 
L 66.615027 -32.635211 
L 66.470054 -32.714725 
L 66.312712 -32.794239 
L 66.144963 -32.873753 
L 65.969279 -32.953267 
L 65.788507 -33.03278 
L 65.605702 -33.112294 
L 65.423913 -33.191808 
L 65.245954 -33.271322 
L 65.074188 -33.350836 
L 64.910321 -33.430349 
L 64.755251 -33.509863 
L 64.608978 -33.589377 
L 64.470583 -33.668891 
L 64.338278 -33.748405 
L 64.209533 -33.827919 
L 64.081254 -33.907432 
L 63.950008 -33.986946 
L 63.812277 -34.06646 
L 63.664716 -34.145974 
L 63.504415 -34.225488 
L 63.329138 -34.305002 
L 63.13755 -34.384515 
L 62.929399 -34.464029 
L 62.705682 -34.543543 
L 62.46875 -34.623057 
L 62.222372 -34.702571 
L 61.971729 -34.782084 
L 61.72333 -34.861598 
L 61.484837 -34.941112 
L 61.26479 -35.020626 
L 61.072233 -35.10014 
L 60.916253 -35.179654 
L 60.805447 -35.259167 
L 60.747363 -35.338681 
L 60.747943 -35.418195 
L 60.811028 -35.497709 
L 60.937967 -35.577223 
L 61.127363 -35.656737 
L 61.375 -35.73625 
L 61.673948 -35.815764 
L 62.014849 -35.895278 
L 62.386362 -35.974792 
L 62.77573 -36.054306 
L 63.16942 -36.133819 
L 63.553797 -36.213333 
L 63.915778 -36.292847 
L 64.243423 -36.372361 
L 64.526439 -36.451875 
L 64.756576 -36.531389 
L 64.927902 -36.610902 
L 65.036961 -36.690416 
L 65.082817 -36.76993 
L 65.066999 -36.849444 
L 64.99335 -36.928958 
L 64.867799 -37.008472 
L 64.698055 -37.087985 
L 64.493247 -37.167499 
L 64.263501 -37.247013 
L 64.019491 -37.326527 
L 63.771964 -37.406041 
L 63.531264 -37.485554 
L 63.306898 -37.565068 
L 63.107147 -37.644582 
L 62.938765 -37.724096 
L 62.806787 -37.80361 
L 62.714446 -37.883124 
L 62.663221 -37.962637 
L 62.652981 -38.042151 
L 62.682235 -38.121665 
L 62.748425 -38.201179 
L 62.848255 -38.280693 
L 62.978001 -38.360207 
L 63.13379 -38.43972 
L 63.311807 -38.519234 
L 63.508428 -38.598748 
L 63.720281 -38.678262 
L 63.944242 -38.757776 
L 64.177385 -38.837289 
L 64.416907 -38.916803 
L 64.660054 -38.996317 
L 64.904071 -39.075831 
L 65.146181 -39.155345 
L 65.383606 -39.234859 
L 65.613622 -39.314372 
L 65.833648 -39.393886 
L 66.041345 -39.4734 
L 66.234721 -39.552914 
L 66.412213 -39.632428 
L 66.572757 -39.711942 
L 66.715808 -39.791455 
L 66.841344 -39.870969 
L 66.949817 -39.950483 
L 67.042095 -40.029997 
L 67.119369 -40.109511 
L 67.685582 -40.109511 
L 67.685582 -40.109511 
L 67.762856 -40.029997 
L 67.855133 -39.950483 
L 67.963607 -39.870969 
L 68.089142 -39.791455 
L 68.232194 -39.711942 
L 68.392738 -39.632428 
L 68.57023 -39.552914 
L 68.763606 -39.4734 
L 68.971303 -39.393886 
L 69.191329 -39.314372 
L 69.421345 -39.234859 
L 69.65877 -39.155345 
L 69.90088 -39.075831 
L 70.144897 -38.996317 
L 70.388044 -38.916803 
L 70.627566 -38.837289 
L 70.860709 -38.757776 
L 71.08467 -38.678262 
L 71.296523 -38.598748 
L 71.493143 -38.519234 
L 71.67116 -38.43972 
L 71.82695 -38.360207 
L 71.956696 -38.280693 
L 72.056525 -38.201179 
L 72.122715 -38.121665 
L 72.15197 -38.042151 
L 72.14173 -37.962637 
L 72.090504 -37.883124 
L 71.998164 -37.80361 
L 71.866185 -37.724096 
L 71.697804 -37.644582 
L 71.498052 -37.565068 
L 71.273687 -37.485554 
L 71.032987 -37.406041 
L 70.785459 -37.326527 
L 70.54145 -37.247013 
L 70.311704 -37.167499 
L 70.106895 -37.087985 
L 69.937152 -37.008472 
L 69.8116 -36.928958 
L 69.737952 -36.849444 
L 69.722133 -36.76993 
L 69.76799 -36.690416 
L 69.877049 -36.610902 
L 70.048375 -36.531389 
L 70.278512 -36.451875 
L 70.561528 -36.372361 
L 70.889172 -36.292847 
L 71.251154 -36.213333 
L 71.635531 -36.133819 
L 72.029221 -36.054306 
L 72.418589 -35.974792 
L 72.790102 -35.895278 
L 73.131003 -35.815764 
L 73.429951 -35.73625 
L 73.677588 -35.656737 
L 73.866984 -35.577223 
L 73.993923 -35.497709 
L 74.057008 -35.418195 
L 74.057588 -35.338681 
L 73.999504 -35.259167 
L 73.888698 -35.179654 
L 73.732718 -35.10014 
L 73.540161 -35.020626 
L 73.320114 -34.941112 
L 73.081621 -34.861598 
L 72.833222 -34.782084 
L 72.582579 -34.702571 
L 72.336201 -34.623057 
L 72.099269 -34.543543 
L 71.875551 -34.464029 
L 71.667401 -34.384515 
L 71.475812 -34.305002 
L 71.300536 -34.225488 
L 71.140235 -34.145974 
L 70.992674 -34.06646 
L 70.854943 -33.986946 
L 70.723697 -33.907432 
L 70.595417 -33.827919 
L 70.466672 -33.748405 
L 70.334368 -33.668891 
L 70.195972 -33.589377 
L 70.0497 -33.509863 
L 69.89463 -33.430349 
L 69.730763 -33.350836 
L 69.558996 -33.271322 
L 69.381038 -33.191808 
L 69.199248 -33.112294 
L 69.016443 -33.03278 
L 68.835672 -32.953267 
L 68.659987 -32.873753 
L 68.492239 -32.794239 
L 68.334897 -32.714725 
L 68.189923 -32.635211 
L 68.058699 -32.555697 
L 67.941999 -32.476184 
L 67.840018 -32.39667 
L 67.752435 -32.317156 
L 67.678501 -32.237642 
z
" style="stroke: #444444; stroke-width: 0.15"/>
    </defs>
    <g clip-path="url(#pe2a542fbf1)">
     <use xlink:href="#m454a1539fa" x="0" y="105.84" style="fill: #c447c3; stroke: #444444; stroke-width: 0.15"/>
    </g>
   </g>
   <g id="line2d_10">
    <path d="M 17.489131 72.287713 
L 17.489131 72.173893 
" clip-path="url(#pe2a542fbf1)" style="fill: none; stroke: #8c8c8c; stroke-width: 0.75; stroke-linecap: round"/>
   </g>
   <g id="line2d_11">
    <path d="M 17.489131 72.26816 
L 17.489131 72.183482 
" clip-path="url(#pe2a542fbf1)" style="fill: none; stroke: #8c8c8c; stroke-width: 4; stroke-linecap: round"/>
   </g>
   <g id="line2d_12">
    <path d="M 17.489131 72.247704 
" clip-path="url(#pe2a542fbf1)" style="fill: none; stroke: #444444; stroke-width: 1.2; stroke-linecap: round"/>
    <defs>
     <path id="m1812fa43af" d="M 0 0.833333 
C 0.221003 0.833333 0.432983 0.745528 0.589256 0.589256 
C 0.745528 0.432983 0.833333 0.221003 0.833333 0 
C 0.833333 -0.221003 0.745528 -0.432983 0.589256 -0.589256 
C 0.432983 -0.745528 0.221003 -0.833333 0 -0.833333 
C -0.221003 -0.833333 -0.432983 -0.745528 -0.589256 -0.589256 
C -0.745528 -0.432983 -0.833333 -0.221003 -0.833333 0 
C -0.833333 0.221003 -0.745528 0.432983 -0.589256 0.589256 
C -0.432983 0.745528 -0.221003 0.833333 0 0.833333 
z
" style="stroke: #ffffff; stroke-width: 0.8"/>
    </defs>
    <g clip-path="url(#pe2a542fbf1)">
     <use xlink:href="#m1812fa43af" x="17.489131" y="72.247704" style="fill: #ffffff; stroke: #ffffff; stroke-width: 0.8"/>
    </g>
   </g>
   <g id="line2d_13">
    <path d="M 34.126912 72.265525 
L 34.126912 68.578686 
" clip-path="url(#pe2a542fbf1)" style="fill: none; stroke: #8c8c8c; stroke-width: 0.75; stroke-linecap: round"/>
   </g>
   <g id="line2d_14">
    <path d="M 34.126912 71.22716 
L 34.126912 69.06049 
" clip-path="url(#pe2a542fbf1)" style="fill: none; stroke: #8c8c8c; stroke-width: 4; stroke-linecap: round"/>
   </g>
   <g id="line2d_15">
    <path d="M 34.126912 70.5403 
" clip-path="url(#pe2a542fbf1)" style="fill: none; stroke: #444444; stroke-width: 1.2; stroke-linecap: round"/>
    <g clip-path="url(#pe2a542fbf1)">
     <use xlink:href="#m1812fa43af" x="34.126912" y="70.5403" style="fill: #ffffff; stroke: #ffffff; stroke-width: 0.8"/>
    </g>
   </g>
   <g id="line2d_16">
    <path d="M 50.764694 70.811327 
L 50.764694 46.988859 
" clip-path="url(#pe2a542fbf1)" style="fill: none; stroke: #8c8c8c; stroke-width: 0.75; stroke-linecap: round"/>
   </g>
   <g id="line2d_17">
    <path d="M 50.764694 66.09514 
L 50.764694 51.25668 
" clip-path="url(#pe2a542fbf1)" style="fill: none; stroke: #8c8c8c; stroke-width: 4; stroke-linecap: round"/>
   </g>
   <g id="line2d_18">
    <path d="M 50.764694 63.189381 
" clip-path="url(#pe2a542fbf1)" style="fill: none; stroke: #444444; stroke-width: 1.2; stroke-linecap: round"/>
    <g clip-path="url(#pe2a542fbf1)">
     <use xlink:href="#m1812fa43af" x="50.764694" y="63.189381" style="fill: #ffffff; stroke: #ffffff; stroke-width: 0.8"/>
    </g>
   </g>
   <g id="line2d_19">
    <path d="M 67.402475 72.285615 
L 67.402475 67.047232 
" clip-path="url(#pe2a542fbf1)" style="fill: none; stroke: #8c8c8c; stroke-width: 0.75; stroke-linecap: round"/>
   </g>
   <g id="line2d_20">
    <path d="M 67.402475 70.728093 
L 67.402475 68.103159 
" clip-path="url(#pe2a542fbf1)" style="fill: none; stroke: #8c8c8c; stroke-width: 4; stroke-linecap: round"/>
   </g>
   <g id="line2d_21">
    <path d="M 67.402475 70.196734 
" clip-path="url(#pe2a542fbf1)" style="fill: none; stroke: #444444; stroke-width: 1.2; stroke-linecap: round"/>
    <g clip-path="url(#pe2a542fbf1)">
     <use xlink:href="#m1812fa43af" x="67.402475" y="70.196734" style="fill: #ffffff; stroke: #ffffff; stroke-width: 0.8"/>
    </g>
   </g>
   <g id="patch_3">
    <path d="M 9.17024 80.649838 
L 9.17024 4.076256 
" style="fill: none; stroke: #777777; stroke-width: 0.5; stroke-linejoin: miter; stroke-linecap: square"/>
   </g>
   <g id="patch_4">
    <path d="M 9.17024 83.149838 
L 75.721366 83.149838 
" style="fill: none; stroke: #777777; stroke-width: 0.5; stroke-linejoin: miter; stroke-linecap: square"/>
   </g>
   <g id="PathCollection_1">
    <defs>
     <path id="m949ff26cd8" d="M 0 0.375 
C 0.099451 0.375 0.194842 0.335488 0.265165 0.265165 
C 0.335488 0.194842 0.375 0.099451 0.375 0 
C 0.375 -0.099451 0.335488 -0.194842 0.265165 -0.265165 
C 0.194842 -0.335488 0.099451 -0.375 0 -0.375 
C -0.099451 -0.375 -0.194842 -0.335488 -0.265165 -0.265165 
C -0.335488 -0.194842 -0.375 -0.099451 -0.375 0 
C -0.375 0.099451 -0.335488 0.194842 -0.265165 0.265165 
C -0.194842 0.335488 -0.099451 0.375 0 0.375 
z
"/>
    </defs>
    <g clip-path="url(#pe2a542fbf1)">
     <use xlink:href="#m949ff26cd8" x="18.697014" y="72.287713" style="fill: #642222"/>
     <use xlink:href="#m949ff26cd8" x="18.883715" y="72.177611" style="fill: #642222"/>
     <use xlink:href="#m949ff26cd8" x="17.852489" y="72.234708" style="fill: #642222"/>
     <use xlink:href="#m949ff26cd8" x="16.183186" y="72.260699" style="fill: #642222"/>
     <use xlink:href="#m949ff26cd8" x="17.680657" y="72.28507" style="fill: #642222"/>
     <use xlink:href="#m949ff26cd8" x="16.744621" y="72.173893" style="fill: #642222"/>
     <use xlink:href="#m949ff26cd8" x="17.671379" y="72.262524" style="fill: #642222"/>
     <use xlink:href="#m949ff26cd8" x="16.814496" y="72.185439" style="fill: #642222"/>
    </g>
   </g>
   <g id="PathCollection_2">
    <g clip-path="url(#pe2a542fbf1)">
     <use xlink:href="#m949ff26cd8" x="33.889331" y="72.265525" style="fill: #642222"/>
     <use xlink:href="#m949ff26cd8" x="35.287329" y="70.483032" style="fill: #642222"/>
     <use xlink:href="#m949ff26cd8" x="34.708441" y="70.93734" style="fill: #642222"/>
     <use xlink:href="#m949ff26cd8" x="35.48218" y="68.578686" style="fill: #642222"/>
     <use xlink:href="#m949ff26cd8" x="34.423121" y="72.09662" style="fill: #642222"/>
     <use xlink:href="#m949ff26cd8" x="35.600628" y="68.841168" style="fill: #642222"/>
     <use xlink:href="#m949ff26cd8" x="33.211009" y="70.597569" style="fill: #642222"/>
     <use xlink:href="#m949ff26cd8" x="33.514939" y="69.133598" style="fill: #642222"/>
    </g>
   </g>
   <g id="PathCollection_3">
    <g clip-path="url(#pe2a542fbf1)">
     <use xlink:href="#m949ff26cd8" x="50.057797" y="70.424775" style="fill: #642222"/>
     <use xlink:href="#m949ff26cd8" x="49.280571" y="62.96951" style="fill: #642222"/>
     <use xlink:href="#m949ff26cd8" x="51.307222" y="46.988859" style="fill: #642222"/>
     <use xlink:href="#m949ff26cd8" x="49.293794" y="47.953754" style="fill: #642222"/>
     <use xlink:href="#m949ff26cd8" x="52.395556" y="70.811327" style="fill: #642222"/>
     <use xlink:href="#m949ff26cd8" x="49.64537" y="63.409253" style="fill: #642222"/>
     <use xlink:href="#m949ff26cd8" x="50.401081" y="64.651928" style="fill: #642222"/>
     <use xlink:href="#m949ff26cd8" x="51.523292" y="52.357656" style="fill: #642222"/>
    </g>
   </g>
   <g id="PathCollection_4">
    <g clip-path="url(#pe2a542fbf1)">
     <use xlink:href="#m949ff26cd8" x="65.903874" y="72.285615" style="fill: #642222"/>
     <use xlink:href="#m949ff26cd8" x="66.176595" y="71.286356" style="fill: #642222"/>
     <use xlink:href="#m949ff26cd8" x="68.544378" y="67.89123" style="fill: #642222"/>
     <use xlink:href="#m949ff26cd8" x="65.909438" y="70.220687" style="fill: #642222"/>
     <use xlink:href="#m949ff26cd8" x="68.458402" y="68.173802" style="fill: #642222"/>
     <use xlink:href="#m949ff26cd8" x="67.756355" y="70.542006" style="fill: #642222"/>
     <use xlink:href="#m949ff26cd8" x="68.554755" y="70.172781" style="fill: #642222"/>
     <use xlink:href="#m949ff26cd8" x="67.029256" y="67.047232" style="fill: #642222"/>
    </g>
   </g>
  </g>
  <g id="axes_2">
   <g id="patch_5">
    <path d="M 87.058409 80.649838 
L 166.91976 80.649838 
L 166.91976 4.076256 
L 87.058409 4.076256 
z
" style="fill: #ffffff"/>
   </g>
   <g id="matplotlib.axis_3">
    <g id="xtick_5">
     <g id="text_14">
      <!-- Immature T -->
      <g style="fill: #333333" transform="translate(95.93513 102.83976) rotate(-90) scale(0.035 -0.035)">
       <defs>
        <path id="Helvetica-6d" d="M 413 3347 
L 969 3347 
L 969 2872 
Q 1169 3119 1331 3231 
Q 1609 3422 1963 3422 
Q 2363 3422 2606 3225 
Q 2744 3113 2856 2894 
Q 3044 3163 3297 3292 
Q 3550 3422 3866 3422 
Q 4541 3422 4784 2934 
Q 4916 2672 4916 2228 
L 4916 0 
L 4331 0 
L 4331 2325 
Q 4331 2659 4164 2784 
Q 3997 2909 3756 2909 
Q 3425 2909 3186 2687 
Q 2947 2466 2947 1947 
L 2947 0 
L 2375 0 
L 2375 2184 
Q 2375 2525 2294 2681 
Q 2166 2916 1816 2916 
Q 1497 2916 1236 2669 
Q 975 2422 975 1775 
L 975 0 
L 413 0 
L 413 3347 
z
" transform="scale(0.015625)"/>
        <path id="Helvetica-61" d="M 844 891 
Q 844 647 1022 506 
Q 1200 366 1444 366 
Q 1741 366 2019 503 
Q 2488 731 2488 1250 
L 2488 1703 
Q 2384 1638 2221 1594 
Q 2059 1550 1903 1531 
L 1563 1488 
Q 1256 1447 1103 1359 
Q 844 1213 844 891 
z
M 2206 2028 
Q 2400 2053 2466 2191 
Q 2503 2266 2503 2406 
Q 2503 2694 2298 2823 
Q 2094 2953 1713 2953 
Q 1272 2953 1088 2716 
Q 984 2584 953 2325 
L 428 2325 
Q 444 2944 830 3186 
Q 1216 3428 1725 3428 
Q 2316 3428 2684 3203 
Q 3050 2978 3050 2503 
L 3050 575 
Q 3050 488 3086 434 
Q 3122 381 3238 381 
Q 3275 381 3322 386 
Q 3369 391 3422 400 
L 3422 -16 
Q 3291 -53 3222 -62 
Q 3153 -72 3034 -72 
Q 2744 -72 2613 134 
Q 2544 244 2516 444 
Q 2344 219 2022 53 
Q 1700 -113 1313 -113 
Q 847 -113 551 170 
Q 256 453 256 878 
Q 256 1344 547 1600 
Q 838 1856 1309 1916 
L 2206 2028 
z
M 1741 3428 
L 1741 3428 
z
" transform="scale(0.015625)"/>
        <path id="Helvetica-74" d="M 525 4281 
L 1094 4281 
L 1094 3347 
L 1628 3347 
L 1628 2888 
L 1094 2888 
L 1094 703 
Q 1094 528 1213 469 
Q 1278 434 1431 434 
Q 1472 434 1519 436 
Q 1566 438 1628 444 
L 1628 0 
Q 1531 -28 1426 -40 
Q 1322 -53 1200 -53 
Q 806 -53 665 148 
Q 525 350 525 672 
L 525 2888 
L 72 2888 
L 72 3347 
L 525 3347 
L 525 4281 
z
" transform="scale(0.015625)"/>
        <path id="Helvetica-75" d="M 975 3347 
L 975 1125 
Q 975 869 1056 706 
Q 1206 406 1616 406 
Q 2203 406 2416 931 
Q 2531 1213 2531 1703 
L 2531 3347 
L 3094 3347 
L 3094 0 
L 2563 0 
L 2569 494 
Q 2459 303 2297 172 
Q 1975 -91 1516 -91 
Q 800 -91 541 388 
Q 400 644 400 1072 
L 400 3347 
L 975 3347 
z
M 1747 3428 
L 1747 3428 
z
" transform="scale(0.015625)"/>
        <path id="Helvetica-72" d="M 428 3347 
L 963 3347 
L 963 2769 
Q 1028 2938 1284 3180 
Q 1541 3422 1875 3422 
Q 1891 3422 1928 3419 
Q 1966 3416 2056 3406 
L 2056 2813 
Q 2006 2822 1964 2825 
Q 1922 2828 1872 2828 
Q 1447 2828 1219 2554 
Q 991 2281 991 1925 
L 991 0 
L 428 0 
L 428 3347 
z
" transform="scale(0.015625)"/>
        <path id="Helvetica-20" transform="scale(0.015625)"/>
        <path id="Helvetica-54" d="M 3828 4591 
L 3828 4044 
L 2281 4044 
L 2281 0 
L 1650 0 
L 1650 4044 
L 103 4044 
L 103 4591 
L 3828 4591 
z
" transform="scale(0.015625)"/>
       </defs>
       <use xlink:href="#Helvetica-49"/>
       <use xlink:href="#Helvetica-6d" x="27.783203"/>
       <use xlink:href="#Helvetica-6d" x="111.083984"/>
       <use xlink:href="#Helvetica-61" x="194.384766"/>
       <use xlink:href="#Helvetica-74" x="250"/>
       <use xlink:href="#Helvetica-75" x="277.783203"/>
       <use xlink:href="#Helvetica-72" x="333.398438"/>
       <use xlink:href="#Helvetica-65" x="366.699219"/>
       <use xlink:href="#Helvetica-20" x="422.314453"/>
       <use xlink:href="#Helvetica-54" x="450.097656"/>
      </g>
     </g>
    </g>
    <g id="xtick_6">
     <g id="text_15">
      <!-- Mature T -->
      <g style="fill: #333333" transform="translate(111.9074 98.952026) rotate(-90) scale(0.035 -0.035)">
       <defs>
        <path id="Helvetica-4d" d="M 472 4591 
L 1363 4591 
L 2681 709 
L 3991 4591 
L 4872 4591 
L 4872 0 
L 4281 0 
L 4281 2709 
Q 4281 2850 4287 3175 
Q 4294 3500 4294 3872 
L 2984 0 
L 2369 0 
L 1050 3872 
L 1050 3731 
Q 1050 3563 1058 3217 
Q 1066 2872 1066 2709 
L 1066 0 
L 472 0 
L 472 4591 
z
" transform="scale(0.015625)"/>
       </defs>
       <use xlink:href="#Helvetica-4d"/>
       <use xlink:href="#Helvetica-61" x="83.300781"/>
       <use xlink:href="#Helvetica-74" x="138.916016"/>
       <use xlink:href="#Helvetica-75" x="166.699219"/>
       <use xlink:href="#Helvetica-72" x="222.314453"/>
       <use xlink:href="#Helvetica-65" x="255.615234"/>
       <use xlink:href="#Helvetica-20" x="311.230469"/>
       <use xlink:href="#Helvetica-54" x="339.013672"/>
      </g>
     </g>
    </g>
    <g id="xtick_7">
     <g id="text_16">
      <!-- TH1 -->
      <g style="fill: #333333" transform="translate(127.87967 91.561557) rotate(-90) scale(0.035 -0.035)">
       <defs>
        <path id="Helvetica-48" d="M 503 4591 
L 1131 4591 
L 1131 2694 
L 3519 2694 
L 3519 4591 
L 4147 4591 
L 4147 0 
L 3519 0 
L 3519 2147 
L 1131 2147 
L 1131 0 
L 503 0 
L 503 4591 
z
" transform="scale(0.015625)"/>
       </defs>
       <use xlink:href="#Helvetica-54"/>
       <use xlink:href="#Helvetica-48" x="61.083984"/>
       <use xlink:href="#Helvetica-31" x="133.300781"/>
      </g>
     </g>
    </g>
    <g id="xtick_8">
     <g id="text_17">
      <!-- TH2 -->
      <g style="fill: #333333" transform="translate(143.851941 91.561557) rotate(-90) scale(0.035 -0.035)">
       <use xlink:href="#Helvetica-54"/>
       <use xlink:href="#Helvetica-48" x="61.083984"/>
       <use xlink:href="#Helvetica-32" x="133.300781"/>
      </g>
     </g>
    </g>
    <g id="xtick_9">
     <g id="text_18">
      <!-- TH17 -->
      <g style="fill: #333333" transform="translate(159.824211 93.507885) rotate(-90) scale(0.035 -0.035)">
       <defs>
        <path id="Helvetica-37" d="M 3347 4400 
L 3347 3909 
Q 3131 3700 2773 3181 
Q 2416 2663 2141 2063 
Q 1869 1478 1728 997 
Q 1638 688 1494 0 
L 872 0 
Q 1084 1281 1809 2550 
Q 2238 3294 2709 3834 
L 234 3834 
L 234 4400 
L 3347 4400 
z
" transform="scale(0.015625)"/>
       </defs>
       <use xlink:href="#Helvetica-54"/>
       <use xlink:href="#Helvetica-48" x="61.083984"/>
       <use xlink:href="#Helvetica-31" x="133.300781"/>
       <use xlink:href="#Helvetica-37" x="188.916016"/>
      </g>
     </g>
    </g>
   </g>
   <g id="matplotlib.axis_4">
    <g id="ytick_10">
     <g id="line2d_22">
      <g>
       <use xlink:href="#mb09e53b13b" x="87.058409" y="72.752114" style="fill: #777777; stroke: #777777; stroke-width: 0.5"/>
      </g>
     </g>
     <g id="text_19">
      <!-- 0 -->
      <g style="fill: #333333" transform="translate(83.390127 73.82813) scale(0.03 -0.03)">
       <use xlink:href="#Helvetica-30"/>
      </g>
     </g>
    </g>
    <g id="ytick_11">
     <g id="line2d_23">
      <g>
       <use xlink:href="#mb09e53b13b" x="87.058409" y="61.306138" style="fill: #777777; stroke: #777777; stroke-width: 0.5"/>
      </g>
     </g>
     <g id="text_20">
      <!-- 10 -->
      <g style="fill: #333333" transform="translate(81.721846 62.382154) scale(0.03 -0.03)">
       <use xlink:href="#Helvetica-31"/>
       <use xlink:href="#Helvetica-30" x="55.615234"/>
      </g>
     </g>
    </g>
    <g id="ytick_12">
     <g id="line2d_24">
      <g>
       <use xlink:href="#mb09e53b13b" x="87.058409" y="49.860161" style="fill: #777777; stroke: #777777; stroke-width: 0.5"/>
      </g>
     </g>
     <g id="text_21">
      <!-- 20 -->
      <g style="fill: #333333" transform="translate(81.721846 50.936177) scale(0.03 -0.03)">
       <use xlink:href="#Helvetica-32"/>
       <use xlink:href="#Helvetica-30" x="55.615234"/>
      </g>
     </g>
    </g>
    <g id="ytick_13">
     <g id="line2d_25">
      <g>
       <use xlink:href="#mb09e53b13b" x="87.058409" y="38.414185" style="fill: #777777; stroke: #777777; stroke-width: 0.5"/>
      </g>
     </g>
     <g id="text_22">
      <!-- 30 -->
      <g style="fill: #333333" transform="translate(81.721846 39.490201) scale(0.03 -0.03)">
       <use xlink:href="#Helvetica-33"/>
       <use xlink:href="#Helvetica-30" x="55.615234"/>
      </g>
     </g>
    </g>
    <g id="ytick_14">
     <g id="line2d_26">
      <g>
       <use xlink:href="#mb09e53b13b" x="87.058409" y="26.968209" style="fill: #777777; stroke: #777777; stroke-width: 0.5"/>
      </g>
     </g>
     <g id="text_23">
      <!-- 40 -->
      <g style="fill: #333333" transform="translate(81.721846 28.044224) scale(0.03 -0.03)">
       <use xlink:href="#Helvetica-34"/>
       <use xlink:href="#Helvetica-30" x="55.615234"/>
      </g>
     </g>
    </g>
    <g id="ytick_15">
     <g id="line2d_27">
      <g>
       <use xlink:href="#mb09e53b13b" x="87.058409" y="15.522232" style="fill: #777777; stroke: #777777; stroke-width: 0.5"/>
      </g>
     </g>
     <g id="text_24">
      <!-- 50 -->
      <g style="fill: #333333" transform="translate(81.721846 16.598248) scale(0.03 -0.03)">
       <use xlink:href="#Helvetica-35"/>
       <use xlink:href="#Helvetica-30" x="55.615234"/>
      </g>
     </g>
    </g>
    <g id="ytick_16">
     <g id="line2d_28">
      <g>
       <use xlink:href="#mb09e53b13b" x="87.058409" y="4.076256" style="fill: #777777; stroke: #777777; stroke-width: 0.5"/>
      </g>
     </g>
     <g id="text_25">
      <!-- 60 -->
      <g style="fill: #333333" transform="translate(81.721846 5.152271) scale(0.03 -0.03)">
       <defs>
        <path id="Helvetica-36" d="M 1872 4494 
Q 2622 4494 2917 4105 
Q 3213 3716 3213 3303 
L 2656 3303 
Q 2606 3569 2497 3719 
Q 2294 4000 1881 4000 
Q 1409 4000 1131 3564 
Q 853 3128 822 2316 
Q 1016 2600 1309 2741 
Q 1578 2866 1909 2866 
Q 2472 2866 2890 2506 
Q 3309 2147 3309 1434 
Q 3309 825 2912 354 
Q 2516 -116 1781 -116 
Q 1153 -116 697 361 
Q 241 838 241 1966 
Q 241 2800 444 3381 
Q 834 4494 1872 4494 
z
M 1831 384 
Q 2275 384 2495 682 
Q 2716 981 2716 1388 
Q 2716 1731 2519 2042 
Q 2322 2353 1803 2353 
Q 1441 2353 1167 2112 
Q 894 1872 894 1388 
Q 894 963 1142 673 
Q 1391 384 1831 384 
z
" transform="scale(0.015625)"/>
       </defs>
       <use xlink:href="#Helvetica-36"/>
       <use xlink:href="#Helvetica-30" x="55.615234"/>
      </g>
     </g>
    </g>
   </g>
   <g id="PolyCollection_5">
    <defs>
     <path id="m6014623c55" d="M 95.269298 -26.736755 
L 94.819789 -26.736755 
L 94.728466 -27.422925 
L 94.608547 -28.109096 
L 94.454589 -28.795266 
L 94.261406 -29.481437 
L 94.02458 -30.167607 
L 93.741071 -30.853777 
L 93.409834 -31.539948 
L 93.032404 -32.226118 
L 92.613327 -32.912289 
L 92.160372 -33.598459 
L 91.684428 -34.28463 
L 91.199052 -34.9708 
L 90.719671 -35.65697 
L 90.262482 -36.343141 
L 89.843171 -37.029311 
L 89.475611 -37.715482 
L 89.170694 -38.401652 
L 88.935481 -39.087823 
L 88.772772 -39.773993 
L 88.681178 -40.460163 
L 88.655636 -41.146334 
L 88.6883 -41.832504 
L 88.769628 -42.518675 
L 88.889487 -43.204845 
L 89.038107 -43.891015 
L 89.206752 -44.577186 
L 89.388045 -45.263356 
L 89.575973 -45.949527 
L 89.765631 -46.635697 
L 89.952842 -47.321868 
L 90.133762 -48.008038 
L 90.304606 -48.694208 
L 90.461544 -49.380379 
L 90.600817 -50.066549 
L 90.719037 -50.75272 
L 90.813606 -51.43889 
L 90.883187 -52.125061 
L 90.928115 -52.811231 
L 90.950666 -53.497401 
L 90.955114 -54.183572 
L 90.94753 -54.869742 
L 90.935325 -55.555913 
L 90.926563 -56.242083 
L 90.92912 -56.928254 
L 90.949804 -57.614424 
L 90.993549 -58.300594 
L 91.062813 -58.986765 
L 91.157283 -59.672935 
L 91.27394 -60.359106 
L 91.40748 -61.045276 
L 91.551035 -61.731447 
L 91.697073 -62.417617 
L 91.838335 -63.103787 
L 91.968662 -63.789958 
L 92.083603 -64.476128 
L 92.18071 -65.162299 
L 92.259536 -65.848469 
L 92.321357 -66.53464 
L 92.368719 -67.22081 
L 92.4049 -67.90698 
L 92.433391 -68.593151 
L 92.457471 -69.279321 
L 92.47989 -69.965492 
L 92.502689 -70.651662 
L 92.527113 -71.337832 
L 92.553587 -72.024003 
L 92.581747 -72.710173 
L 92.610488 -73.396344 
L 92.638069 -74.082514 
L 92.66227 -74.768685 
L 92.680639 -75.454855 
L 92.690826 -76.141025 
L 92.690994 -76.827196 
L 92.680244 -77.513366 
L 92.659006 -78.199537 
L 92.629303 -78.885707 
L 92.594818 -79.571878 
L 92.56073 -80.258048 
L 92.533309 -80.944218 
L 92.519304 -81.630389 
L 92.525216 -82.316559 
L 92.556547 -83.00273 
L 92.61714 -83.6889 
L 92.708713 -84.375071 
L 92.830638 -85.061241 
L 92.980003 -85.747411 
L 93.151931 -86.433582 
L 93.340098 -87.119752 
L 93.537375 -87.805923 
L 93.7365 -88.492093 
L 93.930692 -89.178264 
L 94.114145 -89.864434 
L 94.282359 -90.550604 
L 94.432292 -91.236775 
L 94.562355 -91.922945 
L 94.672266 -92.609116 
L 94.762814 -93.295286 
L 94.835582 -93.981456 
L 94.892655 -94.667627 
L 95.196433 -94.667627 
L 95.196433 -94.667627 
L 95.253506 -93.981456 
L 95.326274 -93.295286 
L 95.416822 -92.609116 
L 95.526733 -91.922945 
L 95.656796 -91.236775 
L 95.806729 -90.550604 
L 95.974942 -89.864434 
L 96.158395 -89.178264 
L 96.352587 -88.492093 
L 96.551713 -87.805923 
L 96.74899 -87.119752 
L 96.937157 -86.433582 
L 97.109084 -85.747411 
L 97.25845 -85.061241 
L 97.380375 -84.375071 
L 97.471948 -83.6889 
L 97.532541 -83.00273 
L 97.563871 -82.316559 
L 97.569784 -81.630389 
L 97.555779 -80.944218 
L 97.528358 -80.258048 
L 97.49427 -79.571878 
L 97.459784 -78.885707 
L 97.430081 -78.199537 
L 97.408844 -77.513366 
L 97.398094 -76.827196 
L 97.398261 -76.141025 
L 97.408449 -75.454855 
L 97.426817 -74.768685 
L 97.451018 -74.082514 
L 97.478599 -73.396344 
L 97.507341 -72.710173 
L 97.5355 -72.024003 
L 97.561975 -71.337832 
L 97.586398 -70.651662 
L 97.609198 -69.965492 
L 97.631617 -69.279321 
L 97.655696 -68.593151 
L 97.684188 -67.90698 
L 97.720368 -67.22081 
L 97.76773 -66.53464 
L 97.829552 -65.848469 
L 97.908378 -65.162299 
L 98.005485 -64.476128 
L 98.120425 -63.789958 
L 98.250753 -63.103787 
L 98.392014 -62.417617 
L 98.538052 -61.731447 
L 98.681608 -61.045276 
L 98.815148 -60.359106 
L 98.931805 -59.672935 
L 99.026275 -58.986765 
L 99.095539 -58.300594 
L 99.139284 -57.614424 
L 99.159968 -56.928254 
L 99.162525 -56.242083 
L 99.153762 -55.555913 
L 99.141557 -54.869742 
L 99.133974 -54.183572 
L 99.138422 -53.497401 
L 99.160973 -52.811231 
L 99.205901 -52.125061 
L 99.275482 -51.43889 
L 99.370051 -50.75272 
L 99.48827 -50.066549 
L 99.627544 -49.380379 
L 99.784482 -48.694208 
L 99.955325 -48.008038 
L 100.136246 -47.321868 
L 100.323456 -46.635697 
L 100.513115 -45.949527 
L 100.701043 -45.263356 
L 100.882336 -44.577186 
L 101.05098 -43.891015 
L 101.199601 -43.204845 
L 101.31946 -42.518675 
L 101.400788 -41.832504 
L 101.433452 -41.146334 
L 101.40791 -40.460163 
L 101.316315 -39.773993 
L 101.153607 -39.087823 
L 100.918393 -38.401652 
L 100.613476 -37.715482 
L 100.245916 -37.029311 
L 99.826606 -36.343141 
L 99.369416 -35.65697 
L 98.890035 -34.9708 
L 98.40466 -34.28463 
L 97.928715 -33.598459 
L 97.47576 -32.912289 
L 97.056684 -32.226118 
L 96.679254 -31.539948 
L 96.348017 -30.853777 
L 96.064507 -30.167607 
L 95.827682 -29.481437 
L 95.634498 -28.795266 
L 95.480541 -28.109096 
L 95.360621 -27.422925 
L 95.269298 -26.736755 
z
" style="stroke: #505050; stroke-width: 0.15"/>
    </defs>
    <g clip-path="url(#pc6c152fa91)">
     <use xlink:href="#m6014623c55" x="0" y="105.84" style="fill: #c3c3a2; stroke: #505050; stroke-width: 0.15"/>
    </g>
   </g>
   <g id="PolyCollection_6">
    <defs>
     <path id="m2cc78aec66" d="M 111.198588 -26.157584 
L 110.83504 -26.157584 
L 110.762819 -26.776198 
L 110.670832 -27.394813 
L 110.557179 -28.013428 
L 110.420945 -28.632042 
L 110.262441 -29.250657 
L 110.083284 -29.869271 
L 109.886255 -30.487886 
L 109.674891 -31.1065 
L 109.452853 -31.725115 
L 109.223155 -32.343729 
L 108.987414 -32.962344 
L 108.745282 -33.580958 
L 108.494266 -34.199573 
L 108.230044 -34.818188 
L 107.947321 -35.436802 
L 107.641149 -36.055417 
L 107.308512 -36.674031 
L 106.949876 -37.292646 
L 106.570398 -37.91126 
L 106.180483 -38.529875 
L 105.795491 -39.148489 
L 105.434565 -39.767104 
L 105.118682 -40.385719 
L 104.868249 -41.004333 
L 104.700607 -41.622948 
L 104.627906 -42.241562 
L 104.655679 -42.860177 
L 104.782382 -43.478791 
L 104.999911 -44.097406 
L 105.294964 -44.71602 
L 105.650941 -45.334635 
L 106.050006 -45.953249 
L 106.474932 -46.571864 
L 106.910461 -47.190479 
L 107.344018 -47.809093 
L 107.765813 -48.427708 
L 108.168451 -49.046322 
L 108.546279 -49.664937 
L 108.894679 -50.283551 
L 109.209507 -50.902166 
L 109.486781 -51.52078 
L 109.722645 -52.139395 
L 109.91358 -52.758009 
L 110.056777 -53.376624 
L 110.150592 -53.995239 
L 110.194992 -54.613853 
L 110.191918 -55.232468 
L 110.145523 -55.851082 
L 110.062217 -56.469697 
L 109.9505 -57.088311 
L 109.820549 -57.706926 
L 109.683576 -58.32554 
L 109.550991 -58.944155 
L 109.433463 -59.56277 
L 109.340001 -60.181384 
L 109.277194 -60.799999 
L 109.248728 -61.418613 
L 109.255272 -62.037228 
L 109.294737 -62.655842 
L 109.362843 -63.274457 
L 109.453897 -63.893071 
L 109.561601 -64.511686 
L 109.679769 -65.1303 
L 109.802833 -65.748915 
L 109.926087 -66.36753 
L 110.045701 -66.986144 
L 110.158554 -67.604759 
L 110.261993 -68.223373 
L 110.353607 -68.841988 
L 110.43109 -69.460602 
L 110.49224 -70.079217 
L 110.535076 -70.697831 
L 110.558058 -71.316446 
L 110.56036 -71.93506 
L 110.542136 -72.553675 
L 110.504722 -73.17229 
L 110.450743 -73.790904 
L 110.384083 -74.409519 
L 110.309715 -75.028133 
L 110.23339 -75.646748 
L 110.16121 -76.265362 
L 110.099125 -76.883977 
L 110.052414 -77.502591 
L 110.025204 -78.121206 
L 110.020101 -78.739821 
L 110.037971 -79.358435 
L 110.07791 -79.97705 
L 110.137397 -80.595664 
L 110.212628 -81.214279 
L 110.29895 -81.832893 
L 110.391367 -82.451508 
L 110.485023 -83.070122 
L 110.575617 -83.688737 
L 110.659705 -84.307351 
L 110.734859 -84.925966 
L 110.799692 -85.544581 
L 110.85377 -86.163195 
L 110.897439 -86.78181 
L 110.931608 -87.400424 
L 111.10202 -87.400424 
L 111.10202 -87.400424 
L 111.136189 -86.78181 
L 111.179858 -86.163195 
L 111.233936 -85.544581 
L 111.298769 -84.925966 
L 111.373923 -84.307351 
L 111.458011 -83.688737 
L 111.548605 -83.070122 
L 111.642261 -82.451508 
L 111.734678 -81.832893 
L 111.821 -81.214279 
L 111.896231 -80.595664 
L 111.955719 -79.97705 
L 111.995657 -79.358435 
L 112.013527 -78.739821 
L 112.008424 -78.121206 
L 111.981214 -77.502591 
L 111.934503 -76.883977 
L 111.872418 -76.265362 
L 111.800238 -75.646748 
L 111.723913 -75.028133 
L 111.649545 -74.409519 
L 111.582885 -73.790904 
L 111.528906 -73.17229 
L 111.491492 -72.553675 
L 111.473268 -71.93506 
L 111.475571 -71.316446 
L 111.498552 -70.697831 
L 111.541388 -70.079217 
L 111.602538 -69.460602 
L 111.680022 -68.841988 
L 111.771635 -68.223373 
L 111.875074 -67.604759 
L 111.987927 -66.986144 
L 112.107541 -66.36753 
L 112.230795 -65.748915 
L 112.353859 -65.1303 
L 112.472027 -64.511686 
L 112.579731 -63.893071 
L 112.670785 -63.274457 
L 112.738891 -62.655842 
L 112.778356 -62.037228 
L 112.784901 -61.418613 
L 112.756434 -60.799999 
L 112.693627 -60.181384 
L 112.600165 -59.56277 
L 112.482637 -58.944155 
L 112.350052 -58.32554 
L 112.213079 -57.706926 
L 112.083128 -57.088311 
L 111.971411 -56.469697 
L 111.888105 -55.851082 
L 111.84171 -55.232468 
L 111.838636 -54.613853 
L 111.883036 -53.995239 
L 111.976852 -53.376624 
L 112.120048 -52.758009 
L 112.310983 -52.139395 
L 112.546847 -51.52078 
L 112.824121 -50.902166 
L 113.138949 -50.283551 
L 113.487349 -49.664937 
L 113.865177 -49.046322 
L 114.267815 -48.427708 
L 114.68961 -47.809093 
L 115.123167 -47.190479 
L 115.558696 -46.571864 
L 115.983623 -45.953249 
L 116.382687 -45.334635 
L 116.738664 -44.71602 
L 117.033717 -44.097406 
L 117.251246 -43.478791 
L 117.377949 -42.860177 
L 117.405722 -42.241562 
L 117.333021 -41.622948 
L 117.165379 -41.004333 
L 116.914946 -40.385719 
L 116.599063 -39.767104 
L 116.238137 -39.148489 
L 115.853145 -38.529875 
L 115.46323 -37.91126 
L 115.083752 -37.292646 
L 114.725116 -36.674031 
L 114.392479 -36.055417 
L 114.086307 -35.436802 
L 113.803584 -34.818188 
L 113.539362 -34.199573 
L 113.288346 -33.580958 
L 113.046214 -32.962344 
L 112.810473 -32.343729 
L 112.580776 -31.725115 
L 112.358737 -31.1065 
L 112.147373 -30.487886 
L 111.950344 -29.869271 
L 111.771188 -29.250657 
L 111.612683 -28.632042 
L 111.476449 -28.013428 
L 111.362796 -27.394813 
L 111.270809 -26.776198 
L 111.198588 -26.157584 
z
" style="stroke: #505050; stroke-width: 0.15"/>
    </defs>
    <g clip-path="url(#pc6c152fa91)">
     <use xlink:href="#m2cc78aec66" x="0" y="105.84" style="fill: #cbcbaf; stroke: #505050; stroke-width: 0.15"/>
    </g>
   </g>
   <g id="PolyCollection_7">
    <defs>
     <path id="mdd116800fb" d="M 127.389636 -33.076891 
L 126.588532 -33.076891 
L 126.464808 -33.07757 
L 126.312459 -33.078249 
L 126.128 -33.078929 
L 125.908457 -33.079608 
L 125.651681 -33.080288 
L 125.356676 -33.080967 
L 125.02392 -33.081646 
L 124.655645 -33.082326 
L 124.256046 -33.083005 
L 123.831391 -33.083685 
L 123.389996 -33.084364 
L 122.942059 -33.085043 
L 122.499333 -33.085723 
L 122.074663 -33.086402 
L 121.681387 -33.087081 
L 121.332657 -33.087761 
L 121.040717 -33.08844 
L 120.816199 -33.08912 
L 120.667481 -33.089799 
L 120.600176 -33.090478 
L 120.616786 -33.091158 
L 120.716548 -33.091837 
L 120.895498 -33.092517 
L 121.146722 -33.093196 
L 121.460801 -33.093875 
L 121.826389 -33.094555 
L 122.230882 -33.095234 
L 122.661124 -33.095914 
L 123.104105 -33.096593 
L 123.547577 -33.097272 
L 123.980582 -33.097952 
L 124.393835 -33.098631 
L 124.779968 -33.099311 
L 125.133627 -33.09999 
L 125.451434 -33.100669 
L 125.731846 -33.101349 
L 125.974916 -33.102028 
L 126.182012 -33.102707 
L 126.355502 -33.103387 
L 126.49845 -33.104066 
L 126.614324 -33.104746 
L 126.706746 -33.105425 
L 126.779295 -33.106104 
L 126.835348 -33.106784 
L 126.877978 -33.107463 
L 126.909891 -33.108143 
L 126.933405 -33.108822 
L 126.950452 -33.109501 
L 126.9626 -33.110181 
L 126.971092 -33.11086 
L 126.976882 -33.11154 
L 126.980685 -33.112219 
L 126.983009 -33.112898 
L 126.984196 -33.113578 
L 126.984441 -33.114257 
L 126.983821 -33.114936 
L 126.982302 -33.115616 
L 126.979751 -33.116295 
L 126.975938 -33.116975 
L 126.970538 -33.117654 
L 126.963135 -33.118333 
L 126.953222 -33.119013 
L 126.940216 -33.119692 
L 126.923469 -33.120372 
L 126.902302 -33.121051 
L 126.876036 -33.12173 
L 126.844049 -33.12241 
L 126.805828 -33.123089 
L 126.761042 -33.123769 
L 126.709612 -33.124448 
L 126.651774 -33.125127 
L 126.588137 -33.125807 
L 126.519716 -33.126486 
L 126.447948 -33.127165 
L 126.374662 -33.127845 
L 126.302025 -33.128524 
L 126.232445 -33.129204 
L 126.168447 -33.129883 
L 126.112526 -33.130562 
L 126.066986 -33.131242 
L 126.033781 -33.131921 
L 126.014381 -33.132601 
L 126.00966 -33.13328 
L 126.019833 -33.133959 
L 126.044437 -33.134639 
L 126.082372 -33.135318 
L 126.131973 -33.135998 
L 126.191141 -33.136677 
L 126.257484 -33.137356 
L 126.328477 -33.138036 
L 126.401622 -33.138715 
L 126.474586 -33.139394 
L 126.545318 -33.140074 
L 126.612126 -33.140753 
L 126.67373 -33.141433 
L 126.729265 -33.142112 
L 126.778264 -33.142791 
L 126.820616 -33.143471 
L 126.8565 -33.14415 
L 127.121669 -33.14415 
L 127.121669 -33.14415 
L 127.157553 -33.143471 
L 127.199904 -33.142791 
L 127.248904 -33.142112 
L 127.304439 -33.141433 
L 127.366042 -33.140753 
L 127.432851 -33.140074 
L 127.503582 -33.139394 
L 127.576546 -33.138715 
L 127.649691 -33.138036 
L 127.720685 -33.137356 
L 127.787028 -33.136677 
L 127.846196 -33.135998 
L 127.895797 -33.135318 
L 127.933731 -33.134639 
L 127.958336 -33.133959 
L 127.968509 -33.13328 
L 127.963788 -33.132601 
L 127.944387 -33.131921 
L 127.911183 -33.131242 
L 127.865642 -33.130562 
L 127.809722 -33.129883 
L 127.745724 -33.129204 
L 127.676144 -33.128524 
L 127.603506 -33.127845 
L 127.53022 -33.127165 
L 127.458452 -33.126486 
L 127.390032 -33.125807 
L 127.326394 -33.125127 
L 127.268556 -33.124448 
L 127.217126 -33.123769 
L 127.172341 -33.123089 
L 127.13412 -33.12241 
L 127.102132 -33.12173 
L 127.075867 -33.121051 
L 127.0547 -33.120372 
L 127.037953 -33.119692 
L 127.024947 -33.119013 
L 127.015034 -33.118333 
L 127.007631 -33.117654 
L 127.002231 -33.116975 
L 126.998418 -33.116295 
L 126.995867 -33.115616 
L 126.994348 -33.114936 
L 126.993728 -33.114257 
L 126.993973 -33.113578 
L 126.995159 -33.112898 
L 126.997484 -33.112219 
L 127.001287 -33.11154 
L 127.007077 -33.11086 
L 127.015568 -33.110181 
L 127.027716 -33.109501 
L 127.044764 -33.108822 
L 127.068278 -33.108143 
L 127.100191 -33.107463 
L 127.14282 -33.106784 
L 127.198873 -33.106104 
L 127.271422 -33.105425 
L 127.363845 -33.104746 
L 127.479718 -33.104066 
L 127.622666 -33.103387 
L 127.796157 -33.102707 
L 128.003252 -33.102028 
L 128.246322 -33.101349 
L 128.526734 -33.100669 
L 128.844542 -33.09999 
L 129.1982 -33.099311 
L 129.584333 -33.098631 
L 129.997586 -33.097952 
L 130.430592 -33.097272 
L 130.874064 -33.096593 
L 131.317044 -33.095914 
L 131.747287 -33.095234 
L 132.151779 -33.094555 
L 132.517367 -33.093875 
L 132.831447 -33.093196 
L 133.082671 -33.092517 
L 133.26162 -33.091837 
L 133.361383 -33.091158 
L 133.377992 -33.090478 
L 133.310687 -33.089799 
L 133.161969 -33.08912 
L 132.937451 -33.08844 
L 132.645512 -33.087761 
L 132.296782 -33.087081 
L 131.903505 -33.086402 
L 131.478835 -33.085723 
L 131.03611 -33.085043 
L 130.588172 -33.084364 
L 130.146777 -33.083685 
L 129.722122 -33.083005 
L 129.322523 -33.082326 
L 128.954248 -33.081646 
L 128.621492 -33.080967 
L 128.326488 -33.080288 
L 128.069712 -33.079608 
L 127.850169 -33.078929 
L 127.665709 -33.078249 
L 127.51336 -33.07757 
L 127.389636 -33.076891 
z
" style="stroke: #505050; stroke-width: 0.15"/>
    </defs>
    <g clip-path="url(#pc6c152fa91)">
     <use xlink:href="#mdd116800fb" x="0" y="105.84" style="fill: #e7a980; stroke: #505050; stroke-width: 0.15"/>
    </g>
   </g>
   <g id="PolyCollection_8">
    <defs>
     <path id="mc7598d5b55" d="M 143.262489 -32.304589 
L 142.66022 -32.304589 
L 142.574926 -32.357214 
L 142.472587 -32.40984 
L 142.351877 -32.462465 
L 142.211892 -32.515091 
L 142.052255 -32.567716 
L 141.873189 -32.620342 
L 141.675552 -32.672967 
L 141.460822 -32.725593 
L 141.23103 -32.778219 
L 140.988654 -32.830844 
L 140.736473 -32.88347 
L 140.477416 -32.936095 
L 140.21441 -32.988721 
L 139.950273 -33.041346 
L 139.687639 -33.093972 
L 139.428957 -33.146597 
L 139.176538 -33.199223 
L 138.932655 -33.251848 
L 138.699655 -33.304474 
L 138.480075 -33.3571 
L 138.276709 -33.409725 
L 138.092613 -33.462351 
L 137.931017 -33.514976 
L 137.795161 -33.567602 
L 137.68804 -33.620227 
L 137.612119 -33.672853 
L 137.569027 -33.725478 
L 137.559293 -33.778104 
L 137.582163 -33.830729 
L 137.635514 -33.883355 
L 137.7159 -33.935981 
L 137.818708 -33.988606 
L 137.938412 -34.041232 
L 138.068885 -34.093857 
L 138.203723 -34.146483 
L 138.336556 -34.199108 
L 138.461288 -34.251734 
L 138.572274 -34.304359 
L 138.664418 -34.356985 
L 138.733221 -34.409611 
L 138.774793 -34.462236 
L 138.785882 -34.514862 
L 138.763941 -34.567487 
L 138.707248 -34.620113 
L 138.615103 -34.672738 
L 138.488064 -34.725364 
L 138.328212 -34.777989 
L 138.139379 -34.830615 
L 137.927303 -34.88324 
L 137.699651 -34.935866 
L 137.465873 -34.988492 
L 137.236879 -35.041117 
L 137.024524 -35.093743 
L 136.840952 -35.146368 
L 136.697826 -35.198994 
L 136.605538 -35.251619 
L 136.572446 -35.304245 
L 136.604228 -35.35687 
L 136.70341 -35.409496 
L 136.86912 -35.462121 
L 137.097077 -35.514747 
L 137.379835 -35.567373 
L 137.707237 -35.619998 
L 138.067064 -35.672624 
L 138.445793 -35.725249 
L 138.829425 -35.777875 
L 139.204314 -35.8305 
L 139.557938 -35.883126 
L 139.879556 -35.935751 
L 140.160736 -35.988377 
L 140.395709 -36.041003 
L 140.581553 -36.093628 
L 140.718197 -36.146254 
L 140.808262 -36.198879 
L 140.856756 -36.251505 
L 140.870647 -36.30413 
L 140.858333 -36.356756 
L 140.829062 -36.409381 
L 140.792318 -36.462007 
L 140.75723 -36.514632 
L 140.732021 -36.567258 
L 140.723555 -36.619884 
L 140.736989 -36.672509 
L 140.775567 -36.725135 
L 140.84056 -36.77776 
L 140.931347 -36.830386 
L 141.045631 -36.883011 
L 141.17975 -36.935637 
L 141.329067 -36.988262 
L 141.48839 -37.040888 
L 141.652382 -37.093513 
L 141.815936 -37.146139 
L 141.974487 -37.198765 
L 142.124227 -37.25139 
L 142.262244 -37.304016 
L 142.386564 -37.356641 
L 142.496118 -37.409267 
L 142.590644 -37.461892 
L 142.67056 -37.514518 
L 143.252149 -37.514518 
L 143.252149 -37.514518 
L 143.332065 -37.461892 
L 143.426592 -37.409267 
L 143.536145 -37.356641 
L 143.660465 -37.304016 
L 143.798482 -37.25139 
L 143.948222 -37.198765 
L 144.106773 -37.146139 
L 144.270328 -37.093513 
L 144.434319 -37.040888 
L 144.593642 -36.988262 
L 144.742959 -36.935637 
L 144.877078 -36.883011 
L 144.991362 -36.830386 
L 145.08215 -36.77776 
L 145.147142 -36.725135 
L 145.18572 -36.672509 
L 145.199154 -36.619884 
L 145.190688 -36.567258 
L 145.16548 -36.514632 
L 145.130391 -36.462007 
L 145.093648 -36.409381 
L 145.064376 -36.356756 
L 145.052062 -36.30413 
L 145.065953 -36.251505 
L 145.114448 -36.198879 
L 145.204512 -36.146254 
L 145.341156 -36.093628 
L 145.527 -36.041003 
L 145.761974 -35.988377 
L 146.043154 -35.935751 
L 146.364771 -35.883126 
L 146.718395 -35.8305 
L 147.093285 -35.777875 
L 147.476917 -35.725249 
L 147.855645 -35.672624 
L 148.215472 -35.619998 
L 148.542875 -35.567373 
L 148.825632 -35.514747 
L 149.053589 -35.462121 
L 149.219299 -35.409496 
L 149.318481 -35.35687 
L 149.350263 -35.304245 
L 149.317171 -35.251619 
L 149.224883 -35.198994 
L 149.081758 -35.146368 
L 148.898185 -35.093743 
L 148.68583 -35.041117 
L 148.456836 -34.988492 
L 148.223058 -34.935866 
L 147.995406 -34.88324 
L 147.78333 -34.830615 
L 147.594497 -34.777989 
L 147.434645 -34.725364 
L 147.307606 -34.672738 
L 147.215461 -34.620113 
L 147.158768 -34.567487 
L 147.136827 -34.514862 
L 147.147916 -34.462236 
L 147.189488 -34.409611 
L 147.258291 -34.356985 
L 147.350435 -34.304359 
L 147.461421 -34.251734 
L 147.586153 -34.199108 
L 147.718986 -34.146483 
L 147.853825 -34.093857 
L 147.984297 -34.041232 
L 148.104001 -33.988606 
L 148.206809 -33.935981 
L 148.287195 -33.883355 
L 148.340546 -33.830729 
L 148.363416 -33.778104 
L 148.353683 -33.725478 
L 148.31059 -33.672853 
L 148.234669 -33.620227 
L 148.127549 -33.567602 
L 147.991692 -33.514976 
L 147.830096 -33.462351 
L 147.646 -33.409725 
L 147.442634 -33.3571 
L 147.223054 -33.304474 
L 146.990054 -33.251848 
L 146.746171 -33.199223 
L 146.493752 -33.146597 
L 146.23507 -33.093972 
L 145.972436 -33.041346 
L 145.708299 -32.988721 
L 145.445294 -32.936095 
L 145.186236 -32.88347 
L 144.934055 -32.830844 
L 144.691679 -32.778219 
L 144.461887 -32.725593 
L 144.247157 -32.672967 
L 144.04952 -32.620342 
L 143.870454 -32.567716 
L 143.710817 -32.515091 
L 143.570832 -32.462465 
L 143.450122 -32.40984 
L 143.347783 -32.357214 
L 143.262489 -32.304589 
z
" style="stroke: #505050; stroke-width: 0.15"/>
    </defs>
    <g clip-path="url(#pc6c152fa91)">
     <use xlink:href="#mc7598d5b55" x="0" y="105.84" style="fill: #abc3de; stroke: #505050; stroke-width: 0.15"/>
    </g>
   </g>
   <g id="PolyCollection_9">
    <defs>
     <path id="mba27cc4b1a" d="M 159.35839 -31.889284 
L 158.50886 -31.889284 
L 158.400252 -31.953468 
L 158.271008 -32.017652 
L 158.119164 -32.081836 
L 157.943062 -32.14602 
L 157.741478 -32.210204 
L 157.513758 -32.274387 
L 157.259942 -32.338571 
L 156.980871 -32.402755 
L 156.678268 -32.466939 
L 156.354781 -32.531123 
L 156.013986 -32.595306 
L 155.660338 -32.65949 
L 155.299078 -32.723674 
L 154.936092 -32.787858 
L 154.577727 -32.852042 
L 154.230584 -32.916226 
L 153.901287 -32.980409 
L 153.596248 -33.044593 
L 153.321448 -33.108777 
L 153.082229 -33.172961 
L 152.88313 -33.237145 
L 152.72776 -33.301328 
L 152.618713 -33.365512 
L 152.557532 -33.429696 
L 152.544717 -33.49388 
L 152.57976 -33.558064 
L 152.661224 -33.622247 
L 152.786826 -33.686431 
L 152.953548 -33.750615 
L 153.157746 -33.814799 
L 153.395262 -33.878983 
L 153.661536 -33.943167 
L 153.951716 -34.00735 
L 154.260762 -34.071534 
L 154.583551 -34.135718 
L 154.914978 -34.199902 
L 155.250059 -34.264086 
L 155.584027 -34.328269 
L 155.912425 -34.392453 
L 156.231197 -34.456637 
L 156.53676 -34.520821 
L 156.826066 -34.585005 
L 157.096643 -34.649189 
L 157.346618 -34.713372 
L 157.574712 -34.777556 
L 157.780211 -34.84174 
L 157.962925 -34.905924 
L 158.123109 -34.970108 
L 158.26139 -35.034291 
L 158.378667 -35.098475 
L 158.476014 -35.162659 
L 158.554587 -35.226843 
L 158.615529 -35.291027 
L 158.659895 -35.35521 
L 158.688586 -35.419394 
L 158.702307 -35.483578 
L 158.701544 -35.547762 
L 158.686564 -35.611946 
L 158.657438 -35.67613 
L 158.614087 -35.740313 
L 158.556347 -35.804497 
L 158.484055 -35.868681 
L 158.397139 -35.932865 
L 158.295729 -35.997049 
L 158.180254 -36.061232 
L 158.051541 -36.125416 
L 157.910894 -36.1896 
L 157.760154 -36.253784 
L 157.601727 -36.317968 
L 157.438568 -36.382152 
L 157.274138 -36.446335 
L 157.112311 -36.510519 
L 156.957244 -36.574703 
L 156.813215 -36.638887 
L 156.68444 -36.703071 
L 156.57487 -36.767254 
L 156.487997 -36.831438 
L 156.426669 -36.895622 
L 156.392941 -36.959806 
L 156.387955 -37.02399 
L 156.411883 -37.088173 
L 156.463915 -37.152357 
L 156.542302 -37.216541 
L 156.64446 -37.280725 
L 156.767105 -37.344909 
L 156.906432 -37.409093 
L 157.058311 -37.473276 
L 157.218485 -37.53746 
L 157.382768 -37.601644 
L 157.547219 -37.665828 
L 157.708288 -37.730012 
L 157.862926 -37.794195 
L 158.008659 -37.858379 
L 158.143619 -37.922563 
L 158.266539 -37.986747 
L 158.376723 -38.050931 
L 158.473979 -38.115115 
L 158.558554 -38.179298 
L 158.631038 -38.243482 
L 159.236211 -38.243482 
L 159.236211 -38.243482 
L 159.308695 -38.179298 
L 159.39327 -38.115115 
L 159.490527 -38.050931 
L 159.60071 -37.986747 
L 159.723631 -37.922563 
L 159.858591 -37.858379 
L 160.004324 -37.794195 
L 160.158962 -37.730012 
L 160.320031 -37.665828 
L 160.484481 -37.601644 
L 160.648765 -37.53746 
L 160.808939 -37.473276 
L 160.960817 -37.409093 
L 161.100145 -37.344909 
L 161.22279 -37.280725 
L 161.324947 -37.216541 
L 161.403335 -37.152357 
L 161.455366 -37.088173 
L 161.479295 -37.02399 
L 161.474309 -36.959806 
L 161.44058 -36.895622 
L 161.379253 -36.831438 
L 161.292379 -36.767254 
L 161.182809 -36.703071 
L 161.054034 -36.638887 
L 160.910006 -36.574703 
L 160.754939 -36.510519 
L 160.593112 -36.446335 
L 160.428682 -36.382152 
L 160.265523 -36.317968 
L 160.107095 -36.253784 
L 159.956356 -36.1896 
L 159.815709 -36.125416 
L 159.686995 -36.061232 
L 159.57152 -35.997049 
L 159.47011 -35.932865 
L 159.383195 -35.868681 
L 159.310903 -35.804497 
L 159.253163 -35.740313 
L 159.209812 -35.67613 
L 159.180686 -35.611946 
L 159.165706 -35.547762 
L 159.164943 -35.483578 
L 159.178664 -35.419394 
L 159.207355 -35.35521 
L 159.25172 -35.291027 
L 159.312663 -35.226843 
L 159.391236 -35.162659 
L 159.488583 -35.098475 
L 159.60586 -35.034291 
L 159.74414 -34.970108 
L 159.904325 -34.905924 
L 160.087038 -34.84174 
L 160.292538 -34.777556 
L 160.520632 -34.713372 
L 160.770607 -34.649189 
L 161.041184 -34.585005 
L 161.33049 -34.520821 
L 161.636052 -34.456637 
L 161.954824 -34.392453 
L 162.283223 -34.328269 
L 162.61719 -34.264086 
L 162.952272 -34.199902 
L 163.283699 -34.135718 
L 163.606488 -34.071534 
L 163.915534 -34.00735 
L 164.205714 -33.943167 
L 164.471988 -33.878983 
L 164.709504 -33.814799 
L 164.913702 -33.750615 
L 165.080424 -33.686431 
L 165.206026 -33.622247 
L 165.28749 -33.558064 
L 165.322533 -33.49388 
L 165.309717 -33.429696 
L 165.248537 -33.365512 
L 165.139489 -33.301328 
L 164.984119 -33.237145 
L 164.785021 -33.172961 
L 164.545802 -33.108777 
L 164.271001 -33.044593 
L 163.965963 -32.980409 
L 163.636666 -32.916226 
L 163.289523 -32.852042 
L 162.931158 -32.787858 
L 162.568171 -32.723674 
L 162.206912 -32.65949 
L 161.853264 -32.595306 
L 161.512469 -32.531123 
L 161.188982 -32.466939 
L 160.886379 -32.402755 
L 160.607308 -32.338571 
L 160.353492 -32.274387 
L 160.125772 -32.210204 
L 159.924188 -32.14602 
L 159.748085 -32.081836 
L 159.596242 -32.017652 
L 159.466997 -31.953468 
L 159.35839 -31.889284 
z
" style="stroke: #505050; stroke-width: 0.15"/>
    </defs>
    <g clip-path="url(#pc6c152fa91)">
     <use xlink:href="#mba27cc4b1a" x="0" y="105.84" style="fill: #c447c3; stroke: #505050; stroke-width: 0.15"/>
    </g>
   </g>
   <g id="line2d_29">
    <path d="M 95.044544 69.928963 
L 95.044544 20.346655 
" clip-path="url(#pc6c152fa91)" style="fill: none; stroke: #8c8c8c; stroke-width: 0.75; stroke-linecap: round"/>
   </g>
   <g id="line2d_30">
    <path d="M 95.044544 65.359519 
L 95.044544 38.54448 
" clip-path="url(#pc6c152fa91)" style="fill: none; stroke: #8c8c8c; stroke-width: 4; stroke-linecap: round"/>
   </g>
   <g id="line2d_31">
    <path d="M 95.044544 53.419536 
" clip-path="url(#pc6c152fa91)" style="fill: none; stroke: #505050; stroke-width: 1.2; stroke-linecap: round"/>
    <g clip-path="url(#pc6c152fa91)">
     <use xlink:href="#m1812fa43af" x="95.044544" y="53.419536" style="fill: #ffffff; stroke: #ffffff; stroke-width: 0.8"/>
    </g>
   </g>
   <g id="line2d_32">
    <path d="M 111.016814 72.214129 
L 111.016814 39.219967 
" clip-path="url(#pc6c152fa91)" style="fill: none; stroke: #8c8c8c; stroke-width: 0.75; stroke-linecap: round"/>
   </g>
   <g id="line2d_33">
    <path d="M 111.016814 64.677958 
L 111.016814 54.184326 
" clip-path="url(#pc6c152fa91)" style="fill: none; stroke: #8c8c8c; stroke-width: 4; stroke-linecap: round"/>
   </g>
   <g id="line2d_34">
    <path d="M 111.016814 62.839947 
" clip-path="url(#pc6c152fa91)" style="fill: none; stroke: #505050; stroke-width: 1.2; stroke-linecap: round"/>
    <g clip-path="url(#pc6c152fa91)">
     <use xlink:href="#m1812fa43af" x="111.016814" y="62.839947" style="fill: #ffffff; stroke: #ffffff; stroke-width: 0.8"/>
    </g>
   </g>
   <g id="line2d_35">
    <path d="M 126.989084 72.752114 
L 126.989084 72.745953 
" clip-path="url(#pc6c152fa91)" style="fill: none; stroke: #8c8c8c; stroke-width: 0.75; stroke-linecap: round"/>
   </g>
   <g id="line2d_36">
    <path d="M 126.989084 72.750728 
L 126.989084 72.746878 
" clip-path="url(#pc6c152fa91)" style="fill: none; stroke: #8c8c8c; stroke-width: 4; stroke-linecap: round"/>
   </g>
   <g id="line2d_37">
    <path d="M 126.989084 72.748887 
" clip-path="url(#pc6c152fa91)" style="fill: none; stroke: #505050; stroke-width: 1.2; stroke-linecap: round"/>
    <g clip-path="url(#pc6c152fa91)">
     <use xlink:href="#m1812fa43af" x="126.989084" y="72.748887" style="fill: #ffffff; stroke: #ffffff; stroke-width: 0.8"/>
    </g>
   </g>
   <g id="line2d_38">
    <path d="M 142.961355 72.695413 
L 142.961355 69.165481 
" clip-path="url(#pc6c152fa91)" style="fill: none; stroke: #8c8c8c; stroke-width: 0.75; stroke-linecap: round"/>
   </g>
   <g id="line2d_39">
    <path d="M 142.961355 72.008812 
L 142.961355 70.444706 
" clip-path="url(#pc6c152fa91)" style="fill: none; stroke: #8c8c8c; stroke-width: 4; stroke-linecap: round"/>
   </g>
   <g id="line2d_40">
    <path d="M 142.961355 70.999319 
" clip-path="url(#pc6c152fa91)" style="fill: none; stroke: #505050; stroke-width: 1.2; stroke-linecap: round"/>
    <g clip-path="url(#pc6c152fa91)">
     <use xlink:href="#m1812fa43af" x="142.961355" y="70.999319" style="fill: #ffffff; stroke: #ffffff; stroke-width: 0.8"/>
    </g>
   </g>
   <g id="line2d_41">
    <path d="M 158.933625 72.751602 
L 158.933625 68.795631 
" clip-path="url(#pc6c152fa91)" style="fill: none; stroke: #8c8c8c; stroke-width: 0.75; stroke-linecap: round"/>
   </g>
   <g id="line2d_42">
    <path d="M 158.933625 72.605789 
L 158.933625 71.067645 
" clip-path="url(#pc6c152fa91)" style="fill: none; stroke: #8c8c8c; stroke-width: 4; stroke-linecap: round"/>
   </g>
   <g id="line2d_43">
    <path d="M 158.933625 72.089616 
" clip-path="url(#pc6c152fa91)" style="fill: none; stroke: #505050; stroke-width: 1.2; stroke-linecap: round"/>
    <g clip-path="url(#pc6c152fa91)">
     <use xlink:href="#m1812fa43af" x="158.933625" y="72.089616" style="fill: #ffffff; stroke: #ffffff; stroke-width: 0.8"/>
    </g>
   </g>
   <g id="patch_6">
    <path d="M 87.058409 80.649838 
L 87.058409 4.076256 
" style="fill: none; stroke: #777777; stroke-width: 0.5; stroke-linejoin: miter; stroke-linecap: square"/>
   </g>
   <g id="patch_7">
    <path d="M 87.058409 83.149838 
L 166.91976 83.149838 
" style="fill: none; stroke: #777777; stroke-width: 0.5; stroke-linejoin: miter; stroke-linecap: square"/>
   </g>
   <g id="PathCollection_5">
    <g clip-path="url(#pc6c152fa91)">
     <use xlink:href="#m949ff26cd8" x="95.41832" y="69.928963" style="fill: #642222"/>
     <use xlink:href="#m949ff26cd8" x="95.94198" y="52.811999" style="fill: #642222"/>
     <use xlink:href="#m949ff26cd8" x="93.759433" y="46.821112" style="fill: #642222"/>
     <use xlink:href="#m949ff26cd8" x="95.033609" y="47.765461" style="fill: #642222"/>
     <use xlink:href="#m949ff26cd8" x="95.055799" y="59.902447" style="fill: #642222"/>
     <use xlink:href="#m949ff26cd8" x="95.01522" y="23.4526" style="fill: #642222"/>
     <use xlink:href="#m949ff26cd8" x="94.624142" y="37.992894" style="fill: #642222"/>
     <use xlink:href="#m949ff26cd8" x="93.492799" y="66.56841" style="fill: #642222"/>
     <use xlink:href="#m949ff26cd8" x="94.081448" y="66.752198" style="fill: #642222"/>
     <use xlink:href="#m949ff26cd8" x="94.429286" y="58.474586" style="fill: #642222"/>
     <use xlink:href="#m949ff26cd8" x="96.239424" y="47.752519" style="fill: #642222"/>
     <use xlink:href="#m949ff26cd8" x="94.384817" y="32.623213" style="fill: #642222"/>
     <use xlink:href="#m949ff26cd8" x="96.306665" y="65.317365" style="fill: #642222"/>
     <use xlink:href="#m949ff26cd8" x="94.811155" y="23.198268" style="fill: #642222"/>
     <use xlink:href="#m949ff26cd8" x="96.632044" y="30.575845" style="fill: #642222"/>
     <use xlink:href="#m949ff26cd8" x="94.408537" y="66.490944" style="fill: #642222"/>
     <use xlink:href="#m949ff26cd8" x="95.353627" y="68.115369" style="fill: #642222"/>
     <use xlink:href="#m949ff26cd8" x="94.128151" y="58.871119" style="fill: #642222"/>
     <use xlink:href="#m949ff26cd8" x="96.073172" y="45.59214" style="fill: #642222"/>
     <use xlink:href="#m949ff26cd8" x="96.410984" y="54.027073" style="fill: #642222"/>
     <use xlink:href="#m949ff26cd8" x="95.20603" y="60.711258" style="fill: #642222"/>
     <use xlink:href="#m949ff26cd8" x="95.060316" y="20.346655" style="fill: #642222"/>
     <use xlink:href="#m949ff26cd8" x="93.459557" y="38.728342" style="fill: #642222"/>
     <use xlink:href="#m949ff26cd8" x="93.715853" y="65.485981" style="fill: #642222"/>
    </g>
   </g>
   <g id="PathCollection_6">
    <g clip-path="url(#pc6c152fa91)">
     <use xlink:href="#m949ff26cd8" x="109.666526" y="72.187708" style="fill: #642222"/>
     <use xlink:href="#m949ff26cd8" x="109.839459" y="58.29412" style="fill: #642222"/>
     <use xlink:href="#m949ff26cd8" x="111.603891" y="61.323325" style="fill: #642222"/>
     <use xlink:href="#m949ff26cd8" x="111.713141" y="62.88672" style="fill: #642222"/>
     <use xlink:href="#m949ff26cd8" x="111.183359" y="44.352187" style="fill: #642222"/>
     <use xlink:href="#m949ff26cd8" x="111.645347" y="63.488313" style="fill: #642222"/>
     <use xlink:href="#m949ff26cd8" x="111.714595" y="57.102128" style="fill: #642222"/>
     <use xlink:href="#m949ff26cd8" x="111.349848" y="28.546693" style="fill: #642222"/>
     <use xlink:href="#m949ff26cd8" x="111.882058" y="71.009091" style="fill: #642222"/>
     <use xlink:href="#m949ff26cd8" x="110.834368" y="63.467684" style="fill: #642222"/>
     <use xlink:href="#m949ff26cd8" x="110.827295" y="63.817577" style="fill: #642222"/>
     <use xlink:href="#m949ff26cd8" x="110.871852" y="64.569915" style="fill: #642222"/>
     <use xlink:href="#m949ff26cd8" x="109.507518" y="39.219967" style="fill: #642222"/>
     <use xlink:href="#m949ff26cd8" x="111.47515" y="65.002089" style="fill: #642222"/>
     <use xlink:href="#m949ff26cd8" x="109.709304" y="61.742963" style="fill: #642222"/>
     <use xlink:href="#m949ff26cd8" x="112.452675" y="25.907862" style="fill: #642222"/>
     <use xlink:href="#m949ff26cd8" x="110.612472" y="72.214129" style="fill: #642222"/>
     <use xlink:href="#m949ff26cd8" x="110.631088" y="63.898502" style="fill: #642222"/>
     <use xlink:href="#m949ff26cd8" x="110.870579" y="62.793174" style="fill: #642222"/>
     <use xlink:href="#m949ff26cd8" x="111.415721" y="65.769194" style="fill: #642222"/>
     <use xlink:href="#m949ff26cd8" x="111.348707" y="44.941401" style="fill: #642222"/>
     <use xlink:href="#m949ff26cd8" x="111.613811" y="67.553163" style="fill: #642222"/>
     <use xlink:href="#m949ff26cd8" x="110.123244" y="57.14784" style="fill: #642222"/>
     <use xlink:href="#m949ff26cd8" x="112.369322" y="45.430919" style="fill: #642222"/>
    </g>
   </g>
   <g id="PathCollection_7">
    <g clip-path="url(#pc6c152fa91)">
     <use xlink:href="#m949ff26cd8" x="128.026744" y="72.752114" style="fill: #642222"/>
     <use xlink:href="#m949ff26cd8" x="127.294089" y="72.751517" style="fill: #642222"/>
     <use xlink:href="#m949ff26cd8" x="126.757716" y="72.748481" style="fill: #642222"/>
     <use xlink:href="#m949ff26cd8" x="127.729134" y="72.749293" style="fill: #642222"/>
     <use xlink:href="#m949ff26cd8" x="128.241624" y="72.750465" style="fill: #642222"/>
     <use xlink:href="#m949ff26cd8" x="126.783711" y="72.745953" style="fill: #642222"/>
     <use xlink:href="#m949ff26cd8" x="128.096992" y="72.747186" style="fill: #642222"/>
     <use xlink:href="#m949ff26cd8" x="125.532286" y="72.706845" style="fill: #642222"/>
    </g>
   </g>
   <g id="PathCollection_8">
    <g clip-path="url(#pc6c152fa91)">
     <use xlink:href="#m949ff26cd8" x="144.36897" y="72.695413" style="fill: #642222"/>
     <use xlink:href="#m949ff26cd8" x="144.321307" y="71.966262" style="fill: #642222"/>
     <use xlink:href="#m949ff26cd8" x="142.076018" y="70.656499" style="fill: #642222"/>
     <use xlink:href="#m949ff26cd8" x="142.701959" y="71.342138" style="fill: #642222"/>
     <use xlink:href="#m949ff26cd8" x="142.052755" y="70.493483" style="fill: #642222"/>
     <use xlink:href="#m949ff26cd8" x="142.518131" y="72.136463" style="fill: #642222"/>
     <use xlink:href="#m949ff26cd8" x="143.65785" y="70.298374" style="fill: #642222"/>
     <use xlink:href="#m949ff26cd8" x="144.141069" y="69.165481" style="fill: #642222"/>
    </g>
   </g>
   <g id="PathCollection_9">
    <g clip-path="url(#pc6c152fa91)">
     <use xlink:href="#m949ff26cd8" x="158.818467" y="72.751602" style="fill: #642222"/>
     <use xlink:href="#m949ff26cd8" x="160.261244" y="72.589549" style="fill: #642222"/>
     <use xlink:href="#m949ff26cd8" x="158.710815" y="72.276457" style="fill: #642222"/>
     <use xlink:href="#m949ff26cd8" x="159.909257" y="72.654509" style="fill: #642222"/>
     <use xlink:href="#m949ff26cd8" x="159.451509" y="68.795631" style="fill: #642222"/>
     <use xlink:href="#m949ff26cd8" x="158.520254" y="71.902776" style="fill: #642222"/>
     <use xlink:href="#m949ff26cd8" x="159.074206" y="68.878484" style="fill: #642222"/>
     <use xlink:href="#m949ff26cd8" x="158.622464" y="71.797366" style="fill: #642222"/>
    </g>
   </g>
  </g>
 </g>
 <defs>
  <clipPath id="pe2a542fbf1">
   <rect x="9.17024" y="4.076256" width="66.551126" height="76.573583"/>
  </clipPath>
  <clipPath id="pc6c152fa91">
   <rect x="87.058409" y="4.076256" width="79.861351" height="76.573583"/>
  </clipPath>
 </defs>
</svg>
