<?xml version="1.0" encoding="utf-8" standalone="no"?>
<!DOCTYPE svg PUBLIC "-//W3C//DTD SVG 1.1//EN"
  "http://www.w3.org/Graphics/SVG/1.1/DTD/svg11.dtd">
<svg xmlns:xlink="http://www.w3.org/1999/xlink" width="56.16pt" height="84.96pt" viewBox="0 0 56.16 84.96" xmlns="http://www.w3.org/2000/svg" version="1.1">
 <metadata>
  <rdf:RDF xmlns:dc="http://purl.org/dc/elements/1.1/" xmlns:cc="http://creativecommons.org/ns#" xmlns:rdf="http://www.w3.org/1999/02/22-rdf-syntax-ns#">
   <cc:Work>
    <dc:type rdf:resource="http://purl.org/dc/dcmitype/StillImage"/>
    <dc:date>2024-05-27T15:37:13.303940</dc:date>
    <dc:format>image/svg+xml</dc:format>
    <dc:creator>
     <cc:Agent>
      <dc:title>Matplotlib v3.8.3, https://matplotlib.org/</dc:title>
     </cc:Agent>
    </dc:creator>
   </cc:Work>
  </rdf:RDF>
 </metadata>
 <defs>
  <style type="text/css">*{stroke-linejoin: round; stroke-linecap: butt}</style>
 </defs>
 <g id="figure_1">
  <g id="patch_1">
   <path d="M 0 84.96 
L 56.16 84.96 
L 56.16 0 
L 0 0 
z
" style="fill: #ffffff"/>
  </g>
  <g id="axes_1">
   <g id="patch_2">
    <path d="M 8.336802 74.419526 
L 53.15976 74.419526 
L 53.15976 4.076256 
L 8.336802 4.076256 
z
" style="fill: #ffffff"/>
   </g>
   <g id="matplotlib.axis_1">
    <g id="xtick_1">
     <g id="text_1">
      <!-- T -->
      <g style="fill: #333333" transform="translate(18.473675 81.230229) scale(0.035 -0.035)">
       <defs>
        <path id="Helvetica-54" d="M 3828 4591 
L 3828 4044 
L 2281 4044 
L 2281 0 
L 1650 0 
L 1650 4044 
L 103 4044 
L 103 4591 
L 3828 4591 
z
" transform="scale(0.015625)"/>
       </defs>
       <use xlink:href="#Helvetica-54"/>
      </g>
     </g>
    </g>
    <g id="xtick_2">
     <g id="text_2">
      <!-- IL7R Non T -->
      <g style="fill: #333333" transform="translate(33.006325 81.230229) scale(0.035 -0.035)">
       <defs>
        <path id="Helvetica-49" d="M 628 4591 
L 1256 4591 
L 1256 0 
L 628 0 
L 628 4591 
z
" transform="scale(0.015625)"/>
        <path id="Helvetica-4c" d="M 488 4591 
L 1109 4591 
L 1109 547 
L 3434 547 
L 3434 0 
L 488 0 
L 488 4591 
z
" transform="scale(0.015625)"/>
        <path id="Helvetica-37" d="M 3347 4400 
L 3347 3909 
Q 3131 3700 2773 3181 
Q 2416 2663 2141 2063 
Q 1869 1478 1728 997 
Q 1638 688 1494 0 
L 872 0 
Q 1084 1281 1809 2550 
Q 2238 3294 2709 3834 
L 234 3834 
L 234 4400 
L 3347 4400 
z
" transform="scale(0.015625)"/>
        <path id="Helvetica-52" d="M 2622 2488 
Q 3059 2488 3314 2663 
Q 3569 2838 3569 3294 
Q 3569 3784 3213 3963 
Q 3022 4056 2703 4056 
L 1184 4056 
L 1184 2488 
L 2622 2488 
z
M 563 4591 
L 2688 4591 
Q 3213 4591 3553 4438 
Q 4200 4144 4200 3353 
Q 4200 2941 4029 2678 
Q 3859 2416 3553 2256 
Q 3822 2147 3958 1969 
Q 4094 1791 4109 1391 
L 4131 775 
Q 4141 513 4175 384 
Q 4231 166 4375 103 
L 4375 0 
L 3613 0 
Q 3581 59 3562 153 
Q 3544 247 3531 516 
L 3494 1281 
Q 3472 1731 3159 1884 
Q 2981 1969 2600 1969 
L 1184 1969 
L 1184 0 
L 563 0 
L 563 4591 
z
" transform="scale(0.015625)"/>
        <path id="Helvetica-20" transform="scale(0.015625)"/>
        <path id="Helvetica-4e" d="M 488 4591 
L 1222 4591 
L 3541 872 
L 3541 4591 
L 4131 4591 
L 4131 0 
L 3434 0 
L 1081 3716 
L 1081 0 
L 488 0 
L 488 4591 
z
M 2269 4591 
L 2269 4591 
z
" transform="scale(0.015625)"/>
        <path id="Helvetica-6f" d="M 1741 363 
Q 2300 363 2508 786 
Q 2716 1209 2716 1728 
Q 2716 2197 2566 2491 
Q 2328 2953 1747 2953 
Q 1231 2953 997 2559 
Q 763 2166 763 1609 
Q 763 1075 997 719 
Q 1231 363 1741 363 
z
M 1763 3444 
Q 2409 3444 2856 3012 
Q 3303 2581 3303 1744 
Q 3303 934 2909 406 
Q 2516 -122 1688 -122 
Q 997 -122 590 345 
Q 184 813 184 1600 
Q 184 2444 612 2944 
Q 1041 3444 1763 3444 
z
M 1744 3428 
L 1744 3428 
z
" transform="scale(0.015625)"/>
        <path id="Helvetica-6e" d="M 413 3347 
L 947 3347 
L 947 2872 
Q 1184 3166 1450 3294 
Q 1716 3422 2041 3422 
Q 2753 3422 3003 2925 
Q 3141 2653 3141 2147 
L 3141 0 
L 2569 0 
L 2569 2109 
Q 2569 2416 2478 2603 
Q 2328 2916 1934 2916 
Q 1734 2916 1606 2875 
Q 1375 2806 1200 2600 
Q 1059 2434 1017 2257 
Q 975 2081 975 1753 
L 975 0 
L 413 0 
L 413 3347 
z
M 1734 3428 
L 1734 3428 
z
" transform="scale(0.015625)"/>
       </defs>
       <use xlink:href="#Helvetica-49"/>
       <use xlink:href="#Helvetica-4c" x="27.783203"/>
       <use xlink:href="#Helvetica-37" x="83.398438"/>
       <use xlink:href="#Helvetica-52" x="139.013672"/>
       <use xlink:href="#Helvetica-20" x="211.230469"/>
       <use xlink:href="#Helvetica-4e" x="239.013672"/>
       <use xlink:href="#Helvetica-6f" x="311.230469"/>
       <use xlink:href="#Helvetica-6e" x="366.845703"/>
       <use xlink:href="#Helvetica-20" x="422.460938"/>
       <use xlink:href="#Helvetica-54" x="450.244141"/>
      </g>
     </g>
    </g>
   </g>
   <g id="matplotlib.axis_2">
    <g id="ytick_1">
     <g id="line2d_1">
      <defs>
       <path id="m43ceb8dfe5" d="M 0 0 
L -1 0 
" style="stroke: #777777; stroke-width: 0.5"/>
      </defs>
      <g>
       <use xlink:href="#m43ceb8dfe5" x="8.336802" y="66.673159" style="fill: #777777; stroke: #777777; stroke-width: 0.5"/>
      </g>
     </g>
     <g id="text_3">
      <!-- 0 -->
      <g style="fill: #333333" transform="translate(4.668521 67.749174) scale(0.03 -0.03)">
       <defs>
        <path id="Helvetica-30" d="M 1731 4475 
Q 2600 4475 2988 3759 
Q 3288 3206 3288 2244 
Q 3288 1331 3016 734 
Q 2622 -122 1728 -122 
Q 922 -122 528 578 
Q 200 1163 200 2147 
Q 200 2909 397 3456 
Q 766 4475 1731 4475 
z
M 1725 391 
Q 2163 391 2422 778 
Q 2681 1166 2681 2222 
Q 2681 2984 2493 3476 
Q 2306 3969 1766 3969 
Q 1269 3969 1039 3501 
Q 809 3034 809 2125 
Q 809 1441 956 1025 
Q 1181 391 1725 391 
z
" transform="scale(0.015625)"/>
       </defs>
       <use xlink:href="#Helvetica-30"/>
      </g>
     </g>
    </g>
    <g id="ytick_2">
     <g id="line2d_2">
      <g>
       <use xlink:href="#m43ceb8dfe5" x="8.336802" y="58.848546" style="fill: #777777; stroke: #777777; stroke-width: 0.5"/>
      </g>
     </g>
     <g id="text_4">
      <!-- 10 -->
      <g style="fill: #333333" transform="translate(3.00024 59.924562) scale(0.03 -0.03)">
       <defs>
        <path id="Helvetica-31" d="M 613 3169 
L 613 3600 
Q 1222 3659 1462 3798 
Q 1703 3938 1822 4456 
L 2266 4456 
L 2266 0 
L 1666 0 
L 1666 3169 
L 613 3169 
z
" transform="scale(0.015625)"/>
       </defs>
       <use xlink:href="#Helvetica-31"/>
       <use xlink:href="#Helvetica-30" x="55.615234"/>
      </g>
     </g>
    </g>
    <g id="ytick_3">
     <g id="line2d_3">
      <g>
       <use xlink:href="#m43ceb8dfe5" x="8.336802" y="51.023933" style="fill: #777777; stroke: #777777; stroke-width: 0.5"/>
      </g>
     </g>
     <g id="text_5">
      <!-- 20 -->
      <g style="fill: #333333" transform="translate(3.00024 52.099949) scale(0.03 -0.03)">
       <defs>
        <path id="Helvetica-32" d="M 200 0 
Q 231 578 439 1006 
Q 647 1434 1250 1784 
L 1850 2131 
Q 2253 2366 2416 2531 
Q 2672 2791 2672 3125 
Q 2672 3516 2437 3745 
Q 2203 3975 1813 3975 
Q 1234 3975 1013 3538 
Q 894 3303 881 2888 
L 309 2888 
Q 319 3472 525 3841 
Q 891 4491 1816 4491 
Q 2584 4491 2939 4075 
Q 3294 3659 3294 3150 
Q 3294 2613 2916 2231 
Q 2697 2009 2131 1694 
L 1703 1456 
Q 1397 1288 1222 1134 
Q 909 863 828 531 
L 3272 531 
L 3272 0 
L 200 0 
z
" transform="scale(0.015625)"/>
       </defs>
       <use xlink:href="#Helvetica-32"/>
       <use xlink:href="#Helvetica-30" x="55.615234"/>
      </g>
     </g>
    </g>
    <g id="ytick_4">
     <g id="line2d_4">
      <g>
       <use xlink:href="#m43ceb8dfe5" x="8.336802" y="43.19932" style="fill: #777777; stroke: #777777; stroke-width: 0.5"/>
      </g>
     </g>
     <g id="text_6">
      <!-- 30 -->
      <g style="fill: #333333" transform="translate(3.00024 44.275336) scale(0.03 -0.03)">
       <defs>
        <path id="Helvetica-33" d="M 1663 -122 
Q 869 -122 511 314 
Q 153 750 153 1375 
L 741 1375 
Q 778 941 903 744 
Q 1122 391 1694 391 
Q 2138 391 2406 628 
Q 2675 866 2675 1241 
Q 2675 1703 2392 1887 
Q 2109 2072 1606 2072 
Q 1550 2072 1492 2070 
Q 1434 2069 1375 2066 
L 1375 2563 
Q 1463 2553 1522 2550 
Q 1581 2547 1650 2547 
Q 1966 2547 2169 2647 
Q 2525 2822 2525 3272 
Q 2525 3606 2287 3787 
Q 2050 3969 1734 3969 
Q 1172 3969 956 3594 
Q 838 3388 822 3006 
L 266 3006 
Q 266 3506 466 3856 
Q 809 4481 1675 4481 
Q 2359 4481 2734 4176 
Q 3109 3872 3109 3294 
Q 3109 2881 2888 2625 
Q 2750 2466 2531 2375 
Q 2884 2278 3082 2001 
Q 3281 1725 3281 1325 
Q 3281 684 2859 281 
Q 2438 -122 1663 -122 
z
" transform="scale(0.015625)"/>
       </defs>
       <use xlink:href="#Helvetica-33"/>
       <use xlink:href="#Helvetica-30" x="55.615234"/>
      </g>
     </g>
    </g>
    <g id="ytick_5">
     <g id="line2d_5">
      <g>
       <use xlink:href="#m43ceb8dfe5" x="8.336802" y="35.374707" style="fill: #777777; stroke: #777777; stroke-width: 0.5"/>
      </g>
     </g>
     <g id="text_7">
      <!-- 40 -->
      <g style="fill: #333333" transform="translate(3.00024 36.450723) scale(0.03 -0.03)">
       <defs>
        <path id="Helvetica-34" d="M 2116 1584 
L 2116 3613 
L 681 1584 
L 2116 1584 
z
M 2125 0 
L 2125 1094 
L 163 1094 
L 163 1644 
L 2213 4488 
L 2688 4488 
L 2688 1584 
L 3347 1584 
L 3347 1094 
L 2688 1094 
L 2688 0 
L 2125 0 
z
" transform="scale(0.015625)"/>
       </defs>
       <use xlink:href="#Helvetica-34"/>
       <use xlink:href="#Helvetica-30" x="55.615234"/>
      </g>
     </g>
    </g>
    <g id="ytick_6">
     <g id="line2d_6">
      <g>
       <use xlink:href="#m43ceb8dfe5" x="8.336802" y="27.550094" style="fill: #777777; stroke: #777777; stroke-width: 0.5"/>
      </g>
     </g>
     <g id="text_8">
      <!-- 50 -->
      <g style="fill: #333333" transform="translate(3.00024 28.62611) scale(0.03 -0.03)">
       <defs>
        <path id="Helvetica-35" d="M 791 1141 
Q 847 659 1238 475 
Q 1438 381 1700 381 
Q 2200 381 2440 700 
Q 2681 1019 2681 1406 
Q 2681 1875 2395 2131 
Q 2109 2388 1709 2388 
Q 1419 2388 1211 2275 
Q 1003 2163 856 1963 
L 369 1991 
L 709 4400 
L 3034 4400 
L 3034 3856 
L 1131 3856 
L 941 2613 
Q 1097 2731 1238 2791 
Q 1488 2894 1816 2894 
Q 2431 2894 2859 2497 
Q 3288 2100 3288 1491 
Q 3288 856 2895 371 
Q 2503 -113 1644 -113 
Q 1097 -113 676 195 
Q 256 503 206 1141 
L 791 1141 
z
" transform="scale(0.015625)"/>
       </defs>
       <use xlink:href="#Helvetica-35"/>
       <use xlink:href="#Helvetica-30" x="55.615234"/>
      </g>
     </g>
    </g>
    <g id="ytick_7">
     <g id="line2d_7">
      <g>
       <use xlink:href="#m43ceb8dfe5" x="8.336802" y="19.725481" style="fill: #777777; stroke: #777777; stroke-width: 0.5"/>
      </g>
     </g>
     <g id="text_9">
      <!-- 60 -->
      <g style="fill: #333333" transform="translate(3.00024 20.801497) scale(0.03 -0.03)">
       <defs>
        <path id="Helvetica-36" d="M 1872 4494 
Q 2622 4494 2917 4105 
Q 3213 3716 3213 3303 
L 2656 3303 
Q 2606 3569 2497 3719 
Q 2294 4000 1881 4000 
Q 1409 4000 1131 3564 
Q 853 3128 822 2316 
Q 1016 2600 1309 2741 
Q 1578 2866 1909 2866 
Q 2472 2866 2890 2506 
Q 3309 2147 3309 1434 
Q 3309 825 2912 354 
Q 2516 -116 1781 -116 
Q 1153 -116 697 361 
Q 241 838 241 1966 
Q 241 2800 444 3381 
Q 834 4494 1872 4494 
z
M 1831 384 
Q 2275 384 2495 682 
Q 2716 981 2716 1388 
Q 2716 1731 2519 2042 
Q 2322 2353 1803 2353 
Q 1441 2353 1167 2112 
Q 894 1872 894 1388 
Q 894 963 1142 673 
Q 1391 384 1831 384 
z
" transform="scale(0.015625)"/>
       </defs>
       <use xlink:href="#Helvetica-36"/>
       <use xlink:href="#Helvetica-30" x="55.615234"/>
      </g>
     </g>
    </g>
    <g id="ytick_8">
     <g id="line2d_8">
      <g>
       <use xlink:href="#m43ceb8dfe5" x="8.336802" y="11.900869" style="fill: #777777; stroke: #777777; stroke-width: 0.5"/>
      </g>
     </g>
     <g id="text_10">
      <!-- 70 -->
      <g style="fill: #333333" transform="translate(3.00024 12.976884) scale(0.03 -0.03)">
       <use xlink:href="#Helvetica-37"/>
       <use xlink:href="#Helvetica-30" x="55.615234"/>
      </g>
     </g>
    </g>
    <g id="ytick_9">
     <g id="line2d_9">
      <g>
       <use xlink:href="#m43ceb8dfe5" x="8.336802" y="4.076256" style="fill: #777777; stroke: #777777; stroke-width: 0.5"/>
      </g>
     </g>
     <g id="text_11">
      <!-- 80 -->
      <g style="fill: #333333" transform="translate(3.00024 5.152271) scale(0.03 -0.03)">
       <defs>
        <path id="Helvetica-38" d="M 1741 2600 
Q 2113 2600 2322 2808 
Q 2531 3016 2531 3303 
Q 2531 3553 2331 3762 
Q 2131 3972 1722 3972 
Q 1316 3972 1134 3762 
Q 953 3553 953 3272 
Q 953 2956 1187 2778 
Q 1422 2600 1741 2600 
z
M 1775 384 
Q 2166 384 2423 595 
Q 2681 806 2681 1225 
Q 2681 1659 2415 1884 
Q 2150 2109 1734 2109 
Q 1331 2109 1076 1879 
Q 822 1650 822 1244 
Q 822 894 1055 639 
Q 1288 384 1775 384 
z
M 975 2384 
Q 741 2484 609 2619 
Q 363 2869 363 3269 
Q 363 3769 725 4128 
Q 1088 4488 1753 4488 
Q 2397 4488 2762 4148 
Q 3128 3809 3128 3356 
Q 3128 2938 2916 2678 
Q 2797 2531 2547 2391 
Q 2825 2263 2984 2097 
Q 3281 1784 3281 1284 
Q 3281 694 2884 283 
Q 2488 -128 1763 -128 
Q 1109 -128 657 226 
Q 206 581 206 1256 
Q 206 1653 400 1942 
Q 594 2231 975 2384 
z
" transform="scale(0.015625)"/>
       </defs>
       <use xlink:href="#Helvetica-38"/>
       <use xlink:href="#Helvetica-30" x="55.615234"/>
      </g>
     </g>
    </g>
   </g>
   <g id="PolyCollection_1">
    <defs>
     <path id="mbac4287363" d="M 20.529672 -18.893325 
L 18.555412 -18.893325 
L 18.341915 -19.038806 
L 18.097048 -19.184287 
L 17.819552 -19.329768 
L 17.508817 -19.475249 
L 17.164998 -19.62073 
L 16.789106 -19.766211 
L 16.383089 -19.911692 
L 15.94988 -20.057173 
L 15.49342 -20.202654 
L 15.018655 -20.348136 
L 14.531486 -20.493617 
L 14.038706 -20.639098 
L 13.547881 -20.784579 
L 13.067206 -20.93006 
L 12.605327 -21.075541 
L 12.17112 -21.221022 
L 11.773446 -21.366503 
L 11.420879 -21.511984 
L 11.121414 -21.657465 
L 10.882171 -21.802946 
L 10.709107 -21.948427 
L 10.606747 -22.093908 
L 10.57795 -22.239389 
L 10.623738 -22.384871 
L 10.743178 -22.530352 
L 10.933352 -22.675833 
L 11.189404 -22.821314 
L 11.504676 -22.966795 
L 11.870922 -23.112276 
L 12.278598 -23.257757 
L 12.717208 -23.403238 
L 13.175695 -23.548719 
L 13.642861 -23.6942 
L 14.107783 -23.839681 
L 14.560221 -23.985162 
L 14.99099 -24.130643 
L 15.392279 -24.276124 
L 15.757906 -24.421605 
L 16.083495 -24.567087 
L 16.36657 -24.712568 
L 16.606557 -24.858049 
L 16.804697 -25.00353 
L 16.96388 -25.149011 
L 17.088397 -25.294492 
L 17.18364 -25.439973 
L 17.255745 -25.585454 
L 17.311227 -25.730935 
L 17.356596 -25.876416 
L 17.398009 -26.021897 
L 17.440952 -26.167378 
L 17.489987 -26.312859 
L 17.548564 -26.45834 
L 17.618927 -26.603822 
L 17.702087 -26.749303 
L 17.797882 -26.894784 
L 17.905097 -27.040265 
L 18.021643 -27.185746 
L 18.144762 -27.331227 
L 18.271253 -27.476708 
L 18.397689 -27.622189 
L 18.520617 -27.76767 
L 18.63673 -27.913151 
L 18.742995 -28.058632 
L 18.836746 -28.204113 
L 18.915737 -28.349594 
L 18.978164 -28.495075 
L 19.022666 -28.640557 
L 19.048315 -28.786038 
L 19.054599 -28.931519 
L 19.041414 -29.077 
L 19.009062 -29.222481 
L 18.958264 -29.367962 
L 18.890181 -29.513443 
L 18.806436 -29.658924 
L 18.709135 -29.804405 
L 18.600873 -29.949886 
L 18.484718 -30.095367 
L 18.364166 -30.240848 
L 18.243056 -30.386329 
L 18.125451 -30.53181 
L 18.015489 -30.677291 
L 17.917201 -30.822773 
L 17.834323 -30.968254 
L 17.770098 -31.113735 
L 17.727105 -31.259216 
L 17.70711 -31.404697 
L 17.710973 -31.550178 
L 17.738594 -31.695659 
L 17.788935 -31.84114 
L 17.860089 -31.986621 
L 17.949405 -32.132102 
L 18.053658 -32.277583 
L 18.169244 -32.423064 
L 18.292387 -32.568545 
L 18.41934 -32.714026 
L 18.546572 -32.859508 
L 18.670918 -33.004989 
L 18.789696 -33.15047 
L 18.900775 -33.295951 
L 20.184309 -33.295951 
L 20.184309 -33.295951 
L 20.295388 -33.15047 
L 20.414166 -33.004989 
L 20.538512 -32.859508 
L 20.665744 -32.714026 
L 20.792697 -32.568545 
L 20.915839 -32.423064 
L 21.031426 -32.277583 
L 21.135679 -32.132102 
L 21.224995 -31.986621 
L 21.296148 -31.84114 
L 21.346489 -31.695659 
L 21.374111 -31.550178 
L 21.377973 -31.404697 
L 21.357979 -31.259216 
L 21.314986 -31.113735 
L 21.250761 -30.968254 
L 21.167882 -30.822773 
L 21.069595 -30.677291 
L 20.959633 -30.53181 
L 20.842028 -30.386329 
L 20.720918 -30.240848 
L 20.600366 -30.095367 
L 20.484211 -29.949886 
L 20.375949 -29.804405 
L 20.278648 -29.658924 
L 20.194902 -29.513443 
L 20.126819 -29.367962 
L 20.076022 -29.222481 
L 20.04367 -29.077 
L 20.030485 -28.931519 
L 20.036769 -28.786038 
L 20.062418 -28.640557 
L 20.10692 -28.495075 
L 20.169347 -28.349594 
L 20.248337 -28.204113 
L 20.342088 -28.058632 
L 20.448354 -27.913151 
L 20.564467 -27.76767 
L 20.687395 -27.622189 
L 20.813831 -27.476708 
L 20.940322 -27.331227 
L 21.063441 -27.185746 
L 21.179987 -27.040265 
L 21.287202 -26.894784 
L 21.382996 -26.749303 
L 21.466157 -26.603822 
L 21.53652 -26.45834 
L 21.595097 -26.312859 
L 21.644131 -26.167378 
L 21.687075 -26.021897 
L 21.728488 -25.876416 
L 21.773857 -25.730935 
L 21.829338 -25.585454 
L 21.901444 -25.439973 
L 21.996686 -25.294492 
L 22.121204 -25.149011 
L 22.280387 -25.00353 
L 22.478527 -24.858049 
L 22.718513 -24.712568 
L 23.001589 -24.567087 
L 23.327178 -24.421605 
L 23.692805 -24.276124 
L 24.094093 -24.130643 
L 24.524862 -23.985162 
L 24.977301 -23.839681 
L 25.442222 -23.6942 
L 25.909388 -23.548719 
L 26.367876 -23.403238 
L 26.806486 -23.257757 
L 27.214162 -23.112276 
L 27.580408 -22.966795 
L 27.89568 -22.821314 
L 28.151732 -22.675833 
L 28.341906 -22.530352 
L 28.461345 -22.384871 
L 28.507133 -22.239389 
L 28.478337 -22.093908 
L 28.375977 -21.948427 
L 28.202913 -21.802946 
L 27.96367 -21.657465 
L 27.664205 -21.511984 
L 27.311637 -21.366503 
L 26.913964 -21.221022 
L 26.479757 -21.075541 
L 26.017878 -20.93006 
L 25.537203 -20.784579 
L 25.046378 -20.639098 
L 24.553597 -20.493617 
L 24.066429 -20.348136 
L 23.591663 -20.202654 
L 23.135204 -20.057173 
L 22.701995 -19.911692 
L 22.295978 -19.766211 
L 21.920086 -19.62073 
L 21.576267 -19.475249 
L 21.265532 -19.329768 
L 20.988036 -19.184287 
L 20.743169 -19.038806 
L 20.529672 -18.893325 
z
" style="stroke: #525252; stroke-width: 0.15"/>
    </defs>
    <g clip-path="url(#pb3b9b5e498)">
     <use xlink:href="#mbac4287363" x="0" y="84.96" style="fill: #bbba94; stroke: #525252; stroke-width: 0.15"/>
    </g>
   </g>
   <g id="PolyCollection_2">
    <defs>
     <path id="mec685f0965" d="M 42.959466 -20.429555 
L 40.948575 -20.429555 
L 40.719602 -20.524175 
L 40.454291 -20.618794 
L 40.150788 -20.713414 
L 39.808087 -20.808033 
L 39.426242 -20.902653 
L 39.006561 -20.997273 
L 38.551772 -21.091892 
L 38.066145 -21.186512 
L 37.555547 -21.281131 
L 37.02742 -21.375751 
L 36.49067 -21.47037 
L 35.955458 -21.56499 
L 35.432891 -21.65961 
L 34.93462 -21.754229 
L 34.472368 -21.848849 
L 34.057407 -21.943468 
L 33.700011 -22.038088 
L 33.408938 -22.132707 
L 33.190963 -22.227327 
L 33.050513 -22.321946 
L 32.989429 -22.416566 
L 33.00688 -22.511186 
L 33.099437 -22.605805 
L 33.261308 -22.700425 
L 33.484715 -22.795044 
L 33.760376 -22.889664 
L 34.078069 -22.984283 
L 34.427217 -23.078903 
L 34.797462 -23.173523 
L 35.179175 -23.268142 
L 35.563874 -23.362762 
L 35.944528 -23.457381 
L 36.315721 -23.552001 
L 36.673692 -23.64662 
L 37.016251 -23.74124 
L 37.342589 -23.835859 
L 37.653021 -23.930479 
L 37.948672 -24.025099 
L 38.23116 -24.119718 
L 38.502282 -24.214338 
L 38.763749 -24.308957 
L 39.016965 -24.403577 
L 39.262882 -24.498196 
L 39.501924 -24.592816 
L 39.733981 -24.687436 
L 39.958454 -24.782055 
L 40.174362 -24.876675 
L 40.380465 -24.971294 
L 40.575408 -25.065914 
L 40.757862 -25.160533 
L 40.926651 -25.255153 
L 41.080848 -25.349772 
L 41.219844 -25.444392 
L 41.34338 -25.539012 
L 41.451541 -25.633631 
L 41.544727 -25.728251 
L 41.623594 -25.82287 
L 41.688984 -25.91749 
L 41.741839 -26.012109 
L 41.783121 -26.106729 
L 41.813733 -26.201349 
L 41.834451 -26.295968 
L 41.845872 -26.390588 
L 41.848379 -26.485207 
L 41.842127 -26.579827 
L 41.827043 -26.674446 
L 41.802862 -26.769066 
L 41.769167 -26.863686 
L 41.725463 -26.958305 
L 41.671257 -27.052925 
L 41.606159 -27.147544 
L 41.529985 -27.242164 
L 41.442866 -27.336783 
L 41.345342 -27.431403 
L 41.238449 -27.526022 
L 41.123769 -27.620642 
L 41.003453 -27.715262 
L 40.880198 -27.809881 
L 40.757178 -27.904501 
L 40.637934 -27.99912 
L 40.526217 -28.09374 
L 40.425801 -28.188359 
L 40.340277 -28.282979 
L 40.272843 -28.377599 
L 40.226105 -28.472218 
L 40.201912 -28.566838 
L 40.201234 -28.661457 
L 40.224099 -28.756077 
L 40.269591 -28.850696 
L 40.335907 -28.945316 
L 40.420484 -29.039935 
L 40.520155 -29.134555 
L 40.631348 -29.229175 
L 40.750301 -29.323794 
L 40.873265 -29.418414 
L 40.996697 -29.513033 
L 41.117417 -29.607653 
L 41.232731 -29.702272 
L 41.3405 -29.796892 
L 42.567541 -29.796892 
L 42.567541 -29.796892 
L 42.67531 -29.702272 
L 42.790624 -29.607653 
L 42.911345 -29.513033 
L 43.034776 -29.418414 
L 43.15774 -29.323794 
L 43.276693 -29.229175 
L 43.387887 -29.134555 
L 43.487557 -29.039935 
L 43.572134 -28.945316 
L 43.638451 -28.850696 
L 43.683942 -28.756077 
L 43.706807 -28.661457 
L 43.706129 -28.566838 
L 43.681936 -28.472218 
L 43.635198 -28.377599 
L 43.567764 -28.282979 
L 43.48224 -28.188359 
L 43.381824 -28.09374 
L 43.270107 -27.99912 
L 43.150863 -27.904501 
L 43.027844 -27.809881 
L 42.904588 -27.715262 
L 42.784272 -27.620642 
L 42.669592 -27.526022 
L 42.562699 -27.431403 
L 42.465175 -27.336783 
L 42.378056 -27.242164 
L 42.301882 -27.147544 
L 42.236784 -27.052925 
L 42.182578 -26.958305 
L 42.138874 -26.863686 
L 42.10518 -26.769066 
L 42.080998 -26.674446 
L 42.065915 -26.579827 
L 42.059662 -26.485207 
L 42.062169 -26.390588 
L 42.073591 -26.295968 
L 42.094309 -26.201349 
L 42.12492 -26.106729 
L 42.166202 -26.012109 
L 42.219057 -25.91749 
L 42.284447 -25.82287 
L 42.363315 -25.728251 
L 42.456501 -25.633631 
L 42.564662 -25.539012 
L 42.688197 -25.444392 
L 42.827193 -25.349772 
L 42.98139 -25.255153 
L 43.150179 -25.160533 
L 43.332633 -25.065914 
L 43.527576 -24.971294 
L 43.733679 -24.876675 
L 43.949587 -24.782055 
L 44.174061 -24.687436 
L 44.406117 -24.592816 
L 44.645159 -24.498196 
L 44.891076 -24.403577 
L 45.144292 -24.308957 
L 45.405759 -24.214338 
L 45.676882 -24.119718 
L 45.959369 -24.025099 
L 46.25502 -23.930479 
L 46.565452 -23.835859 
L 46.891791 -23.74124 
L 47.234349 -23.64662 
L 47.592321 -23.552001 
L 47.963513 -23.457381 
L 48.344167 -23.362762 
L 48.728866 -23.268142 
L 49.110579 -23.173523 
L 49.480824 -23.078903 
L 49.829972 -22.984283 
L 50.147665 -22.889664 
L 50.423326 -22.795044 
L 50.646733 -22.700425 
L 50.808605 -22.605805 
L 50.901162 -22.511186 
L 50.918612 -22.416566 
L 50.857528 -22.321946 
L 50.717078 -22.227327 
L 50.499103 -22.132707 
L 50.20803 -22.038088 
L 49.850634 -21.943468 
L 49.435673 -21.848849 
L 48.973422 -21.754229 
L 48.47515 -21.65961 
L 47.952583 -21.56499 
L 47.417371 -21.47037 
L 46.880622 -21.375751 
L 46.352494 -21.281131 
L 45.841896 -21.186512 
L 45.356269 -21.091892 
L 44.901481 -20.997273 
L 44.481799 -20.902653 
L 44.099954 -20.808033 
L 43.757254 -20.713414 
L 43.45375 -20.618794 
L 43.188439 -20.524175 
L 42.959466 -20.429555 
z
" style="stroke: #525252; stroke-width: 0.15"/>
    </defs>
    <g clip-path="url(#pb3b9b5e498)">
     <use xlink:href="#mec685f0965" x="0" y="84.96" style="fill: #977c7f; stroke: #525252; stroke-width: 0.15"/>
    </g>
   </g>
   <g id="line2d_10">
    <path d="M 19.542542 64.226325 
L 19.542542 58.605944 
" clip-path="url(#pb3b9b5e498)" style="fill: none; stroke: #8c8c8c; stroke-width: 0.75; stroke-linecap: round"/>
   </g>
   <g id="line2d_11">
    <path d="M 19.542542 62.937208 
L 19.542542 60.75061 
" clip-path="url(#pb3b9b5e498)" style="fill: none; stroke: #8c8c8c; stroke-width: 4; stroke-linecap: round"/>
   </g>
   <g id="line2d_12">
    <path d="M 19.542542 62.417651 
" clip-path="url(#pb3b9b5e498)" style="fill: none; stroke: #525252; stroke-width: 1.2; stroke-linecap: round"/>
    <defs>
     <path id="mfaea4daaf2" d="M 0 0.833333 
C 0.221003 0.833333 0.432983 0.745528 0.589256 0.589256 
C 0.745528 0.432983 0.833333 0.221003 0.833333 0 
C 0.833333 -0.221003 0.745528 -0.432983 0.589256 -0.589256 
C 0.432983 -0.745528 0.221003 -0.833333 0 -0.833333 
C -0.221003 -0.833333 -0.432983 -0.745528 -0.589256 -0.589256 
C -0.745528 -0.432983 -0.833333 -0.221003 -0.833333 0 
C -0.833333 0.221003 -0.745528 0.432983 -0.589256 0.589256 
C -0.432983 0.745528 -0.221003 0.833333 0 0.833333 
z
" style="stroke: #ffffff; stroke-width: 0.8"/>
    </defs>
    <g clip-path="url(#pb3b9b5e498)">
     <use xlink:href="#mfaea4daaf2" x="19.542542" y="62.417651" style="fill: #ffffff; stroke: #ffffff; stroke-width: 0.8"/>
    </g>
   </g>
   <g id="line2d_13">
    <path d="M 41.954021 63.350411 
L 41.954021 60.661603 
" clip-path="url(#pb3b9b5e498)" style="fill: none; stroke: #8c8c8c; stroke-width: 0.75; stroke-linecap: round"/>
   </g>
   <g id="line2d_14">
    <path d="M 41.954021 62.608274 
L 41.954021 61.338577 
" clip-path="url(#pb3b9b5e498)" style="fill: none; stroke: #8c8c8c; stroke-width: 4; stroke-linecap: round"/>
   </g>
   <g id="line2d_15">
    <path d="M 41.954021 62.447004 
" clip-path="url(#pb3b9b5e498)" style="fill: none; stroke: #525252; stroke-width: 1.2; stroke-linecap: round"/>
    <g clip-path="url(#pb3b9b5e498)">
     <use xlink:href="#mfaea4daaf2" x="41.954021" y="62.447004" style="fill: #ffffff; stroke: #ffffff; stroke-width: 0.8"/>
    </g>
   </g>
   <g id="patch_3">
    <path d="M 8.336802 74.419526 
L 8.336802 4.076256 
" style="fill: none; stroke: #777777; stroke-width: 0.5; stroke-linejoin: miter; stroke-linecap: square"/>
   </g>
   <g id="patch_4">
    <path d="M 8.336802 76.919526 
L 53.15976 76.919526 
" style="fill: none; stroke: #777777; stroke-width: 0.5; stroke-linejoin: miter; stroke-linecap: square"/>
   </g>
  </g>
 </g>
 <defs>
  <clipPath id="pb3b9b5e498">
   <rect x="8.336802" y="4.076256" width="44.822958" height="70.34327"/>
  </clipPath>
 </defs>
</svg>
