<?xml version="1.0" encoding="utf-8" standalone="no"?>
<!DOCTYPE svg PUBLIC "-//W3C//DTD SVG 1.1//EN"
  "http://www.w3.org/Graphics/SVG/1.1/DTD/svg11.dtd">
<svg xmlns:xlink="http://www.w3.org/1999/xlink" width="56.16pt" height="84.96pt" viewBox="0 0 56.16 84.96" xmlns="http://www.w3.org/2000/svg" version="1.1">
 <metadata>
  <rdf:RDF xmlns:dc="http://purl.org/dc/elements/1.1/" xmlns:cc="http://creativecommons.org/ns#" xmlns:rdf="http://www.w3.org/1999/02/22-rdf-syntax-ns#">
   <cc:Work>
    <dc:type rdf:resource="http://purl.org/dc/dcmitype/StillImage"/>
    <dc:date>2024-05-27T15:37:12.982850</dc:date>
    <dc:format>image/svg+xml</dc:format>
    <dc:creator>
     <cc:Agent>
      <dc:title>Matplotlib v3.8.3, https://matplotlib.org/</dc:title>
     </cc:Agent>
    </dc:creator>
   </cc:Work>
  </rdf:RDF>
 </metadata>
 <defs>
  <style type="text/css">*{stroke-linejoin: round; stroke-linecap: butt}</style>
 </defs>
 <g id="figure_1">
  <g id="patch_1">
   <path d="M 0 84.96 
L 56.16 84.96 
L 56.16 0 
L 0 0 
z
" style="fill: #ffffff"/>
  </g>
  <g id="axes_1">
   <g id="patch_2">
    <path d="M 10.005084 74.395463 
L 53.15976 74.395463 
L 53.15976 4.076256 
L 10.005084 4.076256 
z
" style="fill: #ffffff"/>
   </g>
   <g id="matplotlib.axis_1">
    <g id="xtick_1">
     <g id="text_1">
      <!-- RORγT+ Cells -->
      <g style="fill: #333333" transform="translate(9.464964 81.230229) scale(0.035 -0.035)">
       <defs>
        <path id="Helvetica-52" d="M 2622 2488 
Q 3059 2488 3314 2663 
Q 3569 2838 3569 3294 
Q 3569 3784 3213 3963 
Q 3022 4056 2703 4056 
L 1184 4056 
L 1184 2488 
L 2622 2488 
z
M 563 4591 
L 2688 4591 
Q 3213 4591 3553 4438 
Q 4200 4144 4200 3353 
Q 4200 2941 4029 2678 
Q 3859 2416 3553 2256 
Q 3822 2147 3958 1969 
Q 4094 1791 4109 1391 
L 4131 775 
Q 4141 513 4175 384 
Q 4231 166 4375 103 
L 4375 0 
L 3613 0 
Q 3581 59 3562 153 
Q 3544 247 3531 516 
L 3494 1281 
Q 3472 1731 3159 1884 
Q 2981 1969 2600 1969 
L 1184 1969 
L 1184 0 
L 563 0 
L 563 4591 
z
" transform="scale(0.015625)"/>
        <path id="Helvetica-4f" d="M 2469 4716 
Q 3684 4716 4269 3934 
Q 4725 3325 4725 2375 
Q 4725 1347 4203 666 
Q 3591 -134 2456 -134 
Q 1397 -134 791 566 
Q 250 1241 250 2272 
Q 250 3203 713 3866 
Q 1306 4716 2469 4716 
z
M 2531 422 
Q 3353 422 3720 1011 
Q 4088 1600 4088 2366 
Q 4088 3175 3664 3669 
Q 3241 4163 2506 4163 
Q 1794 4163 1344 3673 
Q 894 3184 894 2231 
Q 894 1469 1280 945 
Q 1666 422 2531 422 
z
M 2488 4716 
L 2488 4716 
z
" transform="scale(0.015625)"/>
        <path id="Helvetica-3b3" d="M 1556 225 
L 581 2444 
Q 481 2700 416 2803 
Q 347 2894 244 2894 
Q 91 2888 56 2872 
L 56 3334 
Q 166 3384 313 3391 
Q 641 3391 788 3250 
Q 863 3188 922 3078 
Q 978 2963 1038 2809 
L 1844 878 
L 2828 3328 
L 3431 3328 
L 2131 225 
L 2131 -1253 
L 1556 -1253 
L 1556 225 
z
" transform="scale(0.015625)"/>
        <path id="Helvetica-54" d="M 3828 4591 
L 3828 4044 
L 2281 4044 
L 2281 0 
L 1650 0 
L 1650 4044 
L 103 4044 
L 103 4591 
L 3828 4591 
z
" transform="scale(0.015625)"/>
        <path id="Helvetica-2b" d="M 288 1369 
L 288 1894 
L 1650 1894 
L 1650 3266 
L 2184 3266 
L 2184 1894 
L 3547 1894 
L 3547 1369 
L 2184 1369 
L 2184 0 
L 1650 0 
L 1650 1369 
L 288 1369 
z
" transform="scale(0.015625)"/>
        <path id="Helvetica-20" transform="scale(0.015625)"/>
        <path id="Helvetica-43" d="M 2422 4716 
Q 3294 4716 3775 4256 
Q 4256 3797 4309 3213 
L 3703 3213 
Q 3600 3656 3292 3915 
Q 2984 4175 2428 4175 
Q 1750 4175 1333 3698 
Q 916 3222 916 2238 
Q 916 1431 1292 929 
Q 1669 428 2416 428 
Q 3103 428 3463 956 
Q 3653 1234 3747 1688 
L 4353 1688 
Q 4272 963 3816 472 
Q 3269 -119 2341 -119 
Q 1541 -119 997 366 
Q 281 1006 281 2344 
Q 281 3359 819 4009 
Q 1400 4716 2422 4716 
z
M 2297 4716 
L 2297 4716 
z
" transform="scale(0.015625)"/>
        <path id="Helvetica-65" d="M 1806 3422 
Q 2163 3422 2497 3255 
Q 2831 3088 3006 2822 
Q 3175 2569 3231 2231 
Q 3281 2000 3281 1494 
L 828 1494 
Q 844 984 1069 676 
Q 1294 369 1766 369 
Q 2206 369 2469 659 
Q 2619 828 2681 1050 
L 3234 1050 
Q 3213 866 3089 639 
Q 2966 413 2813 269 
Q 2556 19 2178 -69 
Q 1975 -119 1719 -119 
Q 1094 -119 659 336 
Q 225 791 225 1609 
Q 225 2416 662 2919 
Q 1100 3422 1806 3422 
z
M 2703 1941 
Q 2669 2306 2544 2525 
Q 2313 2931 1772 2931 
Q 1384 2931 1121 2651 
Q 859 2372 844 1941 
L 2703 1941 
z
M 1753 3428 
L 1753 3428 
z
" transform="scale(0.015625)"/>
        <path id="Helvetica-6c" d="M 428 4591 
L 991 4591 
L 991 0 
L 428 0 
L 428 4591 
z
" transform="scale(0.015625)"/>
        <path id="Helvetica-73" d="M 747 1050 
Q 772 769 888 619 
Q 1100 347 1625 347 
Q 1938 347 2175 483 
Q 2413 619 2413 903 
Q 2413 1119 2222 1231 
Q 2100 1300 1741 1391 
L 1294 1503 
Q 866 1609 663 1741 
Q 300 1969 300 2372 
Q 300 2847 642 3140 
Q 984 3434 1563 3434 
Q 2319 3434 2653 2991 
Q 2863 2709 2856 2384 
L 2325 2384 
Q 2309 2575 2191 2731 
Q 1997 2953 1519 2953 
Q 1200 2953 1036 2831 
Q 872 2709 872 2509 
Q 872 2291 1088 2159 
Q 1213 2081 1456 2022 
L 1828 1931 
Q 2434 1784 2641 1647 
Q 2969 1431 2969 969 
Q 2969 522 2630 197 
Q 2291 -128 1597 -128 
Q 850 -128 539 211 
Q 228 550 206 1050 
L 747 1050 
z
M 1578 3428 
L 1578 3428 
z
" transform="scale(0.015625)"/>
       </defs>
       <use xlink:href="#Helvetica-52"/>
       <use xlink:href="#Helvetica-4f" x="72.216797"/>
       <use xlink:href="#Helvetica-52" x="150"/>
       <use xlink:href="#Helvetica-3b3" x="222.216797"/>
       <use xlink:href="#Helvetica-54" x="277.832031"/>
       <use xlink:href="#Helvetica-2b" x="338.916016"/>
       <use xlink:href="#Helvetica-20" x="397.314453"/>
       <use xlink:href="#Helvetica-43" x="425.097656"/>
       <use xlink:href="#Helvetica-65" x="497.314453"/>
       <use xlink:href="#Helvetica-6c" x="552.929688"/>
       <use xlink:href="#Helvetica-6c" x="575.146484"/>
       <use xlink:href="#Helvetica-73" x="597.363281"/>
      </g>
     </g>
    </g>
    <g id="xtick_2">
     <g id="text_2">
      <!-- AHR+ Cells -->
      <g style="fill: #333333" transform="translate(33.2782 81.206166) scale(0.035 -0.035)">
       <defs>
        <path id="Helvetica-41" d="M 2844 1881 
L 2147 3909 
L 1406 1881 
L 2844 1881 
z
M 1822 4591 
L 2525 4591 
L 4191 0 
L 3509 0 
L 3044 1375 
L 1228 1375 
L 731 0 
L 94 0 
L 1822 4591 
z
" transform="scale(0.015625)"/>
        <path id="Helvetica-48" d="M 503 4591 
L 1131 4591 
L 1131 2694 
L 3519 2694 
L 3519 4591 
L 4147 4591 
L 4147 0 
L 3519 0 
L 3519 2147 
L 1131 2147 
L 1131 0 
L 503 0 
L 503 4591 
z
" transform="scale(0.015625)"/>
       </defs>
       <use xlink:href="#Helvetica-41"/>
       <use xlink:href="#Helvetica-48" x="66.699219"/>
       <use xlink:href="#Helvetica-52" x="138.916016"/>
       <use xlink:href="#Helvetica-2b" x="211.132812"/>
       <use xlink:href="#Helvetica-20" x="269.53125"/>
       <use xlink:href="#Helvetica-43" x="297.314453"/>
       <use xlink:href="#Helvetica-65" x="369.53125"/>
       <use xlink:href="#Helvetica-6c" x="425.146484"/>
       <use xlink:href="#Helvetica-6c" x="447.363281"/>
       <use xlink:href="#Helvetica-73" x="469.580078"/>
      </g>
     </g>
    </g>
   </g>
   <g id="matplotlib.axis_2">
    <g id="ytick_1">
     <g id="line2d_1">
      <defs>
       <path id="m2bcc549568" d="M 0 0 
L -1 0 
" style="stroke: #777777; stroke-width: 0.5"/>
      </defs>
      <g>
       <use xlink:href="#m2bcc549568" x="10.005084" y="66.168271" style="fill: #777777; stroke: #777777; stroke-width: 0.5"/>
      </g>
     </g>
     <g id="text_3">
      <!-- 0 -->
      <g style="fill: #333333" transform="translate(6.336802 67.244287) scale(0.03 -0.03)">
       <defs>
        <path id="Helvetica-30" d="M 1731 4475 
Q 2600 4475 2988 3759 
Q 3288 3206 3288 2244 
Q 3288 1331 3016 734 
Q 2622 -122 1728 -122 
Q 922 -122 528 578 
Q 200 1163 200 2147 
Q 200 2909 397 3456 
Q 766 4475 1731 4475 
z
M 1725 391 
Q 2163 391 2422 778 
Q 2681 1166 2681 2222 
Q 2681 2984 2493 3476 
Q 2306 3969 1766 3969 
Q 1269 3969 1039 3501 
Q 809 3034 809 2125 
Q 809 1441 956 1025 
Q 1181 391 1725 391 
z
" transform="scale(0.015625)"/>
       </defs>
       <use xlink:href="#Helvetica-30"/>
      </g>
     </g>
    </g>
    <g id="ytick_2">
     <g id="line2d_2">
      <g>
       <use xlink:href="#m2bcc549568" x="10.005084" y="55.819602" style="fill: #777777; stroke: #777777; stroke-width: 0.5"/>
      </g>
     </g>
     <g id="text_4">
      <!-- 20 -->
      <g style="fill: #333333" transform="translate(4.668521 56.895617) scale(0.03 -0.03)">
       <defs>
        <path id="Helvetica-32" d="M 200 0 
Q 231 578 439 1006 
Q 647 1434 1250 1784 
L 1850 2131 
Q 2253 2366 2416 2531 
Q 2672 2791 2672 3125 
Q 2672 3516 2437 3745 
Q 2203 3975 1813 3975 
Q 1234 3975 1013 3538 
Q 894 3303 881 2888 
L 309 2888 
Q 319 3472 525 3841 
Q 891 4491 1816 4491 
Q 2584 4491 2939 4075 
Q 3294 3659 3294 3150 
Q 3294 2613 2916 2231 
Q 2697 2009 2131 1694 
L 1703 1456 
Q 1397 1288 1222 1134 
Q 909 863 828 531 
L 3272 531 
L 3272 0 
L 200 0 
z
" transform="scale(0.015625)"/>
       </defs>
       <use xlink:href="#Helvetica-32"/>
       <use xlink:href="#Helvetica-30" x="55.615234"/>
      </g>
     </g>
    </g>
    <g id="ytick_3">
     <g id="line2d_3">
      <g>
       <use xlink:href="#m2bcc549568" x="10.005084" y="45.470933" style="fill: #777777; stroke: #777777; stroke-width: 0.5"/>
      </g>
     </g>
     <g id="text_5">
      <!-- 40 -->
      <g style="fill: #333333" transform="translate(4.668521 46.546948) scale(0.03 -0.03)">
       <defs>
        <path id="Helvetica-34" d="M 2116 1584 
L 2116 3613 
L 681 1584 
L 2116 1584 
z
M 2125 0 
L 2125 1094 
L 163 1094 
L 163 1644 
L 2213 4488 
L 2688 4488 
L 2688 1584 
L 3347 1584 
L 3347 1094 
L 2688 1094 
L 2688 0 
L 2125 0 
z
" transform="scale(0.015625)"/>
       </defs>
       <use xlink:href="#Helvetica-34"/>
       <use xlink:href="#Helvetica-30" x="55.615234"/>
      </g>
     </g>
    </g>
    <g id="ytick_4">
     <g id="line2d_4">
      <g>
       <use xlink:href="#m2bcc549568" x="10.005084" y="35.122263" style="fill: #777777; stroke: #777777; stroke-width: 0.5"/>
      </g>
     </g>
     <g id="text_6">
      <!-- 60 -->
      <g style="fill: #333333" transform="translate(4.668521 36.198279) scale(0.03 -0.03)">
       <defs>
        <path id="Helvetica-36" d="M 1872 4494 
Q 2622 4494 2917 4105 
Q 3213 3716 3213 3303 
L 2656 3303 
Q 2606 3569 2497 3719 
Q 2294 4000 1881 4000 
Q 1409 4000 1131 3564 
Q 853 3128 822 2316 
Q 1016 2600 1309 2741 
Q 1578 2866 1909 2866 
Q 2472 2866 2890 2506 
Q 3309 2147 3309 1434 
Q 3309 825 2912 354 
Q 2516 -116 1781 -116 
Q 1153 -116 697 361 
Q 241 838 241 1966 
Q 241 2800 444 3381 
Q 834 4494 1872 4494 
z
M 1831 384 
Q 2275 384 2495 682 
Q 2716 981 2716 1388 
Q 2716 1731 2519 2042 
Q 2322 2353 1803 2353 
Q 1441 2353 1167 2112 
Q 894 1872 894 1388 
Q 894 963 1142 673 
Q 1391 384 1831 384 
z
" transform="scale(0.015625)"/>
       </defs>
       <use xlink:href="#Helvetica-36"/>
       <use xlink:href="#Helvetica-30" x="55.615234"/>
      </g>
     </g>
    </g>
    <g id="ytick_5">
     <g id="line2d_5">
      <g>
       <use xlink:href="#m2bcc549568" x="10.005084" y="24.773594" style="fill: #777777; stroke: #777777; stroke-width: 0.5"/>
      </g>
     </g>
     <g id="text_7">
      <!-- 80 -->
      <g style="fill: #333333" transform="translate(4.668521 25.84961) scale(0.03 -0.03)">
       <defs>
        <path id="Helvetica-38" d="M 1741 2600 
Q 2113 2600 2322 2808 
Q 2531 3016 2531 3303 
Q 2531 3553 2331 3762 
Q 2131 3972 1722 3972 
Q 1316 3972 1134 3762 
Q 953 3553 953 3272 
Q 953 2956 1187 2778 
Q 1422 2600 1741 2600 
z
M 1775 384 
Q 2166 384 2423 595 
Q 2681 806 2681 1225 
Q 2681 1659 2415 1884 
Q 2150 2109 1734 2109 
Q 1331 2109 1076 1879 
Q 822 1650 822 1244 
Q 822 894 1055 639 
Q 1288 384 1775 384 
z
M 975 2384 
Q 741 2484 609 2619 
Q 363 2869 363 3269 
Q 363 3769 725 4128 
Q 1088 4488 1753 4488 
Q 2397 4488 2762 4148 
Q 3128 3809 3128 3356 
Q 3128 2938 2916 2678 
Q 2797 2531 2547 2391 
Q 2825 2263 2984 2097 
Q 3281 1784 3281 1284 
Q 3281 694 2884 283 
Q 2488 -128 1763 -128 
Q 1109 -128 657 226 
Q 206 581 206 1256 
Q 206 1653 400 1942 
Q 594 2231 975 2384 
z
" transform="scale(0.015625)"/>
       </defs>
       <use xlink:href="#Helvetica-38"/>
       <use xlink:href="#Helvetica-30" x="55.615234"/>
      </g>
     </g>
    </g>
    <g id="ytick_6">
     <g id="line2d_6">
      <g>
       <use xlink:href="#m2bcc549568" x="10.005084" y="14.424925" style="fill: #777777; stroke: #777777; stroke-width: 0.5"/>
      </g>
     </g>
     <g id="text_8">
      <!-- 100 -->
      <g style="fill: #333333" transform="translate(3.00024 15.50094) scale(0.03 -0.03)">
       <defs>
        <path id="Helvetica-31" d="M 613 3169 
L 613 3600 
Q 1222 3659 1462 3798 
Q 1703 3938 1822 4456 
L 2266 4456 
L 2266 0 
L 1666 0 
L 1666 3169 
L 613 3169 
z
" transform="scale(0.015625)"/>
       </defs>
       <use xlink:href="#Helvetica-31"/>
       <use xlink:href="#Helvetica-30" x="55.615234"/>
       <use xlink:href="#Helvetica-30" x="111.230469"/>
      </g>
     </g>
    </g>
    <g id="ytick_7">
     <g id="line2d_7">
      <g>
       <use xlink:href="#m2bcc549568" x="10.005084" y="4.076256" style="fill: #777777; stroke: #777777; stroke-width: 0.5"/>
      </g>
     </g>
     <g id="text_9">
      <!-- 120 -->
      <g style="fill: #333333" transform="translate(3.00024 5.152271) scale(0.03 -0.03)">
       <use xlink:href="#Helvetica-31"/>
       <use xlink:href="#Helvetica-32" x="55.615234"/>
       <use xlink:href="#Helvetica-30" x="111.230469"/>
      </g>
     </g>
    </g>
   </g>
   <g id="PolyCollection_1">
    <defs>
     <path id="m9157a1cfd2" d="M 21.90389 -18.794562 
L 19.683616 -18.794562 
L 19.480349 -18.840396 
L 19.256989 -18.886231 
L 19.015168 -18.932065 
L 18.757283 -18.977899 
L 18.486478 -19.023733 
L 18.206573 -19.069568 
L 17.921969 -19.115402 
L 17.637507 -19.161236 
L 17.358305 -19.20707 
L 17.089578 -19.252905 
L 16.836452 -19.298739 
L 16.603778 -19.344573 
L 16.395963 -19.390407 
L 16.216807 -19.436242 
L 16.069373 -19.482076 
L 15.955864 -19.52791 
L 15.877536 -19.573744 
L 15.834613 -19.619579 
L 15.826236 -19.665413 
L 15.850418 -19.711247 
L 15.904032 -19.757081 
L 15.982825 -19.802916 
L 16.081461 -19.84875 
L 16.193617 -19.894584 
L 16.31213 -19.940418 
L 16.429196 -19.986253 
L 16.53663 -20.032087 
L 16.626187 -20.077921 
L 16.689918 -20.123755 
L 16.720554 -20.16959 
L 16.711897 -20.215424 
L 16.659182 -20.261258 
L 16.559392 -20.307092 
L 16.411484 -20.352926 
L 16.21652 -20.398761 
L 15.977668 -20.444595 
L 15.700085 -20.490429 
L 15.390662 -20.536263 
L 15.057669 -20.582098 
L 14.710313 -20.627932 
L 14.358241 -20.673766 
L 14.01103 -20.7196 
L 13.677707 -20.765435 
L 13.366329 -20.811269 
L 13.08366 -20.857103 
L 12.834964 -20.902937 
L 12.623914 -20.948772 
L 12.452634 -20.994606 
L 12.321829 -21.04044 
L 12.230999 -21.086274 
L 12.178702 -21.132109 
L 12.162818 -21.177943 
L 12.180796 -21.223777 
L 12.229865 -21.269611 
L 12.307166 -21.315446 
L 12.409831 -21.36128 
L 12.535001 -21.407114 
L 12.679787 -21.452948 
L 12.841217 -21.498783 
L 13.016174 -21.544617 
L 13.201355 -21.590451 
L 13.393265 -21.636285 
L 13.58826 -21.68212 
L 13.782639 -21.727954 
L 13.972775 -21.773788 
L 14.155279 -21.819622 
L 14.327181 -21.865457 
L 14.486091 -21.911291 
L 14.630346 -21.957125 
L 14.759112 -22.002959 
L 14.872438 -22.048794 
L 14.971251 -22.094628 
L 15.057304 -22.140462 
L 15.133082 -22.186296 
L 15.201662 -22.232131 
L 15.266561 -22.277965 
L 15.331562 -22.323799 
L 15.400544 -22.369633 
L 15.477311 -22.415468 
L 15.565429 -22.461302 
L 15.66808 -22.507136 
L 15.787931 -22.55297 
L 15.927015 -22.598804 
L 16.086637 -22.644639 
L 16.267309 -22.690473 
L 16.468705 -22.736307 
L 16.689658 -22.782141 
L 16.928194 -22.827976 
L 17.1816 -22.87381 
L 17.446539 -22.919644 
L 17.719194 -22.965478 
L 17.995436 -23.011313 
L 18.271022 -23.057147 
L 18.541777 -23.102981 
L 18.803784 -23.148815 
L 19.053544 -23.19465 
L 19.288106 -23.240484 
L 19.50516 -23.286318 
L 19.703082 -23.332152 
L 21.884424 -23.332152 
L 21.884424 -23.332152 
L 22.082346 -23.286318 
L 22.299399 -23.240484 
L 22.533962 -23.19465 
L 22.783722 -23.148815 
L 23.045729 -23.102981 
L 23.316484 -23.057147 
L 23.592069 -23.011313 
L 23.868312 -22.965478 
L 24.140966 -22.919644 
L 24.405905 -22.87381 
L 24.659312 -22.827976 
L 24.897847 -22.782141 
L 25.118801 -22.736307 
L 25.320196 -22.690473 
L 25.500868 -22.644639 
L 25.660491 -22.598804 
L 25.799574 -22.55297 
L 25.919425 -22.507136 
L 26.022077 -22.461302 
L 26.110195 -22.415468 
L 26.186961 -22.369633 
L 26.255943 -22.323799 
L 26.320945 -22.277965 
L 26.385843 -22.232131 
L 26.454423 -22.186296 
L 26.530201 -22.140462 
L 26.616255 -22.094628 
L 26.715068 -22.048794 
L 26.828393 -22.002959 
L 26.95716 -21.957125 
L 27.101415 -21.911291 
L 27.260325 -21.865457 
L 27.432226 -21.819622 
L 27.614731 -21.773788 
L 27.804867 -21.727954 
L 27.999245 -21.68212 
L 28.194241 -21.636285 
L 28.386151 -21.590451 
L 28.571332 -21.544617 
L 28.746289 -21.498783 
L 28.907719 -21.452948 
L 29.052505 -21.407114 
L 29.177674 -21.36128 
L 29.28034 -21.315446 
L 29.357641 -21.269611 
L 29.406709 -21.223777 
L 29.424688 -21.177943 
L 29.408803 -21.132109 
L 29.356506 -21.086274 
L 29.265677 -21.04044 
L 29.134871 -20.994606 
L 28.963591 -20.948772 
L 28.752542 -20.902937 
L 28.503845 -20.857103 
L 28.221177 -20.811269 
L 27.909799 -20.765435 
L 27.576476 -20.7196 
L 27.229265 -20.673766 
L 26.877193 -20.627932 
L 26.529837 -20.582098 
L 26.196844 -20.536263 
L 25.88742 -20.490429 
L 25.609837 -20.444595 
L 25.370986 -20.398761 
L 25.176022 -20.352926 
L 25.028114 -20.307092 
L 24.928324 -20.261258 
L 24.875609 -20.215424 
L 24.866952 -20.16959 
L 24.897588 -20.123755 
L 24.961318 -20.077921 
L 25.050876 -20.032087 
L 25.15831 -19.986253 
L 25.275375 -19.940418 
L 25.393888 -19.894584 
L 25.506045 -19.84875 
L 25.604681 -19.802916 
L 25.683473 -19.757081 
L 25.737088 -19.711247 
L 25.76127 -19.665413 
L 25.752892 -19.619579 
L 25.70997 -19.573744 
L 25.631641 -19.52791 
L 25.518133 -19.482076 
L 25.370698 -19.436242 
L 25.191542 -19.390407 
L 24.983727 -19.344573 
L 24.751054 -19.298739 
L 24.497928 -19.252905 
L 24.229201 -19.20707 
L 23.949999 -19.161236 
L 23.665537 -19.115402 
L 23.380933 -19.069568 
L 23.101028 -19.023733 
L 22.830222 -18.977899 
L 22.572338 -18.932065 
L 22.330517 -18.886231 
L 22.107157 -18.840396 
L 21.90389 -18.794562 
z
" style="stroke: #6f6f6f; stroke-width: 0.15"/>
    </defs>
    <g clip-path="url(#p08d05fe19f)">
     <use xlink:href="#m9157a1cfd2" x="0" y="84.96" style="fill: #cfcfcf; stroke: #6f6f6f; stroke-width: 0.15"/>
    </g>
   </g>
   <g id="PolyCollection_2">
    <defs>
     <path id="ma4234a1019" d="M 43.083739 -27.948125 
L 41.658443 -27.948125 
L 41.538975 -28.370876 
L 41.411387 -28.793627 
L 41.277791 -29.216378 
L 41.140841 -29.639129 
L 41.003658 -30.061879 
L 40.86973 -30.48463 
L 40.742762 -30.907381 
L 40.626499 -31.330132 
L 40.524531 -31.752883 
L 40.440087 -32.175634 
L 40.375833 -32.598385 
L 40.333694 -33.021136 
L 40.314712 -33.443887 
L 40.318944 -33.866637 
L 40.345421 -34.289388 
L 40.392164 -34.712139 
L 40.456254 -35.13489 
L 40.533959 -35.557641 
L 40.620905 -35.980392 
L 40.712277 -36.403143 
L 40.803043 -36.825894 
L 40.888181 -37.248645 
L 40.962904 -37.671395 
L 41.022862 -38.094146 
L 41.064322 -38.516897 
L 41.084307 -38.939648 
L 41.080706 -39.362399 
L 41.052334 -39.78515 
L 40.998956 -40.207901 
L 40.921274 -40.630652 
L 40.820866 -41.053403 
L 40.700111 -41.476154 
L 40.562063 -41.898904 
L 40.410324 -42.321655 
L 40.248888 -42.744406 
L 40.081983 -43.167157 
L 39.913909 -43.589908 
L 39.748882 -44.012659 
L 39.590891 -44.43541 
L 39.443572 -44.858161 
L 39.310094 -45.280912 
L 39.193071 -45.703662 
L 39.094491 -46.126413 
L 39.015653 -46.549164 
L 38.957128 -46.971915 
L 38.918721 -47.394666 
L 38.899437 -47.817417 
L 38.897465 -48.240168 
L 38.910166 -48.662919 
L 38.934072 -49.08567 
L 38.964919 -49.508421 
L 38.997706 -49.931171 
L 39.026791 -50.353922 
L 39.046046 -50.776673 
L 39.049054 -51.199424 
L 39.029362 -51.622175 
L 38.980777 -52.044926 
L 38.8977 -52.467677 
L 38.775463 -52.890428 
L 38.610672 -53.313179 
L 38.401504 -53.735929 
L 38.147957 -54.15868 
L 37.852002 -54.581431 
L 37.517654 -55.004182 
L 37.15091 -55.426933 
L 36.759583 -55.849684 
L 36.35302 -56.272435 
L 35.941729 -56.695186 
L 35.536925 -57.117937 
L 35.150049 -57.540687 
L 34.792261 -57.963438 
L 34.473967 -58.386189 
L 34.204397 -58.80894 
L 33.991259 -59.231691 
L 33.840487 -59.654442 
L 33.756101 -60.077193 
L 33.740156 -60.499944 
L 33.792793 -60.922695 
L 33.91237 -61.345446 
L 34.095647 -61.768196 
L 34.338015 -62.190947 
L 34.633747 -62.613698 
L 34.976252 -63.036449 
L 35.358321 -63.4592 
L 35.772361 -63.881951 
L 36.210605 -64.304702 
L 36.665303 -64.727453 
L 37.128894 -65.150204 
L 37.594162 -65.572954 
L 38.054368 -65.995705 
L 38.503378 -66.418456 
L 38.935762 -66.841207 
L 39.34688 -67.263958 
L 39.732945 -67.686709 
L 40.091058 -68.10946 
L 40.419213 -68.532211 
L 40.71628 -68.954962 
L 40.98195 -69.377713 
L 41.21666 -69.800463 
L 43.525522 -69.800463 
L 43.525522 -69.800463 
L 43.760232 -69.377713 
L 44.025902 -68.954962 
L 44.322969 -68.532211 
L 44.651124 -68.10946 
L 45.009237 -67.686709 
L 45.395302 -67.263958 
L 45.80642 -66.841207 
L 46.238804 -66.418456 
L 46.687814 -65.995705 
L 47.14802 -65.572954 
L 47.613287 -65.150204 
L 48.076879 -64.727453 
L 48.531577 -64.304702 
L 48.96982 -63.881951 
L 49.383861 -63.4592 
L 49.76593 -63.036449 
L 50.108435 -62.613698 
L 50.404167 -62.190947 
L 50.646535 -61.768196 
L 50.829811 -61.345446 
L 50.949389 -60.922695 
L 51.002026 -60.499944 
L 50.986081 -60.077193 
L 50.901695 -59.654442 
L 50.750923 -59.231691 
L 50.537784 -58.80894 
L 50.268214 -58.386189 
L 49.949921 -57.963438 
L 49.592133 -57.540687 
L 49.205257 -57.117937 
L 48.800453 -56.695186 
L 48.389161 -56.272435 
L 47.982599 -55.849684 
L 47.591272 -55.426933 
L 47.224528 -55.004182 
L 46.89018 -54.581431 
L 46.594225 -54.15868 
L 46.340677 -53.735929 
L 46.13151 -53.313179 
L 45.966719 -52.890428 
L 45.844482 -52.467677 
L 45.761405 -52.044926 
L 45.71282 -51.622175 
L 45.693128 -51.199424 
L 45.696136 -50.776673 
L 45.715391 -50.353922 
L 45.744476 -49.931171 
L 45.777263 -49.508421 
L 45.80811 -49.08567 
L 45.832016 -48.662919 
L 45.844717 -48.240168 
L 45.842745 -47.817417 
L 45.823461 -47.394666 
L 45.785053 -46.971915 
L 45.726529 -46.549164 
L 45.647691 -46.126413 
L 45.54911 -45.703662 
L 45.432088 -45.280912 
L 45.29861 -44.858161 
L 45.151291 -44.43541 
L 44.9933 -44.012659 
L 44.828273 -43.589908 
L 44.660198 -43.167157 
L 44.493293 -42.744406 
L 44.331858 -42.321655 
L 44.180119 -41.898904 
L 44.042071 -41.476154 
L 43.921315 -41.053403 
L 43.820908 -40.630652 
L 43.743226 -40.207901 
L 43.689848 -39.78515 
L 43.661476 -39.362399 
L 43.657875 -38.939648 
L 43.67786 -38.516897 
L 43.71932 -38.094146 
L 43.779278 -37.671395 
L 43.854001 -37.248645 
L 43.939139 -36.825894 
L 44.029905 -36.403143 
L 44.121277 -35.980392 
L 44.208223 -35.557641 
L 44.285928 -35.13489 
L 44.350018 -34.712139 
L 44.396761 -34.289388 
L 44.423238 -33.866637 
L 44.42747 -33.443887 
L 44.408487 -33.021136 
L 44.366349 -32.598385 
L 44.302095 -32.175634 
L 44.217651 -31.752883 
L 44.115683 -31.330132 
L 43.99942 -30.907381 
L 43.872451 -30.48463 
L 43.738524 -30.061879 
L 43.601341 -29.639129 
L 43.464391 -29.216378 
L 43.330795 -28.793627 
L 43.203207 -28.370876 
L 43.083739 -27.948125 
z
" style="stroke: #6f6f6f; stroke-width: 0.15"/>
    </defs>
    <g clip-path="url(#p08d05fe19f)">
     <use xlink:href="#ma4234a1019" x="0" y="84.96" style="fill: #f3f3ae; stroke: #6f6f6f; stroke-width: 0.15"/>
    </g>
   </g>
   <g id="line2d_8">
    <path d="M 20.793753 65.572727 
L 20.793753 62.220558 
" clip-path="url(#p08d05fe19f)" style="fill: none; stroke: #8c8c8c; stroke-width: 0.75; stroke-linecap: round"/>
   </g>
   <g id="line2d_9">
    <path d="M 20.793753 64.381408 
L 20.793753 63.178633 
" clip-path="url(#p08d05fe19f)" style="fill: none; stroke: #8c8c8c; stroke-width: 4; stroke-linecap: round"/>
   </g>
   <g id="line2d_10">
    <path d="M 20.793753 63.8115 
" clip-path="url(#p08d05fe19f)" style="fill: none; stroke: #6f6f6f; stroke-width: 1.2; stroke-linecap: round"/>
    <defs>
     <path id="m5fb81afc09" d="M 0 0.833333 
C 0.221003 0.833333 0.432983 0.745528 0.589256 0.589256 
C 0.745528 0.432983 0.833333 0.221003 0.833333 0 
C 0.833333 -0.221003 0.745528 -0.432983 0.589256 -0.589256 
C 0.432983 -0.745528 0.221003 -0.833333 0 -0.833333 
C -0.221003 -0.833333 -0.432983 -0.745528 -0.589256 -0.589256 
C -0.745528 -0.432983 -0.833333 -0.221003 -0.833333 0 
C -0.833333 0.221003 -0.745528 0.432983 -0.589256 0.589256 
C -0.432983 0.745528 -0.221003 0.833333 0 0.833333 
z
" style="stroke: #ffffff; stroke-width: 0.8"/>
    </defs>
    <g clip-path="url(#p08d05fe19f)">
     <use xlink:href="#m5fb81afc09" x="20.793753" y="63.8115" style="fill: #ffffff; stroke: #ffffff; stroke-width: 0.8"/>
    </g>
   </g>
   <g id="line2d_11">
    <path d="M 42.371091 51.49514 
L 42.371091 20.676272 
" clip-path="url(#p08d05fe19f)" style="fill: none; stroke: #8c8c8c; stroke-width: 0.75; stroke-linecap: round"/>
   </g>
   <g id="line2d_12">
    <path d="M 42.371091 36.284817 
L 42.371091 24.787066 
" clip-path="url(#p08d05fe19f)" style="fill: none; stroke: #8c8c8c; stroke-width: 4; stroke-linecap: round"/>
   </g>
   <g id="line2d_13">
    <path d="M 42.371091 26.236832 
" clip-path="url(#p08d05fe19f)" style="fill: none; stroke: #6f6f6f; stroke-width: 1.2; stroke-linecap: round"/>
    <g clip-path="url(#p08d05fe19f)">
     <use xlink:href="#m5fb81afc09" x="42.371091" y="26.236832" style="fill: #ffffff; stroke: #ffffff; stroke-width: 0.8"/>
    </g>
   </g>
   <g id="patch_3">
    <path d="M 10.005084 74.395463 
L 10.005084 4.076256 
" style="fill: none; stroke: #777777; stroke-width: 0.5; stroke-linejoin: miter; stroke-linecap: square"/>
   </g>
   <g id="patch_4">
    <path d="M 10.005084 76.895463 
L 53.15976 76.895463 
" style="fill: none; stroke: #777777; stroke-width: 0.5; stroke-linejoin: miter; stroke-linecap: square"/>
   </g>
  </g>
 </g>
 <defs>
  <clipPath id="p08d05fe19f">
   <rect x="10.005084" y="4.076256" width="43.154676" height="70.319207"/>
  </clipPath>
 </defs>
</svg>
