<?xml version="1.0" encoding="utf-8" standalone="no"?>
<!DOCTYPE svg PUBLIC "-//W3C//DTD SVG 1.1//EN"
  "http://www.w3.org/Graphics/SVG/1.1/DTD/svg11.dtd">
<svg xmlns:xlink="http://www.w3.org/1999/xlink" width="56.16pt" height="84.96pt" viewBox="0 0 56.16 84.96" xmlns="http://www.w3.org/2000/svg" version="1.1">
 <metadata>
  <rdf:RDF xmlns:dc="http://purl.org/dc/elements/1.1/" xmlns:cc="http://creativecommons.org/ns#" xmlns:rdf="http://www.w3.org/1999/02/22-rdf-syntax-ns#">
   <cc:Work>
    <dc:type rdf:resource="http://purl.org/dc/dcmitype/StillImage"/>
    <dc:date>2024-05-27T15:37:04.758146</dc:date>
    <dc:format>image/svg+xml</dc:format>
    <dc:creator>
     <cc:Agent>
      <dc:title>Matplotlib v3.8.3, https://matplotlib.org/</dc:title>
     </cc:Agent>
    </dc:creator>
   </cc:Work>
  </rdf:RDF>
 </metadata>
 <defs>
  <style type="text/css">*{stroke-linejoin: round; stroke-linecap: butt}</style>
 </defs>
 <g id="figure_1">
  <g id="patch_1">
   <path d="M 0 84.96 
L 56.16 84.96 
L 56.16 0 
L 0 0 
z
" style="fill: #ffffff"/>
  </g>
  <g id="axes_1">
   <g id="patch_2">
    <path d="M 8.336802 74.419526 
L 53.15976 74.419526 
L 53.15976 4.076256 
L 8.336802 4.076256 
z
" style="fill: #ffffff"/>
   </g>
   <g id="matplotlib.axis_1">
    <g id="xtick_1">
     <g id="text_1">
      <!-- ILC3 -->
      <g style="fill: #333333" transform="translate(15.846214 81.230229) scale(0.035 -0.035)">
       <defs>
        <path id="Helvetica-49" d="M 628 4591 
L 1256 4591 
L 1256 0 
L 628 0 
L 628 4591 
z
" transform="scale(0.015625)"/>
        <path id="Helvetica-4c" d="M 488 4591 
L 1109 4591 
L 1109 547 
L 3434 547 
L 3434 0 
L 488 0 
L 488 4591 
z
" transform="scale(0.015625)"/>
        <path id="Helvetica-43" d="M 2422 4716 
Q 3294 4716 3775 4256 
Q 4256 3797 4309 3213 
L 3703 3213 
Q 3600 3656 3292 3915 
Q 2984 4175 2428 4175 
Q 1750 4175 1333 3698 
Q 916 3222 916 2238 
Q 916 1431 1292 929 
Q 1669 428 2416 428 
Q 3103 428 3463 956 
Q 3653 1234 3747 1688 
L 4353 1688 
Q 4272 963 3816 472 
Q 3269 -119 2341 -119 
Q 1541 -119 997 366 
Q 281 1006 281 2344 
Q 281 3359 819 4009 
Q 1400 4716 2422 4716 
z
M 2297 4716 
L 2297 4716 
z
" transform="scale(0.015625)"/>
        <path id="Helvetica-33" d="M 1663 -122 
Q 869 -122 511 314 
Q 153 750 153 1375 
L 741 1375 
Q 778 941 903 744 
Q 1122 391 1694 391 
Q 2138 391 2406 628 
Q 2675 866 2675 1241 
Q 2675 1703 2392 1887 
Q 2109 2072 1606 2072 
Q 1550 2072 1492 2070 
Q 1434 2069 1375 2066 
L 1375 2563 
Q 1463 2553 1522 2550 
Q 1581 2547 1650 2547 
Q 1966 2547 2169 2647 
Q 2525 2822 2525 3272 
Q 2525 3606 2287 3787 
Q 2050 3969 1734 3969 
Q 1172 3969 956 3594 
Q 838 3388 822 3006 
L 266 3006 
Q 266 3506 466 3856 
Q 809 4481 1675 4481 
Q 2359 4481 2734 4176 
Q 3109 3872 3109 3294 
Q 3109 2881 2888 2625 
Q 2750 2466 2531 2375 
Q 2884 2278 3082 2001 
Q 3281 1725 3281 1325 
Q 3281 684 2859 281 
Q 2438 -122 1663 -122 
z
" transform="scale(0.015625)"/>
       </defs>
       <use xlink:href="#Helvetica-49"/>
       <use xlink:href="#Helvetica-4c" x="27.783203"/>
       <use xlink:href="#Helvetica-43" x="83.398438"/>
       <use xlink:href="#Helvetica-33" x="155.615234"/>
      </g>
     </g>
    </g>
    <g id="xtick_2">
     <g id="text_2">
      <!-- TH17 -->
      <g style="fill: #333333" transform="translate(37.674997 81.230229) scale(0.035 -0.035)">
       <defs>
        <path id="Helvetica-54" d="M 3828 4591 
L 3828 4044 
L 2281 4044 
L 2281 0 
L 1650 0 
L 1650 4044 
L 103 4044 
L 103 4591 
L 3828 4591 
z
" transform="scale(0.015625)"/>
        <path id="Helvetica-48" d="M 503 4591 
L 1131 4591 
L 1131 2694 
L 3519 2694 
L 3519 4591 
L 4147 4591 
L 4147 0 
L 3519 0 
L 3519 2147 
L 1131 2147 
L 1131 0 
L 503 0 
L 503 4591 
z
" transform="scale(0.015625)"/>
        <path id="Helvetica-31" d="M 613 3169 
L 613 3600 
Q 1222 3659 1462 3798 
Q 1703 3938 1822 4456 
L 2266 4456 
L 2266 0 
L 1666 0 
L 1666 3169 
L 613 3169 
z
" transform="scale(0.015625)"/>
        <path id="Helvetica-37" d="M 3347 4400 
L 3347 3909 
Q 3131 3700 2773 3181 
Q 2416 2663 2141 2063 
Q 1869 1478 1728 997 
Q 1638 688 1494 0 
L 872 0 
Q 1084 1281 1809 2550 
Q 2238 3294 2709 3834 
L 234 3834 
L 234 4400 
L 3347 4400 
z
" transform="scale(0.015625)"/>
       </defs>
       <use xlink:href="#Helvetica-54"/>
       <use xlink:href="#Helvetica-48" x="61.083984"/>
       <use xlink:href="#Helvetica-31" x="133.300781"/>
       <use xlink:href="#Helvetica-37" x="188.916016"/>
      </g>
     </g>
    </g>
   </g>
   <g id="matplotlib.axis_2">
    <g id="ytick_1">
     <g id="line2d_1">
      <defs>
       <path id="m230d3bdd15" d="M 0 0 
L -1 0 
" style="stroke: #777777; stroke-width: 0.5"/>
      </defs>
      <g>
       <use xlink:href="#m230d3bdd15" x="8.336802" y="66.995102" style="fill: #777777; stroke: #777777; stroke-width: 0.5"/>
      </g>
     </g>
     <g id="text_3">
      <!-- 0 -->
      <g style="fill: #333333" transform="translate(4.668521 68.071117) scale(0.03 -0.03)">
       <defs>
        <path id="Helvetica-30" d="M 1731 4475 
Q 2600 4475 2988 3759 
Q 3288 3206 3288 2244 
Q 3288 1331 3016 734 
Q 2622 -122 1728 -122 
Q 922 -122 528 578 
Q 200 1163 200 2147 
Q 200 2909 397 3456 
Q 766 4475 1731 4475 
z
M 1725 391 
Q 2163 391 2422 778 
Q 2681 1166 2681 2222 
Q 2681 2984 2493 3476 
Q 2306 3969 1766 3969 
Q 1269 3969 1039 3501 
Q 809 3034 809 2125 
Q 809 1441 956 1025 
Q 1181 391 1725 391 
z
" transform="scale(0.015625)"/>
       </defs>
       <use xlink:href="#Helvetica-30"/>
      </g>
     </g>
    </g>
    <g id="ytick_2">
     <g id="line2d_2">
      <g>
       <use xlink:href="#m230d3bdd15" x="8.336802" y="54.411333" style="fill: #777777; stroke: #777777; stroke-width: 0.5"/>
      </g>
     </g>
     <g id="text_4">
      <!-- 10 -->
      <g style="fill: #333333" transform="translate(3.00024 55.487348) scale(0.03 -0.03)">
       <use xlink:href="#Helvetica-31"/>
       <use xlink:href="#Helvetica-30" x="55.615234"/>
      </g>
     </g>
    </g>
    <g id="ytick_3">
     <g id="line2d_3">
      <g>
       <use xlink:href="#m230d3bdd15" x="8.336802" y="41.827563" style="fill: #777777; stroke: #777777; stroke-width: 0.5"/>
      </g>
     </g>
     <g id="text_5">
      <!-- 20 -->
      <g style="fill: #333333" transform="translate(3.00024 42.903579) scale(0.03 -0.03)">
       <defs>
        <path id="Helvetica-32" d="M 200 0 
Q 231 578 439 1006 
Q 647 1434 1250 1784 
L 1850 2131 
Q 2253 2366 2416 2531 
Q 2672 2791 2672 3125 
Q 2672 3516 2437 3745 
Q 2203 3975 1813 3975 
Q 1234 3975 1013 3538 
Q 894 3303 881 2888 
L 309 2888 
Q 319 3472 525 3841 
Q 891 4491 1816 4491 
Q 2584 4491 2939 4075 
Q 3294 3659 3294 3150 
Q 3294 2613 2916 2231 
Q 2697 2009 2131 1694 
L 1703 1456 
Q 1397 1288 1222 1134 
Q 909 863 828 531 
L 3272 531 
L 3272 0 
L 200 0 
z
" transform="scale(0.015625)"/>
       </defs>
       <use xlink:href="#Helvetica-32"/>
       <use xlink:href="#Helvetica-30" x="55.615234"/>
      </g>
     </g>
    </g>
    <g id="ytick_4">
     <g id="line2d_4">
      <g>
       <use xlink:href="#m230d3bdd15" x="8.336802" y="29.243794" style="fill: #777777; stroke: #777777; stroke-width: 0.5"/>
      </g>
     </g>
     <g id="text_6">
      <!-- 30 -->
      <g style="fill: #333333" transform="translate(3.00024 30.31981) scale(0.03 -0.03)">
       <use xlink:href="#Helvetica-33"/>
       <use xlink:href="#Helvetica-30" x="55.615234"/>
      </g>
     </g>
    </g>
    <g id="ytick_5">
     <g id="line2d_5">
      <g>
       <use xlink:href="#m230d3bdd15" x="8.336802" y="16.660025" style="fill: #777777; stroke: #777777; stroke-width: 0.5"/>
      </g>
     </g>
     <g id="text_7">
      <!-- 40 -->
      <g style="fill: #333333" transform="translate(3.00024 17.73604) scale(0.03 -0.03)">
       <defs>
        <path id="Helvetica-34" d="M 2116 1584 
L 2116 3613 
L 681 1584 
L 2116 1584 
z
M 2125 0 
L 2125 1094 
L 163 1094 
L 163 1644 
L 2213 4488 
L 2688 4488 
L 2688 1584 
L 3347 1584 
L 3347 1094 
L 2688 1094 
L 2688 0 
L 2125 0 
z
" transform="scale(0.015625)"/>
       </defs>
       <use xlink:href="#Helvetica-34"/>
       <use xlink:href="#Helvetica-30" x="55.615234"/>
      </g>
     </g>
    </g>
    <g id="ytick_6">
     <g id="line2d_6">
      <g>
       <use xlink:href="#m230d3bdd15" x="8.336802" y="4.076256" style="fill: #777777; stroke: #777777; stroke-width: 0.5"/>
      </g>
     </g>
     <g id="text_8">
      <!-- 50 -->
      <g style="fill: #333333" transform="translate(3.00024 5.152271) scale(0.03 -0.03)">
       <defs>
        <path id="Helvetica-35" d="M 791 1141 
Q 847 659 1238 475 
Q 1438 381 1700 381 
Q 2200 381 2440 700 
Q 2681 1019 2681 1406 
Q 2681 1875 2395 2131 
Q 2109 2388 1709 2388 
Q 1419 2388 1211 2275 
Q 1003 2163 856 1963 
L 369 1991 
L 709 4400 
L 3034 4400 
L 3034 3856 
L 1131 3856 
L 941 2613 
Q 1097 2731 1238 2791 
Q 1488 2894 1816 2894 
Q 2431 2894 2859 2497 
Q 3288 2100 3288 1491 
Q 3288 856 2895 371 
Q 2503 -113 1644 -113 
Q 1097 -113 676 195 
Q 256 503 206 1141 
L 791 1141 
z
" transform="scale(0.015625)"/>
       </defs>
       <use xlink:href="#Helvetica-35"/>
       <use xlink:href="#Helvetica-30" x="55.615234"/>
      </g>
     </g>
    </g>
   </g>
   <g id="PolyCollection_1">
    <defs>
     <path id="mca34cdef70" d="M 21.179718 -17.930273 
L 17.905366 -17.930273 
L 17.618797 -17.951617 
L 17.302925 -17.972961 
L 16.959009 -17.994305 
L 16.589194 -18.015649 
L 16.196521 -18.036993 
L 15.784891 -18.058337 
L 15.358972 -18.079681 
L 14.924068 -18.101024 
L 14.485937 -18.122368 
L 14.050581 -18.143712 
L 13.624012 -18.165056 
L 13.212018 -18.1864 
L 12.819934 -18.207744 
L 12.452454 -18.229088 
L 12.113474 -18.250432 
L 11.806005 -18.271776 
L 11.53214 -18.29312 
L 11.2931 -18.314464 
L 11.089328 -18.335808 
L 10.920642 -18.357152 
L 10.786428 -18.378496 
L 10.685839 -18.39984 
L 10.618001 -18.421184 
L 10.582187 -18.442528 
L 10.57795 -18.463872 
L 10.605204 -18.485216 
L 10.664232 -18.50656 
L 10.755634 -18.527903 
L 10.880215 -18.549247 
L 11.038817 -18.570591 
L 11.232132 -18.591935 
L 11.460492 -18.613279 
L 11.723671 -18.634623 
L 12.020721 -18.655967 
L 12.349849 -18.677311 
L 12.708354 -18.698655 
L 13.092631 -18.719999 
L 13.498238 -18.741343 
L 13.920024 -18.762687 
L 14.352307 -18.784031 
L 14.789083 -18.805375 
L 15.224259 -18.826719 
L 15.651879 -18.848063 
L 16.066341 -18.869407 
L 16.462575 -18.890751 
L 16.836191 -18.912095 
L 17.183567 -18.933439 
L 17.501898 -18.954783 
L 17.78919 -18.976126 
L 18.044213 -18.99747 
L 18.266417 -19.018814 
L 18.455827 -19.040158 
L 18.612919 -19.061502 
L 18.738493 -19.082846 
L 18.833553 -19.10419 
L 18.899203 -19.125534 
L 18.936556 -19.146878 
L 18.946684 -19.168222 
L 18.930578 -19.189566 
L 18.889155 -19.21091 
L 18.823275 -19.232254 
L 18.733797 -19.253598 
L 18.621642 -19.274942 
L 18.487873 -19.296286 
L 18.333784 -19.31763 
L 18.160976 -19.338974 
L 17.971439 -19.360318 
L 17.767603 -19.381662 
L 17.552372 -19.403005 
L 17.329133 -19.424349 
L 17.101732 -19.445693 
L 16.87441 -19.467037 
L 16.65172 -19.488381 
L 16.438406 -19.509725 
L 16.239262 -19.531069 
L 16.058971 -19.552413 
L 15.901938 -19.573757 
L 15.772122 -19.595101 
L 15.67288 -19.616445 
L 15.606828 -19.637789 
L 15.575732 -19.659133 
L 15.580432 -19.680477 
L 15.620808 -19.701821 
L 15.695785 -19.723165 
L 15.803381 -19.744509 
L 15.940796 -19.765853 
L 16.104527 -19.787197 
L 16.290523 -19.808541 
L 16.494342 -19.829885 
L 16.711329 -19.851228 
L 16.93679 -19.872572 
L 17.166155 -19.893916 
L 17.395125 -19.91526 
L 17.619798 -19.936604 
L 17.836762 -19.957948 
L 18.043165 -19.979292 
L 18.236749 -20.000636 
L 18.415855 -20.02198 
L 18.57941 -20.043324 
L 20.505674 -20.043324 
L 20.505674 -20.043324 
L 20.669228 -20.02198 
L 20.848335 -20.000636 
L 21.041918 -19.979292 
L 21.248321 -19.957948 
L 21.465286 -19.936604 
L 21.689959 -19.91526 
L 21.918929 -19.893916 
L 22.148294 -19.872572 
L 22.373755 -19.851228 
L 22.590742 -19.829885 
L 22.794561 -19.808541 
L 22.980556 -19.787197 
L 23.144288 -19.765853 
L 23.281703 -19.744509 
L 23.389299 -19.723165 
L 23.464276 -19.701821 
L 23.504651 -19.680477 
L 23.509351 -19.659133 
L 23.478255 -19.637789 
L 23.412203 -19.616445 
L 23.312962 -19.595101 
L 23.183146 -19.573757 
L 23.026113 -19.552413 
L 22.845822 -19.531069 
L 22.646678 -19.509725 
L 22.433364 -19.488381 
L 22.210674 -19.467037 
L 21.983352 -19.445693 
L 21.75595 -19.424349 
L 21.532712 -19.403005 
L 21.317481 -19.381662 
L 21.113645 -19.360318 
L 20.924108 -19.338974 
L 20.7513 -19.31763 
L 20.59721 -19.296286 
L 20.463442 -19.274942 
L 20.351286 -19.253598 
L 20.261809 -19.232254 
L 20.195929 -19.21091 
L 20.154506 -19.189566 
L 20.1384 -19.168222 
L 20.148528 -19.146878 
L 20.185881 -19.125534 
L 20.25153 -19.10419 
L 20.346591 -19.082846 
L 20.472165 -19.061502 
L 20.629256 -19.040158 
L 20.818667 -19.018814 
L 21.040871 -18.99747 
L 21.295893 -18.976126 
L 21.583186 -18.954783 
L 21.901517 -18.933439 
L 22.248893 -18.912095 
L 22.622509 -18.890751 
L 23.018743 -18.869407 
L 23.433205 -18.848063 
L 23.860825 -18.826719 
L 24.296001 -18.805375 
L 24.732777 -18.784031 
L 25.16506 -18.762687 
L 25.586846 -18.741343 
L 25.992453 -18.719999 
L 26.37673 -18.698655 
L 26.735235 -18.677311 
L 27.064363 -18.655967 
L 27.361413 -18.634623 
L 27.624592 -18.613279 
L 27.852951 -18.591935 
L 28.046267 -18.570591 
L 28.204869 -18.549247 
L 28.329449 -18.527903 
L 28.420851 -18.50656 
L 28.479879 -18.485216 
L 28.507133 -18.463872 
L 28.502897 -18.442528 
L 28.467082 -18.421184 
L 28.399244 -18.39984 
L 28.298656 -18.378496 
L 28.164441 -18.357152 
L 27.995756 -18.335808 
L 27.791983 -18.314464 
L 27.552943 -18.29312 
L 27.279079 -18.271776 
L 26.971609 -18.250432 
L 26.632629 -18.229088 
L 26.265149 -18.207744 
L 25.873066 -18.1864 
L 25.461072 -18.165056 
L 25.034503 -18.143712 
L 24.599146 -18.122368 
L 24.161015 -18.101024 
L 23.726112 -18.079681 
L 23.300193 -18.058337 
L 22.888563 -18.036993 
L 22.49589 -18.015649 
L 22.126075 -17.994305 
L 21.782159 -17.972961 
L 21.466287 -17.951617 
L 21.179718 -17.930273 
z
" style="stroke: #7c7c7c; stroke-width: 0.15"/>
    </defs>
    <g clip-path="url(#pd08a2fe4ed)">
     <use xlink:href="#mca34cdef70" x="0" y="84.96" style="fill: #cfcfcf; stroke: #7c7c7c; stroke-width: 0.15"/>
    </g>
   </g>
   <g id="PolyCollection_2">
    <defs>
     <path id="ma78d046657" d="M 43.824904 -17.770178 
L 40.083137 -17.770178 
L 39.799566 -17.787114 
L 39.495197 -17.80405 
L 39.172569 -17.820986 
L 38.834882 -17.837922 
L 38.485909 -17.854858 
L 38.129865 -17.871794 
L 37.771231 -17.88873 
L 37.414562 -17.905666 
L 37.06426 -17.922602 
L 36.72436 -17.939538 
L 36.39832 -17.956474 
L 36.088848 -17.97341 
L 35.797772 -17.990346 
L 35.52597 -18.007282 
L 35.27338 -18.024218 
L 35.039072 -18.041154 
L 34.821404 -18.05809 
L 34.618232 -18.075025 
L 34.427183 -18.091961 
L 34.245947 -18.108897 
L 34.072582 -18.125833 
L 33.905801 -18.142769 
L 33.745212 -18.159705 
L 33.591496 -18.176641 
L 33.446499 -18.193577 
L 33.31323 -18.210513 
L 33.195761 -18.227449 
L 33.09903 -18.244385 
L 33.028567 -18.261321 
L 32.99015 -18.278257 
L 32.989429 -18.295193 
L 33.031538 -18.312129 
L 33.120721 -18.329065 
L 33.260007 -18.346001 
L 33.450954 -18.362937 
L 33.693474 -18.379873 
L 33.985757 -18.396809 
L 34.324292 -18.413745 
L 34.703985 -18.430681 
L 35.118356 -18.447617 
L 35.559803 -18.464553 
L 36.019909 -18.481489 
L 36.489774 -18.498425 
L 36.960346 -18.515361 
L 37.422729 -18.532296 
L 37.868457 -18.549232 
L 38.28972 -18.566168 
L 38.679529 -18.583104 
L 39.031826 -18.60004 
L 39.341546 -18.616976 
L 39.604619 -18.633912 
L 39.81795 -18.650848 
L 39.979363 -18.667784 
L 40.087538 -18.68472 
L 40.141945 -18.701656 
L 40.142789 -18.718592 
L 40.090963 -18.735528 
L 39.988025 -18.752464 
L 39.83619 -18.7694 
L 39.638337 -18.786336 
L 39.398023 -18.803272 
L 39.119501 -18.820208 
L 38.807727 -18.837144 
L 38.468353 -18.85408 
L 38.107689 -18.871016 
L 37.732643 -18.887952 
L 37.350623 -18.904888 
L 36.969398 -18.921824 
L 36.596936 -18.93876 
L 36.241211 -18.955696 
L 35.909989 -18.972632 
L 35.610607 -18.989567 
L 35.349756 -19.006503 
L 35.133275 -19.023439 
L 34.965976 -19.040375 
L 34.851495 -19.057311 
L 34.792191 -19.074247 
L 34.789096 -19.091183 
L 34.841902 -19.108119 
L 34.949013 -19.125055 
L 35.107624 -19.141991 
L 35.313856 -19.158927 
L 35.562912 -19.175863 
L 35.849263 -19.192799 
L 36.166843 -19.209735 
L 36.509254 -19.226671 
L 36.869968 -19.243607 
L 37.242514 -19.260543 
L 37.620654 -19.277479 
L 37.998529 -19.294415 
L 38.370793 -19.311351 
L 38.732703 -19.328287 
L 39.08019 -19.345223 
L 39.409901 -19.362159 
L 39.719215 -19.379095 
L 40.006225 -19.396031 
L 40.269712 -19.412967 
L 40.509094 -19.429903 
L 40.724357 -19.446838 
L 43.183684 -19.446838 
L 43.183684 -19.446838 
L 43.398947 -19.429903 
L 43.638329 -19.412967 
L 43.901817 -19.396031 
L 44.188827 -19.379095 
L 44.49814 -19.362159 
L 44.827852 -19.345223 
L 45.175338 -19.328287 
L 45.537248 -19.311351 
L 45.909512 -19.294415 
L 46.287388 -19.277479 
L 46.665527 -19.260543 
L 47.038073 -19.243607 
L 47.398787 -19.226671 
L 47.741198 -19.209735 
L 48.058778 -19.192799 
L 48.345129 -19.175863 
L 48.594186 -19.158927 
L 48.800417 -19.141991 
L 48.959028 -19.125055 
L 49.066139 -19.108119 
L 49.118946 -19.091183 
L 49.11585 -19.074247 
L 49.056547 -19.057311 
L 48.942065 -19.040375 
L 48.774766 -19.023439 
L 48.558286 -19.006503 
L 48.297434 -18.989567 
L 47.998052 -18.972632 
L 47.66683 -18.955696 
L 47.311105 -18.93876 
L 46.938644 -18.921824 
L 46.557418 -18.904888 
L 46.175398 -18.887952 
L 45.800353 -18.871016 
L 45.439688 -18.85408 
L 45.100314 -18.837144 
L 44.78854 -18.820208 
L 44.510019 -18.803272 
L 44.269704 -18.786336 
L 44.071851 -18.7694 
L 43.920016 -18.752464 
L 43.817078 -18.735528 
L 43.765252 -18.718592 
L 43.766096 -18.701656 
L 43.820503 -18.68472 
L 43.928678 -18.667784 
L 44.090091 -18.650848 
L 44.303422 -18.633912 
L 44.566496 -18.616976 
L 44.876215 -18.60004 
L 45.228512 -18.583104 
L 45.618321 -18.566168 
L 46.039584 -18.549232 
L 46.485313 -18.532296 
L 46.947696 -18.515361 
L 47.418267 -18.498425 
L 47.888133 -18.481489 
L 48.348238 -18.464553 
L 48.789685 -18.447617 
L 49.204056 -18.430681 
L 49.583749 -18.413745 
L 49.922285 -18.396809 
L 50.214567 -18.379873 
L 50.457087 -18.362937 
L 50.648034 -18.346001 
L 50.787321 -18.329065 
L 50.876503 -18.312129 
L 50.918612 -18.295193 
L 50.917892 -18.278257 
L 50.879474 -18.261321 
L 50.809011 -18.244385 
L 50.71228 -18.227449 
L 50.594811 -18.210513 
L 50.461542 -18.193577 
L 50.316545 -18.176641 
L 50.162829 -18.159705 
L 50.00224 -18.142769 
L 49.835459 -18.125833 
L 49.662094 -18.108897 
L 49.480858 -18.091961 
L 49.289809 -18.075025 
L 49.086638 -18.05809 
L 48.868969 -18.041154 
L 48.634661 -18.024218 
L 48.382071 -18.007282 
L 48.11027 -17.990346 
L 47.819193 -17.97341 
L 47.509721 -17.956474 
L 47.183682 -17.939538 
L 46.843782 -17.922602 
L 46.49348 -17.905666 
L 46.13681 -17.88873 
L 45.778177 -17.871794 
L 45.422132 -17.854858 
L 45.073159 -17.837922 
L 44.735472 -17.820986 
L 44.412844 -17.80405 
L 44.108476 -17.787114 
L 43.824904 -17.770178 
z
" style="stroke: #7c7c7c; stroke-width: 0.15"/>
    </defs>
    <g clip-path="url(#pd08a2fe4ed)">
     <use xlink:href="#ma78d046657" x="0" y="84.96" style="fill: #f3f3ae; stroke: #7c7c7c; stroke-width: 0.15"/>
    </g>
   </g>
   <g id="line2d_7">
    <path d="M 19.542542 66.722006 
L 19.542542 65.224397 
" clip-path="url(#pd08a2fe4ed)" style="fill: none; stroke: #8c8c8c; stroke-width: 0.75; stroke-linecap: round"/>
   </g>
   <g id="line2d_8">
    <path d="M 19.542542 66.644365 
L 19.542542 66.058646 
" clip-path="url(#pd08a2fe4ed)" style="fill: none; stroke: #8c8c8c; stroke-width: 4; stroke-linecap: round"/>
   </g>
   <g id="line2d_9">
    <path d="M 19.542542 66.350903 
" clip-path="url(#pd08a2fe4ed)" style="fill: none; stroke: #7c7c7c; stroke-width: 1.2; stroke-linecap: round"/>
    <defs>
     <path id="m87ff4dbece" d="M 0 0.833333 
C 0.221003 0.833333 0.432983 0.745528 0.589256 0.589256 
C 0.745528 0.432983 0.833333 0.221003 0.833333 0 
C 0.833333 -0.221003 0.745528 -0.432983 0.589256 -0.589256 
C 0.432983 -0.745528 0.221003 -0.833333 0 -0.833333 
C -0.221003 -0.833333 -0.432983 -0.745528 -0.589256 -0.589256 
C -0.745528 -0.432983 -0.833333 -0.221003 -0.833333 0 
C -0.833333 0.221003 -0.745528 0.432983 -0.589256 0.589256 
C -0.432983 0.745528 -0.221003 0.833333 0 0.833333 
z
" style="stroke: #ffffff; stroke-width: 0.8"/>
    </defs>
    <g clip-path="url(#pd08a2fe4ed)">
     <use xlink:href="#m87ff4dbece" x="19.542542" y="66.350903" style="fill: #ffffff; stroke: #ffffff; stroke-width: 0.8"/>
    </g>
   </g>
   <g id="line2d_10">
    <path d="M 41.954021 66.939875 
L 41.954021 65.763108 
" clip-path="url(#pd08a2fe4ed)" style="fill: none; stroke: #8c8c8c; stroke-width: 0.75; stroke-linecap: round"/>
   </g>
   <g id="line2d_11">
    <path d="M 41.954021 66.720437 
L 41.954021 65.929886 
" clip-path="url(#pd08a2fe4ed)" style="fill: none; stroke: #8c8c8c; stroke-width: 4; stroke-linecap: round"/>
   </g>
   <g id="line2d_12">
    <path d="M 41.954021 66.598244 
" clip-path="url(#pd08a2fe4ed)" style="fill: none; stroke: #7c7c7c; stroke-width: 1.2; stroke-linecap: round"/>
    <g clip-path="url(#pd08a2fe4ed)">
     <use xlink:href="#m87ff4dbece" x="41.954021" y="66.598244" style="fill: #ffffff; stroke: #ffffff; stroke-width: 0.8"/>
    </g>
   </g>
   <g id="patch_3">
    <path d="M 8.336802 74.419526 
L 8.336802 4.076256 
" style="fill: none; stroke: #777777; stroke-width: 0.5; stroke-linejoin: miter; stroke-linecap: square"/>
   </g>
   <g id="patch_4">
    <path d="M 8.336802 76.919526 
L 53.15976 76.919526 
" style="fill: none; stroke: #777777; stroke-width: 0.5; stroke-linejoin: miter; stroke-linecap: square"/>
   </g>
  </g>
 </g>
 <defs>
  <clipPath id="pd08a2fe4ed">
   <rect x="8.336802" y="4.076256" width="44.822958" height="70.34327"/>
  </clipPath>
 </defs>
</svg>
