<?xml version="1.0" encoding="utf-8" standalone="no"?>
<!DOCTYPE svg PUBLIC "-//W3C//DTD SVG 1.1//EN"
  "http://www.w3.org/Graphics/SVG/1.1/DTD/svg11.dtd">
<svg xmlns:xlink="http://www.w3.org/1999/xlink" width="56.16pt" height="84.96pt" viewBox="0 0 56.16 84.96" xmlns="http://www.w3.org/2000/svg" version="1.1">
 <metadata>
  <rdf:RDF xmlns:dc="http://purl.org/dc/elements/1.1/" xmlns:cc="http://creativecommons.org/ns#" xmlns:rdf="http://www.w3.org/1999/02/22-rdf-syntax-ns#">
   <cc:Work>
    <dc:type rdf:resource="http://purl.org/dc/dcmitype/StillImage"/>
    <dc:date>2024-05-27T15:37:15.017430</dc:date>
    <dc:format>image/svg+xml</dc:format>
    <dc:creator>
     <cc:Agent>
      <dc:title>Matplotlib v3.8.3, https://matplotlib.org/</dc:title>
     </cc:Agent>
    </dc:creator>
   </cc:Work>
  </rdf:RDF>
 </metadata>
 <defs>
  <style type="text/css">*{stroke-linejoin: round; stroke-linecap: butt}</style>
 </defs>
 <g id="figure_1">
  <g id="patch_1">
   <path d="M 0 84.96 
L 56.16 84.96 
L 56.16 0 
L 0 0 
z
" style="fill: #ffffff"/>
  </g>
  <g id="axes_1">
   <g id="patch_2">
    <path d="M 8.336802 74.419526 
L 53.15976 74.419526 
L 53.15976 4.076256 
L 8.336802 4.076256 
z
" style="fill: #ffffff"/>
   </g>
   <g id="matplotlib.axis_1">
    <g id="xtick_1">
     <g id="text_1">
      <!-- T -->
      <g style="fill: #333333" transform="translate(18.473675 81.230229) scale(0.035 -0.035)">
       <defs>
        <path id="Helvetica-54" d="M 3828 4591 
L 3828 4044 
L 2281 4044 
L 2281 0 
L 1650 0 
L 1650 4044 
L 103 4044 
L 103 4591 
L 3828 4591 
z
" transform="scale(0.015625)"/>
       </defs>
       <use xlink:href="#Helvetica-54"/>
      </g>
     </g>
    </g>
    <g id="xtick_2">
     <g id="text_2">
      <!-- IL7R Non T -->
      <g style="fill: #333333" transform="translate(33.006325 81.230229) scale(0.035 -0.035)">
       <defs>
        <path id="Helvetica-49" d="M 628 4591 
L 1256 4591 
L 1256 0 
L 628 0 
L 628 4591 
z
" transform="scale(0.015625)"/>
        <path id="Helvetica-4c" d="M 488 4591 
L 1109 4591 
L 1109 547 
L 3434 547 
L 3434 0 
L 488 0 
L 488 4591 
z
" transform="scale(0.015625)"/>
        <path id="Helvetica-37" d="M 3347 4400 
L 3347 3909 
Q 3131 3700 2773 3181 
Q 2416 2663 2141 2063 
Q 1869 1478 1728 997 
Q 1638 688 1494 0 
L 872 0 
Q 1084 1281 1809 2550 
Q 2238 3294 2709 3834 
L 234 3834 
L 234 4400 
L 3347 4400 
z
" transform="scale(0.015625)"/>
        <path id="Helvetica-52" d="M 2622 2488 
Q 3059 2488 3314 2663 
Q 3569 2838 3569 3294 
Q 3569 3784 3213 3963 
Q 3022 4056 2703 4056 
L 1184 4056 
L 1184 2488 
L 2622 2488 
z
M 563 4591 
L 2688 4591 
Q 3213 4591 3553 4438 
Q 4200 4144 4200 3353 
Q 4200 2941 4029 2678 
Q 3859 2416 3553 2256 
Q 3822 2147 3958 1969 
Q 4094 1791 4109 1391 
L 4131 775 
Q 4141 513 4175 384 
Q 4231 166 4375 103 
L 4375 0 
L 3613 0 
Q 3581 59 3562 153 
Q 3544 247 3531 516 
L 3494 1281 
Q 3472 1731 3159 1884 
Q 2981 1969 2600 1969 
L 1184 1969 
L 1184 0 
L 563 0 
L 563 4591 
z
" transform="scale(0.015625)"/>
        <path id="Helvetica-20" transform="scale(0.015625)"/>
        <path id="Helvetica-4e" d="M 488 4591 
L 1222 4591 
L 3541 872 
L 3541 4591 
L 4131 4591 
L 4131 0 
L 3434 0 
L 1081 3716 
L 1081 0 
L 488 0 
L 488 4591 
z
M 2269 4591 
L 2269 4591 
z
" transform="scale(0.015625)"/>
        <path id="Helvetica-6f" d="M 1741 363 
Q 2300 363 2508 786 
Q 2716 1209 2716 1728 
Q 2716 2197 2566 2491 
Q 2328 2953 1747 2953 
Q 1231 2953 997 2559 
Q 763 2166 763 1609 
Q 763 1075 997 719 
Q 1231 363 1741 363 
z
M 1763 3444 
Q 2409 3444 2856 3012 
Q 3303 2581 3303 1744 
Q 3303 934 2909 406 
Q 2516 -122 1688 -122 
Q 997 -122 590 345 
Q 184 813 184 1600 
Q 184 2444 612 2944 
Q 1041 3444 1763 3444 
z
M 1744 3428 
L 1744 3428 
z
" transform="scale(0.015625)"/>
        <path id="Helvetica-6e" d="M 413 3347 
L 947 3347 
L 947 2872 
Q 1184 3166 1450 3294 
Q 1716 3422 2041 3422 
Q 2753 3422 3003 2925 
Q 3141 2653 3141 2147 
L 3141 0 
L 2569 0 
L 2569 2109 
Q 2569 2416 2478 2603 
Q 2328 2916 1934 2916 
Q 1734 2916 1606 2875 
Q 1375 2806 1200 2600 
Q 1059 2434 1017 2257 
Q 975 2081 975 1753 
L 975 0 
L 413 0 
L 413 3347 
z
M 1734 3428 
L 1734 3428 
z
" transform="scale(0.015625)"/>
       </defs>
       <use xlink:href="#Helvetica-49"/>
       <use xlink:href="#Helvetica-4c" x="27.783203"/>
       <use xlink:href="#Helvetica-37" x="83.398438"/>
       <use xlink:href="#Helvetica-52" x="139.013672"/>
       <use xlink:href="#Helvetica-20" x="211.230469"/>
       <use xlink:href="#Helvetica-4e" x="239.013672"/>
       <use xlink:href="#Helvetica-6f" x="311.230469"/>
       <use xlink:href="#Helvetica-6e" x="366.845703"/>
       <use xlink:href="#Helvetica-20" x="422.460938"/>
       <use xlink:href="#Helvetica-54" x="450.244141"/>
      </g>
     </g>
    </g>
   </g>
   <g id="matplotlib.axis_2">
    <g id="ytick_1">
     <g id="line2d_1">
      <defs>
       <path id="mef0230eb51" d="M 0 0 
L -1 0 
" style="stroke: #777777; stroke-width: 0.5"/>
      </defs>
      <g>
       <use xlink:href="#mef0230eb51" x="8.336802" y="66.673159" style="fill: #777777; stroke: #777777; stroke-width: 0.5"/>
      </g>
     </g>
     <g id="text_3">
      <!-- 0 -->
      <g style="fill: #333333" transform="translate(4.668521 67.749174) scale(0.03 -0.03)">
       <defs>
        <path id="Helvetica-30" d="M 1731 4475 
Q 2600 4475 2988 3759 
Q 3288 3206 3288 2244 
Q 3288 1331 3016 734 
Q 2622 -122 1728 -122 
Q 922 -122 528 578 
Q 200 1163 200 2147 
Q 200 2909 397 3456 
Q 766 4475 1731 4475 
z
M 1725 391 
Q 2163 391 2422 778 
Q 2681 1166 2681 2222 
Q 2681 2984 2493 3476 
Q 2306 3969 1766 3969 
Q 1269 3969 1039 3501 
Q 809 3034 809 2125 
Q 809 1441 956 1025 
Q 1181 391 1725 391 
z
" transform="scale(0.015625)"/>
       </defs>
       <use xlink:href="#Helvetica-30"/>
      </g>
     </g>
    </g>
    <g id="ytick_2">
     <g id="line2d_2">
      <g>
       <use xlink:href="#mef0230eb51" x="8.336802" y="58.848546" style="fill: #777777; stroke: #777777; stroke-width: 0.5"/>
      </g>
     </g>
     <g id="text_4">
      <!-- 10 -->
      <g style="fill: #333333" transform="translate(3.00024 59.924562) scale(0.03 -0.03)">
       <defs>
        <path id="Helvetica-31" d="M 613 3169 
L 613 3600 
Q 1222 3659 1462 3798 
Q 1703 3938 1822 4456 
L 2266 4456 
L 2266 0 
L 1666 0 
L 1666 3169 
L 613 3169 
z
" transform="scale(0.015625)"/>
       </defs>
       <use xlink:href="#Helvetica-31"/>
       <use xlink:href="#Helvetica-30" x="55.615234"/>
      </g>
     </g>
    </g>
    <g id="ytick_3">
     <g id="line2d_3">
      <g>
       <use xlink:href="#mef0230eb51" x="8.336802" y="51.023933" style="fill: #777777; stroke: #777777; stroke-width: 0.5"/>
      </g>
     </g>
     <g id="text_5">
      <!-- 20 -->
      <g style="fill: #333333" transform="translate(3.00024 52.099949) scale(0.03 -0.03)">
       <defs>
        <path id="Helvetica-32" d="M 200 0 
Q 231 578 439 1006 
Q 647 1434 1250 1784 
L 1850 2131 
Q 2253 2366 2416 2531 
Q 2672 2791 2672 3125 
Q 2672 3516 2437 3745 
Q 2203 3975 1813 3975 
Q 1234 3975 1013 3538 
Q 894 3303 881 2888 
L 309 2888 
Q 319 3472 525 3841 
Q 891 4491 1816 4491 
Q 2584 4491 2939 4075 
Q 3294 3659 3294 3150 
Q 3294 2613 2916 2231 
Q 2697 2009 2131 1694 
L 1703 1456 
Q 1397 1288 1222 1134 
Q 909 863 828 531 
L 3272 531 
L 3272 0 
L 200 0 
z
" transform="scale(0.015625)"/>
       </defs>
       <use xlink:href="#Helvetica-32"/>
       <use xlink:href="#Helvetica-30" x="55.615234"/>
      </g>
     </g>
    </g>
    <g id="ytick_4">
     <g id="line2d_4">
      <g>
       <use xlink:href="#mef0230eb51" x="8.336802" y="43.19932" style="fill: #777777; stroke: #777777; stroke-width: 0.5"/>
      </g>
     </g>
     <g id="text_6">
      <!-- 30 -->
      <g style="fill: #333333" transform="translate(3.00024 44.275336) scale(0.03 -0.03)">
       <defs>
        <path id="Helvetica-33" d="M 1663 -122 
Q 869 -122 511 314 
Q 153 750 153 1375 
L 741 1375 
Q 778 941 903 744 
Q 1122 391 1694 391 
Q 2138 391 2406 628 
Q 2675 866 2675 1241 
Q 2675 1703 2392 1887 
Q 2109 2072 1606 2072 
Q 1550 2072 1492 2070 
Q 1434 2069 1375 2066 
L 1375 2563 
Q 1463 2553 1522 2550 
Q 1581 2547 1650 2547 
Q 1966 2547 2169 2647 
Q 2525 2822 2525 3272 
Q 2525 3606 2287 3787 
Q 2050 3969 1734 3969 
Q 1172 3969 956 3594 
Q 838 3388 822 3006 
L 266 3006 
Q 266 3506 466 3856 
Q 809 4481 1675 4481 
Q 2359 4481 2734 4176 
Q 3109 3872 3109 3294 
Q 3109 2881 2888 2625 
Q 2750 2466 2531 2375 
Q 2884 2278 3082 2001 
Q 3281 1725 3281 1325 
Q 3281 684 2859 281 
Q 2438 -122 1663 -122 
z
" transform="scale(0.015625)"/>
       </defs>
       <use xlink:href="#Helvetica-33"/>
       <use xlink:href="#Helvetica-30" x="55.615234"/>
      </g>
     </g>
    </g>
    <g id="ytick_5">
     <g id="line2d_5">
      <g>
       <use xlink:href="#mef0230eb51" x="8.336802" y="35.374707" style="fill: #777777; stroke: #777777; stroke-width: 0.5"/>
      </g>
     </g>
     <g id="text_7">
      <!-- 40 -->
      <g style="fill: #333333" transform="translate(3.00024 36.450723) scale(0.03 -0.03)">
       <defs>
        <path id="Helvetica-34" d="M 2116 1584 
L 2116 3613 
L 681 1584 
L 2116 1584 
z
M 2125 0 
L 2125 1094 
L 163 1094 
L 163 1644 
L 2213 4488 
L 2688 4488 
L 2688 1584 
L 3347 1584 
L 3347 1094 
L 2688 1094 
L 2688 0 
L 2125 0 
z
" transform="scale(0.015625)"/>
       </defs>
       <use xlink:href="#Helvetica-34"/>
       <use xlink:href="#Helvetica-30" x="55.615234"/>
      </g>
     </g>
    </g>
    <g id="ytick_6">
     <g id="line2d_6">
      <g>
       <use xlink:href="#mef0230eb51" x="8.336802" y="27.550094" style="fill: #777777; stroke: #777777; stroke-width: 0.5"/>
      </g>
     </g>
     <g id="text_8">
      <!-- 50 -->
      <g style="fill: #333333" transform="translate(3.00024 28.62611) scale(0.03 -0.03)">
       <defs>
        <path id="Helvetica-35" d="M 791 1141 
Q 847 659 1238 475 
Q 1438 381 1700 381 
Q 2200 381 2440 700 
Q 2681 1019 2681 1406 
Q 2681 1875 2395 2131 
Q 2109 2388 1709 2388 
Q 1419 2388 1211 2275 
Q 1003 2163 856 1963 
L 369 1991 
L 709 4400 
L 3034 4400 
L 3034 3856 
L 1131 3856 
L 941 2613 
Q 1097 2731 1238 2791 
Q 1488 2894 1816 2894 
Q 2431 2894 2859 2497 
Q 3288 2100 3288 1491 
Q 3288 856 2895 371 
Q 2503 -113 1644 -113 
Q 1097 -113 676 195 
Q 256 503 206 1141 
L 791 1141 
z
" transform="scale(0.015625)"/>
       </defs>
       <use xlink:href="#Helvetica-35"/>
       <use xlink:href="#Helvetica-30" x="55.615234"/>
      </g>
     </g>
    </g>
    <g id="ytick_7">
     <g id="line2d_7">
      <g>
       <use xlink:href="#mef0230eb51" x="8.336802" y="19.725481" style="fill: #777777; stroke: #777777; stroke-width: 0.5"/>
      </g>
     </g>
     <g id="text_9">
      <!-- 60 -->
      <g style="fill: #333333" transform="translate(3.00024 20.801497) scale(0.03 -0.03)">
       <defs>
        <path id="Helvetica-36" d="M 1872 4494 
Q 2622 4494 2917 4105 
Q 3213 3716 3213 3303 
L 2656 3303 
Q 2606 3569 2497 3719 
Q 2294 4000 1881 4000 
Q 1409 4000 1131 3564 
Q 853 3128 822 2316 
Q 1016 2600 1309 2741 
Q 1578 2866 1909 2866 
Q 2472 2866 2890 2506 
Q 3309 2147 3309 1434 
Q 3309 825 2912 354 
Q 2516 -116 1781 -116 
Q 1153 -116 697 361 
Q 241 838 241 1966 
Q 241 2800 444 3381 
Q 834 4494 1872 4494 
z
M 1831 384 
Q 2275 384 2495 682 
Q 2716 981 2716 1388 
Q 2716 1731 2519 2042 
Q 2322 2353 1803 2353 
Q 1441 2353 1167 2112 
Q 894 1872 894 1388 
Q 894 963 1142 673 
Q 1391 384 1831 384 
z
" transform="scale(0.015625)"/>
       </defs>
       <use xlink:href="#Helvetica-36"/>
       <use xlink:href="#Helvetica-30" x="55.615234"/>
      </g>
     </g>
    </g>
    <g id="ytick_8">
     <g id="line2d_8">
      <g>
       <use xlink:href="#mef0230eb51" x="8.336802" y="11.900869" style="fill: #777777; stroke: #777777; stroke-width: 0.5"/>
      </g>
     </g>
     <g id="text_10">
      <!-- 70 -->
      <g style="fill: #333333" transform="translate(3.00024 12.976884) scale(0.03 -0.03)">
       <use xlink:href="#Helvetica-37"/>
       <use xlink:href="#Helvetica-30" x="55.615234"/>
      </g>
     </g>
    </g>
    <g id="ytick_9">
     <g id="line2d_9">
      <g>
       <use xlink:href="#mef0230eb51" x="8.336802" y="4.076256" style="fill: #777777; stroke: #777777; stroke-width: 0.5"/>
      </g>
     </g>
     <g id="text_11">
      <!-- 80 -->
      <g style="fill: #333333" transform="translate(3.00024 5.152271) scale(0.03 -0.03)">
       <defs>
        <path id="Helvetica-38" d="M 1741 2600 
Q 2113 2600 2322 2808 
Q 2531 3016 2531 3303 
Q 2531 3553 2331 3762 
Q 2131 3972 1722 3972 
Q 1316 3972 1134 3762 
Q 953 3553 953 3272 
Q 953 2956 1187 2778 
Q 1422 2600 1741 2600 
z
M 1775 384 
Q 2166 384 2423 595 
Q 2681 806 2681 1225 
Q 2681 1659 2415 1884 
Q 2150 2109 1734 2109 
Q 1331 2109 1076 1879 
Q 822 1650 822 1244 
Q 822 894 1055 639 
Q 1288 384 1775 384 
z
M 975 2384 
Q 741 2484 609 2619 
Q 363 2869 363 3269 
Q 363 3769 725 4128 
Q 1088 4488 1753 4488 
Q 2397 4488 2762 4148 
Q 3128 3809 3128 3356 
Q 3128 2938 2916 2678 
Q 2797 2531 2547 2391 
Q 2825 2263 2984 2097 
Q 3281 1784 3281 1284 
Q 3281 694 2884 283 
Q 2488 -128 1763 -128 
Q 1109 -128 657 226 
Q 206 581 206 1256 
Q 206 1653 400 1942 
Q 594 2231 975 2384 
z
" transform="scale(0.015625)"/>
       </defs>
       <use xlink:href="#Helvetica-38"/>
       <use xlink:href="#Helvetica-30" x="55.615234"/>
      </g>
     </g>
    </g>
   </g>
   <g id="PolyCollection_1">
    <defs>
     <path id="ma1ac770faa" d="M 19.976631 -18.071795 
L 19.108452 -18.071795 
L 19.007915 -18.223372 
L 18.892339 -18.37495 
L 18.761133 -18.526527 
L 18.613828 -18.678104 
L 18.449994 -18.829682 
L 18.269144 -18.981259 
L 18.070607 -19.132837 
L 17.853429 -19.284414 
L 17.616287 -19.435992 
L 17.357474 -19.587569 
L 17.074951 -19.739146 
L 16.766506 -19.890724 
L 16.43 -20.042301 
L 16.06372 -20.193879 
L 15.666791 -20.345456 
L 15.239637 -20.497033 
L 14.784411 -20.648611 
L 14.305379 -20.800188 
L 13.809164 -20.951766 
L 13.304831 -21.103343 
L 12.803753 -21.254921 
L 12.319264 -21.406498 
L 11.866086 -21.558075 
L 11.459572 -21.709653 
L 11.114809 -21.86123 
L 10.84566 -22.012808 
L 10.663817 -22.164385 
L 10.57795 -22.315963 
L 10.593032 -22.46754 
L 10.70989 -22.619117 
L 10.925038 -22.770695 
L 11.230791 -22.922272 
L 11.615667 -23.07385 
L 12.065028 -23.225427 
L 12.561932 -23.377005 
L 13.088105 -23.528582 
L 13.624986 -23.680159 
L 14.154755 -23.831737 
L 14.661279 -23.983314 
L 15.130928 -24.134892 
L 15.553188 -24.286469 
L 15.921064 -24.438047 
L 16.231235 -24.589624 
L 16.48397 -24.741201 
L 16.682815 -24.892779 
L 16.834085 -25.044356 
L 16.946197 -25.195934 
L 17.028907 -25.347511 
L 17.092503 -25.499089 
L 17.147024 -25.650666 
L 17.201547 -25.802243 
L 17.263623 -25.953821 
L 17.33886 -26.105398 
L 17.430711 -26.256976 
L 17.540436 -26.408553 
L 17.667254 -26.560131 
L 17.808619 -26.711708 
L 17.960607 -26.863285 
L 18.118354 -27.014863 
L 18.276484 -27.16644 
L 18.429512 -27.318018 
L 18.572166 -27.469595 
L 18.699627 -27.621173 
L 18.807671 -27.77275 
L 18.892737 -27.924327 
L 18.951928 -28.075905 
L 18.98298 -28.227482 
L 18.98423 -28.37906 
L 18.954597 -28.530637 
L 18.893604 -28.682215 
L 18.801448 -28.833792 
L 18.679103 -28.985369 
L 18.528462 -29.136947 
L 18.352466 -29.288524 
L 18.155215 -29.440102 
L 17.942012 -29.591679 
L 17.71932 -29.743257 
L 17.49461 -29.894834 
L 17.276087 -30.046411 
L 17.072318 -30.197989 
L 16.891768 -30.349566 
L 16.74229 -30.501144 
L 16.630616 -30.652721 
L 16.561895 -30.804299 
L 16.539334 -30.955876 
L 16.563971 -31.107453 
L 16.634612 -31.259031 
L 16.747941 -31.410608 
L 16.898779 -31.562186 
L 17.080484 -31.713763 
L 17.285434 -31.865341 
L 17.505552 -32.016918 
L 17.732823 -32.168495 
L 17.959761 -32.320073 
L 18.179788 -32.47165 
L 18.387493 -32.623228 
L 18.578787 -32.774805 
L 18.75093 -32.926383 
L 18.902466 -33.07796 
L 20.182617 -33.07796 
L 20.182617 -33.07796 
L 20.334153 -32.926383 
L 20.506297 -32.774805 
L 20.697591 -32.623228 
L 20.905296 -32.47165 
L 21.125322 -32.320073 
L 21.352261 -32.168495 
L 21.579532 -32.016918 
L 21.799649 -31.865341 
L 22.004599 -31.713763 
L 22.186305 -31.562186 
L 22.337143 -31.410608 
L 22.450471 -31.259031 
L 22.521113 -31.107453 
L 22.54575 -30.955876 
L 22.523189 -30.804299 
L 22.454468 -30.652721 
L 22.342794 -30.501144 
L 22.193316 -30.349566 
L 22.012766 -30.197989 
L 21.808997 -30.046411 
L 21.590474 -29.894834 
L 21.365763 -29.743257 
L 21.143072 -29.591679 
L 20.929869 -29.440102 
L 20.732618 -29.288524 
L 20.556622 -29.136947 
L 20.40598 -28.985369 
L 20.283636 -28.833792 
L 20.191479 -28.682215 
L 20.130487 -28.530637 
L 20.100853 -28.37906 
L 20.102103 -28.227482 
L 20.133156 -28.075905 
L 20.192346 -27.924327 
L 20.277412 -27.77275 
L 20.385457 -27.621173 
L 20.512918 -27.469595 
L 20.655572 -27.318018 
L 20.8086 -27.16644 
L 20.96673 -27.014863 
L 21.124476 -26.863285 
L 21.276465 -26.711708 
L 21.41783 -26.560131 
L 21.544647 -26.408553 
L 21.654373 -26.256976 
L 21.746224 -26.105398 
L 21.821461 -25.953821 
L 21.883536 -25.802243 
L 21.93806 -25.650666 
L 21.99258 -25.499089 
L 22.056177 -25.347511 
L 22.138887 -25.195934 
L 22.250999 -25.044356 
L 22.402268 -24.892779 
L 22.601114 -24.741201 
L 22.853849 -24.589624 
L 23.16402 -24.438047 
L 23.531896 -24.286469 
L 23.954156 -24.134892 
L 24.423805 -23.983314 
L 24.930329 -23.831737 
L 25.460097 -23.680159 
L 25.996979 -23.528582 
L 26.523152 -23.377005 
L 27.020055 -23.225427 
L 27.469417 -23.07385 
L 27.854292 -22.922272 
L 28.160046 -22.770695 
L 28.375194 -22.619117 
L 28.492052 -22.46754 
L 28.507133 -22.315963 
L 28.421267 -22.164385 
L 28.239424 -22.012808 
L 27.970275 -21.86123 
L 27.625512 -21.709653 
L 27.218997 -21.558075 
L 26.76582 -21.406498 
L 26.281331 -21.254921 
L 25.780253 -21.103343 
L 25.275919 -20.951766 
L 24.779705 -20.800188 
L 24.300673 -20.648611 
L 23.845447 -20.497033 
L 23.418292 -20.345456 
L 23.021364 -20.193879 
L 22.655084 -20.042301 
L 22.318578 -19.890724 
L 22.010132 -19.739146 
L 21.72761 -19.587569 
L 21.468796 -19.435992 
L 21.231655 -19.284414 
L 21.014477 -19.132837 
L 20.81594 -18.981259 
L 20.63509 -18.829682 
L 20.471256 -18.678104 
L 20.32395 -18.526527 
L 20.192745 -18.37495 
L 20.077169 -18.223372 
L 19.976631 -18.071795 
z
" style="stroke: #525252; stroke-width: 0.15"/>
    </defs>
    <g clip-path="url(#p33fc1c5b56)">
     <use xlink:href="#ma1ac770faa" x="0" y="84.96" style="fill: #bbba94; stroke: #525252; stroke-width: 0.15"/>
    </g>
   </g>
   <g id="PolyCollection_2">
    <defs>
     <path id="m386f3ce24c" d="M 42.4169 -18.636142 
L 41.491142 -18.636142 
L 41.355884 -18.820287 
L 41.192139 -19.004432 
L 40.99653 -19.188577 
L 40.765688 -19.372722 
L 40.496334 -19.556866 
L 40.185419 -19.741011 
L 39.830349 -19.925156 
L 39.429326 -20.109301 
L 38.9818 -20.293446 
L 38.489002 -20.477591 
L 37.954515 -20.661736 
L 37.38478 -20.845881 
L 36.789442 -21.030026 
L 36.181445 -21.214171 
L 35.57677 -21.398315 
L 34.993805 -21.58246 
L 34.452342 -21.766605 
L 33.972293 -21.95075 
L 33.572245 -22.134895 
L 33.26803 -22.31904 
L 33.071464 -22.503185 
L 32.989429 -22.68733 
L 33.023387 -22.871475 
L 33.169381 -23.05562 
L 33.418497 -23.239764 
L 33.757709 -23.423909 
L 34.170985 -23.608054 
L 34.640502 -23.792199 
L 35.147848 -23.976344 
L 35.675088 -24.160489 
L 36.205631 -24.344634 
L 36.724861 -24.528779 
L 37.220539 -24.712924 
L 37.683006 -24.897069 
L 38.10523 -25.081213 
L 38.48272 -25.265358 
L 38.813368 -25.449503 
L 39.097201 -25.633648 
L 39.336092 -25.817793 
L 39.533425 -26.001938 
L 39.69373 -26.186083 
L 39.82231 -26.370228 
L 39.924893 -26.554373 
L 40.007303 -26.738518 
L 40.075189 -26.922662 
L 40.133802 -27.106807 
L 40.18781 -27.290952 
L 40.241145 -27.475097 
L 40.296868 -27.659242 
L 40.357047 -27.843387 
L 40.422654 -28.027532 
L 40.493514 -28.211677 
L 40.568311 -28.395822 
L 40.644707 -28.579967 
L 40.719567 -28.764111 
L 40.789302 -28.948256 
L 40.850304 -29.132401 
L 40.899421 -29.316546 
L 40.934418 -29.500691 
L 40.954354 -29.684836 
L 40.959807 -29.868981 
L 40.952917 -30.053126 
L 40.937217 -30.237271 
L 40.917276 -30.421416 
L 40.898192 -30.60556 
L 40.885 -30.789705 
L 40.882081 -30.97385 
L 40.892644 -31.157995 
L 40.918345 -31.34214 
L 40.959104 -31.526285 
L 41.013114 -31.71043 
L 41.077044 -31.894575 
L 41.146404 -32.07872 
L 41.216006 -32.262865 
L 41.280483 -32.447009 
L 41.334785 -32.631154 
L 41.374642 -32.815299 
L 41.396923 -32.999444 
L 41.399908 -33.183589 
L 41.383425 -33.367734 
L 41.348887 -33.551879 
L 41.299196 -33.736024 
L 41.238538 -33.920169 
L 41.172071 -34.104314 
L 41.105523 -34.288458 
L 41.044722 -34.472603 
L 40.995113 -34.656748 
L 40.961288 -34.840893 
L 40.946594 -35.025038 
L 40.952861 -35.209183 
L 40.980285 -35.393328 
L 41.027483 -35.577473 
L 41.091699 -35.761618 
L 41.169154 -35.945763 
L 41.25546 -36.129907 
L 41.346066 -36.314052 
L 41.436675 -36.498197 
L 41.523568 -36.682342 
L 41.603836 -36.866487 
L 42.304205 -36.866487 
L 42.304205 -36.866487 
L 42.384473 -36.682342 
L 42.471366 -36.498197 
L 42.561975 -36.314052 
L 42.652582 -36.129907 
L 42.738887 -35.945763 
L 42.816342 -35.761618 
L 42.880559 -35.577473 
L 42.927756 -35.393328 
L 42.955181 -35.209183 
L 42.961447 -35.025038 
L 42.946753 -34.840893 
L 42.912928 -34.656748 
L 42.863319 -34.472603 
L 42.802518 -34.288458 
L 42.73597 -34.104314 
L 42.669503 -33.920169 
L 42.608846 -33.736024 
L 42.559155 -33.551879 
L 42.524616 -33.367734 
L 42.508134 -33.183589 
L 42.511118 -32.999444 
L 42.5334 -32.815299 
L 42.573256 -32.631154 
L 42.627559 -32.447009 
L 42.692035 -32.262865 
L 42.761638 -32.07872 
L 42.830997 -31.894575 
L 42.894927 -31.71043 
L 42.948937 -31.526285 
L 42.989696 -31.34214 
L 43.015398 -31.157995 
L 43.02596 -30.97385 
L 43.023041 -30.789705 
L 43.009849 -30.60556 
L 42.990765 -30.421416 
L 42.970824 -30.237271 
L 42.955125 -30.053126 
L 42.948235 -29.868981 
L 42.953688 -29.684836 
L 42.973623 -29.500691 
L 43.008621 -29.316546 
L 43.057737 -29.132401 
L 43.118739 -28.948256 
L 43.188474 -28.764111 
L 43.263334 -28.579967 
L 43.33973 -28.395822 
L 43.414527 -28.211677 
L 43.485387 -28.027532 
L 43.550995 -27.843387 
L 43.611173 -27.659242 
L 43.666897 -27.475097 
L 43.720232 -27.290952 
L 43.774239 -27.106807 
L 43.832852 -26.922662 
L 43.900738 -26.738518 
L 43.983148 -26.554373 
L 44.085731 -26.370228 
L 44.214312 -26.186083 
L 44.374616 -26.001938 
L 44.571949 -25.817793 
L 44.81084 -25.633648 
L 45.094673 -25.449503 
L 45.425321 -25.265358 
L 45.802812 -25.081213 
L 46.225035 -24.897069 
L 46.687503 -24.712924 
L 47.18318 -24.528779 
L 47.70241 -24.344634 
L 48.232953 -24.160489 
L 48.760193 -23.976344 
L 49.267539 -23.792199 
L 49.737056 -23.608054 
L 50.150332 -23.423909 
L 50.489545 -23.239764 
L 50.73866 -23.05562 
L 50.884654 -22.871475 
L 50.918612 -22.68733 
L 50.836577 -22.503185 
L 50.640012 -22.31904 
L 50.335796 -22.134895 
L 49.935748 -21.95075 
L 49.455699 -21.766605 
L 48.914236 -21.58246 
L 48.331271 -21.398315 
L 47.726596 -21.214171 
L 47.118599 -21.030026 
L 46.523262 -20.845881 
L 45.953526 -20.661736 
L 45.419039 -20.477591 
L 44.926242 -20.293446 
L 44.478715 -20.109301 
L 44.077692 -19.925156 
L 43.722622 -19.741011 
L 43.411707 -19.556866 
L 43.142353 -19.372722 
L 42.911511 -19.188577 
L 42.715902 -19.004432 
L 42.552158 -18.820287 
L 42.4169 -18.636142 
z
" style="stroke: #525252; stroke-width: 0.15"/>
    </defs>
    <g clip-path="url(#p33fc1c5b56)">
     <use xlink:href="#m386f3ce24c" x="0" y="84.96" style="fill: #977c7f; stroke: #525252; stroke-width: 0.15"/>
    </g>
   </g>
   <g id="line2d_10">
    <path d="M 19.542542 65.20447 
L 19.542542 53.565776 
" clip-path="url(#p33fc1c5b56)" style="fill: none; stroke: #8c8c8c; stroke-width: 0.75; stroke-linecap: round"/>
   </g>
   <g id="line2d_11">
    <path d="M 19.542542 62.874112 
L 19.542542 59.077035 
" clip-path="url(#p33fc1c5b56)" style="fill: none; stroke: #8c8c8c; stroke-width: 4; stroke-linecap: round"/>
   </g>
   <g id="line2d_12">
    <path d="M 19.542542 62.213255 
" clip-path="url(#p33fc1c5b56)" style="fill: none; stroke: #525252; stroke-width: 1.2; stroke-linecap: round"/>
    <defs>
     <path id="m5c4ad509f9" d="M 0 0.833333 
C 0.221003 0.833333 0.432983 0.745528 0.589256 0.589256 
C 0.745528 0.432983 0.833333 0.221003 0.833333 0 
C 0.833333 -0.221003 0.745528 -0.432983 0.589256 -0.589256 
C 0.432983 -0.745528 0.221003 -0.833333 0 -0.833333 
C -0.221003 -0.833333 -0.432983 -0.745528 -0.589256 -0.589256 
C -0.745528 -0.432983 -0.833333 -0.221003 -0.833333 0 
C -0.833333 0.221003 -0.745528 0.432983 -0.589256 0.589256 
C -0.432983 0.745528 -0.221003 0.833333 0 0.833333 
z
" style="stroke: #ffffff; stroke-width: 0.8"/>
    </defs>
    <g clip-path="url(#p33fc1c5b56)">
     <use xlink:href="#m5c4ad509f9" x="19.542542" y="62.213255" style="fill: #ffffff; stroke: #ffffff; stroke-width: 0.8"/>
    </g>
   </g>
   <g id="line2d_13">
    <path d="M 41.954021 64.544622 
L 41.954021 56.778874 
" clip-path="url(#p33fc1c5b56)" style="fill: none; stroke: #8c8c8c; stroke-width: 0.75; stroke-linecap: round"/>
   </g>
   <g id="line2d_14">
    <path d="M 41.954021 62.731438 
L 41.954021 59.827611 
" clip-path="url(#p33fc1c5b56)" style="fill: none; stroke: #8c8c8c; stroke-width: 4; stroke-linecap: round"/>
   </g>
   <g id="line2d_15">
    <path d="M 41.954021 61.776416 
" clip-path="url(#p33fc1c5b56)" style="fill: none; stroke: #525252; stroke-width: 1.2; stroke-linecap: round"/>
    <g clip-path="url(#p33fc1c5b56)">
     <use xlink:href="#m5c4ad509f9" x="41.954021" y="61.776416" style="fill: #ffffff; stroke: #ffffff; stroke-width: 0.8"/>
    </g>
   </g>
   <g id="patch_3">
    <path d="M 8.336802 74.419526 
L 8.336802 4.076256 
" style="fill: none; stroke: #777777; stroke-width: 0.5; stroke-linejoin: miter; stroke-linecap: square"/>
   </g>
   <g id="patch_4">
    <path d="M 8.336802 76.919526 
L 53.15976 76.919526 
" style="fill: none; stroke: #777777; stroke-width: 0.5; stroke-linejoin: miter; stroke-linecap: square"/>
   </g>
  </g>
 </g>
 <defs>
  <clipPath id="p33fc1c5b56">
   <rect x="8.336802" y="4.076256" width="44.822958" height="70.34327"/>
  </clipPath>
 </defs>
</svg>
