<?xml version="1.0" encoding="utf-8" standalone="no"?>
<!DOCTYPE svg PUBLIC "-//W3C//DTD SVG 1.1//EN"
  "http://www.w3.org/Graphics/SVG/1.1/DTD/svg11.dtd">
<svg xmlns:xlink="http://www.w3.org/1999/xlink" width="84.96pt" height="84.96pt" viewBox="0 0 84.96 84.96" xmlns="http://www.w3.org/2000/svg" version="1.1">
 <metadata>
  <rdf:RDF xmlns:dc="http://purl.org/dc/elements/1.1/" xmlns:cc="http://creativecommons.org/ns#" xmlns:rdf="http://www.w3.org/1999/02/22-rdf-syntax-ns#">
   <cc:Work>
    <dc:type rdf:resource="http://purl.org/dc/dcmitype/StillImage"/>
    <dc:date>2024-05-27T15:37:05.153983</dc:date>
    <dc:format>image/svg+xml</dc:format>
    <dc:creator>
     <cc:Agent>
      <dc:title>Matplotlib v3.8.3, https://matplotlib.org/</dc:title>
     </cc:Agent>
    </dc:creator>
   </cc:Work>
  </rdf:RDF>
 </metadata>
 <defs>
  <style type="text/css">*{stroke-linejoin: round; stroke-linecap: butt}</style>
 </defs>
 <g id="figure_1">
  <g id="patch_1">
   <path d="M 0 84.96 
L 84.96 84.96 
L 84.96 0 
L 0 0 
z
" style="fill: #ffffff"/>
  </g>
  <g id="axes_1">
   <g id="patch_2">
    <path d="M 8.336802 74.419526 
L 81.95976 74.419526 
L 81.95976 4.076256 
L 8.336802 4.076256 
z
" style="fill: #ffffff"/>
   </g>
   <g id="matplotlib.axis_1">
    <g id="xtick_1">
     <g id="text_1">
      <!-- B -->
      <g style="fill: #333333" transform="translate(19.439991 81.230229) scale(0.035 -0.035)">
       <defs>
        <path id="Helvetica-42" d="M 2213 2650 
Q 2606 2650 2825 2759 
Q 3169 2931 3169 3378 
Q 3169 3828 2803 3984 
Q 2597 4072 2191 4072 
L 1081 4072 
L 1081 2650 
L 2213 2650 
z
M 2422 531 
Q 2994 531 3238 863 
Q 3391 1072 3391 1369 
Q 3391 1869 2944 2050 
Q 2706 2147 2316 2147 
L 1081 2147 
L 1081 531 
L 2422 531 
z
M 472 4591 
L 2444 4591 
Q 3250 4591 3591 4109 
Q 3791 3825 3791 3453 
Q 3791 3019 3544 2741 
Q 3416 2594 3175 2472 
Q 3528 2338 3703 2169 
Q 4013 1869 4013 1341 
Q 4013 897 3734 538 
Q 3319 0 2413 0 
L 472 0 
L 472 4591 
z
" transform="scale(0.015625)"/>
       </defs>
       <use xlink:href="#Helvetica-42"/>
      </g>
     </g>
    </g>
    <g id="xtick_2">
     <g id="text_2">
      <!-- T -->
      <g style="fill: #333333" transform="translate(44.079414 81.230229) scale(0.035 -0.035)">
       <defs>
        <path id="Helvetica-54" d="M 3828 4591 
L 3828 4044 
L 2281 4044 
L 2281 0 
L 1650 0 
L 1650 4044 
L 103 4044 
L 103 4591 
L 3828 4591 
z
" transform="scale(0.015625)"/>
       </defs>
       <use xlink:href="#Helvetica-54"/>
      </g>
     </g>
    </g>
    <g id="xtick_3">
     <g id="text_3">
      <!-- IL7R Non B/T -->
      <g style="fill: #333333" transform="translate(59.088095 81.230229) scale(0.035 -0.035)">
       <defs>
        <path id="Helvetica-49" d="M 628 4591 
L 1256 4591 
L 1256 0 
L 628 0 
L 628 4591 
z
" transform="scale(0.015625)"/>
        <path id="Helvetica-4c" d="M 488 4591 
L 1109 4591 
L 1109 547 
L 3434 547 
L 3434 0 
L 488 0 
L 488 4591 
z
" transform="scale(0.015625)"/>
        <path id="Helvetica-37" d="M 3347 4400 
L 3347 3909 
Q 3131 3700 2773 3181 
Q 2416 2663 2141 2063 
Q 1869 1478 1728 997 
Q 1638 688 1494 0 
L 872 0 
Q 1084 1281 1809 2550 
Q 2238 3294 2709 3834 
L 234 3834 
L 234 4400 
L 3347 4400 
z
" transform="scale(0.015625)"/>
        <path id="Helvetica-52" d="M 2622 2488 
Q 3059 2488 3314 2663 
Q 3569 2838 3569 3294 
Q 3569 3784 3213 3963 
Q 3022 4056 2703 4056 
L 1184 4056 
L 1184 2488 
L 2622 2488 
z
M 563 4591 
L 2688 4591 
Q 3213 4591 3553 4438 
Q 4200 4144 4200 3353 
Q 4200 2941 4029 2678 
Q 3859 2416 3553 2256 
Q 3822 2147 3958 1969 
Q 4094 1791 4109 1391 
L 4131 775 
Q 4141 513 4175 384 
Q 4231 166 4375 103 
L 4375 0 
L 3613 0 
Q 3581 59 3562 153 
Q 3544 247 3531 516 
L 3494 1281 
Q 3472 1731 3159 1884 
Q 2981 1969 2600 1969 
L 1184 1969 
L 1184 0 
L 563 0 
L 563 4591 
z
" transform="scale(0.015625)"/>
        <path id="Helvetica-20" transform="scale(0.015625)"/>
        <path id="Helvetica-4e" d="M 488 4591 
L 1222 4591 
L 3541 872 
L 3541 4591 
L 4131 4591 
L 4131 0 
L 3434 0 
L 1081 3716 
L 1081 0 
L 488 0 
L 488 4591 
z
M 2269 4591 
L 2269 4591 
z
" transform="scale(0.015625)"/>
        <path id="Helvetica-6f" d="M 1741 363 
Q 2300 363 2508 786 
Q 2716 1209 2716 1728 
Q 2716 2197 2566 2491 
Q 2328 2953 1747 2953 
Q 1231 2953 997 2559 
Q 763 2166 763 1609 
Q 763 1075 997 719 
Q 1231 363 1741 363 
z
M 1763 3444 
Q 2409 3444 2856 3012 
Q 3303 2581 3303 1744 
Q 3303 934 2909 406 
Q 2516 -122 1688 -122 
Q 997 -122 590 345 
Q 184 813 184 1600 
Q 184 2444 612 2944 
Q 1041 3444 1763 3444 
z
M 1744 3428 
L 1744 3428 
z
" transform="scale(0.015625)"/>
        <path id="Helvetica-6e" d="M 413 3347 
L 947 3347 
L 947 2872 
Q 1184 3166 1450 3294 
Q 1716 3422 2041 3422 
Q 2753 3422 3003 2925 
Q 3141 2653 3141 2147 
L 3141 0 
L 2569 0 
L 2569 2109 
Q 2569 2416 2478 2603 
Q 2328 2916 1934 2916 
Q 1734 2916 1606 2875 
Q 1375 2806 1200 2600 
Q 1059 2434 1017 2257 
Q 975 2081 975 1753 
L 975 0 
L 413 0 
L 413 3347 
z
M 1734 3428 
L 1734 3428 
z
" transform="scale(0.015625)"/>
        <path id="Helvetica-2f" d="M 1456 4591 
L 1931 4591 
L 475 0 
L 0 0 
L 1456 4591 
z
" transform="scale(0.015625)"/>
       </defs>
       <use xlink:href="#Helvetica-49"/>
       <use xlink:href="#Helvetica-4c" x="27.783203"/>
       <use xlink:href="#Helvetica-37" x="83.398438"/>
       <use xlink:href="#Helvetica-52" x="139.013672"/>
       <use xlink:href="#Helvetica-20" x="211.230469"/>
       <use xlink:href="#Helvetica-4e" x="239.013672"/>
       <use xlink:href="#Helvetica-6f" x="311.230469"/>
       <use xlink:href="#Helvetica-6e" x="366.845703"/>
       <use xlink:href="#Helvetica-20" x="422.460938"/>
       <use xlink:href="#Helvetica-42" x="450.244141"/>
       <use xlink:href="#Helvetica-2f" x="516.943359"/>
       <use xlink:href="#Helvetica-54" x="544.726562"/>
      </g>
     </g>
    </g>
   </g>
   <g id="matplotlib.axis_2">
    <g id="ytick_1">
     <g id="line2d_1">
      <defs>
       <path id="maf8c873855" d="M 0 0 
L -1 0 
" style="stroke: #777777; stroke-width: 0.5"/>
      </defs>
      <g>
       <use xlink:href="#maf8c873855" x="8.336802" y="66.673159" style="fill: #777777; stroke: #777777; stroke-width: 0.5"/>
      </g>
     </g>
     <g id="text_4">
      <!-- 0 -->
      <g style="fill: #333333" transform="translate(4.668521 67.749174) scale(0.03 -0.03)">
       <defs>
        <path id="Helvetica-30" d="M 1731 4475 
Q 2600 4475 2988 3759 
Q 3288 3206 3288 2244 
Q 3288 1331 3016 734 
Q 2622 -122 1728 -122 
Q 922 -122 528 578 
Q 200 1163 200 2147 
Q 200 2909 397 3456 
Q 766 4475 1731 4475 
z
M 1725 391 
Q 2163 391 2422 778 
Q 2681 1166 2681 2222 
Q 2681 2984 2493 3476 
Q 2306 3969 1766 3969 
Q 1269 3969 1039 3501 
Q 809 3034 809 2125 
Q 809 1441 956 1025 
Q 1181 391 1725 391 
z
" transform="scale(0.015625)"/>
       </defs>
       <use xlink:href="#Helvetica-30"/>
      </g>
     </g>
    </g>
    <g id="ytick_2">
     <g id="line2d_2">
      <g>
       <use xlink:href="#maf8c873855" x="8.336802" y="58.848546" style="fill: #777777; stroke: #777777; stroke-width: 0.5"/>
      </g>
     </g>
     <g id="text_5">
      <!-- 10 -->
      <g style="fill: #333333" transform="translate(3.00024 59.924562) scale(0.03 -0.03)">
       <defs>
        <path id="Helvetica-31" d="M 613 3169 
L 613 3600 
Q 1222 3659 1462 3798 
Q 1703 3938 1822 4456 
L 2266 4456 
L 2266 0 
L 1666 0 
L 1666 3169 
L 613 3169 
z
" transform="scale(0.015625)"/>
       </defs>
       <use xlink:href="#Helvetica-31"/>
       <use xlink:href="#Helvetica-30" x="55.615234"/>
      </g>
     </g>
    </g>
    <g id="ytick_3">
     <g id="line2d_3">
      <g>
       <use xlink:href="#maf8c873855" x="8.336802" y="51.023933" style="fill: #777777; stroke: #777777; stroke-width: 0.5"/>
      </g>
     </g>
     <g id="text_6">
      <!-- 20 -->
      <g style="fill: #333333" transform="translate(3.00024 52.099949) scale(0.03 -0.03)">
       <defs>
        <path id="Helvetica-32" d="M 200 0 
Q 231 578 439 1006 
Q 647 1434 1250 1784 
L 1850 2131 
Q 2253 2366 2416 2531 
Q 2672 2791 2672 3125 
Q 2672 3516 2437 3745 
Q 2203 3975 1813 3975 
Q 1234 3975 1013 3538 
Q 894 3303 881 2888 
L 309 2888 
Q 319 3472 525 3841 
Q 891 4491 1816 4491 
Q 2584 4491 2939 4075 
Q 3294 3659 3294 3150 
Q 3294 2613 2916 2231 
Q 2697 2009 2131 1694 
L 1703 1456 
Q 1397 1288 1222 1134 
Q 909 863 828 531 
L 3272 531 
L 3272 0 
L 200 0 
z
" transform="scale(0.015625)"/>
       </defs>
       <use xlink:href="#Helvetica-32"/>
       <use xlink:href="#Helvetica-30" x="55.615234"/>
      </g>
     </g>
    </g>
    <g id="ytick_4">
     <g id="line2d_4">
      <g>
       <use xlink:href="#maf8c873855" x="8.336802" y="43.19932" style="fill: #777777; stroke: #777777; stroke-width: 0.5"/>
      </g>
     </g>
     <g id="text_7">
      <!-- 30 -->
      <g style="fill: #333333" transform="translate(3.00024 44.275336) scale(0.03 -0.03)">
       <defs>
        <path id="Helvetica-33" d="M 1663 -122 
Q 869 -122 511 314 
Q 153 750 153 1375 
L 741 1375 
Q 778 941 903 744 
Q 1122 391 1694 391 
Q 2138 391 2406 628 
Q 2675 866 2675 1241 
Q 2675 1703 2392 1887 
Q 2109 2072 1606 2072 
Q 1550 2072 1492 2070 
Q 1434 2069 1375 2066 
L 1375 2563 
Q 1463 2553 1522 2550 
Q 1581 2547 1650 2547 
Q 1966 2547 2169 2647 
Q 2525 2822 2525 3272 
Q 2525 3606 2287 3787 
Q 2050 3969 1734 3969 
Q 1172 3969 956 3594 
Q 838 3388 822 3006 
L 266 3006 
Q 266 3506 466 3856 
Q 809 4481 1675 4481 
Q 2359 4481 2734 4176 
Q 3109 3872 3109 3294 
Q 3109 2881 2888 2625 
Q 2750 2466 2531 2375 
Q 2884 2278 3082 2001 
Q 3281 1725 3281 1325 
Q 3281 684 2859 281 
Q 2438 -122 1663 -122 
z
" transform="scale(0.015625)"/>
       </defs>
       <use xlink:href="#Helvetica-33"/>
       <use xlink:href="#Helvetica-30" x="55.615234"/>
      </g>
     </g>
    </g>
    <g id="ytick_5">
     <g id="line2d_5">
      <g>
       <use xlink:href="#maf8c873855" x="8.336802" y="35.374707" style="fill: #777777; stroke: #777777; stroke-width: 0.5"/>
      </g>
     </g>
     <g id="text_8">
      <!-- 40 -->
      <g style="fill: #333333" transform="translate(3.00024 36.450723) scale(0.03 -0.03)">
       <defs>
        <path id="Helvetica-34" d="M 2116 1584 
L 2116 3613 
L 681 1584 
L 2116 1584 
z
M 2125 0 
L 2125 1094 
L 163 1094 
L 163 1644 
L 2213 4488 
L 2688 4488 
L 2688 1584 
L 3347 1584 
L 3347 1094 
L 2688 1094 
L 2688 0 
L 2125 0 
z
" transform="scale(0.015625)"/>
       </defs>
       <use xlink:href="#Helvetica-34"/>
       <use xlink:href="#Helvetica-30" x="55.615234"/>
      </g>
     </g>
    </g>
    <g id="ytick_6">
     <g id="line2d_6">
      <g>
       <use xlink:href="#maf8c873855" x="8.336802" y="27.550094" style="fill: #777777; stroke: #777777; stroke-width: 0.5"/>
      </g>
     </g>
     <g id="text_9">
      <!-- 50 -->
      <g style="fill: #333333" transform="translate(3.00024 28.62611) scale(0.03 -0.03)">
       <defs>
        <path id="Helvetica-35" d="M 791 1141 
Q 847 659 1238 475 
Q 1438 381 1700 381 
Q 2200 381 2440 700 
Q 2681 1019 2681 1406 
Q 2681 1875 2395 2131 
Q 2109 2388 1709 2388 
Q 1419 2388 1211 2275 
Q 1003 2163 856 1963 
L 369 1991 
L 709 4400 
L 3034 4400 
L 3034 3856 
L 1131 3856 
L 941 2613 
Q 1097 2731 1238 2791 
Q 1488 2894 1816 2894 
Q 2431 2894 2859 2497 
Q 3288 2100 3288 1491 
Q 3288 856 2895 371 
Q 2503 -113 1644 -113 
Q 1097 -113 676 195 
Q 256 503 206 1141 
L 791 1141 
z
" transform="scale(0.015625)"/>
       </defs>
       <use xlink:href="#Helvetica-35"/>
       <use xlink:href="#Helvetica-30" x="55.615234"/>
      </g>
     </g>
    </g>
    <g id="ytick_7">
     <g id="line2d_7">
      <g>
       <use xlink:href="#maf8c873855" x="8.336802" y="19.725481" style="fill: #777777; stroke: #777777; stroke-width: 0.5"/>
      </g>
     </g>
     <g id="text_10">
      <!-- 60 -->
      <g style="fill: #333333" transform="translate(3.00024 20.801497) scale(0.03 -0.03)">
       <defs>
        <path id="Helvetica-36" d="M 1872 4494 
Q 2622 4494 2917 4105 
Q 3213 3716 3213 3303 
L 2656 3303 
Q 2606 3569 2497 3719 
Q 2294 4000 1881 4000 
Q 1409 4000 1131 3564 
Q 853 3128 822 2316 
Q 1016 2600 1309 2741 
Q 1578 2866 1909 2866 
Q 2472 2866 2890 2506 
Q 3309 2147 3309 1434 
Q 3309 825 2912 354 
Q 2516 -116 1781 -116 
Q 1153 -116 697 361 
Q 241 838 241 1966 
Q 241 2800 444 3381 
Q 834 4494 1872 4494 
z
M 1831 384 
Q 2275 384 2495 682 
Q 2716 981 2716 1388 
Q 2716 1731 2519 2042 
Q 2322 2353 1803 2353 
Q 1441 2353 1167 2112 
Q 894 1872 894 1388 
Q 894 963 1142 673 
Q 1391 384 1831 384 
z
" transform="scale(0.015625)"/>
       </defs>
       <use xlink:href="#Helvetica-36"/>
       <use xlink:href="#Helvetica-30" x="55.615234"/>
      </g>
     </g>
    </g>
    <g id="ytick_8">
     <g id="line2d_8">
      <g>
       <use xlink:href="#maf8c873855" x="8.336802" y="11.900869" style="fill: #777777; stroke: #777777; stroke-width: 0.5"/>
      </g>
     </g>
     <g id="text_11">
      <!-- 70 -->
      <g style="fill: #333333" transform="translate(3.00024 12.976884) scale(0.03 -0.03)">
       <use xlink:href="#Helvetica-37"/>
       <use xlink:href="#Helvetica-30" x="55.615234"/>
      </g>
     </g>
    </g>
    <g id="ytick_9">
     <g id="line2d_9">
      <g>
       <use xlink:href="#maf8c873855" x="8.336802" y="4.076256" style="fill: #777777; stroke: #777777; stroke-width: 0.5"/>
      </g>
     </g>
     <g id="text_12">
      <!-- 80 -->
      <g style="fill: #333333" transform="translate(3.00024 5.152271) scale(0.03 -0.03)">
       <defs>
        <path id="Helvetica-38" d="M 1741 2600 
Q 2113 2600 2322 2808 
Q 2531 3016 2531 3303 
Q 2531 3553 2331 3762 
Q 2131 3972 1722 3972 
Q 1316 3972 1134 3762 
Q 953 3553 953 3272 
Q 953 2956 1187 2778 
Q 1422 2600 1741 2600 
z
M 1775 384 
Q 2166 384 2423 595 
Q 2681 806 2681 1225 
Q 2681 1659 2415 1884 
Q 2150 2109 1734 2109 
Q 1331 2109 1076 1879 
Q 822 1650 822 1244 
Q 822 894 1055 639 
Q 1288 384 1775 384 
z
M 975 2384 
Q 741 2484 609 2619 
Q 363 2869 363 3269 
Q 363 3769 725 4128 
Q 1088 4488 1753 4488 
Q 2397 4488 2762 4148 
Q 3128 3809 3128 3356 
Q 3128 2938 2916 2678 
Q 2797 2531 2547 2391 
Q 2825 2263 2984 2097 
Q 3281 1784 3281 1284 
Q 3281 694 2884 283 
Q 2488 -128 1763 -128 
Q 1109 -128 657 226 
Q 206 581 206 1256 
Q 206 1653 400 1942 
Q 594 2231 975 2384 
z
" transform="scale(0.015625)"/>
       </defs>
       <use xlink:href="#Helvetica-38"/>
       <use xlink:href="#Helvetica-30" x="55.615234"/>
      </g>
     </g>
    </g>
   </g>
   <g id="PolyCollection_1">
    <defs>
     <path id="m8a7cc47e6e" d="M 21.044264 -42.340379 
L 20.170327 -42.340379 
L 20.063883 -42.577958 
L 19.947198 -42.815537 
L 19.823648 -43.053115 
L 19.697371 -43.290694 
L 19.572751 -43.528273 
L 19.453728 -43.765851 
L 19.342988 -44.00343 
L 19.241157 -44.241009 
L 19.146121 -44.478587 
L 19.052617 -44.716166 
L 18.952213 -44.953744 
L 18.833737 -45.191323 
L 18.684168 -45.428902 
L 18.489934 -45.66648 
L 18.238461 -45.904059 
L 17.919815 -46.141638 
L 17.528195 -46.379216 
L 17.063081 -46.616795 
L 16.52985 -46.854374 
L 15.939738 -47.091952 
L 15.309137 -47.329531 
L 14.658274 -47.56711 
L 14.009441 -47.804688 
L 13.384984 -48.042267 
L 12.805333 -48.279846 
L 12.287316 -48.517424 
L 11.842969 -48.755003 
L 11.479007 -48.992582 
L 11.196957 -49.23016 
L 10.993929 -49.467739 
L 10.863837 -49.705318 
L 10.798863 -49.942896 
L 10.790901 -50.180475 
L 10.832753 -50.418054 
L 10.918887 -50.655632 
L 11.045659 -50.893211 
L 11.211024 -51.13079 
L 11.413805 -51.368368 
L 11.652733 -51.605947 
L 11.925451 -51.843526 
L 12.227697 -52.081104 
L 12.552838 -52.318683 
L 12.89183 -52.556262 
L 13.233618 -52.79384 
L 13.565897 -53.031419 
L 13.876089 -53.268998 
L 14.1524 -53.506576 
L 14.384791 -53.744155 
L 14.565775 -53.981733 
L 14.69097 -54.219312 
L 14.759406 -54.456891 
L 14.773607 -54.694469 
L 14.73949 -54.932048 
L 14.666091 -55.169627 
L 14.565152 -55.407205 
L 14.450543 -55.644784 
L 14.337503 -55.882363 
L 14.241713 -56.119941 
L 14.178222 -56.35752 
L 14.16031 -56.595099 
L 14.198399 -56.832677 
L 14.29916 -57.070256 
L 14.464944 -57.307835 
L 14.693627 -57.545413 
L 14.978901 -57.782992 
L 15.310954 -58.020571 
L 15.677425 -58.258149 
L 16.064465 -58.495728 
L 16.45775 -58.733307 
L 16.843308 -58.970885 
L 17.208096 -59.208464 
L 17.540336 -59.446043 
L 17.829681 -59.683621 
L 18.067319 -59.9212 
L 18.246128 -60.158779 
L 18.360964 -60.396357 
L 18.409092 -60.633936 
L 18.390734 -60.871515 
L 18.3096 -61.109093 
L 18.173278 -61.346672 
L 17.993318 -61.584251 
L 17.784909 -61.821829 
L 17.566067 -62.059408 
L 17.356393 -62.296987 
L 17.175483 -62.534565 
L 17.041186 -62.772144 
L 16.967937 -63.009722 
L 16.965395 -63.247301 
L 17.037574 -63.48488 
L 17.182602 -63.722458 
L 17.393125 -63.960037 
L 17.657293 -64.197616 
L 17.96018 -64.435194 
L 18.285405 -64.672773 
L 18.616763 -64.910352 
L 18.93963 -65.14793 
L 19.242011 -65.385509 
L 19.515154 -65.623088 
L 19.75371 -65.860666 
L 21.460881 -65.860666 
L 21.460881 -65.860666 
L 21.699436 -65.623088 
L 21.972579 -65.385509 
L 22.274961 -65.14793 
L 22.597828 -64.910352 
L 22.929186 -64.672773 
L 23.254411 -64.435194 
L 23.557298 -64.197616 
L 23.821466 -63.960037 
L 24.031989 -63.722458 
L 24.177016 -63.48488 
L 24.249196 -63.247301 
L 24.246654 -63.009722 
L 24.173405 -62.772144 
L 24.039108 -62.534565 
L 23.858198 -62.296987 
L 23.648524 -62.059408 
L 23.429682 -61.821829 
L 23.221272 -61.584251 
L 23.041313 -61.346672 
L 22.904991 -61.109093 
L 22.823857 -60.871515 
L 22.805499 -60.633936 
L 22.853627 -60.396357 
L 22.968462 -60.158779 
L 23.147272 -59.9212 
L 23.38491 -59.683621 
L 23.674255 -59.446043 
L 24.006495 -59.208464 
L 24.371283 -58.970885 
L 24.756841 -58.733307 
L 25.150126 -58.495728 
L 25.537166 -58.258149 
L 25.903637 -58.020571 
L 26.23569 -57.782992 
L 26.520964 -57.545413 
L 26.749647 -57.307835 
L 26.915431 -57.070256 
L 27.016192 -56.832677 
L 27.054281 -56.595099 
L 27.036369 -56.35752 
L 26.972878 -56.119941 
L 26.877088 -55.882363 
L 26.764048 -55.644784 
L 26.649439 -55.407205 
L 26.5485 -55.169627 
L 26.475101 -54.932048 
L 26.440983 -54.694469 
L 26.455185 -54.456891 
L 26.523621 -54.219312 
L 26.648815 -53.981733 
L 26.8298 -53.744155 
L 27.062191 -53.506576 
L 27.338502 -53.268998 
L 27.648694 -53.031419 
L 27.980973 -52.79384 
L 28.322761 -52.556262 
L 28.661752 -52.318683 
L 28.986893 -52.081104 
L 29.28914 -51.843526 
L 29.561858 -51.605947 
L 29.800786 -51.368368 
L 30.003567 -51.13079 
L 30.168931 -50.893211 
L 30.295704 -50.655632 
L 30.381837 -50.418054 
L 30.42369 -50.180475 
L 30.415728 -49.942896 
L 30.350754 -49.705318 
L 30.220662 -49.467739 
L 30.017634 -49.23016 
L 29.735584 -48.992582 
L 29.371621 -48.755003 
L 28.927275 -48.517424 
L 28.409257 -48.279846 
L 27.829607 -48.042267 
L 27.20515 -47.804688 
L 26.556316 -47.56711 
L 25.905454 -47.329531 
L 25.274853 -47.091952 
L 24.684741 -46.854374 
L 24.151509 -46.616795 
L 23.686396 -46.379216 
L 23.294776 -46.141638 
L 22.97613 -45.904059 
L 22.724657 -45.66648 
L 22.530422 -45.428902 
L 22.380854 -45.191323 
L 22.262378 -44.953744 
L 22.161974 -44.716166 
L 22.06847 -44.478587 
L 21.973434 -44.241009 
L 21.871603 -44.00343 
L 21.760863 -43.765851 
L 21.64184 -43.528273 
L 21.51722 -43.290694 
L 21.390942 -43.053115 
L 21.267393 -42.815537 
L 21.150708 -42.577958 
L 21.044264 -42.340379 
z
" style="stroke: #414141; stroke-width: 0.15"/>
    </defs>
    <g clip-path="url(#p14f08b0647)">
     <use xlink:href="#m8a7cc47e6e" x="0" y="84.96" style="fill: #abc9ea; stroke: #414141; stroke-width: 0.15"/>
    </g>
   </g>
   <g id="PolyCollection_2">
    <defs>
     <path id="mfe27c86aec" d="M 46.066041 -18.890499 
L 44.230522 -18.890499 
L 43.970506 -18.996655 
L 43.662907 -19.102811 
L 43.306767 -19.208967 
L 42.903268 -19.315123 
L 42.456007 -19.421279 
L 41.971088 -19.527434 
L 41.456994 -19.63359 
L 40.924244 -19.739746 
L 40.384818 -19.845902 
L 39.851424 -19.952058 
L 39.336656 -20.058214 
L 38.852141 -20.16437 
L 38.407761 -20.270525 
L 38.011041 -20.376681 
L 37.666765 -20.482837 
L 37.376851 -20.588993 
L 37.140482 -20.695149 
L 36.954449 -20.801305 
L 36.813654 -20.907461 
L 36.711664 -21.013616 
L 36.641267 -21.119772 
L 36.594949 -21.225928 
L 36.565256 -21.332084 
L 36.545048 -21.43824 
L 36.527663 -21.544396 
L 36.507038 -21.650552 
L 36.477841 -21.756707 
L 36.435642 -21.862863 
L 36.377146 -21.969019 
L 36.300475 -22.075175 
L 36.205443 -22.181331 
L 36.093767 -22.287487 
L 35.969147 -22.393643 
L 35.837164 -22.499798 
L 35.704972 -22.605954 
L 35.580805 -22.71211 
L 35.473358 -22.818266 
L 35.391129 -22.924422 
L 35.341822 -23.030578 
L 35.331887 -23.136733 
L 35.366269 -23.242889 
L 35.448353 -23.349045 
L 35.580089 -23.455201 
L 35.7622 -23.561357 
L 35.994399 -23.667513 
L 36.275514 -23.773669 
L 36.603467 -23.879824 
L 36.975097 -23.98598 
L 37.385867 -24.092136 
L 37.829526 -24.198292 
L 38.297849 -24.304448 
L 38.780542 -24.410604 
L 39.265414 -24.51676 
L 39.738829 -24.622915 
L 40.186438 -24.729071 
L 40.594105 -24.835227 
L 40.94893 -24.941383 
L 41.240241 -25.047539 
L 41.460422 -25.153695 
L 41.60551 -25.259851 
L 41.675476 -25.366006 
L 41.674208 -25.472162 
L 41.609201 -25.578318 
L 41.49102 -25.684474 
L 41.332602 -25.79063 
L 41.14844 -25.896786 
L 40.953731 -26.002942 
L 40.763503 -26.109097 
L 40.591749 -26.215253 
L 40.450618 -26.321409 
L 40.349672 -26.427565 
L 40.295269 -26.533721 
L 40.290138 -26.639877 
L 40.3332 -26.746033 
L 40.419707 -26.852188 
L 40.541722 -26.958344 
L 40.688947 -27.0645 
L 40.849827 -27.170656 
L 41.012835 -27.276812 
L 41.16779 -27.382968 
L 41.307023 -27.489124 
L 41.426243 -27.595279 
L 41.524972 -27.701435 
L 41.606474 -27.807591 
L 41.677182 -27.913747 
L 41.745718 -28.019903 
L 41.82163 -28.126059 
L 41.914049 -28.232215 
L 42.030452 -28.33837 
L 42.1757 -28.444526 
L 42.351472 -28.550682 
L 42.55615 -28.656838 
L 42.785136 -28.762994 
L 43.031513 -28.86915 
L 43.286933 -28.975306 
L 43.542579 -29.081461 
L 43.790068 -29.187617 
L 44.022194 -29.293773 
L 44.233421 -29.399929 
L 46.063141 -29.399929 
L 46.063141 -29.399929 
L 46.274369 -29.293773 
L 46.506495 -29.187617 
L 46.753984 -29.081461 
L 47.009629 -28.975306 
L 47.265049 -28.86915 
L 47.511427 -28.762994 
L 47.740413 -28.656838 
L 47.945091 -28.550682 
L 48.120862 -28.444526 
L 48.26611 -28.33837 
L 48.382514 -28.232215 
L 48.474933 -28.126059 
L 48.550845 -28.019903 
L 48.61938 -27.913747 
L 48.690089 -27.807591 
L 48.77159 -27.701435 
L 48.87032 -27.595279 
L 48.98954 -27.489124 
L 49.128772 -27.382968 
L 49.283727 -27.276812 
L 49.446736 -27.170656 
L 49.607615 -27.0645 
L 49.75484 -26.958344 
L 49.876856 -26.852188 
L 49.963362 -26.746033 
L 50.006424 -26.639877 
L 50.001293 -26.533721 
L 49.94689 -26.427565 
L 49.845944 -26.321409 
L 49.704814 -26.215253 
L 49.53306 -26.109097 
L 49.342831 -26.002942 
L 49.148123 -25.896786 
L 48.963961 -25.79063 
L 48.805542 -25.684474 
L 48.687362 -25.578318 
L 48.622355 -25.472162 
L 48.621086 -25.366006 
L 48.691053 -25.259851 
L 48.83614 -25.153695 
L 49.056322 -25.047539 
L 49.347632 -24.941383 
L 49.702458 -24.835227 
L 50.110124 -24.729071 
L 50.557733 -24.622915 
L 51.031149 -24.51676 
L 51.516021 -24.410604 
L 51.998714 -24.304448 
L 52.467036 -24.198292 
L 52.910696 -24.092136 
L 53.321466 -23.98598 
L 53.693096 -23.879824 
L 54.021048 -23.773669 
L 54.302163 -23.667513 
L 54.534362 -23.561357 
L 54.716473 -23.455201 
L 54.848209 -23.349045 
L 54.930294 -23.242889 
L 54.964676 -23.136733 
L 54.954741 -23.030578 
L 54.905433 -22.924422 
L 54.823204 -22.818266 
L 54.715757 -22.71211 
L 54.59159 -22.605954 
L 54.459398 -22.499798 
L 54.327416 -22.393643 
L 54.202796 -22.287487 
L 54.09112 -22.181331 
L 53.996088 -22.075175 
L 53.919417 -21.969019 
L 53.860921 -21.862863 
L 53.818721 -21.756707 
L 53.789524 -21.650552 
L 53.7689 -21.544396 
L 53.751514 -21.43824 
L 53.731306 -21.332084 
L 53.701613 -21.225928 
L 53.655295 -21.119772 
L 53.584899 -21.013616 
L 53.482909 -20.907461 
L 53.342113 -20.801305 
L 53.156081 -20.695149 
L 52.919711 -20.588993 
L 52.629797 -20.482837 
L 52.285522 -20.376681 
L 51.888802 -20.270525 
L 51.444422 -20.16437 
L 50.959907 -20.058214 
L 50.445139 -19.952058 
L 49.911745 -19.845902 
L 49.372318 -19.739746 
L 48.839568 -19.63359 
L 48.325475 -19.527434 
L 47.840555 -19.421279 
L 47.393295 -19.315123 
L 46.989796 -19.208967 
L 46.633655 -19.102811 
L 46.326057 -18.996655 
L 46.066041 -18.890499 
z
" style="stroke: #414141; stroke-width: 0.15"/>
    </defs>
    <g clip-path="url(#p14f08b0647)">
     <use xlink:href="#mfe27c86aec" x="0" y="84.96" style="fill: #efb792; stroke: #414141; stroke-width: 0.15"/>
    </g>
   </g>
   <g id="PolyCollection_3">
    <defs>
     <path id="m34c81c8c73" d="M 71.309439 -17.042257 
L 68.069095 -17.042257 
L 67.616972 -17.174821 
L 67.089712 -17.307385 
L 66.490483 -17.43995 
L 65.827341 -17.572514 
L 65.113472 -17.705078 
L 64.366933 -17.837643 
L 63.60985 -17.970207 
L 62.867073 -18.102771 
L 62.164416 -18.235336 
L 61.526638 -18.3679 
L 60.975399 -18.500464 
L 60.527446 -18.633029 
L 60.193246 -18.765593 
L 59.976249 -18.898157 
L 59.872873 -19.030722 
L 59.873207 -19.163286 
L 59.962332 -19.29585 
L 60.12209 -19.428415 
L 60.333074 -19.560979 
L 60.576599 -19.693543 
L 60.836438 -19.826108 
L 61.100129 -19.958672 
L 61.359754 -20.091236 
L 61.612127 -20.2238 
L 61.858425 -20.356365 
L 62.103343 -20.488929 
L 62.353905 -20.621493 
L 62.618096 -20.754058 
L 62.90348 -20.886622 
L 63.215972 -21.019186 
L 63.558892 -21.151751 
L 63.932382 -21.284315 
L 64.333255 -21.416879 
L 64.755235 -21.549444 
L 65.189558 -21.682008 
L 65.625829 -21.814572 
L 66.053027 -21.947137 
L 66.460536 -22.079701 
L 66.83908 -22.212265 
L 67.18148 -22.34483 
L 67.48315 -22.477394 
L 67.742306 -22.609958 
L 67.959884 -22.742523 
L 68.139204 -22.875087 
L 68.285424 -23.007651 
L 68.404873 -23.140216 
L 68.504336 -23.27278 
L 68.590378 -23.405344 
L 68.668771 -23.537908 
L 68.744083 -23.670473 
L 68.819449 -23.803037 
L 68.896533 -23.935601 
L 68.975642 -24.068166 
L 69.055982 -24.20073 
L 69.135968 -24.333294 
L 69.213567 -24.465859 
L 69.286609 -24.598423 
L 69.353027 -24.730987 
L 69.411031 -24.863552 
L 69.459175 -24.996116 
L 69.496364 -25.12868 
L 69.5218 -25.261245 
L 69.534896 -25.393809 
L 69.535193 -25.526373 
L 69.522293 -25.658938 
L 69.495832 -25.791502 
L 69.455487 -25.924066 
L 69.401029 -26.056631 
L 69.332405 -26.189195 
L 69.24983 -26.321759 
L 69.153878 -26.454324 
L 69.045556 -26.586888 
L 68.926347 -26.719452 
L 68.798219 -26.852016 
L 68.663598 -26.984581 
L 68.525321 -27.117145 
L 68.386561 -27.249709 
L 68.250756 -27.382274 
L 68.121524 -27.514838 
L 68.002584 -27.647402 
L 67.897658 -27.779967 
L 67.810359 -27.912531 
L 67.744046 -28.045095 
L 67.701653 -28.17766 
L 67.685489 -28.310224 
L 67.697027 -28.442788 
L 67.736713 -28.575353 
L 67.80383 -28.707917 
L 67.896432 -28.840481 
L 68.011389 -28.973046 
L 68.144541 -29.10561 
L 68.290951 -29.238174 
L 68.445248 -29.370739 
L 68.601993 -29.503303 
L 68.756055 -29.635867 
L 68.902934 -29.768432 
L 69.039002 -29.900996 
L 69.16165 -30.03356 
L 69.269322 -30.166124 
L 70.109212 -30.166124 
L 70.109212 -30.166124 
L 70.216884 -30.03356 
L 70.339532 -29.900996 
L 70.4756 -29.768432 
L 70.622479 -29.635867 
L 70.776541 -29.503303 
L 70.933286 -29.370739 
L 71.087583 -29.238174 
L 71.233994 -29.10561 
L 71.367145 -28.973046 
L 71.482102 -28.840481 
L 71.574704 -28.707917 
L 71.641821 -28.575353 
L 71.681508 -28.442788 
L 71.693045 -28.310224 
L 71.676881 -28.17766 
L 71.634488 -28.045095 
L 71.568175 -27.912531 
L 71.480876 -27.779967 
L 71.37595 -27.647402 
L 71.25701 -27.514838 
L 71.127778 -27.382274 
L 70.991973 -27.249709 
L 70.853213 -27.117145 
L 70.714936 -26.984581 
L 70.580316 -26.852016 
L 70.452188 -26.719452 
L 70.332979 -26.586888 
L 70.224656 -26.454324 
L 70.128704 -26.321759 
L 70.046129 -26.189195 
L 69.977505 -26.056631 
L 69.923048 -25.924066 
L 69.882702 -25.791502 
L 69.856241 -25.658938 
L 69.843341 -25.526373 
L 69.843638 -25.393809 
L 69.856734 -25.261245 
L 69.88217 -25.12868 
L 69.91936 -24.996116 
L 69.967503 -24.863552 
L 70.025507 -24.730987 
L 70.091926 -24.598423 
L 70.164967 -24.465859 
L 70.242566 -24.333294 
L 70.322552 -24.20073 
L 70.402892 -24.068166 
L 70.482001 -23.935601 
L 70.559085 -23.803037 
L 70.634452 -23.670473 
L 70.709763 -23.537908 
L 70.788156 -23.405344 
L 70.874198 -23.27278 
L 70.973661 -23.140216 
L 71.09311 -23.007651 
L 71.23933 -22.875087 
L 71.41865 -22.742523 
L 71.636228 -22.609958 
L 71.895384 -22.477394 
L 72.197054 -22.34483 
L 72.539454 -22.212265 
L 72.917998 -22.079701 
L 73.325507 -21.947137 
L 73.752705 -21.814572 
L 74.188976 -21.682008 
L 74.623299 -21.549444 
L 75.045279 -21.416879 
L 75.446152 -21.284315 
L 75.819642 -21.151751 
L 76.162562 -21.019186 
L 76.475055 -20.886622 
L 76.760439 -20.754058 
L 77.024629 -20.621493 
L 77.275191 -20.488929 
L 77.520109 -20.356365 
L 77.766408 -20.2238 
L 78.018781 -20.091236 
L 78.278405 -19.958672 
L 78.542096 -19.826108 
L 78.801935 -19.693543 
L 79.04546 -19.560979 
L 79.256444 -19.428415 
L 79.416202 -19.29585 
L 79.505328 -19.163286 
L 79.505661 -19.030722 
L 79.402285 -18.898157 
L 79.185288 -18.765593 
L 78.851088 -18.633029 
L 78.403135 -18.500464 
L 77.851897 -18.3679 
L 77.214118 -18.235336 
L 76.511462 -18.102771 
L 75.768685 -17.970207 
L 75.011601 -17.837643 
L 74.265062 -17.705078 
L 73.551193 -17.572514 
L 72.888051 -17.43995 
L 72.288822 -17.307385 
L 71.761562 -17.174821 
L 71.309439 -17.042257 
z
" style="stroke: #414141; stroke-width: 0.15"/>
    </defs>
    <g clip-path="url(#p14f08b0647)">
     <use xlink:href="#m34c81c8c73" x="0" y="84.96" style="fill: #7e5c60; stroke: #414141; stroke-width: 0.15"/>
    </g>
   </g>
   <g id="line2d_10">
    <path d="M 20.607295 40.426467 
L 20.607295 21.292488 
" clip-path="url(#p14f08b0647)" style="fill: none; stroke: #8c8c8c; stroke-width: 0.75; stroke-linecap: round"/>
   </g>
   <g id="line2d_11">
    <path d="M 20.607295 35.472958 
L 20.607295 27.984487 
" clip-path="url(#p14f08b0647)" style="fill: none; stroke: #8c8c8c; stroke-width: 4; stroke-linecap: round"/>
   </g>
   <g id="line2d_12">
    <path d="M 20.607295 32.726798 
" clip-path="url(#p14f08b0647)" style="fill: none; stroke: #414141; stroke-width: 1.2; stroke-linecap: round"/>
    <defs>
     <path id="m3ce3186b53" d="M 0 0.833333 
C 0.221003 0.833333 0.432983 0.745528 0.589256 0.589256 
C 0.745528 0.432983 0.833333 0.221003 0.833333 0 
C 0.833333 -0.221003 0.745528 -0.432983 0.589256 -0.589256 
C 0.432983 -0.745528 0.221003 -0.833333 0 -0.833333 
C -0.221003 -0.833333 -0.432983 -0.745528 -0.589256 -0.589256 
C -0.745528 -0.432983 -0.833333 -0.221003 -0.833333 0 
C -0.833333 0.221003 -0.745528 0.432983 -0.589256 0.589256 
C -0.432983 0.745528 -0.221003 0.833333 0 0.833333 
z
" style="stroke: #ffffff; stroke-width: 0.8"/>
    </defs>
    <g clip-path="url(#p14f08b0647)">
     <use xlink:href="#m3ce3186b53" x="20.607295" y="32.726798" style="fill: #ffffff; stroke: #ffffff; stroke-width: 0.8"/>
    </g>
   </g>
   <g id="line2d_13">
    <path d="M 45.148281 65.0115 
L 45.148281 56.618072 
" clip-path="url(#p14f08b0647)" style="fill: none; stroke: #8c8c8c; stroke-width: 0.75; stroke-linecap: round"/>
   </g>
   <g id="line2d_14">
    <path d="M 45.148281 63.414688 
L 45.148281 60.214957 
" clip-path="url(#p14f08b0647)" style="fill: none; stroke: #8c8c8c; stroke-width: 4; stroke-linecap: round"/>
   </g>
   <g id="line2d_15">
    <path d="M 45.148281 61.786867 
" clip-path="url(#p14f08b0647)" style="fill: none; stroke: #414141; stroke-width: 1.2; stroke-linecap: round"/>
    <g clip-path="url(#p14f08b0647)">
     <use xlink:href="#m3ce3186b53" x="45.148281" y="61.786867" style="fill: #ffffff; stroke: #ffffff; stroke-width: 0.8"/>
    </g>
   </g>
   <g id="line2d_16">
    <path d="M 69.689267 66.60209 
L 69.689267 61.457826 
" clip-path="url(#p14f08b0647)" style="fill: none; stroke: #8c8c8c; stroke-width: 0.75; stroke-linecap: round"/>
   </g>
   <g id="line2d_17">
    <path d="M 69.689267 66.205715 
L 69.689267 63.730301 
" clip-path="url(#p14f08b0647)" style="fill: none; stroke: #8c8c8c; stroke-width: 4; stroke-linecap: round"/>
   </g>
   <g id="line2d_18">
    <path d="M 69.689267 65.152833 
" clip-path="url(#p14f08b0647)" style="fill: none; stroke: #414141; stroke-width: 1.2; stroke-linecap: round"/>
    <g clip-path="url(#p14f08b0647)">
     <use xlink:href="#m3ce3186b53" x="69.689267" y="65.152833" style="fill: #ffffff; stroke: #ffffff; stroke-width: 0.8"/>
    </g>
   </g>
   <g id="patch_3">
    <path d="M 8.336802 74.419526 
L 8.336802 4.076256 
" style="fill: none; stroke: #777777; stroke-width: 0.5; stroke-linejoin: miter; stroke-linecap: square"/>
   </g>
   <g id="patch_4">
    <path d="M 8.336802 76.919526 
L 81.95976 76.919526 
" style="fill: none; stroke: #777777; stroke-width: 0.5; stroke-linejoin: miter; stroke-linecap: square"/>
   </g>
  </g>
 </g>
 <defs>
  <clipPath id="p14f08b0647">
   <rect x="8.336802" y="4.076256" width="73.622957" height="70.34327"/>
  </clipPath>
 </defs>
</svg>
