<?xml version="1.0" encoding="utf-8" standalone="no"?>
<!DOCTYPE svg PUBLIC "-//W3C//DTD SVG 1.1//EN"
  "http://www.w3.org/Graphics/SVG/1.1/DTD/svg11.dtd">
<svg xmlns:xlink="http://www.w3.org/1999/xlink" width="169.92pt" height="56.16pt" viewBox="0 0 169.92 56.16" xmlns="http://www.w3.org/2000/svg" version="1.1">
 <metadata>
  <rdf:RDF xmlns:dc="http://purl.org/dc/elements/1.1/" xmlns:cc="http://creativecommons.org/ns#" xmlns:rdf="http://www.w3.org/1999/02/22-rdf-syntax-ns#">
   <cc:Work>
    <dc:type rdf:resource="http://purl.org/dc/dcmitype/StillImage"/>
    <dc:date>2024-05-27T15:37:25.513374</dc:date>
    <dc:format>image/svg+xml</dc:format>
    <dc:creator>
     <cc:Agent>
      <dc:title>Matplotlib v3.8.3, https://matplotlib.org/</dc:title>
     </cc:Agent>
    </dc:creator>
   </cc:Work>
  </rdf:RDF>
 </metadata>
 <defs>
  <style type="text/css">*{stroke-linejoin: round; stroke-linecap: butt}</style>
 </defs>
 <g id="figure_1">
  <g id="patch_1">
   <path d="M 0 56.16 
L 169.92 56.16 
L 169.92 0 
L 0 0 
z
" style="fill: #ffffff"/>
  </g>
  <g id="axes_1">
   <g id="patch_2">
    <path d="M 8.040474 45.323198 
L 80.571088 45.323198 
L 80.571088 3.00024 
L 8.040474 3.00024 
z
" style="fill: #ffffff"/>
   </g>
   <g id="matplotlib.axis_1">
    <g id="xtick_1">
     <g id="line2d_1">
      <defs>
       <path id="m11f49eab9a" d="M 0 0 
L 0 1 
" style="stroke: #777777; stroke-width: 0.5"/>
      </defs>
      <g>
       <use xlink:href="#m11f49eab9a" x="19.876014" y="47.823198" style="fill: #777777; stroke: #777777; stroke-width: 0.5"/>
      </g>
     </g>
     <g id="text_1">
      <!-- 0 -->
      <g style="fill: #333333" transform="translate(20.639373 51.491479) rotate(-90) scale(0.03 -0.03)">
       <defs>
        <path id="Helvetica-30" d="M 1731 4475 
Q 2600 4475 2988 3759 
Q 3288 3206 3288 2244 
Q 3288 1331 3016 734 
Q 2622 -122 1728 -122 
Q 922 -122 528 578 
Q 200 1163 200 2147 
Q 200 2909 397 3456 
Q 766 4475 1731 4475 
z
M 1725 391 
Q 2163 391 2422 778 
Q 2681 1166 2681 2222 
Q 2681 2984 2493 3476 
Q 2306 3969 1766 3969 
Q 1269 3969 1039 3501 
Q 809 3034 809 2125 
Q 809 1441 956 1025 
Q 1181 391 1725 391 
z
" transform="scale(0.015625)"/>
       </defs>
       <use xlink:href="#Helvetica-30"/>
      </g>
     </g>
    </g>
    <g id="xtick_2">
     <g id="line2d_2">
      <g>
       <use xlink:href="#m11f49eab9a" x="35.049782" y="47.823198" style="fill: #777777; stroke: #777777; stroke-width: 0.5"/>
      </g>
     </g>
     <g id="text_2">
      <!-- 5 -->
      <g style="fill: #333333" transform="translate(35.813142 51.491479) rotate(-90) scale(0.03 -0.03)">
       <defs>
        <path id="Helvetica-35" d="M 791 1141 
Q 847 659 1238 475 
Q 1438 381 1700 381 
Q 2200 381 2440 700 
Q 2681 1019 2681 1406 
Q 2681 1875 2395 2131 
Q 2109 2388 1709 2388 
Q 1419 2388 1211 2275 
Q 1003 2163 856 1963 
L 369 1991 
L 709 4400 
L 3034 4400 
L 3034 3856 
L 1131 3856 
L 941 2613 
Q 1097 2731 1238 2791 
Q 1488 2894 1816 2894 
Q 2431 2894 2859 2497 
Q 3288 2100 3288 1491 
Q 3288 856 2895 371 
Q 2503 -113 1644 -113 
Q 1097 -113 676 195 
Q 256 503 206 1141 
L 791 1141 
z
" transform="scale(0.015625)"/>
       </defs>
       <use xlink:href="#Helvetica-35"/>
      </g>
     </g>
    </g>
    <g id="xtick_3">
     <g id="line2d_3">
      <g>
       <use xlink:href="#m11f49eab9a" x="50.223551" y="47.823198" style="fill: #777777; stroke: #777777; stroke-width: 0.5"/>
      </g>
     </g>
     <g id="text_3">
      <!-- 10 -->
      <g style="fill: #333333" transform="translate(50.98691 53.15976) rotate(-90) scale(0.03 -0.03)">
       <defs>
        <path id="Helvetica-31" d="M 613 3169 
L 613 3600 
Q 1222 3659 1462 3798 
Q 1703 3938 1822 4456 
L 2266 4456 
L 2266 0 
L 1666 0 
L 1666 3169 
L 613 3169 
z
" transform="scale(0.015625)"/>
       </defs>
       <use xlink:href="#Helvetica-31"/>
       <use xlink:href="#Helvetica-30" x="55.615234"/>
      </g>
     </g>
    </g>
    <g id="xtick_4">
     <g id="line2d_4">
      <g>
       <use xlink:href="#m11f49eab9a" x="65.39732" y="47.823198" style="fill: #777777; stroke: #777777; stroke-width: 0.5"/>
      </g>
     </g>
     <g id="text_4">
      <!-- 15 -->
      <g style="fill: #333333" transform="translate(66.160679 53.15976) rotate(-90) scale(0.03 -0.03)">
       <use xlink:href="#Helvetica-31"/>
       <use xlink:href="#Helvetica-35" x="55.615234"/>
      </g>
     </g>
    </g>
    <g id="xtick_5">
     <g id="line2d_5">
      <g>
       <use xlink:href="#m11f49eab9a" x="80.571088" y="47.823198" style="fill: #777777; stroke: #777777; stroke-width: 0.5"/>
      </g>
     </g>
     <g id="text_5">
      <!-- 20 -->
      <g style="fill: #333333" transform="translate(81.334447 53.15976) rotate(-90) scale(0.03 -0.03)">
       <defs>
        <path id="Helvetica-32" d="M 200 0 
Q 231 578 439 1006 
Q 647 1434 1250 1784 
L 1850 2131 
Q 2253 2366 2416 2531 
Q 2672 2791 2672 3125 
Q 2672 3516 2437 3745 
Q 2203 3975 1813 3975 
Q 1234 3975 1013 3538 
Q 894 3303 881 2888 
L 309 2888 
Q 319 3472 525 3841 
Q 891 4491 1816 4491 
Q 2584 4491 2939 4075 
Q 3294 3659 3294 3150 
Q 3294 2613 2916 2231 
Q 2697 2009 2131 1694 
L 1703 1456 
Q 1397 1288 1222 1134 
Q 909 863 828 531 
L 3272 531 
L 3272 0 
L 200 0 
z
" transform="scale(0.015625)"/>
       </defs>
       <use xlink:href="#Helvetica-32"/>
       <use xlink:href="#Helvetica-30" x="55.615234"/>
      </g>
     </g>
    </g>
   </g>
   <g id="matplotlib.axis_2">
    <g id="ytick_1">
     <g id="text_6">
      <!-- TH1 -->
      <g style="fill: #333333" transform="translate(3.729771 8.798715) rotate(-270) scale(0.035 -0.035)">
       <defs>
        <path id="Helvetica-54" d="M 3828 4591 
L 3828 4044 
L 2281 4044 
L 2281 0 
L 1650 0 
L 1650 4044 
L 103 4044 
L 103 4591 
L 3828 4591 
z
" transform="scale(0.015625)"/>
        <path id="Helvetica-48" d="M 503 4591 
L 1131 4591 
L 1131 2694 
L 3519 2694 
L 3519 4591 
L 4147 4591 
L 4147 0 
L 3519 0 
L 3519 2147 
L 1131 2147 
L 1131 0 
L 503 0 
L 503 4591 
z
" transform="scale(0.015625)"/>
       </defs>
       <use xlink:href="#Helvetica-54"/>
       <use xlink:href="#Helvetica-48" x="61.083984"/>
       <use xlink:href="#Helvetica-31" x="133.300781"/>
      </g>
     </g>
    </g>
    <g id="ytick_2">
     <g id="text_7">
      <!-- TH2 -->
      <g style="fill: #333333" transform="translate(3.729771 22.906367) rotate(-270) scale(0.035 -0.035)">
       <use xlink:href="#Helvetica-54"/>
       <use xlink:href="#Helvetica-48" x="61.083984"/>
       <use xlink:href="#Helvetica-32" x="133.300781"/>
      </g>
     </g>
    </g>
    <g id="ytick_3">
     <g id="text_8">
      <!-- TH17 -->
      <g style="fill: #333333" transform="translate(3.729771 37.01402) rotate(-270) scale(0.035 -0.035)">
       <defs>
        <path id="Helvetica-37" d="M 3347 4400 
L 3347 3909 
Q 3131 3700 2773 3181 
Q 2416 2663 2141 2063 
Q 1869 1478 1728 997 
Q 1638 688 1494 0 
L 872 0 
Q 1084 1281 1809 2550 
Q 2238 3294 2709 3834 
L 234 3834 
L 234 4400 
L 3347 4400 
z
" transform="scale(0.015625)"/>
       </defs>
       <use xlink:href="#Helvetica-54"/>
       <use xlink:href="#Helvetica-48" x="61.083984"/>
       <use xlink:href="#Helvetica-31" x="133.300781"/>
       <use xlink:href="#Helvetica-37" x="188.916016"/>
      </g>
     </g>
    </g>
   </g>
   <g id="PolyCollection_1">
    <defs>
     <path id="m824302a320" d="M 19.717261 -45.696468 
L 19.717261 -46.515399 
L 19.726911 -46.623864 
L 19.736562 -46.753409 
L 19.746212 -46.905952 
L 19.755862 -47.083017 
L 19.765513 -47.28558 
L 19.775163 -47.513917 
L 19.784814 -47.767465 
L 19.794464 -48.044718 
L 19.804114 -48.343157 
L 19.813765 -48.659232 
L 19.823415 -48.988405 
L 19.833066 -49.325251 
L 19.842716 -49.66362 
L 19.852366 -49.996851 
L 19.862017 -50.318026 
L 19.871667 -50.62025 
L 19.881318 -50.896931 
L 19.890968 -51.142051 
L 19.900618 -51.350401 
L 19.910269 -51.517766 
L 19.919919 -51.641057 
L 19.92957 -51.71837 
L 19.93922 -51.748995 
L 19.94887 -51.733354 
L 19.958521 -51.672907 
L 19.968171 -51.570015 
L 19.977822 -51.427793 
L 19.987472 -51.249952 
L 19.997123 -51.040653 
L 20.006773 -50.804369 
L 20.016423 -50.545765 
L 20.026074 -50.269602 
L 20.035724 -49.980645 
L 20.045375 -49.683593 
L 20.055025 -49.383007 
L 20.064675 -49.083247 
L 20.074326 -48.788411 
L 20.083976 -48.502267 
L 20.093627 -48.228203 
L 20.103277 -47.969169 
L 20.112927 -47.727639 
L 20.122578 -47.505588 
L 20.132228 -47.304483 
L 20.141879 -47.125296 
L 20.151529 -46.968537 
L 20.161179 -46.834305 
L 20.17083 -46.722344 
L 20.18048 -46.632115 
L 20.190131 -46.562866 
L 20.199781 -46.51369 
L 20.209431 -46.483584 
L 20.219082 -46.471478 
L 20.228732 -46.476267 
L 20.238383 -46.49681 
L 20.248033 -46.531922 
L 20.257683 -46.580359 
L 20.267334 -46.640797 
L 20.276984 -46.711804 
L 20.286635 -46.791831 
L 20.296285 -46.879203 
L 20.305936 -46.972129 
L 20.315586 -47.068728 
L 20.325236 -47.167058 
L 20.334887 -47.265171 
L 20.344537 -47.361164 
L 20.354188 -47.453231 
L 20.363838 -47.539715 
L 20.373488 -47.619145 
L 20.383139 -47.690262 
L 20.392789 -47.75203 
L 20.40244 -47.803631 
L 20.41209 -47.84445 
L 20.42174 -47.874048 
L 20.431391 -47.892135 
L 20.441041 -47.898545 
L 20.450692 -47.893223 
L 20.460342 -47.87621 
L 20.469992 -47.847656 
L 20.479643 -47.807829 
L 20.489293 -47.757143 
L 20.498944 -47.69618 
L 20.508594 -47.625713 
L 20.518244 -47.546723 
L 20.527895 -47.460398 
L 20.537545 -47.368118 
L 20.547196 -47.271425 
L 20.556846 -47.171977 
L 20.566497 -47.071483 
L 20.576147 -46.971645 
L 20.585797 -46.874081 
L 20.595448 -46.780266 
L 20.605098 -46.691475 
L 20.614749 -46.608739 
L 20.624399 -46.532827 
L 20.634049 -46.464228 
L 20.6437 -46.403167 
L 20.65335 -46.34962 
L 20.663001 -46.303355 
L 20.672651 -46.263964 
L 20.672651 -45.947904 
L 20.672651 -45.947904 
L 20.663001 -45.908512 
L 20.65335 -45.862247 
L 20.6437 -45.808701 
L 20.634049 -45.747639 
L 20.624399 -45.67904 
L 20.614749 -45.603128 
L 20.605098 -45.520393 
L 20.595448 -45.431601 
L 20.585797 -45.337786 
L 20.576147 -45.240223 
L 20.566497 -45.140384 
L 20.556846 -45.039891 
L 20.547196 -44.940442 
L 20.537545 -44.843749 
L 20.527895 -44.751469 
L 20.518244 -44.665144 
L 20.508594 -44.586154 
L 20.498944 -44.515688 
L 20.489293 -44.454725 
L 20.479643 -44.404039 
L 20.469992 -44.364212 
L 20.460342 -44.335657 
L 20.450692 -44.318645 
L 20.441041 -44.313322 
L 20.431391 -44.319733 
L 20.42174 -44.337819 
L 20.41209 -44.367417 
L 20.40244 -44.408236 
L 20.392789 -44.459838 
L 20.383139 -44.521606 
L 20.373488 -44.592723 
L 20.363838 -44.672152 
L 20.354188 -44.758636 
L 20.344537 -44.850703 
L 20.334887 -44.946696 
L 20.325236 -45.04481 
L 20.315586 -45.14314 
L 20.305936 -45.239738 
L 20.296285 -45.332665 
L 20.286635 -45.420037 
L 20.276984 -45.500064 
L 20.267334 -45.571071 
L 20.257683 -45.631508 
L 20.248033 -45.679946 
L 20.238383 -45.715058 
L 20.228732 -45.7356 
L 20.219082 -45.740389 
L 20.209431 -45.728284 
L 20.199781 -45.698177 
L 20.190131 -45.649002 
L 20.18048 -45.579752 
L 20.17083 -45.489524 
L 20.161179 -45.377563 
L 20.151529 -45.24333 
L 20.141879 -45.086572 
L 20.132228 -44.907385 
L 20.122578 -44.70628 
L 20.112927 -44.484229 
L 20.103277 -44.242699 
L 20.093627 -43.983664 
L 20.083976 -43.7096 
L 20.074326 -43.423457 
L 20.064675 -43.12862 
L 20.055025 -42.828861 
L 20.045375 -42.528274 
L 20.035724 -42.231222 
L 20.026074 -41.942266 
L 20.016423 -41.666102 
L 20.006773 -41.407499 
L 19.997123 -41.171214 
L 19.987472 -40.961915 
L 19.977822 -40.784075 
L 19.968171 -40.641853 
L 19.958521 -40.538961 
L 19.94887 -40.478513 
L 19.93922 -40.462873 
L 19.92957 -40.493497 
L 19.919919 -40.570811 
L 19.910269 -40.694101 
L 19.900618 -40.861467 
L 19.890968 -41.069816 
L 19.881318 -41.314937 
L 19.871667 -41.591618 
L 19.862017 -41.893841 
L 19.852366 -42.215016 
L 19.842716 -42.548247 
L 19.833066 -42.886616 
L 19.823415 -43.223462 
L 19.813765 -43.552636 
L 19.804114 -43.868711 
L 19.794464 -44.16715 
L 19.784814 -44.444403 
L 19.775163 -44.697951 
L 19.765513 -44.926287 
L 19.755862 -45.12885 
L 19.746212 -45.305916 
L 19.736562 -45.458458 
L 19.726911 -45.588003 
L 19.717261 -45.696468 
z
" style="stroke: #505050; stroke-width: 0.15"/>
    </defs>
    <g clip-path="url(#p467df0dc8a)">
     <use xlink:href="#m824302a320" x="0" y="56.16" style="fill: #e7a980; stroke: #505050; stroke-width: 0.15"/>
    </g>
   </g>
   <g id="PolyCollection_2">
    <defs>
     <path id="mb28eb3fb53" d="M 18.843009 -31.584796 
L 18.843009 -32.411767 
L 19.183974 -32.536194 
L 19.524938 -32.688032 
L 19.865902 -32.87009 
L 20.206866 -33.084507 
L 20.54783 -33.332459 
L 20.888795 -33.613858 
L 21.229759 -33.927101 
L 21.570723 -34.268873 
L 21.911687 -34.634046 
L 22.252651 -35.015712 
L 22.593615 -35.40534 
L 22.93458 -35.793092 
L 23.275544 -36.168267 
L 23.616508 -36.519871 
L 23.957472 -36.837248 
L 24.298436 -37.110753 
L 24.6394 -37.332385 
L 24.980365 -37.496341 
L 25.321329 -37.599436 
L 25.662293 -37.641342 
L 26.003257 -37.624631 
L 26.344221 -37.55461 
L 26.685185 -37.438964 
L 27.02615 -37.287236 
L 27.367114 -37.110189 
L 27.708078 -36.919103 
L 28.049042 -36.725063 
L 28.390006 -36.538287 
L 28.730971 -36.367554 
L 29.071935 -36.219751 
L 29.412899 -36.099573 
L 29.753863 -36.009375 
L 30.094827 -35.949191 
L 30.435791 -35.916874 
L 30.776756 -35.908374 
L 31.11772 -35.91809 
L 31.458684 -35.939299 
L 31.799648 -35.964611 
L 32.140612 -35.986435 
L 32.481576 -35.997433 
L 32.822541 -35.99093 
L 33.163505 -35.961276 
L 33.504469 -35.904129 
L 33.845433 -35.816665 
L 34.186397 -35.697686 
L 34.527362 -35.547639 
L 34.868326 -35.368531 
L 35.20929 -35.16377 
L 35.550254 -34.937911 
L 35.891218 -34.69636 
L 36.232182 -34.445038 
L 36.573147 -34.190032 
L 36.914111 -33.937268 
L 37.255075 -33.692224 
L 37.596039 -33.459697 
L 37.937003 -33.243645 
L 38.277967 -33.047107 
L 38.618932 -32.872198 
L 38.959896 -32.720167 
L 39.30086 -32.591507 
L 39.641824 -32.486107 
L 39.982788 -32.403409 
L 40.323752 -32.342565 
L 40.664717 -32.302577 
L 41.005681 -32.282397 
L 41.346645 -32.280992 
L 41.687609 -32.297359 
L 42.028573 -32.330499 
L 42.369538 -32.379354 
L 42.710502 -32.442717 
L 43.051466 -32.519136 
L 43.39243 -32.606813 
L 43.733394 -32.70353 
L 44.074358 -32.806613 
L 44.415323 -32.912935 
L 44.756287 -33.018981 
L 45.097251 -33.120962 
L 45.438215 -33.214985 
L 45.779179 -33.297249 
L 46.120143 -33.364276 
L 46.461108 -33.413127 
L 46.802072 -33.441602 
L 47.143036 -33.448392 
L 47.484 -33.433172 
L 47.824964 -33.396622 
L 48.165928 -33.340372 
L 48.506893 -33.266881 
L 48.847857 -33.179256 
L 49.188821 -33.081034 
L 49.529785 -32.975949 
L 49.870749 -32.867693 
L 50.211714 -32.759715 
L 50.552678 -32.655048 
L 50.893642 -32.55619 
L 51.234606 -32.465035 
L 51.57557 -32.382859 
L 51.916534 -32.310353 
L 52.257499 -32.247681 
L 52.598463 -32.194577 
L 52.598463 -31.801986 
L 52.598463 -31.801986 
L 52.257499 -31.748882 
L 51.916534 -31.68621 
L 51.57557 -31.613703 
L 51.234606 -31.531528 
L 50.893642 -31.440372 
L 50.552678 -31.341514 
L 50.211714 -31.236848 
L 49.870749 -31.12887 
L 49.529785 -31.020614 
L 49.188821 -30.915528 
L 48.847857 -30.817307 
L 48.506893 -30.729681 
L 48.165928 -30.65619 
L 47.824964 -30.599941 
L 47.484 -30.563391 
L 47.143036 -30.548171 
L 46.802072 -30.554961 
L 46.461108 -30.583436 
L 46.120143 -30.632287 
L 45.779179 -30.699314 
L 45.438215 -30.781578 
L 45.097251 -30.8756 
L 44.756287 -30.977582 
L 44.415323 -31.083628 
L 44.074358 -31.18995 
L 43.733394 -31.293032 
L 43.39243 -31.38975 
L 43.051466 -31.477426 
L 42.710502 -31.553845 
L 42.369538 -31.617209 
L 42.028573 -31.666064 
L 41.687609 -31.699204 
L 41.346645 -31.715571 
L 41.005681 -31.714166 
L 40.664717 -31.693986 
L 40.323752 -31.653997 
L 39.982788 -31.593153 
L 39.641824 -31.510455 
L 39.30086 -31.405055 
L 38.959896 -31.276396 
L 38.618932 -31.124364 
L 38.277967 -30.949455 
L 37.937003 -30.752918 
L 37.596039 -30.536866 
L 37.255075 -30.304338 
L 36.914111 -30.059294 
L 36.573147 -29.806531 
L 36.232182 -29.551524 
L 35.891218 -29.300202 
L 35.550254 -29.058652 
L 35.20929 -28.832793 
L 34.868326 -28.628031 
L 34.527362 -28.448924 
L 34.186397 -28.298876 
L 33.845433 -28.179897 
L 33.504469 -28.092434 
L 33.163505 -28.035287 
L 32.822541 -28.005632 
L 32.481576 -27.999129 
L 32.140612 -28.010127 
L 31.799648 -28.031952 
L 31.458684 -28.057263 
L 31.11772 -28.078472 
L 30.776756 -28.088188 
L 30.435791 -28.079688 
L 30.094827 -28.047372 
L 29.753863 -27.987187 
L 29.412899 -27.89699 
L 29.071935 -27.776811 
L 28.730971 -27.629008 
L 28.390006 -27.458276 
L 28.049042 -27.2715 
L 27.708078 -27.077459 
L 27.367114 -26.886374 
L 27.02615 -26.709327 
L 26.685185 -26.557599 
L 26.344221 -26.441952 
L 26.003257 -26.371931 
L 25.662293 -26.35522 
L 25.321329 -26.397126 
L 24.980365 -26.500222 
L 24.6394 -26.664178 
L 24.298436 -26.885809 
L 23.957472 -27.159314 
L 23.616508 -27.476692 
L 23.275544 -27.828295 
L 22.93458 -28.203471 
L 22.593615 -28.591222 
L 22.252651 -28.98085 
L 21.911687 -29.362516 
L 21.570723 -29.72769 
L 21.229759 -30.069461 
L 20.888795 -30.382704 
L 20.54783 -30.664104 
L 20.206866 -30.912055 
L 19.865902 -31.126473 
L 19.524938 -31.308531 
L 19.183974 -31.460369 
L 18.843009 -31.584796 
z
" style="stroke: #505050; stroke-width: 0.15"/>
    </defs>
    <g clip-path="url(#p467df0dc8a)">
     <use xlink:href="#mb28eb3fb53" x="0" y="56.16" style="fill: #abc3de; stroke: #505050; stroke-width: 0.15"/>
    </g>
   </g>
   <g id="PolyCollection_3">
    <defs>
     <path id="md9e8ef6054" d="M 19.176205 -17.446056 
L 19.176205 -18.335201 
L 19.221212 -18.441048 
L 19.266218 -18.564299 
L 19.311224 -18.705769 
L 19.356231 -18.865813 
L 19.401237 -19.044225 
L 19.446243 -19.240177 
L 19.491249 -19.452173 
L 19.536256 -19.67806 
L 19.581262 -19.915075 
L 19.626268 -20.159945 
L 19.671275 -20.409039 
L 19.716281 -20.658552 
L 19.761287 -20.904721 
L 19.806293 -21.144053 
L 19.8513 -21.37354 
L 19.896306 -21.59084 
L 19.941312 -21.794412 
L 19.986319 -21.983581 
L 20.031325 -22.158511 
L 20.076331 -22.320111 
L 20.121338 -22.469847 
L 20.166344 -22.609497 
L 20.21135 -22.740855 
L 20.256356 -22.865423 
L 20.301363 -22.984125 
L 20.346369 -23.097054 
L 20.391375 -23.203312 
L 20.436382 -23.300932 
L 20.481388 -23.386926 
L 20.526394 -23.457426 
L 20.5714 -23.507942 
L 20.616407 -23.53369 
L 20.661413 -23.529976 
L 20.706419 -23.492595 
L 20.751426 -23.418208 
L 20.796432 -23.304671 
L 20.841438 -23.151274 
L 20.886445 -22.958884 
L 20.931451 -22.72997 
L 20.976457 -22.468524 
L 21.021463 -22.179872 
L 21.06647 -21.870415 
L 21.111476 -21.547307 
L 21.156482 -21.218114 
L 21.201489 -20.89047 
L 21.246495 -20.571764 
L 21.291501 -20.268881 
L 21.336507 -19.987989 
L 21.381514 -19.734417 
L 21.42652 -19.512573 
L 21.471526 -19.325943 
L 21.516533 -19.177118 
L 21.561539 -19.067862 
L 21.606545 -18.999184 
L 21.651552 -18.971419 
L 21.696558 -18.984284 
L 21.741564 -19.036918 
L 21.78657 -19.127898 
L 21.831577 -19.255229 
L 21.876583 -19.416313 
L 21.921589 -19.607922 
L 21.966596 -19.826156 
L 22.011602 -20.066439 
L 22.056608 -20.323521 
L 22.101614 -20.591537 
L 22.146621 -20.864096 
L 22.191627 -21.134421 
L 22.236633 -21.395533 
L 22.28164 -21.640463 
L 22.326646 -21.862492 
L 22.371652 -22.055404 
L 22.416659 -22.213724 
L 22.461665 -22.332939 
L 22.506671 -22.409681 
L 22.551677 -22.441852 
L 22.596684 -22.428707 
L 22.64169 -22.370854 
L 22.686696 -22.270208 
L 22.731703 -22.129875 
L 22.776709 -21.953988 
L 22.821715 -21.747512 
L 22.866721 -21.516009 
L 22.911728 -21.265397 
L 22.956734 -21.001716 
L 23.00174 -20.730893 
L 23.046747 -20.458542 
L 23.091753 -20.189795 
L 23.136759 -19.929165 
L 23.181766 -19.680454 
L 23.226772 -19.446702 
L 23.271778 -19.230173 
L 23.316784 -19.032372 
L 23.361791 -18.854102 
L 23.406797 -18.695532 
L 23.451803 -18.556288 
L 23.49681 -18.435552 
L 23.541816 -18.33216 
L 23.586822 -18.244707 
L 23.631828 -18.171636 
L 23.631828 -17.609622 
L 23.631828 -17.609622 
L 23.586822 -17.536551 
L 23.541816 -17.449098 
L 23.49681 -17.345706 
L 23.451803 -17.224969 
L 23.406797 -17.085725 
L 23.361791 -16.927155 
L 23.316784 -16.748886 
L 23.271778 -16.551085 
L 23.226772 -16.334555 
L 23.181766 -16.100804 
L 23.136759 -15.852093 
L 23.091753 -15.591463 
L 23.046747 -15.322715 
L 23.00174 -15.050365 
L 22.956734 -14.779541 
L 22.911728 -14.51586 
L 22.866721 -14.265249 
L 22.821715 -14.033745 
L 22.776709 -13.827269 
L 22.731703 -13.651383 
L 22.686696 -13.511049 
L 22.64169 -13.410403 
L 22.596684 -13.352551 
L 22.551677 -13.339405 
L 22.506671 -13.371577 
L 22.461665 -13.448318 
L 22.416659 -13.567534 
L 22.371652 -13.725854 
L 22.326646 -13.918766 
L 22.28164 -14.140795 
L 22.236633 -14.385724 
L 22.191627 -14.646836 
L 22.146621 -14.917162 
L 22.101614 -15.189721 
L 22.056608 -15.457737 
L 22.011602 -15.714819 
L 21.966596 -15.955101 
L 21.921589 -16.173336 
L 21.876583 -16.364944 
L 21.831577 -16.526029 
L 21.78657 -16.653359 
L 21.741564 -16.744339 
L 21.696558 -16.796973 
L 21.651552 -16.809838 
L 21.606545 -16.782073 
L 21.561539 -16.713396 
L 21.516533 -16.60414 
L 21.471526 -16.455315 
L 21.42652 -16.268685 
L 21.381514 -16.046841 
L 21.336507 -15.793268 
L 21.291501 -15.512377 
L 21.246495 -15.209493 
L 21.201489 -14.890788 
L 21.156482 -14.563143 
L 21.111476 -14.23395 
L 21.06647 -13.910843 
L 21.021463 -13.601386 
L 20.976457 -13.312734 
L 20.931451 -13.051288 
L 20.886445 -12.822374 
L 20.841438 -12.629983 
L 20.796432 -12.476587 
L 20.751426 -12.36305 
L 20.706419 -12.288663 
L 20.661413 -12.251282 
L 20.616407 -12.247568 
L 20.5714 -12.273316 
L 20.526394 -12.323831 
L 20.481388 -12.394331 
L 20.436382 -12.480325 
L 20.391375 -12.577946 
L 20.346369 -12.684203 
L 20.301363 -12.797133 
L 20.256356 -12.915834 
L 20.21135 -13.040403 
L 20.166344 -13.17176 
L 20.121338 -13.31141 
L 20.076331 -13.461147 
L 20.031325 -13.622747 
L 19.986319 -13.797677 
L 19.941312 -13.986845 
L 19.896306 -14.190418 
L 19.8513 -14.407718 
L 19.806293 -14.637204 
L 19.761287 -14.876537 
L 19.716281 -15.122706 
L 19.671275 -15.372218 
L 19.626268 -15.621312 
L 19.581262 -15.866183 
L 19.536256 -16.103197 
L 19.491249 -16.329084 
L 19.446243 -16.541081 
L 19.401237 -16.737032 
L 19.356231 -16.915445 
L 19.311224 -17.075488 
L 19.266218 -17.216959 
L 19.221212 -17.340209 
L 19.176205 -17.446056 
z
" style="stroke: #505050; stroke-width: 0.15"/>
    </defs>
    <g clip-path="url(#p467df0dc8a)">
     <use xlink:href="#md9e8ef6054" x="0" y="56.16" style="fill: #c447c3; stroke: #505050; stroke-width: 0.15"/>
    </g>
   </g>
   <g id="line2d_6">
    <path d="M 19.888845 10.054066 
L 20.381926 10.054066 
" clip-path="url(#p467df0dc8a)" style="fill: none; stroke: #8c8c8c; stroke-width: 0.75; stroke-linecap: round"/>
   </g>
   <g id="line2d_7">
    <path d="M 19.918977 10.054066 
L 20.117219 10.054066 
" clip-path="url(#p467df0dc8a)" style="fill: none; stroke: #8c8c8c; stroke-width: 4; stroke-linecap: round"/>
   </g>
   <g id="line2d_8">
    <path d="M 19.974581 10.054066 
" clip-path="url(#p467df0dc8a)" style="fill: none; stroke: #505050; stroke-width: 1.2; stroke-linecap: round"/>
    <defs>
     <path id="m2d4fd4d088" d="M 0 0.833333 
C 0.221003 0.833333 0.432983 0.745528 0.589256 0.589256 
C 0.745528 0.432983 0.833333 0.221003 0.833333 0 
C 0.833333 -0.221003 0.745528 -0.432983 0.589256 -0.589256 
C 0.432983 -0.745528 0.221003 -0.833333 0 -0.833333 
C -0.221003 -0.833333 -0.432983 -0.745528 -0.589256 -0.589256 
C -0.745528 -0.432983 -0.833333 -0.221003 -0.833333 0 
C -0.833333 0.221003 -0.745528 0.432983 -0.589256 0.589256 
C -0.432983 0.745528 -0.221003 0.833333 0 0.833333 
z
" style="stroke: #ffffff; stroke-width: 0.8"/>
    </defs>
    <g clip-path="url(#p467df0dc8a)">
     <use xlink:href="#m2d4fd4d088" x="19.974581" y="10.054066" style="fill: #ffffff; stroke: #ffffff; stroke-width: 0.8"/>
    </g>
   </g>
   <g id="line2d_9">
    <path d="M 24.363219 24.161719 
L 34.79141 24.161719 
" clip-path="url(#p467df0dc8a)" style="fill: none; stroke: #8c8c8c; stroke-width: 0.75; stroke-linecap: round"/>
   </g>
   <g id="line2d_10">
    <path d="M 25.283812 24.161719 
L 33.857597 24.161719 
" clip-path="url(#p467df0dc8a)" style="fill: none; stroke: #8c8c8c; stroke-width: 4; stroke-linecap: round"/>
   </g>
   <g id="line2d_11">
    <path d="M 29.159362 24.161719 
" clip-path="url(#p467df0dc8a)" style="fill: none; stroke: #505050; stroke-width: 1.2; stroke-linecap: round"/>
    <g clip-path="url(#p467df0dc8a)">
     <use xlink:href="#m2d4fd4d088" x="29.159362" y="24.161719" style="fill: #ffffff; stroke: #ffffff; stroke-width: 0.8"/>
    </g>
   </g>
   <g id="line2d_12">
    <path d="M 20.00361 38.269371 
L 22.804424 38.269371 
" clip-path="url(#p467df0dc8a)" style="fill: none; stroke: #8c8c8c; stroke-width: 0.75; stroke-linecap: round"/>
   </g>
   <g id="line2d_13">
    <path d="M 20.530081 38.269371 
L 22.438057 38.269371 
" clip-path="url(#p467df0dc8a)" style="fill: none; stroke: #8c8c8c; stroke-width: 4; stroke-linecap: round"/>
   </g>
   <g id="line2d_14">
    <path d="M 20.813285 38.269371 
" clip-path="url(#p467df0dc8a)" style="fill: none; stroke: #505050; stroke-width: 1.2; stroke-linecap: round"/>
    <g clip-path="url(#p467df0dc8a)">
     <use xlink:href="#m2d4fd4d088" x="20.813285" y="38.269371" style="fill: #ffffff; stroke: #ffffff; stroke-width: 0.8"/>
    </g>
   </g>
   <g id="patch_3">
    <path d="M 8.040474 45.323197 
L 8.040474 3.00024 
" style="fill: none; stroke: #777777; stroke-width: 0.5; stroke-linejoin: miter; stroke-linecap: square"/>
   </g>
   <g id="patch_4">
    <path d="M 8.040474 47.823198 
L 80.571088 47.823198 
" style="fill: none; stroke: #777777; stroke-width: 0.5; stroke-linejoin: miter; stroke-linecap: square"/>
   </g>
   <g id="PathCollection_1">
    <defs>
     <path id="m362addb0cf" d="M 0 0.375 
C 0.099451 0.375 0.194842 0.335488 0.265165 0.265165 
C 0.335488 0.194842 0.375 0.099451 0.375 0 
C 0.375 -0.099451 0.335488 -0.194842 0.265165 -0.265165 
C 0.194842 -0.335488 0.099451 -0.375 0 -0.375 
C -0.099451 -0.375 -0.194842 -0.335488 -0.265165 -0.265165 
C -0.335488 -0.194842 -0.375 -0.099451 -0.375 0 
C -0.375 0.099451 -0.335488 0.194842 -0.265165 0.265165 
C -0.194842 0.335488 -0.099451 0.375 0 0.375 
z
"/>
    </defs>
    <g clip-path="url(#p467df0dc8a)">
     <use xlink:href="#m362addb0cf" x="20.028984" y="9.851929" style="fill: #642222"/>
     <use xlink:href="#m362addb0cf" x="19.935926" y="8.801009" style="fill: #642222"/>
     <use xlink:href="#m362addb0cf" x="19.888845" y="11.301712" style="fill: #642222"/>
     <use xlink:href="#m362addb0cf" x="20.381926" y="8.816208" style="fill: #642222"/>
     <use xlink:href="#m362addb0cf" x="20.501067" y="10.879039" style="fill: #642222"/>
     <use xlink:href="#m362addb0cf" x="19.889607" y="10.771146" style="fill: #642222"/>
     <use xlink:href="#m362addb0cf" x="19.928767" y="10.273305" style="fill: #642222"/>
     <use xlink:href="#m362addb0cf" x="20.013236" y="8.759144" style="fill: #642222"/>
    </g>
   </g>
   <g id="PathCollection_2">
    <g clip-path="url(#p467df0dc8a)">
     <use xlink:href="#m362addb0cf" x="33.546326" y="23.258967" style="fill: #642222"/>
     <use xlink:href="#m362addb0cf" x="25.1005" y="22.969705" style="fill: #642222"/>
     <use xlink:href="#m362addb0cf" x="25.344916" y="25.152949" style="fill: #642222"/>
     <use xlink:href="#m362addb0cf" x="34.79141" y="23.358971" style="fill: #642222"/>
     <use xlink:href="#m362addb0cf" x="27.151165" y="23.087119" style="fill: #642222"/>
     <use xlink:href="#m362addb0cf" x="24.363219" y="23.971899" style="fill: #642222"/>
     <use xlink:href="#m362addb0cf" x="31.167559" y="25.036471" style="fill: #642222"/>
     <use xlink:href="#m362addb0cf" x="47.078253" y="24.183218" style="fill: #642222"/>
    </g>
   </g>
   <g id="PathCollection_3">
    <g clip-path="url(#p467df0dc8a)">
     <use xlink:href="#m362addb0cf" x="20.704553" y="39.311673" style="fill: #642222"/>
     <use xlink:href="#m362addb0cf" x="22.421499" y="38.568108" style="fill: #642222"/>
     <use xlink:href="#m362addb0cf" x="20.00361" y="38.908086" style="fill: #642222"/>
     <use xlink:href="#m362addb0cf" x="22.804424" y="37.755326" style="fill: #642222"/>
     <use xlink:href="#m362addb0cf" x="22.487732" y="37.054659" style="fill: #642222"/>
     <use xlink:href="#m362addb0cf" x="20.802297" y="38.504455" style="fill: #642222"/>
     <use xlink:href="#m362addb0cf" x="20.006663" y="36.995614" style="fill: #642222"/>
     <use xlink:href="#m362addb0cf" x="20.824274" y="37.808387" style="fill: #642222"/>
    </g>
   </g>
  </g>
  <g id="axes_2">
   <g id="patch_5">
    <path d="M 93.000474 45.323198 
L 165.531088 45.323198 
L 165.531088 3.00024 
L 93.000474 3.00024 
z
" style="fill: #ffffff"/>
   </g>
   <g id="matplotlib.axis_3">
    <g id="xtick_6">
     <g id="line2d_15">
      <g>
       <use xlink:href="#m11f49eab9a" x="104.836014" y="47.823198" style="fill: #777777; stroke: #777777; stroke-width: 0.5"/>
      </g>
     </g>
     <g id="text_9">
      <!-- 0 -->
      <g style="fill: #333333" transform="translate(105.599373 51.491479) rotate(-90) scale(0.03 -0.03)">
       <use xlink:href="#Helvetica-30"/>
      </g>
     </g>
    </g>
    <g id="xtick_7">
     <g id="line2d_16">
      <g>
       <use xlink:href="#m11f49eab9a" x="120.009782" y="47.823198" style="fill: #777777; stroke: #777777; stroke-width: 0.5"/>
      </g>
     </g>
     <g id="text_10">
      <!-- 5 -->
      <g style="fill: #333333" transform="translate(120.773142 51.491479) rotate(-90) scale(0.03 -0.03)">
       <use xlink:href="#Helvetica-35"/>
      </g>
     </g>
    </g>
    <g id="xtick_8">
     <g id="line2d_17">
      <g>
       <use xlink:href="#m11f49eab9a" x="135.183551" y="47.823198" style="fill: #777777; stroke: #777777; stroke-width: 0.5"/>
      </g>
     </g>
     <g id="text_11">
      <!-- 10 -->
      <g style="fill: #333333" transform="translate(135.94691 53.15976) rotate(-90) scale(0.03 -0.03)">
       <use xlink:href="#Helvetica-31"/>
       <use xlink:href="#Helvetica-30" x="55.615234"/>
      </g>
     </g>
    </g>
    <g id="xtick_9">
     <g id="line2d_18">
      <g>
       <use xlink:href="#m11f49eab9a" x="150.35732" y="47.823198" style="fill: #777777; stroke: #777777; stroke-width: 0.5"/>
      </g>
     </g>
     <g id="text_12">
      <!-- 15 -->
      <g style="fill: #333333" transform="translate(151.120679 53.15976) rotate(-90) scale(0.03 -0.03)">
       <use xlink:href="#Helvetica-31"/>
       <use xlink:href="#Helvetica-35" x="55.615234"/>
      </g>
     </g>
    </g>
    <g id="xtick_10">
     <g id="line2d_19">
      <g>
       <use xlink:href="#m11f49eab9a" x="165.531088" y="47.823198" style="fill: #777777; stroke: #777777; stroke-width: 0.5"/>
      </g>
     </g>
     <g id="text_13">
      <!-- 20 -->
      <g style="fill: #333333" transform="translate(166.294447 53.15976) rotate(-90) scale(0.03 -0.03)">
       <use xlink:href="#Helvetica-32"/>
       <use xlink:href="#Helvetica-30" x="55.615234"/>
      </g>
     </g>
    </g>
   </g>
   <g id="matplotlib.axis_4">
    <g id="ytick_4">
     <g id="text_14">
      <!-- TH1 -->
      <g style="fill: #333333" transform="translate(88.689771 8.798715) rotate(-270) scale(0.035 -0.035)">
       <use xlink:href="#Helvetica-54"/>
       <use xlink:href="#Helvetica-48" x="61.083984"/>
       <use xlink:href="#Helvetica-31" x="133.300781"/>
      </g>
     </g>
    </g>
    <g id="ytick_5">
     <g id="text_15">
      <!-- TH2 -->
      <g style="fill: #333333" transform="translate(88.689771 22.906367) rotate(-270) scale(0.035 -0.035)">
       <use xlink:href="#Helvetica-54"/>
       <use xlink:href="#Helvetica-48" x="61.083984"/>
       <use xlink:href="#Helvetica-32" x="133.300781"/>
      </g>
     </g>
    </g>
    <g id="ytick_6">
     <g id="text_16">
      <!-- TH17 -->
      <g style="fill: #333333" transform="translate(88.689771 37.01402) rotate(-270) scale(0.035 -0.035)">
       <use xlink:href="#Helvetica-54"/>
       <use xlink:href="#Helvetica-48" x="61.083984"/>
       <use xlink:href="#Helvetica-31" x="133.300781"/>
       <use xlink:href="#Helvetica-37" x="188.916016"/>
      </g>
     </g>
    </g>
   </g>
   <g id="PolyCollection_4">
    <defs>
     <path id="m371412662c" d="M 102.816375 -45.563097 
L 102.816375 -46.64877 
L 102.940902 -46.801822 
L 103.06543 -46.984959 
L 103.189957 -47.200088 
L 103.314485 -47.448082 
L 103.439012 -47.728501 
L 103.56354 -48.039357 
L 103.688067 -48.376971 
L 103.812595 -48.735934 
L 103.937122 -49.109207 
L 104.06165 -49.48837 
L 104.186177 -49.864014 
L 104.310705 -50.226246 
L 104.435232 -50.565293 
L 104.55976 -50.872121 
L 104.684287 -51.139031 
L 104.808815 -51.36017 
L 104.933342 -51.531879 
L 105.05787 -51.652874 
L 105.182397 -51.724199 
L 105.306925 -51.748995 
L 105.431452 -51.732073 
L 105.55598 -51.679373 
L 105.680507 -51.59735 
L 105.805035 -51.492361 
L 105.929562 -51.370125 
L 106.05409 -51.235305 
L 106.178617 -51.091249 
L 106.303145 -50.939911 
L 106.427672 -50.781945 
L 106.5522 -50.616934 
L 106.676727 -50.443741 
L 106.801255 -50.260895 
L 106.925782 -50.066997 
L 107.05031 -49.861071 
L 107.174837 -49.642842 
L 107.299365 -49.412904 
L 107.423892 -49.17278 
L 107.54842 -48.924867 
L 107.672947 -48.672293 
L 107.797475 -48.418705 
L 107.922002 -48.168013 
L 108.04653 -47.924127 
L 108.171057 -47.690709 
L 108.295585 -47.470966 
L 108.420112 -47.267491 
L 108.54464 -47.082166 
L 108.669167 -46.916129 
L 108.793695 -46.769795 
L 108.918222 -46.642921 
L 109.04275 -46.53471 
L 109.167277 -46.443933 
L 109.291805 -46.369061 
L 109.416332 -46.308397 
L 109.54086 -46.260194 
L 109.665387 -46.222757 
L 109.789915 -46.194529 
L 109.914442 -46.174153 
L 110.03897 -46.160518 
L 110.163497 -46.152781 
L 110.288025 -46.15038 
L 110.412552 -46.153028 
L 110.53708 -46.160695 
L 110.661607 -46.173581 
L 110.786135 -46.192073 
L 110.910662 -46.216691 
L 111.03519 -46.248022 
L 111.159717 -46.286644 
L 111.284245 -46.333036 
L 111.408772 -46.387489 
L 111.5333 -46.450013 
L 111.657827 -46.520249 
L 111.782355 -46.597402 
L 111.906882 -46.680196 
L 112.03141 -46.766861 
L 112.155937 -46.855167 
L 112.280465 -46.942488 
L 112.404992 -47.025923 
L 112.52952 -47.102444 
L 112.654047 -47.169075 
L 112.778575 -47.223078 
L 112.903102 -47.262145 
L 113.02763 -47.284554 
L 113.152157 -47.289303 
L 113.276685 -47.276176 
L 113.401212 -47.245765 
L 113.52574 -47.199423 
L 113.650267 -47.139165 
L 113.774795 -47.067524 
L 113.899322 -46.987371 
L 114.02385 -46.901731 
L 114.148377 -46.81359 
L 114.272905 -46.725733 
L 114.397432 -46.640609 
L 114.52196 -46.560228 
L 114.646487 -46.486118 
L 114.771015 -46.419306 
L 114.895542 -46.360344 
L 115.020069 -46.309366 
L 115.144597 -46.266153 
L 115.144597 -45.945715 
L 115.144597 -45.945715 
L 115.020069 -45.902502 
L 114.895542 -45.851523 
L 114.771015 -45.792562 
L 114.646487 -45.725749 
L 114.52196 -45.651639 
L 114.397432 -45.571259 
L 114.272905 -45.486134 
L 114.148377 -45.398278 
L 114.02385 -45.310137 
L 113.899322 -45.224496 
L 113.774795 -45.144344 
L 113.650267 -45.072702 
L 113.52574 -45.012445 
L 113.401212 -44.966103 
L 113.276685 -44.935691 
L 113.152157 -44.922564 
L 113.02763 -44.927313 
L 112.903102 -44.949723 
L 112.778575 -44.988789 
L 112.654047 -45.042793 
L 112.52952 -45.109423 
L 112.404992 -45.185944 
L 112.280465 -45.26938 
L 112.155937 -45.356701 
L 112.03141 -45.445006 
L 111.906882 -45.531672 
L 111.782355 -45.614466 
L 111.657827 -45.691619 
L 111.5333 -45.761855 
L 111.408772 -45.824379 
L 111.284245 -45.878832 
L 111.159717 -45.925224 
L 111.03519 -45.963845 
L 110.910662 -45.995176 
L 110.786135 -46.019794 
L 110.661607 -46.038286 
L 110.53708 -46.051173 
L 110.412552 -46.05884 
L 110.288025 -46.061488 
L 110.163497 -46.059086 
L 110.03897 -46.05135 
L 109.914442 -46.037714 
L 109.789915 -46.017339 
L 109.665387 -45.989111 
L 109.54086 -45.951674 
L 109.416332 -45.903471 
L 109.291805 -45.842807 
L 109.167277 -45.767935 
L 109.04275 -45.677157 
L 108.918222 -45.568946 
L 108.793695 -45.442072 
L 108.669167 -45.295738 
L 108.54464 -45.129702 
L 108.420112 -44.944377 
L 108.295585 -44.740901 
L 108.171057 -44.521158 
L 108.04653 -44.287741 
L 107.922002 -44.043854 
L 107.797475 -43.793162 
L 107.672947 -43.539574 
L 107.54842 -43.287001 
L 107.423892 -43.039088 
L 107.299365 -42.798964 
L 107.174837 -42.569026 
L 107.05031 -42.350797 
L 106.925782 -42.144871 
L 106.801255 -41.950973 
L 106.676727 -41.768127 
L 106.5522 -41.594933 
L 106.427672 -41.429923 
L 106.303145 -41.271956 
L 106.178617 -41.120619 
L 106.05409 -40.976563 
L 105.929562 -40.841743 
L 105.805035 -40.719507 
L 105.680507 -40.614517 
L 105.55598 -40.532494 
L 105.431452 -40.479795 
L 105.306925 -40.462873 
L 105.182397 -40.487668 
L 105.05787 -40.558994 
L 104.933342 -40.679988 
L 104.808815 -40.851698 
L 104.684287 -41.072836 
L 104.55976 -41.339747 
L 104.435232 -41.646574 
L 104.310705 -41.985621 
L 104.186177 -42.347854 
L 104.06165 -42.723497 
L 103.937122 -43.102661 
L 103.812595 -43.475934 
L 103.688067 -43.834896 
L 103.56354 -44.17251 
L 103.439012 -44.483367 
L 103.314485 -44.763785 
L 103.189957 -45.01178 
L 103.06543 -45.226909 
L 102.940902 -45.410045 
L 102.816375 -45.563097 
z
" style="stroke: #505050; stroke-width: 0.15"/>
    </defs>
    <g clip-path="url(#pb54e630433)">
     <use xlink:href="#m371412662c" x="0" y="56.16" style="fill: #e7a980; stroke: #505050; stroke-width: 0.15"/>
    </g>
   </g>
   <g id="PolyCollection_5">
    <defs>
     <path id="m43daa2a576" d="M 95.592667 -31.622483 
L 95.592667 -32.374079 
L 96.097718 -32.472126 
L 96.602769 -32.589319 
L 97.10782 -32.727577 
L 97.612872 -32.888539 
L 98.117923 -33.073428 
L 98.622974 -33.282907 
L 99.128025 -33.516947 
L 99.633076 -33.774705 
L 100.138127 -34.054431 
L 100.643179 -34.353417 
L 101.14823 -34.667985 
L 101.653281 -34.993534 
L 102.158332 -35.324655 
L 102.663383 -35.655283 
L 103.168434 -35.978927 
L 103.673486 -36.288919 
L 104.178537 -36.578707 
L 104.683588 -36.84215 
L 105.188639 -37.073807 
L 105.69369 -37.269189 
L 106.198741 -37.424969 
L 106.703793 -37.539126 
L 107.208844 -37.611012 
L 107.713895 -37.641342 
L 108.218946 -37.632106 
L 108.723997 -37.586409 
L 109.229048 -37.50826 
L 109.734099 -37.402315 
L 110.239151 -37.2736 
L 110.744202 -37.127237 
L 111.249253 -36.968184 
L 111.754304 -36.801011 
L 112.259355 -36.629716 
L 112.764406 -36.457611 
L 113.269458 -36.287247 
L 113.774509 -36.120408 
L 114.27956 -35.958162 
L 114.784611 -35.800942 
L 115.289662 -35.64868 
L 115.794713 -35.500956 
L 116.299765 -35.357159 
L 116.804816 -35.216652 
L 117.309867 -35.078927 
L 117.814918 -34.943731 
L 118.319969 -34.811174 
L 118.82502 -34.68179 
L 119.330072 -34.55657 
L 119.835123 -34.436946 
L 120.340174 -34.324739 
L 120.845225 -34.222073 
L 121.350276 -34.131264 
L 121.855327 -34.054689 
L 122.360378 -33.994641 
L 122.86543 -33.953194 
L 123.370481 -33.932075 
L 123.875532 -33.932555 
L 124.380583 -33.955368 
L 124.885634 -34.00066 
L 125.390685 -34.067967 
L 125.895737 -34.156227 
L 126.400788 -34.26381 
L 126.905839 -34.388576 
L 127.41089 -34.527935 
L 127.915941 -34.678926 
L 128.420992 -34.838283 
L 128.926044 -35.002505 
L 129.431095 -35.167919 
L 129.936146 -35.330739 
L 130.441197 -35.487114 
L 130.946248 -35.633192 
L 131.451299 -35.765176 
L 131.956351 -35.879399 
L 132.461402 -35.972409 
L 132.966453 -36.041061 
L 133.471504 -36.082631 
L 133.976555 -36.094929 
L 134.481606 -36.076404 
L 134.986658 -36.02625 
L 135.491709 -35.944477 
L 135.99676 -35.831962 
L 136.501811 -35.690449 
L 137.006862 -35.522515 
L 137.511913 -35.331486 
L 138.016964 -35.121312 
L 138.522016 -34.896411 
L 139.027067 -34.661483 
L 139.532118 -34.421314 
L 140.037169 -34.180581 
L 140.54222 -33.943674 
L 141.047271 -33.714535 
L 141.552323 -33.49654 
L 142.057374 -33.292411 
L 142.562425 -33.104178 
L 143.067476 -32.933171 
L 143.572527 -32.780061 
L 144.077578 -32.644913 
L 144.58263 -32.52728 
L 145.087681 -32.426291 
L 145.592732 -32.340762 
L 145.592732 -31.655801 
L 145.592732 -31.655801 
L 145.087681 -31.570271 
L 144.58263 -31.469283 
L 144.077578 -31.351649 
L 143.572527 -31.216502 
L 143.067476 -31.063391 
L 142.562425 -30.892385 
L 142.057374 -30.704151 
L 141.552323 -30.500022 
L 141.047271 -30.282027 
L 140.54222 -30.052889 
L 140.037169 -29.815982 
L 139.532118 -29.575249 
L 139.027067 -29.335079 
L 138.522016 -29.100151 
L 138.016964 -28.87525 
L 137.511913 -28.665077 
L 137.006862 -28.474047 
L 136.501811 -28.306113 
L 135.99676 -28.1646 
L 135.491709 -28.052085 
L 134.986658 -27.970313 
L 134.481606 -27.920158 
L 133.976555 -27.901634 
L 133.471504 -27.913931 
L 132.966453 -27.955502 
L 132.461402 -28.024154 
L 131.956351 -28.117163 
L 131.451299 -28.231387 
L 130.946248 -28.363371 
L 130.441197 -28.509449 
L 129.936146 -28.665824 
L 129.431095 -28.828643 
L 128.926044 -28.994058 
L 128.420992 -29.15828 
L 127.915941 -29.317637 
L 127.41089 -29.468627 
L 126.905839 -29.607987 
L 126.400788 -29.732752 
L 125.895737 -29.840335 
L 125.390685 -29.928595 
L 124.885634 -29.995902 
L 124.380583 -30.041194 
L 123.875532 -30.064007 
L 123.370481 -30.064488 
L 122.86543 -30.043369 
L 122.360378 -30.001922 
L 121.855327 -29.941874 
L 121.350276 -29.865298 
L 120.845225 -29.77449 
L 120.340174 -29.671824 
L 119.835123 -29.559616 
L 119.330072 -29.439992 
L 118.82502 -29.314773 
L 118.319969 -29.185389 
L 117.814918 -29.052831 
L 117.309867 -28.917635 
L 116.804816 -28.77991 
L 116.299765 -28.639404 
L 115.794713 -28.495607 
L 115.289662 -28.347882 
L 114.784611 -28.195621 
L 114.27956 -28.038401 
L 113.774509 -27.876154 
L 113.269458 -27.709316 
L 112.764406 -27.538951 
L 112.259355 -27.366846 
L 111.754304 -27.195552 
L 111.249253 -27.028378 
L 110.744202 -26.869325 
L 110.239151 -26.722963 
L 109.734099 -26.594248 
L 109.229048 -26.488302 
L 108.723997 -26.410154 
L 108.218946 -26.364457 
L 107.713895 -26.35522 
L 107.208844 -26.38555 
L 106.703793 -26.457437 
L 106.198741 -26.571594 
L 105.69369 -26.727374 
L 105.188639 -26.922755 
L 104.683588 -27.154412 
L 104.178537 -27.417856 
L 103.673486 -27.707644 
L 103.168434 -28.017635 
L 102.663383 -28.341279 
L 102.158332 -28.671908 
L 101.653281 -29.003028 
L 101.14823 -29.328578 
L 100.643179 -29.643145 
L 100.138127 -29.942131 
L 99.633076 -30.221858 
L 99.128025 -30.479615 
L 98.622974 -30.713655 
L 98.117923 -30.923134 
L 97.612872 -31.108023 
L 97.10782 -31.268986 
L 96.602769 -31.407244 
L 96.097718 -31.524436 
L 95.592667 -31.622483 
z
" style="stroke: #505050; stroke-width: 0.15"/>
    </defs>
    <g clip-path="url(#pb54e630433)">
     <use xlink:href="#m43daa2a576" x="0" y="56.16" style="fill: #abc3de; stroke: #505050; stroke-width: 0.15"/>
    </g>
   </g>
   <g id="PolyCollection_6">
    <defs>
     <path id="m830084d389" d="M 104.403993 -17.378115 
L 104.403993 -18.403142 
L 104.429739 -18.540966 
L 104.455486 -18.705508 
L 104.481233 -18.898907 
L 104.506979 -19.122629 
L 104.532726 -19.377234 
L 104.558472 -19.662154 
L 104.584219 -19.97549 
L 104.609966 -20.313876 
L 104.635712 -20.672398 
L 104.661459 -21.044618 
L 104.687205 -21.42269 
L 104.712952 -21.797586 
L 104.738698 -22.159431 
L 104.764445 -22.497917 
L 104.790192 -22.802798 
L 104.815938 -23.064416 
L 104.841685 -23.274221 
L 104.867431 -23.425269 
L 104.893178 -23.512628 
L 104.918925 -23.53369 
L 104.944671 -23.488342 
L 104.970418 -23.378995 
L 104.996164 -23.210458 
L 105.021911 -22.989682 
L 105.047658 -22.725372 
L 105.073404 -22.427522 
L 105.099151 -22.106882 
L 105.124897 -21.774417 
L 105.150644 -21.440773 
L 105.176391 -21.115808 
L 105.202137 -20.808183 
L 105.227884 -20.525065 
L 105.25363 -20.271926 
L 105.279377 -20.052456 
L 105.305124 -19.868581 
L 105.33087 -19.720569 
L 105.356617 -19.607219 
L 105.382363 -19.526101 
L 105.40811 -19.473837 
L 105.433857 -19.446398 
L 105.459603 -19.439388 
L 105.48535 -19.448318 
L 105.511096 -19.468835 
L 105.536843 -19.4969 
L 105.56259 -19.528925 
L 105.588336 -19.561841 
L 105.614083 -19.593125 
L 105.639829 -19.620778 
L 105.665576 -19.643268 
L 105.691323 -19.659462 
L 105.717069 -19.668539 
L 105.742816 -19.669922 
L 105.768562 -19.663215 
L 105.794309 -19.648174 
L 105.820056 -19.624701 
L 105.845802 -19.592856 
L 105.871549 -19.552901 
L 105.897295 -19.505339 
L 105.923042 -19.450968 
L 105.948789 -19.390906 
L 105.974535 -19.326609 
L 106.000282 -19.259848 
L 106.026028 -19.192662 
L 106.051775 -19.127269 
L 106.077522 -19.065959 
L 106.103268 -19.010955 
L 106.129015 -18.964269 
L 106.154761 -18.927562 
L 106.180508 -18.902009 
L 106.206255 -18.888204 
L 106.232001 -18.886083 
L 106.257748 -18.894906 
L 106.283494 -18.913271 
L 106.309241 -18.939186 
L 106.334988 -18.970178 
L 106.360734 -19.00343 
L 106.386481 -19.035961 
L 106.412227 -19.064797 
L 106.437974 -19.08716 
L 106.463721 -19.100629 
L 106.489467 -19.103281 
L 106.515214 -19.093796 
L 106.54096 -19.071519 
L 106.566707 -19.036468 
L 106.592454 -18.989308 
L 106.6182 -18.931275 
L 106.643947 -18.864069 
L 106.669693 -18.789728 
L 106.69544 -18.710484 
L 106.721187 -18.628623 
L 106.746933 -18.546353 
L 106.77268 -18.465695 
L 106.798426 -18.388393 
L 106.824173 -18.315862 
L 106.84992 -18.249151 
L 106.875666 -18.18895 
L 106.901413 -18.135607 
L 106.927159 -18.089165 
L 106.952906 -18.049417 
L 106.952906 -17.731841 
L 106.952906 -17.731841 
L 106.927159 -17.692093 
L 106.901413 -17.645651 
L 106.875666 -17.592307 
L 106.84992 -17.532107 
L 106.824173 -17.465396 
L 106.798426 -17.392864 
L 106.77268 -17.315563 
L 106.746933 -17.234905 
L 106.721187 -17.152635 
L 106.69544 -17.070773 
L 106.669693 -16.991529 
L 106.643947 -16.917189 
L 106.6182 -16.849983 
L 106.592454 -16.791949 
L 106.566707 -16.744789 
L 106.54096 -16.709738 
L 106.515214 -16.687461 
L 106.489467 -16.677977 
L 106.463721 -16.680629 
L 106.437974 -16.694097 
L 106.412227 -16.71646 
L 106.386481 -16.745297 
L 106.360734 -16.777827 
L 106.334988 -16.81108 
L 106.309241 -16.842071 
L 106.283494 -16.867987 
L 106.257748 -16.886352 
L 106.232001 -16.895174 
L 106.206255 -16.893053 
L 106.180508 -16.879248 
L 106.154761 -16.853696 
L 106.129015 -16.816988 
L 106.103268 -16.770302 
L 106.077522 -16.715298 
L 106.051775 -16.653988 
L 106.026028 -16.588596 
L 106.000282 -16.521409 
L 105.974535 -16.454649 
L 105.948789 -16.390351 
L 105.923042 -16.33029 
L 105.897295 -16.275918 
L 105.871549 -16.228357 
L 105.845802 -16.188401 
L 105.820056 -16.156557 
L 105.794309 -16.133083 
L 105.768562 -16.118043 
L 105.742816 -16.111336 
L 105.717069 -16.112718 
L 105.691323 -16.121796 
L 105.665576 -16.137989 
L 105.639829 -16.16048 
L 105.614083 -16.188132 
L 105.588336 -16.219417 
L 105.56259 -16.252333 
L 105.536843 -16.284358 
L 105.511096 -16.312423 
L 105.48535 -16.332939 
L 105.459603 -16.34187 
L 105.433857 -16.33486 
L 105.40811 -16.30742 
L 105.382363 -16.255157 
L 105.356617 -16.174038 
L 105.33087 -16.060688 
L 105.305124 -15.912677 
L 105.279377 -15.728802 
L 105.25363 -15.509332 
L 105.227884 -15.256193 
L 105.202137 -14.973074 
L 105.176391 -14.66545 
L 105.150644 -14.340484 
L 105.124897 -14.006841 
L 105.099151 -13.674375 
L 105.073404 -13.353736 
L 105.047658 -13.055885 
L 105.021911 -12.791576 
L 104.996164 -12.570799 
L 104.970418 -12.402263 
L 104.944671 -12.292915 
L 104.918925 -12.247568 
L 104.893178 -12.26863 
L 104.867431 -12.355989 
L 104.841685 -12.507036 
L 104.815938 -12.716842 
L 104.790192 -12.978459 
L 104.764445 -13.283341 
L 104.738698 -13.621827 
L 104.712952 -13.983671 
L 104.687205 -14.358568 
L 104.661459 -14.736639 
L 104.635712 -15.10886 
L 104.609966 -15.467382 
L 104.584219 -15.805767 
L 104.558472 -16.119104 
L 104.532726 -16.404023 
L 104.506979 -16.658629 
L 104.481233 -16.88235 
L 104.455486 -17.075749 
L 104.429739 -17.240291 
L 104.403993 -17.378115 
z
" style="stroke: #505050; stroke-width: 0.15"/>
    </defs>
    <g clip-path="url(#pb54e630433)">
     <use xlink:href="#m830084d389" x="0" y="56.16" style="fill: #c447c3; stroke: #505050; stroke-width: 0.15"/>
    </g>
   </g>
   <g id="line2d_20">
    <path d="M 104.838084 10.054066 
L 107.358 10.054066 
" clip-path="url(#pb54e630433)" style="fill: none; stroke: #8c8c8c; stroke-width: 0.75; stroke-linecap: round"/>
   </g>
   <g id="line2d_21">
    <path d="M 104.885215 10.054066 
L 106.925254 10.054066 
" clip-path="url(#pb54e630433)" style="fill: none; stroke: #8c8c8c; stroke-width: 4; stroke-linecap: round"/>
   </g>
   <g id="line2d_22">
    <path d="M 105.755135 10.054066 
" clip-path="url(#pb54e630433)" style="fill: none; stroke: #505050; stroke-width: 1.2; stroke-linecap: round"/>
    <g clip-path="url(#pb54e630433)">
     <use xlink:href="#m2d4fd4d088" x="105.755135" y="10.054066" style="fill: #ffffff; stroke: #ffffff; stroke-width: 0.8"/>
    </g>
   </g>
   <g id="line2d_23">
    <path d="M 104.962845 24.161719 
L 136.222554 24.161719 
" clip-path="url(#pb54e630433)" style="fill: none; stroke: #8c8c8c; stroke-width: 0.75; stroke-linecap: round"/>
   </g>
   <g id="line2d_24">
    <path d="M 107.297353 24.161719 
L 130.741316 24.161719 
" clip-path="url(#pb54e630433)" style="fill: none; stroke: #8c8c8c; stroke-width: 4; stroke-linecap: round"/>
   </g>
   <g id="line2d_25">
    <path d="M 115.688446 24.161719 
" clip-path="url(#pb54e630433)" style="fill: none; stroke: #505050; stroke-width: 1.2; stroke-linecap: round"/>
    <g clip-path="url(#pb54e630433)">
     <use xlink:href="#m2d4fd4d088" x="115.688446" y="24.161719" style="fill: #ffffff; stroke: #ffffff; stroke-width: 0.8"/>
    </g>
   </g>
   <g id="line2d_26">
    <path d="M 104.851846 38.269371 
L 106.505053 38.269371 
" clip-path="url(#pb54e630433)" style="fill: none; stroke: #8c8c8c; stroke-width: 0.75; stroke-linecap: round"/>
   </g>
   <g id="line2d_27">
    <path d="M 104.878678 38.269371 
L 105.658462 38.269371 
" clip-path="url(#pb54e630433)" style="fill: none; stroke: #8c8c8c; stroke-width: 4; stroke-linecap: round"/>
   </g>
   <g id="line2d_28">
    <path d="M 104.988374 38.269371 
" clip-path="url(#pb54e630433)" style="fill: none; stroke: #505050; stroke-width: 1.2; stroke-linecap: round"/>
    <g clip-path="url(#pb54e630433)">
     <use xlink:href="#m2d4fd4d088" x="104.988374" y="38.269371" style="fill: #ffffff; stroke: #ffffff; stroke-width: 0.8"/>
    </g>
   </g>
   <g id="patch_6">
    <path d="M 93.000474 45.323197 
L 93.000474 3.00024 
" style="fill: none; stroke: #777777; stroke-width: 0.5; stroke-linejoin: miter; stroke-linecap: square"/>
   </g>
   <g id="patch_7">
    <path d="M 93.000474 47.823198 
L 165.531088 47.823198 
" style="fill: none; stroke: #777777; stroke-width: 0.5; stroke-linejoin: miter; stroke-linecap: square"/>
   </g>
   <g id="PathCollection_4">
    <g clip-path="url(#pb54e630433)">
     <use xlink:href="#m362addb0cf" x="104.857734" y="9.373209" style="fill: #642222"/>
     <use xlink:href="#m362addb0cf" x="104.838084" y="8.854761" style="fill: #642222"/>
     <use xlink:href="#m362addb0cf" x="105.150654" y="9.73748" style="fill: #642222"/>
     <use xlink:href="#m362addb0cf" x="107.358" y="8.738615" style="fill: #642222"/>
     <use xlink:href="#m362addb0cf" x="113.122888" y="9.730693" style="fill: #642222"/>
     <use xlink:href="#m362addb0cf" x="104.894375" y="9.626902" style="fill: #642222"/>
     <use xlink:href="#m362addb0cf" x="106.359615" y="8.724035" style="fill: #642222"/>
     <use xlink:href="#m362addb0cf" x="106.781006" y="10.164466" style="fill: #642222"/>
    </g>
   </g>
   <g id="PathCollection_5">
    <g clip-path="url(#pb54e630433)">
     <use xlink:href="#m362addb0cf" x="104.962845" y="24.852989" style="fill: #642222"/>
     <use xlink:href="#m362addb0cf" x="107.384036" y="24.190107" style="fill: #642222"/>
     <use xlink:href="#m362addb0cf" x="134.816561" y="23.895423" style="fill: #642222"/>
     <use xlink:href="#m362addb0cf" x="118.46482" y="23.272981" style="fill: #642222"/>
     <use xlink:href="#m362addb0cf" x="136.222554" y="24.032771" style="fill: #642222"/>
     <use xlink:href="#m362addb0cf" x="107.037306" y="24.759789" style="fill: #642222"/>
     <use xlink:href="#m362addb0cf" x="112.912073" y="24.876963" style="fill: #642222"/>
     <use xlink:href="#m362addb0cf" x="129.382902" y="24.936563" style="fill: #642222"/>
    </g>
   </g>
   <g id="PathCollection_6">
    <g clip-path="url(#pb54e630433)">
     <use xlink:href="#m362addb0cf" x="104.851861" y="37.144992" style="fill: #642222"/>
     <use xlink:href="#m362addb0cf" x="104.887617" y="38.457966" style="fill: #642222"/>
     <use xlink:href="#m362addb0cf" x="105.015104" y="38.929648" style="fill: #642222"/>
     <use xlink:href="#m362addb0cf" x="106.505053" y="37.712468" style="fill: #642222"/>
     <use xlink:href="#m362addb0cf" x="105.911798" y="37.474597" style="fill: #642222"/>
     <use xlink:href="#m362addb0cf" x="104.851846" y="37.870552" style="fill: #642222"/>
     <use xlink:href="#m362addb0cf" x="105.574017" y="39.630487" style="fill: #642222"/>
     <use xlink:href="#m362addb0cf" x="104.961644" y="37.120022" style="fill: #642222"/>
    </g>
   </g>
  </g>
 </g>
 <defs>
  <clipPath id="p467df0dc8a">
   <rect x="8.040474" y="3.00024" width="72.530614" height="42.322957"/>
  </clipPath>
  <clipPath id="pb54e630433">
   <rect x="93.000474" y="3.00024" width="72.530614" height="42.322957"/>
  </clipPath>
 </defs>
</svg>
