<?xml version="1.0" encoding="utf-8" standalone="no"?>
<!DOCTYPE svg PUBLIC "-//W3C//DTD SVG 1.1//EN"
  "http://www.w3.org/Graphics/SVG/1.1/DTD/svg11.dtd">
<svg xmlns:xlink="http://www.w3.org/1999/xlink" width="254.88pt" height="84.96pt" viewBox="0 0 254.88 84.96" xmlns="http://www.w3.org/2000/svg" version="1.1">
 <metadata>
  <rdf:RDF xmlns:dc="http://purl.org/dc/elements/1.1/" xmlns:cc="http://creativecommons.org/ns#" xmlns:rdf="http://www.w3.org/1999/02/22-rdf-syntax-ns#">
   <cc:Work>
    <dc:type rdf:resource="http://purl.org/dc/dcmitype/StillImage"/>
    <dc:date>2024-05-27T15:36:56.980212</dc:date>
    <dc:format>image/svg+xml</dc:format>
    <dc:creator>
     <cc:Agent>
      <dc:title>Matplotlib v3.8.3, https://matplotlib.org/</dc:title>
     </cc:Agent>
    </dc:creator>
   </cc:Work>
  </rdf:RDF>
 </metadata>
 <defs>
  <style type="text/css">*{stroke-linejoin: round; stroke-linecap: butt}</style>
 </defs>
 <g id="figure_1">
  <g id="patch_1">
   <path d="M 0 84.96 
L 254.88 84.96 
L 254.88 0 
L 0 0 
z
" style="fill: #ffffff"/>
  </g>
  <g id="axes_1">
   <g id="patch_2">
    <path d="M 10.005084 54.222338 
L 251.87976 54.222338 
L 251.87976 4.076256 
L 10.005084 4.076256 
z
" style="fill: #ffffff"/>
   </g>
   <g id="matplotlib.axis_1">
    <g id="xtick_1">
     <g id="text_1">
      <!-- CD20+ Cells -->
      <g style="fill: #333333" transform="translate(24.333152 78.266166) rotate(-90) scale(0.035 -0.035)">
       <defs>
        <path id="Helvetica-43" d="M 2422 4716 
Q 3294 4716 3775 4256 
Q 4256 3797 4309 3213 
L 3703 3213 
Q 3600 3656 3292 3915 
Q 2984 4175 2428 4175 
Q 1750 4175 1333 3698 
Q 916 3222 916 2238 
Q 916 1431 1292 929 
Q 1669 428 2416 428 
Q 3103 428 3463 956 
Q 3653 1234 3747 1688 
L 4353 1688 
Q 4272 963 3816 472 
Q 3269 -119 2341 -119 
Q 1541 -119 997 366 
Q 281 1006 281 2344 
Q 281 3359 819 4009 
Q 1400 4716 2422 4716 
z
M 2297 4716 
L 2297 4716 
z
" transform="scale(0.015625)"/>
        <path id="Helvetica-44" d="M 2250 531 
Q 2566 531 2769 597 
Q 3131 719 3363 1066 
Q 3547 1344 3628 1778 
Q 3675 2038 3675 2259 
Q 3675 3113 3336 3584 
Q 2997 4056 2244 4056 
L 1141 4056 
L 1141 531 
L 2250 531 
z
M 516 4591 
L 2375 4591 
Q 3322 4591 3844 3919 
Q 4309 3313 4309 2366 
Q 4309 1634 4034 1044 
Q 3550 0 2369 0 
L 516 0 
L 516 4591 
z
" transform="scale(0.015625)"/>
        <path id="Helvetica-32" d="M 200 0 
Q 231 578 439 1006 
Q 647 1434 1250 1784 
L 1850 2131 
Q 2253 2366 2416 2531 
Q 2672 2791 2672 3125 
Q 2672 3516 2437 3745 
Q 2203 3975 1813 3975 
Q 1234 3975 1013 3538 
Q 894 3303 881 2888 
L 309 2888 
Q 319 3472 525 3841 
Q 891 4491 1816 4491 
Q 2584 4491 2939 4075 
Q 3294 3659 3294 3150 
Q 3294 2613 2916 2231 
Q 2697 2009 2131 1694 
L 1703 1456 
Q 1397 1288 1222 1134 
Q 909 863 828 531 
L 3272 531 
L 3272 0 
L 200 0 
z
" transform="scale(0.015625)"/>
        <path id="Helvetica-30" d="M 1731 4475 
Q 2600 4475 2988 3759 
Q 3288 3206 3288 2244 
Q 3288 1331 3016 734 
Q 2622 -122 1728 -122 
Q 922 -122 528 578 
Q 200 1163 200 2147 
Q 200 2909 397 3456 
Q 766 4475 1731 4475 
z
M 1725 391 
Q 2163 391 2422 778 
Q 2681 1166 2681 2222 
Q 2681 2984 2493 3476 
Q 2306 3969 1766 3969 
Q 1269 3969 1039 3501 
Q 809 3034 809 2125 
Q 809 1441 956 1025 
Q 1181 391 1725 391 
z
" transform="scale(0.015625)"/>
        <path id="Helvetica-2b" d="M 288 1369 
L 288 1894 
L 1650 1894 
L 1650 3266 
L 2184 3266 
L 2184 1894 
L 3547 1894 
L 3547 1369 
L 2184 1369 
L 2184 0 
L 1650 0 
L 1650 1369 
L 288 1369 
z
" transform="scale(0.015625)"/>
        <path id="Helvetica-20" transform="scale(0.015625)"/>
        <path id="Helvetica-65" d="M 1806 3422 
Q 2163 3422 2497 3255 
Q 2831 3088 3006 2822 
Q 3175 2569 3231 2231 
Q 3281 2000 3281 1494 
L 828 1494 
Q 844 984 1069 676 
Q 1294 369 1766 369 
Q 2206 369 2469 659 
Q 2619 828 2681 1050 
L 3234 1050 
Q 3213 866 3089 639 
Q 2966 413 2813 269 
Q 2556 19 2178 -69 
Q 1975 -119 1719 -119 
Q 1094 -119 659 336 
Q 225 791 225 1609 
Q 225 2416 662 2919 
Q 1100 3422 1806 3422 
z
M 2703 1941 
Q 2669 2306 2544 2525 
Q 2313 2931 1772 2931 
Q 1384 2931 1121 2651 
Q 859 2372 844 1941 
L 2703 1941 
z
M 1753 3428 
L 1753 3428 
z
" transform="scale(0.015625)"/>
        <path id="Helvetica-6c" d="M 428 4591 
L 991 4591 
L 991 0 
L 428 0 
L 428 4591 
z
" transform="scale(0.015625)"/>
        <path id="Helvetica-73" d="M 747 1050 
Q 772 769 888 619 
Q 1100 347 1625 347 
Q 1938 347 2175 483 
Q 2413 619 2413 903 
Q 2413 1119 2222 1231 
Q 2100 1300 1741 1391 
L 1294 1503 
Q 866 1609 663 1741 
Q 300 1969 300 2372 
Q 300 2847 642 3140 
Q 984 3434 1563 3434 
Q 2319 3434 2653 2991 
Q 2863 2709 2856 2384 
L 2325 2384 
Q 2309 2575 2191 2731 
Q 1997 2953 1519 2953 
Q 1200 2953 1036 2831 
Q 872 2709 872 2509 
Q 872 2291 1088 2159 
Q 1213 2081 1456 2022 
L 1828 1931 
Q 2434 1784 2641 1647 
Q 2969 1431 2969 969 
Q 2969 522 2630 197 
Q 2291 -128 1597 -128 
Q 850 -128 539 211 
Q 228 550 206 1050 
L 747 1050 
z
M 1578 3428 
L 1578 3428 
z
" transform="scale(0.015625)"/>
       </defs>
       <use xlink:href="#Helvetica-43"/>
       <use xlink:href="#Helvetica-44" x="72.216797"/>
       <use xlink:href="#Helvetica-32" x="144.433594"/>
       <use xlink:href="#Helvetica-30" x="200.048828"/>
       <use xlink:href="#Helvetica-2b" x="255.664062"/>
       <use xlink:href="#Helvetica-20" x="314.0625"/>
       <use xlink:href="#Helvetica-43" x="341.845703"/>
       <use xlink:href="#Helvetica-65" x="414.0625"/>
       <use xlink:href="#Helvetica-6c" x="469.677734"/>
       <use xlink:href="#Helvetica-6c" x="491.894531"/>
       <use xlink:href="#Helvetica-73" x="514.111328"/>
      </g>
     </g>
    </g>
    <g id="xtick_2">
     <g id="text_2">
      <!-- TCRαδ+ Cells -->
      <g style="fill: #333333" transform="translate(51.208116 80.786713) rotate(-90) scale(0.035 -0.035)">
       <defs>
        <path id="Helvetica-54" d="M 3828 4591 
L 3828 4044 
L 2281 4044 
L 2281 0 
L 1650 0 
L 1650 4044 
L 103 4044 
L 103 4591 
L 3828 4591 
z
" transform="scale(0.015625)"/>
        <path id="Helvetica-52" d="M 2622 2488 
Q 3059 2488 3314 2663 
Q 3569 2838 3569 3294 
Q 3569 3784 3213 3963 
Q 3022 4056 2703 4056 
L 1184 4056 
L 1184 2488 
L 2622 2488 
z
M 563 4591 
L 2688 4591 
Q 3213 4591 3553 4438 
Q 4200 4144 4200 3353 
Q 4200 2941 4029 2678 
Q 3859 2416 3553 2256 
Q 3822 2147 3958 1969 
Q 4094 1791 4109 1391 
L 4131 775 
Q 4141 513 4175 384 
Q 4231 166 4375 103 
L 4375 0 
L 3613 0 
Q 3581 59 3562 153 
Q 3544 247 3531 516 
L 3494 1281 
Q 3472 1731 3159 1884 
Q 2981 1969 2600 1969 
L 1184 1969 
L 1184 0 
L 563 0 
L 563 4591 
z
" transform="scale(0.015625)"/>
        <path id="Helvetica-3b1" d="M 3347 703 
Q 3334 428 3525 434 
Q 3641 434 3700 475 
L 3700 -19 
Q 3628 -44 3513 -50 
Q 3391 -63 3309 -63 
Q 3084 -56 2956 103 
Q 2816 256 2816 475 
L 2803 475 
Q 2413 -63 1734 -63 
Q 1006 -50 647 459 
Q 281 953 281 1644 
Q 281 2350 634 2859 
Q 984 3378 1741 3391 
Q 2413 3391 2797 2847 
L 2809 2847 
L 2809 3328 
L 3347 3328 
L 3347 703 
z
M 1825 397 
Q 2075 397 2253 513 
Q 2425 622 2541 806 
Q 2766 1184 2766 1638 
Q 2766 2144 2559 2528 
Q 2350 2919 1797 2931 
Q 1306 2919 1081 2534 
Q 856 2156 856 1697 
Q 856 1209 1081 819 
Q 1306 409 1825 397 
z
" transform="scale(0.015625)"/>
        <path id="Helvetica-3b4" d="M 666 4519 
L 3188 4519 
L 3188 4056 
L 1394 4056 
L 1394 4044 
L 2509 3303 
Q 3134 2881 3372 2469 
Q 3591 2053 3584 1600 
Q 3578 934 3163 447 
Q 2738 -50 1938 -63 
Q 1203 -56 769 403 
Q 331 850 325 1556 
Q 341 3066 1863 3188 
L 1863 3200 
L 666 4056 
L 666 4519 
z
M 1991 397 
Q 2497 403 2731 794 
Q 2969 1166 2969 1606 
Q 2969 1856 2919 2041 
Q 2866 2222 2791 2344 
Q 2713 2463 2638 2541 
Q 2559 2619 2509 2650 
Q 2381 2766 2156 2766 
Q 947 2766 941 1528 
Q 941 1056 1216 738 
Q 1491 403 1991 397 
z
" transform="scale(0.015625)"/>
       </defs>
       <use xlink:href="#Helvetica-54"/>
       <use xlink:href="#Helvetica-43" x="61.083984"/>
       <use xlink:href="#Helvetica-52" x="133.300781"/>
       <use xlink:href="#Helvetica-3b1" x="205.517578"/>
       <use xlink:href="#Helvetica-3b4" x="266.601562"/>
       <use xlink:href="#Helvetica-2b" x="327.685547"/>
       <use xlink:href="#Helvetica-20" x="386.083984"/>
       <use xlink:href="#Helvetica-43" x="413.867188"/>
       <use xlink:href="#Helvetica-65" x="486.083984"/>
       <use xlink:href="#Helvetica-6c" x="541.699219"/>
       <use xlink:href="#Helvetica-6c" x="563.916016"/>
       <use xlink:href="#Helvetica-73" x="586.132812"/>
      </g>
     </g>
    </g>
    <g id="xtick_3">
     <g id="text_3">
      <!-- IL7R+ Cells -->
      <g style="fill: #333333" transform="translate(78.08308 76.710854) rotate(-90) scale(0.035 -0.035)">
       <defs>
        <path id="Helvetica-49" d="M 628 4591 
L 1256 4591 
L 1256 0 
L 628 0 
L 628 4591 
z
" transform="scale(0.015625)"/>
        <path id="Helvetica-4c" d="M 488 4591 
L 1109 4591 
L 1109 547 
L 3434 547 
L 3434 0 
L 488 0 
L 488 4591 
z
" transform="scale(0.015625)"/>
        <path id="Helvetica-37" d="M 3347 4400 
L 3347 3909 
Q 3131 3700 2773 3181 
Q 2416 2663 2141 2063 
Q 1869 1478 1728 997 
Q 1638 688 1494 0 
L 872 0 
Q 1084 1281 1809 2550 
Q 2238 3294 2709 3834 
L 234 3834 
L 234 4400 
L 3347 4400 
z
" transform="scale(0.015625)"/>
       </defs>
       <use xlink:href="#Helvetica-49"/>
       <use xlink:href="#Helvetica-4c" x="27.783203"/>
       <use xlink:href="#Helvetica-37" x="83.398438"/>
       <use xlink:href="#Helvetica-52" x="139.013672"/>
       <use xlink:href="#Helvetica-2b" x="211.230469"/>
       <use xlink:href="#Helvetica-20" x="269.628906"/>
       <use xlink:href="#Helvetica-43" x="297.412109"/>
       <use xlink:href="#Helvetica-65" x="369.628906"/>
       <use xlink:href="#Helvetica-6c" x="425.244141"/>
       <use xlink:href="#Helvetica-6c" x="447.460938"/>
       <use xlink:href="#Helvetica-73" x="469.677734"/>
      </g>
     </g>
    </g>
    <g id="xtick_4">
     <g id="text_4">
      <!-- EOMES+ Cells -->
      <g style="fill: #333333" transform="translate(104.958044 81.95976) rotate(-90) scale(0.035 -0.035)">
       <defs>
        <path id="Helvetica-45" d="M 547 4591 
L 3894 4591 
L 3894 4028 
L 1153 4028 
L 1153 2634 
L 3688 2634 
L 3688 2103 
L 1153 2103 
L 1153 547 
L 3941 547 
L 3941 0 
L 547 0 
L 547 4591 
z
M 2244 4591 
L 2244 4591 
z
" transform="scale(0.015625)"/>
        <path id="Helvetica-4f" d="M 2469 4716 
Q 3684 4716 4269 3934 
Q 4725 3325 4725 2375 
Q 4725 1347 4203 666 
Q 3591 -134 2456 -134 
Q 1397 -134 791 566 
Q 250 1241 250 2272 
Q 250 3203 713 3866 
Q 1306 4716 2469 4716 
z
M 2531 422 
Q 3353 422 3720 1011 
Q 4088 1600 4088 2366 
Q 4088 3175 3664 3669 
Q 3241 4163 2506 4163 
Q 1794 4163 1344 3673 
Q 894 3184 894 2231 
Q 894 1469 1280 945 
Q 1666 422 2531 422 
z
M 2488 4716 
L 2488 4716 
z
" transform="scale(0.015625)"/>
        <path id="Helvetica-4d" d="M 472 4591 
L 1363 4591 
L 2681 709 
L 3991 4591 
L 4872 4591 
L 4872 0 
L 4281 0 
L 4281 2709 
Q 4281 2850 4287 3175 
Q 4294 3500 4294 3872 
L 2984 0 
L 2369 0 
L 1050 3872 
L 1050 3731 
Q 1050 3563 1058 3217 
Q 1066 2872 1066 2709 
L 1066 0 
L 472 0 
L 472 4591 
z
" transform="scale(0.015625)"/>
        <path id="Helvetica-53" d="M 894 1481 
Q 916 1091 1078 847 
Q 1388 391 2169 391 
Q 2519 391 2806 491 
Q 3363 684 3363 1184 
Q 3363 1559 3128 1719 
Q 2891 1875 2384 1991 
L 1763 2131 
Q 1153 2269 900 2434 
Q 463 2722 463 3294 
Q 463 3913 891 4309 
Q 1319 4706 2103 4706 
Q 2825 4706 3329 4357 
Q 3834 4009 3834 3244 
L 3250 3244 
Q 3203 3613 3050 3809 
Q 2766 4169 2084 4169 
Q 1534 4169 1293 3937 
Q 1053 3706 1053 3400 
Q 1053 3063 1334 2906 
Q 1519 2806 2169 2656 
L 2813 2509 
Q 3278 2403 3531 2219 
Q 3969 1897 3969 1284 
Q 3969 522 3414 194 
Q 2859 -134 2125 -134 
Q 1269 -134 784 303 
Q 300 738 309 1481 
L 894 1481 
z
M 2150 4716 
L 2150 4716 
z
" transform="scale(0.015625)"/>
       </defs>
       <use xlink:href="#Helvetica-45"/>
       <use xlink:href="#Helvetica-4f" x="66.699219"/>
       <use xlink:href="#Helvetica-4d" x="144.482422"/>
       <use xlink:href="#Helvetica-45" x="227.783203"/>
       <use xlink:href="#Helvetica-53" x="294.482422"/>
       <use xlink:href="#Helvetica-2b" x="361.181641"/>
       <use xlink:href="#Helvetica-20" x="419.580078"/>
       <use xlink:href="#Helvetica-43" x="447.363281"/>
       <use xlink:href="#Helvetica-65" x="519.580078"/>
       <use xlink:href="#Helvetica-6c" x="575.195312"/>
       <use xlink:href="#Helvetica-6c" x="597.412109"/>
       <use xlink:href="#Helvetica-73" x="619.628906"/>
      </g>
     </g>
    </g>
    <g id="xtick_5">
     <g id="text_5">
      <!-- TBX+ Cells -->
      <g style="fill: #333333" transform="translate(131.833008 76.125151) rotate(-90) scale(0.035 -0.035)">
       <defs>
        <path id="Helvetica-42" d="M 2213 2650 
Q 2606 2650 2825 2759 
Q 3169 2931 3169 3378 
Q 3169 3828 2803 3984 
Q 2597 4072 2191 4072 
L 1081 4072 
L 1081 2650 
L 2213 2650 
z
M 2422 531 
Q 2994 531 3238 863 
Q 3391 1072 3391 1369 
Q 3391 1869 2944 2050 
Q 2706 2147 2316 2147 
L 1081 2147 
L 1081 531 
L 2422 531 
z
M 472 4591 
L 2444 4591 
Q 3250 4591 3591 4109 
Q 3791 3825 3791 3453 
Q 3791 3019 3544 2741 
Q 3416 2594 3175 2472 
Q 3528 2338 3703 2169 
Q 4013 1869 4013 1341 
Q 4013 897 3734 538 
Q 3319 0 2413 0 
L 472 0 
L 472 4591 
z
" transform="scale(0.015625)"/>
        <path id="Helvetica-58" d="M 881 0 
L 131 0 
L 1775 2353 
L 234 4591 
L 1013 4591 
L 2184 2834 
L 3347 4591 
L 4088 4591 
L 2547 2353 
L 4163 0 
L 3391 0 
L 2153 1888 
L 881 0 
z
" transform="scale(0.015625)"/>
       </defs>
       <use xlink:href="#Helvetica-54"/>
       <use xlink:href="#Helvetica-42" x="61.083984"/>
       <use xlink:href="#Helvetica-58" x="127.783203"/>
       <use xlink:href="#Helvetica-2b" x="194.482422"/>
       <use xlink:href="#Helvetica-20" x="252.880859"/>
       <use xlink:href="#Helvetica-43" x="280.664062"/>
       <use xlink:href="#Helvetica-65" x="352.880859"/>
       <use xlink:href="#Helvetica-6c" x="408.496094"/>
       <use xlink:href="#Helvetica-6c" x="430.712891"/>
       <use xlink:href="#Helvetica-73" x="452.929688"/>
      </g>
     </g>
    </g>
    <g id="xtick_6">
     <g id="text_6">
      <!-- GATA+ Cells -->
      <g style="fill: #333333" transform="translate(158.707972 78.847494) rotate(-90) scale(0.035 -0.035)">
       <defs>
        <path id="Helvetica-47" d="M 2472 4709 
Q 3119 4709 3591 4459 
Q 4275 4100 4428 3200 
L 3813 3200 
Q 3700 3703 3347 3933 
Q 2994 4163 2456 4163 
Q 1819 4163 1383 3684 
Q 947 3206 947 2259 
Q 947 1441 1306 927 
Q 1666 413 2478 413 
Q 3100 413 3508 773 
Q 3916 1134 3925 1941 
L 2488 1941 
L 2488 2456 
L 4503 2456 
L 4503 0 
L 4103 0 
L 3953 591 
Q 3638 244 3394 109 
Q 2984 -122 2353 -122 
Q 1538 -122 950 406 
Q 309 1069 309 2225 
Q 309 3378 934 4059 
Q 1528 4709 2472 4709 
z
M 2369 4716 
L 2369 4716 
z
" transform="scale(0.015625)"/>
        <path id="Helvetica-41" d="M 2844 1881 
L 2147 3909 
L 1406 1881 
L 2844 1881 
z
M 1822 4591 
L 2525 4591 
L 4191 0 
L 3509 0 
L 3044 1375 
L 1228 1375 
L 731 0 
L 94 0 
L 1822 4591 
z
" transform="scale(0.015625)"/>
       </defs>
       <use xlink:href="#Helvetica-47"/>
       <use xlink:href="#Helvetica-41" x="77.783203"/>
       <use xlink:href="#Helvetica-54" x="144.482422"/>
       <use xlink:href="#Helvetica-41" x="205.566406"/>
       <use xlink:href="#Helvetica-2b" x="272.265625"/>
       <use xlink:href="#Helvetica-20" x="330.664062"/>
       <use xlink:href="#Helvetica-43" x="358.447266"/>
       <use xlink:href="#Helvetica-65" x="430.664062"/>
       <use xlink:href="#Helvetica-6c" x="486.279297"/>
       <use xlink:href="#Helvetica-6c" x="508.496094"/>
       <use xlink:href="#Helvetica-73" x="530.712891"/>
      </g>
     </g>
    </g>
    <g id="xtick_7">
     <g id="text_7">
      <!-- ICOS+ Cells -->
      <g style="fill: #333333" transform="translate(185.582936 77.875151) rotate(-90) scale(0.035 -0.035)">
       <use xlink:href="#Helvetica-49"/>
       <use xlink:href="#Helvetica-43" x="27.783203"/>
       <use xlink:href="#Helvetica-4f" x="100"/>
       <use xlink:href="#Helvetica-53" x="177.783203"/>
       <use xlink:href="#Helvetica-2b" x="244.482422"/>
       <use xlink:href="#Helvetica-20" x="302.880859"/>
       <use xlink:href="#Helvetica-43" x="330.664062"/>
       <use xlink:href="#Helvetica-65" x="402.880859"/>
       <use xlink:href="#Helvetica-6c" x="458.496094"/>
       <use xlink:href="#Helvetica-6c" x="480.712891"/>
       <use xlink:href="#Helvetica-73" x="502.929688"/>
      </g>
     </g>
    </g>
    <g id="xtick_8">
     <g id="text_8">
      <!-- RORγT+ Cells -->
      <g style="fill: #333333" transform="translate(212.469931 81.179916) rotate(-90) scale(0.035 -0.035)">
       <defs>
        <path id="Helvetica-3b3" d="M 1556 225 
L 581 2444 
Q 481 2700 416 2803 
Q 347 2894 244 2894 
Q 91 2888 56 2872 
L 56 3334 
Q 166 3384 313 3391 
Q 641 3391 788 3250 
Q 863 3188 922 3078 
Q 978 2963 1038 2809 
L 1844 878 
L 2828 3328 
L 3431 3328 
L 2131 225 
L 2131 -1253 
L 1556 -1253 
L 1556 225 
z
" transform="scale(0.015625)"/>
       </defs>
       <use xlink:href="#Helvetica-52"/>
       <use xlink:href="#Helvetica-4f" x="72.216797"/>
       <use xlink:href="#Helvetica-52" x="150"/>
       <use xlink:href="#Helvetica-3b3" x="222.216797"/>
       <use xlink:href="#Helvetica-54" x="277.832031"/>
       <use xlink:href="#Helvetica-2b" x="338.916016"/>
       <use xlink:href="#Helvetica-20" x="397.314453"/>
       <use xlink:href="#Helvetica-43" x="425.097656"/>
       <use xlink:href="#Helvetica-65" x="497.314453"/>
       <use xlink:href="#Helvetica-6c" x="552.929688"/>
       <use xlink:href="#Helvetica-6c" x="575.146484"/>
       <use xlink:href="#Helvetica-73" x="597.363281"/>
      </g>
     </g>
    </g>
    <g id="xtick_9">
     <g id="text_9">
      <!-- AHR+ Cells -->
      <g style="fill: #333333" transform="translate(239.332864 76.708119) rotate(-90) scale(0.035 -0.035)">
       <defs>
        <path id="Helvetica-48" d="M 503 4591 
L 1131 4591 
L 1131 2694 
L 3519 2694 
L 3519 4591 
L 4147 4591 
L 4147 0 
L 3519 0 
L 3519 2147 
L 1131 2147 
L 1131 0 
L 503 0 
L 503 4591 
z
" transform="scale(0.015625)"/>
       </defs>
       <use xlink:href="#Helvetica-41"/>
       <use xlink:href="#Helvetica-48" x="66.699219"/>
       <use xlink:href="#Helvetica-52" x="138.916016"/>
       <use xlink:href="#Helvetica-2b" x="211.132812"/>
       <use xlink:href="#Helvetica-20" x="269.53125"/>
       <use xlink:href="#Helvetica-43" x="297.314453"/>
       <use xlink:href="#Helvetica-65" x="369.53125"/>
       <use xlink:href="#Helvetica-6c" x="425.146484"/>
       <use xlink:href="#Helvetica-6c" x="447.363281"/>
       <use xlink:href="#Helvetica-73" x="469.580078"/>
      </g>
     </g>
    </g>
   </g>
   <g id="matplotlib.axis_2">
    <g id="ytick_1">
     <g id="line2d_1">
      <defs>
       <path id="me152788b6a" d="M 0 0 
L -1 0 
" style="stroke: #777777; stroke-width: 0.5"/>
      </defs>
      <g>
       <use xlink:href="#me152788b6a" x="10.005084" y="48.355357" style="fill: #777777; stroke: #777777; stroke-width: 0.5"/>
      </g>
     </g>
     <g id="text_10">
      <!-- 0 -->
      <g style="fill: #333333" transform="translate(6.336803 49.431373) scale(0.03 -0.03)">
       <use xlink:href="#Helvetica-30"/>
      </g>
     </g>
    </g>
    <g id="ytick_2">
     <g id="line2d_2">
      <g>
       <use xlink:href="#me152788b6a" x="10.005084" y="40.975507" style="fill: #777777; stroke: #777777; stroke-width: 0.5"/>
      </g>
     </g>
     <g id="text_11">
      <!-- 20 -->
      <g style="fill: #333333" transform="translate(4.668521 42.051523) scale(0.03 -0.03)">
       <use xlink:href="#Helvetica-32"/>
       <use xlink:href="#Helvetica-30" x="55.615234"/>
      </g>
     </g>
    </g>
    <g id="ytick_3">
     <g id="line2d_3">
      <g>
       <use xlink:href="#me152788b6a" x="10.005084" y="33.595657" style="fill: #777777; stroke: #777777; stroke-width: 0.5"/>
      </g>
     </g>
     <g id="text_12">
      <!-- 40 -->
      <g style="fill: #333333" transform="translate(4.668521 34.671672) scale(0.03 -0.03)">
       <defs>
        <path id="Helvetica-34" d="M 2116 1584 
L 2116 3613 
L 681 1584 
L 2116 1584 
z
M 2125 0 
L 2125 1094 
L 163 1094 
L 163 1644 
L 2213 4488 
L 2688 4488 
L 2688 1584 
L 3347 1584 
L 3347 1094 
L 2688 1094 
L 2688 0 
L 2125 0 
z
" transform="scale(0.015625)"/>
       </defs>
       <use xlink:href="#Helvetica-34"/>
       <use xlink:href="#Helvetica-30" x="55.615234"/>
      </g>
     </g>
    </g>
    <g id="ytick_4">
     <g id="line2d_4">
      <g>
       <use xlink:href="#me152788b6a" x="10.005084" y="26.215806" style="fill: #777777; stroke: #777777; stroke-width: 0.5"/>
      </g>
     </g>
     <g id="text_13">
      <!-- 60 -->
      <g style="fill: #333333" transform="translate(4.668521 27.291822) scale(0.03 -0.03)">
       <defs>
        <path id="Helvetica-36" d="M 1872 4494 
Q 2622 4494 2917 4105 
Q 3213 3716 3213 3303 
L 2656 3303 
Q 2606 3569 2497 3719 
Q 2294 4000 1881 4000 
Q 1409 4000 1131 3564 
Q 853 3128 822 2316 
Q 1016 2600 1309 2741 
Q 1578 2866 1909 2866 
Q 2472 2866 2890 2506 
Q 3309 2147 3309 1434 
Q 3309 825 2912 354 
Q 2516 -116 1781 -116 
Q 1153 -116 697 361 
Q 241 838 241 1966 
Q 241 2800 444 3381 
Q 834 4494 1872 4494 
z
M 1831 384 
Q 2275 384 2495 682 
Q 2716 981 2716 1388 
Q 2716 1731 2519 2042 
Q 2322 2353 1803 2353 
Q 1441 2353 1167 2112 
Q 894 1872 894 1388 
Q 894 963 1142 673 
Q 1391 384 1831 384 
z
" transform="scale(0.015625)"/>
       </defs>
       <use xlink:href="#Helvetica-36"/>
       <use xlink:href="#Helvetica-30" x="55.615234"/>
      </g>
     </g>
    </g>
    <g id="ytick_5">
     <g id="line2d_5">
      <g>
       <use xlink:href="#me152788b6a" x="10.005084" y="18.835956" style="fill: #777777; stroke: #777777; stroke-width: 0.5"/>
      </g>
     </g>
     <g id="text_14">
      <!-- 80 -->
      <g style="fill: #333333" transform="translate(4.668521 19.911972) scale(0.03 -0.03)">
       <defs>
        <path id="Helvetica-38" d="M 1741 2600 
Q 2113 2600 2322 2808 
Q 2531 3016 2531 3303 
Q 2531 3553 2331 3762 
Q 2131 3972 1722 3972 
Q 1316 3972 1134 3762 
Q 953 3553 953 3272 
Q 953 2956 1187 2778 
Q 1422 2600 1741 2600 
z
M 1775 384 
Q 2166 384 2423 595 
Q 2681 806 2681 1225 
Q 2681 1659 2415 1884 
Q 2150 2109 1734 2109 
Q 1331 2109 1076 1879 
Q 822 1650 822 1244 
Q 822 894 1055 639 
Q 1288 384 1775 384 
z
M 975 2384 
Q 741 2484 609 2619 
Q 363 2869 363 3269 
Q 363 3769 725 4128 
Q 1088 4488 1753 4488 
Q 2397 4488 2762 4148 
Q 3128 3809 3128 3356 
Q 3128 2938 2916 2678 
Q 2797 2531 2547 2391 
Q 2825 2263 2984 2097 
Q 3281 1784 3281 1284 
Q 3281 694 2884 283 
Q 2488 -128 1763 -128 
Q 1109 -128 657 226 
Q 206 581 206 1256 
Q 206 1653 400 1942 
Q 594 2231 975 2384 
z
" transform="scale(0.015625)"/>
       </defs>
       <use xlink:href="#Helvetica-38"/>
       <use xlink:href="#Helvetica-30" x="55.615234"/>
      </g>
     </g>
    </g>
    <g id="ytick_6">
     <g id="line2d_6">
      <g>
       <use xlink:href="#me152788b6a" x="10.005084" y="11.456106" style="fill: #777777; stroke: #777777; stroke-width: 0.5"/>
      </g>
     </g>
     <g id="text_15">
      <!-- 100 -->
      <g style="fill: #333333" transform="translate(3.00024 12.532122) scale(0.03 -0.03)">
       <defs>
        <path id="Helvetica-31" d="M 613 3169 
L 613 3600 
Q 1222 3659 1462 3798 
Q 1703 3938 1822 4456 
L 2266 4456 
L 2266 0 
L 1666 0 
L 1666 3169 
L 613 3169 
z
" transform="scale(0.015625)"/>
       </defs>
       <use xlink:href="#Helvetica-31"/>
       <use xlink:href="#Helvetica-30" x="55.615234"/>
       <use xlink:href="#Helvetica-30" x="111.230469"/>
      </g>
     </g>
    </g>
    <g id="ytick_7">
     <g id="line2d_7">
      <g>
       <use xlink:href="#me152788b6a" x="10.005084" y="4.076256" style="fill: #777777; stroke: #777777; stroke-width: 0.5"/>
      </g>
     </g>
     <g id="text_16">
      <!-- 120 -->
      <g style="fill: #333333" transform="translate(3.00024 5.152271) scale(0.03 -0.03)">
       <use xlink:href="#Helvetica-31"/>
       <use xlink:href="#Helvetica-32" x="55.615234"/>
       <use xlink:href="#Helvetica-30" x="111.230469"/>
      </g>
     </g>
    </g>
   </g>
   <g id="PolyCollection_1">
    <defs>
     <path id="m929aac4fe3" d="M 24.138964 -39.222977 
L 22.746168 -39.222977 
L 22.538578 -39.4217 
L 22.297707 -39.620423 
L 22.02704 -39.819146 
L 21.732441 -40.017868 
L 21.421687 -40.216591 
L 21.103603 -40.415314 
L 20.786889 -40.614037 
L 20.478811 -40.812759 
L 20.18398 -41.011482 
L 19.903427 -41.210205 
L 19.634164 -41.408928 
L 19.369335 -41.60765 
L 19.098938 -41.806373 
L 18.811041 -42.005096 
L 18.493325 -42.203819 
L 18.134756 -42.402541 
L 17.727214 -42.601264 
L 17.266906 -42.799987 
L 16.755445 -42.99871 
L 16.200492 -43.197432 
L 15.615883 -43.396155 
L 15.021185 -43.594878 
L 14.440659 -43.793601 
L 13.901656 -43.992323 
L 13.432541 -44.191046 
L 13.060289 -44.389769 
L 12.808003 -44.588492 
L 12.69258 -44.787214 
L 12.722811 -44.985937 
L 12.898139 -45.18466 
L 13.208265 -45.383383 
L 13.633696 -45.582105 
L 14.147236 -45.780828 
L 14.716329 -45.979551 
L 15.306014 -46.178274 
L 15.88218 -46.376996 
L 16.414713 -46.575719 
L 16.880128 -46.774442 
L 17.263322 -46.973165 
L 17.55821 -47.171887 
L 17.767195 -47.37061 
L 17.899616 -47.569333 
L 17.96947 -47.768056 
L 17.992834 -47.966778 
L 17.985412 -48.165501 
L 17.960547 -48.364224 
L 17.92794 -48.562947 
L 17.893132 -48.761669 
L 17.857696 -48.960392 
L 17.81998 -49.159115 
L 17.776233 -49.357837 
L 17.72192 -49.55656 
L 17.653084 -49.755283 
L 17.567619 -49.954006 
L 17.466333 -50.152728 
L 17.353661 -50.351451 
L 17.237911 -50.550174 
L 17.130937 -50.748897 
L 17.047215 -50.947619 
L 17.002373 -51.146342 
L 17.011379 -51.345065 
L 17.086654 -51.543788 
L 17.236416 -51.74251 
L 17.463559 -51.941233 
L 17.765239 -52.139956 
L 18.133218 -52.338679 
L 18.554861 -52.537401 
L 19.01457 -52.736124 
L 19.495371 -52.934847 
L 19.980421 -53.13357 
L 20.454206 -53.332292 
L 20.903354 -53.531015 
L 21.317053 -53.729738 
L 21.687121 -53.928461 
L 22.007858 -54.127183 
L 22.275765 -54.325906 
L 22.489242 -54.524629 
L 22.648326 -54.723352 
L 22.754512 -54.922074 
L 22.810678 -55.120797 
L 22.821085 -55.31952 
L 22.791423 -55.518243 
L 22.728844 -55.716965 
L 22.641901 -55.915688 
L 22.540329 -56.114411 
L 22.434624 -56.313134 
L 22.335405 -56.511856 
L 22.252619 -56.710579 
L 22.194682 -56.909302 
L 22.167681 -57.108025 
L 22.174799 -57.306747 
L 22.216063 -57.50547 
L 22.288468 -57.704193 
L 22.386486 -57.902916 
L 22.502854 -58.101638 
L 22.629515 -58.300361 
L 22.758569 -58.499084 
L 22.883069 -58.697807 
L 22.997581 -58.896529 
L 23.88755 -58.896529 
L 23.88755 -58.896529 
L 24.002063 -58.697807 
L 24.126562 -58.499084 
L 24.255617 -58.300361 
L 24.382278 -58.101638 
L 24.498645 -57.902916 
L 24.596663 -57.704193 
L 24.669069 -57.50547 
L 24.710332 -57.306747 
L 24.717451 -57.108025 
L 24.69045 -56.909302 
L 24.632512 -56.710579 
L 24.549727 -56.511856 
L 24.450508 -56.313134 
L 24.344802 -56.114411 
L 24.243231 -55.915688 
L 24.156288 -55.716965 
L 24.093709 -55.518243 
L 24.064047 -55.31952 
L 24.074453 -55.120797 
L 24.130619 -54.922074 
L 24.236805 -54.723352 
L 24.395889 -54.524629 
L 24.609366 -54.325906 
L 24.877274 -54.127183 
L 25.198011 -53.928461 
L 25.568079 -53.729738 
L 25.981777 -53.531015 
L 26.430926 -53.332292 
L 26.90471 -53.13357 
L 27.38976 -52.934847 
L 27.870562 -52.736124 
L 28.33027 -52.537401 
L 28.751914 -52.338679 
L 29.119893 -52.139956 
L 29.421573 -51.941233 
L 29.648716 -51.74251 
L 29.798477 -51.543788 
L 29.873752 -51.345065 
L 29.882759 -51.146342 
L 29.837916 -50.947619 
L 29.754194 -50.748897 
L 29.647221 -50.550174 
L 29.53147 -50.351451 
L 29.418798 -50.152728 
L 29.317512 -49.954006 
L 29.232048 -49.755283 
L 29.163212 -49.55656 
L 29.108898 -49.357837 
L 29.065151 -49.159115 
L 29.027435 -48.960392 
L 28.991999 -48.761669 
L 28.957192 -48.562947 
L 28.924585 -48.364224 
L 28.89972 -48.165501 
L 28.892297 -47.966778 
L 28.915662 -47.768056 
L 28.985515 -47.569333 
L 29.117936 -47.37061 
L 29.326922 -47.171887 
L 29.621809 -46.973165 
L 30.005003 -46.774442 
L 30.470419 -46.575719 
L 31.002952 -46.376996 
L 31.579117 -46.178274 
L 32.168802 -45.979551 
L 32.737895 -45.780828 
L 33.251435 -45.582105 
L 33.676866 -45.383383 
L 33.986993 -45.18466 
L 34.162321 -44.985937 
L 34.192551 -44.787214 
L 34.077128 -44.588492 
L 33.824843 -44.389769 
L 33.452591 -44.191046 
L 32.983475 -43.992323 
L 32.444473 -43.793601 
L 31.863946 -43.594878 
L 31.269248 -43.396155 
L 30.68464 -43.197432 
L 30.129687 -42.99871 
L 29.618226 -42.799987 
L 29.157918 -42.601264 
L 28.750375 -42.402541 
L 28.391806 -42.203819 
L 28.07409 -42.005096 
L 27.786193 -41.806373 
L 27.515796 -41.60765 
L 27.250967 -41.408928 
L 26.981705 -41.210205 
L 26.701151 -41.011482 
L 26.406321 -40.812759 
L 26.098243 -40.614037 
L 25.781528 -40.415314 
L 25.463445 -40.216591 
L 25.152691 -40.017868 
L 24.858092 -39.819146 
L 24.587424 -39.620423 
L 24.346554 -39.4217 
L 24.138964 -39.222977 
z
" style="stroke: #6f6f6f; stroke-width: 0.15"/>
    </defs>
    <g clip-path="url(#p79b270acb9)">
     <use xlink:href="#m929aac4fe3" x="0" y="84.96" style="fill: #abc9ea; stroke: #6f6f6f; stroke-width: 0.15"/>
    </g>
   </g>
   <g id="PolyCollection_2">
    <defs>
     <path id="m69a2c5a96a" d="M 51.703953 -35.999614 
L 48.931106 -35.999614 
L 48.51724 -36.186745 
L 48.032864 -36.373876 
L 47.483322 -36.561007 
L 46.879759 -36.748138 
L 46.239204 -36.935269 
L 45.58396 -37.1224 
L 44.940242 -37.309531 
L 44.336159 -37.496662 
L 43.799226 -37.683793 
L 43.353689 -37.870925 
L 43.018014 -38.058056 
L 42.802849 -38.245187 
L 42.70975 -38.432318 
L 42.730826 -38.619449 
L 42.849345 -38.80658 
L 43.041234 -38.993711 
L 43.277272 -39.180842 
L 43.52572 -39.367973 
L 43.7551 -39.555104 
L 43.936831 -39.742236 
L 44.04747 -39.929367 
L 44.07035 -40.116498 
L 43.996504 -40.303629 
L 43.824835 -40.49076 
L 43.561571 -40.677891 
L 43.219136 -40.865022 
L 42.814629 -41.052153 
L 42.368124 -41.239284 
L 41.901004 -41.426415 
L 41.434519 -41.613546 
L 40.988668 -41.800678 
L 40.58144 -41.987809 
L 40.22835 -42.17494 
L 39.942178 -42.362071 
L 39.732773 -42.549202 
L 39.606822 -42.736333 
L 39.567544 -42.923464 
L 39.614333 -43.110595 
L 39.742459 -43.297726 
L 39.942981 -43.484857 
L 40.203014 -43.671989 
L 40.506491 -43.85912 
L 40.83543 -44.046251 
L 41.171649 -44.233382 
L 41.498748 -44.420513 
L 41.804067 -44.607644 
L 42.080335 -44.794775 
L 42.326673 -44.981906 
L 42.54875 -45.169037 
L 42.757983 -45.356168 
L 42.969829 -45.5433 
L 43.201423 -45.730431 
L 43.468869 -45.917562 
L 43.784636 -46.104693 
L 44.155444 -46.291824 
L 44.58097 -46.478955 
L 45.053545 -46.666086 
L 45.558853 -46.853217 
L 46.077476 -47.040348 
L 46.587019 -47.227479 
L 47.064486 -47.414611 
L 47.488592 -47.601742 
L 47.841755 -47.788873 
L 48.11159 -47.976004 
L 48.291843 -48.163135 
L 48.382738 -48.350266 
L 48.390789 -48.537397 
L 48.328124 -48.724528 
L 48.211397 -48.911659 
L 48.060342 -49.09879 
L 47.896066 -49.285921 
L 47.739195 -49.473053 
L 47.608033 -49.660184 
L 47.516909 -49.847315 
L 47.474934 -50.034446 
L 47.485331 -50.221577 
L 47.545443 -50.408708 
L 47.647462 -50.595839 
L 47.779775 -50.78297 
L 47.928739 -50.970101 
L 48.080632 -51.157232 
L 48.223491 -51.344364 
L 48.348569 -51.531495 
L 48.451219 -51.718626 
L 48.531114 -51.905757 
L 48.5918 -52.092888 
L 48.639733 -52.280019 
L 48.682961 -52.46715 
L 48.729707 -52.654281 
L 48.787072 -52.841412 
L 48.860054 -53.028543 
L 48.950984 -53.215675 
L 49.059438 -53.402806 
L 49.182554 -53.589937 
L 49.315672 -53.777068 
L 49.453136 -53.964199 
L 49.589113 -54.15133 
L 49.718315 -54.338461 
L 49.83651 -54.525592 
L 50.798549 -54.525592 
L 50.798549 -54.525592 
L 50.916745 -54.338461 
L 51.045946 -54.15133 
L 51.181924 -53.964199 
L 51.319388 -53.777068 
L 51.452506 -53.589937 
L 51.575622 -53.402806 
L 51.684075 -53.215675 
L 51.775006 -53.028543 
L 51.847987 -52.841412 
L 51.905353 -52.654281 
L 51.952098 -52.46715 
L 51.995326 -52.280019 
L 52.043259 -52.092888 
L 52.103946 -51.905757 
L 52.18384 -51.718626 
L 52.286491 -51.531495 
L 52.411569 -51.344364 
L 52.554428 -51.157232 
L 52.706321 -50.970101 
L 52.855285 -50.78297 
L 52.987598 -50.595839 
L 53.089617 -50.408708 
L 53.149729 -50.221577 
L 53.160125 -50.034446 
L 53.118151 -49.847315 
L 53.027027 -49.660184 
L 52.895864 -49.473053 
L 52.738994 -49.285921 
L 52.574718 -49.09879 
L 52.423662 -48.911659 
L 52.306935 -48.724528 
L 52.24427 -48.537397 
L 52.252321 -48.350266 
L 52.343217 -48.163135 
L 52.52347 -47.976004 
L 52.793305 -47.788873 
L 53.146467 -47.601742 
L 53.570574 -47.414611 
L 54.048041 -47.227479 
L 54.557584 -47.040348 
L 55.076207 -46.853217 
L 55.581515 -46.666086 
L 56.05409 -46.478955 
L 56.479616 -46.291824 
L 56.850424 -46.104693 
L 57.16619 -45.917562 
L 57.433636 -45.730431 
L 57.66523 -45.5433 
L 57.877077 -45.356168 
L 58.086309 -45.169037 
L 58.308387 -44.981906 
L 58.554725 -44.794775 
L 58.830992 -44.607644 
L 59.136312 -44.420513 
L 59.46341 -44.233382 
L 59.79963 -44.046251 
L 60.128568 -43.85912 
L 60.432045 -43.671989 
L 60.692079 -43.484857 
L 60.8926 -43.297726 
L 61.020727 -43.110595 
L 61.067515 -42.923464 
L 61.028237 -42.736333 
L 60.902286 -42.549202 
L 60.692881 -42.362071 
L 60.406709 -42.17494 
L 60.05362 -41.987809 
L 59.646391 -41.800678 
L 59.200541 -41.613546 
L 58.734056 -41.426415 
L 58.266936 -41.239284 
L 57.82043 -41.052153 
L 57.415924 -40.865022 
L 57.073489 -40.677891 
L 56.810224 -40.49076 
L 56.638556 -40.303629 
L 56.56471 -40.116498 
L 56.587589 -39.929367 
L 56.698228 -39.742236 
L 56.87996 -39.555104 
L 57.109339 -39.367973 
L 57.357787 -39.180842 
L 57.593825 -38.993711 
L 57.785715 -38.80658 
L 57.904234 -38.619449 
L 57.925309 -38.432318 
L 57.832211 -38.245187 
L 57.617046 -38.058056 
L 57.281371 -37.870925 
L 56.835834 -37.683793 
L 56.2989 -37.496662 
L 55.694818 -37.309531 
L 55.051099 -37.1224 
L 54.395855 -36.935269 
L 53.755301 -36.748138 
L 53.151737 -36.561007 
L 52.602196 -36.373876 
L 52.117819 -36.186745 
L 51.703953 -35.999614 
z
" style="stroke: #6f6f6f; stroke-width: 0.15"/>
    </defs>
    <g clip-path="url(#p79b270acb9)">
     <use xlink:href="#m69a2c5a96a" x="0" y="84.96" style="fill: #efb792; stroke: #6f6f6f; stroke-width: 0.15"/>
    </g>
   </g>
   <g id="PolyCollection_3">
    <defs>
     <path id="mb20d91901b" d="M 78.565694 -34.707455 
L 75.819293 -34.707455 
L 75.391365 -34.929183 
L 74.88344 -35.150911 
L 74.297426 -35.372638 
L 73.640206 -35.594366 
L 72.923706 -35.816094 
L 72.16441 -36.037821 
L 71.382356 -36.259549 
L 70.599744 -36.481277 
L 69.839345 -36.703004 
L 69.122913 -36.924732 
L 68.469801 -37.14646 
L 67.895872 -37.368187 
L 67.412764 -37.589915 
L 67.027484 -37.811642 
L 66.742276 -38.03337 
L 66.554743 -38.255098 
L 66.45823 -38.476825 
L 66.442508 -38.698553 
L 66.494805 -38.920281 
L 66.601194 -39.142008 
L 66.748239 -39.363736 
L 66.924694 -39.585464 
L 67.122961 -39.807191 
L 67.339987 -40.028919 
L 67.577343 -40.250647 
L 67.840367 -40.472374 
L 68.136476 -40.694102 
L 68.472921 -40.91583 
L 68.854447 -41.137557 
L 69.28132 -41.359285 
L 69.74815 -41.581012 
L 70.243756 -41.80274 
L 70.75208 -42.024468 
L 71.25398 -42.246195 
L 71.729518 -42.467923 
L 72.16033 -42.689651 
L 72.531651 -42.911378 
L 72.833718 -43.133106 
L 73.062386 -43.354834 
L 73.219008 -43.576561 
L 73.309694 -43.798289 
L 73.344217 -44.020017 
L 73.334774 -44.241744 
L 73.294832 -44.463472 
L 73.238166 -44.6852 
L 73.178153 -44.906927 
L 73.127276 -45.128655 
L 73.096779 -45.350382 
L 73.096371 -45.57211 
L 73.133922 -45.793838 
L 73.215114 -46.015565 
L 73.343068 -46.237293 
L 73.518008 -46.459021 
L 73.737059 -46.680748 
L 73.994246 -46.902476 
L 74.280768 -47.124204 
L 74.585554 -47.345931 
L 74.896068 -47.567659 
L 75.199278 -47.789387 
L 75.482679 -48.011114 
L 75.73526 -48.232842 
L 75.948316 -48.454569 
L 76.116029 -48.676297 
L 76.235806 -48.898025 
L 76.308338 -49.119752 
L 76.337431 -49.34148 
L 76.329607 -49.563208 
L 76.293513 -49.784935 
L 76.239164 -50.006663 
L 76.177066 -50.228391 
L 76.117269 -50.450118 
L 76.068437 -50.671846 
L 76.037026 -50.893574 
L 76.026682 -51.115301 
L 76.037934 -51.337029 
L 76.068264 -51.558757 
L 76.112545 -51.780484 
L 76.163803 -52.002212 
L 76.214229 -52.223939 
L 76.256275 -52.445667 
L 76.283721 -52.667395 
L 76.292538 -52.889122 
L 76.28146 -53.11085 
L 76.252165 -53.332578 
L 76.209062 -53.554305 
L 76.158708 -53.776033 
L 76.10894 -53.997761 
L 76.067847 -54.219488 
L 76.042725 -54.441216 
L 76.039172 -54.662944 
L 76.060445 -54.884671 
L 76.107161 -55.106399 
L 76.17737 -55.328127 
L 76.266967 -55.549854 
L 76.370348 -55.771582 
L 76.481192 -55.993309 
L 76.59324 -56.215037 
L 76.700954 -56.436765 
L 76.799975 -56.658492 
L 77.585012 -56.658492 
L 77.585012 -56.658492 
L 77.684034 -56.436765 
L 77.791747 -56.215037 
L 77.903795 -55.993309 
L 78.014639 -55.771582 
L 78.11802 -55.549854 
L 78.207617 -55.328127 
L 78.277827 -55.106399 
L 78.324543 -54.884671 
L 78.345816 -54.662944 
L 78.342263 -54.441216 
L 78.317141 -54.219488 
L 78.276047 -53.997761 
L 78.226279 -53.776033 
L 78.175925 -53.554305 
L 78.132822 -53.332578 
L 78.103527 -53.11085 
L 78.092449 -52.889122 
L 78.101267 -52.667395 
L 78.128713 -52.445667 
L 78.170759 -52.223939 
L 78.221184 -52.002212 
L 78.272443 -51.780484 
L 78.316723 -51.558757 
L 78.347054 -51.337029 
L 78.358306 -51.115301 
L 78.347961 -50.893574 
L 78.316551 -50.671846 
L 78.267719 -50.450118 
L 78.207922 -50.228391 
L 78.145824 -50.006663 
L 78.091475 -49.784935 
L 78.055381 -49.563208 
L 78.047557 -49.34148 
L 78.07665 -49.119752 
L 78.149182 -48.898025 
L 78.268958 -48.676297 
L 78.436672 -48.454569 
L 78.649727 -48.232842 
L 78.902308 -48.011114 
L 79.185709 -47.789387 
L 79.488919 -47.567659 
L 79.799434 -47.345931 
L 80.10422 -47.124204 
L 80.390742 -46.902476 
L 80.647929 -46.680748 
L 80.86698 -46.459021 
L 81.04192 -46.237293 
L 81.169873 -46.015565 
L 81.251066 -45.793838 
L 81.288617 -45.57211 
L 81.288209 -45.350382 
L 81.257712 -45.128655 
L 81.206835 -44.906927 
L 81.146821 -44.6852 
L 81.090156 -44.463472 
L 81.050214 -44.241744 
L 81.040771 -44.020017 
L 81.075294 -43.798289 
L 81.16598 -43.576561 
L 81.322601 -43.354834 
L 81.55127 -43.133106 
L 81.853336 -42.911378 
L 82.224658 -42.689651 
L 82.65547 -42.467923 
L 83.131008 -42.246195 
L 83.632908 -42.024468 
L 84.141232 -41.80274 
L 84.636837 -41.581012 
L 85.103668 -41.359285 
L 85.53054 -41.137557 
L 85.912066 -40.91583 
L 86.248512 -40.694102 
L 86.54462 -40.472374 
L 86.807645 -40.250647 
L 87.045001 -40.028919 
L 87.262027 -39.807191 
L 87.460294 -39.585464 
L 87.636749 -39.363736 
L 87.783794 -39.142008 
L 87.890183 -38.920281 
L 87.942479 -38.698553 
L 87.926757 -38.476825 
L 87.830245 -38.255098 
L 87.642712 -38.03337 
L 87.357504 -37.811642 
L 86.972224 -37.589915 
L 86.489116 -37.368187 
L 85.915187 -37.14646 
L 85.262074 -36.924732 
L 84.545643 -36.703004 
L 83.785243 -36.481277 
L 83.002632 -36.259549 
L 82.220577 -36.037821 
L 81.461281 -35.816094 
L 80.744782 -35.594366 
L 80.087562 -35.372638 
L 79.501548 -35.150911 
L 78.993622 -34.929183 
L 78.565694 -34.707455 
z
" style="stroke: #6f6f6f; stroke-width: 0.15"/>
    </defs>
    <g clip-path="url(#p79b270acb9)">
     <use xlink:href="#mb20d91901b" x="0" y="84.96" style="fill: #98daa7; stroke: #6f6f6f; stroke-width: 0.15"/>
    </g>
   </g>
   <g id="PolyCollection_4">
    <defs>
     <path id="m5ae6d877dd" d="M 106.085613 -36.350747 
L 102.049303 -36.350747 
L 101.692618 -36.370026 
L 101.297033 -36.389304 
L 100.863292 -36.408583 
L 100.393238 -36.427862 
L 99.889905 -36.44714 
L 99.357565 -36.466419 
L 98.801735 -36.485697 
L 98.229125 -36.504976 
L 97.647541 -36.524255 
L 97.065729 -36.543533 
L 96.493166 -36.562812 
L 95.93981 -36.582091 
L 95.415817 -36.601369 
L 94.931225 -36.620648 
L 94.495634 -36.639927 
L 94.117882 -36.659205 
L 93.805744 -36.678484 
L 93.565657 -36.697763 
L 93.402484 -36.717041 
L 93.319341 -36.73632 
L 93.317472 -36.755599 
L 93.396201 -36.774877 
L 93.552942 -36.794156 
L 93.783285 -36.813435 
L 94.081135 -36.832713 
L 94.438919 -36.851992 
L 94.84783 -36.871271 
L 95.298113 -36.890549 
L 95.779383 -36.909828 
L 96.280947 -36.929107 
L 96.792134 -36.948385 
L 97.302618 -36.967664 
L 97.802711 -36.986942 
L 98.28363 -37.006221 
L 98.737729 -37.0255 
L 99.158675 -37.044778 
L 99.541579 -37.064057 
L 99.883068 -37.083336 
L 100.181301 -37.102614 
L 100.435933 -37.121893 
L 100.648017 -37.141172 
L 100.819867 -37.16045 
L 100.95487 -37.179729 
L 101.057269 -37.199008 
L 101.131916 -37.218286 
L 101.184011 -37.237565 
L 101.218842 -37.256844 
L 101.241524 -37.276122 
L 101.256766 -37.295401 
L 101.268659 -37.31468 
L 101.280508 -37.333958 
L 101.294712 -37.353237 
L 101.312689 -37.372516 
L 101.334865 -37.391794 
L 101.360707 -37.411073 
L 101.388814 -37.430351 
L 101.417055 -37.44963 
L 101.442735 -37.468909 
L 101.462806 -37.488187 
L 101.474073 -37.507466 
L 101.473425 -37.526745 
L 101.458046 -37.546023 
L 101.425611 -37.565302 
L 101.374454 -37.584581 
L 101.303703 -37.603859 
L 101.213363 -37.623138 
L 101.104365 -37.642417 
L 100.97856 -37.661695 
L 100.838668 -37.680974 
L 100.688189 -37.700253 
L 100.531272 -37.719531 
L 100.37256 -37.73881 
L 100.217007 -37.758089 
L 100.069692 -37.777367 
L 99.935616 -37.796646 
L 99.819515 -37.815925 
L 99.725682 -37.835203 
L 99.657812 -37.854482 
L 99.61887 -37.873761 
L 99.610993 -37.893039 
L 99.635427 -37.912318 
L 99.6925 -37.931596 
L 99.781631 -37.950875 
L 99.901373 -37.970154 
L 100.049489 -37.989432 
L 100.223055 -38.008711 
L 100.418583 -38.02799 
L 100.632162 -38.047268 
L 100.859608 -38.066547 
L 101.096612 -38.085826 
L 101.338891 -38.105104 
L 101.582318 -38.124383 
L 101.823048 -38.143662 
L 102.057611 -38.16294 
L 102.282996 -38.182219 
L 102.496698 -38.201498 
L 102.696749 -38.220776 
L 102.88172 -38.240055 
L 103.050703 -38.259334 
L 105.084213 -38.259334 
L 105.084213 -38.259334 
L 105.253196 -38.240055 
L 105.438167 -38.220776 
L 105.638218 -38.201498 
L 105.85192 -38.182219 
L 106.077305 -38.16294 
L 106.311868 -38.143662 
L 106.552597 -38.124383 
L 106.796025 -38.105104 
L 107.038303 -38.085826 
L 107.275308 -38.066547 
L 107.502754 -38.047268 
L 107.716333 -38.02799 
L 107.911861 -38.008711 
L 108.085426 -37.989432 
L 108.233542 -37.970154 
L 108.353284 -37.950875 
L 108.442415 -37.931596 
L 108.499489 -37.912318 
L 108.523923 -37.893039 
L 108.516046 -37.873761 
L 108.477104 -37.854482 
L 108.409234 -37.835203 
L 108.315401 -37.815925 
L 108.1993 -37.796646 
L 108.065223 -37.777367 
L 107.917908 -37.758089 
L 107.762356 -37.73881 
L 107.603644 -37.719531 
L 107.446727 -37.700253 
L 107.296247 -37.680974 
L 107.156355 -37.661695 
L 107.03055 -37.642417 
L 106.921553 -37.623138 
L 106.831213 -37.603859 
L 106.760462 -37.584581 
L 106.709305 -37.565302 
L 106.676869 -37.546023 
L 106.66149 -37.526745 
L 106.660843 -37.507466 
L 106.67211 -37.488187 
L 106.69218 -37.468909 
L 106.717861 -37.44963 
L 106.746101 -37.430351 
L 106.774209 -37.411073 
L 106.800051 -37.391794 
L 106.822226 -37.372516 
L 106.840204 -37.353237 
L 106.854408 -37.333958 
L 106.866257 -37.31468 
L 106.878149 -37.295401 
L 106.893391 -37.276122 
L 106.916074 -37.256844 
L 106.950905 -37.237565 
L 107.003 -37.218286 
L 107.077647 -37.199008 
L 107.180045 -37.179729 
L 107.315049 -37.16045 
L 107.486899 -37.141172 
L 107.698983 -37.121893 
L 107.953615 -37.102614 
L 108.251848 -37.083336 
L 108.593337 -37.064057 
L 108.976241 -37.044778 
L 109.397187 -37.0255 
L 109.851286 -37.006221 
L 110.332205 -36.986942 
L 110.832297 -36.967664 
L 111.342781 -36.948385 
L 111.853969 -36.929107 
L 112.355533 -36.909828 
L 112.836803 -36.890549 
L 113.287086 -36.871271 
L 113.695996 -36.851992 
L 114.05378 -36.832713 
L 114.351631 -36.813435 
L 114.581974 -36.794156 
L 114.738715 -36.774877 
L 114.817443 -36.755599 
L 114.815575 -36.73632 
L 114.732431 -36.717041 
L 114.569259 -36.697763 
L 114.329171 -36.678484 
L 114.017034 -36.659205 
L 113.639282 -36.639927 
L 113.203691 -36.620648 
L 112.719099 -36.601369 
L 112.195106 -36.582091 
L 111.64175 -36.562812 
L 111.069187 -36.543533 
L 110.487374 -36.524255 
L 109.905791 -36.504976 
L 109.333181 -36.485697 
L 108.777351 -36.466419 
L 108.245011 -36.44714 
L 107.741678 -36.427862 
L 107.271624 -36.408583 
L 106.837882 -36.389304 
L 106.442297 -36.370026 
L 106.085613 -36.350747 
z
" style="stroke: #6f6f6f; stroke-width: 0.15"/>
    </defs>
    <g clip-path="url(#p79b270acb9)">
     <use xlink:href="#m5ae6d877dd" x="0" y="84.96" style="fill: #f2aba8; stroke: #6f6f6f; stroke-width: 0.15"/>
    </g>
   </g>
   <g id="PolyCollection_5">
    <defs>
     <path id="mb404ff36af" d="M 132.498186 -36.259626 
L 129.386658 -36.259626 
L 129.048862 -36.287827 
L 128.663586 -36.316028 
L 128.230371 -36.344229 
L 127.750234 -36.37243 
L 127.225858 -36.400631 
L 126.661705 -36.428833 
L 126.064065 -36.457034 
L 125.441009 -36.485235 
L 124.802254 -36.513436 
L 124.158939 -36.541637 
L 123.52332 -36.569838 
L 122.908395 -36.59804 
L 122.327483 -36.626241 
L 121.793767 -36.654442 
L 121.319836 -36.682643 
L 120.917235 -36.710844 
L 120.596043 -36.739045 
L 120.364506 -36.767247 
L 120.228728 -36.795448 
L 120.192436 -36.823649 
L 120.256829 -36.85185 
L 120.420512 -36.880051 
L 120.679533 -36.908252 
L 121.027503 -36.936454 
L 121.455821 -36.964655 
L 121.953974 -36.992856 
L 122.509929 -37.021057 
L 123.110572 -37.049258 
L 123.742197 -37.077459 
L 124.391013 -37.105661 
L 125.04364 -37.133862 
L 125.687571 -37.162063 
L 126.311572 -37.190264 
L 126.906004 -37.218465 
L 127.463049 -37.246666 
L 127.976824 -37.274868 
L 128.443406 -37.303069 
L 128.860745 -37.33127 
L 129.228501 -37.359471 
L 129.547823 -37.387672 
L 129.821071 -37.415873 
L 130.051536 -37.444075 
L 130.243143 -37.472276 
L 130.400185 -37.500477 
L 130.527079 -37.528678 
L 130.628168 -37.556879 
L 130.707567 -37.58508 
L 130.769047 -37.613282 
L 130.81597 -37.641483 
L 130.851255 -37.669684 
L 130.877372 -37.697885 
L 130.896358 -37.726086 
L 130.909853 -37.754287 
L 130.919132 -37.782489 
L 130.925154 -37.81069 
L 130.9286 -37.838891 
L 130.929904 -37.867092 
L 130.929291 -37.895293 
L 130.926791 -37.923494 
L 130.922265 -37.951696 
L 130.91541 -37.979897 
L 130.905772 -38.008098 
L 130.892756 -38.036299 
L 130.875634 -38.0645 
L 130.853566 -38.092701 
L 130.825624 -38.120903 
L 130.790827 -38.149104 
L 130.748193 -38.177305 
L 130.696795 -38.205506 
L 130.635842 -38.233707 
L 130.564756 -38.261908 
L 130.483262 -38.29011 
L 130.391475 -38.318311 
L 130.289976 -38.346512 
L 130.179874 -38.374713 
L 130.062835 -38.402914 
L 129.94109 -38.431115 
L 129.817389 -38.459317 
L 129.694921 -38.487518 
L 129.577196 -38.515719 
L 129.467884 -38.54392 
L 129.370627 -38.572121 
L 129.288848 -38.600322 
L 129.225544 -38.628524 
L 129.183108 -38.656725 
L 129.163178 -38.684926 
L 129.166534 -38.713127 
L 129.193044 -38.741328 
L 129.241674 -38.769529 
L 129.310557 -38.797731 
L 129.397108 -38.825932 
L 129.498189 -38.854133 
L 129.610295 -38.882334 
L 129.729753 -38.910535 
L 129.852923 -38.938736 
L 129.976372 -38.966938 
L 130.097025 -38.995139 
L 130.212277 -39.02334 
L 130.320055 -39.051541 
L 131.564788 -39.051541 
L 131.564788 -39.051541 
L 131.672567 -39.02334 
L 131.787818 -38.995139 
L 131.908472 -38.966938 
L 132.031921 -38.938736 
L 132.155091 -38.910535 
L 132.274549 -38.882334 
L 132.386654 -38.854133 
L 132.487736 -38.825932 
L 132.574287 -38.797731 
L 132.64317 -38.769529 
L 132.6918 -38.741328 
L 132.71831 -38.713127 
L 132.721666 -38.684926 
L 132.701736 -38.656725 
L 132.6593 -38.628524 
L 132.595996 -38.600322 
L 132.514216 -38.572121 
L 132.41696 -38.54392 
L 132.307647 -38.515719 
L 132.189923 -38.487518 
L 132.067455 -38.459317 
L 131.943753 -38.431115 
L 131.822008 -38.402914 
L 131.70497 -38.374713 
L 131.594867 -38.346512 
L 131.493369 -38.318311 
L 131.401582 -38.29011 
L 131.320088 -38.261908 
L 131.249002 -38.233707 
L 131.188049 -38.205506 
L 131.136651 -38.177305 
L 131.094016 -38.149104 
L 131.05922 -38.120903 
L 131.031278 -38.092701 
L 131.00921 -38.0645 
L 130.992088 -38.036299 
L 130.979072 -38.008098 
L 130.969434 -37.979897 
L 130.962579 -37.951696 
L 130.958053 -37.923494 
L 130.955553 -37.895293 
L 130.954939 -37.867092 
L 130.956244 -37.838891 
L 130.959689 -37.81069 
L 130.965712 -37.782489 
L 130.974991 -37.754287 
L 130.988485 -37.726086 
L 131.007472 -37.697885 
L 131.033588 -37.669684 
L 131.068874 -37.641483 
L 131.115797 -37.613282 
L 131.177277 -37.58508 
L 131.256675 -37.556879 
L 131.357765 -37.528678 
L 131.484659 -37.500477 
L 131.641701 -37.472276 
L 131.833308 -37.444075 
L 132.063773 -37.415873 
L 132.337021 -37.387672 
L 132.656342 -37.359471 
L 133.024099 -37.33127 
L 133.441437 -37.303069 
L 133.90802 -37.274868 
L 134.421795 -37.246666 
L 134.978839 -37.218465 
L 135.573272 -37.190264 
L 136.197272 -37.162063 
L 136.841203 -37.133862 
L 137.493831 -37.105661 
L 138.142647 -37.077459 
L 138.774272 -37.049258 
L 139.374915 -37.021057 
L 139.93087 -36.992856 
L 140.429023 -36.964655 
L 140.857341 -36.936454 
L 141.205311 -36.908252 
L 141.464332 -36.880051 
L 141.628015 -36.85185 
L 141.692407 -36.823649 
L 141.656116 -36.795448 
L 141.520338 -36.767247 
L 141.288801 -36.739045 
L 140.967609 -36.710844 
L 140.565008 -36.682643 
L 140.091077 -36.654442 
L 139.557361 -36.626241 
L 138.976449 -36.59804 
L 138.361524 -36.569838 
L 137.725905 -36.541637 
L 137.08259 -36.513436 
L 136.443835 -36.485235 
L 135.820779 -36.457034 
L 135.223139 -36.428833 
L 134.658986 -36.400631 
L 134.134609 -36.37243 
L 133.654473 -36.344229 
L 133.221257 -36.316028 
L 132.835982 -36.287827 
L 132.498186 -36.259626 
z
" style="stroke: #6f6f6f; stroke-width: 0.15"/>
    </defs>
    <g clip-path="url(#p79b270acb9)">
     <use xlink:href="#mb404ff36af" x="0" y="84.96" style="fill: #d3c4f6; stroke: #6f6f6f; stroke-width: 0.15"/>
    </g>
   </g>
   <g id="PolyCollection_6">
    <defs>
     <path id="m1db23908ed" d="M 159.029266 -35.099683 
L 156.605506 -35.099683 
L 156.357728 -35.315815 
L 156.078465 -35.531947 
L 155.767789 -35.748078 
L 155.426546 -35.96421 
L 155.056368 -36.180342 
L 154.659631 -36.396473 
L 154.239381 -36.612605 
L 153.799219 -36.828737 
L 153.343173 -37.044869 
L 152.875546 -37.261 
L 152.40078 -37.477132 
L 151.923337 -37.693264 
L 151.447595 -37.909395 
L 150.977799 -38.125527 
L 150.518023 -38.341659 
L 150.072182 -38.55779 
L 149.644048 -38.773922 
L 149.237285 -38.990054 
L 148.855474 -39.206185 
L 148.502127 -39.422317 
L 148.180671 -39.638449 
L 147.894415 -39.854581 
L 147.646481 -40.070712 
L 147.439726 -40.286844 
L 147.276652 -40.502976 
L 147.159314 -40.719107 
L 147.089246 -40.935239 
L 147.0674 -41.151371 
L 147.094108 -41.367502 
L 147.169061 -41.583634 
L 147.291308 -41.799766 
L 147.459251 -42.015897 
L 147.670648 -42.232029 
L 147.922612 -42.448161 
L 148.211595 -42.664292 
L 148.533383 -42.880424 
L 148.8831 -43.096556 
L 149.255231 -43.312688 
L 149.643694 -43.528819 
L 150.041957 -43.744951 
L 150.443221 -43.961083 
L 150.840667 -44.177214 
L 151.227741 -44.393346 
L 151.59849 -44.609478 
L 151.947881 -44.825609 
L 152.272108 -45.041741 
L 152.568827 -45.257873 
L 152.837298 -45.474004 
L 153.078418 -45.690136 
L 153.294622 -45.906268 
L 153.48966 -46.1224 
L 153.668269 -46.338531 
L 153.835763 -46.554663 
L 153.997581 -46.770795 
L 154.158827 -46.986926 
L 154.323857 -47.203058 
L 154.495935 -47.41919 
L 154.676992 -47.635321 
L 154.867502 -47.851453 
L 155.066477 -48.067585 
L 155.271576 -48.283716 
L 155.479303 -48.499848 
L 155.685279 -48.71598 
L 155.884542 -48.932111 
L 156.071874 -49.148243 
L 156.242106 -49.364375 
L 156.390396 -49.580507 
L 156.512467 -49.796638 
L 156.604802 -50.01277 
L 156.664793 -50.228902 
L 156.690845 -50.445033 
L 156.682456 -50.661165 
L 156.640256 -50.877297 
L 156.566026 -51.093428 
L 156.462683 -51.30956 
L 156.334237 -51.525692 
L 156.185704 -51.741823 
L 156.022978 -51.957955 
L 155.852654 -52.174087 
L 155.681795 -52.390219 
L 155.517656 -52.60635 
L 155.367374 -52.822482 
L 155.237634 -53.038614 
L 155.134339 -53.254745 
L 155.062307 -53.470877 
L 155.025022 -53.687009 
L 155.024449 -53.90314 
L 155.060953 -54.119272 
L 155.133305 -54.335404 
L 155.238796 -54.551535 
L 155.373438 -54.767667 
L 155.532237 -54.983799 
L 155.709519 -55.19993 
L 155.899275 -55.416062 
L 156.095505 -55.632194 
L 156.292527 -55.848326 
L 156.48524 -56.064457 
L 156.669315 -56.280589 
L 156.841318 -56.496721 
L 158.793454 -56.496721 
L 158.793454 -56.496721 
L 158.965457 -56.280589 
L 159.149531 -56.064457 
L 159.342244 -55.848326 
L 159.539267 -55.632194 
L 159.735497 -55.416062 
L 159.925253 -55.19993 
L 160.102535 -54.983799 
L 160.261334 -54.767667 
L 160.395976 -54.551535 
L 160.501467 -54.335404 
L 160.573819 -54.119272 
L 160.610323 -53.90314 
L 160.60975 -53.687009 
L 160.572464 -53.470877 
L 160.500433 -53.254745 
L 160.397138 -53.038614 
L 160.267398 -52.822482 
L 160.117116 -52.60635 
L 159.952977 -52.390219 
L 159.782118 -52.174087 
L 159.611794 -51.957955 
L 159.449068 -51.741823 
L 159.300535 -51.525692 
L 159.172088 -51.30956 
L 159.068746 -51.093428 
L 158.994515 -50.877297 
L 158.952316 -50.661165 
L 158.943927 -50.445033 
L 158.969979 -50.228902 
L 159.02997 -50.01277 
L 159.122305 -49.796638 
L 159.244376 -49.580507 
L 159.392666 -49.364375 
L 159.562897 -49.148243 
L 159.75023 -48.932111 
L 159.949493 -48.71598 
L 160.155468 -48.499848 
L 160.363196 -48.283716 
L 160.568295 -48.067585 
L 160.76727 -47.851453 
L 160.95778 -47.635321 
L 161.138837 -47.41919 
L 161.310915 -47.203058 
L 161.475945 -46.986926 
L 161.637191 -46.770795 
L 161.799008 -46.554663 
L 161.966503 -46.338531 
L 162.145112 -46.1224 
L 162.34015 -45.906268 
L 162.556354 -45.690136 
L 162.797474 -45.474004 
L 163.065945 -45.257873 
L 163.362663 -45.041741 
L 163.686891 -44.825609 
L 164.036282 -44.609478 
L 164.40703 -44.393346 
L 164.794105 -44.177214 
L 165.19155 -43.961083 
L 165.592815 -43.744951 
L 165.991078 -43.528819 
L 166.379541 -43.312688 
L 166.751672 -43.096556 
L 167.101389 -42.880424 
L 167.423177 -42.664292 
L 167.71216 -42.448161 
L 167.964123 -42.232029 
L 168.175521 -42.015897 
L 168.343464 -41.799766 
L 168.46571 -41.583634 
L 168.540664 -41.367502 
L 168.567372 -41.151371 
L 168.545525 -40.935239 
L 168.475458 -40.719107 
L 168.35812 -40.502976 
L 168.195046 -40.286844 
L 167.988291 -40.070712 
L 167.740357 -39.854581 
L 167.454101 -39.638449 
L 167.132645 -39.422317 
L 166.779298 -39.206185 
L 166.397487 -38.990054 
L 165.990724 -38.773922 
L 165.56259 -38.55779 
L 165.116749 -38.341659 
L 164.656973 -38.125527 
L 164.187177 -37.909395 
L 163.711435 -37.693264 
L 163.233991 -37.477132 
L 162.759226 -37.261 
L 162.291599 -37.044869 
L 161.835553 -36.828737 
L 161.395391 -36.612605 
L 160.975141 -36.396473 
L 160.578404 -36.180342 
L 160.208226 -35.96421 
L 159.866983 -35.748078 
L 159.556307 -35.531947 
L 159.277044 -35.315815 
L 159.029266 -35.099683 
z
" style="stroke: #6f6f6f; stroke-width: 0.15"/>
    </defs>
    <g clip-path="url(#p79b270acb9)">
     <use xlink:href="#m1db23908ed" x="0" y="84.96" style="fill: #d6bba3; stroke: #6f6f6f; stroke-width: 0.15"/>
    </g>
   </g>
   <g id="PolyCollection_7">
    <defs>
     <path id="m90f548ca15" d="M 187.674832 -42.429924 
L 181.709868 -42.429924 
L 181.225161 -42.602971 
L 180.700249 -42.776018 
L 180.139796 -42.949064 
L 179.550199 -43.122111 
L 178.93956 -43.295157 
L 178.317558 -43.468204 
L 177.695225 -43.64125 
L 177.084632 -43.814297 
L 176.498479 -43.987344 
L 175.94962 -44.16039 
L 175.450539 -44.333437 
L 175.012803 -44.506483 
L 174.646535 -44.67953 
L 174.359923 -44.852576 
L 174.158817 -45.025623 
L 174.046423 -45.19867 
L 174.023134 -45.371716 
L 174.0865 -45.544763 
L 174.231346 -45.717809 
L 174.450035 -45.890856 
L 174.732853 -46.063902 
L 175.068506 -46.236949 
L 175.444677 -46.409996 
L 175.848625 -46.583042 
L 176.267786 -46.756089 
L 176.690321 -46.929135 
L 177.105603 -47.102182 
L 177.504596 -47.275228 
L 177.880116 -47.448275 
L 178.226957 -47.621322 
L 178.541888 -47.794368 
L 178.823519 -47.967415 
L 179.07206 -48.140461 
L 179.288995 -48.313508 
L 179.476692 -48.486554 
L 179.637988 -48.659601 
L 179.775774 -48.832648 
L 179.892615 -49.005694 
L 179.990423 -49.178741 
L 180.070217 -49.351787 
L 180.131966 -49.524834 
L 180.174548 -49.69788 
L 180.1958 -49.870927 
L 180.192677 -50.043974 
L 180.161486 -50.21702 
L 180.098199 -50.390067 
L 179.998806 -50.563113 
L 179.859695 -50.73616 
L 179.678026 -50.909207 
L 179.45208 -51.082253 
L 179.181552 -51.2553 
L 178.867777 -51.428346 
L 178.513864 -51.601393 
L 178.124729 -51.774439 
L 177.707025 -51.947486 
L 177.268966 -52.120533 
L 176.820061 -52.293579 
L 176.370759 -52.466626 
L 175.932034 -52.639672 
L 175.514929 -52.812719 
L 175.130094 -52.985765 
L 174.787327 -53.158812 
L 174.495166 -53.331859 
L 174.260542 -53.504905 
L 174.088521 -53.677952 
L 173.982141 -53.850998 
L 173.942364 -54.024045 
L 173.968139 -54.197091 
L 174.056556 -54.370138 
L 174.203106 -54.543185 
L 174.401997 -54.716231 
L 174.646525 -54.889278 
L 174.929465 -55.062324 
L 175.243456 -55.235371 
L 175.581351 -55.408417 
L 175.936529 -55.581464 
L 176.303125 -55.754511 
L 176.676189 -55.927557 
L 177.051767 -56.100604 
L 177.426893 -56.27365 
L 177.799521 -56.446697 
L 178.168394 -56.619743 
L 178.532874 -56.79279 
L 178.892748 -56.965837 
L 179.248034 -57.138883 
L 179.5988 -57.31193 
L 179.945007 -57.484976 
L 180.286392 -57.658023 
L 180.622396 -57.831069 
L 180.952133 -58.004116 
L 181.274408 -58.177163 
L 181.587765 -58.350209 
L 181.890566 -58.523256 
L 182.18109 -58.696302 
L 182.457635 -58.869349 
L 182.71862 -59.042395 
L 182.962676 -59.215442 
L 183.188721 -59.388489 
L 183.396011 -59.561535 
L 185.988688 -59.561535 
L 185.988688 -59.561535 
L 186.195979 -59.388489 
L 186.422024 -59.215442 
L 186.66608 -59.042395 
L 186.927065 -58.869349 
L 187.203609 -58.696302 
L 187.494134 -58.523256 
L 187.796935 -58.350209 
L 188.110292 -58.177163 
L 188.432567 -58.004116 
L 188.762304 -57.831069 
L 189.098308 -57.658023 
L 189.439693 -57.484976 
L 189.7859 -57.31193 
L 190.136666 -57.138883 
L 190.491952 -56.965837 
L 190.851826 -56.79279 
L 191.216305 -56.619743 
L 191.585179 -56.446697 
L 191.957807 -56.27365 
L 192.332933 -56.100604 
L 192.70851 -55.927557 
L 193.081575 -55.754511 
L 193.44817 -55.581464 
L 193.803349 -55.408417 
L 194.141244 -55.235371 
L 194.455235 -55.062324 
L 194.738175 -54.889278 
L 194.982703 -54.716231 
L 195.181594 -54.543185 
L 195.328144 -54.370138 
L 195.416561 -54.197091 
L 195.442336 -54.024045 
L 195.402559 -53.850998 
L 195.296179 -53.677952 
L 195.124157 -53.504905 
L 194.889534 -53.331859 
L 194.597373 -53.158812 
L 194.254606 -52.985765 
L 193.869771 -52.812719 
L 193.452666 -52.639672 
L 193.013941 -52.466626 
L 192.564638 -52.293579 
L 192.115734 -52.120533 
L 191.677675 -51.947486 
L 191.25997 -51.774439 
L 190.870835 -51.601393 
L 190.516923 -51.428346 
L 190.203148 -51.2553 
L 189.93262 -51.082253 
L 189.706674 -50.909207 
L 189.525005 -50.73616 
L 189.385894 -50.563113 
L 189.286501 -50.390067 
L 189.223214 -50.21702 
L 189.192023 -50.043974 
L 189.1889 -49.870927 
L 189.210152 -49.69788 
L 189.252734 -49.524834 
L 189.314483 -49.351787 
L 189.394277 -49.178741 
L 189.492085 -49.005694 
L 189.608926 -48.832648 
L 189.746712 -48.659601 
L 189.908007 -48.486554 
L 190.095705 -48.313508 
L 190.31264 -48.140461 
L 190.561181 -47.967415 
L 190.842812 -47.794368 
L 191.157743 -47.621322 
L 191.504584 -47.448275 
L 191.880104 -47.275228 
L 192.279097 -47.102182 
L 192.694379 -46.929135 
L 193.116914 -46.756089 
L 193.536074 -46.583042 
L 193.940023 -46.409996 
L 194.316194 -46.236949 
L 194.651847 -46.063902 
L 194.934665 -45.890856 
L 195.153354 -45.717809 
L 195.2982 -45.544763 
L 195.361566 -45.371716 
L 195.338277 -45.19867 
L 195.225883 -45.025623 
L 195.024777 -44.852576 
L 194.738165 -44.67953 
L 194.371897 -44.506483 
L 193.934161 -44.333437 
L 193.43508 -44.16039 
L 192.886221 -43.987344 
L 192.300068 -43.814297 
L 191.689475 -43.64125 
L 191.067142 -43.468204 
L 190.44514 -43.295157 
L 189.834501 -43.122111 
L 189.244904 -42.949064 
L 188.684451 -42.776018 
L 188.159539 -42.602971 
L 187.674832 -42.429924 
z
" style="stroke: #6f6f6f; stroke-width: 0.15"/>
    </defs>
    <g clip-path="url(#p79b270acb9)">
     <use xlink:href="#m90f548ca15" x="0" y="84.96" style="fill: #f1b9e0; stroke: #6f6f6f; stroke-width: 0.15"/>
    </g>
   </g>
   <g id="PolyCollection_8">
    <defs>
     <path id="mff0b7fd40d" d="M 214.161614 -36.308231 
L 208.973014 -36.308231 
L 208.481386 -36.331704 
L 207.938349 -36.355177 
L 207.348187 -36.37865 
L 206.71759 -36.402123 
L 206.055703 -36.425596 
L 205.374045 -36.449069 
L 204.686264 -36.472541 
L 204.00774 -36.496014 
L 203.355046 -36.519487 
L 202.745274 -36.54296 
L 202.195287 -36.566433 
L 201.720909 -36.589906 
L 201.336134 -36.613379 
L 201.052391 -36.636851 
L 200.877925 -36.660324 
L 200.817328 -36.683797 
L 200.871277 -36.70727 
L 201.036473 -36.730743 
L 201.305806 -36.754216 
L 201.668731 -36.777689 
L 202.11182 -36.801162 
L 202.619465 -36.824634 
L 203.17467 -36.848107 
L 203.759891 -36.87158 
L 204.357867 -36.895053 
L 204.952387 -36.918526 
L 205.528956 -36.941999 
L 206.075326 -36.965472 
L 206.581862 -36.988944 
L 207.041747 -37.012417 
L 207.451014 -37.03589 
L 207.808423 -37.059363 
L 208.115204 -37.082836 
L 208.37469 -37.106309 
L 208.591874 -37.129782 
L 208.772924 -37.153255 
L 208.924684 -37.176727 
L 209.054199 -37.2002 
L 209.168282 -37.223673 
L 209.273148 -37.247146 
L 209.374137 -37.270619 
L 209.47552 -37.294092 
L 209.580395 -37.317565 
L 209.69068 -37.341037 
L 209.807172 -37.36451 
L 209.929678 -37.387983 
L 210.057183 -37.411456 
L 210.188055 -37.434929 
L 210.320255 -37.458402 
L 210.45154 -37.481875 
L 210.579647 -37.505347 
L 210.702447 -37.52882 
L 210.818062 -37.552293 
L 210.924937 -37.575766 
L 211.021882 -37.599239 
L 211.108066 -37.622712 
L 211.182991 -37.646185 
L 211.24644 -37.669658 
L 211.298408 -37.69313 
L 211.339029 -37.716603 
L 211.368507 -37.740076 
L 211.387045 -37.763549 
L 211.394801 -37.787022 
L 211.391852 -37.810495 
L 211.378174 -37.833968 
L 211.353659 -37.85744 
L 211.318135 -37.880913 
L 211.271417 -37.904386 
L 211.213369 -37.927859 
L 211.143979 -37.951332 
L 211.063442 -37.974805 
L 210.972236 -37.998278 
L 210.871201 -38.021751 
L 210.761592 -38.045223 
L 210.645115 -38.068696 
L 210.523932 -38.092169 
L 210.400638 -38.115642 
L 210.278195 -38.139115 
L 210.159837 -38.162588 
L 210.048946 -38.186061 
L 209.948899 -38.209533 
L 209.862903 -38.233006 
L 209.793834 -38.256479 
L 209.744072 -38.279952 
L 209.715375 -38.303425 
L 209.708768 -38.326898 
L 209.724492 -38.350371 
L 209.761983 -38.373844 
L 209.819909 -38.397316 
L 209.896249 -38.420789 
L 209.988408 -38.444262 
L 210.093366 -38.467735 
L 210.207839 -38.491208 
L 210.328451 -38.514681 
L 210.451894 -38.538154 
L 210.575075 -38.561626 
L 210.695232 -38.585099 
L 210.810025 -38.608572 
L 210.91759 -38.632045 
L 212.217038 -38.632045 
L 212.217038 -38.632045 
L 212.324603 -38.608572 
L 212.439396 -38.585099 
L 212.559553 -38.561626 
L 212.682733 -38.538154 
L 212.806177 -38.514681 
L 212.926789 -38.491208 
L 213.041262 -38.467735 
L 213.14622 -38.444262 
L 213.238379 -38.420789 
L 213.314719 -38.397316 
L 213.372645 -38.373844 
L 213.410136 -38.350371 
L 213.42586 -38.326898 
L 213.419253 -38.303425 
L 213.390556 -38.279952 
L 213.340794 -38.256479 
L 213.271725 -38.233006 
L 213.185729 -38.209533 
L 213.085682 -38.186061 
L 212.974791 -38.162588 
L 212.856433 -38.139115 
L 212.73399 -38.115642 
L 212.610696 -38.092169 
L 212.489513 -38.068696 
L 212.373036 -38.045223 
L 212.263426 -38.021751 
L 212.162392 -37.998278 
L 212.071186 -37.974805 
L 211.990649 -37.951332 
L 211.921259 -37.927859 
L 211.863211 -37.904386 
L 211.816493 -37.880913 
L 211.780969 -37.85744 
L 211.756454 -37.833968 
L 211.742776 -37.810495 
L 211.739826 -37.787022 
L 211.747583 -37.763549 
L 211.766121 -37.740076 
L 211.795598 -37.716603 
L 211.83622 -37.69313 
L 211.888187 -37.669658 
L 211.951636 -37.646185 
L 212.026562 -37.622712 
L 212.112746 -37.599239 
L 212.209691 -37.575766 
L 212.316566 -37.552293 
L 212.432181 -37.52882 
L 212.554981 -37.505347 
L 212.683088 -37.481875 
L 212.814373 -37.458402 
L 212.946573 -37.434929 
L 213.077445 -37.411456 
L 213.20495 -37.387983 
L 213.327456 -37.36451 
L 213.443948 -37.341037 
L 213.554233 -37.317565 
L 213.659108 -37.294092 
L 213.76049 -37.270619 
L 213.86148 -37.247146 
L 213.966346 -37.223673 
L 214.080429 -37.2002 
L 214.209944 -37.176727 
L 214.361704 -37.153255 
L 214.542754 -37.129782 
L 214.759938 -37.106309 
L 215.019424 -37.082836 
L 215.326205 -37.059363 
L 215.683614 -37.03589 
L 216.092881 -37.012417 
L 216.552766 -36.988944 
L 217.059302 -36.965472 
L 217.605672 -36.941999 
L 218.182241 -36.918526 
L 218.776761 -36.895053 
L 219.374737 -36.87158 
L 219.959958 -36.848107 
L 220.515162 -36.824634 
L 221.022808 -36.801162 
L 221.465897 -36.777689 
L 221.828822 -36.754216 
L 222.098155 -36.730743 
L 222.263351 -36.70727 
L 222.3173 -36.683797 
L 222.256703 -36.660324 
L 222.082237 -36.636851 
L 221.798494 -36.613379 
L 221.413719 -36.589906 
L 220.939341 -36.566433 
L 220.389353 -36.54296 
L 219.779582 -36.519487 
L 219.126888 -36.496014 
L 218.448364 -36.472541 
L 217.760583 -36.449069 
L 217.078925 -36.425596 
L 216.417038 -36.402123 
L 215.786441 -36.37865 
L 215.196279 -36.355177 
L 214.653242 -36.331704 
L 214.161614 -36.308231 
z
" style="stroke: #6f6f6f; stroke-width: 0.15"/>
    </defs>
    <g clip-path="url(#p79b270acb9)">
     <use xlink:href="#mff0b7fd40d" x="0" y="84.96" style="fill: #cfcfcf; stroke: #6f6f6f; stroke-width: 0.15"/>
    </g>
   </g>
   <g id="PolyCollection_9">
    <defs>
     <path id="m0eefbaa790" d="M 239.409617 -35.964924 
L 237.474939 -35.964924 
L 237.3048 -36.297589 
L 237.120849 -36.630254 
L 236.925335 -36.962919 
L 236.721097 -37.295585 
L 236.511429 -37.62825 
L 236.299897 -37.960915 
L 236.090102 -38.29358 
L 235.885418 -38.626246 
L 235.688715 -38.958911 
L 235.502092 -39.291576 
L 235.326657 -39.624241 
L 235.162364 -39.956907 
L 235.007937 -40.289572 
L 234.86089 -40.622237 
L 234.71765 -40.954902 
L 234.573772 -41.287568 
L 234.424232 -41.620233 
L 234.263777 -41.952898 
L 234.087299 -42.285563 
L 233.890191 -42.618229 
L 233.668675 -42.950894 
L 233.420054 -43.283559 
L 233.142881 -43.616224 
L 232.837042 -43.94889 
L 232.50374 -44.281555 
L 232.145419 -44.61422 
L 231.765626 -44.946885 
L 231.368852 -45.279551 
L 230.960368 -45.612216 
L 230.546088 -45.944881 
L 230.132459 -46.277546 
L 229.726393 -46.610212 
L 229.335224 -46.942877 
L 228.966682 -47.275542 
L 228.62885 -47.608207 
L 228.330086 -47.940873 
L 228.078879 -48.273538 
L 227.883632 -48.606203 
L 227.752355 -48.938868 
L 227.692292 -49.271534 
L 227.709489 -49.604199 
L 227.808348 -49.936864 
L 227.991211 -50.269529 
L 228.258012 -50.602195 
L 228.606043 -50.93486 
L 229.029875 -51.267525 
L 229.521432 -51.60019 
L 230.070253 -51.932856 
L 230.663891 -52.265521 
L 231.288449 -52.598186 
L 231.929192 -52.930851 
L 232.571198 -53.263517 
L 233.199981 -53.596182 
L 233.802067 -53.928847 
L 234.365462 -54.261512 
L 234.88 -54.594178 
L 235.337563 -54.926843 
L 235.732168 -55.259508 
L 236.059947 -55.592173 
L 236.319035 -55.924839 
L 236.509389 -56.257504 
L 236.632576 -56.590169 
L 236.691546 -56.922834 
L 236.69041 -57.2555 
L 236.634238 -57.588165 
L 236.528874 -57.92083 
L 236.38078 -58.253495 
L 236.196895 -58.586161 
L 235.984504 -58.918826 
L 235.751115 -59.251491 
L 235.504332 -59.584156 
L 235.251728 -59.916821 
L 235.000706 -60.249487 
L 234.758368 -60.582152 
L 234.53138 -60.914817 
L 234.325844 -61.247482 
L 234.147182 -61.580148 
L 234.000039 -61.912813 
L 233.888202 -62.245478 
L 233.814535 -62.578143 
L 233.780944 -62.910809 
L 233.788349 -63.243474 
L 233.836686 -63.576139 
L 233.92492 -63.908804 
L 234.051084 -64.24147 
L 234.212339 -64.574135 
L 234.405055 -64.9068 
L 234.624916 -65.239465 
L 234.86706 -65.572131 
L 235.126226 -65.904796 
L 235.396935 -66.237461 
L 235.673672 -66.570126 
L 235.951073 -66.902792 
L 236.224108 -67.235457 
L 236.488244 -67.568122 
L 236.739572 -67.900787 
L 236.97491 -68.233453 
L 237.191858 -68.566118 
L 237.388814 -68.898783 
L 239.495742 -68.898783 
L 239.495742 -68.898783 
L 239.692698 -68.566118 
L 239.909646 -68.233453 
L 240.144984 -67.900787 
L 240.396312 -67.568122 
L 240.660448 -67.235457 
L 240.933483 -66.902792 
L 241.210884 -66.570126 
L 241.487621 -66.237461 
L 241.75833 -65.904796 
L 242.017496 -65.572131 
L 242.25964 -65.239465 
L 242.479501 -64.9068 
L 242.672217 -64.574135 
L 242.833472 -64.24147 
L 242.959636 -63.908804 
L 243.04787 -63.576139 
L 243.096207 -63.243474 
L 243.103612 -62.910809 
L 243.070021 -62.578143 
L 242.996354 -62.245478 
L 242.884517 -61.912813 
L 242.737374 -61.580148 
L 242.558712 -61.247482 
L 242.353176 -60.914817 
L 242.126188 -60.582152 
L 241.88385 -60.249487 
L 241.632828 -59.916821 
L 241.380224 -59.584156 
L 241.133441 -59.251491 
L 240.900052 -58.918826 
L 240.687661 -58.586161 
L 240.503776 -58.253495 
L 240.355682 -57.92083 
L 240.250318 -57.588165 
L 240.194146 -57.2555 
L 240.19301 -56.922834 
L 240.25198 -56.590169 
L 240.375167 -56.257504 
L 240.565521 -55.924839 
L 240.824609 -55.592173 
L 241.152388 -55.259508 
L 241.546993 -54.926843 
L 242.004556 -54.594178 
L 242.519094 -54.261512 
L 243.082489 -53.928847 
L 243.684575 -53.596182 
L 244.313358 -53.263517 
L 244.955364 -52.930851 
L 245.596107 -52.598186 
L 246.220665 -52.265521 
L 246.814303 -51.932856 
L 247.363124 -51.60019 
L 247.854681 -51.267525 
L 248.278513 -50.93486 
L 248.626544 -50.602195 
L 248.893345 -50.269529 
L 249.076208 -49.936864 
L 249.175067 -49.604199 
L 249.192264 -49.271534 
L 249.132201 -48.938868 
L 249.000924 -48.606203 
L 248.805677 -48.273538 
L 248.55447 -47.940873 
L 248.255706 -47.608207 
L 247.917874 -47.275542 
L 247.549332 -46.942877 
L 247.158163 -46.610212 
L 246.752097 -46.277546 
L 246.338468 -45.944881 
L 245.924188 -45.612216 
L 245.515704 -45.279551 
L 245.11893 -44.946885 
L 244.739137 -44.61422 
L 244.380816 -44.281555 
L 244.047514 -43.94889 
L 243.741675 -43.616224 
L 243.464502 -43.283559 
L 243.215881 -42.950894 
L 242.994365 -42.618229 
L 242.797257 -42.285563 
L 242.620779 -41.952898 
L 242.460324 -41.620233 
L 242.310784 -41.287568 
L 242.166906 -40.954902 
L 242.023666 -40.622237 
L 241.876619 -40.289572 
L 241.722192 -39.956907 
L 241.557899 -39.624241 
L 241.382464 -39.291576 
L 241.195841 -38.958911 
L 240.999138 -38.626246 
L 240.794454 -38.29358 
L 240.584659 -37.960915 
L 240.373127 -37.62825 
L 240.163459 -37.295585 
L 239.959221 -36.962919 
L 239.763707 -36.630254 
L 239.579756 -36.297589 
L 239.409617 -35.964924 
z
" style="stroke: #6f6f6f; stroke-width: 0.15"/>
    </defs>
    <g clip-path="url(#p79b270acb9)">
     <use xlink:href="#m0eefbaa790" x="0" y="84.96" style="fill: #f3f3ae; stroke: #6f6f6f; stroke-width: 0.15"/>
    </g>
   </g>
   <g id="line2d_8">
    <path d="M 23.442566 44.017845 
L 23.442566 27.782648 
" clip-path="url(#p79b270acb9)" style="fill: none; stroke: #8c8c8c; stroke-width: 0.75; stroke-linecap: round"/>
   </g>
   <g id="line2d_9">
    <path d="M 23.442566 40.614167 
L 23.442566 34.771361 
" clip-path="url(#p79b270acb9)" style="fill: none; stroke: #8c8c8c; stroke-width: 4; stroke-linecap: round"/>
   </g>
   <g id="line2d_10">
    <path d="M 23.442566 39.082043 
" clip-path="url(#p79b270acb9)" style="fill: none; stroke: #6f6f6f; stroke-width: 1.2; stroke-linecap: round"/>
    <defs>
     <path id="m5d23d9e1e7" d="M 0 0.833333 
C 0.221003 0.833333 0.432983 0.745528 0.589256 0.589256 
C 0.745528 0.432983 0.833333 0.221003 0.833333 0 
C 0.833333 -0.221003 0.745528 -0.432983 0.589256 -0.589256 
C 0.432983 -0.745528 0.221003 -0.833333 0 -0.833333 
C -0.221003 -0.833333 -0.432983 -0.745528 -0.589256 -0.589256 
C -0.745528 -0.432983 -0.833333 -0.221003 -0.833333 0 
C -0.833333 0.221003 -0.745528 0.432983 -0.589256 0.589256 
C -0.432983 0.745528 -0.221003 0.833333 0 0.833333 
z
" style="stroke: #ffffff; stroke-width: 0.8"/>
    </defs>
    <g clip-path="url(#p79b270acb9)">
     <use xlink:href="#m5d23d9e1e7" x="23.442566" y="39.082043" style="fill: #ffffff; stroke: #ffffff; stroke-width: 0.8"/>
    </g>
   </g>
   <g id="line2d_11">
    <path d="M 50.31753 47.253742 
L 50.31753 32.141052 
" clip-path="url(#p79b270acb9)" style="fill: none; stroke: #8c8c8c; stroke-width: 0.75; stroke-linecap: round"/>
   </g>
   <g id="line2d_12">
    <path d="M 50.31753 44.507858 
L 50.31753 39.187242 
" clip-path="url(#p79b270acb9)" style="fill: none; stroke: #8c8c8c; stroke-width: 4; stroke-linecap: round"/>
   </g>
   <g id="line2d_13">
    <path d="M 50.31753 41.949551 
" clip-path="url(#p79b270acb9)" style="fill: none; stroke: #6f6f6f; stroke-width: 1.2; stroke-linecap: round"/>
    <g clip-path="url(#p79b270acb9)">
     <use xlink:href="#m5d23d9e1e7" x="50.31753" y="41.949551" style="fill: #ffffff; stroke: #ffffff; stroke-width: 0.8"/>
    </g>
   </g>
   <g id="line2d_14">
    <path d="M 77.192494 48.295137 
L 77.192494 33.909735 
" clip-path="url(#p79b270acb9)" style="fill: none; stroke: #8c8c8c; stroke-width: 0.75; stroke-linecap: round"/>
   </g>
   <g id="line2d_15">
    <path d="M 77.192494 46.559529 
L 77.192494 41.066475 
" clip-path="url(#p79b270acb9)" style="fill: none; stroke: #8c8c8c; stroke-width: 4; stroke-linecap: round"/>
   </g>
   <g id="line2d_16">
    <path d="M 77.192494 44.29183 
" clip-path="url(#p79b270acb9)" style="fill: none; stroke: #6f6f6f; stroke-width: 1.2; stroke-linecap: round"/>
    <g clip-path="url(#p79b270acb9)">
     <use xlink:href="#m5d23d9e1e7" x="77.192494" y="44.29183" style="fill: #ffffff; stroke: #ffffff; stroke-width: 0.8"/>
    </g>
   </g>
   <g id="line2d_17">
    <path d="M 104.067458 48.327308 
L 104.067458 46.982612 
" clip-path="url(#p79b270acb9)" style="fill: none; stroke: #8c8c8c; stroke-width: 0.75; stroke-linecap: round"/>
   </g>
   <g id="line2d_18">
    <path d="M 104.067458 48.221939 
L 104.067458 47.491264 
" clip-path="url(#p79b270acb9)" style="fill: none; stroke: #8c8c8c; stroke-width: 4; stroke-linecap: round"/>
   </g>
   <g id="line2d_19">
    <path d="M 104.067458 48.118772 
" clip-path="url(#p79b270acb9)" style="fill: none; stroke: #6f6f6f; stroke-width: 1.2; stroke-linecap: round"/>
    <g clip-path="url(#p79b270acb9)">
     <use xlink:href="#m5d23d9e1e7" x="104.067458" y="48.118772" style="fill: #ffffff; stroke: #ffffff; stroke-width: 0.8"/>
    </g>
   </g>
   <g id="line2d_20">
    <path d="M 130.942422 48.343812 
L 130.942422 47.989715 
" clip-path="url(#p79b270acb9)" style="fill: none; stroke: #8c8c8c; stroke-width: 0.75; stroke-linecap: round"/>
   </g>
   <g id="line2d_21">
    <path d="M 130.942422 48.241588 
L 130.942422 47.996625 
" clip-path="url(#p79b270acb9)" style="fill: none; stroke: #8c8c8c; stroke-width: 4; stroke-linecap: round"/>
   </g>
   <g id="line2d_22">
    <path d="M 130.942422 48.080465 
" clip-path="url(#p79b270acb9)" style="fill: none; stroke: #6f6f6f; stroke-width: 1.2; stroke-linecap: round"/>
    <g clip-path="url(#p79b270acb9)">
     <use xlink:href="#m5d23d9e1e7" x="130.942422" y="48.080465" style="fill: #ffffff; stroke: #ffffff; stroke-width: 0.8"/>
    </g>
   </g>
   <g id="line2d_23">
    <path d="M 157.817386 47.173076 
L 157.817386 37.793448 
" clip-path="url(#p79b270acb9)" style="fill: none; stroke: #8c8c8c; stroke-width: 0.75; stroke-linecap: round"/>
   </g>
   <g id="line2d_24">
    <path d="M 157.817386 44.496926 
L 157.817386 40.32875 
" clip-path="url(#p79b270acb9)" style="fill: none; stroke: #8c8c8c; stroke-width: 4; stroke-linecap: round"/>
   </g>
   <g id="line2d_25">
    <path d="M 157.817386 42.999047 
" clip-path="url(#p79b270acb9)" style="fill: none; stroke: #6f6f6f; stroke-width: 1.2; stroke-linecap: round"/>
    <g clip-path="url(#p79b270acb9)">
     <use xlink:href="#m5d23d9e1e7" x="157.817386" y="42.999047" style="fill: #ffffff; stroke: #ffffff; stroke-width: 0.8"/>
    </g>
   </g>
   <g id="line2d_26">
    <path d="M 184.69235 39.995423 
L 184.69235 27.933117 
" clip-path="url(#p79b270acb9)" style="fill: none; stroke: #8c8c8c; stroke-width: 0.75; stroke-linecap: round"/>
   </g>
   <g id="line2d_27">
    <path d="M 184.69235 39.545211 
L 184.69235 31.125976 
" clip-path="url(#p79b270acb9)" style="fill: none; stroke: #8c8c8c; stroke-width: 4; stroke-linecap: round"/>
   </g>
   <g id="line2d_28">
    <path d="M 184.69235 33.727017 
" clip-path="url(#p79b270acb9)" style="fill: none; stroke: #6f6f6f; stroke-width: 1.2; stroke-linecap: round"/>
    <g clip-path="url(#p79b270acb9)">
     <use xlink:href="#m5d23d9e1e7" x="184.69235" y="33.727017" style="fill: #ffffff; stroke: #ffffff; stroke-width: 0.8"/>
    </g>
   </g>
   <g id="line2d_29">
    <path d="M 211.567314 48.341823 
L 211.567314 47.697629 
" clip-path="url(#p79b270acb9)" style="fill: none; stroke: #8c8c8c; stroke-width: 0.75; stroke-linecap: round"/>
   </g>
   <g id="line2d_30">
    <path d="M 211.567314 48.312746 
L 211.567314 48.059048 
" clip-path="url(#p79b270acb9)" style="fill: none; stroke: #8c8c8c; stroke-width: 4; stroke-linecap: round"/>
   </g>
   <g id="line2d_31">
    <path d="M 211.567314 48.252435 
" clip-path="url(#p79b270acb9)" style="fill: none; stroke: #6f6f6f; stroke-width: 1.2; stroke-linecap: round"/>
    <g clip-path="url(#p79b270acb9)">
     <use xlink:href="#m5d23d9e1e7" x="211.567314" y="48.252435" style="fill: #ffffff; stroke: #ffffff; stroke-width: 0.8"/>
    </g>
   </g>
   <g id="line2d_32">
    <path d="M 238.442278 44.757092 
L 238.442278 23.57796 
" clip-path="url(#p79b270acb9)" style="fill: none; stroke: #8c8c8c; stroke-width: 0.75; stroke-linecap: round"/>
   </g>
   <g id="line2d_33">
    <path d="M 238.442278 38.124403 
L 238.442278 31.46516 
" clip-path="url(#p79b270acb9)" style="fill: none; stroke: #8c8c8c; stroke-width: 4; stroke-linecap: round"/>
   </g>
   <g id="line2d_34">
    <path d="M 238.442278 34.495882 
" clip-path="url(#p79b270acb9)" style="fill: none; stroke: #6f6f6f; stroke-width: 1.2; stroke-linecap: round"/>
    <g clip-path="url(#p79b270acb9)">
     <use xlink:href="#m5d23d9e1e7" x="238.442278" y="34.495882" style="fill: #ffffff; stroke: #ffffff; stroke-width: 0.8"/>
    </g>
   </g>
   <g id="patch_3">
    <path d="M 10.005084 54.222338 
L 10.005084 4.076256 
" style="fill: none; stroke: #777777; stroke-width: 0.5; stroke-linejoin: miter; stroke-linecap: square"/>
   </g>
   <g id="patch_4">
    <path d="M 10.005084 56.722338 
L 251.87976 56.722338 
" style="fill: none; stroke: #777777; stroke-width: 0.5; stroke-linejoin: miter; stroke-linecap: square"/>
   </g>
  </g>
 </g>
 <defs>
  <clipPath id="p79b270acb9">
   <rect x="10.005084" y="4.076256" width="241.874676" height="50.146082"/>
  </clipPath>
 </defs>
</svg>
