<?xml version="1.0" encoding="utf-8" standalone="no"?>
<!DOCTYPE svg PUBLIC "-//W3C//DTD SVG 1.1//EN"
  "http://www.w3.org/Graphics/SVG/1.1/DTD/svg11.dtd">
<svg xmlns:xlink="http://www.w3.org/1999/xlink" width="56.16pt" height="84.96pt" viewBox="0 0 56.16 84.96" xmlns="http://www.w3.org/2000/svg" version="1.1">
 <metadata>
  <rdf:RDF xmlns:dc="http://purl.org/dc/elements/1.1/" xmlns:cc="http://creativecommons.org/ns#" xmlns:rdf="http://www.w3.org/1999/02/22-rdf-syntax-ns#">
   <cc:Work>
    <dc:type rdf:resource="http://purl.org/dc/dcmitype/StillImage"/>
    <dc:date>2024-05-27T15:37:05.794816</dc:date>
    <dc:format>image/svg+xml</dc:format>
    <dc:creator>
     <cc:Agent>
      <dc:title>Matplotlib v3.8.3, https://matplotlib.org/</dc:title>
     </cc:Agent>
    </dc:creator>
   </cc:Work>
  </rdf:RDF>
 </metadata>
 <defs>
  <style type="text/css">*{stroke-linejoin: round; stroke-linecap: butt}</style>
 </defs>
 <g id="figure_1">
  <g id="patch_1">
   <path d="M 0 84.96 
L 56.16 84.96 
L 56.16 0 
L 0 0 
z
" style="fill: #ffffff"/>
  </g>
  <g id="axes_1">
   <g id="patch_2">
    <path d="M 8.336802 74.419526 
L 53.15976 74.419526 
L 53.15976 4.076256 
L 8.336802 4.076256 
z
" style="fill: #ffffff"/>
   </g>
   <g id="matplotlib.axis_1">
    <g id="xtick_1">
     <g id="text_1">
      <!-- ILC3 -->
      <g style="fill: #333333" transform="translate(15.846214 81.230229) scale(0.035 -0.035)">
       <defs>
        <path id="Helvetica-49" d="M 628 4591 
L 1256 4591 
L 1256 0 
L 628 0 
L 628 4591 
z
" transform="scale(0.015625)"/>
        <path id="Helvetica-4c" d="M 488 4591 
L 1109 4591 
L 1109 547 
L 3434 547 
L 3434 0 
L 488 0 
L 488 4591 
z
" transform="scale(0.015625)"/>
        <path id="Helvetica-43" d="M 2422 4716 
Q 3294 4716 3775 4256 
Q 4256 3797 4309 3213 
L 3703 3213 
Q 3600 3656 3292 3915 
Q 2984 4175 2428 4175 
Q 1750 4175 1333 3698 
Q 916 3222 916 2238 
Q 916 1431 1292 929 
Q 1669 428 2416 428 
Q 3103 428 3463 956 
Q 3653 1234 3747 1688 
L 4353 1688 
Q 4272 963 3816 472 
Q 3269 -119 2341 -119 
Q 1541 -119 997 366 
Q 281 1006 281 2344 
Q 281 3359 819 4009 
Q 1400 4716 2422 4716 
z
M 2297 4716 
L 2297 4716 
z
" transform="scale(0.015625)"/>
        <path id="Helvetica-33" d="M 1663 -122 
Q 869 -122 511 314 
Q 153 750 153 1375 
L 741 1375 
Q 778 941 903 744 
Q 1122 391 1694 391 
Q 2138 391 2406 628 
Q 2675 866 2675 1241 
Q 2675 1703 2392 1887 
Q 2109 2072 1606 2072 
Q 1550 2072 1492 2070 
Q 1434 2069 1375 2066 
L 1375 2563 
Q 1463 2553 1522 2550 
Q 1581 2547 1650 2547 
Q 1966 2547 2169 2647 
Q 2525 2822 2525 3272 
Q 2525 3606 2287 3787 
Q 2050 3969 1734 3969 
Q 1172 3969 956 3594 
Q 838 3388 822 3006 
L 266 3006 
Q 266 3506 466 3856 
Q 809 4481 1675 4481 
Q 2359 4481 2734 4176 
Q 3109 3872 3109 3294 
Q 3109 2881 2888 2625 
Q 2750 2466 2531 2375 
Q 2884 2278 3082 2001 
Q 3281 1725 3281 1325 
Q 3281 684 2859 281 
Q 2438 -122 1663 -122 
z
" transform="scale(0.015625)"/>
       </defs>
       <use xlink:href="#Helvetica-49"/>
       <use xlink:href="#Helvetica-4c" x="27.783203"/>
       <use xlink:href="#Helvetica-43" x="83.398438"/>
       <use xlink:href="#Helvetica-33" x="155.615234"/>
      </g>
     </g>
    </g>
    <g id="xtick_2">
     <g id="text_2">
      <!-- TH17 -->
      <g style="fill: #333333" transform="translate(37.674997 81.230229) scale(0.035 -0.035)">
       <defs>
        <path id="Helvetica-54" d="M 3828 4591 
L 3828 4044 
L 2281 4044 
L 2281 0 
L 1650 0 
L 1650 4044 
L 103 4044 
L 103 4591 
L 3828 4591 
z
" transform="scale(0.015625)"/>
        <path id="Helvetica-48" d="M 503 4591 
L 1131 4591 
L 1131 2694 
L 3519 2694 
L 3519 4591 
L 4147 4591 
L 4147 0 
L 3519 0 
L 3519 2147 
L 1131 2147 
L 1131 0 
L 503 0 
L 503 4591 
z
" transform="scale(0.015625)"/>
        <path id="Helvetica-31" d="M 613 3169 
L 613 3600 
Q 1222 3659 1462 3798 
Q 1703 3938 1822 4456 
L 2266 4456 
L 2266 0 
L 1666 0 
L 1666 3169 
L 613 3169 
z
" transform="scale(0.015625)"/>
        <path id="Helvetica-37" d="M 3347 4400 
L 3347 3909 
Q 3131 3700 2773 3181 
Q 2416 2663 2141 2063 
Q 1869 1478 1728 997 
Q 1638 688 1494 0 
L 872 0 
Q 1084 1281 1809 2550 
Q 2238 3294 2709 3834 
L 234 3834 
L 234 4400 
L 3347 4400 
z
" transform="scale(0.015625)"/>
       </defs>
       <use xlink:href="#Helvetica-54"/>
       <use xlink:href="#Helvetica-48" x="61.083984"/>
       <use xlink:href="#Helvetica-31" x="133.300781"/>
       <use xlink:href="#Helvetica-37" x="188.916016"/>
      </g>
     </g>
    </g>
   </g>
   <g id="matplotlib.axis_2">
    <g id="ytick_1">
     <g id="line2d_1">
      <defs>
       <path id="m88f0b0dec0" d="M 0 0 
L -1 0 
" style="stroke: #777777; stroke-width: 0.5"/>
      </defs>
      <g>
       <use xlink:href="#m88f0b0dec0" x="8.336802" y="66.995102" style="fill: #777777; stroke: #777777; stroke-width: 0.5"/>
      </g>
     </g>
     <g id="text_3">
      <!-- 0 -->
      <g style="fill: #333333" transform="translate(4.668521 68.071117) scale(0.03 -0.03)">
       <defs>
        <path id="Helvetica-30" d="M 1731 4475 
Q 2600 4475 2988 3759 
Q 3288 3206 3288 2244 
Q 3288 1331 3016 734 
Q 2622 -122 1728 -122 
Q 922 -122 528 578 
Q 200 1163 200 2147 
Q 200 2909 397 3456 
Q 766 4475 1731 4475 
z
M 1725 391 
Q 2163 391 2422 778 
Q 2681 1166 2681 2222 
Q 2681 2984 2493 3476 
Q 2306 3969 1766 3969 
Q 1269 3969 1039 3501 
Q 809 3034 809 2125 
Q 809 1441 956 1025 
Q 1181 391 1725 391 
z
" transform="scale(0.015625)"/>
       </defs>
       <use xlink:href="#Helvetica-30"/>
      </g>
     </g>
    </g>
    <g id="ytick_2">
     <g id="line2d_2">
      <g>
       <use xlink:href="#m88f0b0dec0" x="8.336802" y="54.411333" style="fill: #777777; stroke: #777777; stroke-width: 0.5"/>
      </g>
     </g>
     <g id="text_4">
      <!-- 10 -->
      <g style="fill: #333333" transform="translate(3.00024 55.487348) scale(0.03 -0.03)">
       <use xlink:href="#Helvetica-31"/>
       <use xlink:href="#Helvetica-30" x="55.615234"/>
      </g>
     </g>
    </g>
    <g id="ytick_3">
     <g id="line2d_3">
      <g>
       <use xlink:href="#m88f0b0dec0" x="8.336802" y="41.827563" style="fill: #777777; stroke: #777777; stroke-width: 0.5"/>
      </g>
     </g>
     <g id="text_5">
      <!-- 20 -->
      <g style="fill: #333333" transform="translate(3.00024 42.903579) scale(0.03 -0.03)">
       <defs>
        <path id="Helvetica-32" d="M 200 0 
Q 231 578 439 1006 
Q 647 1434 1250 1784 
L 1850 2131 
Q 2253 2366 2416 2531 
Q 2672 2791 2672 3125 
Q 2672 3516 2437 3745 
Q 2203 3975 1813 3975 
Q 1234 3975 1013 3538 
Q 894 3303 881 2888 
L 309 2888 
Q 319 3472 525 3841 
Q 891 4491 1816 4491 
Q 2584 4491 2939 4075 
Q 3294 3659 3294 3150 
Q 3294 2613 2916 2231 
Q 2697 2009 2131 1694 
L 1703 1456 
Q 1397 1288 1222 1134 
Q 909 863 828 531 
L 3272 531 
L 3272 0 
L 200 0 
z
" transform="scale(0.015625)"/>
       </defs>
       <use xlink:href="#Helvetica-32"/>
       <use xlink:href="#Helvetica-30" x="55.615234"/>
      </g>
     </g>
    </g>
    <g id="ytick_4">
     <g id="line2d_4">
      <g>
       <use xlink:href="#m88f0b0dec0" x="8.336802" y="29.243794" style="fill: #777777; stroke: #777777; stroke-width: 0.5"/>
      </g>
     </g>
     <g id="text_6">
      <!-- 30 -->
      <g style="fill: #333333" transform="translate(3.00024 30.31981) scale(0.03 -0.03)">
       <use xlink:href="#Helvetica-33"/>
       <use xlink:href="#Helvetica-30" x="55.615234"/>
      </g>
     </g>
    </g>
    <g id="ytick_5">
     <g id="line2d_5">
      <g>
       <use xlink:href="#m88f0b0dec0" x="8.336802" y="16.660025" style="fill: #777777; stroke: #777777; stroke-width: 0.5"/>
      </g>
     </g>
     <g id="text_7">
      <!-- 40 -->
      <g style="fill: #333333" transform="translate(3.00024 17.73604) scale(0.03 -0.03)">
       <defs>
        <path id="Helvetica-34" d="M 2116 1584 
L 2116 3613 
L 681 1584 
L 2116 1584 
z
M 2125 0 
L 2125 1094 
L 163 1094 
L 163 1644 
L 2213 4488 
L 2688 4488 
L 2688 1584 
L 3347 1584 
L 3347 1094 
L 2688 1094 
L 2688 0 
L 2125 0 
z
" transform="scale(0.015625)"/>
       </defs>
       <use xlink:href="#Helvetica-34"/>
       <use xlink:href="#Helvetica-30" x="55.615234"/>
      </g>
     </g>
    </g>
    <g id="ytick_6">
     <g id="line2d_6">
      <g>
       <use xlink:href="#m88f0b0dec0" x="8.336802" y="4.076256" style="fill: #777777; stroke: #777777; stroke-width: 0.5"/>
      </g>
     </g>
     <g id="text_8">
      <!-- 50 -->
      <g style="fill: #333333" transform="translate(3.00024 5.152271) scale(0.03 -0.03)">
       <defs>
        <path id="Helvetica-35" d="M 791 1141 
Q 847 659 1238 475 
Q 1438 381 1700 381 
Q 2200 381 2440 700 
Q 2681 1019 2681 1406 
Q 2681 1875 2395 2131 
Q 2109 2388 1709 2388 
Q 1419 2388 1211 2275 
Q 1003 2163 856 1963 
L 369 1991 
L 709 4400 
L 3034 4400 
L 3034 3856 
L 1131 3856 
L 941 2613 
Q 1097 2731 1238 2791 
Q 1488 2894 1816 2894 
Q 2431 2894 2859 2497 
Q 3288 2100 3288 1491 
Q 3288 856 2895 371 
Q 2503 -113 1644 -113 
Q 1097 -113 676 195 
Q 256 503 206 1141 
L 791 1141 
z
" transform="scale(0.015625)"/>
       </defs>
       <use xlink:href="#Helvetica-35"/>
       <use xlink:href="#Helvetica-30" x="55.615234"/>
      </g>
     </g>
    </g>
   </g>
   <g id="PolyCollection_1">
    <defs>
     <path id="m24c6137d30" d="M 21.604549 -18.110235 
L 17.480534 -18.110235 
L 17.088728 -18.15596 
L 16.657562 -18.201685 
L 16.19103 -18.24741 
L 15.694931 -18.293135 
L 15.176798 -18.33886 
L 14.645677 -18.384585 
L 14.111789 -18.43031 
L 13.586073 -18.476034 
L 13.079632 -18.521759 
L 12.603134 -18.567484 
L 12.166203 -18.613209 
L 11.776852 -18.658934 
L 11.441019 -18.704659 
L 11.162241 -18.750384 
L 10.941509 -18.796108 
L 10.777318 -18.841833 
L 10.665914 -18.887558 
L 10.601729 -18.933283 
L 10.57795 -18.979008 
L 10.587193 -19.024733 
L 10.622195 -19.070458 
L 10.676486 -19.116183 
L 10.74495 -19.161907 
L 10.824249 -19.207632 
L 10.913044 -19.253357 
L 11.012017 -19.299082 
L 11.12368 -19.344807 
L 11.252 -19.390532 
L 11.401883 -19.436257 
L 11.578557 -19.481982 
L 11.78694 -19.527706 
L 12.031035 -19.573431 
L 12.313416 -19.619156 
L 12.634857 -19.664881 
L 12.994127 -19.710606 
L 13.387967 -19.756331 
L 13.811241 -19.802056 
L 14.257234 -19.847781 
L 14.718077 -19.893505 
L 15.185234 -19.93923 
L 15.650013 -19.984955 
L 16.104061 -20.03068 
L 16.539794 -20.076405 
L 16.950743 -20.12213 
L 17.331783 -20.167855 
L 17.679256 -20.21358 
L 17.990987 -20.259304 
L 18.266197 -20.305029 
L 18.50535 -20.350754 
L 18.709941 -20.396479 
L 18.882261 -20.442204 
L 19.025148 -20.487929 
L 19.141759 -20.533654 
L 19.235356 -20.579379 
L 19.309129 -20.625103 
L 19.366061 -20.670828 
L 19.40882 -20.716553 
L 19.439693 -20.762278 
L 19.460544 -20.808003 
L 19.472804 -20.853728 
L 19.477475 -20.899453 
L 19.475147 -20.945178 
L 19.466032 -20.990902 
L 19.450007 -21.036627 
L 19.426665 -21.082352 
L 19.395373 -21.128077 
L 19.355345 -21.173802 
L 19.305725 -21.219527 
L 19.245672 -21.265252 
L 19.174468 -21.310977 
L 19.091616 -21.356701 
L 18.996955 -21.402426 
L 18.890753 -21.448151 
L 18.773799 -21.493876 
L 18.647468 -21.539601 
L 18.51375 -21.585326 
L 18.375249 -21.631051 
L 18.235128 -21.676776 
L 18.097018 -21.7225 
L 17.964875 -21.768225 
L 17.842799 -21.81395 
L 17.734833 -21.859675 
L 17.644739 -21.9054 
L 17.575784 -21.951125 
L 17.530542 -21.99685 
L 17.510736 -22.042575 
L 17.517128 -22.088299 
L 17.549472 -22.134024 
L 17.606528 -22.179749 
L 17.686141 -22.225474 
L 17.785378 -22.271199 
L 17.900706 -22.316924 
L 18.028197 -22.362649 
L 18.163756 -22.408374 
L 18.303329 -22.454098 
L 18.443099 -22.499823 
L 18.579653 -22.545548 
L 18.710094 -22.591273 
L 18.832122 -22.636998 
L 20.252962 -22.636998 
L 20.252962 -22.636998 
L 20.37499 -22.591273 
L 20.505431 -22.545548 
L 20.641984 -22.499823 
L 20.781755 -22.454098 
L 20.921327 -22.408374 
L 21.056886 -22.362649 
L 21.184378 -22.316924 
L 21.299705 -22.271199 
L 21.398943 -22.225474 
L 21.478556 -22.179749 
L 21.535612 -22.134024 
L 21.567956 -22.088299 
L 21.574348 -22.042575 
L 21.554542 -21.99685 
L 21.5093 -21.951125 
L 21.440344 -21.9054 
L 21.350251 -21.859675 
L 21.242285 -21.81395 
L 21.120209 -21.768225 
L 20.988066 -21.7225 
L 20.849956 -21.676776 
L 20.709835 -21.631051 
L 20.571333 -21.585326 
L 20.437616 -21.539601 
L 20.311284 -21.493876 
L 20.194331 -21.448151 
L 20.088129 -21.402426 
L 19.993467 -21.356701 
L 19.910616 -21.310977 
L 19.839411 -21.265252 
L 19.779359 -21.219527 
L 19.729738 -21.173802 
L 19.689711 -21.128077 
L 19.658419 -21.082352 
L 19.635077 -21.036627 
L 19.619052 -20.990902 
L 19.609937 -20.945178 
L 19.607609 -20.899453 
L 19.612279 -20.853728 
L 19.62454 -20.808003 
L 19.645391 -20.762278 
L 19.676263 -20.716553 
L 19.719022 -20.670828 
L 19.775955 -20.625103 
L 19.849728 -20.579379 
L 19.943325 -20.533654 
L 20.059936 -20.487929 
L 20.202823 -20.442204 
L 20.375142 -20.396479 
L 20.579734 -20.350754 
L 20.818887 -20.305029 
L 21.094097 -20.259304 
L 21.405828 -20.21358 
L 21.753301 -20.167855 
L 22.13434 -20.12213 
L 22.545289 -20.076405 
L 22.981023 -20.03068 
L 23.435071 -19.984955 
L 23.89985 -19.93923 
L 24.367006 -19.893505 
L 24.82785 -19.847781 
L 25.273843 -19.802056 
L 25.697116 -19.756331 
L 26.090957 -19.710606 
L 26.450227 -19.664881 
L 26.771668 -19.619156 
L 27.054049 -19.573431 
L 27.298143 -19.527706 
L 27.506527 -19.481982 
L 27.683201 -19.436257 
L 27.833083 -19.390532 
L 27.961404 -19.344807 
L 28.073067 -19.299082 
L 28.17204 -19.253357 
L 28.260835 -19.207632 
L 28.340134 -19.161907 
L 28.408598 -19.116183 
L 28.462889 -19.070458 
L 28.497891 -19.024733 
L 28.507133 -18.979008 
L 28.483355 -18.933283 
L 28.41917 -18.887558 
L 28.307766 -18.841833 
L 28.143575 -18.796108 
L 27.922843 -18.750384 
L 27.644065 -18.704659 
L 27.308232 -18.658934 
L 26.918881 -18.613209 
L 26.48195 -18.567484 
L 26.005452 -18.521759 
L 25.499011 -18.476034 
L 24.973294 -18.43031 
L 24.439407 -18.384585 
L 23.908286 -18.33886 
L 23.390152 -18.293135 
L 22.894054 -18.24741 
L 22.427521 -18.201685 
L 21.996356 -18.15596 
L 21.604549 -18.110235 
z
" style="stroke: #7c7c7c; stroke-width: 0.15"/>
    </defs>
    <g clip-path="url(#p826db967bd)">
     <use xlink:href="#m24c6137d30" x="0" y="84.96" style="fill: #cfcfcf; stroke: #7c7c7c; stroke-width: 0.15"/>
    </g>
   </g>
   <g id="PolyCollection_2">
    <defs>
     <path id="m5806567e51" d="M 43.494387 -17.701323 
L 40.413655 -17.701323 
L 40.089152 -17.734418 
L 39.723929 -17.767514 
L 39.319638 -17.800609 
L 38.879667 -17.833705 
L 38.409224 -17.866801 
L 37.915305 -17.899896 
L 37.406527 -17.932992 
L 36.89283 -17.966087 
L 36.38504 -17.999183 
L 35.894333 -18.032278 
L 35.431609 -18.065374 
L 35.006838 -18.098469 
L 34.628429 -18.131565 
L 34.302673 -18.16466 
L 34.033302 -18.197756 
L 33.821236 -18.230851 
L 33.664518 -18.263947 
L 33.558465 -18.297042 
L 33.496028 -18.330138 
L 33.468334 -18.363233 
L 33.465357 -18.396329 
L 33.476679 -18.429424 
L 33.492275 -18.46252 
L 33.503244 -18.495615 
L 33.502452 -18.528711 
L 33.485028 -18.561806 
L 33.448679 -18.594902 
L 33.393821 -18.627997 
L 33.323507 -18.661093 
L 33.243188 -18.694188 
L 33.16031 -18.727284 
L 33.083803 -18.760379 
L 33.023486 -18.793475 
L 32.989429 -18.826571 
L 32.991321 -18.859666 
L 33.037867 -18.892762 
L 33.136263 -18.925857 
L 33.291754 -18.958953 
L 33.507323 -18.992048 
L 33.783505 -19.025144 
L 34.118341 -19.058239 
L 34.507484 -19.091335 
L 34.944425 -19.12443 
L 35.420847 -19.157526 
L 35.927068 -19.190621 
L 36.452544 -19.223717 
L 36.986407 -19.256812 
L 37.517987 -19.289908 
L 38.037297 -19.323003 
L 38.535442 -19.356099 
L 39.004933 -19.389194 
L 39.439893 -19.42229 
L 39.836142 -19.455385 
L 40.191181 -19.488481 
L 40.504074 -19.521576 
L 40.775256 -19.554672 
L 41.006279 -19.587767 
L 41.199536 -19.620863 
L 41.357971 -19.653958 
L 41.484806 -19.687054 
L 41.583287 -19.72015 
L 41.656479 -19.753245 
L 41.707104 -19.786341 
L 41.737432 -19.819436 
L 41.749216 -19.852532 
L 41.743687 -19.885627 
L 41.721588 -19.918723 
L 41.683246 -19.951818 
L 41.628691 -19.984914 
L 41.557791 -20.018009 
L 41.470416 -20.051105 
L 41.366607 -20.0842 
L 41.246752 -20.117296 
L 41.111746 -20.150391 
L 40.963122 -20.183487 
L 40.803145 -20.216582 
L 40.634861 -20.249678 
L 40.46207 -20.282773 
L 40.289246 -20.315869 
L 40.121385 -20.348964 
L 39.963787 -20.38206 
L 39.821799 -20.415155 
L 39.700521 -20.448251 
L 39.604512 -20.481346 
L 39.537501 -20.514442 
L 39.502155 -20.547537 
L 39.499901 -20.580633 
L 39.530831 -20.613728 
L 39.593697 -20.646824 
L 39.685994 -20.67992 
L 39.804126 -20.713015 
L 39.943639 -20.746111 
L 40.099497 -20.779206 
L 40.266386 -20.812302 
L 40.439005 -20.845397 
L 40.612343 -20.878493 
L 40.781902 -20.911588 
L 40.943867 -20.944684 
L 41.095214 -20.977779 
L 42.812827 -20.977779 
L 42.812827 -20.977779 
L 42.964174 -20.944684 
L 43.126139 -20.911588 
L 43.295698 -20.878493 
L 43.469036 -20.845397 
L 43.641656 -20.812302 
L 43.808544 -20.779206 
L 43.964402 -20.746111 
L 44.103915 -20.713015 
L 44.222047 -20.67992 
L 44.314344 -20.646824 
L 44.37721 -20.613728 
L 44.40814 -20.580633 
L 44.405886 -20.547537 
L 44.37054 -20.514442 
L 44.303529 -20.481346 
L 44.20752 -20.448251 
L 44.086243 -20.415155 
L 43.944255 -20.38206 
L 43.786656 -20.348964 
L 43.618795 -20.315869 
L 43.445972 -20.282773 
L 43.273181 -20.249678 
L 43.104896 -20.216582 
L 42.94492 -20.183487 
L 42.796295 -20.150391 
L 42.661289 -20.117296 
L 42.541434 -20.0842 
L 42.437625 -20.051105 
L 42.35025 -20.018009 
L 42.27935 -19.984914 
L 42.224795 -19.951818 
L 42.186454 -19.918723 
L 42.164354 -19.885627 
L 42.158825 -19.852532 
L 42.170609 -19.819436 
L 42.200937 -19.786341 
L 42.251562 -19.753245 
L 42.324754 -19.72015 
L 42.423235 -19.687054 
L 42.55007 -19.653958 
L 42.708506 -19.620863 
L 42.901763 -19.587767 
L 43.132785 -19.554672 
L 43.403967 -19.521576 
L 43.71686 -19.488481 
L 44.0719 -19.455385 
L 44.468148 -19.42229 
L 44.903108 -19.389194 
L 45.372599 -19.356099 
L 45.870745 -19.323003 
L 46.390054 -19.289908 
L 46.921634 -19.256812 
L 47.455497 -19.223717 
L 47.980973 -19.190621 
L 48.487194 -19.157526 
L 48.963616 -19.12443 
L 49.400557 -19.091335 
L 49.7897 -19.058239 
L 50.124537 -19.025144 
L 50.400718 -18.992048 
L 50.616287 -18.958953 
L 50.771778 -18.925857 
L 50.870174 -18.892762 
L 50.91672 -18.859666 
L 50.918612 -18.826571 
L 50.884555 -18.793475 
L 50.824238 -18.760379 
L 50.747732 -18.727284 
L 50.664853 -18.694188 
L 50.584534 -18.661093 
L 50.51422 -18.627997 
L 50.459362 -18.594902 
L 50.423014 -18.561806 
L 50.405589 -18.528711 
L 50.404797 -18.495615 
L 50.415766 -18.46252 
L 50.431362 -18.429424 
L 50.442685 -18.396329 
L 50.439707 -18.363233 
L 50.412013 -18.330138 
L 50.349577 -18.297042 
L 50.243523 -18.263947 
L 50.086805 -18.230851 
L 49.874739 -18.197756 
L 49.605369 -18.16466 
L 49.279612 -18.131565 
L 48.901204 -18.098469 
L 48.476433 -18.065374 
L 48.013708 -18.032278 
L 47.523001 -17.999183 
L 47.015212 -17.966087 
L 46.501514 -17.932992 
L 45.992736 -17.899896 
L 45.498817 -17.866801 
L 45.028374 -17.833705 
L 44.588404 -17.800609 
L 44.184112 -17.767514 
L 43.81889 -17.734418 
L 43.494387 -17.701323 
z
" style="stroke: #7c7c7c; stroke-width: 0.15"/>
    </defs>
    <g clip-path="url(#p826db967bd)">
     <use xlink:href="#m5806567e51" x="0" y="84.96" style="fill: #f3f3ae; stroke: #7c7c7c; stroke-width: 0.15"/>
    </g>
   </g>
   <g id="line2d_7">
    <path d="M 19.542542 66.267075 
L 19.542542 65.31104 
" clip-path="url(#p826db967bd)" style="fill: none; stroke: #8c8c8c; stroke-width: 0.75; stroke-linecap: round"/>
   </g>
   <g id="line2d_8">
    <path d="M 19.542542 66.221104 
L 19.542542 65.342591 
" clip-path="url(#p826db967bd)" style="fill: none; stroke: #8c8c8c; stroke-width: 4; stroke-linecap: round"/>
   </g>
   <g id="line2d_9">
    <path d="M 19.542542 65.690632 
" clip-path="url(#p826db967bd)" style="fill: none; stroke: #7c7c7c; stroke-width: 1.2; stroke-linecap: round"/>
    <defs>
     <path id="ma26edbc4e5" d="M 0 0.833333 
C 0.221003 0.833333 0.432983 0.745528 0.589256 0.589256 
C 0.745528 0.432983 0.833333 0.221003 0.833333 0 
C 0.833333 -0.221003 0.745528 -0.432983 0.589256 -0.589256 
C 0.432983 -0.745528 0.221003 -0.833333 0 -0.833333 
C -0.221003 -0.833333 -0.432983 -0.745528 -0.589256 -0.589256 
C -0.745528 -0.432983 -0.833333 -0.221003 -0.833333 0 
C -0.833333 0.221003 -0.745528 0.432983 -0.589256 0.589256 
C -0.432983 0.745528 -0.221003 0.833333 0 0.833333 
z
" style="stroke: #ffffff; stroke-width: 0.8"/>
    </defs>
    <g clip-path="url(#p826db967bd)">
     <use xlink:href="#ma26edbc4e5" x="19.542542" y="65.690632" style="fill: #ffffff; stroke: #ffffff; stroke-width: 0.8"/>
    </g>
   </g>
   <g id="line2d_10">
    <path d="M 41.954021 66.847221 
L 41.954021 65.897218 
" clip-path="url(#p826db967bd)" style="fill: none; stroke: #8c8c8c; stroke-width: 0.75; stroke-linecap: round"/>
   </g>
   <g id="line2d_11">
    <path d="M 41.954021 66.676358 
L 41.954021 65.906192 
" clip-path="url(#p826db967bd)" style="fill: none; stroke: #8c8c8c; stroke-width: 4; stroke-linecap: round"/>
   </g>
   <g id="line2d_12">
    <path d="M 41.954021 66.203305 
" clip-path="url(#p826db967bd)" style="fill: none; stroke: #7c7c7c; stroke-width: 1.2; stroke-linecap: round"/>
    <g clip-path="url(#p826db967bd)">
     <use xlink:href="#ma26edbc4e5" x="41.954021" y="66.203305" style="fill: #ffffff; stroke: #ffffff; stroke-width: 0.8"/>
    </g>
   </g>
   <g id="patch_3">
    <path d="M 8.336802 74.419526 
L 8.336802 4.076256 
" style="fill: none; stroke: #777777; stroke-width: 0.5; stroke-linejoin: miter; stroke-linecap: square"/>
   </g>
   <g id="patch_4">
    <path d="M 8.336802 76.919526 
L 53.15976 76.919526 
" style="fill: none; stroke: #777777; stroke-width: 0.5; stroke-linejoin: miter; stroke-linecap: square"/>
   </g>
  </g>
 </g>
 <defs>
  <clipPath id="p826db967bd">
   <rect x="8.336802" y="4.076256" width="44.822958" height="70.34327"/>
  </clipPath>
 </defs>
</svg>
