<?xml version="1.0" encoding="utf-8" standalone="no"?>
<!DOCTYPE svg PUBLIC "-//W3C//DTD SVG 1.1//EN"
  "http://www.w3.org/Graphics/SVG/1.1/DTD/svg11.dtd">
<svg xmlns:xlink="http://www.w3.org/1999/xlink" width="84.96pt" height="84.96pt" viewBox="0 0 84.96 84.96" xmlns="http://www.w3.org/2000/svg" version="1.1">
 <metadata>
  <rdf:RDF xmlns:dc="http://purl.org/dc/elements/1.1/" xmlns:cc="http://creativecommons.org/ns#" xmlns:rdf="http://www.w3.org/1999/02/22-rdf-syntax-ns#">
   <cc:Work>
    <dc:type rdf:resource="http://purl.org/dc/dcmitype/StillImage"/>
    <dc:date>2024-05-27T15:37:12.816707</dc:date>
    <dc:format>image/svg+xml</dc:format>
    <dc:creator>
     <cc:Agent>
      <dc:title>Matplotlib v3.8.3, https://matplotlib.org/</dc:title>
     </cc:Agent>
    </dc:creator>
   </cc:Work>
  </rdf:RDF>
 </metadata>
 <defs>
  <style type="text/css">*{stroke-linejoin: round; stroke-linecap: butt}</style>
 </defs>
 <g id="figure_1">
  <g id="patch_1">
   <path d="M 0 84.96 
L 84.96 84.96 
L 84.96 0 
L 0 0 
z
" style="fill: #ffffff"/>
  </g>
  <g id="axes_1">
   <g id="patch_2">
    <path d="M 10.005084 74.419526 
L 81.95976 74.419526 
L 81.95976 4.076256 
L 10.005084 4.076256 
z
" style="fill: #ffffff"/>
   </g>
   <g id="matplotlib.axis_1">
    <g id="xtick_1">
     <g id="text_1">
      <!-- CD3+ Cells -->
      <g style="fill: #333333" transform="translate(13.09878 81.230229) scale(0.035 -0.035)">
       <defs>
        <path id="Helvetica-43" d="M 2422 4716 
Q 3294 4716 3775 4256 
Q 4256 3797 4309 3213 
L 3703 3213 
Q 3600 3656 3292 3915 
Q 2984 4175 2428 4175 
Q 1750 4175 1333 3698 
Q 916 3222 916 2238 
Q 916 1431 1292 929 
Q 1669 428 2416 428 
Q 3103 428 3463 956 
Q 3653 1234 3747 1688 
L 4353 1688 
Q 4272 963 3816 472 
Q 3269 -119 2341 -119 
Q 1541 -119 997 366 
Q 281 1006 281 2344 
Q 281 3359 819 4009 
Q 1400 4716 2422 4716 
z
M 2297 4716 
L 2297 4716 
z
" transform="scale(0.015625)"/>
        <path id="Helvetica-44" d="M 2250 531 
Q 2566 531 2769 597 
Q 3131 719 3363 1066 
Q 3547 1344 3628 1778 
Q 3675 2038 3675 2259 
Q 3675 3113 3336 3584 
Q 2997 4056 2244 4056 
L 1141 4056 
L 1141 531 
L 2250 531 
z
M 516 4591 
L 2375 4591 
Q 3322 4591 3844 3919 
Q 4309 3313 4309 2366 
Q 4309 1634 4034 1044 
Q 3550 0 2369 0 
L 516 0 
L 516 4591 
z
" transform="scale(0.015625)"/>
        <path id="Helvetica-33" d="M 1663 -122 
Q 869 -122 511 314 
Q 153 750 153 1375 
L 741 1375 
Q 778 941 903 744 
Q 1122 391 1694 391 
Q 2138 391 2406 628 
Q 2675 866 2675 1241 
Q 2675 1703 2392 1887 
Q 2109 2072 1606 2072 
Q 1550 2072 1492 2070 
Q 1434 2069 1375 2066 
L 1375 2563 
Q 1463 2553 1522 2550 
Q 1581 2547 1650 2547 
Q 1966 2547 2169 2647 
Q 2525 2822 2525 3272 
Q 2525 3606 2287 3787 
Q 2050 3969 1734 3969 
Q 1172 3969 956 3594 
Q 838 3388 822 3006 
L 266 3006 
Q 266 3506 466 3856 
Q 809 4481 1675 4481 
Q 2359 4481 2734 4176 
Q 3109 3872 3109 3294 
Q 3109 2881 2888 2625 
Q 2750 2466 2531 2375 
Q 2884 2278 3082 2001 
Q 3281 1725 3281 1325 
Q 3281 684 2859 281 
Q 2438 -122 1663 -122 
z
" transform="scale(0.015625)"/>
        <path id="Helvetica-2b" d="M 288 1369 
L 288 1894 
L 1650 1894 
L 1650 3266 
L 2184 3266 
L 2184 1894 
L 3547 1894 
L 3547 1369 
L 2184 1369 
L 2184 0 
L 1650 0 
L 1650 1369 
L 288 1369 
z
" transform="scale(0.015625)"/>
        <path id="Helvetica-20" transform="scale(0.015625)"/>
        <path id="Helvetica-65" d="M 1806 3422 
Q 2163 3422 2497 3255 
Q 2831 3088 3006 2822 
Q 3175 2569 3231 2231 
Q 3281 2000 3281 1494 
L 828 1494 
Q 844 984 1069 676 
Q 1294 369 1766 369 
Q 2206 369 2469 659 
Q 2619 828 2681 1050 
L 3234 1050 
Q 3213 866 3089 639 
Q 2966 413 2813 269 
Q 2556 19 2178 -69 
Q 1975 -119 1719 -119 
Q 1094 -119 659 336 
Q 225 791 225 1609 
Q 225 2416 662 2919 
Q 1100 3422 1806 3422 
z
M 2703 1941 
Q 2669 2306 2544 2525 
Q 2313 2931 1772 2931 
Q 1384 2931 1121 2651 
Q 859 2372 844 1941 
L 2703 1941 
z
M 1753 3428 
L 1753 3428 
z
" transform="scale(0.015625)"/>
        <path id="Helvetica-6c" d="M 428 4591 
L 991 4591 
L 991 0 
L 428 0 
L 428 4591 
z
" transform="scale(0.015625)"/>
        <path id="Helvetica-73" d="M 747 1050 
Q 772 769 888 619 
Q 1100 347 1625 347 
Q 1938 347 2175 483 
Q 2413 619 2413 903 
Q 2413 1119 2222 1231 
Q 2100 1300 1741 1391 
L 1294 1503 
Q 866 1609 663 1741 
Q 300 1969 300 2372 
Q 300 2847 642 3140 
Q 984 3434 1563 3434 
Q 2319 3434 2653 2991 
Q 2863 2709 2856 2384 
L 2325 2384 
Q 2309 2575 2191 2731 
Q 1997 2953 1519 2953 
Q 1200 2953 1036 2831 
Q 872 2709 872 2509 
Q 872 2291 1088 2159 
Q 1213 2081 1456 2022 
L 1828 1931 
Q 2434 1784 2641 1647 
Q 2969 1431 2969 969 
Q 2969 522 2630 197 
Q 2291 -128 1597 -128 
Q 850 -128 539 211 
Q 228 550 206 1050 
L 747 1050 
z
M 1578 3428 
L 1578 3428 
z
" transform="scale(0.015625)"/>
       </defs>
       <use xlink:href="#Helvetica-43"/>
       <use xlink:href="#Helvetica-44" x="72.216797"/>
       <use xlink:href="#Helvetica-33" x="144.433594"/>
       <use xlink:href="#Helvetica-2b" x="200.048828"/>
       <use xlink:href="#Helvetica-20" x="258.447266"/>
       <use xlink:href="#Helvetica-43" x="286.230469"/>
       <use xlink:href="#Helvetica-65" x="358.447266"/>
       <use xlink:href="#Helvetica-6c" x="414.0625"/>
       <use xlink:href="#Helvetica-6c" x="436.279297"/>
       <use xlink:href="#Helvetica-73" x="458.496094"/>
      </g>
     </g>
    </g>
    <g id="xtick_2">
     <g id="text_2">
      <!-- TCRαδ+ Cells -->
      <g style="fill: #333333" transform="translate(34.850234 81.230229) scale(0.035 -0.035)">
       <defs>
        <path id="Helvetica-54" d="M 3828 4591 
L 3828 4044 
L 2281 4044 
L 2281 0 
L 1650 0 
L 1650 4044 
L 103 4044 
L 103 4591 
L 3828 4591 
z
" transform="scale(0.015625)"/>
        <path id="Helvetica-52" d="M 2622 2488 
Q 3059 2488 3314 2663 
Q 3569 2838 3569 3294 
Q 3569 3784 3213 3963 
Q 3022 4056 2703 4056 
L 1184 4056 
L 1184 2488 
L 2622 2488 
z
M 563 4591 
L 2688 4591 
Q 3213 4591 3553 4438 
Q 4200 4144 4200 3353 
Q 4200 2941 4029 2678 
Q 3859 2416 3553 2256 
Q 3822 2147 3958 1969 
Q 4094 1791 4109 1391 
L 4131 775 
Q 4141 513 4175 384 
Q 4231 166 4375 103 
L 4375 0 
L 3613 0 
Q 3581 59 3562 153 
Q 3544 247 3531 516 
L 3494 1281 
Q 3472 1731 3159 1884 
Q 2981 1969 2600 1969 
L 1184 1969 
L 1184 0 
L 563 0 
L 563 4591 
z
" transform="scale(0.015625)"/>
        <path id="Helvetica-3b1" d="M 3347 703 
Q 3334 428 3525 434 
Q 3641 434 3700 475 
L 3700 -19 
Q 3628 -44 3513 -50 
Q 3391 -63 3309 -63 
Q 3084 -56 2956 103 
Q 2816 256 2816 475 
L 2803 475 
Q 2413 -63 1734 -63 
Q 1006 -50 647 459 
Q 281 953 281 1644 
Q 281 2350 634 2859 
Q 984 3378 1741 3391 
Q 2413 3391 2797 2847 
L 2809 2847 
L 2809 3328 
L 3347 3328 
L 3347 703 
z
M 1825 397 
Q 2075 397 2253 513 
Q 2425 622 2541 806 
Q 2766 1184 2766 1638 
Q 2766 2144 2559 2528 
Q 2350 2919 1797 2931 
Q 1306 2919 1081 2534 
Q 856 2156 856 1697 
Q 856 1209 1081 819 
Q 1306 409 1825 397 
z
" transform="scale(0.015625)"/>
        <path id="Helvetica-3b4" d="M 666 4519 
L 3188 4519 
L 3188 4056 
L 1394 4056 
L 1394 4044 
L 2509 3303 
Q 3134 2881 3372 2469 
Q 3591 2053 3584 1600 
Q 3578 934 3163 447 
Q 2738 -50 1938 -63 
Q 1203 -56 769 403 
Q 331 850 325 1556 
Q 341 3066 1863 3188 
L 1863 3200 
L 666 4056 
L 666 4519 
z
M 1991 397 
Q 2497 403 2731 794 
Q 2969 1166 2969 1606 
Q 2969 1856 2919 2041 
Q 2866 2222 2791 2344 
Q 2713 2463 2638 2541 
Q 2559 2619 2509 2650 
Q 2381 2766 2156 2766 
Q 947 2766 941 1528 
Q 941 1056 1216 738 
Q 1491 403 1991 397 
z
" transform="scale(0.015625)"/>
       </defs>
       <use xlink:href="#Helvetica-54"/>
       <use xlink:href="#Helvetica-43" x="61.083984"/>
       <use xlink:href="#Helvetica-52" x="133.300781"/>
       <use xlink:href="#Helvetica-3b1" x="205.517578"/>
       <use xlink:href="#Helvetica-3b4" x="266.601562"/>
       <use xlink:href="#Helvetica-2b" x="327.685547"/>
       <use xlink:href="#Helvetica-20" x="386.083984"/>
       <use xlink:href="#Helvetica-43" x="413.867188"/>
       <use xlink:href="#Helvetica-65" x="486.083984"/>
       <use xlink:href="#Helvetica-6c" x="541.699219"/>
       <use xlink:href="#Helvetica-6c" x="563.916016"/>
       <use xlink:href="#Helvetica-73" x="586.132812"/>
      </g>
     </g>
    </g>
    <g id="xtick_3">
     <g id="text_3">
      <!-- IL7R+ Cells -->
      <g style="fill: #333333" transform="translate(60.873056 81.230229) scale(0.035 -0.035)">
       <defs>
        <path id="Helvetica-49" d="M 628 4591 
L 1256 4591 
L 1256 0 
L 628 0 
L 628 4591 
z
" transform="scale(0.015625)"/>
        <path id="Helvetica-4c" d="M 488 4591 
L 1109 4591 
L 1109 547 
L 3434 547 
L 3434 0 
L 488 0 
L 488 4591 
z
" transform="scale(0.015625)"/>
        <path id="Helvetica-37" d="M 3347 4400 
L 3347 3909 
Q 3131 3700 2773 3181 
Q 2416 2663 2141 2063 
Q 1869 1478 1728 997 
Q 1638 688 1494 0 
L 872 0 
Q 1084 1281 1809 2550 
Q 2238 3294 2709 3834 
L 234 3834 
L 234 4400 
L 3347 4400 
z
" transform="scale(0.015625)"/>
       </defs>
       <use xlink:href="#Helvetica-49"/>
       <use xlink:href="#Helvetica-4c" x="27.783203"/>
       <use xlink:href="#Helvetica-37" x="83.398438"/>
       <use xlink:href="#Helvetica-52" x="139.013672"/>
       <use xlink:href="#Helvetica-2b" x="211.230469"/>
       <use xlink:href="#Helvetica-20" x="269.628906"/>
       <use xlink:href="#Helvetica-43" x="297.412109"/>
       <use xlink:href="#Helvetica-65" x="369.628906"/>
       <use xlink:href="#Helvetica-6c" x="425.244141"/>
       <use xlink:href="#Helvetica-6c" x="447.460938"/>
       <use xlink:href="#Helvetica-73" x="469.677734"/>
      </g>
     </g>
    </g>
   </g>
   <g id="matplotlib.axis_2">
    <g id="ytick_1">
     <g id="line2d_1">
      <defs>
       <path id="m973e0649c5" d="M 0 0 
L -1 0 
" style="stroke: #777777; stroke-width: 0.5"/>
      </defs>
      <g>
       <use xlink:href="#m973e0649c5" x="10.005084" y="66.189518" style="fill: #777777; stroke: #777777; stroke-width: 0.5"/>
      </g>
     </g>
     <g id="text_4">
      <!-- 0 -->
      <g style="fill: #333333" transform="translate(6.336803 67.265534) scale(0.03 -0.03)">
       <defs>
        <path id="Helvetica-30" d="M 1731 4475 
Q 2600 4475 2988 3759 
Q 3288 3206 3288 2244 
Q 3288 1331 3016 734 
Q 2622 -122 1728 -122 
Q 922 -122 528 578 
Q 200 1163 200 2147 
Q 200 2909 397 3456 
Q 766 4475 1731 4475 
z
M 1725 391 
Q 2163 391 2422 778 
Q 2681 1166 2681 2222 
Q 2681 2984 2493 3476 
Q 2306 3969 1766 3969 
Q 1269 3969 1039 3501 
Q 809 3034 809 2125 
Q 809 1441 956 1025 
Q 1181 391 1725 391 
z
" transform="scale(0.015625)"/>
       </defs>
       <use xlink:href="#Helvetica-30"/>
      </g>
     </g>
    </g>
    <g id="ytick_2">
     <g id="line2d_2">
      <g>
       <use xlink:href="#m973e0649c5" x="10.005084" y="55.837308" style="fill: #777777; stroke: #777777; stroke-width: 0.5"/>
      </g>
     </g>
     <g id="text_5">
      <!-- 20 -->
      <g style="fill: #333333" transform="translate(4.668521 56.913323) scale(0.03 -0.03)">
       <defs>
        <path id="Helvetica-32" d="M 200 0 
Q 231 578 439 1006 
Q 647 1434 1250 1784 
L 1850 2131 
Q 2253 2366 2416 2531 
Q 2672 2791 2672 3125 
Q 2672 3516 2437 3745 
Q 2203 3975 1813 3975 
Q 1234 3975 1013 3538 
Q 894 3303 881 2888 
L 309 2888 
Q 319 3472 525 3841 
Q 891 4491 1816 4491 
Q 2584 4491 2939 4075 
Q 3294 3659 3294 3150 
Q 3294 2613 2916 2231 
Q 2697 2009 2131 1694 
L 1703 1456 
Q 1397 1288 1222 1134 
Q 909 863 828 531 
L 3272 531 
L 3272 0 
L 200 0 
z
" transform="scale(0.015625)"/>
       </defs>
       <use xlink:href="#Helvetica-32"/>
       <use xlink:href="#Helvetica-30" x="55.615234"/>
      </g>
     </g>
    </g>
    <g id="ytick_3">
     <g id="line2d_3">
      <g>
       <use xlink:href="#m973e0649c5" x="10.005084" y="45.485097" style="fill: #777777; stroke: #777777; stroke-width: 0.5"/>
      </g>
     </g>
     <g id="text_6">
      <!-- 40 -->
      <g style="fill: #333333" transform="translate(4.668521 46.561113) scale(0.03 -0.03)">
       <defs>
        <path id="Helvetica-34" d="M 2116 1584 
L 2116 3613 
L 681 1584 
L 2116 1584 
z
M 2125 0 
L 2125 1094 
L 163 1094 
L 163 1644 
L 2213 4488 
L 2688 4488 
L 2688 1584 
L 3347 1584 
L 3347 1094 
L 2688 1094 
L 2688 0 
L 2125 0 
z
" transform="scale(0.015625)"/>
       </defs>
       <use xlink:href="#Helvetica-34"/>
       <use xlink:href="#Helvetica-30" x="55.615234"/>
      </g>
     </g>
    </g>
    <g id="ytick_4">
     <g id="line2d_4">
      <g>
       <use xlink:href="#m973e0649c5" x="10.005084" y="35.132887" style="fill: #777777; stroke: #777777; stroke-width: 0.5"/>
      </g>
     </g>
     <g id="text_7">
      <!-- 60 -->
      <g style="fill: #333333" transform="translate(4.668521 36.208903) scale(0.03 -0.03)">
       <defs>
        <path id="Helvetica-36" d="M 1872 4494 
Q 2622 4494 2917 4105 
Q 3213 3716 3213 3303 
L 2656 3303 
Q 2606 3569 2497 3719 
Q 2294 4000 1881 4000 
Q 1409 4000 1131 3564 
Q 853 3128 822 2316 
Q 1016 2600 1309 2741 
Q 1578 2866 1909 2866 
Q 2472 2866 2890 2506 
Q 3309 2147 3309 1434 
Q 3309 825 2912 354 
Q 2516 -116 1781 -116 
Q 1153 -116 697 361 
Q 241 838 241 1966 
Q 241 2800 444 3381 
Q 834 4494 1872 4494 
z
M 1831 384 
Q 2275 384 2495 682 
Q 2716 981 2716 1388 
Q 2716 1731 2519 2042 
Q 2322 2353 1803 2353 
Q 1441 2353 1167 2112 
Q 894 1872 894 1388 
Q 894 963 1142 673 
Q 1391 384 1831 384 
z
" transform="scale(0.015625)"/>
       </defs>
       <use xlink:href="#Helvetica-36"/>
       <use xlink:href="#Helvetica-30" x="55.615234"/>
      </g>
     </g>
    </g>
    <g id="ytick_5">
     <g id="line2d_5">
      <g>
       <use xlink:href="#m973e0649c5" x="10.005084" y="24.780677" style="fill: #777777; stroke: #777777; stroke-width: 0.5"/>
      </g>
     </g>
     <g id="text_8">
      <!-- 80 -->
      <g style="fill: #333333" transform="translate(4.668521 25.856692) scale(0.03 -0.03)">
       <defs>
        <path id="Helvetica-38" d="M 1741 2600 
Q 2113 2600 2322 2808 
Q 2531 3016 2531 3303 
Q 2531 3553 2331 3762 
Q 2131 3972 1722 3972 
Q 1316 3972 1134 3762 
Q 953 3553 953 3272 
Q 953 2956 1187 2778 
Q 1422 2600 1741 2600 
z
M 1775 384 
Q 2166 384 2423 595 
Q 2681 806 2681 1225 
Q 2681 1659 2415 1884 
Q 2150 2109 1734 2109 
Q 1331 2109 1076 1879 
Q 822 1650 822 1244 
Q 822 894 1055 639 
Q 1288 384 1775 384 
z
M 975 2384 
Q 741 2484 609 2619 
Q 363 2869 363 3269 
Q 363 3769 725 4128 
Q 1088 4488 1753 4488 
Q 2397 4488 2762 4148 
Q 3128 3809 3128 3356 
Q 3128 2938 2916 2678 
Q 2797 2531 2547 2391 
Q 2825 2263 2984 2097 
Q 3281 1784 3281 1284 
Q 3281 694 2884 283 
Q 2488 -128 1763 -128 
Q 1109 -128 657 226 
Q 206 581 206 1256 
Q 206 1653 400 1942 
Q 594 2231 975 2384 
z
" transform="scale(0.015625)"/>
       </defs>
       <use xlink:href="#Helvetica-38"/>
       <use xlink:href="#Helvetica-30" x="55.615234"/>
      </g>
     </g>
    </g>
    <g id="ytick_6">
     <g id="line2d_6">
      <g>
       <use xlink:href="#m973e0649c5" x="10.005084" y="14.428466" style="fill: #777777; stroke: #777777; stroke-width: 0.5"/>
      </g>
     </g>
     <g id="text_9">
      <!-- 100 -->
      <g style="fill: #333333" transform="translate(3.00024 15.504482) scale(0.03 -0.03)">
       <defs>
        <path id="Helvetica-31" d="M 613 3169 
L 613 3600 
Q 1222 3659 1462 3798 
Q 1703 3938 1822 4456 
L 2266 4456 
L 2266 0 
L 1666 0 
L 1666 3169 
L 613 3169 
z
" transform="scale(0.015625)"/>
       </defs>
       <use xlink:href="#Helvetica-31"/>
       <use xlink:href="#Helvetica-30" x="55.615234"/>
       <use xlink:href="#Helvetica-30" x="111.230469"/>
      </g>
     </g>
    </g>
    <g id="ytick_7">
     <g id="line2d_7">
      <g>
       <use xlink:href="#m973e0649c5" x="10.005084" y="4.076256" style="fill: #777777; stroke: #777777; stroke-width: 0.5"/>
      </g>
     </g>
     <g id="text_10">
      <!-- 120 -->
      <g style="fill: #333333" transform="translate(3.00024 5.152271) scale(0.03 -0.03)">
       <use xlink:href="#Helvetica-31"/>
       <use xlink:href="#Helvetica-32" x="55.615234"/>
       <use xlink:href="#Helvetica-30" x="111.230469"/>
      </g>
     </g>
    </g>
   </g>
   <g id="PolyCollection_1">
    <defs>
     <path id="mfcdb7c1adb" d="M 23.410828 -19.484928 
L 20.584231 -19.484928 
L 20.310772 -19.676558 
L 20.003706 -19.868188 
L 19.663041 -20.059818 
L 19.289666 -20.251448 
L 18.885428 -20.443078 
L 18.45317 -20.634708 
L 17.996729 -20.826338 
L 17.520892 -21.017968 
L 17.031301 -21.209598 
L 16.534324 -21.401228 
L 16.036887 -21.592858 
L 15.546269 -21.784488 
L 15.069892 -21.976118 
L 14.615088 -22.167748 
L 14.188875 -22.359378 
L 13.797747 -22.551008 
L 13.447475 -22.742638 
L 13.142952 -22.934268 
L 12.888062 -23.125898 
L 12.685595 -23.317528 
L 12.537203 -23.509158 
L 12.443394 -23.700788 
L 12.403573 -23.892418 
L 12.416113 -24.084048 
L 12.478458 -24.275678 
L 12.587256 -24.467308 
L 12.738499 -24.658938 
L 12.927681 -24.850568 
L 13.149951 -25.042198 
L 13.400258 -25.233828 
L 13.673481 -25.425458 
L 13.964536 -25.617088 
L 14.268464 -25.808718 
L 14.580483 -26.000348 
L 14.896025 -26.191978 
L 15.210751 -26.383608 
L 15.520547 -26.575238 
L 15.821526 -26.766868 
L 16.110023 -26.958498 
L 16.38261 -27.150128 
L 16.636119 -27.341758 
L 16.867691 -27.533388 
L 17.074839 -27.725018 
L 17.255531 -27.916648 
L 17.408273 -28.108278 
L 17.532192 -28.299908 
L 17.627112 -28.491537 
L 17.693596 -28.683167 
L 17.732968 -28.874797 
L 17.74729 -29.066427 
L 17.739304 -29.258057 
L 17.712338 -29.449687 
L 17.670179 -29.641317 
L 17.616923 -29.832947 
L 17.556816 -30.024577 
L 17.494086 -30.216207 
L 17.432787 -30.407837 
L 17.376653 -30.599467 
L 17.328981 -30.791097 
L 17.292526 -30.982727 
L 17.269433 -31.174357 
L 17.261181 -31.365987 
L 17.268568 -31.557617 
L 17.291702 -31.749247 
L 17.330023 -31.940877 
L 17.382351 -32.132507 
L 17.44695 -32.324137 
L 17.521622 -32.515767 
L 17.603823 -32.707397 
L 17.690805 -32.899027 
L 17.779774 -33.090657 
L 17.868062 -33.282287 
L 17.953306 -33.473917 
L 18.033612 -33.665547 
L 18.1077 -33.857177 
L 18.175014 -34.048807 
L 18.235785 -34.240437 
L 18.29104 -34.432067 
L 18.342541 -34.623697 
L 18.39268 -34.815327 
L 18.444305 -35.006957 
L 18.500522 -35.198587 
L 18.564455 -35.390217 
L 18.639015 -35.581847 
L 18.726673 -35.773477 
L 18.829272 -35.965107 
L 18.947881 -36.156737 
L 19.082713 -36.348367 
L 19.233104 -36.539997 
L 19.397556 -36.731627 
L 19.573835 -36.923257 
L 19.759124 -37.114887 
L 19.950196 -37.306517 
L 20.143613 -37.498147 
L 20.33592 -37.689777 
L 20.523829 -37.881407 
L 20.70437 -38.073037 
L 20.875014 -38.264667 
L 21.033755 -38.456297 
L 22.961304 -38.456297 
L 22.961304 -38.456297 
L 23.120045 -38.264667 
L 23.29069 -38.073037 
L 23.471231 -37.881407 
L 23.659139 -37.689777 
L 23.851446 -37.498147 
L 24.044863 -37.306517 
L 24.235935 -37.114887 
L 24.421224 -36.923257 
L 24.597504 -36.731627 
L 24.761955 -36.539997 
L 24.912346 -36.348367 
L 25.047179 -36.156737 
L 25.165788 -35.965107 
L 25.268387 -35.773477 
L 25.356045 -35.581847 
L 25.430605 -35.390217 
L 25.494538 -35.198587 
L 25.550754 -35.006957 
L 25.60238 -34.815327 
L 25.652518 -34.623697 
L 25.70402 -34.432067 
L 25.759274 -34.240437 
L 25.820046 -34.048807 
L 25.88736 -33.857177 
L 25.961448 -33.665547 
L 26.041753 -33.473917 
L 26.126998 -33.282287 
L 26.215286 -33.090657 
L 26.304255 -32.899027 
L 26.391236 -32.707397 
L 26.473437 -32.515767 
L 26.548109 -32.324137 
L 26.612708 -32.132507 
L 26.665036 -31.940877 
L 26.703358 -31.749247 
L 26.726491 -31.557617 
L 26.733878 -31.365987 
L 26.725627 -31.174357 
L 26.702533 -30.982727 
L 26.666079 -30.791097 
L 26.618406 -30.599467 
L 26.562273 -30.407837 
L 26.500973 -30.216207 
L 26.438243 -30.024577 
L 26.378136 -29.832947 
L 26.324881 -29.641317 
L 26.282721 -29.449687 
L 26.255755 -29.258057 
L 26.247769 -29.066427 
L 26.262091 -28.874797 
L 26.301463 -28.683167 
L 26.367948 -28.491537 
L 26.462867 -28.299908 
L 26.586787 -28.108278 
L 26.739528 -27.916648 
L 26.920221 -27.725018 
L 27.127369 -27.533388 
L 27.358941 -27.341758 
L 27.612449 -27.150128 
L 27.885036 -26.958498 
L 28.173534 -26.766868 
L 28.474512 -26.575238 
L 28.784309 -26.383608 
L 29.099034 -26.191978 
L 29.414577 -26.000348 
L 29.726596 -25.808718 
L 30.030523 -25.617088 
L 30.321579 -25.425458 
L 30.594801 -25.233828 
L 30.845108 -25.042198 
L 31.067379 -24.850568 
L 31.256561 -24.658938 
L 31.407804 -24.467308 
L 31.516602 -24.275678 
L 31.578947 -24.084048 
L 31.591487 -23.892418 
L 31.551666 -23.700788 
L 31.457857 -23.509158 
L 31.309464 -23.317528 
L 31.106997 -23.125898 
L 30.852107 -22.934268 
L 30.547584 -22.742638 
L 30.197313 -22.551008 
L 29.806184 -22.359378 
L 29.379972 -22.167748 
L 28.925168 -21.976118 
L 28.448791 -21.784488 
L 27.958173 -21.592858 
L 27.460735 -21.401228 
L 26.963759 -21.209598 
L 26.474168 -21.017968 
L 25.99833 -20.826338 
L 25.54189 -20.634708 
L 25.109632 -20.443078 
L 24.705394 -20.251448 
L 24.332019 -20.059818 
L 23.991354 -19.868188 
L 23.684288 -19.676558 
L 23.410828 -19.484928 
z
" style="stroke: #6f6f6f; stroke-width: 0.15"/>
    </defs>
    <g clip-path="url(#p25c5a2f74c)">
     <use xlink:href="#mfcdb7c1adb" x="0" y="84.96" style="fill: #abc9ea; stroke: #6f6f6f; stroke-width: 0.15"/>
    </g>
   </g>
   <g id="PolyCollection_2">
    <defs>
     <path id="ma5c9d24535" d="M 47.747647 -17.724021 
L 44.217196 -17.724021 
L 43.883226 -18.110587 
L 43.51714 -18.497154 
L 43.122999 -18.88372 
L 42.706529 -19.270287 
L 42.275049 -19.656853 
L 41.837284 -20.043419 
L 41.403056 -20.429986 
L 40.982873 -20.816552 
L 40.587424 -21.203119 
L 40.227019 -21.589685 
L 39.911 -21.976251 
L 39.647167 -22.362818 
L 39.44125 -22.749384 
L 39.296485 -23.135951 
L 39.213295 -23.522517 
L 39.189128 -23.909083 
L 39.218454 -24.29565 
L 39.292925 -24.682216 
L 39.401707 -25.068783 
L 39.531957 -25.455349 
L 39.669438 -25.841915 
L 39.799237 -26.228482 
L 39.90656 -26.615048 
L 39.97756 -27.001615 
L 40.000163 -27.388181 
L 39.964847 -27.774747 
L 39.865314 -28.161314 
L 39.699031 -28.54788 
L 39.467578 -28.934447 
L 39.176778 -29.321013 
L 38.836578 -29.707579 
L 38.460671 -30.094146 
L 38.065875 -30.480712 
L 37.671277 -30.867279 
L 37.297203 -31.253845 
L 36.964075 -31.640411 
L 36.691229 -32.026978 
L 36.495771 -32.413544 
L 36.391572 -32.800111 
L 36.388465 -33.186677 
L 36.491704 -33.573243 
L 36.701731 -33.95981 
L 37.014256 -34.346376 
L 37.420646 -34.732943 
L 37.908566 -35.119509 
L 38.462834 -35.506076 
L 39.066396 -35.892642 
L 39.701357 -36.279208 
L 40.34997 -36.665775 
L 40.995528 -37.052341 
L 41.623104 -37.438908 
L 42.220082 -37.825474 
L 42.776493 -38.21204 
L 43.285133 -38.598607 
L 43.741493 -38.985173 
L 44.143538 -39.37174 
L 44.491366 -39.758306 
L 44.78679 -40.144872 
L 45.032893 -40.531439 
L 45.233584 -40.918005 
L 45.39319 -41.304572 
L 45.516097 -41.691138 
L 45.60647 -42.077704 
L 45.668041 -42.464271 
L 45.703977 -42.850837 
L 45.716822 -43.237404 
L 45.708502 -43.62397 
L 45.680389 -44.010536 
L 45.633412 -44.397103 
L 45.568204 -44.783669 
L 45.485275 -45.170236 
L 45.385195 -45.556802 
L 45.268777 -45.943368 
L 45.137248 -46.329935 
L 44.992387 -46.716501 
L 44.836622 -47.103068 
L 44.673083 -47.489634 
L 44.50558 -47.8762 
L 44.338524 -48.262767 
L 44.176784 -48.649333 
L 44.025481 -49.0359 
L 43.88974 -49.422466 
L 43.774417 -49.809032 
L 43.683817 -50.195599 
L 43.621433 -50.582165 
L 43.589725 -50.968732 
L 43.58996 -51.355298 
L 43.622131 -51.741864 
L 43.684955 -52.128431 
L 43.775963 -52.514997 
L 43.891657 -52.901564 
L 44.027734 -53.28813 
L 44.179352 -53.674696 
L 44.341415 -54.061263 
L 44.50885 -54.447829 
L 44.676868 -54.834396 
L 44.841171 -55.220962 
L 44.998115 -55.607528 
L 45.144811 -55.994095 
L 46.820033 -55.994095 
L 46.820033 -55.994095 
L 46.966729 -55.607528 
L 47.123673 -55.220962 
L 47.287976 -54.834396 
L 47.455994 -54.447829 
L 47.623429 -54.061263 
L 47.785492 -53.674696 
L 47.93711 -53.28813 
L 48.073187 -52.901564 
L 48.18888 -52.514997 
L 48.279888 -52.128431 
L 48.342713 -51.741864 
L 48.374884 -51.355298 
L 48.375119 -50.968732 
L 48.343411 -50.582165 
L 48.281027 -50.195599 
L 48.190427 -49.809032 
L 48.075104 -49.422466 
L 47.939363 -49.0359 
L 47.78806 -48.649333 
L 47.626319 -48.262767 
L 47.459264 -47.8762 
L 47.291761 -47.489634 
L 47.128222 -47.103068 
L 46.972457 -46.716501 
L 46.827596 -46.329935 
L 46.696067 -45.943368 
L 46.579649 -45.556802 
L 46.479569 -45.170236 
L 46.39664 -44.783669 
L 46.331432 -44.397103 
L 46.284455 -44.010536 
L 46.256341 -43.62397 
L 46.248021 -43.237404 
L 46.260867 -42.850837 
L 46.296803 -42.464271 
L 46.358374 -42.077704 
L 46.448746 -41.691138 
L 46.571654 -41.304572 
L 46.731259 -40.918005 
L 46.931951 -40.531439 
L 47.178054 -40.144872 
L 47.473478 -39.758306 
L 47.821305 -39.37174 
L 48.223351 -38.985173 
L 48.679711 -38.598607 
L 49.18835 -38.21204 
L 49.744762 -37.825474 
L 50.34174 -37.438908 
L 50.969316 -37.052341 
L 51.614874 -36.665775 
L 52.263486 -36.279208 
L 52.898447 -35.892642 
L 53.50201 -35.506076 
L 54.056278 -35.119509 
L 54.544198 -34.732943 
L 54.950588 -34.346376 
L 55.263113 -33.95981 
L 55.47314 -33.573243 
L 55.576379 -33.186677 
L 55.573272 -32.800111 
L 55.469073 -32.413544 
L 55.273615 -32.026978 
L 55.000768 -31.640411 
L 54.667641 -31.253845 
L 54.293567 -30.867279 
L 53.898969 -30.480712 
L 53.504173 -30.094146 
L 53.128266 -29.707579 
L 52.788065 -29.321013 
L 52.497265 -28.934447 
L 52.265812 -28.54788 
L 52.099529 -28.161314 
L 51.999997 -27.774747 
L 51.96468 -27.388181 
L 51.987284 -27.001615 
L 52.058284 -26.615048 
L 52.165607 -26.228482 
L 52.295406 -25.841915 
L 52.432887 -25.455349 
L 52.563137 -25.068783 
L 52.671919 -24.682216 
L 52.74639 -24.29565 
L 52.775716 -23.909083 
L 52.751549 -23.522517 
L 52.668359 -23.135951 
L 52.523593 -22.749384 
L 52.317677 -22.362818 
L 52.053843 -21.976251 
L 51.737825 -21.589685 
L 51.37742 -21.203119 
L 50.981971 -20.816552 
L 50.561787 -20.429986 
L 50.127559 -20.043419 
L 49.689795 -19.656853 
L 49.258315 -19.270287 
L 48.841845 -18.88372 
L 48.447704 -18.497154 
L 48.081618 -18.110587 
L 47.747647 -17.724021 
z
" style="stroke: #6f6f6f; stroke-width: 0.15"/>
    </defs>
    <g clip-path="url(#p25c5a2f74c)">
     <use xlink:href="#ma5c9d24535" x="0" y="84.96" style="fill: #efb792; stroke: #6f6f6f; stroke-width: 0.15"/>
    </g>
   </g>
   <g id="PolyCollection_3">
    <defs>
     <path id="m51ce84f377" d="M 72.344408 -14.171012 
L 67.59022 -14.171012 
L 67.141923 -14.542549 
L 66.648669 -14.914086 
L 66.11522 -15.285622 
L 65.548638 -15.657159 
L 64.958282 -16.028696 
L 64.355648 -16.400233 
L 63.754048 -16.771769 
L 63.168128 -17.143306 
L 62.613236 -17.514843 
L 62.104669 -17.88638 
L 61.656849 -18.257916 
L 61.282474 -18.629453 
L 60.991702 -19.00099 
L 60.79144 -19.372527 
L 60.684789 -19.744063 
L 60.670686 -20.1156 
L 60.743801 -20.487137 
L 60.89468 -20.858674 
L 61.11015 -21.23021 
L 61.373968 -21.601747 
L 61.667659 -21.973284 
L 61.971516 -22.34482 
L 62.265682 -22.716357 
L 62.531252 -23.087894 
L 62.751328 -23.459431 
L 62.911969 -23.830967 
L 63.002957 -24.202504 
L 63.018368 -24.574041 
L 62.956874 -24.945578 
L 62.82179 -25.317114 
L 62.620852 -25.688651 
L 62.365728 -26.060188 
L 62.071315 -26.431725 
L 61.754831 -26.803261 
L 61.434799 -27.174798 
L 61.129941 -27.546335 
L 60.858089 -27.917872 
L 60.635163 -28.289408 
L 60.474287 -28.660945 
L 60.385109 -29.032482 
L 60.373357 -29.404019 
L 60.440664 -29.775555 
L 60.584674 -30.147092 
L 60.799403 -30.518629 
L 61.075835 -30.890166 
L 61.402679 -31.261702 
L 61.767255 -31.633239 
L 62.156398 -32.004776 
L 62.557346 -32.376313 
L 62.958511 -32.747849 
L 63.350105 -33.119386 
L 63.72457 -33.490923 
L 64.076785 -33.86246 
L 64.404068 -34.233996 
L 64.705972 -34.605533 
L 64.983924 -34.97707 
L 65.240738 -35.348607 
L 65.480074 -35.720143 
L 65.705869 -36.09168 
L 65.921815 -36.463217 
L 66.130919 -36.834754 
L 66.33516 -37.20629 
L 66.535295 -37.577827 
L 66.730782 -37.949364 
L 66.919855 -38.320901 
L 67.099694 -38.692437 
L 67.266706 -39.063974 
L 67.416857 -39.435511 
L 67.546044 -39.807048 
L 67.650474 -40.178584 
L 67.727015 -40.550121 
L 67.773498 -40.921658 
L 67.788961 -41.293195 
L 67.773802 -41.664731 
L 67.729851 -42.036268 
L 67.660347 -42.407805 
L 67.569826 -42.779342 
L 67.463927 -43.150878 
L 67.349126 -43.522415 
L 67.232421 -43.893952 
L 67.120972 -44.265489 
L 67.021739 -44.637025 
L 66.941123 -45.008562 
L 66.884639 -45.380099 
L 66.856648 -45.751636 
L 66.86015 -46.123172 
L 66.896672 -46.494709 
L 66.966235 -46.866246 
L 67.067415 -47.237783 
L 67.197484 -47.609319 
L 67.352624 -47.980856 
L 67.528186 -48.352393 
L 67.718983 -48.72393 
L 67.919594 -49.095466 
L 68.124648 -49.467003 
L 68.329086 -49.83854 
L 68.528372 -50.210076 
L 68.718648 -50.581613 
L 68.896836 -50.95315 
L 71.037792 -50.95315 
L 71.037792 -50.95315 
L 71.21598 -50.581613 
L 71.406256 -50.210076 
L 71.605541 -49.83854 
L 71.80998 -49.467003 
L 72.015034 -49.095466 
L 72.215644 -48.72393 
L 72.406442 -48.352393 
L 72.582003 -47.980856 
L 72.737144 -47.609319 
L 72.867213 -47.237783 
L 72.968393 -46.866246 
L 73.037956 -46.494709 
L 73.074478 -46.123172 
L 73.07798 -45.751636 
L 73.049989 -45.380099 
L 72.993505 -45.008562 
L 72.912889 -44.637025 
L 72.813656 -44.265489 
L 72.702207 -43.893952 
L 72.585502 -43.522415 
L 72.470701 -43.150878 
L 72.364801 -42.779342 
L 72.27428 -42.407805 
L 72.204776 -42.036268 
L 72.160826 -41.664731 
L 72.145666 -41.293195 
L 72.161129 -40.921658 
L 72.207613 -40.550121 
L 72.284154 -40.178584 
L 72.388584 -39.807048 
L 72.517771 -39.435511 
L 72.667922 -39.063974 
L 72.834933 -38.692437 
L 73.014773 -38.320901 
L 73.203846 -37.949364 
L 73.399333 -37.577827 
L 73.599468 -37.20629 
L 73.803709 -36.834754 
L 74.012812 -36.463217 
L 74.228759 -36.09168 
L 74.454554 -35.720143 
L 74.693889 -35.348607 
L 74.950704 -34.97707 
L 75.228656 -34.605533 
L 75.53056 -34.233996 
L 75.857843 -33.86246 
L 76.210058 -33.490923 
L 76.584523 -33.119386 
L 76.976117 -32.747849 
L 77.377282 -32.376313 
L 77.778229 -32.004776 
L 78.167373 -31.633239 
L 78.531949 -31.261702 
L 78.858793 -30.890166 
L 79.135225 -30.518629 
L 79.349954 -30.147092 
L 79.493964 -29.775555 
L 79.561271 -29.404019 
L 79.549519 -29.032482 
L 79.460341 -28.660945 
L 79.299465 -28.289408 
L 79.076539 -27.917872 
L 78.804687 -27.546335 
L 78.499829 -27.174798 
L 78.179796 -26.803261 
L 77.863313 -26.431725 
L 77.5689 -26.060188 
L 77.313776 -25.688651 
L 77.112838 -25.317114 
L 76.977754 -24.945578 
L 76.91626 -24.574041 
L 76.931671 -24.202504 
L 77.022659 -23.830967 
L 77.1833 -23.459431 
L 77.403376 -23.087894 
L 77.668946 -22.716357 
L 77.963112 -22.34482 
L 78.266969 -21.973284 
L 78.56066 -21.601747 
L 78.824478 -21.23021 
L 79.039948 -20.858674 
L 79.190826 -20.487137 
L 79.263942 -20.1156 
L 79.249839 -19.744063 
L 79.143188 -19.372527 
L 78.942926 -19.00099 
L 78.652154 -18.629453 
L 78.277779 -18.257916 
L 77.829959 -17.88638 
L 77.321392 -17.514843 
L 76.7665 -17.143306 
L 76.18058 -16.771769 
L 75.57898 -16.400233 
L 74.976346 -16.028696 
L 74.38599 -15.657159 
L 73.819408 -15.285622 
L 73.285959 -14.914086 
L 72.792705 -14.542549 
L 72.344408 -14.171012 
z
" style="stroke: #6f6f6f; stroke-width: 0.15"/>
    </defs>
    <g clip-path="url(#p25c5a2f74c)">
     <use xlink:href="#m51ce84f377" x="0" y="84.96" style="fill: #98daa7; stroke: #6f6f6f; stroke-width: 0.15"/>
    </g>
   </g>
   <g id="line2d_8">
    <path d="M 21.99753 62.886587 
L 21.99753 49.092188 
" clip-path="url(#p25c5a2f74c)" style="fill: none; stroke: #8c8c8c; stroke-width: 0.75; stroke-linecap: round"/>
   </g>
   <g id="line2d_9">
    <path d="M 21.99753 61.090873 
L 21.99753 54.103865 
" clip-path="url(#p25c5a2f74c)" style="fill: none; stroke: #8c8c8c; stroke-width: 4; stroke-linecap: round"/>
   </g>
   <g id="line2d_10">
    <path d="M 21.99753 58.923646 
" clip-path="url(#p25c5a2f74c)" style="fill: none; stroke: #6f6f6f; stroke-width: 1.2; stroke-linecap: round"/>
    <defs>
     <path id="mcc6dda1906" d="M 0 0.833333 
C 0.221003 0.833333 0.432983 0.745528 0.589256 0.589256 
C 0.745528 0.432983 0.833333 0.221003 0.833333 0 
C 0.833333 -0.221003 0.745528 -0.432983 0.589256 -0.589256 
C 0.432983 -0.745528 0.221003 -0.833333 0 -0.833333 
C -0.221003 -0.833333 -0.432983 -0.745528 -0.589256 -0.589256 
C -0.745528 -0.432983 -0.833333 -0.221003 -0.833333 0 
C -0.833333 0.221003 -0.745528 0.432983 -0.589256 0.589256 
C -0.432983 0.745528 -0.221003 0.833333 0 0.833333 
z
" style="stroke: #ffffff; stroke-width: 0.8"/>
    </defs>
    <g clip-path="url(#p25c5a2f74c)">
     <use xlink:href="#mcc6dda1906" x="21.99753" y="58.923646" style="fill: #ffffff; stroke: #ffffff; stroke-width: 0.8"/>
    </g>
   </g>
   <g id="line2d_11">
    <path d="M 45.982422 62.401134 
L 45.982422 51.013135 
" clip-path="url(#p25c5a2f74c)" style="fill: none; stroke: #8c8c8c; stroke-width: 0.75; stroke-linecap: round"/>
   </g>
   <g id="line2d_12">
    <path d="M 45.982422 60.089798 
L 45.982422 51.076249 
" clip-path="url(#p25c5a2f74c)" style="fill: none; stroke: #8c8c8c; stroke-width: 4; stroke-linecap: round"/>
   </g>
   <g id="line2d_13">
    <path d="M 45.982422 52.431336 
" clip-path="url(#p25c5a2f74c)" style="fill: none; stroke: #6f6f6f; stroke-width: 1.2; stroke-linecap: round"/>
    <g clip-path="url(#p25c5a2f74c)">
     <use xlink:href="#mcc6dda1906" x="45.982422" y="52.431336" style="fill: #ffffff; stroke: #ffffff; stroke-width: 0.8"/>
    </g>
   </g>
   <g id="line2d_14">
    <path d="M 69.967314 65.905761 
L 69.967314 38.890077 
" clip-path="url(#p25c5a2f74c)" style="fill: none; stroke: #8c8c8c; stroke-width: 0.75; stroke-linecap: round"/>
   </g>
   <g id="line2d_15">
    <path d="M 69.967314 64.855367 
L 69.967314 53.473257 
" clip-path="url(#p25c5a2f74c)" style="fill: none; stroke: #8c8c8c; stroke-width: 4; stroke-linecap: round"/>
   </g>
   <g id="line2d_16">
    <path d="M 69.967314 56.098661 
" clip-path="url(#p25c5a2f74c)" style="fill: none; stroke: #6f6f6f; stroke-width: 1.2; stroke-linecap: round"/>
    <g clip-path="url(#p25c5a2f74c)">
     <use xlink:href="#mcc6dda1906" x="69.967314" y="56.098661" style="fill: #ffffff; stroke: #ffffff; stroke-width: 0.8"/>
    </g>
   </g>
   <g id="patch_3">
    <path d="M 10.005084 74.419526 
L 10.005084 4.076256 
" style="fill: none; stroke: #777777; stroke-width: 0.5; stroke-linejoin: miter; stroke-linecap: square"/>
   </g>
   <g id="patch_4">
    <path d="M 10.005084 76.919526 
L 81.95976 76.919526 
" style="fill: none; stroke: #777777; stroke-width: 0.5; stroke-linejoin: miter; stroke-linecap: square"/>
   </g>
  </g>
 </g>
 <defs>
  <clipPath id="p25c5a2f74c">
   <rect x="10.005084" y="4.076256" width="71.954676" height="70.34327"/>
  </clipPath>
 </defs>
</svg>
