<?xml version="1.0" encoding="utf-8" standalone="no"?>
<!DOCTYPE svg PUBLIC "-//W3C//DTD SVG 1.1//EN"
  "http://www.w3.org/Graphics/SVG/1.1/DTD/svg11.dtd">
<svg xmlns:xlink="http://www.w3.org/1999/xlink" width="84.96pt" height="84.96pt" viewBox="0 0 84.96 84.96" xmlns="http://www.w3.org/2000/svg" version="1.1">
 <metadata>
  <rdf:RDF xmlns:dc="http://purl.org/dc/elements/1.1/" xmlns:cc="http://creativecommons.org/ns#" xmlns:rdf="http://www.w3.org/1999/02/22-rdf-syntax-ns#">
   <cc:Work>
    <dc:type rdf:resource="http://purl.org/dc/dcmitype/StillImage"/>
    <dc:date>2024-05-27T15:37:02.870695</dc:date>
    <dc:format>image/svg+xml</dc:format>
    <dc:creator>
     <cc:Agent>
      <dc:title>Matplotlib v3.8.3, https://matplotlib.org/</dc:title>
     </cc:Agent>
    </dc:creator>
   </cc:Work>
  </rdf:RDF>
 </metadata>
 <defs>
  <style type="text/css">*{stroke-linejoin: round; stroke-linecap: butt}</style>
 </defs>
 <g id="figure_1">
  <g id="patch_1">
   <path d="M 0 84.96 
L 84.96 84.96 
L 84.96 0 
L 0 0 
z
" style="fill: #ffffff"/>
  </g>
  <g id="axes_1">
   <g id="patch_2">
    <path d="M 10.005084 74.419526 
L 81.95976 74.419526 
L 81.95976 4.076256 
L 10.005084 4.076256 
z
" style="fill: #ffffff"/>
   </g>
   <g id="matplotlib.axis_1">
    <g id="xtick_1">
     <g id="text_1">
      <!-- CD20+ Cells -->
      <g style="fill: #333333" transform="translate(12.125616 81.230229) scale(0.035 -0.035)">
       <defs>
        <path id="Helvetica-43" d="M 2422 4716 
Q 3294 4716 3775 4256 
Q 4256 3797 4309 3213 
L 3703 3213 
Q 3600 3656 3292 3915 
Q 2984 4175 2428 4175 
Q 1750 4175 1333 3698 
Q 916 3222 916 2238 
Q 916 1431 1292 929 
Q 1669 428 2416 428 
Q 3103 428 3463 956 
Q 3653 1234 3747 1688 
L 4353 1688 
Q 4272 963 3816 472 
Q 3269 -119 2341 -119 
Q 1541 -119 997 366 
Q 281 1006 281 2344 
Q 281 3359 819 4009 
Q 1400 4716 2422 4716 
z
M 2297 4716 
L 2297 4716 
z
" transform="scale(0.015625)"/>
        <path id="Helvetica-44" d="M 2250 531 
Q 2566 531 2769 597 
Q 3131 719 3363 1066 
Q 3547 1344 3628 1778 
Q 3675 2038 3675 2259 
Q 3675 3113 3336 3584 
Q 2997 4056 2244 4056 
L 1141 4056 
L 1141 531 
L 2250 531 
z
M 516 4591 
L 2375 4591 
Q 3322 4591 3844 3919 
Q 4309 3313 4309 2366 
Q 4309 1634 4034 1044 
Q 3550 0 2369 0 
L 516 0 
L 516 4591 
z
" transform="scale(0.015625)"/>
        <path id="Helvetica-32" d="M 200 0 
Q 231 578 439 1006 
Q 647 1434 1250 1784 
L 1850 2131 
Q 2253 2366 2416 2531 
Q 2672 2791 2672 3125 
Q 2672 3516 2437 3745 
Q 2203 3975 1813 3975 
Q 1234 3975 1013 3538 
Q 894 3303 881 2888 
L 309 2888 
Q 319 3472 525 3841 
Q 891 4491 1816 4491 
Q 2584 4491 2939 4075 
Q 3294 3659 3294 3150 
Q 3294 2613 2916 2231 
Q 2697 2009 2131 1694 
L 1703 1456 
Q 1397 1288 1222 1134 
Q 909 863 828 531 
L 3272 531 
L 3272 0 
L 200 0 
z
" transform="scale(0.015625)"/>
        <path id="Helvetica-30" d="M 1731 4475 
Q 2600 4475 2988 3759 
Q 3288 3206 3288 2244 
Q 3288 1331 3016 734 
Q 2622 -122 1728 -122 
Q 922 -122 528 578 
Q 200 1163 200 2147 
Q 200 2909 397 3456 
Q 766 4475 1731 4475 
z
M 1725 391 
Q 2163 391 2422 778 
Q 2681 1166 2681 2222 
Q 2681 2984 2493 3476 
Q 2306 3969 1766 3969 
Q 1269 3969 1039 3501 
Q 809 3034 809 2125 
Q 809 1441 956 1025 
Q 1181 391 1725 391 
z
" transform="scale(0.015625)"/>
        <path id="Helvetica-2b" d="M 288 1369 
L 288 1894 
L 1650 1894 
L 1650 3266 
L 2184 3266 
L 2184 1894 
L 3547 1894 
L 3547 1369 
L 2184 1369 
L 2184 0 
L 1650 0 
L 1650 1369 
L 288 1369 
z
" transform="scale(0.015625)"/>
        <path id="Helvetica-20" transform="scale(0.015625)"/>
        <path id="Helvetica-65" d="M 1806 3422 
Q 2163 3422 2497 3255 
Q 2831 3088 3006 2822 
Q 3175 2569 3231 2231 
Q 3281 2000 3281 1494 
L 828 1494 
Q 844 984 1069 676 
Q 1294 369 1766 369 
Q 2206 369 2469 659 
Q 2619 828 2681 1050 
L 3234 1050 
Q 3213 866 3089 639 
Q 2966 413 2813 269 
Q 2556 19 2178 -69 
Q 1975 -119 1719 -119 
Q 1094 -119 659 336 
Q 225 791 225 1609 
Q 225 2416 662 2919 
Q 1100 3422 1806 3422 
z
M 2703 1941 
Q 2669 2306 2544 2525 
Q 2313 2931 1772 2931 
Q 1384 2931 1121 2651 
Q 859 2372 844 1941 
L 2703 1941 
z
M 1753 3428 
L 1753 3428 
z
" transform="scale(0.015625)"/>
        <path id="Helvetica-6c" d="M 428 4591 
L 991 4591 
L 991 0 
L 428 0 
L 428 4591 
z
" transform="scale(0.015625)"/>
        <path id="Helvetica-73" d="M 747 1050 
Q 772 769 888 619 
Q 1100 347 1625 347 
Q 1938 347 2175 483 
Q 2413 619 2413 903 
Q 2413 1119 2222 1231 
Q 2100 1300 1741 1391 
L 1294 1503 
Q 866 1609 663 1741 
Q 300 1969 300 2372 
Q 300 2847 642 3140 
Q 984 3434 1563 3434 
Q 2319 3434 2653 2991 
Q 2863 2709 2856 2384 
L 2325 2384 
Q 2309 2575 2191 2731 
Q 1997 2953 1519 2953 
Q 1200 2953 1036 2831 
Q 872 2709 872 2509 
Q 872 2291 1088 2159 
Q 1213 2081 1456 2022 
L 1828 1931 
Q 2434 1784 2641 1647 
Q 2969 1431 2969 969 
Q 2969 522 2630 197 
Q 2291 -128 1597 -128 
Q 850 -128 539 211 
Q 228 550 206 1050 
L 747 1050 
z
M 1578 3428 
L 1578 3428 
z
" transform="scale(0.015625)"/>
       </defs>
       <use xlink:href="#Helvetica-43"/>
       <use xlink:href="#Helvetica-44" x="72.216797"/>
       <use xlink:href="#Helvetica-32" x="144.433594"/>
       <use xlink:href="#Helvetica-30" x="200.048828"/>
       <use xlink:href="#Helvetica-2b" x="255.664062"/>
       <use xlink:href="#Helvetica-20" x="314.0625"/>
       <use xlink:href="#Helvetica-43" x="341.845703"/>
       <use xlink:href="#Helvetica-65" x="414.0625"/>
       <use xlink:href="#Helvetica-6c" x="469.677734"/>
       <use xlink:href="#Helvetica-6c" x="491.894531"/>
       <use xlink:href="#Helvetica-73" x="514.111328"/>
      </g>
     </g>
    </g>
    <g id="xtick_2">
     <g id="text_2">
      <!-- TCRαδ+ Cells -->
      <g style="fill: #333333" transform="translate(34.850234 81.230229) scale(0.035 -0.035)">
       <defs>
        <path id="Helvetica-54" d="M 3828 4591 
L 3828 4044 
L 2281 4044 
L 2281 0 
L 1650 0 
L 1650 4044 
L 103 4044 
L 103 4591 
L 3828 4591 
z
" transform="scale(0.015625)"/>
        <path id="Helvetica-52" d="M 2622 2488 
Q 3059 2488 3314 2663 
Q 3569 2838 3569 3294 
Q 3569 3784 3213 3963 
Q 3022 4056 2703 4056 
L 1184 4056 
L 1184 2488 
L 2622 2488 
z
M 563 4591 
L 2688 4591 
Q 3213 4591 3553 4438 
Q 4200 4144 4200 3353 
Q 4200 2941 4029 2678 
Q 3859 2416 3553 2256 
Q 3822 2147 3958 1969 
Q 4094 1791 4109 1391 
L 4131 775 
Q 4141 513 4175 384 
Q 4231 166 4375 103 
L 4375 0 
L 3613 0 
Q 3581 59 3562 153 
Q 3544 247 3531 516 
L 3494 1281 
Q 3472 1731 3159 1884 
Q 2981 1969 2600 1969 
L 1184 1969 
L 1184 0 
L 563 0 
L 563 4591 
z
" transform="scale(0.015625)"/>
        <path id="Helvetica-3b1" d="M 3347 703 
Q 3334 428 3525 434 
Q 3641 434 3700 475 
L 3700 -19 
Q 3628 -44 3513 -50 
Q 3391 -63 3309 -63 
Q 3084 -56 2956 103 
Q 2816 256 2816 475 
L 2803 475 
Q 2413 -63 1734 -63 
Q 1006 -50 647 459 
Q 281 953 281 1644 
Q 281 2350 634 2859 
Q 984 3378 1741 3391 
Q 2413 3391 2797 2847 
L 2809 2847 
L 2809 3328 
L 3347 3328 
L 3347 703 
z
M 1825 397 
Q 2075 397 2253 513 
Q 2425 622 2541 806 
Q 2766 1184 2766 1638 
Q 2766 2144 2559 2528 
Q 2350 2919 1797 2931 
Q 1306 2919 1081 2534 
Q 856 2156 856 1697 
Q 856 1209 1081 819 
Q 1306 409 1825 397 
z
" transform="scale(0.015625)"/>
        <path id="Helvetica-3b4" d="M 666 4519 
L 3188 4519 
L 3188 4056 
L 1394 4056 
L 1394 4044 
L 2509 3303 
Q 3134 2881 3372 2469 
Q 3591 2053 3584 1600 
Q 3578 934 3163 447 
Q 2738 -50 1938 -63 
Q 1203 -56 769 403 
Q 331 850 325 1556 
Q 341 3066 1863 3188 
L 1863 3200 
L 666 4056 
L 666 4519 
z
M 1991 397 
Q 2497 403 2731 794 
Q 2969 1166 2969 1606 
Q 2969 1856 2919 2041 
Q 2866 2222 2791 2344 
Q 2713 2463 2638 2541 
Q 2559 2619 2509 2650 
Q 2381 2766 2156 2766 
Q 947 2766 941 1528 
Q 941 1056 1216 738 
Q 1491 403 1991 397 
z
" transform="scale(0.015625)"/>
       </defs>
       <use xlink:href="#Helvetica-54"/>
       <use xlink:href="#Helvetica-43" x="61.083984"/>
       <use xlink:href="#Helvetica-52" x="133.300781"/>
       <use xlink:href="#Helvetica-3b1" x="205.517578"/>
       <use xlink:href="#Helvetica-3b4" x="266.601562"/>
       <use xlink:href="#Helvetica-2b" x="327.685547"/>
       <use xlink:href="#Helvetica-20" x="386.083984"/>
       <use xlink:href="#Helvetica-43" x="413.867188"/>
       <use xlink:href="#Helvetica-65" x="486.083984"/>
       <use xlink:href="#Helvetica-6c" x="541.699219"/>
       <use xlink:href="#Helvetica-6c" x="563.916016"/>
       <use xlink:href="#Helvetica-73" x="586.132812"/>
      </g>
     </g>
    </g>
    <g id="xtick_3">
     <g id="text_3">
      <!-- IL7R+ Cells -->
      <g style="fill: #333333" transform="translate(60.873056 81.230229) scale(0.035 -0.035)">
       <defs>
        <path id="Helvetica-49" d="M 628 4591 
L 1256 4591 
L 1256 0 
L 628 0 
L 628 4591 
z
" transform="scale(0.015625)"/>
        <path id="Helvetica-4c" d="M 488 4591 
L 1109 4591 
L 1109 547 
L 3434 547 
L 3434 0 
L 488 0 
L 488 4591 
z
" transform="scale(0.015625)"/>
        <path id="Helvetica-37" d="M 3347 4400 
L 3347 3909 
Q 3131 3700 2773 3181 
Q 2416 2663 2141 2063 
Q 1869 1478 1728 997 
Q 1638 688 1494 0 
L 872 0 
Q 1084 1281 1809 2550 
Q 2238 3294 2709 3834 
L 234 3834 
L 234 4400 
L 3347 4400 
z
" transform="scale(0.015625)"/>
       </defs>
       <use xlink:href="#Helvetica-49"/>
       <use xlink:href="#Helvetica-4c" x="27.783203"/>
       <use xlink:href="#Helvetica-37" x="83.398438"/>
       <use xlink:href="#Helvetica-52" x="139.013672"/>
       <use xlink:href="#Helvetica-2b" x="211.230469"/>
       <use xlink:href="#Helvetica-20" x="269.628906"/>
       <use xlink:href="#Helvetica-43" x="297.412109"/>
       <use xlink:href="#Helvetica-65" x="369.628906"/>
       <use xlink:href="#Helvetica-6c" x="425.244141"/>
       <use xlink:href="#Helvetica-6c" x="447.460938"/>
       <use xlink:href="#Helvetica-73" x="469.677734"/>
      </g>
     </g>
    </g>
   </g>
   <g id="matplotlib.axis_2">
    <g id="ytick_1">
     <g id="line2d_1">
      <defs>
       <path id="m70af6d7dac" d="M 0 0 
L -1 0 
" style="stroke: #777777; stroke-width: 0.5"/>
      </defs>
      <g>
       <use xlink:href="#m70af6d7dac" x="10.005084" y="66.189518" style="fill: #777777; stroke: #777777; stroke-width: 0.5"/>
      </g>
     </g>
     <g id="text_4">
      <!-- 0 -->
      <g style="fill: #333333" transform="translate(6.336803 67.265534) scale(0.03 -0.03)">
       <use xlink:href="#Helvetica-30"/>
      </g>
     </g>
    </g>
    <g id="ytick_2">
     <g id="line2d_2">
      <g>
       <use xlink:href="#m70af6d7dac" x="10.005084" y="55.837308" style="fill: #777777; stroke: #777777; stroke-width: 0.5"/>
      </g>
     </g>
     <g id="text_5">
      <!-- 20 -->
      <g style="fill: #333333" transform="translate(4.668521 56.913323) scale(0.03 -0.03)">
       <use xlink:href="#Helvetica-32"/>
       <use xlink:href="#Helvetica-30" x="55.615234"/>
      </g>
     </g>
    </g>
    <g id="ytick_3">
     <g id="line2d_3">
      <g>
       <use xlink:href="#m70af6d7dac" x="10.005084" y="45.485097" style="fill: #777777; stroke: #777777; stroke-width: 0.5"/>
      </g>
     </g>
     <g id="text_6">
      <!-- 40 -->
      <g style="fill: #333333" transform="translate(4.668521 46.561113) scale(0.03 -0.03)">
       <defs>
        <path id="Helvetica-34" d="M 2116 1584 
L 2116 3613 
L 681 1584 
L 2116 1584 
z
M 2125 0 
L 2125 1094 
L 163 1094 
L 163 1644 
L 2213 4488 
L 2688 4488 
L 2688 1584 
L 3347 1584 
L 3347 1094 
L 2688 1094 
L 2688 0 
L 2125 0 
z
" transform="scale(0.015625)"/>
       </defs>
       <use xlink:href="#Helvetica-34"/>
       <use xlink:href="#Helvetica-30" x="55.615234"/>
      </g>
     </g>
    </g>
    <g id="ytick_4">
     <g id="line2d_4">
      <g>
       <use xlink:href="#m70af6d7dac" x="10.005084" y="35.132887" style="fill: #777777; stroke: #777777; stroke-width: 0.5"/>
      </g>
     </g>
     <g id="text_7">
      <!-- 60 -->
      <g style="fill: #333333" transform="translate(4.668521 36.208903) scale(0.03 -0.03)">
       <defs>
        <path id="Helvetica-36" d="M 1872 4494 
Q 2622 4494 2917 4105 
Q 3213 3716 3213 3303 
L 2656 3303 
Q 2606 3569 2497 3719 
Q 2294 4000 1881 4000 
Q 1409 4000 1131 3564 
Q 853 3128 822 2316 
Q 1016 2600 1309 2741 
Q 1578 2866 1909 2866 
Q 2472 2866 2890 2506 
Q 3309 2147 3309 1434 
Q 3309 825 2912 354 
Q 2516 -116 1781 -116 
Q 1153 -116 697 361 
Q 241 838 241 1966 
Q 241 2800 444 3381 
Q 834 4494 1872 4494 
z
M 1831 384 
Q 2275 384 2495 682 
Q 2716 981 2716 1388 
Q 2716 1731 2519 2042 
Q 2322 2353 1803 2353 
Q 1441 2353 1167 2112 
Q 894 1872 894 1388 
Q 894 963 1142 673 
Q 1391 384 1831 384 
z
" transform="scale(0.015625)"/>
       </defs>
       <use xlink:href="#Helvetica-36"/>
       <use xlink:href="#Helvetica-30" x="55.615234"/>
      </g>
     </g>
    </g>
    <g id="ytick_5">
     <g id="line2d_5">
      <g>
       <use xlink:href="#m70af6d7dac" x="10.005084" y="24.780677" style="fill: #777777; stroke: #777777; stroke-width: 0.5"/>
      </g>
     </g>
     <g id="text_8">
      <!-- 80 -->
      <g style="fill: #333333" transform="translate(4.668521 25.856692) scale(0.03 -0.03)">
       <defs>
        <path id="Helvetica-38" d="M 1741 2600 
Q 2113 2600 2322 2808 
Q 2531 3016 2531 3303 
Q 2531 3553 2331 3762 
Q 2131 3972 1722 3972 
Q 1316 3972 1134 3762 
Q 953 3553 953 3272 
Q 953 2956 1187 2778 
Q 1422 2600 1741 2600 
z
M 1775 384 
Q 2166 384 2423 595 
Q 2681 806 2681 1225 
Q 2681 1659 2415 1884 
Q 2150 2109 1734 2109 
Q 1331 2109 1076 1879 
Q 822 1650 822 1244 
Q 822 894 1055 639 
Q 1288 384 1775 384 
z
M 975 2384 
Q 741 2484 609 2619 
Q 363 2869 363 3269 
Q 363 3769 725 4128 
Q 1088 4488 1753 4488 
Q 2397 4488 2762 4148 
Q 3128 3809 3128 3356 
Q 3128 2938 2916 2678 
Q 2797 2531 2547 2391 
Q 2825 2263 2984 2097 
Q 3281 1784 3281 1284 
Q 3281 694 2884 283 
Q 2488 -128 1763 -128 
Q 1109 -128 657 226 
Q 206 581 206 1256 
Q 206 1653 400 1942 
Q 594 2231 975 2384 
z
" transform="scale(0.015625)"/>
       </defs>
       <use xlink:href="#Helvetica-38"/>
       <use xlink:href="#Helvetica-30" x="55.615234"/>
      </g>
     </g>
    </g>
    <g id="ytick_6">
     <g id="line2d_6">
      <g>
       <use xlink:href="#m70af6d7dac" x="10.005084" y="14.428466" style="fill: #777777; stroke: #777777; stroke-width: 0.5"/>
      </g>
     </g>
     <g id="text_9">
      <!-- 100 -->
      <g style="fill: #333333" transform="translate(3.00024 15.504482) scale(0.03 -0.03)">
       <defs>
        <path id="Helvetica-31" d="M 613 3169 
L 613 3600 
Q 1222 3659 1462 3798 
Q 1703 3938 1822 4456 
L 2266 4456 
L 2266 0 
L 1666 0 
L 1666 3169 
L 613 3169 
z
" transform="scale(0.015625)"/>
       </defs>
       <use xlink:href="#Helvetica-31"/>
       <use xlink:href="#Helvetica-30" x="55.615234"/>
       <use xlink:href="#Helvetica-30" x="111.230469"/>
      </g>
     </g>
    </g>
    <g id="ytick_7">
     <g id="line2d_7">
      <g>
       <use xlink:href="#m70af6d7dac" x="10.005084" y="4.076256" style="fill: #777777; stroke: #777777; stroke-width: 0.5"/>
      </g>
     </g>
     <g id="text_10">
      <!-- 120 -->
      <g style="fill: #333333" transform="translate(3.00024 5.152271) scale(0.03 -0.03)">
       <use xlink:href="#Helvetica-31"/>
       <use xlink:href="#Helvetica-32" x="55.615234"/>
       <use xlink:href="#Helvetica-30" x="111.230469"/>
      </g>
     </g>
    </g>
   </g>
   <g id="PolyCollection_1">
    <defs>
     <path id="md3d181d80e" d="M 22.787564 -18.748621 
L 21.207495 -18.748621 
L 20.978131 -19.009839 
L 20.70507 -19.271057 
L 20.386265 -19.532275 
L 20.020974 -19.793494 
L 19.609904 -20.054712 
L 19.155295 -20.31593 
L 18.660952 -20.577148 
L 18.13225 -20.838366 
L 17.576112 -21.099585 
L 17.000971 -21.360803 
L 16.416687 -21.622021 
L 15.834369 -21.883239 
L 15.266073 -22.144457 
L 14.724319 -22.405676 
L 14.221421 -22.666894 
L 13.768667 -22.928112 
L 13.375438 -23.18933 
L 13.048387 -23.450548 
L 12.790832 -23.711767 
L 12.602506 -23.972985 
L 12.479744 -24.234203 
L 12.416138 -24.495421 
L 12.403573 -24.756639 
L 12.433498 -25.017858 
L 12.498217 -25.279076 
L 12.59197 -25.540294 
L 12.711625 -25.801512 
L 12.856832 -26.06273 
L 13.029637 -26.323949 
L 13.233626 -26.585167 
L 13.472756 -26.846385 
L 13.750107 -27.107603 
L 14.066767 -27.368821 
L 14.421058 -27.63004 
L 14.808231 -27.891258 
L 15.22066 -28.152476 
L 15.648505 -28.413694 
L 16.080711 -28.674912 
L 16.506186 -28.93613 
L 16.914962 -29.197349 
L 17.299182 -29.458567 
L 17.653774 -29.719785 
L 17.976735 -29.981003 
L 18.26902 -30.242221 
L 18.534066 -30.50344 
L 18.777036 -30.764658 
L 19.003922 -31.025876 
L 19.220599 -31.287094 
L 19.431989 -31.548312 
L 19.641398 -31.809531 
L 19.850124 -32.070749 
L 20.057329 -32.331967 
L 20.260184 -32.593185 
L 20.454237 -32.854403 
L 20.633924 -33.115622 
L 20.793174 -33.37684 
L 20.926019 -33.638058 
L 21.027166 -33.899276 
L 21.092484 -34.160494 
L 21.119388 -34.421713 
L 21.107111 -34.682931 
L 21.056852 -34.944149 
L 20.971796 -35.205367 
L 20.857 -35.466585 
L 20.719141 -35.727804 
L 20.566119 -35.989022 
L 20.406535 -36.25024 
L 20.249075 -36.511458 
L 20.101853 -36.772676 
L 19.971781 -37.033895 
L 19.864045 -37.295113 
L 19.781766 -37.556331 
L 19.725882 -37.817549 
L 19.695276 -38.078767 
L 19.68714 -38.339985 
L 19.697503 -38.601204 
L 19.721856 -38.862422 
L 19.755779 -39.12364 
L 19.795487 -39.384858 
L 19.838222 -39.646076 
L 19.882471 -39.907295 
L 19.927983 -40.168513 
L 19.97562 -40.429731 
L 20.027083 -40.690949 
L 20.084543 -40.952167 
L 20.150258 -41.213386 
L 20.226193 -41.474604 
L 20.313702 -41.735822 
L 20.413296 -41.99704 
L 20.524507 -42.258258 
L 20.645878 -42.519477 
L 20.775056 -42.780695 
L 20.908992 -43.041913 
L 21.044205 -43.303131 
L 21.177091 -43.564349 
L 21.304232 -43.825568 
L 21.422669 -44.086786 
L 21.530102 -44.348004 
L 21.625012 -44.609222 
L 22.370048 -44.609222 
L 22.370048 -44.609222 
L 22.464958 -44.348004 
L 22.572391 -44.086786 
L 22.690828 -43.825568 
L 22.817969 -43.564349 
L 22.950855 -43.303131 
L 23.086067 -43.041913 
L 23.220003 -42.780695 
L 23.349182 -42.519477 
L 23.470553 -42.258258 
L 23.581764 -41.99704 
L 23.681357 -41.735822 
L 23.768867 -41.474604 
L 23.844802 -41.213386 
L 23.910517 -40.952167 
L 23.967977 -40.690949 
L 24.019439 -40.429731 
L 24.067077 -40.168513 
L 24.112588 -39.907295 
L 24.156837 -39.646076 
L 24.199573 -39.384858 
L 24.23928 -39.12364 
L 24.273203 -38.862422 
L 24.297556 -38.601204 
L 24.307919 -38.339985 
L 24.299784 -38.078767 
L 24.269178 -37.817549 
L 24.213293 -37.556331 
L 24.131015 -37.295113 
L 24.023279 -37.033895 
L 23.893206 -36.772676 
L 23.745985 -36.511458 
L 23.588525 -36.25024 
L 23.428941 -35.989022 
L 23.275919 -35.727804 
L 23.13806 -35.466585 
L 23.023264 -35.205367 
L 22.938208 -34.944149 
L 22.887949 -34.682931 
L 22.875672 -34.421713 
L 22.902576 -34.160494 
L 22.967893 -33.899276 
L 23.06904 -33.638058 
L 23.201886 -33.37684 
L 23.361136 -33.115622 
L 23.540823 -32.854403 
L 23.734875 -32.593185 
L 23.937731 -32.331967 
L 24.144936 -32.070749 
L 24.353662 -31.809531 
L 24.563071 -31.548312 
L 24.77446 -31.287094 
L 24.991138 -31.025876 
L 25.218023 -30.764658 
L 25.460994 -30.50344 
L 25.726039 -30.242221 
L 26.018325 -29.981003 
L 26.341286 -29.719785 
L 26.695877 -29.458567 
L 27.080097 -29.197349 
L 27.488874 -28.93613 
L 27.914348 -28.674912 
L 28.346555 -28.413694 
L 28.7744 -28.152476 
L 29.186829 -27.891258 
L 29.574002 -27.63004 
L 29.928293 -27.368821 
L 30.244952 -27.107603 
L 30.522303 -26.846385 
L 30.761434 -26.585167 
L 30.965423 -26.323949 
L 31.138228 -26.06273 
L 31.283434 -25.801512 
L 31.403089 -25.540294 
L 31.496843 -25.279076 
L 31.561561 -25.017858 
L 31.591487 -24.756639 
L 31.578922 -24.495421 
L 31.515316 -24.234203 
L 31.392554 -23.972985 
L 31.204227 -23.711767 
L 30.946673 -23.450548 
L 30.619622 -23.18933 
L 30.226393 -22.928112 
L 29.773639 -22.666894 
L 29.27074 -22.405676 
L 28.728987 -22.144457 
L 28.160691 -21.883239 
L 27.578373 -21.622021 
L 26.994088 -21.360803 
L 26.418948 -21.099585 
L 25.86281 -20.838366 
L 25.334108 -20.577148 
L 24.839765 -20.31593 
L 24.385156 -20.054712 
L 23.974086 -19.793494 
L 23.608795 -19.532275 
L 23.28999 -19.271057 
L 23.016929 -19.009839 
L 22.787564 -18.748621 
z
" style="stroke: #6f6f6f; stroke-width: 0.15"/>
    </defs>
    <g clip-path="url(#p9322529ece)">
     <use xlink:href="#md3d181d80e" x="0" y="84.96" style="fill: #abc9ea; stroke: #6f6f6f; stroke-width: 0.15"/>
    </g>
   </g>
   <g id="PolyCollection_2">
    <defs>
     <path id="m5043674437" d="M 46.58933 -22.845332 
L 45.375514 -22.845332 
L 45.198472 -23.085686 
L 44.998046 -23.32604 
L 44.780634 -23.566394 
L 44.555449 -23.806748 
L 44.333823 -24.047102 
L 44.128 -24.287455 
L 43.949503 -24.527809 
L 43.807317 -24.768163 
L 43.706167 -25.008517 
L 43.645223 -25.248871 
L 43.617475 -25.489224 
L 43.609966 -25.729578 
L 43.604873 -25.969932 
L 43.581308 -26.210286 
L 43.517572 -26.45064 
L 43.393548 -26.690994 
L 43.192895 -26.931347 
L 42.904783 -27.171701 
L 42.525016 -27.412055 
L 42.056472 -27.652409 
L 41.508914 -27.892763 
L 40.898275 -28.133117 
L 40.245529 -28.37347 
L 39.575289 -28.613824 
L 38.914187 -28.854178 
L 38.289133 -29.094532 
L 37.725483 -29.334886 
L 37.245205 -29.575239 
L 36.865123 -29.815593 
L 36.595408 -30.055947 
L 36.438473 -30.296301 
L 36.388465 -30.536655 
L 36.431504 -30.777009 
L 36.546767 -31.017362 
L 36.708407 -31.257716 
L 36.888187 -31.49807 
L 37.058587 -31.738424 
L 37.196056 -31.978778 
L 37.284006 -32.219131 
L 37.315143 -32.459485 
L 37.292758 -32.699839 
L 37.230743 -32.940193 
L 37.152209 -33.180547 
L 37.086812 -33.420901 
L 37.067081 -33.661254 
L 37.124198 -33.901608 
L 37.283818 -34.141962 
L 37.56253 -34.382316 
L 37.965468 -34.62267 
L 38.485446 -34.863024 
L 39.103715 -35.103377 
L 39.792221 -35.343731 
L 40.516982 -35.584085 
L 41.242059 -35.824439 
L 41.933537 -36.064793 
L 42.562972 -36.305146 
L 43.10988 -36.5455 
L 43.563043 -36.785854 
L 43.920587 -37.026208 
L 44.188967 -37.266562 
L 44.381106 -37.506916 
L 44.514042 -37.747269 
L 44.606421 -37.987623 
L 44.676163 -38.227977 
L 44.738568 -38.468331 
L 44.805042 -38.708685 
L 44.882501 -38.949039 
L 44.973439 -39.189392 
L 45.076527 -39.429746 
L 45.187575 -39.6701 
L 45.300619 -39.910454 
L 45.408959 -40.150808 
L 45.505978 -40.391161 
L 45.585669 -40.631515 
L 45.642869 -40.871869 
L 45.673277 -41.112223 
L 45.673363 -41.352577 
L 45.640317 -41.592931 
L 45.572145 -41.833284 
L 45.467962 -42.073638 
L 45.328487 -42.313992 
L 45.156639 -42.554346 
L 44.958079 -42.7947 
L 44.741522 -43.035053 
L 44.518634 -43.275407 
L 44.303409 -43.515761 
L 44.111023 -43.756115 
L 43.956272 -43.996469 
L 43.851826 -44.236823 
L 43.806609 -44.477176 
L 43.824591 -44.71753 
L 43.904253 -44.957884 
L 44.038816 -45.198238 
L 44.217205 -45.438592 
L 44.425564 -45.678946 
L 44.64902 -45.919299 
L 44.873416 -46.159653 
L 45.086713 -46.400007 
L 45.279898 -46.640361 
L 46.684945 -46.640361 
L 46.684945 -46.640361 
L 46.878131 -46.400007 
L 47.091428 -46.159653 
L 47.315824 -45.919299 
L 47.53928 -45.678946 
L 47.747638 -45.438592 
L 47.926028 -45.198238 
L 48.060591 -44.957884 
L 48.140253 -44.71753 
L 48.158235 -44.477176 
L 48.113018 -44.236823 
L 48.008572 -43.996469 
L 47.853821 -43.756115 
L 47.661435 -43.515761 
L 47.44621 -43.275407 
L 47.223321 -43.035053 
L 47.006765 -42.7947 
L 46.808205 -42.554346 
L 46.636357 -42.313992 
L 46.496882 -42.073638 
L 46.392699 -41.833284 
L 46.324527 -41.592931 
L 46.291481 -41.352577 
L 46.291567 -41.112223 
L 46.321974 -40.871869 
L 46.379175 -40.631515 
L 46.458866 -40.391161 
L 46.555885 -40.150808 
L 46.664225 -39.910454 
L 46.777269 -39.6701 
L 46.888317 -39.429746 
L 46.991405 -39.189392 
L 47.082342 -38.949039 
L 47.159801 -38.708685 
L 47.226276 -38.468331 
L 47.288681 -38.227977 
L 47.358423 -37.987623 
L 47.450802 -37.747269 
L 47.583738 -37.506916 
L 47.775877 -37.266562 
L 48.044256 -37.026208 
L 48.401801 -36.785854 
L 48.854964 -36.5455 
L 49.401871 -36.305146 
L 50.031306 -36.064793 
L 50.722785 -35.824439 
L 51.447862 -35.584085 
L 52.172623 -35.343731 
L 52.861129 -35.103377 
L 53.479398 -34.863024 
L 53.999375 -34.62267 
L 54.402314 -34.382316 
L 54.681025 -34.141962 
L 54.840646 -33.901608 
L 54.897762 -33.661254 
L 54.878032 -33.420901 
L 54.812635 -33.180547 
L 54.7341 -32.940193 
L 54.672086 -32.699839 
L 54.649701 -32.459485 
L 54.680837 -32.219131 
L 54.768788 -31.978778 
L 54.906257 -31.738424 
L 55.076656 -31.49807 
L 55.256436 -31.257716 
L 55.418077 -31.017362 
L 55.53334 -30.777009 
L 55.576379 -30.536655 
L 55.526371 -30.296301 
L 55.369436 -30.055947 
L 55.099721 -29.815593 
L 54.719639 -29.575239 
L 54.23936 -29.334886 
L 53.675711 -29.094532 
L 53.050657 -28.854178 
L 52.389555 -28.613824 
L 51.719314 -28.37347 
L 51.066569 -28.133117 
L 50.45593 -27.892763 
L 49.908372 -27.652409 
L 49.439828 -27.412055 
L 49.060061 -27.171701 
L 48.771949 -26.931347 
L 48.571295 -26.690994 
L 48.447272 -26.45064 
L 48.383536 -26.210286 
L 48.35997 -25.969932 
L 48.354878 -25.729578 
L 48.347369 -25.489224 
L 48.319621 -25.248871 
L 48.258676 -25.008517 
L 48.157527 -24.768163 
L 48.01534 -24.527809 
L 47.836844 -24.287455 
L 47.631021 -24.047102 
L 47.409395 -23.806748 
L 47.18421 -23.566394 
L 46.966798 -23.32604 
L 46.766371 -23.085686 
L 46.58933 -22.845332 
z
" style="stroke: #6f6f6f; stroke-width: 0.15"/>
    </defs>
    <g clip-path="url(#p9322529ece)">
     <use xlink:href="#m5043674437" x="0" y="84.96" style="fill: #efb792; stroke: #6f6f6f; stroke-width: 0.15"/>
    </g>
   </g>
   <g id="PolyCollection_3">
    <defs>
     <path id="m6ce56eedd2" d="M 70.459715 -19.29067 
L 69.474913 -19.29067 
L 69.332363 -19.482128 
L 69.168287 -19.673586 
L 68.984902 -19.865044 
L 68.785477 -20.056502 
L 68.573842 -20.24796 
L 68.353731 -20.439418 
L 68.128064 -20.630876 
L 67.898342 -20.822334 
L 67.664287 -21.013792 
L 67.423853 -21.20525 
L 67.173665 -21.396708 
L 66.909819 -21.588166 
L 66.628934 -21.779624 
L 66.329236 -21.971083 
L 66.011437 -22.162541 
L 65.679205 -22.353999 
L 65.339053 -22.545457 
L 64.99962 -22.736915 
L 64.670432 -22.928373 
L 64.360367 -23.119831 
L 64.076146 -23.311289 
L 63.821178 -23.502747 
L 63.595069 -23.694205 
L 63.39394 -23.885663 
L 63.211546 -24.077121 
L 63.040987 -24.268579 
L 62.876666 -24.460037 
L 62.716064 -24.651495 
L 62.560953 -24.842953 
L 62.417759 -25.034411 
L 62.296959 -25.225869 
L 62.211603 -25.417327 
L 62.175187 -25.608785 
L 62.199236 -25.800243 
L 62.291003 -25.991702 
L 62.451639 -26.18316 
L 62.675148 -26.374618 
L 62.948288 -26.566076 
L 63.251451 -26.757534 
L 63.560394 -26.948992 
L 63.848596 -27.14045 
L 64.089892 -27.331908 
L 64.261052 -27.523366 
L 64.343957 -27.714824 
L 64.327134 -27.906282 
L 64.206524 -28.09774 
L 63.985484 -28.289198 
L 63.674168 -28.480656 
L 63.288484 -28.672114 
L 62.84886 -28.863572 
L 62.379003 -29.05503 
L 61.904735 -29.246488 
L 61.452892 -29.437946 
L 61.050185 -29.629404 
L 60.721903 -29.820862 
L 60.490392 -30.012321 
L 60.373357 -30.203779 
L 60.3822 -30.395237 
L 60.520668 -30.586695 
L 60.784184 -30.778153 
L 61.160091 -30.969611 
L 61.628931 -31.161069 
L 62.166633 -31.352527 
L 62.747268 -31.543985 
L 63.345923 -31.735443 
L 63.941182 -31.926901 
L 64.516813 -32.118359 
L 65.062443 -32.309817 
L 65.573201 -32.501275 
L 66.048539 -32.692733 
L 66.490568 -32.884191 
L 66.902299 -33.075649 
L 67.286123 -33.267107 
L 67.642802 -33.458565 
L 67.971047 -33.650023 
L 68.267671 -33.841481 
L 68.528192 -34.032939 
L 68.747695 -34.224398 
L 68.921795 -34.415856 
L 69.047526 -34.607314 
L 69.124064 -34.798772 
L 69.15321 -34.99023 
L 69.139607 -35.181688 
L 69.090659 -35.373146 
L 69.016156 -35.564604 
L 68.92761 -35.756062 
L 68.837336 -35.94752 
L 68.757368 -36.138978 
L 68.698308 -36.330436 
L 68.668293 -36.521894 
L 68.672209 -36.713352 
L 68.711307 -36.90481 
L 68.783278 -37.096268 
L 68.882782 -37.287726 
L 69.002329 -37.479184 
L 69.133366 -37.670642 
L 69.267372 -37.8621 
L 69.396795 -38.053558 
L 69.515716 -38.245017 
L 70.418912 -38.245017 
L 70.418912 -38.245017 
L 70.537833 -38.053558 
L 70.667256 -37.8621 
L 70.801262 -37.670642 
L 70.932299 -37.479184 
L 71.051846 -37.287726 
L 71.15135 -37.096268 
L 71.22332 -36.90481 
L 71.262419 -36.713352 
L 71.266335 -36.521894 
L 71.23632 -36.330436 
L 71.17726 -36.138978 
L 71.097292 -35.94752 
L 71.007018 -35.756062 
L 70.918472 -35.564604 
L 70.843969 -35.373146 
L 70.795021 -35.181688 
L 70.781418 -34.99023 
L 70.810564 -34.798772 
L 70.887102 -34.607314 
L 71.012833 -34.415856 
L 71.186933 -34.224398 
L 71.406436 -34.032939 
L 71.666957 -33.841481 
L 71.963581 -33.650023 
L 72.291826 -33.458565 
L 72.648505 -33.267107 
L 73.032329 -33.075649 
L 73.444059 -32.884191 
L 73.886089 -32.692733 
L 74.361427 -32.501275 
L 74.872185 -32.309817 
L 75.417815 -32.118359 
L 75.993446 -31.926901 
L 76.588705 -31.735443 
L 77.18736 -31.543985 
L 77.767995 -31.352527 
L 78.305697 -31.161069 
L 78.774537 -30.969611 
L 79.150444 -30.778153 
L 79.41396 -30.586695 
L 79.552428 -30.395237 
L 79.561271 -30.203779 
L 79.444236 -30.012321 
L 79.212725 -29.820862 
L 78.884443 -29.629404 
L 78.481736 -29.437946 
L 78.029893 -29.246488 
L 77.555625 -29.05503 
L 77.085768 -28.863572 
L 76.646144 -28.672114 
L 76.26046 -28.480656 
L 75.949144 -28.289198 
L 75.728104 -28.09774 
L 75.607494 -27.906282 
L 75.590671 -27.714824 
L 75.673576 -27.523366 
L 75.844736 -27.331908 
L 76.086032 -27.14045 
L 76.374233 -26.948992 
L 76.683177 -26.757534 
L 76.98634 -26.566076 
L 77.25948 -26.374618 
L 77.482989 -26.18316 
L 77.643624 -25.991702 
L 77.735392 -25.800243 
L 77.759441 -25.608785 
L 77.723025 -25.417327 
L 77.637669 -25.225869 
L 77.516869 -25.034411 
L 77.373675 -24.842953 
L 77.218564 -24.651495 
L 77.057962 -24.460037 
L 76.893641 -24.268579 
L 76.723082 -24.077121 
L 76.540688 -23.885663 
L 76.339559 -23.694205 
L 76.11345 -23.502747 
L 75.858482 -23.311289 
L 75.574261 -23.119831 
L 75.264196 -22.928373 
L 74.935008 -22.736915 
L 74.595575 -22.545457 
L 74.255423 -22.353999 
L 73.923191 -22.162541 
L 73.605392 -21.971083 
L 73.305693 -21.779624 
L 73.024809 -21.588166 
L 72.760963 -21.396708 
L 72.510775 -21.20525 
L 72.270341 -21.013792 
L 72.036286 -20.822334 
L 71.806564 -20.630876 
L 71.580897 -20.439418 
L 71.360786 -20.24796 
L 71.149151 -20.056502 
L 70.949726 -19.865044 
L 70.766341 -19.673586 
L 70.602265 -19.482128 
L 70.459715 -19.29067 
z
" style="stroke: #6f6f6f; stroke-width: 0.15"/>
    </defs>
    <g clip-path="url(#p9322529ece)">
     <use xlink:href="#m6ce56eedd2" x="0" y="84.96" style="fill: #98daa7; stroke: #6f6f6f; stroke-width: 0.15"/>
    </g>
   </g>
   <g id="line2d_8">
    <path d="M 21.99753 63.725385 
L 21.99753 47.050775 
" clip-path="url(#p9322529ece)" style="fill: none; stroke: #8c8c8c; stroke-width: 0.75; stroke-linecap: round"/>
   </g>
   <g id="line2d_9">
    <path d="M 21.99753 61.117459 
L 21.99753 55.314392 
" clip-path="url(#p9322529ece)" style="fill: none; stroke: #8c8c8c; stroke-width: 4; stroke-linecap: round"/>
   </g>
   <g id="line2d_10">
    <path d="M 21.99753 58.385968 
" clip-path="url(#p9322529ece)" style="fill: none; stroke: #6f6f6f; stroke-width: 1.2; stroke-linecap: round"/>
    <defs>
     <path id="m3e1d431f4e" d="M 0 0.833333 
C 0.221003 0.833333 0.432983 0.745528 0.589256 0.589256 
C 0.745528 0.432983 0.833333 0.221003 0.833333 0 
C 0.833333 -0.221003 0.745528 -0.432983 0.589256 -0.589256 
C 0.432983 -0.745528 0.221003 -0.833333 0 -0.833333 
C -0.221003 -0.833333 -0.432983 -0.745528 -0.589256 -0.589256 
C -0.745528 -0.432983 -0.833333 -0.221003 -0.833333 0 
C -0.833333 0.221003 -0.745528 0.432983 -0.589256 0.589256 
C -0.432983 0.745528 -0.221003 0.833333 0 0.833333 
z
" style="stroke: #ffffff; stroke-width: 0.8"/>
    </defs>
    <g clip-path="url(#p9322529ece)">
     <use xlink:href="#m3e1d431f4e" x="21.99753" y="58.385968" style="fill: #ffffff; stroke: #ffffff; stroke-width: 0.8"/>
    </g>
   </g>
   <g id="line2d_11">
    <path d="M 45.982422 60.08304 
L 45.982422 46.440901 
" clip-path="url(#p9322529ece)" style="fill: none; stroke: #8c8c8c; stroke-width: 0.75; stroke-linecap: round"/>
   </g>
   <g id="line2d_12">
    <path d="M 45.982422 55.153466 
L 45.982422 50.582902 
" clip-path="url(#p9322529ece)" style="fill: none; stroke: #8c8c8c; stroke-width: 4; stroke-linecap: round"/>
   </g>
   <g id="line2d_13">
    <path d="M 45.982422 53.14209 
" clip-path="url(#p9322529ece)" style="fill: none; stroke: #6f6f6f; stroke-width: 1.2; stroke-linecap: round"/>
    <g clip-path="url(#p9322529ece)">
     <use xlink:href="#m3e1d431f4e" x="45.982422" y="53.14209" style="fill: #ffffff; stroke: #ffffff; stroke-width: 0.8"/>
    </g>
   </g>
   <g id="line2d_14">
    <path d="M 69.967314 64.04863 
L 69.967314 48.335683 
" clip-path="url(#p9322529ece)" style="fill: none; stroke: #8c8c8c; stroke-width: 0.75; stroke-linecap: round"/>
   </g>
   <g id="line2d_15">
    <path d="M 69.967314 59.793612 
L 69.967314 54.494871 
" clip-path="url(#p9322529ece)" style="fill: none; stroke: #8c8c8c; stroke-width: 4; stroke-linecap: round"/>
   </g>
   <g id="line2d_16">
    <path d="M 69.967314 56.899132 
" clip-path="url(#p9322529ece)" style="fill: none; stroke: #6f6f6f; stroke-width: 1.2; stroke-linecap: round"/>
    <g clip-path="url(#p9322529ece)">
     <use xlink:href="#m3e1d431f4e" x="69.967314" y="56.899132" style="fill: #ffffff; stroke: #ffffff; stroke-width: 0.8"/>
    </g>
   </g>
   <g id="patch_3">
    <path d="M 10.005084 74.419526 
L 10.005084 4.076256 
" style="fill: none; stroke: #777777; stroke-width: 0.5; stroke-linejoin: miter; stroke-linecap: square"/>
   </g>
   <g id="patch_4">
    <path d="M 10.005084 76.919526 
L 81.95976 76.919526 
" style="fill: none; stroke: #777777; stroke-width: 0.5; stroke-linejoin: miter; stroke-linecap: square"/>
   </g>
  </g>
 </g>
 <defs>
  <clipPath id="p9322529ece">
   <rect x="10.005084" y="4.076256" width="71.954676" height="70.34327"/>
  </clipPath>
 </defs>
</svg>
