<?xml version="1.0" encoding="utf-8" standalone="no"?>
<!DOCTYPE svg PUBLIC "-//W3C//DTD SVG 1.1//EN"
  "http://www.w3.org/Graphics/SVG/1.1/DTD/svg11.dtd">
<svg xmlns:xlink="http://www.w3.org/1999/xlink" width="84.96pt" height="84.96pt" viewBox="0 0 84.96 84.96" xmlns="http://www.w3.org/2000/svg" version="1.1">
 <metadata>
  <rdf:RDF xmlns:dc="http://purl.org/dc/elements/1.1/" xmlns:cc="http://creativecommons.org/ns#" xmlns:rdf="http://www.w3.org/1999/02/22-rdf-syntax-ns#">
   <cc:Work>
    <dc:type rdf:resource="http://purl.org/dc/dcmitype/StillImage"/>
    <dc:date>2024-05-27T15:37:04.163755</dc:date>
    <dc:format>image/svg+xml</dc:format>
    <dc:creator>
     <cc:Agent>
      <dc:title>Matplotlib v3.8.3, https://matplotlib.org/</dc:title>
     </cc:Agent>
    </dc:creator>
   </cc:Work>
  </rdf:RDF>
 </metadata>
 <defs>
  <style type="text/css">*{stroke-linejoin: round; stroke-linecap: butt}</style>
 </defs>
 <g id="figure_1">
  <g id="patch_1">
   <path d="M 0 84.96 
L 84.96 84.96 
L 84.96 0 
L 0 0 
z
" style="fill: #ffffff"/>
  </g>
  <g id="axes_1">
   <g id="patch_2">
    <path d="M 8.336802 74.419526 
L 81.95976 74.419526 
L 81.95976 4.076256 
L 8.336802 4.076256 
z
" style="fill: #ffffff"/>
   </g>
   <g id="matplotlib.axis_1">
    <g id="xtick_1">
     <g id="text_1">
      <!-- NK/ILC1ie -->
      <g style="fill: #333333" transform="translate(12.63167 81.230229) scale(0.035 -0.035)">
       <defs>
        <path id="Helvetica-4e" d="M 488 4591 
L 1222 4591 
L 3541 872 
L 3541 4591 
L 4131 4591 
L 4131 0 
L 3434 0 
L 1081 3716 
L 1081 0 
L 488 0 
L 488 4591 
z
M 2269 4591 
L 2269 4591 
z
" transform="scale(0.015625)"/>
        <path id="Helvetica-4b" d="M 488 4591 
L 1094 4591 
L 1094 2353 
L 3331 4591 
L 4191 4591 
L 2281 2741 
L 4244 0 
L 3434 0 
L 1828 2303 
L 1094 1600 
L 1094 0 
L 488 0 
L 488 4591 
z
" transform="scale(0.015625)"/>
        <path id="Helvetica-2f" d="M 1456 4591 
L 1931 4591 
L 475 0 
L 0 0 
L 1456 4591 
z
" transform="scale(0.015625)"/>
        <path id="Helvetica-49" d="M 628 4591 
L 1256 4591 
L 1256 0 
L 628 0 
L 628 4591 
z
" transform="scale(0.015625)"/>
        <path id="Helvetica-4c" d="M 488 4591 
L 1109 4591 
L 1109 547 
L 3434 547 
L 3434 0 
L 488 0 
L 488 4591 
z
" transform="scale(0.015625)"/>
        <path id="Helvetica-43" d="M 2422 4716 
Q 3294 4716 3775 4256 
Q 4256 3797 4309 3213 
L 3703 3213 
Q 3600 3656 3292 3915 
Q 2984 4175 2428 4175 
Q 1750 4175 1333 3698 
Q 916 3222 916 2238 
Q 916 1431 1292 929 
Q 1669 428 2416 428 
Q 3103 428 3463 956 
Q 3653 1234 3747 1688 
L 4353 1688 
Q 4272 963 3816 472 
Q 3269 -119 2341 -119 
Q 1541 -119 997 366 
Q 281 1006 281 2344 
Q 281 3359 819 4009 
Q 1400 4716 2422 4716 
z
M 2297 4716 
L 2297 4716 
z
" transform="scale(0.015625)"/>
        <path id="Helvetica-31" d="M 613 3169 
L 613 3600 
Q 1222 3659 1462 3798 
Q 1703 3938 1822 4456 
L 2266 4456 
L 2266 0 
L 1666 0 
L 1666 3169 
L 613 3169 
z
" transform="scale(0.015625)"/>
        <path id="Helvetica-69" d="M 413 3331 
L 984 3331 
L 984 0 
L 413 0 
L 413 3331 
z
M 413 4591 
L 984 4591 
L 984 3953 
L 413 3953 
L 413 4591 
z
" transform="scale(0.015625)"/>
        <path id="Helvetica-65" d="M 1806 3422 
Q 2163 3422 2497 3255 
Q 2831 3088 3006 2822 
Q 3175 2569 3231 2231 
Q 3281 2000 3281 1494 
L 828 1494 
Q 844 984 1069 676 
Q 1294 369 1766 369 
Q 2206 369 2469 659 
Q 2619 828 2681 1050 
L 3234 1050 
Q 3213 866 3089 639 
Q 2966 413 2813 269 
Q 2556 19 2178 -69 
Q 1975 -119 1719 -119 
Q 1094 -119 659 336 
Q 225 791 225 1609 
Q 225 2416 662 2919 
Q 1100 3422 1806 3422 
z
M 2703 1941 
Q 2669 2306 2544 2525 
Q 2313 2931 1772 2931 
Q 1384 2931 1121 2651 
Q 859 2372 844 1941 
L 2703 1941 
z
M 1753 3428 
L 1753 3428 
z
" transform="scale(0.015625)"/>
       </defs>
       <use xlink:href="#Helvetica-4e"/>
       <use xlink:href="#Helvetica-4b" x="72.216797"/>
       <use xlink:href="#Helvetica-2f" x="138.916016"/>
       <use xlink:href="#Helvetica-49" x="166.699219"/>
       <use xlink:href="#Helvetica-4c" x="194.482422"/>
       <use xlink:href="#Helvetica-43" x="250.097656"/>
       <use xlink:href="#Helvetica-31" x="322.314453"/>
       <use xlink:href="#Helvetica-69" x="377.929688"/>
       <use xlink:href="#Helvetica-65" x="400.146484"/>
      </g>
     </g>
    </g>
    <g id="xtick_2">
     <g id="text_2">
      <!-- ILC1 -->
      <g style="fill: #333333" transform="translate(41.451953 81.230229) scale(0.035 -0.035)">
       <use xlink:href="#Helvetica-49"/>
       <use xlink:href="#Helvetica-4c" x="27.783203"/>
       <use xlink:href="#Helvetica-43" x="83.398438"/>
       <use xlink:href="#Helvetica-31" x="155.615234"/>
      </g>
     </g>
    </g>
    <g id="xtick_3">
     <g id="text_3">
      <!-- TH1 -->
      <g style="fill: #333333" transform="translate(66.383408 81.230229) scale(0.035 -0.035)">
       <defs>
        <path id="Helvetica-54" d="M 3828 4591 
L 3828 4044 
L 2281 4044 
L 2281 0 
L 1650 0 
L 1650 4044 
L 103 4044 
L 103 4591 
L 3828 4591 
z
" transform="scale(0.015625)"/>
        <path id="Helvetica-48" d="M 503 4591 
L 1131 4591 
L 1131 2694 
L 3519 2694 
L 3519 4591 
L 4147 4591 
L 4147 0 
L 3519 0 
L 3519 2147 
L 1131 2147 
L 1131 0 
L 503 0 
L 503 4591 
z
" transform="scale(0.015625)"/>
       </defs>
       <use xlink:href="#Helvetica-54"/>
       <use xlink:href="#Helvetica-48" x="61.083984"/>
       <use xlink:href="#Helvetica-31" x="133.300781"/>
      </g>
     </g>
    </g>
   </g>
   <g id="matplotlib.axis_2">
    <g id="ytick_1">
     <g id="line2d_1">
      <defs>
       <path id="m4d5fc14544" d="M 0 0 
L -1 0 
" style="stroke: #777777; stroke-width: 0.5"/>
      </defs>
      <g>
       <use xlink:href="#m4d5fc14544" x="8.336802" y="66.995102" style="fill: #777777; stroke: #777777; stroke-width: 0.5"/>
      </g>
     </g>
     <g id="text_4">
      <!-- 0 -->
      <g style="fill: #333333" transform="translate(4.668521 68.071117) scale(0.03 -0.03)">
       <defs>
        <path id="Helvetica-30" d="M 1731 4475 
Q 2600 4475 2988 3759 
Q 3288 3206 3288 2244 
Q 3288 1331 3016 734 
Q 2622 -122 1728 -122 
Q 922 -122 528 578 
Q 200 1163 200 2147 
Q 200 2909 397 3456 
Q 766 4475 1731 4475 
z
M 1725 391 
Q 2163 391 2422 778 
Q 2681 1166 2681 2222 
Q 2681 2984 2493 3476 
Q 2306 3969 1766 3969 
Q 1269 3969 1039 3501 
Q 809 3034 809 2125 
Q 809 1441 956 1025 
Q 1181 391 1725 391 
z
" transform="scale(0.015625)"/>
       </defs>
       <use xlink:href="#Helvetica-30"/>
      </g>
     </g>
    </g>
    <g id="ytick_2">
     <g id="line2d_2">
      <g>
       <use xlink:href="#m4d5fc14544" x="8.336802" y="54.411333" style="fill: #777777; stroke: #777777; stroke-width: 0.5"/>
      </g>
     </g>
     <g id="text_5">
      <!-- 10 -->
      <g style="fill: #333333" transform="translate(3.00024 55.487348) scale(0.03 -0.03)">
       <use xlink:href="#Helvetica-31"/>
       <use xlink:href="#Helvetica-30" x="55.615234"/>
      </g>
     </g>
    </g>
    <g id="ytick_3">
     <g id="line2d_3">
      <g>
       <use xlink:href="#m4d5fc14544" x="8.336802" y="41.827563" style="fill: #777777; stroke: #777777; stroke-width: 0.5"/>
      </g>
     </g>
     <g id="text_6">
      <!-- 20 -->
      <g style="fill: #333333" transform="translate(3.00024 42.903579) scale(0.03 -0.03)">
       <defs>
        <path id="Helvetica-32" d="M 200 0 
Q 231 578 439 1006 
Q 647 1434 1250 1784 
L 1850 2131 
Q 2253 2366 2416 2531 
Q 2672 2791 2672 3125 
Q 2672 3516 2437 3745 
Q 2203 3975 1813 3975 
Q 1234 3975 1013 3538 
Q 894 3303 881 2888 
L 309 2888 
Q 319 3472 525 3841 
Q 891 4491 1816 4491 
Q 2584 4491 2939 4075 
Q 3294 3659 3294 3150 
Q 3294 2613 2916 2231 
Q 2697 2009 2131 1694 
L 1703 1456 
Q 1397 1288 1222 1134 
Q 909 863 828 531 
L 3272 531 
L 3272 0 
L 200 0 
z
" transform="scale(0.015625)"/>
       </defs>
       <use xlink:href="#Helvetica-32"/>
       <use xlink:href="#Helvetica-30" x="55.615234"/>
      </g>
     </g>
    </g>
    <g id="ytick_4">
     <g id="line2d_4">
      <g>
       <use xlink:href="#m4d5fc14544" x="8.336802" y="29.243794" style="fill: #777777; stroke: #777777; stroke-width: 0.5"/>
      </g>
     </g>
     <g id="text_7">
      <!-- 30 -->
      <g style="fill: #333333" transform="translate(3.00024 30.31981) scale(0.03 -0.03)">
       <defs>
        <path id="Helvetica-33" d="M 1663 -122 
Q 869 -122 511 314 
Q 153 750 153 1375 
L 741 1375 
Q 778 941 903 744 
Q 1122 391 1694 391 
Q 2138 391 2406 628 
Q 2675 866 2675 1241 
Q 2675 1703 2392 1887 
Q 2109 2072 1606 2072 
Q 1550 2072 1492 2070 
Q 1434 2069 1375 2066 
L 1375 2563 
Q 1463 2553 1522 2550 
Q 1581 2547 1650 2547 
Q 1966 2547 2169 2647 
Q 2525 2822 2525 3272 
Q 2525 3606 2287 3787 
Q 2050 3969 1734 3969 
Q 1172 3969 956 3594 
Q 838 3388 822 3006 
L 266 3006 
Q 266 3506 466 3856 
Q 809 4481 1675 4481 
Q 2359 4481 2734 4176 
Q 3109 3872 3109 3294 
Q 3109 2881 2888 2625 
Q 2750 2466 2531 2375 
Q 2884 2278 3082 2001 
Q 3281 1725 3281 1325 
Q 3281 684 2859 281 
Q 2438 -122 1663 -122 
z
" transform="scale(0.015625)"/>
       </defs>
       <use xlink:href="#Helvetica-33"/>
       <use xlink:href="#Helvetica-30" x="55.615234"/>
      </g>
     </g>
    </g>
    <g id="ytick_5">
     <g id="line2d_5">
      <g>
       <use xlink:href="#m4d5fc14544" x="8.336802" y="16.660025" style="fill: #777777; stroke: #777777; stroke-width: 0.5"/>
      </g>
     </g>
     <g id="text_8">
      <!-- 40 -->
      <g style="fill: #333333" transform="translate(3.00024 17.73604) scale(0.03 -0.03)">
       <defs>
        <path id="Helvetica-34" d="M 2116 1584 
L 2116 3613 
L 681 1584 
L 2116 1584 
z
M 2125 0 
L 2125 1094 
L 163 1094 
L 163 1644 
L 2213 4488 
L 2688 4488 
L 2688 1584 
L 3347 1584 
L 3347 1094 
L 2688 1094 
L 2688 0 
L 2125 0 
z
" transform="scale(0.015625)"/>
       </defs>
       <use xlink:href="#Helvetica-34"/>
       <use xlink:href="#Helvetica-30" x="55.615234"/>
      </g>
     </g>
    </g>
    <g id="ytick_6">
     <g id="line2d_6">
      <g>
       <use xlink:href="#m4d5fc14544" x="8.336802" y="4.076256" style="fill: #777777; stroke: #777777; stroke-width: 0.5"/>
      </g>
     </g>
     <g id="text_9">
      <!-- 50 -->
      <g style="fill: #333333" transform="translate(3.00024 5.152271) scale(0.03 -0.03)">
       <defs>
        <path id="Helvetica-35" d="M 791 1141 
Q 847 659 1238 475 
Q 1438 381 1700 381 
Q 2200 381 2440 700 
Q 2681 1019 2681 1406 
Q 2681 1875 2395 2131 
Q 2109 2388 1709 2388 
Q 1419 2388 1211 2275 
Q 1003 2163 856 1963 
L 369 1991 
L 709 4400 
L 3034 4400 
L 3034 3856 
L 1131 3856 
L 941 2613 
Q 1097 2731 1238 2791 
Q 1488 2894 1816 2894 
Q 2431 2894 2859 2497 
Q 3288 2100 3288 1491 
Q 3288 856 2895 371 
Q 2503 -113 1644 -113 
Q 1097 -113 676 195 
Q 256 503 206 1141 
L 791 1141 
z
" transform="scale(0.015625)"/>
       </defs>
       <use xlink:href="#Helvetica-35"/>
       <use xlink:href="#Helvetica-30" x="55.615234"/>
      </g>
     </g>
    </g>
   </g>
   <g id="PolyCollection_1">
    <defs>
     <path id="m508a4bb9f7" d="M 22.158362 -17.96624 
L 19.056229 -17.96624 
L 18.771999 -17.966402 
L 18.453552 -17.966565 
L 18.100548 -17.966727 
L 17.713474 -17.966889 
L 17.293755 -17.967052 
L 16.843844 -17.967214 
L 16.367286 -17.967377 
L 15.868737 -17.967539 
L 15.353949 -17.967702 
L 14.829697 -17.967864 
L 14.30366 -17.968026 
L 13.784248 -17.968189 
L 13.280381 -17.968351 
L 12.801225 -17.968514 
L 12.355888 -17.968676 
L 11.953104 -17.968839 
L 11.600891 -17.969001 
L 11.306235 -17.969163 
L 11.074781 -17.969326 
L 10.910572 -17.969488 
L 10.815847 -17.969651 
L 10.790901 -17.969813 
L 10.834032 -17.969976 
L 10.941572 -17.970138 
L 11.108009 -17.970301 
L 11.326189 -17.970463 
L 11.587605 -17.970625 
L 11.882739 -17.970788 
L 12.201461 -17.97095 
L 12.533445 -17.971113 
L 12.868603 -17.971275 
L 13.197488 -17.971438 
L 13.511671 -17.9716 
L 13.804052 -17.971762 
L 14.069109 -17.971925 
L 14.303054 -17.972087 
L 14.50391 -17.97225 
L 14.67149 -17.972412 
L 14.807299 -17.972575 
L 14.914355 -17.972737 
L 14.996946 -17.972899 
L 15.060345 -17.973062 
L 15.110484 -17.973224 
L 15.153623 -17.973387 
L 15.196013 -17.973549 
L 15.24359 -17.973712 
L 15.301687 -17.973874 
L 15.374803 -17.974036 
L 15.466414 -17.974199 
L 15.57884 -17.974361 
L 15.71318 -17.974524 
L 15.869285 -17.974686 
L 16.045804 -17.974849 
L 16.240258 -17.975011 
L 16.449166 -17.975173 
L 16.668197 -17.975336 
L 16.892348 -17.975498 
L 17.116133 -17.975661 
L 17.333787 -17.975823 
L 17.539463 -17.975986 
L 17.727432 -17.976148 
L 17.892271 -17.97631 
L 18.02904 -17.976473 
L 18.133447 -17.976635 
L 18.201991 -17.976798 
L 18.232097 -17.97696 
L 18.222217 -17.977123 
L 18.171919 -17.977285 
L 18.081949 -17.977447 
L 17.954254 -17.97761 
L 17.791982 -17.977772 
L 17.599439 -17.977935 
L 17.382009 -17.978097 
L 17.146025 -17.97826 
L 16.898606 -17.978422 
L 16.64745 -17.978584 
L 16.400588 -17.978747 
L 16.166118 -17.978909 
L 15.95192 -17.979072 
L 15.765361 -17.979234 
L 15.613022 -17.979397 
L 15.500443 -17.979559 
L 15.431906 -17.979721 
L 15.410281 -17.979884 
L 15.436921 -17.980046 
L 15.511637 -17.980209 
L 15.632736 -17.980371 
L 15.797133 -17.980534 
L 16.000516 -17.980696 
L 16.23757 -17.980858 
L 16.502229 -17.981021 
L 16.787954 -17.981183 
L 17.088017 -17.981346 
L 17.395766 -17.981508 
L 17.704874 -17.981671 
L 18.009546 -17.981833 
L 18.304683 -17.981995 
L 18.585999 -17.982158 
L 18.850084 -17.98232 
L 22.364507 -17.98232 
L 22.364507 -17.98232 
L 22.628592 -17.982158 
L 22.909908 -17.981995 
L 23.205045 -17.981833 
L 23.509717 -17.981671 
L 23.818825 -17.981508 
L 24.126574 -17.981346 
L 24.426637 -17.981183 
L 24.712362 -17.981021 
L 24.977021 -17.980858 
L 25.214075 -17.980696 
L 25.417458 -17.980534 
L 25.581855 -17.980371 
L 25.702954 -17.980209 
L 25.77767 -17.980046 
L 25.80431 -17.979884 
L 25.782684 -17.979721 
L 25.714148 -17.979559 
L 25.601569 -17.979397 
L 25.44923 -17.979234 
L 25.262671 -17.979072 
L 25.048473 -17.978909 
L 24.814003 -17.978747 
L 24.567141 -17.978584 
L 24.315985 -17.978422 
L 24.068566 -17.97826 
L 23.832582 -17.978097 
L 23.615151 -17.977935 
L 23.422609 -17.977772 
L 23.260337 -17.97761 
L 23.132642 -17.977447 
L 23.042671 -17.977285 
L 22.992374 -17.977123 
L 22.982494 -17.97696 
L 23.0126 -17.976798 
L 23.081144 -17.976635 
L 23.185551 -17.976473 
L 23.32232 -17.97631 
L 23.487159 -17.976148 
L 23.675128 -17.975986 
L 23.880804 -17.975823 
L 24.098458 -17.975661 
L 24.322243 -17.975498 
L 24.546394 -17.975336 
L 24.765425 -17.975173 
L 24.974333 -17.975011 
L 25.168787 -17.974849 
L 25.345306 -17.974686 
L 25.501411 -17.974524 
L 25.635751 -17.974361 
L 25.748177 -17.974199 
L 25.839787 -17.974036 
L 25.912904 -17.973874 
L 25.971001 -17.973712 
L 26.018578 -17.973549 
L 26.060968 -17.973387 
L 26.104106 -17.973224 
L 26.154246 -17.973062 
L 26.217645 -17.972899 
L 26.300236 -17.972737 
L 26.407292 -17.972575 
L 26.543101 -17.972412 
L 26.710681 -17.97225 
L 26.911537 -17.972087 
L 27.145482 -17.971925 
L 27.410539 -17.971762 
L 27.70292 -17.9716 
L 28.017102 -17.971438 
L 28.345987 -17.971275 
L 28.681145 -17.971113 
L 29.01313 -17.97095 
L 29.331852 -17.970788 
L 29.626986 -17.970625 
L 29.888402 -17.970463 
L 30.106582 -17.970301 
L 30.273019 -17.970138 
L 30.380559 -17.969976 
L 30.42369 -17.969813 
L 30.398744 -17.969651 
L 30.304019 -17.969488 
L 30.13981 -17.969326 
L 29.908355 -17.969163 
L 29.613699 -17.969001 
L 29.261487 -17.968839 
L 28.858703 -17.968676 
L 28.413366 -17.968514 
L 27.93421 -17.968351 
L 27.430343 -17.968189 
L 26.910931 -17.968026 
L 26.384894 -17.967864 
L 25.860642 -17.967702 
L 25.345854 -17.967539 
L 24.847305 -17.967377 
L 24.370747 -17.967214 
L 23.920836 -17.967052 
L 23.501116 -17.966889 
L 23.114043 -17.966727 
L 22.761039 -17.966565 
L 22.442592 -17.966402 
L 22.158362 -17.96624 
z
" style="stroke: #6f6f6f; stroke-width: 0.15"/>
    </defs>
    <g clip-path="url(#p04cfdb1a80)">
     <use xlink:href="#m508a4bb9f7" x="0" y="84.96" style="fill: #98daa7; stroke: #6f6f6f; stroke-width: 0.15"/>
    </g>
   </g>
   <g id="PolyCollection_2">
    <defs>
     <path id="m412ac3fbf5" d="M 46.84078 -17.66284 
L 43.455783 -17.66284 
L 43.112201 -17.698627 
L 42.726927 -17.734413 
L 42.301453 -17.770199 
L 41.838846 -17.805985 
L 41.343808 -17.841772 
L 40.822632 -17.877558 
L 40.283046 -17.913344 
L 39.733952 -17.949131 
L 39.185059 -17.984917 
L 38.646441 -18.020703 
L 38.128038 -18.056489 
L 37.639153 -18.092276 
L 37.187979 -18.128062 
L 36.781196 -18.163848 
L 36.423687 -18.199634 
L 36.118381 -18.235421 
L 35.866266 -18.271207 
L 35.66654 -18.306993 
L 35.516905 -18.34278 
L 35.413968 -18.378566 
L 35.353694 -18.414352 
L 35.331887 -18.450138 
L 35.344617 -18.485925 
L 35.388579 -18.521711 
L 35.461328 -18.557497 
L 35.561378 -18.593283 
L 35.688155 -18.62907 
L 35.841823 -18.664856 
L 36.022998 -18.700642 
L 36.232397 -18.736429 
L 36.470456 -18.772215 
L 36.736967 -18.808001 
L 37.030779 -18.843787 
L 37.349587 -18.879574 
L 37.689845 -18.91536 
L 38.046801 -18.951146 
L 38.414663 -18.986932 
L 38.786873 -19.022719 
L 39.156471 -19.058505 
L 39.516505 -19.094291 
L 39.86047 -19.130078 
L 40.182714 -19.165864 
L 40.478796 -19.20165 
L 40.745754 -19.237436 
L 40.982266 -19.273223 
L 41.188691 -19.309009 
L 41.366989 -19.344795 
L 41.520526 -19.380582 
L 41.65378 -19.416368 
L 41.77198 -19.452154 
L 41.8807 -19.48794 
L 41.985444 -19.523727 
L 42.091263 -19.559513 
L 42.202411 -19.595299 
L 42.322085 -19.631085 
L 42.452254 -19.666872 
L 42.593583 -19.702658 
L 42.745454 -19.738444 
L 42.906067 -19.774231 
L 43.072615 -19.810017 
L 43.24151 -19.845803 
L 43.408624 -19.881589 
L 43.569557 -19.917376 
L 43.719873 -19.953162 
L 43.855332 -19.988948 
L 43.972071 -20.024734 
L 44.066762 -20.060521 
L 44.13673 -20.096307 
L 44.180037 -20.132093 
L 44.195545 -20.16788 
L 44.182949 -20.203666 
L 44.142804 -20.239452 
L 44.076531 -20.275238 
L 43.986402 -20.311025 
L 43.875511 -20.346811 
L 43.747723 -20.382597 
L 43.607585 -20.418383 
L 43.460205 -20.45417 
L 43.311096 -20.489956 
L 43.165984 -20.525742 
L 43.030586 -20.561529 
L 42.910367 -20.597315 
L 42.810291 -20.633101 
L 42.734587 -20.668887 
L 42.686542 -20.704674 
L 42.668335 -20.74046 
L 42.680938 -20.776246 
L 42.724081 -20.812032 
L 42.796291 -20.847819 
L 42.895003 -20.883605 
L 43.016729 -20.919391 
L 43.157276 -20.955178 
L 43.312001 -20.990964 
L 43.476063 -21.02675 
L 43.644681 -21.062536 
L 43.81336 -21.098323 
L 43.978075 -21.134109 
L 44.135417 -21.169895 
L 44.282671 -21.205681 
L 46.013891 -21.205681 
L 46.013891 -21.205681 
L 46.161146 -21.169895 
L 46.318487 -21.134109 
L 46.483203 -21.098323 
L 46.651881 -21.062536 
L 46.8205 -21.02675 
L 46.984562 -20.990964 
L 47.139286 -20.955178 
L 47.279834 -20.919391 
L 47.40156 -20.883605 
L 47.500272 -20.847819 
L 47.572482 -20.812032 
L 47.615625 -20.776246 
L 47.628228 -20.74046 
L 47.61002 -20.704674 
L 47.561975 -20.668887 
L 47.486271 -20.633101 
L 47.386195 -20.597315 
L 47.265976 -20.561529 
L 47.130578 -20.525742 
L 46.985467 -20.489956 
L 46.836358 -20.45417 
L 46.688977 -20.418383 
L 46.548839 -20.382597 
L 46.421051 -20.346811 
L 46.310161 -20.311025 
L 46.220031 -20.275238 
L 46.153758 -20.239452 
L 46.113614 -20.203666 
L 46.101018 -20.16788 
L 46.116525 -20.132093 
L 46.159832 -20.096307 
L 46.2298 -20.060521 
L 46.324492 -20.024734 
L 46.44123 -19.988948 
L 46.576689 -19.953162 
L 46.727006 -19.917376 
L 46.887938 -19.881589 
L 47.055053 -19.845803 
L 47.223947 -19.810017 
L 47.390496 -19.774231 
L 47.551108 -19.738444 
L 47.702979 -19.702658 
L 47.844309 -19.666872 
L 47.974478 -19.631085 
L 48.094152 -19.595299 
L 48.205299 -19.559513 
L 48.311118 -19.523727 
L 48.415863 -19.48794 
L 48.524582 -19.452154 
L 48.642782 -19.416368 
L 48.776036 -19.380582 
L 48.929573 -19.344795 
L 49.107872 -19.309009 
L 49.314297 -19.273223 
L 49.550808 -19.237436 
L 49.817766 -19.20165 
L 50.113848 -19.165864 
L 50.436093 -19.130078 
L 50.780058 -19.094291 
L 51.140092 -19.058505 
L 51.509689 -19.022719 
L 51.881899 -18.986932 
L 52.249761 -18.951146 
L 52.606717 -18.91536 
L 52.946975 -18.879574 
L 53.265784 -18.843787 
L 53.559595 -18.808001 
L 53.826106 -18.772215 
L 54.064165 -18.736429 
L 54.273565 -18.700642 
L 54.45474 -18.664856 
L 54.608408 -18.62907 
L 54.735185 -18.593283 
L 54.835234 -18.557497 
L 54.907984 -18.521711 
L 54.951946 -18.485925 
L 54.964676 -18.450138 
L 54.942868 -18.414352 
L 54.882595 -18.378566 
L 54.779657 -18.34278 
L 54.630023 -18.306993 
L 54.430296 -18.271207 
L 54.178181 -18.235421 
L 53.872876 -18.199634 
L 53.515366 -18.163848 
L 53.108584 -18.128062 
L 52.65741 -18.092276 
L 52.168525 -18.056489 
L 51.650122 -18.020703 
L 51.111503 -17.984917 
L 50.562611 -17.949131 
L 50.013517 -17.913344 
L 49.473931 -17.877558 
L 48.952754 -17.841772 
L 48.457717 -17.805985 
L 47.99511 -17.770199 
L 47.569635 -17.734413 
L 47.184361 -17.698627 
L 46.84078 -17.66284 
z
" style="stroke: #6f6f6f; stroke-width: 0.15"/>
    </defs>
    <g clip-path="url(#p04cfdb1a80)">
     <use xlink:href="#m412ac3fbf5" x="0" y="84.96" style="fill: #f2aba8; stroke: #6f6f6f; stroke-width: 0.15"/>
    </g>
   </g>
   <g id="PolyCollection_3">
    <defs>
     <path id="me246189b68" d="M 71.700464 -17.918636 
L 67.67807 -17.918636 
L 67.326485 -17.922242 
L 66.938981 -17.925849 
L 66.517153 -17.929455 
L 66.063741 -17.933061 
L 65.582668 -17.936668 
L 65.079029 -17.940274 
L 64.559016 -17.94388 
L 64.029794 -17.947487 
L 63.499317 -17.951093 
L 62.9761 -17.954699 
L 62.468952 -17.958306 
L 61.986691 -17.961912 
L 61.537846 -17.965518 
L 61.130379 -17.969125 
L 60.771421 -17.972731 
L 60.467055 -17.976337 
L 60.222154 -17.979944 
L 60.040267 -17.98355 
L 59.923569 -17.987156 
L 59.872873 -17.990763 
L 59.887687 -17.994369 
L 59.96632 -17.997975 
L 60.106012 -18.001582 
L 60.303089 -18.005188 
L 60.553125 -18.008794 
L 60.851096 -18.012401 
L 61.191535 -18.016007 
L 61.568662 -18.019613 
L 61.976501 -18.02322 
L 62.408985 -18.026826 
L 62.86004 -18.030432 
L 63.323667 -18.034039 
L 63.794009 -18.037645 
L 64.265419 -18.041251 
L 64.732529 -18.044858 
L 65.19031 -18.048464 
L 65.634138 -18.05207 
L 66.059851 -18.055676 
L 66.4638 -18.059283 
L 66.842885 -18.062889 
L 67.194586 -18.066495 
L 67.516962 -18.070102 
L 67.808647 -18.073708 
L 68.068817 -18.077314 
L 68.297143 -18.080921 
L 68.493735 -18.084527 
L 68.659074 -18.088133 
L 68.793936 -18.09174 
L 68.899329 -18.095346 
L 68.976421 -18.098952 
L 69.026494 -18.102559 
L 69.050901 -18.106165 
L 69.051043 -18.109771 
L 69.028362 -18.113378 
L 68.984339 -18.116984 
L 68.920517 -18.12059 
L 68.838519 -18.124197 
L 68.74007 -18.127803 
L 68.627022 -18.131409 
L 68.501367 -18.135016 
L 68.365238 -18.138622 
L 68.220906 -18.142228 
L 68.070751 -18.145835 
L 67.917228 -18.149441 
L 67.762825 -18.153047 
L 67.610004 -18.156654 
L 67.461146 -18.16026 
L 67.318498 -18.163866 
L 67.184123 -18.167473 
L 67.059863 -18.171079 
L 66.947314 -18.174685 
L 66.847816 -18.178292 
L 66.762458 -18.181898 
L 66.692088 -18.185504 
L 66.637347 -18.189111 
L 66.598686 -18.192717 
L 66.576402 -18.196323 
L 66.570657 -18.199929 
L 66.581493 -18.203536 
L 66.608839 -18.207142 
L 66.6525 -18.210748 
L 66.712145 -18.214355 
L 66.787279 -18.217961 
L 66.877222 -18.221567 
L 66.981079 -18.225174 
L 67.097723 -18.22878 
L 67.225787 -18.232386 
L 67.36367 -18.235993 
L 67.509559 -18.239599 
L 67.661461 -18.243205 
L 67.81726 -18.246812 
L 67.974776 -18.250418 
L 68.131835 -18.254024 
L 68.286338 -18.257631 
L 68.436335 -18.261237 
L 68.580079 -18.264843 
L 68.716081 -18.26845 
L 68.843144 -18.272056 
L 68.960383 -18.275662 
L 70.418151 -18.275662 
L 70.418151 -18.275662 
L 70.53539 -18.272056 
L 70.662453 -18.26845 
L 70.798455 -18.264843 
L 70.942199 -18.261237 
L 71.092196 -18.257631 
L 71.246699 -18.254024 
L 71.403758 -18.250418 
L 71.561274 -18.246812 
L 71.717073 -18.243205 
L 71.868975 -18.239599 
L 72.014864 -18.235993 
L 72.152747 -18.232386 
L 72.280812 -18.22878 
L 72.397455 -18.225174 
L 72.501312 -18.221567 
L 72.591255 -18.217961 
L 72.666389 -18.214355 
L 72.726034 -18.210748 
L 72.769695 -18.207142 
L 72.797041 -18.203536 
L 72.807877 -18.199929 
L 72.802132 -18.196323 
L 72.779848 -18.192717 
L 72.741187 -18.189111 
L 72.686446 -18.185504 
L 72.616077 -18.181898 
L 72.530718 -18.178292 
L 72.43122 -18.174685 
L 72.318671 -18.171079 
L 72.194411 -18.167473 
L 72.060036 -18.163866 
L 71.917388 -18.16026 
L 71.76853 -18.156654 
L 71.615709 -18.153047 
L 71.461306 -18.149441 
L 71.307784 -18.145835 
L 71.157628 -18.142228 
L 71.013296 -18.138622 
L 70.877168 -18.135016 
L 70.751512 -18.131409 
L 70.638465 -18.127803 
L 70.540016 -18.124197 
L 70.458017 -18.12059 
L 70.394195 -18.116984 
L 70.350173 -18.113378 
L 70.327491 -18.109771 
L 70.327633 -18.106165 
L 70.352041 -18.102559 
L 70.402113 -18.098952 
L 70.479205 -18.095346 
L 70.584598 -18.09174 
L 70.71946 -18.088133 
L 70.884799 -18.084527 
L 71.081392 -18.080921 
L 71.309718 -18.077314 
L 71.569887 -18.073708 
L 71.861572 -18.070102 
L 72.183948 -18.066495 
L 72.535649 -18.062889 
L 72.914735 -18.059283 
L 73.318683 -18.055676 
L 73.744396 -18.05207 
L 74.188225 -18.048464 
L 74.646006 -18.044858 
L 75.113115 -18.041251 
L 75.584525 -18.037645 
L 76.054867 -18.034039 
L 76.518494 -18.030432 
L 76.96955 -18.026826 
L 77.402033 -18.02322 
L 77.809872 -18.019613 
L 78.186999 -18.016007 
L 78.527438 -18.012401 
L 78.825409 -18.008794 
L 79.075445 -18.005188 
L 79.272522 -18.001582 
L 79.412214 -17.997975 
L 79.490847 -17.994369 
L 79.505661 -17.990763 
L 79.454965 -17.987156 
L 79.338267 -17.98355 
L 79.15638 -17.979944 
L 78.911479 -17.976337 
L 78.607114 -17.972731 
L 78.248155 -17.969125 
L 77.840688 -17.965518 
L 77.391844 -17.961912 
L 76.909582 -17.958306 
L 76.402434 -17.954699 
L 75.879217 -17.951093 
L 75.34874 -17.947487 
L 74.819518 -17.94388 
L 74.299505 -17.940274 
L 73.795866 -17.936668 
L 73.314793 -17.933061 
L 72.861381 -17.929455 
L 72.439553 -17.925849 
L 72.05205 -17.922242 
L 71.700464 -17.918636 
z
" style="stroke: #6f6f6f; stroke-width: 0.15"/>
    </defs>
    <g clip-path="url(#p04cfdb1a80)">
     <use xlink:href="#me246189b68" x="0" y="84.96" style="fill: #d3c4f6; stroke: #6f6f6f; stroke-width: 0.15"/>
    </g>
   </g>
   <g id="line2d_7">
    <path d="M 20.607295 66.991371 
L 20.607295 66.980069 
" clip-path="url(#p04cfdb1a80)" style="fill: none; stroke: #8c8c8c; stroke-width: 0.75; stroke-linecap: round"/>
   </g>
   <g id="line2d_8">
    <path d="M 20.607295 66.989961 
L 20.607295 66.983979 
" clip-path="url(#p04cfdb1a80)" style="fill: none; stroke: #8c8c8c; stroke-width: 4; stroke-linecap: round"/>
   </g>
   <g id="line2d_9">
    <path d="M 20.607295 66.988159 
" clip-path="url(#p04cfdb1a80)" style="fill: none; stroke: #6f6f6f; stroke-width: 1.2; stroke-linecap: round"/>
    <defs>
     <path id="mb0c0705e89" d="M 0 0.833333 
C 0.221003 0.833333 0.432983 0.745528 0.589256 0.589256 
C 0.745528 0.432983 0.833333 0.221003 0.833333 0 
C 0.833333 -0.221003 0.745528 -0.432983 0.589256 -0.589256 
C 0.432983 -0.745528 0.221003 -0.833333 0 -0.833333 
C -0.221003 -0.833333 -0.432983 -0.745528 -0.589256 -0.589256 
C -0.745528 -0.432983 -0.833333 -0.221003 -0.833333 0 
C -0.833333 0.221003 -0.745528 0.432983 -0.589256 0.589256 
C -0.432983 0.745528 -0.221003 0.833333 0 0.833333 
z
" style="stroke: #ffffff; stroke-width: 0.8"/>
    </defs>
    <g clip-path="url(#p04cfdb1a80)">
     <use xlink:href="#mb0c0705e89" x="20.607295" y="66.988159" style="fill: #ffffff; stroke: #ffffff; stroke-width: 0.8"/>
    </g>
   </g>
   <g id="line2d_10">
    <path d="M 45.148281 66.836839 
L 45.148281 65.368299 
" clip-path="url(#p04cfdb1a80)" style="fill: none; stroke: #8c8c8c; stroke-width: 0.75; stroke-linecap: round"/>
   </g>
   <g id="line2d_11">
    <path d="M 45.148281 66.685158 
L 45.148281 65.835042 
" clip-path="url(#p04cfdb1a80)" style="fill: none; stroke: #8c8c8c; stroke-width: 4; stroke-linecap: round"/>
   </g>
   <g id="line2d_12">
    <path d="M 45.148281 66.246405 
" clip-path="url(#p04cfdb1a80)" style="fill: none; stroke: #6f6f6f; stroke-width: 1.2; stroke-linecap: round"/>
    <g clip-path="url(#p04cfdb1a80)">
     <use xlink:href="#mb0c0705e89" x="45.148281" y="66.246405" style="fill: #ffffff; stroke: #ffffff; stroke-width: 0.8"/>
    </g>
   </g>
   <g id="line2d_13">
    <path d="M 69.689267 66.989781 
L 69.689267 66.785323 
" clip-path="url(#p04cfdb1a80)" style="fill: none; stroke: #8c8c8c; stroke-width: 0.75; stroke-linecap: round"/>
   </g>
   <g id="line2d_14">
    <path d="M 69.689267 66.977287 
L 69.689267 66.895085 
" clip-path="url(#p04cfdb1a80)" style="fill: none; stroke: #8c8c8c; stroke-width: 4; stroke-linecap: round"/>
   </g>
   <g id="line2d_15">
    <path d="M 69.689267 66.95423 
" clip-path="url(#p04cfdb1a80)" style="fill: none; stroke: #6f6f6f; stroke-width: 1.2; stroke-linecap: round"/>
    <g clip-path="url(#p04cfdb1a80)">
     <use xlink:href="#mb0c0705e89" x="69.689267" y="66.95423" style="fill: #ffffff; stroke: #ffffff; stroke-width: 0.8"/>
    </g>
   </g>
   <g id="patch_3">
    <path d="M 8.336802 74.419526 
L 8.336802 4.076256 
" style="fill: none; stroke: #777777; stroke-width: 0.5; stroke-linejoin: miter; stroke-linecap: square"/>
   </g>
   <g id="patch_4">
    <path d="M 8.336802 76.919526 
L 81.95976 76.919526 
" style="fill: none; stroke: #777777; stroke-width: 0.5; stroke-linejoin: miter; stroke-linecap: square"/>
   </g>
  </g>
 </g>
 <defs>
  <clipPath id="p04cfdb1a80">
   <rect x="8.336802" y="4.076256" width="73.622957" height="70.34327"/>
  </clipPath>
 </defs>
</svg>
