<?xml version="1.0" encoding="utf-8" standalone="no"?>
<!DOCTYPE svg PUBLIC "-//W3C//DTD SVG 1.1//EN"
  "http://www.w3.org/Graphics/SVG/1.1/DTD/svg11.dtd">
<svg xmlns:xlink="http://www.w3.org/1999/xlink" width="141.12pt" height="84.96pt" viewBox="0 0 141.12 84.96" xmlns="http://www.w3.org/2000/svg" version="1.1">
 <metadata>
  <rdf:RDF xmlns:dc="http://purl.org/dc/elements/1.1/" xmlns:cc="http://creativecommons.org/ns#" xmlns:rdf="http://www.w3.org/1999/02/22-rdf-syntax-ns#">
   <cc:Work>
    <dc:type rdf:resource="http://purl.org/dc/dcmitype/StillImage"/>
    <dc:date>2024-05-27T15:37:12.576850</dc:date>
    <dc:format>image/svg+xml</dc:format>
    <dc:creator>
     <cc:Agent>
      <dc:title>Matplotlib v3.8.3, https://matplotlib.org/</dc:title>
     </cc:Agent>
    </dc:creator>
   </cc:Work>
  </rdf:RDF>
 </metadata>
 <defs>
  <style type="text/css">*{stroke-linejoin: round; stroke-linecap: butt}</style>
 </defs>
 <g id="figure_1">
  <g id="patch_1">
   <path d="M 0 84.96 
L 141.12 84.96 
L 141.12 0 
L 0 0 
z
" style="fill: #ffffff"/>
  </g>
  <g id="axes_1">
   <g id="patch_2">
    <path d="M 10.005084 74.395463 
L 138.11976 74.395463 
L 138.11976 4.076256 
L 10.005084 4.076256 
z
" style="fill: #ffffff"/>
   </g>
   <g id="matplotlib.axis_1">
    <g id="xtick_1">
     <g id="text_1">
      <!-- CD3+ Cells -->
      <g style="fill: #333333" transform="translate(13.917801 81.206166) scale(0.035 -0.035)">
       <defs>
        <path id="Helvetica-43" d="M 2422 4716 
Q 3294 4716 3775 4256 
Q 4256 3797 4309 3213 
L 3703 3213 
Q 3600 3656 3292 3915 
Q 2984 4175 2428 4175 
Q 1750 4175 1333 3698 
Q 916 3222 916 2238 
Q 916 1431 1292 929 
Q 1669 428 2416 428 
Q 3103 428 3463 956 
Q 3653 1234 3747 1688 
L 4353 1688 
Q 4272 963 3816 472 
Q 3269 -119 2341 -119 
Q 1541 -119 997 366 
Q 281 1006 281 2344 
Q 281 3359 819 4009 
Q 1400 4716 2422 4716 
z
M 2297 4716 
L 2297 4716 
z
" transform="scale(0.015625)"/>
        <path id="Helvetica-44" d="M 2250 531 
Q 2566 531 2769 597 
Q 3131 719 3363 1066 
Q 3547 1344 3628 1778 
Q 3675 2038 3675 2259 
Q 3675 3113 3336 3584 
Q 2997 4056 2244 4056 
L 1141 4056 
L 1141 531 
L 2250 531 
z
M 516 4591 
L 2375 4591 
Q 3322 4591 3844 3919 
Q 4309 3313 4309 2366 
Q 4309 1634 4034 1044 
Q 3550 0 2369 0 
L 516 0 
L 516 4591 
z
" transform="scale(0.015625)"/>
        <path id="Helvetica-33" d="M 1663 -122 
Q 869 -122 511 314 
Q 153 750 153 1375 
L 741 1375 
Q 778 941 903 744 
Q 1122 391 1694 391 
Q 2138 391 2406 628 
Q 2675 866 2675 1241 
Q 2675 1703 2392 1887 
Q 2109 2072 1606 2072 
Q 1550 2072 1492 2070 
Q 1434 2069 1375 2066 
L 1375 2563 
Q 1463 2553 1522 2550 
Q 1581 2547 1650 2547 
Q 1966 2547 2169 2647 
Q 2525 2822 2525 3272 
Q 2525 3606 2287 3787 
Q 2050 3969 1734 3969 
Q 1172 3969 956 3594 
Q 838 3388 822 3006 
L 266 3006 
Q 266 3506 466 3856 
Q 809 4481 1675 4481 
Q 2359 4481 2734 4176 
Q 3109 3872 3109 3294 
Q 3109 2881 2888 2625 
Q 2750 2466 2531 2375 
Q 2884 2278 3082 2001 
Q 3281 1725 3281 1325 
Q 3281 684 2859 281 
Q 2438 -122 1663 -122 
z
" transform="scale(0.015625)"/>
        <path id="Helvetica-2b" d="M 288 1369 
L 288 1894 
L 1650 1894 
L 1650 3266 
L 2184 3266 
L 2184 1894 
L 3547 1894 
L 3547 1369 
L 2184 1369 
L 2184 0 
L 1650 0 
L 1650 1369 
L 288 1369 
z
" transform="scale(0.015625)"/>
        <path id="Helvetica-20" transform="scale(0.015625)"/>
        <path id="Helvetica-65" d="M 1806 3422 
Q 2163 3422 2497 3255 
Q 2831 3088 3006 2822 
Q 3175 2569 3231 2231 
Q 3281 2000 3281 1494 
L 828 1494 
Q 844 984 1069 676 
Q 1294 369 1766 369 
Q 2206 369 2469 659 
Q 2619 828 2681 1050 
L 3234 1050 
Q 3213 866 3089 639 
Q 2966 413 2813 269 
Q 2556 19 2178 -69 
Q 1975 -119 1719 -119 
Q 1094 -119 659 336 
Q 225 791 225 1609 
Q 225 2416 662 2919 
Q 1100 3422 1806 3422 
z
M 2703 1941 
Q 2669 2306 2544 2525 
Q 2313 2931 1772 2931 
Q 1384 2931 1121 2651 
Q 859 2372 844 1941 
L 2703 1941 
z
M 1753 3428 
L 1753 3428 
z
" transform="scale(0.015625)"/>
        <path id="Helvetica-6c" d="M 428 4591 
L 991 4591 
L 991 0 
L 428 0 
L 428 4591 
z
" transform="scale(0.015625)"/>
        <path id="Helvetica-73" d="M 747 1050 
Q 772 769 888 619 
Q 1100 347 1625 347 
Q 1938 347 2175 483 
Q 2413 619 2413 903 
Q 2413 1119 2222 1231 
Q 2100 1300 1741 1391 
L 1294 1503 
Q 866 1609 663 1741 
Q 300 1969 300 2372 
Q 300 2847 642 3140 
Q 984 3434 1563 3434 
Q 2319 3434 2653 2991 
Q 2863 2709 2856 2384 
L 2325 2384 
Q 2309 2575 2191 2731 
Q 1997 2953 1519 2953 
Q 1200 2953 1036 2831 
Q 872 2709 872 2509 
Q 872 2291 1088 2159 
Q 1213 2081 1456 2022 
L 1828 1931 
Q 2434 1784 2641 1647 
Q 2969 1431 2969 969 
Q 2969 522 2630 197 
Q 2291 -128 1597 -128 
Q 850 -128 539 211 
Q 228 550 206 1050 
L 747 1050 
z
M 1578 3428 
L 1578 3428 
z
" transform="scale(0.015625)"/>
       </defs>
       <use xlink:href="#Helvetica-43"/>
       <use xlink:href="#Helvetica-44" x="72.216797"/>
       <use xlink:href="#Helvetica-33" x="144.433594"/>
       <use xlink:href="#Helvetica-2b" x="200.048828"/>
       <use xlink:href="#Helvetica-20" x="258.447266"/>
       <use xlink:href="#Helvetica-43" x="286.230469"/>
       <use xlink:href="#Helvetica-65" x="358.447266"/>
       <use xlink:href="#Helvetica-6c" x="414.0625"/>
       <use xlink:href="#Helvetica-6c" x="436.279297"/>
       <use xlink:href="#Helvetica-73" x="458.496094"/>
      </g>
     </g>
    </g>
    <g id="xtick_2">
     <g id="text_2">
      <!-- TCRαδ+ Cells -->
      <g style="fill: #333333" transform="translate(37.307299 81.206166) scale(0.035 -0.035)">
       <defs>
        <path id="Helvetica-54" d="M 3828 4591 
L 3828 4044 
L 2281 4044 
L 2281 0 
L 1650 0 
L 1650 4044 
L 103 4044 
L 103 4591 
L 3828 4591 
z
" transform="scale(0.015625)"/>
        <path id="Helvetica-52" d="M 2622 2488 
Q 3059 2488 3314 2663 
Q 3569 2838 3569 3294 
Q 3569 3784 3213 3963 
Q 3022 4056 2703 4056 
L 1184 4056 
L 1184 2488 
L 2622 2488 
z
M 563 4591 
L 2688 4591 
Q 3213 4591 3553 4438 
Q 4200 4144 4200 3353 
Q 4200 2941 4029 2678 
Q 3859 2416 3553 2256 
Q 3822 2147 3958 1969 
Q 4094 1791 4109 1391 
L 4131 775 
Q 4141 513 4175 384 
Q 4231 166 4375 103 
L 4375 0 
L 3613 0 
Q 3581 59 3562 153 
Q 3544 247 3531 516 
L 3494 1281 
Q 3472 1731 3159 1884 
Q 2981 1969 2600 1969 
L 1184 1969 
L 1184 0 
L 563 0 
L 563 4591 
z
" transform="scale(0.015625)"/>
        <path id="Helvetica-3b1" d="M 3347 703 
Q 3334 428 3525 434 
Q 3641 434 3700 475 
L 3700 -19 
Q 3628 -44 3513 -50 
Q 3391 -63 3309 -63 
Q 3084 -56 2956 103 
Q 2816 256 2816 475 
L 2803 475 
Q 2413 -63 1734 -63 
Q 1006 -50 647 459 
Q 281 953 281 1644 
Q 281 2350 634 2859 
Q 984 3378 1741 3391 
Q 2413 3391 2797 2847 
L 2809 2847 
L 2809 3328 
L 3347 3328 
L 3347 703 
z
M 1825 397 
Q 2075 397 2253 513 
Q 2425 622 2541 806 
Q 2766 1184 2766 1638 
Q 2766 2144 2559 2528 
Q 2350 2919 1797 2931 
Q 1306 2919 1081 2534 
Q 856 2156 856 1697 
Q 856 1209 1081 819 
Q 1306 409 1825 397 
z
" transform="scale(0.015625)"/>
        <path id="Helvetica-3b4" d="M 666 4519 
L 3188 4519 
L 3188 4056 
L 1394 4056 
L 1394 4044 
L 2509 3303 
Q 3134 2881 3372 2469 
Q 3591 2053 3584 1600 
Q 3578 934 3163 447 
Q 2738 -50 1938 -63 
Q 1203 -56 769 403 
Q 331 850 325 1556 
Q 341 3066 1863 3188 
L 1863 3200 
L 666 4056 
L 666 4519 
z
M 1991 397 
Q 2497 403 2731 794 
Q 2969 1166 2969 1606 
Q 2969 1856 2919 2041 
Q 2866 2222 2791 2344 
Q 2713 2463 2638 2541 
Q 2559 2619 2509 2650 
Q 2381 2766 2156 2766 
Q 947 2766 941 1528 
Q 941 1056 1216 738 
Q 1491 403 1991 397 
z
" transform="scale(0.015625)"/>
       </defs>
       <use xlink:href="#Helvetica-54"/>
       <use xlink:href="#Helvetica-43" x="61.083984"/>
       <use xlink:href="#Helvetica-52" x="133.300781"/>
       <use xlink:href="#Helvetica-3b1" x="205.517578"/>
       <use xlink:href="#Helvetica-3b4" x="266.601562"/>
       <use xlink:href="#Helvetica-2b" x="327.685547"/>
       <use xlink:href="#Helvetica-20" x="386.083984"/>
       <use xlink:href="#Helvetica-43" x="413.867188"/>
       <use xlink:href="#Helvetica-65" x="486.083984"/>
       <use xlink:href="#Helvetica-6c" x="541.699219"/>
       <use xlink:href="#Helvetica-6c" x="563.916016"/>
       <use xlink:href="#Helvetica-73" x="586.132812"/>
      </g>
     </g>
    </g>
    <g id="xtick_3">
     <g id="text_3">
      <!-- IL7R+ Cells -->
      <g style="fill: #333333" transform="translate(64.968164 81.206166) scale(0.035 -0.035)">
       <defs>
        <path id="Helvetica-49" d="M 628 4591 
L 1256 4591 
L 1256 0 
L 628 0 
L 628 4591 
z
" transform="scale(0.015625)"/>
        <path id="Helvetica-4c" d="M 488 4591 
L 1109 4591 
L 1109 547 
L 3434 547 
L 3434 0 
L 488 0 
L 488 4591 
z
" transform="scale(0.015625)"/>
        <path id="Helvetica-37" d="M 3347 4400 
L 3347 3909 
Q 3131 3700 2773 3181 
Q 2416 2663 2141 2063 
Q 1869 1478 1728 997 
Q 1638 688 1494 0 
L 872 0 
Q 1084 1281 1809 2550 
Q 2238 3294 2709 3834 
L 234 3834 
L 234 4400 
L 3347 4400 
z
" transform="scale(0.015625)"/>
       </defs>
       <use xlink:href="#Helvetica-49"/>
       <use xlink:href="#Helvetica-4c" x="27.783203"/>
       <use xlink:href="#Helvetica-37" x="83.398438"/>
       <use xlink:href="#Helvetica-52" x="139.013672"/>
       <use xlink:href="#Helvetica-2b" x="211.230469"/>
       <use xlink:href="#Helvetica-20" x="269.628906"/>
       <use xlink:href="#Helvetica-43" x="297.412109"/>
       <use xlink:href="#Helvetica-65" x="369.628906"/>
       <use xlink:href="#Helvetica-6c" x="425.244141"/>
       <use xlink:href="#Helvetica-6c" x="447.460938"/>
       <use xlink:href="#Helvetica-73" x="469.677734"/>
      </g>
     </g>
    </g>
    <g id="xtick_4">
     <g id="text_4">
      <!-- RORγT+ Cells -->
      <g style="fill: #333333" transform="translate(88.356568 81.230229) scale(0.035 -0.035)">
       <defs>
        <path id="Helvetica-4f" d="M 2469 4716 
Q 3684 4716 4269 3934 
Q 4725 3325 4725 2375 
Q 4725 1347 4203 666 
Q 3591 -134 2456 -134 
Q 1397 -134 791 566 
Q 250 1241 250 2272 
Q 250 3203 713 3866 
Q 1306 4716 2469 4716 
z
M 2531 422 
Q 3353 422 3720 1011 
Q 4088 1600 4088 2366 
Q 4088 3175 3664 3669 
Q 3241 4163 2506 4163 
Q 1794 4163 1344 3673 
Q 894 3184 894 2231 
Q 894 1469 1280 945 
Q 1666 422 2531 422 
z
M 2488 4716 
L 2488 4716 
z
" transform="scale(0.015625)"/>
        <path id="Helvetica-3b3" d="M 1556 225 
L 581 2444 
Q 481 2700 416 2803 
Q 347 2894 244 2894 
Q 91 2888 56 2872 
L 56 3334 
Q 166 3384 313 3391 
Q 641 3391 788 3250 
Q 863 3188 922 3078 
Q 978 2963 1038 2809 
L 1844 878 
L 2828 3328 
L 3431 3328 
L 2131 225 
L 2131 -1253 
L 1556 -1253 
L 1556 225 
z
" transform="scale(0.015625)"/>
       </defs>
       <use xlink:href="#Helvetica-52"/>
       <use xlink:href="#Helvetica-4f" x="72.216797"/>
       <use xlink:href="#Helvetica-52" x="150"/>
       <use xlink:href="#Helvetica-3b3" x="222.216797"/>
       <use xlink:href="#Helvetica-54" x="277.832031"/>
       <use xlink:href="#Helvetica-2b" x="338.916016"/>
       <use xlink:href="#Helvetica-20" x="397.314453"/>
       <use xlink:href="#Helvetica-43" x="425.097656"/>
       <use xlink:href="#Helvetica-65" x="497.314453"/>
       <use xlink:href="#Helvetica-6c" x="552.929688"/>
       <use xlink:href="#Helvetica-6c" x="575.146484"/>
       <use xlink:href="#Helvetica-73" x="597.363281"/>
      </g>
     </g>
    </g>
    <g id="xtick_5">
     <g id="text_5">
      <!-- AHR+ Cells -->
      <g style="fill: #333333" transform="translate(116.215402 81.206166) scale(0.035 -0.035)">
       <defs>
        <path id="Helvetica-41" d="M 2844 1881 
L 2147 3909 
L 1406 1881 
L 2844 1881 
z
M 1822 4591 
L 2525 4591 
L 4191 0 
L 3509 0 
L 3044 1375 
L 1228 1375 
L 731 0 
L 94 0 
L 1822 4591 
z
" transform="scale(0.015625)"/>
        <path id="Helvetica-48" d="M 503 4591 
L 1131 4591 
L 1131 2694 
L 3519 2694 
L 3519 4591 
L 4147 4591 
L 4147 0 
L 3519 0 
L 3519 2147 
L 1131 2147 
L 1131 0 
L 503 0 
L 503 4591 
z
" transform="scale(0.015625)"/>
       </defs>
       <use xlink:href="#Helvetica-41"/>
       <use xlink:href="#Helvetica-48" x="66.699219"/>
       <use xlink:href="#Helvetica-52" x="138.916016"/>
       <use xlink:href="#Helvetica-2b" x="211.132812"/>
       <use xlink:href="#Helvetica-20" x="269.53125"/>
       <use xlink:href="#Helvetica-43" x="297.314453"/>
       <use xlink:href="#Helvetica-65" x="369.53125"/>
       <use xlink:href="#Helvetica-6c" x="425.146484"/>
       <use xlink:href="#Helvetica-6c" x="447.363281"/>
       <use xlink:href="#Helvetica-73" x="469.580078"/>
      </g>
     </g>
    </g>
   </g>
   <g id="matplotlib.axis_2">
    <g id="ytick_1">
     <g id="line2d_1">
      <defs>
       <path id="mb198529ded" d="M 0 0 
L -1 0 
" style="stroke: #777777; stroke-width: 0.5"/>
      </defs>
      <g>
       <use xlink:href="#mb198529ded" x="10.005084" y="66.168271" style="fill: #777777; stroke: #777777; stroke-width: 0.5"/>
      </g>
     </g>
     <g id="text_6">
      <!-- 0 -->
      <g style="fill: #333333" transform="translate(6.336803 67.244287) scale(0.03 -0.03)">
       <defs>
        <path id="Helvetica-30" d="M 1731 4475 
Q 2600 4475 2988 3759 
Q 3288 3206 3288 2244 
Q 3288 1331 3016 734 
Q 2622 -122 1728 -122 
Q 922 -122 528 578 
Q 200 1163 200 2147 
Q 200 2909 397 3456 
Q 766 4475 1731 4475 
z
M 1725 391 
Q 2163 391 2422 778 
Q 2681 1166 2681 2222 
Q 2681 2984 2493 3476 
Q 2306 3969 1766 3969 
Q 1269 3969 1039 3501 
Q 809 3034 809 2125 
Q 809 1441 956 1025 
Q 1181 391 1725 391 
z
" transform="scale(0.015625)"/>
       </defs>
       <use xlink:href="#Helvetica-30"/>
      </g>
     </g>
    </g>
    <g id="ytick_2">
     <g id="line2d_2">
      <g>
       <use xlink:href="#mb198529ded" x="10.005084" y="55.819602" style="fill: #777777; stroke: #777777; stroke-width: 0.5"/>
      </g>
     </g>
     <g id="text_7">
      <!-- 20 -->
      <g style="fill: #333333" transform="translate(4.668521 56.895617) scale(0.03 -0.03)">
       <defs>
        <path id="Helvetica-32" d="M 200 0 
Q 231 578 439 1006 
Q 647 1434 1250 1784 
L 1850 2131 
Q 2253 2366 2416 2531 
Q 2672 2791 2672 3125 
Q 2672 3516 2437 3745 
Q 2203 3975 1813 3975 
Q 1234 3975 1013 3538 
Q 894 3303 881 2888 
L 309 2888 
Q 319 3472 525 3841 
Q 891 4491 1816 4491 
Q 2584 4491 2939 4075 
Q 3294 3659 3294 3150 
Q 3294 2613 2916 2231 
Q 2697 2009 2131 1694 
L 1703 1456 
Q 1397 1288 1222 1134 
Q 909 863 828 531 
L 3272 531 
L 3272 0 
L 200 0 
z
" transform="scale(0.015625)"/>
       </defs>
       <use xlink:href="#Helvetica-32"/>
       <use xlink:href="#Helvetica-30" x="55.615234"/>
      </g>
     </g>
    </g>
    <g id="ytick_3">
     <g id="line2d_3">
      <g>
       <use xlink:href="#mb198529ded" x="10.005084" y="45.470933" style="fill: #777777; stroke: #777777; stroke-width: 0.5"/>
      </g>
     </g>
     <g id="text_8">
      <!-- 40 -->
      <g style="fill: #333333" transform="translate(4.668521 46.546948) scale(0.03 -0.03)">
       <defs>
        <path id="Helvetica-34" d="M 2116 1584 
L 2116 3613 
L 681 1584 
L 2116 1584 
z
M 2125 0 
L 2125 1094 
L 163 1094 
L 163 1644 
L 2213 4488 
L 2688 4488 
L 2688 1584 
L 3347 1584 
L 3347 1094 
L 2688 1094 
L 2688 0 
L 2125 0 
z
" transform="scale(0.015625)"/>
       </defs>
       <use xlink:href="#Helvetica-34"/>
       <use xlink:href="#Helvetica-30" x="55.615234"/>
      </g>
     </g>
    </g>
    <g id="ytick_4">
     <g id="line2d_4">
      <g>
       <use xlink:href="#mb198529ded" x="10.005084" y="35.122263" style="fill: #777777; stroke: #777777; stroke-width: 0.5"/>
      </g>
     </g>
     <g id="text_9">
      <!-- 60 -->
      <g style="fill: #333333" transform="translate(4.668521 36.198279) scale(0.03 -0.03)">
       <defs>
        <path id="Helvetica-36" d="M 1872 4494 
Q 2622 4494 2917 4105 
Q 3213 3716 3213 3303 
L 2656 3303 
Q 2606 3569 2497 3719 
Q 2294 4000 1881 4000 
Q 1409 4000 1131 3564 
Q 853 3128 822 2316 
Q 1016 2600 1309 2741 
Q 1578 2866 1909 2866 
Q 2472 2866 2890 2506 
Q 3309 2147 3309 1434 
Q 3309 825 2912 354 
Q 2516 -116 1781 -116 
Q 1153 -116 697 361 
Q 241 838 241 1966 
Q 241 2800 444 3381 
Q 834 4494 1872 4494 
z
M 1831 384 
Q 2275 384 2495 682 
Q 2716 981 2716 1388 
Q 2716 1731 2519 2042 
Q 2322 2353 1803 2353 
Q 1441 2353 1167 2112 
Q 894 1872 894 1388 
Q 894 963 1142 673 
Q 1391 384 1831 384 
z
" transform="scale(0.015625)"/>
       </defs>
       <use xlink:href="#Helvetica-36"/>
       <use xlink:href="#Helvetica-30" x="55.615234"/>
      </g>
     </g>
    </g>
    <g id="ytick_5">
     <g id="line2d_5">
      <g>
       <use xlink:href="#mb198529ded" x="10.005084" y="24.773594" style="fill: #777777; stroke: #777777; stroke-width: 0.5"/>
      </g>
     </g>
     <g id="text_10">
      <!-- 80 -->
      <g style="fill: #333333" transform="translate(4.668521 25.84961) scale(0.03 -0.03)">
       <defs>
        <path id="Helvetica-38" d="M 1741 2600 
Q 2113 2600 2322 2808 
Q 2531 3016 2531 3303 
Q 2531 3553 2331 3762 
Q 2131 3972 1722 3972 
Q 1316 3972 1134 3762 
Q 953 3553 953 3272 
Q 953 2956 1187 2778 
Q 1422 2600 1741 2600 
z
M 1775 384 
Q 2166 384 2423 595 
Q 2681 806 2681 1225 
Q 2681 1659 2415 1884 
Q 2150 2109 1734 2109 
Q 1331 2109 1076 1879 
Q 822 1650 822 1244 
Q 822 894 1055 639 
Q 1288 384 1775 384 
z
M 975 2384 
Q 741 2484 609 2619 
Q 363 2869 363 3269 
Q 363 3769 725 4128 
Q 1088 4488 1753 4488 
Q 2397 4488 2762 4148 
Q 3128 3809 3128 3356 
Q 3128 2938 2916 2678 
Q 2797 2531 2547 2391 
Q 2825 2263 2984 2097 
Q 3281 1784 3281 1284 
Q 3281 694 2884 283 
Q 2488 -128 1763 -128 
Q 1109 -128 657 226 
Q 206 581 206 1256 
Q 206 1653 400 1942 
Q 594 2231 975 2384 
z
" transform="scale(0.015625)"/>
       </defs>
       <use xlink:href="#Helvetica-38"/>
       <use xlink:href="#Helvetica-30" x="55.615234"/>
      </g>
     </g>
    </g>
    <g id="ytick_6">
     <g id="line2d_6">
      <g>
       <use xlink:href="#mb198529ded" x="10.005084" y="14.424925" style="fill: #777777; stroke: #777777; stroke-width: 0.5"/>
      </g>
     </g>
     <g id="text_11">
      <!-- 100 -->
      <g style="fill: #333333" transform="translate(3.00024 15.50094) scale(0.03 -0.03)">
       <defs>
        <path id="Helvetica-31" d="M 613 3169 
L 613 3600 
Q 1222 3659 1462 3798 
Q 1703 3938 1822 4456 
L 2266 4456 
L 2266 0 
L 1666 0 
L 1666 3169 
L 613 3169 
z
" transform="scale(0.015625)"/>
       </defs>
       <use xlink:href="#Helvetica-31"/>
       <use xlink:href="#Helvetica-30" x="55.615234"/>
       <use xlink:href="#Helvetica-30" x="111.230469"/>
      </g>
     </g>
    </g>
    <g id="ytick_7">
     <g id="line2d_7">
      <g>
       <use xlink:href="#mb198529ded" x="10.005084" y="4.076256" style="fill: #777777; stroke: #777777; stroke-width: 0.5"/>
      </g>
     </g>
     <g id="text_12">
      <!-- 120 -->
      <g style="fill: #333333" transform="translate(3.00024 5.152271) scale(0.03 -0.03)">
       <use xlink:href="#Helvetica-31"/>
       <use xlink:href="#Helvetica-32" x="55.615234"/>
       <use xlink:href="#Helvetica-30" x="111.230469"/>
      </g>
     </g>
    </g>
   </g>
   <g id="PolyCollection_1">
    <defs>
     <path id="m2a8654c86e" d="M 24.326371 -19.505931 
L 21.306732 -19.505931 
L 21.014596 -19.697495 
L 20.686559 -19.88906 
L 20.322629 -20.080624 
L 19.923754 -20.272189 
L 19.491909 -20.463753 
L 19.03013 -20.655317 
L 18.542517 -20.846882 
L 18.034182 -21.038446 
L 17.511155 -21.230011 
L 16.980237 -21.421575 
L 16.448827 -21.61314 
L 15.924703 -21.804704 
L 15.415792 -21.996269 
L 14.929927 -22.187833 
L 14.474606 -22.379397 
L 14.056766 -22.570962 
L 13.682573 -22.762526 
L 13.357252 -22.954091 
L 13.084955 -23.145655 
L 12.86866 -23.33722 
L 12.710133 -23.528784 
L 12.609918 -23.720348 
L 12.567377 -23.911913 
L 12.580773 -24.103477 
L 12.647377 -24.295042 
L 12.763604 -24.486606 
L 12.925177 -24.678171 
L 13.127279 -24.869735 
L 13.364729 -25.0613 
L 13.632131 -25.252864 
L 13.924013 -25.444428 
L 14.234946 -25.635993 
L 14.559631 -25.827557 
L 14.892959 -26.019122 
L 15.230051 -26.210686 
L 15.566271 -26.402251 
L 15.897225 -26.593815 
L 16.218759 -26.785379 
L 16.526959 -26.976944 
L 16.818162 -27.168508 
L 17.088984 -27.360073 
L 17.336371 -27.551637 
L 17.557667 -27.743202 
L 17.750699 -27.934766 
L 17.913872 -28.126331 
L 18.046254 -28.317895 
L 18.147657 -28.509459 
L 18.218681 -28.701024 
L 18.260743 -28.892588 
L 18.276043 -29.084153 
L 18.267511 -29.275717 
L 18.238704 -29.467282 
L 18.193665 -29.658846 
L 18.136772 -29.85041 
L 18.07256 -30.041975 
L 18.005546 -30.233539 
L 17.94006 -30.425104 
L 17.880093 -30.616668 
L 17.829165 -30.808233 
L 17.790221 -30.999797 
L 17.76555 -31.191362 
L 17.756735 -31.382926 
L 17.764627 -31.57449 
L 17.78934 -31.766055 
L 17.830278 -31.957619 
L 17.88618 -32.149184 
L 17.955191 -32.340748 
L 18.034963 -32.532313 
L 18.122778 -32.723877 
L 18.2157 -32.915442 
L 18.310744 -33.107006 
L 18.405062 -33.29857 
L 18.496128 -33.490135 
L 18.581919 -33.681699 
L 18.661066 -33.873264 
L 18.732977 -34.064828 
L 18.7979 -34.256393 
L 18.856928 -34.447957 
L 18.911946 -34.639521 
L 18.965509 -34.831086 
L 19.02066 -35.02265 
L 19.080716 -35.214215 
L 19.149015 -35.405779 
L 19.228667 -35.597344 
L 19.322312 -35.788908 
L 19.431918 -35.980473 
L 19.558627 -36.172037 
L 19.702668 -36.363601 
L 19.86333 -36.555166 
L 20.039013 -36.74673 
L 20.227331 -36.938295 
L 20.425274 -37.129859 
L 20.629396 -37.321424 
L 20.836022 -37.512988 
L 21.041463 -37.704552 
L 21.242204 -37.896117 
L 21.435075 -38.087681 
L 21.617374 -38.279246 
L 21.786956 -38.47081 
L 23.846146 -38.47081 
L 23.846146 -38.47081 
L 24.015729 -38.279246 
L 24.198028 -38.087681 
L 24.390898 -37.896117 
L 24.59164 -37.704552 
L 24.797081 -37.512988 
L 25.003707 -37.321424 
L 25.207828 -37.129859 
L 25.405771 -36.938295 
L 25.59409 -36.74673 
L 25.769773 -36.555166 
L 25.930435 -36.363601 
L 26.074475 -36.172037 
L 26.201185 -35.980473 
L 26.310791 -35.788908 
L 26.404436 -35.597344 
L 26.484088 -35.405779 
L 26.552387 -35.214215 
L 26.612443 -35.02265 
L 26.667594 -34.831086 
L 26.721156 -34.639521 
L 26.776175 -34.447957 
L 26.835203 -34.256393 
L 26.900126 -34.064828 
L 26.972037 -33.873264 
L 27.051184 -33.681699 
L 27.136974 -33.490135 
L 27.22804 -33.29857 
L 27.322358 -33.107006 
L 27.417403 -32.915442 
L 27.510325 -32.723877 
L 27.59814 -32.532313 
L 27.677912 -32.340748 
L 27.746922 -32.149184 
L 27.802824 -31.957619 
L 27.843763 -31.766055 
L 27.868476 -31.57449 
L 27.876368 -31.382926 
L 27.867553 -31.191362 
L 27.842882 -30.999797 
L 27.803938 -30.808233 
L 27.75301 -30.616668 
L 27.693043 -30.425104 
L 27.627557 -30.233539 
L 27.560542 -30.041975 
L 27.496331 -29.85041 
L 27.439438 -29.658846 
L 27.394399 -29.467282 
L 27.365592 -29.275717 
L 27.35706 -29.084153 
L 27.37236 -28.892588 
L 27.414421 -28.701024 
L 27.485446 -28.509459 
L 27.586848 -28.317895 
L 27.719231 -28.126331 
L 27.882404 -27.934766 
L 28.075436 -27.743202 
L 28.296732 -27.551637 
L 28.544119 -27.360073 
L 28.814941 -27.168508 
L 29.106144 -26.976944 
L 29.414344 -26.785379 
L 29.735878 -26.593815 
L 30.066832 -26.402251 
L 30.403051 -26.210686 
L 30.740144 -26.019122 
L 31.073472 -25.827557 
L 31.398157 -25.635993 
L 31.70909 -25.444428 
L 32.000972 -25.252864 
L 32.268373 -25.0613 
L 32.505824 -24.869735 
L 32.707926 -24.678171 
L 32.869498 -24.486606 
L 32.985726 -24.295042 
L 33.052329 -24.103477 
L 33.065725 -23.911913 
L 33.023185 -23.720348 
L 32.922969 -23.528784 
L 32.764442 -23.33722 
L 32.548148 -23.145655 
L 32.27585 -22.954091 
L 31.95053 -22.762526 
L 31.576337 -22.570962 
L 31.158496 -22.379397 
L 30.703176 -22.187833 
L 30.217311 -21.996269 
L 29.7084 -21.804704 
L 29.184275 -21.61314 
L 28.652865 -21.421575 
L 28.121948 -21.230011 
L 27.598921 -21.038446 
L 27.090586 -20.846882 
L 26.602973 -20.655317 
L 26.141194 -20.463753 
L 25.709348 -20.272189 
L 25.310474 -20.080624 
L 24.946543 -19.88906 
L 24.618506 -19.697495 
L 24.326371 -19.505931 
z
" style="stroke: #6f6f6f; stroke-width: 0.15"/>
    </defs>
    <g clip-path="url(#p00255d1124)">
     <use xlink:href="#m2a8654c86e" x="0" y="84.96" style="fill: #abc9ea; stroke: #6f6f6f; stroke-width: 0.15"/>
    </g>
   </g>
   <g id="PolyCollection_2">
    <defs>
     <path id="mb2af819168" d="M 50.325268 -17.745626 
L 46.553705 -17.745626 
L 46.196926 -18.13206 
L 45.805839 -18.518495 
L 45.38478 -18.904929 
L 44.939867 -19.291363 
L 44.47892 -19.677797 
L 44.011258 -20.064231 
L 43.547374 -20.450665 
L 43.098495 -20.8371 
L 42.676038 -21.223534 
L 42.29102 -21.609968 
L 41.953419 -21.996402 
L 41.671567 -22.382836 
L 41.451587 -22.76927 
L 41.296935 -23.155705 
L 41.208064 -23.542139 
L 41.182246 -23.928573 
L 41.213575 -24.315007 
L 41.293132 -24.701441 
L 41.409343 -25.087875 
L 41.548488 -25.47431 
L 41.695359 -25.860744 
L 41.834023 -26.247178 
L 41.948675 -26.633612 
L 42.024524 -27.020046 
L 42.048671 -27.40648 
L 42.010943 -27.792915 
L 41.904612 -28.179349 
L 41.726973 -28.565783 
L 41.479713 -28.952217 
L 41.169053 -29.338651 
L 40.805618 -29.725085 
L 40.404039 -30.11152 
L 39.982281 -30.497954 
L 39.560733 -30.884388 
L 39.161112 -31.270822 
L 38.805234 -31.657256 
L 38.513754 -32.04369 
L 38.304947 -32.430125 
L 38.193632 -32.816559 
L 38.190313 -33.202993 
L 38.300602 -33.589427 
L 38.524972 -33.975861 
L 38.858842 -34.362295 
L 39.292986 -34.74873 
L 39.814229 -35.135164 
L 40.40635 -35.521598 
L 41.051133 -35.908032 
L 41.729458 -36.294466 
L 42.422367 -36.6809 
L 43.112014 -37.067335 
L 43.78245 -37.453769 
L 44.420198 -37.840203 
L 45.01461 -38.226637 
L 45.557987 -38.613071 
L 46.045514 -38.999505 
L 46.475017 -39.38594 
L 46.846599 -39.772374 
L 47.162199 -40.158808 
L 47.42511 -40.545242 
L 47.639507 -40.931676 
L 47.810013 -41.31811 
L 47.941314 -41.704545 
L 48.037859 -42.090979 
L 48.103635 -42.477413 
L 48.142026 -42.863847 
L 48.155748 -43.250281 
L 48.14686 -43.636715 
L 48.116827 -44.02315 
L 48.066641 -44.409584 
L 47.996979 -44.796018 
L 47.908387 -45.182452 
L 47.801472 -45.568886 
L 47.677104 -45.95532 
L 47.536592 -46.341755 
L 47.381837 -46.728189 
L 47.215435 -47.114623 
L 47.040727 -47.501057 
L 46.861784 -47.887491 
L 46.683319 -48.273925 
L 46.510533 -48.66036 
L 46.348897 -49.046794 
L 46.203885 -49.433228 
L 46.080686 -49.819662 
L 45.983899 -50.206096 
L 45.917255 -50.59253 
L 45.883381 -50.978965 
L 45.883632 -51.365399 
L 45.918 -51.751833 
L 45.985115 -52.138267 
L 46.082339 -52.524701 
L 46.205933 -52.911136 
L 46.351304 -53.29757 
L 46.513276 -53.684004 
L 46.686407 -54.070438 
L 46.865278 -54.456872 
L 47.04477 -54.843306 
L 47.220294 -55.229741 
L 47.387957 -55.616175 
L 47.544671 -56.002609 
L 49.334302 -56.002609 
L 49.334302 -56.002609 
L 49.491017 -55.616175 
L 49.658679 -55.229741 
L 49.834203 -54.843306 
L 50.013696 -54.456872 
L 50.192566 -54.070438 
L 50.365697 -53.684004 
L 50.52767 -53.29757 
L 50.67304 -52.911136 
L 50.796635 -52.524701 
L 50.893858 -52.138267 
L 50.960973 -51.751833 
L 50.995341 -51.365399 
L 50.995592 -50.978965 
L 50.961719 -50.59253 
L 50.895074 -50.206096 
L 50.798287 -49.819662 
L 50.675088 -49.433228 
L 50.530077 -49.046794 
L 50.36844 -48.66036 
L 50.195654 -48.273925 
L 50.017189 -47.887491 
L 49.838246 -47.501057 
L 49.663538 -47.114623 
L 49.497136 -46.728189 
L 49.342381 -46.341755 
L 49.20187 -45.95532 
L 49.077502 -45.568886 
L 48.970587 -45.182452 
L 48.881994 -44.796018 
L 48.812332 -44.409584 
L 48.762147 -44.02315 
L 48.732113 -43.636715 
L 48.723225 -43.250281 
L 48.736948 -42.863847 
L 48.775338 -42.477413 
L 48.841114 -42.090979 
L 48.937659 -41.704545 
L 49.06896 -41.31811 
L 49.239466 -40.931676 
L 49.453864 -40.545242 
L 49.716774 -40.158808 
L 50.032374 -39.772374 
L 50.403956 -39.38594 
L 50.833459 -38.999505 
L 51.320986 -38.613071 
L 51.864363 -38.226637 
L 52.458775 -37.840203 
L 53.096524 -37.453769 
L 53.766959 -37.067335 
L 54.456606 -36.6809 
L 55.149515 -36.294466 
L 55.827841 -35.908032 
L 56.472623 -35.521598 
L 57.064745 -35.135164 
L 57.585987 -34.74873 
L 58.020131 -34.362295 
L 58.354001 -33.975861 
L 58.578371 -33.589427 
L 58.688661 -33.202993 
L 58.685341 -32.816559 
L 58.574026 -32.430125 
L 58.365219 -32.04369 
L 58.073739 -31.657256 
L 57.717861 -31.270822 
L 57.31824 -30.884388 
L 56.896692 -30.497954 
L 56.474934 -30.11152 
L 56.073355 -29.725085 
L 55.70992 -29.338651 
L 55.39926 -28.952217 
L 55.152 -28.565783 
L 54.974361 -28.179349 
L 54.86803 -27.792915 
L 54.830302 -27.40648 
L 54.85445 -27.020046 
L 54.930298 -26.633612 
L 55.044951 -26.247178 
L 55.183614 -25.860744 
L 55.330485 -25.47431 
L 55.46963 -25.087875 
L 55.585842 -24.701441 
L 55.665399 -24.315007 
L 55.696727 -23.928573 
L 55.67091 -23.542139 
L 55.582038 -23.155705 
L 55.427386 -22.76927 
L 55.207407 -22.382836 
L 54.925554 -21.996402 
L 54.587953 -21.609968 
L 54.202935 -21.223534 
L 53.780479 -20.8371 
L 53.331599 -20.450665 
L 52.867716 -20.064231 
L 52.400054 -19.677797 
L 51.939106 -19.291363 
L 51.494193 -18.904929 
L 51.073135 -18.518495 
L 50.682047 -18.13206 
L 50.325268 -17.745626 
z
" style="stroke: #6f6f6f; stroke-width: 0.15"/>
    </defs>
    <g clip-path="url(#p00255d1124)">
     <use xlink:href="#mb2af819168" x="0" y="84.96" style="fill: #efb792; stroke: #6f6f6f; stroke-width: 0.15"/>
    </g>
   </g>
   <g id="PolyCollection_3">
    <defs>
     <path id="mab338dac6e" d="M 76.601859 -14.193833 
L 71.522984 -14.193833 
L 71.044071 -14.565242 
L 70.517131 -14.936652 
L 69.94725 -15.308062 
L 69.341974 -15.679471 
L 68.7113 -16.050881 
L 68.067508 -16.422291 
L 67.424822 -16.7937 
L 66.798887 -17.16511 
L 66.206098 -17.53652 
L 65.662799 -17.907929 
L 65.184396 -18.279339 
L 64.784452 -18.650749 
L 64.473822 -19.022158 
L 64.259884 -19.393568 
L 64.145949 -19.764977 
L 64.130883 -20.136387 
L 64.208991 -20.507797 
L 64.370174 -20.879206 
L 64.60036 -21.250616 
L 64.882195 -21.622026 
L 65.195943 -21.993435 
L 65.520553 -22.364845 
L 65.834809 -22.736255 
L 66.118516 -23.107664 
L 66.353622 -23.479074 
L 66.525233 -23.850484 
L 66.622436 -24.221893 
L 66.638899 -24.593303 
L 66.573205 -24.964713 
L 66.428896 -25.336122 
L 66.214234 -25.707532 
L 65.941688 -26.078942 
L 65.627167 -26.450351 
L 65.28907 -26.821761 
L 64.947181 -27.193171 
L 64.621503 -27.56458 
L 64.331085 -27.93599 
L 64.092933 -28.3074 
L 63.92107 -28.678809 
L 63.825803 -29.050219 
L 63.813248 -29.421628 
L 63.885151 -29.793038 
L 64.038996 -30.164448 
L 64.268391 -30.535857 
L 64.563701 -30.907267 
L 64.912867 -31.278677 
L 65.302341 -31.650086 
L 65.718062 -32.021496 
L 66.146392 -32.392906 
L 66.574954 -32.764315 
L 66.993292 -33.135725 
L 67.393331 -33.507135 
L 67.769601 -33.878544 
L 68.119235 -34.249954 
L 68.441758 -34.621364 
L 68.738692 -34.992773 
L 69.013046 -35.364183 
L 69.268727 -35.735593 
L 69.509942 -36.107002 
L 69.740637 -36.478412 
L 69.964021 -36.849822 
L 70.182211 -37.221231 
L 70.396013 -37.592641 
L 70.604852 -37.964051 
L 70.806837 -38.33546 
L 70.998959 -38.70687 
L 71.177377 -39.078279 
L 71.337782 -39.449689 
L 71.475791 -39.821099 
L 71.587354 -40.192508 
L 71.669122 -40.563918 
L 71.71878 -40.935328 
L 71.735299 -41.306737 
L 71.719105 -41.678147 
L 71.672152 -42.049557 
L 71.597902 -42.420966 
L 71.501198 -42.792376 
L 71.388067 -43.163786 
L 71.265426 -43.535195 
L 71.14075 -43.906605 
L 71.021689 -44.278015 
L 70.915679 -44.649424 
L 70.829557 -45.020834 
L 70.769216 -45.392244 
L 70.739313 -45.763653 
L 70.743055 -46.135063 
L 70.782071 -46.506473 
L 70.856385 -46.877882 
L 70.964475 -47.249292 
L 71.103427 -47.620702 
L 71.269163 -47.992111 
L 71.456714 -48.363521 
L 71.660542 -48.73493 
L 71.874853 -49.10634 
L 72.093912 -49.47775 
L 72.312312 -49.849159 
L 72.525208 -50.220569 
L 72.728479 -50.591979 
L 72.918835 -50.963388 
L 75.206008 -50.963388 
L 75.206008 -50.963388 
L 75.396365 -50.591979 
L 75.599636 -50.220569 
L 75.812532 -49.849159 
L 76.030932 -49.47775 
L 76.24999 -49.10634 
L 76.464302 -48.73493 
L 76.668129 -48.363521 
L 76.855681 -47.992111 
L 77.021416 -47.620702 
L 77.160369 -47.249292 
L 77.268459 -46.877882 
L 77.342772 -46.506473 
L 77.381789 -46.135063 
L 77.385531 -45.763653 
L 77.355627 -45.392244 
L 77.295286 -45.020834 
L 77.209165 -44.649424 
L 77.103155 -44.278015 
L 76.984094 -43.906605 
L 76.859418 -43.535195 
L 76.736777 -43.163786 
L 76.623645 -42.792376 
L 76.526942 -42.420966 
L 76.452691 -42.049557 
L 76.405739 -41.678147 
L 76.389545 -41.306737 
L 76.406064 -40.935328 
L 76.455722 -40.563918 
L 76.53749 -40.192508 
L 76.649052 -39.821099 
L 76.787062 -39.449689 
L 76.947467 -39.078279 
L 77.125885 -38.70687 
L 77.318006 -38.33546 
L 77.519992 -37.964051 
L 77.72883 -37.592641 
L 77.942633 -37.221231 
L 78.160823 -36.849822 
L 78.384207 -36.478412 
L 78.614902 -36.107002 
L 78.856117 -35.735593 
L 79.111798 -35.364183 
L 79.386152 -34.992773 
L 79.683086 -34.621364 
L 80.005608 -34.249954 
L 80.355243 -33.878544 
L 80.731513 -33.507135 
L 81.131552 -33.135725 
L 81.54989 -32.764315 
L 81.978452 -32.392906 
L 82.406782 -32.021496 
L 82.822502 -31.650086 
L 83.211977 -31.278677 
L 83.561143 -30.907267 
L 83.856453 -30.535857 
L 84.085847 -30.164448 
L 84.239692 -29.793038 
L 84.311596 -29.421628 
L 84.299041 -29.050219 
L 84.203773 -28.678809 
L 84.031911 -28.3074 
L 83.793759 -27.93599 
L 83.503341 -27.56458 
L 83.177663 -27.193171 
L 82.835774 -26.821761 
L 82.497677 -26.450351 
L 82.183156 -26.078942 
L 81.910609 -25.707532 
L 81.695948 -25.336122 
L 81.551639 -24.964713 
L 81.485944 -24.593303 
L 81.502408 -24.221893 
L 81.599611 -23.850484 
L 81.771222 -23.479074 
L 82.006328 -23.107664 
L 82.290035 -22.736255 
L 82.604291 -22.364845 
L 82.9289 -21.993435 
L 83.242649 -21.622026 
L 83.524484 -21.250616 
L 83.754669 -20.879206 
L 83.915852 -20.507797 
L 83.993961 -20.136387 
L 83.978895 -19.764977 
L 83.86496 -19.393568 
L 83.651022 -19.022158 
L 83.340391 -18.650749 
L 82.940448 -18.279339 
L 82.462045 -17.907929 
L 81.918745 -17.53652 
L 81.325957 -17.16511 
L 80.700021 -16.7937 
L 80.057335 -16.422291 
L 79.413544 -16.050881 
L 78.78287 -15.679471 
L 78.177594 -15.308062 
L 77.607713 -14.936652 
L 77.080773 -14.565242 
L 76.601859 -14.193833 
z
" style="stroke: #6f6f6f; stroke-width: 0.15"/>
    </defs>
    <g clip-path="url(#p00255d1124)">
     <use xlink:href="#mab338dac6e" x="0" y="84.96" style="fill: #98daa7; stroke: #6f6f6f; stroke-width: 0.15"/>
    </g>
   </g>
   <g id="PolyCollection_4">
    <defs>
     <path id="maa6e31dbfb" d="M 100.533569 -18.054827 
L 98.837146 -18.054827 
L 98.675196 -18.119744 
L 98.496858 -18.184661 
L 98.30331 -18.249578 
L 98.096103 -18.314495 
L 97.877008 -18.379412 
L 97.647811 -18.444329 
L 97.41009 -18.509246 
L 97.16497 -18.574163 
L 96.912913 -18.63908 
L 96.653559 -18.703997 
L 96.385645 -18.768914 
L 96.107044 -18.833831 
L 95.814912 -18.898748 
L 95.505966 -18.963665 
L 95.176866 -19.028582 
L 94.824671 -19.093499 
L 94.447335 -19.158416 
L 94.044185 -19.223333 
L 93.616337 -19.28825 
L 93.166995 -19.353167 
L 92.701598 -19.418084 
L 92.227789 -19.483001 
L 91.755207 -19.547918 
L 91.295102 -19.612835 
L 90.859818 -19.677752 
L 90.462162 -19.742669 
L 90.114738 -19.807585 
L 89.829271 -19.872502 
L 89.615981 -19.937419 
L 89.483046 -20.002336 
L 89.436183 -20.067253 
L 89.478354 -20.13217 
L 89.609624 -20.197087 
L 89.827148 -20.262004 
L 90.125296 -20.326921 
L 90.49588 -20.391838 
L 90.928499 -20.456755 
L 91.410955 -20.521672 
L 91.929748 -20.586589 
L 92.470618 -20.651506 
L 93.019123 -20.716423 
L 93.561223 -20.78134 
L 94.08386 -20.846257 
L 94.575489 -20.911174 
L 95.026544 -20.976091 
L 95.429815 -21.041008 
L 95.780692 -21.105925 
L 96.077281 -21.170842 
L 96.320368 -21.235759 
L 96.513232 -21.300676 
L 96.661316 -21.365593 
L 96.771784 -21.43051 
L 96.852987 -21.495427 
L 96.913873 -21.560344 
L 96.96339 -21.625261 
L 97.009916 -21.690178 
L 97.060763 -21.755095 
L 97.121774 -21.820012 
L 97.19705 -21.884929 
L 97.28881 -21.949846 
L 97.397385 -22.014763 
L 97.521339 -22.07968 
L 97.657696 -22.144597 
L 97.802245 -22.209514 
L 97.949894 -22.274431 
L 98.095048 -22.339348 
L 98.231975 -22.404265 
L 98.355152 -22.469182 
L 98.459563 -22.534099 
L 98.540949 -22.599016 
L 98.596003 -22.663932 
L 98.622514 -22.728849 
L 98.619462 -22.793766 
L 98.587062 -22.858683 
L 98.526776 -22.9236 
L 98.441275 -22.988517 
L 98.334357 -23.053434 
L 98.210824 -23.118351 
L 98.076308 -23.183268 
L 97.937046 -23.248185 
L 97.799619 -23.313102 
L 97.670642 -23.378019 
L 97.556452 -23.442936 
L 97.462774 -23.507853 
L 97.394428 -23.57277 
L 97.355059 -23.637687 
L 97.346957 -23.702604 
L 97.37094 -23.767521 
L 97.426347 -23.832438 
L 97.511116 -23.897355 
L 97.621959 -23.962272 
L 97.754608 -24.027189 
L 97.904109 -24.092106 
L 98.06515 -24.157023 
L 98.232379 -24.22194 
L 98.400702 -24.286857 
L 98.565531 -24.351774 
L 98.72297 -24.416691 
L 98.869934 -24.481608 
L 100.50078 -24.481608 
L 100.50078 -24.481608 
L 100.647744 -24.416691 
L 100.805184 -24.351774 
L 100.970013 -24.286857 
L 101.138336 -24.22194 
L 101.305564 -24.157023 
L 101.466605 -24.092106 
L 101.616106 -24.027189 
L 101.748755 -23.962272 
L 101.859599 -23.897355 
L 101.944368 -23.832438 
L 101.999774 -23.767521 
L 102.023758 -23.702604 
L 102.015655 -23.637687 
L 101.976287 -23.57277 
L 101.90794 -23.507853 
L 101.814263 -23.442936 
L 101.700072 -23.378019 
L 101.571096 -23.313102 
L 101.433668 -23.248185 
L 101.294406 -23.183268 
L 101.15989 -23.118351 
L 101.036358 -23.053434 
L 100.92944 -22.988517 
L 100.843938 -22.9236 
L 100.783653 -22.858683 
L 100.751253 -22.793766 
L 100.7482 -22.728849 
L 100.774711 -22.663932 
L 100.829766 -22.599016 
L 100.911152 -22.534099 
L 101.015562 -22.469182 
L 101.138739 -22.404265 
L 101.275666 -22.339348 
L 101.42082 -22.274431 
L 101.568469 -22.209514 
L 101.713019 -22.144597 
L 101.849376 -22.07968 
L 101.97333 -22.014763 
L 102.081904 -21.949846 
L 102.173664 -21.884929 
L 102.24894 -21.820012 
L 102.309951 -21.755095 
L 102.360798 -21.690178 
L 102.407324 -21.625261 
L 102.456841 -21.560344 
L 102.517727 -21.495427 
L 102.59893 -21.43051 
L 102.709399 -21.365593 
L 102.857482 -21.300676 
L 103.050346 -21.235759 
L 103.293433 -21.170842 
L 103.590022 -21.105925 
L 103.940899 -21.041008 
L 104.34417 -20.976091 
L 104.795226 -20.911174 
L 105.286854 -20.846257 
L 105.809491 -20.78134 
L 106.351592 -20.716423 
L 106.900096 -20.651506 
L 107.440967 -20.586589 
L 107.959759 -20.521672 
L 108.442215 -20.456755 
L 108.874834 -20.391838 
L 109.245418 -20.326921 
L 109.543566 -20.262004 
L 109.761091 -20.197087 
L 109.89236 -20.13217 
L 109.934531 -20.067253 
L 109.887668 -20.002336 
L 109.754734 -19.937419 
L 109.541444 -19.872502 
L 109.255976 -19.807585 
L 108.908552 -19.742669 
L 108.510896 -19.677752 
L 108.075612 -19.612835 
L 107.615508 -19.547918 
L 107.142925 -19.483001 
L 106.669116 -19.418084 
L 106.203719 -19.353167 
L 105.754377 -19.28825 
L 105.32653 -19.223333 
L 104.92338 -19.158416 
L 104.546043 -19.093499 
L 104.193848 -19.028582 
L 103.864748 -18.963665 
L 103.555802 -18.898748 
L 103.26367 -18.833831 
L 102.985069 -18.768914 
L 102.717155 -18.703997 
L 102.457801 -18.63908 
L 102.205745 -18.574163 
L 101.960625 -18.509246 
L 101.722903 -18.444329 
L 101.493706 -18.379412 
L 101.274611 -18.314495 
L 101.067404 -18.249578 
L 100.873856 -18.184661 
L 100.695518 -18.119744 
L 100.533569 -18.054827 
z
" style="stroke: #6f6f6f; stroke-width: 0.15"/>
    </defs>
    <g clip-path="url(#p00255d1124)">
     <use xlink:href="#maa6e31dbfb" x="0" y="84.96" style="fill: #cfcfcf; stroke: #6f6f6f; stroke-width: 0.15"/>
    </g>
   </g>
   <g id="PolyCollection_5">
    <defs>
     <path id="m4c8c23c66a" d="M 126.327401 -45.579893 
L 124.289184 -45.579893 
L 124.118746 -45.851042 
L 123.935676 -46.122192 
L 123.742364 -46.393342 
L 123.541815 -46.664491 
L 123.337549 -46.935641 
L 123.133463 -47.206791 
L 122.933641 -47.477941 
L 122.742139 -47.74909 
L 122.562753 -48.02024 
L 122.398791 -48.29139 
L 122.252863 -48.56254 
L 122.126722 -48.833689 
L 122.021157 -49.104839 
L 121.935968 -49.375989 
L 121.870013 -49.647139 
L 121.821341 -49.918288 
L 121.787389 -50.189438 
L 121.765234 -50.460588 
L 121.751883 -50.731738 
L 121.744561 -51.002887 
L 121.740976 -51.274037 
L 121.73954 -51.545187 
L 121.739511 -51.816337 
L 121.741059 -52.087486 
L 121.745227 -52.358636 
L 121.753807 -52.629786 
L 121.769128 -52.900935 
L 121.793786 -53.172085 
L 121.830334 -53.443235 
L 121.880953 -53.714385 
L 121.947141 -53.985534 
L 122.029446 -54.256684 
L 122.127252 -54.527834 
L 122.238642 -54.798984 
L 122.360349 -55.070133 
L 122.487786 -55.341283 
L 122.615159 -55.612433 
L 122.735655 -55.883583 
L 122.841688 -56.154732 
L 122.92519 -56.425882 
L 122.977943 -56.697032 
L 122.991928 -56.968182 
L 122.959689 -57.239331 
L 122.87469 -57.510481 
L 122.731669 -57.781631 
L 122.526965 -58.052781 
L 122.258806 -58.32393 
L 121.927543 -58.59508 
L 121.535826 -58.86623 
L 121.088671 -59.137379 
L 120.593435 -59.408529 
L 120.059666 -59.679679 
L 119.498822 -59.950829 
L 118.923859 -60.221978 
L 118.348701 -60.493128 
L 117.78762 -60.764278 
L 117.254538 -61.035428 
L 116.762325 -61.306577 
L 116.322114 -61.577727 
L 115.942704 -61.848877 
L 115.630099 -62.120027 
L 115.387207 -62.391176 
L 115.213755 -62.662326 
L 115.106412 -62.933476 
L 115.059118 -63.204626 
L 115.063614 -63.475775 
L 115.110098 -63.746925 
L 115.187996 -64.018075 
L 115.286751 -64.289224 
L 115.396593 -64.560374 
L 115.509215 -64.831524 
L 115.618315 -65.102674 
L 115.719962 -65.373823 
L 115.812761 -65.644973 
L 115.897825 -65.916123 
L 115.978543 -66.187273 
L 116.060197 -66.458422 
L 116.149442 -66.729572 
L 116.253708 -67.000722 
L 116.380567 -67.271872 
L 116.537117 -67.543021 
L 116.729415 -67.814171 
L 116.962024 -68.085321 
L 117.237663 -68.356471 
L 117.557012 -68.62762 
L 117.91866 -68.89877 
L 118.31919 -69.16992 
L 118.753395 -69.44107 
L 119.214595 -69.712219 
L 119.69503 -69.983369 
L 120.186295 -70.254519 
L 120.679783 -70.525668 
L 121.16711 -70.796818 
L 121.640493 -71.067968 
L 122.093062 -71.339118 
L 122.519085 -71.610267 
L 122.914118 -71.881417 
L 123.275054 -72.152567 
L 123.600108 -72.423717 
L 127.016477 -72.423717 
L 127.016477 -72.423717 
L 127.341531 -72.152567 
L 127.702467 -71.881417 
L 128.097499 -71.610267 
L 128.523523 -71.339118 
L 128.976092 -71.067968 
L 129.449475 -70.796818 
L 129.936802 -70.525668 
L 130.43029 -70.254519 
L 130.921555 -69.983369 
L 131.40199 -69.712219 
L 131.86319 -69.44107 
L 132.297394 -69.16992 
L 132.697924 -68.89877 
L 133.059572 -68.62762 
L 133.378922 -68.356471 
L 133.654561 -68.085321 
L 133.88717 -67.814171 
L 134.079468 -67.543021 
L 134.236017 -67.271872 
L 134.362877 -67.000722 
L 134.467143 -66.729572 
L 134.556388 -66.458422 
L 134.638041 -66.187273 
L 134.71876 -65.916123 
L 134.803823 -65.644973 
L 134.896623 -65.373823 
L 134.99827 -65.102674 
L 135.10737 -64.831524 
L 135.219991 -64.560374 
L 135.329833 -64.289224 
L 135.428589 -64.018075 
L 135.506487 -63.746925 
L 135.552971 -63.475775 
L 135.557466 -63.204626 
L 135.510173 -62.933476 
L 135.402829 -62.662326 
L 135.229378 -62.391176 
L 134.986486 -62.120027 
L 134.67388 -61.848877 
L 134.294471 -61.577727 
L 133.85426 -61.306577 
L 133.362046 -61.035428 
L 132.828965 -60.764278 
L 132.267884 -60.493128 
L 131.692726 -60.221978 
L 131.117762 -59.950829 
L 130.556918 -59.679679 
L 130.02315 -59.408529 
L 129.527914 -59.137379 
L 129.080759 -58.86623 
L 128.689041 -58.59508 
L 128.357779 -58.32393 
L 128.089619 -58.052781 
L 127.884916 -57.781631 
L 127.741895 -57.510481 
L 127.656896 -57.239331 
L 127.624657 -56.968182 
L 127.638642 -56.697032 
L 127.691395 -56.425882 
L 127.774897 -56.154732 
L 127.880929 -55.883583 
L 128.001426 -55.612433 
L 128.128799 -55.341283 
L 128.256236 -55.070133 
L 128.377943 -54.798984 
L 128.489333 -54.527834 
L 128.587139 -54.256684 
L 128.669444 -53.985534 
L 128.735632 -53.714385 
L 128.78625 -53.443235 
L 128.822798 -53.172085 
L 128.847457 -52.900935 
L 128.862778 -52.629786 
L 128.871357 -52.358636 
L 128.875526 -52.087486 
L 128.877074 -51.816337 
L 128.877045 -51.545187 
L 128.875608 -51.274037 
L 128.872023 -51.002887 
L 128.864701 -50.731738 
L 128.851351 -50.460588 
L 128.829196 -50.189438 
L 128.795243 -49.918288 
L 128.746571 -49.647139 
L 128.680617 -49.375989 
L 128.595428 -49.104839 
L 128.489863 -48.833689 
L 128.363722 -48.56254 
L 128.217794 -48.29139 
L 128.053831 -48.02024 
L 127.874446 -47.74909 
L 127.682944 -47.477941 
L 127.483122 -47.206791 
L 127.279036 -46.935641 
L 127.07477 -46.664491 
L 126.87422 -46.393342 
L 126.680909 -46.122192 
L 126.497839 -45.851042 
L 126.327401 -45.579893 
z
" style="stroke: #6f6f6f; stroke-width: 0.15"/>
    </defs>
    <g clip-path="url(#p00255d1124)">
     <use xlink:href="#m4c8c23c66a" x="0" y="84.96" style="fill: #f3f3ae; stroke: #6f6f6f; stroke-width: 0.15"/>
    </g>
   </g>
   <g id="line2d_8">
    <path d="M 22.816551 62.86647 
L 22.816551 49.076789 
" clip-path="url(#p00255d1124)" style="fill: none; stroke: #8c8c8c; stroke-width: 0.75; stroke-linecap: round"/>
   </g>
   <g id="line2d_9">
    <path d="M 22.816551 61.07137 
L 22.816551 54.086752 
" clip-path="url(#p00255d1124)" style="fill: none; stroke: #8c8c8c; stroke-width: 4; stroke-linecap: round"/>
   </g>
   <g id="line2d_10">
    <path d="M 22.816551 58.904884 
" clip-path="url(#p00255d1124)" style="fill: none; stroke: #6f6f6f; stroke-width: 1.2; stroke-linecap: round"/>
    <defs>
     <path id="mf12104483c" d="M 0 0.833333 
C 0.221003 0.833333 0.432983 0.745528 0.589256 0.589256 
C 0.745528 0.432983 0.833333 0.221003 0.833333 0 
C 0.833333 -0.221003 0.745528 -0.432983 0.589256 -0.589256 
C 0.432983 -0.745528 0.221003 -0.833333 0 -0.833333 
C -0.221003 -0.833333 -0.432983 -0.745528 -0.589256 -0.589256 
C -0.745528 -0.432983 -0.833333 -0.221003 -0.833333 0 
C -0.833333 0.221003 -0.745528 0.432983 -0.589256 0.589256 
C -0.432983 0.745528 -0.221003 0.833333 0 0.833333 
z
" style="stroke: #ffffff; stroke-width: 0.8"/>
    </defs>
    <g clip-path="url(#p00255d1124)">
     <use xlink:href="#mf12104483c" x="22.816551" y="58.904884" style="fill: #ffffff; stroke: #ffffff; stroke-width: 0.8"/>
    </g>
   </g>
   <g id="line2d_11">
    <path d="M 48.439487 62.381182 
L 48.439487 50.99708 
" clip-path="url(#p00255d1124)" style="fill: none; stroke: #8c8c8c; stroke-width: 0.75; stroke-linecap: round"/>
   </g>
   <g id="line2d_12">
    <path d="M 48.439487 60.070637 
L 48.439487 51.060172 
" clip-path="url(#p00255d1124)" style="fill: none; stroke: #8c8c8c; stroke-width: 4; stroke-linecap: round"/>
   </g>
   <g id="line2d_13">
    <path d="M 48.439487 52.414795 
" clip-path="url(#p00255d1124)" style="fill: none; stroke: #6f6f6f; stroke-width: 1.2; stroke-linecap: round"/>
    <g clip-path="url(#p00255d1124)">
     <use xlink:href="#mf12104483c" x="48.439487" y="52.414795" style="fill: #ffffff; stroke: #ffffff; stroke-width: 0.8"/>
    </g>
   </g>
   <g id="line2d_14">
    <path d="M 74.062422 65.884611 
L 74.062422 38.878168 
" clip-path="url(#p00255d1124)" style="fill: none; stroke: #8c8c8c; stroke-width: 0.75; stroke-linecap: round"/>
   </g>
   <g id="line2d_15">
    <path d="M 74.062422 64.834576 
L 74.062422 53.456359 
" clip-path="url(#p00255d1124)" style="fill: none; stroke: #8c8c8c; stroke-width: 4; stroke-linecap: round"/>
   </g>
   <g id="line2d_16">
    <path d="M 74.062422 56.080866 
" clip-path="url(#p00255d1124)" style="fill: none; stroke: #6f6f6f; stroke-width: 1.2; stroke-linecap: round"/>
    <g clip-path="url(#p00255d1124)">
     <use xlink:href="#mf12104483c" x="74.062422" y="56.080866" style="fill: #ffffff; stroke: #ffffff; stroke-width: 0.8"/>
    </g>
   </g>
   <g id="line2d_17">
    <path d="M 99.685357 66.115321 
L 99.685357 63.144023 
" clip-path="url(#p00255d1124)" style="fill: none; stroke: #8c8c8c; stroke-width: 0.75; stroke-linecap: round"/>
   </g>
   <g id="line2d_18">
    <path d="M 99.685357 65.099359 
L 99.685357 64.141125 
" clip-path="url(#p00255d1124)" style="fill: none; stroke: #8c8c8c; stroke-width: 4; stroke-linecap: round"/>
   </g>
   <g id="line2d_19">
    <path d="M 99.685357 64.746613 
" clip-path="url(#p00255d1124)" style="fill: none; stroke: #6f6f6f; stroke-width: 1.2; stroke-linecap: round"/>
    <g clip-path="url(#p00255d1124)">
     <use xlink:href="#mf12104483c" x="99.685357" y="64.746613" style="fill: #ffffff; stroke: #ffffff; stroke-width: 0.8"/>
    </g>
   </g>
   <g id="line2d_20">
    <path d="M 125.308292 30.914804 
L 125.308292 16.129986 
" clip-path="url(#p00255d1124)" style="fill: none; stroke: #8c8c8c; stroke-width: 0.75; stroke-linecap: round"/>
   </g>
   <g id="line2d_21">
    <path d="M 125.308292 24.884126 
L 125.308292 18.380001 
" clip-path="url(#p00255d1124)" style="fill: none; stroke: #8c8c8c; stroke-width: 4; stroke-linecap: round"/>
   </g>
   <g id="line2d_22">
    <path d="M 125.308292 22.520651 
" clip-path="url(#p00255d1124)" style="fill: none; stroke: #6f6f6f; stroke-width: 1.2; stroke-linecap: round"/>
    <g clip-path="url(#p00255d1124)">
     <use xlink:href="#mf12104483c" x="125.308292" y="22.520651" style="fill: #ffffff; stroke: #ffffff; stroke-width: 0.8"/>
    </g>
   </g>
   <g id="patch_3">
    <path d="M 10.005084 74.395463 
L 10.005084 4.076256 
" style="fill: none; stroke: #777777; stroke-width: 0.5; stroke-linejoin: miter; stroke-linecap: square"/>
   </g>
   <g id="patch_4">
    <path d="M 10.005084 76.895463 
L 138.11976 76.895463 
" style="fill: none; stroke: #777777; stroke-width: 0.5; stroke-linejoin: miter; stroke-linecap: square"/>
   </g>
  </g>
 </g>
 <defs>
  <clipPath id="p00255d1124">
   <rect x="10.005084" y="4.076256" width="128.114676" height="70.319207"/>
  </clipPath>
 </defs>
</svg>
