<?xml version="1.0" encoding="utf-8" standalone="no"?>
<!DOCTYPE svg PUBLIC "-//W3C//DTD SVG 1.1//EN"
  "http://www.w3.org/Graphics/SVG/1.1/DTD/svg11.dtd">
<svg xmlns:xlink="http://www.w3.org/1999/xlink" width="113.04pt" height="84.96pt" viewBox="0 0 113.04 84.96" xmlns="http://www.w3.org/2000/svg" version="1.1">
 <metadata>
  <rdf:RDF xmlns:dc="http://purl.org/dc/elements/1.1/" xmlns:cc="http://creativecommons.org/ns#" xmlns:rdf="http://www.w3.org/1999/02/22-rdf-syntax-ns#">
   <cc:Work>
    <dc:type rdf:resource="http://purl.org/dc/dcmitype/StillImage"/>
    <dc:date>2024-05-27T15:37:19.264784</dc:date>
    <dc:format>image/svg+xml</dc:format>
    <dc:creator>
     <cc:Agent>
      <dc:title>Matplotlib v3.8.3, https://matplotlib.org/</dc:title>
     </cc:Agent>
    </dc:creator>
   </cc:Work>
  </rdf:RDF>
 </metadata>
 <defs>
  <style type="text/css">*{stroke-linejoin: round; stroke-linecap: butt}</style>
 </defs>
 <g id="figure_1">
  <g id="patch_1">
   <path d="M 0 84.96 
L 113.04 84.96 
L 113.04 0 
L 0 0 
z
" style="fill: #ffffff"/>
  </g>
  <g id="axes_1">
   <g id="patch_2">
    <path d="M 11.673365 74.393822 
L 110.03976 74.393822 
L 110.03976 4.076256 
L 11.673365 4.076256 
z
" style="fill: #ffffff"/>
   </g>
   <g id="matplotlib.axis_1">
    <g id="xtick_1">
     <g id="text_1">
      <!-- ILC2 -->
      <g style="fill: #333333" transform="translate(20.272836 81.204526) scale(0.035 -0.035)">
       <defs>
        <path id="Helvetica-49" d="M 628 4591 
L 1256 4591 
L 1256 0 
L 628 0 
L 628 4591 
z
" transform="scale(0.015625)"/>
        <path id="Helvetica-4c" d="M 488 4591 
L 1109 4591 
L 1109 547 
L 3434 547 
L 3434 0 
L 488 0 
L 488 4591 
z
" transform="scale(0.015625)"/>
        <path id="Helvetica-43" d="M 2422 4716 
Q 3294 4716 3775 4256 
Q 4256 3797 4309 3213 
L 3703 3213 
Q 3600 3656 3292 3915 
Q 2984 4175 2428 4175 
Q 1750 4175 1333 3698 
Q 916 3222 916 2238 
Q 916 1431 1292 929 
Q 1669 428 2416 428 
Q 3103 428 3463 956 
Q 3653 1234 3747 1688 
L 4353 1688 
Q 4272 963 3816 472 
Q 3269 -119 2341 -119 
Q 1541 -119 997 366 
Q 281 1006 281 2344 
Q 281 3359 819 4009 
Q 1400 4716 2422 4716 
z
M 2297 4716 
L 2297 4716 
z
" transform="scale(0.015625)"/>
        <path id="Helvetica-32" d="M 200 0 
Q 231 578 439 1006 
Q 647 1434 1250 1784 
L 1850 2131 
Q 2253 2366 2416 2531 
Q 2672 2791 2672 3125 
Q 2672 3516 2437 3745 
Q 2203 3975 1813 3975 
Q 1234 3975 1013 3538 
Q 894 3303 881 2888 
L 309 2888 
Q 319 3472 525 3841 
Q 891 4491 1816 4491 
Q 2584 4491 2939 4075 
Q 3294 3659 3294 3150 
Q 3294 2613 2916 2231 
Q 2697 2009 2131 1694 
L 1703 1456 
Q 1397 1288 1222 1134 
Q 909 863 828 531 
L 3272 531 
L 3272 0 
L 200 0 
z
" transform="scale(0.015625)"/>
       </defs>
       <use xlink:href="#Helvetica-49"/>
       <use xlink:href="#Helvetica-4c" x="27.783203"/>
       <use xlink:href="#Helvetica-43" x="83.398438"/>
       <use xlink:href="#Helvetica-32" x="155.615234"/>
      </g>
     </g>
    </g>
    <g id="xtick_2">
     <g id="text_2">
      <!-- TH2 (TdT–) -->
      <g style="fill: #333333" transform="translate(39.519279 81.230229) scale(0.035 -0.035)">
       <defs>
        <path id="Helvetica-54" d="M 3828 4591 
L 3828 4044 
L 2281 4044 
L 2281 0 
L 1650 0 
L 1650 4044 
L 103 4044 
L 103 4591 
L 3828 4591 
z
" transform="scale(0.015625)"/>
        <path id="Helvetica-48" d="M 503 4591 
L 1131 4591 
L 1131 2694 
L 3519 2694 
L 3519 4591 
L 4147 4591 
L 4147 0 
L 3519 0 
L 3519 2147 
L 1131 2147 
L 1131 0 
L 503 0 
L 503 4591 
z
" transform="scale(0.015625)"/>
        <path id="Helvetica-20" transform="scale(0.015625)"/>
        <path id="Helvetica-28" d="M 1894 4666 
Q 1403 3713 1256 3263 
Q 1034 2578 1034 1681 
Q 1034 775 1288 25 
Q 1444 -438 1903 -1306 
L 1525 -1306 
Q 1069 -594 959 -397 
Q 850 -200 722 138 
Q 547 600 478 1125 
Q 444 1397 444 1644 
Q 444 2569 734 3291 
Q 919 3750 1503 4666 
L 1894 4666 
z
" transform="scale(0.015625)"/>
        <path id="Helvetica-64" d="M 769 1634 
Q 769 1097 997 734 
Q 1225 372 1728 372 
Q 2119 372 2370 708 
Q 2622 1044 2622 1672 
Q 2622 2306 2362 2611 
Q 2103 2916 1722 2916 
Q 1297 2916 1033 2591 
Q 769 2266 769 1634 
z
M 1616 3406 
Q 2000 3406 2259 3244 
Q 2409 3150 2600 2916 
L 2600 4606 
L 3141 4606 
L 3141 0 
L 2634 0 
L 2634 466 
Q 2438 156 2169 18 
Q 1900 -119 1553 -119 
Q 994 -119 584 351 
Q 175 822 175 1603 
Q 175 2334 548 2870 
Q 922 3406 1616 3406 
z
" transform="scale(0.015625)"/>
        <path id="Helvetica-2013" d="M -16 2000 
L 3569 2000 
L 3569 1541 
L -16 1541 
L -16 2000 
z
" transform="scale(0.015625)"/>
        <path id="Helvetica-29" d="M 222 -1306 
Q 719 -338 863 106 
Q 1081 778 1081 1681 
Q 1081 2584 828 3334 
Q 672 3797 213 4666 
L 591 4666 
Q 1072 3897 1173 3717 
Q 1275 3538 1394 3222 
Q 1544 2831 1608 2450 
Q 1672 2069 1672 1716 
Q 1672 791 1378 66 
Q 1194 -400 613 -1306 
L 222 -1306 
z
" transform="scale(0.015625)"/>
       </defs>
       <use xlink:href="#Helvetica-54"/>
       <use xlink:href="#Helvetica-48" x="61.083984"/>
       <use xlink:href="#Helvetica-32" x="133.300781"/>
       <use xlink:href="#Helvetica-20" x="188.916016"/>
       <use xlink:href="#Helvetica-28" x="216.699219"/>
       <use xlink:href="#Helvetica-54" x="250"/>
       <use xlink:href="#Helvetica-64" x="311.083984"/>
       <use xlink:href="#Helvetica-54" x="366.699219"/>
       <use xlink:href="#Helvetica-2013" x="427.783203"/>
       <use xlink:href="#Helvetica-29" x="483.398438"/>
      </g>
     </g>
    </g>
    <g id="xtick_3">
     <g id="text_3">
      <!-- TH2 (TdT+) -->
      <g style="fill: #333333" transform="translate(64.061932 81.230229) scale(0.035 -0.035)">
       <defs>
        <path id="Helvetica-2b" d="M 288 1369 
L 288 1894 
L 1650 1894 
L 1650 3266 
L 2184 3266 
L 2184 1894 
L 3547 1894 
L 3547 1369 
L 2184 1369 
L 2184 0 
L 1650 0 
L 1650 1369 
L 288 1369 
z
" transform="scale(0.015625)"/>
       </defs>
       <use xlink:href="#Helvetica-54"/>
       <use xlink:href="#Helvetica-48" x="61.083984"/>
       <use xlink:href="#Helvetica-32" x="133.300781"/>
       <use xlink:href="#Helvetica-20" x="188.916016"/>
       <use xlink:href="#Helvetica-28" x="216.699219"/>
       <use xlink:href="#Helvetica-54" x="250"/>
       <use xlink:href="#Helvetica-64" x="311.083984"/>
       <use xlink:href="#Helvetica-54" x="366.699219"/>
       <use xlink:href="#Helvetica-2b" x="427.783203"/>
       <use xlink:href="#Helvetica-29" x="486.181641"/>
      </g>
     </g>
    </g>
    <g id="xtick_4">
     <g id="text_4">
      <!-- Immature TH2 -->
      <g style="fill: #333333" transform="translate(86.562007 81.204526) scale(0.035 -0.035)">
       <defs>
        <path id="Helvetica-6d" d="M 413 3347 
L 969 3347 
L 969 2872 
Q 1169 3119 1331 3231 
Q 1609 3422 1963 3422 
Q 2363 3422 2606 3225 
Q 2744 3113 2856 2894 
Q 3044 3163 3297 3292 
Q 3550 3422 3866 3422 
Q 4541 3422 4784 2934 
Q 4916 2672 4916 2228 
L 4916 0 
L 4331 0 
L 4331 2325 
Q 4331 2659 4164 2784 
Q 3997 2909 3756 2909 
Q 3425 2909 3186 2687 
Q 2947 2466 2947 1947 
L 2947 0 
L 2375 0 
L 2375 2184 
Q 2375 2525 2294 2681 
Q 2166 2916 1816 2916 
Q 1497 2916 1236 2669 
Q 975 2422 975 1775 
L 975 0 
L 413 0 
L 413 3347 
z
" transform="scale(0.015625)"/>
        <path id="Helvetica-61" d="M 844 891 
Q 844 647 1022 506 
Q 1200 366 1444 366 
Q 1741 366 2019 503 
Q 2488 731 2488 1250 
L 2488 1703 
Q 2384 1638 2221 1594 
Q 2059 1550 1903 1531 
L 1563 1488 
Q 1256 1447 1103 1359 
Q 844 1213 844 891 
z
M 2206 2028 
Q 2400 2053 2466 2191 
Q 2503 2266 2503 2406 
Q 2503 2694 2298 2823 
Q 2094 2953 1713 2953 
Q 1272 2953 1088 2716 
Q 984 2584 953 2325 
L 428 2325 
Q 444 2944 830 3186 
Q 1216 3428 1725 3428 
Q 2316 3428 2684 3203 
Q 3050 2978 3050 2503 
L 3050 575 
Q 3050 488 3086 434 
Q 3122 381 3238 381 
Q 3275 381 3322 386 
Q 3369 391 3422 400 
L 3422 -16 
Q 3291 -53 3222 -62 
Q 3153 -72 3034 -72 
Q 2744 -72 2613 134 
Q 2544 244 2516 444 
Q 2344 219 2022 53 
Q 1700 -113 1313 -113 
Q 847 -113 551 170 
Q 256 453 256 878 
Q 256 1344 547 1600 
Q 838 1856 1309 1916 
L 2206 2028 
z
M 1741 3428 
L 1741 3428 
z
" transform="scale(0.015625)"/>
        <path id="Helvetica-74" d="M 525 4281 
L 1094 4281 
L 1094 3347 
L 1628 3347 
L 1628 2888 
L 1094 2888 
L 1094 703 
Q 1094 528 1213 469 
Q 1278 434 1431 434 
Q 1472 434 1519 436 
Q 1566 438 1628 444 
L 1628 0 
Q 1531 -28 1426 -40 
Q 1322 -53 1200 -53 
Q 806 -53 665 148 
Q 525 350 525 672 
L 525 2888 
L 72 2888 
L 72 3347 
L 525 3347 
L 525 4281 
z
" transform="scale(0.015625)"/>
        <path id="Helvetica-75" d="M 975 3347 
L 975 1125 
Q 975 869 1056 706 
Q 1206 406 1616 406 
Q 2203 406 2416 931 
Q 2531 1213 2531 1703 
L 2531 3347 
L 3094 3347 
L 3094 0 
L 2563 0 
L 2569 494 
Q 2459 303 2297 172 
Q 1975 -91 1516 -91 
Q 800 -91 541 388 
Q 400 644 400 1072 
L 400 3347 
L 975 3347 
z
M 1747 3428 
L 1747 3428 
z
" transform="scale(0.015625)"/>
        <path id="Helvetica-72" d="M 428 3347 
L 963 3347 
L 963 2769 
Q 1028 2938 1284 3180 
Q 1541 3422 1875 3422 
Q 1891 3422 1928 3419 
Q 1966 3416 2056 3406 
L 2056 2813 
Q 2006 2822 1964 2825 
Q 1922 2828 1872 2828 
Q 1447 2828 1219 2554 
Q 991 2281 991 1925 
L 991 0 
L 428 0 
L 428 3347 
z
" transform="scale(0.015625)"/>
        <path id="Helvetica-65" d="M 1806 3422 
Q 2163 3422 2497 3255 
Q 2831 3088 3006 2822 
Q 3175 2569 3231 2231 
Q 3281 2000 3281 1494 
L 828 1494 
Q 844 984 1069 676 
Q 1294 369 1766 369 
Q 2206 369 2469 659 
Q 2619 828 2681 1050 
L 3234 1050 
Q 3213 866 3089 639 
Q 2966 413 2813 269 
Q 2556 19 2178 -69 
Q 1975 -119 1719 -119 
Q 1094 -119 659 336 
Q 225 791 225 1609 
Q 225 2416 662 2919 
Q 1100 3422 1806 3422 
z
M 2703 1941 
Q 2669 2306 2544 2525 
Q 2313 2931 1772 2931 
Q 1384 2931 1121 2651 
Q 859 2372 844 1941 
L 2703 1941 
z
M 1753 3428 
L 1753 3428 
z
" transform="scale(0.015625)"/>
       </defs>
       <use xlink:href="#Helvetica-49"/>
       <use xlink:href="#Helvetica-6d" x="27.783203"/>
       <use xlink:href="#Helvetica-6d" x="111.083984"/>
       <use xlink:href="#Helvetica-61" x="194.384766"/>
       <use xlink:href="#Helvetica-74" x="250"/>
       <use xlink:href="#Helvetica-75" x="277.783203"/>
       <use xlink:href="#Helvetica-72" x="333.398438"/>
       <use xlink:href="#Helvetica-65" x="366.699219"/>
       <use xlink:href="#Helvetica-20" x="422.314453"/>
       <use xlink:href="#Helvetica-54" x="450.097656"/>
       <use xlink:href="#Helvetica-48" x="511.181641"/>
       <use xlink:href="#Helvetica-32" x="583.398438"/>
      </g>
     </g>
    </g>
   </g>
   <g id="matplotlib.axis_2">
    <g id="ytick_1">
     <g id="line2d_1">
      <defs>
       <path id="m10ad1f65e3" d="M 0 0 
L -1 0 
" style="stroke: #777777; stroke-width: 0.5"/>
      </defs>
      <g>
       <use xlink:href="#m10ad1f65e3" x="11.673365" y="66.139421" style="fill: #777777; stroke: #777777; stroke-width: 0.5"/>
      </g>
     </g>
     <g id="text_5">
      <!-- 0 -->
      <g style="fill: #333333" transform="translate(8.005084 67.215437) scale(0.03 -0.03)">
       <defs>
        <path id="Helvetica-30" d="M 1731 4475 
Q 2600 4475 2988 3759 
Q 3288 3206 3288 2244 
Q 3288 1331 3016 734 
Q 2622 -122 1728 -122 
Q 922 -122 528 578 
Q 200 1163 200 2147 
Q 200 2909 397 3456 
Q 766 4475 1731 4475 
z
M 1725 391 
Q 2163 391 2422 778 
Q 2681 1166 2681 2222 
Q 2681 2984 2493 3476 
Q 2306 3969 1766 3969 
Q 1269 3969 1039 3501 
Q 809 3034 809 2125 
Q 809 1441 956 1025 
Q 1181 391 1725 391 
z
" transform="scale(0.015625)"/>
       </defs>
       <use xlink:href="#Helvetica-30"/>
      </g>
     </g>
    </g>
    <g id="ytick_2">
     <g id="line2d_2">
      <g>
       <use xlink:href="#m10ad1f65e3" x="11.673365" y="55.79556" style="fill: #777777; stroke: #777777; stroke-width: 0.5"/>
      </g>
     </g>
     <g id="text_6">
      <!-- 500 -->
      <g style="fill: #333333" transform="translate(4.668521 56.871576) scale(0.03 -0.03)">
       <defs>
        <path id="Helvetica-35" d="M 791 1141 
Q 847 659 1238 475 
Q 1438 381 1700 381 
Q 2200 381 2440 700 
Q 2681 1019 2681 1406 
Q 2681 1875 2395 2131 
Q 2109 2388 1709 2388 
Q 1419 2388 1211 2275 
Q 1003 2163 856 1963 
L 369 1991 
L 709 4400 
L 3034 4400 
L 3034 3856 
L 1131 3856 
L 941 2613 
Q 1097 2731 1238 2791 
Q 1488 2894 1816 2894 
Q 2431 2894 2859 2497 
Q 3288 2100 3288 1491 
Q 3288 856 2895 371 
Q 2503 -113 1644 -113 
Q 1097 -113 676 195 
Q 256 503 206 1141 
L 791 1141 
z
" transform="scale(0.015625)"/>
       </defs>
       <use xlink:href="#Helvetica-35"/>
       <use xlink:href="#Helvetica-30" x="55.615234"/>
       <use xlink:href="#Helvetica-30" x="111.230469"/>
      </g>
     </g>
    </g>
    <g id="ytick_3">
     <g id="line2d_3">
      <g>
       <use xlink:href="#m10ad1f65e3" x="11.673365" y="45.4517" style="fill: #777777; stroke: #777777; stroke-width: 0.5"/>
      </g>
     </g>
     <g id="text_7">
      <!-- 1000 -->
      <g style="fill: #333333" transform="translate(3.00024 46.527715) scale(0.03 -0.03)">
       <defs>
        <path id="Helvetica-31" d="M 613 3169 
L 613 3600 
Q 1222 3659 1462 3798 
Q 1703 3938 1822 4456 
L 2266 4456 
L 2266 0 
L 1666 0 
L 1666 3169 
L 613 3169 
z
" transform="scale(0.015625)"/>
       </defs>
       <use xlink:href="#Helvetica-31"/>
       <use xlink:href="#Helvetica-30" x="55.615234"/>
       <use xlink:href="#Helvetica-30" x="111.230469"/>
       <use xlink:href="#Helvetica-30" x="166.845703"/>
      </g>
     </g>
    </g>
    <g id="ytick_4">
     <g id="line2d_4">
      <g>
       <use xlink:href="#m10ad1f65e3" x="11.673365" y="35.107839" style="fill: #777777; stroke: #777777; stroke-width: 0.5"/>
      </g>
     </g>
     <g id="text_8">
      <!-- 1500 -->
      <g style="fill: #333333" transform="translate(3.00024 36.183854) scale(0.03 -0.03)">
       <use xlink:href="#Helvetica-31"/>
       <use xlink:href="#Helvetica-35" x="55.615234"/>
       <use xlink:href="#Helvetica-30" x="111.230469"/>
       <use xlink:href="#Helvetica-30" x="166.845703"/>
      </g>
     </g>
    </g>
    <g id="ytick_5">
     <g id="line2d_5">
      <g>
       <use xlink:href="#m10ad1f65e3" x="11.673365" y="24.763978" style="fill: #777777; stroke: #777777; stroke-width: 0.5"/>
      </g>
     </g>
     <g id="text_9">
      <!-- 2000 -->
      <g style="fill: #333333" transform="translate(3.00024 25.839993) scale(0.03 -0.03)">
       <use xlink:href="#Helvetica-32"/>
       <use xlink:href="#Helvetica-30" x="55.615234"/>
       <use xlink:href="#Helvetica-30" x="111.230469"/>
       <use xlink:href="#Helvetica-30" x="166.845703"/>
      </g>
     </g>
    </g>
    <g id="ytick_6">
     <g id="line2d_6">
      <g>
       <use xlink:href="#m10ad1f65e3" x="11.673365" y="14.420117" style="fill: #777777; stroke: #777777; stroke-width: 0.5"/>
      </g>
     </g>
     <g id="text_10">
      <!-- 2500 -->
      <g style="fill: #333333" transform="translate(3.00024 15.496132) scale(0.03 -0.03)">
       <use xlink:href="#Helvetica-32"/>
       <use xlink:href="#Helvetica-35" x="55.615234"/>
       <use xlink:href="#Helvetica-30" x="111.230469"/>
       <use xlink:href="#Helvetica-30" x="166.845703"/>
      </g>
     </g>
    </g>
    <g id="ytick_7">
     <g id="line2d_7">
      <g>
       <use xlink:href="#m10ad1f65e3" x="11.673365" y="4.076256" style="fill: #777777; stroke: #777777; stroke-width: 0.5"/>
      </g>
     </g>
     <g id="text_11">
      <!-- 3000 -->
      <g style="fill: #333333" transform="translate(3.00024 5.152271) scale(0.03 -0.03)">
       <defs>
        <path id="Helvetica-33" d="M 1663 -122 
Q 869 -122 511 314 
Q 153 750 153 1375 
L 741 1375 
Q 778 941 903 744 
Q 1122 391 1694 391 
Q 2138 391 2406 628 
Q 2675 866 2675 1241 
Q 2675 1703 2392 1887 
Q 2109 2072 1606 2072 
Q 1550 2072 1492 2070 
Q 1434 2069 1375 2066 
L 1375 2563 
Q 1463 2553 1522 2550 
Q 1581 2547 1650 2547 
Q 1966 2547 2169 2647 
Q 2525 2822 2525 3272 
Q 2525 3606 2287 3787 
Q 2050 3969 1734 3969 
Q 1172 3969 956 3594 
Q 838 3388 822 3006 
L 266 3006 
Q 266 3506 466 3856 
Q 809 4481 1675 4481 
Q 2359 4481 2734 4176 
Q 3109 3872 3109 3294 
Q 3109 2881 2888 2625 
Q 2750 2466 2531 2375 
Q 2884 2278 3082 2001 
Q 3281 1725 3281 1325 
Q 3281 684 2859 281 
Q 2438 -122 1663 -122 
z
" transform="scale(0.015625)"/>
       </defs>
       <use xlink:href="#Helvetica-33"/>
       <use xlink:href="#Helvetica-30" x="55.615234"/>
       <use xlink:href="#Helvetica-30" x="111.230469"/>
       <use xlink:href="#Helvetica-30" x="166.845703"/>
      </g>
     </g>
    </g>
   </g>
   <g id="PolyCollection_1">
    <defs>
     <path id="m1894838cda" d="M 26.03261 -18.312858 
L 21.905719 -18.312858 
L 21.588285 -18.364378 
L 21.244986 -18.415899 
L 20.877946 -18.467419 
L 20.490059 -18.518939 
L 20.084937 -18.57046 
L 19.666841 -18.62198 
L 19.240547 -18.6735 
L 18.811199 -18.725021 
L 18.384117 -18.776541 
L 17.964595 -18.828061 
L 17.55769 -18.879582 
L 17.168014 -18.931102 
L 16.799549 -18.982622 
L 16.455496 -19.034143 
L 16.138162 -19.085663 
L 15.848904 -19.137184 
L 15.588138 -19.188704 
L 15.355394 -19.240224 
L 15.149438 -19.291745 
L 14.968443 -19.343265 
L 14.81019 -19.394785 
L 14.672304 -19.446306 
L 14.552488 -19.497826 
L 14.448752 -19.549346 
L 14.359617 -19.600867 
L 14.284275 -19.652387 
L 14.222699 -19.703907 
L 14.175688 -19.755428 
L 14.144851 -19.806948 
L 14.132525 -19.858468 
L 14.141633 -19.909989 
L 14.175494 -19.961509 
L 14.237593 -20.01303 
L 14.331334 -20.06455 
L 14.459778 -20.11607 
L 14.625404 -20.167591 
L 14.829888 -20.219111 
L 15.07392 -20.270631 
L 15.357084 -20.322152 
L 15.677777 -20.373672 
L 16.033205 -20.425192 
L 16.419425 -20.476713 
L 16.83145 -20.528233 
L 17.263398 -20.579753 
L 17.708674 -20.631274 
L 18.160175 -20.682794 
L 18.610514 -20.734314 
L 19.052234 -20.785835 
L 19.478014 -20.837355 
L 19.880851 -20.888876 
L 20.254219 -20.940396 
L 20.592189 -20.991916 
L 20.889527 -21.043437 
L 21.14175 -21.094957 
L 21.345163 -21.146477 
L 21.496875 -21.197998 
L 21.594791 -21.249518 
L 21.63761 -21.301038 
L 21.624806 -21.352559 
L 21.556622 -21.404079 
L 21.434065 -21.455599 
L 21.258909 -21.50712 
L 21.033701 -21.55864 
L 20.761778 -21.61016 
L 20.447275 -21.661681 
L 20.095132 -21.713201 
L 19.711086 -21.764721 
L 19.301646 -21.816242 
L 18.87404 -21.867762 
L 18.436134 -21.919283 
L 17.996319 -21.970803 
L 17.563364 -22.022323 
L 17.146233 -22.073844 
L 16.753878 -22.125364 
L 16.39501 -22.176884 
L 16.077851 -22.228405 
L 15.80989 -22.279925 
L 15.597644 -22.331445 
L 15.446437 -22.382966 
L 15.36022 -22.434486 
L 15.341422 -22.486006 
L 15.390867 -22.537527 
L 15.507732 -22.589047 
L 15.689585 -22.640567 
L 15.932471 -22.692088 
L 16.231055 -22.743608 
L 16.578829 -22.795129 
L 16.968342 -22.846649 
L 17.391475 -22.898169 
L 17.839723 -22.94969 
L 18.304478 -23.00121 
L 18.777309 -23.05273 
L 19.250214 -23.104251 
L 19.715832 -23.155771 
L 20.167625 -23.207291 
L 20.600006 -23.258812 
L 21.00842 -23.310332 
L 21.389374 -23.361852 
L 21.740427 -23.413373 
L 26.197901 -23.413373 
L 26.197901 -23.413373 
L 26.548955 -23.361852 
L 26.929909 -23.310332 
L 27.338322 -23.258812 
L 27.770704 -23.207291 
L 28.222497 -23.155771 
L 28.688115 -23.104251 
L 29.161019 -23.05273 
L 29.633851 -23.00121 
L 30.098606 -22.94969 
L 30.546853 -22.898169 
L 30.969987 -22.846649 
L 31.3595 -22.795129 
L 31.707274 -22.743608 
L 32.005858 -22.692088 
L 32.248743 -22.640567 
L 32.430597 -22.589047 
L 32.547462 -22.537527 
L 32.596906 -22.486006 
L 32.578109 -22.434486 
L 32.491892 -22.382966 
L 32.340685 -22.331445 
L 32.128439 -22.279925 
L 31.860478 -22.228405 
L 31.543319 -22.176884 
L 31.18445 -22.125364 
L 30.792096 -22.073844 
L 30.374965 -22.022323 
L 29.942009 -21.970803 
L 29.502195 -21.919283 
L 29.064289 -21.867762 
L 28.636683 -21.816242 
L 28.227243 -21.764721 
L 27.843197 -21.713201 
L 27.491054 -21.661681 
L 27.176551 -21.61016 
L 26.904628 -21.55864 
L 26.67942 -21.50712 
L 26.504263 -21.455599 
L 26.381707 -21.404079 
L 26.313523 -21.352559 
L 26.300719 -21.301038 
L 26.343537 -21.249518 
L 26.441454 -21.197998 
L 26.593165 -21.146477 
L 26.796579 -21.094957 
L 27.048802 -21.043437 
L 27.346139 -20.991916 
L 27.68411 -20.940396 
L 28.057477 -20.888876 
L 28.460314 -20.837355 
L 28.886094 -20.785835 
L 29.327815 -20.734314 
L 29.778154 -20.682794 
L 30.229655 -20.631274 
L 30.67493 -20.579753 
L 31.106879 -20.528233 
L 31.518904 -20.476713 
L 31.905124 -20.425192 
L 32.260551 -20.373672 
L 32.581245 -20.322152 
L 32.864408 -20.270631 
L 33.108441 -20.219111 
L 33.312925 -20.167591 
L 33.478551 -20.11607 
L 33.606995 -20.06455 
L 33.700735 -20.01303 
L 33.762835 -19.961509 
L 33.796696 -19.909989 
L 33.805804 -19.858468 
L 33.793478 -19.806948 
L 33.762641 -19.755428 
L 33.715629 -19.703907 
L 33.654053 -19.652387 
L 33.578712 -19.600867 
L 33.489577 -19.549346 
L 33.385841 -19.497826 
L 33.266024 -19.446306 
L 33.128138 -19.394785 
L 32.969886 -19.343265 
L 32.78889 -19.291745 
L 32.582935 -19.240224 
L 32.350191 -19.188704 
L 32.089424 -19.137184 
L 31.800167 -19.085663 
L 31.482832 -19.034143 
L 31.138779 -18.982622 
L 30.770315 -18.931102 
L 30.380639 -18.879582 
L 29.973734 -18.828061 
L 29.554212 -18.776541 
L 29.127129 -18.725021 
L 28.697781 -18.6735 
L 28.271488 -18.62198 
L 27.853391 -18.57046 
L 27.44827 -18.518939 
L 27.060382 -18.467419 
L 26.693343 -18.415899 
L 26.350044 -18.364378 
L 26.03261 -18.312858 
z
" style="stroke: #717171; stroke-width: 0.15"/>
    </defs>
    <g clip-path="url(#pdc15ab1f9e)">
     <use xlink:href="#m1894838cda" x="0" y="84.96" style="fill: #d6bba3; stroke: #717171; stroke-width: 0.15"/>
    </g>
   </g>
   <g id="PolyCollection_2">
    <defs>
     <path id="m077601fd71" d="M 49.404706 -16.058233 
L 47.716821 -16.058233 
L 47.539947 -16.32385 
L 47.340166 -16.589466 
L 47.117416 -16.855083 
L 46.872099 -17.120699 
L 46.605038 -17.386316 
L 46.317409 -17.651933 
L 46.010643 -17.917549 
L 45.686327 -18.183166 
L 45.346098 -18.448783 
L 44.991563 -18.714399 
L 44.624248 -18.980016 
L 44.245594 -19.245632 
L 43.856991 -19.511249 
L 43.459867 -19.776866 
L 43.055806 -20.042482 
L 42.646683 -20.308099 
L 42.234815 -20.573716 
L 41.823084 -20.839332 
L 41.415031 -21.104949 
L 41.014909 -21.370565 
L 40.627671 -21.636182 
L 40.258909 -21.901799 
L 39.914728 -22.167415 
L 39.601585 -22.433032 
L 39.326076 -22.698649 
L 39.094712 -22.964265 
L 38.913669 -23.229882 
L 38.788546 -23.495498 
L 38.724124 -23.761115 
L 38.724149 -24.026732 
L 38.791137 -24.292348 
L 38.926211 -24.557965 
L 39.128983 -24.823582 
L 39.397485 -25.089198 
L 39.728152 -25.354815 
L 40.115881 -25.620431 
L 40.554137 -25.886048 
L 41.035141 -26.151665 
L 41.550115 -26.417281 
L 42.089572 -26.682898 
L 42.643656 -26.948515 
L 43.20249 -27.214131 
L 43.756531 -27.479748 
L 44.296901 -27.745364 
L 44.81568 -28.010981 
L 45.306135 -28.276598 
L 45.762885 -28.542214 
L 46.181989 -28.807831 
L 46.560956 -29.073448 
L 46.898682 -29.339064 
L 47.19533 -29.604681 
L 47.452154 -29.870297 
L 47.671297 -30.135914 
L 47.855569 -30.401531 
L 48.008222 -30.667147 
L 48.132736 -30.932764 
L 48.23263 -31.198381 
L 48.311296 -31.463997 
L 48.371866 -31.729614 
L 48.417113 -31.99523 
L 48.449379 -32.260847 
L 48.470533 -32.526464 
L 48.481953 -32.79208 
L 48.48453 -33.057697 
L 48.478685 -33.323314 
L 48.464412 -33.58893 
L 48.441329 -33.854547 
L 48.40875 -34.120163 
L 48.365778 -34.38578 
L 48.31141 -34.651397 
L 48.244665 -34.917013 
L 48.164724 -35.18263 
L 48.071079 -35.448247 
L 47.963685 -35.713863 
L 47.843099 -35.97948 
L 47.71059 -36.245096 
L 47.56822 -36.510713 
L 47.418865 -36.77633 
L 47.266174 -37.041946 
L 47.114465 -37.307563 
L 46.968545 -37.57318 
L 46.833474 -37.838796 
L 46.714283 -38.104413 
L 46.615666 -38.370029 
L 46.541678 -38.635646 
L 46.495456 -38.901263 
L 46.479 -39.166879 
L 46.49303 -39.432496 
L 46.536932 -39.698113 
L 46.608804 -39.963729 
L 46.705593 -40.229346 
L 46.82331 -40.494962 
L 46.957299 -40.760579 
L 47.102547 -41.026196 
L 47.253987 -41.291812 
L 47.406786 -41.557429 
L 47.556588 -41.823046 
L 47.699693 -42.088662 
L 47.833177 -42.354279 
L 49.288349 -42.354279 
L 49.288349 -42.354279 
L 49.421834 -42.088662 
L 49.564939 -41.823046 
L 49.71474 -41.557429 
L 49.86754 -41.291812 
L 50.01898 -41.026196 
L 50.164228 -40.760579 
L 50.298217 -40.494962 
L 50.415933 -40.229346 
L 50.512722 -39.963729 
L 50.584594 -39.698113 
L 50.628496 -39.432496 
L 50.642526 -39.166879 
L 50.62607 -38.901263 
L 50.579849 -38.635646 
L 50.505861 -38.370029 
L 50.407244 -38.104413 
L 50.288052 -37.838796 
L 50.152981 -37.57318 
L 50.007061 -37.307563 
L 49.855352 -37.041946 
L 49.702662 -36.77633 
L 49.553306 -36.510713 
L 49.410936 -36.245096 
L 49.278427 -35.97948 
L 49.157841 -35.713863 
L 49.050447 -35.448247 
L 48.956803 -35.18263 
L 48.876861 -34.917013 
L 48.810116 -34.651397 
L 48.755748 -34.38578 
L 48.712776 -34.120163 
L 48.680197 -33.854547 
L 48.657114 -33.58893 
L 48.642841 -33.323314 
L 48.636997 -33.057697 
L 48.639573 -32.79208 
L 48.650994 -32.526464 
L 48.672148 -32.260847 
L 48.704413 -31.99523 
L 48.74966 -31.729614 
L 48.81023 -31.463997 
L 48.888896 -31.198381 
L 48.988791 -30.932764 
L 49.113305 -30.667147 
L 49.265957 -30.401531 
L 49.450229 -30.135914 
L 49.669372 -29.870297 
L 49.926196 -29.604681 
L 50.222844 -29.339064 
L 50.560571 -29.073448 
L 50.939537 -28.807831 
L 51.358642 -28.542214 
L 51.815392 -28.276598 
L 52.305846 -28.010981 
L 52.824625 -27.745364 
L 53.364996 -27.479748 
L 53.919036 -27.214131 
L 54.47787 -26.948515 
L 55.031954 -26.682898 
L 55.571411 -26.417281 
L 56.086385 -26.151665 
L 56.56739 -25.886048 
L 57.005645 -25.620431 
L 57.393374 -25.354815 
L 57.724042 -25.089198 
L 57.992543 -24.823582 
L 58.195315 -24.557965 
L 58.330389 -24.292348 
L 58.397377 -24.026732 
L 58.397403 -23.761115 
L 58.332981 -23.495498 
L 58.207857 -23.229882 
L 58.026814 -22.964265 
L 57.79545 -22.698649 
L 57.519942 -22.433032 
L 57.206798 -22.167415 
L 56.862618 -21.901799 
L 56.493855 -21.636182 
L 56.106617 -21.370565 
L 55.706495 -21.104949 
L 55.298442 -20.839332 
L 54.886711 -20.573716 
L 54.474843 -20.308099 
L 54.06572 -20.042482 
L 53.661659 -19.776866 
L 53.264535 -19.511249 
L 52.875933 -19.245632 
L 52.497278 -18.980016 
L 52.129963 -18.714399 
L 51.775428 -18.448783 
L 51.435199 -18.183166 
L 51.110883 -17.917549 
L 50.804117 -17.651933 
L 50.516488 -17.386316 
L 50.249427 -17.120699 
L 50.00411 -16.855083 
L 49.781361 -16.589466 
L 49.581579 -16.32385 
L 49.404706 -16.058233 
z
" style="stroke: #717171; stroke-width: 0.15"/>
    </defs>
    <g clip-path="url(#pdc15ab1f9e)">
     <use xlink:href="#m077601fd71" x="0" y="84.96" style="fill: #b6cae3; stroke: #717171; stroke-width: 0.15"/>
    </g>
   </g>
   <g id="PolyCollection_3">
    <defs>
     <path id="mf6a3e041f4" d="M 74.663859 -16.778106 
L 71.640865 -16.778106 
L 71.324387 -16.941223 
L 70.966805 -17.104339 
L 70.568695 -17.267456 
L 70.132049 -17.430573 
L 69.660368 -17.593689 
L 69.158681 -17.756806 
L 68.633472 -17.919923 
L 68.092503 -18.083039 
L 67.54455 -18.246156 
L 66.999055 -18.409273 
L 66.465717 -18.572389 
L 65.954057 -18.735506 
L 65.47297 -18.898623 
L 65.030334 -19.061739 
L 64.632673 -19.224856 
L 64.284918 -19.387973 
L 63.990294 -19.551089 
L 63.750311 -19.714206 
L 63.564879 -19.877323 
L 63.432514 -20.040439 
L 63.350606 -20.203556 
L 63.315722 -20.366673 
L 63.323901 -20.529789 
L 63.370904 -20.692906 
L 63.452409 -20.856023 
L 63.564124 -21.019139 
L 63.701822 -21.182256 
L 63.861317 -21.345373 
L 64.038408 -21.508489 
L 64.228806 -21.671606 
L 64.4281 -21.834723 
L 64.63178 -21.997839 
L 64.835324 -22.160956 
L 65.034382 -22.324073 
L 65.225017 -22.48719 
L 65.404005 -22.650306 
L 65.56913 -22.813423 
L 65.719468 -22.97654 
L 65.855575 -23.139656 
L 65.979584 -23.302773 
L 66.09515 -23.46589 
L 66.20726 -23.629006 
L 66.321902 -23.792123 
L 66.445622 -23.95524 
L 66.585013 -24.118356 
L 66.746171 -24.281473 
L 66.934184 -24.44459 
L 67.152703 -24.607706 
L 67.403617 -24.770823 
L 67.686883 -24.93394 
L 68.000507 -25.097056 
L 68.340679 -25.260173 
L 68.702037 -25.42329 
L 69.078035 -25.586406 
L 69.461373 -25.749523 
L 69.844446 -25.91264 
L 70.219771 -26.075756 
L 70.580368 -26.238873 
L 70.920053 -26.40199 
L 71.233642 -26.565106 
L 71.517057 -26.728223 
L 71.767331 -26.89134 
L 71.982551 -27.054456 
L 72.161725 -27.217573 
L 72.304626 -27.38069 
L 72.411622 -27.543806 
L 72.483517 -27.706923 
L 72.521423 -27.87004 
L 72.52667 -28.033156 
L 72.500773 -28.196273 
L 72.445436 -28.35939 
L 72.36261 -28.522506 
L 72.254573 -28.685623 
L 72.124027 -28.84874 
L 71.974193 -29.011857 
L 71.808879 -29.174973 
L 71.632513 -29.33809 
L 71.450114 -29.501207 
L 71.267211 -29.664323 
L 71.089689 -29.82744 
L 70.923579 -29.990557 
L 70.774796 -30.153673 
L 70.648862 -30.31679 
L 70.550606 -30.479907 
L 70.4839 -30.643023 
L 70.451426 -30.80614 
L 70.454525 -30.969257 
L 70.493114 -31.132373 
L 70.565696 -31.29549 
L 70.669472 -31.458607 
L 70.800515 -31.621723 
L 70.954026 -31.78484 
L 71.124622 -31.947957 
L 71.306654 -32.111073 
L 71.494508 -32.27419 
L 71.682888 -32.437307 
L 71.867046 -32.600423 
L 72.042956 -32.76354 
L 72.207425 -32.926657 
L 74.097299 -32.926657 
L 74.097299 -32.926657 
L 74.261767 -32.76354 
L 74.437678 -32.600423 
L 74.621836 -32.437307 
L 74.810216 -32.27419 
L 74.99807 -32.111073 
L 75.180101 -31.947957 
L 75.350698 -31.78484 
L 75.504208 -31.621723 
L 75.635252 -31.458607 
L 75.739027 -31.29549 
L 75.81161 -31.132373 
L 75.850198 -30.969257 
L 75.853298 -30.80614 
L 75.820824 -30.643023 
L 75.754117 -30.479907 
L 75.655862 -30.31679 
L 75.529927 -30.153673 
L 75.381145 -29.990557 
L 75.215034 -29.82744 
L 75.037513 -29.664323 
L 74.85461 -29.501207 
L 74.672211 -29.33809 
L 74.495844 -29.174973 
L 74.330531 -29.011857 
L 74.180696 -28.84874 
L 74.050151 -28.685623 
L 73.942114 -28.522506 
L 73.859288 -28.35939 
L 73.803951 -28.196273 
L 73.778053 -28.033156 
L 73.783301 -27.87004 
L 73.821206 -27.706923 
L 73.893102 -27.543806 
L 74.000098 -27.38069 
L 74.142999 -27.217573 
L 74.322172 -27.054456 
L 74.537392 -26.89134 
L 74.787667 -26.728223 
L 75.071081 -26.565106 
L 75.384671 -26.40199 
L 75.724356 -26.238873 
L 76.084953 -26.075756 
L 76.460278 -25.91264 
L 76.84335 -25.749523 
L 77.226689 -25.586406 
L 77.602687 -25.42329 
L 77.964045 -25.260173 
L 78.304216 -25.097056 
L 78.617841 -24.93394 
L 78.901106 -24.770823 
L 79.15202 -24.607706 
L 79.370539 -24.44459 
L 79.558553 -24.281473 
L 79.71971 -24.118356 
L 79.859101 -23.95524 
L 79.982822 -23.792123 
L 80.097464 -23.629006 
L 80.209574 -23.46589 
L 80.32514 -23.302773 
L 80.449149 -23.139656 
L 80.585256 -22.97654 
L 80.735594 -22.813423 
L 80.900719 -22.650306 
L 81.079706 -22.48719 
L 81.270342 -22.324073 
L 81.4694 -22.160956 
L 81.672944 -21.997839 
L 81.876624 -21.834723 
L 82.075918 -21.671606 
L 82.266316 -21.508489 
L 82.443406 -21.345373 
L 82.602902 -21.182256 
L 82.7406 -21.019139 
L 82.852315 -20.856023 
L 82.93382 -20.692906 
L 82.980823 -20.529789 
L 82.989001 -20.366673 
L 82.954118 -20.203556 
L 82.87221 -20.040439 
L 82.739844 -19.877323 
L 82.554413 -19.714206 
L 82.31443 -19.551089 
L 82.019806 -19.387973 
L 81.672051 -19.224856 
L 81.274389 -19.061739 
L 80.831754 -18.898623 
L 80.350667 -18.735506 
L 79.839006 -18.572389 
L 79.305669 -18.409273 
L 78.760174 -18.246156 
L 78.212221 -18.083039 
L 77.671252 -17.919923 
L 77.146042 -17.756806 
L 76.644356 -17.593689 
L 76.172675 -17.430573 
L 75.736029 -17.267456 
L 75.337919 -17.104339 
L 74.980337 -16.941223 
L 74.663859 -16.778106 
z
" style="stroke: #717171; stroke-width: 0.15"/>
    </defs>
    <g clip-path="url(#pdc15ab1f9e)">
     <use xlink:href="#mf6a3e041f4" x="0" y="84.96" style="fill: #c0d2e7; stroke: #717171; stroke-width: 0.15"/>
    </g>
   </g>
   <g id="PolyCollection_4">
    <defs>
     <path id="m6e53127545" d="M 98.859354 -18.312842 
L 96.628568 -18.312842 
L 96.430343 -18.353181 
L 96.212567 -18.393519 
L 95.976168 -18.433857 
L 95.722458 -18.474196 
L 95.453032 -18.514534 
L 95.169638 -18.554873 
L 94.874023 -18.595211 
L 94.567777 -18.635549 
L 94.252188 -18.675888 
L 93.928135 -18.716226 
L 93.596033 -18.756565 
L 93.255848 -18.796903 
L 92.907192 -18.837242 
L 92.549502 -18.87758 
L 92.182291 -18.917918 
L 91.805442 -18.958257 
L 91.419545 -18.998595 
L 91.026206 -19.038934 
L 90.628312 -19.079272 
L 90.230212 -19.11961 
L 89.837771 -19.159949 
L 89.458283 -19.200287 
L 89.100227 -19.240626 
L 88.772881 -19.280964 
L 88.485809 -19.321303 
L 88.24826 -19.361641 
L 88.068531 -19.401979 
L 87.953349 -19.442318 
L 87.907321 -19.482656 
L 87.932524 -19.522995 
L 88.028249 -19.563333 
L 88.190952 -19.603671 
L 88.414401 -19.64401 
L 88.690014 -19.684348 
L 89.007361 -19.724687 
L 89.354781 -19.765025 
L 89.720065 -19.805363 
L 90.091142 -19.845702 
L 90.456708 -19.88604 
L 90.806764 -19.926379 
L 91.133011 -19.966717 
L 91.429082 -20.007056 
L 91.690621 -20.047394 
L 91.915204 -20.087732 
L 92.102137 -20.128071 
L 92.252162 -20.168409 
L 92.367117 -20.208748 
L 92.449583 -20.249086 
L 92.50256 -20.289424 
L 92.529199 -20.329763 
L 92.532608 -20.370101 
L 92.515738 -20.41044 
L 92.481351 -20.450778 
L 92.432044 -20.491117 
L 92.370324 -20.531455 
L 92.298697 -20.571793 
L 92.219763 -20.612132 
L 92.136279 -20.65247 
L 92.051192 -20.692809 
L 91.967619 -20.733147 
L 91.888782 -20.773485 
L 91.817898 -20.813824 
L 91.75804 -20.854162 
L 91.711975 -20.894501 
L 91.682011 -20.934839 
L 91.669849 -20.975177 
L 91.676484 -21.015516 
L 91.70214 -21.055854 
L 91.746269 -21.096193 
L 91.807605 -21.136531 
L 91.88428 -21.17687 
L 91.973981 -21.217208 
L 92.074157 -21.257546 
L 92.182234 -21.297885 
L 92.295844 -21.338223 
L 92.413023 -21.378562 
L 92.532383 -21.4189 
L 92.653221 -21.459238 
L 92.775569 -21.499577 
L 92.900165 -21.539915 
L 93.028359 -21.580254 
L 93.161959 -21.620592 
L 93.30302 -21.660931 
L 93.453612 -21.701269 
L 93.615584 -21.741607 
L 93.790338 -21.781946 
L 93.978647 -21.822284 
L 94.180525 -21.862623 
L 94.395165 -21.902961 
L 94.62095 -21.943299 
L 94.855523 -21.983638 
L 95.095923 -22.023976 
L 95.338765 -22.064315 
L 95.580441 -22.104653 
L 95.817328 -22.144991 
L 96.045996 -22.18533 
L 96.263372 -22.225668 
L 96.466884 -22.266007 
L 96.654549 -22.306345 
L 98.833372 -22.306345 
L 98.833372 -22.306345 
L 99.021038 -22.266007 
L 99.22455 -22.225668 
L 99.441926 -22.18533 
L 99.670593 -22.144991 
L 99.90748 -22.104653 
L 100.149156 -22.064315 
L 100.391998 -22.023976 
L 100.632399 -21.983638 
L 100.866971 -21.943299 
L 101.092756 -21.902961 
L 101.307396 -21.862623 
L 101.509274 -21.822284 
L 101.697583 -21.781946 
L 101.872337 -21.741607 
L 102.034309 -21.701269 
L 102.184901 -21.660931 
L 102.325962 -21.620592 
L 102.459562 -21.580254 
L 102.587757 -21.539915 
L 102.712352 -21.499577 
L 102.8347 -21.459238 
L 102.955539 -21.4189 
L 103.074898 -21.378562 
L 103.192078 -21.338223 
L 103.305687 -21.297885 
L 103.413765 -21.257546 
L 103.51394 -21.217208 
L 103.603642 -21.17687 
L 103.680316 -21.136531 
L 103.741653 -21.096193 
L 103.785782 -21.055854 
L 103.811437 -21.015516 
L 103.818072 -20.975177 
L 103.80591 -20.934839 
L 103.775946 -20.894501 
L 103.729882 -20.854162 
L 103.670023 -20.813824 
L 103.599139 -20.773485 
L 103.520302 -20.733147 
L 103.436729 -20.692809 
L 103.351642 -20.65247 
L 103.268158 -20.612132 
L 103.189224 -20.571793 
L 103.117598 -20.531455 
L 103.055877 -20.491117 
L 103.00657 -20.450778 
L 102.972183 -20.41044 
L 102.955314 -20.370101 
L 102.958722 -20.329763 
L 102.985361 -20.289424 
L 103.038338 -20.249086 
L 103.120804 -20.208748 
L 103.235759 -20.168409 
L 103.385784 -20.128071 
L 103.572717 -20.087732 
L 103.7973 -20.047394 
L 104.058839 -20.007056 
L 104.35491 -19.966717 
L 104.681157 -19.926379 
L 105.031214 -19.88604 
L 105.39678 -19.845702 
L 105.767856 -19.805363 
L 106.13314 -19.765025 
L 106.48056 -19.724687 
L 106.797907 -19.684348 
L 107.07352 -19.64401 
L 107.296969 -19.603671 
L 107.459673 -19.563333 
L 107.555398 -19.522995 
L 107.5806 -19.482656 
L 107.534573 -19.442318 
L 107.41939 -19.401979 
L 107.239661 -19.361641 
L 107.002112 -19.321303 
L 106.71504 -19.280964 
L 106.387694 -19.240626 
L 106.029638 -19.200287 
L 105.65015 -19.159949 
L 105.257709 -19.11961 
L 104.85961 -19.079272 
L 104.461716 -19.038934 
L 104.068376 -18.998595 
L 103.682479 -18.958257 
L 103.305631 -18.917918 
L 102.938419 -18.87758 
L 102.58073 -18.837242 
L 102.232074 -18.796903 
L 101.891888 -18.756565 
L 101.559786 -18.716226 
L 101.235733 -18.675888 
L 100.920144 -18.635549 
L 100.613898 -18.595211 
L 100.318283 -18.554873 
L 100.034889 -18.514534 
L 99.765463 -18.474196 
L 99.511753 -18.433857 
L 99.275355 -18.393519 
L 99.057579 -18.353181 
L 98.859354 -18.312842 
z
" style="stroke: #717171; stroke-width: 0.15"/>
    </defs>
    <g clip-path="url(#pdc15ab1f9e)">
     <use xlink:href="#m6e53127545" x="0" y="84.96" style="fill: #cbdaeb; stroke: #717171; stroke-width: 0.15"/>
    </g>
   </g>
   <g id="line2d_8">
    <path d="M 23.969164 65.86395 
L 23.969164 62.32982 
" clip-path="url(#pdc15ab1f9e)" style="fill: none; stroke: #8c8c8c; stroke-width: 0.75; stroke-linecap: round"/>
   </g>
   <g id="line2d_9">
    <path d="M 23.969164 65.311788 
L 23.969164 62.672946 
" clip-path="url(#pdc15ab1f9e)" style="fill: none; stroke: #8c8c8c; stroke-width: 4; stroke-linecap: round"/>
   </g>
   <g id="line2d_10">
    <path d="M 23.969164 64.654161 
" clip-path="url(#pdc15ab1f9e)" style="fill: none; stroke: #717171; stroke-width: 1.2; stroke-linecap: round"/>
    <defs>
     <path id="mf8453c05b5" d="M 0 0.833333 
C 0.221003 0.833333 0.432983 0.745528 0.589256 0.589256 
C 0.745528 0.432983 0.833333 0.221003 0.833333 0 
C 0.833333 -0.221003 0.745528 -0.432983 0.589256 -0.589256 
C 0.432983 -0.745528 0.221003 -0.833333 0 -0.833333 
C -0.221003 -0.833333 -0.432983 -0.745528 -0.589256 -0.589256 
C -0.745528 -0.432983 -0.833333 -0.221003 -0.833333 0 
C -0.833333 0.221003 -0.745528 0.432983 -0.589256 0.589256 
C -0.432983 0.745528 -0.221003 0.833333 0 0.833333 
z
" style="stroke: #ffffff; stroke-width: 0.8"/>
    </defs>
    <g clip-path="url(#pdc15ab1f9e)">
     <use xlink:href="#mf8453c05b5" x="23.969164" y="64.654161" style="fill: #ffffff; stroke: #ffffff; stroke-width: 0.8"/>
    </g>
   </g>
   <g id="line2d_11">
    <path d="M 48.560763 65.724976 
L 48.560763 58.307967 
" clip-path="url(#pdc15ab1f9e)" style="fill: none; stroke: #8c8c8c; stroke-width: 0.75; stroke-linecap: round"/>
   </g>
   <g id="line2d_12">
    <path d="M 48.560763 62.527001 
L 48.560763 59.486856 
" clip-path="url(#pdc15ab1f9e)" style="fill: none; stroke: #8c8c8c; stroke-width: 4; stroke-linecap: round"/>
   </g>
   <g id="line2d_13">
    <path d="M 48.560763 60.734643 
" clip-path="url(#pdc15ab1f9e)" style="fill: none; stroke: #717171; stroke-width: 1.2; stroke-linecap: round"/>
    <g clip-path="url(#pdc15ab1f9e)">
     <use xlink:href="#mf8453c05b5" x="48.560763" y="60.734643" style="fill: #ffffff; stroke: #ffffff; stroke-width: 0.8"/>
    </g>
   </g>
   <g id="line2d_14">
    <path d="M 73.152362 66.129532 
L 73.152362 60.140825 
" clip-path="url(#pdc15ab1f9e)" style="fill: none; stroke: #8c8c8c; stroke-width: 0.75; stroke-linecap: round"/>
   </g>
   <g id="line2d_15">
    <path d="M 73.152362 64.983886 
L 73.152362 60.663477 
" clip-path="url(#pdc15ab1f9e)" style="fill: none; stroke: #8c8c8c; stroke-width: 4; stroke-linecap: round"/>
   </g>
   <g id="line2d_16">
    <path d="M 73.152362 63.173618 
" clip-path="url(#pdc15ab1f9e)" style="fill: none; stroke: #717171; stroke-width: 1.2; stroke-linecap: round"/>
    <g clip-path="url(#pdc15ab1f9e)">
     <use xlink:href="#mf8453c05b5" x="73.152362" y="63.173618" style="fill: #ffffff; stroke: #ffffff; stroke-width: 0.8"/>
    </g>
   </g>
   <g id="line2d_17">
    <path d="M 97.743961 66.115598 
L 97.743961 63.185215 
" clip-path="url(#pdc15ab1f9e)" style="fill: none; stroke: #8c8c8c; stroke-width: 0.75; stroke-linecap: round"/>
   </g>
   <g id="line2d_18">
    <path d="M 97.743961 65.463739 
L 97.743961 64.046546 
" clip-path="url(#pdc15ab1f9e)" style="fill: none; stroke: #8c8c8c; stroke-width: 4; stroke-linecap: round"/>
   </g>
   <g id="line2d_19">
    <path d="M 97.743961 65.030491 
" clip-path="url(#pdc15ab1f9e)" style="fill: none; stroke: #717171; stroke-width: 1.2; stroke-linecap: round"/>
    <g clip-path="url(#pdc15ab1f9e)">
     <use xlink:href="#mf8453c05b5" x="97.743961" y="65.030491" style="fill: #ffffff; stroke: #ffffff; stroke-width: 0.8"/>
    </g>
   </g>
   <g id="patch_3">
    <path d="M 11.673365 74.393822 
L 11.673365 4.076256 
" style="fill: none; stroke: #777777; stroke-width: 0.5; stroke-linejoin: miter; stroke-linecap: square"/>
   </g>
   <g id="patch_4">
    <path d="M 11.673365 76.893822 
L 110.03976 76.893822 
" style="fill: none; stroke: #777777; stroke-width: 0.5; stroke-linejoin: miter; stroke-linecap: square"/>
   </g>
  </g>
 </g>
 <defs>
  <clipPath id="pdc15ab1f9e">
   <rect x="11.673365" y="4.076256" width="98.366395" height="70.317567"/>
  </clipPath>
 </defs>
</svg>
