<?xml version="1.0" encoding="utf-8" standalone="no"?>
<!DOCTYPE svg PUBLIC "-//W3C//DTD SVG 1.1//EN"
  "http://www.w3.org/Graphics/SVG/1.1/DTD/svg11.dtd">
<svg xmlns:xlink="http://www.w3.org/1999/xlink" width="141.12pt" height="84.96pt" viewBox="0 0 141.12 84.96" xmlns="http://www.w3.org/2000/svg" version="1.1">
 <metadata>
  <rdf:RDF xmlns:dc="http://purl.org/dc/elements/1.1/" xmlns:cc="http://creativecommons.org/ns#" xmlns:rdf="http://www.w3.org/1999/02/22-rdf-syntax-ns#">
   <cc:Work>
    <dc:type rdf:resource="http://purl.org/dc/dcmitype/StillImage"/>
    <dc:date>2024-05-27T15:37:15.331989</dc:date>
    <dc:format>image/svg+xml</dc:format>
    <dc:creator>
     <cc:Agent>
      <dc:title>Matplotlib v3.8.3, https://matplotlib.org/</dc:title>
     </cc:Agent>
    </dc:creator>
   </cc:Work>
  </rdf:RDF>
 </metadata>
 <defs>
  <style type="text/css">*{stroke-linejoin: round; stroke-linecap: butt}</style>
 </defs>
 <g id="figure_1">
  <g id="patch_1">
   <path d="M 0 84.96 
L 141.12 84.96 
L 141.12 0 
L 0 0 
z
" style="fill: #ffffff"/>
  </g>
  <g id="axes_1">
   <g id="patch_2">
    <path d="M 8.336802 74.419526 
L 138.11976 74.419526 
L 138.11976 4.076256 
L 8.336802 4.076256 
z
" style="fill: #ffffff"/>
   </g>
   <g id="matplotlib.axis_1">
    <g id="xtick_1">
     <g id="text_1">
      <!-- NK/ILC1ie -->
      <g style="fill: #333333" transform="translate(13.339473 81.230229) scale(0.035 -0.035)">
       <defs>
        <path id="Helvetica-4e" d="M 488 4591 
L 1222 4591 
L 3541 872 
L 3541 4591 
L 4131 4591 
L 4131 0 
L 3434 0 
L 1081 3716 
L 1081 0 
L 488 0 
L 488 4591 
z
M 2269 4591 
L 2269 4591 
z
" transform="scale(0.015625)"/>
        <path id="Helvetica-4b" d="M 488 4591 
L 1094 4591 
L 1094 2353 
L 3331 4591 
L 4191 4591 
L 2281 2741 
L 4244 0 
L 3434 0 
L 1828 2303 
L 1094 1600 
L 1094 0 
L 488 0 
L 488 4591 
z
" transform="scale(0.015625)"/>
        <path id="Helvetica-2f" d="M 1456 4591 
L 1931 4591 
L 475 0 
L 0 0 
L 1456 4591 
z
" transform="scale(0.015625)"/>
        <path id="Helvetica-49" d="M 628 4591 
L 1256 4591 
L 1256 0 
L 628 0 
L 628 4591 
z
" transform="scale(0.015625)"/>
        <path id="Helvetica-4c" d="M 488 4591 
L 1109 4591 
L 1109 547 
L 3434 547 
L 3434 0 
L 488 0 
L 488 4591 
z
" transform="scale(0.015625)"/>
        <path id="Helvetica-43" d="M 2422 4716 
Q 3294 4716 3775 4256 
Q 4256 3797 4309 3213 
L 3703 3213 
Q 3600 3656 3292 3915 
Q 2984 4175 2428 4175 
Q 1750 4175 1333 3698 
Q 916 3222 916 2238 
Q 916 1431 1292 929 
Q 1669 428 2416 428 
Q 3103 428 3463 956 
Q 3653 1234 3747 1688 
L 4353 1688 
Q 4272 963 3816 472 
Q 3269 -119 2341 -119 
Q 1541 -119 997 366 
Q 281 1006 281 2344 
Q 281 3359 819 4009 
Q 1400 4716 2422 4716 
z
M 2297 4716 
L 2297 4716 
z
" transform="scale(0.015625)"/>
        <path id="Helvetica-31" d="M 613 3169 
L 613 3600 
Q 1222 3659 1462 3798 
Q 1703 3938 1822 4456 
L 2266 4456 
L 2266 0 
L 1666 0 
L 1666 3169 
L 613 3169 
z
" transform="scale(0.015625)"/>
        <path id="Helvetica-69" d="M 413 3331 
L 984 3331 
L 984 0 
L 413 0 
L 413 3331 
z
M 413 4591 
L 984 4591 
L 984 3953 
L 413 3953 
L 413 4591 
z
" transform="scale(0.015625)"/>
        <path id="Helvetica-65" d="M 1806 3422 
Q 2163 3422 2497 3255 
Q 2831 3088 3006 2822 
Q 3175 2569 3231 2231 
Q 3281 2000 3281 1494 
L 828 1494 
Q 844 984 1069 676 
Q 1294 369 1766 369 
Q 2206 369 2469 659 
Q 2619 828 2681 1050 
L 3234 1050 
Q 3213 866 3089 639 
Q 2966 413 2813 269 
Q 2556 19 2178 -69 
Q 1975 -119 1719 -119 
Q 1094 -119 659 336 
Q 225 791 225 1609 
Q 225 2416 662 2919 
Q 1100 3422 1806 3422 
z
M 2703 1941 
Q 2669 2306 2544 2525 
Q 2313 2931 1772 2931 
Q 1384 2931 1121 2651 
Q 859 2372 844 1941 
L 2703 1941 
z
M 1753 3428 
L 1753 3428 
z
" transform="scale(0.015625)"/>
       </defs>
       <use xlink:href="#Helvetica-4e"/>
       <use xlink:href="#Helvetica-4b" x="72.216797"/>
       <use xlink:href="#Helvetica-2f" x="138.916016"/>
       <use xlink:href="#Helvetica-49" x="166.699219"/>
       <use xlink:href="#Helvetica-4c" x="194.482422"/>
       <use xlink:href="#Helvetica-43" x="250.097656"/>
       <use xlink:href="#Helvetica-31" x="322.314453"/>
       <use xlink:href="#Helvetica-69" x="377.929688"/>
       <use xlink:href="#Helvetica-65" x="400.146484"/>
      </g>
     </g>
    </g>
    <g id="xtick_2">
     <g id="text_2">
      <!-- ILC1 -->
      <g style="fill: #333333" transform="translate(43.575362 81.230229) scale(0.035 -0.035)">
       <use xlink:href="#Helvetica-49"/>
       <use xlink:href="#Helvetica-4c" x="27.783203"/>
       <use xlink:href="#Helvetica-43" x="83.398438"/>
       <use xlink:href="#Helvetica-31" x="155.615234"/>
      </g>
     </g>
    </g>
    <g id="xtick_3">
     <g id="text_3">
      <!-- TH1 -->
      <g style="fill: #333333" transform="translate(69.922422 81.230229) scale(0.035 -0.035)">
       <defs>
        <path id="Helvetica-54" d="M 3828 4591 
L 3828 4044 
L 2281 4044 
L 2281 0 
L 1650 0 
L 1650 4044 
L 103 4044 
L 103 4591 
L 3828 4591 
z
" transform="scale(0.015625)"/>
        <path id="Helvetica-48" d="M 503 4591 
L 1131 4591 
L 1131 2694 
L 3519 2694 
L 3519 4591 
L 4147 4591 
L 4147 0 
L 3519 0 
L 3519 2147 
L 1131 2147 
L 1131 0 
L 503 0 
L 503 4591 
z
" transform="scale(0.015625)"/>
       </defs>
       <use xlink:href="#Helvetica-54"/>
       <use xlink:href="#Helvetica-48" x="61.083984"/>
       <use xlink:href="#Helvetica-31" x="133.300781"/>
      </g>
     </g>
    </g>
    <g id="xtick_4">
     <g id="text_4">
      <!-- icCD3+ NK/ILC1ie -->
      <g style="fill: #333333" transform="translate(84.936318 81.230229) scale(0.035 -0.035)">
       <defs>
        <path id="Helvetica-63" d="M 1703 3444 
Q 2269 3444 2623 3169 
Q 2978 2894 3050 2222 
L 2503 2222 
Q 2453 2531 2275 2736 
Q 2097 2941 1703 2941 
Q 1166 2941 934 2416 
Q 784 2075 784 1575 
Q 784 1072 996 728 
Q 1209 384 1666 384 
Q 2016 384 2220 598 
Q 2425 813 2503 1184 
L 3050 1184 
Q 2956 519 2581 211 
Q 2206 -97 1622 -97 
Q 966 -97 575 383 
Q 184 863 184 1581 
Q 184 2463 612 2953 
Q 1041 3444 1703 3444 
z
M 1616 3428 
L 1616 3428 
z
" transform="scale(0.015625)"/>
        <path id="Helvetica-44" d="M 2250 531 
Q 2566 531 2769 597 
Q 3131 719 3363 1066 
Q 3547 1344 3628 1778 
Q 3675 2038 3675 2259 
Q 3675 3113 3336 3584 
Q 2997 4056 2244 4056 
L 1141 4056 
L 1141 531 
L 2250 531 
z
M 516 4591 
L 2375 4591 
Q 3322 4591 3844 3919 
Q 4309 3313 4309 2366 
Q 4309 1634 4034 1044 
Q 3550 0 2369 0 
L 516 0 
L 516 4591 
z
" transform="scale(0.015625)"/>
        <path id="Helvetica-33" d="M 1663 -122 
Q 869 -122 511 314 
Q 153 750 153 1375 
L 741 1375 
Q 778 941 903 744 
Q 1122 391 1694 391 
Q 2138 391 2406 628 
Q 2675 866 2675 1241 
Q 2675 1703 2392 1887 
Q 2109 2072 1606 2072 
Q 1550 2072 1492 2070 
Q 1434 2069 1375 2066 
L 1375 2563 
Q 1463 2553 1522 2550 
Q 1581 2547 1650 2547 
Q 1966 2547 2169 2647 
Q 2525 2822 2525 3272 
Q 2525 3606 2287 3787 
Q 2050 3969 1734 3969 
Q 1172 3969 956 3594 
Q 838 3388 822 3006 
L 266 3006 
Q 266 3506 466 3856 
Q 809 4481 1675 4481 
Q 2359 4481 2734 4176 
Q 3109 3872 3109 3294 
Q 3109 2881 2888 2625 
Q 2750 2466 2531 2375 
Q 2884 2278 3082 2001 
Q 3281 1725 3281 1325 
Q 3281 684 2859 281 
Q 2438 -122 1663 -122 
z
" transform="scale(0.015625)"/>
        <path id="Helvetica-2b" d="M 288 1369 
L 288 1894 
L 1650 1894 
L 1650 3266 
L 2184 3266 
L 2184 1894 
L 3547 1894 
L 3547 1369 
L 2184 1369 
L 2184 0 
L 1650 0 
L 1650 1369 
L 288 1369 
z
" transform="scale(0.015625)"/>
        <path id="Helvetica-20" transform="scale(0.015625)"/>
       </defs>
       <use xlink:href="#Helvetica-69"/>
       <use xlink:href="#Helvetica-63" x="22.216797"/>
       <use xlink:href="#Helvetica-43" x="72.216797"/>
       <use xlink:href="#Helvetica-44" x="144.433594"/>
       <use xlink:href="#Helvetica-33" x="216.650391"/>
       <use xlink:href="#Helvetica-2b" x="272.265625"/>
       <use xlink:href="#Helvetica-20" x="330.664062"/>
       <use xlink:href="#Helvetica-4e" x="358.447266"/>
       <use xlink:href="#Helvetica-4b" x="430.664062"/>
       <use xlink:href="#Helvetica-2f" x="497.363281"/>
       <use xlink:href="#Helvetica-49" x="525.146484"/>
       <use xlink:href="#Helvetica-4c" x="552.929688"/>
       <use xlink:href="#Helvetica-43" x="608.544922"/>
       <use xlink:href="#Helvetica-31" x="680.761719"/>
       <use xlink:href="#Helvetica-69" x="736.376953"/>
       <use xlink:href="#Helvetica-65" x="758.59375"/>
      </g>
     </g>
    </g>
    <g id="xtick_5">
     <g id="text_5">
      <!-- icCD3+ ILC1 -->
      <g style="fill: #333333" transform="translate(115.172206 81.230229) scale(0.035 -0.035)">
       <use xlink:href="#Helvetica-69"/>
       <use xlink:href="#Helvetica-63" x="22.216797"/>
       <use xlink:href="#Helvetica-43" x="72.216797"/>
       <use xlink:href="#Helvetica-44" x="144.433594"/>
       <use xlink:href="#Helvetica-33" x="216.650391"/>
       <use xlink:href="#Helvetica-2b" x="272.265625"/>
       <use xlink:href="#Helvetica-20" x="330.664062"/>
       <use xlink:href="#Helvetica-49" x="358.447266"/>
       <use xlink:href="#Helvetica-4c" x="386.230469"/>
       <use xlink:href="#Helvetica-43" x="441.845703"/>
       <use xlink:href="#Helvetica-31" x="514.0625"/>
      </g>
     </g>
    </g>
   </g>
   <g id="matplotlib.axis_2">
    <g id="ytick_1">
     <g id="line2d_1">
      <defs>
       <path id="m986f3ba530" d="M 0 0 
L -1 0 
" style="stroke: #777777; stroke-width: 0.5"/>
      </defs>
      <g>
       <use xlink:href="#m986f3ba530" x="8.336802" y="66.995102" style="fill: #777777; stroke: #777777; stroke-width: 0.5"/>
      </g>
     </g>
     <g id="text_6">
      <!-- 0 -->
      <g style="fill: #333333" transform="translate(4.668521 68.071117) scale(0.03 -0.03)">
       <defs>
        <path id="Helvetica-30" d="M 1731 4475 
Q 2600 4475 2988 3759 
Q 3288 3206 3288 2244 
Q 3288 1331 3016 734 
Q 2622 -122 1728 -122 
Q 922 -122 528 578 
Q 200 1163 200 2147 
Q 200 2909 397 3456 
Q 766 4475 1731 4475 
z
M 1725 391 
Q 2163 391 2422 778 
Q 2681 1166 2681 2222 
Q 2681 2984 2493 3476 
Q 2306 3969 1766 3969 
Q 1269 3969 1039 3501 
Q 809 3034 809 2125 
Q 809 1441 956 1025 
Q 1181 391 1725 391 
z
" transform="scale(0.015625)"/>
       </defs>
       <use xlink:href="#Helvetica-30"/>
      </g>
     </g>
    </g>
    <g id="ytick_2">
     <g id="line2d_2">
      <g>
       <use xlink:href="#m986f3ba530" x="8.336802" y="54.411333" style="fill: #777777; stroke: #777777; stroke-width: 0.5"/>
      </g>
     </g>
     <g id="text_7">
      <!-- 10 -->
      <g style="fill: #333333" transform="translate(3.00024 55.487348) scale(0.03 -0.03)">
       <use xlink:href="#Helvetica-31"/>
       <use xlink:href="#Helvetica-30" x="55.615234"/>
      </g>
     </g>
    </g>
    <g id="ytick_3">
     <g id="line2d_3">
      <g>
       <use xlink:href="#m986f3ba530" x="8.336802" y="41.827563" style="fill: #777777; stroke: #777777; stroke-width: 0.5"/>
      </g>
     </g>
     <g id="text_8">
      <!-- 20 -->
      <g style="fill: #333333" transform="translate(3.00024 42.903579) scale(0.03 -0.03)">
       <defs>
        <path id="Helvetica-32" d="M 200 0 
Q 231 578 439 1006 
Q 647 1434 1250 1784 
L 1850 2131 
Q 2253 2366 2416 2531 
Q 2672 2791 2672 3125 
Q 2672 3516 2437 3745 
Q 2203 3975 1813 3975 
Q 1234 3975 1013 3538 
Q 894 3303 881 2888 
L 309 2888 
Q 319 3472 525 3841 
Q 891 4491 1816 4491 
Q 2584 4491 2939 4075 
Q 3294 3659 3294 3150 
Q 3294 2613 2916 2231 
Q 2697 2009 2131 1694 
L 1703 1456 
Q 1397 1288 1222 1134 
Q 909 863 828 531 
L 3272 531 
L 3272 0 
L 200 0 
z
" transform="scale(0.015625)"/>
       </defs>
       <use xlink:href="#Helvetica-32"/>
       <use xlink:href="#Helvetica-30" x="55.615234"/>
      </g>
     </g>
    </g>
    <g id="ytick_4">
     <g id="line2d_4">
      <g>
       <use xlink:href="#m986f3ba530" x="8.336802" y="29.243794" style="fill: #777777; stroke: #777777; stroke-width: 0.5"/>
      </g>
     </g>
     <g id="text_9">
      <!-- 30 -->
      <g style="fill: #333333" transform="translate(3.00024 30.31981) scale(0.03 -0.03)">
       <use xlink:href="#Helvetica-33"/>
       <use xlink:href="#Helvetica-30" x="55.615234"/>
      </g>
     </g>
    </g>
    <g id="ytick_5">
     <g id="line2d_5">
      <g>
       <use xlink:href="#m986f3ba530" x="8.336802" y="16.660025" style="fill: #777777; stroke: #777777; stroke-width: 0.5"/>
      </g>
     </g>
     <g id="text_10">
      <!-- 40 -->
      <g style="fill: #333333" transform="translate(3.00024 17.73604) scale(0.03 -0.03)">
       <defs>
        <path id="Helvetica-34" d="M 2116 1584 
L 2116 3613 
L 681 1584 
L 2116 1584 
z
M 2125 0 
L 2125 1094 
L 163 1094 
L 163 1644 
L 2213 4488 
L 2688 4488 
L 2688 1584 
L 3347 1584 
L 3347 1094 
L 2688 1094 
L 2688 0 
L 2125 0 
z
" transform="scale(0.015625)"/>
       </defs>
       <use xlink:href="#Helvetica-34"/>
       <use xlink:href="#Helvetica-30" x="55.615234"/>
      </g>
     </g>
    </g>
    <g id="ytick_6">
     <g id="line2d_6">
      <g>
       <use xlink:href="#m986f3ba530" x="8.336802" y="4.076256" style="fill: #777777; stroke: #777777; stroke-width: 0.5"/>
      </g>
     </g>
     <g id="text_11">
      <!-- 50 -->
      <g style="fill: #333333" transform="translate(3.00024 5.152271) scale(0.03 -0.03)">
       <defs>
        <path id="Helvetica-35" d="M 791 1141 
Q 847 659 1238 475 
Q 1438 381 1700 381 
Q 2200 381 2440 700 
Q 2681 1019 2681 1406 
Q 2681 1875 2395 2131 
Q 2109 2388 1709 2388 
Q 1419 2388 1211 2275 
Q 1003 2163 856 1963 
L 369 1991 
L 709 4400 
L 3034 4400 
L 3034 3856 
L 1131 3856 
L 941 2613 
Q 1097 2731 1238 2791 
Q 1488 2894 1816 2894 
Q 2431 2894 2859 2497 
Q 3288 2100 3288 1491 
Q 3288 856 2895 371 
Q 2503 -113 1644 -113 
Q 1097 -113 676 195 
Q 256 503 206 1141 
L 791 1141 
z
" transform="scale(0.015625)"/>
       </defs>
       <use xlink:href="#Helvetica-35"/>
       <use xlink:href="#Helvetica-30" x="55.615234"/>
      </g>
     </g>
    </g>
   </g>
   <g id="PolyCollection_1">
    <defs>
     <path id="m84ef7f80b7" d="M 24.60204 -17.957121 
L 18.028157 -17.957121 
L 17.477382 -17.95771 
L 16.886528 -17.958299 
L 16.263914 -17.958888 
L 15.620055 -17.959477 
L 14.967396 -17.960067 
L 14.319881 -17.960656 
L 13.692384 -17.961245 
L 13.100037 -17.961834 
L 12.557479 -17.962423 
L 12.078106 -17.963012 
L 11.673366 -17.963601 
L 11.352153 -17.96419 
L 11.12037 -17.964779 
L 10.980676 -17.965368 
L 10.932462 -17.965957 
L 10.972039 -17.966546 
L 11.093029 -17.967135 
L 11.286914 -17.967724 
L 11.543697 -17.968313 
L 11.852611 -17.968902 
L 12.202809 -17.969491 
L 12.583978 -17.97008 
L 12.986836 -17.970669 
L 13.403467 -17.971258 
L 13.827495 -17.971848 
L 14.25409 -17.972437 
L 14.679829 -17.973026 
L 15.102454 -17.973615 
L 15.520563 -17.974204 
L 15.933266 -17.974793 
L 16.33988 -17.975382 
L 16.739654 -17.975971 
L 17.131583 -17.97656 
L 17.514302 -17.977149 
L 17.886068 -17.977738 
L 18.24482 -17.978327 
L 18.588293 -17.978916 
L 18.914174 -17.979505 
L 19.220268 -17.980094 
L 19.504656 -17.980683 
L 19.765833 -17.981272 
L 20.002799 -17.981861 
L 20.215117 -17.98245 
L 20.402917 -17.98304 
L 20.566868 -17.983629 
L 20.708105 -17.984218 
L 20.828147 -17.984807 
L 20.928793 -17.985396 
L 21.01201 -17.985985 
L 21.079837 -17.986574 
L 21.134291 -17.987163 
L 21.17729 -17.987752 
L 21.210591 -17.988341 
L 21.235747 -17.98893 
L 21.254077 -17.989519 
L 21.266649 -17.990108 
L 21.274276 -17.990697 
L 21.277516 -17.991286 
L 21.276681 -17.991875 
L 21.27185 -17.992464 
L 21.262884 -17.993053 
L 21.249446 -17.993642 
L 21.231026 -17.994231 
L 21.206973 -17.994821 
L 21.176527 -17.99541 
L 21.138872 -17.995999 
L 21.093181 -17.996588 
L 21.038688 -17.997177 
L 20.97475 -17.997766 
L 20.900931 -17.998355 
L 20.817075 -17.998944 
L 20.723378 -17.999533 
L 20.620458 -18.000122 
L 20.5094 -18.000711 
L 20.391782 -18.0013 
L 20.269675 -18.001889 
L 20.14561 -18.002478 
L 20.022505 -18.003067 
L 19.90357 -18.003656 
L 19.792172 -18.004245 
L 19.691683 -18.004834 
L 19.605312 -18.005423 
L 19.535935 -18.006013 
L 19.48594 -18.006602 
L 19.457088 -18.007191 
L 19.450409 -18.00778 
L 19.466143 -18.008369 
L 19.503726 -18.008958 
L 19.561821 -18.009547 
L 19.6384 -18.010136 
L 19.730859 -18.010725 
L 19.836166 -18.011314 
L 19.951027 -18.011903 
L 20.072051 -18.012492 
L 20.19592 -18.013081 
L 20.319526 -18.01367 
L 20.440099 -18.014259 
L 20.55529 -18.014848 
L 20.663227 -18.015437 
L 21.966969 -18.015437 
L 21.966969 -18.015437 
L 22.074906 -18.014848 
L 22.190097 -18.014259 
L 22.31067 -18.01367 
L 22.434277 -18.013081 
L 22.558145 -18.012492 
L 22.67917 -18.011903 
L 22.79403 -18.011314 
L 22.899338 -18.010725 
L 22.991797 -18.010136 
L 23.068376 -18.009547 
L 23.126471 -18.008958 
L 23.164053 -18.008369 
L 23.179788 -18.00778 
L 23.173108 -18.007191 
L 23.144256 -18.006602 
L 23.094262 -18.006013 
L 23.024885 -18.005423 
L 22.938513 -18.004834 
L 22.838024 -18.004245 
L 22.726626 -18.003656 
L 22.607691 -18.003067 
L 22.484587 -18.002478 
L 22.360521 -18.001889 
L 22.238415 -18.0013 
L 22.120797 -18.000711 
L 22.009738 -18.000122 
L 21.906818 -17.999533 
L 21.813122 -17.998944 
L 21.729265 -17.998355 
L 21.655446 -17.997766 
L 21.591509 -17.997177 
L 21.537015 -17.996588 
L 21.491325 -17.995999 
L 21.453669 -17.99541 
L 21.423224 -17.994821 
L 21.39917 -17.994231 
L 21.380751 -17.993642 
L 21.367313 -17.993053 
L 21.358347 -17.992464 
L 21.353516 -17.991875 
L 21.352681 -17.991286 
L 21.355921 -17.990697 
L 21.363548 -17.990108 
L 21.37612 -17.989519 
L 21.394449 -17.98893 
L 21.419605 -17.988341 
L 21.452906 -17.987752 
L 21.495905 -17.987163 
L 21.55036 -17.986574 
L 21.618187 -17.985985 
L 21.701404 -17.985396 
L 21.802049 -17.984807 
L 21.922092 -17.984218 
L 22.063329 -17.983629 
L 22.227279 -17.98304 
L 22.41508 -17.98245 
L 22.627398 -17.981861 
L 22.864364 -17.981272 
L 23.12554 -17.980683 
L 23.409929 -17.980094 
L 23.716022 -17.979505 
L 24.041903 -17.978916 
L 24.385377 -17.978327 
L 24.744129 -17.977738 
L 25.115895 -17.977149 
L 25.498613 -17.97656 
L 25.890542 -17.975971 
L 26.290316 -17.975382 
L 26.69693 -17.974793 
L 27.109634 -17.974204 
L 27.527742 -17.973615 
L 27.950368 -17.973026 
L 28.376107 -17.972437 
L 28.802701 -17.971848 
L 29.22673 -17.971258 
L 29.643361 -17.970669 
L 30.046218 -17.97008 
L 30.427387 -17.969491 
L 30.777585 -17.968902 
L 31.0865 -17.968313 
L 31.343283 -17.967724 
L 31.537168 -17.967135 
L 31.658157 -17.966546 
L 31.697735 -17.965957 
L 31.649521 -17.965368 
L 31.509827 -17.964779 
L 31.278043 -17.96419 
L 30.956831 -17.963601 
L 30.55209 -17.963012 
L 30.072718 -17.962423 
L 29.53016 -17.961834 
L 28.937812 -17.961245 
L 28.310316 -17.960656 
L 27.6628 -17.960067 
L 27.010141 -17.959477 
L 26.366283 -17.958888 
L 25.743668 -17.958299 
L 25.152815 -17.95771 
L 24.60204 -17.957121 
z
" style="stroke: #6f6f6f; stroke-width: 0.15"/>
    </defs>
    <g clip-path="url(#p50de26298e)">
     <use xlink:href="#m84ef7f80b7" x="0" y="84.96" style="fill: #98daa7; stroke: #6f6f6f; stroke-width: 0.15"/>
    </g>
   </g>
   <g id="PolyCollection_2">
    <defs>
     <path id="m190c7af0d4" d="M 48.76539 -17.679327 
L 45.777989 -17.679327 
L 45.495062 -17.699898 
L 45.177628 -17.720468 
L 44.825432 -17.741039 
L 44.439023 -17.76161 
L 44.019828 -17.78218 
L 43.570202 -17.802751 
L 43.093453 -17.823322 
L 42.59383 -17.843893 
L 42.076481 -17.864463 
L 41.547374 -17.885034 
L 41.013191 -17.905605 
L 40.481196 -17.926175 
L 39.959072 -17.946746 
L 39.45475 -17.967317 
L 38.976208 -17.987888 
L 38.531275 -18.008458 
L 38.127416 -18.029029 
L 37.771527 -18.0496 
L 37.469731 -18.070171 
L 37.22719 -18.090741 
L 37.047942 -18.111312 
L 36.934759 -18.131883 
L 36.889053 -18.152453 
L 36.910825 -18.173024 
L 36.998659 -18.193595 
L 37.149785 -18.214166 
L 37.360181 -18.234736 
L 37.624738 -18.255307 
L 37.937462 -18.275878 
L 38.291712 -18.296448 
L 38.680448 -18.317019 
L 39.09649 -18.33759 
L 39.532757 -18.358161 
L 39.98248 -18.378731 
L 40.43937 -18.399302 
L 40.897748 -18.419873 
L 41.352611 -18.440443 
L 41.799658 -18.461014 
L 42.235267 -18.481585 
L 42.656431 -18.502156 
L 43.060683 -18.522726 
L 43.445989 -18.543297 
L 43.810656 -18.563868 
L 44.153235 -18.584439 
L 44.472446 -18.605009 
L 44.767124 -18.62558 
L 45.03618 -18.646151 
L 45.278591 -18.666721 
L 45.493405 -18.687292 
L 45.679767 -18.707863 
L 45.836951 -18.728434 
L 45.964404 -18.749004 
L 46.061791 -18.769575 
L 46.129042 -18.790146 
L 46.166395 -18.810716 
L 46.174433 -18.831287 
L 46.154115 -18.851858 
L 46.106793 -18.872429 
L 46.034224 -18.892999 
L 45.938561 -18.91357 
L 45.822332 -18.934141 
L 45.688407 -18.954711 
L 45.539939 -18.975282 
L 45.380303 -18.995853 
L 45.213012 -19.016424 
L 45.041629 -19.036994 
L 44.869678 -19.057565 
L 44.700553 -19.078136 
L 44.537433 -19.098707 
L 44.38322 -19.119277 
L 44.240482 -19.139848 
L 44.111428 -19.160419 
L 43.997895 -19.180989 
L 43.901363 -19.20156 
L 43.822978 -19.222131 
L 43.763591 -19.242702 
L 43.723797 -19.263272 
L 43.703976 -19.283843 
L 43.704325 -19.304414 
L 43.724871 -19.324984 
L 43.765479 -19.345555 
L 43.825835 -19.366126 
L 43.905428 -19.386697 
L 44.003515 -19.407267 
L 44.11909 -19.427838 
L 44.250854 -19.448409 
L 44.397202 -19.46898 
L 44.556223 -19.48955 
L 44.725719 -19.510121 
L 44.903252 -19.530692 
L 45.086202 -19.551262 
L 45.271848 -19.571833 
L 45.457455 -19.592404 
L 45.640375 -19.612975 
L 45.81813 -19.633545 
L 45.9885 -19.654116 
L 46.149591 -19.674687 
L 46.29988 -19.695257 
L 46.438247 -19.715828 
L 48.105132 -19.715828 
L 48.105132 -19.715828 
L 48.243499 -19.695257 
L 48.393789 -19.674687 
L 48.554879 -19.654116 
L 48.72525 -19.633545 
L 48.903005 -19.612975 
L 49.085924 -19.592404 
L 49.271532 -19.571833 
L 49.457177 -19.551262 
L 49.640127 -19.530692 
L 49.81766 -19.510121 
L 49.987157 -19.48955 
L 50.146177 -19.46898 
L 50.292525 -19.448409 
L 50.424289 -19.427838 
L 50.539864 -19.407267 
L 50.637951 -19.386697 
L 50.717545 -19.366126 
L 50.777901 -19.345555 
L 50.818508 -19.324984 
L 50.839054 -19.304414 
L 50.839403 -19.283843 
L 50.819583 -19.263272 
L 50.779789 -19.242702 
L 50.720401 -19.222131 
L 50.642016 -19.20156 
L 50.545484 -19.180989 
L 50.431952 -19.160419 
L 50.302897 -19.139848 
L 50.16016 -19.119277 
L 50.005946 -19.098707 
L 49.842827 -19.078136 
L 49.673701 -19.057565 
L 49.501751 -19.036994 
L 49.330368 -19.016424 
L 49.163076 -18.995853 
L 49.00344 -18.975282 
L 48.854973 -18.954711 
L 48.721047 -18.934141 
L 48.604819 -18.91357 
L 48.509156 -18.892999 
L 48.436587 -18.872429 
L 48.389265 -18.851858 
L 48.368946 -18.831287 
L 48.376984 -18.810716 
L 48.414337 -18.790146 
L 48.481588 -18.769575 
L 48.578975 -18.749004 
L 48.706428 -18.728434 
L 48.863613 -18.707863 
L 49.049975 -18.687292 
L 49.264789 -18.666721 
L 49.507199 -18.646151 
L 49.776255 -18.62558 
L 50.070933 -18.605009 
L 50.390145 -18.584439 
L 50.732723 -18.563868 
L 51.09739 -18.543297 
L 51.482696 -18.522726 
L 51.886948 -18.502156 
L 52.308113 -18.481585 
L 52.743721 -18.461014 
L 53.190769 -18.440443 
L 53.645632 -18.419873 
L 54.10401 -18.399302 
L 54.5609 -18.378731 
L 55.010622 -18.358161 
L 55.446889 -18.33759 
L 55.862932 -18.317019 
L 56.251668 -18.296448 
L 56.605917 -18.275878 
L 56.918642 -18.255307 
L 57.183199 -18.234736 
L 57.393595 -18.214166 
L 57.54472 -18.193595 
L 57.632555 -18.173024 
L 57.654326 -18.152453 
L 57.608621 -18.131883 
L 57.495438 -18.111312 
L 57.316189 -18.090741 
L 57.073649 -18.070171 
L 56.771853 -18.0496 
L 56.415963 -18.029029 
L 56.012104 -18.008458 
L 55.567171 -17.987888 
L 55.08863 -17.967317 
L 54.584307 -17.946746 
L 54.062184 -17.926175 
L 53.530188 -17.905605 
L 52.996005 -17.885034 
L 52.466898 -17.864463 
L 51.949549 -17.843893 
L 51.449927 -17.823322 
L 50.973178 -17.802751 
L 50.523552 -17.78218 
L 50.104356 -17.76161 
L 49.717948 -17.741039 
L 49.365752 -17.720468 
L 49.048317 -17.699898 
L 48.76539 -17.679327 
z
" style="stroke: #6f6f6f; stroke-width: 0.15"/>
    </defs>
    <g clip-path="url(#p50de26298e)">
     <use xlink:href="#m190c7af0d4" x="0" y="84.96" style="fill: #f2aba8; stroke: #6f6f6f; stroke-width: 0.15"/>
    </g>
   </g>
   <g id="PolyCollection_3">
    <defs>
     <path id="mdd93869af9" d="M 75.8024 -17.921722 
L 70.654162 -17.921722 
L 70.252588 -17.92463 
L 69.818266 -17.927537 
L 69.354186 -17.930445 
L 68.864411 -17.933352 
L 68.354043 -17.93626 
L 67.829124 -17.939167 
L 67.296496 -17.942074 
L 66.763605 -17.944982 
L 66.238278 -17.947889 
L 65.728465 -17.950797 
L 65.241972 -17.953704 
L 64.786197 -17.956612 
L 64.367889 -17.959519 
L 63.992935 -17.962427 
L 63.666197 -17.965334 
L 63.391406 -17.968242 
L 63.171111 -17.971149 
L 63.006696 -17.974057 
L 62.898442 -17.976964 
L 62.845645 -17.979871 
L 62.846763 -17.982779 
L 62.899585 -17.985686 
L 63.001405 -17.988594 
L 63.149182 -17.991501 
L 63.339691 -17.994409 
L 63.569628 -17.997316 
L 63.835693 -18.000224 
L 64.134628 -18.003131 
L 64.463223 -18.006039 
L 64.818297 -18.008946 
L 65.196657 -18.011853 
L 65.59505 -18.014761 
L 66.010115 -18.017668 
L 66.438347 -18.020576 
L 66.876075 -18.023483 
L 67.319474 -18.026391 
L 67.764588 -18.029298 
L 68.207386 -18.032206 
L 68.643838 -18.035113 
L 69.070001 -18.038021 
L 69.482114 -18.040928 
L 69.876691 -18.043835 
L 70.25061 -18.046743 
L 70.601177 -18.04965 
L 70.926176 -18.052558 
L 71.223896 -18.055465 
L 71.493125 -18.058373 
L 71.733129 -18.06128 
L 71.943602 -18.064188 
L 72.124606 -18.067095 
L 72.276496 -18.070003 
L 72.399839 -18.07291 
L 72.495338 -18.075817 
L 72.56376 -18.078725 
L 72.605877 -18.081632 
L 72.622428 -18.08454 
L 72.614091 -18.087447 
L 72.581484 -18.090355 
L 72.52518 -18.093262 
L 72.44575 -18.09617 
L 72.34381 -18.099077 
L 72.22009 -18.101985 
L 72.075508 -18.104892 
L 71.911243 -18.107799 
L 71.728807 -18.110707 
L 71.530106 -18.113614 
L 71.317485 -18.116522 
L 71.093752 -18.119429 
L 70.862181 -18.122337 
L 70.626482 -18.125244 
L 70.390747 -18.128152 
L 70.159369 -18.131059 
L 69.936931 -18.133967 
L 69.72808 -18.136874 
L 69.537381 -18.139781 
L 69.369164 -18.142689 
L 69.227375 -18.145596 
L 69.115424 -18.148504 
L 69.036059 -18.151411 
L 68.991258 -18.154319 
L 68.982149 -18.157226 
L 69.008967 -18.160134 
L 69.071044 -18.163041 
L 69.166838 -18.165949 
L 69.293996 -18.168856 
L 69.449449 -18.171763 
L 69.629535 -18.174671 
L 69.83014 -18.177578 
L 70.046853 -18.180486 
L 70.275125 -18.183393 
L 70.510422 -18.186301 
L 70.748374 -18.189208 
L 70.984899 -18.192116 
L 71.216313 -18.195023 
L 71.43941 -18.197931 
L 71.651516 -18.200838 
L 71.850518 -18.203746 
L 72.034868 -18.206653 
L 72.203562 -18.20956 
L 74.253 -18.20956 
L 74.253 -18.20956 
L 74.421694 -18.206653 
L 74.606044 -18.203746 
L 74.805046 -18.200838 
L 75.017152 -18.197931 
L 75.240249 -18.195023 
L 75.471664 -18.192116 
L 75.708189 -18.189208 
L 75.946141 -18.186301 
L 76.181438 -18.183393 
L 76.409709 -18.180486 
L 76.626422 -18.177578 
L 76.827028 -18.174671 
L 77.007114 -18.171763 
L 77.162567 -18.168856 
L 77.289724 -18.165949 
L 77.385518 -18.163041 
L 77.447596 -18.160134 
L 77.474414 -18.157226 
L 77.465305 -18.154319 
L 77.420504 -18.151411 
L 77.341139 -18.148504 
L 77.229187 -18.145596 
L 77.087398 -18.142689 
L 76.919182 -18.139781 
L 76.728482 -18.136874 
L 76.519631 -18.133967 
L 76.297193 -18.131059 
L 76.065815 -18.128152 
L 75.830081 -18.125244 
L 75.594381 -18.122337 
L 75.36281 -18.119429 
L 75.139078 -18.116522 
L 74.926456 -18.113614 
L 74.727755 -18.110707 
L 74.545319 -18.107799 
L 74.381054 -18.104892 
L 74.236473 -18.101985 
L 74.112753 -18.099077 
L 74.010813 -18.09617 
L 73.931382 -18.093262 
L 73.875079 -18.090355 
L 73.842471 -18.087447 
L 73.834134 -18.08454 
L 73.850685 -18.081632 
L 73.892803 -18.078725 
L 73.961224 -18.075817 
L 74.056723 -18.07291 
L 74.180066 -18.070003 
L 74.331956 -18.067095 
L 74.512961 -18.064188 
L 74.723434 -18.06128 
L 74.963437 -18.058373 
L 75.232666 -18.055465 
L 75.530386 -18.052558 
L 75.855386 -18.04965 
L 76.205952 -18.046743 
L 76.579871 -18.043835 
L 76.974449 -18.040928 
L 77.386561 -18.038021 
L 77.812724 -18.035113 
L 78.249176 -18.032206 
L 78.691975 -18.029298 
L 79.137088 -18.026391 
L 79.580487 -18.023483 
L 80.018216 -18.020576 
L 80.446447 -18.017668 
L 80.861512 -18.014761 
L 81.259906 -18.011853 
L 81.638266 -18.008946 
L 81.99334 -18.006039 
L 82.321935 -18.003131 
L 82.620869 -18.000224 
L 82.886934 -17.997316 
L 83.116871 -17.994409 
L 83.30738 -17.991501 
L 83.455158 -17.988594 
L 83.556977 -17.985686 
L 83.609799 -17.982779 
L 83.610918 -17.979871 
L 83.558121 -17.976964 
L 83.449867 -17.974057 
L 83.285451 -17.971149 
L 83.065157 -17.968242 
L 82.790365 -17.965334 
L 82.463627 -17.962427 
L 82.088673 -17.959519 
L 81.670365 -17.956612 
L 81.214591 -17.953704 
L 80.728097 -17.950797 
L 80.218284 -17.947889 
L 79.692958 -17.944982 
L 79.160067 -17.942074 
L 78.627438 -17.939167 
L 78.102519 -17.93626 
L 77.592151 -17.933352 
L 77.102377 -17.930445 
L 76.638296 -17.927537 
L 76.203975 -17.92463 
L 75.8024 -17.921722 
z
" style="stroke: #6f6f6f; stroke-width: 0.15"/>
    </defs>
    <g clip-path="url(#p50de26298e)">
     <use xlink:href="#mdd93869af9" x="0" y="84.96" style="fill: #d3c4f6; stroke: #6f6f6f; stroke-width: 0.15"/>
    </g>
   </g>
   <g id="PolyCollection_4">
    <defs>
     <path id="m8f75e6bfe3" d="M 102.674105 -17.961287 
L 95.695641 -17.961287 
L 95.149336 -17.961545 
L 94.566741 -17.961803 
L 93.955667 -17.962061 
L 93.325883 -17.962319 
L 92.68892 -17.962577 
L 92.057736 -17.962835 
L 91.446285 -17.963093 
L 90.868963 -17.963351 
L 90.340006 -17.963609 
L 89.87284 -17.963867 
L 89.47944 -17.964125 
L 89.169744 -17.964383 
L 88.951157 -17.964641 
L 88.828186 -17.964899 
L 88.802236 -17.965157 
L 88.871572 -17.965415 
L 89.031466 -17.965673 
L 89.274505 -17.965931 
L 89.591037 -17.966189 
L 89.969729 -17.966447 
L 90.398179 -17.966705 
L 90.863556 -17.966963 
L 91.353198 -17.967221 
L 91.85516 -17.967479 
L 92.35864 -17.967737 
L 92.854304 -17.967995 
L 93.334465 -17.968252 
L 93.79314 -17.96851 
L 94.225985 -17.968768 
L 94.630143 -17.969026 
L 95.004013 -17.969284 
L 95.346987 -17.969542 
L 95.659179 -17.9698 
L 95.941163 -17.970058 
L 96.193759 -17.970316 
L 96.417865 -17.970574 
L 96.614356 -17.970832 
L 96.784035 -17.97109 
L 96.92765 -17.971348 
L 97.04595 -17.971606 
L 97.139771 -17.971864 
L 97.21014 -17.972122 
L 97.258374 -17.97238 
L 97.286168 -17.972638 
L 97.295648 -17.972896 
L 97.289392 -17.973154 
L 97.270408 -17.973412 
L 97.242069 -17.97367 
L 97.208011 -17.973928 
L 97.171993 -17.974186 
L 97.137747 -17.974444 
L 97.108802 -17.974702 
L 97.088317 -17.97496 
L 97.078927 -17.975218 
L 97.082611 -17.975475 
L 97.100592 -17.975733 
L 97.133278 -17.975991 
L 97.180247 -17.976249 
L 97.240274 -17.976507 
L 97.3114 -17.976765 
L 97.391039 -17.977023 
L 97.476113 -17.977281 
L 97.563212 -17.977539 
L 97.648762 -17.977797 
L 97.729203 -17.978055 
L 97.80116 -17.978313 
L 97.861598 -17.978571 
L 97.907965 -17.978829 
L 97.938308 -17.979087 
L 97.951361 -17.979345 
L 97.946603 -17.979603 
L 97.924288 -17.979861 
L 97.885433 -17.980119 
L 97.831786 -17.980377 
L 97.765756 -17.980635 
L 97.690313 -17.980893 
L 97.60887 -17.981151 
L 97.525138 -17.981409 
L 97.442971 -17.981667 
L 97.3662 -17.981925 
L 97.298468 -17.982183 
L 97.243072 -17.982441 
L 97.202824 -17.982699 
L 97.179932 -17.982956 
L 97.175917 -17.983214 
L 97.191556 -17.983472 
L 97.226871 -17.98373 
L 97.281159 -17.983988 
L 97.353043 -17.984246 
L 97.440572 -17.984504 
L 97.541336 -17.984762 
L 97.652595 -17.98502 
L 97.771429 -17.985278 
L 97.894868 -17.985536 
L 98.020032 -17.985794 
L 98.144238 -17.986052 
L 98.265097 -17.98631 
L 98.38058 -17.986568 
L 98.489061 -17.986826 
L 99.880685 -17.986826 
L 99.880685 -17.986826 
L 99.989165 -17.986568 
L 100.104648 -17.98631 
L 100.225508 -17.986052 
L 100.349714 -17.985794 
L 100.474877 -17.985536 
L 100.598317 -17.985278 
L 100.71715 -17.98502 
L 100.82841 -17.984762 
L 100.929173 -17.984504 
L 101.016703 -17.984246 
L 101.088587 -17.983988 
L 101.142874 -17.98373 
L 101.17819 -17.983472 
L 101.193828 -17.983214 
L 101.189813 -17.982956 
L 101.166922 -17.982699 
L 101.126674 -17.982441 
L 101.071278 -17.982183 
L 101.003545 -17.981925 
L 100.926775 -17.981667 
L 100.844608 -17.981409 
L 100.760876 -17.981151 
L 100.679433 -17.980893 
L 100.603989 -17.980635 
L 100.537959 -17.980377 
L 100.484312 -17.980119 
L 100.445458 -17.979861 
L 100.423142 -17.979603 
L 100.418385 -17.979345 
L 100.431438 -17.979087 
L 100.461781 -17.978829 
L 100.508148 -17.978571 
L 100.568586 -17.978313 
L 100.640542 -17.978055 
L 100.720984 -17.977797 
L 100.806534 -17.977539 
L 100.893632 -17.977281 
L 100.978706 -17.977023 
L 101.058345 -17.976765 
L 101.129471 -17.976507 
L 101.189498 -17.976249 
L 101.236467 -17.975991 
L 101.269153 -17.975733 
L 101.287134 -17.975475 
L 101.290818 -17.975218 
L 101.281429 -17.97496 
L 101.260944 -17.974702 
L 101.231998 -17.974444 
L 101.197752 -17.974186 
L 101.161735 -17.973928 
L 101.127676 -17.97367 
L 101.099337 -17.973412 
L 101.080353 -17.973154 
L 101.074097 -17.972896 
L 101.083577 -17.972638 
L 101.111372 -17.97238 
L 101.159606 -17.972122 
L 101.229974 -17.971864 
L 101.323795 -17.971606 
L 101.442095 -17.971348 
L 101.58571 -17.97109 
L 101.755389 -17.970832 
L 101.95188 -17.970574 
L 102.175987 -17.970316 
L 102.428583 -17.970058 
L 102.710567 -17.9698 
L 103.022758 -17.969542 
L 103.365733 -17.969284 
L 103.739603 -17.969026 
L 104.14376 -17.968768 
L 104.576606 -17.96851 
L 105.03528 -17.968252 
L 105.515442 -17.967995 
L 106.011106 -17.967737 
L 106.514586 -17.967479 
L 107.016547 -17.967221 
L 107.50619 -17.966963 
L 107.971566 -17.966705 
L 108.400017 -17.966447 
L 108.778708 -17.966189 
L 109.09524 -17.965931 
L 109.338279 -17.965673 
L 109.498173 -17.965415 
L 109.567509 -17.965157 
L 109.541559 -17.964899 
L 109.418589 -17.964641 
L 109.200001 -17.964383 
L 108.890305 -17.964125 
L 108.496905 -17.963867 
L 108.029739 -17.963609 
L 107.500783 -17.963351 
L 106.923461 -17.963093 
L 106.312009 -17.962835 
L 105.680826 -17.962577 
L 105.043862 -17.962319 
L 104.414079 -17.962061 
L 103.803004 -17.961803 
L 103.220409 -17.961545 
L 102.674105 -17.961287 
z
" style="stroke: #6f6f6f; stroke-width: 0.15"/>
    </defs>
    <g clip-path="url(#p50de26298e)">
     <use xlink:href="#m8f75e6bfe3" x="0" y="84.96" style="fill: #d6bba3; stroke: #6f6f6f; stroke-width: 0.15"/>
    </g>
   </g>
   <g id="PolyCollection_5">
    <defs>
     <path id="m0aaec3d1ae" d="M 127.893539 -17.897315 
L 122.38939 -17.897315 
L 121.987844 -17.901548 
L 121.555478 -17.905781 
L 121.094996 -17.910014 
L 120.610069 -17.914247 
L 120.105326 -17.91848 
L 119.586302 -17.922713 
L 119.059352 -17.926947 
L 118.531516 -17.93118 
L 118.010354 -17.935413 
L 117.50375 -17.939646 
L 117.019692 -17.943879 
L 116.566036 -17.948112 
L 116.150271 -17.952345 
L 115.779288 -17.956579 
L 115.459174 -17.960812 
L 115.19503 -17.965045 
L 114.990824 -17.969278 
L 114.849297 -17.973511 
L 114.771908 -17.977744 
L 114.758828 -17.981977 
L 114.808985 -17.986211 
L 114.920148 -17.990444 
L 115.089046 -17.994677 
L 115.311515 -17.99891 
L 115.582667 -18.003143 
L 115.897065 -18.007376 
L 116.248899 -18.011609 
L 116.632156 -18.015843 
L 117.040776 -18.020076 
L 117.468788 -18.024309 
L 117.910426 -18.028542 
L 118.360218 -18.032775 
L 118.813056 -18.037008 
L 119.264237 -18.041241 
L 119.709493 -18.045475 
L 120.144996 -18.049708 
L 120.567356 -18.053941 
L 120.973598 -18.058174 
L 121.361145 -18.062407 
L 121.727782 -18.06664 
L 122.071627 -18.070873 
L 122.39109 -18.075107 
L 122.684841 -18.07934 
L 122.951768 -18.083573 
L 123.190941 -18.087806 
L 123.401579 -18.092039 
L 123.583012 -18.096272 
L 123.734654 -18.100505 
L 123.855975 -18.104739 
L 123.946486 -18.108972 
L 124.005724 -18.113205 
L 124.033255 -18.117438 
L 124.028683 -18.121671 
L 123.991675 -18.125904 
L 123.921994 -18.130137 
L 123.819552 -18.134371 
L 123.684469 -18.138604 
L 123.517137 -18.142837 
L 123.318303 -18.14707 
L 123.089138 -18.151303 
L 122.831311 -18.155536 
L 122.547057 -18.159769 
L 122.239219 -18.164002 
L 121.911285 -18.168236 
L 121.567388 -18.172469 
L 121.212286 -18.176702 
L 120.851309 -18.180935 
L 120.490276 -18.185168 
L 120.135375 -18.189401 
L 119.793026 -18.193634 
L 119.469717 -18.197868 
L 119.17182 -18.202101 
L 118.905401 -18.206334 
L 118.676033 -18.210567 
L 118.488615 -18.2148 
L 118.347204 -18.219033 
L 118.254886 -18.223266 
L 118.213661 -18.2275 
L 118.224388 -18.231733 
L 118.28675 -18.235966 
L 118.39928 -18.240199 
L 118.559415 -18.244432 
L 118.7636 -18.248665 
L 119.007414 -18.252898 
L 119.285733 -18.257132 
L 119.592907 -18.261365 
L 119.922947 -18.265598 
L 120.269717 -18.269831 
L 120.627118 -18.274064 
L 120.989258 -18.278297 
L 121.350605 -18.28253 
L 121.706111 -18.286764 
L 122.051312 -18.290997 
L 122.382397 -18.29523 
L 122.696249 -18.299463 
L 122.990454 -18.303696 
L 123.263291 -18.307929 
L 123.513691 -18.312162 
L 123.741189 -18.316396 
L 126.541739 -18.316396 
L 126.541739 -18.316396 
L 126.769237 -18.312162 
L 127.019638 -18.307929 
L 127.292474 -18.303696 
L 127.58668 -18.299463 
L 127.900532 -18.29523 
L 128.231617 -18.290997 
L 128.576818 -18.286764 
L 128.932323 -18.28253 
L 129.29367 -18.278297 
L 129.655811 -18.274064 
L 130.013212 -18.269831 
L 130.359982 -18.265598 
L 130.690022 -18.261365 
L 130.997196 -18.257132 
L 131.275515 -18.252898 
L 131.519329 -18.248665 
L 131.723513 -18.244432 
L 131.883649 -18.240199 
L 131.996179 -18.235966 
L 132.058541 -18.231733 
L 132.069267 -18.2275 
L 132.028043 -18.223266 
L 131.935724 -18.219033 
L 131.794314 -18.2148 
L 131.606895 -18.210567 
L 131.377528 -18.206334 
L 131.111109 -18.202101 
L 130.813211 -18.197868 
L 130.489902 -18.193634 
L 130.147554 -18.189401 
L 129.792653 -18.185168 
L 129.431619 -18.180935 
L 129.070643 -18.176702 
L 128.715541 -18.172469 
L 128.371644 -18.168236 
L 128.043709 -18.164002 
L 127.735871 -18.159769 
L 127.451617 -18.155536 
L 127.193791 -18.151303 
L 126.964625 -18.14707 
L 126.765791 -18.142837 
L 126.59846 -18.138604 
L 126.463376 -18.134371 
L 126.360934 -18.130137 
L 126.291254 -18.125904 
L 126.254245 -18.121671 
L 126.249673 -18.117438 
L 126.277204 -18.113205 
L 126.336442 -18.108972 
L 126.426953 -18.104739 
L 126.548274 -18.100505 
L 126.699916 -18.096272 
L 126.881349 -18.092039 
L 127.091987 -18.087806 
L 127.331161 -18.083573 
L 127.598087 -18.07934 
L 127.891838 -18.075107 
L 128.211302 -18.070873 
L 128.555147 -18.06664 
L 128.921784 -18.062407 
L 129.309331 -18.058174 
L 129.715573 -18.053941 
L 130.137932 -18.049708 
L 130.573436 -18.045475 
L 131.018692 -18.041241 
L 131.469873 -18.037008 
L 131.92271 -18.032775 
L 132.372502 -18.028542 
L 132.81414 -18.024309 
L 133.242153 -18.020076 
L 133.650773 -18.015843 
L 134.034029 -18.011609 
L 134.385863 -18.007376 
L 134.700261 -18.003143 
L 134.971413 -17.99891 
L 135.193883 -17.994677 
L 135.36278 -17.990444 
L 135.473943 -17.986211 
L 135.524101 -17.981977 
L 135.511021 -17.977744 
L 135.433632 -17.973511 
L 135.292105 -17.969278 
L 135.087899 -17.965045 
L 134.823754 -17.960812 
L 134.503641 -17.956579 
L 134.132658 -17.952345 
L 133.716892 -17.948112 
L 133.263236 -17.943879 
L 132.779178 -17.939646 
L 132.272575 -17.935413 
L 131.751413 -17.93118 
L 131.223576 -17.926947 
L 130.696626 -17.922713 
L 130.177603 -17.91848 
L 129.67286 -17.914247 
L 129.187933 -17.910014 
L 128.727451 -17.905781 
L 128.295085 -17.901548 
L 127.893539 -17.897315 
z
" style="stroke: #6f6f6f; stroke-width: 0.15"/>
    </defs>
    <g clip-path="url(#p50de26298e)">
     <use xlink:href="#m0aaec3d1ae" x="0" y="84.96" style="fill: #f1b9e0; stroke: #6f6f6f; stroke-width: 0.15"/>
    </g>
   </g>
   <g id="line2d_7">
    <path d="M 21.315098 66.995102 
L 21.315098 66.985943 
" clip-path="url(#p50de26298e)" style="fill: none; stroke: #8c8c8c; stroke-width: 0.75; stroke-linecap: round"/>
   </g>
   <g id="line2d_8">
    <path d="M 21.315098 66.995102 
L 21.315098 66.986137 
" clip-path="url(#p50de26298e)" style="fill: none; stroke: #8c8c8c; stroke-width: 4; stroke-linecap: round"/>
   </g>
   <g id="line2d_9">
    <path d="M 21.315098 66.995102 
" clip-path="url(#p50de26298e)" style="fill: none; stroke: #6f6f6f; stroke-width: 1.2; stroke-linecap: round"/>
    <defs>
     <path id="m545807dd51" d="M 0 0.833333 
C 0.221003 0.833333 0.432983 0.745528 0.589256 0.589256 
C 0.745528 0.432983 0.833333 0.221003 0.833333 0 
C 0.833333 -0.221003 0.745528 -0.432983 0.589256 -0.589256 
C 0.432983 -0.745528 0.221003 -0.833333 0 -0.833333 
C -0.221003 -0.833333 -0.432983 -0.745528 -0.589256 -0.589256 
C -0.745528 -0.432983 -0.833333 -0.221003 -0.833333 0 
C -0.833333 0.221003 -0.745528 0.432983 -0.589256 0.589256 
C -0.432983 0.745528 -0.221003 0.833333 0 0.833333 
z
" style="stroke: #ffffff; stroke-width: 0.8"/>
    </defs>
    <g clip-path="url(#p50de26298e)">
     <use xlink:href="#m545807dd51" x="21.315098" y="66.995102" style="fill: #ffffff; stroke: #ffffff; stroke-width: 0.8"/>
    </g>
   </g>
   <g id="line2d_10">
    <path d="M 47.27169 66.995102 
L 47.27169 65.802328 
" clip-path="url(#p50de26298e)" style="fill: none; stroke: #8c8c8c; stroke-width: 0.75; stroke-linecap: round"/>
   </g>
   <g id="line2d_11">
    <path d="M 47.27169 66.812819 
L 47.27169 66.311691 
" clip-path="url(#p50de26298e)" style="fill: none; stroke: #8c8c8c; stroke-width: 4; stroke-linecap: round"/>
   </g>
   <g id="line2d_12">
    <path d="M 47.27169 66.747059 
" clip-path="url(#p50de26298e)" style="fill: none; stroke: #6f6f6f; stroke-width: 1.2; stroke-linecap: round"/>
    <g clip-path="url(#p50de26298e)">
     <use xlink:href="#m545807dd51" x="47.27169" y="66.747059" style="fill: #ffffff; stroke: #ffffff; stroke-width: 0.8"/>
    </g>
   </g>
   <g id="line2d_13">
    <path d="M 73.228281 66.995102 
L 73.228281 66.793615 
" clip-path="url(#p50de26298e)" style="fill: none; stroke: #8c8c8c; stroke-width: 0.75; stroke-linecap: round"/>
   </g>
   <g id="line2d_14">
    <path d="M 73.228281 66.995102 
L 73.228281 66.910468 
" clip-path="url(#p50de26298e)" style="fill: none; stroke: #8c8c8c; stroke-width: 4; stroke-linecap: round"/>
   </g>
   <g id="line2d_15">
    <path d="M 73.228281 66.960064 
" clip-path="url(#p50de26298e)" style="fill: none; stroke: #6f6f6f; stroke-width: 1.2; stroke-linecap: round"/>
    <g clip-path="url(#p50de26298e)">
     <use xlink:href="#m545807dd51" x="73.228281" y="66.960064" style="fill: #ffffff; stroke: #ffffff; stroke-width: 0.8"/>
    </g>
   </g>
   <g id="line2d_16">
    <path d="M 99.184873 66.995102 
L 99.184873 66.984412 
" clip-path="url(#p50de26298e)" style="fill: none; stroke: #8c8c8c; stroke-width: 0.75; stroke-linecap: round"/>
   </g>
   <g id="line2d_17">
    <path d="M 99.184873 66.995102 
L 99.184873 66.989091 
" clip-path="url(#p50de26298e)" style="fill: none; stroke: #8c8c8c; stroke-width: 4; stroke-linecap: round"/>
   </g>
   <g id="line2d_18">
    <path d="M 99.184873 66.995102 
" clip-path="url(#p50de26298e)" style="fill: none; stroke: #6f6f6f; stroke-width: 1.2; stroke-linecap: round"/>
    <g clip-path="url(#p50de26298e)">
     <use xlink:href="#m545807dd51" x="99.184873" y="66.995102" style="fill: #ffffff; stroke: #ffffff; stroke-width: 0.8"/>
    </g>
   </g>
   <g id="line2d_19">
    <path d="M 125.141464 66.995102 
L 125.141464 66.711188 
" clip-path="url(#p50de26298e)" style="fill: none; stroke: #8c8c8c; stroke-width: 0.75; stroke-linecap: round"/>
   </g>
   <g id="line2d_20">
    <path d="M 125.141464 66.993433 
L 125.141464 66.741764 
" clip-path="url(#p50de26298e)" style="fill: none; stroke: #8c8c8c; stroke-width: 4; stroke-linecap: round"/>
   </g>
   <g id="line2d_21">
    <path d="M 125.141464 66.944222 
" clip-path="url(#p50de26298e)" style="fill: none; stroke: #6f6f6f; stroke-width: 1.2; stroke-linecap: round"/>
    <g clip-path="url(#p50de26298e)">
     <use xlink:href="#m545807dd51" x="125.141464" y="66.944222" style="fill: #ffffff; stroke: #ffffff; stroke-width: 0.8"/>
    </g>
   </g>
   <g id="patch_3">
    <path d="M 8.336802 74.419526 
L 8.336802 4.076256 
" style="fill: none; stroke: #777777; stroke-width: 0.5; stroke-linejoin: miter; stroke-linecap: square"/>
   </g>
   <g id="patch_4">
    <path d="M 8.336802 76.919526 
L 138.11976 76.919526 
" style="fill: none; stroke: #777777; stroke-width: 0.5; stroke-linejoin: miter; stroke-linecap: square"/>
   </g>
  </g>
 </g>
 <defs>
  <clipPath id="p50de26298e">
   <rect x="8.336802" y="4.076256" width="129.782958" height="70.34327"/>
  </clipPath>
 </defs>
</svg>
