<?xml version="1.0" encoding="utf-8" standalone="no"?>
<!DOCTYPE svg PUBLIC "-//W3C//DTD SVG 1.1//EN"
  "http://www.w3.org/Graphics/SVG/1.1/DTD/svg11.dtd">
<svg xmlns:xlink="http://www.w3.org/1999/xlink" width="254.88pt" height="84.96pt" viewBox="0 0 254.88 84.96" xmlns="http://www.w3.org/2000/svg" version="1.1">
 <metadata>
  <rdf:RDF xmlns:dc="http://purl.org/dc/elements/1.1/" xmlns:cc="http://creativecommons.org/ns#" xmlns:rdf="http://www.w3.org/1999/02/22-rdf-syntax-ns#">
   <cc:Work>
    <dc:type rdf:resource="http://purl.org/dc/dcmitype/StillImage"/>
    <dc:date>2024-05-27T15:36:57.092371</dc:date>
    <dc:format>image/svg+xml</dc:format>
    <dc:creator>
     <cc:Agent>
      <dc:title>Matplotlib v3.8.3, https://matplotlib.org/</dc:title>
     </cc:Agent>
    </dc:creator>
   </cc:Work>
  </rdf:RDF>
 </metadata>
 <defs>
  <style type="text/css">*{stroke-linejoin: round; stroke-linecap: butt}</style>
 </defs>
 <g id="figure_1">
  <g id="patch_1">
   <path d="M 0 84.96 
L 254.88 84.96 
L 254.88 0 
L 0 0 
z
" style="fill: #ffffff"/>
  </g>
  <g id="axes_1">
   <g id="patch_2">
    <path d="M 10.005084 54.222338 
L 251.87976 54.222338 
L 251.87976 4.076256 
L 10.005084 4.076256 
z
" style="fill: #ffffff"/>
   </g>
   <g id="matplotlib.axis_1">
    <g id="xtick_1">
     <g id="text_1">
      <!-- CD20+ Cells -->
      <g style="fill: #333333" transform="translate(24.333152 78.266166) rotate(-90) scale(0.035 -0.035)">
       <defs>
        <path id="Helvetica-43" d="M 2422 4716 
Q 3294 4716 3775 4256 
Q 4256 3797 4309 3213 
L 3703 3213 
Q 3600 3656 3292 3915 
Q 2984 4175 2428 4175 
Q 1750 4175 1333 3698 
Q 916 3222 916 2238 
Q 916 1431 1292 929 
Q 1669 428 2416 428 
Q 3103 428 3463 956 
Q 3653 1234 3747 1688 
L 4353 1688 
Q 4272 963 3816 472 
Q 3269 -119 2341 -119 
Q 1541 -119 997 366 
Q 281 1006 281 2344 
Q 281 3359 819 4009 
Q 1400 4716 2422 4716 
z
M 2297 4716 
L 2297 4716 
z
" transform="scale(0.015625)"/>
        <path id="Helvetica-44" d="M 2250 531 
Q 2566 531 2769 597 
Q 3131 719 3363 1066 
Q 3547 1344 3628 1778 
Q 3675 2038 3675 2259 
Q 3675 3113 3336 3584 
Q 2997 4056 2244 4056 
L 1141 4056 
L 1141 531 
L 2250 531 
z
M 516 4591 
L 2375 4591 
Q 3322 4591 3844 3919 
Q 4309 3313 4309 2366 
Q 4309 1634 4034 1044 
Q 3550 0 2369 0 
L 516 0 
L 516 4591 
z
" transform="scale(0.015625)"/>
        <path id="Helvetica-32" d="M 200 0 
Q 231 578 439 1006 
Q 647 1434 1250 1784 
L 1850 2131 
Q 2253 2366 2416 2531 
Q 2672 2791 2672 3125 
Q 2672 3516 2437 3745 
Q 2203 3975 1813 3975 
Q 1234 3975 1013 3538 
Q 894 3303 881 2888 
L 309 2888 
Q 319 3472 525 3841 
Q 891 4491 1816 4491 
Q 2584 4491 2939 4075 
Q 3294 3659 3294 3150 
Q 3294 2613 2916 2231 
Q 2697 2009 2131 1694 
L 1703 1456 
Q 1397 1288 1222 1134 
Q 909 863 828 531 
L 3272 531 
L 3272 0 
L 200 0 
z
" transform="scale(0.015625)"/>
        <path id="Helvetica-30" d="M 1731 4475 
Q 2600 4475 2988 3759 
Q 3288 3206 3288 2244 
Q 3288 1331 3016 734 
Q 2622 -122 1728 -122 
Q 922 -122 528 578 
Q 200 1163 200 2147 
Q 200 2909 397 3456 
Q 766 4475 1731 4475 
z
M 1725 391 
Q 2163 391 2422 778 
Q 2681 1166 2681 2222 
Q 2681 2984 2493 3476 
Q 2306 3969 1766 3969 
Q 1269 3969 1039 3501 
Q 809 3034 809 2125 
Q 809 1441 956 1025 
Q 1181 391 1725 391 
z
" transform="scale(0.015625)"/>
        <path id="Helvetica-2b" d="M 288 1369 
L 288 1894 
L 1650 1894 
L 1650 3266 
L 2184 3266 
L 2184 1894 
L 3547 1894 
L 3547 1369 
L 2184 1369 
L 2184 0 
L 1650 0 
L 1650 1369 
L 288 1369 
z
" transform="scale(0.015625)"/>
        <path id="Helvetica-20" transform="scale(0.015625)"/>
        <path id="Helvetica-65" d="M 1806 3422 
Q 2163 3422 2497 3255 
Q 2831 3088 3006 2822 
Q 3175 2569 3231 2231 
Q 3281 2000 3281 1494 
L 828 1494 
Q 844 984 1069 676 
Q 1294 369 1766 369 
Q 2206 369 2469 659 
Q 2619 828 2681 1050 
L 3234 1050 
Q 3213 866 3089 639 
Q 2966 413 2813 269 
Q 2556 19 2178 -69 
Q 1975 -119 1719 -119 
Q 1094 -119 659 336 
Q 225 791 225 1609 
Q 225 2416 662 2919 
Q 1100 3422 1806 3422 
z
M 2703 1941 
Q 2669 2306 2544 2525 
Q 2313 2931 1772 2931 
Q 1384 2931 1121 2651 
Q 859 2372 844 1941 
L 2703 1941 
z
M 1753 3428 
L 1753 3428 
z
" transform="scale(0.015625)"/>
        <path id="Helvetica-6c" d="M 428 4591 
L 991 4591 
L 991 0 
L 428 0 
L 428 4591 
z
" transform="scale(0.015625)"/>
        <path id="Helvetica-73" d="M 747 1050 
Q 772 769 888 619 
Q 1100 347 1625 347 
Q 1938 347 2175 483 
Q 2413 619 2413 903 
Q 2413 1119 2222 1231 
Q 2100 1300 1741 1391 
L 1294 1503 
Q 866 1609 663 1741 
Q 300 1969 300 2372 
Q 300 2847 642 3140 
Q 984 3434 1563 3434 
Q 2319 3434 2653 2991 
Q 2863 2709 2856 2384 
L 2325 2384 
Q 2309 2575 2191 2731 
Q 1997 2953 1519 2953 
Q 1200 2953 1036 2831 
Q 872 2709 872 2509 
Q 872 2291 1088 2159 
Q 1213 2081 1456 2022 
L 1828 1931 
Q 2434 1784 2641 1647 
Q 2969 1431 2969 969 
Q 2969 522 2630 197 
Q 2291 -128 1597 -128 
Q 850 -128 539 211 
Q 228 550 206 1050 
L 747 1050 
z
M 1578 3428 
L 1578 3428 
z
" transform="scale(0.015625)"/>
       </defs>
       <use xlink:href="#Helvetica-43"/>
       <use xlink:href="#Helvetica-44" x="72.216797"/>
       <use xlink:href="#Helvetica-32" x="144.433594"/>
       <use xlink:href="#Helvetica-30" x="200.048828"/>
       <use xlink:href="#Helvetica-2b" x="255.664062"/>
       <use xlink:href="#Helvetica-20" x="314.0625"/>
       <use xlink:href="#Helvetica-43" x="341.845703"/>
       <use xlink:href="#Helvetica-65" x="414.0625"/>
       <use xlink:href="#Helvetica-6c" x="469.677734"/>
       <use xlink:href="#Helvetica-6c" x="491.894531"/>
       <use xlink:href="#Helvetica-73" x="514.111328"/>
      </g>
     </g>
    </g>
    <g id="xtick_2">
     <g id="text_2">
      <!-- TCRαδ+ Cells -->
      <g style="fill: #333333" transform="translate(51.208116 80.786713) rotate(-90) scale(0.035 -0.035)">
       <defs>
        <path id="Helvetica-54" d="M 3828 4591 
L 3828 4044 
L 2281 4044 
L 2281 0 
L 1650 0 
L 1650 4044 
L 103 4044 
L 103 4591 
L 3828 4591 
z
" transform="scale(0.015625)"/>
        <path id="Helvetica-52" d="M 2622 2488 
Q 3059 2488 3314 2663 
Q 3569 2838 3569 3294 
Q 3569 3784 3213 3963 
Q 3022 4056 2703 4056 
L 1184 4056 
L 1184 2488 
L 2622 2488 
z
M 563 4591 
L 2688 4591 
Q 3213 4591 3553 4438 
Q 4200 4144 4200 3353 
Q 4200 2941 4029 2678 
Q 3859 2416 3553 2256 
Q 3822 2147 3958 1969 
Q 4094 1791 4109 1391 
L 4131 775 
Q 4141 513 4175 384 
Q 4231 166 4375 103 
L 4375 0 
L 3613 0 
Q 3581 59 3562 153 
Q 3544 247 3531 516 
L 3494 1281 
Q 3472 1731 3159 1884 
Q 2981 1969 2600 1969 
L 1184 1969 
L 1184 0 
L 563 0 
L 563 4591 
z
" transform="scale(0.015625)"/>
        <path id="Helvetica-3b1" d="M 3347 703 
Q 3334 428 3525 434 
Q 3641 434 3700 475 
L 3700 -19 
Q 3628 -44 3513 -50 
Q 3391 -63 3309 -63 
Q 3084 -56 2956 103 
Q 2816 256 2816 475 
L 2803 475 
Q 2413 -63 1734 -63 
Q 1006 -50 647 459 
Q 281 953 281 1644 
Q 281 2350 634 2859 
Q 984 3378 1741 3391 
Q 2413 3391 2797 2847 
L 2809 2847 
L 2809 3328 
L 3347 3328 
L 3347 703 
z
M 1825 397 
Q 2075 397 2253 513 
Q 2425 622 2541 806 
Q 2766 1184 2766 1638 
Q 2766 2144 2559 2528 
Q 2350 2919 1797 2931 
Q 1306 2919 1081 2534 
Q 856 2156 856 1697 
Q 856 1209 1081 819 
Q 1306 409 1825 397 
z
" transform="scale(0.015625)"/>
        <path id="Helvetica-3b4" d="M 666 4519 
L 3188 4519 
L 3188 4056 
L 1394 4056 
L 1394 4044 
L 2509 3303 
Q 3134 2881 3372 2469 
Q 3591 2053 3584 1600 
Q 3578 934 3163 447 
Q 2738 -50 1938 -63 
Q 1203 -56 769 403 
Q 331 850 325 1556 
Q 341 3066 1863 3188 
L 1863 3200 
L 666 4056 
L 666 4519 
z
M 1991 397 
Q 2497 403 2731 794 
Q 2969 1166 2969 1606 
Q 2969 1856 2919 2041 
Q 2866 2222 2791 2344 
Q 2713 2463 2638 2541 
Q 2559 2619 2509 2650 
Q 2381 2766 2156 2766 
Q 947 2766 941 1528 
Q 941 1056 1216 738 
Q 1491 403 1991 397 
z
" transform="scale(0.015625)"/>
       </defs>
       <use xlink:href="#Helvetica-54"/>
       <use xlink:href="#Helvetica-43" x="61.083984"/>
       <use xlink:href="#Helvetica-52" x="133.300781"/>
       <use xlink:href="#Helvetica-3b1" x="205.517578"/>
       <use xlink:href="#Helvetica-3b4" x="266.601562"/>
       <use xlink:href="#Helvetica-2b" x="327.685547"/>
       <use xlink:href="#Helvetica-20" x="386.083984"/>
       <use xlink:href="#Helvetica-43" x="413.867188"/>
       <use xlink:href="#Helvetica-65" x="486.083984"/>
       <use xlink:href="#Helvetica-6c" x="541.699219"/>
       <use xlink:href="#Helvetica-6c" x="563.916016"/>
       <use xlink:href="#Helvetica-73" x="586.132812"/>
      </g>
     </g>
    </g>
    <g id="xtick_3">
     <g id="text_3">
      <!-- IL7R+ Cells -->
      <g style="fill: #333333" transform="translate(78.08308 76.710854) rotate(-90) scale(0.035 -0.035)">
       <defs>
        <path id="Helvetica-49" d="M 628 4591 
L 1256 4591 
L 1256 0 
L 628 0 
L 628 4591 
z
" transform="scale(0.015625)"/>
        <path id="Helvetica-4c" d="M 488 4591 
L 1109 4591 
L 1109 547 
L 3434 547 
L 3434 0 
L 488 0 
L 488 4591 
z
" transform="scale(0.015625)"/>
        <path id="Helvetica-37" d="M 3347 4400 
L 3347 3909 
Q 3131 3700 2773 3181 
Q 2416 2663 2141 2063 
Q 1869 1478 1728 997 
Q 1638 688 1494 0 
L 872 0 
Q 1084 1281 1809 2550 
Q 2238 3294 2709 3834 
L 234 3834 
L 234 4400 
L 3347 4400 
z
" transform="scale(0.015625)"/>
       </defs>
       <use xlink:href="#Helvetica-49"/>
       <use xlink:href="#Helvetica-4c" x="27.783203"/>
       <use xlink:href="#Helvetica-37" x="83.398438"/>
       <use xlink:href="#Helvetica-52" x="139.013672"/>
       <use xlink:href="#Helvetica-2b" x="211.230469"/>
       <use xlink:href="#Helvetica-20" x="269.628906"/>
       <use xlink:href="#Helvetica-43" x="297.412109"/>
       <use xlink:href="#Helvetica-65" x="369.628906"/>
       <use xlink:href="#Helvetica-6c" x="425.244141"/>
       <use xlink:href="#Helvetica-6c" x="447.460938"/>
       <use xlink:href="#Helvetica-73" x="469.677734"/>
      </g>
     </g>
    </g>
    <g id="xtick_4">
     <g id="text_4">
      <!-- EOMES+ Cells -->
      <g style="fill: #333333" transform="translate(104.958044 81.95976) rotate(-90) scale(0.035 -0.035)">
       <defs>
        <path id="Helvetica-45" d="M 547 4591 
L 3894 4591 
L 3894 4028 
L 1153 4028 
L 1153 2634 
L 3688 2634 
L 3688 2103 
L 1153 2103 
L 1153 547 
L 3941 547 
L 3941 0 
L 547 0 
L 547 4591 
z
M 2244 4591 
L 2244 4591 
z
" transform="scale(0.015625)"/>
        <path id="Helvetica-4f" d="M 2469 4716 
Q 3684 4716 4269 3934 
Q 4725 3325 4725 2375 
Q 4725 1347 4203 666 
Q 3591 -134 2456 -134 
Q 1397 -134 791 566 
Q 250 1241 250 2272 
Q 250 3203 713 3866 
Q 1306 4716 2469 4716 
z
M 2531 422 
Q 3353 422 3720 1011 
Q 4088 1600 4088 2366 
Q 4088 3175 3664 3669 
Q 3241 4163 2506 4163 
Q 1794 4163 1344 3673 
Q 894 3184 894 2231 
Q 894 1469 1280 945 
Q 1666 422 2531 422 
z
M 2488 4716 
L 2488 4716 
z
" transform="scale(0.015625)"/>
        <path id="Helvetica-4d" d="M 472 4591 
L 1363 4591 
L 2681 709 
L 3991 4591 
L 4872 4591 
L 4872 0 
L 4281 0 
L 4281 2709 
Q 4281 2850 4287 3175 
Q 4294 3500 4294 3872 
L 2984 0 
L 2369 0 
L 1050 3872 
L 1050 3731 
Q 1050 3563 1058 3217 
Q 1066 2872 1066 2709 
L 1066 0 
L 472 0 
L 472 4591 
z
" transform="scale(0.015625)"/>
        <path id="Helvetica-53" d="M 894 1481 
Q 916 1091 1078 847 
Q 1388 391 2169 391 
Q 2519 391 2806 491 
Q 3363 684 3363 1184 
Q 3363 1559 3128 1719 
Q 2891 1875 2384 1991 
L 1763 2131 
Q 1153 2269 900 2434 
Q 463 2722 463 3294 
Q 463 3913 891 4309 
Q 1319 4706 2103 4706 
Q 2825 4706 3329 4357 
Q 3834 4009 3834 3244 
L 3250 3244 
Q 3203 3613 3050 3809 
Q 2766 4169 2084 4169 
Q 1534 4169 1293 3937 
Q 1053 3706 1053 3400 
Q 1053 3063 1334 2906 
Q 1519 2806 2169 2656 
L 2813 2509 
Q 3278 2403 3531 2219 
Q 3969 1897 3969 1284 
Q 3969 522 3414 194 
Q 2859 -134 2125 -134 
Q 1269 -134 784 303 
Q 300 738 309 1481 
L 894 1481 
z
M 2150 4716 
L 2150 4716 
z
" transform="scale(0.015625)"/>
       </defs>
       <use xlink:href="#Helvetica-45"/>
       <use xlink:href="#Helvetica-4f" x="66.699219"/>
       <use xlink:href="#Helvetica-4d" x="144.482422"/>
       <use xlink:href="#Helvetica-45" x="227.783203"/>
       <use xlink:href="#Helvetica-53" x="294.482422"/>
       <use xlink:href="#Helvetica-2b" x="361.181641"/>
       <use xlink:href="#Helvetica-20" x="419.580078"/>
       <use xlink:href="#Helvetica-43" x="447.363281"/>
       <use xlink:href="#Helvetica-65" x="519.580078"/>
       <use xlink:href="#Helvetica-6c" x="575.195312"/>
       <use xlink:href="#Helvetica-6c" x="597.412109"/>
       <use xlink:href="#Helvetica-73" x="619.628906"/>
      </g>
     </g>
    </g>
    <g id="xtick_5">
     <g id="text_5">
      <!-- TBX+ Cells -->
      <g style="fill: #333333" transform="translate(131.833008 76.125151) rotate(-90) scale(0.035 -0.035)">
       <defs>
        <path id="Helvetica-42" d="M 2213 2650 
Q 2606 2650 2825 2759 
Q 3169 2931 3169 3378 
Q 3169 3828 2803 3984 
Q 2597 4072 2191 4072 
L 1081 4072 
L 1081 2650 
L 2213 2650 
z
M 2422 531 
Q 2994 531 3238 863 
Q 3391 1072 3391 1369 
Q 3391 1869 2944 2050 
Q 2706 2147 2316 2147 
L 1081 2147 
L 1081 531 
L 2422 531 
z
M 472 4591 
L 2444 4591 
Q 3250 4591 3591 4109 
Q 3791 3825 3791 3453 
Q 3791 3019 3544 2741 
Q 3416 2594 3175 2472 
Q 3528 2338 3703 2169 
Q 4013 1869 4013 1341 
Q 4013 897 3734 538 
Q 3319 0 2413 0 
L 472 0 
L 472 4591 
z
" transform="scale(0.015625)"/>
        <path id="Helvetica-58" d="M 881 0 
L 131 0 
L 1775 2353 
L 234 4591 
L 1013 4591 
L 2184 2834 
L 3347 4591 
L 4088 4591 
L 2547 2353 
L 4163 0 
L 3391 0 
L 2153 1888 
L 881 0 
z
" transform="scale(0.015625)"/>
       </defs>
       <use xlink:href="#Helvetica-54"/>
       <use xlink:href="#Helvetica-42" x="61.083984"/>
       <use xlink:href="#Helvetica-58" x="127.783203"/>
       <use xlink:href="#Helvetica-2b" x="194.482422"/>
       <use xlink:href="#Helvetica-20" x="252.880859"/>
       <use xlink:href="#Helvetica-43" x="280.664062"/>
       <use xlink:href="#Helvetica-65" x="352.880859"/>
       <use xlink:href="#Helvetica-6c" x="408.496094"/>
       <use xlink:href="#Helvetica-6c" x="430.712891"/>
       <use xlink:href="#Helvetica-73" x="452.929688"/>
      </g>
     </g>
    </g>
    <g id="xtick_6">
     <g id="text_6">
      <!-- GATA+ Cells -->
      <g style="fill: #333333" transform="translate(158.707972 78.847494) rotate(-90) scale(0.035 -0.035)">
       <defs>
        <path id="Helvetica-47" d="M 2472 4709 
Q 3119 4709 3591 4459 
Q 4275 4100 4428 3200 
L 3813 3200 
Q 3700 3703 3347 3933 
Q 2994 4163 2456 4163 
Q 1819 4163 1383 3684 
Q 947 3206 947 2259 
Q 947 1441 1306 927 
Q 1666 413 2478 413 
Q 3100 413 3508 773 
Q 3916 1134 3925 1941 
L 2488 1941 
L 2488 2456 
L 4503 2456 
L 4503 0 
L 4103 0 
L 3953 591 
Q 3638 244 3394 109 
Q 2984 -122 2353 -122 
Q 1538 -122 950 406 
Q 309 1069 309 2225 
Q 309 3378 934 4059 
Q 1528 4709 2472 4709 
z
M 2369 4716 
L 2369 4716 
z
" transform="scale(0.015625)"/>
        <path id="Helvetica-41" d="M 2844 1881 
L 2147 3909 
L 1406 1881 
L 2844 1881 
z
M 1822 4591 
L 2525 4591 
L 4191 0 
L 3509 0 
L 3044 1375 
L 1228 1375 
L 731 0 
L 94 0 
L 1822 4591 
z
" transform="scale(0.015625)"/>
       </defs>
       <use xlink:href="#Helvetica-47"/>
       <use xlink:href="#Helvetica-41" x="77.783203"/>
       <use xlink:href="#Helvetica-54" x="144.482422"/>
       <use xlink:href="#Helvetica-41" x="205.566406"/>
       <use xlink:href="#Helvetica-2b" x="272.265625"/>
       <use xlink:href="#Helvetica-20" x="330.664062"/>
       <use xlink:href="#Helvetica-43" x="358.447266"/>
       <use xlink:href="#Helvetica-65" x="430.664062"/>
       <use xlink:href="#Helvetica-6c" x="486.279297"/>
       <use xlink:href="#Helvetica-6c" x="508.496094"/>
       <use xlink:href="#Helvetica-73" x="530.712891"/>
      </g>
     </g>
    </g>
    <g id="xtick_7">
     <g id="text_7">
      <!-- ICOS+ Cells -->
      <g style="fill: #333333" transform="translate(185.582936 77.875151) rotate(-90) scale(0.035 -0.035)">
       <use xlink:href="#Helvetica-49"/>
       <use xlink:href="#Helvetica-43" x="27.783203"/>
       <use xlink:href="#Helvetica-4f" x="100"/>
       <use xlink:href="#Helvetica-53" x="177.783203"/>
       <use xlink:href="#Helvetica-2b" x="244.482422"/>
       <use xlink:href="#Helvetica-20" x="302.880859"/>
       <use xlink:href="#Helvetica-43" x="330.664062"/>
       <use xlink:href="#Helvetica-65" x="402.880859"/>
       <use xlink:href="#Helvetica-6c" x="458.496094"/>
       <use xlink:href="#Helvetica-6c" x="480.712891"/>
       <use xlink:href="#Helvetica-73" x="502.929688"/>
      </g>
     </g>
    </g>
    <g id="xtick_8">
     <g id="text_8">
      <!-- RORγT+ Cells -->
      <g style="fill: #333333" transform="translate(212.469931 81.179916) rotate(-90) scale(0.035 -0.035)">
       <defs>
        <path id="Helvetica-3b3" d="M 1556 225 
L 581 2444 
Q 481 2700 416 2803 
Q 347 2894 244 2894 
Q 91 2888 56 2872 
L 56 3334 
Q 166 3384 313 3391 
Q 641 3391 788 3250 
Q 863 3188 922 3078 
Q 978 2963 1038 2809 
L 1844 878 
L 2828 3328 
L 3431 3328 
L 2131 225 
L 2131 -1253 
L 1556 -1253 
L 1556 225 
z
" transform="scale(0.015625)"/>
       </defs>
       <use xlink:href="#Helvetica-52"/>
       <use xlink:href="#Helvetica-4f" x="72.216797"/>
       <use xlink:href="#Helvetica-52" x="150"/>
       <use xlink:href="#Helvetica-3b3" x="222.216797"/>
       <use xlink:href="#Helvetica-54" x="277.832031"/>
       <use xlink:href="#Helvetica-2b" x="338.916016"/>
       <use xlink:href="#Helvetica-20" x="397.314453"/>
       <use xlink:href="#Helvetica-43" x="425.097656"/>
       <use xlink:href="#Helvetica-65" x="497.314453"/>
       <use xlink:href="#Helvetica-6c" x="552.929688"/>
       <use xlink:href="#Helvetica-6c" x="575.146484"/>
       <use xlink:href="#Helvetica-73" x="597.363281"/>
      </g>
     </g>
    </g>
    <g id="xtick_9">
     <g id="text_9">
      <!-- AHR+ Cells -->
      <g style="fill: #333333" transform="translate(239.332864 76.708119) rotate(-90) scale(0.035 -0.035)">
       <defs>
        <path id="Helvetica-48" d="M 503 4591 
L 1131 4591 
L 1131 2694 
L 3519 2694 
L 3519 4591 
L 4147 4591 
L 4147 0 
L 3519 0 
L 3519 2147 
L 1131 2147 
L 1131 0 
L 503 0 
L 503 4591 
z
" transform="scale(0.015625)"/>
       </defs>
       <use xlink:href="#Helvetica-41"/>
       <use xlink:href="#Helvetica-48" x="66.699219"/>
       <use xlink:href="#Helvetica-52" x="138.916016"/>
       <use xlink:href="#Helvetica-2b" x="211.132812"/>
       <use xlink:href="#Helvetica-20" x="269.53125"/>
       <use xlink:href="#Helvetica-43" x="297.314453"/>
       <use xlink:href="#Helvetica-65" x="369.53125"/>
       <use xlink:href="#Helvetica-6c" x="425.146484"/>
       <use xlink:href="#Helvetica-6c" x="447.363281"/>
       <use xlink:href="#Helvetica-73" x="469.580078"/>
      </g>
     </g>
    </g>
   </g>
   <g id="matplotlib.axis_2">
    <g id="ytick_1">
     <g id="line2d_1">
      <defs>
       <path id="mdfe3d09db2" d="M 0 0 
L -1 0 
" style="stroke: #777777; stroke-width: 0.5"/>
      </defs>
      <g>
       <use xlink:href="#mdfe3d09db2" x="10.005084" y="48.355357" style="fill: #777777; stroke: #777777; stroke-width: 0.5"/>
      </g>
     </g>
     <g id="text_10">
      <!-- 0 -->
      <g style="fill: #333333" transform="translate(6.336803 49.431373) scale(0.03 -0.03)">
       <use xlink:href="#Helvetica-30"/>
      </g>
     </g>
    </g>
    <g id="ytick_2">
     <g id="line2d_2">
      <g>
       <use xlink:href="#mdfe3d09db2" x="10.005084" y="40.975507" style="fill: #777777; stroke: #777777; stroke-width: 0.5"/>
      </g>
     </g>
     <g id="text_11">
      <!-- 20 -->
      <g style="fill: #333333" transform="translate(4.668521 42.051523) scale(0.03 -0.03)">
       <use xlink:href="#Helvetica-32"/>
       <use xlink:href="#Helvetica-30" x="55.615234"/>
      </g>
     </g>
    </g>
    <g id="ytick_3">
     <g id="line2d_3">
      <g>
       <use xlink:href="#mdfe3d09db2" x="10.005084" y="33.595657" style="fill: #777777; stroke: #777777; stroke-width: 0.5"/>
      </g>
     </g>
     <g id="text_12">
      <!-- 40 -->
      <g style="fill: #333333" transform="translate(4.668521 34.671672) scale(0.03 -0.03)">
       <defs>
        <path id="Helvetica-34" d="M 2116 1584 
L 2116 3613 
L 681 1584 
L 2116 1584 
z
M 2125 0 
L 2125 1094 
L 163 1094 
L 163 1644 
L 2213 4488 
L 2688 4488 
L 2688 1584 
L 3347 1584 
L 3347 1094 
L 2688 1094 
L 2688 0 
L 2125 0 
z
" transform="scale(0.015625)"/>
       </defs>
       <use xlink:href="#Helvetica-34"/>
       <use xlink:href="#Helvetica-30" x="55.615234"/>
      </g>
     </g>
    </g>
    <g id="ytick_4">
     <g id="line2d_4">
      <g>
       <use xlink:href="#mdfe3d09db2" x="10.005084" y="26.215806" style="fill: #777777; stroke: #777777; stroke-width: 0.5"/>
      </g>
     </g>
     <g id="text_13">
      <!-- 60 -->
      <g style="fill: #333333" transform="translate(4.668521 27.291822) scale(0.03 -0.03)">
       <defs>
        <path id="Helvetica-36" d="M 1872 4494 
Q 2622 4494 2917 4105 
Q 3213 3716 3213 3303 
L 2656 3303 
Q 2606 3569 2497 3719 
Q 2294 4000 1881 4000 
Q 1409 4000 1131 3564 
Q 853 3128 822 2316 
Q 1016 2600 1309 2741 
Q 1578 2866 1909 2866 
Q 2472 2866 2890 2506 
Q 3309 2147 3309 1434 
Q 3309 825 2912 354 
Q 2516 -116 1781 -116 
Q 1153 -116 697 361 
Q 241 838 241 1966 
Q 241 2800 444 3381 
Q 834 4494 1872 4494 
z
M 1831 384 
Q 2275 384 2495 682 
Q 2716 981 2716 1388 
Q 2716 1731 2519 2042 
Q 2322 2353 1803 2353 
Q 1441 2353 1167 2112 
Q 894 1872 894 1388 
Q 894 963 1142 673 
Q 1391 384 1831 384 
z
" transform="scale(0.015625)"/>
       </defs>
       <use xlink:href="#Helvetica-36"/>
       <use xlink:href="#Helvetica-30" x="55.615234"/>
      </g>
     </g>
    </g>
    <g id="ytick_5">
     <g id="line2d_5">
      <g>
       <use xlink:href="#mdfe3d09db2" x="10.005084" y="18.835956" style="fill: #777777; stroke: #777777; stroke-width: 0.5"/>
      </g>
     </g>
     <g id="text_14">
      <!-- 80 -->
      <g style="fill: #333333" transform="translate(4.668521 19.911972) scale(0.03 -0.03)">
       <defs>
        <path id="Helvetica-38" d="M 1741 2600 
Q 2113 2600 2322 2808 
Q 2531 3016 2531 3303 
Q 2531 3553 2331 3762 
Q 2131 3972 1722 3972 
Q 1316 3972 1134 3762 
Q 953 3553 953 3272 
Q 953 2956 1187 2778 
Q 1422 2600 1741 2600 
z
M 1775 384 
Q 2166 384 2423 595 
Q 2681 806 2681 1225 
Q 2681 1659 2415 1884 
Q 2150 2109 1734 2109 
Q 1331 2109 1076 1879 
Q 822 1650 822 1244 
Q 822 894 1055 639 
Q 1288 384 1775 384 
z
M 975 2384 
Q 741 2484 609 2619 
Q 363 2869 363 3269 
Q 363 3769 725 4128 
Q 1088 4488 1753 4488 
Q 2397 4488 2762 4148 
Q 3128 3809 3128 3356 
Q 3128 2938 2916 2678 
Q 2797 2531 2547 2391 
Q 2825 2263 2984 2097 
Q 3281 1784 3281 1284 
Q 3281 694 2884 283 
Q 2488 -128 1763 -128 
Q 1109 -128 657 226 
Q 206 581 206 1256 
Q 206 1653 400 1942 
Q 594 2231 975 2384 
z
" transform="scale(0.015625)"/>
       </defs>
       <use xlink:href="#Helvetica-38"/>
       <use xlink:href="#Helvetica-30" x="55.615234"/>
      </g>
     </g>
    </g>
    <g id="ytick_6">
     <g id="line2d_6">
      <g>
       <use xlink:href="#mdfe3d09db2" x="10.005084" y="11.456106" style="fill: #777777; stroke: #777777; stroke-width: 0.5"/>
      </g>
     </g>
     <g id="text_15">
      <!-- 100 -->
      <g style="fill: #333333" transform="translate(3.00024 12.532122) scale(0.03 -0.03)">
       <defs>
        <path id="Helvetica-31" d="M 613 3169 
L 613 3600 
Q 1222 3659 1462 3798 
Q 1703 3938 1822 4456 
L 2266 4456 
L 2266 0 
L 1666 0 
L 1666 3169 
L 613 3169 
z
" transform="scale(0.015625)"/>
       </defs>
       <use xlink:href="#Helvetica-31"/>
       <use xlink:href="#Helvetica-30" x="55.615234"/>
       <use xlink:href="#Helvetica-30" x="111.230469"/>
      </g>
     </g>
    </g>
    <g id="ytick_7">
     <g id="line2d_7">
      <g>
       <use xlink:href="#mdfe3d09db2" x="10.005084" y="4.076256" style="fill: #777777; stroke: #777777; stroke-width: 0.5"/>
      </g>
     </g>
     <g id="text_16">
      <!-- 120 -->
      <g style="fill: #333333" transform="translate(3.00024 5.152271) scale(0.03 -0.03)">
       <use xlink:href="#Helvetica-31"/>
       <use xlink:href="#Helvetica-32" x="55.615234"/>
       <use xlink:href="#Helvetica-30" x="111.230469"/>
      </g>
     </g>
    </g>
   </g>
   <g id="PolyCollection_1">
    <defs>
     <path id="mec93987c7f" d="M 24.396911 -36.665423 
L 22.488221 -36.665423 
L 22.197062 -36.762138 
L 21.854025 -36.858854 
L 21.461374 -36.955569 
L 21.024756 -37.052284 
L 20.553126 -37.148999 
L 20.058233 -37.245715 
L 19.553686 -37.34243 
L 19.053653 -37.439145 
L 18.571332 -37.535861 
L 18.117374 -37.632576 
L 17.698481 -37.729291 
L 17.316392 -37.826006 
L 16.967483 -37.922722 
L 16.64313 -38.019437 
L 16.330907 -38.116152 
L 16.016579 -38.212868 
L 15.686672 -38.309583 
L 15.33128 -38.406298 
L 14.946655 -38.503013 
L 14.53707 -38.599729 
L 14.115524 -38.696444 
L 13.703014 -38.793159 
L 13.326357 -38.889875 
L 13.014836 -38.98659 
L 12.796181 -39.083305 
L 12.69258 -39.18002 
L 12.717414 -39.276736 
L 12.87327 -39.373451 
L 13.151556 -39.470166 
L 13.533689 -39.566882 
L 13.993564 -39.663597 
L 14.500796 -39.760312 
L 15.024122 -39.857027 
L 15.534441 -39.953743 
L 16.007109 -40.050458 
L 16.423327 -40.147173 
L 16.77066 -40.243889 
L 17.042882 -40.340604 
L 17.239402 -40.437319 
L 17.364515 -40.534034 
L 17.426648 -40.63075 
L 17.43767 -40.727465 
L 17.412246 -40.82418 
L 17.367151 -40.920896 
L 17.320472 -41.017611 
L 17.290617 -41.114326 
L 17.295143 -41.211042 
L 17.349455 -41.307757 
L 17.465507 -41.404472 
L 17.650633 -41.501187 
L 17.906691 -41.597903 
L 18.229634 -41.694618 
L 18.609608 -41.791333 
L 19.031597 -41.888049 
L 19.476577 -41.984764 
L 19.923072 -42.081479 
L 20.348962 -42.178194 
L 20.733381 -42.27491 
L 21.058507 -42.371625 
L 21.311108 -42.46834 
L 21.483698 -42.565056 
L 21.575202 -42.661771 
L 21.591077 -42.758486 
L 21.542848 -42.855201 
L 21.447083 -42.951917 
L 21.323843 -43.048632 
L 21.194763 -43.145347 
L 21.080903 -43.242063 
L 21.00064 -43.338778 
L 20.967832 -43.435493 
L 20.990504 -43.532208 
L 21.070239 -43.628924 
L 21.202339 -43.725639 
L 21.376718 -43.822354 
L 21.579375 -43.91907 
L 21.794193 -44.015785 
L 22.00482 -44.1125 
L 22.196377 -44.209215 
L 22.356806 -44.305931 
L 22.477783 -44.402646 
L 22.55516 -44.499361 
L 22.588982 -44.596077 
L 22.583153 -44.692792 
L 22.544829 -44.789507 
L 22.483598 -44.886222 
L 22.410515 -44.982938 
L 22.337048 -45.079653 
L 22.274008 -45.176368 
L 22.230562 -45.273084 
L 22.21342 -45.369799 
L 22.226296 -45.466514 
L 22.269727 -45.563229 
L 22.341256 -45.659945 
L 22.435966 -45.75666 
L 22.54726 -45.853375 
L 22.667764 -45.950091 
L 22.79022 -46.046806 
L 22.908232 -46.143521 
L 23.01679 -46.240237 
L 23.868342 -46.240237 
L 23.868342 -46.240237 
L 23.976899 -46.143521 
L 24.094912 -46.046806 
L 24.217367 -45.950091 
L 24.337871 -45.853375 
L 24.449165 -45.75666 
L 24.543876 -45.659945 
L 24.615405 -45.563229 
L 24.658835 -45.466514 
L 24.671711 -45.369799 
L 24.654569 -45.273084 
L 24.611124 -45.176368 
L 24.548084 -45.079653 
L 24.474616 -44.982938 
L 24.401533 -44.886222 
L 24.340303 -44.789507 
L 24.301979 -44.692792 
L 24.29615 -44.596077 
L 24.329971 -44.499361 
L 24.407348 -44.402646 
L 24.528326 -44.305931 
L 24.688755 -44.209215 
L 24.880311 -44.1125 
L 25.090939 -44.015785 
L 25.305757 -43.91907 
L 25.508413 -43.822354 
L 25.682793 -43.725639 
L 25.814892 -43.628924 
L 25.894627 -43.532208 
L 25.917299 -43.435493 
L 25.884491 -43.338778 
L 25.804229 -43.242063 
L 25.690369 -43.145347 
L 25.561288 -43.048632 
L 25.438049 -42.951917 
L 25.342283 -42.855201 
L 25.294055 -42.758486 
L 25.309929 -42.661771 
L 25.401433 -42.565056 
L 25.574023 -42.46834 
L 25.826625 -42.371625 
L 26.151751 -42.27491 
L 26.536169 -42.178194 
L 26.96206 -42.081479 
L 27.408554 -41.984764 
L 27.853534 -41.888049 
L 28.275523 -41.791333 
L 28.655497 -41.694618 
L 28.97844 -41.597903 
L 29.234498 -41.501187 
L 29.419625 -41.404472 
L 29.535677 -41.307757 
L 29.589989 -41.211042 
L 29.594514 -41.114326 
L 29.564659 -41.017611 
L 29.517981 -40.920896 
L 29.472886 -40.82418 
L 29.447461 -40.727465 
L 29.458484 -40.63075 
L 29.520617 -40.534034 
L 29.645729 -40.437319 
L 29.842249 -40.340604 
L 30.114472 -40.243889 
L 30.461805 -40.147173 
L 30.878023 -40.050458 
L 31.35069 -39.953743 
L 31.861009 -39.857027 
L 32.384335 -39.760312 
L 32.891568 -39.663597 
L 33.351443 -39.566882 
L 33.733575 -39.470166 
L 34.011861 -39.373451 
L 34.167718 -39.276736 
L 34.192551 -39.18002 
L 34.088951 -39.083305 
L 33.870295 -38.98659 
L 33.558774 -38.889875 
L 33.182118 -38.793159 
L 32.769608 -38.696444 
L 32.348062 -38.599729 
L 31.938477 -38.503013 
L 31.553852 -38.406298 
L 31.19846 -38.309583 
L 30.868552 -38.212868 
L 30.554225 -38.116152 
L 30.242002 -38.019437 
L 29.917648 -37.922722 
L 29.568739 -37.826006 
L 29.186651 -37.729291 
L 28.767758 -37.632576 
L 28.3138 -37.535861 
L 27.831478 -37.439145 
L 27.331445 -37.34243 
L 26.826899 -37.245715 
L 26.332006 -37.148999 
L 25.860375 -37.052284 
L 25.423757 -36.955569 
L 25.031106 -36.858854 
L 24.68807 -36.762138 
L 24.396911 -36.665423 
z
" style="stroke: #6f6f6f; stroke-width: 0.15"/>
    </defs>
    <g clip-path="url(#pc27f805884)">
     <use xlink:href="#mec93987c7f" x="0" y="84.96" style="fill: #abc9ea; stroke: #6f6f6f; stroke-width: 0.15"/>
    </g>
   </g>
   <g id="PolyCollection_2">
    <defs>
     <path id="m2c9d599159" d="M 51.472895 -35.997834 
L 49.162165 -35.997834 
L 48.859824 -36.206672 
L 48.521799 -36.41551 
L 48.157131 -36.624348 
L 47.778401 -36.833186 
L 47.40092 -37.042024 
L 47.041385 -37.250862 
L 46.716129 -37.4597 
L 46.439202 -37.668538 
L 46.220585 -37.877376 
L 46.064855 -38.086214 
L 45.970564 -38.295052 
L 45.930504 -38.50389 
L 45.932844 -38.712728 
L 45.962998 -38.921566 
L 46.005899 -39.130404 
L 46.048307 -39.339242 
L 46.080743 -39.54808 
L 46.098702 -39.756918 
L 46.102974 -39.965756 
L 46.099005 -40.174594 
L 46.095455 -40.383432 
L 46.102211 -40.59227 
L 46.128219 -40.801108 
L 46.179486 -41.009946 
L 46.257581 -41.218784 
L 46.358828 -41.427622 
L 46.474305 -41.63646 
L 46.590594 -41.845298 
L 46.691147 -42.054136 
L 46.758057 -42.262974 
L 46.773974 -42.471812 
L 46.723945 -42.68065 
L 46.596939 -42.889488 
L 46.386934 -43.098326 
L 46.09345 -43.307164 
L 45.721523 -43.516002 
L 45.281149 -43.72484 
L 44.786288 -43.933678 
L 44.253563 -44.142516 
L 43.70081 -44.351354 
L 43.145643 -44.560192 
L 42.604196 -44.76903 
L 42.090153 -44.977868 
L 41.614174 -45.186707 
L 41.183722 -45.395545 
L 40.803263 -45.604383 
L 40.474772 -45.813221 
L 40.198419 -46.022059 
L 39.973329 -46.230897 
L 39.798291 -46.439735 
L 39.672352 -46.648573 
L 39.595231 -46.857411 
L 39.567544 -47.066249 
L 39.590832 -47.275087 
L 39.667404 -47.483925 
L 39.800006 -47.692763 
L 39.991336 -47.901601 
L 40.243425 -48.110439 
L 40.556954 -48.319277 
L 40.93056 -48.528115 
L 41.360247 -48.736953 
L 41.839013 -48.945791 
L 42.356784 -49.154629 
L 42.900727 -49.363467 
L 43.45595 -49.572305 
L 44.006531 -49.781143 
L 44.53677 -49.989981 
L 45.032483 -50.198819 
L 45.482189 -50.407657 
L 45.878004 -50.616495 
L 46.216134 -50.825333 
L 46.496906 -51.034171 
L 46.724345 -51.243009 
L 46.905384 -51.451847 
L 47.048817 -51.660685 
L 47.164168 -51.869523 
L 47.26063 -52.078361 
L 47.346206 -52.287199 
L 47.427157 -52.496037 
L 47.507805 -52.704875 
L 47.590655 -52.913713 
L 47.676798 -53.122551 
L 47.766457 -53.331389 
L 47.859565 -53.540227 
L 47.956248 -53.749065 
L 48.057117 -53.957903 
L 48.163315 -54.166741 
L 48.276346 -54.375579 
L 48.397713 -54.584417 
L 48.528489 -54.793255 
L 48.668912 -55.002093 
L 48.818113 -55.210931 
L 48.97403 -55.419769 
L 49.13354 -55.628607 
L 49.292771 -55.837445 
L 49.447536 -56.046283 
L 49.593803 -56.255122 
L 49.728119 -56.46396 
L 49.84792 -56.672798 
L 50.787139 -56.672798 
L 50.787139 -56.672798 
L 50.906941 -56.46396 
L 51.041256 -56.255122 
L 51.187523 -56.046283 
L 51.342288 -55.837445 
L 51.501519 -55.628607 
L 51.66103 -55.419769 
L 51.816947 -55.210931 
L 51.966148 -55.002093 
L 52.106571 -54.793255 
L 52.237346 -54.584417 
L 52.358713 -54.375579 
L 52.471744 -54.166741 
L 52.577943 -53.957903 
L 52.678811 -53.749065 
L 52.775495 -53.540227 
L 52.868603 -53.331389 
L 52.958261 -53.122551 
L 53.044405 -52.913713 
L 53.127255 -52.704875 
L 53.207902 -52.496037 
L 53.288854 -52.287199 
L 53.374429 -52.078361 
L 53.470892 -51.869523 
L 53.586243 -51.660685 
L 53.729676 -51.451847 
L 53.910714 -51.243009 
L 54.138154 -51.034171 
L 54.418925 -50.825333 
L 54.757055 -50.616495 
L 55.15287 -50.407657 
L 55.602577 -50.198819 
L 56.09829 -49.989981 
L 56.628528 -49.781143 
L 57.17911 -49.572305 
L 57.734333 -49.363467 
L 58.278276 -49.154629 
L 58.796047 -48.945791 
L 59.274813 -48.736953 
L 59.7045 -48.528115 
L 60.078105 -48.319277 
L 60.391634 -48.110439 
L 60.643724 -47.901601 
L 60.835053 -47.692763 
L 60.967656 -47.483925 
L 61.044228 -47.275087 
L 61.067515 -47.066249 
L 61.039828 -46.857411 
L 60.962707 -46.648573 
L 60.836768 -46.439735 
L 60.661731 -46.230897 
L 60.436641 -46.022059 
L 60.160288 -45.813221 
L 59.831796 -45.604383 
L 59.451337 -45.395545 
L 59.020885 -45.186707 
L 58.544907 -44.977868 
L 58.030864 -44.76903 
L 57.489416 -44.560192 
L 56.93425 -44.351354 
L 56.381497 -44.142516 
L 55.848771 -43.933678 
L 55.35391 -43.72484 
L 54.913537 -43.516002 
L 54.54161 -43.307164 
L 54.248126 -43.098326 
L 54.038121 -42.889488 
L 53.911115 -42.68065 
L 53.861085 -42.471812 
L 53.877003 -42.262974 
L 53.943912 -42.054136 
L 54.044466 -41.845298 
L 54.160754 -41.63646 
L 54.276232 -41.427622 
L 54.377479 -41.218784 
L 54.455573 -41.009946 
L 54.506841 -40.801108 
L 54.532849 -40.59227 
L 54.539604 -40.383432 
L 54.536054 -40.174594 
L 54.532086 -39.965756 
L 54.536358 -39.756918 
L 54.554317 -39.54808 
L 54.586752 -39.339242 
L 54.629161 -39.130404 
L 54.672062 -38.921566 
L 54.702216 -38.712728 
L 54.704556 -38.50389 
L 54.664496 -38.295052 
L 54.570205 -38.086214 
L 54.414474 -37.877376 
L 54.195858 -37.668538 
L 53.918931 -37.4597 
L 53.593674 -37.250862 
L 53.234139 -37.042024 
L 52.856659 -36.833186 
L 52.477929 -36.624348 
L 52.113261 -36.41551 
L 51.775236 -36.206672 
L 51.472895 -35.997834 
z
" style="stroke: #6f6f6f; stroke-width: 0.15"/>
    </defs>
    <g clip-path="url(#pc27f805884)">
     <use xlink:href="#m2c9d599159" x="0" y="84.96" style="fill: #efb792; stroke: #6f6f6f; stroke-width: 0.15"/>
    </g>
   </g>
   <g id="PolyCollection_3">
    <defs>
     <path id="m0e19c74773" d="M 77.927474 -35.99408 
L 76.457514 -35.99408 
L 76.265559 -36.236728 
L 76.048027 -36.479376 
L 75.808749 -36.722024 
L 75.553612 -36.964671 
L 75.290344 -37.207319 
L 75.028048 -37.449967 
L 74.776538 -37.692614 
L 74.545512 -37.935262 
L 74.343693 -38.17791 
L 74.178031 -38.420557 
L 74.053075 -38.663205 
L 73.970606 -38.905853 
L 73.929547 -39.1485 
L 73.926175 -39.391148 
L 73.954556 -39.633796 
L 74.007161 -39.876443 
L 74.075547 -40.119091 
L 74.151043 -40.361739 
L 74.225368 -40.604386 
L 74.291128 -40.847034 
L 74.342174 -41.089682 
L 74.373809 -41.332329 
L 74.382832 -41.574977 
L 74.367427 -41.817625 
L 74.326911 -42.060272 
L 74.26135 -42.30292 
L 74.171086 -42.545568 
L 74.05623 -42.788216 
L 73.916185 -43.030863 
L 73.749287 -43.273511 
L 73.552636 -43.516159 
L 73.322177 -43.758806 
L 73.053059 -44.001454 
L 72.740256 -44.244102 
L 72.379396 -44.486749 
L 71.967702 -44.729397 
L 71.504937 -44.972045 
L 70.994218 -45.214692 
L 70.442598 -45.45734 
L 69.861329 -45.699988 
L 69.265737 -45.942635 
L 68.674708 -46.185283 
L 68.109785 -46.427931 
L 67.593932 -46.670578 
L 67.150033 -46.913226 
L 66.799224 -47.155874 
L 66.559182 -47.398521 
L 66.442508 -47.641169 
L 66.455367 -47.883817 
L 66.596536 -48.126465 
L 66.857012 -48.369112 
L 67.220288 -48.61176 
L 67.66334 -48.854408 
L 68.158297 -49.097055 
L 68.674674 -49.339703 
L 69.181962 -49.582351 
L 69.652317 -49.824998 
L 70.06302 -50.067646 
L 70.398439 -50.310294 
L 70.65124 -50.552941 
L 70.822683 -50.795589 
L 70.921969 -51.038237 
L 70.964721 -51.280884 
L 70.970794 -51.523532 
L 70.961688 -51.76618 
L 70.9579 -52.008827 
L 70.976542 -52.251475 
L 71.029492 -52.494123 
L 71.122296 -52.73677 
L 71.253892 -52.979418 
L 71.417157 -53.222066 
L 71.60016 -53.464713 
L 71.787929 -53.707361 
L 71.964497 -53.950009 
L 72.114996 -54.192657 
L 72.22755 -54.435304 
L 72.29477 -54.677952 
L 72.314723 -54.9206 
L 72.291261 -55.163247 
L 72.233714 -55.405895 
L 72.155971 -55.648543 
L 72.07507 -55.89119 
L 72.009449 -56.133838 
L 71.977058 -56.376486 
L 71.993541 -56.619133 
L 72.0707 -56.861781 
L 72.215396 -57.104429 
L 72.429012 -57.347076 
L 72.707504 -57.589724 
L 73.04202 -57.832372 
L 73.419954 -58.075019 
L 73.82631 -58.317667 
L 74.245173 -58.560315 
L 74.661114 -58.802962 
L 75.06039 -59.04561 
L 75.431812 -59.288258 
L 75.767251 -59.530906 
L 76.061771 -59.773553 
L 76.313444 -60.016201 
L 78.071544 -60.016201 
L 78.071544 -60.016201 
L 78.323217 -59.773553 
L 78.617737 -59.530906 
L 78.953176 -59.288258 
L 79.324598 -59.04561 
L 79.723873 -58.802962 
L 80.139815 -58.560315 
L 80.558677 -58.317667 
L 80.965034 -58.075019 
L 81.342968 -57.832372 
L 81.677484 -57.589724 
L 81.955976 -57.347076 
L 82.169591 -57.104429 
L 82.314287 -56.861781 
L 82.391447 -56.619133 
L 82.40793 -56.376486 
L 82.375539 -56.133838 
L 82.309917 -55.89119 
L 82.229016 -55.648543 
L 82.151273 -55.405895 
L 82.093727 -55.163247 
L 82.070265 -54.9206 
L 82.090218 -54.677952 
L 82.157438 -54.435304 
L 82.269991 -54.192657 
L 82.420491 -53.950009 
L 82.597059 -53.707361 
L 82.784827 -53.464713 
L 82.967831 -53.222066 
L 83.131096 -52.979418 
L 83.262691 -52.73677 
L 83.355495 -52.494123 
L 83.408446 -52.251475 
L 83.427087 -52.008827 
L 83.4233 -51.76618 
L 83.414194 -51.523532 
L 83.420267 -51.280884 
L 83.463019 -51.038237 
L 83.562305 -50.795589 
L 83.733747 -50.552941 
L 83.986549 -50.310294 
L 84.321968 -50.067646 
L 84.73267 -49.824998 
L 85.203025 -49.582351 
L 85.710314 -49.339703 
L 86.22669 -49.097055 
L 86.721647 -48.854408 
L 87.1647 -48.61176 
L 87.527976 -48.369112 
L 87.788452 -48.126465 
L 87.92962 -47.883817 
L 87.942479 -47.641169 
L 87.825806 -47.398521 
L 87.585764 -47.155874 
L 87.234955 -46.913226 
L 86.791055 -46.670578 
L 86.275202 -46.427931 
L 85.710279 -46.185283 
L 85.11925 -45.942635 
L 84.523659 -45.699988 
L 83.94239 -45.45734 
L 83.39077 -45.214692 
L 82.880051 -44.972045 
L 82.417285 -44.729397 
L 82.005592 -44.486749 
L 81.644732 -44.244102 
L 81.331929 -44.001454 
L 81.062811 -43.758806 
L 80.832352 -43.516159 
L 80.6357 -43.273511 
L 80.468802 -43.030863 
L 80.328758 -42.788216 
L 80.213901 -42.545568 
L 80.123638 -42.30292 
L 80.058076 -42.060272 
L 80.01756 -41.817625 
L 80.002155 -41.574977 
L 80.011178 -41.332329 
L 80.042814 -41.089682 
L 80.09386 -40.847034 
L 80.15962 -40.604386 
L 80.233945 -40.361739 
L 80.309441 -40.119091 
L 80.377826 -39.876443 
L 80.430431 -39.633796 
L 80.458813 -39.391148 
L 80.45544 -39.1485 
L 80.414382 -38.905853 
L 80.331912 -38.663205 
L 80.206957 -38.420557 
L 80.041294 -38.17791 
L 79.839476 -37.935262 
L 79.60845 -37.692614 
L 79.356939 -37.449967 
L 79.094644 -37.207319 
L 78.831375 -36.964671 
L 78.576239 -36.722024 
L 78.336961 -36.479376 
L 78.119428 -36.236728 
L 77.927474 -35.99408 
z
" style="stroke: #6f6f6f; stroke-width: 0.15"/>
    </defs>
    <g clip-path="url(#pc27f805884)">
     <use xlink:href="#m0e19c74773" x="0" y="84.96" style="fill: #98daa7; stroke: #6f6f6f; stroke-width: 0.15"/>
    </g>
   </g>
   <g id="PolyCollection_4">
    <defs>
     <path id="m055eda8d98" d="M 105.492514 -36.329955 
L 102.642401 -36.329955 
L 102.351154 -36.359087 
L 102.021079 -36.388219 
L 101.651647 -36.417351 
L 101.243334 -36.446483 
L 100.797741 -36.475614 
L 100.317664 -36.504746 
L 99.807121 -36.533878 
L 99.271319 -36.56301 
L 98.716564 -36.592142 
L 98.150119 -36.621274 
L 97.580008 -36.650405 
L 97.014777 -36.679537 
L 96.463237 -36.708669 
L 95.934183 -36.737801 
L 95.436118 -36.766933 
L 94.976998 -36.796065 
L 94.563992 -36.825196 
L 94.203294 -36.854328 
L 93.899969 -36.88346 
L 93.657846 -36.912592 
L 93.479457 -36.941724 
L 93.366024 -36.970856 
L 93.317472 -36.999987 
L 93.332491 -37.029119 
L 93.408612 -37.058251 
L 93.542319 -37.087383 
L 93.729183 -37.116515 
L 93.964007 -37.145647 
L 94.241001 -37.174778 
L 94.553963 -37.20391 
L 94.896473 -37.233042 
L 95.262086 -37.262174 
L 95.644519 -37.291306 
L 96.03782 -37.320438 
L 96.436507 -37.349569 
L 96.835671 -37.378701 
L 97.231026 -37.407833 
L 97.618916 -37.436965 
L 97.996275 -37.466097 
L 98.360544 -37.495229 
L 98.709559 -37.52436 
L 99.041436 -37.553492 
L 99.354453 -37.582624 
L 99.646964 -37.611756 
L 99.917349 -37.640888 
L 100.164011 -37.670019 
L 100.385427 -37.699151 
L 100.580252 -37.728283 
L 100.747447 -37.757415 
L 100.886444 -37.786547 
L 100.997303 -37.815679 
L 101.080845 -37.84481 
L 101.138748 -37.873942 
L 101.173582 -37.903074 
L 101.188764 -37.932206 
L 101.188449 -37.961338 
L 101.177337 -37.99047 
L 101.160424 -38.019601 
L 101.142708 -38.048733 
L 101.12888 -38.077865 
L 101.123008 -38.106997 
L 101.128273 -38.136129 
L 101.146745 -38.165261 
L 101.179247 -38.194392 
L 101.225307 -38.223524 
L 101.283202 -38.252656 
L 101.350104 -38.281788 
L 101.422304 -38.31092 
L 101.495509 -38.340052 
L 101.565179 -38.369183 
L 101.626888 -38.398315 
L 101.676676 -38.427447 
L 101.711365 -38.456579 
L 101.728824 -38.485711 
L 101.728151 -38.514843 
L 101.709771 -38.543974 
L 101.675434 -38.573106 
L 101.628122 -38.602238 
L 101.571865 -38.63137 
L 101.511489 -38.660502 
L 101.452303 -38.689634 
L 101.399759 -38.718765 
L 101.359109 -38.747897 
L 101.335074 -38.777029 
L 101.331561 -38.806161 
L 101.35144 -38.835293 
L 101.396395 -38.864425 
L 101.466857 -38.893556 
L 101.562028 -38.922688 
L 101.679975 -38.95182 
L 101.817795 -38.980952 
L 101.971832 -39.010084 
L 102.13792 -39.039216 
L 102.311646 -39.068347 
L 102.488599 -39.097479 
L 102.664591 -39.126611 
L 102.835852 -39.155743 
L 102.999166 -39.184875 
L 103.151961 -39.214007 
L 104.982955 -39.214007 
L 104.982955 -39.214007 
L 105.13575 -39.184875 
L 105.299064 -39.155743 
L 105.470325 -39.126611 
L 105.646317 -39.097479 
L 105.823269 -39.068347 
L 105.996996 -39.039216 
L 106.163084 -39.010084 
L 106.31712 -38.980952 
L 106.45494 -38.95182 
L 106.572887 -38.922688 
L 106.668058 -38.893556 
L 106.738521 -38.864425 
L 106.783475 -38.835293 
L 106.803355 -38.806161 
L 106.799842 -38.777029 
L 106.775807 -38.747897 
L 106.735157 -38.718765 
L 106.682613 -38.689634 
L 106.623426 -38.660502 
L 106.56305 -38.63137 
L 106.506794 -38.602238 
L 106.459482 -38.573106 
L 106.425145 -38.543974 
L 106.406764 -38.514843 
L 106.406092 -38.485711 
L 106.423551 -38.456579 
L 106.45824 -38.427447 
L 106.508028 -38.398315 
L 106.569737 -38.369183 
L 106.639407 -38.340052 
L 106.712612 -38.31092 
L 106.784812 -38.281788 
L 106.851714 -38.252656 
L 106.909609 -38.223524 
L 106.955668 -38.194392 
L 106.988171 -38.165261 
L 107.006643 -38.136129 
L 107.011908 -38.106997 
L 107.006036 -38.077865 
L 106.992207 -38.048733 
L 106.974492 -38.019601 
L 106.957579 -37.99047 
L 106.946466 -37.961338 
L 106.946151 -37.932206 
L 106.961334 -37.903074 
L 106.996167 -37.873942 
L 107.054071 -37.84481 
L 107.137613 -37.815679 
L 107.248472 -37.786547 
L 107.387469 -37.757415 
L 107.554664 -37.728283 
L 107.749488 -37.699151 
L 107.970905 -37.670019 
L 108.217567 -37.640888 
L 108.487952 -37.611756 
L 108.780463 -37.582624 
L 109.09348 -37.553492 
L 109.425357 -37.52436 
L 109.774372 -37.495229 
L 110.13864 -37.466097 
L 110.516 -37.436965 
L 110.90389 -37.407833 
L 111.299245 -37.378701 
L 111.698408 -37.349569 
L 112.097096 -37.320438 
L 112.490397 -37.291306 
L 112.87283 -37.262174 
L 113.238443 -37.233042 
L 113.580953 -37.20391 
L 113.893915 -37.174778 
L 114.170909 -37.145647 
L 114.405733 -37.116515 
L 114.592596 -37.087383 
L 114.726304 -37.058251 
L 114.802425 -37.029119 
L 114.817443 -36.999987 
L 114.768892 -36.970856 
L 114.655459 -36.941724 
L 114.47707 -36.912592 
L 114.234946 -36.88346 
L 113.931621 -36.854328 
L 113.570924 -36.825196 
L 113.157918 -36.796065 
L 112.698797 -36.766933 
L 112.200733 -36.737801 
L 111.671679 -36.708669 
L 111.120139 -36.679537 
L 110.554908 -36.650405 
L 109.984796 -36.621274 
L 109.418352 -36.592142 
L 108.863597 -36.56301 
L 108.327795 -36.533878 
L 107.817251 -36.504746 
L 107.337175 -36.475614 
L 106.891581 -36.446483 
L 106.483269 -36.417351 
L 106.113836 -36.388219 
L 105.783762 -36.359087 
L 105.492514 -36.329955 
z
" style="stroke: #6f6f6f; stroke-width: 0.15"/>
    </defs>
    <g clip-path="url(#pc27f805884)">
     <use xlink:href="#m055eda8d98" x="0" y="84.96" style="fill: #f2aba8; stroke: #6f6f6f; stroke-width: 0.15"/>
    </g>
   </g>
   <g id="PolyCollection_5">
    <defs>
     <path id="m349d154bb9" d="M 131.723676 -36.204645 
L 130.161168 -36.204645 
L 130.004789 -36.248772 
L 129.831714 -36.2929 
L 129.643168 -36.337028 
L 129.440825 -36.381155 
L 129.226659 -36.425283 
L 129.002733 -36.469411 
L 128.770962 -36.513538 
L 128.532854 -36.557666 
L 128.289267 -36.601794 
L 128.040218 -36.645921 
L 127.784767 -36.690049 
L 127.521001 -36.734177 
L 127.246134 -36.778304 
L 126.956724 -36.822432 
L 126.648991 -36.86656 
L 126.319216 -36.910687 
L 125.96419 -36.954815 
L 125.581667 -36.998943 
L 125.170787 -37.04307 
L 124.732435 -37.087198 
L 124.269497 -37.131326 
L 123.787003 -37.175453 
L 123.292144 -37.219581 
L 122.794149 -37.263709 
L 122.304048 -37.307836 
L 121.834311 -37.351964 
L 121.398387 -37.396092 
L 121.010165 -37.440219 
L 120.683361 -37.484347 
L 120.430875 -37.528475 
L 120.26413 -37.572602 
L 120.192436 -37.61673 
L 120.222421 -37.660858 
L 120.357556 -37.704985 
L 120.597831 -37.749113 
L 120.939605 -37.793241 
L 121.375662 -37.837369 
L 121.89548 -37.881496 
L 122.485699 -37.925624 
L 123.130778 -37.969752 
L 123.813772 -38.013879 
L 124.517192 -38.058007 
L 125.223871 -38.102135 
L 125.917771 -38.146262 
L 126.584674 -38.19039 
L 127.212713 -38.234518 
L 127.792705 -38.278645 
L 128.318296 -38.322773 
L 128.785899 -38.366901 
L 129.194487 -38.411028 
L 129.545244 -38.455156 
L 129.841147 -38.499284 
L 130.086495 -38.543411 
L 130.286454 -38.587539 
L 130.446631 -38.631667 
L 130.5727 -38.675794 
L 130.670113 -38.719922 
L 130.743876 -38.76405 
L 130.7984 -38.808177 
L 130.837416 -38.852305 
L 130.863945 -38.896433 
L 130.880297 -38.94056 
L 130.888106 -38.984688 
L 130.888376 -39.028816 
L 130.881546 -39.072943 
L 130.867548 -39.117071 
L 130.845887 -39.161199 
L 130.815719 -39.205326 
L 130.775947 -39.249454 
L 130.725327 -39.293582 
L 130.662597 -39.337709 
L 130.586621 -39.381837 
L 130.496541 -39.425965 
L 130.391946 -39.470092 
L 130.273031 -39.51422 
L 130.140734 -39.558348 
L 129.996848 -39.602475 
L 129.844067 -39.646603 
L 129.685977 -39.690731 
L 129.52697 -39.734858 
L 129.372068 -39.778986 
L 129.226687 -39.823114 
L 129.096332 -39.867241 
L 128.986257 -39.911369 
L 128.901118 -39.955497 
L 128.844642 -39.999625 
L 128.819363 -40.043752 
L 128.82643 -40.08788 
L 128.865521 -40.132008 
L 128.934867 -40.176135 
L 129.031386 -40.220263 
L 129.150908 -40.264391 
L 129.288476 -40.308518 
L 129.438683 -40.352646 
L 129.596025 -40.396774 
L 129.755222 -40.440901 
L 129.911503 -40.485029 
L 130.060816 -40.529157 
L 130.199959 -40.573284 
L 131.684885 -40.573284 
L 131.684885 -40.573284 
L 131.824028 -40.529157 
L 131.97334 -40.485029 
L 132.129622 -40.440901 
L 132.288819 -40.396774 
L 132.44616 -40.352646 
L 132.596368 -40.308518 
L 132.733936 -40.264391 
L 132.853458 -40.220263 
L 132.949977 -40.176135 
L 133.019323 -40.132008 
L 133.058414 -40.08788 
L 133.065481 -40.043752 
L 133.040202 -39.999625 
L 132.983726 -39.955497 
L 132.898586 -39.911369 
L 132.788512 -39.867241 
L 132.658157 -39.823114 
L 132.512776 -39.778986 
L 132.357874 -39.734858 
L 132.198866 -39.690731 
L 132.040777 -39.646603 
L 131.887996 -39.602475 
L 131.744109 -39.558348 
L 131.611813 -39.51422 
L 131.492898 -39.470092 
L 131.388303 -39.425965 
L 131.298223 -39.381837 
L 131.222246 -39.337709 
L 131.159517 -39.293582 
L 131.108897 -39.249454 
L 131.069125 -39.205326 
L 131.038957 -39.161199 
L 131.017295 -39.117071 
L 131.003298 -39.072943 
L 130.996467 -39.028816 
L 130.996738 -38.984688 
L 131.004547 -38.94056 
L 131.020898 -38.896433 
L 131.047427 -38.852305 
L 131.086444 -38.808177 
L 131.140968 -38.76405 
L 131.214731 -38.719922 
L 131.312144 -38.675794 
L 131.438213 -38.631667 
L 131.59839 -38.587539 
L 131.798349 -38.543411 
L 132.043697 -38.499284 
L 132.339599 -38.455156 
L 132.690357 -38.411028 
L 133.098945 -38.366901 
L 133.566548 -38.322773 
L 134.092138 -38.278645 
L 134.672131 -38.234518 
L 135.30017 -38.19039 
L 135.967073 -38.146262 
L 136.660973 -38.102135 
L 137.367652 -38.058007 
L 138.071072 -38.013879 
L 138.754065 -37.969752 
L 139.399144 -37.925624 
L 139.989364 -37.881496 
L 140.509181 -37.837369 
L 140.945239 -37.793241 
L 141.287013 -37.749113 
L 141.527288 -37.704985 
L 141.662423 -37.660858 
L 141.692407 -37.61673 
L 141.620714 -37.572602 
L 141.453968 -37.528475 
L 141.201483 -37.484347 
L 140.874679 -37.440219 
L 140.486457 -37.396092 
L 140.050533 -37.351964 
L 139.580796 -37.307836 
L 139.090695 -37.263709 
L 138.5927 -37.219581 
L 138.097841 -37.175453 
L 137.615347 -37.131326 
L 137.152409 -37.087198 
L 136.714057 -37.04307 
L 136.303177 -36.998943 
L 135.920654 -36.954815 
L 135.565628 -36.910687 
L 135.235853 -36.86656 
L 134.92812 -36.822432 
L 134.63871 -36.778304 
L 134.363843 -36.734177 
L 134.100077 -36.690049 
L 133.844626 -36.645921 
L 133.595577 -36.601794 
L 133.35199 -36.557666 
L 133.113882 -36.513538 
L 132.882111 -36.469411 
L 132.658185 -36.425283 
L 132.444018 -36.381155 
L 132.241676 -36.337028 
L 132.05313 -36.2929 
L 131.880055 -36.248772 
L 131.723676 -36.204645 
z
" style="stroke: #6f6f6f; stroke-width: 0.15"/>
    </defs>
    <g clip-path="url(#pc27f805884)">
     <use xlink:href="#m349d154bb9" x="0" y="84.96" style="fill: #d3c4f6; stroke: #6f6f6f; stroke-width: 0.15"/>
    </g>
   </g>
   <g id="PolyCollection_6">
    <defs>
     <path id="mcb8cbc373a" d="M 159.11822 -33.997408 
L 156.516552 -33.997408 
L 156.265643 -34.258929 
L 155.98623 -34.520449 
L 155.679265 -34.781969 
L 155.346537 -35.04349 
L 154.990648 -35.30501 
L 154.614928 -35.566531 
L 154.223301 -35.828051 
L 153.820088 -36.089571 
L 153.409782 -36.351092 
L 152.996797 -36.612612 
L 152.585218 -36.874133 
L 152.178569 -37.135653 
L 151.779634 -37.397173 
L 151.390342 -37.658694 
L 151.011745 -37.920214 
L 150.644079 -38.181734 
L 150.286939 -38.443255 
L 149.939529 -38.704775 
L 149.600995 -38.966296 
L 149.270791 -39.227816 
L 148.949056 -39.489336 
L 148.636965 -39.750857 
L 148.336998 -40.012377 
L 148.053106 -40.273898 
L 147.790735 -40.535418 
L 147.556697 -40.796938 
L 147.358871 -41.058459 
L 147.205764 -41.319979 
L 147.105946 -41.581499 
L 147.0674 -41.84302 
L 147.096847 -42.10454 
L 147.199092 -42.366061 
L 147.376461 -42.627581 
L 147.628364 -42.889101 
L 147.951038 -43.150622 
L 148.337497 -43.412142 
L 148.777685 -43.673663 
L 149.258845 -43.935183 
L 149.766066 -44.196703 
L 150.282981 -44.458224 
L 150.792566 -44.719744 
L 151.277985 -44.981264 
L 151.723446 -45.242785 
L 152.114994 -45.504305 
L 152.441215 -45.765826 
L 152.693812 -46.027346 
L 152.86801 -46.288866 
L 152.962792 -46.550387 
L 152.980936 -46.811907 
L 152.928864 -47.073428 
L 152.816302 -47.334948 
L 152.655767 -47.596468 
L 152.461913 -47.857989 
L 152.250754 -48.119509 
L 152.038814 -48.381029 
L 151.84225 -48.64255 
L 151.675991 -48.90407 
L 151.552949 -49.165591 
L 151.483348 -49.427111 
L 151.474221 -49.688631 
L 151.52909 -49.950152 
L 151.647868 -50.211672 
L 151.826974 -50.473193 
L 152.059651 -50.734713 
L 152.336471 -50.996233 
L 152.645967 -51.257754 
L 152.975375 -51.519274 
L 153.311407 -51.780794 
L 153.641025 -52.042315 
L 153.95215 -52.303835 
L 154.23429 -52.565356 
L 154.479026 -52.826876 
L 154.680373 -53.088396 
L 154.834968 -53.349917 
L 154.942112 -53.611437 
L 155.003673 -53.872957 
L 155.023841 -54.134478 
L 155.008791 -54.395998 
L 154.966246 -54.657519 
L 154.904983 -54.919039 
L 154.834314 -55.180559 
L 154.763553 -55.44208 
L 154.701519 -55.7036 
L 154.656079 -55.965121 
L 154.633777 -56.226641 
L 154.639551 -56.488161 
L 154.676558 -56.749682 
L 154.746116 -57.011202 
L 154.847754 -57.272722 
L 154.979364 -57.534243 
L 155.13745 -57.795763 
L 155.317428 -58.057284 
L 155.513974 -58.318804 
L 155.721386 -58.580324 
L 155.933929 -58.841845 
L 156.146145 -59.103365 
L 156.353108 -59.364886 
L 156.550624 -59.626406 
L 156.735343 -59.887926 
L 158.899429 -59.887926 
L 158.899429 -59.887926 
L 159.084148 -59.626406 
L 159.281663 -59.364886 
L 159.488627 -59.103365 
L 159.700843 -58.841845 
L 159.913386 -58.580324 
L 160.120798 -58.318804 
L 160.317344 -58.057284 
L 160.497322 -57.795763 
L 160.655407 -57.534243 
L 160.787018 -57.272722 
L 160.888655 -57.011202 
L 160.958214 -56.749682 
L 160.995221 -56.488161 
L 161.000995 -56.226641 
L 160.978693 -55.965121 
L 160.933253 -55.7036 
L 160.871218 -55.44208 
L 160.800458 -55.180559 
L 160.729789 -54.919039 
L 160.668526 -54.657519 
L 160.62598 -54.395998 
L 160.610931 -54.134478 
L 160.631099 -53.872957 
L 160.69266 -53.611437 
L 160.799804 -53.349917 
L 160.954398 -53.088396 
L 161.155745 -52.826876 
L 161.400482 -52.565356 
L 161.682622 -52.303835 
L 161.993747 -52.042315 
L 162.323365 -51.780794 
L 162.659397 -51.519274 
L 162.988805 -51.257754 
L 163.298301 -50.996233 
L 163.57512 -50.734713 
L 163.807798 -50.473193 
L 163.986904 -50.211672 
L 164.105682 -49.950152 
L 164.160551 -49.688631 
L 164.151423 -49.427111 
L 164.081823 -49.165591 
L 163.958781 -48.90407 
L 163.792522 -48.64255 
L 163.595958 -48.381029 
L 163.384018 -48.119509 
L 163.172858 -47.857989 
L 162.979004 -47.596468 
L 162.81847 -47.334948 
L 162.705908 -47.073428 
L 162.653836 -46.811907 
L 162.67198 -46.550387 
L 162.766762 -46.288866 
L 162.94096 -46.027346 
L 163.193557 -45.765826 
L 163.519778 -45.504305 
L 163.911326 -45.242785 
L 164.356787 -44.981264 
L 164.842206 -44.719744 
L 165.35179 -44.458224 
L 165.868706 -44.196703 
L 166.375927 -43.935183 
L 166.857087 -43.673663 
L 167.297275 -43.412142 
L 167.683734 -43.150622 
L 168.006408 -42.889101 
L 168.258311 -42.627581 
L 168.43568 -42.366061 
L 168.537925 -42.10454 
L 168.567372 -41.84302 
L 168.528826 -41.581499 
L 168.429008 -41.319979 
L 168.275901 -41.058459 
L 168.078075 -40.796938 
L 167.844037 -40.535418 
L 167.581666 -40.273898 
L 167.297774 -40.012377 
L 166.997807 -39.750857 
L 166.685716 -39.489336 
L 166.363981 -39.227816 
L 166.033776 -38.966296 
L 165.695243 -38.704775 
L 165.347833 -38.443255 
L 164.990693 -38.181734 
L 164.623027 -37.920214 
L 164.244429 -37.658694 
L 163.855138 -37.397173 
L 163.456203 -37.135653 
L 163.049554 -36.874133 
L 162.637975 -36.612612 
L 162.22499 -36.351092 
L 161.814684 -36.089571 
L 161.411471 -35.828051 
L 161.019843 -35.566531 
L 160.644124 -35.30501 
L 160.288235 -35.04349 
L 159.955507 -34.781969 
L 159.648542 -34.520449 
L 159.369129 -34.258929 
L 159.11822 -33.997408 
z
" style="stroke: #6f6f6f; stroke-width: 0.15"/>
    </defs>
    <g clip-path="url(#pc27f805884)">
     <use xlink:href="#mcb8cbc373a" x="0" y="84.96" style="fill: #d6bba3; stroke: #6f6f6f; stroke-width: 0.15"/>
    </g>
   </g>
   <g id="PolyCollection_7">
    <defs>
     <path id="mcd1e46d5e0" d="M 186.348098 -35.884178 
L 183.036602 -35.884178 
L 182.732261 -36.086024 
L 182.393844 -36.28787 
L 182.022055 -36.489716 
L 181.61854 -36.691562 
L 181.185921 -36.893408 
L 180.727793 -37.095254 
L 180.248658 -37.2971 
L 179.753822 -37.498946 
L 179.249241 -37.700792 
L 178.741323 -37.902638 
L 178.236703 -38.104484 
L 177.742008 -38.30633 
L 177.263604 -38.508176 
L 176.807367 -38.710022 
L 176.378475 -38.911869 
L 175.981239 -39.113715 
L 175.618981 -39.315561 
L 175.293967 -39.517407 
L 175.007392 -39.719253 
L 174.759423 -39.921099 
L 174.549284 -40.122945 
L 174.375383 -40.324791 
L 174.235469 -40.526637 
L 174.126799 -40.728483 
L 174.046323 -40.930329 
L 173.990846 -41.132175 
L 173.957198 -41.334021 
L 173.942364 -41.535867 
L 173.943607 -41.737713 
L 173.958553 -41.93956 
L 173.985263 -42.141406 
L 174.022267 -42.343252 
L 174.068597 -42.545098 
L 174.123781 -42.746944 
L 174.187838 -42.94879 
L 174.261253 -43.150636 
L 174.344939 -43.352482 
L 174.440189 -43.554328 
L 174.548618 -43.756174 
L 174.672083 -43.95802 
L 174.812601 -44.159866 
L 174.972241 -44.361712 
L 175.153013 -44.563558 
L 175.356737 -44.765404 
L 175.58491 -44.96725 
L 175.838569 -45.169097 
L 176.118155 -45.370943 
L 176.423392 -45.572789 
L 176.753183 -45.774635 
L 177.105531 -45.976481 
L 177.477497 -46.178327 
L 177.865196 -46.380173 
L 178.26383 -46.582019 
L 178.667771 -46.783865 
L 179.070681 -46.985711 
L 179.465673 -47.187557 
L 179.845503 -47.389403 
L 180.202791 -47.591249 
L 180.530251 -47.793095 
L 180.820942 -47.994941 
L 181.068505 -48.196787 
L 181.267405 -48.398634 
L 181.413141 -48.60048 
L 181.502449 -48.802326 
L 181.533459 -49.004172 
L 181.505825 -49.206018 
L 181.420808 -49.407864 
L 181.281315 -49.60971 
L 181.091885 -49.811556 
L 180.858622 -50.013402 
L 180.589064 -50.215248 
L 180.292007 -50.417094 
L 179.97726 -50.61894 
L 179.655362 -50.820786 
L 179.337246 -51.022632 
L 179.033879 -51.224478 
L 178.755883 -51.426325 
L 178.513154 -51.628171 
L 178.314498 -51.830017 
L 178.16731 -52.031863 
L 178.077296 -52.233709 
L 178.048277 -52.435555 
L 178.082067 -52.637401 
L 178.178437 -52.839247 
L 178.335182 -53.041093 
L 178.54826 -53.242939 
L 178.812019 -53.444785 
L 179.119491 -53.646631 
L 179.462719 -53.848477 
L 179.83313 -54.050323 
L 180.221898 -54.252169 
L 180.620301 -54.454015 
L 181.020048 -54.655862 
L 181.41355 -54.857708 
L 181.794141 -55.059554 
L 182.156231 -55.2614 
L 182.495396 -55.463246 
L 182.808396 -55.665092 
L 183.093146 -55.866938 
L 186.291554 -55.866938 
L 186.291554 -55.866938 
L 186.576304 -55.665092 
L 186.889304 -55.463246 
L 187.228469 -55.2614 
L 187.590559 -55.059554 
L 187.97115 -54.857708 
L 188.364652 -54.655862 
L 188.764398 -54.454015 
L 189.162802 -54.252169 
L 189.55157 -54.050323 
L 189.921981 -53.848477 
L 190.265209 -53.646631 
L 190.572681 -53.444785 
L 190.83644 -53.242939 
L 191.049518 -53.041093 
L 191.206262 -52.839247 
L 191.302633 -52.637401 
L 191.336423 -52.435555 
L 191.307404 -52.233709 
L 191.21739 -52.031863 
L 191.070202 -51.830017 
L 190.871546 -51.628171 
L 190.628817 -51.426325 
L 190.350821 -51.224478 
L 190.047454 -51.022632 
L 189.729338 -50.820786 
L 189.40744 -50.61894 
L 189.092693 -50.417094 
L 188.795635 -50.215248 
L 188.526078 -50.013402 
L 188.292815 -49.811556 
L 188.103385 -49.60971 
L 187.963892 -49.407864 
L 187.878875 -49.206018 
L 187.851241 -49.004172 
L 187.882251 -48.802326 
L 187.971559 -48.60048 
L 188.117295 -48.398634 
L 188.316195 -48.196787 
L 188.563758 -47.994941 
L 188.854449 -47.793095 
L 189.181909 -47.591249 
L 189.539196 -47.389403 
L 189.919027 -47.187557 
L 190.314019 -46.985711 
L 190.716929 -46.783865 
L 191.12087 -46.582019 
L 191.519504 -46.380173 
L 191.907203 -46.178327 
L 192.279169 -45.976481 
L 192.631517 -45.774635 
L 192.961308 -45.572789 
L 193.266545 -45.370943 
L 193.546131 -45.169097 
L 193.79979 -44.96725 
L 194.027963 -44.765404 
L 194.231687 -44.563558 
L 194.412459 -44.361712 
L 194.572099 -44.159866 
L 194.712617 -43.95802 
L 194.836082 -43.756174 
L 194.944511 -43.554328 
L 195.039761 -43.352482 
L 195.123447 -43.150636 
L 195.196862 -42.94879 
L 195.260919 -42.746944 
L 195.316103 -42.545098 
L 195.362432 -42.343252 
L 195.399437 -42.141406 
L 195.426146 -41.93956 
L 195.441093 -41.737713 
L 195.442336 -41.535867 
L 195.427502 -41.334021 
L 195.393853 -41.132175 
L 195.338377 -40.930329 
L 195.2579 -40.728483 
L 195.149231 -40.526637 
L 195.009317 -40.324791 
L 194.835416 -40.122945 
L 194.625277 -39.921099 
L 194.377308 -39.719253 
L 194.090733 -39.517407 
L 193.765719 -39.315561 
L 193.403461 -39.113715 
L 193.006225 -38.911869 
L 192.577333 -38.710022 
L 192.121096 -38.508176 
L 191.642691 -38.30633 
L 191.147996 -38.104484 
L 190.643377 -37.902638 
L 190.135459 -37.700792 
L 189.630878 -37.498946 
L 189.136042 -37.2971 
L 188.656907 -37.095254 
L 188.198778 -36.893408 
L 187.76616 -36.691562 
L 187.362644 -36.489716 
L 186.990856 -36.28787 
L 186.652439 -36.086024 
L 186.348098 -35.884178 
z
" style="stroke: #6f6f6f; stroke-width: 0.15"/>
    </defs>
    <g clip-path="url(#pc27f805884)">
     <use xlink:href="#mcd1e46d5e0" x="0" y="84.96" style="fill: #f1b9e0; stroke: #6f6f6f; stroke-width: 0.15"/>
    </g>
   </g>
   <g id="PolyCollection_8">
    <defs>
     <path id="me48fa20627" d="M 213.487877 -36.114823 
L 209.646751 -36.114823 
L 209.256594 -36.165752 
L 208.818178 -36.216682 
L 208.332834 -36.267612 
L 207.803697 -36.318542 
L 207.235823 -36.369471 
L 206.636209 -36.420401 
L 206.013686 -36.471331 
L 205.378703 -36.522261 
L 204.742978 -36.57319 
L 204.119054 -36.62412 
L 203.51976 -36.67505 
L 202.957644 -36.72598 
L 202.444384 -36.776909 
L 201.990251 -36.827839 
L 201.60365 -36.878769 
L 201.290784 -36.929699 
L 201.05546 -36.980628 
L 200.899061 -37.031558 
L 200.820669 -37.082488 
L 200.817328 -37.133418 
L 200.884421 -37.184347 
L 201.016103 -37.235277 
L 201.205763 -37.286207 
L 201.446457 -37.337137 
L 201.731277 -37.388066 
L 202.053619 -37.438996 
L 202.407351 -37.489926 
L 202.786853 -37.540856 
L 203.186973 -37.591785 
L 203.602895 -37.642715 
L 204.029972 -37.693645 
L 204.463556 -37.744575 
L 204.898851 -37.795504 
L 205.330836 -37.846434 
L 205.754253 -37.897364 
L 206.163695 -37.948294 
L 206.553769 -37.999223 
L 206.919328 -38.050153 
L 207.255745 -38.101083 
L 207.5592 -38.152013 
L 207.826944 -38.202942 
L 208.057523 -38.253872 
L 208.250914 -38.304802 
L 208.408577 -38.355732 
L 208.533402 -38.406661 
L 208.62956 -38.457591 
L 208.702261 -38.508521 
L 208.757441 -38.559451 
L 208.801405 -38.61038 
L 208.840452 -38.66131 
L 208.880502 -38.71224 
L 208.926768 -38.76317 
L 208.983477 -38.814099 
L 209.05368 -38.865029 
L 209.139128 -38.915959 
L 209.240253 -38.966888 
L 209.356218 -39.017818 
L 209.485047 -39.068748 
L 209.623807 -39.119678 
L 209.768828 -39.170607 
L 209.915949 -39.221537 
L 210.060754 -39.272467 
L 210.198803 -39.323397 
L 210.325838 -39.374326 
L 210.437951 -39.425256 
L 210.531726 -39.476186 
L 210.604338 -39.527116 
L 210.653633 -39.578045 
L 210.678173 -39.628975 
L 210.67727 -39.679905 
L 210.651002 -39.730835 
L 210.60022 -39.781764 
L 210.526541 -39.832694 
L 210.432328 -39.883624 
L 210.320655 -39.934554 
L 210.19525 -39.985483 
L 210.060405 -40.036413 
L 209.920863 -40.087343 
L 209.781667 -40.138273 
L 209.647989 -40.189202 
L 209.524921 -40.240132 
L 209.417269 -40.291062 
L 209.329333 -40.341992 
L 209.264707 -40.392921 
L 209.22611 -40.443851 
L 209.215249 -40.494781 
L 209.23275 -40.545711 
L 209.278138 -40.59664 
L 209.349884 -40.64757 
L 209.445511 -40.6985 
L 209.561754 -40.74943 
L 209.694753 -40.800359 
L 209.840275 -40.851289 
L 209.993942 -40.902219 
L 210.151447 -40.953149 
L 210.308755 -41.004078 
L 210.462258 -41.055008 
L 210.608898 -41.105938 
L 210.74624 -41.156868 
L 212.388388 -41.156868 
L 212.388388 -41.156868 
L 212.525729 -41.105938 
L 212.67237 -41.055008 
L 212.825873 -41.004078 
L 212.983181 -40.953149 
L 213.140686 -40.902219 
L 213.294353 -40.851289 
L 213.439875 -40.800359 
L 213.572874 -40.74943 
L 213.689117 -40.6985 
L 213.784744 -40.64757 
L 213.85649 -40.59664 
L 213.901877 -40.545711 
L 213.919379 -40.494781 
L 213.908518 -40.443851 
L 213.86992 -40.392921 
L 213.805295 -40.341992 
L 213.717359 -40.291062 
L 213.609707 -40.240132 
L 213.486639 -40.189202 
L 213.352961 -40.138273 
L 213.213765 -40.087343 
L 213.074223 -40.036413 
L 212.939377 -39.985483 
L 212.813972 -39.934554 
L 212.7023 -39.883624 
L 212.608087 -39.832694 
L 212.534408 -39.781764 
L 212.483626 -39.730835 
L 212.457358 -39.679905 
L 212.456455 -39.628975 
L 212.480995 -39.578045 
L 212.53029 -39.527116 
L 212.602902 -39.476186 
L 212.696677 -39.425256 
L 212.80879 -39.374326 
L 212.935825 -39.323397 
L 213.073874 -39.272467 
L 213.218679 -39.221537 
L 213.3658 -39.170607 
L 213.510821 -39.119678 
L 213.649581 -39.068748 
L 213.77841 -39.017818 
L 213.894375 -38.966888 
L 213.9955 -38.915959 
L 214.080948 -38.865029 
L 214.151151 -38.814099 
L 214.20786 -38.76317 
L 214.254125 -38.71224 
L 214.294175 -38.66131 
L 214.333223 -38.61038 
L 214.377187 -38.559451 
L 214.432367 -38.508521 
L 214.505068 -38.457591 
L 214.601226 -38.406661 
L 214.726051 -38.355732 
L 214.883713 -38.304802 
L 215.077104 -38.253872 
L 215.307684 -38.202942 
L 215.575428 -38.152013 
L 215.878883 -38.101083 
L 216.2153 -38.050153 
L 216.580859 -37.999223 
L 216.970933 -37.948294 
L 217.380375 -37.897364 
L 217.803792 -37.846434 
L 218.235777 -37.795504 
L 218.671072 -37.744575 
L 219.104656 -37.693645 
L 219.531733 -37.642715 
L 219.947654 -37.591785 
L 220.347774 -37.540856 
L 220.727277 -37.489926 
L 221.081009 -37.438996 
L 221.403351 -37.388066 
L 221.688171 -37.337137 
L 221.928865 -37.286207 
L 222.118525 -37.235277 
L 222.250207 -37.184347 
L 222.3173 -37.133418 
L 222.313959 -37.082488 
L 222.235567 -37.031558 
L 222.079168 -36.980628 
L 221.843844 -36.929699 
L 221.530978 -36.878769 
L 221.144377 -36.827839 
L 220.690244 -36.776909 
L 220.176984 -36.72598 
L 219.614868 -36.67505 
L 219.015574 -36.62412 
L 218.39165 -36.57319 
L 217.755925 -36.522261 
L 217.120942 -36.471331 
L 216.498419 -36.420401 
L 215.898804 -36.369471 
L 215.330931 -36.318542 
L 214.801794 -36.267612 
L 214.31645 -36.216682 
L 213.878034 -36.165752 
L 213.487877 -36.114823 
z
" style="stroke: #6f6f6f; stroke-width: 0.15"/>
    </defs>
    <g clip-path="url(#pc27f805884)">
     <use xlink:href="#me48fa20627" x="0" y="84.96" style="fill: #cfcfcf; stroke: #6f6f6f; stroke-width: 0.15"/>
    </g>
   </g>
   <g id="PolyCollection_9">
    <defs>
     <path id="m23838e9fdf" d="M 240.388795 -36.643644 
L 236.495761 -36.643644 
L 236.186656 -36.894299 
L 235.852683 -37.144953 
L 235.496347 -37.395607 
L 235.120909 -37.646261 
L 234.73029 -37.896915 
L 234.328931 -38.14757 
L 233.921604 -38.398224 
L 233.513196 -38.648878 
L 233.108467 -38.899532 
L 232.711811 -39.150186 
L 232.327034 -39.400841 
L 231.957161 -39.651495 
L 231.604308 -39.902149 
L 231.269607 -40.152803 
L 230.953219 -40.403458 
L 230.654416 -40.654112 
L 230.371746 -40.904766 
L 230.103261 -41.15542 
L 229.846787 -41.406074 
L 229.600227 -41.656729 
L 229.361863 -41.907383 
L 229.13064 -42.158037 
L 228.906397 -42.408691 
L 228.690041 -42.659345 
L 228.483629 -42.91 
L 228.29037 -43.160654 
L 228.114534 -43.411308 
L 227.96127 -43.661962 
L 227.836358 -43.912617 
L 227.7459 -44.163271 
L 227.695977 -44.413925 
L 227.692292 -44.664579 
L 227.739828 -44.915233 
L 227.84253 -45.165888 
L 228.003048 -45.416542 
L 228.22254 -45.667196 
L 228.500553 -45.91785 
L 228.834989 -46.168505 
L 229.222147 -46.419159 
L 229.656848 -46.669813 
L 230.132626 -46.920467 
L 230.641967 -47.171121 
L 231.1766 -47.421776 
L 231.727799 -47.67243 
L 232.286691 -47.923084 
L 232.844563 -48.173738 
L 233.393125 -48.424392 
L 233.924742 -48.675047 
L 234.432621 -48.925701 
L 234.910928 -49.176355 
L 235.354863 -49.427009 
L 235.760663 -49.677664 
L 236.125573 -49.928318 
L 236.44775 -50.178972 
L 236.726158 -50.429626 
L 236.960425 -50.68028 
L 237.150698 -50.930935 
L 237.297503 -51.181589 
L 237.401615 -51.432243 
L 237.463958 -51.682897 
L 237.485533 -51.933551 
L 237.467386 -52.184206 
L 237.410609 -52.43486 
L 237.316385 -52.685514 
L 237.186058 -52.936168 
L 237.021235 -53.186823 
L 236.823897 -53.437477 
L 236.596524 -53.688131 
L 236.342196 -53.938785 
L 236.06469 -54.189439 
L 235.768536 -54.440094 
L 235.459025 -54.690748 
L 235.142179 -54.941402 
L 234.824654 -55.192056 
L 234.513595 -55.442711 
L 234.216438 -55.693365 
L 233.940668 -55.944019 
L 233.693551 -56.194673 
L 233.481847 -56.445327 
L 233.31153 -56.695982 
L 233.187525 -56.946636 
L 233.113486 -57.19729 
L 233.091626 -57.447944 
L 233.122621 -57.698598 
L 233.205573 -57.949253 
L 233.338063 -58.199907 
L 233.516265 -58.450561 
L 233.735139 -58.701215 
L 233.988663 -58.95187 
L 234.270108 -59.202524 
L 234.572337 -59.453178 
L 234.888103 -59.703832 
L 235.210327 -59.954486 
L 235.532357 -60.205141 
L 235.848174 -60.455795 
L 236.152558 -60.706449 
L 236.441196 -60.957103 
L 236.710733 -61.207757 
L 236.958776 -61.458412 
L 239.925779 -61.458412 
L 239.925779 -61.458412 
L 240.173823 -61.207757 
L 240.44336 -60.957103 
L 240.731998 -60.706449 
L 241.036382 -60.455795 
L 241.352199 -60.205141 
L 241.674229 -59.954486 
L 241.996453 -59.703832 
L 242.312219 -59.453178 
L 242.614448 -59.202524 
L 242.895893 -58.95187 
L 243.149416 -58.701215 
L 243.368291 -58.450561 
L 243.546493 -58.199907 
L 243.678983 -57.949253 
L 243.761935 -57.698598 
L 243.79293 -57.447944 
L 243.77107 -57.19729 
L 243.697031 -56.946636 
L 243.573025 -56.695982 
L 243.402709 -56.445327 
L 243.191005 -56.194673 
L 242.943888 -55.944019 
L 242.668118 -55.693365 
L 242.370961 -55.442711 
L 242.059902 -55.192056 
L 241.742377 -54.941402 
L 241.425531 -54.690748 
L 241.11602 -54.440094 
L 240.819866 -54.189439 
L 240.54236 -53.938785 
L 240.288032 -53.688131 
L 240.060659 -53.437477 
L 239.863321 -53.186823 
L 239.698498 -52.936168 
L 239.568171 -52.685514 
L 239.473947 -52.43486 
L 239.41717 -52.184206 
L 239.399023 -51.933551 
L 239.420598 -51.682897 
L 239.482941 -51.432243 
L 239.587053 -51.181589 
L 239.733858 -50.930935 
L 239.924131 -50.68028 
L 240.158398 -50.429626 
L 240.436806 -50.178972 
L 240.758983 -49.928318 
L 241.123892 -49.677664 
L 241.529693 -49.427009 
L 241.973628 -49.176355 
L 242.451935 -48.925701 
L 242.959814 -48.675047 
L 243.491431 -48.424392 
L 244.039993 -48.173738 
L 244.597865 -47.923084 
L 245.156757 -47.67243 
L 245.707956 -47.421776 
L 246.242589 -47.171121 
L 246.75193 -46.920467 
L 247.227708 -46.669813 
L 247.662409 -46.419159 
L 248.049567 -46.168505 
L 248.384003 -45.91785 
L 248.662016 -45.667196 
L 248.881508 -45.416542 
L 249.042026 -45.165888 
L 249.144728 -44.915233 
L 249.192264 -44.664579 
L 249.188579 -44.413925 
L 249.138656 -44.163271 
L 249.048198 -43.912617 
L 248.923286 -43.661962 
L 248.770022 -43.411308 
L 248.594186 -43.160654 
L 248.400927 -42.91 
L 248.194515 -42.659345 
L 247.978159 -42.408691 
L 247.753916 -42.158037 
L 247.522693 -41.907383 
L 247.284329 -41.656729 
L 247.037769 -41.406074 
L 246.781295 -41.15542 
L 246.51281 -40.904766 
L 246.23014 -40.654112 
L 245.931337 -40.403458 
L 245.614948 -40.152803 
L 245.280248 -39.902149 
L 244.927395 -39.651495 
L 244.557522 -39.400841 
L 244.172745 -39.150186 
L 243.776089 -38.899532 
L 243.37136 -38.648878 
L 242.962952 -38.398224 
L 242.555625 -38.14757 
L 242.154266 -37.896915 
L 241.763647 -37.646261 
L 241.388209 -37.395607 
L 241.031873 -37.144953 
L 240.6979 -36.894299 
L 240.388795 -36.643644 
z
" style="stroke: #6f6f6f; stroke-width: 0.15"/>
    </defs>
    <g clip-path="url(#pc27f805884)">
     <use xlink:href="#m23838e9fdf" x="0" y="84.96" style="fill: #f3f3ae; stroke: #6f6f6f; stroke-width: 0.15"/>
    </g>
   </g>
   <g id="line2d_8">
    <path d="M 23.442566 47.450292 
L 23.442566 41.451333 
" clip-path="url(#pc27f805884)" style="fill: none; stroke: #8c8c8c; stroke-width: 0.75; stroke-linecap: round"/>
   </g>
   <g id="line2d_9">
    <path d="M 23.442566 45.955759 
L 23.442566 43.687927 
" clip-path="url(#pc27f805884)" style="fill: none; stroke: #8c8c8c; stroke-width: 4; stroke-linecap: round"/>
   </g>
   <g id="line2d_10">
    <path d="M 23.442566 45.495159 
" clip-path="url(#pc27f805884)" style="fill: none; stroke: #6f6f6f; stroke-width: 1.2; stroke-linecap: round"/>
    <defs>
     <path id="m653b84fc75" d="M 0 0.833333 
C 0.221003 0.833333 0.432983 0.745528 0.589256 0.589256 
C 0.745528 0.432983 0.833333 0.221003 0.833333 0 
C 0.833333 -0.221003 0.745528 -0.432983 0.589256 -0.589256 
C 0.432983 -0.745528 0.221003 -0.833333 0 -0.833333 
C -0.221003 -0.833333 -0.432983 -0.745528 -0.589256 -0.589256 
C -0.745528 -0.432983 -0.833333 -0.221003 -0.833333 0 
C -0.833333 0.221003 -0.745528 0.432983 -0.589256 0.589256 
C -0.432983 0.745528 -0.221003 0.833333 0 0.833333 
z
" style="stroke: #ffffff; stroke-width: 0.8"/>
    </defs>
    <g clip-path="url(#pc27f805884)">
     <use xlink:href="#m653b84fc75" x="23.442566" y="45.495159" style="fill: #ffffff; stroke: #ffffff; stroke-width: 0.8"/>
    </g>
   </g>
   <g id="line2d_11">
    <path d="M 50.31753 47.039911 
L 50.31753 30.209458 
" clip-path="url(#pc27f805884)" style="fill: none; stroke: #8c8c8c; stroke-width: 0.75; stroke-linecap: round"/>
   </g>
   <g id="line2d_12">
    <path d="M 50.31753 41.626171 
L 50.31753 36.312993 
" clip-path="url(#pc27f805884)" style="fill: none; stroke: #8c8c8c; stroke-width: 4; stroke-linecap: round"/>
   </g>
   <g id="line2d_13">
    <path d="M 50.31753 38.500437 
" clip-path="url(#pc27f805884)" style="fill: none; stroke: #6f6f6f; stroke-width: 1.2; stroke-linecap: round"/>
    <g clip-path="url(#pc27f805884)">
     <use xlink:href="#m653b84fc75" x="50.31753" y="38.500437" style="fill: #ffffff; stroke: #ffffff; stroke-width: 0.8"/>
    </g>
   </g>
   <g id="line2d_14">
    <path d="M 77.192494 46.646024 
L 77.192494 27.263695 
" clip-path="url(#pc27f805884)" style="fill: none; stroke: #8c8c8c; stroke-width: 0.75; stroke-linecap: round"/>
   </g>
   <g id="line2d_15">
    <path d="M 77.192494 38.742635 
L 77.192494 32.439217 
" clip-path="url(#pc27f805884)" style="fill: none; stroke: #8c8c8c; stroke-width: 4; stroke-linecap: round"/>
   </g>
   <g id="line2d_16">
    <path d="M 77.192494 36.766688 
" clip-path="url(#pc27f805884)" style="fill: none; stroke: #6f6f6f; stroke-width: 1.2; stroke-linecap: round"/>
    <g clip-path="url(#pc27f805884)">
     <use xlink:href="#m653b84fc75" x="77.192494" y="36.766688" style="fill: #ffffff; stroke: #ffffff; stroke-width: 0.8"/>
    </g>
   </g>
   <g id="line2d_17">
    <path d="M 104.067458 48.24754 
L 104.067458 46.128498 
" clip-path="url(#pc27f805884)" style="fill: none; stroke: #8c8c8c; stroke-width: 0.75; stroke-linecap: round"/>
   </g>
   <g id="line2d_18">
    <path d="M 104.067458 48.038288 
L 104.067458 47.248449 
" clip-path="url(#pc27f805884)" style="fill: none; stroke: #8c8c8c; stroke-width: 4; stroke-linecap: round"/>
   </g>
   <g id="line2d_19">
    <path d="M 104.067458 47.778541 
" clip-path="url(#pc27f805884)" style="fill: none; stroke: #6f6f6f; stroke-width: 1.2; stroke-linecap: round"/>
    <g clip-path="url(#pc27f805884)">
     <use xlink:href="#m653b84fc75" x="104.067458" y="47.778541" style="fill: #ffffff; stroke: #ffffff; stroke-width: 0.8"/>
    </g>
   </g>
   <g id="line2d_20">
    <path d="M 130.942422 48.238278 
L 130.942422 47.099618 
" clip-path="url(#pc27f805884)" style="fill: none; stroke: #8c8c8c; stroke-width: 0.75; stroke-linecap: round"/>
   </g>
   <g id="line2d_21">
    <path d="M 130.942422 47.580369 
L 130.942422 47.128616 
" clip-path="url(#pc27f805884)" style="fill: none; stroke: #8c8c8c; stroke-width: 4; stroke-linecap: round"/>
   </g>
   <g id="line2d_22">
    <path d="M 130.942422 47.298753 
" clip-path="url(#pc27f805884)" style="fill: none; stroke: #6f6f6f; stroke-width: 1.2; stroke-linecap: round"/>
    <g clip-path="url(#pc27f805884)">
     <use xlink:href="#m653b84fc75" x="130.942422" y="47.298753" style="fill: #ffffff; stroke: #ffffff; stroke-width: 0.8"/>
    </g>
   </g>
   <g id="line2d_23">
    <path d="M 157.817386 47.60697 
L 157.817386 28.427695 
" clip-path="url(#pc27f805884)" style="fill: none; stroke: #8c8c8c; stroke-width: 0.75; stroke-linecap: round"/>
   </g>
   <g id="line2d_24">
    <path d="M 157.817386 43.646291 
L 157.817386 35.29235 
" clip-path="url(#pc27f805884)" style="fill: none; stroke: #8c8c8c; stroke-width: 4; stroke-linecap: round"/>
   </g>
   <g id="line2d_25">
    <path d="M 157.817386 41.96658 
" clip-path="url(#pc27f805884)" style="fill: none; stroke: #6f6f6f; stroke-width: 1.2; stroke-linecap: round"/>
    <g clip-path="url(#pc27f805884)">
     <use xlink:href="#m653b84fc75" x="157.817386" y="41.96658" style="fill: #ffffff; stroke: #ffffff; stroke-width: 0.8"/>
    </g>
   </g>
   <g id="line2d_26">
    <path d="M 184.69235 46.294283 
L 184.69235 31.874602 
" clip-path="url(#pc27f805884)" style="fill: none; stroke: #8c8c8c; stroke-width: 0.75; stroke-linecap: round"/>
   </g>
   <g id="line2d_27">
    <path d="M 184.69235 43.858721 
L 184.69235 37.274945 
" clip-path="url(#pc27f805884)" style="fill: none; stroke: #8c8c8c; stroke-width: 4; stroke-linecap: round"/>
   </g>
   <g id="line2d_28">
    <path d="M 184.69235 41.108819 
" clip-path="url(#pc27f805884)" style="fill: none; stroke: #6f6f6f; stroke-width: 1.2; stroke-linecap: round"/>
    <g clip-path="url(#pc27f805884)">
     <use xlink:href="#m653b84fc75" x="184.69235" y="41.108819" style="fill: #ffffff; stroke: #ffffff; stroke-width: 0.8"/>
    </g>
   </g>
   <g id="line2d_29">
    <path d="M 211.567314 48.179322 
L 211.567314 46.146659 
" clip-path="url(#pc27f805884)" style="fill: none; stroke: #8c8c8c; stroke-width: 0.75; stroke-linecap: round"/>
   </g>
   <g id="line2d_30">
    <path d="M 211.567314 47.990561 
L 211.567314 46.987753 
" clip-path="url(#pc27f805884)" style="fill: none; stroke: #8c8c8c; stroke-width: 4; stroke-linecap: round"/>
   </g>
   <g id="line2d_31">
    <path d="M 211.567314 47.559011 
" clip-path="url(#pc27f805884)" style="fill: none; stroke: #6f6f6f; stroke-width: 1.2; stroke-linecap: round"/>
    <g clip-path="url(#pc27f805884)">
     <use xlink:href="#m653b84fc75" x="211.567314" y="47.559011" style="fill: #ffffff; stroke: #ffffff; stroke-width: 0.8"/>
    </g>
   </g>
   <g id="line2d_32">
    <path d="M 238.442278 44.723609 
L 238.442278 27.094336 
" clip-path="url(#pc27f805884)" style="fill: none; stroke: #8c8c8c; stroke-width: 0.75; stroke-linecap: round"/>
   </g>
   <g id="line2d_33">
    <path d="M 238.442278 41.866559 
L 238.442278 35.863487 
" clip-path="url(#pc27f805884)" style="fill: none; stroke: #8c8c8c; stroke-width: 4; stroke-linecap: round"/>
   </g>
   <g id="line2d_34">
    <path d="M 238.442278 39.747882 
" clip-path="url(#pc27f805884)" style="fill: none; stroke: #6f6f6f; stroke-width: 1.2; stroke-linecap: round"/>
    <g clip-path="url(#pc27f805884)">
     <use xlink:href="#m653b84fc75" x="238.442278" y="39.747882" style="fill: #ffffff; stroke: #ffffff; stroke-width: 0.8"/>
    </g>
   </g>
   <g id="patch_3">
    <path d="M 10.005084 54.222338 
L 10.005084 4.076256 
" style="fill: none; stroke: #777777; stroke-width: 0.5; stroke-linejoin: miter; stroke-linecap: square"/>
   </g>
   <g id="patch_4">
    <path d="M 10.005084 56.722338 
L 251.87976 56.722338 
" style="fill: none; stroke: #777777; stroke-width: 0.5; stroke-linejoin: miter; stroke-linecap: square"/>
   </g>
  </g>
 </g>
 <defs>
  <clipPath id="pc27f805884">
   <rect x="10.005084" y="4.076256" width="241.874676" height="50.146082"/>
  </clipPath>
 </defs>
</svg>
