<?xml version="1.0" encoding="utf-8" standalone="no"?>
<!DOCTYPE svg PUBLIC "-//W3C//DTD SVG 1.1//EN"
  "http://www.w3.org/Graphics/SVG/1.1/DTD/svg11.dtd">
<svg xmlns:xlink="http://www.w3.org/1999/xlink" width="56.16pt" height="84.96pt" viewBox="0 0 56.16 84.96" xmlns="http://www.w3.org/2000/svg" version="1.1">
 <metadata>
  <rdf:RDF xmlns:dc="http://purl.org/dc/elements/1.1/" xmlns:cc="http://creativecommons.org/ns#" xmlns:rdf="http://www.w3.org/1999/02/22-rdf-syntax-ns#">
   <cc:Work>
    <dc:type rdf:resource="http://purl.org/dc/dcmitype/StillImage"/>
    <dc:date>2024-05-27T15:37:13.044863</dc:date>
    <dc:format>image/svg+xml</dc:format>
    <dc:creator>
     <cc:Agent>
      <dc:title>Matplotlib v3.8.3, https://matplotlib.org/</dc:title>
     </cc:Agent>
    </dc:creator>
   </cc:Work>
  </rdf:RDF>
 </metadata>
 <defs>
  <style type="text/css">*{stroke-linejoin: round; stroke-linecap: butt}</style>
 </defs>
 <g id="figure_1">
  <g id="patch_1">
   <path d="M 0 84.96 
L 56.16 84.96 
L 56.16 0 
L 0 0 
z
" style="fill: #ffffff"/>
  </g>
  <g id="axes_1">
   <g id="patch_2">
    <path d="M 8.336802 74.419526 
L 53.15976 74.419526 
L 53.15976 4.076256 
L 8.336802 4.076256 
z
" style="fill: #ffffff"/>
   </g>
   <g id="matplotlib.axis_1">
    <g id="xtick_1">
     <g id="text_1">
      <!-- T -->
      <g style="fill: #333333" transform="translate(18.473675 81.230229) scale(0.035 -0.035)">
       <defs>
        <path id="Helvetica-54" d="M 3828 4591 
L 3828 4044 
L 2281 4044 
L 2281 0 
L 1650 0 
L 1650 4044 
L 103 4044 
L 103 4591 
L 3828 4591 
z
" transform="scale(0.015625)"/>
       </defs>
       <use xlink:href="#Helvetica-54"/>
      </g>
     </g>
    </g>
    <g id="xtick_2">
     <g id="text_2">
      <!-- IL7R Non T -->
      <g style="fill: #333333" transform="translate(33.006325 81.230229) scale(0.035 -0.035)">
       <defs>
        <path id="Helvetica-49" d="M 628 4591 
L 1256 4591 
L 1256 0 
L 628 0 
L 628 4591 
z
" transform="scale(0.015625)"/>
        <path id="Helvetica-4c" d="M 488 4591 
L 1109 4591 
L 1109 547 
L 3434 547 
L 3434 0 
L 488 0 
L 488 4591 
z
" transform="scale(0.015625)"/>
        <path id="Helvetica-37" d="M 3347 4400 
L 3347 3909 
Q 3131 3700 2773 3181 
Q 2416 2663 2141 2063 
Q 1869 1478 1728 997 
Q 1638 688 1494 0 
L 872 0 
Q 1084 1281 1809 2550 
Q 2238 3294 2709 3834 
L 234 3834 
L 234 4400 
L 3347 4400 
z
" transform="scale(0.015625)"/>
        <path id="Helvetica-52" d="M 2622 2488 
Q 3059 2488 3314 2663 
Q 3569 2838 3569 3294 
Q 3569 3784 3213 3963 
Q 3022 4056 2703 4056 
L 1184 4056 
L 1184 2488 
L 2622 2488 
z
M 563 4591 
L 2688 4591 
Q 3213 4591 3553 4438 
Q 4200 4144 4200 3353 
Q 4200 2941 4029 2678 
Q 3859 2416 3553 2256 
Q 3822 2147 3958 1969 
Q 4094 1791 4109 1391 
L 4131 775 
Q 4141 513 4175 384 
Q 4231 166 4375 103 
L 4375 0 
L 3613 0 
Q 3581 59 3562 153 
Q 3544 247 3531 516 
L 3494 1281 
Q 3472 1731 3159 1884 
Q 2981 1969 2600 1969 
L 1184 1969 
L 1184 0 
L 563 0 
L 563 4591 
z
" transform="scale(0.015625)"/>
        <path id="Helvetica-20" transform="scale(0.015625)"/>
        <path id="Helvetica-4e" d="M 488 4591 
L 1222 4591 
L 3541 872 
L 3541 4591 
L 4131 4591 
L 4131 0 
L 3434 0 
L 1081 3716 
L 1081 0 
L 488 0 
L 488 4591 
z
M 2269 4591 
L 2269 4591 
z
" transform="scale(0.015625)"/>
        <path id="Helvetica-6f" d="M 1741 363 
Q 2300 363 2508 786 
Q 2716 1209 2716 1728 
Q 2716 2197 2566 2491 
Q 2328 2953 1747 2953 
Q 1231 2953 997 2559 
Q 763 2166 763 1609 
Q 763 1075 997 719 
Q 1231 363 1741 363 
z
M 1763 3444 
Q 2409 3444 2856 3012 
Q 3303 2581 3303 1744 
Q 3303 934 2909 406 
Q 2516 -122 1688 -122 
Q 997 -122 590 345 
Q 184 813 184 1600 
Q 184 2444 612 2944 
Q 1041 3444 1763 3444 
z
M 1744 3428 
L 1744 3428 
z
" transform="scale(0.015625)"/>
        <path id="Helvetica-6e" d="M 413 3347 
L 947 3347 
L 947 2872 
Q 1184 3166 1450 3294 
Q 1716 3422 2041 3422 
Q 2753 3422 3003 2925 
Q 3141 2653 3141 2147 
L 3141 0 
L 2569 0 
L 2569 2109 
Q 2569 2416 2478 2603 
Q 2328 2916 1934 2916 
Q 1734 2916 1606 2875 
Q 1375 2806 1200 2600 
Q 1059 2434 1017 2257 
Q 975 2081 975 1753 
L 975 0 
L 413 0 
L 413 3347 
z
M 1734 3428 
L 1734 3428 
z
" transform="scale(0.015625)"/>
       </defs>
       <use xlink:href="#Helvetica-49"/>
       <use xlink:href="#Helvetica-4c" x="27.783203"/>
       <use xlink:href="#Helvetica-37" x="83.398438"/>
       <use xlink:href="#Helvetica-52" x="139.013672"/>
       <use xlink:href="#Helvetica-20" x="211.230469"/>
       <use xlink:href="#Helvetica-4e" x="239.013672"/>
       <use xlink:href="#Helvetica-6f" x="311.230469"/>
       <use xlink:href="#Helvetica-6e" x="366.845703"/>
       <use xlink:href="#Helvetica-20" x="422.460938"/>
       <use xlink:href="#Helvetica-54" x="450.244141"/>
      </g>
     </g>
    </g>
   </g>
   <g id="matplotlib.axis_2">
    <g id="ytick_1">
     <g id="line2d_1">
      <defs>
       <path id="m680ebd175d" d="M 0 0 
L -1 0 
" style="stroke: #777777; stroke-width: 0.5"/>
      </defs>
      <g>
       <use xlink:href="#m680ebd175d" x="8.336802" y="66.673159" style="fill: #777777; stroke: #777777; stroke-width: 0.5"/>
      </g>
     </g>
     <g id="text_3">
      <!-- 0 -->
      <g style="fill: #333333" transform="translate(4.668521 67.749174) scale(0.03 -0.03)">
       <defs>
        <path id="Helvetica-30" d="M 1731 4475 
Q 2600 4475 2988 3759 
Q 3288 3206 3288 2244 
Q 3288 1331 3016 734 
Q 2622 -122 1728 -122 
Q 922 -122 528 578 
Q 200 1163 200 2147 
Q 200 2909 397 3456 
Q 766 4475 1731 4475 
z
M 1725 391 
Q 2163 391 2422 778 
Q 2681 1166 2681 2222 
Q 2681 2984 2493 3476 
Q 2306 3969 1766 3969 
Q 1269 3969 1039 3501 
Q 809 3034 809 2125 
Q 809 1441 956 1025 
Q 1181 391 1725 391 
z
" transform="scale(0.015625)"/>
       </defs>
       <use xlink:href="#Helvetica-30"/>
      </g>
     </g>
    </g>
    <g id="ytick_2">
     <g id="line2d_2">
      <g>
       <use xlink:href="#m680ebd175d" x="8.336802" y="58.848546" style="fill: #777777; stroke: #777777; stroke-width: 0.5"/>
      </g>
     </g>
     <g id="text_4">
      <!-- 10 -->
      <g style="fill: #333333" transform="translate(3.00024 59.924562) scale(0.03 -0.03)">
       <defs>
        <path id="Helvetica-31" d="M 613 3169 
L 613 3600 
Q 1222 3659 1462 3798 
Q 1703 3938 1822 4456 
L 2266 4456 
L 2266 0 
L 1666 0 
L 1666 3169 
L 613 3169 
z
" transform="scale(0.015625)"/>
       </defs>
       <use xlink:href="#Helvetica-31"/>
       <use xlink:href="#Helvetica-30" x="55.615234"/>
      </g>
     </g>
    </g>
    <g id="ytick_3">
     <g id="line2d_3">
      <g>
       <use xlink:href="#m680ebd175d" x="8.336802" y="51.023933" style="fill: #777777; stroke: #777777; stroke-width: 0.5"/>
      </g>
     </g>
     <g id="text_5">
      <!-- 20 -->
      <g style="fill: #333333" transform="translate(3.00024 52.099949) scale(0.03 -0.03)">
       <defs>
        <path id="Helvetica-32" d="M 200 0 
Q 231 578 439 1006 
Q 647 1434 1250 1784 
L 1850 2131 
Q 2253 2366 2416 2531 
Q 2672 2791 2672 3125 
Q 2672 3516 2437 3745 
Q 2203 3975 1813 3975 
Q 1234 3975 1013 3538 
Q 894 3303 881 2888 
L 309 2888 
Q 319 3472 525 3841 
Q 891 4491 1816 4491 
Q 2584 4491 2939 4075 
Q 3294 3659 3294 3150 
Q 3294 2613 2916 2231 
Q 2697 2009 2131 1694 
L 1703 1456 
Q 1397 1288 1222 1134 
Q 909 863 828 531 
L 3272 531 
L 3272 0 
L 200 0 
z
" transform="scale(0.015625)"/>
       </defs>
       <use xlink:href="#Helvetica-32"/>
       <use xlink:href="#Helvetica-30" x="55.615234"/>
      </g>
     </g>
    </g>
    <g id="ytick_4">
     <g id="line2d_4">
      <g>
       <use xlink:href="#m680ebd175d" x="8.336802" y="43.19932" style="fill: #777777; stroke: #777777; stroke-width: 0.5"/>
      </g>
     </g>
     <g id="text_6">
      <!-- 30 -->
      <g style="fill: #333333" transform="translate(3.00024 44.275336) scale(0.03 -0.03)">
       <defs>
        <path id="Helvetica-33" d="M 1663 -122 
Q 869 -122 511 314 
Q 153 750 153 1375 
L 741 1375 
Q 778 941 903 744 
Q 1122 391 1694 391 
Q 2138 391 2406 628 
Q 2675 866 2675 1241 
Q 2675 1703 2392 1887 
Q 2109 2072 1606 2072 
Q 1550 2072 1492 2070 
Q 1434 2069 1375 2066 
L 1375 2563 
Q 1463 2553 1522 2550 
Q 1581 2547 1650 2547 
Q 1966 2547 2169 2647 
Q 2525 2822 2525 3272 
Q 2525 3606 2287 3787 
Q 2050 3969 1734 3969 
Q 1172 3969 956 3594 
Q 838 3388 822 3006 
L 266 3006 
Q 266 3506 466 3856 
Q 809 4481 1675 4481 
Q 2359 4481 2734 4176 
Q 3109 3872 3109 3294 
Q 3109 2881 2888 2625 
Q 2750 2466 2531 2375 
Q 2884 2278 3082 2001 
Q 3281 1725 3281 1325 
Q 3281 684 2859 281 
Q 2438 -122 1663 -122 
z
" transform="scale(0.015625)"/>
       </defs>
       <use xlink:href="#Helvetica-33"/>
       <use xlink:href="#Helvetica-30" x="55.615234"/>
      </g>
     </g>
    </g>
    <g id="ytick_5">
     <g id="line2d_5">
      <g>
       <use xlink:href="#m680ebd175d" x="8.336802" y="35.374707" style="fill: #777777; stroke: #777777; stroke-width: 0.5"/>
      </g>
     </g>
     <g id="text_7">
      <!-- 40 -->
      <g style="fill: #333333" transform="translate(3.00024 36.450723) scale(0.03 -0.03)">
       <defs>
        <path id="Helvetica-34" d="M 2116 1584 
L 2116 3613 
L 681 1584 
L 2116 1584 
z
M 2125 0 
L 2125 1094 
L 163 1094 
L 163 1644 
L 2213 4488 
L 2688 4488 
L 2688 1584 
L 3347 1584 
L 3347 1094 
L 2688 1094 
L 2688 0 
L 2125 0 
z
" transform="scale(0.015625)"/>
       </defs>
       <use xlink:href="#Helvetica-34"/>
       <use xlink:href="#Helvetica-30" x="55.615234"/>
      </g>
     </g>
    </g>
    <g id="ytick_6">
     <g id="line2d_6">
      <g>
       <use xlink:href="#m680ebd175d" x="8.336802" y="27.550094" style="fill: #777777; stroke: #777777; stroke-width: 0.5"/>
      </g>
     </g>
     <g id="text_8">
      <!-- 50 -->
      <g style="fill: #333333" transform="translate(3.00024 28.62611) scale(0.03 -0.03)">
       <defs>
        <path id="Helvetica-35" d="M 791 1141 
Q 847 659 1238 475 
Q 1438 381 1700 381 
Q 2200 381 2440 700 
Q 2681 1019 2681 1406 
Q 2681 1875 2395 2131 
Q 2109 2388 1709 2388 
Q 1419 2388 1211 2275 
Q 1003 2163 856 1963 
L 369 1991 
L 709 4400 
L 3034 4400 
L 3034 3856 
L 1131 3856 
L 941 2613 
Q 1097 2731 1238 2791 
Q 1488 2894 1816 2894 
Q 2431 2894 2859 2497 
Q 3288 2100 3288 1491 
Q 3288 856 2895 371 
Q 2503 -113 1644 -113 
Q 1097 -113 676 195 
Q 256 503 206 1141 
L 791 1141 
z
" transform="scale(0.015625)"/>
       </defs>
       <use xlink:href="#Helvetica-35"/>
       <use xlink:href="#Helvetica-30" x="55.615234"/>
      </g>
     </g>
    </g>
    <g id="ytick_7">
     <g id="line2d_7">
      <g>
       <use xlink:href="#m680ebd175d" x="8.336802" y="19.725481" style="fill: #777777; stroke: #777777; stroke-width: 0.5"/>
      </g>
     </g>
     <g id="text_9">
      <!-- 60 -->
      <g style="fill: #333333" transform="translate(3.00024 20.801497) scale(0.03 -0.03)">
       <defs>
        <path id="Helvetica-36" d="M 1872 4494 
Q 2622 4494 2917 4105 
Q 3213 3716 3213 3303 
L 2656 3303 
Q 2606 3569 2497 3719 
Q 2294 4000 1881 4000 
Q 1409 4000 1131 3564 
Q 853 3128 822 2316 
Q 1016 2600 1309 2741 
Q 1578 2866 1909 2866 
Q 2472 2866 2890 2506 
Q 3309 2147 3309 1434 
Q 3309 825 2912 354 
Q 2516 -116 1781 -116 
Q 1153 -116 697 361 
Q 241 838 241 1966 
Q 241 2800 444 3381 
Q 834 4494 1872 4494 
z
M 1831 384 
Q 2275 384 2495 682 
Q 2716 981 2716 1388 
Q 2716 1731 2519 2042 
Q 2322 2353 1803 2353 
Q 1441 2353 1167 2112 
Q 894 1872 894 1388 
Q 894 963 1142 673 
Q 1391 384 1831 384 
z
" transform="scale(0.015625)"/>
       </defs>
       <use xlink:href="#Helvetica-36"/>
       <use xlink:href="#Helvetica-30" x="55.615234"/>
      </g>
     </g>
    </g>
    <g id="ytick_8">
     <g id="line2d_8">
      <g>
       <use xlink:href="#m680ebd175d" x="8.336802" y="11.900869" style="fill: #777777; stroke: #777777; stroke-width: 0.5"/>
      </g>
     </g>
     <g id="text_10">
      <!-- 70 -->
      <g style="fill: #333333" transform="translate(3.00024 12.976884) scale(0.03 -0.03)">
       <use xlink:href="#Helvetica-37"/>
       <use xlink:href="#Helvetica-30" x="55.615234"/>
      </g>
     </g>
    </g>
    <g id="ytick_9">
     <g id="line2d_9">
      <g>
       <use xlink:href="#m680ebd175d" x="8.336802" y="4.076256" style="fill: #777777; stroke: #777777; stroke-width: 0.5"/>
      </g>
     </g>
     <g id="text_11">
      <!-- 80 -->
      <g style="fill: #333333" transform="translate(3.00024 5.152271) scale(0.03 -0.03)">
       <defs>
        <path id="Helvetica-38" d="M 1741 2600 
Q 2113 2600 2322 2808 
Q 2531 3016 2531 3303 
Q 2531 3553 2331 3762 
Q 2131 3972 1722 3972 
Q 1316 3972 1134 3762 
Q 953 3553 953 3272 
Q 953 2956 1187 2778 
Q 1422 2600 1741 2600 
z
M 1775 384 
Q 2166 384 2423 595 
Q 2681 806 2681 1225 
Q 2681 1659 2415 1884 
Q 2150 2109 1734 2109 
Q 1331 2109 1076 1879 
Q 822 1650 822 1244 
Q 822 894 1055 639 
Q 1288 384 1775 384 
z
M 975 2384 
Q 741 2484 609 2619 
Q 363 2869 363 3269 
Q 363 3769 725 4128 
Q 1088 4488 1753 4488 
Q 2397 4488 2762 4148 
Q 3128 3809 3128 3356 
Q 3128 2938 2916 2678 
Q 2797 2531 2547 2391 
Q 2825 2263 2984 2097 
Q 3281 1784 3281 1284 
Q 3281 694 2884 283 
Q 2488 -128 1763 -128 
Q 1109 -128 657 226 
Q 206 581 206 1256 
Q 206 1653 400 1942 
Q 594 2231 975 2384 
z
" transform="scale(0.015625)"/>
       </defs>
       <use xlink:href="#Helvetica-38"/>
       <use xlink:href="#Helvetica-30" x="55.615234"/>
      </g>
     </g>
    </g>
   </g>
   <g id="PolyCollection_1">
    <defs>
     <path id="m3b29ce6832" d="M 20.422977 -19.201582 
L 18.662107 -19.201582 
L 18.473795 -19.336083 
L 18.25817 -19.470584 
L 18.014037 -19.605085 
L 17.740653 -19.739586 
L 17.437794 -19.874087 
L 17.105807 -20.008588 
L 16.745656 -20.143089 
L 16.358961 -20.27759 
L 15.948033 -20.412091 
L 15.515899 -20.546592 
L 15.066334 -20.681094 
L 14.603881 -20.815595 
L 14.133865 -20.950096 
L 13.662389 -21.084597 
L 13.196307 -21.219098 
L 12.743162 -21.353599 
L 12.311071 -21.4881 
L 11.908566 -21.622601 
L 11.544371 -21.757102 
L 11.22712 -21.891603 
L 10.965032 -22.026104 
L 10.765543 -22.160605 
L 10.634931 -22.295106 
L 10.57795 -22.429607 
L 10.597499 -22.564108 
L 10.694361 -22.698609 
L 10.867038 -22.83311 
L 11.111686 -22.967611 
L 11.42218 -23.102112 
L 11.790304 -23.236613 
L 12.206054 -23.371114 
L 12.658042 -23.505615 
L 13.133986 -23.640116 
L 13.621241 -23.774617 
L 14.10735 -23.909118 
L 14.580581 -24.043619 
L 15.030415 -24.17812 
L 15.447961 -24.312621 
L 15.826277 -24.447122 
L 16.160581 -24.581623 
L 16.448343 -24.716124 
L 16.689256 -24.850625 
L 16.885095 -24.985126 
L 17.039476 -25.119627 
L 17.15753 -25.254128 
L 17.245513 -25.388629 
L 17.310379 -25.52313 
L 17.359346 -25.657631 
L 17.399467 -25.792132 
L 17.43725 -25.926633 
L 17.478336 -26.061134 
L 17.527246 -26.195635 
L 17.587231 -26.330136 
L 17.660199 -26.464637 
L 17.746735 -26.599138 
L 17.846209 -26.733639 
L 17.956934 -26.86814 
L 18.076382 -27.002641 
L 18.201416 -27.137142 
L 18.328534 -27.271643 
L 18.4541 -27.406144 
L 18.574538 -27.540645 
L 18.686497 -27.675146 
L 18.786971 -27.809647 
L 18.873376 -27.944148 
L 18.943588 -28.078649 
L 18.995961 -28.21315 
L 19.029316 -28.347651 
L 19.042931 -28.482152 
L 19.036529 -28.616653 
L 19.010271 -28.751154 
L 18.964767 -28.885655 
L 18.901091 -29.020156 
L 18.820803 -29.154657 
L 18.725967 -29.289158 
L 18.619165 -29.423659 
L 18.503476 -29.55816 
L 18.382439 -29.692662 
L 18.259968 -29.827163 
L 18.140239 -29.961664 
L 18.027529 -30.096165 
L 17.92604 -30.230666 
L 17.839694 -30.365167 
L 17.771929 -30.499668 
L 17.725517 -30.634169 
L 17.702401 -30.76867 
L 17.703588 -30.903171 
L 17.729091 -31.037672 
L 17.77794 -31.172173 
L 17.848252 -31.306674 
L 17.937356 -31.441175 
L 18.04197 -31.575676 
L 18.158398 -31.710177 
L 18.282754 -31.844678 
L 18.411171 -31.979179 
L 18.539998 -32.11368 
L 18.66596 -32.248181 
L 18.786281 -32.382682 
L 18.898756 -32.517183 
L 20.186328 -32.517183 
L 20.186328 -32.517183 
L 20.298803 -32.382682 
L 20.419123 -32.248181 
L 20.545086 -32.11368 
L 20.673913 -31.979179 
L 20.80233 -31.844678 
L 20.926686 -31.710177 
L 21.043114 -31.575676 
L 21.147727 -31.441175 
L 21.236832 -31.306674 
L 21.307144 -31.172173 
L 21.355993 -31.037672 
L 21.381496 -30.903171 
L 21.382682 -30.76867 
L 21.359567 -30.634169 
L 21.313155 -30.499668 
L 21.24539 -30.365167 
L 21.159043 -30.230666 
L 21.057555 -30.096165 
L 20.944845 -29.961664 
L 20.825116 -29.827163 
L 20.702645 -29.692662 
L 20.581608 -29.55816 
L 20.465919 -29.423659 
L 20.359116 -29.289158 
L 20.264281 -29.154657 
L 20.183992 -29.020156 
L 20.120316 -28.885655 
L 20.074813 -28.751154 
L 20.048555 -28.616653 
L 20.042152 -28.482152 
L 20.055768 -28.347651 
L 20.089123 -28.21315 
L 20.141496 -28.078649 
L 20.211708 -27.944148 
L 20.298112 -27.809647 
L 20.398586 -27.675146 
L 20.510546 -27.540645 
L 20.630983 -27.406144 
L 20.756549 -27.271643 
L 20.883668 -27.137142 
L 21.008702 -27.002641 
L 21.128149 -26.86814 
L 21.238875 -26.733639 
L 21.338349 -26.599138 
L 21.424885 -26.464637 
L 21.497852 -26.330136 
L 21.557837 -26.195635 
L 21.606748 -26.061134 
L 21.647834 -25.926633 
L 21.685617 -25.792132 
L 21.725738 -25.657631 
L 21.774705 -25.52313 
L 21.839571 -25.388629 
L 21.927554 -25.254128 
L 22.045608 -25.119627 
L 22.199989 -24.985126 
L 22.395828 -24.850625 
L 22.63674 -24.716124 
L 22.924502 -24.581623 
L 23.258807 -24.447122 
L 23.637123 -24.312621 
L 24.054669 -24.17812 
L 24.504502 -24.043619 
L 24.977734 -23.909118 
L 25.463843 -23.774617 
L 25.951098 -23.640116 
L 26.427042 -23.505615 
L 26.87903 -23.371114 
L 27.294779 -23.236613 
L 27.662904 -23.102112 
L 27.973398 -22.967611 
L 28.218046 -22.83311 
L 28.390722 -22.698609 
L 28.487585 -22.564108 
L 28.507133 -22.429607 
L 28.450152 -22.295106 
L 28.319541 -22.160605 
L 28.120052 -22.026104 
L 27.857963 -21.891603 
L 27.540713 -21.757102 
L 27.176518 -21.622601 
L 26.774013 -21.4881 
L 26.341922 -21.353599 
L 25.888776 -21.219098 
L 25.422695 -21.084597 
L 24.951219 -20.950096 
L 24.481203 -20.815595 
L 24.01875 -20.681094 
L 23.569185 -20.546592 
L 23.137051 -20.412091 
L 22.726123 -20.27759 
L 22.339428 -20.143089 
L 21.979277 -20.008588 
L 21.647289 -19.874087 
L 21.34443 -19.739586 
L 21.071047 -19.605085 
L 20.826913 -19.470584 
L 20.611288 -19.336083 
L 20.422977 -19.201582 
z
" style="stroke: #525252; stroke-width: 0.15"/>
    </defs>
    <g clip-path="url(#pb3fe8cab39)">
     <use xlink:href="#m3b29ce6832" x="0" y="84.96" style="fill: #bbba94; stroke: #525252; stroke-width: 0.15"/>
    </g>
   </g>
   <g id="PolyCollection_2">
    <defs>
     <path id="m9e42456e2f" d="M 43.132608 -20.477144 
L 40.775433 -20.477144 
L 40.509286 -20.566375 
L 40.202271 -20.655605 
L 39.853024 -20.744835 
L 39.461393 -20.834066 
L 39.028677 -20.923296 
L 38.557842 -21.012526 
L 38.053661 -21.101757 
L 37.522777 -21.190987 
L 36.973665 -21.280217 
L 36.41647 -21.369448 
L 35.862733 -21.458678 
L 35.324986 -21.547908 
L 34.816254 -21.637139 
L 34.349472 -21.726369 
L 33.936855 -21.815599 
L 33.589269 -21.90483 
L 33.315648 -21.99406 
L 33.122495 -22.08329 
L 33.013519 -22.172521 
L 32.989429 -22.261751 
L 33.047916 -22.350981 
L 33.183812 -22.440212 
L 33.38943 -22.529442 
L 33.655041 -22.618672 
L 33.969465 -22.707903 
L 34.320717 -22.797133 
L 34.69667 -22.886363 
L 35.08567 -22.975594 
L 35.477086 -23.064824 
L 35.861738 -23.154054 
L 36.2322 -23.243285 
L 36.582966 -23.332515 
L 36.910477 -23.421745 
L 37.213037 -23.510976 
L 37.490614 -23.600206 
L 37.744583 -23.689436 
L 37.977408 -23.778667 
L 38.192304 -23.867897 
L 38.392902 -23.957127 
L 38.582927 -24.046357 
L 38.765923 -24.135588 
L 38.945014 -24.224818 
L 39.122729 -24.314048 
L 39.300883 -24.403279 
L 39.480527 -24.492509 
L 39.661944 -24.581739 
L 39.844708 -24.67097 
L 40.027782 -24.7602 
L 40.20965 -24.84943 
L 40.388467 -24.938661 
L 40.562223 -25.027891 
L 40.728889 -25.117121 
L 40.886563 -25.206352 
L 41.033573 -25.295582 
L 41.168561 -25.384812 
L 41.290525 -25.474043 
L 41.39883 -25.563273 
L 41.493185 -25.652503 
L 41.573595 -25.741734 
L 41.640295 -25.830964 
L 41.693672 -25.920194 
L 41.734185 -26.009425 
L 41.762293 -26.098655 
L 41.778386 -26.187885 
L 41.78275 -26.277116 
L 41.775537 -26.366346 
L 41.756768 -26.455576 
L 41.726364 -26.544807 
L 41.684189 -26.634037 
L 41.630128 -26.723267 
L 41.564169 -26.812498 
L 41.486499 -26.901728 
L 41.397606 -26.990958 
L 41.298359 -27.080189 
L 41.190086 -27.169419 
L 41.074618 -27.258649 
L 40.954294 -27.34788 
L 40.831936 -27.43711 
L 40.710772 -27.52634 
L 40.594325 -27.615571 
L 40.486254 -27.704801 
L 40.390181 -27.794031 
L 40.309494 -27.883262 
L 40.247157 -27.972492 
L 40.205527 -28.061722 
L 40.18621 -28.150953 
L 40.189963 -28.240183 
L 40.216641 -28.329413 
L 40.265207 -28.418644 
L 40.333803 -28.507874 
L 40.419863 -28.597104 
L 40.520279 -28.686335 
L 40.631579 -28.775565 
L 40.750131 -28.864795 
L 40.872334 -28.954026 
L 40.994795 -29.043256 
L 41.114474 -29.132486 
L 41.228795 -29.221717 
L 41.33571 -29.310947 
L 42.572331 -29.310947 
L 42.572331 -29.310947 
L 42.679247 -29.221717 
L 42.793567 -29.132486 
L 42.913246 -29.043256 
L 43.035707 -28.954026 
L 43.15791 -28.864795 
L 43.276462 -28.775565 
L 43.387762 -28.686335 
L 43.488178 -28.597104 
L 43.574239 -28.507874 
L 43.642834 -28.418644 
L 43.691401 -28.329413 
L 43.718078 -28.240183 
L 43.721831 -28.150953 
L 43.702515 -28.061722 
L 43.660884 -27.972492 
L 43.598547 -27.883262 
L 43.517861 -27.794031 
L 43.421788 -27.704801 
L 43.313716 -27.615571 
L 43.197269 -27.52634 
L 43.076106 -27.43711 
L 42.953748 -27.34788 
L 42.833424 -27.258649 
L 42.717955 -27.169419 
L 42.609682 -27.080189 
L 42.510435 -26.990958 
L 42.421542 -26.901728 
L 42.343873 -26.812498 
L 42.277913 -26.723267 
L 42.223852 -26.634037 
L 42.181678 -26.544807 
L 42.151273 -26.455576 
L 42.132504 -26.366346 
L 42.125291 -26.277116 
L 42.129655 -26.187885 
L 42.145749 -26.098655 
L 42.173856 -26.009425 
L 42.214369 -25.920194 
L 42.267746 -25.830964 
L 42.334446 -25.741734 
L 42.414856 -25.652503 
L 42.509211 -25.563273 
L 42.617516 -25.474043 
L 42.73948 -25.384812 
L 42.874468 -25.295582 
L 43.021478 -25.206352 
L 43.179152 -25.117121 
L 43.345819 -25.027891 
L 43.519574 -24.938661 
L 43.698392 -24.84943 
L 43.880259 -24.7602 
L 44.063333 -24.67097 
L 44.246097 -24.581739 
L 44.427514 -24.492509 
L 44.607158 -24.403279 
L 44.785313 -24.314048 
L 44.963027 -24.224818 
L 45.142118 -24.135588 
L 45.325114 -24.046357 
L 45.51514 -23.957127 
L 45.715737 -23.867897 
L 45.930633 -23.778667 
L 46.163458 -23.689436 
L 46.417428 -23.600206 
L 46.695005 -23.510976 
L 46.997564 -23.421745 
L 47.325075 -23.332515 
L 47.675841 -23.243285 
L 48.046303 -23.154054 
L 48.430955 -23.064824 
L 48.822371 -22.975594 
L 49.211372 -22.886363 
L 49.587324 -22.797133 
L 49.938577 -22.707903 
L 50.253 -22.618672 
L 50.518611 -22.529442 
L 50.724229 -22.440212 
L 50.860126 -22.350981 
L 50.918612 -22.261751 
L 50.894522 -22.172521 
L 50.785546 -22.08329 
L 50.592393 -21.99406 
L 50.318772 -21.90483 
L 49.971186 -21.815599 
L 49.558569 -21.726369 
L 49.091787 -21.637139 
L 48.583055 -21.547908 
L 48.045308 -21.458678 
L 47.491571 -21.369448 
L 46.934376 -21.280217 
L 46.385264 -21.190987 
L 45.854381 -21.101757 
L 45.3502 -21.012526 
L 44.879364 -20.923296 
L 44.446649 -20.834066 
L 44.055017 -20.744835 
L 43.705771 -20.655605 
L 43.398756 -20.566375 
L 43.132608 -20.477144 
z
" style="stroke: #525252; stroke-width: 0.15"/>
    </defs>
    <g clip-path="url(#pb3fe8cab39)">
     <use xlink:href="#m9e42456e2f" x="0" y="84.96" style="fill: #977c7f; stroke: #525252; stroke-width: 0.15"/>
    </g>
   </g>
   <g id="line2d_10">
    <path d="M 19.542542 64.072223 
L 19.542542 58.779325 
" clip-path="url(#pb3fe8cab39)" style="fill: none; stroke: #8c8c8c; stroke-width: 0.75; stroke-linecap: round"/>
   </g>
   <g id="line2d_11">
    <path d="M 19.542542 62.694271 
L 19.542542 60.834169 
" clip-path="url(#pb3fe8cab39)" style="fill: none; stroke: #8c8c8c; stroke-width: 4; stroke-linecap: round"/>
   </g>
   <g id="line2d_12">
    <path d="M 19.542542 62.213255 
" clip-path="url(#pb3fe8cab39)" style="fill: none; stroke: #525252; stroke-width: 1.2; stroke-linecap: round"/>
    <defs>
     <path id="mf70f5db1de" d="M 0 0.833333 
C 0.221003 0.833333 0.432983 0.745528 0.589256 0.589256 
C 0.745528 0.432983 0.833333 0.221003 0.833333 0 
C 0.833333 -0.221003 0.745528 -0.432983 0.589256 -0.589256 
C 0.432983 -0.745528 0.221003 -0.833333 0 -0.833333 
C -0.221003 -0.833333 -0.432983 -0.745528 -0.589256 -0.589256 
C -0.745528 -0.432983 -0.833333 -0.221003 -0.833333 0 
C -0.833333 0.221003 -0.745528 0.432983 -0.589256 0.589256 
C -0.432983 0.745528 -0.221003 0.833333 0 0.833333 
z
" style="stroke: #ffffff; stroke-width: 0.8"/>
    </defs>
    <g clip-path="url(#pb3fe8cab39)">
     <use xlink:href="#mf70f5db1de" x="19.542542" y="62.213255" style="fill: #ffffff; stroke: #ffffff; stroke-width: 0.8"/>
    </g>
   </g>
   <g id="line2d_13">
    <path d="M 41.954021 63.353035 
L 41.954021 60.620829 
" clip-path="url(#pb3fe8cab39)" style="fill: none; stroke: #8c8c8c; stroke-width: 0.75; stroke-linecap: round"/>
   </g>
   <g id="line2d_14">
    <path d="M 41.954021 62.77464 
L 41.954021 61.352086 
" clip-path="url(#pb3fe8cab39)" style="fill: none; stroke: #8c8c8c; stroke-width: 4; stroke-linecap: round"/>
   </g>
   <g id="line2d_15">
    <path d="M 41.954021 62.642141 
" clip-path="url(#pb3fe8cab39)" style="fill: none; stroke: #525252; stroke-width: 1.2; stroke-linecap: round"/>
    <g clip-path="url(#pb3fe8cab39)">
     <use xlink:href="#mf70f5db1de" x="41.954021" y="62.642141" style="fill: #ffffff; stroke: #ffffff; stroke-width: 0.8"/>
    </g>
   </g>
   <g id="patch_3">
    <path d="M 8.336802 74.419526 
L 8.336802 4.076256 
" style="fill: none; stroke: #777777; stroke-width: 0.5; stroke-linejoin: miter; stroke-linecap: square"/>
   </g>
   <g id="patch_4">
    <path d="M 8.336802 76.919526 
L 53.15976 76.919526 
" style="fill: none; stroke: #777777; stroke-width: 0.5; stroke-linejoin: miter; stroke-linecap: square"/>
   </g>
  </g>
 </g>
 <defs>
  <clipPath id="pb3fe8cab39">
   <rect x="8.336802" y="4.076256" width="44.822958" height="70.34327"/>
  </clipPath>
 </defs>
</svg>
