<?xml version="1.0" encoding="utf-8" standalone="no"?>
<!DOCTYPE svg PUBLIC "-//W3C//DTD SVG 1.1//EN"
  "http://www.w3.org/Graphics/SVG/1.1/DTD/svg11.dtd">
<svg xmlns:xlink="http://www.w3.org/1999/xlink" width="84.96pt" height="84.96pt" viewBox="0 0 84.96 84.96" xmlns="http://www.w3.org/2000/svg" version="1.1">
 <metadata>
  <rdf:RDF xmlns:dc="http://purl.org/dc/elements/1.1/" xmlns:cc="http://creativecommons.org/ns#" xmlns:rdf="http://www.w3.org/1999/02/22-rdf-syntax-ns#">
   <cc:Work>
    <dc:type rdf:resource="http://purl.org/dc/dcmitype/StillImage"/>
    <dc:date>2024-05-27T15:37:16.094486</dc:date>
    <dc:format>image/svg+xml</dc:format>
    <dc:creator>
     <cc:Agent>
      <dc:title>Matplotlib v3.8.3, https://matplotlib.org/</dc:title>
     </cc:Agent>
    </dc:creator>
   </cc:Work>
  </rdf:RDF>
 </metadata>
 <defs>
  <style type="text/css">*{stroke-linejoin: round; stroke-linecap: butt}</style>
 </defs>
 <g id="figure_1">
  <g id="patch_1">
   <path d="M 0 84.96 
L 84.96 84.96 
L 84.96 0 
L 0 0 
z
" style="fill: #ffffff"/>
  </g>
  <g id="axes_1">
   <g id="patch_2">
    <path d="M 10.005084 74.419526 
L 81.95976 74.419526 
L 81.95976 4.076256 
L 10.005084 4.076256 
z
" style="fill: #ffffff"/>
   </g>
   <g id="matplotlib.axis_1">
    <g id="xtick_1">
     <g id="text_1">
      <!-- ILC3 -->
      <g style="fill: #333333" transform="translate(18.301202 81.230229) scale(0.035 -0.035)">
       <defs>
        <path id="Helvetica-49" d="M 628 4591 
L 1256 4591 
L 1256 0 
L 628 0 
L 628 4591 
z
" transform="scale(0.015625)"/>
        <path id="Helvetica-4c" d="M 488 4591 
L 1109 4591 
L 1109 547 
L 3434 547 
L 3434 0 
L 488 0 
L 488 4591 
z
" transform="scale(0.015625)"/>
        <path id="Helvetica-43" d="M 2422 4716 
Q 3294 4716 3775 4256 
Q 4256 3797 4309 3213 
L 3703 3213 
Q 3600 3656 3292 3915 
Q 2984 4175 2428 4175 
Q 1750 4175 1333 3698 
Q 916 3222 916 2238 
Q 916 1431 1292 929 
Q 1669 428 2416 428 
Q 3103 428 3463 956 
Q 3653 1234 3747 1688 
L 4353 1688 
Q 4272 963 3816 472 
Q 3269 -119 2341 -119 
Q 1541 -119 997 366 
Q 281 1006 281 2344 
Q 281 3359 819 4009 
Q 1400 4716 2422 4716 
z
M 2297 4716 
L 2297 4716 
z
" transform="scale(0.015625)"/>
        <path id="Helvetica-33" d="M 1663 -122 
Q 869 -122 511 314 
Q 153 750 153 1375 
L 741 1375 
Q 778 941 903 744 
Q 1122 391 1694 391 
Q 2138 391 2406 628 
Q 2675 866 2675 1241 
Q 2675 1703 2392 1887 
Q 2109 2072 1606 2072 
Q 1550 2072 1492 2070 
Q 1434 2069 1375 2066 
L 1375 2563 
Q 1463 2553 1522 2550 
Q 1581 2547 1650 2547 
Q 1966 2547 2169 2647 
Q 2525 2822 2525 3272 
Q 2525 3606 2287 3787 
Q 2050 3969 1734 3969 
Q 1172 3969 956 3594 
Q 838 3388 822 3006 
L 266 3006 
Q 266 3506 466 3856 
Q 809 4481 1675 4481 
Q 2359 4481 2734 4176 
Q 3109 3872 3109 3294 
Q 3109 2881 2888 2625 
Q 2750 2466 2531 2375 
Q 2884 2278 3082 2001 
Q 3281 1725 3281 1325 
Q 3281 684 2859 281 
Q 2438 -122 1663 -122 
z
" transform="scale(0.015625)"/>
       </defs>
       <use xlink:href="#Helvetica-49"/>
       <use xlink:href="#Helvetica-4c" x="27.783203"/>
       <use xlink:href="#Helvetica-43" x="83.398438"/>
       <use xlink:href="#Helvetica-33" x="155.615234"/>
      </g>
     </g>
    </g>
    <g id="xtick_2">
     <g id="text_2">
      <!-- TH17 -->
      <g style="fill: #333333" transform="translate(41.703398 81.230229) scale(0.035 -0.035)">
       <defs>
        <path id="Helvetica-54" d="M 3828 4591 
L 3828 4044 
L 2281 4044 
L 2281 0 
L 1650 0 
L 1650 4044 
L 103 4044 
L 103 4591 
L 3828 4591 
z
" transform="scale(0.015625)"/>
        <path id="Helvetica-48" d="M 503 4591 
L 1131 4591 
L 1131 2694 
L 3519 2694 
L 3519 4591 
L 4147 4591 
L 4147 0 
L 3519 0 
L 3519 2147 
L 1131 2147 
L 1131 0 
L 503 0 
L 503 4591 
z
" transform="scale(0.015625)"/>
        <path id="Helvetica-31" d="M 613 3169 
L 613 3600 
Q 1222 3659 1462 3798 
Q 1703 3938 1822 4456 
L 2266 4456 
L 2266 0 
L 1666 0 
L 1666 3169 
L 613 3169 
z
" transform="scale(0.015625)"/>
        <path id="Helvetica-37" d="M 3347 4400 
L 3347 3909 
Q 3131 3700 2773 3181 
Q 2416 2663 2141 2063 
Q 1869 1478 1728 997 
Q 1638 688 1494 0 
L 872 0 
Q 1084 1281 1809 2550 
Q 2238 3294 2709 3834 
L 234 3834 
L 234 4400 
L 3347 4400 
z
" transform="scale(0.015625)"/>
       </defs>
       <use xlink:href="#Helvetica-54"/>
       <use xlink:href="#Helvetica-48" x="61.083984"/>
       <use xlink:href="#Helvetica-31" x="133.300781"/>
       <use xlink:href="#Helvetica-37" x="188.916016"/>
      </g>
     </g>
    </g>
    <g id="xtick_3">
     <g id="text_3">
      <!-- icCD3+ ILC3 -->
      <g style="fill: #333333" transform="translate(59.998056 81.230229) scale(0.035 -0.035)">
       <defs>
        <path id="Helvetica-69" d="M 413 3331 
L 984 3331 
L 984 0 
L 413 0 
L 413 3331 
z
M 413 4591 
L 984 4591 
L 984 3953 
L 413 3953 
L 413 4591 
z
" transform="scale(0.015625)"/>
        <path id="Helvetica-63" d="M 1703 3444 
Q 2269 3444 2623 3169 
Q 2978 2894 3050 2222 
L 2503 2222 
Q 2453 2531 2275 2736 
Q 2097 2941 1703 2941 
Q 1166 2941 934 2416 
Q 784 2075 784 1575 
Q 784 1072 996 728 
Q 1209 384 1666 384 
Q 2016 384 2220 598 
Q 2425 813 2503 1184 
L 3050 1184 
Q 2956 519 2581 211 
Q 2206 -97 1622 -97 
Q 966 -97 575 383 
Q 184 863 184 1581 
Q 184 2463 612 2953 
Q 1041 3444 1703 3444 
z
M 1616 3428 
L 1616 3428 
z
" transform="scale(0.015625)"/>
        <path id="Helvetica-44" d="M 2250 531 
Q 2566 531 2769 597 
Q 3131 719 3363 1066 
Q 3547 1344 3628 1778 
Q 3675 2038 3675 2259 
Q 3675 3113 3336 3584 
Q 2997 4056 2244 4056 
L 1141 4056 
L 1141 531 
L 2250 531 
z
M 516 4591 
L 2375 4591 
Q 3322 4591 3844 3919 
Q 4309 3313 4309 2366 
Q 4309 1634 4034 1044 
Q 3550 0 2369 0 
L 516 0 
L 516 4591 
z
" transform="scale(0.015625)"/>
        <path id="Helvetica-2b" d="M 288 1369 
L 288 1894 
L 1650 1894 
L 1650 3266 
L 2184 3266 
L 2184 1894 
L 3547 1894 
L 3547 1369 
L 2184 1369 
L 2184 0 
L 1650 0 
L 1650 1369 
L 288 1369 
z
" transform="scale(0.015625)"/>
        <path id="Helvetica-20" transform="scale(0.015625)"/>
       </defs>
       <use xlink:href="#Helvetica-69"/>
       <use xlink:href="#Helvetica-63" x="22.216797"/>
       <use xlink:href="#Helvetica-43" x="72.216797"/>
       <use xlink:href="#Helvetica-44" x="144.433594"/>
       <use xlink:href="#Helvetica-33" x="216.650391"/>
       <use xlink:href="#Helvetica-2b" x="272.265625"/>
       <use xlink:href="#Helvetica-20" x="330.664062"/>
       <use xlink:href="#Helvetica-49" x="358.447266"/>
       <use xlink:href="#Helvetica-4c" x="386.230469"/>
       <use xlink:href="#Helvetica-43" x="441.845703"/>
       <use xlink:href="#Helvetica-33" x="514.0625"/>
      </g>
     </g>
    </g>
   </g>
   <g id="matplotlib.axis_2">
    <g id="ytick_1">
     <g id="line2d_1">
      <defs>
       <path id="m3f9356ea00" d="M 0 0 
L -1 0 
" style="stroke: #777777; stroke-width: 0.5"/>
      </defs>
      <g>
       <use xlink:href="#m3f9356ea00" x="10.005084" y="65.703651" style="fill: #777777; stroke: #777777; stroke-width: 0.5"/>
      </g>
     </g>
     <g id="text_4">
      <!-- 0 -->
      <g style="fill: #333333" transform="translate(6.336803 66.779667) scale(0.03 -0.03)">
       <defs>
        <path id="Helvetica-30" d="M 1731 4475 
Q 2600 4475 2988 3759 
Q 3288 3206 3288 2244 
Q 3288 1331 3016 734 
Q 2622 -122 1728 -122 
Q 922 -122 528 578 
Q 200 1163 200 2147 
Q 200 2909 397 3456 
Q 766 4475 1731 4475 
z
M 1725 391 
Q 2163 391 2422 778 
Q 2681 1166 2681 2222 
Q 2681 2984 2493 3476 
Q 2306 3969 1766 3969 
Q 1269 3969 1039 3501 
Q 809 3034 809 2125 
Q 809 1441 956 1025 
Q 1181 391 1725 391 
z
" transform="scale(0.015625)"/>
       </defs>
       <use xlink:href="#Helvetica-30"/>
      </g>
     </g>
    </g>
    <g id="ytick_2">
     <g id="line2d_2">
      <g>
       <use xlink:href="#m3f9356ea00" x="10.005084" y="56.899737" style="fill: #777777; stroke: #777777; stroke-width: 0.5"/>
      </g>
     </g>
     <g id="text_5">
      <!-- 100 -->
      <g style="fill: #333333" transform="translate(3.00024 57.975753) scale(0.03 -0.03)">
       <use xlink:href="#Helvetica-31"/>
       <use xlink:href="#Helvetica-30" x="55.615234"/>
       <use xlink:href="#Helvetica-30" x="111.230469"/>
      </g>
     </g>
    </g>
    <g id="ytick_3">
     <g id="line2d_3">
      <g>
       <use xlink:href="#m3f9356ea00" x="10.005084" y="48.095824" style="fill: #777777; stroke: #777777; stroke-width: 0.5"/>
      </g>
     </g>
     <g id="text_6">
      <!-- 200 -->
      <g style="fill: #333333" transform="translate(3.00024 49.171839) scale(0.03 -0.03)">
       <defs>
        <path id="Helvetica-32" d="M 200 0 
Q 231 578 439 1006 
Q 647 1434 1250 1784 
L 1850 2131 
Q 2253 2366 2416 2531 
Q 2672 2791 2672 3125 
Q 2672 3516 2437 3745 
Q 2203 3975 1813 3975 
Q 1234 3975 1013 3538 
Q 894 3303 881 2888 
L 309 2888 
Q 319 3472 525 3841 
Q 891 4491 1816 4491 
Q 2584 4491 2939 4075 
Q 3294 3659 3294 3150 
Q 3294 2613 2916 2231 
Q 2697 2009 2131 1694 
L 1703 1456 
Q 1397 1288 1222 1134 
Q 909 863 828 531 
L 3272 531 
L 3272 0 
L 200 0 
z
" transform="scale(0.015625)"/>
       </defs>
       <use xlink:href="#Helvetica-32"/>
       <use xlink:href="#Helvetica-30" x="55.615234"/>
       <use xlink:href="#Helvetica-30" x="111.230469"/>
      </g>
     </g>
    </g>
    <g id="ytick_4">
     <g id="line2d_4">
      <g>
       <use xlink:href="#m3f9356ea00" x="10.005084" y="39.29191" style="fill: #777777; stroke: #777777; stroke-width: 0.5"/>
      </g>
     </g>
     <g id="text_7">
      <!-- 300 -->
      <g style="fill: #333333" transform="translate(3.00024 40.367926) scale(0.03 -0.03)">
       <use xlink:href="#Helvetica-33"/>
       <use xlink:href="#Helvetica-30" x="55.615234"/>
       <use xlink:href="#Helvetica-30" x="111.230469"/>
      </g>
     </g>
    </g>
    <g id="ytick_5">
     <g id="line2d_5">
      <g>
       <use xlink:href="#m3f9356ea00" x="10.005084" y="30.487997" style="fill: #777777; stroke: #777777; stroke-width: 0.5"/>
      </g>
     </g>
     <g id="text_8">
      <!-- 400 -->
      <g style="fill: #333333" transform="translate(3.00024 31.564012) scale(0.03 -0.03)">
       <defs>
        <path id="Helvetica-34" d="M 2116 1584 
L 2116 3613 
L 681 1584 
L 2116 1584 
z
M 2125 0 
L 2125 1094 
L 163 1094 
L 163 1644 
L 2213 4488 
L 2688 4488 
L 2688 1584 
L 3347 1584 
L 3347 1094 
L 2688 1094 
L 2688 0 
L 2125 0 
z
" transform="scale(0.015625)"/>
       </defs>
       <use xlink:href="#Helvetica-34"/>
       <use xlink:href="#Helvetica-30" x="55.615234"/>
       <use xlink:href="#Helvetica-30" x="111.230469"/>
      </g>
     </g>
    </g>
    <g id="ytick_6">
     <g id="line2d_6">
      <g>
       <use xlink:href="#m3f9356ea00" x="10.005084" y="21.684083" style="fill: #777777; stroke: #777777; stroke-width: 0.5"/>
      </g>
     </g>
     <g id="text_9">
      <!-- 500 -->
      <g style="fill: #333333" transform="translate(3.00024 22.760099) scale(0.03 -0.03)">
       <defs>
        <path id="Helvetica-35" d="M 791 1141 
Q 847 659 1238 475 
Q 1438 381 1700 381 
Q 2200 381 2440 700 
Q 2681 1019 2681 1406 
Q 2681 1875 2395 2131 
Q 2109 2388 1709 2388 
Q 1419 2388 1211 2275 
Q 1003 2163 856 1963 
L 369 1991 
L 709 4400 
L 3034 4400 
L 3034 3856 
L 1131 3856 
L 941 2613 
Q 1097 2731 1238 2791 
Q 1488 2894 1816 2894 
Q 2431 2894 2859 2497 
Q 3288 2100 3288 1491 
Q 3288 856 2895 371 
Q 2503 -113 1644 -113 
Q 1097 -113 676 195 
Q 256 503 206 1141 
L 791 1141 
z
" transform="scale(0.015625)"/>
       </defs>
       <use xlink:href="#Helvetica-35"/>
       <use xlink:href="#Helvetica-30" x="55.615234"/>
       <use xlink:href="#Helvetica-30" x="111.230469"/>
      </g>
     </g>
    </g>
    <g id="ytick_7">
     <g id="line2d_7">
      <g>
       <use xlink:href="#m3f9356ea00" x="10.005084" y="12.880169" style="fill: #777777; stroke: #777777; stroke-width: 0.5"/>
      </g>
     </g>
     <g id="text_10">
      <!-- 600 -->
      <g style="fill: #333333" transform="translate(3.00024 13.956185) scale(0.03 -0.03)">
       <defs>
        <path id="Helvetica-36" d="M 1872 4494 
Q 2622 4494 2917 4105 
Q 3213 3716 3213 3303 
L 2656 3303 
Q 2606 3569 2497 3719 
Q 2294 4000 1881 4000 
Q 1409 4000 1131 3564 
Q 853 3128 822 2316 
Q 1016 2600 1309 2741 
Q 1578 2866 1909 2866 
Q 2472 2866 2890 2506 
Q 3309 2147 3309 1434 
Q 3309 825 2912 354 
Q 2516 -116 1781 -116 
Q 1153 -116 697 361 
Q 241 838 241 1966 
Q 241 2800 444 3381 
Q 834 4494 1872 4494 
z
M 1831 384 
Q 2275 384 2495 682 
Q 2716 981 2716 1388 
Q 2716 1731 2519 2042 
Q 2322 2353 1803 2353 
Q 1441 2353 1167 2112 
Q 894 1872 894 1388 
Q 894 963 1142 673 
Q 1391 384 1831 384 
z
" transform="scale(0.015625)"/>
       </defs>
       <use xlink:href="#Helvetica-36"/>
       <use xlink:href="#Helvetica-30" x="55.615234"/>
       <use xlink:href="#Helvetica-30" x="111.230469"/>
      </g>
     </g>
    </g>
    <g id="ytick_8">
     <g id="line2d_8">
      <g>
       <use xlink:href="#m3f9356ea00" x="10.005084" y="4.076256" style="fill: #777777; stroke: #777777; stroke-width: 0.5"/>
      </g>
     </g>
     <g id="text_11">
      <!-- 700 -->
      <g style="fill: #333333" transform="translate(3.00024 5.152271) scale(0.03 -0.03)">
       <use xlink:href="#Helvetica-37"/>
       <use xlink:href="#Helvetica-30" x="55.615234"/>
       <use xlink:href="#Helvetica-30" x="111.230469"/>
      </g>
     </g>
    </g>
   </g>
   <g id="PolyCollection_1">
    <defs>
     <path id="mfbc0721dce" d="M 23.955239 -14.033868 
L 20.039821 -14.033868 
L 19.659501 -14.466242 
L 19.236828 -14.898616 
L 18.774252 -15.330989 
L 18.275921 -15.763363 
L 17.74771 -16.195737 
L 17.197145 -16.628111 
L 16.633223 -17.060484 
L 16.066121 -17.492858 
L 15.506814 -17.925232 
L 14.966621 -18.357605 
L 14.456707 -18.789979 
L 13.987572 -19.222353 
L 13.568571 -19.654727 
L 13.2075 -20.0871 
L 12.910266 -20.519474 
L 12.680679 -20.951848 
L 12.520371 -21.384222 
L 12.428831 -21.816595 
L 12.403573 -22.248969 
L 12.440381 -22.681343 
L 12.533635 -23.113716 
L 12.676676 -23.54609 
L 12.86217 -23.978464 
L 13.082466 -24.410838 
L 13.329908 -24.843211 
L 13.597102 -25.275585 
L 13.877115 -25.707959 
L 14.163626 -26.140333 
L 14.451017 -26.572706 
L 14.734428 -27.00508 
L 15.00977 -27.437454 
L 15.273724 -27.869827 
L 15.523721 -28.302201 
L 15.757916 -28.734575 
L 15.975152 -29.166949 
L 16.174929 -29.599322 
L 16.35736 -30.031696 
L 16.523129 -30.46407 
L 16.673442 -30.896443 
L 16.809966 -31.328817 
L 16.934768 -31.761191 
L 17.050242 -32.193565 
L 17.159032 -32.625938 
L 17.263946 -33.058312 
L 17.367866 -33.490686 
L 17.473651 -33.92306 
L 17.58404 -34.355433 
L 17.701546 -34.787807 
L 17.828355 -35.220181 
L 17.966225 -35.652554 
L 18.116397 -36.084928 
L 18.279514 -36.517302 
L 18.455569 -36.949676 
L 18.643871 -37.382049 
L 18.843045 -37.814423 
L 19.051066 -38.246797 
L 19.265316 -38.67917 
L 19.482688 -39.111544 
L 19.699694 -39.543918 
L 19.912606 -39.976292 
L 20.117595 -40.408665 
L 20.310874 -40.841039 
L 20.48883 -41.273413 
L 20.648144 -41.705787 
L 20.78589 -42.13816 
L 20.899621 -42.570534 
L 20.987425 -43.002908 
L 21.047977 -43.435281 
L 21.080575 -43.867655 
L 21.085164 -44.300029 
L 21.062358 -44.732403 
L 21.013449 -45.164776 
L 20.94042 -45.59715 
L 20.84593 -46.029524 
L 20.733296 -46.461898 
L 20.606442 -46.894271 
L 20.469826 -47.326645 
L 20.328331 -47.759019 
L 20.187123 -48.191392 
L 20.051475 -48.623766 
L 19.926576 -49.05614 
L 19.817309 -49.488514 
L 19.728044 -49.920887 
L 19.662428 -50.353261 
L 19.62322 -50.785635 
L 19.612154 -51.218008 
L 19.629862 -51.650382 
L 19.675862 -52.082756 
L 19.748603 -52.51513 
L 19.845573 -52.947503 
L 19.963457 -53.379877 
L 20.098342 -53.812251 
L 20.245931 -54.244625 
L 20.401785 -54.676998 
L 20.561534 -55.109372 
L 20.721083 -55.541746 
L 20.876775 -55.974119 
L 21.025505 -56.406493 
L 21.164804 -56.838867 
L 22.830255 -56.838867 
L 22.830255 -56.838867 
L 22.969554 -56.406493 
L 23.118285 -55.974119 
L 23.273976 -55.541746 
L 23.433526 -55.109372 
L 23.593275 -54.676998 
L 23.749128 -54.244625 
L 23.896718 -53.812251 
L 24.031602 -53.379877 
L 24.149487 -52.947503 
L 24.246456 -52.51513 
L 24.319197 -52.082756 
L 24.365197 -51.650382 
L 24.382906 -51.218008 
L 24.371839 -50.785635 
L 24.332631 -50.353261 
L 24.267016 -49.920887 
L 24.17775 -49.488514 
L 24.068484 -49.05614 
L 23.943584 -48.623766 
L 23.807937 -48.191392 
L 23.666728 -47.759019 
L 23.525233 -47.326645 
L 23.388618 -46.894271 
L 23.261764 -46.461898 
L 23.14913 -46.029524 
L 23.05464 -45.59715 
L 22.98161 -45.164776 
L 22.932702 -44.732403 
L 22.909895 -44.300029 
L 22.914484 -43.867655 
L 22.947083 -43.435281 
L 23.007635 -43.002908 
L 23.095439 -42.570534 
L 23.209169 -42.13816 
L 23.346916 -41.705787 
L 23.50623 -41.273413 
L 23.684186 -40.841039 
L 23.877464 -40.408665 
L 24.082453 -39.976292 
L 24.295366 -39.543918 
L 24.512372 -39.111544 
L 24.729743 -38.67917 
L 24.943994 -38.246797 
L 25.152014 -37.814423 
L 25.351189 -37.382049 
L 25.539491 -36.949676 
L 25.715546 -36.517302 
L 25.878663 -36.084928 
L 26.028834 -35.652554 
L 26.166704 -35.220181 
L 26.293514 -34.787807 
L 26.41102 -34.355433 
L 26.521409 -33.92306 
L 26.627194 -33.490686 
L 26.731113 -33.058312 
L 26.836027 -32.625938 
L 26.944817 -32.193565 
L 27.060292 -31.761191 
L 27.185094 -31.328817 
L 27.321618 -30.896443 
L 27.471931 -30.46407 
L 27.6377 -30.031696 
L 27.820131 -29.599322 
L 28.019908 -29.166949 
L 28.237144 -28.734575 
L 28.471338 -28.302201 
L 28.721336 -27.869827 
L 28.98529 -27.437454 
L 29.260632 -27.00508 
L 29.544042 -26.572706 
L 29.831434 -26.140333 
L 30.117945 -25.707959 
L 30.397958 -25.275585 
L 30.665151 -24.843211 
L 30.912594 -24.410838 
L 31.13289 -23.978464 
L 31.318383 -23.54609 
L 31.461424 -23.113716 
L 31.554679 -22.681343 
L 31.591487 -22.248969 
L 31.566228 -21.816595 
L 31.474689 -21.384222 
L 31.31438 -20.951848 
L 31.084794 -20.519474 
L 30.78756 -20.0871 
L 30.426488 -19.654727 
L 30.007488 -19.222353 
L 29.538352 -18.789979 
L 29.028438 -18.357605 
L 28.488246 -17.925232 
L 27.928939 -17.492858 
L 27.361836 -17.060484 
L 26.797914 -16.628111 
L 26.24735 -16.195737 
L 25.719138 -15.763363 
L 25.220807 -15.330989 
L 24.758231 -14.898616 
L 24.335558 -14.466242 
L 23.955239 -14.033868 
z
" style="stroke: #7c7c7c; stroke-width: 0.15"/>
    </defs>
    <g clip-path="url(#p7b2ee258fb)">
     <use xlink:href="#mfbc0721dce" x="0" y="84.96" style="fill: #cfcfcf; stroke: #7c7c7c; stroke-width: 0.15"/>
    </g>
   </g>
   <g id="PolyCollection_2">
    <defs>
     <path id="m9595311a95" d="M 47.140377 -14.995531 
L 44.824467 -14.995531 
L 44.599061 -15.291682 
L 44.343233 -15.587833 
L 44.055777 -15.883985 
L 43.736043 -16.180136 
L 43.384054 -16.476287 
L 43.000603 -16.772439 
L 42.587339 -17.06859 
L 42.146835 -17.364741 
L 41.682627 -17.660893 
L 41.199225 -17.957044 
L 40.702086 -18.253195 
L 40.197553 -18.549347 
L 39.692754 -18.845498 
L 39.195461 -19.141649 
L 38.71392 -19.437801 
L 38.256638 -19.733952 
L 37.832157 -20.030103 
L 37.448805 -20.326255 
L 37.114437 -20.622406 
L 36.836179 -20.918557 
L 36.620186 -21.214709 
L 36.471428 -21.51086 
L 36.393495 -21.807011 
L 36.388465 -22.103163 
L 36.456809 -22.399314 
L 36.597357 -22.695465 
L 36.807324 -22.991617 
L 37.082391 -23.287768 
L 37.41685 -23.583919 
L 37.80379 -23.880071 
L 38.235331 -24.176222 
L 38.702888 -24.472373 
L 39.197451 -24.768525 
L 39.709873 -25.064676 
L 40.231155 -25.360827 
L 40.752699 -25.656979 
L 41.266548 -25.95313 
L 41.765568 -26.249281 
L 42.243599 -26.545433 
L 42.695548 -26.841584 
L 43.117434 -27.137735 
L 43.506386 -27.433887 
L 43.860595 -27.730038 
L 44.179228 -28.026189 
L 44.462317 -28.322341 
L 44.710615 -28.618492 
L 44.925454 -28.914643 
L 45.108587 -29.210795 
L 45.262036 -29.506946 
L 45.387953 -29.803097 
L 45.488491 -30.099249 
L 45.5657 -30.3954 
L 45.62144 -30.691551 
L 45.657318 -30.987703 
L 45.674653 -31.283854 
L 45.67446 -31.580005 
L 45.657461 -31.876157 
L 45.624109 -32.172308 
L 45.574643 -32.468459 
L 45.509145 -32.764611 
L 45.42762 -33.060762 
L 45.330081 -33.356913 
L 45.216636 -33.653065 
L 45.087581 -33.949216 
L 44.943487 -34.245367 
L 44.785271 -34.541519 
L 44.614267 -34.83767 
L 44.432264 -35.133821 
L 44.241528 -35.429973 
L 44.044799 -35.726124 
L 43.845261 -36.022275 
L 43.646476 -36.318427 
L 43.452304 -36.614578 
L 43.266786 -36.910729 
L 43.09402 -37.206881 
L 42.938013 -37.503032 
L 42.802534 -37.799183 
L 42.690964 -38.095335 
L 42.606162 -38.391486 
L 42.550346 -38.687637 
L 42.524992 -38.983789 
L 42.530777 -39.27994 
L 42.567549 -39.576091 
L 42.634328 -39.872243 
L 42.729357 -40.168394 
L 42.850171 -40.464545 
L 42.993706 -40.760697 
L 43.156426 -41.056848 
L 43.334466 -41.352999 
L 43.523781 -41.649151 
L 43.720298 -41.945302 
L 43.920056 -42.241453 
L 44.119332 -42.537605 
L 44.314751 -42.833756 
L 44.503367 -43.129907 
L 44.682717 -43.426059 
L 44.850855 -43.72221 
L 45.006357 -44.018361 
L 45.148304 -44.314513 
L 46.81654 -44.314513 
L 46.81654 -44.314513 
L 46.958486 -44.018361 
L 47.113989 -43.72221 
L 47.282127 -43.426059 
L 47.461477 -43.129907 
L 47.650092 -42.833756 
L 47.845512 -42.537605 
L 48.044788 -42.241453 
L 48.244545 -41.945302 
L 48.441062 -41.649151 
L 48.630378 -41.352999 
L 48.808418 -41.056848 
L 48.971138 -40.760697 
L 49.114673 -40.464545 
L 49.235487 -40.168394 
L 49.330516 -39.872243 
L 49.397295 -39.576091 
L 49.434066 -39.27994 
L 49.439852 -38.983789 
L 49.414498 -38.687637 
L 49.358681 -38.391486 
L 49.27388 -38.095335 
L 49.16231 -37.799183 
L 49.02683 -37.503032 
L 48.870823 -37.206881 
L 48.698057 -36.910729 
L 48.51254 -36.614578 
L 48.318367 -36.318427 
L 48.119583 -36.022275 
L 47.920044 -35.726124 
L 47.723316 -35.429973 
L 47.53258 -35.133821 
L 47.350576 -34.83767 
L 47.179573 -34.541519 
L 47.021357 -34.245367 
L 46.877263 -33.949216 
L 46.748208 -33.653065 
L 46.634763 -33.356913 
L 46.537224 -33.060762 
L 46.455699 -32.764611 
L 46.390201 -32.468459 
L 46.340735 -32.172308 
L 46.307383 -31.876157 
L 46.290383 -31.580005 
L 46.290191 -31.283854 
L 46.307526 -30.987703 
L 46.343404 -30.691551 
L 46.399143 -30.3954 
L 46.476353 -30.099249 
L 46.576891 -29.803097 
L 46.702808 -29.506946 
L 46.856257 -29.210795 
L 47.03939 -28.914643 
L 47.254229 -28.618492 
L 47.502527 -28.322341 
L 47.785615 -28.026189 
L 48.104249 -27.730038 
L 48.458457 -27.433887 
L 48.847409 -27.137735 
L 49.269295 -26.841584 
L 49.721244 -26.545433 
L 50.199275 -26.249281 
L 50.698296 -25.95313 
L 51.212144 -25.656979 
L 51.733689 -25.360827 
L 52.25497 -25.064676 
L 52.767393 -24.768525 
L 53.261956 -24.472373 
L 53.729512 -24.176222 
L 54.161054 -23.880071 
L 54.547994 -23.583919 
L 54.882453 -23.287768 
L 55.15752 -22.991617 
L 55.367486 -22.695465 
L 55.508035 -22.399314 
L 55.576379 -22.103163 
L 55.571349 -21.807011 
L 55.493416 -21.51086 
L 55.344657 -21.214709 
L 55.128665 -20.918557 
L 54.850407 -20.622406 
L 54.516038 -20.326255 
L 54.132687 -20.030103 
L 53.708206 -19.733952 
L 53.250924 -19.437801 
L 52.769382 -19.141649 
L 52.27209 -18.845498 
L 51.767291 -18.549347 
L 51.262758 -18.253195 
L 50.765619 -17.957044 
L 50.282217 -17.660893 
L 49.818009 -17.364741 
L 49.377505 -17.06859 
L 48.964241 -16.772439 
L 48.580789 -16.476287 
L 48.228801 -16.180136 
L 47.909067 -15.883985 
L 47.62161 -15.587833 
L 47.365783 -15.291682 
L 47.140377 -14.995531 
z
" style="stroke: #7c7c7c; stroke-width: 0.15"/>
    </defs>
    <g clip-path="url(#p7b2ee258fb)">
     <use xlink:href="#m9595311a95" x="0" y="84.96" style="fill: #f3f3ae; stroke: #7c7c7c; stroke-width: 0.15"/>
    </g>
   </g>
   <g id="PolyCollection_3">
    <defs>
     <path id="m6447178d80" d="M 72.173376 -18.789307 
L 67.761252 -18.789307 
L 67.367965 -18.822781 
L 66.934975 -18.856256 
L 66.464826 -18.889731 
L 65.96158 -18.923205 
L 65.430868 -18.95668 
L 64.879863 -18.990155 
L 64.317171 -19.023629 
L 63.752645 -19.057104 
L 63.197111 -19.090579 
L 62.66203 -19.124053 
L 62.1591 -19.157528 
L 61.699825 -19.191002 
L 61.295067 -19.224477 
L 60.954609 -19.257952 
L 60.686763 -19.291426 
L 60.498028 -19.324901 
L 60.39283 -19.358376 
L 60.373357 -19.39185 
L 60.439497 -19.425325 
L 60.588869 -19.4588 
L 60.816967 -19.492274 
L 61.117375 -19.525749 
L 61.482065 -19.559224 
L 61.901743 -19.592698 
L 62.366223 -19.626173 
L 62.864819 -19.659648 
L 63.386719 -19.693122 
L 63.921337 -19.726597 
L 64.45862 -19.760072 
L 64.989304 -19.793546 
L 65.505112 -19.827021 
L 65.998887 -19.860496 
L 66.464667 -19.89397 
L 66.897708 -19.927445 
L 67.294449 -19.96092 
L 67.652445 -19.994394 
L 67.970268 -20.027869 
L 68.247391 -20.061343 
L 68.484051 -20.094818 
L 68.681133 -20.128293 
L 68.840037 -20.161767 
L 68.962582 -20.195242 
L 69.050908 -20.228717 
L 69.107414 -20.262191 
L 69.134704 -20.295666 
L 69.135558 -20.329141 
L 69.112907 -20.362615 
L 69.069831 -20.39609 
L 69.009541 -20.429565 
L 68.935371 -20.463039 
L 68.850754 -20.496514 
L 68.759186 -20.529989 
L 68.664172 -20.563463 
L 68.569156 -20.596938 
L 68.477432 -20.630413 
L 68.39205 -20.663887 
L 68.315709 -20.697362 
L 68.250651 -20.730837 
L 68.198569 -20.764311 
L 68.16053 -20.797786 
L 68.13692 -20.831261 
L 68.127428 -20.864735 
L 68.131057 -20.89821 
L 68.146179 -20.931684 
L 68.170624 -20.965159 
L 68.201805 -20.998634 
L 68.236866 -21.032108 
L 68.272847 -21.065583 
L 68.306864 -21.099058 
L 68.336281 -21.132532 
L 68.358868 -21.166007 
L 68.372939 -21.199482 
L 68.377452 -21.232956 
L 68.372076 -21.266431 
L 68.357209 -21.299906 
L 68.333958 -21.33338 
L 68.304066 -21.366855 
L 68.269811 -21.40033 
L 68.23387 -21.433804 
L 68.199153 -21.467279 
L 68.168636 -21.500754 
L 68.145189 -21.534228 
L 68.13141 -21.567703 
L 68.12948 -21.601178 
L 68.141054 -21.634652 
L 68.16718 -21.668127 
L 68.208256 -21.701602 
L 68.264029 -21.735076 
L 68.333636 -21.768551 
L 68.41567 -21.802026 
L 68.508277 -21.8355 
L 68.609274 -21.868975 
L 68.716275 -21.902449 
L 68.826814 -21.935924 
L 68.938468 -21.969399 
L 69.048964 -22.002873 
L 69.156265 -22.036348 
L 69.258632 -22.069823 
L 69.354671 -22.103297 
L 70.579957 -22.103297 
L 70.579957 -22.103297 
L 70.675996 -22.069823 
L 70.778363 -22.036348 
L 70.885664 -22.002873 
L 70.99616 -21.969399 
L 71.107814 -21.935924 
L 71.218353 -21.902449 
L 71.325353 -21.868975 
L 71.426351 -21.8355 
L 71.518958 -21.802026 
L 71.600992 -21.768551 
L 71.670599 -21.735076 
L 71.726372 -21.701602 
L 71.767448 -21.668127 
L 71.793574 -21.634652 
L 71.805148 -21.601178 
L 71.803218 -21.567703 
L 71.789438 -21.534228 
L 71.765992 -21.500754 
L 71.735475 -21.467279 
L 71.700758 -21.433804 
L 71.664816 -21.40033 
L 71.630562 -21.366855 
L 71.60067 -21.33338 
L 71.577419 -21.299906 
L 71.562552 -21.266431 
L 71.557176 -21.232956 
L 71.561689 -21.199482 
L 71.57576 -21.166007 
L 71.598347 -21.132532 
L 71.627764 -21.099058 
L 71.661781 -21.065583 
L 71.697762 -21.032108 
L 71.732823 -20.998634 
L 71.764004 -20.965159 
L 71.788449 -20.931684 
L 71.803571 -20.89821 
L 71.8072 -20.864735 
L 71.797707 -20.831261 
L 71.774098 -20.797786 
L 71.736059 -20.764311 
L 71.683977 -20.730837 
L 71.618919 -20.697362 
L 71.542577 -20.663887 
L 71.457196 -20.630413 
L 71.365472 -20.596938 
L 71.270456 -20.563463 
L 71.175442 -20.529989 
L 71.083874 -20.496514 
L 70.999257 -20.463039 
L 70.925087 -20.429565 
L 70.864797 -20.39609 
L 70.82172 -20.362615 
L 70.79907 -20.329141 
L 70.799923 -20.295666 
L 70.827214 -20.262191 
L 70.88372 -20.228717 
L 70.972046 -20.195242 
L 71.094591 -20.161767 
L 71.253495 -20.128293 
L 71.450577 -20.094818 
L 71.687237 -20.061343 
L 71.964359 -20.027869 
L 72.282183 -19.994394 
L 72.640179 -19.96092 
L 73.03692 -19.927445 
L 73.46996 -19.89397 
L 73.935741 -19.860496 
L 74.429516 -19.827021 
L 74.945324 -19.793546 
L 75.476008 -19.760072 
L 76.013291 -19.726597 
L 76.547908 -19.693122 
L 77.069808 -19.659648 
L 77.568404 -19.626173 
L 78.032885 -19.592698 
L 78.452563 -19.559224 
L 78.817253 -19.525749 
L 79.117661 -19.492274 
L 79.345759 -19.4588 
L 79.495131 -19.425325 
L 79.561271 -19.39185 
L 79.541798 -19.358376 
L 79.4366 -19.324901 
L 79.247865 -19.291426 
L 78.980019 -19.257952 
L 78.639561 -19.224477 
L 78.234802 -19.191002 
L 77.775528 -19.157528 
L 77.272598 -19.124053 
L 76.737517 -19.090579 
L 76.181983 -19.057104 
L 75.617457 -19.023629 
L 75.054765 -18.990155 
L 74.503759 -18.95668 
L 73.973048 -18.923205 
L 73.469802 -18.889731 
L 72.999653 -18.856256 
L 72.566663 -18.822781 
L 72.173376 -18.789307 
z
" style="stroke: #7c7c7c; stroke-width: 0.15"/>
    </defs>
    <g clip-path="url(#p7b2ee258fb)">
     <use xlink:href="#m6447178d80" x="0" y="84.96" style="fill: #c0ebe9; stroke: #7c7c7c; stroke-width: 0.15"/>
    </g>
   </g>
   <g id="line2d_9">
    <path d="M 21.99753 65.273618 
L 21.99753 33.773646 
" clip-path="url(#p7b2ee258fb)" style="fill: none; stroke: #8c8c8c; stroke-width: 0.75; stroke-linecap: round"/>
   </g>
   <g id="line2d_10">
    <path d="M 21.99753 64.087374 
L 21.99753 51.769495 
" clip-path="url(#p7b2ee258fb)" style="fill: none; stroke: #8c8c8c; stroke-width: 4; stroke-linecap: round"/>
   </g>
   <g id="line2d_11">
    <path d="M 21.99753 59.156105 
" clip-path="url(#p7b2ee258fb)" style="fill: none; stroke: #7c7c7c; stroke-width: 1.2; stroke-linecap: round"/>
    <defs>
     <path id="me973b76676" d="M 0 0.833333 
C 0.221003 0.833333 0.432983 0.745528 0.589256 0.589256 
C 0.745528 0.432983 0.833333 0.221003 0.833333 0 
C 0.833333 -0.221003 0.745528 -0.432983 0.589256 -0.589256 
C 0.432983 -0.745528 0.221003 -0.833333 0 -0.833333 
C -0.221003 -0.833333 -0.432983 -0.745528 -0.589256 -0.589256 
C -0.745528 -0.432983 -0.833333 -0.221003 -0.833333 0 
C -0.833333 0.221003 -0.745528 0.432983 -0.589256 0.589256 
C -0.432983 0.745528 -0.221003 0.833333 0 0.833333 
z
" style="stroke: #ffffff; stroke-width: 0.8"/>
    </defs>
    <g clip-path="url(#p7b2ee258fb)">
     <use xlink:href="#me973b76676" x="21.99753" y="59.156105" style="fill: #ffffff; stroke: #ffffff; stroke-width: 0.8"/>
    </g>
   </g>
   <g id="line2d_12">
    <path d="M 45.982422 65.703651 
L 45.982422 57.621133 
" clip-path="url(#p7b2ee258fb)" style="fill: none; stroke: #8c8c8c; stroke-width: 0.75; stroke-linecap: round"/>
   </g>
   <g id="line2d_13">
    <path d="M 45.982422 63.469105 
L 45.982422 57.621133 
" clip-path="url(#p7b2ee258fb)" style="fill: none; stroke: #8c8c8c; stroke-width: 4; stroke-linecap: round"/>
   </g>
   <g id="line2d_14">
    <path d="M 45.982422 62.054694 
" clip-path="url(#p7b2ee258fb)" style="fill: none; stroke: #7c7c7c; stroke-width: 1.2; stroke-linecap: round"/>
    <g clip-path="url(#p7b2ee258fb)">
     <use xlink:href="#me973b76676" x="45.982422" y="62.054694" style="fill: #ffffff; stroke: #ffffff; stroke-width: 0.8"/>
    </g>
   </g>
   <g id="line2d_15">
    <path d="M 69.967314 65.703651 
L 69.967314 64.133323 
" clip-path="url(#p7b2ee258fb)" style="fill: none; stroke: #8c8c8c; stroke-width: 0.75; stroke-linecap: round"/>
   </g>
   <g id="line2d_16">
    <path d="M 69.967314 65.658779 
L 69.967314 65.016767 
" clip-path="url(#p7b2ee258fb)" style="fill: none; stroke: #8c8c8c; stroke-width: 4; stroke-linecap: round"/>
   </g>
   <g id="line2d_17">
    <path d="M 69.967314 65.518941 
" clip-path="url(#p7b2ee258fb)" style="fill: none; stroke: #7c7c7c; stroke-width: 1.2; stroke-linecap: round"/>
    <g clip-path="url(#p7b2ee258fb)">
     <use xlink:href="#me973b76676" x="69.967314" y="65.518941" style="fill: #ffffff; stroke: #ffffff; stroke-width: 0.8"/>
    </g>
   </g>
   <g id="patch_3">
    <path d="M 10.005084 74.419526 
L 10.005084 4.076256 
" style="fill: none; stroke: #777777; stroke-width: 0.5; stroke-linejoin: miter; stroke-linecap: square"/>
   </g>
   <g id="patch_4">
    <path d="M 10.005084 76.919526 
L 81.95976 76.919526 
" style="fill: none; stroke: #777777; stroke-width: 0.5; stroke-linejoin: miter; stroke-linecap: square"/>
   </g>
  </g>
 </g>
 <defs>
  <clipPath id="p7b2ee258fb">
   <rect x="10.005084" y="4.076256" width="71.954676" height="70.34327"/>
  </clipPath>
 </defs>
</svg>
