<?xml version="1.0" encoding="utf-8" standalone="no"?>
<!DOCTYPE svg PUBLIC "-//W3C//DTD SVG 1.1//EN"
  "http://www.w3.org/Graphics/SVG/1.1/DTD/svg11.dtd">
<svg xmlns:xlink="http://www.w3.org/1999/xlink" width="84.96pt" height="84.96pt" viewBox="0 0 84.96 84.96" xmlns="http://www.w3.org/2000/svg" version="1.1">
 <metadata>
  <rdf:RDF xmlns:dc="http://purl.org/dc/elements/1.1/" xmlns:cc="http://creativecommons.org/ns#" xmlns:rdf="http://www.w3.org/1999/02/22-rdf-syntax-ns#">
   <cc:Work>
    <dc:type rdf:resource="http://purl.org/dc/dcmitype/StillImage"/>
    <dc:date>2024-05-27T15:37:17.395444</dc:date>
    <dc:format>image/svg+xml</dc:format>
    <dc:creator>
     <cc:Agent>
      <dc:title>Matplotlib v3.8.3, https://matplotlib.org/</dc:title>
     </cc:Agent>
    </dc:creator>
   </cc:Work>
  </rdf:RDF>
 </metadata>
 <defs>
  <style type="text/css">*{stroke-linejoin: round; stroke-linecap: butt}</style>
 </defs>
 <g id="figure_1">
  <g id="patch_1">
   <path d="M 0 84.96 
L 84.96 84.96 
L 84.96 0 
L 0 0 
z
" style="fill: #ffffff"/>
  </g>
  <g id="axes_1">
   <g id="patch_2">
    <path d="M 10.005084 74.419526 
L 81.95976 74.419526 
L 81.95976 4.076256 
L 10.005084 4.076256 
z
" style="fill: #ffffff"/>
   </g>
   <g id="matplotlib.axis_1">
    <g id="xtick_1">
     <g id="text_1">
      <!-- TdT+ Cells -->
      <g style="fill: #333333" transform="translate(13.488702 81.230229) scale(0.035 -0.035)">
       <defs>
        <path id="Helvetica-54" d="M 3828 4591 
L 3828 4044 
L 2281 4044 
L 2281 0 
L 1650 0 
L 1650 4044 
L 103 4044 
L 103 4591 
L 3828 4591 
z
" transform="scale(0.015625)"/>
        <path id="Helvetica-64" d="M 769 1634 
Q 769 1097 997 734 
Q 1225 372 1728 372 
Q 2119 372 2370 708 
Q 2622 1044 2622 1672 
Q 2622 2306 2362 2611 
Q 2103 2916 1722 2916 
Q 1297 2916 1033 2591 
Q 769 2266 769 1634 
z
M 1616 3406 
Q 2000 3406 2259 3244 
Q 2409 3150 2600 2916 
L 2600 4606 
L 3141 4606 
L 3141 0 
L 2634 0 
L 2634 466 
Q 2438 156 2169 18 
Q 1900 -119 1553 -119 
Q 994 -119 584 351 
Q 175 822 175 1603 
Q 175 2334 548 2870 
Q 922 3406 1616 3406 
z
" transform="scale(0.015625)"/>
        <path id="Helvetica-2b" d="M 288 1369 
L 288 1894 
L 1650 1894 
L 1650 3266 
L 2184 3266 
L 2184 1894 
L 3547 1894 
L 3547 1369 
L 2184 1369 
L 2184 0 
L 1650 0 
L 1650 1369 
L 288 1369 
z
" transform="scale(0.015625)"/>
        <path id="Helvetica-20" transform="scale(0.015625)"/>
        <path id="Helvetica-43" d="M 2422 4716 
Q 3294 4716 3775 4256 
Q 4256 3797 4309 3213 
L 3703 3213 
Q 3600 3656 3292 3915 
Q 2984 4175 2428 4175 
Q 1750 4175 1333 3698 
Q 916 3222 916 2238 
Q 916 1431 1292 929 
Q 1669 428 2416 428 
Q 3103 428 3463 956 
Q 3653 1234 3747 1688 
L 4353 1688 
Q 4272 963 3816 472 
Q 3269 -119 2341 -119 
Q 1541 -119 997 366 
Q 281 1006 281 2344 
Q 281 3359 819 4009 
Q 1400 4716 2422 4716 
z
M 2297 4716 
L 2297 4716 
z
" transform="scale(0.015625)"/>
        <path id="Helvetica-65" d="M 1806 3422 
Q 2163 3422 2497 3255 
Q 2831 3088 3006 2822 
Q 3175 2569 3231 2231 
Q 3281 2000 3281 1494 
L 828 1494 
Q 844 984 1069 676 
Q 1294 369 1766 369 
Q 2206 369 2469 659 
Q 2619 828 2681 1050 
L 3234 1050 
Q 3213 866 3089 639 
Q 2966 413 2813 269 
Q 2556 19 2178 -69 
Q 1975 -119 1719 -119 
Q 1094 -119 659 336 
Q 225 791 225 1609 
Q 225 2416 662 2919 
Q 1100 3422 1806 3422 
z
M 2703 1941 
Q 2669 2306 2544 2525 
Q 2313 2931 1772 2931 
Q 1384 2931 1121 2651 
Q 859 2372 844 1941 
L 2703 1941 
z
M 1753 3428 
L 1753 3428 
z
" transform="scale(0.015625)"/>
        <path id="Helvetica-6c" d="M 428 4591 
L 991 4591 
L 991 0 
L 428 0 
L 428 4591 
z
" transform="scale(0.015625)"/>
        <path id="Helvetica-73" d="M 747 1050 
Q 772 769 888 619 
Q 1100 347 1625 347 
Q 1938 347 2175 483 
Q 2413 619 2413 903 
Q 2413 1119 2222 1231 
Q 2100 1300 1741 1391 
L 1294 1503 
Q 866 1609 663 1741 
Q 300 1969 300 2372 
Q 300 2847 642 3140 
Q 984 3434 1563 3434 
Q 2319 3434 2653 2991 
Q 2863 2709 2856 2384 
L 2325 2384 
Q 2309 2575 2191 2731 
Q 1997 2953 1519 2953 
Q 1200 2953 1036 2831 
Q 872 2709 872 2509 
Q 872 2291 1088 2159 
Q 1213 2081 1456 2022 
L 1828 1931 
Q 2434 1784 2641 1647 
Q 2969 1431 2969 969 
Q 2969 522 2630 197 
Q 2291 -128 1597 -128 
Q 850 -128 539 211 
Q 228 550 206 1050 
L 747 1050 
z
M 1578 3428 
L 1578 3428 
z
" transform="scale(0.015625)"/>
       </defs>
       <use xlink:href="#Helvetica-54"/>
       <use xlink:href="#Helvetica-64" x="61.083984"/>
       <use xlink:href="#Helvetica-54" x="116.699219"/>
       <use xlink:href="#Helvetica-2b" x="177.783203"/>
       <use xlink:href="#Helvetica-20" x="236.181641"/>
       <use xlink:href="#Helvetica-43" x="263.964844"/>
       <use xlink:href="#Helvetica-65" x="336.181641"/>
       <use xlink:href="#Helvetica-6c" x="391.796875"/>
       <use xlink:href="#Helvetica-6c" x="414.013672"/>
       <use xlink:href="#Helvetica-73" x="436.230469"/>
      </g>
     </g>
    </g>
    <g id="xtick_2">
     <g id="text_2">
      <!-- TCRαδ+ Cells -->
      <g style="fill: #333333" transform="translate(34.850234 81.230229) scale(0.035 -0.035)">
       <defs>
        <path id="Helvetica-52" d="M 2622 2488 
Q 3059 2488 3314 2663 
Q 3569 2838 3569 3294 
Q 3569 3784 3213 3963 
Q 3022 4056 2703 4056 
L 1184 4056 
L 1184 2488 
L 2622 2488 
z
M 563 4591 
L 2688 4591 
Q 3213 4591 3553 4438 
Q 4200 4144 4200 3353 
Q 4200 2941 4029 2678 
Q 3859 2416 3553 2256 
Q 3822 2147 3958 1969 
Q 4094 1791 4109 1391 
L 4131 775 
Q 4141 513 4175 384 
Q 4231 166 4375 103 
L 4375 0 
L 3613 0 
Q 3581 59 3562 153 
Q 3544 247 3531 516 
L 3494 1281 
Q 3472 1731 3159 1884 
Q 2981 1969 2600 1969 
L 1184 1969 
L 1184 0 
L 563 0 
L 563 4591 
z
" transform="scale(0.015625)"/>
        <path id="Helvetica-3b1" d="M 3347 703 
Q 3334 428 3525 434 
Q 3641 434 3700 475 
L 3700 -19 
Q 3628 -44 3513 -50 
Q 3391 -63 3309 -63 
Q 3084 -56 2956 103 
Q 2816 256 2816 475 
L 2803 475 
Q 2413 -63 1734 -63 
Q 1006 -50 647 459 
Q 281 953 281 1644 
Q 281 2350 634 2859 
Q 984 3378 1741 3391 
Q 2413 3391 2797 2847 
L 2809 2847 
L 2809 3328 
L 3347 3328 
L 3347 703 
z
M 1825 397 
Q 2075 397 2253 513 
Q 2425 622 2541 806 
Q 2766 1184 2766 1638 
Q 2766 2144 2559 2528 
Q 2350 2919 1797 2931 
Q 1306 2919 1081 2534 
Q 856 2156 856 1697 
Q 856 1209 1081 819 
Q 1306 409 1825 397 
z
" transform="scale(0.015625)"/>
        <path id="Helvetica-3b4" d="M 666 4519 
L 3188 4519 
L 3188 4056 
L 1394 4056 
L 1394 4044 
L 2509 3303 
Q 3134 2881 3372 2469 
Q 3591 2053 3584 1600 
Q 3578 934 3163 447 
Q 2738 -50 1938 -63 
Q 1203 -56 769 403 
Q 331 850 325 1556 
Q 341 3066 1863 3188 
L 1863 3200 
L 666 4056 
L 666 4519 
z
M 1991 397 
Q 2497 403 2731 794 
Q 2969 1166 2969 1606 
Q 2969 1856 2919 2041 
Q 2866 2222 2791 2344 
Q 2713 2463 2638 2541 
Q 2559 2619 2509 2650 
Q 2381 2766 2156 2766 
Q 947 2766 941 1528 
Q 941 1056 1216 738 
Q 1491 403 1991 397 
z
" transform="scale(0.015625)"/>
       </defs>
       <use xlink:href="#Helvetica-54"/>
       <use xlink:href="#Helvetica-43" x="61.083984"/>
       <use xlink:href="#Helvetica-52" x="133.300781"/>
       <use xlink:href="#Helvetica-3b1" x="205.517578"/>
       <use xlink:href="#Helvetica-3b4" x="266.601562"/>
       <use xlink:href="#Helvetica-2b" x="327.685547"/>
       <use xlink:href="#Helvetica-20" x="386.083984"/>
       <use xlink:href="#Helvetica-43" x="413.867188"/>
       <use xlink:href="#Helvetica-65" x="486.083984"/>
       <use xlink:href="#Helvetica-6c" x="541.699219"/>
       <use xlink:href="#Helvetica-6c" x="563.916016"/>
       <use xlink:href="#Helvetica-73" x="586.132812"/>
      </g>
     </g>
    </g>
    <g id="xtick_3">
     <g id="text_3">
      <!-- IL7R+ Cells -->
      <g style="fill: #333333" transform="translate(60.873056 81.230229) scale(0.035 -0.035)">
       <defs>
        <path id="Helvetica-49" d="M 628 4591 
L 1256 4591 
L 1256 0 
L 628 0 
L 628 4591 
z
" transform="scale(0.015625)"/>
        <path id="Helvetica-4c" d="M 488 4591 
L 1109 4591 
L 1109 547 
L 3434 547 
L 3434 0 
L 488 0 
L 488 4591 
z
" transform="scale(0.015625)"/>
        <path id="Helvetica-37" d="M 3347 4400 
L 3347 3909 
Q 3131 3700 2773 3181 
Q 2416 2663 2141 2063 
Q 1869 1478 1728 997 
Q 1638 688 1494 0 
L 872 0 
Q 1084 1281 1809 2550 
Q 2238 3294 2709 3834 
L 234 3834 
L 234 4400 
L 3347 4400 
z
" transform="scale(0.015625)"/>
       </defs>
       <use xlink:href="#Helvetica-49"/>
       <use xlink:href="#Helvetica-4c" x="27.783203"/>
       <use xlink:href="#Helvetica-37" x="83.398438"/>
       <use xlink:href="#Helvetica-52" x="139.013672"/>
       <use xlink:href="#Helvetica-2b" x="211.230469"/>
       <use xlink:href="#Helvetica-20" x="269.628906"/>
       <use xlink:href="#Helvetica-43" x="297.412109"/>
       <use xlink:href="#Helvetica-65" x="369.628906"/>
       <use xlink:href="#Helvetica-6c" x="425.244141"/>
       <use xlink:href="#Helvetica-6c" x="447.460938"/>
       <use xlink:href="#Helvetica-73" x="469.677734"/>
      </g>
     </g>
    </g>
   </g>
   <g id="matplotlib.axis_2">
    <g id="ytick_1">
     <g id="line2d_1">
      <defs>
       <path id="m5288d5b5b8" d="M 0 0 
L -1 0 
" style="stroke: #777777; stroke-width: 0.5"/>
      </defs>
      <g>
       <use xlink:href="#m5288d5b5b8" x="10.005084" y="66.189518" style="fill: #777777; stroke: #777777; stroke-width: 0.5"/>
      </g>
     </g>
     <g id="text_4">
      <!-- 0 -->
      <g style="fill: #333333" transform="translate(6.336803 67.265534) scale(0.03 -0.03)">
       <defs>
        <path id="Helvetica-30" d="M 1731 4475 
Q 2600 4475 2988 3759 
Q 3288 3206 3288 2244 
Q 3288 1331 3016 734 
Q 2622 -122 1728 -122 
Q 922 -122 528 578 
Q 200 1163 200 2147 
Q 200 2909 397 3456 
Q 766 4475 1731 4475 
z
M 1725 391 
Q 2163 391 2422 778 
Q 2681 1166 2681 2222 
Q 2681 2984 2493 3476 
Q 2306 3969 1766 3969 
Q 1269 3969 1039 3501 
Q 809 3034 809 2125 
Q 809 1441 956 1025 
Q 1181 391 1725 391 
z
" transform="scale(0.015625)"/>
       </defs>
       <use xlink:href="#Helvetica-30"/>
      </g>
     </g>
    </g>
    <g id="ytick_2">
     <g id="line2d_2">
      <g>
       <use xlink:href="#m5288d5b5b8" x="10.005084" y="55.837308" style="fill: #777777; stroke: #777777; stroke-width: 0.5"/>
      </g>
     </g>
     <g id="text_5">
      <!-- 20 -->
      <g style="fill: #333333" transform="translate(4.668521 56.913323) scale(0.03 -0.03)">
       <defs>
        <path id="Helvetica-32" d="M 200 0 
Q 231 578 439 1006 
Q 647 1434 1250 1784 
L 1850 2131 
Q 2253 2366 2416 2531 
Q 2672 2791 2672 3125 
Q 2672 3516 2437 3745 
Q 2203 3975 1813 3975 
Q 1234 3975 1013 3538 
Q 894 3303 881 2888 
L 309 2888 
Q 319 3472 525 3841 
Q 891 4491 1816 4491 
Q 2584 4491 2939 4075 
Q 3294 3659 3294 3150 
Q 3294 2613 2916 2231 
Q 2697 2009 2131 1694 
L 1703 1456 
Q 1397 1288 1222 1134 
Q 909 863 828 531 
L 3272 531 
L 3272 0 
L 200 0 
z
" transform="scale(0.015625)"/>
       </defs>
       <use xlink:href="#Helvetica-32"/>
       <use xlink:href="#Helvetica-30" x="55.615234"/>
      </g>
     </g>
    </g>
    <g id="ytick_3">
     <g id="line2d_3">
      <g>
       <use xlink:href="#m5288d5b5b8" x="10.005084" y="45.485097" style="fill: #777777; stroke: #777777; stroke-width: 0.5"/>
      </g>
     </g>
     <g id="text_6">
      <!-- 40 -->
      <g style="fill: #333333" transform="translate(4.668521 46.561113) scale(0.03 -0.03)">
       <defs>
        <path id="Helvetica-34" d="M 2116 1584 
L 2116 3613 
L 681 1584 
L 2116 1584 
z
M 2125 0 
L 2125 1094 
L 163 1094 
L 163 1644 
L 2213 4488 
L 2688 4488 
L 2688 1584 
L 3347 1584 
L 3347 1094 
L 2688 1094 
L 2688 0 
L 2125 0 
z
" transform="scale(0.015625)"/>
       </defs>
       <use xlink:href="#Helvetica-34"/>
       <use xlink:href="#Helvetica-30" x="55.615234"/>
      </g>
     </g>
    </g>
    <g id="ytick_4">
     <g id="line2d_4">
      <g>
       <use xlink:href="#m5288d5b5b8" x="10.005084" y="35.132887" style="fill: #777777; stroke: #777777; stroke-width: 0.5"/>
      </g>
     </g>
     <g id="text_7">
      <!-- 60 -->
      <g style="fill: #333333" transform="translate(4.668521 36.208903) scale(0.03 -0.03)">
       <defs>
        <path id="Helvetica-36" d="M 1872 4494 
Q 2622 4494 2917 4105 
Q 3213 3716 3213 3303 
L 2656 3303 
Q 2606 3569 2497 3719 
Q 2294 4000 1881 4000 
Q 1409 4000 1131 3564 
Q 853 3128 822 2316 
Q 1016 2600 1309 2741 
Q 1578 2866 1909 2866 
Q 2472 2866 2890 2506 
Q 3309 2147 3309 1434 
Q 3309 825 2912 354 
Q 2516 -116 1781 -116 
Q 1153 -116 697 361 
Q 241 838 241 1966 
Q 241 2800 444 3381 
Q 834 4494 1872 4494 
z
M 1831 384 
Q 2275 384 2495 682 
Q 2716 981 2716 1388 
Q 2716 1731 2519 2042 
Q 2322 2353 1803 2353 
Q 1441 2353 1167 2112 
Q 894 1872 894 1388 
Q 894 963 1142 673 
Q 1391 384 1831 384 
z
" transform="scale(0.015625)"/>
       </defs>
       <use xlink:href="#Helvetica-36"/>
       <use xlink:href="#Helvetica-30" x="55.615234"/>
      </g>
     </g>
    </g>
    <g id="ytick_5">
     <g id="line2d_5">
      <g>
       <use xlink:href="#m5288d5b5b8" x="10.005084" y="24.780677" style="fill: #777777; stroke: #777777; stroke-width: 0.5"/>
      </g>
     </g>
     <g id="text_8">
      <!-- 80 -->
      <g style="fill: #333333" transform="translate(4.668521 25.856692) scale(0.03 -0.03)">
       <defs>
        <path id="Helvetica-38" d="M 1741 2600 
Q 2113 2600 2322 2808 
Q 2531 3016 2531 3303 
Q 2531 3553 2331 3762 
Q 2131 3972 1722 3972 
Q 1316 3972 1134 3762 
Q 953 3553 953 3272 
Q 953 2956 1187 2778 
Q 1422 2600 1741 2600 
z
M 1775 384 
Q 2166 384 2423 595 
Q 2681 806 2681 1225 
Q 2681 1659 2415 1884 
Q 2150 2109 1734 2109 
Q 1331 2109 1076 1879 
Q 822 1650 822 1244 
Q 822 894 1055 639 
Q 1288 384 1775 384 
z
M 975 2384 
Q 741 2484 609 2619 
Q 363 2869 363 3269 
Q 363 3769 725 4128 
Q 1088 4488 1753 4488 
Q 2397 4488 2762 4148 
Q 3128 3809 3128 3356 
Q 3128 2938 2916 2678 
Q 2797 2531 2547 2391 
Q 2825 2263 2984 2097 
Q 3281 1784 3281 1284 
Q 3281 694 2884 283 
Q 2488 -128 1763 -128 
Q 1109 -128 657 226 
Q 206 581 206 1256 
Q 206 1653 400 1942 
Q 594 2231 975 2384 
z
" transform="scale(0.015625)"/>
       </defs>
       <use xlink:href="#Helvetica-38"/>
       <use xlink:href="#Helvetica-30" x="55.615234"/>
      </g>
     </g>
    </g>
    <g id="ytick_6">
     <g id="line2d_6">
      <g>
       <use xlink:href="#m5288d5b5b8" x="10.005084" y="14.428466" style="fill: #777777; stroke: #777777; stroke-width: 0.5"/>
      </g>
     </g>
     <g id="text_9">
      <!-- 100 -->
      <g style="fill: #333333" transform="translate(3.00024 15.504482) scale(0.03 -0.03)">
       <defs>
        <path id="Helvetica-31" d="M 613 3169 
L 613 3600 
Q 1222 3659 1462 3798 
Q 1703 3938 1822 4456 
L 2266 4456 
L 2266 0 
L 1666 0 
L 1666 3169 
L 613 3169 
z
" transform="scale(0.015625)"/>
       </defs>
       <use xlink:href="#Helvetica-31"/>
       <use xlink:href="#Helvetica-30" x="55.615234"/>
       <use xlink:href="#Helvetica-30" x="111.230469"/>
      </g>
     </g>
    </g>
    <g id="ytick_7">
     <g id="line2d_7">
      <g>
       <use xlink:href="#m5288d5b5b8" x="10.005084" y="4.076256" style="fill: #777777; stroke: #777777; stroke-width: 0.5"/>
      </g>
     </g>
     <g id="text_10">
      <!-- 120 -->
      <g style="fill: #333333" transform="translate(3.00024 5.152271) scale(0.03 -0.03)">
       <use xlink:href="#Helvetica-31"/>
       <use xlink:href="#Helvetica-32" x="55.615234"/>
       <use xlink:href="#Helvetica-30" x="111.230469"/>
      </g>
     </g>
    </g>
   </g>
   <g id="PolyCollection_1">
    <defs>
     <path id="m21a2765d37" d="M 23.082256 -14.867452 
L 20.912803 -14.867452 
L 20.657591 -15.331118 
L 20.367636 -15.794783 
L 20.044599 -16.258449 
L 19.691628 -16.722115 
L 19.31325 -17.18578 
L 18.915094 -17.649446 
L 18.503495 -18.113112 
L 18.08497 -18.576777 
L 17.66567 -19.040443 
L 17.250857 -19.504109 
L 16.844494 -19.967775 
L 16.44902 -20.43144 
L 16.06536 -20.895106 
L 15.693178 -21.358772 
L 15.33136 -21.822437 
L 14.978638 -22.286103 
L 14.634284 -22.749769 
L 14.298729 -23.213435 
L 13.974012 -23.6771 
L 13.663954 -24.140766 
L 13.374007 -24.604432 
L 13.110788 -25.068097 
L 12.881329 -25.531763 
L 12.692172 -25.995429 
L 12.548427 -26.459094 
L 12.452936 -26.92276 
L 12.40569 -27.386426 
L 12.403573 -27.850092 
L 12.440499 -28.313757 
L 12.507929 -28.777423 
L 12.595697 -29.241089 
L 12.693064 -29.704754 
L 12.789856 -30.16842 
L 12.87755 -30.632086 
L 12.95021 -31.095752 
L 13.005139 -31.559417 
L 13.043208 -32.023083 
L 13.068822 -32.486749 
L 13.089538 -32.950414 
L 13.115366 -33.41408 
L 13.157841 -33.877746 
L 13.228925 -34.341411 
L 13.339871 -34.805077 
L 13.50012 -35.268743 
L 13.716354 -35.732409 
L 13.991765 -36.196074 
L 14.325621 -36.65974 
L 14.713154 -37.123406 
L 15.145777 -37.587071 
L 15.611607 -38.050737 
L 16.09624 -38.514403 
L 16.583693 -38.978069 
L 17.057434 -39.441734 
L 17.501403 -39.9054 
L 17.900934 -40.369066 
L 18.243509 -40.832731 
L 18.519291 -41.296397 
L 18.721423 -41.760063 
L 18.84608 -42.223728 
L 18.892304 -42.687394 
L 18.861672 -43.15106 
L 18.757836 -43.614726 
L 18.586015 -44.078391 
L 18.352478 -44.542057 
L 18.064093 -45.005723 
L 17.727959 -45.469388 
L 17.351179 -45.933054 
L 16.940764 -46.39672 
L 16.503677 -46.860385 
L 16.046994 -47.324051 
L 15.578143 -47.787717 
L 15.105181 -48.251383 
L 14.637047 -48.715048 
L 14.183735 -49.178714 
L 13.756337 -49.64238 
L 13.366907 -50.106045 
L 13.028133 -50.569711 
L 12.752815 -51.033377 
L 12.55318 -51.497043 
L 12.440084 -51.960708 
L 12.422189 -52.424374 
L 12.505193 -52.88804 
L 12.691213 -53.351705 
L 12.978386 -53.815371 
L 13.360771 -54.279037 
L 13.828541 -54.742702 
L 14.368486 -55.206368 
L 14.964773 -55.670034 
L 15.599888 -56.1337 
L 16.255667 -56.597365 
L 16.914337 -57.061031 
L 17.559454 -57.524697 
L 18.176679 -57.988362 
L 18.75433 -58.452028 
L 19.283697 -58.915694 
L 19.759113 -59.37936 
L 20.177809 -59.843025 
L 20.539608 -60.306691 
L 20.846484 -60.770357 
L 23.148576 -60.770357 
L 23.148576 -60.770357 
L 23.455452 -60.306691 
L 23.81725 -59.843025 
L 24.235947 -59.37936 
L 24.711362 -58.915694 
L 25.240729 -58.452028 
L 25.818381 -57.988362 
L 26.435605 -57.524697 
L 27.080723 -57.061031 
L 27.739393 -56.597365 
L 28.395172 -56.1337 
L 29.030286 -55.670034 
L 29.626574 -55.206368 
L 30.166519 -54.742702 
L 30.634288 -54.279037 
L 31.016673 -53.815371 
L 31.303847 -53.351705 
L 31.489866 -52.88804 
L 31.57287 -52.424374 
L 31.554976 -51.960708 
L 31.44188 -51.497043 
L 31.242245 -51.033377 
L 30.966927 -50.569711 
L 30.628153 -50.106045 
L 30.238722 -49.64238 
L 29.811324 -49.178714 
L 29.358013 -48.715048 
L 28.889879 -48.251383 
L 28.416917 -47.787717 
L 27.948066 -47.324051 
L 27.491382 -46.860385 
L 27.054295 -46.39672 
L 26.64388 -45.933054 
L 26.2671 -45.469388 
L 25.930966 -45.005723 
L 25.642581 -44.542057 
L 25.409045 -44.078391 
L 25.237224 -43.614726 
L 25.133388 -43.15106 
L 25.102755 -42.687394 
L 25.148979 -42.223728 
L 25.273636 -41.760063 
L 25.475769 -41.296397 
L 25.751551 -40.832731 
L 26.094125 -40.369066 
L 26.493656 -39.9054 
L 26.937626 -39.441734 
L 27.411367 -38.978069 
L 27.898819 -38.514403 
L 28.383452 -38.050737 
L 28.849283 -37.587071 
L 29.281906 -37.123406 
L 29.669438 -36.65974 
L 30.003294 -36.196074 
L 30.278705 -35.732409 
L 30.494939 -35.268743 
L 30.655189 -34.805077 
L 30.766135 -34.341411 
L 30.837219 -33.877746 
L 30.879693 -33.41408 
L 30.905522 -32.950414 
L 30.926237 -32.486749 
L 30.951852 -32.023083 
L 30.98992 -31.559417 
L 31.044849 -31.095752 
L 31.117509 -30.632086 
L 31.205204 -30.16842 
L 31.301995 -29.704754 
L 31.399363 -29.241089 
L 31.487131 -28.777423 
L 31.55456 -28.313757 
L 31.591487 -27.850092 
L 31.589369 -27.386426 
L 31.542123 -26.92276 
L 31.446633 -26.459094 
L 31.302887 -25.995429 
L 31.113731 -25.531763 
L 30.884271 -25.068097 
L 30.621052 -24.604432 
L 30.331106 -24.140766 
L 30.021047 -23.6771 
L 29.69633 -23.213435 
L 29.360775 -22.749769 
L 29.016421 -22.286103 
L 28.6637 -21.822437 
L 28.301881 -21.358772 
L 27.9297 -20.895106 
L 27.546039 -20.43144 
L 27.150565 -19.967775 
L 26.744202 -19.504109 
L 26.32939 -19.040443 
L 25.91009 -18.576777 
L 25.491565 -18.113112 
L 25.079965 -17.649446 
L 24.68181 -17.18578 
L 24.303431 -16.722115 
L 23.950461 -16.258449 
L 23.627424 -15.794783 
L 23.337469 -15.331118 
L 23.082256 -14.867452 
z
" style="stroke: #6f6f6f; stroke-width: 0.15"/>
    </defs>
    <g clip-path="url(#p98a94026ff)">
     <use xlink:href="#m21a2765d37" x="0" y="84.96" style="fill: #abc9ea; stroke: #6f6f6f; stroke-width: 0.15"/>
    </g>
   </g>
   <g id="PolyCollection_2">
    <defs>
     <path id="mfdd63d359f" d="M 47.064967 -14.874676 
L 44.899877 -14.874676 
L 44.622065 -15.256838 
L 44.29943 -15.639 
L 43.931467 -16.021162 
L 43.51915 -16.403324 
L 43.064984 -16.785486 
L 42.572982 -17.167649 
L 42.048556 -17.549811 
L 41.498365 -17.931973 
L 40.930141 -18.314135 
L 40.352534 -18.696297 
L 39.77498 -19.078459 
L 39.207617 -19.460621 
L 38.661213 -19.842783 
L 38.147091 -20.224945 
L 37.676997 -20.607107 
L 37.262875 -20.989269 
L 36.916518 -21.371432 
L 36.649069 -21.753594 
L 36.47041 -22.135756 
L 36.388465 -22.517918 
L 36.408498 -22.90008 
L 36.532487 -23.282242 
L 36.758663 -23.664404 
L 37.081288 -24.046566 
L 37.490727 -24.428728 
L 37.973828 -24.81089 
L 38.514591 -25.193052 
L 39.095065 -25.575215 
L 39.696407 -25.957377 
L 40.29998 -26.339539 
L 40.888398 -26.721701 
L 41.446432 -27.103863 
L 41.961675 -27.486025 
L 42.42495 -27.868187 
L 42.830424 -28.250349 
L 43.175445 -28.632511 
L 43.460153 -29.014673 
L 43.686924 -29.396835 
L 43.859713 -29.778998 
L 43.983385 -30.16116 
L 44.063097 -30.543322 
L 44.103791 -30.925484 
L 44.109844 -31.307646 
L 44.084885 -31.689808 
L 44.031789 -32.07197 
L 43.952825 -32.454132 
L 43.84993 -32.836294 
L 43.72506 -33.218456 
L 43.580575 -33.600618 
L 43.419601 -33.982781 
L 43.246319 -34.364943 
L 43.066131 -34.747105 
L 42.885671 -35.129267 
L 42.71263 -35.511429 
L 42.555398 -35.893591 
L 42.42253 -36.275753 
L 42.3221 -36.657915 
L 42.260981 -37.040077 
L 42.244152 -37.422239 
L 42.274117 -37.804401 
L 42.350515 -38.186564 
L 42.469977 -38.568726 
L 42.626288 -38.950888 
L 42.810817 -39.33305 
L 43.013206 -39.715212 
L 43.222222 -40.097374 
L 43.426687 -40.479536 
L 43.616377 -40.861698 
L 43.782804 -41.24386 
L 43.919784 -41.626022 
L 44.023763 -42.008184 
L 44.093879 -42.390347 
L 44.131777 -42.772509 
L 44.141226 -43.154671 
L 44.127599 -43.536833 
L 44.097291 -43.918995 
L 44.05713 -44.301157 
L 44.013855 -44.683319 
L 43.973684 -45.065481 
L 43.942005 -45.447643 
L 43.923179 -45.829805 
L 43.920459 -46.211967 
L 43.935986 -46.59413 
L 43.970853 -46.976292 
L 44.025198 -47.358454 
L 44.09831 -47.740616 
L 44.188751 -48.122778 
L 44.294461 -48.50494 
L 44.412875 -48.887102 
L 44.54104 -49.269264 
L 44.675744 -49.651426 
L 44.813652 -50.033588 
L 44.951457 -50.41575 
L 45.086031 -50.797913 
L 45.214567 -51.180075 
L 45.334706 -51.562237 
L 45.44462 -51.944399 
L 45.543073 -52.326561 
L 45.629419 -52.708723 
L 46.335425 -52.708723 
L 46.335425 -52.708723 
L 46.421771 -52.326561 
L 46.520223 -51.944399 
L 46.630138 -51.562237 
L 46.750276 -51.180075 
L 46.878813 -50.797913 
L 47.013387 -50.41575 
L 47.151192 -50.033588 
L 47.289099 -49.651426 
L 47.423803 -49.269264 
L 47.551969 -48.887102 
L 47.670383 -48.50494 
L 47.776093 -48.122778 
L 47.866534 -47.740616 
L 47.939646 -47.358454 
L 47.99399 -46.976292 
L 48.028858 -46.59413 
L 48.044385 -46.211967 
L 48.041665 -45.829805 
L 48.022839 -45.447643 
L 47.991159 -45.065481 
L 47.950989 -44.683319 
L 47.907714 -44.301157 
L 47.867553 -43.918995 
L 47.837244 -43.536833 
L 47.823618 -43.154671 
L 47.833067 -42.772509 
L 47.870965 -42.390347 
L 47.941081 -42.008184 
L 48.04506 -41.626022 
L 48.18204 -41.24386 
L 48.348467 -40.861698 
L 48.538157 -40.479536 
L 48.742622 -40.097374 
L 48.951637 -39.715212 
L 49.154027 -39.33305 
L 49.338556 -38.950888 
L 49.494867 -38.568726 
L 49.614329 -38.186564 
L 49.690727 -37.804401 
L 49.720692 -37.422239 
L 49.703863 -37.040077 
L 49.642743 -36.657915 
L 49.542313 -36.275753 
L 49.409446 -35.893591 
L 49.252213 -35.511429 
L 49.079173 -35.129267 
L 48.898713 -34.747105 
L 48.718525 -34.364943 
L 48.545243 -33.982781 
L 48.384269 -33.600618 
L 48.239784 -33.218456 
L 48.114913 -32.836294 
L 48.012018 -32.454132 
L 47.933055 -32.07197 
L 47.879958 -31.689808 
L 47.855 -31.307646 
L 47.861053 -30.925484 
L 47.901747 -30.543322 
L 47.981459 -30.16116 
L 48.105131 -29.778998 
L 48.27792 -29.396835 
L 48.504691 -29.014673 
L 48.789399 -28.632511 
L 49.134419 -28.250349 
L 49.539893 -27.868187 
L 50.003169 -27.486025 
L 50.518412 -27.103863 
L 51.076446 -26.721701 
L 51.664864 -26.339539 
L 52.268437 -25.957377 
L 52.869779 -25.575215 
L 53.450253 -25.193052 
L 53.991015 -24.81089 
L 54.474117 -24.428728 
L 54.883556 -24.046566 
L 55.206181 -23.664404 
L 55.432357 -23.282242 
L 55.556346 -22.90008 
L 55.576379 -22.517918 
L 55.494434 -22.135756 
L 55.315775 -21.753594 
L 55.048326 -21.371432 
L 54.701968 -20.989269 
L 54.287847 -20.607107 
L 53.817753 -20.224945 
L 53.303631 -19.842783 
L 52.757227 -19.460621 
L 52.189864 -19.078459 
L 51.61231 -18.696297 
L 51.034703 -18.314135 
L 50.466479 -17.931973 
L 49.916288 -17.549811 
L 49.391862 -17.167649 
L 48.89986 -16.785486 
L 48.445694 -16.403324 
L 48.033376 -16.021162 
L 47.665414 -15.639 
L 47.342778 -15.256838 
L 47.064967 -14.874676 
z
" style="stroke: #6f6f6f; stroke-width: 0.15"/>
    </defs>
    <g clip-path="url(#p98a94026ff)">
     <use xlink:href="#mfdd63d359f" x="0" y="84.96" style="fill: #efb792; stroke: #6f6f6f; stroke-width: 0.15"/>
    </g>
   </g>
   <g id="PolyCollection_3">
    <defs>
     <path id="m377741a834" d="M 70.796891 -13.879937 
L 69.137737 -13.879937 
L 68.93731 -14.379666 
L 68.711227 -14.879396 
L 68.462542 -15.379125 
L 68.19608 -15.878855 
L 67.918342 -16.378584 
L 67.63722 -16.878314 
L 67.361541 -17.378043 
L 67.100446 -17.877772 
L 66.862674 -18.377502 
L 66.655821 -18.877231 
L 66.485668 -19.376961 
L 66.355651 -19.87669 
L 66.266558 -20.37642 
L 66.21651 -20.876149 
L 66.201215 -21.375879 
L 66.214496 -21.875608 
L 66.249021 -22.375338 
L 66.297136 -22.875067 
L 66.351706 -23.374797 
L 66.406838 -23.874526 
L 66.458404 -24.374255 
L 66.504281 -24.873985 
L 66.544303 -25.373714 
L 66.579924 -25.873444 
L 66.613655 -26.373173 
L 66.648374 -26.872903 
L 66.686591 -27.372632 
L 66.729792 -27.872362 
L 66.777918 -28.372091 
L 66.82906 -28.871821 
L 66.879372 -29.37155 
L 66.923194 -29.87128 
L 66.95336 -30.371009 
L 66.961631 -30.870738 
L 66.939229 -31.370468 
L 66.877417 -31.870197 
L 66.768113 -32.369927 
L 66.604537 -32.869656 
L 66.381855 -33.369386 
L 66.097832 -33.869115 
L 65.753429 -34.368845 
L 65.353304 -34.868574 
L 64.906137 -35.368304 
L 64.424671 -35.868033 
L 63.925421 -36.367763 
L 63.427976 -36.867492 
L 62.953901 -37.367222 
L 62.525293 -37.866951 
L 62.163104 -38.36668 
L 61.885395 -38.86641 
L 61.705714 -39.366139 
L 61.631792 -39.865869 
L 61.664711 -40.365598 
L 61.798669 -40.865328 
L 62.021361 -41.365057 
L 62.314939 -41.864787 
L 62.657437 -42.364516 
L 63.024497 -42.864246 
L 63.39119 -43.363975 
L 63.733751 -43.863705 
L 64.03106 -44.363434 
L 64.265753 -44.863163 
L 64.424922 -45.362893 
L 64.500388 -45.862622 
L 64.488632 -46.362352 
L 64.390462 -46.862081 
L 64.210517 -47.361811 
L 63.956723 -47.86154 
L 63.639753 -48.36127 
L 63.27254 -48.860999 
L 62.869843 -49.360729 
L 62.447829 -49.860458 
L 62.02364 -50.360188 
L 61.6149 -50.859917 
L 61.239128 -51.359646 
L 60.913066 -51.859376 
L 60.651953 -52.359105 
L 60.468791 -52.858835 
L 60.373691 -53.358564 
L 60.373357 -53.858294 
L 60.470774 -54.358023 
L 60.665135 -54.857753 
L 60.952011 -55.357482 
L 61.32373 -55.857212 
L 61.769932 -56.356941 
L 62.278221 -56.856671 
L 62.834864 -57.3564 
L 63.425472 -57.85613 
L 64.035634 -58.355859 
L 64.651461 -58.855588 
L 65.260054 -59.355318 
L 65.849867 -59.855047 
L 66.410995 -60.354777 
L 66.93537 -60.854506 
L 67.416877 -61.354236 
L 67.851393 -61.853965 
L 68.236733 -62.353695 
L 68.572522 -62.853424 
L 68.859994 -63.353154 
L 71.074634 -63.353154 
L 71.074634 -63.353154 
L 71.362106 -62.853424 
L 71.697895 -62.353695 
L 72.083235 -61.853965 
L 72.517751 -61.354236 
L 72.999258 -60.854506 
L 73.523633 -60.354777 
L 74.084761 -59.855047 
L 74.674574 -59.355318 
L 75.283167 -58.855588 
L 75.898994 -58.355859 
L 76.509156 -57.85613 
L 77.099764 -57.3564 
L 77.656407 -56.856671 
L 78.164696 -56.356941 
L 78.610898 -55.857212 
L 78.982617 -55.357482 
L 79.269493 -54.857753 
L 79.463854 -54.358023 
L 79.561271 -53.858294 
L 79.560937 -53.358564 
L 79.465837 -52.858835 
L 79.282675 -52.359105 
L 79.021562 -51.859376 
L 78.6955 -51.359646 
L 78.319728 -50.859917 
L 77.910988 -50.360188 
L 77.486799 -49.860458 
L 77.064785 -49.360729 
L 76.662087 -48.860999 
L 76.294875 -48.36127 
L 75.977905 -47.86154 
L 75.724111 -47.361811 
L 75.544166 -46.862081 
L 75.445996 -46.362352 
L 75.43424 -45.862622 
L 75.509706 -45.362893 
L 75.668875 -44.863163 
L 75.903568 -44.363434 
L 76.200877 -43.863705 
L 76.543438 -43.363975 
L 76.910131 -42.864246 
L 77.277191 -42.364516 
L 77.619689 -41.864787 
L 77.913267 -41.365057 
L 78.135958 -40.865328 
L 78.269917 -40.365598 
L 78.302836 -39.865869 
L 78.228914 -39.366139 
L 78.049233 -38.86641 
L 77.771524 -38.36668 
L 77.409335 -37.866951 
L 76.980726 -37.367222 
L 76.506652 -36.867492 
L 76.009207 -36.367763 
L 75.509957 -35.868033 
L 75.028491 -35.368304 
L 74.581324 -34.868574 
L 74.181199 -34.368845 
L 73.836796 -33.869115 
L 73.552773 -33.369386 
L 73.330091 -32.869656 
L 73.166515 -32.369927 
L 73.057211 -31.870197 
L 72.995398 -31.370468 
L 72.972997 -30.870738 
L 72.981268 -30.371009 
L 73.011434 -29.87128 
L 73.055256 -29.37155 
L 73.105568 -28.871821 
L 73.15671 -28.372091 
L 73.204836 -27.872362 
L 73.248036 -27.372632 
L 73.286254 -26.872903 
L 73.320973 -26.373173 
L 73.354704 -25.873444 
L 73.390324 -25.373714 
L 73.430347 -24.873985 
L 73.476224 -24.374255 
L 73.52779 -23.874526 
L 73.582922 -23.374797 
L 73.637492 -22.875067 
L 73.685607 -22.375338 
L 73.720131 -21.875608 
L 73.733413 -21.375879 
L 73.718118 -20.876149 
L 73.66807 -20.37642 
L 73.578977 -19.87669 
L 73.44896 -19.376961 
L 73.278807 -18.877231 
L 73.071954 -18.377502 
L 72.834182 -17.877772 
L 72.573087 -17.378043 
L 72.297408 -16.878314 
L 72.016286 -16.378584 
L 71.738548 -15.878855 
L 71.472086 -15.379125 
L 71.223401 -14.879396 
L 70.997318 -14.379666 
L 70.796891 -13.879937 
z
" style="stroke: #6f6f6f; stroke-width: 0.15"/>
    </defs>
    <g clip-path="url(#p98a94026ff)">
     <use xlink:href="#m377741a834" x="0" y="84.96" style="fill: #98daa7; stroke: #6f6f6f; stroke-width: 0.15"/>
    </g>
   </g>
   <g id="line2d_8">
    <path d="M 21.99753 64.992741 
L 21.99753 29.289451 
" clip-path="url(#p98a94026ff)" style="fill: none; stroke: #8c8c8c; stroke-width: 0.75; stroke-linecap: round"/>
   </g>
   <g id="line2d_9">
    <path d="M 21.99753 58.011255 
L 21.99753 35.105635 
" clip-path="url(#p98a94026ff)" style="fill: none; stroke: #8c8c8c; stroke-width: 4; stroke-linecap: round"/>
   </g>
   <g id="line2d_10">
    <path d="M 21.99753 49.282882 
" clip-path="url(#p98a94026ff)" style="fill: none; stroke: #6f6f6f; stroke-width: 1.2; stroke-linecap: round"/>
    <defs>
     <path id="m177372b525" d="M 0 0.833333 
C 0.221003 0.833333 0.432983 0.745528 0.589256 0.589256 
C 0.745528 0.432983 0.833333 0.221003 0.833333 0 
C 0.833333 -0.221003 0.745528 -0.432983 0.589256 -0.589256 
C 0.432983 -0.745528 0.221003 -0.833333 0 -0.833333 
C -0.221003 -0.833333 -0.432983 -0.745528 -0.589256 -0.589256 
C -0.745528 -0.432983 -0.833333 -0.221003 -0.833333 0 
C -0.833333 0.221003 -0.745528 0.432983 -0.589256 0.589256 
C -0.432983 0.745528 -0.221003 0.833333 0 0.833333 
z
" style="stroke: #ffffff; stroke-width: 0.8"/>
    </defs>
    <g clip-path="url(#p98a94026ff)">
     <use xlink:href="#m177372b525" x="21.99753" y="49.282882" style="fill: #ffffff; stroke: #ffffff; stroke-width: 0.8"/>
    </g>
   </g>
   <g id="line2d_11">
    <path d="M 45.982422 66.154093 
L 45.982422 36.182508 
" clip-path="url(#p98a94026ff)" style="fill: none; stroke: #8c8c8c; stroke-width: 0.75; stroke-linecap: round"/>
   </g>
   <g id="line2d_12">
    <path d="M 45.982422 63.008446 
L 45.982422 47.99484 
" clip-path="url(#p98a94026ff)" style="fill: none; stroke: #8c8c8c; stroke-width: 4; stroke-linecap: round"/>
   </g>
   <g id="line2d_13">
    <path d="M 45.982422 60.463895 
" clip-path="url(#p98a94026ff)" style="fill: none; stroke: #6f6f6f; stroke-width: 1.2; stroke-linecap: round"/>
    <g clip-path="url(#p98a94026ff)">
     <use xlink:href="#m177372b525" x="45.982422" y="60.463895" style="fill: #ffffff; stroke: #ffffff; stroke-width: 0.8"/>
    </g>
   </g>
   <g id="line2d_14">
    <path d="M 69.967314 65.885371 
L 69.967314 26.801538 
" clip-path="url(#p98a94026ff)" style="fill: none; stroke: #8c8c8c; stroke-width: 0.75; stroke-linecap: round"/>
   </g>
   <g id="line2d_15">
    <path d="M 69.967314 47.750847 
L 69.967314 31.960657 
" clip-path="url(#p98a94026ff)" style="fill: none; stroke: #8c8c8c; stroke-width: 4; stroke-linecap: round"/>
   </g>
   <g id="line2d_16">
    <path d="M 69.967314 43.181614 
" clip-path="url(#p98a94026ff)" style="fill: none; stroke: #6f6f6f; stroke-width: 1.2; stroke-linecap: round"/>
    <g clip-path="url(#p98a94026ff)">
     <use xlink:href="#m177372b525" x="69.967314" y="43.181614" style="fill: #ffffff; stroke: #ffffff; stroke-width: 0.8"/>
    </g>
   </g>
   <g id="patch_3">
    <path d="M 10.005084 74.419526 
L 10.005084 4.076256 
" style="fill: none; stroke: #777777; stroke-width: 0.5; stroke-linejoin: miter; stroke-linecap: square"/>
   </g>
   <g id="patch_4">
    <path d="M 10.005084 76.919526 
L 81.95976 76.919526 
" style="fill: none; stroke: #777777; stroke-width: 0.5; stroke-linejoin: miter; stroke-linecap: square"/>
   </g>
  </g>
 </g>
 <defs>
  <clipPath id="p98a94026ff">
   <rect x="10.005084" y="4.076256" width="71.954676" height="70.34327"/>
  </clipPath>
 </defs>
</svg>
