<?xml version="1.0" encoding="utf-8" standalone="no"?>
<!DOCTYPE svg PUBLIC "-//W3C//DTD SVG 1.1//EN"
  "http://www.w3.org/Graphics/SVG/1.1/DTD/svg11.dtd">
<svg xmlns:xlink="http://www.w3.org/1999/xlink" width="56.16pt" height="84.96pt" viewBox="0 0 56.16 84.96" xmlns="http://www.w3.org/2000/svg" version="1.1">
 <metadata>
  <rdf:RDF xmlns:dc="http://purl.org/dc/elements/1.1/" xmlns:cc="http://creativecommons.org/ns#" xmlns:rdf="http://www.w3.org/1999/02/22-rdf-syntax-ns#">
   <cc:Work>
    <dc:type rdf:resource="http://purl.org/dc/dcmitype/StillImage"/>
    <dc:date>2024-05-27T15:37:09.555669</dc:date>
    <dc:format>image/svg+xml</dc:format>
    <dc:creator>
     <cc:Agent>
      <dc:title>Matplotlib v3.8.3, https://matplotlib.org/</dc:title>
     </cc:Agent>
    </dc:creator>
   </cc:Work>
  </rdf:RDF>
 </metadata>
 <defs>
  <style type="text/css">*{stroke-linejoin: round; stroke-linecap: butt}</style>
 </defs>
 <g id="figure_1">
  <g id="patch_1">
   <path d="M 0 84.96 
L 56.16 84.96 
L 56.16 0 
L 0 0 
z
" style="fill: #ffffff"/>
  </g>
  <g id="axes_1">
   <g id="patch_2">
    <path d="M 10.005084 74.419526 
L 53.15976 74.419526 
L 53.15976 4.076256 
L 10.005084 4.076256 
z
" style="fill: #ffffff"/>
   </g>
   <g id="matplotlib.axis_1">
    <g id="xtick_1">
     <g id="text_1">
      <!-- ILC3 -->
      <g style="fill: #333333" transform="translate(17.097425 81.230229) scale(0.035 -0.035)">
       <defs>
        <path id="Helvetica-49" d="M 628 4591 
L 1256 4591 
L 1256 0 
L 628 0 
L 628 4591 
z
" transform="scale(0.015625)"/>
        <path id="Helvetica-4c" d="M 488 4591 
L 1109 4591 
L 1109 547 
L 3434 547 
L 3434 0 
L 488 0 
L 488 4591 
z
" transform="scale(0.015625)"/>
        <path id="Helvetica-43" d="M 2422 4716 
Q 3294 4716 3775 4256 
Q 4256 3797 4309 3213 
L 3703 3213 
Q 3600 3656 3292 3915 
Q 2984 4175 2428 4175 
Q 1750 4175 1333 3698 
Q 916 3222 916 2238 
Q 916 1431 1292 929 
Q 1669 428 2416 428 
Q 3103 428 3463 956 
Q 3653 1234 3747 1688 
L 4353 1688 
Q 4272 963 3816 472 
Q 3269 -119 2341 -119 
Q 1541 -119 997 366 
Q 281 1006 281 2344 
Q 281 3359 819 4009 
Q 1400 4716 2422 4716 
z
M 2297 4716 
L 2297 4716 
z
" transform="scale(0.015625)"/>
        <path id="Helvetica-33" d="M 1663 -122 
Q 869 -122 511 314 
Q 153 750 153 1375 
L 741 1375 
Q 778 941 903 744 
Q 1122 391 1694 391 
Q 2138 391 2406 628 
Q 2675 866 2675 1241 
Q 2675 1703 2392 1887 
Q 2109 2072 1606 2072 
Q 1550 2072 1492 2070 
Q 1434 2069 1375 2066 
L 1375 2563 
Q 1463 2553 1522 2550 
Q 1581 2547 1650 2547 
Q 1966 2547 2169 2647 
Q 2525 2822 2525 3272 
Q 2525 3606 2287 3787 
Q 2050 3969 1734 3969 
Q 1172 3969 956 3594 
Q 838 3388 822 3006 
L 266 3006 
Q 266 3506 466 3856 
Q 809 4481 1675 4481 
Q 2359 4481 2734 4176 
Q 3109 3872 3109 3294 
Q 3109 2881 2888 2625 
Q 2750 2466 2531 2375 
Q 2884 2278 3082 2001 
Q 3281 1725 3281 1325 
Q 3281 684 2859 281 
Q 2438 -122 1663 -122 
z
" transform="scale(0.015625)"/>
       </defs>
       <use xlink:href="#Helvetica-49"/>
       <use xlink:href="#Helvetica-4c" x="27.783203"/>
       <use xlink:href="#Helvetica-43" x="83.398438"/>
       <use xlink:href="#Helvetica-33" x="155.615234"/>
      </g>
     </g>
    </g>
    <g id="xtick_2">
     <g id="text_2">
      <!-- TH17 -->
      <g style="fill: #333333" transform="translate(38.092067 81.230229) scale(0.035 -0.035)">
       <defs>
        <path id="Helvetica-54" d="M 3828 4591 
L 3828 4044 
L 2281 4044 
L 2281 0 
L 1650 0 
L 1650 4044 
L 103 4044 
L 103 4591 
L 3828 4591 
z
" transform="scale(0.015625)"/>
        <path id="Helvetica-48" d="M 503 4591 
L 1131 4591 
L 1131 2694 
L 3519 2694 
L 3519 4591 
L 4147 4591 
L 4147 0 
L 3519 0 
L 3519 2147 
L 1131 2147 
L 1131 0 
L 503 0 
L 503 4591 
z
" transform="scale(0.015625)"/>
        <path id="Helvetica-31" d="M 613 3169 
L 613 3600 
Q 1222 3659 1462 3798 
Q 1703 3938 1822 4456 
L 2266 4456 
L 2266 0 
L 1666 0 
L 1666 3169 
L 613 3169 
z
" transform="scale(0.015625)"/>
        <path id="Helvetica-37" d="M 3347 4400 
L 3347 3909 
Q 3131 3700 2773 3181 
Q 2416 2663 2141 2063 
Q 1869 1478 1728 997 
Q 1638 688 1494 0 
L 872 0 
Q 1084 1281 1809 2550 
Q 2238 3294 2709 3834 
L 234 3834 
L 234 4400 
L 3347 4400 
z
" transform="scale(0.015625)"/>
       </defs>
       <use xlink:href="#Helvetica-54"/>
       <use xlink:href="#Helvetica-48" x="61.083984"/>
       <use xlink:href="#Helvetica-31" x="133.300781"/>
       <use xlink:href="#Helvetica-37" x="188.916016"/>
      </g>
     </g>
    </g>
   </g>
   <g id="matplotlib.axis_2">
    <g id="ytick_1">
     <g id="line2d_1">
      <defs>
       <path id="m8a3cc22806" d="M 0 0 
L -1 0 
" style="stroke: #777777; stroke-width: 0.5"/>
      </defs>
      <g>
       <use xlink:href="#m8a3cc22806" x="10.005084" y="65.703651" style="fill: #777777; stroke: #777777; stroke-width: 0.5"/>
      </g>
     </g>
     <g id="text_3">
      <!-- 0 -->
      <g style="fill: #333333" transform="translate(6.336802 66.779667) scale(0.03 -0.03)">
       <defs>
        <path id="Helvetica-30" d="M 1731 4475 
Q 2600 4475 2988 3759 
Q 3288 3206 3288 2244 
Q 3288 1331 3016 734 
Q 2622 -122 1728 -122 
Q 922 -122 528 578 
Q 200 1163 200 2147 
Q 200 2909 397 3456 
Q 766 4475 1731 4475 
z
M 1725 391 
Q 2163 391 2422 778 
Q 2681 1166 2681 2222 
Q 2681 2984 2493 3476 
Q 2306 3969 1766 3969 
Q 1269 3969 1039 3501 
Q 809 3034 809 2125 
Q 809 1441 956 1025 
Q 1181 391 1725 391 
z
" transform="scale(0.015625)"/>
       </defs>
       <use xlink:href="#Helvetica-30"/>
      </g>
     </g>
    </g>
    <g id="ytick_2">
     <g id="line2d_2">
      <g>
       <use xlink:href="#m8a3cc22806" x="10.005084" y="56.899737" style="fill: #777777; stroke: #777777; stroke-width: 0.5"/>
      </g>
     </g>
     <g id="text_4">
      <!-- 100 -->
      <g style="fill: #333333" transform="translate(3.00024 57.975753) scale(0.03 -0.03)">
       <use xlink:href="#Helvetica-31"/>
       <use xlink:href="#Helvetica-30" x="55.615234"/>
       <use xlink:href="#Helvetica-30" x="111.230469"/>
      </g>
     </g>
    </g>
    <g id="ytick_3">
     <g id="line2d_3">
      <g>
       <use xlink:href="#m8a3cc22806" x="10.005084" y="48.095824" style="fill: #777777; stroke: #777777; stroke-width: 0.5"/>
      </g>
     </g>
     <g id="text_5">
      <!-- 200 -->
      <g style="fill: #333333" transform="translate(3.00024 49.171839) scale(0.03 -0.03)">
       <defs>
        <path id="Helvetica-32" d="M 200 0 
Q 231 578 439 1006 
Q 647 1434 1250 1784 
L 1850 2131 
Q 2253 2366 2416 2531 
Q 2672 2791 2672 3125 
Q 2672 3516 2437 3745 
Q 2203 3975 1813 3975 
Q 1234 3975 1013 3538 
Q 894 3303 881 2888 
L 309 2888 
Q 319 3472 525 3841 
Q 891 4491 1816 4491 
Q 2584 4491 2939 4075 
Q 3294 3659 3294 3150 
Q 3294 2613 2916 2231 
Q 2697 2009 2131 1694 
L 1703 1456 
Q 1397 1288 1222 1134 
Q 909 863 828 531 
L 3272 531 
L 3272 0 
L 200 0 
z
" transform="scale(0.015625)"/>
       </defs>
       <use xlink:href="#Helvetica-32"/>
       <use xlink:href="#Helvetica-30" x="55.615234"/>
       <use xlink:href="#Helvetica-30" x="111.230469"/>
      </g>
     </g>
    </g>
    <g id="ytick_4">
     <g id="line2d_4">
      <g>
       <use xlink:href="#m8a3cc22806" x="10.005084" y="39.29191" style="fill: #777777; stroke: #777777; stroke-width: 0.5"/>
      </g>
     </g>
     <g id="text_6">
      <!-- 300 -->
      <g style="fill: #333333" transform="translate(3.00024 40.367926) scale(0.03 -0.03)">
       <use xlink:href="#Helvetica-33"/>
       <use xlink:href="#Helvetica-30" x="55.615234"/>
       <use xlink:href="#Helvetica-30" x="111.230469"/>
      </g>
     </g>
    </g>
    <g id="ytick_5">
     <g id="line2d_5">
      <g>
       <use xlink:href="#m8a3cc22806" x="10.005084" y="30.487997" style="fill: #777777; stroke: #777777; stroke-width: 0.5"/>
      </g>
     </g>
     <g id="text_7">
      <!-- 400 -->
      <g style="fill: #333333" transform="translate(3.00024 31.564012) scale(0.03 -0.03)">
       <defs>
        <path id="Helvetica-34" d="M 2116 1584 
L 2116 3613 
L 681 1584 
L 2116 1584 
z
M 2125 0 
L 2125 1094 
L 163 1094 
L 163 1644 
L 2213 4488 
L 2688 4488 
L 2688 1584 
L 3347 1584 
L 3347 1094 
L 2688 1094 
L 2688 0 
L 2125 0 
z
" transform="scale(0.015625)"/>
       </defs>
       <use xlink:href="#Helvetica-34"/>
       <use xlink:href="#Helvetica-30" x="55.615234"/>
       <use xlink:href="#Helvetica-30" x="111.230469"/>
      </g>
     </g>
    </g>
    <g id="ytick_6">
     <g id="line2d_6">
      <g>
       <use xlink:href="#m8a3cc22806" x="10.005084" y="21.684083" style="fill: #777777; stroke: #777777; stroke-width: 0.5"/>
      </g>
     </g>
     <g id="text_8">
      <!-- 500 -->
      <g style="fill: #333333" transform="translate(3.00024 22.760099) scale(0.03 -0.03)">
       <defs>
        <path id="Helvetica-35" d="M 791 1141 
Q 847 659 1238 475 
Q 1438 381 1700 381 
Q 2200 381 2440 700 
Q 2681 1019 2681 1406 
Q 2681 1875 2395 2131 
Q 2109 2388 1709 2388 
Q 1419 2388 1211 2275 
Q 1003 2163 856 1963 
L 369 1991 
L 709 4400 
L 3034 4400 
L 3034 3856 
L 1131 3856 
L 941 2613 
Q 1097 2731 1238 2791 
Q 1488 2894 1816 2894 
Q 2431 2894 2859 2497 
Q 3288 2100 3288 1491 
Q 3288 856 2895 371 
Q 2503 -113 1644 -113 
Q 1097 -113 676 195 
Q 256 503 206 1141 
L 791 1141 
z
" transform="scale(0.015625)"/>
       </defs>
       <use xlink:href="#Helvetica-35"/>
       <use xlink:href="#Helvetica-30" x="55.615234"/>
       <use xlink:href="#Helvetica-30" x="111.230469"/>
      </g>
     </g>
    </g>
    <g id="ytick_7">
     <g id="line2d_7">
      <g>
       <use xlink:href="#m8a3cc22806" x="10.005084" y="12.880169" style="fill: #777777; stroke: #777777; stroke-width: 0.5"/>
      </g>
     </g>
     <g id="text_9">
      <!-- 600 -->
      <g style="fill: #333333" transform="translate(3.00024 13.956185) scale(0.03 -0.03)">
       <defs>
        <path id="Helvetica-36" d="M 1872 4494 
Q 2622 4494 2917 4105 
Q 3213 3716 3213 3303 
L 2656 3303 
Q 2606 3569 2497 3719 
Q 2294 4000 1881 4000 
Q 1409 4000 1131 3564 
Q 853 3128 822 2316 
Q 1016 2600 1309 2741 
Q 1578 2866 1909 2866 
Q 2472 2866 2890 2506 
Q 3309 2147 3309 1434 
Q 3309 825 2912 354 
Q 2516 -116 1781 -116 
Q 1153 -116 697 361 
Q 241 838 241 1966 
Q 241 2800 444 3381 
Q 834 4494 1872 4494 
z
M 1831 384 
Q 2275 384 2495 682 
Q 2716 981 2716 1388 
Q 2716 1731 2519 2042 
Q 2322 2353 1803 2353 
Q 1441 2353 1167 2112 
Q 894 1872 894 1388 
Q 894 963 1142 673 
Q 1391 384 1831 384 
z
" transform="scale(0.015625)"/>
       </defs>
       <use xlink:href="#Helvetica-36"/>
       <use xlink:href="#Helvetica-30" x="55.615234"/>
       <use xlink:href="#Helvetica-30" x="111.230469"/>
      </g>
     </g>
    </g>
    <g id="ytick_8">
     <g id="line2d_8">
      <g>
       <use xlink:href="#m8a3cc22806" x="10.005084" y="4.076256" style="fill: #777777; stroke: #777777; stroke-width: 0.5"/>
      </g>
     </g>
     <g id="text_10">
      <!-- 700 -->
      <g style="fill: #333333" transform="translate(3.00024 5.152271) scale(0.03 -0.03)">
       <use xlink:href="#Helvetica-37"/>
       <use xlink:href="#Helvetica-30" x="55.615234"/>
       <use xlink:href="#Helvetica-30" x="111.230469"/>
      </g>
     </g>
    </g>
   </g>
   <g id="PolyCollection_1">
    <defs>
     <path id="mfcd605be06" d="M 22.564528 -20.139738 
L 19.022978 -20.139738 
L 18.684208 -20.347626 
L 18.310559 -20.555515 
L 17.905063 -20.763403 
L 17.472187 -20.971291 
L 17.017738 -21.179179 
L 16.548678 -21.387067 
L 16.072836 -21.594955 
L 15.598539 -21.802843 
L 15.134201 -22.010731 
L 14.687889 -22.218619 
L 14.266915 -22.426507 
L 13.877489 -22.634396 
L 13.524477 -22.842284 
L 13.211274 -23.050172 
L 12.939813 -23.25806 
L 12.710696 -23.465948 
L 12.523442 -23.673836 
L 12.376797 -23.881724 
L 12.26908 -24.089612 
L 12.198515 -24.2975 
L 12.163505 -24.505388 
L 12.162818 -24.713276 
L 12.195657 -24.921165 
L 12.261635 -25.129053 
L 12.360628 -25.336941 
L 12.492581 -25.544829 
L 12.657256 -25.752717 
L 12.854002 -25.960605 
L 13.081559 -26.168493 
L 13.337929 -26.376381 
L 13.620352 -26.584269 
L 13.925356 -26.792157 
L 14.248909 -27.000046 
L 14.586616 -27.207934 
L 14.933963 -27.415822 
L 15.286555 -27.62371 
L 15.640328 -27.831598 
L 15.991709 -28.039486 
L 16.337713 -28.247374 
L 16.675969 -28.455262 
L 17.004683 -28.66315 
L 17.322554 -28.871038 
L 17.628655 -29.078927 
L 17.922308 -29.286815 
L 18.20297 -29.494703 
L 18.470134 -29.702591 
L 18.723277 -29.910479 
L 18.961833 -30.118367 
L 19.185206 -30.326255 
L 19.392807 -30.534143 
L 19.58411 -30.742031 
L 19.758706 -30.949919 
L 19.91636 -31.157808 
L 20.057044 -31.365696 
L 20.180956 -31.573584 
L 20.288514 -31.781472 
L 20.38033 -31.98936 
L 20.457161 -32.197248 
L 20.519852 -32.405136 
L 20.569268 -32.613024 
L 20.606227 -32.820912 
L 20.631439 -33.0288 
L 20.645458 -33.236689 
L 20.648645 -33.444577 
L 20.641158 -33.652465 
L 20.622956 -33.860353 
L 20.593829 -34.068241 
L 20.553454 -34.276129 
L 20.501465 -34.484017 
L 20.43754 -34.691905 
L 20.361508 -34.899793 
L 20.273451 -35.107681 
L 20.173807 -35.31557 
L 20.063468 -35.523458 
L 19.943842 -35.731346 
L 19.8169 -35.939234 
L 19.685175 -36.147122 
L 19.551723 -36.35501 
L 19.420034 -36.562898 
L 19.293905 -36.770786 
L 19.17727 -36.978674 
L 19.074007 -37.186562 
L 18.987725 -37.394451 
L 18.921563 -37.602339 
L 18.878 -37.810227 
L 18.8587 -38.018115 
L 18.864408 -38.226003 
L 18.894904 -38.433891 
L 18.949018 -38.641779 
L 19.024699 -38.849667 
L 19.119152 -39.057555 
L 19.229004 -39.265443 
L 19.350503 -39.473331 
L 19.479735 -39.68122 
L 19.612822 -39.889108 
L 19.746116 -40.096996 
L 19.876349 -40.304884 
L 20.000753 -40.512772 
L 20.117126 -40.72066 
L 21.470379 -40.72066 
L 21.470379 -40.72066 
L 21.586753 -40.512772 
L 21.711156 -40.304884 
L 21.84139 -40.096996 
L 21.974684 -39.889108 
L 22.107771 -39.68122 
L 22.237002 -39.473331 
L 22.358502 -39.265443 
L 22.468354 -39.057555 
L 22.562807 -38.849667 
L 22.638488 -38.641779 
L 22.692601 -38.433891 
L 22.723098 -38.226003 
L 22.728806 -38.018115 
L 22.709506 -37.810227 
L 22.665942 -37.602339 
L 22.599781 -37.394451 
L 22.513499 -37.186562 
L 22.410235 -36.978674 
L 22.2936 -36.770786 
L 22.167472 -36.562898 
L 22.035783 -36.35501 
L 21.902331 -36.147122 
L 21.770606 -35.939234 
L 21.643664 -35.731346 
L 21.524038 -35.523458 
L 21.413698 -35.31557 
L 21.314055 -35.107681 
L 21.225997 -34.899793 
L 21.149965 -34.691905 
L 21.086041 -34.484017 
L 21.034051 -34.276129 
L 20.993677 -34.068241 
L 20.96455 -33.860353 
L 20.946347 -33.652465 
L 20.93886 -33.444577 
L 20.942048 -33.236689 
L 20.956067 -33.0288 
L 20.981279 -32.820912 
L 21.018238 -32.613024 
L 21.067653 -32.405136 
L 21.130344 -32.197248 
L 21.207176 -31.98936 
L 21.298992 -31.781472 
L 21.40655 -31.573584 
L 21.530462 -31.365696 
L 21.671145 -31.157808 
L 21.828799 -30.949919 
L 22.003396 -30.742031 
L 22.194699 -30.534143 
L 22.4023 -30.326255 
L 22.625673 -30.118367 
L 22.864229 -29.910479 
L 23.117371 -29.702591 
L 23.384536 -29.494703 
L 23.665197 -29.286815 
L 23.958851 -29.078927 
L 24.264952 -28.871038 
L 24.582823 -28.66315 
L 24.911537 -28.455262 
L 25.249793 -28.247374 
L 25.595797 -28.039486 
L 25.947177 -27.831598 
L 26.30095 -27.62371 
L 26.653542 -27.415822 
L 27.00089 -27.207934 
L 27.338597 -27.000046 
L 27.66215 -26.792157 
L 27.967154 -26.584269 
L 28.249577 -26.376381 
L 28.505947 -26.168493 
L 28.733503 -25.960605 
L 28.93025 -25.752717 
L 29.094925 -25.544829 
L 29.226877 -25.336941 
L 29.325871 -25.129053 
L 29.391848 -24.921165 
L 29.424688 -24.713276 
L 29.424 -24.505388 
L 29.388991 -24.2975 
L 29.318426 -24.089612 
L 29.210709 -23.881724 
L 29.064063 -23.673836 
L 28.876809 -23.465948 
L 28.647693 -23.25806 
L 28.376231 -23.050172 
L 28.063029 -22.842284 
L 27.710017 -22.634396 
L 27.320591 -22.426507 
L 26.899616 -22.218619 
L 26.453304 -22.010731 
L 25.988967 -21.802843 
L 25.51467 -21.594955 
L 25.038827 -21.387067 
L 24.569768 -21.179179 
L 24.115319 -20.971291 
L 23.682443 -20.763403 
L 23.276947 -20.555515 
L 22.903297 -20.347626 
L 22.564528 -20.139738 
z
" style="stroke: #7c7c7c; stroke-width: 0.15"/>
    </defs>
    <g clip-path="url(#p2f5f206337)">
     <use xlink:href="#mfcd605be06" x="0" y="84.96" style="fill: #cfcfcf; stroke: #7c7c7c; stroke-width: 0.15"/>
    </g>
   </g>
   <g id="PolyCollection_2">
    <defs>
     <path id="m23c43424b7" d="M 43.659094 -20.071087 
L 41.083088 -20.071087 
L 40.81088 -20.130494 
L 40.502257 -20.1899 
L 40.157364 -20.249306 
L 39.777557 -20.308712 
L 39.365523 -20.368118 
L 38.925331 -20.427524 
L 38.46241 -20.48693 
L 37.98344 -20.546336 
L 37.496158 -20.605742 
L 37.009079 -20.665148 
L 36.531143 -20.724555 
L 36.071323 -20.783961 
L 35.638195 -20.843367 
L 35.239529 -20.902773 
L 34.88191 -20.962179 
L 34.570436 -21.021585 
L 34.308507 -21.080991 
L 34.097731 -21.140397 
L 33.937951 -21.199803 
L 33.827384 -21.259209 
L 33.762863 -21.318616 
L 33.740156 -21.378022 
L 33.754318 -21.437428 
L 33.800065 -21.496834 
L 33.872103 -21.55624 
L 33.965416 -21.615646 
L 34.075469 -21.675052 
L 34.198331 -21.734458 
L 34.330713 -21.793864 
L 34.469937 -21.85327 
L 34.613851 -21.912677 
L 34.760729 -21.972083 
L 34.909157 -22.031489 
L 35.057953 -22.090895 
L 35.206115 -22.150301 
L 35.352813 -22.209707 
L 35.497427 -22.269113 
L 35.639614 -22.328519 
L 35.779384 -22.387925 
L 35.917182 -22.447331 
L 36.053943 -22.506738 
L 36.19111 -22.566144 
L 36.330599 -22.62555 
L 36.474717 -22.684956 
L 36.626024 -22.744362 
L 36.787158 -22.803768 
L 36.96063 -22.863174 
L 37.148612 -22.92258 
L 37.352737 -22.981986 
L 37.573926 -23.041392 
L 37.812264 -23.100799 
L 38.066926 -23.160205 
L 38.336171 -23.219611 
L 38.617394 -23.279017 
L 38.907236 -23.338423 
L 39.201741 -23.397829 
L 39.496544 -23.457235 
L 39.787073 -23.516641 
L 40.068752 -23.576047 
L 40.337191 -23.635453 
L 40.588343 -23.69486 
L 40.818622 -23.754266 
L 41.02499 -23.813672 
L 41.204993 -23.873078 
L 41.356764 -23.932484 
L 41.479008 -23.99189 
L 41.570959 -24.051296 
L 41.63234 -24.110702 
L 41.663331 -24.170108 
L 41.664546 -24.229515 
L 41.637034 -24.288921 
L 41.582296 -24.348327 
L 41.502323 -24.407733 
L 41.399638 -24.467139 
L 41.277328 -24.526545 
L 41.139072 -24.585951 
L 40.98913 -24.645357 
L 40.832291 -24.704763 
L 40.673777 -24.764169 
L 40.519093 -24.823576 
L 40.373834 -24.882982 
L 40.243451 -24.942388 
L 40.133002 -25.001794 
L 40.04689 -25.0612 
L 39.988638 -25.120606 
L 39.960684 -25.180012 
L 39.964253 -25.239418 
L 39.999291 -25.298824 
L 40.064482 -25.35823 
L 40.157342 -25.417637 
L 40.274386 -25.477043 
L 40.411352 -25.536449 
L 40.56346 -25.595855 
L 40.725694 -25.655261 
L 40.89307 -25.714667 
L 41.060887 -25.774073 
L 41.224931 -25.833479 
L 41.381628 -25.892885 
L 41.52814 -25.952291 
L 43.214041 -25.952291 
L 43.214041 -25.952291 
L 43.360554 -25.892885 
L 43.517251 -25.833479 
L 43.681294 -25.774073 
L 43.849112 -25.714667 
L 44.016488 -25.655261 
L 44.178722 -25.595855 
L 44.33083 -25.536449 
L 44.467796 -25.477043 
L 44.58484 -25.417637 
L 44.677699 -25.35823 
L 44.742891 -25.298824 
L 44.777929 -25.239418 
L 44.781498 -25.180012 
L 44.753544 -25.120606 
L 44.695292 -25.0612 
L 44.60918 -25.001794 
L 44.498731 -24.942388 
L 44.368348 -24.882982 
L 44.223089 -24.823576 
L 44.068405 -24.764169 
L 43.909891 -24.704763 
L 43.753052 -24.645357 
L 43.60311 -24.585951 
L 43.464854 -24.526545 
L 43.342544 -24.467139 
L 43.239858 -24.407733 
L 43.159886 -24.348327 
L 43.105148 -24.288921 
L 43.077636 -24.229515 
L 43.07885 -24.170108 
L 43.109841 -24.110702 
L 43.171223 -24.051296 
L 43.263173 -23.99189 
L 43.385418 -23.932484 
L 43.537189 -23.873078 
L 43.717192 -23.813672 
L 43.92356 -23.754266 
L 44.153839 -23.69486 
L 44.40499 -23.635453 
L 44.67343 -23.576047 
L 44.955109 -23.516641 
L 45.245637 -23.457235 
L 45.54044 -23.397829 
L 45.834946 -23.338423 
L 46.124788 -23.279017 
L 46.406011 -23.219611 
L 46.675256 -23.160205 
L 46.929918 -23.100799 
L 47.168256 -23.041392 
L 47.389445 -22.981986 
L 47.59357 -22.92258 
L 47.781552 -22.863174 
L 47.955024 -22.803768 
L 48.116158 -22.744362 
L 48.267465 -22.684956 
L 48.411583 -22.62555 
L 48.551072 -22.566144 
L 48.688239 -22.506738 
L 48.825 -22.447331 
L 48.962798 -22.387925 
L 49.102568 -22.328519 
L 49.244754 -22.269113 
L 49.389369 -22.209707 
L 49.536067 -22.150301 
L 49.684229 -22.090895 
L 49.833025 -22.031489 
L 49.981453 -21.972083 
L 50.128331 -21.912677 
L 50.272245 -21.85327 
L 50.411469 -21.793864 
L 50.543851 -21.734458 
L 50.666713 -21.675052 
L 50.776766 -21.615646 
L 50.870079 -21.55624 
L 50.942117 -21.496834 
L 50.987863 -21.437428 
L 51.002026 -21.378022 
L 50.979319 -21.318616 
L 50.914798 -21.259209 
L 50.804231 -21.199803 
L 50.644451 -21.140397 
L 50.433675 -21.080991 
L 50.171746 -21.021585 
L 49.860272 -20.962179 
L 49.502653 -20.902773 
L 49.103987 -20.843367 
L 48.670859 -20.783961 
L 48.211039 -20.724555 
L 47.733103 -20.665148 
L 47.246024 -20.605742 
L 46.758742 -20.546336 
L 46.279772 -20.48693 
L 45.816851 -20.427524 
L 45.376658 -20.368118 
L 44.964625 -20.308712 
L 44.584818 -20.249306 
L 44.239925 -20.1899 
L 43.931302 -20.130494 
L 43.659094 -20.071087 
z
" style="stroke: #7c7c7c; stroke-width: 0.15"/>
    </defs>
    <g clip-path="url(#p2f5f206337)">
     <use xlink:href="#m23c43424b7" x="0" y="84.96" style="fill: #f3f3ae; stroke: #7c7c7c; stroke-width: 0.15"/>
    </g>
   </g>
   <g id="line2d_9">
    <path d="M 20.793753 62.174358 
L 20.793753 56.252907 
" clip-path="url(#p2f5f206337)" style="fill: none; stroke: #8c8c8c; stroke-width: 0.75; stroke-linecap: round"/>
   </g>
   <g id="line2d_10">
    <path d="M 20.793753 61.854651 
L 20.793753 58.24878 
" clip-path="url(#p2f5f206337)" style="fill: none; stroke: #8c8c8c; stroke-width: 4; stroke-linecap: round"/>
   </g>
   <g id="line2d_11">
    <path d="M 20.793753 59.185167 
" clip-path="url(#p2f5f206337)" style="fill: none; stroke: #7c7c7c; stroke-width: 1.2; stroke-linecap: round"/>
    <defs>
     <path id="m433ace18d6" d="M 0 0.833333 
C 0.221003 0.833333 0.432983 0.745528 0.589256 0.589256 
C 0.745528 0.432983 0.833333 0.221003 0.833333 0 
C 0.833333 -0.221003 0.745528 -0.432983 0.589256 -0.589256 
C 0.432983 -0.745528 0.221003 -0.833333 0 -0.833333 
C -0.221003 -0.833333 -0.432983 -0.745528 -0.589256 -0.589256 
C -0.745528 -0.432983 -0.833333 -0.221003 -0.833333 0 
C -0.833333 0.221003 -0.745528 0.432983 -0.589256 0.589256 
C -0.432983 0.745528 -0.221003 0.833333 0 0.833333 
z
" style="stroke: #ffffff; stroke-width: 0.8"/>
    </defs>
    <g clip-path="url(#p2f5f206337)">
     <use xlink:href="#m433ace18d6" x="20.793753" y="59.185167" style="fill: #ffffff; stroke: #ffffff; stroke-width: 0.8"/>
    </g>
   </g>
   <g id="line2d_12">
    <path d="M 42.371091 64.140446 
L 42.371091 61.806371 
" clip-path="url(#p2f5f206337)" style="fill: none; stroke: #8c8c8c; stroke-width: 0.75; stroke-linecap: round"/>
   </g>
   <g id="line2d_13">
    <path d="M 42.371091 63.752434 
L 42.371091 62.169091 
" clip-path="url(#p2f5f206337)" style="fill: none; stroke: #8c8c8c; stroke-width: 4; stroke-linecap: round"/>
   </g>
   <g id="line2d_14">
    <path d="M 42.371091 63.009154 
" clip-path="url(#p2f5f206337)" style="fill: none; stroke: #7c7c7c; stroke-width: 1.2; stroke-linecap: round"/>
    <g clip-path="url(#p2f5f206337)">
     <use xlink:href="#m433ace18d6" x="42.371091" y="63.009154" style="fill: #ffffff; stroke: #ffffff; stroke-width: 0.8"/>
    </g>
   </g>
   <g id="patch_3">
    <path d="M 10.005084 74.419526 
L 10.005084 4.076256 
" style="fill: none; stroke: #777777; stroke-width: 0.5; stroke-linejoin: miter; stroke-linecap: square"/>
   </g>
   <g id="patch_4">
    <path d="M 10.005084 76.919526 
L 53.15976 76.919526 
" style="fill: none; stroke: #777777; stroke-width: 0.5; stroke-linejoin: miter; stroke-linecap: square"/>
   </g>
  </g>
 </g>
 <defs>
  <clipPath id="p2f5f206337">
   <rect x="10.005084" y="4.076256" width="43.154676" height="70.34327"/>
  </clipPath>
 </defs>
</svg>
