<?xml version="1.0" encoding="utf-8" standalone="no"?>
<!DOCTYPE svg PUBLIC "-//W3C//DTD SVG 1.1//EN"
  "http://www.w3.org/Graphics/SVG/1.1/DTD/svg11.dtd">
<svg xmlns:xlink="http://www.w3.org/1999/xlink" width="56.16pt" height="84.96pt" viewBox="0 0 56.16 84.96" xmlns="http://www.w3.org/2000/svg" version="1.1">
 <metadata>
  <rdf:RDF xmlns:dc="http://purl.org/dc/elements/1.1/" xmlns:cc="http://creativecommons.org/ns#" xmlns:rdf="http://www.w3.org/1999/02/22-rdf-syntax-ns#">
   <cc:Work>
    <dc:type rdf:resource="http://purl.org/dc/dcmitype/StillImage"/>
    <dc:date>2024-05-27T15:37:03.250052</dc:date>
    <dc:format>image/svg+xml</dc:format>
    <dc:creator>
     <cc:Agent>
      <dc:title>Matplotlib v3.8.3, https://matplotlib.org/</dc:title>
     </cc:Agent>
    </dc:creator>
   </cc:Work>
  </rdf:RDF>
 </metadata>
 <defs>
  <style type="text/css">*{stroke-linejoin: round; stroke-linecap: butt}</style>
 </defs>
 <g id="figure_1">
  <g id="patch_1">
   <path d="M 0 84.96 
L 56.16 84.96 
L 56.16 0 
L 0 0 
z
" style="fill: #ffffff"/>
  </g>
  <g id="axes_1">
   <g id="patch_2">
    <path d="M 10.005084 74.419526 
L 53.15976 74.419526 
L 53.15976 4.076256 
L 10.005084 4.076256 
z
" style="fill: #ffffff"/>
   </g>
   <g id="matplotlib.axis_1">
    <g id="xtick_1">
     <g id="text_1">
      <!-- GATA+ Cells -->
      <g style="fill: #333333" transform="translate(10.631175 81.230229) scale(0.035 -0.035)">
       <defs>
        <path id="Helvetica-47" d="M 2472 4709 
Q 3119 4709 3591 4459 
Q 4275 4100 4428 3200 
L 3813 3200 
Q 3700 3703 3347 3933 
Q 2994 4163 2456 4163 
Q 1819 4163 1383 3684 
Q 947 3206 947 2259 
Q 947 1441 1306 927 
Q 1666 413 2478 413 
Q 3100 413 3508 773 
Q 3916 1134 3925 1941 
L 2488 1941 
L 2488 2456 
L 4503 2456 
L 4503 0 
L 4103 0 
L 3953 591 
Q 3638 244 3394 109 
Q 2984 -122 2353 -122 
Q 1538 -122 950 406 
Q 309 1069 309 2225 
Q 309 3378 934 4059 
Q 1528 4709 2472 4709 
z
M 2369 4716 
L 2369 4716 
z
" transform="scale(0.015625)"/>
        <path id="Helvetica-41" d="M 2844 1881 
L 2147 3909 
L 1406 1881 
L 2844 1881 
z
M 1822 4591 
L 2525 4591 
L 4191 0 
L 3509 0 
L 3044 1375 
L 1228 1375 
L 731 0 
L 94 0 
L 1822 4591 
z
" transform="scale(0.015625)"/>
        <path id="Helvetica-54" d="M 3828 4591 
L 3828 4044 
L 2281 4044 
L 2281 0 
L 1650 0 
L 1650 4044 
L 103 4044 
L 103 4591 
L 3828 4591 
z
" transform="scale(0.015625)"/>
        <path id="Helvetica-2b" d="M 288 1369 
L 288 1894 
L 1650 1894 
L 1650 3266 
L 2184 3266 
L 2184 1894 
L 3547 1894 
L 3547 1369 
L 2184 1369 
L 2184 0 
L 1650 0 
L 1650 1369 
L 288 1369 
z
" transform="scale(0.015625)"/>
        <path id="Helvetica-20" transform="scale(0.015625)"/>
        <path id="Helvetica-43" d="M 2422 4716 
Q 3294 4716 3775 4256 
Q 4256 3797 4309 3213 
L 3703 3213 
Q 3600 3656 3292 3915 
Q 2984 4175 2428 4175 
Q 1750 4175 1333 3698 
Q 916 3222 916 2238 
Q 916 1431 1292 929 
Q 1669 428 2416 428 
Q 3103 428 3463 956 
Q 3653 1234 3747 1688 
L 4353 1688 
Q 4272 963 3816 472 
Q 3269 -119 2341 -119 
Q 1541 -119 997 366 
Q 281 1006 281 2344 
Q 281 3359 819 4009 
Q 1400 4716 2422 4716 
z
M 2297 4716 
L 2297 4716 
z
" transform="scale(0.015625)"/>
        <path id="Helvetica-65" d="M 1806 3422 
Q 2163 3422 2497 3255 
Q 2831 3088 3006 2822 
Q 3175 2569 3231 2231 
Q 3281 2000 3281 1494 
L 828 1494 
Q 844 984 1069 676 
Q 1294 369 1766 369 
Q 2206 369 2469 659 
Q 2619 828 2681 1050 
L 3234 1050 
Q 3213 866 3089 639 
Q 2966 413 2813 269 
Q 2556 19 2178 -69 
Q 1975 -119 1719 -119 
Q 1094 -119 659 336 
Q 225 791 225 1609 
Q 225 2416 662 2919 
Q 1100 3422 1806 3422 
z
M 2703 1941 
Q 2669 2306 2544 2525 
Q 2313 2931 1772 2931 
Q 1384 2931 1121 2651 
Q 859 2372 844 1941 
L 2703 1941 
z
M 1753 3428 
L 1753 3428 
z
" transform="scale(0.015625)"/>
        <path id="Helvetica-6c" d="M 428 4591 
L 991 4591 
L 991 0 
L 428 0 
L 428 4591 
z
" transform="scale(0.015625)"/>
        <path id="Helvetica-73" d="M 747 1050 
Q 772 769 888 619 
Q 1100 347 1625 347 
Q 1938 347 2175 483 
Q 2413 619 2413 903 
Q 2413 1119 2222 1231 
Q 2100 1300 1741 1391 
L 1294 1503 
Q 866 1609 663 1741 
Q 300 1969 300 2372 
Q 300 2847 642 3140 
Q 984 3434 1563 3434 
Q 2319 3434 2653 2991 
Q 2863 2709 2856 2384 
L 2325 2384 
Q 2309 2575 2191 2731 
Q 1997 2953 1519 2953 
Q 1200 2953 1036 2831 
Q 872 2709 872 2509 
Q 872 2291 1088 2159 
Q 1213 2081 1456 2022 
L 1828 1931 
Q 2434 1784 2641 1647 
Q 2969 1431 2969 969 
Q 2969 522 2630 197 
Q 2291 -128 1597 -128 
Q 850 -128 539 211 
Q 228 550 206 1050 
L 747 1050 
z
M 1578 3428 
L 1578 3428 
z
" transform="scale(0.015625)"/>
       </defs>
       <use xlink:href="#Helvetica-47"/>
       <use xlink:href="#Helvetica-41" x="77.783203"/>
       <use xlink:href="#Helvetica-54" x="144.482422"/>
       <use xlink:href="#Helvetica-41" x="205.566406"/>
       <use xlink:href="#Helvetica-2b" x="272.265625"/>
       <use xlink:href="#Helvetica-20" x="330.664062"/>
       <use xlink:href="#Helvetica-43" x="358.447266"/>
       <use xlink:href="#Helvetica-65" x="430.664062"/>
       <use xlink:href="#Helvetica-6c" x="486.279297"/>
       <use xlink:href="#Helvetica-6c" x="508.496094"/>
       <use xlink:href="#Helvetica-73" x="530.712891"/>
      </g>
     </g>
    </g>
    <g id="xtick_2">
     <g id="text_2">
      <!-- ICOS+ Cells -->
      <g style="fill: #333333" transform="translate(32.694685 81.230229) scale(0.035 -0.035)">
       <defs>
        <path id="Helvetica-49" d="M 628 4591 
L 1256 4591 
L 1256 0 
L 628 0 
L 628 4591 
z
" transform="scale(0.015625)"/>
        <path id="Helvetica-4f" d="M 2469 4716 
Q 3684 4716 4269 3934 
Q 4725 3325 4725 2375 
Q 4725 1347 4203 666 
Q 3591 -134 2456 -134 
Q 1397 -134 791 566 
Q 250 1241 250 2272 
Q 250 3203 713 3866 
Q 1306 4716 2469 4716 
z
M 2531 422 
Q 3353 422 3720 1011 
Q 4088 1600 4088 2366 
Q 4088 3175 3664 3669 
Q 3241 4163 2506 4163 
Q 1794 4163 1344 3673 
Q 894 3184 894 2231 
Q 894 1469 1280 945 
Q 1666 422 2531 422 
z
M 2488 4716 
L 2488 4716 
z
" transform="scale(0.015625)"/>
        <path id="Helvetica-53" d="M 894 1481 
Q 916 1091 1078 847 
Q 1388 391 2169 391 
Q 2519 391 2806 491 
Q 3363 684 3363 1184 
Q 3363 1559 3128 1719 
Q 2891 1875 2384 1991 
L 1763 2131 
Q 1153 2269 900 2434 
Q 463 2722 463 3294 
Q 463 3913 891 4309 
Q 1319 4706 2103 4706 
Q 2825 4706 3329 4357 
Q 3834 4009 3834 3244 
L 3250 3244 
Q 3203 3613 3050 3809 
Q 2766 4169 2084 4169 
Q 1534 4169 1293 3937 
Q 1053 3706 1053 3400 
Q 1053 3063 1334 2906 
Q 1519 2806 2169 2656 
L 2813 2509 
Q 3278 2403 3531 2219 
Q 3969 1897 3969 1284 
Q 3969 522 3414 194 
Q 2859 -134 2125 -134 
Q 1269 -134 784 303 
Q 300 738 309 1481 
L 894 1481 
z
M 2150 4716 
L 2150 4716 
z
" transform="scale(0.015625)"/>
       </defs>
       <use xlink:href="#Helvetica-49"/>
       <use xlink:href="#Helvetica-43" x="27.783203"/>
       <use xlink:href="#Helvetica-4f" x="100"/>
       <use xlink:href="#Helvetica-53" x="177.783203"/>
       <use xlink:href="#Helvetica-2b" x="244.482422"/>
       <use xlink:href="#Helvetica-20" x="302.880859"/>
       <use xlink:href="#Helvetica-43" x="330.664062"/>
       <use xlink:href="#Helvetica-65" x="402.880859"/>
       <use xlink:href="#Helvetica-6c" x="458.496094"/>
       <use xlink:href="#Helvetica-6c" x="480.712891"/>
       <use xlink:href="#Helvetica-73" x="502.929688"/>
      </g>
     </g>
    </g>
   </g>
   <g id="matplotlib.axis_2">
    <g id="ytick_1">
     <g id="line2d_1">
      <defs>
       <path id="mb6a4eaf47b" d="M 0 0 
L -1 0 
" style="stroke: #777777; stroke-width: 0.5"/>
      </defs>
      <g>
       <use xlink:href="#mb6a4eaf47b" x="10.005084" y="66.189518" style="fill: #777777; stroke: #777777; stroke-width: 0.5"/>
      </g>
     </g>
     <g id="text_3">
      <!-- 0 -->
      <g style="fill: #333333" transform="translate(6.336802 67.265534) scale(0.03 -0.03)">
       <defs>
        <path id="Helvetica-30" d="M 1731 4475 
Q 2600 4475 2988 3759 
Q 3288 3206 3288 2244 
Q 3288 1331 3016 734 
Q 2622 -122 1728 -122 
Q 922 -122 528 578 
Q 200 1163 200 2147 
Q 200 2909 397 3456 
Q 766 4475 1731 4475 
z
M 1725 391 
Q 2163 391 2422 778 
Q 2681 1166 2681 2222 
Q 2681 2984 2493 3476 
Q 2306 3969 1766 3969 
Q 1269 3969 1039 3501 
Q 809 3034 809 2125 
Q 809 1441 956 1025 
Q 1181 391 1725 391 
z
" transform="scale(0.015625)"/>
       </defs>
       <use xlink:href="#Helvetica-30"/>
      </g>
     </g>
    </g>
    <g id="ytick_2">
     <g id="line2d_2">
      <g>
       <use xlink:href="#mb6a4eaf47b" x="10.005084" y="55.837308" style="fill: #777777; stroke: #777777; stroke-width: 0.5"/>
      </g>
     </g>
     <g id="text_4">
      <!-- 20 -->
      <g style="fill: #333333" transform="translate(4.668521 56.913323) scale(0.03 -0.03)">
       <defs>
        <path id="Helvetica-32" d="M 200 0 
Q 231 578 439 1006 
Q 647 1434 1250 1784 
L 1850 2131 
Q 2253 2366 2416 2531 
Q 2672 2791 2672 3125 
Q 2672 3516 2437 3745 
Q 2203 3975 1813 3975 
Q 1234 3975 1013 3538 
Q 894 3303 881 2888 
L 309 2888 
Q 319 3472 525 3841 
Q 891 4491 1816 4491 
Q 2584 4491 2939 4075 
Q 3294 3659 3294 3150 
Q 3294 2613 2916 2231 
Q 2697 2009 2131 1694 
L 1703 1456 
Q 1397 1288 1222 1134 
Q 909 863 828 531 
L 3272 531 
L 3272 0 
L 200 0 
z
" transform="scale(0.015625)"/>
       </defs>
       <use xlink:href="#Helvetica-32"/>
       <use xlink:href="#Helvetica-30" x="55.615234"/>
      </g>
     </g>
    </g>
    <g id="ytick_3">
     <g id="line2d_3">
      <g>
       <use xlink:href="#mb6a4eaf47b" x="10.005084" y="45.485097" style="fill: #777777; stroke: #777777; stroke-width: 0.5"/>
      </g>
     </g>
     <g id="text_5">
      <!-- 40 -->
      <g style="fill: #333333" transform="translate(4.668521 46.561113) scale(0.03 -0.03)">
       <defs>
        <path id="Helvetica-34" d="M 2116 1584 
L 2116 3613 
L 681 1584 
L 2116 1584 
z
M 2125 0 
L 2125 1094 
L 163 1094 
L 163 1644 
L 2213 4488 
L 2688 4488 
L 2688 1584 
L 3347 1584 
L 3347 1094 
L 2688 1094 
L 2688 0 
L 2125 0 
z
" transform="scale(0.015625)"/>
       </defs>
       <use xlink:href="#Helvetica-34"/>
       <use xlink:href="#Helvetica-30" x="55.615234"/>
      </g>
     </g>
    </g>
    <g id="ytick_4">
     <g id="line2d_4">
      <g>
       <use xlink:href="#mb6a4eaf47b" x="10.005084" y="35.132887" style="fill: #777777; stroke: #777777; stroke-width: 0.5"/>
      </g>
     </g>
     <g id="text_6">
      <!-- 60 -->
      <g style="fill: #333333" transform="translate(4.668521 36.208903) scale(0.03 -0.03)">
       <defs>
        <path id="Helvetica-36" d="M 1872 4494 
Q 2622 4494 2917 4105 
Q 3213 3716 3213 3303 
L 2656 3303 
Q 2606 3569 2497 3719 
Q 2294 4000 1881 4000 
Q 1409 4000 1131 3564 
Q 853 3128 822 2316 
Q 1016 2600 1309 2741 
Q 1578 2866 1909 2866 
Q 2472 2866 2890 2506 
Q 3309 2147 3309 1434 
Q 3309 825 2912 354 
Q 2516 -116 1781 -116 
Q 1153 -116 697 361 
Q 241 838 241 1966 
Q 241 2800 444 3381 
Q 834 4494 1872 4494 
z
M 1831 384 
Q 2275 384 2495 682 
Q 2716 981 2716 1388 
Q 2716 1731 2519 2042 
Q 2322 2353 1803 2353 
Q 1441 2353 1167 2112 
Q 894 1872 894 1388 
Q 894 963 1142 673 
Q 1391 384 1831 384 
z
" transform="scale(0.015625)"/>
       </defs>
       <use xlink:href="#Helvetica-36"/>
       <use xlink:href="#Helvetica-30" x="55.615234"/>
      </g>
     </g>
    </g>
    <g id="ytick_5">
     <g id="line2d_5">
      <g>
       <use xlink:href="#mb6a4eaf47b" x="10.005084" y="24.780677" style="fill: #777777; stroke: #777777; stroke-width: 0.5"/>
      </g>
     </g>
     <g id="text_7">
      <!-- 80 -->
      <g style="fill: #333333" transform="translate(4.668521 25.856692) scale(0.03 -0.03)">
       <defs>
        <path id="Helvetica-38" d="M 1741 2600 
Q 2113 2600 2322 2808 
Q 2531 3016 2531 3303 
Q 2531 3553 2331 3762 
Q 2131 3972 1722 3972 
Q 1316 3972 1134 3762 
Q 953 3553 953 3272 
Q 953 2956 1187 2778 
Q 1422 2600 1741 2600 
z
M 1775 384 
Q 2166 384 2423 595 
Q 2681 806 2681 1225 
Q 2681 1659 2415 1884 
Q 2150 2109 1734 2109 
Q 1331 2109 1076 1879 
Q 822 1650 822 1244 
Q 822 894 1055 639 
Q 1288 384 1775 384 
z
M 975 2384 
Q 741 2484 609 2619 
Q 363 2869 363 3269 
Q 363 3769 725 4128 
Q 1088 4488 1753 4488 
Q 2397 4488 2762 4148 
Q 3128 3809 3128 3356 
Q 3128 2938 2916 2678 
Q 2797 2531 2547 2391 
Q 2825 2263 2984 2097 
Q 3281 1784 3281 1284 
Q 3281 694 2884 283 
Q 2488 -128 1763 -128 
Q 1109 -128 657 226 
Q 206 581 206 1256 
Q 206 1653 400 1942 
Q 594 2231 975 2384 
z
" transform="scale(0.015625)"/>
       </defs>
       <use xlink:href="#Helvetica-38"/>
       <use xlink:href="#Helvetica-30" x="55.615234"/>
      </g>
     </g>
    </g>
    <g id="ytick_6">
     <g id="line2d_6">
      <g>
       <use xlink:href="#mb6a4eaf47b" x="10.005084" y="14.428466" style="fill: #777777; stroke: #777777; stroke-width: 0.5"/>
      </g>
     </g>
     <g id="text_8">
      <!-- 100 -->
      <g style="fill: #333333" transform="translate(3.00024 15.504482) scale(0.03 -0.03)">
       <defs>
        <path id="Helvetica-31" d="M 613 3169 
L 613 3600 
Q 1222 3659 1462 3798 
Q 1703 3938 1822 4456 
L 2266 4456 
L 2266 0 
L 1666 0 
L 1666 3169 
L 613 3169 
z
" transform="scale(0.015625)"/>
       </defs>
       <use xlink:href="#Helvetica-31"/>
       <use xlink:href="#Helvetica-30" x="55.615234"/>
       <use xlink:href="#Helvetica-30" x="111.230469"/>
      </g>
     </g>
    </g>
    <g id="ytick_7">
     <g id="line2d_7">
      <g>
       <use xlink:href="#mb6a4eaf47b" x="10.005084" y="4.076256" style="fill: #777777; stroke: #777777; stroke-width: 0.5"/>
      </g>
     </g>
     <g id="text_9">
      <!-- 120 -->
      <g style="fill: #333333" transform="translate(3.00024 5.152271) scale(0.03 -0.03)">
       <use xlink:href="#Helvetica-31"/>
       <use xlink:href="#Helvetica-32" x="55.615234"/>
       <use xlink:href="#Helvetica-30" x="111.230469"/>
      </g>
     </g>
    </g>
   </g>
   <g id="PolyCollection_1">
    <defs>
     <path id="m36e9511a5e" d="M 22.050331 -18.749919 
L 19.537174 -18.749919 
L 19.294609 -18.752231 
L 19.026275 -18.754543 
L 18.734353 -18.756855 
L 18.422254 -18.759167 
L 18.094639 -18.761479 
L 17.757368 -18.763792 
L 17.417359 -18.766104 
L 17.082375 -18.768416 
L 16.760718 -18.770728 
L 16.460866 -18.77304 
L 16.191056 -18.775352 
L 15.958849 -18.777664 
L 15.770686 -18.779976 
L 15.631491 -18.782289 
L 15.544325 -18.784601 
L 15.510134 -18.786913 
L 15.527599 -18.789225 
L 15.593118 -18.791537 
L 15.700903 -18.793849 
L 15.843216 -18.796161 
L 16.010704 -18.798473 
L 16.192842 -18.800786 
L 16.378433 -18.803098 
L 16.556156 -18.80541 
L 16.715119 -18.807722 
L 16.845383 -18.810034 
L 16.938436 -18.812346 
L 16.987581 -18.814658 
L 16.988219 -18.81697 
L 16.938013 -18.819283 
L 16.836919 -18.821595 
L 16.687091 -18.823907 
L 16.492662 -18.826219 
L 16.259419 -18.828531 
L 15.994396 -18.830843 
L 15.705411 -18.833155 
L 15.400586 -18.835467 
L 15.087881 -18.83778 
L 14.774679 -18.840092 
L 14.467452 -18.842404 
L 14.171529 -18.844716 
L 13.89099 -18.847028 
L 13.628674 -18.84934 
L 13.386309 -18.851652 
L 13.164731 -18.853964 
L 12.964168 -18.856277 
L 12.784559 -18.858589 
L 12.625861 -18.860901 
L 12.488318 -18.863213 
L 12.37265 -18.865525 
L 12.28016 -18.867837 
L 12.21273 -18.870149 
L 12.172726 -18.872461 
L 12.162818 -18.874774 
L 12.185731 -18.877086 
L 12.243977 -18.879398 
L 12.339567 -18.88171 
L 12.47376 -18.884022 
L 12.646852 -18.886334 
L 12.858031 -18.888646 
L 13.105295 -18.890958 
L 13.385458 -18.893271 
L 13.694204 -18.895583 
L 14.026216 -18.897895 
L 14.375344 -18.900207 
L 14.734814 -18.902519 
L 15.097467 -18.904831 
L 15.456012 -18.907143 
L 15.803298 -18.909455 
L 16.132583 -18.911768 
L 16.437809 -18.91408 
L 16.713855 -18.916392 
L 16.956773 -18.918704 
L 17.16398 -18.921016 
L 17.3344 -18.923328 
L 17.468544 -18.92564 
L 17.568505 -18.927952 
L 17.637871 -18.930265 
L 17.681548 -18.932577 
L 17.705504 -18.934889 
L 17.716439 -18.937201 
L 17.721409 -18.939513 
L 17.727424 -18.941825 
L 17.741045 -18.944137 
L 17.768016 -18.946449 
L 17.812962 -18.948762 
L 17.87916 -18.951074 
L 17.968407 -18.953386 
L 18.081 -18.955698 
L 18.21581 -18.95801 
L 18.370448 -18.960322 
L 18.541502 -18.962634 
L 18.724824 -18.964946 
L 18.915843 -18.967259 
L 19.109869 -18.969571 
L 19.302381 -18.971883 
L 19.489262 -18.974195 
L 19.666983 -18.976507 
L 19.832726 -18.978819 
L 21.754779 -18.978819 
L 21.754779 -18.978819 
L 21.920522 -18.976507 
L 22.098243 -18.974195 
L 22.285124 -18.971883 
L 22.477636 -18.969571 
L 22.671663 -18.967259 
L 22.862682 -18.964946 
L 23.046004 -18.962634 
L 23.217057 -18.960322 
L 23.371695 -18.95801 
L 23.506506 -18.955698 
L 23.619099 -18.953386 
L 23.708346 -18.951074 
L 23.774543 -18.948762 
L 23.81949 -18.946449 
L 23.846461 -18.944137 
L 23.860081 -18.941825 
L 23.866096 -18.939513 
L 23.871067 -18.937201 
L 23.882002 -18.934889 
L 23.905957 -18.932577 
L 23.949634 -18.930265 
L 24.019 -18.927952 
L 24.118961 -18.92564 
L 24.253106 -18.923328 
L 24.423526 -18.921016 
L 24.630732 -18.918704 
L 24.87365 -18.916392 
L 25.149697 -18.91408 
L 25.454923 -18.911768 
L 25.784208 -18.909455 
L 26.131493 -18.907143 
L 26.490038 -18.904831 
L 26.852691 -18.902519 
L 27.212162 -18.900207 
L 27.56129 -18.897895 
L 27.893302 -18.895583 
L 28.202048 -18.893271 
L 28.48221 -18.890958 
L 28.729475 -18.888646 
L 28.940653 -18.886334 
L 29.113746 -18.884022 
L 29.247939 -18.88171 
L 29.343529 -18.879398 
L 29.401775 -18.877086 
L 29.424688 -18.874774 
L 29.414779 -18.872461 
L 29.374776 -18.870149 
L 29.307346 -18.867837 
L 29.214855 -18.865525 
L 29.099187 -18.863213 
L 28.961644 -18.860901 
L 28.802947 -18.858589 
L 28.623338 -18.856277 
L 28.422775 -18.853964 
L 28.201196 -18.851652 
L 27.958832 -18.84934 
L 27.696516 -18.847028 
L 27.415977 -18.844716 
L 27.120054 -18.842404 
L 26.812826 -18.840092 
L 26.499624 -18.83778 
L 26.18692 -18.835467 
L 25.882094 -18.833155 
L 25.593109 -18.830843 
L 25.328086 -18.828531 
L 25.094843 -18.826219 
L 24.900415 -18.823907 
L 24.750586 -18.821595 
L 24.649492 -18.819283 
L 24.599286 -18.81697 
L 24.599924 -18.814658 
L 24.64907 -18.812346 
L 24.742123 -18.810034 
L 24.872387 -18.807722 
L 25.03135 -18.80541 
L 25.209073 -18.803098 
L 25.394664 -18.800786 
L 25.576802 -18.798473 
L 25.74429 -18.796161 
L 25.886602 -18.793849 
L 25.994388 -18.791537 
L 26.059907 -18.789225 
L 26.077372 -18.786913 
L 26.043181 -18.784601 
L 25.956015 -18.782289 
L 25.81682 -18.779976 
L 25.628657 -18.777664 
L 25.396449 -18.775352 
L 25.12664 -18.77304 
L 24.826788 -18.770728 
L 24.50513 -18.768416 
L 24.170146 -18.766104 
L 23.830138 -18.763792 
L 23.492866 -18.761479 
L 23.165251 -18.759167 
L 22.853152 -18.756855 
L 22.561231 -18.754543 
L 22.292897 -18.752231 
L 22.050331 -18.749919 
z
" style="stroke: #6f6f6f; stroke-width: 0.15"/>
    </defs>
    <g clip-path="url(#pdec464b553)">
     <use xlink:href="#m36e9511a5e" x="0" y="84.96" style="fill: #d6bba3; stroke: #6f6f6f; stroke-width: 0.15"/>
    </g>
   </g>
   <g id="PolyCollection_2">
    <defs>
     <path id="m705b9eaa50" d="M 43.443509 -18.716204 
L 41.298673 -18.716204 
L 41.115837 -18.720847 
L 40.916666 -18.725491 
L 40.702494 -18.730134 
L 40.475094 -18.734778 
L 40.236592 -18.739421 
L 39.98935 -18.744065 
L 39.735815 -18.748708 
L 39.478357 -18.753352 
L 39.219095 -18.757995 
L 38.959737 -18.762639 
L 38.70145 -18.767282 
L 38.444773 -18.771925 
L 38.189584 -18.776569 
L 37.935138 -18.781212 
L 37.680174 -18.785856 
L 37.42309 -18.790499 
L 37.162168 -18.795143 
L 36.895847 -18.799786 
L 36.623013 -18.80443 
L 36.343274 -18.809073 
L 36.057212 -18.813717 
L 35.766567 -18.81836 
L 35.474351 -18.823004 
L 35.184851 -18.827647 
L 34.90354 -18.83229 
L 34.636873 -18.836934 
L 34.391987 -18.841577 
L 34.176323 -18.846221 
L 33.997186 -18.850864 
L 33.861274 -18.855508 
L 33.774219 -18.860151 
L 33.740156 -18.864795 
L 33.761361 -18.869438 
L 33.837994 -18.874082 
L 33.967946 -18.878725 
L 34.14683 -18.883368 
L 34.368103 -18.888012 
L 34.623327 -18.892655 
L 34.902548 -18.897299 
L 35.194777 -18.901942 
L 35.488543 -18.906586 
L 35.772487 -18.911229 
L 36.035959 -18.915873 
L 36.26958 -18.920516 
L 36.465741 -18.92516 
L 36.618994 -18.929803 
L 36.726327 -18.934447 
L 36.78729 -18.93909 
L 36.803972 -18.943733 
L 36.78083 -18.948377 
L 36.724373 -18.95302 
L 36.642726 -18.957664 
L 36.545102 -18.962307 
L 36.441206 -18.966951 
L 36.340623 -18.971594 
L 36.252215 -18.976238 
L 36.183573 -18.980881 
L 36.140563 -18.985525 
L 36.126979 -18.990168 
L 36.144345 -18.994811 
L 36.191872 -18.999455 
L 36.266558 -19.004098 
L 36.363446 -19.008742 
L 36.476006 -19.013385 
L 36.596619 -19.018029 
L 36.717131 -19.022672 
L 36.829438 -19.027316 
L 36.926061 -19.031959 
L 37.000677 -19.036603 
L 37.048571 -19.041246 
L 37.066967 -19.04589 
L 37.055241 -19.050533 
L 37.014986 -19.055176 
L 36.949926 -19.05982 
L 36.865705 -19.064463 
L 36.769545 -19.069107 
L 36.669811 -19.07375 
L 36.575513 -19.078394 
L 36.495774 -19.083037 
L 36.439298 -19.087681 
L 36.413881 -19.092324 
L 36.425985 -19.096968 
L 36.480405 -19.101611 
L 36.580047 -19.106254 
L 36.725819 -19.110898 
L 36.916654 -19.115541 
L 37.149629 -19.120185 
L 37.420197 -19.124828 
L 37.722487 -19.129472 
L 38.04966 -19.134115 
L 38.394293 -19.138759 
L 38.748762 -19.143402 
L 39.105605 -19.148046 
L 39.457837 -19.152689 
L 39.799215 -19.157333 
L 40.124429 -19.161976 
L 40.42922 -19.166619 
L 40.710438 -19.171263 
L 40.966026 -19.175906 
L 43.776156 -19.175906 
L 43.776156 -19.175906 
L 44.031744 -19.171263 
L 44.312962 -19.166619 
L 44.617753 -19.161976 
L 44.942966 -19.157333 
L 45.284345 -19.152689 
L 45.636577 -19.148046 
L 45.99342 -19.143402 
L 46.347889 -19.138759 
L 46.692522 -19.134115 
L 47.019695 -19.129472 
L 47.321985 -19.124828 
L 47.592553 -19.120185 
L 47.825528 -19.115541 
L 48.016362 -19.110898 
L 48.162135 -19.106254 
L 48.261777 -19.101611 
L 48.316197 -19.096968 
L 48.328301 -19.092324 
L 48.302884 -19.087681 
L 48.246408 -19.083037 
L 48.166669 -19.078394 
L 48.072371 -19.07375 
L 47.972637 -19.069107 
L 47.876476 -19.064463 
L 47.792256 -19.05982 
L 47.727196 -19.055176 
L 47.686941 -19.050533 
L 47.675215 -19.04589 
L 47.693611 -19.041246 
L 47.741505 -19.036603 
L 47.816121 -19.031959 
L 47.912744 -19.027316 
L 48.025051 -19.022672 
L 48.145563 -19.018029 
L 48.266176 -19.013385 
L 48.378736 -19.008742 
L 48.475624 -19.004098 
L 48.55031 -18.999455 
L 48.597837 -18.994811 
L 48.615203 -18.990168 
L 48.601619 -18.985525 
L 48.558608 -18.980881 
L 48.489967 -18.976238 
L 48.401559 -18.971594 
L 48.300976 -18.966951 
L 48.19708 -18.962307 
L 48.099455 -18.957664 
L 48.017809 -18.95302 
L 47.961352 -18.948377 
L 47.93821 -18.943733 
L 47.954892 -18.93909 
L 48.015855 -18.934447 
L 48.123188 -18.929803 
L 48.276441 -18.92516 
L 48.472602 -18.920516 
L 48.706223 -18.915873 
L 48.969695 -18.911229 
L 49.253639 -18.906586 
L 49.547405 -18.901942 
L 49.839634 -18.897299 
L 50.118855 -18.892655 
L 50.374079 -18.888012 
L 50.595352 -18.883368 
L 50.774236 -18.878725 
L 50.904188 -18.874082 
L 50.98082 -18.869438 
L 51.002026 -18.864795 
L 50.967963 -18.860151 
L 50.880908 -18.855508 
L 50.744996 -18.850864 
L 50.565859 -18.846221 
L 50.350195 -18.841577 
L 50.105309 -18.836934 
L 49.838642 -18.83229 
L 49.557331 -18.827647 
L 49.267831 -18.823004 
L 48.975615 -18.81836 
L 48.68497 -18.813717 
L 48.398908 -18.809073 
L 48.119169 -18.80443 
L 47.846334 -18.799786 
L 47.580014 -18.795143 
L 47.319092 -18.790499 
L 47.062008 -18.785856 
L 46.807044 -18.781212 
L 46.552598 -18.776569 
L 46.297409 -18.771925 
L 46.040731 -18.767282 
L 45.782445 -18.762639 
L 45.523087 -18.757995 
L 45.263825 -18.753352 
L 45.006367 -18.748708 
L 44.752832 -18.744065 
L 44.505589 -18.739421 
L 44.267088 -18.734778 
L 44.039688 -18.730134 
L 43.825516 -18.725491 
L 43.626344 -18.720847 
L 43.443509 -18.716204 
z
" style="stroke: #6f6f6f; stroke-width: 0.15"/>
    </defs>
    <g clip-path="url(#pdec464b553)">
     <use xlink:href="#m705b9eaa50" x="0" y="84.96" style="fill: #f1b9e0; stroke: #6f6f6f; stroke-width: 0.15"/>
    </g>
   </g>
   <g id="line2d_8">
    <path d="M 20.793753 66.180567 
L 20.793753 66.010695 
" clip-path="url(#pdec464b553)" style="fill: none; stroke: #8c8c8c; stroke-width: 0.75; stroke-linecap: round"/>
   </g>
   <g id="line2d_9">
    <path d="M 20.793753 66.130848 
L 20.793753 66.073459 
" clip-path="url(#pdec464b553)" style="fill: none; stroke: #8c8c8c; stroke-width: 4; stroke-linecap: round"/>
   </g>
   <g id="line2d_10">
    <path d="M 20.793753 66.094043 
" clip-path="url(#pdec464b553)" style="fill: none; stroke: #6f6f6f; stroke-width: 1.2; stroke-linecap: round"/>
    <defs>
     <path id="m526a55c5fa" d="M 0 0.833333 
C 0.221003 0.833333 0.432983 0.745528 0.589256 0.589256 
C 0.745528 0.432983 0.833333 0.221003 0.833333 0 
C 0.833333 -0.221003 0.745528 -0.432983 0.589256 -0.589256 
C 0.432983 -0.745528 0.221003 -0.833333 0 -0.833333 
C -0.221003 -0.833333 -0.432983 -0.745528 -0.589256 -0.589256 
C -0.745528 -0.432983 -0.833333 -0.221003 -0.833333 0 
C -0.833333 0.221003 -0.745528 0.432983 -0.589256 0.589256 
C -0.432983 0.745528 -0.221003 0.833333 0 0.833333 
z
" style="stroke: #ffffff; stroke-width: 0.8"/>
    </defs>
    <g clip-path="url(#pdec464b553)">
     <use xlink:href="#m526a55c5fa" x="20.793753" y="66.094043" style="fill: #ffffff; stroke: #ffffff; stroke-width: 0.8"/>
    </g>
   </g>
   <g id="line2d_11">
    <path d="M 42.371091 66.181084 
L 42.371091 65.846806 
" clip-path="url(#pdec464b553)" style="fill: none; stroke: #8c8c8c; stroke-width: 0.75; stroke-linecap: round"/>
   </g>
   <g id="line2d_12">
    <path d="M 42.371091 66.094497 
L 42.371091 65.937634 
" clip-path="url(#pdec464b553)" style="fill: none; stroke: #8c8c8c; stroke-width: 4; stroke-linecap: round"/>
   </g>
   <g id="line2d_13">
    <path d="M 42.371091 66.027091 
" clip-path="url(#pdec464b553)" style="fill: none; stroke: #6f6f6f; stroke-width: 1.2; stroke-linecap: round"/>
    <g clip-path="url(#pdec464b553)">
     <use xlink:href="#m526a55c5fa" x="42.371091" y="66.027091" style="fill: #ffffff; stroke: #ffffff; stroke-width: 0.8"/>
    </g>
   </g>
   <g id="patch_3">
    <path d="M 10.005084 74.419526 
L 10.005084 4.076256 
" style="fill: none; stroke: #777777; stroke-width: 0.5; stroke-linejoin: miter; stroke-linecap: square"/>
   </g>
   <g id="patch_4">
    <path d="M 10.005084 76.919526 
L 53.15976 76.919526 
" style="fill: none; stroke: #777777; stroke-width: 0.5; stroke-linejoin: miter; stroke-linecap: square"/>
   </g>
  </g>
 </g>
 <defs>
  <clipPath id="pdec464b553">
   <rect x="10.005084" y="4.076256" width="43.154676" height="70.34327"/>
  </clipPath>
 </defs>
</svg>
