<?xml version="1.0" encoding="utf-8" standalone="no"?>
<!DOCTYPE svg PUBLIC "-//W3C//DTD SVG 1.1//EN"
  "http://www.w3.org/Graphics/SVG/1.1/DTD/svg11.dtd">
<svg xmlns:xlink="http://www.w3.org/1999/xlink" width="56.16pt" height="84.96pt" viewBox="0 0 56.16 84.96" xmlns="http://www.w3.org/2000/svg" version="1.1">
 <metadata>
  <rdf:RDF xmlns:dc="http://purl.org/dc/elements/1.1/" xmlns:cc="http://creativecommons.org/ns#" xmlns:rdf="http://www.w3.org/1999/02/22-rdf-syntax-ns#">
   <cc:Work>
    <dc:type rdf:resource="http://purl.org/dc/dcmitype/StillImage"/>
    <dc:date>2024-05-27T15:37:04.037734</dc:date>
    <dc:format>image/svg+xml</dc:format>
    <dc:creator>
     <cc:Agent>
      <dc:title>Matplotlib v3.8.3, https://matplotlib.org/</dc:title>
     </cc:Agent>
    </dc:creator>
   </cc:Work>
  </rdf:RDF>
 </metadata>
 <defs>
  <style type="text/css">*{stroke-linejoin: round; stroke-linecap: butt}</style>
 </defs>
 <g id="figure_1">
  <g id="patch_1">
   <path d="M 0 84.96 
L 56.16 84.96 
L 56.16 0 
L 0 0 
z
" style="fill: #ffffff"/>
  </g>
  <g id="axes_1">
   <g id="patch_2">
    <path d="M 8.336802 74.419526 
L 53.15976 74.419526 
L 53.15976 4.076256 
L 8.336802 4.076256 
z
" style="fill: #ffffff"/>
   </g>
   <g id="matplotlib.axis_1">
    <g id="xtick_1">
     <g id="text_1">
      <!-- ILC3 -->
      <g style="fill: #333333" transform="translate(15.846214 81.230229) scale(0.035 -0.035)">
       <defs>
        <path id="Helvetica-49" d="M 628 4591 
L 1256 4591 
L 1256 0 
L 628 0 
L 628 4591 
z
" transform="scale(0.015625)"/>
        <path id="Helvetica-4c" d="M 488 4591 
L 1109 4591 
L 1109 547 
L 3434 547 
L 3434 0 
L 488 0 
L 488 4591 
z
" transform="scale(0.015625)"/>
        <path id="Helvetica-43" d="M 2422 4716 
Q 3294 4716 3775 4256 
Q 4256 3797 4309 3213 
L 3703 3213 
Q 3600 3656 3292 3915 
Q 2984 4175 2428 4175 
Q 1750 4175 1333 3698 
Q 916 3222 916 2238 
Q 916 1431 1292 929 
Q 1669 428 2416 428 
Q 3103 428 3463 956 
Q 3653 1234 3747 1688 
L 4353 1688 
Q 4272 963 3816 472 
Q 3269 -119 2341 -119 
Q 1541 -119 997 366 
Q 281 1006 281 2344 
Q 281 3359 819 4009 
Q 1400 4716 2422 4716 
z
M 2297 4716 
L 2297 4716 
z
" transform="scale(0.015625)"/>
        <path id="Helvetica-33" d="M 1663 -122 
Q 869 -122 511 314 
Q 153 750 153 1375 
L 741 1375 
Q 778 941 903 744 
Q 1122 391 1694 391 
Q 2138 391 2406 628 
Q 2675 866 2675 1241 
Q 2675 1703 2392 1887 
Q 2109 2072 1606 2072 
Q 1550 2072 1492 2070 
Q 1434 2069 1375 2066 
L 1375 2563 
Q 1463 2553 1522 2550 
Q 1581 2547 1650 2547 
Q 1966 2547 2169 2647 
Q 2525 2822 2525 3272 
Q 2525 3606 2287 3787 
Q 2050 3969 1734 3969 
Q 1172 3969 956 3594 
Q 838 3388 822 3006 
L 266 3006 
Q 266 3506 466 3856 
Q 809 4481 1675 4481 
Q 2359 4481 2734 4176 
Q 3109 3872 3109 3294 
Q 3109 2881 2888 2625 
Q 2750 2466 2531 2375 
Q 2884 2278 3082 2001 
Q 3281 1725 3281 1325 
Q 3281 684 2859 281 
Q 2438 -122 1663 -122 
z
" transform="scale(0.015625)"/>
       </defs>
       <use xlink:href="#Helvetica-49"/>
       <use xlink:href="#Helvetica-4c" x="27.783203"/>
       <use xlink:href="#Helvetica-43" x="83.398438"/>
       <use xlink:href="#Helvetica-33" x="155.615234"/>
      </g>
     </g>
    </g>
    <g id="xtick_2">
     <g id="text_2">
      <!-- TH17 -->
      <g style="fill: #333333" transform="translate(37.674997 81.230229) scale(0.035 -0.035)">
       <defs>
        <path id="Helvetica-54" d="M 3828 4591 
L 3828 4044 
L 2281 4044 
L 2281 0 
L 1650 0 
L 1650 4044 
L 103 4044 
L 103 4591 
L 3828 4591 
z
" transform="scale(0.015625)"/>
        <path id="Helvetica-48" d="M 503 4591 
L 1131 4591 
L 1131 2694 
L 3519 2694 
L 3519 4591 
L 4147 4591 
L 4147 0 
L 3519 0 
L 3519 2147 
L 1131 2147 
L 1131 0 
L 503 0 
L 503 4591 
z
" transform="scale(0.015625)"/>
        <path id="Helvetica-31" d="M 613 3169 
L 613 3600 
Q 1222 3659 1462 3798 
Q 1703 3938 1822 4456 
L 2266 4456 
L 2266 0 
L 1666 0 
L 1666 3169 
L 613 3169 
z
" transform="scale(0.015625)"/>
        <path id="Helvetica-37" d="M 3347 4400 
L 3347 3909 
Q 3131 3700 2773 3181 
Q 2416 2663 2141 2063 
Q 1869 1478 1728 997 
Q 1638 688 1494 0 
L 872 0 
Q 1084 1281 1809 2550 
Q 2238 3294 2709 3834 
L 234 3834 
L 234 4400 
L 3347 4400 
z
" transform="scale(0.015625)"/>
       </defs>
       <use xlink:href="#Helvetica-54"/>
       <use xlink:href="#Helvetica-48" x="61.083984"/>
       <use xlink:href="#Helvetica-31" x="133.300781"/>
       <use xlink:href="#Helvetica-37" x="188.916016"/>
      </g>
     </g>
    </g>
   </g>
   <g id="matplotlib.axis_2">
    <g id="ytick_1">
     <g id="line2d_1">
      <defs>
       <path id="maa845c7323" d="M 0 0 
L -1 0 
" style="stroke: #777777; stroke-width: 0.5"/>
      </defs>
      <g>
       <use xlink:href="#maa845c7323" x="8.336802" y="66.995102" style="fill: #777777; stroke: #777777; stroke-width: 0.5"/>
      </g>
     </g>
     <g id="text_3">
      <!-- 0 -->
      <g style="fill: #333333" transform="translate(4.668521 68.071117) scale(0.03 -0.03)">
       <defs>
        <path id="Helvetica-30" d="M 1731 4475 
Q 2600 4475 2988 3759 
Q 3288 3206 3288 2244 
Q 3288 1331 3016 734 
Q 2622 -122 1728 -122 
Q 922 -122 528 578 
Q 200 1163 200 2147 
Q 200 2909 397 3456 
Q 766 4475 1731 4475 
z
M 1725 391 
Q 2163 391 2422 778 
Q 2681 1166 2681 2222 
Q 2681 2984 2493 3476 
Q 2306 3969 1766 3969 
Q 1269 3969 1039 3501 
Q 809 3034 809 2125 
Q 809 1441 956 1025 
Q 1181 391 1725 391 
z
" transform="scale(0.015625)"/>
       </defs>
       <use xlink:href="#Helvetica-30"/>
      </g>
     </g>
    </g>
    <g id="ytick_2">
     <g id="line2d_2">
      <g>
       <use xlink:href="#maa845c7323" x="8.336802" y="54.411333" style="fill: #777777; stroke: #777777; stroke-width: 0.5"/>
      </g>
     </g>
     <g id="text_4">
      <!-- 10 -->
      <g style="fill: #333333" transform="translate(3.00024 55.487348) scale(0.03 -0.03)">
       <use xlink:href="#Helvetica-31"/>
       <use xlink:href="#Helvetica-30" x="55.615234"/>
      </g>
     </g>
    </g>
    <g id="ytick_3">
     <g id="line2d_3">
      <g>
       <use xlink:href="#maa845c7323" x="8.336802" y="41.827563" style="fill: #777777; stroke: #777777; stroke-width: 0.5"/>
      </g>
     </g>
     <g id="text_5">
      <!-- 20 -->
      <g style="fill: #333333" transform="translate(3.00024 42.903579) scale(0.03 -0.03)">
       <defs>
        <path id="Helvetica-32" d="M 200 0 
Q 231 578 439 1006 
Q 647 1434 1250 1784 
L 1850 2131 
Q 2253 2366 2416 2531 
Q 2672 2791 2672 3125 
Q 2672 3516 2437 3745 
Q 2203 3975 1813 3975 
Q 1234 3975 1013 3538 
Q 894 3303 881 2888 
L 309 2888 
Q 319 3472 525 3841 
Q 891 4491 1816 4491 
Q 2584 4491 2939 4075 
Q 3294 3659 3294 3150 
Q 3294 2613 2916 2231 
Q 2697 2009 2131 1694 
L 1703 1456 
Q 1397 1288 1222 1134 
Q 909 863 828 531 
L 3272 531 
L 3272 0 
L 200 0 
z
" transform="scale(0.015625)"/>
       </defs>
       <use xlink:href="#Helvetica-32"/>
       <use xlink:href="#Helvetica-30" x="55.615234"/>
      </g>
     </g>
    </g>
    <g id="ytick_4">
     <g id="line2d_4">
      <g>
       <use xlink:href="#maa845c7323" x="8.336802" y="29.243794" style="fill: #777777; stroke: #777777; stroke-width: 0.5"/>
      </g>
     </g>
     <g id="text_6">
      <!-- 30 -->
      <g style="fill: #333333" transform="translate(3.00024 30.31981) scale(0.03 -0.03)">
       <use xlink:href="#Helvetica-33"/>
       <use xlink:href="#Helvetica-30" x="55.615234"/>
      </g>
     </g>
    </g>
    <g id="ytick_5">
     <g id="line2d_5">
      <g>
       <use xlink:href="#maa845c7323" x="8.336802" y="16.660025" style="fill: #777777; stroke: #777777; stroke-width: 0.5"/>
      </g>
     </g>
     <g id="text_7">
      <!-- 40 -->
      <g style="fill: #333333" transform="translate(3.00024 17.73604) scale(0.03 -0.03)">
       <defs>
        <path id="Helvetica-34" d="M 2116 1584 
L 2116 3613 
L 681 1584 
L 2116 1584 
z
M 2125 0 
L 2125 1094 
L 163 1094 
L 163 1644 
L 2213 4488 
L 2688 4488 
L 2688 1584 
L 3347 1584 
L 3347 1094 
L 2688 1094 
L 2688 0 
L 2125 0 
z
" transform="scale(0.015625)"/>
       </defs>
       <use xlink:href="#Helvetica-34"/>
       <use xlink:href="#Helvetica-30" x="55.615234"/>
      </g>
     </g>
    </g>
    <g id="ytick_6">
     <g id="line2d_6">
      <g>
       <use xlink:href="#maa845c7323" x="8.336802" y="4.076256" style="fill: #777777; stroke: #777777; stroke-width: 0.5"/>
      </g>
     </g>
     <g id="text_8">
      <!-- 50 -->
      <g style="fill: #333333" transform="translate(3.00024 5.152271) scale(0.03 -0.03)">
       <defs>
        <path id="Helvetica-35" d="M 791 1141 
Q 847 659 1238 475 
Q 1438 381 1700 381 
Q 2200 381 2440 700 
Q 2681 1019 2681 1406 
Q 2681 1875 2395 2131 
Q 2109 2388 1709 2388 
Q 1419 2388 1211 2275 
Q 1003 2163 856 1963 
L 369 1991 
L 709 4400 
L 3034 4400 
L 3034 3856 
L 1131 3856 
L 941 2613 
Q 1097 2731 1238 2791 
Q 1488 2894 1816 2894 
Q 2431 2894 2859 2497 
Q 3288 2100 3288 1491 
Q 3288 856 2895 371 
Q 2503 -113 1644 -113 
Q 1097 -113 676 195 
Q 256 503 206 1141 
L 791 1141 
z
" transform="scale(0.015625)"/>
       </defs>
       <use xlink:href="#Helvetica-35"/>
       <use xlink:href="#Helvetica-30" x="55.615234"/>
      </g>
     </g>
    </g>
   </g>
   <g id="PolyCollection_1">
    <defs>
     <path id="ma4b57b8ac7" d="M 21.790498 -17.52924 
L 17.294586 -17.52924 
L 16.912912 -17.565801 
L 16.496615 -17.602361 
L 16.048822 -17.638921 
L 15.574022 -17.675481 
L 15.078053 -17.712042 
L 14.568019 -17.748602 
L 14.052137 -17.785162 
L 13.539513 -17.821722 
L 13.03985 -17.858283 
L 12.563122 -17.894843 
L 12.119202 -17.931403 
L 11.71749 -17.967964 
L 11.366547 -18.004524 
L 11.07377 -18.041084 
L 10.84511 -18.077644 
L 10.684872 -18.114205 
L 10.595582 -18.150765 
L 10.57795 -18.187325 
L 10.63091 -18.223885 
L 10.751735 -18.260446 
L 10.936226 -18.297006 
L 11.178936 -18.333566 
L 11.473436 -18.370126 
L 11.812594 -18.406687 
L 12.188845 -18.443247 
L 12.594451 -18.479807 
L 13.021729 -18.516367 
L 13.463244 -18.552928 
L 13.911968 -18.589488 
L 14.361394 -18.626048 
L 14.805618 -18.662609 
L 15.239383 -18.699169 
L 15.658101 -18.735729 
L 16.057849 -18.772289 
L 16.435352 -18.80885 
L 16.787951 -18.84541 
L 17.113563 -18.88197 
L 17.410641 -18.91853 
L 17.678123 -18.955091 
L 17.91539 -18.991651 
L 18.122216 -19.028211 
L 18.298729 -19.064771 
L 18.44537 -19.101332 
L 18.562861 -19.137892 
L 18.652174 -19.174452 
L 18.714514 -19.211013 
L 18.751305 -19.247573 
L 18.764176 -19.284133 
L 18.754965 -19.320693 
L 18.725712 -19.357254 
L 18.678654 -19.393814 
L 18.616224 -19.430374 
L 18.541027 -19.466934 
L 18.455817 -19.503495 
L 18.363456 -19.540055 
L 18.266854 -19.576615 
L 18.168904 -19.613175 
L 18.072394 -19.649736 
L 17.979922 -19.686296 
L 17.893799 -19.722856 
L 17.815959 -19.759417 
L 17.747884 -19.795977 
L 17.690543 -19.832537 
L 17.644354 -19.869097 
L 17.609185 -19.905658 
L 17.584377 -19.942218 
L 17.568804 -19.978778 
L 17.560969 -20.015338 
L 17.559118 -20.051899 
L 17.561372 -20.088459 
L 17.565877 -20.125019 
L 17.570941 -20.161579 
L 17.575166 -20.19814 
L 17.577554 -20.2347 
L 17.577587 -20.27126 
L 17.575264 -20.30782 
L 17.571104 -20.344381 
L 17.566105 -20.380941 
L 17.561673 -20.417501 
L 17.55951 -20.454062 
L 17.561493 -20.490622 
L 17.56953 -20.527182 
L 17.58542 -20.563742 
L 17.610724 -20.600303 
L 17.646651 -20.636863 
L 17.693972 -20.673423 
L 17.752971 -20.709983 
L 17.823417 -20.746544 
L 17.904587 -20.783104 
L 17.995309 -20.819664 
L 18.094032 -20.856224 
L 18.198921 -20.892785 
L 18.30796 -20.929345 
L 18.419053 -20.965905 
L 18.530135 -21.002466 
L 18.63926 -21.039026 
L 18.744678 -21.075586 
L 18.844897 -21.112146 
L 18.938717 -21.148707 
L 20.146367 -21.148707 
L 20.146367 -21.148707 
L 20.240187 -21.112146 
L 20.340406 -21.075586 
L 20.445824 -21.039026 
L 20.554949 -21.002466 
L 20.666031 -20.965905 
L 20.777124 -20.929345 
L 20.886162 -20.892785 
L 20.991052 -20.856224 
L 21.089775 -20.819664 
L 21.180497 -20.783104 
L 21.261667 -20.746544 
L 21.332113 -20.709983 
L 21.391111 -20.673423 
L 21.438433 -20.636863 
L 21.47436 -20.600303 
L 21.499664 -20.563742 
L 21.515554 -20.527182 
L 21.523591 -20.490622 
L 21.525574 -20.454062 
L 21.523411 -20.417501 
L 21.518979 -20.380941 
L 21.51398 -20.344381 
L 21.50982 -20.30782 
L 21.507496 -20.27126 
L 21.507529 -20.2347 
L 21.509918 -20.19814 
L 21.514143 -20.161579 
L 21.519207 -20.125019 
L 21.523712 -20.088459 
L 21.525966 -20.051899 
L 21.524114 -20.015338 
L 21.51628 -19.978778 
L 21.500707 -19.942218 
L 21.475899 -19.905658 
L 21.44073 -19.869097 
L 21.394541 -19.832537 
L 21.3372 -19.795977 
L 21.269125 -19.759417 
L 21.191285 -19.722856 
L 21.105162 -19.686296 
L 21.01269 -19.649736 
L 20.91618 -19.613175 
L 20.81823 -19.576615 
L 20.721628 -19.540055 
L 20.629266 -19.503495 
L 20.544057 -19.466934 
L 20.46886 -19.430374 
L 20.406429 -19.393814 
L 20.359372 -19.357254 
L 20.330118 -19.320693 
L 20.320908 -19.284133 
L 20.333779 -19.247573 
L 20.370569 -19.211013 
L 20.43291 -19.174452 
L 20.522223 -19.137892 
L 20.639713 -19.101332 
L 20.786355 -19.064771 
L 20.962868 -19.028211 
L 21.169694 -18.991651 
L 21.406961 -18.955091 
L 21.674443 -18.91853 
L 21.971521 -18.88197 
L 22.297133 -18.84541 
L 22.649732 -18.80885 
L 23.027235 -18.772289 
L 23.426983 -18.735729 
L 23.8457 -18.699169 
L 24.279465 -18.662609 
L 24.723689 -18.626048 
L 25.173116 -18.589488 
L 25.62184 -18.552928 
L 26.063355 -18.516367 
L 26.490632 -18.479807 
L 26.896238 -18.443247 
L 27.27249 -18.406687 
L 27.611648 -18.370126 
L 27.906148 -18.333566 
L 28.148858 -18.297006 
L 28.333348 -18.260446 
L 28.454174 -18.223885 
L 28.507133 -18.187325 
L 28.489502 -18.150765 
L 28.400212 -18.114205 
L 28.239973 -18.077644 
L 28.011314 -18.041084 
L 27.718536 -18.004524 
L 27.367594 -17.967964 
L 26.965882 -17.931403 
L 26.521962 -17.894843 
L 26.045234 -17.858283 
L 25.545571 -17.821722 
L 25.032946 -17.785162 
L 24.517065 -17.748602 
L 24.007031 -17.712042 
L 23.511062 -17.675481 
L 23.036262 -17.638921 
L 22.588469 -17.602361 
L 22.172172 -17.565801 
L 21.790498 -17.52924 
z
" style="stroke: #7c7c7c; stroke-width: 0.15"/>
    </defs>
    <g clip-path="url(#pf0eac43eba)">
     <use xlink:href="#ma4b57b8ac7" x="0" y="84.96" style="fill: #cfcfcf; stroke: #7c7c7c; stroke-width: 0.15"/>
    </g>
   </g>
   <g id="PolyCollection_2">
    <defs>
     <path id="m5cbfbdff30" d="M 43.552925 -17.229006 
L 40.355116 -17.229006 
L 40.043853 -17.285057 
L 39.694675 -17.341108 
L 39.308073 -17.397159 
L 38.885761 -17.45321 
L 38.430798 -17.509261 
L 37.947658 -17.565312 
L 37.442248 -17.621363 
L 36.921854 -17.677415 
L 36.395016 -17.733466 
L 35.871328 -17.789517 
L 35.361176 -17.845568 
L 34.875412 -17.901619 
L 34.42498 -17.95767 
L 34.020524 -18.013721 
L 33.671972 -18.069772 
L 33.388147 -18.125823 
L 33.176402 -18.181875 
L 33.042309 -18.237926 
L 32.989429 -18.293977 
L 33.019151 -18.350028 
L 33.130636 -18.406079 
L 33.32085 -18.46213 
L 33.584696 -18.518181 
L 33.915227 -18.574232 
L 34.303935 -18.630283 
L 34.741099 -18.686335 
L 35.216163 -18.742386 
L 35.718139 -18.798437 
L 36.236 -18.854488 
L 36.759046 -18.910539 
L 37.277237 -18.96659 
L 37.78146 -19.022641 
L 38.263738 -19.078692 
L 38.717367 -19.134743 
L 39.136987 -19.190794 
L 39.518581 -19.246846 
L 39.859429 -19.302897 
L 40.158009 -19.358948 
L 40.413867 -19.414999 
L 40.627476 -19.47105 
L 40.80008 -19.527101 
L 40.933548 -19.583152 
L 41.030243 -19.639203 
L 41.09291 -19.695254 
L 41.124586 -19.751306 
L 41.128531 -19.807357 
L 41.10818 -19.863408 
L 41.067107 -19.919459 
L 41.008997 -19.97551 
L 40.937614 -20.031561 
L 40.856771 -20.087612 
L 40.770274 -20.143663 
L 40.681866 -20.199714 
L 40.595147 -20.255766 
L 40.51348 -20.311817 
L 40.439892 -20.367868 
L 40.37697 -20.423919 
L 40.326757 -20.47997 
L 40.290669 -20.536021 
L 40.26943 -20.592072 
L 40.263036 -20.648123 
L 40.270753 -20.704174 
L 40.291152 -20.760225 
L 40.322188 -20.816277 
L 40.361302 -20.872328 
L 40.405568 -20.928379 
L 40.451851 -20.98443 
L 40.496986 -21.040481 
L 40.537955 -21.096532 
L 40.572063 -21.152583 
L 40.597088 -21.208634 
L 40.611412 -21.264685 
L 40.614112 -21.320737 
L 40.605016 -21.376788 
L 40.584711 -21.432839 
L 40.55451 -21.48889 
L 40.516378 -21.544941 
L 40.472818 -21.600992 
L 40.42673 -21.657043 
L 40.381245 -21.713094 
L 40.339554 -21.769145 
L 40.304726 -21.825197 
L 40.279543 -21.881248 
L 40.266357 -21.937299 
L 40.266969 -21.99335 
L 40.282545 -22.049401 
L 40.313579 -22.105452 
L 40.359885 -22.161503 
L 40.420636 -22.217554 
L 40.494434 -22.273605 
L 40.579416 -22.329656 
L 40.673364 -22.385708 
L 40.773846 -22.441759 
L 40.878342 -22.49781 
L 40.984372 -22.553861 
L 41.089608 -22.609912 
L 41.191965 -22.665963 
L 41.289666 -22.722014 
L 41.381288 -22.778065 
L 42.526754 -22.778065 
L 42.526754 -22.778065 
L 42.618376 -22.722014 
L 42.716076 -22.665963 
L 42.818433 -22.609912 
L 42.923669 -22.553861 
L 43.029699 -22.49781 
L 43.134195 -22.441759 
L 43.234677 -22.385708 
L 43.328625 -22.329656 
L 43.413607 -22.273605 
L 43.487406 -22.217554 
L 43.548156 -22.161503 
L 43.594462 -22.105452 
L 43.625496 -22.049401 
L 43.641073 -21.99335 
L 43.641684 -21.937299 
L 43.628498 -21.881248 
L 43.603316 -21.825197 
L 43.568487 -21.769145 
L 43.526796 -21.713094 
L 43.481311 -21.657043 
L 43.435223 -21.600992 
L 43.391663 -21.544941 
L 43.353531 -21.48889 
L 43.32333 -21.432839 
L 43.303025 -21.376788 
L 43.293929 -21.320737 
L 43.296629 -21.264685 
L 43.310953 -21.208634 
L 43.335978 -21.152583 
L 43.370086 -21.096532 
L 43.411055 -21.040481 
L 43.45619 -20.98443 
L 43.502474 -20.928379 
L 43.546739 -20.872328 
L 43.585854 -20.816277 
L 43.616889 -20.760225 
L 43.637289 -20.704174 
L 43.645005 -20.648123 
L 43.638611 -20.592072 
L 43.617373 -20.536021 
L 43.581285 -20.47997 
L 43.531071 -20.423919 
L 43.468149 -20.367868 
L 43.394561 -20.311817 
L 43.312895 -20.255766 
L 43.226175 -20.199714 
L 43.137768 -20.143663 
L 43.05127 -20.087612 
L 42.970427 -20.031561 
L 42.899045 -19.97551 
L 42.840934 -19.919459 
L 42.799862 -19.863408 
L 42.77951 -19.807357 
L 42.783455 -19.751306 
L 42.815131 -19.695254 
L 42.877798 -19.639203 
L 42.974494 -19.583152 
L 43.107962 -19.527101 
L 43.280565 -19.47105 
L 43.494174 -19.414999 
L 43.750033 -19.358948 
L 44.048612 -19.302897 
L 44.38946 -19.246846 
L 44.771054 -19.190794 
L 45.190674 -19.134743 
L 45.644304 -19.078692 
L 46.126582 -19.022641 
L 46.630804 -18.96659 
L 47.148995 -18.910539 
L 47.672042 -18.854488 
L 48.189902 -18.798437 
L 48.691878 -18.742386 
L 49.166943 -18.686335 
L 49.604106 -18.630283 
L 49.992815 -18.574232 
L 50.323345 -18.518181 
L 50.587191 -18.46213 
L 50.777405 -18.406079 
L 50.88889 -18.350028 
L 50.918612 -18.293977 
L 50.865732 -18.237926 
L 50.73164 -18.181875 
L 50.519894 -18.125823 
L 50.236069 -18.069772 
L 49.887517 -18.013721 
L 49.483061 -17.95767 
L 49.03263 -17.901619 
L 48.546865 -17.845568 
L 48.036713 -17.789517 
L 47.513026 -17.733466 
L 46.986187 -17.677415 
L 46.465793 -17.621363 
L 45.960383 -17.565312 
L 45.477243 -17.509261 
L 45.02228 -17.45321 
L 44.599969 -17.397159 
L 44.213367 -17.341108 
L 43.864188 -17.285057 
L 43.552925 -17.229006 
z
" style="stroke: #7c7c7c; stroke-width: 0.15"/>
    </defs>
    <g clip-path="url(#pf0eac43eba)">
     <use xlink:href="#m5cbfbdff30" x="0" y="84.96" style="fill: #f3f3ae; stroke: #7c7c7c; stroke-width: 0.15"/>
    </g>
   </g>
   <g id="line2d_7">
    <path d="M 19.542542 66.913046 
L 19.542542 65.084509 
" clip-path="url(#pf0eac43eba)" style="fill: none; stroke: #8c8c8c; stroke-width: 0.75; stroke-linecap: round"/>
   </g>
   <g id="line2d_8">
    <path d="M 19.542542 66.877053 
L 19.542542 66.054902 
" clip-path="url(#pf0eac43eba)" style="fill: none; stroke: #8c8c8c; stroke-width: 4; stroke-linecap: round"/>
   </g>
   <g id="line2d_9">
    <path d="M 19.542542 66.714917 
" clip-path="url(#pf0eac43eba)" style="fill: none; stroke: #7c7c7c; stroke-width: 1.2; stroke-linecap: round"/>
    <defs>
     <path id="m6352f090a7" d="M 0 0.833333 
C 0.221003 0.833333 0.432983 0.745528 0.589256 0.589256 
C 0.745528 0.432983 0.833333 0.221003 0.833333 0 
C 0.833333 -0.221003 0.745528 -0.432983 0.589256 -0.589256 
C 0.432983 -0.745528 0.221003 -0.833333 0 -0.833333 
C -0.221003 -0.833333 -0.432983 -0.745528 -0.589256 -0.589256 
C -0.745528 -0.432983 -0.833333 -0.221003 -0.833333 0 
C -0.833333 0.221003 -0.745528 0.432983 -0.589256 0.589256 
C -0.432983 0.745528 -0.221003 0.833333 0 0.833333 
z
" style="stroke: #ffffff; stroke-width: 0.8"/>
    </defs>
    <g clip-path="url(#pf0eac43eba)">
     <use xlink:href="#m6352f090a7" x="19.542542" y="66.714917" style="fill: #ffffff; stroke: #ffffff; stroke-width: 0.8"/>
    </g>
   </g>
   <g id="line2d_10">
    <path d="M 41.954021 66.96493 
L 41.954021 65.834676 
" clip-path="url(#pf0eac43eba)" style="fill: none; stroke: #8c8c8c; stroke-width: 0.75; stroke-linecap: round"/>
   </g>
   <g id="line2d_11">
    <path d="M 41.954021 66.797892 
L 41.954021 65.834676 
" clip-path="url(#pf0eac43eba)" style="fill: none; stroke: #8c8c8c; stroke-width: 4; stroke-linecap: round"/>
   </g>
   <g id="line2d_12">
    <path d="M 41.954021 66.502136 
" clip-path="url(#pf0eac43eba)" style="fill: none; stroke: #7c7c7c; stroke-width: 1.2; stroke-linecap: round"/>
    <g clip-path="url(#pf0eac43eba)">
     <use xlink:href="#m6352f090a7" x="41.954021" y="66.502136" style="fill: #ffffff; stroke: #ffffff; stroke-width: 0.8"/>
    </g>
   </g>
   <g id="patch_3">
    <path d="M 8.336802 74.419526 
L 8.336802 4.076256 
" style="fill: none; stroke: #777777; stroke-width: 0.5; stroke-linejoin: miter; stroke-linecap: square"/>
   </g>
   <g id="patch_4">
    <path d="M 8.336802 76.919526 
L 53.15976 76.919526 
" style="fill: none; stroke: #777777; stroke-width: 0.5; stroke-linejoin: miter; stroke-linecap: square"/>
   </g>
  </g>
 </g>
 <defs>
  <clipPath id="pf0eac43eba">
   <rect x="8.336802" y="4.076256" width="44.822958" height="70.34327"/>
  </clipPath>
 </defs>
</svg>
