<?xml version="1.0" encoding="utf-8" standalone="no"?>
<!DOCTYPE svg PUBLIC "-//W3C//DTD SVG 1.1//EN"
  "http://www.w3.org/Graphics/SVG/1.1/DTD/svg11.dtd">
<svg xmlns:xlink="http://www.w3.org/1999/xlink" width="56.16pt" height="84.96pt" viewBox="0 0 56.16 84.96" xmlns="http://www.w3.org/2000/svg" version="1.1">
 <metadata>
  <rdf:RDF xmlns:dc="http://purl.org/dc/elements/1.1/" xmlns:cc="http://creativecommons.org/ns#" xmlns:rdf="http://www.w3.org/1999/02/22-rdf-syntax-ns#">
   <cc:Work>
    <dc:type rdf:resource="http://purl.org/dc/dcmitype/StillImage"/>
    <dc:date>2024-05-27T15:37:07.823352</dc:date>
    <dc:format>image/svg+xml</dc:format>
    <dc:creator>
     <cc:Agent>
      <dc:title>Matplotlib v3.8.3, https://matplotlib.org/</dc:title>
     </cc:Agent>
    </dc:creator>
   </cc:Work>
  </rdf:RDF>
 </metadata>
 <defs>
  <style type="text/css">*{stroke-linejoin: round; stroke-linecap: butt}</style>
 </defs>
 <g id="figure_1">
  <g id="patch_1">
   <path d="M 0 84.96 
L 56.16 84.96 
L 56.16 0 
L 0 0 
z
" style="fill: #ffffff"/>
  </g>
  <g id="axes_1">
   <g id="patch_2">
    <path d="M 8.336802 74.419526 
L 53.15976 74.419526 
L 53.15976 4.076256 
L 8.336802 4.076256 
z
" style="fill: #ffffff"/>
   </g>
   <g id="matplotlib.axis_1">
    <g id="xtick_1">
     <g id="text_1">
      <!-- ILC3 -->
      <g style="fill: #333333" transform="translate(15.846214 81.230229) scale(0.035 -0.035)">
       <defs>
        <path id="Helvetica-49" d="M 628 4591 
L 1256 4591 
L 1256 0 
L 628 0 
L 628 4591 
z
" transform="scale(0.015625)"/>
        <path id="Helvetica-4c" d="M 488 4591 
L 1109 4591 
L 1109 547 
L 3434 547 
L 3434 0 
L 488 0 
L 488 4591 
z
" transform="scale(0.015625)"/>
        <path id="Helvetica-43" d="M 2422 4716 
Q 3294 4716 3775 4256 
Q 4256 3797 4309 3213 
L 3703 3213 
Q 3600 3656 3292 3915 
Q 2984 4175 2428 4175 
Q 1750 4175 1333 3698 
Q 916 3222 916 2238 
Q 916 1431 1292 929 
Q 1669 428 2416 428 
Q 3103 428 3463 956 
Q 3653 1234 3747 1688 
L 4353 1688 
Q 4272 963 3816 472 
Q 3269 -119 2341 -119 
Q 1541 -119 997 366 
Q 281 1006 281 2344 
Q 281 3359 819 4009 
Q 1400 4716 2422 4716 
z
M 2297 4716 
L 2297 4716 
z
" transform="scale(0.015625)"/>
        <path id="Helvetica-33" d="M 1663 -122 
Q 869 -122 511 314 
Q 153 750 153 1375 
L 741 1375 
Q 778 941 903 744 
Q 1122 391 1694 391 
Q 2138 391 2406 628 
Q 2675 866 2675 1241 
Q 2675 1703 2392 1887 
Q 2109 2072 1606 2072 
Q 1550 2072 1492 2070 
Q 1434 2069 1375 2066 
L 1375 2563 
Q 1463 2553 1522 2550 
Q 1581 2547 1650 2547 
Q 1966 2547 2169 2647 
Q 2525 2822 2525 3272 
Q 2525 3606 2287 3787 
Q 2050 3969 1734 3969 
Q 1172 3969 956 3594 
Q 838 3388 822 3006 
L 266 3006 
Q 266 3506 466 3856 
Q 809 4481 1675 4481 
Q 2359 4481 2734 4176 
Q 3109 3872 3109 3294 
Q 3109 2881 2888 2625 
Q 2750 2466 2531 2375 
Q 2884 2278 3082 2001 
Q 3281 1725 3281 1325 
Q 3281 684 2859 281 
Q 2438 -122 1663 -122 
z
" transform="scale(0.015625)"/>
       </defs>
       <use xlink:href="#Helvetica-49"/>
       <use xlink:href="#Helvetica-4c" x="27.783203"/>
       <use xlink:href="#Helvetica-43" x="83.398438"/>
       <use xlink:href="#Helvetica-33" x="155.615234"/>
      </g>
     </g>
    </g>
    <g id="xtick_2">
     <g id="text_2">
      <!-- TH17 -->
      <g style="fill: #333333" transform="translate(37.674997 81.230229) scale(0.035 -0.035)">
       <defs>
        <path id="Helvetica-54" d="M 3828 4591 
L 3828 4044 
L 2281 4044 
L 2281 0 
L 1650 0 
L 1650 4044 
L 103 4044 
L 103 4591 
L 3828 4591 
z
" transform="scale(0.015625)"/>
        <path id="Helvetica-48" d="M 503 4591 
L 1131 4591 
L 1131 2694 
L 3519 2694 
L 3519 4591 
L 4147 4591 
L 4147 0 
L 3519 0 
L 3519 2147 
L 1131 2147 
L 1131 0 
L 503 0 
L 503 4591 
z
" transform="scale(0.015625)"/>
        <path id="Helvetica-31" d="M 613 3169 
L 613 3600 
Q 1222 3659 1462 3798 
Q 1703 3938 1822 4456 
L 2266 4456 
L 2266 0 
L 1666 0 
L 1666 3169 
L 613 3169 
z
" transform="scale(0.015625)"/>
        <path id="Helvetica-37" d="M 3347 4400 
L 3347 3909 
Q 3131 3700 2773 3181 
Q 2416 2663 2141 2063 
Q 1869 1478 1728 997 
Q 1638 688 1494 0 
L 872 0 
Q 1084 1281 1809 2550 
Q 2238 3294 2709 3834 
L 234 3834 
L 234 4400 
L 3347 4400 
z
" transform="scale(0.015625)"/>
       </defs>
       <use xlink:href="#Helvetica-54"/>
       <use xlink:href="#Helvetica-48" x="61.083984"/>
       <use xlink:href="#Helvetica-31" x="133.300781"/>
       <use xlink:href="#Helvetica-37" x="188.916016"/>
      </g>
     </g>
    </g>
   </g>
   <g id="matplotlib.axis_2">
    <g id="ytick_1">
     <g id="line2d_1">
      <defs>
       <path id="m0645057846" d="M 0 0 
L -1 0 
" style="stroke: #777777; stroke-width: 0.5"/>
      </defs>
      <g>
       <use xlink:href="#m0645057846" x="8.336802" y="66.995102" style="fill: #777777; stroke: #777777; stroke-width: 0.5"/>
      </g>
     </g>
     <g id="text_3">
      <!-- 0 -->
      <g style="fill: #333333" transform="translate(4.668521 68.071117) scale(0.03 -0.03)">
       <defs>
        <path id="Helvetica-30" d="M 1731 4475 
Q 2600 4475 2988 3759 
Q 3288 3206 3288 2244 
Q 3288 1331 3016 734 
Q 2622 -122 1728 -122 
Q 922 -122 528 578 
Q 200 1163 200 2147 
Q 200 2909 397 3456 
Q 766 4475 1731 4475 
z
M 1725 391 
Q 2163 391 2422 778 
Q 2681 1166 2681 2222 
Q 2681 2984 2493 3476 
Q 2306 3969 1766 3969 
Q 1269 3969 1039 3501 
Q 809 3034 809 2125 
Q 809 1441 956 1025 
Q 1181 391 1725 391 
z
" transform="scale(0.015625)"/>
       </defs>
       <use xlink:href="#Helvetica-30"/>
      </g>
     </g>
    </g>
    <g id="ytick_2">
     <g id="line2d_2">
      <g>
       <use xlink:href="#m0645057846" x="8.336802" y="54.411333" style="fill: #777777; stroke: #777777; stroke-width: 0.5"/>
      </g>
     </g>
     <g id="text_4">
      <!-- 10 -->
      <g style="fill: #333333" transform="translate(3.00024 55.487348) scale(0.03 -0.03)">
       <use xlink:href="#Helvetica-31"/>
       <use xlink:href="#Helvetica-30" x="55.615234"/>
      </g>
     </g>
    </g>
    <g id="ytick_3">
     <g id="line2d_3">
      <g>
       <use xlink:href="#m0645057846" x="8.336802" y="41.827563" style="fill: #777777; stroke: #777777; stroke-width: 0.5"/>
      </g>
     </g>
     <g id="text_5">
      <!-- 20 -->
      <g style="fill: #333333" transform="translate(3.00024 42.903579) scale(0.03 -0.03)">
       <defs>
        <path id="Helvetica-32" d="M 200 0 
Q 231 578 439 1006 
Q 647 1434 1250 1784 
L 1850 2131 
Q 2253 2366 2416 2531 
Q 2672 2791 2672 3125 
Q 2672 3516 2437 3745 
Q 2203 3975 1813 3975 
Q 1234 3975 1013 3538 
Q 894 3303 881 2888 
L 309 2888 
Q 319 3472 525 3841 
Q 891 4491 1816 4491 
Q 2584 4491 2939 4075 
Q 3294 3659 3294 3150 
Q 3294 2613 2916 2231 
Q 2697 2009 2131 1694 
L 1703 1456 
Q 1397 1288 1222 1134 
Q 909 863 828 531 
L 3272 531 
L 3272 0 
L 200 0 
z
" transform="scale(0.015625)"/>
       </defs>
       <use xlink:href="#Helvetica-32"/>
       <use xlink:href="#Helvetica-30" x="55.615234"/>
      </g>
     </g>
    </g>
    <g id="ytick_4">
     <g id="line2d_4">
      <g>
       <use xlink:href="#m0645057846" x="8.336802" y="29.243794" style="fill: #777777; stroke: #777777; stroke-width: 0.5"/>
      </g>
     </g>
     <g id="text_6">
      <!-- 30 -->
      <g style="fill: #333333" transform="translate(3.00024 30.31981) scale(0.03 -0.03)">
       <use xlink:href="#Helvetica-33"/>
       <use xlink:href="#Helvetica-30" x="55.615234"/>
      </g>
     </g>
    </g>
    <g id="ytick_5">
     <g id="line2d_5">
      <g>
       <use xlink:href="#m0645057846" x="8.336802" y="16.660025" style="fill: #777777; stroke: #777777; stroke-width: 0.5"/>
      </g>
     </g>
     <g id="text_7">
      <!-- 40 -->
      <g style="fill: #333333" transform="translate(3.00024 17.73604) scale(0.03 -0.03)">
       <defs>
        <path id="Helvetica-34" d="M 2116 1584 
L 2116 3613 
L 681 1584 
L 2116 1584 
z
M 2125 0 
L 2125 1094 
L 163 1094 
L 163 1644 
L 2213 4488 
L 2688 4488 
L 2688 1584 
L 3347 1584 
L 3347 1094 
L 2688 1094 
L 2688 0 
L 2125 0 
z
" transform="scale(0.015625)"/>
       </defs>
       <use xlink:href="#Helvetica-34"/>
       <use xlink:href="#Helvetica-30" x="55.615234"/>
      </g>
     </g>
    </g>
    <g id="ytick_6">
     <g id="line2d_6">
      <g>
       <use xlink:href="#m0645057846" x="8.336802" y="4.076256" style="fill: #777777; stroke: #777777; stroke-width: 0.5"/>
      </g>
     </g>
     <g id="text_8">
      <!-- 50 -->
      <g style="fill: #333333" transform="translate(3.00024 5.152271) scale(0.03 -0.03)">
       <defs>
        <path id="Helvetica-35" d="M 791 1141 
Q 847 659 1238 475 
Q 1438 381 1700 381 
Q 2200 381 2440 700 
Q 2681 1019 2681 1406 
Q 2681 1875 2395 2131 
Q 2109 2388 1709 2388 
Q 1419 2388 1211 2275 
Q 1003 2163 856 1963 
L 369 1991 
L 709 4400 
L 3034 4400 
L 3034 3856 
L 1131 3856 
L 941 2613 
Q 1097 2731 1238 2791 
Q 1488 2894 1816 2894 
Q 2431 2894 2859 2497 
Q 3288 2100 3288 1491 
Q 3288 856 2895 371 
Q 2503 -113 1644 -113 
Q 1097 -113 676 195 
Q 256 503 206 1141 
L 791 1141 
z
" transform="scale(0.015625)"/>
       </defs>
       <use xlink:href="#Helvetica-35"/>
       <use xlink:href="#Helvetica-30" x="55.615234"/>
      </g>
     </g>
    </g>
   </g>
   <g id="PolyCollection_1">
    <defs>
     <path id="m1b2cead210" d="M 20.415604 -17.903391 
L 18.669479 -17.903391 
L 18.496021 -17.910067 
L 18.302257 -17.916742 
L 18.088531 -17.923417 
L 17.855554 -17.930093 
L 17.60432 -17.936768 
L 17.336003 -17.943443 
L 17.051831 -17.950119 
L 16.752973 -17.956794 
L 16.440454 -17.963469 
L 16.115107 -17.970144 
L 15.777596 -17.97682 
L 15.428494 -17.983495 
L 15.068436 -17.99017 
L 14.698315 -17.996846 
L 14.319507 -18.003521 
L 13.934095 -18.010196 
L 13.545047 -18.016872 
L 13.15633 -18.023547 
L 12.772918 -18.030222 
L 12.400688 -18.036898 
L 12.046208 -18.043573 
L 11.716412 -18.050248 
L 11.418216 -18.056923 
L 11.158089 -18.063599 
L 10.941647 -18.070274 
L 10.773295 -18.076949 
L 10.655963 -18.083625 
L 10.590959 -18.0903 
L 10.57795 -18.096975 
L 10.615061 -18.103651 
L 10.699077 -18.110326 
L 10.825723 -18.117001 
L 10.989974 -18.123676 
L 11.186372 -18.130352 
L 11.409311 -18.137027 
L 11.653285 -18.143702 
L 11.913062 -18.150378 
L 12.183813 -18.157053 
L 12.461188 -18.163728 
L 12.741354 -18.170404 
L 13.021016 -18.177079 
L 13.297436 -18.183754 
L 13.568448 -18.19043 
L 13.832481 -18.197105 
L 14.088584 -18.20378 
L 14.336438 -18.210455 
L 14.576346 -18.217131 
L 14.809182 -18.223806 
L 15.036311 -18.230481 
L 15.259446 -18.237157 
L 15.480478 -18.243832 
L 15.701276 -18.250507 
L 15.923466 -18.257183 
L 16.148245 -18.263858 
L 16.376204 -18.270533 
L 16.60722 -18.277209 
L 16.840403 -18.283884 
L 17.074115 -18.290559 
L 17.30605 -18.297234 
L 17.533368 -18.30391 
L 17.752863 -18.310585 
L 17.961153 -18.31726 
L 18.154862 -18.323936 
L 18.330781 -18.330611 
L 18.486009 -18.337286 
L 18.618045 -18.343962 
L 18.724855 -18.350637 
L 18.804906 -18.357312 
L 18.857183 -18.363988 
L 18.881192 -18.370663 
L 18.876973 -18.377338 
L 18.845115 -18.384013 
L 18.78679 -18.390689 
L 18.703789 -18.397364 
L 18.598566 -18.404039 
L 18.474269 -18.410715 
L 18.334746 -18.41739 
L 18.184521 -18.424065 
L 18.028712 -18.430741 
L 17.872899 -18.437416 
L 17.722927 -18.444091 
L 17.584674 -18.450766 
L 17.463767 -18.457442 
L 17.365288 -18.464117 
L 17.293496 -18.470792 
L 17.251574 -18.477468 
L 17.241439 -18.484143 
L 17.263629 -18.490818 
L 17.317285 -18.497494 
L 17.40022 -18.504169 
L 17.509078 -18.510844 
L 17.639572 -18.51752 
L 17.786767 -18.524195 
L 17.945391 -18.53087 
L 18.110148 -18.537545 
L 18.276004 -18.544221 
L 18.438432 -18.550896 
L 18.593588 -18.557571 
L 18.738431 -18.564247 
L 20.346653 -18.564247 
L 20.346653 -18.564247 
L 20.491496 -18.557571 
L 20.646652 -18.550896 
L 20.80908 -18.544221 
L 20.974936 -18.537545 
L 21.139693 -18.53087 
L 21.298316 -18.524195 
L 21.445511 -18.51752 
L 21.576006 -18.510844 
L 21.684864 -18.504169 
L 21.767798 -18.497494 
L 21.821454 -18.490818 
L 21.843645 -18.484143 
L 21.83351 -18.477468 
L 21.791588 -18.470792 
L 21.719796 -18.464117 
L 21.621317 -18.457442 
L 21.500409 -18.450766 
L 21.362156 -18.444091 
L 21.212185 -18.437416 
L 21.056371 -18.430741 
L 20.900563 -18.424065 
L 20.750338 -18.41739 
L 20.610815 -18.410715 
L 20.486517 -18.404039 
L 20.381294 -18.397364 
L 20.298294 -18.390689 
L 20.239969 -18.384013 
L 20.208111 -18.377338 
L 20.203892 -18.370663 
L 20.2279 -18.363988 
L 20.280177 -18.357312 
L 20.360229 -18.350637 
L 20.467039 -18.343962 
L 20.599075 -18.337286 
L 20.754302 -18.330611 
L 20.930222 -18.323936 
L 21.12393 -18.31726 
L 21.332221 -18.310585 
L 21.551716 -18.30391 
L 21.779034 -18.297234 
L 22.010969 -18.290559 
L 22.244681 -18.283884 
L 22.477864 -18.277209 
L 22.70888 -18.270533 
L 22.936839 -18.263858 
L 23.161617 -18.257183 
L 23.383808 -18.250507 
L 23.604605 -18.243832 
L 23.825638 -18.237157 
L 24.048773 -18.230481 
L 24.275902 -18.223806 
L 24.508738 -18.217131 
L 24.748645 -18.210455 
L 24.9965 -18.20378 
L 25.252603 -18.197105 
L 25.516636 -18.19043 
L 25.787647 -18.183754 
L 26.064067 -18.177079 
L 26.34373 -18.170404 
L 26.623896 -18.163728 
L 26.901271 -18.157053 
L 27.172022 -18.150378 
L 27.431799 -18.143702 
L 27.675772 -18.137027 
L 27.898712 -18.130352 
L 28.09511 -18.123676 
L 28.259361 -18.117001 
L 28.386007 -18.110326 
L 28.470023 -18.103651 
L 28.507133 -18.096975 
L 28.494124 -18.0903 
L 28.429121 -18.083625 
L 28.311789 -18.076949 
L 28.143437 -18.070274 
L 27.926995 -18.063599 
L 27.666868 -18.056923 
L 27.368671 -18.050248 
L 27.038876 -18.043573 
L 26.684396 -18.036898 
L 26.312166 -18.030222 
L 25.928753 -18.023547 
L 25.540036 -18.016872 
L 25.150989 -18.010196 
L 24.765577 -18.003521 
L 24.386769 -17.996846 
L 24.016648 -17.99017 
L 23.656589 -17.983495 
L 23.307488 -17.97682 
L 22.969976 -17.970144 
L 22.64463 -17.963469 
L 22.332111 -17.956794 
L 22.033253 -17.950119 
L 21.749081 -17.943443 
L 21.480763 -17.936768 
L 21.22953 -17.930093 
L 20.996552 -17.923417 
L 20.782826 -17.916742 
L 20.589063 -17.910067 
L 20.415604 -17.903391 
z
" style="stroke: #7c7c7c; stroke-width: 0.15"/>
    </defs>
    <g clip-path="url(#p77fdc04f12)">
     <use xlink:href="#m1b2cead210" x="0" y="84.96" style="fill: #cfcfcf; stroke: #7c7c7c; stroke-width: 0.15"/>
    </g>
   </g>
   <g id="PolyCollection_2">
    <defs>
     <path id="ma1d8c2ab84" d="M 43.125635 -17.626215 
L 40.782407 -17.626215 
L 40.519181 -17.654874 
L 40.216058 -17.683532 
L 39.871788 -17.712191 
L 39.486271 -17.74085 
L 39.06077 -17.769509 
L 38.598091 -17.798168 
L 38.102711 -17.826826 
L 37.580827 -17.855485 
L 37.040331 -17.884144 
L 36.490673 -17.912803 
L 35.942636 -17.941462 
L 35.408005 -17.97012 
L 34.899155 -17.998779 
L 34.428565 -18.027438 
L 34.008292 -18.056097 
L 33.649433 -18.084756 
L 33.361607 -18.113414 
L 33.1525 -18.142073 
L 33.027497 -18.170732 
L 32.989429 -18.199391 
L 33.038465 -18.22805 
L 33.172139 -18.256708 
L 33.385518 -18.285367 
L 33.671504 -18.314026 
L 34.021225 -18.342685 
L 34.424507 -18.371344 
L 34.870374 -18.400002 
L 35.347546 -18.428661 
L 35.844909 -18.45732 
L 36.351919 -18.485979 
L 36.858928 -18.514638 
L 37.357419 -18.543296 
L 37.840156 -18.571955 
L 38.301243 -18.600614 
L 38.736114 -18.629273 
L 39.141467 -18.657932 
L 39.515151 -18.68659 
L 39.856036 -18.715249 
L 40.163865 -18.743908 
L 40.439112 -18.772567 
L 40.682838 -18.801226 
L 40.896567 -18.829884 
L 41.082165 -18.858543 
L 41.241747 -18.887202 
L 41.377579 -18.915861 
L 41.492005 -18.94452 
L 41.587378 -18.973178 
L 41.666005 -19.001837 
L 41.730094 -19.030496 
L 41.781719 -19.059155 
L 41.822787 -19.087814 
L 41.855017 -19.116472 
L 41.879924 -19.145131 
L 41.898813 -19.17379 
L 41.912776 -19.202449 
L 41.922695 -19.231108 
L 41.929248 -19.259766 
L 41.932917 -19.288425 
L 41.933993 -19.317084 
L 41.932591 -19.345743 
L 41.928649 -19.374402 
L 41.921947 -19.40306 
L 41.912106 -19.431719 
L 41.898612 -19.460378 
L 41.880826 -19.489037 
L 41.858014 -19.517696 
L 41.829378 -19.546354 
L 41.794099 -19.575013 
L 41.751395 -19.603672 
L 41.700583 -19.632331 
L 41.641153 -19.660989 
L 41.572843 -19.689648 
L 41.495717 -19.718307 
L 41.41023 -19.746966 
L 41.317288 -19.775625 
L 41.218273 -19.804283 
L 41.115054 -19.832942 
L 41.00995 -19.861601 
L 40.905665 -19.89026 
L 40.805189 -19.918919 
L 40.711659 -19.947577 
L 40.628203 -19.976236 
L 40.557771 -20.004895 
L 40.502959 -20.033554 
L 40.46585 -20.062213 
L 40.447887 -20.090871 
L 40.449779 -20.11953 
L 40.471448 -20.148189 
L 40.512046 -20.176848 
L 40.569997 -20.205507 
L 40.643111 -20.234165 
L 40.72871 -20.262824 
L 40.823801 -20.291483 
L 40.925238 -20.320142 
L 41.029901 -20.348801 
L 41.134846 -20.377459 
L 41.237434 -20.406118 
L 41.335429 -20.434777 
L 41.427053 -20.463436 
L 42.480988 -20.463436 
L 42.480988 -20.463436 
L 42.572613 -20.434777 
L 42.670607 -20.406118 
L 42.773195 -20.377459 
L 42.87814 -20.348801 
L 42.982803 -20.320142 
L 43.084241 -20.291483 
L 43.179331 -20.262824 
L 43.26493 -20.234165 
L 43.338044 -20.205507 
L 43.395996 -20.176848 
L 43.436593 -20.148189 
L 43.458263 -20.11953 
L 43.460154 -20.090871 
L 43.442192 -20.062213 
L 43.405083 -20.033554 
L 43.35027 -20.004895 
L 43.279838 -19.976236 
L 43.196383 -19.947577 
L 43.102853 -19.918919 
L 43.002376 -19.89026 
L 42.898091 -19.861601 
L 42.792987 -19.832942 
L 42.689768 -19.804283 
L 42.590754 -19.775625 
L 42.497811 -19.746966 
L 42.412325 -19.718307 
L 42.335198 -19.689648 
L 42.266888 -19.660989 
L 42.207458 -19.632331 
L 42.156646 -19.603672 
L 42.113943 -19.575013 
L 42.078664 -19.546354 
L 42.050027 -19.517696 
L 42.027215 -19.489037 
L 42.009429 -19.460378 
L 41.995935 -19.431719 
L 41.986095 -19.40306 
L 41.979392 -19.374402 
L 41.97545 -19.345743 
L 41.974048 -19.317084 
L 41.975125 -19.288425 
L 41.978793 -19.259766 
L 41.985346 -19.231108 
L 41.995265 -19.202449 
L 42.009228 -19.17379 
L 42.028117 -19.145131 
L 42.053024 -19.116472 
L 42.085254 -19.087814 
L 42.126323 -19.059155 
L 42.177948 -19.030496 
L 42.242037 -19.001837 
L 42.320663 -18.973178 
L 42.416037 -18.94452 
L 42.530463 -18.915861 
L 42.666294 -18.887202 
L 42.825876 -18.858543 
L 43.011475 -18.829884 
L 43.225203 -18.801226 
L 43.468929 -18.772567 
L 43.744176 -18.743908 
L 44.052005 -18.715249 
L 44.39289 -18.68659 
L 44.766574 -18.657932 
L 45.171927 -18.629273 
L 45.606799 -18.600614 
L 46.067886 -18.571955 
L 46.550623 -18.543296 
L 47.049114 -18.514638 
L 47.556122 -18.485979 
L 48.063132 -18.45732 
L 48.560495 -18.428661 
L 49.037668 -18.400002 
L 49.483534 -18.371344 
L 49.886816 -18.342685 
L 50.236537 -18.314026 
L 50.522523 -18.285367 
L 50.735902 -18.256708 
L 50.869576 -18.22805 
L 50.918612 -18.199391 
L 50.880544 -18.170732 
L 50.755541 -18.142073 
L 50.546434 -18.113414 
L 50.258608 -18.084756 
L 49.899749 -18.056097 
L 49.479476 -18.027438 
L 49.008886 -17.998779 
L 48.500036 -17.97012 
L 47.965405 -17.941462 
L 47.417368 -17.912803 
L 46.86771 -17.884144 
L 46.327214 -17.855485 
L 45.805331 -17.826826 
L 45.30995 -17.798168 
L 44.847271 -17.769509 
L 44.42177 -17.74085 
L 44.036253 -17.712191 
L 43.691984 -17.683532 
L 43.38886 -17.654874 
L 43.125635 -17.626215 
z
" style="stroke: #7c7c7c; stroke-width: 0.15"/>
    </defs>
    <g clip-path="url(#p77fdc04f12)">
     <use xlink:href="#ma1d8c2ab84" x="0" y="84.96" style="fill: #f3f3ae; stroke: #7c7c7c; stroke-width: 0.15"/>
    </g>
   </g>
   <g id="line2d_7">
    <path d="M 19.542542 66.975349 
L 19.542542 66.698648 
" clip-path="url(#p77fdc04f12)" style="fill: none; stroke: #8c8c8c; stroke-width: 0.75; stroke-linecap: round"/>
   </g>
   <g id="line2d_8">
    <path d="M 19.542542 66.891805 
L 19.542542 66.757067 
" clip-path="url(#p77fdc04f12)" style="fill: none; stroke: #8c8c8c; stroke-width: 4; stroke-linecap: round"/>
   </g>
   <g id="line2d_9">
    <path d="M 19.542542 66.838446 
" clip-path="url(#p77fdc04f12)" style="fill: none; stroke: #7c7c7c; stroke-width: 1.2; stroke-linecap: round"/>
    <defs>
     <path id="mbc2124bbf6" d="M 0 0.833333 
C 0.221003 0.833333 0.432983 0.745528 0.589256 0.589256 
C 0.745528 0.432983 0.833333 0.221003 0.833333 0 
C 0.833333 -0.221003 0.745528 -0.432983 0.589256 -0.589256 
C 0.432983 -0.745528 0.221003 -0.833333 0 -0.833333 
C -0.221003 -0.833333 -0.432983 -0.745528 -0.589256 -0.589256 
C -0.745528 -0.432983 -0.833333 -0.221003 -0.833333 0 
C -0.833333 0.221003 -0.745528 0.432983 -0.589256 0.589256 
C -0.432983 0.745528 -0.221003 0.833333 0 0.833333 
z
" style="stroke: #ffffff; stroke-width: 0.8"/>
    </defs>
    <g clip-path="url(#p77fdc04f12)">
     <use xlink:href="#mbc2124bbf6" x="19.542542" y="66.838446" style="fill: #ffffff; stroke: #ffffff; stroke-width: 0.8"/>
    </g>
   </g>
   <g id="line2d_10">
    <path d="M 41.954021 66.972834 
L 41.954021 66.438383 
" clip-path="url(#p77fdc04f12)" style="fill: none; stroke: #8c8c8c; stroke-width: 0.75; stroke-linecap: round"/>
   </g>
   <g id="line2d_11">
    <path d="M 41.954021 66.795483 
L 41.954021 66.622928 
" clip-path="url(#p77fdc04f12)" style="fill: none; stroke: #8c8c8c; stroke-width: 4; stroke-linecap: round"/>
   </g>
   <g id="line2d_12">
    <path d="M 41.954021 66.738524 
" clip-path="url(#p77fdc04f12)" style="fill: none; stroke: #7c7c7c; stroke-width: 1.2; stroke-linecap: round"/>
    <g clip-path="url(#p77fdc04f12)">
     <use xlink:href="#mbc2124bbf6" x="41.954021" y="66.738524" style="fill: #ffffff; stroke: #ffffff; stroke-width: 0.8"/>
    </g>
   </g>
   <g id="patch_3">
    <path d="M 8.336802 74.419526 
L 8.336802 4.076256 
" style="fill: none; stroke: #777777; stroke-width: 0.5; stroke-linejoin: miter; stroke-linecap: square"/>
   </g>
   <g id="patch_4">
    <path d="M 8.336802 76.919526 
L 53.15976 76.919526 
" style="fill: none; stroke: #777777; stroke-width: 0.5; stroke-linejoin: miter; stroke-linecap: square"/>
   </g>
  </g>
 </g>
 <defs>
  <clipPath id="p77fdc04f12">
   <rect x="8.336802" y="4.076256" width="44.822958" height="70.34327"/>
  </clipPath>
 </defs>
</svg>
