<?xml version="1.0" encoding="utf-8" standalone="no"?>
<!DOCTYPE svg PUBLIC "-//W3C//DTD SVG 1.1//EN"
  "http://www.w3.org/Graphics/SVG/1.1/DTD/svg11.dtd">
<svg xmlns:xlink="http://www.w3.org/1999/xlink" width="56.16pt" height="84.96pt" viewBox="0 0 56.16 84.96" xmlns="http://www.w3.org/2000/svg" version="1.1">
 <metadata>
  <rdf:RDF xmlns:dc="http://purl.org/dc/elements/1.1/" xmlns:cc="http://creativecommons.org/ns#" xmlns:rdf="http://www.w3.org/1999/02/22-rdf-syntax-ns#">
   <cc:Work>
    <dc:type rdf:resource="http://purl.org/dc/dcmitype/StillImage"/>
    <dc:date>2024-05-27T15:37:06.279250</dc:date>
    <dc:format>image/svg+xml</dc:format>
    <dc:creator>
     <cc:Agent>
      <dc:title>Matplotlib v3.8.3, https://matplotlib.org/</dc:title>
     </cc:Agent>
    </dc:creator>
   </cc:Work>
  </rdf:RDF>
 </metadata>
 <defs>
  <style type="text/css">*{stroke-linejoin: round; stroke-linecap: butt}</style>
 </defs>
 <g id="figure_1">
  <g id="patch_1">
   <path d="M 0 84.96 
L 56.16 84.96 
L 56.16 0 
L 0 0 
z
" style="fill: #ffffff"/>
  </g>
  <g id="axes_1">
   <g id="patch_2">
    <path d="M 8.336802 74.419526 
L 53.15976 74.419526 
L 53.15976 4.076256 
L 8.336802 4.076256 
z
" style="fill: #ffffff"/>
   </g>
   <g id="matplotlib.axis_1">
    <g id="xtick_1">
     <g id="text_1">
      <!-- ILC3 -->
      <g style="fill: #333333" transform="translate(15.846214 81.230229) scale(0.035 -0.035)">
       <defs>
        <path id="Helvetica-49" d="M 628 4591 
L 1256 4591 
L 1256 0 
L 628 0 
L 628 4591 
z
" transform="scale(0.015625)"/>
        <path id="Helvetica-4c" d="M 488 4591 
L 1109 4591 
L 1109 547 
L 3434 547 
L 3434 0 
L 488 0 
L 488 4591 
z
" transform="scale(0.015625)"/>
        <path id="Helvetica-43" d="M 2422 4716 
Q 3294 4716 3775 4256 
Q 4256 3797 4309 3213 
L 3703 3213 
Q 3600 3656 3292 3915 
Q 2984 4175 2428 4175 
Q 1750 4175 1333 3698 
Q 916 3222 916 2238 
Q 916 1431 1292 929 
Q 1669 428 2416 428 
Q 3103 428 3463 956 
Q 3653 1234 3747 1688 
L 4353 1688 
Q 4272 963 3816 472 
Q 3269 -119 2341 -119 
Q 1541 -119 997 366 
Q 281 1006 281 2344 
Q 281 3359 819 4009 
Q 1400 4716 2422 4716 
z
M 2297 4716 
L 2297 4716 
z
" transform="scale(0.015625)"/>
        <path id="Helvetica-33" d="M 1663 -122 
Q 869 -122 511 314 
Q 153 750 153 1375 
L 741 1375 
Q 778 941 903 744 
Q 1122 391 1694 391 
Q 2138 391 2406 628 
Q 2675 866 2675 1241 
Q 2675 1703 2392 1887 
Q 2109 2072 1606 2072 
Q 1550 2072 1492 2070 
Q 1434 2069 1375 2066 
L 1375 2563 
Q 1463 2553 1522 2550 
Q 1581 2547 1650 2547 
Q 1966 2547 2169 2647 
Q 2525 2822 2525 3272 
Q 2525 3606 2287 3787 
Q 2050 3969 1734 3969 
Q 1172 3969 956 3594 
Q 838 3388 822 3006 
L 266 3006 
Q 266 3506 466 3856 
Q 809 4481 1675 4481 
Q 2359 4481 2734 4176 
Q 3109 3872 3109 3294 
Q 3109 2881 2888 2625 
Q 2750 2466 2531 2375 
Q 2884 2278 3082 2001 
Q 3281 1725 3281 1325 
Q 3281 684 2859 281 
Q 2438 -122 1663 -122 
z
" transform="scale(0.015625)"/>
       </defs>
       <use xlink:href="#Helvetica-49"/>
       <use xlink:href="#Helvetica-4c" x="27.783203"/>
       <use xlink:href="#Helvetica-43" x="83.398438"/>
       <use xlink:href="#Helvetica-33" x="155.615234"/>
      </g>
     </g>
    </g>
    <g id="xtick_2">
     <g id="text_2">
      <!-- TH17 -->
      <g style="fill: #333333" transform="translate(37.674997 81.230229) scale(0.035 -0.035)">
       <defs>
        <path id="Helvetica-54" d="M 3828 4591 
L 3828 4044 
L 2281 4044 
L 2281 0 
L 1650 0 
L 1650 4044 
L 103 4044 
L 103 4591 
L 3828 4591 
z
" transform="scale(0.015625)"/>
        <path id="Helvetica-48" d="M 503 4591 
L 1131 4591 
L 1131 2694 
L 3519 2694 
L 3519 4591 
L 4147 4591 
L 4147 0 
L 3519 0 
L 3519 2147 
L 1131 2147 
L 1131 0 
L 503 0 
L 503 4591 
z
" transform="scale(0.015625)"/>
        <path id="Helvetica-31" d="M 613 3169 
L 613 3600 
Q 1222 3659 1462 3798 
Q 1703 3938 1822 4456 
L 2266 4456 
L 2266 0 
L 1666 0 
L 1666 3169 
L 613 3169 
z
" transform="scale(0.015625)"/>
        <path id="Helvetica-37" d="M 3347 4400 
L 3347 3909 
Q 3131 3700 2773 3181 
Q 2416 2663 2141 2063 
Q 1869 1478 1728 997 
Q 1638 688 1494 0 
L 872 0 
Q 1084 1281 1809 2550 
Q 2238 3294 2709 3834 
L 234 3834 
L 234 4400 
L 3347 4400 
z
" transform="scale(0.015625)"/>
       </defs>
       <use xlink:href="#Helvetica-54"/>
       <use xlink:href="#Helvetica-48" x="61.083984"/>
       <use xlink:href="#Helvetica-31" x="133.300781"/>
       <use xlink:href="#Helvetica-37" x="188.916016"/>
      </g>
     </g>
    </g>
   </g>
   <g id="matplotlib.axis_2">
    <g id="ytick_1">
     <g id="line2d_1">
      <defs>
       <path id="mbdcc997177" d="M 0 0 
L -1 0 
" style="stroke: #777777; stroke-width: 0.5"/>
      </defs>
      <g>
       <use xlink:href="#mbdcc997177" x="8.336802" y="66.995102" style="fill: #777777; stroke: #777777; stroke-width: 0.5"/>
      </g>
     </g>
     <g id="text_3">
      <!-- 0 -->
      <g style="fill: #333333" transform="translate(4.668521 68.071117) scale(0.03 -0.03)">
       <defs>
        <path id="Helvetica-30" d="M 1731 4475 
Q 2600 4475 2988 3759 
Q 3288 3206 3288 2244 
Q 3288 1331 3016 734 
Q 2622 -122 1728 -122 
Q 922 -122 528 578 
Q 200 1163 200 2147 
Q 200 2909 397 3456 
Q 766 4475 1731 4475 
z
M 1725 391 
Q 2163 391 2422 778 
Q 2681 1166 2681 2222 
Q 2681 2984 2493 3476 
Q 2306 3969 1766 3969 
Q 1269 3969 1039 3501 
Q 809 3034 809 2125 
Q 809 1441 956 1025 
Q 1181 391 1725 391 
z
" transform="scale(0.015625)"/>
       </defs>
       <use xlink:href="#Helvetica-30"/>
      </g>
     </g>
    </g>
    <g id="ytick_2">
     <g id="line2d_2">
      <g>
       <use xlink:href="#mbdcc997177" x="8.336802" y="54.411333" style="fill: #777777; stroke: #777777; stroke-width: 0.5"/>
      </g>
     </g>
     <g id="text_4">
      <!-- 10 -->
      <g style="fill: #333333" transform="translate(3.00024 55.487348) scale(0.03 -0.03)">
       <use xlink:href="#Helvetica-31"/>
       <use xlink:href="#Helvetica-30" x="55.615234"/>
      </g>
     </g>
    </g>
    <g id="ytick_3">
     <g id="line2d_3">
      <g>
       <use xlink:href="#mbdcc997177" x="8.336802" y="41.827563" style="fill: #777777; stroke: #777777; stroke-width: 0.5"/>
      </g>
     </g>
     <g id="text_5">
      <!-- 20 -->
      <g style="fill: #333333" transform="translate(3.00024 42.903579) scale(0.03 -0.03)">
       <defs>
        <path id="Helvetica-32" d="M 200 0 
Q 231 578 439 1006 
Q 647 1434 1250 1784 
L 1850 2131 
Q 2253 2366 2416 2531 
Q 2672 2791 2672 3125 
Q 2672 3516 2437 3745 
Q 2203 3975 1813 3975 
Q 1234 3975 1013 3538 
Q 894 3303 881 2888 
L 309 2888 
Q 319 3472 525 3841 
Q 891 4491 1816 4491 
Q 2584 4491 2939 4075 
Q 3294 3659 3294 3150 
Q 3294 2613 2916 2231 
Q 2697 2009 2131 1694 
L 1703 1456 
Q 1397 1288 1222 1134 
Q 909 863 828 531 
L 3272 531 
L 3272 0 
L 200 0 
z
" transform="scale(0.015625)"/>
       </defs>
       <use xlink:href="#Helvetica-32"/>
       <use xlink:href="#Helvetica-30" x="55.615234"/>
      </g>
     </g>
    </g>
    <g id="ytick_4">
     <g id="line2d_4">
      <g>
       <use xlink:href="#mbdcc997177" x="8.336802" y="29.243794" style="fill: #777777; stroke: #777777; stroke-width: 0.5"/>
      </g>
     </g>
     <g id="text_6">
      <!-- 30 -->
      <g style="fill: #333333" transform="translate(3.00024 30.31981) scale(0.03 -0.03)">
       <use xlink:href="#Helvetica-33"/>
       <use xlink:href="#Helvetica-30" x="55.615234"/>
      </g>
     </g>
    </g>
    <g id="ytick_5">
     <g id="line2d_5">
      <g>
       <use xlink:href="#mbdcc997177" x="8.336802" y="16.660025" style="fill: #777777; stroke: #777777; stroke-width: 0.5"/>
      </g>
     </g>
     <g id="text_7">
      <!-- 40 -->
      <g style="fill: #333333" transform="translate(3.00024 17.73604) scale(0.03 -0.03)">
       <defs>
        <path id="Helvetica-34" d="M 2116 1584 
L 2116 3613 
L 681 1584 
L 2116 1584 
z
M 2125 0 
L 2125 1094 
L 163 1094 
L 163 1644 
L 2213 4488 
L 2688 4488 
L 2688 1584 
L 3347 1584 
L 3347 1094 
L 2688 1094 
L 2688 0 
L 2125 0 
z
" transform="scale(0.015625)"/>
       </defs>
       <use xlink:href="#Helvetica-34"/>
       <use xlink:href="#Helvetica-30" x="55.615234"/>
      </g>
     </g>
    </g>
    <g id="ytick_6">
     <g id="line2d_6">
      <g>
       <use xlink:href="#mbdcc997177" x="8.336802" y="4.076256" style="fill: #777777; stroke: #777777; stroke-width: 0.5"/>
      </g>
     </g>
     <g id="text_8">
      <!-- 50 -->
      <g style="fill: #333333" transform="translate(3.00024 5.152271) scale(0.03 -0.03)">
       <defs>
        <path id="Helvetica-35" d="M 791 1141 
Q 847 659 1238 475 
Q 1438 381 1700 381 
Q 2200 381 2440 700 
Q 2681 1019 2681 1406 
Q 2681 1875 2395 2131 
Q 2109 2388 1709 2388 
Q 1419 2388 1211 2275 
Q 1003 2163 856 1963 
L 369 1991 
L 709 4400 
L 3034 4400 
L 3034 3856 
L 1131 3856 
L 941 2613 
Q 1097 2731 1238 2791 
Q 1488 2894 1816 2894 
Q 2431 2894 2859 2497 
Q 3288 2100 3288 1491 
Q 3288 856 2895 371 
Q 2503 -113 1644 -113 
Q 1097 -113 676 195 
Q 256 503 206 1141 
L 791 1141 
z
" transform="scale(0.015625)"/>
       </defs>
       <use xlink:href="#Helvetica-35"/>
       <use xlink:href="#Helvetica-30" x="55.615234"/>
      </g>
     </g>
    </g>
   </g>
   <g id="PolyCollection_1">
    <defs>
     <path id="m1d7bb3e97a" d="M 21.52421 -18.109625 
L 17.560874 -18.109625 
L 17.18469 -18.160007 
L 16.770243 -18.210388 
L 16.321058 -18.26077 
L 15.842319 -18.311151 
L 15.340796 -18.361532 
L 14.824658 -18.411914 
L 14.303167 -18.462295 
L 13.786278 -18.512677 
L 13.284157 -18.563058 
L 12.806666 -18.61344 
L 12.362852 -18.663821 
L 11.960478 -18.714202 
L 11.605654 -18.764584 
L 11.302594 -18.814965 
L 11.053525 -18.865347 
L 10.858757 -18.915728 
L 10.716918 -18.96611 
L 10.625298 -19.016491 
L 10.580306 -19.066873 
L 10.57795 -19.117254 
L 10.614311 -19.167635 
L 10.68595 -19.218017 
L 10.790209 -19.268398 
L 10.925366 -19.31878 
L 11.090647 -19.369161 
L 11.286083 -19.419543 
L 11.51225 -19.469924 
L 11.769915 -19.520305 
L 12.059646 -19.570687 
L 12.381431 -19.621068 
L 12.734346 -19.67145 
L 13.116326 -19.721831 
L 13.524045 -19.772213 
L 13.952936 -19.822594 
L 14.397329 -19.872976 
L 14.850702 -19.923357 
L 15.306012 -19.973738 
L 15.756064 -20.02412 
L 16.193894 -20.074501 
L 16.613118 -20.124883 
L 17.008224 -20.175264 
L 17.374796 -20.225646 
L 17.709633 -20.276027 
L 18.010792 -20.326408 
L 18.277546 -20.37679 
L 18.510266 -20.427171 
L 18.71026 -20.477553 
L 18.879581 -20.527934 
L 19.020814 -20.578316 
L 19.136875 -20.628697 
L 19.230826 -20.679079 
L 19.305713 -20.72946 
L 19.364437 -20.779841 
L 19.409656 -20.830223 
L 19.443722 -20.880604 
L 19.46864 -20.930986 
L 19.486049 -20.981367 
L 19.497226 -21.031749 
L 19.503091 -21.08213 
L 19.504232 -21.132511 
L 19.500928 -21.182893 
L 19.493173 -21.233274 
L 19.480711 -21.283656 
L 19.463064 -21.334037 
L 19.439576 -21.384419 
L 19.409456 -21.4348 
L 19.37183 -21.485182 
L 19.32581 -21.535563 
L 19.270559 -21.585944 
L 19.205384 -21.636326 
L 19.129816 -21.686707 
L 19.043702 -21.737089 
L 18.947294 -21.78747 
L 18.841319 -21.837852 
L 18.727035 -21.888233 
L 18.606254 -21.938614 
L 18.481338 -21.988996 
L 18.355146 -22.039377 
L 18.230949 -22.089759 
L 18.112302 -22.14014 
L 18.002881 -22.190522 
L 17.9063 -22.240903 
L 17.825913 -22.291284 
L 17.764625 -22.341666 
L 17.724714 -22.392047 
L 17.707693 -22.442429 
L 17.714214 -22.49281 
L 17.744026 -22.543192 
L 17.795994 -22.593573 
L 17.868165 -22.643955 
L 17.957897 -22.694336 
L 18.062012 -22.744717 
L 18.176989 -22.795099 
L 18.299156 -22.84548 
L 18.424881 -22.895862 
L 18.550751 -22.946243 
L 18.673709 -22.996625 
L 18.791163 -23.047006 
L 18.901055 -23.097387 
L 20.184029 -23.097387 
L 20.184029 -23.097387 
L 20.293921 -23.047006 
L 20.411375 -22.996625 
L 20.534333 -22.946243 
L 20.660203 -22.895862 
L 20.785928 -22.84548 
L 20.908095 -22.795099 
L 21.023071 -22.744717 
L 21.127187 -22.694336 
L 21.216918 -22.643955 
L 21.28909 -22.593573 
L 21.341057 -22.543192 
L 21.37087 -22.49281 
L 21.377391 -22.442429 
L 21.36037 -22.392047 
L 21.320459 -22.341666 
L 21.259171 -22.291284 
L 21.178784 -22.240903 
L 21.082203 -22.190522 
L 20.972782 -22.14014 
L 20.854135 -22.089759 
L 20.729938 -22.039377 
L 20.603746 -21.988996 
L 20.47883 -21.938614 
L 20.358049 -21.888233 
L 20.243765 -21.837852 
L 20.13779 -21.78747 
L 20.041382 -21.737089 
L 19.955268 -21.686707 
L 19.879699 -21.636326 
L 19.814524 -21.585944 
L 19.759274 -21.535563 
L 19.713254 -21.485182 
L 19.675628 -21.4348 
L 19.645508 -21.384419 
L 19.62202 -21.334037 
L 19.604373 -21.283656 
L 19.591911 -21.233274 
L 19.584156 -21.182893 
L 19.580852 -21.132511 
L 19.581993 -21.08213 
L 19.587858 -21.031749 
L 19.599034 -20.981367 
L 19.616444 -20.930986 
L 19.641362 -20.880604 
L 19.675428 -20.830223 
L 19.720647 -20.779841 
L 19.779371 -20.72946 
L 19.854257 -20.679079 
L 19.948208 -20.628697 
L 20.06427 -20.578316 
L 20.205502 -20.527934 
L 20.374823 -20.477553 
L 20.574818 -20.427171 
L 20.807538 -20.37679 
L 21.074291 -20.326408 
L 21.375451 -20.276027 
L 21.710288 -20.225646 
L 22.076859 -20.175264 
L 22.471966 -20.124883 
L 22.89119 -20.074501 
L 23.32902 -20.02412 
L 23.779072 -19.973738 
L 24.234382 -19.923357 
L 24.687755 -19.872976 
L 25.132148 -19.822594 
L 25.561038 -19.772213 
L 25.968758 -19.721831 
L 26.350737 -19.67145 
L 26.703653 -19.621068 
L 27.025438 -19.570687 
L 27.315169 -19.520305 
L 27.572834 -19.469924 
L 27.799001 -19.419543 
L 27.994437 -19.369161 
L 28.159718 -19.31878 
L 28.294875 -19.268398 
L 28.399134 -19.218017 
L 28.470773 -19.167635 
L 28.507133 -19.117254 
L 28.504777 -19.066873 
L 28.459786 -19.016491 
L 28.368166 -18.96611 
L 28.226326 -18.915728 
L 28.031559 -18.865347 
L 27.782489 -18.814965 
L 27.479429 -18.764584 
L 27.124606 -18.714202 
L 26.722232 -18.663821 
L 26.278418 -18.61344 
L 25.800927 -18.563058 
L 25.298806 -18.512677 
L 24.781916 -18.462295 
L 24.260426 -18.411914 
L 23.744288 -18.361532 
L 23.242765 -18.311151 
L 22.764026 -18.26077 
L 22.314841 -18.210388 
L 21.900394 -18.160007 
L 21.52421 -18.109625 
z
" style="stroke: #7c7c7c; stroke-width: 0.15"/>
    </defs>
    <g clip-path="url(#p18431659c4)">
     <use xlink:href="#m1d7bb3e97a" x="0" y="84.96" style="fill: #cfcfcf; stroke: #7c7c7c; stroke-width: 0.15"/>
    </g>
   </g>
   <g id="PolyCollection_2">
    <defs>
     <path id="mfe456e77c7" d="M 43.662648 -17.709566 
L 40.245394 -17.709566 
L 39.890723 -17.743101 
L 39.492978 -17.776635 
L 39.054357 -17.81017 
L 38.578968 -17.843705 
L 38.072893 -17.877239 
L 37.544138 -17.910774 
L 37.002428 -17.944308 
L 36.458865 -17.977843 
L 35.925442 -18.011377 
L 35.414447 -18.044912 
L 34.937792 -18.078446 
L 34.506305 -18.111981 
L 34.129064 -18.145516 
L 33.812799 -18.17905 
L 33.561444 -18.212585 
L 33.37586 -18.246119 
L 33.25377 -18.279654 
L 33.189913 -18.313188 
L 33.176403 -18.346723 
L 33.203277 -18.380257 
L 33.259175 -18.413792 
L 33.33211 -18.447327 
L 33.410264 -18.480861 
L 33.482751 -18.514396 
L 33.540298 -18.54793 
L 33.575795 -18.581465 
L 33.584694 -18.614999 
L 33.565226 -18.648534 
L 33.518451 -18.682068 
L 33.448128 -18.715603 
L 33.360443 -18.749138 
L 33.263604 -18.782672 
L 33.167329 -18.816207 
L 33.082275 -18.849741 
L 33.019418 -18.883276 
L 32.989429 -18.91681 
L 33.002071 -18.950345 
L 33.06565 -18.983879 
L 33.186547 -19.017414 
L 33.368861 -19.050949 
L 33.614172 -19.084483 
L 33.921453 -19.118018 
L 34.287126 -19.151552 
L 34.705262 -19.185087 
L 35.167912 -19.218621 
L 35.665542 -19.252156 
L 36.187549 -19.28569 
L 36.722812 -19.319225 
L 37.260242 -19.35276 
L 37.789301 -19.386294 
L 38.300447 -19.419829 
L 38.785484 -19.453363 
L 39.237798 -19.486898 
L 39.652481 -19.520432 
L 40.026335 -19.553967 
L 40.357776 -19.587501 
L 40.646653 -19.621036 
L 40.894006 -19.654571 
L 41.101791 -19.688105 
L 41.272582 -19.72164 
L 41.409299 -19.755174 
L 41.514942 -19.788709 
L 41.592382 -19.822243 
L 41.644195 -19.855778 
L 41.672547 -19.889312 
L 41.67914 -19.922847 
L 41.665215 -19.956382 
L 41.631597 -19.989916 
L 41.578795 -20.023451 
L 41.507131 -20.056985 
L 41.416899 -20.09052 
L 41.30854 -20.124054 
L 41.182821 -20.157589 
L 41.040991 -20.191123 
L 40.884929 -20.224658 
L 40.717232 -20.258193 
L 40.541256 -20.291727 
L 40.361099 -20.325262 
L 40.181506 -20.358796 
L 40.00771 -20.392331 
L 39.845211 -20.425865 
L 39.699512 -20.4594 
L 39.575822 -20.492934 
L 39.478754 -20.526469 
L 39.412047 -20.560004 
L 39.378326 -20.593538 
L 39.378939 -20.627073 
L 39.413863 -20.660607 
L 39.481709 -20.694142 
L 39.579815 -20.727676 
L 39.704417 -20.761211 
L 39.850891 -20.794745 
L 40.014033 -20.82828 
L 40.188373 -20.861815 
L 40.368463 -20.895349 
L 40.549163 -20.928884 
L 40.72586 -20.962418 
L 40.894644 -20.995953 
L 41.052412 -21.029487 
L 42.855629 -21.029487 
L 42.855629 -21.029487 
L 43.013397 -20.995953 
L 43.182181 -20.962418 
L 43.358878 -20.928884 
L 43.539578 -20.895349 
L 43.719669 -20.861815 
L 43.894008 -20.82828 
L 44.057151 -20.794745 
L 44.203624 -20.761211 
L 44.328226 -20.727676 
L 44.426332 -20.694142 
L 44.494179 -20.660607 
L 44.529103 -20.627073 
L 44.529715 -20.593538 
L 44.495995 -20.560004 
L 44.429287 -20.526469 
L 44.332219 -20.492934 
L 44.208529 -20.4594 
L 44.06283 -20.425865 
L 43.900332 -20.392331 
L 43.726535 -20.358796 
L 43.546942 -20.325262 
L 43.366785 -20.291727 
L 43.19081 -20.258193 
L 43.023112 -20.224658 
L 42.86705 -20.191123 
L 42.725221 -20.157589 
L 42.599501 -20.124054 
L 42.491142 -20.09052 
L 42.40091 -20.056985 
L 42.329246 -20.023451 
L 42.276444 -19.989916 
L 42.242826 -19.956382 
L 42.228901 -19.922847 
L 42.235495 -19.889312 
L 42.263846 -19.855778 
L 42.315659 -19.822243 
L 42.3931 -19.788709 
L 42.498742 -19.755174 
L 42.635459 -19.72164 
L 42.806251 -19.688105 
L 43.014035 -19.654571 
L 43.261388 -19.621036 
L 43.550265 -19.587501 
L 43.881706 -19.553967 
L 44.25556 -19.520432 
L 44.670243 -19.486898 
L 45.122557 -19.453363 
L 45.607594 -19.419829 
L 46.11874 -19.386294 
L 46.6478 -19.35276 
L 47.18523 -19.319225 
L 47.720492 -19.28569 
L 48.242499 -19.252156 
L 48.74013 -19.218621 
L 49.202779 -19.185087 
L 49.620915 -19.151552 
L 49.986588 -19.118018 
L 50.293869 -19.084483 
L 50.53918 -19.050949 
L 50.721494 -19.017414 
L 50.842391 -18.983879 
L 50.90597 -18.950345 
L 50.918612 -18.91681 
L 50.888623 -18.883276 
L 50.825767 -18.849741 
L 50.740713 -18.816207 
L 50.644438 -18.782672 
L 50.547598 -18.749138 
L 50.459914 -18.715603 
L 50.389591 -18.682068 
L 50.342815 -18.648534 
L 50.323347 -18.614999 
L 50.332246 -18.581465 
L 50.367743 -18.54793 
L 50.42529 -18.514396 
L 50.497778 -18.480861 
L 50.575931 -18.447327 
L 50.648866 -18.413792 
L 50.704764 -18.380257 
L 50.731638 -18.346723 
L 50.718129 -18.313188 
L 50.654271 -18.279654 
L 50.532182 -18.246119 
L 50.346597 -18.212585 
L 50.095242 -18.17905 
L 49.778978 -18.145516 
L 49.401736 -18.111981 
L 48.97025 -18.078446 
L 48.493594 -18.044912 
L 47.982599 -18.011377 
L 47.449176 -17.977843 
L 46.905613 -17.944308 
L 46.363903 -17.910774 
L 45.835148 -17.877239 
L 45.329073 -17.843705 
L 44.853684 -17.81017 
L 44.415064 -17.776635 
L 44.017318 -17.743101 
L 43.662648 -17.709566 
z
" style="stroke: #7c7c7c; stroke-width: 0.15"/>
    </defs>
    <g clip-path="url(#p18431659c4)">
     <use xlink:href="#mfe456e77c7" x="0" y="84.96" style="fill: #f3f3ae; stroke: #7c7c7c; stroke-width: 0.15"/>
    </g>
   </g>
   <g id="line2d_7">
    <path d="M 19.542542 66.206681 
L 19.542542 65.280563 
" clip-path="url(#p18431659c4)" style="fill: none; stroke: #8c8c8c; stroke-width: 0.75; stroke-linecap: round"/>
   </g>
   <g id="line2d_8">
    <path d="M 19.542542 66.154113 
L 19.542542 65.32996 
" clip-path="url(#p18431659c4)" style="fill: none; stroke: #8c8c8c; stroke-width: 4; stroke-linecap: round"/>
   </g>
   <g id="line2d_9">
    <path d="M 19.542542 65.67668 
" clip-path="url(#p18431659c4)" style="fill: none; stroke: #7c7c7c; stroke-width: 1.2; stroke-linecap: round"/>
    <defs>
     <path id="m3bba310dfd" d="M 0 0.833333 
C 0.221003 0.833333 0.432983 0.745528 0.589256 0.589256 
C 0.745528 0.432983 0.833333 0.221003 0.833333 0 
C 0.833333 -0.221003 0.745528 -0.432983 0.589256 -0.589256 
C 0.432983 -0.745528 0.221003 -0.833333 0 -0.833333 
C -0.221003 -0.833333 -0.432983 -0.745528 -0.589256 -0.589256 
C -0.745528 -0.432983 -0.833333 -0.221003 -0.833333 0 
C -0.833333 0.221003 -0.745528 0.432983 -0.589256 0.589256 
C -0.432983 0.745528 -0.221003 0.833333 0 0.833333 
z
" style="stroke: #ffffff; stroke-width: 0.8"/>
    </defs>
    <g clip-path="url(#p18431659c4)">
     <use xlink:href="#m3bba310dfd" x="19.542542" y="65.67668" style="fill: #ffffff; stroke: #ffffff; stroke-width: 0.8"/>
    </g>
   </g>
   <g id="line2d_10">
    <path d="M 41.954021 66.830663 
L 41.954021 65.802474 
" clip-path="url(#p18431659c4)" style="fill: none; stroke: #8c8c8c; stroke-width: 0.75; stroke-linecap: round"/>
   </g>
   <g id="line2d_11">
    <path d="M 41.954021 66.675817 
L 41.954021 65.864117 
" clip-path="url(#p18431659c4)" style="fill: none; stroke: #8c8c8c; stroke-width: 4; stroke-linecap: round"/>
   </g>
   <g id="line2d_12">
    <path d="M 41.954021 66.162038 
" clip-path="url(#p18431659c4)" style="fill: none; stroke: #7c7c7c; stroke-width: 1.2; stroke-linecap: round"/>
    <g clip-path="url(#p18431659c4)">
     <use xlink:href="#m3bba310dfd" x="41.954021" y="66.162038" style="fill: #ffffff; stroke: #ffffff; stroke-width: 0.8"/>
    </g>
   </g>
   <g id="patch_3">
    <path d="M 8.336802 74.419526 
L 8.336802 4.076256 
" style="fill: none; stroke: #777777; stroke-width: 0.5; stroke-linejoin: miter; stroke-linecap: square"/>
   </g>
   <g id="patch_4">
    <path d="M 8.336802 76.919526 
L 53.15976 76.919526 
" style="fill: none; stroke: #777777; stroke-width: 0.5; stroke-linejoin: miter; stroke-linecap: square"/>
   </g>
  </g>
 </g>
 <defs>
  <clipPath id="p18431659c4">
   <rect x="8.336802" y="4.076256" width="44.822958" height="70.34327"/>
  </clipPath>
 </defs>
</svg>
