<?xml version="1.0" encoding="utf-8" standalone="no"?>
<!DOCTYPE svg PUBLIC "-//W3C//DTD SVG 1.1//EN"
  "http://www.w3.org/Graphics/SVG/1.1/DTD/svg11.dtd">
<svg xmlns:xlink="http://www.w3.org/1999/xlink" width="84.96pt" height="84.96pt" viewBox="0 0 84.96 84.96" xmlns="http://www.w3.org/2000/svg" version="1.1">
 <metadata>
  <rdf:RDF xmlns:dc="http://purl.org/dc/elements/1.1/" xmlns:cc="http://creativecommons.org/ns#" xmlns:rdf="http://www.w3.org/1999/02/22-rdf-syntax-ns#">
   <cc:Work>
    <dc:type rdf:resource="http://purl.org/dc/dcmitype/StillImage"/>
    <dc:date>2024-05-27T15:37:04.335095</dc:date>
    <dc:format>image/svg+xml</dc:format>
    <dc:creator>
     <cc:Agent>
      <dc:title>Matplotlib v3.8.3, https://matplotlib.org/</dc:title>
     </cc:Agent>
    </dc:creator>
   </cc:Work>
  </rdf:RDF>
 </metadata>
 <defs>
  <style type="text/css">*{stroke-linejoin: round; stroke-linecap: butt}</style>
 </defs>
 <g id="figure_1">
  <g id="patch_1">
   <path d="M 0 84.96 
L 84.96 84.96 
L 84.96 0 
L 0 0 
z
" style="fill: #ffffff"/>
  </g>
  <g id="axes_1">
   <g id="patch_2">
    <path d="M 8.336802 74.419526 
L 81.95976 74.419526 
L 81.95976 4.076256 
L 8.336802 4.076256 
z
" style="fill: #ffffff"/>
   </g>
   <g id="matplotlib.axis_1">
    <g id="xtick_1">
     <g id="text_1">
      <!-- B -->
      <g style="fill: #333333" transform="translate(19.439991 81.230229) scale(0.035 -0.035)">
       <defs>
        <path id="Helvetica-42" d="M 2213 2650 
Q 2606 2650 2825 2759 
Q 3169 2931 3169 3378 
Q 3169 3828 2803 3984 
Q 2597 4072 2191 4072 
L 1081 4072 
L 1081 2650 
L 2213 2650 
z
M 2422 531 
Q 2994 531 3238 863 
Q 3391 1072 3391 1369 
Q 3391 1869 2944 2050 
Q 2706 2147 2316 2147 
L 1081 2147 
L 1081 531 
L 2422 531 
z
M 472 4591 
L 2444 4591 
Q 3250 4591 3591 4109 
Q 3791 3825 3791 3453 
Q 3791 3019 3544 2741 
Q 3416 2594 3175 2472 
Q 3528 2338 3703 2169 
Q 4013 1869 4013 1341 
Q 4013 897 3734 538 
Q 3319 0 2413 0 
L 472 0 
L 472 4591 
z
" transform="scale(0.015625)"/>
       </defs>
       <use xlink:href="#Helvetica-42"/>
      </g>
     </g>
    </g>
    <g id="xtick_2">
     <g id="text_2">
      <!-- T -->
      <g style="fill: #333333" transform="translate(44.079414 81.230229) scale(0.035 -0.035)">
       <defs>
        <path id="Helvetica-54" d="M 3828 4591 
L 3828 4044 
L 2281 4044 
L 2281 0 
L 1650 0 
L 1650 4044 
L 103 4044 
L 103 4591 
L 3828 4591 
z
" transform="scale(0.015625)"/>
       </defs>
       <use xlink:href="#Helvetica-54"/>
      </g>
     </g>
    </g>
    <g id="xtick_3">
     <g id="text_3">
      <!-- IL7R Non B/T -->
      <g style="fill: #333333" transform="translate(59.088095 81.230229) scale(0.035 -0.035)">
       <defs>
        <path id="Helvetica-49" d="M 628 4591 
L 1256 4591 
L 1256 0 
L 628 0 
L 628 4591 
z
" transform="scale(0.015625)"/>
        <path id="Helvetica-4c" d="M 488 4591 
L 1109 4591 
L 1109 547 
L 3434 547 
L 3434 0 
L 488 0 
L 488 4591 
z
" transform="scale(0.015625)"/>
        <path id="Helvetica-37" d="M 3347 4400 
L 3347 3909 
Q 3131 3700 2773 3181 
Q 2416 2663 2141 2063 
Q 1869 1478 1728 997 
Q 1638 688 1494 0 
L 872 0 
Q 1084 1281 1809 2550 
Q 2238 3294 2709 3834 
L 234 3834 
L 234 4400 
L 3347 4400 
z
" transform="scale(0.015625)"/>
        <path id="Helvetica-52" d="M 2622 2488 
Q 3059 2488 3314 2663 
Q 3569 2838 3569 3294 
Q 3569 3784 3213 3963 
Q 3022 4056 2703 4056 
L 1184 4056 
L 1184 2488 
L 2622 2488 
z
M 563 4591 
L 2688 4591 
Q 3213 4591 3553 4438 
Q 4200 4144 4200 3353 
Q 4200 2941 4029 2678 
Q 3859 2416 3553 2256 
Q 3822 2147 3958 1969 
Q 4094 1791 4109 1391 
L 4131 775 
Q 4141 513 4175 384 
Q 4231 166 4375 103 
L 4375 0 
L 3613 0 
Q 3581 59 3562 153 
Q 3544 247 3531 516 
L 3494 1281 
Q 3472 1731 3159 1884 
Q 2981 1969 2600 1969 
L 1184 1969 
L 1184 0 
L 563 0 
L 563 4591 
z
" transform="scale(0.015625)"/>
        <path id="Helvetica-20" transform="scale(0.015625)"/>
        <path id="Helvetica-4e" d="M 488 4591 
L 1222 4591 
L 3541 872 
L 3541 4591 
L 4131 4591 
L 4131 0 
L 3434 0 
L 1081 3716 
L 1081 0 
L 488 0 
L 488 4591 
z
M 2269 4591 
L 2269 4591 
z
" transform="scale(0.015625)"/>
        <path id="Helvetica-6f" d="M 1741 363 
Q 2300 363 2508 786 
Q 2716 1209 2716 1728 
Q 2716 2197 2566 2491 
Q 2328 2953 1747 2953 
Q 1231 2953 997 2559 
Q 763 2166 763 1609 
Q 763 1075 997 719 
Q 1231 363 1741 363 
z
M 1763 3444 
Q 2409 3444 2856 3012 
Q 3303 2581 3303 1744 
Q 3303 934 2909 406 
Q 2516 -122 1688 -122 
Q 997 -122 590 345 
Q 184 813 184 1600 
Q 184 2444 612 2944 
Q 1041 3444 1763 3444 
z
M 1744 3428 
L 1744 3428 
z
" transform="scale(0.015625)"/>
        <path id="Helvetica-6e" d="M 413 3347 
L 947 3347 
L 947 2872 
Q 1184 3166 1450 3294 
Q 1716 3422 2041 3422 
Q 2753 3422 3003 2925 
Q 3141 2653 3141 2147 
L 3141 0 
L 2569 0 
L 2569 2109 
Q 2569 2416 2478 2603 
Q 2328 2916 1934 2916 
Q 1734 2916 1606 2875 
Q 1375 2806 1200 2600 
Q 1059 2434 1017 2257 
Q 975 2081 975 1753 
L 975 0 
L 413 0 
L 413 3347 
z
M 1734 3428 
L 1734 3428 
z
" transform="scale(0.015625)"/>
        <path id="Helvetica-2f" d="M 1456 4591 
L 1931 4591 
L 475 0 
L 0 0 
L 1456 4591 
z
" transform="scale(0.015625)"/>
       </defs>
       <use xlink:href="#Helvetica-49"/>
       <use xlink:href="#Helvetica-4c" x="27.783203"/>
       <use xlink:href="#Helvetica-37" x="83.398438"/>
       <use xlink:href="#Helvetica-52" x="139.013672"/>
       <use xlink:href="#Helvetica-20" x="211.230469"/>
       <use xlink:href="#Helvetica-4e" x="239.013672"/>
       <use xlink:href="#Helvetica-6f" x="311.230469"/>
       <use xlink:href="#Helvetica-6e" x="366.845703"/>
       <use xlink:href="#Helvetica-20" x="422.460938"/>
       <use xlink:href="#Helvetica-42" x="450.244141"/>
       <use xlink:href="#Helvetica-2f" x="516.943359"/>
       <use xlink:href="#Helvetica-54" x="544.726562"/>
      </g>
     </g>
    </g>
   </g>
   <g id="matplotlib.axis_2">
    <g id="ytick_1">
     <g id="line2d_1">
      <defs>
       <path id="mb1786f4363" d="M 0 0 
L -1 0 
" style="stroke: #777777; stroke-width: 0.5"/>
      </defs>
      <g>
       <use xlink:href="#mb1786f4363" x="8.336802" y="66.673159" style="fill: #777777; stroke: #777777; stroke-width: 0.5"/>
      </g>
     </g>
     <g id="text_4">
      <!-- 0 -->
      <g style="fill: #333333" transform="translate(4.668521 67.749174) scale(0.03 -0.03)">
       <defs>
        <path id="Helvetica-30" d="M 1731 4475 
Q 2600 4475 2988 3759 
Q 3288 3206 3288 2244 
Q 3288 1331 3016 734 
Q 2622 -122 1728 -122 
Q 922 -122 528 578 
Q 200 1163 200 2147 
Q 200 2909 397 3456 
Q 766 4475 1731 4475 
z
M 1725 391 
Q 2163 391 2422 778 
Q 2681 1166 2681 2222 
Q 2681 2984 2493 3476 
Q 2306 3969 1766 3969 
Q 1269 3969 1039 3501 
Q 809 3034 809 2125 
Q 809 1441 956 1025 
Q 1181 391 1725 391 
z
" transform="scale(0.015625)"/>
       </defs>
       <use xlink:href="#Helvetica-30"/>
      </g>
     </g>
    </g>
    <g id="ytick_2">
     <g id="line2d_2">
      <g>
       <use xlink:href="#mb1786f4363" x="8.336802" y="58.848546" style="fill: #777777; stroke: #777777; stroke-width: 0.5"/>
      </g>
     </g>
     <g id="text_5">
      <!-- 10 -->
      <g style="fill: #333333" transform="translate(3.00024 59.924562) scale(0.03 -0.03)">
       <defs>
        <path id="Helvetica-31" d="M 613 3169 
L 613 3600 
Q 1222 3659 1462 3798 
Q 1703 3938 1822 4456 
L 2266 4456 
L 2266 0 
L 1666 0 
L 1666 3169 
L 613 3169 
z
" transform="scale(0.015625)"/>
       </defs>
       <use xlink:href="#Helvetica-31"/>
       <use xlink:href="#Helvetica-30" x="55.615234"/>
      </g>
     </g>
    </g>
    <g id="ytick_3">
     <g id="line2d_3">
      <g>
       <use xlink:href="#mb1786f4363" x="8.336802" y="51.023933" style="fill: #777777; stroke: #777777; stroke-width: 0.5"/>
      </g>
     </g>
     <g id="text_6">
      <!-- 20 -->
      <g style="fill: #333333" transform="translate(3.00024 52.099949) scale(0.03 -0.03)">
       <defs>
        <path id="Helvetica-32" d="M 200 0 
Q 231 578 439 1006 
Q 647 1434 1250 1784 
L 1850 2131 
Q 2253 2366 2416 2531 
Q 2672 2791 2672 3125 
Q 2672 3516 2437 3745 
Q 2203 3975 1813 3975 
Q 1234 3975 1013 3538 
Q 894 3303 881 2888 
L 309 2888 
Q 319 3472 525 3841 
Q 891 4491 1816 4491 
Q 2584 4491 2939 4075 
Q 3294 3659 3294 3150 
Q 3294 2613 2916 2231 
Q 2697 2009 2131 1694 
L 1703 1456 
Q 1397 1288 1222 1134 
Q 909 863 828 531 
L 3272 531 
L 3272 0 
L 200 0 
z
" transform="scale(0.015625)"/>
       </defs>
       <use xlink:href="#Helvetica-32"/>
       <use xlink:href="#Helvetica-30" x="55.615234"/>
      </g>
     </g>
    </g>
    <g id="ytick_4">
     <g id="line2d_4">
      <g>
       <use xlink:href="#mb1786f4363" x="8.336802" y="43.19932" style="fill: #777777; stroke: #777777; stroke-width: 0.5"/>
      </g>
     </g>
     <g id="text_7">
      <!-- 30 -->
      <g style="fill: #333333" transform="translate(3.00024 44.275336) scale(0.03 -0.03)">
       <defs>
        <path id="Helvetica-33" d="M 1663 -122 
Q 869 -122 511 314 
Q 153 750 153 1375 
L 741 1375 
Q 778 941 903 744 
Q 1122 391 1694 391 
Q 2138 391 2406 628 
Q 2675 866 2675 1241 
Q 2675 1703 2392 1887 
Q 2109 2072 1606 2072 
Q 1550 2072 1492 2070 
Q 1434 2069 1375 2066 
L 1375 2563 
Q 1463 2553 1522 2550 
Q 1581 2547 1650 2547 
Q 1966 2547 2169 2647 
Q 2525 2822 2525 3272 
Q 2525 3606 2287 3787 
Q 2050 3969 1734 3969 
Q 1172 3969 956 3594 
Q 838 3388 822 3006 
L 266 3006 
Q 266 3506 466 3856 
Q 809 4481 1675 4481 
Q 2359 4481 2734 4176 
Q 3109 3872 3109 3294 
Q 3109 2881 2888 2625 
Q 2750 2466 2531 2375 
Q 2884 2278 3082 2001 
Q 3281 1725 3281 1325 
Q 3281 684 2859 281 
Q 2438 -122 1663 -122 
z
" transform="scale(0.015625)"/>
       </defs>
       <use xlink:href="#Helvetica-33"/>
       <use xlink:href="#Helvetica-30" x="55.615234"/>
      </g>
     </g>
    </g>
    <g id="ytick_5">
     <g id="line2d_5">
      <g>
       <use xlink:href="#mb1786f4363" x="8.336802" y="35.374707" style="fill: #777777; stroke: #777777; stroke-width: 0.5"/>
      </g>
     </g>
     <g id="text_8">
      <!-- 40 -->
      <g style="fill: #333333" transform="translate(3.00024 36.450723) scale(0.03 -0.03)">
       <defs>
        <path id="Helvetica-34" d="M 2116 1584 
L 2116 3613 
L 681 1584 
L 2116 1584 
z
M 2125 0 
L 2125 1094 
L 163 1094 
L 163 1644 
L 2213 4488 
L 2688 4488 
L 2688 1584 
L 3347 1584 
L 3347 1094 
L 2688 1094 
L 2688 0 
L 2125 0 
z
" transform="scale(0.015625)"/>
       </defs>
       <use xlink:href="#Helvetica-34"/>
       <use xlink:href="#Helvetica-30" x="55.615234"/>
      </g>
     </g>
    </g>
    <g id="ytick_6">
     <g id="line2d_6">
      <g>
       <use xlink:href="#mb1786f4363" x="8.336802" y="27.550094" style="fill: #777777; stroke: #777777; stroke-width: 0.5"/>
      </g>
     </g>
     <g id="text_9">
      <!-- 50 -->
      <g style="fill: #333333" transform="translate(3.00024 28.62611) scale(0.03 -0.03)">
       <defs>
        <path id="Helvetica-35" d="M 791 1141 
Q 847 659 1238 475 
Q 1438 381 1700 381 
Q 2200 381 2440 700 
Q 2681 1019 2681 1406 
Q 2681 1875 2395 2131 
Q 2109 2388 1709 2388 
Q 1419 2388 1211 2275 
Q 1003 2163 856 1963 
L 369 1991 
L 709 4400 
L 3034 4400 
L 3034 3856 
L 1131 3856 
L 941 2613 
Q 1097 2731 1238 2791 
Q 1488 2894 1816 2894 
Q 2431 2894 2859 2497 
Q 3288 2100 3288 1491 
Q 3288 856 2895 371 
Q 2503 -113 1644 -113 
Q 1097 -113 676 195 
Q 256 503 206 1141 
L 791 1141 
z
" transform="scale(0.015625)"/>
       </defs>
       <use xlink:href="#Helvetica-35"/>
       <use xlink:href="#Helvetica-30" x="55.615234"/>
      </g>
     </g>
    </g>
    <g id="ytick_7">
     <g id="line2d_7">
      <g>
       <use xlink:href="#mb1786f4363" x="8.336802" y="19.725481" style="fill: #777777; stroke: #777777; stroke-width: 0.5"/>
      </g>
     </g>
     <g id="text_10">
      <!-- 60 -->
      <g style="fill: #333333" transform="translate(3.00024 20.801497) scale(0.03 -0.03)">
       <defs>
        <path id="Helvetica-36" d="M 1872 4494 
Q 2622 4494 2917 4105 
Q 3213 3716 3213 3303 
L 2656 3303 
Q 2606 3569 2497 3719 
Q 2294 4000 1881 4000 
Q 1409 4000 1131 3564 
Q 853 3128 822 2316 
Q 1016 2600 1309 2741 
Q 1578 2866 1909 2866 
Q 2472 2866 2890 2506 
Q 3309 2147 3309 1434 
Q 3309 825 2912 354 
Q 2516 -116 1781 -116 
Q 1153 -116 697 361 
Q 241 838 241 1966 
Q 241 2800 444 3381 
Q 834 4494 1872 4494 
z
M 1831 384 
Q 2275 384 2495 682 
Q 2716 981 2716 1388 
Q 2716 1731 2519 2042 
Q 2322 2353 1803 2353 
Q 1441 2353 1167 2112 
Q 894 1872 894 1388 
Q 894 963 1142 673 
Q 1391 384 1831 384 
z
" transform="scale(0.015625)"/>
       </defs>
       <use xlink:href="#Helvetica-36"/>
       <use xlink:href="#Helvetica-30" x="55.615234"/>
      </g>
     </g>
    </g>
    <g id="ytick_8">
     <g id="line2d_8">
      <g>
       <use xlink:href="#mb1786f4363" x="8.336802" y="11.900869" style="fill: #777777; stroke: #777777; stroke-width: 0.5"/>
      </g>
     </g>
     <g id="text_11">
      <!-- 70 -->
      <g style="fill: #333333" transform="translate(3.00024 12.976884) scale(0.03 -0.03)">
       <use xlink:href="#Helvetica-37"/>
       <use xlink:href="#Helvetica-30" x="55.615234"/>
      </g>
     </g>
    </g>
    <g id="ytick_9">
     <g id="line2d_9">
      <g>
       <use xlink:href="#mb1786f4363" x="8.336802" y="4.076256" style="fill: #777777; stroke: #777777; stroke-width: 0.5"/>
      </g>
     </g>
     <g id="text_12">
      <!-- 80 -->
      <g style="fill: #333333" transform="translate(3.00024 5.152271) scale(0.03 -0.03)">
       <defs>
        <path id="Helvetica-38" d="M 1741 2600 
Q 2113 2600 2322 2808 
Q 2531 3016 2531 3303 
Q 2531 3553 2331 3762 
Q 2131 3972 1722 3972 
Q 1316 3972 1134 3762 
Q 953 3553 953 3272 
Q 953 2956 1187 2778 
Q 1422 2600 1741 2600 
z
M 1775 384 
Q 2166 384 2423 595 
Q 2681 806 2681 1225 
Q 2681 1659 2415 1884 
Q 2150 2109 1734 2109 
Q 1331 2109 1076 1879 
Q 822 1650 822 1244 
Q 822 894 1055 639 
Q 1288 384 1775 384 
z
M 975 2384 
Q 741 2484 609 2619 
Q 363 2869 363 3269 
Q 363 3769 725 4128 
Q 1088 4488 1753 4488 
Q 2397 4488 2762 4148 
Q 3128 3809 3128 3356 
Q 3128 2938 2916 2678 
Q 2797 2531 2547 2391 
Q 2825 2263 2984 2097 
Q 3281 1784 3281 1284 
Q 3281 694 2884 283 
Q 2488 -128 1763 -128 
Q 1109 -128 657 226 
Q 206 581 206 1256 
Q 206 1653 400 1942 
Q 594 2231 975 2384 
z
" transform="scale(0.015625)"/>
       </defs>
       <use xlink:href="#Helvetica-38"/>
       <use xlink:href="#Helvetica-30" x="55.615234"/>
      </g>
     </g>
    </g>
   </g>
   <g id="PolyCollection_1">
    <defs>
     <path id="m2faddb10f4" d="M 20.978742 -17.071027 
L 20.235849 -17.071027 
L 20.129056 -17.494417 
L 20.012551 -17.917807 
L 19.892878 -18.341198 
L 19.778381 -18.764588 
L 19.678322 -19.187978 
L 19.601677 -19.611368 
L 19.555819 -20.034758 
L 19.545351 -20.458148 
L 19.571341 -20.881539 
L 19.631147 -21.304929 
L 19.718854 -21.728319 
L 19.826241 -22.151709 
L 19.944042 -22.575099 
L 20.063241 -22.998489 
L 20.176154 -23.421879 
L 20.277116 -23.84527 
L 20.362715 -24.26866 
L 20.431623 -24.69205 
L 20.484122 -25.11544 
L 20.521482 -25.53883 
L 20.545325 -25.96222 
L 20.557067 -26.385611 
L 20.557518 -26.809001 
L 20.546654 -27.232391 
L 20.523584 -27.655781 
L 20.486694 -28.079171 
L 20.433959 -28.502561 
L 20.363376 -28.925951 
L 20.273466 -29.349342 
L 20.163735 -29.772732 
L 20.034963 -30.196122 
L 19.889224 -30.619512 
L 19.729536 -31.042902 
L 19.559151 -31.466292 
L 19.380609 -31.889683 
L 19.194752 -32.313073 
L 18.999981 -32.736463 
L 18.791992 -33.159853 
L 18.564127 -33.583243 
L 18.308318 -34.006633 
L 18.01641 -34.430024 
L 17.681543 -34.853414 
L 17.299254 -35.276804 
L 16.868063 -35.700194 
L 16.389494 -36.123584 
L 15.867708 -36.546974 
L 15.309049 -36.970364 
L 14.72181 -37.393755 
L 14.116443 -37.817145 
L 13.506132 -38.240535 
L 12.907451 -38.663925 
L 12.340647 -39.087315 
L 11.829073 -39.510705 
L 11.397512 -39.934096 
L 11.069437 -40.357486 
L 10.863637 -40.780876 
L 10.790901 -41.204266 
L 10.851589 -41.627656 
L 11.034736 -42.051046 
L 11.319052 -42.474437 
L 11.675727 -42.897827 
L 12.072524 -43.321217 
L 12.478381 -43.744607 
L 12.867612 -44.167997 
L 13.222961 -44.591387 
L 13.537011 -45.014777 
L 13.811818 -45.438168 
L 14.056994 -45.861558 
L 14.286727 -46.284948 
L 14.516354 -46.708338 
L 14.759135 -47.131728 
L 15.023718 -47.555118 
L 15.312663 -47.978509 
L 15.6221 -48.401899 
L 15.942466 -48.825289 
L 16.260036 -49.248679 
L 16.55894 -49.672069 
L 16.823317 -50.095459 
L 17.039314 -50.51885 
L 17.196753 -50.94224 
L 17.29037 -51.36563 
L 17.320585 -51.78902 
L 17.29383 -52.21241 
L 17.222375 -52.6358 
L 17.123623 -53.05919 
L 17.018798 -53.482581 
L 16.931007 -53.905971 
L 16.882795 -54.329361 
L 16.893436 -54.752751 
L 16.976387 -55.176141 
L 17.137377 -55.599531 
L 17.373549 -56.022922 
L 17.673894 -56.446312 
L 18.020934 -56.869702 
L 18.393338 -57.293092 
L 18.768952 -57.716482 
L 19.12765 -58.139872 
L 19.45352 -58.563263 
L 19.736082 -58.986653 
L 21.478508 -58.986653 
L 21.478508 -58.986653 
L 21.761071 -58.563263 
L 22.086941 -58.139872 
L 22.445639 -57.716482 
L 22.821253 -57.293092 
L 23.193657 -56.869702 
L 23.540697 -56.446312 
L 23.841042 -56.022922 
L 24.077214 -55.599531 
L 24.238204 -55.176141 
L 24.321155 -54.752751 
L 24.331795 -54.329361 
L 24.283583 -53.905971 
L 24.195793 -53.482581 
L 24.090968 -53.05919 
L 23.992216 -52.6358 
L 23.920761 -52.21241 
L 23.894006 -51.78902 
L 23.924221 -51.36563 
L 24.017837 -50.94224 
L 24.175277 -50.51885 
L 24.391274 -50.095459 
L 24.65565 -49.672069 
L 24.954555 -49.248679 
L 25.272124 -48.825289 
L 25.59249 -48.401899 
L 25.901928 -47.978509 
L 26.190872 -47.555118 
L 26.455456 -47.131728 
L 26.698237 -46.708338 
L 26.927864 -46.284948 
L 27.157597 -45.861558 
L 27.402773 -45.438168 
L 27.67758 -45.014777 
L 27.99163 -44.591387 
L 28.346979 -44.167997 
L 28.736209 -43.744607 
L 29.142066 -43.321217 
L 29.538864 -42.897827 
L 29.895539 -42.474437 
L 30.179855 -42.051046 
L 30.363002 -41.627656 
L 30.42369 -41.204266 
L 30.350954 -40.780876 
L 30.145153 -40.357486 
L 29.817079 -39.934096 
L 29.385518 -39.510705 
L 28.873944 -39.087315 
L 28.30714 -38.663925 
L 27.708459 -38.240535 
L 27.098148 -37.817145 
L 26.492781 -37.393755 
L 25.905542 -36.970364 
L 25.346882 -36.546974 
L 24.825097 -36.123584 
L 24.346528 -35.700194 
L 23.915337 -35.276804 
L 23.533048 -34.853414 
L 23.198181 -34.430024 
L 22.906273 -34.006633 
L 22.650464 -33.583243 
L 22.422599 -33.159853 
L 22.21461 -32.736463 
L 22.019839 -32.313073 
L 21.833982 -31.889683 
L 21.65544 -31.466292 
L 21.485055 -31.042902 
L 21.325366 -30.619512 
L 21.179628 -30.196122 
L 21.050856 -29.772732 
L 20.941124 -29.349342 
L 20.851215 -28.925951 
L 20.780632 -28.502561 
L 20.727896 -28.079171 
L 20.691007 -27.655781 
L 20.667937 -27.232391 
L 20.657073 -26.809001 
L 20.657523 -26.385611 
L 20.669265 -25.96222 
L 20.693108 -25.53883 
L 20.730469 -25.11544 
L 20.782968 -24.69205 
L 20.851876 -24.26866 
L 20.937475 -23.84527 
L 21.038437 -23.421879 
L 21.15135 -22.998489 
L 21.270549 -22.575099 
L 21.388349 -22.151709 
L 21.495736 -21.728319 
L 21.583444 -21.304929 
L 21.64325 -20.881539 
L 21.66924 -20.458148 
L 21.658772 -20.034758 
L 21.612914 -19.611368 
L 21.536269 -19.187978 
L 21.43621 -18.764588 
L 21.321713 -18.341198 
L 21.20204 -17.917807 
L 21.085534 -17.494417 
L 20.978742 -17.071027 
z
" style="stroke: #414141; stroke-width: 0.15"/>
    </defs>
    <g clip-path="url(#p8d896e32db)">
     <use xlink:href="#m2faddb10f4" x="0" y="84.96" style="fill: #abc9ea; stroke: #414141; stroke-width: 0.15"/>
    </g>
   </g>
   <g id="PolyCollection_2">
    <defs>
     <path id="m61af059527" d="M 46.093472 -16.818724 
L 44.20309 -16.818724 
L 43.919297 -17.086006 
L 43.579982 -17.353289 
L 43.183299 -17.620571 
L 42.729807 -17.887854 
L 42.22279 -18.155137 
L 41.668381 -18.422419 
L 41.07546 -18.689702 
L 40.455313 -18.956984 
L 39.821078 -19.224267 
L 39.187033 -19.49155 
L 38.567784 -19.758832 
L 37.977431 -20.026115 
L 37.428799 -20.293397 
L 36.93279 -20.56068 
L 36.497925 -20.827963 
L 36.130088 -21.095245 
L 35.832517 -21.362528 
L 35.605989 -21.62981 
L 35.449184 -21.897093 
L 35.359165 -22.164376 
L 35.331887 -22.431658 
L 35.362684 -22.698941 
L 35.44665 -22.966223 
L 35.578897 -23.233506 
L 35.754667 -23.500789 
L 35.969338 -23.768071 
L 36.218367 -24.035354 
L 36.497236 -24.302636 
L 36.801447 -24.569919 
L 37.126599 -24.837202 
L 37.468545 -25.104484 
L 37.823574 -25.371767 
L 38.188586 -25.639049 
L 38.561164 -25.906332 
L 38.939519 -26.173615 
L 39.322281 -26.440897 
L 39.708158 -26.70818 
L 40.095536 -26.975462 
L 40.4821 -27.242745 
L 40.864575 -27.510028 
L 41.238661 -27.77731 
L 41.599193 -28.044593 
L 41.940532 -28.311875 
L 42.257105 -28.579158 
L 42.544018 -28.846441 
L 42.797628 -29.113723 
L 43.015948 -29.381006 
L 43.198837 -29.648289 
L 43.347928 -29.915571 
L 43.466314 -30.182854 
L 43.558065 -30.450136 
L 43.627663 -30.717419 
L 43.67947 -30.984702 
L 43.717303 -31.251984 
L 43.744189 -31.519267 
L 43.762301 -31.786549 
L 43.773059 -32.053832 
L 43.777325 -32.321115 
L 43.775623 -32.588397 
L 43.768325 -32.85568 
L 43.75574 -33.122962 
L 43.738122 -33.390245 
L 43.715603 -33.657528 
L 43.688101 -33.92481 
L 43.655283 -34.192093 
L 43.616602 -34.459375 
L 43.571457 -34.726658 
L 43.519445 -34.993941 
L 43.460666 -35.261223 
L 43.396016 -35.528506 
L 43.327374 -35.795788 
L 43.257635 -36.063071 
L 43.190546 -36.330354 
L 43.130353 -36.597636 
L 43.081318 -36.864919 
L 43.047177 -37.132201 
L 43.030654 -37.399484 
L 43.033108 -37.666767 
L 43.054402 -37.934049 
L 43.093 -38.201332 
L 43.146286 -38.468614 
L 43.211045 -38.735897 
L 43.283992 -39.00318 
L 43.362272 -39.270462 
L 43.443827 -39.537745 
L 43.527561 -39.805027 
L 43.61331 -40.07231 
L 43.701608 -40.339593 
L 43.793337 -40.606875 
L 43.889329 -40.874158 
L 43.99 -41.14144 
L 44.095102 -41.408723 
L 44.203612 -41.676006 
L 44.313786 -41.943288 
L 44.423343 -42.210571 
L 44.529737 -42.477853 
L 44.630455 -42.745136 
L 44.723296 -43.012419 
L 44.806584 -43.279701 
L 45.489978 -43.279701 
L 45.489978 -43.279701 
L 45.573266 -43.012419 
L 45.666108 -42.745136 
L 45.766826 -42.477853 
L 45.873219 -42.210571 
L 45.982777 -41.943288 
L 46.092951 -41.676006 
L 46.20146 -41.408723 
L 46.306562 -41.14144 
L 46.407234 -40.874158 
L 46.503225 -40.606875 
L 46.594955 -40.339593 
L 46.683253 -40.07231 
L 46.769001 -39.805027 
L 46.852736 -39.537745 
L 46.93429 -39.270462 
L 47.012571 -39.00318 
L 47.085518 -38.735897 
L 47.150276 -38.468614 
L 47.203563 -38.201332 
L 47.24216 -37.934049 
L 47.263454 -37.666767 
L 47.265909 -37.399484 
L 47.249385 -37.132201 
L 47.215245 -36.864919 
L 47.16621 -36.597636 
L 47.106017 -36.330354 
L 47.038928 -36.063071 
L 46.969189 -35.795788 
L 46.900547 -35.528506 
L 46.835897 -35.261223 
L 46.777118 -34.993941 
L 46.725105 -34.726658 
L 46.67996 -34.459375 
L 46.64128 -34.192093 
L 46.608462 -33.92481 
L 46.58096 -33.657528 
L 46.55844 -33.390245 
L 46.540823 -33.122962 
L 46.528238 -32.85568 
L 46.520939 -32.588397 
L 46.519237 -32.321115 
L 46.523503 -32.053832 
L 46.534261 -31.786549 
L 46.552374 -31.519267 
L 46.579259 -31.251984 
L 46.617092 -30.984702 
L 46.668899 -30.717419 
L 46.738498 -30.450136 
L 46.830248 -30.182854 
L 46.948634 -29.915571 
L 47.097725 -29.648289 
L 47.280615 -29.381006 
L 47.498934 -29.113723 
L 47.752544 -28.846441 
L 48.039458 -28.579158 
L 48.35603 -28.311875 
L 48.697369 -28.044593 
L 49.057902 -27.77731 
L 49.431988 -27.510028 
L 49.814463 -27.242745 
L 50.201027 -26.975462 
L 50.588404 -26.70818 
L 50.974281 -26.440897 
L 51.357043 -26.173615 
L 51.735399 -25.906332 
L 52.107977 -25.639049 
L 52.472988 -25.371767 
L 52.828018 -25.104484 
L 53.169963 -24.837202 
L 53.495116 -24.569919 
L 53.799326 -24.302636 
L 54.078195 -24.035354 
L 54.327224 -23.768071 
L 54.541895 -23.500789 
L 54.717665 -23.233506 
L 54.849913 -22.966223 
L 54.933879 -22.698941 
L 54.964676 -22.431658 
L 54.937398 -22.164376 
L 54.847378 -21.897093 
L 54.690574 -21.62981 
L 54.464045 -21.362528 
L 54.166474 -21.095245 
L 53.798638 -20.827963 
L 53.363772 -20.56068 
L 52.867764 -20.293397 
L 52.319132 -20.026115 
L 51.728779 -19.758832 
L 51.109529 -19.49155 
L 50.475484 -19.224267 
L 49.84125 -18.956984 
L 49.221102 -18.689702 
L 48.628182 -18.422419 
L 48.073773 -18.155137 
L 47.566755 -17.887854 
L 47.113263 -17.620571 
L 46.71658 -17.353289 
L 46.377265 -17.086006 
L 46.093472 -16.818724 
z
" style="stroke: #414141; stroke-width: 0.15"/>
    </defs>
    <g clip-path="url(#p8d896e32db)">
     <use xlink:href="#m61af059527" x="0" y="84.96" style="fill: #efb792; stroke: #414141; stroke-width: 0.15"/>
    </g>
   </g>
   <g id="PolyCollection_3">
    <defs>
     <path id="mc27f824653" d="M 71.220104 -16.811445 
L 68.15843 -16.811445 
L 67.722451 -16.98346 
L 67.20993 -17.155474 
L 66.622324 -17.327488 
L 65.965845 -17.499502 
L 65.251945 -17.671517 
L 64.497356 -17.843531 
L 63.723623 -18.015545 
L 62.956077 -18.18756 
L 62.222324 -18.359574 
L 61.550345 -18.531588 
L 60.966423 -18.703602 
L 60.493102 -18.875617 
L 60.147432 -19.047631 
L 59.939713 -19.219645 
L 59.872873 -19.391659 
L 59.94257 -19.563674 
L 60.137964 -19.735688 
L 60.443055 -19.907702 
L 60.838391 -20.079716 
L 61.302911 -20.251731 
L 61.815707 -20.423745 
L 62.357491 -20.595759 
L 62.91164 -20.767774 
L 63.46475 -20.939788 
L 64.006714 -21.111802 
L 64.530394 -21.283816 
L 65.031017 -21.455831 
L 65.505421 -21.627845 
L 65.951304 -21.799859 
L 66.366571 -21.971873 
L 66.748872 -22.143888 
L 67.095358 -22.315902 
L 67.402665 -22.487916 
L 67.667087 -22.65993 
L 67.884914 -22.831945 
L 68.052853 -23.003959 
L 68.168497 -23.175973 
L 68.230779 -23.347988 
L 68.240363 -23.520002 
L 68.19993 -23.692016 
L 68.114324 -23.86403 
L 67.990537 -24.036045 
L 67.837503 -24.208059 
L 67.665715 -24.380073 
L 67.486665 -24.552087 
L 67.312163 -24.724102 
L 67.153562 -24.896116 
L 67.020987 -25.06813 
L 66.922624 -25.240145 
L 66.864159 -25.412159 
L 66.848425 -25.584173 
L 66.875298 -25.756187 
L 66.941859 -25.928202 
L 67.042805 -26.100216 
L 67.171057 -26.27223 
L 67.318501 -26.444244 
L 67.476766 -26.616259 
L 67.637975 -26.788273 
L 67.795351 -26.960287 
L 67.94366 -27.132301 
L 68.079418 -27.304316 
L 68.200877 -27.47633 
L 68.307806 -27.648344 
L 68.401113 -27.820359 
L 68.482378 -27.992373 
L 68.553367 -28.164387 
L 68.615602 -28.336401 
L 68.670046 -28.508416 
L 68.716936 -28.68043 
L 68.75578 -28.852444 
L 68.78551 -29.024458 
L 68.804744 -29.196473 
L 68.812122 -29.368487 
L 68.80664 -29.540501 
L 68.787953 -29.712515 
L 68.75658 -29.88453 
L 68.714002 -30.056544 
L 68.662633 -30.228558 
L 68.60569 -30.400573 
L 68.546965 -30.572587 
L 68.490543 -30.744601 
L 68.440506 -30.916615 
L 68.400639 -31.08863 
L 68.374177 -31.260644 
L 68.363602 -31.432658 
L 68.370511 -31.604672 
L 68.395539 -31.776687 
L 68.438355 -31.948701 
L 68.497724 -32.120715 
L 68.571607 -32.292729 
L 68.657324 -32.464744 
L 68.751741 -32.636758 
L 68.851487 -32.808772 
L 68.953166 -32.980787 
L 69.053571 -33.152801 
L 69.149864 -33.324815 
L 69.239711 -33.496829 
L 69.321375 -33.668844 
L 69.393743 -33.840858 
L 69.984791 -33.840858 
L 69.984791 -33.840858 
L 70.05716 -33.668844 
L 70.138823 -33.496829 
L 70.22867 -33.324815 
L 70.324963 -33.152801 
L 70.425368 -32.980787 
L 70.527047 -32.808772 
L 70.626793 -32.636758 
L 70.72121 -32.464744 
L 70.806927 -32.292729 
L 70.88081 -32.120715 
L 70.940179 -31.948701 
L 70.982996 -31.776687 
L 71.008023 -31.604672 
L 71.014932 -31.432658 
L 71.004358 -31.260644 
L 70.977895 -31.08863 
L 70.938028 -30.916615 
L 70.887991 -30.744601 
L 70.831569 -30.572587 
L 70.772844 -30.400573 
L 70.715901 -30.228558 
L 70.664533 -30.056544 
L 70.621954 -29.88453 
L 70.590581 -29.712515 
L 70.571894 -29.540501 
L 70.566412 -29.368487 
L 70.57379 -29.196473 
L 70.593025 -29.024458 
L 70.622754 -28.852444 
L 70.661598 -28.68043 
L 70.708488 -28.508416 
L 70.762932 -28.336401 
L 70.825167 -28.164387 
L 70.896156 -27.992373 
L 70.977421 -27.820359 
L 71.070728 -27.648344 
L 71.177657 -27.47633 
L 71.299117 -27.304316 
L 71.434874 -27.132301 
L 71.583183 -26.960287 
L 71.74056 -26.788273 
L 71.901768 -26.616259 
L 72.060034 -26.444244 
L 72.207477 -26.27223 
L 72.335729 -26.100216 
L 72.436675 -25.928202 
L 72.503237 -25.756187 
L 72.530109 -25.584173 
L 72.514375 -25.412159 
L 72.45591 -25.240145 
L 72.357547 -25.06813 
L 72.224972 -24.896116 
L 72.066371 -24.724102 
L 71.891869 -24.552087 
L 71.71282 -24.380073 
L 71.541031 -24.208059 
L 71.387997 -24.036045 
L 71.26421 -23.86403 
L 71.178604 -23.692016 
L 71.138171 -23.520002 
L 71.147755 -23.347988 
L 71.210038 -23.175973 
L 71.325682 -23.003959 
L 71.49362 -22.831945 
L 71.711447 -22.65993 
L 71.975869 -22.487916 
L 72.283176 -22.315902 
L 72.629662 -22.143888 
L 73.011963 -21.971873 
L 73.42723 -21.799859 
L 73.873113 -21.627845 
L 74.347517 -21.455831 
L 74.84814 -21.283816 
L 75.371821 -21.111802 
L 75.913784 -20.939788 
L 76.466894 -20.767774 
L 77.021043 -20.595759 
L 77.562827 -20.423745 
L 78.075623 -20.251731 
L 78.540143 -20.079716 
L 78.935479 -19.907702 
L 79.240571 -19.735688 
L 79.435965 -19.563674 
L 79.505661 -19.391659 
L 79.438822 -19.219645 
L 79.231102 -19.047631 
L 78.885432 -18.875617 
L 78.412111 -18.703602 
L 77.828189 -18.531588 
L 77.15621 -18.359574 
L 76.422457 -18.18756 
L 75.654911 -18.015545 
L 74.881178 -17.843531 
L 74.126589 -17.671517 
L 73.412689 -17.499502 
L 72.75621 -17.327488 
L 72.168604 -17.155474 
L 71.656083 -16.98346 
L 71.220104 -16.811445 
z
" style="stroke: #414141; stroke-width: 0.15"/>
    </defs>
    <g clip-path="url(#p8d896e32db)">
     <use xlink:href="#mc27f824653" x="0" y="84.96" style="fill: #7e5c60; stroke: #414141; stroke-width: 0.15"/>
    </g>
   </g>
   <g id="line2d_10">
    <path d="M 20.607295 52.089338 
L 20.607295 29.269695 
" clip-path="url(#p8d896e32db)" style="fill: none; stroke: #8c8c8c; stroke-width: 0.75; stroke-linecap: round"/>
   </g>
   <g id="line2d_11">
    <path d="M 20.607295 45.008819 
L 20.607295 37.653648 
" clip-path="url(#p8d896e32db)" style="fill: none; stroke: #8c8c8c; stroke-width: 4; stroke-linecap: round"/>
   </g>
   <g id="line2d_12">
    <path d="M 20.607295 42.757258 
" clip-path="url(#p8d896e32db)" style="fill: none; stroke: #414141; stroke-width: 1.2; stroke-linecap: round"/>
    <defs>
     <path id="med2b4fa01d" d="M 0 0.833333 
C 0.221003 0.833333 0.432983 0.745528 0.589256 0.589256 
C 0.745528 0.432983 0.833333 0.221003 0.833333 0 
C 0.833333 -0.221003 0.745528 -0.432983 0.589256 -0.589256 
C 0.432983 -0.745528 0.221003 -0.833333 0 -0.833333 
C -0.221003 -0.833333 -0.432983 -0.745528 -0.589256 -0.589256 
C -0.745528 -0.432983 -0.833333 -0.221003 -0.833333 0 
C -0.833333 0.221003 -0.745528 0.432983 -0.589256 0.589256 
C -0.432983 0.745528 -0.221003 0.833333 0 0.833333 
z
" style="stroke: #ffffff; stroke-width: 0.8"/>
    </defs>
    <g clip-path="url(#p8d896e32db)">
     <use xlink:href="#med2b4fa01d" x="20.607295" y="42.757258" style="fill: #ffffff; stroke: #ffffff; stroke-width: 0.8"/>
    </g>
   </g>
   <g id="line2d_13">
    <path d="M 45.148281 65.591781 
L 45.148281 50.937138 
" clip-path="url(#p8d896e32db)" style="fill: none; stroke: #8c8c8c; stroke-width: 0.75; stroke-linecap: round"/>
   </g>
   <g id="line2d_14">
    <path d="M 45.148281 63.376736 
L 45.148281 57.567562 
" clip-path="url(#p8d896e32db)" style="fill: none; stroke: #8c8c8c; stroke-width: 4; stroke-linecap: round"/>
   </g>
   <g id="line2d_15">
    <path d="M 45.148281 60.965685 
" clip-path="url(#p8d896e32db)" style="fill: none; stroke: #414141; stroke-width: 1.2; stroke-linecap: round"/>
    <g clip-path="url(#p8d896e32db)">
     <use xlink:href="#med2b4fa01d" x="45.148281" y="60.965685" style="fill: #ffffff; stroke: #ffffff; stroke-width: 0.8"/>
    </g>
   </g>
   <g id="line2d_16">
    <path d="M 69.689267 66.434604 
L 69.689267 52.833093 
" clip-path="url(#p8d896e32db)" style="fill: none; stroke: #8c8c8c; stroke-width: 0.75; stroke-linecap: round"/>
   </g>
   <g id="line2d_17">
    <path d="M 69.689267 65.83892 
L 69.689267 59.864454 
" clip-path="url(#p8d896e32db)" style="fill: none; stroke: #8c8c8c; stroke-width: 4; stroke-linecap: round"/>
   </g>
   <g id="line2d_18">
    <path d="M 69.689267 65.00558 
" clip-path="url(#p8d896e32db)" style="fill: none; stroke: #414141; stroke-width: 1.2; stroke-linecap: round"/>
    <g clip-path="url(#p8d896e32db)">
     <use xlink:href="#med2b4fa01d" x="69.689267" y="65.00558" style="fill: #ffffff; stroke: #ffffff; stroke-width: 0.8"/>
    </g>
   </g>
   <g id="patch_3">
    <path d="M 8.336802 74.419526 
L 8.336802 4.076256 
" style="fill: none; stroke: #777777; stroke-width: 0.5; stroke-linejoin: miter; stroke-linecap: square"/>
   </g>
   <g id="patch_4">
    <path d="M 8.336802 76.919526 
L 81.95976 76.919526 
" style="fill: none; stroke: #777777; stroke-width: 0.5; stroke-linejoin: miter; stroke-linecap: square"/>
   </g>
  </g>
 </g>
 <defs>
  <clipPath id="p8d896e32db">
   <rect x="8.336802" y="4.076256" width="73.622957" height="70.34327"/>
  </clipPath>
 </defs>
</svg>
