<?xml version="1.0" encoding="utf-8" standalone="no"?>
<!DOCTYPE svg PUBLIC "-//W3C//DTD SVG 1.1//EN"
  "http://www.w3.org/Graphics/SVG/1.1/DTD/svg11.dtd">
<svg xmlns:xlink="http://www.w3.org/1999/xlink" width="56.16pt" height="84.96pt" viewBox="0 0 56.16 84.96" xmlns="http://www.w3.org/2000/svg" version="1.1">
 <metadata>
  <rdf:RDF xmlns:dc="http://purl.org/dc/elements/1.1/" xmlns:cc="http://creativecommons.org/ns#" xmlns:rdf="http://www.w3.org/1999/02/22-rdf-syntax-ns#">
   <cc:Work>
    <dc:type rdf:resource="http://purl.org/dc/dcmitype/StillImage"/>
    <dc:date>2024-05-27T15:37:07.762898</dc:date>
    <dc:format>image/svg+xml</dc:format>
    <dc:creator>
     <cc:Agent>
      <dc:title>Matplotlib v3.8.3, https://matplotlib.org/</dc:title>
     </cc:Agent>
    </dc:creator>
   </cc:Work>
  </rdf:RDF>
 </metadata>
 <defs>
  <style type="text/css">*{stroke-linejoin: round; stroke-linecap: butt}</style>
 </defs>
 <g id="figure_1">
  <g id="patch_1">
   <path d="M 0 84.96 
L 56.16 84.96 
L 56.16 0 
L 0 0 
z
" style="fill: #ffffff"/>
  </g>
  <g id="axes_1">
   <g id="patch_2">
    <path d="M 8.336802 74.419526 
L 53.15976 74.419526 
L 53.15976 4.076256 
L 8.336802 4.076256 
z
" style="fill: #ffffff"/>
   </g>
   <g id="matplotlib.axis_1">
    <g id="xtick_1">
     <g id="text_1">
      <!-- ILC2 -->
      <g style="fill: #333333" transform="translate(15.846214 81.230229) scale(0.035 -0.035)">
       <defs>
        <path id="Helvetica-49" d="M 628 4591 
L 1256 4591 
L 1256 0 
L 628 0 
L 628 4591 
z
" transform="scale(0.015625)"/>
        <path id="Helvetica-4c" d="M 488 4591 
L 1109 4591 
L 1109 547 
L 3434 547 
L 3434 0 
L 488 0 
L 488 4591 
z
" transform="scale(0.015625)"/>
        <path id="Helvetica-43" d="M 2422 4716 
Q 3294 4716 3775 4256 
Q 4256 3797 4309 3213 
L 3703 3213 
Q 3600 3656 3292 3915 
Q 2984 4175 2428 4175 
Q 1750 4175 1333 3698 
Q 916 3222 916 2238 
Q 916 1431 1292 929 
Q 1669 428 2416 428 
Q 3103 428 3463 956 
Q 3653 1234 3747 1688 
L 4353 1688 
Q 4272 963 3816 472 
Q 3269 -119 2341 -119 
Q 1541 -119 997 366 
Q 281 1006 281 2344 
Q 281 3359 819 4009 
Q 1400 4716 2422 4716 
z
M 2297 4716 
L 2297 4716 
z
" transform="scale(0.015625)"/>
        <path id="Helvetica-32" d="M 200 0 
Q 231 578 439 1006 
Q 647 1434 1250 1784 
L 1850 2131 
Q 2253 2366 2416 2531 
Q 2672 2791 2672 3125 
Q 2672 3516 2437 3745 
Q 2203 3975 1813 3975 
Q 1234 3975 1013 3538 
Q 894 3303 881 2888 
L 309 2888 
Q 319 3472 525 3841 
Q 891 4491 1816 4491 
Q 2584 4491 2939 4075 
Q 3294 3659 3294 3150 
Q 3294 2613 2916 2231 
Q 2697 2009 2131 1694 
L 1703 1456 
Q 1397 1288 1222 1134 
Q 909 863 828 531 
L 3272 531 
L 3272 0 
L 200 0 
z
" transform="scale(0.015625)"/>
       </defs>
       <use xlink:href="#Helvetica-49"/>
       <use xlink:href="#Helvetica-4c" x="27.783203"/>
       <use xlink:href="#Helvetica-43" x="83.398438"/>
       <use xlink:href="#Helvetica-32" x="155.615234"/>
      </g>
     </g>
    </g>
    <g id="xtick_2">
     <g id="text_2">
      <!-- TH2 -->
      <g style="fill: #333333" transform="translate(38.648161 81.230229) scale(0.035 -0.035)">
       <defs>
        <path id="Helvetica-54" d="M 3828 4591 
L 3828 4044 
L 2281 4044 
L 2281 0 
L 1650 0 
L 1650 4044 
L 103 4044 
L 103 4591 
L 3828 4591 
z
" transform="scale(0.015625)"/>
        <path id="Helvetica-48" d="M 503 4591 
L 1131 4591 
L 1131 2694 
L 3519 2694 
L 3519 4591 
L 4147 4591 
L 4147 0 
L 3519 0 
L 3519 2147 
L 1131 2147 
L 1131 0 
L 503 0 
L 503 4591 
z
" transform="scale(0.015625)"/>
       </defs>
       <use xlink:href="#Helvetica-54"/>
       <use xlink:href="#Helvetica-48" x="61.083984"/>
       <use xlink:href="#Helvetica-32" x="133.300781"/>
      </g>
     </g>
    </g>
   </g>
   <g id="matplotlib.axis_2">
    <g id="ytick_1">
     <g id="line2d_1">
      <defs>
       <path id="m1a8962f52f" d="M 0 0 
L -1 0 
" style="stroke: #777777; stroke-width: 0.5"/>
      </defs>
      <g>
       <use xlink:href="#m1a8962f52f" x="8.336802" y="66.995102" style="fill: #777777; stroke: #777777; stroke-width: 0.5"/>
      </g>
     </g>
     <g id="text_3">
      <!-- 0 -->
      <g style="fill: #333333" transform="translate(4.668521 68.071117) scale(0.03 -0.03)">
       <defs>
        <path id="Helvetica-30" d="M 1731 4475 
Q 2600 4475 2988 3759 
Q 3288 3206 3288 2244 
Q 3288 1331 3016 734 
Q 2622 -122 1728 -122 
Q 922 -122 528 578 
Q 200 1163 200 2147 
Q 200 2909 397 3456 
Q 766 4475 1731 4475 
z
M 1725 391 
Q 2163 391 2422 778 
Q 2681 1166 2681 2222 
Q 2681 2984 2493 3476 
Q 2306 3969 1766 3969 
Q 1269 3969 1039 3501 
Q 809 3034 809 2125 
Q 809 1441 956 1025 
Q 1181 391 1725 391 
z
" transform="scale(0.015625)"/>
       </defs>
       <use xlink:href="#Helvetica-30"/>
      </g>
     </g>
    </g>
    <g id="ytick_2">
     <g id="line2d_2">
      <g>
       <use xlink:href="#m1a8962f52f" x="8.336802" y="54.411333" style="fill: #777777; stroke: #777777; stroke-width: 0.5"/>
      </g>
     </g>
     <g id="text_4">
      <!-- 10 -->
      <g style="fill: #333333" transform="translate(3.00024 55.487348) scale(0.03 -0.03)">
       <defs>
        <path id="Helvetica-31" d="M 613 3169 
L 613 3600 
Q 1222 3659 1462 3798 
Q 1703 3938 1822 4456 
L 2266 4456 
L 2266 0 
L 1666 0 
L 1666 3169 
L 613 3169 
z
" transform="scale(0.015625)"/>
       </defs>
       <use xlink:href="#Helvetica-31"/>
       <use xlink:href="#Helvetica-30" x="55.615234"/>
      </g>
     </g>
    </g>
    <g id="ytick_3">
     <g id="line2d_3">
      <g>
       <use xlink:href="#m1a8962f52f" x="8.336802" y="41.827563" style="fill: #777777; stroke: #777777; stroke-width: 0.5"/>
      </g>
     </g>
     <g id="text_5">
      <!-- 20 -->
      <g style="fill: #333333" transform="translate(3.00024 42.903579) scale(0.03 -0.03)">
       <use xlink:href="#Helvetica-32"/>
       <use xlink:href="#Helvetica-30" x="55.615234"/>
      </g>
     </g>
    </g>
    <g id="ytick_4">
     <g id="line2d_4">
      <g>
       <use xlink:href="#m1a8962f52f" x="8.336802" y="29.243794" style="fill: #777777; stroke: #777777; stroke-width: 0.5"/>
      </g>
     </g>
     <g id="text_6">
      <!-- 30 -->
      <g style="fill: #333333" transform="translate(3.00024 30.31981) scale(0.03 -0.03)">
       <defs>
        <path id="Helvetica-33" d="M 1663 -122 
Q 869 -122 511 314 
Q 153 750 153 1375 
L 741 1375 
Q 778 941 903 744 
Q 1122 391 1694 391 
Q 2138 391 2406 628 
Q 2675 866 2675 1241 
Q 2675 1703 2392 1887 
Q 2109 2072 1606 2072 
Q 1550 2072 1492 2070 
Q 1434 2069 1375 2066 
L 1375 2563 
Q 1463 2553 1522 2550 
Q 1581 2547 1650 2547 
Q 1966 2547 2169 2647 
Q 2525 2822 2525 3272 
Q 2525 3606 2287 3787 
Q 2050 3969 1734 3969 
Q 1172 3969 956 3594 
Q 838 3388 822 3006 
L 266 3006 
Q 266 3506 466 3856 
Q 809 4481 1675 4481 
Q 2359 4481 2734 4176 
Q 3109 3872 3109 3294 
Q 3109 2881 2888 2625 
Q 2750 2466 2531 2375 
Q 2884 2278 3082 2001 
Q 3281 1725 3281 1325 
Q 3281 684 2859 281 
Q 2438 -122 1663 -122 
z
" transform="scale(0.015625)"/>
       </defs>
       <use xlink:href="#Helvetica-33"/>
       <use xlink:href="#Helvetica-30" x="55.615234"/>
      </g>
     </g>
    </g>
    <g id="ytick_5">
     <g id="line2d_5">
      <g>
       <use xlink:href="#m1a8962f52f" x="8.336802" y="16.660025" style="fill: #777777; stroke: #777777; stroke-width: 0.5"/>
      </g>
     </g>
     <g id="text_7">
      <!-- 40 -->
      <g style="fill: #333333" transform="translate(3.00024 17.73604) scale(0.03 -0.03)">
       <defs>
        <path id="Helvetica-34" d="M 2116 1584 
L 2116 3613 
L 681 1584 
L 2116 1584 
z
M 2125 0 
L 2125 1094 
L 163 1094 
L 163 1644 
L 2213 4488 
L 2688 4488 
L 2688 1584 
L 3347 1584 
L 3347 1094 
L 2688 1094 
L 2688 0 
L 2125 0 
z
" transform="scale(0.015625)"/>
       </defs>
       <use xlink:href="#Helvetica-34"/>
       <use xlink:href="#Helvetica-30" x="55.615234"/>
      </g>
     </g>
    </g>
    <g id="ytick_6">
     <g id="line2d_6">
      <g>
       <use xlink:href="#m1a8962f52f" x="8.336802" y="4.076256" style="fill: #777777; stroke: #777777; stroke-width: 0.5"/>
      </g>
     </g>
     <g id="text_8">
      <!-- 50 -->
      <g style="fill: #333333" transform="translate(3.00024 5.152271) scale(0.03 -0.03)">
       <defs>
        <path id="Helvetica-35" d="M 791 1141 
Q 847 659 1238 475 
Q 1438 381 1700 381 
Q 2200 381 2440 700 
Q 2681 1019 2681 1406 
Q 2681 1875 2395 2131 
Q 2109 2388 1709 2388 
Q 1419 2388 1211 2275 
Q 1003 2163 856 1963 
L 369 1991 
L 709 4400 
L 3034 4400 
L 3034 3856 
L 1131 3856 
L 941 2613 
Q 1097 2731 1238 2791 
Q 1488 2894 1816 2894 
Q 2431 2894 2859 2497 
Q 3288 2100 3288 1491 
Q 3288 856 2895 371 
Q 2503 -113 1644 -113 
Q 1097 -113 676 195 
Q 256 503 206 1141 
L 791 1141 
z
" transform="scale(0.015625)"/>
       </defs>
       <use xlink:href="#Helvetica-35"/>
       <use xlink:href="#Helvetica-30" x="55.615234"/>
      </g>
     </g>
    </g>
   </g>
   <g id="PolyCollection_1">
    <defs>
     <path id="m1c661791bb" d="M 20.638307 -17.964241 
L 18.446777 -17.964241 
L 18.244827 -17.964293 
L 18.023215 -17.964345 
L 17.78358 -17.964397 
L 17.528182 -17.964449 
L 17.259814 -17.964501 
L 16.981652 -17.964553 
L 16.697091 -17.964605 
L 16.409542 -17.964657 
L 16.122244 -17.964709 
L 15.838089 -17.964761 
L 15.559496 -17.964813 
L 15.288338 -17.964865 
L 15.02595 -17.964917 
L 14.773195 -17.964969 
L 14.530601 -17.965021 
L 14.298545 -17.965073 
L 14.077452 -17.965125 
L 13.86799 -17.965177 
L 13.671219 -17.965229 
L 13.488675 -17.965281 
L 13.322366 -17.965333 
L 13.174658 -17.965385 
L 13.048073 -17.965437 
L 12.944997 -17.965489 
L 12.867335 -17.965541 
L 12.816143 -17.965593 
L 12.791287 -17.965645 
L 12.791165 -17.965697 
L 12.812541 -17.965749 
L 12.850508 -17.965801 
L 12.898615 -17.965853 
L 12.949147 -17.965905 
L 12.993559 -17.965957 
L 13.023031 -17.966009 
L 13.029095 -17.966061 
L 13.004305 -17.966113 
L 12.942876 -17.966165 
L 12.841242 -17.966217 
L 12.698484 -17.966269 
L 12.51659 -17.966321 
L 12.300501 -17.966373 
L 12.057954 -17.966425 
L 11.799103 -17.966477 
L 11.535954 -17.966529 
L 11.281653 -17.966581 
L 11.049659 -17.966633 
L 10.852886 -17.966685 
L 10.702866 -17.966737 
L 10.609 -17.966789 
L 10.57795 -17.966841 
L 10.613235 -17.966893 
L 10.71504 -17.966945 
L 10.880272 -17.966997 
L 11.102842 -17.967049 
L 11.374155 -17.967101 
L 11.683762 -17.967153 
L 12.020112 -17.967205 
L 12.371347 -17.967257 
L 12.72607 -17.967309 
L 13.074015 -17.967361 
L 13.406581 -17.967413 
L 13.717182 -17.967465 
L 14.001401 -17.967517 
L 14.256943 -17.967569 
L 14.483419 -17.967621 
L 14.681993 -17.967673 
L 14.854936 -17.967725 
L 15.005158 -17.967777 
L 15.135758 -17.967829 
L 15.24965 -17.967881 
L 15.349291 -17.967933 
L 15.43655 -17.967985 
L 15.512696 -17.968037 
L 15.578518 -17.968089 
L 15.634529 -17.968141 
L 15.681222 -17.968193 
L 15.71934 -17.968245 
L 15.75011 -17.968297 
L 15.775411 -17.968349 
L 15.797837 -17.968401 
L 15.820666 -17.968453 
L 15.847708 -17.968505 
L 15.883073 -17.968557 
L 15.930869 -17.968608 
L 15.994871 -17.96866 
L 16.078205 -17.968712 
L 16.183065 -17.968764 
L 16.310512 -17.968816 
L 16.460366 -17.968868 
L 16.6312 -17.96892 
L 16.820431 -17.968972 
L 17.024511 -17.969024 
L 17.239173 -17.969076 
L 17.459724 -17.969128 
L 17.68135 -17.96918 
L 17.899403 -17.969232 
L 18.109655 -17.969284 
L 18.308495 -17.969336 
L 18.493059 -17.969388 
L 20.592025 -17.969388 
L 20.592025 -17.969388 
L 20.776589 -17.969336 
L 20.975429 -17.969284 
L 21.185681 -17.969232 
L 21.403734 -17.96918 
L 21.62536 -17.969128 
L 21.845911 -17.969076 
L 22.060572 -17.969024 
L 22.264653 -17.968972 
L 22.453884 -17.96892 
L 22.624717 -17.968868 
L 22.774572 -17.968816 
L 22.902019 -17.968764 
L 23.006879 -17.968712 
L 23.090212 -17.96866 
L 23.154215 -17.968608 
L 23.202011 -17.968557 
L 23.237376 -17.968505 
L 23.264418 -17.968453 
L 23.287247 -17.968401 
L 23.309673 -17.968349 
L 23.334973 -17.968297 
L 23.365744 -17.968245 
L 23.403862 -17.968193 
L 23.450554 -17.968141 
L 23.506565 -17.968089 
L 23.572388 -17.968037 
L 23.648534 -17.967985 
L 23.735793 -17.967933 
L 23.835434 -17.967881 
L 23.949325 -17.967829 
L 24.079926 -17.967777 
L 24.230148 -17.967725 
L 24.403091 -17.967673 
L 24.601664 -17.967621 
L 24.828141 -17.967569 
L 25.083683 -17.967517 
L 25.367902 -17.967465 
L 25.678503 -17.967413 
L 26.011069 -17.967361 
L 26.359014 -17.967309 
L 26.713736 -17.967257 
L 27.064972 -17.967205 
L 27.401322 -17.967153 
L 27.710928 -17.967101 
L 27.982242 -17.967049 
L 28.204812 -17.966997 
L 28.370043 -17.966945 
L 28.471848 -17.966893 
L 28.507133 -17.966841 
L 28.476084 -17.966789 
L 28.382218 -17.966737 
L 28.232198 -17.966685 
L 28.035425 -17.966633 
L 27.80343 -17.966581 
L 27.549129 -17.966529 
L 27.285981 -17.966477 
L 27.02713 -17.966425 
L 26.784582 -17.966373 
L 26.568494 -17.966321 
L 26.386599 -17.966269 
L 26.243842 -17.966217 
L 26.142208 -17.966165 
L 26.080779 -17.966113 
L 26.055989 -17.966061 
L 26.062053 -17.966009 
L 26.091525 -17.965957 
L 26.135937 -17.965905 
L 26.186469 -17.965853 
L 26.234575 -17.965801 
L 26.272543 -17.965749 
L 26.293919 -17.965697 
L 26.293797 -17.965645 
L 26.268941 -17.965593 
L 26.217748 -17.965541 
L 26.140086 -17.965489 
L 26.037011 -17.965437 
L 25.910426 -17.965385 
L 25.762718 -17.965333 
L 25.596408 -17.965281 
L 25.413865 -17.965229 
L 25.217094 -17.965177 
L 25.007631 -17.965125 
L 24.786539 -17.965073 
L 24.554483 -17.965021 
L 24.311889 -17.964969 
L 24.059133 -17.964917 
L 23.796746 -17.964865 
L 23.525588 -17.964813 
L 23.246994 -17.964761 
L 22.962839 -17.964709 
L 22.675541 -17.964657 
L 22.387993 -17.964605 
L 22.103432 -17.964553 
L 21.82527 -17.964501 
L 21.556901 -17.964449 
L 21.301504 -17.964397 
L 21.061869 -17.964345 
L 20.840257 -17.964293 
L 20.638307 -17.964241 
z
" style="stroke: #717171; stroke-width: 0.15"/>
    </defs>
    <g clip-path="url(#p1e4e6b58b4)">
     <use xlink:href="#m1c661791bb" x="0" y="84.96" style="fill: #d6bba3; stroke: #717171; stroke-width: 0.15"/>
    </g>
   </g>
   <g id="PolyCollection_2">
    <defs>
     <path id="m8e62273280" d="M 42.698422 -17.960514 
L 41.209619 -17.960514 
L 41.065949 -17.961008 
L 40.911381 -17.961503 
L 40.749292 -17.961997 
L 40.583936 -17.962492 
L 40.420263 -17.962986 
L 40.263629 -17.963481 
L 40.119437 -17.963975 
L 39.992702 -17.96447 
L 39.887601 -17.964964 
L 39.807028 -17.965458 
L 39.752207 -17.965953 
L 39.722406 -17.966447 
L 39.714772 -17.966942 
L 39.724327 -17.967436 
L 39.744122 -17.967931 
L 39.76555 -17.968425 
L 39.778803 -17.96892 
L 39.773437 -17.969414 
L 39.739017 -17.969909 
L 39.665793 -17.970403 
L 39.54536 -17.970897 
L 39.371265 -17.971392 
L 39.139511 -17.971886 
L 38.848922 -17.972381 
L 38.501339 -17.972875 
L 38.10163 -17.97337 
L 37.657498 -17.973864 
L 37.179096 -17.974359 
L 36.67848 -17.974853 
L 36.168914 -17.975348 
L 35.664116 -17.975842 
L 35.177469 -17.976336 
L 34.721297 -17.976831 
L 34.306255 -17.977325 
L 33.94089 -17.97782 
L 33.631406 -17.978314 
L 33.381656 -17.978809 
L 33.193328 -17.979303 
L 33.066303 -17.979798 
L 32.999111 -17.980292 
L 32.989429 -17.980787 
L 33.034548 -17.981281 
L 33.131739 -17.981776 
L 33.27849 -17.98227 
L 33.472587 -17.982764 
L 33.712045 -17.983259 
L 33.99492 -17.983753 
L 34.319045 -17.984248 
L 34.681738 -17.984742 
L 35.079546 -17.985237 
L 35.508063 -17.985731 
L 35.961853 -17.986226 
L 36.434503 -17.98672 
L 36.918788 -17.987215 
L 37.406939 -17.987709 
L 37.890985 -17.988203 
L 38.36312 -17.988698 
L 38.816068 -17.989192 
L 39.243399 -17.989687 
L 39.639776 -17.990181 
L 40.001105 -17.990676 
L 40.324593 -17.99117 
L 40.608704 -17.991665 
L 40.853029 -17.992159 
L 41.0581 -17.992654 
L 41.225161 -17.993148 
L 41.355921 -17.993642 
L 41.452332 -17.994137 
L 41.516394 -17.994631 
L 41.550021 -17.995126 
L 41.554966 -17.99562 
L 41.532827 -17.996115 
L 41.485112 -17.996609 
L 41.413366 -17.997104 
L 41.319335 -17.997598 
L 41.205151 -17.998093 
L 41.073503 -17.998587 
L 40.927774 -17.999081 
L 40.772117 -17.999576 
L 40.611441 -18.00007 
L 40.451314 -18.000565 
L 40.297758 -18.001059 
L 40.15697 -18.001554 
L 40.034974 -18.002048 
L 39.937237 -18.002543 
L 39.868304 -18.003037 
L 39.831465 -18.003532 
L 39.828515 -18.004026 
L 39.859617 -18.00452 
L 39.923299 -18.005015 
L 40.016568 -18.005509 
L 40.135151 -18.006004 
L 40.273818 -18.006498 
L 40.42677 -18.006993 
L 40.588028 -18.007487 
L 40.751826 -18.007982 
L 40.912926 -18.008476 
L 41.066876 -18.008971 
L 41.210168 -18.009465 
L 42.697873 -18.009465 
L 42.697873 -18.009465 
L 42.841165 -18.008971 
L 42.995115 -18.008476 
L 43.156215 -18.007982 
L 43.320013 -18.007487 
L 43.481272 -18.006993 
L 43.634223 -18.006498 
L 43.772891 -18.006004 
L 43.891474 -18.005509 
L 43.984742 -18.005015 
L 44.048424 -18.00452 
L 44.079527 -18.004026 
L 44.076576 -18.003532 
L 44.039738 -18.003037 
L 43.970804 -18.002543 
L 43.873068 -18.002048 
L 43.751071 -18.001554 
L 43.610284 -18.001059 
L 43.456728 -18.000565 
L 43.2966 -18.00007 
L 43.135924 -17.999576 
L 42.980267 -17.999081 
L 42.834539 -17.998587 
L 42.702891 -17.998093 
L 42.588706 -17.997598 
L 42.494675 -17.997104 
L 42.422929 -17.996609 
L 42.375214 -17.996115 
L 42.353075 -17.99562 
L 42.358021 -17.995126 
L 42.391647 -17.994631 
L 42.45571 -17.994137 
L 42.552121 -17.993642 
L 42.682881 -17.993148 
L 42.849941 -17.992654 
L 43.055013 -17.992159 
L 43.299338 -17.991665 
L 43.583448 -17.99117 
L 43.906936 -17.990676 
L 44.268266 -17.990181 
L 44.664642 -17.989687 
L 45.091973 -17.989192 
L 45.544921 -17.988698 
L 46.017057 -17.988203 
L 46.501102 -17.987709 
L 46.989253 -17.987215 
L 47.473538 -17.98672 
L 47.946188 -17.986226 
L 48.399978 -17.985731 
L 48.828495 -17.985237 
L 49.226303 -17.984742 
L 49.588996 -17.984248 
L 49.913121 -17.983753 
L 50.195997 -17.983259 
L 50.435455 -17.982764 
L 50.629551 -17.98227 
L 50.776302 -17.981776 
L 50.873493 -17.981281 
L 50.918612 -17.980787 
L 50.908931 -17.980292 
L 50.841738 -17.979798 
L 50.714713 -17.979303 
L 50.526385 -17.978809 
L 50.276635 -17.978314 
L 49.967151 -17.97782 
L 49.601786 -17.977325 
L 49.186744 -17.976831 
L 48.730573 -17.976336 
L 48.243925 -17.975842 
L 47.739127 -17.975348 
L 47.229562 -17.974853 
L 46.728945 -17.974359 
L 46.250543 -17.973864 
L 45.806411 -17.97337 
L 45.406702 -17.972875 
L 45.05912 -17.972381 
L 44.76853 -17.971886 
L 44.536776 -17.971392 
L 44.362682 -17.970897 
L 44.242248 -17.970403 
L 44.169024 -17.969909 
L 44.134604 -17.969414 
L 44.129238 -17.96892 
L 44.142491 -17.968425 
L 44.16392 -17.967931 
L 44.183714 -17.967436 
L 44.19327 -17.966942 
L 44.185635 -17.966447 
L 44.155834 -17.965953 
L 44.101013 -17.965458 
L 44.02044 -17.964964 
L 43.915339 -17.96447 
L 43.788605 -17.963975 
L 43.644412 -17.963481 
L 43.487779 -17.962986 
L 43.324105 -17.962492 
L 43.158749 -17.961997 
L 42.99666 -17.961503 
L 42.842093 -17.961008 
L 42.698422 -17.960514 
z
" style="stroke: #717171; stroke-width: 0.15"/>
    </defs>
    <g clip-path="url(#p1e4e6b58b4)">
     <use xlink:href="#m8e62273280" x="0" y="84.96" style="fill: #f1b9e0; stroke: #717171; stroke-width: 0.15"/>
    </g>
   </g>
   <g id="line2d_7">
    <path d="M 19.542542 66.995102 
L 19.542542 66.991269 
" clip-path="url(#p1e4e6b58b4)" style="fill: none; stroke: #8c8c8c; stroke-width: 0.75; stroke-linecap: round"/>
   </g>
   <g id="line2d_8">
    <path d="M 19.542542 66.994236 
L 19.542542 66.992781 
" clip-path="url(#p1e4e6b58b4)" style="fill: none; stroke: #8c8c8c; stroke-width: 4; stroke-linecap: round"/>
   </g>
   <g id="line2d_9">
    <path d="M 19.542542 66.993237 
" clip-path="url(#p1e4e6b58b4)" style="fill: none; stroke: #717171; stroke-width: 1.2; stroke-linecap: round"/>
    <defs>
     <path id="m888344a87f" d="M 0 0.833333 
C 0.221003 0.833333 0.432983 0.745528 0.589256 0.589256 
C 0.745528 0.432983 0.833333 0.221003 0.833333 0 
C 0.833333 -0.221003 0.745528 -0.432983 0.589256 -0.589256 
C 0.432983 -0.745528 0.221003 -0.833333 0 -0.833333 
C -0.221003 -0.833333 -0.432983 -0.745528 -0.589256 -0.589256 
C -0.745528 -0.432983 -0.833333 -0.221003 -0.833333 0 
C -0.833333 0.221003 -0.745528 0.432983 -0.589256 0.589256 
C -0.432983 0.745528 -0.221003 0.833333 0 0.833333 
z
" style="stroke: #ffffff; stroke-width: 0.8"/>
    </defs>
    <g clip-path="url(#p1e4e6b58b4)">
     <use xlink:href="#m888344a87f" x="19.542542" y="66.993237" style="fill: #ffffff; stroke: #ffffff; stroke-width: 0.8"/>
    </g>
   </g>
   <g id="line2d_10">
    <path d="M 41.954021 66.983493 
L 41.954021 66.973479 
" clip-path="url(#p1e4e6b58b4)" style="fill: none; stroke: #8c8c8c; stroke-width: 0.75; stroke-linecap: round"/>
   </g>
   <g id="line2d_11">
    <path d="M 41.954021 66.981968 
L 41.954021 66.975528 
" clip-path="url(#p1e4e6b58b4)" style="fill: none; stroke: #8c8c8c; stroke-width: 4; stroke-linecap: round"/>
   </g>
   <g id="line2d_12">
    <path d="M 41.954021 66.979354 
" clip-path="url(#p1e4e6b58b4)" style="fill: none; stroke: #717171; stroke-width: 1.2; stroke-linecap: round"/>
    <g clip-path="url(#p1e4e6b58b4)">
     <use xlink:href="#m888344a87f" x="41.954021" y="66.979354" style="fill: #ffffff; stroke: #ffffff; stroke-width: 0.8"/>
    </g>
   </g>
   <g id="patch_3">
    <path d="M 8.336802 74.419526 
L 8.336802 4.076256 
" style="fill: none; stroke: #777777; stroke-width: 0.5; stroke-linejoin: miter; stroke-linecap: square"/>
   </g>
   <g id="patch_4">
    <path d="M 8.336802 76.919526 
L 53.15976 76.919526 
" style="fill: none; stroke: #777777; stroke-width: 0.5; stroke-linejoin: miter; stroke-linecap: square"/>
   </g>
  </g>
 </g>
 <defs>
  <clipPath id="p1e4e6b58b4">
   <rect x="8.336802" y="4.076256" width="44.822958" height="70.34327"/>
  </clipPath>
 </defs>
</svg>
