<?xml version="1.0" encoding="utf-8" standalone="no"?>
<!DOCTYPE svg PUBLIC "-//W3C//DTD SVG 1.1//EN"
  "http://www.w3.org/Graphics/SVG/1.1/DTD/svg11.dtd">
<svg xmlns:xlink="http://www.w3.org/1999/xlink" width="84.96pt" height="84.96pt" viewBox="0 0 84.96 84.96" xmlns="http://www.w3.org/2000/svg" version="1.1">
 <metadata>
  <rdf:RDF xmlns:dc="http://purl.org/dc/elements/1.1/" xmlns:cc="http://creativecommons.org/ns#" xmlns:rdf="http://www.w3.org/1999/02/22-rdf-syntax-ns#">
   <cc:Work>
    <dc:type rdf:resource="http://purl.org/dc/dcmitype/StillImage"/>
    <dc:date>2024-05-27T15:37:06.909844</dc:date>
    <dc:format>image/svg+xml</dc:format>
    <dc:creator>
     <cc:Agent>
      <dc:title>Matplotlib v3.8.3, https://matplotlib.org/</dc:title>
     </cc:Agent>
    </dc:creator>
   </cc:Work>
  </rdf:RDF>
 </metadata>
 <defs>
  <style type="text/css">*{stroke-linejoin: round; stroke-linecap: butt}</style>
 </defs>
 <g id="figure_1">
  <g id="patch_1">
   <path d="M 0 84.96 
L 84.96 84.96 
L 84.96 0 
L 0 0 
z
" style="fill: #ffffff"/>
  </g>
  <g id="axes_1">
   <g id="patch_2">
    <path d="M 8.336802 74.419526 
L 81.95976 74.419526 
L 81.95976 4.076256 
L 8.336802 4.076256 
z
" style="fill: #ffffff"/>
   </g>
   <g id="matplotlib.axis_1">
    <g id="xtick_1">
     <g id="text_1">
      <!-- NK/ILC1ie -->
      <g style="fill: #333333" transform="translate(12.63167 81.230229) scale(0.035 -0.035)">
       <defs>
        <path id="Helvetica-4e" d="M 488 4591 
L 1222 4591 
L 3541 872 
L 3541 4591 
L 4131 4591 
L 4131 0 
L 3434 0 
L 1081 3716 
L 1081 0 
L 488 0 
L 488 4591 
z
M 2269 4591 
L 2269 4591 
z
" transform="scale(0.015625)"/>
        <path id="Helvetica-4b" d="M 488 4591 
L 1094 4591 
L 1094 2353 
L 3331 4591 
L 4191 4591 
L 2281 2741 
L 4244 0 
L 3434 0 
L 1828 2303 
L 1094 1600 
L 1094 0 
L 488 0 
L 488 4591 
z
" transform="scale(0.015625)"/>
        <path id="Helvetica-2f" d="M 1456 4591 
L 1931 4591 
L 475 0 
L 0 0 
L 1456 4591 
z
" transform="scale(0.015625)"/>
        <path id="Helvetica-49" d="M 628 4591 
L 1256 4591 
L 1256 0 
L 628 0 
L 628 4591 
z
" transform="scale(0.015625)"/>
        <path id="Helvetica-4c" d="M 488 4591 
L 1109 4591 
L 1109 547 
L 3434 547 
L 3434 0 
L 488 0 
L 488 4591 
z
" transform="scale(0.015625)"/>
        <path id="Helvetica-43" d="M 2422 4716 
Q 3294 4716 3775 4256 
Q 4256 3797 4309 3213 
L 3703 3213 
Q 3600 3656 3292 3915 
Q 2984 4175 2428 4175 
Q 1750 4175 1333 3698 
Q 916 3222 916 2238 
Q 916 1431 1292 929 
Q 1669 428 2416 428 
Q 3103 428 3463 956 
Q 3653 1234 3747 1688 
L 4353 1688 
Q 4272 963 3816 472 
Q 3269 -119 2341 -119 
Q 1541 -119 997 366 
Q 281 1006 281 2344 
Q 281 3359 819 4009 
Q 1400 4716 2422 4716 
z
M 2297 4716 
L 2297 4716 
z
" transform="scale(0.015625)"/>
        <path id="Helvetica-31" d="M 613 3169 
L 613 3600 
Q 1222 3659 1462 3798 
Q 1703 3938 1822 4456 
L 2266 4456 
L 2266 0 
L 1666 0 
L 1666 3169 
L 613 3169 
z
" transform="scale(0.015625)"/>
        <path id="Helvetica-69" d="M 413 3331 
L 984 3331 
L 984 0 
L 413 0 
L 413 3331 
z
M 413 4591 
L 984 4591 
L 984 3953 
L 413 3953 
L 413 4591 
z
" transform="scale(0.015625)"/>
        <path id="Helvetica-65" d="M 1806 3422 
Q 2163 3422 2497 3255 
Q 2831 3088 3006 2822 
Q 3175 2569 3231 2231 
Q 3281 2000 3281 1494 
L 828 1494 
Q 844 984 1069 676 
Q 1294 369 1766 369 
Q 2206 369 2469 659 
Q 2619 828 2681 1050 
L 3234 1050 
Q 3213 866 3089 639 
Q 2966 413 2813 269 
Q 2556 19 2178 -69 
Q 1975 -119 1719 -119 
Q 1094 -119 659 336 
Q 225 791 225 1609 
Q 225 2416 662 2919 
Q 1100 3422 1806 3422 
z
M 2703 1941 
Q 2669 2306 2544 2525 
Q 2313 2931 1772 2931 
Q 1384 2931 1121 2651 
Q 859 2372 844 1941 
L 2703 1941 
z
M 1753 3428 
L 1753 3428 
z
" transform="scale(0.015625)"/>
       </defs>
       <use xlink:href="#Helvetica-4e"/>
       <use xlink:href="#Helvetica-4b" x="72.216797"/>
       <use xlink:href="#Helvetica-2f" x="138.916016"/>
       <use xlink:href="#Helvetica-49" x="166.699219"/>
       <use xlink:href="#Helvetica-4c" x="194.482422"/>
       <use xlink:href="#Helvetica-43" x="250.097656"/>
       <use xlink:href="#Helvetica-31" x="322.314453"/>
       <use xlink:href="#Helvetica-69" x="377.929688"/>
       <use xlink:href="#Helvetica-65" x="400.146484"/>
      </g>
     </g>
    </g>
    <g id="xtick_2">
     <g id="text_2">
      <!-- ILC1 -->
      <g style="fill: #333333" transform="translate(41.451953 81.230229) scale(0.035 -0.035)">
       <use xlink:href="#Helvetica-49"/>
       <use xlink:href="#Helvetica-4c" x="27.783203"/>
       <use xlink:href="#Helvetica-43" x="83.398438"/>
       <use xlink:href="#Helvetica-31" x="155.615234"/>
      </g>
     </g>
    </g>
    <g id="xtick_3">
     <g id="text_3">
      <!-- TH1 -->
      <g style="fill: #333333" transform="translate(66.383408 81.230229) scale(0.035 -0.035)">
       <defs>
        <path id="Helvetica-54" d="M 3828 4591 
L 3828 4044 
L 2281 4044 
L 2281 0 
L 1650 0 
L 1650 4044 
L 103 4044 
L 103 4591 
L 3828 4591 
z
" transform="scale(0.015625)"/>
        <path id="Helvetica-48" d="M 503 4591 
L 1131 4591 
L 1131 2694 
L 3519 2694 
L 3519 4591 
L 4147 4591 
L 4147 0 
L 3519 0 
L 3519 2147 
L 1131 2147 
L 1131 0 
L 503 0 
L 503 4591 
z
" transform="scale(0.015625)"/>
       </defs>
       <use xlink:href="#Helvetica-54"/>
       <use xlink:href="#Helvetica-48" x="61.083984"/>
       <use xlink:href="#Helvetica-31" x="133.300781"/>
      </g>
     </g>
    </g>
   </g>
   <g id="matplotlib.axis_2">
    <g id="ytick_1">
     <g id="line2d_1">
      <defs>
       <path id="ma2d4c9033a" d="M 0 0 
L -1 0 
" style="stroke: #777777; stroke-width: 0.5"/>
      </defs>
      <g>
       <use xlink:href="#ma2d4c9033a" x="8.336802" y="66.995102" style="fill: #777777; stroke: #777777; stroke-width: 0.5"/>
      </g>
     </g>
     <g id="text_4">
      <!-- 0 -->
      <g style="fill: #333333" transform="translate(4.668521 68.071117) scale(0.03 -0.03)">
       <defs>
        <path id="Helvetica-30" d="M 1731 4475 
Q 2600 4475 2988 3759 
Q 3288 3206 3288 2244 
Q 3288 1331 3016 734 
Q 2622 -122 1728 -122 
Q 922 -122 528 578 
Q 200 1163 200 2147 
Q 200 2909 397 3456 
Q 766 4475 1731 4475 
z
M 1725 391 
Q 2163 391 2422 778 
Q 2681 1166 2681 2222 
Q 2681 2984 2493 3476 
Q 2306 3969 1766 3969 
Q 1269 3969 1039 3501 
Q 809 3034 809 2125 
Q 809 1441 956 1025 
Q 1181 391 1725 391 
z
" transform="scale(0.015625)"/>
       </defs>
       <use xlink:href="#Helvetica-30"/>
      </g>
     </g>
    </g>
    <g id="ytick_2">
     <g id="line2d_2">
      <g>
       <use xlink:href="#ma2d4c9033a" x="8.336802" y="54.411333" style="fill: #777777; stroke: #777777; stroke-width: 0.5"/>
      </g>
     </g>
     <g id="text_5">
      <!-- 10 -->
      <g style="fill: #333333" transform="translate(3.00024 55.487348) scale(0.03 -0.03)">
       <use xlink:href="#Helvetica-31"/>
       <use xlink:href="#Helvetica-30" x="55.615234"/>
      </g>
     </g>
    </g>
    <g id="ytick_3">
     <g id="line2d_3">
      <g>
       <use xlink:href="#ma2d4c9033a" x="8.336802" y="41.827563" style="fill: #777777; stroke: #777777; stroke-width: 0.5"/>
      </g>
     </g>
     <g id="text_6">
      <!-- 20 -->
      <g style="fill: #333333" transform="translate(3.00024 42.903579) scale(0.03 -0.03)">
       <defs>
        <path id="Helvetica-32" d="M 200 0 
Q 231 578 439 1006 
Q 647 1434 1250 1784 
L 1850 2131 
Q 2253 2366 2416 2531 
Q 2672 2791 2672 3125 
Q 2672 3516 2437 3745 
Q 2203 3975 1813 3975 
Q 1234 3975 1013 3538 
Q 894 3303 881 2888 
L 309 2888 
Q 319 3472 525 3841 
Q 891 4491 1816 4491 
Q 2584 4491 2939 4075 
Q 3294 3659 3294 3150 
Q 3294 2613 2916 2231 
Q 2697 2009 2131 1694 
L 1703 1456 
Q 1397 1288 1222 1134 
Q 909 863 828 531 
L 3272 531 
L 3272 0 
L 200 0 
z
" transform="scale(0.015625)"/>
       </defs>
       <use xlink:href="#Helvetica-32"/>
       <use xlink:href="#Helvetica-30" x="55.615234"/>
      </g>
     </g>
    </g>
    <g id="ytick_4">
     <g id="line2d_4">
      <g>
       <use xlink:href="#ma2d4c9033a" x="8.336802" y="29.243794" style="fill: #777777; stroke: #777777; stroke-width: 0.5"/>
      </g>
     </g>
     <g id="text_7">
      <!-- 30 -->
      <g style="fill: #333333" transform="translate(3.00024 30.31981) scale(0.03 -0.03)">
       <defs>
        <path id="Helvetica-33" d="M 1663 -122 
Q 869 -122 511 314 
Q 153 750 153 1375 
L 741 1375 
Q 778 941 903 744 
Q 1122 391 1694 391 
Q 2138 391 2406 628 
Q 2675 866 2675 1241 
Q 2675 1703 2392 1887 
Q 2109 2072 1606 2072 
Q 1550 2072 1492 2070 
Q 1434 2069 1375 2066 
L 1375 2563 
Q 1463 2553 1522 2550 
Q 1581 2547 1650 2547 
Q 1966 2547 2169 2647 
Q 2525 2822 2525 3272 
Q 2525 3606 2287 3787 
Q 2050 3969 1734 3969 
Q 1172 3969 956 3594 
Q 838 3388 822 3006 
L 266 3006 
Q 266 3506 466 3856 
Q 809 4481 1675 4481 
Q 2359 4481 2734 4176 
Q 3109 3872 3109 3294 
Q 3109 2881 2888 2625 
Q 2750 2466 2531 2375 
Q 2884 2278 3082 2001 
Q 3281 1725 3281 1325 
Q 3281 684 2859 281 
Q 2438 -122 1663 -122 
z
" transform="scale(0.015625)"/>
       </defs>
       <use xlink:href="#Helvetica-33"/>
       <use xlink:href="#Helvetica-30" x="55.615234"/>
      </g>
     </g>
    </g>
    <g id="ytick_5">
     <g id="line2d_5">
      <g>
       <use xlink:href="#ma2d4c9033a" x="8.336802" y="16.660025" style="fill: #777777; stroke: #777777; stroke-width: 0.5"/>
      </g>
     </g>
     <g id="text_8">
      <!-- 40 -->
      <g style="fill: #333333" transform="translate(3.00024 17.73604) scale(0.03 -0.03)">
       <defs>
        <path id="Helvetica-34" d="M 2116 1584 
L 2116 3613 
L 681 1584 
L 2116 1584 
z
M 2125 0 
L 2125 1094 
L 163 1094 
L 163 1644 
L 2213 4488 
L 2688 4488 
L 2688 1584 
L 3347 1584 
L 3347 1094 
L 2688 1094 
L 2688 0 
L 2125 0 
z
" transform="scale(0.015625)"/>
       </defs>
       <use xlink:href="#Helvetica-34"/>
       <use xlink:href="#Helvetica-30" x="55.615234"/>
      </g>
     </g>
    </g>
    <g id="ytick_6">
     <g id="line2d_6">
      <g>
       <use xlink:href="#ma2d4c9033a" x="8.336802" y="4.076256" style="fill: #777777; stroke: #777777; stroke-width: 0.5"/>
      </g>
     </g>
     <g id="text_9">
      <!-- 50 -->
      <g style="fill: #333333" transform="translate(3.00024 5.152271) scale(0.03 -0.03)">
       <defs>
        <path id="Helvetica-35" d="M 791 1141 
Q 847 659 1238 475 
Q 1438 381 1700 381 
Q 2200 381 2440 700 
Q 2681 1019 2681 1406 
Q 2681 1875 2395 2131 
Q 2109 2388 1709 2388 
Q 1419 2388 1211 2275 
Q 1003 2163 856 1963 
L 369 1991 
L 709 4400 
L 3034 4400 
L 3034 3856 
L 1131 3856 
L 941 2613 
Q 1097 2731 1238 2791 
Q 1488 2894 1816 2894 
Q 2431 2894 2859 2497 
Q 3288 2100 3288 1491 
Q 3288 856 2895 371 
Q 2503 -113 1644 -113 
Q 1097 -113 676 195 
Q 256 503 206 1141 
L 791 1141 
z
" transform="scale(0.015625)"/>
       </defs>
       <use xlink:href="#Helvetica-35"/>
       <use xlink:href="#Helvetica-30" x="55.615234"/>
      </g>
     </g>
    </g>
   </g>
   <g id="PolyCollection_1">
    <defs>
     <path id="m900f9d5e1f" d="M 21.981451 -17.942828 
L 19.23314 -17.942828 
L 18.988668 -17.944359 
L 18.716637 -17.945889 
L 18.417061 -17.947419 
L 18.090547 -17.948949 
L 17.738334 -17.950479 
L 17.362309 -17.95201 
L 16.964995 -17.95354 
L 16.54952 -17.95507 
L 16.119554 -17.9566 
L 15.679232 -17.95813 
L 15.233056 -17.95966 
L 14.785786 -17.961191 
L 14.342324 -17.962721 
L 13.907596 -17.964251 
L 13.486442 -17.965781 
L 13.08351 -17.967311 
L 12.703166 -17.968842 
L 12.349421 -17.970372 
L 12.025865 -17.971902 
L 11.735625 -17.973432 
L 11.481328 -17.974962 
L 11.265082 -17.976492 
L 11.088464 -17.978023 
L 10.952509 -17.979553 
L 10.857713 -17.981083 
L 10.804033 -17.982613 
L 10.790901 -17.984143 
L 10.817228 -17.985674 
L 10.88143 -17.987204 
L 10.981447 -17.988734 
L 11.114783 -17.990264 
L 11.278544 -17.991794 
L 11.469489 -17.993324 
L 11.684094 -17.994855 
L 11.918617 -17.996385 
L 12.16917 -17.997915 
L 12.431802 -17.999445 
L 12.702579 -18.000975 
L 12.977662 -18.002506 
L 13.253397 -18.004036 
L 13.526385 -18.005566 
L 13.793564 -18.007096 
L 14.052275 -18.008626 
L 14.300322 -18.010156 
L 14.536025 -18.011687 
L 14.75825 -18.013217 
L 14.96643 -18.014747 
L 15.160562 -18.016277 
L 15.341174 -18.017807 
L 15.509274 -18.019337 
L 15.666264 -18.020868 
L 15.813829 -18.022398 
L 15.953803 -18.023928 
L 16.088018 -18.025458 
L 16.21814 -18.026988 
L 16.345505 -18.028519 
L 16.470965 -18.030049 
L 16.594764 -18.031579 
L 16.716433 -18.033109 
L 16.834746 -18.034639 
L 16.947709 -18.036169 
L 17.052624 -18.0377 
L 17.14619 -18.03923 
L 17.224674 -18.04076 
L 17.284119 -18.04229 
L 17.320592 -18.04382 
L 17.330453 -18.045351 
L 17.310632 -18.046881 
L 17.258897 -18.048411 
L 17.174093 -18.049941 
L 17.056334 -18.051471 
L 16.907143 -18.053001 
L 16.729516 -18.054532 
L 16.527906 -18.056062 
L 16.308128 -18.057592 
L 16.077182 -18.059122 
L 15.842999 -18.060652 
L 15.614129 -18.062183 
L 15.399376 -18.063713 
L 15.207412 -18.065243 
L 15.046384 -18.066773 
L 14.923536 -18.068303 
L 14.844881 -18.069833 
L 14.81492 -18.071364 
L 14.836455 -18.072894 
L 14.910476 -18.074424 
L 15.036148 -18.075954 
L 15.210892 -18.077484 
L 15.430553 -18.079015 
L 15.68963 -18.080545 
L 15.981578 -18.082075 
L 16.299135 -18.083605 
L 16.634664 -18.085135 
L 16.980496 -18.086665 
L 17.329239 -18.088196 
L 17.674051 -18.089726 
L 18.008857 -18.091256 
L 18.328508 -18.092786 
L 18.628875 -18.094316 
L 22.585716 -18.094316 
L 22.585716 -18.094316 
L 22.886083 -18.092786 
L 23.205734 -18.091256 
L 23.54054 -18.089726 
L 23.885352 -18.088196 
L 24.234095 -18.086665 
L 24.579927 -18.085135 
L 24.915456 -18.083605 
L 25.233013 -18.082075 
L 25.524961 -18.080545 
L 25.784038 -18.079015 
L 26.003698 -18.077484 
L 26.178443 -18.075954 
L 26.304115 -18.074424 
L 26.378136 -18.072894 
L 26.399671 -18.071364 
L 26.36971 -18.069833 
L 26.291055 -18.068303 
L 26.168207 -18.066773 
L 26.007179 -18.065243 
L 25.815215 -18.063713 
L 25.600462 -18.062183 
L 25.371592 -18.060652 
L 25.137409 -18.059122 
L 24.906463 -18.057592 
L 24.686685 -18.056062 
L 24.485075 -18.054532 
L 24.307448 -18.053001 
L 24.158257 -18.051471 
L 24.040498 -18.049941 
L 23.955694 -18.048411 
L 23.903959 -18.046881 
L 23.884138 -18.045351 
L 23.893999 -18.04382 
L 23.930472 -18.04229 
L 23.989917 -18.04076 
L 24.068401 -18.03923 
L 24.161967 -18.0377 
L 24.266882 -18.036169 
L 24.379845 -18.034639 
L 24.498157 -18.033109 
L 24.619827 -18.031579 
L 24.743626 -18.030049 
L 24.869086 -18.028519 
L 24.996451 -18.026988 
L 25.126572 -18.025458 
L 25.260788 -18.023928 
L 25.400762 -18.022398 
L 25.548327 -18.020868 
L 25.705317 -18.019337 
L 25.873417 -18.017807 
L 26.054029 -18.016277 
L 26.248161 -18.014747 
L 26.456341 -18.013217 
L 26.678566 -18.011687 
L 26.914268 -18.010156 
L 27.162316 -18.008626 
L 27.421027 -18.007096 
L 27.688206 -18.005566 
L 27.961194 -18.004036 
L 28.236928 -18.002506 
L 28.512012 -18.000975 
L 28.782788 -17.999445 
L 29.045421 -17.997915 
L 29.295974 -17.996385 
L 29.530497 -17.994855 
L 29.745102 -17.993324 
L 29.936047 -17.991794 
L 30.099808 -17.990264 
L 30.233144 -17.988734 
L 30.333161 -17.987204 
L 30.397363 -17.985674 
L 30.42369 -17.984143 
L 30.410557 -17.982613 
L 30.356878 -17.981083 
L 30.262082 -17.979553 
L 30.126127 -17.978023 
L 29.949509 -17.976492 
L 29.733263 -17.974962 
L 29.478966 -17.973432 
L 29.188726 -17.971902 
L 28.86517 -17.970372 
L 28.511425 -17.968842 
L 28.131081 -17.967311 
L 27.728149 -17.965781 
L 27.306995 -17.964251 
L 26.872267 -17.962721 
L 26.428805 -17.961191 
L 25.981535 -17.95966 
L 25.535359 -17.95813 
L 25.095037 -17.9566 
L 24.665071 -17.95507 
L 24.249595 -17.95354 
L 23.852282 -17.95201 
L 23.476257 -17.950479 
L 23.124044 -17.948949 
L 22.79753 -17.947419 
L 22.497953 -17.945889 
L 22.225923 -17.944359 
L 21.981451 -17.942828 
z
" style="stroke: #6f6f6f; stroke-width: 0.15"/>
    </defs>
    <g clip-path="url(#p73ffe6c83e)">
     <use xlink:href="#m900f9d5e1f" x="0" y="84.96" style="fill: #98daa7; stroke: #6f6f6f; stroke-width: 0.15"/>
    </g>
   </g>
   <g id="PolyCollection_2">
    <defs>
     <path id="mba98906339" d="M 46.943733 -16.881166 
L 43.35283 -16.881166 
L 42.981449 -16.967089 
L 42.562793 -17.053012 
L 42.097927 -17.138934 
L 41.589721 -17.224857 
L 41.043015 -17.31078 
L 40.464691 -17.396703 
L 39.863641 -17.482625 
L 39.250616 -17.568548 
L 38.637946 -17.654471 
L 38.039156 -17.740393 
L 37.468469 -17.826316 
L 36.940239 -17.912239 
L 36.468339 -17.998161 
L 36.065544 -18.084084 
L 35.742942 -18.170007 
L 35.509423 -18.25593 
L 35.371271 -18.341852 
L 35.331887 -18.427775 
L 35.391663 -18.513698 
L 35.548009 -18.59962 
L 35.795526 -18.685543 
L 36.126317 -18.771466 
L 36.530403 -18.857389 
L 36.996219 -18.943311 
L 37.511147 -19.029234 
L 38.062071 -19.115157 
L 38.635899 -19.201079 
L 39.22004 -19.287002 
L 39.802816 -19.372925 
L 40.373782 -19.458847 
L 40.923959 -19.54477 
L 41.445977 -19.630693 
L 41.934126 -19.716616 
L 42.384333 -19.802538 
L 42.794075 -19.888461 
L 43.162237 -19.974384 
L 43.488937 -20.060306 
L 43.775326 -20.146229 
L 44.023383 -20.232152 
L 44.235706 -20.318074 
L 44.41532 -20.403997 
L 44.565499 -20.48992 
L 44.689612 -20.575843 
L 44.790994 -20.661765 
L 44.872847 -20.747688 
L 44.93816 -20.833611 
L 44.989659 -20.919533 
L 45.029776 -21.005456 
L 45.060636 -21.091379 
L 45.084057 -21.177301 
L 45.101564 -21.263224 
L 45.114406 -21.349147 
L 45.123583 -21.43507 
L 45.129864 -21.520992 
L 45.133817 -21.606915 
L 45.135827 -21.692838 
L 45.136114 -21.77876 
L 45.134749 -21.864683 
L 45.131662 -21.950606 
L 45.126651 -22.036528 
L 45.119389 -22.122451 
L 45.109429 -22.208374 
L 45.096207 -22.294297 
L 45.079063 -22.380219 
L 45.05725 -22.466142 
L 45.029962 -22.552065 
L 44.996373 -22.637987 
L 44.955675 -22.72391 
L 44.907142 -22.809833 
L 44.850185 -22.895755 
L 44.784432 -22.981678 
L 44.709791 -23.067601 
L 44.626524 -23.153524 
L 44.5353 -23.239446 
L 44.43724 -23.325369 
L 44.33393 -23.411292 
L 44.227413 -23.497214 
L 44.120142 -23.583137 
L 44.014902 -23.66906 
L 43.914702 -23.754982 
L 43.822635 -23.840905 
L 43.741725 -23.926828 
L 43.674764 -24.012751 
L 43.624151 -24.098673 
L 43.591751 -24.184596 
L 43.578779 -24.270519 
L 43.585727 -24.356441 
L 43.612332 -24.442364 
L 43.657591 -24.528287 
L 43.719826 -24.614209 
L 43.796785 -24.700132 
L 43.885781 -24.786055 
L 43.983841 -24.871978 
L 44.087877 -24.9579 
L 44.194839 -25.043823 
L 44.301861 -25.129746 
L 44.406379 -25.215668 
L 44.506221 -25.301591 
L 44.599659 -25.387514 
L 45.696904 -25.387514 
L 45.696904 -25.387514 
L 45.790341 -25.301591 
L 45.890183 -25.215668 
L 45.994701 -25.129746 
L 46.101723 -25.043823 
L 46.208685 -24.9579 
L 46.312721 -24.871978 
L 46.410782 -24.786055 
L 46.499777 -24.700132 
L 46.576737 -24.614209 
L 46.638972 -24.528287 
L 46.684231 -24.442364 
L 46.710835 -24.356441 
L 46.717784 -24.270519 
L 46.704812 -24.184596 
L 46.672411 -24.098673 
L 46.621798 -24.012751 
L 46.554837 -23.926828 
L 46.473928 -23.840905 
L 46.38186 -23.754982 
L 46.28166 -23.66906 
L 46.17642 -23.583137 
L 46.069149 -23.497214 
L 45.962633 -23.411292 
L 45.859323 -23.325369 
L 45.761263 -23.239446 
L 45.670039 -23.153524 
L 45.586771 -23.067601 
L 45.51213 -22.981678 
L 45.446377 -22.895755 
L 45.389421 -22.809833 
L 45.340887 -22.72391 
L 45.30019 -22.637987 
L 45.2666 -22.552065 
L 45.239313 -22.466142 
L 45.2175 -22.380219 
L 45.200355 -22.294297 
L 45.187134 -22.208374 
L 45.177173 -22.122451 
L 45.169911 -22.036528 
L 45.164901 -21.950606 
L 45.161814 -21.864683 
L 45.160449 -21.77876 
L 45.160736 -21.692838 
L 45.162746 -21.606915 
L 45.166699 -21.520992 
L 45.17298 -21.43507 
L 45.182156 -21.349147 
L 45.194999 -21.263224 
L 45.212505 -21.177301 
L 45.235926 -21.091379 
L 45.266786 -21.005456 
L 45.306903 -20.919533 
L 45.358402 -20.833611 
L 45.423715 -20.747688 
L 45.505568 -20.661765 
L 45.606951 -20.575843 
L 45.731063 -20.48992 
L 45.881242 -20.403997 
L 46.060857 -20.318074 
L 46.27318 -20.232152 
L 46.521236 -20.146229 
L 46.807626 -20.060306 
L 47.134325 -19.974384 
L 47.502487 -19.888461 
L 47.912229 -19.802538 
L 48.362436 -19.716616 
L 48.850585 -19.630693 
L 49.372603 -19.54477 
L 49.922781 -19.458847 
L 50.493746 -19.372925 
L 51.076522 -19.287002 
L 51.660664 -19.201079 
L 52.234491 -19.115157 
L 52.785415 -19.029234 
L 53.300344 -18.943311 
L 53.766159 -18.857389 
L 54.170246 -18.771466 
L 54.501037 -18.685543 
L 54.748554 -18.59962 
L 54.904899 -18.513698 
L 54.964676 -18.427775 
L 54.925292 -18.341852 
L 54.78714 -18.25593 
L 54.553621 -18.170007 
L 54.231018 -18.084084 
L 53.828223 -17.998161 
L 53.356324 -17.912239 
L 52.828093 -17.826316 
L 52.257406 -17.740393 
L 51.658616 -17.654471 
L 51.045947 -17.568548 
L 50.432921 -17.482625 
L 49.831872 -17.396703 
L 49.253548 -17.31078 
L 48.706841 -17.224857 
L 48.198635 -17.138934 
L 47.733769 -17.053012 
L 47.315114 -16.967089 
L 46.943733 -16.881166 
z
" style="stroke: #6f6f6f; stroke-width: 0.15"/>
    </defs>
    <g clip-path="url(#p73ffe6c83e)">
     <use xlink:href="#mba98906339" x="0" y="84.96" style="fill: #f2aba8; stroke: #6f6f6f; stroke-width: 0.15"/>
    </g>
   </g>
   <g id="PolyCollection_3">
    <defs>
     <path id="mfa7059e73d" d="M 72.515829 -17.451536 
L 66.862706 -17.451536 
L 66.368916 -17.490148 
L 65.833108 -17.528759 
L 65.261502 -17.567371 
L 64.662504 -17.605982 
L 64.046591 -17.644594 
L 63.426055 -17.683205 
L 62.814604 -17.721817 
L 62.226828 -17.760428 
L 61.67756 -17.79904 
L 61.181158 -17.837651 
L 60.750775 -17.876263 
L 60.397643 -17.914874 
L 60.130436 -17.953486 
L 59.954772 -17.992098 
L 59.872873 -18.030709 
L 59.883423 -18.069321 
L 59.981647 -18.107932 
L 60.159579 -18.146544 
L 60.406534 -18.185155 
L 60.709709 -18.223767 
L 61.054903 -18.262378 
L 61.427272 -18.30099 
L 61.812089 -18.339601 
L 62.195435 -18.378213 
L 62.564794 -18.416824 
L 62.909519 -18.455436 
L 63.221144 -18.494048 
L 63.493544 -18.532659 
L 63.722952 -18.571271 
L 63.90785 -18.609882 
L 64.04877 -18.648494 
L 64.148022 -18.687105 
L 64.209386 -18.725717 
L 64.237798 -18.764328 
L 64.239045 -18.80294 
L 64.219483 -18.841551 
L 64.185791 -18.880163 
L 64.144756 -18.918774 
L 64.103084 -18.957386 
L 64.067236 -18.995998 
L 64.043279 -19.034609 
L 64.036742 -19.073221 
L 64.052483 -19.111832 
L 64.094561 -19.150444 
L 64.166112 -19.189055 
L 64.269255 -19.227667 
L 64.405008 -19.266278 
L 64.57325 -19.30489 
L 64.77272 -19.343501 
L 65.001061 -19.382113 
L 65.254913 -19.420724 
L 65.530055 -19.459336 
L 65.821575 -19.497948 
L 66.12408 -19.536559 
L 66.43191 -19.575171 
L 66.73936 -19.613782 
L 67.040886 -19.652394 
L 67.331291 -19.691005 
L 67.605865 -19.729617 
L 67.860504 -19.768228 
L 68.091768 -19.80684 
L 68.296911 -19.845451 
L 68.473875 -19.884063 
L 68.62125 -19.922674 
L 68.738229 -19.961286 
L 68.824547 -19.999897 
L 68.880425 -20.038509 
L 68.906524 -20.077121 
L 68.903913 -20.115732 
L 68.874057 -20.154344 
L 68.818817 -20.192955 
L 68.74046 -20.231567 
L 68.641678 -20.270178 
L 68.525597 -20.30879 
L 68.395776 -20.347401 
L 68.256188 -20.386013 
L 68.111158 -20.424624 
L 67.96529 -20.463236 
L 67.823337 -20.501847 
L 67.690062 -20.540459 
L 67.570059 -20.579071 
L 67.467575 -20.617682 
L 67.386321 -20.656294 
L 67.329304 -20.694905 
L 67.298685 -20.733517 
L 67.295673 -20.772128 
L 67.320477 -20.81074 
L 67.372299 -20.849351 
L 67.449398 -20.887963 
L 67.54919 -20.926574 
L 67.668404 -20.965186 
L 67.803263 -21.003797 
L 67.949682 -21.042409 
L 68.103481 -21.081021 
L 68.260573 -21.119632 
L 68.417145 -21.158244 
L 68.569795 -21.196855 
L 68.71564 -21.235467 
L 68.852381 -21.274078 
L 70.526153 -21.274078 
L 70.526153 -21.274078 
L 70.662894 -21.235467 
L 70.808739 -21.196855 
L 70.961389 -21.158244 
L 71.117961 -21.119632 
L 71.275053 -21.081021 
L 71.428852 -21.042409 
L 71.575271 -21.003797 
L 71.71013 -20.965186 
L 71.829344 -20.926574 
L 71.929137 -20.887963 
L 72.006235 -20.849351 
L 72.058058 -20.81074 
L 72.082861 -20.772128 
L 72.079849 -20.733517 
L 72.04923 -20.694905 
L 71.992213 -20.656294 
L 71.910959 -20.617682 
L 71.808475 -20.579071 
L 71.688472 -20.540459 
L 71.555197 -20.501847 
L 71.413244 -20.463236 
L 71.267376 -20.424624 
L 71.122347 -20.386013 
L 70.982758 -20.347401 
L 70.852938 -20.30879 
L 70.736856 -20.270178 
L 70.638074 -20.231567 
L 70.559717 -20.192955 
L 70.504477 -20.154344 
L 70.474621 -20.115732 
L 70.472011 -20.077121 
L 70.498109 -20.038509 
L 70.553987 -19.999897 
L 70.640305 -19.961286 
L 70.757285 -19.922674 
L 70.90466 -19.884063 
L 71.081623 -19.845451 
L 71.286766 -19.80684 
L 71.51803 -19.768228 
L 71.772669 -19.729617 
L 72.047244 -19.691005 
L 72.337648 -19.652394 
L 72.639174 -19.613782 
L 72.946624 -19.575171 
L 73.254454 -19.536559 
L 73.556959 -19.497948 
L 73.848479 -19.459336 
L 74.123621 -19.420724 
L 74.377473 -19.382113 
L 74.605814 -19.343501 
L 74.805284 -19.30489 
L 74.973526 -19.266278 
L 75.109279 -19.227667 
L 75.212422 -19.189055 
L 75.283974 -19.150444 
L 75.326051 -19.111832 
L 75.341792 -19.073221 
L 75.335255 -19.034609 
L 75.311298 -18.995998 
L 75.27545 -18.957386 
L 75.233778 -18.918774 
L 75.192743 -18.880163 
L 75.159051 -18.841551 
L 75.139489 -18.80294 
L 75.140736 -18.764328 
L 75.169148 -18.725717 
L 75.230512 -18.687105 
L 75.329764 -18.648494 
L 75.470684 -18.609882 
L 75.655583 -18.571271 
L 75.88499 -18.532659 
L 76.15739 -18.494048 
L 76.469015 -18.455436 
L 76.813741 -18.416824 
L 77.1831 -18.378213 
L 77.566445 -18.339601 
L 77.951262 -18.30099 
L 78.323631 -18.262378 
L 78.668825 -18.223767 
L 78.972 -18.185155 
L 79.218955 -18.146544 
L 79.396888 -18.107932 
L 79.495111 -18.069321 
L 79.505661 -18.030709 
L 79.423762 -17.992098 
L 79.248098 -17.953486 
L 78.980892 -17.914874 
L 78.627759 -17.876263 
L 78.197376 -17.837651 
L 77.700975 -17.79904 
L 77.151706 -17.760428 
L 76.56393 -17.721817 
L 75.952479 -17.683205 
L 75.331943 -17.644594 
L 74.71603 -17.605982 
L 74.117032 -17.567371 
L 73.545426 -17.528759 
L 73.009618 -17.490148 
L 72.515829 -17.451536 
z
" style="stroke: #6f6f6f; stroke-width: 0.15"/>
    </defs>
    <g clip-path="url(#p73ffe6c83e)">
     <use xlink:href="#mfa7059e73d" x="0" y="84.96" style="fill: #d3c4f6; stroke: #6f6f6f; stroke-width: 0.15"/>
    </g>
   </g>
   <g id="line2d_7">
    <path d="M 20.607295 66.995102 
L 20.607295 66.887753 
" clip-path="url(#p73ffe6c83e)" style="fill: none; stroke: #8c8c8c; stroke-width: 0.75; stroke-linecap: round"/>
   </g>
   <g id="line2d_8">
    <path d="M 20.607295 66.97691 
L 20.607295 66.918123 
" clip-path="url(#p73ffe6c83e)" style="fill: none; stroke: #8c8c8c; stroke-width: 4; stroke-linecap: round"/>
   </g>
   <g id="line2d_9">
    <path d="M 20.607295 66.959871 
" clip-path="url(#p73ffe6c83e)" style="fill: none; stroke: #6f6f6f; stroke-width: 1.2; stroke-linecap: round"/>
    <defs>
     <path id="mc381680156" d="M 0 0.833333 
C 0.221003 0.833333 0.432983 0.745528 0.589256 0.589256 
C 0.745528 0.432983 0.833333 0.221003 0.833333 0 
C 0.833333 -0.221003 0.745528 -0.432983 0.589256 -0.589256 
C 0.432983 -0.745528 0.221003 -0.833333 0 -0.833333 
C -0.221003 -0.833333 -0.432983 -0.745528 -0.589256 -0.589256 
C -0.745528 -0.432983 -0.833333 -0.221003 -0.833333 0 
C -0.833333 0.221003 -0.745528 0.432983 -0.589256 0.589256 
C -0.432983 0.745528 -0.221003 0.833333 0 0.833333 
z
" style="stroke: #ffffff; stroke-width: 0.8"/>
    </defs>
    <g clip-path="url(#p73ffe6c83e)">
     <use xlink:href="#mc381680156" x="20.607295" y="66.959871" style="fill: #ffffff; stroke: #ffffff; stroke-width: 0.8"/>
    </g>
   </g>
   <g id="line2d_10">
    <path d="M 45.148281 66.974867 
L 45.148281 65.792223 
" clip-path="url(#p73ffe6c83e)" style="fill: none; stroke: #8c8c8c; stroke-width: 0.75; stroke-linecap: round"/>
   </g>
   <g id="line2d_11">
    <path d="M 45.148281 66.713787 
L 45.148281 66.13781 
" clip-path="url(#p73ffe6c83e)" style="fill: none; stroke: #8c8c8c; stroke-width: 4; stroke-linecap: round"/>
   </g>
   <g id="line2d_12">
    <path d="M 45.148281 66.500028 
" clip-path="url(#p73ffe6c83e)" style="fill: none; stroke: #6f6f6f; stroke-width: 1.2; stroke-linecap: round"/>
    <g clip-path="url(#p73ffe6c83e)">
     <use xlink:href="#mc381680156" x="45.148281" y="66.500028" style="fill: #ffffff; stroke: #ffffff; stroke-width: 0.8"/>
    </g>
   </g>
   <g id="line2d_13">
    <path d="M 69.689267 66.992104 
L 69.689267 64.202281 
" clip-path="url(#p73ffe6c83e)" style="fill: none; stroke: #8c8c8c; stroke-width: 0.75; stroke-linecap: round"/>
   </g>
   <g id="line2d_14">
    <path d="M 69.689267 66.97315 
L 69.689267 65.769818 
" clip-path="url(#p73ffe6c83e)" style="fill: none; stroke: #8c8c8c; stroke-width: 4; stroke-linecap: round"/>
   </g>
   <g id="line2d_15">
    <path d="M 69.689267 66.541043 
" clip-path="url(#p73ffe6c83e)" style="fill: none; stroke: #6f6f6f; stroke-width: 1.2; stroke-linecap: round"/>
    <g clip-path="url(#p73ffe6c83e)">
     <use xlink:href="#mc381680156" x="69.689267" y="66.541043" style="fill: #ffffff; stroke: #ffffff; stroke-width: 0.8"/>
    </g>
   </g>
   <g id="patch_3">
    <path d="M 8.336802 74.419526 
L 8.336802 4.076256 
" style="fill: none; stroke: #777777; stroke-width: 0.5; stroke-linejoin: miter; stroke-linecap: square"/>
   </g>
   <g id="patch_4">
    <path d="M 8.336802 76.919526 
L 81.95976 76.919526 
" style="fill: none; stroke: #777777; stroke-width: 0.5; stroke-linejoin: miter; stroke-linecap: square"/>
   </g>
  </g>
 </g>
 <defs>
  <clipPath id="p73ffe6c83e">
   <rect x="8.336802" y="4.076256" width="73.622957" height="70.34327"/>
  </clipPath>
 </defs>
</svg>
