<?xml version="1.0" encoding="utf-8" standalone="no"?>
<!DOCTYPE svg PUBLIC "-//W3C//DTD SVG 1.1//EN"
  "http://www.w3.org/Graphics/SVG/1.1/DTD/svg11.dtd">
<svg xmlns:xlink="http://www.w3.org/1999/xlink" width="56.16pt" height="84.96pt" viewBox="0 0 56.16 84.96" xmlns="http://www.w3.org/2000/svg" version="1.1">
 <metadata>
  <rdf:RDF xmlns:dc="http://purl.org/dc/elements/1.1/" xmlns:cc="http://creativecommons.org/ns#" xmlns:rdf="http://www.w3.org/1999/02/22-rdf-syntax-ns#">
   <cc:Work>
    <dc:type rdf:resource="http://purl.org/dc/dcmitype/StillImage"/>
    <dc:date>2024-05-27T15:37:09.314169</dc:date>
    <dc:format>image/svg+xml</dc:format>
    <dc:creator>
     <cc:Agent>
      <dc:title>Matplotlib v3.8.3, https://matplotlib.org/</dc:title>
     </cc:Agent>
    </dc:creator>
   </cc:Work>
  </rdf:RDF>
 </metadata>
 <defs>
  <style type="text/css">*{stroke-linejoin: round; stroke-linecap: butt}</style>
 </defs>
 <g id="figure_1">
  <g id="patch_1">
   <path d="M 0 84.96 
L 56.16 84.96 
L 56.16 0 
L 0 0 
z
" style="fill: #ffffff"/>
  </g>
  <g id="axes_1">
   <g id="patch_2">
    <path d="M 10.005084 74.419526 
L 53.15976 74.419526 
L 53.15976 4.076256 
L 10.005084 4.076256 
z
" style="fill: #ffffff"/>
   </g>
   <g id="matplotlib.axis_1">
    <g id="xtick_1">
     <g id="text_1">
      <!-- ILC3 -->
      <g style="fill: #333333" transform="translate(17.097425 81.230229) scale(0.035 -0.035)">
       <defs>
        <path id="Helvetica-49" d="M 628 4591 
L 1256 4591 
L 1256 0 
L 628 0 
L 628 4591 
z
" transform="scale(0.015625)"/>
        <path id="Helvetica-4c" d="M 488 4591 
L 1109 4591 
L 1109 547 
L 3434 547 
L 3434 0 
L 488 0 
L 488 4591 
z
" transform="scale(0.015625)"/>
        <path id="Helvetica-43" d="M 2422 4716 
Q 3294 4716 3775 4256 
Q 4256 3797 4309 3213 
L 3703 3213 
Q 3600 3656 3292 3915 
Q 2984 4175 2428 4175 
Q 1750 4175 1333 3698 
Q 916 3222 916 2238 
Q 916 1431 1292 929 
Q 1669 428 2416 428 
Q 3103 428 3463 956 
Q 3653 1234 3747 1688 
L 4353 1688 
Q 4272 963 3816 472 
Q 3269 -119 2341 -119 
Q 1541 -119 997 366 
Q 281 1006 281 2344 
Q 281 3359 819 4009 
Q 1400 4716 2422 4716 
z
M 2297 4716 
L 2297 4716 
z
" transform="scale(0.015625)"/>
        <path id="Helvetica-33" d="M 1663 -122 
Q 869 -122 511 314 
Q 153 750 153 1375 
L 741 1375 
Q 778 941 903 744 
Q 1122 391 1694 391 
Q 2138 391 2406 628 
Q 2675 866 2675 1241 
Q 2675 1703 2392 1887 
Q 2109 2072 1606 2072 
Q 1550 2072 1492 2070 
Q 1434 2069 1375 2066 
L 1375 2563 
Q 1463 2553 1522 2550 
Q 1581 2547 1650 2547 
Q 1966 2547 2169 2647 
Q 2525 2822 2525 3272 
Q 2525 3606 2287 3787 
Q 2050 3969 1734 3969 
Q 1172 3969 956 3594 
Q 838 3388 822 3006 
L 266 3006 
Q 266 3506 466 3856 
Q 809 4481 1675 4481 
Q 2359 4481 2734 4176 
Q 3109 3872 3109 3294 
Q 3109 2881 2888 2625 
Q 2750 2466 2531 2375 
Q 2884 2278 3082 2001 
Q 3281 1725 3281 1325 
Q 3281 684 2859 281 
Q 2438 -122 1663 -122 
z
" transform="scale(0.015625)"/>
       </defs>
       <use xlink:href="#Helvetica-49"/>
       <use xlink:href="#Helvetica-4c" x="27.783203"/>
       <use xlink:href="#Helvetica-43" x="83.398438"/>
       <use xlink:href="#Helvetica-33" x="155.615234"/>
      </g>
     </g>
    </g>
    <g id="xtick_2">
     <g id="text_2">
      <!-- TH17 -->
      <g style="fill: #333333" transform="translate(38.092067 81.230229) scale(0.035 -0.035)">
       <defs>
        <path id="Helvetica-54" d="M 3828 4591 
L 3828 4044 
L 2281 4044 
L 2281 0 
L 1650 0 
L 1650 4044 
L 103 4044 
L 103 4591 
L 3828 4591 
z
" transform="scale(0.015625)"/>
        <path id="Helvetica-48" d="M 503 4591 
L 1131 4591 
L 1131 2694 
L 3519 2694 
L 3519 4591 
L 4147 4591 
L 4147 0 
L 3519 0 
L 3519 2147 
L 1131 2147 
L 1131 0 
L 503 0 
L 503 4591 
z
" transform="scale(0.015625)"/>
        <path id="Helvetica-31" d="M 613 3169 
L 613 3600 
Q 1222 3659 1462 3798 
Q 1703 3938 1822 4456 
L 2266 4456 
L 2266 0 
L 1666 0 
L 1666 3169 
L 613 3169 
z
" transform="scale(0.015625)"/>
        <path id="Helvetica-37" d="M 3347 4400 
L 3347 3909 
Q 3131 3700 2773 3181 
Q 2416 2663 2141 2063 
Q 1869 1478 1728 997 
Q 1638 688 1494 0 
L 872 0 
Q 1084 1281 1809 2550 
Q 2238 3294 2709 3834 
L 234 3834 
L 234 4400 
L 3347 4400 
z
" transform="scale(0.015625)"/>
       </defs>
       <use xlink:href="#Helvetica-54"/>
       <use xlink:href="#Helvetica-48" x="61.083984"/>
       <use xlink:href="#Helvetica-31" x="133.300781"/>
       <use xlink:href="#Helvetica-37" x="188.916016"/>
      </g>
     </g>
    </g>
   </g>
   <g id="matplotlib.axis_2">
    <g id="ytick_1">
     <g id="line2d_1">
      <defs>
       <path id="m6e816dcacc" d="M 0 0 
L -1 0 
" style="stroke: #777777; stroke-width: 0.5"/>
      </defs>
      <g>
       <use xlink:href="#m6e816dcacc" x="10.005084" y="65.703651" style="fill: #777777; stroke: #777777; stroke-width: 0.5"/>
      </g>
     </g>
     <g id="text_3">
      <!-- 0 -->
      <g style="fill: #333333" transform="translate(6.336802 66.779667) scale(0.03 -0.03)">
       <defs>
        <path id="Helvetica-30" d="M 1731 4475 
Q 2600 4475 2988 3759 
Q 3288 3206 3288 2244 
Q 3288 1331 3016 734 
Q 2622 -122 1728 -122 
Q 922 -122 528 578 
Q 200 1163 200 2147 
Q 200 2909 397 3456 
Q 766 4475 1731 4475 
z
M 1725 391 
Q 2163 391 2422 778 
Q 2681 1166 2681 2222 
Q 2681 2984 2493 3476 
Q 2306 3969 1766 3969 
Q 1269 3969 1039 3501 
Q 809 3034 809 2125 
Q 809 1441 956 1025 
Q 1181 391 1725 391 
z
" transform="scale(0.015625)"/>
       </defs>
       <use xlink:href="#Helvetica-30"/>
      </g>
     </g>
    </g>
    <g id="ytick_2">
     <g id="line2d_2">
      <g>
       <use xlink:href="#m6e816dcacc" x="10.005084" y="56.899737" style="fill: #777777; stroke: #777777; stroke-width: 0.5"/>
      </g>
     </g>
     <g id="text_4">
      <!-- 100 -->
      <g style="fill: #333333" transform="translate(3.00024 57.975753) scale(0.03 -0.03)">
       <use xlink:href="#Helvetica-31"/>
       <use xlink:href="#Helvetica-30" x="55.615234"/>
       <use xlink:href="#Helvetica-30" x="111.230469"/>
      </g>
     </g>
    </g>
    <g id="ytick_3">
     <g id="line2d_3">
      <g>
       <use xlink:href="#m6e816dcacc" x="10.005084" y="48.095824" style="fill: #777777; stroke: #777777; stroke-width: 0.5"/>
      </g>
     </g>
     <g id="text_5">
      <!-- 200 -->
      <g style="fill: #333333" transform="translate(3.00024 49.171839) scale(0.03 -0.03)">
       <defs>
        <path id="Helvetica-32" d="M 200 0 
Q 231 578 439 1006 
Q 647 1434 1250 1784 
L 1850 2131 
Q 2253 2366 2416 2531 
Q 2672 2791 2672 3125 
Q 2672 3516 2437 3745 
Q 2203 3975 1813 3975 
Q 1234 3975 1013 3538 
Q 894 3303 881 2888 
L 309 2888 
Q 319 3472 525 3841 
Q 891 4491 1816 4491 
Q 2584 4491 2939 4075 
Q 3294 3659 3294 3150 
Q 3294 2613 2916 2231 
Q 2697 2009 2131 1694 
L 1703 1456 
Q 1397 1288 1222 1134 
Q 909 863 828 531 
L 3272 531 
L 3272 0 
L 200 0 
z
" transform="scale(0.015625)"/>
       </defs>
       <use xlink:href="#Helvetica-32"/>
       <use xlink:href="#Helvetica-30" x="55.615234"/>
       <use xlink:href="#Helvetica-30" x="111.230469"/>
      </g>
     </g>
    </g>
    <g id="ytick_4">
     <g id="line2d_4">
      <g>
       <use xlink:href="#m6e816dcacc" x="10.005084" y="39.29191" style="fill: #777777; stroke: #777777; stroke-width: 0.5"/>
      </g>
     </g>
     <g id="text_6">
      <!-- 300 -->
      <g style="fill: #333333" transform="translate(3.00024 40.367926) scale(0.03 -0.03)">
       <use xlink:href="#Helvetica-33"/>
       <use xlink:href="#Helvetica-30" x="55.615234"/>
       <use xlink:href="#Helvetica-30" x="111.230469"/>
      </g>
     </g>
    </g>
    <g id="ytick_5">
     <g id="line2d_5">
      <g>
       <use xlink:href="#m6e816dcacc" x="10.005084" y="30.487997" style="fill: #777777; stroke: #777777; stroke-width: 0.5"/>
      </g>
     </g>
     <g id="text_7">
      <!-- 400 -->
      <g style="fill: #333333" transform="translate(3.00024 31.564012) scale(0.03 -0.03)">
       <defs>
        <path id="Helvetica-34" d="M 2116 1584 
L 2116 3613 
L 681 1584 
L 2116 1584 
z
M 2125 0 
L 2125 1094 
L 163 1094 
L 163 1644 
L 2213 4488 
L 2688 4488 
L 2688 1584 
L 3347 1584 
L 3347 1094 
L 2688 1094 
L 2688 0 
L 2125 0 
z
" transform="scale(0.015625)"/>
       </defs>
       <use xlink:href="#Helvetica-34"/>
       <use xlink:href="#Helvetica-30" x="55.615234"/>
       <use xlink:href="#Helvetica-30" x="111.230469"/>
      </g>
     </g>
    </g>
    <g id="ytick_6">
     <g id="line2d_6">
      <g>
       <use xlink:href="#m6e816dcacc" x="10.005084" y="21.684083" style="fill: #777777; stroke: #777777; stroke-width: 0.5"/>
      </g>
     </g>
     <g id="text_8">
      <!-- 500 -->
      <g style="fill: #333333" transform="translate(3.00024 22.760099) scale(0.03 -0.03)">
       <defs>
        <path id="Helvetica-35" d="M 791 1141 
Q 847 659 1238 475 
Q 1438 381 1700 381 
Q 2200 381 2440 700 
Q 2681 1019 2681 1406 
Q 2681 1875 2395 2131 
Q 2109 2388 1709 2388 
Q 1419 2388 1211 2275 
Q 1003 2163 856 1963 
L 369 1991 
L 709 4400 
L 3034 4400 
L 3034 3856 
L 1131 3856 
L 941 2613 
Q 1097 2731 1238 2791 
Q 1488 2894 1816 2894 
Q 2431 2894 2859 2497 
Q 3288 2100 3288 1491 
Q 3288 856 2895 371 
Q 2503 -113 1644 -113 
Q 1097 -113 676 195 
Q 256 503 206 1141 
L 791 1141 
z
" transform="scale(0.015625)"/>
       </defs>
       <use xlink:href="#Helvetica-35"/>
       <use xlink:href="#Helvetica-30" x="55.615234"/>
       <use xlink:href="#Helvetica-30" x="111.230469"/>
      </g>
     </g>
    </g>
    <g id="ytick_7">
     <g id="line2d_7">
      <g>
       <use xlink:href="#m6e816dcacc" x="10.005084" y="12.880169" style="fill: #777777; stroke: #777777; stroke-width: 0.5"/>
      </g>
     </g>
     <g id="text_9">
      <!-- 600 -->
      <g style="fill: #333333" transform="translate(3.00024 13.956185) scale(0.03 -0.03)">
       <defs>
        <path id="Helvetica-36" d="M 1872 4494 
Q 2622 4494 2917 4105 
Q 3213 3716 3213 3303 
L 2656 3303 
Q 2606 3569 2497 3719 
Q 2294 4000 1881 4000 
Q 1409 4000 1131 3564 
Q 853 3128 822 2316 
Q 1016 2600 1309 2741 
Q 1578 2866 1909 2866 
Q 2472 2866 2890 2506 
Q 3309 2147 3309 1434 
Q 3309 825 2912 354 
Q 2516 -116 1781 -116 
Q 1153 -116 697 361 
Q 241 838 241 1966 
Q 241 2800 444 3381 
Q 834 4494 1872 4494 
z
M 1831 384 
Q 2275 384 2495 682 
Q 2716 981 2716 1388 
Q 2716 1731 2519 2042 
Q 2322 2353 1803 2353 
Q 1441 2353 1167 2112 
Q 894 1872 894 1388 
Q 894 963 1142 673 
Q 1391 384 1831 384 
z
" transform="scale(0.015625)"/>
       </defs>
       <use xlink:href="#Helvetica-36"/>
       <use xlink:href="#Helvetica-30" x="55.615234"/>
       <use xlink:href="#Helvetica-30" x="111.230469"/>
      </g>
     </g>
    </g>
    <g id="ytick_8">
     <g id="line2d_8">
      <g>
       <use xlink:href="#m6e816dcacc" x="10.005084" y="4.076256" style="fill: #777777; stroke: #777777; stroke-width: 0.5"/>
      </g>
     </g>
     <g id="text_10">
      <!-- 700 -->
      <g style="fill: #333333" transform="translate(3.00024 5.152271) scale(0.03 -0.03)">
       <use xlink:href="#Helvetica-37"/>
       <use xlink:href="#Helvetica-30" x="55.615234"/>
       <use xlink:href="#Helvetica-30" x="111.230469"/>
      </g>
     </g>
    </g>
   </g>
   <g id="PolyCollection_1">
    <defs>
     <path id="maa6832966d" d="M 22.380266 -19.262147 
L 19.20724 -19.262147 
L 18.910114 -19.478967 
L 18.580245 -19.695787 
L 18.218907 -19.912606 
L 17.828434 -20.129426 
L 17.41224 -20.346245 
L 16.974783 -20.563065 
L 16.521477 -20.779885 
L 16.058544 -20.996704 
L 15.592822 -21.213524 
L 15.131546 -21.430344 
L 14.6821 -21.647163 
L 14.251773 -21.863983 
L 13.84753 -22.080803 
L 13.475812 -22.297622 
L 13.142374 -22.514442 
L 12.852174 -22.731262 
L 12.609309 -22.948081 
L 12.416997 -23.164901 
L 12.27759 -23.381721 
L 12.192613 -23.59854 
L 12.162818 -23.81536 
L 12.188227 -24.03218 
L 12.268176 -24.248999 
L 12.401333 -24.465819 
L 12.5857 -24.682639 
L 12.81861 -24.899458 
L 13.096704 -25.116278 
L 13.415923 -25.333098 
L 13.771513 -25.549917 
L 14.15805 -25.766737 
L 14.569502 -25.983557 
L 14.999333 -26.200376 
L 15.440629 -26.417196 
L 15.886271 -26.634016 
L 16.329122 -26.850835 
L 16.762224 -27.067655 
L 17.179 -27.284475 
L 17.573436 -27.501294 
L 17.940241 -27.718114 
L 18.274978 -27.934934 
L 18.574151 -28.151753 
L 18.835258 -28.368573 
L 19.056808 -28.585393 
L 19.238301 -28.802212 
L 19.38019 -29.019032 
L 19.483812 -29.235852 
L 19.551311 -29.452671 
L 19.585548 -29.669491 
L 19.590002 -29.886311 
L 19.568667 -30.10313 
L 19.525939 -30.31995 
L 19.466495 -30.53677 
L 19.39517 -30.753589 
L 19.316811 -30.970409 
L 19.236143 -31.187229 
L 19.157607 -31.404048 
L 19.085224 -31.620868 
L 19.022441 -31.837688 
L 18.972011 -32.054507 
L 18.935884 -32.271327 
L 18.915142 -32.488147 
L 18.909957 -32.704966 
L 18.919608 -32.921786 
L 18.942539 -33.138606 
L 18.976458 -33.355425 
L 19.018486 -33.572245 
L 19.065331 -33.789065 
L 19.113495 -34.005884 
L 19.159491 -34.222704 
L 19.200051 -34.439524 
L 19.232335 -34.656343 
L 19.254106 -34.873163 
L 19.263863 -35.089983 
L 19.260941 -35.306802 
L 19.245549 -35.523622 
L 19.21876 -35.740442 
L 19.182447 -35.957261 
L 19.139171 -36.174081 
L 19.092024 -36.390901 
L 19.04445 -36.60772 
L 19.000034 -36.82454 
L 18.962299 -37.04136 
L 18.934498 -37.258179 
L 18.919436 -37.474999 
L 18.919318 -37.691819 
L 18.93564 -37.908638 
L 18.96913 -38.125458 
L 19.019725 -38.342278 
L 19.086615 -38.559097 
L 19.168314 -38.775917 
L 19.262771 -38.992736 
L 19.367513 -39.209556 
L 19.479793 -39.426376 
L 19.596747 -39.643195 
L 19.715546 -39.860015 
L 19.833521 -40.076835 
L 19.948281 -40.293654 
L 20.057787 -40.510474 
L 20.160408 -40.727294 
L 21.427098 -40.727294 
L 21.427098 -40.727294 
L 21.529718 -40.510474 
L 21.639225 -40.293654 
L 21.753985 -40.076835 
L 21.87196 -39.860015 
L 21.990758 -39.643195 
L 22.107713 -39.426376 
L 22.219992 -39.209556 
L 22.324734 -38.992736 
L 22.419192 -38.775917 
L 22.50089 -38.559097 
L 22.56778 -38.342278 
L 22.618376 -38.125458 
L 22.651865 -37.908638 
L 22.668188 -37.691819 
L 22.66807 -37.474999 
L 22.653008 -37.258179 
L 22.625207 -37.04136 
L 22.587472 -36.82454 
L 22.543056 -36.60772 
L 22.495482 -36.390901 
L 22.448335 -36.174081 
L 22.405059 -35.957261 
L 22.368746 -35.740442 
L 22.341957 -35.523622 
L 22.326565 -35.306802 
L 22.323642 -35.089983 
L 22.3334 -34.873163 
L 22.35517 -34.656343 
L 22.387455 -34.439524 
L 22.428015 -34.222704 
L 22.47401 -34.005884 
L 22.522175 -33.789065 
L 22.56902 -33.572245 
L 22.611047 -33.355425 
L 22.644967 -33.138606 
L 22.667898 -32.921786 
L 22.677549 -32.704966 
L 22.672364 -32.488147 
L 22.651621 -32.271327 
L 22.615495 -32.054507 
L 22.565065 -31.837688 
L 22.502282 -31.620868 
L 22.429898 -31.404048 
L 22.351363 -31.187229 
L 22.270694 -30.970409 
L 22.192336 -30.753589 
L 22.12101 -30.53677 
L 22.061567 -30.31995 
L 22.018838 -30.10313 
L 21.997503 -29.886311 
L 22.001958 -29.669491 
L 22.036194 -29.452671 
L 22.103693 -29.235852 
L 22.207315 -29.019032 
L 22.349204 -28.802212 
L 22.530698 -28.585393 
L 22.752247 -28.368573 
L 23.013354 -28.151753 
L 23.312527 -27.934934 
L 23.647264 -27.718114 
L 24.01407 -27.501294 
L 24.408505 -27.284475 
L 24.825281 -27.067655 
L 25.258383 -26.850835 
L 25.701234 -26.634016 
L 26.146877 -26.417196 
L 26.588173 -26.200376 
L 27.018003 -25.983557 
L 27.429456 -25.766737 
L 27.815992 -25.549917 
L 28.171582 -25.333098 
L 28.490802 -25.116278 
L 28.768896 -24.899458 
L 29.001805 -24.682639 
L 29.186173 -24.465819 
L 29.319329 -24.248999 
L 29.399279 -24.03218 
L 29.424688 -23.81536 
L 29.394893 -23.59854 
L 29.309916 -23.381721 
L 29.170508 -23.164901 
L 28.978196 -22.948081 
L 28.735332 -22.731262 
L 28.445132 -22.514442 
L 28.111693 -22.297622 
L 27.739975 -22.080803 
L 27.335733 -21.863983 
L 26.905406 -21.647163 
L 26.45596 -21.430344 
L 25.994683 -21.213524 
L 25.528962 -20.996704 
L 25.066028 -20.779885 
L 24.612722 -20.563065 
L 24.175266 -20.346245 
L 23.759072 -20.129426 
L 23.368599 -19.912606 
L 23.00726 -19.695787 
L 22.677391 -19.478967 
L 22.380266 -19.262147 
z
" style="stroke: #7c7c7c; stroke-width: 0.15"/>
    </defs>
    <g clip-path="url(#pd4129f151c)">
     <use xlink:href="#maa6832966d" x="0" y="84.96" style="fill: #cfcfcf; stroke: #7c7c7c; stroke-width: 0.15"/>
    </g>
   </g>
   <g id="PolyCollection_2">
    <defs>
     <path id="m55005dc379" d="M 44.176615 -17.556158 
L 40.565567 -17.556158 
L 40.287182 -17.710694 
L 39.987938 -17.865231 
L 39.670398 -18.019768 
L 39.337819 -18.174304 
L 38.994067 -18.328841 
L 38.643482 -18.483378 
L 38.290705 -18.637914 
L 37.940467 -18.792451 
L 37.597364 -18.946988 
L 37.265619 -19.101525 
L 36.948866 -19.256061 
L 36.649957 -19.410598 
L 36.370814 -19.565135 
L 36.112357 -19.719671 
L 35.874486 -19.874208 
L 35.65616 -20.028745 
L 35.455536 -20.183281 
L 35.270194 -20.337818 
L 35.0974 -20.492355 
L 34.934418 -20.646892 
L 34.778828 -20.801428 
L 34.628822 -20.955965 
L 34.483475 -21.110502 
L 34.342934 -21.265038 
L 34.208537 -21.419575 
L 34.08283 -21.574112 
L 33.969483 -21.728648 
L 33.873113 -21.883185 
L 33.799012 -22.037722 
L 33.752824 -22.192259 
L 33.740156 -22.346795 
L 33.766193 -22.501332 
L 33.835316 -22.655869 
L 33.950757 -22.810405 
L 34.114327 -22.964942 
L 34.326221 -23.119479 
L 34.584912 -23.274015 
L 34.88716 -23.428552 
L 35.228099 -23.583089 
L 35.601426 -23.737626 
L 35.999656 -23.892162 
L 36.414432 -24.046699 
L 36.836868 -24.201236 
L 37.257904 -24.355772 
L 37.668655 -24.510309 
L 38.060725 -24.664846 
L 38.426485 -24.819383 
L 38.759301 -24.973919 
L 39.053697 -25.128456 
L 39.305463 -25.282993 
L 39.511699 -25.437529 
L 39.670805 -25.592066 
L 39.782428 -25.746603 
L 39.847356 -25.901139 
L 39.867392 -26.055676 
L 39.845196 -26.210213 
L 39.78412 -26.36475 
L 39.68803 -26.519286 
L 39.561141 -26.673823 
L 39.407853 -26.82836 
L 39.232605 -26.982896 
L 39.039762 -27.137433 
L 38.833513 -27.29197 
L 38.617809 -27.446506 
L 38.39633 -27.601043 
L 38.17248 -27.75558 
L 37.949408 -27.910117 
L 37.730052 -28.064653 
L 37.5172 -28.21919 
L 37.313549 -28.373727 
L 37.121772 -28.528263 
L 36.944562 -28.6828 
L 36.784672 -28.837337 
L 36.64491 -28.991873 
L 36.528116 -29.14641 
L 36.437105 -29.300947 
L 36.374583 -29.455484 
L 36.343029 -29.61002 
L 36.344576 -29.764557 
L 36.380874 -29.919094 
L 36.452965 -30.07363 
L 36.561171 -30.228167 
L 36.705015 -30.382704 
L 36.88317 -30.53724 
L 37.093456 -30.691777 
L 37.332882 -30.846314 
L 37.597719 -31.000851 
L 37.883631 -31.155387 
L 38.185818 -31.309924 
L 38.499199 -31.464461 
L 38.818587 -31.618997 
L 39.13888 -31.773534 
L 39.455233 -31.928071 
L 39.763208 -32.082607 
L 40.058905 -32.237144 
L 40.339045 -32.391681 
L 40.601036 -32.546218 
L 40.842987 -32.700754 
L 41.0637 -32.855291 
L 43.678482 -32.855291 
L 43.678482 -32.855291 
L 43.899195 -32.700754 
L 44.141146 -32.546218 
L 44.403137 -32.391681 
L 44.683277 -32.237144 
L 44.978974 -32.082607 
L 45.286949 -31.928071 
L 45.603302 -31.773534 
L 45.923595 -31.618997 
L 46.242983 -31.464461 
L 46.556363 -31.309924 
L 46.858551 -31.155387 
L 47.144463 -31.000851 
L 47.4093 -30.846314 
L 47.648725 -30.691777 
L 47.859012 -30.53724 
L 48.037167 -30.382704 
L 48.181011 -30.228167 
L 48.289217 -30.07363 
L 48.361308 -29.919094 
L 48.397606 -29.764557 
L 48.399153 -29.61002 
L 48.367599 -29.455484 
L 48.305076 -29.300947 
L 48.214066 -29.14641 
L 48.097272 -28.991873 
L 47.95751 -28.837337 
L 47.797619 -28.6828 
L 47.62041 -28.528263 
L 47.428632 -28.373727 
L 47.224981 -28.21919 
L 47.012129 -28.064653 
L 46.792774 -27.910117 
L 46.569702 -27.75558 
L 46.345852 -27.601043 
L 46.124373 -27.446506 
L 45.908669 -27.29197 
L 45.702419 -27.137433 
L 45.509576 -26.982896 
L 45.334329 -26.82836 
L 45.181041 -26.673823 
L 45.054152 -26.519286 
L 44.958062 -26.36475 
L 44.896986 -26.210213 
L 44.87479 -26.055676 
L 44.894825 -25.901139 
L 44.959754 -25.746603 
L 45.071376 -25.592066 
L 45.230483 -25.437529 
L 45.436719 -25.282993 
L 45.688485 -25.128456 
L 45.982881 -24.973919 
L 46.315697 -24.819383 
L 46.681457 -24.664846 
L 47.073527 -24.510309 
L 47.484277 -24.355772 
L 47.905314 -24.201236 
L 48.32775 -24.046699 
L 48.742526 -23.892162 
L 49.140756 -23.737626 
L 49.514083 -23.583089 
L 49.855022 -23.428552 
L 50.157269 -23.274015 
L 50.415961 -23.119479 
L 50.627854 -22.964942 
L 50.791425 -22.810405 
L 50.906866 -22.655869 
L 50.975989 -22.501332 
L 51.002026 -22.346795 
L 50.989358 -22.192259 
L 50.943169 -22.037722 
L 50.869069 -21.883185 
L 50.772698 -21.728648 
L 50.659352 -21.574112 
L 50.533645 -21.419575 
L 50.399248 -21.265038 
L 50.258707 -21.110502 
L 50.11336 -20.955965 
L 49.963354 -20.801428 
L 49.807764 -20.646892 
L 49.644782 -20.492355 
L 49.471988 -20.337818 
L 49.286646 -20.183281 
L 49.086022 -20.028745 
L 48.867696 -19.874208 
L 48.629825 -19.719671 
L 48.371368 -19.565135 
L 48.092225 -19.410598 
L 47.793315 -19.256061 
L 47.476563 -19.101525 
L 47.144818 -18.946988 
L 46.801714 -18.792451 
L 46.451477 -18.637914 
L 46.0987 -18.483378 
L 45.748115 -18.328841 
L 45.404363 -18.174304 
L 45.071784 -18.019768 
L 44.754243 -17.865231 
L 44.455 -17.710694 
L 44.176615 -17.556158 
z
" style="stroke: #7c7c7c; stroke-width: 0.15"/>
    </defs>
    <g clip-path="url(#pd4129f151c)">
     <use xlink:href="#m55005dc379" x="0" y="84.96" style="fill: #f3f3ae; stroke: #7c7c7c; stroke-width: 0.15"/>
    </g>
   </g>
   <g id="line2d_9">
    <path d="M 20.793753 62.770086 
L 20.793753 52.463099 
" clip-path="url(#pd4129f151c)" style="fill: none; stroke: #8c8c8c; stroke-width: 0.75; stroke-linecap: round"/>
   </g>
   <g id="line2d_10">
    <path d="M 20.793753 62.175586 
L 20.793753 57.481557 
" clip-path="url(#pd4129f151c)" style="fill: none; stroke: #8c8c8c; stroke-width: 4; stroke-linecap: round"/>
   </g>
   <g id="line2d_11">
    <path d="M 20.793753 60.050282 
" clip-path="url(#pd4129f151c)" style="fill: none; stroke: #7c7c7c; stroke-width: 1.2; stroke-linecap: round"/>
    <defs>
     <path id="mfab3050455" d="M 0 0.833333 
C 0.221003 0.833333 0.432983 0.745528 0.589256 0.589256 
C 0.745528 0.432983 0.833333 0.221003 0.833333 0 
C 0.833333 -0.221003 0.745528 -0.432983 0.589256 -0.589256 
C 0.432983 -0.745528 0.221003 -0.833333 0 -0.833333 
C -0.221003 -0.833333 -0.432983 -0.745528 -0.589256 -0.589256 
C -0.745528 -0.432983 -0.833333 -0.221003 -0.833333 0 
C -0.833333 0.221003 -0.745528 0.432983 -0.589256 0.589256 
C -0.432983 0.745528 -0.221003 0.833333 0 0.833333 
z
" style="stroke: #ffffff; stroke-width: 0.8"/>
    </defs>
    <g clip-path="url(#pd4129f151c)">
     <use xlink:href="#mfab3050455" x="20.793753" y="60.050282" style="fill: #ffffff; stroke: #ffffff; stroke-width: 0.8"/>
    </g>
   </g>
   <g id="line2d_12">
    <path d="M 42.371091 65.146346 
L 42.371091 54.362205 
" clip-path="url(#pd4129f151c)" style="fill: none; stroke: #8c8c8c; stroke-width: 0.75; stroke-linecap: round"/>
   </g>
   <g id="line2d_13">
    <path d="M 42.371091 63.128896 
L 42.371091 56.621407 
" clip-path="url(#pd4129f151c)" style="fill: none; stroke: #8c8c8c; stroke-width: 4; stroke-linecap: round"/>
   </g>
   <g id="line2d_14">
    <path d="M 42.371091 61.941498 
" clip-path="url(#pd4129f151c)" style="fill: none; stroke: #7c7c7c; stroke-width: 1.2; stroke-linecap: round"/>
    <g clip-path="url(#pd4129f151c)">
     <use xlink:href="#mfab3050455" x="42.371091" y="61.941498" style="fill: #ffffff; stroke: #ffffff; stroke-width: 0.8"/>
    </g>
   </g>
   <g id="patch_3">
    <path d="M 10.005084 74.419526 
L 10.005084 4.076256 
" style="fill: none; stroke: #777777; stroke-width: 0.5; stroke-linejoin: miter; stroke-linecap: square"/>
   </g>
   <g id="patch_4">
    <path d="M 10.005084 76.919526 
L 53.15976 76.919526 
" style="fill: none; stroke: #777777; stroke-width: 0.5; stroke-linejoin: miter; stroke-linecap: square"/>
   </g>
  </g>
 </g>
 <defs>
  <clipPath id="pd4129f151c">
   <rect x="10.005084" y="4.076256" width="43.154676" height="70.34327"/>
  </clipPath>
 </defs>
</svg>
