<?xml version="1.0" encoding="utf-8" standalone="no"?>
<!DOCTYPE svg PUBLIC "-//W3C//DTD SVG 1.1//EN"
  "http://www.w3.org/Graphics/SVG/1.1/DTD/svg11.dtd">
<svg xmlns:xlink="http://www.w3.org/1999/xlink" width="56.16pt" height="84.96pt" viewBox="0 0 56.16 84.96" xmlns="http://www.w3.org/2000/svg" version="1.1">
 <metadata>
  <rdf:RDF xmlns:dc="http://purl.org/dc/elements/1.1/" xmlns:cc="http://creativecommons.org/ns#" xmlns:rdf="http://www.w3.org/1999/02/22-rdf-syntax-ns#">
   <cc:Work>
    <dc:type rdf:resource="http://purl.org/dc/dcmitype/StillImage"/>
    <dc:date>2024-05-27T15:37:03.033684</dc:date>
    <dc:format>image/svg+xml</dc:format>
    <dc:creator>
     <cc:Agent>
      <dc:title>Matplotlib v3.8.3, https://matplotlib.org/</dc:title>
     </cc:Agent>
    </dc:creator>
   </cc:Work>
  </rdf:RDF>
 </metadata>
 <defs>
  <style type="text/css">*{stroke-linejoin: round; stroke-linecap: butt}</style>
 </defs>
 <g id="figure_1">
  <g id="patch_1">
   <path d="M 0 84.96 
L 56.16 84.96 
L 56.16 0 
L 0 0 
z
" style="fill: #ffffff"/>
  </g>
  <g id="axes_1">
   <g id="patch_2">
    <path d="M 10.005084 74.419526 
L 53.15976 74.419526 
L 53.15976 4.076256 
L 10.005084 4.076256 
z
" style="fill: #ffffff"/>
   </g>
   <g id="matplotlib.axis_1">
    <g id="xtick_1">
     <g id="text_1">
      <!-- GATA+ Cells -->
      <g style="fill: #333333" transform="translate(10.631175 81.230229) scale(0.035 -0.035)">
       <defs>
        <path id="Helvetica-47" d="M 2472 4709 
Q 3119 4709 3591 4459 
Q 4275 4100 4428 3200 
L 3813 3200 
Q 3700 3703 3347 3933 
Q 2994 4163 2456 4163 
Q 1819 4163 1383 3684 
Q 947 3206 947 2259 
Q 947 1441 1306 927 
Q 1666 413 2478 413 
Q 3100 413 3508 773 
Q 3916 1134 3925 1941 
L 2488 1941 
L 2488 2456 
L 4503 2456 
L 4503 0 
L 4103 0 
L 3953 591 
Q 3638 244 3394 109 
Q 2984 -122 2353 -122 
Q 1538 -122 950 406 
Q 309 1069 309 2225 
Q 309 3378 934 4059 
Q 1528 4709 2472 4709 
z
M 2369 4716 
L 2369 4716 
z
" transform="scale(0.015625)"/>
        <path id="Helvetica-41" d="M 2844 1881 
L 2147 3909 
L 1406 1881 
L 2844 1881 
z
M 1822 4591 
L 2525 4591 
L 4191 0 
L 3509 0 
L 3044 1375 
L 1228 1375 
L 731 0 
L 94 0 
L 1822 4591 
z
" transform="scale(0.015625)"/>
        <path id="Helvetica-54" d="M 3828 4591 
L 3828 4044 
L 2281 4044 
L 2281 0 
L 1650 0 
L 1650 4044 
L 103 4044 
L 103 4591 
L 3828 4591 
z
" transform="scale(0.015625)"/>
        <path id="Helvetica-2b" d="M 288 1369 
L 288 1894 
L 1650 1894 
L 1650 3266 
L 2184 3266 
L 2184 1894 
L 3547 1894 
L 3547 1369 
L 2184 1369 
L 2184 0 
L 1650 0 
L 1650 1369 
L 288 1369 
z
" transform="scale(0.015625)"/>
        <path id="Helvetica-20" transform="scale(0.015625)"/>
        <path id="Helvetica-43" d="M 2422 4716 
Q 3294 4716 3775 4256 
Q 4256 3797 4309 3213 
L 3703 3213 
Q 3600 3656 3292 3915 
Q 2984 4175 2428 4175 
Q 1750 4175 1333 3698 
Q 916 3222 916 2238 
Q 916 1431 1292 929 
Q 1669 428 2416 428 
Q 3103 428 3463 956 
Q 3653 1234 3747 1688 
L 4353 1688 
Q 4272 963 3816 472 
Q 3269 -119 2341 -119 
Q 1541 -119 997 366 
Q 281 1006 281 2344 
Q 281 3359 819 4009 
Q 1400 4716 2422 4716 
z
M 2297 4716 
L 2297 4716 
z
" transform="scale(0.015625)"/>
        <path id="Helvetica-65" d="M 1806 3422 
Q 2163 3422 2497 3255 
Q 2831 3088 3006 2822 
Q 3175 2569 3231 2231 
Q 3281 2000 3281 1494 
L 828 1494 
Q 844 984 1069 676 
Q 1294 369 1766 369 
Q 2206 369 2469 659 
Q 2619 828 2681 1050 
L 3234 1050 
Q 3213 866 3089 639 
Q 2966 413 2813 269 
Q 2556 19 2178 -69 
Q 1975 -119 1719 -119 
Q 1094 -119 659 336 
Q 225 791 225 1609 
Q 225 2416 662 2919 
Q 1100 3422 1806 3422 
z
M 2703 1941 
Q 2669 2306 2544 2525 
Q 2313 2931 1772 2931 
Q 1384 2931 1121 2651 
Q 859 2372 844 1941 
L 2703 1941 
z
M 1753 3428 
L 1753 3428 
z
" transform="scale(0.015625)"/>
        <path id="Helvetica-6c" d="M 428 4591 
L 991 4591 
L 991 0 
L 428 0 
L 428 4591 
z
" transform="scale(0.015625)"/>
        <path id="Helvetica-73" d="M 747 1050 
Q 772 769 888 619 
Q 1100 347 1625 347 
Q 1938 347 2175 483 
Q 2413 619 2413 903 
Q 2413 1119 2222 1231 
Q 2100 1300 1741 1391 
L 1294 1503 
Q 866 1609 663 1741 
Q 300 1969 300 2372 
Q 300 2847 642 3140 
Q 984 3434 1563 3434 
Q 2319 3434 2653 2991 
Q 2863 2709 2856 2384 
L 2325 2384 
Q 2309 2575 2191 2731 
Q 1997 2953 1519 2953 
Q 1200 2953 1036 2831 
Q 872 2709 872 2509 
Q 872 2291 1088 2159 
Q 1213 2081 1456 2022 
L 1828 1931 
Q 2434 1784 2641 1647 
Q 2969 1431 2969 969 
Q 2969 522 2630 197 
Q 2291 -128 1597 -128 
Q 850 -128 539 211 
Q 228 550 206 1050 
L 747 1050 
z
M 1578 3428 
L 1578 3428 
z
" transform="scale(0.015625)"/>
       </defs>
       <use xlink:href="#Helvetica-47"/>
       <use xlink:href="#Helvetica-41" x="77.783203"/>
       <use xlink:href="#Helvetica-54" x="144.482422"/>
       <use xlink:href="#Helvetica-41" x="205.566406"/>
       <use xlink:href="#Helvetica-2b" x="272.265625"/>
       <use xlink:href="#Helvetica-20" x="330.664062"/>
       <use xlink:href="#Helvetica-43" x="358.447266"/>
       <use xlink:href="#Helvetica-65" x="430.664062"/>
       <use xlink:href="#Helvetica-6c" x="486.279297"/>
       <use xlink:href="#Helvetica-6c" x="508.496094"/>
       <use xlink:href="#Helvetica-73" x="530.712891"/>
      </g>
     </g>
    </g>
    <g id="xtick_2">
     <g id="text_2">
      <!-- ICOS+ Cells -->
      <g style="fill: #333333" transform="translate(32.694685 81.230229) scale(0.035 -0.035)">
       <defs>
        <path id="Helvetica-49" d="M 628 4591 
L 1256 4591 
L 1256 0 
L 628 0 
L 628 4591 
z
" transform="scale(0.015625)"/>
        <path id="Helvetica-4f" d="M 2469 4716 
Q 3684 4716 4269 3934 
Q 4725 3325 4725 2375 
Q 4725 1347 4203 666 
Q 3591 -134 2456 -134 
Q 1397 -134 791 566 
Q 250 1241 250 2272 
Q 250 3203 713 3866 
Q 1306 4716 2469 4716 
z
M 2531 422 
Q 3353 422 3720 1011 
Q 4088 1600 4088 2366 
Q 4088 3175 3664 3669 
Q 3241 4163 2506 4163 
Q 1794 4163 1344 3673 
Q 894 3184 894 2231 
Q 894 1469 1280 945 
Q 1666 422 2531 422 
z
M 2488 4716 
L 2488 4716 
z
" transform="scale(0.015625)"/>
        <path id="Helvetica-53" d="M 894 1481 
Q 916 1091 1078 847 
Q 1388 391 2169 391 
Q 2519 391 2806 491 
Q 3363 684 3363 1184 
Q 3363 1559 3128 1719 
Q 2891 1875 2384 1991 
L 1763 2131 
Q 1153 2269 900 2434 
Q 463 2722 463 3294 
Q 463 3913 891 4309 
Q 1319 4706 2103 4706 
Q 2825 4706 3329 4357 
Q 3834 4009 3834 3244 
L 3250 3244 
Q 3203 3613 3050 3809 
Q 2766 4169 2084 4169 
Q 1534 4169 1293 3937 
Q 1053 3706 1053 3400 
Q 1053 3063 1334 2906 
Q 1519 2806 2169 2656 
L 2813 2509 
Q 3278 2403 3531 2219 
Q 3969 1897 3969 1284 
Q 3969 522 3414 194 
Q 2859 -134 2125 -134 
Q 1269 -134 784 303 
Q 300 738 309 1481 
L 894 1481 
z
M 2150 4716 
L 2150 4716 
z
" transform="scale(0.015625)"/>
       </defs>
       <use xlink:href="#Helvetica-49"/>
       <use xlink:href="#Helvetica-43" x="27.783203"/>
       <use xlink:href="#Helvetica-4f" x="100"/>
       <use xlink:href="#Helvetica-53" x="177.783203"/>
       <use xlink:href="#Helvetica-2b" x="244.482422"/>
       <use xlink:href="#Helvetica-20" x="302.880859"/>
       <use xlink:href="#Helvetica-43" x="330.664062"/>
       <use xlink:href="#Helvetica-65" x="402.880859"/>
       <use xlink:href="#Helvetica-6c" x="458.496094"/>
       <use xlink:href="#Helvetica-6c" x="480.712891"/>
       <use xlink:href="#Helvetica-73" x="502.929688"/>
      </g>
     </g>
    </g>
   </g>
   <g id="matplotlib.axis_2">
    <g id="ytick_1">
     <g id="line2d_1">
      <defs>
       <path id="m3569d745a6" d="M 0 0 
L -1 0 
" style="stroke: #777777; stroke-width: 0.5"/>
      </defs>
      <g>
       <use xlink:href="#m3569d745a6" x="10.005084" y="66.189518" style="fill: #777777; stroke: #777777; stroke-width: 0.5"/>
      </g>
     </g>
     <g id="text_3">
      <!-- 0 -->
      <g style="fill: #333333" transform="translate(6.336802 67.265534) scale(0.03 -0.03)">
       <defs>
        <path id="Helvetica-30" d="M 1731 4475 
Q 2600 4475 2988 3759 
Q 3288 3206 3288 2244 
Q 3288 1331 3016 734 
Q 2622 -122 1728 -122 
Q 922 -122 528 578 
Q 200 1163 200 2147 
Q 200 2909 397 3456 
Q 766 4475 1731 4475 
z
M 1725 391 
Q 2163 391 2422 778 
Q 2681 1166 2681 2222 
Q 2681 2984 2493 3476 
Q 2306 3969 1766 3969 
Q 1269 3969 1039 3501 
Q 809 3034 809 2125 
Q 809 1441 956 1025 
Q 1181 391 1725 391 
z
" transform="scale(0.015625)"/>
       </defs>
       <use xlink:href="#Helvetica-30"/>
      </g>
     </g>
    </g>
    <g id="ytick_2">
     <g id="line2d_2">
      <g>
       <use xlink:href="#m3569d745a6" x="10.005084" y="55.837308" style="fill: #777777; stroke: #777777; stroke-width: 0.5"/>
      </g>
     </g>
     <g id="text_4">
      <!-- 20 -->
      <g style="fill: #333333" transform="translate(4.668521 56.913323) scale(0.03 -0.03)">
       <defs>
        <path id="Helvetica-32" d="M 200 0 
Q 231 578 439 1006 
Q 647 1434 1250 1784 
L 1850 2131 
Q 2253 2366 2416 2531 
Q 2672 2791 2672 3125 
Q 2672 3516 2437 3745 
Q 2203 3975 1813 3975 
Q 1234 3975 1013 3538 
Q 894 3303 881 2888 
L 309 2888 
Q 319 3472 525 3841 
Q 891 4491 1816 4491 
Q 2584 4491 2939 4075 
Q 3294 3659 3294 3150 
Q 3294 2613 2916 2231 
Q 2697 2009 2131 1694 
L 1703 1456 
Q 1397 1288 1222 1134 
Q 909 863 828 531 
L 3272 531 
L 3272 0 
L 200 0 
z
" transform="scale(0.015625)"/>
       </defs>
       <use xlink:href="#Helvetica-32"/>
       <use xlink:href="#Helvetica-30" x="55.615234"/>
      </g>
     </g>
    </g>
    <g id="ytick_3">
     <g id="line2d_3">
      <g>
       <use xlink:href="#m3569d745a6" x="10.005084" y="45.485097" style="fill: #777777; stroke: #777777; stroke-width: 0.5"/>
      </g>
     </g>
     <g id="text_5">
      <!-- 40 -->
      <g style="fill: #333333" transform="translate(4.668521 46.561113) scale(0.03 -0.03)">
       <defs>
        <path id="Helvetica-34" d="M 2116 1584 
L 2116 3613 
L 681 1584 
L 2116 1584 
z
M 2125 0 
L 2125 1094 
L 163 1094 
L 163 1644 
L 2213 4488 
L 2688 4488 
L 2688 1584 
L 3347 1584 
L 3347 1094 
L 2688 1094 
L 2688 0 
L 2125 0 
z
" transform="scale(0.015625)"/>
       </defs>
       <use xlink:href="#Helvetica-34"/>
       <use xlink:href="#Helvetica-30" x="55.615234"/>
      </g>
     </g>
    </g>
    <g id="ytick_4">
     <g id="line2d_4">
      <g>
       <use xlink:href="#m3569d745a6" x="10.005084" y="35.132887" style="fill: #777777; stroke: #777777; stroke-width: 0.5"/>
      </g>
     </g>
     <g id="text_6">
      <!-- 60 -->
      <g style="fill: #333333" transform="translate(4.668521 36.208903) scale(0.03 -0.03)">
       <defs>
        <path id="Helvetica-36" d="M 1872 4494 
Q 2622 4494 2917 4105 
Q 3213 3716 3213 3303 
L 2656 3303 
Q 2606 3569 2497 3719 
Q 2294 4000 1881 4000 
Q 1409 4000 1131 3564 
Q 853 3128 822 2316 
Q 1016 2600 1309 2741 
Q 1578 2866 1909 2866 
Q 2472 2866 2890 2506 
Q 3309 2147 3309 1434 
Q 3309 825 2912 354 
Q 2516 -116 1781 -116 
Q 1153 -116 697 361 
Q 241 838 241 1966 
Q 241 2800 444 3381 
Q 834 4494 1872 4494 
z
M 1831 384 
Q 2275 384 2495 682 
Q 2716 981 2716 1388 
Q 2716 1731 2519 2042 
Q 2322 2353 1803 2353 
Q 1441 2353 1167 2112 
Q 894 1872 894 1388 
Q 894 963 1142 673 
Q 1391 384 1831 384 
z
" transform="scale(0.015625)"/>
       </defs>
       <use xlink:href="#Helvetica-36"/>
       <use xlink:href="#Helvetica-30" x="55.615234"/>
      </g>
     </g>
    </g>
    <g id="ytick_5">
     <g id="line2d_5">
      <g>
       <use xlink:href="#m3569d745a6" x="10.005084" y="24.780677" style="fill: #777777; stroke: #777777; stroke-width: 0.5"/>
      </g>
     </g>
     <g id="text_7">
      <!-- 80 -->
      <g style="fill: #333333" transform="translate(4.668521 25.856692) scale(0.03 -0.03)">
       <defs>
        <path id="Helvetica-38" d="M 1741 2600 
Q 2113 2600 2322 2808 
Q 2531 3016 2531 3303 
Q 2531 3553 2331 3762 
Q 2131 3972 1722 3972 
Q 1316 3972 1134 3762 
Q 953 3553 953 3272 
Q 953 2956 1187 2778 
Q 1422 2600 1741 2600 
z
M 1775 384 
Q 2166 384 2423 595 
Q 2681 806 2681 1225 
Q 2681 1659 2415 1884 
Q 2150 2109 1734 2109 
Q 1331 2109 1076 1879 
Q 822 1650 822 1244 
Q 822 894 1055 639 
Q 1288 384 1775 384 
z
M 975 2384 
Q 741 2484 609 2619 
Q 363 2869 363 3269 
Q 363 3769 725 4128 
Q 1088 4488 1753 4488 
Q 2397 4488 2762 4148 
Q 3128 3809 3128 3356 
Q 3128 2938 2916 2678 
Q 2797 2531 2547 2391 
Q 2825 2263 2984 2097 
Q 3281 1784 3281 1284 
Q 3281 694 2884 283 
Q 2488 -128 1763 -128 
Q 1109 -128 657 226 
Q 206 581 206 1256 
Q 206 1653 400 1942 
Q 594 2231 975 2384 
z
" transform="scale(0.015625)"/>
       </defs>
       <use xlink:href="#Helvetica-38"/>
       <use xlink:href="#Helvetica-30" x="55.615234"/>
      </g>
     </g>
    </g>
    <g id="ytick_6">
     <g id="line2d_6">
      <g>
       <use xlink:href="#m3569d745a6" x="10.005084" y="14.428466" style="fill: #777777; stroke: #777777; stroke-width: 0.5"/>
      </g>
     </g>
     <g id="text_8">
      <!-- 100 -->
      <g style="fill: #333333" transform="translate(3.00024 15.504482) scale(0.03 -0.03)">
       <defs>
        <path id="Helvetica-31" d="M 613 3169 
L 613 3600 
Q 1222 3659 1462 3798 
Q 1703 3938 1822 4456 
L 2266 4456 
L 2266 0 
L 1666 0 
L 1666 3169 
L 613 3169 
z
" transform="scale(0.015625)"/>
       </defs>
       <use xlink:href="#Helvetica-31"/>
       <use xlink:href="#Helvetica-30" x="55.615234"/>
       <use xlink:href="#Helvetica-30" x="111.230469"/>
      </g>
     </g>
    </g>
    <g id="ytick_7">
     <g id="line2d_7">
      <g>
       <use xlink:href="#m3569d745a6" x="10.005084" y="4.076256" style="fill: #777777; stroke: #777777; stroke-width: 0.5"/>
      </g>
     </g>
     <g id="text_9">
      <!-- 120 -->
      <g style="fill: #333333" transform="translate(3.00024 5.152271) scale(0.03 -0.03)">
       <use xlink:href="#Helvetica-31"/>
       <use xlink:href="#Helvetica-32" x="55.615234"/>
       <use xlink:href="#Helvetica-30" x="111.230469"/>
      </g>
     </g>
    </g>
   </g>
   <g id="PolyCollection_1">
    <defs>
     <path id="m60b8d86bc5" d="M 21.809336 -18.685224 
L 19.778169 -18.685224 
L 19.578077 -18.692149 
L 19.351396 -18.699073 
L 19.097173 -18.705997 
L 18.814895 -18.712922 
L 18.504565 -18.719846 
L 18.166767 -18.72677 
L 17.802739 -18.733694 
L 17.414428 -18.740619 
L 17.004552 -18.747543 
L 16.576637 -18.754467 
L 16.135045 -18.761392 
L 15.684976 -18.768316 
L 15.23244 -18.77524 
L 14.784181 -18.782165 
L 14.347563 -18.789089 
L 13.930392 -18.796013 
L 13.540694 -18.802938 
L 13.186438 -18.809862 
L 12.875221 -18.816786 
L 12.613927 -18.823711 
L 12.408396 -18.830635 
L 12.263104 -18.837559 
L 12.180899 -18.844484 
L 12.162818 -18.851408 
L 12.207987 -18.858332 
L 12.31364 -18.865257 
L 12.475238 -18.872181 
L 12.686701 -18.879105 
L 12.940714 -18.88603 
L 13.229106 -18.892954 
L 13.54325 -18.899878 
L 13.874465 -18.906803 
L 14.214383 -18.913727 
L 14.555254 -18.920651 
L 14.890177 -18.927576 
L 15.213239 -18.9345 
L 15.519572 -18.941424 
L 15.805332 -18.948349 
L 16.067619 -18.955273 
L 16.304361 -18.962197 
L 16.514182 -18.969122 
L 16.696271 -18.976046 
L 16.850286 -18.98297 
L 16.97627 -18.989895 
L 17.074623 -18.996819 
L 17.146095 -19.003743 
L 17.191805 -19.010668 
L 17.213275 -19.017592 
L 17.212462 -19.024516 
L 17.19178 -19.031441 
L 17.154097 -19.038365 
L 17.1027 -19.045289 
L 17.041233 -19.052214 
L 16.9736 -19.059138 
L 16.903843 -19.066062 
L 16.836008 -19.072987 
L 16.773989 -19.079911 
L 16.721384 -19.086835 
L 16.681351 -19.09376 
L 16.656482 -19.100684 
L 16.6487 -19.107608 
L 16.659182 -19.114533 
L 16.688308 -19.121457 
L 16.735648 -19.128381 
L 16.799981 -19.135306 
L 16.879351 -19.14223 
L 16.971161 -19.149154 
L 17.072298 -19.156078 
L 17.179296 -19.163003 
L 17.288516 -19.169927 
L 17.396357 -19.176851 
L 17.499462 -19.183776 
L 17.594928 -19.1907 
L 17.68049 -19.197624 
L 17.754676 -19.204549 
L 17.816908 -19.211473 
L 17.867553 -19.218397 
L 17.907904 -19.225322 
L 17.9401 -19.232246 
L 17.966978 -19.23917 
L 17.991881 -19.246095 
L 18.018423 -19.253019 
L 18.050235 -19.259943 
L 18.090715 -19.266868 
L 18.14279 -19.273792 
L 18.208727 -19.280716 
L 18.289983 -19.287641 
L 18.387127 -19.294565 
L 18.499826 -19.301489 
L 18.626888 -19.308414 
L 18.766369 -19.315338 
L 18.915722 -19.322262 
L 19.071973 -19.329187 
L 19.231922 -19.336111 
L 19.392328 -19.343035 
L 19.55009 -19.34996 
L 19.702399 -19.356884 
L 19.846851 -19.363808 
L 19.981524 -19.370733 
L 21.605981 -19.370733 
L 21.605981 -19.370733 
L 21.740655 -19.363808 
L 21.885106 -19.356884 
L 22.037415 -19.34996 
L 22.195178 -19.343035 
L 22.355583 -19.336111 
L 22.515532 -19.329187 
L 22.671784 -19.322262 
L 22.821136 -19.315338 
L 22.960617 -19.308414 
L 23.087679 -19.301489 
L 23.200378 -19.294565 
L 23.297523 -19.287641 
L 23.378779 -19.280716 
L 23.444715 -19.273792 
L 23.496791 -19.266868 
L 23.537271 -19.259943 
L 23.569083 -19.253019 
L 23.595625 -19.246095 
L 23.620528 -19.23917 
L 23.647406 -19.232246 
L 23.679601 -19.225322 
L 23.719953 -19.218397 
L 23.770598 -19.211473 
L 23.83283 -19.204549 
L 23.907015 -19.197624 
L 23.992578 -19.1907 
L 24.088044 -19.183776 
L 24.191149 -19.176851 
L 24.298989 -19.169927 
L 24.40821 -19.163003 
L 24.515207 -19.156078 
L 24.616345 -19.149154 
L 24.708155 -19.14223 
L 24.787525 -19.135306 
L 24.851858 -19.128381 
L 24.899197 -19.121457 
L 24.928323 -19.114533 
L 24.938805 -19.107608 
L 24.931024 -19.100684 
L 24.906155 -19.09376 
L 24.866122 -19.086835 
L 24.813516 -19.079911 
L 24.751498 -19.072987 
L 24.683662 -19.066062 
L 24.613906 -19.059138 
L 24.546272 -19.052214 
L 24.484805 -19.045289 
L 24.433408 -19.038365 
L 24.395725 -19.031441 
L 24.375044 -19.024516 
L 24.374231 -19.017592 
L 24.3957 -19.010668 
L 24.44141 -19.003743 
L 24.512882 -18.996819 
L 24.611236 -18.989895 
L 24.73722 -18.98297 
L 24.891234 -18.976046 
L 25.073324 -18.969122 
L 25.283144 -18.962197 
L 25.519887 -18.955273 
L 25.782174 -18.948349 
L 26.067934 -18.941424 
L 26.374267 -18.9345 
L 26.697328 -18.927576 
L 27.032251 -18.920651 
L 27.373123 -18.913727 
L 27.713041 -18.906803 
L 28.044256 -18.899878 
L 28.3584 -18.892954 
L 28.646792 -18.88603 
L 28.900805 -18.879105 
L 29.112267 -18.872181 
L 29.273866 -18.865257 
L 29.379519 -18.858332 
L 29.424688 -18.851408 
L 29.406607 -18.844484 
L 29.324402 -18.837559 
L 29.179109 -18.830635 
L 28.973578 -18.823711 
L 28.712285 -18.816786 
L 28.401067 -18.809862 
L 28.046811 -18.802938 
L 27.657114 -18.796013 
L 27.239943 -18.789089 
L 26.803324 -18.782165 
L 26.355066 -18.77524 
L 25.902529 -18.768316 
L 25.452461 -18.761392 
L 25.010869 -18.754467 
L 24.582953 -18.747543 
L 24.173077 -18.740619 
L 23.784767 -18.733694 
L 23.420739 -18.72677 
L 23.082941 -18.719846 
L 22.772611 -18.712922 
L 22.490333 -18.705997 
L 22.23611 -18.699073 
L 22.009429 -18.692149 
L 21.809336 -18.685224 
z
" style="stroke: #6f6f6f; stroke-width: 0.15"/>
    </defs>
    <g clip-path="url(#pd3e1264ce9)">
     <use xlink:href="#m60b8d86bc5" x="0" y="84.96" style="fill: #d6bba3; stroke: #6f6f6f; stroke-width: 0.15"/>
    </g>
   </g>
   <g id="PolyCollection_2">
    <defs>
     <path id="mfbcbacb05a" d="M 44.206088 -18.257549 
L 40.536094 -18.257549 
L 40.222802 -18.301631 
L 39.881934 -18.345713 
L 39.516538 -18.389796 
L 39.130842 -18.433878 
L 38.730209 -18.47796 
L 38.321014 -18.522043 
L 37.910459 -18.566125 
L 37.506308 -18.610207 
L 37.116574 -18.65429 
L 36.749156 -18.698372 
L 36.411465 -18.742454 
L 36.110052 -18.786537 
L 35.850264 -18.830619 
L 35.63597 -18.874701 
L 35.469349 -18.918784 
L 35.350788 -18.962866 
L 35.278878 -19.006948 
L 35.250513 -19.051031 
L 35.26109 -19.095113 
L 35.304786 -19.139195 
L 35.374897 -19.183278 
L 35.4642 -19.22736 
L 35.565332 -19.271443 
L 35.671134 -19.315525 
L 35.774954 -19.359607 
L 35.870884 -19.40369 
L 35.953925 -19.447772 
L 36.02007 -19.491854 
L 36.066322 -19.535937 
L 36.090644 -19.580019 
L 36.091866 -19.624101 
L 36.069569 -19.668184 
L 36.023951 -19.712266 
L 35.955711 -19.756348 
L 35.865947 -19.800431 
L 35.756092 -19.844513 
L 35.627876 -19.888595 
L 35.483331 -19.932678 
L 35.324815 -19.97676 
L 35.155055 -20.020842 
L 34.9772 -20.064925 
L 34.794862 -20.109007 
L 34.612137 -20.153089 
L 34.433595 -20.197172 
L 34.264229 -20.241254 
L 34.109359 -20.285337 
L 33.974491 -20.329419 
L 33.865125 -20.373501 
L 33.786539 -20.417584 
L 33.743529 -20.461666 
L 33.740156 -20.505748 
L 33.779481 -20.549831 
L 33.86333 -20.593913 
L 33.992094 -20.637995 
L 34.164582 -20.682078 
L 34.37795 -20.72616 
L 34.627698 -20.770242 
L 34.907759 -20.814325 
L 35.210673 -20.858407 
L 35.527838 -20.902489 
L 35.849837 -20.946572 
L 36.166817 -20.990654 
L 36.468913 -21.034736 
L 36.746681 -21.078819 
L 36.991534 -21.122901 
L 37.196148 -21.166983 
L 37.354817 -21.211066 
L 37.463741 -21.255148 
L 37.521231 -21.299231 
L 37.527813 -21.343313 
L 37.486237 -21.387395 
L 37.401374 -21.431478 
L 37.280018 -21.47556 
L 37.13059 -21.519642 
L 36.962771 -21.563725 
L 36.787067 -21.607807 
L 36.614343 -21.651889 
L 36.455337 -21.695972 
L 36.320184 -21.740054 
L 36.217979 -21.784136 
L 36.156391 -21.828219 
L 36.141361 -21.872301 
L 36.176882 -21.916383 
L 36.264892 -21.960466 
L 36.405263 -22.004548 
L 36.595891 -22.04863 
L 36.83289 -22.092713 
L 37.110847 -22.136795 
L 37.423148 -22.180877 
L 37.762342 -22.22496 
L 38.120509 -22.269042 
L 38.489634 -22.313125 
L 38.861945 -22.357207 
L 39.23021 -22.401289 
L 39.58798 -22.445372 
L 39.929762 -22.489454 
L 40.251126 -22.533536 
L 40.548759 -22.577619 
L 40.820439 -22.621701 
L 43.921743 -22.621701 
L 43.921743 -22.621701 
L 44.193423 -22.577619 
L 44.491056 -22.533536 
L 44.81242 -22.489454 
L 45.154201 -22.445372 
L 45.511972 -22.401289 
L 45.880237 -22.357207 
L 46.252548 -22.313125 
L 46.621673 -22.269042 
L 46.97984 -22.22496 
L 47.319033 -22.180877 
L 47.631335 -22.136795 
L 47.909292 -22.092713 
L 48.146291 -22.04863 
L 48.336919 -22.004548 
L 48.47729 -21.960466 
L 48.5653 -21.916383 
L 48.600821 -21.872301 
L 48.585791 -21.828219 
L 48.524203 -21.784136 
L 48.421998 -21.740054 
L 48.286845 -21.695972 
L 48.127839 -21.651889 
L 47.955115 -21.607807 
L 47.779411 -21.563725 
L 47.611591 -21.519642 
L 47.462164 -21.47556 
L 47.340808 -21.431478 
L 47.255945 -21.387395 
L 47.214369 -21.343313 
L 47.220951 -21.299231 
L 47.278441 -21.255148 
L 47.387365 -21.211066 
L 47.546034 -21.166983 
L 47.750648 -21.122901 
L 47.995501 -21.078819 
L 48.273269 -21.034736 
L 48.575364 -20.990654 
L 48.892345 -20.946572 
L 49.214344 -20.902489 
L 49.531509 -20.858407 
L 49.834423 -20.814325 
L 50.114484 -20.770242 
L 50.364232 -20.72616 
L 50.5776 -20.682078 
L 50.750088 -20.637995 
L 50.878852 -20.593913 
L 50.962701 -20.549831 
L 51.002026 -20.505748 
L 50.998653 -20.461666 
L 50.955643 -20.417584 
L 50.877056 -20.373501 
L 50.767691 -20.329419 
L 50.632823 -20.285337 
L 50.477953 -20.241254 
L 50.308587 -20.197172 
L 50.130045 -20.153089 
L 49.94732 -20.109007 
L 49.764982 -20.064925 
L 49.587127 -20.020842 
L 49.417367 -19.97676 
L 49.25885 -19.932678 
L 49.114306 -19.888595 
L 48.98609 -19.844513 
L 48.876235 -19.800431 
L 48.786471 -19.756348 
L 48.71823 -19.712266 
L 48.672613 -19.668184 
L 48.650316 -19.624101 
L 48.651538 -19.580019 
L 48.67586 -19.535937 
L 48.722112 -19.491854 
L 48.788257 -19.447772 
L 48.871298 -19.40369 
L 48.967228 -19.359607 
L 49.071048 -19.315525 
L 49.17685 -19.271443 
L 49.277982 -19.22736 
L 49.367285 -19.183278 
L 49.437395 -19.139195 
L 49.481092 -19.095113 
L 49.491669 -19.051031 
L 49.463304 -19.006948 
L 49.391394 -18.962866 
L 49.272833 -18.918784 
L 49.106212 -18.874701 
L 48.891917 -18.830619 
L 48.63213 -18.786537 
L 48.330717 -18.742454 
L 47.993026 -18.698372 
L 47.625608 -18.65429 
L 47.235874 -18.610207 
L 46.831723 -18.566125 
L 46.421168 -18.522043 
L 46.011973 -18.47796 
L 45.61134 -18.433878 
L 45.225644 -18.389796 
L 44.860248 -18.345713 
L 44.519379 -18.301631 
L 44.206088 -18.257549 
z
" style="stroke: #6f6f6f; stroke-width: 0.15"/>
    </defs>
    <g clip-path="url(#pd3e1264ce9)">
     <use xlink:href="#mfbcbacb05a" x="0" y="84.96" style="fill: #f1b9e0; stroke: #6f6f6f; stroke-width: 0.15"/>
    </g>
   </g>
   <g id="line2d_8">
    <path d="M 20.793753 66.18248 
L 20.793753 65.681563 
" clip-path="url(#pd3e1264ce9)" style="fill: none; stroke: #8c8c8c; stroke-width: 0.75; stroke-linecap: round"/>
   </g>
   <g id="line2d_9">
    <path d="M 20.793753 66.108546 
L 20.793753 65.865962 
" clip-path="url(#pd3e1264ce9)" style="fill: none; stroke: #8c8c8c; stroke-width: 4; stroke-linecap: round"/>
   </g>
   <g id="line2d_10">
    <path d="M 20.793753 66.049901 
" clip-path="url(#pd3e1264ce9)" style="fill: none; stroke: #6f6f6f; stroke-width: 1.2; stroke-linecap: round"/>
    <defs>
     <path id="mc7946081b5" d="M 0 0.833333 
C 0.221003 0.833333 0.432983 0.745528 0.589256 0.589256 
C 0.745528 0.432983 0.833333 0.221003 0.833333 0 
C 0.833333 -0.221003 0.745528 -0.432983 0.589256 -0.589256 
C 0.432983 -0.745528 0.221003 -0.833333 0 -0.833333 
C -0.221003 -0.833333 -0.432983 -0.745528 -0.589256 -0.589256 
C -0.745528 -0.432983 -0.833333 -0.221003 -0.833333 0 
C -0.833333 0.221003 -0.745528 0.432983 -0.589256 0.589256 
C -0.432983 0.745528 -0.221003 0.833333 0 0.833333 
z
" style="stroke: #ffffff; stroke-width: 0.8"/>
    </defs>
    <g clip-path="url(#pd3e1264ce9)">
     <use xlink:href="#mc7946081b5" x="20.793753" y="66.049901" style="fill: #ffffff; stroke: #ffffff; stroke-width: 0.8"/>
    </g>
   </g>
   <g id="line2d_11">
    <path d="M 42.371091 66.087458 
L 42.371091 62.953293 
" clip-path="url(#pd3e1264ce9)" style="fill: none; stroke: #8c8c8c; stroke-width: 0.75; stroke-linecap: round"/>
   </g>
   <g id="line2d_12">
    <path d="M 42.371091 65.453719 
L 42.371091 63.929221 
" clip-path="url(#pd3e1264ce9)" style="fill: none; stroke: #8c8c8c; stroke-width: 4; stroke-linecap: round"/>
   </g>
   <g id="line2d_13">
    <path d="M 42.371091 64.550387 
" clip-path="url(#pd3e1264ce9)" style="fill: none; stroke: #6f6f6f; stroke-width: 1.2; stroke-linecap: round"/>
    <g clip-path="url(#pd3e1264ce9)">
     <use xlink:href="#mc7946081b5" x="42.371091" y="64.550387" style="fill: #ffffff; stroke: #ffffff; stroke-width: 0.8"/>
    </g>
   </g>
   <g id="patch_3">
    <path d="M 10.005084 74.419526 
L 10.005084 4.076256 
" style="fill: none; stroke: #777777; stroke-width: 0.5; stroke-linejoin: miter; stroke-linecap: square"/>
   </g>
   <g id="patch_4">
    <path d="M 10.005084 76.919526 
L 53.15976 76.919526 
" style="fill: none; stroke: #777777; stroke-width: 0.5; stroke-linejoin: miter; stroke-linecap: square"/>
   </g>
  </g>
 </g>
 <defs>
  <clipPath id="pd3e1264ce9">
   <rect x="10.005084" y="4.076256" width="43.154676" height="70.34327"/>
  </clipPath>
 </defs>
</svg>
