<?xml version="1.0" encoding="utf-8" standalone="no"?>
<!DOCTYPE svg PUBLIC "-//W3C//DTD SVG 1.1//EN"
  "http://www.w3.org/Graphics/SVG/1.1/DTD/svg11.dtd">
<svg xmlns:xlink="http://www.w3.org/1999/xlink" width="84.96pt" height="84.96pt" viewBox="0 0 84.96 84.96" xmlns="http://www.w3.org/2000/svg" version="1.1">
 <metadata>
  <rdf:RDF xmlns:dc="http://purl.org/dc/elements/1.1/" xmlns:cc="http://creativecommons.org/ns#" xmlns:rdf="http://www.w3.org/1999/02/22-rdf-syntax-ns#">
   <cc:Work>
    <dc:type rdf:resource="http://purl.org/dc/dcmitype/StillImage"/>
    <dc:date>2024-05-27T15:37:10.753372</dc:date>
    <dc:format>image/svg+xml</dc:format>
    <dc:creator>
     <cc:Agent>
      <dc:title>Matplotlib v3.8.3, https://matplotlib.org/</dc:title>
     </cc:Agent>
    </dc:creator>
   </cc:Work>
  </rdf:RDF>
 </metadata>
 <defs>
  <style type="text/css">*{stroke-linejoin: round; stroke-linecap: butt}</style>
 </defs>
 <g id="figure_1">
  <g id="patch_1">
   <path d="M 0 84.96 
L 84.96 84.96 
L 84.96 0 
L 0 0 
z
" style="fill: #ffffff"/>
  </g>
  <g id="axes_1">
   <g id="patch_2">
    <path d="M 13.341646 74.419526 
L 81.95976 74.419526 
L 81.95976 4.076256 
L 13.341646 4.076256 
z
" style="fill: #ffffff"/>
   </g>
   <g id="matplotlib.axis_1">
    <g id="xtick_1">
     <g id="text_1">
      <!-- B -->
      <g style="fill: #333333" transform="translate(23.610694 81.230229) scale(0.035 -0.035)">
       <defs>
        <path id="Helvetica-42" d="M 2213 2650 
Q 2606 2650 2825 2759 
Q 3169 2931 3169 3378 
Q 3169 3828 2803 3984 
Q 2597 4072 2191 4072 
L 1081 4072 
L 1081 2650 
L 2213 2650 
z
M 2422 531 
Q 2994 531 3238 863 
Q 3391 1072 3391 1369 
Q 3391 1869 2944 2050 
Q 2706 2147 2316 2147 
L 1081 2147 
L 1081 531 
L 2422 531 
z
M 472 4591 
L 2444 4591 
Q 3250 4591 3591 4109 
Q 3791 3825 3791 3453 
Q 3791 3019 3544 2741 
Q 3416 2594 3175 2472 
Q 3528 2338 3703 2169 
Q 4013 1869 4013 1341 
Q 4013 897 3734 538 
Q 3319 0 2413 0 
L 472 0 
L 472 4591 
z
" transform="scale(0.015625)"/>
       </defs>
       <use xlink:href="#Helvetica-42"/>
      </g>
     </g>
    </g>
    <g id="xtick_2">
     <g id="text_2">
      <!-- T -->
      <g style="fill: #333333" transform="translate(46.581836 81.230229) scale(0.035 -0.035)">
       <defs>
        <path id="Helvetica-54" d="M 3828 4591 
L 3828 4044 
L 2281 4044 
L 2281 0 
L 1650 0 
L 1650 4044 
L 103 4044 
L 103 4591 
L 3828 4591 
z
" transform="scale(0.015625)"/>
       </defs>
       <use xlink:href="#Helvetica-54"/>
      </g>
     </g>
    </g>
    <g id="xtick_3">
     <g id="text_3">
      <!-- IL7R Non B/T -->
      <g style="fill: #333333" transform="translate(59.922236 81.230229) scale(0.035 -0.035)">
       <defs>
        <path id="Helvetica-49" d="M 628 4591 
L 1256 4591 
L 1256 0 
L 628 0 
L 628 4591 
z
" transform="scale(0.015625)"/>
        <path id="Helvetica-4c" d="M 488 4591 
L 1109 4591 
L 1109 547 
L 3434 547 
L 3434 0 
L 488 0 
L 488 4591 
z
" transform="scale(0.015625)"/>
        <path id="Helvetica-37" d="M 3347 4400 
L 3347 3909 
Q 3131 3700 2773 3181 
Q 2416 2663 2141 2063 
Q 1869 1478 1728 997 
Q 1638 688 1494 0 
L 872 0 
Q 1084 1281 1809 2550 
Q 2238 3294 2709 3834 
L 234 3834 
L 234 4400 
L 3347 4400 
z
" transform="scale(0.015625)"/>
        <path id="Helvetica-52" d="M 2622 2488 
Q 3059 2488 3314 2663 
Q 3569 2838 3569 3294 
Q 3569 3784 3213 3963 
Q 3022 4056 2703 4056 
L 1184 4056 
L 1184 2488 
L 2622 2488 
z
M 563 4591 
L 2688 4591 
Q 3213 4591 3553 4438 
Q 4200 4144 4200 3353 
Q 4200 2941 4029 2678 
Q 3859 2416 3553 2256 
Q 3822 2147 3958 1969 
Q 4094 1791 4109 1391 
L 4131 775 
Q 4141 513 4175 384 
Q 4231 166 4375 103 
L 4375 0 
L 3613 0 
Q 3581 59 3562 153 
Q 3544 247 3531 516 
L 3494 1281 
Q 3472 1731 3159 1884 
Q 2981 1969 2600 1969 
L 1184 1969 
L 1184 0 
L 563 0 
L 563 4591 
z
" transform="scale(0.015625)"/>
        <path id="Helvetica-20" transform="scale(0.015625)"/>
        <path id="Helvetica-4e" d="M 488 4591 
L 1222 4591 
L 3541 872 
L 3541 4591 
L 4131 4591 
L 4131 0 
L 3434 0 
L 1081 3716 
L 1081 0 
L 488 0 
L 488 4591 
z
M 2269 4591 
L 2269 4591 
z
" transform="scale(0.015625)"/>
        <path id="Helvetica-6f" d="M 1741 363 
Q 2300 363 2508 786 
Q 2716 1209 2716 1728 
Q 2716 2197 2566 2491 
Q 2328 2953 1747 2953 
Q 1231 2953 997 2559 
Q 763 2166 763 1609 
Q 763 1075 997 719 
Q 1231 363 1741 363 
z
M 1763 3444 
Q 2409 3444 2856 3012 
Q 3303 2581 3303 1744 
Q 3303 934 2909 406 
Q 2516 -122 1688 -122 
Q 997 -122 590 345 
Q 184 813 184 1600 
Q 184 2444 612 2944 
Q 1041 3444 1763 3444 
z
M 1744 3428 
L 1744 3428 
z
" transform="scale(0.015625)"/>
        <path id="Helvetica-6e" d="M 413 3347 
L 947 3347 
L 947 2872 
Q 1184 3166 1450 3294 
Q 1716 3422 2041 3422 
Q 2753 3422 3003 2925 
Q 3141 2653 3141 2147 
L 3141 0 
L 2569 0 
L 2569 2109 
Q 2569 2416 2478 2603 
Q 2328 2916 1934 2916 
Q 1734 2916 1606 2875 
Q 1375 2806 1200 2600 
Q 1059 2434 1017 2257 
Q 975 2081 975 1753 
L 975 0 
L 413 0 
L 413 3347 
z
M 1734 3428 
L 1734 3428 
z
" transform="scale(0.015625)"/>
        <path id="Helvetica-2f" d="M 1456 4591 
L 1931 4591 
L 475 0 
L 0 0 
L 1456 4591 
z
" transform="scale(0.015625)"/>
       </defs>
       <use xlink:href="#Helvetica-49"/>
       <use xlink:href="#Helvetica-4c" x="27.783203"/>
       <use xlink:href="#Helvetica-37" x="83.398438"/>
       <use xlink:href="#Helvetica-52" x="139.013672"/>
       <use xlink:href="#Helvetica-20" x="211.230469"/>
       <use xlink:href="#Helvetica-4e" x="239.013672"/>
       <use xlink:href="#Helvetica-6f" x="311.230469"/>
       <use xlink:href="#Helvetica-6e" x="366.845703"/>
       <use xlink:href="#Helvetica-20" x="422.460938"/>
       <use xlink:href="#Helvetica-42" x="450.244141"/>
       <use xlink:href="#Helvetica-2f" x="516.943359"/>
       <use xlink:href="#Helvetica-54" x="544.726562"/>
      </g>
     </g>
    </g>
   </g>
   <g id="matplotlib.axis_2">
    <g id="ytick_1">
     <g id="line2d_1">
      <defs>
       <path id="m0ed6039d05" d="M 0 0 
L -1 0 
" style="stroke: #777777; stroke-width: 0.5"/>
      </defs>
      <g>
       <use xlink:href="#m0ed6039d05" x="13.341646" y="68.030497" style="fill: #777777; stroke: #777777; stroke-width: 0.5"/>
      </g>
     </g>
     <g id="text_4">
      <!-- 0 -->
      <g style="fill: #333333" transform="translate(9.673365 69.106513) scale(0.03 -0.03)">
       <defs>
        <path id="Helvetica-30" d="M 1731 4475 
Q 2600 4475 2988 3759 
Q 3288 3206 3288 2244 
Q 3288 1331 3016 734 
Q 2622 -122 1728 -122 
Q 922 -122 528 578 
Q 200 1163 200 2147 
Q 200 2909 397 3456 
Q 766 4475 1731 4475 
z
M 1725 391 
Q 2163 391 2422 778 
Q 2681 1166 2681 2222 
Q 2681 2984 2493 3476 
Q 2306 3969 1766 3969 
Q 1269 3969 1039 3501 
Q 809 3034 809 2125 
Q 809 1441 956 1025 
Q 1181 391 1725 391 
z
" transform="scale(0.015625)"/>
       </defs>
       <use xlink:href="#Helvetica-30"/>
      </g>
     </g>
    </g>
    <g id="ytick_2">
     <g id="line2d_2">
      <g>
       <use xlink:href="#m0ed6039d05" x="13.341646" y="55.239649" style="fill: #777777; stroke: #777777; stroke-width: 0.5"/>
      </g>
     </g>
     <g id="text_5">
      <!-- 2000 -->
      <g style="fill: #333333" transform="translate(4.668521 56.315664) scale(0.03 -0.03)">
       <defs>
        <path id="Helvetica-32" d="M 200 0 
Q 231 578 439 1006 
Q 647 1434 1250 1784 
L 1850 2131 
Q 2253 2366 2416 2531 
Q 2672 2791 2672 3125 
Q 2672 3516 2437 3745 
Q 2203 3975 1813 3975 
Q 1234 3975 1013 3538 
Q 894 3303 881 2888 
L 309 2888 
Q 319 3472 525 3841 
Q 891 4491 1816 4491 
Q 2584 4491 2939 4075 
Q 3294 3659 3294 3150 
Q 3294 2613 2916 2231 
Q 2697 2009 2131 1694 
L 1703 1456 
Q 1397 1288 1222 1134 
Q 909 863 828 531 
L 3272 531 
L 3272 0 
L 200 0 
z
" transform="scale(0.015625)"/>
       </defs>
       <use xlink:href="#Helvetica-32"/>
       <use xlink:href="#Helvetica-30" x="55.615234"/>
       <use xlink:href="#Helvetica-30" x="111.230469"/>
       <use xlink:href="#Helvetica-30" x="166.845703"/>
      </g>
     </g>
    </g>
    <g id="ytick_3">
     <g id="line2d_3">
      <g>
       <use xlink:href="#m0ed6039d05" x="13.341646" y="42.4488" style="fill: #777777; stroke: #777777; stroke-width: 0.5"/>
      </g>
     </g>
     <g id="text_6">
      <!-- 4000 -->
      <g style="fill: #333333" transform="translate(4.668521 43.524816) scale(0.03 -0.03)">
       <defs>
        <path id="Helvetica-34" d="M 2116 1584 
L 2116 3613 
L 681 1584 
L 2116 1584 
z
M 2125 0 
L 2125 1094 
L 163 1094 
L 163 1644 
L 2213 4488 
L 2688 4488 
L 2688 1584 
L 3347 1584 
L 3347 1094 
L 2688 1094 
L 2688 0 
L 2125 0 
z
" transform="scale(0.015625)"/>
       </defs>
       <use xlink:href="#Helvetica-34"/>
       <use xlink:href="#Helvetica-30" x="55.615234"/>
       <use xlink:href="#Helvetica-30" x="111.230469"/>
       <use xlink:href="#Helvetica-30" x="166.845703"/>
      </g>
     </g>
    </g>
    <g id="ytick_4">
     <g id="line2d_4">
      <g>
       <use xlink:href="#m0ed6039d05" x="13.341646" y="29.657952" style="fill: #777777; stroke: #777777; stroke-width: 0.5"/>
      </g>
     </g>
     <g id="text_7">
      <!-- 6000 -->
      <g style="fill: #333333" transform="translate(4.668521 30.733968) scale(0.03 -0.03)">
       <defs>
        <path id="Helvetica-36" d="M 1872 4494 
Q 2622 4494 2917 4105 
Q 3213 3716 3213 3303 
L 2656 3303 
Q 2606 3569 2497 3719 
Q 2294 4000 1881 4000 
Q 1409 4000 1131 3564 
Q 853 3128 822 2316 
Q 1016 2600 1309 2741 
Q 1578 2866 1909 2866 
Q 2472 2866 2890 2506 
Q 3309 2147 3309 1434 
Q 3309 825 2912 354 
Q 2516 -116 1781 -116 
Q 1153 -116 697 361 
Q 241 838 241 1966 
Q 241 2800 444 3381 
Q 834 4494 1872 4494 
z
M 1831 384 
Q 2275 384 2495 682 
Q 2716 981 2716 1388 
Q 2716 1731 2519 2042 
Q 2322 2353 1803 2353 
Q 1441 2353 1167 2112 
Q 894 1872 894 1388 
Q 894 963 1142 673 
Q 1391 384 1831 384 
z
" transform="scale(0.015625)"/>
       </defs>
       <use xlink:href="#Helvetica-36"/>
       <use xlink:href="#Helvetica-30" x="55.615234"/>
       <use xlink:href="#Helvetica-30" x="111.230469"/>
       <use xlink:href="#Helvetica-30" x="166.845703"/>
      </g>
     </g>
    </g>
    <g id="ytick_5">
     <g id="line2d_5">
      <g>
       <use xlink:href="#m0ed6039d05" x="13.341646" y="16.867104" style="fill: #777777; stroke: #777777; stroke-width: 0.5"/>
      </g>
     </g>
     <g id="text_8">
      <!-- 8000 -->
      <g style="fill: #333333" transform="translate(4.668521 17.94312) scale(0.03 -0.03)">
       <defs>
        <path id="Helvetica-38" d="M 1741 2600 
Q 2113 2600 2322 2808 
Q 2531 3016 2531 3303 
Q 2531 3553 2331 3762 
Q 2131 3972 1722 3972 
Q 1316 3972 1134 3762 
Q 953 3553 953 3272 
Q 953 2956 1187 2778 
Q 1422 2600 1741 2600 
z
M 1775 384 
Q 2166 384 2423 595 
Q 2681 806 2681 1225 
Q 2681 1659 2415 1884 
Q 2150 2109 1734 2109 
Q 1331 2109 1076 1879 
Q 822 1650 822 1244 
Q 822 894 1055 639 
Q 1288 384 1775 384 
z
M 975 2384 
Q 741 2484 609 2619 
Q 363 2869 363 3269 
Q 363 3769 725 4128 
Q 1088 4488 1753 4488 
Q 2397 4488 2762 4148 
Q 3128 3809 3128 3356 
Q 3128 2938 2916 2678 
Q 2797 2531 2547 2391 
Q 2825 2263 2984 2097 
Q 3281 1784 3281 1284 
Q 3281 694 2884 283 
Q 2488 -128 1763 -128 
Q 1109 -128 657 226 
Q 206 581 206 1256 
Q 206 1653 400 1942 
Q 594 2231 975 2384 
z
" transform="scale(0.015625)"/>
       </defs>
       <use xlink:href="#Helvetica-38"/>
       <use xlink:href="#Helvetica-30" x="55.615234"/>
       <use xlink:href="#Helvetica-30" x="111.230469"/>
       <use xlink:href="#Helvetica-30" x="166.845703"/>
      </g>
     </g>
    </g>
    <g id="ytick_6">
     <g id="line2d_6">
      <g>
       <use xlink:href="#m0ed6039d05" x="13.341646" y="4.076256" style="fill: #777777; stroke: #777777; stroke-width: 0.5"/>
      </g>
     </g>
     <g id="text_9">
      <!-- 10000 -->
      <g style="fill: #333333" transform="translate(3.00024 5.152271) scale(0.03 -0.03)">
       <defs>
        <path id="Helvetica-31" d="M 613 3169 
L 613 3600 
Q 1222 3659 1462 3798 
Q 1703 3938 1822 4456 
L 2266 4456 
L 2266 0 
L 1666 0 
L 1666 3169 
L 613 3169 
z
" transform="scale(0.015625)"/>
       </defs>
       <use xlink:href="#Helvetica-31"/>
       <use xlink:href="#Helvetica-30" x="55.615234"/>
       <use xlink:href="#Helvetica-30" x="111.230469"/>
       <use xlink:href="#Helvetica-30" x="166.845703"/>
       <use xlink:href="#Helvetica-30" x="222.460938"/>
      </g>
     </g>
    </g>
   </g>
   <g id="PolyCollection_1">
    <defs>
     <path id="m23229b63c1" d="M 27.045135 -16.380881 
L 22.510862 -16.380881 
L 21.99653 -16.443614 
L 21.420968 -16.506347 
L 20.791995 -16.56908 
L 20.121717 -16.631812 
L 19.426445 -16.694545 
L 18.726237 -16.757278 
L 18.044045 -16.820011 
L 17.404497 -16.882744 
L 16.832399 -16.945476 
L 16.351078 -17.008209 
L 15.980702 -17.070942 
L 15.736772 -17.133675 
L 15.628917 -17.196408 
L 15.660128 -17.25914 
L 15.826533 -17.321873 
L 16.117711 -17.384606 
L 16.517533 -17.447339 
L 17.005434 -17.510071 
L 17.557978 -17.572804 
L 18.150555 -17.635537 
L 18.759054 -17.69827 
L 19.361348 -17.761003 
L 19.938486 -17.823735 
L 20.475494 -17.886468 
L 20.961775 -17.949201 
L 21.391111 -18.011934 
L 21.761324 -18.074667 
L 22.073677 -18.137399 
L 22.3321 -18.200132 
L 22.54236 -18.262865 
L 22.711245 -18.325598 
L 22.84583 -18.38833 
L 22.9529 -18.451063 
L 23.038524 -18.513796 
L 23.107806 -18.576529 
L 23.164792 -18.639262 
L 23.212494 -18.701994 
L 23.253016 -18.764727 
L 23.287723 -18.82746 
L 23.317436 -18.890193 
L 23.34261 -18.952926 
L 23.363479 -19.015658 
L 23.380174 -19.078391 
L 23.392779 -19.141124 
L 23.401366 -19.203857 
L 23.405993 -19.266589 
L 23.406692 -19.329322 
L 23.403455 -19.392055 
L 23.396231 -19.454788 
L 23.384936 -19.517521 
L 23.369494 -19.580253 
L 23.349883 -19.642986 
L 23.326211 -19.705719 
L 23.298782 -19.768452 
L 23.268164 -19.831185 
L 23.235223 -19.893917 
L 23.201141 -19.95665 
L 23.167372 -20.019383 
L 23.135574 -20.082116 
L 23.10748 -20.144848 
L 23.084763 -20.207581 
L 23.068862 -20.270314 
L 23.060838 -20.333047 
L 23.061243 -20.39578 
L 23.070034 -20.458512 
L 23.086555 -20.521245 
L 23.109566 -20.583978 
L 23.137344 -20.646711 
L 23.167823 -20.709443 
L 23.198766 -20.772176 
L 23.227959 -20.834909 
L 23.253393 -20.897642 
L 23.27342 -20.960375 
L 23.286895 -21.023107 
L 23.293259 -21.08584 
L 23.292591 -21.148573 
L 23.285621 -21.211306 
L 23.27369 -21.274039 
L 23.258687 -21.336771 
L 23.242939 -21.399504 
L 23.229074 -21.462237 
L 23.219859 -21.52497 
L 23.218012 -21.587702 
L 23.226014 -21.650435 
L 23.245924 -21.713168 
L 23.279211 -21.775901 
L 23.326637 -21.838634 
L 23.388175 -21.901366 
L 23.463006 -21.964099 
L 23.549565 -22.026832 
L 23.645661 -22.089565 
L 23.748638 -22.152298 
L 23.855568 -22.21503 
L 23.963461 -22.277763 
L 24.069462 -22.340496 
L 24.171022 -22.403229 
L 24.266033 -22.465961 
L 24.352901 -22.528694 
L 24.430586 -22.591427 
L 25.125411 -22.591427 
L 25.125411 -22.591427 
L 25.203096 -22.528694 
L 25.289965 -22.465961 
L 25.384975 -22.403229 
L 25.486535 -22.340496 
L 25.592536 -22.277763 
L 25.700429 -22.21503 
L 25.807359 -22.152298 
L 25.910336 -22.089565 
L 26.006432 -22.026832 
L 26.092991 -21.964099 
L 26.167822 -21.901366 
L 26.22936 -21.838634 
L 26.276786 -21.775901 
L 26.310074 -21.713168 
L 26.329983 -21.650435 
L 26.337985 -21.587702 
L 26.336138 -21.52497 
L 26.326923 -21.462237 
L 26.313058 -21.399504 
L 26.29731 -21.336771 
L 26.282307 -21.274039 
L 26.270377 -21.211306 
L 26.263406 -21.148573 
L 26.262738 -21.08584 
L 26.269102 -21.023107 
L 26.282577 -20.960375 
L 26.302605 -20.897642 
L 26.328038 -20.834909 
L 26.357231 -20.772176 
L 26.388175 -20.709443 
L 26.418653 -20.646711 
L 26.446431 -20.583978 
L 26.469442 -20.521245 
L 26.485963 -20.458512 
L 26.494754 -20.39578 
L 26.495159 -20.333047 
L 26.487135 -20.270314 
L 26.471234 -20.207581 
L 26.448517 -20.144848 
L 26.420423 -20.082116 
L 26.388625 -20.019383 
L 26.354856 -19.95665 
L 26.320774 -19.893917 
L 26.287833 -19.831185 
L 26.257215 -19.768452 
L 26.229786 -19.705719 
L 26.206114 -19.642986 
L 26.186503 -19.580253 
L 26.171061 -19.517521 
L 26.159767 -19.454788 
L 26.152542 -19.392055 
L 26.149305 -19.329322 
L 26.150004 -19.266589 
L 26.154631 -19.203857 
L 26.163218 -19.141124 
L 26.175823 -19.078391 
L 26.192518 -19.015658 
L 26.213388 -18.952926 
L 26.238561 -18.890193 
L 26.268274 -18.82746 
L 26.302981 -18.764727 
L 26.343503 -18.701994 
L 26.391205 -18.639262 
L 26.448191 -18.576529 
L 26.517473 -18.513796 
L 26.603097 -18.451063 
L 26.710167 -18.38833 
L 26.844752 -18.325598 
L 27.013637 -18.262865 
L 27.223897 -18.200132 
L 27.48232 -18.137399 
L 27.794673 -18.074667 
L 28.164886 -18.011934 
L 28.594222 -17.949201 
L 29.080503 -17.886468 
L 29.617511 -17.823735 
L 30.194649 -17.761003 
L 30.796944 -17.69827 
L 31.405442 -17.635537 
L 31.998019 -17.572804 
L 32.550563 -17.510071 
L 33.038464 -17.447339 
L 33.438286 -17.384606 
L 33.729464 -17.321873 
L 33.895869 -17.25914 
L 33.92708 -17.196408 
L 33.819225 -17.133675 
L 33.575295 -17.070942 
L 33.204919 -17.008209 
L 32.723598 -16.945476 
L 32.1515 -16.882744 
L 31.511952 -16.820011 
L 30.82976 -16.757278 
L 30.129552 -16.694545 
L 29.43428 -16.631812 
L 28.764002 -16.56908 
L 28.135029 -16.506347 
L 27.559467 -16.443614 
L 27.045135 -16.380881 
z
" style="stroke: #414141; stroke-width: 0.15"/>
    </defs>
    <g clip-path="url(#pfb0a8ef324)">
     <use xlink:href="#m23229b63c1" x="0" y="84.96" style="fill: #abc9ea; stroke: #414141; stroke-width: 0.15"/>
    </g>
   </g>
   <g id="PolyCollection_2">
    <defs>
     <path id="m7d618ad2c5" d="M 48.668752 -15.508832 
L 46.632655 -15.508832 
L 46.289924 -15.685718 
L 45.872053 -15.862604 
L 45.376613 -16.039491 
L 44.805691 -16.216377 
L 44.166687 -16.393263 
L 43.472662 -16.57015 
L 42.742125 -16.747036 
L 41.998186 -16.923922 
L 41.267145 -17.100808 
L 40.576621 -17.277695 
L 39.953467 -17.454581 
L 39.421683 -17.631467 
L 39.000616 -17.808354 
L 38.703625 -17.98524 
L 38.53735 -18.162126 
L 38.501621 -18.339013 
L 38.589942 -18.515899 
L 38.790438 -18.692785 
L 39.087094 -18.869672 
L 39.461143 -19.046558 
L 39.892445 -19.223444 
L 40.360771 -19.400331 
L 40.846948 -19.577217 
L 41.33381 -19.754103 
L 41.806971 -19.930989 
L 42.255392 -20.107876 
L 42.671722 -20.284762 
L 43.052379 -20.461648 
L 43.397358 -20.638535 
L 43.709741 -20.815421 
L 43.994944 -20.992307 
L 44.259773 -21.169194 
L 44.511381 -21.34608 
L 44.756266 -21.522966 
L 44.999444 -21.699853 
L 45.24388 -21.876739 
L 45.490271 -22.053625 
L 45.737163 -22.230511 
L 45.981362 -22.407398 
L 46.218545 -22.584284 
L 46.443966 -22.76117 
L 46.653126 -22.938057 
L 46.842321 -23.114943 
L 47.009012 -23.291829 
L 47.151973 -23.468716 
L 47.271264 -23.645602 
L 47.368029 -23.822488 
L 47.444209 -23.999375 
L 47.502195 -24.176261 
L 47.544496 -24.353147 
L 47.57344 -24.530033 
L 47.590935 -24.70692 
L 47.598308 -24.883806 
L 47.59621 -25.060692 
L 47.584602 -25.237579 
L 47.562817 -25.414465 
L 47.529695 -25.591351 
L 47.483806 -25.768238 
L 47.42374 -25.945124 
L 47.348462 -26.12201 
L 47.257698 -26.298897 
L 47.152302 -26.475783 
L 47.034548 -26.652669 
L 46.908285 -26.829556 
L 46.778884 -27.006442 
L 46.652958 -27.183328 
L 46.537849 -27.360214 
L 46.440922 -27.537101 
L 46.368761 -27.713987 
L 46.326375 -27.890873 
L 46.316545 -28.06776 
L 46.33941 -28.244646 
L 46.392376 -28.421532 
L 46.470357 -28.598419 
L 46.566317 -28.775305 
L 46.672028 -28.952191 
L 46.778936 -29.129078 
L 46.879019 -29.305964 
L 46.965525 -29.48285 
L 47.033533 -29.659736 
L 47.080281 -29.836623 
L 47.105263 -30.013509 
L 47.110107 -30.190395 
L 47.098267 -30.367282 
L 47.074569 -30.544168 
L 47.044658 -30.721054 
L 47.014407 -30.897941 
L 46.98932 -31.074827 
L 46.974011 -31.251713 
L 46.971793 -31.4286 
L 46.984437 -31.605486 
L 47.012106 -31.782372 
L 47.053484 -31.959258 
L 47.10606 -32.136145 
L 47.166524 -32.313031 
L 47.231214 -32.489917 
L 47.296546 -32.666804 
L 47.359364 -32.84369 
L 47.417192 -33.020576 
L 47.884214 -33.020576 
L 47.884214 -33.020576 
L 47.942043 -32.84369 
L 48.004861 -32.666804 
L 48.070192 -32.489917 
L 48.134882 -32.313031 
L 48.195346 -32.136145 
L 48.247922 -31.959258 
L 48.2893 -31.782372 
L 48.316969 -31.605486 
L 48.329613 -31.4286 
L 48.327396 -31.251713 
L 48.312086 -31.074827 
L 48.286999 -30.897941 
L 48.256748 -30.721054 
L 48.226838 -30.544168 
L 48.203139 -30.367282 
L 48.191299 -30.190395 
L 48.196143 -30.013509 
L 48.221126 -29.836623 
L 48.267873 -29.659736 
L 48.335881 -29.48285 
L 48.422387 -29.305964 
L 48.52247 -29.129078 
L 48.629378 -28.952191 
L 48.735089 -28.775305 
L 48.831049 -28.598419 
L 48.90903 -28.421532 
L 48.961997 -28.244646 
L 48.984862 -28.06776 
L 48.975031 -27.890873 
L 48.932646 -27.713987 
L 48.860484 -27.537101 
L 48.763557 -27.360214 
L 48.648448 -27.183328 
L 48.522523 -27.006442 
L 48.393121 -26.829556 
L 48.266858 -26.652669 
L 48.149104 -26.475783 
L 48.043708 -26.298897 
L 47.952944 -26.12201 
L 47.877667 -25.945124 
L 47.817601 -25.768238 
L 47.771712 -25.591351 
L 47.73859 -25.414465 
L 47.716804 -25.237579 
L 47.705196 -25.060692 
L 47.703098 -24.883806 
L 47.710471 -24.70692 
L 47.727967 -24.530033 
L 47.75691 -24.353147 
L 47.799211 -24.176261 
L 47.857197 -23.999375 
L 47.933377 -23.822488 
L 48.030142 -23.645602 
L 48.149433 -23.468716 
L 48.292395 -23.291829 
L 48.459085 -23.114943 
L 48.64828 -22.938057 
L 48.85744 -22.76117 
L 49.082862 -22.584284 
L 49.320045 -22.407398 
L 49.564243 -22.230511 
L 49.811135 -22.053625 
L 50.057526 -21.876739 
L 50.301962 -21.699853 
L 50.54514 -21.522966 
L 50.790026 -21.34608 
L 51.041633 -21.169194 
L 51.306462 -20.992307 
L 51.591666 -20.815421 
L 51.904049 -20.638535 
L 52.249028 -20.461648 
L 52.629685 -20.284762 
L 53.046014 -20.107876 
L 53.494435 -19.930989 
L 53.967596 -19.754103 
L 54.454458 -19.577217 
L 54.940635 -19.400331 
L 55.408962 -19.223444 
L 55.840263 -19.046558 
L 56.214312 -18.869672 
L 56.510969 -18.692785 
L 56.711464 -18.515899 
L 56.799785 -18.339013 
L 56.764056 -18.162126 
L 56.597782 -17.98524 
L 56.30079 -17.808354 
L 55.879723 -17.631467 
L 55.347939 -17.454581 
L 54.724785 -17.277695 
L 54.034262 -17.100808 
L 53.30322 -16.923922 
L 52.559281 -16.747036 
L 51.828744 -16.57015 
L 51.13472 -16.393263 
L 50.495715 -16.216377 
L 49.924793 -16.039491 
L 49.429353 -15.862604 
L 49.011483 -15.685718 
L 48.668752 -15.508832 
z
" style="stroke: #414141; stroke-width: 0.15"/>
    </defs>
    <g clip-path="url(#pfb0a8ef324)">
     <use xlink:href="#m7d618ad2c5" x="0" y="84.96" style="fill: #efb792; stroke: #414141; stroke-width: 0.15"/>
    </g>
   </g>
   <g id="PolyCollection_3">
    <defs>
     <path id="m8f9227645f" d="M 71.357858 -16.575564 
L 69.688957 -16.575564 
L 69.430602 -16.761971 
L 69.124317 -16.948377 
L 68.770836 -17.134784 
L 68.373281 -17.32119 
L 67.9369 -17.507597 
L 67.468479 -17.694003 
L 66.975525 -17.88041 
L 66.465388 -18.066817 
L 65.944535 -18.253223 
L 65.418208 -18.43963 
L 64.890588 -18.626036 
L 64.36551 -18.812443 
L 63.847588 -18.99885 
L 63.343499 -19.185256 
L 62.86307 -19.371663 
L 62.419802 -19.558069 
L 62.030557 -19.744476 
L 61.714309 -19.930883 
L 61.490071 -20.117289 
L 61.374326 -20.303696 
L 61.378437 -20.490102 
L 61.506559 -20.676509 
L 61.754501 -20.862916 
L 62.109789 -21.049322 
L 62.55297 -21.235729 
L 63.059887 -21.422135 
L 63.604535 -21.608542 
L 64.161956 -21.794949 
L 64.710693 -21.981355 
L 65.234452 -22.167762 
L 65.722794 -22.354168 
L 66.170905 -22.540575 
L 66.578649 -22.726982 
L 66.949191 -22.913388 
L 67.287518 -23.099795 
L 67.599103 -23.286201 
L 67.888877 -23.472608 
L 68.160574 -23.659015 
L 68.416424 -23.845421 
L 68.657115 -24.031828 
L 68.881952 -24.218234 
L 69.089125 -24.404641 
L 69.276037 -24.591048 
L 69.439669 -24.777454 
L 69.576963 -24.963861 
L 69.6852 -25.150267 
L 69.762375 -25.336674 
L 69.807523 -25.523081 
L 69.820965 -25.709487 
L 69.804444 -25.895894 
L 69.761131 -26.0823 
L 69.695476 -26.268707 
L 69.612927 -26.455114 
L 69.51954 -26.64152 
L 69.421532 -26.827927 
L 69.324823 -27.014333 
L 69.234632 -27.20074 
L 69.155175 -27.387147 
L 69.089495 -27.573553 
L 69.039443 -27.75996 
L 69.005795 -27.946366 
L 68.988474 -28.132773 
L 68.986838 -28.31918 
L 68.999971 -28.505586 
L 69.026927 -28.691993 
L 69.066881 -28.878399 
L 69.11917 -29.064806 
L 69.183204 -29.251213 
L 69.258298 -29.437619 
L 69.34344 -29.624026 
L 69.437081 -29.810432 
L 69.536981 -29.996839 
L 69.64016 -30.183246 
L 69.742985 -30.369652 
L 69.841367 -30.556059 
L 69.931057 -30.742465 
L 70.007998 -30.928872 
L 70.068678 -31.115279 
L 70.110459 -31.301685 
L 70.131842 -31.488092 
L 70.132658 -31.674498 
L 70.11416 -31.860905 
L 70.079018 -32.047312 
L 70.031192 -32.233718 
L 69.975688 -32.420125 
L 69.918186 -32.606531 
L 69.864572 -32.792938 
L 69.820402 -32.979345 
L 69.790371 -33.165751 
L 69.777842 -33.352158 
L 69.784526 -33.538564 
L 69.810357 -33.724971 
L 69.853574 -33.911378 
L 69.911024 -34.097784 
L 69.978607 -34.284191 
L 70.051802 -34.470597 
L 70.126189 -34.657004 
L 70.197886 -34.84341 
L 70.263855 -35.029817 
L 70.78296 -35.029817 
L 70.78296 -35.029817 
L 70.84893 -34.84341 
L 70.920627 -34.657004 
L 70.995013 -34.470597 
L 71.068209 -34.284191 
L 71.135792 -34.097784 
L 71.193242 -33.911378 
L 71.236459 -33.724971 
L 71.262289 -33.538564 
L 71.268974 -33.352158 
L 71.256445 -33.165751 
L 71.226413 -32.979345 
L 71.182243 -32.792938 
L 71.128629 -32.606531 
L 71.071127 -32.420125 
L 71.015623 -32.233718 
L 70.967798 -32.047312 
L 70.932656 -31.860905 
L 70.914158 -31.674498 
L 70.914973 -31.488092 
L 70.936356 -31.301685 
L 70.978137 -31.115279 
L 71.038817 -30.928872 
L 71.115758 -30.742465 
L 71.205448 -30.556059 
L 71.30383 -30.369652 
L 71.406655 -30.183246 
L 71.509835 -29.996839 
L 71.609734 -29.810432 
L 71.703376 -29.624026 
L 71.788518 -29.437619 
L 71.863611 -29.251213 
L 71.927646 -29.064806 
L 71.979934 -28.878399 
L 72.019889 -28.691993 
L 72.046844 -28.505586 
L 72.059977 -28.31918 
L 72.058341 -28.132773 
L 72.04102 -27.946366 
L 72.007372 -27.75996 
L 71.95732 -27.573553 
L 71.891641 -27.387147 
L 71.812183 -27.20074 
L 71.721992 -27.014333 
L 71.625283 -26.827927 
L 71.527275 -26.64152 
L 71.433889 -26.455114 
L 71.351339 -26.268707 
L 71.285684 -26.0823 
L 71.242371 -25.895894 
L 71.225851 -25.709487 
L 71.239292 -25.523081 
L 71.28444 -25.336674 
L 71.361616 -25.150267 
L 71.469853 -24.963861 
L 71.607146 -24.777454 
L 71.770779 -24.591048 
L 71.957691 -24.404641 
L 72.164864 -24.218234 
L 72.389701 -24.031828 
L 72.630392 -23.845421 
L 72.886241 -23.659015 
L 73.157939 -23.472608 
L 73.447713 -23.286201 
L 73.759297 -23.099795 
L 74.097625 -22.913388 
L 74.468167 -22.726982 
L 74.87591 -22.540575 
L 75.324022 -22.354168 
L 75.812364 -22.167762 
L 76.336122 -21.981355 
L 76.884859 -21.794949 
L 77.44228 -21.608542 
L 77.986928 -21.422135 
L 78.493846 -21.235729 
L 78.937026 -21.049322 
L 79.292315 -20.862916 
L 79.540256 -20.676509 
L 79.668378 -20.490102 
L 79.67249 -20.303696 
L 79.556745 -20.117289 
L 79.332506 -19.930883 
L 79.016258 -19.744476 
L 78.627013 -19.558069 
L 78.183745 -19.371663 
L 77.703317 -19.185256 
L 77.199228 -18.99885 
L 76.681305 -18.812443 
L 76.156227 -18.626036 
L 75.628608 -18.43963 
L 75.102281 -18.253223 
L 74.581428 -18.066817 
L 74.07129 -17.88041 
L 73.578337 -17.694003 
L 73.109916 -17.507597 
L 72.673534 -17.32119 
L 72.275979 -17.134784 
L 71.922499 -16.948377 
L 71.616213 -16.761971 
L 71.357858 -16.575564 
z
" style="stroke: #414141; stroke-width: 0.15"/>
    </defs>
    <g clip-path="url(#pfb0a8ef324)">
     <use xlink:href="#m8f9227645f" x="0" y="84.96" style="fill: #7e5c60; stroke: #414141; stroke-width: 0.15"/>
    </g>
   </g>
   <g id="line2d_7">
    <path d="M 24.777999 67.884074 
L 24.777999 63.063618 
" clip-path="url(#pfb0a8ef324)" style="fill: none; stroke: #8c8c8c; stroke-width: 0.75; stroke-linecap: round"/>
   </g>
   <g id="line2d_8">
    <path d="M 24.777999 67.840587 
L 24.777999 65.664629 
" clip-path="url(#pfb0a8ef324)" style="fill: none; stroke: #8c8c8c; stroke-width: 4; stroke-linecap: round"/>
   </g>
   <g id="line2d_9">
    <path d="M 24.777999 67.625692 
" clip-path="url(#pfb0a8ef324)" style="fill: none; stroke: #414141; stroke-width: 1.2; stroke-linecap: round"/>
    <defs>
     <path id="m7213480c40" d="M 0 0.833333 
C 0.221003 0.833333 0.432983 0.745528 0.589256 0.589256 
C 0.745528 0.432983 0.833333 0.221003 0.833333 0 
C 0.833333 -0.221003 0.745528 -0.432983 0.589256 -0.589256 
C 0.432983 -0.745528 0.221003 -0.833333 0 -0.833333 
C -0.221003 -0.833333 -0.432983 -0.745528 -0.589256 -0.589256 
C -0.745528 -0.432983 -0.833333 -0.221003 -0.833333 0 
C -0.833333 0.221003 -0.745528 0.432983 -0.589256 0.589256 
C -0.432983 0.745528 -0.221003 0.833333 0 0.833333 
z
" style="stroke: #ffffff; stroke-width: 0.8"/>
    </defs>
    <g clip-path="url(#pfb0a8ef324)">
     <use xlink:href="#m7213480c40" x="24.777999" y="67.625692" style="fill: #ffffff; stroke: #ffffff; stroke-width: 0.8"/>
    </g>
   </g>
   <g id="line2d_10">
    <path d="M 47.650703 67.863078 
L 47.650703 62.938385 
" clip-path="url(#pfb0a8ef324)" style="fill: none; stroke: #8c8c8c; stroke-width: 0.75; stroke-linecap: round"/>
   </g>
   <g id="line2d_11">
    <path d="M 47.650703 67.098501 
L 47.650703 64.340201 
" clip-path="url(#pfb0a8ef324)" style="fill: none; stroke: #8c8c8c; stroke-width: 4; stroke-linecap: round"/>
   </g>
   <g id="line2d_12">
    <path d="M 47.650703 66.303791 
" clip-path="url(#pfb0a8ef324)" style="fill: none; stroke: #414141; stroke-width: 1.2; stroke-linecap: round"/>
    <g clip-path="url(#pfb0a8ef324)">
     <use xlink:href="#m7213480c40" x="47.650703" y="66.303791" style="fill: #ffffff; stroke: #ffffff; stroke-width: 0.8"/>
    </g>
   </g>
   <g id="line2d_13">
    <path d="M 70.523408 66.752551 
L 70.523408 60.88224 
" clip-path="url(#pfb0a8ef324)" style="fill: none; stroke: #8c8c8c; stroke-width: 0.75; stroke-linecap: round"/>
   </g>
   <g id="line2d_14">
    <path d="M 70.523408 65.007482 
L 70.523408 62.23406 
" clip-path="url(#pfb0a8ef324)" style="fill: none; stroke: #8c8c8c; stroke-width: 4; stroke-linecap: round"/>
   </g>
   <g id="line2d_15">
    <path d="M 70.523408 64.230314 
" clip-path="url(#pfb0a8ef324)" style="fill: none; stroke: #414141; stroke-width: 1.2; stroke-linecap: round"/>
    <g clip-path="url(#pfb0a8ef324)">
     <use xlink:href="#m7213480c40" x="70.523408" y="64.230314" style="fill: #ffffff; stroke: #ffffff; stroke-width: 0.8"/>
    </g>
   </g>
   <g id="patch_3">
    <path d="M 13.341646 74.419526 
L 13.341646 4.076256 
" style="fill: none; stroke: #777777; stroke-width: 0.5; stroke-linejoin: miter; stroke-linecap: square"/>
   </g>
   <g id="patch_4">
    <path d="M 13.341646 76.919526 
L 81.95976 76.919526 
" style="fill: none; stroke: #777777; stroke-width: 0.5; stroke-linejoin: miter; stroke-linecap: square"/>
   </g>
  </g>
 </g>
 <defs>
  <clipPath id="pfb0a8ef324">
   <rect x="13.341646" y="4.076256" width="68.618114" height="70.34327"/>
  </clipPath>
 </defs>
</svg>
