<?xml version="1.0" encoding="utf-8" standalone="no"?>
<!DOCTYPE svg PUBLIC "-//W3C//DTD SVG 1.1//EN"
  "http://www.w3.org/Graphics/SVG/1.1/DTD/svg11.dtd">
<svg xmlns:xlink="http://www.w3.org/1999/xlink" width="56.16pt" height="84.96pt" viewBox="0 0 56.16 84.96" xmlns="http://www.w3.org/2000/svg" version="1.1">
 <metadata>
  <rdf:RDF xmlns:dc="http://purl.org/dc/elements/1.1/" xmlns:cc="http://creativecommons.org/ns#" xmlns:rdf="http://www.w3.org/1999/02/22-rdf-syntax-ns#">
   <cc:Work>
    <dc:type rdf:resource="http://purl.org/dc/dcmitype/StillImage"/>
    <dc:date>2024-05-27T15:37:14.500045</dc:date>
    <dc:format>image/svg+xml</dc:format>
    <dc:creator>
     <cc:Agent>
      <dc:title>Matplotlib v3.8.3, https://matplotlib.org/</dc:title>
     </cc:Agent>
    </dc:creator>
   </cc:Work>
  </rdf:RDF>
 </metadata>
 <defs>
  <style type="text/css">*{stroke-linejoin: round; stroke-linecap: butt}</style>
 </defs>
 <g id="figure_1">
  <g id="patch_1">
   <path d="M 0 84.96 
L 56.16 84.96 
L 56.16 0 
L 0 0 
z
" style="fill: #ffffff"/>
  </g>
  <g id="axes_1">
   <g id="patch_2">
    <path d="M 10.005084 74.395463 
L 53.15976 74.395463 
L 53.15976 4.076256 
L 10.005084 4.076256 
z
" style="fill: #ffffff"/>
   </g>
   <g id="matplotlib.axis_1">
    <g id="xtick_1">
     <g id="text_1">
      <!-- RORγT+ Cells -->
      <g style="fill: #333333" transform="translate(9.464964 81.230229) scale(0.035 -0.035)">
       <defs>
        <path id="Helvetica-52" d="M 2622 2488 
Q 3059 2488 3314 2663 
Q 3569 2838 3569 3294 
Q 3569 3784 3213 3963 
Q 3022 4056 2703 4056 
L 1184 4056 
L 1184 2488 
L 2622 2488 
z
M 563 4591 
L 2688 4591 
Q 3213 4591 3553 4438 
Q 4200 4144 4200 3353 
Q 4200 2941 4029 2678 
Q 3859 2416 3553 2256 
Q 3822 2147 3958 1969 
Q 4094 1791 4109 1391 
L 4131 775 
Q 4141 513 4175 384 
Q 4231 166 4375 103 
L 4375 0 
L 3613 0 
Q 3581 59 3562 153 
Q 3544 247 3531 516 
L 3494 1281 
Q 3472 1731 3159 1884 
Q 2981 1969 2600 1969 
L 1184 1969 
L 1184 0 
L 563 0 
L 563 4591 
z
" transform="scale(0.015625)"/>
        <path id="Helvetica-4f" d="M 2469 4716 
Q 3684 4716 4269 3934 
Q 4725 3325 4725 2375 
Q 4725 1347 4203 666 
Q 3591 -134 2456 -134 
Q 1397 -134 791 566 
Q 250 1241 250 2272 
Q 250 3203 713 3866 
Q 1306 4716 2469 4716 
z
M 2531 422 
Q 3353 422 3720 1011 
Q 4088 1600 4088 2366 
Q 4088 3175 3664 3669 
Q 3241 4163 2506 4163 
Q 1794 4163 1344 3673 
Q 894 3184 894 2231 
Q 894 1469 1280 945 
Q 1666 422 2531 422 
z
M 2488 4716 
L 2488 4716 
z
" transform="scale(0.015625)"/>
        <path id="Helvetica-3b3" d="M 1556 225 
L 581 2444 
Q 481 2700 416 2803 
Q 347 2894 244 2894 
Q 91 2888 56 2872 
L 56 3334 
Q 166 3384 313 3391 
Q 641 3391 788 3250 
Q 863 3188 922 3078 
Q 978 2963 1038 2809 
L 1844 878 
L 2828 3328 
L 3431 3328 
L 2131 225 
L 2131 -1253 
L 1556 -1253 
L 1556 225 
z
" transform="scale(0.015625)"/>
        <path id="Helvetica-54" d="M 3828 4591 
L 3828 4044 
L 2281 4044 
L 2281 0 
L 1650 0 
L 1650 4044 
L 103 4044 
L 103 4591 
L 3828 4591 
z
" transform="scale(0.015625)"/>
        <path id="Helvetica-2b" d="M 288 1369 
L 288 1894 
L 1650 1894 
L 1650 3266 
L 2184 3266 
L 2184 1894 
L 3547 1894 
L 3547 1369 
L 2184 1369 
L 2184 0 
L 1650 0 
L 1650 1369 
L 288 1369 
z
" transform="scale(0.015625)"/>
        <path id="Helvetica-20" transform="scale(0.015625)"/>
        <path id="Helvetica-43" d="M 2422 4716 
Q 3294 4716 3775 4256 
Q 4256 3797 4309 3213 
L 3703 3213 
Q 3600 3656 3292 3915 
Q 2984 4175 2428 4175 
Q 1750 4175 1333 3698 
Q 916 3222 916 2238 
Q 916 1431 1292 929 
Q 1669 428 2416 428 
Q 3103 428 3463 956 
Q 3653 1234 3747 1688 
L 4353 1688 
Q 4272 963 3816 472 
Q 3269 -119 2341 -119 
Q 1541 -119 997 366 
Q 281 1006 281 2344 
Q 281 3359 819 4009 
Q 1400 4716 2422 4716 
z
M 2297 4716 
L 2297 4716 
z
" transform="scale(0.015625)"/>
        <path id="Helvetica-65" d="M 1806 3422 
Q 2163 3422 2497 3255 
Q 2831 3088 3006 2822 
Q 3175 2569 3231 2231 
Q 3281 2000 3281 1494 
L 828 1494 
Q 844 984 1069 676 
Q 1294 369 1766 369 
Q 2206 369 2469 659 
Q 2619 828 2681 1050 
L 3234 1050 
Q 3213 866 3089 639 
Q 2966 413 2813 269 
Q 2556 19 2178 -69 
Q 1975 -119 1719 -119 
Q 1094 -119 659 336 
Q 225 791 225 1609 
Q 225 2416 662 2919 
Q 1100 3422 1806 3422 
z
M 2703 1941 
Q 2669 2306 2544 2525 
Q 2313 2931 1772 2931 
Q 1384 2931 1121 2651 
Q 859 2372 844 1941 
L 2703 1941 
z
M 1753 3428 
L 1753 3428 
z
" transform="scale(0.015625)"/>
        <path id="Helvetica-6c" d="M 428 4591 
L 991 4591 
L 991 0 
L 428 0 
L 428 4591 
z
" transform="scale(0.015625)"/>
        <path id="Helvetica-73" d="M 747 1050 
Q 772 769 888 619 
Q 1100 347 1625 347 
Q 1938 347 2175 483 
Q 2413 619 2413 903 
Q 2413 1119 2222 1231 
Q 2100 1300 1741 1391 
L 1294 1503 
Q 866 1609 663 1741 
Q 300 1969 300 2372 
Q 300 2847 642 3140 
Q 984 3434 1563 3434 
Q 2319 3434 2653 2991 
Q 2863 2709 2856 2384 
L 2325 2384 
Q 2309 2575 2191 2731 
Q 1997 2953 1519 2953 
Q 1200 2953 1036 2831 
Q 872 2709 872 2509 
Q 872 2291 1088 2159 
Q 1213 2081 1456 2022 
L 1828 1931 
Q 2434 1784 2641 1647 
Q 2969 1431 2969 969 
Q 2969 522 2630 197 
Q 2291 -128 1597 -128 
Q 850 -128 539 211 
Q 228 550 206 1050 
L 747 1050 
z
M 1578 3428 
L 1578 3428 
z
" transform="scale(0.015625)"/>
       </defs>
       <use xlink:href="#Helvetica-52"/>
       <use xlink:href="#Helvetica-4f" x="72.216797"/>
       <use xlink:href="#Helvetica-52" x="150"/>
       <use xlink:href="#Helvetica-3b3" x="222.216797"/>
       <use xlink:href="#Helvetica-54" x="277.832031"/>
       <use xlink:href="#Helvetica-2b" x="338.916016"/>
       <use xlink:href="#Helvetica-20" x="397.314453"/>
       <use xlink:href="#Helvetica-43" x="425.097656"/>
       <use xlink:href="#Helvetica-65" x="497.314453"/>
       <use xlink:href="#Helvetica-6c" x="552.929688"/>
       <use xlink:href="#Helvetica-6c" x="575.146484"/>
       <use xlink:href="#Helvetica-73" x="597.363281"/>
      </g>
     </g>
    </g>
    <g id="xtick_2">
     <g id="text_2">
      <!-- AHR+ Cells -->
      <g style="fill: #333333" transform="translate(33.2782 81.206166) scale(0.035 -0.035)">
       <defs>
        <path id="Helvetica-41" d="M 2844 1881 
L 2147 3909 
L 1406 1881 
L 2844 1881 
z
M 1822 4591 
L 2525 4591 
L 4191 0 
L 3509 0 
L 3044 1375 
L 1228 1375 
L 731 0 
L 94 0 
L 1822 4591 
z
" transform="scale(0.015625)"/>
        <path id="Helvetica-48" d="M 503 4591 
L 1131 4591 
L 1131 2694 
L 3519 2694 
L 3519 4591 
L 4147 4591 
L 4147 0 
L 3519 0 
L 3519 2147 
L 1131 2147 
L 1131 0 
L 503 0 
L 503 4591 
z
" transform="scale(0.015625)"/>
       </defs>
       <use xlink:href="#Helvetica-41"/>
       <use xlink:href="#Helvetica-48" x="66.699219"/>
       <use xlink:href="#Helvetica-52" x="138.916016"/>
       <use xlink:href="#Helvetica-2b" x="211.132812"/>
       <use xlink:href="#Helvetica-20" x="269.53125"/>
       <use xlink:href="#Helvetica-43" x="297.314453"/>
       <use xlink:href="#Helvetica-65" x="369.53125"/>
       <use xlink:href="#Helvetica-6c" x="425.146484"/>
       <use xlink:href="#Helvetica-6c" x="447.363281"/>
       <use xlink:href="#Helvetica-73" x="469.580078"/>
      </g>
     </g>
    </g>
   </g>
   <g id="matplotlib.axis_2">
    <g id="ytick_1">
     <g id="line2d_1">
      <defs>
       <path id="m229d0c09a0" d="M 0 0 
L -1 0 
" style="stroke: #777777; stroke-width: 0.5"/>
      </defs>
      <g>
       <use xlink:href="#m229d0c09a0" x="10.005084" y="66.168271" style="fill: #777777; stroke: #777777; stroke-width: 0.5"/>
      </g>
     </g>
     <g id="text_3">
      <!-- 0 -->
      <g style="fill: #333333" transform="translate(6.336802 67.244287) scale(0.03 -0.03)">
       <defs>
        <path id="Helvetica-30" d="M 1731 4475 
Q 2600 4475 2988 3759 
Q 3288 3206 3288 2244 
Q 3288 1331 3016 734 
Q 2622 -122 1728 -122 
Q 922 -122 528 578 
Q 200 1163 200 2147 
Q 200 2909 397 3456 
Q 766 4475 1731 4475 
z
M 1725 391 
Q 2163 391 2422 778 
Q 2681 1166 2681 2222 
Q 2681 2984 2493 3476 
Q 2306 3969 1766 3969 
Q 1269 3969 1039 3501 
Q 809 3034 809 2125 
Q 809 1441 956 1025 
Q 1181 391 1725 391 
z
" transform="scale(0.015625)"/>
       </defs>
       <use xlink:href="#Helvetica-30"/>
      </g>
     </g>
    </g>
    <g id="ytick_2">
     <g id="line2d_2">
      <g>
       <use xlink:href="#m229d0c09a0" x="10.005084" y="55.819602" style="fill: #777777; stroke: #777777; stroke-width: 0.5"/>
      </g>
     </g>
     <g id="text_4">
      <!-- 20 -->
      <g style="fill: #333333" transform="translate(4.668521 56.895617) scale(0.03 -0.03)">
       <defs>
        <path id="Helvetica-32" d="M 200 0 
Q 231 578 439 1006 
Q 647 1434 1250 1784 
L 1850 2131 
Q 2253 2366 2416 2531 
Q 2672 2791 2672 3125 
Q 2672 3516 2437 3745 
Q 2203 3975 1813 3975 
Q 1234 3975 1013 3538 
Q 894 3303 881 2888 
L 309 2888 
Q 319 3472 525 3841 
Q 891 4491 1816 4491 
Q 2584 4491 2939 4075 
Q 3294 3659 3294 3150 
Q 3294 2613 2916 2231 
Q 2697 2009 2131 1694 
L 1703 1456 
Q 1397 1288 1222 1134 
Q 909 863 828 531 
L 3272 531 
L 3272 0 
L 200 0 
z
" transform="scale(0.015625)"/>
       </defs>
       <use xlink:href="#Helvetica-32"/>
       <use xlink:href="#Helvetica-30" x="55.615234"/>
      </g>
     </g>
    </g>
    <g id="ytick_3">
     <g id="line2d_3">
      <g>
       <use xlink:href="#m229d0c09a0" x="10.005084" y="45.470933" style="fill: #777777; stroke: #777777; stroke-width: 0.5"/>
      </g>
     </g>
     <g id="text_5">
      <!-- 40 -->
      <g style="fill: #333333" transform="translate(4.668521 46.546948) scale(0.03 -0.03)">
       <defs>
        <path id="Helvetica-34" d="M 2116 1584 
L 2116 3613 
L 681 1584 
L 2116 1584 
z
M 2125 0 
L 2125 1094 
L 163 1094 
L 163 1644 
L 2213 4488 
L 2688 4488 
L 2688 1584 
L 3347 1584 
L 3347 1094 
L 2688 1094 
L 2688 0 
L 2125 0 
z
" transform="scale(0.015625)"/>
       </defs>
       <use xlink:href="#Helvetica-34"/>
       <use xlink:href="#Helvetica-30" x="55.615234"/>
      </g>
     </g>
    </g>
    <g id="ytick_4">
     <g id="line2d_4">
      <g>
       <use xlink:href="#m229d0c09a0" x="10.005084" y="35.122263" style="fill: #777777; stroke: #777777; stroke-width: 0.5"/>
      </g>
     </g>
     <g id="text_6">
      <!-- 60 -->
      <g style="fill: #333333" transform="translate(4.668521 36.198279) scale(0.03 -0.03)">
       <defs>
        <path id="Helvetica-36" d="M 1872 4494 
Q 2622 4494 2917 4105 
Q 3213 3716 3213 3303 
L 2656 3303 
Q 2606 3569 2497 3719 
Q 2294 4000 1881 4000 
Q 1409 4000 1131 3564 
Q 853 3128 822 2316 
Q 1016 2600 1309 2741 
Q 1578 2866 1909 2866 
Q 2472 2866 2890 2506 
Q 3309 2147 3309 1434 
Q 3309 825 2912 354 
Q 2516 -116 1781 -116 
Q 1153 -116 697 361 
Q 241 838 241 1966 
Q 241 2800 444 3381 
Q 834 4494 1872 4494 
z
M 1831 384 
Q 2275 384 2495 682 
Q 2716 981 2716 1388 
Q 2716 1731 2519 2042 
Q 2322 2353 1803 2353 
Q 1441 2353 1167 2112 
Q 894 1872 894 1388 
Q 894 963 1142 673 
Q 1391 384 1831 384 
z
" transform="scale(0.015625)"/>
       </defs>
       <use xlink:href="#Helvetica-36"/>
       <use xlink:href="#Helvetica-30" x="55.615234"/>
      </g>
     </g>
    </g>
    <g id="ytick_5">
     <g id="line2d_5">
      <g>
       <use xlink:href="#m229d0c09a0" x="10.005084" y="24.773594" style="fill: #777777; stroke: #777777; stroke-width: 0.5"/>
      </g>
     </g>
     <g id="text_7">
      <!-- 80 -->
      <g style="fill: #333333" transform="translate(4.668521 25.84961) scale(0.03 -0.03)">
       <defs>
        <path id="Helvetica-38" d="M 1741 2600 
Q 2113 2600 2322 2808 
Q 2531 3016 2531 3303 
Q 2531 3553 2331 3762 
Q 2131 3972 1722 3972 
Q 1316 3972 1134 3762 
Q 953 3553 953 3272 
Q 953 2956 1187 2778 
Q 1422 2600 1741 2600 
z
M 1775 384 
Q 2166 384 2423 595 
Q 2681 806 2681 1225 
Q 2681 1659 2415 1884 
Q 2150 2109 1734 2109 
Q 1331 2109 1076 1879 
Q 822 1650 822 1244 
Q 822 894 1055 639 
Q 1288 384 1775 384 
z
M 975 2384 
Q 741 2484 609 2619 
Q 363 2869 363 3269 
Q 363 3769 725 4128 
Q 1088 4488 1753 4488 
Q 2397 4488 2762 4148 
Q 3128 3809 3128 3356 
Q 3128 2938 2916 2678 
Q 2797 2531 2547 2391 
Q 2825 2263 2984 2097 
Q 3281 1784 3281 1284 
Q 3281 694 2884 283 
Q 2488 -128 1763 -128 
Q 1109 -128 657 226 
Q 206 581 206 1256 
Q 206 1653 400 1942 
Q 594 2231 975 2384 
z
" transform="scale(0.015625)"/>
       </defs>
       <use xlink:href="#Helvetica-38"/>
       <use xlink:href="#Helvetica-30" x="55.615234"/>
      </g>
     </g>
    </g>
    <g id="ytick_6">
     <g id="line2d_6">
      <g>
       <use xlink:href="#m229d0c09a0" x="10.005084" y="14.424925" style="fill: #777777; stroke: #777777; stroke-width: 0.5"/>
      </g>
     </g>
     <g id="text_8">
      <!-- 100 -->
      <g style="fill: #333333" transform="translate(3.00024 15.50094) scale(0.03 -0.03)">
       <defs>
        <path id="Helvetica-31" d="M 613 3169 
L 613 3600 
Q 1222 3659 1462 3798 
Q 1703 3938 1822 4456 
L 2266 4456 
L 2266 0 
L 1666 0 
L 1666 3169 
L 613 3169 
z
" transform="scale(0.015625)"/>
       </defs>
       <use xlink:href="#Helvetica-31"/>
       <use xlink:href="#Helvetica-30" x="55.615234"/>
       <use xlink:href="#Helvetica-30" x="111.230469"/>
      </g>
     </g>
    </g>
    <g id="ytick_7">
     <g id="line2d_7">
      <g>
       <use xlink:href="#m229d0c09a0" x="10.005084" y="4.076256" style="fill: #777777; stroke: #777777; stroke-width: 0.5"/>
      </g>
     </g>
     <g id="text_9">
      <!-- 120 -->
      <g style="fill: #333333" transform="translate(3.00024 5.152271) scale(0.03 -0.03)">
       <use xlink:href="#Helvetica-31"/>
       <use xlink:href="#Helvetica-32" x="55.615234"/>
       <use xlink:href="#Helvetica-30" x="111.230469"/>
      </g>
     </g>
    </g>
   </g>
   <g id="PolyCollection_1">
    <defs>
     <path id="md5b99c2883" d="M 21.931596 -18.771362 
L 19.65591 -18.771362 
L 19.449839 -18.816422 
L 19.224301 -18.861483 
L 18.981187 -18.906543 
L 18.723136 -18.951604 
L 18.453486 -18.996664 
L 18.176171 -19.041725 
L 17.895593 -19.086785 
L 17.616452 -19.131846 
L 17.343562 -19.176906 
L 17.081664 -19.221967 
L 16.835245 -19.267027 
L 16.608383 -19.312088 
L 16.404612 -19.357148 
L 16.22683 -19.402209 
L 16.077232 -19.447269 
L 15.957269 -19.492329 
L 15.867631 -19.53739 
L 15.808235 -19.58245 
L 15.778215 -19.627511 
L 15.775904 -19.672571 
L 15.798817 -19.717632 
L 15.843629 -19.762692 
L 15.906161 -19.807753 
L 15.981394 -19.852813 
L 16.063522 -19.897874 
L 16.146059 -19.942934 
L 16.222012 -19.987995 
L 16.28413 -20.033055 
L 16.325219 -20.078116 
L 16.338509 -20.123176 
L 16.318058 -20.168237 
L 16.259155 -20.213297 
L 16.15868 -20.258358 
L 16.015405 -20.303418 
L 15.830167 -20.348479 
L 15.605926 -20.393539 
L 15.347656 -20.438599 
L 15.062093 -20.48366 
L 14.75734 -20.52872 
L 14.442361 -20.573781 
L 14.126414 -20.618841 
L 13.818453 -20.663902 
L 13.526582 -20.708962 
L 13.257583 -20.754023 
L 13.016579 -20.799083 
L 12.806854 -20.844144 
L 12.629849 -20.889204 
L 12.485315 -20.934265 
L 12.371608 -20.979325 
L 12.28609 -21.024386 
L 12.225572 -21.069446 
L 12.18676 -21.114507 
L 12.166649 -21.159567 
L 12.162818 -21.204628 
L 12.173607 -21.249688 
L 12.198164 -21.294748 
L 12.236362 -21.339809 
L 12.288609 -21.384869 
L 12.355601 -21.42993 
L 12.438032 -21.47499 
L 12.536322 -21.520051 
L 12.650396 -21.565111 
L 12.77953 -21.610172 
L 12.922297 -21.655232 
L 13.076603 -21.700293 
L 13.239802 -21.745353 
L 13.408887 -21.790414 
L 13.580709 -21.835474 
L 13.752214 -21.880535 
L 13.92067 -21.925595 
L 14.083859 -21.970656 
L 14.240217 -22.015716 
L 14.38893 -22.060777 
L 14.529965 -22.105837 
L 14.664054 -22.150898 
L 14.792634 -22.195958 
L 14.917748 -22.241018 
L 15.041921 -22.286079 
L 15.168011 -22.331139 
L 15.299047 -22.3762 
L 15.438058 -22.42126 
L 15.587899 -22.466321 
L 15.751075 -22.511381 
L 15.929581 -22.556442 
L 16.124761 -22.601502 
L 16.337189 -22.646563 
L 16.566601 -22.691623 
L 16.811867 -22.736684 
L 17.071013 -22.781744 
L 17.341305 -22.826805 
L 17.619373 -22.871865 
L 17.901384 -22.916926 
L 18.18324 -22.961986 
L 18.460788 -23.007047 
L 18.730034 -23.052107 
L 18.987335 -23.097168 
L 19.229551 -23.142228 
L 19.454175 -23.187288 
L 19.659392 -23.232349 
L 21.928114 -23.232349 
L 21.928114 -23.232349 
L 22.133331 -23.187288 
L 22.357954 -23.142228 
L 22.600171 -23.097168 
L 22.857471 -23.052107 
L 23.126718 -23.007047 
L 23.404266 -22.961986 
L 23.686121 -22.916926 
L 23.968132 -22.871865 
L 24.246201 -22.826805 
L 24.516492 -22.781744 
L 24.775639 -22.736684 
L 25.020905 -22.691623 
L 25.250317 -22.646563 
L 25.462745 -22.601502 
L 25.657924 -22.556442 
L 25.836431 -22.511381 
L 25.999607 -22.466321 
L 26.149448 -22.42126 
L 26.288459 -22.3762 
L 26.419495 -22.331139 
L 26.545584 -22.286079 
L 26.669757 -22.241018 
L 26.794872 -22.195958 
L 26.923452 -22.150898 
L 27.057541 -22.105837 
L 27.198575 -22.060777 
L 27.347288 -22.015716 
L 27.503647 -21.970656 
L 27.666836 -21.925595 
L 27.835292 -21.880535 
L 28.006797 -21.835474 
L 28.178618 -21.790414 
L 28.347703 -21.745353 
L 28.510903 -21.700293 
L 28.665208 -21.655232 
L 28.807976 -21.610172 
L 28.93711 -21.565111 
L 29.051183 -21.520051 
L 29.149474 -21.47499 
L 29.231905 -21.42993 
L 29.298897 -21.384869 
L 29.351144 -21.339809 
L 29.389341 -21.294748 
L 29.413899 -21.249688 
L 29.424688 -21.204628 
L 29.420857 -21.159567 
L 29.400745 -21.114507 
L 29.361934 -21.069446 
L 29.301416 -21.024386 
L 29.215898 -20.979325 
L 29.102191 -20.934265 
L 28.957656 -20.889204 
L 28.780652 -20.844144 
L 28.570927 -20.799083 
L 28.329922 -20.754023 
L 28.060923 -20.708962 
L 27.769053 -20.663902 
L 27.461092 -20.618841 
L 27.145144 -20.573781 
L 26.830166 -20.52872 
L 26.525413 -20.48366 
L 26.23985 -20.438599 
L 25.98158 -20.393539 
L 25.757339 -20.348479 
L 25.572101 -20.303418 
L 25.428825 -20.258358 
L 25.328351 -20.213297 
L 25.269448 -20.168237 
L 25.248997 -20.123176 
L 25.262287 -20.078116 
L 25.303375 -20.033055 
L 25.365493 -19.987995 
L 25.441447 -19.942934 
L 25.523983 -19.897874 
L 25.606112 -19.852813 
L 25.681345 -19.807753 
L 25.743877 -19.762692 
L 25.788688 -19.717632 
L 25.811602 -19.672571 
L 25.809291 -19.627511 
L 25.779271 -19.58245 
L 25.719875 -19.53739 
L 25.630237 -19.492329 
L 25.510274 -19.447269 
L 25.360675 -19.402209 
L 25.182894 -19.357148 
L 24.979123 -19.312088 
L 24.752261 -19.267027 
L 24.505842 -19.221967 
L 24.243944 -19.176906 
L 23.971054 -19.131846 
L 23.691912 -19.086785 
L 23.411335 -19.041725 
L 23.13402 -18.996664 
L 22.864369 -18.951604 
L 22.606319 -18.906543 
L 22.363205 -18.861483 
L 22.137667 -18.816422 
L 21.931596 -18.771362 
z
" style="stroke: #6f6f6f; stroke-width: 0.15"/>
    </defs>
    <g clip-path="url(#p69610cfa53)">
     <use xlink:href="#md5b99c2883" x="0" y="84.96" style="fill: #cfcfcf; stroke: #6f6f6f; stroke-width: 0.15"/>
    </g>
   </g>
   <g id="PolyCollection_2">
    <defs>
     <path id="m73b9ae55d3" d="M 43.083341 -29.097851 
L 41.658841 -29.097851 
L 41.54019 -29.510076 
L 41.413484 -29.922302 
L 41.280779 -30.334528 
L 41.144646 -30.746754 
L 41.008112 -31.158979 
L 40.874551 -31.571205 
L 40.747545 -31.983431 
L 40.630706 -32.395657 
L 40.52749 -32.807882 
L 40.440991 -33.220108 
L 40.373743 -33.632334 
L 40.327551 -34.04456 
L 40.303341 -34.456786 
L 40.30107 -34.869011 
L 40.31968 -35.281237 
L 40.357118 -35.693463 
L 40.410408 -36.105689 
L 40.475786 -36.517914 
L 40.548874 -36.93014 
L 40.624894 -37.342366 
L 40.698901 -37.754592 
L 40.766024 -38.166817 
L 40.821705 -38.579043 
L 40.861905 -38.991269 
L 40.883294 -39.403495 
L 40.883391 -39.81572 
L 40.860657 -40.227946 
L 40.814549 -40.640172 
L 40.745508 -41.052398 
L 40.654919 -41.464624 
L 40.545011 -41.876849 
L 40.418737 -42.289075 
L 40.279618 -42.701301 
L 40.131574 -43.113527 
L 39.978748 -43.525752 
L 39.825334 -43.937978 
L 39.675412 -44.350204 
L 39.53281 -44.76243 
L 39.400974 -45.174655 
L 39.282879 -45.586881 
L 39.180948 -45.999107 
L 39.097002 -46.411333 
L 39.032221 -46.823559 
L 38.987114 -47.235784 
L 38.961498 -47.64801 
L 38.954475 -48.060236 
L 38.964416 -48.472462 
L 38.988943 -48.884687 
L 39.024924 -49.296913 
L 39.068482 -49.709139 
L 39.115027 -50.121365 
L 39.159329 -50.53359 
L 39.195629 -50.945816 
L 39.2178 -51.358042 
L 39.219559 -51.770268 
L 39.194723 -52.182494 
L 39.137506 -52.594719 
L 39.042838 -53.006945 
L 38.906683 -53.419171 
L 38.72635 -53.831397 
L 38.50075 -54.243622 
L 38.230603 -54.655848 
L 37.918553 -55.068074 
L 37.569187 -55.4803 
L 37.188956 -55.892525 
L 36.78598 -56.304751 
L 36.369768 -56.716977 
L 35.950845 -57.129203 
L 35.54033 -57.541428 
L 35.149471 -57.953654 
L 34.789182 -58.36588 
L 34.469604 -58.778106 
L 34.199709 -59.190332 
L 33.986986 -59.602557 
L 33.837202 -60.014783 
L 33.754261 -60.427009 
L 33.740156 -60.839235 
L 33.794999 -61.25146 
L 33.917138 -61.663686 
L 34.103323 -62.075912 
L 34.348915 -62.488138 
L 34.648127 -62.900363 
L 34.994273 -63.312589 
L 35.380011 -63.724815 
L 35.797589 -64.137041 
L 36.239069 -64.549267 
L 36.69653 -64.961492 
L 37.162263 -65.373718 
L 37.628935 -65.785944 
L 38.089739 -66.19817 
L 38.538523 -66.610395 
L 38.969888 -67.022621 
L 39.379278 -67.434847 
L 39.76302 -67.847073 
L 40.11836 -68.259298 
L 40.443447 -68.671524 
L 40.737306 -69.08375 
L 40.999772 -69.495976 
L 41.231405 -69.908202 
L 43.510777 -69.908202 
L 43.510777 -69.908202 
L 43.74241 -69.495976 
L 44.004876 -69.08375 
L 44.298735 -68.671524 
L 44.623822 -68.259298 
L 44.979162 -67.847073 
L 45.362904 -67.434847 
L 45.772293 -67.022621 
L 46.203659 -66.610395 
L 46.652442 -66.19817 
L 47.113247 -65.785944 
L 47.579919 -65.373718 
L 48.045652 -64.961492 
L 48.503113 -64.549267 
L 48.944592 -64.137041 
L 49.362171 -63.724815 
L 49.747909 -63.312589 
L 50.094055 -62.900363 
L 50.393267 -62.488138 
L 50.638859 -62.075912 
L 50.825044 -61.663686 
L 50.947183 -61.25146 
L 51.002026 -60.839235 
L 50.98792 -60.427009 
L 50.90498 -60.014783 
L 50.755196 -59.602557 
L 50.542473 -59.190332 
L 50.272578 -58.778106 
L 49.952999 -58.36588 
L 49.592711 -57.953654 
L 49.201851 -57.541428 
L 48.791336 -57.129203 
L 48.372414 -56.716977 
L 47.956202 -56.304751 
L 47.553226 -55.892525 
L 47.172995 -55.4803 
L 46.823629 -55.068074 
L 46.511579 -54.655848 
L 46.241432 -54.243622 
L 46.015832 -53.831397 
L 45.835498 -53.419171 
L 45.699344 -53.006945 
L 45.604675 -52.594719 
L 45.547459 -52.182494 
L 45.522623 -51.770268 
L 45.524382 -51.358042 
L 45.546553 -50.945816 
L 45.582853 -50.53359 
L 45.627155 -50.121365 
L 45.6737 -49.709139 
L 45.717258 -49.296913 
L 45.753239 -48.884687 
L 45.777766 -48.472462 
L 45.787707 -48.060236 
L 45.780684 -47.64801 
L 45.755068 -47.235784 
L 45.709961 -46.823559 
L 45.64518 -46.411333 
L 45.561234 -45.999107 
L 45.459303 -45.586881 
L 45.341208 -45.174655 
L 45.209372 -44.76243 
L 45.066769 -44.350204 
L 44.916848 -43.937978 
L 44.763434 -43.525752 
L 44.610608 -43.113527 
L 44.462564 -42.701301 
L 44.323445 -42.289075 
L 44.197171 -41.876849 
L 44.087263 -41.464624 
L 43.996674 -41.052398 
L 43.927633 -40.640172 
L 43.881524 -40.227946 
L 43.858791 -39.81572 
L 43.858888 -39.403495 
L 43.880277 -38.991269 
L 43.920477 -38.579043 
L 43.976158 -38.166817 
L 44.043281 -37.754592 
L 44.117288 -37.342366 
L 44.193308 -36.93014 
L 44.266396 -36.517914 
L 44.331774 -36.105689 
L 44.385064 -35.693463 
L 44.422502 -35.281237 
L 44.441112 -34.869011 
L 44.438841 -34.456786 
L 44.414631 -34.04456 
L 44.368438 -33.632334 
L 44.301191 -33.220108 
L 44.214691 -32.807882 
L 44.111476 -32.395657 
L 43.994637 -31.983431 
L 43.867631 -31.571205 
L 43.73407 -31.158979 
L 43.597536 -30.746754 
L 43.461403 -30.334528 
L 43.328698 -29.922302 
L 43.201992 -29.510076 
L 43.083341 -29.097851 
z
" style="stroke: #6f6f6f; stroke-width: 0.15"/>
    </defs>
    <g clip-path="url(#p69610cfa53)">
     <use xlink:href="#m73b9ae55d3" x="0" y="84.96" style="fill: #f3f3ae; stroke: #6f6f6f; stroke-width: 0.15"/>
    </g>
   </g>
   <g id="line2d_8">
    <path d="M 20.793753 65.608923 
L 20.793753 62.307366 
" clip-path="url(#p69610cfa53)" style="fill: none; stroke: #8c8c8c; stroke-width: 0.75; stroke-linecap: round"/>
   </g>
   <g id="line2d_9">
    <path d="M 20.793753 64.402139 
L 20.793753 63.239729 
" clip-path="url(#p69610cfa53)" style="fill: none; stroke: #8c8c8c; stroke-width: 4; stroke-linecap: round"/>
   </g>
   <g id="line2d_10">
    <path d="M 20.793753 63.845875 
" clip-path="url(#p69610cfa53)" style="fill: none; stroke: #6f6f6f; stroke-width: 1.2; stroke-linecap: round"/>
    <defs>
     <path id="m377af45a53" d="M 0 0.833333 
C 0.221003 0.833333 0.432983 0.745528 0.589256 0.589256 
C 0.745528 0.432983 0.833333 0.221003 0.833333 0 
C 0.833333 -0.221003 0.745528 -0.432983 0.589256 -0.589256 
C 0.432983 -0.745528 0.221003 -0.833333 0 -0.833333 
C -0.221003 -0.833333 -0.432983 -0.745528 -0.589256 -0.589256 
C -0.745528 -0.432983 -0.833333 -0.221003 -0.833333 0 
C -0.833333 0.221003 -0.745528 0.432983 -0.589256 0.589256 
C -0.432983 0.745528 -0.221003 0.833333 0 0.833333 
z
" style="stroke: #ffffff; stroke-width: 0.8"/>
    </defs>
    <g clip-path="url(#p69610cfa53)">
     <use xlink:href="#m377af45a53" x="20.793753" y="63.845875" style="fill: #ffffff; stroke: #ffffff; stroke-width: 0.8"/>
    </g>
   </g>
   <g id="line2d_11">
    <path d="M 42.371091 50.448246 
L 42.371091 20.465702 
" clip-path="url(#p69610cfa53)" style="fill: none; stroke: #8c8c8c; stroke-width: 0.75; stroke-linecap: round"/>
   </g>
   <g id="line2d_12">
    <path d="M 42.371091 36.158936 
L 42.371091 24.272621 
" clip-path="url(#p69610cfa53)" style="fill: none; stroke: #8c8c8c; stroke-width: 4; stroke-linecap: round"/>
   </g>
   <g id="line2d_13">
    <path d="M 42.371091 26.046522 
" clip-path="url(#p69610cfa53)" style="fill: none; stroke: #6f6f6f; stroke-width: 1.2; stroke-linecap: round"/>
    <g clip-path="url(#p69610cfa53)">
     <use xlink:href="#m377af45a53" x="42.371091" y="26.046522" style="fill: #ffffff; stroke: #ffffff; stroke-width: 0.8"/>
    </g>
   </g>
   <g id="patch_3">
    <path d="M 10.005084 74.395463 
L 10.005084 4.076256 
" style="fill: none; stroke: #777777; stroke-width: 0.5; stroke-linejoin: miter; stroke-linecap: square"/>
   </g>
   <g id="patch_4">
    <path d="M 10.005084 76.895463 
L 53.15976 76.895463 
" style="fill: none; stroke: #777777; stroke-width: 0.5; stroke-linejoin: miter; stroke-linecap: square"/>
   </g>
  </g>
 </g>
 <defs>
  <clipPath id="p69610cfa53">
   <rect x="10.005084" y="4.076256" width="43.154676" height="70.319207"/>
  </clipPath>
 </defs>
</svg>
