<?xml version="1.0" encoding="utf-8" standalone="no"?>
<!DOCTYPE svg PUBLIC "-//W3C//DTD SVG 1.1//EN"
  "http://www.w3.org/Graphics/SVG/1.1/DTD/svg11.dtd">
<svg xmlns:xlink="http://www.w3.org/1999/xlink" width="141.12pt" height="84.96pt" viewBox="0 0 141.12 84.96" xmlns="http://www.w3.org/2000/svg" version="1.1">
 <metadata>
  <rdf:RDF xmlns:dc="http://purl.org/dc/elements/1.1/" xmlns:cc="http://creativecommons.org/ns#" xmlns:rdf="http://www.w3.org/1999/02/22-rdf-syntax-ns#">
   <cc:Work>
    <dc:type rdf:resource="http://purl.org/dc/dcmitype/StillImage"/>
    <dc:date>2024-05-27T15:37:17.683602</dc:date>
    <dc:format>image/svg+xml</dc:format>
    <dc:creator>
     <cc:Agent>
      <dc:title>Matplotlib v3.8.3, https://matplotlib.org/</dc:title>
     </cc:Agent>
    </dc:creator>
   </cc:Work>
  </rdf:RDF>
 </metadata>
 <defs>
  <style type="text/css">*{stroke-linejoin: round; stroke-linecap: butt}</style>
 </defs>
 <g id="figure_1">
  <g id="patch_1">
   <path d="M 0 84.96 
L 141.12 84.96 
L 141.12 0 
L 0 0 
z
" style="fill: #ffffff"/>
  </g>
  <g id="axes_1">
   <g id="patch_2">
    <path d="M 8.336802 74.419526 
L 138.11976 74.419526 
L 138.11976 4.076256 
L 8.336802 4.076256 
z
" style="fill: #ffffff"/>
   </g>
   <g id="matplotlib.axis_1">
    <g id="xtick_1">
     <g id="text_1">
      <!-- Immature T -->
      <g style="fill: #333333" transform="translate(12.370137 81.230229) scale(0.035 -0.035)">
       <defs>
        <path id="Helvetica-49" d="M 628 4591 
L 1256 4591 
L 1256 0 
L 628 0 
L 628 4591 
z
" transform="scale(0.015625)"/>
        <path id="Helvetica-6d" d="M 413 3347 
L 969 3347 
L 969 2872 
Q 1169 3119 1331 3231 
Q 1609 3422 1963 3422 
Q 2363 3422 2606 3225 
Q 2744 3113 2856 2894 
Q 3044 3163 3297 3292 
Q 3550 3422 3866 3422 
Q 4541 3422 4784 2934 
Q 4916 2672 4916 2228 
L 4916 0 
L 4331 0 
L 4331 2325 
Q 4331 2659 4164 2784 
Q 3997 2909 3756 2909 
Q 3425 2909 3186 2687 
Q 2947 2466 2947 1947 
L 2947 0 
L 2375 0 
L 2375 2184 
Q 2375 2525 2294 2681 
Q 2166 2916 1816 2916 
Q 1497 2916 1236 2669 
Q 975 2422 975 1775 
L 975 0 
L 413 0 
L 413 3347 
z
" transform="scale(0.015625)"/>
        <path id="Helvetica-61" d="M 844 891 
Q 844 647 1022 506 
Q 1200 366 1444 366 
Q 1741 366 2019 503 
Q 2488 731 2488 1250 
L 2488 1703 
Q 2384 1638 2221 1594 
Q 2059 1550 1903 1531 
L 1563 1488 
Q 1256 1447 1103 1359 
Q 844 1213 844 891 
z
M 2206 2028 
Q 2400 2053 2466 2191 
Q 2503 2266 2503 2406 
Q 2503 2694 2298 2823 
Q 2094 2953 1713 2953 
Q 1272 2953 1088 2716 
Q 984 2584 953 2325 
L 428 2325 
Q 444 2944 830 3186 
Q 1216 3428 1725 3428 
Q 2316 3428 2684 3203 
Q 3050 2978 3050 2503 
L 3050 575 
Q 3050 488 3086 434 
Q 3122 381 3238 381 
Q 3275 381 3322 386 
Q 3369 391 3422 400 
L 3422 -16 
Q 3291 -53 3222 -62 
Q 3153 -72 3034 -72 
Q 2744 -72 2613 134 
Q 2544 244 2516 444 
Q 2344 219 2022 53 
Q 1700 -113 1313 -113 
Q 847 -113 551 170 
Q 256 453 256 878 
Q 256 1344 547 1600 
Q 838 1856 1309 1916 
L 2206 2028 
z
M 1741 3428 
L 1741 3428 
z
" transform="scale(0.015625)"/>
        <path id="Helvetica-74" d="M 525 4281 
L 1094 4281 
L 1094 3347 
L 1628 3347 
L 1628 2888 
L 1094 2888 
L 1094 703 
Q 1094 528 1213 469 
Q 1278 434 1431 434 
Q 1472 434 1519 436 
Q 1566 438 1628 444 
L 1628 0 
Q 1531 -28 1426 -40 
Q 1322 -53 1200 -53 
Q 806 -53 665 148 
Q 525 350 525 672 
L 525 2888 
L 72 2888 
L 72 3347 
L 525 3347 
L 525 4281 
z
" transform="scale(0.015625)"/>
        <path id="Helvetica-75" d="M 975 3347 
L 975 1125 
Q 975 869 1056 706 
Q 1206 406 1616 406 
Q 2203 406 2416 931 
Q 2531 1213 2531 1703 
L 2531 3347 
L 3094 3347 
L 3094 0 
L 2563 0 
L 2569 494 
Q 2459 303 2297 172 
Q 1975 -91 1516 -91 
Q 800 -91 541 388 
Q 400 644 400 1072 
L 400 3347 
L 975 3347 
z
M 1747 3428 
L 1747 3428 
z
" transform="scale(0.015625)"/>
        <path id="Helvetica-72" d="M 428 3347 
L 963 3347 
L 963 2769 
Q 1028 2938 1284 3180 
Q 1541 3422 1875 3422 
Q 1891 3422 1928 3419 
Q 1966 3416 2056 3406 
L 2056 2813 
Q 2006 2822 1964 2825 
Q 1922 2828 1872 2828 
Q 1447 2828 1219 2554 
Q 991 2281 991 1925 
L 991 0 
L 428 0 
L 428 3347 
z
" transform="scale(0.015625)"/>
        <path id="Helvetica-65" d="M 1806 3422 
Q 2163 3422 2497 3255 
Q 2831 3088 3006 2822 
Q 3175 2569 3231 2231 
Q 3281 2000 3281 1494 
L 828 1494 
Q 844 984 1069 676 
Q 1294 369 1766 369 
Q 2206 369 2469 659 
Q 2619 828 2681 1050 
L 3234 1050 
Q 3213 866 3089 639 
Q 2966 413 2813 269 
Q 2556 19 2178 -69 
Q 1975 -119 1719 -119 
Q 1094 -119 659 336 
Q 225 791 225 1609 
Q 225 2416 662 2919 
Q 1100 3422 1806 3422 
z
M 2703 1941 
Q 2669 2306 2544 2525 
Q 2313 2931 1772 2931 
Q 1384 2931 1121 2651 
Q 859 2372 844 1941 
L 2703 1941 
z
M 1753 3428 
L 1753 3428 
z
" transform="scale(0.015625)"/>
        <path id="Helvetica-20" transform="scale(0.015625)"/>
        <path id="Helvetica-54" d="M 3828 4591 
L 3828 4044 
L 2281 4044 
L 2281 0 
L 1650 0 
L 1650 4044 
L 103 4044 
L 103 4591 
L 3828 4591 
z
" transform="scale(0.015625)"/>
       </defs>
       <use xlink:href="#Helvetica-49"/>
       <use xlink:href="#Helvetica-6d" x="27.783203"/>
       <use xlink:href="#Helvetica-6d" x="111.083984"/>
       <use xlink:href="#Helvetica-61" x="194.384766"/>
       <use xlink:href="#Helvetica-74" x="250"/>
       <use xlink:href="#Helvetica-75" x="277.783203"/>
       <use xlink:href="#Helvetica-72" x="333.398438"/>
       <use xlink:href="#Helvetica-65" x="366.699219"/>
       <use xlink:href="#Helvetica-20" x="422.314453"/>
       <use xlink:href="#Helvetica-54" x="450.097656"/>
      </g>
     </g>
    </g>
    <g id="xtick_2">
     <g id="text_2">
      <!-- Mature T -->
      <g style="fill: #333333" transform="translate(40.270596 81.230229) scale(0.035 -0.035)">
       <defs>
        <path id="Helvetica-4d" d="M 472 4591 
L 1363 4591 
L 2681 709 
L 3991 4591 
L 4872 4591 
L 4872 0 
L 4281 0 
L 4281 2709 
Q 4281 2850 4287 3175 
Q 4294 3500 4294 3872 
L 2984 0 
L 2369 0 
L 1050 3872 
L 1050 3731 
Q 1050 3563 1058 3217 
Q 1066 2872 1066 2709 
L 1066 0 
L 472 0 
L 472 4591 
z
" transform="scale(0.015625)"/>
       </defs>
       <use xlink:href="#Helvetica-4d"/>
       <use xlink:href="#Helvetica-61" x="83.300781"/>
       <use xlink:href="#Helvetica-74" x="138.916016"/>
       <use xlink:href="#Helvetica-75" x="166.699219"/>
       <use xlink:href="#Helvetica-72" x="222.314453"/>
       <use xlink:href="#Helvetica-65" x="255.615234"/>
       <use xlink:href="#Helvetica-20" x="311.230469"/>
       <use xlink:href="#Helvetica-54" x="339.013672"/>
      </g>
     </g>
    </g>
    <g id="xtick_3">
     <g id="text_3">
      <!-- IL7R Non T -->
      <g style="fill: #333333" transform="translate(64.280586 81.230229) scale(0.035 -0.035)">
       <defs>
        <path id="Helvetica-4c" d="M 488 4591 
L 1109 4591 
L 1109 547 
L 3434 547 
L 3434 0 
L 488 0 
L 488 4591 
z
" transform="scale(0.015625)"/>
        <path id="Helvetica-37" d="M 3347 4400 
L 3347 3909 
Q 3131 3700 2773 3181 
Q 2416 2663 2141 2063 
Q 1869 1478 1728 997 
Q 1638 688 1494 0 
L 872 0 
Q 1084 1281 1809 2550 
Q 2238 3294 2709 3834 
L 234 3834 
L 234 4400 
L 3347 4400 
z
" transform="scale(0.015625)"/>
        <path id="Helvetica-52" d="M 2622 2488 
Q 3059 2488 3314 2663 
Q 3569 2838 3569 3294 
Q 3569 3784 3213 3963 
Q 3022 4056 2703 4056 
L 1184 4056 
L 1184 2488 
L 2622 2488 
z
M 563 4591 
L 2688 4591 
Q 3213 4591 3553 4438 
Q 4200 4144 4200 3353 
Q 4200 2941 4029 2678 
Q 3859 2416 3553 2256 
Q 3822 2147 3958 1969 
Q 4094 1791 4109 1391 
L 4131 775 
Q 4141 513 4175 384 
Q 4231 166 4375 103 
L 4375 0 
L 3613 0 
Q 3581 59 3562 153 
Q 3544 247 3531 516 
L 3494 1281 
Q 3472 1731 3159 1884 
Q 2981 1969 2600 1969 
L 1184 1969 
L 1184 0 
L 563 0 
L 563 4591 
z
" transform="scale(0.015625)"/>
        <path id="Helvetica-4e" d="M 488 4591 
L 1222 4591 
L 3541 872 
L 3541 4591 
L 4131 4591 
L 4131 0 
L 3434 0 
L 1081 3716 
L 1081 0 
L 488 0 
L 488 4591 
z
M 2269 4591 
L 2269 4591 
z
" transform="scale(0.015625)"/>
        <path id="Helvetica-6f" d="M 1741 363 
Q 2300 363 2508 786 
Q 2716 1209 2716 1728 
Q 2716 2197 2566 2491 
Q 2328 2953 1747 2953 
Q 1231 2953 997 2559 
Q 763 2166 763 1609 
Q 763 1075 997 719 
Q 1231 363 1741 363 
z
M 1763 3444 
Q 2409 3444 2856 3012 
Q 3303 2581 3303 1744 
Q 3303 934 2909 406 
Q 2516 -122 1688 -122 
Q 997 -122 590 345 
Q 184 813 184 1600 
Q 184 2444 612 2944 
Q 1041 3444 1763 3444 
z
M 1744 3428 
L 1744 3428 
z
" transform="scale(0.015625)"/>
        <path id="Helvetica-6e" d="M 413 3347 
L 947 3347 
L 947 2872 
Q 1184 3166 1450 3294 
Q 1716 3422 2041 3422 
Q 2753 3422 3003 2925 
Q 3141 2653 3141 2147 
L 3141 0 
L 2569 0 
L 2569 2109 
Q 2569 2416 2478 2603 
Q 2328 2916 1934 2916 
Q 1734 2916 1606 2875 
Q 1375 2806 1200 2600 
Q 1059 2434 1017 2257 
Q 975 2081 975 1753 
L 975 0 
L 413 0 
L 413 3347 
z
M 1734 3428 
L 1734 3428 
z
" transform="scale(0.015625)"/>
       </defs>
       <use xlink:href="#Helvetica-49"/>
       <use xlink:href="#Helvetica-4c" x="27.783203"/>
       <use xlink:href="#Helvetica-37" x="83.398438"/>
       <use xlink:href="#Helvetica-52" x="139.013672"/>
       <use xlink:href="#Helvetica-20" x="211.230469"/>
       <use xlink:href="#Helvetica-4e" x="239.013672"/>
       <use xlink:href="#Helvetica-6f" x="311.230469"/>
       <use xlink:href="#Helvetica-6e" x="366.845703"/>
       <use xlink:href="#Helvetica-20" x="422.460938"/>
       <use xlink:href="#Helvetica-54" x="450.244141"/>
      </g>
     </g>
    </g>
    <g id="xtick_4">
     <g id="text_4">
      <!-- IL7R Immature T -->
      <g style="fill: #333333" transform="translate(86.057412 81.230229) scale(0.035 -0.035)">
       <use xlink:href="#Helvetica-49"/>
       <use xlink:href="#Helvetica-4c" x="27.783203"/>
       <use xlink:href="#Helvetica-37" x="83.398438"/>
       <use xlink:href="#Helvetica-52" x="139.013672"/>
       <use xlink:href="#Helvetica-20" x="211.230469"/>
       <use xlink:href="#Helvetica-49" x="239.013672"/>
       <use xlink:href="#Helvetica-6d" x="266.796875"/>
       <use xlink:href="#Helvetica-6d" x="350.097656"/>
       <use xlink:href="#Helvetica-61" x="433.398438"/>
       <use xlink:href="#Helvetica-74" x="489.013672"/>
       <use xlink:href="#Helvetica-75" x="516.796875"/>
       <use xlink:href="#Helvetica-72" x="572.412109"/>
       <use xlink:href="#Helvetica-65" x="605.712891"/>
       <use xlink:href="#Helvetica-20" x="661.328125"/>
       <use xlink:href="#Helvetica-54" x="689.111328"/>
      </g>
     </g>
    </g>
    <g id="xtick_5">
     <g id="text_5">
      <!-- IL7R Mature T -->
      <g style="fill: #333333" transform="translate(113.957871 81.230229) scale(0.035 -0.035)">
       <use xlink:href="#Helvetica-49"/>
       <use xlink:href="#Helvetica-4c" x="27.783203"/>
       <use xlink:href="#Helvetica-37" x="83.398438"/>
       <use xlink:href="#Helvetica-52" x="139.013672"/>
       <use xlink:href="#Helvetica-20" x="211.230469"/>
       <use xlink:href="#Helvetica-4d" x="239.013672"/>
       <use xlink:href="#Helvetica-61" x="322.314453"/>
       <use xlink:href="#Helvetica-74" x="377.929688"/>
       <use xlink:href="#Helvetica-75" x="405.712891"/>
       <use xlink:href="#Helvetica-72" x="461.328125"/>
       <use xlink:href="#Helvetica-65" x="494.628906"/>
       <use xlink:href="#Helvetica-20" x="550.244141"/>
       <use xlink:href="#Helvetica-54" x="578.027344"/>
      </g>
     </g>
    </g>
   </g>
   <g id="matplotlib.axis_2">
    <g id="ytick_1">
     <g id="line2d_1">
      <defs>
       <path id="m9fe5e04ee4" d="M 0 0 
L -1 0 
" style="stroke: #777777; stroke-width: 0.5"/>
      </defs>
      <g>
       <use xlink:href="#m9fe5e04ee4" x="8.336802" y="66.673159" style="fill: #777777; stroke: #777777; stroke-width: 0.5"/>
      </g>
     </g>
     <g id="text_6">
      <!-- 0 -->
      <g style="fill: #333333" transform="translate(4.668521 67.749174) scale(0.03 -0.03)">
       <defs>
        <path id="Helvetica-30" d="M 1731 4475 
Q 2600 4475 2988 3759 
Q 3288 3206 3288 2244 
Q 3288 1331 3016 734 
Q 2622 -122 1728 -122 
Q 922 -122 528 578 
Q 200 1163 200 2147 
Q 200 2909 397 3456 
Q 766 4475 1731 4475 
z
M 1725 391 
Q 2163 391 2422 778 
Q 2681 1166 2681 2222 
Q 2681 2984 2493 3476 
Q 2306 3969 1766 3969 
Q 1269 3969 1039 3501 
Q 809 3034 809 2125 
Q 809 1441 956 1025 
Q 1181 391 1725 391 
z
" transform="scale(0.015625)"/>
       </defs>
       <use xlink:href="#Helvetica-30"/>
      </g>
     </g>
    </g>
    <g id="ytick_2">
     <g id="line2d_2">
      <g>
       <use xlink:href="#m9fe5e04ee4" x="8.336802" y="58.848546" style="fill: #777777; stroke: #777777; stroke-width: 0.5"/>
      </g>
     </g>
     <g id="text_7">
      <!-- 10 -->
      <g style="fill: #333333" transform="translate(3.00024 59.924562) scale(0.03 -0.03)">
       <defs>
        <path id="Helvetica-31" d="M 613 3169 
L 613 3600 
Q 1222 3659 1462 3798 
Q 1703 3938 1822 4456 
L 2266 4456 
L 2266 0 
L 1666 0 
L 1666 3169 
L 613 3169 
z
" transform="scale(0.015625)"/>
       </defs>
       <use xlink:href="#Helvetica-31"/>
       <use xlink:href="#Helvetica-30" x="55.615234"/>
      </g>
     </g>
    </g>
    <g id="ytick_3">
     <g id="line2d_3">
      <g>
       <use xlink:href="#m9fe5e04ee4" x="8.336802" y="51.023933" style="fill: #777777; stroke: #777777; stroke-width: 0.5"/>
      </g>
     </g>
     <g id="text_8">
      <!-- 20 -->
      <g style="fill: #333333" transform="translate(3.00024 52.099949) scale(0.03 -0.03)">
       <defs>
        <path id="Helvetica-32" d="M 200 0 
Q 231 578 439 1006 
Q 647 1434 1250 1784 
L 1850 2131 
Q 2253 2366 2416 2531 
Q 2672 2791 2672 3125 
Q 2672 3516 2437 3745 
Q 2203 3975 1813 3975 
Q 1234 3975 1013 3538 
Q 894 3303 881 2888 
L 309 2888 
Q 319 3472 525 3841 
Q 891 4491 1816 4491 
Q 2584 4491 2939 4075 
Q 3294 3659 3294 3150 
Q 3294 2613 2916 2231 
Q 2697 2009 2131 1694 
L 1703 1456 
Q 1397 1288 1222 1134 
Q 909 863 828 531 
L 3272 531 
L 3272 0 
L 200 0 
z
" transform="scale(0.015625)"/>
       </defs>
       <use xlink:href="#Helvetica-32"/>
       <use xlink:href="#Helvetica-30" x="55.615234"/>
      </g>
     </g>
    </g>
    <g id="ytick_4">
     <g id="line2d_4">
      <g>
       <use xlink:href="#m9fe5e04ee4" x="8.336802" y="43.19932" style="fill: #777777; stroke: #777777; stroke-width: 0.5"/>
      </g>
     </g>
     <g id="text_9">
      <!-- 30 -->
      <g style="fill: #333333" transform="translate(3.00024 44.275336) scale(0.03 -0.03)">
       <defs>
        <path id="Helvetica-33" d="M 1663 -122 
Q 869 -122 511 314 
Q 153 750 153 1375 
L 741 1375 
Q 778 941 903 744 
Q 1122 391 1694 391 
Q 2138 391 2406 628 
Q 2675 866 2675 1241 
Q 2675 1703 2392 1887 
Q 2109 2072 1606 2072 
Q 1550 2072 1492 2070 
Q 1434 2069 1375 2066 
L 1375 2563 
Q 1463 2553 1522 2550 
Q 1581 2547 1650 2547 
Q 1966 2547 2169 2647 
Q 2525 2822 2525 3272 
Q 2525 3606 2287 3787 
Q 2050 3969 1734 3969 
Q 1172 3969 956 3594 
Q 838 3388 822 3006 
L 266 3006 
Q 266 3506 466 3856 
Q 809 4481 1675 4481 
Q 2359 4481 2734 4176 
Q 3109 3872 3109 3294 
Q 3109 2881 2888 2625 
Q 2750 2466 2531 2375 
Q 2884 2278 3082 2001 
Q 3281 1725 3281 1325 
Q 3281 684 2859 281 
Q 2438 -122 1663 -122 
z
" transform="scale(0.015625)"/>
       </defs>
       <use xlink:href="#Helvetica-33"/>
       <use xlink:href="#Helvetica-30" x="55.615234"/>
      </g>
     </g>
    </g>
    <g id="ytick_5">
     <g id="line2d_5">
      <g>
       <use xlink:href="#m9fe5e04ee4" x="8.336802" y="35.374707" style="fill: #777777; stroke: #777777; stroke-width: 0.5"/>
      </g>
     </g>
     <g id="text_10">
      <!-- 40 -->
      <g style="fill: #333333" transform="translate(3.00024 36.450723) scale(0.03 -0.03)">
       <defs>
        <path id="Helvetica-34" d="M 2116 1584 
L 2116 3613 
L 681 1584 
L 2116 1584 
z
M 2125 0 
L 2125 1094 
L 163 1094 
L 163 1644 
L 2213 4488 
L 2688 4488 
L 2688 1584 
L 3347 1584 
L 3347 1094 
L 2688 1094 
L 2688 0 
L 2125 0 
z
" transform="scale(0.015625)"/>
       </defs>
       <use xlink:href="#Helvetica-34"/>
       <use xlink:href="#Helvetica-30" x="55.615234"/>
      </g>
     </g>
    </g>
    <g id="ytick_6">
     <g id="line2d_6">
      <g>
       <use xlink:href="#m9fe5e04ee4" x="8.336802" y="27.550094" style="fill: #777777; stroke: #777777; stroke-width: 0.5"/>
      </g>
     </g>
     <g id="text_11">
      <!-- 50 -->
      <g style="fill: #333333" transform="translate(3.00024 28.62611) scale(0.03 -0.03)">
       <defs>
        <path id="Helvetica-35" d="M 791 1141 
Q 847 659 1238 475 
Q 1438 381 1700 381 
Q 2200 381 2440 700 
Q 2681 1019 2681 1406 
Q 2681 1875 2395 2131 
Q 2109 2388 1709 2388 
Q 1419 2388 1211 2275 
Q 1003 2163 856 1963 
L 369 1991 
L 709 4400 
L 3034 4400 
L 3034 3856 
L 1131 3856 
L 941 2613 
Q 1097 2731 1238 2791 
Q 1488 2894 1816 2894 
Q 2431 2894 2859 2497 
Q 3288 2100 3288 1491 
Q 3288 856 2895 371 
Q 2503 -113 1644 -113 
Q 1097 -113 676 195 
Q 256 503 206 1141 
L 791 1141 
z
" transform="scale(0.015625)"/>
       </defs>
       <use xlink:href="#Helvetica-35"/>
       <use xlink:href="#Helvetica-30" x="55.615234"/>
      </g>
     </g>
    </g>
    <g id="ytick_7">
     <g id="line2d_7">
      <g>
       <use xlink:href="#m9fe5e04ee4" x="8.336802" y="19.725481" style="fill: #777777; stroke: #777777; stroke-width: 0.5"/>
      </g>
     </g>
     <g id="text_12">
      <!-- 60 -->
      <g style="fill: #333333" transform="translate(3.00024 20.801497) scale(0.03 -0.03)">
       <defs>
        <path id="Helvetica-36" d="M 1872 4494 
Q 2622 4494 2917 4105 
Q 3213 3716 3213 3303 
L 2656 3303 
Q 2606 3569 2497 3719 
Q 2294 4000 1881 4000 
Q 1409 4000 1131 3564 
Q 853 3128 822 2316 
Q 1016 2600 1309 2741 
Q 1578 2866 1909 2866 
Q 2472 2866 2890 2506 
Q 3309 2147 3309 1434 
Q 3309 825 2912 354 
Q 2516 -116 1781 -116 
Q 1153 -116 697 361 
Q 241 838 241 1966 
Q 241 2800 444 3381 
Q 834 4494 1872 4494 
z
M 1831 384 
Q 2275 384 2495 682 
Q 2716 981 2716 1388 
Q 2716 1731 2519 2042 
Q 2322 2353 1803 2353 
Q 1441 2353 1167 2112 
Q 894 1872 894 1388 
Q 894 963 1142 673 
Q 1391 384 1831 384 
z
" transform="scale(0.015625)"/>
       </defs>
       <use xlink:href="#Helvetica-36"/>
       <use xlink:href="#Helvetica-30" x="55.615234"/>
      </g>
     </g>
    </g>
    <g id="ytick_8">
     <g id="line2d_8">
      <g>
       <use xlink:href="#m9fe5e04ee4" x="8.336802" y="11.900869" style="fill: #777777; stroke: #777777; stroke-width: 0.5"/>
      </g>
     </g>
     <g id="text_13">
      <!-- 70 -->
      <g style="fill: #333333" transform="translate(3.00024 12.976884) scale(0.03 -0.03)">
       <use xlink:href="#Helvetica-37"/>
       <use xlink:href="#Helvetica-30" x="55.615234"/>
      </g>
     </g>
    </g>
    <g id="ytick_9">
     <g id="line2d_9">
      <g>
       <use xlink:href="#m9fe5e04ee4" x="8.336802" y="4.076256" style="fill: #777777; stroke: #777777; stroke-width: 0.5"/>
      </g>
     </g>
     <g id="text_14">
      <!-- 80 -->
      <g style="fill: #333333" transform="translate(3.00024 5.152271) scale(0.03 -0.03)">
       <defs>
        <path id="Helvetica-38" d="M 1741 2600 
Q 2113 2600 2322 2808 
Q 2531 3016 2531 3303 
Q 2531 3553 2331 3762 
Q 2131 3972 1722 3972 
Q 1316 3972 1134 3762 
Q 953 3553 953 3272 
Q 953 2956 1187 2778 
Q 1422 2600 1741 2600 
z
M 1775 384 
Q 2166 384 2423 595 
Q 2681 806 2681 1225 
Q 2681 1659 2415 1884 
Q 2150 2109 1734 2109 
Q 1331 2109 1076 1879 
Q 822 1650 822 1244 
Q 822 894 1055 639 
Q 1288 384 1775 384 
z
M 975 2384 
Q 741 2484 609 2619 
Q 363 2869 363 3269 
Q 363 3769 725 4128 
Q 1088 4488 1753 4488 
Q 2397 4488 2762 4148 
Q 3128 3809 3128 3356 
Q 3128 2938 2916 2678 
Q 2797 2531 2547 2391 
Q 2825 2263 2984 2097 
Q 3281 1784 3281 1284 
Q 3281 694 2884 283 
Q 2488 -128 1763 -128 
Q 1109 -128 657 226 
Q 206 581 206 1256 
Q 206 1653 400 1942 
Q 594 2231 975 2384 
z
" transform="scale(0.015625)"/>
       </defs>
       <use xlink:href="#Helvetica-38"/>
       <use xlink:href="#Helvetica-30" x="55.615234"/>
      </g>
     </g>
    </g>
   </g>
   <g id="PolyCollection_1">
    <defs>
     <path id="m0493de80eb" d="M 22.479487 -15.669833 
L 20.150709 -15.669833 
L 19.818601 -16.104066 
L 19.422814 -16.538298 
L 18.96077 -16.97253 
L 18.432661 -17.406762 
L 17.842022 -17.840994 
L 17.196126 -18.275227 
L 16.506108 -18.709459 
L 15.786755 -19.143691 
L 15.055926 -19.577923 
L 14.333622 -20.012155 
L 13.640759 -20.446387 
L 12.997749 -20.88062 
L 12.423047 -21.314852 
L 11.931815 -21.749084 
L 11.534872 -22.183316 
L 11.238062 -22.617548 
L 11.042098 -23.05178 
L 10.942918 -23.486013 
L 10.932462 -23.920245 
L 10.999767 -24.354477 
L 11.132205 -24.788709 
L 11.316683 -25.222941 
L 11.540664 -25.657174 
L 11.792881 -26.091406 
L 12.063693 -26.525638 
L 12.345112 -26.95987 
L 12.630548 -27.394102 
L 12.914404 -27.828334 
L 13.191625 -28.262567 
L 13.457328 -28.696799 
L 13.706604 -29.131031 
L 13.934513 -29.565263 
L 14.136307 -29.999495 
L 14.307813 -30.433727 
L 14.445932 -30.86796 
L 14.549151 -31.302192 
L 14.617993 -31.736424 
L 14.655301 -32.170656 
L 14.666318 -32.604888 
L 14.658496 -33.039121 
L 14.641039 -33.473353 
L 14.624198 -33.907585 
L 14.618392 -34.341817 
L 14.633223 -34.776049 
L 14.676527 -35.210281 
L 14.753566 -35.644514 
L 14.866474 -36.078746 
L 15.014042 -36.512978 
L 15.19188 -36.94721 
L 15.392945 -37.381442 
L 15.608358 -37.815674 
L 15.8284 -38.249907 
L 16.043563 -38.684139 
L 16.245494 -39.118371 
L 16.427727 -39.552603 
L 16.586123 -39.986835 
L 16.718984 -40.421068 
L 16.826873 -40.8553 
L 16.912189 -41.289532 
L 16.978621 -41.723764 
L 17.030539 -42.157996 
L 17.072446 -42.592228 
L 17.108516 -43.026461 
L 17.142276 -43.460693 
L 17.176398 -43.894925 
L 17.212607 -44.329157 
L 17.251652 -44.763389 
L 17.293323 -45.197621 
L 17.336505 -45.631854 
L 17.379266 -46.066086 
L 17.419005 -46.500318 
L 17.452675 -46.93455 
L 17.477096 -47.368782 
L 17.489365 -47.803014 
L 17.487316 -48.237247 
L 17.469999 -48.671479 
L 17.438096 -49.105711 
L 17.394201 -49.539943 
L 17.342901 -49.974175 
L 17.290616 -50.408408 
L 17.245185 -50.84264 
L 17.215238 -51.276872 
L 17.209415 -51.711104 
L 17.235525 -52.145336 
L 17.299757 -52.579568 
L 17.406036 -53.013801 
L 17.555607 -53.448033 
L 17.746896 -53.882265 
L 17.97565 -54.316497 
L 18.235337 -54.750729 
L 18.517743 -55.184961 
L 18.813688 -55.619194 
L 19.113763 -56.053426 
L 19.409036 -56.487658 
L 19.691618 -56.92189 
L 19.955089 -57.356122 
L 20.194732 -57.790355 
L 20.407592 -58.224587 
L 20.592386 -58.658819 
L 22.037811 -58.658819 
L 22.037811 -58.658819 
L 22.222605 -58.224587 
L 22.435465 -57.790355 
L 22.675107 -57.356122 
L 22.938579 -56.92189 
L 23.221161 -56.487658 
L 23.516433 -56.053426 
L 23.816509 -55.619194 
L 24.112453 -55.184961 
L 24.39486 -54.750729 
L 24.654547 -54.316497 
L 24.8833 -53.882265 
L 25.074589 -53.448033 
L 25.224161 -53.013801 
L 25.33044 -52.579568 
L 25.394672 -52.145336 
L 25.420781 -51.711104 
L 25.414958 -51.276872 
L 25.385011 -50.84264 
L 25.339581 -50.408408 
L 25.287295 -49.974175 
L 25.235996 -49.539943 
L 25.192101 -49.105711 
L 25.160198 -48.671479 
L 25.142881 -48.237247 
L 25.140832 -47.803014 
L 25.1531 -47.368782 
L 25.177522 -46.93455 
L 25.211191 -46.500318 
L 25.25093 -46.066086 
L 25.293691 -45.631854 
L 25.336873 -45.197621 
L 25.378544 -44.763389 
L 25.417589 -44.329157 
L 25.453799 -43.894925 
L 25.487921 -43.460693 
L 25.52168 -43.026461 
L 25.557751 -42.592228 
L 25.599657 -42.157996 
L 25.651576 -41.723764 
L 25.718007 -41.289532 
L 25.803324 -40.8553 
L 25.911212 -40.421068 
L 26.044074 -39.986835 
L 26.20247 -39.552603 
L 26.384703 -39.118371 
L 26.586633 -38.684139 
L 26.801797 -38.249907 
L 27.021839 -37.815674 
L 27.237251 -37.381442 
L 27.438316 -36.94721 
L 27.616155 -36.512978 
L 27.763722 -36.078746 
L 27.87663 -35.644514 
L 27.95367 -35.210281 
L 27.996974 -34.776049 
L 28.011805 -34.341817 
L 28.005998 -33.907585 
L 27.989158 -33.473353 
L 27.971701 -33.039121 
L 27.963879 -32.604888 
L 27.974896 -32.170656 
L 28.012204 -31.736424 
L 28.081045 -31.302192 
L 28.184265 -30.86796 
L 28.322384 -30.433727 
L 28.49389 -29.999495 
L 28.695683 -29.565263 
L 28.923593 -29.131031 
L 29.172868 -28.696799 
L 29.438572 -28.262567 
L 29.715792 -27.828334 
L 29.999648 -27.394102 
L 30.285085 -26.95987 
L 30.566504 -26.525638 
L 30.837316 -26.091406 
L 31.089532 -25.657174 
L 31.313513 -25.222941 
L 31.497991 -24.788709 
L 31.630429 -24.354477 
L 31.697735 -23.920245 
L 31.687279 -23.486013 
L 31.588099 -23.05178 
L 31.392135 -22.617548 
L 31.095324 -22.183316 
L 30.698382 -21.749084 
L 30.207149 -21.314852 
L 29.632447 -20.88062 
L 28.989437 -20.446387 
L 28.296574 -20.012155 
L 27.574271 -19.577923 
L 26.843442 -19.143691 
L 26.124088 -18.709459 
L 25.434071 -18.275227 
L 24.788175 -17.840994 
L 24.197535 -17.406762 
L 23.669426 -16.97253 
L 23.207383 -16.538298 
L 22.811596 -16.104066 
L 22.479487 -15.669833 
z
" style="stroke: #525252; stroke-width: 0.15"/>
    </defs>
    <g clip-path="url(#p6bbf08f7d2)">
     <use xlink:href="#m0493de80eb" x="0" y="84.96" style="fill: #c3c3a2; stroke: #525252; stroke-width: 0.15"/>
    </g>
   </g>
   <g id="PolyCollection_2">
    <defs>
     <path id="m27ace5b3f7" d="M 48.086272 -14.953189 
L 46.457107 -14.953189 
L 46.240536 -15.347718 
L 45.992821 -15.742247 
L 45.716468 -16.136777 
L 45.415355 -16.531306 
L 45.094216 -16.925835 
L 44.757897 -17.320364 
L 44.410465 -17.714894 
L 44.054326 -18.109423 
L 43.689539 -18.503952 
L 43.313503 -18.898481 
L 42.921171 -19.293011 
L 42.505841 -19.68754 
L 42.060494 -20.082069 
L 41.579518 -20.476598 
L 41.06057 -20.871128 
L 40.506255 -21.265657 
L 39.92529 -21.660186 
L 39.332897 -22.054715 
L 38.750248 -22.449245 
L 38.202966 -22.843774 
L 37.718826 -23.238303 
L 37.324961 -23.632832 
L 37.044987 -24.027362 
L 36.896459 -24.421891 
L 36.889053 -24.81642 
L 37.023733 -25.210949 
L 37.292992 -25.605479 
L 37.682084 -26.000008 
L 38.170986 -26.394537 
L 38.736738 -26.789066 
L 39.35577 -27.183596 
L 40.005872 -27.578125 
L 40.667562 -27.972654 
L 41.324756 -28.367183 
L 41.964786 -28.761712 
L 42.577918 -29.156242 
L 43.156586 -29.550771 
L 43.694574 -29.9453 
L 44.186341 -30.339829 
L 44.62659 -30.734359 
L 45.010156 -31.128888 
L 45.332155 -31.523417 
L 45.588363 -31.917946 
L 45.775706 -32.312476 
L 45.892794 -32.707005 
L 45.940402 -33.101534 
L 45.921854 -33.496063 
L 45.843237 -33.890593 
L 45.713413 -34.285122 
L 45.543787 -34.679651 
L 45.347816 -35.07418 
L 45.140267 -35.46871 
L 44.936268 -35.863239 
L 44.750228 -36.257768 
L 44.594765 -36.652297 
L 44.479756 -37.046827 
L 44.411667 -37.441356 
L 44.39324 -37.835885 
L 44.423588 -38.230414 
L 44.498681 -38.624944 
L 44.612115 -39.019473 
L 44.756041 -39.414002 
L 44.922088 -39.808531 
L 45.102149 -40.203061 
L 45.288926 -40.59759 
L 45.476199 -40.992119 
L 45.658833 -41.386648 
L 45.832597 -41.781178 
L 45.99389 -42.175707 
L 46.139467 -42.570236 
L 46.266248 -42.964765 
L 46.371257 -43.359294 
L 46.451702 -43.753824 
L 46.505187 -44.148353 
L 46.529998 -44.542882 
L 46.525419 -44.937411 
L 46.492029 -45.331941 
L 46.431906 -45.72647 
L 46.348726 -46.120999 
L 46.247712 -46.515528 
L 46.135424 -46.910058 
L 46.019404 -47.304587 
L 45.907695 -47.699116 
L 45.808267 -48.093645 
L 45.728421 -48.488175 
L 45.674209 -48.882704 
L 45.649963 -49.277233 
L 45.657954 -49.671762 
L 45.698261 -50.066292 
L 45.768825 -50.460821 
L 45.865718 -50.85535 
L 45.983562 -51.249879 
L 46.116071 -51.644409 
L 46.256622 -52.038938 
L 46.398817 -52.433467 
L 46.536952 -52.827996 
L 46.666366 -53.222526 
L 46.783641 -53.617055 
L 46.88665 -54.011584 
L 47.65673 -54.011584 
L 47.65673 -54.011584 
L 47.759739 -53.617055 
L 47.877014 -53.222526 
L 48.006428 -52.827996 
L 48.144563 -52.433467 
L 48.286758 -52.038938 
L 48.427309 -51.644409 
L 48.559817 -51.249879 
L 48.677662 -50.85535 
L 48.774554 -50.460821 
L 48.845118 -50.066292 
L 48.885425 -49.671762 
L 48.893417 -49.277233 
L 48.86917 -48.882704 
L 48.814959 -48.488175 
L 48.735112 -48.093645 
L 48.635685 -47.699116 
L 48.523975 -47.304587 
L 48.407956 -46.910058 
L 48.295667 -46.515528 
L 48.194653 -46.120999 
L 48.111474 -45.72647 
L 48.051351 -45.331941 
L 48.01796 -44.937411 
L 48.013382 -44.542882 
L 48.038192 -44.148353 
L 48.091677 -43.753824 
L 48.172123 -43.359294 
L 48.277131 -42.964765 
L 48.403912 -42.570236 
L 48.54949 -42.175707 
L 48.710783 -41.781178 
L 48.884547 -41.386648 
L 49.06718 -40.992119 
L 49.254453 -40.59759 
L 49.441231 -40.203061 
L 49.621291 -39.808531 
L 49.787338 -39.414002 
L 49.931264 -39.019473 
L 50.044699 -38.624944 
L 50.119792 -38.230414 
L 50.15014 -37.835885 
L 50.131712 -37.441356 
L 50.063624 -37.046827 
L 49.948615 -36.652297 
L 49.793151 -36.257768 
L 49.607111 -35.863239 
L 49.403112 -35.46871 
L 49.195564 -35.07418 
L 48.999593 -34.679651 
L 48.829967 -34.285122 
L 48.700142 -33.890593 
L 48.621525 -33.496063 
L 48.602977 -33.101534 
L 48.650585 -32.707005 
L 48.767673 -32.312476 
L 48.955017 -31.917946 
L 49.211225 -31.523417 
L 49.533224 -31.128888 
L 49.916789 -30.734359 
L 50.357039 -30.339829 
L 50.848805 -29.9453 
L 51.386794 -29.550771 
L 51.965461 -29.156242 
L 52.578593 -28.761712 
L 53.218624 -28.367183 
L 53.875818 -27.972654 
L 54.537507 -27.578125 
L 55.18761 -27.183596 
L 55.806642 -26.789066 
L 56.372394 -26.394537 
L 56.861295 -26.000008 
L 57.250388 -25.605479 
L 57.519647 -25.210949 
L 57.654326 -24.81642 
L 57.64692 -24.421891 
L 57.498392 -24.027362 
L 57.218419 -23.632832 
L 56.824554 -23.238303 
L 56.340413 -22.843774 
L 55.793132 -22.449245 
L 55.210483 -22.054715 
L 54.618089 -21.660186 
L 54.037124 -21.265657 
L 53.482809 -20.871128 
L 52.963862 -20.476598 
L 52.482886 -20.082069 
L 52.037538 -19.68754 
L 51.622208 -19.293011 
L 51.229877 -18.898481 
L 50.853841 -18.503952 
L 50.489053 -18.109423 
L 50.132914 -17.714894 
L 49.785483 -17.320364 
L 49.449164 -16.925835 
L 49.128025 -16.531306 
L 48.826911 -16.136777 
L 48.550559 -15.742247 
L 48.302843 -15.347718 
L 48.086272 -14.953189 
z
" style="stroke: #525252; stroke-width: 0.15"/>
    </defs>
    <g clip-path="url(#p6bbf08f7d2)">
     <use xlink:href="#m27ace5b3f7" x="0" y="84.96" style="fill: #cbcbaf; stroke: #525252; stroke-width: 0.15"/>
    </g>
   </g>
   <g id="PolyCollection_3">
    <defs>
     <path id="m5f4b9153ad" d="M 74.113086 -17.603981 
L 72.343476 -17.603981 
L 72.106093 -17.95021 
L 71.831213 -18.296438 
L 71.519963 -18.642666 
L 71.175111 -18.988894 
L 70.800906 -19.335122 
L 70.402733 -19.68135 
L 69.986632 -20.027578 
L 69.558716 -20.373807 
L 69.124623 -20.720035 
L 68.689043 -21.066263 
L 68.255451 -21.412491 
L 67.826045 -21.758719 
L 67.401934 -22.104947 
L 66.983505 -22.451175 
L 66.570917 -22.797404 
L 66.164598 -23.143632 
L 65.765677 -23.48986 
L 65.37624 -23.836088 
L 64.999401 -24.182316 
L 64.639166 -24.528544 
L 64.300135 -24.874772 
L 63.987131 -25.221001 
L 63.704806 -25.567229 
L 63.457336 -25.913457 
L 63.248244 -26.259685 
L 63.080373 -26.605913 
L 62.956014 -26.952141 
L 62.877135 -27.298369 
L 62.845645 -27.644598 
L 62.863611 -27.990826 
L 62.933369 -28.337054 
L 63.05746 -28.683282 
L 63.238386 -29.02951 
L 63.478191 -29.375738 
L 63.777949 -29.721966 
L 64.137203 -30.068194 
L 64.553489 -30.414423 
L 65.021999 -30.760651 
L 65.535461 -31.106879 
L 66.084265 -31.453107 
L 66.656816 -31.799335 
L 67.240084 -32.145563 
L 67.820278 -32.491791 
L 68.383574 -32.83802 
L 68.916834 -33.184248 
L 69.408248 -33.530476 
L 69.847866 -33.876704 
L 70.227998 -34.222932 
L 70.543461 -34.56916 
L 70.791688 -34.915388 
L 70.972692 -35.261617 
L 71.088912 -35.607845 
L 71.144959 -35.954073 
L 71.147275 -36.300301 
L 71.103763 -36.646529 
L 71.023378 -36.992757 
L 70.915737 -37.338985 
L 70.79073 -37.685214 
L 70.658151 -38.031442 
L 70.527349 -38.37767 
L 70.406861 -38.723898 
L 70.304066 -39.070126 
L 70.224836 -39.416354 
L 70.173231 -39.762582 
L 70.151264 -40.108811 
L 70.158801 -40.455039 
L 70.193601 -40.801267 
L 70.251551 -41.147495 
L 70.327061 -41.493723 
L 70.413593 -41.839951 
L 70.504256 -42.186179 
L 70.592406 -42.532408 
L 70.672171 -42.878636 
L 70.738853 -43.224864 
L 70.789193 -43.571092 
L 70.821496 -43.91732 
L 70.83564 -44.263548 
L 70.833 -44.609776 
L 70.816326 -44.956004 
L 70.789575 -45.302233 
L 70.75771 -45.648461 
L 70.726442 -45.994689 
L 70.70191 -46.340917 
L 70.690292 -46.687145 
L 70.697349 -47.033373 
L 70.727947 -47.379601 
L 70.7856 -47.72583 
L 70.872105 -48.072058 
L 70.987315 -48.418286 
L 71.129102 -48.764514 
L 71.293517 -49.110742 
L 71.475148 -49.45697 
L 71.667607 -49.803198 
L 71.864103 -50.149427 
L 72.058019 -50.495655 
L 72.243423 -50.841883 
L 72.415459 -51.188111 
L 72.570586 -51.534339 
L 72.70666 -51.880567 
L 73.749902 -51.880567 
L 73.749902 -51.880567 
L 73.885977 -51.534339 
L 74.041104 -51.188111 
L 74.213139 -50.841883 
L 74.398543 -50.495655 
L 74.59246 -50.149427 
L 74.788956 -49.803198 
L 74.981414 -49.45697 
L 75.163045 -49.110742 
L 75.327461 -48.764514 
L 75.469247 -48.418286 
L 75.584457 -48.072058 
L 75.670962 -47.72583 
L 75.728616 -47.379601 
L 75.759213 -47.033373 
L 75.76627 -46.687145 
L 75.754652 -46.340917 
L 75.730121 -45.994689 
L 75.698852 -45.648461 
L 75.666987 -45.302233 
L 75.640237 -44.956004 
L 75.623563 -44.609776 
L 75.620923 -44.263548 
L 75.635066 -43.91732 
L 75.66737 -43.571092 
L 75.71771 -43.224864 
L 75.784391 -42.878636 
L 75.864156 -42.532408 
L 75.952307 -42.186179 
L 76.04297 -41.839951 
L 76.129501 -41.493723 
L 76.205011 -41.147495 
L 76.262962 -40.801267 
L 76.297762 -40.455039 
L 76.305298 -40.108811 
L 76.283332 -39.762582 
L 76.231726 -39.416354 
L 76.152496 -39.070126 
L 76.049702 -38.723898 
L 75.929214 -38.37767 
L 75.798411 -38.031442 
L 75.665833 -37.685214 
L 75.540825 -37.338985 
L 75.433184 -36.992757 
L 75.3528 -36.646529 
L 75.309287 -36.300301 
L 75.311604 -35.954073 
L 75.36765 -35.607845 
L 75.483871 -35.261617 
L 75.664875 -34.915388 
L 75.913102 -34.56916 
L 76.228565 -34.222932 
L 76.608696 -33.876704 
L 77.048315 -33.530476 
L 77.539728 -33.184248 
L 78.072988 -32.83802 
L 78.636285 -32.491791 
L 79.216478 -32.145563 
L 79.799747 -31.799335 
L 80.372298 -31.453107 
L 80.921101 -31.106879 
L 81.434564 -30.760651 
L 81.903073 -30.414423 
L 82.31936 -30.068194 
L 82.678614 -29.721966 
L 82.978371 -29.375738 
L 83.218177 -29.02951 
L 83.399102 -28.683282 
L 83.523194 -28.337054 
L 83.592952 -27.990826 
L 83.610918 -27.644598 
L 83.579427 -27.298369 
L 83.500548 -26.952141 
L 83.376189 -26.605913 
L 83.208318 -26.259685 
L 82.999226 -25.913457 
L 82.751757 -25.567229 
L 82.469432 -25.221001 
L 82.156427 -24.874772 
L 81.817397 -24.528544 
L 81.457161 -24.182316 
L 81.080323 -23.836088 
L 80.690886 -23.48986 
L 80.291964 -23.143632 
L 79.885646 -22.797404 
L 79.473057 -22.451175 
L 79.054628 -22.104947 
L 78.630517 -21.758719 
L 78.201111 -21.412491 
L 77.767519 -21.066263 
L 77.33194 -20.720035 
L 76.897846 -20.373807 
L 76.469931 -20.027578 
L 76.053829 -19.68135 
L 75.655657 -19.335122 
L 75.281451 -18.988894 
L 74.9366 -18.642666 
L 74.62535 -18.296438 
L 74.350469 -17.95021 
L 74.113086 -17.603981 
z
" style="stroke: #525252; stroke-width: 0.15"/>
    </defs>
    <g clip-path="url(#p6bbf08f7d2)">
     <use xlink:href="#m5f4b9153ad" x="0" y="84.96" style="fill: #977c7f; stroke: #525252; stroke-width: 0.15"/>
    </g>
   </g>
   <g id="PolyCollection_4">
    <defs>
     <path id="m5c90107ca6" d="M 100.378621 -15.75912 
L 97.991125 -15.75912 
L 97.670172 -16.0204 
L 97.295174 -16.28168 
L 96.866035 -16.54296 
L 96.384975 -16.80424 
L 95.856647 -17.065521 
L 95.288049 -17.326801 
L 94.68823 -17.588081 
L 94.067815 -17.849361 
L 93.438409 -18.110641 
L 92.811963 -18.371921 
L 92.200179 -18.633202 
L 91.614036 -18.894482 
L 91.063497 -19.155762 
L 90.557393 -19.417042 
L 90.103469 -19.678322 
L 89.708525 -19.939603 
L 89.378573 -20.200883 
L 89.118919 -20.462163 
L 88.934121 -20.723443 
L 88.827786 -20.984723 
L 88.802236 -21.246003 
L 88.858106 -21.507284 
L 88.993947 -21.768564 
L 89.205948 -22.029844 
L 89.487824 -22.291124 
L 89.830927 -22.552404 
L 90.22457 -22.813685 
L 90.65651 -23.074965 
L 91.113524 -23.336245 
L 91.581996 -23.597525 
L 92.048447 -23.858805 
L 92.499963 -24.120085 
L 92.924515 -24.381366 
L 93.311189 -24.642646 
L 93.650361 -24.903926 
L 93.933853 -25.165206 
L 94.15511 -25.426486 
L 94.309367 -25.687767 
L 94.393825 -25.949047 
L 94.407768 -26.210327 
L 94.352585 -26.471607 
L 94.231672 -26.732887 
L 94.050188 -26.994167 
L 93.814682 -27.255448 
L 93.532655 -27.516728 
L 93.212089 -27.778008 
L 92.861053 -28.039288 
L 92.487434 -28.300568 
L 92.098847 -28.561849 
L 91.702728 -28.823129 
L 91.306598 -29.084409 
L 90.918417 -29.345689 
L 90.546955 -29.606969 
L 90.202057 -29.86825 
L 89.894726 -30.12953 
L 89.636934 -30.39081 
L 89.441149 -30.65209 
L 89.319569 -30.91337 
L 89.283143 -31.17465 
L 89.340488 -31.435931 
L 89.496811 -31.697211 
L 89.753007 -31.958491 
L 90.105035 -32.219771 
L 90.543694 -32.481051 
L 91.054833 -32.742332 
L 91.620015 -33.003612 
L 92.217574 -33.264892 
L 92.823985 -33.526172 
L 93.415412 -33.787452 
L 93.969298 -34.048732 
L 94.465867 -34.310013 
L 94.88939 -34.571293 
L 95.229142 -34.832573 
L 95.479959 -35.093853 
L 95.64239 -35.355133 
L 95.722421 -35.616414 
L 95.730832 -35.877694 
L 95.68224 -36.138974 
L 95.593914 -36.400254 
L 95.484459 -36.661534 
L 95.372483 -36.922814 
L 95.275334 -37.184095 
L 95.20801 -37.445375 
L 95.18231 -37.706655 
L 95.206277 -37.967935 
L 95.283964 -38.229215 
L 95.415502 -38.490496 
L 95.597459 -38.751776 
L 95.82342 -39.013056 
L 96.084731 -39.274336 
L 96.371325 -39.535616 
L 96.672561 -39.796896 
L 96.977997 -40.058177 
L 97.278048 -40.319457 
L 97.564496 -40.580737 
L 97.830819 -40.842017 
L 98.072345 -41.103297 
L 98.286249 -41.364578 
L 98.471407 -41.625858 
L 99.898338 -41.625858 
L 99.898338 -41.625858 
L 100.083497 -41.364578 
L 100.2974 -41.103297 
L 100.538927 -40.842017 
L 100.805249 -40.580737 
L 101.091698 -40.319457 
L 101.391749 -40.058177 
L 101.697184 -39.796896 
L 101.99842 -39.535616 
L 102.285015 -39.274336 
L 102.546325 -39.013056 
L 102.772286 -38.751776 
L 102.954243 -38.490496 
L 103.085782 -38.229215 
L 103.163469 -37.967935 
L 103.187436 -37.706655 
L 103.161735 -37.445375 
L 103.094411 -37.184095 
L 102.997262 -36.922814 
L 102.885286 -36.661534 
L 102.775832 -36.400254 
L 102.687505 -36.138974 
L 102.638913 -35.877694 
L 102.647325 -35.616414 
L 102.727356 -35.355133 
L 102.889786 -35.093853 
L 103.140604 -34.832573 
L 103.480355 -34.571293 
L 103.903879 -34.310013 
L 104.400447 -34.048732 
L 104.954334 -33.787452 
L 105.54576 -33.526172 
L 106.152171 -33.264892 
L 106.749731 -33.003612 
L 107.314912 -32.742332 
L 107.826052 -32.481051 
L 108.264711 -32.219771 
L 108.616739 -31.958491 
L 108.872934 -31.697211 
L 109.029258 -31.435931 
L 109.086602 -31.17465 
L 109.050177 -30.91337 
L 108.928596 -30.65209 
L 108.732811 -30.39081 
L 108.47502 -30.12953 
L 108.167688 -29.86825 
L 107.82279 -29.606969 
L 107.451328 -29.345689 
L 107.063148 -29.084409 
L 106.667017 -28.823129 
L 106.270898 -28.561849 
L 105.882311 -28.300568 
L 105.508693 -28.039288 
L 105.157657 -27.778008 
L 104.837091 -27.516728 
L 104.555063 -27.255448 
L 104.319558 -26.994167 
L 104.138073 -26.732887 
L 104.01716 -26.471607 
L 103.961978 -26.210327 
L 103.97592 -25.949047 
L 104.060379 -25.687767 
L 104.214636 -25.426486 
L 104.435892 -25.165206 
L 104.719385 -24.903926 
L 105.058556 -24.642646 
L 105.44523 -24.381366 
L 105.869783 -24.120085 
L 106.321299 -23.858805 
L 106.78775 -23.597525 
L 107.256222 -23.336245 
L 107.713235 -23.074965 
L 108.145175 -22.813685 
L 108.538819 -22.552404 
L 108.881922 -22.291124 
L 109.163797 -22.029844 
L 109.375798 -21.768564 
L 109.51164 -21.507284 
L 109.567509 -21.246003 
L 109.54196 -20.984723 
L 109.435624 -20.723443 
L 109.250826 -20.462163 
L 108.991173 -20.200883 
L 108.66122 -19.939603 
L 108.266276 -19.678322 
L 107.812352 -19.417042 
L 107.306248 -19.155762 
L 106.755709 -18.894482 
L 106.169567 -18.633202 
L 105.557782 -18.371921 
L 104.931336 -18.110641 
L 104.301931 -17.849361 
L 103.681515 -17.588081 
L 103.081696 -17.326801 
L 102.513098 -17.065521 
L 101.984771 -16.80424 
L 101.503711 -16.54296 
L 101.074572 -16.28168 
L 100.699574 -16.0204 
L 100.378621 -15.75912 
z
" style="stroke: #525252; stroke-width: 0.15"/>
    </defs>
    <g clip-path="url(#p6bbf08f7d2)">
     <use xlink:href="#m5c90107ca6" x="0" y="84.96" style="fill: #a48c8f; stroke: #525252; stroke-width: 0.15"/>
    </g>
   </g>
   <g id="PolyCollection_5">
    <defs>
     <path id="ma5f078565f" d="M 126.036669 -14.920262 
L 124.24626 -14.920262 
L 123.994011 -15.31131 
L 123.699684 -15.702358 
L 123.36394 -16.093407 
L 122.988924 -16.484455 
L 122.577915 -16.875503 
L 122.134795 -17.266552 
L 121.663443 -17.6576 
L 121.167193 -18.048648 
L 120.648529 -18.439697 
L 120.109147 -18.830745 
L 119.550455 -19.221793 
L 118.974491 -19.612842 
L 118.385098 -20.00389 
L 117.789144 -20.394938 
L 117.197471 -20.785987 
L 116.625305 -21.177035 
L 116.091897 -21.568083 
L 115.619332 -21.959132 
L 115.230588 -22.35018 
L 114.947092 -22.741229 
L 114.786174 -23.132277 
L 114.758828 -23.523325 
L 114.868193 -23.914374 
L 115.109034 -24.305422 
L 115.468315 -24.69647 
L 115.926775 -25.087519 
L 116.461208 -25.478567 
L 117.047059 -25.869615 
L 117.66089 -26.260664 
L 118.282326 -26.651712 
L 118.895225 -27.04276 
L 119.487986 -27.433809 
L 120.053075 -27.824857 
L 120.585988 -28.215905 
L 121.083952 -28.606954 
L 121.544676 -28.998002 
L 121.96539 -29.38905 
L 122.342343 -29.780099 
L 122.670792 -30.171147 
L 122.945423 -30.562195 
L 123.16108 -30.953244 
L 123.313635 -31.344292 
L 123.400837 -31.73534 
L 123.422997 -32.126389 
L 123.38344 -32.517437 
L 123.288656 -32.908486 
L 123.148155 -33.299534 
L 122.974048 -33.690582 
L 122.780388 -34.081631 
L 122.582345 -34.472679 
L 122.395248 -34.863727 
L 122.233595 -35.254776 
L 122.110091 -35.645824 
L 122.034798 -36.036872 
L 122.014471 -36.427921 
L 122.052153 -36.818969 
L 122.147061 -37.210017 
L 122.294791 -37.601066 
L 122.487811 -37.992114 
L 122.716201 -38.383162 
L 122.968541 -38.774211 
L 123.232867 -39.165259 
L 123.497568 -39.556307 
L 123.752145 -39.947356 
L 123.987768 -40.338404 
L 124.197587 -40.729452 
L 124.376801 -41.120501 
L 124.522537 -41.511549 
L 124.633583 -41.902597 
L 124.710051 -42.293646 
L 124.753044 -42.684694 
L 124.764381 -43.075743 
L 124.746405 -43.466791 
L 124.701892 -43.857839 
L 124.634037 -44.248888 
L 124.546483 -44.639936 
L 124.443363 -45.030984 
L 124.329301 -45.422033 
L 124.209358 -45.813081 
L 124.088898 -46.204129 
L 123.973394 -46.595178 
L 123.868181 -46.986226 
L 123.778191 -47.377274 
L 123.707684 -47.768323 
L 123.660029 -48.159371 
L 123.637516 -48.550419 
L 123.641245 -48.941468 
L 123.671068 -49.332516 
L 123.725611 -49.723564 
L 123.802359 -50.114613 
L 123.89782 -50.505661 
L 124.007739 -50.896709 
L 124.127385 -51.287758 
L 124.251861 -51.678806 
L 124.376428 -52.069854 
L 124.496808 -52.460903 
L 124.609431 -52.851951 
L 124.711605 -53.243 
L 124.801593 -53.634048 
L 125.481335 -53.634048 
L 125.481335 -53.634048 
L 125.571324 -53.243 
L 125.673498 -52.851951 
L 125.786121 -52.460903 
L 125.9065 -52.069854 
L 126.031067 -51.678806 
L 126.155543 -51.287758 
L 126.275189 -50.896709 
L 126.385109 -50.505661 
L 126.480569 -50.114613 
L 126.557318 -49.723564 
L 126.611861 -49.332516 
L 126.641683 -48.941468 
L 126.645412 -48.550419 
L 126.6229 -48.159371 
L 126.575244 -47.768323 
L 126.504738 -47.377274 
L 126.414747 -46.986226 
L 126.309535 -46.595178 
L 126.194031 -46.204129 
L 126.07357 -45.813081 
L 125.953627 -45.422033 
L 125.839566 -45.030984 
L 125.736446 -44.639936 
L 125.648892 -44.248888 
L 125.581036 -43.857839 
L 125.536524 -43.466791 
L 125.518548 -43.075743 
L 125.529884 -42.684694 
L 125.572878 -42.293646 
L 125.649345 -41.902597 
L 125.760391 -41.511549 
L 125.906128 -41.120501 
L 126.085342 -40.729452 
L 126.29516 -40.338404 
L 126.530784 -39.947356 
L 126.785361 -39.556307 
L 127.050061 -39.165259 
L 127.314387 -38.774211 
L 127.566728 -38.383162 
L 127.795117 -37.992114 
L 127.988137 -37.601066 
L 128.135867 -37.210017 
L 128.230775 -36.818969 
L 128.268457 -36.427921 
L 128.248131 -36.036872 
L 128.172838 -35.645824 
L 128.049334 -35.254776 
L 127.887681 -34.863727 
L 127.700584 -34.472679 
L 127.50254 -34.081631 
L 127.308881 -33.690582 
L 127.134773 -33.299534 
L 126.994272 -32.908486 
L 126.899488 -32.517437 
L 126.859932 -32.126389 
L 126.882092 -31.73534 
L 126.969293 -31.344292 
L 127.121849 -30.953244 
L 127.337506 -30.562195 
L 127.612136 -30.171147 
L 127.940585 -29.780099 
L 128.317539 -29.38905 
L 128.738253 -28.998002 
L 129.198976 -28.606954 
L 129.69694 -28.215905 
L 130.229853 -27.824857 
L 130.794942 -27.433809 
L 131.387704 -27.04276 
L 132.000602 -26.651712 
L 132.622038 -26.260664 
L 133.235869 -25.869615 
L 133.821721 -25.478567 
L 134.356153 -25.087519 
L 134.814613 -24.69647 
L 135.173895 -24.305422 
L 135.414736 -23.914374 
L 135.524101 -23.523325 
L 135.496755 -23.132277 
L 135.335837 -22.741229 
L 135.052341 -22.35018 
L 134.663596 -21.959132 
L 134.191032 -21.568083 
L 133.657624 -21.177035 
L 133.085457 -20.785987 
L 132.493785 -20.394938 
L 131.89783 -20.00389 
L 131.308437 -19.612842 
L 130.732473 -19.221793 
L 130.173782 -18.830745 
L 129.6344 -18.439697 
L 129.115736 -18.048648 
L 128.619486 -17.6576 
L 128.148134 -17.266552 
L 127.705014 -16.875503 
L 127.294004 -16.484455 
L 126.918988 -16.093407 
L 126.583245 -15.702358 
L 126.288917 -15.31131 
L 126.036669 -14.920262 
z
" style="stroke: #525252; stroke-width: 0.15"/>
    </defs>
    <g clip-path="url(#p6bbf08f7d2)">
     <use xlink:href="#ma5f078565f" x="0" y="84.96" style="fill: #b29ca0; stroke: #525252; stroke-width: 0.15"/>
    </g>
   </g>
   <g id="line2d_10">
    <path d="M 21.315098 64.743217 
L 21.315098 30.84813 
" clip-path="url(#p6bbf08f7d2)" style="fill: none; stroke: #8c8c8c; stroke-width: 0.75; stroke-linecap: round"/>
   </g>
   <g id="line2d_11">
    <path d="M 21.315098 61.619488 
L 21.315098 43.288391 
" clip-path="url(#p6bbf08f7d2)" style="fill: none; stroke: #8c8c8c; stroke-width: 4; stroke-linecap: round"/>
   </g>
   <g id="line2d_12">
    <path d="M 21.315098 53.457166 
" clip-path="url(#p6bbf08f7d2)" style="fill: none; stroke: #525252; stroke-width: 1.2; stroke-linecap: round"/>
    <defs>
     <path id="mb6e2d5c371" d="M 0 0.833333 
C 0.221003 0.833333 0.432983 0.745528 0.589256 0.589256 
C 0.745528 0.432983 0.833333 0.221003 0.833333 0 
C 0.833333 -0.221003 0.745528 -0.432983 0.589256 -0.589256 
C 0.432983 -0.745528 0.221003 -0.833333 0 -0.833333 
C -0.221003 -0.833333 -0.432983 -0.745528 -0.589256 -0.589256 
C -0.745528 -0.432983 -0.833333 -0.221003 -0.833333 0 
C -0.833333 0.221003 -0.745528 0.432983 -0.589256 0.589256 
C -0.432983 0.745528 -0.221003 0.833333 0 0.833333 
z
" style="stroke: #ffffff; stroke-width: 0.8"/>
    </defs>
    <g clip-path="url(#p6bbf08f7d2)">
     <use xlink:href="#mb6e2d5c371" x="21.315098" y="53.457166" style="fill: #ffffff; stroke: #ffffff; stroke-width: 0.8"/>
    </g>
   </g>
   <g id="line2d_13">
    <path d="M 47.27169 66.305386 
L 47.27169 43.750163 
" clip-path="url(#p6bbf08f7d2)" style="fill: none; stroke: #8c8c8c; stroke-width: 0.75; stroke-linecap: round"/>
   </g>
   <g id="line2d_14">
    <path d="M 47.27169 61.153565 
L 47.27169 53.979986 
" clip-path="url(#p6bbf08f7d2)" style="fill: none; stroke: #8c8c8c; stroke-width: 4; stroke-linecap: round"/>
   </g>
   <g id="line2d_15">
    <path d="M 47.27169 59.897077 
" clip-path="url(#p6bbf08f7d2)" style="fill: none; stroke: #525252; stroke-width: 1.2; stroke-linecap: round"/>
    <g clip-path="url(#p6bbf08f7d2)">
     <use xlink:href="#mb6e2d5c371" x="47.27169" y="59.897077" style="fill: #ffffff; stroke: #ffffff; stroke-width: 0.8"/>
    </g>
   </g>
   <g id="line2d_16">
    <path d="M 73.228281 63.996226 
L 73.228281 37.856562 
" clip-path="url(#p6bbf08f7d2)" style="fill: none; stroke: #8c8c8c; stroke-width: 0.75; stroke-linecap: round"/>
   </g>
   <g id="line2d_17">
    <path d="M 73.228281 59.671093 
L 73.228281 50.847419 
" clip-path="url(#p6bbf08f7d2)" style="fill: none; stroke: #8c8c8c; stroke-width: 4; stroke-linecap: round"/>
   </g>
   <g id="line2d_18">
    <path d="M 73.228281 55.70504 
" clip-path="url(#p6bbf08f7d2)" style="fill: none; stroke: #525252; stroke-width: 1.2; stroke-linecap: round"/>
    <g clip-path="url(#p6bbf08f7d2)">
     <use xlink:href="#mb6e2d5c371" x="73.228281" y="55.70504" style="fill: #ffffff; stroke: #ffffff; stroke-width: 0.8"/>
    </g>
   </g>
   <g id="line2d_19">
    <path d="M 99.184873 66.530045 
L 99.184873 46.004978 
" clip-path="url(#p6bbf08f7d2)" style="fill: none; stroke: #8c8c8c; stroke-width: 0.75; stroke-linecap: round"/>
   </g>
   <g id="line2d_20">
    <path d="M 99.184873 63.224261 
L 99.184873 53.023119 
" clip-path="url(#p6bbf08f7d2)" style="fill: none; stroke: #8c8c8c; stroke-width: 4; stroke-linecap: round"/>
   </g>
   <g id="line2d_21">
    <path d="M 99.184873 57.055838 
" clip-path="url(#p6bbf08f7d2)" style="fill: none; stroke: #525252; stroke-width: 1.2; stroke-linecap: round"/>
    <g clip-path="url(#p6bbf08f7d2)">
     <use xlink:href="#mb6e2d5c371" x="99.184873" y="57.055838" style="fill: #ffffff; stroke: #ffffff; stroke-width: 0.8"/>
    </g>
   </g>
   <g id="line2d_22">
    <path d="M 125.141464 66.433348 
L 125.141464 46.985715 
" clip-path="url(#p6bbf08f7d2)" style="fill: none; stroke: #8c8c8c; stroke-width: 0.75; stroke-linecap: round"/>
   </g>
   <g id="line2d_23">
    <path d="M 125.141464 62.244317 
L 125.141464 54.763264 
" clip-path="url(#p6bbf08f7d2)" style="fill: none; stroke: #8c8c8c; stroke-width: 4; stroke-linecap: round"/>
   </g>
   <g id="line2d_24">
    <path d="M 125.141464 60.769598 
" clip-path="url(#p6bbf08f7d2)" style="fill: none; stroke: #525252; stroke-width: 1.2; stroke-linecap: round"/>
    <g clip-path="url(#p6bbf08f7d2)">
     <use xlink:href="#mb6e2d5c371" x="125.141464" y="60.769598" style="fill: #ffffff; stroke: #ffffff; stroke-width: 0.8"/>
    </g>
   </g>
   <g id="patch_3">
    <path d="M 8.336802 74.419526 
L 8.336802 4.076256 
" style="fill: none; stroke: #777777; stroke-width: 0.5; stroke-linejoin: miter; stroke-linecap: square"/>
   </g>
   <g id="patch_4">
    <path d="M 8.336802 76.919526 
L 138.11976 76.919526 
" style="fill: none; stroke: #777777; stroke-width: 0.5; stroke-linejoin: miter; stroke-linecap: square"/>
   </g>
  </g>
 </g>
 <defs>
  <clipPath id="p6bbf08f7d2">
   <rect x="8.336802" y="4.076256" width="129.782958" height="70.34327"/>
  </clipPath>
 </defs>
</svg>
