<?xml version="1.0" encoding="utf-8" standalone="no"?>
<!DOCTYPE svg PUBLIC "-//W3C//DTD SVG 1.1//EN"
  "http://www.w3.org/Graphics/SVG/1.1/DTD/svg11.dtd">
<svg xmlns:xlink="http://www.w3.org/1999/xlink" width="84.96pt" height="84.96pt" viewBox="0 0 84.96 84.96" xmlns="http://www.w3.org/2000/svg" version="1.1">
 <metadata>
  <rdf:RDF xmlns:dc="http://purl.org/dc/elements/1.1/" xmlns:cc="http://creativecommons.org/ns#" xmlns:rdf="http://www.w3.org/1999/02/22-rdf-syntax-ns#">
   <cc:Work>
    <dc:type rdf:resource="http://purl.org/dc/dcmitype/StillImage"/>
    <dc:date>2024-05-27T15:37:05.692077</dc:date>
    <dc:format>image/svg+xml</dc:format>
    <dc:creator>
     <cc:Agent>
      <dc:title>Matplotlib v3.8.3, https://matplotlib.org/</dc:title>
     </cc:Agent>
    </dc:creator>
   </cc:Work>
  </rdf:RDF>
 </metadata>
 <defs>
  <style type="text/css">*{stroke-linejoin: round; stroke-linecap: butt}</style>
 </defs>
 <g id="figure_1">
  <g id="patch_1">
   <path d="M 0 84.96 
L 84.96 84.96 
L 84.96 0 
L 0 0 
z
" style="fill: #ffffff"/>
  </g>
  <g id="axes_1">
   <g id="patch_2">
    <path d="M 8.336802 74.419526 
L 81.95976 74.419526 
L 81.95976 4.076256 
L 8.336802 4.076256 
z
" style="fill: #ffffff"/>
   </g>
   <g id="matplotlib.axis_1">
    <g id="xtick_1">
     <g id="text_1">
      <!-- NK/ILC1ie -->
      <g style="fill: #333333" transform="translate(12.63167 81.230229) scale(0.035 -0.035)">
       <defs>
        <path id="Helvetica-4e" d="M 488 4591 
L 1222 4591 
L 3541 872 
L 3541 4591 
L 4131 4591 
L 4131 0 
L 3434 0 
L 1081 3716 
L 1081 0 
L 488 0 
L 488 4591 
z
M 2269 4591 
L 2269 4591 
z
" transform="scale(0.015625)"/>
        <path id="Helvetica-4b" d="M 488 4591 
L 1094 4591 
L 1094 2353 
L 3331 4591 
L 4191 4591 
L 2281 2741 
L 4244 0 
L 3434 0 
L 1828 2303 
L 1094 1600 
L 1094 0 
L 488 0 
L 488 4591 
z
" transform="scale(0.015625)"/>
        <path id="Helvetica-2f" d="M 1456 4591 
L 1931 4591 
L 475 0 
L 0 0 
L 1456 4591 
z
" transform="scale(0.015625)"/>
        <path id="Helvetica-49" d="M 628 4591 
L 1256 4591 
L 1256 0 
L 628 0 
L 628 4591 
z
" transform="scale(0.015625)"/>
        <path id="Helvetica-4c" d="M 488 4591 
L 1109 4591 
L 1109 547 
L 3434 547 
L 3434 0 
L 488 0 
L 488 4591 
z
" transform="scale(0.015625)"/>
        <path id="Helvetica-43" d="M 2422 4716 
Q 3294 4716 3775 4256 
Q 4256 3797 4309 3213 
L 3703 3213 
Q 3600 3656 3292 3915 
Q 2984 4175 2428 4175 
Q 1750 4175 1333 3698 
Q 916 3222 916 2238 
Q 916 1431 1292 929 
Q 1669 428 2416 428 
Q 3103 428 3463 956 
Q 3653 1234 3747 1688 
L 4353 1688 
Q 4272 963 3816 472 
Q 3269 -119 2341 -119 
Q 1541 -119 997 366 
Q 281 1006 281 2344 
Q 281 3359 819 4009 
Q 1400 4716 2422 4716 
z
M 2297 4716 
L 2297 4716 
z
" transform="scale(0.015625)"/>
        <path id="Helvetica-31" d="M 613 3169 
L 613 3600 
Q 1222 3659 1462 3798 
Q 1703 3938 1822 4456 
L 2266 4456 
L 2266 0 
L 1666 0 
L 1666 3169 
L 613 3169 
z
" transform="scale(0.015625)"/>
        <path id="Helvetica-69" d="M 413 3331 
L 984 3331 
L 984 0 
L 413 0 
L 413 3331 
z
M 413 4591 
L 984 4591 
L 984 3953 
L 413 3953 
L 413 4591 
z
" transform="scale(0.015625)"/>
        <path id="Helvetica-65" d="M 1806 3422 
Q 2163 3422 2497 3255 
Q 2831 3088 3006 2822 
Q 3175 2569 3231 2231 
Q 3281 2000 3281 1494 
L 828 1494 
Q 844 984 1069 676 
Q 1294 369 1766 369 
Q 2206 369 2469 659 
Q 2619 828 2681 1050 
L 3234 1050 
Q 3213 866 3089 639 
Q 2966 413 2813 269 
Q 2556 19 2178 -69 
Q 1975 -119 1719 -119 
Q 1094 -119 659 336 
Q 225 791 225 1609 
Q 225 2416 662 2919 
Q 1100 3422 1806 3422 
z
M 2703 1941 
Q 2669 2306 2544 2525 
Q 2313 2931 1772 2931 
Q 1384 2931 1121 2651 
Q 859 2372 844 1941 
L 2703 1941 
z
M 1753 3428 
L 1753 3428 
z
" transform="scale(0.015625)"/>
       </defs>
       <use xlink:href="#Helvetica-4e"/>
       <use xlink:href="#Helvetica-4b" x="72.216797"/>
       <use xlink:href="#Helvetica-2f" x="138.916016"/>
       <use xlink:href="#Helvetica-49" x="166.699219"/>
       <use xlink:href="#Helvetica-4c" x="194.482422"/>
       <use xlink:href="#Helvetica-43" x="250.097656"/>
       <use xlink:href="#Helvetica-31" x="322.314453"/>
       <use xlink:href="#Helvetica-69" x="377.929688"/>
       <use xlink:href="#Helvetica-65" x="400.146484"/>
      </g>
     </g>
    </g>
    <g id="xtick_2">
     <g id="text_2">
      <!-- ILC1 -->
      <g style="fill: #333333" transform="translate(41.451953 81.230229) scale(0.035 -0.035)">
       <use xlink:href="#Helvetica-49"/>
       <use xlink:href="#Helvetica-4c" x="27.783203"/>
       <use xlink:href="#Helvetica-43" x="83.398438"/>
       <use xlink:href="#Helvetica-31" x="155.615234"/>
      </g>
     </g>
    </g>
    <g id="xtick_3">
     <g id="text_3">
      <!-- TH1 -->
      <g style="fill: #333333" transform="translate(66.383408 81.230229) scale(0.035 -0.035)">
       <defs>
        <path id="Helvetica-54" d="M 3828 4591 
L 3828 4044 
L 2281 4044 
L 2281 0 
L 1650 0 
L 1650 4044 
L 103 4044 
L 103 4591 
L 3828 4591 
z
" transform="scale(0.015625)"/>
        <path id="Helvetica-48" d="M 503 4591 
L 1131 4591 
L 1131 2694 
L 3519 2694 
L 3519 4591 
L 4147 4591 
L 4147 0 
L 3519 0 
L 3519 2147 
L 1131 2147 
L 1131 0 
L 503 0 
L 503 4591 
z
" transform="scale(0.015625)"/>
       </defs>
       <use xlink:href="#Helvetica-54"/>
       <use xlink:href="#Helvetica-48" x="61.083984"/>
       <use xlink:href="#Helvetica-31" x="133.300781"/>
      </g>
     </g>
    </g>
   </g>
   <g id="matplotlib.axis_2">
    <g id="ytick_1">
     <g id="line2d_1">
      <defs>
       <path id="m3941394425" d="M 0 0 
L -1 0 
" style="stroke: #777777; stroke-width: 0.5"/>
      </defs>
      <g>
       <use xlink:href="#m3941394425" x="8.336802" y="66.995102" style="fill: #777777; stroke: #777777; stroke-width: 0.5"/>
      </g>
     </g>
     <g id="text_4">
      <!-- 0 -->
      <g style="fill: #333333" transform="translate(4.668521 68.071117) scale(0.03 -0.03)">
       <defs>
        <path id="Helvetica-30" d="M 1731 4475 
Q 2600 4475 2988 3759 
Q 3288 3206 3288 2244 
Q 3288 1331 3016 734 
Q 2622 -122 1728 -122 
Q 922 -122 528 578 
Q 200 1163 200 2147 
Q 200 2909 397 3456 
Q 766 4475 1731 4475 
z
M 1725 391 
Q 2163 391 2422 778 
Q 2681 1166 2681 2222 
Q 2681 2984 2493 3476 
Q 2306 3969 1766 3969 
Q 1269 3969 1039 3501 
Q 809 3034 809 2125 
Q 809 1441 956 1025 
Q 1181 391 1725 391 
z
" transform="scale(0.015625)"/>
       </defs>
       <use xlink:href="#Helvetica-30"/>
      </g>
     </g>
    </g>
    <g id="ytick_2">
     <g id="line2d_2">
      <g>
       <use xlink:href="#m3941394425" x="8.336802" y="54.411333" style="fill: #777777; stroke: #777777; stroke-width: 0.5"/>
      </g>
     </g>
     <g id="text_5">
      <!-- 10 -->
      <g style="fill: #333333" transform="translate(3.00024 55.487348) scale(0.03 -0.03)">
       <use xlink:href="#Helvetica-31"/>
       <use xlink:href="#Helvetica-30" x="55.615234"/>
      </g>
     </g>
    </g>
    <g id="ytick_3">
     <g id="line2d_3">
      <g>
       <use xlink:href="#m3941394425" x="8.336802" y="41.827563" style="fill: #777777; stroke: #777777; stroke-width: 0.5"/>
      </g>
     </g>
     <g id="text_6">
      <!-- 20 -->
      <g style="fill: #333333" transform="translate(3.00024 42.903579) scale(0.03 -0.03)">
       <defs>
        <path id="Helvetica-32" d="M 200 0 
Q 231 578 439 1006 
Q 647 1434 1250 1784 
L 1850 2131 
Q 2253 2366 2416 2531 
Q 2672 2791 2672 3125 
Q 2672 3516 2437 3745 
Q 2203 3975 1813 3975 
Q 1234 3975 1013 3538 
Q 894 3303 881 2888 
L 309 2888 
Q 319 3472 525 3841 
Q 891 4491 1816 4491 
Q 2584 4491 2939 4075 
Q 3294 3659 3294 3150 
Q 3294 2613 2916 2231 
Q 2697 2009 2131 1694 
L 1703 1456 
Q 1397 1288 1222 1134 
Q 909 863 828 531 
L 3272 531 
L 3272 0 
L 200 0 
z
" transform="scale(0.015625)"/>
       </defs>
       <use xlink:href="#Helvetica-32"/>
       <use xlink:href="#Helvetica-30" x="55.615234"/>
      </g>
     </g>
    </g>
    <g id="ytick_4">
     <g id="line2d_4">
      <g>
       <use xlink:href="#m3941394425" x="8.336802" y="29.243794" style="fill: #777777; stroke: #777777; stroke-width: 0.5"/>
      </g>
     </g>
     <g id="text_7">
      <!-- 30 -->
      <g style="fill: #333333" transform="translate(3.00024 30.31981) scale(0.03 -0.03)">
       <defs>
        <path id="Helvetica-33" d="M 1663 -122 
Q 869 -122 511 314 
Q 153 750 153 1375 
L 741 1375 
Q 778 941 903 744 
Q 1122 391 1694 391 
Q 2138 391 2406 628 
Q 2675 866 2675 1241 
Q 2675 1703 2392 1887 
Q 2109 2072 1606 2072 
Q 1550 2072 1492 2070 
Q 1434 2069 1375 2066 
L 1375 2563 
Q 1463 2553 1522 2550 
Q 1581 2547 1650 2547 
Q 1966 2547 2169 2647 
Q 2525 2822 2525 3272 
Q 2525 3606 2287 3787 
Q 2050 3969 1734 3969 
Q 1172 3969 956 3594 
Q 838 3388 822 3006 
L 266 3006 
Q 266 3506 466 3856 
Q 809 4481 1675 4481 
Q 2359 4481 2734 4176 
Q 3109 3872 3109 3294 
Q 3109 2881 2888 2625 
Q 2750 2466 2531 2375 
Q 2884 2278 3082 2001 
Q 3281 1725 3281 1325 
Q 3281 684 2859 281 
Q 2438 -122 1663 -122 
z
" transform="scale(0.015625)"/>
       </defs>
       <use xlink:href="#Helvetica-33"/>
       <use xlink:href="#Helvetica-30" x="55.615234"/>
      </g>
     </g>
    </g>
    <g id="ytick_5">
     <g id="line2d_5">
      <g>
       <use xlink:href="#m3941394425" x="8.336802" y="16.660025" style="fill: #777777; stroke: #777777; stroke-width: 0.5"/>
      </g>
     </g>
     <g id="text_8">
      <!-- 40 -->
      <g style="fill: #333333" transform="translate(3.00024 17.73604) scale(0.03 -0.03)">
       <defs>
        <path id="Helvetica-34" d="M 2116 1584 
L 2116 3613 
L 681 1584 
L 2116 1584 
z
M 2125 0 
L 2125 1094 
L 163 1094 
L 163 1644 
L 2213 4488 
L 2688 4488 
L 2688 1584 
L 3347 1584 
L 3347 1094 
L 2688 1094 
L 2688 0 
L 2125 0 
z
" transform="scale(0.015625)"/>
       </defs>
       <use xlink:href="#Helvetica-34"/>
       <use xlink:href="#Helvetica-30" x="55.615234"/>
      </g>
     </g>
    </g>
    <g id="ytick_6">
     <g id="line2d_6">
      <g>
       <use xlink:href="#m3941394425" x="8.336802" y="4.076256" style="fill: #777777; stroke: #777777; stroke-width: 0.5"/>
      </g>
     </g>
     <g id="text_9">
      <!-- 50 -->
      <g style="fill: #333333" transform="translate(3.00024 5.152271) scale(0.03 -0.03)">
       <defs>
        <path id="Helvetica-35" d="M 791 1141 
Q 847 659 1238 475 
Q 1438 381 1700 381 
Q 2200 381 2440 700 
Q 2681 1019 2681 1406 
Q 2681 1875 2395 2131 
Q 2109 2388 1709 2388 
Q 1419 2388 1211 2275 
Q 1003 2163 856 1963 
L 369 1991 
L 709 4400 
L 3034 4400 
L 3034 3856 
L 1131 3856 
L 941 2613 
Q 1097 2731 1238 2791 
Q 1488 2894 1816 2894 
Q 2431 2894 2859 2497 
Q 3288 2100 3288 1491 
Q 3288 856 2895 371 
Q 2503 -113 1644 -113 
Q 1097 -113 676 195 
Q 256 503 206 1141 
L 791 1141 
z
" transform="scale(0.015625)"/>
       </defs>
       <use xlink:href="#Helvetica-35"/>
       <use xlink:href="#Helvetica-30" x="55.615234"/>
      </g>
     </g>
    </g>
   </g>
   <g id="PolyCollection_1">
    <defs>
     <path id="m502770afc9" d="M 22.609761 -17.959151 
L 18.60483 -17.959151 
L 18.254307 -17.959567 
L 17.870012 -17.959982 
L 17.454348 -17.960398 
L 17.010886 -17.960814 
L 16.544326 -17.96123 
L 16.060399 -17.961645 
L 15.565695 -17.962061 
L 15.067425 -17.962477 
L 14.573145 -17.962893 
L 14.090432 -17.963309 
L 13.626555 -17.963724 
L 13.188153 -17.96414 
L 12.780946 -17.964556 
L 12.409506 -17.964972 
L 12.077096 -17.965387 
L 11.785601 -17.965803 
L 11.535553 -17.966219 
L 11.326246 -17.966635 
L 11.155929 -17.96705 
L 11.022074 -17.967466 
L 10.92168 -17.967882 
L 10.8516 -17.968298 
L 10.808851 -17.968714 
L 10.790901 -17.969129 
L 10.795884 -17.969545 
L 10.822749 -17.969961 
L 10.871312 -17.970377 
L 10.942226 -17.970792 
L 11.036848 -17.971208 
L 11.157039 -17.971624 
L 11.304901 -17.97204 
L 11.482465 -17.972455 
L 11.691375 -17.972871 
L 11.932575 -17.973287 
L 12.206029 -17.973703 
L 12.510506 -17.974118 
L 12.843424 -17.974534 
L 13.200796 -17.97495 
L 13.577247 -17.975366 
L 13.966139 -17.975782 
L 14.359764 -17.976197 
L 14.749622 -17.976613 
L 15.126741 -17.977029 
L 15.482047 -17.977445 
L 15.806745 -17.97786 
L 16.0927 -17.978276 
L 16.332795 -17.978692 
L 16.521262 -17.979108 
L 16.653942 -17.979523 
L 16.728501 -17.979939 
L 16.744555 -17.980355 
L 16.703731 -17.980771 
L 16.609625 -17.981187 
L 16.467697 -17.981602 
L 16.285065 -17.982018 
L 16.070235 -17.982434 
L 15.832763 -17.98285 
L 15.582858 -17.983265 
L 15.330955 -17.983681 
L 15.087267 -17.984097 
L 14.861346 -17.984513 
L 14.661669 -17.984928 
L 14.495283 -17.985344 
L 14.367517 -17.98576 
L 14.281794 -17.986176 
L 14.239545 -17.986591 
L 14.24024 -17.987007 
L 14.281529 -17.987423 
L 14.359482 -17.987839 
L 14.468928 -17.988255 
L 14.603844 -17.98867 
L 14.75779 -17.989086 
L 14.924345 -17.989502 
L 15.09752 -17.989918 
L 15.272112 -17.990333 
L 15.443984 -17.990749 
L 15.610247 -17.991165 
L 15.769336 -17.991581 
L 15.920983 -17.991996 
L 16.066088 -17.992412 
L 16.20651 -17.992828 
L 16.344794 -17.993244 
L 16.483868 -17.99366 
L 16.626726 -17.994075 
L 16.776127 -17.994491 
L 16.934342 -17.994907 
L 17.102952 -17.995323 
L 17.282717 -17.995738 
L 17.473524 -17.996154 
L 17.674405 -17.99657 
L 17.883619 -17.996986 
L 18.098789 -17.997401 
L 18.317077 -17.997817 
L 18.535378 -17.998233 
L 18.750516 -17.998649 
L 18.959427 -17.999065 
L 19.159321 -17.99948 
L 19.347809 -17.999896 
L 19.522986 -18.000312 
L 21.691605 -18.000312 
L 21.691605 -18.000312 
L 21.866782 -17.999896 
L 22.055269 -17.99948 
L 22.255164 -17.999065 
L 22.464075 -17.998649 
L 22.679213 -17.998233 
L 22.897514 -17.997817 
L 23.115802 -17.997401 
L 23.330972 -17.996986 
L 23.540186 -17.99657 
L 23.741067 -17.996154 
L 23.931874 -17.995738 
L 24.111639 -17.995323 
L 24.280249 -17.994907 
L 24.438464 -17.994491 
L 24.587865 -17.994075 
L 24.730722 -17.99366 
L 24.869797 -17.993244 
L 25.008081 -17.992828 
L 25.148503 -17.992412 
L 25.293608 -17.991996 
L 25.445255 -17.991581 
L 25.604344 -17.991165 
L 25.770607 -17.990749 
L 25.942479 -17.990333 
L 26.117071 -17.989918 
L 26.290246 -17.989502 
L 26.456801 -17.989086 
L 26.610747 -17.98867 
L 26.745663 -17.988255 
L 26.855108 -17.987839 
L 26.933062 -17.987423 
L 26.97435 -17.987007 
L 26.975046 -17.986591 
L 26.932797 -17.986176 
L 26.847074 -17.98576 
L 26.719308 -17.985344 
L 26.552922 -17.984928 
L 26.353245 -17.984513 
L 26.127324 -17.984097 
L 25.883636 -17.983681 
L 25.631733 -17.983265 
L 25.381828 -17.98285 
L 25.144356 -17.982434 
L 24.929526 -17.982018 
L 24.746894 -17.981602 
L 24.604965 -17.981187 
L 24.51086 -17.980771 
L 24.470035 -17.980355 
L 24.48609 -17.979939 
L 24.560649 -17.979523 
L 24.693329 -17.979108 
L 24.881795 -17.978692 
L 25.121891 -17.978276 
L 25.407846 -17.97786 
L 25.732544 -17.977445 
L 26.08785 -17.977029 
L 26.464969 -17.976613 
L 26.854826 -17.976197 
L 27.248452 -17.975782 
L 27.637343 -17.975366 
L 28.013795 -17.97495 
L 28.371166 -17.974534 
L 28.704085 -17.974118 
L 29.008562 -17.973703 
L 29.282016 -17.973287 
L 29.523216 -17.972871 
L 29.732126 -17.972455 
L 29.90969 -17.97204 
L 30.057552 -17.971624 
L 30.177743 -17.971208 
L 30.272365 -17.970792 
L 30.343278 -17.970377 
L 30.391842 -17.969961 
L 30.418707 -17.969545 
L 30.42369 -17.969129 
L 30.405739 -17.968714 
L 30.362991 -17.968298 
L 30.29291 -17.967882 
L 30.192517 -17.967466 
L 30.058662 -17.96705 
L 29.888345 -17.966635 
L 29.679037 -17.966219 
L 29.42899 -17.965803 
L 29.137495 -17.965387 
L 28.805085 -17.964972 
L 28.433645 -17.964556 
L 28.026438 -17.96414 
L 27.588036 -17.963724 
L 27.124159 -17.963309 
L 26.641446 -17.962893 
L 26.147166 -17.962477 
L 25.648896 -17.962061 
L 25.154191 -17.961645 
L 24.670265 -17.96123 
L 24.203705 -17.960814 
L 23.760242 -17.960398 
L 23.344579 -17.959982 
L 22.960284 -17.959567 
L 22.609761 -17.959151 
z
" style="stroke: #6f6f6f; stroke-width: 0.15"/>
    </defs>
    <g clip-path="url(#p5b71be10cb)">
     <use xlink:href="#m502770afc9" x="0" y="84.96" style="fill: #98daa7; stroke: #6f6f6f; stroke-width: 0.15"/>
    </g>
   </g>
   <g id="PolyCollection_2">
    <defs>
     <path id="m8fc7851a56" d="M 47.241322 -17.433034 
L 43.05524 -17.433034 
L 42.682422 -17.496419 
L 42.271844 -17.559805 
L 41.825751 -17.62319 
L 41.34774 -17.686575 
L 40.842788 -17.749961 
L 40.317203 -17.813346 
L 39.778496 -17.876731 
L 39.23518 -17.940117 
L 38.696498 -18.003502 
L 38.172078 -18.066887 
L 37.671551 -18.130273 
L 37.204134 -18.193658 
L 36.778214 -18.257043 
L 36.400944 -18.320428 
L 36.077895 -18.383814 
L 35.812767 -18.447199 
L 35.607193 -18.510584 
L 35.460642 -18.57397 
L 35.370439 -18.637355 
L 35.331887 -18.70074 
L 35.338507 -18.764126 
L 35.382367 -18.827511 
L 35.454496 -18.890896 
L 35.545345 -18.954281 
L 35.645285 -19.017667 
L 35.745106 -19.081052 
L 35.836487 -19.144437 
L 35.912421 -19.207823 
L 35.967555 -19.271208 
L 35.998443 -19.334593 
L 36.003689 -19.397979 
L 35.983979 -19.461364 
L 35.941991 -19.524749 
L 35.882212 -19.588135 
L 35.81065 -19.65152 
L 35.734485 -19.714905 
L 35.661656 -19.77829 
L 35.600434 -19.841676 
L 35.558991 -19.905061 
L 35.544986 -19.968446 
L 35.565201 -20.031832 
L 35.625236 -20.095217 
L 35.729275 -20.158602 
L 35.879921 -20.221988 
L 36.078121 -20.285373 
L 36.323153 -20.348758 
L 36.612686 -20.412143 
L 36.942891 -20.475529 
L 37.308605 -20.538914 
L 37.703519 -20.602299 
L 38.1204 -20.665685 
L 38.551318 -20.72907 
L 38.987885 -20.792455 
L 39.421492 -20.855841 
L 39.843541 -20.919226 
L 40.245667 -20.982611 
L 40.619951 -21.045997 
L 40.959114 -21.109382 
L 41.256702 -21.172767 
L 41.507242 -21.236152 
L 41.706391 -21.299538 
L 41.851048 -21.362923 
L 41.939446 -21.426308 
L 41.971218 -21.489694 
L 41.947423 -21.553079 
L 41.870544 -21.616464 
L 41.744449 -21.67985 
L 41.574307 -21.743235 
L 41.366474 -21.80662 
L 41.128336 -21.870005 
L 40.868117 -21.933391 
L 40.594659 -21.996776 
L 40.317169 -22.060161 
L 40.044957 -22.123547 
L 39.787156 -22.186932 
L 39.552446 -22.250317 
L 39.348787 -22.313703 
L 39.183175 -22.377088 
L 39.061427 -22.440473 
L 38.988012 -22.503859 
L 38.96592 -22.567244 
L 38.996601 -22.630629 
L 39.079946 -22.694014 
L 39.214338 -22.7574 
L 39.396754 -22.820785 
L 39.622915 -22.88417 
L 39.887489 -22.947556 
L 40.184315 -23.010941 
L 40.506662 -23.074326 
L 40.847488 -23.137712 
L 41.199704 -23.201097 
L 41.556416 -23.264482 
L 41.911151 -23.327867 
L 42.258039 -23.391253 
L 42.591964 -23.454638 
L 42.908663 -23.518023 
L 43.204782 -23.581409 
L 43.477891 -23.644794 
L 43.726451 -23.708179 
L 46.570111 -23.708179 
L 46.570111 -23.708179 
L 46.818672 -23.644794 
L 47.09178 -23.581409 
L 47.387899 -23.518023 
L 47.704598 -23.454638 
L 48.038523 -23.391253 
L 48.385412 -23.327867 
L 48.740146 -23.264482 
L 49.096859 -23.201097 
L 49.449074 -23.137712 
L 49.789901 -23.074326 
L 50.112248 -23.010941 
L 50.409074 -22.947556 
L 50.673647 -22.88417 
L 50.899809 -22.820785 
L 51.082224 -22.7574 
L 51.216617 -22.694014 
L 51.299962 -22.630629 
L 51.330642 -22.567244 
L 51.308551 -22.503859 
L 51.235135 -22.440473 
L 51.113388 -22.377088 
L 50.947776 -22.313703 
L 50.744117 -22.250317 
L 50.509407 -22.186932 
L 50.251606 -22.123547 
L 49.979394 -22.060161 
L 49.701904 -21.996776 
L 49.428445 -21.933391 
L 49.168227 -21.870005 
L 48.930089 -21.80662 
L 48.722256 -21.743235 
L 48.552114 -21.67985 
L 48.426018 -21.616464 
L 48.34914 -21.553079 
L 48.325345 -21.489694 
L 48.357116 -21.426308 
L 48.445514 -21.362923 
L 48.590171 -21.299538 
L 48.78932 -21.236152 
L 49.039861 -21.172767 
L 49.337448 -21.109382 
L 49.676612 -21.045997 
L 50.050895 -20.982611 
L 50.453022 -20.919226 
L 50.875071 -20.855841 
L 51.308678 -20.792455 
L 51.745245 -20.72907 
L 52.176163 -20.665685 
L 52.593043 -20.602299 
L 52.987958 -20.538914 
L 53.353671 -20.475529 
L 53.683877 -20.412143 
L 53.973409 -20.348758 
L 54.218441 -20.285373 
L 54.416641 -20.221988 
L 54.567288 -20.158602 
L 54.671326 -20.095217 
L 54.731362 -20.031832 
L 54.751577 -19.968446 
L 54.737571 -19.905061 
L 54.696128 -19.841676 
L 54.634907 -19.77829 
L 54.562078 -19.714905 
L 54.485912 -19.65152 
L 54.414351 -19.588135 
L 54.354571 -19.524749 
L 54.312583 -19.461364 
L 54.292873 -19.397979 
L 54.29812 -19.334593 
L 54.329008 -19.271208 
L 54.384142 -19.207823 
L 54.460075 -19.144437 
L 54.551457 -19.081052 
L 54.651277 -19.017667 
L 54.751217 -18.954281 
L 54.842066 -18.890896 
L 54.914195 -18.827511 
L 54.958056 -18.764126 
L 54.964676 -18.70074 
L 54.926123 -18.637355 
L 54.83592 -18.57397 
L 54.68937 -18.510584 
L 54.483796 -18.447199 
L 54.218668 -18.383814 
L 53.895618 -18.320428 
L 53.518349 -18.257043 
L 53.092428 -18.193658 
L 52.625012 -18.130273 
L 52.124485 -18.066887 
L 51.600065 -18.003502 
L 51.061383 -17.940117 
L 50.518067 -17.876731 
L 49.979359 -17.813346 
L 49.453774 -17.749961 
L 48.948823 -17.686575 
L 48.470812 -17.62319 
L 48.024718 -17.559805 
L 47.614141 -17.496419 
L 47.241322 -17.433034 
z
" style="stroke: #6f6f6f; stroke-width: 0.15"/>
    </defs>
    <g clip-path="url(#p5b71be10cb)">
     <use xlink:href="#m8fc7851a56" x="0" y="84.96" style="fill: #f2aba8; stroke: #6f6f6f; stroke-width: 0.15"/>
    </g>
   </g>
   <g id="PolyCollection_3">
    <defs>
     <path id="m9bdc402b5d" d="M 71.909248 -17.905372 
L 67.469286 -17.905372 
L 67.034447 -17.909977 
L 66.552051 -17.914582 
L 66.025761 -17.919187 
L 65.461449 -17.923791 
L 64.867236 -17.928396 
L 64.253373 -17.933001 
L 63.631979 -17.937605 
L 63.016617 -17.94221 
L 62.421729 -17.946815 
L 61.86197 -17.95142 
L 61.351464 -17.956024 
L 60.90305 -17.960629 
L 60.527571 -17.965234 
L 60.233271 -17.969838 
L 60.025345 -17.974443 
L 59.905689 -17.979048 
L 59.872873 -17.983653 
L 59.922347 -17.988257 
L 60.046854 -17.992862 
L 60.23702 -17.997467 
L 60.48207 -18.002072 
L 60.770598 -18.006676 
L 61.091331 -18.011281 
L 61.433817 -18.015886 
L 61.788983 -18.02049 
L 62.149519 -18.025095 
L 62.510067 -18.0297 
L 62.867225 -18.034305 
L 63.219362 -18.038909 
L 63.566298 -18.043514 
L 63.908887 -18.048119 
L 64.24856 -18.052724 
L 64.586866 -18.057328 
L 64.925081 -18.061933 
L 65.26389 -18.066538 
L 65.603195 -18.071142 
L 65.942033 -18.075747 
L 66.278608 -18.080352 
L 66.610428 -18.084957 
L 66.934499 -18.089561 
L 67.247574 -18.094166 
L 67.546406 -18.098771 
L 67.827988 -18.103375 
L 68.089753 -18.10798 
L 68.329725 -18.112585 
L 68.54661 -18.11719 
L 68.739819 -18.121794 
L 68.909449 -18.126399 
L 69.05621 -18.131004 
L 69.18132 -18.135609 
L 69.286383 -18.140213 
L 69.373261 -18.144818 
L 69.443945 -18.149423 
L 69.500441 -18.154027 
L 69.544671 -18.158632 
L 69.578395 -18.163237 
L 69.603151 -18.167842 
L 69.620211 -18.172446 
L 69.630566 -18.177051 
L 69.634907 -18.181656 
L 69.633635 -18.18626 
L 69.626869 -18.190865 
L 69.614472 -18.19547 
L 69.596076 -18.200075 
L 69.571126 -18.204679 
L 69.538929 -18.209284 
L 69.498708 -18.213889 
L 69.449674 -18.218494 
L 69.391103 -18.223098 
L 69.322423 -18.227703 
L 69.243299 -18.232308 
L 69.153725 -18.236912 
L 69.054101 -18.241517 
L 68.945305 -18.246122 
L 68.828733 -18.250727 
L 68.706321 -18.255331 
L 68.580522 -18.259936 
L 68.454253 -18.264541 
L 68.330799 -18.269146 
L 68.213685 -18.27375 
L 68.106512 -18.278355 
L 68.012781 -18.28296 
L 67.9357 -18.287564 
L 67.878008 -18.292169 
L 67.841808 -18.296774 
L 67.828444 -18.301379 
L 67.838418 -18.305983 
L 67.871354 -18.310588 
L 67.926028 -18.315193 
L 68.00044 -18.319797 
L 68.091936 -18.324402 
L 68.197364 -18.329007 
L 68.313254 -18.333612 
L 68.43601 -18.338216 
L 68.562086 -18.342821 
L 68.688154 -18.347426 
L 68.811238 -18.352031 
L 68.928818 -18.356635 
L 69.038887 -18.36124 
L 70.339647 -18.36124 
L 70.339647 -18.36124 
L 70.449716 -18.356635 
L 70.567296 -18.352031 
L 70.69038 -18.347426 
L 70.816448 -18.342821 
L 70.942524 -18.338216 
L 71.06528 -18.333612 
L 71.181171 -18.329007 
L 71.286598 -18.324402 
L 71.378094 -18.319797 
L 71.452506 -18.315193 
L 71.50718 -18.310588 
L 71.540117 -18.305983 
L 71.55009 -18.301379 
L 71.536726 -18.296774 
L 71.500526 -18.292169 
L 71.442834 -18.287564 
L 71.365753 -18.28296 
L 71.272022 -18.278355 
L 71.16485 -18.27375 
L 71.047735 -18.269146 
L 70.924282 -18.264541 
L 70.798012 -18.259936 
L 70.672213 -18.255331 
L 70.549801 -18.250727 
L 70.433229 -18.246122 
L 70.324433 -18.241517 
L 70.224809 -18.236912 
L 70.135235 -18.232308 
L 70.056111 -18.227703 
L 69.987431 -18.223098 
L 69.928861 -18.218494 
L 69.879827 -18.213889 
L 69.839605 -18.209284 
L 69.807408 -18.204679 
L 69.782458 -18.200075 
L 69.764062 -18.19547 
L 69.751665 -18.190865 
L 69.744899 -18.18626 
L 69.743627 -18.181656 
L 69.747969 -18.177051 
L 69.758323 -18.172446 
L 69.775384 -18.167842 
L 69.800139 -18.163237 
L 69.833863 -18.158632 
L 69.878093 -18.154027 
L 69.934589 -18.149423 
L 70.005273 -18.144818 
L 70.092151 -18.140213 
L 70.197214 -18.135609 
L 70.322324 -18.131004 
L 70.469085 -18.126399 
L 70.638715 -18.121794 
L 70.831925 -18.11719 
L 71.048809 -18.112585 
L 71.288781 -18.10798 
L 71.550546 -18.103375 
L 71.832128 -18.098771 
L 72.13096 -18.094166 
L 72.444036 -18.089561 
L 72.768106 -18.084957 
L 73.099926 -18.080352 
L 73.436501 -18.075747 
L 73.775339 -18.071142 
L 74.114644 -18.066538 
L 74.453453 -18.061933 
L 74.791668 -18.057328 
L 75.129975 -18.052724 
L 75.469647 -18.048119 
L 75.812237 -18.043514 
L 76.159172 -18.038909 
L 76.511309 -18.034305 
L 76.868467 -18.0297 
L 77.229015 -18.025095 
L 77.589551 -18.02049 
L 77.944717 -18.015886 
L 78.287203 -18.011281 
L 78.607936 -18.006676 
L 78.896464 -18.002072 
L 79.141514 -17.997467 
L 79.33168 -17.992862 
L 79.456187 -17.988257 
L 79.505661 -17.983653 
L 79.472846 -17.979048 
L 79.353189 -17.974443 
L 79.145263 -17.969838 
L 78.850963 -17.965234 
L 78.475485 -17.960629 
L 78.02707 -17.956024 
L 77.516564 -17.95142 
L 76.956805 -17.946815 
L 76.361918 -17.94221 
L 75.746555 -17.937605 
L 75.125161 -17.933001 
L 74.511299 -17.928396 
L 73.917085 -17.923791 
L 73.352773 -17.919187 
L 72.826483 -17.914582 
L 72.344087 -17.909977 
L 71.909248 -17.905372 
z
" style="stroke: #6f6f6f; stroke-width: 0.15"/>
    </defs>
    <g clip-path="url(#p5b71be10cb)">
     <use xlink:href="#m9bdc402b5d" x="0" y="84.96" style="fill: #d3c4f6; stroke: #6f6f6f; stroke-width: 0.15"/>
    </g>
   </g>
   <g id="line2d_7">
    <path d="M 20.607295 66.995102 
L 20.607295 66.965436 
" clip-path="url(#p5b71be10cb)" style="fill: none; stroke: #8c8c8c; stroke-width: 0.75; stroke-linecap: round"/>
   </g>
   <g id="line2d_8">
    <path d="M 20.607295 66.991467 
L 20.607295 66.974232 
" clip-path="url(#p5b71be10cb)" style="fill: none; stroke: #8c8c8c; stroke-width: 4; stroke-linecap: round"/>
   </g>
   <g id="line2d_9">
    <path d="M 20.607295 66.986105 
" clip-path="url(#p5b71be10cb)" style="fill: none; stroke: #6f6f6f; stroke-width: 1.2; stroke-linecap: round"/>
    <defs>
     <path id="mf8f2a766f6" d="M 0 0.833333 
C 0.221003 0.833333 0.432983 0.745528 0.589256 0.589256 
C 0.745528 0.432983 0.833333 0.221003 0.833333 0 
C 0.833333 -0.221003 0.745528 -0.432983 0.589256 -0.589256 
C 0.432983 -0.745528 0.221003 -0.833333 0 -0.833333 
C -0.221003 -0.833333 -0.432983 -0.745528 -0.589256 -0.589256 
C -0.745528 -0.432983 -0.833333 -0.221003 -0.833333 0 
C -0.833333 0.221003 -0.745528 0.432983 -0.589256 0.589256 
C -0.432983 0.745528 -0.221003 0.833333 0 0.833333 
z
" style="stroke: #ffffff; stroke-width: 0.8"/>
    </defs>
    <g clip-path="url(#p5b71be10cb)">
     <use xlink:href="#mf8f2a766f6" x="20.607295" y="66.986105" style="fill: #ffffff; stroke: #ffffff; stroke-width: 0.8"/>
    </g>
   </g>
   <g id="line2d_10">
    <path d="M 45.148281 66.643665 
L 45.148281 62.135122 
" clip-path="url(#p5b71be10cb)" style="fill: none; stroke: #8c8c8c; stroke-width: 0.75; stroke-linecap: round"/>
   </g>
   <g id="line2d_11">
    <path d="M 45.148281 66.120621 
L 45.148281 63.918102 
" clip-path="url(#p5b71be10cb)" style="fill: none; stroke: #8c8c8c; stroke-width: 4; stroke-linecap: round"/>
   </g>
   <g id="line2d_12">
    <path d="M 45.148281 64.991751 
" clip-path="url(#p5b71be10cb)" style="fill: none; stroke: #6f6f6f; stroke-width: 1.2; stroke-linecap: round"/>
    <g clip-path="url(#p5b71be10cb)">
     <use xlink:href="#mf8f2a766f6" x="45.148281" y="64.991751" style="fill: #ffffff; stroke: #ffffff; stroke-width: 0.8"/>
    </g>
   </g>
   <g id="line2d_13">
    <path d="M 69.689267 66.995102 
L 69.689267 66.904136 
" clip-path="url(#p5b71be10cb)" style="fill: none; stroke: #8c8c8c; stroke-width: 0.75; stroke-linecap: round"/>
   </g>
   <g id="line2d_14">
    <path d="M 69.689267 66.988753 
L 69.689267 66.90805 
" clip-path="url(#p5b71be10cb)" style="fill: none; stroke: #8c8c8c; stroke-width: 4; stroke-linecap: round"/>
   </g>
   <g id="line2d_15">
    <path d="M 69.689267 66.973126 
" clip-path="url(#p5b71be10cb)" style="fill: none; stroke: #6f6f6f; stroke-width: 1.2; stroke-linecap: round"/>
    <g clip-path="url(#p5b71be10cb)">
     <use xlink:href="#mf8f2a766f6" x="69.689267" y="66.973126" style="fill: #ffffff; stroke: #ffffff; stroke-width: 0.8"/>
    </g>
   </g>
   <g id="patch_3">
    <path d="M 8.336802 74.419526 
L 8.336802 4.076256 
" style="fill: none; stroke: #777777; stroke-width: 0.5; stroke-linejoin: miter; stroke-linecap: square"/>
   </g>
   <g id="patch_4">
    <path d="M 8.336802 76.919526 
L 81.95976 76.919526 
" style="fill: none; stroke: #777777; stroke-width: 0.5; stroke-linejoin: miter; stroke-linecap: square"/>
   </g>
  </g>
 </g>
 <defs>
  <clipPath id="p5b71be10cb">
   <rect x="8.336802" y="4.076256" width="73.622957" height="70.34327"/>
  </clipPath>
 </defs>
</svg>
