<?xml version="1.0" encoding="utf-8" standalone="no"?>
<!DOCTYPE svg PUBLIC "-//W3C//DTD SVG 1.1//EN"
  "http://www.w3.org/Graphics/SVG/1.1/DTD/svg11.dtd">
<svg xmlns:xlink="http://www.w3.org/1999/xlink" width="56.16pt" height="84.96pt" viewBox="0 0 56.16 84.96" xmlns="http://www.w3.org/2000/svg" version="1.1">
 <metadata>
  <rdf:RDF xmlns:dc="http://purl.org/dc/elements/1.1/" xmlns:cc="http://creativecommons.org/ns#" xmlns:rdf="http://www.w3.org/1999/02/22-rdf-syntax-ns#">
   <cc:Work>
    <dc:type rdf:resource="http://purl.org/dc/dcmitype/StillImage"/>
    <dc:date>2024-05-27T15:37:01.436574</dc:date>
    <dc:format>image/svg+xml</dc:format>
    <dc:creator>
     <cc:Agent>
      <dc:title>Matplotlib v3.8.3, https://matplotlib.org/</dc:title>
     </cc:Agent>
    </dc:creator>
   </cc:Work>
  </rdf:RDF>
 </metadata>
 <defs>
  <style type="text/css">*{stroke-linejoin: round; stroke-linecap: butt}</style>
 </defs>
 <g id="figure_1">
  <g id="patch_1">
   <path d="M 0 84.96 
L 56.16 84.96 
L 56.16 0 
L 0 0 
z
" style="fill: #ffffff"/>
  </g>
  <g id="axes_1">
   <g id="patch_2">
    <path d="M 10.005084 74.395463 
L 53.15976 74.395463 
L 53.15976 4.076256 
L 10.005084 4.076256 
z
" style="fill: #ffffff"/>
   </g>
   <g id="matplotlib.axis_1">
    <g id="xtick_1">
     <g id="text_1">
      <!-- RORγT+ Cells -->
      <g style="fill: #333333" transform="translate(9.464964 81.230229) scale(0.035 -0.035)">
       <defs>
        <path id="Helvetica-52" d="M 2622 2488 
Q 3059 2488 3314 2663 
Q 3569 2838 3569 3294 
Q 3569 3784 3213 3963 
Q 3022 4056 2703 4056 
L 1184 4056 
L 1184 2488 
L 2622 2488 
z
M 563 4591 
L 2688 4591 
Q 3213 4591 3553 4438 
Q 4200 4144 4200 3353 
Q 4200 2941 4029 2678 
Q 3859 2416 3553 2256 
Q 3822 2147 3958 1969 
Q 4094 1791 4109 1391 
L 4131 775 
Q 4141 513 4175 384 
Q 4231 166 4375 103 
L 4375 0 
L 3613 0 
Q 3581 59 3562 153 
Q 3544 247 3531 516 
L 3494 1281 
Q 3472 1731 3159 1884 
Q 2981 1969 2600 1969 
L 1184 1969 
L 1184 0 
L 563 0 
L 563 4591 
z
" transform="scale(0.015625)"/>
        <path id="Helvetica-4f" d="M 2469 4716 
Q 3684 4716 4269 3934 
Q 4725 3325 4725 2375 
Q 4725 1347 4203 666 
Q 3591 -134 2456 -134 
Q 1397 -134 791 566 
Q 250 1241 250 2272 
Q 250 3203 713 3866 
Q 1306 4716 2469 4716 
z
M 2531 422 
Q 3353 422 3720 1011 
Q 4088 1600 4088 2366 
Q 4088 3175 3664 3669 
Q 3241 4163 2506 4163 
Q 1794 4163 1344 3673 
Q 894 3184 894 2231 
Q 894 1469 1280 945 
Q 1666 422 2531 422 
z
M 2488 4716 
L 2488 4716 
z
" transform="scale(0.015625)"/>
        <path id="Helvetica-3b3" d="M 1556 225 
L 581 2444 
Q 481 2700 416 2803 
Q 347 2894 244 2894 
Q 91 2888 56 2872 
L 56 3334 
Q 166 3384 313 3391 
Q 641 3391 788 3250 
Q 863 3188 922 3078 
Q 978 2963 1038 2809 
L 1844 878 
L 2828 3328 
L 3431 3328 
L 2131 225 
L 2131 -1253 
L 1556 -1253 
L 1556 225 
z
" transform="scale(0.015625)"/>
        <path id="Helvetica-54" d="M 3828 4591 
L 3828 4044 
L 2281 4044 
L 2281 0 
L 1650 0 
L 1650 4044 
L 103 4044 
L 103 4591 
L 3828 4591 
z
" transform="scale(0.015625)"/>
        <path id="Helvetica-2b" d="M 288 1369 
L 288 1894 
L 1650 1894 
L 1650 3266 
L 2184 3266 
L 2184 1894 
L 3547 1894 
L 3547 1369 
L 2184 1369 
L 2184 0 
L 1650 0 
L 1650 1369 
L 288 1369 
z
" transform="scale(0.015625)"/>
        <path id="Helvetica-20" transform="scale(0.015625)"/>
        <path id="Helvetica-43" d="M 2422 4716 
Q 3294 4716 3775 4256 
Q 4256 3797 4309 3213 
L 3703 3213 
Q 3600 3656 3292 3915 
Q 2984 4175 2428 4175 
Q 1750 4175 1333 3698 
Q 916 3222 916 2238 
Q 916 1431 1292 929 
Q 1669 428 2416 428 
Q 3103 428 3463 956 
Q 3653 1234 3747 1688 
L 4353 1688 
Q 4272 963 3816 472 
Q 3269 -119 2341 -119 
Q 1541 -119 997 366 
Q 281 1006 281 2344 
Q 281 3359 819 4009 
Q 1400 4716 2422 4716 
z
M 2297 4716 
L 2297 4716 
z
" transform="scale(0.015625)"/>
        <path id="Helvetica-65" d="M 1806 3422 
Q 2163 3422 2497 3255 
Q 2831 3088 3006 2822 
Q 3175 2569 3231 2231 
Q 3281 2000 3281 1494 
L 828 1494 
Q 844 984 1069 676 
Q 1294 369 1766 369 
Q 2206 369 2469 659 
Q 2619 828 2681 1050 
L 3234 1050 
Q 3213 866 3089 639 
Q 2966 413 2813 269 
Q 2556 19 2178 -69 
Q 1975 -119 1719 -119 
Q 1094 -119 659 336 
Q 225 791 225 1609 
Q 225 2416 662 2919 
Q 1100 3422 1806 3422 
z
M 2703 1941 
Q 2669 2306 2544 2525 
Q 2313 2931 1772 2931 
Q 1384 2931 1121 2651 
Q 859 2372 844 1941 
L 2703 1941 
z
M 1753 3428 
L 1753 3428 
z
" transform="scale(0.015625)"/>
        <path id="Helvetica-6c" d="M 428 4591 
L 991 4591 
L 991 0 
L 428 0 
L 428 4591 
z
" transform="scale(0.015625)"/>
        <path id="Helvetica-73" d="M 747 1050 
Q 772 769 888 619 
Q 1100 347 1625 347 
Q 1938 347 2175 483 
Q 2413 619 2413 903 
Q 2413 1119 2222 1231 
Q 2100 1300 1741 1391 
L 1294 1503 
Q 866 1609 663 1741 
Q 300 1969 300 2372 
Q 300 2847 642 3140 
Q 984 3434 1563 3434 
Q 2319 3434 2653 2991 
Q 2863 2709 2856 2384 
L 2325 2384 
Q 2309 2575 2191 2731 
Q 1997 2953 1519 2953 
Q 1200 2953 1036 2831 
Q 872 2709 872 2509 
Q 872 2291 1088 2159 
Q 1213 2081 1456 2022 
L 1828 1931 
Q 2434 1784 2641 1647 
Q 2969 1431 2969 969 
Q 2969 522 2630 197 
Q 2291 -128 1597 -128 
Q 850 -128 539 211 
Q 228 550 206 1050 
L 747 1050 
z
M 1578 3428 
L 1578 3428 
z
" transform="scale(0.015625)"/>
       </defs>
       <use xlink:href="#Helvetica-52"/>
       <use xlink:href="#Helvetica-4f" x="72.216797"/>
       <use xlink:href="#Helvetica-52" x="150"/>
       <use xlink:href="#Helvetica-3b3" x="222.216797"/>
       <use xlink:href="#Helvetica-54" x="277.832031"/>
       <use xlink:href="#Helvetica-2b" x="338.916016"/>
       <use xlink:href="#Helvetica-20" x="397.314453"/>
       <use xlink:href="#Helvetica-43" x="425.097656"/>
       <use xlink:href="#Helvetica-65" x="497.314453"/>
       <use xlink:href="#Helvetica-6c" x="552.929688"/>
       <use xlink:href="#Helvetica-6c" x="575.146484"/>
       <use xlink:href="#Helvetica-73" x="597.363281"/>
      </g>
     </g>
    </g>
    <g id="xtick_2">
     <g id="text_2">
      <!-- AHR+ Cells -->
      <g style="fill: #333333" transform="translate(33.2782 81.206166) scale(0.035 -0.035)">
       <defs>
        <path id="Helvetica-41" d="M 2844 1881 
L 2147 3909 
L 1406 1881 
L 2844 1881 
z
M 1822 4591 
L 2525 4591 
L 4191 0 
L 3509 0 
L 3044 1375 
L 1228 1375 
L 731 0 
L 94 0 
L 1822 4591 
z
" transform="scale(0.015625)"/>
        <path id="Helvetica-48" d="M 503 4591 
L 1131 4591 
L 1131 2694 
L 3519 2694 
L 3519 4591 
L 4147 4591 
L 4147 0 
L 3519 0 
L 3519 2147 
L 1131 2147 
L 1131 0 
L 503 0 
L 503 4591 
z
" transform="scale(0.015625)"/>
       </defs>
       <use xlink:href="#Helvetica-41"/>
       <use xlink:href="#Helvetica-48" x="66.699219"/>
       <use xlink:href="#Helvetica-52" x="138.916016"/>
       <use xlink:href="#Helvetica-2b" x="211.132812"/>
       <use xlink:href="#Helvetica-20" x="269.53125"/>
       <use xlink:href="#Helvetica-43" x="297.314453"/>
       <use xlink:href="#Helvetica-65" x="369.53125"/>
       <use xlink:href="#Helvetica-6c" x="425.146484"/>
       <use xlink:href="#Helvetica-6c" x="447.363281"/>
       <use xlink:href="#Helvetica-73" x="469.580078"/>
      </g>
     </g>
    </g>
   </g>
   <g id="matplotlib.axis_2">
    <g id="ytick_1">
     <g id="line2d_1">
      <defs>
       <path id="m2633b96b6c" d="M 0 0 
L -1 0 
" style="stroke: #777777; stroke-width: 0.5"/>
      </defs>
      <g>
       <use xlink:href="#m2633b96b6c" x="10.005084" y="66.168271" style="fill: #777777; stroke: #777777; stroke-width: 0.5"/>
      </g>
     </g>
     <g id="text_3">
      <!-- 0 -->
      <g style="fill: #333333" transform="translate(6.336802 67.244287) scale(0.03 -0.03)">
       <defs>
        <path id="Helvetica-30" d="M 1731 4475 
Q 2600 4475 2988 3759 
Q 3288 3206 3288 2244 
Q 3288 1331 3016 734 
Q 2622 -122 1728 -122 
Q 922 -122 528 578 
Q 200 1163 200 2147 
Q 200 2909 397 3456 
Q 766 4475 1731 4475 
z
M 1725 391 
Q 2163 391 2422 778 
Q 2681 1166 2681 2222 
Q 2681 2984 2493 3476 
Q 2306 3969 1766 3969 
Q 1269 3969 1039 3501 
Q 809 3034 809 2125 
Q 809 1441 956 1025 
Q 1181 391 1725 391 
z
" transform="scale(0.015625)"/>
       </defs>
       <use xlink:href="#Helvetica-30"/>
      </g>
     </g>
    </g>
    <g id="ytick_2">
     <g id="line2d_2">
      <g>
       <use xlink:href="#m2633b96b6c" x="10.005084" y="55.819602" style="fill: #777777; stroke: #777777; stroke-width: 0.5"/>
      </g>
     </g>
     <g id="text_4">
      <!-- 20 -->
      <g style="fill: #333333" transform="translate(4.668521 56.895617) scale(0.03 -0.03)">
       <defs>
        <path id="Helvetica-32" d="M 200 0 
Q 231 578 439 1006 
Q 647 1434 1250 1784 
L 1850 2131 
Q 2253 2366 2416 2531 
Q 2672 2791 2672 3125 
Q 2672 3516 2437 3745 
Q 2203 3975 1813 3975 
Q 1234 3975 1013 3538 
Q 894 3303 881 2888 
L 309 2888 
Q 319 3472 525 3841 
Q 891 4491 1816 4491 
Q 2584 4491 2939 4075 
Q 3294 3659 3294 3150 
Q 3294 2613 2916 2231 
Q 2697 2009 2131 1694 
L 1703 1456 
Q 1397 1288 1222 1134 
Q 909 863 828 531 
L 3272 531 
L 3272 0 
L 200 0 
z
" transform="scale(0.015625)"/>
       </defs>
       <use xlink:href="#Helvetica-32"/>
       <use xlink:href="#Helvetica-30" x="55.615234"/>
      </g>
     </g>
    </g>
    <g id="ytick_3">
     <g id="line2d_3">
      <g>
       <use xlink:href="#m2633b96b6c" x="10.005084" y="45.470933" style="fill: #777777; stroke: #777777; stroke-width: 0.5"/>
      </g>
     </g>
     <g id="text_5">
      <!-- 40 -->
      <g style="fill: #333333" transform="translate(4.668521 46.546948) scale(0.03 -0.03)">
       <defs>
        <path id="Helvetica-34" d="M 2116 1584 
L 2116 3613 
L 681 1584 
L 2116 1584 
z
M 2125 0 
L 2125 1094 
L 163 1094 
L 163 1644 
L 2213 4488 
L 2688 4488 
L 2688 1584 
L 3347 1584 
L 3347 1094 
L 2688 1094 
L 2688 0 
L 2125 0 
z
" transform="scale(0.015625)"/>
       </defs>
       <use xlink:href="#Helvetica-34"/>
       <use xlink:href="#Helvetica-30" x="55.615234"/>
      </g>
     </g>
    </g>
    <g id="ytick_4">
     <g id="line2d_4">
      <g>
       <use xlink:href="#m2633b96b6c" x="10.005084" y="35.122263" style="fill: #777777; stroke: #777777; stroke-width: 0.5"/>
      </g>
     </g>
     <g id="text_6">
      <!-- 60 -->
      <g style="fill: #333333" transform="translate(4.668521 36.198279) scale(0.03 -0.03)">
       <defs>
        <path id="Helvetica-36" d="M 1872 4494 
Q 2622 4494 2917 4105 
Q 3213 3716 3213 3303 
L 2656 3303 
Q 2606 3569 2497 3719 
Q 2294 4000 1881 4000 
Q 1409 4000 1131 3564 
Q 853 3128 822 2316 
Q 1016 2600 1309 2741 
Q 1578 2866 1909 2866 
Q 2472 2866 2890 2506 
Q 3309 2147 3309 1434 
Q 3309 825 2912 354 
Q 2516 -116 1781 -116 
Q 1153 -116 697 361 
Q 241 838 241 1966 
Q 241 2800 444 3381 
Q 834 4494 1872 4494 
z
M 1831 384 
Q 2275 384 2495 682 
Q 2716 981 2716 1388 
Q 2716 1731 2519 2042 
Q 2322 2353 1803 2353 
Q 1441 2353 1167 2112 
Q 894 1872 894 1388 
Q 894 963 1142 673 
Q 1391 384 1831 384 
z
" transform="scale(0.015625)"/>
       </defs>
       <use xlink:href="#Helvetica-36"/>
       <use xlink:href="#Helvetica-30" x="55.615234"/>
      </g>
     </g>
    </g>
    <g id="ytick_5">
     <g id="line2d_5">
      <g>
       <use xlink:href="#m2633b96b6c" x="10.005084" y="24.773594" style="fill: #777777; stroke: #777777; stroke-width: 0.5"/>
      </g>
     </g>
     <g id="text_7">
      <!-- 80 -->
      <g style="fill: #333333" transform="translate(4.668521 25.84961) scale(0.03 -0.03)">
       <defs>
        <path id="Helvetica-38" d="M 1741 2600 
Q 2113 2600 2322 2808 
Q 2531 3016 2531 3303 
Q 2531 3553 2331 3762 
Q 2131 3972 1722 3972 
Q 1316 3972 1134 3762 
Q 953 3553 953 3272 
Q 953 2956 1187 2778 
Q 1422 2600 1741 2600 
z
M 1775 384 
Q 2166 384 2423 595 
Q 2681 806 2681 1225 
Q 2681 1659 2415 1884 
Q 2150 2109 1734 2109 
Q 1331 2109 1076 1879 
Q 822 1650 822 1244 
Q 822 894 1055 639 
Q 1288 384 1775 384 
z
M 975 2384 
Q 741 2484 609 2619 
Q 363 2869 363 3269 
Q 363 3769 725 4128 
Q 1088 4488 1753 4488 
Q 2397 4488 2762 4148 
Q 3128 3809 3128 3356 
Q 3128 2938 2916 2678 
Q 2797 2531 2547 2391 
Q 2825 2263 2984 2097 
Q 3281 1784 3281 1284 
Q 3281 694 2884 283 
Q 2488 -128 1763 -128 
Q 1109 -128 657 226 
Q 206 581 206 1256 
Q 206 1653 400 1942 
Q 594 2231 975 2384 
z
" transform="scale(0.015625)"/>
       </defs>
       <use xlink:href="#Helvetica-38"/>
       <use xlink:href="#Helvetica-30" x="55.615234"/>
      </g>
     </g>
    </g>
    <g id="ytick_6">
     <g id="line2d_6">
      <g>
       <use xlink:href="#m2633b96b6c" x="10.005084" y="14.424925" style="fill: #777777; stroke: #777777; stroke-width: 0.5"/>
      </g>
     </g>
     <g id="text_8">
      <!-- 100 -->
      <g style="fill: #333333" transform="translate(3.00024 15.50094) scale(0.03 -0.03)">
       <defs>
        <path id="Helvetica-31" d="M 613 3169 
L 613 3600 
Q 1222 3659 1462 3798 
Q 1703 3938 1822 4456 
L 2266 4456 
L 2266 0 
L 1666 0 
L 1666 3169 
L 613 3169 
z
" transform="scale(0.015625)"/>
       </defs>
       <use xlink:href="#Helvetica-31"/>
       <use xlink:href="#Helvetica-30" x="55.615234"/>
       <use xlink:href="#Helvetica-30" x="111.230469"/>
      </g>
     </g>
    </g>
    <g id="ytick_7">
     <g id="line2d_7">
      <g>
       <use xlink:href="#m2633b96b6c" x="10.005084" y="4.076256" style="fill: #777777; stroke: #777777; stroke-width: 0.5"/>
      </g>
     </g>
     <g id="text_9">
      <!-- 120 -->
      <g style="fill: #333333" transform="translate(3.00024 5.152271) scale(0.03 -0.03)">
       <use xlink:href="#Helvetica-31"/>
       <use xlink:href="#Helvetica-32" x="55.615234"/>
       <use xlink:href="#Helvetica-30" x="111.230469"/>
      </g>
     </g>
    </g>
   </g>
   <g id="PolyCollection_1">
    <defs>
     <path id="mf8de91d74e" d="M 22.343115 -18.33156 
L 19.244391 -18.33156 
L 18.943305 -18.44303 
L 18.60584 -18.554501 
L 18.232629 -18.665971 
L 17.825521 -18.777442 
L 17.387687 -18.888912 
L 16.923676 -19.000383 
L 16.439403 -19.111853 
L 15.942064 -19.223324 
L 15.439974 -19.334794 
L 14.942331 -19.446265 
L 14.45891 -19.557735 
L 13.999702 -19.669206 
L 13.574525 -19.780676 
L 13.192609 -19.892146 
L 12.862201 -20.003617 
L 12.590207 -20.115087 
L 12.381882 -20.226558 
L 12.240618 -20.338028 
L 12.167807 -20.449499 
L 12.162818 -20.560969 
L 12.223073 -20.67244 
L 12.344226 -20.78391 
L 12.520414 -20.895381 
L 12.744591 -21.006851 
L 13.008892 -21.118322 
L 13.305025 -21.229792 
L 13.624659 -21.341263 
L 13.959775 -21.452733 
L 14.302983 -21.564204 
L 14.647766 -21.675674 
L 14.98865 -21.787145 
L 15.321301 -21.898615 
L 15.64254 -22.010086 
L 15.950285 -22.121556 
L 16.243432 -22.233027 
L 16.521688 -22.344497 
L 16.785369 -22.455968 
L 17.035185 -22.567438 
L 17.272029 -22.678909 
L 17.496771 -22.790379 
L 17.710099 -22.90185 
L 17.912388 -23.01332 
L 18.103622 -23.124791 
L 18.283366 -23.236261 
L 18.450786 -23.347731 
L 18.604713 -23.459202 
L 18.743753 -23.570672 
L 18.866408 -23.682143 
L 18.971232 -23.793613 
L 19.056977 -23.905084 
L 19.12274 -24.016554 
L 19.168079 -24.128025 
L 19.193117 -24.239495 
L 19.198591 -24.350966 
L 19.185871 -24.462436 
L 19.156931 -24.573907 
L 19.114278 -24.685377 
L 19.06084 -24.796848 
L 18.999827 -24.908318 
L 18.934565 -25.019789 
L 18.86832 -25.131259 
L 18.804124 -25.24273 
L 18.744614 -25.3542 
L 18.691899 -25.465671 
L 18.647459 -25.577141 
L 18.612096 -25.688612 
L 18.585928 -25.800082 
L 18.568435 -25.911553 
L 18.558553 -26.023023 
L 18.554809 -26.134494 
L 18.555483 -26.245964 
L 18.558787 -26.357435 
L 18.563049 -26.468905 
L 18.566877 -26.580376 
L 18.569302 -26.691846 
L 18.569878 -26.803316 
L 18.568737 -26.914787 
L 18.56659 -27.026257 
L 18.564679 -27.137728 
L 18.564682 -27.249198 
L 18.568578 -27.360669 
L 18.578493 -27.472139 
L 18.596523 -27.58361 
L 18.624571 -27.69508 
L 18.664192 -27.806551 
L 18.716471 -27.918021 
L 18.781935 -28.029492 
L 18.860507 -28.140962 
L 18.951511 -28.252433 
L 19.05371 -28.363903 
L 19.165385 -28.475374 
L 19.284442 -28.586844 
L 19.408534 -28.698315 
L 19.535199 -28.809785 
L 19.661985 -28.921256 
L 19.786568 -29.032726 
L 19.906857 -29.144197 
L 20.021066 -29.255667 
L 20.127765 -29.367138 
L 21.459741 -29.367138 
L 21.459741 -29.367138 
L 21.56644 -29.255667 
L 21.680648 -29.144197 
L 21.800937 -29.032726 
L 21.925521 -28.921256 
L 22.052306 -28.809785 
L 22.178971 -28.698315 
L 22.303064 -28.586844 
L 22.42212 -28.475374 
L 22.533795 -28.363903 
L 22.635995 -28.252433 
L 22.726999 -28.140962 
L 22.805571 -28.029492 
L 22.871034 -27.918021 
L 22.923313 -27.806551 
L 22.962934 -27.69508 
L 22.990983 -27.58361 
L 23.009013 -27.472139 
L 23.018927 -27.360669 
L 23.022824 -27.249198 
L 23.022827 -27.137728 
L 23.020916 -27.026257 
L 23.018769 -26.914787 
L 23.017628 -26.803316 
L 23.018204 -26.691846 
L 23.020629 -26.580376 
L 23.024457 -26.468905 
L 23.028718 -26.357435 
L 23.032023 -26.245964 
L 23.032697 -26.134494 
L 23.028952 -26.023023 
L 23.01907 -25.911553 
L 23.001577 -25.800082 
L 22.975409 -25.688612 
L 22.940047 -25.577141 
L 22.895607 -25.465671 
L 22.842891 -25.3542 
L 22.783381 -25.24273 
L 22.719185 -25.131259 
L 22.65294 -25.019789 
L 22.587679 -24.908318 
L 22.526666 -24.796848 
L 22.473228 -24.685377 
L 22.430575 -24.573907 
L 22.401635 -24.462436 
L 22.388915 -24.350966 
L 22.394389 -24.239495 
L 22.419426 -24.128025 
L 22.464766 -24.016554 
L 22.530528 -23.905084 
L 22.616274 -23.793613 
L 22.721098 -23.682143 
L 22.843753 -23.570672 
L 22.982792 -23.459202 
L 23.13672 -23.347731 
L 23.30414 -23.236261 
L 23.483884 -23.124791 
L 23.675118 -23.01332 
L 23.877407 -22.90185 
L 24.090735 -22.790379 
L 24.315477 -22.678909 
L 24.55232 -22.567438 
L 24.802137 -22.455968 
L 25.065818 -22.344497 
L 25.344073 -22.233027 
L 25.63722 -22.121556 
L 25.944965 -22.010086 
L 26.266205 -21.898615 
L 26.598856 -21.787145 
L 26.93974 -21.675674 
L 27.284523 -21.564204 
L 27.627731 -21.452733 
L 27.962847 -21.341263 
L 28.28248 -21.229792 
L 28.578614 -21.118322 
L 28.842915 -21.006851 
L 29.067092 -20.895381 
L 29.24328 -20.78391 
L 29.364432 -20.67244 
L 29.424688 -20.560969 
L 29.419699 -20.449499 
L 29.346887 -20.338028 
L 29.205623 -20.226558 
L 28.997299 -20.115087 
L 28.725304 -20.003617 
L 28.394897 -19.892146 
L 28.012981 -19.780676 
L 27.587803 -19.669206 
L 27.128596 -19.557735 
L 26.645175 -19.446265 
L 26.147532 -19.334794 
L 25.645442 -19.223324 
L 25.148102 -19.111853 
L 24.663829 -19.000383 
L 24.199818 -18.888912 
L 23.761985 -18.777442 
L 23.354877 -18.665971 
L 22.981666 -18.554501 
L 22.6442 -18.44303 
L 22.343115 -18.33156 
z
" style="stroke: #6f6f6f; stroke-width: 0.15"/>
    </defs>
    <g clip-path="url(#pde28030811)">
     <use xlink:href="#mf8de91d74e" x="0" y="84.96" style="fill: #cfcfcf; stroke: #6f6f6f; stroke-width: 0.15"/>
    </g>
   </g>
   <g id="PolyCollection_2">
    <defs>
     <path id="mb7a3276c33" d="M 43.073439 -26.680743 
L 41.668743 -26.680743 
L 41.549612 -27.056719 
L 41.422229 -27.432695 
L 41.288699 -27.808671 
L 41.151664 -28.184647 
L 41.01422 -28.560623 
L 40.879804 -28.936599 
L 40.752037 -29.312575 
L 40.63453 -29.688551 
L 40.530678 -30.064527 
L 40.443441 -30.440503 
L 40.375143 -30.816479 
L 40.327292 -31.192454 
L 40.300444 -31.56843 
L 40.294131 -31.944406 
L 40.306843 -32.320382 
L 40.336092 -32.696358 
L 40.378538 -33.072334 
L 40.430177 -33.44831 
L 40.486582 -33.824286 
L 40.543175 -34.200262 
L 40.595518 -34.576238 
L 40.639595 -34.952214 
L 40.672068 -35.32819 
L 40.690498 -35.704166 
L 40.6935 -36.080142 
L 40.68083 -36.456118 
L 40.653398 -36.832094 
L 40.613205 -37.20807 
L 40.563202 -37.584046 
L 40.507089 -37.960022 
L 40.449058 -38.335998 
L 40.393507 -38.711974 
L 40.344734 -39.08795 
L 40.306632 -39.463926 
L 40.282413 -39.839902 
L 40.274365 -40.215878 
L 40.283671 -40.591854 
L 40.310279 -40.96783 
L 40.352854 -41.343806 
L 40.408791 -41.719782 
L 40.474295 -42.095758 
L 40.544517 -42.471734 
L 40.613741 -42.84771 
L 40.675604 -43.223685 
L 40.723343 -43.599661 
L 40.750057 -43.975637 
L 40.748977 -44.351613 
L 40.713738 -44.727589 
L 40.638642 -45.103565 
L 40.518914 -45.479541 
L 40.350943 -45.855517 
L 40.132505 -46.231493 
L 39.862949 -46.607469 
L 39.543349 -46.983445 
L 39.176601 -47.359421 
L 38.767454 -47.735397 
L 38.322462 -48.111373 
L 37.849848 -48.487349 
L 37.359272 -48.863325 
L 36.861507 -49.239301 
L 36.368031 -49.615277 
L 35.890553 -49.991253 
L 35.440496 -50.367229 
L 35.028474 -50.743205 
L 34.663796 -51.119181 
L 34.354036 -51.495157 
L 34.104703 -51.871133 
L 33.919038 -52.247109 
L 33.797959 -52.623085 
L 33.740156 -52.999061 
L 33.742328 -53.375037 
L 33.799549 -53.751013 
L 33.905716 -54.126989 
L 34.05405 -54.502965 
L 34.237609 -54.878941 
L 34.44975 -55.254916 
L 34.684519 -55.630892 
L 34.936935 -56.006868 
L 35.203137 -56.382844 
L 35.480415 -56.75882 
L 35.767104 -57.134796 
L 36.062387 -57.510772 
L 36.366026 -57.886748 
L 36.678051 -58.262724 
L 36.998459 -58.6387 
L 37.326946 -59.014676 
L 37.662696 -59.390652 
L 38.004256 -59.766628 
L 38.349494 -60.142604 
L 38.69565 -60.51858 
L 39.039451 -60.894556 
L 39.377291 -61.270532 
L 39.70544 -61.646508 
L 40.020263 -62.022484 
L 40.318428 -62.39846 
L 40.597084 -62.774436 
L 40.853994 -63.150412 
L 41.087615 -63.526388 
L 41.297132 -63.902364 
L 43.44505 -63.902364 
L 43.44505 -63.902364 
L 43.654566 -63.526388 
L 43.888188 -63.150412 
L 44.145098 -62.774436 
L 44.423754 -62.39846 
L 44.721919 -62.022484 
L 45.036741 -61.646508 
L 45.36489 -61.270532 
L 45.702731 -60.894556 
L 46.046532 -60.51858 
L 46.392688 -60.142604 
L 46.737926 -59.766628 
L 47.079486 -59.390652 
L 47.415236 -59.014676 
L 47.743723 -58.6387 
L 48.064131 -58.262724 
L 48.376156 -57.886748 
L 48.679795 -57.510772 
L 48.975078 -57.134796 
L 49.261767 -56.75882 
L 49.539045 -56.382844 
L 49.805247 -56.006868 
L 50.057663 -55.630892 
L 50.292432 -55.254916 
L 50.504573 -54.878941 
L 50.688132 -54.502965 
L 50.836466 -54.126989 
L 50.942632 -53.751013 
L 50.999853 -53.375037 
L 51.002026 -52.999061 
L 50.944223 -52.623085 
L 50.823144 -52.247109 
L 50.637479 -51.871133 
L 50.388146 -51.495157 
L 50.078386 -51.119181 
L 49.713708 -50.743205 
L 49.301686 -50.367229 
L 48.851629 -49.991253 
L 48.374151 -49.615277 
L 47.880675 -49.239301 
L 47.38291 -48.863325 
L 46.892333 -48.487349 
L 46.419719 -48.111373 
L 45.974728 -47.735397 
L 45.565581 -47.359421 
L 45.198833 -46.983445 
L 44.879233 -46.607469 
L 44.609677 -46.231493 
L 44.391239 -45.855517 
L 44.223268 -45.479541 
L 44.10354 -45.103565 
L 44.028444 -44.727589 
L 43.993205 -44.351613 
L 43.992125 -43.975637 
L 44.018839 -43.599661 
L 44.066578 -43.223685 
L 44.128441 -42.84771 
L 44.197665 -42.471734 
L 44.267887 -42.095758 
L 44.333391 -41.719782 
L 44.389328 -41.343806 
L 44.431903 -40.96783 
L 44.458511 -40.591854 
L 44.467817 -40.215878 
L 44.459769 -39.839902 
L 44.43555 -39.463926 
L 44.397448 -39.08795 
L 44.348675 -38.711974 
L 44.293124 -38.335998 
L 44.235093 -37.960022 
L 44.178979 -37.584046 
L 44.128977 -37.20807 
L 44.088784 -36.832094 
L 44.061352 -36.456118 
L 44.048682 -36.080142 
L 44.051684 -35.704166 
L 44.070114 -35.32819 
L 44.102587 -34.952214 
L 44.146663 -34.576238 
L 44.199007 -34.200262 
L 44.2556 -33.824286 
L 44.312005 -33.44831 
L 44.363644 -33.072334 
L 44.40609 -32.696358 
L 44.435339 -32.320382 
L 44.448051 -31.944406 
L 44.441738 -31.56843 
L 44.41489 -31.192454 
L 44.367039 -30.816479 
L 44.298741 -30.440503 
L 44.211504 -30.064527 
L 44.107652 -29.688551 
L 43.990144 -29.312575 
L 43.862377 -28.936599 
L 43.727962 -28.560623 
L 43.590518 -28.184647 
L 43.453483 -27.808671 
L 43.319953 -27.432695 
L 43.19257 -27.056719 
L 43.073439 -26.680743 
z
" style="stroke: #6f6f6f; stroke-width: 0.15"/>
    </defs>
    <g clip-path="url(#pde28030811)">
     <use xlink:href="#mb7a3276c33" x="0" y="84.96" style="fill: #f3f3ae; stroke: #6f6f6f; stroke-width: 0.15"/>
    </g>
   </g>
   <g id="line2d_8">
    <path d="M 20.793753 65.093817 
L 20.793753 57.127485 
" clip-path="url(#pde28030811)" style="fill: none; stroke: #8c8c8c; stroke-width: 0.75; stroke-linecap: round"/>
   </g>
   <g id="line2d_9">
    <path d="M 20.793753 64.555968 
L 20.793753 61.454522 
" clip-path="url(#pde28030811)" style="fill: none; stroke: #8c8c8c; stroke-width: 4; stroke-linecap: round"/>
   </g>
   <g id="line2d_10">
    <path d="M 20.793753 63.967253 
" clip-path="url(#pde28030811)" style="fill: none; stroke: #6f6f6f; stroke-width: 1.2; stroke-linecap: round"/>
    <defs>
     <path id="m40850f2bad" d="M 0 0.833333 
C 0.221003 0.833333 0.432983 0.745528 0.589256 0.589256 
C 0.745528 0.432983 0.833333 0.221003 0.833333 0 
C 0.833333 -0.221003 0.745528 -0.432983 0.589256 -0.589256 
C 0.432983 -0.745528 0.221003 -0.833333 0 -0.833333 
C -0.221003 -0.833333 -0.432983 -0.745528 -0.589256 -0.589256 
C -0.745528 -0.432983 -0.833333 -0.221003 -0.833333 0 
C -0.833333 0.221003 -0.745528 0.432983 -0.589256 0.589256 
C -0.432983 0.745528 -0.221003 0.833333 0 0.833333 
z
" style="stroke: #ffffff; stroke-width: 0.8"/>
    </defs>
    <g clip-path="url(#pde28030811)">
     <use xlink:href="#m40850f2bad" x="20.793753" y="63.967253" style="fill: #ffffff; stroke: #ffffff; stroke-width: 0.8"/>
    </g>
   </g>
   <g id="line2d_11">
    <path d="M 42.371091 44.566772 
L 42.371091 25.914729 
" clip-path="url(#pde28030811)" style="fill: none; stroke: #8c8c8c; stroke-width: 0.75; stroke-linecap: round"/>
   </g>
   <g id="line2d_12">
    <path d="M 42.371091 36.650712 
L 42.371091 30.336184 
" clip-path="url(#pde28030811)" style="fill: none; stroke: #8c8c8c; stroke-width: 4; stroke-linecap: round"/>
   </g>
   <g id="line2d_13">
    <path d="M 42.371091 32.780974 
" clip-path="url(#pde28030811)" style="fill: none; stroke: #6f6f6f; stroke-width: 1.2; stroke-linecap: round"/>
    <g clip-path="url(#pde28030811)">
     <use xlink:href="#m40850f2bad" x="42.371091" y="32.780974" style="fill: #ffffff; stroke: #ffffff; stroke-width: 0.8"/>
    </g>
   </g>
   <g id="patch_3">
    <path d="M 10.005084 74.395463 
L 10.005084 4.076256 
" style="fill: none; stroke: #777777; stroke-width: 0.5; stroke-linejoin: miter; stroke-linecap: square"/>
   </g>
   <g id="patch_4">
    <path d="M 10.005084 76.895463 
L 53.15976 76.895463 
" style="fill: none; stroke: #777777; stroke-width: 0.5; stroke-linejoin: miter; stroke-linecap: square"/>
   </g>
  </g>
 </g>
 <defs>
  <clipPath id="pde28030811">
   <rect x="10.005084" y="4.076256" width="43.154676" height="70.319207"/>
  </clipPath>
 </defs>
</svg>
