<?xml version="1.0" encoding="utf-8" standalone="no"?>
<!DOCTYPE svg PUBLIC "-//W3C//DTD SVG 1.1//EN"
  "http://www.w3.org/Graphics/SVG/1.1/DTD/svg11.dtd">
<svg xmlns:xlink="http://www.w3.org/1999/xlink" width="141.12pt" height="84.96pt" viewBox="0 0 141.12 84.96" xmlns="http://www.w3.org/2000/svg" version="1.1">
 <metadata>
  <rdf:RDF xmlns:dc="http://purl.org/dc/elements/1.1/" xmlns:cc="http://creativecommons.org/ns#" xmlns:rdf="http://www.w3.org/1999/02/22-rdf-syntax-ns#">
   <cc:Work>
    <dc:type rdf:resource="http://purl.org/dc/dcmitype/StillImage"/>
    <dc:date>2024-05-27T15:37:19.179627</dc:date>
    <dc:format>image/svg+xml</dc:format>
    <dc:creator>
     <cc:Agent>
      <dc:title>Matplotlib v3.8.3, https://matplotlib.org/</dc:title>
     </cc:Agent>
    </dc:creator>
   </cc:Work>
  </rdf:RDF>
 </metadata>
 <defs>
  <style type="text/css">*{stroke-linejoin: round; stroke-linecap: butt}</style>
 </defs>
 <g id="figure_1">
  <g id="patch_1">
   <path d="M 0 84.96 
L 141.12 84.96 
L 141.12 0 
L 0 0 
z
" style="fill: #ffffff"/>
  </g>
  <g id="axes_1">
   <g id="patch_2">
    <path d="M 10.005084 74.393822 
L 138.11976 74.393822 
L 138.11976 4.076256 
L 10.005084 4.076256 
z
" style="fill: #ffffff"/>
   </g>
   <g id="matplotlib.axis_1">
    <g id="xtick_1">
     <g id="text_1">
      <!-- NK/ILC1ie -->
      <g style="fill: #333333" transform="translate(14.840926 81.204526) scale(0.035 -0.035)">
       <defs>
        <path id="Helvetica-4e" d="M 488 4591 
L 1222 4591 
L 3541 872 
L 3541 4591 
L 4131 4591 
L 4131 0 
L 3434 0 
L 1081 3716 
L 1081 0 
L 488 0 
L 488 4591 
z
M 2269 4591 
L 2269 4591 
z
" transform="scale(0.015625)"/>
        <path id="Helvetica-4b" d="M 488 4591 
L 1094 4591 
L 1094 2353 
L 3331 4591 
L 4191 4591 
L 2281 2741 
L 4244 0 
L 3434 0 
L 1828 2303 
L 1094 1600 
L 1094 0 
L 488 0 
L 488 4591 
z
" transform="scale(0.015625)"/>
        <path id="Helvetica-2f" d="M 1456 4591 
L 1931 4591 
L 475 0 
L 0 0 
L 1456 4591 
z
" transform="scale(0.015625)"/>
        <path id="Helvetica-49" d="M 628 4591 
L 1256 4591 
L 1256 0 
L 628 0 
L 628 4591 
z
" transform="scale(0.015625)"/>
        <path id="Helvetica-4c" d="M 488 4591 
L 1109 4591 
L 1109 547 
L 3434 547 
L 3434 0 
L 488 0 
L 488 4591 
z
" transform="scale(0.015625)"/>
        <path id="Helvetica-43" d="M 2422 4716 
Q 3294 4716 3775 4256 
Q 4256 3797 4309 3213 
L 3703 3213 
Q 3600 3656 3292 3915 
Q 2984 4175 2428 4175 
Q 1750 4175 1333 3698 
Q 916 3222 916 2238 
Q 916 1431 1292 929 
Q 1669 428 2416 428 
Q 3103 428 3463 956 
Q 3653 1234 3747 1688 
L 4353 1688 
Q 4272 963 3816 472 
Q 3269 -119 2341 -119 
Q 1541 -119 997 366 
Q 281 1006 281 2344 
Q 281 3359 819 4009 
Q 1400 4716 2422 4716 
z
M 2297 4716 
L 2297 4716 
z
" transform="scale(0.015625)"/>
        <path id="Helvetica-31" d="M 613 3169 
L 613 3600 
Q 1222 3659 1462 3798 
Q 1703 3938 1822 4456 
L 2266 4456 
L 2266 0 
L 1666 0 
L 1666 3169 
L 613 3169 
z
" transform="scale(0.015625)"/>
        <path id="Helvetica-69" d="M 413 3331 
L 984 3331 
L 984 0 
L 413 0 
L 413 3331 
z
M 413 4591 
L 984 4591 
L 984 3953 
L 413 3953 
L 413 4591 
z
" transform="scale(0.015625)"/>
        <path id="Helvetica-65" d="M 1806 3422 
Q 2163 3422 2497 3255 
Q 2831 3088 3006 2822 
Q 3175 2569 3231 2231 
Q 3281 2000 3281 1494 
L 828 1494 
Q 844 984 1069 676 
Q 1294 369 1766 369 
Q 2206 369 2469 659 
Q 2619 828 2681 1050 
L 3234 1050 
Q 3213 866 3089 639 
Q 2966 413 2813 269 
Q 2556 19 2178 -69 
Q 1975 -119 1719 -119 
Q 1094 -119 659 336 
Q 225 791 225 1609 
Q 225 2416 662 2919 
Q 1100 3422 1806 3422 
z
M 2703 1941 
Q 2669 2306 2544 2525 
Q 2313 2931 1772 2931 
Q 1384 2931 1121 2651 
Q 859 2372 844 1941 
L 2703 1941 
z
M 1753 3428 
L 1753 3428 
z
" transform="scale(0.015625)"/>
       </defs>
       <use xlink:href="#Helvetica-4e"/>
       <use xlink:href="#Helvetica-4b" x="72.216797"/>
       <use xlink:href="#Helvetica-2f" x="138.916016"/>
       <use xlink:href="#Helvetica-49" x="166.699219"/>
       <use xlink:href="#Helvetica-4c" x="194.482422"/>
       <use xlink:href="#Helvetica-43" x="250.097656"/>
       <use xlink:href="#Helvetica-31" x="322.314453"/>
       <use xlink:href="#Helvetica-69" x="377.929688"/>
       <use xlink:href="#Helvetica-65" x="400.146484"/>
      </g>
     </g>
    </g>
    <g id="xtick_2">
     <g id="text_2">
      <!-- ILC1 -->
      <g style="fill: #333333" transform="translate(44.743158 81.204526) scale(0.035 -0.035)">
       <use xlink:href="#Helvetica-49"/>
       <use xlink:href="#Helvetica-4c" x="27.783203"/>
       <use xlink:href="#Helvetica-43" x="83.398438"/>
       <use xlink:href="#Helvetica-31" x="155.615234"/>
      </g>
     </g>
    </g>
    <g id="xtick_3">
     <g id="text_3">
      <!-- TH1 (TdT–) -->
      <g style="fill: #333333" transform="translate(65.020938 81.230229) scale(0.035 -0.035)">
       <defs>
        <path id="Helvetica-54" d="M 3828 4591 
L 3828 4044 
L 2281 4044 
L 2281 0 
L 1650 0 
L 1650 4044 
L 103 4044 
L 103 4591 
L 3828 4591 
z
" transform="scale(0.015625)"/>
        <path id="Helvetica-48" d="M 503 4591 
L 1131 4591 
L 1131 2694 
L 3519 2694 
L 3519 4591 
L 4147 4591 
L 4147 0 
L 3519 0 
L 3519 2147 
L 1131 2147 
L 1131 0 
L 503 0 
L 503 4591 
z
" transform="scale(0.015625)"/>
        <path id="Helvetica-20" transform="scale(0.015625)"/>
        <path id="Helvetica-28" d="M 1894 4666 
Q 1403 3713 1256 3263 
Q 1034 2578 1034 1681 
Q 1034 775 1288 25 
Q 1444 -438 1903 -1306 
L 1525 -1306 
Q 1069 -594 959 -397 
Q 850 -200 722 138 
Q 547 600 478 1125 
Q 444 1397 444 1644 
Q 444 2569 734 3291 
Q 919 3750 1503 4666 
L 1894 4666 
z
" transform="scale(0.015625)"/>
        <path id="Helvetica-64" d="M 769 1634 
Q 769 1097 997 734 
Q 1225 372 1728 372 
Q 2119 372 2370 708 
Q 2622 1044 2622 1672 
Q 2622 2306 2362 2611 
Q 2103 2916 1722 2916 
Q 1297 2916 1033 2591 
Q 769 2266 769 1634 
z
M 1616 3406 
Q 2000 3406 2259 3244 
Q 2409 3150 2600 2916 
L 2600 4606 
L 3141 4606 
L 3141 0 
L 2634 0 
L 2634 466 
Q 2438 156 2169 18 
Q 1900 -119 1553 -119 
Q 994 -119 584 351 
Q 175 822 175 1603 
Q 175 2334 548 2870 
Q 922 3406 1616 3406 
z
" transform="scale(0.015625)"/>
        <path id="Helvetica-2013" d="M -16 2000 
L 3569 2000 
L 3569 1541 
L -16 1541 
L -16 2000 
z
" transform="scale(0.015625)"/>
        <path id="Helvetica-29" d="M 222 -1306 
Q 719 -338 863 106 
Q 1081 778 1081 1681 
Q 1081 2584 828 3334 
Q 672 3797 213 4666 
L 591 4666 
Q 1072 3897 1173 3717 
Q 1275 3538 1394 3222 
Q 1544 2831 1608 2450 
Q 1672 2069 1672 1716 
Q 1672 791 1378 66 
Q 1194 -400 613 -1306 
L 222 -1306 
z
" transform="scale(0.015625)"/>
       </defs>
       <use xlink:href="#Helvetica-54"/>
       <use xlink:href="#Helvetica-48" x="61.083984"/>
       <use xlink:href="#Helvetica-31" x="133.300781"/>
       <use xlink:href="#Helvetica-20" x="188.916016"/>
       <use xlink:href="#Helvetica-28" x="216.699219"/>
       <use xlink:href="#Helvetica-54" x="250"/>
       <use xlink:href="#Helvetica-64" x="311.083984"/>
       <use xlink:href="#Helvetica-54" x="366.699219"/>
       <use xlink:href="#Helvetica-2013" x="427.783203"/>
       <use xlink:href="#Helvetica-29" x="483.398438"/>
      </g>
     </g>
    </g>
    <g id="xtick_4">
     <g id="text_4">
      <!-- TH1 (TdT+) -->
      <g style="fill: #333333" transform="translate(90.594927 81.230229) scale(0.035 -0.035)">
       <defs>
        <path id="Helvetica-2b" d="M 288 1369 
L 288 1894 
L 1650 1894 
L 1650 3266 
L 2184 3266 
L 2184 1894 
L 3547 1894 
L 3547 1369 
L 2184 1369 
L 2184 0 
L 1650 0 
L 1650 1369 
L 288 1369 
z
" transform="scale(0.015625)"/>
       </defs>
       <use xlink:href="#Helvetica-54"/>
       <use xlink:href="#Helvetica-48" x="61.083984"/>
       <use xlink:href="#Helvetica-31" x="133.300781"/>
       <use xlink:href="#Helvetica-20" x="188.916016"/>
       <use xlink:href="#Helvetica-28" x="216.699219"/>
       <use xlink:href="#Helvetica-54" x="250"/>
       <use xlink:href="#Helvetica-64" x="311.083984"/>
       <use xlink:href="#Helvetica-54" x="366.699219"/>
       <use xlink:href="#Helvetica-2b" x="427.783203"/>
       <use xlink:href="#Helvetica-29" x="486.181641"/>
      </g>
     </g>
    </g>
    <g id="xtick_5">
     <g id="text_5">
      <!-- Immature TH1 -->
      <g style="fill: #333333" transform="translate(114.126339 81.204526) scale(0.035 -0.035)">
       <defs>
        <path id="Helvetica-6d" d="M 413 3347 
L 969 3347 
L 969 2872 
Q 1169 3119 1331 3231 
Q 1609 3422 1963 3422 
Q 2363 3422 2606 3225 
Q 2744 3113 2856 2894 
Q 3044 3163 3297 3292 
Q 3550 3422 3866 3422 
Q 4541 3422 4784 2934 
Q 4916 2672 4916 2228 
L 4916 0 
L 4331 0 
L 4331 2325 
Q 4331 2659 4164 2784 
Q 3997 2909 3756 2909 
Q 3425 2909 3186 2687 
Q 2947 2466 2947 1947 
L 2947 0 
L 2375 0 
L 2375 2184 
Q 2375 2525 2294 2681 
Q 2166 2916 1816 2916 
Q 1497 2916 1236 2669 
Q 975 2422 975 1775 
L 975 0 
L 413 0 
L 413 3347 
z
" transform="scale(0.015625)"/>
        <path id="Helvetica-61" d="M 844 891 
Q 844 647 1022 506 
Q 1200 366 1444 366 
Q 1741 366 2019 503 
Q 2488 731 2488 1250 
L 2488 1703 
Q 2384 1638 2221 1594 
Q 2059 1550 1903 1531 
L 1563 1488 
Q 1256 1447 1103 1359 
Q 844 1213 844 891 
z
M 2206 2028 
Q 2400 2053 2466 2191 
Q 2503 2266 2503 2406 
Q 2503 2694 2298 2823 
Q 2094 2953 1713 2953 
Q 1272 2953 1088 2716 
Q 984 2584 953 2325 
L 428 2325 
Q 444 2944 830 3186 
Q 1216 3428 1725 3428 
Q 2316 3428 2684 3203 
Q 3050 2978 3050 2503 
L 3050 575 
Q 3050 488 3086 434 
Q 3122 381 3238 381 
Q 3275 381 3322 386 
Q 3369 391 3422 400 
L 3422 -16 
Q 3291 -53 3222 -62 
Q 3153 -72 3034 -72 
Q 2744 -72 2613 134 
Q 2544 244 2516 444 
Q 2344 219 2022 53 
Q 1700 -113 1313 -113 
Q 847 -113 551 170 
Q 256 453 256 878 
Q 256 1344 547 1600 
Q 838 1856 1309 1916 
L 2206 2028 
z
M 1741 3428 
L 1741 3428 
z
" transform="scale(0.015625)"/>
        <path id="Helvetica-74" d="M 525 4281 
L 1094 4281 
L 1094 3347 
L 1628 3347 
L 1628 2888 
L 1094 2888 
L 1094 703 
Q 1094 528 1213 469 
Q 1278 434 1431 434 
Q 1472 434 1519 436 
Q 1566 438 1628 444 
L 1628 0 
Q 1531 -28 1426 -40 
Q 1322 -53 1200 -53 
Q 806 -53 665 148 
Q 525 350 525 672 
L 525 2888 
L 72 2888 
L 72 3347 
L 525 3347 
L 525 4281 
z
" transform="scale(0.015625)"/>
        <path id="Helvetica-75" d="M 975 3347 
L 975 1125 
Q 975 869 1056 706 
Q 1206 406 1616 406 
Q 2203 406 2416 931 
Q 2531 1213 2531 1703 
L 2531 3347 
L 3094 3347 
L 3094 0 
L 2563 0 
L 2569 494 
Q 2459 303 2297 172 
Q 1975 -91 1516 -91 
Q 800 -91 541 388 
Q 400 644 400 1072 
L 400 3347 
L 975 3347 
z
M 1747 3428 
L 1747 3428 
z
" transform="scale(0.015625)"/>
        <path id="Helvetica-72" d="M 428 3347 
L 963 3347 
L 963 2769 
Q 1028 2938 1284 3180 
Q 1541 3422 1875 3422 
Q 1891 3422 1928 3419 
Q 1966 3416 2056 3406 
L 2056 2813 
Q 2006 2822 1964 2825 
Q 1922 2828 1872 2828 
Q 1447 2828 1219 2554 
Q 991 2281 991 1925 
L 991 0 
L 428 0 
L 428 3347 
z
" transform="scale(0.015625)"/>
       </defs>
       <use xlink:href="#Helvetica-49"/>
       <use xlink:href="#Helvetica-6d" x="27.783203"/>
       <use xlink:href="#Helvetica-6d" x="111.083984"/>
       <use xlink:href="#Helvetica-61" x="194.384766"/>
       <use xlink:href="#Helvetica-74" x="250"/>
       <use xlink:href="#Helvetica-75" x="277.783203"/>
       <use xlink:href="#Helvetica-72" x="333.398438"/>
       <use xlink:href="#Helvetica-65" x="366.699219"/>
       <use xlink:href="#Helvetica-20" x="422.314453"/>
       <use xlink:href="#Helvetica-54" x="450.097656"/>
       <use xlink:href="#Helvetica-48" x="511.181641"/>
       <use xlink:href="#Helvetica-31" x="583.398438"/>
      </g>
     </g>
    </g>
   </g>
   <g id="matplotlib.axis_2">
    <g id="ytick_1">
     <g id="line2d_1">
      <defs>
       <path id="m255a1bc5bb" d="M 0 0 
L -1 0 
" style="stroke: #777777; stroke-width: 0.5"/>
      </defs>
      <g>
       <use xlink:href="#m255a1bc5bb" x="10.005084" y="65.488978" style="fill: #777777; stroke: #777777; stroke-width: 0.5"/>
      </g>
     </g>
     <g id="text_6">
      <!-- 0 -->
      <g style="fill: #333333" transform="translate(6.336803 66.564993) scale(0.03 -0.03)">
       <defs>
        <path id="Helvetica-30" d="M 1731 4475 
Q 2600 4475 2988 3759 
Q 3288 3206 3288 2244 
Q 3288 1331 3016 734 
Q 2622 -122 1728 -122 
Q 922 -122 528 578 
Q 200 1163 200 2147 
Q 200 2909 397 3456 
Q 766 4475 1731 4475 
z
M 1725 391 
Q 2163 391 2422 778 
Q 2681 1166 2681 2222 
Q 2681 2984 2493 3476 
Q 2306 3969 1766 3969 
Q 1269 3969 1039 3501 
Q 809 3034 809 2125 
Q 809 1441 956 1025 
Q 1181 391 1725 391 
z
" transform="scale(0.015625)"/>
       </defs>
       <use xlink:href="#Helvetica-30"/>
      </g>
     </g>
    </g>
    <g id="ytick_2">
     <g id="line2d_2">
      <g>
       <use xlink:href="#m255a1bc5bb" x="10.005084" y="50.135797" style="fill: #777777; stroke: #777777; stroke-width: 0.5"/>
      </g>
     </g>
     <g id="text_7">
      <!-- 50 -->
      <g style="fill: #333333" transform="translate(4.668521 51.211813) scale(0.03 -0.03)">
       <defs>
        <path id="Helvetica-35" d="M 791 1141 
Q 847 659 1238 475 
Q 1438 381 1700 381 
Q 2200 381 2440 700 
Q 2681 1019 2681 1406 
Q 2681 1875 2395 2131 
Q 2109 2388 1709 2388 
Q 1419 2388 1211 2275 
Q 1003 2163 856 1963 
L 369 1991 
L 709 4400 
L 3034 4400 
L 3034 3856 
L 1131 3856 
L 941 2613 
Q 1097 2731 1238 2791 
Q 1488 2894 1816 2894 
Q 2431 2894 2859 2497 
Q 3288 2100 3288 1491 
Q 3288 856 2895 371 
Q 2503 -113 1644 -113 
Q 1097 -113 676 195 
Q 256 503 206 1141 
L 791 1141 
z
" transform="scale(0.015625)"/>
       </defs>
       <use xlink:href="#Helvetica-35"/>
       <use xlink:href="#Helvetica-30" x="55.615234"/>
      </g>
     </g>
    </g>
    <g id="ytick_3">
     <g id="line2d_3">
      <g>
       <use xlink:href="#m255a1bc5bb" x="10.005084" y="34.782617" style="fill: #777777; stroke: #777777; stroke-width: 0.5"/>
      </g>
     </g>
     <g id="text_8">
      <!-- 100 -->
      <g style="fill: #333333" transform="translate(3.00024 35.858632) scale(0.03 -0.03)">
       <use xlink:href="#Helvetica-31"/>
       <use xlink:href="#Helvetica-30" x="55.615234"/>
       <use xlink:href="#Helvetica-30" x="111.230469"/>
      </g>
     </g>
    </g>
    <g id="ytick_4">
     <g id="line2d_4">
      <g>
       <use xlink:href="#m255a1bc5bb" x="10.005084" y="19.429436" style="fill: #777777; stroke: #777777; stroke-width: 0.5"/>
      </g>
     </g>
     <g id="text_9">
      <!-- 150 -->
      <g style="fill: #333333" transform="translate(3.00024 20.505452) scale(0.03 -0.03)">
       <use xlink:href="#Helvetica-31"/>
       <use xlink:href="#Helvetica-35" x="55.615234"/>
       <use xlink:href="#Helvetica-30" x="111.230469"/>
      </g>
     </g>
    </g>
    <g id="ytick_5">
     <g id="line2d_5">
      <g>
       <use xlink:href="#m255a1bc5bb" x="10.005084" y="4.076256" style="fill: #777777; stroke: #777777; stroke-width: 0.5"/>
      </g>
     </g>
     <g id="text_10">
      <!-- 200 -->
      <g style="fill: #333333" transform="translate(3.00024 5.152271) scale(0.03 -0.03)">
       <defs>
        <path id="Helvetica-32" d="M 200 0 
Q 231 578 439 1006 
Q 647 1434 1250 1784 
L 1850 2131 
Q 2253 2366 2416 2531 
Q 2672 2791 2672 3125 
Q 2672 3516 2437 3745 
Q 2203 3975 1813 3975 
Q 1234 3975 1013 3538 
Q 894 3303 881 2888 
L 309 2888 
Q 319 3472 525 3841 
Q 891 4491 1816 4491 
Q 2584 4491 2939 4075 
Q 3294 3659 3294 3150 
Q 3294 2613 2916 2231 
Q 2697 2009 2131 1694 
L 1703 1456 
Q 1397 1288 1222 1134 
Q 909 863 828 531 
L 3272 531 
L 3272 0 
L 200 0 
z
" transform="scale(0.015625)"/>
       </defs>
       <use xlink:href="#Helvetica-32"/>
       <use xlink:href="#Helvetica-30" x="55.615234"/>
       <use xlink:href="#Helvetica-30" x="111.230469"/>
      </g>
     </g>
    </g>
   </g>
   <g id="PolyCollection_1">
    <defs>
     <path id="mb17dc7b6a3" d="M 24.729797 -19.421193 
L 20.903306 -19.421193 
L 20.586872 -19.425395 
L 20.239376 -19.429597 
L 19.861832 -19.433799 
L 19.456051 -19.438 
L 19.024669 -19.442202 
L 18.571134 -19.446404 
L 18.099663 -19.450606 
L 17.615164 -19.454808 
L 17.123127 -19.459009 
L 16.629489 -19.463211 
L 16.14047 -19.467413 
L 15.662408 -19.471615 
L 15.201573 -19.475816 
L 14.764 -19.480018 
L 14.355318 -19.48422 
L 13.980611 -19.488422 
L 13.644293 -19.492624 
L 13.350019 -19.496825 
L 13.100623 -19.501027 
L 12.898091 -19.505229 
L 12.74356 -19.509431 
L 12.637347 -19.513633 
L 12.579001 -19.517834 
L 12.567377 -19.522036 
L 12.600718 -19.526238 
L 12.676754 -19.53044 
L 12.792802 -19.534642 
L 12.945867 -19.538843 
L 13.132743 -19.543045 
L 13.35011 -19.547247 
L 13.594613 -19.551449 
L 13.86294 -19.555651 
L 14.151882 -19.559852 
L 14.458376 -19.564054 
L 14.779535 -19.568256 
L 15.11266 -19.572458 
L 15.455232 -19.57666 
L 15.804894 -19.580861 
L 16.159412 -19.585063 
L 16.516634 -19.589265 
L 16.874435 -19.593467 
L 17.23066 -19.597669 
L 17.583073 -19.60187 
L 17.929308 -19.606072 
L 18.266829 -19.610274 
L 18.592905 -19.614476 
L 18.9046 -19.618678 
L 19.198784 -19.622879 
L 19.472152 -19.627081 
L 19.721269 -19.631283 
L 19.942625 -19.635485 
L 20.132714 -19.639686 
L 20.288109 -19.643888 
L 20.405568 -19.64809 
L 20.48213 -19.652292 
L 20.515226 -19.656494 
L 20.502792 -19.660695 
L 20.443379 -19.664897 
L 20.336264 -19.669099 
L 20.181546 -19.673301 
L 19.980243 -19.677503 
L 19.734356 -19.681704 
L 19.446927 -19.685906 
L 19.122058 -19.690108 
L 18.764901 -19.69431 
L 18.381616 -19.698512 
L 17.979283 -19.702713 
L 17.565776 -19.706915 
L 17.149595 -19.711117 
L 16.739667 -19.715319 
L 16.345106 -19.719521 
L 15.974959 -19.723722 
L 15.637935 -19.727924 
L 15.342135 -19.732126 
L 15.094789 -19.736328 
L 14.902022 -19.74053 
L 14.768652 -19.744731 
L 14.698035 -19.748933 
L 14.691964 -19.753135 
L 14.750622 -19.757337 
L 14.872604 -19.761539 
L 15.054991 -19.76574 
L 15.293485 -19.769942 
L 15.58258 -19.774144 
L 15.915791 -19.778346 
L 16.285889 -19.782548 
L 16.685168 -19.786749 
L 17.105704 -19.790951 
L 17.53961 -19.795153 
L 17.979271 -19.799355 
L 18.417552 -19.803556 
L 18.84797 -19.807758 
L 19.264826 -19.81196 
L 19.663297 -19.816162 
L 20.039488 -19.820364 
L 20.390443 -19.824565 
L 20.714119 -19.828767 
L 21.009337 -19.832969 
L 21.275698 -19.837171 
L 24.357405 -19.837171 
L 24.357405 -19.837171 
L 24.623766 -19.832969 
L 24.918984 -19.828767 
L 25.24266 -19.824565 
L 25.593615 -19.820364 
L 25.969806 -19.816162 
L 26.368277 -19.81196 
L 26.785133 -19.807758 
L 27.215551 -19.803556 
L 27.653832 -19.799355 
L 28.093493 -19.795153 
L 28.527399 -19.790951 
L 28.947934 -19.786749 
L 29.347213 -19.782548 
L 29.717312 -19.778346 
L 30.050523 -19.774144 
L 30.339618 -19.769942 
L 30.578111 -19.76574 
L 30.760499 -19.761539 
L 30.882481 -19.757337 
L 30.941139 -19.753135 
L 30.935067 -19.748933 
L 30.864451 -19.744731 
L 30.731081 -19.74053 
L 30.538314 -19.736328 
L 30.290968 -19.732126 
L 29.995168 -19.727924 
L 29.658144 -19.723722 
L 29.287997 -19.719521 
L 28.893436 -19.715319 
L 28.483507 -19.711117 
L 28.067327 -19.706915 
L 27.65382 -19.702713 
L 27.251487 -19.698512 
L 26.868202 -19.69431 
L 26.511045 -19.690108 
L 26.186175 -19.685906 
L 25.898746 -19.681704 
L 25.65286 -19.677503 
L 25.451557 -19.673301 
L 25.296839 -19.669099 
L 25.189723 -19.664897 
L 25.130311 -19.660695 
L 25.117877 -19.656494 
L 25.150973 -19.652292 
L 25.227534 -19.64809 
L 25.344994 -19.643888 
L 25.500389 -19.639686 
L 25.690477 -19.635485 
L 25.911834 -19.631283 
L 26.16095 -19.627081 
L 26.434318 -19.622879 
L 26.728502 -19.618678 
L 27.040198 -19.614476 
L 27.366274 -19.610274 
L 27.703794 -19.606072 
L 28.050029 -19.60187 
L 28.402443 -19.597669 
L 28.758668 -19.593467 
L 29.116469 -19.589265 
L 29.473691 -19.585063 
L 29.828209 -19.580861 
L 30.17787 -19.57666 
L 30.520443 -19.572458 
L 30.853567 -19.568256 
L 31.174727 -19.564054 
L 31.481221 -19.559852 
L 31.770162 -19.555651 
L 32.03849 -19.551449 
L 32.282993 -19.547247 
L 32.500359 -19.543045 
L 32.687236 -19.538843 
L 32.840301 -19.534642 
L 32.956348 -19.53044 
L 33.032384 -19.526238 
L 33.065725 -19.522036 
L 33.054101 -19.517834 
L 32.995756 -19.513633 
L 32.889543 -19.509431 
L 32.735011 -19.505229 
L 32.53248 -19.501027 
L 32.283084 -19.496825 
L 31.98881 -19.492624 
L 31.652492 -19.488422 
L 31.277785 -19.48422 
L 30.869103 -19.480018 
L 30.431529 -19.475816 
L 29.970695 -19.471615 
L 29.492632 -19.467413 
L 29.003614 -19.463211 
L 28.509976 -19.459009 
L 28.017939 -19.454808 
L 27.53344 -19.450606 
L 27.061969 -19.446404 
L 26.608434 -19.442202 
L 26.177052 -19.438 
L 25.771271 -19.433799 
L 25.393727 -19.429597 
L 25.046231 -19.425395 
L 24.729797 -19.421193 
z
" style="stroke: #6f6f6f; stroke-width: 0.15"/>
    </defs>
    <g clip-path="url(#pdc201fe7ad)">
     <use xlink:href="#mb17dc7b6a3" x="0" y="84.96" style="fill: #98daa7; stroke: #6f6f6f; stroke-width: 0.15"/>
    </g>
   </g>
   <g id="PolyCollection_2">
    <defs>
     <path id="m2a611a4d72" d="M 50.353877 -17.668442 
L 46.525096 -17.668442 
L 46.215373 -17.794044 
L 45.87879 -17.919646 
L 45.517678 -18.045248 
L 45.135338 -18.17085 
L 44.736026 -18.296452 
L 44.324882 -18.422054 
L 43.907802 -18.547655 
L 43.491257 -18.673257 
L 43.082056 -18.798859 
L 42.687071 -18.924461 
L 42.312931 -19.050063 
L 41.965697 -19.175665 
L 41.650548 -19.301267 
L 41.37149 -19.426869 
L 41.13111 -19.552471 
L 40.930395 -19.678073 
L 40.768634 -19.803674 
L 40.643408 -19.929276 
L 40.550678 -20.054878 
L 40.484975 -20.18048 
L 40.439674 -20.306082 
L 40.407351 -20.431684 
L 40.380191 -20.557286 
L 40.350441 -20.682888 
L 40.31086 -20.80849 
L 40.255156 -20.934092 
L 40.178378 -21.059694 
L 40.077236 -21.185295 
L 39.950328 -21.310897 
L 39.798271 -21.436499 
L 39.62371 -21.562101 
L 39.431224 -21.687703 
L 39.227117 -21.813305 
L 39.019121 -21.938907 
L 38.816019 -22.064509 
L 38.627218 -22.190111 
L 38.462287 -22.315713 
L 38.330493 -22.441314 
L 38.240362 -22.566916 
L 38.199272 -22.692518 
L 38.213125 -22.81812 
L 38.286073 -22.943722 
L 38.420351 -23.069324 
L 38.616186 -23.194926 
L 38.871796 -23.320528 
L 39.183477 -23.44613 
L 39.545754 -23.571732 
L 39.951597 -23.697334 
L 40.39268 -23.822935 
L 40.859669 -23.948537 
L 41.342517 -24.074139 
L 41.830773 -24.199741 
L 42.313862 -24.325343 
L 42.781353 -24.450945 
L 43.223199 -24.576547 
L 43.62994 -24.702149 
L 43.992881 -24.827751 
L 44.304234 -24.953353 
L 44.557243 -25.078954 
L 44.746279 -25.204556 
L 44.866929 -25.330158 
L 44.916066 -25.45576 
L 44.891923 -25.581362 
L 44.794151 -25.706964 
L 44.623877 -25.832566 
L 44.383754 -25.958168 
L 44.07799 -26.08377 
L 43.712359 -26.209372 
L 43.29418 -26.334974 
L 42.832254 -26.460575 
L 42.336755 -26.586177 
L 41.81906 -26.711779 
L 41.291527 -26.837381 
L 40.767211 -26.962983 
L 40.259527 -27.088585 
L 39.78187 -27.214187 
L 39.347204 -27.339789 
L 38.967637 -27.465391 
L 38.654006 -27.590993 
L 38.415493 -27.716594 
L 38.259284 -27.842196 
L 38.190313 -27.967798 
L 38.211076 -28.0934 
L 38.321562 -28.219002 
L 38.519274 -28.344604 
L 38.799361 -28.470206 
L 39.154848 -28.595808 
L 39.576948 -28.72141 
L 40.055443 -28.847012 
L 40.579105 -28.972614 
L 41.136149 -29.098215 
L 41.714674 -29.223817 
L 42.303083 -29.349419 
L 42.890465 -29.475021 
L 43.466906 -29.600623 
L 44.023736 -29.726225 
L 44.553701 -29.851827 
L 45.051051 -29.977429 
L 45.51156 -30.103031 
L 51.367413 -30.103031 
L 51.367413 -30.103031 
L 51.827922 -29.977429 
L 52.325272 -29.851827 
L 52.855237 -29.726225 
L 53.412067 -29.600623 
L 53.988508 -29.475021 
L 54.57589 -29.349419 
L 55.1643 -29.223817 
L 55.742824 -29.098215 
L 56.299868 -28.972614 
L 56.82353 -28.847012 
L 57.302025 -28.72141 
L 57.724125 -28.595808 
L 58.079612 -28.470206 
L 58.359699 -28.344604 
L 58.557411 -28.219002 
L 58.667897 -28.0934 
L 58.688661 -27.967798 
L 58.619689 -27.842196 
L 58.46348 -27.716594 
L 58.224967 -27.590993 
L 57.911336 -27.465391 
L 57.531769 -27.339789 
L 57.097103 -27.214187 
L 56.619446 -27.088585 
L 56.111763 -26.962983 
L 55.587447 -26.837381 
L 55.059913 -26.711779 
L 54.542218 -26.586177 
L 54.046719 -26.460575 
L 53.584794 -26.334974 
L 53.166615 -26.209372 
L 52.800984 -26.08377 
L 52.495219 -25.958168 
L 52.255096 -25.832566 
L 52.084822 -25.706964 
L 51.98705 -25.581362 
L 51.962907 -25.45576 
L 52.012044 -25.330158 
L 52.132694 -25.204556 
L 52.32173 -25.078954 
L 52.574739 -24.953353 
L 52.886092 -24.827751 
L 53.249033 -24.702149 
L 53.655774 -24.576547 
L 54.09762 -24.450945 
L 54.565111 -24.325343 
L 55.0482 -24.199741 
L 55.536456 -24.074139 
L 56.019305 -23.948537 
L 56.486293 -23.822935 
L 56.927376 -23.697334 
L 57.33322 -23.571732 
L 57.695496 -23.44613 
L 58.007177 -23.320528 
L 58.262787 -23.194926 
L 58.458622 -23.069324 
L 58.5929 -22.943722 
L 58.665849 -22.81812 
L 58.679701 -22.692518 
L 58.638612 -22.566916 
L 58.54848 -22.441314 
L 58.416686 -22.315713 
L 58.251755 -22.190111 
L 58.062954 -22.064509 
L 57.859853 -21.938907 
L 57.651856 -21.813305 
L 57.447749 -21.687703 
L 57.255263 -21.562101 
L 57.080702 -21.436499 
L 56.928645 -21.310897 
L 56.801737 -21.185295 
L 56.700595 -21.059694 
L 56.623818 -20.934092 
L 56.568114 -20.80849 
L 56.528532 -20.682888 
L 56.498782 -20.557286 
L 56.471623 -20.431684 
L 56.439299 -20.306082 
L 56.393998 -20.18048 
L 56.328295 -20.054878 
L 56.235565 -19.929276 
L 56.110339 -19.803674 
L 55.948578 -19.678073 
L 55.747863 -19.552471 
L 55.507483 -19.426869 
L 55.228425 -19.301267 
L 54.913276 -19.175665 
L 54.566042 -19.050063 
L 54.191902 -18.924461 
L 53.796918 -18.798859 
L 53.387716 -18.673257 
L 52.971171 -18.547655 
L 52.554091 -18.422054 
L 52.142947 -18.296452 
L 51.743635 -18.17085 
L 51.361296 -18.045248 
L 51.000183 -17.919646 
L 50.6636 -17.794044 
L 50.353877 -17.668442 
z
" style="stroke: #6f6f6f; stroke-width: 0.15"/>
    </defs>
    <g clip-path="url(#pdc201fe7ad)">
     <use xlink:href="#m2a611a4d72" x="0" y="84.96" style="fill: #f2aba8; stroke: #6f6f6f; stroke-width: 0.15"/>
    </g>
   </g>
   <g id="PolyCollection_3">
    <defs>
     <path id="meb5e4dbb17" d="M 76.243713 -18.58235 
L 71.881131 -18.58235 
L 71.441877 -18.65066 
L 70.950609 -18.71897 
L 70.409949 -18.78728 
L 69.824827 -18.85559 
L 69.202627 -18.9239 
L 68.553209 -18.99221 
L 67.888786 -19.06052 
L 67.223637 -19.12883 
L 66.573666 -19.19714 
L 65.955814 -19.26545 
L 65.387347 -19.33376 
L 64.885073 -19.40207 
L 64.46452 -19.470381 
L 64.139145 -19.538691 
L 63.919619 -19.607001 
L 63.813248 -19.675311 
L 63.82357 -19.743621 
L 63.950162 -19.811931 
L 64.188666 -19.880241 
L 64.531037 -19.948551 
L 64.965997 -20.016861 
L 65.479643 -20.085171 
L 66.056188 -20.153481 
L 66.678753 -20.221791 
L 67.330182 -20.290101 
L 67.993805 -20.358411 
L 68.65411 -20.426721 
L 69.2973 -20.495031 
L 69.911691 -20.563341 
L 70.487955 -20.631651 
L 71.019217 -20.699961 
L 71.501 -20.768271 
L 71.931058 -20.836582 
L 72.30912 -20.904892 
L 72.636571 -20.973202 
L 72.916103 -21.041512 
L 73.151364 -21.109822 
L 73.346624 -21.178132 
L 73.506475 -21.246442 
L 73.635577 -21.314752 
L 73.738459 -21.383062 
L 73.819365 -21.451372 
L 73.882159 -21.519682 
L 73.930262 -21.587992 
L 73.966631 -21.656302 
L 73.993771 -21.724612 
L 74.013751 -21.792922 
L 74.028253 -21.861232 
L 74.038613 -21.929542 
L 74.04587 -21.997852 
L 74.050808 -22.066162 
L 74.054007 -22.134472 
L 74.05587 -22.202783 
L 74.056654 -22.271093 
L 74.056495 -22.339403 
L 74.055422 -22.407713 
L 74.053366 -22.476023 
L 74.050168 -22.544333 
L 74.045578 -22.612643 
L 74.039256 -22.680953 
L 74.03077 -22.749263 
L 74.019601 -22.817573 
L 74.005141 -22.885883 
L 73.986706 -22.954193 
L 73.963553 -23.022503 
L 73.934902 -23.090813 
L 73.899972 -23.159123 
L 73.858025 -23.227433 
L 73.808421 -23.295743 
L 73.750673 -23.364053 
L 73.68452 -23.432363 
L 73.609985 -23.500673 
L 73.527436 -23.568983 
L 73.437636 -23.637294 
L 73.341771 -23.705604 
L 73.241458 -23.773914 
L 73.138729 -23.842224 
L 73.035977 -23.910534 
L 72.935876 -23.978844 
L 72.841277 -24.047154 
L 72.755078 -24.115464 
L 72.680073 -24.183774 
L 72.618812 -24.252084 
L 72.573447 -24.320394 
L 72.545618 -24.388704 
L 72.536345 -24.457014 
L 72.545972 -24.525324 
L 72.574142 -24.593634 
L 72.619822 -24.661944 
L 72.681363 -24.730254 
L 72.756603 -24.798564 
L 72.842986 -24.866874 
L 72.937715 -24.935184 
L 73.037891 -25.003495 
L 73.140667 -25.071805 
L 73.243372 -25.140115 
L 73.343618 -25.208425 
L 73.439383 -25.276735 
L 73.529057 -25.345045 
L 74.595787 -25.345045 
L 74.595787 -25.345045 
L 74.68546 -25.276735 
L 74.781225 -25.208425 
L 74.881472 -25.140115 
L 74.984176 -25.071805 
L 75.086953 -25.003495 
L 75.187129 -24.935184 
L 75.281858 -24.866874 
L 75.368241 -24.798564 
L 75.44348 -24.730254 
L 75.505022 -24.661944 
L 75.550702 -24.593634 
L 75.578872 -24.525324 
L 75.588498 -24.457014 
L 75.579226 -24.388704 
L 75.551396 -24.320394 
L 75.506032 -24.252084 
L 75.44477 -24.183774 
L 75.369766 -24.115464 
L 75.283566 -24.047154 
L 75.188968 -23.978844 
L 75.088867 -23.910534 
L 74.986114 -23.842224 
L 74.883385 -23.773914 
L 74.783073 -23.705604 
L 74.687208 -23.637294 
L 74.597408 -23.568983 
L 74.514859 -23.500673 
L 74.440323 -23.432363 
L 74.374171 -23.364053 
L 74.316423 -23.295743 
L 74.266818 -23.227433 
L 74.224872 -23.159123 
L 74.189942 -23.090813 
L 74.161291 -23.022503 
L 74.138138 -22.954193 
L 74.119703 -22.885883 
L 74.105243 -22.817573 
L 74.094074 -22.749263 
L 74.085588 -22.680953 
L 74.079266 -22.612643 
L 74.074675 -22.544333 
L 74.071477 -22.476023 
L 74.069422 -22.407713 
L 74.068349 -22.339403 
L 74.06819 -22.271093 
L 74.068974 -22.202783 
L 74.070836 -22.134472 
L 74.074035 -22.066162 
L 74.078974 -21.997852 
L 74.08623 -21.929542 
L 74.09659 -21.861232 
L 74.111093 -21.792922 
L 74.131073 -21.724612 
L 74.158212 -21.656302 
L 74.194582 -21.587992 
L 74.242685 -21.519682 
L 74.305479 -21.451372 
L 74.386385 -21.383062 
L 74.489267 -21.314752 
L 74.618369 -21.246442 
L 74.778219 -21.178132 
L 74.97348 -21.109822 
L 75.208741 -21.041512 
L 75.488273 -20.973202 
L 75.815724 -20.904892 
L 76.193786 -20.836582 
L 76.623844 -20.768271 
L 77.105626 -20.699961 
L 77.636888 -20.631651 
L 78.213153 -20.563341 
L 78.827543 -20.495031 
L 79.470734 -20.426721 
L 80.131039 -20.358411 
L 80.794661 -20.290101 
L 81.446091 -20.221791 
L 82.068656 -20.153481 
L 82.6452 -20.085171 
L 83.158847 -20.016861 
L 83.593807 -19.948551 
L 83.936178 -19.880241 
L 84.174682 -19.811931 
L 84.301274 -19.743621 
L 84.311596 -19.675311 
L 84.205225 -19.607001 
L 83.985699 -19.538691 
L 83.660324 -19.470381 
L 83.239771 -19.40207 
L 82.737496 -19.33376 
L 82.16903 -19.26545 
L 81.551177 -19.19714 
L 80.901207 -19.12883 
L 80.236058 -19.06052 
L 79.571635 -18.99221 
L 78.922217 -18.9239 
L 78.300017 -18.85559 
L 77.714895 -18.78728 
L 77.174235 -18.71897 
L 76.682966 -18.65066 
L 76.243713 -18.58235 
z
" style="stroke: #6f6f6f; stroke-width: 0.15"/>
    </defs>
    <g clip-path="url(#pdc201fe7ad)">
     <use xlink:href="#meb5e4dbb17" x="0" y="84.96" style="fill: #eab390; stroke: #6f6f6f; stroke-width: 0.15"/>
    </g>
   </g>
   <g id="PolyCollection_4">
    <defs>
     <path id="mb88256df91" d="M 102.605176 -19.447848 
L 96.765538 -19.447848 
L 96.270699 -19.449602 
L 95.737302 -19.451356 
L 95.171854 -19.45311 
L 94.582691 -19.454863 
L 93.979751 -19.456617 
L 93.374225 -19.458371 
L 92.778088 -19.460125 
L 92.20355 -19.461879 
L 91.662458 -19.463633 
L 91.165688 -19.465387 
L 90.722595 -19.467141 
L 90.340543 -19.468894 
L 90.024573 -19.470648 
L 89.777231 -19.472402 
L 89.598568 -19.474156 
L 89.486311 -19.47591 
L 89.436183 -19.477664 
L 89.442337 -19.479418 
L 89.497857 -19.481172 
L 89.595286 -19.482926 
L 89.727112 -19.484679 
L 89.886189 -19.486433 
L 90.066056 -19.488187 
L 90.261127 -19.489941 
L 90.466764 -19.491695 
L 90.679243 -19.493449 
L 90.89563 -19.495203 
L 91.113608 -19.496957 
L 91.331287 -19.49871 
L 91.547028 -19.500464 
L 91.759308 -19.502218 
L 91.966645 -19.503972 
L 92.16759 -19.505726 
L 92.360771 -19.50748 
L 92.544997 -19.509234 
L 92.719383 -19.510988 
L 92.88348 -19.512741 
L 93.0374 -19.514495 
L 93.181892 -19.516249 
L 93.31838 -19.518003 
L 93.448943 -19.519757 
L 93.576232 -19.521511 
L 93.703342 -19.523265 
L 93.833638 -19.525019 
L 93.970553 -19.526773 
L 94.117376 -19.528526 
L 94.277039 -19.53028 
L 94.451928 -19.532034 
L 94.643719 -19.533788 
L 94.853257 -19.535542 
L 95.080488 -19.537296 
L 95.324437 -19.53905 
L 95.583232 -19.540804 
L 95.854189 -19.542557 
L 96.13392 -19.544311 
L 96.418487 -19.546065 
L 96.703565 -19.547819 
L 96.984624 -19.549573 
L 97.257096 -19.551327 
L 97.516548 -19.553081 
L 97.758812 -19.554835 
L 97.98011 -19.556588 
L 98.177141 -19.558342 
L 98.347136 -19.560096 
L 98.487901 -19.56185 
L 98.597831 -19.563604 
L 98.675916 -19.565358 
L 98.721744 -19.567112 
L 98.735499 -19.568866 
L 98.717965 -19.57062 
L 98.670538 -19.572373 
L 98.595238 -19.574127 
L 98.494717 -19.575881 
L 98.372265 -19.577635 
L 98.231796 -19.579389 
L 98.077805 -19.581143 
L 97.915297 -19.582897 
L 97.749678 -19.584651 
L 97.586606 -19.586404 
L 97.43181 -19.588158 
L 97.290872 -19.589912 
L 97.169009 -19.591666 
L 97.070834 -19.59342 
L 97.000151 -19.595174 
L 96.959768 -19.596928 
L 96.951364 -19.598682 
L 96.975416 -19.600435 
L 97.031186 -19.602189 
L 97.116783 -19.603943 
L 97.229285 -19.605697 
L 97.364916 -19.607451 
L 97.519265 -19.609205 
L 97.687531 -19.610959 
L 97.86477 -19.612713 
L 98.046137 -19.614467 
L 98.227099 -19.61622 
L 98.403611 -19.617974 
L 98.572241 -19.619728 
L 98.730257 -19.621482 
L 100.640457 -19.621482 
L 100.640457 -19.621482 
L 100.798473 -19.619728 
L 100.967103 -19.617974 
L 101.143615 -19.61622 
L 101.324577 -19.614467 
L 101.505945 -19.612713 
L 101.683184 -19.610959 
L 101.851449 -19.609205 
L 102.005798 -19.607451 
L 102.141429 -19.605697 
L 102.253931 -19.603943 
L 102.339528 -19.602189 
L 102.395298 -19.600435 
L 102.41935 -19.598682 
L 102.410946 -19.596928 
L 102.370563 -19.595174 
L 102.29988 -19.59342 
L 102.201706 -19.591666 
L 102.079842 -19.589912 
L 101.938905 -19.588158 
L 101.784108 -19.586404 
L 101.621037 -19.584651 
L 101.455418 -19.582897 
L 101.292909 -19.581143 
L 101.138918 -19.579389 
L 100.998449 -19.577635 
L 100.875998 -19.575881 
L 100.775476 -19.574127 
L 100.700176 -19.572373 
L 100.652749 -19.57062 
L 100.635215 -19.568866 
L 100.64897 -19.567112 
L 100.694798 -19.565358 
L 100.772884 -19.563604 
L 100.882813 -19.56185 
L 101.023578 -19.560096 
L 101.193573 -19.558342 
L 101.390604 -19.556588 
L 101.611903 -19.554835 
L 101.854167 -19.553081 
L 102.113618 -19.551327 
L 102.386091 -19.549573 
L 102.667149 -19.547819 
L 102.952228 -19.546065 
L 103.236794 -19.544311 
L 103.516526 -19.542557 
L 103.787482 -19.540804 
L 104.046278 -19.53905 
L 104.290226 -19.537296 
L 104.517458 -19.535542 
L 104.726996 -19.533788 
L 104.918786 -19.532034 
L 105.093675 -19.53028 
L 105.253338 -19.528526 
L 105.400161 -19.526773 
L 105.537077 -19.525019 
L 105.667372 -19.523265 
L 105.794482 -19.521511 
L 105.921771 -19.519757 
L 106.052334 -19.518003 
L 106.188822 -19.516249 
L 106.333314 -19.514495 
L 106.487234 -19.512741 
L 106.651331 -19.510988 
L 106.825717 -19.509234 
L 107.009943 -19.50748 
L 107.203124 -19.505726 
L 107.404069 -19.503972 
L 107.611407 -19.502218 
L 107.823686 -19.500464 
L 108.039427 -19.49871 
L 108.257106 -19.496957 
L 108.475084 -19.495203 
L 108.691471 -19.493449 
L 108.90395 -19.491695 
L 109.109587 -19.489941 
L 109.304658 -19.488187 
L 109.484525 -19.486433 
L 109.643602 -19.484679 
L 109.775428 -19.482926 
L 109.872857 -19.481172 
L 109.928378 -19.479418 
L 109.934531 -19.477664 
L 109.884403 -19.47591 
L 109.772146 -19.474156 
L 109.593483 -19.472402 
L 109.346141 -19.470648 
L 109.030171 -19.468894 
L 108.648119 -19.467141 
L 108.205026 -19.465387 
L 107.708257 -19.463633 
L 107.167164 -19.461879 
L 106.592626 -19.460125 
L 105.996489 -19.458371 
L 105.390963 -19.456617 
L 104.788023 -19.454863 
L 104.19886 -19.45311 
L 103.633412 -19.451356 
L 103.100015 -19.449602 
L 102.605176 -19.447848 
z
" style="stroke: #6f6f6f; stroke-width: 0.15"/>
    </defs>
    <g clip-path="url(#pdc201fe7ad)">
     <use xlink:href="#mb88256df91" x="0" y="84.96" style="fill: #edbea0; stroke: #6f6f6f; stroke-width: 0.15"/>
    </g>
   </g>
   <g id="PolyCollection_5">
    <defs>
     <path id="mecfbbfe673" d="M 126.604523 -19.44691 
L 124.012061 -19.44691 
L 123.726793 -19.448809 
L 123.399308 -19.450709 
L 123.028312 -19.452609 
L 122.613628 -19.454508 
L 122.156391 -19.456408 
L 121.659202 -19.458307 
L 121.126237 -19.460207 
L 120.563288 -19.462106 
L 119.977737 -19.464006 
L 119.378455 -19.465905 
L 118.77562 -19.467805 
L 118.180461 -19.469704 
L 117.604934 -19.471604 
L 117.061345 -19.473503 
L 116.561932 -19.475403 
L 116.118416 -19.477302 
L 115.741556 -19.479202 
L 115.440717 -19.481102 
L 115.223472 -19.483001 
L 115.09526 -19.484901 
L 115.059118 -19.4868 
L 115.115506 -19.4887 
L 115.262227 -19.490599 
L 115.494461 -19.492499 
L 115.804918 -19.494398 
L 116.184095 -19.496298 
L 116.620641 -19.498197 
L 117.101815 -19.500097 
L 117.614011 -19.501996 
L 118.143324 -19.503896 
L 118.676138 -19.505796 
L 119.199688 -19.507695 
L 119.702582 -19.509595 
L 120.175234 -19.511494 
L 120.610201 -19.513394 
L 121.002388 -19.515293 
L 121.349125 -19.517193 
L 121.650101 -19.519092 
L 121.907175 -19.520992 
L 122.124067 -19.522891 
L 122.305968 -19.524791 
L 122.459082 -19.52669 
L 122.590146 -19.52859 
L 122.705959 -19.53049 
L 122.812949 -19.532389 
L 122.916801 -19.534289 
L 123.022179 -19.536188 
L 123.132544 -19.538088 
L 123.250073 -19.539987 
L 123.375676 -19.541887 
L 123.509105 -19.543786 
L 123.649126 -19.545686 
L 123.793736 -19.547585 
L 123.940407 -19.549485 
L 124.08633 -19.551384 
L 124.228639 -19.553284 
L 124.364595 -19.555184 
L 124.491737 -19.557083 
L 124.607969 -19.558983 
L 124.711607 -19.560882 
L 124.801376 -19.562782 
L 124.876376 -19.564681 
L 124.936019 -19.566581 
L 124.979959 -19.56848 
L 125.008015 -19.57038 
L 125.020112 -19.572279 
L 125.016236 -19.574179 
L 124.996415 -19.576078 
L 124.960733 -19.577978 
L 124.909365 -19.579877 
L 124.842638 -19.581777 
L 124.761113 -19.583677 
L 124.665672 -19.585576 
L 124.557598 -19.587476 
L 124.438652 -19.589375 
L 124.311115 -19.591275 
L 124.177793 -19.593174 
L 124.041992 -19.595074 
L 123.90743 -19.596973 
L 123.778118 -19.598873 
L 123.65819 -19.600772 
L 123.551711 -19.602672 
L 123.462467 -19.604571 
L 123.393748 -19.606471 
L 123.348164 -19.608371 
L 123.327479 -19.61027 
L 123.332508 -19.61217 
L 123.363061 -19.614069 
L 123.417963 -19.615969 
L 123.495126 -19.617868 
L 123.591682 -19.619768 
L 123.704164 -19.621667 
L 123.828707 -19.623567 
L 123.961272 -19.625466 
L 124.097858 -19.627366 
L 124.234694 -19.629265 
L 124.368405 -19.631165 
L 124.49613 -19.633065 
L 124.615596 -19.634964 
L 126.000989 -19.634964 
L 126.000989 -19.634964 
L 126.120455 -19.633065 
L 126.24818 -19.631165 
L 126.381891 -19.629265 
L 126.518727 -19.627366 
L 126.655312 -19.625466 
L 126.787877 -19.623567 
L 126.912421 -19.621667 
L 127.024903 -19.619768 
L 127.121459 -19.617868 
L 127.198622 -19.615969 
L 127.253524 -19.614069 
L 127.284077 -19.61217 
L 127.289105 -19.61027 
L 127.268421 -19.608371 
L 127.222836 -19.606471 
L 127.154118 -19.604571 
L 127.064874 -19.602672 
L 126.958395 -19.600772 
L 126.838467 -19.598873 
L 126.709155 -19.596973 
L 126.574593 -19.595074 
L 126.438792 -19.593174 
L 126.30547 -19.591275 
L 126.177932 -19.589375 
L 126.058987 -19.587476 
L 125.950913 -19.585576 
L 125.855471 -19.583677 
L 125.773947 -19.581777 
L 125.70722 -19.579877 
L 125.655851 -19.577978 
L 125.62017 -19.576078 
L 125.600349 -19.574179 
L 125.596473 -19.572279 
L 125.60857 -19.57038 
L 125.636626 -19.56848 
L 125.680566 -19.566581 
L 125.740209 -19.564681 
L 125.815209 -19.562782 
L 125.904978 -19.560882 
L 126.008615 -19.558983 
L 126.124847 -19.557083 
L 126.251989 -19.555184 
L 126.387946 -19.553284 
L 126.530254 -19.551384 
L 126.676178 -19.549485 
L 126.822849 -19.547585 
L 126.967459 -19.545686 
L 127.10748 -19.543786 
L 127.240909 -19.541887 
L 127.366512 -19.539987 
L 127.48404 -19.538088 
L 127.594406 -19.536188 
L 127.699784 -19.534289 
L 127.803636 -19.532389 
L 127.910626 -19.53049 
L 128.026439 -19.52859 
L 128.157503 -19.52669 
L 128.310616 -19.524791 
L 128.492517 -19.522891 
L 128.70941 -19.520992 
L 128.966484 -19.519092 
L 129.26746 -19.517193 
L 129.614197 -19.515293 
L 130.006384 -19.513394 
L 130.441351 -19.511494 
L 130.914003 -19.509595 
L 131.416897 -19.507695 
L 131.940447 -19.505796 
L 132.47326 -19.503896 
L 133.002574 -19.501996 
L 133.514769 -19.500097 
L 133.995944 -19.498197 
L 134.43249 -19.496298 
L 134.811667 -19.494398 
L 135.122124 -19.492499 
L 135.354358 -19.490599 
L 135.501079 -19.4887 
L 135.557466 -19.4868 
L 135.521325 -19.484901 
L 135.393112 -19.483001 
L 135.175867 -19.481102 
L 134.875029 -19.479202 
L 134.498169 -19.477302 
L 134.054653 -19.475403 
L 133.555239 -19.473503 
L 133.011651 -19.471604 
L 132.436124 -19.469704 
L 131.840965 -19.467805 
L 131.23813 -19.465905 
L 130.638848 -19.464006 
L 130.053297 -19.462106 
L 129.490348 -19.460207 
L 128.957383 -19.458307 
L 128.460194 -19.456408 
L 128.002957 -19.454508 
L 127.588273 -19.452609 
L 127.217276 -19.450709 
L 126.889791 -19.448809 
L 126.604523 -19.44691 
z
" style="stroke: #6f6f6f; stroke-width: 0.15"/>
    </defs>
    <g clip-path="url(#pdc201fe7ad)">
     <use xlink:href="#mecfbbfe673" x="0" y="84.96" style="fill: #f0c9b0; stroke: #6f6f6f; stroke-width: 0.15"/>
    </g>
   </g>
   <g id="line2d_6">
    <path d="M 22.816551 65.475622 
L 22.816551 65.186014 
" clip-path="url(#pdc201fe7ad)" style="fill: none; stroke: #8c8c8c; stroke-width: 0.75; stroke-linecap: round"/>
   </g>
   <g id="line2d_7">
    <path d="M 22.816551 65.438388 
L 22.816551 65.221616 
" clip-path="url(#pdc201fe7ad)" style="fill: none; stroke: #8c8c8c; stroke-width: 4; stroke-linecap: round"/>
   </g>
   <g id="line2d_8">
    <path d="M 22.816551 65.387537 
" clip-path="url(#pdc201fe7ad)" style="fill: none; stroke: #6f6f6f; stroke-width: 1.2; stroke-linecap: round"/>
    <defs>
     <path id="ma27d147224" d="M 0 0.833333 
C 0.221003 0.833333 0.432983 0.745528 0.589256 0.589256 
C 0.745528 0.432983 0.833333 0.221003 0.833333 0 
C 0.833333 -0.221003 0.745528 -0.432983 0.589256 -0.589256 
C 0.432983 -0.745528 0.221003 -0.833333 0 -0.833333 
C -0.221003 -0.833333 -0.432983 -0.745528 -0.589256 -0.589256 
C -0.745528 -0.432983 -0.833333 -0.221003 -0.833333 0 
C -0.833333 0.221003 -0.745528 0.432983 -0.589256 0.589256 
C -0.432983 0.745528 -0.221003 0.833333 0 0.833333 
z
" style="stroke: #ffffff; stroke-width: 0.8"/>
    </defs>
    <g clip-path="url(#pdc201fe7ad)">
     <use xlink:href="#ma27d147224" x="22.816551" y="65.387537" style="fill: #ffffff; stroke: #ffffff; stroke-width: 0.8"/>
    </g>
   </g>
   <g id="line2d_9">
    <path d="M 48.439487 65.4222 
L 48.439487 56.726328 
" clip-path="url(#pdc201fe7ad)" style="fill: none; stroke: #8c8c8c; stroke-width: 0.75; stroke-linecap: round"/>
   </g>
   <g id="line2d_10">
    <path d="M 48.439487 63.161669 
L 48.439487 57.241439 
" clip-path="url(#pdc201fe7ad)" style="fill: none; stroke: #8c8c8c; stroke-width: 4; stroke-linecap: round"/>
   </g>
   <g id="line2d_11">
    <path d="M 48.439487 61.762692 
" clip-path="url(#pdc201fe7ad)" style="fill: none; stroke: #6f6f6f; stroke-width: 1.2; stroke-linecap: round"/>
    <g clip-path="url(#pdc201fe7ad)">
     <use xlink:href="#ma27d147224" x="48.439487" y="61.762692" style="fill: #ffffff; stroke: #ffffff; stroke-width: 0.8"/>
    </g>
   </g>
   <g id="line2d_12">
    <path d="M 74.062422 65.488978 
L 74.062422 64.952965 
" clip-path="url(#pdc201fe7ad)" style="fill: none; stroke: #8c8c8c; stroke-width: 0.75; stroke-linecap: round"/>
   </g>
   <g id="line2d_13">
    <path d="M 74.062422 65.392676 
L 74.062422 65.08487 
" clip-path="url(#pdc201fe7ad)" style="fill: none; stroke: #8c8c8c; stroke-width: 4; stroke-linecap: round"/>
   </g>
   <g id="line2d_14">
    <path d="M 74.062422 65.198702 
" clip-path="url(#pdc201fe7ad)" style="fill: none; stroke: #6f6f6f; stroke-width: 1.2; stroke-linecap: round"/>
    <g clip-path="url(#pdc201fe7ad)">
     <use xlink:href="#ma27d147224" x="74.062422" y="65.198702" style="fill: #ffffff; stroke: #ffffff; stroke-width: 0.8"/>
    </g>
   </g>
   <g id="line2d_15">
    <path d="M 99.685357 65.488978 
L 99.685357 65.361692 
" clip-path="url(#pdc201fe7ad)" style="fill: none; stroke: #8c8c8c; stroke-width: 0.75; stroke-linecap: round"/>
   </g>
   <g id="line2d_16">
    <path d="M 99.685357 65.488978 
L 99.685357 65.434747 
" clip-path="url(#pdc201fe7ad)" style="fill: none; stroke: #8c8c8c; stroke-width: 4; stroke-linecap: round"/>
   </g>
   <g id="line2d_17">
    <path d="M 99.685357 65.463068 
" clip-path="url(#pdc201fe7ad)" style="fill: none; stroke: #6f6f6f; stroke-width: 1.2; stroke-linecap: round"/>
    <g clip-path="url(#pdc201fe7ad)">
     <use xlink:href="#ma27d147224" x="99.685357" y="65.463068" style="fill: #ffffff; stroke: #ffffff; stroke-width: 0.8"/>
    </g>
   </g>
   <g id="line2d_18">
    <path d="M 125.308292 65.488978 
L 125.308292 65.425335 
" clip-path="url(#pdc201fe7ad)" style="fill: none; stroke: #8c8c8c; stroke-width: 0.75; stroke-linecap: round"/>
   </g>
   <g id="line2d_19">
    <path d="M 125.308292 65.478953 
L 125.308292 65.451681 
" clip-path="url(#pdc201fe7ad)" style="fill: none; stroke: #8c8c8c; stroke-width: 4; stroke-linecap: round"/>
   </g>
   <g id="line2d_20">
    <path d="M 125.308292 65.46783 
" clip-path="url(#pdc201fe7ad)" style="fill: none; stroke: #6f6f6f; stroke-width: 1.2; stroke-linecap: round"/>
    <g clip-path="url(#pdc201fe7ad)">
     <use xlink:href="#ma27d147224" x="125.308292" y="65.46783" style="fill: #ffffff; stroke: #ffffff; stroke-width: 0.8"/>
    </g>
   </g>
   <g id="patch_3">
    <path d="M 10.005084 74.393822 
L 10.005084 4.076256 
" style="fill: none; stroke: #777777; stroke-width: 0.5; stroke-linejoin: miter; stroke-linecap: square"/>
   </g>
   <g id="patch_4">
    <path d="M 10.005084 76.893822 
L 138.11976 76.893822 
" style="fill: none; stroke: #777777; stroke-width: 0.5; stroke-linejoin: miter; stroke-linecap: square"/>
   </g>
  </g>
 </g>
 <defs>
  <clipPath id="pdc201fe7ad">
   <rect x="10.005084" y="4.076256" width="128.114676" height="70.317567"/>
  </clipPath>
 </defs>
</svg>
