<?xml version="1.0" encoding="utf-8" standalone="no"?>
<!DOCTYPE svg PUBLIC "-//W3C//DTD SVG 1.1//EN"
  "http://www.w3.org/Graphics/SVG/1.1/DTD/svg11.dtd">
<svg xmlns:xlink="http://www.w3.org/1999/xlink" width="84.96pt" height="84.96pt" viewBox="0 0 84.96 84.96" xmlns="http://www.w3.org/2000/svg" version="1.1">
 <metadata>
  <rdf:RDF xmlns:dc="http://purl.org/dc/elements/1.1/" xmlns:cc="http://creativecommons.org/ns#" xmlns:rdf="http://www.w3.org/1999/02/22-rdf-syntax-ns#">
   <cc:Work>
    <dc:type rdf:resource="http://purl.org/dc/dcmitype/StillImage"/>
    <dc:date>2024-05-27T15:37:08.615981</dc:date>
    <dc:format>image/svg+xml</dc:format>
    <dc:creator>
     <cc:Agent>
      <dc:title>Matplotlib v3.8.3, https://matplotlib.org/</dc:title>
     </cc:Agent>
    </dc:creator>
   </cc:Work>
  </rdf:RDF>
 </metadata>
 <defs>
  <style type="text/css">*{stroke-linejoin: round; stroke-linecap: butt}</style>
 </defs>
 <g id="figure_1">
  <g id="patch_1">
   <path d="M 0 84.96 
L 84.96 84.96 
L 84.96 0 
L 0 0 
z
" style="fill: #ffffff"/>
  </g>
  <g id="axes_1">
   <g id="patch_2">
    <path d="M 13.341646 74.419526 
L 81.95976 74.419526 
L 81.95976 4.076256 
L 13.341646 4.076256 
z
" style="fill: #ffffff"/>
   </g>
   <g id="matplotlib.axis_1">
    <g id="xtick_1">
     <g id="text_1">
      <!-- B -->
      <g style="fill: #333333" transform="translate(23.610694 81.230229) scale(0.035 -0.035)">
       <defs>
        <path id="Helvetica-42" d="M 2213 2650 
Q 2606 2650 2825 2759 
Q 3169 2931 3169 3378 
Q 3169 3828 2803 3984 
Q 2597 4072 2191 4072 
L 1081 4072 
L 1081 2650 
L 2213 2650 
z
M 2422 531 
Q 2994 531 3238 863 
Q 3391 1072 3391 1369 
Q 3391 1869 2944 2050 
Q 2706 2147 2316 2147 
L 1081 2147 
L 1081 531 
L 2422 531 
z
M 472 4591 
L 2444 4591 
Q 3250 4591 3591 4109 
Q 3791 3825 3791 3453 
Q 3791 3019 3544 2741 
Q 3416 2594 3175 2472 
Q 3528 2338 3703 2169 
Q 4013 1869 4013 1341 
Q 4013 897 3734 538 
Q 3319 0 2413 0 
L 472 0 
L 472 4591 
z
" transform="scale(0.015625)"/>
       </defs>
       <use xlink:href="#Helvetica-42"/>
      </g>
     </g>
    </g>
    <g id="xtick_2">
     <g id="text_2">
      <!-- T -->
      <g style="fill: #333333" transform="translate(46.581836 81.230229) scale(0.035 -0.035)">
       <defs>
        <path id="Helvetica-54" d="M 3828 4591 
L 3828 4044 
L 2281 4044 
L 2281 0 
L 1650 0 
L 1650 4044 
L 103 4044 
L 103 4591 
L 3828 4591 
z
" transform="scale(0.015625)"/>
       </defs>
       <use xlink:href="#Helvetica-54"/>
      </g>
     </g>
    </g>
    <g id="xtick_3">
     <g id="text_3">
      <!-- IL7R Non B/T -->
      <g style="fill: #333333" transform="translate(59.922236 81.230229) scale(0.035 -0.035)">
       <defs>
        <path id="Helvetica-49" d="M 628 4591 
L 1256 4591 
L 1256 0 
L 628 0 
L 628 4591 
z
" transform="scale(0.015625)"/>
        <path id="Helvetica-4c" d="M 488 4591 
L 1109 4591 
L 1109 547 
L 3434 547 
L 3434 0 
L 488 0 
L 488 4591 
z
" transform="scale(0.015625)"/>
        <path id="Helvetica-37" d="M 3347 4400 
L 3347 3909 
Q 3131 3700 2773 3181 
Q 2416 2663 2141 2063 
Q 1869 1478 1728 997 
Q 1638 688 1494 0 
L 872 0 
Q 1084 1281 1809 2550 
Q 2238 3294 2709 3834 
L 234 3834 
L 234 4400 
L 3347 4400 
z
" transform="scale(0.015625)"/>
        <path id="Helvetica-52" d="M 2622 2488 
Q 3059 2488 3314 2663 
Q 3569 2838 3569 3294 
Q 3569 3784 3213 3963 
Q 3022 4056 2703 4056 
L 1184 4056 
L 1184 2488 
L 2622 2488 
z
M 563 4591 
L 2688 4591 
Q 3213 4591 3553 4438 
Q 4200 4144 4200 3353 
Q 4200 2941 4029 2678 
Q 3859 2416 3553 2256 
Q 3822 2147 3958 1969 
Q 4094 1791 4109 1391 
L 4131 775 
Q 4141 513 4175 384 
Q 4231 166 4375 103 
L 4375 0 
L 3613 0 
Q 3581 59 3562 153 
Q 3544 247 3531 516 
L 3494 1281 
Q 3472 1731 3159 1884 
Q 2981 1969 2600 1969 
L 1184 1969 
L 1184 0 
L 563 0 
L 563 4591 
z
" transform="scale(0.015625)"/>
        <path id="Helvetica-20" transform="scale(0.015625)"/>
        <path id="Helvetica-4e" d="M 488 4591 
L 1222 4591 
L 3541 872 
L 3541 4591 
L 4131 4591 
L 4131 0 
L 3434 0 
L 1081 3716 
L 1081 0 
L 488 0 
L 488 4591 
z
M 2269 4591 
L 2269 4591 
z
" transform="scale(0.015625)"/>
        <path id="Helvetica-6f" d="M 1741 363 
Q 2300 363 2508 786 
Q 2716 1209 2716 1728 
Q 2716 2197 2566 2491 
Q 2328 2953 1747 2953 
Q 1231 2953 997 2559 
Q 763 2166 763 1609 
Q 763 1075 997 719 
Q 1231 363 1741 363 
z
M 1763 3444 
Q 2409 3444 2856 3012 
Q 3303 2581 3303 1744 
Q 3303 934 2909 406 
Q 2516 -122 1688 -122 
Q 997 -122 590 345 
Q 184 813 184 1600 
Q 184 2444 612 2944 
Q 1041 3444 1763 3444 
z
M 1744 3428 
L 1744 3428 
z
" transform="scale(0.015625)"/>
        <path id="Helvetica-6e" d="M 413 3347 
L 947 3347 
L 947 2872 
Q 1184 3166 1450 3294 
Q 1716 3422 2041 3422 
Q 2753 3422 3003 2925 
Q 3141 2653 3141 2147 
L 3141 0 
L 2569 0 
L 2569 2109 
Q 2569 2416 2478 2603 
Q 2328 2916 1934 2916 
Q 1734 2916 1606 2875 
Q 1375 2806 1200 2600 
Q 1059 2434 1017 2257 
Q 975 2081 975 1753 
L 975 0 
L 413 0 
L 413 3347 
z
M 1734 3428 
L 1734 3428 
z
" transform="scale(0.015625)"/>
        <path id="Helvetica-2f" d="M 1456 4591 
L 1931 4591 
L 475 0 
L 0 0 
L 1456 4591 
z
" transform="scale(0.015625)"/>
       </defs>
       <use xlink:href="#Helvetica-49"/>
       <use xlink:href="#Helvetica-4c" x="27.783203"/>
       <use xlink:href="#Helvetica-37" x="83.398438"/>
       <use xlink:href="#Helvetica-52" x="139.013672"/>
       <use xlink:href="#Helvetica-20" x="211.230469"/>
       <use xlink:href="#Helvetica-4e" x="239.013672"/>
       <use xlink:href="#Helvetica-6f" x="311.230469"/>
       <use xlink:href="#Helvetica-6e" x="366.845703"/>
       <use xlink:href="#Helvetica-20" x="422.460938"/>
       <use xlink:href="#Helvetica-42" x="450.244141"/>
       <use xlink:href="#Helvetica-2f" x="516.943359"/>
       <use xlink:href="#Helvetica-54" x="544.726562"/>
      </g>
     </g>
    </g>
   </g>
   <g id="matplotlib.axis_2">
    <g id="ytick_1">
     <g id="line2d_1">
      <defs>
       <path id="m57cd3af5ab" d="M 0 0 
L -1 0 
" style="stroke: #777777; stroke-width: 0.5"/>
      </defs>
      <g>
       <use xlink:href="#m57cd3af5ab" x="13.341646" y="68.030497" style="fill: #777777; stroke: #777777; stroke-width: 0.5"/>
      </g>
     </g>
     <g id="text_4">
      <!-- 0 -->
      <g style="fill: #333333" transform="translate(9.673365 69.106513) scale(0.03 -0.03)">
       <defs>
        <path id="Helvetica-30" d="M 1731 4475 
Q 2600 4475 2988 3759 
Q 3288 3206 3288 2244 
Q 3288 1331 3016 734 
Q 2622 -122 1728 -122 
Q 922 -122 528 578 
Q 200 1163 200 2147 
Q 200 2909 397 3456 
Q 766 4475 1731 4475 
z
M 1725 391 
Q 2163 391 2422 778 
Q 2681 1166 2681 2222 
Q 2681 2984 2493 3476 
Q 2306 3969 1766 3969 
Q 1269 3969 1039 3501 
Q 809 3034 809 2125 
Q 809 1441 956 1025 
Q 1181 391 1725 391 
z
" transform="scale(0.015625)"/>
       </defs>
       <use xlink:href="#Helvetica-30"/>
      </g>
     </g>
    </g>
    <g id="ytick_2">
     <g id="line2d_2">
      <g>
       <use xlink:href="#m57cd3af5ab" x="13.341646" y="55.239649" style="fill: #777777; stroke: #777777; stroke-width: 0.5"/>
      </g>
     </g>
     <g id="text_5">
      <!-- 2000 -->
      <g style="fill: #333333" transform="translate(4.668521 56.315664) scale(0.03 -0.03)">
       <defs>
        <path id="Helvetica-32" d="M 200 0 
Q 231 578 439 1006 
Q 647 1434 1250 1784 
L 1850 2131 
Q 2253 2366 2416 2531 
Q 2672 2791 2672 3125 
Q 2672 3516 2437 3745 
Q 2203 3975 1813 3975 
Q 1234 3975 1013 3538 
Q 894 3303 881 2888 
L 309 2888 
Q 319 3472 525 3841 
Q 891 4491 1816 4491 
Q 2584 4491 2939 4075 
Q 3294 3659 3294 3150 
Q 3294 2613 2916 2231 
Q 2697 2009 2131 1694 
L 1703 1456 
Q 1397 1288 1222 1134 
Q 909 863 828 531 
L 3272 531 
L 3272 0 
L 200 0 
z
" transform="scale(0.015625)"/>
       </defs>
       <use xlink:href="#Helvetica-32"/>
       <use xlink:href="#Helvetica-30" x="55.615234"/>
       <use xlink:href="#Helvetica-30" x="111.230469"/>
       <use xlink:href="#Helvetica-30" x="166.845703"/>
      </g>
     </g>
    </g>
    <g id="ytick_3">
     <g id="line2d_3">
      <g>
       <use xlink:href="#m57cd3af5ab" x="13.341646" y="42.4488" style="fill: #777777; stroke: #777777; stroke-width: 0.5"/>
      </g>
     </g>
     <g id="text_6">
      <!-- 4000 -->
      <g style="fill: #333333" transform="translate(4.668521 43.524816) scale(0.03 -0.03)">
       <defs>
        <path id="Helvetica-34" d="M 2116 1584 
L 2116 3613 
L 681 1584 
L 2116 1584 
z
M 2125 0 
L 2125 1094 
L 163 1094 
L 163 1644 
L 2213 4488 
L 2688 4488 
L 2688 1584 
L 3347 1584 
L 3347 1094 
L 2688 1094 
L 2688 0 
L 2125 0 
z
" transform="scale(0.015625)"/>
       </defs>
       <use xlink:href="#Helvetica-34"/>
       <use xlink:href="#Helvetica-30" x="55.615234"/>
       <use xlink:href="#Helvetica-30" x="111.230469"/>
       <use xlink:href="#Helvetica-30" x="166.845703"/>
      </g>
     </g>
    </g>
    <g id="ytick_4">
     <g id="line2d_4">
      <g>
       <use xlink:href="#m57cd3af5ab" x="13.341646" y="29.657952" style="fill: #777777; stroke: #777777; stroke-width: 0.5"/>
      </g>
     </g>
     <g id="text_7">
      <!-- 6000 -->
      <g style="fill: #333333" transform="translate(4.668521 30.733968) scale(0.03 -0.03)">
       <defs>
        <path id="Helvetica-36" d="M 1872 4494 
Q 2622 4494 2917 4105 
Q 3213 3716 3213 3303 
L 2656 3303 
Q 2606 3569 2497 3719 
Q 2294 4000 1881 4000 
Q 1409 4000 1131 3564 
Q 853 3128 822 2316 
Q 1016 2600 1309 2741 
Q 1578 2866 1909 2866 
Q 2472 2866 2890 2506 
Q 3309 2147 3309 1434 
Q 3309 825 2912 354 
Q 2516 -116 1781 -116 
Q 1153 -116 697 361 
Q 241 838 241 1966 
Q 241 2800 444 3381 
Q 834 4494 1872 4494 
z
M 1831 384 
Q 2275 384 2495 682 
Q 2716 981 2716 1388 
Q 2716 1731 2519 2042 
Q 2322 2353 1803 2353 
Q 1441 2353 1167 2112 
Q 894 1872 894 1388 
Q 894 963 1142 673 
Q 1391 384 1831 384 
z
" transform="scale(0.015625)"/>
       </defs>
       <use xlink:href="#Helvetica-36"/>
       <use xlink:href="#Helvetica-30" x="55.615234"/>
       <use xlink:href="#Helvetica-30" x="111.230469"/>
       <use xlink:href="#Helvetica-30" x="166.845703"/>
      </g>
     </g>
    </g>
    <g id="ytick_5">
     <g id="line2d_5">
      <g>
       <use xlink:href="#m57cd3af5ab" x="13.341646" y="16.867104" style="fill: #777777; stroke: #777777; stroke-width: 0.5"/>
      </g>
     </g>
     <g id="text_8">
      <!-- 8000 -->
      <g style="fill: #333333" transform="translate(4.668521 17.94312) scale(0.03 -0.03)">
       <defs>
        <path id="Helvetica-38" d="M 1741 2600 
Q 2113 2600 2322 2808 
Q 2531 3016 2531 3303 
Q 2531 3553 2331 3762 
Q 2131 3972 1722 3972 
Q 1316 3972 1134 3762 
Q 953 3553 953 3272 
Q 953 2956 1187 2778 
Q 1422 2600 1741 2600 
z
M 1775 384 
Q 2166 384 2423 595 
Q 2681 806 2681 1225 
Q 2681 1659 2415 1884 
Q 2150 2109 1734 2109 
Q 1331 2109 1076 1879 
Q 822 1650 822 1244 
Q 822 894 1055 639 
Q 1288 384 1775 384 
z
M 975 2384 
Q 741 2484 609 2619 
Q 363 2869 363 3269 
Q 363 3769 725 4128 
Q 1088 4488 1753 4488 
Q 2397 4488 2762 4148 
Q 3128 3809 3128 3356 
Q 3128 2938 2916 2678 
Q 2797 2531 2547 2391 
Q 2825 2263 2984 2097 
Q 3281 1784 3281 1284 
Q 3281 694 2884 283 
Q 2488 -128 1763 -128 
Q 1109 -128 657 226 
Q 206 581 206 1256 
Q 206 1653 400 1942 
Q 594 2231 975 2384 
z
" transform="scale(0.015625)"/>
       </defs>
       <use xlink:href="#Helvetica-38"/>
       <use xlink:href="#Helvetica-30" x="55.615234"/>
       <use xlink:href="#Helvetica-30" x="111.230469"/>
       <use xlink:href="#Helvetica-30" x="166.845703"/>
      </g>
     </g>
    </g>
    <g id="ytick_6">
     <g id="line2d_6">
      <g>
       <use xlink:href="#m57cd3af5ab" x="13.341646" y="4.076256" style="fill: #777777; stroke: #777777; stroke-width: 0.5"/>
      </g>
     </g>
     <g id="text_9">
      <!-- 10000 -->
      <g style="fill: #333333" transform="translate(3.00024 5.152271) scale(0.03 -0.03)">
       <defs>
        <path id="Helvetica-31" d="M 613 3169 
L 613 3600 
Q 1222 3659 1462 3798 
Q 1703 3938 1822 4456 
L 2266 4456 
L 2266 0 
L 1666 0 
L 1666 3169 
L 613 3169 
z
" transform="scale(0.015625)"/>
       </defs>
       <use xlink:href="#Helvetica-31"/>
       <use xlink:href="#Helvetica-30" x="55.615234"/>
       <use xlink:href="#Helvetica-30" x="111.230469"/>
       <use xlink:href="#Helvetica-30" x="166.845703"/>
       <use xlink:href="#Helvetica-30" x="222.460938"/>
      </g>
     </g>
    </g>
   </g>
   <g id="PolyCollection_1">
    <defs>
     <path id="m0b1bd2239e" d="M 25.250409 -18.410336 
L 24.305588 -18.410336 
L 24.159543 -18.577332 
L 23.988582 -18.744328 
L 23.79444 -18.911324 
L 23.580333 -19.078319 
L 23.35071 -19.245315 
L 23.110867 -19.412311 
L 22.866502 -19.579307 
L 22.623299 -19.746302 
L 22.386616 -19.913298 
L 22.161311 -20.080294 
L 21.95165 -20.24729 
L 21.761238 -20.414286 
L 21.592861 -20.581281 
L 21.44819 -20.748277 
L 21.327311 -20.915273 
L 21.228179 -21.082269 
L 21.146104 -21.249265 
L 21.073482 -21.41626 
L 20.999925 -21.583256 
L 20.912941 -21.750252 
L 20.799195 -21.917248 
L 20.646269 -22.084243 
L 20.444687 -22.251239 
L 20.189864 -22.418235 
L 19.883552 -22.585231 
L 19.534357 -22.752227 
L 19.157046 -22.919222 
L 18.770552 -23.086218 
L 18.394925 -23.253214 
L 18.047777 -23.42021 
L 17.740972 -23.587206 
L 17.478425 -23.754201 
L 17.255628 -23.921197 
L 17.061204 -24.088193 
L 16.880228 -24.255189 
L 16.698587 -24.422184 
L 16.507269 -24.58918 
L 16.305474 -24.756176 
L 16.101649 -24.923172 
L 15.912099 -25.090168 
L 15.757493 -25.257163 
L 15.658087 -25.424159 
L 15.628917 -25.591155 
L 15.676142 -25.758151 
L 15.795467 -25.925147 
L 15.973004 -26.092142 
L 16.188329 -26.259138 
L 16.41897 -26.426134 
L 16.645255 -26.59313 
L 16.854392 -26.760125 
L 17.042913 -26.927121 
L 17.216987 -27.094117 
L 17.390633 -27.261113 
L 17.582283 -27.428109 
L 17.810534 -27.595104 
L 18.08999 -27.7621 
L 18.42808 -27.929096 
L 18.823461 -28.096092 
L 19.266208 -28.263087 
L 19.739638 -28.430083 
L 20.223238 -28.597079 
L 20.695982 -28.764075 
L 21.139336 -28.931071 
L 21.539375 -29.098066 
L 21.887743 -29.265062 
L 22.181499 -29.432058 
L 22.42213 -29.599054 
L 22.614175 -29.76605 
L 22.763886 -29.933045 
L 22.878225 -30.100041 
L 22.964305 -30.267037 
L 23.029194 -30.434033 
L 23.079868 -30.601028 
L 23.123098 -30.768024 
L 23.165104 -30.93502 
L 23.210972 -31.102016 
L 23.263951 -31.269012 
L 23.324848 -31.436007 
L 23.391761 -31.603003 
L 23.460313 -31.769999 
L 23.524432 -31.936995 
L 23.577566 -32.103991 
L 23.614104 -32.270986 
L 23.630707 -32.437982 
L 23.627247 -32.604978 
L 23.607147 -32.771974 
L 23.577031 -32.938969 
L 23.545748 -33.105965 
L 23.522951 -33.272961 
L 23.517532 -33.439957 
L 23.536199 -33.606953 
L 23.582483 -33.773948 
L 23.656322 -33.940944 
L 23.754276 -34.10794 
L 23.87027 -34.274936 
L 23.99668 -34.441932 
L 24.12553 -34.608927 
L 24.249561 -34.775923 
L 24.363017 -34.942919 
L 25.19298 -34.942919 
L 25.19298 -34.942919 
L 25.306436 -34.775923 
L 25.430467 -34.608927 
L 25.559317 -34.441932 
L 25.685727 -34.274936 
L 25.801721 -34.10794 
L 25.899675 -33.940944 
L 25.973514 -33.773948 
L 26.019798 -33.606953 
L 26.038465 -33.439957 
L 26.033046 -33.272961 
L 26.010249 -33.105965 
L 25.978966 -32.938969 
L 25.94885 -32.771974 
L 25.92875 -32.604978 
L 25.92529 -32.437982 
L 25.941893 -32.270986 
L 25.978432 -32.103991 
L 26.031565 -31.936995 
L 26.095684 -31.769999 
L 26.164236 -31.603003 
L 26.231149 -31.436007 
L 26.292046 -31.269012 
L 26.345025 -31.102016 
L 26.390893 -30.93502 
L 26.432899 -30.768024 
L 26.476129 -30.601028 
L 26.526803 -30.434033 
L 26.591692 -30.267037 
L 26.677772 -30.100041 
L 26.792111 -29.933045 
L 26.941822 -29.76605 
L 27.133867 -29.599054 
L 27.374498 -29.432058 
L 27.668254 -29.265062 
L 28.016622 -29.098066 
L 28.416661 -28.931071 
L 28.860015 -28.764075 
L 29.332759 -28.597079 
L 29.816359 -28.430083 
L 30.289789 -28.263087 
L 30.732536 -28.096092 
L 31.127917 -27.929096 
L 31.466007 -27.7621 
L 31.745463 -27.595104 
L 31.973714 -27.428109 
L 32.165365 -27.261113 
L 32.33901 -27.094117 
L 32.513084 -26.927121 
L 32.701605 -26.760125 
L 32.910742 -26.59313 
L 33.137027 -26.426134 
L 33.367668 -26.259138 
L 33.582993 -26.092142 
L 33.76053 -25.925147 
L 33.879855 -25.758151 
L 33.92708 -25.591155 
L 33.89791 -25.424159 
L 33.798504 -25.257163 
L 33.643898 -25.090168 
L 33.454349 -24.923172 
L 33.250523 -24.756176 
L 33.048728 -24.58918 
L 32.85741 -24.422184 
L 32.675769 -24.255189 
L 32.494794 -24.088193 
L 32.300369 -23.921197 
L 32.077572 -23.754201 
L 31.815025 -23.587206 
L 31.50822 -23.42021 
L 31.161072 -23.253214 
L 30.785445 -23.086218 
L 30.398951 -22.919222 
L 30.02164 -22.752227 
L 29.672445 -22.585231 
L 29.366133 -22.418235 
L 29.11131 -22.251239 
L 28.909728 -22.084243 
L 28.756802 -21.917248 
L 28.643056 -21.750252 
L 28.556072 -21.583256 
L 28.482515 -21.41626 
L 28.409893 -21.249265 
L 28.327819 -21.082269 
L 28.228686 -20.915273 
L 28.107807 -20.748277 
L 27.963136 -20.581281 
L 27.794759 -20.414286 
L 27.604347 -20.24729 
L 27.394686 -20.080294 
L 27.169381 -19.913298 
L 26.932698 -19.746302 
L 26.689495 -19.579307 
L 26.44513 -19.412311 
L 26.205288 -19.245315 
L 25.975664 -19.078319 
L 25.761557 -18.911324 
L 25.567415 -18.744328 
L 25.396454 -18.577332 
L 25.250409 -18.410336 
z
" style="stroke: #414141; stroke-width: 0.15"/>
    </defs>
    <g clip-path="url(#p0421071a1e)">
     <use xlink:href="#m0b1bd2239e" x="0" y="84.96" style="fill: #abc9ea; stroke: #414141; stroke-width: 0.15"/>
    </g>
   </g>
   <g id="PolyCollection_2">
    <defs>
     <path id="m6b0eaeddca" d="M 48.560668 -18.184734 
L 46.740739 -18.184734 
L 46.45153 -18.616347 
L 46.102737 -19.04796 
L 45.692769 -19.479574 
L 45.22331 -19.911187 
L 44.69983 -20.3428 
L 44.13178 -20.774413 
L 43.532378 -21.206026 
L 42.917957 -21.637639 
L 42.306878 -22.069253 
L 41.718101 -22.500866 
L 41.169541 -22.932479 
L 40.676407 -23.364092 
L 40.249735 -23.795705 
L 39.89533 -24.227319 
L 39.613278 -24.658932 
L 39.398158 -25.090545 
L 39.239937 -25.522158 
L 39.125477 -25.953771 
L 39.040441 -26.385385 
L 38.971314 -26.816998 
L 38.907221 -27.248611 
L 38.841233 -27.680224 
L 38.770932 -28.111837 
L 38.698166 -28.543451 
L 38.628055 -28.975064 
L 38.567489 -29.406677 
L 38.523462 -29.83829 
L 38.501621 -30.269903 
L 38.505338 -30.701517 
L 38.535473 -31.13313 
L 38.590843 -31.564743 
L 38.669183 -31.996356 
L 38.768299 -32.427969 
L 38.887067 -32.859583 
L 39.025979 -33.291196 
L 39.187089 -33.722809 
L 39.373371 -34.154422 
L 39.587679 -34.586035 
L 39.831586 -35.017648 
L 40.1044 -35.449262 
L 40.40262 -35.880875 
L 40.719935 -36.312488 
L 41.047784 -36.744101 
L 41.376315 -37.175714 
L 41.695567 -37.607328 
L 41.99664 -38.038941 
L 42.272662 -38.470554 
L 42.51944 -38.902167 
L 42.735753 -39.33378 
L 42.923275 -39.765394 
L 43.086211 -40.197007 
L 43.230689 -40.62862 
L 43.363988 -41.060233 
L 43.493678 -41.491846 
L 43.626731 -41.92346 
L 43.768715 -42.355073 
L 43.923148 -42.786686 
L 44.091105 -43.218299 
L 44.271171 -43.649912 
L 44.45973 -44.081526 
L 44.651586 -44.513139 
L 44.840789 -44.944752 
L 45.021527 -45.376365 
L 45.188923 -45.807978 
L 45.339579 -46.239592 
L 45.471779 -46.671205 
L 45.585361 -47.102818 
L 45.681297 -47.534431 
L 45.761132 -47.966044 
L 45.826429 -48.397657 
L 45.878357 -48.829271 
L 45.917506 -49.260884 
L 45.943963 -49.692497 
L 45.95759 -50.12411 
L 45.958399 -50.555723 
L 45.946931 -50.987337 
L 45.924514 -51.41895 
L 45.893353 -51.850563 
L 45.856439 -52.282176 
L 45.817322 -52.713789 
L 45.779812 -53.145403 
L 45.747689 -53.577016 
L 45.724475 -54.008629 
L 45.713293 -54.440242 
L 45.716797 -54.871855 
L 45.737139 -55.303469 
L 45.775929 -55.735082 
L 45.834151 -56.166695 
L 45.912039 -56.598308 
L 46.008937 -57.029921 
L 46.123182 -57.461535 
L 46.252071 -57.893148 
L 46.391942 -58.324761 
L 46.538401 -58.756374 
L 46.686647 -59.187987 
L 46.831884 -59.6196 
L 46.969719 -60.051214 
L 47.096521 -60.482827 
L 47.209658 -60.91444 
L 48.091748 -60.91444 
L 48.091748 -60.91444 
L 48.204886 -60.482827 
L 48.331688 -60.051214 
L 48.469523 -59.6196 
L 48.614759 -59.187987 
L 48.763006 -58.756374 
L 48.909464 -58.324761 
L 49.049336 -57.893148 
L 49.178224 -57.461535 
L 49.292469 -57.029921 
L 49.389367 -56.598308 
L 49.467256 -56.166695 
L 49.525477 -55.735082 
L 49.564267 -55.303469 
L 49.584609 -54.871855 
L 49.588113 -54.440242 
L 49.576931 -54.008629 
L 49.553717 -53.577016 
L 49.521594 -53.145403 
L 49.484084 -52.713789 
L 49.444968 -52.282176 
L 49.408054 -51.850563 
L 49.376892 -51.41895 
L 49.354475 -50.987337 
L 49.343007 -50.555723 
L 49.343816 -50.12411 
L 49.357443 -49.692497 
L 49.383901 -49.260884 
L 49.423049 -48.829271 
L 49.474977 -48.397657 
L 49.540274 -47.966044 
L 49.620109 -47.534431 
L 49.716045 -47.102818 
L 49.829627 -46.671205 
L 49.961827 -46.239592 
L 50.112483 -45.807978 
L 50.279879 -45.376365 
L 50.460618 -44.944752 
L 50.64982 -44.513139 
L 50.841676 -44.081526 
L 51.030235 -43.649912 
L 51.210301 -43.218299 
L 51.378259 -42.786686 
L 51.532691 -42.355073 
L 51.674676 -41.92346 
L 51.807728 -41.491846 
L 51.937418 -41.060233 
L 52.070718 -40.62862 
L 52.215195 -40.197007 
L 52.378132 -39.765394 
L 52.565654 -39.33378 
L 52.781966 -38.902167 
L 53.028745 -38.470554 
L 53.304766 -38.038941 
L 53.605839 -37.607328 
L 53.925092 -37.175714 
L 54.253622 -36.744101 
L 54.581471 -36.312488 
L 54.898787 -35.880875 
L 55.197006 -35.449262 
L 55.46982 -35.017648 
L 55.713727 -34.586035 
L 55.928035 -34.154422 
L 56.114317 -33.722809 
L 56.275427 -33.291196 
L 56.41434 -32.859583 
L 56.533108 -32.427969 
L 56.632223 -31.996356 
L 56.710563 -31.564743 
L 56.765933 -31.13313 
L 56.796069 -30.701517 
L 56.799785 -30.269903 
L 56.777945 -29.83829 
L 56.733918 -29.406677 
L 56.673351 -28.975064 
L 56.60324 -28.543451 
L 56.530475 -28.111837 
L 56.460173 -27.680224 
L 56.394185 -27.248611 
L 56.330092 -26.816998 
L 56.260965 -26.385385 
L 56.175929 -25.953771 
L 56.061469 -25.522158 
L 55.903248 -25.090545 
L 55.688128 -24.658932 
L 55.406077 -24.227319 
L 55.051671 -23.795705 
L 54.624999 -23.364092 
L 54.131865 -22.932479 
L 53.583305 -22.500866 
L 52.994528 -22.069253 
L 52.38345 -21.637639 
L 51.769028 -21.206026 
L 51.169626 -20.774413 
L 50.601576 -20.3428 
L 50.078097 -19.911187 
L 49.608637 -19.479574 
L 49.198669 -19.04796 
L 48.849877 -18.616347 
L 48.560668 -18.184734 
z
" style="stroke: #414141; stroke-width: 0.15"/>
    </defs>
    <g clip-path="url(#p0421071a1e)">
     <use xlink:href="#m6b0eaeddca" x="0" y="84.96" style="fill: #efb792; stroke: #414141; stroke-width: 0.15"/>
    </g>
   </g>
   <g id="PolyCollection_3">
    <defs>
     <path id="m23262b87c9" d="M 71.93576 -21.695273 
L 69.111055 -21.695273 
L 68.767928 -21.99985 
L 68.371845 -22.304426 
L 67.922891 -22.609003 
L 67.423452 -22.913579 
L 66.878503 -23.218156 
L 66.295767 -23.522732 
L 65.685703 -23.827308 
L 65.061288 -24.131885 
L 64.437602 -24.436461 
L 63.831208 -24.741038 
L 63.25936 -25.045614 
L 62.739097 -25.35019 
L 62.286268 -25.654767 
L 61.914581 -25.959343 
L 61.634733 -26.26392 
L 61.453713 -26.568496 
L 61.374326 -26.873073 
L 61.394987 -27.177649 
L 61.509805 -27.482225 
L 61.708948 -27.786802 
L 61.979272 -28.091378 
L 62.305147 -28.395955 
L 62.669431 -28.700531 
L 63.054514 -29.005107 
L 63.443342 -29.309684 
L 63.820372 -29.61426 
L 64.17237 -29.918837 
L 64.489024 -30.223413 
L 64.763332 -30.52799 
L 64.991749 -30.832566 
L 65.174099 -31.137142 
L 65.31328 -31.441719 
L 65.414769 -31.746295 
L 65.486005 -32.050872 
L 65.535669 -32.355448 
L 65.572939 -32.660024 
L 65.606753 -32.964601 
L 65.645155 -33.269177 
L 65.694741 -33.573754 
L 65.760263 -33.87833 
L 65.844379 -34.182907 
L 65.947582 -34.487483 
L 66.068263 -34.792059 
L 66.202921 -35.096636 
L 66.346448 -35.401212 
L 66.492487 -35.705789 
L 66.633803 -36.010365 
L 66.76266 -36.314941 
L 66.871168 -36.619518 
L 66.9516 -36.924094 
L 66.996683 -37.228671 
L 66.999865 -37.533247 
L 66.955578 -37.837824 
L 66.859502 -38.1424 
L 66.708835 -38.446976 
L 66.502572 -38.751553 
L 66.241771 -39.056129 
L 65.929768 -39.360706 
L 65.572327 -39.665282 
L 65.177658 -39.969858 
L 64.756285 -40.274435 
L 64.320723 -40.579011 
L 63.884956 -40.883588 
L 63.463741 -41.188164 
L 63.071755 -41.492741 
L 62.722677 -41.797317 
L 62.428265 -42.101893 
L 62.197551 -42.40647 
L 62.036215 -42.711046 
L 61.946252 -43.015623 
L 61.925958 -43.320199 
L 61.97025 -43.624775 
L 62.071312 -43.929352 
L 62.219477 -44.233928 
L 62.40425 -44.538505 
L 62.615365 -44.843081 
L 62.843738 -45.147658 
L 63.082225 -45.452234 
L 63.326082 -45.75681 
L 63.573114 -46.061387 
L 63.823489 -46.365963 
L 64.079279 -46.67054 
L 64.34379 -46.975116 
L 64.620794 -47.279692 
L 64.913749 -47.584269 
L 65.225117 -47.888845 
L 65.555859 -48.193422 
L 65.905141 -48.497998 
L 66.270285 -48.802575 
L 66.646935 -49.107151 
L 67.029413 -49.411727 
L 67.411195 -49.716304 
L 67.785445 -50.02088 
L 68.145544 -50.325457 
L 68.485557 -50.630033 
L 68.800591 -50.934609 
L 69.087036 -51.239186 
L 69.342659 -51.543762 
L 69.566591 -51.848339 
L 71.480224 -51.848339 
L 71.480224 -51.848339 
L 71.704156 -51.543762 
L 71.95978 -51.239186 
L 72.246224 -50.934609 
L 72.561259 -50.630033 
L 72.901271 -50.325457 
L 73.261371 -50.02088 
L 73.635621 -49.716304 
L 74.017403 -49.411727 
L 74.399881 -49.107151 
L 74.776531 -48.802575 
L 75.141674 -48.497998 
L 75.490956 -48.193422 
L 75.821698 -47.888845 
L 76.133067 -47.584269 
L 76.426021 -47.279692 
L 76.703025 -46.975116 
L 76.967537 -46.67054 
L 77.223326 -46.365963 
L 77.473701 -46.061387 
L 77.720733 -45.75681 
L 77.96459 -45.452234 
L 78.203077 -45.147658 
L 78.431451 -44.843081 
L 78.642565 -44.538505 
L 78.827338 -44.233928 
L 78.975503 -43.929352 
L 79.076566 -43.624775 
L 79.120858 -43.320199 
L 79.100563 -43.015623 
L 79.010601 -42.711046 
L 78.849265 -42.40647 
L 78.61855 -42.101893 
L 78.324139 -41.797317 
L 77.97506 -41.492741 
L 77.583074 -41.188164 
L 77.161859 -40.883588 
L 76.726093 -40.579011 
L 76.29053 -40.274435 
L 75.869157 -39.969858 
L 75.474488 -39.665282 
L 75.117047 -39.360706 
L 74.805044 -39.056129 
L 74.544243 -38.751553 
L 74.337981 -38.446976 
L 74.187313 -38.1424 
L 74.091237 -37.837824 
L 74.04695 -37.533247 
L 74.050133 -37.228671 
L 74.095216 -36.924094 
L 74.175648 -36.619518 
L 74.284155 -36.314941 
L 74.413013 -36.010365 
L 74.554329 -35.705789 
L 74.700367 -35.401212 
L 74.843894 -35.096636 
L 74.978552 -34.792059 
L 75.099234 -34.487483 
L 75.202436 -34.182907 
L 75.286553 -33.87833 
L 75.352074 -33.573754 
L 75.401661 -33.269177 
L 75.440062 -32.964601 
L 75.473876 -32.660024 
L 75.511146 -32.355448 
L 75.560811 -32.050872 
L 75.632047 -31.746295 
L 75.733536 -31.441719 
L 75.872716 -31.137142 
L 76.055067 -30.832566 
L 76.283483 -30.52799 
L 76.557791 -30.223413 
L 76.874446 -29.918837 
L 77.226443 -29.61426 
L 77.603473 -29.309684 
L 77.992302 -29.005107 
L 78.377384 -28.700531 
L 78.741669 -28.395955 
L 79.067543 -28.091378 
L 79.337867 -27.786802 
L 79.537011 -27.482225 
L 79.651829 -27.177649 
L 79.67249 -26.873073 
L 79.593102 -26.568496 
L 79.412082 -26.26392 
L 79.132234 -25.959343 
L 78.760547 -25.654767 
L 78.307719 -25.35019 
L 77.787456 -25.045614 
L 77.215608 -24.741038 
L 76.609213 -24.436461 
L 75.985527 -24.131885 
L 75.361113 -23.827308 
L 74.751048 -23.522732 
L 74.168313 -23.218156 
L 73.623363 -22.913579 
L 73.123924 -22.609003 
L 72.67497 -22.304426 
L 72.278887 -21.99985 
L 71.93576 -21.695273 
z
" style="stroke: #414141; stroke-width: 0.15"/>
    </defs>
    <g clip-path="url(#p0421071a1e)">
     <use xlink:href="#m23262b87c9" x="0" y="84.96" style="fill: #7e5c60; stroke: #414141; stroke-width: 0.15"/>
    </g>
   </g>
   <g id="line2d_7">
    <path d="M 24.777999 65.180891 
L 24.777999 53.679925 
" clip-path="url(#p0421071a1e)" style="fill: none; stroke: #8c8c8c; stroke-width: 0.75; stroke-linecap: round"/>
   </g>
   <g id="line2d_8">
    <path d="M 24.777999 61.238157 
L 24.777999 57.41952 
" clip-path="url(#p0421071a1e)" style="fill: none; stroke: #8c8c8c; stroke-width: 4; stroke-linecap: round"/>
   </g>
   <g id="line2d_9">
    <path d="M 24.777999 59.498343 
" clip-path="url(#p0421071a1e)" style="fill: none; stroke: #414141; stroke-width: 1.2; stroke-linecap: round"/>
    <defs>
     <path id="m957df4d736" d="M 0 0.833333 
C 0.221003 0.833333 0.432983 0.745528 0.589256 0.589256 
C 0.745528 0.432983 0.833333 0.221003 0.833333 0 
C 0.833333 -0.221003 0.745528 -0.432983 0.589256 -0.589256 
C 0.432983 -0.745528 0.221003 -0.833333 0 -0.833333 
C -0.221003 -0.833333 -0.432983 -0.745528 -0.589256 -0.589256 
C -0.745528 -0.432983 -0.833333 -0.221003 -0.833333 0 
C -0.833333 0.221003 -0.745528 0.432983 -0.589256 0.589256 
C -0.432983 0.745528 -0.221003 0.833333 0 0.833333 
z
" style="stroke: #ffffff; stroke-width: 0.8"/>
    </defs>
    <g clip-path="url(#p0421071a1e)">
     <use xlink:href="#m957df4d736" x="24.777999" y="59.498343" style="fill: #ffffff; stroke: #ffffff; stroke-width: 0.8"/>
    </g>
   </g>
   <g id="line2d_10">
    <path d="M 47.650703 62.817084 
L 47.650703 28.003742 
" clip-path="url(#p0421071a1e)" style="fill: none; stroke: #8c8c8c; stroke-width: 0.75; stroke-linecap: round"/>
   </g>
   <g id="line2d_11">
    <path d="M 47.650703 58.210513 
L 47.650703 46.117433 
" clip-path="url(#p0421071a1e)" style="fill: none; stroke: #8c8c8c; stroke-width: 4; stroke-linecap: round"/>
   </g>
   <g id="line2d_12">
    <path d="M 47.650703 52.818297 
" clip-path="url(#p0421071a1e)" style="fill: none; stroke: #414141; stroke-width: 1.2; stroke-linecap: round"/>
    <g clip-path="url(#p0421071a1e)">
     <use xlink:href="#m957df4d736" x="47.650703" y="52.818297" style="fill: #ffffff; stroke: #ffffff; stroke-width: 0.8"/>
    </g>
   </g>
   <g id="line2d_13">
    <path d="M 70.523408 59.776737 
L 70.523408 36.599651 
" clip-path="url(#p0421071a1e)" style="fill: none; stroke: #8c8c8c; stroke-width: 0.75; stroke-linecap: round"/>
   </g>
   <g id="line2d_14">
    <path d="M 70.523408 57.221374 
L 70.523408 42.034516 
" clip-path="url(#p0421071a1e)" style="fill: none; stroke: #8c8c8c; stroke-width: 4; stroke-linecap: round"/>
   </g>
   <g id="line2d_15">
    <path d="M 70.523408 49.468558 
" clip-path="url(#p0421071a1e)" style="fill: none; stroke: #414141; stroke-width: 1.2; stroke-linecap: round"/>
    <g clip-path="url(#p0421071a1e)">
     <use xlink:href="#m957df4d736" x="70.523408" y="49.468558" style="fill: #ffffff; stroke: #ffffff; stroke-width: 0.8"/>
    </g>
   </g>
   <g id="patch_3">
    <path d="M 13.341646 74.419526 
L 13.341646 4.076256 
" style="fill: none; stroke: #777777; stroke-width: 0.5; stroke-linejoin: miter; stroke-linecap: square"/>
   </g>
   <g id="patch_4">
    <path d="M 13.341646 76.919526 
L 81.95976 76.919526 
" style="fill: none; stroke: #777777; stroke-width: 0.5; stroke-linejoin: miter; stroke-linecap: square"/>
   </g>
  </g>
 </g>
 <defs>
  <clipPath id="p0421071a1e">
   <rect x="13.341646" y="4.076256" width="68.618114" height="70.34327"/>
  </clipPath>
 </defs>
</svg>
