<?xml version="1.0" encoding="utf-8" standalone="no"?>
<!DOCTYPE svg PUBLIC "-//W3C//DTD SVG 1.1//EN"
  "http://www.w3.org/Graphics/SVG/1.1/DTD/svg11.dtd">
<svg xmlns:xlink="http://www.w3.org/1999/xlink" width="141.12pt" height="84.96pt" viewBox="0 0 141.12 84.96" xmlns="http://www.w3.org/2000/svg" version="1.1">
 <metadata>
  <rdf:RDF xmlns:dc="http://purl.org/dc/elements/1.1/" xmlns:cc="http://creativecommons.org/ns#" xmlns:rdf="http://www.w3.org/1999/02/22-rdf-syntax-ns#">
   <cc:Work>
    <dc:type rdf:resource="http://purl.org/dc/dcmitype/StillImage"/>
    <dc:date>2024-05-27T15:37:15.531642</dc:date>
    <dc:format>image/svg+xml</dc:format>
    <dc:creator>
     <cc:Agent>
      <dc:title>Matplotlib v3.8.3, https://matplotlib.org/</dc:title>
     </cc:Agent>
    </dc:creator>
   </cc:Work>
  </rdf:RDF>
 </metadata>
 <defs>
  <style type="text/css">*{stroke-linejoin: round; stroke-linecap: butt}</style>
 </defs>
 <g id="figure_1">
  <g id="patch_1">
   <path d="M 0 84.96 
L 141.12 84.96 
L 141.12 0 
L 0 0 
z
" style="fill: #ffffff"/>
  </g>
  <g id="axes_1">
   <g id="patch_2">
    <path d="M 8.336802 74.419526 
L 138.11976 74.419526 
L 138.11976 4.076256 
L 8.336802 4.076256 
z
" style="fill: #ffffff"/>
   </g>
   <g id="matplotlib.axis_1">
    <g id="xtick_1">
     <g id="text_1">
      <!-- NK/ILC1ie -->
      <g style="fill: #333333" transform="translate(13.339473 81.230229) scale(0.035 -0.035)">
       <defs>
        <path id="Helvetica-4e" d="M 488 4591 
L 1222 4591 
L 3541 872 
L 3541 4591 
L 4131 4591 
L 4131 0 
L 3434 0 
L 1081 3716 
L 1081 0 
L 488 0 
L 488 4591 
z
M 2269 4591 
L 2269 4591 
z
" transform="scale(0.015625)"/>
        <path id="Helvetica-4b" d="M 488 4591 
L 1094 4591 
L 1094 2353 
L 3331 4591 
L 4191 4591 
L 2281 2741 
L 4244 0 
L 3434 0 
L 1828 2303 
L 1094 1600 
L 1094 0 
L 488 0 
L 488 4591 
z
" transform="scale(0.015625)"/>
        <path id="Helvetica-2f" d="M 1456 4591 
L 1931 4591 
L 475 0 
L 0 0 
L 1456 4591 
z
" transform="scale(0.015625)"/>
        <path id="Helvetica-49" d="M 628 4591 
L 1256 4591 
L 1256 0 
L 628 0 
L 628 4591 
z
" transform="scale(0.015625)"/>
        <path id="Helvetica-4c" d="M 488 4591 
L 1109 4591 
L 1109 547 
L 3434 547 
L 3434 0 
L 488 0 
L 488 4591 
z
" transform="scale(0.015625)"/>
        <path id="Helvetica-43" d="M 2422 4716 
Q 3294 4716 3775 4256 
Q 4256 3797 4309 3213 
L 3703 3213 
Q 3600 3656 3292 3915 
Q 2984 4175 2428 4175 
Q 1750 4175 1333 3698 
Q 916 3222 916 2238 
Q 916 1431 1292 929 
Q 1669 428 2416 428 
Q 3103 428 3463 956 
Q 3653 1234 3747 1688 
L 4353 1688 
Q 4272 963 3816 472 
Q 3269 -119 2341 -119 
Q 1541 -119 997 366 
Q 281 1006 281 2344 
Q 281 3359 819 4009 
Q 1400 4716 2422 4716 
z
M 2297 4716 
L 2297 4716 
z
" transform="scale(0.015625)"/>
        <path id="Helvetica-31" d="M 613 3169 
L 613 3600 
Q 1222 3659 1462 3798 
Q 1703 3938 1822 4456 
L 2266 4456 
L 2266 0 
L 1666 0 
L 1666 3169 
L 613 3169 
z
" transform="scale(0.015625)"/>
        <path id="Helvetica-69" d="M 413 3331 
L 984 3331 
L 984 0 
L 413 0 
L 413 3331 
z
M 413 4591 
L 984 4591 
L 984 3953 
L 413 3953 
L 413 4591 
z
" transform="scale(0.015625)"/>
        <path id="Helvetica-65" d="M 1806 3422 
Q 2163 3422 2497 3255 
Q 2831 3088 3006 2822 
Q 3175 2569 3231 2231 
Q 3281 2000 3281 1494 
L 828 1494 
Q 844 984 1069 676 
Q 1294 369 1766 369 
Q 2206 369 2469 659 
Q 2619 828 2681 1050 
L 3234 1050 
Q 3213 866 3089 639 
Q 2966 413 2813 269 
Q 2556 19 2178 -69 
Q 1975 -119 1719 -119 
Q 1094 -119 659 336 
Q 225 791 225 1609 
Q 225 2416 662 2919 
Q 1100 3422 1806 3422 
z
M 2703 1941 
Q 2669 2306 2544 2525 
Q 2313 2931 1772 2931 
Q 1384 2931 1121 2651 
Q 859 2372 844 1941 
L 2703 1941 
z
M 1753 3428 
L 1753 3428 
z
" transform="scale(0.015625)"/>
       </defs>
       <use xlink:href="#Helvetica-4e"/>
       <use xlink:href="#Helvetica-4b" x="72.216797"/>
       <use xlink:href="#Helvetica-2f" x="138.916016"/>
       <use xlink:href="#Helvetica-49" x="166.699219"/>
       <use xlink:href="#Helvetica-4c" x="194.482422"/>
       <use xlink:href="#Helvetica-43" x="250.097656"/>
       <use xlink:href="#Helvetica-31" x="322.314453"/>
       <use xlink:href="#Helvetica-69" x="377.929688"/>
       <use xlink:href="#Helvetica-65" x="400.146484"/>
      </g>
     </g>
    </g>
    <g id="xtick_2">
     <g id="text_2">
      <!-- ILC1 -->
      <g style="fill: #333333" transform="translate(43.575362 81.230229) scale(0.035 -0.035)">
       <use xlink:href="#Helvetica-49"/>
       <use xlink:href="#Helvetica-4c" x="27.783203"/>
       <use xlink:href="#Helvetica-43" x="83.398438"/>
       <use xlink:href="#Helvetica-31" x="155.615234"/>
      </g>
     </g>
    </g>
    <g id="xtick_3">
     <g id="text_3">
      <!-- TH1 -->
      <g style="fill: #333333" transform="translate(69.922422 81.230229) scale(0.035 -0.035)">
       <defs>
        <path id="Helvetica-54" d="M 3828 4591 
L 3828 4044 
L 2281 4044 
L 2281 0 
L 1650 0 
L 1650 4044 
L 103 4044 
L 103 4591 
L 3828 4591 
z
" transform="scale(0.015625)"/>
        <path id="Helvetica-48" d="M 503 4591 
L 1131 4591 
L 1131 2694 
L 3519 2694 
L 3519 4591 
L 4147 4591 
L 4147 0 
L 3519 0 
L 3519 2147 
L 1131 2147 
L 1131 0 
L 503 0 
L 503 4591 
z
" transform="scale(0.015625)"/>
       </defs>
       <use xlink:href="#Helvetica-54"/>
       <use xlink:href="#Helvetica-48" x="61.083984"/>
       <use xlink:href="#Helvetica-31" x="133.300781"/>
      </g>
     </g>
    </g>
    <g id="xtick_4">
     <g id="text_4">
      <!-- icCD3+ NK/ILC1ie -->
      <g style="fill: #333333" transform="translate(84.936318 81.230229) scale(0.035 -0.035)">
       <defs>
        <path id="Helvetica-63" d="M 1703 3444 
Q 2269 3444 2623 3169 
Q 2978 2894 3050 2222 
L 2503 2222 
Q 2453 2531 2275 2736 
Q 2097 2941 1703 2941 
Q 1166 2941 934 2416 
Q 784 2075 784 1575 
Q 784 1072 996 728 
Q 1209 384 1666 384 
Q 2016 384 2220 598 
Q 2425 813 2503 1184 
L 3050 1184 
Q 2956 519 2581 211 
Q 2206 -97 1622 -97 
Q 966 -97 575 383 
Q 184 863 184 1581 
Q 184 2463 612 2953 
Q 1041 3444 1703 3444 
z
M 1616 3428 
L 1616 3428 
z
" transform="scale(0.015625)"/>
        <path id="Helvetica-44" d="M 2250 531 
Q 2566 531 2769 597 
Q 3131 719 3363 1066 
Q 3547 1344 3628 1778 
Q 3675 2038 3675 2259 
Q 3675 3113 3336 3584 
Q 2997 4056 2244 4056 
L 1141 4056 
L 1141 531 
L 2250 531 
z
M 516 4591 
L 2375 4591 
Q 3322 4591 3844 3919 
Q 4309 3313 4309 2366 
Q 4309 1634 4034 1044 
Q 3550 0 2369 0 
L 516 0 
L 516 4591 
z
" transform="scale(0.015625)"/>
        <path id="Helvetica-33" d="M 1663 -122 
Q 869 -122 511 314 
Q 153 750 153 1375 
L 741 1375 
Q 778 941 903 744 
Q 1122 391 1694 391 
Q 2138 391 2406 628 
Q 2675 866 2675 1241 
Q 2675 1703 2392 1887 
Q 2109 2072 1606 2072 
Q 1550 2072 1492 2070 
Q 1434 2069 1375 2066 
L 1375 2563 
Q 1463 2553 1522 2550 
Q 1581 2547 1650 2547 
Q 1966 2547 2169 2647 
Q 2525 2822 2525 3272 
Q 2525 3606 2287 3787 
Q 2050 3969 1734 3969 
Q 1172 3969 956 3594 
Q 838 3388 822 3006 
L 266 3006 
Q 266 3506 466 3856 
Q 809 4481 1675 4481 
Q 2359 4481 2734 4176 
Q 3109 3872 3109 3294 
Q 3109 2881 2888 2625 
Q 2750 2466 2531 2375 
Q 2884 2278 3082 2001 
Q 3281 1725 3281 1325 
Q 3281 684 2859 281 
Q 2438 -122 1663 -122 
z
" transform="scale(0.015625)"/>
        <path id="Helvetica-2b" d="M 288 1369 
L 288 1894 
L 1650 1894 
L 1650 3266 
L 2184 3266 
L 2184 1894 
L 3547 1894 
L 3547 1369 
L 2184 1369 
L 2184 0 
L 1650 0 
L 1650 1369 
L 288 1369 
z
" transform="scale(0.015625)"/>
        <path id="Helvetica-20" transform="scale(0.015625)"/>
       </defs>
       <use xlink:href="#Helvetica-69"/>
       <use xlink:href="#Helvetica-63" x="22.216797"/>
       <use xlink:href="#Helvetica-43" x="72.216797"/>
       <use xlink:href="#Helvetica-44" x="144.433594"/>
       <use xlink:href="#Helvetica-33" x="216.650391"/>
       <use xlink:href="#Helvetica-2b" x="272.265625"/>
       <use xlink:href="#Helvetica-20" x="330.664062"/>
       <use xlink:href="#Helvetica-4e" x="358.447266"/>
       <use xlink:href="#Helvetica-4b" x="430.664062"/>
       <use xlink:href="#Helvetica-2f" x="497.363281"/>
       <use xlink:href="#Helvetica-49" x="525.146484"/>
       <use xlink:href="#Helvetica-4c" x="552.929688"/>
       <use xlink:href="#Helvetica-43" x="608.544922"/>
       <use xlink:href="#Helvetica-31" x="680.761719"/>
       <use xlink:href="#Helvetica-69" x="736.376953"/>
       <use xlink:href="#Helvetica-65" x="758.59375"/>
      </g>
     </g>
    </g>
    <g id="xtick_5">
     <g id="text_5">
      <!-- icCD3+ ILC1 -->
      <g style="fill: #333333" transform="translate(115.172206 81.230229) scale(0.035 -0.035)">
       <use xlink:href="#Helvetica-69"/>
       <use xlink:href="#Helvetica-63" x="22.216797"/>
       <use xlink:href="#Helvetica-43" x="72.216797"/>
       <use xlink:href="#Helvetica-44" x="144.433594"/>
       <use xlink:href="#Helvetica-33" x="216.650391"/>
       <use xlink:href="#Helvetica-2b" x="272.265625"/>
       <use xlink:href="#Helvetica-20" x="330.664062"/>
       <use xlink:href="#Helvetica-49" x="358.447266"/>
       <use xlink:href="#Helvetica-4c" x="386.230469"/>
       <use xlink:href="#Helvetica-43" x="441.845703"/>
       <use xlink:href="#Helvetica-31" x="514.0625"/>
      </g>
     </g>
    </g>
   </g>
   <g id="matplotlib.axis_2">
    <g id="ytick_1">
     <g id="line2d_1">
      <defs>
       <path id="m7a6bbba55a" d="M 0 0 
L -1 0 
" style="stroke: #777777; stroke-width: 0.5"/>
      </defs>
      <g>
       <use xlink:href="#m7a6bbba55a" x="8.336802" y="66.995102" style="fill: #777777; stroke: #777777; stroke-width: 0.5"/>
      </g>
     </g>
     <g id="text_6">
      <!-- 0 -->
      <g style="fill: #333333" transform="translate(4.668521 68.071117) scale(0.03 -0.03)">
       <defs>
        <path id="Helvetica-30" d="M 1731 4475 
Q 2600 4475 2988 3759 
Q 3288 3206 3288 2244 
Q 3288 1331 3016 734 
Q 2622 -122 1728 -122 
Q 922 -122 528 578 
Q 200 1163 200 2147 
Q 200 2909 397 3456 
Q 766 4475 1731 4475 
z
M 1725 391 
Q 2163 391 2422 778 
Q 2681 1166 2681 2222 
Q 2681 2984 2493 3476 
Q 2306 3969 1766 3969 
Q 1269 3969 1039 3501 
Q 809 3034 809 2125 
Q 809 1441 956 1025 
Q 1181 391 1725 391 
z
" transform="scale(0.015625)"/>
       </defs>
       <use xlink:href="#Helvetica-30"/>
      </g>
     </g>
    </g>
    <g id="ytick_2">
     <g id="line2d_2">
      <g>
       <use xlink:href="#m7a6bbba55a" x="8.336802" y="54.411333" style="fill: #777777; stroke: #777777; stroke-width: 0.5"/>
      </g>
     </g>
     <g id="text_7">
      <!-- 10 -->
      <g style="fill: #333333" transform="translate(3.00024 55.487348) scale(0.03 -0.03)">
       <use xlink:href="#Helvetica-31"/>
       <use xlink:href="#Helvetica-30" x="55.615234"/>
      </g>
     </g>
    </g>
    <g id="ytick_3">
     <g id="line2d_3">
      <g>
       <use xlink:href="#m7a6bbba55a" x="8.336802" y="41.827563" style="fill: #777777; stroke: #777777; stroke-width: 0.5"/>
      </g>
     </g>
     <g id="text_8">
      <!-- 20 -->
      <g style="fill: #333333" transform="translate(3.00024 42.903579) scale(0.03 -0.03)">
       <defs>
        <path id="Helvetica-32" d="M 200 0 
Q 231 578 439 1006 
Q 647 1434 1250 1784 
L 1850 2131 
Q 2253 2366 2416 2531 
Q 2672 2791 2672 3125 
Q 2672 3516 2437 3745 
Q 2203 3975 1813 3975 
Q 1234 3975 1013 3538 
Q 894 3303 881 2888 
L 309 2888 
Q 319 3472 525 3841 
Q 891 4491 1816 4491 
Q 2584 4491 2939 4075 
Q 3294 3659 3294 3150 
Q 3294 2613 2916 2231 
Q 2697 2009 2131 1694 
L 1703 1456 
Q 1397 1288 1222 1134 
Q 909 863 828 531 
L 3272 531 
L 3272 0 
L 200 0 
z
" transform="scale(0.015625)"/>
       </defs>
       <use xlink:href="#Helvetica-32"/>
       <use xlink:href="#Helvetica-30" x="55.615234"/>
      </g>
     </g>
    </g>
    <g id="ytick_4">
     <g id="line2d_4">
      <g>
       <use xlink:href="#m7a6bbba55a" x="8.336802" y="29.243794" style="fill: #777777; stroke: #777777; stroke-width: 0.5"/>
      </g>
     </g>
     <g id="text_9">
      <!-- 30 -->
      <g style="fill: #333333" transform="translate(3.00024 30.31981) scale(0.03 -0.03)">
       <use xlink:href="#Helvetica-33"/>
       <use xlink:href="#Helvetica-30" x="55.615234"/>
      </g>
     </g>
    </g>
    <g id="ytick_5">
     <g id="line2d_5">
      <g>
       <use xlink:href="#m7a6bbba55a" x="8.336802" y="16.660025" style="fill: #777777; stroke: #777777; stroke-width: 0.5"/>
      </g>
     </g>
     <g id="text_10">
      <!-- 40 -->
      <g style="fill: #333333" transform="translate(3.00024 17.73604) scale(0.03 -0.03)">
       <defs>
        <path id="Helvetica-34" d="M 2116 1584 
L 2116 3613 
L 681 1584 
L 2116 1584 
z
M 2125 0 
L 2125 1094 
L 163 1094 
L 163 1644 
L 2213 4488 
L 2688 4488 
L 2688 1584 
L 3347 1584 
L 3347 1094 
L 2688 1094 
L 2688 0 
L 2125 0 
z
" transform="scale(0.015625)"/>
       </defs>
       <use xlink:href="#Helvetica-34"/>
       <use xlink:href="#Helvetica-30" x="55.615234"/>
      </g>
     </g>
    </g>
    <g id="ytick_6">
     <g id="line2d_6">
      <g>
       <use xlink:href="#m7a6bbba55a" x="8.336802" y="4.076256" style="fill: #777777; stroke: #777777; stroke-width: 0.5"/>
      </g>
     </g>
     <g id="text_11">
      <!-- 50 -->
      <g style="fill: #333333" transform="translate(3.00024 5.152271) scale(0.03 -0.03)">
       <defs>
        <path id="Helvetica-35" d="M 791 1141 
Q 847 659 1238 475 
Q 1438 381 1700 381 
Q 2200 381 2440 700 
Q 2681 1019 2681 1406 
Q 2681 1875 2395 2131 
Q 2109 2388 1709 2388 
Q 1419 2388 1211 2275 
Q 1003 2163 856 1963 
L 369 1991 
L 709 4400 
L 3034 4400 
L 3034 3856 
L 1131 3856 
L 941 2613 
Q 1097 2731 1238 2791 
Q 1488 2894 1816 2894 
Q 2431 2894 2859 2497 
Q 3288 2100 3288 1491 
Q 3288 856 2895 371 
Q 2503 -113 1644 -113 
Q 1097 -113 676 195 
Q 256 503 206 1141 
L 791 1141 
z
" transform="scale(0.015625)"/>
       </defs>
       <use xlink:href="#Helvetica-35"/>
       <use xlink:href="#Helvetica-30" x="55.615234"/>
      </g>
     </g>
    </g>
   </g>
   <g id="PolyCollection_1">
    <defs>
     <path id="m4697c40f0c" d="M 23.497938 -17.942716 
L 19.132258 -17.942716 
L 18.699203 -17.944428 
L 18.215985 -17.946141 
L 17.685215 -17.947854 
L 17.111642 -17.949567 
L 16.50226 -17.95128 
L 15.866298 -17.952992 
L 15.215077 -17.954705 
L 14.561716 -17.956418 
L 13.920702 -17.958131 
L 13.307343 -17.959844 
L 12.737106 -17.961556 
L 12.224916 -17.963269 
L 11.784428 -17.964982 
L 11.427339 -17.966695 
L 11.162792 -17.968408 
L 10.996903 -17.970121 
L 10.932462 -17.971833 
L 10.968825 -17.973546 
L 11.102008 -17.975259 
L 11.324967 -17.976972 
L 11.62806 -17.978685 
L 11.999633 -17.980397 
L 12.426702 -17.98211 
L 12.895667 -17.983823 
L 13.393013 -17.985536 
L 13.905943 -17.987249 
L 14.422912 -17.988962 
L 14.934015 -17.990674 
L 15.431239 -17.992387 
L 15.908551 -17.9941 
L 16.361845 -17.995813 
L 16.788773 -17.997526 
L 17.188481 -17.999238 
L 17.561291 -18.000951 
L 17.908355 -18.002664 
L 18.231326 -18.004377 
L 18.532062 -18.00609 
L 18.812383 -18.007803 
L 19.073903 -18.009515 
L 19.317921 -18.011228 
L 19.54539 -18.012941 
L 19.756926 -18.014654 
L 19.952877 -18.016367 
L 20.133398 -18.018079 
L 20.298554 -18.019792 
L 20.448407 -18.021505 
L 20.583098 -18.023218 
L 20.702902 -18.024931 
L 20.808265 -18.026644 
L 20.89981 -18.028356 
L 20.978326 -18.030069 
L 21.044741 -18.031782 
L 21.100074 -18.033495 
L 21.145389 -18.035208 
L 21.181741 -18.03692 
L 21.210128 -18.038633 
L 21.231441 -18.040346 
L 21.246434 -18.042059 
L 21.255683 -18.043772 
L 21.259574 -18.045485 
L 21.258288 -18.047197 
L 21.251797 -18.04891 
L 21.239872 -18.050623 
L 21.222103 -18.052336 
L 21.197922 -18.054049 
L 21.166647 -18.055761 
L 21.12753 -18.057474 
L 21.07982 -18.059187 
L 21.022835 -18.0609 
L 20.956042 -18.062613 
L 20.879144 -18.064326 
L 20.792159 -18.066038 
L 20.6955 -18.067751 
L 20.59004 -18.069464 
L 20.47715 -18.071177 
L 20.358718 -18.07289 
L 20.237127 -18.074602 
L 20.115203 -18.076315 
L 19.996121 -18.078028 
L 19.883278 -18.079741 
L 19.780141 -18.081454 
L 19.690072 -18.083167 
L 19.616148 -18.084879 
L 19.560987 -18.086592 
L 19.526595 -18.088305 
L 19.514245 -18.090018 
L 19.524397 -18.091731 
L 19.556673 -18.093443 
L 19.609877 -18.095156 
L 19.682071 -18.096869 
L 19.770689 -18.098582 
L 19.872692 -18.100295 
L 19.98474 -18.102008 
L 20.103368 -18.10372 
L 20.225167 -18.105433 
L 20.346935 -18.107146 
L 20.465813 -18.108859 
L 20.579374 -18.110572 
L 20.68569 -18.112284 
L 21.944507 -18.112284 
L 21.944507 -18.112284 
L 22.050823 -18.110572 
L 22.164384 -18.108859 
L 22.283261 -18.107146 
L 22.40503 -18.105433 
L 22.526828 -18.10372 
L 22.645457 -18.102008 
L 22.757504 -18.100295 
L 22.859508 -18.098582 
L 22.948126 -18.096869 
L 23.020319 -18.095156 
L 23.073523 -18.093443 
L 23.105799 -18.091731 
L 23.115951 -18.090018 
L 23.103601 -18.088305 
L 23.06921 -18.086592 
L 23.014049 -18.084879 
L 22.940125 -18.083167 
L 22.850056 -18.081454 
L 22.746919 -18.079741 
L 22.634076 -18.078028 
L 22.514993 -18.076315 
L 22.393069 -18.074602 
L 22.271479 -18.07289 
L 22.153046 -18.071177 
L 22.040157 -18.069464 
L 21.934696 -18.067751 
L 21.838038 -18.066038 
L 21.751052 -18.064326 
L 21.674154 -18.062613 
L 21.607362 -18.0609 
L 21.550377 -18.059187 
L 21.502667 -18.057474 
L 21.46355 -18.055761 
L 21.432275 -18.054049 
L 21.408094 -18.052336 
L 21.390324 -18.050623 
L 21.3784 -18.04891 
L 21.371909 -18.047197 
L 21.370622 -18.045485 
L 21.374514 -18.043772 
L 21.383763 -18.042059 
L 21.398755 -18.040346 
L 21.420069 -18.038633 
L 21.448455 -18.03692 
L 21.484807 -18.035208 
L 21.530122 -18.033495 
L 21.585455 -18.031782 
L 21.65187 -18.030069 
L 21.730387 -18.028356 
L 21.821931 -18.026644 
L 21.927294 -18.024931 
L 22.047099 -18.023218 
L 22.18179 -18.021505 
L 22.331643 -18.019792 
L 22.496799 -18.018079 
L 22.67732 -18.016367 
L 22.87327 -18.014654 
L 23.084807 -18.012941 
L 23.312275 -18.011228 
L 23.556294 -18.009515 
L 23.817813 -18.007803 
L 24.098135 -18.00609 
L 24.39887 -18.004377 
L 24.721842 -18.002664 
L 25.068906 -18.000951 
L 25.441715 -17.999238 
L 25.841424 -17.997526 
L 26.268352 -17.995813 
L 26.721646 -17.9941 
L 27.198957 -17.992387 
L 27.696182 -17.990674 
L 28.207285 -17.988962 
L 28.724253 -17.987249 
L 29.237184 -17.985536 
L 29.73453 -17.983823 
L 30.203495 -17.98211 
L 30.630564 -17.980397 
L 31.002137 -17.978685 
L 31.305229 -17.976972 
L 31.528189 -17.975259 
L 31.661371 -17.973546 
L 31.697735 -17.971833 
L 31.633294 -17.970121 
L 31.467404 -17.968408 
L 31.202857 -17.966695 
L 30.845769 -17.964982 
L 30.405281 -17.963269 
L 29.893091 -17.961556 
L 29.322854 -17.959844 
L 28.709494 -17.958131 
L 28.068481 -17.956418 
L 27.415119 -17.954705 
L 26.763898 -17.952992 
L 26.127937 -17.95128 
L 25.518555 -17.949567 
L 24.944982 -17.947854 
L 24.414212 -17.946141 
L 23.930994 -17.944428 
L 23.497938 -17.942716 
z
" style="stroke: #6f6f6f; stroke-width: 0.15"/>
    </defs>
    <g clip-path="url(#p61707419a3)">
     <use xlink:href="#m4697c40f0c" x="0" y="84.96" style="fill: #98daa7; stroke: #6f6f6f; stroke-width: 0.15"/>
    </g>
   </g>
   <g id="PolyCollection_2">
    <defs>
     <path id="md117a306d2" d="M 48.579537 -17.234889 
L 45.963842 -17.234889 
L 45.659211 -17.296918 
L 45.30558 -17.358946 
L 44.900852 -17.420974 
L 44.444349 -17.483002 
L 43.937144 -17.545031 
L 43.382358 -17.607059 
L 42.785383 -17.669087 
L 42.154016 -17.731115 
L 41.498466 -17.793143 
L 40.831223 -17.855172 
L 40.166772 -17.9172 
L 39.521145 -17.979228 
L 38.911342 -18.041256 
L 38.354615 -18.103285 
L 37.867691 -18.165313 
L 37.465942 -18.227341 
L 37.162592 -18.289369 
L 36.967997 -18.351398 
L 36.889053 -18.413426 
L 36.928798 -18.475454 
L 37.086211 -18.537482 
L 37.356253 -18.599511 
L 37.730134 -18.661539 
L 38.195786 -18.723567 
L 38.738515 -18.785595 
L 39.341774 -18.847624 
L 39.988004 -18.909652 
L 40.659484 -18.97168 
L 41.339128 -19.033708 
L 42.011184 -19.095737 
L 42.661795 -19.157765 
L 43.279402 -19.219793 
L 43.854968 -19.281821 
L 44.382049 -19.34385 
L 44.856704 -19.405878 
L 45.277292 -19.467906 
L 45.644173 -19.529934 
L 45.959351 -19.591963 
L 46.226095 -19.653991 
L 46.448559 -19.716019 
L 46.631435 -19.778047 
L 46.779644 -19.840076 
L 46.898079 -19.902104 
L 46.991412 -19.964132 
L 47.063954 -20.02616 
L 47.119567 -20.088189 
L 47.161618 -20.150217 
L 47.192977 -20.212245 
L 47.216031 -20.274273 
L 47.232725 -20.336302 
L 47.244606 -20.39833 
L 47.252876 -20.460358 
L 47.258445 -20.522386 
L 47.261973 -20.584414 
L 47.263915 -20.646443 
L 47.264549 -20.708471 
L 47.264006 -20.770499 
L 47.262284 -20.832527 
L 47.259259 -20.894556 
L 47.254691 -20.956584 
L 47.24823 -21.018612 
L 47.239411 -21.08064 
L 47.227662 -21.142669 
L 47.212307 -21.204697 
L 47.192576 -21.266725 
L 47.167629 -21.328753 
L 47.136583 -21.390782 
L 47.098553 -21.45281 
L 47.052713 -21.514838 
L 46.998351 -21.576866 
L 46.934952 -21.638895 
L 46.862267 -21.700923 
L 46.780397 -21.762951 
L 46.689861 -21.824979 
L 46.591646 -21.887008 
L 46.487239 -21.949036 
L 46.378627 -22.011064 
L 46.268264 -22.073092 
L 46.158997 -22.135121 
L 46.053956 -22.197149 
L 45.956414 -22.259177 
L 45.869625 -22.321205 
L 45.796641 -22.383234 
L 45.740138 -22.445262 
L 45.702252 -22.50729 
L 45.684447 -22.569318 
L 45.687417 -22.631347 
L 45.711047 -22.693375 
L 45.754416 -22.755403 
L 45.815857 -22.817431 
L 45.893064 -22.87946 
L 45.983239 -22.941488 
L 46.083251 -23.003516 
L 46.189826 -23.065544 
L 46.299715 -23.127573 
L 46.409853 -23.189601 
L 46.517498 -23.251629 
L 46.620323 -23.313657 
L 46.716481 -23.375686 
L 47.826899 -23.375686 
L 47.826899 -23.375686 
L 47.923057 -23.313657 
L 48.025882 -23.251629 
L 48.133526 -23.189601 
L 48.243665 -23.127573 
L 48.353553 -23.065544 
L 48.460128 -23.003516 
L 48.560141 -22.941488 
L 48.650315 -22.87946 
L 48.727523 -22.817431 
L 48.788964 -22.755403 
L 48.832332 -22.693375 
L 48.855963 -22.631347 
L 48.858933 -22.569318 
L 48.841127 -22.50729 
L 48.803241 -22.445262 
L 48.746738 -22.383234 
L 48.673754 -22.321205 
L 48.586965 -22.259177 
L 48.489424 -22.197149 
L 48.384382 -22.135121 
L 48.275115 -22.073092 
L 48.164752 -22.011064 
L 48.056141 -21.949036 
L 47.951733 -21.887008 
L 47.853518 -21.824979 
L 47.762982 -21.762951 
L 47.681113 -21.700923 
L 47.608428 -21.638895 
L 47.545028 -21.576866 
L 47.490666 -21.514838 
L 47.444826 -21.45281 
L 47.406797 -21.390782 
L 47.37575 -21.328753 
L 47.350803 -21.266725 
L 47.331072 -21.204697 
L 47.315717 -21.142669 
L 47.303969 -21.08064 
L 47.29515 -21.018612 
L 47.288689 -20.956584 
L 47.284121 -20.894556 
L 47.281095 -20.832527 
L 47.279373 -20.770499 
L 47.27883 -20.708471 
L 47.279465 -20.646443 
L 47.281407 -20.584414 
L 47.284935 -20.522386 
L 47.290503 -20.460358 
L 47.298774 -20.39833 
L 47.310655 -20.336302 
L 47.327348 -20.274273 
L 47.350403 -20.212245 
L 47.381762 -20.150217 
L 47.423813 -20.088189 
L 47.479425 -20.02616 
L 47.551967 -19.964132 
L 47.645301 -19.902104 
L 47.763736 -19.840076 
L 47.911944 -19.778047 
L 48.094821 -19.716019 
L 48.317285 -19.653991 
L 48.584028 -19.591963 
L 48.899206 -19.529934 
L 49.266087 -19.467906 
L 49.686676 -19.405878 
L 50.161331 -19.34385 
L 50.688412 -19.281821 
L 51.263978 -19.219793 
L 51.881584 -19.157765 
L 52.532196 -19.095737 
L 53.204251 -19.033708 
L 53.883895 -18.97168 
L 54.555375 -18.909652 
L 55.201605 -18.847624 
L 55.804864 -18.785595 
L 56.347593 -18.723567 
L 56.813245 -18.661539 
L 57.187126 -18.599511 
L 57.457169 -18.537482 
L 57.614582 -18.475454 
L 57.654326 -18.413426 
L 57.575383 -18.351398 
L 57.380787 -18.289369 
L 57.077438 -18.227341 
L 56.675689 -18.165313 
L 56.188764 -18.103285 
L 55.632038 -18.041256 
L 55.022234 -17.979228 
L 54.376608 -17.9172 
L 53.712156 -17.855172 
L 53.044914 -17.793143 
L 52.389364 -17.731115 
L 51.757996 -17.669087 
L 51.161021 -17.607059 
L 50.606235 -17.545031 
L 50.099031 -17.483002 
L 49.642527 -17.420974 
L 49.237799 -17.358946 
L 48.884169 -17.296918 
L 48.579537 -17.234889 
z
" style="stroke: #6f6f6f; stroke-width: 0.15"/>
    </defs>
    <g clip-path="url(#p61707419a3)">
     <use xlink:href="#md117a306d2" x="0" y="84.96" style="fill: #f2aba8; stroke: #6f6f6f; stroke-width: 0.15"/>
    </g>
   </g>
   <g id="PolyCollection_3">
    <defs>
     <path id="md782a70cdc" d="M 76.364168 -17.885102 
L 70.092394 -17.885102 
L 69.606071 -17.890477 
L 69.083542 -17.895852 
L 68.530001 -17.901228 
L 67.952235 -17.906603 
L 67.358561 -17.911979 
L 66.75866 -17.917354 
L 66.163334 -17.922729 
L 65.58418 -17.928105 
L 65.033196 -17.93348 
L 64.522326 -17.938855 
L 64.062995 -17.944231 
L 63.665621 -17.949606 
L 63.339175 -17.954982 
L 63.09078 -17.960357 
L 62.925403 -17.965732 
L 62.845645 -17.971108 
L 62.851643 -17.976483 
L 62.941106 -17.981858 
L 63.109467 -17.987234 
L 63.350139 -17.992609 
L 63.654874 -17.997984 
L 64.014184 -18.00336 
L 64.417806 -18.008735 
L 64.855165 -18.014111 
L 65.315833 -18.019486 
L 65.78993 -18.024861 
L 66.268462 -18.030237 
L 66.74357 -18.035612 
L 67.208699 -18.040987 
L 67.658663 -18.046363 
L 68.089636 -18.051738 
L 68.499054 -18.057114 
L 68.885474 -18.062489 
L 69.248383 -18.067864 
L 69.587982 -18.07324 
L 69.904977 -18.078615 
L 70.200374 -18.08399 
L 70.475292 -18.089366 
L 70.730822 -18.094741 
L 70.967911 -18.100117 
L 71.18729 -18.105492 
L 71.389435 -18.110867 
L 71.574563 -18.116243 
L 71.742648 -18.121618 
L 71.893461 -18.126993 
L 72.026622 -18.132369 
L 72.141653 -18.137744 
L 72.238043 -18.14312 
L 72.315297 -18.148495 
L 72.372994 -18.15387 
L 72.410827 -18.159246 
L 72.428649 -18.164621 
L 72.426498 -18.169996 
L 72.40463 -18.175372 
L 72.363535 -18.180747 
L 72.303953 -18.186123 
L 72.226883 -18.191498 
L 72.133583 -18.196873 
L 72.025564 -18.202249 
L 71.904582 -18.207624 
L 71.772608 -18.212999 
L 71.631803 -18.218375 
L 71.484482 -18.22375 
L 71.333064 -18.229126 
L 71.180026 -18.234501 
L 71.02785 -18.239876 
L 70.878971 -18.245252 
L 70.735726 -18.250627 
L 70.600314 -18.256002 
L 70.474754 -18.261378 
L 70.360858 -18.266753 
L 70.260217 -18.272129 
L 70.174182 -18.277504 
L 70.103871 -18.282879 
L 70.050166 -18.288255 
L 70.013725 -18.29363 
L 69.994987 -18.299005 
L 69.994179 -18.304381 
L 70.011325 -18.309756 
L 70.046246 -18.315132 
L 70.098554 -18.320507 
L 70.167653 -18.325882 
L 70.252733 -18.331258 
L 70.352763 -18.336633 
L 70.466496 -18.342008 
L 70.59247 -18.347384 
L 70.729028 -18.352759 
L 70.874339 -18.358135 
L 71.026432 -18.36351 
L 71.183238 -18.368885 
L 71.342645 -18.374261 
L 71.502546 -18.379636 
L 71.660901 -18.385011 
L 71.815792 -18.390387 
L 71.965473 -18.395762 
L 72.108414 -18.401138 
L 72.243336 -18.406513 
L 72.369232 -18.411888 
L 72.485375 -18.417264 
L 73.971187 -18.417264 
L 73.971187 -18.417264 
L 74.087331 -18.411888 
L 74.213226 -18.406513 
L 74.348149 -18.401138 
L 74.49109 -18.395762 
L 74.640771 -18.390387 
L 74.795662 -18.385011 
L 74.954017 -18.379636 
L 75.113918 -18.374261 
L 75.273324 -18.368885 
L 75.430131 -18.36351 
L 75.582223 -18.358135 
L 75.727534 -18.352759 
L 75.864092 -18.347384 
L 75.990066 -18.342008 
L 76.103799 -18.336633 
L 76.20383 -18.331258 
L 76.288909 -18.325882 
L 76.358009 -18.320507 
L 76.410317 -18.315132 
L 76.445237 -18.309756 
L 76.462384 -18.304381 
L 76.461576 -18.299005 
L 76.442837 -18.29363 
L 76.406396 -18.288255 
L 76.352692 -18.282879 
L 76.282381 -18.277504 
L 76.196346 -18.272129 
L 76.095704 -18.266753 
L 75.981809 -18.261378 
L 75.856248 -18.256002 
L 75.720836 -18.250627 
L 75.577592 -18.245252 
L 75.428712 -18.239876 
L 75.276536 -18.234501 
L 75.123498 -18.229126 
L 74.97208 -18.22375 
L 74.824759 -18.218375 
L 74.683955 -18.212999 
L 74.551981 -18.207624 
L 74.430998 -18.202249 
L 74.32298 -18.196873 
L 74.229679 -18.191498 
L 74.152609 -18.186123 
L 74.093027 -18.180747 
L 74.051932 -18.175372 
L 74.030064 -18.169996 
L 74.027914 -18.164621 
L 74.045735 -18.159246 
L 74.083569 -18.15387 
L 74.141265 -18.148495 
L 74.218519 -18.14312 
L 74.314909 -18.137744 
L 74.429941 -18.132369 
L 74.563102 -18.126993 
L 74.713915 -18.121618 
L 74.882 -18.116243 
L 75.067127 -18.110867 
L 75.269273 -18.105492 
L 75.488652 -18.100117 
L 75.725741 -18.094741 
L 75.981271 -18.089366 
L 76.256189 -18.08399 
L 76.551585 -18.078615 
L 76.868581 -18.07324 
L 77.20818 -18.067864 
L 77.571088 -18.062489 
L 77.957508 -18.057114 
L 78.366927 -18.051738 
L 78.797899 -18.046363 
L 79.247864 -18.040987 
L 79.712993 -18.035612 
L 80.188101 -18.030237 
L 80.666632 -18.024861 
L 81.140729 -18.019486 
L 81.601398 -18.014111 
L 82.038757 -18.008735 
L 82.442378 -18.00336 
L 82.801689 -17.997984 
L 83.106424 -17.992609 
L 83.347095 -17.987234 
L 83.515456 -17.981858 
L 83.60492 -17.976483 
L 83.610918 -17.971108 
L 83.531159 -17.965732 
L 83.365783 -17.960357 
L 83.117388 -17.954982 
L 82.790942 -17.949606 
L 82.393568 -17.944231 
L 81.934236 -17.938855 
L 81.423367 -17.93348 
L 80.872382 -17.928105 
L 80.293229 -17.922729 
L 79.697903 -17.917354 
L 79.098001 -17.911979 
L 78.504327 -17.906603 
L 77.926562 -17.901228 
L 77.37302 -17.895852 
L 76.850492 -17.890477 
L 76.364168 -17.885102 
z
" style="stroke: #6f6f6f; stroke-width: 0.15"/>
    </defs>
    <g clip-path="url(#p61707419a3)">
     <use xlink:href="#md782a70cdc" x="0" y="84.96" style="fill: #d3c4f6; stroke: #6f6f6f; stroke-width: 0.15"/>
    </g>
   </g>
   <g id="PolyCollection_4">
    <defs>
     <path id="m1b763f02bc" d="M 101.72449 -17.960643 
L 96.645255 -17.960643 
L 96.228578 -17.960927 
L 95.773601 -17.96121 
L 95.282924 -17.961493 
L 94.760511 -17.961777 
L 94.211728 -17.96206 
L 93.64333 -17.962343 
L 93.063379 -17.962627 
L 92.481094 -17.96291 
L 91.906635 -17.963193 
L 91.350821 -17.963477 
L 90.824794 -17.96376 
L 90.339644 -17.964043 
L 89.90601 -17.964327 
L 89.53367 -17.96461 
L 89.231159 -17.964893 
L 89.00541 -17.965177 
L 88.861462 -17.96546 
L 88.802236 -17.965743 
L 88.828397 -17.966027 
L 88.93831 -17.96631 
L 89.1281 -17.966593 
L 89.391793 -17.966877 
L 89.721559 -17.96716 
L 90.10802 -17.967443 
L 90.540617 -17.967727 
L 91.008021 -17.96801 
L 91.498557 -17.968293 
L 92.000631 -17.968577 
L 92.50313 -17.96886 
L 92.995788 -17.969143 
L 93.4695 -17.969427 
L 93.916559 -17.96971 
L 94.330841 -17.969993 
L 94.707895 -17.970277 
L 95.044971 -17.97056 
L 95.34097 -17.970843 
L 95.596336 -17.971127 
L 95.812885 -17.97141 
L 95.993595 -17.971693 
L 96.142361 -17.971977 
L 96.263732 -17.97226 
L 96.362639 -17.972543 
L 96.444128 -17.972827 
L 96.513112 -17.97311 
L 96.574141 -17.973393 
L 96.631214 -17.973677 
L 96.687624 -17.97396 
L 96.745853 -17.974243 
L 96.807502 -17.974527 
L 96.873276 -17.97481 
L 96.943011 -17.975093 
L 97.015731 -17.975377 
L 97.089749 -17.97566 
L 97.162794 -17.975943 
L 97.232149 -17.976227 
L 97.294818 -17.97651 
L 97.347685 -17.976793 
L 97.387678 -17.977077 
L 97.411932 -17.97736 
L 97.417924 -17.977643 
L 97.403609 -17.977927 
L 97.367524 -17.97821 
L 97.308869 -17.978493 
L 97.227572 -17.978777 
L 97.124311 -17.97906 
L 97.000529 -17.979343 
L 96.858401 -17.979627 
L 96.700794 -17.97991 
L 96.531185 -17.980193 
L 96.353572 -17.980477 
L 96.172352 -17.98076 
L 95.992191 -17.981043 
L 95.81788 -17.981326 
L 95.654181 -17.98161 
L 95.505679 -17.981893 
L 95.376625 -17.982176 
L 95.270806 -17.98246 
L 95.191416 -17.982743 
L 95.140955 -17.983026 
L 95.121154 -17.98331 
L 95.132922 -17.983593 
L 95.176334 -17.983876 
L 95.25064 -17.98416 
L 95.354311 -17.984443 
L 95.485108 -17.984726 
L 95.640183 -17.98501 
L 95.816191 -17.985293 
L 96.009418 -17.985576 
L 96.215922 -17.98586 
L 96.431669 -17.986143 
L 96.652665 -17.986426 
L 96.875078 -17.98671 
L 97.09535 -17.986993 
L 97.310277 -17.987276 
L 97.517082 -17.98756 
L 97.713459 -17.987843 
L 97.89759 -17.988126 
L 98.068152 -17.98841 
L 98.224294 -17.988693 
L 100.145452 -17.988693 
L 100.145452 -17.988693 
L 100.301594 -17.98841 
L 100.472155 -17.988126 
L 100.656287 -17.987843 
L 100.852663 -17.98756 
L 101.059469 -17.987276 
L 101.274396 -17.986993 
L 101.494667 -17.98671 
L 101.717081 -17.986426 
L 101.938076 -17.986143 
L 102.153823 -17.98586 
L 102.360328 -17.985576 
L 102.553555 -17.985293 
L 102.729562 -17.98501 
L 102.884637 -17.984726 
L 103.015435 -17.984443 
L 103.119105 -17.98416 
L 103.193411 -17.983876 
L 103.236823 -17.983593 
L 103.248592 -17.98331 
L 103.22879 -17.983026 
L 103.178329 -17.982743 
L 103.098939 -17.98246 
L 102.99312 -17.982176 
L 102.864067 -17.981893 
L 102.715564 -17.98161 
L 102.551866 -17.981326 
L 102.377555 -17.981043 
L 102.197394 -17.98076 
L 102.016174 -17.980477 
L 101.83856 -17.980193 
L 101.668952 -17.97991 
L 101.511344 -17.979627 
L 101.369217 -17.979343 
L 101.245434 -17.97906 
L 101.142174 -17.978777 
L 101.060876 -17.978493 
L 101.002222 -17.97821 
L 100.966137 -17.977927 
L 100.951822 -17.977643 
L 100.957814 -17.97736 
L 100.982067 -17.977077 
L 101.022061 -17.976793 
L 101.074927 -17.97651 
L 101.137597 -17.976227 
L 101.206952 -17.975943 
L 101.279996 -17.97566 
L 101.354015 -17.975377 
L 101.426734 -17.975093 
L 101.496469 -17.97481 
L 101.562244 -17.974527 
L 101.623892 -17.974243 
L 101.682121 -17.97396 
L 101.738532 -17.973677 
L 101.795605 -17.973393 
L 101.856634 -17.97311 
L 101.925618 -17.972827 
L 102.007107 -17.972543 
L 102.106014 -17.97226 
L 102.227385 -17.971977 
L 102.37615 -17.971693 
L 102.55686 -17.97141 
L 102.773409 -17.971127 
L 103.028776 -17.970843 
L 103.324775 -17.97056 
L 103.66185 -17.970277 
L 104.038904 -17.969993 
L 104.453186 -17.96971 
L 104.900246 -17.969427 
L 105.373957 -17.969143 
L 105.866616 -17.96886 
L 106.369114 -17.968577 
L 106.871188 -17.968293 
L 107.361724 -17.96801 
L 107.829129 -17.967727 
L 108.261726 -17.967443 
L 108.648187 -17.96716 
L 108.977953 -17.966877 
L 109.241646 -17.966593 
L 109.431435 -17.96631 
L 109.541349 -17.966027 
L 109.567509 -17.965743 
L 109.508283 -17.96546 
L 109.364336 -17.965177 
L 109.138587 -17.964893 
L 108.836075 -17.96461 
L 108.463736 -17.964327 
L 108.030101 -17.964043 
L 107.544952 -17.96376 
L 107.018925 -17.963477 
L 106.463111 -17.963193 
L 105.888652 -17.96291 
L 105.306367 -17.962627 
L 104.726415 -17.962343 
L 104.158017 -17.96206 
L 103.609234 -17.961777 
L 103.086821 -17.961493 
L 102.596145 -17.96121 
L 102.141167 -17.960927 
L 101.72449 -17.960643 
z
" style="stroke: #6f6f6f; stroke-width: 0.15"/>
    </defs>
    <g clip-path="url(#p61707419a3)">
     <use xlink:href="#m1b763f02bc" x="0" y="84.96" style="fill: #d6bba3; stroke: #6f6f6f; stroke-width: 0.15"/>
    </g>
   </g>
   <g id="PolyCollection_5">
    <defs>
     <path id="m1550f909ae" d="M 127.416235 -17.670247 
L 122.866694 -17.670247 
L 122.404528 -17.693119 
L 121.887715 -17.715992 
L 121.319434 -17.738864 
L 120.705447 -17.761736 
L 120.054253 -17.784609 
L 119.37709 -17.807481 
L 118.687766 -17.830353 
L 118.002298 -17.853226 
L 117.338368 -17.876098 
L 116.714614 -17.89897 
L 116.14979 -17.921843 
L 115.661842 -17.944715 
L 115.266971 -17.967587 
L 114.97874 -17.99046 
L 114.807308 -18.013332 
L 114.758828 -18.036205 
L 114.835085 -18.059077 
L 115.033386 -18.081949 
L 115.34672 -18.104822 
L 115.764164 -18.127694 
L 116.271521 -18.150566 
L 116.852117 -18.173439 
L 117.487713 -18.196311 
L 118.159444 -18.219183 
L 118.84874 -18.242056 
L 119.538145 -18.264928 
L 120.212005 -18.287801 
L 120.85698 -18.310673 
L 121.462365 -18.333545 
L 122.02023 -18.356418 
L 122.525383 -18.37929 
L 122.975184 -18.402162 
L 123.369257 -18.425035 
L 123.709113 -18.447907 
L 123.997749 -18.470779 
L 124.239232 -18.493652 
L 124.438313 -18.516524 
L 124.600077 -18.539396 
L 124.729656 -18.562269 
L 124.832002 -18.585141 
L 124.911717 -18.608014 
L 124.972956 -18.630886 
L 125.019359 -18.653758 
L 125.054043 -18.676631 
L 125.079616 -18.699503 
L 125.098211 -18.722375 
L 125.111538 -18.745248 
L 125.12094 -18.76812 
L 125.127449 -18.790992 
L 125.13184 -18.813865 
L 125.134675 -18.836737 
L 125.136348 -18.859609 
L 125.137113 -18.882482 
L 125.137112 -18.905354 
L 125.13639 -18.928227 
L 125.134905 -18.951099 
L 125.132539 -18.973971 
L 125.129092 -18.996844 
L 125.124289 -19.019716 
L 125.117772 -19.042588 
L 125.109098 -19.065461 
L 125.097742 -19.088333 
L 125.083099 -19.111205 
L 125.064492 -19.134078 
L 125.041188 -19.15695 
L 125.012425 -19.179823 
L 124.977447 -19.202695 
L 124.935541 -19.225567 
L 124.886097 -19.24844 
L 124.828664 -19.271312 
L 124.763011 -19.294184 
L 124.689192 -19.317057 
L 124.607601 -19.339929 
L 124.519016 -19.362801 
L 124.42463 -19.385674 
L 124.326054 -19.408546 
L 124.225292 -19.431418 
L 124.124701 -19.454291 
L 124.026899 -19.477163 
L 123.934669 -19.500036 
L 123.850827 -19.522908 
L 123.778082 -19.54578 
L 123.718895 -19.568653 
L 123.675337 -19.591525 
L 123.648971 -19.614397 
L 123.640757 -19.63727 
L 123.650999 -19.660142 
L 123.67932 -19.683014 
L 123.724688 -19.705887 
L 123.785479 -19.728759 
L 123.859573 -19.751632 
L 123.944476 -19.774504 
L 124.037459 -19.797376 
L 124.135703 -19.820249 
L 124.236438 -19.843121 
L 124.337068 -19.865993 
L 124.435274 -19.888866 
L 124.529092 -19.911738 
L 124.616956 -19.93461 
L 125.665972 -19.93461 
L 125.665972 -19.93461 
L 125.753836 -19.911738 
L 125.847654 -19.888866 
L 125.94586 -19.865993 
L 126.04649 -19.843121 
L 126.147225 -19.820249 
L 126.245469 -19.797376 
L 126.338452 -19.774504 
L 126.423355 -19.751632 
L 126.497449 -19.728759 
L 126.558241 -19.705887 
L 126.603609 -19.683014 
L 126.631929 -19.660142 
L 126.642171 -19.63727 
L 126.633958 -19.614397 
L 126.607591 -19.591525 
L 126.564033 -19.568653 
L 126.504846 -19.54578 
L 126.432102 -19.522908 
L 126.34826 -19.500036 
L 126.25603 -19.477163 
L 126.158228 -19.454291 
L 126.057636 -19.431418 
L 125.956875 -19.408546 
L 125.858298 -19.385674 
L 125.763912 -19.362801 
L 125.675328 -19.339929 
L 125.593737 -19.317057 
L 125.519918 -19.294184 
L 125.454265 -19.271312 
L 125.396831 -19.24844 
L 125.347388 -19.225567 
L 125.305482 -19.202695 
L 125.270503 -19.179823 
L 125.241741 -19.15695 
L 125.218437 -19.134078 
L 125.199829 -19.111205 
L 125.185186 -19.088333 
L 125.173831 -19.065461 
L 125.165157 -19.042588 
L 125.158639 -19.019716 
L 125.153836 -18.996844 
L 125.15039 -18.973971 
L 125.148023 -18.951099 
L 125.146539 -18.928227 
L 125.145816 -18.905354 
L 125.145815 -18.882482 
L 125.146581 -18.859609 
L 125.148253 -18.836737 
L 125.151089 -18.813865 
L 125.155479 -18.790992 
L 125.161989 -18.76812 
L 125.171391 -18.745248 
L 125.184718 -18.722375 
L 125.203313 -18.699503 
L 125.228885 -18.676631 
L 125.26357 -18.653758 
L 125.309973 -18.630886 
L 125.371211 -18.608014 
L 125.450927 -18.585141 
L 125.553272 -18.562269 
L 125.682851 -18.539396 
L 125.844615 -18.516524 
L 126.043696 -18.493652 
L 126.28518 -18.470779 
L 126.573816 -18.447907 
L 126.913672 -18.425035 
L 127.307744 -18.402162 
L 127.757545 -18.37929 
L 128.262698 -18.356418 
L 128.820564 -18.333545 
L 129.425949 -18.310673 
L 130.070923 -18.287801 
L 130.744784 -18.264928 
L 131.434189 -18.242056 
L 132.123485 -18.219183 
L 132.795216 -18.196311 
L 133.430811 -18.173439 
L 134.011408 -18.150566 
L 134.518764 -18.127694 
L 134.936209 -18.104822 
L 135.249542 -18.081949 
L 135.447844 -18.059077 
L 135.524101 -18.036205 
L 135.47562 -18.013332 
L 135.304188 -17.99046 
L 135.015958 -17.967587 
L 134.621086 -17.944715 
L 134.133138 -17.921843 
L 133.568314 -17.89897 
L 132.944561 -17.876098 
L 132.280631 -17.853226 
L 131.595163 -17.830353 
L 130.905838 -17.807481 
L 130.228676 -17.784609 
L 129.577481 -17.761736 
L 128.963494 -17.738864 
L 128.395213 -17.715992 
L 127.878401 -17.693119 
L 127.416235 -17.670247 
z
" style="stroke: #6f6f6f; stroke-width: 0.15"/>
    </defs>
    <g clip-path="url(#p61707419a3)">
     <use xlink:href="#m1550f909ae" x="0" y="84.96" style="fill: #f1b9e0; stroke: #6f6f6f; stroke-width: 0.15"/>
    </g>
   </g>
   <g id="line2d_7">
    <path d="M 21.315098 66.995102 
L 21.315098 66.958372 
" clip-path="url(#p61707419a3)" style="fill: none; stroke: #8c8c8c; stroke-width: 0.75; stroke-linecap: round"/>
   </g>
   <g id="line2d_8">
    <path d="M 21.315098 66.990643 
L 21.315098 66.973663 
" clip-path="url(#p61707419a3)" style="fill: none; stroke: #8c8c8c; stroke-width: 4; stroke-linecap: round"/>
   </g>
   <g id="line2d_9">
    <path d="M 21.315098 66.987006 
" clip-path="url(#p61707419a3)" style="fill: none; stroke: #6f6f6f; stroke-width: 1.2; stroke-linecap: round"/>
    <defs>
     <path id="m726cd2eb87" d="M 0 0.833333 
C 0.221003 0.833333 0.432983 0.745528 0.589256 0.589256 
C 0.745528 0.432983 0.833333 0.221003 0.833333 0 
C 0.833333 -0.221003 0.745528 -0.432983 0.589256 -0.589256 
C 0.432983 -0.745528 0.221003 -0.833333 0 -0.833333 
C -0.221003 -0.833333 -0.432983 -0.745528 -0.589256 -0.589256 
C -0.745528 -0.432983 -0.833333 -0.221003 -0.833333 0 
C -0.833333 0.221003 -0.745528 0.432983 -0.589256 0.589256 
C -0.432983 0.745528 -0.221003 0.833333 0 0.833333 
z
" style="stroke: #ffffff; stroke-width: 0.8"/>
    </defs>
    <g clip-path="url(#p61707419a3)">
     <use xlink:href="#m726cd2eb87" x="21.315098" y="66.987006" style="fill: #ffffff; stroke: #ffffff; stroke-width: 0.8"/>
    </g>
   </g>
   <g id="line2d_10">
    <path d="M 47.27169 66.655812 
L 47.27169 66.230747 
" clip-path="url(#p61707419a3)" style="fill: none; stroke: #8c8c8c; stroke-width: 0.75; stroke-linecap: round"/>
   </g>
   <g id="line2d_11">
    <path d="M 47.27169 66.572924 
L 47.27169 66.333956 
" clip-path="url(#p61707419a3)" style="fill: none; stroke: #8c8c8c; stroke-width: 4; stroke-linecap: round"/>
   </g>
   <g id="line2d_12">
    <path d="M 47.27169 66.530758 
" clip-path="url(#p61707419a3)" style="fill: none; stroke: #6f6f6f; stroke-width: 1.2; stroke-linecap: round"/>
    <g clip-path="url(#p61707419a3)">
     <use xlink:href="#m726cd2eb87" x="47.27169" y="66.530758" style="fill: #ffffff; stroke: #ffffff; stroke-width: 0.8"/>
    </g>
   </g>
   <g id="line2d_13">
    <path d="M 73.228281 66.995102 
L 73.228281 66.622533 
" clip-path="url(#p61707419a3)" style="fill: none; stroke: #8c8c8c; stroke-width: 0.75; stroke-linecap: round"/>
   </g>
   <g id="line2d_14">
    <path d="M 73.228281 66.991985 
L 73.228281 66.84345 
" clip-path="url(#p61707419a3)" style="fill: none; stroke: #8c8c8c; stroke-width: 4; stroke-linecap: round"/>
   </g>
   <g id="line2d_15">
    <path d="M 73.228281 66.988005 
" clip-path="url(#p61707419a3)" style="fill: none; stroke: #6f6f6f; stroke-width: 1.2; stroke-linecap: round"/>
    <g clip-path="url(#p61707419a3)">
     <use xlink:href="#m726cd2eb87" x="73.228281" y="66.988005" style="fill: #ffffff; stroke: #ffffff; stroke-width: 0.8"/>
    </g>
   </g>
   <g id="line2d_16">
    <path d="M 99.184873 66.995102 
L 99.184873 66.975562 
" clip-path="url(#p61707419a3)" style="fill: none; stroke: #8c8c8c; stroke-width: 0.75; stroke-linecap: round"/>
   </g>
   <g id="line2d_17">
    <path d="M 99.184873 66.994545 
L 99.184873 66.983901 
" clip-path="url(#p61707419a3)" style="fill: none; stroke: #8c8c8c; stroke-width: 4; stroke-linecap: round"/>
   </g>
   <g id="line2d_18">
    <path d="M 99.184873 66.993268 
" clip-path="url(#p61707419a3)" style="fill: none; stroke: #6f6f6f; stroke-width: 1.2; stroke-linecap: round"/>
    <g clip-path="url(#p61707419a3)">
     <use xlink:href="#m726cd2eb87" x="99.184873" y="66.993268" style="fill: #ffffff; stroke: #ffffff; stroke-width: 0.8"/>
    </g>
   </g>
   <g id="line2d_19">
    <path d="M 125.141464 66.944803 
L 125.141464 66.890524 
" clip-path="url(#p61707419a3)" style="fill: none; stroke: #8c8c8c; stroke-width: 0.75; stroke-linecap: round"/>
   </g>
   <g id="line2d_20">
    <path d="M 125.141464 66.932413 
L 125.141464 66.897218 
" clip-path="url(#p61707419a3)" style="fill: none; stroke: #8c8c8c; stroke-width: 4; stroke-linecap: round"/>
   </g>
   <g id="line2d_21">
    <path d="M 125.141464 66.916276 
" clip-path="url(#p61707419a3)" style="fill: none; stroke: #6f6f6f; stroke-width: 1.2; stroke-linecap: round"/>
    <g clip-path="url(#p61707419a3)">
     <use xlink:href="#m726cd2eb87" x="125.141464" y="66.916276" style="fill: #ffffff; stroke: #ffffff; stroke-width: 0.8"/>
    </g>
   </g>
   <g id="patch_3">
    <path d="M 8.336802 74.419526 
L 8.336802 4.076256 
" style="fill: none; stroke: #777777; stroke-width: 0.5; stroke-linejoin: miter; stroke-linecap: square"/>
   </g>
   <g id="patch_4">
    <path d="M 8.336802 76.919526 
L 138.11976 76.919526 
" style="fill: none; stroke: #777777; stroke-width: 0.5; stroke-linejoin: miter; stroke-linecap: square"/>
   </g>
  </g>
 </g>
 <defs>
  <clipPath id="p61707419a3">
   <rect x="8.336802" y="4.076256" width="129.782958" height="70.34327"/>
  </clipPath>
 </defs>
</svg>
