<?xml version="1.0" encoding="utf-8" standalone="no"?>
<!DOCTYPE svg PUBLIC "-//W3C//DTD SVG 1.1//EN"
  "http://www.w3.org/Graphics/SVG/1.1/DTD/svg11.dtd">
<svg xmlns:xlink="http://www.w3.org/1999/xlink" width="56.16pt" height="84.96pt" viewBox="0 0 56.16 84.96" xmlns="http://www.w3.org/2000/svg" version="1.1">
 <metadata>
  <rdf:RDF xmlns:dc="http://purl.org/dc/elements/1.1/" xmlns:cc="http://creativecommons.org/ns#" xmlns:rdf="http://www.w3.org/1999/02/22-rdf-syntax-ns#">
   <cc:Work>
    <dc:type rdf:resource="http://purl.org/dc/dcmitype/StillImage"/>
    <dc:date>2024-05-27T15:36:59.898211</dc:date>
    <dc:format>image/svg+xml</dc:format>
    <dc:creator>
     <cc:Agent>
      <dc:title>Matplotlib v3.8.3, https://matplotlib.org/</dc:title>
     </cc:Agent>
    </dc:creator>
   </cc:Work>
  </rdf:RDF>
 </metadata>
 <defs>
  <style type="text/css">*{stroke-linejoin: round; stroke-linecap: butt}</style>
 </defs>
 <g id="figure_1">
  <g id="patch_1">
   <path d="M 0 84.96 
L 56.16 84.96 
L 56.16 0 
L 0 0 
z
" style="fill: #ffffff"/>
  </g>
  <g id="axes_1">
   <g id="patch_2">
    <path d="M 10.005084 74.419526 
L 53.15976 74.419526 
L 53.15976 4.076256 
L 10.005084 4.076256 
z
" style="fill: #ffffff"/>
   </g>
   <g id="matplotlib.axis_1">
    <g id="xtick_1">
     <g id="text_1">
      <!-- GATA+ Cells -->
      <g style="fill: #333333" transform="translate(10.631175 81.230229) scale(0.035 -0.035)">
       <defs>
        <path id="Helvetica-47" d="M 2472 4709 
Q 3119 4709 3591 4459 
Q 4275 4100 4428 3200 
L 3813 3200 
Q 3700 3703 3347 3933 
Q 2994 4163 2456 4163 
Q 1819 4163 1383 3684 
Q 947 3206 947 2259 
Q 947 1441 1306 927 
Q 1666 413 2478 413 
Q 3100 413 3508 773 
Q 3916 1134 3925 1941 
L 2488 1941 
L 2488 2456 
L 4503 2456 
L 4503 0 
L 4103 0 
L 3953 591 
Q 3638 244 3394 109 
Q 2984 -122 2353 -122 
Q 1538 -122 950 406 
Q 309 1069 309 2225 
Q 309 3378 934 4059 
Q 1528 4709 2472 4709 
z
M 2369 4716 
L 2369 4716 
z
" transform="scale(0.015625)"/>
        <path id="Helvetica-41" d="M 2844 1881 
L 2147 3909 
L 1406 1881 
L 2844 1881 
z
M 1822 4591 
L 2525 4591 
L 4191 0 
L 3509 0 
L 3044 1375 
L 1228 1375 
L 731 0 
L 94 0 
L 1822 4591 
z
" transform="scale(0.015625)"/>
        <path id="Helvetica-54" d="M 3828 4591 
L 3828 4044 
L 2281 4044 
L 2281 0 
L 1650 0 
L 1650 4044 
L 103 4044 
L 103 4591 
L 3828 4591 
z
" transform="scale(0.015625)"/>
        <path id="Helvetica-2b" d="M 288 1369 
L 288 1894 
L 1650 1894 
L 1650 3266 
L 2184 3266 
L 2184 1894 
L 3547 1894 
L 3547 1369 
L 2184 1369 
L 2184 0 
L 1650 0 
L 1650 1369 
L 288 1369 
z
" transform="scale(0.015625)"/>
        <path id="Helvetica-20" transform="scale(0.015625)"/>
        <path id="Helvetica-43" d="M 2422 4716 
Q 3294 4716 3775 4256 
Q 4256 3797 4309 3213 
L 3703 3213 
Q 3600 3656 3292 3915 
Q 2984 4175 2428 4175 
Q 1750 4175 1333 3698 
Q 916 3222 916 2238 
Q 916 1431 1292 929 
Q 1669 428 2416 428 
Q 3103 428 3463 956 
Q 3653 1234 3747 1688 
L 4353 1688 
Q 4272 963 3816 472 
Q 3269 -119 2341 -119 
Q 1541 -119 997 366 
Q 281 1006 281 2344 
Q 281 3359 819 4009 
Q 1400 4716 2422 4716 
z
M 2297 4716 
L 2297 4716 
z
" transform="scale(0.015625)"/>
        <path id="Helvetica-65" d="M 1806 3422 
Q 2163 3422 2497 3255 
Q 2831 3088 3006 2822 
Q 3175 2569 3231 2231 
Q 3281 2000 3281 1494 
L 828 1494 
Q 844 984 1069 676 
Q 1294 369 1766 369 
Q 2206 369 2469 659 
Q 2619 828 2681 1050 
L 3234 1050 
Q 3213 866 3089 639 
Q 2966 413 2813 269 
Q 2556 19 2178 -69 
Q 1975 -119 1719 -119 
Q 1094 -119 659 336 
Q 225 791 225 1609 
Q 225 2416 662 2919 
Q 1100 3422 1806 3422 
z
M 2703 1941 
Q 2669 2306 2544 2525 
Q 2313 2931 1772 2931 
Q 1384 2931 1121 2651 
Q 859 2372 844 1941 
L 2703 1941 
z
M 1753 3428 
L 1753 3428 
z
" transform="scale(0.015625)"/>
        <path id="Helvetica-6c" d="M 428 4591 
L 991 4591 
L 991 0 
L 428 0 
L 428 4591 
z
" transform="scale(0.015625)"/>
        <path id="Helvetica-73" d="M 747 1050 
Q 772 769 888 619 
Q 1100 347 1625 347 
Q 1938 347 2175 483 
Q 2413 619 2413 903 
Q 2413 1119 2222 1231 
Q 2100 1300 1741 1391 
L 1294 1503 
Q 866 1609 663 1741 
Q 300 1969 300 2372 
Q 300 2847 642 3140 
Q 984 3434 1563 3434 
Q 2319 3434 2653 2991 
Q 2863 2709 2856 2384 
L 2325 2384 
Q 2309 2575 2191 2731 
Q 1997 2953 1519 2953 
Q 1200 2953 1036 2831 
Q 872 2709 872 2509 
Q 872 2291 1088 2159 
Q 1213 2081 1456 2022 
L 1828 1931 
Q 2434 1784 2641 1647 
Q 2969 1431 2969 969 
Q 2969 522 2630 197 
Q 2291 -128 1597 -128 
Q 850 -128 539 211 
Q 228 550 206 1050 
L 747 1050 
z
M 1578 3428 
L 1578 3428 
z
" transform="scale(0.015625)"/>
       </defs>
       <use xlink:href="#Helvetica-47"/>
       <use xlink:href="#Helvetica-41" x="77.783203"/>
       <use xlink:href="#Helvetica-54" x="144.482422"/>
       <use xlink:href="#Helvetica-41" x="205.566406"/>
       <use xlink:href="#Helvetica-2b" x="272.265625"/>
       <use xlink:href="#Helvetica-20" x="330.664062"/>
       <use xlink:href="#Helvetica-43" x="358.447266"/>
       <use xlink:href="#Helvetica-65" x="430.664062"/>
       <use xlink:href="#Helvetica-6c" x="486.279297"/>
       <use xlink:href="#Helvetica-6c" x="508.496094"/>
       <use xlink:href="#Helvetica-73" x="530.712891"/>
      </g>
     </g>
    </g>
    <g id="xtick_2">
     <g id="text_2">
      <!-- ICOS+ Cells -->
      <g style="fill: #333333" transform="translate(32.694685 81.230229) scale(0.035 -0.035)">
       <defs>
        <path id="Helvetica-49" d="M 628 4591 
L 1256 4591 
L 1256 0 
L 628 0 
L 628 4591 
z
" transform="scale(0.015625)"/>
        <path id="Helvetica-4f" d="M 2469 4716 
Q 3684 4716 4269 3934 
Q 4725 3325 4725 2375 
Q 4725 1347 4203 666 
Q 3591 -134 2456 -134 
Q 1397 -134 791 566 
Q 250 1241 250 2272 
Q 250 3203 713 3866 
Q 1306 4716 2469 4716 
z
M 2531 422 
Q 3353 422 3720 1011 
Q 4088 1600 4088 2366 
Q 4088 3175 3664 3669 
Q 3241 4163 2506 4163 
Q 1794 4163 1344 3673 
Q 894 3184 894 2231 
Q 894 1469 1280 945 
Q 1666 422 2531 422 
z
M 2488 4716 
L 2488 4716 
z
" transform="scale(0.015625)"/>
        <path id="Helvetica-53" d="M 894 1481 
Q 916 1091 1078 847 
Q 1388 391 2169 391 
Q 2519 391 2806 491 
Q 3363 684 3363 1184 
Q 3363 1559 3128 1719 
Q 2891 1875 2384 1991 
L 1763 2131 
Q 1153 2269 900 2434 
Q 463 2722 463 3294 
Q 463 3913 891 4309 
Q 1319 4706 2103 4706 
Q 2825 4706 3329 4357 
Q 3834 4009 3834 3244 
L 3250 3244 
Q 3203 3613 3050 3809 
Q 2766 4169 2084 4169 
Q 1534 4169 1293 3937 
Q 1053 3706 1053 3400 
Q 1053 3063 1334 2906 
Q 1519 2806 2169 2656 
L 2813 2509 
Q 3278 2403 3531 2219 
Q 3969 1897 3969 1284 
Q 3969 522 3414 194 
Q 2859 -134 2125 -134 
Q 1269 -134 784 303 
Q 300 738 309 1481 
L 894 1481 
z
M 2150 4716 
L 2150 4716 
z
" transform="scale(0.015625)"/>
       </defs>
       <use xlink:href="#Helvetica-49"/>
       <use xlink:href="#Helvetica-43" x="27.783203"/>
       <use xlink:href="#Helvetica-4f" x="100"/>
       <use xlink:href="#Helvetica-53" x="177.783203"/>
       <use xlink:href="#Helvetica-2b" x="244.482422"/>
       <use xlink:href="#Helvetica-20" x="302.880859"/>
       <use xlink:href="#Helvetica-43" x="330.664062"/>
       <use xlink:href="#Helvetica-65" x="402.880859"/>
       <use xlink:href="#Helvetica-6c" x="458.496094"/>
       <use xlink:href="#Helvetica-6c" x="480.712891"/>
       <use xlink:href="#Helvetica-73" x="502.929688"/>
      </g>
     </g>
    </g>
   </g>
   <g id="matplotlib.axis_2">
    <g id="ytick_1">
     <g id="line2d_1">
      <defs>
       <path id="m62e923fb45" d="M 0 0 
L -1 0 
" style="stroke: #777777; stroke-width: 0.5"/>
      </defs>
      <g>
       <use xlink:href="#m62e923fb45" x="10.005084" y="66.189518" style="fill: #777777; stroke: #777777; stroke-width: 0.5"/>
      </g>
     </g>
     <g id="text_3">
      <!-- 0 -->
      <g style="fill: #333333" transform="translate(6.336802 67.265534) scale(0.03 -0.03)">
       <defs>
        <path id="Helvetica-30" d="M 1731 4475 
Q 2600 4475 2988 3759 
Q 3288 3206 3288 2244 
Q 3288 1331 3016 734 
Q 2622 -122 1728 -122 
Q 922 -122 528 578 
Q 200 1163 200 2147 
Q 200 2909 397 3456 
Q 766 4475 1731 4475 
z
M 1725 391 
Q 2163 391 2422 778 
Q 2681 1166 2681 2222 
Q 2681 2984 2493 3476 
Q 2306 3969 1766 3969 
Q 1269 3969 1039 3501 
Q 809 3034 809 2125 
Q 809 1441 956 1025 
Q 1181 391 1725 391 
z
" transform="scale(0.015625)"/>
       </defs>
       <use xlink:href="#Helvetica-30"/>
      </g>
     </g>
    </g>
    <g id="ytick_2">
     <g id="line2d_2">
      <g>
       <use xlink:href="#m62e923fb45" x="10.005084" y="55.837308" style="fill: #777777; stroke: #777777; stroke-width: 0.5"/>
      </g>
     </g>
     <g id="text_4">
      <!-- 20 -->
      <g style="fill: #333333" transform="translate(4.668521 56.913323) scale(0.03 -0.03)">
       <defs>
        <path id="Helvetica-32" d="M 200 0 
Q 231 578 439 1006 
Q 647 1434 1250 1784 
L 1850 2131 
Q 2253 2366 2416 2531 
Q 2672 2791 2672 3125 
Q 2672 3516 2437 3745 
Q 2203 3975 1813 3975 
Q 1234 3975 1013 3538 
Q 894 3303 881 2888 
L 309 2888 
Q 319 3472 525 3841 
Q 891 4491 1816 4491 
Q 2584 4491 2939 4075 
Q 3294 3659 3294 3150 
Q 3294 2613 2916 2231 
Q 2697 2009 2131 1694 
L 1703 1456 
Q 1397 1288 1222 1134 
Q 909 863 828 531 
L 3272 531 
L 3272 0 
L 200 0 
z
" transform="scale(0.015625)"/>
       </defs>
       <use xlink:href="#Helvetica-32"/>
       <use xlink:href="#Helvetica-30" x="55.615234"/>
      </g>
     </g>
    </g>
    <g id="ytick_3">
     <g id="line2d_3">
      <g>
       <use xlink:href="#m62e923fb45" x="10.005084" y="45.485097" style="fill: #777777; stroke: #777777; stroke-width: 0.5"/>
      </g>
     </g>
     <g id="text_5">
      <!-- 40 -->
      <g style="fill: #333333" transform="translate(4.668521 46.561113) scale(0.03 -0.03)">
       <defs>
        <path id="Helvetica-34" d="M 2116 1584 
L 2116 3613 
L 681 1584 
L 2116 1584 
z
M 2125 0 
L 2125 1094 
L 163 1094 
L 163 1644 
L 2213 4488 
L 2688 4488 
L 2688 1584 
L 3347 1584 
L 3347 1094 
L 2688 1094 
L 2688 0 
L 2125 0 
z
" transform="scale(0.015625)"/>
       </defs>
       <use xlink:href="#Helvetica-34"/>
       <use xlink:href="#Helvetica-30" x="55.615234"/>
      </g>
     </g>
    </g>
    <g id="ytick_4">
     <g id="line2d_4">
      <g>
       <use xlink:href="#m62e923fb45" x="10.005084" y="35.132887" style="fill: #777777; stroke: #777777; stroke-width: 0.5"/>
      </g>
     </g>
     <g id="text_6">
      <!-- 60 -->
      <g style="fill: #333333" transform="translate(4.668521 36.208903) scale(0.03 -0.03)">
       <defs>
        <path id="Helvetica-36" d="M 1872 4494 
Q 2622 4494 2917 4105 
Q 3213 3716 3213 3303 
L 2656 3303 
Q 2606 3569 2497 3719 
Q 2294 4000 1881 4000 
Q 1409 4000 1131 3564 
Q 853 3128 822 2316 
Q 1016 2600 1309 2741 
Q 1578 2866 1909 2866 
Q 2472 2866 2890 2506 
Q 3309 2147 3309 1434 
Q 3309 825 2912 354 
Q 2516 -116 1781 -116 
Q 1153 -116 697 361 
Q 241 838 241 1966 
Q 241 2800 444 3381 
Q 834 4494 1872 4494 
z
M 1831 384 
Q 2275 384 2495 682 
Q 2716 981 2716 1388 
Q 2716 1731 2519 2042 
Q 2322 2353 1803 2353 
Q 1441 2353 1167 2112 
Q 894 1872 894 1388 
Q 894 963 1142 673 
Q 1391 384 1831 384 
z
" transform="scale(0.015625)"/>
       </defs>
       <use xlink:href="#Helvetica-36"/>
       <use xlink:href="#Helvetica-30" x="55.615234"/>
      </g>
     </g>
    </g>
    <g id="ytick_5">
     <g id="line2d_5">
      <g>
       <use xlink:href="#m62e923fb45" x="10.005084" y="24.780677" style="fill: #777777; stroke: #777777; stroke-width: 0.5"/>
      </g>
     </g>
     <g id="text_7">
      <!-- 80 -->
      <g style="fill: #333333" transform="translate(4.668521 25.856692) scale(0.03 -0.03)">
       <defs>
        <path id="Helvetica-38" d="M 1741 2600 
Q 2113 2600 2322 2808 
Q 2531 3016 2531 3303 
Q 2531 3553 2331 3762 
Q 2131 3972 1722 3972 
Q 1316 3972 1134 3762 
Q 953 3553 953 3272 
Q 953 2956 1187 2778 
Q 1422 2600 1741 2600 
z
M 1775 384 
Q 2166 384 2423 595 
Q 2681 806 2681 1225 
Q 2681 1659 2415 1884 
Q 2150 2109 1734 2109 
Q 1331 2109 1076 1879 
Q 822 1650 822 1244 
Q 822 894 1055 639 
Q 1288 384 1775 384 
z
M 975 2384 
Q 741 2484 609 2619 
Q 363 2869 363 3269 
Q 363 3769 725 4128 
Q 1088 4488 1753 4488 
Q 2397 4488 2762 4148 
Q 3128 3809 3128 3356 
Q 3128 2938 2916 2678 
Q 2797 2531 2547 2391 
Q 2825 2263 2984 2097 
Q 3281 1784 3281 1284 
Q 3281 694 2884 283 
Q 2488 -128 1763 -128 
Q 1109 -128 657 226 
Q 206 581 206 1256 
Q 206 1653 400 1942 
Q 594 2231 975 2384 
z
" transform="scale(0.015625)"/>
       </defs>
       <use xlink:href="#Helvetica-38"/>
       <use xlink:href="#Helvetica-30" x="55.615234"/>
      </g>
     </g>
    </g>
    <g id="ytick_6">
     <g id="line2d_6">
      <g>
       <use xlink:href="#m62e923fb45" x="10.005084" y="14.428466" style="fill: #777777; stroke: #777777; stroke-width: 0.5"/>
      </g>
     </g>
     <g id="text_8">
      <!-- 100 -->
      <g style="fill: #333333" transform="translate(3.00024 15.504482) scale(0.03 -0.03)">
       <defs>
        <path id="Helvetica-31" d="M 613 3169 
L 613 3600 
Q 1222 3659 1462 3798 
Q 1703 3938 1822 4456 
L 2266 4456 
L 2266 0 
L 1666 0 
L 1666 3169 
L 613 3169 
z
" transform="scale(0.015625)"/>
       </defs>
       <use xlink:href="#Helvetica-31"/>
       <use xlink:href="#Helvetica-30" x="55.615234"/>
       <use xlink:href="#Helvetica-30" x="111.230469"/>
      </g>
     </g>
    </g>
    <g id="ytick_7">
     <g id="line2d_7">
      <g>
       <use xlink:href="#m62e923fb45" x="10.005084" y="4.076256" style="fill: #777777; stroke: #777777; stroke-width: 0.5"/>
      </g>
     </g>
     <g id="text_9">
      <!-- 120 -->
      <g style="fill: #333333" transform="translate(3.00024 5.152271) scale(0.03 -0.03)">
       <use xlink:href="#Helvetica-31"/>
       <use xlink:href="#Helvetica-32" x="55.615234"/>
       <use xlink:href="#Helvetica-30" x="111.230469"/>
      </g>
     </g>
    </g>
   </g>
   <g id="PolyCollection_1">
    <defs>
     <path id="m401ca4cd87" d="M 22.95415 -23.959889 
L 18.633356 -23.959889 
L 18.287167 -24.160091 
L 17.912713 -24.360292 
L 17.513065 -24.560493 
L 17.092366 -24.760695 
L 16.655785 -24.960896 
L 16.209415 -25.161098 
L 15.76012 -25.361299 
L 15.315324 -25.561501 
L 14.882763 -25.761702 
L 14.470212 -25.961904 
L 14.08519 -26.162105 
L 13.734671 -26.362306 
L 13.42482 -26.562508 
L 13.160759 -26.762709 
L 12.946386 -26.962911 
L 12.784245 -27.163112 
L 12.675473 -27.363314 
L 12.619798 -27.563515 
L 12.615604 -27.763716 
L 12.660047 -27.963918 
L 12.749208 -28.164119 
L 12.878286 -28.364321 
L 13.041788 -28.564522 
L 13.233743 -28.764724 
L 13.447897 -28.964925 
L 13.677901 -29.165127 
L 13.917473 -29.365328 
L 14.16055 -29.565529 
L 14.401407 -29.765731 
L 14.634763 -29.965932 
L 14.855866 -30.166134 
L 15.060554 -30.366335 
L 15.24531 -30.566537 
L 15.407289 -30.766738 
L 15.544331 -30.966939 
L 15.654953 -31.167141 
L 15.738324 -31.367342 
L 15.794213 -31.567544 
L 15.82292 -31.767745 
L 15.825193 -31.967947 
L 15.80213 -32.168148 
L 15.755077 -32.368349 
L 15.685534 -32.568551 
L 15.595066 -32.768752 
L 15.485242 -32.968954 
L 15.357597 -33.169155 
L 15.213624 -33.369357 
L 15.054795 -33.569558 
L 14.882613 -33.76976 
L 14.698678 -33.969961 
L 14.504763 -34.170162 
L 14.302884 -34.370364 
L 14.095356 -34.570565 
L 13.884818 -34.770767 
L 13.674218 -34.970968 
L 13.46676 -35.17117 
L 13.265804 -35.371371 
L 13.074732 -35.571572 
L 12.896781 -35.771774 
L 12.734872 -35.971975 
L 12.591441 -36.172177 
L 12.468292 -36.372378 
L 12.366494 -36.57258 
L 12.286331 -36.772781 
L 12.227315 -36.972982 
L 12.188268 -37.173184 
L 12.167462 -37.373385 
L 12.162818 -37.573587 
L 12.172126 -37.773788 
L 12.193297 -37.97399 
L 12.224596 -38.174191 
L 12.264847 -38.374393 
L 12.313589 -38.574594 
L 12.371168 -38.774795 
L 12.438747 -38.974997 
L 12.518248 -39.175198 
L 12.612212 -39.3754 
L 12.723599 -39.575601 
L 12.855547 -39.775803 
L 13.011098 -39.976004 
L 13.192926 -40.176205 
L 13.403087 -40.376407 
L 13.6428 -40.576608 
L 13.912293 -40.77681 
L 14.210712 -40.977011 
L 14.5361 -41.177213 
L 14.885455 -41.377414 
L 15.254842 -41.577616 
L 15.639572 -41.777817 
L 16.034414 -41.978018 
L 16.433827 -42.17822 
L 16.832212 -42.378421 
L 17.224139 -42.578623 
L 17.604563 -42.778824 
L 17.968993 -42.979026 
L 18.313636 -43.179227 
L 18.635477 -43.379428 
L 18.932322 -43.57963 
L 19.202797 -43.779831 
L 22.384708 -43.779831 
L 22.384708 -43.779831 
L 22.655184 -43.57963 
L 22.952029 -43.379428 
L 23.273869 -43.179227 
L 23.618512 -42.979026 
L 23.982943 -42.778824 
L 24.363366 -42.578623 
L 24.755293 -42.378421 
L 25.153678 -42.17822 
L 25.553092 -41.978018 
L 25.947933 -41.777817 
L 26.332664 -41.577616 
L 26.702051 -41.377414 
L 27.051405 -41.177213 
L 27.376794 -40.977011 
L 27.675213 -40.77681 
L 27.944706 -40.576608 
L 28.184419 -40.376407 
L 28.394579 -40.176205 
L 28.576408 -39.976004 
L 28.731958 -39.775803 
L 28.863906 -39.575601 
L 28.975294 -39.3754 
L 29.069257 -39.175198 
L 29.148758 -38.974997 
L 29.216338 -38.774795 
L 29.273916 -38.574594 
L 29.322659 -38.374393 
L 29.36291 -38.174191 
L 29.394209 -37.97399 
L 29.41538 -37.773788 
L 29.424688 -37.573587 
L 29.420043 -37.373385 
L 29.399238 -37.173184 
L 29.360191 -36.972982 
L 29.301175 -36.772781 
L 29.221011 -36.57258 
L 29.119214 -36.372378 
L 28.996065 -36.172177 
L 28.852634 -35.971975 
L 28.690725 -35.771774 
L 28.512774 -35.571572 
L 28.321701 -35.371371 
L 28.120746 -35.17117 
L 27.913288 -34.970968 
L 27.702688 -34.770767 
L 27.492149 -34.570565 
L 27.284621 -34.370364 
L 27.082742 -34.170162 
L 26.888827 -33.969961 
L 26.704893 -33.76976 
L 26.532711 -33.569558 
L 26.373882 -33.369357 
L 26.229909 -33.169155 
L 26.102264 -32.968954 
L 25.99244 -32.768752 
L 25.901972 -32.568551 
L 25.832428 -32.368349 
L 25.785376 -32.168148 
L 25.762312 -31.967947 
L 25.764585 -31.767745 
L 25.793292 -31.567544 
L 25.849181 -31.367342 
L 25.932552 -31.167141 
L 26.043175 -30.966939 
L 26.180217 -30.766738 
L 26.342196 -30.566537 
L 26.526952 -30.366335 
L 26.73164 -30.166134 
L 26.952742 -29.965932 
L 27.186099 -29.765731 
L 27.426956 -29.565529 
L 27.670033 -29.365328 
L 27.909605 -29.165127 
L 28.139609 -28.964925 
L 28.353763 -28.764724 
L 28.545718 -28.564522 
L 28.70922 -28.364321 
L 28.838297 -28.164119 
L 28.927459 -27.963918 
L 28.971901 -27.763716 
L 28.967707 -27.563515 
L 28.912032 -27.363314 
L 28.80326 -27.163112 
L 28.64112 -26.962911 
L 28.426746 -26.762709 
L 28.162686 -26.562508 
L 27.852835 -26.362306 
L 27.502316 -26.162105 
L 27.117293 -25.961904 
L 26.704742 -25.761702 
L 26.272182 -25.561501 
L 25.827386 -25.361299 
L 25.37809 -25.161098 
L 24.931721 -24.960896 
L 24.49514 -24.760695 
L 24.074441 -24.560493 
L 23.674792 -24.360292 
L 23.300338 -24.160091 
L 22.95415 -23.959889 
z
" style="stroke: #6f6f6f; stroke-width: 0.15"/>
    </defs>
    <g clip-path="url(#p9f4bae971a)">
     <use xlink:href="#m401ca4cd87" x="0" y="84.96" style="fill: #d6bba3; stroke: #6f6f6f; stroke-width: 0.15"/>
    </g>
   </g>
   <g id="PolyCollection_2">
    <defs>
     <path id="mfcd895c699" d="M 43.958912 -19.535131 
L 40.78327 -19.535131 
L 40.505409 -19.604888 
L 40.200821 -19.674645 
L 39.871615 -19.744403 
L 39.520957 -19.81416 
L 39.153073 -19.883917 
L 38.773193 -19.953674 
L 38.387436 -20.023432 
L 38.002621 -20.093189 
L 37.626032 -20.162946 
L 37.265129 -20.232704 
L 36.927222 -20.302461 
L 36.619137 -20.372218 
L 36.346886 -20.441975 
L 36.115364 -20.511733 
L 35.928102 -20.58149 
L 35.787087 -20.651247 
L 35.692668 -20.721005 
L 35.643552 -20.790762 
L 35.636901 -20.860519 
L 35.668507 -20.930276 
L 35.733048 -21.000034 
L 35.824398 -21.069791 
L 35.935961 -21.139548 
L 36.061023 -21.209305 
L 36.193071 -21.279063 
L 36.326079 -21.34882 
L 36.454726 -21.418577 
L 36.574549 -21.488335 
L 36.682013 -21.558092 
L 36.774509 -21.627849 
L 36.850297 -21.697606 
L 36.908385 -21.767364 
L 36.948394 -21.837121 
L 36.970403 -21.906878 
L 36.974805 -21.976636 
L 36.962194 -22.046393 
L 36.933278 -22.11615 
L 36.888839 -22.185907 
L 36.829729 -22.255665 
L 36.756904 -22.325422 
L 36.671472 -22.395179 
L 36.574759 -22.464937 
L 36.468358 -22.534694 
L 36.354167 -22.604451 
L 36.234384 -22.674208 
L 36.111472 -22.743966 
L 35.988072 -22.813723 
L 35.866888 -22.88348 
L 35.750536 -22.953237 
L 35.641369 -23.022995 
L 35.541311 -23.092752 
L 35.4517 -23.162509 
L 35.373158 -23.232267 
L 35.305512 -23.302024 
L 35.247775 -23.371781 
L 35.198179 -23.441538 
L 35.154281 -23.511296 
L 35.113129 -23.581053 
L 35.071473 -23.65081 
L 35.026012 -23.720568 
L 34.973666 -23.790325 
L 34.911831 -23.860082 
L 34.838629 -23.929839 
L 34.753101 -23.999597 
L 34.655356 -24.069354 
L 34.546646 -24.139111 
L 34.42937 -24.208869 
L 34.307001 -24.278626 
L 34.183955 -24.348383 
L 34.065385 -24.41814 
L 33.95695 -24.487898 
L 33.864542 -24.557655 
L 33.79401 -24.627412 
L 33.75089 -24.697169 
L 33.740156 -24.766927 
L 33.76601 -24.836684 
L 33.831712 -24.906441 
L 33.939459 -24.976199 
L 34.090319 -25.045956 
L 34.28421 -25.115713 
L 34.519927 -25.18547 
L 34.79521 -25.255228 
L 35.106844 -25.324985 
L 35.450782 -25.394742 
L 35.822298 -25.4645 
L 36.21614 -25.534257 
L 36.626701 -25.604014 
L 37.048189 -25.673771 
L 37.474792 -25.743529 
L 37.90084 -25.813286 
L 38.320949 -25.883043 
L 38.730158 -25.952801 
L 39.124039 -26.022558 
L 39.498785 -26.092315 
L 39.851274 -26.162072 
L 40.179109 -26.23183 
L 40.480622 -26.301587 
L 40.75486 -26.371344 
L 41.00154 -26.441101 
L 43.740642 -26.441101 
L 43.740642 -26.441101 
L 43.987322 -26.371344 
L 44.26156 -26.301587 
L 44.563073 -26.23183 
L 44.890908 -26.162072 
L 45.243397 -26.092315 
L 45.618143 -26.022558 
L 46.012024 -25.952801 
L 46.421233 -25.883043 
L 46.841342 -25.813286 
L 47.267389 -25.743529 
L 47.693993 -25.673771 
L 48.115481 -25.604014 
L 48.526042 -25.534257 
L 48.919884 -25.4645 
L 49.291399 -25.394742 
L 49.635338 -25.324985 
L 49.946972 -25.255228 
L 50.222255 -25.18547 
L 50.457972 -25.115713 
L 50.651863 -25.045956 
L 50.802723 -24.976199 
L 50.91047 -24.906441 
L 50.976172 -24.836684 
L 51.002026 -24.766927 
L 50.991292 -24.697169 
L 50.948172 -24.627412 
L 50.877639 -24.557655 
L 50.785231 -24.487898 
L 50.676797 -24.41814 
L 50.558227 -24.348383 
L 50.435181 -24.278626 
L 50.312812 -24.208869 
L 50.195536 -24.139111 
L 50.086826 -24.069354 
L 49.989081 -23.999597 
L 49.903553 -23.929839 
L 49.830351 -23.860082 
L 49.768516 -23.790325 
L 49.716169 -23.720568 
L 49.670709 -23.65081 
L 49.629053 -23.581053 
L 49.587901 -23.511296 
L 49.544003 -23.441538 
L 49.494406 -23.371781 
L 49.436669 -23.302024 
L 49.369024 -23.232267 
L 49.290482 -23.162509 
L 49.20087 -23.092752 
L 49.100813 -23.022995 
L 48.991646 -22.953237 
L 48.875293 -22.88348 
L 48.75411 -22.813723 
L 48.63071 -22.743966 
L 48.507797 -22.674208 
L 48.388015 -22.604451 
L 48.273824 -22.534694 
L 48.167423 -22.464937 
L 48.07071 -22.395179 
L 47.985278 -22.325422 
L 47.912453 -22.255665 
L 47.853343 -22.185907 
L 47.808904 -22.11615 
L 47.779988 -22.046393 
L 47.767377 -21.976636 
L 47.771779 -21.906878 
L 47.793788 -21.837121 
L 47.833797 -21.767364 
L 47.891885 -21.697606 
L 47.967673 -21.627849 
L 48.060169 -21.558092 
L 48.167633 -21.488335 
L 48.287456 -21.418577 
L 48.416103 -21.34882 
L 48.549111 -21.279063 
L 48.681159 -21.209305 
L 48.806221 -21.139548 
L 48.917784 -21.069791 
L 49.009134 -21.000034 
L 49.073675 -20.930276 
L 49.105281 -20.860519 
L 49.09863 -20.790762 
L 49.049514 -20.721005 
L 48.955095 -20.651247 
L 48.814079 -20.58149 
L 48.626817 -20.511733 
L 48.395296 -20.441975 
L 48.123044 -20.372218 
L 47.81496 -20.302461 
L 47.477053 -20.232704 
L 47.11615 -20.162946 
L 46.739561 -20.093189 
L 46.354746 -20.023432 
L 45.968989 -19.953674 
L 45.589109 -19.883917 
L 45.221225 -19.81416 
L 44.870567 -19.744403 
L 44.541361 -19.674645 
L 44.236773 -19.604888 
L 43.958912 -19.535131 
z
" style="stroke: #6f6f6f; stroke-width: 0.15"/>
    </defs>
    <g clip-path="url(#p9f4bae971a)">
     <use xlink:href="#mfcd895c699" x="0" y="84.96" style="fill: #f1b9e0; stroke: #6f6f6f; stroke-width: 0.15"/>
    </g>
   </g>
   <g id="line2d_8">
    <path d="M 20.793753 58.093691 
L 20.793753 44.086589 
" clip-path="url(#p9f4bae971a)" style="fill: none; stroke: #8c8c8c; stroke-width: 0.75; stroke-linecap: round"/>
   </g>
   <g id="line2d_9">
    <path d="M 20.793753 56.002725 
L 20.793753 47.325311 
" clip-path="url(#p9f4bae971a)" style="fill: none; stroke: #8c8c8c; stroke-width: 4; stroke-linecap: round"/>
   </g>
   <g id="line2d_10">
    <path d="M 20.793753 50.161384 
" clip-path="url(#p9f4bae971a)" style="fill: none; stroke: #6f6f6f; stroke-width: 1.2; stroke-linecap: round"/>
    <defs>
     <path id="m697b007dba" d="M 0 0.833333 
C 0.221003 0.833333 0.432983 0.745528 0.589256 0.589256 
C 0.745528 0.432983 0.833333 0.221003 0.833333 0 
C 0.833333 -0.221003 0.745528 -0.432983 0.589256 -0.589256 
C 0.432983 -0.745528 0.221003 -0.833333 0 -0.833333 
C -0.221003 -0.833333 -0.432983 -0.745528 -0.589256 -0.589256 
C -0.745528 -0.432983 -0.833333 -0.221003 -0.833333 0 
C -0.833333 0.221003 -0.745528 0.432983 -0.589256 0.589256 
C -0.432983 0.745528 -0.221003 0.833333 0 0.833333 
z
" style="stroke: #ffffff; stroke-width: 0.8"/>
    </defs>
    <g clip-path="url(#p9f4bae971a)">
     <use xlink:href="#m697b007dba" x="20.793753" y="50.161384" style="fill: #ffffff; stroke: #ffffff; stroke-width: 0.8"/>
    </g>
   </g>
   <g id="line2d_11">
    <path d="M 42.371091 64.449047 
L 42.371091 59.494721 
" clip-path="url(#p9f4bae971a)" style="fill: none; stroke: #8c8c8c; stroke-width: 0.75; stroke-linecap: round"/>
   </g>
   <g id="line2d_12">
    <path d="M 42.371091 63.270711 
L 42.371091 60.352483 
" clip-path="url(#p9f4bae971a)" style="fill: none; stroke: #8c8c8c; stroke-width: 4; stroke-linecap: round"/>
   </g>
   <g id="line2d_13">
    <path d="M 42.371091 61.678209 
" clip-path="url(#p9f4bae971a)" style="fill: none; stroke: #6f6f6f; stroke-width: 1.2; stroke-linecap: round"/>
    <g clip-path="url(#p9f4bae971a)">
     <use xlink:href="#m697b007dba" x="42.371091" y="61.678209" style="fill: #ffffff; stroke: #ffffff; stroke-width: 0.8"/>
    </g>
   </g>
   <g id="patch_3">
    <path d="M 10.005084 74.419526 
L 10.005084 4.076256 
" style="fill: none; stroke: #777777; stroke-width: 0.5; stroke-linejoin: miter; stroke-linecap: square"/>
   </g>
   <g id="patch_4">
    <path d="M 10.005084 76.919526 
L 53.15976 76.919526 
" style="fill: none; stroke: #777777; stroke-width: 0.5; stroke-linejoin: miter; stroke-linecap: square"/>
   </g>
  </g>
 </g>
 <defs>
  <clipPath id="p9f4bae971a">
   <rect x="10.005084" y="4.076256" width="43.154676" height="70.34327"/>
  </clipPath>
 </defs>
</svg>
