<?xml version="1.0" encoding="utf-8" standalone="no"?>
<!DOCTYPE svg PUBLIC "-//W3C//DTD SVG 1.1//EN"
  "http://www.w3.org/Graphics/SVG/1.1/DTD/svg11.dtd">
<svg xmlns:xlink="http://www.w3.org/1999/xlink" width="84.96pt" height="84.96pt" viewBox="0 0 84.96 84.96" xmlns="http://www.w3.org/2000/svg" version="1.1">
 <metadata>
  <rdf:RDF xmlns:dc="http://purl.org/dc/elements/1.1/" xmlns:cc="http://creativecommons.org/ns#" xmlns:rdf="http://www.w3.org/1999/02/22-rdf-syntax-ns#">
   <cc:Work>
    <dc:type rdf:resource="http://purl.org/dc/dcmitype/StillImage"/>
    <dc:date>2024-05-27T15:37:09.946772</dc:date>
    <dc:format>image/svg+xml</dc:format>
    <dc:creator>
     <cc:Agent>
      <dc:title>Matplotlib v3.8.3, https://matplotlib.org/</dc:title>
     </cc:Agent>
    </dc:creator>
   </cc:Work>
  </rdf:RDF>
 </metadata>
 <defs>
  <style type="text/css">*{stroke-linejoin: round; stroke-linecap: butt}</style>
 </defs>
 <g id="figure_1">
  <g id="patch_1">
   <path d="M 0 84.96 
L 84.96 84.96 
L 84.96 0 
L 0 0 
z
" style="fill: #ffffff"/>
  </g>
  <g id="axes_1">
   <g id="patch_2">
    <path d="M 10.005084 74.419526 
L 81.95976 74.419526 
L 81.95976 4.076256 
L 10.005084 4.076256 
z
" style="fill: #ffffff"/>
   </g>
   <g id="matplotlib.axis_1">
    <g id="xtick_1">
     <g id="text_1">
      <!-- NK/ILC1ie -->
      <g style="fill: #333333" transform="translate(14.021905 81.230229) scale(0.035 -0.035)">
       <defs>
        <path id="Helvetica-4e" d="M 488 4591 
L 1222 4591 
L 3541 872 
L 3541 4591 
L 4131 4591 
L 4131 0 
L 3434 0 
L 1081 3716 
L 1081 0 
L 488 0 
L 488 4591 
z
M 2269 4591 
L 2269 4591 
z
" transform="scale(0.015625)"/>
        <path id="Helvetica-4b" d="M 488 4591 
L 1094 4591 
L 1094 2353 
L 3331 4591 
L 4191 4591 
L 2281 2741 
L 4244 0 
L 3434 0 
L 1828 2303 
L 1094 1600 
L 1094 0 
L 488 0 
L 488 4591 
z
" transform="scale(0.015625)"/>
        <path id="Helvetica-2f" d="M 1456 4591 
L 1931 4591 
L 475 0 
L 0 0 
L 1456 4591 
z
" transform="scale(0.015625)"/>
        <path id="Helvetica-49" d="M 628 4591 
L 1256 4591 
L 1256 0 
L 628 0 
L 628 4591 
z
" transform="scale(0.015625)"/>
        <path id="Helvetica-4c" d="M 488 4591 
L 1109 4591 
L 1109 547 
L 3434 547 
L 3434 0 
L 488 0 
L 488 4591 
z
" transform="scale(0.015625)"/>
        <path id="Helvetica-43" d="M 2422 4716 
Q 3294 4716 3775 4256 
Q 4256 3797 4309 3213 
L 3703 3213 
Q 3600 3656 3292 3915 
Q 2984 4175 2428 4175 
Q 1750 4175 1333 3698 
Q 916 3222 916 2238 
Q 916 1431 1292 929 
Q 1669 428 2416 428 
Q 3103 428 3463 956 
Q 3653 1234 3747 1688 
L 4353 1688 
Q 4272 963 3816 472 
Q 3269 -119 2341 -119 
Q 1541 -119 997 366 
Q 281 1006 281 2344 
Q 281 3359 819 4009 
Q 1400 4716 2422 4716 
z
M 2297 4716 
L 2297 4716 
z
" transform="scale(0.015625)"/>
        <path id="Helvetica-31" d="M 613 3169 
L 613 3600 
Q 1222 3659 1462 3798 
Q 1703 3938 1822 4456 
L 2266 4456 
L 2266 0 
L 1666 0 
L 1666 3169 
L 613 3169 
z
" transform="scale(0.015625)"/>
        <path id="Helvetica-69" d="M 413 3331 
L 984 3331 
L 984 0 
L 413 0 
L 413 3331 
z
M 413 4591 
L 984 4591 
L 984 3953 
L 413 3953 
L 413 4591 
z
" transform="scale(0.015625)"/>
        <path id="Helvetica-65" d="M 1806 3422 
Q 2163 3422 2497 3255 
Q 2831 3088 3006 2822 
Q 3175 2569 3231 2231 
Q 3281 2000 3281 1494 
L 828 1494 
Q 844 984 1069 676 
Q 1294 369 1766 369 
Q 2206 369 2469 659 
Q 2619 828 2681 1050 
L 3234 1050 
Q 3213 866 3089 639 
Q 2966 413 2813 269 
Q 2556 19 2178 -69 
Q 1975 -119 1719 -119 
Q 1094 -119 659 336 
Q 225 791 225 1609 
Q 225 2416 662 2919 
Q 1100 3422 1806 3422 
z
M 2703 1941 
Q 2669 2306 2544 2525 
Q 2313 2931 1772 2931 
Q 1384 2931 1121 2651 
Q 859 2372 844 1941 
L 2703 1941 
z
M 1753 3428 
L 1753 3428 
z
" transform="scale(0.015625)"/>
       </defs>
       <use xlink:href="#Helvetica-4e"/>
       <use xlink:href="#Helvetica-4b" x="72.216797"/>
       <use xlink:href="#Helvetica-2f" x="138.916016"/>
       <use xlink:href="#Helvetica-49" x="166.699219"/>
       <use xlink:href="#Helvetica-4c" x="194.482422"/>
       <use xlink:href="#Helvetica-43" x="250.097656"/>
       <use xlink:href="#Helvetica-31" x="322.314453"/>
       <use xlink:href="#Helvetica-69" x="377.929688"/>
       <use xlink:href="#Helvetica-65" x="400.146484"/>
      </g>
     </g>
    </g>
    <g id="xtick_2">
     <g id="text_2">
      <!-- ILC1 -->
      <g style="fill: #333333" transform="translate(42.286094 81.230229) scale(0.035 -0.035)">
       <use xlink:href="#Helvetica-49"/>
       <use xlink:href="#Helvetica-4c" x="27.783203"/>
       <use xlink:href="#Helvetica-43" x="83.398438"/>
       <use xlink:href="#Helvetica-31" x="155.615234"/>
      </g>
     </g>
    </g>
    <g id="xtick_3">
     <g id="text_3">
      <!-- TH1 -->
      <g style="fill: #333333" transform="translate(66.661455 81.230229) scale(0.035 -0.035)">
       <defs>
        <path id="Helvetica-54" d="M 3828 4591 
L 3828 4044 
L 2281 4044 
L 2281 0 
L 1650 0 
L 1650 4044 
L 103 4044 
L 103 4591 
L 3828 4591 
z
" transform="scale(0.015625)"/>
        <path id="Helvetica-48" d="M 503 4591 
L 1131 4591 
L 1131 2694 
L 3519 2694 
L 3519 4591 
L 4147 4591 
L 4147 0 
L 3519 0 
L 3519 2147 
L 1131 2147 
L 1131 0 
L 503 0 
L 503 4591 
z
" transform="scale(0.015625)"/>
       </defs>
       <use xlink:href="#Helvetica-54"/>
       <use xlink:href="#Helvetica-48" x="61.083984"/>
       <use xlink:href="#Helvetica-31" x="133.300781"/>
      </g>
     </g>
    </g>
   </g>
   <g id="matplotlib.axis_2">
    <g id="ytick_1">
     <g id="line2d_1">
      <defs>
       <path id="m31e6613c2a" d="M 0 0 
L -1 0 
" style="stroke: #777777; stroke-width: 0.5"/>
      </defs>
      <g>
       <use xlink:href="#m31e6613c2a" x="10.005084" y="65.703651" style="fill: #777777; stroke: #777777; stroke-width: 0.5"/>
      </g>
     </g>
     <g id="text_4">
      <!-- 0 -->
      <g style="fill: #333333" transform="translate(6.336803 66.779667) scale(0.03 -0.03)">
       <defs>
        <path id="Helvetica-30" d="M 1731 4475 
Q 2600 4475 2988 3759 
Q 3288 3206 3288 2244 
Q 3288 1331 3016 734 
Q 2622 -122 1728 -122 
Q 922 -122 528 578 
Q 200 1163 200 2147 
Q 200 2909 397 3456 
Q 766 4475 1731 4475 
z
M 1725 391 
Q 2163 391 2422 778 
Q 2681 1166 2681 2222 
Q 2681 2984 2493 3476 
Q 2306 3969 1766 3969 
Q 1269 3969 1039 3501 
Q 809 3034 809 2125 
Q 809 1441 956 1025 
Q 1181 391 1725 391 
z
" transform="scale(0.015625)"/>
       </defs>
       <use xlink:href="#Helvetica-30"/>
      </g>
     </g>
    </g>
    <g id="ytick_2">
     <g id="line2d_2">
      <g>
       <use xlink:href="#m31e6613c2a" x="10.005084" y="56.899737" style="fill: #777777; stroke: #777777; stroke-width: 0.5"/>
      </g>
     </g>
     <g id="text_5">
      <!-- 100 -->
      <g style="fill: #333333" transform="translate(3.00024 57.975753) scale(0.03 -0.03)">
       <use xlink:href="#Helvetica-31"/>
       <use xlink:href="#Helvetica-30" x="55.615234"/>
       <use xlink:href="#Helvetica-30" x="111.230469"/>
      </g>
     </g>
    </g>
    <g id="ytick_3">
     <g id="line2d_3">
      <g>
       <use xlink:href="#m31e6613c2a" x="10.005084" y="48.095824" style="fill: #777777; stroke: #777777; stroke-width: 0.5"/>
      </g>
     </g>
     <g id="text_6">
      <!-- 200 -->
      <g style="fill: #333333" transform="translate(3.00024 49.171839) scale(0.03 -0.03)">
       <defs>
        <path id="Helvetica-32" d="M 200 0 
Q 231 578 439 1006 
Q 647 1434 1250 1784 
L 1850 2131 
Q 2253 2366 2416 2531 
Q 2672 2791 2672 3125 
Q 2672 3516 2437 3745 
Q 2203 3975 1813 3975 
Q 1234 3975 1013 3538 
Q 894 3303 881 2888 
L 309 2888 
Q 319 3472 525 3841 
Q 891 4491 1816 4491 
Q 2584 4491 2939 4075 
Q 3294 3659 3294 3150 
Q 3294 2613 2916 2231 
Q 2697 2009 2131 1694 
L 1703 1456 
Q 1397 1288 1222 1134 
Q 909 863 828 531 
L 3272 531 
L 3272 0 
L 200 0 
z
" transform="scale(0.015625)"/>
       </defs>
       <use xlink:href="#Helvetica-32"/>
       <use xlink:href="#Helvetica-30" x="55.615234"/>
       <use xlink:href="#Helvetica-30" x="111.230469"/>
      </g>
     </g>
    </g>
    <g id="ytick_4">
     <g id="line2d_4">
      <g>
       <use xlink:href="#m31e6613c2a" x="10.005084" y="39.29191" style="fill: #777777; stroke: #777777; stroke-width: 0.5"/>
      </g>
     </g>
     <g id="text_7">
      <!-- 300 -->
      <g style="fill: #333333" transform="translate(3.00024 40.367926) scale(0.03 -0.03)">
       <defs>
        <path id="Helvetica-33" d="M 1663 -122 
Q 869 -122 511 314 
Q 153 750 153 1375 
L 741 1375 
Q 778 941 903 744 
Q 1122 391 1694 391 
Q 2138 391 2406 628 
Q 2675 866 2675 1241 
Q 2675 1703 2392 1887 
Q 2109 2072 1606 2072 
Q 1550 2072 1492 2070 
Q 1434 2069 1375 2066 
L 1375 2563 
Q 1463 2553 1522 2550 
Q 1581 2547 1650 2547 
Q 1966 2547 2169 2647 
Q 2525 2822 2525 3272 
Q 2525 3606 2287 3787 
Q 2050 3969 1734 3969 
Q 1172 3969 956 3594 
Q 838 3388 822 3006 
L 266 3006 
Q 266 3506 466 3856 
Q 809 4481 1675 4481 
Q 2359 4481 2734 4176 
Q 3109 3872 3109 3294 
Q 3109 2881 2888 2625 
Q 2750 2466 2531 2375 
Q 2884 2278 3082 2001 
Q 3281 1725 3281 1325 
Q 3281 684 2859 281 
Q 2438 -122 1663 -122 
z
" transform="scale(0.015625)"/>
       </defs>
       <use xlink:href="#Helvetica-33"/>
       <use xlink:href="#Helvetica-30" x="55.615234"/>
       <use xlink:href="#Helvetica-30" x="111.230469"/>
      </g>
     </g>
    </g>
    <g id="ytick_5">
     <g id="line2d_5">
      <g>
       <use xlink:href="#m31e6613c2a" x="10.005084" y="30.487997" style="fill: #777777; stroke: #777777; stroke-width: 0.5"/>
      </g>
     </g>
     <g id="text_8">
      <!-- 400 -->
      <g style="fill: #333333" transform="translate(3.00024 31.564012) scale(0.03 -0.03)">
       <defs>
        <path id="Helvetica-34" d="M 2116 1584 
L 2116 3613 
L 681 1584 
L 2116 1584 
z
M 2125 0 
L 2125 1094 
L 163 1094 
L 163 1644 
L 2213 4488 
L 2688 4488 
L 2688 1584 
L 3347 1584 
L 3347 1094 
L 2688 1094 
L 2688 0 
L 2125 0 
z
" transform="scale(0.015625)"/>
       </defs>
       <use xlink:href="#Helvetica-34"/>
       <use xlink:href="#Helvetica-30" x="55.615234"/>
       <use xlink:href="#Helvetica-30" x="111.230469"/>
      </g>
     </g>
    </g>
    <g id="ytick_6">
     <g id="line2d_6">
      <g>
       <use xlink:href="#m31e6613c2a" x="10.005084" y="21.684083" style="fill: #777777; stroke: #777777; stroke-width: 0.5"/>
      </g>
     </g>
     <g id="text_9">
      <!-- 500 -->
      <g style="fill: #333333" transform="translate(3.00024 22.760099) scale(0.03 -0.03)">
       <defs>
        <path id="Helvetica-35" d="M 791 1141 
Q 847 659 1238 475 
Q 1438 381 1700 381 
Q 2200 381 2440 700 
Q 2681 1019 2681 1406 
Q 2681 1875 2395 2131 
Q 2109 2388 1709 2388 
Q 1419 2388 1211 2275 
Q 1003 2163 856 1963 
L 369 1991 
L 709 4400 
L 3034 4400 
L 3034 3856 
L 1131 3856 
L 941 2613 
Q 1097 2731 1238 2791 
Q 1488 2894 1816 2894 
Q 2431 2894 2859 2497 
Q 3288 2100 3288 1491 
Q 3288 856 2895 371 
Q 2503 -113 1644 -113 
Q 1097 -113 676 195 
Q 256 503 206 1141 
L 791 1141 
z
" transform="scale(0.015625)"/>
       </defs>
       <use xlink:href="#Helvetica-35"/>
       <use xlink:href="#Helvetica-30" x="55.615234"/>
       <use xlink:href="#Helvetica-30" x="111.230469"/>
      </g>
     </g>
    </g>
    <g id="ytick_7">
     <g id="line2d_7">
      <g>
       <use xlink:href="#m31e6613c2a" x="10.005084" y="12.880169" style="fill: #777777; stroke: #777777; stroke-width: 0.5"/>
      </g>
     </g>
     <g id="text_10">
      <!-- 600 -->
      <g style="fill: #333333" transform="translate(3.00024 13.956185) scale(0.03 -0.03)">
       <defs>
        <path id="Helvetica-36" d="M 1872 4494 
Q 2622 4494 2917 4105 
Q 3213 3716 3213 3303 
L 2656 3303 
Q 2606 3569 2497 3719 
Q 2294 4000 1881 4000 
Q 1409 4000 1131 3564 
Q 853 3128 822 2316 
Q 1016 2600 1309 2741 
Q 1578 2866 1909 2866 
Q 2472 2866 2890 2506 
Q 3309 2147 3309 1434 
Q 3309 825 2912 354 
Q 2516 -116 1781 -116 
Q 1153 -116 697 361 
Q 241 838 241 1966 
Q 241 2800 444 3381 
Q 834 4494 1872 4494 
z
M 1831 384 
Q 2275 384 2495 682 
Q 2716 981 2716 1388 
Q 2716 1731 2519 2042 
Q 2322 2353 1803 2353 
Q 1441 2353 1167 2112 
Q 894 1872 894 1388 
Q 894 963 1142 673 
Q 1391 384 1831 384 
z
" transform="scale(0.015625)"/>
       </defs>
       <use xlink:href="#Helvetica-36"/>
       <use xlink:href="#Helvetica-30" x="55.615234"/>
       <use xlink:href="#Helvetica-30" x="111.230469"/>
      </g>
     </g>
    </g>
    <g id="ytick_8">
     <g id="line2d_8">
      <g>
       <use xlink:href="#m31e6613c2a" x="10.005084" y="4.076256" style="fill: #777777; stroke: #777777; stroke-width: 0.5"/>
      </g>
     </g>
     <g id="text_11">
      <!-- 700 -->
      <g style="fill: #333333" transform="translate(3.00024 5.152271) scale(0.03 -0.03)">
       <defs>
        <path id="Helvetica-37" d="M 3347 4400 
L 3347 3909 
Q 3131 3700 2773 3181 
Q 2416 2663 2141 2063 
Q 1869 1478 1728 997 
Q 1638 688 1494 0 
L 872 0 
Q 1084 1281 1809 2550 
Q 2238 3294 2709 3834 
L 234 3834 
L 234 4400 
L 3347 4400 
z
" transform="scale(0.015625)"/>
       </defs>
       <use xlink:href="#Helvetica-37"/>
       <use xlink:href="#Helvetica-30" x="55.615234"/>
       <use xlink:href="#Helvetica-30" x="111.230469"/>
      </g>
     </g>
    </g>
   </g>
   <g id="PolyCollection_1">
    <defs>
     <path id="m74e0047b90" d="M 24.747361 -19.218019 
L 19.247699 -19.218019 
L 18.805438 -19.222265 
L 18.327073 -19.226512 
L 17.816908 -19.230758 
L 17.280829 -19.235005 
L 16.726278 -19.239251 
L 16.162156 -19.243497 
L 15.598634 -19.247744 
L 15.046877 -19.25199 
L 14.518696 -19.256237 
L 14.02613 -19.260483 
L 13.580985 -19.264729 
L 13.194346 -19.268976 
L 12.8761 -19.273222 
L 12.634482 -19.277469 
L 12.475689 -19.281715 
L 12.403573 -19.285961 
L 12.419441 -19.290208 
L 12.521973 -19.294454 
L 12.707263 -19.298701 
L 12.968984 -19.302947 
L 13.298667 -19.307193 
L 13.686075 -19.31144 
L 14.119654 -19.315686 
L 14.587026 -19.319933 
L 15.075512 -19.324179 
L 15.572635 -19.328425 
L 16.066598 -19.332672 
L 16.546692 -19.336918 
L 17.003642 -19.341165 
L 17.429857 -19.345411 
L 17.81958 -19.349657 
L 18.168957 -19.353904 
L 18.476002 -19.35815 
L 18.740485 -19.362397 
L 18.963754 -19.366643 
L 19.148496 -19.370889 
L 19.298466 -19.375136 
L 19.418186 -19.379382 
L 19.512648 -19.383629 
L 19.587013 -19.387875 
L 19.646343 -19.392121 
L 19.695358 -19.396368 
L 19.738233 -19.400614 
L 19.778445 -19.404861 
L 19.818664 -19.409107 
L 19.860702 -19.413353 
L 19.905502 -19.4176 
L 19.953182 -19.421846 
L 20.003109 -19.426093 
L 20.054013 -19.430339 
L 20.104129 -19.434585 
L 20.151347 -19.438832 
L 20.193376 -19.443078 
L 20.227907 -19.447325 
L 20.252766 -19.451571 
L 20.266049 -19.455817 
L 20.266233 -19.460064 
L 20.25227 -19.46431 
L 20.223635 -19.468557 
L 20.180357 -19.472803 
L 20.123017 -19.477049 
L 20.052709 -19.481296 
L 19.970992 -19.485542 
L 19.87981 -19.489789 
L 19.781408 -19.494035 
L 19.678236 -19.498281 
L 19.572851 -19.502528 
L 19.467832 -19.506774 
L 19.365691 -19.511021 
L 19.268809 -19.515267 
L 19.179379 -19.519513 
L 19.099367 -19.52376 
L 19.030489 -19.528006 
L 18.974201 -19.532253 
L 18.931695 -19.536499 
L 18.903908 -19.540745 
L 18.891531 -19.544992 
L 18.895021 -19.549238 
L 18.914608 -19.553485 
L 18.950301 -19.557731 
L 19.001893 -19.561977 
L 19.068956 -19.566224 
L 19.150841 -19.57047 
L 19.246674 -19.574717 
L 19.355359 -19.578963 
L 19.475585 -19.583209 
L 19.605839 -19.587456 
L 19.744428 -19.591702 
L 19.889514 -19.595949 
L 20.039154 -19.600195 
L 20.19135 -19.604441 
L 20.344101 -19.608688 
L 20.495462 -19.612934 
L 20.643596 -19.617181 
L 20.786824 -19.621427 
L 20.923673 -19.625673 
L 21.052905 -19.62992 
L 21.173542 -19.634166 
L 21.284875 -19.638413 
L 22.710184 -19.638413 
L 22.710184 -19.638413 
L 22.821518 -19.634166 
L 22.942154 -19.62992 
L 23.071386 -19.625673 
L 23.208235 -19.621427 
L 23.351464 -19.617181 
L 23.499597 -19.612934 
L 23.650958 -19.608688 
L 23.80371 -19.604441 
L 23.955906 -19.600195 
L 24.105546 -19.595949 
L 24.250632 -19.591702 
L 24.389221 -19.587456 
L 24.519474 -19.583209 
L 24.6397 -19.578963 
L 24.748386 -19.574717 
L 24.844219 -19.57047 
L 24.926103 -19.566224 
L 24.993166 -19.561977 
L 25.044758 -19.557731 
L 25.080452 -19.553485 
L 25.100039 -19.549238 
L 25.103528 -19.544992 
L 25.091152 -19.540745 
L 25.063365 -19.536499 
L 25.020858 -19.532253 
L 24.96457 -19.528006 
L 24.895693 -19.52376 
L 24.815681 -19.519513 
L 24.726251 -19.515267 
L 24.629369 -19.511021 
L 24.527228 -19.506774 
L 24.422208 -19.502528 
L 24.316824 -19.498281 
L 24.213651 -19.494035 
L 24.115249 -19.489789 
L 24.024067 -19.485542 
L 23.94235 -19.481296 
L 23.872043 -19.477049 
L 23.814702 -19.472803 
L 23.771425 -19.468557 
L 23.74279 -19.46431 
L 23.728826 -19.460064 
L 23.729011 -19.455817 
L 23.742293 -19.451571 
L 23.767152 -19.447325 
L 23.801684 -19.443078 
L 23.843713 -19.438832 
L 23.89093 -19.434585 
L 23.941046 -19.430339 
L 23.991951 -19.426093 
L 24.041877 -19.421846 
L 24.089557 -19.4176 
L 24.134358 -19.413353 
L 24.176396 -19.409107 
L 24.216615 -19.404861 
L 24.256826 -19.400614 
L 24.299701 -19.396368 
L 24.348716 -19.392121 
L 24.408047 -19.387875 
L 24.482412 -19.383629 
L 24.576873 -19.379382 
L 24.696594 -19.375136 
L 24.846563 -19.370889 
L 25.031306 -19.366643 
L 25.254575 -19.362397 
L 25.519058 -19.35815 
L 25.826102 -19.353904 
L 26.175479 -19.349657 
L 26.565203 -19.345411 
L 26.991417 -19.341165 
L 27.448368 -19.336918 
L 27.928462 -19.332672 
L 28.422424 -19.328425 
L 28.919548 -19.324179 
L 29.408034 -19.319933 
L 29.875406 -19.315686 
L 30.308984 -19.31144 
L 30.696392 -19.307193 
L 31.026075 -19.302947 
L 31.287796 -19.298701 
L 31.473086 -19.294454 
L 31.575618 -19.290208 
L 31.591487 -19.285961 
L 31.519371 -19.281715 
L 31.360578 -19.277469 
L 31.11896 -19.273222 
L 30.800713 -19.268976 
L 30.414075 -19.264729 
L 29.96893 -19.260483 
L 29.476364 -19.256237 
L 28.948183 -19.25199 
L 28.396426 -19.247744 
L 27.832904 -19.243497 
L 27.268782 -19.239251 
L 26.714231 -19.235005 
L 26.178151 -19.230758 
L 25.667987 -19.226512 
L 25.189622 -19.222265 
L 24.747361 -19.218019 
z
" style="stroke: #6f6f6f; stroke-width: 0.15"/>
    </defs>
    <g clip-path="url(#p47c3b15f2d)">
     <use xlink:href="#m74e0047b90" x="0" y="84.96" style="fill: #98daa7; stroke: #6f6f6f; stroke-width: 0.15"/>
    </g>
   </g>
   <g id="PolyCollection_2">
    <defs>
     <path id="m0e54fd2d06" d="M 48.050739 -20.27651 
L 43.914105 -20.27651 
L 43.545672 -20.478439 
L 43.142404 -20.680368 
L 42.707561 -20.882297 
L 42.245795 -21.084226 
L 41.763078 -21.286155 
L 41.26654 -21.488084 
L 40.764205 -21.690013 
L 40.264656 -21.891942 
L 39.77662 -22.093871 
L 39.308524 -22.2958 
L 38.868035 -22.497729 
L 38.461637 -22.699658 
L 38.094274 -22.901587 
L 37.769095 -23.103516 
L 37.487328 -23.305445 
L 37.248313 -23.507374 
L 37.049672 -23.709303 
L 36.88764 -23.911232 
L 36.757504 -24.113161 
L 36.654132 -24.31509 
L 36.572536 -24.517019 
L 36.508419 -24.718948 
L 36.458659 -24.920877 
L 36.42167 -25.122806 
L 36.39762 -25.324735 
L 36.388465 -25.526664 
L 36.397806 -25.728593 
L 36.430571 -25.930522 
L 36.49256 -26.132451 
L 36.589882 -26.33438 
L 36.728341 -26.536309 
L 36.912837 -26.738238 
L 37.146814 -26.940167 
L 37.431829 -27.142096 
L 37.767249 -27.344025 
L 38.150131 -27.545954 
L 38.575263 -27.747883 
L 39.035373 -27.949813 
L 39.521477 -28.151742 
L 40.023333 -28.353671 
L 40.529965 -28.5556 
L 41.030211 -28.757529 
L 41.513255 -28.959458 
L 41.969113 -29.161387 
L 42.389042 -29.363316 
L 42.765859 -29.565245 
L 43.094156 -29.767174 
L 43.370415 -29.969103 
L 43.593035 -30.171032 
L 43.762264 -30.372961 
L 43.880072 -30.57489 
L 43.949964 -30.776819 
L 43.976748 -30.978748 
L 43.966277 -31.180677 
L 43.925165 -31.382606 
L 43.860494 -31.584535 
L 43.779516 -31.786464 
L 43.689353 -31.988393 
L 43.59672 -32.190322 
L 43.507655 -32.392251 
L 43.427293 -32.59418 
L 43.359673 -32.796109 
L 43.307605 -32.998038 
L 43.2726 -33.199967 
L 43.254861 -33.401896 
L 43.253358 -33.603825 
L 43.265966 -33.805754 
L 43.289672 -34.007683 
L 43.320835 -34.209612 
L 43.355483 -34.411541 
L 43.389626 -34.61347 
L 43.419573 -34.815399 
L 43.442215 -35.017328 
L 43.455266 -35.219257 
L 43.457444 -35.421186 
L 43.448575 -35.623115 
L 43.429608 -35.825044 
L 43.402554 -36.026973 
L 43.370344 -36.228902 
L 43.336622 -36.430831 
L 43.305484 -36.63276 
L 43.281192 -36.834689 
L 43.267879 -37.036618 
L 43.269267 -37.238547 
L 43.288425 -37.440476 
L 43.327572 -37.642405 
L 43.387951 -37.844334 
L 43.469771 -38.046264 
L 43.572219 -38.248193 
L 43.693541 -38.450122 
L 43.831179 -38.652051 
L 43.981952 -38.85398 
L 44.142259 -39.055909 
L 44.308297 -39.257838 
L 44.476273 -39.459767 
L 44.642588 -39.661696 
L 44.803998 -39.863625 
L 44.957734 -40.065554 
L 45.101577 -40.267483 
L 46.863267 -40.267483 
L 46.863267 -40.267483 
L 47.00711 -40.065554 
L 47.160846 -39.863625 
L 47.322256 -39.661696 
L 47.488571 -39.459767 
L 47.656547 -39.257838 
L 47.822585 -39.055909 
L 47.982892 -38.85398 
L 48.133665 -38.652051 
L 48.271303 -38.450122 
L 48.392625 -38.248193 
L 48.495072 -38.046264 
L 48.576892 -37.844334 
L 48.637272 -37.642405 
L 48.676419 -37.440476 
L 48.695577 -37.238547 
L 48.696965 -37.036618 
L 48.683652 -36.834689 
L 48.65936 -36.63276 
L 48.628222 -36.430831 
L 48.5945 -36.228902 
L 48.56229 -36.026973 
L 48.535236 -35.825044 
L 48.516269 -35.623115 
L 48.507399 -35.421186 
L 48.509578 -35.219257 
L 48.522629 -35.017328 
L 48.54527 -34.815399 
L 48.575217 -34.61347 
L 48.609361 -34.411541 
L 48.644009 -34.209612 
L 48.675172 -34.007683 
L 48.698878 -33.805754 
L 48.711486 -33.603825 
L 48.709982 -33.401896 
L 48.692244 -33.199967 
L 48.657238 -32.998038 
L 48.605171 -32.796109 
L 48.537551 -32.59418 
L 48.457188 -32.392251 
L 48.368124 -32.190322 
L 48.275491 -31.988393 
L 48.185328 -31.786464 
L 48.10435 -31.584535 
L 48.039679 -31.382606 
L 47.998567 -31.180677 
L 47.988096 -30.978748 
L 48.01488 -30.776819 
L 48.084772 -30.57489 
L 48.20258 -30.372961 
L 48.371809 -30.171032 
L 48.594428 -29.969103 
L 48.870688 -29.767174 
L 49.198984 -29.565245 
L 49.575801 -29.363316 
L 49.995731 -29.161387 
L 50.451589 -28.959458 
L 50.934633 -28.757529 
L 51.434879 -28.5556 
L 51.941511 -28.353671 
L 52.443367 -28.151742 
L 52.929471 -27.949813 
L 53.389581 -27.747883 
L 53.814713 -27.545954 
L 54.197595 -27.344025 
L 54.533015 -27.142096 
L 54.818029 -26.940167 
L 55.052007 -26.738238 
L 55.236503 -26.536309 
L 55.374962 -26.33438 
L 55.472283 -26.132451 
L 55.534273 -25.930522 
L 55.567038 -25.728593 
L 55.576379 -25.526664 
L 55.567224 -25.324735 
L 55.543174 -25.122806 
L 55.506185 -24.920877 
L 55.456425 -24.718948 
L 55.392308 -24.517019 
L 55.310712 -24.31509 
L 55.20734 -24.113161 
L 55.077204 -23.911232 
L 54.915172 -23.709303 
L 54.716531 -23.507374 
L 54.477515 -23.305445 
L 54.195749 -23.103516 
L 53.87057 -22.901587 
L 53.503207 -22.699658 
L 53.096809 -22.497729 
L 52.65632 -22.2958 
L 52.188223 -22.093871 
L 51.700188 -21.891942 
L 51.200639 -21.690013 
L 50.698304 -21.488084 
L 50.201765 -21.286155 
L 49.719049 -21.084226 
L 49.257283 -20.882297 
L 48.822439 -20.680368 
L 48.419171 -20.478439 
L 48.050739 -20.27651 
z
" style="stroke: #6f6f6f; stroke-width: 0.15"/>
    </defs>
    <g clip-path="url(#p47c3b15f2d)">
     <use xlink:href="#m0e54fd2d06" x="0" y="84.96" style="fill: #f2aba8; stroke: #6f6f6f; stroke-width: 0.15"/>
    </g>
   </g>
   <g id="PolyCollection_3">
    <defs>
     <path id="m4af503b2c1" d="M 72.618967 -17.658492 
L 67.315661 -17.658492 
L 66.831016 -17.780792 
L 66.301216 -17.903092 
L 65.732048 -18.025392 
L 65.131704 -18.147692 
L 64.510743 -18.269992 
L 63.881891 -18.392292 
L 63.259696 -18.514592 
L 62.660011 -18.636892 
L 62.099361 -18.759192 
L 61.5942 -18.881492 
L 61.160116 -19.003792 
L 60.811034 -19.126092 
L 60.558476 -19.248392 
L 60.410926 -19.370692 
L 60.373357 -19.492992 
L 60.446954 -19.615292 
L 60.629052 -19.737592 
L 60.913294 -19.859892 
L 61.290003 -19.982192 
L 61.746725 -20.104492 
L 62.268914 -20.226792 
L 62.840694 -20.349092 
L 63.445656 -20.471392 
L 64.067619 -20.593692 
L 64.691324 -20.715992 
L 65.303009 -20.838292 
L 65.890844 -20.960592 
L 66.445216 -21.082892 
L 66.958856 -21.205192 
L 67.426825 -21.327492 
L 67.846382 -21.449792 
L 68.216753 -21.572092 
L 68.538835 -21.694392 
L 68.814866 -21.816692 
L 69.048084 -21.938992 
L 69.242399 -22.061292 
L 69.402099 -22.183592 
L 69.531594 -22.305892 
L 69.63521 -22.428192 
L 69.717039 -22.550492 
L 69.780829 -22.672792 
L 69.829922 -22.795092 
L 69.867223 -22.917392 
L 69.895206 -23.039692 
L 69.91593 -23.161992 
L 69.931077 -23.284292 
L 69.941994 -23.406592 
L 69.949738 -23.528892 
L 69.955121 -23.651192 
L 69.958753 -23.773492 
L 69.961073 -23.895792 
L 69.962386 -24.018092 
L 69.962882 -24.140392 
L 69.962656 -24.262692 
L 69.96172 -24.384992 
L 69.960011 -24.507292 
L 69.957391 -24.629592 
L 69.953655 -24.751892 
L 69.948523 -24.874192 
L 69.941639 -24.996492 
L 69.932573 -25.118792 
L 69.920824 -25.241092 
L 69.905817 -25.363392 
L 69.886924 -25.485692 
L 69.863475 -25.607992 
L 69.834784 -25.730292 
L 69.800187 -25.852592 
L 69.759077 -25.974892 
L 69.710956 -26.097192 
L 69.65549 -26.219492 
L 69.592558 -26.341792 
L 69.522311 -26.464092 
L 69.445216 -26.586392 
L 69.362089 -26.708692 
L 69.274118 -26.830992 
L 69.182855 -26.953292 
L 69.090192 -27.075592 
L 68.998313 -27.197892 
L 68.90961 -27.320192 
L 68.826595 -27.442492 
L 68.751777 -27.564792 
L 68.687541 -27.687092 
L 68.636024 -27.809392 
L 68.598994 -27.931692 
L 68.577753 -28.053992 
L 68.573058 -28.176292 
L 68.585077 -28.298592 
L 68.61338 -28.420892 
L 68.656963 -28.543192 
L 68.714309 -28.665492 
L 68.783474 -28.787792 
L 68.862197 -28.910092 
L 68.948022 -29.032392 
L 69.038425 -29.154692 
L 69.130933 -29.276992 
L 69.223234 -29.399292 
L 69.313265 -29.521592 
L 69.399278 -29.643892 
L 69.479879 -29.766192 
L 70.454749 -29.766192 
L 70.454749 -29.766192 
L 70.53535 -29.643892 
L 70.621363 -29.521592 
L 70.711394 -29.399292 
L 70.803695 -29.276992 
L 70.896203 -29.154692 
L 70.986606 -29.032392 
L 71.072431 -28.910092 
L 71.151154 -28.787792 
L 71.220319 -28.665492 
L 71.277665 -28.543192 
L 71.321248 -28.420892 
L 71.349551 -28.298592 
L 71.36157 -28.176292 
L 71.356875 -28.053992 
L 71.335634 -27.931692 
L 71.298604 -27.809392 
L 71.247087 -27.687092 
L 71.182851 -27.564792 
L 71.108033 -27.442492 
L 71.025018 -27.320192 
L 70.936315 -27.197892 
L 70.844436 -27.075592 
L 70.751773 -26.953292 
L 70.66051 -26.830992 
L 70.572539 -26.708692 
L 70.489412 -26.586392 
L 70.412317 -26.464092 
L 70.34207 -26.341792 
L 70.279138 -26.219492 
L 70.223672 -26.097192 
L 70.175551 -25.974892 
L 70.134441 -25.852592 
L 70.099844 -25.730292 
L 70.071153 -25.607992 
L 70.047704 -25.485692 
L 70.028811 -25.363392 
L 70.013804 -25.241092 
L 70.002054 -25.118792 
L 69.992989 -24.996492 
L 69.986105 -24.874192 
L 69.980972 -24.751892 
L 69.977236 -24.629592 
L 69.974617 -24.507292 
L 69.972907 -24.384992 
L 69.971972 -24.262692 
L 69.971746 -24.140392 
L 69.972242 -24.018092 
L 69.973555 -23.895792 
L 69.975875 -23.773492 
L 69.979507 -23.651192 
L 69.98489 -23.528892 
L 69.992634 -23.406592 
L 70.003551 -23.284292 
L 70.018698 -23.161992 
L 70.039422 -23.039692 
L 70.067405 -22.917392 
L 70.104706 -22.795092 
L 70.153799 -22.672792 
L 70.217589 -22.550492 
L 70.299418 -22.428192 
L 70.403034 -22.305892 
L 70.532529 -22.183592 
L 70.692229 -22.061292 
L 70.886544 -21.938992 
L 71.119762 -21.816692 
L 71.395793 -21.694392 
L 71.717875 -21.572092 
L 72.088246 -21.449792 
L 72.507803 -21.327492 
L 72.975772 -21.205192 
L 73.489412 -21.082892 
L 74.043784 -20.960592 
L 74.631619 -20.838292 
L 75.243304 -20.715992 
L 75.867009 -20.593692 
L 76.488972 -20.471392 
L 77.093934 -20.349092 
L 77.665714 -20.226792 
L 78.187903 -20.104492 
L 78.644625 -19.982192 
L 79.021334 -19.859892 
L 79.305576 -19.737592 
L 79.487673 -19.615292 
L 79.561271 -19.492992 
L 79.523702 -19.370692 
L 79.376152 -19.248392 
L 79.123594 -19.126092 
L 78.774512 -19.003792 
L 78.340428 -18.881492 
L 77.835267 -18.759192 
L 77.274617 -18.636892 
L 76.674932 -18.514592 
L 76.052736 -18.392292 
L 75.423885 -18.269992 
L 74.802924 -18.147692 
L 74.20258 -18.025392 
L 73.633412 -17.903092 
L 73.103612 -17.780792 
L 72.618967 -17.658492 
z
" style="stroke: #6f6f6f; stroke-width: 0.15"/>
    </defs>
    <g clip-path="url(#p47c3b15f2d)">
     <use xlink:href="#m4af503b2c1" x="0" y="84.96" style="fill: #d3c4f6; stroke: #6f6f6f; stroke-width: 0.15"/>
    </g>
   </g>
   <g id="line2d_9">
    <path d="M 21.99753 65.679007 
L 21.99753 65.384561 
" clip-path="url(#p47c3b15f2d)" style="fill: none; stroke: #8c8c8c; stroke-width: 0.75; stroke-linecap: round"/>
   </g>
   <g id="line2d_10">
    <path d="M 21.99753 65.673112 
L 21.99753 65.525309 
" clip-path="url(#p47c3b15f2d)" style="fill: none; stroke: #8c8c8c; stroke-width: 4; stroke-linecap: round"/>
   </g>
   <g id="line2d_11">
    <path d="M 21.99753 65.670455 
" clip-path="url(#p47c3b15f2d)" style="fill: none; stroke: #6f6f6f; stroke-width: 1.2; stroke-linecap: round"/>
    <defs>
     <path id="meec6cb3e34" d="M 0 0.833333 
C 0.221003 0.833333 0.432983 0.745528 0.589256 0.589256 
C 0.745528 0.432983 0.833333 0.221003 0.833333 0 
C 0.833333 -0.221003 0.745528 -0.432983 0.589256 -0.589256 
C 0.432983 -0.745528 0.221003 -0.833333 0 -0.833333 
C -0.221003 -0.833333 -0.432983 -0.745528 -0.589256 -0.589256 
C -0.745528 -0.432983 -0.833333 -0.221003 -0.833333 0 
C -0.833333 0.221003 -0.745528 0.432983 -0.589256 0.589256 
C -0.432983 0.745528 -0.221003 0.833333 0 0.833333 
z
" style="stroke: #ffffff; stroke-width: 0.8"/>
    </defs>
    <g clip-path="url(#p47c3b15f2d)">
     <use xlink:href="#meec6cb3e34" x="21.99753" y="65.670455" style="fill: #ffffff; stroke: #ffffff; stroke-width: 0.8"/>
    </g>
   </g>
   <g id="line2d_12">
    <path d="M 45.982422 61.97031 
L 45.982422 51.80038 
" clip-path="url(#p47c3b15f2d)" style="fill: none; stroke: #8c8c8c; stroke-width: 0.75; stroke-linecap: round"/>
   </g>
   <g id="line2d_13">
    <path d="M 45.982422 61.181595 
L 45.982422 56.379861 
" clip-path="url(#p47c3b15f2d)" style="fill: none; stroke: #8c8c8c; stroke-width: 4; stroke-linecap: round"/>
   </g>
   <g id="line2d_14">
    <path d="M 45.982422 58.114324 
" clip-path="url(#p47c3b15f2d)" style="fill: none; stroke: #6f6f6f; stroke-width: 1.2; stroke-linecap: round"/>
    <g clip-path="url(#p47c3b15f2d)">
     <use xlink:href="#meec6cb3e34" x="45.982422" y="58.114324" style="fill: #ffffff; stroke: #ffffff; stroke-width: 0.8"/>
    </g>
   </g>
   <g id="line2d_15">
    <path d="M 69.967314 65.684748 
L 69.967314 65.005969 
" clip-path="url(#p47c3b15f2d)" style="fill: none; stroke: #8c8c8c; stroke-width: 0.75; stroke-linecap: round"/>
   </g>
   <g id="line2d_16">
    <path d="M 69.967314 65.60367 
L 69.967314 65.307887 
" clip-path="url(#p47c3b15f2d)" style="fill: none; stroke: #8c8c8c; stroke-width: 4; stroke-linecap: round"/>
   </g>
   <g id="line2d_17">
    <path d="M 69.967314 65.530817 
" clip-path="url(#p47c3b15f2d)" style="fill: none; stroke: #6f6f6f; stroke-width: 1.2; stroke-linecap: round"/>
    <g clip-path="url(#p47c3b15f2d)">
     <use xlink:href="#meec6cb3e34" x="69.967314" y="65.530817" style="fill: #ffffff; stroke: #ffffff; stroke-width: 0.8"/>
    </g>
   </g>
   <g id="patch_3">
    <path d="M 10.005084 74.419526 
L 10.005084 4.076256 
" style="fill: none; stroke: #777777; stroke-width: 0.5; stroke-linejoin: miter; stroke-linecap: square"/>
   </g>
   <g id="patch_4">
    <path d="M 10.005084 76.919526 
L 81.95976 76.919526 
" style="fill: none; stroke: #777777; stroke-width: 0.5; stroke-linejoin: miter; stroke-linecap: square"/>
   </g>
  </g>
 </g>
 <defs>
  <clipPath id="p47c3b15f2d">
   <rect x="10.005084" y="4.076256" width="71.954676" height="70.34327"/>
  </clipPath>
 </defs>
</svg>
