<?xml version="1.0" encoding="utf-8" standalone="no"?>
<!DOCTYPE svg PUBLIC "-//W3C//DTD SVG 1.1//EN"
  "http://www.w3.org/Graphics/SVG/1.1/DTD/svg11.dtd">
<svg xmlns:xlink="http://www.w3.org/1999/xlink" width="84.96pt" height="84.96pt" viewBox="0 0 84.96 84.96" xmlns="http://www.w3.org/2000/svg" version="1.1">
 <metadata>
  <rdf:RDF xmlns:dc="http://purl.org/dc/elements/1.1/" xmlns:cc="http://creativecommons.org/ns#" xmlns:rdf="http://www.w3.org/1999/02/22-rdf-syntax-ns#">
   <cc:Work>
    <dc:type rdf:resource="http://purl.org/dc/dcmitype/StillImage"/>
    <dc:date>2024-05-27T15:37:03.618880</dc:date>
    <dc:format>image/svg+xml</dc:format>
    <dc:creator>
     <cc:Agent>
      <dc:title>Matplotlib v3.8.3, https://matplotlib.org/</dc:title>
     </cc:Agent>
    </dc:creator>
   </cc:Work>
  </rdf:RDF>
 </metadata>
 <defs>
  <style type="text/css">*{stroke-linejoin: round; stroke-linecap: butt}</style>
 </defs>
 <g id="figure_1">
  <g id="patch_1">
   <path d="M 0 84.96 
L 84.96 84.96 
L 84.96 0 
L 0 0 
z
" style="fill: #ffffff"/>
  </g>
  <g id="axes_1">
   <g id="patch_2">
    <path d="M 8.336802 74.419526 
L 81.95976 74.419526 
L 81.95976 4.076256 
L 8.336802 4.076256 
z
" style="fill: #ffffff"/>
   </g>
   <g id="matplotlib.axis_1">
    <g id="xtick_1">
     <g id="text_1">
      <!-- B -->
      <g style="fill: #333333" transform="translate(19.439991 81.230229) scale(0.035 -0.035)">
       <defs>
        <path id="Helvetica-42" d="M 2213 2650 
Q 2606 2650 2825 2759 
Q 3169 2931 3169 3378 
Q 3169 3828 2803 3984 
Q 2597 4072 2191 4072 
L 1081 4072 
L 1081 2650 
L 2213 2650 
z
M 2422 531 
Q 2994 531 3238 863 
Q 3391 1072 3391 1369 
Q 3391 1869 2944 2050 
Q 2706 2147 2316 2147 
L 1081 2147 
L 1081 531 
L 2422 531 
z
M 472 4591 
L 2444 4591 
Q 3250 4591 3591 4109 
Q 3791 3825 3791 3453 
Q 3791 3019 3544 2741 
Q 3416 2594 3175 2472 
Q 3528 2338 3703 2169 
Q 4013 1869 4013 1341 
Q 4013 897 3734 538 
Q 3319 0 2413 0 
L 472 0 
L 472 4591 
z
" transform="scale(0.015625)"/>
       </defs>
       <use xlink:href="#Helvetica-42"/>
      </g>
     </g>
    </g>
    <g id="xtick_2">
     <g id="text_2">
      <!-- T -->
      <g style="fill: #333333" transform="translate(44.079414 81.230229) scale(0.035 -0.035)">
       <defs>
        <path id="Helvetica-54" d="M 3828 4591 
L 3828 4044 
L 2281 4044 
L 2281 0 
L 1650 0 
L 1650 4044 
L 103 4044 
L 103 4591 
L 3828 4591 
z
" transform="scale(0.015625)"/>
       </defs>
       <use xlink:href="#Helvetica-54"/>
      </g>
     </g>
    </g>
    <g id="xtick_3">
     <g id="text_3">
      <!-- IL7R Non B/T -->
      <g style="fill: #333333" transform="translate(59.088095 81.230229) scale(0.035 -0.035)">
       <defs>
        <path id="Helvetica-49" d="M 628 4591 
L 1256 4591 
L 1256 0 
L 628 0 
L 628 4591 
z
" transform="scale(0.015625)"/>
        <path id="Helvetica-4c" d="M 488 4591 
L 1109 4591 
L 1109 547 
L 3434 547 
L 3434 0 
L 488 0 
L 488 4591 
z
" transform="scale(0.015625)"/>
        <path id="Helvetica-37" d="M 3347 4400 
L 3347 3909 
Q 3131 3700 2773 3181 
Q 2416 2663 2141 2063 
Q 1869 1478 1728 997 
Q 1638 688 1494 0 
L 872 0 
Q 1084 1281 1809 2550 
Q 2238 3294 2709 3834 
L 234 3834 
L 234 4400 
L 3347 4400 
z
" transform="scale(0.015625)"/>
        <path id="Helvetica-52" d="M 2622 2488 
Q 3059 2488 3314 2663 
Q 3569 2838 3569 3294 
Q 3569 3784 3213 3963 
Q 3022 4056 2703 4056 
L 1184 4056 
L 1184 2488 
L 2622 2488 
z
M 563 4591 
L 2688 4591 
Q 3213 4591 3553 4438 
Q 4200 4144 4200 3353 
Q 4200 2941 4029 2678 
Q 3859 2416 3553 2256 
Q 3822 2147 3958 1969 
Q 4094 1791 4109 1391 
L 4131 775 
Q 4141 513 4175 384 
Q 4231 166 4375 103 
L 4375 0 
L 3613 0 
Q 3581 59 3562 153 
Q 3544 247 3531 516 
L 3494 1281 
Q 3472 1731 3159 1884 
Q 2981 1969 2600 1969 
L 1184 1969 
L 1184 0 
L 563 0 
L 563 4591 
z
" transform="scale(0.015625)"/>
        <path id="Helvetica-20" transform="scale(0.015625)"/>
        <path id="Helvetica-4e" d="M 488 4591 
L 1222 4591 
L 3541 872 
L 3541 4591 
L 4131 4591 
L 4131 0 
L 3434 0 
L 1081 3716 
L 1081 0 
L 488 0 
L 488 4591 
z
M 2269 4591 
L 2269 4591 
z
" transform="scale(0.015625)"/>
        <path id="Helvetica-6f" d="M 1741 363 
Q 2300 363 2508 786 
Q 2716 1209 2716 1728 
Q 2716 2197 2566 2491 
Q 2328 2953 1747 2953 
Q 1231 2953 997 2559 
Q 763 2166 763 1609 
Q 763 1075 997 719 
Q 1231 363 1741 363 
z
M 1763 3444 
Q 2409 3444 2856 3012 
Q 3303 2581 3303 1744 
Q 3303 934 2909 406 
Q 2516 -122 1688 -122 
Q 997 -122 590 345 
Q 184 813 184 1600 
Q 184 2444 612 2944 
Q 1041 3444 1763 3444 
z
M 1744 3428 
L 1744 3428 
z
" transform="scale(0.015625)"/>
        <path id="Helvetica-6e" d="M 413 3347 
L 947 3347 
L 947 2872 
Q 1184 3166 1450 3294 
Q 1716 3422 2041 3422 
Q 2753 3422 3003 2925 
Q 3141 2653 3141 2147 
L 3141 0 
L 2569 0 
L 2569 2109 
Q 2569 2416 2478 2603 
Q 2328 2916 1934 2916 
Q 1734 2916 1606 2875 
Q 1375 2806 1200 2600 
Q 1059 2434 1017 2257 
Q 975 2081 975 1753 
L 975 0 
L 413 0 
L 413 3347 
z
M 1734 3428 
L 1734 3428 
z
" transform="scale(0.015625)"/>
        <path id="Helvetica-2f" d="M 1456 4591 
L 1931 4591 
L 475 0 
L 0 0 
L 1456 4591 
z
" transform="scale(0.015625)"/>
       </defs>
       <use xlink:href="#Helvetica-49"/>
       <use xlink:href="#Helvetica-4c" x="27.783203"/>
       <use xlink:href="#Helvetica-37" x="83.398438"/>
       <use xlink:href="#Helvetica-52" x="139.013672"/>
       <use xlink:href="#Helvetica-20" x="211.230469"/>
       <use xlink:href="#Helvetica-4e" x="239.013672"/>
       <use xlink:href="#Helvetica-6f" x="311.230469"/>
       <use xlink:href="#Helvetica-6e" x="366.845703"/>
       <use xlink:href="#Helvetica-20" x="422.460938"/>
       <use xlink:href="#Helvetica-42" x="450.244141"/>
       <use xlink:href="#Helvetica-2f" x="516.943359"/>
       <use xlink:href="#Helvetica-54" x="544.726562"/>
      </g>
     </g>
    </g>
   </g>
   <g id="matplotlib.axis_2">
    <g id="ytick_1">
     <g id="line2d_1">
      <defs>
       <path id="mff9284b27f" d="M 0 0 
L -1 0 
" style="stroke: #777777; stroke-width: 0.5"/>
      </defs>
      <g>
       <use xlink:href="#mff9284b27f" x="8.336802" y="66.673159" style="fill: #777777; stroke: #777777; stroke-width: 0.5"/>
      </g>
     </g>
     <g id="text_4">
      <!-- 0 -->
      <g style="fill: #333333" transform="translate(4.668521 67.749174) scale(0.03 -0.03)">
       <defs>
        <path id="Helvetica-30" d="M 1731 4475 
Q 2600 4475 2988 3759 
Q 3288 3206 3288 2244 
Q 3288 1331 3016 734 
Q 2622 -122 1728 -122 
Q 922 -122 528 578 
Q 200 1163 200 2147 
Q 200 2909 397 3456 
Q 766 4475 1731 4475 
z
M 1725 391 
Q 2163 391 2422 778 
Q 2681 1166 2681 2222 
Q 2681 2984 2493 3476 
Q 2306 3969 1766 3969 
Q 1269 3969 1039 3501 
Q 809 3034 809 2125 
Q 809 1441 956 1025 
Q 1181 391 1725 391 
z
" transform="scale(0.015625)"/>
       </defs>
       <use xlink:href="#Helvetica-30"/>
      </g>
     </g>
    </g>
    <g id="ytick_2">
     <g id="line2d_2">
      <g>
       <use xlink:href="#mff9284b27f" x="8.336802" y="58.848546" style="fill: #777777; stroke: #777777; stroke-width: 0.5"/>
      </g>
     </g>
     <g id="text_5">
      <!-- 10 -->
      <g style="fill: #333333" transform="translate(3.00024 59.924562) scale(0.03 -0.03)">
       <defs>
        <path id="Helvetica-31" d="M 613 3169 
L 613 3600 
Q 1222 3659 1462 3798 
Q 1703 3938 1822 4456 
L 2266 4456 
L 2266 0 
L 1666 0 
L 1666 3169 
L 613 3169 
z
" transform="scale(0.015625)"/>
       </defs>
       <use xlink:href="#Helvetica-31"/>
       <use xlink:href="#Helvetica-30" x="55.615234"/>
      </g>
     </g>
    </g>
    <g id="ytick_3">
     <g id="line2d_3">
      <g>
       <use xlink:href="#mff9284b27f" x="8.336802" y="51.023933" style="fill: #777777; stroke: #777777; stroke-width: 0.5"/>
      </g>
     </g>
     <g id="text_6">
      <!-- 20 -->
      <g style="fill: #333333" transform="translate(3.00024 52.099949) scale(0.03 -0.03)">
       <defs>
        <path id="Helvetica-32" d="M 200 0 
Q 231 578 439 1006 
Q 647 1434 1250 1784 
L 1850 2131 
Q 2253 2366 2416 2531 
Q 2672 2791 2672 3125 
Q 2672 3516 2437 3745 
Q 2203 3975 1813 3975 
Q 1234 3975 1013 3538 
Q 894 3303 881 2888 
L 309 2888 
Q 319 3472 525 3841 
Q 891 4491 1816 4491 
Q 2584 4491 2939 4075 
Q 3294 3659 3294 3150 
Q 3294 2613 2916 2231 
Q 2697 2009 2131 1694 
L 1703 1456 
Q 1397 1288 1222 1134 
Q 909 863 828 531 
L 3272 531 
L 3272 0 
L 200 0 
z
" transform="scale(0.015625)"/>
       </defs>
       <use xlink:href="#Helvetica-32"/>
       <use xlink:href="#Helvetica-30" x="55.615234"/>
      </g>
     </g>
    </g>
    <g id="ytick_4">
     <g id="line2d_4">
      <g>
       <use xlink:href="#mff9284b27f" x="8.336802" y="43.19932" style="fill: #777777; stroke: #777777; stroke-width: 0.5"/>
      </g>
     </g>
     <g id="text_7">
      <!-- 30 -->
      <g style="fill: #333333" transform="translate(3.00024 44.275336) scale(0.03 -0.03)">
       <defs>
        <path id="Helvetica-33" d="M 1663 -122 
Q 869 -122 511 314 
Q 153 750 153 1375 
L 741 1375 
Q 778 941 903 744 
Q 1122 391 1694 391 
Q 2138 391 2406 628 
Q 2675 866 2675 1241 
Q 2675 1703 2392 1887 
Q 2109 2072 1606 2072 
Q 1550 2072 1492 2070 
Q 1434 2069 1375 2066 
L 1375 2563 
Q 1463 2553 1522 2550 
Q 1581 2547 1650 2547 
Q 1966 2547 2169 2647 
Q 2525 2822 2525 3272 
Q 2525 3606 2287 3787 
Q 2050 3969 1734 3969 
Q 1172 3969 956 3594 
Q 838 3388 822 3006 
L 266 3006 
Q 266 3506 466 3856 
Q 809 4481 1675 4481 
Q 2359 4481 2734 4176 
Q 3109 3872 3109 3294 
Q 3109 2881 2888 2625 
Q 2750 2466 2531 2375 
Q 2884 2278 3082 2001 
Q 3281 1725 3281 1325 
Q 3281 684 2859 281 
Q 2438 -122 1663 -122 
z
" transform="scale(0.015625)"/>
       </defs>
       <use xlink:href="#Helvetica-33"/>
       <use xlink:href="#Helvetica-30" x="55.615234"/>
      </g>
     </g>
    </g>
    <g id="ytick_5">
     <g id="line2d_5">
      <g>
       <use xlink:href="#mff9284b27f" x="8.336802" y="35.374707" style="fill: #777777; stroke: #777777; stroke-width: 0.5"/>
      </g>
     </g>
     <g id="text_8">
      <!-- 40 -->
      <g style="fill: #333333" transform="translate(3.00024 36.450723) scale(0.03 -0.03)">
       <defs>
        <path id="Helvetica-34" d="M 2116 1584 
L 2116 3613 
L 681 1584 
L 2116 1584 
z
M 2125 0 
L 2125 1094 
L 163 1094 
L 163 1644 
L 2213 4488 
L 2688 4488 
L 2688 1584 
L 3347 1584 
L 3347 1094 
L 2688 1094 
L 2688 0 
L 2125 0 
z
" transform="scale(0.015625)"/>
       </defs>
       <use xlink:href="#Helvetica-34"/>
       <use xlink:href="#Helvetica-30" x="55.615234"/>
      </g>
     </g>
    </g>
    <g id="ytick_6">
     <g id="line2d_6">
      <g>
       <use xlink:href="#mff9284b27f" x="8.336802" y="27.550094" style="fill: #777777; stroke: #777777; stroke-width: 0.5"/>
      </g>
     </g>
     <g id="text_9">
      <!-- 50 -->
      <g style="fill: #333333" transform="translate(3.00024 28.62611) scale(0.03 -0.03)">
       <defs>
        <path id="Helvetica-35" d="M 791 1141 
Q 847 659 1238 475 
Q 1438 381 1700 381 
Q 2200 381 2440 700 
Q 2681 1019 2681 1406 
Q 2681 1875 2395 2131 
Q 2109 2388 1709 2388 
Q 1419 2388 1211 2275 
Q 1003 2163 856 1963 
L 369 1991 
L 709 4400 
L 3034 4400 
L 3034 3856 
L 1131 3856 
L 941 2613 
Q 1097 2731 1238 2791 
Q 1488 2894 1816 2894 
Q 2431 2894 2859 2497 
Q 3288 2100 3288 1491 
Q 3288 856 2895 371 
Q 2503 -113 1644 -113 
Q 1097 -113 676 195 
Q 256 503 206 1141 
L 791 1141 
z
" transform="scale(0.015625)"/>
       </defs>
       <use xlink:href="#Helvetica-35"/>
       <use xlink:href="#Helvetica-30" x="55.615234"/>
      </g>
     </g>
    </g>
    <g id="ytick_7">
     <g id="line2d_7">
      <g>
       <use xlink:href="#mff9284b27f" x="8.336802" y="19.725481" style="fill: #777777; stroke: #777777; stroke-width: 0.5"/>
      </g>
     </g>
     <g id="text_10">
      <!-- 60 -->
      <g style="fill: #333333" transform="translate(3.00024 20.801497) scale(0.03 -0.03)">
       <defs>
        <path id="Helvetica-36" d="M 1872 4494 
Q 2622 4494 2917 4105 
Q 3213 3716 3213 3303 
L 2656 3303 
Q 2606 3569 2497 3719 
Q 2294 4000 1881 4000 
Q 1409 4000 1131 3564 
Q 853 3128 822 2316 
Q 1016 2600 1309 2741 
Q 1578 2866 1909 2866 
Q 2472 2866 2890 2506 
Q 3309 2147 3309 1434 
Q 3309 825 2912 354 
Q 2516 -116 1781 -116 
Q 1153 -116 697 361 
Q 241 838 241 1966 
Q 241 2800 444 3381 
Q 834 4494 1872 4494 
z
M 1831 384 
Q 2275 384 2495 682 
Q 2716 981 2716 1388 
Q 2716 1731 2519 2042 
Q 2322 2353 1803 2353 
Q 1441 2353 1167 2112 
Q 894 1872 894 1388 
Q 894 963 1142 673 
Q 1391 384 1831 384 
z
" transform="scale(0.015625)"/>
       </defs>
       <use xlink:href="#Helvetica-36"/>
       <use xlink:href="#Helvetica-30" x="55.615234"/>
      </g>
     </g>
    </g>
    <g id="ytick_8">
     <g id="line2d_8">
      <g>
       <use xlink:href="#mff9284b27f" x="8.336802" y="11.900869" style="fill: #777777; stroke: #777777; stroke-width: 0.5"/>
      </g>
     </g>
     <g id="text_11">
      <!-- 70 -->
      <g style="fill: #333333" transform="translate(3.00024 12.976884) scale(0.03 -0.03)">
       <use xlink:href="#Helvetica-37"/>
       <use xlink:href="#Helvetica-30" x="55.615234"/>
      </g>
     </g>
    </g>
    <g id="ytick_9">
     <g id="line2d_9">
      <g>
       <use xlink:href="#mff9284b27f" x="8.336802" y="4.076256" style="fill: #777777; stroke: #777777; stroke-width: 0.5"/>
      </g>
     </g>
     <g id="text_12">
      <!-- 80 -->
      <g style="fill: #333333" transform="translate(3.00024 5.152271) scale(0.03 -0.03)">
       <defs>
        <path id="Helvetica-38" d="M 1741 2600 
Q 2113 2600 2322 2808 
Q 2531 3016 2531 3303 
Q 2531 3553 2331 3762 
Q 2131 3972 1722 3972 
Q 1316 3972 1134 3762 
Q 953 3553 953 3272 
Q 953 2956 1187 2778 
Q 1422 2600 1741 2600 
z
M 1775 384 
Q 2166 384 2423 595 
Q 2681 806 2681 1225 
Q 2681 1659 2415 1884 
Q 2150 2109 1734 2109 
Q 1331 2109 1076 1879 
Q 822 1650 822 1244 
Q 822 894 1055 639 
Q 1288 384 1775 384 
z
M 975 2384 
Q 741 2484 609 2619 
Q 363 2869 363 3269 
Q 363 3769 725 4128 
Q 1088 4488 1753 4488 
Q 2397 4488 2762 4148 
Q 3128 3809 3128 3356 
Q 3128 2938 2916 2678 
Q 2797 2531 2547 2391 
Q 2825 2263 2984 2097 
Q 3281 1784 3281 1284 
Q 3281 694 2884 283 
Q 2488 -128 1763 -128 
Q 1109 -128 657 226 
Q 206 581 206 1256 
Q 206 1653 400 1942 
Q 594 2231 975 2384 
z
" transform="scale(0.015625)"/>
       </defs>
       <use xlink:href="#Helvetica-38"/>
       <use xlink:href="#Helvetica-30" x="55.615234"/>
      </g>
     </g>
    </g>
   </g>
   <g id="PolyCollection_1">
    <defs>
     <path id="m2ed5dad103" d="M 21.231359 -24.467737 
L 19.983232 -24.467737 
L 19.79404 -24.77537 
L 19.575065 -25.083003 
L 19.330442 -25.390635 
L 19.066811 -25.698268 
L 18.792798 -26.005901 
L 18.518064 -26.313533 
L 18.252038 -26.621166 
L 18.002527 -26.928799 
L 17.774449 -27.236431 
L 17.568931 -27.544064 
L 17.382953 -27.851696 
L 17.209581 -28.159329 
L 17.038746 -28.466962 
L 16.858383 -28.774594 
L 16.655725 -29.082227 
L 16.418569 -29.38986 
L 16.136388 -29.697492 
L 15.801285 -30.005125 
L 15.408834 -30.312758 
L 14.958879 -30.62039 
L 14.456293 -30.928023 
L 13.911607 -31.235655 
L 13.341324 -31.543288 
L 12.767648 -31.850921 
L 12.217447 -32.158553 
L 11.72033 -32.466186 
L 11.305961 -32.773819 
L 11.000901 -33.081451 
L 10.825436 -33.389084 
L 10.790901 -33.696716 
L 10.897973 -34.004349 
L 11.136232 -34.311982 
L 11.485109 -34.619614 
L 11.916086 -34.927247 
L 12.395824 -35.23488 
L 12.889775 -35.542512 
L 13.365758 -35.850145 
L 13.797024 -36.157778 
L 14.164429 -36.46541 
L 14.45747 -36.773043 
L 14.674153 -37.080675 
L 14.819801 -37.388308 
L 14.905094 -37.695941 
L 14.9437 -38.003573 
L 14.94991 -38.311206 
L 14.936621 -38.618839 
L 14.913927 -38.926471 
L 14.888432 -39.234104 
L 14.863288 -39.541737 
L 14.838815 -39.849369 
L 14.813551 -40.157002 
L 14.785483 -40.464634 
L 14.753284 -40.772267 
L 14.717349 -41.0799 
L 14.680485 -41.387532 
L 14.648161 -41.695165 
L 14.628246 -42.002798 
L 14.630277 -42.31043 
L 14.664341 -42.618063 
L 14.739757 -42.925696 
L 14.863783 -43.233328 
L 15.040579 -43.540961 
L 15.270615 -43.848593 
L 15.550613 -44.156226 
L 15.874006 -44.463859 
L 16.231788 -44.771491 
L 16.613548 -45.079124 
L 17.008488 -45.386757 
L 17.406243 -45.694389 
L 17.79742 -46.002022 
L 18.173843 -46.309654 
L 18.528566 -46.617287 
L 18.855756 -46.92492 
L 19.15055 -47.232552 
L 19.408941 -47.540185 
L 19.627748 -47.847818 
L 19.804643 -48.15545 
L 19.938252 -48.463083 
L 20.028273 -48.770716 
L 20.075632 -49.078348 
L 20.082636 -49.385981 
L 20.053127 -49.693613 
L 19.992577 -50.001246 
L 19.908099 -50.308879 
L 19.808282 -50.616511 
L 19.70282 -50.924144 
L 19.601906 -51.231777 
L 19.51542 -51.539409 
L 19.452014 -51.847042 
L 19.418229 -52.154675 
L 19.417803 -52.462307 
L 19.451299 -52.76994 
L 19.516147 -53.077572 
L 19.607098 -53.385205 
L 19.717008 -53.692838 
L 19.837808 -54.00047 
L 19.961508 -54.308103 
L 20.081048 -54.615736 
L 20.190906 -54.923368 
L 21.023685 -54.923368 
L 21.023685 -54.923368 
L 21.133543 -54.615736 
L 21.253083 -54.308103 
L 21.376783 -54.00047 
L 21.497583 -53.692838 
L 21.607492 -53.385205 
L 21.698444 -53.077572 
L 21.763292 -52.76994 
L 21.796787 -52.462307 
L 21.796361 -52.154675 
L 21.762577 -51.847042 
L 21.699171 -51.539409 
L 21.612684 -51.231777 
L 21.511771 -50.924144 
L 21.406309 -50.616511 
L 21.306492 -50.308879 
L 21.222014 -50.001246 
L 21.161464 -49.693613 
L 21.131955 -49.385981 
L 21.138959 -49.078348 
L 21.186318 -48.770716 
L 21.276339 -48.463083 
L 21.409947 -48.15545 
L 21.586843 -47.847818 
L 21.80565 -47.540185 
L 22.064041 -47.232552 
L 22.358835 -46.92492 
L 22.686025 -46.617287 
L 23.040748 -46.309654 
L 23.417171 -46.002022 
L 23.808348 -45.694389 
L 24.206103 -45.386757 
L 24.601042 -45.079124 
L 24.982803 -44.771491 
L 25.340585 -44.463859 
L 25.663978 -44.156226 
L 25.943976 -43.848593 
L 26.174012 -43.540961 
L 26.350808 -43.233328 
L 26.474834 -42.925696 
L 26.55025 -42.618063 
L 26.584313 -42.31043 
L 26.586345 -42.002798 
L 26.56643 -41.695165 
L 26.534106 -41.387532 
L 26.497242 -41.0799 
L 26.461306 -40.772267 
L 26.429108 -40.464634 
L 26.40104 -40.157002 
L 26.375776 -39.849369 
L 26.351303 -39.541737 
L 26.326159 -39.234104 
L 26.300664 -38.926471 
L 26.277969 -38.618839 
L 26.264681 -38.311206 
L 26.270891 -38.003573 
L 26.309497 -37.695941 
L 26.39479 -37.388308 
L 26.540438 -37.080675 
L 26.757121 -36.773043 
L 27.050162 -36.46541 
L 27.417567 -36.157778 
L 27.848833 -35.850145 
L 28.324816 -35.542512 
L 28.818766 -35.23488 
L 29.298504 -34.927247 
L 29.729481 -34.619614 
L 30.078359 -34.311982 
L 30.316618 -34.004349 
L 30.42369 -33.696716 
L 30.389155 -33.389084 
L 30.21369 -33.081451 
L 29.90863 -32.773819 
L 29.494261 -32.466186 
L 28.997144 -32.158553 
L 28.446943 -31.850921 
L 27.873267 -31.543288 
L 27.302984 -31.235655 
L 26.758298 -30.928023 
L 26.255712 -30.62039 
L 25.805757 -30.312758 
L 25.413306 -30.005125 
L 25.078203 -29.697492 
L 24.796022 -29.38986 
L 24.558866 -29.082227 
L 24.356208 -28.774594 
L 24.175845 -28.466962 
L 24.00501 -28.159329 
L 23.831638 -27.851696 
L 23.645659 -27.544064 
L 23.440142 -27.236431 
L 23.212064 -26.928799 
L 22.962553 -26.621166 
L 22.696527 -26.313533 
L 22.421793 -26.005901 
L 22.14778 -25.698268 
L 21.884149 -25.390635 
L 21.639526 -25.083003 
L 21.420551 -24.77537 
L 21.231359 -24.467737 
z
" style="stroke: #414141; stroke-width: 0.15"/>
    </defs>
    <g clip-path="url(#p3f61aeadb7)">
     <use xlink:href="#m2ed5dad103" x="0" y="84.96" style="fill: #abc9ea; stroke: #414141; stroke-width: 0.15"/>
    </g>
   </g>
   <g id="PolyCollection_2">
    <defs>
     <path id="m69952a5c0c" d="M 46.467739 -17.419961 
L 43.828824 -17.419961 
L 43.470978 -17.70544 
L 43.059069 -17.990919 
L 42.598144 -18.276399 
L 42.097463 -18.561878 
L 41.570522 -18.847357 
L 41.034614 -19.132837 
L 40.509889 -19.418316 
L 40.017959 -19.703795 
L 39.580147 -19.989274 
L 39.215542 -20.274754 
L 38.939085 -20.560233 
L 38.759899 -20.845712 
L 38.680092 -21.131192 
L 38.694171 -21.416671 
L 38.789191 -21.70215 
L 38.945634 -21.98763 
L 39.138932 -22.273109 
L 39.341512 -22.558588 
L 39.525127 -22.844068 
L 39.663265 -23.129547 
L 39.733374 -23.415026 
L 39.718719 -23.700506 
L 39.609687 -23.985985 
L 39.404442 -24.271464 
L 39.108889 -24.556944 
L 38.735972 -24.842423 
L 38.304398 -25.127902 
L 37.836907 -25.413381 
L 37.358272 -25.698861 
L 36.893201 -25.98434 
L 36.464348 -26.269819 
L 36.0906 -26.555299 
L 35.785798 -26.840778 
L 35.558004 -27.126257 
L 35.409365 -27.411737 
L 35.336577 -27.697216 
L 35.331887 -27.982695 
L 35.384498 -28.268175 
L 35.482225 -28.553654 
L 35.613189 -28.839133 
L 35.767362 -29.124613 
L 35.937768 -29.410092 
L 36.121208 -29.695571 
L 36.318419 -29.981051 
L 36.533666 -30.26653 
L 36.773821 -30.552009 
L 37.047068 -30.837488 
L 37.361404 -31.122968 
L 37.723159 -31.408447 
L 38.135721 -31.693926 
L 38.598646 -31.979406 
L 39.107288 -32.264885 
L 39.65295 -32.550364 
L 40.223571 -32.835844 
L 40.804787 -33.121323 
L 41.381249 -33.406802 
L 41.937979 -33.692282 
L 42.461607 -33.977761 
L 42.941327 -34.26324 
L 43.369489 -34.54872 
L 43.741797 -34.834199 
L 44.057129 -35.119678 
L 44.31707 -35.405158 
L 44.525233 -35.690637 
L 44.686505 -35.976116 
L 44.806281 -36.261595 
L 44.889791 -36.547075 
L 44.941556 -36.832554 
L 44.965013 -37.118033 
L 44.962304 -37.403513 
L 44.93425 -37.688992 
L 44.880475 -37.974471 
L 44.799693 -38.259951 
L 44.690121 -38.54543 
L 44.55 -38.830909 
L 44.378195 -39.116389 
L 44.174813 -39.401868 
L 43.94178 -39.687347 
L 43.683301 -39.972827 
L 43.406117 -40.258306 
L 43.1195 -40.543785 
L 42.834932 -40.829265 
L 42.565463 -41.114744 
L 42.324792 -41.400223 
L 42.126149 -41.685702 
L 41.981104 -41.971182 
L 41.898463 -42.256661 
L 41.883384 -42.54214 
L 41.936846 -42.82762 
L 42.055545 -43.113099 
L 42.232229 -43.398578 
L 42.456435 -43.684058 
L 42.71551 -43.969537 
L 42.995791 -44.255016 
L 43.283779 -44.540496 
L 43.567184 -44.825975 
L 43.835718 -45.111454 
L 44.081587 -45.396934 
L 44.299669 -45.682413 
L 45.996893 -45.682413 
L 45.996893 -45.682413 
L 46.214976 -45.396934 
L 46.460845 -45.111454 
L 46.729378 -44.825975 
L 47.012783 -44.540496 
L 47.300771 -44.255016 
L 47.581052 -43.969537 
L 47.840128 -43.684058 
L 48.064334 -43.398578 
L 48.241018 -43.113099 
L 48.359716 -42.82762 
L 48.413178 -42.54214 
L 48.398099 -42.256661 
L 48.315459 -41.971182 
L 48.170414 -41.685702 
L 47.97177 -41.400223 
L 47.7311 -41.114744 
L 47.461631 -40.829265 
L 47.177062 -40.543785 
L 46.890445 -40.258306 
L 46.613261 -39.972827 
L 46.354782 -39.687347 
L 46.12175 -39.401868 
L 45.918368 -39.116389 
L 45.746563 -38.830909 
L 45.606441 -38.54543 
L 45.496869 -38.259951 
L 45.416088 -37.974471 
L 45.362313 -37.688992 
L 45.334258 -37.403513 
L 45.33155 -37.118033 
L 45.355006 -36.832554 
L 45.406772 -36.547075 
L 45.490281 -36.261595 
L 45.610057 -35.976116 
L 45.771329 -35.690637 
L 45.979493 -35.405158 
L 46.239433 -35.119678 
L 46.554766 -34.834199 
L 46.927073 -34.54872 
L 47.355236 -34.26324 
L 47.834955 -33.977761 
L 48.358583 -33.692282 
L 48.915314 -33.406802 
L 49.491775 -33.121323 
L 50.072991 -32.835844 
L 50.643612 -32.550364 
L 51.189275 -32.264885 
L 51.697916 -31.979406 
L 52.160842 -31.693926 
L 52.573403 -31.408447 
L 52.935159 -31.122968 
L 53.249495 -30.837488 
L 53.522741 -30.552009 
L 53.762896 -30.26653 
L 53.978143 -29.981051 
L 54.175355 -29.695571 
L 54.358795 -29.410092 
L 54.529201 -29.124613 
L 54.683374 -28.839133 
L 54.814338 -28.553654 
L 54.912064 -28.268175 
L 54.964676 -27.982695 
L 54.959985 -27.697216 
L 54.887198 -27.411737 
L 54.738558 -27.126257 
L 54.510764 -26.840778 
L 54.205963 -26.555299 
L 53.832214 -26.269819 
L 53.403361 -25.98434 
L 52.93829 -25.698861 
L 52.459655 -25.413381 
L 51.992165 -25.127902 
L 51.560591 -24.842423 
L 51.187674 -24.556944 
L 50.89212 -24.271464 
L 50.686875 -23.985985 
L 50.577843 -23.700506 
L 50.563189 -23.415026 
L 50.633297 -23.129547 
L 50.771435 -22.844068 
L 50.955051 -22.558588 
L 51.15763 -22.273109 
L 51.350929 -21.98763 
L 51.507371 -21.70215 
L 51.602392 -21.416671 
L 51.616471 -21.131192 
L 51.536663 -20.845712 
L 51.357478 -20.560233 
L 51.08102 -20.274754 
L 50.716415 -19.989274 
L 50.278603 -19.703795 
L 49.786674 -19.418316 
L 49.261949 -19.132837 
L 48.72604 -18.847357 
L 48.199099 -18.561878 
L 47.698418 -18.276399 
L 47.237493 -17.990919 
L 46.825585 -17.70544 
L 46.467739 -17.419961 
z
" style="stroke: #414141; stroke-width: 0.15"/>
    </defs>
    <g clip-path="url(#p3f61aeadb7)">
     <use xlink:href="#m69952a5c0c" x="0" y="84.96" style="fill: #efb792; stroke: #414141; stroke-width: 0.15"/>
    </g>
   </g>
   <g id="PolyCollection_3">
    <defs>
     <path id="mcbdc386191" d="M 70.859197 -17.268366 
L 68.519337 -17.268366 
L 68.181391 -17.383253 
L 67.782273 -17.498139 
L 67.321868 -17.613026 
L 66.803183 -17.727912 
L 66.232603 -17.842799 
L 65.619867 -17.957685 
L 64.977724 -18.072572 
L 64.321281 -18.187458 
L 63.667091 -18.302345 
L 63.032071 -18.417231 
L 62.432354 -18.532118 
L 61.882197 -18.647004 
L 61.393048 -18.761891 
L 60.972867 -18.876777 
L 60.625755 -18.991664 
L 60.351918 -19.10655 
L 60.147942 -19.221437 
L 60.007364 -19.336323 
L 59.921448 -19.45121 
L 59.880107 -19.566096 
L 59.872873 -19.680982 
L 59.889824 -19.795869 
L 59.922389 -19.910755 
L 59.963954 -20.025642 
L 60.01023 -20.140528 
L 60.059374 -20.255415 
L 60.111859 -20.370301 
L 60.170155 -20.485188 
L 60.238275 -20.600074 
L 60.321258 -20.714961 
L 60.424653 -20.829847 
L 60.554052 -20.944734 
L 60.7147 -21.05962 
L 60.911175 -21.174507 
L 61.147136 -21.289393 
L 61.425105 -21.40428 
L 61.746262 -21.519166 
L 62.110255 -21.634053 
L 62.515012 -21.748939 
L 62.956595 -21.863826 
L 63.429116 -21.978712 
L 63.924737 -22.093599 
L 64.433801 -22.208485 
L 64.945073 -22.323372 
L 65.446117 -22.438258 
L 65.923767 -22.553145 
L 66.364674 -22.668031 
L 66.755911 -22.782918 
L 67.085587 -22.897804 
L 67.343481 -23.012691 
L 67.521649 -23.127577 
L 67.61501 -23.242464 
L 67.621871 -23.35735 
L 67.544366 -23.472237 
L 67.388734 -23.587123 
L 67.165397 -23.70201 
L 66.888746 -23.816896 
L 66.576603 -23.931783 
L 66.249321 -24.046669 
L 65.928547 -24.161555 
L 65.635743 -24.276442 
L 65.390565 -24.391328 
L 65.20929 -24.506215 
L 65.103472 -24.621101 
L 65.078988 -24.735988 
L 65.135623 -24.850874 
L 65.267233 -24.965761 
L 65.462505 -25.080647 
L 65.706194 -25.195534 
L 65.980704 -25.31042 
L 66.267803 -25.425307 
L 66.550284 -25.540193 
L 66.813372 -25.65508 
L 67.045754 -25.769966 
L 67.240141 -25.884853 
L 67.393369 -25.999739 
L 67.50607 -26.114626 
L 67.582039 -26.229512 
L 67.627393 -26.344399 
L 67.649683 -26.459285 
L 67.65704 -26.574172 
L 67.657468 -26.689058 
L 67.6583 -26.803945 
L 67.66584 -26.918831 
L 67.685157 -27.033718 
L 67.72 -27.148604 
L 67.772779 -27.263491 
L 67.844599 -27.378377 
L 67.935314 -27.493264 
L 68.043607 -27.60815 
L 68.167106 -27.723037 
L 68.302557 -27.837923 
L 68.446042 -27.95281 
L 68.593259 -28.067696 
L 68.739832 -28.182583 
L 68.881622 -28.297469 
L 69.015013 -28.412356 
L 69.13713 -28.527242 
L 69.245975 -28.642129 
L 70.132559 -28.642129 
L 70.132559 -28.642129 
L 70.241404 -28.527242 
L 70.363521 -28.412356 
L 70.496912 -28.297469 
L 70.638702 -28.182583 
L 70.785275 -28.067696 
L 70.932493 -27.95281 
L 71.075978 -27.837923 
L 71.211428 -27.723037 
L 71.334928 -27.60815 
L 71.44322 -27.493264 
L 71.533935 -27.378377 
L 71.605756 -27.263491 
L 71.658534 -27.148604 
L 71.693377 -27.033718 
L 71.712694 -26.918831 
L 71.720234 -26.803945 
L 71.721066 -26.689058 
L 71.721494 -26.574172 
L 71.728852 -26.459285 
L 71.751141 -26.344399 
L 71.796496 -26.229512 
L 71.872464 -26.114626 
L 71.985166 -25.999739 
L 72.138393 -25.884853 
L 72.33278 -25.769966 
L 72.565162 -25.65508 
L 72.82825 -25.540193 
L 73.110731 -25.425307 
L 73.39783 -25.31042 
L 73.67234 -25.195534 
L 73.91603 -25.080647 
L 74.111301 -24.965761 
L 74.242911 -24.850874 
L 74.299546 -24.735988 
L 74.275063 -24.621101 
L 74.169244 -24.506215 
L 73.987969 -24.391328 
L 73.742791 -24.276442 
L 73.449987 -24.161555 
L 73.129214 -24.046669 
L 72.801931 -23.931783 
L 72.489788 -23.816896 
L 72.213137 -23.70201 
L 71.9898 -23.587123 
L 71.834168 -23.472237 
L 71.756663 -23.35735 
L 71.763524 -23.242464 
L 71.856885 -23.127577 
L 72.035053 -23.012691 
L 72.292947 -22.897804 
L 72.622623 -22.782918 
L 73.01386 -22.668031 
L 73.454767 -22.553145 
L 73.932417 -22.438258 
L 74.433461 -22.323372 
L 74.944734 -22.208485 
L 75.453797 -22.093599 
L 75.949418 -21.978712 
L 76.421939 -21.863826 
L 76.863522 -21.748939 
L 77.268279 -21.634053 
L 77.632272 -21.519166 
L 77.953429 -21.40428 
L 78.231398 -21.289393 
L 78.46736 -21.174507 
L 78.663834 -21.05962 
L 78.824482 -20.944734 
L 78.953881 -20.829847 
L 79.057276 -20.714961 
L 79.140259 -20.600074 
L 79.208379 -20.485188 
L 79.266675 -20.370301 
L 79.31916 -20.255415 
L 79.368304 -20.140528 
L 79.414581 -20.025642 
L 79.456145 -19.910755 
L 79.48871 -19.795869 
L 79.505661 -19.680982 
L 79.498428 -19.566096 
L 79.457087 -19.45121 
L 79.37117 -19.336323 
L 79.230592 -19.221437 
L 79.026617 -19.10655 
L 78.752779 -18.991664 
L 78.405667 -18.876777 
L 77.985486 -18.761891 
L 77.496337 -18.647004 
L 76.94618 -18.532118 
L 76.346464 -18.417231 
L 75.711444 -18.302345 
L 75.057253 -18.187458 
L 74.40081 -18.072572 
L 73.758667 -17.957685 
L 73.145931 -17.842799 
L 72.575351 -17.727912 
L 72.056666 -17.613026 
L 71.596261 -17.498139 
L 71.197143 -17.383253 
L 70.859197 -17.268366 
z
" style="stroke: #414141; stroke-width: 0.15"/>
    </defs>
    <g clip-path="url(#p3f61aeadb7)">
     <use xlink:href="#mcbdc386191" x="0" y="84.96" style="fill: #7e5c60; stroke: #414141; stroke-width: 0.15"/>
    </g>
   </g>
   <g id="line2d_10">
    <path d="M 20.607295 57.893339 
L 20.607295 32.635555 
" clip-path="url(#p3f61aeadb7)" style="fill: none; stroke: #8c8c8c; stroke-width: 0.75; stroke-linecap: round"/>
   </g>
   <g id="line2d_11">
    <path d="M 20.607295 52.052328 
L 20.607295 43.820963 
" clip-path="url(#p3f61aeadb7)" style="fill: none; stroke: #8c8c8c; stroke-width: 4; stroke-linecap: round"/>
   </g>
   <g id="line2d_12">
    <path d="M 20.607295 49.554909 
" clip-path="url(#p3f61aeadb7)" style="fill: none; stroke: #414141; stroke-width: 1.2; stroke-linecap: round"/>
    <defs>
     <path id="m0dd543d8c8" d="M 0 0.833333 
C 0.221003 0.833333 0.432983 0.745528 0.589256 0.589256 
C 0.745528 0.432983 0.833333 0.221003 0.833333 0 
C 0.833333 -0.221003 0.745528 -0.432983 0.589256 -0.589256 
C 0.432983 -0.745528 0.221003 -0.833333 0 -0.833333 
C -0.221003 -0.833333 -0.432983 -0.745528 -0.589256 -0.589256 
C -0.745528 -0.432983 -0.833333 -0.221003 -0.833333 0 
C -0.833333 0.221003 -0.745528 0.432983 -0.589256 0.589256 
C -0.432983 0.745528 -0.221003 0.833333 0 0.833333 
z
" style="stroke: #ffffff; stroke-width: 0.8"/>
    </defs>
    <g clip-path="url(#p3f61aeadb7)">
     <use xlink:href="#m0dd543d8c8" x="20.607295" y="49.554909" style="fill: #ffffff; stroke: #ffffff; stroke-width: 0.8"/>
    </g>
   </g>
   <g id="line2d_13">
    <path d="M 45.148281 64.755169 
L 45.148281 43.033782 
" clip-path="url(#p3f61aeadb7)" style="fill: none; stroke: #8c8c8c; stroke-width: 0.75; stroke-linecap: round"/>
   </g>
   <g id="line2d_14">
    <path d="M 45.148281 60.386076 
L 45.148281 53.394171 
" clip-path="url(#p3f61aeadb7)" style="fill: none; stroke: #8c8c8c; stroke-width: 4; stroke-linecap: round"/>
   </g>
   <g id="line2d_15">
    <path d="M 45.148281 57.591116 
" clip-path="url(#p3f61aeadb7)" style="fill: none; stroke: #414141; stroke-width: 1.2; stroke-linecap: round"/>
    <g clip-path="url(#p3f61aeadb7)">
     <use xlink:href="#m0dd543d8c8" x="45.148281" y="57.591116" style="fill: #ffffff; stroke: #ffffff; stroke-width: 0.8"/>
    </g>
   </g>
   <g id="line2d_16">
    <path d="M 69.689267 66.578743 
L 69.689267 57.430762 
" clip-path="url(#p3f61aeadb7)" style="fill: none; stroke: #8c8c8c; stroke-width: 0.75; stroke-linecap: round"/>
   </g>
   <g id="line2d_17">
    <path d="M 69.689267 65.551534 
L 69.689267 62.062239 
" clip-path="url(#p3f61aeadb7)" style="fill: none; stroke: #8c8c8c; stroke-width: 4; stroke-linecap: round"/>
   </g>
   <g id="line2d_18">
    <path d="M 69.689267 64.109063 
" clip-path="url(#p3f61aeadb7)" style="fill: none; stroke: #414141; stroke-width: 1.2; stroke-linecap: round"/>
    <g clip-path="url(#p3f61aeadb7)">
     <use xlink:href="#m0dd543d8c8" x="69.689267" y="64.109063" style="fill: #ffffff; stroke: #ffffff; stroke-width: 0.8"/>
    </g>
   </g>
   <g id="patch_3">
    <path d="M 8.336802 74.419526 
L 8.336802 4.076256 
" style="fill: none; stroke: #777777; stroke-width: 0.5; stroke-linejoin: miter; stroke-linecap: square"/>
   </g>
   <g id="patch_4">
    <path d="M 8.336802 76.919526 
L 81.95976 76.919526 
" style="fill: none; stroke: #777777; stroke-width: 0.5; stroke-linejoin: miter; stroke-linecap: square"/>
   </g>
  </g>
 </g>
 <defs>
  <clipPath id="p3f61aeadb7">
   <rect x="8.336802" y="4.076256" width="73.622957" height="70.34327"/>
  </clipPath>
 </defs>
</svg>
