<?xml version="1.0" encoding="utf-8" standalone="no"?>
<!DOCTYPE svg PUBLIC "-//W3C//DTD SVG 1.1//EN"
  "http://www.w3.org/Graphics/SVG/1.1/DTD/svg11.dtd">
<svg xmlns:xlink="http://www.w3.org/1999/xlink" width="56.16pt" height="84.96pt" viewBox="0 0 56.16 84.96" xmlns="http://www.w3.org/2000/svg" version="1.1">
 <metadata>
  <rdf:RDF xmlns:dc="http://purl.org/dc/elements/1.1/" xmlns:cc="http://creativecommons.org/ns#" xmlns:rdf="http://www.w3.org/1999/02/22-rdf-syntax-ns#">
   <cc:Work>
    <dc:type rdf:resource="http://purl.org/dc/dcmitype/StillImage"/>
    <dc:date>2024-05-27T15:37:11.840968</dc:date>
    <dc:format>image/svg+xml</dc:format>
    <dc:creator>
     <cc:Agent>
      <dc:title>Matplotlib v3.8.3, https://matplotlib.org/</dc:title>
     </cc:Agent>
    </dc:creator>
   </cc:Work>
  </rdf:RDF>
 </metadata>
 <defs>
  <style type="text/css">*{stroke-linejoin: round; stroke-linecap: butt}</style>
 </defs>
 <g id="figure_1">
  <g id="patch_1">
   <path d="M 0 84.96 
L 56.16 84.96 
L 56.16 0 
L 0 0 
z
" style="fill: #ffffff"/>
  </g>
  <g id="axes_1">
   <g id="patch_2">
    <path d="M 11.673365 74.419526 
L 53.15976 74.419526 
L 53.15976 4.076256 
L 11.673365 4.076256 
z
" style="fill: #ffffff"/>
   </g>
   <g id="matplotlib.axis_1">
    <g id="xtick_1">
     <g id="text_1">
      <!-- ILC2 -->
      <g style="fill: #333333" transform="translate(18.348636 81.230229) scale(0.035 -0.035)">
       <defs>
        <path id="Helvetica-49" d="M 628 4591 
L 1256 4591 
L 1256 0 
L 628 0 
L 628 4591 
z
" transform="scale(0.015625)"/>
        <path id="Helvetica-4c" d="M 488 4591 
L 1109 4591 
L 1109 547 
L 3434 547 
L 3434 0 
L 488 0 
L 488 4591 
z
" transform="scale(0.015625)"/>
        <path id="Helvetica-43" d="M 2422 4716 
Q 3294 4716 3775 4256 
Q 4256 3797 4309 3213 
L 3703 3213 
Q 3600 3656 3292 3915 
Q 2984 4175 2428 4175 
Q 1750 4175 1333 3698 
Q 916 3222 916 2238 
Q 916 1431 1292 929 
Q 1669 428 2416 428 
Q 3103 428 3463 956 
Q 3653 1234 3747 1688 
L 4353 1688 
Q 4272 963 3816 472 
Q 3269 -119 2341 -119 
Q 1541 -119 997 366 
Q 281 1006 281 2344 
Q 281 3359 819 4009 
Q 1400 4716 2422 4716 
z
M 2297 4716 
L 2297 4716 
z
" transform="scale(0.015625)"/>
        <path id="Helvetica-32" d="M 200 0 
Q 231 578 439 1006 
Q 647 1434 1250 1784 
L 1850 2131 
Q 2253 2366 2416 2531 
Q 2672 2791 2672 3125 
Q 2672 3516 2437 3745 
Q 2203 3975 1813 3975 
Q 1234 3975 1013 3538 
Q 894 3303 881 2888 
L 309 2888 
Q 319 3472 525 3841 
Q 891 4491 1816 4491 
Q 2584 4491 2939 4075 
Q 3294 3659 3294 3150 
Q 3294 2613 2916 2231 
Q 2697 2009 2131 1694 
L 1703 1456 
Q 1397 1288 1222 1134 
Q 909 863 828 531 
L 3272 531 
L 3272 0 
L 200 0 
z
" transform="scale(0.015625)"/>
       </defs>
       <use xlink:href="#Helvetica-49"/>
       <use xlink:href="#Helvetica-4c" x="27.783203"/>
       <use xlink:href="#Helvetica-43" x="83.398438"/>
       <use xlink:href="#Helvetica-32" x="155.615234"/>
      </g>
     </g>
    </g>
    <g id="xtick_2">
     <g id="text_2">
      <!-- TH2 -->
      <g style="fill: #333333" transform="translate(39.482302 81.230229) scale(0.035 -0.035)">
       <defs>
        <path id="Helvetica-54" d="M 3828 4591 
L 3828 4044 
L 2281 4044 
L 2281 0 
L 1650 0 
L 1650 4044 
L 103 4044 
L 103 4591 
L 3828 4591 
z
" transform="scale(0.015625)"/>
        <path id="Helvetica-48" d="M 503 4591 
L 1131 4591 
L 1131 2694 
L 3519 2694 
L 3519 4591 
L 4147 4591 
L 4147 0 
L 3519 0 
L 3519 2147 
L 1131 2147 
L 1131 0 
L 503 0 
L 503 4591 
z
" transform="scale(0.015625)"/>
       </defs>
       <use xlink:href="#Helvetica-54"/>
       <use xlink:href="#Helvetica-48" x="61.083984"/>
       <use xlink:href="#Helvetica-32" x="133.300781"/>
      </g>
     </g>
    </g>
   </g>
   <g id="matplotlib.axis_2">
    <g id="ytick_1">
     <g id="line2d_1">
      <defs>
       <path id="m7b11504665" d="M 0 0 
L -1 0 
" style="stroke: #777777; stroke-width: 0.5"/>
      </defs>
      <g>
       <use xlink:href="#m7b11504665" x="11.673365" y="64.727463" style="fill: #777777; stroke: #777777; stroke-width: 0.5"/>
      </g>
     </g>
     <g id="text_3">
      <!-- 0 -->
      <g style="fill: #333333" transform="translate(8.005084 65.803478) scale(0.03 -0.03)">
       <defs>
        <path id="Helvetica-30" d="M 1731 4475 
Q 2600 4475 2988 3759 
Q 3288 3206 3288 2244 
Q 3288 1331 3016 734 
Q 2622 -122 1728 -122 
Q 922 -122 528 578 
Q 200 1163 200 2147 
Q 200 2909 397 3456 
Q 766 4475 1731 4475 
z
M 1725 391 
Q 2163 391 2422 778 
Q 2681 1166 2681 2222 
Q 2681 2984 2493 3476 
Q 2306 3969 1766 3969 
Q 1269 3969 1039 3501 
Q 809 3034 809 2125 
Q 809 1441 956 1025 
Q 1181 391 1725 391 
z
" transform="scale(0.015625)"/>
       </defs>
       <use xlink:href="#Helvetica-30"/>
      </g>
     </g>
    </g>
    <g id="ytick_2">
     <g id="line2d_2">
      <g>
       <use xlink:href="#m7b11504665" x="11.673365" y="52.597221" style="fill: #777777; stroke: #777777; stroke-width: 0.5"/>
      </g>
     </g>
     <g id="text_4">
      <!-- 1000 -->
      <g style="fill: #333333" transform="translate(3.00024 53.673237) scale(0.03 -0.03)">
       <defs>
        <path id="Helvetica-31" d="M 613 3169 
L 613 3600 
Q 1222 3659 1462 3798 
Q 1703 3938 1822 4456 
L 2266 4456 
L 2266 0 
L 1666 0 
L 1666 3169 
L 613 3169 
z
" transform="scale(0.015625)"/>
       </defs>
       <use xlink:href="#Helvetica-31"/>
       <use xlink:href="#Helvetica-30" x="55.615234"/>
       <use xlink:href="#Helvetica-30" x="111.230469"/>
       <use xlink:href="#Helvetica-30" x="166.845703"/>
      </g>
     </g>
    </g>
    <g id="ytick_3">
     <g id="line2d_3">
      <g>
       <use xlink:href="#m7b11504665" x="11.673365" y="40.46698" style="fill: #777777; stroke: #777777; stroke-width: 0.5"/>
      </g>
     </g>
     <g id="text_5">
      <!-- 2000 -->
      <g style="fill: #333333" transform="translate(3.00024 41.542996) scale(0.03 -0.03)">
       <use xlink:href="#Helvetica-32"/>
       <use xlink:href="#Helvetica-30" x="55.615234"/>
       <use xlink:href="#Helvetica-30" x="111.230469"/>
       <use xlink:href="#Helvetica-30" x="166.845703"/>
      </g>
     </g>
    </g>
    <g id="ytick_4">
     <g id="line2d_4">
      <g>
       <use xlink:href="#m7b11504665" x="11.673365" y="28.336738" style="fill: #777777; stroke: #777777; stroke-width: 0.5"/>
      </g>
     </g>
     <g id="text_6">
      <!-- 3000 -->
      <g style="fill: #333333" transform="translate(3.00024 29.412754) scale(0.03 -0.03)">
       <defs>
        <path id="Helvetica-33" d="M 1663 -122 
Q 869 -122 511 314 
Q 153 750 153 1375 
L 741 1375 
Q 778 941 903 744 
Q 1122 391 1694 391 
Q 2138 391 2406 628 
Q 2675 866 2675 1241 
Q 2675 1703 2392 1887 
Q 2109 2072 1606 2072 
Q 1550 2072 1492 2070 
Q 1434 2069 1375 2066 
L 1375 2563 
Q 1463 2553 1522 2550 
Q 1581 2547 1650 2547 
Q 1966 2547 2169 2647 
Q 2525 2822 2525 3272 
Q 2525 3606 2287 3787 
Q 2050 3969 1734 3969 
Q 1172 3969 956 3594 
Q 838 3388 822 3006 
L 266 3006 
Q 266 3506 466 3856 
Q 809 4481 1675 4481 
Q 2359 4481 2734 4176 
Q 3109 3872 3109 3294 
Q 3109 2881 2888 2625 
Q 2750 2466 2531 2375 
Q 2884 2278 3082 2001 
Q 3281 1725 3281 1325 
Q 3281 684 2859 281 
Q 2438 -122 1663 -122 
z
" transform="scale(0.015625)"/>
       </defs>
       <use xlink:href="#Helvetica-33"/>
       <use xlink:href="#Helvetica-30" x="55.615234"/>
       <use xlink:href="#Helvetica-30" x="111.230469"/>
       <use xlink:href="#Helvetica-30" x="166.845703"/>
      </g>
     </g>
    </g>
    <g id="ytick_5">
     <g id="line2d_5">
      <g>
       <use xlink:href="#m7b11504665" x="11.673365" y="16.206497" style="fill: #777777; stroke: #777777; stroke-width: 0.5"/>
      </g>
     </g>
     <g id="text_7">
      <!-- 4000 -->
      <g style="fill: #333333" transform="translate(3.00024 17.282513) scale(0.03 -0.03)">
       <defs>
        <path id="Helvetica-34" d="M 2116 1584 
L 2116 3613 
L 681 1584 
L 2116 1584 
z
M 2125 0 
L 2125 1094 
L 163 1094 
L 163 1644 
L 2213 4488 
L 2688 4488 
L 2688 1584 
L 3347 1584 
L 3347 1094 
L 2688 1094 
L 2688 0 
L 2125 0 
z
" transform="scale(0.015625)"/>
       </defs>
       <use xlink:href="#Helvetica-34"/>
       <use xlink:href="#Helvetica-30" x="55.615234"/>
       <use xlink:href="#Helvetica-30" x="111.230469"/>
       <use xlink:href="#Helvetica-30" x="166.845703"/>
      </g>
     </g>
    </g>
    <g id="ytick_6">
     <g id="line2d_6">
      <g>
       <use xlink:href="#m7b11504665" x="11.673365" y="4.076256" style="fill: #777777; stroke: #777777; stroke-width: 0.5"/>
      </g>
     </g>
     <g id="text_8">
      <!-- 5000 -->
      <g style="fill: #333333" transform="translate(3.00024 5.152271) scale(0.03 -0.03)">
       <defs>
        <path id="Helvetica-35" d="M 791 1141 
Q 847 659 1238 475 
Q 1438 381 1700 381 
Q 2200 381 2440 700 
Q 2681 1019 2681 1406 
Q 2681 1875 2395 2131 
Q 2109 2388 1709 2388 
Q 1419 2388 1211 2275 
Q 1003 2163 856 1963 
L 369 1991 
L 709 4400 
L 3034 4400 
L 3034 3856 
L 1131 3856 
L 941 2613 
Q 1097 2731 1238 2791 
Q 1488 2894 1816 2894 
Q 2431 2894 2859 2497 
Q 3288 2100 3288 1491 
Q 3288 856 2895 371 
Q 2503 -113 1644 -113 
Q 1097 -113 676 195 
Q 256 503 206 1141 
L 791 1141 
z
" transform="scale(0.015625)"/>
       </defs>
       <use xlink:href="#Helvetica-35"/>
       <use xlink:href="#Helvetica-30" x="55.615234"/>
       <use xlink:href="#Helvetica-30" x="111.230469"/>
       <use xlink:href="#Helvetica-30" x="166.845703"/>
      </g>
     </g>
    </g>
   </g>
   <g id="PolyCollection_1">
    <defs>
     <path id="m9fcb52cf07" d="M 23.126738 -20.231626 
L 20.96319 -20.231626 
L 20.753496 -20.231698 
L 20.519534 -20.23177 
L 20.261768 -20.231843 
L 19.981247 -20.231915 
L 19.679583 -20.231987 
L 19.358909 -20.232059 
L 19.021808 -20.232131 
L 18.67124 -20.232203 
L 18.310459 -20.232276 
L 17.942939 -20.232348 
L 17.572313 -20.23242 
L 17.202327 -20.232492 
L 16.836806 -20.232564 
L 16.479629 -20.232636 
L 16.134698 -20.232709 
L 15.805896 -20.232781 
L 15.497011 -20.232853 
L 15.211628 -20.232925 
L 14.952985 -20.232997 
L 14.723792 -20.233069 
L 14.526031 -20.233142 
L 14.360763 -20.233214 
L 14.227954 -20.233286 
L 14.12636 -20.233358 
L 14.053495 -20.23343 
L 14.005694 -20.233502 
L 13.978288 -20.233574 
L 13.965886 -20.233647 
L 13.962747 -20.233719 
L 13.963221 -20.233791 
L 13.962213 -20.233863 
L 13.955637 -20.233935 
L 13.940811 -20.234007 
L 13.916755 -20.23408 
L 13.884357 -20.234152 
L 13.846387 -20.234224 
L 13.807351 -20.234296 
L 13.773187 -20.234368 
L 13.750833 -20.23444 
L 13.747685 -20.234513 
L 13.770997 -20.234585 
L 13.827277 -20.234657 
L 13.921709 -20.234729 
L 14.057678 -20.234801 
L 14.236416 -20.234873 
L 14.456815 -20.234946 
L 14.715425 -20.235018 
L 15.006629 -20.23509 
L 15.323 -20.235162 
L 15.655796 -20.235234 
L 15.995561 -20.235306 
L 16.332778 -20.235379 
L 16.658518 -20.235451 
L 16.965034 -20.235523 
L 17.246238 -20.235595 
L 17.498041 -20.235667 
L 17.718509 -20.235739 
L 17.907844 -20.235812 
L 18.06818 -20.235884 
L 18.203231 -20.235956 
L 18.317826 -20.236028 
L 18.417361 -20.2361 
L 18.507251 -20.236172 
L 18.592397 -20.236245 
L 18.676744 -20.236317 
L 18.76295 -20.236389 
L 18.852201 -20.236461 
L 18.94418 -20.236533 
L 19.037184 -20.236605 
L 19.128381 -20.236677 
L 19.214174 -20.23675 
L 19.290626 -20.236822 
L 19.353928 -20.236894 
L 19.400839 -20.236966 
L 19.429083 -20.237038 
L 19.437648 -20.23711 
L 19.426974 -20.237183 
L 19.399015 -20.237255 
L 19.357162 -20.237327 
L 19.306043 -20.237399 
L 19.251224 -20.237471 
L 19.198822 -20.237543 
L 19.155077 -20.237616 
L 19.12592 -20.237688 
L 19.116562 -20.23776 
L 19.131147 -20.237832 
L 19.172493 -20.237904 
L 19.24194 -20.237976 
L 19.339302 -20.238049 
L 19.462943 -20.238121 
L 19.609942 -20.238193 
L 19.776337 -20.238265 
L 19.957433 -20.238337 
L 20.148125 -20.238409 
L 20.343221 -20.238482 
L 20.537746 -20.238554 
L 20.72719 -20.238626 
L 20.907698 -20.238698 
L 21.076198 -20.23877 
L 23.013729 -20.23877 
L 23.013729 -20.23877 
L 23.18223 -20.238698 
L 23.362738 -20.238626 
L 23.552181 -20.238554 
L 23.746706 -20.238482 
L 23.941803 -20.238409 
L 24.132494 -20.238337 
L 24.31359 -20.238265 
L 24.479986 -20.238193 
L 24.626984 -20.238121 
L 24.750625 -20.238049 
L 24.847988 -20.237976 
L 24.917434 -20.237904 
L 24.958781 -20.237832 
L 24.973366 -20.23776 
L 24.964007 -20.237688 
L 24.934851 -20.237616 
L 24.891106 -20.237543 
L 24.838704 -20.237471 
L 24.783885 -20.237399 
L 24.732766 -20.237327 
L 24.690912 -20.237255 
L 24.662953 -20.237183 
L 24.65228 -20.23711 
L 24.660845 -20.237038 
L 24.689089 -20.236966 
L 24.736 -20.236894 
L 24.799301 -20.236822 
L 24.875753 -20.23675 
L 24.961546 -20.236677 
L 25.052744 -20.236605 
L 25.145748 -20.236533 
L 25.237727 -20.236461 
L 25.326978 -20.236389 
L 25.413183 -20.236317 
L 25.49753 -20.236245 
L 25.582676 -20.236172 
L 25.672566 -20.2361 
L 25.772102 -20.236028 
L 25.886696 -20.235956 
L 26.021748 -20.235884 
L 26.182083 -20.235812 
L 26.371418 -20.235739 
L 26.591887 -20.235667 
L 26.843689 -20.235595 
L 27.124894 -20.235523 
L 27.431409 -20.235451 
L 27.75715 -20.235379 
L 28.094367 -20.235306 
L 28.434131 -20.235234 
L 28.766927 -20.235162 
L 29.083298 -20.23509 
L 29.374502 -20.235018 
L 29.633112 -20.234946 
L 29.853512 -20.234873 
L 30.032249 -20.234801 
L 30.168218 -20.234729 
L 30.262651 -20.234657 
L 30.31893 -20.234585 
L 30.342243 -20.234513 
L 30.339094 -20.23444 
L 30.31674 -20.234368 
L 30.282577 -20.234296 
L 30.24354 -20.234224 
L 30.20557 -20.234152 
L 30.173173 -20.23408 
L 30.149117 -20.234007 
L 30.134291 -20.233935 
L 30.127715 -20.233863 
L 30.126706 -20.233791 
L 30.12718 -20.233719 
L 30.124041 -20.233647 
L 30.111639 -20.233574 
L 30.084233 -20.233502 
L 30.036433 -20.23343 
L 29.963568 -20.233358 
L 29.861974 -20.233286 
L 29.729164 -20.233214 
L 29.563896 -20.233142 
L 29.366136 -20.233069 
L 29.136943 -20.232997 
L 28.8783 -20.232925 
L 28.592917 -20.232853 
L 28.284031 -20.232781 
L 27.955229 -20.232709 
L 27.610298 -20.232636 
L 27.253121 -20.232564 
L 26.8876 -20.232492 
L 26.517614 -20.23242 
L 26.146989 -20.232348 
L 25.779469 -20.232276 
L 25.418687 -20.232203 
L 25.068119 -20.232131 
L 24.731018 -20.232059 
L 24.410344 -20.231987 
L 24.108681 -20.231915 
L 23.82816 -20.231843 
L 23.570394 -20.23177 
L 23.336431 -20.231698 
L 23.126738 -20.231626 
z
" style="stroke: #717171; stroke-width: 0.15"/>
    </defs>
    <g clip-path="url(#paf2788259a)">
     <use xlink:href="#m9fcb52cf07" x="0" y="84.96" style="fill: #d6bba3; stroke: #717171; stroke-width: 0.15"/>
    </g>
   </g>
   <g id="PolyCollection_2">
    <defs>
     <path id="med78762f13" d="M 43.679555 -20.219766 
L 41.896767 -20.219766 
L 41.745568 -20.22078 
L 41.578956 -20.221795 
L 41.397162 -20.222809 
L 41.200683 -20.223824 
L 40.990262 -20.224838 
L 40.766848 -20.225853 
L 40.531548 -20.226867 
L 40.285571 -20.227881 
L 40.030158 -20.228896 
L 39.766527 -20.22991 
L 39.495819 -20.230925 
L 39.219057 -20.231939 
L 38.937132 -20.232954 
L 38.650804 -20.233968 
L 38.360737 -20.234983 
L 38.067552 -20.235997 
L 37.771909 -20.237012 
L 37.474599 -20.238026 
L 37.176648 -20.23904 
L 36.879419 -20.240055 
L 36.584707 -20.241069 
L 36.29481 -20.242084 
L 36.012566 -20.243098 
L 35.741366 -20.244113 
L 35.485109 -20.245127 
L 35.24813 -20.246142 
L 35.035071 -20.247156 
L 34.85073 -20.24817 
L 34.699867 -20.249185 
L 34.587002 -20.250199 
L 34.516205 -20.251214 
L 34.490882 -20.252228 
L 34.513592 -20.253243 
L 34.585885 -20.254257 
L 34.708182 -20.255272 
L 34.879705 -20.256286 
L 35.098448 -20.257301 
L 35.361207 -20.258315 
L 35.663659 -20.259329 
L 36.000485 -20.260344 
L 36.365526 -20.261358 
L 36.751979 -20.262373 
L 37.152598 -20.263387 
L 37.559918 -20.264402 
L 37.966472 -20.265416 
L 38.364995 -20.266431 
L 38.748615 -20.267445 
L 39.111022 -20.26846 
L 39.446606 -20.269474 
L 39.75056 -20.270488 
L 40.018964 -20.271503 
L 40.248823 -20.272517 
L 40.438085 -20.273532 
L 40.585627 -20.274546 
L 40.691214 -20.275561 
L 40.755441 -20.276575 
L 40.77965 -20.27759 
L 40.765837 -20.278604 
L 40.716546 -20.279618 
L 40.634752 -20.280633 
L 40.523751 -20.281647 
L 40.387043 -20.282662 
L 40.228229 -20.283676 
L 40.050916 -20.284691 
L 39.858646 -20.285705 
L 39.654842 -20.28672 
L 39.442778 -20.287734 
L 39.225577 -20.288749 
L 39.006229 -20.289763 
L 38.787631 -20.290777 
L 38.572638 -20.291792 
L 38.364118 -20.292806 
L 38.165013 -20.293821 
L 37.978369 -20.294835 
L 37.80736 -20.29585 
L 37.655271 -20.296864 
L 37.525455 -20.297879 
L 37.421247 -20.298893 
L 37.34585 -20.299907 
L 37.302195 -20.300922 
L 37.292782 -20.301936 
L 37.319524 -20.302951 
L 37.383596 -20.303965 
L 37.48531 -20.30498 
L 37.624031 -20.305994 
L 37.798134 -20.307009 
L 38.005019 -20.308023 
L 38.241179 -20.309038 
L 38.502316 -20.310052 
L 38.783505 -20.311066 
L 39.079386 -20.312081 
L 39.384386 -20.313095 
L 39.692931 -20.31411 
L 39.999663 -20.315124 
L 40.299632 -20.316139 
L 40.588447 -20.317153 
L 40.862402 -20.318168 
L 41.118548 -20.319182 
L 41.354726 -20.320196 
L 44.221596 -20.320196 
L 44.221596 -20.320196 
L 44.457774 -20.319182 
L 44.71392 -20.318168 
L 44.987875 -20.317153 
L 45.276691 -20.316139 
L 45.576659 -20.315124 
L 45.883392 -20.31411 
L 46.191937 -20.313095 
L 46.496936 -20.312081 
L 46.792818 -20.311066 
L 47.074006 -20.310052 
L 47.335143 -20.309038 
L 47.571304 -20.308023 
L 47.778189 -20.307009 
L 47.952292 -20.305994 
L 48.091012 -20.30498 
L 48.192726 -20.303965 
L 48.256798 -20.302951 
L 48.283541 -20.301936 
L 48.274128 -20.300922 
L 48.230472 -20.299907 
L 48.155075 -20.298893 
L 48.050867 -20.297879 
L 47.921051 -20.296864 
L 47.768963 -20.29585 
L 47.597954 -20.294835 
L 47.411309 -20.293821 
L 47.212204 -20.292806 
L 47.003685 -20.291792 
L 46.788691 -20.290777 
L 46.570093 -20.289763 
L 46.350746 -20.288749 
L 46.133545 -20.287734 
L 45.921481 -20.28672 
L 45.717677 -20.285705 
L 45.525407 -20.284691 
L 45.348094 -20.283676 
L 45.189279 -20.282662 
L 45.052571 -20.281647 
L 44.941571 -20.280633 
L 44.859777 -20.279618 
L 44.810485 -20.278604 
L 44.796672 -20.27759 
L 44.820881 -20.276575 
L 44.885108 -20.275561 
L 44.990695 -20.274546 
L 45.138237 -20.273532 
L 45.3275 -20.272517 
L 45.557359 -20.271503 
L 45.825763 -20.270488 
L 46.129717 -20.269474 
L 46.4653 -20.26846 
L 46.827708 -20.267445 
L 47.211328 -20.266431 
L 47.60985 -20.265416 
L 48.016404 -20.264402 
L 48.423725 -20.263387 
L 48.824344 -20.262373 
L 49.210796 -20.261358 
L 49.575838 -20.260344 
L 49.912663 -20.259329 
L 50.215116 -20.258315 
L 50.477875 -20.257301 
L 50.696617 -20.256286 
L 50.86814 -20.255272 
L 50.990438 -20.254257 
L 51.062731 -20.253243 
L 51.08544 -20.252228 
L 51.060117 -20.251214 
L 50.98932 -20.250199 
L 50.876456 -20.249185 
L 50.725593 -20.24817 
L 50.541251 -20.247156 
L 50.328193 -20.246142 
L 50.091213 -20.245127 
L 49.834957 -20.244113 
L 49.563756 -20.243098 
L 49.281513 -20.242084 
L 48.991615 -20.241069 
L 48.696904 -20.240055 
L 48.399675 -20.23904 
L 48.101723 -20.238026 
L 47.804413 -20.237012 
L 47.50877 -20.235997 
L 47.215586 -20.234983 
L 46.925518 -20.233968 
L 46.63919 -20.232954 
L 46.357265 -20.231939 
L 46.080504 -20.230925 
L 45.809795 -20.22991 
L 45.546165 -20.228896 
L 45.290752 -20.227881 
L 45.044774 -20.226867 
L 44.809475 -20.225853 
L 44.586061 -20.224838 
L 44.375639 -20.223824 
L 44.179161 -20.222809 
L 43.997366 -20.221795 
L 43.830754 -20.22078 
L 43.679555 -20.219766 
z
" style="stroke: #717171; stroke-width: 0.15"/>
    </defs>
    <g clip-path="url(#paf2788259a)">
     <use xlink:href="#med78762f13" x="0" y="84.96" style="fill: #f1b9e0; stroke: #717171; stroke-width: 0.15"/>
    </g>
   </g>
   <g id="line2d_7">
    <path d="M 22.044964 64.727463 
L 22.044964 64.722141 
" clip-path="url(#paf2788259a)" style="fill: none; stroke: #8c8c8c; stroke-width: 0.75; stroke-linecap: round"/>
   </g>
   <g id="line2d_8">
    <path d="M 22.044964 64.726584 
L 22.044964 64.72471 
" clip-path="url(#paf2788259a)" style="fill: none; stroke: #8c8c8c; stroke-width: 4; stroke-linecap: round"/>
   </g>
   <g id="line2d_9">
    <path d="M 22.044964 64.725433 
" clip-path="url(#paf2788259a)" style="fill: none; stroke: #717171; stroke-width: 1.2; stroke-linecap: round"/>
    <defs>
     <path id="m7a18e9b188" d="M 0 0.833333 
C 0.221003 0.833333 0.432983 0.745528 0.589256 0.589256 
C 0.745528 0.432983 0.833333 0.221003 0.833333 0 
C 0.833333 -0.221003 0.745528 -0.432983 0.589256 -0.589256 
C 0.432983 -0.745528 0.221003 -0.833333 0 -0.833333 
C -0.221003 -0.833333 -0.432983 -0.745528 -0.589256 -0.589256 
C -0.745528 -0.432983 -0.833333 -0.221003 -0.833333 0 
C -0.833333 0.221003 -0.745528 0.432983 -0.589256 0.589256 
C -0.432983 0.745528 -0.221003 0.833333 0 0.833333 
z
" style="stroke: #ffffff; stroke-width: 0.8"/>
    </defs>
    <g clip-path="url(#paf2788259a)">
     <use xlink:href="#m7a18e9b188" x="22.044964" y="64.725433" style="fill: #ffffff; stroke: #ffffff; stroke-width: 0.8"/>
    </g>
   </g>
   <g id="line2d_10">
    <path d="M 42.788161 64.725749 
L 42.788161 64.654289 
" clip-path="url(#paf2788259a)" style="fill: none; stroke: #8c8c8c; stroke-width: 0.75; stroke-linecap: round"/>
   </g>
   <g id="line2d_11">
    <path d="M 42.788161 64.70864 
L 42.788161 64.666334 
" clip-path="url(#paf2788259a)" style="fill: none; stroke: #8c8c8c; stroke-width: 4; stroke-linecap: round"/>
   </g>
   <g id="line2d_12">
    <path d="M 42.788161 64.702315 
" clip-path="url(#paf2788259a)" style="fill: none; stroke: #717171; stroke-width: 1.2; stroke-linecap: round"/>
    <g clip-path="url(#paf2788259a)">
     <use xlink:href="#m7a18e9b188" x="42.788161" y="64.702315" style="fill: #ffffff; stroke: #ffffff; stroke-width: 0.8"/>
    </g>
   </g>
   <g id="patch_3">
    <path d="M 11.673365 74.419526 
L 11.673365 4.076256 
" style="fill: none; stroke: #777777; stroke-width: 0.5; stroke-linejoin: miter; stroke-linecap: square"/>
   </g>
   <g id="patch_4">
    <path d="M 11.673365 76.919526 
L 53.15976 76.919526 
" style="fill: none; stroke: #777777; stroke-width: 0.5; stroke-linejoin: miter; stroke-linecap: square"/>
   </g>
  </g>
 </g>
 <defs>
  <clipPath id="paf2788259a">
   <rect x="11.673365" y="4.076256" width="41.486395" height="70.34327"/>
  </clipPath>
 </defs>
</svg>
