<?xml version="1.0" encoding="utf-8" standalone="no"?>
<!DOCTYPE svg PUBLIC "-//W3C//DTD SVG 1.1//EN"
  "http://www.w3.org/Graphics/SVG/1.1/DTD/svg11.dtd">
<svg xmlns:xlink="http://www.w3.org/1999/xlink" width="56.16pt" height="84.96pt" viewBox="0 0 56.16 84.96" xmlns="http://www.w3.org/2000/svg" version="1.1">
 <metadata>
  <rdf:RDF xmlns:dc="http://purl.org/dc/elements/1.1/" xmlns:cc="http://creativecommons.org/ns#" xmlns:rdf="http://www.w3.org/1999/02/22-rdf-syntax-ns#">
   <cc:Work>
    <dc:type rdf:resource="http://purl.org/dc/dcmitype/StillImage"/>
    <dc:date>2024-05-27T15:37:17.266572</dc:date>
    <dc:format>image/svg+xml</dc:format>
    <dc:creator>
     <cc:Agent>
      <dc:title>Matplotlib v3.8.3, https://matplotlib.org/</dc:title>
     </cc:Agent>
    </dc:creator>
   </cc:Work>
  </rdf:RDF>
 </metadata>
 <defs>
  <style type="text/css">*{stroke-linejoin: round; stroke-linecap: butt}</style>
 </defs>
 <g id="figure_1">
  <g id="patch_1">
   <path d="M 0 84.96 
L 56.16 84.96 
L 56.16 0 
L 0 0 
z
" style="fill: #ffffff"/>
  </g>
  <g id="axes_1">
   <g id="patch_2">
    <path d="M 10.005084 74.419526 
L 53.15976 74.419526 
L 53.15976 4.076256 
L 10.005084 4.076256 
z
" style="fill: #ffffff"/>
   </g>
   <g id="matplotlib.axis_1">
    <g id="xtick_1">
     <g id="text_1">
      <!-- GATA+ Cells -->
      <g style="fill: #333333" transform="translate(10.631175 81.230229) scale(0.035 -0.035)">
       <defs>
        <path id="Helvetica-47" d="M 2472 4709 
Q 3119 4709 3591 4459 
Q 4275 4100 4428 3200 
L 3813 3200 
Q 3700 3703 3347 3933 
Q 2994 4163 2456 4163 
Q 1819 4163 1383 3684 
Q 947 3206 947 2259 
Q 947 1441 1306 927 
Q 1666 413 2478 413 
Q 3100 413 3508 773 
Q 3916 1134 3925 1941 
L 2488 1941 
L 2488 2456 
L 4503 2456 
L 4503 0 
L 4103 0 
L 3953 591 
Q 3638 244 3394 109 
Q 2984 -122 2353 -122 
Q 1538 -122 950 406 
Q 309 1069 309 2225 
Q 309 3378 934 4059 
Q 1528 4709 2472 4709 
z
M 2369 4716 
L 2369 4716 
z
" transform="scale(0.015625)"/>
        <path id="Helvetica-41" d="M 2844 1881 
L 2147 3909 
L 1406 1881 
L 2844 1881 
z
M 1822 4591 
L 2525 4591 
L 4191 0 
L 3509 0 
L 3044 1375 
L 1228 1375 
L 731 0 
L 94 0 
L 1822 4591 
z
" transform="scale(0.015625)"/>
        <path id="Helvetica-54" d="M 3828 4591 
L 3828 4044 
L 2281 4044 
L 2281 0 
L 1650 0 
L 1650 4044 
L 103 4044 
L 103 4591 
L 3828 4591 
z
" transform="scale(0.015625)"/>
        <path id="Helvetica-2b" d="M 288 1369 
L 288 1894 
L 1650 1894 
L 1650 3266 
L 2184 3266 
L 2184 1894 
L 3547 1894 
L 3547 1369 
L 2184 1369 
L 2184 0 
L 1650 0 
L 1650 1369 
L 288 1369 
z
" transform="scale(0.015625)"/>
        <path id="Helvetica-20" transform="scale(0.015625)"/>
        <path id="Helvetica-43" d="M 2422 4716 
Q 3294 4716 3775 4256 
Q 4256 3797 4309 3213 
L 3703 3213 
Q 3600 3656 3292 3915 
Q 2984 4175 2428 4175 
Q 1750 4175 1333 3698 
Q 916 3222 916 2238 
Q 916 1431 1292 929 
Q 1669 428 2416 428 
Q 3103 428 3463 956 
Q 3653 1234 3747 1688 
L 4353 1688 
Q 4272 963 3816 472 
Q 3269 -119 2341 -119 
Q 1541 -119 997 366 
Q 281 1006 281 2344 
Q 281 3359 819 4009 
Q 1400 4716 2422 4716 
z
M 2297 4716 
L 2297 4716 
z
" transform="scale(0.015625)"/>
        <path id="Helvetica-65" d="M 1806 3422 
Q 2163 3422 2497 3255 
Q 2831 3088 3006 2822 
Q 3175 2569 3231 2231 
Q 3281 2000 3281 1494 
L 828 1494 
Q 844 984 1069 676 
Q 1294 369 1766 369 
Q 2206 369 2469 659 
Q 2619 828 2681 1050 
L 3234 1050 
Q 3213 866 3089 639 
Q 2966 413 2813 269 
Q 2556 19 2178 -69 
Q 1975 -119 1719 -119 
Q 1094 -119 659 336 
Q 225 791 225 1609 
Q 225 2416 662 2919 
Q 1100 3422 1806 3422 
z
M 2703 1941 
Q 2669 2306 2544 2525 
Q 2313 2931 1772 2931 
Q 1384 2931 1121 2651 
Q 859 2372 844 1941 
L 2703 1941 
z
M 1753 3428 
L 1753 3428 
z
" transform="scale(0.015625)"/>
        <path id="Helvetica-6c" d="M 428 4591 
L 991 4591 
L 991 0 
L 428 0 
L 428 4591 
z
" transform="scale(0.015625)"/>
        <path id="Helvetica-73" d="M 747 1050 
Q 772 769 888 619 
Q 1100 347 1625 347 
Q 1938 347 2175 483 
Q 2413 619 2413 903 
Q 2413 1119 2222 1231 
Q 2100 1300 1741 1391 
L 1294 1503 
Q 866 1609 663 1741 
Q 300 1969 300 2372 
Q 300 2847 642 3140 
Q 984 3434 1563 3434 
Q 2319 3434 2653 2991 
Q 2863 2709 2856 2384 
L 2325 2384 
Q 2309 2575 2191 2731 
Q 1997 2953 1519 2953 
Q 1200 2953 1036 2831 
Q 872 2709 872 2509 
Q 872 2291 1088 2159 
Q 1213 2081 1456 2022 
L 1828 1931 
Q 2434 1784 2641 1647 
Q 2969 1431 2969 969 
Q 2969 522 2630 197 
Q 2291 -128 1597 -128 
Q 850 -128 539 211 
Q 228 550 206 1050 
L 747 1050 
z
M 1578 3428 
L 1578 3428 
z
" transform="scale(0.015625)"/>
       </defs>
       <use xlink:href="#Helvetica-47"/>
       <use xlink:href="#Helvetica-41" x="77.783203"/>
       <use xlink:href="#Helvetica-54" x="144.482422"/>
       <use xlink:href="#Helvetica-41" x="205.566406"/>
       <use xlink:href="#Helvetica-2b" x="272.265625"/>
       <use xlink:href="#Helvetica-20" x="330.664062"/>
       <use xlink:href="#Helvetica-43" x="358.447266"/>
       <use xlink:href="#Helvetica-65" x="430.664062"/>
       <use xlink:href="#Helvetica-6c" x="486.279297"/>
       <use xlink:href="#Helvetica-6c" x="508.496094"/>
       <use xlink:href="#Helvetica-73" x="530.712891"/>
      </g>
     </g>
    </g>
    <g id="xtick_2">
     <g id="text_2">
      <!-- ICOS+ Cells -->
      <g style="fill: #333333" transform="translate(32.694685 81.230229) scale(0.035 -0.035)">
       <defs>
        <path id="Helvetica-49" d="M 628 4591 
L 1256 4591 
L 1256 0 
L 628 0 
L 628 4591 
z
" transform="scale(0.015625)"/>
        <path id="Helvetica-4f" d="M 2469 4716 
Q 3684 4716 4269 3934 
Q 4725 3325 4725 2375 
Q 4725 1347 4203 666 
Q 3591 -134 2456 -134 
Q 1397 -134 791 566 
Q 250 1241 250 2272 
Q 250 3203 713 3866 
Q 1306 4716 2469 4716 
z
M 2531 422 
Q 3353 422 3720 1011 
Q 4088 1600 4088 2366 
Q 4088 3175 3664 3669 
Q 3241 4163 2506 4163 
Q 1794 4163 1344 3673 
Q 894 3184 894 2231 
Q 894 1469 1280 945 
Q 1666 422 2531 422 
z
M 2488 4716 
L 2488 4716 
z
" transform="scale(0.015625)"/>
        <path id="Helvetica-53" d="M 894 1481 
Q 916 1091 1078 847 
Q 1388 391 2169 391 
Q 2519 391 2806 491 
Q 3363 684 3363 1184 
Q 3363 1559 3128 1719 
Q 2891 1875 2384 1991 
L 1763 2131 
Q 1153 2269 900 2434 
Q 463 2722 463 3294 
Q 463 3913 891 4309 
Q 1319 4706 2103 4706 
Q 2825 4706 3329 4357 
Q 3834 4009 3834 3244 
L 3250 3244 
Q 3203 3613 3050 3809 
Q 2766 4169 2084 4169 
Q 1534 4169 1293 3937 
Q 1053 3706 1053 3400 
Q 1053 3063 1334 2906 
Q 1519 2806 2169 2656 
L 2813 2509 
Q 3278 2403 3531 2219 
Q 3969 1897 3969 1284 
Q 3969 522 3414 194 
Q 2859 -134 2125 -134 
Q 1269 -134 784 303 
Q 300 738 309 1481 
L 894 1481 
z
M 2150 4716 
L 2150 4716 
z
" transform="scale(0.015625)"/>
       </defs>
       <use xlink:href="#Helvetica-49"/>
       <use xlink:href="#Helvetica-43" x="27.783203"/>
       <use xlink:href="#Helvetica-4f" x="100"/>
       <use xlink:href="#Helvetica-53" x="177.783203"/>
       <use xlink:href="#Helvetica-2b" x="244.482422"/>
       <use xlink:href="#Helvetica-20" x="302.880859"/>
       <use xlink:href="#Helvetica-43" x="330.664062"/>
       <use xlink:href="#Helvetica-65" x="402.880859"/>
       <use xlink:href="#Helvetica-6c" x="458.496094"/>
       <use xlink:href="#Helvetica-6c" x="480.712891"/>
       <use xlink:href="#Helvetica-73" x="502.929688"/>
      </g>
     </g>
    </g>
   </g>
   <g id="matplotlib.axis_2">
    <g id="ytick_1">
     <g id="line2d_1">
      <defs>
       <path id="m96484e8256" d="M 0 0 
L -1 0 
" style="stroke: #777777; stroke-width: 0.5"/>
      </defs>
      <g>
       <use xlink:href="#m96484e8256" x="10.005084" y="66.189518" style="fill: #777777; stroke: #777777; stroke-width: 0.5"/>
      </g>
     </g>
     <g id="text_3">
      <!-- 0 -->
      <g style="fill: #333333" transform="translate(6.336802 67.265534) scale(0.03 -0.03)">
       <defs>
        <path id="Helvetica-30" d="M 1731 4475 
Q 2600 4475 2988 3759 
Q 3288 3206 3288 2244 
Q 3288 1331 3016 734 
Q 2622 -122 1728 -122 
Q 922 -122 528 578 
Q 200 1163 200 2147 
Q 200 2909 397 3456 
Q 766 4475 1731 4475 
z
M 1725 391 
Q 2163 391 2422 778 
Q 2681 1166 2681 2222 
Q 2681 2984 2493 3476 
Q 2306 3969 1766 3969 
Q 1269 3969 1039 3501 
Q 809 3034 809 2125 
Q 809 1441 956 1025 
Q 1181 391 1725 391 
z
" transform="scale(0.015625)"/>
       </defs>
       <use xlink:href="#Helvetica-30"/>
      </g>
     </g>
    </g>
    <g id="ytick_2">
     <g id="line2d_2">
      <g>
       <use xlink:href="#m96484e8256" x="10.005084" y="55.837308" style="fill: #777777; stroke: #777777; stroke-width: 0.5"/>
      </g>
     </g>
     <g id="text_4">
      <!-- 20 -->
      <g style="fill: #333333" transform="translate(4.668521 56.913323) scale(0.03 -0.03)">
       <defs>
        <path id="Helvetica-32" d="M 200 0 
Q 231 578 439 1006 
Q 647 1434 1250 1784 
L 1850 2131 
Q 2253 2366 2416 2531 
Q 2672 2791 2672 3125 
Q 2672 3516 2437 3745 
Q 2203 3975 1813 3975 
Q 1234 3975 1013 3538 
Q 894 3303 881 2888 
L 309 2888 
Q 319 3472 525 3841 
Q 891 4491 1816 4491 
Q 2584 4491 2939 4075 
Q 3294 3659 3294 3150 
Q 3294 2613 2916 2231 
Q 2697 2009 2131 1694 
L 1703 1456 
Q 1397 1288 1222 1134 
Q 909 863 828 531 
L 3272 531 
L 3272 0 
L 200 0 
z
" transform="scale(0.015625)"/>
       </defs>
       <use xlink:href="#Helvetica-32"/>
       <use xlink:href="#Helvetica-30" x="55.615234"/>
      </g>
     </g>
    </g>
    <g id="ytick_3">
     <g id="line2d_3">
      <g>
       <use xlink:href="#m96484e8256" x="10.005084" y="45.485097" style="fill: #777777; stroke: #777777; stroke-width: 0.5"/>
      </g>
     </g>
     <g id="text_5">
      <!-- 40 -->
      <g style="fill: #333333" transform="translate(4.668521 46.561113) scale(0.03 -0.03)">
       <defs>
        <path id="Helvetica-34" d="M 2116 1584 
L 2116 3613 
L 681 1584 
L 2116 1584 
z
M 2125 0 
L 2125 1094 
L 163 1094 
L 163 1644 
L 2213 4488 
L 2688 4488 
L 2688 1584 
L 3347 1584 
L 3347 1094 
L 2688 1094 
L 2688 0 
L 2125 0 
z
" transform="scale(0.015625)"/>
       </defs>
       <use xlink:href="#Helvetica-34"/>
       <use xlink:href="#Helvetica-30" x="55.615234"/>
      </g>
     </g>
    </g>
    <g id="ytick_4">
     <g id="line2d_4">
      <g>
       <use xlink:href="#m96484e8256" x="10.005084" y="35.132887" style="fill: #777777; stroke: #777777; stroke-width: 0.5"/>
      </g>
     </g>
     <g id="text_6">
      <!-- 60 -->
      <g style="fill: #333333" transform="translate(4.668521 36.208903) scale(0.03 -0.03)">
       <defs>
        <path id="Helvetica-36" d="M 1872 4494 
Q 2622 4494 2917 4105 
Q 3213 3716 3213 3303 
L 2656 3303 
Q 2606 3569 2497 3719 
Q 2294 4000 1881 4000 
Q 1409 4000 1131 3564 
Q 853 3128 822 2316 
Q 1016 2600 1309 2741 
Q 1578 2866 1909 2866 
Q 2472 2866 2890 2506 
Q 3309 2147 3309 1434 
Q 3309 825 2912 354 
Q 2516 -116 1781 -116 
Q 1153 -116 697 361 
Q 241 838 241 1966 
Q 241 2800 444 3381 
Q 834 4494 1872 4494 
z
M 1831 384 
Q 2275 384 2495 682 
Q 2716 981 2716 1388 
Q 2716 1731 2519 2042 
Q 2322 2353 1803 2353 
Q 1441 2353 1167 2112 
Q 894 1872 894 1388 
Q 894 963 1142 673 
Q 1391 384 1831 384 
z
" transform="scale(0.015625)"/>
       </defs>
       <use xlink:href="#Helvetica-36"/>
       <use xlink:href="#Helvetica-30" x="55.615234"/>
      </g>
     </g>
    </g>
    <g id="ytick_5">
     <g id="line2d_5">
      <g>
       <use xlink:href="#m96484e8256" x="10.005084" y="24.780677" style="fill: #777777; stroke: #777777; stroke-width: 0.5"/>
      </g>
     </g>
     <g id="text_7">
      <!-- 80 -->
      <g style="fill: #333333" transform="translate(4.668521 25.856692) scale(0.03 -0.03)">
       <defs>
        <path id="Helvetica-38" d="M 1741 2600 
Q 2113 2600 2322 2808 
Q 2531 3016 2531 3303 
Q 2531 3553 2331 3762 
Q 2131 3972 1722 3972 
Q 1316 3972 1134 3762 
Q 953 3553 953 3272 
Q 953 2956 1187 2778 
Q 1422 2600 1741 2600 
z
M 1775 384 
Q 2166 384 2423 595 
Q 2681 806 2681 1225 
Q 2681 1659 2415 1884 
Q 2150 2109 1734 2109 
Q 1331 2109 1076 1879 
Q 822 1650 822 1244 
Q 822 894 1055 639 
Q 1288 384 1775 384 
z
M 975 2384 
Q 741 2484 609 2619 
Q 363 2869 363 3269 
Q 363 3769 725 4128 
Q 1088 4488 1753 4488 
Q 2397 4488 2762 4148 
Q 3128 3809 3128 3356 
Q 3128 2938 2916 2678 
Q 2797 2531 2547 2391 
Q 2825 2263 2984 2097 
Q 3281 1784 3281 1284 
Q 3281 694 2884 283 
Q 2488 -128 1763 -128 
Q 1109 -128 657 226 
Q 206 581 206 1256 
Q 206 1653 400 1942 
Q 594 2231 975 2384 
z
" transform="scale(0.015625)"/>
       </defs>
       <use xlink:href="#Helvetica-38"/>
       <use xlink:href="#Helvetica-30" x="55.615234"/>
      </g>
     </g>
    </g>
    <g id="ytick_6">
     <g id="line2d_6">
      <g>
       <use xlink:href="#m96484e8256" x="10.005084" y="14.428466" style="fill: #777777; stroke: #777777; stroke-width: 0.5"/>
      </g>
     </g>
     <g id="text_8">
      <!-- 100 -->
      <g style="fill: #333333" transform="translate(3.00024 15.504482) scale(0.03 -0.03)">
       <defs>
        <path id="Helvetica-31" d="M 613 3169 
L 613 3600 
Q 1222 3659 1462 3798 
Q 1703 3938 1822 4456 
L 2266 4456 
L 2266 0 
L 1666 0 
L 1666 3169 
L 613 3169 
z
" transform="scale(0.015625)"/>
       </defs>
       <use xlink:href="#Helvetica-31"/>
       <use xlink:href="#Helvetica-30" x="55.615234"/>
       <use xlink:href="#Helvetica-30" x="111.230469"/>
      </g>
     </g>
    </g>
    <g id="ytick_7">
     <g id="line2d_7">
      <g>
       <use xlink:href="#m96484e8256" x="10.005084" y="4.076256" style="fill: #777777; stroke: #777777; stroke-width: 0.5"/>
      </g>
     </g>
     <g id="text_9">
      <!-- 120 -->
      <g style="fill: #333333" transform="translate(3.00024 5.152271) scale(0.03 -0.03)">
       <use xlink:href="#Helvetica-31"/>
       <use xlink:href="#Helvetica-32" x="55.615234"/>
       <use xlink:href="#Helvetica-30" x="111.230469"/>
      </g>
     </g>
    </g>
   </g>
   <g id="PolyCollection_1">
    <defs>
     <path id="m5bb736bbf4" d="M 22.56676 -19.430737 
L 19.020746 -19.430737 
L 18.724771 -19.747051 
L 18.401102 -20.063365 
L 18.051402 -20.379679 
L 17.678182 -20.695993 
L 17.284788 -21.012306 
L 16.875348 -21.32862 
L 16.454674 -21.644934 
L 16.028128 -21.961248 
L 15.601447 -22.277562 
L 15.180549 -22.593876 
L 14.771324 -22.91019 
L 14.379419 -23.226503 
L 14.010044 -23.542817 
L 13.667795 -23.859131 
L 13.356519 -24.175445 
L 13.079215 -24.491759 
L 12.837993 -24.808073 
L 12.634069 -25.124387 
L 12.467818 -25.4407 
L 12.338852 -25.757014 
L 12.246133 -26.073328 
L 12.188104 -26.389642 
L 12.162818 -26.705956 
L 12.168068 -27.02227 
L 12.201504 -27.338584 
L 12.26072 -27.654897 
L 12.34333 -27.971211 
L 12.447014 -28.287525 
L 12.569542 -28.603839 
L 12.708785 -28.920153 
L 12.862715 -29.236467 
L 13.0294 -29.552781 
L 13.206992 -29.869094 
L 13.39373 -30.185408 
L 13.587938 -30.501722 
L 13.788027 -30.818036 
L 13.992504 -31.13435 
L 14.199976 -31.450664 
L 14.409144 -31.766978 
L 14.618802 -32.083291 
L 14.827806 -32.399605 
L 15.035052 -32.715919 
L 15.239424 -33.032233 
L 15.439757 -33.348547 
L 15.63478 -33.664861 
L 15.823077 -33.981174 
L 16.003056 -34.297488 
L 16.172932 -34.613802 
L 16.330741 -34.930116 
L 16.474372 -35.24643 
L 16.601624 -35.562744 
L 16.710288 -35.879058 
L 16.798242 -36.195371 
L 16.863561 -36.511685 
L 16.904618 -36.827999 
L 16.920188 -37.144313 
L 16.909529 -37.460627 
L 16.872442 -37.776941 
L 16.80931 -38.093255 
L 16.721099 -38.409568 
L 16.609345 -38.725882 
L 16.476106 -39.042196 
L 16.323903 -39.35851 
L 16.155653 -39.674824 
L 15.974588 -39.991138 
L 15.784187 -40.307452 
L 15.58811 -40.623765 
L 15.390142 -40.940079 
L 15.194147 -41.256393 
L 15.004036 -41.572707 
L 14.823732 -41.889021 
L 14.657142 -42.205335 
L 14.508122 -42.521649 
L 14.380429 -42.837962 
L 14.277662 -43.154276 
L 14.203188 -43.47059 
L 14.160047 -43.786904 
L 14.150857 -44.103218 
L 14.1777 -44.419532 
L 14.242016 -44.735846 
L 14.344507 -45.052159 
L 14.485061 -45.368473 
L 14.662699 -45.684787 
L 14.875562 -46.001101 
L 15.12093 -46.317415 
L 15.395291 -46.633729 
L 15.694438 -46.950042 
L 16.013605 -47.266356 
L 16.347629 -47.58267 
L 16.691131 -47.898984 
L 17.038698 -48.215298 
L 17.385073 -48.531612 
L 17.725316 -48.847926 
L 18.054955 -49.164239 
L 18.370106 -49.480553 
L 18.66755 -49.796867 
L 18.944786 -50.113181 
L 19.200045 -50.429495 
L 19.432267 -50.745809 
L 22.155239 -50.745809 
L 22.155239 -50.745809 
L 22.387461 -50.429495 
L 22.64272 -50.113181 
L 22.919956 -49.796867 
L 23.2174 -49.480553 
L 23.53255 -49.164239 
L 23.86219 -48.847926 
L 24.202433 -48.531612 
L 24.548807 -48.215298 
L 24.896375 -47.898984 
L 25.239876 -47.58267 
L 25.5739 -47.266356 
L 25.893067 -46.950042 
L 26.192214 -46.633729 
L 26.466576 -46.317415 
L 26.711944 -46.001101 
L 26.924806 -45.684787 
L 27.102444 -45.368473 
L 27.242998 -45.052159 
L 27.34549 -44.735846 
L 27.409805 -44.419532 
L 27.436648 -44.103218 
L 27.427458 -43.786904 
L 27.384318 -43.47059 
L 27.309843 -43.154276 
L 27.207076 -42.837962 
L 27.079383 -42.521649 
L 26.930364 -42.205335 
L 26.763774 -41.889021 
L 26.58347 -41.572707 
L 26.393359 -41.256393 
L 26.197364 -40.940079 
L 25.999395 -40.623765 
L 25.803319 -40.307452 
L 25.612918 -39.991138 
L 25.431853 -39.674824 
L 25.263602 -39.35851 
L 25.1114 -39.042196 
L 24.97816 -38.725882 
L 24.866406 -38.409568 
L 24.778196 -38.093255 
L 24.715063 -37.776941 
L 24.677977 -37.460627 
L 24.667317 -37.144313 
L 24.682888 -36.827999 
L 24.723945 -36.511685 
L 24.789263 -36.195371 
L 24.877218 -35.879058 
L 24.985882 -35.562744 
L 25.113133 -35.24643 
L 25.256764 -34.930116 
L 25.414574 -34.613802 
L 25.58445 -34.297488 
L 25.764428 -33.981174 
L 25.952725 -33.664861 
L 26.147748 -33.348547 
L 26.348081 -33.032233 
L 26.552454 -32.715919 
L 26.759699 -32.399605 
L 26.968704 -32.083291 
L 27.178361 -31.766978 
L 27.38753 -31.450664 
L 27.595001 -31.13435 
L 27.799478 -30.818036 
L 27.999567 -30.501722 
L 28.193775 -30.185408 
L 28.380514 -29.869094 
L 28.558106 -29.552781 
L 28.72479 -29.236467 
L 28.878721 -28.920153 
L 29.017964 -28.603839 
L 29.140491 -28.287525 
L 29.244175 -27.971211 
L 29.326786 -27.654897 
L 29.386002 -27.338584 
L 29.419437 -27.02227 
L 29.424688 -26.705956 
L 29.399402 -26.389642 
L 29.341373 -26.073328 
L 29.248654 -25.757014 
L 29.119688 -25.4407 
L 28.953436 -25.124387 
L 28.749513 -24.808073 
L 28.50829 -24.491759 
L 28.230987 -24.175445 
L 27.91971 -23.859131 
L 27.577462 -23.542817 
L 27.208087 -23.226503 
L 26.816182 -22.91019 
L 26.406956 -22.593876 
L 25.986058 -22.277562 
L 25.559377 -21.961248 
L 25.132831 -21.644934 
L 24.712158 -21.32862 
L 24.302717 -21.012306 
L 23.909323 -20.695993 
L 23.536103 -20.379679 
L 23.186404 -20.063365 
L 22.862735 -19.747051 
L 22.56676 -19.430737 
z
" style="stroke: #6f6f6f; stroke-width: 0.15"/>
    </defs>
    <g clip-path="url(#p26eac636c9)">
     <use xlink:href="#m5bb736bbf4" x="0" y="84.96" style="fill: #d6bba3; stroke: #6f6f6f; stroke-width: 0.15"/>
    </g>
   </g>
   <g id="PolyCollection_2">
    <defs>
     <path id="ma2072fd081" d="M 43.05474 -17.532492 
L 41.687442 -17.532492 
L 41.553571 -17.757186 
L 41.406844 -17.981879 
L 41.249034 -18.206573 
L 41.082527 -18.431266 
L 40.910235 -18.655959 
L 40.735463 -18.880653 
L 40.561742 -19.105346 
L 40.392642 -19.33004 
L 40.231582 -19.554733 
L 40.081661 -19.779427 
L 39.945523 -20.00412 
L 39.825284 -20.228814 
L 39.722496 -20.453507 
L 39.638181 -20.678201 
L 39.572894 -20.902894 
L 39.52681 -21.127588 
L 39.499811 -21.352281 
L 39.491544 -21.576975 
L 39.501438 -21.801668 
L 39.528668 -22.026362 
L 39.572054 -22.251055 
L 39.629923 -22.475749 
L 39.699935 -22.700442 
L 39.778908 -22.925135 
L 39.862668 -23.149829 
L 39.945962 -23.374522 
L 40.022446 -23.599216 
L 40.084781 -23.823909 
L 40.124843 -24.048603 
L 40.134037 -24.273296 
L 40.103723 -24.49799 
L 40.02572 -24.722683 
L 39.892868 -24.947377 
L 39.699601 -25.17207 
L 39.442509 -25.396764 
L 39.12083 -25.621457 
L 38.736834 -25.846151 
L 38.296065 -26.070844 
L 37.807395 -26.295538 
L 37.282873 -26.520231 
L 36.737362 -26.744925 
L 36.187959 -26.969618 
L 35.653231 -27.194311 
L 35.152311 -27.419005 
L 34.703902 -27.643698 
L 34.325269 -27.868392 
L 34.031291 -28.093085 
L 33.833639 -28.317779 
L 33.740156 -28.542472 
L 33.754472 -28.767166 
L 33.875895 -28.991859 
L 34.099559 -29.216553 
L 34.416833 -29.441246 
L 34.815931 -29.66594 
L 35.282671 -29.890633 
L 35.801321 -30.115327 
L 36.355464 -30.34002 
L 36.928819 -30.564714 
L 37.505958 -30.789407 
L 38.072897 -31.014101 
L 38.617519 -31.238794 
L 39.12984 -31.463487 
L 39.602103 -31.688181 
L 40.028741 -31.912874 
L 40.406214 -32.137568 
L 40.732775 -32.362261 
L 41.008171 -32.586955 
L 41.233342 -32.811648 
L 41.41012 -33.036342 
L 41.540972 -33.261035 
L 41.628794 -33.485729 
L 41.676768 -33.710422 
L 41.688285 -33.935116 
L 41.666926 -34.159809 
L 41.616485 -34.384503 
L 41.541022 -34.609196 
L 41.444926 -34.83389 
L 41.332948 -35.058583 
L 41.210215 -35.283277 
L 41.082176 -35.50797 
L 40.954497 -35.732663 
L 40.832898 -35.957357 
L 40.722927 -36.18205 
L 40.62971 -36.406744 
L 40.557688 -36.631437 
L 40.510367 -36.856131 
L 40.490116 -37.080824 
L 40.498027 -37.305518 
L 40.533861 -37.530211 
L 40.596089 -37.754905 
L 40.682019 -37.979598 
L 40.788003 -38.204292 
L 40.909701 -38.428985 
L 41.042385 -38.653679 
L 41.181243 -38.878372 
L 41.321661 -39.103066 
L 41.45947 -39.327759 
L 41.59113 -39.552453 
L 41.713842 -39.777146 
L 43.02834 -39.777146 
L 43.02834 -39.777146 
L 43.151052 -39.552453 
L 43.282711 -39.327759 
L 43.420521 -39.103066 
L 43.560939 -38.878372 
L 43.699797 -38.653679 
L 43.832481 -38.428985 
L 43.954179 -38.204292 
L 44.060162 -37.979598 
L 44.146092 -37.754905 
L 44.208321 -37.530211 
L 44.244155 -37.305518 
L 44.252066 -37.080824 
L 44.231815 -36.856131 
L 44.184494 -36.631437 
L 44.112472 -36.406744 
L 44.019255 -36.18205 
L 43.909283 -35.957357 
L 43.787684 -35.732663 
L 43.660006 -35.50797 
L 43.531967 -35.283277 
L 43.409233 -35.058583 
L 43.297256 -34.83389 
L 43.201159 -34.609196 
L 43.125697 -34.384503 
L 43.075256 -34.159809 
L 43.053897 -33.935116 
L 43.065414 -33.710422 
L 43.113388 -33.485729 
L 43.20121 -33.261035 
L 43.332062 -33.036342 
L 43.508839 -32.811648 
L 43.73401 -32.586955 
L 44.009407 -32.362261 
L 44.335968 -32.137568 
L 44.713441 -31.912874 
L 45.140079 -31.688181 
L 45.612342 -31.463487 
L 46.124662 -31.238794 
L 46.669285 -31.014101 
L 47.236224 -30.789407 
L 47.813363 -30.564714 
L 48.386718 -30.34002 
L 48.940861 -30.115327 
L 49.459511 -29.890633 
L 49.926251 -29.66594 
L 50.325348 -29.441246 
L 50.642623 -29.216553 
L 50.866287 -28.991859 
L 50.987709 -28.767166 
L 51.002026 -28.542472 
L 50.908543 -28.317779 
L 50.710891 -28.093085 
L 50.416913 -27.868392 
L 50.03828 -27.643698 
L 49.589871 -27.419005 
L 49.088951 -27.194311 
L 48.554223 -26.969618 
L 48.004819 -26.744925 
L 47.459309 -26.520231 
L 46.934787 -26.295538 
L 46.446117 -26.070844 
L 46.005348 -25.846151 
L 45.621352 -25.621457 
L 45.299672 -25.396764 
L 45.042581 -25.17207 
L 44.849314 -24.947377 
L 44.716462 -24.722683 
L 44.638459 -24.49799 
L 44.608145 -24.273296 
L 44.617339 -24.048603 
L 44.657401 -23.823909 
L 44.719736 -23.599216 
L 44.79622 -23.374522 
L 44.879514 -23.149829 
L 44.963274 -22.925135 
L 45.042247 -22.700442 
L 45.112259 -22.475749 
L 45.170128 -22.251055 
L 45.213514 -22.026362 
L 45.240744 -21.801668 
L 45.250638 -21.576975 
L 45.242371 -21.352281 
L 45.215372 -21.127588 
L 45.169288 -20.902894 
L 45.104001 -20.678201 
L 45.019686 -20.453507 
L 44.916898 -20.228814 
L 44.796658 -20.00412 
L 44.660521 -19.779427 
L 44.510599 -19.554733 
L 44.349539 -19.33004 
L 44.18044 -19.105346 
L 44.006719 -18.880653 
L 43.831947 -18.655959 
L 43.659655 -18.431266 
L 43.493148 -18.206573 
L 43.335338 -17.981879 
L 43.188611 -17.757186 
L 43.05474 -17.532492 
z
" style="stroke: #6f6f6f; stroke-width: 0.15"/>
    </defs>
    <g clip-path="url(#p26eac636c9)">
     <use xlink:href="#ma2072fd081" x="0" y="84.96" style="fill: #f1b9e0; stroke: #6f6f6f; stroke-width: 0.15"/>
    </g>
   </g>
   <g id="line2d_8">
    <path d="M 20.793753 60.92806 
L 20.793753 38.815394 
" clip-path="url(#p26eac636c9)" style="fill: none; stroke: #8c8c8c; stroke-width: 0.75; stroke-linecap: round"/>
   </g>
   <g id="line2d_9">
    <path d="M 20.793753 57.74496 
L 20.793753 43.407752 
" clip-path="url(#p26eac636c9)" style="fill: none; stroke: #8c8c8c; stroke-width: 4; stroke-linecap: round"/>
   </g>
   <g id="line2d_10">
    <path d="M 20.793753 52.877044 
" clip-path="url(#p26eac636c9)" style="fill: none; stroke: #6f6f6f; stroke-width: 1.2; stroke-linecap: round"/>
    <defs>
     <path id="mf2f7261631" d="M 0 0.833333 
C 0.221003 0.833333 0.432983 0.745528 0.589256 0.589256 
C 0.745528 0.432983 0.833333 0.221003 0.833333 0 
C 0.833333 -0.221003 0.745528 -0.432983 0.589256 -0.589256 
C 0.432983 -0.745528 0.221003 -0.833333 0 -0.833333 
C -0.221003 -0.833333 -0.432983 -0.745528 -0.589256 -0.589256 
C -0.745528 -0.432983 -0.833333 -0.221003 -0.833333 0 
C -0.833333 0.221003 -0.745528 0.432983 -0.589256 0.589256 
C -0.432983 0.745528 -0.221003 0.833333 0 0.833333 
z
" style="stroke: #ffffff; stroke-width: 0.8"/>
    </defs>
    <g clip-path="url(#p26eac636c9)">
     <use xlink:href="#mf2f7261631" x="20.793753" y="52.877044" style="fill: #ffffff; stroke: #ffffff; stroke-width: 0.8"/>
    </g>
   </g>
   <g id="line2d_11">
    <path d="M 42.371091 62.104488 
L 42.371091 54.893762 
" clip-path="url(#p26eac636c9)" style="fill: none; stroke: #8c8c8c; stroke-width: 0.75; stroke-linecap: round"/>
   </g>
   <g id="line2d_12">
    <path d="M 42.371091 58.426361 
L 42.371091 55.824112 
" clip-path="url(#p26eac636c9)" style="fill: none; stroke: #8c8c8c; stroke-width: 4; stroke-linecap: round"/>
   </g>
   <g id="line2d_13">
    <path d="M 42.371091 56.563392 
" clip-path="url(#p26eac636c9)" style="fill: none; stroke: #6f6f6f; stroke-width: 1.2; stroke-linecap: round"/>
    <g clip-path="url(#p26eac636c9)">
     <use xlink:href="#mf2f7261631" x="42.371091" y="56.563392" style="fill: #ffffff; stroke: #ffffff; stroke-width: 0.8"/>
    </g>
   </g>
   <g id="patch_3">
    <path d="M 10.005084 74.419526 
L 10.005084 4.076256 
" style="fill: none; stroke: #777777; stroke-width: 0.5; stroke-linejoin: miter; stroke-linecap: square"/>
   </g>
   <g id="patch_4">
    <path d="M 10.005084 76.919526 
L 53.15976 76.919526 
" style="fill: none; stroke: #777777; stroke-width: 0.5; stroke-linejoin: miter; stroke-linecap: square"/>
   </g>
  </g>
 </g>
 <defs>
  <clipPath id="p26eac636c9">
   <rect x="10.005084" y="4.076256" width="43.154676" height="70.34327"/>
  </clipPath>
 </defs>
</svg>
