<?xml version="1.0" encoding="utf-8" standalone="no"?>
<!DOCTYPE svg PUBLIC "-//W3C//DTD SVG 1.1//EN"
  "http://www.w3.org/Graphics/SVG/1.1/DTD/svg11.dtd">
<svg xmlns:xlink="http://www.w3.org/1999/xlink" width="56.16pt" height="84.96pt" viewBox="0 0 56.16 84.96" xmlns="http://www.w3.org/2000/svg" version="1.1">
 <metadata>
  <rdf:RDF xmlns:dc="http://purl.org/dc/elements/1.1/" xmlns:cc="http://creativecommons.org/ns#" xmlns:rdf="http://www.w3.org/1999/02/22-rdf-syntax-ns#">
   <cc:Work>
    <dc:type rdf:resource="http://purl.org/dc/dcmitype/StillImage"/>
    <dc:date>2024-05-27T15:37:01.837531</dc:date>
    <dc:format>image/svg+xml</dc:format>
    <dc:creator>
     <cc:Agent>
      <dc:title>Matplotlib v3.8.3, https://matplotlib.org/</dc:title>
     </cc:Agent>
    </dc:creator>
   </cc:Work>
  </rdf:RDF>
 </metadata>
 <defs>
  <style type="text/css">*{stroke-linejoin: round; stroke-linecap: butt}</style>
 </defs>
 <g id="figure_1">
  <g id="patch_1">
   <path d="M 0 84.96 
L 56.16 84.96 
L 56.16 0 
L 0 0 
z
" style="fill: #ffffff"/>
  </g>
  <g id="axes_1">
   <g id="patch_2">
    <path d="M 10.005084 74.419526 
L 53.15976 74.419526 
L 53.15976 4.076256 
L 10.005084 4.076256 
z
" style="fill: #ffffff"/>
   </g>
   <g id="matplotlib.axis_1">
    <g id="xtick_1">
     <g id="text_1">
      <!-- GATA+ Cells -->
      <g style="fill: #333333" transform="translate(10.631175 81.230229) scale(0.035 -0.035)">
       <defs>
        <path id="Helvetica-47" d="M 2472 4709 
Q 3119 4709 3591 4459 
Q 4275 4100 4428 3200 
L 3813 3200 
Q 3700 3703 3347 3933 
Q 2994 4163 2456 4163 
Q 1819 4163 1383 3684 
Q 947 3206 947 2259 
Q 947 1441 1306 927 
Q 1666 413 2478 413 
Q 3100 413 3508 773 
Q 3916 1134 3925 1941 
L 2488 1941 
L 2488 2456 
L 4503 2456 
L 4503 0 
L 4103 0 
L 3953 591 
Q 3638 244 3394 109 
Q 2984 -122 2353 -122 
Q 1538 -122 950 406 
Q 309 1069 309 2225 
Q 309 3378 934 4059 
Q 1528 4709 2472 4709 
z
M 2369 4716 
L 2369 4716 
z
" transform="scale(0.015625)"/>
        <path id="Helvetica-41" d="M 2844 1881 
L 2147 3909 
L 1406 1881 
L 2844 1881 
z
M 1822 4591 
L 2525 4591 
L 4191 0 
L 3509 0 
L 3044 1375 
L 1228 1375 
L 731 0 
L 94 0 
L 1822 4591 
z
" transform="scale(0.015625)"/>
        <path id="Helvetica-54" d="M 3828 4591 
L 3828 4044 
L 2281 4044 
L 2281 0 
L 1650 0 
L 1650 4044 
L 103 4044 
L 103 4591 
L 3828 4591 
z
" transform="scale(0.015625)"/>
        <path id="Helvetica-2b" d="M 288 1369 
L 288 1894 
L 1650 1894 
L 1650 3266 
L 2184 3266 
L 2184 1894 
L 3547 1894 
L 3547 1369 
L 2184 1369 
L 2184 0 
L 1650 0 
L 1650 1369 
L 288 1369 
z
" transform="scale(0.015625)"/>
        <path id="Helvetica-20" transform="scale(0.015625)"/>
        <path id="Helvetica-43" d="M 2422 4716 
Q 3294 4716 3775 4256 
Q 4256 3797 4309 3213 
L 3703 3213 
Q 3600 3656 3292 3915 
Q 2984 4175 2428 4175 
Q 1750 4175 1333 3698 
Q 916 3222 916 2238 
Q 916 1431 1292 929 
Q 1669 428 2416 428 
Q 3103 428 3463 956 
Q 3653 1234 3747 1688 
L 4353 1688 
Q 4272 963 3816 472 
Q 3269 -119 2341 -119 
Q 1541 -119 997 366 
Q 281 1006 281 2344 
Q 281 3359 819 4009 
Q 1400 4716 2422 4716 
z
M 2297 4716 
L 2297 4716 
z
" transform="scale(0.015625)"/>
        <path id="Helvetica-65" d="M 1806 3422 
Q 2163 3422 2497 3255 
Q 2831 3088 3006 2822 
Q 3175 2569 3231 2231 
Q 3281 2000 3281 1494 
L 828 1494 
Q 844 984 1069 676 
Q 1294 369 1766 369 
Q 2206 369 2469 659 
Q 2619 828 2681 1050 
L 3234 1050 
Q 3213 866 3089 639 
Q 2966 413 2813 269 
Q 2556 19 2178 -69 
Q 1975 -119 1719 -119 
Q 1094 -119 659 336 
Q 225 791 225 1609 
Q 225 2416 662 2919 
Q 1100 3422 1806 3422 
z
M 2703 1941 
Q 2669 2306 2544 2525 
Q 2313 2931 1772 2931 
Q 1384 2931 1121 2651 
Q 859 2372 844 1941 
L 2703 1941 
z
M 1753 3428 
L 1753 3428 
z
" transform="scale(0.015625)"/>
        <path id="Helvetica-6c" d="M 428 4591 
L 991 4591 
L 991 0 
L 428 0 
L 428 4591 
z
" transform="scale(0.015625)"/>
        <path id="Helvetica-73" d="M 747 1050 
Q 772 769 888 619 
Q 1100 347 1625 347 
Q 1938 347 2175 483 
Q 2413 619 2413 903 
Q 2413 1119 2222 1231 
Q 2100 1300 1741 1391 
L 1294 1503 
Q 866 1609 663 1741 
Q 300 1969 300 2372 
Q 300 2847 642 3140 
Q 984 3434 1563 3434 
Q 2319 3434 2653 2991 
Q 2863 2709 2856 2384 
L 2325 2384 
Q 2309 2575 2191 2731 
Q 1997 2953 1519 2953 
Q 1200 2953 1036 2831 
Q 872 2709 872 2509 
Q 872 2291 1088 2159 
Q 1213 2081 1456 2022 
L 1828 1931 
Q 2434 1784 2641 1647 
Q 2969 1431 2969 969 
Q 2969 522 2630 197 
Q 2291 -128 1597 -128 
Q 850 -128 539 211 
Q 228 550 206 1050 
L 747 1050 
z
M 1578 3428 
L 1578 3428 
z
" transform="scale(0.015625)"/>
       </defs>
       <use xlink:href="#Helvetica-47"/>
       <use xlink:href="#Helvetica-41" x="77.783203"/>
       <use xlink:href="#Helvetica-54" x="144.482422"/>
       <use xlink:href="#Helvetica-41" x="205.566406"/>
       <use xlink:href="#Helvetica-2b" x="272.265625"/>
       <use xlink:href="#Helvetica-20" x="330.664062"/>
       <use xlink:href="#Helvetica-43" x="358.447266"/>
       <use xlink:href="#Helvetica-65" x="430.664062"/>
       <use xlink:href="#Helvetica-6c" x="486.279297"/>
       <use xlink:href="#Helvetica-6c" x="508.496094"/>
       <use xlink:href="#Helvetica-73" x="530.712891"/>
      </g>
     </g>
    </g>
    <g id="xtick_2">
     <g id="text_2">
      <!-- ICOS+ Cells -->
      <g style="fill: #333333" transform="translate(32.694685 81.230229) scale(0.035 -0.035)">
       <defs>
        <path id="Helvetica-49" d="M 628 4591 
L 1256 4591 
L 1256 0 
L 628 0 
L 628 4591 
z
" transform="scale(0.015625)"/>
        <path id="Helvetica-4f" d="M 2469 4716 
Q 3684 4716 4269 3934 
Q 4725 3325 4725 2375 
Q 4725 1347 4203 666 
Q 3591 -134 2456 -134 
Q 1397 -134 791 566 
Q 250 1241 250 2272 
Q 250 3203 713 3866 
Q 1306 4716 2469 4716 
z
M 2531 422 
Q 3353 422 3720 1011 
Q 4088 1600 4088 2366 
Q 4088 3175 3664 3669 
Q 3241 4163 2506 4163 
Q 1794 4163 1344 3673 
Q 894 3184 894 2231 
Q 894 1469 1280 945 
Q 1666 422 2531 422 
z
M 2488 4716 
L 2488 4716 
z
" transform="scale(0.015625)"/>
        <path id="Helvetica-53" d="M 894 1481 
Q 916 1091 1078 847 
Q 1388 391 2169 391 
Q 2519 391 2806 491 
Q 3363 684 3363 1184 
Q 3363 1559 3128 1719 
Q 2891 1875 2384 1991 
L 1763 2131 
Q 1153 2269 900 2434 
Q 463 2722 463 3294 
Q 463 3913 891 4309 
Q 1319 4706 2103 4706 
Q 2825 4706 3329 4357 
Q 3834 4009 3834 3244 
L 3250 3244 
Q 3203 3613 3050 3809 
Q 2766 4169 2084 4169 
Q 1534 4169 1293 3937 
Q 1053 3706 1053 3400 
Q 1053 3063 1334 2906 
Q 1519 2806 2169 2656 
L 2813 2509 
Q 3278 2403 3531 2219 
Q 3969 1897 3969 1284 
Q 3969 522 3414 194 
Q 2859 -134 2125 -134 
Q 1269 -134 784 303 
Q 300 738 309 1481 
L 894 1481 
z
M 2150 4716 
L 2150 4716 
z
" transform="scale(0.015625)"/>
       </defs>
       <use xlink:href="#Helvetica-49"/>
       <use xlink:href="#Helvetica-43" x="27.783203"/>
       <use xlink:href="#Helvetica-4f" x="100"/>
       <use xlink:href="#Helvetica-53" x="177.783203"/>
       <use xlink:href="#Helvetica-2b" x="244.482422"/>
       <use xlink:href="#Helvetica-20" x="302.880859"/>
       <use xlink:href="#Helvetica-43" x="330.664062"/>
       <use xlink:href="#Helvetica-65" x="402.880859"/>
       <use xlink:href="#Helvetica-6c" x="458.496094"/>
       <use xlink:href="#Helvetica-6c" x="480.712891"/>
       <use xlink:href="#Helvetica-73" x="502.929688"/>
      </g>
     </g>
    </g>
   </g>
   <g id="matplotlib.axis_2">
    <g id="ytick_1">
     <g id="line2d_1">
      <defs>
       <path id="mf7f40fcf3c" d="M 0 0 
L -1 0 
" style="stroke: #777777; stroke-width: 0.5"/>
      </defs>
      <g>
       <use xlink:href="#mf7f40fcf3c" x="10.005084" y="66.189518" style="fill: #777777; stroke: #777777; stroke-width: 0.5"/>
      </g>
     </g>
     <g id="text_3">
      <!-- 0 -->
      <g style="fill: #333333" transform="translate(6.336802 67.265534) scale(0.03 -0.03)">
       <defs>
        <path id="Helvetica-30" d="M 1731 4475 
Q 2600 4475 2988 3759 
Q 3288 3206 3288 2244 
Q 3288 1331 3016 734 
Q 2622 -122 1728 -122 
Q 922 -122 528 578 
Q 200 1163 200 2147 
Q 200 2909 397 3456 
Q 766 4475 1731 4475 
z
M 1725 391 
Q 2163 391 2422 778 
Q 2681 1166 2681 2222 
Q 2681 2984 2493 3476 
Q 2306 3969 1766 3969 
Q 1269 3969 1039 3501 
Q 809 3034 809 2125 
Q 809 1441 956 1025 
Q 1181 391 1725 391 
z
" transform="scale(0.015625)"/>
       </defs>
       <use xlink:href="#Helvetica-30"/>
      </g>
     </g>
    </g>
    <g id="ytick_2">
     <g id="line2d_2">
      <g>
       <use xlink:href="#mf7f40fcf3c" x="10.005084" y="55.837308" style="fill: #777777; stroke: #777777; stroke-width: 0.5"/>
      </g>
     </g>
     <g id="text_4">
      <!-- 20 -->
      <g style="fill: #333333" transform="translate(4.668521 56.913323) scale(0.03 -0.03)">
       <defs>
        <path id="Helvetica-32" d="M 200 0 
Q 231 578 439 1006 
Q 647 1434 1250 1784 
L 1850 2131 
Q 2253 2366 2416 2531 
Q 2672 2791 2672 3125 
Q 2672 3516 2437 3745 
Q 2203 3975 1813 3975 
Q 1234 3975 1013 3538 
Q 894 3303 881 2888 
L 309 2888 
Q 319 3472 525 3841 
Q 891 4491 1816 4491 
Q 2584 4491 2939 4075 
Q 3294 3659 3294 3150 
Q 3294 2613 2916 2231 
Q 2697 2009 2131 1694 
L 1703 1456 
Q 1397 1288 1222 1134 
Q 909 863 828 531 
L 3272 531 
L 3272 0 
L 200 0 
z
" transform="scale(0.015625)"/>
       </defs>
       <use xlink:href="#Helvetica-32"/>
       <use xlink:href="#Helvetica-30" x="55.615234"/>
      </g>
     </g>
    </g>
    <g id="ytick_3">
     <g id="line2d_3">
      <g>
       <use xlink:href="#mf7f40fcf3c" x="10.005084" y="45.485097" style="fill: #777777; stroke: #777777; stroke-width: 0.5"/>
      </g>
     </g>
     <g id="text_5">
      <!-- 40 -->
      <g style="fill: #333333" transform="translate(4.668521 46.561113) scale(0.03 -0.03)">
       <defs>
        <path id="Helvetica-34" d="M 2116 1584 
L 2116 3613 
L 681 1584 
L 2116 1584 
z
M 2125 0 
L 2125 1094 
L 163 1094 
L 163 1644 
L 2213 4488 
L 2688 4488 
L 2688 1584 
L 3347 1584 
L 3347 1094 
L 2688 1094 
L 2688 0 
L 2125 0 
z
" transform="scale(0.015625)"/>
       </defs>
       <use xlink:href="#Helvetica-34"/>
       <use xlink:href="#Helvetica-30" x="55.615234"/>
      </g>
     </g>
    </g>
    <g id="ytick_4">
     <g id="line2d_4">
      <g>
       <use xlink:href="#mf7f40fcf3c" x="10.005084" y="35.132887" style="fill: #777777; stroke: #777777; stroke-width: 0.5"/>
      </g>
     </g>
     <g id="text_6">
      <!-- 60 -->
      <g style="fill: #333333" transform="translate(4.668521 36.208903) scale(0.03 -0.03)">
       <defs>
        <path id="Helvetica-36" d="M 1872 4494 
Q 2622 4494 2917 4105 
Q 3213 3716 3213 3303 
L 2656 3303 
Q 2606 3569 2497 3719 
Q 2294 4000 1881 4000 
Q 1409 4000 1131 3564 
Q 853 3128 822 2316 
Q 1016 2600 1309 2741 
Q 1578 2866 1909 2866 
Q 2472 2866 2890 2506 
Q 3309 2147 3309 1434 
Q 3309 825 2912 354 
Q 2516 -116 1781 -116 
Q 1153 -116 697 361 
Q 241 838 241 1966 
Q 241 2800 444 3381 
Q 834 4494 1872 4494 
z
M 1831 384 
Q 2275 384 2495 682 
Q 2716 981 2716 1388 
Q 2716 1731 2519 2042 
Q 2322 2353 1803 2353 
Q 1441 2353 1167 2112 
Q 894 1872 894 1388 
Q 894 963 1142 673 
Q 1391 384 1831 384 
z
" transform="scale(0.015625)"/>
       </defs>
       <use xlink:href="#Helvetica-36"/>
       <use xlink:href="#Helvetica-30" x="55.615234"/>
      </g>
     </g>
    </g>
    <g id="ytick_5">
     <g id="line2d_5">
      <g>
       <use xlink:href="#mf7f40fcf3c" x="10.005084" y="24.780677" style="fill: #777777; stroke: #777777; stroke-width: 0.5"/>
      </g>
     </g>
     <g id="text_7">
      <!-- 80 -->
      <g style="fill: #333333" transform="translate(4.668521 25.856692) scale(0.03 -0.03)">
       <defs>
        <path id="Helvetica-38" d="M 1741 2600 
Q 2113 2600 2322 2808 
Q 2531 3016 2531 3303 
Q 2531 3553 2331 3762 
Q 2131 3972 1722 3972 
Q 1316 3972 1134 3762 
Q 953 3553 953 3272 
Q 953 2956 1187 2778 
Q 1422 2600 1741 2600 
z
M 1775 384 
Q 2166 384 2423 595 
Q 2681 806 2681 1225 
Q 2681 1659 2415 1884 
Q 2150 2109 1734 2109 
Q 1331 2109 1076 1879 
Q 822 1650 822 1244 
Q 822 894 1055 639 
Q 1288 384 1775 384 
z
M 975 2384 
Q 741 2484 609 2619 
Q 363 2869 363 3269 
Q 363 3769 725 4128 
Q 1088 4488 1753 4488 
Q 2397 4488 2762 4148 
Q 3128 3809 3128 3356 
Q 3128 2938 2916 2678 
Q 2797 2531 2547 2391 
Q 2825 2263 2984 2097 
Q 3281 1784 3281 1284 
Q 3281 694 2884 283 
Q 2488 -128 1763 -128 
Q 1109 -128 657 226 
Q 206 581 206 1256 
Q 206 1653 400 1942 
Q 594 2231 975 2384 
z
" transform="scale(0.015625)"/>
       </defs>
       <use xlink:href="#Helvetica-38"/>
       <use xlink:href="#Helvetica-30" x="55.615234"/>
      </g>
     </g>
    </g>
    <g id="ytick_6">
     <g id="line2d_6">
      <g>
       <use xlink:href="#mf7f40fcf3c" x="10.005084" y="14.428466" style="fill: #777777; stroke: #777777; stroke-width: 0.5"/>
      </g>
     </g>
     <g id="text_8">
      <!-- 100 -->
      <g style="fill: #333333" transform="translate(3.00024 15.504482) scale(0.03 -0.03)">
       <defs>
        <path id="Helvetica-31" d="M 613 3169 
L 613 3600 
Q 1222 3659 1462 3798 
Q 1703 3938 1822 4456 
L 2266 4456 
L 2266 0 
L 1666 0 
L 1666 3169 
L 613 3169 
z
" transform="scale(0.015625)"/>
       </defs>
       <use xlink:href="#Helvetica-31"/>
       <use xlink:href="#Helvetica-30" x="55.615234"/>
       <use xlink:href="#Helvetica-30" x="111.230469"/>
      </g>
     </g>
    </g>
    <g id="ytick_7">
     <g id="line2d_7">
      <g>
       <use xlink:href="#mf7f40fcf3c" x="10.005084" y="4.076256" style="fill: #777777; stroke: #777777; stroke-width: 0.5"/>
      </g>
     </g>
     <g id="text_9">
      <!-- 120 -->
      <g style="fill: #333333" transform="translate(3.00024 5.152271) scale(0.03 -0.03)">
       <use xlink:href="#Helvetica-31"/>
       <use xlink:href="#Helvetica-32" x="55.615234"/>
       <use xlink:href="#Helvetica-30" x="111.230469"/>
      </g>
     </g>
    </g>
   </g>
   <g id="PolyCollection_1">
    <defs>
     <path id="m9e918cb92d" d="M 22.718308 -16.67435 
L 18.869197 -16.67435 
L 18.520814 -16.856716 
L 18.137107 -17.039082 
L 17.720511 -17.221448 
L 17.274825 -17.403814 
L 16.805234 -17.58618 
L 16.318236 -17.768546 
L 15.821499 -17.950911 
L 15.32364 -18.133277 
L 14.833921 -18.315643 
L 14.361907 -18.498009 
L 13.91707 -18.680375 
L 13.508395 -18.862741 
L 13.143999 -19.045107 
L 12.830786 -19.227473 
L 12.574179 -19.409838 
L 12.377936 -19.592204 
L 12.244058 -19.77457 
L 12.172807 -19.956936 
L 12.162818 -20.139302 
L 12.211291 -20.321668 
L 12.314255 -20.504034 
L 12.466862 -20.686399 
L 12.663702 -20.868765 
L 12.899098 -21.051131 
L 13.167368 -21.233497 
L 13.46304 -21.415863 
L 13.780989 -21.598229 
L 14.116527 -21.780595 
L 14.465415 -21.962961 
L 14.823832 -22.145326 
L 15.188299 -22.327692 
L 15.55559 -22.510058 
L 15.92263 -22.692424 
L 16.286407 -22.87479 
L 16.643904 -23.057156 
L 16.992066 -23.239522 
L 17.327794 -23.421887 
L 17.647976 -23.604253 
L 17.949552 -23.786619 
L 18.229589 -23.968985 
L 18.485388 -24.151351 
L 18.714578 -24.333717 
L 18.915225 -24.516083 
L 19.085915 -24.698448 
L 19.225839 -24.880814 
L 19.33484 -25.06318 
L 19.413451 -25.245546 
L 19.4629 -25.427912 
L 19.485092 -25.610278 
L 19.48257 -25.792644 
L 19.45844 -25.97501 
L 19.416285 -26.157375 
L 19.360049 -26.339741 
L 19.293899 -26.522107 
L 19.222086 -26.704473 
L 19.148779 -26.886839 
L 19.077904 -27.069205 
L 19.012992 -27.251571 
L 18.957027 -27.433936 
L 18.912324 -27.616302 
L 18.880437 -27.798668 
L 18.862098 -27.981034 
L 18.857204 -28.1634 
L 18.864843 -28.345766 
L 18.883373 -28.528132 
L 18.910539 -28.710498 
L 18.943626 -28.892863 
L 18.97964 -29.075229 
L 19.015513 -29.257595 
L 19.048298 -29.439961 
L 19.075372 -29.622327 
L 19.094606 -29.804693 
L 19.104509 -29.987059 
L 19.104326 -30.169424 
L 19.094093 -30.35179 
L 19.074633 -30.534156 
L 19.04751 -30.716522 
L 19.014929 -30.898888 
L 18.979598 -31.081254 
L 18.944558 -31.26362 
L 18.912994 -31.445986 
L 18.888041 -31.628351 
L 18.872596 -31.810717 
L 18.869149 -31.993083 
L 18.879642 -32.175449 
L 18.905372 -32.357815 
L 18.946929 -32.540181 
L 19.004188 -32.722547 
L 19.076337 -32.904912 
L 19.16195 -33.087278 
L 19.259091 -33.269644 
L 19.365438 -33.45201 
L 19.478426 -33.634376 
L 19.595387 -33.816742 
L 19.713685 -33.999108 
L 19.83084 -34.181473 
L 19.944626 -34.363839 
L 20.053142 -34.546205 
L 20.154866 -34.728571 
L 21.43264 -34.728571 
L 21.43264 -34.728571 
L 21.534363 -34.546205 
L 21.64288 -34.363839 
L 21.756666 -34.181473 
L 21.873821 -33.999108 
L 21.992119 -33.816742 
L 22.10908 -33.634376 
L 22.222067 -33.45201 
L 22.328415 -33.269644 
L 22.425556 -33.087278 
L 22.511169 -32.904912 
L 22.583318 -32.722547 
L 22.640576 -32.540181 
L 22.682134 -32.357815 
L 22.707864 -32.175449 
L 22.718357 -31.993083 
L 22.714909 -31.810717 
L 22.699464 -31.628351 
L 22.674511 -31.445986 
L 22.642947 -31.26362 
L 22.607907 -31.081254 
L 22.572576 -30.898888 
L 22.539996 -30.716522 
L 22.512873 -30.534156 
L 22.493413 -30.35179 
L 22.483179 -30.169424 
L 22.482996 -29.987059 
L 22.4929 -29.804693 
L 22.512134 -29.622327 
L 22.539208 -29.439961 
L 22.571993 -29.257595 
L 22.607865 -29.075229 
L 22.64388 -28.892863 
L 22.676966 -28.710498 
L 22.704132 -28.528132 
L 22.722663 -28.345766 
L 22.730302 -28.1634 
L 22.725407 -27.981034 
L 22.707069 -27.798668 
L 22.675182 -27.616302 
L 22.630479 -27.433936 
L 22.574513 -27.251571 
L 22.509601 -27.069205 
L 22.438727 -26.886839 
L 22.365419 -26.704473 
L 22.293606 -26.522107 
L 22.227457 -26.339741 
L 22.17122 -26.157375 
L 22.129066 -25.97501 
L 22.104936 -25.792644 
L 22.102414 -25.610278 
L 22.124606 -25.427912 
L 22.174054 -25.245546 
L 22.252665 -25.06318 
L 22.361666 -24.880814 
L 22.50159 -24.698448 
L 22.672281 -24.516083 
L 22.872927 -24.333717 
L 23.102117 -24.151351 
L 23.357916 -23.968985 
L 23.637954 -23.786619 
L 23.939529 -23.604253 
L 24.259712 -23.421887 
L 24.595439 -23.239522 
L 24.943601 -23.057156 
L 25.301098 -22.87479 
L 25.664875 -22.692424 
L 26.031915 -22.510058 
L 26.399207 -22.327692 
L 26.763674 -22.145326 
L 27.12209 -21.962961 
L 27.470978 -21.780595 
L 27.806517 -21.598229 
L 28.124466 -21.415863 
L 28.420137 -21.233497 
L 28.688408 -21.051131 
L 28.923804 -20.868765 
L 29.120644 -20.686399 
L 29.273251 -20.504034 
L 29.376215 -20.321668 
L 29.424688 -20.139302 
L 29.414699 -19.956936 
L 29.343448 -19.77457 
L 29.20957 -19.592204 
L 29.013326 -19.409838 
L 28.75672 -19.227473 
L 28.443507 -19.045107 
L 28.07911 -18.862741 
L 27.670436 -18.680375 
L 27.225599 -18.498009 
L 26.753585 -18.315643 
L 26.263866 -18.133277 
L 25.766006 -17.950911 
L 25.26927 -17.768546 
L 24.782272 -17.58618 
L 24.31268 -17.403814 
L 23.866995 -17.221448 
L 23.450398 -17.039082 
L 23.066692 -16.856716 
L 22.718308 -16.67435 
z
" style="stroke: #6f6f6f; stroke-width: 0.15"/>
    </defs>
    <g clip-path="url(#p08c7eb0c48)">
     <use xlink:href="#m9e918cb92d" x="0" y="84.96" style="fill: #d6bba3; stroke: #6f6f6f; stroke-width: 0.15"/>
    </g>
   </g>
   <g id="PolyCollection_2">
    <defs>
     <path id="mc960076241" d="M 43.695009 -17.43777 
L 41.047173 -17.43777 
L 40.770662 -17.557885 
L 40.457333 -17.678 
L 40.107109 -17.798115 
L 39.721031 -17.918229 
L 39.301383 -18.038344 
L 38.851772 -18.158459 
L 38.377154 -18.278574 
L 37.883805 -18.398688 
L 37.379222 -18.518803 
L 36.871968 -18.638918 
L 36.371455 -18.759033 
L 35.887676 -18.879147 
L 35.430886 -18.999262 
L 35.011254 -19.119377 
L 34.638496 -19.239491 
L 34.321497 -19.359606 
L 34.067943 -19.479721 
L 33.883991 -19.599836 
L 33.77397 -19.71995 
L 33.740156 -19.840065 
L 33.782625 -19.96018 
L 33.899199 -20.080295 
L 34.085496 -20.200409 
L 34.335091 -20.320524 
L 34.639784 -20.440639 
L 34.989961 -20.560754 
L 35.375036 -20.680868 
L 35.783951 -20.800983 
L 36.205689 -20.921098 
L 36.629792 -21.041213 
L 37.046815 -21.161327 
L 37.448722 -21.281442 
L 37.829166 -21.401557 
L 38.183659 -21.521671 
L 38.509604 -21.641786 
L 38.806208 -21.761901 
L 39.074284 -21.882016 
L 39.315961 -22.00213 
L 39.534333 -22.122245 
L 39.733081 -22.24236 
L 39.916095 -22.362475 
L 40.087138 -22.482589 
L 40.249559 -22.602704 
L 40.406086 -22.722819 
L 40.558697 -22.842934 
L 40.708581 -22.963048 
L 40.856166 -23.083163 
L 41.001216 -23.203278 
L 41.142964 -23.323393 
L 41.280282 -23.443507 
L 41.411841 -23.563622 
L 41.536276 -23.683737 
L 41.652315 -23.803852 
L 41.758886 -23.923966 
L 41.855175 -24.044081 
L 41.94066 -24.164196 
L 42.015099 -24.28431 
L 42.078503 -24.404425 
L 42.131077 -24.52454 
L 42.173152 -24.644655 
L 42.205122 -24.764769 
L 42.227371 -24.884884 
L 42.240216 -25.004999 
L 42.243868 -25.125114 
L 42.2384 -25.245228 
L 42.223752 -25.365343 
L 42.199739 -25.485458 
L 42.166091 -25.605573 
L 42.12251 -25.725687 
L 42.068741 -25.845802 
L 42.004656 -25.965917 
L 41.930341 -26.086032 
L 41.846182 -26.206146 
L 41.752944 -26.326261 
L 41.65183 -26.446376 
L 41.544516 -26.566491 
L 41.43315 -26.686605 
L 41.320322 -26.80672 
L 41.208985 -26.926835 
L 41.102353 -27.046949 
L 41.003753 -27.167064 
L 40.916464 -27.287179 
L 40.843538 -27.407294 
L 40.787629 -27.527408 
L 40.750829 -27.647523 
L 40.734545 -27.767638 
L 40.739407 -27.887753 
L 40.765226 -28.007867 
L 40.811012 -28.127982 
L 40.875031 -28.248097 
L 40.954919 -28.368212 
L 41.047823 -28.488326 
L 41.150572 -28.608441 
L 41.259857 -28.728556 
L 41.372399 -28.848671 
L 41.485115 -28.968785 
L 41.595242 -29.0889 
L 41.700439 -29.209015 
L 41.798847 -29.32913 
L 42.943335 -29.32913 
L 42.943335 -29.32913 
L 43.041743 -29.209015 
L 43.14694 -29.0889 
L 43.257067 -28.968785 
L 43.369783 -28.848671 
L 43.482325 -28.728556 
L 43.591609 -28.608441 
L 43.694359 -28.488326 
L 43.787263 -28.368212 
L 43.867151 -28.248097 
L 43.93117 -28.127982 
L 43.976956 -28.007867 
L 44.002775 -27.887753 
L 44.007637 -27.767638 
L 43.991353 -27.647523 
L 43.954553 -27.527408 
L 43.898644 -27.407294 
L 43.825718 -27.287179 
L 43.738428 -27.167064 
L 43.639829 -27.046949 
L 43.533197 -26.926835 
L 43.42186 -26.80672 
L 43.309031 -26.686605 
L 43.197666 -26.566491 
L 43.090352 -26.446376 
L 42.989238 -26.326261 
L 42.896 -26.206146 
L 42.811841 -26.086032 
L 42.737526 -25.965917 
L 42.673441 -25.845802 
L 42.619672 -25.725687 
L 42.576091 -25.605573 
L 42.542443 -25.485458 
L 42.518429 -25.365343 
L 42.503781 -25.245228 
L 42.498314 -25.125114 
L 42.501966 -25.004999 
L 42.514811 -24.884884 
L 42.53706 -24.764769 
L 42.56903 -24.644655 
L 42.611105 -24.52454 
L 42.663678 -24.404425 
L 42.727083 -24.28431 
L 42.801522 -24.164196 
L 42.887007 -24.044081 
L 42.983296 -23.923966 
L 43.089867 -23.803852 
L 43.205906 -23.683737 
L 43.330341 -23.563622 
L 43.4619 -23.443507 
L 43.599218 -23.323393 
L 43.740966 -23.203278 
L 43.886015 -23.083163 
L 44.033601 -22.963048 
L 44.183485 -22.842934 
L 44.336096 -22.722819 
L 44.492623 -22.602704 
L 44.655044 -22.482589 
L 44.826087 -22.362475 
L 45.009101 -22.24236 
L 45.207848 -22.122245 
L 45.426221 -22.00213 
L 45.667898 -21.882016 
L 45.935974 -21.761901 
L 46.232578 -21.641786 
L 46.558522 -21.521671 
L 46.913015 -21.401557 
L 47.29346 -21.281442 
L 47.695367 -21.161327 
L 48.11239 -21.041213 
L 48.536492 -20.921098 
L 48.958231 -20.800983 
L 49.367146 -20.680868 
L 49.752221 -20.560754 
L 50.102398 -20.440639 
L 50.407091 -20.320524 
L 50.656686 -20.200409 
L 50.842983 -20.080295 
L 50.959557 -19.96018 
L 51.002026 -19.840065 
L 50.968212 -19.71995 
L 50.858191 -19.599836 
L 50.674239 -19.479721 
L 50.420685 -19.359606 
L 50.103686 -19.239491 
L 49.730928 -19.119377 
L 49.311296 -18.999262 
L 48.854506 -18.879147 
L 48.370727 -18.759033 
L 47.870214 -18.638918 
L 47.36296 -18.518803 
L 46.858377 -18.398688 
L 46.365028 -18.278574 
L 45.89041 -18.158459 
L 45.440799 -18.038344 
L 45.021151 -17.918229 
L 44.635073 -17.798115 
L 44.284849 -17.678 
L 43.97152 -17.557885 
L 43.695009 -17.43777 
z
" style="stroke: #6f6f6f; stroke-width: 0.15"/>
    </defs>
    <g clip-path="url(#p08c7eb0c48)">
     <use xlink:href="#mc960076241" x="0" y="84.96" style="fill: #f1b9e0; stroke: #6f6f6f; stroke-width: 0.15"/>
    </g>
   </g>
   <g id="line2d_8">
    <path d="M 20.793753 65.77859 
L 20.793753 57.034358 
" clip-path="url(#p08c7eb0c48)" style="fill: none; stroke: #8c8c8c; stroke-width: 0.75; stroke-linecap: round"/>
   </g>
   <g id="line2d_9">
    <path d="M 20.793753 65.370368 
L 20.793753 61.047017 
" clip-path="url(#p08c7eb0c48)" style="fill: none; stroke: #8c8c8c; stroke-width: 4; stroke-linecap: round"/>
   </g>
   <g id="line2d_10">
    <path d="M 20.793753 64.072782 
" clip-path="url(#p08c7eb0c48)" style="fill: none; stroke: #6f6f6f; stroke-width: 1.2; stroke-linecap: round"/>
    <defs>
     <path id="m715ac74f49" d="M 0 0.833333 
C 0.221003 0.833333 0.432983 0.745528 0.589256 0.589256 
C 0.745528 0.432983 0.833333 0.221003 0.833333 0 
C 0.833333 -0.221003 0.745528 -0.432983 0.589256 -0.589256 
C 0.432983 -0.745528 0.221003 -0.833333 0 -0.833333 
C -0.221003 -0.833333 -0.432983 -0.745528 -0.589256 -0.589256 
C -0.745528 -0.432983 -0.833333 -0.221003 -0.833333 0 
C -0.833333 0.221003 -0.745528 0.432983 -0.589256 0.589256 
C -0.432983 0.745528 -0.221003 0.833333 0 0.833333 
z
" style="stroke: #ffffff; stroke-width: 0.8"/>
    </defs>
    <g clip-path="url(#p08c7eb0c48)">
     <use xlink:href="#m715ac74f49" x="20.793753" y="64.072782" style="fill: #ffffff; stroke: #ffffff; stroke-width: 0.8"/>
    </g>
   </g>
   <g id="line2d_11">
    <path d="M 42.371091 65.993267 
L 42.371091 62.53638 
" clip-path="url(#p08c7eb0c48)" style="fill: none; stroke: #8c8c8c; stroke-width: 0.75; stroke-linecap: round"/>
   </g>
   <g id="line2d_12">
    <path d="M 42.371091 65.355335 
L 42.371091 63.970161 
" clip-path="url(#p08c7eb0c48)" style="fill: none; stroke: #8c8c8c; stroke-width: 4; stroke-linecap: round"/>
   </g>
   <g id="line2d_13">
    <path d="M 42.371091 64.819702 
" clip-path="url(#p08c7eb0c48)" style="fill: none; stroke: #6f6f6f; stroke-width: 1.2; stroke-linecap: round"/>
    <g clip-path="url(#p08c7eb0c48)">
     <use xlink:href="#m715ac74f49" x="42.371091" y="64.819702" style="fill: #ffffff; stroke: #ffffff; stroke-width: 0.8"/>
    </g>
   </g>
   <g id="patch_3">
    <path d="M 10.005084 74.419526 
L 10.005084 4.076256 
" style="fill: none; stroke: #777777; stroke-width: 0.5; stroke-linejoin: miter; stroke-linecap: square"/>
   </g>
   <g id="patch_4">
    <path d="M 10.005084 76.919526 
L 53.15976 76.919526 
" style="fill: none; stroke: #777777; stroke-width: 0.5; stroke-linejoin: miter; stroke-linecap: square"/>
   </g>
  </g>
 </g>
 <defs>
  <clipPath id="p08c7eb0c48">
   <rect x="10.005084" y="4.076256" width="43.154676" height="70.34327"/>
  </clipPath>
 </defs>
</svg>
