<?xml version="1.0" encoding="utf-8" standalone="no"?>
<!DOCTYPE svg PUBLIC "-//W3C//DTD SVG 1.1//EN"
  "http://www.w3.org/Graphics/SVG/1.1/DTD/svg11.dtd">
<svg xmlns:xlink="http://www.w3.org/1999/xlink" width="56.16pt" height="84.96pt" viewBox="0 0 56.16 84.96" xmlns="http://www.w3.org/2000/svg" version="1.1">
 <metadata>
  <rdf:RDF xmlns:dc="http://purl.org/dc/elements/1.1/" xmlns:cc="http://creativecommons.org/ns#" xmlns:rdf="http://www.w3.org/1999/02/22-rdf-syntax-ns#">
   <cc:Work>
    <dc:type rdf:resource="http://purl.org/dc/dcmitype/StillImage"/>
    <dc:date>2024-05-27T15:37:13.177310</dc:date>
    <dc:format>image/svg+xml</dc:format>
    <dc:creator>
     <cc:Agent>
      <dc:title>Matplotlib v3.8.3, https://matplotlib.org/</dc:title>
     </cc:Agent>
    </dc:creator>
   </cc:Work>
  </rdf:RDF>
 </metadata>
 <defs>
  <style type="text/css">*{stroke-linejoin: round; stroke-linecap: butt}</style>
 </defs>
 <g id="figure_1">
  <g id="patch_1">
   <path d="M 0 84.96 
L 56.16 84.96 
L 56.16 0 
L 0 0 
z
" style="fill: #ffffff"/>
  </g>
  <g id="axes_1">
   <g id="patch_2">
    <path d="M 8.336802 74.419526 
L 53.15976 74.419526 
L 53.15976 4.076256 
L 8.336802 4.076256 
z
" style="fill: #ffffff"/>
   </g>
   <g id="matplotlib.axis_1">
    <g id="xtick_1">
     <g id="text_1">
      <!-- T -->
      <g style="fill: #333333" transform="translate(18.473675 81.230229) scale(0.035 -0.035)">
       <defs>
        <path id="Helvetica-54" d="M 3828 4591 
L 3828 4044 
L 2281 4044 
L 2281 0 
L 1650 0 
L 1650 4044 
L 103 4044 
L 103 4591 
L 3828 4591 
z
" transform="scale(0.015625)"/>
       </defs>
       <use xlink:href="#Helvetica-54"/>
      </g>
     </g>
    </g>
    <g id="xtick_2">
     <g id="text_2">
      <!-- IL7R Non T -->
      <g style="fill: #333333" transform="translate(33.006325 81.230229) scale(0.035 -0.035)">
       <defs>
        <path id="Helvetica-49" d="M 628 4591 
L 1256 4591 
L 1256 0 
L 628 0 
L 628 4591 
z
" transform="scale(0.015625)"/>
        <path id="Helvetica-4c" d="M 488 4591 
L 1109 4591 
L 1109 547 
L 3434 547 
L 3434 0 
L 488 0 
L 488 4591 
z
" transform="scale(0.015625)"/>
        <path id="Helvetica-37" d="M 3347 4400 
L 3347 3909 
Q 3131 3700 2773 3181 
Q 2416 2663 2141 2063 
Q 1869 1478 1728 997 
Q 1638 688 1494 0 
L 872 0 
Q 1084 1281 1809 2550 
Q 2238 3294 2709 3834 
L 234 3834 
L 234 4400 
L 3347 4400 
z
" transform="scale(0.015625)"/>
        <path id="Helvetica-52" d="M 2622 2488 
Q 3059 2488 3314 2663 
Q 3569 2838 3569 3294 
Q 3569 3784 3213 3963 
Q 3022 4056 2703 4056 
L 1184 4056 
L 1184 2488 
L 2622 2488 
z
M 563 4591 
L 2688 4591 
Q 3213 4591 3553 4438 
Q 4200 4144 4200 3353 
Q 4200 2941 4029 2678 
Q 3859 2416 3553 2256 
Q 3822 2147 3958 1969 
Q 4094 1791 4109 1391 
L 4131 775 
Q 4141 513 4175 384 
Q 4231 166 4375 103 
L 4375 0 
L 3613 0 
Q 3581 59 3562 153 
Q 3544 247 3531 516 
L 3494 1281 
Q 3472 1731 3159 1884 
Q 2981 1969 2600 1969 
L 1184 1969 
L 1184 0 
L 563 0 
L 563 4591 
z
" transform="scale(0.015625)"/>
        <path id="Helvetica-20" transform="scale(0.015625)"/>
        <path id="Helvetica-4e" d="M 488 4591 
L 1222 4591 
L 3541 872 
L 3541 4591 
L 4131 4591 
L 4131 0 
L 3434 0 
L 1081 3716 
L 1081 0 
L 488 0 
L 488 4591 
z
M 2269 4591 
L 2269 4591 
z
" transform="scale(0.015625)"/>
        <path id="Helvetica-6f" d="M 1741 363 
Q 2300 363 2508 786 
Q 2716 1209 2716 1728 
Q 2716 2197 2566 2491 
Q 2328 2953 1747 2953 
Q 1231 2953 997 2559 
Q 763 2166 763 1609 
Q 763 1075 997 719 
Q 1231 363 1741 363 
z
M 1763 3444 
Q 2409 3444 2856 3012 
Q 3303 2581 3303 1744 
Q 3303 934 2909 406 
Q 2516 -122 1688 -122 
Q 997 -122 590 345 
Q 184 813 184 1600 
Q 184 2444 612 2944 
Q 1041 3444 1763 3444 
z
M 1744 3428 
L 1744 3428 
z
" transform="scale(0.015625)"/>
        <path id="Helvetica-6e" d="M 413 3347 
L 947 3347 
L 947 2872 
Q 1184 3166 1450 3294 
Q 1716 3422 2041 3422 
Q 2753 3422 3003 2925 
Q 3141 2653 3141 2147 
L 3141 0 
L 2569 0 
L 2569 2109 
Q 2569 2416 2478 2603 
Q 2328 2916 1934 2916 
Q 1734 2916 1606 2875 
Q 1375 2806 1200 2600 
Q 1059 2434 1017 2257 
Q 975 2081 975 1753 
L 975 0 
L 413 0 
L 413 3347 
z
M 1734 3428 
L 1734 3428 
z
" transform="scale(0.015625)"/>
       </defs>
       <use xlink:href="#Helvetica-49"/>
       <use xlink:href="#Helvetica-4c" x="27.783203"/>
       <use xlink:href="#Helvetica-37" x="83.398438"/>
       <use xlink:href="#Helvetica-52" x="139.013672"/>
       <use xlink:href="#Helvetica-20" x="211.230469"/>
       <use xlink:href="#Helvetica-4e" x="239.013672"/>
       <use xlink:href="#Helvetica-6f" x="311.230469"/>
       <use xlink:href="#Helvetica-6e" x="366.845703"/>
       <use xlink:href="#Helvetica-20" x="422.460938"/>
       <use xlink:href="#Helvetica-54" x="450.244141"/>
      </g>
     </g>
    </g>
   </g>
   <g id="matplotlib.axis_2">
    <g id="ytick_1">
     <g id="line2d_1">
      <defs>
       <path id="ma760acfaf7" d="M 0 0 
L -1 0 
" style="stroke: #777777; stroke-width: 0.5"/>
      </defs>
      <g>
       <use xlink:href="#ma760acfaf7" x="8.336802" y="66.673159" style="fill: #777777; stroke: #777777; stroke-width: 0.5"/>
      </g>
     </g>
     <g id="text_3">
      <!-- 0 -->
      <g style="fill: #333333" transform="translate(4.668521 67.749174) scale(0.03 -0.03)">
       <defs>
        <path id="Helvetica-30" d="M 1731 4475 
Q 2600 4475 2988 3759 
Q 3288 3206 3288 2244 
Q 3288 1331 3016 734 
Q 2622 -122 1728 -122 
Q 922 -122 528 578 
Q 200 1163 200 2147 
Q 200 2909 397 3456 
Q 766 4475 1731 4475 
z
M 1725 391 
Q 2163 391 2422 778 
Q 2681 1166 2681 2222 
Q 2681 2984 2493 3476 
Q 2306 3969 1766 3969 
Q 1269 3969 1039 3501 
Q 809 3034 809 2125 
Q 809 1441 956 1025 
Q 1181 391 1725 391 
z
" transform="scale(0.015625)"/>
       </defs>
       <use xlink:href="#Helvetica-30"/>
      </g>
     </g>
    </g>
    <g id="ytick_2">
     <g id="line2d_2">
      <g>
       <use xlink:href="#ma760acfaf7" x="8.336802" y="58.848546" style="fill: #777777; stroke: #777777; stroke-width: 0.5"/>
      </g>
     </g>
     <g id="text_4">
      <!-- 10 -->
      <g style="fill: #333333" transform="translate(3.00024 59.924562) scale(0.03 -0.03)">
       <defs>
        <path id="Helvetica-31" d="M 613 3169 
L 613 3600 
Q 1222 3659 1462 3798 
Q 1703 3938 1822 4456 
L 2266 4456 
L 2266 0 
L 1666 0 
L 1666 3169 
L 613 3169 
z
" transform="scale(0.015625)"/>
       </defs>
       <use xlink:href="#Helvetica-31"/>
       <use xlink:href="#Helvetica-30" x="55.615234"/>
      </g>
     </g>
    </g>
    <g id="ytick_3">
     <g id="line2d_3">
      <g>
       <use xlink:href="#ma760acfaf7" x="8.336802" y="51.023933" style="fill: #777777; stroke: #777777; stroke-width: 0.5"/>
      </g>
     </g>
     <g id="text_5">
      <!-- 20 -->
      <g style="fill: #333333" transform="translate(3.00024 52.099949) scale(0.03 -0.03)">
       <defs>
        <path id="Helvetica-32" d="M 200 0 
Q 231 578 439 1006 
Q 647 1434 1250 1784 
L 1850 2131 
Q 2253 2366 2416 2531 
Q 2672 2791 2672 3125 
Q 2672 3516 2437 3745 
Q 2203 3975 1813 3975 
Q 1234 3975 1013 3538 
Q 894 3303 881 2888 
L 309 2888 
Q 319 3472 525 3841 
Q 891 4491 1816 4491 
Q 2584 4491 2939 4075 
Q 3294 3659 3294 3150 
Q 3294 2613 2916 2231 
Q 2697 2009 2131 1694 
L 1703 1456 
Q 1397 1288 1222 1134 
Q 909 863 828 531 
L 3272 531 
L 3272 0 
L 200 0 
z
" transform="scale(0.015625)"/>
       </defs>
       <use xlink:href="#Helvetica-32"/>
       <use xlink:href="#Helvetica-30" x="55.615234"/>
      </g>
     </g>
    </g>
    <g id="ytick_4">
     <g id="line2d_4">
      <g>
       <use xlink:href="#ma760acfaf7" x="8.336802" y="43.19932" style="fill: #777777; stroke: #777777; stroke-width: 0.5"/>
      </g>
     </g>
     <g id="text_6">
      <!-- 30 -->
      <g style="fill: #333333" transform="translate(3.00024 44.275336) scale(0.03 -0.03)">
       <defs>
        <path id="Helvetica-33" d="M 1663 -122 
Q 869 -122 511 314 
Q 153 750 153 1375 
L 741 1375 
Q 778 941 903 744 
Q 1122 391 1694 391 
Q 2138 391 2406 628 
Q 2675 866 2675 1241 
Q 2675 1703 2392 1887 
Q 2109 2072 1606 2072 
Q 1550 2072 1492 2070 
Q 1434 2069 1375 2066 
L 1375 2563 
Q 1463 2553 1522 2550 
Q 1581 2547 1650 2547 
Q 1966 2547 2169 2647 
Q 2525 2822 2525 3272 
Q 2525 3606 2287 3787 
Q 2050 3969 1734 3969 
Q 1172 3969 956 3594 
Q 838 3388 822 3006 
L 266 3006 
Q 266 3506 466 3856 
Q 809 4481 1675 4481 
Q 2359 4481 2734 4176 
Q 3109 3872 3109 3294 
Q 3109 2881 2888 2625 
Q 2750 2466 2531 2375 
Q 2884 2278 3082 2001 
Q 3281 1725 3281 1325 
Q 3281 684 2859 281 
Q 2438 -122 1663 -122 
z
" transform="scale(0.015625)"/>
       </defs>
       <use xlink:href="#Helvetica-33"/>
       <use xlink:href="#Helvetica-30" x="55.615234"/>
      </g>
     </g>
    </g>
    <g id="ytick_5">
     <g id="line2d_5">
      <g>
       <use xlink:href="#ma760acfaf7" x="8.336802" y="35.374707" style="fill: #777777; stroke: #777777; stroke-width: 0.5"/>
      </g>
     </g>
     <g id="text_7">
      <!-- 40 -->
      <g style="fill: #333333" transform="translate(3.00024 36.450723) scale(0.03 -0.03)">
       <defs>
        <path id="Helvetica-34" d="M 2116 1584 
L 2116 3613 
L 681 1584 
L 2116 1584 
z
M 2125 0 
L 2125 1094 
L 163 1094 
L 163 1644 
L 2213 4488 
L 2688 4488 
L 2688 1584 
L 3347 1584 
L 3347 1094 
L 2688 1094 
L 2688 0 
L 2125 0 
z
" transform="scale(0.015625)"/>
       </defs>
       <use xlink:href="#Helvetica-34"/>
       <use xlink:href="#Helvetica-30" x="55.615234"/>
      </g>
     </g>
    </g>
    <g id="ytick_6">
     <g id="line2d_6">
      <g>
       <use xlink:href="#ma760acfaf7" x="8.336802" y="27.550094" style="fill: #777777; stroke: #777777; stroke-width: 0.5"/>
      </g>
     </g>
     <g id="text_8">
      <!-- 50 -->
      <g style="fill: #333333" transform="translate(3.00024 28.62611) scale(0.03 -0.03)">
       <defs>
        <path id="Helvetica-35" d="M 791 1141 
Q 847 659 1238 475 
Q 1438 381 1700 381 
Q 2200 381 2440 700 
Q 2681 1019 2681 1406 
Q 2681 1875 2395 2131 
Q 2109 2388 1709 2388 
Q 1419 2388 1211 2275 
Q 1003 2163 856 1963 
L 369 1991 
L 709 4400 
L 3034 4400 
L 3034 3856 
L 1131 3856 
L 941 2613 
Q 1097 2731 1238 2791 
Q 1488 2894 1816 2894 
Q 2431 2894 2859 2497 
Q 3288 2100 3288 1491 
Q 3288 856 2895 371 
Q 2503 -113 1644 -113 
Q 1097 -113 676 195 
Q 256 503 206 1141 
L 791 1141 
z
" transform="scale(0.015625)"/>
       </defs>
       <use xlink:href="#Helvetica-35"/>
       <use xlink:href="#Helvetica-30" x="55.615234"/>
      </g>
     </g>
    </g>
    <g id="ytick_7">
     <g id="line2d_7">
      <g>
       <use xlink:href="#ma760acfaf7" x="8.336802" y="19.725481" style="fill: #777777; stroke: #777777; stroke-width: 0.5"/>
      </g>
     </g>
     <g id="text_9">
      <!-- 60 -->
      <g style="fill: #333333" transform="translate(3.00024 20.801497) scale(0.03 -0.03)">
       <defs>
        <path id="Helvetica-36" d="M 1872 4494 
Q 2622 4494 2917 4105 
Q 3213 3716 3213 3303 
L 2656 3303 
Q 2606 3569 2497 3719 
Q 2294 4000 1881 4000 
Q 1409 4000 1131 3564 
Q 853 3128 822 2316 
Q 1016 2600 1309 2741 
Q 1578 2866 1909 2866 
Q 2472 2866 2890 2506 
Q 3309 2147 3309 1434 
Q 3309 825 2912 354 
Q 2516 -116 1781 -116 
Q 1153 -116 697 361 
Q 241 838 241 1966 
Q 241 2800 444 3381 
Q 834 4494 1872 4494 
z
M 1831 384 
Q 2275 384 2495 682 
Q 2716 981 2716 1388 
Q 2716 1731 2519 2042 
Q 2322 2353 1803 2353 
Q 1441 2353 1167 2112 
Q 894 1872 894 1388 
Q 894 963 1142 673 
Q 1391 384 1831 384 
z
" transform="scale(0.015625)"/>
       </defs>
       <use xlink:href="#Helvetica-36"/>
       <use xlink:href="#Helvetica-30" x="55.615234"/>
      </g>
     </g>
    </g>
    <g id="ytick_8">
     <g id="line2d_8">
      <g>
       <use xlink:href="#ma760acfaf7" x="8.336802" y="11.900869" style="fill: #777777; stroke: #777777; stroke-width: 0.5"/>
      </g>
     </g>
     <g id="text_10">
      <!-- 70 -->
      <g style="fill: #333333" transform="translate(3.00024 12.976884) scale(0.03 -0.03)">
       <use xlink:href="#Helvetica-37"/>
       <use xlink:href="#Helvetica-30" x="55.615234"/>
      </g>
     </g>
    </g>
    <g id="ytick_9">
     <g id="line2d_9">
      <g>
       <use xlink:href="#ma760acfaf7" x="8.336802" y="4.076256" style="fill: #777777; stroke: #777777; stroke-width: 0.5"/>
      </g>
     </g>
     <g id="text_11">
      <!-- 80 -->
      <g style="fill: #333333" transform="translate(3.00024 5.152271) scale(0.03 -0.03)">
       <defs>
        <path id="Helvetica-38" d="M 1741 2600 
Q 2113 2600 2322 2808 
Q 2531 3016 2531 3303 
Q 2531 3553 2331 3762 
Q 2131 3972 1722 3972 
Q 1316 3972 1134 3762 
Q 953 3553 953 3272 
Q 953 2956 1187 2778 
Q 1422 2600 1741 2600 
z
M 1775 384 
Q 2166 384 2423 595 
Q 2681 806 2681 1225 
Q 2681 1659 2415 1884 
Q 2150 2109 1734 2109 
Q 1331 2109 1076 1879 
Q 822 1650 822 1244 
Q 822 894 1055 639 
Q 1288 384 1775 384 
z
M 975 2384 
Q 741 2484 609 2619 
Q 363 2869 363 3269 
Q 363 3769 725 4128 
Q 1088 4488 1753 4488 
Q 2397 4488 2762 4148 
Q 3128 3809 3128 3356 
Q 3128 2938 2916 2678 
Q 2797 2531 2547 2391 
Q 2825 2263 2984 2097 
Q 3281 1784 3281 1284 
Q 3281 694 2884 283 
Q 2488 -128 1763 -128 
Q 1109 -128 657 226 
Q 206 581 206 1256 
Q 206 1653 400 1942 
Q 594 2231 975 2384 
z
" transform="scale(0.015625)"/>
       </defs>
       <use xlink:href="#Helvetica-38"/>
       <use xlink:href="#Helvetica-30" x="55.615234"/>
      </g>
     </g>
    </g>
   </g>
   <g id="PolyCollection_1">
    <defs>
     <path id="m107d78e1eb" d="M 21.622472 -18.87102 
L 17.462612 -18.87102 
L 17.092141 -19.161271 
L 16.688709 -19.451522 
L 16.256321 -19.741773 
L 15.800339 -20.032025 
L 15.327341 -20.322276 
L 14.844872 -20.612527 
L 14.361125 -20.902778 
L 13.884548 -21.193029 
L 13.423421 -21.48328 
L 12.985431 -21.773531 
L 12.577286 -22.063782 
L 12.204392 -22.354033 
L 11.870636 -22.644284 
L 11.578286 -22.934536 
L 11.328015 -23.224787 
L 11.119044 -23.515038 
L 10.949388 -23.805289 
L 10.816176 -24.09554 
L 10.716009 -24.385791 
L 10.645315 -24.676042 
L 10.600665 -24.966293 
L 10.579032 -25.256544 
L 10.57795 -25.546795 
L 10.595581 -25.837047 
L 10.630679 -26.127298 
L 10.682478 -26.417549 
L 10.750503 -26.7078 
L 10.834352 -26.998051 
L 10.933456 -27.288302 
L 11.046871 -27.578553 
L 11.173096 -27.868804 
L 11.309966 -28.159055 
L 11.454609 -28.449306 
L 11.603495 -28.739558 
L 11.752562 -29.029809 
L 11.897415 -29.32006 
L 12.033595 -29.610311 
L 12.156885 -29.900562 
L 12.263645 -30.190813 
L 12.351142 -30.481064 
L 12.417852 -30.771315 
L 12.463699 -31.061566 
L 12.490215 -31.351817 
L 12.500598 -31.642068 
L 12.499645 -31.93232 
L 12.493562 -32.222571 
L 12.489657 -32.512822 
L 12.495927 -32.803073 
L 12.52057 -33.093324 
L 12.571449 -33.383575 
L 12.655564 -33.673826 
L 12.778555 -33.964077 
L 12.944295 -34.254328 
L 13.154593 -34.544579 
L 13.409035 -34.834831 
L 13.704975 -35.125082 
L 14.037675 -35.415333 
L 14.400567 -35.705584 
L 14.785632 -35.995835 
L 15.18384 -36.286086 
L 15.585625 -36.576337 
L 15.981361 -36.866588 
L 16.361798 -37.156839 
L 16.718439 -37.44709 
L 17.043836 -37.737342 
L 17.331806 -38.027593 
L 17.577563 -38.317844 
L 17.777772 -38.608095 
L 17.930551 -38.898346 
L 18.035423 -39.188597 
L 18.093243 -39.478848 
L 18.106105 -39.769099 
L 18.077242 -40.05935 
L 18.010922 -40.349601 
L 17.912334 -40.639852 
L 17.787462 -40.930104 
L 17.642947 -41.220355 
L 17.485914 -41.510606 
L 17.323778 -41.800857 
L 17.164018 -42.091108 
L 17.013927 -42.381359 
L 16.880343 -42.67161 
L 16.769386 -42.961861 
L 16.686203 -43.252112 
L 16.634755 -43.542363 
L 16.61765 -43.832615 
L 16.636047 -44.122866 
L 16.689637 -44.413117 
L 16.776704 -44.703368 
L 16.894263 -44.993619 
L 17.038265 -45.28387 
L 17.203855 -45.574121 
L 17.385663 -45.864372 
L 17.578102 -46.154623 
L 17.775658 -46.444874 
L 17.97315 -46.735126 
L 18.165942 -47.025377 
L 18.350104 -47.315628 
L 18.522507 -47.605879 
L 20.562577 -47.605879 
L 20.562577 -47.605879 
L 20.73498 -47.315628 
L 20.919142 -47.025377 
L 21.111934 -46.735126 
L 21.309426 -46.444874 
L 21.506982 -46.154623 
L 21.699421 -45.864372 
L 21.881229 -45.574121 
L 22.046819 -45.28387 
L 22.190821 -44.993619 
L 22.308379 -44.703368 
L 22.395447 -44.413117 
L 22.449037 -44.122866 
L 22.467434 -43.832615 
L 22.450329 -43.542363 
L 22.398881 -43.252112 
L 22.315698 -42.961861 
L 22.204741 -42.67161 
L 22.071157 -42.381359 
L 21.921066 -42.091108 
L 21.761306 -41.800857 
L 21.59917 -41.510606 
L 21.442137 -41.220355 
L 21.297622 -40.930104 
L 21.17275 -40.639852 
L 21.074162 -40.349601 
L 21.007841 -40.05935 
L 20.978979 -39.769099 
L 20.991841 -39.478848 
L 21.049661 -39.188597 
L 21.154533 -38.898346 
L 21.307312 -38.608095 
L 21.507521 -38.317844 
L 21.753278 -38.027593 
L 22.041248 -37.737342 
L 22.366645 -37.44709 
L 22.723286 -37.156839 
L 23.103723 -36.866588 
L 23.499459 -36.576337 
L 23.901244 -36.286086 
L 24.299452 -35.995835 
L 24.684517 -35.705584 
L 25.047409 -35.415333 
L 25.380108 -35.125082 
L 25.676049 -34.834831 
L 25.93049 -34.544579 
L 26.140788 -34.254328 
L 26.306529 -33.964077 
L 26.42952 -33.673826 
L 26.513635 -33.383575 
L 26.564514 -33.093324 
L 26.589157 -32.803073 
L 26.595427 -32.512822 
L 26.591522 -32.222571 
L 26.585439 -31.93232 
L 26.584485 -31.642068 
L 26.594869 -31.351817 
L 26.621385 -31.061566 
L 26.667232 -30.771315 
L 26.733942 -30.481064 
L 26.821439 -30.190813 
L 26.928199 -29.900562 
L 27.051489 -29.610311 
L 27.187668 -29.32006 
L 27.332522 -29.029809 
L 27.481589 -28.739558 
L 27.630475 -28.449306 
L 27.775118 -28.159055 
L 27.911987 -27.868804 
L 28.038213 -27.578553 
L 28.151628 -27.288302 
L 28.250732 -26.998051 
L 28.33458 -26.7078 
L 28.402606 -26.417549 
L 28.454405 -26.127298 
L 28.489503 -25.837047 
L 28.507133 -25.546795 
L 28.506052 -25.256544 
L 28.484419 -24.966293 
L 28.439769 -24.676042 
L 28.369074 -24.385791 
L 28.268908 -24.09554 
L 28.135696 -23.805289 
L 27.96604 -23.515038 
L 27.757068 -23.224787 
L 27.506797 -22.934536 
L 27.214448 -22.644284 
L 26.880692 -22.354033 
L 26.507798 -22.063782 
L 26.099652 -21.773531 
L 25.661663 -21.48328 
L 25.200536 -21.193029 
L 24.723959 -20.902778 
L 24.240212 -20.612527 
L 23.757743 -20.322276 
L 23.284745 -20.032025 
L 22.828763 -19.741773 
L 22.396375 -19.451522 
L 21.992943 -19.161271 
L 21.622472 -18.87102 
z
" style="stroke: #525252; stroke-width: 0.15"/>
    </defs>
    <g clip-path="url(#p41362383ab)">
     <use xlink:href="#m107d78e1eb" x="0" y="84.96" style="fill: #bbba94; stroke: #525252; stroke-width: 0.15"/>
    </g>
   </g>
   <g id="PolyCollection_2">
    <defs>
     <path id="m924ed9abe5" d="M 43.781787 -16.903828 
L 40.126254 -16.903828 
L 39.756231 -17.029503 
L 39.342352 -17.155177 
L 38.886931 -17.280851 
L 38.394254 -17.406525 
L 37.870679 -17.5322 
L 37.324632 -17.657874 
L 36.766459 -17.783548 
L 36.208134 -17.909222 
L 35.662818 -18.034897 
L 35.144284 -18.160571 
L 34.666245 -18.286245 
L 34.241605 -18.411919 
L 33.881696 -18.537594 
L 33.595555 -18.663268 
L 33.389289 -18.788942 
L 33.265597 -18.914616 
L 33.22347 -19.040291 
L 33.258128 -19.165965 
L 33.361189 -19.291639 
L 33.521071 -19.417313 
L 33.723609 -19.542988 
L 33.952853 -19.668662 
L 34.191972 -19.794336 
L 34.42423 -19.92001 
L 34.633949 -20.045685 
L 34.807395 -20.171359 
L 34.933539 -20.297033 
L 35.004625 -20.422707 
L 35.016538 -20.548381 
L 34.968924 -20.674056 
L 34.865083 -20.79973 
L 34.711644 -20.925404 
L 34.518049 -21.051078 
L 34.295886 -21.176753 
L 34.058133 -21.302427 
L 33.818351 -21.428101 
L 33.5899 -21.553775 
L 33.385205 -21.67945 
L 33.21514 -21.805124 
L 33.088558 -21.930798 
L 33.011972 -22.056472 
L 32.989429 -22.182147 
L 33.022538 -22.307821 
L 33.110659 -22.433495 
L 33.251215 -22.559169 
L 33.44009 -22.684844 
L 33.672079 -22.810518 
L 33.941331 -22.936192 
L 34.241779 -23.061866 
L 34.567486 -23.187541 
L 34.912912 -23.313215 
L 35.273084 -23.438889 
L 35.643659 -23.564563 
L 36.020901 -23.690238 
L 36.401585 -23.815912 
L 36.782851 -23.941586 
L 37.16204 -24.06726 
L 37.536531 -24.192935 
L 37.903603 -24.318609 
L 38.26034 -24.444283 
L 38.60359 -24.569957 
L 38.929971 -24.695631 
L 39.235935 -24.821306 
L 39.517868 -24.94698 
L 39.772222 -25.072654 
L 39.995666 -25.198328 
L 40.185239 -25.324003 
L 40.338506 -25.449677 
L 40.453698 -25.575351 
L 40.529831 -25.701025 
L 40.566811 -25.8267 
L 40.565511 -25.952374 
L 40.527817 -26.078048 
L 40.456649 -26.203722 
L 40.355938 -26.329397 
L 40.230572 -26.455071 
L 40.086288 -26.580745 
L 39.929525 -26.706419 
L 39.767221 -26.832094 
L 39.606579 -26.957768 
L 39.454782 -27.083442 
L 39.318702 -27.209116 
L 39.204597 -27.334791 
L 39.117819 -27.460465 
L 39.062571 -27.586139 
L 39.041707 -27.711813 
L 39.05661 -27.837488 
L 39.107156 -27.963162 
L 39.191761 -28.088836 
L 39.307511 -28.21451 
L 39.45037 -28.340185 
L 39.615445 -28.465859 
L 39.797283 -28.591533 
L 39.990185 -28.717207 
L 40.188509 -28.842881 
L 40.386942 -28.968556 
L 40.580725 -29.09423 
L 40.765824 -29.219904 
L 40.939027 -29.345578 
L 42.969014 -29.345578 
L 42.969014 -29.345578 
L 43.142217 -29.219904 
L 43.327316 -29.09423 
L 43.5211 -28.968556 
L 43.719532 -28.842881 
L 43.917856 -28.717207 
L 44.110758 -28.591533 
L 44.292596 -28.465859 
L 44.457671 -28.340185 
L 44.600531 -28.21451 
L 44.71628 -28.088836 
L 44.800885 -27.963162 
L 44.851431 -27.837488 
L 44.866335 -27.711813 
L 44.84547 -27.586139 
L 44.790222 -27.460465 
L 44.703444 -27.334791 
L 44.589339 -27.209116 
L 44.453259 -27.083442 
L 44.301462 -26.957768 
L 44.14082 -26.832094 
L 43.978517 -26.706419 
L 43.821753 -26.580745 
L 43.67747 -26.455071 
L 43.552103 -26.329397 
L 43.451393 -26.203722 
L 43.380224 -26.078048 
L 43.34253 -25.952374 
L 43.34123 -25.8267 
L 43.378211 -25.701025 
L 43.454343 -25.575351 
L 43.569535 -25.449677 
L 43.722803 -25.324003 
L 43.912376 -25.198328 
L 44.135819 -25.072654 
L 44.390173 -24.94698 
L 44.672106 -24.821306 
L 44.97807 -24.695631 
L 45.304451 -24.569957 
L 45.647701 -24.444283 
L 46.004438 -24.318609 
L 46.37151 -24.192935 
L 46.746001 -24.06726 
L 47.125191 -23.941586 
L 47.506456 -23.815912 
L 47.88714 -23.690238 
L 48.264382 -23.564563 
L 48.634957 -23.438889 
L 48.995129 -23.313215 
L 49.340555 -23.187541 
L 49.666262 -23.061866 
L 49.96671 -22.936192 
L 50.235963 -22.810518 
L 50.467951 -22.684844 
L 50.656827 -22.559169 
L 50.797383 -22.433495 
L 50.885503 -22.307821 
L 50.918612 -22.182147 
L 50.896069 -22.056472 
L 50.819484 -21.930798 
L 50.692901 -21.805124 
L 50.522837 -21.67945 
L 50.318141 -21.553775 
L 50.08969 -21.428101 
L 49.849909 -21.302427 
L 49.612155 -21.176753 
L 49.389992 -21.051078 
L 49.196397 -20.925404 
L 49.042958 -20.79973 
L 48.939118 -20.674056 
L 48.891503 -20.548381 
L 48.903416 -20.422707 
L 48.974503 -20.297033 
L 49.100646 -20.171359 
L 49.274092 -20.045685 
L 49.483811 -19.92001 
L 49.71607 -19.794336 
L 49.955188 -19.668662 
L 50.184432 -19.542988 
L 50.386971 -19.417313 
L 50.546852 -19.291639 
L 50.649913 -19.165965 
L 50.684571 -19.040291 
L 50.642445 -18.914616 
L 50.518752 -18.788942 
L 50.312487 -18.663268 
L 50.026345 -18.537594 
L 49.666436 -18.411919 
L 49.241796 -18.286245 
L 48.763757 -18.160571 
L 48.245224 -18.034897 
L 47.699907 -17.909222 
L 47.141582 -17.783548 
L 46.58341 -17.657874 
L 46.037363 -17.5322 
L 45.513788 -17.406525 
L 45.02111 -17.280851 
L 44.56569 -17.155177 
L 44.15181 -17.029503 
L 43.781787 -16.903828 
z
" style="stroke: #525252; stroke-width: 0.15"/>
    </defs>
    <g clip-path="url(#p41362383ab)">
     <use xlink:href="#m924ed9abe5" x="0" y="84.96" style="fill: #977c7f; stroke: #525252; stroke-width: 0.15"/>
    </g>
   </g>
   <g id="line2d_10">
    <path d="M 19.542542 62.331999 
L 19.542542 41.111102 
" clip-path="url(#p41362383ab)" style="fill: none; stroke: #8c8c8c; stroke-width: 0.75; stroke-linecap: round"/>
   </g>
   <g id="line2d_11">
    <path d="M 19.542542 59.786962 
L 19.542542 50.986801 
" clip-path="url(#p41362383ab)" style="fill: none; stroke: #8c8c8c; stroke-width: 4; stroke-linecap: round"/>
   </g>
   <g id="line2d_12">
    <path d="M 19.542542 56.270702 
" clip-path="url(#p41362383ab)" style="fill: none; stroke: #525252; stroke-width: 1.2; stroke-linecap: round"/>
    <defs>
     <path id="mbce35452f5" d="M 0 0.833333 
C 0.221003 0.833333 0.432983 0.745528 0.589256 0.589256 
C 0.745528 0.432983 0.833333 0.221003 0.833333 0 
C 0.833333 -0.221003 0.745528 -0.432983 0.589256 -0.589256 
C 0.432983 -0.745528 0.221003 -0.833333 0 -0.833333 
C -0.221003 -0.833333 -0.432983 -0.745528 -0.589256 -0.589256 
C -0.745528 -0.432983 -0.833333 -0.221003 -0.833333 0 
C -0.833333 0.221003 -0.745528 0.432983 -0.589256 0.589256 
C -0.432983 0.745528 -0.221003 0.833333 0 0.833333 
z
" style="stroke: #ffffff; stroke-width: 0.8"/>
    </defs>
    <g clip-path="url(#p41362383ab)">
     <use xlink:href="#mbce35452f5" x="19.542542" y="56.270702" style="fill: #ffffff; stroke: #ffffff; stroke-width: 0.8"/>
    </g>
   </g>
   <g id="line2d_13">
    <path d="M 41.954021 66.444386 
L 41.954021 57.226207 
" clip-path="url(#p41362383ab)" style="fill: none; stroke: #8c8c8c; stroke-width: 0.75; stroke-linecap: round"/>
   </g>
   <g id="line2d_14">
    <path d="M 41.954021 65.789063 
L 41.954021 62.049679 
" clip-path="url(#p41362383ab)" style="fill: none; stroke: #8c8c8c; stroke-width: 4; stroke-linecap: round"/>
   </g>
   <g id="line2d_15">
    <path d="M 41.954021 63.214793 
" clip-path="url(#p41362383ab)" style="fill: none; stroke: #525252; stroke-width: 1.2; stroke-linecap: round"/>
    <g clip-path="url(#p41362383ab)">
     <use xlink:href="#mbce35452f5" x="41.954021" y="63.214793" style="fill: #ffffff; stroke: #ffffff; stroke-width: 0.8"/>
    </g>
   </g>
   <g id="patch_3">
    <path d="M 8.336802 74.419526 
L 8.336802 4.076256 
" style="fill: none; stroke: #777777; stroke-width: 0.5; stroke-linejoin: miter; stroke-linecap: square"/>
   </g>
   <g id="patch_4">
    <path d="M 8.336802 76.919526 
L 53.15976 76.919526 
" style="fill: none; stroke: #777777; stroke-width: 0.5; stroke-linejoin: miter; stroke-linecap: square"/>
   </g>
  </g>
 </g>
 <defs>
  <clipPath id="p41362383ab">
   <rect x="8.336802" y="4.076256" width="44.822958" height="70.34327"/>
  </clipPath>
 </defs>
</svg>
