<?xml version="1.0" encoding="utf-8" standalone="no"?>
<!DOCTYPE svg PUBLIC "-//W3C//DTD SVG 1.1//EN"
  "http://www.w3.org/Graphics/SVG/1.1/DTD/svg11.dtd">
<svg xmlns:xlink="http://www.w3.org/1999/xlink" width="84.96pt" height="84.96pt" viewBox="0 0 84.96 84.96" xmlns="http://www.w3.org/2000/svg" version="1.1">
 <metadata>
  <rdf:RDF xmlns:dc="http://purl.org/dc/elements/1.1/" xmlns:cc="http://creativecommons.org/ns#" xmlns:rdf="http://www.w3.org/1999/02/22-rdf-syntax-ns#">
   <cc:Work>
    <dc:type rdf:resource="http://purl.org/dc/dcmitype/StillImage"/>
    <dc:date>2024-05-27T15:37:06.651859</dc:date>
    <dc:format>image/svg+xml</dc:format>
    <dc:creator>
     <cc:Agent>
      <dc:title>Matplotlib v3.8.3, https://matplotlib.org/</dc:title>
     </cc:Agent>
    </dc:creator>
   </cc:Work>
  </rdf:RDF>
 </metadata>
 <defs>
  <style type="text/css">*{stroke-linejoin: round; stroke-linecap: butt}</style>
 </defs>
 <g id="figure_1">
  <g id="patch_1">
   <path d="M 0 84.96 
L 84.96 84.96 
L 84.96 0 
L 0 0 
z
" style="fill: #ffffff"/>
  </g>
  <g id="axes_1">
   <g id="patch_2">
    <path d="M 8.336802 74.419526 
L 81.95976 74.419526 
L 81.95976 4.076256 
L 8.336802 4.076256 
z
" style="fill: #ffffff"/>
   </g>
   <g id="matplotlib.axis_1">
    <g id="xtick_1">
     <g id="text_1">
      <!-- NK/ILC1ie -->
      <g style="fill: #333333" transform="translate(12.63167 81.230229) scale(0.035 -0.035)">
       <defs>
        <path id="Helvetica-4e" d="M 488 4591 
L 1222 4591 
L 3541 872 
L 3541 4591 
L 4131 4591 
L 4131 0 
L 3434 0 
L 1081 3716 
L 1081 0 
L 488 0 
L 488 4591 
z
M 2269 4591 
L 2269 4591 
z
" transform="scale(0.015625)"/>
        <path id="Helvetica-4b" d="M 488 4591 
L 1094 4591 
L 1094 2353 
L 3331 4591 
L 4191 4591 
L 2281 2741 
L 4244 0 
L 3434 0 
L 1828 2303 
L 1094 1600 
L 1094 0 
L 488 0 
L 488 4591 
z
" transform="scale(0.015625)"/>
        <path id="Helvetica-2f" d="M 1456 4591 
L 1931 4591 
L 475 0 
L 0 0 
L 1456 4591 
z
" transform="scale(0.015625)"/>
        <path id="Helvetica-49" d="M 628 4591 
L 1256 4591 
L 1256 0 
L 628 0 
L 628 4591 
z
" transform="scale(0.015625)"/>
        <path id="Helvetica-4c" d="M 488 4591 
L 1109 4591 
L 1109 547 
L 3434 547 
L 3434 0 
L 488 0 
L 488 4591 
z
" transform="scale(0.015625)"/>
        <path id="Helvetica-43" d="M 2422 4716 
Q 3294 4716 3775 4256 
Q 4256 3797 4309 3213 
L 3703 3213 
Q 3600 3656 3292 3915 
Q 2984 4175 2428 4175 
Q 1750 4175 1333 3698 
Q 916 3222 916 2238 
Q 916 1431 1292 929 
Q 1669 428 2416 428 
Q 3103 428 3463 956 
Q 3653 1234 3747 1688 
L 4353 1688 
Q 4272 963 3816 472 
Q 3269 -119 2341 -119 
Q 1541 -119 997 366 
Q 281 1006 281 2344 
Q 281 3359 819 4009 
Q 1400 4716 2422 4716 
z
M 2297 4716 
L 2297 4716 
z
" transform="scale(0.015625)"/>
        <path id="Helvetica-31" d="M 613 3169 
L 613 3600 
Q 1222 3659 1462 3798 
Q 1703 3938 1822 4456 
L 2266 4456 
L 2266 0 
L 1666 0 
L 1666 3169 
L 613 3169 
z
" transform="scale(0.015625)"/>
        <path id="Helvetica-69" d="M 413 3331 
L 984 3331 
L 984 0 
L 413 0 
L 413 3331 
z
M 413 4591 
L 984 4591 
L 984 3953 
L 413 3953 
L 413 4591 
z
" transform="scale(0.015625)"/>
        <path id="Helvetica-65" d="M 1806 3422 
Q 2163 3422 2497 3255 
Q 2831 3088 3006 2822 
Q 3175 2569 3231 2231 
Q 3281 2000 3281 1494 
L 828 1494 
Q 844 984 1069 676 
Q 1294 369 1766 369 
Q 2206 369 2469 659 
Q 2619 828 2681 1050 
L 3234 1050 
Q 3213 866 3089 639 
Q 2966 413 2813 269 
Q 2556 19 2178 -69 
Q 1975 -119 1719 -119 
Q 1094 -119 659 336 
Q 225 791 225 1609 
Q 225 2416 662 2919 
Q 1100 3422 1806 3422 
z
M 2703 1941 
Q 2669 2306 2544 2525 
Q 2313 2931 1772 2931 
Q 1384 2931 1121 2651 
Q 859 2372 844 1941 
L 2703 1941 
z
M 1753 3428 
L 1753 3428 
z
" transform="scale(0.015625)"/>
       </defs>
       <use xlink:href="#Helvetica-4e"/>
       <use xlink:href="#Helvetica-4b" x="72.216797"/>
       <use xlink:href="#Helvetica-2f" x="138.916016"/>
       <use xlink:href="#Helvetica-49" x="166.699219"/>
       <use xlink:href="#Helvetica-4c" x="194.482422"/>
       <use xlink:href="#Helvetica-43" x="250.097656"/>
       <use xlink:href="#Helvetica-31" x="322.314453"/>
       <use xlink:href="#Helvetica-69" x="377.929688"/>
       <use xlink:href="#Helvetica-65" x="400.146484"/>
      </g>
     </g>
    </g>
    <g id="xtick_2">
     <g id="text_2">
      <!-- ILC1 -->
      <g style="fill: #333333" transform="translate(41.451953 81.230229) scale(0.035 -0.035)">
       <use xlink:href="#Helvetica-49"/>
       <use xlink:href="#Helvetica-4c" x="27.783203"/>
       <use xlink:href="#Helvetica-43" x="83.398438"/>
       <use xlink:href="#Helvetica-31" x="155.615234"/>
      </g>
     </g>
    </g>
    <g id="xtick_3">
     <g id="text_3">
      <!-- TH1 -->
      <g style="fill: #333333" transform="translate(66.383408 81.230229) scale(0.035 -0.035)">
       <defs>
        <path id="Helvetica-54" d="M 3828 4591 
L 3828 4044 
L 2281 4044 
L 2281 0 
L 1650 0 
L 1650 4044 
L 103 4044 
L 103 4591 
L 3828 4591 
z
" transform="scale(0.015625)"/>
        <path id="Helvetica-48" d="M 503 4591 
L 1131 4591 
L 1131 2694 
L 3519 2694 
L 3519 4591 
L 4147 4591 
L 4147 0 
L 3519 0 
L 3519 2147 
L 1131 2147 
L 1131 0 
L 503 0 
L 503 4591 
z
" transform="scale(0.015625)"/>
       </defs>
       <use xlink:href="#Helvetica-54"/>
       <use xlink:href="#Helvetica-48" x="61.083984"/>
       <use xlink:href="#Helvetica-31" x="133.300781"/>
      </g>
     </g>
    </g>
   </g>
   <g id="matplotlib.axis_2">
    <g id="ytick_1">
     <g id="line2d_1">
      <defs>
       <path id="m080f4d1663" d="M 0 0 
L -1 0 
" style="stroke: #777777; stroke-width: 0.5"/>
      </defs>
      <g>
       <use xlink:href="#m080f4d1663" x="8.336802" y="66.995102" style="fill: #777777; stroke: #777777; stroke-width: 0.5"/>
      </g>
     </g>
     <g id="text_4">
      <!-- 0 -->
      <g style="fill: #333333" transform="translate(4.668521 68.071117) scale(0.03 -0.03)">
       <defs>
        <path id="Helvetica-30" d="M 1731 4475 
Q 2600 4475 2988 3759 
Q 3288 3206 3288 2244 
Q 3288 1331 3016 734 
Q 2622 -122 1728 -122 
Q 922 -122 528 578 
Q 200 1163 200 2147 
Q 200 2909 397 3456 
Q 766 4475 1731 4475 
z
M 1725 391 
Q 2163 391 2422 778 
Q 2681 1166 2681 2222 
Q 2681 2984 2493 3476 
Q 2306 3969 1766 3969 
Q 1269 3969 1039 3501 
Q 809 3034 809 2125 
Q 809 1441 956 1025 
Q 1181 391 1725 391 
z
" transform="scale(0.015625)"/>
       </defs>
       <use xlink:href="#Helvetica-30"/>
      </g>
     </g>
    </g>
    <g id="ytick_2">
     <g id="line2d_2">
      <g>
       <use xlink:href="#m080f4d1663" x="8.336802" y="54.411333" style="fill: #777777; stroke: #777777; stroke-width: 0.5"/>
      </g>
     </g>
     <g id="text_5">
      <!-- 10 -->
      <g style="fill: #333333" transform="translate(3.00024 55.487348) scale(0.03 -0.03)">
       <use xlink:href="#Helvetica-31"/>
       <use xlink:href="#Helvetica-30" x="55.615234"/>
      </g>
     </g>
    </g>
    <g id="ytick_3">
     <g id="line2d_3">
      <g>
       <use xlink:href="#m080f4d1663" x="8.336802" y="41.827563" style="fill: #777777; stroke: #777777; stroke-width: 0.5"/>
      </g>
     </g>
     <g id="text_6">
      <!-- 20 -->
      <g style="fill: #333333" transform="translate(3.00024 42.903579) scale(0.03 -0.03)">
       <defs>
        <path id="Helvetica-32" d="M 200 0 
Q 231 578 439 1006 
Q 647 1434 1250 1784 
L 1850 2131 
Q 2253 2366 2416 2531 
Q 2672 2791 2672 3125 
Q 2672 3516 2437 3745 
Q 2203 3975 1813 3975 
Q 1234 3975 1013 3538 
Q 894 3303 881 2888 
L 309 2888 
Q 319 3472 525 3841 
Q 891 4491 1816 4491 
Q 2584 4491 2939 4075 
Q 3294 3659 3294 3150 
Q 3294 2613 2916 2231 
Q 2697 2009 2131 1694 
L 1703 1456 
Q 1397 1288 1222 1134 
Q 909 863 828 531 
L 3272 531 
L 3272 0 
L 200 0 
z
" transform="scale(0.015625)"/>
       </defs>
       <use xlink:href="#Helvetica-32"/>
       <use xlink:href="#Helvetica-30" x="55.615234"/>
      </g>
     </g>
    </g>
    <g id="ytick_4">
     <g id="line2d_4">
      <g>
       <use xlink:href="#m080f4d1663" x="8.336802" y="29.243794" style="fill: #777777; stroke: #777777; stroke-width: 0.5"/>
      </g>
     </g>
     <g id="text_7">
      <!-- 30 -->
      <g style="fill: #333333" transform="translate(3.00024 30.31981) scale(0.03 -0.03)">
       <defs>
        <path id="Helvetica-33" d="M 1663 -122 
Q 869 -122 511 314 
Q 153 750 153 1375 
L 741 1375 
Q 778 941 903 744 
Q 1122 391 1694 391 
Q 2138 391 2406 628 
Q 2675 866 2675 1241 
Q 2675 1703 2392 1887 
Q 2109 2072 1606 2072 
Q 1550 2072 1492 2070 
Q 1434 2069 1375 2066 
L 1375 2563 
Q 1463 2553 1522 2550 
Q 1581 2547 1650 2547 
Q 1966 2547 2169 2647 
Q 2525 2822 2525 3272 
Q 2525 3606 2287 3787 
Q 2050 3969 1734 3969 
Q 1172 3969 956 3594 
Q 838 3388 822 3006 
L 266 3006 
Q 266 3506 466 3856 
Q 809 4481 1675 4481 
Q 2359 4481 2734 4176 
Q 3109 3872 3109 3294 
Q 3109 2881 2888 2625 
Q 2750 2466 2531 2375 
Q 2884 2278 3082 2001 
Q 3281 1725 3281 1325 
Q 3281 684 2859 281 
Q 2438 -122 1663 -122 
z
" transform="scale(0.015625)"/>
       </defs>
       <use xlink:href="#Helvetica-33"/>
       <use xlink:href="#Helvetica-30" x="55.615234"/>
      </g>
     </g>
    </g>
    <g id="ytick_5">
     <g id="line2d_5">
      <g>
       <use xlink:href="#m080f4d1663" x="8.336802" y="16.660025" style="fill: #777777; stroke: #777777; stroke-width: 0.5"/>
      </g>
     </g>
     <g id="text_8">
      <!-- 40 -->
      <g style="fill: #333333" transform="translate(3.00024 17.73604) scale(0.03 -0.03)">
       <defs>
        <path id="Helvetica-34" d="M 2116 1584 
L 2116 3613 
L 681 1584 
L 2116 1584 
z
M 2125 0 
L 2125 1094 
L 163 1094 
L 163 1644 
L 2213 4488 
L 2688 4488 
L 2688 1584 
L 3347 1584 
L 3347 1094 
L 2688 1094 
L 2688 0 
L 2125 0 
z
" transform="scale(0.015625)"/>
       </defs>
       <use xlink:href="#Helvetica-34"/>
       <use xlink:href="#Helvetica-30" x="55.615234"/>
      </g>
     </g>
    </g>
    <g id="ytick_6">
     <g id="line2d_6">
      <g>
       <use xlink:href="#m080f4d1663" x="8.336802" y="4.076256" style="fill: #777777; stroke: #777777; stroke-width: 0.5"/>
      </g>
     </g>
     <g id="text_9">
      <!-- 50 -->
      <g style="fill: #333333" transform="translate(3.00024 5.152271) scale(0.03 -0.03)">
       <defs>
        <path id="Helvetica-35" d="M 791 1141 
Q 847 659 1238 475 
Q 1438 381 1700 381 
Q 2200 381 2440 700 
Q 2681 1019 2681 1406 
Q 2681 1875 2395 2131 
Q 2109 2388 1709 2388 
Q 1419 2388 1211 2275 
Q 1003 2163 856 1963 
L 369 1991 
L 709 4400 
L 3034 4400 
L 3034 3856 
L 1131 3856 
L 941 2613 
Q 1097 2731 1238 2791 
Q 1488 2894 1816 2894 
Q 2431 2894 2859 2497 
Q 3288 2100 3288 1491 
Q 3288 856 2895 371 
Q 2503 -113 1644 -113 
Q 1097 -113 676 195 
Q 256 503 206 1141 
L 791 1141 
z
" transform="scale(0.015625)"/>
       </defs>
       <use xlink:href="#Helvetica-35"/>
       <use xlink:href="#Helvetica-30" x="55.615234"/>
      </g>
     </g>
    </g>
   </g>
   <g id="PolyCollection_1">
    <defs>
     <path id="m806245ddcd" d="M 22.517516 -17.952008 
L 18.697074 -17.952008 
L 18.323272 -17.953034 
L 17.906172 -17.954059 
L 17.44752 -17.955085 
L 16.950671 -17.95611 
L 16.420665 -17.957135 
L 15.864222 -17.958161 
L 15.289637 -17.959186 
L 14.706592 -17.960212 
L 14.125869 -17.961237 
L 13.55899 -17.962262 
L 13.017801 -17.963288 
L 12.514012 -17.964313 
L 12.058738 -17.965339 
L 11.662045 -17.966364 
L 11.332547 -17.967389 
L 11.077058 -17.968415 
L 10.900331 -17.96944 
L 10.80488 -17.970465 
L 10.790901 -17.971491 
L 10.856292 -17.972516 
L 10.996752 -17.973542 
L 11.205975 -17.974567 
L 11.475905 -17.975592 
L 11.797053 -17.976618 
L 12.158861 -17.977643 
L 12.550093 -17.978669 
L 12.959251 -17.979694 
L 13.374981 -17.980719 
L 13.786479 -17.981745 
L 14.183859 -17.98277 
L 14.558482 -17.983796 
L 14.903222 -17.984821 
L 15.212668 -17.985846 
L 15.483244 -17.986872 
L 15.713238 -17.987897 
L 15.902762 -17.988923 
L 16.053618 -17.989948 
L 16.169103 -17.990973 
L 16.253757 -17.991999 
L 16.313071 -17.993024 
L 16.353175 -17.994049 
L 16.380523 -17.995075 
L 16.401588 -17.9961 
L 16.422585 -17.997126 
L 16.449233 -17.998151 
L 16.48655 -17.999176 
L 16.538707 -18.000202 
L 16.608915 -18.001227 
L 16.699369 -18.002253 
L 16.811223 -18.003278 
L 16.944613 -18.004303 
L 17.098706 -18.005329 
L 17.271784 -18.006354 
L 17.461351 -18.00738 
L 17.664262 -18.008405 
L 17.876866 -18.00943 
L 18.095155 -18.010456 
L 18.314923 -18.011481 
L 18.531911 -18.012507 
L 18.741949 -18.013532 
L 18.941083 -18.014557 
L 19.125675 -18.015583 
L 19.292487 -18.016608 
L 19.438743 -18.017633 
L 19.562167 -18.018659 
L 19.661009 -18.019684 
L 19.734053 -18.02071 
L 19.780626 -18.021735 
L 19.800596 -18.02276 
L 19.794377 -18.023786 
L 19.762935 -18.024811 
L 19.707794 -18.025837 
L 19.631041 -18.026862 
L 19.535323 -18.027887 
L 19.423834 -18.028913 
L 19.300274 -18.029938 
L 19.168793 -18.030964 
L 19.033892 -18.031989 
L 18.900303 -18.033014 
L 18.772832 -18.03404 
L 18.656184 -18.035065 
L 18.554769 -18.036091 
L 18.47251 -18.037116 
L 18.41266 -18.038141 
L 18.377649 -18.039167 
L 18.368966 -18.040192 
L 18.387093 -18.041217 
L 18.431494 -18.042243 
L 18.500659 -18.043268 
L 18.59221 -18.044294 
L 18.703043 -18.045319 
L 18.829514 -18.046344 
L 18.967641 -18.04737 
L 19.113316 -18.048395 
L 19.262508 -18.049421 
L 19.411439 -18.050446 
L 19.556738 -18.051471 
L 19.695545 -18.052497 
L 19.825583 -18.053522 
L 21.389008 -18.053522 
L 21.389008 -18.053522 
L 21.519046 -18.052497 
L 21.657853 -18.051471 
L 21.803152 -18.050446 
L 21.952083 -18.049421 
L 22.101275 -18.048395 
L 22.24695 -18.04737 
L 22.385077 -18.046344 
L 22.511547 -18.045319 
L 22.622381 -18.044294 
L 22.713932 -18.043268 
L 22.783097 -18.042243 
L 22.827497 -18.041217 
L 22.845624 -18.040192 
L 22.836941 -18.039167 
L 22.80193 -18.038141 
L 22.742081 -18.037116 
L 22.659822 -18.036091 
L 22.558407 -18.035065 
L 22.441759 -18.03404 
L 22.314288 -18.033014 
L 22.180699 -18.031989 
L 22.045798 -18.030964 
L 21.914317 -18.029938 
L 21.790757 -18.028913 
L 21.679267 -18.027887 
L 21.58355 -18.026862 
L 21.506797 -18.025837 
L 21.451656 -18.024811 
L 21.420214 -18.023786 
L 21.413995 -18.02276 
L 21.433965 -18.021735 
L 21.480537 -18.02071 
L 21.553582 -18.019684 
L 21.652424 -18.018659 
L 21.775848 -18.017633 
L 21.922104 -18.016608 
L 22.088916 -18.015583 
L 22.273508 -18.014557 
L 22.472642 -18.013532 
L 22.68268 -18.012507 
L 22.899668 -18.011481 
L 23.119435 -18.010456 
L 23.337725 -18.00943 
L 23.550329 -18.008405 
L 23.75324 -18.00738 
L 23.942807 -18.006354 
L 24.115885 -18.005329 
L 24.269977 -18.004303 
L 24.403367 -18.003278 
L 24.515222 -18.002253 
L 24.605676 -18.001227 
L 24.675884 -18.000202 
L 24.728041 -17.999176 
L 24.765358 -17.998151 
L 24.792006 -17.997126 
L 24.813003 -17.9961 
L 24.834068 -17.995075 
L 24.861416 -17.994049 
L 24.90152 -17.993024 
L 24.960834 -17.991999 
L 25.045488 -17.990973 
L 25.160973 -17.989948 
L 25.311829 -17.988923 
L 25.501353 -17.987897 
L 25.731347 -17.986872 
L 26.001922 -17.985846 
L 26.311369 -17.984821 
L 26.656109 -17.983796 
L 27.030731 -17.98277 
L 27.428111 -17.981745 
L 27.83961 -17.980719 
L 28.25534 -17.979694 
L 28.664497 -17.978669 
L 29.05573 -17.977643 
L 29.417538 -17.976618 
L 29.738686 -17.975592 
L 30.008616 -17.974567 
L 30.217839 -17.973542 
L 30.358299 -17.972516 
L 30.42369 -17.971491 
L 30.409711 -17.970465 
L 30.31426 -17.96944 
L 30.137533 -17.968415 
L 29.882044 -17.967389 
L 29.552546 -17.966364 
L 29.155853 -17.965339 
L 28.700579 -17.964313 
L 28.19679 -17.963288 
L 27.6556 -17.962262 
L 27.088722 -17.961237 
L 26.507999 -17.960212 
L 25.924954 -17.959186 
L 25.350369 -17.958161 
L 24.793926 -17.957135 
L 24.26392 -17.95611 
L 23.76707 -17.955085 
L 23.308418 -17.954059 
L 22.891319 -17.953034 
L 22.517516 -17.952008 
z
" style="stroke: #6f6f6f; stroke-width: 0.15"/>
    </defs>
    <g clip-path="url(#p6616f8a837)">
     <use xlink:href="#m806245ddcd" x="0" y="84.96" style="fill: #98daa7; stroke: #6f6f6f; stroke-width: 0.15"/>
    </g>
   </g>
   <g id="PolyCollection_2">
    <defs>
     <path id="md42f4d54e4" d="M 47.239948 -17.477855 
L 43.056614 -17.477855 
L 42.641552 -17.51591 
L 42.178875 -17.553965 
L 41.671302 -17.59202 
L 41.123616 -17.630075 
L 40.542753 -17.66813 
L 39.937762 -17.706186 
L 39.319646 -17.744241 
L 38.701057 -17.782296 
L 38.095865 -17.820351 
L 37.518618 -17.858406 
L 36.983914 -17.896461 
L 36.505741 -17.934517 
L 36.096813 -17.972572 
L 35.767957 -18.010627 
L 35.527598 -18.048682 
L 35.381369 -18.086737 
L 35.331887 -18.124792 
L 35.378694 -18.162848 
L 35.518381 -18.200903 
L 35.744855 -18.238958 
L 36.049753 -18.277013 
L 36.422938 -18.315068 
L 36.853056 -18.353123 
L 37.328105 -18.391179 
L 37.835974 -18.429234 
L 38.364922 -18.467289 
L 38.903978 -18.505344 
L 39.44324 -18.543399 
L 39.974073 -18.581454 
L 40.48921 -18.61951 
L 40.982774 -18.657565 
L 41.450223 -18.69562 
L 41.888257 -18.733675 
L 42.294683 -18.77173 
L 42.668271 -18.809785 
L 43.008607 -18.847841 
L 43.315956 -18.885896 
L 43.591129 -18.923951 
L 43.835376 -18.962006 
L 44.050286 -19.000061 
L 44.237704 -19.038116 
L 44.399657 -19.076171 
L 44.538293 -19.114227 
L 44.655819 -19.152282 
L 44.754452 -19.190337 
L 44.836373 -19.228392 
L 44.903685 -19.266447 
L 44.958376 -19.304502 
L 45.002294 -19.342558 
L 45.037122 -19.380613 
L 45.064359 -19.418668 
L 45.085317 -19.456723 
L 45.101112 -19.494778 
L 45.112669 -19.532833 
L 45.120719 -19.570889 
L 45.125812 -19.608944 
L 45.128321 -19.646999 
L 45.12845 -19.685054 
L 45.12624 -19.723109 
L 45.121578 -19.761164 
L 45.114202 -19.79922 
L 45.103711 -19.837275 
L 45.089577 -19.87533 
L 45.071161 -19.913385 
L 45.047733 -19.95144 
L 45.018505 -19.989495 
L 44.982671 -20.027551 
L 44.939452 -20.065606 
L 44.888161 -20.103661 
L 44.828264 -20.141716 
L 44.75945 -20.179771 
L 44.681708 -20.217826 
L 44.595385 -20.255882 
L 44.501246 -20.293937 
L 44.400505 -20.331992 
L 44.294841 -20.370047 
L 44.186374 -20.408102 
L 44.077623 -20.446157 
L 43.971418 -20.484213 
L 43.870787 -20.522268 
L 43.778822 -20.560323 
L 43.698518 -20.598378 
L 43.632618 -20.636433 
L 43.583456 -20.674488 
L 43.552819 -20.712544 
L 43.541841 -20.750599 
L 43.55093 -20.788654 
L 43.579748 -20.826709 
L 43.627228 -20.864764 
L 43.691639 -20.902819 
L 43.770695 -20.940875 
L 43.861684 -20.97893 
L 43.961629 -21.016985 
L 44.067439 -21.05504 
L 44.176075 -21.093095 
L 44.284682 -21.13115 
L 44.39071 -21.169206 
L 44.491997 -21.207261 
L 44.586822 -21.245316 
L 45.709741 -21.245316 
L 45.709741 -21.245316 
L 45.804566 -21.207261 
L 45.905852 -21.169206 
L 46.01188 -21.13115 
L 46.120487 -21.093095 
L 46.229123 -21.05504 
L 46.334934 -21.016985 
L 46.434878 -20.97893 
L 46.525868 -20.940875 
L 46.604924 -20.902819 
L 46.669335 -20.864764 
L 46.716814 -20.826709 
L 46.745632 -20.788654 
L 46.754722 -20.750599 
L 46.743743 -20.712544 
L 46.713106 -20.674488 
L 46.663944 -20.636433 
L 46.598045 -20.598378 
L 46.517741 -20.560323 
L 46.425775 -20.522268 
L 46.325144 -20.484213 
L 46.218939 -20.446157 
L 46.110188 -20.408102 
L 46.001722 -20.370047 
L 45.896057 -20.331992 
L 45.795316 -20.293937 
L 45.701177 -20.255882 
L 45.614855 -20.217826 
L 45.537113 -20.179771 
L 45.468299 -20.141716 
L 45.408401 -20.103661 
L 45.35711 -20.065606 
L 45.313892 -20.027551 
L 45.278057 -19.989495 
L 45.24883 -19.95144 
L 45.225402 -19.913385 
L 45.206985 -19.87533 
L 45.192851 -19.837275 
L 45.182361 -19.79922 
L 45.174984 -19.761164 
L 45.170322 -19.723109 
L 45.168112 -19.685054 
L 45.168241 -19.646999 
L 45.170751 -19.608944 
L 45.175844 -19.570889 
L 45.183894 -19.532833 
L 45.19545 -19.494778 
L 45.211246 -19.456723 
L 45.232204 -19.418668 
L 45.259441 -19.380613 
L 45.294268 -19.342558 
L 45.338186 -19.304502 
L 45.392878 -19.266447 
L 45.460189 -19.228392 
L 45.54211 -19.190337 
L 45.640744 -19.152282 
L 45.758269 -19.114227 
L 45.896905 -19.076171 
L 46.058859 -19.038116 
L 46.246277 -19.000061 
L 46.461187 -18.962006 
L 46.705434 -18.923951 
L 46.980607 -18.885896 
L 47.287955 -18.847841 
L 47.628292 -18.809785 
L 48.00188 -18.77173 
L 48.408305 -18.733675 
L 48.846339 -18.69562 
L 49.313789 -18.657565 
L 49.807352 -18.61951 
L 50.32249 -18.581454 
L 50.853322 -18.543399 
L 51.392585 -18.505344 
L 51.931641 -18.467289 
L 52.460589 -18.429234 
L 52.968457 -18.391179 
L 53.443507 -18.353123 
L 53.873625 -18.315068 
L 54.246809 -18.277013 
L 54.551707 -18.238958 
L 54.778182 -18.200903 
L 54.917868 -18.162848 
L 54.964676 -18.124792 
L 54.915193 -18.086737 
L 54.768964 -18.048682 
L 54.528605 -18.010627 
L 54.19975 -17.972572 
L 53.790822 -17.934517 
L 53.312649 -17.896461 
L 52.777945 -17.858406 
L 52.200697 -17.820351 
L 51.595506 -17.782296 
L 50.976917 -17.744241 
L 50.358801 -17.706186 
L 49.75381 -17.66813 
L 49.172946 -17.630075 
L 48.625261 -17.59202 
L 48.117688 -17.553965 
L 47.65501 -17.51591 
L 47.239948 -17.477855 
z
" style="stroke: #6f6f6f; stroke-width: 0.15"/>
    </defs>
    <g clip-path="url(#p6616f8a837)">
     <use xlink:href="#md42f4d54e4" x="0" y="84.96" style="fill: #f2aba8; stroke: #6f6f6f; stroke-width: 0.15"/>
    </g>
   </g>
   <g id="PolyCollection_3">
    <defs>
     <path id="m585ec99604" d="M 71.893825 -17.296329 
L 67.48471 -17.296329 
L 67.068133 -17.34791 
L 66.607886 -17.399491 
L 66.107163 -17.451071 
L 65.570958 -17.502652 
L 65.006071 -17.554233 
L 64.421021 -17.605814 
L 63.825852 -17.657395 
L 63.231851 -17.708975 
L 62.651174 -17.760556 
L 62.09641 -17.812137 
L 61.58011 -17.863718 
L 61.114303 -17.915299 
L 60.710028 -17.966879 
L 60.376917 -18.01846 
L 60.122837 -18.070041 
L 59.953617 -18.121622 
L 59.872873 -18.173202 
L 59.881921 -18.224783 
L 59.979787 -18.276364 
L 60.163299 -18.327945 
L 60.427259 -18.379526 
L 60.764671 -18.431106 
L 61.167024 -18.482687 
L 61.624607 -18.534268 
L 62.126852 -18.585849 
L 62.662685 -18.63743 
L 63.220881 -18.68901 
L 63.790405 -18.740591 
L 64.360735 -18.792172 
L 64.92215 -18.843753 
L 65.46597 -18.895334 
L 65.984752 -18.946914 
L 66.472423 -18.998495 
L 66.924346 -19.050076 
L 67.337335 -19.101657 
L 67.709595 -19.153237 
L 68.040623 -19.204818 
L 68.331056 -19.256399 
L 68.582495 -19.30798 
L 68.797304 -19.359561 
L 68.978406 -19.411141 
L 69.129089 -19.462722 
L 69.252822 -19.514303 
L 69.353095 -19.565884 
L 69.433293 -19.617465 
L 69.496592 -19.669045 
L 69.545891 -19.720626 
L 69.583768 -19.772207 
L 69.612462 -19.823788 
L 69.633871 -19.875369 
L 69.649566 -19.926949 
L 69.660817 -19.97853 
L 69.668616 -20.030111 
L 69.673713 -20.081692 
L 69.67664 -20.133272 
L 69.677739 -20.184853 
L 69.677184 -20.236434 
L 69.674995 -20.288015 
L 69.67105 -20.339596 
L 69.665101 -20.391176 
L 69.65677 -20.442757 
L 69.645567 -20.494338 
L 69.63089 -20.545919 
L 69.612045 -20.5975 
L 69.588261 -20.64908 
L 69.55872 -20.700661 
L 69.522594 -20.752242 
L 69.479094 -20.803823 
L 69.427521 -20.855404 
L 69.36734 -20.906984 
L 69.298241 -20.958565 
L 69.220215 -21.010146 
L 69.133616 -21.061727 
L 69.039214 -21.113307 
L 68.938232 -21.164888 
L 68.832354 -21.216469 
L 68.723708 -21.26805 
L 68.614819 -21.319631 
L 68.50852 -21.371211 
L 68.407841 -21.422792 
L 68.315873 -21.474373 
L 68.235611 -21.525954 
L 68.169794 -21.577535 
L 68.12075 -21.629115 
L 68.090259 -21.680696 
L 68.079448 -21.732277 
L 68.088721 -21.783858 
L 68.117731 -21.835439 
L 68.165406 -21.887019 
L 68.230011 -21.9386 
L 68.309256 -21.990181 
L 68.400428 -22.041762 
L 68.500547 -22.093342 
L 68.606524 -22.144923 
L 68.715318 -22.196504 
L 68.824076 -22.248085 
L 68.930248 -22.299666 
L 69.031672 -22.351246 
L 69.126629 -22.402827 
L 70.251905 -22.402827 
L 70.251905 -22.402827 
L 70.346862 -22.351246 
L 70.448286 -22.299666 
L 70.554458 -22.248085 
L 70.663216 -22.196504 
L 70.77201 -22.144923 
L 70.877987 -22.093342 
L 70.978106 -22.041762 
L 71.069278 -21.990181 
L 71.148523 -21.9386 
L 71.213129 -21.887019 
L 71.260803 -21.835439 
L 71.289813 -21.783858 
L 71.299086 -21.732277 
L 71.288275 -21.680696 
L 71.257785 -21.629115 
L 71.20874 -21.577535 
L 71.142923 -21.525954 
L 71.062661 -21.474373 
L 70.970693 -21.422792 
L 70.870014 -21.371211 
L 70.763715 -21.319631 
L 70.654826 -21.26805 
L 70.546181 -21.216469 
L 70.440302 -21.164888 
L 70.33932 -21.113307 
L 70.244918 -21.061727 
L 70.158319 -21.010146 
L 70.080293 -20.958565 
L 70.011195 -20.906984 
L 69.951013 -20.855404 
L 69.899441 -20.803823 
L 69.85594 -20.752242 
L 69.819814 -20.700661 
L 69.790273 -20.64908 
L 69.766489 -20.5975 
L 69.747644 -20.545919 
L 69.732967 -20.494338 
L 69.721764 -20.442757 
L 69.713433 -20.391176 
L 69.707484 -20.339596 
L 69.70354 -20.288015 
L 69.70135 -20.236434 
L 69.700795 -20.184853 
L 69.701894 -20.133272 
L 69.704821 -20.081692 
L 69.709918 -20.030111 
L 69.717717 -19.97853 
L 69.728968 -19.926949 
L 69.744663 -19.875369 
L 69.766072 -19.823788 
L 69.794766 -19.772207 
L 69.832644 -19.720626 
L 69.881942 -19.669045 
L 69.945241 -19.617465 
L 70.025439 -19.565884 
L 70.125712 -19.514303 
L 70.249445 -19.462722 
L 70.400128 -19.411141 
L 70.581231 -19.359561 
L 70.796039 -19.30798 
L 71.047478 -19.256399 
L 71.337911 -19.204818 
L 71.668939 -19.153237 
L 72.041199 -19.101657 
L 72.454188 -19.050076 
L 72.906111 -18.998495 
L 73.393782 -18.946914 
L 73.912564 -18.895334 
L 74.456384 -18.843753 
L 75.017799 -18.792172 
L 75.58813 -18.740591 
L 76.157654 -18.68901 
L 76.715849 -18.63743 
L 77.251682 -18.585849 
L 77.753927 -18.534268 
L 78.21151 -18.482687 
L 78.613863 -18.431106 
L 78.951276 -18.379526 
L 79.215235 -18.327945 
L 79.398747 -18.276364 
L 79.496613 -18.224783 
L 79.505661 -18.173202 
L 79.424918 -18.121622 
L 79.255698 -18.070041 
L 79.001617 -18.01846 
L 78.668506 -17.966879 
L 78.264231 -17.915299 
L 77.798424 -17.863718 
L 77.282124 -17.812137 
L 76.72736 -17.760556 
L 76.146683 -17.708975 
L 75.552682 -17.657395 
L 74.957514 -17.605814 
L 74.372463 -17.554233 
L 73.807576 -17.502652 
L 73.271371 -17.451071 
L 72.770649 -17.399491 
L 72.310401 -17.34791 
L 71.893825 -17.296329 
z
" style="stroke: #6f6f6f; stroke-width: 0.15"/>
    </defs>
    <g clip-path="url(#p6616f8a837)">
     <use xlink:href="#m585ec99604" x="0" y="84.96" style="fill: #d3c4f6; stroke: #6f6f6f; stroke-width: 0.15"/>
    </g>
   </g>
   <g id="line2d_7">
    <path d="M 20.607295 66.994514 
L 20.607295 66.919955 
" clip-path="url(#p6616f8a837)" style="fill: none; stroke: #8c8c8c; stroke-width: 0.75; stroke-linecap: round"/>
   </g>
   <g id="line2d_8">
    <path d="M 20.607295 66.991508 
L 20.607295 66.962337 
" clip-path="url(#p6616f8a837)" style="fill: none; stroke: #8c8c8c; stroke-width: 4; stroke-linecap: round"/>
   </g>
   <g id="line2d_9">
    <path d="M 20.607295 66.982971 
" clip-path="url(#p6616f8a837)" style="fill: none; stroke: #6f6f6f; stroke-width: 1.2; stroke-linecap: round"/>
    <defs>
     <path id="m421865022f" d="M 0 0.833333 
C 0.221003 0.833333 0.432983 0.745528 0.589256 0.589256 
C 0.745528 0.432983 0.833333 0.221003 0.833333 0 
C 0.833333 -0.221003 0.745528 -0.432983 0.589256 -0.589256 
C 0.432983 -0.745528 0.221003 -0.833333 0 -0.833333 
C -0.221003 -0.833333 -0.432983 -0.745528 -0.589256 -0.589256 
C -0.745528 -0.432983 -0.833333 -0.221003 -0.833333 0 
C -0.833333 0.221003 -0.745528 0.432983 -0.589256 0.589256 
C -0.432983 0.745528 -0.221003 0.833333 0 0.833333 
z
" style="stroke: #ffffff; stroke-width: 0.8"/>
    </defs>
    <g clip-path="url(#p6616f8a837)">
     <use xlink:href="#m421865022f" x="20.607295" y="66.982971" style="fill: #ffffff; stroke: #ffffff; stroke-width: 0.8"/>
    </g>
   </g>
   <g id="line2d_10">
    <path d="M 45.148281 66.989225 
L 45.148281 66.38491 
" clip-path="url(#p6616f8a837)" style="fill: none; stroke: #8c8c8c; stroke-width: 0.75; stroke-linecap: round"/>
   </g>
   <g id="line2d_11">
    <path d="M 45.148281 66.928873 
L 45.148281 66.609429 
" clip-path="url(#p6616f8a837)" style="fill: none; stroke: #8c8c8c; stroke-width: 4; stroke-linecap: round"/>
   </g>
   <g id="line2d_12">
    <path d="M 45.148281 66.826187 
" clip-path="url(#p6616f8a837)" style="fill: none; stroke: #6f6f6f; stroke-width: 1.2; stroke-linecap: round"/>
    <g clip-path="url(#p6616f8a837)">
     <use xlink:href="#m421865022f" x="45.148281" y="66.826187" style="fill: #ffffff; stroke: #ffffff; stroke-width: 0.8"/>
    </g>
   </g>
   <g id="line2d_13">
    <path d="M 69.689267 66.995102 
L 69.689267 66.407488 
" clip-path="url(#p6616f8a837)" style="fill: none; stroke: #8c8c8c; stroke-width: 0.75; stroke-linecap: round"/>
   </g>
   <g id="line2d_14">
    <path d="M 69.689267 66.976069 
L 69.689267 66.48314 
" clip-path="url(#p6616f8a837)" style="fill: none; stroke: #8c8c8c; stroke-width: 4; stroke-linecap: round"/>
   </g>
   <g id="line2d_15">
    <path d="M 69.689267 66.701137 
" clip-path="url(#p6616f8a837)" style="fill: none; stroke: #6f6f6f; stroke-width: 1.2; stroke-linecap: round"/>
    <g clip-path="url(#p6616f8a837)">
     <use xlink:href="#m421865022f" x="69.689267" y="66.701137" style="fill: #ffffff; stroke: #ffffff; stroke-width: 0.8"/>
    </g>
   </g>
   <g id="patch_3">
    <path d="M 8.336802 74.419526 
L 8.336802 4.076256 
" style="fill: none; stroke: #777777; stroke-width: 0.5; stroke-linejoin: miter; stroke-linecap: square"/>
   </g>
   <g id="patch_4">
    <path d="M 8.336802 76.919526 
L 81.95976 76.919526 
" style="fill: none; stroke: #777777; stroke-width: 0.5; stroke-linejoin: miter; stroke-linecap: square"/>
   </g>
  </g>
 </g>
 <defs>
  <clipPath id="p6616f8a837">
   <rect x="8.336802" y="4.076256" width="73.622957" height="70.34327"/>
  </clipPath>
 </defs>
</svg>
