<?xml version="1.0" encoding="utf-8" standalone="no"?>
<!DOCTYPE svg PUBLIC "-//W3C//DTD SVG 1.1//EN"
  "http://www.w3.org/Graphics/SVG/1.1/DTD/svg11.dtd">
<svg xmlns:xlink="http://www.w3.org/1999/xlink" width="56.16pt" height="84.96pt" viewBox="0 0 56.16 84.96" xmlns="http://www.w3.org/2000/svg" version="1.1">
 <metadata>
  <rdf:RDF xmlns:dc="http://purl.org/dc/elements/1.1/" xmlns:cc="http://creativecommons.org/ns#" xmlns:rdf="http://www.w3.org/1999/02/22-rdf-syntax-ns#">
   <cc:Work>
    <dc:type rdf:resource="http://purl.org/dc/dcmitype/StillImage"/>
    <dc:date>2024-05-27T15:37:02.705279</dc:date>
    <dc:format>image/svg+xml</dc:format>
    <dc:creator>
     <cc:Agent>
      <dc:title>Matplotlib v3.8.3, https://matplotlib.org/</dc:title>
     </cc:Agent>
    </dc:creator>
   </cc:Work>
  </rdf:RDF>
 </metadata>
 <defs>
  <style type="text/css">*{stroke-linejoin: round; stroke-linecap: butt}</style>
 </defs>
 <g id="figure_1">
  <g id="patch_1">
   <path d="M 0 84.96 
L 56.16 84.96 
L 56.16 0 
L 0 0 
z
" style="fill: #ffffff"/>
  </g>
  <g id="axes_1">
   <g id="patch_2">
    <path d="M 10.005084 74.419526 
L 53.15976 74.419526 
L 53.15976 4.076256 
L 10.005084 4.076256 
z
" style="fill: #ffffff"/>
   </g>
   <g id="matplotlib.axis_1">
    <g id="xtick_1">
     <g id="text_1">
      <!-- EOMES+ Cells -->
      <g style="fill: #333333" transform="translate(9.075042 81.230229) scale(0.035 -0.035)">
       <defs>
        <path id="Helvetica-45" d="M 547 4591 
L 3894 4591 
L 3894 4028 
L 1153 4028 
L 1153 2634 
L 3688 2634 
L 3688 2103 
L 1153 2103 
L 1153 547 
L 3941 547 
L 3941 0 
L 547 0 
L 547 4591 
z
M 2244 4591 
L 2244 4591 
z
" transform="scale(0.015625)"/>
        <path id="Helvetica-4f" d="M 2469 4716 
Q 3684 4716 4269 3934 
Q 4725 3325 4725 2375 
Q 4725 1347 4203 666 
Q 3591 -134 2456 -134 
Q 1397 -134 791 566 
Q 250 1241 250 2272 
Q 250 3203 713 3866 
Q 1306 4716 2469 4716 
z
M 2531 422 
Q 3353 422 3720 1011 
Q 4088 1600 4088 2366 
Q 4088 3175 3664 3669 
Q 3241 4163 2506 4163 
Q 1794 4163 1344 3673 
Q 894 3184 894 2231 
Q 894 1469 1280 945 
Q 1666 422 2531 422 
z
M 2488 4716 
L 2488 4716 
z
" transform="scale(0.015625)"/>
        <path id="Helvetica-4d" d="M 472 4591 
L 1363 4591 
L 2681 709 
L 3991 4591 
L 4872 4591 
L 4872 0 
L 4281 0 
L 4281 2709 
Q 4281 2850 4287 3175 
Q 4294 3500 4294 3872 
L 2984 0 
L 2369 0 
L 1050 3872 
L 1050 3731 
Q 1050 3563 1058 3217 
Q 1066 2872 1066 2709 
L 1066 0 
L 472 0 
L 472 4591 
z
" transform="scale(0.015625)"/>
        <path id="Helvetica-53" d="M 894 1481 
Q 916 1091 1078 847 
Q 1388 391 2169 391 
Q 2519 391 2806 491 
Q 3363 684 3363 1184 
Q 3363 1559 3128 1719 
Q 2891 1875 2384 1991 
L 1763 2131 
Q 1153 2269 900 2434 
Q 463 2722 463 3294 
Q 463 3913 891 4309 
Q 1319 4706 2103 4706 
Q 2825 4706 3329 4357 
Q 3834 4009 3834 3244 
L 3250 3244 
Q 3203 3613 3050 3809 
Q 2766 4169 2084 4169 
Q 1534 4169 1293 3937 
Q 1053 3706 1053 3400 
Q 1053 3063 1334 2906 
Q 1519 2806 2169 2656 
L 2813 2509 
Q 3278 2403 3531 2219 
Q 3969 1897 3969 1284 
Q 3969 522 3414 194 
Q 2859 -134 2125 -134 
Q 1269 -134 784 303 
Q 300 738 309 1481 
L 894 1481 
z
M 2150 4716 
L 2150 4716 
z
" transform="scale(0.015625)"/>
        <path id="Helvetica-2b" d="M 288 1369 
L 288 1894 
L 1650 1894 
L 1650 3266 
L 2184 3266 
L 2184 1894 
L 3547 1894 
L 3547 1369 
L 2184 1369 
L 2184 0 
L 1650 0 
L 1650 1369 
L 288 1369 
z
" transform="scale(0.015625)"/>
        <path id="Helvetica-20" transform="scale(0.015625)"/>
        <path id="Helvetica-43" d="M 2422 4716 
Q 3294 4716 3775 4256 
Q 4256 3797 4309 3213 
L 3703 3213 
Q 3600 3656 3292 3915 
Q 2984 4175 2428 4175 
Q 1750 4175 1333 3698 
Q 916 3222 916 2238 
Q 916 1431 1292 929 
Q 1669 428 2416 428 
Q 3103 428 3463 956 
Q 3653 1234 3747 1688 
L 4353 1688 
Q 4272 963 3816 472 
Q 3269 -119 2341 -119 
Q 1541 -119 997 366 
Q 281 1006 281 2344 
Q 281 3359 819 4009 
Q 1400 4716 2422 4716 
z
M 2297 4716 
L 2297 4716 
z
" transform="scale(0.015625)"/>
        <path id="Helvetica-65" d="M 1806 3422 
Q 2163 3422 2497 3255 
Q 2831 3088 3006 2822 
Q 3175 2569 3231 2231 
Q 3281 2000 3281 1494 
L 828 1494 
Q 844 984 1069 676 
Q 1294 369 1766 369 
Q 2206 369 2469 659 
Q 2619 828 2681 1050 
L 3234 1050 
Q 3213 866 3089 639 
Q 2966 413 2813 269 
Q 2556 19 2178 -69 
Q 1975 -119 1719 -119 
Q 1094 -119 659 336 
Q 225 791 225 1609 
Q 225 2416 662 2919 
Q 1100 3422 1806 3422 
z
M 2703 1941 
Q 2669 2306 2544 2525 
Q 2313 2931 1772 2931 
Q 1384 2931 1121 2651 
Q 859 2372 844 1941 
L 2703 1941 
z
M 1753 3428 
L 1753 3428 
z
" transform="scale(0.015625)"/>
        <path id="Helvetica-6c" d="M 428 4591 
L 991 4591 
L 991 0 
L 428 0 
L 428 4591 
z
" transform="scale(0.015625)"/>
        <path id="Helvetica-73" d="M 747 1050 
Q 772 769 888 619 
Q 1100 347 1625 347 
Q 1938 347 2175 483 
Q 2413 619 2413 903 
Q 2413 1119 2222 1231 
Q 2100 1300 1741 1391 
L 1294 1503 
Q 866 1609 663 1741 
Q 300 1969 300 2372 
Q 300 2847 642 3140 
Q 984 3434 1563 3434 
Q 2319 3434 2653 2991 
Q 2863 2709 2856 2384 
L 2325 2384 
Q 2309 2575 2191 2731 
Q 1997 2953 1519 2953 
Q 1200 2953 1036 2831 
Q 872 2709 872 2509 
Q 872 2291 1088 2159 
Q 1213 2081 1456 2022 
L 1828 1931 
Q 2434 1784 2641 1647 
Q 2969 1431 2969 969 
Q 2969 522 2630 197 
Q 2291 -128 1597 -128 
Q 850 -128 539 211 
Q 228 550 206 1050 
L 747 1050 
z
M 1578 3428 
L 1578 3428 
z
" transform="scale(0.015625)"/>
       </defs>
       <use xlink:href="#Helvetica-45"/>
       <use xlink:href="#Helvetica-4f" x="66.699219"/>
       <use xlink:href="#Helvetica-4d" x="144.482422"/>
       <use xlink:href="#Helvetica-45" x="227.783203"/>
       <use xlink:href="#Helvetica-53" x="294.482422"/>
       <use xlink:href="#Helvetica-2b" x="361.181641"/>
       <use xlink:href="#Helvetica-20" x="419.580078"/>
       <use xlink:href="#Helvetica-43" x="447.363281"/>
       <use xlink:href="#Helvetica-65" x="519.580078"/>
       <use xlink:href="#Helvetica-6c" x="575.195312"/>
       <use xlink:href="#Helvetica-6c" x="597.412109"/>
       <use xlink:href="#Helvetica-73" x="619.628906"/>
      </g>
     </g>
    </g>
    <g id="xtick_2">
     <g id="text_2">
      <!-- TBX+ Cells -->
      <g style="fill: #333333" transform="translate(33.569685 81.230229) scale(0.035 -0.035)">
       <defs>
        <path id="Helvetica-54" d="M 3828 4591 
L 3828 4044 
L 2281 4044 
L 2281 0 
L 1650 0 
L 1650 4044 
L 103 4044 
L 103 4591 
L 3828 4591 
z
" transform="scale(0.015625)"/>
        <path id="Helvetica-42" d="M 2213 2650 
Q 2606 2650 2825 2759 
Q 3169 2931 3169 3378 
Q 3169 3828 2803 3984 
Q 2597 4072 2191 4072 
L 1081 4072 
L 1081 2650 
L 2213 2650 
z
M 2422 531 
Q 2994 531 3238 863 
Q 3391 1072 3391 1369 
Q 3391 1869 2944 2050 
Q 2706 2147 2316 2147 
L 1081 2147 
L 1081 531 
L 2422 531 
z
M 472 4591 
L 2444 4591 
Q 3250 4591 3591 4109 
Q 3791 3825 3791 3453 
Q 3791 3019 3544 2741 
Q 3416 2594 3175 2472 
Q 3528 2338 3703 2169 
Q 4013 1869 4013 1341 
Q 4013 897 3734 538 
Q 3319 0 2413 0 
L 472 0 
L 472 4591 
z
" transform="scale(0.015625)"/>
        <path id="Helvetica-58" d="M 881 0 
L 131 0 
L 1775 2353 
L 234 4591 
L 1013 4591 
L 2184 2834 
L 3347 4591 
L 4088 4591 
L 2547 2353 
L 4163 0 
L 3391 0 
L 2153 1888 
L 881 0 
z
" transform="scale(0.015625)"/>
       </defs>
       <use xlink:href="#Helvetica-54"/>
       <use xlink:href="#Helvetica-42" x="61.083984"/>
       <use xlink:href="#Helvetica-58" x="127.783203"/>
       <use xlink:href="#Helvetica-2b" x="194.482422"/>
       <use xlink:href="#Helvetica-20" x="252.880859"/>
       <use xlink:href="#Helvetica-43" x="280.664062"/>
       <use xlink:href="#Helvetica-65" x="352.880859"/>
       <use xlink:href="#Helvetica-6c" x="408.496094"/>
       <use xlink:href="#Helvetica-6c" x="430.712891"/>
       <use xlink:href="#Helvetica-73" x="452.929688"/>
      </g>
     </g>
    </g>
   </g>
   <g id="matplotlib.axis_2">
    <g id="ytick_1">
     <g id="line2d_1">
      <defs>
       <path id="m6672cc2237" d="M 0 0 
L -1 0 
" style="stroke: #777777; stroke-width: 0.5"/>
      </defs>
      <g>
       <use xlink:href="#m6672cc2237" x="10.005084" y="66.189518" style="fill: #777777; stroke: #777777; stroke-width: 0.5"/>
      </g>
     </g>
     <g id="text_3">
      <!-- 0 -->
      <g style="fill: #333333" transform="translate(6.336802 67.265534) scale(0.03 -0.03)">
       <defs>
        <path id="Helvetica-30" d="M 1731 4475 
Q 2600 4475 2988 3759 
Q 3288 3206 3288 2244 
Q 3288 1331 3016 734 
Q 2622 -122 1728 -122 
Q 922 -122 528 578 
Q 200 1163 200 2147 
Q 200 2909 397 3456 
Q 766 4475 1731 4475 
z
M 1725 391 
Q 2163 391 2422 778 
Q 2681 1166 2681 2222 
Q 2681 2984 2493 3476 
Q 2306 3969 1766 3969 
Q 1269 3969 1039 3501 
Q 809 3034 809 2125 
Q 809 1441 956 1025 
Q 1181 391 1725 391 
z
" transform="scale(0.015625)"/>
       </defs>
       <use xlink:href="#Helvetica-30"/>
      </g>
     </g>
    </g>
    <g id="ytick_2">
     <g id="line2d_2">
      <g>
       <use xlink:href="#m6672cc2237" x="10.005084" y="55.837308" style="fill: #777777; stroke: #777777; stroke-width: 0.5"/>
      </g>
     </g>
     <g id="text_4">
      <!-- 20 -->
      <g style="fill: #333333" transform="translate(4.668521 56.913323) scale(0.03 -0.03)">
       <defs>
        <path id="Helvetica-32" d="M 200 0 
Q 231 578 439 1006 
Q 647 1434 1250 1784 
L 1850 2131 
Q 2253 2366 2416 2531 
Q 2672 2791 2672 3125 
Q 2672 3516 2437 3745 
Q 2203 3975 1813 3975 
Q 1234 3975 1013 3538 
Q 894 3303 881 2888 
L 309 2888 
Q 319 3472 525 3841 
Q 891 4491 1816 4491 
Q 2584 4491 2939 4075 
Q 3294 3659 3294 3150 
Q 3294 2613 2916 2231 
Q 2697 2009 2131 1694 
L 1703 1456 
Q 1397 1288 1222 1134 
Q 909 863 828 531 
L 3272 531 
L 3272 0 
L 200 0 
z
" transform="scale(0.015625)"/>
       </defs>
       <use xlink:href="#Helvetica-32"/>
       <use xlink:href="#Helvetica-30" x="55.615234"/>
      </g>
     </g>
    </g>
    <g id="ytick_3">
     <g id="line2d_3">
      <g>
       <use xlink:href="#m6672cc2237" x="10.005084" y="45.485097" style="fill: #777777; stroke: #777777; stroke-width: 0.5"/>
      </g>
     </g>
     <g id="text_5">
      <!-- 40 -->
      <g style="fill: #333333" transform="translate(4.668521 46.561113) scale(0.03 -0.03)">
       <defs>
        <path id="Helvetica-34" d="M 2116 1584 
L 2116 3613 
L 681 1584 
L 2116 1584 
z
M 2125 0 
L 2125 1094 
L 163 1094 
L 163 1644 
L 2213 4488 
L 2688 4488 
L 2688 1584 
L 3347 1584 
L 3347 1094 
L 2688 1094 
L 2688 0 
L 2125 0 
z
" transform="scale(0.015625)"/>
       </defs>
       <use xlink:href="#Helvetica-34"/>
       <use xlink:href="#Helvetica-30" x="55.615234"/>
      </g>
     </g>
    </g>
    <g id="ytick_4">
     <g id="line2d_4">
      <g>
       <use xlink:href="#m6672cc2237" x="10.005084" y="35.132887" style="fill: #777777; stroke: #777777; stroke-width: 0.5"/>
      </g>
     </g>
     <g id="text_6">
      <!-- 60 -->
      <g style="fill: #333333" transform="translate(4.668521 36.208903) scale(0.03 -0.03)">
       <defs>
        <path id="Helvetica-36" d="M 1872 4494 
Q 2622 4494 2917 4105 
Q 3213 3716 3213 3303 
L 2656 3303 
Q 2606 3569 2497 3719 
Q 2294 4000 1881 4000 
Q 1409 4000 1131 3564 
Q 853 3128 822 2316 
Q 1016 2600 1309 2741 
Q 1578 2866 1909 2866 
Q 2472 2866 2890 2506 
Q 3309 2147 3309 1434 
Q 3309 825 2912 354 
Q 2516 -116 1781 -116 
Q 1153 -116 697 361 
Q 241 838 241 1966 
Q 241 2800 444 3381 
Q 834 4494 1872 4494 
z
M 1831 384 
Q 2275 384 2495 682 
Q 2716 981 2716 1388 
Q 2716 1731 2519 2042 
Q 2322 2353 1803 2353 
Q 1441 2353 1167 2112 
Q 894 1872 894 1388 
Q 894 963 1142 673 
Q 1391 384 1831 384 
z
" transform="scale(0.015625)"/>
       </defs>
       <use xlink:href="#Helvetica-36"/>
       <use xlink:href="#Helvetica-30" x="55.615234"/>
      </g>
     </g>
    </g>
    <g id="ytick_5">
     <g id="line2d_5">
      <g>
       <use xlink:href="#m6672cc2237" x="10.005084" y="24.780677" style="fill: #777777; stroke: #777777; stroke-width: 0.5"/>
      </g>
     </g>
     <g id="text_7">
      <!-- 80 -->
      <g style="fill: #333333" transform="translate(4.668521 25.856692) scale(0.03 -0.03)">
       <defs>
        <path id="Helvetica-38" d="M 1741 2600 
Q 2113 2600 2322 2808 
Q 2531 3016 2531 3303 
Q 2531 3553 2331 3762 
Q 2131 3972 1722 3972 
Q 1316 3972 1134 3762 
Q 953 3553 953 3272 
Q 953 2956 1187 2778 
Q 1422 2600 1741 2600 
z
M 1775 384 
Q 2166 384 2423 595 
Q 2681 806 2681 1225 
Q 2681 1659 2415 1884 
Q 2150 2109 1734 2109 
Q 1331 2109 1076 1879 
Q 822 1650 822 1244 
Q 822 894 1055 639 
Q 1288 384 1775 384 
z
M 975 2384 
Q 741 2484 609 2619 
Q 363 2869 363 3269 
Q 363 3769 725 4128 
Q 1088 4488 1753 4488 
Q 2397 4488 2762 4148 
Q 3128 3809 3128 3356 
Q 3128 2938 2916 2678 
Q 2797 2531 2547 2391 
Q 2825 2263 2984 2097 
Q 3281 1784 3281 1284 
Q 3281 694 2884 283 
Q 2488 -128 1763 -128 
Q 1109 -128 657 226 
Q 206 581 206 1256 
Q 206 1653 400 1942 
Q 594 2231 975 2384 
z
" transform="scale(0.015625)"/>
       </defs>
       <use xlink:href="#Helvetica-38"/>
       <use xlink:href="#Helvetica-30" x="55.615234"/>
      </g>
     </g>
    </g>
    <g id="ytick_6">
     <g id="line2d_6">
      <g>
       <use xlink:href="#m6672cc2237" x="10.005084" y="14.428466" style="fill: #777777; stroke: #777777; stroke-width: 0.5"/>
      </g>
     </g>
     <g id="text_8">
      <!-- 100 -->
      <g style="fill: #333333" transform="translate(3.00024 15.504482) scale(0.03 -0.03)">
       <defs>
        <path id="Helvetica-31" d="M 613 3169 
L 613 3600 
Q 1222 3659 1462 3798 
Q 1703 3938 1822 4456 
L 2266 4456 
L 2266 0 
L 1666 0 
L 1666 3169 
L 613 3169 
z
" transform="scale(0.015625)"/>
       </defs>
       <use xlink:href="#Helvetica-31"/>
       <use xlink:href="#Helvetica-30" x="55.615234"/>
       <use xlink:href="#Helvetica-30" x="111.230469"/>
      </g>
     </g>
    </g>
    <g id="ytick_7">
     <g id="line2d_7">
      <g>
       <use xlink:href="#m6672cc2237" x="10.005084" y="4.076256" style="fill: #777777; stroke: #777777; stroke-width: 0.5"/>
      </g>
     </g>
     <g id="text_9">
      <!-- 120 -->
      <g style="fill: #333333" transform="translate(3.00024 5.152271) scale(0.03 -0.03)">
       <use xlink:href="#Helvetica-31"/>
       <use xlink:href="#Helvetica-32" x="55.615234"/>
       <use xlink:href="#Helvetica-30" x="111.230469"/>
      </g>
     </g>
    </g>
   </g>
   <g id="PolyCollection_1">
    <defs>
     <path id="m8ccccabe63" d="M 21.750759 -18.100211 
L 19.836747 -18.100211 
L 19.659487 -18.171504 
L 19.466849 -18.242797 
L 19.261311 -18.31409 
L 19.046067 -18.385383 
L 18.824892 -18.456676 
L 18.601948 -18.527969 
L 18.381531 -18.599262 
L 18.167794 -18.670555 
L 17.964464 -18.741848 
L 17.774576 -18.813141 
L 17.600262 -18.884434 
L 17.442618 -18.955727 
L 17.301652 -19.02702 
L 17.176342 -19.098313 
L 17.064778 -19.169606 
L 16.964385 -19.240899 
L 16.872201 -19.312192 
L 16.785168 -19.383485 
L 16.700419 -19.454778 
L 16.615521 -19.526071 
L 16.528645 -19.597364 
L 16.438667 -19.668657 
L 16.34517 -19.73995 
L 16.248377 -19.811243 
L 16.149016 -19.882536 
L 16.048138 -19.953829 
L 15.946925 -20.025122 
L 15.846489 -20.096415 
L 15.747701 -20.167708 
L 15.651055 -20.239001 
L 15.556575 -20.310294 
L 15.46377 -20.381587 
L 15.371637 -20.45288 
L 15.278705 -20.524173 
L 15.183116 -20.595466 
L 15.082735 -20.666759 
L 14.975287 -20.738052 
L 14.85851 -20.809345 
L 14.730327 -20.880638 
L 14.58902 -20.951931 
L 14.433407 -21.023224 
L 14.263012 -21.094517 
L 14.078212 -21.16581 
L 13.880363 -21.237103 
L 13.671871 -21.308396 
L 13.456229 -21.379689 
L 13.23798 -21.450982 
L 13.022627 -21.522275 
L 12.816471 -21.593568 
L 12.6264 -21.664861 
L 12.459616 -21.736154 
L 12.323329 -21.807447 
L 12.224431 -21.87874 
L 12.169167 -21.950033 
L 12.162818 -22.021326 
L 12.209417 -22.092619 
L 12.311527 -22.163912 
L 12.470059 -22.235205 
L 12.684184 -22.306498 
L 12.951302 -22.377792 
L 13.267096 -22.449085 
L 13.625652 -22.520378 
L 14.019645 -22.591671 
L 14.440583 -22.662964 
L 14.879094 -22.734257 
L 15.32525 -22.80555 
L 15.768914 -22.876843 
L 16.200101 -22.948136 
L 16.609341 -23.019429 
L 16.988025 -23.090722 
L 17.328734 -23.162015 
L 17.625532 -23.233308 
L 17.874204 -23.304601 
L 18.072434 -23.375894 
L 18.219912 -23.447187 
L 18.318352 -23.51848 
L 18.371421 -23.589773 
L 18.384571 -23.661066 
L 18.364779 -23.732359 
L 18.320203 -23.803652 
L 18.25977 -23.874945 
L 18.192713 -23.946238 
L 18.128091 -24.017531 
L 18.074314 -24.088824 
L 18.038712 -24.160117 
L 18.027174 -24.23141 
L 18.043886 -24.302703 
L 18.091179 -24.373996 
L 18.169504 -24.445289 
L 18.277535 -24.516582 
L 18.412371 -24.587875 
L 18.569837 -24.659168 
L 18.744842 -24.730461 
L 18.93177 -24.801754 
L 19.124862 -24.873047 
L 19.318574 -24.94434 
L 19.507871 -25.015633 
L 19.688456 -25.086926 
L 19.856914 -25.158219 
L 21.730592 -25.158219 
L 21.730592 -25.158219 
L 21.899049 -25.086926 
L 22.079635 -25.015633 
L 22.268932 -24.94434 
L 22.462643 -24.873047 
L 22.655735 -24.801754 
L 22.842663 -24.730461 
L 23.017669 -24.659168 
L 23.175135 -24.587875 
L 23.309971 -24.516582 
L 23.418001 -24.445289 
L 23.496327 -24.373996 
L 23.543619 -24.302703 
L 23.560331 -24.23141 
L 23.548794 -24.160117 
L 23.513192 -24.088824 
L 23.459415 -24.017531 
L 23.394793 -23.946238 
L 23.327736 -23.874945 
L 23.267303 -23.803652 
L 23.222727 -23.732359 
L 23.202934 -23.661066 
L 23.216084 -23.589773 
L 23.269154 -23.51848 
L 23.367594 -23.447187 
L 23.515072 -23.375894 
L 23.713302 -23.304601 
L 23.961973 -23.233308 
L 24.258771 -23.162015 
L 24.599481 -23.090722 
L 24.978164 -23.019429 
L 25.387404 -22.948136 
L 25.818592 -22.876843 
L 26.262256 -22.80555 
L 26.708412 -22.734257 
L 27.146923 -22.662964 
L 27.567861 -22.591671 
L 27.961854 -22.520378 
L 28.320409 -22.449085 
L 28.636203 -22.377792 
L 28.903322 -22.306498 
L 29.117447 -22.235205 
L 29.275979 -22.163912 
L 29.378088 -22.092619 
L 29.424688 -22.021326 
L 29.418338 -21.950033 
L 29.363074 -21.87874 
L 29.264177 -21.807447 
L 29.12789 -21.736154 
L 28.961105 -21.664861 
L 28.771034 -21.593568 
L 28.564879 -21.522275 
L 28.349525 -21.450982 
L 28.131276 -21.379689 
L 27.915634 -21.308396 
L 27.707143 -21.237103 
L 27.509293 -21.16581 
L 27.324494 -21.094517 
L 27.154098 -21.023224 
L 26.998485 -20.951931 
L 26.857178 -20.880638 
L 26.728995 -20.809345 
L 26.612219 -20.738052 
L 26.504771 -20.666759 
L 26.40439 -20.595466 
L 26.308801 -20.524173 
L 26.215869 -20.45288 
L 26.123736 -20.381587 
L 26.030931 -20.310294 
L 25.936451 -20.239001 
L 25.839805 -20.167708 
L 25.741017 -20.096415 
L 25.640581 -20.025122 
L 25.539368 -19.953829 
L 25.43849 -19.882536 
L 25.339128 -19.811243 
L 25.242336 -19.73995 
L 25.148839 -19.668657 
L 25.05886 -19.597364 
L 24.971985 -19.526071 
L 24.887086 -19.454778 
L 24.802338 -19.383485 
L 24.715305 -19.312192 
L 24.62312 -19.240899 
L 24.522728 -19.169606 
L 24.411163 -19.098313 
L 24.285853 -19.02702 
L 24.144888 -18.955727 
L 23.987243 -18.884434 
L 23.81293 -18.813141 
L 23.623041 -18.741848 
L 23.419711 -18.670555 
L 23.205975 -18.599262 
L 22.985558 -18.527969 
L 22.762613 -18.456676 
L 22.541439 -18.385383 
L 22.326195 -18.31409 
L 22.120656 -18.242797 
L 21.928019 -18.171504 
L 21.750759 -18.100211 
z
" style="stroke: #6f6f6f; stroke-width: 0.15"/>
    </defs>
    <g clip-path="url(#p0566bbbafe)">
     <use xlink:href="#m8ccccabe63" x="0" y="84.96" style="fill: #f2aba8; stroke: #6f6f6f; stroke-width: 0.15"/>
    </g>
   </g>
   <g id="PolyCollection_2">
    <defs>
     <path id="md9f96112ec" d="M 43.498674 -18.523507 
L 41.243508 -18.523507 
L 41.009848 -18.587352 
L 40.744384 -18.651198 
L 40.446388 -18.715043 
L 40.115848 -18.778889 
L 39.753566 -18.842734 
L 39.361242 -18.906579 
L 38.941531 -18.970425 
L 38.498092 -19.03427 
L 38.0356 -19.098115 
L 37.559744 -19.161961 
L 37.077187 -19.225806 
L 36.595492 -19.289651 
L 36.123005 -19.353497 
L 35.668688 -19.417342 
L 35.241895 -19.481187 
L 34.852091 -19.545033 
L 34.508513 -19.608878 
L 34.21978 -19.672723 
L 33.993468 -19.736569 
L 33.835676 -19.800414 
L 33.750599 -19.864259 
L 33.740156 -19.928105 
L 33.803696 -19.99195 
L 33.937822 -20.055795 
L 34.136358 -20.119641 
L 34.390463 -20.183486 
L 34.688931 -20.247331 
L 35.01863 -20.311177 
L 35.365089 -20.375022 
L 35.713185 -20.438867 
L 36.047896 -20.502713 
L 36.355064 -20.566558 
L 36.622125 -20.630404 
L 36.838759 -20.694249 
L 36.997406 -20.758094 
L 37.09364 -20.82194 
L 37.126357 -20.885785 
L 37.097776 -20.94963 
L 37.01327 -21.013476 
L 36.881025 -21.077321 
L 36.711556 -21.141166 
L 36.517126 -21.205012 
L 36.311083 -21.268857 
L 36.107174 -21.332702 
L 35.918867 -21.396548 
L 35.758707 -21.460393 
L 35.637766 -21.524238 
L 35.565174 -21.588084 
L 35.547783 -21.651929 
L 35.589955 -21.715774 
L 35.693483 -21.77962 
L 35.857641 -21.843465 
L 36.079347 -21.90731 
L 36.353433 -21.971156 
L 36.672979 -22.035001 
L 37.029716 -22.098846 
L 37.414451 -22.162692 
L 37.817492 -22.226537 
L 38.22906 -22.290383 
L 38.639659 -22.354228 
L 39.040394 -22.418073 
L 39.423219 -22.481919 
L 39.781122 -22.545764 
L 40.108232 -22.609609 
L 40.399876 -22.673455 
L 40.652565 -22.7373 
L 40.863959 -22.801145 
L 41.032787 -22.864991 
L 41.15877 -22.928836 
L 41.242535 -22.992681 
L 41.285541 -23.056527 
L 41.290018 -23.120372 
L 41.258919 -23.184217 
L 41.195887 -23.248063 
L 41.105215 -23.311908 
L 40.991807 -23.375753 
L 40.86111 -23.439599 
L 40.719022 -23.503444 
L 40.571768 -23.567289 
L 40.425722 -23.631135 
L 40.287209 -23.69498 
L 40.162274 -23.758825 
L 40.056428 -23.822671 
L 39.974416 -23.886516 
L 39.919992 -23.950361 
L 39.895744 -24.014207 
L 39.90298 -24.078052 
L 39.941682 -24.141898 
L 40.010538 -24.205743 
L 40.107047 -24.269588 
L 40.227704 -24.333434 
L 40.368222 -24.397279 
L 40.523799 -24.461124 
L 40.689402 -24.52497 
L 40.860035 -24.588815 
L 41.030986 -24.65266 
L 41.198034 -24.716506 
L 41.357597 -24.780351 
L 41.506831 -24.844196 
L 43.235351 -24.844196 
L 43.235351 -24.844196 
L 43.384585 -24.780351 
L 43.544148 -24.716506 
L 43.711196 -24.65266 
L 43.882147 -24.588815 
L 44.052779 -24.52497 
L 44.218383 -24.461124 
L 44.37396 -24.397279 
L 44.514477 -24.333434 
L 44.635134 -24.269588 
L 44.731644 -24.205743 
L 44.8005 -24.141898 
L 44.839202 -24.078052 
L 44.846438 -24.014207 
L 44.82219 -23.950361 
L 44.767766 -23.886516 
L 44.685754 -23.822671 
L 44.579908 -23.758825 
L 44.454972 -23.69498 
L 44.31646 -23.631135 
L 44.170414 -23.567289 
L 44.023159 -23.503444 
L 43.881072 -23.439599 
L 43.750375 -23.375753 
L 43.636966 -23.311908 
L 43.546295 -23.248063 
L 43.483263 -23.184217 
L 43.452164 -23.120372 
L 43.456641 -23.056527 
L 43.499647 -22.992681 
L 43.583412 -22.928836 
L 43.709395 -22.864991 
L 43.878223 -22.801145 
L 44.089617 -22.7373 
L 44.342306 -22.673455 
L 44.63395 -22.609609 
L 44.96106 -22.545764 
L 45.318963 -22.481919 
L 45.701788 -22.418073 
L 46.102523 -22.354228 
L 46.513122 -22.290383 
L 46.92469 -22.226537 
L 47.327731 -22.162692 
L 47.712466 -22.098846 
L 48.069203 -22.035001 
L 48.388749 -21.971156 
L 48.662835 -21.90731 
L 48.884541 -21.843465 
L 49.048699 -21.77962 
L 49.152227 -21.715774 
L 49.194399 -21.651929 
L 49.177007 -21.588084 
L 49.104416 -21.524238 
L 48.983475 -21.460393 
L 48.823315 -21.396548 
L 48.635007 -21.332702 
L 48.431099 -21.268857 
L 48.225056 -21.205012 
L 48.030626 -21.141166 
L 47.861157 -21.077321 
L 47.728912 -21.013476 
L 47.644406 -20.94963 
L 47.615825 -20.885785 
L 47.648542 -20.82194 
L 47.744776 -20.758094 
L 47.903423 -20.694249 
L 48.120057 -20.630404 
L 48.387118 -20.566558 
L 48.694286 -20.502713 
L 49.028997 -20.438867 
L 49.377093 -20.375022 
L 49.723552 -20.311177 
L 50.053251 -20.247331 
L 50.351719 -20.183486 
L 50.605824 -20.119641 
L 50.804359 -20.055795 
L 50.938486 -19.99195 
L 51.002026 -19.928105 
L 50.991583 -19.864259 
L 50.906505 -19.800414 
L 50.748713 -19.736569 
L 50.522402 -19.672723 
L 50.233669 -19.608878 
L 49.890091 -19.545033 
L 49.500287 -19.481187 
L 49.073494 -19.417342 
L 48.619177 -19.353497 
L 48.14669 -19.289651 
L 47.664995 -19.225806 
L 47.182438 -19.161961 
L 46.706582 -19.098115 
L 46.24409 -19.03427 
L 45.80065 -18.970425 
L 45.38094 -18.906579 
L 44.988616 -18.842734 
L 44.626334 -18.778889 
L 44.295794 -18.715043 
L 43.997798 -18.651198 
L 43.732334 -18.587352 
L 43.498674 -18.523507 
z
" style="stroke: #6f6f6f; stroke-width: 0.15"/>
    </defs>
    <g clip-path="url(#p0566bbbafe)">
     <use xlink:href="#md9f96112ec" x="0" y="84.96" style="fill: #d3c4f6; stroke: #6f6f6f; stroke-width: 0.15"/>
    </g>
   </g>
   <g id="line2d_8">
    <path d="M 20.793753 65.98936 
L 20.793753 60.67221 
" clip-path="url(#p0566bbbafe)" style="fill: none; stroke: #8c8c8c; stroke-width: 0.75; stroke-linecap: round"/>
   </g>
   <g id="line2d_9">
    <path d="M 20.793753 64.43567 
L 20.793753 62.659664 
" clip-path="url(#p0566bbbafe)" style="fill: none; stroke: #8c8c8c; stroke-width: 4; stroke-linecap: round"/>
   </g>
   <g id="line2d_10">
    <path d="M 20.793753 63.271511 
" clip-path="url(#p0566bbbafe)" style="fill: none; stroke: #6f6f6f; stroke-width: 1.2; stroke-linecap: round"/>
    <defs>
     <path id="m1c0626104d" d="M 0 0.833333 
C 0.221003 0.833333 0.432983 0.745528 0.589256 0.589256 
C 0.745528 0.432983 0.833333 0.221003 0.833333 0 
C 0.833333 -0.221003 0.745528 -0.432983 0.589256 -0.589256 
C 0.432983 -0.745528 0.221003 -0.833333 0 -0.833333 
C -0.221003 -0.833333 -0.432983 -0.745528 -0.589256 -0.589256 
C -0.745528 -0.432983 -0.833333 -0.221003 -0.833333 0 
C -0.833333 0.221003 -0.745528 0.432983 -0.589256 0.589256 
C -0.432983 0.745528 -0.221003 0.833333 0 0.833333 
z
" style="stroke: #ffffff; stroke-width: 0.8"/>
    </defs>
    <g clip-path="url(#p0566bbbafe)">
     <use xlink:href="#m1c0626104d" x="20.793753" y="63.271511" style="fill: #ffffff; stroke: #ffffff; stroke-width: 0.8"/>
    </g>
   </g>
   <g id="line2d_11">
    <path d="M 42.371091 65.626976 
L 42.371091 60.925321 
" clip-path="url(#p0566bbbafe)" style="fill: none; stroke: #8c8c8c; stroke-width: 0.75; stroke-linecap: round"/>
   </g>
   <g id="line2d_12">
    <path d="M 42.371091 64.940354 
L 42.371091 63.221234 
" clip-path="url(#p0566bbbafe)" style="fill: none; stroke: #8c8c8c; stroke-width: 4; stroke-linecap: round"/>
   </g>
   <g id="line2d_13">
    <path d="M 42.371091 64.20716 
" clip-path="url(#p0566bbbafe)" style="fill: none; stroke: #6f6f6f; stroke-width: 1.2; stroke-linecap: round"/>
    <g clip-path="url(#p0566bbbafe)">
     <use xlink:href="#m1c0626104d" x="42.371091" y="64.20716" style="fill: #ffffff; stroke: #ffffff; stroke-width: 0.8"/>
    </g>
   </g>
   <g id="patch_3">
    <path d="M 10.005084 74.419526 
L 10.005084 4.076256 
" style="fill: none; stroke: #777777; stroke-width: 0.5; stroke-linejoin: miter; stroke-linecap: square"/>
   </g>
   <g id="patch_4">
    <path d="M 10.005084 76.919526 
L 53.15976 76.919526 
" style="fill: none; stroke: #777777; stroke-width: 0.5; stroke-linejoin: miter; stroke-linecap: square"/>
   </g>
  </g>
 </g>
 <defs>
  <clipPath id="p0566bbbafe">
   <rect x="10.005084" y="4.076256" width="43.154676" height="70.34327"/>
  </clipPath>
 </defs>
</svg>
