<?xml version="1.0" encoding="utf-8" standalone="no"?>
<!DOCTYPE svg PUBLIC "-//W3C//DTD SVG 1.1//EN"
  "http://www.w3.org/Graphics/SVG/1.1/DTD/svg11.dtd">
<svg xmlns:xlink="http://www.w3.org/1999/xlink" width="254.88pt" height="84.96pt" viewBox="0 0 254.88 84.96" xmlns="http://www.w3.org/2000/svg" version="1.1">
 <metadata>
  <rdf:RDF xmlns:dc="http://purl.org/dc/elements/1.1/" xmlns:cc="http://creativecommons.org/ns#" xmlns:rdf="http://www.w3.org/1999/02/22-rdf-syntax-ns#">
   <cc:Work>
    <dc:type rdf:resource="http://purl.org/dc/dcmitype/StillImage"/>
    <dc:date>2024-05-27T15:36:56.660312</dc:date>
    <dc:format>image/svg+xml</dc:format>
    <dc:creator>
     <cc:Agent>
      <dc:title>Matplotlib v3.8.3, https://matplotlib.org/</dc:title>
     </cc:Agent>
    </dc:creator>
   </cc:Work>
  </rdf:RDF>
 </metadata>
 <defs>
  <style type="text/css">*{stroke-linejoin: round; stroke-linecap: butt}</style>
 </defs>
 <g id="figure_1">
  <g id="patch_1">
   <path d="M 0 84.96 
L 254.88 84.96 
L 254.88 0 
L 0 0 
z
" style="fill: #ffffff"/>
  </g>
  <g id="axes_1">
   <g id="patch_2">
    <path d="M 10.005084 54.222338 
L 251.87976 54.222338 
L 251.87976 4.076256 
L 10.005084 4.076256 
z
" style="fill: #ffffff"/>
   </g>
   <g id="matplotlib.axis_1">
    <g id="xtick_1">
     <g id="text_1">
      <!-- CD20+ Cells -->
      <g style="fill: #333333" transform="translate(24.333152 78.266166) rotate(-90) scale(0.035 -0.035)">
       <defs>
        <path id="Helvetica-43" d="M 2422 4716 
Q 3294 4716 3775 4256 
Q 4256 3797 4309 3213 
L 3703 3213 
Q 3600 3656 3292 3915 
Q 2984 4175 2428 4175 
Q 1750 4175 1333 3698 
Q 916 3222 916 2238 
Q 916 1431 1292 929 
Q 1669 428 2416 428 
Q 3103 428 3463 956 
Q 3653 1234 3747 1688 
L 4353 1688 
Q 4272 963 3816 472 
Q 3269 -119 2341 -119 
Q 1541 -119 997 366 
Q 281 1006 281 2344 
Q 281 3359 819 4009 
Q 1400 4716 2422 4716 
z
M 2297 4716 
L 2297 4716 
z
" transform="scale(0.015625)"/>
        <path id="Helvetica-44" d="M 2250 531 
Q 2566 531 2769 597 
Q 3131 719 3363 1066 
Q 3547 1344 3628 1778 
Q 3675 2038 3675 2259 
Q 3675 3113 3336 3584 
Q 2997 4056 2244 4056 
L 1141 4056 
L 1141 531 
L 2250 531 
z
M 516 4591 
L 2375 4591 
Q 3322 4591 3844 3919 
Q 4309 3313 4309 2366 
Q 4309 1634 4034 1044 
Q 3550 0 2369 0 
L 516 0 
L 516 4591 
z
" transform="scale(0.015625)"/>
        <path id="Helvetica-32" d="M 200 0 
Q 231 578 439 1006 
Q 647 1434 1250 1784 
L 1850 2131 
Q 2253 2366 2416 2531 
Q 2672 2791 2672 3125 
Q 2672 3516 2437 3745 
Q 2203 3975 1813 3975 
Q 1234 3975 1013 3538 
Q 894 3303 881 2888 
L 309 2888 
Q 319 3472 525 3841 
Q 891 4491 1816 4491 
Q 2584 4491 2939 4075 
Q 3294 3659 3294 3150 
Q 3294 2613 2916 2231 
Q 2697 2009 2131 1694 
L 1703 1456 
Q 1397 1288 1222 1134 
Q 909 863 828 531 
L 3272 531 
L 3272 0 
L 200 0 
z
" transform="scale(0.015625)"/>
        <path id="Helvetica-30" d="M 1731 4475 
Q 2600 4475 2988 3759 
Q 3288 3206 3288 2244 
Q 3288 1331 3016 734 
Q 2622 -122 1728 -122 
Q 922 -122 528 578 
Q 200 1163 200 2147 
Q 200 2909 397 3456 
Q 766 4475 1731 4475 
z
M 1725 391 
Q 2163 391 2422 778 
Q 2681 1166 2681 2222 
Q 2681 2984 2493 3476 
Q 2306 3969 1766 3969 
Q 1269 3969 1039 3501 
Q 809 3034 809 2125 
Q 809 1441 956 1025 
Q 1181 391 1725 391 
z
" transform="scale(0.015625)"/>
        <path id="Helvetica-2b" d="M 288 1369 
L 288 1894 
L 1650 1894 
L 1650 3266 
L 2184 3266 
L 2184 1894 
L 3547 1894 
L 3547 1369 
L 2184 1369 
L 2184 0 
L 1650 0 
L 1650 1369 
L 288 1369 
z
" transform="scale(0.015625)"/>
        <path id="Helvetica-20" transform="scale(0.015625)"/>
        <path id="Helvetica-65" d="M 1806 3422 
Q 2163 3422 2497 3255 
Q 2831 3088 3006 2822 
Q 3175 2569 3231 2231 
Q 3281 2000 3281 1494 
L 828 1494 
Q 844 984 1069 676 
Q 1294 369 1766 369 
Q 2206 369 2469 659 
Q 2619 828 2681 1050 
L 3234 1050 
Q 3213 866 3089 639 
Q 2966 413 2813 269 
Q 2556 19 2178 -69 
Q 1975 -119 1719 -119 
Q 1094 -119 659 336 
Q 225 791 225 1609 
Q 225 2416 662 2919 
Q 1100 3422 1806 3422 
z
M 2703 1941 
Q 2669 2306 2544 2525 
Q 2313 2931 1772 2931 
Q 1384 2931 1121 2651 
Q 859 2372 844 1941 
L 2703 1941 
z
M 1753 3428 
L 1753 3428 
z
" transform="scale(0.015625)"/>
        <path id="Helvetica-6c" d="M 428 4591 
L 991 4591 
L 991 0 
L 428 0 
L 428 4591 
z
" transform="scale(0.015625)"/>
        <path id="Helvetica-73" d="M 747 1050 
Q 772 769 888 619 
Q 1100 347 1625 347 
Q 1938 347 2175 483 
Q 2413 619 2413 903 
Q 2413 1119 2222 1231 
Q 2100 1300 1741 1391 
L 1294 1503 
Q 866 1609 663 1741 
Q 300 1969 300 2372 
Q 300 2847 642 3140 
Q 984 3434 1563 3434 
Q 2319 3434 2653 2991 
Q 2863 2709 2856 2384 
L 2325 2384 
Q 2309 2575 2191 2731 
Q 1997 2953 1519 2953 
Q 1200 2953 1036 2831 
Q 872 2709 872 2509 
Q 872 2291 1088 2159 
Q 1213 2081 1456 2022 
L 1828 1931 
Q 2434 1784 2641 1647 
Q 2969 1431 2969 969 
Q 2969 522 2630 197 
Q 2291 -128 1597 -128 
Q 850 -128 539 211 
Q 228 550 206 1050 
L 747 1050 
z
M 1578 3428 
L 1578 3428 
z
" transform="scale(0.015625)"/>
       </defs>
       <use xlink:href="#Helvetica-43"/>
       <use xlink:href="#Helvetica-44" x="72.216797"/>
       <use xlink:href="#Helvetica-32" x="144.433594"/>
       <use xlink:href="#Helvetica-30" x="200.048828"/>
       <use xlink:href="#Helvetica-2b" x="255.664062"/>
       <use xlink:href="#Helvetica-20" x="314.0625"/>
       <use xlink:href="#Helvetica-43" x="341.845703"/>
       <use xlink:href="#Helvetica-65" x="414.0625"/>
       <use xlink:href="#Helvetica-6c" x="469.677734"/>
       <use xlink:href="#Helvetica-6c" x="491.894531"/>
       <use xlink:href="#Helvetica-73" x="514.111328"/>
      </g>
     </g>
    </g>
    <g id="xtick_2">
     <g id="text_2">
      <!-- TCRαδ+ Cells -->
      <g style="fill: #333333" transform="translate(51.208116 80.786713) rotate(-90) scale(0.035 -0.035)">
       <defs>
        <path id="Helvetica-54" d="M 3828 4591 
L 3828 4044 
L 2281 4044 
L 2281 0 
L 1650 0 
L 1650 4044 
L 103 4044 
L 103 4591 
L 3828 4591 
z
" transform="scale(0.015625)"/>
        <path id="Helvetica-52" d="M 2622 2488 
Q 3059 2488 3314 2663 
Q 3569 2838 3569 3294 
Q 3569 3784 3213 3963 
Q 3022 4056 2703 4056 
L 1184 4056 
L 1184 2488 
L 2622 2488 
z
M 563 4591 
L 2688 4591 
Q 3213 4591 3553 4438 
Q 4200 4144 4200 3353 
Q 4200 2941 4029 2678 
Q 3859 2416 3553 2256 
Q 3822 2147 3958 1969 
Q 4094 1791 4109 1391 
L 4131 775 
Q 4141 513 4175 384 
Q 4231 166 4375 103 
L 4375 0 
L 3613 0 
Q 3581 59 3562 153 
Q 3544 247 3531 516 
L 3494 1281 
Q 3472 1731 3159 1884 
Q 2981 1969 2600 1969 
L 1184 1969 
L 1184 0 
L 563 0 
L 563 4591 
z
" transform="scale(0.015625)"/>
        <path id="Helvetica-3b1" d="M 3347 703 
Q 3334 428 3525 434 
Q 3641 434 3700 475 
L 3700 -19 
Q 3628 -44 3513 -50 
Q 3391 -63 3309 -63 
Q 3084 -56 2956 103 
Q 2816 256 2816 475 
L 2803 475 
Q 2413 -63 1734 -63 
Q 1006 -50 647 459 
Q 281 953 281 1644 
Q 281 2350 634 2859 
Q 984 3378 1741 3391 
Q 2413 3391 2797 2847 
L 2809 2847 
L 2809 3328 
L 3347 3328 
L 3347 703 
z
M 1825 397 
Q 2075 397 2253 513 
Q 2425 622 2541 806 
Q 2766 1184 2766 1638 
Q 2766 2144 2559 2528 
Q 2350 2919 1797 2931 
Q 1306 2919 1081 2534 
Q 856 2156 856 1697 
Q 856 1209 1081 819 
Q 1306 409 1825 397 
z
" transform="scale(0.015625)"/>
        <path id="Helvetica-3b4" d="M 666 4519 
L 3188 4519 
L 3188 4056 
L 1394 4056 
L 1394 4044 
L 2509 3303 
Q 3134 2881 3372 2469 
Q 3591 2053 3584 1600 
Q 3578 934 3163 447 
Q 2738 -50 1938 -63 
Q 1203 -56 769 403 
Q 331 850 325 1556 
Q 341 3066 1863 3188 
L 1863 3200 
L 666 4056 
L 666 4519 
z
M 1991 397 
Q 2497 403 2731 794 
Q 2969 1166 2969 1606 
Q 2969 1856 2919 2041 
Q 2866 2222 2791 2344 
Q 2713 2463 2638 2541 
Q 2559 2619 2509 2650 
Q 2381 2766 2156 2766 
Q 947 2766 941 1528 
Q 941 1056 1216 738 
Q 1491 403 1991 397 
z
" transform="scale(0.015625)"/>
       </defs>
       <use xlink:href="#Helvetica-54"/>
       <use xlink:href="#Helvetica-43" x="61.083984"/>
       <use xlink:href="#Helvetica-52" x="133.300781"/>
       <use xlink:href="#Helvetica-3b1" x="205.517578"/>
       <use xlink:href="#Helvetica-3b4" x="266.601562"/>
       <use xlink:href="#Helvetica-2b" x="327.685547"/>
       <use xlink:href="#Helvetica-20" x="386.083984"/>
       <use xlink:href="#Helvetica-43" x="413.867188"/>
       <use xlink:href="#Helvetica-65" x="486.083984"/>
       <use xlink:href="#Helvetica-6c" x="541.699219"/>
       <use xlink:href="#Helvetica-6c" x="563.916016"/>
       <use xlink:href="#Helvetica-73" x="586.132812"/>
      </g>
     </g>
    </g>
    <g id="xtick_3">
     <g id="text_3">
      <!-- IL7R+ Cells -->
      <g style="fill: #333333" transform="translate(78.08308 76.710854) rotate(-90) scale(0.035 -0.035)">
       <defs>
        <path id="Helvetica-49" d="M 628 4591 
L 1256 4591 
L 1256 0 
L 628 0 
L 628 4591 
z
" transform="scale(0.015625)"/>
        <path id="Helvetica-4c" d="M 488 4591 
L 1109 4591 
L 1109 547 
L 3434 547 
L 3434 0 
L 488 0 
L 488 4591 
z
" transform="scale(0.015625)"/>
        <path id="Helvetica-37" d="M 3347 4400 
L 3347 3909 
Q 3131 3700 2773 3181 
Q 2416 2663 2141 2063 
Q 1869 1478 1728 997 
Q 1638 688 1494 0 
L 872 0 
Q 1084 1281 1809 2550 
Q 2238 3294 2709 3834 
L 234 3834 
L 234 4400 
L 3347 4400 
z
" transform="scale(0.015625)"/>
       </defs>
       <use xlink:href="#Helvetica-49"/>
       <use xlink:href="#Helvetica-4c" x="27.783203"/>
       <use xlink:href="#Helvetica-37" x="83.398438"/>
       <use xlink:href="#Helvetica-52" x="139.013672"/>
       <use xlink:href="#Helvetica-2b" x="211.230469"/>
       <use xlink:href="#Helvetica-20" x="269.628906"/>
       <use xlink:href="#Helvetica-43" x="297.412109"/>
       <use xlink:href="#Helvetica-65" x="369.628906"/>
       <use xlink:href="#Helvetica-6c" x="425.244141"/>
       <use xlink:href="#Helvetica-6c" x="447.460938"/>
       <use xlink:href="#Helvetica-73" x="469.677734"/>
      </g>
     </g>
    </g>
    <g id="xtick_4">
     <g id="text_4">
      <!-- EOMES+ Cells -->
      <g style="fill: #333333" transform="translate(104.958044 81.95976) rotate(-90) scale(0.035 -0.035)">
       <defs>
        <path id="Helvetica-45" d="M 547 4591 
L 3894 4591 
L 3894 4028 
L 1153 4028 
L 1153 2634 
L 3688 2634 
L 3688 2103 
L 1153 2103 
L 1153 547 
L 3941 547 
L 3941 0 
L 547 0 
L 547 4591 
z
M 2244 4591 
L 2244 4591 
z
" transform="scale(0.015625)"/>
        <path id="Helvetica-4f" d="M 2469 4716 
Q 3684 4716 4269 3934 
Q 4725 3325 4725 2375 
Q 4725 1347 4203 666 
Q 3591 -134 2456 -134 
Q 1397 -134 791 566 
Q 250 1241 250 2272 
Q 250 3203 713 3866 
Q 1306 4716 2469 4716 
z
M 2531 422 
Q 3353 422 3720 1011 
Q 4088 1600 4088 2366 
Q 4088 3175 3664 3669 
Q 3241 4163 2506 4163 
Q 1794 4163 1344 3673 
Q 894 3184 894 2231 
Q 894 1469 1280 945 
Q 1666 422 2531 422 
z
M 2488 4716 
L 2488 4716 
z
" transform="scale(0.015625)"/>
        <path id="Helvetica-4d" d="M 472 4591 
L 1363 4591 
L 2681 709 
L 3991 4591 
L 4872 4591 
L 4872 0 
L 4281 0 
L 4281 2709 
Q 4281 2850 4287 3175 
Q 4294 3500 4294 3872 
L 2984 0 
L 2369 0 
L 1050 3872 
L 1050 3731 
Q 1050 3563 1058 3217 
Q 1066 2872 1066 2709 
L 1066 0 
L 472 0 
L 472 4591 
z
" transform="scale(0.015625)"/>
        <path id="Helvetica-53" d="M 894 1481 
Q 916 1091 1078 847 
Q 1388 391 2169 391 
Q 2519 391 2806 491 
Q 3363 684 3363 1184 
Q 3363 1559 3128 1719 
Q 2891 1875 2384 1991 
L 1763 2131 
Q 1153 2269 900 2434 
Q 463 2722 463 3294 
Q 463 3913 891 4309 
Q 1319 4706 2103 4706 
Q 2825 4706 3329 4357 
Q 3834 4009 3834 3244 
L 3250 3244 
Q 3203 3613 3050 3809 
Q 2766 4169 2084 4169 
Q 1534 4169 1293 3937 
Q 1053 3706 1053 3400 
Q 1053 3063 1334 2906 
Q 1519 2806 2169 2656 
L 2813 2509 
Q 3278 2403 3531 2219 
Q 3969 1897 3969 1284 
Q 3969 522 3414 194 
Q 2859 -134 2125 -134 
Q 1269 -134 784 303 
Q 300 738 309 1481 
L 894 1481 
z
M 2150 4716 
L 2150 4716 
z
" transform="scale(0.015625)"/>
       </defs>
       <use xlink:href="#Helvetica-45"/>
       <use xlink:href="#Helvetica-4f" x="66.699219"/>
       <use xlink:href="#Helvetica-4d" x="144.482422"/>
       <use xlink:href="#Helvetica-45" x="227.783203"/>
       <use xlink:href="#Helvetica-53" x="294.482422"/>
       <use xlink:href="#Helvetica-2b" x="361.181641"/>
       <use xlink:href="#Helvetica-20" x="419.580078"/>
       <use xlink:href="#Helvetica-43" x="447.363281"/>
       <use xlink:href="#Helvetica-65" x="519.580078"/>
       <use xlink:href="#Helvetica-6c" x="575.195312"/>
       <use xlink:href="#Helvetica-6c" x="597.412109"/>
       <use xlink:href="#Helvetica-73" x="619.628906"/>
      </g>
     </g>
    </g>
    <g id="xtick_5">
     <g id="text_5">
      <!-- TBX+ Cells -->
      <g style="fill: #333333" transform="translate(131.833008 76.125151) rotate(-90) scale(0.035 -0.035)">
       <defs>
        <path id="Helvetica-42" d="M 2213 2650 
Q 2606 2650 2825 2759 
Q 3169 2931 3169 3378 
Q 3169 3828 2803 3984 
Q 2597 4072 2191 4072 
L 1081 4072 
L 1081 2650 
L 2213 2650 
z
M 2422 531 
Q 2994 531 3238 863 
Q 3391 1072 3391 1369 
Q 3391 1869 2944 2050 
Q 2706 2147 2316 2147 
L 1081 2147 
L 1081 531 
L 2422 531 
z
M 472 4591 
L 2444 4591 
Q 3250 4591 3591 4109 
Q 3791 3825 3791 3453 
Q 3791 3019 3544 2741 
Q 3416 2594 3175 2472 
Q 3528 2338 3703 2169 
Q 4013 1869 4013 1341 
Q 4013 897 3734 538 
Q 3319 0 2413 0 
L 472 0 
L 472 4591 
z
" transform="scale(0.015625)"/>
        <path id="Helvetica-58" d="M 881 0 
L 131 0 
L 1775 2353 
L 234 4591 
L 1013 4591 
L 2184 2834 
L 3347 4591 
L 4088 4591 
L 2547 2353 
L 4163 0 
L 3391 0 
L 2153 1888 
L 881 0 
z
" transform="scale(0.015625)"/>
       </defs>
       <use xlink:href="#Helvetica-54"/>
       <use xlink:href="#Helvetica-42" x="61.083984"/>
       <use xlink:href="#Helvetica-58" x="127.783203"/>
       <use xlink:href="#Helvetica-2b" x="194.482422"/>
       <use xlink:href="#Helvetica-20" x="252.880859"/>
       <use xlink:href="#Helvetica-43" x="280.664062"/>
       <use xlink:href="#Helvetica-65" x="352.880859"/>
       <use xlink:href="#Helvetica-6c" x="408.496094"/>
       <use xlink:href="#Helvetica-6c" x="430.712891"/>
       <use xlink:href="#Helvetica-73" x="452.929688"/>
      </g>
     </g>
    </g>
    <g id="xtick_6">
     <g id="text_6">
      <!-- GATA+ Cells -->
      <g style="fill: #333333" transform="translate(158.707972 78.847494) rotate(-90) scale(0.035 -0.035)">
       <defs>
        <path id="Helvetica-47" d="M 2472 4709 
Q 3119 4709 3591 4459 
Q 4275 4100 4428 3200 
L 3813 3200 
Q 3700 3703 3347 3933 
Q 2994 4163 2456 4163 
Q 1819 4163 1383 3684 
Q 947 3206 947 2259 
Q 947 1441 1306 927 
Q 1666 413 2478 413 
Q 3100 413 3508 773 
Q 3916 1134 3925 1941 
L 2488 1941 
L 2488 2456 
L 4503 2456 
L 4503 0 
L 4103 0 
L 3953 591 
Q 3638 244 3394 109 
Q 2984 -122 2353 -122 
Q 1538 -122 950 406 
Q 309 1069 309 2225 
Q 309 3378 934 4059 
Q 1528 4709 2472 4709 
z
M 2369 4716 
L 2369 4716 
z
" transform="scale(0.015625)"/>
        <path id="Helvetica-41" d="M 2844 1881 
L 2147 3909 
L 1406 1881 
L 2844 1881 
z
M 1822 4591 
L 2525 4591 
L 4191 0 
L 3509 0 
L 3044 1375 
L 1228 1375 
L 731 0 
L 94 0 
L 1822 4591 
z
" transform="scale(0.015625)"/>
       </defs>
       <use xlink:href="#Helvetica-47"/>
       <use xlink:href="#Helvetica-41" x="77.783203"/>
       <use xlink:href="#Helvetica-54" x="144.482422"/>
       <use xlink:href="#Helvetica-41" x="205.566406"/>
       <use xlink:href="#Helvetica-2b" x="272.265625"/>
       <use xlink:href="#Helvetica-20" x="330.664062"/>
       <use xlink:href="#Helvetica-43" x="358.447266"/>
       <use xlink:href="#Helvetica-65" x="430.664062"/>
       <use xlink:href="#Helvetica-6c" x="486.279297"/>
       <use xlink:href="#Helvetica-6c" x="508.496094"/>
       <use xlink:href="#Helvetica-73" x="530.712891"/>
      </g>
     </g>
    </g>
    <g id="xtick_7">
     <g id="text_7">
      <!-- ICOS+ Cells -->
      <g style="fill: #333333" transform="translate(185.582936 77.875151) rotate(-90) scale(0.035 -0.035)">
       <use xlink:href="#Helvetica-49"/>
       <use xlink:href="#Helvetica-43" x="27.783203"/>
       <use xlink:href="#Helvetica-4f" x="100"/>
       <use xlink:href="#Helvetica-53" x="177.783203"/>
       <use xlink:href="#Helvetica-2b" x="244.482422"/>
       <use xlink:href="#Helvetica-20" x="302.880859"/>
       <use xlink:href="#Helvetica-43" x="330.664062"/>
       <use xlink:href="#Helvetica-65" x="402.880859"/>
       <use xlink:href="#Helvetica-6c" x="458.496094"/>
       <use xlink:href="#Helvetica-6c" x="480.712891"/>
       <use xlink:href="#Helvetica-73" x="502.929688"/>
      </g>
     </g>
    </g>
    <g id="xtick_8">
     <g id="text_8">
      <!-- RORγT+ Cells -->
      <g style="fill: #333333" transform="translate(212.469931 81.179916) rotate(-90) scale(0.035 -0.035)">
       <defs>
        <path id="Helvetica-3b3" d="M 1556 225 
L 581 2444 
Q 481 2700 416 2803 
Q 347 2894 244 2894 
Q 91 2888 56 2872 
L 56 3334 
Q 166 3384 313 3391 
Q 641 3391 788 3250 
Q 863 3188 922 3078 
Q 978 2963 1038 2809 
L 1844 878 
L 2828 3328 
L 3431 3328 
L 2131 225 
L 2131 -1253 
L 1556 -1253 
L 1556 225 
z
" transform="scale(0.015625)"/>
       </defs>
       <use xlink:href="#Helvetica-52"/>
       <use xlink:href="#Helvetica-4f" x="72.216797"/>
       <use xlink:href="#Helvetica-52" x="150"/>
       <use xlink:href="#Helvetica-3b3" x="222.216797"/>
       <use xlink:href="#Helvetica-54" x="277.832031"/>
       <use xlink:href="#Helvetica-2b" x="338.916016"/>
       <use xlink:href="#Helvetica-20" x="397.314453"/>
       <use xlink:href="#Helvetica-43" x="425.097656"/>
       <use xlink:href="#Helvetica-65" x="497.314453"/>
       <use xlink:href="#Helvetica-6c" x="552.929688"/>
       <use xlink:href="#Helvetica-6c" x="575.146484"/>
       <use xlink:href="#Helvetica-73" x="597.363281"/>
      </g>
     </g>
    </g>
    <g id="xtick_9">
     <g id="text_9">
      <!-- AHR+ Cells -->
      <g style="fill: #333333" transform="translate(239.332864 76.708119) rotate(-90) scale(0.035 -0.035)">
       <defs>
        <path id="Helvetica-48" d="M 503 4591 
L 1131 4591 
L 1131 2694 
L 3519 2694 
L 3519 4591 
L 4147 4591 
L 4147 0 
L 3519 0 
L 3519 2147 
L 1131 2147 
L 1131 0 
L 503 0 
L 503 4591 
z
" transform="scale(0.015625)"/>
       </defs>
       <use xlink:href="#Helvetica-41"/>
       <use xlink:href="#Helvetica-48" x="66.699219"/>
       <use xlink:href="#Helvetica-52" x="138.916016"/>
       <use xlink:href="#Helvetica-2b" x="211.132812"/>
       <use xlink:href="#Helvetica-20" x="269.53125"/>
       <use xlink:href="#Helvetica-43" x="297.314453"/>
       <use xlink:href="#Helvetica-65" x="369.53125"/>
       <use xlink:href="#Helvetica-6c" x="425.146484"/>
       <use xlink:href="#Helvetica-6c" x="447.363281"/>
       <use xlink:href="#Helvetica-73" x="469.580078"/>
      </g>
     </g>
    </g>
   </g>
   <g id="matplotlib.axis_2">
    <g id="ytick_1">
     <g id="line2d_1">
      <defs>
       <path id="m725dcbac97" d="M 0 0 
L -1 0 
" style="stroke: #777777; stroke-width: 0.5"/>
      </defs>
      <g>
       <use xlink:href="#m725dcbac97" x="10.005084" y="48.355357" style="fill: #777777; stroke: #777777; stroke-width: 0.5"/>
      </g>
     </g>
     <g id="text_10">
      <!-- 0 -->
      <g style="fill: #333333" transform="translate(6.336803 49.431373) scale(0.03 -0.03)">
       <use xlink:href="#Helvetica-30"/>
      </g>
     </g>
    </g>
    <g id="ytick_2">
     <g id="line2d_2">
      <g>
       <use xlink:href="#m725dcbac97" x="10.005084" y="40.975507" style="fill: #777777; stroke: #777777; stroke-width: 0.5"/>
      </g>
     </g>
     <g id="text_11">
      <!-- 20 -->
      <g style="fill: #333333" transform="translate(4.668521 42.051523) scale(0.03 -0.03)">
       <use xlink:href="#Helvetica-32"/>
       <use xlink:href="#Helvetica-30" x="55.615234"/>
      </g>
     </g>
    </g>
    <g id="ytick_3">
     <g id="line2d_3">
      <g>
       <use xlink:href="#m725dcbac97" x="10.005084" y="33.595657" style="fill: #777777; stroke: #777777; stroke-width: 0.5"/>
      </g>
     </g>
     <g id="text_12">
      <!-- 40 -->
      <g style="fill: #333333" transform="translate(4.668521 34.671672) scale(0.03 -0.03)">
       <defs>
        <path id="Helvetica-34" d="M 2116 1584 
L 2116 3613 
L 681 1584 
L 2116 1584 
z
M 2125 0 
L 2125 1094 
L 163 1094 
L 163 1644 
L 2213 4488 
L 2688 4488 
L 2688 1584 
L 3347 1584 
L 3347 1094 
L 2688 1094 
L 2688 0 
L 2125 0 
z
" transform="scale(0.015625)"/>
       </defs>
       <use xlink:href="#Helvetica-34"/>
       <use xlink:href="#Helvetica-30" x="55.615234"/>
      </g>
     </g>
    </g>
    <g id="ytick_4">
     <g id="line2d_4">
      <g>
       <use xlink:href="#m725dcbac97" x="10.005084" y="26.215806" style="fill: #777777; stroke: #777777; stroke-width: 0.5"/>
      </g>
     </g>
     <g id="text_13">
      <!-- 60 -->
      <g style="fill: #333333" transform="translate(4.668521 27.291822) scale(0.03 -0.03)">
       <defs>
        <path id="Helvetica-36" d="M 1872 4494 
Q 2622 4494 2917 4105 
Q 3213 3716 3213 3303 
L 2656 3303 
Q 2606 3569 2497 3719 
Q 2294 4000 1881 4000 
Q 1409 4000 1131 3564 
Q 853 3128 822 2316 
Q 1016 2600 1309 2741 
Q 1578 2866 1909 2866 
Q 2472 2866 2890 2506 
Q 3309 2147 3309 1434 
Q 3309 825 2912 354 
Q 2516 -116 1781 -116 
Q 1153 -116 697 361 
Q 241 838 241 1966 
Q 241 2800 444 3381 
Q 834 4494 1872 4494 
z
M 1831 384 
Q 2275 384 2495 682 
Q 2716 981 2716 1388 
Q 2716 1731 2519 2042 
Q 2322 2353 1803 2353 
Q 1441 2353 1167 2112 
Q 894 1872 894 1388 
Q 894 963 1142 673 
Q 1391 384 1831 384 
z
" transform="scale(0.015625)"/>
       </defs>
       <use xlink:href="#Helvetica-36"/>
       <use xlink:href="#Helvetica-30" x="55.615234"/>
      </g>
     </g>
    </g>
    <g id="ytick_5">
     <g id="line2d_5">
      <g>
       <use xlink:href="#m725dcbac97" x="10.005084" y="18.835956" style="fill: #777777; stroke: #777777; stroke-width: 0.5"/>
      </g>
     </g>
     <g id="text_14">
      <!-- 80 -->
      <g style="fill: #333333" transform="translate(4.668521 19.911972) scale(0.03 -0.03)">
       <defs>
        <path id="Helvetica-38" d="M 1741 2600 
Q 2113 2600 2322 2808 
Q 2531 3016 2531 3303 
Q 2531 3553 2331 3762 
Q 2131 3972 1722 3972 
Q 1316 3972 1134 3762 
Q 953 3553 953 3272 
Q 953 2956 1187 2778 
Q 1422 2600 1741 2600 
z
M 1775 384 
Q 2166 384 2423 595 
Q 2681 806 2681 1225 
Q 2681 1659 2415 1884 
Q 2150 2109 1734 2109 
Q 1331 2109 1076 1879 
Q 822 1650 822 1244 
Q 822 894 1055 639 
Q 1288 384 1775 384 
z
M 975 2384 
Q 741 2484 609 2619 
Q 363 2869 363 3269 
Q 363 3769 725 4128 
Q 1088 4488 1753 4488 
Q 2397 4488 2762 4148 
Q 3128 3809 3128 3356 
Q 3128 2938 2916 2678 
Q 2797 2531 2547 2391 
Q 2825 2263 2984 2097 
Q 3281 1784 3281 1284 
Q 3281 694 2884 283 
Q 2488 -128 1763 -128 
Q 1109 -128 657 226 
Q 206 581 206 1256 
Q 206 1653 400 1942 
Q 594 2231 975 2384 
z
" transform="scale(0.015625)"/>
       </defs>
       <use xlink:href="#Helvetica-38"/>
       <use xlink:href="#Helvetica-30" x="55.615234"/>
      </g>
     </g>
    </g>
    <g id="ytick_6">
     <g id="line2d_6">
      <g>
       <use xlink:href="#m725dcbac97" x="10.005084" y="11.456106" style="fill: #777777; stroke: #777777; stroke-width: 0.5"/>
      </g>
     </g>
     <g id="text_15">
      <!-- 100 -->
      <g style="fill: #333333" transform="translate(3.00024 12.532122) scale(0.03 -0.03)">
       <defs>
        <path id="Helvetica-31" d="M 613 3169 
L 613 3600 
Q 1222 3659 1462 3798 
Q 1703 3938 1822 4456 
L 2266 4456 
L 2266 0 
L 1666 0 
L 1666 3169 
L 613 3169 
z
" transform="scale(0.015625)"/>
       </defs>
       <use xlink:href="#Helvetica-31"/>
       <use xlink:href="#Helvetica-30" x="55.615234"/>
       <use xlink:href="#Helvetica-30" x="111.230469"/>
      </g>
     </g>
    </g>
    <g id="ytick_7">
     <g id="line2d_7">
      <g>
       <use xlink:href="#m725dcbac97" x="10.005084" y="4.076256" style="fill: #777777; stroke: #777777; stroke-width: 0.5"/>
      </g>
     </g>
     <g id="text_16">
      <!-- 120 -->
      <g style="fill: #333333" transform="translate(3.00024 5.152271) scale(0.03 -0.03)">
       <use xlink:href="#Helvetica-31"/>
       <use xlink:href="#Helvetica-32" x="55.615234"/>
       <use xlink:href="#Helvetica-30" x="111.230469"/>
      </g>
     </g>
    </g>
   </g>
   <g id="PolyCollection_1">
    <defs>
     <path id="mc21196869c" d="M 24.741993 -37.369846 
L 22.143138 -37.369846 
L 21.781241 -37.48493 
L 21.362972 -37.600015 
L 20.892924 -37.7151 
L 20.379571 -37.830184 
L 19.834999 -37.945269 
L 19.274108 -38.060354 
L 18.713297 -38.175438 
L 18.168759 -38.290523 
L 17.654581 -38.405607 
L 17.180945 -38.520692 
L 16.752728 -38.635777 
L 16.368799 -38.750861 
L 16.022232 -38.865946 
L 15.70149 -38.981031 
L 15.392524 -39.096115 
L 15.081497 -39.2112 
L 14.757743 -39.326284 
L 14.416472 -39.441369 
L 14.060711 -39.556454 
L 13.702093 -39.671538 
L 13.360246 -39.786623 
L 13.060796 -39.901708 
L 12.832212 -40.016792 
L 12.701965 -40.131877 
L 12.69258 -40.246961 
L 12.818215 -40.362046 
L 13.08229 -40.477131 
L 13.476539 -40.592215 
L 13.981581 -40.7073 
L 14.568873 -40.822384 
L 15.203714 -40.937469 
L 15.848793 -41.052554 
L 16.467789 -41.167638 
L 17.028555 -41.282723 
L 17.505572 -41.397808 
L 17.881481 -41.512892 
L 18.147688 -41.627977 
L 18.304142 -41.743061 
L 18.358445 -41.858146 
L 18.324498 -41.973231 
L 18.220854 -42.088315 
L 18.068943 -42.2034 
L 17.891286 -42.318485 
L 17.709797 -42.433569 
L 17.544263 -42.548654 
L 17.411097 -42.663738 
L 17.322433 -42.778823 
L 17.285634 -42.893908 
L 17.303257 -43.008992 
L 17.373458 -43.124077 
L 17.49078 -43.239161 
L 17.647227 -43.354246 
L 17.833452 -43.469331 
L 18.039907 -43.584415 
L 18.257789 -43.6995 
L 18.479663 -43.814585 
L 18.69971 -43.929669 
L 18.91363 -44.044754 
L 19.118278 -44.159838 
L 19.311203 -44.274923 
L 19.490226 -44.390008 
L 19.653221 -44.505092 
L 19.79816 -44.620177 
L 19.923434 -44.735262 
L 20.028354 -44.850346 
L 20.113711 -44.965431 
L 20.18219 -45.080515 
L 20.238512 -45.1956 
L 20.289182 -45.310685 
L 20.341848 -45.425769 
L 20.404341 -45.540854 
L 20.483549 -45.655938 
L 20.584341 -45.771023 
L 20.708721 -45.886108 
L 20.855393 -46.001192 
L 21.019817 -46.116277 
L 21.194755 -46.231362 
L 21.371225 -46.346446 
L 21.539711 -46.461531 
L 21.691439 -46.576615 
L 21.819524 -46.6917 
L 21.919838 -46.806785 
L 21.991466 -46.921869 
L 22.036729 -47.036954 
L 22.060771 -47.152039 
L 22.070801 -47.267123 
L 22.075112 -47.382208 
L 22.082019 -47.497292 
L 22.098859 -47.612377 
L 22.131195 -47.727462 
L 22.182305 -47.842546 
L 22.253005 -47.957631 
L 22.341789 -48.072716 
L 22.445254 -48.1878 
L 22.558694 -48.302885 
L 22.676787 -48.417969 
L 22.794248 -48.533054 
L 22.906376 -48.648139 
L 23.009445 -48.763223 
L 23.875687 -48.763223 
L 23.875687 -48.763223 
L 23.978756 -48.648139 
L 24.090884 -48.533054 
L 24.208344 -48.417969 
L 24.326437 -48.302885 
L 24.439878 -48.1878 
L 24.543342 -48.072716 
L 24.632127 -47.957631 
L 24.702826 -47.842546 
L 24.753937 -47.727462 
L 24.786273 -47.612377 
L 24.803113 -47.497292 
L 24.810019 -47.382208 
L 24.814331 -47.267123 
L 24.824361 -47.152039 
L 24.848402 -47.036954 
L 24.893665 -46.921869 
L 24.965294 -46.806785 
L 25.065607 -46.6917 
L 25.193693 -46.576615 
L 25.34542 -46.461531 
L 25.513907 -46.346446 
L 25.690376 -46.231362 
L 25.865314 -46.116277 
L 26.029738 -46.001192 
L 26.17641 -45.886108 
L 26.30079 -45.771023 
L 26.401582 -45.655938 
L 26.480791 -45.540854 
L 26.543283 -45.425769 
L 26.595949 -45.310685 
L 26.646619 -45.1956 
L 26.702941 -45.080515 
L 26.771421 -44.965431 
L 26.856778 -44.850346 
L 26.961698 -44.735262 
L 27.086971 -44.620177 
L 27.231911 -44.505092 
L 27.394906 -44.390008 
L 27.573929 -44.274923 
L 27.766853 -44.159838 
L 27.971502 -44.044754 
L 28.185421 -43.929669 
L 28.405469 -43.814585 
L 28.627342 -43.6995 
L 28.845225 -43.584415 
L 29.05168 -43.469331 
L 29.237904 -43.354246 
L 29.394351 -43.239161 
L 29.511674 -43.124077 
L 29.581874 -43.008992 
L 29.599498 -42.893908 
L 29.562699 -42.778823 
L 29.474034 -42.663738 
L 29.340869 -42.548654 
L 29.175335 -42.433569 
L 28.993846 -42.318485 
L 28.816189 -42.2034 
L 28.664278 -42.088315 
L 28.560633 -41.973231 
L 28.526686 -41.858146 
L 28.58099 -41.743061 
L 28.737444 -41.627977 
L 29.003651 -41.512892 
L 29.379559 -41.397808 
L 29.856577 -41.282723 
L 30.417343 -41.167638 
L 31.036338 -41.052554 
L 31.681417 -40.937469 
L 32.316258 -40.822384 
L 32.903551 -40.7073 
L 33.408592 -40.592215 
L 33.802842 -40.477131 
L 34.066917 -40.362046 
L 34.192551 -40.246961 
L 34.183167 -40.131877 
L 34.05292 -40.016792 
L 33.824336 -39.901708 
L 33.524885 -39.786623 
L 33.183038 -39.671538 
L 32.82442 -39.556454 
L 32.46866 -39.441369 
L 32.127388 -39.326284 
L 31.803635 -39.2112 
L 31.492607 -39.096115 
L 31.183641 -38.981031 
L 30.8629 -38.865946 
L 30.516332 -38.750861 
L 30.132404 -38.635777 
L 29.704187 -38.520692 
L 29.230551 -38.405607 
L 28.716373 -38.290523 
L 28.171834 -38.175438 
L 27.611023 -38.060354 
L 27.050132 -37.945269 
L 26.505561 -37.830184 
L 25.992208 -37.7151 
L 25.52216 -37.600015 
L 25.10389 -37.48493 
L 24.741993 -37.369846 
z
" style="stroke: #6f6f6f; stroke-width: 0.15"/>
    </defs>
    <g clip-path="url(#pa3dc9a0b4a)">
     <use xlink:href="#mc21196869c" x="0" y="84.96" style="fill: #abc9ea; stroke: #6f6f6f; stroke-width: 0.15"/>
    </g>
   </g>
   <g id="PolyCollection_2">
    <defs>
     <path id="m205bb55b3f" d="M 51.398192 -36.021872 
L 49.236867 -36.021872 
L 48.945758 -36.222517 
L 48.61864 -36.423162 
L 48.264354 -36.623807 
L 47.895472 -36.824452 
L 47.527524 -37.025096 
L 47.177643 -37.225741 
L 46.862752 -37.426386 
L 46.597534 -37.627031 
L 46.392504 -37.827675 
L 46.252517 -38.02832 
L 46.176029 -38.228965 
L 46.155273 -38.42961 
L 46.177407 -38.630255 
L 46.226445 -38.830899 
L 46.285683 -39.031544 
L 46.34021 -39.232189 
L 46.379045 -39.432834 
L 46.396567 -39.633478 
L 46.392974 -39.834123 
L 46.373727 -40.034768 
L 46.348098 -40.235413 
L 46.327089 -40.436057 
L 46.321084 -40.636702 
L 46.337617 -40.837347 
L 46.3796 -41.037992 
L 46.444239 -41.238637 
L 46.522762 -41.439281 
L 46.600962 -41.639926 
L 46.660423 -41.840571 
L 46.680275 -42.041216 
L 46.639253 -42.24186 
L 46.517847 -42.442505 
L 46.300376 -42.64315 
L 45.976812 -42.843795 
L 45.544237 -43.04444 
L 45.007818 -43.245084 
L 44.381202 -43.445729 
L 43.686238 -43.646374 
L 42.951952 -43.847019 
L 42.212765 -44.047663 
L 41.505985 -44.248308 
L 40.868735 -44.448953 
L 40.334584 -44.649598 
L 39.930241 -44.850243 
L 39.67274 -45.050887 
L 39.567544 -45.251532 
L 39.607905 -45.452177 
L 39.77566 -45.652822 
L 40.043444 -45.853466 
L 40.378068 -46.054111 
L 40.744599 -46.254756 
L 41.110589 -46.455401 
L 41.449818 -46.656045 
L 41.745028 -46.85669 
L 41.989289 -47.057335 
L 42.185832 -47.25798 
L 42.346473 -47.458625 
L 42.488931 -47.659269 
L 42.63351 -47.859914 
L 42.799684 -48.060559 
L 43.003093 -48.261204 
L 43.253348 -48.461848 
L 43.552909 -48.662493 
L 43.897093 -48.863138 
L 44.275113 -49.063783 
L 44.671909 -49.264428 
L 45.070429 -49.465072 
L 45.454006 -49.665717 
L 45.808477 -49.866362 
L 46.123763 -50.067007 
L 46.394753 -50.267651 
L 46.621398 -50.468296 
L 46.808097 -50.668941 
L 46.962514 -50.869586 
L 47.094052 -51.070231 
L 47.212255 -51.270875 
L 47.325384 -51.47152 
L 47.439386 -51.672165 
L 47.557381 -51.87281 
L 47.67972 -52.073454 
L 47.80453 -52.274099 
L 47.928626 -52.474744 
L 48.048561 -52.675389 
L 48.161618 -52.876034 
L 48.266542 -53.076678 
L 48.36389 -53.277323 
L 48.455947 -53.477968 
L 48.546265 -53.678613 
L 48.638938 -53.879257 
L 48.737775 -54.079902 
L 48.845556 -54.280547 
L 48.963503 -54.481192 
L 49.091053 -54.681836 
L 49.225963 -54.882481 
L 49.36468 -55.083126 
L 49.502899 -55.283771 
L 49.636176 -55.484416 
L 49.760493 -55.68506 
L 49.872686 -55.885705 
L 50.762373 -55.885705 
L 50.762373 -55.885705 
L 50.874567 -55.68506 
L 50.998884 -55.484416 
L 51.132161 -55.283771 
L 51.27038 -55.083126 
L 51.409097 -54.882481 
L 51.544007 -54.681836 
L 51.671557 -54.481192 
L 51.789503 -54.280547 
L 51.897285 -54.079902 
L 51.996122 -53.879257 
L 52.088794 -53.678613 
L 52.179112 -53.477968 
L 52.271169 -53.277323 
L 52.368517 -53.076678 
L 52.473442 -52.876034 
L 52.586499 -52.675389 
L 52.706434 -52.474744 
L 52.83053 -52.274099 
L 52.95534 -52.073454 
L 53.077678 -51.87281 
L 53.195674 -51.672165 
L 53.309675 -51.47152 
L 53.422805 -51.270875 
L 53.541008 -51.070231 
L 53.672546 -50.869586 
L 53.826963 -50.668941 
L 54.013662 -50.468296 
L 54.240306 -50.267651 
L 54.511296 -50.067007 
L 54.826583 -49.866362 
L 55.181053 -49.665717 
L 55.564631 -49.465072 
L 55.963151 -49.264428 
L 56.359946 -49.063783 
L 56.737967 -48.863138 
L 57.08215 -48.662493 
L 57.381712 -48.461848 
L 57.631966 -48.261204 
L 57.835375 -48.060559 
L 58.00155 -47.859914 
L 58.146128 -47.659269 
L 58.288586 -47.458625 
L 58.449228 -47.25798 
L 58.645771 -47.057335 
L 58.890031 -46.85669 
L 59.185242 -46.656045 
L 59.52447 -46.455401 
L 59.890461 -46.254756 
L 60.256992 -46.054111 
L 60.591615 -45.853466 
L 60.859399 -45.652822 
L 61.027154 -45.452177 
L 61.067515 -45.251532 
L 60.96232 -45.050887 
L 60.704819 -44.850243 
L 60.300476 -44.649598 
L 59.766325 -44.448953 
L 59.129075 -44.248308 
L 58.422294 -44.047663 
L 57.683108 -43.847019 
L 56.948822 -43.646374 
L 56.253857 -43.445729 
L 55.627241 -43.245084 
L 55.090823 -43.04444 
L 54.658248 -42.843795 
L 54.334684 -42.64315 
L 54.117212 -42.442505 
L 53.995806 -42.24186 
L 53.954784 -42.041216 
L 53.974637 -41.840571 
L 54.034098 -41.639926 
L 54.112297 -41.439281 
L 54.190821 -41.238637 
L 54.255459 -41.037992 
L 54.297443 -40.837347 
L 54.313976 -40.636702 
L 54.30797 -40.436057 
L 54.286961 -40.235413 
L 54.261333 -40.034768 
L 54.242086 -39.834123 
L 54.238492 -39.633478 
L 54.256014 -39.432834 
L 54.29485 -39.232189 
L 54.349376 -39.031544 
L 54.408615 -38.830899 
L 54.457652 -38.630255 
L 54.479786 -38.42961 
L 54.459031 -38.228965 
L 54.382542 -38.02832 
L 54.242556 -37.827675 
L 54.037526 -37.627031 
L 53.772308 -37.426386 
L 53.457417 -37.225741 
L 53.107535 -37.025096 
L 52.739587 -36.824452 
L 52.370705 -36.623807 
L 52.016419 -36.423162 
L 51.689302 -36.222517 
L 51.398192 -36.021872 
z
" style="stroke: #6f6f6f; stroke-width: 0.15"/>
    </defs>
    <g clip-path="url(#pa3dc9a0b4a)">
     <use xlink:href="#m205bb55b3f" x="0" y="84.96" style="fill: #efb792; stroke: #6f6f6f; stroke-width: 0.15"/>
    </g>
   </g>
   <g id="PolyCollection_3">
    <defs>
     <path id="m456ba05614" d="M 77.98745 -35.462844 
L 76.397537 -35.462844 
L 76.186655 -35.699457 
L 75.946344 -35.936069 
L 75.680358 -36.172682 
L 75.394733 -36.409294 
L 75.097606 -36.645907 
L 74.798773 -36.882519 
L 74.508995 -37.119132 
L 74.239117 -37.355744 
L 73.999111 -37.592357 
L 73.797152 -37.828969 
L 73.638857 -38.065582 
L 73.526789 -38.302194 
L 73.460304 -38.538807 
L 73.435743 -38.775419 
L 73.44695 -39.012032 
L 73.486033 -39.248645 
L 73.544261 -39.485257 
L 73.61295 -39.72187 
L 73.684242 -39.958482 
L 73.751644 -40.195095 
L 73.810284 -40.431707 
L 73.856839 -40.66832 
L 73.889163 -40.904932 
L 73.905689 -41.141545 
L 73.904687 -41.378157 
L 73.883508 -41.61477 
L 73.837958 -41.851382 
L 73.761911 -42.087995 
L 73.647275 -42.324607 
L 73.484386 -42.56122 
L 73.26283 -42.797832 
L 72.972675 -43.034445 
L 72.605994 -43.271058 
L 72.158525 -43.50767 
L 71.63126 -43.744283 
L 71.031712 -43.980895 
L 70.374647 -44.217508 
L 69.682055 -44.45412 
L 68.982263 -44.690733 
L 68.308159 -44.927345 
L 67.694651 -45.163958 
L 67.175606 -45.40057 
L 66.780619 -45.637183 
L 66.532018 -45.873795 
L 66.442508 -46.110408 
L 66.513798 -46.34702 
L 66.736385 -46.583633 
L 67.090533 -46.820246 
L 67.548301 -47.056858 
L 68.076311 -47.293471 
L 68.63887 -47.530083 
L 69.201057 -47.766696 
L 69.731416 -48.003308 
L 70.203999 -48.239921 
L 70.599687 -48.476533 
L 70.90676 -48.713146 
L 71.12087 -48.949758 
L 71.244536 -49.186371 
L 71.286337 -49.422983 
L 71.259893 -49.659596 
L 71.182696 -49.896208 
L 71.074795 -50.132821 
L 70.957325 -50.369434 
L 70.850884 -50.606046 
L 70.773846 -50.842659 
L 70.740712 -51.079271 
L 70.760719 -51.315884 
L 70.836906 -51.552496 
L 70.965835 -51.789109 
L 71.138087 -52.025721 
L 71.339519 -52.262334 
L 71.553171 -52.498946 
L 71.761546 -52.735559 
L 71.948965 -52.972171 
L 72.103617 -53.208784 
L 72.21904 -53.445396 
L 72.294793 -53.682009 
L 72.336292 -53.918622 
L 72.35385 -54.155234 
L 72.361138 -54.391847 
L 72.373309 -54.628459 
L 72.405095 -54.865072 
L 72.469138 -55.101684 
L 72.574736 -55.338297 
L 72.727125 -55.574909 
L 72.927306 -55.811522 
L 73.172347 -56.048134 
L 73.45605 -56.284747 
L 73.769832 -56.521359 
L 74.103688 -56.757972 
L 74.447119 -56.994584 
L 74.789935 -57.231197 
L 75.122901 -57.467809 
L 75.438196 -57.704422 
L 75.729688 -57.941035 
L 75.993051 -58.177647 
L 76.225743 -58.41426 
L 76.426869 -58.650872 
L 76.596967 -58.887485 
L 77.78802 -58.887485 
L 77.78802 -58.887485 
L 77.958118 -58.650872 
L 78.159245 -58.41426 
L 78.391936 -58.177647 
L 78.655299 -57.941035 
L 78.946791 -57.704422 
L 79.262086 -57.467809 
L 79.595053 -57.231197 
L 79.937869 -56.994584 
L 80.281299 -56.757972 
L 80.615156 -56.521359 
L 80.928938 -56.284747 
L 81.212641 -56.048134 
L 81.457682 -55.811522 
L 81.657862 -55.574909 
L 81.810251 -55.338297 
L 81.915849 -55.101684 
L 81.979893 -54.865072 
L 82.011679 -54.628459 
L 82.023849 -54.391847 
L 82.031137 -54.155234 
L 82.048696 -53.918622 
L 82.090195 -53.682009 
L 82.165948 -53.445396 
L 82.28137 -53.208784 
L 82.436023 -52.972171 
L 82.623441 -52.735559 
L 82.831817 -52.498946 
L 83.045468 -52.262334 
L 83.246901 -52.025721 
L 83.419152 -51.789109 
L 83.548082 -51.552496 
L 83.624269 -51.315884 
L 83.644276 -51.079271 
L 83.611142 -50.842659 
L 83.534103 -50.606046 
L 83.427663 -50.369434 
L 83.310192 -50.132821 
L 83.202292 -49.896208 
L 83.125095 -49.659596 
L 83.098651 -49.422983 
L 83.140451 -49.186371 
L 83.264118 -48.949758 
L 83.478228 -48.713146 
L 83.785301 -48.476533 
L 84.180988 -48.239921 
L 84.653572 -48.003308 
L 85.18393 -47.766696 
L 85.746118 -47.530083 
L 86.308677 -47.293471 
L 86.836686 -47.056858 
L 87.294455 -46.820246 
L 87.648603 -46.583633 
L 87.871189 -46.34702 
L 87.942479 -46.110408 
L 87.85297 -45.873795 
L 87.604368 -45.637183 
L 87.209382 -45.40057 
L 86.690337 -45.163958 
L 86.076829 -44.927345 
L 85.402724 -44.690733 
L 84.702932 -44.45412 
L 84.010341 -44.217508 
L 83.353276 -43.980895 
L 82.753728 -43.744283 
L 82.226462 -43.50767 
L 81.778994 -43.271058 
L 81.412312 -43.034445 
L 81.122157 -42.797832 
L 80.900601 -42.56122 
L 80.737712 -42.324607 
L 80.623077 -42.087995 
L 80.54703 -41.851382 
L 80.50148 -41.61477 
L 80.480301 -41.378157 
L 80.479298 -41.141545 
L 80.495825 -40.904932 
L 80.528149 -40.66832 
L 80.574703 -40.431707 
L 80.633343 -40.195095 
L 80.700746 -39.958482 
L 80.772037 -39.72187 
L 80.840727 -39.485257 
L 80.898954 -39.248645 
L 80.938038 -39.012032 
L 80.949244 -38.775419 
L 80.924683 -38.538807 
L 80.858199 -38.302194 
L 80.746131 -38.065582 
L 80.587835 -37.828969 
L 80.385876 -37.592357 
L 80.14587 -37.355744 
L 79.875993 -37.119132 
L 79.586215 -36.882519 
L 79.287382 -36.645907 
L 78.990255 -36.409294 
L 78.704629 -36.172682 
L 78.438644 -35.936069 
L 78.198333 -35.699457 
L 77.98745 -35.462844 
z
" style="stroke: #6f6f6f; stroke-width: 0.15"/>
    </defs>
    <g clip-path="url(#pa3dc9a0b4a)">
     <use xlink:href="#m456ba05614" x="0" y="84.96" style="fill: #98daa7; stroke: #6f6f6f; stroke-width: 0.15"/>
    </g>
   </g>
   <g id="PolyCollection_4">
    <defs>
     <path id="m80a4a3f2ec" d="M 105.693583 -36.346261 
L 102.441332 -36.346261 
L 102.111849 -36.373545 
L 101.739422 -36.400829 
L 101.323889 -36.428113 
L 100.866344 -36.455397 
L 100.36927 -36.482681 
L 99.83663 -36.509964 
L 99.273893 -36.537248 
L 98.687984 -36.564532 
L 98.087163 -36.591816 
L 97.480831 -36.6191 
L 96.879268 -36.646384 
L 96.293311 -36.673668 
L 95.733997 -36.700951 
L 95.212179 -36.728235 
L 94.738144 -36.755519 
L 94.321237 -36.782803 
L 93.969533 -36.810087 
L 93.689545 -36.837371 
L 93.486009 -36.864655 
L 93.361723 -36.891939 
L 93.317472 -36.919222 
L 93.352023 -36.946506 
L 93.462194 -36.97379 
L 93.642993 -37.001074 
L 93.887822 -37.028358 
L 94.188726 -37.055642 
L 94.536702 -37.082926 
L 94.92203 -37.11021 
L 95.334636 -37.137493 
L 95.764454 -37.164777 
L 96.201786 -37.192061 
L 96.637638 -37.219345 
L 97.064002 -37.246629 
L 97.474099 -37.273913 
L 97.862527 -37.301197 
L 98.225346 -37.32848 
L 98.560067 -37.355764 
L 98.865559 -37.383048 
L 99.141881 -37.410332 
L 99.390059 -37.437616 
L 99.611821 -37.4649 
L 99.809321 -37.492184 
L 99.984871 -37.519468 
L 100.140716 -37.546751 
L 100.278853 -37.574035 
L 100.400932 -37.601319 
L 100.508218 -37.628603 
L 100.601631 -37.655887 
L 100.681844 -37.683171 
L 100.749422 -37.710455 
L 100.804987 -37.737739 
L 100.849373 -37.765022 
L 100.883753 -37.792306 
L 100.909731 -37.81959 
L 100.929356 -37.846874 
L 100.945088 -37.874158 
L 100.959682 -37.901442 
L 100.976023 -37.928726 
L 100.996922 -37.956009 
L 101.024891 -37.983293 
L 101.061915 -38.010577 
L 101.109261 -38.037861 
L 101.167327 -38.065145 
L 101.235561 -38.092429 
L 101.312453 -38.119713 
L 101.395604 -38.146997 
L 101.481874 -38.17428 
L 101.567592 -38.201564 
L 101.648818 -38.228848 
L 101.721631 -38.256132 
L 101.782428 -38.283416 
L 101.828201 -38.3107 
L 101.856785 -38.337984 
L 101.867043 -38.365267 
L 101.858983 -38.392551 
L 101.833803 -38.419835 
L 101.793844 -38.447119 
L 101.742473 -38.474403 
L 101.683891 -38.501687 
L 101.622889 -38.528971 
L 101.56456 -38.556255 
L 101.513995 -38.583538 
L 101.475986 -38.610822 
L 101.454743 -38.638106 
L 101.453659 -38.66539 
L 101.475134 -38.692674 
L 101.520464 -38.719958 
L 101.5898 -38.747242 
L 101.682187 -38.774526 
L 101.795663 -38.801809 
L 101.927418 -38.829093 
L 102.073989 -38.856377 
L 102.231489 -38.883661 
L 102.39583 -38.910945 
L 102.562953 -38.938229 
L 102.729019 -38.965513 
L 102.890577 -38.992796 
L 103.044686 -39.02008 
L 103.188992 -39.047364 
L 104.945924 -39.047364 
L 104.945924 -39.047364 
L 105.09023 -39.02008 
L 105.244339 -38.992796 
L 105.405897 -38.965513 
L 105.571963 -38.938229 
L 105.739085 -38.910945 
L 105.903427 -38.883661 
L 106.060926 -38.856377 
L 106.207498 -38.829093 
L 106.339252 -38.801809 
L 106.452728 -38.774526 
L 106.545115 -38.747242 
L 106.614451 -38.719958 
L 106.659781 -38.692674 
L 106.681257 -38.66539 
L 106.680173 -38.638106 
L 106.658929 -38.610822 
L 106.62092 -38.583538 
L 106.570356 -38.556255 
L 106.512027 -38.528971 
L 106.451024 -38.501687 
L 106.392443 -38.474403 
L 106.341072 -38.447119 
L 106.301113 -38.419835 
L 106.275933 -38.392551 
L 106.267873 -38.365267 
L 106.27813 -38.337984 
L 106.306714 -38.3107 
L 106.352488 -38.283416 
L 106.413285 -38.256132 
L 106.486098 -38.228848 
L 106.567324 -38.201564 
L 106.653042 -38.17428 
L 106.739312 -38.146997 
L 106.822462 -38.119713 
L 106.899354 -38.092429 
L 106.967589 -38.065145 
L 107.025655 -38.037861 
L 107.073 -38.010577 
L 107.110024 -37.983293 
L 107.137993 -37.956009 
L 107.158893 -37.928726 
L 107.175234 -37.901442 
L 107.189827 -37.874158 
L 107.205559 -37.846874 
L 107.225185 -37.81959 
L 107.251162 -37.792306 
L 107.285543 -37.765022 
L 107.329928 -37.737739 
L 107.385494 -37.710455 
L 107.453072 -37.683171 
L 107.533285 -37.655887 
L 107.626697 -37.628603 
L 107.733983 -37.601319 
L 107.856063 -37.574035 
L 107.9942 -37.546751 
L 108.150044 -37.519468 
L 108.325595 -37.492184 
L 108.523094 -37.4649 
L 108.744857 -37.437616 
L 108.993035 -37.410332 
L 109.269357 -37.383048 
L 109.574848 -37.355764 
L 109.90957 -37.32848 
L 110.272389 -37.301197 
L 110.660817 -37.273913 
L 111.070913 -37.246629 
L 111.497278 -37.219345 
L 111.933129 -37.192061 
L 112.370462 -37.164777 
L 112.80028 -37.137493 
L 113.212886 -37.11021 
L 113.598214 -37.082926 
L 113.94619 -37.055642 
L 114.247094 -37.028358 
L 114.491922 -37.001074 
L 114.672722 -36.97379 
L 114.782893 -36.946506 
L 114.817443 -36.919222 
L 114.773192 -36.891939 
L 114.648906 -36.864655 
L 114.44537 -36.837371 
L 114.165383 -36.810087 
L 113.813678 -36.782803 
L 113.396772 -36.755519 
L 112.922736 -36.728235 
L 112.400919 -36.700951 
L 111.841605 -36.673668 
L 111.255648 -36.646384 
L 110.654085 -36.6191 
L 110.047753 -36.591816 
L 109.446932 -36.564532 
L 108.861022 -36.537248 
L 108.298286 -36.509964 
L 107.765646 -36.482681 
L 107.268572 -36.455397 
L 106.811027 -36.428113 
L 106.395494 -36.400829 
L 106.023066 -36.373545 
L 105.693583 -36.346261 
z
" style="stroke: #6f6f6f; stroke-width: 0.15"/>
    </defs>
    <g clip-path="url(#pa3dc9a0b4a)">
     <use xlink:href="#m80a4a3f2ec" x="0" y="84.96" style="fill: #f2aba8; stroke: #6f6f6f; stroke-width: 0.15"/>
    </g>
   </g>
   <g id="PolyCollection_5">
    <defs>
     <path id="m471c0d89b2" d="M 131.714934 -36.270668 
L 130.169909 -36.270668 
L 130.013071 -36.308493 
L 129.838261 -36.346318 
L 129.646218 -36.384143 
L 129.438074 -36.421969 
L 129.215227 -36.459794 
L 128.97916 -36.497619 
L 128.731227 -36.535444 
L 128.472428 -36.573269 
L 128.20319 -36.611095 
L 127.923204 -36.64892 
L 127.631324 -36.686745 
L 127.325575 -36.72457 
L 127.003276 -36.762395 
L 126.661284 -36.800221 
L 126.296362 -36.838046 
L 125.905631 -36.875871 
L 125.487096 -36.913696 
L 125.040172 -36.951521 
L 124.566188 -36.989347 
L 124.068786 -37.027172 
L 123.554183 -37.064997 
L 123.03125 -37.102822 
L 122.511374 -37.140647 
L 122.008099 -37.178473 
L 121.536555 -37.216298 
L 121.112712 -37.254123 
L 120.752491 -37.291948 
L 120.470828 -37.329773 
L 120.280731 -37.367599 
L 120.192436 -37.405424 
L 120.212717 -37.443249 
L 120.344405 -37.481074 
L 120.586175 -37.518899 
L 120.932588 -37.556725 
L 121.374408 -37.59455 
L 121.899147 -37.632375 
L 122.491787 -37.6702 
L 123.135629 -37.708025 
L 123.813187 -37.745851 
L 124.507066 -37.783676 
L 125.200761 -37.821501 
L 125.879333 -37.859326 
L 126.529917 -37.897151 
L 127.142063 -37.934977 
L 127.707895 -37.972802 
L 128.22211 -38.010627 
L 128.681835 -38.048452 
L 129.086376 -38.086277 
L 129.436891 -38.124103 
L 129.736021 -38.161928 
L 129.987511 -38.199753 
L 130.195839 -38.237578 
L 130.365882 -38.275403 
L 130.50263 -38.313229 
L 130.610946 -38.351054 
L 130.69539 -38.388879 
L 130.760088 -38.426704 
L 130.808652 -38.464529 
L 130.844136 -38.502355 
L 130.869023 -38.54018 
L 130.885236 -38.578005 
L 130.894159 -38.61583 
L 130.896675 -38.653655 
L 130.893196 -38.691481 
L 130.883715 -38.729306 
L 130.867845 -38.767131 
L 130.844877 -38.804956 
L 130.813843 -38.842781 
L 130.77359 -38.880607 
L 130.722882 -38.918432 
L 130.660507 -38.956257 
L 130.585409 -38.994082 
L 130.496833 -39.031907 
L 130.394473 -39.069733 
L 130.278619 -39.107558 
L 130.150281 -39.145383 
L 130.011278 -39.183208 
L 129.864281 -39.221033 
L 129.712788 -39.258859 
L 129.561032 -39.296684 
L 129.413815 -39.334509 
L 129.276269 -39.372334 
L 129.153578 -39.410159 
L 129.050648 -39.447985 
L 128.971794 -39.48581 
L 128.920433 -39.523635 
L 128.898841 -39.56146 
L 128.907987 -39.599285 
L 128.947461 -39.637111 
L 129.015501 -39.674936 
L 129.109128 -39.712761 
L 129.224358 -39.750586 
L 129.356488 -39.788412 
L 129.500407 -39.826237 
L 129.650925 -39.864062 
L 129.803076 -39.901887 
L 129.952373 -39.939712 
L 130.095006 -39.977538 
L 130.227966 -40.015363 
L 131.656877 -40.015363 
L 131.656877 -40.015363 
L 131.789837 -39.977538 
L 131.932471 -39.939712 
L 132.081768 -39.901887 
L 132.233918 -39.864062 
L 132.384437 -39.826237 
L 132.528356 -39.788412 
L 132.660485 -39.750586 
L 132.775716 -39.712761 
L 132.869343 -39.674936 
L 132.937383 -39.637111 
L 132.976857 -39.599285 
L 132.986003 -39.56146 
L 132.964411 -39.523635 
L 132.91305 -39.48581 
L 132.834195 -39.447985 
L 132.731266 -39.410159 
L 132.608574 -39.372334 
L 132.471029 -39.334509 
L 132.323812 -39.296684 
L 132.172056 -39.258859 
L 132.020563 -39.221033 
L 131.873566 -39.183208 
L 131.734563 -39.145383 
L 131.606225 -39.107558 
L 131.490371 -39.069733 
L 131.388011 -39.031907 
L 131.299435 -38.994082 
L 131.224336 -38.956257 
L 131.161961 -38.918432 
L 131.111254 -38.880607 
L 131.071001 -38.842781 
L 131.039966 -38.804956 
L 131.016998 -38.767131 
L 131.001128 -38.729306 
L 130.991647 -38.691481 
L 130.988169 -38.653655 
L 130.990684 -38.61583 
L 130.999608 -38.578005 
L 131.015821 -38.54018 
L 131.040708 -38.502355 
L 131.076192 -38.464529 
L 131.124756 -38.426704 
L 131.189454 -38.388879 
L 131.273898 -38.351054 
L 131.382214 -38.313229 
L 131.518961 -38.275403 
L 131.689005 -38.237578 
L 131.897332 -38.199753 
L 132.148822 -38.161928 
L 132.447953 -38.124103 
L 132.798468 -38.086277 
L 133.203008 -38.048452 
L 133.662733 -38.010627 
L 134.176949 -37.972802 
L 134.742781 -37.934977 
L 135.354927 -37.897151 
L 136.00551 -37.859326 
L 136.684082 -37.821501 
L 137.377778 -37.783676 
L 138.071657 -37.745851 
L 138.749215 -37.708025 
L 139.393057 -37.6702 
L 139.985697 -37.632375 
L 140.510436 -37.59455 
L 140.952256 -37.556725 
L 141.298669 -37.518899 
L 141.540438 -37.481074 
L 141.672127 -37.443249 
L 141.692407 -37.405424 
L 141.604113 -37.367599 
L 141.414016 -37.329773 
L 141.132353 -37.291948 
L 140.772132 -37.254123 
L 140.348288 -37.216298 
L 139.876745 -37.178473 
L 139.37347 -37.140647 
L 138.853594 -37.102822 
L 138.330661 -37.064997 
L 137.816058 -37.027172 
L 137.318656 -36.989347 
L 136.844672 -36.951521 
L 136.397748 -36.913696 
L 135.979212 -36.875871 
L 135.588482 -36.838046 
L 135.22356 -36.800221 
L 134.881568 -36.762395 
L 134.559269 -36.72457 
L 134.25352 -36.686745 
L 133.96164 -36.64892 
L 133.681654 -36.611095 
L 133.412416 -36.573269 
L 133.153617 -36.535444 
L 132.905684 -36.497619 
L 132.669617 -36.459794 
L 132.44677 -36.421969 
L 132.238626 -36.384143 
L 132.046583 -36.346318 
L 131.871773 -36.308493 
L 131.714934 -36.270668 
z
" style="stroke: #6f6f6f; stroke-width: 0.15"/>
    </defs>
    <g clip-path="url(#pa3dc9a0b4a)">
     <use xlink:href="#m471c0d89b2" x="0" y="84.96" style="fill: #d3c4f6; stroke: #6f6f6f; stroke-width: 0.15"/>
    </g>
   </g>
   <g id="PolyCollection_6">
    <defs>
     <path id="m520243bebe" d="M 159.132933 -34.195388 
L 156.501838 -34.195388 
L 156.24829 -34.443343 
L 155.96594 -34.691298 
L 155.655715 -34.939253 
L 155.319373 -35.187209 
L 154.959474 -35.435164 
L 154.579301 -35.683119 
L 154.182727 -35.931074 
L 153.774033 -36.179029 
L 153.357689 -36.426984 
L 152.93812 -36.674939 
L 152.519473 -36.922894 
L 152.105401 -37.17085 
L 151.698898 -37.418805 
L 151.302193 -37.66676 
L 150.91672 -37.914715 
L 150.543175 -38.16267 
L 150.181655 -38.410625 
L 149.831876 -38.65858 
L 149.493447 -38.906536 
L 149.166182 -39.154491 
L 148.850415 -39.402446 
L 148.54729 -39.650401 
L 148.258989 -39.898356 
L 147.988874 -40.146311 
L 147.741514 -40.394266 
L 147.522585 -40.642221 
L 147.33864 -40.890177 
L 147.196764 -41.138132 
L 147.104113 -41.386087 
L 147.0674 -41.634042 
L 147.092337 -41.881997 
L 147.18309 -42.129952 
L 147.3418 -42.377907 
L 147.568186 -42.625863 
L 147.859295 -42.873818 
L 148.209397 -43.121773 
L 148.610064 -43.369728 
L 149.050406 -43.617683 
L 149.517487 -43.865638 
L 149.996861 -44.113593 
L 150.473235 -44.361548 
L 150.931195 -44.609504 
L 151.35596 -44.857459 
L 151.73413 -45.105414 
L 152.054381 -45.353369 
L 152.30806 -45.601324 
L 152.489661 -45.849279 
L 152.597142 -46.097234 
L 152.632069 -46.34519 
L 152.599566 -46.593145 
L 152.508079 -46.8411 
L 152.368952 -47.089055 
L 152.195839 -47.33701 
L 152.003973 -47.584965 
L 151.809339 -47.83292 
L 151.6278 -48.080875 
L 151.474212 -48.328831 
L 151.361611 -48.576786 
L 151.300493 -48.824741 
L 151.298265 -49.072696 
L 151.358879 -49.320651 
L 151.482685 -49.568606 
L 151.666508 -49.816561 
L 151.903937 -50.064517 
L 152.185802 -50.312472 
L 152.500798 -50.560427 
L 152.836223 -50.808382 
L 153.178757 -51.056337 
L 153.515247 -51.304292 
L 153.833438 -51.552247 
L 154.122616 -51.800202 
L 154.37413 -52.048158 
L 154.58176 -52.296113 
L 154.74194 -52.544068 
L 154.853813 -52.792023 
L 154.919142 -53.039978 
L 154.942082 -53.287933 
L 154.928836 -53.535888 
L 154.887222 -53.783843 
L 154.826167 -54.031799 
L 154.755175 -54.279754 
L 154.683784 -54.527709 
L 154.621047 -54.775664 
L 154.57506 -55.023619 
L 154.552578 -55.271574 
L 154.558715 -55.519529 
L 154.596761 -55.767485 
L 154.668114 -56.01544 
L 154.772332 -56.263395 
L 154.907289 -56.51135 
L 155.069417 -56.759305 
L 155.254027 -57.00726 
L 155.455664 -57.255215 
L 155.668474 -57.50317 
L 155.886565 -57.751126 
L 156.104328 -57.999081 
L 156.3167 -58.247036 
L 156.519366 -58.494991 
L 156.708883 -58.742946 
L 158.925889 -58.742946 
L 158.925889 -58.742946 
L 159.115406 -58.494991 
L 159.318072 -58.247036 
L 159.530444 -57.999081 
L 159.748207 -57.751126 
L 159.966298 -57.50317 
L 160.179108 -57.255215 
L 160.380744 -57.00726 
L 160.565355 -56.759305 
L 160.727483 -56.51135 
L 160.86244 -56.263395 
L 160.966658 -56.01544 
L 161.038011 -55.767485 
L 161.076057 -55.519529 
L 161.082193 -55.271574 
L 161.059712 -55.023619 
L 161.013725 -54.775664 
L 160.950987 -54.527709 
L 160.879597 -54.279754 
L 160.808605 -54.031799 
L 160.74755 -53.783843 
L 160.705935 -53.535888 
L 160.69269 -53.287933 
L 160.71563 -53.039978 
L 160.780959 -52.792023 
L 160.892832 -52.544068 
L 161.053012 -52.296113 
L 161.260642 -52.048158 
L 161.512156 -51.800202 
L 161.801334 -51.552247 
L 162.119525 -51.304292 
L 162.456015 -51.056337 
L 162.798549 -50.808382 
L 163.133974 -50.560427 
L 163.44897 -50.312472 
L 163.730834 -50.064517 
L 163.968264 -49.816561 
L 164.152087 -49.568606 
L 164.275893 -49.320651 
L 164.336507 -49.072696 
L 164.334279 -48.824741 
L 164.273161 -48.576786 
L 164.160559 -48.328831 
L 164.006972 -48.080875 
L 163.825433 -47.83292 
L 163.630799 -47.584965 
L 163.438933 -47.33701 
L 163.26582 -47.089055 
L 163.126693 -46.8411 
L 163.035206 -46.593145 
L 163.002703 -46.34519 
L 163.03763 -46.097234 
L 163.145111 -45.849279 
L 163.326712 -45.601324 
L 163.580391 -45.353369 
L 163.900642 -45.105414 
L 164.278812 -44.857459 
L 164.703577 -44.609504 
L 165.161537 -44.361548 
L 165.637911 -44.113593 
L 166.117285 -43.865638 
L 166.584365 -43.617683 
L 167.024708 -43.369728 
L 167.425374 -43.121773 
L 167.775477 -42.873818 
L 168.066586 -42.625863 
L 168.292972 -42.377907 
L 168.451682 -42.129952 
L 168.542435 -41.881997 
L 168.567372 -41.634042 
L 168.530659 -41.386087 
L 168.438008 -41.138132 
L 168.296131 -40.890177 
L 168.112187 -40.642221 
L 167.893257 -40.394266 
L 167.645897 -40.146311 
L 167.375783 -39.898356 
L 167.087482 -39.650401 
L 166.784357 -39.402446 
L 166.46859 -39.154491 
L 166.141325 -38.906536 
L 165.802896 -38.65858 
L 165.453117 -38.410625 
L 165.091597 -38.16267 
L 164.718051 -37.914715 
L 164.332579 -37.66676 
L 163.935874 -37.418805 
L 163.529371 -37.17085 
L 163.115299 -36.922894 
L 162.696652 -36.674939 
L 162.277083 -36.426984 
L 161.860739 -36.179029 
L 161.452045 -35.931074 
L 161.055471 -35.683119 
L 160.675298 -35.435164 
L 160.315399 -35.187209 
L 159.979056 -34.939253 
L 159.668832 -34.691298 
L 159.386482 -34.443343 
L 159.132933 -34.195388 
z
" style="stroke: #6f6f6f; stroke-width: 0.15"/>
    </defs>
    <g clip-path="url(#pa3dc9a0b4a)">
     <use xlink:href="#m520243bebe" x="0" y="84.96" style="fill: #d6bba3; stroke: #6f6f6f; stroke-width: 0.15"/>
    </g>
   </g>
   <g id="PolyCollection_7">
    <defs>
     <path id="m1327a4be0c" d="M 186.390879 -36.036928 
L 182.993821 -36.036928 
L 182.694755 -36.244431 
L 182.364685 -36.451934 
L 182.004763 -36.659437 
L 181.617033 -36.86694 
L 181.204449 -37.074442 
L 180.770837 -37.281945 
L 180.320817 -37.489448 
L 179.85967 -37.696951 
L 179.393163 -37.904454 
L 178.927342 -38.111956 
L 178.468287 -38.319459 
L 178.021872 -38.526962 
L 177.593509 -38.734465 
L 177.187927 -38.941967 
L 176.808977 -39.14947 
L 176.459486 -39.356973 
L 176.141175 -39.564476 
L 175.854635 -39.771979 
L 175.599383 -39.979481 
L 175.373965 -40.186984 
L 175.176133 -40.394487 
L 175.00305 -40.60199 
L 174.851539 -40.809493 
L 174.718321 -41.016995 
L 174.600268 -41.224498 
L 174.494606 -41.432001 
L 174.399094 -41.639504 
L 174.312136 -41.847006 
L 174.232847 -42.054509 
L 174.161046 -42.262012 
L 174.097194 -42.469515 
L 174.042293 -42.677018 
L 173.997733 -42.88452 
L 173.965131 -43.092023 
L 173.946156 -43.299526 
L 173.942364 -43.507029 
L 173.955063 -43.714532 
L 173.985201 -43.922034 
L 174.033302 -44.129537 
L 174.099443 -44.33704 
L 174.183273 -44.544543 
L 174.284068 -44.752046 
L 174.400819 -44.959548 
L 174.532335 -45.167051 
L 174.677354 -45.374554 
L 174.834661 -45.582057 
L 175.003177 -45.789559 
L 175.182038 -45.997062 
L 175.370636 -46.204565 
L 175.56863 -46.412068 
L 175.775915 -46.619571 
L 175.992554 -46.827073 
L 176.218676 -47.034576 
L 176.454345 -47.242079 
L 176.699408 -47.449582 
L 176.953333 -47.657085 
L 177.215052 -47.864587 
L 177.482813 -48.07209 
L 177.754072 -48.279593 
L 178.025424 -48.487096 
L 178.292586 -48.694598 
L 178.550451 -48.902101 
L 178.79321 -49.109604 
L 179.014543 -49.317107 
L 179.207881 -49.52461 
L 179.366722 -49.732112 
L 179.48499 -49.939615 
L 179.557422 -50.147118 
L 179.579952 -50.354621 
L 179.550071 -50.562124 
L 179.467132 -50.769626 
L 179.332589 -50.977129 
L 179.150129 -51.184632 
L 178.925691 -51.392135 
L 178.667363 -51.599637 
L 178.385149 -51.80714 
L 178.090612 -52.014643 
L 177.796413 -52.222146 
L 177.515769 -52.429649 
L 177.261852 -52.637151 
L 177.047176 -52.844654 
L 176.882997 -53.052157 
L 176.778782 -53.25966 
L 176.741755 -53.467163 
L 176.77658 -53.674665 
L 176.885166 -53.882168 
L 177.066642 -54.089671 
L 177.317464 -54.297174 
L 177.63167 -54.504677 
L 178.001254 -54.712179 
L 178.416621 -54.919682 
L 178.867108 -55.127185 
L 179.341523 -55.334688 
L 179.828665 -55.54219 
L 180.317808 -55.749693 
L 180.799115 -55.957196 
L 181.263956 -56.164699 
L 181.705137 -56.372202 
L 182.117027 -56.579704 
L 187.267673 -56.579704 
L 187.267673 -56.579704 
L 187.679563 -56.372202 
L 188.120744 -56.164699 
L 188.585585 -55.957196 
L 189.066891 -55.749693 
L 189.556035 -55.54219 
L 190.043177 -55.334688 
L 190.517592 -55.127185 
L 190.968079 -54.919682 
L 191.383446 -54.712179 
L 191.75303 -54.504677 
L 192.067236 -54.297174 
L 192.318057 -54.089671 
L 192.499533 -53.882168 
L 192.60812 -53.674665 
L 192.642945 -53.467163 
L 192.605918 -53.25966 
L 192.501703 -53.052157 
L 192.337524 -52.844654 
L 192.122847 -52.637151 
L 191.868931 -52.429649 
L 191.588287 -52.222146 
L 191.294088 -52.014643 
L 190.999551 -51.80714 
L 190.717337 -51.599637 
L 190.459009 -51.392135 
L 190.234571 -51.184632 
L 190.052111 -50.977129 
L 189.917568 -50.769626 
L 189.834629 -50.562124 
L 189.804747 -50.354621 
L 189.827278 -50.147118 
L 189.89971 -49.939615 
L 190.017978 -49.732112 
L 190.176819 -49.52461 
L 190.370157 -49.317107 
L 190.59149 -49.109604 
L 190.834249 -48.902101 
L 191.092114 -48.694598 
L 191.359276 -48.487096 
L 191.630628 -48.279593 
L 191.901887 -48.07209 
L 192.169648 -47.864587 
L 192.431367 -47.657085 
L 192.685292 -47.449582 
L 192.930355 -47.242079 
L 193.166024 -47.034576 
L 193.392146 -46.827073 
L 193.608785 -46.619571 
L 193.81607 -46.412068 
L 194.014064 -46.204565 
L 194.202662 -45.997062 
L 194.381523 -45.789559 
L 194.550039 -45.582057 
L 194.707345 -45.374554 
L 194.852365 -45.167051 
L 194.983881 -44.959548 
L 195.100632 -44.752046 
L 195.201427 -44.544543 
L 195.285257 -44.33704 
L 195.351398 -44.129537 
L 195.399499 -43.922034 
L 195.429637 -43.714532 
L 195.442336 -43.507029 
L 195.438544 -43.299526 
L 195.419569 -43.092023 
L 195.386967 -42.88452 
L 195.342407 -42.677018 
L 195.287506 -42.469515 
L 195.223654 -42.262012 
L 195.151852 -42.054509 
L 195.072564 -41.847006 
L 194.985606 -41.639504 
L 194.890093 -41.432001 
L 194.784432 -41.224498 
L 194.666378 -41.016995 
L 194.533161 -40.809493 
L 194.381649 -40.60199 
L 194.208567 -40.394487 
L 194.010734 -40.186984 
L 193.785317 -39.979481 
L 193.530064 -39.771979 
L 193.243525 -39.564476 
L 192.925214 -39.356973 
L 192.575723 -39.14947 
L 192.196772 -38.941967 
L 191.791191 -38.734465 
L 191.362828 -38.526962 
L 190.916413 -38.319459 
L 190.457358 -38.111956 
L 189.991537 -37.904454 
L 189.52503 -37.696951 
L 189.063883 -37.489448 
L 188.613863 -37.281945 
L 188.180251 -37.074442 
L 187.767667 -36.86694 
L 187.379937 -36.659437 
L 187.020015 -36.451934 
L 186.689945 -36.244431 
L 186.390879 -36.036928 
z
" style="stroke: #6f6f6f; stroke-width: 0.15"/>
    </defs>
    <g clip-path="url(#pa3dc9a0b4a)">
     <use xlink:href="#m1327a4be0c" x="0" y="84.96" style="fill: #f1b9e0; stroke: #6f6f6f; stroke-width: 0.15"/>
    </g>
   </g>
   <g id="PolyCollection_8">
    <defs>
     <path id="m50f3e780d8" d="M 213.975271 -36.226415 
L 209.159357 -36.226415 
L 208.707542 -36.267229 
L 208.208368 -36.308043 
L 207.665316 -36.348857 
L 207.083877 -36.389671 
L 206.471572 -36.430485 
L 205.837843 -36.471299 
L 205.193815 -36.512113 
L 204.551934 -36.552926 
L 203.925475 -36.59374 
L 203.327965 -36.634554 
L 202.772548 -36.675368 
L 202.271333 -36.716182 
L 201.834778 -36.756996 
L 201.471159 -36.79781 
L 201.186166 -36.838624 
L 200.982664 -36.879437 
L 200.860636 -36.920251 
L 200.817328 -36.961065 
L 200.847562 -37.001879 
L 200.944209 -37.042693 
L 201.098772 -37.083507 
L 201.302023 -37.124321 
L 201.544649 -37.165135 
L 201.817832 -37.205949 
L 202.113737 -37.246762 
L 202.425849 -37.287576 
L 202.749154 -37.32839 
L 203.080145 -37.369204 
L 203.41668 -37.410018 
L 203.7577 -37.450832 
L 204.102874 -37.491646 
L 204.452179 -37.53246 
L 204.805506 -37.573274 
L 205.162298 -37.614087 
L 205.521277 -37.654901 
L 205.88029 -37.695715 
L 206.236263 -37.736529 
L 206.585295 -37.777343 
L 206.922843 -37.818157 
L 207.244014 -37.858971 
L 207.543898 -37.899785 
L 207.817929 -37.940599 
L 208.06224 -37.981412 
L 208.273968 -38.022226 
L 208.451495 -38.06304 
L 208.594598 -38.103854 
L 208.704502 -38.144668 
L 208.783835 -38.185482 
L 208.836479 -38.226296 
L 208.867347 -38.26711 
L 208.882087 -38.307924 
L 208.886748 -38.348737 
L 208.887424 -38.389551 
L 208.889898 -38.430365 
L 208.899324 -38.471179 
L 208.919947 -38.511993 
L 208.954888 -38.552807 
L 209.006011 -38.593621 
L 209.073853 -38.634435 
L 209.157654 -38.675248 
L 209.255443 -38.716062 
L 209.364196 -38.756876 
L 209.480049 -38.79769 
L 209.598541 -38.838504 
L 209.71488 -38.879318 
L 209.824217 -38.920132 
L 209.921907 -38.960946 
L 210.003757 -39.00176 
L 210.066235 -39.042573 
L 210.106645 -39.083387 
L 210.123262 -39.124201 
L 210.11542 -39.165015 
L 210.083547 -39.205829 
L 210.029159 -39.246643 
L 209.954801 -39.287457 
L 209.863949 -39.328271 
L 209.760863 -39.369085 
L 209.650407 -39.409898 
L 209.537838 -39.450712 
L 209.428569 -39.491526 
L 209.327928 -39.53234 
L 209.240913 -39.573154 
L 209.17196 -39.613968 
L 209.124742 -39.654782 
L 209.102008 -39.695596 
L 209.105465 -39.73641 
L 209.135727 -39.777223 
L 209.192318 -39.818037 
L 209.273733 -39.858851 
L 209.37756 -39.899665 
L 209.500636 -39.940479 
L 209.639249 -39.981293 
L 209.789342 -40.022107 
L 209.946737 -40.062921 
L 210.107332 -40.103735 
L 210.267289 -40.144548 
L 210.423178 -40.185362 
L 210.572086 -40.226176 
L 210.711689 -40.26699 
L 212.422939 -40.26699 
L 212.422939 -40.26699 
L 212.562542 -40.226176 
L 212.71145 -40.185362 
L 212.867338 -40.144548 
L 213.027296 -40.103735 
L 213.187891 -40.062921 
L 213.345286 -40.022107 
L 213.495379 -39.981293 
L 213.633992 -39.940479 
L 213.757068 -39.899665 
L 213.860895 -39.858851 
L 213.94231 -39.818037 
L 213.998901 -39.777223 
L 214.029163 -39.73641 
L 214.03262 -39.695596 
L 214.009886 -39.654782 
L 213.962668 -39.613968 
L 213.893715 -39.573154 
L 213.8067 -39.53234 
L 213.706059 -39.491526 
L 213.59679 -39.450712 
L 213.484221 -39.409898 
L 213.373765 -39.369085 
L 213.270679 -39.328271 
L 213.179827 -39.287457 
L 213.105469 -39.246643 
L 213.05108 -39.205829 
L 213.019207 -39.165015 
L 213.011366 -39.124201 
L 213.027983 -39.083387 
L 213.068393 -39.042573 
L 213.130871 -39.00176 
L 213.212721 -38.960946 
L 213.310411 -38.920132 
L 213.419748 -38.879318 
L 213.536087 -38.838504 
L 213.654579 -38.79769 
L 213.770432 -38.756876 
L 213.879185 -38.716062 
L 213.976973 -38.675248 
L 214.060775 -38.634435 
L 214.128617 -38.593621 
L 214.17974 -38.552807 
L 214.214681 -38.511993 
L 214.235304 -38.471179 
L 214.24473 -38.430365 
L 214.247204 -38.389551 
L 214.24788 -38.348737 
L 214.252541 -38.307924 
L 214.267281 -38.26711 
L 214.298149 -38.226296 
L 214.350793 -38.185482 
L 214.430125 -38.144668 
L 214.54003 -38.103854 
L 214.683133 -38.06304 
L 214.86066 -38.022226 
L 215.072388 -37.981412 
L 215.316699 -37.940599 
L 215.59073 -37.899785 
L 215.890613 -37.858971 
L 216.211785 -37.818157 
L 216.549333 -37.777343 
L 216.898364 -37.736529 
L 217.254338 -37.695715 
L 217.613351 -37.654901 
L 217.97233 -37.614087 
L 218.329122 -37.573274 
L 218.682449 -37.53246 
L 219.031754 -37.491646 
L 219.376927 -37.450832 
L 219.717948 -37.410018 
L 220.054483 -37.369204 
L 220.385474 -37.32839 
L 220.708779 -37.287576 
L 221.020891 -37.246762 
L 221.316796 -37.205949 
L 221.589979 -37.165135 
L 221.832605 -37.124321 
L 222.035856 -37.083507 
L 222.190419 -37.042693 
L 222.287066 -37.001879 
L 222.3173 -36.961065 
L 222.273992 -36.920251 
L 222.151964 -36.879437 
L 221.948462 -36.838624 
L 221.663469 -36.79781 
L 221.29985 -36.756996 
L 220.863295 -36.716182 
L 220.36208 -36.675368 
L 219.806663 -36.634554 
L 219.209153 -36.59374 
L 218.582694 -36.552926 
L 217.940812 -36.512113 
L 217.296785 -36.471299 
L 216.663055 -36.430485 
L 216.050751 -36.389671 
L 215.469312 -36.348857 
L 214.92626 -36.308043 
L 214.427086 -36.267229 
L 213.975271 -36.226415 
z
" style="stroke: #6f6f6f; stroke-width: 0.15"/>
    </defs>
    <g clip-path="url(#pa3dc9a0b4a)">
     <use xlink:href="#m50f3e780d8" x="0" y="84.96" style="fill: #cfcfcf; stroke: #6f6f6f; stroke-width: 0.15"/>
    </g>
   </g>
   <g id="PolyCollection_9">
    <defs>
     <path id="m1f6e4641cb" d="M 240.260912 -36.483889 
L 236.623644 -36.483889 
L 236.33041 -36.750563 
L 236.014566 -37.017237 
L 235.679305 -37.283911 
L 235.328739 -37.550585 
L 234.967791 -37.817259 
L 234.602024 -38.083933 
L 234.237404 -38.350607 
L 233.880015 -38.617281 
L 233.535723 -38.883955 
L 233.209835 -39.150629 
L 232.906755 -39.417303 
L 232.629667 -39.683977 
L 232.380288 -39.950651 
L 232.158691 -40.217325 
L 231.963236 -40.483999 
L 231.790617 -40.750673 
L 231.636031 -41.017347 
L 231.493456 -41.284021 
L 231.356043 -41.550695 
L 231.216587 -41.817369 
L 231.068045 -42.084043 
L 230.904072 -42.350717 
L 230.719546 -42.617391 
L 230.511016 -42.884065 
L 230.277077 -43.150739 
L 230.018606 -43.417413 
L 229.738871 -43.684087 
L 229.443475 -43.950761 
L 229.140162 -44.217435 
L 228.838471 -44.484109 
L 228.549277 -44.750783 
L 228.284241 -45.017457 
L 228.055203 -45.284131 
L 227.87356 -45.550805 
L 227.749667 -45.817479 
L 227.692292 -46.084153 
L 227.708169 -46.350827 
L 227.80166 -46.617501 
L 227.97455 -46.884175 
L 228.225989 -47.150849 
L 228.552553 -47.417523 
L 228.948456 -47.684197 
L 229.405845 -47.950871 
L 229.915201 -48.217545 
L 230.465777 -48.484219 
L 231.046081 -48.750893 
L 231.644347 -49.017567 
L 232.248975 -49.284241 
L 232.84893 -49.550915 
L 233.434069 -49.817589 
L 233.995382 -50.084263 
L 234.52516 -50.350937 
L 235.017067 -50.617611 
L 235.466147 -50.884285 
L 235.868749 -51.150959 
L 236.222413 -51.417633 
L 236.525707 -51.684307 
L 236.77805 -51.950981 
L 236.97953 -52.217655 
L 237.130735 -52.484328 
L 237.232606 -52.751002 
L 237.286328 -53.017676 
L 237.293265 -53.28435 
L 237.254934 -53.551024 
L 237.173028 -53.817698 
L 237.049478 -54.084372 
L 236.886544 -54.351046 
L 236.686922 -54.61772 
L 236.453865 -54.884394 
L 236.191287 -55.151068 
L 235.903849 -55.417742 
L 235.597001 -55.684416 
L 235.276982 -55.95109 
L 234.950758 -56.217764 
L 234.625897 -56.484438 
L 234.310392 -56.751112 
L 234.012419 -57.017786 
L 233.740062 -57.28446 
L 233.501006 -57.551134 
L 233.30222 -57.817808 
L 233.149659 -58.084482 
L 233.047991 -58.351156 
L 233.000383 -58.61783 
L 233.008354 -58.884504 
L 233.071701 -59.151178 
L 233.188521 -59.417852 
L 233.355308 -59.684526 
L 233.567134 -59.9512 
L 233.817893 -60.217874 
L 234.100595 -60.484548 
L 234.40769 -60.751222 
L 234.731399 -61.017896 
L 235.06404 -61.28457 
L 235.398317 -61.551244 
L 235.727572 -61.817918 
L 236.045981 -62.084592 
L 236.348687 -62.351266 
L 236.631871 -62.61794 
L 236.892775 -62.884614 
L 239.991781 -62.884614 
L 239.991781 -62.884614 
L 240.252684 -62.61794 
L 240.535869 -62.351266 
L 240.838575 -62.084592 
L 241.156984 -61.817918 
L 241.486239 -61.551244 
L 241.820516 -61.28457 
L 242.153157 -61.017896 
L 242.476866 -60.751222 
L 242.783961 -60.484548 
L 243.066663 -60.217874 
L 243.317422 -59.9512 
L 243.529248 -59.684526 
L 243.696035 -59.417852 
L 243.812855 -59.151178 
L 243.876202 -58.884504 
L 243.884173 -58.61783 
L 243.836565 -58.351156 
L 243.734897 -58.084482 
L 243.582336 -57.817808 
L 243.38355 -57.551134 
L 243.144494 -57.28446 
L 242.872137 -57.017786 
L 242.574164 -56.751112 
L 242.258659 -56.484438 
L 241.933798 -56.217764 
L 241.607574 -55.95109 
L 241.287555 -55.684416 
L 240.980707 -55.417742 
L 240.693269 -55.151068 
L 240.430691 -54.884394 
L 240.197634 -54.61772 
L 239.998012 -54.351046 
L 239.835078 -54.084372 
L 239.711528 -53.817698 
L 239.629622 -53.551024 
L 239.591291 -53.28435 
L 239.598228 -53.017676 
L 239.65195 -52.751002 
L 239.753821 -52.484328 
L 239.905026 -52.217655 
L 240.106506 -51.950981 
L 240.358849 -51.684307 
L 240.662143 -51.417633 
L 241.015807 -51.150959 
L 241.418409 -50.884285 
L 241.867489 -50.617611 
L 242.359396 -50.350937 
L 242.889174 -50.084263 
L 243.450487 -49.817589 
L 244.035626 -49.550915 
L 244.635581 -49.284241 
L 245.240209 -49.017567 
L 245.838475 -48.750893 
L 246.418779 -48.484219 
L 246.969355 -48.217545 
L 247.47871 -47.950871 
L 247.9361 -47.684197 
L 248.332003 -47.417523 
L 248.658567 -47.150849 
L 248.910005 -46.884175 
L 249.082896 -46.617501 
L 249.176387 -46.350827 
L 249.192264 -46.084153 
L 249.134889 -45.817479 
L 249.010996 -45.550805 
L 248.829353 -45.284131 
L 248.600315 -45.017457 
L 248.335279 -44.750783 
L 248.046085 -44.484109 
L 247.744394 -44.217435 
L 247.441081 -43.950761 
L 247.145685 -43.684087 
L 246.86595 -43.417413 
L 246.607479 -43.150739 
L 246.37354 -42.884065 
L 246.16501 -42.617391 
L 245.980484 -42.350717 
L 245.816511 -42.084043 
L 245.667968 -41.817369 
L 245.528513 -41.550695 
L 245.3911 -41.284021 
L 245.248525 -41.017347 
L 245.093939 -40.750673 
L 244.92132 -40.483999 
L 244.725865 -40.217325 
L 244.504268 -39.950651 
L 244.254889 -39.683977 
L 243.977801 -39.417303 
L 243.674721 -39.150629 
L 243.348833 -38.883955 
L 243.004541 -38.617281 
L 242.647152 -38.350607 
L 242.282532 -38.083933 
L 241.916765 -37.817259 
L 241.555817 -37.550585 
L 241.205251 -37.283911 
L 240.86999 -37.017237 
L 240.554146 -36.750563 
L 240.260912 -36.483889 
z
" style="stroke: #6f6f6f; stroke-width: 0.15"/>
    </defs>
    <g clip-path="url(#pa3dc9a0b4a)">
     <use xlink:href="#m1f6e4641cb" x="0" y="84.96" style="fill: #f3f3ae; stroke: #6f6f6f; stroke-width: 0.15"/>
    </g>
   </g>
   <g id="line2d_8">
    <path d="M 23.442566 46.512823 
L 23.442566 37.274108 
" clip-path="url(#pa3dc9a0b4a)" style="fill: none; stroke: #8c8c8c; stroke-width: 0.75; stroke-linecap: round"/>
   </g>
   <g id="line2d_9">
    <path d="M 23.442566 44.821119 
L 23.442566 41.746467 
" clip-path="url(#pa3dc9a0b4a)" style="fill: none; stroke: #8c8c8c; stroke-width: 4; stroke-linecap: round"/>
   </g>
   <g id="line2d_10">
    <path d="M 23.442566 44.384467 
" clip-path="url(#pa3dc9a0b4a)" style="fill: none; stroke: #6f6f6f; stroke-width: 1.2; stroke-linecap: round"/>
    <defs>
     <path id="m3402c303f4" d="M 0 0.833333 
C 0.221003 0.833333 0.432983 0.745528 0.589256 0.589256 
C 0.745528 0.432983 0.833333 0.221003 0.833333 0 
C 0.833333 -0.221003 0.745528 -0.432983 0.589256 -0.589256 
C 0.432983 -0.745528 0.221003 -0.833333 0 -0.833333 
C -0.221003 -0.833333 -0.432983 -0.745528 -0.589256 -0.589256 
C -0.745528 -0.432983 -0.833333 -0.221003 -0.833333 0 
C -0.833333 0.221003 -0.745528 0.432983 -0.589256 0.589256 
C -0.432983 0.745528 -0.221003 0.833333 0 0.833333 
z
" style="stroke: #ffffff; stroke-width: 0.8"/>
    </defs>
    <g clip-path="url(#pa3dc9a0b4a)">
     <use xlink:href="#m3402c303f4" x="23.442566" y="44.384467" style="fill: #ffffff; stroke: #ffffff; stroke-width: 0.8"/>
    </g>
   </g>
   <g id="line2d_11">
    <path d="M 50.31753 47.116002 
L 50.31753 30.896421 
" clip-path="url(#pa3dc9a0b4a)" style="fill: none; stroke: #8c8c8c; stroke-width: 0.75; stroke-linecap: round"/>
   </g>
   <g id="line2d_12">
    <path d="M 50.31753 41.887852 
L 50.31753 36.773186 
" clip-path="url(#pa3dc9a0b4a)" style="fill: none; stroke: #8c8c8c; stroke-width: 4; stroke-linecap: round"/>
   </g>
   <g id="line2d_13">
    <path d="M 50.31753 39.470003 
" clip-path="url(#pa3dc9a0b4a)" style="fill: none; stroke: #6f6f6f; stroke-width: 1.2; stroke-linecap: round"/>
    <g clip-path="url(#pa3dc9a0b4a)">
     <use xlink:href="#m3402c303f4" x="50.31753" y="39.470003" style="fill: #ffffff; stroke: #ffffff; stroke-width: 0.8"/>
    </g>
   </g>
   <g id="line2d_14">
    <path d="M 77.192494 47.241612 
L 77.192494 28.32806 
" clip-path="url(#pa3dc9a0b4a)" style="fill: none; stroke: #8c8c8c; stroke-width: 0.75; stroke-linecap: round"/>
   </g>
   <g id="line2d_15">
    <path d="M 77.192494 39.796719 
L 77.192494 33.537619 
" clip-path="url(#pa3dc9a0b4a)" style="fill: none; stroke: #8c8c8c; stroke-width: 4; stroke-linecap: round"/>
   </g>
   <g id="line2d_16">
    <path d="M 77.192494 38.658771 
" clip-path="url(#pa3dc9a0b4a)" style="fill: none; stroke: #6f6f6f; stroke-width: 1.2; stroke-linecap: round"/>
    <g clip-path="url(#pa3dc9a0b4a)">
     <use xlink:href="#m3402c303f4" x="77.192494" y="38.658771" style="fill: #ffffff; stroke: #ffffff; stroke-width: 0.8"/>
    </g>
   </g>
   <g id="line2d_17">
    <path d="M 104.067458 48.250061 
L 104.067458 46.276314 
" clip-path="url(#pa3dc9a0b4a)" style="fill: none; stroke: #8c8c8c; stroke-width: 0.75; stroke-linecap: round"/>
   </g>
   <g id="line2d_18">
    <path d="M 104.067458 48.110814 
L 104.067458 47.295345 
" clip-path="url(#pa3dc9a0b4a)" style="fill: none; stroke: #8c8c8c; stroke-width: 4; stroke-linecap: round"/>
   </g>
   <g id="line2d_19">
    <path d="M 104.067458 47.876617 
" clip-path="url(#pa3dc9a0b4a)" style="fill: none; stroke: #6f6f6f; stroke-width: 1.2; stroke-linecap: round"/>
    <g clip-path="url(#pa3dc9a0b4a)">
     <use xlink:href="#m3402c303f4" x="104.067458" y="47.876617" style="fill: #ffffff; stroke: #ffffff; stroke-width: 0.8"/>
    </g>
   </g>
   <g id="line2d_20">
    <path d="M 130.942422 47.85086 
L 130.942422 47.256454 
" clip-path="url(#pa3dc9a0b4a)" style="fill: none; stroke: #8c8c8c; stroke-width: 0.75; stroke-linecap: round"/>
   </g>
   <g id="line2d_21">
    <path d="M 130.942422 47.65085 
L 130.942422 47.407855 
" clip-path="url(#pa3dc9a0b4a)" style="fill: none; stroke: #8c8c8c; stroke-width: 4; stroke-linecap: round"/>
   </g>
   <g id="line2d_22">
    <path d="M 130.942422 47.535564 
" clip-path="url(#pa3dc9a0b4a)" style="fill: none; stroke: #6f6f6f; stroke-width: 1.2; stroke-linecap: round"/>
    <g clip-path="url(#pa3dc9a0b4a)">
     <use xlink:href="#m3402c303f4" x="130.942422" y="47.535564" style="fill: #ffffff; stroke: #ffffff; stroke-width: 0.8"/>
    </g>
   </g>
   <g id="line2d_23">
    <path d="M 157.817386 47.58742 
L 157.817386 29.394246 
" clip-path="url(#pa3dc9a0b4a)" style="fill: none; stroke: #8c8c8c; stroke-width: 0.75; stroke-linecap: round"/>
   </g>
   <g id="line2d_24">
    <path d="M 157.817386 43.885232 
L 157.817386 35.959619 
" clip-path="url(#pa3dc9a0b4a)" style="fill: none; stroke: #8c8c8c; stroke-width: 4; stroke-linecap: round"/>
   </g>
   <g id="line2d_25">
    <path d="M 157.817386 42.044234 
" clip-path="url(#pa3dc9a0b4a)" style="fill: none; stroke: #6f6f6f; stroke-width: 1.2; stroke-linecap: round"/>
    <g clip-path="url(#pa3dc9a0b4a)">
     <use xlink:href="#m3402c303f4" x="157.817386" y="42.044234" style="fill: #ffffff; stroke: #ffffff; stroke-width: 0.8"/>
    </g>
   </g>
   <g id="line2d_26">
    <path d="M 184.69235 46.01032 
L 184.69235 31.293047 
" clip-path="url(#pa3dc9a0b4a)" style="fill: none; stroke: #8c8c8c; stroke-width: 0.75; stroke-linecap: round"/>
   </g>
   <g id="line2d_27">
    <path d="M 184.69235 42.722779 
L 184.69235 35.237217 
" clip-path="url(#pa3dc9a0b4a)" style="fill: none; stroke: #8c8c8c; stroke-width: 4; stroke-linecap: round"/>
   </g>
   <g id="line2d_28">
    <path d="M 184.69235 39.790819 
" clip-path="url(#pa3dc9a0b4a)" style="fill: none; stroke: #6f6f6f; stroke-width: 1.2; stroke-linecap: round"/>
    <g clip-path="url(#pa3dc9a0b4a)">
     <use xlink:href="#m3402c303f4" x="184.69235" y="39.790819" style="fill: #ffffff; stroke: #ffffff; stroke-width: 0.8"/>
    </g>
   </g>
   <g id="line2d_29">
    <path d="M 211.567314 48.186896 
L 211.567314 46.418412 
" clip-path="url(#pa3dc9a0b4a)" style="fill: none; stroke: #8c8c8c; stroke-width: 0.75; stroke-linecap: round"/>
   </g>
   <g id="line2d_30">
    <path d="M 211.567314 48.088458 
L 211.567314 47.141195 
" clip-path="url(#pa3dc9a0b4a)" style="fill: none; stroke: #8c8c8c; stroke-width: 4; stroke-linecap: round"/>
   </g>
   <g id="line2d_31">
    <path d="M 211.567314 47.705263 
" clip-path="url(#pa3dc9a0b4a)" style="fill: none; stroke: #6f6f6f; stroke-width: 1.2; stroke-linecap: round"/>
    <g clip-path="url(#pa3dc9a0b4a)">
     <use xlink:href="#m3402c303f4" x="211.567314" y="47.705263" style="fill: #ffffff; stroke: #ffffff; stroke-width: 0.8"/>
    </g>
   </g>
   <g id="line2d_32">
    <path d="M 238.442278 44.707159 
L 238.442278 25.844338 
" clip-path="url(#pa3dc9a0b4a)" style="fill: none; stroke: #8c8c8c; stroke-width: 0.75; stroke-linecap: round"/>
   </g>
   <g id="line2d_33">
    <path d="M 238.442278 40.863621 
L 238.442278 34.495606 
" clip-path="url(#pa3dc9a0b4a)" style="fill: none; stroke: #8c8c8c; stroke-width: 4; stroke-linecap: round"/>
   </g>
   <g id="line2d_34">
    <path d="M 238.442278 38.583503 
" clip-path="url(#pa3dc9a0b4a)" style="fill: none; stroke: #6f6f6f; stroke-width: 1.2; stroke-linecap: round"/>
    <g clip-path="url(#pa3dc9a0b4a)">
     <use xlink:href="#m3402c303f4" x="238.442278" y="38.583503" style="fill: #ffffff; stroke: #ffffff; stroke-width: 0.8"/>
    </g>
   </g>
   <g id="patch_3">
    <path d="M 10.005084 54.222338 
L 10.005084 4.076256 
" style="fill: none; stroke: #777777; stroke-width: 0.5; stroke-linejoin: miter; stroke-linecap: square"/>
   </g>
   <g id="patch_4">
    <path d="M 10.005084 56.722338 
L 251.87976 56.722338 
" style="fill: none; stroke: #777777; stroke-width: 0.5; stroke-linejoin: miter; stroke-linecap: square"/>
   </g>
  </g>
 </g>
 <defs>
  <clipPath id="pa3dc9a0b4a">
   <rect x="10.005084" y="4.076256" width="241.874676" height="50.146082"/>
  </clipPath>
 </defs>
</svg>
