<?xml version="1.0" encoding="utf-8" standalone="no"?>
<!DOCTYPE svg PUBLIC "-//W3C//DTD SVG 1.1//EN"
  "http://www.w3.org/Graphics/SVG/1.1/DTD/svg11.dtd">
<svg xmlns:xlink="http://www.w3.org/1999/xlink" width="84.96pt" height="84.96pt" viewBox="0 0 84.96 84.96" xmlns="http://www.w3.org/2000/svg" version="1.1">
 <metadata>
  <rdf:RDF xmlns:dc="http://purl.org/dc/elements/1.1/" xmlns:cc="http://creativecommons.org/ns#" xmlns:rdf="http://www.w3.org/1999/02/22-rdf-syntax-ns#">
   <cc:Work>
    <dc:type rdf:resource="http://purl.org/dc/dcmitype/StillImage"/>
    <dc:date>2024-05-27T15:37:06.589459</dc:date>
    <dc:format>image/svg+xml</dc:format>
    <dc:creator>
     <cc:Agent>
      <dc:title>Matplotlib v3.8.3, https://matplotlib.org/</dc:title>
     </cc:Agent>
    </dc:creator>
   </cc:Work>
  </rdf:RDF>
 </metadata>
 <defs>
  <style type="text/css">*{stroke-linejoin: round; stroke-linecap: butt}</style>
 </defs>
 <g id="figure_1">
  <g id="patch_1">
   <path d="M 0 84.96 
L 84.96 84.96 
L 84.96 0 
L 0 0 
z
" style="fill: #ffffff"/>
  </g>
  <g id="axes_1">
   <g id="patch_2">
    <path d="M 8.336802 74.419526 
L 81.95976 74.419526 
L 81.95976 4.076256 
L 8.336802 4.076256 
z
" style="fill: #ffffff"/>
   </g>
   <g id="matplotlib.axis_1">
    <g id="xtick_1">
     <g id="text_1">
      <!-- B -->
      <g style="fill: #333333" transform="translate(19.439991 81.230229) scale(0.035 -0.035)">
       <defs>
        <path id="Helvetica-42" d="M 2213 2650 
Q 2606 2650 2825 2759 
Q 3169 2931 3169 3378 
Q 3169 3828 2803 3984 
Q 2597 4072 2191 4072 
L 1081 4072 
L 1081 2650 
L 2213 2650 
z
M 2422 531 
Q 2994 531 3238 863 
Q 3391 1072 3391 1369 
Q 3391 1869 2944 2050 
Q 2706 2147 2316 2147 
L 1081 2147 
L 1081 531 
L 2422 531 
z
M 472 4591 
L 2444 4591 
Q 3250 4591 3591 4109 
Q 3791 3825 3791 3453 
Q 3791 3019 3544 2741 
Q 3416 2594 3175 2472 
Q 3528 2338 3703 2169 
Q 4013 1869 4013 1341 
Q 4013 897 3734 538 
Q 3319 0 2413 0 
L 472 0 
L 472 4591 
z
" transform="scale(0.015625)"/>
       </defs>
       <use xlink:href="#Helvetica-42"/>
      </g>
     </g>
    </g>
    <g id="xtick_2">
     <g id="text_2">
      <!-- T -->
      <g style="fill: #333333" transform="translate(44.079414 81.230229) scale(0.035 -0.035)">
       <defs>
        <path id="Helvetica-54" d="M 3828 4591 
L 3828 4044 
L 2281 4044 
L 2281 0 
L 1650 0 
L 1650 4044 
L 103 4044 
L 103 4591 
L 3828 4591 
z
" transform="scale(0.015625)"/>
       </defs>
       <use xlink:href="#Helvetica-54"/>
      </g>
     </g>
    </g>
    <g id="xtick_3">
     <g id="text_3">
      <!-- IL7R Non B/T -->
      <g style="fill: #333333" transform="translate(59.088095 81.230229) scale(0.035 -0.035)">
       <defs>
        <path id="Helvetica-49" d="M 628 4591 
L 1256 4591 
L 1256 0 
L 628 0 
L 628 4591 
z
" transform="scale(0.015625)"/>
        <path id="Helvetica-4c" d="M 488 4591 
L 1109 4591 
L 1109 547 
L 3434 547 
L 3434 0 
L 488 0 
L 488 4591 
z
" transform="scale(0.015625)"/>
        <path id="Helvetica-37" d="M 3347 4400 
L 3347 3909 
Q 3131 3700 2773 3181 
Q 2416 2663 2141 2063 
Q 1869 1478 1728 997 
Q 1638 688 1494 0 
L 872 0 
Q 1084 1281 1809 2550 
Q 2238 3294 2709 3834 
L 234 3834 
L 234 4400 
L 3347 4400 
z
" transform="scale(0.015625)"/>
        <path id="Helvetica-52" d="M 2622 2488 
Q 3059 2488 3314 2663 
Q 3569 2838 3569 3294 
Q 3569 3784 3213 3963 
Q 3022 4056 2703 4056 
L 1184 4056 
L 1184 2488 
L 2622 2488 
z
M 563 4591 
L 2688 4591 
Q 3213 4591 3553 4438 
Q 4200 4144 4200 3353 
Q 4200 2941 4029 2678 
Q 3859 2416 3553 2256 
Q 3822 2147 3958 1969 
Q 4094 1791 4109 1391 
L 4131 775 
Q 4141 513 4175 384 
Q 4231 166 4375 103 
L 4375 0 
L 3613 0 
Q 3581 59 3562 153 
Q 3544 247 3531 516 
L 3494 1281 
Q 3472 1731 3159 1884 
Q 2981 1969 2600 1969 
L 1184 1969 
L 1184 0 
L 563 0 
L 563 4591 
z
" transform="scale(0.015625)"/>
        <path id="Helvetica-20" transform="scale(0.015625)"/>
        <path id="Helvetica-4e" d="M 488 4591 
L 1222 4591 
L 3541 872 
L 3541 4591 
L 4131 4591 
L 4131 0 
L 3434 0 
L 1081 3716 
L 1081 0 
L 488 0 
L 488 4591 
z
M 2269 4591 
L 2269 4591 
z
" transform="scale(0.015625)"/>
        <path id="Helvetica-6f" d="M 1741 363 
Q 2300 363 2508 786 
Q 2716 1209 2716 1728 
Q 2716 2197 2566 2491 
Q 2328 2953 1747 2953 
Q 1231 2953 997 2559 
Q 763 2166 763 1609 
Q 763 1075 997 719 
Q 1231 363 1741 363 
z
M 1763 3444 
Q 2409 3444 2856 3012 
Q 3303 2581 3303 1744 
Q 3303 934 2909 406 
Q 2516 -122 1688 -122 
Q 997 -122 590 345 
Q 184 813 184 1600 
Q 184 2444 612 2944 
Q 1041 3444 1763 3444 
z
M 1744 3428 
L 1744 3428 
z
" transform="scale(0.015625)"/>
        <path id="Helvetica-6e" d="M 413 3347 
L 947 3347 
L 947 2872 
Q 1184 3166 1450 3294 
Q 1716 3422 2041 3422 
Q 2753 3422 3003 2925 
Q 3141 2653 3141 2147 
L 3141 0 
L 2569 0 
L 2569 2109 
Q 2569 2416 2478 2603 
Q 2328 2916 1934 2916 
Q 1734 2916 1606 2875 
Q 1375 2806 1200 2600 
Q 1059 2434 1017 2257 
Q 975 2081 975 1753 
L 975 0 
L 413 0 
L 413 3347 
z
M 1734 3428 
L 1734 3428 
z
" transform="scale(0.015625)"/>
        <path id="Helvetica-2f" d="M 1456 4591 
L 1931 4591 
L 475 0 
L 0 0 
L 1456 4591 
z
" transform="scale(0.015625)"/>
       </defs>
       <use xlink:href="#Helvetica-49"/>
       <use xlink:href="#Helvetica-4c" x="27.783203"/>
       <use xlink:href="#Helvetica-37" x="83.398438"/>
       <use xlink:href="#Helvetica-52" x="139.013672"/>
       <use xlink:href="#Helvetica-20" x="211.230469"/>
       <use xlink:href="#Helvetica-4e" x="239.013672"/>
       <use xlink:href="#Helvetica-6f" x="311.230469"/>
       <use xlink:href="#Helvetica-6e" x="366.845703"/>
       <use xlink:href="#Helvetica-20" x="422.460938"/>
       <use xlink:href="#Helvetica-42" x="450.244141"/>
       <use xlink:href="#Helvetica-2f" x="516.943359"/>
       <use xlink:href="#Helvetica-54" x="544.726562"/>
      </g>
     </g>
    </g>
   </g>
   <g id="matplotlib.axis_2">
    <g id="ytick_1">
     <g id="line2d_1">
      <defs>
       <path id="m68b4e21936" d="M 0 0 
L -1 0 
" style="stroke: #777777; stroke-width: 0.5"/>
      </defs>
      <g>
       <use xlink:href="#m68b4e21936" x="8.336802" y="66.673159" style="fill: #777777; stroke: #777777; stroke-width: 0.5"/>
      </g>
     </g>
     <g id="text_4">
      <!-- 0 -->
      <g style="fill: #333333" transform="translate(4.668521 67.749174) scale(0.03 -0.03)">
       <defs>
        <path id="Helvetica-30" d="M 1731 4475 
Q 2600 4475 2988 3759 
Q 3288 3206 3288 2244 
Q 3288 1331 3016 734 
Q 2622 -122 1728 -122 
Q 922 -122 528 578 
Q 200 1163 200 2147 
Q 200 2909 397 3456 
Q 766 4475 1731 4475 
z
M 1725 391 
Q 2163 391 2422 778 
Q 2681 1166 2681 2222 
Q 2681 2984 2493 3476 
Q 2306 3969 1766 3969 
Q 1269 3969 1039 3501 
Q 809 3034 809 2125 
Q 809 1441 956 1025 
Q 1181 391 1725 391 
z
" transform="scale(0.015625)"/>
       </defs>
       <use xlink:href="#Helvetica-30"/>
      </g>
     </g>
    </g>
    <g id="ytick_2">
     <g id="line2d_2">
      <g>
       <use xlink:href="#m68b4e21936" x="8.336802" y="58.848546" style="fill: #777777; stroke: #777777; stroke-width: 0.5"/>
      </g>
     </g>
     <g id="text_5">
      <!-- 10 -->
      <g style="fill: #333333" transform="translate(3.00024 59.924562) scale(0.03 -0.03)">
       <defs>
        <path id="Helvetica-31" d="M 613 3169 
L 613 3600 
Q 1222 3659 1462 3798 
Q 1703 3938 1822 4456 
L 2266 4456 
L 2266 0 
L 1666 0 
L 1666 3169 
L 613 3169 
z
" transform="scale(0.015625)"/>
       </defs>
       <use xlink:href="#Helvetica-31"/>
       <use xlink:href="#Helvetica-30" x="55.615234"/>
      </g>
     </g>
    </g>
    <g id="ytick_3">
     <g id="line2d_3">
      <g>
       <use xlink:href="#m68b4e21936" x="8.336802" y="51.023933" style="fill: #777777; stroke: #777777; stroke-width: 0.5"/>
      </g>
     </g>
     <g id="text_6">
      <!-- 20 -->
      <g style="fill: #333333" transform="translate(3.00024 52.099949) scale(0.03 -0.03)">
       <defs>
        <path id="Helvetica-32" d="M 200 0 
Q 231 578 439 1006 
Q 647 1434 1250 1784 
L 1850 2131 
Q 2253 2366 2416 2531 
Q 2672 2791 2672 3125 
Q 2672 3516 2437 3745 
Q 2203 3975 1813 3975 
Q 1234 3975 1013 3538 
Q 894 3303 881 2888 
L 309 2888 
Q 319 3472 525 3841 
Q 891 4491 1816 4491 
Q 2584 4491 2939 4075 
Q 3294 3659 3294 3150 
Q 3294 2613 2916 2231 
Q 2697 2009 2131 1694 
L 1703 1456 
Q 1397 1288 1222 1134 
Q 909 863 828 531 
L 3272 531 
L 3272 0 
L 200 0 
z
" transform="scale(0.015625)"/>
       </defs>
       <use xlink:href="#Helvetica-32"/>
       <use xlink:href="#Helvetica-30" x="55.615234"/>
      </g>
     </g>
    </g>
    <g id="ytick_4">
     <g id="line2d_4">
      <g>
       <use xlink:href="#m68b4e21936" x="8.336802" y="43.19932" style="fill: #777777; stroke: #777777; stroke-width: 0.5"/>
      </g>
     </g>
     <g id="text_7">
      <!-- 30 -->
      <g style="fill: #333333" transform="translate(3.00024 44.275336) scale(0.03 -0.03)">
       <defs>
        <path id="Helvetica-33" d="M 1663 -122 
Q 869 -122 511 314 
Q 153 750 153 1375 
L 741 1375 
Q 778 941 903 744 
Q 1122 391 1694 391 
Q 2138 391 2406 628 
Q 2675 866 2675 1241 
Q 2675 1703 2392 1887 
Q 2109 2072 1606 2072 
Q 1550 2072 1492 2070 
Q 1434 2069 1375 2066 
L 1375 2563 
Q 1463 2553 1522 2550 
Q 1581 2547 1650 2547 
Q 1966 2547 2169 2647 
Q 2525 2822 2525 3272 
Q 2525 3606 2287 3787 
Q 2050 3969 1734 3969 
Q 1172 3969 956 3594 
Q 838 3388 822 3006 
L 266 3006 
Q 266 3506 466 3856 
Q 809 4481 1675 4481 
Q 2359 4481 2734 4176 
Q 3109 3872 3109 3294 
Q 3109 2881 2888 2625 
Q 2750 2466 2531 2375 
Q 2884 2278 3082 2001 
Q 3281 1725 3281 1325 
Q 3281 684 2859 281 
Q 2438 -122 1663 -122 
z
" transform="scale(0.015625)"/>
       </defs>
       <use xlink:href="#Helvetica-33"/>
       <use xlink:href="#Helvetica-30" x="55.615234"/>
      </g>
     </g>
    </g>
    <g id="ytick_5">
     <g id="line2d_5">
      <g>
       <use xlink:href="#m68b4e21936" x="8.336802" y="35.374707" style="fill: #777777; stroke: #777777; stroke-width: 0.5"/>
      </g>
     </g>
     <g id="text_8">
      <!-- 40 -->
      <g style="fill: #333333" transform="translate(3.00024 36.450723) scale(0.03 -0.03)">
       <defs>
        <path id="Helvetica-34" d="M 2116 1584 
L 2116 3613 
L 681 1584 
L 2116 1584 
z
M 2125 0 
L 2125 1094 
L 163 1094 
L 163 1644 
L 2213 4488 
L 2688 4488 
L 2688 1584 
L 3347 1584 
L 3347 1094 
L 2688 1094 
L 2688 0 
L 2125 0 
z
" transform="scale(0.015625)"/>
       </defs>
       <use xlink:href="#Helvetica-34"/>
       <use xlink:href="#Helvetica-30" x="55.615234"/>
      </g>
     </g>
    </g>
    <g id="ytick_6">
     <g id="line2d_6">
      <g>
       <use xlink:href="#m68b4e21936" x="8.336802" y="27.550094" style="fill: #777777; stroke: #777777; stroke-width: 0.5"/>
      </g>
     </g>
     <g id="text_9">
      <!-- 50 -->
      <g style="fill: #333333" transform="translate(3.00024 28.62611) scale(0.03 -0.03)">
       <defs>
        <path id="Helvetica-35" d="M 791 1141 
Q 847 659 1238 475 
Q 1438 381 1700 381 
Q 2200 381 2440 700 
Q 2681 1019 2681 1406 
Q 2681 1875 2395 2131 
Q 2109 2388 1709 2388 
Q 1419 2388 1211 2275 
Q 1003 2163 856 1963 
L 369 1991 
L 709 4400 
L 3034 4400 
L 3034 3856 
L 1131 3856 
L 941 2613 
Q 1097 2731 1238 2791 
Q 1488 2894 1816 2894 
Q 2431 2894 2859 2497 
Q 3288 2100 3288 1491 
Q 3288 856 2895 371 
Q 2503 -113 1644 -113 
Q 1097 -113 676 195 
Q 256 503 206 1141 
L 791 1141 
z
" transform="scale(0.015625)"/>
       </defs>
       <use xlink:href="#Helvetica-35"/>
       <use xlink:href="#Helvetica-30" x="55.615234"/>
      </g>
     </g>
    </g>
    <g id="ytick_7">
     <g id="line2d_7">
      <g>
       <use xlink:href="#m68b4e21936" x="8.336802" y="19.725481" style="fill: #777777; stroke: #777777; stroke-width: 0.5"/>
      </g>
     </g>
     <g id="text_10">
      <!-- 60 -->
      <g style="fill: #333333" transform="translate(3.00024 20.801497) scale(0.03 -0.03)">
       <defs>
        <path id="Helvetica-36" d="M 1872 4494 
Q 2622 4494 2917 4105 
Q 3213 3716 3213 3303 
L 2656 3303 
Q 2606 3569 2497 3719 
Q 2294 4000 1881 4000 
Q 1409 4000 1131 3564 
Q 853 3128 822 2316 
Q 1016 2600 1309 2741 
Q 1578 2866 1909 2866 
Q 2472 2866 2890 2506 
Q 3309 2147 3309 1434 
Q 3309 825 2912 354 
Q 2516 -116 1781 -116 
Q 1153 -116 697 361 
Q 241 838 241 1966 
Q 241 2800 444 3381 
Q 834 4494 1872 4494 
z
M 1831 384 
Q 2275 384 2495 682 
Q 2716 981 2716 1388 
Q 2716 1731 2519 2042 
Q 2322 2353 1803 2353 
Q 1441 2353 1167 2112 
Q 894 1872 894 1388 
Q 894 963 1142 673 
Q 1391 384 1831 384 
z
" transform="scale(0.015625)"/>
       </defs>
       <use xlink:href="#Helvetica-36"/>
       <use xlink:href="#Helvetica-30" x="55.615234"/>
      </g>
     </g>
    </g>
    <g id="ytick_8">
     <g id="line2d_8">
      <g>
       <use xlink:href="#m68b4e21936" x="8.336802" y="11.900869" style="fill: #777777; stroke: #777777; stroke-width: 0.5"/>
      </g>
     </g>
     <g id="text_11">
      <!-- 70 -->
      <g style="fill: #333333" transform="translate(3.00024 12.976884) scale(0.03 -0.03)">
       <use xlink:href="#Helvetica-37"/>
       <use xlink:href="#Helvetica-30" x="55.615234"/>
      </g>
     </g>
    </g>
    <g id="ytick_9">
     <g id="line2d_9">
      <g>
       <use xlink:href="#m68b4e21936" x="8.336802" y="4.076256" style="fill: #777777; stroke: #777777; stroke-width: 0.5"/>
      </g>
     </g>
     <g id="text_12">
      <!-- 80 -->
      <g style="fill: #333333" transform="translate(3.00024 5.152271) scale(0.03 -0.03)">
       <defs>
        <path id="Helvetica-38" d="M 1741 2600 
Q 2113 2600 2322 2808 
Q 2531 3016 2531 3303 
Q 2531 3553 2331 3762 
Q 2131 3972 1722 3972 
Q 1316 3972 1134 3762 
Q 953 3553 953 3272 
Q 953 2956 1187 2778 
Q 1422 2600 1741 2600 
z
M 1775 384 
Q 2166 384 2423 595 
Q 2681 806 2681 1225 
Q 2681 1659 2415 1884 
Q 2150 2109 1734 2109 
Q 1331 2109 1076 1879 
Q 822 1650 822 1244 
Q 822 894 1055 639 
Q 1288 384 1775 384 
z
M 975 2384 
Q 741 2484 609 2619 
Q 363 2869 363 3269 
Q 363 3769 725 4128 
Q 1088 4488 1753 4488 
Q 2397 4488 2762 4148 
Q 3128 3809 3128 3356 
Q 3128 2938 2916 2678 
Q 2797 2531 2547 2391 
Q 2825 2263 2984 2097 
Q 3281 1784 3281 1284 
Q 3281 694 2884 283 
Q 2488 -128 1763 -128 
Q 1109 -128 657 226 
Q 206 581 206 1256 
Q 206 1653 400 1942 
Q 594 2231 975 2384 
z
" transform="scale(0.015625)"/>
       </defs>
       <use xlink:href="#Helvetica-38"/>
       <use xlink:href="#Helvetica-30" x="55.615234"/>
      </g>
     </g>
    </g>
   </g>
   <g id="PolyCollection_1">
    <defs>
     <path id="m145a83d4dd" d="M 21.546739 -15.862269 
L 19.667851 -15.862269 
L 19.416735 -16.176093 
L 19.123281 -16.489917 
L 18.787482 -16.803741 
L 18.411337 -17.117564 
L 17.999055 -17.431388 
L 17.557093 -17.745212 
L 17.094017 -18.059036 
L 16.620151 -18.37286 
L 16.147065 -18.686683 
L 15.68691 -19.000507 
L 15.251681 -19.314331 
L 14.852475 -19.628155 
L 14.498817 -19.941979 
L 14.198134 -20.255802 
L 13.955421 -20.569626 
L 13.773132 -20.88345 
L 13.651293 -21.197274 
L 13.587805 -21.511098 
L 13.578887 -21.824921 
L 13.619594 -22.138745 
L 13.704318 -22.452569 
L 13.827236 -22.766393 
L 13.982621 -23.080217 
L 14.16501 -23.39404 
L 14.369217 -23.707864 
L 14.590209 -24.021688 
L 14.822896 -24.335512 
L 15.06188 -24.649335 
L 15.301223 -24.963159 
L 15.534284 -25.276983 
L 15.753667 -25.590807 
L 15.951294 -25.904631 
L 16.118608 -26.218454 
L 16.246896 -26.532278 
L 16.32769 -26.846102 
L 16.353238 -27.159926 
L 16.316991 -27.47375 
L 16.214091 -27.787573 
L 16.04182 -28.101397 
L 15.799999 -28.415221 
L 15.491293 -28.729045 
L 15.121406 -29.042869 
L 14.699124 -29.356692 
L 14.236167 -29.670516 
L 13.746842 -29.98434 
L 13.247464 -30.298164 
L 12.755569 -30.611987 
L 12.288959 -30.925811 
L 11.864639 -31.239635 
L 11.497732 -31.553459 
L 11.200487 -31.867283 
L 10.981465 -32.181106 
L 10.844986 -32.49493 
L 10.790901 -32.808754 
L 10.814684 -33.122578 
L 10.907846 -33.436402 
L 11.058605 -33.750225 
L 11.252729 -34.064049 
L 11.474478 -34.377873 
L 11.707558 -34.691697 
L 11.93601 -35.005521 
L 12.145007 -35.319344 
L 12.321526 -35.633168 
L 12.454902 -35.946992 
L 12.537272 -36.260816 
L 12.563933 -36.57464 
L 12.533612 -36.888463 
L 12.448633 -37.202287 
L 12.314958 -37.516111 
L 12.142063 -37.829935 
L 11.942589 -38.143758 
L 11.73176 -38.457582 
L 11.526538 -38.771406 
L 11.344581 -39.08523 
L 11.203056 -39.399054 
L 11.117434 -39.712877 
L 11.100387 -40.026701 
L 11.160924 -40.340525 
L 11.303848 -40.654349 
L 11.529613 -40.968173 
L 11.834554 -41.281996 
L 12.211468 -41.59582 
L 12.650412 -41.909644 
L 13.139636 -42.223468 
L 13.666498 -42.537292 
L 14.218286 -42.851115 
L 14.782853 -43.164939 
L 15.349067 -43.478763 
L 15.90706 -43.792587 
L 16.448329 -44.106411 
L 16.965733 -44.420234 
L 17.453445 -44.734058 
L 17.906882 -45.047882 
L 18.322654 -45.361706 
L 18.698525 -45.675529 
L 19.033381 -45.989353 
L 19.327187 -46.303177 
L 19.580925 -46.617001 
L 19.796482 -46.930825 
L 21.418109 -46.930825 
L 21.418109 -46.930825 
L 21.633666 -46.617001 
L 21.887403 -46.303177 
L 22.18121 -45.989353 
L 22.516066 -45.675529 
L 22.891937 -45.361706 
L 23.307709 -45.047882 
L 23.761146 -44.734058 
L 24.248858 -44.420234 
L 24.766262 -44.106411 
L 25.307531 -43.792587 
L 25.865523 -43.478763 
L 26.431738 -43.164939 
L 26.996305 -42.851115 
L 27.548093 -42.537292 
L 28.074955 -42.223468 
L 28.564179 -41.909644 
L 29.003123 -41.59582 
L 29.380036 -41.281996 
L 29.684978 -40.968173 
L 29.910743 -40.654349 
L 30.053667 -40.340525 
L 30.114204 -40.026701 
L 30.097157 -39.712877 
L 30.011535 -39.399054 
L 29.870009 -39.08523 
L 29.688052 -38.771406 
L 29.482831 -38.457582 
L 29.272001 -38.143758 
L 29.072528 -37.829935 
L 28.899633 -37.516111 
L 28.765958 -37.202287 
L 28.680978 -36.888463 
L 28.650658 -36.57464 
L 28.677319 -36.260816 
L 28.759689 -35.946992 
L 28.893064 -35.633168 
L 29.069584 -35.319344 
L 29.278581 -35.005521 
L 29.507033 -34.691697 
L 29.740112 -34.377873 
L 29.961862 -34.064049 
L 30.155986 -33.750225 
L 30.306745 -33.436402 
L 30.399907 -33.122578 
L 30.42369 -32.808754 
L 30.369604 -32.49493 
L 30.233126 -32.181106 
L 30.014104 -31.867283 
L 29.716859 -31.553459 
L 29.349952 -31.239635 
L 28.925631 -30.925811 
L 28.459022 -30.611987 
L 27.967127 -30.298164 
L 27.467748 -29.98434 
L 26.978423 -29.670516 
L 26.515467 -29.356692 
L 26.093185 -29.042869 
L 25.723298 -28.729045 
L 25.414592 -28.415221 
L 25.172771 -28.101397 
L 25.0005 -27.787573 
L 24.8976 -27.47375 
L 24.861353 -27.159926 
L 24.886901 -26.846102 
L 24.967695 -26.532278 
L 25.095983 -26.218454 
L 25.263297 -25.904631 
L 25.460924 -25.590807 
L 25.680307 -25.276983 
L 25.913367 -24.963159 
L 26.15271 -24.649335 
L 26.391695 -24.335512 
L 26.624382 -24.021688 
L 26.845374 -23.707864 
L 27.049581 -23.39404 
L 27.23197 -23.080217 
L 27.387354 -22.766393 
L 27.510272 -22.452569 
L 27.594997 -22.138745 
L 27.635703 -21.824921 
L 27.626786 -21.511098 
L 27.563298 -21.197274 
L 27.441458 -20.88345 
L 27.25917 -20.569626 
L 27.016457 -20.255802 
L 26.715774 -19.941979 
L 26.362116 -19.628155 
L 25.96291 -19.314331 
L 25.527681 -19.000507 
L 25.067526 -18.686683 
L 24.59444 -18.37286 
L 24.120574 -18.059036 
L 23.657498 -17.745212 
L 23.215536 -17.431388 
L 22.803254 -17.117564 
L 22.427108 -16.803741 
L 22.091309 -16.489917 
L 21.797856 -16.176093 
L 21.546739 -15.862269 
z
" style="stroke: #414141; stroke-width: 0.15"/>
    </defs>
    <g clip-path="url(#p6f1de47c19)">
     <use xlink:href="#m145a83d4dd" x="0" y="84.96" style="fill: #abc9ea; stroke: #414141; stroke-width: 0.15"/>
    </g>
   </g>
   <g id="PolyCollection_2">
    <defs>
     <path id="md6aeed0afc" d="M 45.957239 -20.801893 
L 44.339323 -20.801893 
L 44.115943 -21.02733 
L 43.85649 -21.252767 
L 43.56289 -21.478204 
L 43.239447 -21.703641 
L 42.892902 -21.929079 
L 42.53224 -22.154516 
L 42.168225 -22.379953 
L 41.812687 -22.60539 
L 41.47762 -22.830827 
L 41.174204 -23.056265 
L 40.911863 -23.281702 
L 40.697497 -23.507139 
L 40.535002 -23.732576 
L 40.425145 -23.958013 
L 40.365812 -24.18345 
L 40.352588 -24.408888 
L 40.379555 -24.634325 
L 40.44017 -24.859762 
L 40.528059 -25.085199 
L 40.63759 -25.310636 
L 40.764111 -25.536073 
L 40.903824 -25.761511 
L 41.053333 -25.986948 
L 41.208959 -26.212385 
L 41.365971 -26.437822 
L 41.517925 -26.663259 
L 41.656242 -26.888697 
L 41.770187 -27.114134 
L 41.847287 -27.339571 
L 41.8742 -27.565008 
L 41.837948 -27.790445 
L 41.727375 -28.015882 
L 41.534648 -28.24132 
L 41.256589 -28.466757 
L 40.895641 -28.692194 
L 40.460309 -28.917631 
L 39.964961 -29.143068 
L 39.428969 -29.368505 
L 38.875245 -29.593943 
L 38.328294 -29.81938 
L 37.812021 -30.044817 
L 37.347514 -30.270254 
L 36.951074 -30.495691 
L 36.632741 -30.721128 
L 36.395484 -30.946566 
L 36.235162 -31.172003 
L 36.141265 -31.39744 
L 36.098348 -31.622877 
L 36.087991 -31.848314 
L 36.091051 -32.073752 
L 36.089944 -32.299189 
L 36.070685 -32.524626 
L 36.024444 -32.750063 
L 35.948425 -32.9755 
L 35.845951 -33.200937 
L 35.72576 -33.426375 
L 35.600577 -33.651812 
L 35.485186 -33.877249 
L 35.39426 -34.102686 
L 35.340287 -34.328123 
L 35.331887 -34.55356 
L 35.372795 -34.778998 
L 35.461653 -35.004435 
L 35.59262 -35.229872 
L 35.756675 -35.455309 
L 35.943358 -35.680746 
L 36.14264 -35.906183 
L 36.346567 -36.131621 
L 36.550415 -36.357058 
L 36.753153 -36.582495 
L 36.957175 -36.807932 
L 37.16738 -37.033369 
L 37.389801 -37.258807 
L 37.630057 -37.484244 
L 37.891917 -37.709681 
L 38.176254 -37.935118 
L 38.480563 -38.160555 
L 38.799123 -38.385992 
L 39.123778 -38.61143 
L 39.44518 -38.836867 
L 39.754267 -39.062304 
L 40.043723 -39.287741 
L 40.30914 -39.513178 
L 40.549713 -39.738615 
L 40.768316 -39.964053 
L 40.970983 -40.18949 
L 41.165878 -40.414927 
L 41.361954 -40.640364 
L 41.567517 -40.865801 
L 41.788955 -41.091239 
L 42.029819 -41.316676 
L 42.290374 -41.542113 
L 42.567671 -41.76755 
L 42.856072 -41.992987 
L 43.148103 -42.218424 
L 43.435477 -42.443862 
L 43.710107 -42.669299 
L 43.964967 -42.894736 
L 44.194701 -43.120173 
L 46.101862 -43.120173 
L 46.101862 -43.120173 
L 46.331595 -42.894736 
L 46.586455 -42.669299 
L 46.861086 -42.443862 
L 47.14846 -42.218424 
L 47.440491 -41.992987 
L 47.728892 -41.76755 
L 48.006188 -41.542113 
L 48.266743 -41.316676 
L 48.507607 -41.091239 
L 48.729046 -40.865801 
L 48.934609 -40.640364 
L 49.130684 -40.414927 
L 49.32558 -40.18949 
L 49.528246 -39.964053 
L 49.746849 -39.738615 
L 49.987422 -39.513178 
L 50.25284 -39.287741 
L 50.542295 -39.062304 
L 50.851383 -38.836867 
L 51.172785 -38.61143 
L 51.49744 -38.385992 
L 51.816 -38.160555 
L 52.120308 -37.935118 
L 52.404646 -37.709681 
L 52.666506 -37.484244 
L 52.906761 -37.258807 
L 53.129182 -37.033369 
L 53.339387 -36.807932 
L 53.543409 -36.582495 
L 53.746147 -36.357058 
L 53.949995 -36.131621 
L 54.153923 -35.906183 
L 54.353204 -35.680746 
L 54.539888 -35.455309 
L 54.703942 -35.229872 
L 54.83491 -35.004435 
L 54.923768 -34.778998 
L 54.964676 -34.55356 
L 54.956275 -34.328123 
L 54.902302 -34.102686 
L 54.811377 -33.877249 
L 54.695985 -33.651812 
L 54.570802 -33.426375 
L 54.450611 -33.200937 
L 54.348138 -32.9755 
L 54.272118 -32.750063 
L 54.225878 -32.524626 
L 54.206619 -32.299189 
L 54.205512 -32.073752 
L 54.208572 -31.848314 
L 54.198215 -31.622877 
L 54.155298 -31.39744 
L 54.0614 -31.172003 
L 53.901078 -30.946566 
L 53.663822 -30.721128 
L 53.345489 -30.495691 
L 52.949049 -30.270254 
L 52.484541 -30.044817 
L 51.968269 -29.81938 
L 51.421318 -29.593943 
L 50.867593 -29.368505 
L 50.331602 -29.143068 
L 49.836253 -28.917631 
L 49.400921 -28.692194 
L 49.039973 -28.466757 
L 48.761914 -28.24132 
L 48.569187 -28.015882 
L 48.458614 -27.790445 
L 48.422362 -27.565008 
L 48.449275 -27.339571 
L 48.526376 -27.114134 
L 48.640321 -26.888697 
L 48.778638 -26.663259 
L 48.930591 -26.437822 
L 49.087604 -26.212385 
L 49.243229 -25.986948 
L 49.392739 -25.761511 
L 49.532452 -25.536073 
L 49.658972 -25.310636 
L 49.768503 -25.085199 
L 49.856393 -24.859762 
L 49.917007 -24.634325 
L 49.943974 -24.408888 
L 49.930751 -24.18345 
L 49.871418 -23.958013 
L 49.76156 -23.732576 
L 49.599065 -23.507139 
L 49.384699 -23.281702 
L 49.122358 -23.056265 
L 48.818942 -22.830827 
L 48.483876 -22.60539 
L 48.128337 -22.379953 
L 47.764323 -22.154516 
L 47.403661 -21.929079 
L 47.057116 -21.703641 
L 46.733672 -21.478204 
L 46.440072 -21.252767 
L 46.180619 -21.02733 
L 45.957239 -20.801893 
z
" style="stroke: #414141; stroke-width: 0.15"/>
    </defs>
    <g clip-path="url(#p6f1de47c19)">
     <use xlink:href="#md6aeed0afc" x="0" y="84.96" style="fill: #efb792; stroke: #414141; stroke-width: 0.15"/>
    </g>
   </g>
   <g id="PolyCollection_3">
    <defs>
     <path id="ma8550abadf" d="M 71.847897 -17.194427 
L 67.530638 -17.194427 
L 66.986479 -17.324935 
L 66.367927 -17.455443 
L 65.682937 -17.585952 
L 64.944858 -17.71646 
L 64.172369 -17.846968 
L 63.388893 -17.977476 
L 62.62147 -18.107985 
L 61.899166 -18.238493 
L 61.25113 -18.369001 
L 60.704491 -18.499509 
L 60.282301 -18.630017 
L 60.001757 -18.760526 
L 59.872873 -18.891034 
L 59.897766 -19.021542 
L 60.070605 -19.15205 
L 60.378223 -19.282558 
L 60.801307 -19.413067 
L 61.316022 -19.543575 
L 61.895889 -19.674083 
L 62.513733 -19.804591 
L 63.143503 -19.935099 
L 63.761826 -20.065608 
L 64.349188 -20.196116 
L 64.890673 -20.326624 
L 65.376271 -20.457132 
L 65.800772 -20.587641 
L 66.163334 -20.718149 
L 66.466806 -20.848657 
L 66.716896 -20.979165 
L 66.921294 -21.109673 
L 67.088809 -21.240182 
L 67.228587 -21.37069 
L 67.349454 -21.501198 
L 67.459392 -21.631706 
L 67.565169 -21.762214 
L 67.6721 -21.892723 
L 67.783937 -22.023231 
L 67.902872 -22.153739 
L 68.029636 -22.284247 
L 68.163673 -22.414755 
L 68.30338 -22.545264 
L 68.446381 -22.675772 
L 68.589827 -22.80628 
L 68.730689 -22.936788 
L 68.866032 -23.067297 
L 68.993244 -23.197805 
L 69.110207 -23.328313 
L 69.2154 -23.458821 
L 69.307943 -23.589329 
L 69.387573 -23.719838 
L 69.454565 -23.850346 
L 69.509627 -23.980854 
L 69.553769 -24.111362 
L 69.588162 -24.24187 
L 69.614013 -24.372379 
L 69.632453 -24.502887 
L 69.644445 -24.633395 
L 69.650723 -24.763903 
L 69.651752 -24.894412 
L 69.647717 -25.02492 
L 69.638535 -25.155428 
L 69.623886 -25.285936 
L 69.603266 -25.416444 
L 69.576057 -25.546953 
L 69.541609 -25.677461 
L 69.499328 -25.807969 
L 69.448768 -25.938477 
L 69.389712 -26.068985 
L 69.322238 -26.199494 
L 69.246762 -26.330002 
L 69.164055 -26.46051 
L 69.075225 -26.591018 
L 68.981684 -26.721526 
L 68.885086 -26.852035 
L 68.787269 -26.982543 
L 68.690195 -27.113051 
L 68.595903 -27.243559 
L 68.506476 -27.374068 
L 68.42402 -27.504576 
L 68.35065 -27.635084 
L 68.288465 -27.765592 
L 68.2395 -27.8961 
L 68.205652 -28.026609 
L 68.188571 -28.157117 
L 68.189529 -28.287625 
L 68.209269 -28.418133 
L 68.247881 -28.548641 
L 68.304694 -28.67915 
L 68.378244 -28.809658 
L 68.466299 -28.940166 
L 68.565969 -29.070674 
L 68.673879 -29.201182 
L 68.786391 -29.331691 
L 68.899855 -29.462199 
L 69.010845 -29.592707 
L 69.116371 -29.723215 
L 69.214033 -29.853724 
L 69.302112 -29.984232 
L 69.379587 -30.11474 
L 69.998948 -30.11474 
L 69.998948 -30.11474 
L 70.076422 -29.984232 
L 70.164501 -29.853724 
L 70.262164 -29.723215 
L 70.36769 -29.592707 
L 70.478679 -29.462199 
L 70.592143 -29.331691 
L 70.704655 -29.201182 
L 70.812565 -29.070674 
L 70.912235 -28.940166 
L 71.00029 -28.809658 
L 71.07384 -28.67915 
L 71.130653 -28.548641 
L 71.169265 -28.418133 
L 71.189005 -28.287625 
L 71.189963 -28.157117 
L 71.172882 -28.026609 
L 71.139034 -27.8961 
L 71.090069 -27.765592 
L 71.027884 -27.635084 
L 70.954514 -27.504576 
L 70.872058 -27.374068 
L 70.782631 -27.243559 
L 70.688339 -27.113051 
L 70.591265 -26.982543 
L 70.493448 -26.852035 
L 70.39685 -26.721526 
L 70.303309 -26.591018 
L 70.214479 -26.46051 
L 70.131772 -26.330002 
L 70.056296 -26.199494 
L 69.988822 -26.068985 
L 69.929766 -25.938477 
L 69.879206 -25.807969 
L 69.836925 -25.677461 
L 69.802477 -25.546953 
L 69.775268 -25.416444 
L 69.754648 -25.285936 
L 69.739999 -25.155428 
L 69.730817 -25.02492 
L 69.726782 -24.894412 
L 69.727811 -24.763903 
L 69.734089 -24.633395 
L 69.746081 -24.502887 
L 69.764521 -24.372379 
L 69.790372 -24.24187 
L 69.824765 -24.111362 
L 69.868907 -23.980854 
L 69.923969 -23.850346 
L 69.990961 -23.719838 
L 70.070591 -23.589329 
L 70.163134 -23.458821 
L 70.268328 -23.328313 
L 70.38529 -23.197805 
L 70.512502 -23.067297 
L 70.647846 -22.936788 
L 70.788707 -22.80628 
L 70.932153 -22.675772 
L 71.075154 -22.545264 
L 71.214861 -22.414755 
L 71.348898 -22.284247 
L 71.475662 -22.153739 
L 71.594597 -22.023231 
L 71.706434 -21.892723 
L 71.813365 -21.762214 
L 71.919143 -21.631706 
L 72.029081 -21.501198 
L 72.149947 -21.37069 
L 72.289725 -21.240182 
L 72.45724 -21.109673 
L 72.661638 -20.979165 
L 72.911729 -20.848657 
L 73.2152 -20.718149 
L 73.577762 -20.587641 
L 74.002263 -20.457132 
L 74.487861 -20.326624 
L 75.029346 -20.196116 
L 75.616708 -20.065608 
L 76.235031 -19.935099 
L 76.864801 -19.804591 
L 77.482645 -19.674083 
L 78.062512 -19.543575 
L 78.577227 -19.413067 
L 79.000311 -19.282558 
L 79.30793 -19.15205 
L 79.480769 -19.021542 
L 79.505661 -18.891034 
L 79.376777 -18.760526 
L 79.096233 -18.630017 
L 78.674043 -18.499509 
L 78.127404 -18.369001 
L 77.479368 -18.238493 
L 76.757064 -18.107985 
L 75.989641 -17.977476 
L 75.206165 -17.846968 
L 74.433677 -17.71646 
L 73.695597 -17.585952 
L 73.010607 -17.455443 
L 72.392055 -17.324935 
L 71.847897 -17.194427 
z
" style="stroke: #414141; stroke-width: 0.15"/>
    </defs>
    <g clip-path="url(#p6f1de47c19)">
     <use xlink:href="#ma8550abadf" x="0" y="84.96" style="fill: #7e5c60; stroke: #414141; stroke-width: 0.15"/>
    </g>
   </g>
   <g id="line2d_10">
    <path d="M 20.607295 65.845369 
L 20.607295 41.281537 
" clip-path="url(#p6f1de47c19)" style="fill: none; stroke: #8c8c8c; stroke-width: 0.75; stroke-linecap: round"/>
   </g>
   <g id="line2d_11">
    <path d="M 20.607295 59.724139 
L 20.607295 45.541055 
" clip-path="url(#p6f1de47c19)" style="fill: none; stroke: #8c8c8c; stroke-width: 4; stroke-linecap: round"/>
   </g>
   <g id="line2d_12">
    <path d="M 20.607295 52.146497 
" clip-path="url(#p6f1de47c19)" style="fill: none; stroke: #414141; stroke-width: 1.2; stroke-linecap: round"/>
    <defs>
     <path id="m672d760a45" d="M 0 0.833333 
C 0.221003 0.833333 0.432983 0.745528 0.589256 0.589256 
C 0.745528 0.432983 0.833333 0.221003 0.833333 0 
C 0.833333 -0.221003 0.745528 -0.432983 0.589256 -0.589256 
C 0.432983 -0.745528 0.221003 -0.833333 0 -0.833333 
C -0.221003 -0.833333 -0.432983 -0.745528 -0.589256 -0.589256 
C -0.745528 -0.432983 -0.833333 -0.221003 -0.833333 0 
C -0.833333 0.221003 -0.745528 0.432983 -0.589256 0.589256 
C -0.432983 0.745528 -0.221003 0.833333 0 0.833333 
z
" style="stroke: #ffffff; stroke-width: 0.8"/>
    </defs>
    <g clip-path="url(#p6f1de47c19)">
     <use xlink:href="#m672d760a45" x="20.607295" y="52.146497" style="fill: #ffffff; stroke: #ffffff; stroke-width: 0.8"/>
    </g>
   </g>
   <g id="line2d_13">
    <path d="M 45.148281 61.975672 
L 45.148281 44.022262 
" clip-path="url(#p6f1de47c19)" style="fill: none; stroke: #8c8c8c; stroke-width: 0.75; stroke-linecap: round"/>
   </g>
   <g id="line2d_14">
    <path d="M 45.148281 54.735819 
L 45.148281 48.516405 
" clip-path="url(#p6f1de47c19)" style="fill: none; stroke: #8c8c8c; stroke-width: 4; stroke-linecap: round"/>
   </g>
   <g id="line2d_15">
    <path d="M 45.148281 51.554703 
" clip-path="url(#p6f1de47c19)" style="fill: none; stroke: #414141; stroke-width: 1.2; stroke-linecap: round"/>
    <g clip-path="url(#p6f1de47c19)">
     <use xlink:href="#m672d760a45" x="45.148281" y="51.554703" style="fill: #ffffff; stroke: #ffffff; stroke-width: 0.8"/>
    </g>
   </g>
   <g id="line2d_16">
    <path d="M 69.689267 66.441208 
L 69.689267 62.594881 
" clip-path="url(#p6f1de47c19)" style="fill: none; stroke: #8c8c8c; stroke-width: 0.75; stroke-linecap: round"/>
   </g>
   <g id="line2d_17">
    <path d="M 69.689267 66.343896 
L 69.689267 64.174758 
" clip-path="url(#p6f1de47c19)" style="fill: none; stroke: #8c8c8c; stroke-width: 4; stroke-linecap: round"/>
   </g>
   <g id="line2d_18">
    <path d="M 69.689267 65.710756 
" clip-path="url(#p6f1de47c19)" style="fill: none; stroke: #414141; stroke-width: 1.2; stroke-linecap: round"/>
    <g clip-path="url(#p6f1de47c19)">
     <use xlink:href="#m672d760a45" x="69.689267" y="65.710756" style="fill: #ffffff; stroke: #ffffff; stroke-width: 0.8"/>
    </g>
   </g>
   <g id="patch_3">
    <path d="M 8.336802 74.419526 
L 8.336802 4.076256 
" style="fill: none; stroke: #777777; stroke-width: 0.5; stroke-linejoin: miter; stroke-linecap: square"/>
   </g>
   <g id="patch_4">
    <path d="M 8.336802 76.919526 
L 81.95976 76.919526 
" style="fill: none; stroke: #777777; stroke-width: 0.5; stroke-linejoin: miter; stroke-linecap: square"/>
   </g>
  </g>
 </g>
 <defs>
  <clipPath id="p6f1de47c19">
   <rect x="8.336802" y="4.076256" width="73.622957" height="70.34327"/>
  </clipPath>
 </defs>
</svg>
