<?xml version="1.0" encoding="utf-8" standalone="no"?>
<!DOCTYPE svg PUBLIC "-//W3C//DTD SVG 1.1//EN"
  "http://www.w3.org/Graphics/SVG/1.1/DTD/svg11.dtd">
<svg xmlns:xlink="http://www.w3.org/1999/xlink" width="56.16pt" height="84.96pt" viewBox="0 0 56.16 84.96" xmlns="http://www.w3.org/2000/svg" version="1.1">
 <metadata>
  <rdf:RDF xmlns:dc="http://purl.org/dc/elements/1.1/" xmlns:cc="http://creativecommons.org/ns#" xmlns:rdf="http://www.w3.org/1999/02/22-rdf-syntax-ns#">
   <cc:Work>
    <dc:type rdf:resource="http://purl.org/dc/dcmitype/StillImage"/>
    <dc:date>2024-05-27T15:37:05.512674</dc:date>
    <dc:format>image/svg+xml</dc:format>
    <dc:creator>
     <cc:Agent>
      <dc:title>Matplotlib v3.8.3, https://matplotlib.org/</dc:title>
     </cc:Agent>
    </dc:creator>
   </cc:Work>
  </rdf:RDF>
 </metadata>
 <defs>
  <style type="text/css">*{stroke-linejoin: round; stroke-linecap: butt}</style>
 </defs>
 <g id="figure_1">
  <g id="patch_1">
   <path d="M 0 84.96 
L 56.16 84.96 
L 56.16 0 
L 0 0 
z
" style="fill: #ffffff"/>
  </g>
  <g id="axes_1">
   <g id="patch_2">
    <path d="M 8.336802 74.419526 
L 53.15976 74.419526 
L 53.15976 4.076256 
L 8.336802 4.076256 
z
" style="fill: #ffffff"/>
   </g>
   <g id="matplotlib.axis_1">
    <g id="xtick_1">
     <g id="text_1">
      <!-- ILC2 -->
      <g style="fill: #333333" transform="translate(15.846214 81.230229) scale(0.035 -0.035)">
       <defs>
        <path id="Helvetica-49" d="M 628 4591 
L 1256 4591 
L 1256 0 
L 628 0 
L 628 4591 
z
" transform="scale(0.015625)"/>
        <path id="Helvetica-4c" d="M 488 4591 
L 1109 4591 
L 1109 547 
L 3434 547 
L 3434 0 
L 488 0 
L 488 4591 
z
" transform="scale(0.015625)"/>
        <path id="Helvetica-43" d="M 2422 4716 
Q 3294 4716 3775 4256 
Q 4256 3797 4309 3213 
L 3703 3213 
Q 3600 3656 3292 3915 
Q 2984 4175 2428 4175 
Q 1750 4175 1333 3698 
Q 916 3222 916 2238 
Q 916 1431 1292 929 
Q 1669 428 2416 428 
Q 3103 428 3463 956 
Q 3653 1234 3747 1688 
L 4353 1688 
Q 4272 963 3816 472 
Q 3269 -119 2341 -119 
Q 1541 -119 997 366 
Q 281 1006 281 2344 
Q 281 3359 819 4009 
Q 1400 4716 2422 4716 
z
M 2297 4716 
L 2297 4716 
z
" transform="scale(0.015625)"/>
        <path id="Helvetica-32" d="M 200 0 
Q 231 578 439 1006 
Q 647 1434 1250 1784 
L 1850 2131 
Q 2253 2366 2416 2531 
Q 2672 2791 2672 3125 
Q 2672 3516 2437 3745 
Q 2203 3975 1813 3975 
Q 1234 3975 1013 3538 
Q 894 3303 881 2888 
L 309 2888 
Q 319 3472 525 3841 
Q 891 4491 1816 4491 
Q 2584 4491 2939 4075 
Q 3294 3659 3294 3150 
Q 3294 2613 2916 2231 
Q 2697 2009 2131 1694 
L 1703 1456 
Q 1397 1288 1222 1134 
Q 909 863 828 531 
L 3272 531 
L 3272 0 
L 200 0 
z
" transform="scale(0.015625)"/>
       </defs>
       <use xlink:href="#Helvetica-49"/>
       <use xlink:href="#Helvetica-4c" x="27.783203"/>
       <use xlink:href="#Helvetica-43" x="83.398438"/>
       <use xlink:href="#Helvetica-32" x="155.615234"/>
      </g>
     </g>
    </g>
    <g id="xtick_2">
     <g id="text_2">
      <!-- TH2 -->
      <g style="fill: #333333" transform="translate(38.648161 81.230229) scale(0.035 -0.035)">
       <defs>
        <path id="Helvetica-54" d="M 3828 4591 
L 3828 4044 
L 2281 4044 
L 2281 0 
L 1650 0 
L 1650 4044 
L 103 4044 
L 103 4591 
L 3828 4591 
z
" transform="scale(0.015625)"/>
        <path id="Helvetica-48" d="M 503 4591 
L 1131 4591 
L 1131 2694 
L 3519 2694 
L 3519 4591 
L 4147 4591 
L 4147 0 
L 3519 0 
L 3519 2147 
L 1131 2147 
L 1131 0 
L 503 0 
L 503 4591 
z
" transform="scale(0.015625)"/>
       </defs>
       <use xlink:href="#Helvetica-54"/>
       <use xlink:href="#Helvetica-48" x="61.083984"/>
       <use xlink:href="#Helvetica-32" x="133.300781"/>
      </g>
     </g>
    </g>
   </g>
   <g id="matplotlib.axis_2">
    <g id="ytick_1">
     <g id="line2d_1">
      <defs>
       <path id="m25a575ad1a" d="M 0 0 
L -1 0 
" style="stroke: #777777; stroke-width: 0.5"/>
      </defs>
      <g>
       <use xlink:href="#m25a575ad1a" x="8.336802" y="66.995102" style="fill: #777777; stroke: #777777; stroke-width: 0.5"/>
      </g>
     </g>
     <g id="text_3">
      <!-- 0 -->
      <g style="fill: #333333" transform="translate(4.668521 68.071117) scale(0.03 -0.03)">
       <defs>
        <path id="Helvetica-30" d="M 1731 4475 
Q 2600 4475 2988 3759 
Q 3288 3206 3288 2244 
Q 3288 1331 3016 734 
Q 2622 -122 1728 -122 
Q 922 -122 528 578 
Q 200 1163 200 2147 
Q 200 2909 397 3456 
Q 766 4475 1731 4475 
z
M 1725 391 
Q 2163 391 2422 778 
Q 2681 1166 2681 2222 
Q 2681 2984 2493 3476 
Q 2306 3969 1766 3969 
Q 1269 3969 1039 3501 
Q 809 3034 809 2125 
Q 809 1441 956 1025 
Q 1181 391 1725 391 
z
" transform="scale(0.015625)"/>
       </defs>
       <use xlink:href="#Helvetica-30"/>
      </g>
     </g>
    </g>
    <g id="ytick_2">
     <g id="line2d_2">
      <g>
       <use xlink:href="#m25a575ad1a" x="8.336802" y="54.411333" style="fill: #777777; stroke: #777777; stroke-width: 0.5"/>
      </g>
     </g>
     <g id="text_4">
      <!-- 10 -->
      <g style="fill: #333333" transform="translate(3.00024 55.487348) scale(0.03 -0.03)">
       <defs>
        <path id="Helvetica-31" d="M 613 3169 
L 613 3600 
Q 1222 3659 1462 3798 
Q 1703 3938 1822 4456 
L 2266 4456 
L 2266 0 
L 1666 0 
L 1666 3169 
L 613 3169 
z
" transform="scale(0.015625)"/>
       </defs>
       <use xlink:href="#Helvetica-31"/>
       <use xlink:href="#Helvetica-30" x="55.615234"/>
      </g>
     </g>
    </g>
    <g id="ytick_3">
     <g id="line2d_3">
      <g>
       <use xlink:href="#m25a575ad1a" x="8.336802" y="41.827563" style="fill: #777777; stroke: #777777; stroke-width: 0.5"/>
      </g>
     </g>
     <g id="text_5">
      <!-- 20 -->
      <g style="fill: #333333" transform="translate(3.00024 42.903579) scale(0.03 -0.03)">
       <use xlink:href="#Helvetica-32"/>
       <use xlink:href="#Helvetica-30" x="55.615234"/>
      </g>
     </g>
    </g>
    <g id="ytick_4">
     <g id="line2d_4">
      <g>
       <use xlink:href="#m25a575ad1a" x="8.336802" y="29.243794" style="fill: #777777; stroke: #777777; stroke-width: 0.5"/>
      </g>
     </g>
     <g id="text_6">
      <!-- 30 -->
      <g style="fill: #333333" transform="translate(3.00024 30.31981) scale(0.03 -0.03)">
       <defs>
        <path id="Helvetica-33" d="M 1663 -122 
Q 869 -122 511 314 
Q 153 750 153 1375 
L 741 1375 
Q 778 941 903 744 
Q 1122 391 1694 391 
Q 2138 391 2406 628 
Q 2675 866 2675 1241 
Q 2675 1703 2392 1887 
Q 2109 2072 1606 2072 
Q 1550 2072 1492 2070 
Q 1434 2069 1375 2066 
L 1375 2563 
Q 1463 2553 1522 2550 
Q 1581 2547 1650 2547 
Q 1966 2547 2169 2647 
Q 2525 2822 2525 3272 
Q 2525 3606 2287 3787 
Q 2050 3969 1734 3969 
Q 1172 3969 956 3594 
Q 838 3388 822 3006 
L 266 3006 
Q 266 3506 466 3856 
Q 809 4481 1675 4481 
Q 2359 4481 2734 4176 
Q 3109 3872 3109 3294 
Q 3109 2881 2888 2625 
Q 2750 2466 2531 2375 
Q 2884 2278 3082 2001 
Q 3281 1725 3281 1325 
Q 3281 684 2859 281 
Q 2438 -122 1663 -122 
z
" transform="scale(0.015625)"/>
       </defs>
       <use xlink:href="#Helvetica-33"/>
       <use xlink:href="#Helvetica-30" x="55.615234"/>
      </g>
     </g>
    </g>
    <g id="ytick_5">
     <g id="line2d_5">
      <g>
       <use xlink:href="#m25a575ad1a" x="8.336802" y="16.660025" style="fill: #777777; stroke: #777777; stroke-width: 0.5"/>
      </g>
     </g>
     <g id="text_7">
      <!-- 40 -->
      <g style="fill: #333333" transform="translate(3.00024 17.73604) scale(0.03 -0.03)">
       <defs>
        <path id="Helvetica-34" d="M 2116 1584 
L 2116 3613 
L 681 1584 
L 2116 1584 
z
M 2125 0 
L 2125 1094 
L 163 1094 
L 163 1644 
L 2213 4488 
L 2688 4488 
L 2688 1584 
L 3347 1584 
L 3347 1094 
L 2688 1094 
L 2688 0 
L 2125 0 
z
" transform="scale(0.015625)"/>
       </defs>
       <use xlink:href="#Helvetica-34"/>
       <use xlink:href="#Helvetica-30" x="55.615234"/>
      </g>
     </g>
    </g>
    <g id="ytick_6">
     <g id="line2d_6">
      <g>
       <use xlink:href="#m25a575ad1a" x="8.336802" y="4.076256" style="fill: #777777; stroke: #777777; stroke-width: 0.5"/>
      </g>
     </g>
     <g id="text_8">
      <!-- 50 -->
      <g style="fill: #333333" transform="translate(3.00024 5.152271) scale(0.03 -0.03)">
       <defs>
        <path id="Helvetica-35" d="M 791 1141 
Q 847 659 1238 475 
Q 1438 381 1700 381 
Q 2200 381 2440 700 
Q 2681 1019 2681 1406 
Q 2681 1875 2395 2131 
Q 2109 2388 1709 2388 
Q 1419 2388 1211 2275 
Q 1003 2163 856 1963 
L 369 1991 
L 709 4400 
L 3034 4400 
L 3034 3856 
L 1131 3856 
L 941 2613 
Q 1097 2731 1238 2791 
Q 1488 2894 1816 2894 
Q 2431 2894 2859 2497 
Q 3288 2100 3288 1491 
Q 3288 856 2895 371 
Q 2503 -113 1644 -113 
Q 1097 -113 676 195 
Q 256 503 206 1141 
L 791 1141 
z
" transform="scale(0.015625)"/>
       </defs>
       <use xlink:href="#Helvetica-35"/>
       <use xlink:href="#Helvetica-30" x="55.615234"/>
      </g>
     </g>
    </g>
   </g>
   <g id="PolyCollection_1">
    <defs>
     <path id="m2b68c94c5e" d="M 21.808227 -17.793171 
L 17.276857 -17.793171 
L 16.854004 -17.809872 
L 16.390067 -17.826573 
L 15.889669 -17.843273 
L 15.359444 -17.859974 
L 14.807967 -17.876675 
L 14.245552 -17.893376 
L 13.683911 -17.910077 
L 13.135689 -17.926778 
L 12.613887 -17.943479 
L 12.131227 -17.96018 
L 11.699484 -17.976881 
L 11.328849 -17.993582 
L 11.027364 -18.010283 
L 10.800488 -18.026984 
L 10.650808 -18.043685 
L 10.57795 -18.060385 
L 10.57867 -18.077086 
L 10.647129 -18.093787 
L 10.775334 -18.110488 
L 10.953689 -18.127189 
L 11.171634 -18.14389 
L 11.418299 -18.160591 
L 11.683138 -18.177292 
L 11.956495 -18.193993 
L 12.230064 -18.210694 
L 12.49722 -18.227395 
L 12.75321 -18.244096 
L 12.995203 -18.260797 
L 13.222211 -18.277497 
L 13.434895 -18.294198 
L 13.635287 -18.310899 
L 13.826453 -18.3276 
L 14.012124 -18.344301 
L 14.196322 -18.361002 
L 14.383008 -18.377703 
L 14.57577 -18.394404 
L 14.777566 -18.411105 
L 14.990531 -18.427806 
L 15.215856 -18.444507 
L 15.453744 -18.461208 
L 15.703419 -18.477909 
L 15.963219 -18.494609 
L 16.230717 -18.51131 
L 16.502896 -18.528011 
L 16.776342 -18.544712 
L 17.047449 -18.561413 
L 17.312615 -18.578114 
L 17.568429 -18.594815 
L 17.811827 -18.611516 
L 18.040211 -18.628217 
L 18.251529 -18.644918 
L 18.444321 -18.661619 
L 18.617711 -18.67832 
L 18.77138 -18.695021 
L 18.905498 -18.711721 
L 19.020637 -18.728422 
L 19.117672 -18.745123 
L 19.197674 -18.761824 
L 19.261807 -18.778525 
L 19.31123 -18.795226 
L 19.34701 -18.811927 
L 19.370062 -18.828628 
L 19.381101 -18.845329 
L 19.380616 -18.86203 
L 19.368871 -18.878731 
L 19.345932 -18.895432 
L 19.311704 -18.912133 
L 19.265998 -18.928834 
L 19.208612 -18.945534 
L 19.139422 -18.962235 
L 19.058481 -18.978936 
L 18.966118 -18.995637 
L 18.863026 -19.012338 
L 18.750341 -19.029039 
L 18.629689 -19.04574 
L 18.503208 -19.062441 
L 18.373532 -19.079142 
L 18.243733 -19.095843 
L 18.117227 -19.112544 
L 17.997643 -19.129245 
L 17.888658 -19.145946 
L 17.793819 -19.162646 
L 17.716353 -19.179347 
L 17.658991 -19.196048 
L 17.623805 -19.212749 
L 17.612089 -19.22945 
L 17.624278 -19.246151 
L 17.65992 -19.262852 
L 17.71771 -19.279553 
L 17.795562 -19.296254 
L 17.890739 -19.312955 
L 18.000012 -19.329656 
L 18.119839 -19.346357 
L 18.246557 -19.363058 
L 18.376562 -19.379758 
L 18.506477 -19.396459 
L 18.633281 -19.41316 
L 18.754418 -19.429861 
L 18.867849 -19.446562 
L 20.217235 -19.446562 
L 20.217235 -19.446562 
L 20.330666 -19.429861 
L 20.451802 -19.41316 
L 20.578607 -19.396459 
L 20.708522 -19.379758 
L 20.838527 -19.363058 
L 20.965245 -19.346357 
L 21.085072 -19.329656 
L 21.194345 -19.312955 
L 21.289522 -19.296254 
L 21.367374 -19.279553 
L 21.425163 -19.262852 
L 21.460806 -19.246151 
L 21.472995 -19.22945 
L 21.461279 -19.212749 
L 21.426093 -19.196048 
L 21.368731 -19.179347 
L 21.291265 -19.162646 
L 21.196426 -19.145946 
L 21.08744 -19.129245 
L 20.967857 -19.112544 
L 20.841351 -19.095843 
L 20.711552 -19.079142 
L 20.581876 -19.062441 
L 20.455395 -19.04574 
L 20.334742 -19.029039 
L 20.222057 -19.012338 
L 20.118966 -18.995637 
L 20.026603 -18.978936 
L 19.945662 -18.962235 
L 19.876472 -18.945534 
L 19.819086 -18.928834 
L 19.77338 -18.912133 
L 19.739151 -18.895432 
L 19.716212 -18.878731 
L 19.704468 -18.86203 
L 19.703983 -18.845329 
L 19.715021 -18.828628 
L 19.738074 -18.811927 
L 19.773854 -18.795226 
L 19.823276 -18.778525 
L 19.88741 -18.761824 
L 19.967412 -18.745123 
L 20.064447 -18.728422 
L 20.179586 -18.711721 
L 20.313704 -18.695021 
L 20.467373 -18.67832 
L 20.640763 -18.661619 
L 20.833554 -18.644918 
L 21.044873 -18.628217 
L 21.273257 -18.611516 
L 21.516655 -18.594815 
L 21.772469 -18.578114 
L 22.037635 -18.561413 
L 22.308741 -18.544712 
L 22.582188 -18.528011 
L 22.854367 -18.51131 
L 23.121865 -18.494609 
L 23.381664 -18.477909 
L 23.63134 -18.461208 
L 23.869227 -18.444507 
L 24.094553 -18.427806 
L 24.307518 -18.411105 
L 24.509314 -18.394404 
L 24.702076 -18.377703 
L 24.888762 -18.361002 
L 25.072959 -18.344301 
L 25.25863 -18.3276 
L 25.449797 -18.310899 
L 25.650189 -18.294198 
L 25.862873 -18.277497 
L 26.089881 -18.260797 
L 26.331874 -18.244096 
L 26.587864 -18.227395 
L 26.85502 -18.210694 
L 27.128589 -18.193993 
L 27.401946 -18.177292 
L 27.666785 -18.160591 
L 27.91345 -18.14389 
L 28.131395 -18.127189 
L 28.30975 -18.110488 
L 28.437954 -18.093787 
L 28.506414 -18.077086 
L 28.507133 -18.060385 
L 28.434276 -18.043685 
L 28.284596 -18.026984 
L 28.057719 -18.010283 
L 27.756235 -17.993582 
L 27.3856 -17.976881 
L 26.953857 -17.96018 
L 26.471197 -17.943479 
L 25.949395 -17.926778 
L 25.401173 -17.910077 
L 24.839532 -17.893376 
L 24.277116 -17.876675 
L 23.725639 -17.859974 
L 23.195415 -17.843273 
L 22.695017 -17.826573 
L 22.23108 -17.809872 
L 21.808227 -17.793171 
z
" style="stroke: #717171; stroke-width: 0.15"/>
    </defs>
    <g clip-path="url(#p6e5c755300)">
     <use xlink:href="#m2b68c94c5e" x="0" y="84.96" style="fill: #d6bba3; stroke: #717171; stroke-width: 0.15"/>
    </g>
   </g>
   <g id="PolyCollection_2">
    <defs>
     <path id="m2328501f77" d="M 43.168109 -16.332731 
L 40.739932 -16.332731 
L 40.469234 -16.484663 
L 40.158777 -16.636595 
L 39.807854 -16.788528 
L 39.41701 -16.94046 
L 38.988227 -17.092392 
L 38.525045 -17.244324 
L 38.032617 -17.396257 
L 37.517668 -17.548189 
L 36.988361 -17.700121 
L 36.45407 -17.852054 
L 35.925057 -18.003986 
L 35.412086 -18.155918 
L 34.925977 -18.307851 
L 34.47715 -18.459783 
L 34.075169 -18.611715 
L 33.72834 -18.763647 
L 33.443366 -18.91558 
L 33.225108 -19.067512 
L 33.076443 -19.219444 
L 32.998236 -19.371377 
L 32.989429 -19.523309 
L 33.047212 -19.675241 
L 33.167281 -19.827173 
L 33.344147 -19.979106 
L 33.571469 -20.131038 
L 33.842391 -20.28297 
L 34.149865 -20.434903 
L 34.486925 -20.586835 
L 34.84692 -20.738767 
L 35.223687 -20.8907 
L 35.61166 -21.042632 
L 36.005925 -21.194564 
L 36.402227 -21.346496 
L 36.79693 -21.498429 
L 37.186952 -21.650361 
L 37.56968 -21.802293 
L 37.942884 -21.954226 
L 38.304625 -22.106158 
L 38.653191 -22.25809 
L 38.987039 -22.410022 
L 39.304768 -22.561955 
L 39.605109 -22.713887 
L 39.886942 -22.865819 
L 40.149321 -23.017752 
L 40.391508 -23.169684 
L 40.613016 -23.321616 
L 40.813636 -23.473549 
L 40.993464 -23.625481 
L 41.152903 -23.777413 
L 41.292653 -23.929345 
L 41.413685 -24.081278 
L 41.517197 -24.23321 
L 41.604559 -24.385142 
L 41.67725 -24.537075 
L 41.736792 -24.689007 
L 41.784687 -24.840939 
L 41.822351 -24.992871 
L 41.851067 -25.144804 
L 41.871935 -25.296736 
L 41.885844 -25.448668 
L 41.893443 -25.600601 
L 41.895129 -25.752533 
L 41.891049 -25.904465 
L 41.881105 -26.056398 
L 41.864978 -26.20833 
L 41.842155 -26.360262 
L 41.811983 -26.512194 
L 41.773719 -26.664127 
L 41.726605 -26.816059 
L 41.669952 -26.967991 
L 41.60323 -27.119924 
L 41.526163 -27.271856 
L 41.438827 -27.423788 
L 41.341732 -27.575721 
L 41.235893 -27.727653 
L 41.122874 -27.879585 
L 41.004792 -28.031517 
L 40.884295 -28.18345 
L 40.764479 -28.335382 
L 40.648782 -28.487314 
L 40.540825 -28.639247 
L 40.444231 -28.791179 
L 40.362429 -28.943111 
L 40.298448 -29.095043 
L 40.254737 -29.246976 
L 40.233006 -29.398908 
L 40.234115 -29.55084 
L 40.258022 -29.702773 
L 40.30378 -29.854705 
L 40.369601 -30.006637 
L 40.452974 -30.15857 
L 40.550821 -30.310502 
L 40.659689 -30.462434 
L 40.775946 -30.614366 
L 40.895984 -30.766299 
L 41.016394 -30.918231 
L 41.134122 -31.070163 
L 41.246577 -31.222096 
L 41.351705 -31.374028 
L 42.556336 -31.374028 
L 42.556336 -31.374028 
L 42.661464 -31.222096 
L 42.77392 -31.070163 
L 42.891648 -30.918231 
L 43.012058 -30.766299 
L 43.132095 -30.614366 
L 43.248352 -30.462434 
L 43.35722 -30.310502 
L 43.455068 -30.15857 
L 43.538441 -30.006637 
L 43.604261 -29.854705 
L 43.650019 -29.702773 
L 43.673926 -29.55084 
L 43.675036 -29.398908 
L 43.653304 -29.246976 
L 43.609593 -29.095043 
L 43.545612 -28.943111 
L 43.46381 -28.791179 
L 43.367216 -28.639247 
L 43.259259 -28.487314 
L 43.143562 -28.335382 
L 43.023747 -28.18345 
L 42.903249 -28.031517 
L 42.785168 -27.879585 
L 42.672148 -27.727653 
L 42.56631 -27.575721 
L 42.469214 -27.423788 
L 42.381878 -27.271856 
L 42.304811 -27.119924 
L 42.238089 -26.967991 
L 42.181436 -26.816059 
L 42.134323 -26.664127 
L 42.096058 -26.512194 
L 42.065886 -26.360262 
L 42.043064 -26.20833 
L 42.026936 -26.056398 
L 42.016993 -25.904465 
L 42.012913 -25.752533 
L 42.014599 -25.600601 
L 42.022197 -25.448668 
L 42.036106 -25.296736 
L 42.056975 -25.144804 
L 42.08569 -24.992871 
L 42.123354 -24.840939 
L 42.171249 -24.689007 
L 42.230792 -24.537075 
L 42.303483 -24.385142 
L 42.390845 -24.23321 
L 42.494357 -24.081278 
L 42.615389 -23.929345 
L 42.755138 -23.777413 
L 42.914577 -23.625481 
L 43.094405 -23.473549 
L 43.295025 -23.321616 
L 43.516533 -23.169684 
L 43.75872 -23.017752 
L 44.021099 -22.865819 
L 44.302932 -22.713887 
L 44.603274 -22.561955 
L 44.921002 -22.410022 
L 45.25485 -22.25809 
L 45.603416 -22.106158 
L 45.965158 -21.954226 
L 46.338361 -21.802293 
L 46.72109 -21.650361 
L 47.111111 -21.498429 
L 47.505814 -21.346496 
L 47.902116 -21.194564 
L 48.296381 -21.042632 
L 48.684354 -20.8907 
L 49.061121 -20.738767 
L 49.421117 -20.586835 
L 49.758176 -20.434903 
L 50.06565 -20.28297 
L 50.336573 -20.131038 
L 50.563894 -19.979106 
L 50.74076 -19.827173 
L 50.860829 -19.675241 
L 50.918612 -19.523309 
L 50.909805 -19.371377 
L 50.831598 -19.219444 
L 50.682933 -19.067512 
L 50.464675 -18.91558 
L 50.179702 -18.763647 
L 49.832872 -18.611715 
L 49.430892 -18.459783 
L 48.982064 -18.307851 
L 48.495955 -18.155918 
L 47.982984 -18.003986 
L 47.453971 -17.852054 
L 46.91968 -17.700121 
L 46.390374 -17.548189 
L 45.875424 -17.396257 
L 45.382996 -17.244324 
L 44.919815 -17.092392 
L 44.491031 -16.94046 
L 44.100187 -16.788528 
L 43.749264 -16.636595 
L 43.438807 -16.484663 
L 43.168109 -16.332731 
z
" style="stroke: #717171; stroke-width: 0.15"/>
    </defs>
    <g clip-path="url(#p6e5c755300)">
     <use xlink:href="#m2328501f77" x="0" y="84.96" style="fill: #f1b9e0; stroke: #717171; stroke-width: 0.15"/>
    </g>
   </g>
   <g id="line2d_7">
    <path d="M 19.542542 66.949554 
L 19.542542 66.49333 
" clip-path="url(#p6e5c755300)" style="fill: none; stroke: #8c8c8c; stroke-width: 0.75; stroke-linecap: round"/>
   </g>
   <g id="line2d_8">
    <path d="M 19.542542 66.927492 
L 19.542542 66.575928 
" clip-path="url(#p6e5c755300)" style="fill: none; stroke: #8c8c8c; stroke-width: 4; stroke-linecap: round"/>
   </g>
   <g id="line2d_9">
    <path d="M 19.542542 66.827776 
" clip-path="url(#p6e5c755300)" style="fill: none; stroke: #717171; stroke-width: 1.2; stroke-linecap: round"/>
    <defs>
     <path id="m9bf8d5125d" d="M 0 0.833333 
C 0.221003 0.833333 0.432983 0.745528 0.589256 0.589256 
C 0.745528 0.432983 0.833333 0.221003 0.833333 0 
C 0.833333 -0.221003 0.745528 -0.432983 0.589256 -0.589256 
C 0.432983 -0.745528 0.221003 -0.833333 0 -0.833333 
C -0.221003 -0.833333 -0.432983 -0.745528 -0.589256 -0.589256 
C -0.745528 -0.432983 -0.833333 -0.221003 -0.833333 0 
C -0.833333 0.221003 -0.745528 0.432983 -0.589256 0.589256 
C -0.432983 0.745528 -0.221003 0.833333 0 0.833333 
z
" style="stroke: #ffffff; stroke-width: 0.8"/>
    </defs>
    <g clip-path="url(#p6e5c755300)">
     <use xlink:href="#m9bf8d5125d" x="19.542542" y="66.827776" style="fill: #ffffff; stroke: #ffffff; stroke-width: 0.8"/>
    </g>
   </g>
   <g id="line2d_10">
    <path d="M 41.954021 66.720776 
L 41.954021 63.014858 
" clip-path="url(#p6e5c755300)" style="fill: none; stroke: #8c8c8c; stroke-width: 0.75; stroke-linecap: round"/>
   </g>
   <g id="line2d_11">
    <path d="M 41.954021 65.932248 
L 41.954021 64.075368 
" clip-path="url(#p6e5c755300)" style="fill: none; stroke: #8c8c8c; stroke-width: 4; stroke-linecap: round"/>
   </g>
   <g id="line2d_12">
    <path d="M 41.954021 65.181126 
" clip-path="url(#p6e5c755300)" style="fill: none; stroke: #717171; stroke-width: 1.2; stroke-linecap: round"/>
    <g clip-path="url(#p6e5c755300)">
     <use xlink:href="#m9bf8d5125d" x="41.954021" y="65.181126" style="fill: #ffffff; stroke: #ffffff; stroke-width: 0.8"/>
    </g>
   </g>
   <g id="patch_3">
    <path d="M 8.336802 74.419526 
L 8.336802 4.076256 
" style="fill: none; stroke: #777777; stroke-width: 0.5; stroke-linejoin: miter; stroke-linecap: square"/>
   </g>
   <g id="patch_4">
    <path d="M 8.336802 76.919526 
L 53.15976 76.919526 
" style="fill: none; stroke: #777777; stroke-width: 0.5; stroke-linejoin: miter; stroke-linecap: square"/>
   </g>
  </g>
 </g>
 <defs>
  <clipPath id="p6e5c755300">
   <rect x="8.336802" y="4.076256" width="44.822958" height="70.34327"/>
  </clipPath>
 </defs>
</svg>
