<?xml version="1.0" encoding="utf-8" standalone="no"?>
<!DOCTYPE svg PUBLIC "-//W3C//DTD SVG 1.1//EN"
  "http://www.w3.org/Graphics/SVG/1.1/DTD/svg11.dtd">
<svg xmlns:xlink="http://www.w3.org/1999/xlink" width="56.16pt" height="84.96pt" viewBox="0 0 56.16 84.96" xmlns="http://www.w3.org/2000/svg" version="1.1">
 <metadata>
  <rdf:RDF xmlns:dc="http://purl.org/dc/elements/1.1/" xmlns:cc="http://creativecommons.org/ns#" xmlns:rdf="http://www.w3.org/1999/02/22-rdf-syntax-ns#">
   <cc:Work>
    <dc:type rdf:resource="http://purl.org/dc/dcmitype/StillImage"/>
    <dc:date>2024-05-27T15:37:08.308027</dc:date>
    <dc:format>image/svg+xml</dc:format>
    <dc:creator>
     <cc:Agent>
      <dc:title>Matplotlib v3.8.3, https://matplotlib.org/</dc:title>
     </cc:Agent>
    </dc:creator>
   </cc:Work>
  </rdf:RDF>
 </metadata>
 <defs>
  <style type="text/css">*{stroke-linejoin: round; stroke-linecap: butt}</style>
 </defs>
 <g id="figure_1">
  <g id="patch_1">
   <path d="M 0 84.96 
L 56.16 84.96 
L 56.16 0 
L 0 0 
z
" style="fill: #ffffff"/>
  </g>
  <g id="axes_1">
   <g id="patch_2">
    <path d="M 10.005084 74.419526 
L 53.15976 74.419526 
L 53.15976 4.076256 
L 10.005084 4.076256 
z
" style="fill: #ffffff"/>
   </g>
   <g id="matplotlib.axis_1">
    <g id="xtick_1">
     <g id="text_1">
      <!-- ILC3 -->
      <g style="fill: #333333" transform="translate(17.097425 81.230229) scale(0.035 -0.035)">
       <defs>
        <path id="Helvetica-49" d="M 628 4591 
L 1256 4591 
L 1256 0 
L 628 0 
L 628 4591 
z
" transform="scale(0.015625)"/>
        <path id="Helvetica-4c" d="M 488 4591 
L 1109 4591 
L 1109 547 
L 3434 547 
L 3434 0 
L 488 0 
L 488 4591 
z
" transform="scale(0.015625)"/>
        <path id="Helvetica-43" d="M 2422 4716 
Q 3294 4716 3775 4256 
Q 4256 3797 4309 3213 
L 3703 3213 
Q 3600 3656 3292 3915 
Q 2984 4175 2428 4175 
Q 1750 4175 1333 3698 
Q 916 3222 916 2238 
Q 916 1431 1292 929 
Q 1669 428 2416 428 
Q 3103 428 3463 956 
Q 3653 1234 3747 1688 
L 4353 1688 
Q 4272 963 3816 472 
Q 3269 -119 2341 -119 
Q 1541 -119 997 366 
Q 281 1006 281 2344 
Q 281 3359 819 4009 
Q 1400 4716 2422 4716 
z
M 2297 4716 
L 2297 4716 
z
" transform="scale(0.015625)"/>
        <path id="Helvetica-33" d="M 1663 -122 
Q 869 -122 511 314 
Q 153 750 153 1375 
L 741 1375 
Q 778 941 903 744 
Q 1122 391 1694 391 
Q 2138 391 2406 628 
Q 2675 866 2675 1241 
Q 2675 1703 2392 1887 
Q 2109 2072 1606 2072 
Q 1550 2072 1492 2070 
Q 1434 2069 1375 2066 
L 1375 2563 
Q 1463 2553 1522 2550 
Q 1581 2547 1650 2547 
Q 1966 2547 2169 2647 
Q 2525 2822 2525 3272 
Q 2525 3606 2287 3787 
Q 2050 3969 1734 3969 
Q 1172 3969 956 3594 
Q 838 3388 822 3006 
L 266 3006 
Q 266 3506 466 3856 
Q 809 4481 1675 4481 
Q 2359 4481 2734 4176 
Q 3109 3872 3109 3294 
Q 3109 2881 2888 2625 
Q 2750 2466 2531 2375 
Q 2884 2278 3082 2001 
Q 3281 1725 3281 1325 
Q 3281 684 2859 281 
Q 2438 -122 1663 -122 
z
" transform="scale(0.015625)"/>
       </defs>
       <use xlink:href="#Helvetica-49"/>
       <use xlink:href="#Helvetica-4c" x="27.783203"/>
       <use xlink:href="#Helvetica-43" x="83.398438"/>
       <use xlink:href="#Helvetica-33" x="155.615234"/>
      </g>
     </g>
    </g>
    <g id="xtick_2">
     <g id="text_2">
      <!-- TH17 -->
      <g style="fill: #333333" transform="translate(38.092067 81.230229) scale(0.035 -0.035)">
       <defs>
        <path id="Helvetica-54" d="M 3828 4591 
L 3828 4044 
L 2281 4044 
L 2281 0 
L 1650 0 
L 1650 4044 
L 103 4044 
L 103 4591 
L 3828 4591 
z
" transform="scale(0.015625)"/>
        <path id="Helvetica-48" d="M 503 4591 
L 1131 4591 
L 1131 2694 
L 3519 2694 
L 3519 4591 
L 4147 4591 
L 4147 0 
L 3519 0 
L 3519 2147 
L 1131 2147 
L 1131 0 
L 503 0 
L 503 4591 
z
" transform="scale(0.015625)"/>
        <path id="Helvetica-31" d="M 613 3169 
L 613 3600 
Q 1222 3659 1462 3798 
Q 1703 3938 1822 4456 
L 2266 4456 
L 2266 0 
L 1666 0 
L 1666 3169 
L 613 3169 
z
" transform="scale(0.015625)"/>
        <path id="Helvetica-37" d="M 3347 4400 
L 3347 3909 
Q 3131 3700 2773 3181 
Q 2416 2663 2141 2063 
Q 1869 1478 1728 997 
Q 1638 688 1494 0 
L 872 0 
Q 1084 1281 1809 2550 
Q 2238 3294 2709 3834 
L 234 3834 
L 234 4400 
L 3347 4400 
z
" transform="scale(0.015625)"/>
       </defs>
       <use xlink:href="#Helvetica-54"/>
       <use xlink:href="#Helvetica-48" x="61.083984"/>
       <use xlink:href="#Helvetica-31" x="133.300781"/>
       <use xlink:href="#Helvetica-37" x="188.916016"/>
      </g>
     </g>
    </g>
   </g>
   <g id="matplotlib.axis_2">
    <g id="ytick_1">
     <g id="line2d_1">
      <defs>
       <path id="m61ef8f0052" d="M 0 0 
L -1 0 
" style="stroke: #777777; stroke-width: 0.5"/>
      </defs>
      <g>
       <use xlink:href="#m61ef8f0052" x="10.005084" y="65.703651" style="fill: #777777; stroke: #777777; stroke-width: 0.5"/>
      </g>
     </g>
     <g id="text_3">
      <!-- 0 -->
      <g style="fill: #333333" transform="translate(6.336802 66.779667) scale(0.03 -0.03)">
       <defs>
        <path id="Helvetica-30" d="M 1731 4475 
Q 2600 4475 2988 3759 
Q 3288 3206 3288 2244 
Q 3288 1331 3016 734 
Q 2622 -122 1728 -122 
Q 922 -122 528 578 
Q 200 1163 200 2147 
Q 200 2909 397 3456 
Q 766 4475 1731 4475 
z
M 1725 391 
Q 2163 391 2422 778 
Q 2681 1166 2681 2222 
Q 2681 2984 2493 3476 
Q 2306 3969 1766 3969 
Q 1269 3969 1039 3501 
Q 809 3034 809 2125 
Q 809 1441 956 1025 
Q 1181 391 1725 391 
z
" transform="scale(0.015625)"/>
       </defs>
       <use xlink:href="#Helvetica-30"/>
      </g>
     </g>
    </g>
    <g id="ytick_2">
     <g id="line2d_2">
      <g>
       <use xlink:href="#m61ef8f0052" x="10.005084" y="56.899737" style="fill: #777777; stroke: #777777; stroke-width: 0.5"/>
      </g>
     </g>
     <g id="text_4">
      <!-- 100 -->
      <g style="fill: #333333" transform="translate(3.00024 57.975753) scale(0.03 -0.03)">
       <use xlink:href="#Helvetica-31"/>
       <use xlink:href="#Helvetica-30" x="55.615234"/>
       <use xlink:href="#Helvetica-30" x="111.230469"/>
      </g>
     </g>
    </g>
    <g id="ytick_3">
     <g id="line2d_3">
      <g>
       <use xlink:href="#m61ef8f0052" x="10.005084" y="48.095824" style="fill: #777777; stroke: #777777; stroke-width: 0.5"/>
      </g>
     </g>
     <g id="text_5">
      <!-- 200 -->
      <g style="fill: #333333" transform="translate(3.00024 49.171839) scale(0.03 -0.03)">
       <defs>
        <path id="Helvetica-32" d="M 200 0 
Q 231 578 439 1006 
Q 647 1434 1250 1784 
L 1850 2131 
Q 2253 2366 2416 2531 
Q 2672 2791 2672 3125 
Q 2672 3516 2437 3745 
Q 2203 3975 1813 3975 
Q 1234 3975 1013 3538 
Q 894 3303 881 2888 
L 309 2888 
Q 319 3472 525 3841 
Q 891 4491 1816 4491 
Q 2584 4491 2939 4075 
Q 3294 3659 3294 3150 
Q 3294 2613 2916 2231 
Q 2697 2009 2131 1694 
L 1703 1456 
Q 1397 1288 1222 1134 
Q 909 863 828 531 
L 3272 531 
L 3272 0 
L 200 0 
z
" transform="scale(0.015625)"/>
       </defs>
       <use xlink:href="#Helvetica-32"/>
       <use xlink:href="#Helvetica-30" x="55.615234"/>
       <use xlink:href="#Helvetica-30" x="111.230469"/>
      </g>
     </g>
    </g>
    <g id="ytick_4">
     <g id="line2d_4">
      <g>
       <use xlink:href="#m61ef8f0052" x="10.005084" y="39.29191" style="fill: #777777; stroke: #777777; stroke-width: 0.5"/>
      </g>
     </g>
     <g id="text_6">
      <!-- 300 -->
      <g style="fill: #333333" transform="translate(3.00024 40.367926) scale(0.03 -0.03)">
       <use xlink:href="#Helvetica-33"/>
       <use xlink:href="#Helvetica-30" x="55.615234"/>
       <use xlink:href="#Helvetica-30" x="111.230469"/>
      </g>
     </g>
    </g>
    <g id="ytick_5">
     <g id="line2d_5">
      <g>
       <use xlink:href="#m61ef8f0052" x="10.005084" y="30.487997" style="fill: #777777; stroke: #777777; stroke-width: 0.5"/>
      </g>
     </g>
     <g id="text_7">
      <!-- 400 -->
      <g style="fill: #333333" transform="translate(3.00024 31.564012) scale(0.03 -0.03)">
       <defs>
        <path id="Helvetica-34" d="M 2116 1584 
L 2116 3613 
L 681 1584 
L 2116 1584 
z
M 2125 0 
L 2125 1094 
L 163 1094 
L 163 1644 
L 2213 4488 
L 2688 4488 
L 2688 1584 
L 3347 1584 
L 3347 1094 
L 2688 1094 
L 2688 0 
L 2125 0 
z
" transform="scale(0.015625)"/>
       </defs>
       <use xlink:href="#Helvetica-34"/>
       <use xlink:href="#Helvetica-30" x="55.615234"/>
       <use xlink:href="#Helvetica-30" x="111.230469"/>
      </g>
     </g>
    </g>
    <g id="ytick_6">
     <g id="line2d_6">
      <g>
       <use xlink:href="#m61ef8f0052" x="10.005084" y="21.684083" style="fill: #777777; stroke: #777777; stroke-width: 0.5"/>
      </g>
     </g>
     <g id="text_8">
      <!-- 500 -->
      <g style="fill: #333333" transform="translate(3.00024 22.760099) scale(0.03 -0.03)">
       <defs>
        <path id="Helvetica-35" d="M 791 1141 
Q 847 659 1238 475 
Q 1438 381 1700 381 
Q 2200 381 2440 700 
Q 2681 1019 2681 1406 
Q 2681 1875 2395 2131 
Q 2109 2388 1709 2388 
Q 1419 2388 1211 2275 
Q 1003 2163 856 1963 
L 369 1991 
L 709 4400 
L 3034 4400 
L 3034 3856 
L 1131 3856 
L 941 2613 
Q 1097 2731 1238 2791 
Q 1488 2894 1816 2894 
Q 2431 2894 2859 2497 
Q 3288 2100 3288 1491 
Q 3288 856 2895 371 
Q 2503 -113 1644 -113 
Q 1097 -113 676 195 
Q 256 503 206 1141 
L 791 1141 
z
" transform="scale(0.015625)"/>
       </defs>
       <use xlink:href="#Helvetica-35"/>
       <use xlink:href="#Helvetica-30" x="55.615234"/>
       <use xlink:href="#Helvetica-30" x="111.230469"/>
      </g>
     </g>
    </g>
    <g id="ytick_7">
     <g id="line2d_7">
      <g>
       <use xlink:href="#m61ef8f0052" x="10.005084" y="12.880169" style="fill: #777777; stroke: #777777; stroke-width: 0.5"/>
      </g>
     </g>
     <g id="text_9">
      <!-- 600 -->
      <g style="fill: #333333" transform="translate(3.00024 13.956185) scale(0.03 -0.03)">
       <defs>
        <path id="Helvetica-36" d="M 1872 4494 
Q 2622 4494 2917 4105 
Q 3213 3716 3213 3303 
L 2656 3303 
Q 2606 3569 2497 3719 
Q 2294 4000 1881 4000 
Q 1409 4000 1131 3564 
Q 853 3128 822 2316 
Q 1016 2600 1309 2741 
Q 1578 2866 1909 2866 
Q 2472 2866 2890 2506 
Q 3309 2147 3309 1434 
Q 3309 825 2912 354 
Q 2516 -116 1781 -116 
Q 1153 -116 697 361 
Q 241 838 241 1966 
Q 241 2800 444 3381 
Q 834 4494 1872 4494 
z
M 1831 384 
Q 2275 384 2495 682 
Q 2716 981 2716 1388 
Q 2716 1731 2519 2042 
Q 2322 2353 1803 2353 
Q 1441 2353 1167 2112 
Q 894 1872 894 1388 
Q 894 963 1142 673 
Q 1391 384 1831 384 
z
" transform="scale(0.015625)"/>
       </defs>
       <use xlink:href="#Helvetica-36"/>
       <use xlink:href="#Helvetica-30" x="55.615234"/>
       <use xlink:href="#Helvetica-30" x="111.230469"/>
      </g>
     </g>
    </g>
    <g id="ytick_8">
     <g id="line2d_8">
      <g>
       <use xlink:href="#m61ef8f0052" x="10.005084" y="4.076256" style="fill: #777777; stroke: #777777; stroke-width: 0.5"/>
      </g>
     </g>
     <g id="text_10">
      <!-- 700 -->
      <g style="fill: #333333" transform="translate(3.00024 5.152271) scale(0.03 -0.03)">
       <use xlink:href="#Helvetica-37"/>
       <use xlink:href="#Helvetica-30" x="55.615234"/>
       <use xlink:href="#Helvetica-30" x="111.230469"/>
      </g>
     </g>
    </g>
   </g>
   <g id="PolyCollection_1">
    <defs>
     <path id="md4ff97928e" d="M 23.349474 -16.772727 
L 18.238031 -16.772727 
L 17.7889 -16.958711 
L 17.301582 -17.144695 
L 16.78201 -17.330679 
L 16.238221 -17.516663 
L 15.680263 -17.702647 
L 15.11997 -17.888631 
L 14.570592 -18.074615 
L 14.046299 -18.260599 
L 13.561579 -18.446583 
L 13.130552 -18.632567 
L 12.766262 -18.818551 
L 12.479977 -19.004535 
L 12.28056 -19.190519 
L 12.173953 -19.376504 
L 12.162818 -19.562488 
L 12.246358 -19.748472 
L 12.420352 -19.934456 
L 12.677372 -20.12044 
L 13.007205 -20.306424 
L 13.397418 -20.492408 
L 13.834037 -20.678392 
L 14.302298 -20.864376 
L 14.787398 -21.05036 
L 15.275219 -21.236344 
L 15.752958 -21.422328 
L 16.209639 -21.608312 
L 16.636482 -21.794296 
L 17.027109 -21.98028 
L 17.377599 -22.166264 
L 17.686388 -22.352248 
L 17.954048 -22.538233 
L 18.182965 -22.724217 
L 18.376952 -22.910201 
L 18.540819 -23.096185 
L 18.679949 -23.282169 
L 18.799889 -23.468153 
L 18.905993 -23.654137 
L 19.003126 -23.840121 
L 19.095445 -24.026105 
L 19.186252 -24.212089 
L 19.277934 -24.398073 
L 19.371964 -24.584057 
L 19.468969 -24.770041 
L 19.568838 -24.956025 
L 19.670864 -25.142009 
L 19.773906 -25.327993 
L 19.876549 -25.513977 
L 19.97726 -25.699962 
L 20.074515 -25.885946 
L 20.166914 -26.07193 
L 20.253258 -26.257914 
L 20.332598 -26.443898 
L 20.404252 -26.629882 
L 20.467806 -26.815866 
L 20.523081 -27.00185 
L 20.570097 -27.187834 
L 20.60902 -27.373818 
L 20.640105 -27.559802 
L 20.663645 -27.745786 
L 20.679919 -27.93177 
L 20.689153 -28.117754 
L 20.691488 -28.303738 
L 20.686964 -28.489722 
L 20.675512 -28.675706 
L 20.656971 -28.86169 
L 20.631104 -29.047675 
L 20.597639 -29.233659 
L 20.556312 -29.419643 
L 20.506927 -29.605627 
L 20.449411 -29.791611 
L 20.383882 -29.977595 
L 20.310699 -30.163579 
L 20.23052 -30.349563 
L 20.144332 -30.535547 
L 20.053474 -30.721531 
L 19.959627 -30.907515 
L 19.864793 -31.093499 
L 19.771237 -31.279483 
L 19.681409 -31.465467 
L 19.597847 -31.651451 
L 19.523063 -31.837435 
L 19.459418 -32.023419 
L 19.409002 -32.209404 
L 19.373523 -32.395388 
L 19.354205 -32.581372 
L 19.351725 -32.767356 
L 19.366172 -32.95334 
L 19.397038 -33.139324 
L 19.443253 -33.325308 
L 19.503245 -33.511292 
L 19.575025 -33.697276 
L 19.656303 -33.88326 
L 19.744603 -34.069244 
L 19.83739 -34.255228 
L 19.93219 -34.441212 
L 20.026689 -34.627196 
L 20.118828 -34.81318 
L 20.20686 -34.999164 
L 20.289392 -35.185148 
L 21.298114 -35.185148 
L 21.298114 -35.185148 
L 21.380645 -34.999164 
L 21.468677 -34.81318 
L 21.560816 -34.627196 
L 21.655316 -34.441212 
L 21.750115 -34.255228 
L 21.842903 -34.069244 
L 21.931203 -33.88326 
L 22.012481 -33.697276 
L 22.084261 -33.511292 
L 22.144252 -33.325308 
L 22.190468 -33.139324 
L 22.221334 -32.95334 
L 22.235781 -32.767356 
L 22.233301 -32.581372 
L 22.213983 -32.395388 
L 22.178503 -32.209404 
L 22.128088 -32.023419 
L 22.064443 -31.837435 
L 21.989658 -31.651451 
L 21.906097 -31.465467 
L 21.816269 -31.279483 
L 21.722713 -31.093499 
L 21.627879 -30.907515 
L 21.534032 -30.721531 
L 21.443173 -30.535547 
L 21.356985 -30.349563 
L 21.276806 -30.163579 
L 21.203624 -29.977595 
L 21.138094 -29.791611 
L 21.080579 -29.605627 
L 21.031194 -29.419643 
L 20.989867 -29.233659 
L 20.956401 -29.047675 
L 20.930534 -28.86169 
L 20.911993 -28.675706 
L 20.900542 -28.489722 
L 20.896018 -28.303738 
L 20.898353 -28.117754 
L 20.907587 -27.93177 
L 20.923861 -27.745786 
L 20.947401 -27.559802 
L 20.978486 -27.373818 
L 21.017408 -27.187834 
L 21.064424 -27.00185 
L 21.1197 -26.815866 
L 21.183254 -26.629882 
L 21.254908 -26.443898 
L 21.334248 -26.257914 
L 21.420592 -26.07193 
L 21.512991 -25.885946 
L 21.610246 -25.699962 
L 21.710956 -25.513977 
L 21.8136 -25.327993 
L 21.916642 -25.142009 
L 22.018668 -24.956025 
L 22.118536 -24.770041 
L 22.215541 -24.584057 
L 22.309572 -24.398073 
L 22.401254 -24.212089 
L 22.492061 -24.026105 
L 22.584379 -23.840121 
L 22.681513 -23.654137 
L 22.787617 -23.468153 
L 22.907557 -23.282169 
L 23.046687 -23.096185 
L 23.210554 -22.910201 
L 23.40454 -22.724217 
L 23.633458 -22.538233 
L 23.901118 -22.352248 
L 24.209906 -22.166264 
L 24.560396 -21.98028 
L 24.951024 -21.794296 
L 25.377866 -21.608312 
L 25.834547 -21.422328 
L 26.312286 -21.236344 
L 26.800108 -21.05036 
L 27.285208 -20.864376 
L 27.753469 -20.678392 
L 28.190088 -20.492408 
L 28.5803 -20.306424 
L 28.910134 -20.12044 
L 29.167154 -19.934456 
L 29.341147 -19.748472 
L 29.424688 -19.562488 
L 29.413552 -19.376504 
L 29.306946 -19.190519 
L 29.107529 -19.004535 
L 28.821243 -18.818551 
L 28.456953 -18.632567 
L 28.025926 -18.446583 
L 27.541206 -18.260599 
L 27.016914 -18.074615 
L 26.467535 -17.888631 
L 25.907242 -17.702647 
L 25.349284 -17.516663 
L 24.805496 -17.330679 
L 24.285924 -17.144695 
L 23.798606 -16.958711 
L 23.349474 -16.772727 
z
" style="stroke: #7c7c7c; stroke-width: 0.15"/>
    </defs>
    <g clip-path="url(#p3afe07a713)">
     <use xlink:href="#md4ff97928e" x="0" y="84.96" style="fill: #cfcfcf; stroke: #7c7c7c; stroke-width: 0.15"/>
    </g>
   </g>
   <g id="PolyCollection_2">
    <defs>
     <path id="mfca26d4c2e" d="M 44.649772 -16.225565 
L 40.09241 -16.225565 
L 39.671225 -16.460734 
L 39.209512 -16.695904 
L 38.711946 -16.931073 
L 38.185261 -17.166243 
L 37.638224 -17.401412 
L 37.081472 -17.636581 
L 36.527205 -17.871751 
L 35.988756 -18.10692 
L 35.48004 -18.34209 
L 35.014913 -18.577259 
L 34.606496 -18.812428 
L 34.266489 -19.047598 
L 34.004541 -19.282767 
L 33.827726 -19.517937 
L 33.740156 -19.753106 
L 33.742769 -19.988275 
L 33.833321 -20.223445 
L 34.00656 -20.458614 
L 34.25459 -20.693784 
L 34.567377 -20.928953 
L 34.933373 -21.164123 
L 35.340185 -21.399292 
L 35.775257 -21.634461 
L 36.226501 -21.869631 
L 36.682839 -22.1048 
L 37.134628 -22.33997 
L 37.573928 -22.575139 
L 37.99464 -22.810308 
L 38.392496 -23.045478 
L 38.764923 -23.280647 
L 39.11083 -23.515817 
L 39.430316 -23.750986 
L 39.724366 -23.986155 
L 39.994538 -24.221325 
L 40.242687 -24.456494 
L 40.470734 -24.691664 
L 40.680485 -24.926833 
L 40.873525 -25.162002 
L 41.051157 -25.397172 
L 41.214397 -25.632341 
L 41.364007 -25.867511 
L 41.500553 -26.10268 
L 41.624469 -26.33785 
L 41.736131 -26.573019 
L 41.835916 -26.808188 
L 41.92425 -27.043358 
L 42.001639 -27.278527 
L 42.068684 -27.513697 
L 42.126074 -27.748866 
L 42.174574 -27.984035 
L 42.214997 -28.219205 
L 42.248176 -28.454374 
L 42.274932 -28.689544 
L 42.296037 -28.924713 
L 42.312191 -29.159882 
L 42.323996 -29.395052 
L 42.331933 -29.630221 
L 42.336352 -29.865391 
L 42.337461 -30.10056 
L 42.335319 -30.335729 
L 42.329842 -30.570899 
L 42.320803 -30.806068 
L 42.307849 -31.041238 
L 42.290513 -31.276407 
L 42.268245 -31.511577 
L 42.240439 -31.746746 
L 42.206475 -31.981915 
L 42.165766 -32.217085 
L 42.117816 -32.452254 
L 42.062271 -32.687424 
L 41.998991 -32.922593 
L 41.928097 -33.157762 
L 41.850032 -33.392932 
L 41.765594 -33.628101 
L 41.675964 -33.863271 
L 41.582706 -34.09844 
L 41.487739 -34.333609 
L 41.393296 -34.568779 
L 41.301838 -34.803948 
L 41.215958 -35.039118 
L 41.138267 -35.274287 
L 41.071255 -35.509456 
L 41.017169 -35.744626 
L 40.977879 -35.979795 
L 40.954781 -36.214965 
L 40.948704 -36.450134 
L 40.95987 -36.685303 
L 40.987874 -36.920473 
L 41.031712 -37.155642 
L 41.089839 -37.390812 
L 41.160259 -37.625981 
L 41.240642 -37.861151 
L 41.328447 -38.09632 
L 41.421058 -38.331489 
L 41.515906 -38.566659 
L 41.610592 -38.801828 
L 41.702969 -39.036998 
L 41.791221 -39.272167 
L 41.8739 -39.507336 
L 42.868282 -39.507336 
L 42.868282 -39.507336 
L 42.950961 -39.272167 
L 43.039213 -39.036998 
L 43.13159 -38.801828 
L 43.226276 -38.566659 
L 43.321124 -38.331489 
L 43.413734 -38.09632 
L 43.501539 -37.861151 
L 43.581922 -37.625981 
L 43.652343 -37.390812 
L 43.71047 -37.155642 
L 43.754308 -36.920473 
L 43.782312 -36.685303 
L 43.793478 -36.450134 
L 43.787401 -36.214965 
L 43.764303 -35.979795 
L 43.725013 -35.744626 
L 43.670926 -35.509456 
L 43.603915 -35.274287 
L 43.526223 -35.039118 
L 43.440344 -34.803948 
L 43.348886 -34.568779 
L 43.254442 -34.333609 
L 43.159476 -34.09844 
L 43.066218 -33.863271 
L 42.976588 -33.628101 
L 42.89215 -33.392932 
L 42.814085 -33.157762 
L 42.743191 -32.922593 
L 42.67991 -32.687424 
L 42.624366 -32.452254 
L 42.576416 -32.217085 
L 42.535707 -31.981915 
L 42.501743 -31.746746 
L 42.473936 -31.511577 
L 42.451669 -31.276407 
L 42.434333 -31.041238 
L 42.421379 -30.806068 
L 42.41234 -30.570899 
L 42.406863 -30.335729 
L 42.404721 -30.10056 
L 42.40583 -29.865391 
L 42.410249 -29.630221 
L 42.418186 -29.395052 
L 42.429991 -29.159882 
L 42.446145 -28.924713 
L 42.46725 -28.689544 
L 42.494006 -28.454374 
L 42.527185 -28.219205 
L 42.567608 -27.984035 
L 42.616108 -27.748866 
L 42.673498 -27.513697 
L 42.740543 -27.278527 
L 42.817932 -27.043358 
L 42.906266 -26.808188 
L 43.006051 -26.573019 
L 43.117712 -26.33785 
L 43.241629 -26.10268 
L 43.378175 -25.867511 
L 43.527785 -25.632341 
L 43.691025 -25.397172 
L 43.868657 -25.162002 
L 44.061697 -24.926833 
L 44.271448 -24.691664 
L 44.499495 -24.456494 
L 44.747644 -24.221325 
L 45.017816 -23.986155 
L 45.311866 -23.750986 
L 45.631352 -23.515817 
L 45.977258 -23.280647 
L 46.349686 -23.045478 
L 46.747542 -22.810308 
L 47.168254 -22.575139 
L 47.607554 -22.33997 
L 48.059342 -22.1048 
L 48.515681 -21.869631 
L 48.966925 -21.634461 
L 49.401997 -21.399292 
L 49.808809 -21.164123 
L 50.174805 -20.928953 
L 50.487592 -20.693784 
L 50.735622 -20.458614 
L 50.908861 -20.223445 
L 50.999413 -19.988275 
L 51.002026 -19.753106 
L 50.914456 -19.517937 
L 50.737641 -19.282767 
L 50.475693 -19.047598 
L 50.135685 -18.812428 
L 49.727269 -18.577259 
L 49.262142 -18.34209 
L 48.753426 -18.10692 
L 48.214977 -17.871751 
L 47.66071 -17.636581 
L 47.103958 -17.401412 
L 46.556921 -17.166243 
L 46.030236 -16.931073 
L 45.53267 -16.695904 
L 45.070957 -16.460734 
L 44.649772 -16.225565 
z
" style="stroke: #7c7c7c; stroke-width: 0.15"/>
    </defs>
    <g clip-path="url(#p3afe07a713)">
     <use xlink:href="#mfca26d4c2e" x="0" y="84.96" style="fill: #f3f3ae; stroke: #7c7c7c; stroke-width: 0.15"/>
    </g>
   </g>
   <g id="line2d_9">
    <path d="M 20.793753 65.703651 
L 20.793753 64.13459 
" clip-path="url(#p3afe07a713)" style="fill: none; stroke: #8c8c8c; stroke-width: 0.75; stroke-linecap: round"/>
   </g>
   <g id="line2d_10">
    <path d="M 20.793753 65.678982 
L 20.793753 64.13459 
" clip-path="url(#p3afe07a713)" style="fill: none; stroke: #8c8c8c; stroke-width: 4; stroke-linecap: round"/>
   </g>
   <g id="line2d_11">
    <path d="M 20.793753 65.385359 
" clip-path="url(#p3afe07a713)" style="fill: none; stroke: #7c7c7c; stroke-width: 1.2; stroke-linecap: round"/>
    <defs>
     <path id="m1ab2dd1b1d" d="M 0 0.833333 
C 0.221003 0.833333 0.432983 0.745528 0.589256 0.589256 
C 0.745528 0.432983 0.833333 0.221003 0.833333 0 
C 0.833333 -0.221003 0.745528 -0.432983 0.589256 -0.589256 
C 0.432983 -0.745528 0.221003 -0.833333 0 -0.833333 
C -0.221003 -0.833333 -0.432983 -0.745528 -0.589256 -0.589256 
C -0.745528 -0.432983 -0.833333 -0.221003 -0.833333 0 
C -0.833333 0.221003 -0.745528 0.432983 -0.589256 0.589256 
C -0.432983 0.745528 -0.221003 0.833333 0 0.833333 
z
" style="stroke: #ffffff; stroke-width: 0.8"/>
    </defs>
    <g clip-path="url(#p3afe07a713)">
     <use xlink:href="#m1ab2dd1b1d" x="20.793753" y="65.385359" style="fill: #ffffff; stroke: #ffffff; stroke-width: 0.8"/>
    </g>
   </g>
   <g id="line2d_12">
    <path d="M 42.371091 65.642429 
L 42.371091 61.256968 
" clip-path="url(#p3afe07a713)" style="fill: none; stroke: #8c8c8c; stroke-width: 0.75; stroke-linecap: round"/>
   </g>
   <g id="line2d_13">
    <path d="M 42.371091 65.534514 
L 42.371091 63.721063 
" clip-path="url(#p3afe07a713)" style="fill: none; stroke: #8c8c8c; stroke-width: 4; stroke-linecap: round"/>
   </g>
   <g id="line2d_14">
    <path d="M 42.371091 65.042247 
" clip-path="url(#p3afe07a713)" style="fill: none; stroke: #7c7c7c; stroke-width: 1.2; stroke-linecap: round"/>
    <g clip-path="url(#p3afe07a713)">
     <use xlink:href="#m1ab2dd1b1d" x="42.371091" y="65.042247" style="fill: #ffffff; stroke: #ffffff; stroke-width: 0.8"/>
    </g>
   </g>
   <g id="patch_3">
    <path d="M 10.005084 74.419526 
L 10.005084 4.076256 
" style="fill: none; stroke: #777777; stroke-width: 0.5; stroke-linejoin: miter; stroke-linecap: square"/>
   </g>
   <g id="patch_4">
    <path d="M 10.005084 76.919526 
L 53.15976 76.919526 
" style="fill: none; stroke: #777777; stroke-width: 0.5; stroke-linejoin: miter; stroke-linecap: square"/>
   </g>
  </g>
 </g>
 <defs>
  <clipPath id="p3afe07a713">
   <rect x="10.005084" y="4.076256" width="43.154676" height="70.34327"/>
  </clipPath>
 </defs>
</svg>
