<?xml version="1.0" encoding="utf-8" standalone="no"?>
<!DOCTYPE svg PUBLIC "-//W3C//DTD SVG 1.1//EN"
  "http://www.w3.org/Graphics/SVG/1.1/DTD/svg11.dtd">
<svg xmlns:xlink="http://www.w3.org/1999/xlink" width="56.16pt" height="84.96pt" viewBox="0 0 56.16 84.96" xmlns="http://www.w3.org/2000/svg" version="1.1">
 <metadata>
  <rdf:RDF xmlns:dc="http://purl.org/dc/elements/1.1/" xmlns:cc="http://creativecommons.org/ns#" xmlns:rdf="http://www.w3.org/1999/02/22-rdf-syntax-ns#">
   <cc:Work>
    <dc:type rdf:resource="http://purl.org/dc/dcmitype/StillImage"/>
    <dc:date>2024-05-27T15:37:07.322369</dc:date>
    <dc:format>image/svg+xml</dc:format>
    <dc:creator>
     <cc:Agent>
      <dc:title>Matplotlib v3.8.3, https://matplotlib.org/</dc:title>
     </cc:Agent>
    </dc:creator>
   </cc:Work>
  </rdf:RDF>
 </metadata>
 <defs>
  <style type="text/css">*{stroke-linejoin: round; stroke-linecap: butt}</style>
 </defs>
 <g id="figure_1">
  <g id="patch_1">
   <path d="M 0 84.96 
L 56.16 84.96 
L 56.16 0 
L 0 0 
z
" style="fill: #ffffff"/>
  </g>
  <g id="axes_1">
   <g id="patch_2">
    <path d="M 8.336802 74.419526 
L 53.15976 74.419526 
L 53.15976 4.076256 
L 8.336802 4.076256 
z
" style="fill: #ffffff"/>
   </g>
   <g id="matplotlib.axis_1">
    <g id="xtick_1">
     <g id="text_1">
      <!-- ILC2 -->
      <g style="fill: #333333" transform="translate(15.846214 81.230229) scale(0.035 -0.035)">
       <defs>
        <path id="Helvetica-49" d="M 628 4591 
L 1256 4591 
L 1256 0 
L 628 0 
L 628 4591 
z
" transform="scale(0.015625)"/>
        <path id="Helvetica-4c" d="M 488 4591 
L 1109 4591 
L 1109 547 
L 3434 547 
L 3434 0 
L 488 0 
L 488 4591 
z
" transform="scale(0.015625)"/>
        <path id="Helvetica-43" d="M 2422 4716 
Q 3294 4716 3775 4256 
Q 4256 3797 4309 3213 
L 3703 3213 
Q 3600 3656 3292 3915 
Q 2984 4175 2428 4175 
Q 1750 4175 1333 3698 
Q 916 3222 916 2238 
Q 916 1431 1292 929 
Q 1669 428 2416 428 
Q 3103 428 3463 956 
Q 3653 1234 3747 1688 
L 4353 1688 
Q 4272 963 3816 472 
Q 3269 -119 2341 -119 
Q 1541 -119 997 366 
Q 281 1006 281 2344 
Q 281 3359 819 4009 
Q 1400 4716 2422 4716 
z
M 2297 4716 
L 2297 4716 
z
" transform="scale(0.015625)"/>
        <path id="Helvetica-32" d="M 200 0 
Q 231 578 439 1006 
Q 647 1434 1250 1784 
L 1850 2131 
Q 2253 2366 2416 2531 
Q 2672 2791 2672 3125 
Q 2672 3516 2437 3745 
Q 2203 3975 1813 3975 
Q 1234 3975 1013 3538 
Q 894 3303 881 2888 
L 309 2888 
Q 319 3472 525 3841 
Q 891 4491 1816 4491 
Q 2584 4491 2939 4075 
Q 3294 3659 3294 3150 
Q 3294 2613 2916 2231 
Q 2697 2009 2131 1694 
L 1703 1456 
Q 1397 1288 1222 1134 
Q 909 863 828 531 
L 3272 531 
L 3272 0 
L 200 0 
z
" transform="scale(0.015625)"/>
       </defs>
       <use xlink:href="#Helvetica-49"/>
       <use xlink:href="#Helvetica-4c" x="27.783203"/>
       <use xlink:href="#Helvetica-43" x="83.398438"/>
       <use xlink:href="#Helvetica-32" x="155.615234"/>
      </g>
     </g>
    </g>
    <g id="xtick_2">
     <g id="text_2">
      <!-- TH2 -->
      <g style="fill: #333333" transform="translate(38.648161 81.230229) scale(0.035 -0.035)">
       <defs>
        <path id="Helvetica-54" d="M 3828 4591 
L 3828 4044 
L 2281 4044 
L 2281 0 
L 1650 0 
L 1650 4044 
L 103 4044 
L 103 4591 
L 3828 4591 
z
" transform="scale(0.015625)"/>
        <path id="Helvetica-48" d="M 503 4591 
L 1131 4591 
L 1131 2694 
L 3519 2694 
L 3519 4591 
L 4147 4591 
L 4147 0 
L 3519 0 
L 3519 2147 
L 1131 2147 
L 1131 0 
L 503 0 
L 503 4591 
z
" transform="scale(0.015625)"/>
       </defs>
       <use xlink:href="#Helvetica-54"/>
       <use xlink:href="#Helvetica-48" x="61.083984"/>
       <use xlink:href="#Helvetica-32" x="133.300781"/>
      </g>
     </g>
    </g>
   </g>
   <g id="matplotlib.axis_2">
    <g id="ytick_1">
     <g id="line2d_1">
      <defs>
       <path id="m8c0639ed1a" d="M 0 0 
L -1 0 
" style="stroke: #777777; stroke-width: 0.5"/>
      </defs>
      <g>
       <use xlink:href="#m8c0639ed1a" x="8.336802" y="66.995102" style="fill: #777777; stroke: #777777; stroke-width: 0.5"/>
      </g>
     </g>
     <g id="text_3">
      <!-- 0 -->
      <g style="fill: #333333" transform="translate(4.668521 68.071117) scale(0.03 -0.03)">
       <defs>
        <path id="Helvetica-30" d="M 1731 4475 
Q 2600 4475 2988 3759 
Q 3288 3206 3288 2244 
Q 3288 1331 3016 734 
Q 2622 -122 1728 -122 
Q 922 -122 528 578 
Q 200 1163 200 2147 
Q 200 2909 397 3456 
Q 766 4475 1731 4475 
z
M 1725 391 
Q 2163 391 2422 778 
Q 2681 1166 2681 2222 
Q 2681 2984 2493 3476 
Q 2306 3969 1766 3969 
Q 1269 3969 1039 3501 
Q 809 3034 809 2125 
Q 809 1441 956 1025 
Q 1181 391 1725 391 
z
" transform="scale(0.015625)"/>
       </defs>
       <use xlink:href="#Helvetica-30"/>
      </g>
     </g>
    </g>
    <g id="ytick_2">
     <g id="line2d_2">
      <g>
       <use xlink:href="#m8c0639ed1a" x="8.336802" y="54.411333" style="fill: #777777; stroke: #777777; stroke-width: 0.5"/>
      </g>
     </g>
     <g id="text_4">
      <!-- 10 -->
      <g style="fill: #333333" transform="translate(3.00024 55.487348) scale(0.03 -0.03)">
       <defs>
        <path id="Helvetica-31" d="M 613 3169 
L 613 3600 
Q 1222 3659 1462 3798 
Q 1703 3938 1822 4456 
L 2266 4456 
L 2266 0 
L 1666 0 
L 1666 3169 
L 613 3169 
z
" transform="scale(0.015625)"/>
       </defs>
       <use xlink:href="#Helvetica-31"/>
       <use xlink:href="#Helvetica-30" x="55.615234"/>
      </g>
     </g>
    </g>
    <g id="ytick_3">
     <g id="line2d_3">
      <g>
       <use xlink:href="#m8c0639ed1a" x="8.336802" y="41.827563" style="fill: #777777; stroke: #777777; stroke-width: 0.5"/>
      </g>
     </g>
     <g id="text_5">
      <!-- 20 -->
      <g style="fill: #333333" transform="translate(3.00024 42.903579) scale(0.03 -0.03)">
       <use xlink:href="#Helvetica-32"/>
       <use xlink:href="#Helvetica-30" x="55.615234"/>
      </g>
     </g>
    </g>
    <g id="ytick_4">
     <g id="line2d_4">
      <g>
       <use xlink:href="#m8c0639ed1a" x="8.336802" y="29.243794" style="fill: #777777; stroke: #777777; stroke-width: 0.5"/>
      </g>
     </g>
     <g id="text_6">
      <!-- 30 -->
      <g style="fill: #333333" transform="translate(3.00024 30.31981) scale(0.03 -0.03)">
       <defs>
        <path id="Helvetica-33" d="M 1663 -122 
Q 869 -122 511 314 
Q 153 750 153 1375 
L 741 1375 
Q 778 941 903 744 
Q 1122 391 1694 391 
Q 2138 391 2406 628 
Q 2675 866 2675 1241 
Q 2675 1703 2392 1887 
Q 2109 2072 1606 2072 
Q 1550 2072 1492 2070 
Q 1434 2069 1375 2066 
L 1375 2563 
Q 1463 2553 1522 2550 
Q 1581 2547 1650 2547 
Q 1966 2547 2169 2647 
Q 2525 2822 2525 3272 
Q 2525 3606 2287 3787 
Q 2050 3969 1734 3969 
Q 1172 3969 956 3594 
Q 838 3388 822 3006 
L 266 3006 
Q 266 3506 466 3856 
Q 809 4481 1675 4481 
Q 2359 4481 2734 4176 
Q 3109 3872 3109 3294 
Q 3109 2881 2888 2625 
Q 2750 2466 2531 2375 
Q 2884 2278 3082 2001 
Q 3281 1725 3281 1325 
Q 3281 684 2859 281 
Q 2438 -122 1663 -122 
z
" transform="scale(0.015625)"/>
       </defs>
       <use xlink:href="#Helvetica-33"/>
       <use xlink:href="#Helvetica-30" x="55.615234"/>
      </g>
     </g>
    </g>
    <g id="ytick_5">
     <g id="line2d_5">
      <g>
       <use xlink:href="#m8c0639ed1a" x="8.336802" y="16.660025" style="fill: #777777; stroke: #777777; stroke-width: 0.5"/>
      </g>
     </g>
     <g id="text_7">
      <!-- 40 -->
      <g style="fill: #333333" transform="translate(3.00024 17.73604) scale(0.03 -0.03)">
       <defs>
        <path id="Helvetica-34" d="M 2116 1584 
L 2116 3613 
L 681 1584 
L 2116 1584 
z
M 2125 0 
L 2125 1094 
L 163 1094 
L 163 1644 
L 2213 4488 
L 2688 4488 
L 2688 1584 
L 3347 1584 
L 3347 1094 
L 2688 1094 
L 2688 0 
L 2125 0 
z
" transform="scale(0.015625)"/>
       </defs>
       <use xlink:href="#Helvetica-34"/>
       <use xlink:href="#Helvetica-30" x="55.615234"/>
      </g>
     </g>
    </g>
    <g id="ytick_6">
     <g id="line2d_6">
      <g>
       <use xlink:href="#m8c0639ed1a" x="8.336802" y="4.076256" style="fill: #777777; stroke: #777777; stroke-width: 0.5"/>
      </g>
     </g>
     <g id="text_8">
      <!-- 50 -->
      <g style="fill: #333333" transform="translate(3.00024 5.152271) scale(0.03 -0.03)">
       <defs>
        <path id="Helvetica-35" d="M 791 1141 
Q 847 659 1238 475 
Q 1438 381 1700 381 
Q 2200 381 2440 700 
Q 2681 1019 2681 1406 
Q 2681 1875 2395 2131 
Q 2109 2388 1709 2388 
Q 1419 2388 1211 2275 
Q 1003 2163 856 1963 
L 369 1991 
L 709 4400 
L 3034 4400 
L 3034 3856 
L 1131 3856 
L 941 2613 
Q 1097 2731 1238 2791 
Q 1488 2894 1816 2894 
Q 2431 2894 2859 2497 
Q 3288 2100 3288 1491 
Q 3288 856 2895 371 
Q 2503 -113 1644 -113 
Q 1097 -113 676 195 
Q 256 503 206 1141 
L 791 1141 
z
" transform="scale(0.015625)"/>
       </defs>
       <use xlink:href="#Helvetica-35"/>
       <use xlink:href="#Helvetica-30" x="55.615234"/>
      </g>
     </g>
    </g>
   </g>
   <g id="PolyCollection_1">
    <defs>
     <path id="m6a03b3006e" d="M 20.773866 -17.963999 
L 18.311218 -17.963999 
L 18.075198 -17.964069 
L 17.811824 -17.964139 
L 17.521469 -17.964209 
L 17.205135 -17.964279 
L 16.864448 -17.964349 
L 16.501628 -17.964419 
L 16.11943 -17.96449 
L 15.721081 -17.96456 
L 15.310207 -17.96463 
L 14.890767 -17.9647 
L 14.466988 -17.96477 
L 14.043318 -17.96484 
L 13.624385 -17.96491 
L 13.214958 -17.96498 
L 12.819905 -17.96505 
L 12.44413 -17.96512 
L 12.092482 -17.96519 
L 11.769635 -17.96526 
L 11.47992 -17.96533 
L 11.227135 -17.965401 
L 11.01432 -17.965471 
L 10.84354 -17.965541 
L 10.715682 -17.965611 
L 10.630292 -17.965681 
L 10.585488 -17.965751 
L 10.57795 -17.965821 
L 10.603018 -17.965891 
L 10.654878 -17.965961 
L 10.726854 -17.966031 
L 10.811766 -17.966101 
L 10.902343 -17.966171 
L 10.991657 -17.966241 
L 11.073548 -17.966312 
L 11.143007 -17.966382 
L 11.196495 -17.966452 
L 11.232166 -17.966522 
L 11.249985 -17.966592 
L 11.251742 -17.966662 
L 11.240929 -17.966732 
L 11.222526 -17.966802 
L 11.202672 -17.966872 
L 11.18826 -17.966942 
L 11.186472 -17.967012 
L 11.20428 -17.967082 
L 11.247945 -17.967152 
L 11.322565 -17.967223 
L 11.43167 -17.967293 
L 11.576938 -17.967363 
L 11.75803 -17.967433 
L 11.972567 -17.967503 
L 12.216263 -17.967573 
L 12.483206 -17.967643 
L 12.766255 -17.967713 
L 13.057544 -17.967783 
L 13.349027 -17.967853 
L 13.633037 -17.967923 
L 13.902802 -17.967993 
L 14.152863 -17.968063 
L 14.379379 -17.968134 
L 14.580273 -17.968204 
L 14.75522 -17.968274 
L 14.905484 -17.968344 
L 15.033617 -17.968414 
L 15.143064 -17.968484 
L 15.23771 -17.968554 
L 15.321431 -17.968624 
L 15.397671 -17.968694 
L 15.469123 -17.968764 
L 15.537507 -17.968834 
L 15.603498 -17.968904 
L 15.66678 -17.968974 
L 15.726239 -17.969045 
L 15.780239 -17.969115 
L 15.826983 -17.969185 
L 15.864878 -17.969255 
L 15.892893 -17.969325 
L 15.910845 -17.969395 
L 15.919596 -17.969465 
L 15.921134 -17.969535 
L 15.918521 -17.969605 
L 15.91573 -17.969675 
L 15.917371 -17.969745 
L 15.928347 -17.969815 
L 15.953469 -17.969886 
L 15.997067 -17.969956 
L 16.062644 -17.970026 
L 16.152595 -17.970096 
L 16.268015 -17.970166 
L 16.408625 -17.970236 
L 16.572794 -17.970306 
L 16.757679 -17.970376 
L 16.959431 -17.970446 
L 17.173479 -17.970516 
L 17.394837 -17.970586 
L 17.61842 -17.970656 
L 17.839337 -17.970726 
L 18.053143 -17.970797 
L 18.256036 -17.970867 
L 18.444985 -17.970937 
L 20.640099 -17.970937 
L 20.640099 -17.970937 
L 20.829048 -17.970867 
L 21.031941 -17.970797 
L 21.245747 -17.970726 
L 21.466664 -17.970656 
L 21.690247 -17.970586 
L 21.911605 -17.970516 
L 22.125653 -17.970446 
L 22.327405 -17.970376 
L 22.51229 -17.970306 
L 22.676459 -17.970236 
L 22.817069 -17.970166 
L 22.932489 -17.970096 
L 23.022439 -17.970026 
L 23.088017 -17.969956 
L 23.131615 -17.969886 
L 23.156736 -17.969815 
L 23.167713 -17.969745 
L 23.169354 -17.969675 
L 23.166563 -17.969605 
L 23.16395 -17.969535 
L 23.165488 -17.969465 
L 23.174239 -17.969395 
L 23.192191 -17.969325 
L 23.220205 -17.969255 
L 23.258101 -17.969185 
L 23.304844 -17.969115 
L 23.358845 -17.969045 
L 23.418303 -17.968974 
L 23.481586 -17.968904 
L 23.547577 -17.968834 
L 23.615961 -17.968764 
L 23.687412 -17.968694 
L 23.763653 -17.968624 
L 23.847374 -17.968554 
L 23.94202 -17.968484 
L 24.051467 -17.968414 
L 24.1796 -17.968344 
L 24.329864 -17.968274 
L 24.504811 -17.968204 
L 24.705705 -17.968134 
L 24.932221 -17.968063 
L 25.182282 -17.967993 
L 25.452046 -17.967923 
L 25.736057 -17.967853 
L 26.02754 -17.967783 
L 26.318828 -17.967713 
L 26.601878 -17.967643 
L 26.86882 -17.967573 
L 27.112517 -17.967503 
L 27.327053 -17.967433 
L 27.508145 -17.967363 
L 27.653414 -17.967293 
L 27.762519 -17.967223 
L 27.837138 -17.967152 
L 27.880804 -17.967082 
L 27.898611 -17.967012 
L 27.896824 -17.966942 
L 27.882412 -17.966872 
L 27.862558 -17.966802 
L 27.844155 -17.966732 
L 27.833342 -17.966662 
L 27.835098 -17.966592 
L 27.852918 -17.966522 
L 27.888588 -17.966452 
L 27.942076 -17.966382 
L 28.011536 -17.966312 
L 28.093427 -17.966241 
L 28.182741 -17.966171 
L 28.273317 -17.966101 
L 28.358229 -17.966031 
L 28.430206 -17.965961 
L 28.482066 -17.965891 
L 28.507133 -17.965821 
L 28.499596 -17.965751 
L 28.454792 -17.965681 
L 28.369402 -17.965611 
L 28.241544 -17.965541 
L 28.070764 -17.965471 
L 27.857949 -17.965401 
L 27.605163 -17.96533 
L 27.315449 -17.96526 
L 26.992602 -17.96519 
L 26.640954 -17.96512 
L 26.265178 -17.96505 
L 25.870125 -17.96498 
L 25.460698 -17.96491 
L 25.041765 -17.96484 
L 24.618095 -17.96477 
L 24.194316 -17.9647 
L 23.774877 -17.96463 
L 23.364003 -17.96456 
L 22.965654 -17.96449 
L 22.583456 -17.964419 
L 22.220635 -17.964349 
L 21.879949 -17.964279 
L 21.563615 -17.964209 
L 21.27326 -17.964139 
L 21.009886 -17.964069 
L 20.773866 -17.963999 
z
" style="stroke: #717171; stroke-width: 0.15"/>
    </defs>
    <g clip-path="url(#pe3a7fadf79)">
     <use xlink:href="#m6a03b3006e" x="0" y="84.96" style="fill: #d6bba3; stroke: #717171; stroke-width: 0.15"/>
    </g>
   </g>
   <g id="PolyCollection_2">
    <defs>
     <path id="m09e4b565b4" d="M 42.951651 -17.951751 
L 40.95639 -17.951751 
L 40.788046 -17.952766 
L 40.602253 -17.953781 
L 40.39913 -17.954796 
L 40.179089 -17.955811 
L 39.942826 -17.956826 
L 39.691289 -17.957842 
L 39.425644 -17.958857 
L 39.147226 -17.959872 
L 38.857482 -17.960887 
L 38.55792 -17.961902 
L 38.250058 -17.962917 
L 37.935379 -17.963932 
L 37.61531 -17.964947 
L 37.291212 -17.965963 
L 36.964393 -17.966978 
L 36.636145 -17.967993 
L 36.307788 -17.969008 
L 35.980743 -17.970023 
L 35.656602 -17.971038 
L 35.337205 -17.972053 
L 35.024705 -17.973068 
L 34.721625 -17.974084 
L 34.430878 -17.975099 
L 34.155776 -17.976114 
L 33.899991 -17.977129 
L 33.667486 -17.978144 
L 33.46242 -17.979159 
L 33.289008 -17.980174 
L 33.151376 -17.981189 
L 33.053385 -17.982205 
L 32.998462 -17.98322 
L 32.989429 -17.984235 
L 33.028352 -17.98525 
L 33.116411 -17.986265 
L 33.253806 -17.98728 
L 33.439699 -17.988295 
L 33.672198 -17.98931 
L 33.948382 -17.990326 
L 34.264363 -17.991341 
L 34.615395 -17.992356 
L 34.995997 -17.993371 
L 35.400108 -17.994386 
L 35.821257 -17.995401 
L 36.252734 -17.996416 
L 36.687758 -17.997432 
L 37.119645 -17.998447 
L 37.541942 -17.999462 
L 37.948562 -18.000477 
L 38.333873 -18.001492 
L 38.692784 -18.002507 
L 39.020788 -18.003522 
L 39.313989 -18.004537 
L 39.569118 -18.005553 
L 39.783517 -18.006568 
L 39.955127 -18.007583 
L 40.08246 -18.008598 
L 40.164579 -18.009613 
L 40.201076 -18.010628 
L 40.192052 -18.011643 
L 40.138119 -18.012658 
L 40.040398 -18.013674 
L 39.900531 -18.014689 
L 39.720698 -18.015704 
L 39.503644 -18.016719 
L 39.252695 -18.017734 
L 38.971776 -18.018749 
L 38.665414 -18.019764 
L 38.338733 -18.020779 
L 37.997417 -18.021795 
L 37.647663 -18.02281 
L 37.296094 -18.023825 
L 36.949657 -18.02484 
L 36.615485 -18.025855 
L 36.300741 -18.02687 
L 36.012435 -18.027885 
L 35.757232 -18.0289 
L 35.541257 -18.029916 
L 35.369888 -18.030931 
L 35.247581 -18.031946 
L 35.177699 -18.032961 
L 35.162387 -18.033976 
L 35.202474 -18.034991 
L 35.297433 -18.036006 
L 35.445387 -18.037021 
L 35.643168 -18.038037 
L 35.886428 -18.039052 
L 36.169799 -18.040067 
L 36.487088 -18.041082 
L 36.831505 -18.042097 
L 37.195913 -18.043112 
L 37.573074 -18.044127 
L 37.955895 -18.045142 
L 38.337654 -18.046158 
L 38.712194 -18.047173 
L 39.074082 -18.048188 
L 39.418727 -18.049203 
L 39.742444 -18.050218 
L 40.042485 -18.051233 
L 40.317022 -18.052248 
L 43.591019 -18.052248 
L 43.591019 -18.052248 
L 43.865556 -18.051233 
L 44.165597 -18.050218 
L 44.489314 -18.049203 
L 44.833959 -18.048188 
L 45.195848 -18.047173 
L 45.570387 -18.046158 
L 45.952146 -18.045142 
L 46.334967 -18.044127 
L 46.712128 -18.043112 
L 47.076536 -18.042097 
L 47.420954 -18.041082 
L 47.738242 -18.040067 
L 48.021613 -18.039052 
L 48.264873 -18.038037 
L 48.462654 -18.037021 
L 48.610609 -18.036006 
L 48.705568 -18.034991 
L 48.745654 -18.033976 
L 48.730342 -18.032961 
L 48.660461 -18.031946 
L 48.538153 -18.030931 
L 48.366785 -18.029916 
L 48.150809 -18.0289 
L 47.895606 -18.027885 
L 47.6073 -18.02687 
L 47.292556 -18.025855 
L 46.958384 -18.02484 
L 46.611948 -18.023825 
L 46.260379 -18.02281 
L 45.910624 -18.021795 
L 45.569308 -18.020779 
L 45.242627 -18.019764 
L 44.936265 -18.018749 
L 44.655346 -18.017734 
L 44.404397 -18.016719 
L 44.187343 -18.015704 
L 44.007511 -18.014689 
L 43.867643 -18.013674 
L 43.769922 -18.012658 
L 43.715989 -18.011643 
L 43.706966 -18.010628 
L 43.743462 -18.009613 
L 43.825581 -18.008598 
L 43.952914 -18.007583 
L 44.124524 -18.006568 
L 44.338923 -18.005553 
L 44.594052 -18.004537 
L 44.887254 -18.003522 
L 45.215257 -18.002507 
L 45.574168 -18.001492 
L 45.95948 -18.000477 
L 46.366099 -17.999462 
L 46.788396 -17.998447 
L 47.220283 -17.997432 
L 47.655308 -17.996416 
L 48.086784 -17.995401 
L 48.507933 -17.994386 
L 48.912044 -17.993371 
L 49.292646 -17.992356 
L 49.643678 -17.991341 
L 49.95966 -17.990326 
L 50.235843 -17.98931 
L 50.468342 -17.988295 
L 50.654236 -17.98728 
L 50.791631 -17.986265 
L 50.87969 -17.98525 
L 50.918612 -17.984235 
L 50.909579 -17.98322 
L 50.854656 -17.982205 
L 50.756665 -17.981189 
L 50.619033 -17.980174 
L 50.445621 -17.979159 
L 50.240555 -17.978144 
L 50.00805 -17.977129 
L 49.752265 -17.976114 
L 49.477163 -17.975099 
L 49.186416 -17.974084 
L 48.883336 -17.973068 
L 48.570837 -17.972053 
L 48.25144 -17.971038 
L 47.927299 -17.970023 
L 47.600253 -17.969008 
L 47.271896 -17.967993 
L 46.943648 -17.966978 
L 46.61683 -17.965963 
L 46.292732 -17.964947 
L 45.972662 -17.963932 
L 45.657983 -17.962917 
L 45.350121 -17.961902 
L 45.05056 -17.960887 
L 44.760816 -17.959872 
L 44.482397 -17.958857 
L 44.216752 -17.957842 
L 43.965215 -17.956826 
L 43.728952 -17.955811 
L 43.508912 -17.954796 
L 43.305788 -17.953781 
L 43.119995 -17.952766 
L 42.951651 -17.951751 
z
" style="stroke: #717171; stroke-width: 0.15"/>
    </defs>
    <g clip-path="url(#pe3a7fadf79)">
     <use xlink:href="#m09e4b565b4" x="0" y="84.96" style="fill: #f1b9e0; stroke: #717171; stroke-width: 0.15"/>
    </g>
   </g>
   <g id="line2d_7">
    <path d="M 19.542542 66.995102 
L 19.542542 66.989963 
" clip-path="url(#pe3a7fadf79)" style="fill: none; stroke: #8c8c8c; stroke-width: 0.75; stroke-linecap: round"/>
   </g>
   <g id="line2d_8">
    <path d="M 19.542542 66.994268 
L 19.542542 66.992186 
" clip-path="url(#pe3a7fadf79)" style="fill: none; stroke: #8c8c8c; stroke-width: 4; stroke-linecap: round"/>
   </g>
   <g id="line2d_9">
    <path d="M 19.542542 66.993083 
" clip-path="url(#pe3a7fadf79)" style="fill: none; stroke: #717171; stroke-width: 1.2; stroke-linecap: round"/>
    <defs>
     <path id="mc939906b5b" d="M 0 0.833333 
C 0.221003 0.833333 0.432983 0.745528 0.589256 0.589256 
C 0.745528 0.432983 0.833333 0.221003 0.833333 0 
C 0.833333 -0.221003 0.745528 -0.432983 0.589256 -0.589256 
C 0.432983 -0.745528 0.221003 -0.833333 0 -0.833333 
C -0.221003 -0.833333 -0.432983 -0.745528 -0.589256 -0.589256 
C -0.745528 -0.432983 -0.833333 -0.221003 -0.833333 0 
C -0.833333 0.221003 -0.745528 0.432983 -0.589256 0.589256 
C -0.432983 0.745528 -0.221003 0.833333 0 0.833333 
z
" style="stroke: #ffffff; stroke-width: 0.8"/>
    </defs>
    <g clip-path="url(#pe3a7fadf79)">
     <use xlink:href="#mc939906b5b" x="19.542542" y="66.993083" style="fill: #ffffff; stroke: #ffffff; stroke-width: 0.8"/>
    </g>
   </g>
   <g id="line2d_10">
    <path d="M 41.954021 66.993497 
L 41.954021 66.922503 
" clip-path="url(#pe3a7fadf79)" style="fill: none; stroke: #8c8c8c; stroke-width: 0.75; stroke-linecap: round"/>
   </g>
   <g id="line2d_11">
    <path d="M 41.954021 66.97666 
L 41.954021 66.93062 
" clip-path="url(#pe3a7fadf79)" style="fill: none; stroke: #8c8c8c; stroke-width: 4; stroke-linecap: round"/>
   </g>
   <g id="line2d_12">
    <path d="M 41.954021 66.970097 
" clip-path="url(#pe3a7fadf79)" style="fill: none; stroke: #717171; stroke-width: 1.2; stroke-linecap: round"/>
    <g clip-path="url(#pe3a7fadf79)">
     <use xlink:href="#mc939906b5b" x="41.954021" y="66.970097" style="fill: #ffffff; stroke: #ffffff; stroke-width: 0.8"/>
    </g>
   </g>
   <g id="patch_3">
    <path d="M 8.336802 74.419526 
L 8.336802 4.076256 
" style="fill: none; stroke: #777777; stroke-width: 0.5; stroke-linejoin: miter; stroke-linecap: square"/>
   </g>
   <g id="patch_4">
    <path d="M 8.336802 76.919526 
L 53.15976 76.919526 
" style="fill: none; stroke: #777777; stroke-width: 0.5; stroke-linejoin: miter; stroke-linecap: square"/>
   </g>
  </g>
 </g>
 <defs>
  <clipPath id="pe3a7fadf79">
   <rect x="8.336802" y="4.076256" width="44.822958" height="70.34327"/>
  </clipPath>
 </defs>
</svg>
