<?xml version="1.0" encoding="utf-8" standalone="no"?>
<!DOCTYPE svg PUBLIC "-//W3C//DTD SVG 1.1//EN"
  "http://www.w3.org/Graphics/SVG/1.1/DTD/svg11.dtd">
<svg xmlns:xlink="http://www.w3.org/1999/xlink" width="56.16pt" height="84.96pt" viewBox="0 0 56.16 84.96" xmlns="http://www.w3.org/2000/svg" version="1.1">
 <metadata>
  <rdf:RDF xmlns:dc="http://purl.org/dc/elements/1.1/" xmlns:cc="http://creativecommons.org/ns#" xmlns:rdf="http://www.w3.org/1999/02/22-rdf-syntax-ns#">
   <cc:Work>
    <dc:type rdf:resource="http://purl.org/dc/dcmitype/StillImage"/>
    <dc:date>2024-05-27T15:37:01.172916</dc:date>
    <dc:format>image/svg+xml</dc:format>
    <dc:creator>
     <cc:Agent>
      <dc:title>Matplotlib v3.8.3, https://matplotlib.org/</dc:title>
     </cc:Agent>
    </dc:creator>
   </cc:Work>
  </rdf:RDF>
 </metadata>
 <defs>
  <style type="text/css">*{stroke-linejoin: round; stroke-linecap: butt}</style>
 </defs>
 <g id="figure_1">
  <g id="patch_1">
   <path d="M 0 84.96 
L 56.16 84.96 
L 56.16 0 
L 0 0 
z
" style="fill: #ffffff"/>
  </g>
  <g id="axes_1">
   <g id="patch_2">
    <path d="M 10.005084 74.395463 
L 53.15976 74.395463 
L 53.15976 4.076256 
L 10.005084 4.076256 
z
" style="fill: #ffffff"/>
   </g>
   <g id="matplotlib.axis_1">
    <g id="xtick_1">
     <g id="text_1">
      <!-- RORγT+ Cells -->
      <g style="fill: #333333" transform="translate(9.464964 81.230229) scale(0.035 -0.035)">
       <defs>
        <path id="Helvetica-52" d="M 2622 2488 
Q 3059 2488 3314 2663 
Q 3569 2838 3569 3294 
Q 3569 3784 3213 3963 
Q 3022 4056 2703 4056 
L 1184 4056 
L 1184 2488 
L 2622 2488 
z
M 563 4591 
L 2688 4591 
Q 3213 4591 3553 4438 
Q 4200 4144 4200 3353 
Q 4200 2941 4029 2678 
Q 3859 2416 3553 2256 
Q 3822 2147 3958 1969 
Q 4094 1791 4109 1391 
L 4131 775 
Q 4141 513 4175 384 
Q 4231 166 4375 103 
L 4375 0 
L 3613 0 
Q 3581 59 3562 153 
Q 3544 247 3531 516 
L 3494 1281 
Q 3472 1731 3159 1884 
Q 2981 1969 2600 1969 
L 1184 1969 
L 1184 0 
L 563 0 
L 563 4591 
z
" transform="scale(0.015625)"/>
        <path id="Helvetica-4f" d="M 2469 4716 
Q 3684 4716 4269 3934 
Q 4725 3325 4725 2375 
Q 4725 1347 4203 666 
Q 3591 -134 2456 -134 
Q 1397 -134 791 566 
Q 250 1241 250 2272 
Q 250 3203 713 3866 
Q 1306 4716 2469 4716 
z
M 2531 422 
Q 3353 422 3720 1011 
Q 4088 1600 4088 2366 
Q 4088 3175 3664 3669 
Q 3241 4163 2506 4163 
Q 1794 4163 1344 3673 
Q 894 3184 894 2231 
Q 894 1469 1280 945 
Q 1666 422 2531 422 
z
M 2488 4716 
L 2488 4716 
z
" transform="scale(0.015625)"/>
        <path id="Helvetica-3b3" d="M 1556 225 
L 581 2444 
Q 481 2700 416 2803 
Q 347 2894 244 2894 
Q 91 2888 56 2872 
L 56 3334 
Q 166 3384 313 3391 
Q 641 3391 788 3250 
Q 863 3188 922 3078 
Q 978 2963 1038 2809 
L 1844 878 
L 2828 3328 
L 3431 3328 
L 2131 225 
L 2131 -1253 
L 1556 -1253 
L 1556 225 
z
" transform="scale(0.015625)"/>
        <path id="Helvetica-54" d="M 3828 4591 
L 3828 4044 
L 2281 4044 
L 2281 0 
L 1650 0 
L 1650 4044 
L 103 4044 
L 103 4591 
L 3828 4591 
z
" transform="scale(0.015625)"/>
        <path id="Helvetica-2b" d="M 288 1369 
L 288 1894 
L 1650 1894 
L 1650 3266 
L 2184 3266 
L 2184 1894 
L 3547 1894 
L 3547 1369 
L 2184 1369 
L 2184 0 
L 1650 0 
L 1650 1369 
L 288 1369 
z
" transform="scale(0.015625)"/>
        <path id="Helvetica-20" transform="scale(0.015625)"/>
        <path id="Helvetica-43" d="M 2422 4716 
Q 3294 4716 3775 4256 
Q 4256 3797 4309 3213 
L 3703 3213 
Q 3600 3656 3292 3915 
Q 2984 4175 2428 4175 
Q 1750 4175 1333 3698 
Q 916 3222 916 2238 
Q 916 1431 1292 929 
Q 1669 428 2416 428 
Q 3103 428 3463 956 
Q 3653 1234 3747 1688 
L 4353 1688 
Q 4272 963 3816 472 
Q 3269 -119 2341 -119 
Q 1541 -119 997 366 
Q 281 1006 281 2344 
Q 281 3359 819 4009 
Q 1400 4716 2422 4716 
z
M 2297 4716 
L 2297 4716 
z
" transform="scale(0.015625)"/>
        <path id="Helvetica-65" d="M 1806 3422 
Q 2163 3422 2497 3255 
Q 2831 3088 3006 2822 
Q 3175 2569 3231 2231 
Q 3281 2000 3281 1494 
L 828 1494 
Q 844 984 1069 676 
Q 1294 369 1766 369 
Q 2206 369 2469 659 
Q 2619 828 2681 1050 
L 3234 1050 
Q 3213 866 3089 639 
Q 2966 413 2813 269 
Q 2556 19 2178 -69 
Q 1975 -119 1719 -119 
Q 1094 -119 659 336 
Q 225 791 225 1609 
Q 225 2416 662 2919 
Q 1100 3422 1806 3422 
z
M 2703 1941 
Q 2669 2306 2544 2525 
Q 2313 2931 1772 2931 
Q 1384 2931 1121 2651 
Q 859 2372 844 1941 
L 2703 1941 
z
M 1753 3428 
L 1753 3428 
z
" transform="scale(0.015625)"/>
        <path id="Helvetica-6c" d="M 428 4591 
L 991 4591 
L 991 0 
L 428 0 
L 428 4591 
z
" transform="scale(0.015625)"/>
        <path id="Helvetica-73" d="M 747 1050 
Q 772 769 888 619 
Q 1100 347 1625 347 
Q 1938 347 2175 483 
Q 2413 619 2413 903 
Q 2413 1119 2222 1231 
Q 2100 1300 1741 1391 
L 1294 1503 
Q 866 1609 663 1741 
Q 300 1969 300 2372 
Q 300 2847 642 3140 
Q 984 3434 1563 3434 
Q 2319 3434 2653 2991 
Q 2863 2709 2856 2384 
L 2325 2384 
Q 2309 2575 2191 2731 
Q 1997 2953 1519 2953 
Q 1200 2953 1036 2831 
Q 872 2709 872 2509 
Q 872 2291 1088 2159 
Q 1213 2081 1456 2022 
L 1828 1931 
Q 2434 1784 2641 1647 
Q 2969 1431 2969 969 
Q 2969 522 2630 197 
Q 2291 -128 1597 -128 
Q 850 -128 539 211 
Q 228 550 206 1050 
L 747 1050 
z
M 1578 3428 
L 1578 3428 
z
" transform="scale(0.015625)"/>
       </defs>
       <use xlink:href="#Helvetica-52"/>
       <use xlink:href="#Helvetica-4f" x="72.216797"/>
       <use xlink:href="#Helvetica-52" x="150"/>
       <use xlink:href="#Helvetica-3b3" x="222.216797"/>
       <use xlink:href="#Helvetica-54" x="277.832031"/>
       <use xlink:href="#Helvetica-2b" x="338.916016"/>
       <use xlink:href="#Helvetica-20" x="397.314453"/>
       <use xlink:href="#Helvetica-43" x="425.097656"/>
       <use xlink:href="#Helvetica-65" x="497.314453"/>
       <use xlink:href="#Helvetica-6c" x="552.929688"/>
       <use xlink:href="#Helvetica-6c" x="575.146484"/>
       <use xlink:href="#Helvetica-73" x="597.363281"/>
      </g>
     </g>
    </g>
    <g id="xtick_2">
     <g id="text_2">
      <!-- AHR+ Cells -->
      <g style="fill: #333333" transform="translate(33.2782 81.206166) scale(0.035 -0.035)">
       <defs>
        <path id="Helvetica-41" d="M 2844 1881 
L 2147 3909 
L 1406 1881 
L 2844 1881 
z
M 1822 4591 
L 2525 4591 
L 4191 0 
L 3509 0 
L 3044 1375 
L 1228 1375 
L 731 0 
L 94 0 
L 1822 4591 
z
" transform="scale(0.015625)"/>
        <path id="Helvetica-48" d="M 503 4591 
L 1131 4591 
L 1131 2694 
L 3519 2694 
L 3519 4591 
L 4147 4591 
L 4147 0 
L 3519 0 
L 3519 2147 
L 1131 2147 
L 1131 0 
L 503 0 
L 503 4591 
z
" transform="scale(0.015625)"/>
       </defs>
       <use xlink:href="#Helvetica-41"/>
       <use xlink:href="#Helvetica-48" x="66.699219"/>
       <use xlink:href="#Helvetica-52" x="138.916016"/>
       <use xlink:href="#Helvetica-2b" x="211.132812"/>
       <use xlink:href="#Helvetica-20" x="269.53125"/>
       <use xlink:href="#Helvetica-43" x="297.314453"/>
       <use xlink:href="#Helvetica-65" x="369.53125"/>
       <use xlink:href="#Helvetica-6c" x="425.146484"/>
       <use xlink:href="#Helvetica-6c" x="447.363281"/>
       <use xlink:href="#Helvetica-73" x="469.580078"/>
      </g>
     </g>
    </g>
   </g>
   <g id="matplotlib.axis_2">
    <g id="ytick_1">
     <g id="line2d_1">
      <defs>
       <path id="m88187d8270" d="M 0 0 
L -1 0 
" style="stroke: #777777; stroke-width: 0.5"/>
      </defs>
      <g>
       <use xlink:href="#m88187d8270" x="10.005084" y="66.168271" style="fill: #777777; stroke: #777777; stroke-width: 0.5"/>
      </g>
     </g>
     <g id="text_3">
      <!-- 0 -->
      <g style="fill: #333333" transform="translate(6.336802 67.244287) scale(0.03 -0.03)">
       <defs>
        <path id="Helvetica-30" d="M 1731 4475 
Q 2600 4475 2988 3759 
Q 3288 3206 3288 2244 
Q 3288 1331 3016 734 
Q 2622 -122 1728 -122 
Q 922 -122 528 578 
Q 200 1163 200 2147 
Q 200 2909 397 3456 
Q 766 4475 1731 4475 
z
M 1725 391 
Q 2163 391 2422 778 
Q 2681 1166 2681 2222 
Q 2681 2984 2493 3476 
Q 2306 3969 1766 3969 
Q 1269 3969 1039 3501 
Q 809 3034 809 2125 
Q 809 1441 956 1025 
Q 1181 391 1725 391 
z
" transform="scale(0.015625)"/>
       </defs>
       <use xlink:href="#Helvetica-30"/>
      </g>
     </g>
    </g>
    <g id="ytick_2">
     <g id="line2d_2">
      <g>
       <use xlink:href="#m88187d8270" x="10.005084" y="55.819602" style="fill: #777777; stroke: #777777; stroke-width: 0.5"/>
      </g>
     </g>
     <g id="text_4">
      <!-- 20 -->
      <g style="fill: #333333" transform="translate(4.668521 56.895617) scale(0.03 -0.03)">
       <defs>
        <path id="Helvetica-32" d="M 200 0 
Q 231 578 439 1006 
Q 647 1434 1250 1784 
L 1850 2131 
Q 2253 2366 2416 2531 
Q 2672 2791 2672 3125 
Q 2672 3516 2437 3745 
Q 2203 3975 1813 3975 
Q 1234 3975 1013 3538 
Q 894 3303 881 2888 
L 309 2888 
Q 319 3472 525 3841 
Q 891 4491 1816 4491 
Q 2584 4491 2939 4075 
Q 3294 3659 3294 3150 
Q 3294 2613 2916 2231 
Q 2697 2009 2131 1694 
L 1703 1456 
Q 1397 1288 1222 1134 
Q 909 863 828 531 
L 3272 531 
L 3272 0 
L 200 0 
z
" transform="scale(0.015625)"/>
       </defs>
       <use xlink:href="#Helvetica-32"/>
       <use xlink:href="#Helvetica-30" x="55.615234"/>
      </g>
     </g>
    </g>
    <g id="ytick_3">
     <g id="line2d_3">
      <g>
       <use xlink:href="#m88187d8270" x="10.005084" y="45.470933" style="fill: #777777; stroke: #777777; stroke-width: 0.5"/>
      </g>
     </g>
     <g id="text_5">
      <!-- 40 -->
      <g style="fill: #333333" transform="translate(4.668521 46.546948) scale(0.03 -0.03)">
       <defs>
        <path id="Helvetica-34" d="M 2116 1584 
L 2116 3613 
L 681 1584 
L 2116 1584 
z
M 2125 0 
L 2125 1094 
L 163 1094 
L 163 1644 
L 2213 4488 
L 2688 4488 
L 2688 1584 
L 3347 1584 
L 3347 1094 
L 2688 1094 
L 2688 0 
L 2125 0 
z
" transform="scale(0.015625)"/>
       </defs>
       <use xlink:href="#Helvetica-34"/>
       <use xlink:href="#Helvetica-30" x="55.615234"/>
      </g>
     </g>
    </g>
    <g id="ytick_4">
     <g id="line2d_4">
      <g>
       <use xlink:href="#m88187d8270" x="10.005084" y="35.122263" style="fill: #777777; stroke: #777777; stroke-width: 0.5"/>
      </g>
     </g>
     <g id="text_6">
      <!-- 60 -->
      <g style="fill: #333333" transform="translate(4.668521 36.198279) scale(0.03 -0.03)">
       <defs>
        <path id="Helvetica-36" d="M 1872 4494 
Q 2622 4494 2917 4105 
Q 3213 3716 3213 3303 
L 2656 3303 
Q 2606 3569 2497 3719 
Q 2294 4000 1881 4000 
Q 1409 4000 1131 3564 
Q 853 3128 822 2316 
Q 1016 2600 1309 2741 
Q 1578 2866 1909 2866 
Q 2472 2866 2890 2506 
Q 3309 2147 3309 1434 
Q 3309 825 2912 354 
Q 2516 -116 1781 -116 
Q 1153 -116 697 361 
Q 241 838 241 1966 
Q 241 2800 444 3381 
Q 834 4494 1872 4494 
z
M 1831 384 
Q 2275 384 2495 682 
Q 2716 981 2716 1388 
Q 2716 1731 2519 2042 
Q 2322 2353 1803 2353 
Q 1441 2353 1167 2112 
Q 894 1872 894 1388 
Q 894 963 1142 673 
Q 1391 384 1831 384 
z
" transform="scale(0.015625)"/>
       </defs>
       <use xlink:href="#Helvetica-36"/>
       <use xlink:href="#Helvetica-30" x="55.615234"/>
      </g>
     </g>
    </g>
    <g id="ytick_5">
     <g id="line2d_5">
      <g>
       <use xlink:href="#m88187d8270" x="10.005084" y="24.773594" style="fill: #777777; stroke: #777777; stroke-width: 0.5"/>
      </g>
     </g>
     <g id="text_7">
      <!-- 80 -->
      <g style="fill: #333333" transform="translate(4.668521 25.84961) scale(0.03 -0.03)">
       <defs>
        <path id="Helvetica-38" d="M 1741 2600 
Q 2113 2600 2322 2808 
Q 2531 3016 2531 3303 
Q 2531 3553 2331 3762 
Q 2131 3972 1722 3972 
Q 1316 3972 1134 3762 
Q 953 3553 953 3272 
Q 953 2956 1187 2778 
Q 1422 2600 1741 2600 
z
M 1775 384 
Q 2166 384 2423 595 
Q 2681 806 2681 1225 
Q 2681 1659 2415 1884 
Q 2150 2109 1734 2109 
Q 1331 2109 1076 1879 
Q 822 1650 822 1244 
Q 822 894 1055 639 
Q 1288 384 1775 384 
z
M 975 2384 
Q 741 2484 609 2619 
Q 363 2869 363 3269 
Q 363 3769 725 4128 
Q 1088 4488 1753 4488 
Q 2397 4488 2762 4148 
Q 3128 3809 3128 3356 
Q 3128 2938 2916 2678 
Q 2797 2531 2547 2391 
Q 2825 2263 2984 2097 
Q 3281 1784 3281 1284 
Q 3281 694 2884 283 
Q 2488 -128 1763 -128 
Q 1109 -128 657 226 
Q 206 581 206 1256 
Q 206 1653 400 1942 
Q 594 2231 975 2384 
z
" transform="scale(0.015625)"/>
       </defs>
       <use xlink:href="#Helvetica-38"/>
       <use xlink:href="#Helvetica-30" x="55.615234"/>
      </g>
     </g>
    </g>
    <g id="ytick_6">
     <g id="line2d_6">
      <g>
       <use xlink:href="#m88187d8270" x="10.005084" y="14.424925" style="fill: #777777; stroke: #777777; stroke-width: 0.5"/>
      </g>
     </g>
     <g id="text_8">
      <!-- 100 -->
      <g style="fill: #333333" transform="translate(3.00024 15.50094) scale(0.03 -0.03)">
       <defs>
        <path id="Helvetica-31" d="M 613 3169 
L 613 3600 
Q 1222 3659 1462 3798 
Q 1703 3938 1822 4456 
L 2266 4456 
L 2266 0 
L 1666 0 
L 1666 3169 
L 613 3169 
z
" transform="scale(0.015625)"/>
       </defs>
       <use xlink:href="#Helvetica-31"/>
       <use xlink:href="#Helvetica-30" x="55.615234"/>
       <use xlink:href="#Helvetica-30" x="111.230469"/>
      </g>
     </g>
    </g>
    <g id="ytick_7">
     <g id="line2d_7">
      <g>
       <use xlink:href="#m88187d8270" x="10.005084" y="4.076256" style="fill: #777777; stroke: #777777; stroke-width: 0.5"/>
      </g>
     </g>
     <g id="text_9">
      <!-- 120 -->
      <g style="fill: #333333" transform="translate(3.00024 5.152271) scale(0.03 -0.03)">
       <use xlink:href="#Helvetica-31"/>
       <use xlink:href="#Helvetica-32" x="55.615234"/>
       <use xlink:href="#Helvetica-30" x="111.230469"/>
      </g>
     </g>
    </g>
   </g>
   <g id="PolyCollection_1">
    <defs>
     <path id="m554055af4f" d="M 21.706416 -18.60081 
L 19.88109 -18.60081 
L 19.675156 -18.696024 
L 19.436623 -18.791237 
L 19.163645 -18.886451 
L 18.855022 -18.981664 
L 18.510372 -19.076878 
L 18.130294 -19.172091 
L 17.716518 -19.267305 
L 17.272028 -19.362519 
L 16.80116 -19.457732 
L 16.309644 -19.552946 
L 15.804591 -19.648159 
L 15.294416 -19.743373 
L 14.788681 -19.838587 
L 14.297859 -19.9338 
L 13.833021 -20.029014 
L 13.405446 -20.124227 
L 13.026174 -20.219441 
L 12.70552 -20.314654 
L 12.452575 -20.409868 
L 12.274722 -20.505082 
L 12.177212 -20.600295 
L 12.162818 -20.695509 
L 12.231609 -20.790722 
L 12.380869 -20.885936 
L 12.605156 -20.98115 
L 12.896538 -21.076363 
L 13.244963 -21.171577 
L 13.63876 -21.26679 
L 14.065237 -21.362004 
L 14.511331 -21.457217 
L 14.964269 -21.552431 
L 15.412192 -21.647645 
L 15.844698 -21.742858 
L 16.253274 -21.838072 
L 16.631579 -21.933285 
L 16.975582 -22.028499 
L 17.283533 -22.123713 
L 17.555794 -22.218926 
L 17.794542 -22.31414 
L 18.003383 -22.409353 
L 18.186907 -22.504567 
L 18.350223 -22.599781 
L 18.498513 -22.694994 
L 18.636641 -22.790208 
L 18.768831 -22.885421 
L 18.898444 -22.980635 
L 19.02785 -23.075848 
L 19.158399 -23.171062 
L 19.290478 -23.266276 
L 19.423642 -23.361489 
L 19.556784 -23.456703 
L 19.688342 -23.551916 
L 19.816504 -23.64713 
L 19.939398 -23.742344 
L 20.055259 -23.837557 
L 20.162546 -23.932771 
L 20.260024 -24.027984 
L 20.346795 -24.123198 
L 20.422298 -24.218411 
L 20.486263 -24.313625 
L 20.538658 -24.408839 
L 20.579608 -24.504052 
L 20.609322 -24.599266 
L 20.628021 -24.694479 
L 20.635879 -24.789693 
L 20.632985 -24.884907 
L 20.619329 -24.98012 
L 20.594813 -25.075334 
L 20.559282 -25.170547 
L 20.512587 -25.265761 
L 20.454656 -25.360974 
L 20.385588 -25.456188 
L 20.305741 -25.551402 
L 20.215825 -25.646615 
L 20.116973 -25.741829 
L 20.010795 -25.837042 
L 19.899396 -25.932256 
L 19.785358 -26.02747 
L 19.671678 -26.122683 
L 19.561666 -26.217897 
L 19.458804 -26.31311 
L 19.366574 -26.408324 
L 19.288273 -26.503537 
L 19.226825 -26.598751 
L 19.184594 -26.693965 
L 19.163244 -26.789178 
L 19.163629 -26.884392 
L 19.185735 -26.979605 
L 19.228682 -27.074819 
L 19.290786 -27.170033 
L 19.369663 -27.265246 
L 19.462386 -27.36046 
L 19.565662 -27.455673 
L 19.676026 -27.550887 
L 19.790031 -27.6461 
L 19.904423 -27.741314 
L 20.01628 -27.836528 
L 20.123128 -27.931741 
L 20.223002 -28.026955 
L 21.364504 -28.026955 
L 21.364504 -28.026955 
L 21.464378 -27.931741 
L 21.571226 -27.836528 
L 21.683083 -27.741314 
L 21.797474 -27.6461 
L 21.91148 -27.550887 
L 22.021844 -27.455673 
L 22.12512 -27.36046 
L 22.217843 -27.265246 
L 22.29672 -27.170033 
L 22.358823 -27.074819 
L 22.401771 -26.979605 
L 22.423876 -26.884392 
L 22.424261 -26.789178 
L 22.402912 -26.693965 
L 22.360681 -26.598751 
L 22.299232 -26.503537 
L 22.220932 -26.408324 
L 22.128702 -26.31311 
L 22.025839 -26.217897 
L 21.915827 -26.122683 
L 21.802147 -26.02747 
L 21.688109 -25.932256 
L 21.57671 -25.837042 
L 21.470532 -25.741829 
L 21.37168 -25.646615 
L 21.281764 -25.551402 
L 21.201918 -25.456188 
L 21.13285 -25.360974 
L 21.074919 -25.265761 
L 21.028224 -25.170547 
L 20.992693 -25.075334 
L 20.968176 -24.98012 
L 20.954521 -24.884907 
L 20.951627 -24.789693 
L 20.959485 -24.694479 
L 20.978184 -24.599266 
L 21.007898 -24.504052 
L 21.048848 -24.408839 
L 21.101242 -24.313625 
L 21.165208 -24.218411 
L 21.24071 -24.123198 
L 21.327482 -24.027984 
L 21.424959 -23.932771 
L 21.532246 -23.837557 
L 21.648107 -23.742344 
L 21.771002 -23.64713 
L 21.899163 -23.551916 
L 22.030722 -23.456703 
L 22.163864 -23.361489 
L 22.297027 -23.266276 
L 22.429107 -23.171062 
L 22.559655 -23.075848 
L 22.689061 -22.980635 
L 22.818674 -22.885421 
L 22.950865 -22.790208 
L 23.088993 -22.694994 
L 23.237283 -22.599781 
L 23.400599 -22.504567 
L 23.584123 -22.409353 
L 23.792964 -22.31414 
L 24.031712 -22.218926 
L 24.303972 -22.123713 
L 24.611923 -22.028499 
L 24.955927 -21.933285 
L 25.334232 -21.838072 
L 25.742807 -21.742858 
L 26.175314 -21.647645 
L 26.623237 -21.552431 
L 27.076175 -21.457217 
L 27.522269 -21.362004 
L 27.948746 -21.26679 
L 28.342542 -21.171577 
L 28.690967 -21.076363 
L 28.98235 -20.98115 
L 29.206637 -20.885936 
L 29.355896 -20.790722 
L 29.424688 -20.695509 
L 29.410294 -20.600295 
L 29.312784 -20.505082 
L 29.134931 -20.409868 
L 28.881985 -20.314654 
L 28.561331 -20.219441 
L 28.182059 -20.124227 
L 27.754484 -20.029014 
L 27.289646 -19.9338 
L 26.798825 -19.838587 
L 26.29309 -19.743373 
L 25.782915 -19.648159 
L 25.277862 -19.552946 
L 24.786346 -19.457732 
L 24.315478 -19.362519 
L 23.870988 -19.267305 
L 23.457211 -19.172091 
L 23.077133 -19.076878 
L 22.732484 -18.981664 
L 22.423861 -18.886451 
L 22.150882 -18.791237 
L 21.91235 -18.696024 
L 21.706416 -18.60081 
z
" style="stroke: #6f6f6f; stroke-width: 0.15"/>
    </defs>
    <g clip-path="url(#pdb8c12928b)">
     <use xlink:href="#m554055af4f" x="0" y="84.96" style="fill: #cfcfcf; stroke: #6f6f6f; stroke-width: 0.15"/>
    </g>
   </g>
   <g id="PolyCollection_2">
    <defs>
     <path id="m609e631eed" d="M 44.657563 -28.997297 
L 40.084619 -28.997297 
L 39.717826 -29.290644 
L 39.322296 -29.58399 
L 38.90179 -29.877336 
L 38.461223 -30.170683 
L 38.006571 -30.464029 
L 37.544706 -30.757376 
L 37.083152 -31.050722 
L 36.629792 -31.344069 
L 36.192517 -31.637415 
L 35.77886 -31.930761 
L 35.39562 -32.224108 
L 35.04852 -32.517454 
L 34.741907 -32.810801 
L 34.478542 -33.104147 
L 34.259474 -33.397494 
L 34.08404 -33.69084 
L 33.949964 -33.984186 
L 33.853581 -34.277533 
L 33.790146 -34.570879 
L 33.754231 -34.864226 
L 33.740156 -35.157572 
L 33.742436 -35.450918 
L 33.75621 -35.744265 
L 33.777609 -36.037611 
L 33.804035 -36.330958 
L 33.834347 -36.624304 
L 33.868909 -36.917651 
L 33.909527 -37.210997 
L 33.959268 -37.504343 
L 34.022173 -37.79769 
L 34.102903 -38.091036 
L 34.206328 -38.384383 
L 34.337117 -38.677729 
L 34.499331 -38.971076 
L 34.696074 -39.264422 
L 34.929213 -39.557768 
L 35.199191 -39.851115 
L 35.504935 -40.144461 
L 35.843869 -40.437808 
L 36.212022 -40.731154 
L 36.604217 -41.0245 
L 37.014321 -41.317847 
L 37.435534 -41.611193 
L 37.860708 -41.90454 
L 38.282646 -42.197886 
L 38.694388 -42.491233 
L 39.089458 -42.784579 
L 39.462049 -43.077925 
L 39.807167 -43.371272 
L 40.120707 -43.664618 
L 40.399481 -43.957965 
L 40.641196 -44.251311 
L 40.844396 -44.544658 
L 41.008387 -44.838004 
L 41.133135 -45.13135 
L 41.219174 -45.424697 
L 41.26751 -45.718043 
L 41.279547 -46.01139 
L 41.257021 -46.304736 
L 41.201961 -46.598083 
L 41.116657 -46.891429 
L 41.003653 -47.184775 
L 40.865744 -47.478122 
L 40.705975 -47.771468 
L 40.527644 -48.064815 
L 40.334297 -48.358161 
L 40.129711 -48.651507 
L 39.917867 -48.944854 
L 39.702905 -49.2382 
L 39.489066 -49.531547 
L 39.28062 -49.824893 
L 39.081787 -50.11824 
L 38.896644 -50.411586 
L 38.729034 -50.704932 
L 38.582477 -50.998279 
L 38.460079 -51.291625 
L 38.364457 -51.584972 
L 38.29767 -51.878318 
L 38.261171 -52.171665 
L 38.255765 -52.465011 
L 38.281594 -52.758357 
L 38.338136 -53.051704 
L 38.424225 -53.34505 
L 38.538082 -53.638397 
L 38.677378 -53.931743 
L 38.839296 -54.225089 
L 39.020623 -54.518436 
L 39.217843 -54.811782 
L 39.427245 -55.105129 
L 39.645029 -55.398475 
L 39.86742 -55.691822 
L 40.090771 -55.985168 
L 40.311664 -56.278514 
L 40.526993 -56.571861 
L 40.734034 -56.865207 
L 40.930497 -57.158554 
L 41.114557 -57.4519 
L 41.284867 -57.745247 
L 41.440547 -58.038593 
L 43.301635 -58.038593 
L 43.301635 -58.038593 
L 43.457315 -57.745247 
L 43.627625 -57.4519 
L 43.811685 -57.158554 
L 44.008148 -56.865207 
L 44.215189 -56.571861 
L 44.430518 -56.278514 
L 44.651411 -55.985168 
L 44.874762 -55.691822 
L 45.097153 -55.398475 
L 45.314937 -55.105129 
L 45.524339 -54.811782 
L 45.721559 -54.518436 
L 45.902886 -54.225089 
L 46.064804 -53.931743 
L 46.204099 -53.638397 
L 46.317957 -53.34505 
L 46.404045 -53.051704 
L 46.460588 -52.758357 
L 46.486417 -52.465011 
L 46.481011 -52.171665 
L 46.444512 -51.878318 
L 46.377725 -51.584972 
L 46.282103 -51.291625 
L 46.159705 -50.998279 
L 46.013147 -50.704932 
L 45.845538 -50.411586 
L 45.660395 -50.11824 
L 45.461561 -49.824893 
L 45.253116 -49.531547 
L 45.039276 -49.2382 
L 44.824314 -48.944854 
L 44.612471 -48.651507 
L 44.407885 -48.358161 
L 44.214538 -48.064815 
L 44.036207 -47.771468 
L 43.876438 -47.478122 
L 43.738529 -47.184775 
L 43.625525 -46.891429 
L 43.540221 -46.598083 
L 43.48516 -46.304736 
L 43.462635 -46.01139 
L 43.474672 -45.718043 
L 43.523008 -45.424697 
L 43.609046 -45.13135 
L 43.733795 -44.838004 
L 43.897786 -44.544658 
L 44.100986 -44.251311 
L 44.3427 -43.957965 
L 44.621475 -43.664618 
L 44.935015 -43.371272 
L 45.280133 -43.077925 
L 45.652724 -42.784579 
L 46.047794 -42.491233 
L 46.459536 -42.197886 
L 46.881474 -41.90454 
L 47.306648 -41.611193 
L 47.727861 -41.317847 
L 48.137964 -41.0245 
L 48.53016 -40.731154 
L 48.898313 -40.437808 
L 49.237247 -40.144461 
L 49.542991 -39.851115 
L 49.812968 -39.557768 
L 50.046108 -39.264422 
L 50.242851 -38.971076 
L 50.405065 -38.677729 
L 50.535854 -38.384383 
L 50.639279 -38.091036 
L 50.720008 -37.79769 
L 50.782914 -37.504343 
L 50.832655 -37.210997 
L 50.873273 -36.917651 
L 50.907835 -36.624304 
L 50.938147 -36.330958 
L 50.964573 -36.037611 
L 50.985972 -35.744265 
L 50.999746 -35.450918 
L 51.002026 -35.157572 
L 50.987951 -34.864226 
L 50.952036 -34.570879 
L 50.888601 -34.277533 
L 50.792218 -33.984186 
L 50.658142 -33.69084 
L 50.482708 -33.397494 
L 50.26364 -33.104147 
L 50.000275 -32.810801 
L 49.693662 -32.517454 
L 49.346562 -32.224108 
L 48.963322 -31.930761 
L 48.549665 -31.637415 
L 48.11239 -31.344069 
L 47.65903 -31.050722 
L 47.197476 -30.757376 
L 46.735611 -30.464029 
L 46.280959 -30.170683 
L 45.840392 -29.877336 
L 45.419885 -29.58399 
L 45.024356 -29.290644 
L 44.657563 -28.997297 
z
" style="stroke: #6f6f6f; stroke-width: 0.15"/>
    </defs>
    <g clip-path="url(#pdb8c12928b)">
     <use xlink:href="#m609e631eed" x="0" y="84.96" style="fill: #f3f3ae; stroke: #6f6f6f; stroke-width: 0.15"/>
    </g>
   </g>
   <g id="line2d_8">
    <path d="M 20.793753 65.167366 
L 20.793753 62.173161 
" clip-path="url(#pdb8c12928b)" style="fill: none; stroke: #8c8c8c; stroke-width: 0.75; stroke-linecap: round"/>
   </g>
   <g id="line2d_9">
    <path d="M 20.793753 64.402675 
L 20.793753 63.369756 
" clip-path="url(#pdb8c12928b)" style="fill: none; stroke: #8c8c8c; stroke-width: 4; stroke-linecap: round"/>
   </g>
   <g id="line2d_10">
    <path d="M 20.793753 64.129556 
" clip-path="url(#pdb8c12928b)" style="fill: none; stroke: #6f6f6f; stroke-width: 1.2; stroke-linecap: round"/>
    <defs>
     <path id="md6770aa091" d="M 0 0.833333 
C 0.221003 0.833333 0.432983 0.745528 0.589256 0.589256 
C 0.745528 0.432983 0.833333 0.221003 0.833333 0 
C 0.833333 -0.221003 0.745528 -0.432983 0.589256 -0.589256 
C 0.432983 -0.745528 0.221003 -0.833333 0 -0.833333 
C -0.221003 -0.833333 -0.432983 -0.745528 -0.589256 -0.589256 
C -0.745528 -0.432983 -0.833333 -0.221003 -0.833333 0 
C -0.833333 0.221003 -0.745528 0.432983 -0.589256 0.589256 
C -0.432983 0.745528 -0.221003 0.833333 0 0.833333 
z
" style="stroke: #ffffff; stroke-width: 0.8"/>
    </defs>
    <g clip-path="url(#pdb8c12928b)">
     <use xlink:href="#md6770aa091" x="20.793753" y="64.129556" style="fill: #ffffff; stroke: #ffffff; stroke-width: 0.8"/>
    </g>
   </g>
   <g id="line2d_11">
    <path d="M 42.371091 51.762031 
L 42.371091 31.122078 
" clip-path="url(#pdb8c12928b)" style="fill: none; stroke: #8c8c8c; stroke-width: 0.75; stroke-linecap: round"/>
   </g>
   <g id="line2d_12">
    <path d="M 42.371091 51.428316 
L 42.371091 42.365742 
" clip-path="url(#pdb8c12928b)" style="fill: none; stroke: #8c8c8c; stroke-width: 4; stroke-linecap: round"/>
   </g>
   <g id="line2d_13">
    <path d="M 42.371091 46.218984 
" clip-path="url(#pdb8c12928b)" style="fill: none; stroke: #6f6f6f; stroke-width: 1.2; stroke-linecap: round"/>
    <g clip-path="url(#pdb8c12928b)">
     <use xlink:href="#md6770aa091" x="42.371091" y="46.218984" style="fill: #ffffff; stroke: #ffffff; stroke-width: 0.8"/>
    </g>
   </g>
   <g id="patch_3">
    <path d="M 10.005084 74.395463 
L 10.005084 4.076256 
" style="fill: none; stroke: #777777; stroke-width: 0.5; stroke-linejoin: miter; stroke-linecap: square"/>
   </g>
   <g id="patch_4">
    <path d="M 10.005084 76.895463 
L 53.15976 76.895463 
" style="fill: none; stroke: #777777; stroke-width: 0.5; stroke-linejoin: miter; stroke-linecap: square"/>
   </g>
  </g>
 </g>
 <defs>
  <clipPath id="pdb8c12928b">
   <rect x="10.005084" y="4.076256" width="43.154676" height="70.319207"/>
  </clipPath>
 </defs>
</svg>
