<?xml version="1.0" encoding="utf-8" standalone="no"?>
<!DOCTYPE svg PUBLIC "-//W3C//DTD SVG 1.1//EN"
  "http://www.w3.org/Graphics/SVG/1.1/DTD/svg11.dtd">
<svg xmlns:xlink="http://www.w3.org/1999/xlink" width="56.16pt" height="84.96pt" viewBox="0 0 56.16 84.96" xmlns="http://www.w3.org/2000/svg" version="1.1">
 <metadata>
  <rdf:RDF xmlns:dc="http://purl.org/dc/elements/1.1/" xmlns:cc="http://creativecommons.org/ns#" xmlns:rdf="http://www.w3.org/1999/02/22-rdf-syntax-ns#">
   <cc:Work>
    <dc:type rdf:resource="http://purl.org/dc/dcmitype/StillImage"/>
    <dc:date>2024-05-27T15:36:59.847523</dc:date>
    <dc:format>image/svg+xml</dc:format>
    <dc:creator>
     <cc:Agent>
      <dc:title>Matplotlib v3.8.3, https://matplotlib.org/</dc:title>
     </cc:Agent>
    </dc:creator>
   </cc:Work>
  </rdf:RDF>
 </metadata>
 <defs>
  <style type="text/css">*{stroke-linejoin: round; stroke-linecap: butt}</style>
 </defs>
 <g id="figure_1">
  <g id="patch_1">
   <path d="M 0 84.96 
L 56.16 84.96 
L 56.16 0 
L 0 0 
z
" style="fill: #ffffff"/>
  </g>
  <g id="axes_1">
   <g id="patch_2">
    <path d="M 10.005084 74.419526 
L 53.15976 74.419526 
L 53.15976 4.076256 
L 10.005084 4.076256 
z
" style="fill: #ffffff"/>
   </g>
   <g id="matplotlib.axis_1">
    <g id="xtick_1">
     <g id="text_1">
      <!-- EOMES+ Cells -->
      <g style="fill: #333333" transform="translate(9.075042 81.230229) scale(0.035 -0.035)">
       <defs>
        <path id="Helvetica-45" d="M 547 4591 
L 3894 4591 
L 3894 4028 
L 1153 4028 
L 1153 2634 
L 3688 2634 
L 3688 2103 
L 1153 2103 
L 1153 547 
L 3941 547 
L 3941 0 
L 547 0 
L 547 4591 
z
M 2244 4591 
L 2244 4591 
z
" transform="scale(0.015625)"/>
        <path id="Helvetica-4f" d="M 2469 4716 
Q 3684 4716 4269 3934 
Q 4725 3325 4725 2375 
Q 4725 1347 4203 666 
Q 3591 -134 2456 -134 
Q 1397 -134 791 566 
Q 250 1241 250 2272 
Q 250 3203 713 3866 
Q 1306 4716 2469 4716 
z
M 2531 422 
Q 3353 422 3720 1011 
Q 4088 1600 4088 2366 
Q 4088 3175 3664 3669 
Q 3241 4163 2506 4163 
Q 1794 4163 1344 3673 
Q 894 3184 894 2231 
Q 894 1469 1280 945 
Q 1666 422 2531 422 
z
M 2488 4716 
L 2488 4716 
z
" transform="scale(0.015625)"/>
        <path id="Helvetica-4d" d="M 472 4591 
L 1363 4591 
L 2681 709 
L 3991 4591 
L 4872 4591 
L 4872 0 
L 4281 0 
L 4281 2709 
Q 4281 2850 4287 3175 
Q 4294 3500 4294 3872 
L 2984 0 
L 2369 0 
L 1050 3872 
L 1050 3731 
Q 1050 3563 1058 3217 
Q 1066 2872 1066 2709 
L 1066 0 
L 472 0 
L 472 4591 
z
" transform="scale(0.015625)"/>
        <path id="Helvetica-53" d="M 894 1481 
Q 916 1091 1078 847 
Q 1388 391 2169 391 
Q 2519 391 2806 491 
Q 3363 684 3363 1184 
Q 3363 1559 3128 1719 
Q 2891 1875 2384 1991 
L 1763 2131 
Q 1153 2269 900 2434 
Q 463 2722 463 3294 
Q 463 3913 891 4309 
Q 1319 4706 2103 4706 
Q 2825 4706 3329 4357 
Q 3834 4009 3834 3244 
L 3250 3244 
Q 3203 3613 3050 3809 
Q 2766 4169 2084 4169 
Q 1534 4169 1293 3937 
Q 1053 3706 1053 3400 
Q 1053 3063 1334 2906 
Q 1519 2806 2169 2656 
L 2813 2509 
Q 3278 2403 3531 2219 
Q 3969 1897 3969 1284 
Q 3969 522 3414 194 
Q 2859 -134 2125 -134 
Q 1269 -134 784 303 
Q 300 738 309 1481 
L 894 1481 
z
M 2150 4716 
L 2150 4716 
z
" transform="scale(0.015625)"/>
        <path id="Helvetica-2b" d="M 288 1369 
L 288 1894 
L 1650 1894 
L 1650 3266 
L 2184 3266 
L 2184 1894 
L 3547 1894 
L 3547 1369 
L 2184 1369 
L 2184 0 
L 1650 0 
L 1650 1369 
L 288 1369 
z
" transform="scale(0.015625)"/>
        <path id="Helvetica-20" transform="scale(0.015625)"/>
        <path id="Helvetica-43" d="M 2422 4716 
Q 3294 4716 3775 4256 
Q 4256 3797 4309 3213 
L 3703 3213 
Q 3600 3656 3292 3915 
Q 2984 4175 2428 4175 
Q 1750 4175 1333 3698 
Q 916 3222 916 2238 
Q 916 1431 1292 929 
Q 1669 428 2416 428 
Q 3103 428 3463 956 
Q 3653 1234 3747 1688 
L 4353 1688 
Q 4272 963 3816 472 
Q 3269 -119 2341 -119 
Q 1541 -119 997 366 
Q 281 1006 281 2344 
Q 281 3359 819 4009 
Q 1400 4716 2422 4716 
z
M 2297 4716 
L 2297 4716 
z
" transform="scale(0.015625)"/>
        <path id="Helvetica-65" d="M 1806 3422 
Q 2163 3422 2497 3255 
Q 2831 3088 3006 2822 
Q 3175 2569 3231 2231 
Q 3281 2000 3281 1494 
L 828 1494 
Q 844 984 1069 676 
Q 1294 369 1766 369 
Q 2206 369 2469 659 
Q 2619 828 2681 1050 
L 3234 1050 
Q 3213 866 3089 639 
Q 2966 413 2813 269 
Q 2556 19 2178 -69 
Q 1975 -119 1719 -119 
Q 1094 -119 659 336 
Q 225 791 225 1609 
Q 225 2416 662 2919 
Q 1100 3422 1806 3422 
z
M 2703 1941 
Q 2669 2306 2544 2525 
Q 2313 2931 1772 2931 
Q 1384 2931 1121 2651 
Q 859 2372 844 1941 
L 2703 1941 
z
M 1753 3428 
L 1753 3428 
z
" transform="scale(0.015625)"/>
        <path id="Helvetica-6c" d="M 428 4591 
L 991 4591 
L 991 0 
L 428 0 
L 428 4591 
z
" transform="scale(0.015625)"/>
        <path id="Helvetica-73" d="M 747 1050 
Q 772 769 888 619 
Q 1100 347 1625 347 
Q 1938 347 2175 483 
Q 2413 619 2413 903 
Q 2413 1119 2222 1231 
Q 2100 1300 1741 1391 
L 1294 1503 
Q 866 1609 663 1741 
Q 300 1969 300 2372 
Q 300 2847 642 3140 
Q 984 3434 1563 3434 
Q 2319 3434 2653 2991 
Q 2863 2709 2856 2384 
L 2325 2384 
Q 2309 2575 2191 2731 
Q 1997 2953 1519 2953 
Q 1200 2953 1036 2831 
Q 872 2709 872 2509 
Q 872 2291 1088 2159 
Q 1213 2081 1456 2022 
L 1828 1931 
Q 2434 1784 2641 1647 
Q 2969 1431 2969 969 
Q 2969 522 2630 197 
Q 2291 -128 1597 -128 
Q 850 -128 539 211 
Q 228 550 206 1050 
L 747 1050 
z
M 1578 3428 
L 1578 3428 
z
" transform="scale(0.015625)"/>
       </defs>
       <use xlink:href="#Helvetica-45"/>
       <use xlink:href="#Helvetica-4f" x="66.699219"/>
       <use xlink:href="#Helvetica-4d" x="144.482422"/>
       <use xlink:href="#Helvetica-45" x="227.783203"/>
       <use xlink:href="#Helvetica-53" x="294.482422"/>
       <use xlink:href="#Helvetica-2b" x="361.181641"/>
       <use xlink:href="#Helvetica-20" x="419.580078"/>
       <use xlink:href="#Helvetica-43" x="447.363281"/>
       <use xlink:href="#Helvetica-65" x="519.580078"/>
       <use xlink:href="#Helvetica-6c" x="575.195312"/>
       <use xlink:href="#Helvetica-6c" x="597.412109"/>
       <use xlink:href="#Helvetica-73" x="619.628906"/>
      </g>
     </g>
    </g>
    <g id="xtick_2">
     <g id="text_2">
      <!-- TBX+ Cells -->
      <g style="fill: #333333" transform="translate(33.569685 81.230229) scale(0.035 -0.035)">
       <defs>
        <path id="Helvetica-54" d="M 3828 4591 
L 3828 4044 
L 2281 4044 
L 2281 0 
L 1650 0 
L 1650 4044 
L 103 4044 
L 103 4591 
L 3828 4591 
z
" transform="scale(0.015625)"/>
        <path id="Helvetica-42" d="M 2213 2650 
Q 2606 2650 2825 2759 
Q 3169 2931 3169 3378 
Q 3169 3828 2803 3984 
Q 2597 4072 2191 4072 
L 1081 4072 
L 1081 2650 
L 2213 2650 
z
M 2422 531 
Q 2994 531 3238 863 
Q 3391 1072 3391 1369 
Q 3391 1869 2944 2050 
Q 2706 2147 2316 2147 
L 1081 2147 
L 1081 531 
L 2422 531 
z
M 472 4591 
L 2444 4591 
Q 3250 4591 3591 4109 
Q 3791 3825 3791 3453 
Q 3791 3019 3544 2741 
Q 3416 2594 3175 2472 
Q 3528 2338 3703 2169 
Q 4013 1869 4013 1341 
Q 4013 897 3734 538 
Q 3319 0 2413 0 
L 472 0 
L 472 4591 
z
" transform="scale(0.015625)"/>
        <path id="Helvetica-58" d="M 881 0 
L 131 0 
L 1775 2353 
L 234 4591 
L 1013 4591 
L 2184 2834 
L 3347 4591 
L 4088 4591 
L 2547 2353 
L 4163 0 
L 3391 0 
L 2153 1888 
L 881 0 
z
" transform="scale(0.015625)"/>
       </defs>
       <use xlink:href="#Helvetica-54"/>
       <use xlink:href="#Helvetica-42" x="61.083984"/>
       <use xlink:href="#Helvetica-58" x="127.783203"/>
       <use xlink:href="#Helvetica-2b" x="194.482422"/>
       <use xlink:href="#Helvetica-20" x="252.880859"/>
       <use xlink:href="#Helvetica-43" x="280.664062"/>
       <use xlink:href="#Helvetica-65" x="352.880859"/>
       <use xlink:href="#Helvetica-6c" x="408.496094"/>
       <use xlink:href="#Helvetica-6c" x="430.712891"/>
       <use xlink:href="#Helvetica-73" x="452.929688"/>
      </g>
     </g>
    </g>
   </g>
   <g id="matplotlib.axis_2">
    <g id="ytick_1">
     <g id="line2d_1">
      <defs>
       <path id="mce991f9878" d="M 0 0 
L -1 0 
" style="stroke: #777777; stroke-width: 0.5"/>
      </defs>
      <g>
       <use xlink:href="#mce991f9878" x="10.005084" y="66.189518" style="fill: #777777; stroke: #777777; stroke-width: 0.5"/>
      </g>
     </g>
     <g id="text_3">
      <!-- 0 -->
      <g style="fill: #333333" transform="translate(6.336802 67.265534) scale(0.03 -0.03)">
       <defs>
        <path id="Helvetica-30" d="M 1731 4475 
Q 2600 4475 2988 3759 
Q 3288 3206 3288 2244 
Q 3288 1331 3016 734 
Q 2622 -122 1728 -122 
Q 922 -122 528 578 
Q 200 1163 200 2147 
Q 200 2909 397 3456 
Q 766 4475 1731 4475 
z
M 1725 391 
Q 2163 391 2422 778 
Q 2681 1166 2681 2222 
Q 2681 2984 2493 3476 
Q 2306 3969 1766 3969 
Q 1269 3969 1039 3501 
Q 809 3034 809 2125 
Q 809 1441 956 1025 
Q 1181 391 1725 391 
z
" transform="scale(0.015625)"/>
       </defs>
       <use xlink:href="#Helvetica-30"/>
      </g>
     </g>
    </g>
    <g id="ytick_2">
     <g id="line2d_2">
      <g>
       <use xlink:href="#mce991f9878" x="10.005084" y="55.837308" style="fill: #777777; stroke: #777777; stroke-width: 0.5"/>
      </g>
     </g>
     <g id="text_4">
      <!-- 20 -->
      <g style="fill: #333333" transform="translate(4.668521 56.913323) scale(0.03 -0.03)">
       <defs>
        <path id="Helvetica-32" d="M 200 0 
Q 231 578 439 1006 
Q 647 1434 1250 1784 
L 1850 2131 
Q 2253 2366 2416 2531 
Q 2672 2791 2672 3125 
Q 2672 3516 2437 3745 
Q 2203 3975 1813 3975 
Q 1234 3975 1013 3538 
Q 894 3303 881 2888 
L 309 2888 
Q 319 3472 525 3841 
Q 891 4491 1816 4491 
Q 2584 4491 2939 4075 
Q 3294 3659 3294 3150 
Q 3294 2613 2916 2231 
Q 2697 2009 2131 1694 
L 1703 1456 
Q 1397 1288 1222 1134 
Q 909 863 828 531 
L 3272 531 
L 3272 0 
L 200 0 
z
" transform="scale(0.015625)"/>
       </defs>
       <use xlink:href="#Helvetica-32"/>
       <use xlink:href="#Helvetica-30" x="55.615234"/>
      </g>
     </g>
    </g>
    <g id="ytick_3">
     <g id="line2d_3">
      <g>
       <use xlink:href="#mce991f9878" x="10.005084" y="45.485097" style="fill: #777777; stroke: #777777; stroke-width: 0.5"/>
      </g>
     </g>
     <g id="text_5">
      <!-- 40 -->
      <g style="fill: #333333" transform="translate(4.668521 46.561113) scale(0.03 -0.03)">
       <defs>
        <path id="Helvetica-34" d="M 2116 1584 
L 2116 3613 
L 681 1584 
L 2116 1584 
z
M 2125 0 
L 2125 1094 
L 163 1094 
L 163 1644 
L 2213 4488 
L 2688 4488 
L 2688 1584 
L 3347 1584 
L 3347 1094 
L 2688 1094 
L 2688 0 
L 2125 0 
z
" transform="scale(0.015625)"/>
       </defs>
       <use xlink:href="#Helvetica-34"/>
       <use xlink:href="#Helvetica-30" x="55.615234"/>
      </g>
     </g>
    </g>
    <g id="ytick_4">
     <g id="line2d_4">
      <g>
       <use xlink:href="#mce991f9878" x="10.005084" y="35.132887" style="fill: #777777; stroke: #777777; stroke-width: 0.5"/>
      </g>
     </g>
     <g id="text_6">
      <!-- 60 -->
      <g style="fill: #333333" transform="translate(4.668521 36.208903) scale(0.03 -0.03)">
       <defs>
        <path id="Helvetica-36" d="M 1872 4494 
Q 2622 4494 2917 4105 
Q 3213 3716 3213 3303 
L 2656 3303 
Q 2606 3569 2497 3719 
Q 2294 4000 1881 4000 
Q 1409 4000 1131 3564 
Q 853 3128 822 2316 
Q 1016 2600 1309 2741 
Q 1578 2866 1909 2866 
Q 2472 2866 2890 2506 
Q 3309 2147 3309 1434 
Q 3309 825 2912 354 
Q 2516 -116 1781 -116 
Q 1153 -116 697 361 
Q 241 838 241 1966 
Q 241 2800 444 3381 
Q 834 4494 1872 4494 
z
M 1831 384 
Q 2275 384 2495 682 
Q 2716 981 2716 1388 
Q 2716 1731 2519 2042 
Q 2322 2353 1803 2353 
Q 1441 2353 1167 2112 
Q 894 1872 894 1388 
Q 894 963 1142 673 
Q 1391 384 1831 384 
z
" transform="scale(0.015625)"/>
       </defs>
       <use xlink:href="#Helvetica-36"/>
       <use xlink:href="#Helvetica-30" x="55.615234"/>
      </g>
     </g>
    </g>
    <g id="ytick_5">
     <g id="line2d_5">
      <g>
       <use xlink:href="#mce991f9878" x="10.005084" y="24.780677" style="fill: #777777; stroke: #777777; stroke-width: 0.5"/>
      </g>
     </g>
     <g id="text_7">
      <!-- 80 -->
      <g style="fill: #333333" transform="translate(4.668521 25.856692) scale(0.03 -0.03)">
       <defs>
        <path id="Helvetica-38" d="M 1741 2600 
Q 2113 2600 2322 2808 
Q 2531 3016 2531 3303 
Q 2531 3553 2331 3762 
Q 2131 3972 1722 3972 
Q 1316 3972 1134 3762 
Q 953 3553 953 3272 
Q 953 2956 1187 2778 
Q 1422 2600 1741 2600 
z
M 1775 384 
Q 2166 384 2423 595 
Q 2681 806 2681 1225 
Q 2681 1659 2415 1884 
Q 2150 2109 1734 2109 
Q 1331 2109 1076 1879 
Q 822 1650 822 1244 
Q 822 894 1055 639 
Q 1288 384 1775 384 
z
M 975 2384 
Q 741 2484 609 2619 
Q 363 2869 363 3269 
Q 363 3769 725 4128 
Q 1088 4488 1753 4488 
Q 2397 4488 2762 4148 
Q 3128 3809 3128 3356 
Q 3128 2938 2916 2678 
Q 2797 2531 2547 2391 
Q 2825 2263 2984 2097 
Q 3281 1784 3281 1284 
Q 3281 694 2884 283 
Q 2488 -128 1763 -128 
Q 1109 -128 657 226 
Q 206 581 206 1256 
Q 206 1653 400 1942 
Q 594 2231 975 2384 
z
" transform="scale(0.015625)"/>
       </defs>
       <use xlink:href="#Helvetica-38"/>
       <use xlink:href="#Helvetica-30" x="55.615234"/>
      </g>
     </g>
    </g>
    <g id="ytick_6">
     <g id="line2d_6">
      <g>
       <use xlink:href="#mce991f9878" x="10.005084" y="14.428466" style="fill: #777777; stroke: #777777; stroke-width: 0.5"/>
      </g>
     </g>
     <g id="text_8">
      <!-- 100 -->
      <g style="fill: #333333" transform="translate(3.00024 15.504482) scale(0.03 -0.03)">
       <defs>
        <path id="Helvetica-31" d="M 613 3169 
L 613 3600 
Q 1222 3659 1462 3798 
Q 1703 3938 1822 4456 
L 2266 4456 
L 2266 0 
L 1666 0 
L 1666 3169 
L 613 3169 
z
" transform="scale(0.015625)"/>
       </defs>
       <use xlink:href="#Helvetica-31"/>
       <use xlink:href="#Helvetica-30" x="55.615234"/>
       <use xlink:href="#Helvetica-30" x="111.230469"/>
      </g>
     </g>
    </g>
    <g id="ytick_7">
     <g id="line2d_7">
      <g>
       <use xlink:href="#mce991f9878" x="10.005084" y="4.076256" style="fill: #777777; stroke: #777777; stroke-width: 0.5"/>
      </g>
     </g>
     <g id="text_9">
      <!-- 120 -->
      <g style="fill: #333333" transform="translate(3.00024 5.152271) scale(0.03 -0.03)">
       <use xlink:href="#Helvetica-31"/>
       <use xlink:href="#Helvetica-32" x="55.615234"/>
       <use xlink:href="#Helvetica-30" x="111.230469"/>
      </g>
     </g>
    </g>
   </g>
   <g id="PolyCollection_1">
    <defs>
     <path id="m4a63947450" d="M 21.641264 -18.825361 
L 19.946241 -18.825361 
L 19.772637 -18.836666 
L 19.576491 -18.84797 
L 19.357477 -18.859275 
L 19.115673 -18.87058 
L 18.851543 -18.881884 
L 18.565914 -18.893189 
L 18.259927 -18.904494 
L 17.934992 -18.915798 
L 17.592747 -18.927103 
L 17.235037 -18.938408 
L 16.863906 -18.949713 
L 16.481632 -18.961017 
L 16.090775 -18.972322 
L 15.694259 -18.983627 
L 15.295449 -18.994931 
L 14.898233 -19.006236 
L 14.507073 -19.017541 
L 14.127011 -19.028845 
L 13.763628 -19.04015 
L 13.422926 -19.051455 
L 13.111152 -19.062759 
L 12.834565 -19.074064 
L 12.599148 -19.085369 
L 12.410314 -19.096673 
L 12.272605 -19.107978 
L 12.189423 -19.119283 
L 12.162818 -19.130587 
L 12.193342 -19.141892 
L 12.279995 -19.153197 
L 12.420245 -19.164502 
L 12.610139 -19.175806 
L 12.84448 -19.187111 
L 13.117053 -19.198416 
L 13.420888 -19.20972 
L 13.74854 -19.221025 
L 14.092366 -19.23233 
L 14.444794 -19.243634 
L 14.798567 -19.254939 
L 15.14697 -19.266244 
L 15.484025 -19.277548 
L 15.804657 -19.288853 
L 16.10484 -19.300158 
L 16.381698 -19.311462 
L 16.633573 -19.322767 
L 16.860049 -19.334072 
L 17.061918 -19.345376 
L 17.241094 -19.356681 
L 17.40046 -19.367986 
L 17.543664 -19.37929 
L 17.674861 -19.390595 
L 17.798422 -19.4019 
L 17.918636 -19.413205 
L 18.039409 -19.424509 
L 18.164001 -19.435814 
L 18.294816 -19.447119 
L 18.433261 -19.458423 
L 18.579681 -19.469728 
L 18.733375 -19.481033 
L 18.892688 -19.492337 
L 19.055158 -19.503642 
L 19.217716 -19.514947 
L 19.376896 -19.526251 
L 19.529057 -19.537556 
L 19.670584 -19.548861 
L 19.798069 -19.560165 
L 19.908445 -19.57147 
L 19.9991 -19.582775 
L 20.067937 -19.594079 
L 20.11343 -19.605384 
L 20.134644 -19.616689 
L 20.131254 -19.627994 
L 20.103564 -19.639298 
L 20.052517 -19.650603 
L 19.979714 -19.661908 
L 19.887423 -19.673212 
L 19.778577 -19.684517 
L 19.656746 -19.695822 
L 19.526084 -19.707126 
L 19.391231 -19.718431 
L 19.257174 -19.729736 
L 19.129066 -19.74104 
L 19.01201 -19.752345 
L 18.910819 -19.76365 
L 18.829775 -19.774954 
L 18.772393 -19.786259 
L 18.741229 -19.797564 
L 18.737737 -19.808868 
L 18.762187 -19.820173 
L 18.813668 -19.831478 
L 18.890161 -19.842782 
L 18.988685 -19.854087 
L 19.105495 -19.865392 
L 19.236331 -19.876697 
L 19.376673 -19.888001 
L 19.522003 -19.899306 
L 19.66804 -19.910611 
L 19.810938 -19.921915 
L 19.947435 -19.93322 
L 20.074945 -19.944525 
L 21.512561 -19.944525 
L 21.512561 -19.944525 
L 21.640071 -19.93322 
L 21.776568 -19.921915 
L 21.919466 -19.910611 
L 22.065503 -19.899306 
L 22.210833 -19.888001 
L 22.351175 -19.876697 
L 22.482011 -19.865392 
L 22.598821 -19.854087 
L 22.697344 -19.842782 
L 22.773838 -19.831478 
L 22.825319 -19.820173 
L 22.849769 -19.808868 
L 22.846276 -19.797564 
L 22.815113 -19.786259 
L 22.757731 -19.774954 
L 22.676686 -19.76365 
L 22.575495 -19.752345 
L 22.458439 -19.74104 
L 22.330331 -19.729736 
L 22.196274 -19.718431 
L 22.061421 -19.707126 
L 21.93076 -19.695822 
L 21.808929 -19.684517 
L 21.700082 -19.673212 
L 21.607792 -19.661908 
L 21.534989 -19.650603 
L 21.483942 -19.639298 
L 21.456251 -19.627994 
L 21.452862 -19.616689 
L 21.474075 -19.605384 
L 21.519568 -19.594079 
L 21.588406 -19.582775 
L 21.67906 -19.57147 
L 21.789437 -19.560165 
L 21.916921 -19.548861 
L 22.058449 -19.537556 
L 22.210609 -19.526251 
L 22.369789 -19.514947 
L 22.532347 -19.503642 
L 22.694818 -19.492337 
L 22.854131 -19.481033 
L 23.007825 -19.469728 
L 23.154245 -19.458423 
L 23.29269 -19.447119 
L 23.423505 -19.435814 
L 23.548097 -19.424509 
L 23.668869 -19.413205 
L 23.789083 -19.4019 
L 23.912645 -19.390595 
L 24.043841 -19.37929 
L 24.187045 -19.367986 
L 24.346412 -19.356681 
L 24.525588 -19.345376 
L 24.727457 -19.334072 
L 24.953933 -19.322767 
L 25.205808 -19.311462 
L 25.482665 -19.300158 
L 25.782848 -19.288853 
L 26.103481 -19.277548 
L 26.440535 -19.266244 
L 26.788938 -19.254939 
L 27.142712 -19.243634 
L 27.495139 -19.23233 
L 27.838966 -19.221025 
L 28.166618 -19.20972 
L 28.470453 -19.198416 
L 28.743025 -19.187111 
L 28.977366 -19.175806 
L 29.167261 -19.164502 
L 29.307511 -19.153197 
L 29.394163 -19.141892 
L 29.424688 -19.130587 
L 29.398083 -19.119283 
L 29.314901 -19.107978 
L 29.177192 -19.096673 
L 28.988358 -19.085369 
L 28.752941 -19.074064 
L 28.476353 -19.062759 
L 28.16458 -19.051455 
L 27.823878 -19.04015 
L 27.460495 -19.028845 
L 27.080433 -19.017541 
L 26.689273 -19.006236 
L 26.292057 -18.994931 
L 25.893247 -18.983627 
L 25.49673 -18.972322 
L 25.105874 -18.961017 
L 24.723599 -18.949713 
L 24.352469 -18.938408 
L 23.994758 -18.927103 
L 23.652514 -18.915798 
L 23.327579 -18.904494 
L 23.021591 -18.893189 
L 22.735962 -18.881884 
L 22.471833 -18.87058 
L 22.230029 -18.859275 
L 22.011015 -18.84797 
L 21.814868 -18.836666 
L 21.641264 -18.825361 
z
" style="stroke: #6f6f6f; stroke-width: 0.15"/>
    </defs>
    <g clip-path="url(#p9d0e8489b1)">
     <use xlink:href="#m4a63947450" x="0" y="84.96" style="fill: #f2aba8; stroke: #6f6f6f; stroke-width: 0.15"/>
    </g>
   </g>
   <g id="PolyCollection_2">
    <defs>
     <path id="m37c466f3b1" d="M 43.843115 -18.554817 
L 40.899067 -18.554817 
L 40.591486 -18.59182 
L 40.243705 -18.628824 
L 39.856247 -18.665827 
L 39.431089 -18.702831 
L 38.971808 -18.739834 
L 38.483648 -18.776838 
L 37.973511 -18.813842 
L 37.449841 -18.850845 
L 36.922411 -18.887849 
L 36.402011 -18.924852 
L 35.900053 -18.961856 
L 35.428098 -18.998859 
L 34.997358 -19.035863 
L 34.618175 -19.072866 
L 34.299527 -19.10987 
L 34.048593 -19.146873 
L 33.870393 -19.183877 
L 33.767549 -19.220881 
L 33.740156 -19.257884 
L 33.785788 -19.294888 
L 33.89964 -19.331891 
L 34.074772 -19.368895 
L 34.302465 -19.405898 
L 34.572648 -19.442902 
L 34.874382 -19.479905 
L 35.196358 -19.516909 
L 35.527401 -19.553912 
L 35.856943 -19.590916 
L 36.175452 -19.62792 
L 36.474791 -19.664923 
L 36.748502 -19.701927 
L 36.992001 -19.73893 
L 37.202682 -19.775934 
L 37.379919 -19.812937 
L 37.524984 -19.849941 
L 37.640872 -19.886944 
L 37.732044 -19.923948 
L 37.804117 -19.960951 
L 37.863497 -19.997955 
L 37.916981 -20.034959 
L 37.971365 -20.071962 
L 38.033056 -20.108966 
L 38.107724 -20.145969 
L 38.200015 -20.182973 
L 38.313331 -20.219976 
L 38.449698 -20.25698 
L 38.609719 -20.293983 
L 38.79261 -20.330987 
L 38.996327 -20.36799 
L 39.217746 -20.404994 
L 39.452902 -20.441998 
L 39.697251 -20.479001 
L 39.945951 -20.516005 
L 40.194123 -20.553008 
L 40.43709 -20.590012 
L 40.670578 -20.627015 
L 40.890858 -20.664019 
L 41.094846 -20.701022 
L 41.280136 -20.738026 
L 41.444993 -20.77503 
L 41.588298 -20.812033 
L 41.709471 -20.849037 
L 41.808363 -20.88604 
L 41.885155 -20.923044 
L 41.940256 -20.960047 
L 41.974216 -20.997051 
L 41.987666 -21.034054 
L 41.981288 -21.071058 
L 41.95581 -21.108061 
L 41.912033 -21.145065 
L 41.850889 -21.182069 
L 41.773501 -21.219072 
L 41.681269 -21.256076 
L 41.575938 -21.293079 
L 41.459661 -21.330083 
L 41.335033 -21.367086 
L 41.205092 -21.40409 
L 41.073285 -21.441093 
L 40.94338 -21.478097 
L 40.819349 -21.5151 
L 40.705212 -21.552104 
L 40.604853 -21.589108 
L 40.521829 -21.626111 
L 40.459179 -21.663115 
L 40.419254 -21.700118 
L 40.403581 -21.737122 
L 40.412776 -21.774125 
L 40.446504 -21.811129 
L 40.503508 -21.848132 
L 40.581687 -21.885136 
L 40.678226 -21.922139 
L 40.789766 -21.959143 
L 40.912596 -21.996147 
L 41.042861 -22.03315 
L 41.176756 -22.070154 
L 41.310706 -22.107157 
L 41.441514 -22.144161 
L 41.56647 -22.181164 
L 41.683418 -22.218168 
L 43.058764 -22.218168 
L 43.058764 -22.218168 
L 43.175712 -22.181164 
L 43.300668 -22.144161 
L 43.431476 -22.107157 
L 43.565426 -22.070154 
L 43.699321 -22.03315 
L 43.829586 -21.996147 
L 43.952416 -21.959143 
L 44.063956 -21.922139 
L 44.160494 -21.885136 
L 44.238674 -21.848132 
L 44.295678 -21.811129 
L 44.329406 -21.774125 
L 44.338601 -21.737122 
L 44.322928 -21.700118 
L 44.283003 -21.663115 
L 44.220353 -21.626111 
L 44.137329 -21.589108 
L 44.03697 -21.552104 
L 43.922833 -21.5151 
L 43.798802 -21.478097 
L 43.668897 -21.441093 
L 43.537089 -21.40409 
L 43.407149 -21.367086 
L 43.282521 -21.330083 
L 43.166244 -21.293079 
L 43.060913 -21.256076 
L 42.968681 -21.219072 
L 42.891293 -21.182069 
L 42.830148 -21.145065 
L 42.786372 -21.108061 
L 42.760893 -21.071058 
L 42.754515 -21.034054 
L 42.767966 -20.997051 
L 42.801926 -20.960047 
L 42.857027 -20.923044 
L 42.933819 -20.88604 
L 43.032711 -20.849037 
L 43.153883 -20.812033 
L 43.297189 -20.77503 
L 43.462045 -20.738026 
L 43.647336 -20.701022 
L 43.851324 -20.664019 
L 44.071604 -20.627015 
L 44.305092 -20.590012 
L 44.548059 -20.553008 
L 44.796231 -20.516005 
L 45.044931 -20.479001 
L 45.28928 -20.441998 
L 45.524436 -20.404994 
L 45.745855 -20.36799 
L 45.949572 -20.330987 
L 46.132463 -20.293983 
L 46.292483 -20.25698 
L 46.428851 -20.219976 
L 46.542167 -20.182973 
L 46.634458 -20.145969 
L 46.709126 -20.108966 
L 46.770817 -20.071962 
L 46.825201 -20.034959 
L 46.878685 -19.997955 
L 46.938065 -19.960951 
L 47.010138 -19.923948 
L 47.10131 -19.886944 
L 47.217198 -19.849941 
L 47.362263 -19.812937 
L 47.5395 -19.775934 
L 47.750181 -19.73893 
L 47.99368 -19.701927 
L 48.267391 -19.664923 
L 48.56673 -19.62792 
L 48.885239 -19.590916 
L 49.214781 -19.553912 
L 49.545824 -19.516909 
L 49.8678 -19.479905 
L 50.169534 -19.442902 
L 50.439717 -19.405898 
L 50.66741 -19.368895 
L 50.842542 -19.331891 
L 50.956393 -19.294888 
L 51.002026 -19.257884 
L 50.974632 -19.220881 
L 50.871788 -19.183877 
L 50.693589 -19.146873 
L 50.442654 -19.10987 
L 50.124007 -19.072866 
L 49.744823 -19.035863 
L 49.314084 -18.998859 
L 48.842129 -18.961856 
L 48.34017 -18.924852 
L 47.819771 -18.887849 
L 47.292341 -18.850845 
L 46.768671 -18.813842 
L 46.258534 -18.776838 
L 45.770374 -18.739834 
L 45.311093 -18.702831 
L 44.885935 -18.665827 
L 44.498477 -18.628824 
L 44.150696 -18.59182 
L 43.843115 -18.554817 
z
" style="stroke: #6f6f6f; stroke-width: 0.15"/>
    </defs>
    <g clip-path="url(#p9d0e8489b1)">
     <use xlink:href="#m37c466f3b1" x="0" y="84.96" style="fill: #d3c4f6; stroke: #6f6f6f; stroke-width: 0.15"/>
    </g>
   </g>
   <g id="line2d_8">
    <path d="M 20.793753 65.994981 
L 20.793753 65.524459 
" clip-path="url(#p9d0e8489b1)" style="fill: none; stroke: #8c8c8c; stroke-width: 0.75; stroke-linecap: round"/>
   </g>
   <g id="line2d_9">
    <path d="M 20.793753 65.858612 
L 20.793753 65.648293 
" clip-path="url(#p9d0e8489b1)" style="fill: none; stroke: #8c8c8c; stroke-width: 4; stroke-linecap: round"/>
   </g>
   <g id="line2d_10">
    <path d="M 20.793753 65.797236 
" clip-path="url(#p9d0e8489b1)" style="fill: none; stroke: #6f6f6f; stroke-width: 1.2; stroke-linecap: round"/>
    <defs>
     <path id="m9a49958180" d="M 0 0.833333 
C 0.221003 0.833333 0.432983 0.745528 0.589256 0.589256 
C 0.745528 0.432983 0.833333 0.221003 0.833333 0 
C 0.833333 -0.221003 0.745528 -0.432983 0.589256 -0.589256 
C 0.432983 -0.745528 0.221003 -0.833333 0 -0.833333 
C -0.221003 -0.833333 -0.432983 -0.745528 -0.589256 -0.589256 
C -0.745528 -0.432983 -0.833333 -0.221003 -0.833333 0 
C -0.833333 0.221003 -0.745528 0.432983 -0.589256 0.589256 
C -0.432983 0.745528 -0.221003 0.833333 0 0.833333 
z
" style="stroke: #ffffff; stroke-width: 0.8"/>
    </defs>
    <g clip-path="url(#p9d0e8489b1)">
     <use xlink:href="#m9a49958180" x="20.793753" y="65.797236" style="fill: #ffffff; stroke: #ffffff; stroke-width: 0.8"/>
    </g>
   </g>
   <g id="line2d_11">
    <path d="M 42.371091 65.929075 
L 42.371091 64.658506 
" clip-path="url(#p9d0e8489b1)" style="fill: none; stroke: #8c8c8c; stroke-width: 0.75; stroke-linecap: round"/>
   </g>
   <g id="line2d_12">
    <path d="M 42.371091 65.7277 
L 42.371091 64.828707 
" clip-path="url(#p9d0e8489b1)" style="fill: none; stroke: #8c8c8c; stroke-width: 4; stroke-linecap: round"/>
   </g>
   <g id="line2d_13">
    <path d="M 42.371091 65.526835 
" clip-path="url(#p9d0e8489b1)" style="fill: none; stroke: #6f6f6f; stroke-width: 1.2; stroke-linecap: round"/>
    <g clip-path="url(#p9d0e8489b1)">
     <use xlink:href="#m9a49958180" x="42.371091" y="65.526835" style="fill: #ffffff; stroke: #ffffff; stroke-width: 0.8"/>
    </g>
   </g>
   <g id="patch_3">
    <path d="M 10.005084 74.419526 
L 10.005084 4.076256 
" style="fill: none; stroke: #777777; stroke-width: 0.5; stroke-linejoin: miter; stroke-linecap: square"/>
   </g>
   <g id="patch_4">
    <path d="M 10.005084 76.919526 
L 53.15976 76.919526 
" style="fill: none; stroke: #777777; stroke-width: 0.5; stroke-linejoin: miter; stroke-linecap: square"/>
   </g>
  </g>
 </g>
 <defs>
  <clipPath id="p9d0e8489b1">
   <rect x="10.005084" y="4.076256" width="43.154676" height="70.34327"/>
  </clipPath>
 </defs>
</svg>
