<?xml version="1.0" encoding="utf-8" standalone="no"?>
<!DOCTYPE svg PUBLIC "-//W3C//DTD SVG 1.1//EN"
  "http://www.w3.org/Graphics/SVG/1.1/DTD/svg11.dtd">
<svg xmlns:xlink="http://www.w3.org/1999/xlink" width="141.12pt" height="84.96pt" viewBox="0 0 141.12 84.96" xmlns="http://www.w3.org/2000/svg" version="1.1">
 <metadata>
  <rdf:RDF xmlns:dc="http://purl.org/dc/elements/1.1/" xmlns:cc="http://creativecommons.org/ns#" xmlns:rdf="http://www.w3.org/1999/02/22-rdf-syntax-ns#">
   <cc:Work>
    <dc:type rdf:resource="http://purl.org/dc/dcmitype/StillImage"/>
    <dc:date>2024-05-27T15:37:17.770989</dc:date>
    <dc:format>image/svg+xml</dc:format>
    <dc:creator>
     <cc:Agent>
      <dc:title>Matplotlib v3.8.3, https://matplotlib.org/</dc:title>
     </cc:Agent>
    </dc:creator>
   </cc:Work>
  </rdf:RDF>
 </metadata>
 <defs>
  <style type="text/css">*{stroke-linejoin: round; stroke-linecap: butt}</style>
 </defs>
 <g id="figure_1">
  <g id="patch_1">
   <path d="M 0 84.96 
L 141.12 84.96 
L 141.12 0 
L 0 0 
z
" style="fill: #ffffff"/>
  </g>
  <g id="axes_1">
   <g id="patch_2">
    <path d="M 8.336802 74.393822 
L 138.11976 74.393822 
L 138.11976 4.076256 
L 8.336802 4.076256 
z
" style="fill: #ffffff"/>
   </g>
   <g id="matplotlib.axis_1">
    <g id="xtick_1">
     <g id="text_1">
      <!-- NK/ILC1ie -->
      <g style="fill: #333333" transform="translate(13.339473 81.204526) scale(0.035 -0.035)">
       <defs>
        <path id="Helvetica-4e" d="M 488 4591 
L 1222 4591 
L 3541 872 
L 3541 4591 
L 4131 4591 
L 4131 0 
L 3434 0 
L 1081 3716 
L 1081 0 
L 488 0 
L 488 4591 
z
M 2269 4591 
L 2269 4591 
z
" transform="scale(0.015625)"/>
        <path id="Helvetica-4b" d="M 488 4591 
L 1094 4591 
L 1094 2353 
L 3331 4591 
L 4191 4591 
L 2281 2741 
L 4244 0 
L 3434 0 
L 1828 2303 
L 1094 1600 
L 1094 0 
L 488 0 
L 488 4591 
z
" transform="scale(0.015625)"/>
        <path id="Helvetica-2f" d="M 1456 4591 
L 1931 4591 
L 475 0 
L 0 0 
L 1456 4591 
z
" transform="scale(0.015625)"/>
        <path id="Helvetica-49" d="M 628 4591 
L 1256 4591 
L 1256 0 
L 628 0 
L 628 4591 
z
" transform="scale(0.015625)"/>
        <path id="Helvetica-4c" d="M 488 4591 
L 1109 4591 
L 1109 547 
L 3434 547 
L 3434 0 
L 488 0 
L 488 4591 
z
" transform="scale(0.015625)"/>
        <path id="Helvetica-43" d="M 2422 4716 
Q 3294 4716 3775 4256 
Q 4256 3797 4309 3213 
L 3703 3213 
Q 3600 3656 3292 3915 
Q 2984 4175 2428 4175 
Q 1750 4175 1333 3698 
Q 916 3222 916 2238 
Q 916 1431 1292 929 
Q 1669 428 2416 428 
Q 3103 428 3463 956 
Q 3653 1234 3747 1688 
L 4353 1688 
Q 4272 963 3816 472 
Q 3269 -119 2341 -119 
Q 1541 -119 997 366 
Q 281 1006 281 2344 
Q 281 3359 819 4009 
Q 1400 4716 2422 4716 
z
M 2297 4716 
L 2297 4716 
z
" transform="scale(0.015625)"/>
        <path id="Helvetica-31" d="M 613 3169 
L 613 3600 
Q 1222 3659 1462 3798 
Q 1703 3938 1822 4456 
L 2266 4456 
L 2266 0 
L 1666 0 
L 1666 3169 
L 613 3169 
z
" transform="scale(0.015625)"/>
        <path id="Helvetica-69" d="M 413 3331 
L 984 3331 
L 984 0 
L 413 0 
L 413 3331 
z
M 413 4591 
L 984 4591 
L 984 3953 
L 413 3953 
L 413 4591 
z
" transform="scale(0.015625)"/>
        <path id="Helvetica-65" d="M 1806 3422 
Q 2163 3422 2497 3255 
Q 2831 3088 3006 2822 
Q 3175 2569 3231 2231 
Q 3281 2000 3281 1494 
L 828 1494 
Q 844 984 1069 676 
Q 1294 369 1766 369 
Q 2206 369 2469 659 
Q 2619 828 2681 1050 
L 3234 1050 
Q 3213 866 3089 639 
Q 2966 413 2813 269 
Q 2556 19 2178 -69 
Q 1975 -119 1719 -119 
Q 1094 -119 659 336 
Q 225 791 225 1609 
Q 225 2416 662 2919 
Q 1100 3422 1806 3422 
z
M 2703 1941 
Q 2669 2306 2544 2525 
Q 2313 2931 1772 2931 
Q 1384 2931 1121 2651 
Q 859 2372 844 1941 
L 2703 1941 
z
M 1753 3428 
L 1753 3428 
z
" transform="scale(0.015625)"/>
       </defs>
       <use xlink:href="#Helvetica-4e"/>
       <use xlink:href="#Helvetica-4b" x="72.216797"/>
       <use xlink:href="#Helvetica-2f" x="138.916016"/>
       <use xlink:href="#Helvetica-49" x="166.699219"/>
       <use xlink:href="#Helvetica-4c" x="194.482422"/>
       <use xlink:href="#Helvetica-43" x="250.097656"/>
       <use xlink:href="#Helvetica-31" x="322.314453"/>
       <use xlink:href="#Helvetica-69" x="377.929688"/>
       <use xlink:href="#Helvetica-65" x="400.146484"/>
      </g>
     </g>
    </g>
    <g id="xtick_2">
     <g id="text_2">
      <!-- ILC1 -->
      <g style="fill: #333333" transform="translate(43.575362 81.204526) scale(0.035 -0.035)">
       <use xlink:href="#Helvetica-49"/>
       <use xlink:href="#Helvetica-4c" x="27.783203"/>
       <use xlink:href="#Helvetica-43" x="83.398438"/>
       <use xlink:href="#Helvetica-31" x="155.615234"/>
      </g>
     </g>
    </g>
    <g id="xtick_3">
     <g id="text_3">
      <!-- TH1 (TdT–) -->
      <g style="fill: #333333" transform="translate(64.186797 81.230229) scale(0.035 -0.035)">
       <defs>
        <path id="Helvetica-54" d="M 3828 4591 
L 3828 4044 
L 2281 4044 
L 2281 0 
L 1650 0 
L 1650 4044 
L 103 4044 
L 103 4591 
L 3828 4591 
z
" transform="scale(0.015625)"/>
        <path id="Helvetica-48" d="M 503 4591 
L 1131 4591 
L 1131 2694 
L 3519 2694 
L 3519 4591 
L 4147 4591 
L 4147 0 
L 3519 0 
L 3519 2147 
L 1131 2147 
L 1131 0 
L 503 0 
L 503 4591 
z
" transform="scale(0.015625)"/>
        <path id="Helvetica-20" transform="scale(0.015625)"/>
        <path id="Helvetica-28" d="M 1894 4666 
Q 1403 3713 1256 3263 
Q 1034 2578 1034 1681 
Q 1034 775 1288 25 
Q 1444 -438 1903 -1306 
L 1525 -1306 
Q 1069 -594 959 -397 
Q 850 -200 722 138 
Q 547 600 478 1125 
Q 444 1397 444 1644 
Q 444 2569 734 3291 
Q 919 3750 1503 4666 
L 1894 4666 
z
" transform="scale(0.015625)"/>
        <path id="Helvetica-64" d="M 769 1634 
Q 769 1097 997 734 
Q 1225 372 1728 372 
Q 2119 372 2370 708 
Q 2622 1044 2622 1672 
Q 2622 2306 2362 2611 
Q 2103 2916 1722 2916 
Q 1297 2916 1033 2591 
Q 769 2266 769 1634 
z
M 1616 3406 
Q 2000 3406 2259 3244 
Q 2409 3150 2600 2916 
L 2600 4606 
L 3141 4606 
L 3141 0 
L 2634 0 
L 2634 466 
Q 2438 156 2169 18 
Q 1900 -119 1553 -119 
Q 994 -119 584 351 
Q 175 822 175 1603 
Q 175 2334 548 2870 
Q 922 3406 1616 3406 
z
" transform="scale(0.015625)"/>
        <path id="Helvetica-2013" d="M -16 2000 
L 3569 2000 
L 3569 1541 
L -16 1541 
L -16 2000 
z
" transform="scale(0.015625)"/>
        <path id="Helvetica-29" d="M 222 -1306 
Q 719 -338 863 106 
Q 1081 778 1081 1681 
Q 1081 2584 828 3334 
Q 672 3797 213 4666 
L 591 4666 
Q 1072 3897 1173 3717 
Q 1275 3538 1394 3222 
Q 1544 2831 1608 2450 
Q 1672 2069 1672 1716 
Q 1672 791 1378 66 
Q 1194 -400 613 -1306 
L 222 -1306 
z
" transform="scale(0.015625)"/>
       </defs>
       <use xlink:href="#Helvetica-54"/>
       <use xlink:href="#Helvetica-48" x="61.083984"/>
       <use xlink:href="#Helvetica-31" x="133.300781"/>
       <use xlink:href="#Helvetica-20" x="188.916016"/>
       <use xlink:href="#Helvetica-28" x="216.699219"/>
       <use xlink:href="#Helvetica-54" x="250"/>
       <use xlink:href="#Helvetica-64" x="311.083984"/>
       <use xlink:href="#Helvetica-54" x="366.699219"/>
       <use xlink:href="#Helvetica-2013" x="427.783203"/>
       <use xlink:href="#Helvetica-29" x="483.398438"/>
      </g>
     </g>
    </g>
    <g id="xtick_4">
     <g id="text_4">
      <!-- TH1 (TdT+) -->
      <g style="fill: #333333" transform="translate(90.094443 81.230229) scale(0.035 -0.035)">
       <defs>
        <path id="Helvetica-2b" d="M 288 1369 
L 288 1894 
L 1650 1894 
L 1650 3266 
L 2184 3266 
L 2184 1894 
L 3547 1894 
L 3547 1369 
L 2184 1369 
L 2184 0 
L 1650 0 
L 1650 1369 
L 288 1369 
z
" transform="scale(0.015625)"/>
       </defs>
       <use xlink:href="#Helvetica-54"/>
       <use xlink:href="#Helvetica-48" x="61.083984"/>
       <use xlink:href="#Helvetica-31" x="133.300781"/>
       <use xlink:href="#Helvetica-20" x="188.916016"/>
       <use xlink:href="#Helvetica-28" x="216.699219"/>
       <use xlink:href="#Helvetica-54" x="250"/>
       <use xlink:href="#Helvetica-64" x="311.083984"/>
       <use xlink:href="#Helvetica-54" x="366.699219"/>
       <use xlink:href="#Helvetica-2b" x="427.783203"/>
       <use xlink:href="#Helvetica-29" x="486.181641"/>
      </g>
     </g>
    </g>
    <g id="xtick_5">
     <g id="text_5">
      <!-- Immature TH1 -->
      <g style="fill: #333333" transform="translate(113.959511 81.204526) scale(0.035 -0.035)">
       <defs>
        <path id="Helvetica-6d" d="M 413 3347 
L 969 3347 
L 969 2872 
Q 1169 3119 1331 3231 
Q 1609 3422 1963 3422 
Q 2363 3422 2606 3225 
Q 2744 3113 2856 2894 
Q 3044 3163 3297 3292 
Q 3550 3422 3866 3422 
Q 4541 3422 4784 2934 
Q 4916 2672 4916 2228 
L 4916 0 
L 4331 0 
L 4331 2325 
Q 4331 2659 4164 2784 
Q 3997 2909 3756 2909 
Q 3425 2909 3186 2687 
Q 2947 2466 2947 1947 
L 2947 0 
L 2375 0 
L 2375 2184 
Q 2375 2525 2294 2681 
Q 2166 2916 1816 2916 
Q 1497 2916 1236 2669 
Q 975 2422 975 1775 
L 975 0 
L 413 0 
L 413 3347 
z
" transform="scale(0.015625)"/>
        <path id="Helvetica-61" d="M 844 891 
Q 844 647 1022 506 
Q 1200 366 1444 366 
Q 1741 366 2019 503 
Q 2488 731 2488 1250 
L 2488 1703 
Q 2384 1638 2221 1594 
Q 2059 1550 1903 1531 
L 1563 1488 
Q 1256 1447 1103 1359 
Q 844 1213 844 891 
z
M 2206 2028 
Q 2400 2053 2466 2191 
Q 2503 2266 2503 2406 
Q 2503 2694 2298 2823 
Q 2094 2953 1713 2953 
Q 1272 2953 1088 2716 
Q 984 2584 953 2325 
L 428 2325 
Q 444 2944 830 3186 
Q 1216 3428 1725 3428 
Q 2316 3428 2684 3203 
Q 3050 2978 3050 2503 
L 3050 575 
Q 3050 488 3086 434 
Q 3122 381 3238 381 
Q 3275 381 3322 386 
Q 3369 391 3422 400 
L 3422 -16 
Q 3291 -53 3222 -62 
Q 3153 -72 3034 -72 
Q 2744 -72 2613 134 
Q 2544 244 2516 444 
Q 2344 219 2022 53 
Q 1700 -113 1313 -113 
Q 847 -113 551 170 
Q 256 453 256 878 
Q 256 1344 547 1600 
Q 838 1856 1309 1916 
L 2206 2028 
z
M 1741 3428 
L 1741 3428 
z
" transform="scale(0.015625)"/>
        <path id="Helvetica-74" d="M 525 4281 
L 1094 4281 
L 1094 3347 
L 1628 3347 
L 1628 2888 
L 1094 2888 
L 1094 703 
Q 1094 528 1213 469 
Q 1278 434 1431 434 
Q 1472 434 1519 436 
Q 1566 438 1628 444 
L 1628 0 
Q 1531 -28 1426 -40 
Q 1322 -53 1200 -53 
Q 806 -53 665 148 
Q 525 350 525 672 
L 525 2888 
L 72 2888 
L 72 3347 
L 525 3347 
L 525 4281 
z
" transform="scale(0.015625)"/>
        <path id="Helvetica-75" d="M 975 3347 
L 975 1125 
Q 975 869 1056 706 
Q 1206 406 1616 406 
Q 2203 406 2416 931 
Q 2531 1213 2531 1703 
L 2531 3347 
L 3094 3347 
L 3094 0 
L 2563 0 
L 2569 494 
Q 2459 303 2297 172 
Q 1975 -91 1516 -91 
Q 800 -91 541 388 
Q 400 644 400 1072 
L 400 3347 
L 975 3347 
z
M 1747 3428 
L 1747 3428 
z
" transform="scale(0.015625)"/>
        <path id="Helvetica-72" d="M 428 3347 
L 963 3347 
L 963 2769 
Q 1028 2938 1284 3180 
Q 1541 3422 1875 3422 
Q 1891 3422 1928 3419 
Q 1966 3416 2056 3406 
L 2056 2813 
Q 2006 2822 1964 2825 
Q 1922 2828 1872 2828 
Q 1447 2828 1219 2554 
Q 991 2281 991 1925 
L 991 0 
L 428 0 
L 428 3347 
z
" transform="scale(0.015625)"/>
       </defs>
       <use xlink:href="#Helvetica-49"/>
       <use xlink:href="#Helvetica-6d" x="27.783203"/>
       <use xlink:href="#Helvetica-6d" x="111.083984"/>
       <use xlink:href="#Helvetica-61" x="194.384766"/>
       <use xlink:href="#Helvetica-74" x="250"/>
       <use xlink:href="#Helvetica-75" x="277.783203"/>
       <use xlink:href="#Helvetica-72" x="333.398438"/>
       <use xlink:href="#Helvetica-65" x="366.699219"/>
       <use xlink:href="#Helvetica-20" x="422.314453"/>
       <use xlink:href="#Helvetica-54" x="450.097656"/>
       <use xlink:href="#Helvetica-48" x="511.181641"/>
       <use xlink:href="#Helvetica-31" x="583.398438"/>
      </g>
     </g>
    </g>
   </g>
   <g id="matplotlib.axis_2">
    <g id="ytick_1">
     <g id="line2d_1">
      <defs>
       <path id="me9e895ad0a" d="M 0 0 
L -1 0 
" style="stroke: #777777; stroke-width: 0.5"/>
      </defs>
      <g>
       <use xlink:href="#me9e895ad0a" x="8.336802" y="62.919408" style="fill: #777777; stroke: #777777; stroke-width: 0.5"/>
      </g>
     </g>
     <g id="text_6">
      <!-- 0 -->
      <g style="fill: #333333" transform="translate(4.668521 63.995423) scale(0.03 -0.03)">
       <defs>
        <path id="Helvetica-30" d="M 1731 4475 
Q 2600 4475 2988 3759 
Q 3288 3206 3288 2244 
Q 3288 1331 3016 734 
Q 2622 -122 1728 -122 
Q 922 -122 528 578 
Q 200 1163 200 2147 
Q 200 2909 397 3456 
Q 766 4475 1731 4475 
z
M 1725 391 
Q 2163 391 2422 778 
Q 2681 1166 2681 2222 
Q 2681 2984 2493 3476 
Q 2306 3969 1766 3969 
Q 1269 3969 1039 3501 
Q 809 3034 809 2125 
Q 809 1441 956 1025 
Q 1181 391 1725 391 
z
" transform="scale(0.015625)"/>
       </defs>
       <use xlink:href="#Helvetica-30"/>
      </g>
     </g>
    </g>
    <g id="ytick_2">
     <g id="line2d_2">
      <g>
       <use xlink:href="#me9e895ad0a" x="8.336802" y="48.20862" style="fill: #777777; stroke: #777777; stroke-width: 0.5"/>
      </g>
     </g>
     <g id="text_7">
      <!-- 5 -->
      <g style="fill: #333333" transform="translate(4.668521 49.284635) scale(0.03 -0.03)">
       <defs>
        <path id="Helvetica-35" d="M 791 1141 
Q 847 659 1238 475 
Q 1438 381 1700 381 
Q 2200 381 2440 700 
Q 2681 1019 2681 1406 
Q 2681 1875 2395 2131 
Q 2109 2388 1709 2388 
Q 1419 2388 1211 2275 
Q 1003 2163 856 1963 
L 369 1991 
L 709 4400 
L 3034 4400 
L 3034 3856 
L 1131 3856 
L 941 2613 
Q 1097 2731 1238 2791 
Q 1488 2894 1816 2894 
Q 2431 2894 2859 2497 
Q 3288 2100 3288 1491 
Q 3288 856 2895 371 
Q 2503 -113 1644 -113 
Q 1097 -113 676 195 
Q 256 503 206 1141 
L 791 1141 
z
" transform="scale(0.015625)"/>
       </defs>
       <use xlink:href="#Helvetica-35"/>
      </g>
     </g>
    </g>
    <g id="ytick_3">
     <g id="line2d_3">
      <g>
       <use xlink:href="#me9e895ad0a" x="8.336802" y="33.497832" style="fill: #777777; stroke: #777777; stroke-width: 0.5"/>
      </g>
     </g>
     <g id="text_8">
      <!-- 10 -->
      <g style="fill: #333333" transform="translate(3.00024 34.573847) scale(0.03 -0.03)">
       <use xlink:href="#Helvetica-31"/>
       <use xlink:href="#Helvetica-30" x="55.615234"/>
      </g>
     </g>
    </g>
    <g id="ytick_4">
     <g id="line2d_4">
      <g>
       <use xlink:href="#me9e895ad0a" x="8.336802" y="18.787044" style="fill: #777777; stroke: #777777; stroke-width: 0.5"/>
      </g>
     </g>
     <g id="text_9">
      <!-- 15 -->
      <g style="fill: #333333" transform="translate(3.00024 19.863059) scale(0.03 -0.03)">
       <use xlink:href="#Helvetica-31"/>
       <use xlink:href="#Helvetica-35" x="55.615234"/>
      </g>
     </g>
    </g>
    <g id="ytick_5">
     <g id="line2d_5">
      <g>
       <use xlink:href="#me9e895ad0a" x="8.336802" y="4.076256" style="fill: #777777; stroke: #777777; stroke-width: 0.5"/>
      </g>
     </g>
     <g id="text_10">
      <!-- 20 -->
      <g style="fill: #333333" transform="translate(3.00024 5.152271) scale(0.03 -0.03)">
       <defs>
        <path id="Helvetica-32" d="M 200 0 
Q 231 578 439 1006 
Q 647 1434 1250 1784 
L 1850 2131 
Q 2253 2366 2416 2531 
Q 2672 2791 2672 3125 
Q 2672 3516 2437 3745 
Q 2203 3975 1813 3975 
Q 1234 3975 1013 3538 
Q 894 3303 881 2888 
L 309 2888 
Q 319 3472 525 3841 
Q 891 4491 1816 4491 
Q 2584 4491 2939 4075 
Q 3294 3659 3294 3150 
Q 3294 2613 2916 2231 
Q 2697 2009 2131 1694 
L 1703 1456 
Q 1397 1288 1222 1134 
Q 909 863 828 531 
L 3272 531 
L 3272 0 
L 200 0 
z
" transform="scale(0.015625)"/>
       </defs>
       <use xlink:href="#Helvetica-32"/>
       <use xlink:href="#Helvetica-30" x="55.615234"/>
      </g>
     </g>
    </g>
   </g>
   <g id="PolyCollection_1">
    <defs>
     <path id="m5f0e1ed4cf" d="M 23.436149 -22.037186 
L 19.194048 -22.037186 
L 18.861152 -22.037472 
L 18.499216 -22.037759 
L 18.10997 -22.038045 
L 17.695931 -22.038332 
L 17.260374 -22.038618 
L 16.807285 -22.038905 
L 16.341259 -22.039191 
L 15.867381 -22.039478 
L 15.391076 -22.039764 
L 14.917936 -22.040051 
L 14.453544 -22.040337 
L 14.003304 -22.040624 
L 13.572271 -22.04091 
L 13.16502 -22.041197 
L 12.785533 -22.041483 
L 12.437131 -22.041769 
L 12.122438 -22.042056 
L 11.843389 -22.042342 
L 11.601266 -22.042629 
L 11.396765 -22.042915 
L 11.230075 -22.043202 
L 11.10097 -22.043488 
L 11.008897 -22.043775 
L 10.953057 -22.044061 
L 10.932462 -22.044348 
L 10.945981 -22.044634 
L 10.992361 -22.044921 
L 11.070231 -22.045207 
L 11.17809 -22.045494 
L 11.314294 -22.04578 
L 11.477034 -22.046067 
L 11.66433 -22.046353 
L 11.874031 -22.04664 
L 12.103833 -22.046926 
L 12.351315 -22.047212 
L 12.613984 -22.047499 
L 12.88934 -22.047785 
L 13.174936 -22.048072 
L 13.468438 -22.048358 
L 13.767679 -22.048645 
L 14.070692 -22.048931 
L 14.375717 -22.049218 
L 14.681191 -22.049504 
L 14.985703 -22.049791 
L 15.287936 -22.050077 
L 15.586583 -22.050364 
L 15.880256 -22.05065 
L 16.167389 -22.050937 
L 16.44615 -22.051223 
L 16.71437 -22.05151 
L 16.969484 -22.051796 
L 17.208518 -22.052083 
L 17.428092 -22.052369 
L 17.624465 -22.052655 
L 17.79362 -22.052942 
L 17.931372 -22.053228 
L 18.033507 -22.053515 
L 18.095953 -22.053801 
L 18.114951 -22.054088 
L 18.087253 -22.054374 
L 18.010307 -22.054661 
L 17.882442 -22.054947 
L 17.703039 -22.055234 
L 17.472671 -22.05552 
L 17.193222 -22.055807 
L 16.867959 -22.056093 
L 16.501563 -22.05638 
L 16.100109 -22.056666 
L 15.670991 -22.056953 
L 15.222791 -22.057239 
L 14.765097 -22.057526 
L 14.30826 -22.057812 
L 13.863116 -22.058098 
L 13.440663 -22.058385 
L 13.051717 -22.058671 
L 12.706559 -22.058958 
L 12.414581 -22.059244 
L 12.183961 -22.059531 
L 12.021369 -22.059817 
L 11.931729 -22.060104 
L 11.918048 -22.06039 
L 11.981316 -22.060677 
L 12.120488 -22.060963 
L 12.332547 -22.06125 
L 12.612648 -22.061536 
L 12.954328 -22.061823 
L 13.349777 -22.062109 
L 13.790152 -22.062396 
L 14.265924 -22.062682 
L 14.767222 -22.062969 
L 15.284186 -22.063255 
L 15.807284 -22.063541 
L 16.327598 -22.063828 
L 16.837061 -22.064114 
L 17.328636 -22.064401 
L 17.796442 -22.064687 
L 18.235816 -22.064974 
L 18.643325 -22.06526 
L 19.016719 -22.065547 
L 23.613477 -22.065547 
L 23.613477 -22.065547 
L 23.986872 -22.06526 
L 24.39438 -22.064974 
L 24.833755 -22.064687 
L 25.301561 -22.064401 
L 25.793136 -22.064114 
L 26.302598 -22.063828 
L 26.822912 -22.063541 
L 27.34601 -22.063255 
L 27.862975 -22.062969 
L 28.364273 -22.062682 
L 28.840044 -22.062396 
L 29.28042 -22.062109 
L 29.675869 -22.061823 
L 30.017549 -22.061536 
L 30.29765 -22.06125 
L 30.509709 -22.060963 
L 30.648881 -22.060677 
L 30.712148 -22.06039 
L 30.698468 -22.060104 
L 30.608828 -22.059817 
L 30.446236 -22.059531 
L 30.215616 -22.059244 
L 29.923638 -22.058958 
L 29.57848 -22.058671 
L 29.189534 -22.058385 
L 28.767081 -22.058098 
L 28.321936 -22.057812 
L 27.8651 -22.057526 
L 27.407405 -22.057239 
L 26.959206 -22.056953 
L 26.530088 -22.056666 
L 26.128634 -22.05638 
L 25.762238 -22.056093 
L 25.436975 -22.055807 
L 25.157526 -22.05552 
L 24.927158 -22.055234 
L 24.747754 -22.054947 
L 24.61989 -22.054661 
L 24.542943 -22.054374 
L 24.515245 -22.054088 
L 24.534244 -22.053801 
L 24.596689 -22.053515 
L 24.698825 -22.053228 
L 24.836576 -22.052942 
L 25.005731 -22.052655 
L 25.202105 -22.052369 
L 25.421678 -22.052083 
L 25.660712 -22.051796 
L 25.915827 -22.05151 
L 26.184046 -22.051223 
L 26.462807 -22.050937 
L 26.74994 -22.05065 
L 27.043613 -22.050364 
L 27.342261 -22.050077 
L 27.644494 -22.049791 
L 27.949006 -22.049504 
L 28.254479 -22.049218 
L 28.559504 -22.048931 
L 28.862517 -22.048645 
L 29.161759 -22.048358 
L 29.455261 -22.048072 
L 29.740856 -22.047785 
L 30.016212 -22.047499 
L 30.278882 -22.047212 
L 30.526363 -22.046926 
L 30.756166 -22.04664 
L 30.965866 -22.046353 
L 31.153162 -22.046067 
L 31.315902 -22.04578 
L 31.452106 -22.045494 
L 31.559966 -22.045207 
L 31.637836 -22.044921 
L 31.684216 -22.044634 
L 31.697735 -22.044348 
L 31.677139 -22.044061 
L 31.621299 -22.043775 
L 31.529227 -22.043488 
L 31.400121 -22.043202 
L 31.233431 -22.042915 
L 31.02893 -22.042629 
L 30.786808 -22.042342 
L 30.507759 -22.042056 
L 30.193066 -22.041769 
L 29.844663 -22.041483 
L 29.465176 -22.041197 
L 29.057925 -22.04091 
L 28.626892 -22.040624 
L 28.176652 -22.040337 
L 27.712261 -22.040051 
L 27.23912 -22.039764 
L 26.762815 -22.039478 
L 26.288938 -22.039191 
L 25.822912 -22.038905 
L 25.369822 -22.038618 
L 24.934266 -22.038332 
L 24.520226 -22.038045 
L 24.130981 -22.037759 
L 23.769044 -22.037472 
L 23.436149 -22.037186 
z
" style="stroke: #6f6f6f; stroke-width: 0.15"/>
    </defs>
    <g clip-path="url(#p3d5bcd767e)">
     <use xlink:href="#m5f0e1ed4cf" x="0" y="84.96" style="fill: #98daa7; stroke: #6f6f6f; stroke-width: 0.15"/>
    </g>
   </g>
   <g id="PolyCollection_2">
    <defs>
     <path id="m9c31ac54ed" d="M 49.301312 -21.916845 
L 45.242067 -21.916845 
L 44.901605 -21.925866 
L 44.531697 -21.934887 
L 44.135669 -21.943909 
L 43.71815 -21.95293 
L 43.285048 -21.961951 
L 42.843452 -21.970972 
L 42.401452 -21.979994 
L 41.967881 -21.989015 
L 41.551991 -21.998036 
L 41.163061 -22.007058 
L 40.809967 -22.016079 
L 40.500745 -22.0251 
L 40.242144 -22.034121 
L 40.039233 -22.043143 
L 39.895061 -22.052164 
L 39.810408 -22.061185 
L 39.783641 -22.070207 
L 39.810696 -22.079228 
L 39.885179 -22.088249 
L 39.998593 -22.09727 
L 40.140686 -22.106292 
L 40.299882 -22.115313 
L 40.463803 -22.124334 
L 40.619826 -22.133356 
L 40.755663 -22.142377 
L 40.859931 -22.151398 
L 40.922684 -22.160419 
L 40.935871 -22.169441 
L 40.893725 -22.178462 
L 40.793033 -22.187483 
L 40.633302 -22.196505 
L 40.416806 -22.205526 
L 40.148512 -22.214547 
L 39.835895 -22.223568 
L 39.488637 -22.23259 
L 39.11825 -22.241611 
L 38.737609 -22.250632 
L 38.360429 -22.259654 
L 38.00071 -22.268675 
L 37.672165 -22.277696 
L 37.387653 -22.286717 
L 37.158646 -22.295739 
L 36.99475 -22.30476 
L 36.903302 -22.313781 
L 36.889053 -22.322803 
L 36.953962 -22.331824 
L 37.097099 -22.340845 
L 37.314675 -22.349866 
L 37.600176 -22.358888 
L 37.944618 -22.367909 
L 38.336892 -22.37693 
L 38.76419 -22.385952 
L 39.212494 -22.394973 
L 39.667095 -22.403994 
L 40.113138 -22.413015 
L 40.536144 -22.422037 
L 40.922517 -22.431058 
L 41.259996 -22.440079 
L 41.53805 -22.449101 
L 41.748195 -22.458122 
L 41.884246 -22.467143 
L 41.942469 -22.476164 
L 41.92167 -22.485186 
L 41.823186 -22.494207 
L 41.650815 -22.503228 
L 41.410667 -22.51225 
L 41.110952 -22.521271 
L 40.761714 -22.530292 
L 40.374514 -22.539313 
L 39.962072 -22.548335 
L 39.537883 -22.557356 
L 39.115799 -22.566377 
L 38.709619 -22.575399 
L 38.33267 -22.58442 
L 37.997402 -22.593441 
L 37.715018 -22.602462 
L 37.495143 -22.611484 
L 37.345542 -22.620505 
L 37.271905 -22.629526 
L 37.27771 -22.638548 
L 37.364155 -22.647569 
L 37.530181 -22.65659 
L 37.772566 -22.665611 
L 38.086109 -22.674633 
L 38.463865 -22.683654 
L 38.897454 -22.692675 
L 39.377397 -22.701697 
L 39.893487 -22.710718 
L 40.435165 -22.719739 
L 40.991892 -22.72876 
L 41.55349 -22.737782 
L 42.11045 -22.746803 
L 42.654185 -22.755824 
L 43.177231 -22.764846 
L 43.673378 -22.773867 
L 44.137746 -22.782888 
L 44.566791 -22.791909 
L 44.958264 -22.800931 
L 45.31112 -22.809952 
L 49.23226 -22.809952 
L 49.23226 -22.809952 
L 49.585115 -22.800931 
L 49.976588 -22.791909 
L 50.405633 -22.782888 
L 50.870001 -22.773867 
L 51.366149 -22.764846 
L 51.889195 -22.755824 
L 52.43293 -22.746803 
L 52.989889 -22.737782 
L 53.551487 -22.72876 
L 54.108214 -22.719739 
L 54.649893 -22.710718 
L 55.165982 -22.701697 
L 55.645925 -22.692675 
L 56.079514 -22.683654 
L 56.457271 -22.674633 
L 56.770813 -22.665611 
L 57.013199 -22.65659 
L 57.179224 -22.647569 
L 57.265669 -22.638548 
L 57.271474 -22.629526 
L 57.197838 -22.620505 
L 57.048236 -22.611484 
L 56.828361 -22.602462 
L 56.545978 -22.593441 
L 56.21071 -22.58442 
L 55.83376 -22.575399 
L 55.427581 -22.566377 
L 55.005497 -22.557356 
L 54.581307 -22.548335 
L 54.168866 -22.539313 
L 53.781666 -22.530292 
L 53.432428 -22.521271 
L 53.132712 -22.51225 
L 52.892564 -22.503228 
L 52.720193 -22.494207 
L 52.62171 -22.485186 
L 52.60091 -22.476164 
L 52.659134 -22.467143 
L 52.795184 -22.458122 
L 53.00533 -22.449101 
L 53.283383 -22.440079 
L 53.620862 -22.431058 
L 54.007236 -22.422037 
L 54.430242 -22.413015 
L 54.876284 -22.403994 
L 55.330886 -22.394973 
L 55.779189 -22.385952 
L 56.206487 -22.37693 
L 56.598761 -22.367909 
L 56.943203 -22.358888 
L 57.228704 -22.349866 
L 57.44628 -22.340845 
L 57.589418 -22.331824 
L 57.654326 -22.322803 
L 57.640077 -22.313781 
L 57.548629 -22.30476 
L 57.384734 -22.295739 
L 57.155726 -22.286717 
L 56.871214 -22.277696 
L 56.542669 -22.268675 
L 56.182951 -22.259654 
L 55.805771 -22.250632 
L 55.425129 -22.241611 
L 55.054742 -22.23259 
L 54.707485 -22.223568 
L 54.394867 -22.214547 
L 54.126574 -22.205526 
L 53.910078 -22.196505 
L 53.750347 -22.187483 
L 53.649654 -22.178462 
L 53.607508 -22.169441 
L 53.620696 -22.160419 
L 53.683448 -22.151398 
L 53.787717 -22.142377 
L 53.923553 -22.133356 
L 54.079576 -22.124334 
L 54.243497 -22.115313 
L 54.402694 -22.106292 
L 54.544786 -22.09727 
L 54.658201 -22.088249 
L 54.732683 -22.079228 
L 54.759738 -22.070207 
L 54.732971 -22.061185 
L 54.648318 -22.052164 
L 54.504146 -22.043143 
L 54.301236 -22.034121 
L 54.042635 -22.0251 
L 53.733412 -22.016079 
L 53.380319 -22.007058 
L 52.991388 -21.998036 
L 52.575498 -21.989015 
L 52.141928 -21.979994 
L 51.699927 -21.970972 
L 51.258331 -21.961951 
L 50.82523 -21.95293 
L 50.407711 -21.943909 
L 50.011682 -21.934887 
L 49.641774 -21.925866 
L 49.301312 -21.916845 
z
" style="stroke: #6f6f6f; stroke-width: 0.15"/>
    </defs>
    <g clip-path="url(#p3d5bcd767e)">
     <use xlink:href="#m9c31ac54ed" x="0" y="84.96" style="fill: #f2aba8; stroke: #6f6f6f; stroke-width: 0.15"/>
    </g>
   </g>
   <g id="PolyCollection_3">
    <defs>
     <path id="m0e45e2c0e9" d="M 75.331442 -21.980931 
L 71.125121 -21.980931 
L 70.697366 -21.985533 
L 70.217486 -21.990134 
L 69.687532 -21.994735 
L 69.111757 -21.999337 
L 68.496782 -22.003938 
L 67.851655 -22.00854 
L 67.187767 -22.013141 
L 66.518626 -22.017742 
L 65.859468 -22.022344 
L 65.226738 -22.026945 
L 64.637434 -22.031546 
L 64.108369 -22.036148 
L 63.655389 -22.040749 
L 63.292591 -22.045351 
L 63.0316 -22.049952 
L 62.880954 -22.054553 
L 62.845645 -22.059155 
L 62.926844 -22.063756 
L 63.121838 -22.068358 
L 63.424183 -22.072959 
L 63.824046 -22.07756 
L 64.308743 -22.082162 
L 64.863396 -22.086763 
L 65.471684 -22.091364 
L 66.116638 -22.095966 
L 66.781405 -22.100567 
L 67.449959 -22.105169 
L 68.107704 -22.10977 
L 68.741945 -22.114371 
L 69.342206 -22.118973 
L 69.900408 -22.123574 
L 70.410882 -22.128176 
L 70.870274 -22.132777 
L 71.277332 -22.137378 
L 71.632625 -22.14198 
L 71.938209 -22.146581 
L 72.197282 -22.151182 
L 72.413839 -22.155784 
L 72.592351 -22.160385 
L 72.737494 -22.164987 
L 72.853911 -22.169588 
L 72.946037 -22.174189 
L 73.017972 -22.178791 
L 73.073399 -22.183392 
L 73.115542 -22.187993 
L 73.14716 -22.192595 
L 73.170562 -22.197196 
L 73.187638 -22.201798 
L 73.199907 -22.206399 
L 73.208558 -22.211 
L 73.214506 -22.215602 
L 73.218426 -22.220203 
L 73.220802 -22.224805 
L 73.221952 -22.229406 
L 73.222058 -22.234007 
L 73.221182 -22.238609 
L 73.219283 -22.24321 
L 73.216216 -22.247811 
L 73.211743 -22.252413 
L 73.20553 -22.257014 
L 73.197149 -22.261616 
L 73.186074 -22.266217 
L 73.171692 -22.270818 
L 73.153305 -22.27542 
L 73.130153 -22.280021 
L 73.101433 -22.284623 
L 73.066337 -22.289224 
L 73.024095 -22.293825 
L 72.974033 -22.298427 
L 72.915629 -22.303028 
L 72.848587 -22.307629 
L 72.772899 -22.312231 
L 72.688913 -22.316832 
L 72.597376 -22.321434 
L 72.499476 -22.326035 
L 72.396848 -22.330636 
L 72.291558 -22.335238 
L 72.186049 -22.339839 
L 72.08307 -22.344441 
L 71.985555 -22.349042 
L 71.896497 -22.353643 
L 71.818795 -22.358245 
L 71.755099 -22.362846 
L 71.707662 -22.367447 
L 71.678205 -22.372049 
L 71.667816 -22.37665 
L 71.676881 -22.381252 
L 71.705063 -22.385853 
L 71.751321 -22.390454 
L 71.813973 -22.395056 
L 71.8908 -22.399657 
L 71.979173 -22.404258 
L 72.076206 -22.40886 
L 72.178907 -22.413461 
L 72.284333 -22.418063 
L 72.38972 -22.422664 
L 72.4926 -22.427265 
L 72.59088 -22.431867 
L 72.682894 -22.436468 
L 73.773669 -22.436468 
L 73.773669 -22.436468 
L 73.865683 -22.431867 
L 73.963962 -22.427265 
L 74.066842 -22.422664 
L 74.17223 -22.418063 
L 74.277655 -22.413461 
L 74.380357 -22.40886 
L 74.477389 -22.404258 
L 74.565763 -22.399657 
L 74.642589 -22.395056 
L 74.705241 -22.390454 
L 74.751499 -22.385853 
L 74.779681 -22.381252 
L 74.788747 -22.37665 
L 74.778358 -22.372049 
L 74.748901 -22.367447 
L 74.701463 -22.362846 
L 74.637768 -22.358245 
L 74.560066 -22.353643 
L 74.471008 -22.349042 
L 74.373493 -22.344441 
L 74.270513 -22.339839 
L 74.165005 -22.335238 
L 74.059714 -22.330636 
L 73.957086 -22.326035 
L 73.859187 -22.321434 
L 73.76765 -22.316832 
L 73.683663 -22.312231 
L 73.607976 -22.307629 
L 73.540934 -22.303028 
L 73.48253 -22.298427 
L 73.432467 -22.293825 
L 73.390226 -22.289224 
L 73.35513 -22.284623 
L 73.326409 -22.280021 
L 73.303257 -22.27542 
L 73.284871 -22.270818 
L 73.270488 -22.266217 
L 73.259414 -22.261616 
L 73.251032 -22.257014 
L 73.24482 -22.252413 
L 73.240347 -22.247811 
L 73.23728 -22.24321 
L 73.23538 -22.238609 
L 73.234505 -22.234007 
L 73.234611 -22.229406 
L 73.235761 -22.224805 
L 73.238136 -22.220203 
L 73.242057 -22.215602 
L 73.248004 -22.211 
L 73.256656 -22.206399 
L 73.268924 -22.201798 
L 73.286001 -22.197196 
L 73.309402 -22.192595 
L 73.34102 -22.187993 
L 73.383164 -22.183392 
L 73.43859 -22.178791 
L 73.510525 -22.174189 
L 73.602651 -22.169588 
L 73.719068 -22.164987 
L 73.864211 -22.160385 
L 74.042724 -22.155784 
L 74.25928 -22.151182 
L 74.518354 -22.146581 
L 74.823938 -22.14198 
L 75.17923 -22.137378 
L 75.586289 -22.132777 
L 76.045681 -22.128176 
L 76.556155 -22.123574 
L 77.114356 -22.118973 
L 77.714618 -22.114371 
L 78.348858 -22.10977 
L 79.006603 -22.105169 
L 79.675157 -22.100567 
L 80.339924 -22.095966 
L 80.984878 -22.091364 
L 81.593167 -22.086763 
L 82.147819 -22.082162 
L 82.632516 -22.07756 
L 83.03238 -22.072959 
L 83.334724 -22.068358 
L 83.529719 -22.063756 
L 83.610918 -22.059155 
L 83.575608 -22.054553 
L 83.424962 -22.049952 
L 83.163971 -22.045351 
L 82.801173 -22.040749 
L 82.348193 -22.036148 
L 81.819128 -22.031546 
L 81.229824 -22.026945 
L 80.597094 -22.022344 
L 79.937937 -22.017742 
L 79.268795 -22.013141 
L 78.604908 -22.00854 
L 77.95978 -22.003938 
L 77.344806 -21.999337 
L 76.76903 -21.994735 
L 76.239077 -21.990134 
L 75.759196 -21.985533 
L 75.331442 -21.980931 
z
" style="stroke: #6f6f6f; stroke-width: 0.15"/>
    </defs>
    <g clip-path="url(#p3d5bcd767e)">
     <use xlink:href="#m0e45e2c0e9" x="0" y="84.96" style="fill: #eab390; stroke: #6f6f6f; stroke-width: 0.15"/>
    </g>
   </g>
   <g id="PolyCollection_4">
    <defs>
     <path id="mcc86ab03de" d="M 102.267681 -22.039011 
L 96.102064 -22.039011 
L 95.586304 -22.03913 
L 95.031567 -22.039248 
L 94.44486 -22.039367 
L 93.835111 -22.039486 
L 93.212936 -22.039604 
L 92.59028 -22.039723 
L 91.979927 -22.039842 
L 91.394928 -22.03996 
L 90.847963 -22.040079 
L 90.350701 -22.040198 
L 89.913187 -22.040316 
L 89.543334 -22.040435 
L 89.246529 -22.040554 
L 89.025422 -22.040672 
L 88.879888 -22.040791 
L 88.807177 -22.04091 
L 88.802236 -22.041028 
L 88.858166 -22.041147 
L 88.966773 -22.041266 
L 89.119155 -22.041384 
L 89.306283 -22.041503 
L 89.519502 -22.041622 
L 89.750937 -22.04174 
L 89.993757 -22.041859 
L 90.242293 -22.041978 
L 90.492013 -22.042096 
L 90.739383 -22.042215 
L 90.981634 -22.042334 
L 91.216486 -22.042452 
L 91.441878 -22.042571 
L 91.655738 -22.042689 
L 91.855825 -22.042808 
L 92.039681 -22.042927 
L 92.204694 -22.043045 
L 92.348256 -22.043164 
L 92.468023 -22.043283 
L 92.56222 -22.043401 
L 92.629967 -22.04352 
L 92.671584 -22.043639 
L 92.688823 -22.043757 
L 92.685005 -22.043876 
L 92.665028 -22.043995 
L 92.63524 -22.044113 
L 92.603171 -22.044232 
L 92.577147 -22.044351 
L 92.565814 -22.044469 
L 92.577603 -22.044588 
L 92.620193 -22.044707 
L 92.700001 -22.044825 
L 92.821759 -22.044944 
L 92.988193 -22.045063 
L 93.199846 -22.045181 
L 93.455045 -22.0453 
L 93.75001 -22.045419 
L 94.079098 -22.045537 
L 94.435145 -22.045656 
L 94.809887 -22.045775 
L 95.194409 -22.045893 
L 95.579605 -22.046012 
L 95.956594 -22.046131 
L 96.317089 -22.046249 
L 96.653684 -22.046368 
L 96.960061 -22.046487 
L 97.231113 -22.046605 
L 97.462993 -22.046724 
L 97.653098 -22.046843 
L 97.800015 -22.046961 
L 97.90343 -22.04708 
L 97.964039 -22.047199 
L 97.983444 -22.047317 
L 97.964074 -22.047436 
L 97.909109 -22.047555 
L 97.822417 -22.047673 
L 97.7085 -22.047792 
L 97.572429 -22.047911 
L 97.419776 -22.048029 
L 97.256514 -22.048148 
L 97.088895 -22.048267 
L 96.923293 -22.048385 
L 96.766025 -22.048504 
L 96.623136 -22.048623 
L 96.500183 -22.048741 
L 96.402017 -22.04886 
L 96.332576 -22.048979 
L 96.294722 -22.049097 
L 96.290119 -22.049216 
L 96.319168 -22.049335 
L 96.38102 -22.049453 
L 96.473636 -22.049572 
L 96.593933 -22.049691 
L 96.737961 -22.049809 
L 96.901138 -22.049928 
L 97.078494 -22.050047 
L 97.264927 -22.050165 
L 97.455448 -22.050284 
L 97.645393 -22.050403 
L 97.830604 -22.050521 
L 98.007552 -22.05064 
L 98.173427 -22.050759 
L 100.196319 -22.050759 
L 100.196319 -22.050759 
L 100.362193 -22.05064 
L 100.539142 -22.050521 
L 100.724352 -22.050403 
L 100.914297 -22.050284 
L 101.104818 -22.050165 
L 101.291252 -22.050047 
L 101.468607 -22.049928 
L 101.631784 -22.049809 
L 101.775813 -22.049691 
L 101.896109 -22.049572 
L 101.988726 -22.049453 
L 102.050577 -22.049335 
L 102.079627 -22.049216 
L 102.075023 -22.049097 
L 102.03717 -22.048979 
L 101.967729 -22.04886 
L 101.869562 -22.048741 
L 101.74661 -22.048623 
L 101.603721 -22.048504 
L 101.446452 -22.048385 
L 101.280851 -22.048267 
L 101.113231 -22.048148 
L 100.949969 -22.048029 
L 100.797316 -22.047911 
L 100.661246 -22.047792 
L 100.547328 -22.047673 
L 100.460637 -22.047555 
L 100.405671 -22.047436 
L 100.386301 -22.047317 
L 100.405706 -22.047199 
L 100.466315 -22.04708 
L 100.569731 -22.046961 
L 100.716647 -22.046843 
L 100.906753 -22.046724 
L 101.138632 -22.046605 
L 101.409685 -22.046487 
L 101.716062 -22.046368 
L 102.052657 -22.046249 
L 102.413152 -22.046131 
L 102.790141 -22.046012 
L 103.175336 -22.045893 
L 103.559859 -22.045775 
L 103.9346 -22.045656 
L 104.290647 -22.045537 
L 104.619735 -22.045419 
L 104.914701 -22.0453 
L 105.169899 -22.045181 
L 105.381552 -22.045063 
L 105.547986 -22.044944 
L 105.669744 -22.044825 
L 105.749553 -22.044707 
L 105.792143 -22.044588 
L 105.803932 -22.044469 
L 105.792599 -22.044351 
L 105.766575 -22.044232 
L 105.734505 -22.044113 
L 105.704717 -22.043995 
L 105.684741 -22.043876 
L 105.680922 -22.043757 
L 105.698161 -22.043639 
L 105.739778 -22.04352 
L 105.807526 -22.043401 
L 105.901723 -22.043283 
L 106.02149 -22.043164 
L 106.165052 -22.043045 
L 106.330064 -22.042927 
L 106.513921 -22.042808 
L 106.714008 -22.042689 
L 106.927867 -22.042571 
L 107.15326 -22.042452 
L 107.388112 -22.042334 
L 107.630362 -22.042215 
L 107.877732 -22.042096 
L 108.127453 -22.041978 
L 108.375988 -22.041859 
L 108.618808 -22.04174 
L 108.850244 -22.041622 
L 109.063463 -22.041503 
L 109.25059 -22.041384 
L 109.402973 -22.041266 
L 109.511579 -22.041147 
L 109.567509 -22.041028 
L 109.562568 -22.04091 
L 109.489857 -22.040791 
L 109.344323 -22.040672 
L 109.123217 -22.040554 
L 108.826412 -22.040435 
L 108.456558 -22.040316 
L 108.019045 -22.040198 
L 107.521782 -22.040079 
L 106.974818 -22.03996 
L 106.389819 -22.039842 
L 105.779466 -22.039723 
L 105.156809 -22.039604 
L 104.534635 -22.039486 
L 103.924885 -22.039367 
L 103.338179 -22.039248 
L 102.783441 -22.03913 
L 102.267681 -22.039011 
z
" style="stroke: #6f6f6f; stroke-width: 0.15"/>
    </defs>
    <g clip-path="url(#p3d5bcd767e)">
     <use xlink:href="#mcc86ab03de" x="0" y="84.96" style="fill: #edbea0; stroke: #6f6f6f; stroke-width: 0.15"/>
    </g>
   </g>
   <g id="PolyCollection_5">
    <defs>
     <path id="mae9202fd7c" d="M 126.420435 -22.038971 
L 123.862494 -22.038971 
L 123.581379 -22.0391 
L 123.258945 -22.039229 
L 122.89401 -22.039357 
L 122.486484 -22.039486 
L 122.037537 -22.039615 
L 121.54973 -22.039744 
L 121.027097 -22.039872 
L 120.475156 -22.040001 
L 119.900856 -22.04013 
L 119.312455 -22.040259 
L 118.719324 -22.040387 
L 118.131692 -22.040516 
L 117.560341 -22.040645 
L 117.016269 -22.040774 
L 116.510323 -22.040902 
L 116.052841 -22.041031 
L 115.653297 -22.04116 
L 115.31998 -22.041289 
L 115.059712 -22.041417 
L 114.877607 -22.041546 
L 114.776901 -22.041675 
L 114.758828 -22.041803 
L 114.822569 -22.041932 
L 114.965263 -22.042061 
L 115.182089 -22.04219 
L 115.466408 -22.042318 
L 115.809979 -22.042447 
L 116.203236 -22.042576 
L 116.635621 -22.042705 
L 117.095968 -22.042833 
L 117.572921 -22.042962 
L 118.055374 -22.043091 
L 118.532909 -22.04322 
L 118.996197 -22.043348 
L 119.437362 -22.043477 
L 119.850257 -22.043606 
L 120.230651 -22.043735 
L 120.576296 -22.043863 
L 120.886885 -22.043992 
L 121.163889 -22.044121 
L 121.410293 -22.044249 
L 121.630246 -22.044378 
L 121.828659 -22.044507 
L 122.01078 -22.044636 
L 122.181778 -22.044764 
L 122.346371 -22.044893 
L 122.508524 -22.045022 
L 122.671232 -22.045151 
L 122.836404 -22.045279 
L 123.004845 -22.045408 
L 123.176322 -22.045537 
L 123.349718 -22.045666 
L 123.523218 -22.045794 
L 123.694544 -22.045923 
L 123.861179 -22.046052 
L 124.020584 -22.046181 
L 124.170373 -22.046309 
L 124.308449 -22.046438 
L 124.433091 -22.046567 
L 124.542977 -22.046696 
L 124.637183 -22.046824 
L 124.715128 -22.046953 
L 124.776504 -22.047082 
L 124.821199 -22.04721 
L 124.849213 -22.047339 
L 124.860595 -22.047468 
L 124.855398 -22.047597 
L 124.833668 -22.047725 
L 124.795456 -22.047854 
L 124.740871 -22.047983 
L 124.670151 -22.048112 
L 124.583758 -22.04824 
L 124.482486 -22.048369 
L 124.367553 -22.048498 
L 124.240699 -22.048627 
L 124.104237 -22.048755 
L 123.961072 -22.048884 
L 123.814682 -22.049013 
L 123.669026 -22.049142 
L 123.528422 -22.04927 
L 123.397366 -22.049399 
L 123.280314 -22.049528 
L 123.181453 -22.049656 
L 123.104463 -22.049785 
L 123.052296 -22.049914 
L 123.026996 -22.050043 
L 123.02957 -22.050171 
L 123.059921 -22.0503 
L 123.11686 -22.050429 
L 123.198182 -22.050558 
L 123.30081 -22.050686 
L 123.420986 -22.050815 
L 123.554502 -22.050944 
L 123.696941 -22.051073 
L 123.843918 -22.051201 
L 123.991295 -22.05133 
L 124.135365 -22.051459 
L 124.272983 -22.051588 
L 124.401654 -22.051716 
L 125.881274 -22.051716 
L 125.881274 -22.051716 
L 126.009945 -22.051588 
L 126.147564 -22.051459 
L 126.291633 -22.05133 
L 126.439011 -22.051201 
L 126.585988 -22.051073 
L 126.728427 -22.050944 
L 126.861943 -22.050815 
L 126.982119 -22.050686 
L 127.084746 -22.050558 
L 127.166069 -22.050429 
L 127.223008 -22.0503 
L 127.253359 -22.050171 
L 127.255932 -22.050043 
L 127.230633 -22.049914 
L 127.178466 -22.049785 
L 127.101476 -22.049656 
L 127.002615 -22.049528 
L 126.885563 -22.049399 
L 126.754506 -22.04927 
L 126.613903 -22.049142 
L 126.468247 -22.049013 
L 126.321856 -22.048884 
L 126.178692 -22.048755 
L 126.042229 -22.048627 
L 125.915375 -22.048498 
L 125.800443 -22.048369 
L 125.69917 -22.04824 
L 125.612778 -22.048112 
L 125.542057 -22.047983 
L 125.487472 -22.047854 
L 125.449261 -22.047725 
L 125.42753 -22.047597 
L 125.422334 -22.047468 
L 125.433716 -22.047339 
L 125.46173 -22.04721 
L 125.506425 -22.047082 
L 125.567801 -22.046953 
L 125.645745 -22.046824 
L 125.739951 -22.046696 
L 125.849838 -22.046567 
L 125.974479 -22.046438 
L 126.112556 -22.046309 
L 126.262345 -22.046181 
L 126.421749 -22.046052 
L 126.588384 -22.045923 
L 126.759711 -22.045794 
L 126.933211 -22.045666 
L 127.106606 -22.045537 
L 127.278084 -22.045408 
L 127.446524 -22.045279 
L 127.611697 -22.045151 
L 127.774405 -22.045022 
L 127.936558 -22.044893 
L 128.101151 -22.044764 
L 128.272148 -22.044636 
L 128.454269 -22.044507 
L 128.652682 -22.044378 
L 128.872635 -22.044249 
L 129.119039 -22.044121 
L 129.396044 -22.043992 
L 129.706633 -22.043863 
L 130.052278 -22.043735 
L 130.432671 -22.043606 
L 130.845567 -22.043477 
L 131.286732 -22.043348 
L 131.75002 -22.04322 
L 132.227554 -22.043091 
L 132.710008 -22.042962 
L 133.186961 -22.042833 
L 133.647307 -22.042705 
L 134.079692 -22.042576 
L 134.47295 -22.042447 
L 134.816521 -22.042318 
L 135.10084 -22.04219 
L 135.317665 -22.042061 
L 135.46036 -22.041932 
L 135.524101 -22.041803 
L 135.506028 -22.041675 
L 135.405322 -22.041546 
L 135.223217 -22.041417 
L 134.962948 -22.041289 
L 134.629631 -22.04116 
L 134.230087 -22.041031 
L 133.772605 -22.040902 
L 133.26666 -22.040774 
L 132.722587 -22.040645 
L 132.151237 -22.040516 
L 131.563604 -22.040387 
L 130.970473 -22.040259 
L 130.382072 -22.04013 
L 129.807773 -22.040001 
L 129.255831 -22.039872 
L 128.733198 -22.039744 
L 128.245392 -22.039615 
L 127.796444 -22.039486 
L 127.388918 -22.039357 
L 127.023984 -22.039229 
L 126.70155 -22.0391 
L 126.420435 -22.038971 
z
" style="stroke: #6f6f6f; stroke-width: 0.15"/>
    </defs>
    <g clip-path="url(#p3d5bcd767e)">
     <use xlink:href="#mae9202fd7c" x="0" y="84.96" style="fill: #f0c9b0; stroke: #6f6f6f; stroke-width: 0.15"/>
    </g>
   </g>
   <g id="line2d_6">
    <path d="M 21.315098 62.918452 
L 21.315098 62.898816 
" clip-path="url(#p3d5bcd767e)" style="fill: none; stroke: #8c8c8c; stroke-width: 0.75; stroke-linecap: round"/>
   </g>
   <g id="line2d_7">
    <path d="M 21.315098 62.915078 
L 21.315098 62.90047 
" clip-path="url(#p3d5bcd767e)" style="fill: none; stroke: #8c8c8c; stroke-width: 4; stroke-linecap: round"/>
   </g>
   <g id="line2d_8">
    <path d="M 21.315098 62.911549 
" clip-path="url(#p3d5bcd767e)" style="fill: none; stroke: #6f6f6f; stroke-width: 1.2; stroke-linecap: round"/>
    <defs>
     <path id="m9817135631" d="M 0 0.833333 
C 0.221003 0.833333 0.432983 0.745528 0.589256 0.589256 
C 0.745528 0.432983 0.833333 0.221003 0.833333 0 
C 0.833333 -0.221003 0.745528 -0.432983 0.589256 -0.589256 
C 0.432983 -0.745528 0.221003 -0.833333 0 -0.833333 
C -0.221003 -0.833333 -0.432983 -0.745528 -0.589256 -0.589256 
C -0.745528 -0.432983 -0.833333 -0.221003 -0.833333 0 
C -0.833333 0.221003 -0.745528 0.432983 -0.589256 0.589256 
C -0.432983 0.745528 -0.221003 0.833333 0 0.833333 
z
" style="stroke: #ffffff; stroke-width: 0.8"/>
    </defs>
    <g clip-path="url(#p3d5bcd767e)">
     <use xlink:href="#m9817135631" x="21.315098" y="62.911549" style="fill: #ffffff; stroke: #ffffff; stroke-width: 0.8"/>
    </g>
   </g>
   <g id="line2d_9">
    <path d="M 47.27169 62.914624 
L 47.27169 62.278579 
" clip-path="url(#p3d5bcd767e)" style="fill: none; stroke: #8c8c8c; stroke-width: 0.75; stroke-linecap: round"/>
   </g>
   <g id="line2d_10">
    <path d="M 47.27169 62.735488 
L 47.27169 62.361699 
" clip-path="url(#p3d5bcd767e)" style="fill: none; stroke: #8c8c8c; stroke-width: 4; stroke-linecap: round"/>
   </g>
   <g id="line2d_11">
    <path d="M 47.27169 62.616992 
" clip-path="url(#p3d5bcd767e)" style="fill: none; stroke: #6f6f6f; stroke-width: 1.2; stroke-linecap: round"/>
    <g clip-path="url(#p3d5bcd767e)">
     <use xlink:href="#m9817135631" x="47.27169" y="62.616992" style="fill: #ffffff; stroke: #ffffff; stroke-width: 0.8"/>
    </g>
   </g>
   <g id="line2d_12">
    <path d="M 73.228281 62.919408 
L 73.228281 62.882978 
" clip-path="url(#p3d5bcd767e)" style="fill: none; stroke: #8c8c8c; stroke-width: 0.75; stroke-linecap: round"/>
   </g>
   <g id="line2d_13">
    <path d="M 73.228281 62.913148 
L 73.228281 62.886438 
" clip-path="url(#p3d5bcd767e)" style="fill: none; stroke: #8c8c8c; stroke-width: 4; stroke-linecap: round"/>
   </g>
   <g id="line2d_14">
    <path d="M 73.228281 62.89715 
" clip-path="url(#p3d5bcd767e)" style="fill: none; stroke: #6f6f6f; stroke-width: 1.2; stroke-linecap: round"/>
    <g clip-path="url(#p3d5bcd767e)">
     <use xlink:href="#m9817135631" x="73.228281" y="62.89715" style="fill: #ffffff; stroke: #ffffff; stroke-width: 0.8"/>
    </g>
   </g>
   <g id="line2d_15">
    <path d="M 99.184873 62.919408 
L 99.184873 62.910823 
" clip-path="url(#p3d5bcd767e)" style="fill: none; stroke: #8c8c8c; stroke-width: 0.75; stroke-linecap: round"/>
   </g>
   <g id="line2d_16">
    <path d="M 99.184873 62.919408 
L 99.184873 62.915123 
" clip-path="url(#p3d5bcd767e)" style="fill: none; stroke: #8c8c8c; stroke-width: 4; stroke-linecap: round"/>
   </g>
   <g id="line2d_17">
    <path d="M 99.184873 62.917476 
" clip-path="url(#p3d5bcd767e)" style="fill: none; stroke: #6f6f6f; stroke-width: 1.2; stroke-linecap: round"/>
    <g clip-path="url(#p3d5bcd767e)">
     <use xlink:href="#m9817135631" x="99.184873" y="62.917476" style="fill: #ffffff; stroke: #ffffff; stroke-width: 0.8"/>
    </g>
   </g>
   <g id="line2d_18">
    <path d="M 125.141464 62.919408 
L 125.141464 62.915115 
" clip-path="url(#p3d5bcd767e)" style="fill: none; stroke: #8c8c8c; stroke-width: 0.75; stroke-linecap: round"/>
   </g>
   <g id="line2d_19">
    <path d="M 125.141464 62.918656 
L 125.141464 62.916625 
" clip-path="url(#p3d5bcd767e)" style="fill: none; stroke: #8c8c8c; stroke-width: 4; stroke-linecap: round"/>
   </g>
   <g id="line2d_20">
    <path d="M 125.141464 62.917818 
" clip-path="url(#p3d5bcd767e)" style="fill: none; stroke: #6f6f6f; stroke-width: 1.2; stroke-linecap: round"/>
    <g clip-path="url(#p3d5bcd767e)">
     <use xlink:href="#m9817135631" x="125.141464" y="62.917818" style="fill: #ffffff; stroke: #ffffff; stroke-width: 0.8"/>
    </g>
   </g>
   <g id="patch_3">
    <path d="M 8.336802 74.393822 
L 8.336802 4.076256 
" style="fill: none; stroke: #777777; stroke-width: 0.5; stroke-linejoin: miter; stroke-linecap: square"/>
   </g>
   <g id="patch_4">
    <path d="M 8.336802 76.893822 
L 138.11976 76.893822 
" style="fill: none; stroke: #777777; stroke-width: 0.5; stroke-linejoin: miter; stroke-linecap: square"/>
   </g>
  </g>
 </g>
 <defs>
  <clipPath id="p3d5bcd767e">
   <rect x="8.336802" y="4.076256" width="129.782958" height="70.317567"/>
  </clipPath>
 </defs>
</svg>
