<?xml version="1.0" encoding="utf-8" standalone="no"?>
<!DOCTYPE svg PUBLIC "-//W3C//DTD SVG 1.1//EN"
  "http://www.w3.org/Graphics/SVG/1.1/DTD/svg11.dtd">
<svg xmlns:xlink="http://www.w3.org/1999/xlink" width="56.16pt" height="84.96pt" viewBox="0 0 56.16 84.96" xmlns="http://www.w3.org/2000/svg" version="1.1">
 <metadata>
  <rdf:RDF xmlns:dc="http://purl.org/dc/elements/1.1/" xmlns:cc="http://creativecommons.org/ns#" xmlns:rdf="http://www.w3.org/1999/02/22-rdf-syntax-ns#">
   <cc:Work>
    <dc:type rdf:resource="http://purl.org/dc/dcmitype/StillImage"/>
    <dc:date>2024-05-27T15:37:17.073839</dc:date>
    <dc:format>image/svg+xml</dc:format>
    <dc:creator>
     <cc:Agent>
      <dc:title>Matplotlib v3.8.3, https://matplotlib.org/</dc:title>
     </cc:Agent>
    </dc:creator>
   </cc:Work>
  </rdf:RDF>
 </metadata>
 <defs>
  <style type="text/css">*{stroke-linejoin: round; stroke-linecap: butt}</style>
 </defs>
 <g id="figure_1">
  <g id="patch_1">
   <path d="M 0 84.96 
L 56.16 84.96 
L 56.16 0 
L 0 0 
z
" style="fill: #ffffff"/>
  </g>
  <g id="axes_1">
   <g id="patch_2">
    <path d="M 10.005084 74.395463 
L 53.15976 74.395463 
L 53.15976 4.076256 
L 10.005084 4.076256 
z
" style="fill: #ffffff"/>
   </g>
   <g id="matplotlib.axis_1">
    <g id="xtick_1">
     <g id="text_1">
      <!-- RORγT+ Cells -->
      <g style="fill: #333333" transform="translate(9.464964 81.230229) scale(0.035 -0.035)">
       <defs>
        <path id="Helvetica-52" d="M 2622 2488 
Q 3059 2488 3314 2663 
Q 3569 2838 3569 3294 
Q 3569 3784 3213 3963 
Q 3022 4056 2703 4056 
L 1184 4056 
L 1184 2488 
L 2622 2488 
z
M 563 4591 
L 2688 4591 
Q 3213 4591 3553 4438 
Q 4200 4144 4200 3353 
Q 4200 2941 4029 2678 
Q 3859 2416 3553 2256 
Q 3822 2147 3958 1969 
Q 4094 1791 4109 1391 
L 4131 775 
Q 4141 513 4175 384 
Q 4231 166 4375 103 
L 4375 0 
L 3613 0 
Q 3581 59 3562 153 
Q 3544 247 3531 516 
L 3494 1281 
Q 3472 1731 3159 1884 
Q 2981 1969 2600 1969 
L 1184 1969 
L 1184 0 
L 563 0 
L 563 4591 
z
" transform="scale(0.015625)"/>
        <path id="Helvetica-4f" d="M 2469 4716 
Q 3684 4716 4269 3934 
Q 4725 3325 4725 2375 
Q 4725 1347 4203 666 
Q 3591 -134 2456 -134 
Q 1397 -134 791 566 
Q 250 1241 250 2272 
Q 250 3203 713 3866 
Q 1306 4716 2469 4716 
z
M 2531 422 
Q 3353 422 3720 1011 
Q 4088 1600 4088 2366 
Q 4088 3175 3664 3669 
Q 3241 4163 2506 4163 
Q 1794 4163 1344 3673 
Q 894 3184 894 2231 
Q 894 1469 1280 945 
Q 1666 422 2531 422 
z
M 2488 4716 
L 2488 4716 
z
" transform="scale(0.015625)"/>
        <path id="Helvetica-3b3" d="M 1556 225 
L 581 2444 
Q 481 2700 416 2803 
Q 347 2894 244 2894 
Q 91 2888 56 2872 
L 56 3334 
Q 166 3384 313 3391 
Q 641 3391 788 3250 
Q 863 3188 922 3078 
Q 978 2963 1038 2809 
L 1844 878 
L 2828 3328 
L 3431 3328 
L 2131 225 
L 2131 -1253 
L 1556 -1253 
L 1556 225 
z
" transform="scale(0.015625)"/>
        <path id="Helvetica-54" d="M 3828 4591 
L 3828 4044 
L 2281 4044 
L 2281 0 
L 1650 0 
L 1650 4044 
L 103 4044 
L 103 4591 
L 3828 4591 
z
" transform="scale(0.015625)"/>
        <path id="Helvetica-2b" d="M 288 1369 
L 288 1894 
L 1650 1894 
L 1650 3266 
L 2184 3266 
L 2184 1894 
L 3547 1894 
L 3547 1369 
L 2184 1369 
L 2184 0 
L 1650 0 
L 1650 1369 
L 288 1369 
z
" transform="scale(0.015625)"/>
        <path id="Helvetica-20" transform="scale(0.015625)"/>
        <path id="Helvetica-43" d="M 2422 4716 
Q 3294 4716 3775 4256 
Q 4256 3797 4309 3213 
L 3703 3213 
Q 3600 3656 3292 3915 
Q 2984 4175 2428 4175 
Q 1750 4175 1333 3698 
Q 916 3222 916 2238 
Q 916 1431 1292 929 
Q 1669 428 2416 428 
Q 3103 428 3463 956 
Q 3653 1234 3747 1688 
L 4353 1688 
Q 4272 963 3816 472 
Q 3269 -119 2341 -119 
Q 1541 -119 997 366 
Q 281 1006 281 2344 
Q 281 3359 819 4009 
Q 1400 4716 2422 4716 
z
M 2297 4716 
L 2297 4716 
z
" transform="scale(0.015625)"/>
        <path id="Helvetica-65" d="M 1806 3422 
Q 2163 3422 2497 3255 
Q 2831 3088 3006 2822 
Q 3175 2569 3231 2231 
Q 3281 2000 3281 1494 
L 828 1494 
Q 844 984 1069 676 
Q 1294 369 1766 369 
Q 2206 369 2469 659 
Q 2619 828 2681 1050 
L 3234 1050 
Q 3213 866 3089 639 
Q 2966 413 2813 269 
Q 2556 19 2178 -69 
Q 1975 -119 1719 -119 
Q 1094 -119 659 336 
Q 225 791 225 1609 
Q 225 2416 662 2919 
Q 1100 3422 1806 3422 
z
M 2703 1941 
Q 2669 2306 2544 2525 
Q 2313 2931 1772 2931 
Q 1384 2931 1121 2651 
Q 859 2372 844 1941 
L 2703 1941 
z
M 1753 3428 
L 1753 3428 
z
" transform="scale(0.015625)"/>
        <path id="Helvetica-6c" d="M 428 4591 
L 991 4591 
L 991 0 
L 428 0 
L 428 4591 
z
" transform="scale(0.015625)"/>
        <path id="Helvetica-73" d="M 747 1050 
Q 772 769 888 619 
Q 1100 347 1625 347 
Q 1938 347 2175 483 
Q 2413 619 2413 903 
Q 2413 1119 2222 1231 
Q 2100 1300 1741 1391 
L 1294 1503 
Q 866 1609 663 1741 
Q 300 1969 300 2372 
Q 300 2847 642 3140 
Q 984 3434 1563 3434 
Q 2319 3434 2653 2991 
Q 2863 2709 2856 2384 
L 2325 2384 
Q 2309 2575 2191 2731 
Q 1997 2953 1519 2953 
Q 1200 2953 1036 2831 
Q 872 2709 872 2509 
Q 872 2291 1088 2159 
Q 1213 2081 1456 2022 
L 1828 1931 
Q 2434 1784 2641 1647 
Q 2969 1431 2969 969 
Q 2969 522 2630 197 
Q 2291 -128 1597 -128 
Q 850 -128 539 211 
Q 228 550 206 1050 
L 747 1050 
z
M 1578 3428 
L 1578 3428 
z
" transform="scale(0.015625)"/>
       </defs>
       <use xlink:href="#Helvetica-52"/>
       <use xlink:href="#Helvetica-4f" x="72.216797"/>
       <use xlink:href="#Helvetica-52" x="150"/>
       <use xlink:href="#Helvetica-3b3" x="222.216797"/>
       <use xlink:href="#Helvetica-54" x="277.832031"/>
       <use xlink:href="#Helvetica-2b" x="338.916016"/>
       <use xlink:href="#Helvetica-20" x="397.314453"/>
       <use xlink:href="#Helvetica-43" x="425.097656"/>
       <use xlink:href="#Helvetica-65" x="497.314453"/>
       <use xlink:href="#Helvetica-6c" x="552.929688"/>
       <use xlink:href="#Helvetica-6c" x="575.146484"/>
       <use xlink:href="#Helvetica-73" x="597.363281"/>
      </g>
     </g>
    </g>
    <g id="xtick_2">
     <g id="text_2">
      <!-- AHR+ Cells -->
      <g style="fill: #333333" transform="translate(33.2782 81.206166) scale(0.035 -0.035)">
       <defs>
        <path id="Helvetica-41" d="M 2844 1881 
L 2147 3909 
L 1406 1881 
L 2844 1881 
z
M 1822 4591 
L 2525 4591 
L 4191 0 
L 3509 0 
L 3044 1375 
L 1228 1375 
L 731 0 
L 94 0 
L 1822 4591 
z
" transform="scale(0.015625)"/>
        <path id="Helvetica-48" d="M 503 4591 
L 1131 4591 
L 1131 2694 
L 3519 2694 
L 3519 4591 
L 4147 4591 
L 4147 0 
L 3519 0 
L 3519 2147 
L 1131 2147 
L 1131 0 
L 503 0 
L 503 4591 
z
" transform="scale(0.015625)"/>
       </defs>
       <use xlink:href="#Helvetica-41"/>
       <use xlink:href="#Helvetica-48" x="66.699219"/>
       <use xlink:href="#Helvetica-52" x="138.916016"/>
       <use xlink:href="#Helvetica-2b" x="211.132812"/>
       <use xlink:href="#Helvetica-20" x="269.53125"/>
       <use xlink:href="#Helvetica-43" x="297.314453"/>
       <use xlink:href="#Helvetica-65" x="369.53125"/>
       <use xlink:href="#Helvetica-6c" x="425.146484"/>
       <use xlink:href="#Helvetica-6c" x="447.363281"/>
       <use xlink:href="#Helvetica-73" x="469.580078"/>
      </g>
     </g>
    </g>
   </g>
   <g id="matplotlib.axis_2">
    <g id="ytick_1">
     <g id="line2d_1">
      <defs>
       <path id="m81909e55dc" d="M 0 0 
L -1 0 
" style="stroke: #777777; stroke-width: 0.5"/>
      </defs>
      <g>
       <use xlink:href="#m81909e55dc" x="10.005084" y="66.168271" style="fill: #777777; stroke: #777777; stroke-width: 0.5"/>
      </g>
     </g>
     <g id="text_3">
      <!-- 0 -->
      <g style="fill: #333333" transform="translate(6.336802 67.244287) scale(0.03 -0.03)">
       <defs>
        <path id="Helvetica-30" d="M 1731 4475 
Q 2600 4475 2988 3759 
Q 3288 3206 3288 2244 
Q 3288 1331 3016 734 
Q 2622 -122 1728 -122 
Q 922 -122 528 578 
Q 200 1163 200 2147 
Q 200 2909 397 3456 
Q 766 4475 1731 4475 
z
M 1725 391 
Q 2163 391 2422 778 
Q 2681 1166 2681 2222 
Q 2681 2984 2493 3476 
Q 2306 3969 1766 3969 
Q 1269 3969 1039 3501 
Q 809 3034 809 2125 
Q 809 1441 956 1025 
Q 1181 391 1725 391 
z
" transform="scale(0.015625)"/>
       </defs>
       <use xlink:href="#Helvetica-30"/>
      </g>
     </g>
    </g>
    <g id="ytick_2">
     <g id="line2d_2">
      <g>
       <use xlink:href="#m81909e55dc" x="10.005084" y="55.819602" style="fill: #777777; stroke: #777777; stroke-width: 0.5"/>
      </g>
     </g>
     <g id="text_4">
      <!-- 20 -->
      <g style="fill: #333333" transform="translate(4.668521 56.895617) scale(0.03 -0.03)">
       <defs>
        <path id="Helvetica-32" d="M 200 0 
Q 231 578 439 1006 
Q 647 1434 1250 1784 
L 1850 2131 
Q 2253 2366 2416 2531 
Q 2672 2791 2672 3125 
Q 2672 3516 2437 3745 
Q 2203 3975 1813 3975 
Q 1234 3975 1013 3538 
Q 894 3303 881 2888 
L 309 2888 
Q 319 3472 525 3841 
Q 891 4491 1816 4491 
Q 2584 4491 2939 4075 
Q 3294 3659 3294 3150 
Q 3294 2613 2916 2231 
Q 2697 2009 2131 1694 
L 1703 1456 
Q 1397 1288 1222 1134 
Q 909 863 828 531 
L 3272 531 
L 3272 0 
L 200 0 
z
" transform="scale(0.015625)"/>
       </defs>
       <use xlink:href="#Helvetica-32"/>
       <use xlink:href="#Helvetica-30" x="55.615234"/>
      </g>
     </g>
    </g>
    <g id="ytick_3">
     <g id="line2d_3">
      <g>
       <use xlink:href="#m81909e55dc" x="10.005084" y="45.470933" style="fill: #777777; stroke: #777777; stroke-width: 0.5"/>
      </g>
     </g>
     <g id="text_5">
      <!-- 40 -->
      <g style="fill: #333333" transform="translate(4.668521 46.546948) scale(0.03 -0.03)">
       <defs>
        <path id="Helvetica-34" d="M 2116 1584 
L 2116 3613 
L 681 1584 
L 2116 1584 
z
M 2125 0 
L 2125 1094 
L 163 1094 
L 163 1644 
L 2213 4488 
L 2688 4488 
L 2688 1584 
L 3347 1584 
L 3347 1094 
L 2688 1094 
L 2688 0 
L 2125 0 
z
" transform="scale(0.015625)"/>
       </defs>
       <use xlink:href="#Helvetica-34"/>
       <use xlink:href="#Helvetica-30" x="55.615234"/>
      </g>
     </g>
    </g>
    <g id="ytick_4">
     <g id="line2d_4">
      <g>
       <use xlink:href="#m81909e55dc" x="10.005084" y="35.122263" style="fill: #777777; stroke: #777777; stroke-width: 0.5"/>
      </g>
     </g>
     <g id="text_6">
      <!-- 60 -->
      <g style="fill: #333333" transform="translate(4.668521 36.198279) scale(0.03 -0.03)">
       <defs>
        <path id="Helvetica-36" d="M 1872 4494 
Q 2622 4494 2917 4105 
Q 3213 3716 3213 3303 
L 2656 3303 
Q 2606 3569 2497 3719 
Q 2294 4000 1881 4000 
Q 1409 4000 1131 3564 
Q 853 3128 822 2316 
Q 1016 2600 1309 2741 
Q 1578 2866 1909 2866 
Q 2472 2866 2890 2506 
Q 3309 2147 3309 1434 
Q 3309 825 2912 354 
Q 2516 -116 1781 -116 
Q 1153 -116 697 361 
Q 241 838 241 1966 
Q 241 2800 444 3381 
Q 834 4494 1872 4494 
z
M 1831 384 
Q 2275 384 2495 682 
Q 2716 981 2716 1388 
Q 2716 1731 2519 2042 
Q 2322 2353 1803 2353 
Q 1441 2353 1167 2112 
Q 894 1872 894 1388 
Q 894 963 1142 673 
Q 1391 384 1831 384 
z
" transform="scale(0.015625)"/>
       </defs>
       <use xlink:href="#Helvetica-36"/>
       <use xlink:href="#Helvetica-30" x="55.615234"/>
      </g>
     </g>
    </g>
    <g id="ytick_5">
     <g id="line2d_5">
      <g>
       <use xlink:href="#m81909e55dc" x="10.005084" y="24.773594" style="fill: #777777; stroke: #777777; stroke-width: 0.5"/>
      </g>
     </g>
     <g id="text_7">
      <!-- 80 -->
      <g style="fill: #333333" transform="translate(4.668521 25.84961) scale(0.03 -0.03)">
       <defs>
        <path id="Helvetica-38" d="M 1741 2600 
Q 2113 2600 2322 2808 
Q 2531 3016 2531 3303 
Q 2531 3553 2331 3762 
Q 2131 3972 1722 3972 
Q 1316 3972 1134 3762 
Q 953 3553 953 3272 
Q 953 2956 1187 2778 
Q 1422 2600 1741 2600 
z
M 1775 384 
Q 2166 384 2423 595 
Q 2681 806 2681 1225 
Q 2681 1659 2415 1884 
Q 2150 2109 1734 2109 
Q 1331 2109 1076 1879 
Q 822 1650 822 1244 
Q 822 894 1055 639 
Q 1288 384 1775 384 
z
M 975 2384 
Q 741 2484 609 2619 
Q 363 2869 363 3269 
Q 363 3769 725 4128 
Q 1088 4488 1753 4488 
Q 2397 4488 2762 4148 
Q 3128 3809 3128 3356 
Q 3128 2938 2916 2678 
Q 2797 2531 2547 2391 
Q 2825 2263 2984 2097 
Q 3281 1784 3281 1284 
Q 3281 694 2884 283 
Q 2488 -128 1763 -128 
Q 1109 -128 657 226 
Q 206 581 206 1256 
Q 206 1653 400 1942 
Q 594 2231 975 2384 
z
" transform="scale(0.015625)"/>
       </defs>
       <use xlink:href="#Helvetica-38"/>
       <use xlink:href="#Helvetica-30" x="55.615234"/>
      </g>
     </g>
    </g>
    <g id="ytick_6">
     <g id="line2d_6">
      <g>
       <use xlink:href="#m81909e55dc" x="10.005084" y="14.424925" style="fill: #777777; stroke: #777777; stroke-width: 0.5"/>
      </g>
     </g>
     <g id="text_8">
      <!-- 100 -->
      <g style="fill: #333333" transform="translate(3.00024 15.50094) scale(0.03 -0.03)">
       <defs>
        <path id="Helvetica-31" d="M 613 3169 
L 613 3600 
Q 1222 3659 1462 3798 
Q 1703 3938 1822 4456 
L 2266 4456 
L 2266 0 
L 1666 0 
L 1666 3169 
L 613 3169 
z
" transform="scale(0.015625)"/>
       </defs>
       <use xlink:href="#Helvetica-31"/>
       <use xlink:href="#Helvetica-30" x="55.615234"/>
       <use xlink:href="#Helvetica-30" x="111.230469"/>
      </g>
     </g>
    </g>
    <g id="ytick_7">
     <g id="line2d_7">
      <g>
       <use xlink:href="#m81909e55dc" x="10.005084" y="4.076256" style="fill: #777777; stroke: #777777; stroke-width: 0.5"/>
      </g>
     </g>
     <g id="text_9">
      <!-- 120 -->
      <g style="fill: #333333" transform="translate(3.00024 5.152271) scale(0.03 -0.03)">
       <use xlink:href="#Helvetica-31"/>
       <use xlink:href="#Helvetica-32" x="55.615234"/>
       <use xlink:href="#Helvetica-30" x="111.230469"/>
      </g>
     </g>
    </g>
   </g>
   <g id="PolyCollection_1">
    <defs>
     <path id="m21762c89b6" d="M 22.23136 -15.742544 
L 19.356146 -15.742544 
L 19.105361 -16.058744 
L 18.829734 -16.374944 
L 18.530595 -16.691144 
L 18.210046 -17.007344 
L 17.870957 -17.323544 
L 17.516921 -17.639744 
L 17.152171 -17.955944 
L 16.781455 -18.272144 
L 16.409879 -18.588344 
L 16.042719 -18.904544 
L 15.685216 -19.220744 
L 15.342363 -19.536944 
L 15.018695 -19.853144 
L 14.718092 -20.169344 
L 14.443618 -20.485544 
L 14.197382 -20.801744 
L 13.980463 -21.117944 
L 13.792869 -21.434144 
L 13.633564 -21.750343 
L 13.500549 -22.066543 
L 13.390987 -22.382743 
L 13.301385 -22.698943 
L 13.227809 -23.015143 
L 13.166124 -23.331343 
L 13.112252 -23.647543 
L 13.062415 -23.963743 
L 13.013366 -24.279943 
L 12.962579 -24.596143 
L 12.908389 -24.912343 
L 12.85006 -25.228543 
L 12.787793 -25.544743 
L 12.722651 -25.860943 
L 12.656412 -26.177143 
L 12.591368 -26.493343 
L 12.530067 -26.809543 
L 12.475036 -27.125743 
L 12.428502 -27.441943 
L 12.39213 -27.758143 
L 12.366817 -28.074343 
L 12.352551 -28.390543 
L 12.348362 -28.706742 
L 12.352368 -29.022942 
L 12.361916 -29.339142 
L 12.37382 -29.655342 
L 12.384667 -29.971542 
L 12.391171 -30.287742 
L 12.390541 -30.603942 
L 12.380837 -30.920142 
L 12.361261 -31.236342 
L 12.332372 -31.552542 
L 12.296181 -31.868742 
L 12.256119 -32.184942 
L 12.216874 -32.501142 
L 12.184095 -32.817342 
L 12.163984 -33.133542 
L 12.162818 -33.449742 
L 12.18641 -33.765942 
L 12.239592 -34.082142 
L 12.325721 -34.398342 
L 12.446288 -34.714542 
L 12.600644 -35.030742 
L 12.785869 -35.346941 
L 12.996823 -35.663141 
L 13.226347 -35.979341 
L 13.465629 -36.295541 
L 13.704709 -36.611741 
L 13.933074 -36.927941 
L 14.140324 -37.244141 
L 14.316844 -37.560341 
L 14.454454 -37.876541 
L 14.546975 -38.192741 
L 14.590687 -38.508941 
L 14.58464 -38.825141 
L 14.530792 -39.141341 
L 14.433974 -39.457541 
L 14.301682 -39.773741 
L 14.143694 -40.089941 
L 13.971558 -40.406141 
L 13.797964 -40.722341 
L 13.636055 -41.038541 
L 13.498707 -41.354741 
L 13.397841 -41.670941 
L 13.343789 -41.987141 
L 13.344772 -42.30334 
L 13.406512 -42.61954 
L 13.531995 -42.93574 
L 13.721403 -43.25194 
L 13.972208 -43.56814 
L 14.27942 -43.88434 
L 14.63595 -44.20054 
L 15.033076 -44.51674 
L 15.46097 -44.83294 
L 15.909236 -45.14914 
L 16.367444 -45.46534 
L 16.825606 -45.78154 
L 17.274592 -46.09774 
L 17.706443 -46.41394 
L 18.11459 -46.73014 
L 18.49397 -47.04634 
L 23.093535 -47.04634 
L 23.093535 -47.04634 
L 23.472916 -46.73014 
L 23.881063 -46.41394 
L 24.312914 -46.09774 
L 24.7619 -45.78154 
L 25.220062 -45.46534 
L 25.678269 -45.14914 
L 26.126536 -44.83294 
L 26.554429 -44.51674 
L 26.951556 -44.20054 
L 27.308085 -43.88434 
L 27.615297 -43.56814 
L 27.866103 -43.25194 
L 28.055511 -42.93574 
L 28.180993 -42.61954 
L 28.242733 -42.30334 
L 28.243717 -41.987141 
L 28.189665 -41.670941 
L 28.088799 -41.354741 
L 27.951451 -41.038541 
L 27.789541 -40.722341 
L 27.615947 -40.406141 
L 27.443811 -40.089941 
L 27.285823 -39.773741 
L 27.153531 -39.457541 
L 27.056714 -39.141341 
L 27.002865 -38.825141 
L 26.996818 -38.508941 
L 27.040531 -38.192741 
L 27.133052 -37.876541 
L 27.270661 -37.560341 
L 27.447181 -37.244141 
L 27.654431 -36.927941 
L 27.882797 -36.611741 
L 28.121877 -36.295541 
L 28.361159 -35.979341 
L 28.590682 -35.663141 
L 28.801636 -35.346941 
L 28.986862 -35.030742 
L 29.141217 -34.714542 
L 29.261785 -34.398342 
L 29.347914 -34.082142 
L 29.401095 -33.765942 
L 29.424688 -33.449742 
L 29.423521 -33.133542 
L 29.403411 -32.817342 
L 29.370632 -32.501142 
L 29.331387 -32.184942 
L 29.291325 -31.868742 
L 29.255133 -31.552542 
L 29.226244 -31.236342 
L 29.206669 -30.920142 
L 29.196965 -30.603942 
L 29.196335 -30.287742 
L 29.202839 -29.971542 
L 29.213686 -29.655342 
L 29.22559 -29.339142 
L 29.235138 -29.022942 
L 29.239143 -28.706742 
L 29.234955 -28.390543 
L 29.220689 -28.074343 
L 29.195376 -27.758143 
L 29.159004 -27.441943 
L 29.112469 -27.125743 
L 29.057439 -26.809543 
L 28.996138 -26.493343 
L 28.931093 -26.177143 
L 28.864855 -25.860943 
L 28.799712 -25.544743 
L 28.737446 -25.228543 
L 28.679117 -24.912343 
L 28.624926 -24.596143 
L 28.57414 -24.279943 
L 28.525091 -23.963743 
L 28.475254 -23.647543 
L 28.421381 -23.331343 
L 28.359697 -23.015143 
L 28.28612 -22.698943 
L 28.196518 -22.382743 
L 28.086956 -22.066543 
L 27.953941 -21.750343 
L 27.794637 -21.434144 
L 27.607043 -21.117944 
L 27.390123 -20.801744 
L 27.143888 -20.485544 
L 26.869413 -20.169344 
L 26.568811 -19.853144 
L 26.245142 -19.536944 
L 25.902289 -19.220744 
L 25.544786 -18.904544 
L 25.177626 -18.588344 
L 24.80605 -18.272144 
L 24.435335 -17.955944 
L 24.070584 -17.639744 
L 23.716548 -17.323544 
L 23.377459 -17.007344 
L 23.05691 -16.691144 
L 22.757772 -16.374944 
L 22.482145 -16.058744 
L 22.23136 -15.742544 
z
" style="stroke: #6f6f6f; stroke-width: 0.15"/>
    </defs>
    <g clip-path="url(#p3514a9aa24)">
     <use xlink:href="#m21762c89b6" x="0" y="84.96" style="fill: #cfcfcf; stroke: #6f6f6f; stroke-width: 0.15"/>
    </g>
   </g>
   <g id="PolyCollection_2">
    <defs>
     <path id="m85e7911088" d="M 43.758451 -16.135498 
L 40.983731 -16.135498 
L 40.715075 -16.333506 
L 40.413456 -16.531515 
L 40.079 -16.729524 
L 39.712774 -16.927532 
L 39.316872 -17.125541 
L 38.894472 -17.32355 
L 38.449843 -17.521558 
L 37.988309 -17.719567 
L 37.516153 -17.917576 
L 37.040478 -18.115584 
L 36.569014 -18.313593 
L 36.109894 -18.511602 
L 35.671395 -18.70961 
L 35.261666 -18.907619 
L 34.888454 -19.105628 
L 34.558844 -19.303636 
L 34.27902 -19.501645 
L 34.054074 -19.699654 
L 33.887848 -19.897662 
L 33.78284 -20.095671 
L 33.740156 -20.29368 
L 33.759517 -20.491689 
L 33.83931 -20.689697 
L 33.97668 -20.887706 
L 34.167648 -21.085715 
L 34.407244 -21.283723 
L 34.68966 -21.481732 
L 35.008391 -21.679741 
L 35.356376 -21.877749 
L 35.726129 -22.075758 
L 36.109857 -22.273767 
L 36.499573 -22.471775 
L 36.887198 -22.669784 
L 37.264663 -22.867793 
L 37.624016 -23.065801 
L 37.957536 -23.26381 
L 38.257855 -23.461819 
L 38.518103 -23.659827 
L 38.732057 -23.857836 
L 38.894312 -24.055845 
L 39.00045 -24.253853 
L 39.047221 -24.451862 
L 39.032714 -24.649871 
L 38.956508 -24.847879 
L 38.819807 -25.045888 
L 38.625524 -25.243897 
L 38.378326 -25.441906 
L 38.084616 -25.639914 
L 37.752445 -25.837923 
L 37.391354 -26.035932 
L 37.012134 -26.23394 
L 36.626519 -26.431949 
L 36.246805 -26.629958 
L 35.885416 -26.827966 
L 35.55444 -27.025975 
L 35.265135 -27.223984 
L 35.027458 -27.421992 
L 34.849626 -27.620001 
L 34.737736 -27.81801 
L 34.695482 -28.016018 
L 34.723974 -28.214027 
L 34.821683 -28.412036 
L 34.984521 -28.610044 
L 35.206045 -28.808053 
L 35.477784 -29.006062 
L 35.789669 -29.20407 
L 36.130543 -29.402079 
L 36.488712 -29.600088 
L 36.852524 -29.798097 
L 37.210919 -29.996105 
L 37.553938 -30.194114 
L 37.873149 -30.392123 
L 38.161983 -30.590131 
L 38.415939 -30.78814 
L 38.632687 -30.986149 
L 38.812027 -31.184157 
L 38.955749 -31.382166 
L 39.067384 -31.580175 
L 39.151871 -31.778183 
L 39.215174 -31.976192 
L 39.263856 -32.174201 
L 39.304659 -32.372209 
L 39.344097 -32.570218 
L 39.388095 -32.768227 
L 39.441693 -32.966235 
L 39.508821 -33.164244 
L 39.592167 -33.362253 
L 39.693125 -33.560261 
L 39.811828 -33.75827 
L 39.947259 -33.956279 
L 40.097412 -34.154288 
L 40.259509 -34.352296 
L 40.430232 -34.550305 
L 40.605965 -34.748314 
L 40.783033 -34.946322 
L 40.957901 -35.144331 
L 41.127358 -35.34234 
L 41.288642 -35.540348 
L 41.439529 -35.738357 
L 43.302653 -35.738357 
L 43.302653 -35.738357 
L 43.45354 -35.540348 
L 43.614824 -35.34234 
L 43.784281 -35.144331 
L 43.959149 -34.946322 
L 44.136217 -34.748314 
L 44.31195 -34.550305 
L 44.482673 -34.352296 
L 44.64477 -34.154288 
L 44.794923 -33.956279 
L 44.930353 -33.75827 
L 45.049057 -33.560261 
L 45.150015 -33.362253 
L 45.233361 -33.164244 
L 45.300489 -32.966235 
L 45.354086 -32.768227 
L 45.398085 -32.570218 
L 45.437523 -32.372209 
L 45.478326 -32.174201 
L 45.527008 -31.976192 
L 45.59031 -31.778183 
L 45.674798 -31.580175 
L 45.786433 -31.382166 
L 45.930155 -31.184157 
L 46.109495 -30.986149 
L 46.326243 -30.78814 
L 46.580199 -30.590131 
L 46.869033 -30.392123 
L 47.188244 -30.194114 
L 47.531263 -29.996105 
L 47.889658 -29.798097 
L 48.25347 -29.600088 
L 48.611639 -29.402079 
L 48.952512 -29.20407 
L 49.264398 -29.006062 
L 49.536137 -28.808053 
L 49.757661 -28.610044 
L 49.920499 -28.412036 
L 50.018208 -28.214027 
L 50.0467 -28.016018 
L 50.004446 -27.81801 
L 49.892556 -27.620001 
L 49.714724 -27.421992 
L 49.477047 -27.223984 
L 49.187742 -27.025975 
L 48.856766 -26.827966 
L 48.495377 -26.629958 
L 48.115663 -26.431949 
L 47.730048 -26.23394 
L 47.350828 -26.035932 
L 46.989737 -25.837923 
L 46.657566 -25.639914 
L 46.363856 -25.441906 
L 46.116658 -25.243897 
L 45.922375 -25.045888 
L 45.785674 -24.847879 
L 45.709468 -24.649871 
L 45.694961 -24.451862 
L 45.741732 -24.253853 
L 45.84787 -24.055845 
L 46.010125 -23.857836 
L 46.224079 -23.659827 
L 46.484327 -23.461819 
L 46.784646 -23.26381 
L 47.118166 -23.065801 
L 47.477519 -22.867793 
L 47.854984 -22.669784 
L 48.242608 -22.471775 
L 48.632325 -22.273767 
L 49.016053 -22.075758 
L 49.385805 -21.877749 
L 49.73379 -21.679741 
L 50.052522 -21.481732 
L 50.334938 -21.283723 
L 50.574534 -21.085715 
L 50.765501 -20.887706 
L 50.902872 -20.689697 
L 50.982665 -20.491689 
L 51.002026 -20.29368 
L 50.959342 -20.095671 
L 50.854334 -19.897662 
L 50.688108 -19.699654 
L 50.463161 -19.501645 
L 50.183338 -19.303636 
L 49.853727 -19.105628 
L 49.480516 -18.907619 
L 49.070787 -18.70961 
L 48.632288 -18.511602 
L 48.173168 -18.313593 
L 47.701704 -18.115584 
L 47.226028 -17.917576 
L 46.753873 -17.719567 
L 46.292339 -17.521558 
L 45.84771 -17.32355 
L 45.42531 -17.125541 
L 45.029408 -16.927532 
L 44.663182 -16.729524 
L 44.328726 -16.531515 
L 44.027107 -16.333506 
L 43.758451 -16.135498 
z
" style="stroke: #6f6f6f; stroke-width: 0.15"/>
    </defs>
    <g clip-path="url(#p3514a9aa24)">
     <use xlink:href="#m85e7911088" x="0" y="84.96" style="fill: #f3f3ae; stroke: #6f6f6f; stroke-width: 0.15"/>
    </g>
   </g>
   <g id="line2d_8">
    <path d="M 20.793753 64.846628 
L 20.793753 42.284488 
" clip-path="url(#p3514a9aa24)" style="fill: none; stroke: #8c8c8c; stroke-width: 0.75; stroke-linecap: round"/>
   </g>
   <g id="line2d_9">
    <path d="M 20.793753 58.74737 
L 20.793753 48.155448 
" clip-path="url(#p3514a9aa24)" style="fill: none; stroke: #8c8c8c; stroke-width: 4; stroke-linecap: round"/>
   </g>
   <g id="line2d_10">
    <path d="M 20.793753 53.089554 
" clip-path="url(#p3514a9aa24)" style="fill: none; stroke: #6f6f6f; stroke-width: 1.2; stroke-linecap: round"/>
    <defs>
     <path id="m9566660cd2" d="M 0 0.833333 
C 0.221003 0.833333 0.432983 0.745528 0.589256 0.589256 
C 0.745528 0.432983 0.833333 0.221003 0.833333 0 
C 0.833333 -0.221003 0.745528 -0.432983 0.589256 -0.589256 
C 0.432983 -0.745528 0.221003 -0.833333 0 -0.833333 
C -0.221003 -0.833333 -0.432983 -0.745528 -0.589256 -0.589256 
C -0.745528 -0.432983 -0.833333 -0.221003 -0.833333 0 
C -0.833333 0.221003 -0.745528 0.432983 -0.589256 0.589256 
C -0.432983 0.745528 -0.221003 0.833333 0 0.833333 
z
" style="stroke: #ffffff; stroke-width: 0.8"/>
    </defs>
    <g clip-path="url(#p3514a9aa24)">
     <use xlink:href="#m9566660cd2" x="20.793753" y="53.089554" style="fill: #ffffff; stroke: #ffffff; stroke-width: 0.8"/>
    </g>
   </g>
   <g id="line2d_11">
    <path d="M 42.371091 66.14094 
L 42.371091 51.905206 
" clip-path="url(#p3514a9aa24)" style="fill: none; stroke: #8c8c8c; stroke-width: 0.75; stroke-linecap: round"/>
   </g>
   <g id="line2d_12">
    <path d="M 42.371091 64.48173 
L 42.371091 56.585752 
" clip-path="url(#p3514a9aa24)" style="fill: none; stroke: #8c8c8c; stroke-width: 4; stroke-linecap: round"/>
   </g>
   <g id="line2d_13">
    <path d="M 42.371091 60.227102 
" clip-path="url(#p3514a9aa24)" style="fill: none; stroke: #6f6f6f; stroke-width: 1.2; stroke-linecap: round"/>
    <g clip-path="url(#p3514a9aa24)">
     <use xlink:href="#m9566660cd2" x="42.371091" y="60.227102" style="fill: #ffffff; stroke: #ffffff; stroke-width: 0.8"/>
    </g>
   </g>
   <g id="patch_3">
    <path d="M 10.005084 74.395463 
L 10.005084 4.076256 
" style="fill: none; stroke: #777777; stroke-width: 0.5; stroke-linejoin: miter; stroke-linecap: square"/>
   </g>
   <g id="patch_4">
    <path d="M 10.005084 76.895463 
L 53.15976 76.895463 
" style="fill: none; stroke: #777777; stroke-width: 0.5; stroke-linejoin: miter; stroke-linecap: square"/>
   </g>
  </g>
 </g>
 <defs>
  <clipPath id="p3514a9aa24">
   <rect x="10.005084" y="4.076256" width="43.154676" height="70.319207"/>
  </clipPath>
 </defs>
</svg>
