<?xml version="1.0" encoding="utf-8" standalone="no"?>
<!DOCTYPE svg PUBLIC "-//W3C//DTD SVG 1.1//EN"
  "http://www.w3.org/Graphics/SVG/1.1/DTD/svg11.dtd">
<svg xmlns:xlink="http://www.w3.org/1999/xlink" width="254.88pt" height="84.96pt" viewBox="0 0 254.88 84.96" xmlns="http://www.w3.org/2000/svg" version="1.1">
 <metadata>
  <rdf:RDF xmlns:dc="http://purl.org/dc/elements/1.1/" xmlns:cc="http://creativecommons.org/ns#" xmlns:rdf="http://www.w3.org/1999/02/22-rdf-syntax-ns#">
   <cc:Work>
    <dc:type rdf:resource="http://purl.org/dc/dcmitype/StillImage"/>
    <dc:date>2024-05-27T15:36:57.868028</dc:date>
    <dc:format>image/svg+xml</dc:format>
    <dc:creator>
     <cc:Agent>
      <dc:title>Matplotlib v3.8.3, https://matplotlib.org/</dc:title>
     </cc:Agent>
    </dc:creator>
   </cc:Work>
  </rdf:RDF>
 </metadata>
 <defs>
  <style type="text/css">*{stroke-linejoin: round; stroke-linecap: butt}</style>
 </defs>
 <g id="figure_1">
  <g id="patch_1">
   <path d="M 0 84.96 
L 254.88 84.96 
L 254.88 0 
L 0 0 
z
" style="fill: #ffffff"/>
  </g>
  <g id="axes_1">
   <g id="patch_2">
    <path d="M 10.005084 54.222338 
L 251.87976 54.222338 
L 251.87976 4.076256 
L 10.005084 4.076256 
z
" style="fill: #ffffff"/>
   </g>
   <g id="matplotlib.axis_1">
    <g id="xtick_1">
     <g id="text_1">
      <!-- CD20+ Cells -->
      <g style="fill: #333333" transform="translate(24.333152 78.266166) rotate(-90) scale(0.035 -0.035)">
       <defs>
        <path id="Helvetica-43" d="M 2422 4716 
Q 3294 4716 3775 4256 
Q 4256 3797 4309 3213 
L 3703 3213 
Q 3600 3656 3292 3915 
Q 2984 4175 2428 4175 
Q 1750 4175 1333 3698 
Q 916 3222 916 2238 
Q 916 1431 1292 929 
Q 1669 428 2416 428 
Q 3103 428 3463 956 
Q 3653 1234 3747 1688 
L 4353 1688 
Q 4272 963 3816 472 
Q 3269 -119 2341 -119 
Q 1541 -119 997 366 
Q 281 1006 281 2344 
Q 281 3359 819 4009 
Q 1400 4716 2422 4716 
z
M 2297 4716 
L 2297 4716 
z
" transform="scale(0.015625)"/>
        <path id="Helvetica-44" d="M 2250 531 
Q 2566 531 2769 597 
Q 3131 719 3363 1066 
Q 3547 1344 3628 1778 
Q 3675 2038 3675 2259 
Q 3675 3113 3336 3584 
Q 2997 4056 2244 4056 
L 1141 4056 
L 1141 531 
L 2250 531 
z
M 516 4591 
L 2375 4591 
Q 3322 4591 3844 3919 
Q 4309 3313 4309 2366 
Q 4309 1634 4034 1044 
Q 3550 0 2369 0 
L 516 0 
L 516 4591 
z
" transform="scale(0.015625)"/>
        <path id="Helvetica-32" d="M 200 0 
Q 231 578 439 1006 
Q 647 1434 1250 1784 
L 1850 2131 
Q 2253 2366 2416 2531 
Q 2672 2791 2672 3125 
Q 2672 3516 2437 3745 
Q 2203 3975 1813 3975 
Q 1234 3975 1013 3538 
Q 894 3303 881 2888 
L 309 2888 
Q 319 3472 525 3841 
Q 891 4491 1816 4491 
Q 2584 4491 2939 4075 
Q 3294 3659 3294 3150 
Q 3294 2613 2916 2231 
Q 2697 2009 2131 1694 
L 1703 1456 
Q 1397 1288 1222 1134 
Q 909 863 828 531 
L 3272 531 
L 3272 0 
L 200 0 
z
" transform="scale(0.015625)"/>
        <path id="Helvetica-30" d="M 1731 4475 
Q 2600 4475 2988 3759 
Q 3288 3206 3288 2244 
Q 3288 1331 3016 734 
Q 2622 -122 1728 -122 
Q 922 -122 528 578 
Q 200 1163 200 2147 
Q 200 2909 397 3456 
Q 766 4475 1731 4475 
z
M 1725 391 
Q 2163 391 2422 778 
Q 2681 1166 2681 2222 
Q 2681 2984 2493 3476 
Q 2306 3969 1766 3969 
Q 1269 3969 1039 3501 
Q 809 3034 809 2125 
Q 809 1441 956 1025 
Q 1181 391 1725 391 
z
" transform="scale(0.015625)"/>
        <path id="Helvetica-2b" d="M 288 1369 
L 288 1894 
L 1650 1894 
L 1650 3266 
L 2184 3266 
L 2184 1894 
L 3547 1894 
L 3547 1369 
L 2184 1369 
L 2184 0 
L 1650 0 
L 1650 1369 
L 288 1369 
z
" transform="scale(0.015625)"/>
        <path id="Helvetica-20" transform="scale(0.015625)"/>
        <path id="Helvetica-65" d="M 1806 3422 
Q 2163 3422 2497 3255 
Q 2831 3088 3006 2822 
Q 3175 2569 3231 2231 
Q 3281 2000 3281 1494 
L 828 1494 
Q 844 984 1069 676 
Q 1294 369 1766 369 
Q 2206 369 2469 659 
Q 2619 828 2681 1050 
L 3234 1050 
Q 3213 866 3089 639 
Q 2966 413 2813 269 
Q 2556 19 2178 -69 
Q 1975 -119 1719 -119 
Q 1094 -119 659 336 
Q 225 791 225 1609 
Q 225 2416 662 2919 
Q 1100 3422 1806 3422 
z
M 2703 1941 
Q 2669 2306 2544 2525 
Q 2313 2931 1772 2931 
Q 1384 2931 1121 2651 
Q 859 2372 844 1941 
L 2703 1941 
z
M 1753 3428 
L 1753 3428 
z
" transform="scale(0.015625)"/>
        <path id="Helvetica-6c" d="M 428 4591 
L 991 4591 
L 991 0 
L 428 0 
L 428 4591 
z
" transform="scale(0.015625)"/>
        <path id="Helvetica-73" d="M 747 1050 
Q 772 769 888 619 
Q 1100 347 1625 347 
Q 1938 347 2175 483 
Q 2413 619 2413 903 
Q 2413 1119 2222 1231 
Q 2100 1300 1741 1391 
L 1294 1503 
Q 866 1609 663 1741 
Q 300 1969 300 2372 
Q 300 2847 642 3140 
Q 984 3434 1563 3434 
Q 2319 3434 2653 2991 
Q 2863 2709 2856 2384 
L 2325 2384 
Q 2309 2575 2191 2731 
Q 1997 2953 1519 2953 
Q 1200 2953 1036 2831 
Q 872 2709 872 2509 
Q 872 2291 1088 2159 
Q 1213 2081 1456 2022 
L 1828 1931 
Q 2434 1784 2641 1647 
Q 2969 1431 2969 969 
Q 2969 522 2630 197 
Q 2291 -128 1597 -128 
Q 850 -128 539 211 
Q 228 550 206 1050 
L 747 1050 
z
M 1578 3428 
L 1578 3428 
z
" transform="scale(0.015625)"/>
       </defs>
       <use xlink:href="#Helvetica-43"/>
       <use xlink:href="#Helvetica-44" x="72.216797"/>
       <use xlink:href="#Helvetica-32" x="144.433594"/>
       <use xlink:href="#Helvetica-30" x="200.048828"/>
       <use xlink:href="#Helvetica-2b" x="255.664062"/>
       <use xlink:href="#Helvetica-20" x="314.0625"/>
       <use xlink:href="#Helvetica-43" x="341.845703"/>
       <use xlink:href="#Helvetica-65" x="414.0625"/>
       <use xlink:href="#Helvetica-6c" x="469.677734"/>
       <use xlink:href="#Helvetica-6c" x="491.894531"/>
       <use xlink:href="#Helvetica-73" x="514.111328"/>
      </g>
     </g>
    </g>
    <g id="xtick_2">
     <g id="text_2">
      <!-- TCRαδ+ Cells -->
      <g style="fill: #333333" transform="translate(51.208116 80.786713) rotate(-90) scale(0.035 -0.035)">
       <defs>
        <path id="Helvetica-54" d="M 3828 4591 
L 3828 4044 
L 2281 4044 
L 2281 0 
L 1650 0 
L 1650 4044 
L 103 4044 
L 103 4591 
L 3828 4591 
z
" transform="scale(0.015625)"/>
        <path id="Helvetica-52" d="M 2622 2488 
Q 3059 2488 3314 2663 
Q 3569 2838 3569 3294 
Q 3569 3784 3213 3963 
Q 3022 4056 2703 4056 
L 1184 4056 
L 1184 2488 
L 2622 2488 
z
M 563 4591 
L 2688 4591 
Q 3213 4591 3553 4438 
Q 4200 4144 4200 3353 
Q 4200 2941 4029 2678 
Q 3859 2416 3553 2256 
Q 3822 2147 3958 1969 
Q 4094 1791 4109 1391 
L 4131 775 
Q 4141 513 4175 384 
Q 4231 166 4375 103 
L 4375 0 
L 3613 0 
Q 3581 59 3562 153 
Q 3544 247 3531 516 
L 3494 1281 
Q 3472 1731 3159 1884 
Q 2981 1969 2600 1969 
L 1184 1969 
L 1184 0 
L 563 0 
L 563 4591 
z
" transform="scale(0.015625)"/>
        <path id="Helvetica-3b1" d="M 3347 703 
Q 3334 428 3525 434 
Q 3641 434 3700 475 
L 3700 -19 
Q 3628 -44 3513 -50 
Q 3391 -63 3309 -63 
Q 3084 -56 2956 103 
Q 2816 256 2816 475 
L 2803 475 
Q 2413 -63 1734 -63 
Q 1006 -50 647 459 
Q 281 953 281 1644 
Q 281 2350 634 2859 
Q 984 3378 1741 3391 
Q 2413 3391 2797 2847 
L 2809 2847 
L 2809 3328 
L 3347 3328 
L 3347 703 
z
M 1825 397 
Q 2075 397 2253 513 
Q 2425 622 2541 806 
Q 2766 1184 2766 1638 
Q 2766 2144 2559 2528 
Q 2350 2919 1797 2931 
Q 1306 2919 1081 2534 
Q 856 2156 856 1697 
Q 856 1209 1081 819 
Q 1306 409 1825 397 
z
" transform="scale(0.015625)"/>
        <path id="Helvetica-3b4" d="M 666 4519 
L 3188 4519 
L 3188 4056 
L 1394 4056 
L 1394 4044 
L 2509 3303 
Q 3134 2881 3372 2469 
Q 3591 2053 3584 1600 
Q 3578 934 3163 447 
Q 2738 -50 1938 -63 
Q 1203 -56 769 403 
Q 331 850 325 1556 
Q 341 3066 1863 3188 
L 1863 3200 
L 666 4056 
L 666 4519 
z
M 1991 397 
Q 2497 403 2731 794 
Q 2969 1166 2969 1606 
Q 2969 1856 2919 2041 
Q 2866 2222 2791 2344 
Q 2713 2463 2638 2541 
Q 2559 2619 2509 2650 
Q 2381 2766 2156 2766 
Q 947 2766 941 1528 
Q 941 1056 1216 738 
Q 1491 403 1991 397 
z
" transform="scale(0.015625)"/>
       </defs>
       <use xlink:href="#Helvetica-54"/>
       <use xlink:href="#Helvetica-43" x="61.083984"/>
       <use xlink:href="#Helvetica-52" x="133.300781"/>
       <use xlink:href="#Helvetica-3b1" x="205.517578"/>
       <use xlink:href="#Helvetica-3b4" x="266.601562"/>
       <use xlink:href="#Helvetica-2b" x="327.685547"/>
       <use xlink:href="#Helvetica-20" x="386.083984"/>
       <use xlink:href="#Helvetica-43" x="413.867188"/>
       <use xlink:href="#Helvetica-65" x="486.083984"/>
       <use xlink:href="#Helvetica-6c" x="541.699219"/>
       <use xlink:href="#Helvetica-6c" x="563.916016"/>
       <use xlink:href="#Helvetica-73" x="586.132812"/>
      </g>
     </g>
    </g>
    <g id="xtick_3">
     <g id="text_3">
      <!-- IL7R+ Cells -->
      <g style="fill: #333333" transform="translate(78.08308 76.710854) rotate(-90) scale(0.035 -0.035)">
       <defs>
        <path id="Helvetica-49" d="M 628 4591 
L 1256 4591 
L 1256 0 
L 628 0 
L 628 4591 
z
" transform="scale(0.015625)"/>
        <path id="Helvetica-4c" d="M 488 4591 
L 1109 4591 
L 1109 547 
L 3434 547 
L 3434 0 
L 488 0 
L 488 4591 
z
" transform="scale(0.015625)"/>
        <path id="Helvetica-37" d="M 3347 4400 
L 3347 3909 
Q 3131 3700 2773 3181 
Q 2416 2663 2141 2063 
Q 1869 1478 1728 997 
Q 1638 688 1494 0 
L 872 0 
Q 1084 1281 1809 2550 
Q 2238 3294 2709 3834 
L 234 3834 
L 234 4400 
L 3347 4400 
z
" transform="scale(0.015625)"/>
       </defs>
       <use xlink:href="#Helvetica-49"/>
       <use xlink:href="#Helvetica-4c" x="27.783203"/>
       <use xlink:href="#Helvetica-37" x="83.398438"/>
       <use xlink:href="#Helvetica-52" x="139.013672"/>
       <use xlink:href="#Helvetica-2b" x="211.230469"/>
       <use xlink:href="#Helvetica-20" x="269.628906"/>
       <use xlink:href="#Helvetica-43" x="297.412109"/>
       <use xlink:href="#Helvetica-65" x="369.628906"/>
       <use xlink:href="#Helvetica-6c" x="425.244141"/>
       <use xlink:href="#Helvetica-6c" x="447.460938"/>
       <use xlink:href="#Helvetica-73" x="469.677734"/>
      </g>
     </g>
    </g>
    <g id="xtick_4">
     <g id="text_4">
      <!-- EOMES+ Cells -->
      <g style="fill: #333333" transform="translate(104.958044 81.95976) rotate(-90) scale(0.035 -0.035)">
       <defs>
        <path id="Helvetica-45" d="M 547 4591 
L 3894 4591 
L 3894 4028 
L 1153 4028 
L 1153 2634 
L 3688 2634 
L 3688 2103 
L 1153 2103 
L 1153 547 
L 3941 547 
L 3941 0 
L 547 0 
L 547 4591 
z
M 2244 4591 
L 2244 4591 
z
" transform="scale(0.015625)"/>
        <path id="Helvetica-4f" d="M 2469 4716 
Q 3684 4716 4269 3934 
Q 4725 3325 4725 2375 
Q 4725 1347 4203 666 
Q 3591 -134 2456 -134 
Q 1397 -134 791 566 
Q 250 1241 250 2272 
Q 250 3203 713 3866 
Q 1306 4716 2469 4716 
z
M 2531 422 
Q 3353 422 3720 1011 
Q 4088 1600 4088 2366 
Q 4088 3175 3664 3669 
Q 3241 4163 2506 4163 
Q 1794 4163 1344 3673 
Q 894 3184 894 2231 
Q 894 1469 1280 945 
Q 1666 422 2531 422 
z
M 2488 4716 
L 2488 4716 
z
" transform="scale(0.015625)"/>
        <path id="Helvetica-4d" d="M 472 4591 
L 1363 4591 
L 2681 709 
L 3991 4591 
L 4872 4591 
L 4872 0 
L 4281 0 
L 4281 2709 
Q 4281 2850 4287 3175 
Q 4294 3500 4294 3872 
L 2984 0 
L 2369 0 
L 1050 3872 
L 1050 3731 
Q 1050 3563 1058 3217 
Q 1066 2872 1066 2709 
L 1066 0 
L 472 0 
L 472 4591 
z
" transform="scale(0.015625)"/>
        <path id="Helvetica-53" d="M 894 1481 
Q 916 1091 1078 847 
Q 1388 391 2169 391 
Q 2519 391 2806 491 
Q 3363 684 3363 1184 
Q 3363 1559 3128 1719 
Q 2891 1875 2384 1991 
L 1763 2131 
Q 1153 2269 900 2434 
Q 463 2722 463 3294 
Q 463 3913 891 4309 
Q 1319 4706 2103 4706 
Q 2825 4706 3329 4357 
Q 3834 4009 3834 3244 
L 3250 3244 
Q 3203 3613 3050 3809 
Q 2766 4169 2084 4169 
Q 1534 4169 1293 3937 
Q 1053 3706 1053 3400 
Q 1053 3063 1334 2906 
Q 1519 2806 2169 2656 
L 2813 2509 
Q 3278 2403 3531 2219 
Q 3969 1897 3969 1284 
Q 3969 522 3414 194 
Q 2859 -134 2125 -134 
Q 1269 -134 784 303 
Q 300 738 309 1481 
L 894 1481 
z
M 2150 4716 
L 2150 4716 
z
" transform="scale(0.015625)"/>
       </defs>
       <use xlink:href="#Helvetica-45"/>
       <use xlink:href="#Helvetica-4f" x="66.699219"/>
       <use xlink:href="#Helvetica-4d" x="144.482422"/>
       <use xlink:href="#Helvetica-45" x="227.783203"/>
       <use xlink:href="#Helvetica-53" x="294.482422"/>
       <use xlink:href="#Helvetica-2b" x="361.181641"/>
       <use xlink:href="#Helvetica-20" x="419.580078"/>
       <use xlink:href="#Helvetica-43" x="447.363281"/>
       <use xlink:href="#Helvetica-65" x="519.580078"/>
       <use xlink:href="#Helvetica-6c" x="575.195312"/>
       <use xlink:href="#Helvetica-6c" x="597.412109"/>
       <use xlink:href="#Helvetica-73" x="619.628906"/>
      </g>
     </g>
    </g>
    <g id="xtick_5">
     <g id="text_5">
      <!-- TBX+ Cells -->
      <g style="fill: #333333" transform="translate(131.833008 76.125151) rotate(-90) scale(0.035 -0.035)">
       <defs>
        <path id="Helvetica-42" d="M 2213 2650 
Q 2606 2650 2825 2759 
Q 3169 2931 3169 3378 
Q 3169 3828 2803 3984 
Q 2597 4072 2191 4072 
L 1081 4072 
L 1081 2650 
L 2213 2650 
z
M 2422 531 
Q 2994 531 3238 863 
Q 3391 1072 3391 1369 
Q 3391 1869 2944 2050 
Q 2706 2147 2316 2147 
L 1081 2147 
L 1081 531 
L 2422 531 
z
M 472 4591 
L 2444 4591 
Q 3250 4591 3591 4109 
Q 3791 3825 3791 3453 
Q 3791 3019 3544 2741 
Q 3416 2594 3175 2472 
Q 3528 2338 3703 2169 
Q 4013 1869 4013 1341 
Q 4013 897 3734 538 
Q 3319 0 2413 0 
L 472 0 
L 472 4591 
z
" transform="scale(0.015625)"/>
        <path id="Helvetica-58" d="M 881 0 
L 131 0 
L 1775 2353 
L 234 4591 
L 1013 4591 
L 2184 2834 
L 3347 4591 
L 4088 4591 
L 2547 2353 
L 4163 0 
L 3391 0 
L 2153 1888 
L 881 0 
z
" transform="scale(0.015625)"/>
       </defs>
       <use xlink:href="#Helvetica-54"/>
       <use xlink:href="#Helvetica-42" x="61.083984"/>
       <use xlink:href="#Helvetica-58" x="127.783203"/>
       <use xlink:href="#Helvetica-2b" x="194.482422"/>
       <use xlink:href="#Helvetica-20" x="252.880859"/>
       <use xlink:href="#Helvetica-43" x="280.664062"/>
       <use xlink:href="#Helvetica-65" x="352.880859"/>
       <use xlink:href="#Helvetica-6c" x="408.496094"/>
       <use xlink:href="#Helvetica-6c" x="430.712891"/>
       <use xlink:href="#Helvetica-73" x="452.929688"/>
      </g>
     </g>
    </g>
    <g id="xtick_6">
     <g id="text_6">
      <!-- GATA+ Cells -->
      <g style="fill: #333333" transform="translate(158.707972 78.847494) rotate(-90) scale(0.035 -0.035)">
       <defs>
        <path id="Helvetica-47" d="M 2472 4709 
Q 3119 4709 3591 4459 
Q 4275 4100 4428 3200 
L 3813 3200 
Q 3700 3703 3347 3933 
Q 2994 4163 2456 4163 
Q 1819 4163 1383 3684 
Q 947 3206 947 2259 
Q 947 1441 1306 927 
Q 1666 413 2478 413 
Q 3100 413 3508 773 
Q 3916 1134 3925 1941 
L 2488 1941 
L 2488 2456 
L 4503 2456 
L 4503 0 
L 4103 0 
L 3953 591 
Q 3638 244 3394 109 
Q 2984 -122 2353 -122 
Q 1538 -122 950 406 
Q 309 1069 309 2225 
Q 309 3378 934 4059 
Q 1528 4709 2472 4709 
z
M 2369 4716 
L 2369 4716 
z
" transform="scale(0.015625)"/>
        <path id="Helvetica-41" d="M 2844 1881 
L 2147 3909 
L 1406 1881 
L 2844 1881 
z
M 1822 4591 
L 2525 4591 
L 4191 0 
L 3509 0 
L 3044 1375 
L 1228 1375 
L 731 0 
L 94 0 
L 1822 4591 
z
" transform="scale(0.015625)"/>
       </defs>
       <use xlink:href="#Helvetica-47"/>
       <use xlink:href="#Helvetica-41" x="77.783203"/>
       <use xlink:href="#Helvetica-54" x="144.482422"/>
       <use xlink:href="#Helvetica-41" x="205.566406"/>
       <use xlink:href="#Helvetica-2b" x="272.265625"/>
       <use xlink:href="#Helvetica-20" x="330.664062"/>
       <use xlink:href="#Helvetica-43" x="358.447266"/>
       <use xlink:href="#Helvetica-65" x="430.664062"/>
       <use xlink:href="#Helvetica-6c" x="486.279297"/>
       <use xlink:href="#Helvetica-6c" x="508.496094"/>
       <use xlink:href="#Helvetica-73" x="530.712891"/>
      </g>
     </g>
    </g>
    <g id="xtick_7">
     <g id="text_7">
      <!-- ICOS+ Cells -->
      <g style="fill: #333333" transform="translate(185.582936 77.875151) rotate(-90) scale(0.035 -0.035)">
       <use xlink:href="#Helvetica-49"/>
       <use xlink:href="#Helvetica-43" x="27.783203"/>
       <use xlink:href="#Helvetica-4f" x="100"/>
       <use xlink:href="#Helvetica-53" x="177.783203"/>
       <use xlink:href="#Helvetica-2b" x="244.482422"/>
       <use xlink:href="#Helvetica-20" x="302.880859"/>
       <use xlink:href="#Helvetica-43" x="330.664062"/>
       <use xlink:href="#Helvetica-65" x="402.880859"/>
       <use xlink:href="#Helvetica-6c" x="458.496094"/>
       <use xlink:href="#Helvetica-6c" x="480.712891"/>
       <use xlink:href="#Helvetica-73" x="502.929688"/>
      </g>
     </g>
    </g>
    <g id="xtick_8">
     <g id="text_8">
      <!-- RORγT+ Cells -->
      <g style="fill: #333333" transform="translate(212.469931 81.179916) rotate(-90) scale(0.035 -0.035)">
       <defs>
        <path id="Helvetica-3b3" d="M 1556 225 
L 581 2444 
Q 481 2700 416 2803 
Q 347 2894 244 2894 
Q 91 2888 56 2872 
L 56 3334 
Q 166 3384 313 3391 
Q 641 3391 788 3250 
Q 863 3188 922 3078 
Q 978 2963 1038 2809 
L 1844 878 
L 2828 3328 
L 3431 3328 
L 2131 225 
L 2131 -1253 
L 1556 -1253 
L 1556 225 
z
" transform="scale(0.015625)"/>
       </defs>
       <use xlink:href="#Helvetica-52"/>
       <use xlink:href="#Helvetica-4f" x="72.216797"/>
       <use xlink:href="#Helvetica-52" x="150"/>
       <use xlink:href="#Helvetica-3b3" x="222.216797"/>
       <use xlink:href="#Helvetica-54" x="277.832031"/>
       <use xlink:href="#Helvetica-2b" x="338.916016"/>
       <use xlink:href="#Helvetica-20" x="397.314453"/>
       <use xlink:href="#Helvetica-43" x="425.097656"/>
       <use xlink:href="#Helvetica-65" x="497.314453"/>
       <use xlink:href="#Helvetica-6c" x="552.929688"/>
       <use xlink:href="#Helvetica-6c" x="575.146484"/>
       <use xlink:href="#Helvetica-73" x="597.363281"/>
      </g>
     </g>
    </g>
    <g id="xtick_9">
     <g id="text_9">
      <!-- AHR+ Cells -->
      <g style="fill: #333333" transform="translate(239.332864 76.708119) rotate(-90) scale(0.035 -0.035)">
       <defs>
        <path id="Helvetica-48" d="M 503 4591 
L 1131 4591 
L 1131 2694 
L 3519 2694 
L 3519 4591 
L 4147 4591 
L 4147 0 
L 3519 0 
L 3519 2147 
L 1131 2147 
L 1131 0 
L 503 0 
L 503 4591 
z
" transform="scale(0.015625)"/>
       </defs>
       <use xlink:href="#Helvetica-41"/>
       <use xlink:href="#Helvetica-48" x="66.699219"/>
       <use xlink:href="#Helvetica-52" x="138.916016"/>
       <use xlink:href="#Helvetica-2b" x="211.132812"/>
       <use xlink:href="#Helvetica-20" x="269.53125"/>
       <use xlink:href="#Helvetica-43" x="297.314453"/>
       <use xlink:href="#Helvetica-65" x="369.53125"/>
       <use xlink:href="#Helvetica-6c" x="425.146484"/>
       <use xlink:href="#Helvetica-6c" x="447.363281"/>
       <use xlink:href="#Helvetica-73" x="469.580078"/>
      </g>
     </g>
    </g>
   </g>
   <g id="matplotlib.axis_2">
    <g id="ytick_1">
     <g id="line2d_1">
      <defs>
       <path id="mba67fafbe4" d="M 0 0 
L -1 0 
" style="stroke: #777777; stroke-width: 0.5"/>
      </defs>
      <g>
       <use xlink:href="#mba67fafbe4" x="10.005084" y="48.355357" style="fill: #777777; stroke: #777777; stroke-width: 0.5"/>
      </g>
     </g>
     <g id="text_10">
      <!-- 0 -->
      <g style="fill: #333333" transform="translate(6.336803 49.431373) scale(0.03 -0.03)">
       <use xlink:href="#Helvetica-30"/>
      </g>
     </g>
    </g>
    <g id="ytick_2">
     <g id="line2d_2">
      <g>
       <use xlink:href="#mba67fafbe4" x="10.005084" y="40.975507" style="fill: #777777; stroke: #777777; stroke-width: 0.5"/>
      </g>
     </g>
     <g id="text_11">
      <!-- 20 -->
      <g style="fill: #333333" transform="translate(4.668521 42.051523) scale(0.03 -0.03)">
       <use xlink:href="#Helvetica-32"/>
       <use xlink:href="#Helvetica-30" x="55.615234"/>
      </g>
     </g>
    </g>
    <g id="ytick_3">
     <g id="line2d_3">
      <g>
       <use xlink:href="#mba67fafbe4" x="10.005084" y="33.595657" style="fill: #777777; stroke: #777777; stroke-width: 0.5"/>
      </g>
     </g>
     <g id="text_12">
      <!-- 40 -->
      <g style="fill: #333333" transform="translate(4.668521 34.671672) scale(0.03 -0.03)">
       <defs>
        <path id="Helvetica-34" d="M 2116 1584 
L 2116 3613 
L 681 1584 
L 2116 1584 
z
M 2125 0 
L 2125 1094 
L 163 1094 
L 163 1644 
L 2213 4488 
L 2688 4488 
L 2688 1584 
L 3347 1584 
L 3347 1094 
L 2688 1094 
L 2688 0 
L 2125 0 
z
" transform="scale(0.015625)"/>
       </defs>
       <use xlink:href="#Helvetica-34"/>
       <use xlink:href="#Helvetica-30" x="55.615234"/>
      </g>
     </g>
    </g>
    <g id="ytick_4">
     <g id="line2d_4">
      <g>
       <use xlink:href="#mba67fafbe4" x="10.005084" y="26.215806" style="fill: #777777; stroke: #777777; stroke-width: 0.5"/>
      </g>
     </g>
     <g id="text_13">
      <!-- 60 -->
      <g style="fill: #333333" transform="translate(4.668521 27.291822) scale(0.03 -0.03)">
       <defs>
        <path id="Helvetica-36" d="M 1872 4494 
Q 2622 4494 2917 4105 
Q 3213 3716 3213 3303 
L 2656 3303 
Q 2606 3569 2497 3719 
Q 2294 4000 1881 4000 
Q 1409 4000 1131 3564 
Q 853 3128 822 2316 
Q 1016 2600 1309 2741 
Q 1578 2866 1909 2866 
Q 2472 2866 2890 2506 
Q 3309 2147 3309 1434 
Q 3309 825 2912 354 
Q 2516 -116 1781 -116 
Q 1153 -116 697 361 
Q 241 838 241 1966 
Q 241 2800 444 3381 
Q 834 4494 1872 4494 
z
M 1831 384 
Q 2275 384 2495 682 
Q 2716 981 2716 1388 
Q 2716 1731 2519 2042 
Q 2322 2353 1803 2353 
Q 1441 2353 1167 2112 
Q 894 1872 894 1388 
Q 894 963 1142 673 
Q 1391 384 1831 384 
z
" transform="scale(0.015625)"/>
       </defs>
       <use xlink:href="#Helvetica-36"/>
       <use xlink:href="#Helvetica-30" x="55.615234"/>
      </g>
     </g>
    </g>
    <g id="ytick_5">
     <g id="line2d_5">
      <g>
       <use xlink:href="#mba67fafbe4" x="10.005084" y="18.835956" style="fill: #777777; stroke: #777777; stroke-width: 0.5"/>
      </g>
     </g>
     <g id="text_14">
      <!-- 80 -->
      <g style="fill: #333333" transform="translate(4.668521 19.911972) scale(0.03 -0.03)">
       <defs>
        <path id="Helvetica-38" d="M 1741 2600 
Q 2113 2600 2322 2808 
Q 2531 3016 2531 3303 
Q 2531 3553 2331 3762 
Q 2131 3972 1722 3972 
Q 1316 3972 1134 3762 
Q 953 3553 953 3272 
Q 953 2956 1187 2778 
Q 1422 2600 1741 2600 
z
M 1775 384 
Q 2166 384 2423 595 
Q 2681 806 2681 1225 
Q 2681 1659 2415 1884 
Q 2150 2109 1734 2109 
Q 1331 2109 1076 1879 
Q 822 1650 822 1244 
Q 822 894 1055 639 
Q 1288 384 1775 384 
z
M 975 2384 
Q 741 2484 609 2619 
Q 363 2869 363 3269 
Q 363 3769 725 4128 
Q 1088 4488 1753 4488 
Q 2397 4488 2762 4148 
Q 3128 3809 3128 3356 
Q 3128 2938 2916 2678 
Q 2797 2531 2547 2391 
Q 2825 2263 2984 2097 
Q 3281 1784 3281 1284 
Q 3281 694 2884 283 
Q 2488 -128 1763 -128 
Q 1109 -128 657 226 
Q 206 581 206 1256 
Q 206 1653 400 1942 
Q 594 2231 975 2384 
z
" transform="scale(0.015625)"/>
       </defs>
       <use xlink:href="#Helvetica-38"/>
       <use xlink:href="#Helvetica-30" x="55.615234"/>
      </g>
     </g>
    </g>
    <g id="ytick_6">
     <g id="line2d_6">
      <g>
       <use xlink:href="#mba67fafbe4" x="10.005084" y="11.456106" style="fill: #777777; stroke: #777777; stroke-width: 0.5"/>
      </g>
     </g>
     <g id="text_15">
      <!-- 100 -->
      <g style="fill: #333333" transform="translate(3.00024 12.532122) scale(0.03 -0.03)">
       <defs>
        <path id="Helvetica-31" d="M 613 3169 
L 613 3600 
Q 1222 3659 1462 3798 
Q 1703 3938 1822 4456 
L 2266 4456 
L 2266 0 
L 1666 0 
L 1666 3169 
L 613 3169 
z
" transform="scale(0.015625)"/>
       </defs>
       <use xlink:href="#Helvetica-31"/>
       <use xlink:href="#Helvetica-30" x="55.615234"/>
       <use xlink:href="#Helvetica-30" x="111.230469"/>
      </g>
     </g>
    </g>
    <g id="ytick_7">
     <g id="line2d_7">
      <g>
       <use xlink:href="#mba67fafbe4" x="10.005084" y="4.076256" style="fill: #777777; stroke: #777777; stroke-width: 0.5"/>
      </g>
     </g>
     <g id="text_16">
      <!-- 120 -->
      <g style="fill: #333333" transform="translate(3.00024 5.152271) scale(0.03 -0.03)">
       <use xlink:href="#Helvetica-31"/>
       <use xlink:href="#Helvetica-32" x="55.615234"/>
       <use xlink:href="#Helvetica-30" x="111.230469"/>
      </g>
     </g>
    </g>
   </g>
   <g id="PolyCollection_1">
    <defs>
     <path id="me601030045" d="M 24.220337 -36.343344 
L 22.664795 -36.343344 
L 22.439975 -36.405182 
L 22.181615 -36.467021 
L 21.895265 -36.528859 
L 21.59009 -36.590697 
L 21.278703 -36.652535 
L 20.976507 -36.714373 
L 20.700553 -36.776211 
L 20.468004 -36.838049 
L 20.294398 -36.899888 
L 20.191938 -36.961726 
L 20.168076 -37.023564 
L 20.224622 -37.085402 
L 20.357512 -37.14724 
L 20.557293 -37.209078 
L 20.810232 -37.270916 
L 21.099871 -37.332755 
L 21.408788 -37.394593 
L 21.720294 -37.456431 
L 22.019842 -37.518269 
L 22.295988 -37.580107 
L 22.54084 -37.641945 
L 22.750003 -37.703783 
L 22.922119 -37.765622 
L 23.058116 -37.82746 
L 23.16031 -37.889298 
L 23.231473 -37.951136 
L 23.273965 -38.012974 
L 23.288981 -38.074812 
L 23.275959 -38.13665 
L 23.232159 -38.198489 
L 23.152454 -38.260327 
L 23.029343 -38.322165 
L 22.853252 -38.384003 
L 22.613152 -38.445841 
L 22.297526 -38.507679 
L 21.895675 -38.569517 
L 21.399308 -38.631356 
L 20.804269 -38.693194 
L 20.112203 -38.755032 
L 19.331913 -38.81687 
L 18.480122 -38.878708 
L 17.581424 -38.940546 
L 16.667255 -39.002384 
L 15.773872 -39.064223 
L 14.939465 -39.126061 
L 14.200709 -39.187899 
L 13.589141 -39.249737 
L 13.127867 -39.311575 
L 12.829053 -39.373413 
L 12.69258 -39.435251 
L 12.706119 -39.49709 
L 12.846631 -39.558928 
L 13.083149 -39.620766 
L 13.380481 -39.682604 
L 13.703334 -39.744442 
L 14.020329 -39.80628 
L 14.307353 -39.868118 
L 14.549833 -39.929957 
L 14.743653 -39.991795 
L 14.894636 -40.053633 
L 15.016736 -40.115471 
L 15.129247 -40.177309 
L 15.253461 -40.239147 
L 15.40928 -40.300985 
L 15.612246 -40.362824 
L 15.871372 -40.424662 
L 16.188034 -40.4865 
L 16.555974 -40.548338 
L 16.96236 -40.610176 
L 17.389653 -40.672014 
L 17.817964 -40.733852 
L 18.227538 -40.795691 
L 18.601018 -40.857529 
L 18.925194 -40.919367 
L 19.192069 -40.981205 
L 19.399185 -41.043043 
L 19.549262 -41.104881 
L 19.649316 -41.166719 
L 19.709462 -41.228558 
L 19.741619 -41.290396 
L 19.758314 -41.352234 
L 19.771686 -41.414072 
L 19.792768 -41.47591 
L 19.830998 -41.537748 
L 19.893924 -41.599586 
L 19.987015 -41.661425 
L 20.113537 -41.723263 
L 20.274461 -41.785101 
L 20.468441 -41.846939 
L 20.691884 -41.908777 
L 20.939174 -41.970615 
L 21.203068 -42.032453 
L 21.475257 -42.094292 
L 21.747049 -42.15613 
L 22.010091 -42.217968 
L 22.257028 -42.279806 
L 22.482031 -42.341644 
L 22.681119 -42.403482 
L 22.852245 -42.46532 
L 24.032886 -42.46532 
L 24.032886 -42.46532 
L 24.204013 -42.403482 
L 24.4031 -42.341644 
L 24.628104 -42.279806 
L 24.875041 -42.217968 
L 25.138082 -42.15613 
L 25.409875 -42.094292 
L 25.682064 -42.032453 
L 25.945957 -41.970615 
L 26.193247 -41.908777 
L 26.41669 -41.846939 
L 26.61067 -41.785101 
L 26.771595 -41.723263 
L 26.898116 -41.661425 
L 26.991208 -41.599586 
L 27.054134 -41.537748 
L 27.092364 -41.47591 
L 27.113445 -41.414072 
L 27.126818 -41.352234 
L 27.143512 -41.290396 
L 27.17567 -41.228558 
L 27.235816 -41.166719 
L 27.33587 -41.104881 
L 27.485946 -41.043043 
L 27.693062 -40.981205 
L 27.959937 -40.919367 
L 28.284113 -40.857529 
L 28.657593 -40.795691 
L 29.067168 -40.733852 
L 29.495478 -40.672014 
L 29.922771 -40.610176 
L 30.329158 -40.548338 
L 30.697098 -40.4865 
L 31.013759 -40.424662 
L 31.272886 -40.362824 
L 31.475851 -40.300985 
L 31.631671 -40.239147 
L 31.755885 -40.177309 
L 31.868396 -40.115471 
L 31.990496 -40.053633 
L 32.141479 -39.991795 
L 32.335298 -39.929957 
L 32.577779 -39.868118 
L 32.864802 -39.80628 
L 33.181797 -39.744442 
L 33.50465 -39.682604 
L 33.801982 -39.620766 
L 34.038501 -39.558928 
L 34.179012 -39.49709 
L 34.192551 -39.435251 
L 34.056079 -39.373413 
L 33.757264 -39.311575 
L 33.295991 -39.249737 
L 32.684423 -39.187899 
L 31.945666 -39.126061 
L 31.11126 -39.064223 
L 30.217876 -39.002384 
L 29.303708 -38.940546 
L 28.40501 -38.878708 
L 27.553219 -38.81687 
L 26.772928 -38.755032 
L 26.080863 -38.693194 
L 25.485824 -38.631356 
L 24.989457 -38.569517 
L 24.587606 -38.507679 
L 24.271979 -38.445841 
L 24.031879 -38.384003 
L 23.855789 -38.322165 
L 23.732678 -38.260327 
L 23.652972 -38.198489 
L 23.609173 -38.13665 
L 23.596151 -38.074812 
L 23.611167 -38.012974 
L 23.653659 -37.951136 
L 23.724822 -37.889298 
L 23.827015 -37.82746 
L 23.963012 -37.765622 
L 24.135128 -37.703783 
L 24.344291 -37.641945 
L 24.589143 -37.580107 
L 24.86529 -37.518269 
L 25.164838 -37.456431 
L 25.476344 -37.394593 
L 25.785261 -37.332755 
L 26.0749 -37.270916 
L 26.327838 -37.209078 
L 26.52762 -37.14724 
L 26.66051 -37.085402 
L 26.717056 -37.023564 
L 26.693194 -36.961726 
L 26.590733 -36.899888 
L 26.417127 -36.838049 
L 26.184579 -36.776211 
L 25.908624 -36.714373 
L 25.606429 -36.652535 
L 25.295041 -36.590697 
L 24.989866 -36.528859 
L 24.703517 -36.467021 
L 24.445157 -36.405182 
L 24.220337 -36.343344 
z
" style="stroke: #6f6f6f; stroke-width: 0.15"/>
    </defs>
    <g clip-path="url(#p3c60588cbf)">
     <use xlink:href="#me601030045" x="0" y="84.96" style="fill: #abc9ea; stroke: #6f6f6f; stroke-width: 0.15"/>
    </g>
   </g>
   <g id="PolyCollection_2">
    <defs>
     <path id="mae6a2a07fd" d="M 51.429665 -35.540546 
L 49.205395 -35.540546 
L 48.902579 -35.726044 
L 48.555422 -35.911542 
L 48.168351 -36.09704 
L 47.748605 -36.282538 
L 47.305803 -36.468035 
L 46.851143 -36.653533 
L 46.396296 -36.839031 
L 45.95215 -37.024529 
L 45.527575 -37.210027 
L 45.128399 -37.395525 
L 44.756774 -37.581023 
L 44.411029 -37.76652 
L 44.086053 -37.952018 
L 43.774143 -38.137516 
L 43.466213 -38.323014 
L 43.153183 -38.508512 
L 42.827372 -38.69401 
L 42.483734 -38.879508 
L 42.120802 -39.065006 
L 41.741256 -39.250503 
L 41.352075 -39.436001 
L 40.964286 -39.621499 
L 40.592312 -39.806997 
L 40.252991 -39.992495 
L 39.964302 -40.177993 
L 39.743902 -40.363491 
L 39.607546 -40.548988 
L 39.567544 -40.734486 
L 39.631382 -40.919984 
L 39.800677 -41.105482 
L 40.070615 -41.29098 
L 40.429993 -41.476478 
L 40.861911 -41.661976 
L 41.345097 -41.847474 
L 41.855729 -42.032971 
L 42.369575 -42.218469 
L 42.86418 -42.403967 
L 43.320829 -42.589465 
L 43.726061 -42.774963 
L 44.072535 -42.960461 
L 44.359193 -43.145959 
L 44.59072 -43.331456 
L 44.776444 -43.516954 
L 44.928843 -43.702452 
L 45.061888 -43.88795 
L 45.189445 -44.073448 
L 45.323908 -44.258946 
L 45.475196 -44.444444 
L 45.650172 -44.629942 
L 45.852474 -44.815439 
L 46.082684 -45.000937 
L 46.338767 -45.186435 
L 46.616632 -45.371933 
L 46.91074 -45.557431 
L 47.214661 -45.742929 
L 47.521533 -45.928427 
L 47.824408 -46.113924 
L 48.1165 -46.299422 
L 48.391358 -46.48492 
L 48.643008 -46.670418 
L 48.866105 -46.855916 
L 49.056092 -47.041414 
L 49.209399 -47.226912 
L 49.323634 -47.41241 
L 49.397775 -47.597907 
L 49.432288 -47.783405 
L 49.429179 -47.968903 
L 49.391913 -48.154401 
L 49.325218 -48.339899 
L 49.234764 -48.525397 
L 49.12675 -48.710895 
L 49.007443 -48.896392 
L 48.882724 -49.08189 
L 48.757714 -49.267388 
L 48.63653 -49.452886 
L 48.522196 -49.638384 
L 48.416745 -49.823882 
L 48.321447 -50.00938 
L 48.237156 -50.194878 
L 48.164662 -50.380375 
L 48.105006 -50.565873 
L 48.059673 -50.751371 
L 48.030639 -50.936869 
L 48.020243 -51.122367 
L 48.030926 -51.307865 
L 48.064866 -51.493363 
L 48.123589 -51.67886 
L 48.207608 -51.864358 
L 48.316167 -52.049856 
L 48.447121 -52.235354 
L 48.596983 -52.420852 
L 48.76113 -52.60635 
L 48.934145 -52.791848 
L 49.110248 -52.977346 
L 49.28375 -53.162843 
L 49.449489 -53.348341 
L 49.60318 -53.533839 
L 49.741653 -53.719337 
L 49.862952 -53.904835 
L 50.772108 -53.904835 
L 50.772108 -53.904835 
L 50.893407 -53.719337 
L 51.031879 -53.533839 
L 51.185571 -53.348341 
L 51.35131 -53.162843 
L 51.524812 -52.977346 
L 51.700914 -52.791848 
L 51.87393 -52.60635 
L 52.038077 -52.420852 
L 52.187938 -52.235354 
L 52.318892 -52.049856 
L 52.427451 -51.864358 
L 52.511471 -51.67886 
L 52.570193 -51.493363 
L 52.604134 -51.307865 
L 52.614816 -51.122367 
L 52.60442 -50.936869 
L 52.575386 -50.751371 
L 52.530054 -50.565873 
L 52.470397 -50.380375 
L 52.397904 -50.194878 
L 52.313612 -50.00938 
L 52.218315 -49.823882 
L 52.112863 -49.638384 
L 51.99853 -49.452886 
L 51.877345 -49.267388 
L 51.752336 -49.08189 
L 51.627617 -48.896392 
L 51.508309 -48.710895 
L 51.400296 -48.525397 
L 51.309842 -48.339899 
L 51.243146 -48.154401 
L 51.20588 -47.968903 
L 51.202771 -47.783405 
L 51.237285 -47.597907 
L 51.311425 -47.41241 
L 51.425661 -47.226912 
L 51.578967 -47.041414 
L 51.768955 -46.855916 
L 51.992052 -46.670418 
L 52.243702 -46.48492 
L 52.518559 -46.299422 
L 52.810651 -46.113924 
L 53.113527 -45.928427 
L 53.420399 -45.742929 
L 53.72432 -45.557431 
L 54.018428 -45.371933 
L 54.296293 -45.186435 
L 54.552375 -45.000937 
L 54.782586 -44.815439 
L 54.984887 -44.629942 
L 55.159864 -44.444444 
L 55.311152 -44.258946 
L 55.445614 -44.073448 
L 55.573171 -43.88795 
L 55.706216 -43.702452 
L 55.858615 -43.516954 
L 56.04434 -43.331456 
L 56.275867 -43.145959 
L 56.562524 -42.960461 
L 56.908999 -42.774963 
L 57.31423 -42.589465 
L 57.77088 -42.403967 
L 58.265484 -42.218469 
L 58.779331 -42.032971 
L 59.289963 -41.847474 
L 59.773148 -41.661976 
L 60.205067 -41.476478 
L 60.564445 -41.29098 
L 60.834383 -41.105482 
L 61.003677 -40.919984 
L 61.067515 -40.734486 
L 61.027514 -40.548988 
L 60.891158 -40.363491 
L 60.670757 -40.177993 
L 60.382069 -39.992495 
L 60.042747 -39.806997 
L 59.670774 -39.621499 
L 59.282984 -39.436001 
L 58.893804 -39.250503 
L 58.514257 -39.065006 
L 58.151326 -38.879508 
L 57.807688 -38.69401 
L 57.481877 -38.508512 
L 57.168846 -38.323014 
L 56.860916 -38.137516 
L 56.549006 -37.952018 
L 56.22403 -37.76652 
L 55.878286 -37.581023 
L 55.506661 -37.395525 
L 55.107485 -37.210027 
L 54.68291 -37.024529 
L 54.238764 -36.839031 
L 53.783917 -36.653533 
L 53.329256 -36.468035 
L 52.886455 -36.282538 
L 52.466709 -36.09704 
L 52.079638 -35.911542 
L 51.732481 -35.726044 
L 51.429665 -35.540546 
z
" style="stroke: #6f6f6f; stroke-width: 0.15"/>
    </defs>
    <g clip-path="url(#p3c60588cbf)">
     <use xlink:href="#mae6a2a07fd" x="0" y="84.96" style="fill: #efb792; stroke: #6f6f6f; stroke-width: 0.15"/>
    </g>
   </g>
   <g id="PolyCollection_3">
    <defs>
     <path id="m58f24c3b9d" d="M 78.438295 -35.751011 
L 75.946693 -35.751011 
L 75.53374 -35.982204 
L 75.034032 -36.213397 
L 74.447045 -36.44459 
L 73.778414 -36.675782 
L 73.040838 -36.906975 
L 72.254325 -37.138168 
L 71.445595 -37.369361 
L 70.646569 -37.600554 
L 69.89204 -37.831747 
L 69.216725 -38.06294 
L 68.652066 -38.294133 
L 68.223162 -38.525326 
L 67.946239 -38.756519 
L 67.826963 -38.987712 
L 67.859784 -39.218905 
L 68.028337 -39.450098 
L 68.306788 -39.681291 
L 68.66194 -39.912484 
L 69.055836 -40.143677 
L 69.448646 -40.37487 
L 69.801604 -40.606063 
L 70.079846 -40.837256 
L 70.254989 -41.068449 
L 70.307298 -41.299642 
L 70.227293 -41.530835 
L 70.016626 -41.762028 
L 69.688078 -41.993221 
L 69.264584 -42.224413 
L 68.777289 -42.455606 
L 68.262715 -42.686799 
L 67.759312 -42.917992 
L 67.303694 -43.149185 
L 66.927013 -43.380378 
L 66.651876 -43.611571 
L 66.490234 -43.842764 
L 66.442508 -44.073957 
L 66.49811 -44.30515 
L 66.637287 -44.536343 
L 66.834055 -44.767536 
L 67.059802 -44.998729 
L 67.287041 -45.229922 
L 67.492791 -45.461115 
L 67.661113 -45.692308 
L 67.784498 -45.923501 
L 67.864 -46.154694 
L 67.908224 -46.385887 
L 67.931431 -46.61708 
L 67.95116 -46.848273 
L 67.985753 -47.079466 
L 68.052125 -47.310659 
L 68.163991 -47.541852 
L 68.330671 -47.773044 
L 68.556432 -48.004237 
L 68.840327 -48.23543 
L 69.176442 -48.466623 
L 69.554508 -48.697816 
L 69.960849 -48.929009 
L 70.379681 -49.160202 
L 70.794694 -49.391395 
L 71.190837 -49.622588 
L 71.556088 -49.853781 
L 71.882974 -50.084974 
L 72.169532 -50.316167 
L 72.419522 -50.54736 
L 72.641746 -50.778553 
L 72.848562 -51.009746 
L 73.053809 -51.240939 
L 73.270492 -51.472132 
L 73.508644 -51.703325 
L 73.773721 -51.934518 
L 74.065792 -52.165711 
L 74.37961 -52.396904 
L 74.705462 -52.628097 
L 75.030612 -52.85929 
L 75.341004 -53.090483 
L 75.622962 -53.321675 
L 75.864634 -53.552868 
L 76.057051 -53.784061 
L 76.194751 -54.015254 
L 76.276019 -54.246447 
L 76.30282 -54.47764 
L 76.28051 -54.708833 
L 76.217384 -54.940026 
L 76.124102 -55.171219 
L 76.012972 -55.402412 
L 75.897108 -55.633605 
L 75.789475 -55.864798 
L 75.701872 -56.095991 
L 75.643952 -56.327184 
L 75.622409 -56.558377 
L 75.640441 -56.78957 
L 75.6976 -57.020763 
L 75.790048 -57.251956 
L 75.911196 -57.483149 
L 76.052626 -57.714342 
L 76.205139 -57.945535 
L 76.35979 -58.176728 
L 76.508742 -58.407921 
L 76.645865 -58.639114 
L 77.739122 -58.639114 
L 77.739122 -58.639114 
L 77.876246 -58.407921 
L 78.025198 -58.176728 
L 78.179848 -57.945535 
L 78.332362 -57.714342 
L 78.473791 -57.483149 
L 78.59494 -57.251956 
L 78.687388 -57.020763 
L 78.744547 -56.78957 
L 78.762579 -56.558377 
L 78.741036 -56.327184 
L 78.683116 -56.095991 
L 78.595512 -55.864798 
L 78.48788 -55.633605 
L 78.372016 -55.402412 
L 78.260886 -55.171219 
L 78.167603 -54.940026 
L 78.104478 -54.708833 
L 78.082167 -54.47764 
L 78.108968 -54.246447 
L 78.190236 -54.015254 
L 78.327936 -53.784061 
L 78.520353 -53.552868 
L 78.762026 -53.321675 
L 79.043984 -53.090483 
L 79.354375 -52.85929 
L 79.679525 -52.628097 
L 80.005378 -52.396904 
L 80.319195 -52.165711 
L 80.611267 -51.934518 
L 80.876344 -51.703325 
L 81.114495 -51.472132 
L 81.331179 -51.240939 
L 81.536426 -51.009746 
L 81.743242 -50.778553 
L 81.965465 -50.54736 
L 82.215455 -50.316167 
L 82.502014 -50.084974 
L 82.828899 -49.853781 
L 83.194151 -49.622588 
L 83.590293 -49.391395 
L 84.005307 -49.160202 
L 84.424138 -48.929009 
L 84.83048 -48.697816 
L 85.208545 -48.466623 
L 85.544661 -48.23543 
L 85.828556 -48.004237 
L 86.054317 -47.773044 
L 86.220996 -47.541852 
L 86.332863 -47.310659 
L 86.399234 -47.079466 
L 86.433828 -46.848273 
L 86.453557 -46.61708 
L 86.476763 -46.385887 
L 86.520987 -46.154694 
L 86.60049 -45.923501 
L 86.723875 -45.692308 
L 86.892197 -45.461115 
L 87.097947 -45.229922 
L 87.325186 -44.998729 
L 87.550932 -44.767536 
L 87.747701 -44.536343 
L 87.886878 -44.30515 
L 87.942479 -44.073957 
L 87.894754 -43.842764 
L 87.733112 -43.611571 
L 87.457975 -43.380378 
L 87.081293 -43.149185 
L 86.625676 -42.917992 
L 86.122272 -42.686799 
L 85.607699 -42.455606 
L 85.120403 -42.224413 
L 84.69691 -41.993221 
L 84.368362 -41.762028 
L 84.157695 -41.530835 
L 84.07769 -41.299642 
L 84.129999 -41.068449 
L 84.305141 -40.837256 
L 84.583384 -40.606063 
L 84.936342 -40.37487 
L 85.329151 -40.143677 
L 85.723048 -39.912484 
L 86.078199 -39.681291 
L 86.356651 -39.450098 
L 86.525203 -39.218905 
L 86.558025 -38.987712 
L 86.438749 -38.756519 
L 86.161825 -38.525326 
L 85.732922 -38.294133 
L 85.168263 -38.06294 
L 84.492948 -37.831747 
L 83.738419 -37.600554 
L 82.939393 -37.369361 
L 82.130662 -37.138168 
L 81.34415 -36.906975 
L 80.606574 -36.675782 
L 79.937943 -36.44459 
L 79.350956 -36.213397 
L 78.851247 -35.982204 
L 78.438295 -35.751011 
z
" style="stroke: #6f6f6f; stroke-width: 0.15"/>
    </defs>
    <g clip-path="url(#p3c60588cbf)">
     <use xlink:href="#m58f24c3b9d" x="0" y="84.96" style="fill: #98daa7; stroke: #6f6f6f; stroke-width: 0.15"/>
    </g>
   </g>
   <g id="PolyCollection_4">
    <defs>
     <path id="m655dd1fe9f" d="M 106.059605 -36.494351 
L 102.07531 -36.494351 
L 101.666199 -36.507033 
L 101.206042 -36.519715 
L 100.696287 -36.532397 
L 100.140348 -36.545079 
L 99.543751 -36.557761 
L 98.914175 -36.570443 
L 98.261385 -36.583125 
L 97.597028 -36.595807 
L 96.934311 -36.608489 
L 96.287552 -36.621171 
L 95.671649 -36.633854 
L 95.10147 -36.646536 
L 94.591226 -36.659218 
L 94.153845 -36.6719 
L 93.800406 -36.684582 
L 93.539651 -36.697264 
L 93.37763 -36.709946 
L 93.317472 -36.722628 
L 93.359323 -36.73531 
L 93.500419 -36.747992 
L 93.735309 -36.760674 
L 94.05619 -36.773356 
L 94.453334 -36.786039 
L 94.915569 -36.798721 
L 95.430789 -36.811403 
L 95.986453 -36.824085 
L 96.570053 -36.836767 
L 97.169531 -36.849449 
L 97.773617 -36.862131 
L 98.372102 -36.874813 
L 98.956026 -36.887495 
L 99.517791 -36.900177 
L 100.051216 -36.912859 
L 100.551518 -36.925542 
L 101.015264 -36.938224 
L 101.440276 -36.950906 
L 101.825513 -36.963588 
L 102.170934 -36.97627 
L 102.477354 -36.988952 
L 102.746296 -37.001634 
L 102.979843 -37.014316 
L 103.180494 -37.026998 
L 103.351036 -37.03968 
L 103.494416 -37.052362 
L 103.613638 -37.065044 
L 103.71167 -37.077727 
L 103.791365 -37.090409 
L 103.855402 -37.103091 
L 103.906241 -37.115773 
L 103.946095 -37.128455 
L 103.976909 -37.141137 
L 104.00036 -37.153819 
L 104.017855 -37.166501 
L 104.030546 -37.179183 
L 104.039337 -37.191865 
L 104.044904 -37.204547 
L 104.047707 -37.21723 
L 104.048007 -37.229912 
L 104.045875 -37.242594 
L 104.041208 -37.255276 
L 104.03373 -37.267958 
L 104.02301 -37.28064 
L 104.008472 -37.293322 
L 103.989406 -37.306004 
L 103.964998 -37.318686 
L 103.934355 -37.331368 
L 103.896552 -37.34405 
L 103.85068 -37.356732 
L 103.795915 -37.369415 
L 103.731587 -37.382097 
L 103.657264 -37.394779 
L 103.572836 -37.407461 
L 103.478586 -37.420143 
L 103.375264 -37.432825 
L 103.264131 -37.445507 
L 103.146978 -37.458189 
L 103.026116 -37.470871 
L 102.904325 -37.483553 
L 102.784767 -37.496235 
L 102.67086 -37.508918 
L 102.566124 -37.5216 
L 102.474001 -37.534282 
L 102.397676 -37.546964 
L 102.339887 -37.559646 
L 102.302766 -37.572328 
L 102.28771 -37.58501 
L 102.295291 -37.597692 
L 102.325219 -37.610374 
L 102.376366 -37.623056 
L 102.446829 -37.635738 
L 102.534053 -37.64842 
L 102.634985 -37.661103 
L 102.746244 -37.673785 
L 102.864318 -37.686467 
L 102.985735 -37.699149 
L 103.107234 -37.711831 
L 103.225897 -37.724513 
L 103.339249 -37.737195 
L 103.445326 -37.749877 
L 104.689589 -37.749877 
L 104.689589 -37.749877 
L 104.795666 -37.737195 
L 104.909019 -37.724513 
L 105.027682 -37.711831 
L 105.149181 -37.699149 
L 105.270598 -37.686467 
L 105.388671 -37.673785 
L 105.499931 -37.661103 
L 105.600862 -37.64842 
L 105.688087 -37.635738 
L 105.75855 -37.623056 
L 105.809696 -37.610374 
L 105.839625 -37.597692 
L 105.847205 -37.58501 
L 105.832149 -37.572328 
L 105.795029 -37.559646 
L 105.737239 -37.546964 
L 105.660914 -37.534282 
L 105.568792 -37.5216 
L 105.464055 -37.508918 
L 105.350148 -37.496235 
L 105.23059 -37.483553 
L 105.1088 -37.470871 
L 104.987938 -37.458189 
L 104.870785 -37.445507 
L 104.759651 -37.432825 
L 104.65633 -37.420143 
L 104.56208 -37.407461 
L 104.477651 -37.394779 
L 104.403329 -37.382097 
L 104.339001 -37.369415 
L 104.284235 -37.356732 
L 104.238364 -37.34405 
L 104.20056 -37.331368 
L 104.169918 -37.318686 
L 104.14551 -37.306004 
L 104.126444 -37.293322 
L 104.111905 -37.28064 
L 104.101186 -37.267958 
L 104.093708 -37.255276 
L 104.08904 -37.242594 
L 104.086909 -37.229912 
L 104.087209 -37.21723 
L 104.090012 -37.204547 
L 104.095578 -37.191865 
L 104.104369 -37.179183 
L 104.11706 -37.166501 
L 104.134556 -37.153819 
L 104.158007 -37.141137 
L 104.188821 -37.128455 
L 104.228674 -37.115773 
L 104.279513 -37.103091 
L 104.34355 -37.090409 
L 104.423245 -37.077727 
L 104.521277 -37.065044 
L 104.6405 -37.052362 
L 104.78388 -37.03968 
L 104.954422 -37.026998 
L 105.155073 -37.014316 
L 105.38862 -37.001634 
L 105.657562 -36.988952 
L 105.963982 -36.97627 
L 106.309402 -36.963588 
L 106.694639 -36.950906 
L 107.119652 -36.938224 
L 107.583398 -36.925542 
L 108.0837 -36.912859 
L 108.617124 -36.900177 
L 109.17889 -36.887495 
L 109.762813 -36.874813 
L 110.361299 -36.862131 
L 110.965385 -36.849449 
L 111.564862 -36.836767 
L 112.148463 -36.824085 
L 112.704127 -36.811403 
L 113.219346 -36.798721 
L 113.681582 -36.786039 
L 114.078726 -36.773356 
L 114.399607 -36.760674 
L 114.634497 -36.747992 
L 114.775593 -36.73531 
L 114.817443 -36.722628 
L 114.757286 -36.709946 
L 114.595264 -36.697264 
L 114.33451 -36.684582 
L 113.98107 -36.6719 
L 113.54369 -36.659218 
L 113.033446 -36.646536 
L 112.463267 -36.633854 
L 111.847363 -36.621171 
L 111.200605 -36.608489 
L 110.537887 -36.595807 
L 109.873531 -36.583125 
L 109.220741 -36.570443 
L 108.591165 -36.557761 
L 107.994567 -36.545079 
L 107.438629 -36.532397 
L 106.928874 -36.519715 
L 106.468716 -36.507033 
L 106.059605 -36.494351 
z
" style="stroke: #6f6f6f; stroke-width: 0.15"/>
    </defs>
    <g clip-path="url(#p3c60588cbf)">
     <use xlink:href="#m655dd1fe9f" x="0" y="84.96" style="fill: #f2aba8; stroke: #6f6f6f; stroke-width: 0.15"/>
    </g>
   </g>
   <g id="PolyCollection_5">
    <defs>
     <path id="m33e8a27efa" d="M 132.468896 -36.674138 
L 129.415948 -36.674138 
L 129.091662 -36.709019 
L 128.723824 -36.743899 
L 128.312437 -36.778779 
L 127.858833 -36.813659 
L 127.365793 -36.84854 
L 126.837595 -36.88342 
L 126.279997 -36.9183 
L 125.700144 -36.95318 
L 125.106394 -36.988061 
L 124.508083 -37.022941 
L 123.915223 -37.057821 
L 123.338154 -37.092701 
L 122.787168 -37.127582 
L 122.272108 -37.162462 
L 121.801975 -37.197342 
L 121.384544 -37.232222 
L 121.026019 -37.267103 
L 120.73073 -37.301983 
L 120.500906 -37.336863 
L 120.336515 -37.371743 
L 120.235221 -37.406624 
L 120.192436 -37.441504 
L 120.201509 -37.476384 
L 120.254033 -37.511264 
L 120.340278 -37.546145 
L 120.449736 -37.581025 
L 120.571742 -37.615905 
L 120.696144 -37.650785 
L 120.813974 -37.685666 
L 120.918069 -37.720546 
L 121.003583 -37.755426 
L 121.068355 -37.790306 
L 121.113084 -37.825187 
L 121.141299 -37.860067 
L 121.159107 -37.894947 
L 121.174751 -37.929827 
L 121.197995 -37.964708 
L 121.239395 -37.999588 
L 121.309511 -38.034468 
L 121.41813 -38.069349 
L 121.573551 -38.104229 
L 121.781999 -38.139109 
L 122.047193 -38.173989 
L 122.370115 -38.20887 
L 122.748967 -38.24375 
L 123.179321 -38.27863 
L 123.654432 -38.31351 
L 124.165683 -38.348391 
L 124.703123 -38.383271 
L 125.256035 -38.418151 
L 125.813523 -38.453031 
L 126.365045 -38.487912 
L 126.900876 -38.522792 
L 127.412481 -38.557672 
L 127.89277 -38.592552 
L 128.33624 -38.627433 
L 128.73901 -38.662313 
L 129.098748 -38.697193 
L 129.41452 -38.732073 
L 129.686579 -38.766954 
L 129.916105 -38.801834 
L 130.104936 -38.836714 
L 130.255301 -38.871594 
L 130.369576 -38.906475 
L 130.450077 -38.941355 
L 130.498909 -38.976235 
L 130.517868 -39.011115 
L 130.508417 -39.045996 
L 130.47171 -39.080876 
L 130.408686 -39.115756 
L 130.320206 -39.150636 
L 130.207227 -39.185517 
L 130.070998 -39.220397 
L 129.913253 -39.255277 
L 129.736385 -39.290157 
L 129.543587 -39.325038 
L 129.338919 -39.359918 
L 129.127314 -39.394798 
L 128.914496 -39.429678 
L 128.706807 -39.464559 
L 128.510962 -39.499439 
L 128.333732 -39.534319 
L 128.18159 -39.569199 
L 128.060338 -39.60408 
L 127.974758 -39.63896 
L 127.928306 -39.67384 
L 127.922889 -39.708721 
L 127.958738 -39.743601 
L 128.034396 -39.778481 
L 128.146818 -39.813361 
L 128.291574 -39.848242 
L 128.463143 -39.883122 
L 128.655258 -39.918002 
L 128.861285 -39.952882 
L 129.074601 -39.987763 
L 129.288933 -40.022643 
L 129.49865 -40.057523 
L 129.698975 -40.092403 
L 129.886123 -40.127284 
L 131.998721 -40.127284 
L 131.998721 -40.127284 
L 132.185868 -40.092403 
L 132.386194 -40.057523 
L 132.595911 -40.022643 
L 132.810243 -39.987763 
L 133.023559 -39.952882 
L 133.229586 -39.918002 
L 133.4217 -39.883122 
L 133.593269 -39.848242 
L 133.738026 -39.813361 
L 133.850448 -39.778481 
L 133.926106 -39.743601 
L 133.961955 -39.708721 
L 133.956537 -39.67384 
L 133.910085 -39.63896 
L 133.824506 -39.60408 
L 133.703254 -39.569199 
L 133.551112 -39.534319 
L 133.373882 -39.499439 
L 133.178037 -39.464559 
L 132.970348 -39.429678 
L 132.75753 -39.394798 
L 132.545925 -39.359918 
L 132.341257 -39.325038 
L 132.148458 -39.290157 
L 131.971591 -39.255277 
L 131.813846 -39.220397 
L 131.677617 -39.185517 
L 131.564638 -39.150636 
L 131.476158 -39.115756 
L 131.413134 -39.080876 
L 131.376427 -39.045996 
L 131.366975 -39.011115 
L 131.385935 -38.976235 
L 131.434766 -38.941355 
L 131.515267 -38.906475 
L 131.629542 -38.871594 
L 131.779908 -38.836714 
L 131.968739 -38.801834 
L 132.198265 -38.766954 
L 132.470323 -38.732073 
L 132.786096 -38.697193 
L 133.145834 -38.662313 
L 133.548603 -38.627433 
L 133.992074 -38.592552 
L 134.472363 -38.557672 
L 134.983968 -38.522792 
L 135.519799 -38.487912 
L 136.071321 -38.453031 
L 136.628809 -38.418151 
L 137.181721 -38.383271 
L 137.71916 -38.348391 
L 138.230412 -38.31351 
L 138.705523 -38.27863 
L 139.135877 -38.24375 
L 139.514729 -38.20887 
L 139.837651 -38.173989 
L 140.102845 -38.139109 
L 140.311292 -38.104229 
L 140.466714 -38.069349 
L 140.575333 -38.034468 
L 140.645449 -37.999588 
L 140.686848 -37.964708 
L 140.710092 -37.929827 
L 140.725737 -37.894947 
L 140.743545 -37.860067 
L 140.771759 -37.825187 
L 140.816489 -37.790306 
L 140.881261 -37.755426 
L 140.966775 -37.720546 
L 141.07087 -37.685666 
L 141.1887 -37.650785 
L 141.313102 -37.615905 
L 141.435107 -37.581025 
L 141.544566 -37.546145 
L 141.630811 -37.511264 
L 141.683335 -37.476384 
L 141.692407 -37.441504 
L 141.649623 -37.406624 
L 141.548328 -37.371743 
L 141.383938 -37.336863 
L 141.154113 -37.301983 
L 140.858825 -37.267103 
L 140.5003 -37.232222 
L 140.082869 -37.197342 
L 139.612736 -37.162462 
L 139.097676 -37.127582 
L 138.54669 -37.092701 
L 137.969621 -37.057821 
L 137.376761 -37.022941 
L 136.77845 -36.988061 
L 136.1847 -36.95318 
L 135.604847 -36.9183 
L 135.047249 -36.88342 
L 134.519051 -36.84854 
L 134.026011 -36.813659 
L 133.572407 -36.778779 
L 133.161019 -36.743899 
L 132.793181 -36.709019 
L 132.468896 -36.674138 
z
" style="stroke: #6f6f6f; stroke-width: 0.15"/>
    </defs>
    <g clip-path="url(#p3c60588cbf)">
     <use xlink:href="#m33e8a27efa" x="0" y="84.96" style="fill: #d3c4f6; stroke: #6f6f6f; stroke-width: 0.15"/>
    </g>
   </g>
   <g id="PolyCollection_6">
    <defs>
     <path id="m91ae02d4c1" d="M 158.790706 -35.920529 
L 156.844066 -35.920529 
L 156.645548 -36.021818 
L 156.423752 -36.123107 
L 156.179564 -36.224396 
L 155.914514 -36.325685 
L 155.630686 -36.426974 
L 155.330584 -36.528263 
L 155.016957 -36.629552 
L 154.69259 -36.730841 
L 154.3601 -36.83213 
L 154.021746 -36.933419 
L 153.679276 -37.034708 
L 153.33384 -37.135997 
L 152.985972 -37.237286 
L 152.635646 -37.338575 
L 152.282405 -37.439864 
L 151.925549 -37.541153 
L 151.564366 -37.642442 
L 151.198377 -37.743731 
L 150.82758 -37.84502 
L 150.452665 -37.946309 
L 150.075184 -38.047598 
L 149.697666 -38.148887 
L 149.323662 -38.250176 
L 148.957723 -38.351465 
L 148.605313 -38.452754 
L 148.272656 -38.554043 
L 147.966528 -38.655332 
L 147.694008 -38.756621 
L 147.462193 -38.85791 
L 147.27789 -38.959199 
L 147.147309 -39.060488 
L 147.075763 -39.161777 
L 147.0674 -39.263066 
L 147.124987 -39.364355 
L 147.249747 -39.465644 
L 147.441276 -39.566933 
L 147.697542 -39.668222 
L 148.014957 -39.769511 
L 148.388525 -39.8708 
L 148.81205 -39.972089 
L 149.278382 -40.073378 
L 149.77969 -40.174667 
L 150.307735 -40.275956 
L 150.854132 -40.377245 
L 151.41059 -40.478534 
L 151.969114 -40.579823 
L 152.522182 -40.681112 
L 153.062881 -40.782401 
L 153.585019 -40.88369 
L 154.083209 -40.984978 
L 154.552933 -41.086267 
L 154.990583 -41.187556 
L 155.393481 -41.288845 
L 155.759879 -41.390134 
L 156.088927 -41.491423 
L 156.380616 -41.592712 
L 156.635695 -41.694001 
L 156.855556 -41.79529 
L 157.042098 -41.896579 
L 157.197574 -41.997868 
L 157.324427 -42.099157 
L 157.425134 -42.200446 
L 157.502052 -42.301735 
L 157.557284 -42.403024 
L 157.592581 -42.504313 
L 157.609271 -42.605602 
L 157.608229 -42.706891 
L 157.589891 -42.80818 
L 157.554315 -42.909469 
L 157.501275 -43.010758 
L 157.430407 -43.112047 
L 157.341376 -43.213336 
L 157.234071 -43.314625 
L 157.108803 -43.415914 
L 156.966497 -43.517203 
L 156.808859 -43.618492 
L 156.638486 -43.719781 
L 156.458923 -43.82107 
L 156.274635 -43.922359 
L 156.090893 -44.023648 
L 155.913568 -44.124937 
L 155.74886 -44.226226 
L 155.60295 -44.327515 
L 155.481632 -44.428804 
L 155.389936 -44.530093 
L 155.331783 -44.631382 
L 155.309717 -44.732671 
L 155.32471 -44.83396 
L 155.376104 -44.935249 
L 155.461649 -45.036538 
L 155.577675 -45.137827 
L 155.719346 -45.239116 
L 155.881 -45.340405 
L 156.056519 -45.441694 
L 156.23971 -45.542983 
L 156.424661 -45.644272 
L 156.606037 -45.745561 
L 156.779308 -45.84685 
L 156.940896 -45.948139 
L 158.693875 -45.948139 
L 158.693875 -45.948139 
L 158.855463 -45.84685 
L 159.028735 -45.745561 
L 159.210111 -45.644272 
L 159.395062 -45.542983 
L 159.578253 -45.441694 
L 159.753772 -45.340405 
L 159.915426 -45.239116 
L 160.057097 -45.137827 
L 160.173122 -45.036538 
L 160.258668 -44.935249 
L 160.310061 -44.83396 
L 160.325055 -44.732671 
L 160.302988 -44.631382 
L 160.244836 -44.530093 
L 160.15314 -44.428804 
L 160.031822 -44.327515 
L 159.885912 -44.226226 
L 159.721203 -44.124937 
L 159.543879 -44.023648 
L 159.360136 -43.922359 
L 159.175849 -43.82107 
L 158.996286 -43.719781 
L 158.825913 -43.618492 
L 158.668274 -43.517203 
L 158.525969 -43.415914 
L 158.400701 -43.314625 
L 158.293395 -43.213336 
L 158.204365 -43.112047 
L 158.133497 -43.010758 
L 158.080457 -42.909469 
L 158.04488 -42.80818 
L 158.026543 -42.706891 
L 158.025501 -42.605602 
L 158.042191 -42.504313 
L 158.077488 -42.403024 
L 158.13272 -42.301735 
L 158.209637 -42.200446 
L 158.310345 -42.099157 
L 158.437198 -41.997868 
L 158.592674 -41.896579 
L 158.779215 -41.79529 
L 158.999077 -41.694001 
L 159.254156 -41.592712 
L 159.545845 -41.491423 
L 159.874893 -41.390134 
L 160.241291 -41.288845 
L 160.644189 -41.187556 
L 161.081839 -41.086267 
L 161.551563 -40.984978 
L 162.049753 -40.88369 
L 162.571891 -40.782401 
L 163.11259 -40.681112 
L 163.665658 -40.579823 
L 164.224182 -40.478534 
L 164.780639 -40.377245 
L 165.327037 -40.275956 
L 165.855081 -40.174667 
L 166.356389 -40.073378 
L 166.822722 -39.972089 
L 167.246247 -39.8708 
L 167.619815 -39.769511 
L 167.93723 -39.668222 
L 168.193496 -39.566933 
L 168.385025 -39.465644 
L 168.509784 -39.364355 
L 168.567372 -39.263066 
L 168.559009 -39.161777 
L 168.487463 -39.060488 
L 168.356881 -38.959199 
L 168.172579 -38.85791 
L 167.940764 -38.756621 
L 167.668244 -38.655332 
L 167.362116 -38.554043 
L 167.029458 -38.452754 
L 166.677049 -38.351465 
L 166.31111 -38.250176 
L 165.937106 -38.148887 
L 165.559588 -38.047598 
L 165.182107 -37.946309 
L 164.807192 -37.84502 
L 164.436395 -37.743731 
L 164.070406 -37.642442 
L 163.709223 -37.541153 
L 163.352367 -37.439864 
L 162.999126 -37.338575 
L 162.648799 -37.237286 
L 162.300931 -37.135997 
L 161.955496 -37.034708 
L 161.613026 -36.933419 
L 161.274672 -36.83213 
L 160.942182 -36.730841 
L 160.617815 -36.629552 
L 160.304188 -36.528263 
L 160.004086 -36.426974 
L 159.720257 -36.325685 
L 159.455207 -36.224396 
L 159.21102 -36.123107 
L 158.989224 -36.021818 
L 158.790706 -35.920529 
z
" style="stroke: #6f6f6f; stroke-width: 0.15"/>
    </defs>
    <g clip-path="url(#p3c60588cbf)">
     <use xlink:href="#m91ae02d4c1" x="0" y="84.96" style="fill: #d6bba3; stroke: #6f6f6f; stroke-width: 0.15"/>
    </g>
   </g>
   <g id="PolyCollection_7">
    <defs>
     <path id="mcc3f533dc0" d="M 186.061932 -35.774341 
L 183.322768 -35.774341 
L 183.04898 -35.879919 
L 182.739981 -35.985497 
L 182.395435 -36.091074 
L 182.015857 -36.196652 
L 181.602681 -36.302229 
L 181.158289 -36.407807 
L 180.686012 -36.513385 
L 180.190074 -36.618962 
L 179.675517 -36.72454 
L 179.148075 -36.830117 
L 178.614034 -36.935695 
L 178.08007 -37.041272 
L 177.553083 -37.14685 
L 177.040023 -37.252428 
L 176.54773 -37.358005 
L 176.082786 -37.463583 
L 175.651378 -37.56916 
L 175.259185 -37.674738 
L 174.911275 -37.780315 
L 174.612019 -37.885893 
L 174.365026 -37.991471 
L 174.173081 -38.097048 
L 174.038111 -38.202626 
L 173.961157 -38.308203 
L 173.942364 -38.413781 
L 173.981005 -38.519358 
L 174.075509 -38.624936 
L 174.223524 -38.730514 
L 174.422 -38.836091 
L 174.667284 -38.941669 
L 174.955235 -39.047246 
L 175.281336 -39.152824 
L 175.640804 -39.258401 
L 176.028695 -39.363979 
L 176.439984 -39.469557 
L 176.869622 -39.575134 
L 177.312578 -39.680712 
L 177.763852 -39.786289 
L 178.218482 -39.891867 
L 178.67153 -39.997444 
L 179.118085 -40.103022 
L 179.553265 -40.2086 
L 179.972246 -40.314177 
L 180.370312 -40.419755 
L 180.742934 -40.525332 
L 181.085878 -40.63091 
L 181.395338 -40.736488 
L 181.668076 -40.842065 
L 181.901582 -40.947643 
L 182.094212 -41.05322 
L 182.245322 -41.158798 
L 182.355353 -41.264375 
L 182.425887 -41.369953 
L 182.459637 -41.475531 
L 182.460391 -41.581108 
L 182.43288 -41.686686 
L 182.382596 -41.792263 
L 182.315557 -41.897841 
L 182.238027 -42.003418 
L 182.15621 -42.108996 
L 182.075941 -42.214574 
L 182.002386 -42.320151 
L 181.93978 -42.425729 
L 181.891212 -42.531306 
L 181.858493 -42.636884 
L 181.842099 -42.742461 
L 181.841209 -42.848039 
L 181.85383 -42.953617 
L 181.877011 -43.059194 
L 181.907118 -43.164772 
L 181.940166 -43.270349 
L 181.972165 -43.375927 
L 181.999471 -43.481504 
L 182.019101 -43.587082 
L 182.028995 -43.69266 
L 182.028197 -43.798237 
L 182.016952 -43.903815 
L 181.996702 -44.009392 
L 181.969984 -44.11497 
L 181.940241 -44.220547 
L 181.911569 -44.326125 
L 181.888406 -44.431703 
L 181.875205 -44.53728 
L 181.876107 -44.642858 
L 181.894646 -44.748435 
L 181.933504 -44.854013 
L 181.994336 -44.959591 
L 182.077678 -45.065168 
L 182.182932 -45.170746 
L 182.308439 -45.276323 
L 182.45161 -45.381901 
L 182.609126 -45.487478 
L 182.777158 -45.593056 
L 182.951616 -45.698634 
L 183.128383 -45.804211 
L 183.303537 -45.909789 
L 183.473532 -46.015366 
L 183.635339 -46.120944 
L 183.786532 -46.226521 
L 185.598167 -46.226521 
L 185.598167 -46.226521 
L 185.749361 -46.120944 
L 185.911167 -46.015366 
L 186.081163 -45.909789 
L 186.256317 -45.804211 
L 186.433084 -45.698634 
L 186.607542 -45.593056 
L 186.775574 -45.487478 
L 186.93309 -45.381901 
L 187.076261 -45.276323 
L 187.201767 -45.170746 
L 187.307022 -45.065168 
L 187.390364 -44.959591 
L 187.451196 -44.854013 
L 187.490054 -44.748435 
L 187.508593 -44.642858 
L 187.509495 -44.53728 
L 187.496294 -44.431703 
L 187.473131 -44.326125 
L 187.444459 -44.220547 
L 187.414716 -44.11497 
L 187.387997 -44.009392 
L 187.367748 -43.903815 
L 187.356503 -43.798237 
L 187.355705 -43.69266 
L 187.365599 -43.587082 
L 187.385229 -43.481504 
L 187.412535 -43.375927 
L 187.444534 -43.270349 
L 187.477582 -43.164772 
L 187.507689 -43.059194 
L 187.53087 -42.953617 
L 187.543491 -42.848039 
L 187.542601 -42.742461 
L 187.526207 -42.636884 
L 187.493488 -42.531306 
L 187.44492 -42.425729 
L 187.382313 -42.320151 
L 187.308759 -42.214574 
L 187.22849 -42.108996 
L 187.146673 -42.003418 
L 187.069143 -41.897841 
L 187.002104 -41.792263 
L 186.95182 -41.686686 
L 186.924309 -41.581108 
L 186.925062 -41.475531 
L 186.958813 -41.369953 
L 187.029347 -41.264375 
L 187.139378 -41.158798 
L 187.290487 -41.05322 
L 187.483118 -40.947643 
L 187.716624 -40.842065 
L 187.989362 -40.736488 
L 188.298822 -40.63091 
L 188.641766 -40.525332 
L 189.014388 -40.419755 
L 189.412454 -40.314177 
L 189.831435 -40.2086 
L 190.266615 -40.103022 
L 190.71317 -39.997444 
L 191.166218 -39.891867 
L 191.620847 -39.786289 
L 192.072122 -39.680712 
L 192.515078 -39.575134 
L 192.944716 -39.469557 
L 193.356004 -39.363979 
L 193.743896 -39.258401 
L 194.103364 -39.152824 
L 194.429464 -39.047246 
L 194.717416 -38.941669 
L 194.9627 -38.836091 
L 195.161176 -38.730514 
L 195.309191 -38.624936 
L 195.403695 -38.519358 
L 195.442336 -38.413781 
L 195.423543 -38.308203 
L 195.346588 -38.202626 
L 195.211619 -38.097048 
L 195.019674 -37.991471 
L 194.772681 -37.885893 
L 194.473425 -37.780315 
L 194.125514 -37.674738 
L 193.733322 -37.56916 
L 193.301914 -37.463583 
L 192.83697 -37.358005 
L 192.344677 -37.252428 
L 191.831617 -37.14685 
L 191.30463 -37.041272 
L 190.770666 -36.935695 
L 190.236625 -36.830117 
L 189.709183 -36.72454 
L 189.194625 -36.618962 
L 188.698688 -36.513385 
L 188.226411 -36.407807 
L 187.782019 -36.302229 
L 187.368843 -36.196652 
L 186.989265 -36.091074 
L 186.644719 -35.985497 
L 186.33572 -35.879919 
L 186.061932 -35.774341 
z
" style="stroke: #6f6f6f; stroke-width: 0.15"/>
    </defs>
    <g clip-path="url(#p3c60588cbf)">
     <use xlink:href="#mcc3f533dc0" x="0" y="84.96" style="fill: #f1b9e0; stroke: #6f6f6f; stroke-width: 0.15"/>
    </g>
   </g>
   <g id="PolyCollection_8">
    <defs>
     <path id="me59d849d50" d="M 212.704052 -36.468495 
L 210.430576 -36.468495 
L 210.174081 -36.536393 
L 209.876985 -36.604292 
L 209.536985 -36.672191 
L 209.15259 -36.74009 
L 208.723322 -36.807988 
L 208.249929 -36.875887 
L 207.734562 -36.943786 
L 207.180942 -37.011685 
L 206.594468 -37.079584 
L 205.982275 -37.147482 
L 205.353223 -37.215381 
L 204.717791 -37.28328 
L 204.087889 -37.351179 
L 203.476561 -37.419077 
L 202.897597 -37.486976 
L 202.365045 -37.554875 
L 201.892655 -37.622774 
L 201.493274 -37.690673 
L 201.178226 -37.758571 
L 200.956707 -37.82647 
L 200.835257 -37.894369 
L 200.817328 -37.962268 
L 200.90301 -38.030166 
L 201.088915 -38.098065 
L 201.368269 -38.165964 
L 201.731191 -38.233863 
L 202.16516 -38.301762 
L 202.655641 -38.36966 
L 203.186826 -38.437559 
L 203.742444 -38.505458 
L 204.306587 -38.573357 
L 204.864483 -38.641255 
L 205.403177 -38.709154 
L 205.912065 -38.777053 
L 206.383251 -38.844952 
L 206.811713 -38.912851 
L 207.195272 -38.980749 
L 207.534378 -39.048648 
L 207.831742 -39.116547 
L 208.091858 -39.184446 
L 208.320441 -39.252344 
L 208.523853 -39.320243 
L 208.708551 -39.388142 
L 208.880592 -39.456041 
L 209.045238 -39.52394 
L 209.206673 -39.591838 
L 209.36785 -39.659737 
L 209.530451 -39.727636 
L 209.694959 -39.795535 
L 209.860816 -39.863433 
L 210.026647 -39.931332 
L 210.190505 -39.999231 
L 210.350133 -40.06713 
L 210.5032 -40.135029 
L 210.647507 -40.202927 
L 210.781135 -40.270826 
L 210.902545 -40.338725 
L 211.01062 -40.406624 
L 211.10466 -40.474522 
L 211.18433 -40.542421 
L 211.249588 -40.61032 
L 211.300592 -40.678219 
L 211.337602 -40.746118 
L 211.360892 -40.814016 
L 211.370679 -40.881915 
L 211.367075 -40.949814 
L 211.350067 -41.017713 
L 211.319531 -41.085611 
L 211.275276 -41.15351 
L 211.217116 -41.221409 
L 211.144963 -41.289308 
L 211.058937 -41.357207 
L 210.959487 -41.425105 
L 210.847495 -41.493004 
L 210.724373 -41.560903 
L 210.592126 -41.628802 
L 210.453377 -41.6967 
L 210.31134 -41.764599 
L 210.16975 -41.832498 
L 210.032728 -41.900397 
L 209.904611 -41.968296 
L 209.789736 -42.036194 
L 209.692212 -42.104093 
L 209.615677 -42.171992 
L 209.563077 -42.239891 
L 209.536486 -42.307789 
L 209.536966 -42.375688 
L 209.564499 -42.443587 
L 209.617991 -42.511486 
L 209.695341 -42.579385 
L 209.793584 -42.647283 
L 209.909072 -42.715182 
L 210.037704 -42.783081 
L 210.175165 -42.85098 
L 210.317161 -42.918878 
L 210.459637 -42.986777 
L 210.598957 -43.054676 
L 210.732038 -43.122575 
L 210.856433 -43.190474 
L 212.278195 -43.190474 
L 212.278195 -43.190474 
L 212.40259 -43.122575 
L 212.53567 -43.054676 
L 212.674991 -42.986777 
L 212.817467 -42.918878 
L 212.959463 -42.85098 
L 213.096924 -42.783081 
L 213.225556 -42.715182 
L 213.341044 -42.647283 
L 213.439286 -42.579385 
L 213.516637 -42.511486 
L 213.570129 -42.443587 
L 213.597662 -42.375688 
L 213.598142 -42.307789 
L 213.571551 -42.239891 
L 213.518951 -42.171992 
L 213.442416 -42.104093 
L 213.344892 -42.036194 
L 213.230017 -41.968296 
L 213.1019 -41.900397 
L 212.964878 -41.832498 
L 212.823288 -41.764599 
L 212.681251 -41.6967 
L 212.542502 -41.628802 
L 212.410255 -41.560903 
L 212.287133 -41.493004 
L 212.175141 -41.425105 
L 212.075691 -41.357207 
L 211.989665 -41.289308 
L 211.917512 -41.221409 
L 211.859351 -41.15351 
L 211.815097 -41.085611 
L 211.784561 -41.017713 
L 211.767553 -40.949814 
L 211.763949 -40.881915 
L 211.773736 -40.814016 
L 211.797026 -40.746118 
L 211.834035 -40.678219 
L 211.885039 -40.61032 
L 211.950298 -40.542421 
L 212.029968 -40.474522 
L 212.124007 -40.406624 
L 212.232083 -40.338725 
L 212.353493 -40.270826 
L 212.487121 -40.202927 
L 212.631428 -40.135029 
L 212.784495 -40.06713 
L 212.944123 -39.999231 
L 213.107981 -39.931332 
L 213.273812 -39.863433 
L 213.439669 -39.795535 
L 213.604177 -39.727636 
L 213.766778 -39.659737 
L 213.927955 -39.591838 
L 214.08939 -39.52394 
L 214.254036 -39.456041 
L 214.426077 -39.388142 
L 214.610775 -39.320243 
L 214.814187 -39.252344 
L 215.04277 -39.184446 
L 215.302885 -39.116547 
L 215.60025 -39.048648 
L 215.939356 -38.980749 
L 216.322914 -38.912851 
L 216.751376 -38.844952 
L 217.222562 -38.777053 
L 217.731451 -38.709154 
L 218.270145 -38.641255 
L 218.828041 -38.573357 
L 219.392184 -38.505458 
L 219.947802 -38.437559 
L 220.478986 -38.36966 
L 220.969468 -38.301762 
L 221.403437 -38.233863 
L 221.766359 -38.165964 
L 222.045713 -38.098065 
L 222.231618 -38.030166 
L 222.3173 -37.962268 
L 222.299371 -37.894369 
L 222.177921 -37.82647 
L 221.956402 -37.758571 
L 221.641354 -37.690673 
L 221.241973 -37.622774 
L 220.769583 -37.554875 
L 220.237031 -37.486976 
L 219.658067 -37.419077 
L 219.046739 -37.351179 
L 218.416837 -37.28328 
L 217.781405 -37.215381 
L 217.152353 -37.147482 
L 216.54016 -37.079584 
L 215.953686 -37.011685 
L 215.400066 -36.943786 
L 214.884699 -36.875887 
L 214.411306 -36.807988 
L 213.982038 -36.74009 
L 213.597643 -36.672191 
L 213.257643 -36.604292 
L 212.960547 -36.536393 
L 212.704052 -36.468495 
z
" style="stroke: #6f6f6f; stroke-width: 0.15"/>
    </defs>
    <g clip-path="url(#p3c60588cbf)">
     <use xlink:href="#me59d849d50" x="0" y="84.96" style="fill: #cfcfcf; stroke: #6f6f6f; stroke-width: 0.15"/>
    </g>
   </g>
   <g id="PolyCollection_9">
    <defs>
     <path id="md64ec8ce85" d="M 241.29012 -43.882445 
L 235.594436 -43.882445 
L 235.137589 -44.091636 
L 234.644949 -44.300828 
L 234.121201 -44.510019 
L 233.572466 -44.71921 
L 233.00619 -44.928402 
L 232.430928 -45.137593 
L 231.856055 -45.346785 
L 231.291386 -45.555976 
L 230.746752 -45.765167 
L 230.231535 -45.974359 
L 229.754203 -46.18355 
L 229.321884 -46.392742 
L 228.939992 -46.601933 
L 228.611965 -46.811125 
L 228.339113 -47.020316 
L 228.120607 -47.229507 
L 227.953613 -47.438699 
L 227.833565 -47.64789 
L 227.754556 -47.857082 
L 227.709824 -48.066273 
L 227.692292 -48.275464 
L 227.695132 -48.484656 
L 227.712289 -48.693847 
L 227.738941 -48.903039 
L 227.771856 -49.11223 
L 227.809609 -49.321421 
L 227.852657 -49.530613 
L 227.903248 -49.739804 
L 227.965201 -49.948996 
L 228.043551 -50.158187 
L 228.1441 -50.367378 
L 228.272919 -50.57657 
L 228.435819 -50.785761 
L 228.637859 -50.994953 
L 228.882906 -51.204144 
L 229.173285 -51.413335 
L 229.509547 -51.622527 
L 229.890356 -51.831718 
L 230.312505 -52.04091 
L 230.771047 -52.250101 
L 231.259533 -52.459292 
L 231.770324 -52.668484 
L 232.294953 -52.877675 
L 232.824514 -53.086867 
L 233.350045 -53.296058 
L 233.862879 -53.505249 
L 234.354945 -53.714441 
L 234.819013 -53.923632 
L 235.248864 -54.132824 
L 235.639385 -54.342015 
L 235.986603 -54.551207 
L 236.287662 -54.760398 
L 236.540752 -54.969589 
L 236.745006 -55.178781 
L 236.900382 -55.387972 
L 237.007545 -55.597164 
L 237.067748 -55.806355 
L 237.082741 -56.015546 
L 237.054684 -56.224738 
L 236.986105 -56.433929 
L 236.879858 -56.643121 
L 236.73911 -56.852312 
L 236.567342 -57.061503 
L 236.368346 -57.270695 
L 236.146232 -57.479886 
L 235.905414 -57.689078 
L 235.650599 -57.898269 
L 235.386744 -58.10746 
L 235.119005 -58.316652 
L 234.852664 -58.525843 
L 234.593041 -58.735035 
L 234.345391 -58.944226 
L 234.114792 -59.153417 
L 233.906031 -59.362609 
L 233.723491 -59.5718 
L 233.571042 -59.780992 
L 233.451943 -59.990183 
L 233.368759 -60.199374 
L 233.323298 -60.408566 
L 233.316565 -60.617757 
L 233.348735 -60.826949 
L 233.41916 -61.03614 
L 233.526385 -61.245332 
L 233.668197 -61.454523 
L 233.841692 -61.663714 
L 234.043363 -61.872906 
L 234.269209 -62.082097 
L 234.514851 -62.291289 
L 234.775665 -62.50048 
L 235.046919 -62.709671 
L 235.32391 -62.918863 
L 235.602098 -63.128054 
L 235.877224 -63.337246 
L 236.14542 -63.546437 
L 236.403293 -63.755628 
L 236.647992 -63.96482 
L 236.877242 -64.174011 
L 237.089366 -64.383203 
L 237.283268 -64.592394 
L 239.601288 -64.592394 
L 239.601288 -64.592394 
L 239.79519 -64.383203 
L 240.007313 -64.174011 
L 240.236564 -63.96482 
L 240.481263 -63.755628 
L 240.739136 -63.546437 
L 241.007332 -63.337246 
L 241.282458 -63.128054 
L 241.560646 -62.918863 
L 241.837637 -62.709671 
L 242.108891 -62.50048 
L 242.369705 -62.291289 
L 242.615347 -62.082097 
L 242.841193 -61.872906 
L 243.042864 -61.663714 
L 243.216359 -61.454523 
L 243.358171 -61.245332 
L 243.465396 -61.03614 
L 243.535821 -60.826949 
L 243.567991 -60.617757 
L 243.561258 -60.408566 
L 243.515797 -60.199374 
L 243.432613 -59.990183 
L 243.313514 -59.780992 
L 243.161065 -59.5718 
L 242.978525 -59.362609 
L 242.769764 -59.153417 
L 242.539165 -58.944226 
L 242.291515 -58.735035 
L 242.031892 -58.525843 
L 241.765551 -58.316652 
L 241.497812 -58.10746 
L 241.233957 -57.898269 
L 240.979142 -57.689078 
L 240.738324 -57.479886 
L 240.51621 -57.270695 
L 240.317214 -57.061503 
L 240.145446 -56.852312 
L 240.004698 -56.643121 
L 239.898451 -56.433929 
L 239.829872 -56.224738 
L 239.801815 -56.015546 
L 239.816808 -55.806355 
L 239.877011 -55.597164 
L 239.984174 -55.387972 
L 240.13955 -55.178781 
L 240.343804 -54.969589 
L 240.596894 -54.760398 
L 240.897953 -54.551207 
L 241.245171 -54.342015 
L 241.635692 -54.132824 
L 242.065543 -53.923632 
L 242.529611 -53.714441 
L 243.021677 -53.505249 
L 243.534511 -53.296058 
L 244.060042 -53.086867 
L 244.589603 -52.877675 
L 245.114232 -52.668484 
L 245.625023 -52.459292 
L 246.113509 -52.250101 
L 246.572051 -52.04091 
L 246.9942 -51.831718 
L 247.375009 -51.622527 
L 247.711271 -51.413335 
L 248.00165 -51.204144 
L 248.246697 -50.994953 
L 248.448737 -50.785761 
L 248.611637 -50.57657 
L 248.740456 -50.367378 
L 248.841005 -50.158187 
L 248.919355 -49.948996 
L 248.981308 -49.739804 
L 249.031899 -49.530613 
L 249.074947 -49.321421 
L 249.1127 -49.11223 
L 249.145615 -48.903039 
L 249.172267 -48.693847 
L 249.189424 -48.484656 
L 249.192264 -48.275464 
L 249.174732 -48.066273 
L 249.13 -47.857082 
L 249.050991 -47.64789 
L 248.930943 -47.438699 
L 248.763949 -47.229507 
L 248.545443 -47.020316 
L 248.272591 -46.811125 
L 247.944564 -46.601933 
L 247.562672 -46.392742 
L 247.130352 -46.18355 
L 246.653021 -45.974359 
L 246.137804 -45.765167 
L 245.59317 -45.555976 
L 245.028501 -45.346785 
L 244.453628 -45.137593 
L 243.878366 -44.928402 
L 243.31209 -44.71921 
L 242.763355 -44.510019 
L 242.239606 -44.300828 
L 241.746967 -44.091636 
L 241.29012 -43.882445 
z
" style="stroke: #6f6f6f; stroke-width: 0.15"/>
    </defs>
    <g clip-path="url(#p3c60588cbf)">
     <use xlink:href="#md64ec8ce85" x="0" y="84.96" style="fill: #f3f3ae; stroke: #6f6f6f; stroke-width: 0.15"/>
    </g>
   </g>
   <g id="line2d_8">
    <path d="M 23.442566 45.787085 
L 23.442566 43.052985 
" clip-path="url(#p3c60588cbf)" style="fill: none; stroke: #8c8c8c; stroke-width: 0.75; stroke-linecap: round"/>
   </g>
   <g id="line2d_9">
    <path d="M 23.442566 45.712532 
L 23.442566 44.523589 
" clip-path="url(#p3c60588cbf)" style="fill: none; stroke: #8c8c8c; stroke-width: 4; stroke-linecap: round"/>
   </g>
   <g id="line2d_10">
    <path d="M 23.442566 45.297453 
" clip-path="url(#p3c60588cbf)" style="fill: none; stroke: #6f6f6f; stroke-width: 1.2; stroke-linecap: round"/>
    <defs>
     <path id="m22c4cf748a" d="M 0 0.833333 
C 0.221003 0.833333 0.432983 0.745528 0.589256 0.589256 
C 0.745528 0.432983 0.833333 0.221003 0.833333 0 
C 0.833333 -0.221003 0.745528 -0.432983 0.589256 -0.589256 
C 0.432983 -0.745528 0.221003 -0.833333 0 -0.833333 
C -0.221003 -0.833333 -0.432983 -0.745528 -0.589256 -0.589256 
C -0.745528 -0.432983 -0.833333 -0.221003 -0.833333 0 
C -0.833333 0.221003 -0.745528 0.432983 -0.589256 0.589256 
C -0.432983 0.745528 -0.221003 0.833333 0 0.833333 
z
" style="stroke: #ffffff; stroke-width: 0.8"/>
    </defs>
    <g clip-path="url(#p3c60588cbf)">
     <use xlink:href="#m22c4cf748a" x="23.442566" y="45.297453" style="fill: #ffffff; stroke: #ffffff; stroke-width: 0.8"/>
    </g>
   </g>
   <g id="line2d_11">
    <path d="M 50.31753 47.694555 
L 50.31753 35.499065 
" clip-path="url(#p3c60588cbf)" style="fill: none; stroke: #8c8c8c; stroke-width: 0.75; stroke-linecap: round"/>
   </g>
   <g id="line2d_12">
    <path d="M 50.31753 45.156329 
L 50.31753 40.979336 
" clip-path="url(#p3c60588cbf)" style="fill: none; stroke: #8c8c8c; stroke-width: 4; stroke-linecap: round"/>
   </g>
   <g id="line2d_13">
    <path d="M 50.31753 43.732109 
" clip-path="url(#p3c60588cbf)" style="fill: none; stroke: #6f6f6f; stroke-width: 1.2; stroke-linecap: round"/>
    <g clip-path="url(#p3c60588cbf)">
     <use xlink:href="#m22c4cf748a" x="50.31753" y="43.732109" style="fill: #ffffff; stroke: #ffffff; stroke-width: 0.8"/>
    </g>
   </g>
   <g id="line2d_14">
    <path d="M 77.192494 47.159612 
L 77.192494 28.370264 
" clip-path="url(#p3c60588cbf)" style="fill: none; stroke: #8c8c8c; stroke-width: 0.75; stroke-linecap: round"/>
   </g>
   <g id="line2d_15">
    <path d="M 77.192494 44.576896 
L 77.192494 37.433133 
" clip-path="url(#p3c60588cbf)" style="fill: none; stroke: #8c8c8c; stroke-width: 4; stroke-linecap: round"/>
   </g>
   <g id="line2d_16">
    <path d="M 77.192494 40.842622 
" clip-path="url(#p3c60588cbf)" style="fill: none; stroke: #6f6f6f; stroke-width: 1.2; stroke-linecap: round"/>
    <g clip-path="url(#p3c60588cbf)">
     <use xlink:href="#m22c4cf748a" x="77.192494" y="40.842622" style="fill: #ffffff; stroke: #ffffff; stroke-width: 0.8"/>
    </g>
   </g>
   <g id="line2d_17">
    <path d="M 104.067458 48.302882 
L 104.067458 48.101628 
" clip-path="url(#p3c60588cbf)" style="fill: none; stroke: #8c8c8c; stroke-width: 0.75; stroke-linecap: round"/>
   </g>
   <g id="line2d_18">
    <path d="M 104.067458 48.276256 
L 104.067458 48.168154 
" clip-path="url(#p3c60588cbf)" style="fill: none; stroke: #8c8c8c; stroke-width: 4; stroke-linecap: round"/>
   </g>
   <g id="line2d_19">
    <path d="M 104.067458 48.22047 
" clip-path="url(#p3c60588cbf)" style="fill: none; stroke: #6f6f6f; stroke-width: 1.2; stroke-linecap: round"/>
    <g clip-path="url(#p3c60588cbf)">
     <use xlink:href="#m22c4cf748a" x="104.067458" y="48.22047" style="fill: #ffffff; stroke: #ffffff; stroke-width: 0.8"/>
    </g>
   </g>
   <g id="line2d_20">
    <path d="M 130.942422 47.854442 
L 130.942422 46.659399 
" clip-path="url(#p3c60588cbf)" style="fill: none; stroke: #8c8c8c; stroke-width: 0.75; stroke-linecap: round"/>
   </g>
   <g id="line2d_21">
    <path d="M 130.942422 47.539644 
L 130.942422 46.812749 
" clip-path="url(#p3c60588cbf)" style="fill: none; stroke: #8c8c8c; stroke-width: 4; stroke-linecap: round"/>
   </g>
   <g id="line2d_22">
    <path d="M 130.942422 47.163113 
" clip-path="url(#p3c60588cbf)" style="fill: none; stroke: #6f6f6f; stroke-width: 1.2; stroke-linecap: round"/>
    <g clip-path="url(#p3c60588cbf)">
     <use xlink:href="#m22c4cf748a" x="130.942422" y="47.163113" style="fill: #ffffff; stroke: #ffffff; stroke-width: 0.8"/>
    </g>
   </g>
   <g id="line2d_23">
    <path d="M 157.817386 47.833714 
L 157.817386 44.44423 
" clip-path="url(#p3c60588cbf)" style="fill: none; stroke: #8c8c8c; stroke-width: 0.75; stroke-linecap: round"/>
   </g>
   <g id="line2d_24">
    <path d="M 157.817386 46.436917 
L 157.817386 45.057477 
" clip-path="url(#p3c60588cbf)" style="fill: none; stroke: #8c8c8c; stroke-width: 4; stroke-linecap: round"/>
   </g>
   <g id="line2d_25">
    <path d="M 157.817386 45.626663 
" clip-path="url(#p3c60588cbf)" style="fill: none; stroke: #6f6f6f; stroke-width: 1.2; stroke-linecap: round"/>
    <g clip-path="url(#p3c60588cbf)">
     <use xlink:href="#m22c4cf748a" x="157.817386" y="45.626663" style="fill: #ffffff; stroke: #ffffff; stroke-width: 0.8"/>
    </g>
   </g>
   <g id="line2d_26">
    <path d="M 184.69235 47.795821 
L 184.69235 42.332947 
" clip-path="url(#p3c60588cbf)" style="fill: none; stroke: #8c8c8c; stroke-width: 0.75; stroke-linecap: round"/>
   </g>
   <g id="line2d_27">
    <path d="M 184.69235 46.751391 
L 184.69235 44.302399 
" clip-path="url(#p3c60588cbf)" style="fill: none; stroke: #8c8c8c; stroke-width: 4; stroke-linecap: round"/>
   </g>
   <g id="line2d_28">
    <path d="M 184.69235 46.11121 
" clip-path="url(#p3c60588cbf)" style="fill: none; stroke: #6f6f6f; stroke-width: 1.2; stroke-linecap: round"/>
    <g clip-path="url(#p3c60588cbf)">
     <use xlink:href="#m22c4cf748a" x="184.69235" y="46.11121" style="fill: #ffffff; stroke: #ffffff; stroke-width: 0.8"/>
    </g>
   </g>
   <g id="line2d_29">
    <path d="M 211.567314 47.641591 
L 211.567314 45.506361 
" clip-path="url(#p3c60588cbf)" style="fill: none; stroke: #8c8c8c; stroke-width: 0.75; stroke-linecap: round"/>
   </g>
   <g id="line2d_30">
    <path d="M 211.567314 47.096274 
L 211.567314 46.359678 
" clip-path="url(#p3c60588cbf)" style="fill: none; stroke: #8c8c8c; stroke-width: 4; stroke-linecap: round"/>
   </g>
   <g id="line2d_31">
    <path d="M 211.567314 46.901507 
" clip-path="url(#p3c60588cbf)" style="fill: none; stroke: #6f6f6f; stroke-width: 1.2; stroke-linecap: round"/>
    <g clip-path="url(#p3c60588cbf)">
     <use xlink:href="#m22c4cf748a" x="211.567314" y="46.901507" style="fill: #ffffff; stroke: #ffffff; stroke-width: 0.8"/>
    </g>
   </g>
   <g id="line2d_32">
    <path d="M 238.442278 38.081969 
L 238.442278 23.363192 
" clip-path="url(#p3c60588cbf)" style="fill: none; stroke: #8c8c8c; stroke-width: 0.75; stroke-linecap: round"/>
   </g>
   <g id="line2d_33">
    <path d="M 238.442278 37.84399 
L 238.442278 31.381281 
" clip-path="url(#p3c60588cbf)" style="fill: none; stroke: #8c8c8c; stroke-width: 4; stroke-linecap: round"/>
   </g>
   <g id="line2d_34">
    <path d="M 238.442278 34.129108 
" clip-path="url(#p3c60588cbf)" style="fill: none; stroke: #6f6f6f; stroke-width: 1.2; stroke-linecap: round"/>
    <g clip-path="url(#p3c60588cbf)">
     <use xlink:href="#m22c4cf748a" x="238.442278" y="34.129108" style="fill: #ffffff; stroke: #ffffff; stroke-width: 0.8"/>
    </g>
   </g>
   <g id="patch_3">
    <path d="M 10.005084 54.222338 
L 10.005084 4.076256 
" style="fill: none; stroke: #777777; stroke-width: 0.5; stroke-linejoin: miter; stroke-linecap: square"/>
   </g>
   <g id="patch_4">
    <path d="M 10.005084 56.722338 
L 251.87976 56.722338 
" style="fill: none; stroke: #777777; stroke-width: 0.5; stroke-linejoin: miter; stroke-linecap: square"/>
   </g>
  </g>
 </g>
 <defs>
  <clipPath id="p3c60588cbf">
   <rect x="10.005084" y="4.076256" width="241.874676" height="50.146082"/>
  </clipPath>
 </defs>
</svg>
