<?xml version="1.0" encoding="utf-8" standalone="no"?>
<!DOCTYPE svg PUBLIC "-//W3C//DTD SVG 1.1//EN"
  "http://www.w3.org/Graphics/SVG/1.1/DTD/svg11.dtd">
<svg xmlns:xlink="http://www.w3.org/1999/xlink" width="56.16pt" height="84.96pt" viewBox="0 0 56.16 84.96" xmlns="http://www.w3.org/2000/svg" version="1.1">
 <metadata>
  <rdf:RDF xmlns:dc="http://purl.org/dc/elements/1.1/" xmlns:cc="http://creativecommons.org/ns#" xmlns:rdf="http://www.w3.org/1999/02/22-rdf-syntax-ns#">
   <cc:Work>
    <dc:type rdf:resource="http://purl.org/dc/dcmitype/StillImage"/>
    <dc:date>2024-05-27T15:37:10.635393</dc:date>
    <dc:format>image/svg+xml</dc:format>
    <dc:creator>
     <cc:Agent>
      <dc:title>Matplotlib v3.8.3, https://matplotlib.org/</dc:title>
     </cc:Agent>
    </dc:creator>
   </cc:Work>
  </rdf:RDF>
 </metadata>
 <defs>
  <style type="text/css">*{stroke-linejoin: round; stroke-linecap: butt}</style>
 </defs>
 <g id="figure_1">
  <g id="patch_1">
   <path d="M 0 84.96 
L 56.16 84.96 
L 56.16 0 
L 0 0 
z
" style="fill: #ffffff"/>
  </g>
  <g id="axes_1">
   <g id="patch_2">
    <path d="M 11.673365 74.419526 
L 53.15976 74.419526 
L 53.15976 4.076256 
L 11.673365 4.076256 
z
" style="fill: #ffffff"/>
   </g>
   <g id="matplotlib.axis_1">
    <g id="xtick_1">
     <g id="text_1">
      <!-- ILC2 -->
      <g style="fill: #333333" transform="translate(18.348636 81.230229) scale(0.035 -0.035)">
       <defs>
        <path id="Helvetica-49" d="M 628 4591 
L 1256 4591 
L 1256 0 
L 628 0 
L 628 4591 
z
" transform="scale(0.015625)"/>
        <path id="Helvetica-4c" d="M 488 4591 
L 1109 4591 
L 1109 547 
L 3434 547 
L 3434 0 
L 488 0 
L 488 4591 
z
" transform="scale(0.015625)"/>
        <path id="Helvetica-43" d="M 2422 4716 
Q 3294 4716 3775 4256 
Q 4256 3797 4309 3213 
L 3703 3213 
Q 3600 3656 3292 3915 
Q 2984 4175 2428 4175 
Q 1750 4175 1333 3698 
Q 916 3222 916 2238 
Q 916 1431 1292 929 
Q 1669 428 2416 428 
Q 3103 428 3463 956 
Q 3653 1234 3747 1688 
L 4353 1688 
Q 4272 963 3816 472 
Q 3269 -119 2341 -119 
Q 1541 -119 997 366 
Q 281 1006 281 2344 
Q 281 3359 819 4009 
Q 1400 4716 2422 4716 
z
M 2297 4716 
L 2297 4716 
z
" transform="scale(0.015625)"/>
        <path id="Helvetica-32" d="M 200 0 
Q 231 578 439 1006 
Q 647 1434 1250 1784 
L 1850 2131 
Q 2253 2366 2416 2531 
Q 2672 2791 2672 3125 
Q 2672 3516 2437 3745 
Q 2203 3975 1813 3975 
Q 1234 3975 1013 3538 
Q 894 3303 881 2888 
L 309 2888 
Q 319 3472 525 3841 
Q 891 4491 1816 4491 
Q 2584 4491 2939 4075 
Q 3294 3659 3294 3150 
Q 3294 2613 2916 2231 
Q 2697 2009 2131 1694 
L 1703 1456 
Q 1397 1288 1222 1134 
Q 909 863 828 531 
L 3272 531 
L 3272 0 
L 200 0 
z
" transform="scale(0.015625)"/>
       </defs>
       <use xlink:href="#Helvetica-49"/>
       <use xlink:href="#Helvetica-4c" x="27.783203"/>
       <use xlink:href="#Helvetica-43" x="83.398438"/>
       <use xlink:href="#Helvetica-32" x="155.615234"/>
      </g>
     </g>
    </g>
    <g id="xtick_2">
     <g id="text_2">
      <!-- TH2 -->
      <g style="fill: #333333" transform="translate(39.482302 81.230229) scale(0.035 -0.035)">
       <defs>
        <path id="Helvetica-54" d="M 3828 4591 
L 3828 4044 
L 2281 4044 
L 2281 0 
L 1650 0 
L 1650 4044 
L 103 4044 
L 103 4591 
L 3828 4591 
z
" transform="scale(0.015625)"/>
        <path id="Helvetica-48" d="M 503 4591 
L 1131 4591 
L 1131 2694 
L 3519 2694 
L 3519 4591 
L 4147 4591 
L 4147 0 
L 3519 0 
L 3519 2147 
L 1131 2147 
L 1131 0 
L 503 0 
L 503 4591 
z
" transform="scale(0.015625)"/>
       </defs>
       <use xlink:href="#Helvetica-54"/>
       <use xlink:href="#Helvetica-48" x="61.083984"/>
       <use xlink:href="#Helvetica-32" x="133.300781"/>
      </g>
     </g>
    </g>
   </g>
   <g id="matplotlib.axis_2">
    <g id="ytick_1">
     <g id="line2d_1">
      <defs>
       <path id="m1a66d35a51" d="M 0 0 
L -1 0 
" style="stroke: #777777; stroke-width: 0.5"/>
      </defs>
      <g>
       <use xlink:href="#m1a66d35a51" x="11.673365" y="64.727463" style="fill: #777777; stroke: #777777; stroke-width: 0.5"/>
      </g>
     </g>
     <g id="text_3">
      <!-- 0 -->
      <g style="fill: #333333" transform="translate(8.005084 65.803478) scale(0.03 -0.03)">
       <defs>
        <path id="Helvetica-30" d="M 1731 4475 
Q 2600 4475 2988 3759 
Q 3288 3206 3288 2244 
Q 3288 1331 3016 734 
Q 2622 -122 1728 -122 
Q 922 -122 528 578 
Q 200 1163 200 2147 
Q 200 2909 397 3456 
Q 766 4475 1731 4475 
z
M 1725 391 
Q 2163 391 2422 778 
Q 2681 1166 2681 2222 
Q 2681 2984 2493 3476 
Q 2306 3969 1766 3969 
Q 1269 3969 1039 3501 
Q 809 3034 809 2125 
Q 809 1441 956 1025 
Q 1181 391 1725 391 
z
" transform="scale(0.015625)"/>
       </defs>
       <use xlink:href="#Helvetica-30"/>
      </g>
     </g>
    </g>
    <g id="ytick_2">
     <g id="line2d_2">
      <g>
       <use xlink:href="#m1a66d35a51" x="11.673365" y="52.597221" style="fill: #777777; stroke: #777777; stroke-width: 0.5"/>
      </g>
     </g>
     <g id="text_4">
      <!-- 1000 -->
      <g style="fill: #333333" transform="translate(3.00024 53.673237) scale(0.03 -0.03)">
       <defs>
        <path id="Helvetica-31" d="M 613 3169 
L 613 3600 
Q 1222 3659 1462 3798 
Q 1703 3938 1822 4456 
L 2266 4456 
L 2266 0 
L 1666 0 
L 1666 3169 
L 613 3169 
z
" transform="scale(0.015625)"/>
       </defs>
       <use xlink:href="#Helvetica-31"/>
       <use xlink:href="#Helvetica-30" x="55.615234"/>
       <use xlink:href="#Helvetica-30" x="111.230469"/>
       <use xlink:href="#Helvetica-30" x="166.845703"/>
      </g>
     </g>
    </g>
    <g id="ytick_3">
     <g id="line2d_3">
      <g>
       <use xlink:href="#m1a66d35a51" x="11.673365" y="40.46698" style="fill: #777777; stroke: #777777; stroke-width: 0.5"/>
      </g>
     </g>
     <g id="text_5">
      <!-- 2000 -->
      <g style="fill: #333333" transform="translate(3.00024 41.542996) scale(0.03 -0.03)">
       <use xlink:href="#Helvetica-32"/>
       <use xlink:href="#Helvetica-30" x="55.615234"/>
       <use xlink:href="#Helvetica-30" x="111.230469"/>
       <use xlink:href="#Helvetica-30" x="166.845703"/>
      </g>
     </g>
    </g>
    <g id="ytick_4">
     <g id="line2d_4">
      <g>
       <use xlink:href="#m1a66d35a51" x="11.673365" y="28.336738" style="fill: #777777; stroke: #777777; stroke-width: 0.5"/>
      </g>
     </g>
     <g id="text_6">
      <!-- 3000 -->
      <g style="fill: #333333" transform="translate(3.00024 29.412754) scale(0.03 -0.03)">
       <defs>
        <path id="Helvetica-33" d="M 1663 -122 
Q 869 -122 511 314 
Q 153 750 153 1375 
L 741 1375 
Q 778 941 903 744 
Q 1122 391 1694 391 
Q 2138 391 2406 628 
Q 2675 866 2675 1241 
Q 2675 1703 2392 1887 
Q 2109 2072 1606 2072 
Q 1550 2072 1492 2070 
Q 1434 2069 1375 2066 
L 1375 2563 
Q 1463 2553 1522 2550 
Q 1581 2547 1650 2547 
Q 1966 2547 2169 2647 
Q 2525 2822 2525 3272 
Q 2525 3606 2287 3787 
Q 2050 3969 1734 3969 
Q 1172 3969 956 3594 
Q 838 3388 822 3006 
L 266 3006 
Q 266 3506 466 3856 
Q 809 4481 1675 4481 
Q 2359 4481 2734 4176 
Q 3109 3872 3109 3294 
Q 3109 2881 2888 2625 
Q 2750 2466 2531 2375 
Q 2884 2278 3082 2001 
Q 3281 1725 3281 1325 
Q 3281 684 2859 281 
Q 2438 -122 1663 -122 
z
" transform="scale(0.015625)"/>
       </defs>
       <use xlink:href="#Helvetica-33"/>
       <use xlink:href="#Helvetica-30" x="55.615234"/>
       <use xlink:href="#Helvetica-30" x="111.230469"/>
       <use xlink:href="#Helvetica-30" x="166.845703"/>
      </g>
     </g>
    </g>
    <g id="ytick_5">
     <g id="line2d_5">
      <g>
       <use xlink:href="#m1a66d35a51" x="11.673365" y="16.206497" style="fill: #777777; stroke: #777777; stroke-width: 0.5"/>
      </g>
     </g>
     <g id="text_7">
      <!-- 4000 -->
      <g style="fill: #333333" transform="translate(3.00024 17.282513) scale(0.03 -0.03)">
       <defs>
        <path id="Helvetica-34" d="M 2116 1584 
L 2116 3613 
L 681 1584 
L 2116 1584 
z
M 2125 0 
L 2125 1094 
L 163 1094 
L 163 1644 
L 2213 4488 
L 2688 4488 
L 2688 1584 
L 3347 1584 
L 3347 1094 
L 2688 1094 
L 2688 0 
L 2125 0 
z
" transform="scale(0.015625)"/>
       </defs>
       <use xlink:href="#Helvetica-34"/>
       <use xlink:href="#Helvetica-30" x="55.615234"/>
       <use xlink:href="#Helvetica-30" x="111.230469"/>
       <use xlink:href="#Helvetica-30" x="166.845703"/>
      </g>
     </g>
    </g>
    <g id="ytick_6">
     <g id="line2d_6">
      <g>
       <use xlink:href="#m1a66d35a51" x="11.673365" y="4.076256" style="fill: #777777; stroke: #777777; stroke-width: 0.5"/>
      </g>
     </g>
     <g id="text_8">
      <!-- 5000 -->
      <g style="fill: #333333" transform="translate(3.00024 5.152271) scale(0.03 -0.03)">
       <defs>
        <path id="Helvetica-35" d="M 791 1141 
Q 847 659 1238 475 
Q 1438 381 1700 381 
Q 2200 381 2440 700 
Q 2681 1019 2681 1406 
Q 2681 1875 2395 2131 
Q 2109 2388 1709 2388 
Q 1419 2388 1211 2275 
Q 1003 2163 856 1963 
L 369 1991 
L 709 4400 
L 3034 4400 
L 3034 3856 
L 1131 3856 
L 941 2613 
Q 1097 2731 1238 2791 
Q 1488 2894 1816 2894 
Q 2431 2894 2859 2497 
Q 3288 2100 3288 1491 
Q 3288 856 2895 371 
Q 2503 -113 1644 -113 
Q 1097 -113 676 195 
Q 256 503 206 1141 
L 791 1141 
z
" transform="scale(0.015625)"/>
       </defs>
       <use xlink:href="#Helvetica-35"/>
       <use xlink:href="#Helvetica-30" x="55.615234"/>
       <use xlink:href="#Helvetica-30" x="111.230469"/>
       <use xlink:href="#Helvetica-30" x="166.845703"/>
      </g>
     </g>
    </g>
   </g>
   <g id="PolyCollection_1">
    <defs>
     <path id="m4d76753fde" d="M 23.595922 -20.001264 
L 20.494006 -20.001264 
L 20.200722 -20.018471 
L 19.874679 -20.035679 
L 19.517171 -20.052887 
L 19.130612 -20.070095 
L 18.718576 -20.087302 
L 18.285768 -20.10451 
L 17.837944 -20.121718 
L 17.381751 -20.138926 
L 16.924517 -20.156133 
L 16.473991 -20.173341 
L 16.038044 -20.190549 
L 15.624355 -20.207757 
L 15.240104 -20.224964 
L 14.891686 -20.242172 
L 14.584468 -20.25938 
L 14.322616 -20.276588 
L 14.108977 -20.293795 
L 13.945053 -20.311003 
L 13.831038 -20.328211 
L 13.765929 -20.345419 
L 13.747685 -20.362626 
L 13.773429 -20.379834 
L 13.839666 -20.397042 
L 13.942493 -20.41425 
L 14.077804 -20.431457 
L 14.241451 -20.448665 
L 14.429363 -20.465873 
L 14.637628 -20.483081 
L 14.862516 -20.500288 
L 15.100476 -20.517496 
L 15.348093 -20.534704 
L 15.602038 -20.551912 
L 15.859013 -20.569119 
L 16.115705 -20.586327 
L 16.368766 -20.603535 
L 16.614829 -20.620743 
L 16.850545 -20.63795 
L 17.072668 -20.655158 
L 17.278157 -20.672366 
L 17.464301 -20.689574 
L 17.628853 -20.706781 
L 17.77015 -20.723989 
L 17.887223 -20.741197 
L 17.979866 -20.758405 
L 18.048676 -20.775612 
L 18.095047 -20.79282 
L 18.12112 -20.810028 
L 18.129693 -20.827236 
L 18.124101 -20.844443 
L 18.108075 -20.861651 
L 18.085579 -20.878859 
L 18.060652 -20.896067 
L 18.037254 -20.913274 
L 18.019116 -20.930482 
L 18.009619 -20.94769 
L 18.011682 -20.964898 
L 18.027671 -20.982105 
L 18.05933 -20.999313 
L 18.107726 -21.016521 
L 18.173215 -21.033729 
L 18.25542 -21.050936 
L 18.353241 -21.068144 
L 18.464869 -21.085352 
L 18.587848 -21.102559 
L 18.719145 -21.119767 
L 18.855267 -21.136975 
L 18.992398 -21.154183 
L 19.12657 -21.17139 
L 19.253851 -21.188598 
L 19.37055 -21.205806 
L 19.473422 -21.223014 
L 19.55986 -21.240221 
L 19.628069 -21.257429 
L 19.677189 -21.274637 
L 19.707376 -21.291845 
L 19.719827 -21.309052 
L 19.71673 -21.32626 
L 19.701164 -21.343468 
L 19.676932 -21.360676 
L 19.648353 -21.377883 
L 19.620012 -21.395091 
L 19.596499 -21.412299 
L 19.582144 -21.429507 
L 19.580778 -21.446714 
L 19.595517 -21.463922 
L 19.62861 -21.48113 
L 19.681331 -21.498338 
L 19.753953 -21.515545 
L 19.845765 -21.532753 
L 19.955166 -21.549961 
L 20.079798 -21.567169 
L 20.21672 -21.584376 
L 20.362601 -21.601584 
L 20.513924 -21.618792 
L 20.667182 -21.636 
L 20.81905 -21.653207 
L 20.96653 -21.670415 
L 21.107066 -21.687623 
L 21.238608 -21.704831 
L 22.85132 -21.704831 
L 22.85132 -21.704831 
L 22.982861 -21.687623 
L 23.123397 -21.670415 
L 23.270878 -21.653207 
L 23.422745 -21.636 
L 23.576003 -21.618792 
L 23.727327 -21.601584 
L 23.873208 -21.584376 
L 24.010129 -21.567169 
L 24.134762 -21.549961 
L 24.244163 -21.532753 
L 24.335975 -21.515545 
L 24.408596 -21.498338 
L 24.461318 -21.48113 
L 24.49441 -21.463922 
L 24.509149 -21.446714 
L 24.507783 -21.429507 
L 24.493429 -21.412299 
L 24.469915 -21.395091 
L 24.441574 -21.377883 
L 24.412995 -21.360676 
L 24.388764 -21.343468 
L 24.373198 -21.32626 
L 24.370101 -21.309052 
L 24.382551 -21.291845 
L 24.412739 -21.274637 
L 24.461858 -21.257429 
L 24.530067 -21.240221 
L 24.616506 -21.223014 
L 24.719377 -21.205806 
L 24.836076 -21.188598 
L 24.963357 -21.17139 
L 25.097529 -21.154183 
L 25.234661 -21.136975 
L 25.370783 -21.119767 
L 25.50208 -21.102559 
L 25.625058 -21.085352 
L 25.736687 -21.068144 
L 25.834507 -21.050936 
L 25.916713 -21.033729 
L 25.982202 -21.016521 
L 26.030598 -20.999313 
L 26.062257 -20.982105 
L 26.078246 -20.964898 
L 26.080309 -20.94769 
L 26.070812 -20.930482 
L 26.052674 -20.913274 
L 26.029275 -20.896067 
L 26.004349 -20.878859 
L 25.981852 -20.861651 
L 25.965826 -20.844443 
L 25.960235 -20.827236 
L 25.968808 -20.810028 
L 25.99488 -20.79282 
L 26.041252 -20.775612 
L 26.110062 -20.758405 
L 26.202705 -20.741197 
L 26.319777 -20.723989 
L 26.461075 -20.706781 
L 26.625627 -20.689574 
L 26.811771 -20.672366 
L 27.017259 -20.655158 
L 27.239382 -20.63795 
L 27.475098 -20.620743 
L 27.721161 -20.603535 
L 27.974223 -20.586327 
L 28.230914 -20.569119 
L 28.487889 -20.551912 
L 28.741835 -20.534704 
L 28.989452 -20.517496 
L 29.227411 -20.500288 
L 29.4523 -20.483081 
L 29.660564 -20.465873 
L 29.848477 -20.448665 
L 30.012123 -20.431457 
L 30.147435 -20.41425 
L 30.250262 -20.397042 
L 30.316498 -20.379834 
L 30.342243 -20.362626 
L 30.323999 -20.345419 
L 30.25889 -20.328211 
L 30.144875 -20.311003 
L 29.980951 -20.293795 
L 29.767312 -20.276588 
L 29.505459 -20.25938 
L 29.198242 -20.242172 
L 28.849823 -20.224964 
L 28.465572 -20.207757 
L 28.051884 -20.190549 
L 27.615937 -20.173341 
L 27.165411 -20.156133 
L 26.708177 -20.138926 
L 26.251983 -20.121718 
L 25.804159 -20.10451 
L 25.371352 -20.087302 
L 24.959315 -20.070095 
L 24.572756 -20.052887 
L 24.215248 -20.035679 
L 23.889205 -20.018471 
L 23.595922 -20.001264 
z
" style="stroke: #717171; stroke-width: 0.15"/>
    </defs>
    <g clip-path="url(#pa186beceb5)">
     <use xlink:href="#m4d76753fde" x="0" y="84.96" style="fill: #d6bba3; stroke: #717171; stroke-width: 0.15"/>
    </g>
   </g>
   <g id="PolyCollection_2">
    <defs>
     <path id="mbb33856188" d="M 43.678346 -18.75642 
L 41.897977 -18.75642 
L 41.730359 -18.872406 
L 41.543973 -18.988392 
L 41.339153 -19.104378 
L 41.11661 -19.220364 
L 40.877383 -19.336351 
L 40.622771 -19.452337 
L 40.354246 -19.568323 
L 40.073359 -19.684309 
L 39.781643 -19.800295 
L 39.480537 -19.916281 
L 39.171336 -20.032267 
L 38.855175 -20.148253 
L 38.533063 -20.264239 
L 38.205952 -20.380225 
L 37.874857 -20.496211 
L 37.540994 -20.612198 
L 37.205946 -20.728184 
L 36.87181 -20.84417 
L 36.541334 -20.960156 
L 36.218005 -21.076142 
L 35.906077 -21.192128 
L 35.610537 -21.308114 
L 35.336986 -21.4241 
L 35.091454 -21.540086 
L 34.880156 -21.656072 
L 34.709194 -21.772059 
L 34.584236 -21.888045 
L 34.510187 -22.004031 
L 34.490882 -22.120017 
L 34.528819 -22.236003 
L 34.624942 -22.351989 
L 34.778508 -22.467975 
L 34.987017 -22.583961 
L 35.246236 -22.699947 
L 35.550297 -22.815933 
L 35.891862 -22.931919 
L 36.262362 -23.047906 
L 36.65227 -23.163892 
L 37.051426 -23.279878 
L 37.449378 -23.395864 
L 37.835739 -23.51185 
L 38.200537 -23.627836 
L 38.534566 -23.743822 
L 38.829711 -23.859808 
L 39.079234 -23.975794 
L 39.278041 -24.09178 
L 39.422878 -24.207766 
L 39.512479 -24.323753 
L 39.54765 -24.439739 
L 39.531262 -24.555725 
L 39.468176 -24.671711 
L 39.365067 -24.787697 
L 39.230173 -24.903683 
L 39.072952 -25.019669 
L 38.903673 -25.135655 
L 38.732949 -25.251641 
L 38.571243 -25.367627 
L 38.428356 -25.483613 
L 38.312948 -25.5996 
L 38.232107 -25.715586 
L 38.191002 -25.831572 
L 38.192634 -25.947558 
L 38.237719 -26.063544 
L 38.324697 -26.17953 
L 38.449874 -26.295516 
L 38.60769 -26.411502 
L 38.791092 -26.527488 
L 38.991981 -26.643474 
L 39.201723 -26.759461 
L 39.41166 -26.875447 
L 39.613622 -26.991433 
L 39.800373 -27.107419 
L 39.966004 -27.223405 
L 40.10621 -27.339391 
L 40.218476 -27.455377 
L 40.302131 -27.571363 
L 40.358302 -27.687349 
L 40.389753 -27.803335 
L 40.400631 -27.919321 
L 40.396145 -28.035308 
L 40.38219 -28.151294 
L 40.364951 -28.26728 
L 40.350509 -28.383266 
L 40.344468 -28.499252 
L 40.351645 -28.615238 
L 40.375816 -28.731224 
L 40.419551 -28.84721 
L 40.484137 -28.963196 
L 40.56958 -29.079182 
L 40.674703 -29.195168 
L 40.797301 -29.311155 
L 40.934356 -29.427141 
L 41.082278 -29.543127 
L 41.237167 -29.659113 
L 41.39506 -29.775099 
L 41.552161 -29.891085 
L 41.705028 -30.007071 
L 41.850716 -30.123057 
L 41.986869 -30.239043 
L 43.589454 -30.239043 
L 43.589454 -30.239043 
L 43.725607 -30.123057 
L 43.871295 -30.007071 
L 44.024162 -29.891085 
L 44.181263 -29.775099 
L 44.339156 -29.659113 
L 44.494044 -29.543127 
L 44.641966 -29.427141 
L 44.779021 -29.311155 
L 44.90162 -29.195168 
L 45.006743 -29.079182 
L 45.092186 -28.963196 
L 45.156771 -28.84721 
L 45.200507 -28.731224 
L 45.224678 -28.615238 
L 45.231855 -28.499252 
L 45.225814 -28.383266 
L 45.211371 -28.26728 
L 45.194133 -28.151294 
L 45.180178 -28.035308 
L 45.175692 -27.919321 
L 45.18657 -27.803335 
L 45.21802 -27.687349 
L 45.274192 -27.571363 
L 45.357847 -27.455377 
L 45.470112 -27.339391 
L 45.610319 -27.223405 
L 45.775949 -27.107419 
L 45.962701 -26.991433 
L 46.164662 -26.875447 
L 46.3746 -26.759461 
L 46.584341 -26.643474 
L 46.785231 -26.527488 
L 46.968632 -26.411502 
L 47.126449 -26.295516 
L 47.251626 -26.17953 
L 47.338604 -26.063544 
L 47.383689 -25.947558 
L 47.385321 -25.831572 
L 47.344215 -25.715586 
L 47.263375 -25.5996 
L 47.147967 -25.483613 
L 47.005079 -25.367627 
L 46.843373 -25.251641 
L 46.67265 -25.135655 
L 46.50337 -25.019669 
L 46.346149 -24.903683 
L 46.211255 -24.787697 
L 46.108146 -24.671711 
L 46.04506 -24.555725 
L 46.028673 -24.439739 
L 46.063843 -24.323753 
L 46.153445 -24.207766 
L 46.298281 -24.09178 
L 46.497088 -23.975794 
L 46.746612 -23.859808 
L 47.041756 -23.743822 
L 47.375786 -23.627836 
L 47.740584 -23.51185 
L 48.126944 -23.395864 
L 48.524897 -23.279878 
L 48.924053 -23.163892 
L 49.313961 -23.047906 
L 49.68446 -22.931919 
L 50.026026 -22.815933 
L 50.330087 -22.699947 
L 50.589306 -22.583961 
L 50.797815 -22.467975 
L 50.95138 -22.351989 
L 51.047504 -22.236003 
L 51.08544 -22.120017 
L 51.066136 -22.004031 
L 50.992086 -21.888045 
L 50.867128 -21.772059 
L 50.696166 -21.656072 
L 50.484869 -21.540086 
L 50.239337 -21.4241 
L 49.965785 -21.308114 
L 49.670245 -21.192128 
L 49.358318 -21.076142 
L 49.034989 -20.960156 
L 48.704513 -20.84417 
L 48.370377 -20.728184 
L 48.035328 -20.612198 
L 47.701466 -20.496211 
L 47.370371 -20.380225 
L 47.04326 -20.264239 
L 46.721147 -20.148253 
L 46.404987 -20.032267 
L 46.095785 -19.916281 
L 45.79468 -19.800295 
L 45.502964 -19.684309 
L 45.222076 -19.568323 
L 44.953552 -19.452337 
L 44.69894 -19.336351 
L 44.459712 -19.220364 
L 44.237169 -19.104378 
L 44.032349 -18.988392 
L 43.845963 -18.872406 
L 43.678346 -18.75642 
z
" style="stroke: #717171; stroke-width: 0.15"/>
    </defs>
    <g clip-path="url(#pa186beceb5)">
     <use xlink:href="#mbb33856188" x="0" y="84.96" style="fill: #f1b9e0; stroke: #717171; stroke-width: 0.15"/>
    </g>
   </g>
   <g id="line2d_7">
    <path d="M 22.044964 64.727463 
L 22.044964 63.486443 
" clip-path="url(#pa186beceb5)" style="fill: none; stroke: #8c8c8c; stroke-width: 0.75; stroke-linecap: round"/>
   </g>
   <g id="line2d_8">
    <path d="M 22.044964 64.618986 
L 22.044964 64.016602 
" clip-path="url(#pa186beceb5)" style="fill: none; stroke: #8c8c8c; stroke-width: 4; stroke-linecap: round"/>
   </g>
   <g id="line2d_9">
    <path d="M 22.044964 64.410353 
" clip-path="url(#pa186beceb5)" style="fill: none; stroke: #717171; stroke-width: 1.2; stroke-linecap: round"/>
    <defs>
     <path id="mf4878dac07" d="M 0 0.833333 
C 0.221003 0.833333 0.432983 0.745528 0.589256 0.589256 
C 0.745528 0.432983 0.833333 0.221003 0.833333 0 
C 0.833333 -0.221003 0.745528 -0.432983 0.589256 -0.589256 
C 0.432983 -0.745528 0.221003 -0.833333 0 -0.833333 
C -0.221003 -0.833333 -0.432983 -0.745528 -0.589256 -0.589256 
C -0.745528 -0.432983 -0.833333 -0.221003 -0.833333 0 
C -0.833333 0.221003 -0.745528 0.432983 -0.589256 0.589256 
C -0.432983 0.745528 -0.221003 0.833333 0 0.833333 
z
" style="stroke: #ffffff; stroke-width: 0.8"/>
    </defs>
    <g clip-path="url(#pa186beceb5)">
     <use xlink:href="#mf4878dac07" x="22.044964" y="64.410353" style="fill: #ffffff; stroke: #ffffff; stroke-width: 0.8"/>
    </g>
   </g>
   <g id="line2d_10">
    <path d="M 42.788161 64.706071 
L 42.788161 56.218466 
" clip-path="url(#pa186beceb5)" style="fill: none; stroke: #8c8c8c; stroke-width: 0.75; stroke-linecap: round"/>
   </g>
   <g id="line2d_11">
    <path d="M 42.788161 63.01213 
L 42.788161 59.167816 
" clip-path="url(#pa186beceb5)" style="fill: none; stroke: #8c8c8c; stroke-width: 4; stroke-linecap: round"/>
   </g>
   <g id="line2d_12">
    <path d="M 42.788161 62.222976 
" clip-path="url(#pa186beceb5)" style="fill: none; stroke: #717171; stroke-width: 1.2; stroke-linecap: round"/>
    <g clip-path="url(#pa186beceb5)">
     <use xlink:href="#mf4878dac07" x="42.788161" y="62.222976" style="fill: #ffffff; stroke: #ffffff; stroke-width: 0.8"/>
    </g>
   </g>
   <g id="patch_3">
    <path d="M 11.673365 74.419526 
L 11.673365 4.076256 
" style="fill: none; stroke: #777777; stroke-width: 0.5; stroke-linejoin: miter; stroke-linecap: square"/>
   </g>
   <g id="patch_4">
    <path d="M 11.673365 76.919526 
L 53.15976 76.919526 
" style="fill: none; stroke: #777777; stroke-width: 0.5; stroke-linejoin: miter; stroke-linecap: square"/>
   </g>
  </g>
 </g>
 <defs>
  <clipPath id="pa186beceb5">
   <rect x="11.673365" y="4.076256" width="41.486395" height="70.34327"/>
  </clipPath>
 </defs>
</svg>
