<?xml version="1.0" encoding="utf-8" standalone="no"?>
<!DOCTYPE svg PUBLIC "-//W3C//DTD SVG 1.1//EN"
  "http://www.w3.org/Graphics/SVG/1.1/DTD/svg11.dtd">
<svg xmlns:xlink="http://www.w3.org/1999/xlink" width="56.16pt" height="84.96pt" viewBox="0 0 56.16 84.96" xmlns="http://www.w3.org/2000/svg" version="1.1">
 <metadata>
  <rdf:RDF xmlns:dc="http://purl.org/dc/elements/1.1/" xmlns:cc="http://creativecommons.org/ns#" xmlns:rdf="http://www.w3.org/1999/02/22-rdf-syntax-ns#">
   <cc:Work>
    <dc:type rdf:resource="http://purl.org/dc/dcmitype/StillImage"/>
    <dc:date>2024-05-27T15:37:05.270283</dc:date>
    <dc:format>image/svg+xml</dc:format>
    <dc:creator>
     <cc:Agent>
      <dc:title>Matplotlib v3.8.3, https://matplotlib.org/</dc:title>
     </cc:Agent>
    </dc:creator>
   </cc:Work>
  </rdf:RDF>
 </metadata>
 <defs>
  <style type="text/css">*{stroke-linejoin: round; stroke-linecap: butt}</style>
 </defs>
 <g id="figure_1">
  <g id="patch_1">
   <path d="M 0 84.96 
L 56.16 84.96 
L 56.16 0 
L 0 0 
z
" style="fill: #ffffff"/>
  </g>
  <g id="axes_1">
   <g id="patch_2">
    <path d="M 8.336802 74.419526 
L 53.15976 74.419526 
L 53.15976 4.076256 
L 8.336802 4.076256 
z
" style="fill: #ffffff"/>
   </g>
   <g id="matplotlib.axis_1">
    <g id="xtick_1">
     <g id="text_1">
      <!-- ILC2 -->
      <g style="fill: #333333" transform="translate(15.846214 81.230229) scale(0.035 -0.035)">
       <defs>
        <path id="Helvetica-49" d="M 628 4591 
L 1256 4591 
L 1256 0 
L 628 0 
L 628 4591 
z
" transform="scale(0.015625)"/>
        <path id="Helvetica-4c" d="M 488 4591 
L 1109 4591 
L 1109 547 
L 3434 547 
L 3434 0 
L 488 0 
L 488 4591 
z
" transform="scale(0.015625)"/>
        <path id="Helvetica-43" d="M 2422 4716 
Q 3294 4716 3775 4256 
Q 4256 3797 4309 3213 
L 3703 3213 
Q 3600 3656 3292 3915 
Q 2984 4175 2428 4175 
Q 1750 4175 1333 3698 
Q 916 3222 916 2238 
Q 916 1431 1292 929 
Q 1669 428 2416 428 
Q 3103 428 3463 956 
Q 3653 1234 3747 1688 
L 4353 1688 
Q 4272 963 3816 472 
Q 3269 -119 2341 -119 
Q 1541 -119 997 366 
Q 281 1006 281 2344 
Q 281 3359 819 4009 
Q 1400 4716 2422 4716 
z
M 2297 4716 
L 2297 4716 
z
" transform="scale(0.015625)"/>
        <path id="Helvetica-32" d="M 200 0 
Q 231 578 439 1006 
Q 647 1434 1250 1784 
L 1850 2131 
Q 2253 2366 2416 2531 
Q 2672 2791 2672 3125 
Q 2672 3516 2437 3745 
Q 2203 3975 1813 3975 
Q 1234 3975 1013 3538 
Q 894 3303 881 2888 
L 309 2888 
Q 319 3472 525 3841 
Q 891 4491 1816 4491 
Q 2584 4491 2939 4075 
Q 3294 3659 3294 3150 
Q 3294 2613 2916 2231 
Q 2697 2009 2131 1694 
L 1703 1456 
Q 1397 1288 1222 1134 
Q 909 863 828 531 
L 3272 531 
L 3272 0 
L 200 0 
z
" transform="scale(0.015625)"/>
       </defs>
       <use xlink:href="#Helvetica-49"/>
       <use xlink:href="#Helvetica-4c" x="27.783203"/>
       <use xlink:href="#Helvetica-43" x="83.398438"/>
       <use xlink:href="#Helvetica-32" x="155.615234"/>
      </g>
     </g>
    </g>
    <g id="xtick_2">
     <g id="text_2">
      <!-- TH2 -->
      <g style="fill: #333333" transform="translate(38.648161 81.230229) scale(0.035 -0.035)">
       <defs>
        <path id="Helvetica-54" d="M 3828 4591 
L 3828 4044 
L 2281 4044 
L 2281 0 
L 1650 0 
L 1650 4044 
L 103 4044 
L 103 4591 
L 3828 4591 
z
" transform="scale(0.015625)"/>
        <path id="Helvetica-48" d="M 503 4591 
L 1131 4591 
L 1131 2694 
L 3519 2694 
L 3519 4591 
L 4147 4591 
L 4147 0 
L 3519 0 
L 3519 2147 
L 1131 2147 
L 1131 0 
L 503 0 
L 503 4591 
z
" transform="scale(0.015625)"/>
       </defs>
       <use xlink:href="#Helvetica-54"/>
       <use xlink:href="#Helvetica-48" x="61.083984"/>
       <use xlink:href="#Helvetica-32" x="133.300781"/>
      </g>
     </g>
    </g>
   </g>
   <g id="matplotlib.axis_2">
    <g id="ytick_1">
     <g id="line2d_1">
      <defs>
       <path id="me5dc274438" d="M 0 0 
L -1 0 
" style="stroke: #777777; stroke-width: 0.5"/>
      </defs>
      <g>
       <use xlink:href="#me5dc274438" x="8.336802" y="66.995102" style="fill: #777777; stroke: #777777; stroke-width: 0.5"/>
      </g>
     </g>
     <g id="text_3">
      <!-- 0 -->
      <g style="fill: #333333" transform="translate(4.668521 68.071117) scale(0.03 -0.03)">
       <defs>
        <path id="Helvetica-30" d="M 1731 4475 
Q 2600 4475 2988 3759 
Q 3288 3206 3288 2244 
Q 3288 1331 3016 734 
Q 2622 -122 1728 -122 
Q 922 -122 528 578 
Q 200 1163 200 2147 
Q 200 2909 397 3456 
Q 766 4475 1731 4475 
z
M 1725 391 
Q 2163 391 2422 778 
Q 2681 1166 2681 2222 
Q 2681 2984 2493 3476 
Q 2306 3969 1766 3969 
Q 1269 3969 1039 3501 
Q 809 3034 809 2125 
Q 809 1441 956 1025 
Q 1181 391 1725 391 
z
" transform="scale(0.015625)"/>
       </defs>
       <use xlink:href="#Helvetica-30"/>
      </g>
     </g>
    </g>
    <g id="ytick_2">
     <g id="line2d_2">
      <g>
       <use xlink:href="#me5dc274438" x="8.336802" y="54.411333" style="fill: #777777; stroke: #777777; stroke-width: 0.5"/>
      </g>
     </g>
     <g id="text_4">
      <!-- 10 -->
      <g style="fill: #333333" transform="translate(3.00024 55.487348) scale(0.03 -0.03)">
       <defs>
        <path id="Helvetica-31" d="M 613 3169 
L 613 3600 
Q 1222 3659 1462 3798 
Q 1703 3938 1822 4456 
L 2266 4456 
L 2266 0 
L 1666 0 
L 1666 3169 
L 613 3169 
z
" transform="scale(0.015625)"/>
       </defs>
       <use xlink:href="#Helvetica-31"/>
       <use xlink:href="#Helvetica-30" x="55.615234"/>
      </g>
     </g>
    </g>
    <g id="ytick_3">
     <g id="line2d_3">
      <g>
       <use xlink:href="#me5dc274438" x="8.336802" y="41.827563" style="fill: #777777; stroke: #777777; stroke-width: 0.5"/>
      </g>
     </g>
     <g id="text_5">
      <!-- 20 -->
      <g style="fill: #333333" transform="translate(3.00024 42.903579) scale(0.03 -0.03)">
       <use xlink:href="#Helvetica-32"/>
       <use xlink:href="#Helvetica-30" x="55.615234"/>
      </g>
     </g>
    </g>
    <g id="ytick_4">
     <g id="line2d_4">
      <g>
       <use xlink:href="#me5dc274438" x="8.336802" y="29.243794" style="fill: #777777; stroke: #777777; stroke-width: 0.5"/>
      </g>
     </g>
     <g id="text_6">
      <!-- 30 -->
      <g style="fill: #333333" transform="translate(3.00024 30.31981) scale(0.03 -0.03)">
       <defs>
        <path id="Helvetica-33" d="M 1663 -122 
Q 869 -122 511 314 
Q 153 750 153 1375 
L 741 1375 
Q 778 941 903 744 
Q 1122 391 1694 391 
Q 2138 391 2406 628 
Q 2675 866 2675 1241 
Q 2675 1703 2392 1887 
Q 2109 2072 1606 2072 
Q 1550 2072 1492 2070 
Q 1434 2069 1375 2066 
L 1375 2563 
Q 1463 2553 1522 2550 
Q 1581 2547 1650 2547 
Q 1966 2547 2169 2647 
Q 2525 2822 2525 3272 
Q 2525 3606 2287 3787 
Q 2050 3969 1734 3969 
Q 1172 3969 956 3594 
Q 838 3388 822 3006 
L 266 3006 
Q 266 3506 466 3856 
Q 809 4481 1675 4481 
Q 2359 4481 2734 4176 
Q 3109 3872 3109 3294 
Q 3109 2881 2888 2625 
Q 2750 2466 2531 2375 
Q 2884 2278 3082 2001 
Q 3281 1725 3281 1325 
Q 3281 684 2859 281 
Q 2438 -122 1663 -122 
z
" transform="scale(0.015625)"/>
       </defs>
       <use xlink:href="#Helvetica-33"/>
       <use xlink:href="#Helvetica-30" x="55.615234"/>
      </g>
     </g>
    </g>
    <g id="ytick_5">
     <g id="line2d_5">
      <g>
       <use xlink:href="#me5dc274438" x="8.336802" y="16.660025" style="fill: #777777; stroke: #777777; stroke-width: 0.5"/>
      </g>
     </g>
     <g id="text_7">
      <!-- 40 -->
      <g style="fill: #333333" transform="translate(3.00024 17.73604) scale(0.03 -0.03)">
       <defs>
        <path id="Helvetica-34" d="M 2116 1584 
L 2116 3613 
L 681 1584 
L 2116 1584 
z
M 2125 0 
L 2125 1094 
L 163 1094 
L 163 1644 
L 2213 4488 
L 2688 4488 
L 2688 1584 
L 3347 1584 
L 3347 1094 
L 2688 1094 
L 2688 0 
L 2125 0 
z
" transform="scale(0.015625)"/>
       </defs>
       <use xlink:href="#Helvetica-34"/>
       <use xlink:href="#Helvetica-30" x="55.615234"/>
      </g>
     </g>
    </g>
    <g id="ytick_6">
     <g id="line2d_6">
      <g>
       <use xlink:href="#me5dc274438" x="8.336802" y="4.076256" style="fill: #777777; stroke: #777777; stroke-width: 0.5"/>
      </g>
     </g>
     <g id="text_8">
      <!-- 50 -->
      <g style="fill: #333333" transform="translate(3.00024 5.152271) scale(0.03 -0.03)">
       <defs>
        <path id="Helvetica-35" d="M 791 1141 
Q 847 659 1238 475 
Q 1438 381 1700 381 
Q 2200 381 2440 700 
Q 2681 1019 2681 1406 
Q 2681 1875 2395 2131 
Q 2109 2388 1709 2388 
Q 1419 2388 1211 2275 
Q 1003 2163 856 1963 
L 369 1991 
L 709 4400 
L 3034 4400 
L 3034 3856 
L 1131 3856 
L 941 2613 
Q 1097 2731 1238 2791 
Q 1488 2894 1816 2894 
Q 2431 2894 2859 2497 
Q 3288 2100 3288 1491 
Q 3288 856 2895 371 
Q 2503 -113 1644 -113 
Q 1097 -113 676 195 
Q 256 503 206 1141 
L 791 1141 
z
" transform="scale(0.015625)"/>
       </defs>
       <use xlink:href="#Helvetica-35"/>
       <use xlink:href="#Helvetica-30" x="55.615234"/>
      </g>
     </g>
    </g>
   </g>
   <g id="PolyCollection_1">
    <defs>
     <path id="mffcf8ce3db" d="M 22.075819 -17.465598 
L 17.009264 -17.465598 
L 16.551213 -17.504393 
L 16.051543 -17.543188 
L 15.51591 -17.581983 
L 14.952218 -17.620778 
L 14.370563 -17.659573 
L 13.783042 -17.698368 
L 13.203406 -17.737163 
L 12.646574 -17.775958 
L 12.128022 -17.814753 
L 11.66309 -17.853547 
L 11.266229 -17.892342 
L 10.950267 -17.931137 
L 10.725711 -17.969932 
L 10.600176 -18.008727 
L 10.57795 -18.047522 
L 10.659757 -18.086317 
L 10.84271 -18.125112 
L 11.120489 -18.163907 
L 11.483696 -18.202702 
L 11.920387 -18.241497 
L 12.416721 -18.280292 
L 12.957684 -18.319087 
L 13.527837 -18.357882 
L 14.112032 -18.396677 
L 14.696054 -18.435472 
L 15.267151 -18.474267 
L 15.814437 -18.513062 
L 16.329134 -18.551857 
L 16.804688 -18.590652 
L 17.236735 -18.629446 
L 17.622967 -18.668241 
L 17.962903 -18.707036 
L 18.257604 -18.745831 
L 18.509355 -18.784626 
L 18.721342 -18.823421 
L 18.897344 -18.862216 
L 19.041457 -18.901011 
L 19.157857 -18.939806 
L 19.250615 -18.978601 
L 19.323553 -19.017396 
L 19.380155 -19.056191 
L 19.423508 -19.094986 
L 19.456283 -19.133781 
L 19.480741 -19.172576 
L 19.498754 -19.211371 
L 19.511842 -19.250166 
L 19.521215 -19.288961 
L 19.527816 -19.327756 
L 19.532366 -19.366551 
L 19.535399 -19.405346 
L 19.5373 -19.44414 
L 19.538328 -19.482935 
L 19.538644 -19.52173 
L 19.53832 -19.560525 
L 19.537355 -19.59932 
L 19.535681 -19.638115 
L 19.533162 -19.67691 
L 19.529599 -19.715705 
L 19.524727 -19.7545 
L 19.518209 -19.793295 
L 19.509642 -19.83209 
L 19.498555 -19.870885 
L 19.484412 -19.90968 
L 19.466626 -19.948475 
L 19.444573 -19.98727 
L 19.417619 -20.026065 
L 19.385147 -20.06486 
L 19.346598 -20.103655 
L 19.301515 -20.14245 
L 19.249596 -20.181245 
L 19.190737 -20.220039 
L 19.125092 -20.258834 
L 19.053103 -20.297629 
L 18.975544 -20.336424 
L 18.893527 -20.375219 
L 18.808505 -20.414014 
L 18.722245 -20.452809 
L 18.63678 -20.491604 
L 18.554337 -20.530399 
L 18.477247 -20.569194 
L 18.407838 -20.607989 
L 18.348319 -20.646784 
L 18.300667 -20.685579 
L 18.266513 -20.724374 
L 18.247055 -20.763169 
L 18.242984 -20.801964 
L 18.254446 -20.840759 
L 18.281033 -20.879554 
L 18.321803 -20.918349 
L 18.375343 -20.957144 
L 18.439843 -20.995939 
L 18.513201 -21.034733 
L 18.593138 -21.073528 
L 18.677309 -21.112323 
L 18.763421 -21.151118 
L 18.849329 -21.189913 
L 18.933119 -21.228708 
L 19.013171 -21.267503 
L 19.088191 -21.306298 
L 19.996893 -21.306298 
L 19.996893 -21.306298 
L 20.071913 -21.267503 
L 20.151964 -21.228708 
L 20.235755 -21.189913 
L 20.321663 -21.151118 
L 20.407775 -21.112323 
L 20.491946 -21.073528 
L 20.571882 -21.034733 
L 20.645241 -20.995939 
L 20.709741 -20.957144 
L 20.76328 -20.918349 
L 20.804051 -20.879554 
L 20.830637 -20.840759 
L 20.8421 -20.801964 
L 20.838029 -20.763169 
L 20.818571 -20.724374 
L 20.784417 -20.685579 
L 20.736765 -20.646784 
L 20.677246 -20.607989 
L 20.607836 -20.569194 
L 20.530746 -20.530399 
L 20.448303 -20.491604 
L 20.362838 -20.452809 
L 20.276579 -20.414014 
L 20.191557 -20.375219 
L 20.10954 -20.336424 
L 20.03198 -20.297629 
L 19.959992 -20.258834 
L 19.894346 -20.220039 
L 19.835488 -20.181245 
L 19.783568 -20.14245 
L 19.738486 -20.103655 
L 19.699937 -20.06486 
L 19.667464 -20.026065 
L 19.64051 -19.98727 
L 19.618458 -19.948475 
L 19.600672 -19.90968 
L 19.586529 -19.870885 
L 19.575441 -19.83209 
L 19.566875 -19.793295 
L 19.560357 -19.7545 
L 19.555484 -19.715705 
L 19.551922 -19.67691 
L 19.549403 -19.638115 
L 19.547729 -19.59932 
L 19.546764 -19.560525 
L 19.54644 -19.52173 
L 19.546756 -19.482935 
L 19.547784 -19.44414 
L 19.549685 -19.405346 
L 19.552718 -19.366551 
L 19.557268 -19.327756 
L 19.563869 -19.288961 
L 19.573242 -19.250166 
L 19.586329 -19.211371 
L 19.604342 -19.172576 
L 19.628801 -19.133781 
L 19.661576 -19.094986 
L 19.704929 -19.056191 
L 19.761531 -19.017396 
L 19.834469 -18.978601 
L 19.927226 -18.939806 
L 20.043627 -18.901011 
L 20.187739 -18.862216 
L 20.363741 -18.823421 
L 20.575728 -18.784626 
L 20.827479 -18.745831 
L 21.122181 -18.707036 
L 21.462117 -18.668241 
L 21.848349 -18.629446 
L 22.280396 -18.590652 
L 22.75595 -18.551857 
L 23.270647 -18.513062 
L 23.817932 -18.474267 
L 24.38903 -18.435472 
L 24.973052 -18.396677 
L 25.557246 -18.357882 
L 26.1274 -18.319087 
L 26.668363 -18.280292 
L 27.164697 -18.241497 
L 27.601388 -18.202702 
L 27.964595 -18.163907 
L 28.242374 -18.125112 
L 28.425327 -18.086317 
L 28.507133 -18.047522 
L 28.484908 -18.008727 
L 28.359373 -17.969932 
L 28.134817 -17.931137 
L 27.818854 -17.892342 
L 27.421994 -17.853547 
L 26.957062 -17.814753 
L 26.43851 -17.775958 
L 25.881678 -17.737163 
L 25.302042 -17.698368 
L 24.714521 -17.659573 
L 24.132866 -17.620778 
L 23.569173 -17.581983 
L 23.033541 -17.543188 
L 22.533871 -17.504393 
L 22.075819 -17.465598 
z
" style="stroke: #717171; stroke-width: 0.15"/>
    </defs>
    <g clip-path="url(#pd52e9b1ae4)">
     <use xlink:href="#mffcf8ce3db" x="0" y="84.96" style="fill: #d6bba3; stroke: #717171; stroke-width: 0.15"/>
    </g>
   </g>
   <g id="PolyCollection_2">
    <defs>
     <path id="mffc5348afa" d="M 43.273453 -18.537354 
L 40.634588 -18.537354 
L 40.376155 -18.586973 
L 40.08543 -18.636593 
L 39.762356 -18.686212 
L 39.40775 -18.735831 
L 39.023391 -18.78545 
L 38.612077 -18.835069 
L 38.177641 -18.884689 
L 37.724923 -18.934308 
L 37.259679 -18.983927 
L 36.788451 -19.033546 
L 36.318375 -19.083165 
L 35.856944 -19.132785 
L 35.411729 -19.182404 
L 34.99008 -19.232023 
L 34.598806 -19.281642 
L 34.243868 -19.331261 
L 33.930104 -19.380881 
L 33.660996 -19.4305 
L 33.438521 -19.480119 
L 33.263081 -19.529738 
L 33.133536 -19.579357 
L 33.047349 -19.628976 
L 33.000824 -19.678596 
L 32.989429 -19.728215 
L 33.008192 -19.777834 
L 33.052112 -19.827453 
L 33.116578 -19.877072 
L 33.197728 -19.926692 
L 33.292739 -19.976311 
L 33.399997 -20.02593 
L 33.519133 -20.075549 
L 33.650923 -20.125168 
L 33.797051 -20.174788 
L 33.959762 -20.224407 
L 34.141428 -20.274026 
L 34.344079 -20.323645 
L 34.568942 -20.373264 
L 34.816034 -20.422884 
L 35.083842 -20.472503 
L 35.369147 -20.522122 
L 35.666982 -20.571741 
L 35.970758 -20.62136 
L 36.272534 -20.67098 
L 36.563426 -20.720599 
L 36.834113 -20.770218 
L 37.075407 -20.819837 
L 37.278845 -20.869456 
L 37.437267 -20.919076 
L 37.545321 -20.968695 
L 37.599881 -21.018314 
L 37.600325 -21.067933 
L 37.548675 -21.117552 
L 37.449574 -21.167172 
L 37.310096 -21.216791 
L 37.139412 -21.26641 
L 36.948316 -21.316029 
L 36.748647 -21.365648 
L 36.55264 -21.415268 
L 36.372238 -21.464887 
L 36.218429 -21.514506 
L 36.100622 -21.564125 
L 36.026138 -21.613744 
L 35.999814 -21.663364 
L 36.02378 -21.712983 
L 36.0974 -21.762602 
L 36.217393 -21.812221 
L 36.378125 -21.86184 
L 36.572036 -21.91146 
L 36.79019 -21.961079 
L 37.02289 -22.010698 
L 37.260323 -22.060317 
L 37.493186 -22.109936 
L 37.713253 -22.159556 
L 37.913838 -22.209175 
L 38.09014 -22.258794 
L 38.239435 -22.308413 
L 38.361121 -22.358032 
L 38.456617 -22.407652 
L 38.529129 -22.457271 
L 38.583309 -22.50689 
L 38.62484 -22.556509 
L 38.659969 -22.606128 
L 38.695045 -22.655748 
L 38.736069 -22.705367 
L 38.788312 -22.754986 
L 38.856001 -22.804605 
L 38.942109 -22.854224 
L 39.048238 -22.903844 
L 39.174614 -22.953463 
L 39.320168 -23.003082 
L 39.482704 -23.052701 
L 39.659121 -23.10232 
L 39.845674 -23.15194 
L 40.038256 -23.201559 
L 40.232665 -23.251178 
L 40.424852 -23.300797 
L 40.61113 -23.350416 
L 40.788328 -23.400036 
L 40.953899 -23.449655 
L 42.954143 -23.449655 
L 42.954143 -23.449655 
L 43.119714 -23.400036 
L 43.296912 -23.350416 
L 43.483189 -23.300797 
L 43.675376 -23.251178 
L 43.869785 -23.201559 
L 44.062367 -23.15194 
L 44.24892 -23.10232 
L 44.425337 -23.052701 
L 44.587873 -23.003082 
L 44.733427 -22.953463 
L 44.859803 -22.903844 
L 44.965932 -22.854224 
L 45.05204 -22.804605 
L 45.119729 -22.754986 
L 45.171973 -22.705367 
L 45.212997 -22.655748 
L 45.248072 -22.606128 
L 45.283201 -22.556509 
L 45.324732 -22.50689 
L 45.378913 -22.457271 
L 45.451425 -22.407652 
L 45.54692 -22.358032 
L 45.668606 -22.308413 
L 45.817901 -22.258794 
L 45.994203 -22.209175 
L 46.194789 -22.159556 
L 46.414855 -22.109936 
L 46.647718 -22.060317 
L 46.885151 -22.010698 
L 47.117851 -21.961079 
L 47.336005 -21.91146 
L 47.529917 -21.86184 
L 47.690648 -21.812221 
L 47.810642 -21.762602 
L 47.884261 -21.712983 
L 47.908227 -21.663364 
L 47.881903 -21.613744 
L 47.807419 -21.564125 
L 47.689613 -21.514506 
L 47.535803 -21.464887 
L 47.355401 -21.415268 
L 47.159394 -21.365648 
L 46.959725 -21.316029 
L 46.76863 -21.26641 
L 46.597945 -21.216791 
L 46.458467 -21.167172 
L 46.359366 -21.117552 
L 46.307716 -21.067933 
L 46.30816 -21.018314 
L 46.36272 -20.968695 
L 46.470775 -20.919076 
L 46.629197 -20.869456 
L 46.832635 -20.819837 
L 47.073928 -20.770218 
L 47.344615 -20.720599 
L 47.635508 -20.67098 
L 47.937284 -20.62136 
L 48.241059 -20.571741 
L 48.538894 -20.522122 
L 48.824199 -20.472503 
L 49.092007 -20.422884 
L 49.339099 -20.373264 
L 49.563963 -20.323645 
L 49.766614 -20.274026 
L 49.948279 -20.224407 
L 50.11099 -20.174788 
L 50.257119 -20.125168 
L 50.388909 -20.075549 
L 50.508044 -20.02593 
L 50.615302 -19.976311 
L 50.710313 -19.926692 
L 50.791463 -19.877072 
L 50.855929 -19.827453 
L 50.899849 -19.777834 
L 50.918612 -19.728215 
L 50.907218 -19.678596 
L 50.860692 -19.628976 
L 50.774505 -19.579357 
L 50.64496 -19.529738 
L 50.46952 -19.480119 
L 50.247045 -19.4305 
L 49.977937 -19.380881 
L 49.664173 -19.331261 
L 49.309235 -19.281642 
L 48.917961 -19.232023 
L 48.496312 -19.182404 
L 48.051098 -19.132785 
L 47.589666 -19.083165 
L 47.11959 -19.033546 
L 46.648362 -18.983927 
L 46.183118 -18.934308 
L 45.7304 -18.884689 
L 45.295965 -18.835069 
L 44.884651 -18.78545 
L 44.500291 -18.735831 
L 44.145685 -18.686212 
L 43.822611 -18.636593 
L 43.531886 -18.586973 
L 43.273453 -18.537354 
z
" style="stroke: #717171; stroke-width: 0.15"/>
    </defs>
    <g clip-path="url(#pd52e9b1ae4)">
     <use xlink:href="#mffc5348afa" x="0" y="84.96" style="fill: #f1b9e0; stroke: #717171; stroke-width: 0.15"/>
    </g>
   </g>
   <g id="line2d_7">
    <path d="M 19.542542 66.980815 
L 19.542542 66.811739 
" clip-path="url(#pd52e9b1ae4)" style="fill: none; stroke: #8c8c8c; stroke-width: 0.75; stroke-linecap: round"/>
   </g>
   <g id="line2d_8">
    <path d="M 19.542542 66.961949 
L 19.542542 66.84133 
" clip-path="url(#pd52e9b1ae4)" style="fill: none; stroke: #8c8c8c; stroke-width: 4; stroke-linecap: round"/>
   </g>
   <g id="line2d_9">
    <path d="M 19.542542 66.942789 
" clip-path="url(#pd52e9b1ae4)" style="fill: none; stroke: #717171; stroke-width: 1.2; stroke-linecap: round"/>
    <defs>
     <path id="m8c478bb1aa" d="M 0 0.833333 
C 0.221003 0.833333 0.432983 0.745528 0.589256 0.589256 
C 0.745528 0.432983 0.833333 0.221003 0.833333 0 
C 0.833333 -0.221003 0.745528 -0.432983 0.589256 -0.589256 
C 0.432983 -0.745528 0.221003 -0.833333 0 -0.833333 
C -0.221003 -0.833333 -0.432983 -0.745528 -0.589256 -0.589256 
C -0.745528 -0.432983 -0.833333 -0.221003 -0.833333 0 
C -0.833333 0.221003 -0.745528 0.432983 -0.589256 0.589256 
C -0.432983 0.745528 -0.221003 0.833333 0 0.833333 
z
" style="stroke: #ffffff; stroke-width: 0.8"/>
    </defs>
    <g clip-path="url(#pd52e9b1ae4)">
     <use xlink:href="#m8c478bb1aa" x="19.542542" y="66.942789" style="fill: #ffffff; stroke: #ffffff; stroke-width: 0.8"/>
    </g>
   </g>
   <g id="line2d_10">
    <path d="M 41.954021 65.763905 
L 41.954021 62.169087 
" clip-path="url(#pd52e9b1ae4)" style="fill: none; stroke: #8c8c8c; stroke-width: 0.75; stroke-linecap: round"/>
   </g>
   <g id="line2d_11">
    <path d="M 41.954021 65.320861 
L 41.954021 63.301829 
" clip-path="url(#pd52e9b1ae4)" style="fill: none; stroke: #8c8c8c; stroke-width: 4; stroke-linecap: round"/>
   </g>
   <g id="line2d_12">
    <path d="M 41.954021 64.566653 
" clip-path="url(#pd52e9b1ae4)" style="fill: none; stroke: #717171; stroke-width: 1.2; stroke-linecap: round"/>
    <g clip-path="url(#pd52e9b1ae4)">
     <use xlink:href="#m8c478bb1aa" x="41.954021" y="64.566653" style="fill: #ffffff; stroke: #ffffff; stroke-width: 0.8"/>
    </g>
   </g>
   <g id="patch_3">
    <path d="M 8.336802 74.419526 
L 8.336802 4.076256 
" style="fill: none; stroke: #777777; stroke-width: 0.5; stroke-linejoin: miter; stroke-linecap: square"/>
   </g>
   <g id="patch_4">
    <path d="M 8.336802 76.919526 
L 53.15976 76.919526 
" style="fill: none; stroke: #777777; stroke-width: 0.5; stroke-linejoin: miter; stroke-linecap: square"/>
   </g>
  </g>
 </g>
 <defs>
  <clipPath id="pd52e9b1ae4">
   <rect x="8.336802" y="4.076256" width="44.822958" height="70.34327"/>
  </clipPath>
 </defs>
</svg>
