<?xml version="1.0" encoding="utf-8" standalone="no"?>
<!DOCTYPE svg PUBLIC "-//W3C//DTD SVG 1.1//EN"
  "http://www.w3.org/Graphics/SVG/1.1/DTD/svg11.dtd">
<svg xmlns:xlink="http://www.w3.org/1999/xlink" width="56.16pt" height="84.96pt" viewBox="0 0 56.16 84.96" xmlns="http://www.w3.org/2000/svg" version="1.1">
 <metadata>
  <rdf:RDF xmlns:dc="http://purl.org/dc/elements/1.1/" xmlns:cc="http://creativecommons.org/ns#" xmlns:rdf="http://www.w3.org/1999/02/22-rdf-syntax-ns#">
   <cc:Work>
    <dc:type rdf:resource="http://purl.org/dc/dcmitype/StillImage"/>
    <dc:date>2024-05-27T15:37:06.759322</dc:date>
    <dc:format>image/svg+xml</dc:format>
    <dc:creator>
     <cc:Agent>
      <dc:title>Matplotlib v3.8.3, https://matplotlib.org/</dc:title>
     </cc:Agent>
    </dc:creator>
   </cc:Work>
  </rdf:RDF>
 </metadata>
 <defs>
  <style type="text/css">*{stroke-linejoin: round; stroke-linecap: butt}</style>
 </defs>
 <g id="figure_1">
  <g id="patch_1">
   <path d="M 0 84.96 
L 56.16 84.96 
L 56.16 0 
L 0 0 
z
" style="fill: #ffffff"/>
  </g>
  <g id="axes_1">
   <g id="patch_2">
    <path d="M 8.336802 74.419526 
L 53.15976 74.419526 
L 53.15976 4.076256 
L 8.336802 4.076256 
z
" style="fill: #ffffff"/>
   </g>
   <g id="matplotlib.axis_1">
    <g id="xtick_1">
     <g id="text_1">
      <!-- ILC3 -->
      <g style="fill: #333333" transform="translate(15.846214 81.230229) scale(0.035 -0.035)">
       <defs>
        <path id="Helvetica-49" d="M 628 4591 
L 1256 4591 
L 1256 0 
L 628 0 
L 628 4591 
z
" transform="scale(0.015625)"/>
        <path id="Helvetica-4c" d="M 488 4591 
L 1109 4591 
L 1109 547 
L 3434 547 
L 3434 0 
L 488 0 
L 488 4591 
z
" transform="scale(0.015625)"/>
        <path id="Helvetica-43" d="M 2422 4716 
Q 3294 4716 3775 4256 
Q 4256 3797 4309 3213 
L 3703 3213 
Q 3600 3656 3292 3915 
Q 2984 4175 2428 4175 
Q 1750 4175 1333 3698 
Q 916 3222 916 2238 
Q 916 1431 1292 929 
Q 1669 428 2416 428 
Q 3103 428 3463 956 
Q 3653 1234 3747 1688 
L 4353 1688 
Q 4272 963 3816 472 
Q 3269 -119 2341 -119 
Q 1541 -119 997 366 
Q 281 1006 281 2344 
Q 281 3359 819 4009 
Q 1400 4716 2422 4716 
z
M 2297 4716 
L 2297 4716 
z
" transform="scale(0.015625)"/>
        <path id="Helvetica-33" d="M 1663 -122 
Q 869 -122 511 314 
Q 153 750 153 1375 
L 741 1375 
Q 778 941 903 744 
Q 1122 391 1694 391 
Q 2138 391 2406 628 
Q 2675 866 2675 1241 
Q 2675 1703 2392 1887 
Q 2109 2072 1606 2072 
Q 1550 2072 1492 2070 
Q 1434 2069 1375 2066 
L 1375 2563 
Q 1463 2553 1522 2550 
Q 1581 2547 1650 2547 
Q 1966 2547 2169 2647 
Q 2525 2822 2525 3272 
Q 2525 3606 2287 3787 
Q 2050 3969 1734 3969 
Q 1172 3969 956 3594 
Q 838 3388 822 3006 
L 266 3006 
Q 266 3506 466 3856 
Q 809 4481 1675 4481 
Q 2359 4481 2734 4176 
Q 3109 3872 3109 3294 
Q 3109 2881 2888 2625 
Q 2750 2466 2531 2375 
Q 2884 2278 3082 2001 
Q 3281 1725 3281 1325 
Q 3281 684 2859 281 
Q 2438 -122 1663 -122 
z
" transform="scale(0.015625)"/>
       </defs>
       <use xlink:href="#Helvetica-49"/>
       <use xlink:href="#Helvetica-4c" x="27.783203"/>
       <use xlink:href="#Helvetica-43" x="83.398438"/>
       <use xlink:href="#Helvetica-33" x="155.615234"/>
      </g>
     </g>
    </g>
    <g id="xtick_2">
     <g id="text_2">
      <!-- TH17 -->
      <g style="fill: #333333" transform="translate(37.674997 81.230229) scale(0.035 -0.035)">
       <defs>
        <path id="Helvetica-54" d="M 3828 4591 
L 3828 4044 
L 2281 4044 
L 2281 0 
L 1650 0 
L 1650 4044 
L 103 4044 
L 103 4591 
L 3828 4591 
z
" transform="scale(0.015625)"/>
        <path id="Helvetica-48" d="M 503 4591 
L 1131 4591 
L 1131 2694 
L 3519 2694 
L 3519 4591 
L 4147 4591 
L 4147 0 
L 3519 0 
L 3519 2147 
L 1131 2147 
L 1131 0 
L 503 0 
L 503 4591 
z
" transform="scale(0.015625)"/>
        <path id="Helvetica-31" d="M 613 3169 
L 613 3600 
Q 1222 3659 1462 3798 
Q 1703 3938 1822 4456 
L 2266 4456 
L 2266 0 
L 1666 0 
L 1666 3169 
L 613 3169 
z
" transform="scale(0.015625)"/>
        <path id="Helvetica-37" d="M 3347 4400 
L 3347 3909 
Q 3131 3700 2773 3181 
Q 2416 2663 2141 2063 
Q 1869 1478 1728 997 
Q 1638 688 1494 0 
L 872 0 
Q 1084 1281 1809 2550 
Q 2238 3294 2709 3834 
L 234 3834 
L 234 4400 
L 3347 4400 
z
" transform="scale(0.015625)"/>
       </defs>
       <use xlink:href="#Helvetica-54"/>
       <use xlink:href="#Helvetica-48" x="61.083984"/>
       <use xlink:href="#Helvetica-31" x="133.300781"/>
       <use xlink:href="#Helvetica-37" x="188.916016"/>
      </g>
     </g>
    </g>
   </g>
   <g id="matplotlib.axis_2">
    <g id="ytick_1">
     <g id="line2d_1">
      <defs>
       <path id="m205d1b2be7" d="M 0 0 
L -1 0 
" style="stroke: #777777; stroke-width: 0.5"/>
      </defs>
      <g>
       <use xlink:href="#m205d1b2be7" x="8.336802" y="66.995102" style="fill: #777777; stroke: #777777; stroke-width: 0.5"/>
      </g>
     </g>
     <g id="text_3">
      <!-- 0 -->
      <g style="fill: #333333" transform="translate(4.668521 68.071117) scale(0.03 -0.03)">
       <defs>
        <path id="Helvetica-30" d="M 1731 4475 
Q 2600 4475 2988 3759 
Q 3288 3206 3288 2244 
Q 3288 1331 3016 734 
Q 2622 -122 1728 -122 
Q 922 -122 528 578 
Q 200 1163 200 2147 
Q 200 2909 397 3456 
Q 766 4475 1731 4475 
z
M 1725 391 
Q 2163 391 2422 778 
Q 2681 1166 2681 2222 
Q 2681 2984 2493 3476 
Q 2306 3969 1766 3969 
Q 1269 3969 1039 3501 
Q 809 3034 809 2125 
Q 809 1441 956 1025 
Q 1181 391 1725 391 
z
" transform="scale(0.015625)"/>
       </defs>
       <use xlink:href="#Helvetica-30"/>
      </g>
     </g>
    </g>
    <g id="ytick_2">
     <g id="line2d_2">
      <g>
       <use xlink:href="#m205d1b2be7" x="8.336802" y="54.411333" style="fill: #777777; stroke: #777777; stroke-width: 0.5"/>
      </g>
     </g>
     <g id="text_4">
      <!-- 10 -->
      <g style="fill: #333333" transform="translate(3.00024 55.487348) scale(0.03 -0.03)">
       <use xlink:href="#Helvetica-31"/>
       <use xlink:href="#Helvetica-30" x="55.615234"/>
      </g>
     </g>
    </g>
    <g id="ytick_3">
     <g id="line2d_3">
      <g>
       <use xlink:href="#m205d1b2be7" x="8.336802" y="41.827563" style="fill: #777777; stroke: #777777; stroke-width: 0.5"/>
      </g>
     </g>
     <g id="text_5">
      <!-- 20 -->
      <g style="fill: #333333" transform="translate(3.00024 42.903579) scale(0.03 -0.03)">
       <defs>
        <path id="Helvetica-32" d="M 200 0 
Q 231 578 439 1006 
Q 647 1434 1250 1784 
L 1850 2131 
Q 2253 2366 2416 2531 
Q 2672 2791 2672 3125 
Q 2672 3516 2437 3745 
Q 2203 3975 1813 3975 
Q 1234 3975 1013 3538 
Q 894 3303 881 2888 
L 309 2888 
Q 319 3472 525 3841 
Q 891 4491 1816 4491 
Q 2584 4491 2939 4075 
Q 3294 3659 3294 3150 
Q 3294 2613 2916 2231 
Q 2697 2009 2131 1694 
L 1703 1456 
Q 1397 1288 1222 1134 
Q 909 863 828 531 
L 3272 531 
L 3272 0 
L 200 0 
z
" transform="scale(0.015625)"/>
       </defs>
       <use xlink:href="#Helvetica-32"/>
       <use xlink:href="#Helvetica-30" x="55.615234"/>
      </g>
     </g>
    </g>
    <g id="ytick_4">
     <g id="line2d_4">
      <g>
       <use xlink:href="#m205d1b2be7" x="8.336802" y="29.243794" style="fill: #777777; stroke: #777777; stroke-width: 0.5"/>
      </g>
     </g>
     <g id="text_6">
      <!-- 30 -->
      <g style="fill: #333333" transform="translate(3.00024 30.31981) scale(0.03 -0.03)">
       <use xlink:href="#Helvetica-33"/>
       <use xlink:href="#Helvetica-30" x="55.615234"/>
      </g>
     </g>
    </g>
    <g id="ytick_5">
     <g id="line2d_5">
      <g>
       <use xlink:href="#m205d1b2be7" x="8.336802" y="16.660025" style="fill: #777777; stroke: #777777; stroke-width: 0.5"/>
      </g>
     </g>
     <g id="text_7">
      <!-- 40 -->
      <g style="fill: #333333" transform="translate(3.00024 17.73604) scale(0.03 -0.03)">
       <defs>
        <path id="Helvetica-34" d="M 2116 1584 
L 2116 3613 
L 681 1584 
L 2116 1584 
z
M 2125 0 
L 2125 1094 
L 163 1094 
L 163 1644 
L 2213 4488 
L 2688 4488 
L 2688 1584 
L 3347 1584 
L 3347 1094 
L 2688 1094 
L 2688 0 
L 2125 0 
z
" transform="scale(0.015625)"/>
       </defs>
       <use xlink:href="#Helvetica-34"/>
       <use xlink:href="#Helvetica-30" x="55.615234"/>
      </g>
     </g>
    </g>
    <g id="ytick_6">
     <g id="line2d_6">
      <g>
       <use xlink:href="#m205d1b2be7" x="8.336802" y="4.076256" style="fill: #777777; stroke: #777777; stroke-width: 0.5"/>
      </g>
     </g>
     <g id="text_8">
      <!-- 50 -->
      <g style="fill: #333333" transform="translate(3.00024 5.152271) scale(0.03 -0.03)">
       <defs>
        <path id="Helvetica-35" d="M 791 1141 
Q 847 659 1238 475 
Q 1438 381 1700 381 
Q 2200 381 2440 700 
Q 2681 1019 2681 1406 
Q 2681 1875 2395 2131 
Q 2109 2388 1709 2388 
Q 1419 2388 1211 2275 
Q 1003 2163 856 1963 
L 369 1991 
L 709 4400 
L 3034 4400 
L 3034 3856 
L 1131 3856 
L 941 2613 
Q 1097 2731 1238 2791 
Q 1488 2894 1816 2894 
Q 2431 2894 2859 2497 
Q 3288 2100 3288 1491 
Q 3288 856 2895 371 
Q 2503 -113 1644 -113 
Q 1097 -113 676 195 
Q 256 503 206 1141 
L 791 1141 
z
" transform="scale(0.015625)"/>
       </defs>
       <use xlink:href="#Helvetica-35"/>
       <use xlink:href="#Helvetica-30" x="55.615234"/>
      </g>
     </g>
    </g>
   </g>
   <g id="PolyCollection_1">
    <defs>
     <path id="ma5ab791d33" d="M 21.559829 -17.916246 
L 17.525254 -17.916246 
L 17.136515 -17.920416 
L 16.705652 -17.924586 
L 16.235619 -17.928756 
L 15.731205 -17.932926 
L 15.199074 -17.937095 
L 14.647702 -17.941265 
L 14.087205 -17.945435 
L 13.529048 -17.949605 
L 12.985659 -17.953775 
L 12.469956 -17.957945 
L 11.994816 -17.962114 
L 11.572518 -17.966284 
L 11.214199 -17.970454 
L 10.929356 -17.974624 
L 10.725424 -17.978794 
L 10.607459 -17.982964 
L 10.57795 -17.987133 
L 10.636756 -17.991303 
L 10.781175 -17.995473 
L 11.00614 -17.999643 
L 11.304509 -18.003813 
L 11.66744 -18.007982 
L 12.084815 -18.012152 
L 12.545685 -18.016322 
L 13.038728 -18.020492 
L 13.552661 -18.024662 
L 14.076628 -18.028832 
L 14.600518 -18.033001 
L 15.115231 -18.037171 
L 15.612858 -18.041341 
L 16.08681 -18.045511 
L 16.531869 -18.049681 
L 16.944183 -18.053851 
L 17.321218 -18.05802 
L 17.661653 -18.06219 
L 17.965257 -18.06636 
L 18.232735 -18.07053 
L 18.465566 -18.0747 
L 18.665828 -18.07887 
L 18.836043 -18.083039 
L 18.979012 -18.087209 
L 19.097681 -18.091379 
L 19.195016 -18.095549 
L 19.273908 -18.099719 
L 19.337088 -18.103889 
L 19.387078 -18.108058 
L 19.426149 -18.112228 
L 19.456302 -18.116398 
L 19.479266 -18.120568 
L 19.496501 -18.124738 
L 19.509216 -18.128907 
L 19.518383 -18.133077 
L 19.524767 -18.137247 
L 19.528939 -18.141417 
L 19.531306 -18.145587 
L 19.532119 -18.149757 
L 19.531497 -18.153926 
L 19.529432 -18.158096 
L 19.525797 -18.162266 
L 19.520357 -18.166436 
L 19.512769 -18.170606 
L 19.502589 -18.174776 
L 19.48928 -18.178945 
L 19.472222 -18.183115 
L 19.450732 -18.187285 
L 19.424087 -18.191455 
L 19.391558 -18.195625 
L 19.352453 -18.199795 
L 19.306168 -18.203964 
L 19.252241 -18.208134 
L 19.190418 -18.212304 
L 19.120713 -18.216474 
L 19.04346 -18.220644 
L 18.959367 -18.224814 
L 18.869535 -18.228983 
L 18.775478 -18.233153 
L 18.679093 -18.237323 
L 18.582625 -18.241493 
L 18.488585 -18.245663 
L 18.399652 -18.249833 
L 18.318551 -18.254002 
L 18.247916 -18.258172 
L 18.19015 -18.262342 
L 18.147289 -18.266512 
L 18.120882 -18.270682 
L 18.111901 -18.274851 
L 18.120678 -18.279021 
L 18.146889 -18.283191 
L 18.189569 -18.287361 
L 18.247174 -18.291531 
L 18.317674 -18.295701 
L 18.39867 -18.29987 
L 18.487528 -18.30404 
L 18.581525 -18.30821 
L 18.67798 -18.31238 
L 18.774379 -18.31655 
L 18.868475 -18.32072 
L 18.958364 -18.324889 
L 19.042532 -18.329059 
L 20.042552 -18.329059 
L 20.042552 -18.329059 
L 20.126719 -18.324889 
L 20.216609 -18.32072 
L 20.310705 -18.31655 
L 20.407104 -18.31238 
L 20.503559 -18.30821 
L 20.597556 -18.30404 
L 20.686414 -18.29987 
L 20.767409 -18.295701 
L 20.837909 -18.291531 
L 20.895515 -18.287361 
L 20.938195 -18.283191 
L 20.964406 -18.279021 
L 20.973183 -18.274851 
L 20.964202 -18.270682 
L 20.937795 -18.266512 
L 20.894934 -18.262342 
L 20.837168 -18.258172 
L 20.766533 -18.254002 
L 20.685432 -18.249833 
L 20.596499 -18.245663 
L 20.502459 -18.241493 
L 20.405991 -18.237323 
L 20.309606 -18.233153 
L 20.215548 -18.228983 
L 20.125717 -18.224814 
L 20.041623 -18.220644 
L 19.964371 -18.216474 
L 19.894666 -18.212304 
L 19.832843 -18.208134 
L 19.778916 -18.203964 
L 19.73263 -18.199795 
L 19.693526 -18.195625 
L 19.660997 -18.191455 
L 19.634351 -18.187285 
L 19.612861 -18.183115 
L 19.595804 -18.178945 
L 19.582494 -18.174776 
L 19.572314 -18.170606 
L 19.564727 -18.166436 
L 19.559287 -18.162266 
L 19.555652 -18.158096 
L 19.553586 -18.153926 
L 19.552964 -18.149757 
L 19.553778 -18.145587 
L 19.556144 -18.141417 
L 19.560317 -18.137247 
L 19.566701 -18.133077 
L 19.575868 -18.128907 
L 19.588583 -18.124738 
L 19.605818 -18.120568 
L 19.628782 -18.116398 
L 19.658935 -18.112228 
L 19.698006 -18.108058 
L 19.747996 -18.103889 
L 19.811176 -18.099719 
L 19.890067 -18.095549 
L 19.987403 -18.091379 
L 20.106071 -18.087209 
L 20.24904 -18.083039 
L 20.419255 -18.07887 
L 20.619518 -18.0747 
L 20.852348 -18.07053 
L 21.119827 -18.06636 
L 21.423431 -18.06219 
L 21.763866 -18.05802 
L 22.1409 -18.053851 
L 22.553215 -18.049681 
L 22.998274 -18.045511 
L 23.472226 -18.041341 
L 23.969853 -18.037171 
L 24.484565 -18.033001 
L 25.008456 -18.028832 
L 25.532423 -18.024662 
L 26.046356 -18.020492 
L 26.539398 -18.016322 
L 27.000269 -18.012152 
L 27.417643 -18.007982 
L 27.780574 -18.003813 
L 28.078944 -17.999643 
L 28.303909 -17.995473 
L 28.448328 -17.991303 
L 28.507133 -17.987133 
L 28.477625 -17.982964 
L 28.35966 -17.978794 
L 28.155728 -17.974624 
L 27.870885 -17.970454 
L 27.512566 -17.966284 
L 27.090268 -17.962114 
L 26.615128 -17.957945 
L 26.099425 -17.953775 
L 25.556036 -17.949605 
L 24.997879 -17.945435 
L 24.437381 -17.941265 
L 23.88601 -17.937095 
L 23.353879 -17.932926 
L 22.849465 -17.928756 
L 22.379432 -17.924586 
L 21.948569 -17.920416 
L 21.559829 -17.916246 
z
" style="stroke: #7c7c7c; stroke-width: 0.15"/>
    </defs>
    <g clip-path="url(#p193c750229)">
     <use xlink:href="#ma5ab791d33" x="0" y="84.96" style="fill: #cfcfcf; stroke: #7c7c7c; stroke-width: 0.15"/>
    </g>
   </g>
   <g id="PolyCollection_2">
    <defs>
     <path id="me842372f39" d="M 44.203308 -17.874799 
L 39.704734 -17.874799 
L 39.297916 -17.881798 
L 38.851722 -17.888798 
L 38.369935 -17.895797 
L 37.858111 -17.902796 
L 37.323574 -17.909796 
L 36.775304 -17.916795 
L 36.223715 -17.923794 
L 35.680327 -17.930794 
L 35.157341 -17.937793 
L 34.667144 -17.944793 
L 34.221764 -17.951792 
L 33.832317 -17.958791 
L 33.508481 -17.965791 
L 33.258031 -17.97279 
L 33.086475 -17.979789 
L 32.996812 -17.986789 
L 32.989429 -17.993788 
L 33.062149 -18.000787 
L 33.210413 -18.007787 
L 33.42759 -18.014786 
L 33.705376 -18.021785 
L 34.034262 -18.028785 
L 34.404025 -18.035784 
L 34.8042 -18.042783 
L 35.224527 -18.049783 
L 35.655313 -18.056782 
L 36.087715 -18.063781 
L 36.513937 -18.070781 
L 36.927324 -18.07778 
L 37.322385 -18.084779 
L 37.694754 -18.091779 
L 38.041092 -18.098778 
L 38.358988 -18.105778 
L 38.64683 -18.112777 
L 38.90371 -18.119776 
L 39.129333 -18.126776 
L 39.323961 -18.133775 
L 39.488378 -18.140774 
L 39.623876 -18.147774 
L 39.732251 -18.154773 
L 39.815794 -18.161772 
L 39.877279 -18.168772 
L 39.91992 -18.175771 
L 39.94731 -18.18277 
L 39.963321 -18.18977 
L 39.971983 -18.196769 
L 39.977336 -18.203768 
L 39.983267 -18.210768 
L 39.993346 -18.217767 
L 40.01067 -18.224766 
L 40.037727 -18.231766 
L 40.076293 -18.238765 
L 40.127365 -18.245764 
L 40.191137 -18.252764 
L 40.267023 -18.259763 
L 40.353716 -18.266762 
L 40.449287 -18.273762 
L 40.551305 -18.280761 
L 40.656973 -18.287761 
L 40.763282 -18.29476 
L 40.867142 -18.301759 
L 40.965525 -18.308759 
L 41.055572 -18.315758 
L 41.134697 -18.322757 
L 41.200655 -18.329757 
L 41.251606 -18.336756 
L 41.286153 -18.343755 
L 41.303367 -18.350755 
L 41.302805 -18.357754 
L 41.28452 -18.364753 
L 41.249062 -18.371753 
L 41.197479 -18.378752 
L 41.1313 -18.385751 
L 41.052524 -18.392751 
L 40.96358 -18.39975 
L 40.86728 -18.406749 
L 40.766755 -18.413749 
L 40.665362 -18.420748 
L 40.566584 -18.427747 
L 40.473902 -18.434747 
L 40.390664 -18.441746 
L 40.319947 -18.448745 
L 40.264427 -18.455745 
L 40.226251 -18.462744 
L 40.206947 -18.469744 
L 40.207352 -18.476743 
L 40.227583 -18.483742 
L 40.267036 -18.490742 
L 40.32444 -18.497741 
L 40.397928 -18.50474 
L 40.485151 -18.51174 
L 40.583408 -18.518739 
L 40.689789 -18.525738 
L 40.801318 -18.532738 
L 40.915094 -18.539737 
L 41.028409 -18.546736 
L 41.138851 -18.553736 
L 41.244373 -18.560735 
L 41.343343 -18.567734 
L 42.564699 -18.567734 
L 42.564699 -18.567734 
L 42.663668 -18.560735 
L 42.769191 -18.553736 
L 42.879632 -18.546736 
L 42.992947 -18.539737 
L 43.106723 -18.532738 
L 43.218253 -18.525738 
L 43.324633 -18.518739 
L 43.422891 -18.51174 
L 43.510114 -18.50474 
L 43.583601 -18.497741 
L 43.641005 -18.490742 
L 43.680459 -18.483742 
L 43.700689 -18.476743 
L 43.701094 -18.469744 
L 43.681791 -18.462744 
L 43.643615 -18.455745 
L 43.588094 -18.448745 
L 43.517378 -18.441746 
L 43.43414 -18.434747 
L 43.341457 -18.427747 
L 43.242679 -18.420748 
L 43.141286 -18.413749 
L 43.040761 -18.406749 
L 42.944462 -18.39975 
L 42.855517 -18.392751 
L 42.776741 -18.385751 
L 42.710563 -18.378752 
L 42.658979 -18.371753 
L 42.623521 -18.364753 
L 42.605236 -18.357754 
L 42.604674 -18.350755 
L 42.621888 -18.343755 
L 42.656435 -18.336756 
L 42.707387 -18.329757 
L 42.773345 -18.322757 
L 42.852469 -18.315758 
L 42.942516 -18.308759 
L 43.040899 -18.301759 
L 43.14476 -18.29476 
L 43.251068 -18.287761 
L 43.356737 -18.280761 
L 43.458754 -18.273762 
L 43.554325 -18.266762 
L 43.641018 -18.259763 
L 43.716904 -18.252764 
L 43.780676 -18.245764 
L 43.831748 -18.238765 
L 43.870314 -18.231766 
L 43.897372 -18.224766 
L 43.914696 -18.217767 
L 43.924774 -18.210768 
L 43.930705 -18.203768 
L 43.936058 -18.196769 
L 43.94472 -18.18977 
L 43.960731 -18.18277 
L 43.988121 -18.175771 
L 44.030762 -18.168772 
L 44.092247 -18.161772 
L 44.17579 -18.154773 
L 44.284165 -18.147774 
L 44.419663 -18.140774 
L 44.584081 -18.133775 
L 44.778708 -18.126776 
L 45.004331 -18.119776 
L 45.261211 -18.112777 
L 45.549054 -18.105778 
L 45.866949 -18.098778 
L 46.213288 -18.091779 
L 46.585656 -18.084779 
L 46.980718 -18.07778 
L 47.394104 -18.070781 
L 47.820326 -18.063781 
L 48.252729 -18.056782 
L 48.683514 -18.049783 
L 49.103841 -18.042783 
L 49.504017 -18.035784 
L 49.873779 -18.028785 
L 50.202666 -18.021785 
L 50.480452 -18.014786 
L 50.697628 -18.007787 
L 50.845892 -18.000787 
L 50.918612 -17.993788 
L 50.911229 -17.986789 
L 50.821566 -17.979789 
L 50.65001 -17.97279 
L 50.399561 -17.965791 
L 50.075725 -17.958791 
L 49.686278 -17.951792 
L 49.240897 -17.944793 
L 48.7507 -17.937793 
L 48.227714 -17.930794 
L 47.684326 -17.923794 
L 47.132737 -17.916795 
L 46.584467 -17.909796 
L 46.04993 -17.902796 
L 45.538106 -17.895797 
L 45.056319 -17.888798 
L 44.610126 -17.881798 
L 44.203308 -17.874799 
z
" style="stroke: #7c7c7c; stroke-width: 0.15"/>
    </defs>
    <g clip-path="url(#p193c750229)">
     <use xlink:href="#me842372f39" x="0" y="84.96" style="fill: #f3f3ae; stroke: #7c7c7c; stroke-width: 0.15"/>
    </g>
   </g>
   <g id="line2d_7">
    <path d="M 19.542542 66.98957 
L 19.542542 66.938758 
" clip-path="url(#p193c750229)" style="fill: none; stroke: #8c8c8c; stroke-width: 0.75; stroke-linecap: round"/>
   </g>
   <g id="line2d_8">
    <path d="M 19.542542 66.986633 
L 19.542542 66.949171 
" clip-path="url(#p193c750229)" style="fill: none; stroke: #8c8c8c; stroke-width: 4; stroke-linecap: round"/>
   </g>
   <g id="line2d_9">
    <path d="M 19.542542 66.973901 
" clip-path="url(#p193c750229)" style="fill: none; stroke: #7c7c7c; stroke-width: 1.2; stroke-linecap: round"/>
    <defs>
     <path id="m88657b5f35" d="M 0 0.833333 
C 0.221003 0.833333 0.432983 0.745528 0.589256 0.589256 
C 0.745528 0.432983 0.833333 0.221003 0.833333 0 
C 0.833333 -0.221003 0.745528 -0.432983 0.589256 -0.589256 
C 0.432983 -0.745528 0.221003 -0.833333 0 -0.833333 
C -0.221003 -0.833333 -0.432983 -0.745528 -0.589256 -0.589256 
C -0.745528 -0.432983 -0.833333 -0.221003 -0.833333 0 
C -0.833333 0.221003 -0.745528 0.432983 -0.589256 0.589256 
C -0.432983 0.745528 -0.221003 0.833333 0 0.833333 
z
" style="stroke: #ffffff; stroke-width: 0.8"/>
    </defs>
    <g clip-path="url(#p193c750229)">
     <use xlink:href="#m88657b5f35" x="19.542542" y="66.973901" style="fill: #ffffff; stroke: #ffffff; stroke-width: 0.8"/>
    </g>
   </g>
   <g id="line2d_10">
    <path d="M 41.954021 66.990856 
L 41.954021 66.725477 
" clip-path="url(#p193c750229)" style="fill: none; stroke: #8c8c8c; stroke-width: 0.75; stroke-linecap: round"/>
   </g>
   <g id="line2d_11">
    <path d="M 41.954021 66.985442 
L 41.954021 66.834438 
" clip-path="url(#p193c750229)" style="fill: none; stroke: #8c8c8c; stroke-width: 4; stroke-linecap: round"/>
   </g>
   <g id="line2d_12">
    <path d="M 41.954021 66.957106 
" clip-path="url(#p193c750229)" style="fill: none; stroke: #7c7c7c; stroke-width: 1.2; stroke-linecap: round"/>
    <g clip-path="url(#p193c750229)">
     <use xlink:href="#m88657b5f35" x="41.954021" y="66.957106" style="fill: #ffffff; stroke: #ffffff; stroke-width: 0.8"/>
    </g>
   </g>
   <g id="patch_3">
    <path d="M 8.336802 74.419526 
L 8.336802 4.076256 
" style="fill: none; stroke: #777777; stroke-width: 0.5; stroke-linejoin: miter; stroke-linecap: square"/>
   </g>
   <g id="patch_4">
    <path d="M 8.336802 76.919526 
L 53.15976 76.919526 
" style="fill: none; stroke: #777777; stroke-width: 0.5; stroke-linejoin: miter; stroke-linecap: square"/>
   </g>
  </g>
 </g>
 <defs>
  <clipPath id="p193c750229">
   <rect x="8.336802" y="4.076256" width="44.822958" height="70.34327"/>
  </clipPath>
 </defs>
</svg>
