<?xml version="1.0" encoding="utf-8" standalone="no"?>
<!DOCTYPE svg PUBLIC "-//W3C//DTD SVG 1.1//EN"
  "http://www.w3.org/Graphics/SVG/1.1/DTD/svg11.dtd">
<svg xmlns:xlink="http://www.w3.org/1999/xlink" width="56.16pt" height="84.96pt" viewBox="0 0 56.16 84.96" xmlns="http://www.w3.org/2000/svg" version="1.1">
 <metadata>
  <rdf:RDF xmlns:dc="http://purl.org/dc/elements/1.1/" xmlns:cc="http://creativecommons.org/ns#" xmlns:rdf="http://www.w3.org/1999/02/22-rdf-syntax-ns#">
   <cc:Work>
    <dc:type rdf:resource="http://purl.org/dc/dcmitype/StillImage"/>
    <dc:date>2024-05-27T15:37:04.211872</dc:date>
    <dc:format>image/svg+xml</dc:format>
    <dc:creator>
     <cc:Agent>
      <dc:title>Matplotlib v3.8.3, https://matplotlib.org/</dc:title>
     </cc:Agent>
    </dc:creator>
   </cc:Work>
  </rdf:RDF>
 </metadata>
 <defs>
  <style type="text/css">*{stroke-linejoin: round; stroke-linecap: butt}</style>
 </defs>
 <g id="figure_1">
  <g id="patch_1">
   <path d="M 0 84.96 
L 56.16 84.96 
L 56.16 0 
L 0 0 
z
" style="fill: #ffffff"/>
  </g>
  <g id="axes_1">
   <g id="patch_2">
    <path d="M 8.336802 74.419526 
L 53.15976 74.419526 
L 53.15976 4.076256 
L 8.336802 4.076256 
z
" style="fill: #ffffff"/>
   </g>
   <g id="matplotlib.axis_1">
    <g id="xtick_1">
     <g id="text_1">
      <!-- ILC2 -->
      <g style="fill: #333333" transform="translate(15.846214 81.230229) scale(0.035 -0.035)">
       <defs>
        <path id="Helvetica-49" d="M 628 4591 
L 1256 4591 
L 1256 0 
L 628 0 
L 628 4591 
z
" transform="scale(0.015625)"/>
        <path id="Helvetica-4c" d="M 488 4591 
L 1109 4591 
L 1109 547 
L 3434 547 
L 3434 0 
L 488 0 
L 488 4591 
z
" transform="scale(0.015625)"/>
        <path id="Helvetica-43" d="M 2422 4716 
Q 3294 4716 3775 4256 
Q 4256 3797 4309 3213 
L 3703 3213 
Q 3600 3656 3292 3915 
Q 2984 4175 2428 4175 
Q 1750 4175 1333 3698 
Q 916 3222 916 2238 
Q 916 1431 1292 929 
Q 1669 428 2416 428 
Q 3103 428 3463 956 
Q 3653 1234 3747 1688 
L 4353 1688 
Q 4272 963 3816 472 
Q 3269 -119 2341 -119 
Q 1541 -119 997 366 
Q 281 1006 281 2344 
Q 281 3359 819 4009 
Q 1400 4716 2422 4716 
z
M 2297 4716 
L 2297 4716 
z
" transform="scale(0.015625)"/>
        <path id="Helvetica-32" d="M 200 0 
Q 231 578 439 1006 
Q 647 1434 1250 1784 
L 1850 2131 
Q 2253 2366 2416 2531 
Q 2672 2791 2672 3125 
Q 2672 3516 2437 3745 
Q 2203 3975 1813 3975 
Q 1234 3975 1013 3538 
Q 894 3303 881 2888 
L 309 2888 
Q 319 3472 525 3841 
Q 891 4491 1816 4491 
Q 2584 4491 2939 4075 
Q 3294 3659 3294 3150 
Q 3294 2613 2916 2231 
Q 2697 2009 2131 1694 
L 1703 1456 
Q 1397 1288 1222 1134 
Q 909 863 828 531 
L 3272 531 
L 3272 0 
L 200 0 
z
" transform="scale(0.015625)"/>
       </defs>
       <use xlink:href="#Helvetica-49"/>
       <use xlink:href="#Helvetica-4c" x="27.783203"/>
       <use xlink:href="#Helvetica-43" x="83.398438"/>
       <use xlink:href="#Helvetica-32" x="155.615234"/>
      </g>
     </g>
    </g>
    <g id="xtick_2">
     <g id="text_2">
      <!-- TH2 -->
      <g style="fill: #333333" transform="translate(38.648161 81.230229) scale(0.035 -0.035)">
       <defs>
        <path id="Helvetica-54" d="M 3828 4591 
L 3828 4044 
L 2281 4044 
L 2281 0 
L 1650 0 
L 1650 4044 
L 103 4044 
L 103 4591 
L 3828 4591 
z
" transform="scale(0.015625)"/>
        <path id="Helvetica-48" d="M 503 4591 
L 1131 4591 
L 1131 2694 
L 3519 2694 
L 3519 4591 
L 4147 4591 
L 4147 0 
L 3519 0 
L 3519 2147 
L 1131 2147 
L 1131 0 
L 503 0 
L 503 4591 
z
" transform="scale(0.015625)"/>
       </defs>
       <use xlink:href="#Helvetica-54"/>
       <use xlink:href="#Helvetica-48" x="61.083984"/>
       <use xlink:href="#Helvetica-32" x="133.300781"/>
      </g>
     </g>
    </g>
   </g>
   <g id="matplotlib.axis_2">
    <g id="ytick_1">
     <g id="line2d_1">
      <defs>
       <path id="mc2e0ecdce0" d="M 0 0 
L -1 0 
" style="stroke: #777777; stroke-width: 0.5"/>
      </defs>
      <g>
       <use xlink:href="#mc2e0ecdce0" x="8.336802" y="66.995102" style="fill: #777777; stroke: #777777; stroke-width: 0.5"/>
      </g>
     </g>
     <g id="text_3">
      <!-- 0 -->
      <g style="fill: #333333" transform="translate(4.668521 68.071117) scale(0.03 -0.03)">
       <defs>
        <path id="Helvetica-30" d="M 1731 4475 
Q 2600 4475 2988 3759 
Q 3288 3206 3288 2244 
Q 3288 1331 3016 734 
Q 2622 -122 1728 -122 
Q 922 -122 528 578 
Q 200 1163 200 2147 
Q 200 2909 397 3456 
Q 766 4475 1731 4475 
z
M 1725 391 
Q 2163 391 2422 778 
Q 2681 1166 2681 2222 
Q 2681 2984 2493 3476 
Q 2306 3969 1766 3969 
Q 1269 3969 1039 3501 
Q 809 3034 809 2125 
Q 809 1441 956 1025 
Q 1181 391 1725 391 
z
" transform="scale(0.015625)"/>
       </defs>
       <use xlink:href="#Helvetica-30"/>
      </g>
     </g>
    </g>
    <g id="ytick_2">
     <g id="line2d_2">
      <g>
       <use xlink:href="#mc2e0ecdce0" x="8.336802" y="54.411333" style="fill: #777777; stroke: #777777; stroke-width: 0.5"/>
      </g>
     </g>
     <g id="text_4">
      <!-- 10 -->
      <g style="fill: #333333" transform="translate(3.00024 55.487348) scale(0.03 -0.03)">
       <defs>
        <path id="Helvetica-31" d="M 613 3169 
L 613 3600 
Q 1222 3659 1462 3798 
Q 1703 3938 1822 4456 
L 2266 4456 
L 2266 0 
L 1666 0 
L 1666 3169 
L 613 3169 
z
" transform="scale(0.015625)"/>
       </defs>
       <use xlink:href="#Helvetica-31"/>
       <use xlink:href="#Helvetica-30" x="55.615234"/>
      </g>
     </g>
    </g>
    <g id="ytick_3">
     <g id="line2d_3">
      <g>
       <use xlink:href="#mc2e0ecdce0" x="8.336802" y="41.827563" style="fill: #777777; stroke: #777777; stroke-width: 0.5"/>
      </g>
     </g>
     <g id="text_5">
      <!-- 20 -->
      <g style="fill: #333333" transform="translate(3.00024 42.903579) scale(0.03 -0.03)">
       <use xlink:href="#Helvetica-32"/>
       <use xlink:href="#Helvetica-30" x="55.615234"/>
      </g>
     </g>
    </g>
    <g id="ytick_4">
     <g id="line2d_4">
      <g>
       <use xlink:href="#mc2e0ecdce0" x="8.336802" y="29.243794" style="fill: #777777; stroke: #777777; stroke-width: 0.5"/>
      </g>
     </g>
     <g id="text_6">
      <!-- 30 -->
      <g style="fill: #333333" transform="translate(3.00024 30.31981) scale(0.03 -0.03)">
       <defs>
        <path id="Helvetica-33" d="M 1663 -122 
Q 869 -122 511 314 
Q 153 750 153 1375 
L 741 1375 
Q 778 941 903 744 
Q 1122 391 1694 391 
Q 2138 391 2406 628 
Q 2675 866 2675 1241 
Q 2675 1703 2392 1887 
Q 2109 2072 1606 2072 
Q 1550 2072 1492 2070 
Q 1434 2069 1375 2066 
L 1375 2563 
Q 1463 2553 1522 2550 
Q 1581 2547 1650 2547 
Q 1966 2547 2169 2647 
Q 2525 2822 2525 3272 
Q 2525 3606 2287 3787 
Q 2050 3969 1734 3969 
Q 1172 3969 956 3594 
Q 838 3388 822 3006 
L 266 3006 
Q 266 3506 466 3856 
Q 809 4481 1675 4481 
Q 2359 4481 2734 4176 
Q 3109 3872 3109 3294 
Q 3109 2881 2888 2625 
Q 2750 2466 2531 2375 
Q 2884 2278 3082 2001 
Q 3281 1725 3281 1325 
Q 3281 684 2859 281 
Q 2438 -122 1663 -122 
z
" transform="scale(0.015625)"/>
       </defs>
       <use xlink:href="#Helvetica-33"/>
       <use xlink:href="#Helvetica-30" x="55.615234"/>
      </g>
     </g>
    </g>
    <g id="ytick_5">
     <g id="line2d_5">
      <g>
       <use xlink:href="#mc2e0ecdce0" x="8.336802" y="16.660025" style="fill: #777777; stroke: #777777; stroke-width: 0.5"/>
      </g>
     </g>
     <g id="text_7">
      <!-- 40 -->
      <g style="fill: #333333" transform="translate(3.00024 17.73604) scale(0.03 -0.03)">
       <defs>
        <path id="Helvetica-34" d="M 2116 1584 
L 2116 3613 
L 681 1584 
L 2116 1584 
z
M 2125 0 
L 2125 1094 
L 163 1094 
L 163 1644 
L 2213 4488 
L 2688 4488 
L 2688 1584 
L 3347 1584 
L 3347 1094 
L 2688 1094 
L 2688 0 
L 2125 0 
z
" transform="scale(0.015625)"/>
       </defs>
       <use xlink:href="#Helvetica-34"/>
       <use xlink:href="#Helvetica-30" x="55.615234"/>
      </g>
     </g>
    </g>
    <g id="ytick_6">
     <g id="line2d_6">
      <g>
       <use xlink:href="#mc2e0ecdce0" x="8.336802" y="4.076256" style="fill: #777777; stroke: #777777; stroke-width: 0.5"/>
      </g>
     </g>
     <g id="text_8">
      <!-- 50 -->
      <g style="fill: #333333" transform="translate(3.00024 5.152271) scale(0.03 -0.03)">
       <defs>
        <path id="Helvetica-35" d="M 791 1141 
Q 847 659 1238 475 
Q 1438 381 1700 381 
Q 2200 381 2440 700 
Q 2681 1019 2681 1406 
Q 2681 1875 2395 2131 
Q 2109 2388 1709 2388 
Q 1419 2388 1211 2275 
Q 1003 2163 856 1963 
L 369 1991 
L 709 4400 
L 3034 4400 
L 3034 3856 
L 1131 3856 
L 941 2613 
Q 1097 2731 1238 2791 
Q 1488 2894 1816 2894 
Q 2431 2894 2859 2497 
Q 3288 2100 3288 1491 
Q 3288 856 2895 371 
Q 2503 -113 1644 -113 
Q 1097 -113 676 195 
Q 256 503 206 1141 
L 791 1141 
z
" transform="scale(0.015625)"/>
       </defs>
       <use xlink:href="#Helvetica-35"/>
       <use xlink:href="#Helvetica-30" x="55.615234"/>
      </g>
     </g>
    </g>
   </g>
   <g id="PolyCollection_1">
    <defs>
     <path id="m6374fef4f3" d="M 21.327892 -17.270575 
L 17.757191 -17.270575 
L 17.443709 -17.33112 
L 17.097214 -17.391666 
L 16.718816 -17.452212 
L 16.310654 -17.512758 
L 15.875948 -17.573303 
L 15.419021 -17.633849 
L 14.945262 -17.694395 
L 14.46104 -17.754941 
L 13.973567 -17.815487 
L 13.490703 -17.876032 
L 13.020723 -17.936578 
L 12.572042 -17.997124 
L 12.152926 -18.05767 
L 11.771183 -18.118215 
L 11.433873 -18.178761 
L 11.147033 -18.239307 
L 10.915451 -18.299853 
L 10.742476 -18.360398 
L 10.62991 -18.420944 
L 10.57795 -18.48149 
L 10.585216 -18.542036 
L 10.648839 -18.602581 
L 10.764614 -18.663127 
L 10.927211 -18.723673 
L 11.130423 -18.784219 
L 11.36744 -18.844764 
L 11.631135 -18.90531 
L 11.914346 -18.965856 
L 12.210132 -19.026402 
L 12.512007 -19.086947 
L 12.814117 -19.147493 
L 13.111377 -19.208039 
L 13.399553 -19.268585 
L 13.675291 -19.32913 
L 13.936095 -19.389676 
L 14.18027 -19.450222 
L 14.406826 -19.510768 
L 14.61537 -19.571313 
L 14.805978 -19.631859 
L 14.979077 -19.692405 
L 15.135337 -19.752951 
L 15.275574 -19.813496 
L 15.400686 -19.874042 
L 15.511605 -19.934588 
L 15.609274 -19.995134 
L 15.694646 -20.055679 
L 15.768688 -20.116225 
L 15.832395 -20.176771 
L 15.886801 -20.237317 
L 15.932979 -20.297862 
L 15.972026 -20.358408 
L 16.005033 -20.418954 
L 16.033039 -20.4795 
L 16.056966 -20.540045 
L 16.077556 -20.600591 
L 16.095294 -20.661137 
L 16.11035 -20.721683 
L 16.122534 -20.782228 
L 16.131275 -20.842774 
L 16.135634 -20.90332 
L 16.13435 -20.963866 
L 16.125923 -21.024412 
L 16.108726 -21.084957 
L 16.081146 -21.145503 
L 16.041741 -21.206049 
L 15.989401 -21.266595 
L 15.923503 -21.32714 
L 15.844049 -21.387686 
L 15.751762 -21.448232 
L 15.648158 -21.508778 
L 15.535556 -21.569323 
L 15.41704 -21.629869 
L 15.296375 -21.690415 
L 15.177873 -21.750961 
L 15.066213 -21.811506 
L 14.966246 -21.872052 
L 14.882764 -21.932598 
L 14.820283 -21.993144 
L 14.782826 -22.053689 
L 14.773728 -22.114235 
L 14.795479 -22.174781 
L 14.849611 -22.235327 
L 14.936626 -22.295872 
L 15.055985 -22.356418 
L 15.206141 -22.416964 
L 15.38462 -22.47751 
L 15.588146 -22.538055 
L 15.812798 -22.598601 
L 16.054182 -22.659147 
L 16.307624 -22.719693 
L 16.568359 -22.780238 
L 16.83171 -22.840784 
L 17.093254 -22.90133 
L 17.348954 -22.961876 
L 17.595272 -23.022421 
L 17.829241 -23.082967 
L 18.048514 -23.143513 
L 18.251367 -23.204059 
L 18.436692 -23.264604 
L 20.648392 -23.264604 
L 20.648392 -23.264604 
L 20.833716 -23.204059 
L 21.03657 -23.143513 
L 21.255842 -23.082967 
L 21.489812 -23.022421 
L 21.73613 -22.961876 
L 21.99183 -22.90133 
L 22.253373 -22.840784 
L 22.516725 -22.780238 
L 22.77746 -22.719693 
L 23.030902 -22.659147 
L 23.272286 -22.598601 
L 23.496937 -22.538055 
L 23.700464 -22.47751 
L 23.878943 -22.416964 
L 24.029099 -22.356418 
L 24.148458 -22.295872 
L 24.235473 -22.235327 
L 24.289605 -22.174781 
L 24.311356 -22.114235 
L 24.302258 -22.053689 
L 24.2648 -21.993144 
L 24.20232 -21.932598 
L 24.118838 -21.872052 
L 24.01887 -21.811506 
L 23.907211 -21.750961 
L 23.788708 -21.690415 
L 23.668044 -21.629869 
L 23.549528 -21.569323 
L 23.436925 -21.508778 
L 23.333322 -21.448232 
L 23.241035 -21.387686 
L 23.16158 -21.32714 
L 23.095683 -21.266595 
L 23.043343 -21.206049 
L 23.003938 -21.145503 
L 22.976358 -21.084957 
L 22.95916 -21.024412 
L 22.950733 -20.963866 
L 22.94945 -20.90332 
L 22.953809 -20.842774 
L 22.96255 -20.782228 
L 22.974733 -20.721683 
L 22.989789 -20.661137 
L 23.007527 -20.600591 
L 23.028117 -20.540045 
L 23.052045 -20.4795 
L 23.080051 -20.418954 
L 23.113058 -20.358408 
L 23.152105 -20.297862 
L 23.198282 -20.237317 
L 23.252689 -20.176771 
L 23.316396 -20.116225 
L 23.390438 -20.055679 
L 23.47581 -19.995134 
L 23.573479 -19.934588 
L 23.684398 -19.874042 
L 23.80951 -19.813496 
L 23.949747 -19.752951 
L 24.106007 -19.692405 
L 24.279106 -19.631859 
L 24.469714 -19.571313 
L 24.678258 -19.510768 
L 24.904814 -19.450222 
L 25.148989 -19.389676 
L 25.409793 -19.32913 
L 25.685531 -19.268585 
L 25.973707 -19.208039 
L 26.270967 -19.147493 
L 26.573076 -19.086947 
L 26.874951 -19.026402 
L 27.170738 -18.965856 
L 27.453949 -18.90531 
L 27.717644 -18.844764 
L 27.954661 -18.784219 
L 28.157873 -18.723673 
L 28.32047 -18.663127 
L 28.436245 -18.602581 
L 28.499867 -18.542036 
L 28.507133 -18.48149 
L 28.455174 -18.420944 
L 28.342607 -18.360398 
L 28.169633 -18.299853 
L 27.93805 -18.239307 
L 27.651211 -18.178761 
L 27.313901 -18.118215 
L 26.932158 -18.05767 
L 26.513041 -17.997124 
L 26.064361 -17.936578 
L 25.594381 -17.876032 
L 25.111517 -17.815487 
L 24.624044 -17.754941 
L 24.139822 -17.694395 
L 23.666062 -17.633849 
L 23.209135 -17.573303 
L 22.77443 -17.512758 
L 22.366268 -17.452212 
L 21.98787 -17.391666 
L 21.641374 -17.33112 
L 21.327892 -17.270575 
z
" style="stroke: #717171; stroke-width: 0.15"/>
    </defs>
    <g clip-path="url(#pc1cb49b7e8)">
     <use xlink:href="#m6374fef4f3" x="0" y="84.96" style="fill: #d6bba3; stroke: #717171; stroke-width: 0.15"/>
    </g>
   </g>
   <g id="PolyCollection_2">
    <defs>
     <path id="m65cfd36d9c" d="M 43.851469 -18.166028 
L 40.056572 -18.166028 
L 39.678198 -18.294694 
L 39.256297 -18.42336 
L 38.793416 -18.552026 
L 38.29401 -18.680692 
L 37.764519 -18.809358 
L 37.213319 -18.938024 
L 36.65056 -19.06669 
L 36.087854 -19.195357 
L 35.537853 -19.324023 
L 35.013711 -19.452689 
L 34.528463 -19.581355 
L 34.094373 -19.710021 
L 33.722273 -19.838687 
L 33.420961 -19.967353 
L 33.196688 -20.096019 
L 33.052781 -20.224685 
L 32.989429 -20.353351 
L 33.003658 -20.482017 
L 33.089484 -20.610683 
L 33.238248 -20.739349 
L 33.439101 -20.868015 
L 33.679611 -20.996681 
L 33.94644 -21.125347 
L 34.22606 -21.254013 
L 34.505446 -21.382679 
L 34.772715 -21.511345 
L 35.01767 -21.640011 
L 35.232227 -21.768677 
L 35.410704 -21.897343 
L 35.549962 -22.02601 
L 35.649418 -22.154676 
L 35.710914 -22.283342 
L 35.738487 -22.412008 
L 35.73804 -22.540674 
L 35.716946 -22.66934 
L 35.683613 -22.798006 
L 35.647018 -22.926672 
L 35.616247 -23.055338 
L 35.600056 -23.184004 
L 35.606456 -23.31267 
L 35.642365 -23.441336 
L 35.713305 -23.570002 
L 35.823193 -23.698668 
L 35.974192 -23.827334 
L 36.166671 -23.956 
L 36.39923 -24.084666 
L 36.668829 -24.213332 
L 36.970979 -24.341998 
L 37.300003 -24.470664 
L 37.649346 -24.59933 
L 38.01191 -24.727996 
L 38.380397 -24.856663 
L 38.74764 -24.985329 
L 39.106898 -25.113995 
L 39.452102 -25.242661 
L 39.778038 -25.371327 
L 40.080466 -25.499993 
L 40.356159 -25.628659 
L 40.602889 -25.757325 
L 40.819348 -25.885991 
L 41.005029 -26.014657 
L 41.160077 -26.143323 
L 41.285129 -26.271989 
L 41.381158 -26.400655 
L 41.449329 -26.529321 
L 41.49089 -26.657987 
L 41.507091 -26.786653 
L 41.499152 -26.915319 
L 41.468265 -27.043985 
L 41.415636 -27.172651 
L 41.342555 -27.301317 
L 41.250493 -27.429983 
L 41.141193 -27.558649 
L 41.016777 -27.687316 
L 40.879812 -27.815982 
L 40.733365 -27.944648 
L 40.581004 -28.073314 
L 40.426752 -28.20198 
L 40.275005 -28.330646 
L 40.130378 -28.459312 
L 39.997535 -28.587978 
L 39.880973 -28.716644 
L 39.784797 -28.84531 
L 39.71251 -28.973976 
L 39.666805 -29.102642 
L 39.649421 -29.231308 
L 39.661033 -29.359974 
L 39.701219 -29.48864 
L 39.768486 -29.617306 
L 39.860366 -29.745972 
L 39.973569 -29.874638 
L 40.104176 -30.003304 
L 40.247869 -30.13197 
L 40.400163 -30.260636 
L 40.556636 -30.389302 
L 40.713134 -30.517969 
L 40.865945 -30.646635 
L 41.01192 -30.775301 
L 41.148556 -30.903967 
L 42.759485 -30.903967 
L 42.759485 -30.903967 
L 42.896121 -30.775301 
L 43.042096 -30.646635 
L 43.194907 -30.517969 
L 43.351405 -30.389302 
L 43.507878 -30.260636 
L 43.660172 -30.13197 
L 43.803865 -30.003304 
L 43.934473 -29.874638 
L 44.047675 -29.745972 
L 44.139555 -29.617306 
L 44.206822 -29.48864 
L 44.247008 -29.359974 
L 44.25862 -29.231308 
L 44.241236 -29.102642 
L 44.195532 -28.973976 
L 44.123244 -28.84531 
L 44.027069 -28.716644 
L 43.910506 -28.587978 
L 43.777663 -28.459312 
L 43.633037 -28.330646 
L 43.481289 -28.20198 
L 43.327038 -28.073314 
L 43.174676 -27.944648 
L 43.028229 -27.815982 
L 42.891265 -27.687316 
L 42.766848 -27.558649 
L 42.657549 -27.429983 
L 42.565486 -27.301317 
L 42.492405 -27.172651 
L 42.439776 -27.043985 
L 42.408889 -26.915319 
L 42.40095 -26.786653 
L 42.417151 -26.657987 
L 42.458712 -26.529321 
L 42.526883 -26.400655 
L 42.622912 -26.271989 
L 42.747964 -26.143323 
L 42.903012 -26.014657 
L 43.088693 -25.885991 
L 43.305152 -25.757325 
L 43.551882 -25.628659 
L 43.827576 -25.499993 
L 44.130003 -25.371327 
L 44.45594 -25.242661 
L 44.801143 -25.113995 
L 45.160401 -24.985329 
L 45.527644 -24.856663 
L 45.896131 -24.727996 
L 46.258695 -24.59933 
L 46.608038 -24.470664 
L 46.937062 -24.341998 
L 47.239212 -24.213332 
L 47.508811 -24.084666 
L 47.74137 -23.956 
L 47.933849 -23.827334 
L 48.084849 -23.698668 
L 48.194736 -23.570002 
L 48.265677 -23.441336 
L 48.301585 -23.31267 
L 48.307985 -23.184004 
L 48.291794 -23.055338 
L 48.261024 -22.926672 
L 48.224428 -22.798006 
L 48.191095 -22.66934 
L 48.170001 -22.540674 
L 48.169554 -22.412008 
L 48.197127 -22.283342 
L 48.258623 -22.154676 
L 48.358079 -22.02601 
L 48.497337 -21.897343 
L 48.675814 -21.768677 
L 48.890372 -21.640011 
L 49.135327 -21.511345 
L 49.402595 -21.382679 
L 49.681981 -21.254013 
L 49.961601 -21.125347 
L 50.22843 -20.996681 
L 50.46894 -20.868015 
L 50.669793 -20.739349 
L 50.818557 -20.610683 
L 50.904383 -20.482017 
L 50.918612 -20.353351 
L 50.85526 -20.224685 
L 50.711353 -20.096019 
L 50.48708 -19.967353 
L 50.185768 -19.838687 
L 49.813669 -19.710021 
L 49.379578 -19.581355 
L 48.89433 -19.452689 
L 48.370188 -19.324023 
L 47.820187 -19.195357 
L 47.257481 -19.06669 
L 46.694722 -18.938024 
L 46.143523 -18.809358 
L 45.614031 -18.680692 
L 45.114625 -18.552026 
L 44.651744 -18.42336 
L 44.229843 -18.294694 
L 43.851469 -18.166028 
z
" style="stroke: #717171; stroke-width: 0.15"/>
    </defs>
    <g clip-path="url(#pc1cb49b7e8)">
     <use xlink:href="#m65cfd36d9c" x="0" y="84.96" style="fill: #f1b9e0; stroke: #717171; stroke-width: 0.15"/>
    </g>
   </g>
   <g id="line2d_7">
    <path d="M 19.542542 66.804477 
L 19.542542 62.580344 
" clip-path="url(#pc1cb49b7e8)" style="fill: none; stroke: #8c8c8c; stroke-width: 0.75; stroke-linecap: round"/>
   </g>
   <g id="line2d_8">
    <path d="M 19.542542 66.506255 
L 19.542542 63.868529 
" clip-path="url(#pc1cb49b7e8)" style="fill: none; stroke: #8c8c8c; stroke-width: 4; stroke-linecap: round"/>
   </g>
   <g id="line2d_9">
    <path d="M 19.542542 65.633797 
" clip-path="url(#pc1cb49b7e8)" style="fill: none; stroke: #717171; stroke-width: 1.2; stroke-linecap: round"/>
    <defs>
     <path id="m3d11c2e9e3" d="M 0 0.833333 
C 0.221003 0.833333 0.432983 0.745528 0.589256 0.589256 
C 0.745528 0.432983 0.833333 0.221003 0.833333 0 
C 0.833333 -0.221003 0.745528 -0.432983 0.589256 -0.589256 
C 0.432983 -0.745528 0.221003 -0.833333 0 -0.833333 
C -0.221003 -0.833333 -0.432983 -0.745528 -0.589256 -0.589256 
C -0.745528 -0.432983 -0.833333 -0.221003 -0.833333 0 
C -0.833333 0.221003 -0.745528 0.432983 -0.589256 0.589256 
C -0.432983 0.745528 -0.221003 0.833333 0 0.833333 
z
" style="stroke: #ffffff; stroke-width: 0.8"/>
    </defs>
    <g clip-path="url(#pc1cb49b7e8)">
     <use xlink:href="#m3d11c2e9e3" x="19.542542" y="65.633797" style="fill: #ffffff; stroke: #ffffff; stroke-width: 0.8"/>
    </g>
   </g>
   <g id="line2d_10">
    <path d="M 41.954021 65.134458 
L 41.954021 60.810353 
" clip-path="url(#pc1cb49b7e8)" style="fill: none; stroke: #8c8c8c; stroke-width: 0.75; stroke-linecap: round"/>
   </g>
   <g id="line2d_11">
    <path d="M 41.954021 64.752729 
L 41.954021 61.197563 
" clip-path="url(#pc1cb49b7e8)" style="fill: none; stroke: #8c8c8c; stroke-width: 4; stroke-linecap: round"/>
   </g>
   <g id="line2d_12">
    <path d="M 41.954021 63.145712 
" clip-path="url(#pc1cb49b7e8)" style="fill: none; stroke: #717171; stroke-width: 1.2; stroke-linecap: round"/>
    <g clip-path="url(#pc1cb49b7e8)">
     <use xlink:href="#m3d11c2e9e3" x="41.954021" y="63.145712" style="fill: #ffffff; stroke: #ffffff; stroke-width: 0.8"/>
    </g>
   </g>
   <g id="patch_3">
    <path d="M 8.336802 74.419526 
L 8.336802 4.076256 
" style="fill: none; stroke: #777777; stroke-width: 0.5; stroke-linejoin: miter; stroke-linecap: square"/>
   </g>
   <g id="patch_4">
    <path d="M 8.336802 76.919526 
L 53.15976 76.919526 
" style="fill: none; stroke: #777777; stroke-width: 0.5; stroke-linejoin: miter; stroke-linecap: square"/>
   </g>
  </g>
 </g>
 <defs>
  <clipPath id="pc1cb49b7e8">
   <rect x="8.336802" y="4.076256" width="44.822958" height="70.34327"/>
  </clipPath>
 </defs>
</svg>
