<?xml version="1.0" encoding="utf-8" standalone="no"?>
<!DOCTYPE svg PUBLIC "-//W3C//DTD SVG 1.1//EN"
  "http://www.w3.org/Graphics/SVG/1.1/DTD/svg11.dtd">
<svg xmlns:xlink="http://www.w3.org/1999/xlink" width="84.96pt" height="84.96pt" viewBox="0 0 84.96 84.96" xmlns="http://www.w3.org/2000/svg" version="1.1">
 <metadata>
  <rdf:RDF xmlns:dc="http://purl.org/dc/elements/1.1/" xmlns:cc="http://creativecommons.org/ns#" xmlns:rdf="http://www.w3.org/1999/02/22-rdf-syntax-ns#">
   <cc:Work>
    <dc:type rdf:resource="http://purl.org/dc/dcmitype/StillImage"/>
    <dc:date>2024-05-27T15:37:15.808422</dc:date>
    <dc:format>image/svg+xml</dc:format>
    <dc:creator>
     <cc:Agent>
      <dc:title>Matplotlib v3.8.3, https://matplotlib.org/</dc:title>
     </cc:Agent>
    </dc:creator>
   </cc:Work>
  </rdf:RDF>
 </metadata>
 <defs>
  <style type="text/css">*{stroke-linejoin: round; stroke-linecap: butt}</style>
 </defs>
 <g id="figure_1">
  <g id="patch_1">
   <path d="M 0 84.96 
L 84.96 84.96 
L 84.96 0 
L 0 0 
z
" style="fill: #ffffff"/>
  </g>
  <g id="axes_1">
   <g id="patch_2">
    <path d="M 10.005084 74.419526 
L 81.95976 74.419526 
L 81.95976 4.076256 
L 10.005084 4.076256 
z
" style="fill: #ffffff"/>
   </g>
   <g id="matplotlib.axis_1">
    <g id="xtick_1">
     <g id="text_1">
      <!-- ILC3 -->
      <g style="fill: #333333" transform="translate(18.301202 81.230229) scale(0.035 -0.035)">
       <defs>
        <path id="Helvetica-49" d="M 628 4591 
L 1256 4591 
L 1256 0 
L 628 0 
L 628 4591 
z
" transform="scale(0.015625)"/>
        <path id="Helvetica-4c" d="M 488 4591 
L 1109 4591 
L 1109 547 
L 3434 547 
L 3434 0 
L 488 0 
L 488 4591 
z
" transform="scale(0.015625)"/>
        <path id="Helvetica-43" d="M 2422 4716 
Q 3294 4716 3775 4256 
Q 4256 3797 4309 3213 
L 3703 3213 
Q 3600 3656 3292 3915 
Q 2984 4175 2428 4175 
Q 1750 4175 1333 3698 
Q 916 3222 916 2238 
Q 916 1431 1292 929 
Q 1669 428 2416 428 
Q 3103 428 3463 956 
Q 3653 1234 3747 1688 
L 4353 1688 
Q 4272 963 3816 472 
Q 3269 -119 2341 -119 
Q 1541 -119 997 366 
Q 281 1006 281 2344 
Q 281 3359 819 4009 
Q 1400 4716 2422 4716 
z
M 2297 4716 
L 2297 4716 
z
" transform="scale(0.015625)"/>
        <path id="Helvetica-33" d="M 1663 -122 
Q 869 -122 511 314 
Q 153 750 153 1375 
L 741 1375 
Q 778 941 903 744 
Q 1122 391 1694 391 
Q 2138 391 2406 628 
Q 2675 866 2675 1241 
Q 2675 1703 2392 1887 
Q 2109 2072 1606 2072 
Q 1550 2072 1492 2070 
Q 1434 2069 1375 2066 
L 1375 2563 
Q 1463 2553 1522 2550 
Q 1581 2547 1650 2547 
Q 1966 2547 2169 2647 
Q 2525 2822 2525 3272 
Q 2525 3606 2287 3787 
Q 2050 3969 1734 3969 
Q 1172 3969 956 3594 
Q 838 3388 822 3006 
L 266 3006 
Q 266 3506 466 3856 
Q 809 4481 1675 4481 
Q 2359 4481 2734 4176 
Q 3109 3872 3109 3294 
Q 3109 2881 2888 2625 
Q 2750 2466 2531 2375 
Q 2884 2278 3082 2001 
Q 3281 1725 3281 1325 
Q 3281 684 2859 281 
Q 2438 -122 1663 -122 
z
" transform="scale(0.015625)"/>
       </defs>
       <use xlink:href="#Helvetica-49"/>
       <use xlink:href="#Helvetica-4c" x="27.783203"/>
       <use xlink:href="#Helvetica-43" x="83.398438"/>
       <use xlink:href="#Helvetica-33" x="155.615234"/>
      </g>
     </g>
    </g>
    <g id="xtick_2">
     <g id="text_2">
      <!-- TH17 -->
      <g style="fill: #333333" transform="translate(41.703398 81.230229) scale(0.035 -0.035)">
       <defs>
        <path id="Helvetica-54" d="M 3828 4591 
L 3828 4044 
L 2281 4044 
L 2281 0 
L 1650 0 
L 1650 4044 
L 103 4044 
L 103 4591 
L 3828 4591 
z
" transform="scale(0.015625)"/>
        <path id="Helvetica-48" d="M 503 4591 
L 1131 4591 
L 1131 2694 
L 3519 2694 
L 3519 4591 
L 4147 4591 
L 4147 0 
L 3519 0 
L 3519 2147 
L 1131 2147 
L 1131 0 
L 503 0 
L 503 4591 
z
" transform="scale(0.015625)"/>
        <path id="Helvetica-31" d="M 613 3169 
L 613 3600 
Q 1222 3659 1462 3798 
Q 1703 3938 1822 4456 
L 2266 4456 
L 2266 0 
L 1666 0 
L 1666 3169 
L 613 3169 
z
" transform="scale(0.015625)"/>
        <path id="Helvetica-37" d="M 3347 4400 
L 3347 3909 
Q 3131 3700 2773 3181 
Q 2416 2663 2141 2063 
Q 1869 1478 1728 997 
Q 1638 688 1494 0 
L 872 0 
Q 1084 1281 1809 2550 
Q 2238 3294 2709 3834 
L 234 3834 
L 234 4400 
L 3347 4400 
z
" transform="scale(0.015625)"/>
       </defs>
       <use xlink:href="#Helvetica-54"/>
       <use xlink:href="#Helvetica-48" x="61.083984"/>
       <use xlink:href="#Helvetica-31" x="133.300781"/>
       <use xlink:href="#Helvetica-37" x="188.916016"/>
      </g>
     </g>
    </g>
    <g id="xtick_3">
     <g id="text_3">
      <!-- icCD3+ ILC3 -->
      <g style="fill: #333333" transform="translate(59.998056 81.230229) scale(0.035 -0.035)">
       <defs>
        <path id="Helvetica-69" d="M 413 3331 
L 984 3331 
L 984 0 
L 413 0 
L 413 3331 
z
M 413 4591 
L 984 4591 
L 984 3953 
L 413 3953 
L 413 4591 
z
" transform="scale(0.015625)"/>
        <path id="Helvetica-63" d="M 1703 3444 
Q 2269 3444 2623 3169 
Q 2978 2894 3050 2222 
L 2503 2222 
Q 2453 2531 2275 2736 
Q 2097 2941 1703 2941 
Q 1166 2941 934 2416 
Q 784 2075 784 1575 
Q 784 1072 996 728 
Q 1209 384 1666 384 
Q 2016 384 2220 598 
Q 2425 813 2503 1184 
L 3050 1184 
Q 2956 519 2581 211 
Q 2206 -97 1622 -97 
Q 966 -97 575 383 
Q 184 863 184 1581 
Q 184 2463 612 2953 
Q 1041 3444 1703 3444 
z
M 1616 3428 
L 1616 3428 
z
" transform="scale(0.015625)"/>
        <path id="Helvetica-44" d="M 2250 531 
Q 2566 531 2769 597 
Q 3131 719 3363 1066 
Q 3547 1344 3628 1778 
Q 3675 2038 3675 2259 
Q 3675 3113 3336 3584 
Q 2997 4056 2244 4056 
L 1141 4056 
L 1141 531 
L 2250 531 
z
M 516 4591 
L 2375 4591 
Q 3322 4591 3844 3919 
Q 4309 3313 4309 2366 
Q 4309 1634 4034 1044 
Q 3550 0 2369 0 
L 516 0 
L 516 4591 
z
" transform="scale(0.015625)"/>
        <path id="Helvetica-2b" d="M 288 1369 
L 288 1894 
L 1650 1894 
L 1650 3266 
L 2184 3266 
L 2184 1894 
L 3547 1894 
L 3547 1369 
L 2184 1369 
L 2184 0 
L 1650 0 
L 1650 1369 
L 288 1369 
z
" transform="scale(0.015625)"/>
        <path id="Helvetica-20" transform="scale(0.015625)"/>
       </defs>
       <use xlink:href="#Helvetica-69"/>
       <use xlink:href="#Helvetica-63" x="22.216797"/>
       <use xlink:href="#Helvetica-43" x="72.216797"/>
       <use xlink:href="#Helvetica-44" x="144.433594"/>
       <use xlink:href="#Helvetica-33" x="216.650391"/>
       <use xlink:href="#Helvetica-2b" x="272.265625"/>
       <use xlink:href="#Helvetica-20" x="330.664062"/>
       <use xlink:href="#Helvetica-49" x="358.447266"/>
       <use xlink:href="#Helvetica-4c" x="386.230469"/>
       <use xlink:href="#Helvetica-43" x="441.845703"/>
       <use xlink:href="#Helvetica-33" x="514.0625"/>
      </g>
     </g>
    </g>
   </g>
   <g id="matplotlib.axis_2">
    <g id="ytick_1">
     <g id="line2d_1">
      <defs>
       <path id="ma53c6b9aea" d="M 0 0 
L -1 0 
" style="stroke: #777777; stroke-width: 0.5"/>
      </defs>
      <g>
       <use xlink:href="#ma53c6b9aea" x="10.005084" y="65.703651" style="fill: #777777; stroke: #777777; stroke-width: 0.5"/>
      </g>
     </g>
     <g id="text_4">
      <!-- 0 -->
      <g style="fill: #333333" transform="translate(6.336803 66.779667) scale(0.03 -0.03)">
       <defs>
        <path id="Helvetica-30" d="M 1731 4475 
Q 2600 4475 2988 3759 
Q 3288 3206 3288 2244 
Q 3288 1331 3016 734 
Q 2622 -122 1728 -122 
Q 922 -122 528 578 
Q 200 1163 200 2147 
Q 200 2909 397 3456 
Q 766 4475 1731 4475 
z
M 1725 391 
Q 2163 391 2422 778 
Q 2681 1166 2681 2222 
Q 2681 2984 2493 3476 
Q 2306 3969 1766 3969 
Q 1269 3969 1039 3501 
Q 809 3034 809 2125 
Q 809 1441 956 1025 
Q 1181 391 1725 391 
z
" transform="scale(0.015625)"/>
       </defs>
       <use xlink:href="#Helvetica-30"/>
      </g>
     </g>
    </g>
    <g id="ytick_2">
     <g id="line2d_2">
      <g>
       <use xlink:href="#ma53c6b9aea" x="10.005084" y="56.899737" style="fill: #777777; stroke: #777777; stroke-width: 0.5"/>
      </g>
     </g>
     <g id="text_5">
      <!-- 100 -->
      <g style="fill: #333333" transform="translate(3.00024 57.975753) scale(0.03 -0.03)">
       <use xlink:href="#Helvetica-31"/>
       <use xlink:href="#Helvetica-30" x="55.615234"/>
       <use xlink:href="#Helvetica-30" x="111.230469"/>
      </g>
     </g>
    </g>
    <g id="ytick_3">
     <g id="line2d_3">
      <g>
       <use xlink:href="#ma53c6b9aea" x="10.005084" y="48.095824" style="fill: #777777; stroke: #777777; stroke-width: 0.5"/>
      </g>
     </g>
     <g id="text_6">
      <!-- 200 -->
      <g style="fill: #333333" transform="translate(3.00024 49.171839) scale(0.03 -0.03)">
       <defs>
        <path id="Helvetica-32" d="M 200 0 
Q 231 578 439 1006 
Q 647 1434 1250 1784 
L 1850 2131 
Q 2253 2366 2416 2531 
Q 2672 2791 2672 3125 
Q 2672 3516 2437 3745 
Q 2203 3975 1813 3975 
Q 1234 3975 1013 3538 
Q 894 3303 881 2888 
L 309 2888 
Q 319 3472 525 3841 
Q 891 4491 1816 4491 
Q 2584 4491 2939 4075 
Q 3294 3659 3294 3150 
Q 3294 2613 2916 2231 
Q 2697 2009 2131 1694 
L 1703 1456 
Q 1397 1288 1222 1134 
Q 909 863 828 531 
L 3272 531 
L 3272 0 
L 200 0 
z
" transform="scale(0.015625)"/>
       </defs>
       <use xlink:href="#Helvetica-32"/>
       <use xlink:href="#Helvetica-30" x="55.615234"/>
       <use xlink:href="#Helvetica-30" x="111.230469"/>
      </g>
     </g>
    </g>
    <g id="ytick_4">
     <g id="line2d_4">
      <g>
       <use xlink:href="#ma53c6b9aea" x="10.005084" y="39.29191" style="fill: #777777; stroke: #777777; stroke-width: 0.5"/>
      </g>
     </g>
     <g id="text_7">
      <!-- 300 -->
      <g style="fill: #333333" transform="translate(3.00024 40.367926) scale(0.03 -0.03)">
       <use xlink:href="#Helvetica-33"/>
       <use xlink:href="#Helvetica-30" x="55.615234"/>
       <use xlink:href="#Helvetica-30" x="111.230469"/>
      </g>
     </g>
    </g>
    <g id="ytick_5">
     <g id="line2d_5">
      <g>
       <use xlink:href="#ma53c6b9aea" x="10.005084" y="30.487997" style="fill: #777777; stroke: #777777; stroke-width: 0.5"/>
      </g>
     </g>
     <g id="text_8">
      <!-- 400 -->
      <g style="fill: #333333" transform="translate(3.00024 31.564012) scale(0.03 -0.03)">
       <defs>
        <path id="Helvetica-34" d="M 2116 1584 
L 2116 3613 
L 681 1584 
L 2116 1584 
z
M 2125 0 
L 2125 1094 
L 163 1094 
L 163 1644 
L 2213 4488 
L 2688 4488 
L 2688 1584 
L 3347 1584 
L 3347 1094 
L 2688 1094 
L 2688 0 
L 2125 0 
z
" transform="scale(0.015625)"/>
       </defs>
       <use xlink:href="#Helvetica-34"/>
       <use xlink:href="#Helvetica-30" x="55.615234"/>
       <use xlink:href="#Helvetica-30" x="111.230469"/>
      </g>
     </g>
    </g>
    <g id="ytick_6">
     <g id="line2d_6">
      <g>
       <use xlink:href="#ma53c6b9aea" x="10.005084" y="21.684083" style="fill: #777777; stroke: #777777; stroke-width: 0.5"/>
      </g>
     </g>
     <g id="text_9">
      <!-- 500 -->
      <g style="fill: #333333" transform="translate(3.00024 22.760099) scale(0.03 -0.03)">
       <defs>
        <path id="Helvetica-35" d="M 791 1141 
Q 847 659 1238 475 
Q 1438 381 1700 381 
Q 2200 381 2440 700 
Q 2681 1019 2681 1406 
Q 2681 1875 2395 2131 
Q 2109 2388 1709 2388 
Q 1419 2388 1211 2275 
Q 1003 2163 856 1963 
L 369 1991 
L 709 4400 
L 3034 4400 
L 3034 3856 
L 1131 3856 
L 941 2613 
Q 1097 2731 1238 2791 
Q 1488 2894 1816 2894 
Q 2431 2894 2859 2497 
Q 3288 2100 3288 1491 
Q 3288 856 2895 371 
Q 2503 -113 1644 -113 
Q 1097 -113 676 195 
Q 256 503 206 1141 
L 791 1141 
z
" transform="scale(0.015625)"/>
       </defs>
       <use xlink:href="#Helvetica-35"/>
       <use xlink:href="#Helvetica-30" x="55.615234"/>
       <use xlink:href="#Helvetica-30" x="111.230469"/>
      </g>
     </g>
    </g>
    <g id="ytick_7">
     <g id="line2d_7">
      <g>
       <use xlink:href="#ma53c6b9aea" x="10.005084" y="12.880169" style="fill: #777777; stroke: #777777; stroke-width: 0.5"/>
      </g>
     </g>
     <g id="text_10">
      <!-- 600 -->
      <g style="fill: #333333" transform="translate(3.00024 13.956185) scale(0.03 -0.03)">
       <defs>
        <path id="Helvetica-36" d="M 1872 4494 
Q 2622 4494 2917 4105 
Q 3213 3716 3213 3303 
L 2656 3303 
Q 2606 3569 2497 3719 
Q 2294 4000 1881 4000 
Q 1409 4000 1131 3564 
Q 853 3128 822 2316 
Q 1016 2600 1309 2741 
Q 1578 2866 1909 2866 
Q 2472 2866 2890 2506 
Q 3309 2147 3309 1434 
Q 3309 825 2912 354 
Q 2516 -116 1781 -116 
Q 1153 -116 697 361 
Q 241 838 241 1966 
Q 241 2800 444 3381 
Q 834 4494 1872 4494 
z
M 1831 384 
Q 2275 384 2495 682 
Q 2716 981 2716 1388 
Q 2716 1731 2519 2042 
Q 2322 2353 1803 2353 
Q 1441 2353 1167 2112 
Q 894 1872 894 1388 
Q 894 963 1142 673 
Q 1391 384 1831 384 
z
" transform="scale(0.015625)"/>
       </defs>
       <use xlink:href="#Helvetica-36"/>
       <use xlink:href="#Helvetica-30" x="55.615234"/>
       <use xlink:href="#Helvetica-30" x="111.230469"/>
      </g>
     </g>
    </g>
    <g id="ytick_8">
     <g id="line2d_8">
      <g>
       <use xlink:href="#ma53c6b9aea" x="10.005084" y="4.076256" style="fill: #777777; stroke: #777777; stroke-width: 0.5"/>
      </g>
     </g>
     <g id="text_11">
      <!-- 700 -->
      <g style="fill: #333333" transform="translate(3.00024 5.152271) scale(0.03 -0.03)">
       <use xlink:href="#Helvetica-37"/>
       <use xlink:href="#Helvetica-30" x="55.615234"/>
       <use xlink:href="#Helvetica-30" x="111.230469"/>
      </g>
     </g>
    </g>
   </g>
   <g id="PolyCollection_1">
    <defs>
     <path id="m8eebfd68f9" d="M 24.163106 -18.04879 
L 19.831954 -18.04879 
L 19.420253 -18.261094 
L 18.965886 -18.473397 
L 18.47245 -18.685701 
L 17.9454 -18.898005 
L 17.392022 -19.110309 
L 16.821282 -19.322613 
L 16.243558 -19.534917 
L 15.670254 -19.74722 
L 15.113321 -19.959524 
L 14.584713 -20.171828 
L 14.095817 -20.384132 
L 13.656892 -20.596436 
L 13.276571 -20.80874 
L 12.961463 -21.021043 
L 12.715878 -21.233347 
L 12.541714 -21.445651 
L 12.438495 -21.657955 
L 12.403573 -21.870259 
L 12.432451 -22.082563 
L 12.519221 -22.294866 
L 12.65705 -22.50717 
L 12.838699 -22.719474 
L 13.056996 -22.931778 
L 13.305259 -23.144082 
L 13.577615 -23.356386 
L 13.8692 -23.568689 
L 14.176242 -23.780993 
L 14.496018 -23.993297 
L 14.826717 -24.205601 
L 15.167215 -24.417905 
L 15.516816 -24.630209 
L 15.874967 -24.842512 
L 16.241001 -25.054816 
L 16.613916 -25.26712 
L 16.992221 -25.479424 
L 17.373859 -25.691728 
L 17.756205 -25.904032 
L 18.136141 -26.116335 
L 18.510182 -26.328639 
L 18.874656 -26.540943 
L 19.225895 -26.753247 
L 19.560437 -26.965551 
L 19.875207 -27.177855 
L 20.167661 -27.390158 
L 20.435898 -27.602462 
L 20.678716 -27.814766 
L 20.895621 -28.02707 
L 21.086793 -28.239374 
L 21.253016 -28.451678 
L 21.395579 -28.663981 
L 21.516158 -28.876285 
L 21.616693 -29.088589 
L 21.69927 -29.300893 
L 21.766003 -29.513197 
L 21.818942 -29.725501 
L 21.859983 -29.937804 
L 21.890813 -30.150108 
L 21.91286 -30.362412 
L 21.927263 -30.574716 
L 21.934859 -30.78702 
L 21.936179 -30.999324 
L 21.931457 -31.211627 
L 21.920648 -31.423931 
L 21.903459 -31.636235 
L 21.879384 -31.848539 
L 21.847756 -32.060843 
L 21.807804 -32.273147 
L 21.758726 -32.48545 
L 21.699769 -32.697754 
L 21.630319 -32.910058 
L 21.549996 -33.122362 
L 21.458746 -33.334666 
L 21.356933 -33.54697 
L 21.245409 -33.759273 
L 21.125568 -33.971577 
L 20.999366 -34.183881 
L 20.86931 -34.396185 
L 20.738403 -34.608489 
L 20.610048 -34.820793 
L 20.487913 -35.033096 
L 20.375769 -35.2454 
L 20.277296 -35.457704 
L 20.195887 -35.670008 
L 20.134455 -35.882312 
L 20.095259 -36.094616 
L 20.079768 -36.306919 
L 20.088568 -36.519223 
L 20.121325 -36.731527 
L 20.176808 -36.943831 
L 20.252964 -37.156135 
L 20.347046 -37.368439 
L 20.455774 -37.580742 
L 20.575528 -37.793046 
L 20.702543 -38.00535 
L 20.833107 -38.217654 
L 20.963731 -38.429958 
L 21.091292 -38.642262 
L 21.213146 -38.854565 
L 21.32719 -39.066869 
L 22.66787 -39.066869 
L 22.66787 -39.066869 
L 22.781913 -38.854565 
L 22.903768 -38.642262 
L 23.031329 -38.429958 
L 23.161952 -38.217654 
L 23.292516 -38.00535 
L 23.419532 -37.793046 
L 23.539286 -37.580742 
L 23.648014 -37.368439 
L 23.742095 -37.156135 
L 23.818252 -36.943831 
L 23.873735 -36.731527 
L 23.906492 -36.519223 
L 23.915291 -36.306919 
L 23.8998 -36.094616 
L 23.860605 -35.882312 
L 23.799173 -35.670008 
L 23.717764 -35.457704 
L 23.619291 -35.2454 
L 23.507146 -35.033096 
L 23.385012 -34.820793 
L 23.256656 -34.608489 
L 23.125749 -34.396185 
L 22.995694 -34.183881 
L 22.869492 -33.971577 
L 22.74965 -33.759273 
L 22.638127 -33.54697 
L 22.536314 -33.334666 
L 22.445064 -33.122362 
L 22.364741 -32.910058 
L 22.295291 -32.697754 
L 22.236333 -32.48545 
L 22.187255 -32.273147 
L 22.147303 -32.060843 
L 22.115675 -31.848539 
L 22.091601 -31.636235 
L 22.074412 -31.423931 
L 22.063603 -31.211627 
L 22.05888 -30.999324 
L 22.0602 -30.78702 
L 22.067796 -30.574716 
L 22.0822 -30.362412 
L 22.104247 -30.150108 
L 22.135077 -29.937804 
L 22.176118 -29.725501 
L 22.229056 -29.513197 
L 22.29579 -29.300893 
L 22.378366 -29.088589 
L 22.478902 -28.876285 
L 22.599481 -28.663981 
L 22.742044 -28.451678 
L 22.908267 -28.239374 
L 23.099439 -28.02707 
L 23.316344 -27.814766 
L 23.559161 -27.602462 
L 23.827399 -27.390158 
L 24.119853 -27.177855 
L 24.434622 -26.965551 
L 24.769165 -26.753247 
L 25.120404 -26.540943 
L 25.484877 -26.328639 
L 25.858919 -26.116335 
L 26.238854 -25.904032 
L 26.621201 -25.691728 
L 27.002839 -25.479424 
L 27.381144 -25.26712 
L 27.754058 -25.054816 
L 28.120092 -24.842512 
L 28.478244 -24.630209 
L 28.827845 -24.417905 
L 29.168343 -24.205601 
L 29.499041 -23.993297 
L 29.818818 -23.780993 
L 30.12586 -23.568689 
L 30.417445 -23.356386 
L 30.6898 -23.144082 
L 30.938064 -22.931778 
L 31.156361 -22.719474 
L 31.338009 -22.50717 
L 31.475839 -22.294866 
L 31.562608 -22.082563 
L 31.591487 -21.870259 
L 31.556564 -21.657955 
L 31.453346 -21.445651 
L 31.279182 -21.233347 
L 31.033597 -21.021043 
L 30.718488 -20.80874 
L 30.338168 -20.596436 
L 29.899242 -20.384132 
L 29.410346 -20.171828 
L 28.881739 -19.959524 
L 28.324805 -19.74722 
L 27.751501 -19.534917 
L 27.173777 -19.322613 
L 26.603038 -19.110309 
L 26.04966 -18.898005 
L 25.52261 -18.685701 
L 25.029173 -18.473397 
L 24.574806 -18.261094 
L 24.163106 -18.04879 
z
" style="stroke: #7c7c7c; stroke-width: 0.15"/>
    </defs>
    <g clip-path="url(#p0facda0a31)">
     <use xlink:href="#m8eebfd68f9" x="0" y="84.96" style="fill: #cfcfcf; stroke: #7c7c7c; stroke-width: 0.15"/>
    </g>
   </g>
   <g id="PolyCollection_2">
    <defs>
     <path id="m85f572e564" d="M 47.093811 -18.434475 
L 44.871033 -18.434475 
L 44.640895 -18.531026 
L 44.383647 -18.627577 
L 44.100939 -18.724129 
L 43.795571 -18.82068 
L 43.471469 -18.917231 
L 43.133577 -19.013783 
L 42.787654 -19.110334 
L 42.439983 -19.206885 
L 42.097002 -19.303437 
L 41.764895 -19.399988 
L 41.44916 -19.496539 
L 41.154201 -19.593091 
L 40.882982 -19.689642 
L 40.636771 -19.786193 
L 40.415024 -19.882745 
L 40.21541 -19.979296 
L 40.033983 -20.075847 
L 39.865514 -20.172399 
L 39.703931 -20.26895 
L 39.542852 -20.365501 
L 39.376155 -20.462052 
L 39.198533 -20.558604 
L 39.005993 -20.655155 
L 38.796244 -20.751706 
L 38.568948 -20.848258 
L 38.325812 -20.944809 
L 38.070516 -21.04136 
L 37.808499 -21.137912 
L 37.546613 -21.234463 
L 37.292704 -21.331014 
L 37.055147 -21.427566 
L 36.842379 -21.524117 
L 36.662479 -21.620668 
L 36.52281 -21.71722 
L 36.429741 -21.813771 
L 36.388465 -21.910322 
L 36.402889 -22.006874 
L 36.475593 -22.103425 
L 36.607829 -22.199976 
L 36.799551 -22.296528 
L 37.049452 -22.393079 
L 37.355001 -22.48963 
L 37.712482 -22.586181 
L 38.117041 -22.682733 
L 38.562748 -22.779284 
L 39.042699 -22.875835 
L 39.549157 -22.972387 
L 40.073747 -23.068938 
L 40.607704 -23.165489 
L 41.142162 -23.262041 
L 41.668472 -23.358592 
L 42.178522 -23.455143 
L 42.665033 -23.551695 
L 43.121816 -23.648246 
L 43.543955 -23.744797 
L 43.927907 -23.841349 
L 44.271524 -23.9379 
L 44.573981 -24.034451 
L 44.835628 -24.131003 
L 45.057795 -24.227554 
L 45.242543 -24.324105 
L 45.392411 -24.420657 
L 45.510159 -24.517208 
L 45.598543 -24.613759 
L 45.660119 -24.71031 
L 45.697104 -24.806862 
L 45.711291 -24.903413 
L 45.70402 -24.999964 
L 45.676213 -25.096516 
L 45.628459 -25.193067 
L 45.561146 -25.289618 
L 45.474628 -25.38617 
L 45.369412 -25.482721 
L 45.246357 -25.579272 
L 45.106851 -25.675824 
L 44.952968 -25.772375 
L 44.787568 -25.868926 
L 44.614339 -25.965478 
L 44.437759 -26.062029 
L 44.262977 -26.15858 
L 44.09562 -26.255132 
L 43.941526 -26.351683 
L 43.806433 -26.448234 
L 43.695634 -26.544786 
L 43.613646 -26.641337 
L 43.563908 -26.737888 
L 43.548546 -26.834439 
L 43.568225 -26.930991 
L 43.622101 -27.027542 
L 43.707884 -27.124093 
L 43.821997 -27.220645 
L 43.959828 -27.317196 
L 44.116035 -27.413747 
L 44.284888 -27.510299 
L 44.460618 -27.60685 
L 44.63773 -27.703401 
L 44.811278 -27.799953 
L 44.977063 -27.896504 
L 45.131762 -27.993055 
L 46.833082 -27.993055 
L 46.833082 -27.993055 
L 46.987781 -27.896504 
L 47.153566 -27.799953 
L 47.327114 -27.703401 
L 47.504226 -27.60685 
L 47.679956 -27.510299 
L 47.848809 -27.413747 
L 48.005015 -27.317196 
L 48.142846 -27.220645 
L 48.25696 -27.124093 
L 48.342743 -27.027542 
L 48.396619 -26.930991 
L 48.416298 -26.834439 
L 48.400936 -26.737888 
L 48.351198 -26.641337 
L 48.269209 -26.544786 
L 48.15841 -26.448234 
L 48.023317 -26.351683 
L 47.869224 -26.255132 
L 47.701867 -26.15858 
L 47.527085 -26.062029 
L 47.350504 -25.965478 
L 47.177276 -25.868926 
L 47.011876 -25.772375 
L 46.857993 -25.675824 
L 46.718487 -25.579272 
L 46.595432 -25.482721 
L 46.490216 -25.38617 
L 46.403697 -25.289618 
L 46.336385 -25.193067 
L 46.288631 -25.096516 
L 46.260824 -24.999964 
L 46.253553 -24.903413 
L 46.267739 -24.806862 
L 46.304725 -24.71031 
L 46.366301 -24.613759 
L 46.454685 -24.517208 
L 46.572433 -24.420657 
L 46.7223 -24.324105 
L 46.907048 -24.227554 
L 47.129215 -24.131003 
L 47.390863 -24.034451 
L 47.69332 -23.9379 
L 48.036937 -23.841349 
L 48.420889 -23.744797 
L 48.843027 -23.648246 
L 49.299811 -23.551695 
L 49.786322 -23.455143 
L 50.296372 -23.358592 
L 50.822682 -23.262041 
L 51.35714 -23.165489 
L 51.891097 -23.068938 
L 52.415687 -22.972387 
L 52.922145 -22.875835 
L 53.402096 -22.779284 
L 53.847803 -22.682733 
L 54.252361 -22.586181 
L 54.609842 -22.48963 
L 54.915391 -22.393079 
L 55.165293 -22.296528 
L 55.357015 -22.199976 
L 55.489251 -22.103425 
L 55.561954 -22.006874 
L 55.576379 -21.910322 
L 55.535103 -21.813771 
L 55.442034 -21.71722 
L 55.302365 -21.620668 
L 55.122465 -21.524117 
L 54.909697 -21.427566 
L 54.672139 -21.331014 
L 54.418231 -21.234463 
L 54.156345 -21.137912 
L 53.894327 -21.04136 
L 53.639032 -20.944809 
L 53.395896 -20.848258 
L 53.1686 -20.751706 
L 52.958851 -20.655155 
L 52.766311 -20.558604 
L 52.588689 -20.462052 
L 52.421992 -20.365501 
L 52.260913 -20.26895 
L 52.09933 -20.172399 
L 51.930861 -20.075847 
L 51.749434 -19.979296 
L 51.549819 -19.882745 
L 51.328073 -19.786193 
L 51.081862 -19.689642 
L 50.810642 -19.593091 
L 50.515684 -19.496539 
L 50.199949 -19.399988 
L 49.867842 -19.303437 
L 49.524861 -19.206885 
L 49.177189 -19.110334 
L 48.831267 -19.013783 
L 48.493375 -18.917231 
L 48.169273 -18.82068 
L 47.863904 -18.724129 
L 47.581197 -18.627577 
L 47.323949 -18.531026 
L 47.093811 -18.434475 
z
" style="stroke: #7c7c7c; stroke-width: 0.15"/>
    </defs>
    <g clip-path="url(#p0facda0a31)">
     <use xlink:href="#m85f572e564" x="0" y="84.96" style="fill: #f3f3ae; stroke: #7c7c7c; stroke-width: 0.15"/>
    </g>
   </g>
   <g id="PolyCollection_3">
    <defs>
     <path id="m16216381b4" d="M 72.454758 -19.107435 
L 67.47987 -19.107435 
L 67.050824 -19.120158 
L 66.582874 -19.132882 
L 66.079993 -19.145605 
L 65.54783 -19.158328 
L 64.993683 -19.171052 
L 64.426383 -19.183775 
L 63.856079 -19.196498 
L 63.293926 -19.209221 
L 62.751698 -19.221945 
L 62.241325 -19.234668 
L 61.774403 -19.247391 
L 61.361688 -19.260114 
L 61.01261 -19.272838 
L 60.734845 -19.285561 
L 60.533969 -19.298284 
L 60.413217 -19.311008 
L 60.373357 -19.323731 
L 60.412702 -19.336454 
L 60.527234 -19.349177 
L 60.710851 -19.361901 
L 60.955697 -19.374624 
L 61.252572 -19.387347 
L 61.591373 -19.400071 
L 61.961554 -19.412794 
L 62.352566 -19.425517 
L 62.754269 -19.43824 
L 63.157274 -19.450964 
L 63.553234 -19.463687 
L 63.935043 -19.47641 
L 64.29697 -19.489133 
L 64.634715 -19.501857 
L 64.945392 -19.51458 
L 65.227459 -19.527303 
L 65.480594 -19.540027 
L 65.705527 -19.55275 
L 65.903854 -19.565473 
L 66.07782 -19.578196 
L 66.230102 -19.59092 
L 66.363591 -19.603643 
L 66.481192 -19.616366 
L 66.585641 -19.62909 
L 66.679358 -19.641813 
L 66.764337 -19.654536 
L 66.842084 -19.667259 
L 66.913596 -19.679983 
L 66.979391 -19.692706 
L 67.039582 -19.705429 
L 67.09398 -19.718152 
L 67.142223 -19.730876 
L 67.18392 -19.743599 
L 67.218792 -19.756322 
L 67.24679 -19.769046 
L 67.268191 -19.781769 
L 67.283658 -19.794492 
L 67.294244 -19.807215 
L 67.30136 -19.819939 
L 67.306694 -19.832662 
L 67.312093 -19.845385 
L 67.319422 -19.858109 
L 67.330403 -19.870832 
L 67.346467 -19.883555 
L 67.368613 -19.896278 
L 67.397305 -19.909002 
L 67.432406 -19.921725 
L 67.473168 -19.934448 
L 67.518267 -19.947171 
L 67.56589 -19.959895 
L 67.613872 -19.972618 
L 67.659861 -19.985341 
L 67.701506 -19.998065 
L 67.736651 -20.010788 
L 67.763519 -20.023511 
L 67.780875 -20.036234 
L 67.788147 -20.048958 
L 67.785499 -20.061681 
L 67.773863 -20.074404 
L 67.754893 -20.087128 
L 67.730892 -20.099851 
L 67.704671 -20.112574 
L 67.679387 -20.125297 
L 67.658344 -20.138021 
L 67.644794 -20.150744 
L 67.641741 -20.163467 
L 67.651757 -20.17619 
L 67.676836 -20.188914 
L 67.718288 -20.201637 
L 67.77667 -20.21436 
L 67.851781 -20.227084 
L 67.942686 -20.239807 
L 68.047799 -20.25253 
L 68.164989 -20.265253 
L 68.291716 -20.277977 
L 68.425181 -20.2907 
L 68.562476 -20.303423 
L 68.700733 -20.316147 
L 68.837252 -20.32887 
L 68.969606 -20.341593 
L 69.095726 -20.354316 
L 69.213946 -20.36704 
L 70.720682 -20.36704 
L 70.720682 -20.36704 
L 70.838902 -20.354316 
L 70.965022 -20.341593 
L 71.097376 -20.32887 
L 71.233895 -20.316147 
L 71.372152 -20.303423 
L 71.509447 -20.2907 
L 71.642912 -20.277977 
L 71.769639 -20.265253 
L 71.886829 -20.25253 
L 71.991942 -20.239807 
L 72.082847 -20.227084 
L 72.157958 -20.21436 
L 72.21634 -20.201637 
L 72.257792 -20.188914 
L 72.282871 -20.17619 
L 72.292887 -20.163467 
L 72.289834 -20.150744 
L 72.276284 -20.138021 
L 72.255241 -20.125297 
L 72.229956 -20.112574 
L 72.203736 -20.099851 
L 72.179735 -20.087128 
L 72.160765 -20.074404 
L 72.149128 -20.061681 
L 72.146481 -20.048958 
L 72.153753 -20.036234 
L 72.171109 -20.023511 
L 72.197977 -20.010788 
L 72.233122 -19.998065 
L 72.274767 -19.985341 
L 72.320756 -19.972618 
L 72.368738 -19.959895 
L 72.416361 -19.947171 
L 72.461459 -19.934448 
L 72.502222 -19.921725 
L 72.537323 -19.909002 
L 72.566015 -19.896278 
L 72.588161 -19.883555 
L 72.604225 -19.870832 
L 72.615206 -19.858109 
L 72.622535 -19.845385 
L 72.627934 -19.832662 
L 72.633268 -19.819939 
L 72.640384 -19.807215 
L 72.65097 -19.794492 
L 72.666436 -19.781769 
L 72.687838 -19.769046 
L 72.715836 -19.756322 
L 72.750707 -19.743599 
L 72.792405 -19.730876 
L 72.840648 -19.718152 
L 72.895045 -19.705429 
L 72.955237 -19.692706 
L 73.021032 -19.679983 
L 73.092544 -19.667259 
L 73.170291 -19.654536 
L 73.25527 -19.641813 
L 73.348987 -19.62909 
L 73.453436 -19.616366 
L 73.571037 -19.603643 
L 73.704526 -19.59092 
L 73.856808 -19.578196 
L 74.030774 -19.565473 
L 74.229101 -19.55275 
L 74.454034 -19.540027 
L 74.707168 -19.527303 
L 74.989236 -19.51458 
L 75.299913 -19.501857 
L 75.637658 -19.489133 
L 75.999585 -19.47641 
L 76.381394 -19.463687 
L 76.777354 -19.450964 
L 77.180359 -19.43824 
L 77.582061 -19.425517 
L 77.973074 -19.412794 
L 78.343255 -19.400071 
L 78.682056 -19.387347 
L 78.978931 -19.374624 
L 79.223777 -19.361901 
L 79.407394 -19.349177 
L 79.521926 -19.336454 
L 79.561271 -19.323731 
L 79.521411 -19.311008 
L 79.400659 -19.298284 
L 79.199783 -19.285561 
L 78.922018 -19.272838 
L 78.57294 -19.260114 
L 78.160225 -19.247391 
L 77.693303 -19.234668 
L 77.18293 -19.221945 
L 76.640702 -19.209221 
L 76.078549 -19.196498 
L 75.508245 -19.183775 
L 74.940945 -19.171052 
L 74.386798 -19.158328 
L 73.854635 -19.145605 
L 73.351754 -19.132882 
L 72.883804 -19.120158 
L 72.454758 -19.107435 
z
" style="stroke: #7c7c7c; stroke-width: 0.15"/>
    </defs>
    <g clip-path="url(#p0facda0a31)">
     <use xlink:href="#m16216381b4" x="0" y="84.96" style="fill: #c0ebe9; stroke: #7c7c7c; stroke-width: 0.15"/>
    </g>
   </g>
   <g id="line2d_9">
    <path d="M 21.99753 64.180589 
L 21.99753 59.601677 
" clip-path="url(#p0facda0a31)" style="fill: none; stroke: #8c8c8c; stroke-width: 0.75; stroke-linecap: round"/>
   </g>
   <g id="line2d_10">
    <path d="M 21.99753 63.948879 
L 21.99753 60.250257 
" clip-path="url(#p0facda0a31)" style="fill: none; stroke: #8c8c8c; stroke-width: 4; stroke-linecap: round"/>
   </g>
   <g id="line2d_11">
    <path d="M 21.99753 62.516476 
" clip-path="url(#p0facda0a31)" style="fill: none; stroke: #7c7c7c; stroke-width: 1.2; stroke-linecap: round"/>
    <defs>
     <path id="md780291edc" d="M 0 0.833333 
C 0.221003 0.833333 0.432983 0.745528 0.589256 0.589256 
C 0.745528 0.432983 0.833333 0.221003 0.833333 0 
C 0.833333 -0.221003 0.745528 -0.432983 0.589256 -0.589256 
C 0.432983 -0.745528 0.221003 -0.833333 0 -0.833333 
C -0.221003 -0.833333 -0.432983 -0.745528 -0.589256 -0.589256 
C -0.745528 -0.432983 -0.833333 -0.221003 -0.833333 0 
C -0.833333 0.221003 -0.745528 0.432983 -0.589256 0.589256 
C -0.432983 0.745528 -0.221003 0.833333 0 0.833333 
z
" style="stroke: #ffffff; stroke-width: 0.8"/>
    </defs>
    <g clip-path="url(#p0facda0a31)">
     <use xlink:href="#md780291edc" x="21.99753" y="62.516476" style="fill: #ffffff; stroke: #ffffff; stroke-width: 0.8"/>
    </g>
   </g>
   <g id="line2d_12">
    <path d="M 45.982422 65.360965 
L 45.982422 62.106337 
" clip-path="url(#p0facda0a31)" style="fill: none; stroke: #8c8c8c; stroke-width: 0.75; stroke-linecap: round"/>
   </g>
   <g id="line2d_13">
    <path d="M 45.982422 64.042313 
L 45.982422 62.312917 
" clip-path="url(#p0facda0a31)" style="fill: none; stroke: #8c8c8c; stroke-width: 4; stroke-linecap: round"/>
   </g>
   <g id="line2d_14">
    <path d="M 45.982422 63.167591 
" clip-path="url(#p0facda0a31)" style="fill: none; stroke: #7c7c7c; stroke-width: 1.2; stroke-linecap: round"/>
    <g clip-path="url(#p0facda0a31)">
     <use xlink:href="#md780291edc" x="45.982422" y="63.167591" style="fill: #ffffff; stroke: #ffffff; stroke-width: 0.8"/>
    </g>
   </g>
   <g id="line2d_15">
    <path d="M 69.967314 65.674894 
L 69.967314 64.770631 
" clip-path="url(#p0facda0a31)" style="fill: none; stroke: #8c8c8c; stroke-width: 0.75; stroke-linecap: round"/>
   </g>
   <g id="line2d_16">
    <path d="M 69.967314 65.651191 
L 69.967314 65.241162 
" clip-path="url(#p0facda0a31)" style="fill: none; stroke: #8c8c8c; stroke-width: 4; stroke-linecap: round"/>
   </g>
   <g id="line2d_17">
    <path d="M 69.967314 65.56828 
" clip-path="url(#p0facda0a31)" style="fill: none; stroke: #7c7c7c; stroke-width: 1.2; stroke-linecap: round"/>
    <g clip-path="url(#p0facda0a31)">
     <use xlink:href="#md780291edc" x="69.967314" y="65.56828" style="fill: #ffffff; stroke: #ffffff; stroke-width: 0.8"/>
    </g>
   </g>
   <g id="patch_3">
    <path d="M 10.005084 74.419526 
L 10.005084 4.076256 
" style="fill: none; stroke: #777777; stroke-width: 0.5; stroke-linejoin: miter; stroke-linecap: square"/>
   </g>
   <g id="patch_4">
    <path d="M 10.005084 76.919526 
L 81.95976 76.919526 
" style="fill: none; stroke: #777777; stroke-width: 0.5; stroke-linejoin: miter; stroke-linecap: square"/>
   </g>
  </g>
 </g>
 <defs>
  <clipPath id="p0facda0a31">
   <rect x="10.005084" y="4.076256" width="71.954676" height="70.34327"/>
  </clipPath>
 </defs>
</svg>
