<?xml version="1.0" encoding="utf-8" standalone="no"?>
<!DOCTYPE svg PUBLIC "-//W3C//DTD SVG 1.1//EN"
  "http://www.w3.org/Graphics/SVG/1.1/DTD/svg11.dtd">
<svg xmlns:xlink="http://www.w3.org/1999/xlink" width="254.88pt" height="105.84pt" viewBox="0 0 254.88 105.84" xmlns="http://www.w3.org/2000/svg" version="1.1">
 <metadata>
  <rdf:RDF xmlns:dc="http://purl.org/dc/elements/1.1/" xmlns:cc="http://creativecommons.org/ns#" xmlns:rdf="http://www.w3.org/1999/02/22-rdf-syntax-ns#">
   <cc:Work>
    <dc:type rdf:resource="http://purl.org/dc/dcmitype/StillImage"/>
    <dc:date>2024-05-27T15:37:23.336892</dc:date>
    <dc:format>image/svg+xml</dc:format>
    <dc:creator>
     <cc:Agent>
      <dc:title>Matplotlib v3.8.3, https://matplotlib.org/</dc:title>
     </cc:Agent>
    </dc:creator>
   </cc:Work>
  </rdf:RDF>
 </metadata>
 <defs>
  <style type="text/css">*{stroke-linejoin: round; stroke-linecap: butt}</style>
 </defs>
 <g id="figure_1">
  <g id="patch_1">
   <path d="M 0 105.84 
L 254.88 105.84 
L 254.88 0 
L 0 0 
z
" style="fill: #ffffff"/>
  </g>
  <g id="axes_1">
   <g id="patch_2">
    <path d="M 8.336803 74.229526 
L 251.87976 74.229526 
L 251.87976 4.076256 
L 8.336803 4.076256 
z
" style="fill: #ffffff"/>
   </g>
   <g id="matplotlib.axis_1">
    <g id="xtick_1">
     <g id="text_1">
      <!-- TH1 (TdT–) -->
      <g style="fill: #333333" transform="translate(22.770404 96.612494) rotate(-90) scale(0.035 -0.035)">
       <defs>
        <path id="Helvetica-54" d="M 3828 4591 
L 3828 4044 
L 2281 4044 
L 2281 0 
L 1650 0 
L 1650 4044 
L 103 4044 
L 103 4591 
L 3828 4591 
z
" transform="scale(0.015625)"/>
        <path id="Helvetica-48" d="M 503 4591 
L 1131 4591 
L 1131 2694 
L 3519 2694 
L 3519 4591 
L 4147 4591 
L 4147 0 
L 3519 0 
L 3519 2147 
L 1131 2147 
L 1131 0 
L 503 0 
L 503 4591 
z
" transform="scale(0.015625)"/>
        <path id="Helvetica-31" d="M 613 3169 
L 613 3600 
Q 1222 3659 1462 3798 
Q 1703 3938 1822 4456 
L 2266 4456 
L 2266 0 
L 1666 0 
L 1666 3169 
L 613 3169 
z
" transform="scale(0.015625)"/>
        <path id="Helvetica-20" transform="scale(0.015625)"/>
        <path id="Helvetica-28" d="M 1894 4666 
Q 1403 3713 1256 3263 
Q 1034 2578 1034 1681 
Q 1034 775 1288 25 
Q 1444 -438 1903 -1306 
L 1525 -1306 
Q 1069 -594 959 -397 
Q 850 -200 722 138 
Q 547 600 478 1125 
Q 444 1397 444 1644 
Q 444 2569 734 3291 
Q 919 3750 1503 4666 
L 1894 4666 
z
" transform="scale(0.015625)"/>
        <path id="Helvetica-64" d="M 769 1634 
Q 769 1097 997 734 
Q 1225 372 1728 372 
Q 2119 372 2370 708 
Q 2622 1044 2622 1672 
Q 2622 2306 2362 2611 
Q 2103 2916 1722 2916 
Q 1297 2916 1033 2591 
Q 769 2266 769 1634 
z
M 1616 3406 
Q 2000 3406 2259 3244 
Q 2409 3150 2600 2916 
L 2600 4606 
L 3141 4606 
L 3141 0 
L 2634 0 
L 2634 466 
Q 2438 156 2169 18 
Q 1900 -119 1553 -119 
Q 994 -119 584 351 
Q 175 822 175 1603 
Q 175 2334 548 2870 
Q 922 3406 1616 3406 
z
" transform="scale(0.015625)"/>
        <path id="Helvetica-2013" d="M -16 2000 
L 3569 2000 
L 3569 1541 
L -16 1541 
L -16 2000 
z
" transform="scale(0.015625)"/>
        <path id="Helvetica-29" d="M 222 -1306 
Q 719 -338 863 106 
Q 1081 778 1081 1681 
Q 1081 2584 828 3334 
Q 672 3797 213 4666 
L 591 4666 
Q 1072 3897 1173 3717 
Q 1275 3538 1394 3222 
Q 1544 2831 1608 2450 
Q 1672 2069 1672 1716 
Q 1672 791 1378 66 
Q 1194 -400 613 -1306 
L 222 -1306 
z
" transform="scale(0.015625)"/>
       </defs>
       <use xlink:href="#Helvetica-54"/>
       <use xlink:href="#Helvetica-48" x="61.083984"/>
       <use xlink:href="#Helvetica-31" x="133.300781"/>
       <use xlink:href="#Helvetica-20" x="188.916016"/>
       <use xlink:href="#Helvetica-28" x="216.699219"/>
       <use xlink:href="#Helvetica-54" x="250"/>
       <use xlink:href="#Helvetica-64" x="311.083984"/>
       <use xlink:href="#Helvetica-54" x="366.699219"/>
       <use xlink:href="#Helvetica-2013" x="427.783203"/>
       <use xlink:href="#Helvetica-29" x="483.398438"/>
      </g>
     </g>
    </g>
    <g id="xtick_2">
     <g id="text_2">
      <!-- TH1 (TdT+) -->
      <g style="fill: #333333" transform="translate(49.830733 96.710385) rotate(-90) scale(0.035 -0.035)">
       <defs>
        <path id="Helvetica-2b" d="M 288 1369 
L 288 1894 
L 1650 1894 
L 1650 3266 
L 2184 3266 
L 2184 1894 
L 3547 1894 
L 3547 1369 
L 2184 1369 
L 2184 0 
L 1650 0 
L 1650 1369 
L 288 1369 
z
" transform="scale(0.015625)"/>
       </defs>
       <use xlink:href="#Helvetica-54"/>
       <use xlink:href="#Helvetica-48" x="61.083984"/>
       <use xlink:href="#Helvetica-31" x="133.300781"/>
       <use xlink:href="#Helvetica-20" x="188.916016"/>
       <use xlink:href="#Helvetica-28" x="216.699219"/>
       <use xlink:href="#Helvetica-54" x="250"/>
       <use xlink:href="#Helvetica-64" x="311.083984"/>
       <use xlink:href="#Helvetica-54" x="366.699219"/>
       <use xlink:href="#Helvetica-2b" x="427.783203"/>
       <use xlink:href="#Helvetica-29" x="486.181641"/>
      </g>
     </g>
    </g>
    <g id="xtick_3">
     <g id="text_3">
      <!-- Immature TH1 -->
      <g style="fill: #333333" transform="translate(76.87821 100.893432) rotate(-90) scale(0.035 -0.035)">
       <defs>
        <path id="Helvetica-49" d="M 628 4591 
L 1256 4591 
L 1256 0 
L 628 0 
L 628 4591 
z
" transform="scale(0.015625)"/>
        <path id="Helvetica-6d" d="M 413 3347 
L 969 3347 
L 969 2872 
Q 1169 3119 1331 3231 
Q 1609 3422 1963 3422 
Q 2363 3422 2606 3225 
Q 2744 3113 2856 2894 
Q 3044 3163 3297 3292 
Q 3550 3422 3866 3422 
Q 4541 3422 4784 2934 
Q 4916 2672 4916 2228 
L 4916 0 
L 4331 0 
L 4331 2325 
Q 4331 2659 4164 2784 
Q 3997 2909 3756 2909 
Q 3425 2909 3186 2687 
Q 2947 2466 2947 1947 
L 2947 0 
L 2375 0 
L 2375 2184 
Q 2375 2525 2294 2681 
Q 2166 2916 1816 2916 
Q 1497 2916 1236 2669 
Q 975 2422 975 1775 
L 975 0 
L 413 0 
L 413 3347 
z
" transform="scale(0.015625)"/>
        <path id="Helvetica-61" d="M 844 891 
Q 844 647 1022 506 
Q 1200 366 1444 366 
Q 1741 366 2019 503 
Q 2488 731 2488 1250 
L 2488 1703 
Q 2384 1638 2221 1594 
Q 2059 1550 1903 1531 
L 1563 1488 
Q 1256 1447 1103 1359 
Q 844 1213 844 891 
z
M 2206 2028 
Q 2400 2053 2466 2191 
Q 2503 2266 2503 2406 
Q 2503 2694 2298 2823 
Q 2094 2953 1713 2953 
Q 1272 2953 1088 2716 
Q 984 2584 953 2325 
L 428 2325 
Q 444 2944 830 3186 
Q 1216 3428 1725 3428 
Q 2316 3428 2684 3203 
Q 3050 2978 3050 2503 
L 3050 575 
Q 3050 488 3086 434 
Q 3122 381 3238 381 
Q 3275 381 3322 386 
Q 3369 391 3422 400 
L 3422 -16 
Q 3291 -53 3222 -62 
Q 3153 -72 3034 -72 
Q 2744 -72 2613 134 
Q 2544 244 2516 444 
Q 2344 219 2022 53 
Q 1700 -113 1313 -113 
Q 847 -113 551 170 
Q 256 453 256 878 
Q 256 1344 547 1600 
Q 838 1856 1309 1916 
L 2206 2028 
z
M 1741 3428 
L 1741 3428 
z
" transform="scale(0.015625)"/>
        <path id="Helvetica-74" d="M 525 4281 
L 1094 4281 
L 1094 3347 
L 1628 3347 
L 1628 2888 
L 1094 2888 
L 1094 703 
Q 1094 528 1213 469 
Q 1278 434 1431 434 
Q 1472 434 1519 436 
Q 1566 438 1628 444 
L 1628 0 
Q 1531 -28 1426 -40 
Q 1322 -53 1200 -53 
Q 806 -53 665 148 
Q 525 350 525 672 
L 525 2888 
L 72 2888 
L 72 3347 
L 525 3347 
L 525 4281 
z
" transform="scale(0.015625)"/>
        <path id="Helvetica-75" d="M 975 3347 
L 975 1125 
Q 975 869 1056 706 
Q 1206 406 1616 406 
Q 2203 406 2416 931 
Q 2531 1213 2531 1703 
L 2531 3347 
L 3094 3347 
L 3094 0 
L 2563 0 
L 2569 494 
Q 2459 303 2297 172 
Q 1975 -91 1516 -91 
Q 800 -91 541 388 
Q 400 644 400 1072 
L 400 3347 
L 975 3347 
z
M 1747 3428 
L 1747 3428 
z
" transform="scale(0.015625)"/>
        <path id="Helvetica-72" d="M 428 3347 
L 963 3347 
L 963 2769 
Q 1028 2938 1284 3180 
Q 1541 3422 1875 3422 
Q 1891 3422 1928 3419 
Q 1966 3416 2056 3406 
L 2056 2813 
Q 2006 2822 1964 2825 
Q 1922 2828 1872 2828 
Q 1447 2828 1219 2554 
Q 991 2281 991 1925 
L 991 0 
L 428 0 
L 428 3347 
z
" transform="scale(0.015625)"/>
        <path id="Helvetica-65" d="M 1806 3422 
Q 2163 3422 2497 3255 
Q 2831 3088 3006 2822 
Q 3175 2569 3231 2231 
Q 3281 2000 3281 1494 
L 828 1494 
Q 844 984 1069 676 
Q 1294 369 1766 369 
Q 2206 369 2469 659 
Q 2619 828 2681 1050 
L 3234 1050 
Q 3213 866 3089 639 
Q 2966 413 2813 269 
Q 2556 19 2178 -69 
Q 1975 -119 1719 -119 
Q 1094 -119 659 336 
Q 225 791 225 1609 
Q 225 2416 662 2919 
Q 1100 3422 1806 3422 
z
M 2703 1941 
Q 2669 2306 2544 2525 
Q 2313 2931 1772 2931 
Q 1384 2931 1121 2651 
Q 859 2372 844 1941 
L 2703 1941 
z
M 1753 3428 
L 1753 3428 
z
" transform="scale(0.015625)"/>
       </defs>
       <use xlink:href="#Helvetica-49"/>
       <use xlink:href="#Helvetica-6d" x="27.783203"/>
       <use xlink:href="#Helvetica-6d" x="111.083984"/>
       <use xlink:href="#Helvetica-61" x="194.384766"/>
       <use xlink:href="#Helvetica-74" x="250"/>
       <use xlink:href="#Helvetica-75" x="277.783203"/>
       <use xlink:href="#Helvetica-72" x="333.398438"/>
       <use xlink:href="#Helvetica-65" x="366.699219"/>
       <use xlink:href="#Helvetica-20" x="422.314453"/>
       <use xlink:href="#Helvetica-54" x="450.097656"/>
       <use xlink:href="#Helvetica-48" x="511.181641"/>
       <use xlink:href="#Helvetica-31" x="583.398438"/>
      </g>
     </g>
    </g>
    <g id="xtick_4">
     <g id="text_4">
      <!-- TH2 (TdT–) -->
      <g style="fill: #333333" transform="translate(103.95139 96.612494) rotate(-90) scale(0.035 -0.035)">
       <defs>
        <path id="Helvetica-32" d="M 200 0 
Q 231 578 439 1006 
Q 647 1434 1250 1784 
L 1850 2131 
Q 2253 2366 2416 2531 
Q 2672 2791 2672 3125 
Q 2672 3516 2437 3745 
Q 2203 3975 1813 3975 
Q 1234 3975 1013 3538 
Q 894 3303 881 2888 
L 309 2888 
Q 319 3472 525 3841 
Q 891 4491 1816 4491 
Q 2584 4491 2939 4075 
Q 3294 3659 3294 3150 
Q 3294 2613 2916 2231 
Q 2697 2009 2131 1694 
L 1703 1456 
Q 1397 1288 1222 1134 
Q 909 863 828 531 
L 3272 531 
L 3272 0 
L 200 0 
z
" transform="scale(0.015625)"/>
       </defs>
       <use xlink:href="#Helvetica-54"/>
       <use xlink:href="#Helvetica-48" x="61.083984"/>
       <use xlink:href="#Helvetica-32" x="133.300781"/>
       <use xlink:href="#Helvetica-20" x="188.916016"/>
       <use xlink:href="#Helvetica-28" x="216.699219"/>
       <use xlink:href="#Helvetica-54" x="250"/>
       <use xlink:href="#Helvetica-64" x="311.083984"/>
       <use xlink:href="#Helvetica-54" x="366.699219"/>
       <use xlink:href="#Helvetica-2013" x="427.783203"/>
       <use xlink:href="#Helvetica-29" x="483.398438"/>
      </g>
     </g>
    </g>
    <g id="xtick_5">
     <g id="text_5">
      <!-- TH2 (TdT+) -->
      <g style="fill: #333333" transform="translate(131.011719 96.710385) rotate(-90) scale(0.035 -0.035)">
       <use xlink:href="#Helvetica-54"/>
       <use xlink:href="#Helvetica-48" x="61.083984"/>
       <use xlink:href="#Helvetica-32" x="133.300781"/>
       <use xlink:href="#Helvetica-20" x="188.916016"/>
       <use xlink:href="#Helvetica-28" x="216.699219"/>
       <use xlink:href="#Helvetica-54" x="250"/>
       <use xlink:href="#Helvetica-64" x="311.083984"/>
       <use xlink:href="#Helvetica-54" x="366.699219"/>
       <use xlink:href="#Helvetica-2b" x="427.783203"/>
       <use xlink:href="#Helvetica-29" x="486.181641"/>
      </g>
     </g>
    </g>
    <g id="xtick_6">
     <g id="text_6">
      <!-- Immature TH2 -->
      <g style="fill: #333333" transform="translate(158.059196 100.893432) rotate(-90) scale(0.035 -0.035)">
       <use xlink:href="#Helvetica-49"/>
       <use xlink:href="#Helvetica-6d" x="27.783203"/>
       <use xlink:href="#Helvetica-6d" x="111.083984"/>
       <use xlink:href="#Helvetica-61" x="194.384766"/>
       <use xlink:href="#Helvetica-74" x="250"/>
       <use xlink:href="#Helvetica-75" x="277.783203"/>
       <use xlink:href="#Helvetica-72" x="333.398438"/>
       <use xlink:href="#Helvetica-65" x="366.699219"/>
       <use xlink:href="#Helvetica-20" x="422.314453"/>
       <use xlink:href="#Helvetica-54" x="450.097656"/>
       <use xlink:href="#Helvetica-48" x="511.181641"/>
       <use xlink:href="#Helvetica-32" x="583.398438"/>
      </g>
     </g>
    </g>
    <g id="xtick_7">
     <g id="text_7">
      <!-- TH17 (TdT–) -->
      <g style="fill: #333333" transform="translate(185.132376 98.558823) rotate(-90) scale(0.035 -0.035)">
       <defs>
        <path id="Helvetica-37" d="M 3347 4400 
L 3347 3909 
Q 3131 3700 2773 3181 
Q 2416 2663 2141 2063 
Q 1869 1478 1728 997 
Q 1638 688 1494 0 
L 872 0 
Q 1084 1281 1809 2550 
Q 2238 3294 2709 3834 
L 234 3834 
L 234 4400 
L 3347 4400 
z
" transform="scale(0.015625)"/>
       </defs>
       <use xlink:href="#Helvetica-54"/>
       <use xlink:href="#Helvetica-48" x="61.083984"/>
       <use xlink:href="#Helvetica-31" x="133.300781"/>
       <use xlink:href="#Helvetica-37" x="188.916016"/>
       <use xlink:href="#Helvetica-20" x="244.53125"/>
       <use xlink:href="#Helvetica-28" x="272.314453"/>
       <use xlink:href="#Helvetica-54" x="305.615234"/>
       <use xlink:href="#Helvetica-64" x="366.699219"/>
       <use xlink:href="#Helvetica-54" x="422.314453"/>
       <use xlink:href="#Helvetica-2013" x="483.398438"/>
       <use xlink:href="#Helvetica-29" x="539.013672"/>
      </g>
     </g>
    </g>
    <g id="xtick_8">
     <g id="text_8">
      <!-- TH17 (TdT+) -->
      <g style="fill: #333333" transform="translate(212.192705 98.656713) rotate(-90) scale(0.035 -0.035)">
       <use xlink:href="#Helvetica-54"/>
       <use xlink:href="#Helvetica-48" x="61.083984"/>
       <use xlink:href="#Helvetica-31" x="133.300781"/>
       <use xlink:href="#Helvetica-37" x="188.916016"/>
       <use xlink:href="#Helvetica-20" x="244.53125"/>
       <use xlink:href="#Helvetica-28" x="272.314453"/>
       <use xlink:href="#Helvetica-54" x="305.615234"/>
       <use xlink:href="#Helvetica-64" x="366.699219"/>
       <use xlink:href="#Helvetica-54" x="422.314453"/>
       <use xlink:href="#Helvetica-2b" x="483.398438"/>
       <use xlink:href="#Helvetica-29" x="541.796875"/>
      </g>
     </g>
    </g>
    <g id="xtick_9">
     <g id="text_9">
      <!-- Immature TH17 -->
      <g style="fill: #333333" transform="translate(239.240182 102.83976) rotate(-90) scale(0.035 -0.035)">
       <use xlink:href="#Helvetica-49"/>
       <use xlink:href="#Helvetica-6d" x="27.783203"/>
       <use xlink:href="#Helvetica-6d" x="111.083984"/>
       <use xlink:href="#Helvetica-61" x="194.384766"/>
       <use xlink:href="#Helvetica-74" x="250"/>
       <use xlink:href="#Helvetica-75" x="277.783203"/>
       <use xlink:href="#Helvetica-72" x="333.398438"/>
       <use xlink:href="#Helvetica-65" x="366.699219"/>
       <use xlink:href="#Helvetica-20" x="422.314453"/>
       <use xlink:href="#Helvetica-54" x="450.097656"/>
       <use xlink:href="#Helvetica-48" x="511.181641"/>
       <use xlink:href="#Helvetica-31" x="583.398438"/>
       <use xlink:href="#Helvetica-37" x="639.013672"/>
      </g>
     </g>
    </g>
   </g>
   <g id="matplotlib.axis_2">
    <g id="ytick_1">
     <g id="line2d_1">
      <defs>
       <path id="m471c2348b5" d="M 0 0 
L -1 0 
" style="stroke: #777777; stroke-width: 0.5"/>
      </defs>
      <g>
       <use xlink:href="#m471c2348b5" x="8.336803" y="65.345487" style="fill: #777777; stroke: #777777; stroke-width: 0.5"/>
      </g>
     </g>
     <g id="text_10">
      <!-- 0 -->
      <g style="fill: #333333" transform="translate(4.668521 66.421503) scale(0.03 -0.03)">
       <defs>
        <path id="Helvetica-30" d="M 1731 4475 
Q 2600 4475 2988 3759 
Q 3288 3206 3288 2244 
Q 3288 1331 3016 734 
Q 2622 -122 1728 -122 
Q 922 -122 528 578 
Q 200 1163 200 2147 
Q 200 2909 397 3456 
Q 766 4475 1731 4475 
z
M 1725 391 
Q 2163 391 2422 778 
Q 2681 1166 2681 2222 
Q 2681 2984 2493 3476 
Q 2306 3969 1766 3969 
Q 1269 3969 1039 3501 
Q 809 3034 809 2125 
Q 809 1441 956 1025 
Q 1181 391 1725 391 
z
" transform="scale(0.015625)"/>
       </defs>
       <use xlink:href="#Helvetica-30"/>
      </g>
     </g>
    </g>
    <g id="ytick_2">
     <g id="line2d_2">
      <g>
       <use xlink:href="#m471c2348b5" x="8.336803" y="50.028179" style="fill: #777777; stroke: #777777; stroke-width: 0.5"/>
      </g>
     </g>
     <g id="text_11">
      <!-- 5 -->
      <g style="fill: #333333" transform="translate(4.668521 51.104195) scale(0.03 -0.03)">
       <defs>
        <path id="Helvetica-35" d="M 791 1141 
Q 847 659 1238 475 
Q 1438 381 1700 381 
Q 2200 381 2440 700 
Q 2681 1019 2681 1406 
Q 2681 1875 2395 2131 
Q 2109 2388 1709 2388 
Q 1419 2388 1211 2275 
Q 1003 2163 856 1963 
L 369 1991 
L 709 4400 
L 3034 4400 
L 3034 3856 
L 1131 3856 
L 941 2613 
Q 1097 2731 1238 2791 
Q 1488 2894 1816 2894 
Q 2431 2894 2859 2497 
Q 3288 2100 3288 1491 
Q 3288 856 2895 371 
Q 2503 -113 1644 -113 
Q 1097 -113 676 195 
Q 256 503 206 1141 
L 791 1141 
z
" transform="scale(0.015625)"/>
       </defs>
       <use xlink:href="#Helvetica-35"/>
      </g>
     </g>
    </g>
    <g id="ytick_3">
     <g id="line2d_3">
      <g>
       <use xlink:href="#m471c2348b5" x="8.336803" y="34.710871" style="fill: #777777; stroke: #777777; stroke-width: 0.5"/>
      </g>
     </g>
     <g id="text_12">
      <!-- 10 -->
      <g style="fill: #333333" transform="translate(3.00024 35.786887) scale(0.03 -0.03)">
       <use xlink:href="#Helvetica-31"/>
       <use xlink:href="#Helvetica-30" x="55.615234"/>
      </g>
     </g>
    </g>
    <g id="ytick_4">
     <g id="line2d_4">
      <g>
       <use xlink:href="#m471c2348b5" x="8.336803" y="19.393563" style="fill: #777777; stroke: #777777; stroke-width: 0.5"/>
      </g>
     </g>
     <g id="text_13">
      <!-- 15 -->
      <g style="fill: #333333" transform="translate(3.00024 20.469579) scale(0.03 -0.03)">
       <use xlink:href="#Helvetica-31"/>
       <use xlink:href="#Helvetica-35" x="55.615234"/>
      </g>
     </g>
    </g>
    <g id="ytick_5">
     <g id="line2d_5">
      <g>
       <use xlink:href="#m471c2348b5" x="8.336803" y="4.076256" style="fill: #777777; stroke: #777777; stroke-width: 0.5"/>
      </g>
     </g>
     <g id="text_14">
      <!-- 20 -->
      <g style="fill: #333333" transform="translate(3.00024 5.152271) scale(0.03 -0.03)">
       <use xlink:href="#Helvetica-32"/>
       <use xlink:href="#Helvetica-30" x="55.615234"/>
      </g>
     </g>
    </g>
   </g>
   <g id="PolyCollection_1">
    <defs>
     <path id="m84d71d8bda" d="M 22.612393 -40.408829 
L 21.121541 -40.408829 
L 20.894762 -40.414096 
L 20.616722 -40.419363 
L 20.281588 -40.424631 
L 19.884582 -40.429898 
L 19.422546 -40.435165 
L 18.894525 -40.440432 
L 18.302326 -40.445699 
L 17.650989 -40.450966 
L 16.949113 -40.456233 
L 16.208982 -40.4615 
L 15.446452 -40.466767 
L 14.680554 -40.472035 
L 13.932823 -40.477302 
L 13.22637 -40.482569 
L 12.584738 -40.487836 
L 12.03063 -40.493103 
L 11.584586 -40.49837 
L 11.263738 -40.503637 
L 11.080715 -40.508904 
L 11.042835 -40.514172 
L 11.151615 -40.519439 
L 11.402671 -40.524706 
L 11.786015 -40.529973 
L 12.286704 -40.53524 
L 12.885801 -40.540507 
L 13.561559 -40.545774 
L 14.290711 -40.551041 
L 15.049785 -40.556308 
L 15.81632 -40.561576 
L 16.569913 -40.566843 
L 17.293023 -40.57211 
L 17.97151 -40.577377 
L 18.594888 -40.582644 
L 19.15632 -40.587911 
L 19.652387 -40.593178 
L 20.082682 -40.598445 
L 20.449294 -40.603713 
L 20.756229 -40.60898 
L 21.008832 -40.614247 
L 21.213246 -40.619514 
L 21.375938 -40.624781 
L 21.503315 -40.630048 
L 21.601435 -40.635315 
L 21.675808 -40.640582 
L 21.731282 -40.645849 
L 21.772001 -40.651117 
L 21.801406 -40.656384 
L 21.822286 -40.661651 
L 21.836843 -40.666918 
L 21.84677 -40.672185 
L 21.853332 -40.677452 
L 21.857441 -40.682719 
L 21.859717 -40.687986 
L 21.860544 -40.693253 
L 21.860106 -40.698521 
L 21.858415 -40.703788 
L 21.855328 -40.709055 
L 21.850556 -40.714322 
L 21.843663 -40.719589 
L 21.834068 -40.724856 
L 21.821046 -40.730123 
L 21.803734 -40.73539 
L 21.781149 -40.740658 
L 21.752217 -40.745925 
L 21.715818 -40.751192 
L 21.670851 -40.756459 
L 21.616319 -40.761726 
L 21.551428 -40.766993 
L 21.475696 -40.77226 
L 21.389064 -40.777527 
L 21.292008 -40.782794 
L 21.185617 -40.788062 
L 21.071653 -40.793329 
L 20.952552 -40.798596 
L 20.831388 -40.803863 
L 20.711763 -40.80913 
L 20.59765 -40.814397 
L 20.493188 -40.819664 
L 20.402433 -40.824931 
L 20.329104 -40.830199 
L 20.276329 -40.835466 
L 20.246423 -40.840733 
L 20.240722 -40.846 
L 20.259483 -40.851267 
L 20.301864 -40.856534 
L 20.365987 -40.861801 
L 20.449078 -40.867068 
L 20.547661 -40.872335 
L 20.657805 -40.877603 
L 20.775379 -40.88287 
L 20.896303 -40.888137 
L 21.01678 -40.893404 
L 21.133474 -40.898671 
L 21.243644 -40.903938 
L 21.345213 -40.909205 
L 21.436783 -40.914472 
L 21.517603 -40.91974 
L 21.587496 -40.925007 
L 21.646759 -40.930274 
L 22.087174 -40.930274 
L 22.087174 -40.930274 
L 22.146438 -40.925007 
L 22.21633 -40.91974 
L 22.29715 -40.914472 
L 22.38872 -40.909205 
L 22.490289 -40.903938 
L 22.60046 -40.898671 
L 22.717154 -40.893404 
L 22.837631 -40.888137 
L 22.958555 -40.88287 
L 23.076128 -40.877603 
L 23.186273 -40.872335 
L 23.284856 -40.867068 
L 23.367946 -40.861801 
L 23.432069 -40.856534 
L 23.47445 -40.851267 
L 23.493211 -40.846 
L 23.487511 -40.840733 
L 23.457605 -40.835466 
L 23.40483 -40.830199 
L 23.331501 -40.824931 
L 23.240746 -40.819664 
L 23.136284 -40.814397 
L 23.022171 -40.80913 
L 22.902545 -40.803863 
L 22.781381 -40.798596 
L 22.662281 -40.793329 
L 22.548316 -40.788062 
L 22.441926 -40.782794 
L 22.34487 -40.777527 
L 22.258238 -40.77226 
L 22.182505 -40.766993 
L 22.117615 -40.761726 
L 22.063083 -40.756459 
L 22.018116 -40.751192 
L 21.981716 -40.745925 
L 21.952784 -40.740658 
L 21.9302 -40.73539 
L 21.912888 -40.730123 
L 21.899866 -40.724856 
L 21.89027 -40.719589 
L 21.883377 -40.714322 
L 21.878605 -40.709055 
L 21.875519 -40.703788 
L 21.873828 -40.698521 
L 21.87339 -40.693253 
L 21.874216 -40.687986 
L 21.876493 -40.682719 
L 21.880602 -40.677452 
L 21.887164 -40.672185 
L 21.897091 -40.666918 
L 21.911647 -40.661651 
L 21.932527 -40.656384 
L 21.961933 -40.651117 
L 22.002651 -40.645849 
L 22.058126 -40.640582 
L 22.132499 -40.635315 
L 22.230619 -40.630048 
L 22.357996 -40.624781 
L 22.520687 -40.619514 
L 22.725101 -40.614247 
L 22.977705 -40.60898 
L 23.284639 -40.603713 
L 23.651251 -40.598445 
L 24.081547 -40.593178 
L 24.577614 -40.587911 
L 25.139046 -40.582644 
L 25.762424 -40.577377 
L 26.440911 -40.57211 
L 27.16402 -40.566843 
L 27.917613 -40.561576 
L 28.684149 -40.556308 
L 29.443223 -40.551041 
L 30.172375 -40.545774 
L 30.848132 -40.540507 
L 31.44723 -40.53524 
L 31.947919 -40.529973 
L 32.331263 -40.524706 
L 32.582319 -40.519439 
L 32.691098 -40.514172 
L 32.653218 -40.508904 
L 32.470196 -40.503637 
L 32.149347 -40.49837 
L 31.703304 -40.493103 
L 31.149195 -40.487836 
L 30.507564 -40.482569 
L 29.801111 -40.477302 
L 29.05338 -40.472035 
L 28.287482 -40.466767 
L 27.524951 -40.4615 
L 26.784821 -40.456233 
L 26.082944 -40.450966 
L 25.431607 -40.445699 
L 24.839409 -40.440432 
L 24.311388 -40.435165 
L 23.849351 -40.429898 
L 23.452346 -40.424631 
L 23.117212 -40.419363 
L 22.839172 -40.414096 
L 22.612393 -40.408829 
z
" style="stroke: #595959; stroke-width: 0.15"/>
    </defs>
    <g clip-path="url(#p6c07d1ccd0)">
     <use xlink:href="#m84d71d8bda" x="0" y="105.84" style="fill: #eab390; stroke: #595959; stroke-width: 0.15"/>
    </g>
   </g>
   <g id="PolyCollection_2">
    <defs>
     <path id="m80146fb989" d="M 50.160699 -40.492242 
L 47.693892 -40.492242 
L 47.368678 -40.492378 
L 46.985308 -40.492514 
L 46.54141 -40.49265 
L 46.036762 -40.492787 
L 45.473742 -40.492923 
L 44.857656 -40.493059 
L 44.196901 -40.493195 
L 43.50291 -40.493331 
L 42.789851 -40.493467 
L 42.074075 -40.493604 
L 41.373334 -40.49374 
L 40.705814 -40.493876 
L 40.089068 -40.494012 
L 39.538923 -40.494148 
L 39.068487 -40.494285 
L 38.687341 -40.494421 
L 38.401006 -40.494557 
L 38.210729 -40.494693 
L 38.11363 -40.494829 
L 38.103164 -40.494965 
L 38.169866 -40.495102 
L 38.30227 -40.495238 
L 38.487901 -40.495374 
L 38.714244 -40.49551 
L 38.969555 -40.495646 
L 39.243469 -40.495782 
L 39.527338 -40.495919 
L 39.814295 -40.496055 
L 40.099084 -40.496191 
L 40.377696 -40.496327 
L 40.646921 -40.496463 
L 40.903882 -40.496599 
L 41.145651 -40.496736 
L 41.369024 -40.496872 
L 41.570477 -40.497008 
L 41.746338 -40.497144 
L 41.893139 -40.49728 
L 42.008104 -40.497417 
L 42.0897 -40.497553 
L 42.138152 -40.497689 
L 42.155868 -40.497825 
L 42.147663 -40.497961 
L 42.120755 -40.498097 
L 42.084509 -40.498234 
L 42.049919 -40.49837 
L 42.028894 -40.498506 
L 42.033394 -40.498642 
L 42.074515 -40.498778 
L 42.16161 -40.498914 
L 42.301531 -40.499051 
L 42.498076 -40.499187 
L 42.751687 -40.499323 
L 43.059413 -40.499459 
L 43.415151 -40.499595 
L 43.810108 -40.499731 
L 44.23344 -40.499868 
L 44.673001 -40.500004 
L 45.116111 -40.50014 
L 45.550293 -40.500276 
L 45.963908 -40.500412 
L 46.346658 -40.500549 
L 46.689933 -40.500685 
L 46.986999 -40.500821 
L 47.23306 -40.500957 
L 47.425208 -40.501093 
L 47.562299 -40.501229 
L 47.6448 -40.501366 
L 47.674621 -40.501502 
L 47.654971 -40.501638 
L 47.590224 -40.501774 
L 47.485816 -40.50191 
L 47.348146 -40.502046 
L 47.184474 -40.502183 
L 47.002782 -40.502319 
L 46.8116 -40.502455 
L 46.619771 -40.502591 
L 46.436161 -40.502727 
L 46.269319 -40.502863 
L 46.127107 -40.503 
L 46.016329 -40.503136 
L 45.942387 -40.503272 
L 45.909004 -40.503408 
L 45.918033 -40.503544 
L 45.969384 -40.503681 
L 46.061075 -40.503817 
L 46.189402 -40.503953 
L 46.34922 -40.504089 
L 46.534311 -40.504225 
L 46.737793 -40.504361 
L 46.952557 -40.504498 
L 47.171676 -40.504634 
L 47.388761 -40.50477 
L 47.598252 -40.504906 
L 47.795609 -40.505042 
L 47.977418 -40.505178 
L 48.141403 -40.505315 
L 48.286361 -40.505451 
L 48.412046 -40.505587 
L 48.518998 -40.505723 
L 49.335592 -40.505723 
L 49.335592 -40.505723 
L 49.442545 -40.505587 
L 49.56823 -40.505451 
L 49.713188 -40.505315 
L 49.877173 -40.505178 
L 50.058982 -40.505042 
L 50.256339 -40.504906 
L 50.46583 -40.50477 
L 50.682915 -40.504634 
L 50.902034 -40.504498 
L 51.116798 -40.504361 
L 51.32028 -40.504225 
L 51.505371 -40.504089 
L 51.665189 -40.503953 
L 51.793516 -40.503817 
L 51.885207 -40.503681 
L 51.936558 -40.503544 
L 51.945587 -40.503408 
L 51.912204 -40.503272 
L 51.838262 -40.503136 
L 51.727484 -40.503 
L 51.585272 -40.502863 
L 51.41843 -40.502727 
L 51.23482 -40.502591 
L 51.042991 -40.502455 
L 50.851809 -40.502319 
L 50.670116 -40.502183 
L 50.506444 -40.502046 
L 50.368775 -40.50191 
L 50.264367 -40.501774 
L 50.19962 -40.501638 
L 50.17997 -40.501502 
L 50.209791 -40.501366 
L 50.292292 -40.501229 
L 50.429383 -40.501093 
L 50.621531 -40.500957 
L 50.867592 -40.500821 
L 51.164658 -40.500685 
L 51.507933 -40.500549 
L 51.890683 -40.500412 
L 52.304298 -40.500276 
L 52.73848 -40.50014 
L 53.18159 -40.500004 
L 53.62115 -40.499868 
L 54.044483 -40.499731 
L 54.439439 -40.499595 
L 54.795177 -40.499459 
L 55.102904 -40.499323 
L 55.356515 -40.499187 
L 55.55306 -40.499051 
L 55.692981 -40.498914 
L 55.780076 -40.498778 
L 55.821197 -40.498642 
L 55.825697 -40.498506 
L 55.804672 -40.49837 
L 55.770082 -40.498234 
L 55.733836 -40.498097 
L 55.706928 -40.497961 
L 55.698723 -40.497825 
L 55.716439 -40.497689 
L 55.764891 -40.497553 
L 55.846486 -40.497417 
L 55.961452 -40.49728 
L 56.108253 -40.497144 
L 56.284114 -40.497008 
L 56.485567 -40.496872 
L 56.70894 -40.496736 
L 56.950709 -40.496599 
L 57.20767 -40.496463 
L 57.476895 -40.496327 
L 57.755507 -40.496191 
L 58.040296 -40.496055 
L 58.327253 -40.495919 
L 58.611122 -40.495782 
L 58.885036 -40.495646 
L 59.140347 -40.49551 
L 59.366689 -40.495374 
L 59.552321 -40.495238 
L 59.684724 -40.495102 
L 59.751427 -40.494965 
L 59.740961 -40.494829 
L 59.643861 -40.494693 
L 59.453585 -40.494557 
L 59.167249 -40.494421 
L 58.786104 -40.494285 
L 58.315668 -40.494148 
L 57.765523 -40.494012 
L 57.148776 -40.493876 
L 56.481257 -40.49374 
L 55.780516 -40.493604 
L 55.06474 -40.493467 
L 54.351681 -40.493331 
L 53.65769 -40.493195 
L 52.996935 -40.493059 
L 52.380849 -40.492923 
L 51.817829 -40.492787 
L 51.313181 -40.49265 
L 50.869283 -40.492514 
L 50.485913 -40.492378 
L 50.160699 -40.492242 
z
" style="stroke: #595959; stroke-width: 0.15"/>
    </defs>
    <g clip-path="url(#p6c07d1ccd0)">
     <use xlink:href="#m80146fb989" x="0" y="105.84" style="fill: #edbea0; stroke: #595959; stroke-width: 0.15"/>
    </g>
   </g>
   <g id="PolyCollection_3">
    <defs>
     <path id="m564b36625b" d="M 76.430546 -40.492185 
L 75.544702 -40.492185 
L 75.404089 -40.492332 
L 75.229272 -40.492479 
L 75.015318 -40.492626 
L 74.757559 -40.492773 
L 74.451891 -40.49292 
L 74.095119 -40.493067 
L 73.685301 -40.493214 
L 73.222078 -40.493361 
L 72.706968 -40.493508 
L 72.14358 -40.493655 
L 71.537745 -40.493802 
L 70.89752 -40.493949 
L 70.233072 -40.494096 
L 69.556435 -40.494243 
L 68.881145 -40.49439 
L 68.221774 -40.494537 
L 67.593386 -40.494684 
L 67.01095 -40.494831 
L 66.488738 -40.494978 
L 66.039744 -40.495125 
L 65.675155 -40.495272 
L 65.403884 -40.495418 
L 65.232207 -40.495565 
L 65.163493 -40.495712 
L 65.198055 -40.495859 
L 65.333112 -40.496006 
L 65.562876 -40.496153 
L 65.878757 -40.4963 
L 66.269694 -40.496447 
L 66.722593 -40.496594 
L 67.222885 -40.496741 
L 67.755156 -40.496888 
L 68.303851 -40.497035 
L 68.853996 -40.497182 
L 69.391905 -40.497329 
L 69.90582 -40.497476 
L 70.386434 -40.497623 
L 70.82725 -40.49777 
L 71.224749 -40.497917 
L 71.578345 -40.498064 
L 71.890131 -40.498211 
L 72.164434 -40.498358 
L 72.407231 -40.498505 
L 72.62547 -40.498652 
L 72.826369 -40.498799 
L 73.016758 -40.498946 
L 73.202516 -40.499093 
L 73.388163 -40.49924 
L 73.576615 -40.499387 
L 73.769122 -40.499534 
L 73.965373 -40.499681 
L 74.163732 -40.499828 
L 74.361567 -40.499975 
L 74.555628 -40.500122 
L 74.74242 -40.500269 
L 74.918533 -40.500416 
L 75.080905 -40.500563 
L 75.226996 -40.50071 
L 75.354865 -40.500857 
L 75.463171 -40.501004 
L 75.551096 -40.501151 
L 75.618238 -40.501298 
L 75.664469 -40.501445 
L 75.689811 -40.501592 
L 75.694339 -40.501739 
L 75.67812 -40.501886 
L 75.641216 -40.502033 
L 75.583741 -40.50218 
L 75.505967 -40.502327 
L 75.408472 -40.502473 
L 75.292312 -40.50262 
L 75.159183 -40.502767 
L 75.01157 -40.502914 
L 74.852829 -40.503061 
L 74.687208 -40.503208 
L 74.51977 -40.503355 
L 74.35623 -40.503502 
L 74.202693 -40.503649 
L 74.065323 -40.503796 
L 73.949968 -40.503943 
L 73.861763 -40.50409 
L 73.80477 -40.504237 
L 73.781674 -40.504384 
L 73.79358 -40.504531 
L 73.839931 -40.504678 
L 73.918553 -40.504825 
L 74.025825 -40.504972 
L 74.156957 -40.505119 
L 74.306346 -40.505266 
L 74.467968 -40.505413 
L 74.635781 -40.50556 
L 74.804085 -40.505707 
L 74.967825 -40.505854 
L 75.122812 -40.506001 
L 75.265845 -40.506148 
L 75.394751 -40.506295 
L 75.508338 -40.506442 
L 75.606292 -40.506589 
L 75.689026 -40.506736 
L 76.286222 -40.506736 
L 76.286222 -40.506736 
L 76.368956 -40.506589 
L 76.466911 -40.506442 
L 76.580497 -40.506295 
L 76.709403 -40.506148 
L 76.852436 -40.506001 
L 77.007423 -40.505854 
L 77.171163 -40.505707 
L 77.339467 -40.50556 
L 77.50728 -40.505413 
L 77.668902 -40.505266 
L 77.818291 -40.505119 
L 77.949423 -40.504972 
L 78.056695 -40.504825 
L 78.135317 -40.504678 
L 78.181669 -40.504531 
L 78.193574 -40.504384 
L 78.170478 -40.504237 
L 78.113485 -40.50409 
L 78.02528 -40.503943 
L 77.909925 -40.503796 
L 77.772555 -40.503649 
L 77.619018 -40.503502 
L 77.455478 -40.503355 
L 77.28804 -40.503208 
L 77.122419 -40.503061 
L 76.963678 -40.502914 
L 76.816065 -40.502767 
L 76.682936 -40.50262 
L 76.566776 -40.502473 
L 76.469281 -40.502327 
L 76.391507 -40.50218 
L 76.334032 -40.502033 
L 76.297128 -40.501886 
L 76.280909 -40.501739 
L 76.285437 -40.501592 
L 76.310779 -40.501445 
L 76.35701 -40.501298 
L 76.424152 -40.501151 
L 76.512077 -40.501004 
L 76.620383 -40.500857 
L 76.748252 -40.50071 
L 76.894343 -40.500563 
L 77.056715 -40.500416 
L 77.232828 -40.500269 
L 77.41962 -40.500122 
L 77.613681 -40.499975 
L 77.811516 -40.499828 
L 78.009875 -40.499681 
L 78.206126 -40.499534 
L 78.398633 -40.499387 
L 78.587085 -40.49924 
L 78.772732 -40.499093 
L 78.95849 -40.498946 
L 79.148879 -40.498799 
L 79.349778 -40.498652 
L 79.568017 -40.498505 
L 79.810814 -40.498358 
L 80.085117 -40.498211 
L 80.396903 -40.498064 
L 80.750499 -40.497917 
L 81.147998 -40.49777 
L 81.588814 -40.497623 
L 82.069428 -40.497476 
L 82.583343 -40.497329 
L 83.121252 -40.497182 
L 83.671397 -40.497035 
L 84.220092 -40.496888 
L 84.752363 -40.496741 
L 85.252655 -40.496594 
L 85.705554 -40.496447 
L 86.096491 -40.4963 
L 86.412372 -40.496153 
L 86.642136 -40.496006 
L 86.777193 -40.495859 
L 86.811755 -40.495712 
L 86.743041 -40.495565 
L 86.571364 -40.495418 
L 86.300093 -40.495272 
L 85.935504 -40.495125 
L 85.486511 -40.494978 
L 84.964298 -40.494831 
L 84.381862 -40.494684 
L 83.753474 -40.494537 
L 83.094103 -40.49439 
L 82.418813 -40.494243 
L 81.742176 -40.494096 
L 81.077728 -40.493949 
L 80.437503 -40.493802 
L 79.831668 -40.493655 
L 79.26828 -40.493508 
L 78.75317 -40.493361 
L 78.289947 -40.493214 
L 77.880129 -40.493067 
L 77.523357 -40.49292 
L 77.21769 -40.492773 
L 76.95993 -40.492626 
L 76.745976 -40.492479 
L 76.571159 -40.492332 
L 76.430546 -40.492185 
z
" style="stroke: #595959; stroke-width: 0.15"/>
    </defs>
    <g clip-path="url(#p6c07d1ccd0)">
     <use xlink:href="#m564b36625b" x="0" y="105.84" style="fill: #f0c9b0; stroke: #595959; stroke-width: 0.15"/>
    </g>
   </g>
   <g id="PolyCollection_4">
    <defs>
     <path id="ma093d4d4ac" d="M 103.427388 -36.227146 
L 102.668517 -36.227146 
L 102.552448 -36.536085 
L 102.410818 -36.845023 
L 102.241059 -37.153961 
L 102.041133 -37.4629 
L 101.809706 -37.771838 
L 101.546277 -38.080777 
L 101.251244 -38.389715 
L 100.925889 -38.698654 
L 100.572288 -39.007592 
L 100.193134 -39.31653 
L 99.791512 -39.625469 
L 99.370644 -39.934407 
L 98.933653 -40.243346 
L 98.483377 -40.552284 
L 98.022284 -40.861223 
L 97.552499 -41.170161 
L 97.075957 -41.479099 
L 96.594663 -41.788038 
L 96.111028 -42.096976 
L 95.628223 -42.405915 
L 95.150485 -42.714853 
L 94.683319 -43.023792 
L 94.23353 -43.33273 
L 93.809057 -43.641669 
L 93.418612 -43.950607 
L 93.071129 -44.259545 
L 92.775108 -44.568484 
L 92.537916 -44.877422 
L 92.365155 -45.186361 
L 92.260173 -45.495299 
L 92.223821 -45.804238 
L 92.254469 -46.113176 
L 92.34831 -46.422114 
L 92.499901 -46.731053 
L 92.702867 -47.039991 
L 92.950655 -47.34893 
L 93.237235 -47.657868 
L 93.557633 -47.966807 
L 93.908217 -48.275745 
L 94.286707 -48.584684 
L 94.69191 -48.893622 
L 95.12324 -49.20256 
L 95.580116 -49.511499 
L 96.061334 -49.820437 
L 96.564542 -50.129376 
L 97.085881 -50.438314 
L 97.619868 -50.747253 
L 98.159531 -51.056191 
L 98.696767 -51.365129 
L 99.222865 -51.674068 
L 99.729127 -51.983006 
L 100.207482 -52.291945 
L 100.651029 -52.600883 
L 101.054442 -52.909822 
L 101.414197 -53.21876 
L 101.728617 -53.527698 
L 101.997751 -53.836637 
L 102.223105 -54.145575 
L 102.407291 -54.454514 
L 102.553624 -54.763452 
L 102.665723 -55.072391 
L 102.74714 -55.381329 
L 102.801065 -55.690268 
L 102.830106 -55.999206 
L 102.836166 -56.308144 
L 102.820416 -56.617083 
L 102.783356 -56.926021 
L 102.724965 -57.23496 
L 102.644925 -57.543898 
L 102.542893 -57.852837 
L 102.418816 -58.161775 
L 102.273251 -58.470713 
L 102.107664 -58.779652 
L 101.924671 -59.08859 
L 101.728189 -59.397529 
L 101.52347 -59.706467 
L 101.316993 -60.015406 
L 101.116212 -60.324344 
L 100.929161 -60.633283 
L 100.763959 -60.942221 
L 100.62824 -61.251159 
L 100.528581 -61.560098 
L 100.469975 -61.869036 
L 100.455424 -62.177975 
L 100.485678 -62.486913 
L 100.559182 -62.795852 
L 100.6722 -63.10479 
L 100.819134 -63.413728 
L 100.992984 -63.722667 
L 101.185896 -64.031605 
L 101.38975 -64.340544 
L 101.596712 -64.649482 
L 101.799712 -64.958421 
L 101.992802 -65.267359 
L 102.171381 -65.576298 
L 102.332275 -65.885236 
L 102.473697 -66.194174 
L 102.595108 -66.503113 
L 102.696998 -66.812051 
L 103.398907 -66.812051 
L 103.398907 -66.812051 
L 103.500797 -66.503113 
L 103.622208 -66.194174 
L 103.763631 -65.885236 
L 103.924524 -65.576298 
L 104.103103 -65.267359 
L 104.296194 -64.958421 
L 104.499193 -64.649482 
L 104.706155 -64.340544 
L 104.910009 -64.031605 
L 105.102921 -63.722667 
L 105.276771 -63.413728 
L 105.423705 -63.10479 
L 105.536723 -62.795852 
L 105.610227 -62.486913 
L 105.640482 -62.177975 
L 105.62593 -61.869036 
L 105.567324 -61.560098 
L 105.467665 -61.251159 
L 105.331947 -60.942221 
L 105.166745 -60.633283 
L 104.979694 -60.324344 
L 104.778912 -60.015406 
L 104.572435 -59.706467 
L 104.367716 -59.397529 
L 104.171234 -59.08859 
L 103.988241 -58.779652 
L 103.822654 -58.470713 
L 103.67709 -58.161775 
L 103.553012 -57.852837 
L 103.45098 -57.543898 
L 103.37094 -57.23496 
L 103.31255 -56.926021 
L 103.275489 -56.617083 
L 103.259739 -56.308144 
L 103.265799 -55.999206 
L 103.29484 -55.690268 
L 103.348765 -55.381329 
L 103.430183 -55.072391 
L 103.542281 -54.763452 
L 103.688615 -54.454514 
L 103.8728 -54.145575 
L 104.098154 -53.836637 
L 104.367288 -53.527698 
L 104.681709 -53.21876 
L 105.041463 -52.909822 
L 105.444876 -52.600883 
L 105.888423 -52.291945 
L 106.366778 -51.983006 
L 106.87304 -51.674068 
L 107.399139 -51.365129 
L 107.936374 -51.056191 
L 108.476038 -50.747253 
L 109.010025 -50.438314 
L 109.531363 -50.129376 
L 110.034571 -49.820437 
L 110.515789 -49.511499 
L 110.972665 -49.20256 
L 111.403995 -48.893622 
L 111.809198 -48.584684 
L 112.187688 -48.275745 
L 112.538272 -47.966807 
L 112.85867 -47.657868 
L 113.14525 -47.34893 
L 113.393038 -47.039991 
L 113.596004 -46.731053 
L 113.747595 -46.422114 
L 113.841436 -46.113176 
L 113.872084 -45.804238 
L 113.835732 -45.495299 
L 113.730751 -45.186361 
L 113.557989 -44.877422 
L 113.320797 -44.568484 
L 113.024776 -44.259545 
L 112.677293 -43.950607 
L 112.286848 -43.641669 
L 111.862376 -43.33273 
L 111.412586 -43.023792 
L 110.94542 -42.714853 
L 110.467682 -42.405915 
L 109.984877 -42.096976 
L 109.501242 -41.788038 
L 109.019948 -41.479099 
L 108.543406 -41.170161 
L 108.073621 -40.861223 
L 107.612529 -40.552284 
L 107.162253 -40.243346 
L 106.725261 -39.934407 
L 106.304393 -39.625469 
L 105.902771 -39.31653 
L 105.523617 -39.007592 
L 105.170016 -38.698654 
L 104.844661 -38.389715 
L 104.549628 -38.080777 
L 104.286199 -37.771838 
L 104.054773 -37.4629 
L 103.854847 -37.153961 
L 103.685087 -36.845023 
L 103.543458 -36.536085 
L 103.427388 -36.227146 
z
" style="stroke: #595959; stroke-width: 0.15"/>
    </defs>
    <g clip-path="url(#p6c07d1ccd0)">
     <use xlink:href="#ma093d4d4ac" x="0" y="105.84" style="fill: #b6cae3; stroke: #595959; stroke-width: 0.15"/>
    </g>
   </g>
   <g id="PolyCollection_5">
    <defs>
     <path id="m0e8b1ea994" d="M 130.713037 -37.602109 
L 129.503525 -37.602109 
L 129.325107 -37.778299 
L 129.107305 -37.95449 
L 128.845538 -38.13068 
L 128.535846 -38.30687 
L 128.175247 -38.48306 
L 127.762106 -38.659251 
L 127.296489 -38.835441 
L 126.780463 -39.011631 
L 126.218317 -39.187822 
L 125.616661 -39.364012 
L 124.984382 -39.540202 
L 124.33243 -39.716392 
L 123.673435 -39.892583 
L 123.02117 -40.068773 
L 122.389865 -40.244963 
L 121.793451 -40.421153 
L 121.244753 -40.597344 
L 120.754731 -40.773534 
L 120.33182 -40.949724 
L 119.981439 -41.125914 
L 119.705729 -41.302105 
L 119.503537 -41.478295 
L 119.370673 -41.654485 
L 119.300404 -41.830675 
L 119.28415 -42.006866 
L 119.312304 -42.183056 
L 119.375101 -42.359246 
L 119.463437 -42.535436 
L 119.569559 -42.711627 
L 119.687561 -42.887817 
L 119.81364 -43.064007 
L 119.946099 -43.240197 
L 120.085121 -43.416388 
L 120.232354 -43.592578 
L 120.390379 -43.768768 
L 120.562126 -43.944958 
L 120.750326 -44.121149 
L 120.957049 -44.297339 
L 121.183375 -44.473529 
L 121.429216 -44.649719 
L 121.693284 -44.82591 
L 121.973188 -45.0021 
L 122.265616 -45.17829 
L 122.566562 -45.35448 
L 122.871576 -45.530671 
L 123.175991 -45.706861 
L 123.475131 -45.883051 
L 123.764485 -46.059241 
L 124.039867 -46.235432 
L 124.297562 -46.411622 
L 124.534478 -46.587812 
L 124.7483 -46.764002 
L 124.937647 -46.940193 
L 125.102201 -47.116383 
L 125.242801 -47.292573 
L 125.361464 -47.468763 
L 125.461311 -47.644954 
L 125.546377 -47.821144 
L 125.621323 -47.997334 
L 125.691039 -48.173524 
L 125.760202 -48.349715 
L 125.832806 -48.525905 
L 125.911738 -48.702095 
L 125.998456 -48.878285 
L 126.092791 -49.054476 
L 126.192943 -49.230666 
L 126.295645 -49.406856 
L 126.396513 -49.583046 
L 126.490538 -49.759237 
L 126.572666 -49.935427 
L 126.638416 -50.111617 
L 126.684457 -50.287807 
L 126.709082 -50.463998 
L 126.712527 -50.640188 
L 126.6971 -50.816378 
L 126.667097 -50.992568 
L 126.628517 -51.168759 
L 126.588606 -51.344949 
L 126.555268 -51.521139 
L 126.536419 -51.697329 
L 126.539329 -51.87352 
L 126.570031 -52.04971 
L 126.632854 -52.2259 
L 126.730104 -52.40209 
L 126.861935 -52.578281 
L 127.026406 -52.754471 
L 127.219699 -52.930661 
L 127.436488 -53.106851 
L 127.670389 -53.283042 
L 127.91446 -53.459232 
L 128.161702 -53.635422 
L 128.405504 -53.811612 
L 128.640011 -53.987803 
L 128.86039 -54.163993 
L 129.062984 -54.340183 
L 129.245357 -54.516373 
L 129.406249 -54.692564 
L 129.545447 -54.868754 
L 129.663616 -55.044944 
L 130.552947 -55.044944 
L 130.552947 -55.044944 
L 130.671116 -54.868754 
L 130.810314 -54.692564 
L 130.971205 -54.516373 
L 131.153579 -54.340183 
L 131.356173 -54.163993 
L 131.576552 -53.987803 
L 131.811059 -53.811612 
L 132.05486 -53.635422 
L 132.302102 -53.459232 
L 132.546174 -53.283042 
L 132.780074 -53.106851 
L 132.996863 -52.930661 
L 133.190157 -52.754471 
L 133.354627 -52.578281 
L 133.486458 -52.40209 
L 133.583708 -52.2259 
L 133.646531 -52.04971 
L 133.677234 -51.87352 
L 133.680143 -51.697329 
L 133.661294 -51.521139 
L 133.627957 -51.344949 
L 133.588045 -51.168759 
L 133.549466 -50.992568 
L 133.519463 -50.816378 
L 133.504036 -50.640188 
L 133.507481 -50.463998 
L 133.532106 -50.287807 
L 133.578146 -50.111617 
L 133.643897 -49.935427 
L 133.726025 -49.759237 
L 133.820049 -49.583046 
L 133.920917 -49.406856 
L 134.023619 -49.230666 
L 134.123771 -49.054476 
L 134.218107 -48.878285 
L 134.304824 -48.702095 
L 134.383757 -48.525905 
L 134.45636 -48.349715 
L 134.525523 -48.173524 
L 134.59524 -47.997334 
L 134.670185 -47.821144 
L 134.755252 -47.644954 
L 134.855098 -47.468763 
L 134.973762 -47.292573 
L 135.114362 -47.116383 
L 135.278915 -46.940193 
L 135.468262 -46.764002 
L 135.682085 -46.587812 
L 135.919001 -46.411622 
L 136.176696 -46.235432 
L 136.452078 -46.059241 
L 136.741432 -45.883051 
L 137.040572 -45.706861 
L 137.344987 -45.530671 
L 137.650001 -45.35448 
L 137.950947 -45.17829 
L 138.243374 -45.0021 
L 138.523279 -44.82591 
L 138.787347 -44.649719 
L 139.033187 -44.473529 
L 139.259513 -44.297339 
L 139.466237 -44.121149 
L 139.654437 -43.944958 
L 139.826184 -43.768768 
L 139.984208 -43.592578 
L 140.131441 -43.416388 
L 140.270464 -43.240197 
L 140.402923 -43.064007 
L 140.529002 -42.887817 
L 140.647004 -42.711627 
L 140.753126 -42.535436 
L 140.841461 -42.359246 
L 140.904258 -42.183056 
L 140.932413 -42.006866 
L 140.916158 -41.830675 
L 140.84589 -41.654485 
L 140.713026 -41.478295 
L 140.510834 -41.302105 
L 140.235123 -41.125914 
L 139.884743 -40.949724 
L 139.461831 -40.773534 
L 138.971809 -40.597344 
L 138.423111 -40.421153 
L 137.826697 -40.244963 
L 137.195393 -40.068773 
L 136.543127 -39.892583 
L 135.884133 -39.716392 
L 135.23218 -39.540202 
L 134.599901 -39.364012 
L 133.998246 -39.187822 
L 133.4361 -39.011631 
L 132.920073 -38.835441 
L 132.454456 -38.659251 
L 132.041316 -38.48306 
L 131.680717 -38.30687 
L 131.371025 -38.13068 
L 131.109258 -37.95449 
L 130.891456 -37.778299 
L 130.713037 -37.602109 
z
" style="stroke: #595959; stroke-width: 0.15"/>
    </defs>
    <g clip-path="url(#p6c07d1ccd0)">
     <use xlink:href="#m0e8b1ea994" x="0" y="105.84" style="fill: #c0d2e7; stroke: #595959; stroke-width: 0.15"/>
    </g>
   </g>
   <g id="PolyCollection_6">
    <defs>
     <path id="m1df9479f60" d="M 157.628835 -39.595824 
L 156.708384 -39.595824 
L 156.583769 -39.650349 
L 156.434534 -39.704873 
L 156.258311 -39.759398 
L 156.053073 -39.813923 
L 155.817246 -39.868447 
L 155.549803 -39.922972 
L 155.250332 -39.977497 
L 154.919057 -40.032021 
L 154.556838 -40.086546 
L 154.165124 -40.141071 
L 153.745888 -40.195596 
L 153.30155 -40.25012 
L 152.834908 -40.304645 
L 152.34909 -40.35917 
L 151.847543 -40.413694 
L 151.334069 -40.468219 
L 150.812906 -40.522744 
L 150.288832 -40.577268 
L 149.767295 -40.631793 
L 149.254512 -40.686318 
L 148.757522 -40.740842 
L 148.284161 -40.795367 
L 147.842927 -40.849892 
L 147.442722 -40.904416 
L 147.092489 -40.958941 
L 146.800748 -41.013466 
L 146.575078 -41.067991 
L 146.421594 -41.122515 
L 146.344478 -41.17704 
L 146.345612 -41.231565 
L 146.424369 -41.286089 
L 146.577588 -41.340614 
L 146.79974 -41.395139 
L 147.083278 -41.449663 
L 147.419123 -41.504188 
L 147.797245 -41.558713 
L 148.207266 -41.613237 
L 148.639023 -41.667762 
L 149.08303 -41.722287 
L 149.530793 -41.776811 
L 149.974962 -41.831336 
L 150.409311 -41.885861 
L 150.82857 -41.940385 
L 151.228154 -41.99491 
L 151.603843 -42.049435 
L 151.951465 -42.10396 
L 152.26665 -42.158484 
L 152.544696 -42.213009 
L 152.780575 -42.267534 
L 152.969101 -42.322058 
L 153.105243 -42.376583 
L 153.184551 -42.431108 
L 153.203661 -42.485632 
L 153.160811 -42.540157 
L 153.056313 -42.594682 
L 152.89292 -42.649206 
L 152.676019 -42.703731 
L 152.413648 -42.758256 
L 152.116268 -42.81278 
L 151.796337 -42.867305 
L 151.467676 -42.92183 
L 151.144696 -42.976355 
L 150.841541 -43.030879 
L 150.571215 -43.085404 
L 150.344787 -43.139929 
L 150.170748 -43.194453 
L 150.054565 -43.248978 
L 149.998498 -43.303503 
L 150.001677 -43.358027 
L 150.060438 -43.412552 
L 150.168872 -43.467077 
L 150.319527 -43.521601 
L 150.504182 -43.576126 
L 150.714617 -43.630651 
L 150.943293 -43.685175 
L 151.183879 -43.7397 
L 151.431587 -43.794225 
L 151.683284 -43.84875 
L 151.937408 -43.903274 
L 152.1937 -43.957799 
L 152.452817 -44.012324 
L 152.715877 -44.066848 
L 152.984004 -44.121373 
L 153.257931 -44.175898 
L 153.537691 -44.230422 
L 153.822447 -44.284947 
L 154.110443 -44.339472 
L 154.399093 -44.393996 
L 154.685161 -44.448521 
L 154.965016 -44.503046 
L 155.234924 -44.55757 
L 155.491325 -44.612095 
L 155.731087 -44.66662 
L 155.9517 -44.721144 
L 156.151397 -44.775669 
L 156.329207 -44.830194 
L 156.484938 -44.884719 
L 156.619103 -44.939243 
L 156.732809 -44.993768 
L 157.60441 -44.993768 
L 157.60441 -44.993768 
L 157.718116 -44.939243 
L 157.852282 -44.884719 
L 158.008013 -44.830194 
L 158.185823 -44.775669 
L 158.38552 -44.721144 
L 158.606133 -44.66662 
L 158.845895 -44.612095 
L 159.102296 -44.55757 
L 159.372203 -44.503046 
L 159.652059 -44.448521 
L 159.938126 -44.393996 
L 160.226776 -44.339472 
L 160.514773 -44.284947 
L 160.799528 -44.230422 
L 161.079289 -44.175898 
L 161.353216 -44.121373 
L 161.621343 -44.066848 
L 161.884403 -44.012324 
L 162.143519 -43.957799 
L 162.399812 -43.903274 
L 162.653936 -43.84875 
L 162.905633 -43.794225 
L 163.153341 -43.7397 
L 163.393927 -43.685175 
L 163.622603 -43.630651 
L 163.833037 -43.576126 
L 164.017692 -43.521601 
L 164.168347 -43.467077 
L 164.276782 -43.412552 
L 164.335543 -43.358027 
L 164.338722 -43.303503 
L 164.282654 -43.248978 
L 164.166472 -43.194453 
L 163.992432 -43.139929 
L 163.766005 -43.085404 
L 163.495678 -43.030879 
L 163.192523 -42.976355 
L 162.869544 -42.92183 
L 162.540883 -42.867305 
L 162.220951 -42.81278 
L 161.923572 -42.758256 
L 161.6612 -42.703731 
L 161.4443 -42.649206 
L 161.280906 -42.594682 
L 161.176409 -42.540157 
L 161.133559 -42.485632 
L 161.152669 -42.431108 
L 161.231976 -42.376583 
L 161.368118 -42.322058 
L 161.556645 -42.267534 
L 161.792524 -42.213009 
L 162.070569 -42.158484 
L 162.385754 -42.10396 
L 162.733376 -42.049435 
L 163.109065 -41.99491 
L 163.50865 -41.940385 
L 163.927909 -41.885861 
L 164.362258 -41.831336 
L 164.806427 -41.776811 
L 165.25419 -41.722287 
L 165.698196 -41.667762 
L 166.129953 -41.613237 
L 166.539975 -41.558713 
L 166.918096 -41.504188 
L 167.253941 -41.449663 
L 167.537479 -41.395139 
L 167.759632 -41.340614 
L 167.912851 -41.286089 
L 167.991607 -41.231565 
L 167.992741 -41.17704 
L 167.915625 -41.122515 
L 167.762142 -41.067991 
L 167.536472 -41.013466 
L 167.244731 -40.958941 
L 166.894498 -40.904416 
L 166.494293 -40.849892 
L 166.053058 -40.795367 
L 165.579698 -40.740842 
L 165.082708 -40.686318 
L 164.569924 -40.631793 
L 164.048387 -40.577268 
L 163.524314 -40.522744 
L 163.00315 -40.468219 
L 162.489677 -40.413694 
L 161.98813 -40.35917 
L 161.502311 -40.304645 
L 161.03567 -40.25012 
L 160.591332 -40.195596 
L 160.172095 -40.141071 
L 159.780381 -40.086546 
L 159.418163 -40.032021 
L 159.086888 -39.977497 
L 158.787416 -39.922972 
L 158.519974 -39.868447 
L 158.284146 -39.813923 
L 158.078908 -39.759398 
L 157.902686 -39.704873 
L 157.753451 -39.650349 
L 157.628835 -39.595824 
z
" style="stroke: #595959; stroke-width: 0.15"/>
    </defs>
    <g clip-path="url(#p6c07d1ccd0)">
     <use xlink:href="#m1df9479f60" x="0" y="105.84" style="fill: #cbdaeb; stroke: #595959; stroke-width: 0.15"/>
    </g>
   </g>
   <g id="PolyCollection_7">
    <defs>
     <path id="m91d6664077" d="M 184.949652 -39.867435 
L 183.508225 -39.867435 
L 183.288528 -39.90672 
L 183.019923 -39.946006 
L 182.69737 -39.985292 
L 182.317036 -40.024578 
L 181.87681 -40.063863 
L 181.3768 -40.103149 
L 180.819748 -40.142435 
L 180.211302 -40.18172 
L 179.560112 -40.221006 
L 178.877676 -40.260292 
L 178.177954 -40.299577 
L 177.476736 -40.338863 
L 176.790798 -40.378149 
L 176.136941 -40.417435 
L 175.530967 -40.45672 
L 174.986729 -40.496006 
L 174.515326 -40.535292 
L 174.124567 -40.574577 
L 173.818728 -40.613863 
L 173.598658 -40.653149 
L 173.462189 -40.692435 
L 173.404807 -40.73172 
L 173.420475 -40.771006 
L 173.50251 -40.810292 
L 173.644384 -40.849577 
L 173.84035 -40.888863 
L 174.085825 -40.928149 
L 174.377486 -40.967434 
L 174.713095 -41.00672 
L 175.091099 -41.046006 
L 175.510087 -41.085292 
L 175.9682 -41.124577 
L 176.462592 -41.163863 
L 176.989032 -41.203149 
L 177.541703 -41.242434 
L 178.113229 -41.28172 
L 178.694916 -41.321006 
L 179.277185 -41.360292 
L 179.850117 -41.399577 
L 180.404052 -41.438863 
L 180.93017 -41.478149 
L 181.420979 -41.517434 
L 181.870677 -41.55672 
L 182.275354 -41.596006 
L 182.633035 -41.635291 
L 182.943569 -41.674577 
L 183.208409 -41.713863 
L 183.430307 -41.753149 
L 183.612962 -41.792434 
L 183.760669 -41.83172 
L 183.87799 -41.871006 
L 183.969467 -41.910291 
L 184.039401 -41.949577 
L 184.091676 -41.988863 
L 184.129662 -42.028148 
L 184.156144 -42.067434 
L 184.173309 -42.10672 
L 184.182753 -42.146006 
L 184.185506 -42.185291 
L 184.182069 -42.224577 
L 184.172465 -42.263863 
L 184.156287 -42.303148 
L 184.132756 -42.342434 
L 184.100796 -42.38172 
L 184.059114 -42.421006 
L 184.006309 -42.460291 
L 183.940995 -42.499577 
L 183.861947 -42.538863 
L 183.768265 -42.578148 
L 183.659546 -42.617434 
L 183.536053 -42.65672 
L 183.398856 -42.696005 
L 183.249942 -42.735291 
L 183.092263 -42.774577 
L 182.929712 -42.813863 
L 182.76701 -42.853148 
L 182.609519 -42.892434 
L 182.462964 -42.93172 
L 182.3331 -42.971005 
L 182.225343 -43.010291 
L 182.144398 -43.049577 
L 182.093916 -43.088863 
L 182.076225 -43.128148 
L 182.092149 -43.167434 
L 182.140946 -43.20672 
L 182.220364 -43.246005 
L 182.326816 -43.285291 
L 182.455644 -43.324577 
L 182.601461 -43.363862 
L 182.758521 -43.403148 
L 182.921088 -43.442434 
L 183.083775 -43.48172 
L 183.241822 -43.521005 
L 183.391292 -43.560291 
L 183.529185 -43.599577 
L 183.65347 -43.638862 
L 183.763042 -43.678148 
L 183.857618 -43.717434 
L 183.937599 -43.75672 
L 184.520278 -43.75672 
L 184.520278 -43.75672 
L 184.600259 -43.717434 
L 184.694835 -43.678148 
L 184.804407 -43.638862 
L 184.928692 -43.599577 
L 185.066585 -43.560291 
L 185.216055 -43.521005 
L 185.374102 -43.48172 
L 185.536789 -43.442434 
L 185.699356 -43.403148 
L 185.856416 -43.363862 
L 186.002233 -43.324577 
L 186.131061 -43.285291 
L 186.237513 -43.246005 
L 186.316931 -43.20672 
L 186.365728 -43.167434 
L 186.381652 -43.128148 
L 186.363961 -43.088863 
L 186.313479 -43.049577 
L 186.232534 -43.010291 
L 186.124777 -42.971005 
L 185.994913 -42.93172 
L 185.848358 -42.892434 
L 185.690867 -42.853148 
L 185.528165 -42.813863 
L 185.365614 -42.774577 
L 185.207935 -42.735291 
L 185.059021 -42.696005 
L 184.921824 -42.65672 
L 184.798331 -42.617434 
L 184.689612 -42.578148 
L 184.59593 -42.538863 
L 184.516882 -42.499577 
L 184.451567 -42.460291 
L 184.398763 -42.421006 
L 184.357081 -42.38172 
L 184.325121 -42.342434 
L 184.30159 -42.303148 
L 184.285411 -42.263863 
L 184.275808 -42.224577 
L 184.272371 -42.185291 
L 184.275124 -42.146006 
L 184.284568 -42.10672 
L 184.301733 -42.067434 
L 184.328215 -42.028148 
L 184.3662 -41.988863 
L 184.418476 -41.949577 
L 184.48841 -41.910291 
L 184.579887 -41.871006 
L 184.697208 -41.83172 
L 184.844915 -41.792434 
L 185.02757 -41.753149 
L 185.249468 -41.713863 
L 185.514308 -41.674577 
L 185.824842 -41.635291 
L 186.182523 -41.596006 
L 186.5872 -41.55672 
L 187.036898 -41.517434 
L 187.527707 -41.478149 
L 188.053825 -41.438863 
L 188.60776 -41.399577 
L 189.180691 -41.360292 
L 189.762961 -41.321006 
L 190.344648 -41.28172 
L 190.916174 -41.242434 
L 191.468845 -41.203149 
L 191.995285 -41.163863 
L 192.489677 -41.124577 
L 192.94779 -41.085292 
L 193.366778 -41.046006 
L 193.744782 -41.00672 
L 194.080391 -40.967434 
L 194.372052 -40.928149 
L 194.617527 -40.888863 
L 194.813493 -40.849577 
L 194.955367 -40.810292 
L 195.037402 -40.771006 
L 195.05307 -40.73172 
L 194.995687 -40.692435 
L 194.859219 -40.653149 
L 194.639149 -40.613863 
L 194.33331 -40.574577 
L 193.942551 -40.535292 
L 193.471148 -40.496006 
L 192.92691 -40.45672 
L 192.320936 -40.417435 
L 191.667079 -40.378149 
L 190.981141 -40.338863 
L 190.279923 -40.299577 
L 189.580201 -40.260292 
L 188.897765 -40.221006 
L 188.246575 -40.18172 
L 187.638129 -40.142435 
L 187.081077 -40.103149 
L 186.581067 -40.063863 
L 186.140841 -40.024578 
L 185.760507 -39.985292 
L 185.437954 -39.946006 
L 185.169349 -39.90672 
L 184.949652 -39.867435 
z
" style="stroke: #595959; stroke-width: 0.15"/>
    </defs>
    <g clip-path="url(#p6c07d1ccd0)">
     <use xlink:href="#m91d6664077" x="0" y="105.84" style="fill: #cc5eca; stroke: #595959; stroke-width: 0.15"/>
    </g>
   </g>
   <g id="PolyCollection_8">
    <defs>
     <path id="m7a789e54cc" d="M 212.298631 -33.253763 
L 210.279903 -33.253763 
L 210.01363 -33.664031 
L 209.696949 -34.0743 
L 209.326055 -34.484568 
L 208.898416 -34.894837 
L 208.4132 -35.305105 
L 207.871665 -35.715374 
L 207.277502 -36.125642 
L 206.637076 -36.535911 
L 205.959535 -36.946179 
L 205.256759 -37.356448 
L 204.54313 -37.766716 
L 203.835113 -38.176985 
L 203.150661 -38.587253 
L 202.508472 -38.997522 
L 201.927133 -39.40779 
L 201.42422 -39.818059 
L 201.015396 -40.228327 
L 200.713588 -40.638596 
L 200.528305 -41.048864 
L 200.465136 -41.459133 
L 200.52547 -41.869401 
L 200.706469 -42.279669 
L 201.001273 -42.689938 
L 201.399426 -43.100206 
L 201.887489 -43.510475 
L 202.449777 -43.920743 
L 203.069183 -44.331012 
L 203.728007 -44.74128 
L 204.408745 -45.151549 
L 205.094801 -45.561817 
L 205.77106 -45.972086 
L 206.424326 -46.382354 
L 207.0436 -46.792623 
L 207.6202 -47.202891 
L 208.147753 -47.61316 
L 208.62206 -48.023428 
L 209.040879 -48.433697 
L 209.403645 -48.843965 
L 209.711163 -49.254234 
L 209.965295 -49.664502 
L 210.168671 -50.074771 
L 210.324436 -50.485039 
L 210.436043 -50.895308 
L 210.507108 -51.305576 
L 210.541314 -51.715845 
L 210.54237 -52.126113 
L 210.514002 -52.536382 
L 210.459985 -52.94665 
L 210.384176 -53.356919 
L 210.290551 -53.767187 
L 210.183226 -54.177456 
L 210.066448 -54.587724 
L 209.944554 -54.997993 
L 209.821885 -55.408261 
L 209.702669 -55.81853 
L 209.590869 -56.228798 
L 209.490011 -56.639067 
L 209.403015 -57.049335 
L 209.332028 -57.459604 
L 209.278302 -57.869872 
L 209.242109 -58.280141 
L 209.222723 -58.690409 
L 209.21847 -59.100677 
L 209.226842 -59.510946 
L 209.244685 -59.921214 
L 209.268437 -60.331483 
L 209.294397 -60.741751 
L 209.319018 -61.15202 
L 209.339183 -61.562288 
L 209.352456 -61.972557 
L 209.357278 -62.382825 
L 209.35309 -62.793094 
L 209.34038 -63.203362 
L 209.320644 -63.613631 
L 209.296265 -64.023899 
L 209.270326 -64.434168 
L 209.246363 -64.844436 
L 209.228088 -65.254705 
L 209.219107 -65.664973 
L 209.222643 -66.075242 
L 209.241302 -66.48551 
L 209.276894 -66.895779 
L 209.330317 -67.306047 
L 209.401511 -67.716316 
L 209.489495 -68.126584 
L 209.592457 -68.536853 
L 209.707903 -68.947121 
L 209.832847 -69.35739 
L 209.964014 -69.767658 
L 210.098047 -70.177927 
L 210.231702 -70.588195 
L 210.362014 -70.998464 
L 210.486426 -71.408732 
L 210.602872 -71.819001 
L 210.709823 -72.229269 
L 210.806292 -72.639538 
L 210.891799 -73.049806 
L 210.966318 -73.460075 
L 211.0302 -73.870343 
L 211.548334 -73.870343 
L 211.548334 -73.870343 
L 211.612216 -73.460075 
L 211.686735 -73.049806 
L 211.772243 -72.639538 
L 211.868711 -72.229269 
L 211.975663 -71.819001 
L 212.092108 -71.408732 
L 212.21652 -70.998464 
L 212.346832 -70.588195 
L 212.480488 -70.177927 
L 212.61452 -69.767658 
L 212.745687 -69.35739 
L 212.870631 -68.947121 
L 212.986077 -68.536853 
L 213.089039 -68.126584 
L 213.177023 -67.716316 
L 213.248218 -67.306047 
L 213.30164 -66.895779 
L 213.337232 -66.48551 
L 213.355892 -66.075242 
L 213.359427 -65.664973 
L 213.350446 -65.254705 
L 213.332171 -64.844436 
L 213.308208 -64.434168 
L 213.282269 -64.023899 
L 213.257891 -63.613631 
L 213.238154 -63.203362 
L 213.225444 -62.793094 
L 213.221256 -62.382825 
L 213.226078 -61.972557 
L 213.239351 -61.562288 
L 213.259516 -61.15202 
L 213.284137 -60.741751 
L 213.310097 -60.331483 
L 213.333849 -59.921214 
L 213.351693 -59.510946 
L 213.360064 -59.100677 
L 213.355811 -58.690409 
L 213.336426 -58.280141 
L 213.300233 -57.869872 
L 213.246506 -57.459604 
L 213.175519 -57.049335 
L 213.088523 -56.639067 
L 212.987665 -56.228798 
L 212.875865 -55.81853 
L 212.756649 -55.408261 
L 212.63398 -54.997993 
L 212.512086 -54.587724 
L 212.395308 -54.177456 
L 212.287983 -53.767187 
L 212.194359 -53.356919 
L 212.118549 -52.94665 
L 212.064532 -52.536382 
L 212.036165 -52.126113 
L 212.03722 -51.715845 
L 212.071426 -51.305576 
L 212.142491 -50.895308 
L 212.254098 -50.485039 
L 212.409863 -50.074771 
L 212.613239 -49.664502 
L 212.867371 -49.254234 
L 213.174889 -48.843965 
L 213.537655 -48.433697 
L 213.956474 -48.023428 
L 214.430781 -47.61316 
L 214.958334 -47.202891 
L 215.534935 -46.792623 
L 216.154208 -46.382354 
L 216.807474 -45.972086 
L 217.483733 -45.561817 
L 218.169789 -45.151549 
L 218.850527 -44.74128 
L 219.509351 -44.331012 
L 220.128757 -43.920743 
L 220.691046 -43.510475 
L 221.179108 -43.100206 
L 221.577261 -42.689938 
L 221.872065 -42.279669 
L 222.053064 -41.869401 
L 222.113399 -41.459133 
L 222.050229 -41.048864 
L 221.864946 -40.638596 
L 221.563139 -40.228327 
L 221.154314 -39.818059 
L 220.651401 -39.40779 
L 220.070062 -38.997522 
L 219.427873 -38.587253 
L 218.743421 -38.176985 
L 218.035404 -37.766716 
L 217.321775 -37.356448 
L 216.618999 -36.946179 
L 215.941458 -36.535911 
L 215.301032 -36.125642 
L 214.70687 -35.715374 
L 214.165334 -35.305105 
L 213.680118 -34.894837 
L 213.252479 -34.484568 
L 212.881585 -34.0743 
L 212.564904 -33.664031 
L 212.298631 -33.253763 
z
" style="stroke: #595959; stroke-width: 0.15"/>
    </defs>
    <g clip-path="url(#p6c07d1ccd0)">
     <use xlink:href="#m7a789e54cc" x="0" y="105.84" style="fill: #d275d2; stroke: #595959; stroke-width: 0.15"/>
    </g>
   </g>
   <g id="PolyCollection_9">
    <defs>
     <path id="mc2be4e5481" d="M 238.902067 -37.534697 
L 237.797124 -37.534697 
L 237.623559 -37.723415 
L 237.409455 -37.912132 
L 237.149942 -38.100849 
L 236.840911 -38.289567 
L 236.479442 -38.478284 
L 236.064221 -38.667002 
L 235.595914 -38.855719 
L 235.077452 -39.044436 
L 234.514179 -39.233154 
L 233.913828 -39.421871 
L 233.286309 -39.610588 
L 232.643295 -39.799306 
L 231.997642 -39.988023 
L 231.362674 -40.176741 
L 230.751418 -40.365458 
L 230.175834 -40.554175 
L 229.64616 -40.742893 
L 229.170412 -40.93161 
L 228.754108 -41.120327 
L 228.400241 -41.309045 
L 228.109493 -41.497762 
L 227.880647 -41.68648 
L 227.711144 -41.875197 
L 227.597691 -42.063914 
L 227.536839 -42.252632 
L 227.525464 -42.441349 
L 227.561075 -42.630066 
L 227.641937 -42.818784 
L 227.767012 -43.007501 
L 227.93574 -43.196219 
L 228.147729 -43.384936 
L 228.402401 -43.573653 
L 228.698674 -43.762371 
L 229.034717 -43.951088 
L 229.407823 -44.139805 
L 229.81439 -44.328523 
L 230.250022 -44.51724 
L 230.709705 -44.705958 
L 231.188014 -44.894675 
L 231.679344 -45.083392 
L 232.178094 -45.27211 
L 232.678821 -45.460827 
L 233.176335 -45.649544 
L 233.665754 -45.838262 
L 234.14253 -46.026979 
L 234.602463 -46.215697 
L 235.041724 -46.404414 
L 235.45689 -46.593131 
L 235.845004 -46.781849 
L 236.203643 -46.970566 
L 236.530992 -47.159283 
L 236.825899 -47.348001 
L 237.087917 -47.536718 
L 237.317287 -47.725436 
L 237.514898 -47.914153 
L 237.682183 -48.10287 
L 237.820997 -48.291588 
L 237.93345 -48.480305 
L 238.021739 -48.669022 
L 238.087974 -48.85774 
L 238.134031 -49.046457 
L 238.161418 -49.235175 
L 238.171196 -49.423892 
L 238.16394 -49.612609 
L 238.139752 -49.801327 
L 238.098329 -49.990044 
L 238.039089 -50.178761 
L 237.961338 -50.367479 
L 237.864484 -50.556196 
L 237.748268 -50.744914 
L 237.613008 -50.933631 
L 237.459831 -51.122348 
L 237.290852 -51.311066 
L 237.1093 -51.499783 
L 236.919547 -51.6885 
L 236.72703 -51.877218 
L 236.538068 -52.065935 
L 236.359556 -52.254653 
L 236.198581 -52.44337 
L 236.061968 -52.632087 
L 235.955811 -52.820805 
L 235.885024 -53.009522 
L 235.852968 -53.198239 
L 235.861188 -53.386957 
L 235.909286 -53.575674 
L 235.994961 -53.764392 
L 236.114184 -53.953109 
L 236.261518 -54.141826 
L 236.430524 -54.330544 
L 236.614231 -54.519261 
L 236.805601 -54.707978 
L 236.997971 -54.896696 
L 237.185412 -55.085413 
L 237.362993 -55.274131 
L 237.52694 -55.462848 
L 237.67468 -55.651565 
L 237.804798 -55.840283 
L 237.916905 -56.029 
L 238.011473 -56.217717 
L 238.687718 -56.217717 
L 238.687718 -56.217717 
L 238.782286 -56.029 
L 238.894394 -55.840283 
L 239.024511 -55.651565 
L 239.172251 -55.462848 
L 239.336198 -55.274131 
L 239.513779 -55.085413 
L 239.70122 -54.896696 
L 239.89359 -54.707978 
L 240.084961 -54.519261 
L 240.268667 -54.330544 
L 240.437674 -54.141826 
L 240.585007 -53.953109 
L 240.704231 -53.764392 
L 240.789905 -53.575674 
L 240.838004 -53.386957 
L 240.846223 -53.198239 
L 240.814168 -53.009522 
L 240.743381 -52.820805 
L 240.637224 -52.632087 
L 240.500611 -52.44337 
L 240.339635 -52.254653 
L 240.161123 -52.065935 
L 239.972161 -51.877218 
L 239.779645 -51.6885 
L 239.589891 -51.499783 
L 239.408339 -51.311066 
L 239.23936 -51.122348 
L 239.086183 -50.933631 
L 238.950924 -50.744914 
L 238.834707 -50.556196 
L 238.737853 -50.367479 
L 238.660103 -50.178761 
L 238.600863 -49.990044 
L 238.55944 -49.801327 
L 238.535251 -49.612609 
L 238.527995 -49.423892 
L 238.537773 -49.235175 
L 238.56516 -49.046457 
L 238.611217 -48.85774 
L 238.677453 -48.669022 
L 238.765741 -48.480305 
L 238.878194 -48.291588 
L 239.017008 -48.10287 
L 239.184294 -47.914153 
L 239.381904 -47.725436 
L 239.611275 -47.536718 
L 239.873292 -47.348001 
L 240.1682 -47.159283 
L 240.495548 -46.970566 
L 240.854187 -46.781849 
L 241.242301 -46.593131 
L 241.657467 -46.404414 
L 242.096728 -46.215697 
L 242.556661 -46.026979 
L 243.033437 -45.838262 
L 243.522857 -45.649544 
L 244.020371 -45.460827 
L 244.521098 -45.27211 
L 245.019848 -45.083392 
L 245.511177 -44.894675 
L 245.989487 -44.705958 
L 246.449169 -44.51724 
L 246.884802 -44.328523 
L 247.291369 -44.139805 
L 247.664474 -43.951088 
L 248.000518 -43.762371 
L 248.296791 -43.573653 
L 248.551462 -43.384936 
L 248.763451 -43.196219 
L 248.93218 -43.007501 
L 249.057254 -42.818784 
L 249.138116 -42.630066 
L 249.173727 -42.441349 
L 249.162352 -42.252632 
L 249.101501 -42.063914 
L 248.988047 -41.875197 
L 248.818544 -41.68648 
L 248.589698 -41.497762 
L 248.29895 -41.309045 
L 247.945084 -41.120327 
L 247.52878 -40.93161 
L 247.053031 -40.742893 
L 246.523358 -40.554175 
L 245.947774 -40.365458 
L 245.336517 -40.176741 
L 244.70155 -39.988023 
L 244.055896 -39.799306 
L 243.412882 -39.610588 
L 242.785363 -39.421871 
L 242.185013 -39.233154 
L 241.621739 -39.044436 
L 241.103277 -38.855719 
L 240.63497 -38.667002 
L 240.219749 -38.478284 
L 239.85828 -38.289567 
L 239.549249 -38.100849 
L 239.289736 -37.912132 
L 239.075633 -37.723415 
L 238.902067 -37.534697 
z
" style="stroke: #595959; stroke-width: 0.15"/>
    </defs>
    <g clip-path="url(#p6c07d1ccd0)">
     <use xlink:href="#mc2be4e5481" x="0" y="105.84" style="fill: #da8cd9; stroke: #595959; stroke-width: 0.15"/>
    </g>
   </g>
   <g id="line2d_6">
    <path d="M 21.866967 65.345487 
L 21.866967 65.307555 
" clip-path="url(#p6c07d1ccd0)" style="fill: none; stroke: #8c8c8c; stroke-width: 0.75; stroke-linecap: round"/>
   </g>
   <g id="line2d_7">
    <path d="M 21.866967 65.33897 
L 21.866967 65.311158 
" clip-path="url(#p6c07d1ccd0)" style="fill: none; stroke: #8c8c8c; stroke-width: 4; stroke-linecap: round"/>
   </g>
   <g id="line2d_8">
    <path d="M 21.866967 65.322312 
" clip-path="url(#p6c07d1ccd0)" style="fill: none; stroke: #595959; stroke-width: 1.2; stroke-linecap: round"/>
    <defs>
     <path id="maf47723221" d="M 0 0.833333 
C 0.221003 0.833333 0.432983 0.745528 0.589256 0.589256 
C 0.745528 0.432983 0.833333 0.221003 0.833333 0 
C 0.833333 -0.221003 0.745528 -0.432983 0.589256 -0.589256 
C 0.432983 -0.745528 0.221003 -0.833333 0 -0.833333 
C -0.221003 -0.833333 -0.432983 -0.745528 -0.589256 -0.589256 
C -0.745528 -0.432983 -0.833333 -0.221003 -0.833333 0 
C -0.833333 0.221003 -0.745528 0.432983 -0.589256 0.589256 
C -0.432983 0.745528 -0.221003 0.833333 0 0.833333 
z
" style="stroke: #ffffff; stroke-width: 0.8"/>
    </defs>
    <g clip-path="url(#p6c07d1ccd0)">
     <use xlink:href="#maf47723221" x="21.866967" y="65.322312" style="fill: #ffffff; stroke: #ffffff; stroke-width: 0.8"/>
    </g>
   </g>
   <g id="line2d_9">
    <path d="M 48.927295 65.345487 
L 48.927295 65.336548 
" clip-path="url(#p6c07d1ccd0)" style="fill: none; stroke: #8c8c8c; stroke-width: 0.75; stroke-linecap: round"/>
   </g>
   <g id="line2d_10">
    <path d="M 48.927295 65.345487 
L 48.927295 65.341026 
" clip-path="url(#p6c07d1ccd0)" style="fill: none; stroke: #8c8c8c; stroke-width: 4; stroke-linecap: round"/>
   </g>
   <g id="line2d_11">
    <path d="M 48.927295 65.343476 
" clip-path="url(#p6c07d1ccd0)" style="fill: none; stroke: #595959; stroke-width: 1.2; stroke-linecap: round"/>
    <g clip-path="url(#p6c07d1ccd0)">
     <use xlink:href="#maf47723221" x="48.927295" y="65.343476" style="fill: #ffffff; stroke: #ffffff; stroke-width: 0.8"/>
    </g>
   </g>
   <g id="line2d_12">
    <path d="M 75.987624 65.345487 
L 75.987624 65.341017 
" clip-path="url(#p6c07d1ccd0)" style="fill: none; stroke: #8c8c8c; stroke-width: 0.75; stroke-linecap: round"/>
   </g>
   <g id="line2d_13">
    <path d="M 75.987624 65.344704 
L 75.987624 65.342589 
" clip-path="url(#p6c07d1ccd0)" style="fill: none; stroke: #8c8c8c; stroke-width: 4; stroke-linecap: round"/>
   </g>
   <g id="line2d_14">
    <path d="M 75.987624 65.343831 
" clip-path="url(#p6c07d1ccd0)" style="fill: none; stroke: #595959; stroke-width: 1.2; stroke-linecap: round"/>
    <g clip-path="url(#p6c07d1ccd0)">
     <use xlink:href="#maf47723221" x="75.987624" y="65.343831" style="fill: #ffffff; stroke: #ffffff; stroke-width: 0.8"/>
    </g>
   </g>
   <g id="line2d_15">
    <path d="M 103.047953 64.924457 
L 103.047953 55.864717 
" clip-path="url(#p6c07d1ccd0)" style="fill: none; stroke: #8c8c8c; stroke-width: 0.75; stroke-linecap: round"/>
   </g>
   <g id="line2d_16">
    <path d="M 103.047953 61.225366 
L 103.047953 56.488342 
" clip-path="url(#p6c07d1ccd0)" style="fill: none; stroke: #8c8c8c; stroke-width: 4; stroke-linecap: round"/>
   </g>
   <g id="line2d_17">
    <path d="M 103.047953 59.69869 
" clip-path="url(#p6c07d1ccd0)" style="fill: none; stroke: #595959; stroke-width: 1.2; stroke-linecap: round"/>
    <g clip-path="url(#p6c07d1ccd0)">
     <use xlink:href="#maf47723221" x="103.047953" y="59.69869" style="fill: #ffffff; stroke: #ffffff; stroke-width: 0.8"/>
    </g>
   </g>
   <g id="line2d_18">
    <path d="M 130.108281 65.335442 
L 130.108281 53.697505 
" clip-path="url(#p6c07d1ccd0)" style="fill: none; stroke: #8c8c8c; stroke-width: 0.75; stroke-linecap: round"/>
   </g>
   <g id="line2d_19">
    <path d="M 130.108281 64.11842 
L 130.108281 59.048533 
" clip-path="url(#p6c07d1ccd0)" style="fill: none; stroke: #8c8c8c; stroke-width: 4; stroke-linecap: round"/>
   </g>
   <g id="line2d_20">
    <path d="M 130.108281 61.843771 
" clip-path="url(#p6c07d1ccd0)" style="fill: none; stroke: #595959; stroke-width: 1.2; stroke-linecap: round"/>
    <g clip-path="url(#p6c07d1ccd0)">
     <use xlink:href="#maf47723221" x="130.108281" y="61.843771" style="fill: #ffffff; stroke: #ffffff; stroke-width: 0.8"/>
    </g>
   </g>
   <g id="line2d_21">
    <path d="M 157.16861 65.321286 
L 157.16861 61.769122 
" clip-path="url(#p6c07d1ccd0)" style="fill: none; stroke: #8c8c8c; stroke-width: 0.75; stroke-linecap: round"/>
   </g>
   <g id="line2d_22">
    <path d="M 157.16861 64.65227 
L 157.16861 62.614246 
" clip-path="url(#p6c07d1ccd0)" style="fill: none; stroke: #8c8c8c; stroke-width: 4; stroke-linecap: round"/>
   </g>
   <g id="line2d_23">
    <path d="M 157.16861 64.128227 
" clip-path="url(#p6c07d1ccd0)" style="fill: none; stroke: #595959; stroke-width: 1.2; stroke-linecap: round"/>
    <g clip-path="url(#p6c07d1ccd0)">
     <use xlink:href="#maf47723221" x="157.16861" y="64.128227" style="fill: #ffffff; stroke: #ffffff; stroke-width: 0.8"/>
    </g>
   </g>
   <g id="line2d_24">
    <path d="M 184.228938 65.345031 
L 184.228938 64.672788 
" clip-path="url(#p6c07d1ccd0)" style="fill: none; stroke: #8c8c8c; stroke-width: 0.75; stroke-linecap: round"/>
   </g>
   <g id="line2d_25">
    <path d="M 184.228938 65.250343 
L 184.228938 64.702921 
" clip-path="url(#p6c07d1ccd0)" style="fill: none; stroke: #8c8c8c; stroke-width: 4; stroke-linecap: round"/>
   </g>
   <g id="line2d_26">
    <path d="M 184.228938 65.004067 
" clip-path="url(#p6c07d1ccd0)" style="fill: none; stroke: #595959; stroke-width: 1.2; stroke-linecap: round"/>
    <g clip-path="url(#p6c07d1ccd0)">
     <use xlink:href="#maf47723221" x="184.228938" y="65.004067" style="fill: #ffffff; stroke: #ffffff; stroke-width: 0.8"/>
    </g>
   </g>
   <g id="line2d_27">
    <path d="M 211.289267 65.345487 
L 211.289267 58.167365 
" clip-path="url(#p6c07d1ccd0)" style="fill: none; stroke: #8c8c8c; stroke-width: 0.75; stroke-linecap: round"/>
   </g>
   <g id="line2d_28">
    <path d="M 211.289267 65.16014 
L 211.289267 58.167365 
" clip-path="url(#p6c07d1ccd0)" style="fill: none; stroke: #8c8c8c; stroke-width: 4; stroke-linecap: round"/>
   </g>
   <g id="line2d_29">
    <path d="M 211.289267 64.146381 
" clip-path="url(#p6c07d1ccd0)" style="fill: none; stroke: #595959; stroke-width: 1.2; stroke-linecap: round"/>
    <g clip-path="url(#p6c07d1ccd0)">
     <use xlink:href="#maf47723221" x="211.289267" y="64.146381" style="fill: #ffffff; stroke: #ffffff; stroke-width: 0.8"/>
    </g>
   </g>
   <g id="line2d_30">
    <path d="M 238.349596 65.341829 
L 238.349596 60.261722 
" clip-path="url(#p6c07d1ccd0)" style="fill: none; stroke: #8c8c8c; stroke-width: 0.75; stroke-linecap: round"/>
   </g>
   <g id="line2d_31">
    <path d="M 238.349596 64.451078 
L 238.349596 61.462009 
" clip-path="url(#p6c07d1ccd0)" style="fill: none; stroke: #8c8c8c; stroke-width: 4; stroke-linecap: round"/>
   </g>
   <g id="line2d_32">
    <path d="M 238.349596 62.67463 
" clip-path="url(#p6c07d1ccd0)" style="fill: none; stroke: #595959; stroke-width: 1.2; stroke-linecap: round"/>
    <g clip-path="url(#p6c07d1ccd0)">
     <use xlink:href="#maf47723221" x="238.349596" y="62.67463" style="fill: #ffffff; stroke: #ffffff; stroke-width: 0.8"/>
    </g>
   </g>
   <g id="patch_3">
    <path d="M 8.336803 74.229526 
L 8.336803 4.076256 
" style="fill: none; stroke: #777777; stroke-width: 0.5; stroke-linejoin: miter; stroke-linecap: square"/>
   </g>
   <g id="patch_4">
    <path d="M 8.336803 76.729526 
L 251.87976 76.729526 
" style="fill: none; stroke: #777777; stroke-width: 0.5; stroke-linejoin: miter; stroke-linecap: square"/>
   </g>
   <g id="PathCollection_1">
    <defs>
     <path id="m6d27545dec" d="M 0 0.375 
C 0.099451 0.375 0.194842 0.335488 0.265165 0.265165 
C 0.335488 0.194842 0.375 0.099451 0.375 0 
C 0.375 -0.099451 0.335488 -0.194842 0.265165 -0.265165 
C 0.194842 -0.335488 0.099451 -0.375 0 -0.375 
C -0.099451 -0.375 -0.194842 -0.335488 -0.265165 -0.265165 
C -0.335488 -0.194842 -0.375 -0.099451 -0.375 0 
C -0.375 0.099451 -0.335488 0.194842 -0.265165 0.265165 
C -0.194842 0.335488 -0.099451 0.375 0 0.375 
z
"/>
    </defs>
    <g clip-path="url(#p6c07d1ccd0)">
     <use xlink:href="#m6d27545dec" x="19.863462" y="65.345487" style="fill: #642222"/>
     <use xlink:href="#m6d27545dec" x="23.000903" y="65.341492" style="fill: #642222"/>
     <use xlink:href="#m6d27545dec" x="23.148575" y="65.321062" style="fill: #642222"/>
     <use xlink:href="#m6d27545dec" x="19.308166" y="65.323562" style="fill: #642222"/>
     <use xlink:href="#m6d27545dec" x="21.302397" y="65.338129" style="fill: #642222"/>
     <use xlink:href="#m6d27545dec" x="21.976243" y="65.307555" style="fill: #642222"/>
     <use xlink:href="#m6d27545dec" x="23.177628" y="65.312359" style="fill: #642222"/>
     <use xlink:href="#m6d27545dec" x="21.669436" y="64.99541" style="fill: #642222"/>
    </g>
   </g>
   <g id="PathCollection_2">
    <g clip-path="url(#p6c07d1ccd0)">
     <use xlink:href="#m6d27545dec" x="51.602706" y="65.345487" style="fill: #642222"/>
     <use xlink:href="#m6d27545dec" x="50.542825" y="65.345487" style="fill: #642222"/>
     <use xlink:href="#m6d27545dec" x="50.550131" y="65.343113" style="fill: #642222"/>
     <use xlink:href="#m6d27545dec" x="47.043162" y="65.345487" style="fill: #642222"/>
     <use xlink:href="#m6d27545dec" x="51.399412" y="65.341073" style="fill: #642222"/>
     <use xlink:href="#m6d27545dec" x="49.793813" y="65.343839" style="fill: #642222"/>
     <use xlink:href="#m6d27545dec" x="51.326439" y="65.340886" style="fill: #642222"/>
     <use xlink:href="#m6d27545dec" x="49.332408" y="65.336548" style="fill: #642222"/>
    </g>
   </g>
   <g id="PathCollection_3">
    <g clip-path="url(#p6c07d1ccd0)">
     <use xlink:href="#m6d27545dec" x="75.723541" y="65.345487" style="fill: #642222"/>
     <use xlink:href="#m6d27545dec" x="74.828209" y="65.344688" style="fill: #642222"/>
     <use xlink:href="#m6d27545dec" x="78.501587" y="65.343113" style="fill: #642222"/>
     <use xlink:href="#m6d27545dec" x="73.859615" y="65.344755" style="fill: #642222"/>
     <use xlink:href="#m6d27545dec" x="77.613432" y="65.344017" style="fill: #642222"/>
     <use xlink:href="#m6d27545dec" x="74.575233" y="65.335592" style="fill: #642222"/>
     <use xlink:href="#m6d27545dec" x="77.155761" y="65.343646" style="fill: #642222"/>
     <use xlink:href="#m6d27545dec" x="78.260379" y="65.341017" style="fill: #642222"/>
    </g>
   </g>
   <g id="PathCollection_4">
    <g clip-path="url(#p6c07d1ccd0)">
     <use xlink:href="#m6d27545dec" x="103.301596" y="64.924457" style="fill: #642222"/>
     <use xlink:href="#m6d27545dec" x="103.007851" y="60.805406" style="fill: #642222"/>
     <use xlink:href="#m6d27545dec" x="103.242577" y="55.864717" style="fill: #642222"/>
     <use xlink:href="#m6d27545dec" x="104.052538" y="59.978701" style="fill: #642222"/>
     <use xlink:href="#m6d27545dec" x="103.666041" y="59.418678" style="fill: #642222"/>
     <use xlink:href="#m6d27545dec" x="102.884174" y="62.485243" style="fill: #642222"/>
     <use xlink:href="#m6d27545dec" x="105.431868" y="56.696217" style="fill: #642222"/>
     <use xlink:href="#m6d27545dec" x="104.743062" y="43.716346" style="fill: #642222"/>
    </g>
   </g>
   <g id="PathCollection_5">
    <g clip-path="url(#p6c07d1ccd0)">
     <use xlink:href="#m6d27545dec" x="127.925375" y="65.335442" style="fill: #642222"/>
     <use xlink:href="#m6d27545dec" x="130.530894" y="64.474039" style="fill: #642222"/>
     <use xlink:href="#m6d27545dec" x="132.528182" y="61.576173" style="fill: #642222"/>
     <use xlink:href="#m6d27545dec" x="130.970789" y="62.111369" style="fill: #642222"/>
     <use xlink:href="#m6d27545dec" x="129.277579" y="53.697505" style="fill: #642222"/>
     <use xlink:href="#m6d27545dec" x="132.227696" y="63.99988" style="fill: #642222"/>
     <use xlink:href="#m6d27545dec" x="131.106636" y="57.056866" style="fill: #642222"/>
     <use xlink:href="#m6d27545dec" x="131.813017" y="59.712421" style="fill: #642222"/>
    </g>
   </g>
   <g id="PathCollection_6">
    <g clip-path="url(#p6c07d1ccd0)">
     <use xlink:href="#m6d27545dec" x="157.020791" y="65.321286" style="fill: #642222"/>
     <use xlink:href="#m6d27545dec" x="157.249189" y="64.447127" style="fill: #642222"/>
     <use xlink:href="#m6d27545dec" x="155.050377" y="61.769122" style="fill: #642222"/>
     <use xlink:href="#m6d27545dec" x="159.238492" y="62.625188" style="fill: #642222"/>
     <use xlink:href="#m6d27545dec" x="159.275096" y="64.78492" style="fill: #642222"/>
     <use xlink:href="#m6d27545dec" x="156.03133" y="64.608054" style="fill: #642222"/>
     <use xlink:href="#m6d27545dec" x="159.476482" y="62.581418" style="fill: #642222"/>
     <use xlink:href="#m6d27545dec" x="159.129467" y="63.809327" style="fill: #642222"/>
    </g>
   </g>
   <g id="PathCollection_7">
    <g clip-path="url(#p6c07d1ccd0)">
     <use xlink:href="#m6d27545dec" x="184.355782" y="65.345031" style="fill: #642222"/>
     <use xlink:href="#m6d27545dec" x="184.687218" y="65.235046" style="fill: #642222"/>
     <use xlink:href="#m6d27545dec" x="184.092003" y="64.712965" style="fill: #642222"/>
     <use xlink:href="#m6d27545dec" x="183.116747" y="65.296233" style="fill: #642222"/>
     <use xlink:href="#m6d27545dec" x="186.683125" y="62.710815" style="fill: #642222"/>
     <use xlink:href="#m6d27545dec" x="186.802325" y="65.164565" style="fill: #642222"/>
     <use xlink:href="#m6d27545dec" x="183.533162" y="64.672788" style="fill: #642222"/>
     <use xlink:href="#m6d27545dec" x="186.330438" y="64.84357" style="fill: #642222"/>
    </g>
   </g>
   <g id="PathCollection_8">
    <g clip-path="url(#p6c07d1ccd0)">
     <use xlink:href="#m6d27545dec" x="209.243327" y="65.345487" style="fill: #642222"/>
     <use xlink:href="#m6d27545dec" x="213.717606" y="65.140609" style="fill: #642222"/>
     <use xlink:href="#m6d27545dec" x="213.962859" y="64.502233" style="fill: #642222"/>
     <use xlink:href="#m6d27545dec" x="209.122332" y="65.218733" style="fill: #642222"/>
     <use xlink:href="#m6d27545dec" x="212.463746" y="39.210407" style="fill: #642222"/>
     <use xlink:href="#m6d27545dec" x="209.159812" y="63.790529" style="fill: #642222"/>
     <use xlink:href="#m6d27545dec" x="208.624081" y="47.675153" style="fill: #642222"/>
     <use xlink:href="#m6d27545dec" x="212.133778" y="61.664769" style="fill: #642222"/>
    </g>
   </g>
   <g id="PathCollection_9">
    <g clip-path="url(#p6c07d1ccd0)">
     <use xlink:href="#m6d27545dec" x="239.733995" y="65.341829" style="fill: #642222"/>
     <use xlink:href="#m6d27545dec" x="238.686907" y="64.355508" style="fill: #642222"/>
     <use xlink:href="#m6d27545dec" x="237.875319" y="63.00204" style="fill: #642222"/>
     <use xlink:href="#m6d27545dec" x="239.972463" y="64.737788" style="fill: #642222"/>
     <use xlink:href="#m6d27545dec" x="238.979963" y="62.347219" style="fill: #642222"/>
     <use xlink:href="#m6d27545dec" x="237.677765" y="60.261722" style="fill: #642222"/>
     <use xlink:href="#m6d27545dec" x="237.618073" y="52.585756" style="fill: #642222"/>
     <use xlink:href="#m6d27545dec" x="238.497883" y="61.862105" style="fill: #642222"/>
    </g>
   </g>
  </g>
 </g>
 <defs>
  <clipPath id="p6c07d1ccd0">
   <rect x="8.336803" y="4.076256" width="243.542957" height="70.15327"/>
  </clipPath>
 </defs>
</svg>
