<?xml version="1.0" encoding="utf-8" standalone="no"?>
<!DOCTYPE svg PUBLIC "-//W3C//DTD SVG 1.1//EN"
  "http://www.w3.org/Graphics/SVG/1.1/DTD/svg11.dtd">
<svg xmlns:xlink="http://www.w3.org/1999/xlink" width="56.16pt" height="84.96pt" viewBox="0 0 56.16 84.96" xmlns="http://www.w3.org/2000/svg" version="1.1">
 <metadata>
  <rdf:RDF xmlns:dc="http://purl.org/dc/elements/1.1/" xmlns:cc="http://creativecommons.org/ns#" xmlns:rdf="http://www.w3.org/1999/02/22-rdf-syntax-ns#">
   <cc:Work>
    <dc:type rdf:resource="http://purl.org/dc/dcmitype/StillImage"/>
    <dc:date>2024-05-27T15:37:17.518451</dc:date>
    <dc:format>image/svg+xml</dc:format>
    <dc:creator>
     <cc:Agent>
      <dc:title>Matplotlib v3.8.3, https://matplotlib.org/</dc:title>
     </cc:Agent>
    </dc:creator>
   </cc:Work>
  </rdf:RDF>
 </metadata>
 <defs>
  <style type="text/css">*{stroke-linejoin: round; stroke-linecap: butt}</style>
 </defs>
 <g id="figure_1">
  <g id="patch_1">
   <path d="M 0 84.96 
L 56.16 84.96 
L 56.16 0 
L 0 0 
z
" style="fill: #ffffff"/>
  </g>
  <g id="axes_1">
   <g id="patch_2">
    <path d="M 10.005084 74.419526 
L 53.15976 74.419526 
L 53.15976 4.076256 
L 10.005084 4.076256 
z
" style="fill: #ffffff"/>
   </g>
   <g id="matplotlib.axis_1">
    <g id="xtick_1">
     <g id="text_1">
      <!-- GATA+ Cells -->
      <g style="fill: #333333" transform="translate(10.631175 81.230229) scale(0.035 -0.035)">
       <defs>
        <path id="Helvetica-47" d="M 2472 4709 
Q 3119 4709 3591 4459 
Q 4275 4100 4428 3200 
L 3813 3200 
Q 3700 3703 3347 3933 
Q 2994 4163 2456 4163 
Q 1819 4163 1383 3684 
Q 947 3206 947 2259 
Q 947 1441 1306 927 
Q 1666 413 2478 413 
Q 3100 413 3508 773 
Q 3916 1134 3925 1941 
L 2488 1941 
L 2488 2456 
L 4503 2456 
L 4503 0 
L 4103 0 
L 3953 591 
Q 3638 244 3394 109 
Q 2984 -122 2353 -122 
Q 1538 -122 950 406 
Q 309 1069 309 2225 
Q 309 3378 934 4059 
Q 1528 4709 2472 4709 
z
M 2369 4716 
L 2369 4716 
z
" transform="scale(0.015625)"/>
        <path id="Helvetica-41" d="M 2844 1881 
L 2147 3909 
L 1406 1881 
L 2844 1881 
z
M 1822 4591 
L 2525 4591 
L 4191 0 
L 3509 0 
L 3044 1375 
L 1228 1375 
L 731 0 
L 94 0 
L 1822 4591 
z
" transform="scale(0.015625)"/>
        <path id="Helvetica-54" d="M 3828 4591 
L 3828 4044 
L 2281 4044 
L 2281 0 
L 1650 0 
L 1650 4044 
L 103 4044 
L 103 4591 
L 3828 4591 
z
" transform="scale(0.015625)"/>
        <path id="Helvetica-2b" d="M 288 1369 
L 288 1894 
L 1650 1894 
L 1650 3266 
L 2184 3266 
L 2184 1894 
L 3547 1894 
L 3547 1369 
L 2184 1369 
L 2184 0 
L 1650 0 
L 1650 1369 
L 288 1369 
z
" transform="scale(0.015625)"/>
        <path id="Helvetica-20" transform="scale(0.015625)"/>
        <path id="Helvetica-43" d="M 2422 4716 
Q 3294 4716 3775 4256 
Q 4256 3797 4309 3213 
L 3703 3213 
Q 3600 3656 3292 3915 
Q 2984 4175 2428 4175 
Q 1750 4175 1333 3698 
Q 916 3222 916 2238 
Q 916 1431 1292 929 
Q 1669 428 2416 428 
Q 3103 428 3463 956 
Q 3653 1234 3747 1688 
L 4353 1688 
Q 4272 963 3816 472 
Q 3269 -119 2341 -119 
Q 1541 -119 997 366 
Q 281 1006 281 2344 
Q 281 3359 819 4009 
Q 1400 4716 2422 4716 
z
M 2297 4716 
L 2297 4716 
z
" transform="scale(0.015625)"/>
        <path id="Helvetica-65" d="M 1806 3422 
Q 2163 3422 2497 3255 
Q 2831 3088 3006 2822 
Q 3175 2569 3231 2231 
Q 3281 2000 3281 1494 
L 828 1494 
Q 844 984 1069 676 
Q 1294 369 1766 369 
Q 2206 369 2469 659 
Q 2619 828 2681 1050 
L 3234 1050 
Q 3213 866 3089 639 
Q 2966 413 2813 269 
Q 2556 19 2178 -69 
Q 1975 -119 1719 -119 
Q 1094 -119 659 336 
Q 225 791 225 1609 
Q 225 2416 662 2919 
Q 1100 3422 1806 3422 
z
M 2703 1941 
Q 2669 2306 2544 2525 
Q 2313 2931 1772 2931 
Q 1384 2931 1121 2651 
Q 859 2372 844 1941 
L 2703 1941 
z
M 1753 3428 
L 1753 3428 
z
" transform="scale(0.015625)"/>
        <path id="Helvetica-6c" d="M 428 4591 
L 991 4591 
L 991 0 
L 428 0 
L 428 4591 
z
" transform="scale(0.015625)"/>
        <path id="Helvetica-73" d="M 747 1050 
Q 772 769 888 619 
Q 1100 347 1625 347 
Q 1938 347 2175 483 
Q 2413 619 2413 903 
Q 2413 1119 2222 1231 
Q 2100 1300 1741 1391 
L 1294 1503 
Q 866 1609 663 1741 
Q 300 1969 300 2372 
Q 300 2847 642 3140 
Q 984 3434 1563 3434 
Q 2319 3434 2653 2991 
Q 2863 2709 2856 2384 
L 2325 2384 
Q 2309 2575 2191 2731 
Q 1997 2953 1519 2953 
Q 1200 2953 1036 2831 
Q 872 2709 872 2509 
Q 872 2291 1088 2159 
Q 1213 2081 1456 2022 
L 1828 1931 
Q 2434 1784 2641 1647 
Q 2969 1431 2969 969 
Q 2969 522 2630 197 
Q 2291 -128 1597 -128 
Q 850 -128 539 211 
Q 228 550 206 1050 
L 747 1050 
z
M 1578 3428 
L 1578 3428 
z
" transform="scale(0.015625)"/>
       </defs>
       <use xlink:href="#Helvetica-47"/>
       <use xlink:href="#Helvetica-41" x="77.783203"/>
       <use xlink:href="#Helvetica-54" x="144.482422"/>
       <use xlink:href="#Helvetica-41" x="205.566406"/>
       <use xlink:href="#Helvetica-2b" x="272.265625"/>
       <use xlink:href="#Helvetica-20" x="330.664062"/>
       <use xlink:href="#Helvetica-43" x="358.447266"/>
       <use xlink:href="#Helvetica-65" x="430.664062"/>
       <use xlink:href="#Helvetica-6c" x="486.279297"/>
       <use xlink:href="#Helvetica-6c" x="508.496094"/>
       <use xlink:href="#Helvetica-73" x="530.712891"/>
      </g>
     </g>
    </g>
    <g id="xtick_2">
     <g id="text_2">
      <!-- ICOS+ Cells -->
      <g style="fill: #333333" transform="translate(32.694685 81.230229) scale(0.035 -0.035)">
       <defs>
        <path id="Helvetica-49" d="M 628 4591 
L 1256 4591 
L 1256 0 
L 628 0 
L 628 4591 
z
" transform="scale(0.015625)"/>
        <path id="Helvetica-4f" d="M 2469 4716 
Q 3684 4716 4269 3934 
Q 4725 3325 4725 2375 
Q 4725 1347 4203 666 
Q 3591 -134 2456 -134 
Q 1397 -134 791 566 
Q 250 1241 250 2272 
Q 250 3203 713 3866 
Q 1306 4716 2469 4716 
z
M 2531 422 
Q 3353 422 3720 1011 
Q 4088 1600 4088 2366 
Q 4088 3175 3664 3669 
Q 3241 4163 2506 4163 
Q 1794 4163 1344 3673 
Q 894 3184 894 2231 
Q 894 1469 1280 945 
Q 1666 422 2531 422 
z
M 2488 4716 
L 2488 4716 
z
" transform="scale(0.015625)"/>
        <path id="Helvetica-53" d="M 894 1481 
Q 916 1091 1078 847 
Q 1388 391 2169 391 
Q 2519 391 2806 491 
Q 3363 684 3363 1184 
Q 3363 1559 3128 1719 
Q 2891 1875 2384 1991 
L 1763 2131 
Q 1153 2269 900 2434 
Q 463 2722 463 3294 
Q 463 3913 891 4309 
Q 1319 4706 2103 4706 
Q 2825 4706 3329 4357 
Q 3834 4009 3834 3244 
L 3250 3244 
Q 3203 3613 3050 3809 
Q 2766 4169 2084 4169 
Q 1534 4169 1293 3937 
Q 1053 3706 1053 3400 
Q 1053 3063 1334 2906 
Q 1519 2806 2169 2656 
L 2813 2509 
Q 3278 2403 3531 2219 
Q 3969 1897 3969 1284 
Q 3969 522 3414 194 
Q 2859 -134 2125 -134 
Q 1269 -134 784 303 
Q 300 738 309 1481 
L 894 1481 
z
M 2150 4716 
L 2150 4716 
z
" transform="scale(0.015625)"/>
       </defs>
       <use xlink:href="#Helvetica-49"/>
       <use xlink:href="#Helvetica-43" x="27.783203"/>
       <use xlink:href="#Helvetica-4f" x="100"/>
       <use xlink:href="#Helvetica-53" x="177.783203"/>
       <use xlink:href="#Helvetica-2b" x="244.482422"/>
       <use xlink:href="#Helvetica-20" x="302.880859"/>
       <use xlink:href="#Helvetica-43" x="330.664062"/>
       <use xlink:href="#Helvetica-65" x="402.880859"/>
       <use xlink:href="#Helvetica-6c" x="458.496094"/>
       <use xlink:href="#Helvetica-6c" x="480.712891"/>
       <use xlink:href="#Helvetica-73" x="502.929688"/>
      </g>
     </g>
    </g>
   </g>
   <g id="matplotlib.axis_2">
    <g id="ytick_1">
     <g id="line2d_1">
      <defs>
       <path id="ma42bf1ac76" d="M 0 0 
L -1 0 
" style="stroke: #777777; stroke-width: 0.5"/>
      </defs>
      <g>
       <use xlink:href="#ma42bf1ac76" x="10.005084" y="66.189518" style="fill: #777777; stroke: #777777; stroke-width: 0.5"/>
      </g>
     </g>
     <g id="text_3">
      <!-- 0 -->
      <g style="fill: #333333" transform="translate(6.336802 67.265534) scale(0.03 -0.03)">
       <defs>
        <path id="Helvetica-30" d="M 1731 4475 
Q 2600 4475 2988 3759 
Q 3288 3206 3288 2244 
Q 3288 1331 3016 734 
Q 2622 -122 1728 -122 
Q 922 -122 528 578 
Q 200 1163 200 2147 
Q 200 2909 397 3456 
Q 766 4475 1731 4475 
z
M 1725 391 
Q 2163 391 2422 778 
Q 2681 1166 2681 2222 
Q 2681 2984 2493 3476 
Q 2306 3969 1766 3969 
Q 1269 3969 1039 3501 
Q 809 3034 809 2125 
Q 809 1441 956 1025 
Q 1181 391 1725 391 
z
" transform="scale(0.015625)"/>
       </defs>
       <use xlink:href="#Helvetica-30"/>
      </g>
     </g>
    </g>
    <g id="ytick_2">
     <g id="line2d_2">
      <g>
       <use xlink:href="#ma42bf1ac76" x="10.005084" y="55.837308" style="fill: #777777; stroke: #777777; stroke-width: 0.5"/>
      </g>
     </g>
     <g id="text_4">
      <!-- 20 -->
      <g style="fill: #333333" transform="translate(4.668521 56.913323) scale(0.03 -0.03)">
       <defs>
        <path id="Helvetica-32" d="M 200 0 
Q 231 578 439 1006 
Q 647 1434 1250 1784 
L 1850 2131 
Q 2253 2366 2416 2531 
Q 2672 2791 2672 3125 
Q 2672 3516 2437 3745 
Q 2203 3975 1813 3975 
Q 1234 3975 1013 3538 
Q 894 3303 881 2888 
L 309 2888 
Q 319 3472 525 3841 
Q 891 4491 1816 4491 
Q 2584 4491 2939 4075 
Q 3294 3659 3294 3150 
Q 3294 2613 2916 2231 
Q 2697 2009 2131 1694 
L 1703 1456 
Q 1397 1288 1222 1134 
Q 909 863 828 531 
L 3272 531 
L 3272 0 
L 200 0 
z
" transform="scale(0.015625)"/>
       </defs>
       <use xlink:href="#Helvetica-32"/>
       <use xlink:href="#Helvetica-30" x="55.615234"/>
      </g>
     </g>
    </g>
    <g id="ytick_3">
     <g id="line2d_3">
      <g>
       <use xlink:href="#ma42bf1ac76" x="10.005084" y="45.485097" style="fill: #777777; stroke: #777777; stroke-width: 0.5"/>
      </g>
     </g>
     <g id="text_5">
      <!-- 40 -->
      <g style="fill: #333333" transform="translate(4.668521 46.561113) scale(0.03 -0.03)">
       <defs>
        <path id="Helvetica-34" d="M 2116 1584 
L 2116 3613 
L 681 1584 
L 2116 1584 
z
M 2125 0 
L 2125 1094 
L 163 1094 
L 163 1644 
L 2213 4488 
L 2688 4488 
L 2688 1584 
L 3347 1584 
L 3347 1094 
L 2688 1094 
L 2688 0 
L 2125 0 
z
" transform="scale(0.015625)"/>
       </defs>
       <use xlink:href="#Helvetica-34"/>
       <use xlink:href="#Helvetica-30" x="55.615234"/>
      </g>
     </g>
    </g>
    <g id="ytick_4">
     <g id="line2d_4">
      <g>
       <use xlink:href="#ma42bf1ac76" x="10.005084" y="35.132887" style="fill: #777777; stroke: #777777; stroke-width: 0.5"/>
      </g>
     </g>
     <g id="text_6">
      <!-- 60 -->
      <g style="fill: #333333" transform="translate(4.668521 36.208903) scale(0.03 -0.03)">
       <defs>
        <path id="Helvetica-36" d="M 1872 4494 
Q 2622 4494 2917 4105 
Q 3213 3716 3213 3303 
L 2656 3303 
Q 2606 3569 2497 3719 
Q 2294 4000 1881 4000 
Q 1409 4000 1131 3564 
Q 853 3128 822 2316 
Q 1016 2600 1309 2741 
Q 1578 2866 1909 2866 
Q 2472 2866 2890 2506 
Q 3309 2147 3309 1434 
Q 3309 825 2912 354 
Q 2516 -116 1781 -116 
Q 1153 -116 697 361 
Q 241 838 241 1966 
Q 241 2800 444 3381 
Q 834 4494 1872 4494 
z
M 1831 384 
Q 2275 384 2495 682 
Q 2716 981 2716 1388 
Q 2716 1731 2519 2042 
Q 2322 2353 1803 2353 
Q 1441 2353 1167 2112 
Q 894 1872 894 1388 
Q 894 963 1142 673 
Q 1391 384 1831 384 
z
" transform="scale(0.015625)"/>
       </defs>
       <use xlink:href="#Helvetica-36"/>
       <use xlink:href="#Helvetica-30" x="55.615234"/>
      </g>
     </g>
    </g>
    <g id="ytick_5">
     <g id="line2d_5">
      <g>
       <use xlink:href="#ma42bf1ac76" x="10.005084" y="24.780677" style="fill: #777777; stroke: #777777; stroke-width: 0.5"/>
      </g>
     </g>
     <g id="text_7">
      <!-- 80 -->
      <g style="fill: #333333" transform="translate(4.668521 25.856692) scale(0.03 -0.03)">
       <defs>
        <path id="Helvetica-38" d="M 1741 2600 
Q 2113 2600 2322 2808 
Q 2531 3016 2531 3303 
Q 2531 3553 2331 3762 
Q 2131 3972 1722 3972 
Q 1316 3972 1134 3762 
Q 953 3553 953 3272 
Q 953 2956 1187 2778 
Q 1422 2600 1741 2600 
z
M 1775 384 
Q 2166 384 2423 595 
Q 2681 806 2681 1225 
Q 2681 1659 2415 1884 
Q 2150 2109 1734 2109 
Q 1331 2109 1076 1879 
Q 822 1650 822 1244 
Q 822 894 1055 639 
Q 1288 384 1775 384 
z
M 975 2384 
Q 741 2484 609 2619 
Q 363 2869 363 3269 
Q 363 3769 725 4128 
Q 1088 4488 1753 4488 
Q 2397 4488 2762 4148 
Q 3128 3809 3128 3356 
Q 3128 2938 2916 2678 
Q 2797 2531 2547 2391 
Q 2825 2263 2984 2097 
Q 3281 1784 3281 1284 
Q 3281 694 2884 283 
Q 2488 -128 1763 -128 
Q 1109 -128 657 226 
Q 206 581 206 1256 
Q 206 1653 400 1942 
Q 594 2231 975 2384 
z
" transform="scale(0.015625)"/>
       </defs>
       <use xlink:href="#Helvetica-38"/>
       <use xlink:href="#Helvetica-30" x="55.615234"/>
      </g>
     </g>
    </g>
    <g id="ytick_6">
     <g id="line2d_6">
      <g>
       <use xlink:href="#ma42bf1ac76" x="10.005084" y="14.428466" style="fill: #777777; stroke: #777777; stroke-width: 0.5"/>
      </g>
     </g>
     <g id="text_8">
      <!-- 100 -->
      <g style="fill: #333333" transform="translate(3.00024 15.504482) scale(0.03 -0.03)">
       <defs>
        <path id="Helvetica-31" d="M 613 3169 
L 613 3600 
Q 1222 3659 1462 3798 
Q 1703 3938 1822 4456 
L 2266 4456 
L 2266 0 
L 1666 0 
L 1666 3169 
L 613 3169 
z
" transform="scale(0.015625)"/>
       </defs>
       <use xlink:href="#Helvetica-31"/>
       <use xlink:href="#Helvetica-30" x="55.615234"/>
       <use xlink:href="#Helvetica-30" x="111.230469"/>
      </g>
     </g>
    </g>
    <g id="ytick_7">
     <g id="line2d_7">
      <g>
       <use xlink:href="#ma42bf1ac76" x="10.005084" y="4.076256" style="fill: #777777; stroke: #777777; stroke-width: 0.5"/>
      </g>
     </g>
     <g id="text_9">
      <!-- 120 -->
      <g style="fill: #333333" transform="translate(3.00024 5.152271) scale(0.03 -0.03)">
       <use xlink:href="#Helvetica-31"/>
       <use xlink:href="#Helvetica-32" x="55.615234"/>
       <use xlink:href="#Helvetica-30" x="111.230469"/>
      </g>
     </g>
    </g>
   </g>
   <g id="PolyCollection_1">
    <defs>
     <path id="m27b4b13a4b" d="M 21.836715 -15.677183 
L 19.75079 -15.677183 
L 19.55859 -16.123414 
L 19.349095 -16.569645 
L 19.124507 -17.015876 
L 18.887656 -17.462107 
L 18.641839 -17.908338 
L 18.390609 -18.354569 
L 18.137513 -18.8008 
L 17.885812 -19.247031 
L 17.638214 -19.693262 
L 17.396649 -20.139493 
L 17.162116 -20.585724 
L 16.934639 -21.031954 
L 16.713333 -21.478185 
L 16.496598 -21.924416 
L 16.282417 -22.370647 
L 16.06873 -22.816878 
L 15.853851 -23.263109 
L 15.636859 -23.70934 
L 15.417931 -24.155571 
L 15.198538 -24.601802 
L 14.981501 -25.048033 
L 14.770847 -25.494264 
L 14.571499 -25.940495 
L 14.388797 -26.386726 
L 14.227923 -26.832957 
L 14.093269 -27.279188 
L 13.987833 -27.725418 
L 13.912723 -28.171649 
L 13.866823 -28.61788 
L 13.846681 -29.064111 
L 13.846643 -29.510342 
L 13.859226 -29.956573 
L 13.87571 -30.402804 
L 13.88688 -30.849035 
L 13.88386 -31.295266 
L 13.858936 -31.741497 
L 13.806303 -32.187728 
L 13.722633 -32.633959 
L 13.607429 -33.08019 
L 13.463119 -33.526421 
L 13.294882 -33.972652 
L 13.110234 -34.418882 
L 12.918421 -34.865113 
L 12.72967 -35.311344 
L 12.554398 -35.757575 
L 12.402437 -36.203806 
L 12.282354 -36.650037 
L 12.200929 -37.096268 
L 12.162818 -37.542499 
L 12.170424 -37.98873 
L 12.223973 -38.434961 
L 12.321754 -38.881192 
L 12.460499 -39.327423 
L 12.635839 -39.773654 
L 12.842783 -40.219885 
L 13.076175 -40.666115 
L 13.331071 -41.112346 
L 13.603021 -41.558577 
L 13.888216 -42.004808 
L 14.183526 -42.451039 
L 14.486407 -42.89727 
L 14.794735 -43.343501 
L 15.106571 -43.789732 
L 15.419909 -44.235963 
L 15.732447 -44.682194 
L 16.041403 -45.128425 
L 16.343412 -45.574656 
L 16.634526 -46.020887 
L 16.910311 -46.467118 
L 17.166049 -46.913349 
L 17.397017 -47.359579 
L 17.598826 -47.80581 
L 17.767788 -48.252041 
L 17.901265 -48.698272 
L 17.997982 -49.144503 
L 18.058249 -49.590734 
L 18.084089 -50.036965 
L 18.079235 -50.483196 
L 18.049008 -50.929427 
L 18.000062 -51.375658 
L 17.940027 -51.821889 
L 17.87707 -52.26812 
L 17.819404 -52.714351 
L 17.774798 -53.160582 
L 17.7501 -53.606813 
L 17.750847 -54.053043 
L 17.780956 -54.499274 
L 17.842548 -54.945505 
L 17.935892 -55.391736 
L 18.059491 -55.837967 
L 18.210272 -56.284198 
L 18.383887 -56.730429 
L 18.575065 -57.17666 
L 18.778006 -57.622891 
L 18.986774 -58.069122 
L 19.195654 -58.515353 
L 19.399455 -58.961584 
L 19.593744 -59.407815 
L 19.774991 -59.854046 
L 21.812515 -59.854046 
L 21.812515 -59.854046 
L 21.993762 -59.407815 
L 22.188051 -58.961584 
L 22.391852 -58.515353 
L 22.600732 -58.069122 
L 22.8095 -57.622891 
L 23.012441 -57.17666 
L 23.203619 -56.730429 
L 23.377233 -56.284198 
L 23.528015 -55.837967 
L 23.651613 -55.391736 
L 23.744958 -54.945505 
L 23.80655 -54.499274 
L 23.836659 -54.053043 
L 23.837406 -53.606813 
L 23.812708 -53.160582 
L 23.768101 -52.714351 
L 23.710436 -52.26812 
L 23.647478 -51.821889 
L 23.587443 -51.375658 
L 23.538497 -50.929427 
L 23.508271 -50.483196 
L 23.503417 -50.036965 
L 23.529257 -49.590734 
L 23.589524 -49.144503 
L 23.68624 -48.698272 
L 23.819718 -48.252041 
L 23.98868 -47.80581 
L 24.190489 -47.359579 
L 24.421456 -46.913349 
L 24.677194 -46.467118 
L 24.95298 -46.020887 
L 25.244094 -45.574656 
L 25.546103 -45.128425 
L 25.855058 -44.682194 
L 26.167597 -44.235963 
L 26.480935 -43.789732 
L 26.792771 -43.343501 
L 27.101099 -42.89727 
L 27.40398 -42.451039 
L 27.699289 -42.004808 
L 27.984485 -41.558577 
L 28.256434 -41.112346 
L 28.511331 -40.666115 
L 28.744723 -40.219885 
L 28.951667 -39.773654 
L 29.127006 -39.327423 
L 29.265751 -38.881192 
L 29.363532 -38.434961 
L 29.417081 -37.98873 
L 29.424688 -37.542499 
L 29.386577 -37.096268 
L 29.305152 -36.650037 
L 29.185069 -36.203806 
L 29.033108 -35.757575 
L 28.857836 -35.311344 
L 28.669085 -34.865113 
L 28.477271 -34.418882 
L 28.292624 -33.972652 
L 28.124387 -33.526421 
L 27.980076 -33.08019 
L 27.864872 -32.633959 
L 27.781202 -32.187728 
L 27.728569 -31.741497 
L 27.703646 -31.295266 
L 27.700625 -30.849035 
L 27.711795 -30.402804 
L 27.728279 -29.956573 
L 27.740863 -29.510342 
L 27.740825 -29.064111 
L 27.720683 -28.61788 
L 27.674783 -28.171649 
L 27.599672 -27.725418 
L 27.494237 -27.279188 
L 27.359582 -26.832957 
L 27.198709 -26.386726 
L 27.016007 -25.940495 
L 26.816658 -25.494264 
L 26.606004 -25.048033 
L 26.388967 -24.601802 
L 26.169575 -24.155571 
L 25.950646 -23.70934 
L 25.733655 -23.263109 
L 25.518776 -22.816878 
L 25.305089 -22.370647 
L 25.090908 -21.924416 
L 24.874173 -21.478185 
L 24.652867 -21.031954 
L 24.425389 -20.585724 
L 24.190857 -20.139493 
L 23.949292 -19.693262 
L 23.701694 -19.247031 
L 23.449993 -18.8008 
L 23.196896 -18.354569 
L 22.945666 -17.908338 
L 22.699849 -17.462107 
L 22.462998 -17.015876 
L 22.238411 -16.569645 
L 22.028916 -16.123414 
L 21.836715 -15.677183 
z
" style="stroke: #6f6f6f; stroke-width: 0.15"/>
    </defs>
    <g clip-path="url(#p4bffa5848f)">
     <use xlink:href="#m27b4b13a4b" x="0" y="84.96" style="fill: #d6bba3; stroke: #6f6f6f; stroke-width: 0.15"/>
    </g>
   </g>
   <g id="PolyCollection_2">
    <defs>
     <path id="m9936fd8682" d="M 43.178297 -17.68204 
L 41.563885 -17.68204 
L 41.425997 -17.765416 
L 41.275651 -17.848791 
L 41.113821 -17.932167 
L 40.941815 -18.015542 
L 40.761225 -18.098917 
L 40.573845 -18.182293 
L 40.381564 -18.265668 
L 40.186257 -18.349043 
L 39.989655 -18.432419 
L 39.793233 -18.515794 
L 39.598102 -18.59917 
L 39.404935 -18.682545 
L 39.213923 -18.76592 
L 39.024763 -18.849296 
L 38.836698 -18.932671 
L 38.64858 -19.016046 
L 38.458976 -19.099422 
L 38.266287 -19.182797 
L 38.06888 -19.266173 
L 37.865226 -19.349548 
L 37.65402 -19.432923 
L 37.434282 -19.516299 
L 37.205443 -19.599674 
L 36.967393 -19.68305 
L 36.720516 -19.766425 
L 36.465707 -19.8498 
L 36.204367 -19.933176 
L 35.938405 -20.016551 
L 35.670238 -20.099926 
L 35.402787 -20.183302 
L 35.139484 -20.266677 
L 34.884272 -20.350053 
L 34.641595 -20.433428 
L 34.416365 -20.516803 
L 34.2139 -20.600179 
L 34.039816 -20.683554 
L 33.899874 -20.766929 
L 33.79978 -20.850305 
L 33.744934 -20.93368 
L 33.740156 -21.017056 
L 33.789395 -21.100431 
L 33.895448 -21.183806 
L 34.059708 -21.267182 
L 34.281978 -21.350557 
L 34.56035 -21.433933 
L 34.89119 -21.517308 
L 35.269207 -21.600683 
L 35.68763 -21.684059 
L 36.138465 -21.767434 
L 36.612822 -21.850809 
L 37.101284 -21.934185 
L 37.594296 -22.01756 
L 38.082531 -22.100936 
L 38.557237 -22.184311 
L 39.010504 -22.267686 
L 39.435474 -22.351062 
L 39.826459 -22.434437 
L 40.178983 -22.517813 
L 40.489748 -22.601188 
L 40.756543 -22.684563 
L 40.978101 -22.767939 
L 41.153943 -22.851314 
L 41.284214 -22.934689 
L 41.369527 -23.018065 
L 41.41085 -23.10144 
L 41.409425 -23.184816 
L 41.366736 -23.268191 
L 41.284527 -23.351566 
L 41.164856 -23.434942 
L 41.010187 -23.518317 
L 40.823497 -23.601692 
L 40.608387 -23.685068 
L 40.369168 -23.768443 
L 40.110928 -23.851819 
L 39.839534 -23.935194 
L 39.561582 -24.018569 
L 39.284281 -24.101945 
L 39.015261 -24.18532 
L 38.762335 -24.268696 
L 38.533195 -24.352071 
L 38.335095 -24.435446 
L 38.174518 -24.518822 
L 38.056862 -24.602197 
L 37.986164 -24.685572 
L 37.964899 -24.768948 
L 37.993843 -24.852323 
L 38.072045 -24.935699 
L 38.196883 -25.019074 
L 38.364215 -25.102449 
L 38.568615 -25.185825 
L 38.80366 -25.2692 
L 39.062274 -25.352575 
L 39.337077 -25.435951 
L 39.620726 -25.519326 
L 39.906241 -25.602702 
L 40.187263 -25.686077 
L 40.458273 -25.769452 
L 40.714724 -25.852828 
L 40.953122 -25.936203 
L 43.78906 -25.936203 
L 43.78906 -25.936203 
L 44.027458 -25.852828 
L 44.283909 -25.769452 
L 44.554919 -25.686077 
L 44.835941 -25.602702 
L 45.121456 -25.519326 
L 45.405105 -25.435951 
L 45.679907 -25.352575 
L 45.938522 -25.2692 
L 46.173567 -25.185825 
L 46.377967 -25.102449 
L 46.545299 -25.019074 
L 46.670137 -24.935699 
L 46.748339 -24.852323 
L 46.777283 -24.768948 
L 46.756017 -24.685572 
L 46.68532 -24.602197 
L 46.567663 -24.518822 
L 46.407087 -24.435446 
L 46.208987 -24.352071 
L 45.979847 -24.268696 
L 45.726921 -24.18532 
L 45.457901 -24.101945 
L 45.1806 -24.018569 
L 44.902648 -23.935194 
L 44.631254 -23.851819 
L 44.373014 -23.768443 
L 44.133795 -23.685068 
L 43.918684 -23.601692 
L 43.731995 -23.518317 
L 43.577326 -23.434942 
L 43.457654 -23.351566 
L 43.375445 -23.268191 
L 43.332757 -23.184816 
L 43.331332 -23.10144 
L 43.372655 -23.018065 
L 43.457968 -22.934689 
L 43.588238 -22.851314 
L 43.764081 -22.767939 
L 43.985639 -22.684563 
L 44.252434 -22.601188 
L 44.563199 -22.517813 
L 44.915723 -22.434437 
L 45.306708 -22.351062 
L 45.731678 -22.267686 
L 46.184945 -22.184311 
L 46.659651 -22.100936 
L 47.147886 -22.01756 
L 47.640897 -21.934185 
L 48.12936 -21.850809 
L 48.603717 -21.767434 
L 49.054552 -21.684059 
L 49.472975 -21.600683 
L 49.850992 -21.517308 
L 50.181832 -21.433933 
L 50.460204 -21.350557 
L 50.682474 -21.267182 
L 50.846734 -21.183806 
L 50.952787 -21.100431 
L 51.002026 -21.017056 
L 50.997248 -20.93368 
L 50.942402 -20.850305 
L 50.842308 -20.766929 
L 50.702366 -20.683554 
L 50.528282 -20.600179 
L 50.325817 -20.516803 
L 50.100587 -20.433428 
L 49.857909 -20.350053 
L 49.602698 -20.266677 
L 49.339395 -20.183302 
L 49.071944 -20.099926 
L 48.803777 -20.016551 
L 48.537815 -19.933176 
L 48.276475 -19.8498 
L 48.021666 -19.766425 
L 47.774789 -19.68305 
L 47.536739 -19.599674 
L 47.3079 -19.516299 
L 47.088162 -19.432923 
L 46.876956 -19.349548 
L 46.673302 -19.266173 
L 46.475895 -19.182797 
L 46.283206 -19.099422 
L 46.093602 -19.016046 
L 45.905484 -18.932671 
L 45.717419 -18.849296 
L 45.528259 -18.76592 
L 45.337247 -18.682545 
L 45.14408 -18.59917 
L 44.948949 -18.515794 
L 44.752526 -18.432419 
L 44.555925 -18.349043 
L 44.360618 -18.265668 
L 44.168337 -18.182293 
L 43.980957 -18.098917 
L 43.800367 -18.015542 
L 43.628361 -17.932167 
L 43.46653 -17.848791 
L 43.316185 -17.765416 
L 43.178297 -17.68204 
z
" style="stroke: #6f6f6f; stroke-width: 0.15"/>
    </defs>
    <g clip-path="url(#p4bffa5848f)">
     <use xlink:href="#m9936fd8682" x="0" y="84.96" style="fill: #f1b9e0; stroke: #6f6f6f; stroke-width: 0.15"/>
    </g>
   </g>
   <g id="line2d_8">
    <path d="M 20.793753 63.773923 
L 20.793753 30.614848 
" clip-path="url(#p4bffa5848f)" style="fill: none; stroke: #8c8c8c; stroke-width: 0.75; stroke-linecap: round"/>
   </g>
   <g id="line2d_9">
    <path d="M 20.793753 56.369373 
L 20.793753 43.585135 
" clip-path="url(#p4bffa5848f)" style="fill: none; stroke: #8c8c8c; stroke-width: 4; stroke-linecap: round"/>
   </g>
   <g id="line2d_10">
    <path d="M 20.793753 48.565541 
" clip-path="url(#p4bffa5848f)" style="fill: none; stroke: #6f6f6f; stroke-width: 1.2; stroke-linecap: round"/>
    <defs>
     <path id="m3e4dbc1f2e" d="M 0 0.833333 
C 0.221003 0.833333 0.432983 0.745528 0.589256 0.589256 
C 0.745528 0.432983 0.833333 0.221003 0.833333 0 
C 0.833333 -0.221003 0.745528 -0.432983 0.589256 -0.589256 
C 0.432983 -0.745528 0.221003 -0.833333 0 -0.833333 
C -0.221003 -0.833333 -0.432983 -0.745528 -0.589256 -0.589256 
C -0.745528 -0.432983 -0.833333 -0.221003 -0.833333 0 
C -0.833333 0.221003 -0.745528 0.432983 -0.589256 0.589256 
C -0.432983 0.745528 -0.221003 0.833333 0 0.833333 
z
" style="stroke: #ffffff; stroke-width: 0.8"/>
    </defs>
    <g clip-path="url(#p4bffa5848f)">
     <use xlink:href="#m3e4dbc1f2e" x="20.793753" y="48.565541" style="fill: #ffffff; stroke: #ffffff; stroke-width: 0.8"/>
    </g>
   </g>
   <g id="line2d_11">
    <path d="M 42.371091 66.150059 
L 42.371091 60.151698 
" clip-path="url(#p4bffa5848f)" style="fill: none; stroke: #8c8c8c; stroke-width: 0.75; stroke-linecap: round"/>
   </g>
   <g id="line2d_12">
    <path d="M 42.371091 64.657946 
L 42.371091 62.724134 
" clip-path="url(#p4bffa5848f)" style="fill: none; stroke: #8c8c8c; stroke-width: 4; stroke-linecap: round"/>
   </g>
   <g id="line2d_13">
    <path d="M 42.371091 63.680613 
" clip-path="url(#p4bffa5848f)" style="fill: none; stroke: #6f6f6f; stroke-width: 1.2; stroke-linecap: round"/>
    <g clip-path="url(#p4bffa5848f)">
     <use xlink:href="#m3e4dbc1f2e" x="42.371091" y="63.680613" style="fill: #ffffff; stroke: #ffffff; stroke-width: 0.8"/>
    </g>
   </g>
   <g id="patch_3">
    <path d="M 10.005084 74.419526 
L 10.005084 4.076256 
" style="fill: none; stroke: #777777; stroke-width: 0.5; stroke-linejoin: miter; stroke-linecap: square"/>
   </g>
   <g id="patch_4">
    <path d="M 10.005084 76.919526 
L 53.15976 76.919526 
" style="fill: none; stroke: #777777; stroke-width: 0.5; stroke-linejoin: miter; stroke-linecap: square"/>
   </g>
  </g>
 </g>
 <defs>
  <clipPath id="p4bffa5848f">
   <rect x="10.005084" y="4.076256" width="43.154676" height="70.34327"/>
  </clipPath>
 </defs>
</svg>
