<?xml version="1.0" encoding="utf-8" standalone="no"?>
<!DOCTYPE svg PUBLIC "-//W3C//DTD SVG 1.1//EN"
  "http://www.w3.org/Graphics/SVG/1.1/DTD/svg11.dtd">
<svg xmlns:xlink="http://www.w3.org/1999/xlink" width="56.16pt" height="84.96pt" viewBox="0 0 56.16 84.96" xmlns="http://www.w3.org/2000/svg" version="1.1">
 <metadata>
  <rdf:RDF xmlns:dc="http://purl.org/dc/elements/1.1/" xmlns:cc="http://creativecommons.org/ns#" xmlns:rdf="http://www.w3.org/1999/02/22-rdf-syntax-ns#">
   <cc:Work>
    <dc:type rdf:resource="http://purl.org/dc/dcmitype/StillImage"/>
    <dc:date>2024-05-27T15:37:08.009369</dc:date>
    <dc:format>image/svg+xml</dc:format>
    <dc:creator>
     <cc:Agent>
      <dc:title>Matplotlib v3.8.3, https://matplotlib.org/</dc:title>
     </cc:Agent>
    </dc:creator>
   </cc:Work>
  </rdf:RDF>
 </metadata>
 <defs>
  <style type="text/css">*{stroke-linejoin: round; stroke-linecap: butt}</style>
 </defs>
 <g id="figure_1">
  <g id="patch_1">
   <path d="M 0 84.96 
L 56.16 84.96 
L 56.16 0 
L 0 0 
z
" style="fill: #ffffff"/>
  </g>
  <g id="axes_1">
   <g id="patch_2">
    <path d="M 11.673365 74.419526 
L 53.15976 74.419526 
L 53.15976 4.076256 
L 11.673365 4.076256 
z
" style="fill: #ffffff"/>
   </g>
   <g id="matplotlib.axis_1">
    <g id="xtick_1">
     <g id="text_1">
      <!-- ILC2 -->
      <g style="fill: #333333" transform="translate(18.348636 81.230229) scale(0.035 -0.035)">
       <defs>
        <path id="Helvetica-49" d="M 628 4591 
L 1256 4591 
L 1256 0 
L 628 0 
L 628 4591 
z
" transform="scale(0.015625)"/>
        <path id="Helvetica-4c" d="M 488 4591 
L 1109 4591 
L 1109 547 
L 3434 547 
L 3434 0 
L 488 0 
L 488 4591 
z
" transform="scale(0.015625)"/>
        <path id="Helvetica-43" d="M 2422 4716 
Q 3294 4716 3775 4256 
Q 4256 3797 4309 3213 
L 3703 3213 
Q 3600 3656 3292 3915 
Q 2984 4175 2428 4175 
Q 1750 4175 1333 3698 
Q 916 3222 916 2238 
Q 916 1431 1292 929 
Q 1669 428 2416 428 
Q 3103 428 3463 956 
Q 3653 1234 3747 1688 
L 4353 1688 
Q 4272 963 3816 472 
Q 3269 -119 2341 -119 
Q 1541 -119 997 366 
Q 281 1006 281 2344 
Q 281 3359 819 4009 
Q 1400 4716 2422 4716 
z
M 2297 4716 
L 2297 4716 
z
" transform="scale(0.015625)"/>
        <path id="Helvetica-32" d="M 200 0 
Q 231 578 439 1006 
Q 647 1434 1250 1784 
L 1850 2131 
Q 2253 2366 2416 2531 
Q 2672 2791 2672 3125 
Q 2672 3516 2437 3745 
Q 2203 3975 1813 3975 
Q 1234 3975 1013 3538 
Q 894 3303 881 2888 
L 309 2888 
Q 319 3472 525 3841 
Q 891 4491 1816 4491 
Q 2584 4491 2939 4075 
Q 3294 3659 3294 3150 
Q 3294 2613 2916 2231 
Q 2697 2009 2131 1694 
L 1703 1456 
Q 1397 1288 1222 1134 
Q 909 863 828 531 
L 3272 531 
L 3272 0 
L 200 0 
z
" transform="scale(0.015625)"/>
       </defs>
       <use xlink:href="#Helvetica-49"/>
       <use xlink:href="#Helvetica-4c" x="27.783203"/>
       <use xlink:href="#Helvetica-43" x="83.398438"/>
       <use xlink:href="#Helvetica-32" x="155.615234"/>
      </g>
     </g>
    </g>
    <g id="xtick_2">
     <g id="text_2">
      <!-- TH2 -->
      <g style="fill: #333333" transform="translate(39.482302 81.230229) scale(0.035 -0.035)">
       <defs>
        <path id="Helvetica-54" d="M 3828 4591 
L 3828 4044 
L 2281 4044 
L 2281 0 
L 1650 0 
L 1650 4044 
L 103 4044 
L 103 4591 
L 3828 4591 
z
" transform="scale(0.015625)"/>
        <path id="Helvetica-48" d="M 503 4591 
L 1131 4591 
L 1131 2694 
L 3519 2694 
L 3519 4591 
L 4147 4591 
L 4147 0 
L 3519 0 
L 3519 2147 
L 1131 2147 
L 1131 0 
L 503 0 
L 503 4591 
z
" transform="scale(0.015625)"/>
       </defs>
       <use xlink:href="#Helvetica-54"/>
       <use xlink:href="#Helvetica-48" x="61.083984"/>
       <use xlink:href="#Helvetica-32" x="133.300781"/>
      </g>
     </g>
    </g>
   </g>
   <g id="matplotlib.axis_2">
    <g id="ytick_1">
     <g id="line2d_1">
      <defs>
       <path id="m21e6e6d572" d="M 0 0 
L -1 0 
" style="stroke: #777777; stroke-width: 0.5"/>
      </defs>
      <g>
       <use xlink:href="#m21e6e6d572" x="11.673365" y="64.727463" style="fill: #777777; stroke: #777777; stroke-width: 0.5"/>
      </g>
     </g>
     <g id="text_3">
      <!-- 0 -->
      <g style="fill: #333333" transform="translate(8.005084 65.803478) scale(0.03 -0.03)">
       <defs>
        <path id="Helvetica-30" d="M 1731 4475 
Q 2600 4475 2988 3759 
Q 3288 3206 3288 2244 
Q 3288 1331 3016 734 
Q 2622 -122 1728 -122 
Q 922 -122 528 578 
Q 200 1163 200 2147 
Q 200 2909 397 3456 
Q 766 4475 1731 4475 
z
M 1725 391 
Q 2163 391 2422 778 
Q 2681 1166 2681 2222 
Q 2681 2984 2493 3476 
Q 2306 3969 1766 3969 
Q 1269 3969 1039 3501 
Q 809 3034 809 2125 
Q 809 1441 956 1025 
Q 1181 391 1725 391 
z
" transform="scale(0.015625)"/>
       </defs>
       <use xlink:href="#Helvetica-30"/>
      </g>
     </g>
    </g>
    <g id="ytick_2">
     <g id="line2d_2">
      <g>
       <use xlink:href="#m21e6e6d572" x="11.673365" y="52.597221" style="fill: #777777; stroke: #777777; stroke-width: 0.5"/>
      </g>
     </g>
     <g id="text_4">
      <!-- 1000 -->
      <g style="fill: #333333" transform="translate(3.00024 53.673237) scale(0.03 -0.03)">
       <defs>
        <path id="Helvetica-31" d="M 613 3169 
L 613 3600 
Q 1222 3659 1462 3798 
Q 1703 3938 1822 4456 
L 2266 4456 
L 2266 0 
L 1666 0 
L 1666 3169 
L 613 3169 
z
" transform="scale(0.015625)"/>
       </defs>
       <use xlink:href="#Helvetica-31"/>
       <use xlink:href="#Helvetica-30" x="55.615234"/>
       <use xlink:href="#Helvetica-30" x="111.230469"/>
       <use xlink:href="#Helvetica-30" x="166.845703"/>
      </g>
     </g>
    </g>
    <g id="ytick_3">
     <g id="line2d_3">
      <g>
       <use xlink:href="#m21e6e6d572" x="11.673365" y="40.46698" style="fill: #777777; stroke: #777777; stroke-width: 0.5"/>
      </g>
     </g>
     <g id="text_5">
      <!-- 2000 -->
      <g style="fill: #333333" transform="translate(3.00024 41.542996) scale(0.03 -0.03)">
       <use xlink:href="#Helvetica-32"/>
       <use xlink:href="#Helvetica-30" x="55.615234"/>
       <use xlink:href="#Helvetica-30" x="111.230469"/>
       <use xlink:href="#Helvetica-30" x="166.845703"/>
      </g>
     </g>
    </g>
    <g id="ytick_4">
     <g id="line2d_4">
      <g>
       <use xlink:href="#m21e6e6d572" x="11.673365" y="28.336738" style="fill: #777777; stroke: #777777; stroke-width: 0.5"/>
      </g>
     </g>
     <g id="text_6">
      <!-- 3000 -->
      <g style="fill: #333333" transform="translate(3.00024 29.412754) scale(0.03 -0.03)">
       <defs>
        <path id="Helvetica-33" d="M 1663 -122 
Q 869 -122 511 314 
Q 153 750 153 1375 
L 741 1375 
Q 778 941 903 744 
Q 1122 391 1694 391 
Q 2138 391 2406 628 
Q 2675 866 2675 1241 
Q 2675 1703 2392 1887 
Q 2109 2072 1606 2072 
Q 1550 2072 1492 2070 
Q 1434 2069 1375 2066 
L 1375 2563 
Q 1463 2553 1522 2550 
Q 1581 2547 1650 2547 
Q 1966 2547 2169 2647 
Q 2525 2822 2525 3272 
Q 2525 3606 2287 3787 
Q 2050 3969 1734 3969 
Q 1172 3969 956 3594 
Q 838 3388 822 3006 
L 266 3006 
Q 266 3506 466 3856 
Q 809 4481 1675 4481 
Q 2359 4481 2734 4176 
Q 3109 3872 3109 3294 
Q 3109 2881 2888 2625 
Q 2750 2466 2531 2375 
Q 2884 2278 3082 2001 
Q 3281 1725 3281 1325 
Q 3281 684 2859 281 
Q 2438 -122 1663 -122 
z
" transform="scale(0.015625)"/>
       </defs>
       <use xlink:href="#Helvetica-33"/>
       <use xlink:href="#Helvetica-30" x="55.615234"/>
       <use xlink:href="#Helvetica-30" x="111.230469"/>
       <use xlink:href="#Helvetica-30" x="166.845703"/>
      </g>
     </g>
    </g>
    <g id="ytick_5">
     <g id="line2d_5">
      <g>
       <use xlink:href="#m21e6e6d572" x="11.673365" y="16.206497" style="fill: #777777; stroke: #777777; stroke-width: 0.5"/>
      </g>
     </g>
     <g id="text_7">
      <!-- 4000 -->
      <g style="fill: #333333" transform="translate(3.00024 17.282513) scale(0.03 -0.03)">
       <defs>
        <path id="Helvetica-34" d="M 2116 1584 
L 2116 3613 
L 681 1584 
L 2116 1584 
z
M 2125 0 
L 2125 1094 
L 163 1094 
L 163 1644 
L 2213 4488 
L 2688 4488 
L 2688 1584 
L 3347 1584 
L 3347 1094 
L 2688 1094 
L 2688 0 
L 2125 0 
z
" transform="scale(0.015625)"/>
       </defs>
       <use xlink:href="#Helvetica-34"/>
       <use xlink:href="#Helvetica-30" x="55.615234"/>
       <use xlink:href="#Helvetica-30" x="111.230469"/>
       <use xlink:href="#Helvetica-30" x="166.845703"/>
      </g>
     </g>
    </g>
    <g id="ytick_6">
     <g id="line2d_6">
      <g>
       <use xlink:href="#m21e6e6d572" x="11.673365" y="4.076256" style="fill: #777777; stroke: #777777; stroke-width: 0.5"/>
      </g>
     </g>
     <g id="text_8">
      <!-- 5000 -->
      <g style="fill: #333333" transform="translate(3.00024 5.152271) scale(0.03 -0.03)">
       <defs>
        <path id="Helvetica-35" d="M 791 1141 
Q 847 659 1238 475 
Q 1438 381 1700 381 
Q 2200 381 2440 700 
Q 2681 1019 2681 1406 
Q 2681 1875 2395 2131 
Q 2109 2388 1709 2388 
Q 1419 2388 1211 2275 
Q 1003 2163 856 1963 
L 369 1991 
L 709 4400 
L 3034 4400 
L 3034 3856 
L 1131 3856 
L 941 2613 
Q 1097 2731 1238 2791 
Q 1488 2894 1816 2894 
Q 2431 2894 2859 2497 
Q 3288 2100 3288 1491 
Q 3288 856 2895 371 
Q 2503 -113 1644 -113 
Q 1097 -113 676 195 
Q 256 503 206 1141 
L 791 1141 
z
" transform="scale(0.015625)"/>
       </defs>
       <use xlink:href="#Helvetica-35"/>
       <use xlink:href="#Helvetica-30" x="55.615234"/>
       <use xlink:href="#Helvetica-30" x="111.230469"/>
       <use xlink:href="#Helvetica-30" x="166.845703"/>
      </g>
     </g>
    </g>
   </g>
   <g id="PolyCollection_1">
    <defs>
     <path id="md9fb24ab89" d="M 23.481421 -19.614465 
L 20.608506 -19.614465 
L 20.297601 -19.695616 
L 19.944215 -19.776768 
L 19.548827 -19.857919 
L 19.113605 -19.93907 
L 18.642607 -20.020222 
L 18.141893 -20.101373 
L 17.619527 -20.182524 
L 17.085449 -20.263676 
L 16.551202 -20.344827 
L 16.029527 -20.425978 
L 15.533823 -20.50713 
L 15.077509 -20.588281 
L 14.673325 -20.669432 
L 14.332615 -20.750584 
L 14.06465 -20.831735 
L 13.876048 -20.912886 
L 13.770332 -20.994038 
L 13.747685 -21.075189 
L 13.804907 -21.15634 
L 13.935608 -21.237492 
L 14.130612 -21.318643 
L 14.378549 -21.399794 
L 14.666591 -21.480946 
L 14.98128 -21.562097 
L 15.309367 -21.643248 
L 15.638622 -21.7244 
L 15.95852 -21.805551 
L 16.260787 -21.886702 
L 16.539735 -21.967854 
L 16.792401 -22.049005 
L 17.018458 -22.130156 
L 17.219941 -22.211308 
L 17.400816 -22.292459 
L 17.566425 -22.37361 
L 17.72288 -22.454762 
L 17.876447 -22.535913 
L 18.032979 -22.617064 
L 18.197436 -22.698216 
L 18.373523 -22.779367 
L 18.563472 -22.860518 
L 18.767969 -22.94167 
L 18.986209 -23.022821 
L 19.216076 -23.103972 
L 19.454402 -23.185124 
L 19.697287 -23.266275 
L 19.940438 -23.347426 
L 20.179502 -23.428578 
L 20.41036 -23.509729 
L 20.629366 -23.59088 
L 20.833523 -23.672032 
L 21.020582 -23.753183 
L 21.189079 -23.834334 
L 21.338303 -23.915486 
L 21.468227 -23.996637 
L 21.579389 -24.077788 
L 21.672762 -24.15894 
L 21.749616 -24.240091 
L 21.811377 -24.321242 
L 21.859506 -24.402394 
L 21.895386 -24.483545 
L 21.920244 -24.564696 
L 21.935084 -24.645848 
L 21.940656 -24.726999 
L 21.937436 -24.80815 
L 21.925643 -24.889302 
L 21.905259 -24.970453 
L 21.876084 -25.051604 
L 21.837798 -25.132756 
L 21.790036 -25.213907 
L 21.732479 -25.295058 
L 21.664944 -25.37621 
L 21.587484 -25.457361 
L 21.500467 -25.538512 
L 21.404663 -25.619664 
L 21.30129 -25.700815 
L 21.192048 -25.781966 
L 21.079115 -25.863118 
L 20.965104 -25.944269 
L 20.852988 -26.02542 
L 20.745984 -26.106572 
L 20.647411 -26.187723 
L 20.560523 -26.268874 
L 20.488333 -26.350026 
L 20.433445 -26.431177 
L 20.397894 -26.512328 
L 20.383024 -26.59348 
L 20.389403 -26.674631 
L 20.416786 -26.755782 
L 20.464135 -26.836934 
L 20.529678 -26.918085 
L 20.611025 -26.999236 
L 20.705307 -27.080388 
L 20.80935 -27.161539 
L 20.919845 -27.24269 
L 21.033523 -27.323842 
L 21.147309 -27.404993 
L 21.258453 -27.486144 
L 21.364623 -27.567296 
L 21.463966 -27.648447 
L 22.625962 -27.648447 
L 22.625962 -27.648447 
L 22.725304 -27.567296 
L 22.831474 -27.486144 
L 22.942619 -27.404993 
L 23.056405 -27.323842 
L 23.170082 -27.24269 
L 23.280577 -27.161539 
L 23.38462 -27.080388 
L 23.478903 -26.999236 
L 23.560249 -26.918085 
L 23.625793 -26.836934 
L 23.673141 -26.755782 
L 23.700525 -26.674631 
L 23.706903 -26.59348 
L 23.692033 -26.512328 
L 23.656482 -26.431177 
L 23.601594 -26.350026 
L 23.529405 -26.268874 
L 23.442517 -26.187723 
L 23.343944 -26.106572 
L 23.23694 -26.02542 
L 23.124824 -25.944269 
L 23.010813 -25.863118 
L 22.89788 -25.781966 
L 22.788638 -25.700815 
L 22.685265 -25.619664 
L 22.58946 -25.538512 
L 22.502444 -25.457361 
L 22.424983 -25.37621 
L 22.357449 -25.295058 
L 22.299891 -25.213907 
L 22.25213 -25.132756 
L 22.213843 -25.051604 
L 22.184669 -24.970453 
L 22.164285 -24.889302 
L 22.152491 -24.80815 
L 22.149272 -24.726999 
L 22.154843 -24.645848 
L 22.169684 -24.564696 
L 22.194542 -24.483545 
L 22.230422 -24.402394 
L 22.27855 -24.321242 
L 22.340312 -24.240091 
L 22.417166 -24.15894 
L 22.510539 -24.077788 
L 22.6217 -23.996637 
L 22.751624 -23.915486 
L 22.900849 -23.834334 
L 23.069345 -23.753183 
L 23.256405 -23.672032 
L 23.460561 -23.59088 
L 23.679567 -23.509729 
L 23.910425 -23.428578 
L 24.14949 -23.347426 
L 24.392641 -23.266275 
L 24.635525 -23.185124 
L 24.873851 -23.103972 
L 25.103718 -23.022821 
L 25.321959 -22.94167 
L 25.526456 -22.860518 
L 25.716405 -22.779367 
L 25.892491 -22.698216 
L 26.056948 -22.617064 
L 26.213481 -22.535913 
L 26.367048 -22.454762 
L 26.523502 -22.37361 
L 26.689111 -22.292459 
L 26.869986 -22.211308 
L 27.07147 -22.130156 
L 27.297526 -22.049005 
L 27.550192 -21.967854 
L 27.829141 -21.886702 
L 28.131407 -21.805551 
L 28.451306 -21.7244 
L 28.78056 -21.643248 
L 29.108648 -21.562097 
L 29.423336 -21.480946 
L 29.711378 -21.399794 
L 29.959315 -21.318643 
L 30.15432 -21.237492 
L 30.285021 -21.15634 
L 30.342243 -21.075189 
L 30.319595 -20.994038 
L 30.21388 -20.912886 
L 30.025277 -20.831735 
L 29.757313 -20.750584 
L 29.416602 -20.669432 
L 29.012418 -20.588281 
L 28.556105 -20.50713 
L 28.0604 -20.425978 
L 27.538725 -20.344827 
L 27.004479 -20.263676 
L 26.4704 -20.182524 
L 25.948035 -20.101373 
L 25.447321 -20.020222 
L 24.976323 -19.93907 
L 24.541101 -19.857919 
L 24.145713 -19.776768 
L 23.792327 -19.695616 
L 23.481421 -19.614465 
z
" style="stroke: #717171; stroke-width: 0.15"/>
    </defs>
    <g clip-path="url(#p28bea32407)">
     <use xlink:href="#md9fb24ab89" x="0" y="84.96" style="fill: #d6bba3; stroke: #717171; stroke-width: 0.15"/>
    </g>
   </g>
   <g id="PolyCollection_2">
    <defs>
     <path id="ma923dd40d3" d="M 44.195849 -14.336875 
L 41.380473 -14.336875 
L 41.106227 -14.848926 
L 40.803713 -15.360977 
L 40.475719 -15.873028 
L 40.126281 -16.385079 
L 39.760586 -16.89713 
L 39.384767 -17.409181 
L 39.005616 -17.921232 
L 38.630204 -18.433283 
L 38.265463 -18.945334 
L 37.917744 -19.457386 
L 37.592405 -19.969437 
L 37.293465 -20.481488 
L 37.023356 -20.993539 
L 36.782815 -21.50559 
L 36.570907 -22.017641 
L 36.385203 -22.529692 
L 36.222078 -23.041743 
L 36.0771 -23.553794 
L 35.94548 -24.065845 
L 35.822529 -24.577896 
L 35.704074 -25.089948 
L 35.5868 -25.601999 
L 35.4685 -26.11405 
L 35.348192 -26.626101 
L 35.226133 -27.138152 
L 35.103725 -27.650203 
L 34.983341 -28.162254 
L 34.868093 -28.674305 
L 34.761583 -29.186356 
L 34.667649 -29.698407 
L 34.590136 -30.210458 
L 34.532703 -30.722509 
L 34.498665 -31.234561 
L 34.490882 -31.746612 
L 34.511684 -32.258663 
L 34.562819 -32.770714 
L 34.645434 -33.282765 
L 34.760072 -33.794816 
L 34.906682 -34.306867 
L 35.084643 -34.818918 
L 35.292806 -35.330969 
L 35.529536 -35.84302 
L 35.792774 -36.355071 
L 36.080096 -36.867122 
L 36.388778 -37.379174 
L 36.715852 -37.891225 
L 37.058168 -38.403276 
L 37.412431 -38.915327 
L 37.775245 -39.427378 
L 38.143138 -39.939429 
L 38.512594 -40.45148 
L 38.880083 -40.963531 
L 39.242096 -41.475582 
L 39.595192 -41.987633 
L 39.936057 -42.499684 
L 40.261568 -43.011735 
L 40.568858 -43.523787 
L 40.855385 -44.035838 
L 41.118985 -44.547889 
L 41.35791 -45.05994 
L 41.570842 -45.571991 
L 41.756885 -46.084042 
L 41.915533 -46.596093 
L 42.046615 -47.108144 
L 42.150232 -47.620195 
L 42.226693 -48.132246 
L 42.276454 -48.644297 
L 42.300079 -49.156349 
L 42.298223 -49.6684 
L 42.271651 -50.180451 
L 42.221276 -50.692502 
L 42.148242 -51.204553 
L 42.054009 -51.716604 
L 41.940455 -52.228655 
L 41.809975 -52.740706 
L 41.665545 -53.252757 
L 41.510767 -53.764808 
L 41.349846 -54.276859 
L 41.187522 -54.78891 
L 41.02894 -55.300962 
L 40.879454 -55.813013 
L 40.744398 -56.325064 
L 40.628817 -56.837115 
L 40.537191 -57.349166 
L 40.47318 -57.861217 
L 40.439398 -58.373268 
L 40.437257 -58.885319 
L 40.466872 -59.39737 
L 40.527069 -59.909421 
L 40.615461 -60.421472 
L 40.728609 -60.933523 
L 40.86225 -61.445575 
L 41.011561 -61.957626 
L 41.171447 -62.469677 
L 41.336832 -62.981728 
L 41.502909 -63.493779 
L 41.665366 -64.00583 
L 41.820548 -64.517881 
L 41.965554 -65.029932 
L 43.610768 -65.029932 
L 43.610768 -65.029932 
L 43.755774 -64.517881 
L 43.910956 -64.00583 
L 44.073414 -63.493779 
L 44.239491 -62.981728 
L 44.404875 -62.469677 
L 44.564762 -61.957626 
L 44.714072 -61.445575 
L 44.847713 -60.933523 
L 44.960861 -60.421472 
L 45.049253 -59.909421 
L 45.10945 -59.39737 
L 45.139066 -58.885319 
L 45.136924 -58.373268 
L 45.103143 -57.861217 
L 45.039132 -57.349166 
L 44.947506 -56.837115 
L 44.831924 -56.325064 
L 44.696869 -55.813013 
L 44.547383 -55.300962 
L 44.3888 -54.78891 
L 44.226477 -54.276859 
L 44.065555 -53.764808 
L 43.910777 -53.252757 
L 43.766348 -52.740706 
L 43.635867 -52.228655 
L 43.522314 -51.716604 
L 43.42808 -51.204553 
L 43.355046 -50.692502 
L 43.304672 -50.180451 
L 43.278099 -49.6684 
L 43.276244 -49.156349 
L 43.299869 -48.644297 
L 43.34963 -48.132246 
L 43.42609 -47.620195 
L 43.529708 -47.108144 
L 43.660789 -46.596093 
L 43.819437 -46.084042 
L 44.005481 -45.571991 
L 44.218413 -45.05994 
L 44.457338 -44.547889 
L 44.720938 -44.035838 
L 45.007464 -43.523787 
L 45.314754 -43.011735 
L 45.640265 -42.499684 
L 45.981131 -41.987633 
L 46.334227 -41.475582 
L 46.696239 -40.963531 
L 47.063728 -40.45148 
L 47.433184 -39.939429 
L 47.801077 -39.427378 
L 48.163891 -38.915327 
L 48.518155 -38.403276 
L 48.86047 -37.891225 
L 49.187545 -37.379174 
L 49.496226 -36.867122 
L 49.783548 -36.355071 
L 50.046787 -35.84302 
L 50.283517 -35.330969 
L 50.49168 -34.818918 
L 50.669641 -34.306867 
L 50.81625 -33.794816 
L 50.930889 -33.282765 
L 51.013504 -32.770714 
L 51.064639 -32.258663 
L 51.08544 -31.746612 
L 51.077658 -31.234561 
L 51.04362 -30.722509 
L 50.986187 -30.210458 
L 50.908674 -29.698407 
L 50.814739 -29.186356 
L 50.708229 -28.674305 
L 50.592981 -28.162254 
L 50.472597 -27.650203 
L 50.35019 -27.138152 
L 50.228131 -26.626101 
L 50.107822 -26.11405 
L 49.989522 -25.601999 
L 49.872249 -25.089948 
L 49.753793 -24.577896 
L 49.630842 -24.065845 
L 49.499223 -23.553794 
L 49.354245 -23.041743 
L 49.191119 -22.529692 
L 49.005416 -22.017641 
L 48.793508 -21.50559 
L 48.552966 -20.993539 
L 48.282858 -20.481488 
L 47.983917 -19.969437 
L 47.658579 -19.457386 
L 47.31086 -18.945334 
L 46.946119 -18.433283 
L 46.570707 -17.921232 
L 46.191555 -17.409181 
L 45.815737 -16.89713 
L 45.450041 -16.385079 
L 45.100604 -15.873028 
L 44.77261 -15.360977 
L 44.470096 -14.848926 
L 44.195849 -14.336875 
z
" style="stroke: #717171; stroke-width: 0.15"/>
    </defs>
    <g clip-path="url(#p28bea32407)">
     <use xlink:href="#ma923dd40d3" x="0" y="84.96" style="fill: #f1b9e0; stroke: #717171; stroke-width: 0.15"/>
    </g>
   </g>
   <g id="line2d_7">
    <path d="M 22.044964 64.306829 
L 22.044964 62.223192 
" clip-path="url(#p28bea32407)" style="fill: none; stroke: #8c8c8c; stroke-width: 0.75; stroke-linecap: round"/>
   </g>
   <g id="line2d_8">
    <path d="M 22.044964 63.94173 
L 22.044964 62.360551 
" clip-path="url(#p28bea32407)" style="fill: none; stroke: #8c8c8c; stroke-width: 4; stroke-linecap: round"/>
   </g>
   <g id="line2d_9">
    <path d="M 22.044964 63.811113 
" clip-path="url(#p28bea32407)" style="fill: none; stroke: #717171; stroke-width: 1.2; stroke-linecap: round"/>
    <defs>
     <path id="m2396abf805" d="M 0 0.833333 
C 0.221003 0.833333 0.432983 0.745528 0.589256 0.589256 
C 0.745528 0.432983 0.833333 0.221003 0.833333 0 
C 0.833333 -0.221003 0.745528 -0.432983 0.589256 -0.589256 
C 0.432983 -0.745528 0.221003 -0.833333 0 -0.833333 
C -0.221003 -0.833333 -0.432983 -0.745528 -0.589256 -0.589256 
C -0.745528 -0.432983 -0.833333 -0.221003 -0.833333 0 
C -0.833333 0.221003 -0.745528 0.432983 -0.589256 0.589256 
C -0.432983 0.745528 -0.221003 0.833333 0 0.833333 
z
" style="stroke: #ffffff; stroke-width: 0.8"/>
    </defs>
    <g clip-path="url(#p28bea32407)">
     <use xlink:href="#m2396abf805" x="22.044964" y="63.811113" style="fill: #ffffff; stroke: #ffffff; stroke-width: 0.8"/>
    </g>
   </g>
   <g id="line2d_10">
    <path d="M 42.788161 64.258757 
L 42.788161 45.138116 
" clip-path="url(#p28bea32407)" style="fill: none; stroke: #8c8c8c; stroke-width: 0.75; stroke-linecap: round"/>
   </g>
   <g id="line2d_11">
    <path d="M 42.788161 58.613529 
L 42.788161 48.771695 
" clip-path="url(#p28bea32407)" style="fill: none; stroke: #8c8c8c; stroke-width: 4; stroke-linecap: round"/>
   </g>
   <g id="line2d_12">
    <path d="M 42.788161 53.359695 
" clip-path="url(#p28bea32407)" style="fill: none; stroke: #717171; stroke-width: 1.2; stroke-linecap: round"/>
    <g clip-path="url(#p28bea32407)">
     <use xlink:href="#m2396abf805" x="42.788161" y="53.359695" style="fill: #ffffff; stroke: #ffffff; stroke-width: 0.8"/>
    </g>
   </g>
   <g id="patch_3">
    <path d="M 11.673365 74.419526 
L 11.673365 4.076256 
" style="fill: none; stroke: #777777; stroke-width: 0.5; stroke-linejoin: miter; stroke-linecap: square"/>
   </g>
   <g id="patch_4">
    <path d="M 11.673365 76.919526 
L 53.15976 76.919526 
" style="fill: none; stroke: #777777; stroke-width: 0.5; stroke-linejoin: miter; stroke-linecap: square"/>
   </g>
  </g>
 </g>
 <defs>
  <clipPath id="p28bea32407">
   <rect x="11.673365" y="4.076256" width="41.486395" height="70.34327"/>
  </clipPath>
 </defs>
</svg>
