<?xml version="1.0" encoding="utf-8" standalone="no"?>
<!DOCTYPE svg PUBLIC "-//W3C//DTD SVG 1.1//EN"
  "http://www.w3.org/Graphics/SVG/1.1/DTD/svg11.dtd">
<svg xmlns:xlink="http://www.w3.org/1999/xlink" width="141.12pt" height="84.96pt" viewBox="0 0 141.12 84.96" xmlns="http://www.w3.org/2000/svg" version="1.1">
 <metadata>
  <rdf:RDF xmlns:dc="http://purl.org/dc/elements/1.1/" xmlns:cc="http://creativecommons.org/ns#" xmlns:rdf="http://www.w3.org/1999/02/22-rdf-syntax-ns#">
   <cc:Work>
    <dc:type rdf:resource="http://purl.org/dc/dcmitype/StillImage"/>
    <dc:date>2024-05-27T15:37:19.093240</dc:date>
    <dc:format>image/svg+xml</dc:format>
    <dc:creator>
     <cc:Agent>
      <dc:title>Matplotlib v3.8.3, https://matplotlib.org/</dc:title>
     </cc:Agent>
    </dc:creator>
   </cc:Work>
  </rdf:RDF>
 </metadata>
 <defs>
  <style type="text/css">*{stroke-linejoin: round; stroke-linecap: butt}</style>
 </defs>
 <g id="figure_1">
  <g id="patch_1">
   <path d="M 0 84.96 
L 141.12 84.96 
L 141.12 0 
L 0 0 
z
" style="fill: #ffffff"/>
  </g>
  <g id="axes_1">
   <g id="patch_2">
    <path d="M 13.341646 74.419526 
L 138.11976 74.419526 
L 138.11976 4.076256 
L 13.341646 4.076256 
z
" style="fill: #ffffff"/>
   </g>
   <g id="matplotlib.axis_1">
    <g id="xtick_1">
     <g id="text_1">
      <!-- Immature T -->
      <g style="fill: #333333" transform="translate(16.874497 81.230229) scale(0.035 -0.035)">
       <defs>
        <path id="Helvetica-49" d="M 628 4591 
L 1256 4591 
L 1256 0 
L 628 0 
L 628 4591 
z
" transform="scale(0.015625)"/>
        <path id="Helvetica-6d" d="M 413 3347 
L 969 3347 
L 969 2872 
Q 1169 3119 1331 3231 
Q 1609 3422 1963 3422 
Q 2363 3422 2606 3225 
Q 2744 3113 2856 2894 
Q 3044 3163 3297 3292 
Q 3550 3422 3866 3422 
Q 4541 3422 4784 2934 
Q 4916 2672 4916 2228 
L 4916 0 
L 4331 0 
L 4331 2325 
Q 4331 2659 4164 2784 
Q 3997 2909 3756 2909 
Q 3425 2909 3186 2687 
Q 2947 2466 2947 1947 
L 2947 0 
L 2375 0 
L 2375 2184 
Q 2375 2525 2294 2681 
Q 2166 2916 1816 2916 
Q 1497 2916 1236 2669 
Q 975 2422 975 1775 
L 975 0 
L 413 0 
L 413 3347 
z
" transform="scale(0.015625)"/>
        <path id="Helvetica-61" d="M 844 891 
Q 844 647 1022 506 
Q 1200 366 1444 366 
Q 1741 366 2019 503 
Q 2488 731 2488 1250 
L 2488 1703 
Q 2384 1638 2221 1594 
Q 2059 1550 1903 1531 
L 1563 1488 
Q 1256 1447 1103 1359 
Q 844 1213 844 891 
z
M 2206 2028 
Q 2400 2053 2466 2191 
Q 2503 2266 2503 2406 
Q 2503 2694 2298 2823 
Q 2094 2953 1713 2953 
Q 1272 2953 1088 2716 
Q 984 2584 953 2325 
L 428 2325 
Q 444 2944 830 3186 
Q 1216 3428 1725 3428 
Q 2316 3428 2684 3203 
Q 3050 2978 3050 2503 
L 3050 575 
Q 3050 488 3086 434 
Q 3122 381 3238 381 
Q 3275 381 3322 386 
Q 3369 391 3422 400 
L 3422 -16 
Q 3291 -53 3222 -62 
Q 3153 -72 3034 -72 
Q 2744 -72 2613 134 
Q 2544 244 2516 444 
Q 2344 219 2022 53 
Q 1700 -113 1313 -113 
Q 847 -113 551 170 
Q 256 453 256 878 
Q 256 1344 547 1600 
Q 838 1856 1309 1916 
L 2206 2028 
z
M 1741 3428 
L 1741 3428 
z
" transform="scale(0.015625)"/>
        <path id="Helvetica-74" d="M 525 4281 
L 1094 4281 
L 1094 3347 
L 1628 3347 
L 1628 2888 
L 1094 2888 
L 1094 703 
Q 1094 528 1213 469 
Q 1278 434 1431 434 
Q 1472 434 1519 436 
Q 1566 438 1628 444 
L 1628 0 
Q 1531 -28 1426 -40 
Q 1322 -53 1200 -53 
Q 806 -53 665 148 
Q 525 350 525 672 
L 525 2888 
L 72 2888 
L 72 3347 
L 525 3347 
L 525 4281 
z
" transform="scale(0.015625)"/>
        <path id="Helvetica-75" d="M 975 3347 
L 975 1125 
Q 975 869 1056 706 
Q 1206 406 1616 406 
Q 2203 406 2416 931 
Q 2531 1213 2531 1703 
L 2531 3347 
L 3094 3347 
L 3094 0 
L 2563 0 
L 2569 494 
Q 2459 303 2297 172 
Q 1975 -91 1516 -91 
Q 800 -91 541 388 
Q 400 644 400 1072 
L 400 3347 
L 975 3347 
z
M 1747 3428 
L 1747 3428 
z
" transform="scale(0.015625)"/>
        <path id="Helvetica-72" d="M 428 3347 
L 963 3347 
L 963 2769 
Q 1028 2938 1284 3180 
Q 1541 3422 1875 3422 
Q 1891 3422 1928 3419 
Q 1966 3416 2056 3406 
L 2056 2813 
Q 2006 2822 1964 2825 
Q 1922 2828 1872 2828 
Q 1447 2828 1219 2554 
Q 991 2281 991 1925 
L 991 0 
L 428 0 
L 428 3347 
z
" transform="scale(0.015625)"/>
        <path id="Helvetica-65" d="M 1806 3422 
Q 2163 3422 2497 3255 
Q 2831 3088 3006 2822 
Q 3175 2569 3231 2231 
Q 3281 2000 3281 1494 
L 828 1494 
Q 844 984 1069 676 
Q 1294 369 1766 369 
Q 2206 369 2469 659 
Q 2619 828 2681 1050 
L 3234 1050 
Q 3213 866 3089 639 
Q 2966 413 2813 269 
Q 2556 19 2178 -69 
Q 1975 -119 1719 -119 
Q 1094 -119 659 336 
Q 225 791 225 1609 
Q 225 2416 662 2919 
Q 1100 3422 1806 3422 
z
M 2703 1941 
Q 2669 2306 2544 2525 
Q 2313 2931 1772 2931 
Q 1384 2931 1121 2651 
Q 859 2372 844 1941 
L 2703 1941 
z
M 1753 3428 
L 1753 3428 
z
" transform="scale(0.015625)"/>
        <path id="Helvetica-20" transform="scale(0.015625)"/>
        <path id="Helvetica-54" d="M 3828 4591 
L 3828 4044 
L 2281 4044 
L 2281 0 
L 1650 0 
L 1650 4044 
L 103 4044 
L 103 4591 
L 3828 4591 
z
" transform="scale(0.015625)"/>
       </defs>
       <use xlink:href="#Helvetica-49"/>
       <use xlink:href="#Helvetica-6d" x="27.783203"/>
       <use xlink:href="#Helvetica-6d" x="111.083984"/>
       <use xlink:href="#Helvetica-61" x="194.384766"/>
       <use xlink:href="#Helvetica-74" x="250"/>
       <use xlink:href="#Helvetica-75" x="277.783203"/>
       <use xlink:href="#Helvetica-72" x="333.398438"/>
       <use xlink:href="#Helvetica-65" x="366.699219"/>
       <use xlink:href="#Helvetica-20" x="422.314453"/>
       <use xlink:href="#Helvetica-54" x="450.097656"/>
      </g>
     </g>
    </g>
    <g id="xtick_2">
     <g id="text_2">
      <!-- Mature T -->
      <g style="fill: #333333" transform="translate(43.773987 81.230229) scale(0.035 -0.035)">
       <defs>
        <path id="Helvetica-4d" d="M 472 4591 
L 1363 4591 
L 2681 709 
L 3991 4591 
L 4872 4591 
L 4872 0 
L 4281 0 
L 4281 2709 
Q 4281 2850 4287 3175 
Q 4294 3500 4294 3872 
L 2984 0 
L 2369 0 
L 1050 3872 
L 1050 3731 
Q 1050 3563 1058 3217 
Q 1066 2872 1066 2709 
L 1066 0 
L 472 0 
L 472 4591 
z
" transform="scale(0.015625)"/>
       </defs>
       <use xlink:href="#Helvetica-4d"/>
       <use xlink:href="#Helvetica-61" x="83.300781"/>
       <use xlink:href="#Helvetica-74" x="138.916016"/>
       <use xlink:href="#Helvetica-75" x="166.699219"/>
       <use xlink:href="#Helvetica-72" x="222.314453"/>
       <use xlink:href="#Helvetica-65" x="255.615234"/>
       <use xlink:href="#Helvetica-20" x="311.230469"/>
       <use xlink:href="#Helvetica-54" x="339.013672"/>
      </g>
     </g>
    </g>
    <g id="xtick_3">
     <g id="text_3">
      <!-- IL7R Non T -->
      <g style="fill: #333333" transform="translate(66.783008 81.230229) scale(0.035 -0.035)">
       <defs>
        <path id="Helvetica-4c" d="M 488 4591 
L 1109 4591 
L 1109 547 
L 3434 547 
L 3434 0 
L 488 0 
L 488 4591 
z
" transform="scale(0.015625)"/>
        <path id="Helvetica-37" d="M 3347 4400 
L 3347 3909 
Q 3131 3700 2773 3181 
Q 2416 2663 2141 2063 
Q 1869 1478 1728 997 
Q 1638 688 1494 0 
L 872 0 
Q 1084 1281 1809 2550 
Q 2238 3294 2709 3834 
L 234 3834 
L 234 4400 
L 3347 4400 
z
" transform="scale(0.015625)"/>
        <path id="Helvetica-52" d="M 2622 2488 
Q 3059 2488 3314 2663 
Q 3569 2838 3569 3294 
Q 3569 3784 3213 3963 
Q 3022 4056 2703 4056 
L 1184 4056 
L 1184 2488 
L 2622 2488 
z
M 563 4591 
L 2688 4591 
Q 3213 4591 3553 4438 
Q 4200 4144 4200 3353 
Q 4200 2941 4029 2678 
Q 3859 2416 3553 2256 
Q 3822 2147 3958 1969 
Q 4094 1791 4109 1391 
L 4131 775 
Q 4141 513 4175 384 
Q 4231 166 4375 103 
L 4375 0 
L 3613 0 
Q 3581 59 3562 153 
Q 3544 247 3531 516 
L 3494 1281 
Q 3472 1731 3159 1884 
Q 2981 1969 2600 1969 
L 1184 1969 
L 1184 0 
L 563 0 
L 563 4591 
z
" transform="scale(0.015625)"/>
        <path id="Helvetica-4e" d="M 488 4591 
L 1222 4591 
L 3541 872 
L 3541 4591 
L 4131 4591 
L 4131 0 
L 3434 0 
L 1081 3716 
L 1081 0 
L 488 0 
L 488 4591 
z
M 2269 4591 
L 2269 4591 
z
" transform="scale(0.015625)"/>
        <path id="Helvetica-6f" d="M 1741 363 
Q 2300 363 2508 786 
Q 2716 1209 2716 1728 
Q 2716 2197 2566 2491 
Q 2328 2953 1747 2953 
Q 1231 2953 997 2559 
Q 763 2166 763 1609 
Q 763 1075 997 719 
Q 1231 363 1741 363 
z
M 1763 3444 
Q 2409 3444 2856 3012 
Q 3303 2581 3303 1744 
Q 3303 934 2909 406 
Q 2516 -122 1688 -122 
Q 997 -122 590 345 
Q 184 813 184 1600 
Q 184 2444 612 2944 
Q 1041 3444 1763 3444 
z
M 1744 3428 
L 1744 3428 
z
" transform="scale(0.015625)"/>
        <path id="Helvetica-6e" d="M 413 3347 
L 947 3347 
L 947 2872 
Q 1184 3166 1450 3294 
Q 1716 3422 2041 3422 
Q 2753 3422 3003 2925 
Q 3141 2653 3141 2147 
L 3141 0 
L 2569 0 
L 2569 2109 
Q 2569 2416 2478 2603 
Q 2328 2916 1934 2916 
Q 1734 2916 1606 2875 
Q 1375 2806 1200 2600 
Q 1059 2434 1017 2257 
Q 975 2081 975 1753 
L 975 0 
L 413 0 
L 413 3347 
z
M 1734 3428 
L 1734 3428 
z
" transform="scale(0.015625)"/>
       </defs>
       <use xlink:href="#Helvetica-49"/>
       <use xlink:href="#Helvetica-4c" x="27.783203"/>
       <use xlink:href="#Helvetica-37" x="83.398438"/>
       <use xlink:href="#Helvetica-52" x="139.013672"/>
       <use xlink:href="#Helvetica-20" x="211.230469"/>
       <use xlink:href="#Helvetica-4e" x="239.013672"/>
       <use xlink:href="#Helvetica-6f" x="311.230469"/>
       <use xlink:href="#Helvetica-6e" x="366.845703"/>
       <use xlink:href="#Helvetica-20" x="422.460938"/>
       <use xlink:href="#Helvetica-54" x="450.244141"/>
      </g>
     </g>
    </g>
    <g id="xtick_4">
     <g id="text_4">
      <!-- IL7R Immature T -->
      <g style="fill: #333333" transform="translate(87.558865 81.230229) scale(0.035 -0.035)">
       <use xlink:href="#Helvetica-49"/>
       <use xlink:href="#Helvetica-4c" x="27.783203"/>
       <use xlink:href="#Helvetica-37" x="83.398438"/>
       <use xlink:href="#Helvetica-52" x="139.013672"/>
       <use xlink:href="#Helvetica-20" x="211.230469"/>
       <use xlink:href="#Helvetica-49" x="239.013672"/>
       <use xlink:href="#Helvetica-6d" x="266.796875"/>
       <use xlink:href="#Helvetica-6d" x="350.097656"/>
       <use xlink:href="#Helvetica-61" x="433.398438"/>
       <use xlink:href="#Helvetica-74" x="489.013672"/>
       <use xlink:href="#Helvetica-75" x="516.796875"/>
       <use xlink:href="#Helvetica-72" x="572.412109"/>
       <use xlink:href="#Helvetica-65" x="605.712891"/>
       <use xlink:href="#Helvetica-20" x="661.328125"/>
       <use xlink:href="#Helvetica-54" x="689.111328"/>
      </g>
     </g>
    </g>
    <g id="xtick_5">
     <g id="text_5">
      <!-- IL7R Mature T -->
      <g style="fill: #333333" transform="translate(114.458355 81.230229) scale(0.035 -0.035)">
       <use xlink:href="#Helvetica-49"/>
       <use xlink:href="#Helvetica-4c" x="27.783203"/>
       <use xlink:href="#Helvetica-37" x="83.398438"/>
       <use xlink:href="#Helvetica-52" x="139.013672"/>
       <use xlink:href="#Helvetica-20" x="211.230469"/>
       <use xlink:href="#Helvetica-4d" x="239.013672"/>
       <use xlink:href="#Helvetica-61" x="322.314453"/>
       <use xlink:href="#Helvetica-74" x="377.929688"/>
       <use xlink:href="#Helvetica-75" x="405.712891"/>
       <use xlink:href="#Helvetica-72" x="461.328125"/>
       <use xlink:href="#Helvetica-65" x="494.628906"/>
       <use xlink:href="#Helvetica-20" x="550.244141"/>
       <use xlink:href="#Helvetica-54" x="578.027344"/>
      </g>
     </g>
    </g>
   </g>
   <g id="matplotlib.axis_2">
    <g id="ytick_1">
     <g id="line2d_1">
      <defs>
       <path id="md034bbeabd" d="M 0 0 
L -1 0 
" style="stroke: #777777; stroke-width: 0.5"/>
      </defs>
      <g>
       <use xlink:href="#md034bbeabd" x="13.341646" y="68.030497" style="fill: #777777; stroke: #777777; stroke-width: 0.5"/>
      </g>
     </g>
     <g id="text_6">
      <!-- 0 -->
      <g style="fill: #333333" transform="translate(9.673365 69.106513) scale(0.03 -0.03)">
       <defs>
        <path id="Helvetica-30" d="M 1731 4475 
Q 2600 4475 2988 3759 
Q 3288 3206 3288 2244 
Q 3288 1331 3016 734 
Q 2622 -122 1728 -122 
Q 922 -122 528 578 
Q 200 1163 200 2147 
Q 200 2909 397 3456 
Q 766 4475 1731 4475 
z
M 1725 391 
Q 2163 391 2422 778 
Q 2681 1166 2681 2222 
Q 2681 2984 2493 3476 
Q 2306 3969 1766 3969 
Q 1269 3969 1039 3501 
Q 809 3034 809 2125 
Q 809 1441 956 1025 
Q 1181 391 1725 391 
z
" transform="scale(0.015625)"/>
       </defs>
       <use xlink:href="#Helvetica-30"/>
      </g>
     </g>
    </g>
    <g id="ytick_2">
     <g id="line2d_2">
      <g>
       <use xlink:href="#md034bbeabd" x="13.341646" y="55.239649" style="fill: #777777; stroke: #777777; stroke-width: 0.5"/>
      </g>
     </g>
     <g id="text_7">
      <!-- 2000 -->
      <g style="fill: #333333" transform="translate(4.668521 56.315664) scale(0.03 -0.03)">
       <defs>
        <path id="Helvetica-32" d="M 200 0 
Q 231 578 439 1006 
Q 647 1434 1250 1784 
L 1850 2131 
Q 2253 2366 2416 2531 
Q 2672 2791 2672 3125 
Q 2672 3516 2437 3745 
Q 2203 3975 1813 3975 
Q 1234 3975 1013 3538 
Q 894 3303 881 2888 
L 309 2888 
Q 319 3472 525 3841 
Q 891 4491 1816 4491 
Q 2584 4491 2939 4075 
Q 3294 3659 3294 3150 
Q 3294 2613 2916 2231 
Q 2697 2009 2131 1694 
L 1703 1456 
Q 1397 1288 1222 1134 
Q 909 863 828 531 
L 3272 531 
L 3272 0 
L 200 0 
z
" transform="scale(0.015625)"/>
       </defs>
       <use xlink:href="#Helvetica-32"/>
       <use xlink:href="#Helvetica-30" x="55.615234"/>
       <use xlink:href="#Helvetica-30" x="111.230469"/>
       <use xlink:href="#Helvetica-30" x="166.845703"/>
      </g>
     </g>
    </g>
    <g id="ytick_3">
     <g id="line2d_3">
      <g>
       <use xlink:href="#md034bbeabd" x="13.341646" y="42.4488" style="fill: #777777; stroke: #777777; stroke-width: 0.5"/>
      </g>
     </g>
     <g id="text_8">
      <!-- 4000 -->
      <g style="fill: #333333" transform="translate(4.668521 43.524816) scale(0.03 -0.03)">
       <defs>
        <path id="Helvetica-34" d="M 2116 1584 
L 2116 3613 
L 681 1584 
L 2116 1584 
z
M 2125 0 
L 2125 1094 
L 163 1094 
L 163 1644 
L 2213 4488 
L 2688 4488 
L 2688 1584 
L 3347 1584 
L 3347 1094 
L 2688 1094 
L 2688 0 
L 2125 0 
z
" transform="scale(0.015625)"/>
       </defs>
       <use xlink:href="#Helvetica-34"/>
       <use xlink:href="#Helvetica-30" x="55.615234"/>
       <use xlink:href="#Helvetica-30" x="111.230469"/>
       <use xlink:href="#Helvetica-30" x="166.845703"/>
      </g>
     </g>
    </g>
    <g id="ytick_4">
     <g id="line2d_4">
      <g>
       <use xlink:href="#md034bbeabd" x="13.341646" y="29.657952" style="fill: #777777; stroke: #777777; stroke-width: 0.5"/>
      </g>
     </g>
     <g id="text_9">
      <!-- 6000 -->
      <g style="fill: #333333" transform="translate(4.668521 30.733968) scale(0.03 -0.03)">
       <defs>
        <path id="Helvetica-36" d="M 1872 4494 
Q 2622 4494 2917 4105 
Q 3213 3716 3213 3303 
L 2656 3303 
Q 2606 3569 2497 3719 
Q 2294 4000 1881 4000 
Q 1409 4000 1131 3564 
Q 853 3128 822 2316 
Q 1016 2600 1309 2741 
Q 1578 2866 1909 2866 
Q 2472 2866 2890 2506 
Q 3309 2147 3309 1434 
Q 3309 825 2912 354 
Q 2516 -116 1781 -116 
Q 1153 -116 697 361 
Q 241 838 241 1966 
Q 241 2800 444 3381 
Q 834 4494 1872 4494 
z
M 1831 384 
Q 2275 384 2495 682 
Q 2716 981 2716 1388 
Q 2716 1731 2519 2042 
Q 2322 2353 1803 2353 
Q 1441 2353 1167 2112 
Q 894 1872 894 1388 
Q 894 963 1142 673 
Q 1391 384 1831 384 
z
" transform="scale(0.015625)"/>
       </defs>
       <use xlink:href="#Helvetica-36"/>
       <use xlink:href="#Helvetica-30" x="55.615234"/>
       <use xlink:href="#Helvetica-30" x="111.230469"/>
       <use xlink:href="#Helvetica-30" x="166.845703"/>
      </g>
     </g>
    </g>
    <g id="ytick_5">
     <g id="line2d_5">
      <g>
       <use xlink:href="#md034bbeabd" x="13.341646" y="16.867104" style="fill: #777777; stroke: #777777; stroke-width: 0.5"/>
      </g>
     </g>
     <g id="text_10">
      <!-- 8000 -->
      <g style="fill: #333333" transform="translate(4.668521 17.94312) scale(0.03 -0.03)">
       <defs>
        <path id="Helvetica-38" d="M 1741 2600 
Q 2113 2600 2322 2808 
Q 2531 3016 2531 3303 
Q 2531 3553 2331 3762 
Q 2131 3972 1722 3972 
Q 1316 3972 1134 3762 
Q 953 3553 953 3272 
Q 953 2956 1187 2778 
Q 1422 2600 1741 2600 
z
M 1775 384 
Q 2166 384 2423 595 
Q 2681 806 2681 1225 
Q 2681 1659 2415 1884 
Q 2150 2109 1734 2109 
Q 1331 2109 1076 1879 
Q 822 1650 822 1244 
Q 822 894 1055 639 
Q 1288 384 1775 384 
z
M 975 2384 
Q 741 2484 609 2619 
Q 363 2869 363 3269 
Q 363 3769 725 4128 
Q 1088 4488 1753 4488 
Q 2397 4488 2762 4148 
Q 3128 3809 3128 3356 
Q 3128 2938 2916 2678 
Q 2797 2531 2547 2391 
Q 2825 2263 2984 2097 
Q 3281 1784 3281 1284 
Q 3281 694 2884 283 
Q 2488 -128 1763 -128 
Q 1109 -128 657 226 
Q 206 581 206 1256 
Q 206 1653 400 1942 
Q 594 2231 975 2384 
z
" transform="scale(0.015625)"/>
       </defs>
       <use xlink:href="#Helvetica-38"/>
       <use xlink:href="#Helvetica-30" x="55.615234"/>
       <use xlink:href="#Helvetica-30" x="111.230469"/>
       <use xlink:href="#Helvetica-30" x="166.845703"/>
      </g>
     </g>
    </g>
    <g id="ytick_6">
     <g id="line2d_6">
      <g>
       <use xlink:href="#md034bbeabd" x="13.341646" y="4.076256" style="fill: #777777; stroke: #777777; stroke-width: 0.5"/>
      </g>
     </g>
     <g id="text_11">
      <!-- 10000 -->
      <g style="fill: #333333" transform="translate(3.00024 5.152271) scale(0.03 -0.03)">
       <defs>
        <path id="Helvetica-31" d="M 613 3169 
L 613 3600 
Q 1222 3659 1462 3798 
Q 1703 3938 1822 4456 
L 2266 4456 
L 2266 0 
L 1666 0 
L 1666 3169 
L 613 3169 
z
" transform="scale(0.015625)"/>
       </defs>
       <use xlink:href="#Helvetica-31"/>
       <use xlink:href="#Helvetica-30" x="55.615234"/>
       <use xlink:href="#Helvetica-30" x="111.230469"/>
       <use xlink:href="#Helvetica-30" x="166.845703"/>
       <use xlink:href="#Helvetica-30" x="222.460938"/>
      </g>
     </g>
    </g>
   </g>
   <g id="PolyCollection_1">
    <defs>
     <path id="mb957e12c69" d="M 26.798825 -14.147103 
L 24.84009 -14.147103 
L 24.537945 -14.645427 
L 24.172097 -15.143752 
L 23.738831 -15.642077 
L 23.237243 -16.140401 
L 22.669962 -16.638726 
L 22.043675 -17.13705 
L 21.369367 -17.635375 
L 20.662142 -18.133699 
L 19.940618 -18.632024 
L 19.225847 -19.130349 
L 18.53987 -19.628673 
L 17.904021 -20.126998 
L 17.337181 -20.625322 
L 16.854209 -21.123647 
L 16.464766 -21.621971 
L 16.1727 -22.120296 
L 15.976087 -22.618621 
L 15.867901 -23.116945 
L 15.837209 -23.61527 
L 15.870666 -24.113594 
L 15.954074 -24.611919 
L 16.07375 -25.110243 
L 16.217513 -25.608568 
L 16.375184 -26.106892 
L 16.53862 -26.605217 
L 16.701355 -27.103542 
L 16.858063 -27.601866 
L 17.004007 -28.100191 
L 17.134671 -28.598515 
L 17.2457 -29.09684 
L 17.333161 -29.595164 
L 17.394093 -30.093489 
L 17.427221 -30.591814 
L 17.433652 -31.090138 
L 17.417406 -31.588463 
L 17.385615 -32.086787 
L 17.348312 -32.585112 
L 17.317793 -33.083436 
L 17.307601 -33.581761 
L 17.331253 -34.080085 
L 17.400872 -34.57841 
L 17.525904 -35.076735 
L 17.712083 -35.575059 
L 17.960783 -36.073384 
L 18.268837 -36.571708 
L 18.628832 -37.070033 
L 19.029852 -37.568357 
L 19.458537 -38.066682 
L 19.900359 -38.565007 
L 20.340928 -39.063331 
L 20.767197 -39.561656 
L 21.168442 -40.05998 
L 21.536924 -40.558305 
L 21.868201 -41.056629 
L 22.161097 -41.554954 
L 22.417359 -42.053279 
L 22.641083 -42.551603 
L 22.837991 -43.049928 
L 23.014634 -43.548252 
L 23.177608 -44.046577 
L 23.332845 -44.544901 
L 23.485021 -45.043226 
L 23.63712 -45.54155 
L 23.790171 -46.039875 
L 23.943154 -46.5382 
L 24.093087 -47.036524 
L 24.235265 -47.534849 
L 24.363642 -48.033173 
L 24.471327 -48.531498 
L 24.551156 -49.029822 
L 24.596328 -49.528147 
L 24.601039 -50.026472 
L 24.5611 -50.524796 
L 24.474488 -51.023121 
L 24.34178 -51.521445 
L 24.166432 -52.01977 
L 23.954861 -52.518094 
L 23.716291 -53.016419 
L 23.462353 -53.514744 
L 23.20644 -54.013068 
L 22.962858 -54.511393 
L 22.745829 -55.009717 
L 22.568451 -55.508042 
L 22.441698 -56.006366 
L 22.373585 -56.504691 
L 22.368584 -57.003015 
L 22.427344 -57.50134 
L 22.546762 -57.999665 
L 22.720372 -58.497989 
L 22.939006 -58.996314 
L 23.191644 -59.494638 
L 23.466355 -59.992963 
L 23.751221 -60.491287 
L 24.035162 -60.989612 
L 24.308583 -61.487937 
L 24.563819 -61.986261 
L 24.795342 -62.484586 
L 24.999772 -62.98291 
L 25.175704 -63.481235 
L 26.463212 -63.481235 
L 26.463212 -63.481235 
L 26.639143 -62.98291 
L 26.843573 -62.484586 
L 27.075096 -61.986261 
L 27.330332 -61.487937 
L 27.603753 -60.989612 
L 27.887694 -60.491287 
L 28.17256 -59.992963 
L 28.447272 -59.494638 
L 28.69991 -58.996314 
L 28.918543 -58.497989 
L 29.092153 -57.999665 
L 29.211571 -57.50134 
L 29.270331 -57.003015 
L 29.26533 -56.504691 
L 29.197218 -56.006366 
L 29.070464 -55.508042 
L 28.893086 -55.009717 
L 28.676057 -54.511393 
L 28.432475 -54.013068 
L 28.176562 -53.514744 
L 27.922624 -53.016419 
L 27.684054 -52.518094 
L 27.472483 -52.01977 
L 27.297135 -51.521445 
L 27.164427 -51.023121 
L 27.077815 -50.524796 
L 27.037876 -50.026472 
L 27.042587 -49.528147 
L 27.087759 -49.029822 
L 27.167589 -48.531498 
L 27.275273 -48.033173 
L 27.40365 -47.534849 
L 27.545828 -47.036524 
L 27.695761 -46.5382 
L 27.848744 -46.039875 
L 28.001795 -45.54155 
L 28.153895 -45.043226 
L 28.30607 -44.544901 
L 28.461307 -44.046577 
L 28.624281 -43.548252 
L 28.800924 -43.049928 
L 28.997832 -42.551603 
L 29.221557 -42.053279 
L 29.477818 -41.554954 
L 29.770714 -41.056629 
L 30.101992 -40.558305 
L 30.470473 -40.05998 
L 30.871718 -39.561656 
L 31.297988 -39.063331 
L 31.738556 -38.565007 
L 32.180378 -38.066682 
L 32.609064 -37.568357 
L 33.010083 -37.070033 
L 33.370079 -36.571708 
L 33.678132 -36.073384 
L 33.926832 -35.575059 
L 34.113011 -35.076735 
L 34.238043 -34.57841 
L 34.307662 -34.080085 
L 34.331314 -33.581761 
L 34.321122 -33.083436 
L 34.290603 -32.585112 
L 34.2533 -32.086787 
L 34.221509 -31.588463 
L 34.205263 -31.090138 
L 34.211695 -30.591814 
L 34.244822 -30.093489 
L 34.305754 -29.595164 
L 34.393215 -29.09684 
L 34.504244 -28.598515 
L 34.634909 -28.100191 
L 34.780852 -27.601866 
L 34.93756 -27.103542 
L 35.100295 -26.605217 
L 35.263731 -26.106892 
L 35.421403 -25.608568 
L 35.565165 -25.110243 
L 35.684841 -24.611919 
L 35.76825 -24.113594 
L 35.801707 -23.61527 
L 35.771015 -23.116945 
L 35.662829 -22.618621 
L 35.466215 -22.120296 
L 35.174149 -21.621971 
L 34.784706 -21.123647 
L 34.301734 -20.625322 
L 33.734894 -20.126998 
L 33.099045 -19.628673 
L 32.413068 -19.130349 
L 31.698297 -18.632024 
L 30.976773 -18.133699 
L 30.269549 -17.635375 
L 29.59524 -17.13705 
L 28.968954 -16.638726 
L 28.401672 -16.140401 
L 27.900084 -15.642077 
L 27.466819 -15.143752 
L 27.10097 -14.645427 
L 26.798825 -14.147103 
z
" style="stroke: #525252; stroke-width: 0.15"/>
    </defs>
    <g clip-path="url(#p4632be6cf5)">
     <use xlink:href="#mb957e12c69" x="0" y="84.96" style="fill: #c3c3a2; stroke: #525252; stroke-width: 0.15"/>
    </g>
   </g>
   <g id="PolyCollection_2">
    <defs>
     <path id="m6dddc5ef31" d="M 51.479736 -12.891402 
L 50.070425 -12.891402 
L 49.886439 -13.345717 
L 49.67365 -13.800032 
L 49.432098 -14.254348 
L 49.162441 -14.708663 
L 48.865672 -15.162979 
L 48.542744 -15.617294 
L 48.194174 -16.07161 
L 47.819712 -16.525925 
L 47.418195 -16.98024 
L 46.987667 -17.434556 
L 46.525825 -17.888871 
L 46.030802 -18.343187 
L 45.502195 -18.797502 
L 44.942219 -19.251818 
L 44.356779 -19.706133 
L 43.756255 -20.160448 
L 43.155803 -20.614764 
L 42.575021 -21.069079 
L 42.03695 -21.523395 
L 41.566469 -21.97771 
L 41.188243 -22.432025 
L 40.924488 -22.886341 
L 40.792831 -23.340656 
L 40.804568 -23.794972 
L 40.963519 -24.249287 
L 41.265641 -24.703603 
L 41.699403 -25.157918 
L 42.246853 -25.612233 
L 42.885202 -26.066549 
L 43.588704 -26.520864 
L 44.330604 -26.97518 
L 45.084949 -27.429495 
L 45.828081 -27.883811 
L 46.539742 -28.338126 
L 47.203729 -28.792441 
L 47.808131 -29.246757 
L 48.345209 -29.701072 
L 48.810982 -30.155388 
L 49.204639 -30.609703 
L 49.52784 -31.064019 
L 49.784011 -31.518334 
L 49.977681 -31.972649 
L 50.113921 -32.426965 
L 50.197926 -32.88128 
L 50.234745 -33.335596 
L 50.229165 -33.789911 
L 50.185736 -34.244226 
L 50.108899 -34.698542 
L 50.00318 -35.152857 
L 49.873407 -35.607173 
L 49.724889 -36.061488 
L 49.563518 -36.515804 
L 49.395758 -36.970119 
L 49.228511 -37.424434 
L 49.068844 -37.87875 
L 48.923615 -38.333065 
L 48.799039 -38.787381 
L 48.700236 -39.241696 
L 48.630848 -39.696012 
L 48.592759 -40.150327 
L 48.585981 -40.604642 
L 48.608721 -41.058958 
L 48.65763 -41.513273 
L 48.728191 -41.967589 
L 48.815194 -42.421904 
L 48.913237 -42.87622 
L 49.017156 -43.330535 
L 49.122357 -43.78485 
L 49.224985 -44.239166 
L 49.321953 -44.693481 
L 49.410835 -45.147797 
L 49.489693 -45.602112 
L 49.556884 -46.056427 
L 49.610919 -46.510743 
L 49.650426 -46.965058 
L 49.674222 -47.419374 
L 49.681494 -47.873689 
L 49.672061 -48.328005 
L 49.646647 -48.78232 
L 49.607096 -49.236635 
L 49.556489 -49.690951 
L 49.499092 -50.145266 
L 49.440142 -50.599582 
L 49.385457 -51.053897 
L 49.340945 -51.508213 
L 49.312041 -51.962528 
L 49.303181 -52.416843 
L 49.317353 -52.871159 
L 49.35582 -53.325474 
L 49.418024 -53.77979 
L 49.501689 -54.234105 
L 49.603104 -54.688421 
L 49.717542 -55.142736 
L 49.839743 -55.597051 
L 49.964416 -56.051367 
L 50.086671 -56.505682 
L 50.202373 -56.959998 
L 50.308357 -57.414313 
L 50.402522 -57.868628 
L 51.147639 -57.868628 
L 51.147639 -57.868628 
L 51.241804 -57.414313 
L 51.347788 -56.959998 
L 51.46349 -56.505682 
L 51.585745 -56.051367 
L 51.710417 -55.597051 
L 51.832619 -55.142736 
L 51.947057 -54.688421 
L 52.048472 -54.234105 
L 52.132136 -53.77979 
L 52.19434 -53.325474 
L 52.232808 -52.871159 
L 52.24698 -52.416843 
L 52.238119 -51.962528 
L 52.209216 -51.508213 
L 52.164703 -51.053897 
L 52.110019 -50.599582 
L 52.051068 -50.145266 
L 51.993672 -49.690951 
L 51.943065 -49.236635 
L 51.903514 -48.78232 
L 51.878099 -48.328005 
L 51.868667 -47.873689 
L 51.875939 -47.419374 
L 51.899734 -46.965058 
L 51.939242 -46.510743 
L 51.993277 -46.056427 
L 52.060467 -45.602112 
L 52.139325 -45.147797 
L 52.228208 -44.693481 
L 52.325176 -44.239166 
L 52.427804 -43.78485 
L 52.533005 -43.330535 
L 52.636924 -42.87622 
L 52.734967 -42.421904 
L 52.82197 -41.967589 
L 52.89253 -41.513273 
L 52.94144 -41.058958 
L 52.96418 -40.604642 
L 52.957402 -40.150327 
L 52.919313 -39.696012 
L 52.849925 -39.241696 
L 52.751122 -38.787381 
L 52.626545 -38.333065 
L 52.481317 -37.87875 
L 52.321649 -37.424434 
L 52.154403 -36.970119 
L 51.986643 -36.515804 
L 51.825272 -36.061488 
L 51.676754 -35.607173 
L 51.546981 -35.152857 
L 51.441262 -34.698542 
L 51.364424 -34.244226 
L 51.320995 -33.789911 
L 51.315416 -33.335596 
L 51.352235 -32.88128 
L 51.43624 -32.426965 
L 51.57248 -31.972649 
L 51.766149 -31.518334 
L 52.022321 -31.064019 
L 52.345522 -30.609703 
L 52.739179 -30.155388 
L 53.204952 -29.701072 
L 53.742029 -29.246757 
L 54.346432 -28.792441 
L 55.010419 -28.338126 
L 55.72208 -27.883811 
L 56.465212 -27.429495 
L 57.219557 -26.97518 
L 57.961457 -26.520864 
L 58.664959 -26.066549 
L 59.303307 -25.612233 
L 59.850758 -25.157918 
L 60.28452 -24.703603 
L 60.586642 -24.249287 
L 60.745593 -23.794972 
L 60.757329 -23.340656 
L 60.625673 -22.886341 
L 60.361917 -22.432025 
L 59.983692 -21.97771 
L 59.513211 -21.523395 
L 58.97514 -21.069079 
L 58.394357 -20.614764 
L 57.793905 -20.160448 
L 57.193382 -19.706133 
L 56.607942 -19.251818 
L 56.047966 -18.797502 
L 55.519359 -18.343187 
L 55.024336 -17.888871 
L 54.562494 -17.434556 
L 54.131966 -16.98024 
L 53.730449 -16.525925 
L 53.355987 -16.07161 
L 53.007417 -15.617294 
L 52.684489 -15.162979 
L 52.38772 -14.708663 
L 52.118063 -14.254348 
L 51.876511 -13.800032 
L 51.663722 -13.345717 
L 51.479736 -12.891402 
z
" style="stroke: #525252; stroke-width: 0.15"/>
    </defs>
    <g clip-path="url(#p4632be6cf5)">
     <use xlink:href="#m6dddc5ef31" x="0" y="84.96" style="fill: #cbcbaf; stroke: #525252; stroke-width: 0.15"/>
    </g>
   </g>
   <g id="PolyCollection_3">
    <defs>
     <path id="m0017c55000" d="M 76.719748 -16.097005 
L 74.741658 -16.097005 
L 74.464656 -16.493531 
L 74.142986 -16.890057 
L 73.779079 -17.286584 
L 73.377968 -17.68311 
L 72.947092 -18.079636 
L 72.49577 -18.476163 
L 72.034373 -18.872689 
L 71.573309 -19.269216 
L 71.121941 -19.665742 
L 70.687653 -20.062268 
L 70.275176 -20.458795 
L 69.886349 -20.855321 
L 69.52031 -21.251847 
L 69.174117 -21.648374 
L 68.843655 -22.0449 
L 68.524667 -22.441427 
L 68.213704 -22.837953 
L 67.908829 -23.234479 
L 67.609986 -23.631006 
L 67.318976 -24.027532 
L 67.039141 -24.424059 
L 66.774841 -24.820585 
L 66.5309 -25.217111 
L 66.312145 -25.613638 
L 66.123139 -26.010164 
L 65.968133 -26.40669 
L 65.851208 -26.803217 
L 65.776507 -27.199743 
L 65.748454 -27.59627 
L 65.771848 -27.992796 
L 65.851742 -28.389322 
L 65.993101 -28.785849 
L 66.200232 -29.182375 
L 66.476094 -29.578901 
L 66.821553 -29.975428 
L 67.234742 -30.371954 
L 67.710597 -30.768481 
L 68.24069 -31.165007 
L 68.813385 -31.561533 
L 69.414332 -31.95806 
L 70.02727 -32.354586 
L 70.635051 -32.751112 
L 71.220786 -33.147639 
L 71.768991 -33.544165 
L 72.266601 -33.940692 
L 72.703748 -34.337218 
L 73.074212 -34.733744 
L 73.375492 -35.130271 
L 73.608514 -35.526797 
L 73.77701 -35.923324 
L 73.886678 -36.31985 
L 73.944236 -36.716376 
L 73.956538 -37.112903 
L 73.929866 -37.509429 
L 73.86952 -37.905955 
L 73.779759 -38.302482 
L 73.664074 -38.699008 
L 73.525727 -39.095535 
L 73.368416 -39.492061 
L 73.19691 -39.888587 
L 73.017484 -40.285114 
L 72.838029 -40.68164 
L 72.667768 -41.078166 
L 72.51659 -41.474693 
L 72.394105 -41.871219 
L 72.308561 -42.267746 
L 72.265833 -42.664272 
L 72.268655 -43.060798 
L 72.31625 -43.457325 
L 72.404414 -43.853851 
L 72.526058 -44.250377 
L 72.672092 -44.646904 
L 72.832513 -45.04343 
L 72.997515 -45.439957 
L 73.158447 -45.836483 
L 73.308506 -46.233009 
L 73.443094 -46.629536 
L 73.559861 -47.026062 
L 73.658476 -47.422589 
L 73.740242 -47.819115 
L 73.807644 -48.215641 
L 73.863928 -48.612168 
L 73.912739 -49.008694 
L 73.957863 -49.40522 
L 74.003021 -49.801747 
L 74.051706 -50.198273 
L 74.107019 -50.5948 
L 74.171489 -50.991326 
L 74.246881 -51.387852 
L 74.334027 -51.784379 
L 74.432706 -52.180905 
L 74.54162 -52.577431 
L 74.658485 -52.973958 
L 74.780241 -53.370484 
L 74.903349 -53.767011 
L 75.024145 -54.163537 
L 75.139193 -54.560063 
L 75.245582 -54.95659 
L 75.341141 -55.353116 
L 76.120265 -55.353116 
L 76.120265 -55.353116 
L 76.215824 -54.95659 
L 76.322214 -54.560063 
L 76.437261 -54.163537 
L 76.558058 -53.767011 
L 76.681165 -53.370484 
L 76.802921 -52.973958 
L 76.919786 -52.577431 
L 77.0287 -52.180905 
L 77.127379 -51.784379 
L 77.214525 -51.387852 
L 77.289917 -50.991326 
L 77.354387 -50.5948 
L 77.4097 -50.198273 
L 77.458385 -49.801747 
L 77.503543 -49.40522 
L 77.548667 -49.008694 
L 77.597478 -48.612168 
L 77.653762 -48.215641 
L 77.721165 -47.819115 
L 77.80293 -47.422589 
L 77.901545 -47.026062 
L 78.018312 -46.629536 
L 78.1529 -46.233009 
L 78.302959 -45.836483 
L 78.463891 -45.439957 
L 78.628893 -45.04343 
L 78.789315 -44.646904 
L 78.935348 -44.250377 
L 79.056992 -43.853851 
L 79.145157 -43.457325 
L 79.192751 -43.060798 
L 79.195573 -42.664272 
L 79.152845 -42.267746 
L 79.067301 -41.871219 
L 78.944816 -41.474693 
L 78.793639 -41.078166 
L 78.623377 -40.68164 
L 78.443923 -40.285114 
L 78.264497 -39.888587 
L 78.092991 -39.492061 
L 77.935679 -39.095535 
L 77.797332 -38.699008 
L 77.681647 -38.302482 
L 77.591887 -37.905955 
L 77.531541 -37.509429 
L 77.504868 -37.112903 
L 77.51717 -36.716376 
L 77.574728 -36.31985 
L 77.684396 -35.923324 
L 77.852893 -35.526797 
L 78.085914 -35.130271 
L 78.387194 -34.733744 
L 78.757658 -34.337218 
L 79.194805 -33.940692 
L 79.692416 -33.544165 
L 80.24062 -33.147639 
L 80.826356 -32.751112 
L 81.434137 -32.354586 
L 82.047074 -31.95806 
L 82.648021 -31.561533 
L 83.220716 -31.165007 
L 83.750809 -30.768481 
L 84.226665 -30.371954 
L 84.639853 -29.975428 
L 84.985313 -29.578901 
L 85.261174 -29.182375 
L 85.468306 -28.785849 
L 85.609664 -28.389322 
L 85.689559 -27.992796 
L 85.712952 -27.59627 
L 85.6849 -27.199743 
L 85.610198 -26.803217 
L 85.493273 -26.40669 
L 85.338267 -26.010164 
L 85.149261 -25.613638 
L 84.930506 -25.217111 
L 84.686565 -24.820585 
L 84.422265 -24.424059 
L 84.14243 -24.027532 
L 83.851421 -23.631006 
L 83.552577 -23.234479 
L 83.247703 -22.837953 
L 82.936739 -22.441427 
L 82.617751 -22.0449 
L 82.28729 -21.648374 
L 81.941096 -21.251847 
L 81.575057 -20.855321 
L 81.18623 -20.458795 
L 80.773754 -20.062268 
L 80.339465 -19.665742 
L 79.888098 -19.269216 
L 79.427033 -18.872689 
L 78.965637 -18.476163 
L 78.514314 -18.079636 
L 78.083438 -17.68311 
L 77.682327 -17.286584 
L 77.31842 -16.890057 
L 76.996751 -16.493531 
L 76.719748 -16.097005 
z
" style="stroke: #525252; stroke-width: 0.15"/>
    </defs>
    <g clip-path="url(#p4632be6cf5)">
     <use xlink:href="#m0017c55000" x="0" y="84.96" style="fill: #977c7f; stroke: #525252; stroke-width: 0.15"/>
    </g>
   </g>
   <g id="PolyCollection_4">
    <defs>
     <path id="m1c95f8bc53" d="M 101.816724 -14.503978 
L 99.555928 -14.503978 
L 99.246799 -14.761502 
L 98.885052 -15.019026 
L 98.470811 -15.27655 
L 98.006606 -15.534074 
L 97.497468 -15.791597 
L 96.950812 -16.049121 
L 96.376081 -16.306645 
L 95.784178 -16.564169 
L 95.186771 -16.821693 
L 94.595553 -17.079217 
L 94.021563 -17.336741 
L 93.474682 -17.594265 
L 92.963358 -17.851788 
L 92.494599 -18.109312 
L 92.074202 -18.366836 
L 91.707123 -18.62436 
L 91.39789 -18.881884 
L 91.150908 -19.139408 
L 90.97055 -19.396932 
L 90.860965 -19.654455 
L 90.825605 -19.911979 
L 90.866524 -20.169503 
L 90.983604 -20.427027 
L 91.173844 -20.684551 
L 91.430912 -20.942075 
L 91.745054 -21.199599 
L 92.103463 -21.457123 
L 92.491067 -21.714646 
L 92.891646 -21.97217 
L 93.289126 -22.229694 
L 93.668835 -22.487218 
L 94.018542 -22.744742 
L 94.329112 -23.002266 
L 94.594709 -23.25979 
L 94.812508 -23.517313 
L 94.982031 -23.774837 
L 95.104215 -24.032361 
L 95.180412 -24.289885 
L 95.211502 -24.547409 
L 95.19729 -24.804933 
L 95.136289 -25.062457 
L 95.025944 -25.319981 
L 94.863271 -25.577504 
L 94.645806 -25.835028 
L 94.372727 -26.092552 
L 94.045968 -26.350076 
L 93.67114 -26.6076 
L 93.258076 -26.865124 
L 92.820895 -27.122648 
L 92.377482 -27.380171 
L 91.9484 -27.637695 
L 91.555304 -27.895219 
L 91.219006 -28.152743 
L 90.957405 -28.410267 
L 90.783548 -28.667791 
L 90.704077 -28.925315 
L 90.718324 -29.182839 
L 90.818205 -29.440362 
L 90.989004 -29.697886 
L 91.210989 -29.95541 
L 91.461678 -30.212934 
L 91.718489 -30.470458 
L 91.961398 -30.727982 
L 92.175251 -30.985506 
L 92.351403 -31.243029 
L 92.488443 -31.500553 
L 92.591933 -31.758077 
L 92.673216 -32.015601 
L 92.74749 -32.273125 
L 92.831468 -32.530649 
L 92.940977 -32.788173 
L 93.088852 -33.045697 
L 93.283396 -33.30322 
L 93.52759 -33.560744 
L 93.819093 -33.818268 
L 94.150945 -34.075792 
L 94.512805 -34.333316 
L 94.892487 -34.59084 
L 95.277541 -34.848364 
L 95.656661 -35.105887 
L 96.020762 -35.363411 
L 96.363619 -35.620935 
L 96.682074 -35.878459 
L 96.975828 -36.135983 
L 97.246922 -36.393507 
L 97.499022 -36.651031 
L 97.736611 -36.908555 
L 97.964218 -37.166078 
L 98.185751 -37.423602 
L 98.404022 -37.681126 
L 98.620476 -37.93865 
L 98.835141 -38.196174 
L 99.046766 -38.453698 
L 99.253115 -38.711222 
L 99.451353 -38.968745 
L 99.638457 -39.226269 
L 99.811612 -39.483793 
L 99.968525 -39.741317 
L 100.107637 -39.998841 
L 101.265015 -39.998841 
L 101.265015 -39.998841 
L 101.404127 -39.741317 
L 101.561039 -39.483793 
L 101.734195 -39.226269 
L 101.921299 -38.968745 
L 102.119536 -38.711222 
L 102.325886 -38.453698 
L 102.53751 -38.196174 
L 102.752175 -37.93865 
L 102.96863 -37.681126 
L 103.186901 -37.423602 
L 103.408434 -37.166078 
L 103.636041 -36.908555 
L 103.87363 -36.651031 
L 104.12573 -36.393507 
L 104.396824 -36.135983 
L 104.690578 -35.878459 
L 105.009033 -35.620935 
L 105.35189 -35.363411 
L 105.715991 -35.105887 
L 106.095111 -34.848364 
L 106.480165 -34.59084 
L 106.859847 -34.333316 
L 107.221707 -34.075792 
L 107.553558 -33.818268 
L 107.845062 -33.560744 
L 108.089256 -33.30322 
L 108.2838 -33.045697 
L 108.431675 -32.788173 
L 108.541184 -32.530649 
L 108.625162 -32.273125 
L 108.699436 -32.015601 
L 108.780719 -31.758077 
L 108.884209 -31.500553 
L 109.021249 -31.243029 
L 109.1974 -30.985506 
L 109.411254 -30.727982 
L 109.654163 -30.470458 
L 109.910974 -30.212934 
L 110.161663 -29.95541 
L 110.383648 -29.697886 
L 110.554447 -29.440362 
L 110.654328 -29.182839 
L 110.668575 -28.925315 
L 110.589104 -28.667791 
L 110.415246 -28.410267 
L 110.153646 -28.152743 
L 109.817348 -27.895219 
L 109.424252 -27.637695 
L 108.99517 -27.380171 
L 108.551756 -27.122648 
L 108.114575 -26.865124 
L 107.701512 -26.6076 
L 107.326683 -26.350076 
L 106.999925 -26.092552 
L 106.726846 -25.835028 
L 106.50938 -25.577504 
L 106.346708 -25.319981 
L 106.236363 -25.062457 
L 106.175362 -24.804933 
L 106.16115 -24.547409 
L 106.19224 -24.289885 
L 106.268437 -24.032361 
L 106.390621 -23.774837 
L 106.560144 -23.517313 
L 106.777943 -23.25979 
L 107.043539 -23.002266 
L 107.35411 -22.744742 
L 107.703817 -22.487218 
L 108.083526 -22.229694 
L 108.481006 -21.97217 
L 108.881585 -21.714646 
L 109.269188 -21.457123 
L 109.627597 -21.199599 
L 109.94174 -20.942075 
L 110.198807 -20.684551 
L 110.389048 -20.427027 
L 110.506128 -20.169503 
L 110.547047 -19.911979 
L 110.511686 -19.654455 
L 110.402102 -19.396932 
L 110.221744 -19.139408 
L 109.974762 -18.881884 
L 109.665529 -18.62436 
L 109.29845 -18.366836 
L 108.878053 -18.109312 
L 108.409294 -17.851788 
L 107.89797 -17.594265 
L 107.351089 -17.336741 
L 106.777099 -17.079217 
L 106.185881 -16.821693 
L 105.588474 -16.564169 
L 104.996571 -16.306645 
L 104.421839 -16.049121 
L 103.875184 -15.791597 
L 103.366046 -15.534074 
L 102.90184 -15.27655 
L 102.4876 -15.019026 
L 102.125853 -14.761502 
L 101.816724 -14.503978 
z
" style="stroke: #525252; stroke-width: 0.15"/>
    </defs>
    <g clip-path="url(#p4632be6cf5)">
     <use xlink:href="#m1c95f8bc53" x="0" y="84.96" style="fill: #a48c8f; stroke: #525252; stroke-width: 0.15"/>
    </g>
   </g>
   <g id="PolyCollection_5">
    <defs>
     <path id="mcbf6c44e30" d="M 126.435673 -12.889743 
L 124.848225 -12.889743 
L 124.624902 -13.339259 
L 124.361123 -13.788776 
L 124.055262 -14.238292 
L 123.706627 -14.687809 
L 123.315413 -15.137325 
L 122.882591 -15.586842 
L 122.409809 -16.036358 
L 121.899356 -16.485875 
L 121.354268 -16.935391 
L 120.778602 -17.384907 
L 120.177883 -17.834424 
L 119.559646 -18.28394 
L 118.933978 -18.733457 
L 118.31389 -19.182973 
L 117.715374 -19.63249 
L 117.157032 -20.082006 
L 116.659205 -20.531522 
L 116.242658 -20.981039 
L 115.926938 -21.430555 
L 115.728623 -21.880072 
L 115.6597 -22.329588 
L 115.726318 -22.779105 
L 115.928097 -23.228621 
L 116.258081 -23.678138 
L 116.703339 -24.127654 
L 117.246098 -24.57717 
L 117.865225 -25.026687 
L 118.537863 -25.476203 
L 119.241 -25.92572 
L 119.952825 -26.375236 
L 120.653753 -26.824753 
L 121.327093 -27.274269 
L 121.95937 -27.723785 
L 122.540351 -28.173302 
L 123.062858 -28.622818 
L 123.522424 -29.072335 
L 123.916868 -29.521851 
L 124.245845 -29.971368 
L 124.510393 -30.420884 
L 124.712536 -30.8704 
L 124.854945 -31.319917 
L 124.940706 -31.769433 
L 124.973196 -32.21895 
L 124.956075 -32.668466 
L 124.89339 -33.117983 
L 124.789754 -33.567499 
L 124.650565 -34.017016 
L 124.482187 -34.466532 
L 124.292062 -34.916048 
L 124.088677 -35.365565 
L 123.881358 -35.815081 
L 123.67991 -36.264598 
L 123.494096 -36.714114 
L 123.333043 -37.163631 
L 123.204636 -37.613147 
L 123.114972 -38.062663 
L 123.06797 -38.51218 
L 123.065161 -38.961696 
L 123.105691 -39.411213 
L 123.186524 -39.860729 
L 123.302792 -40.310246 
L 123.448257 -40.759762 
L 123.6158 -41.209279 
L 123.7979 -41.658795 
L 123.987045 -42.108311 
L 124.176069 -42.557828 
L 124.358386 -43.007344 
L 124.528162 -43.456861 
L 124.680406 -43.906377 
L 124.811027 -44.355894 
L 124.916867 -44.80541 
L 124.995721 -45.254926 
L 125.046362 -45.704443 
L 125.06856 -46.153959 
L 125.063111 -46.603476 
L 125.031847 -47.052992 
L 124.977629 -47.502509 
L 124.9043 -47.952025 
L 124.816588 -48.401542 
L 124.719942 -48.851058 
L 124.620306 -49.300574 
L 124.523828 -49.750091 
L 124.436517 -50.199607 
L 124.36389 -50.649124 
L 124.310612 -51.09864 
L 124.280192 -51.548157 
L 124.274752 -51.997673 
L 124.294898 -52.447189 
L 124.339718 -52.896706 
L 124.406894 -53.346222 
L 124.492937 -53.795739 
L 124.593499 -54.245255 
L 124.703747 -54.694772 
L 124.818746 -55.144288 
L 124.933824 -55.593805 
L 125.044867 -56.043321 
L 125.148543 -56.492837 
L 125.242424 -56.942354 
L 125.32501 -57.39187 
L 125.958888 -57.39187 
L 125.958888 -57.39187 
L 126.041473 -56.942354 
L 126.135354 -56.492837 
L 126.239031 -56.043321 
L 126.350074 -55.593805 
L 126.465151 -55.144288 
L 126.58015 -54.694772 
L 126.690398 -54.245255 
L 126.79096 -53.795739 
L 126.877003 -53.346222 
L 126.94418 -52.896706 
L 126.988999 -52.447189 
L 127.009145 -51.997673 
L 127.003705 -51.548157 
L 126.973285 -51.09864 
L 126.920007 -50.649124 
L 126.84738 -50.199607 
L 126.76007 -49.750091 
L 126.663591 -49.300574 
L 126.563955 -48.851058 
L 126.467309 -48.401542 
L 126.379597 -47.952025 
L 126.306268 -47.502509 
L 126.25205 -47.052992 
L 126.220786 -46.603476 
L 126.215337 -46.153959 
L 126.237535 -45.704443 
L 126.288176 -45.254926 
L 126.36703 -44.80541 
L 126.47287 -44.355894 
L 126.603491 -43.906377 
L 126.755735 -43.456861 
L 126.925511 -43.007344 
L 127.107829 -42.557828 
L 127.296852 -42.108311 
L 127.485997 -41.658795 
L 127.668097 -41.209279 
L 127.835641 -40.759762 
L 127.981105 -40.310246 
L 128.097373 -39.860729 
L 128.178206 -39.411213 
L 128.218736 -38.961696 
L 128.215927 -38.51218 
L 128.168925 -38.062663 
L 128.079261 -37.613147 
L 127.950854 -37.163631 
L 127.789802 -36.714114 
L 127.603988 -36.264598 
L 127.402539 -35.815081 
L 127.195221 -35.365565 
L 126.991835 -34.916048 
L 126.80171 -34.466532 
L 126.633333 -34.017016 
L 126.494143 -33.567499 
L 126.390508 -33.117983 
L 126.327822 -32.668466 
L 126.310701 -32.21895 
L 126.343191 -31.769433 
L 126.428953 -31.319917 
L 126.571361 -30.8704 
L 126.773504 -30.420884 
L 127.038053 -29.971368 
L 127.367029 -29.521851 
L 127.761474 -29.072335 
L 128.221039 -28.622818 
L 128.743546 -28.173302 
L 129.324527 -27.723785 
L 129.956804 -27.274269 
L 130.630144 -26.824753 
L 131.331072 -26.375236 
L 132.042897 -25.92572 
L 132.746035 -25.476203 
L 133.418672 -25.026687 
L 134.0378 -24.57717 
L 134.580558 -24.127654 
L 135.025817 -23.678138 
L 135.355801 -23.228621 
L 135.557579 -22.779105 
L 135.624198 -22.329588 
L 135.555274 -21.880072 
L 135.356959 -21.430555 
L 135.041239 -20.981039 
L 134.624692 -20.531522 
L 134.126865 -20.082006 
L 133.568523 -19.63249 
L 132.970008 -19.182973 
L 132.349919 -18.733457 
L 131.724251 -18.28394 
L 131.106015 -17.834424 
L 130.505295 -17.384907 
L 129.929629 -16.935391 
L 129.384541 -16.485875 
L 128.874088 -16.036358 
L 128.401306 -15.586842 
L 127.968485 -15.137325 
L 127.57727 -14.687809 
L 127.228636 -14.238292 
L 126.922774 -13.788776 
L 126.658995 -13.339259 
L 126.435673 -12.889743 
z
" style="stroke: #525252; stroke-width: 0.15"/>
    </defs>
    <g clip-path="url(#p4632be6cf5)">
     <use xlink:href="#mcbf6c44e30" x="0" y="84.96" style="fill: #b29ca0; stroke: #525252; stroke-width: 0.15"/>
    </g>
   </g>
   <g id="line2d_7">
    <path d="M 25.819458 65.920465 
L 25.819458 26.371197 
" clip-path="url(#p4632be6cf5)" style="fill: none; stroke: #8c8c8c; stroke-width: 0.75; stroke-linecap: round"/>
   </g>
   <g id="line2d_8">
    <path d="M 25.819458 61.832371 
L 25.819458 47.551335 
" clip-path="url(#p4632be6cf5)" style="fill: none; stroke: #8c8c8c; stroke-width: 4; stroke-linecap: round"/>
   </g>
   <g id="line2d_9">
    <path d="M 25.819458 54.033823 
" clip-path="url(#p4632be6cf5)" style="fill: none; stroke: #525252; stroke-width: 1.2; stroke-linecap: round"/>
    <defs>
     <path id="mfbca0ec29a" d="M 0 0.833333 
C 0.221003 0.833333 0.432983 0.745528 0.589256 0.589256 
C 0.745528 0.432983 0.833333 0.221003 0.833333 0 
C 0.833333 -0.221003 0.745528 -0.432983 0.589256 -0.589256 
C 0.432983 -0.745528 0.221003 -0.833333 0 -0.833333 
C -0.221003 -0.833333 -0.432983 -0.745528 -0.589256 -0.589256 
C -0.745528 -0.432983 -0.833333 -0.221003 -0.833333 0 
C -0.833333 0.221003 -0.745528 0.432983 -0.589256 0.589256 
C -0.432983 0.745528 -0.221003 0.833333 0 0.833333 
z
" style="stroke: #ffffff; stroke-width: 0.8"/>
    </defs>
    <g clip-path="url(#p4632be6cf5)">
     <use xlink:href="#mfbca0ec29a" x="25.819458" y="54.033823" style="fill: #ffffff; stroke: #ffffff; stroke-width: 0.8"/>
    </g>
   </g>
   <g id="line2d_10">
    <path d="M 50.77508 67.608658 
L 50.77508 44.500513 
" clip-path="url(#p4632be6cf5)" style="fill: none; stroke: #8c8c8c; stroke-width: 0.75; stroke-linecap: round"/>
   </g>
   <g id="line2d_11">
    <path d="M 50.77508 61.97594 
L 50.77508 54.978695 
" clip-path="url(#p4632be6cf5)" style="fill: none; stroke: #8c8c8c; stroke-width: 4; stroke-linecap: round"/>
   </g>
   <g id="line2d_12">
    <path d="M 50.77508 61.056355 
" clip-path="url(#p4632be6cf5)" style="fill: none; stroke: #525252; stroke-width: 1.2; stroke-linecap: round"/>
    <g clip-path="url(#p4632be6cf5)">
     <use xlink:href="#mfbca0ec29a" x="50.77508" y="61.056355" style="fill: #ffffff; stroke: #ffffff; stroke-width: 0.8"/>
    </g>
   </g>
   <g id="line2d_13">
    <path d="M 75.730703 65.103769 
L 75.730703 41.237419 
" clip-path="url(#p4632be6cf5)" style="fill: none; stroke: #8c8c8c; stroke-width: 0.75; stroke-linecap: round"/>
   </g>
   <g id="line2d_14">
    <path d="M 75.730703 60.097943 
L 75.730703 51.213373 
" clip-path="url(#p4632be6cf5)" style="fill: none; stroke: #8c8c8c; stroke-width: 4; stroke-linecap: round"/>
   </g>
   <g id="line2d_15">
    <path d="M 75.730703 56.361329 
" clip-path="url(#p4632be6cf5)" style="fill: none; stroke: #525252; stroke-width: 1.2; stroke-linecap: round"/>
    <g clip-path="url(#p4632be6cf5)">
     <use xlink:href="#mfbca0ec29a" x="75.730703" y="56.361329" style="fill: #ffffff; stroke: #ffffff; stroke-width: 0.8"/>
    </g>
   </g>
   <g id="line2d_16">
    <path d="M 100.686326 67.874028 
L 100.686326 47.543153 
" clip-path="url(#p4632be6cf5)" style="fill: none; stroke: #8c8c8c; stroke-width: 0.75; stroke-linecap: round"/>
   </g>
   <g id="line2d_17">
    <path d="M 100.686326 64.333081 
L 100.686326 54.572766 
" clip-path="url(#p4632be6cf5)" style="fill: none; stroke: #8c8c8c; stroke-width: 4; stroke-linecap: round"/>
   </g>
   <g id="line2d_18">
    <path d="M 100.686326 57.679879 
" clip-path="url(#p4632be6cf5)" style="fill: none; stroke: #525252; stroke-width: 1.2; stroke-linecap: round"/>
    <g clip-path="url(#p4632be6cf5)">
     <use xlink:href="#mfbca0ec29a" x="100.686326" y="57.679879" style="fill: #ffffff; stroke: #ffffff; stroke-width: 0.8"/>
    </g>
   </g>
   <g id="line2d_19">
    <path d="M 125.641949 67.765265 
L 125.641949 46.0021 
" clip-path="url(#p4632be6cf5)" style="fill: none; stroke: #8c8c8c; stroke-width: 0.75; stroke-linecap: round"/>
   </g>
   <g id="line2d_20">
    <path d="M 125.641949 63.130133 
L 125.641949 55.620148 
" clip-path="url(#p4632be6cf5)" style="fill: none; stroke: #8c8c8c; stroke-width: 4; stroke-linecap: round"/>
   </g>
   <g id="line2d_21">
    <path d="M 125.641949 62.04853 
" clip-path="url(#p4632be6cf5)" style="fill: none; stroke: #525252; stroke-width: 1.2; stroke-linecap: round"/>
    <g clip-path="url(#p4632be6cf5)">
     <use xlink:href="#mfbca0ec29a" x="125.641949" y="62.04853" style="fill: #ffffff; stroke: #ffffff; stroke-width: 0.8"/>
    </g>
   </g>
   <g id="patch_3">
    <path d="M 13.341646 74.419526 
L 13.341646 4.076256 
" style="fill: none; stroke: #777777; stroke-width: 0.5; stroke-linejoin: miter; stroke-linecap: square"/>
   </g>
   <g id="patch_4">
    <path d="M 13.341646 76.919526 
L 138.11976 76.919526 
" style="fill: none; stroke: #777777; stroke-width: 0.5; stroke-linejoin: miter; stroke-linecap: square"/>
   </g>
  </g>
 </g>
 <defs>
  <clipPath id="p4632be6cf5">
   <rect x="13.341646" y="4.076256" width="124.778114" height="70.34327"/>
  </clipPath>
 </defs>
</svg>
