<?xml version="1.0" encoding="utf-8" standalone="no"?>
<!DOCTYPE svg PUBLIC "-//W3C//DTD SVG 1.1//EN"
  "http://www.w3.org/Graphics/SVG/1.1/DTD/svg11.dtd">
<svg xmlns:xlink="http://www.w3.org/1999/xlink" width="84.96pt" height="84.96pt" viewBox="0 0 84.96 84.96" xmlns="http://www.w3.org/2000/svg" version="1.1">
 <metadata>
  <rdf:RDF xmlns:dc="http://purl.org/dc/elements/1.1/" xmlns:cc="http://creativecommons.org/ns#" xmlns:rdf="http://www.w3.org/1999/02/22-rdf-syntax-ns#">
   <cc:Work>
    <dc:type rdf:resource="http://purl.org/dc/dcmitype/StillImage"/>
    <dc:date>2024-05-27T15:37:14.396779</dc:date>
    <dc:format>image/svg+xml</dc:format>
    <dc:creator>
     <cc:Agent>
      <dc:title>Matplotlib v3.8.3, https://matplotlib.org/</dc:title>
     </cc:Agent>
    </dc:creator>
   </cc:Work>
  </rdf:RDF>
 </metadata>
 <defs>
  <style type="text/css">*{stroke-linejoin: round; stroke-linecap: butt}</style>
 </defs>
 <g id="figure_1">
  <g id="patch_1">
   <path d="M 0 84.96 
L 84.96 84.96 
L 84.96 0 
L 0 0 
z
" style="fill: #ffffff"/>
  </g>
  <g id="axes_1">
   <g id="patch_2">
    <path d="M 10.005084 74.419526 
L 81.95976 74.419526 
L 81.95976 4.076256 
L 10.005084 4.076256 
z
" style="fill: #ffffff"/>
   </g>
   <g id="matplotlib.axis_1">
    <g id="xtick_1">
     <g id="text_1">
      <!-- CD3+ Cells -->
      <g style="fill: #333333" transform="translate(13.09878 81.230229) scale(0.035 -0.035)">
       <defs>
        <path id="Helvetica-43" d="M 2422 4716 
Q 3294 4716 3775 4256 
Q 4256 3797 4309 3213 
L 3703 3213 
Q 3600 3656 3292 3915 
Q 2984 4175 2428 4175 
Q 1750 4175 1333 3698 
Q 916 3222 916 2238 
Q 916 1431 1292 929 
Q 1669 428 2416 428 
Q 3103 428 3463 956 
Q 3653 1234 3747 1688 
L 4353 1688 
Q 4272 963 3816 472 
Q 3269 -119 2341 -119 
Q 1541 -119 997 366 
Q 281 1006 281 2344 
Q 281 3359 819 4009 
Q 1400 4716 2422 4716 
z
M 2297 4716 
L 2297 4716 
z
" transform="scale(0.015625)"/>
        <path id="Helvetica-44" d="M 2250 531 
Q 2566 531 2769 597 
Q 3131 719 3363 1066 
Q 3547 1344 3628 1778 
Q 3675 2038 3675 2259 
Q 3675 3113 3336 3584 
Q 2997 4056 2244 4056 
L 1141 4056 
L 1141 531 
L 2250 531 
z
M 516 4591 
L 2375 4591 
Q 3322 4591 3844 3919 
Q 4309 3313 4309 2366 
Q 4309 1634 4034 1044 
Q 3550 0 2369 0 
L 516 0 
L 516 4591 
z
" transform="scale(0.015625)"/>
        <path id="Helvetica-33" d="M 1663 -122 
Q 869 -122 511 314 
Q 153 750 153 1375 
L 741 1375 
Q 778 941 903 744 
Q 1122 391 1694 391 
Q 2138 391 2406 628 
Q 2675 866 2675 1241 
Q 2675 1703 2392 1887 
Q 2109 2072 1606 2072 
Q 1550 2072 1492 2070 
Q 1434 2069 1375 2066 
L 1375 2563 
Q 1463 2553 1522 2550 
Q 1581 2547 1650 2547 
Q 1966 2547 2169 2647 
Q 2525 2822 2525 3272 
Q 2525 3606 2287 3787 
Q 2050 3969 1734 3969 
Q 1172 3969 956 3594 
Q 838 3388 822 3006 
L 266 3006 
Q 266 3506 466 3856 
Q 809 4481 1675 4481 
Q 2359 4481 2734 4176 
Q 3109 3872 3109 3294 
Q 3109 2881 2888 2625 
Q 2750 2466 2531 2375 
Q 2884 2278 3082 2001 
Q 3281 1725 3281 1325 
Q 3281 684 2859 281 
Q 2438 -122 1663 -122 
z
" transform="scale(0.015625)"/>
        <path id="Helvetica-2b" d="M 288 1369 
L 288 1894 
L 1650 1894 
L 1650 3266 
L 2184 3266 
L 2184 1894 
L 3547 1894 
L 3547 1369 
L 2184 1369 
L 2184 0 
L 1650 0 
L 1650 1369 
L 288 1369 
z
" transform="scale(0.015625)"/>
        <path id="Helvetica-20" transform="scale(0.015625)"/>
        <path id="Helvetica-65" d="M 1806 3422 
Q 2163 3422 2497 3255 
Q 2831 3088 3006 2822 
Q 3175 2569 3231 2231 
Q 3281 2000 3281 1494 
L 828 1494 
Q 844 984 1069 676 
Q 1294 369 1766 369 
Q 2206 369 2469 659 
Q 2619 828 2681 1050 
L 3234 1050 
Q 3213 866 3089 639 
Q 2966 413 2813 269 
Q 2556 19 2178 -69 
Q 1975 -119 1719 -119 
Q 1094 -119 659 336 
Q 225 791 225 1609 
Q 225 2416 662 2919 
Q 1100 3422 1806 3422 
z
M 2703 1941 
Q 2669 2306 2544 2525 
Q 2313 2931 1772 2931 
Q 1384 2931 1121 2651 
Q 859 2372 844 1941 
L 2703 1941 
z
M 1753 3428 
L 1753 3428 
z
" transform="scale(0.015625)"/>
        <path id="Helvetica-6c" d="M 428 4591 
L 991 4591 
L 991 0 
L 428 0 
L 428 4591 
z
" transform="scale(0.015625)"/>
        <path id="Helvetica-73" d="M 747 1050 
Q 772 769 888 619 
Q 1100 347 1625 347 
Q 1938 347 2175 483 
Q 2413 619 2413 903 
Q 2413 1119 2222 1231 
Q 2100 1300 1741 1391 
L 1294 1503 
Q 866 1609 663 1741 
Q 300 1969 300 2372 
Q 300 2847 642 3140 
Q 984 3434 1563 3434 
Q 2319 3434 2653 2991 
Q 2863 2709 2856 2384 
L 2325 2384 
Q 2309 2575 2191 2731 
Q 1997 2953 1519 2953 
Q 1200 2953 1036 2831 
Q 872 2709 872 2509 
Q 872 2291 1088 2159 
Q 1213 2081 1456 2022 
L 1828 1931 
Q 2434 1784 2641 1647 
Q 2969 1431 2969 969 
Q 2969 522 2630 197 
Q 2291 -128 1597 -128 
Q 850 -128 539 211 
Q 228 550 206 1050 
L 747 1050 
z
M 1578 3428 
L 1578 3428 
z
" transform="scale(0.015625)"/>
       </defs>
       <use xlink:href="#Helvetica-43"/>
       <use xlink:href="#Helvetica-44" x="72.216797"/>
       <use xlink:href="#Helvetica-33" x="144.433594"/>
       <use xlink:href="#Helvetica-2b" x="200.048828"/>
       <use xlink:href="#Helvetica-20" x="258.447266"/>
       <use xlink:href="#Helvetica-43" x="286.230469"/>
       <use xlink:href="#Helvetica-65" x="358.447266"/>
       <use xlink:href="#Helvetica-6c" x="414.0625"/>
       <use xlink:href="#Helvetica-6c" x="436.279297"/>
       <use xlink:href="#Helvetica-73" x="458.496094"/>
      </g>
     </g>
    </g>
    <g id="xtick_2">
     <g id="text_2">
      <!-- TCRαδ+ Cells -->
      <g style="fill: #333333" transform="translate(34.850234 81.230229) scale(0.035 -0.035)">
       <defs>
        <path id="Helvetica-54" d="M 3828 4591 
L 3828 4044 
L 2281 4044 
L 2281 0 
L 1650 0 
L 1650 4044 
L 103 4044 
L 103 4591 
L 3828 4591 
z
" transform="scale(0.015625)"/>
        <path id="Helvetica-52" d="M 2622 2488 
Q 3059 2488 3314 2663 
Q 3569 2838 3569 3294 
Q 3569 3784 3213 3963 
Q 3022 4056 2703 4056 
L 1184 4056 
L 1184 2488 
L 2622 2488 
z
M 563 4591 
L 2688 4591 
Q 3213 4591 3553 4438 
Q 4200 4144 4200 3353 
Q 4200 2941 4029 2678 
Q 3859 2416 3553 2256 
Q 3822 2147 3958 1969 
Q 4094 1791 4109 1391 
L 4131 775 
Q 4141 513 4175 384 
Q 4231 166 4375 103 
L 4375 0 
L 3613 0 
Q 3581 59 3562 153 
Q 3544 247 3531 516 
L 3494 1281 
Q 3472 1731 3159 1884 
Q 2981 1969 2600 1969 
L 1184 1969 
L 1184 0 
L 563 0 
L 563 4591 
z
" transform="scale(0.015625)"/>
        <path id="Helvetica-3b1" d="M 3347 703 
Q 3334 428 3525 434 
Q 3641 434 3700 475 
L 3700 -19 
Q 3628 -44 3513 -50 
Q 3391 -63 3309 -63 
Q 3084 -56 2956 103 
Q 2816 256 2816 475 
L 2803 475 
Q 2413 -63 1734 -63 
Q 1006 -50 647 459 
Q 281 953 281 1644 
Q 281 2350 634 2859 
Q 984 3378 1741 3391 
Q 2413 3391 2797 2847 
L 2809 2847 
L 2809 3328 
L 3347 3328 
L 3347 703 
z
M 1825 397 
Q 2075 397 2253 513 
Q 2425 622 2541 806 
Q 2766 1184 2766 1638 
Q 2766 2144 2559 2528 
Q 2350 2919 1797 2931 
Q 1306 2919 1081 2534 
Q 856 2156 856 1697 
Q 856 1209 1081 819 
Q 1306 409 1825 397 
z
" transform="scale(0.015625)"/>
        <path id="Helvetica-3b4" d="M 666 4519 
L 3188 4519 
L 3188 4056 
L 1394 4056 
L 1394 4044 
L 2509 3303 
Q 3134 2881 3372 2469 
Q 3591 2053 3584 1600 
Q 3578 934 3163 447 
Q 2738 -50 1938 -63 
Q 1203 -56 769 403 
Q 331 850 325 1556 
Q 341 3066 1863 3188 
L 1863 3200 
L 666 4056 
L 666 4519 
z
M 1991 397 
Q 2497 403 2731 794 
Q 2969 1166 2969 1606 
Q 2969 1856 2919 2041 
Q 2866 2222 2791 2344 
Q 2713 2463 2638 2541 
Q 2559 2619 2509 2650 
Q 2381 2766 2156 2766 
Q 947 2766 941 1528 
Q 941 1056 1216 738 
Q 1491 403 1991 397 
z
" transform="scale(0.015625)"/>
       </defs>
       <use xlink:href="#Helvetica-54"/>
       <use xlink:href="#Helvetica-43" x="61.083984"/>
       <use xlink:href="#Helvetica-52" x="133.300781"/>
       <use xlink:href="#Helvetica-3b1" x="205.517578"/>
       <use xlink:href="#Helvetica-3b4" x="266.601562"/>
       <use xlink:href="#Helvetica-2b" x="327.685547"/>
       <use xlink:href="#Helvetica-20" x="386.083984"/>
       <use xlink:href="#Helvetica-43" x="413.867188"/>
       <use xlink:href="#Helvetica-65" x="486.083984"/>
       <use xlink:href="#Helvetica-6c" x="541.699219"/>
       <use xlink:href="#Helvetica-6c" x="563.916016"/>
       <use xlink:href="#Helvetica-73" x="586.132812"/>
      </g>
     </g>
    </g>
    <g id="xtick_3">
     <g id="text_3">
      <!-- IL7R+ Cells -->
      <g style="fill: #333333" transform="translate(60.873056 81.230229) scale(0.035 -0.035)">
       <defs>
        <path id="Helvetica-49" d="M 628 4591 
L 1256 4591 
L 1256 0 
L 628 0 
L 628 4591 
z
" transform="scale(0.015625)"/>
        <path id="Helvetica-4c" d="M 488 4591 
L 1109 4591 
L 1109 547 
L 3434 547 
L 3434 0 
L 488 0 
L 488 4591 
z
" transform="scale(0.015625)"/>
        <path id="Helvetica-37" d="M 3347 4400 
L 3347 3909 
Q 3131 3700 2773 3181 
Q 2416 2663 2141 2063 
Q 1869 1478 1728 997 
Q 1638 688 1494 0 
L 872 0 
Q 1084 1281 1809 2550 
Q 2238 3294 2709 3834 
L 234 3834 
L 234 4400 
L 3347 4400 
z
" transform="scale(0.015625)"/>
       </defs>
       <use xlink:href="#Helvetica-49"/>
       <use xlink:href="#Helvetica-4c" x="27.783203"/>
       <use xlink:href="#Helvetica-37" x="83.398438"/>
       <use xlink:href="#Helvetica-52" x="139.013672"/>
       <use xlink:href="#Helvetica-2b" x="211.230469"/>
       <use xlink:href="#Helvetica-20" x="269.628906"/>
       <use xlink:href="#Helvetica-43" x="297.412109"/>
       <use xlink:href="#Helvetica-65" x="369.628906"/>
       <use xlink:href="#Helvetica-6c" x="425.244141"/>
       <use xlink:href="#Helvetica-6c" x="447.460938"/>
       <use xlink:href="#Helvetica-73" x="469.677734"/>
      </g>
     </g>
    </g>
   </g>
   <g id="matplotlib.axis_2">
    <g id="ytick_1">
     <g id="line2d_1">
      <defs>
       <path id="m784f15110c" d="M 0 0 
L -1 0 
" style="stroke: #777777; stroke-width: 0.5"/>
      </defs>
      <g>
       <use xlink:href="#m784f15110c" x="10.005084" y="66.189518" style="fill: #777777; stroke: #777777; stroke-width: 0.5"/>
      </g>
     </g>
     <g id="text_4">
      <!-- 0 -->
      <g style="fill: #333333" transform="translate(6.336803 67.265534) scale(0.03 -0.03)">
       <defs>
        <path id="Helvetica-30" d="M 1731 4475 
Q 2600 4475 2988 3759 
Q 3288 3206 3288 2244 
Q 3288 1331 3016 734 
Q 2622 -122 1728 -122 
Q 922 -122 528 578 
Q 200 1163 200 2147 
Q 200 2909 397 3456 
Q 766 4475 1731 4475 
z
M 1725 391 
Q 2163 391 2422 778 
Q 2681 1166 2681 2222 
Q 2681 2984 2493 3476 
Q 2306 3969 1766 3969 
Q 1269 3969 1039 3501 
Q 809 3034 809 2125 
Q 809 1441 956 1025 
Q 1181 391 1725 391 
z
" transform="scale(0.015625)"/>
       </defs>
       <use xlink:href="#Helvetica-30"/>
      </g>
     </g>
    </g>
    <g id="ytick_2">
     <g id="line2d_2">
      <g>
       <use xlink:href="#m784f15110c" x="10.005084" y="55.837308" style="fill: #777777; stroke: #777777; stroke-width: 0.5"/>
      </g>
     </g>
     <g id="text_5">
      <!-- 20 -->
      <g style="fill: #333333" transform="translate(4.668521 56.913323) scale(0.03 -0.03)">
       <defs>
        <path id="Helvetica-32" d="M 200 0 
Q 231 578 439 1006 
Q 647 1434 1250 1784 
L 1850 2131 
Q 2253 2366 2416 2531 
Q 2672 2791 2672 3125 
Q 2672 3516 2437 3745 
Q 2203 3975 1813 3975 
Q 1234 3975 1013 3538 
Q 894 3303 881 2888 
L 309 2888 
Q 319 3472 525 3841 
Q 891 4491 1816 4491 
Q 2584 4491 2939 4075 
Q 3294 3659 3294 3150 
Q 3294 2613 2916 2231 
Q 2697 2009 2131 1694 
L 1703 1456 
Q 1397 1288 1222 1134 
Q 909 863 828 531 
L 3272 531 
L 3272 0 
L 200 0 
z
" transform="scale(0.015625)"/>
       </defs>
       <use xlink:href="#Helvetica-32"/>
       <use xlink:href="#Helvetica-30" x="55.615234"/>
      </g>
     </g>
    </g>
    <g id="ytick_3">
     <g id="line2d_3">
      <g>
       <use xlink:href="#m784f15110c" x="10.005084" y="45.485097" style="fill: #777777; stroke: #777777; stroke-width: 0.5"/>
      </g>
     </g>
     <g id="text_6">
      <!-- 40 -->
      <g style="fill: #333333" transform="translate(4.668521 46.561113) scale(0.03 -0.03)">
       <defs>
        <path id="Helvetica-34" d="M 2116 1584 
L 2116 3613 
L 681 1584 
L 2116 1584 
z
M 2125 0 
L 2125 1094 
L 163 1094 
L 163 1644 
L 2213 4488 
L 2688 4488 
L 2688 1584 
L 3347 1584 
L 3347 1094 
L 2688 1094 
L 2688 0 
L 2125 0 
z
" transform="scale(0.015625)"/>
       </defs>
       <use xlink:href="#Helvetica-34"/>
       <use xlink:href="#Helvetica-30" x="55.615234"/>
      </g>
     </g>
    </g>
    <g id="ytick_4">
     <g id="line2d_4">
      <g>
       <use xlink:href="#m784f15110c" x="10.005084" y="35.132887" style="fill: #777777; stroke: #777777; stroke-width: 0.5"/>
      </g>
     </g>
     <g id="text_7">
      <!-- 60 -->
      <g style="fill: #333333" transform="translate(4.668521 36.208903) scale(0.03 -0.03)">
       <defs>
        <path id="Helvetica-36" d="M 1872 4494 
Q 2622 4494 2917 4105 
Q 3213 3716 3213 3303 
L 2656 3303 
Q 2606 3569 2497 3719 
Q 2294 4000 1881 4000 
Q 1409 4000 1131 3564 
Q 853 3128 822 2316 
Q 1016 2600 1309 2741 
Q 1578 2866 1909 2866 
Q 2472 2866 2890 2506 
Q 3309 2147 3309 1434 
Q 3309 825 2912 354 
Q 2516 -116 1781 -116 
Q 1153 -116 697 361 
Q 241 838 241 1966 
Q 241 2800 444 3381 
Q 834 4494 1872 4494 
z
M 1831 384 
Q 2275 384 2495 682 
Q 2716 981 2716 1388 
Q 2716 1731 2519 2042 
Q 2322 2353 1803 2353 
Q 1441 2353 1167 2112 
Q 894 1872 894 1388 
Q 894 963 1142 673 
Q 1391 384 1831 384 
z
" transform="scale(0.015625)"/>
       </defs>
       <use xlink:href="#Helvetica-36"/>
       <use xlink:href="#Helvetica-30" x="55.615234"/>
      </g>
     </g>
    </g>
    <g id="ytick_5">
     <g id="line2d_5">
      <g>
       <use xlink:href="#m784f15110c" x="10.005084" y="24.780677" style="fill: #777777; stroke: #777777; stroke-width: 0.5"/>
      </g>
     </g>
     <g id="text_8">
      <!-- 80 -->
      <g style="fill: #333333" transform="translate(4.668521 25.856692) scale(0.03 -0.03)">
       <defs>
        <path id="Helvetica-38" d="M 1741 2600 
Q 2113 2600 2322 2808 
Q 2531 3016 2531 3303 
Q 2531 3553 2331 3762 
Q 2131 3972 1722 3972 
Q 1316 3972 1134 3762 
Q 953 3553 953 3272 
Q 953 2956 1187 2778 
Q 1422 2600 1741 2600 
z
M 1775 384 
Q 2166 384 2423 595 
Q 2681 806 2681 1225 
Q 2681 1659 2415 1884 
Q 2150 2109 1734 2109 
Q 1331 2109 1076 1879 
Q 822 1650 822 1244 
Q 822 894 1055 639 
Q 1288 384 1775 384 
z
M 975 2384 
Q 741 2484 609 2619 
Q 363 2869 363 3269 
Q 363 3769 725 4128 
Q 1088 4488 1753 4488 
Q 2397 4488 2762 4148 
Q 3128 3809 3128 3356 
Q 3128 2938 2916 2678 
Q 2797 2531 2547 2391 
Q 2825 2263 2984 2097 
Q 3281 1784 3281 1284 
Q 3281 694 2884 283 
Q 2488 -128 1763 -128 
Q 1109 -128 657 226 
Q 206 581 206 1256 
Q 206 1653 400 1942 
Q 594 2231 975 2384 
z
" transform="scale(0.015625)"/>
       </defs>
       <use xlink:href="#Helvetica-38"/>
       <use xlink:href="#Helvetica-30" x="55.615234"/>
      </g>
     </g>
    </g>
    <g id="ytick_6">
     <g id="line2d_6">
      <g>
       <use xlink:href="#m784f15110c" x="10.005084" y="14.428466" style="fill: #777777; stroke: #777777; stroke-width: 0.5"/>
      </g>
     </g>
     <g id="text_9">
      <!-- 100 -->
      <g style="fill: #333333" transform="translate(3.00024 15.504482) scale(0.03 -0.03)">
       <defs>
        <path id="Helvetica-31" d="M 613 3169 
L 613 3600 
Q 1222 3659 1462 3798 
Q 1703 3938 1822 4456 
L 2266 4456 
L 2266 0 
L 1666 0 
L 1666 3169 
L 613 3169 
z
" transform="scale(0.015625)"/>
       </defs>
       <use xlink:href="#Helvetica-31"/>
       <use xlink:href="#Helvetica-30" x="55.615234"/>
       <use xlink:href="#Helvetica-30" x="111.230469"/>
      </g>
     </g>
    </g>
    <g id="ytick_7">
     <g id="line2d_7">
      <g>
       <use xlink:href="#m784f15110c" x="10.005084" y="4.076256" style="fill: #777777; stroke: #777777; stroke-width: 0.5"/>
      </g>
     </g>
     <g id="text_10">
      <!-- 120 -->
      <g style="fill: #333333" transform="translate(3.00024 5.152271) scale(0.03 -0.03)">
       <use xlink:href="#Helvetica-31"/>
       <use xlink:href="#Helvetica-32" x="55.615234"/>
       <use xlink:href="#Helvetica-30" x="111.230469"/>
      </g>
     </g>
    </g>
   </g>
   <g id="PolyCollection_1">
    <defs>
     <path id="mdda113d872" d="M 23.142976 -20.055705 
L 20.852084 -20.055705 
L 20.564761 -20.175612 
L 20.231964 -20.295519 
L 19.853225 -20.415426 
L 19.429595 -20.535333 
L 18.963737 -20.655241 
L 18.459936 -20.775148 
L 17.924031 -20.895055 
L 17.363283 -21.014962 
L 16.786201 -21.134869 
L 16.202351 -21.254776 
L 15.622152 -21.374683 
L 15.056678 -21.49459 
L 14.517443 -21.614497 
L 14.016166 -21.734404 
L 13.564487 -21.854311 
L 13.173622 -21.974218 
L 12.853954 -22.094126 
L 12.614569 -22.214033 
L 12.462761 -22.33394 
L 12.403573 -22.453847 
L 12.439401 -22.573754 
L 12.56973 -22.693661 
L 12.791029 -22.813568 
L 13.096832 -22.933475 
L 13.477998 -23.053382 
L 13.923108 -23.173289 
L 14.418977 -23.293196 
L 14.951211 -23.413103 
L 15.504774 -23.533011 
L 16.064514 -23.652918 
L 16.615648 -23.772825 
L 17.144172 -23.892732 
L 17.637233 -24.012639 
L 18.083461 -24.132546 
L 18.473265 -24.252453 
L 18.799122 -24.37236 
L 19.055831 -24.492267 
L 19.240723 -24.612174 
L 19.353795 -24.732081 
L 19.397742 -24.851988 
L 19.37785 -24.971896 
L 19.301746 -25.091803 
L 19.178987 -25.21171 
L 19.020522 -25.331617 
L 18.838055 -25.451524 
L 18.643365 -25.571431 
L 18.447645 -25.691338 
L 18.260924 -25.811245 
L 18.091611 -25.931152 
L 17.946222 -26.051059 
L 17.829274 -26.170966 
L 17.743362 -26.290873 
L 17.689379 -26.410781 
L 17.666831 -26.530688 
L 17.674209 -26.650595 
L 17.709361 -26.770502 
L 17.76983 -26.890409 
L 17.853115 -27.010316 
L 17.956858 -27.130223 
L 18.078945 -27.25013 
L 18.217526 -27.370037 
L 18.370973 -27.489944 
L 18.537786 -27.609851 
L 18.716475 -27.729758 
L 18.905421 -27.849666 
L 19.102743 -27.969573 
L 19.306188 -28.08948 
L 19.513047 -28.209387 
L 19.720125 -28.329294 
L 19.923768 -28.449201 
L 20.119958 -28.569108 
L 20.304462 -28.689015 
L 20.473056 -28.808922 
L 20.621776 -28.928829 
L 20.747205 -29.048736 
L 20.846751 -29.168643 
L 20.9189 -29.288551 
L 20.963411 -29.408458 
L 20.981432 -29.528365 
L 20.975519 -29.648272 
L 20.949548 -29.768179 
L 20.908512 -29.888086 
L 20.858226 -30.007993 
L 20.804942 -30.1279 
L 20.754926 -30.247807 
L 20.714011 -30.367714 
L 20.687188 -30.487621 
L 20.678263 -30.607529 
L 20.689611 -30.727436 
L 20.722072 -30.847343 
L 20.774965 -30.96725 
L 20.84625 -31.087157 
L 20.932783 -31.207064 
L 21.030659 -31.326971 
L 21.135585 -31.446878 
L 21.243249 -31.566785 
L 21.349643 -31.686692 
L 21.451323 -31.806599 
L 21.545579 -31.926506 
L 22.449481 -31.926506 
L 22.449481 -31.926506 
L 22.543736 -31.806599 
L 22.645417 -31.686692 
L 22.751811 -31.566785 
L 22.859474 -31.446878 
L 22.964401 -31.326971 
L 23.062277 -31.207064 
L 23.14881 -31.087157 
L 23.220094 -30.96725 
L 23.272988 -30.847343 
L 23.305448 -30.727436 
L 23.316797 -30.607529 
L 23.307871 -30.487621 
L 23.281049 -30.367714 
L 23.240134 -30.247807 
L 23.190117 -30.1279 
L 23.136834 -30.007993 
L 23.086547 -29.888086 
L 23.045512 -29.768179 
L 23.019541 -29.648272 
L 23.013628 -29.528365 
L 23.031649 -29.408458 
L 23.076159 -29.288551 
L 23.148308 -29.168643 
L 23.247855 -29.048736 
L 23.373284 -28.928829 
L 23.522004 -28.808922 
L 23.690598 -28.689015 
L 23.875102 -28.569108 
L 24.071291 -28.449201 
L 24.274935 -28.329294 
L 24.482013 -28.209387 
L 24.688871 -28.08948 
L 24.892316 -27.969573 
L 25.089639 -27.849666 
L 25.278584 -27.729758 
L 25.457273 -27.609851 
L 25.624087 -27.489944 
L 25.777533 -27.370037 
L 25.916115 -27.25013 
L 26.038202 -27.130223 
L 26.141945 -27.010316 
L 26.225229 -26.890409 
L 26.285698 -26.770502 
L 26.320851 -26.650595 
L 26.328229 -26.530688 
L 26.30568 -26.410781 
L 26.251697 -26.290873 
L 26.165786 -26.170966 
L 26.048838 -26.051059 
L 25.903449 -25.931152 
L 25.734136 -25.811245 
L 25.547414 -25.691338 
L 25.351695 -25.571431 
L 25.157005 -25.451524 
L 24.974537 -25.331617 
L 24.816072 -25.21171 
L 24.693313 -25.091803 
L 24.617209 -24.971896 
L 24.597318 -24.851988 
L 24.641265 -24.732081 
L 24.754337 -24.612174 
L 24.939229 -24.492267 
L 25.195938 -24.37236 
L 25.521795 -24.252453 
L 25.911599 -24.132546 
L 26.357826 -24.012639 
L 26.850888 -23.892732 
L 27.379412 -23.772825 
L 27.930545 -23.652918 
L 28.490286 -23.533011 
L 29.043849 -23.413103 
L 29.576083 -23.293196 
L 30.071952 -23.173289 
L 30.517062 -23.053382 
L 30.898227 -22.933475 
L 31.204031 -22.813568 
L 31.425329 -22.693661 
L 31.555658 -22.573754 
L 31.591487 -22.453847 
L 31.532299 -22.33394 
L 31.380491 -22.214033 
L 31.141105 -22.094126 
L 30.821438 -21.974218 
L 30.430573 -21.854311 
L 29.978894 -21.734404 
L 29.477616 -21.614497 
L 28.938381 -21.49459 
L 28.372907 -21.374683 
L 27.792709 -21.254776 
L 27.208858 -21.134869 
L 26.631777 -21.014962 
L 26.071028 -20.895055 
L 25.535123 -20.775148 
L 25.031322 -20.655241 
L 24.565464 -20.535333 
L 24.141834 -20.415426 
L 23.763095 -20.295519 
L 23.430298 -20.175612 
L 23.142976 -20.055705 
z
" style="stroke: #6f6f6f; stroke-width: 0.15"/>
    </defs>
    <g clip-path="url(#p2c5fbb18e8)">
     <use xlink:href="#mdda113d872" x="0" y="84.96" style="fill: #abc9ea; stroke: #6f6f6f; stroke-width: 0.15"/>
    </g>
   </g>
   <g id="PolyCollection_2">
    <defs>
     <path id="me9720ab20a" d="M 46.600108 -18.1575 
L 45.364736 -18.1575 
L 45.203723 -18.331072 
L 45.015103 -18.504645 
L 44.797235 -18.678217 
L 44.548703 -18.851789 
L 44.268264 -19.025362 
L 43.954803 -19.198934 
L 43.60735 -19.372506 
L 43.225188 -19.546078 
L 42.808077 -19.719651 
L 42.356597 -19.893223 
L 41.872571 -20.066795 
L 41.359503 -20.240368 
L 40.82295 -20.41394 
L 40.270731 -20.587512 
L 39.71289 -20.761085 
L 39.161371 -20.934657 
L 38.629401 -21.108229 
L 38.13064 -21.281801 
L 37.678194 -21.455374 
L 37.283623 -21.628946 
L 36.956079 -21.802518 
L 36.701674 -21.976091 
L 36.523169 -22.149663 
L 36.419977 -22.323235 
L 36.388465 -22.496808 
L 36.422471 -22.67038 
L 36.513961 -22.843952 
L 36.653718 -23.017525 
L 36.832021 -23.191097 
L 37.039247 -23.364669 
L 37.266399 -23.538241 
L 37.505551 -23.711814 
L 37.750223 -23.885386 
L 37.99568 -24.058958 
L 38.23914 -24.232531 
L 38.479859 -24.406103 
L 38.719062 -24.579675 
L 38.959692 -24.753248 
L 39.20595 -24.92682 
L 39.462665 -25.100392 
L 39.734525 -25.273964 
L 40.025255 -25.447537 
L 40.336827 -25.621109 
L 40.668816 -25.794681 
L 41.017966 -25.968254 
L 41.378047 -26.141826 
L 41.740022 -26.315398 
L 42.092516 -26.488971 
L 42.42256 -26.662543 
L 42.716544 -26.836115 
L 42.961302 -27.009688 
L 43.145248 -27.18326 
L 43.259463 -27.356832 
L 43.298663 -27.530404 
L 43.261946 -27.703977 
L 43.153253 -27.877549 
L 42.981463 -28.051121 
L 42.760101 -28.224694 
L 42.506615 -28.398266 
L 42.241265 -28.571838 
L 41.985691 -28.745411 
L 41.761263 -28.918983 
L 41.587376 -29.092555 
L 41.479866 -29.266128 
L 41.449708 -29.4397 
L 41.502153 -29.613272 
L 41.63641 -29.786844 
L 41.845879 -29.960417 
L 42.11892 -30.133989 
L 42.440045 -30.307561 
L 42.79137 -30.481134 
L 43.154166 -30.654706 
L 43.510338 -30.828278 
L 43.843685 -31.001851 
L 44.14086 -31.175423 
L 44.391982 -31.348995 
L 44.590912 -31.522567 
L 44.735233 -31.69614 
L 44.826001 -31.869712 
L 44.867325 -32.043284 
L 44.865845 -32.216857 
L 44.830131 -32.390429 
L 44.770052 -32.564001 
L 44.69612 -32.737574 
L 44.618825 -32.911146 
L 44.547992 -33.084718 
L 44.492188 -33.258291 
L 44.45821 -33.431863 
L 44.45072 -33.605435 
L 44.472031 -33.779007 
L 44.522111 -33.95258 
L 44.598762 -34.126152 
L 44.697993 -34.299724 
L 44.814521 -34.473297 
L 44.94234 -34.646869 
L 45.075303 -34.820441 
L 45.207644 -34.994014 
L 45.334391 -35.167586 
L 45.451646 -35.341158 
L 46.513198 -35.341158 
L 46.513198 -35.341158 
L 46.630452 -35.167586 
L 46.7572 -34.994014 
L 46.889541 -34.820441 
L 47.022504 -34.646869 
L 47.150323 -34.473297 
L 47.26685 -34.299724 
L 47.366082 -34.126152 
L 47.442733 -33.95258 
L 47.492812 -33.779007 
L 47.514124 -33.605435 
L 47.506633 -33.431863 
L 47.472656 -33.258291 
L 47.416852 -33.084718 
L 47.346019 -32.911146 
L 47.268724 -32.737574 
L 47.194792 -32.564001 
L 47.134713 -32.390429 
L 47.098999 -32.216857 
L 47.097518 -32.043284 
L 47.138843 -31.869712 
L 47.229611 -31.69614 
L 47.373932 -31.522567 
L 47.572862 -31.348995 
L 47.823984 -31.175423 
L 48.121159 -31.001851 
L 48.454506 -30.828278 
L 48.810678 -30.654706 
L 49.173474 -30.481134 
L 49.524799 -30.307561 
L 49.845924 -30.133989 
L 50.118965 -29.960417 
L 50.328434 -29.786844 
L 50.46269 -29.613272 
L 50.515136 -29.4397 
L 50.484978 -29.266128 
L 50.377468 -29.092555 
L 50.203581 -28.918983 
L 49.979153 -28.745411 
L 49.723578 -28.571838 
L 49.458229 -28.398266 
L 49.204742 -28.224694 
L 48.98338 -28.051121 
L 48.811591 -27.877549 
L 48.702897 -27.703977 
L 48.666181 -27.530404 
L 48.705381 -27.356832 
L 48.819596 -27.18326 
L 49.003541 -27.009688 
L 49.2483 -26.836115 
L 49.542284 -26.662543 
L 49.872328 -26.488971 
L 50.224821 -26.315398 
L 50.586796 -26.141826 
L 50.946878 -25.968254 
L 51.296028 -25.794681 
L 51.628016 -25.621109 
L 51.939589 -25.447537 
L 52.230319 -25.273964 
L 52.502179 -25.100392 
L 52.758894 -24.92682 
L 53.005152 -24.753248 
L 53.245781 -24.579675 
L 53.484985 -24.406103 
L 53.725703 -24.232531 
L 53.969163 -24.058958 
L 54.214621 -23.885386 
L 54.459293 -23.711814 
L 54.698445 -23.538241 
L 54.925596 -23.364669 
L 55.132822 -23.191097 
L 55.311126 -23.017525 
L 55.450883 -22.843952 
L 55.542372 -22.67038 
L 55.576379 -22.496808 
L 55.544866 -22.323235 
L 55.441675 -22.149663 
L 55.26317 -21.976091 
L 55.008765 -21.802518 
L 54.68122 -21.628946 
L 54.28665 -21.455374 
L 53.834204 -21.281801 
L 53.335443 -21.108229 
L 52.803473 -20.934657 
L 52.251954 -20.761085 
L 51.694113 -20.587512 
L 51.141894 -20.41394 
L 50.605341 -20.240368 
L 50.092272 -20.066795 
L 49.608247 -19.893223 
L 49.156767 -19.719651 
L 48.739656 -19.546078 
L 48.357494 -19.372506 
L 48.010041 -19.198934 
L 47.69658 -19.025362 
L 47.416141 -18.851789 
L 47.167609 -18.678217 
L 46.949741 -18.504645 
L 46.761121 -18.331072 
L 46.600108 -18.1575 
z
" style="stroke: #6f6f6f; stroke-width: 0.15"/>
    </defs>
    <g clip-path="url(#p2c5fbb18e8)">
     <use xlink:href="#me9720ab20a" x="0" y="84.96" style="fill: #efb792; stroke: #6f6f6f; stroke-width: 0.15"/>
    </g>
   </g>
   <g id="PolyCollection_3">
    <defs>
     <path id="m0c5a34c279" d="M 70.642331 -20.454894 
L 69.292297 -20.454894 
L 69.074384 -20.696518 
L 68.805502 -20.938143 
L 68.480001 -21.179767 
L 68.093456 -21.421391 
L 67.643285 -21.663016 
L 67.129373 -21.90464 
L 66.554669 -22.146264 
L 65.92568 -22.387889 
L 65.252792 -22.629513 
L 64.550349 -22.871137 
L 63.836422 -23.112762 
L 63.132231 -23.354386 
L 62.461215 -23.59601 
L 61.847779 -23.837635 
L 61.315803 -24.079259 
L 60.887028 -24.320883 
L 60.579467 -24.562508 
L 60.406008 -24.804132 
L 60.373357 -25.045756 
L 60.481446 -25.287381 
L 60.72338 -25.529005 
L 61.085938 -25.770629 
L 61.55058 -26.012254 
L 62.094836 -26.253878 
L 62.693939 -26.495502 
L 63.322515 -26.737127 
L 63.956168 -26.978751 
L 64.572804 -27.220375 
L 65.153618 -27.462 
L 65.6837 -27.703624 
L 66.152285 -27.945249 
L 66.55272 -28.186873 
L 66.882226 -28.428497 
L 67.141551 -28.670122 
L 67.334577 -28.911746 
L 67.467903 -29.15337 
L 67.550404 -29.394995 
L 67.592727 -29.636619 
L 67.606692 -29.878243 
L 67.604571 -30.119868 
L 67.598262 -30.361492 
L 67.598409 -30.603116 
L 67.613564 -30.844741 
L 67.649508 -31.086365 
L 67.708826 -31.327989 
L 67.790849 -31.569614 
L 67.891961 -31.811238 
L 68.006273 -32.052862 
L 68.126551 -32.294487 
L 68.245295 -32.536111 
L 68.355778 -32.777735 
L 68.452933 -33.01936 
L 68.533942 -33.260984 
L 68.598468 -33.502608 
L 68.648516 -33.744233 
L 68.687974 -33.985857 
L 68.721914 -34.227481 
L 68.755787 -34.469106 
L 68.794629 -34.71073 
L 68.842397 -34.952354 
L 68.901521 -35.193979 
L 68.972705 -35.435603 
L 69.054983 -35.677227 
L 69.145989 -35.918852 
L 69.242369 -36.160476 
L 69.340258 -36.402101 
L 69.435741 -36.643725 
L 69.52523 -36.885349 
L 69.605726 -37.126974 
L 69.674935 -37.368598 
L 69.731272 -37.610222 
L 69.773753 -37.851847 
L 69.801851 -38.093471 
L 69.815329 -38.335095 
L 69.814112 -38.57672 
L 69.798223 -38.818344 
L 69.767791 -39.059968 
L 69.723142 -39.301593 
L 69.66495 -39.543217 
L 69.594417 -39.784841 
L 69.513443 -40.026466 
L 69.424747 -40.26809 
L 69.331893 -40.509714 
L 69.239192 -40.751339 
L 69.151479 -40.992963 
L 69.073769 -41.234587 
L 69.010834 -41.476212 
L 68.966746 -41.717836 
L 68.944467 -41.95946 
L 68.945529 -42.201085 
L 68.96987 -42.442709 
L 69.015843 -42.684333 
L 69.080404 -42.925958 
L 69.159447 -43.167582 
L 69.248235 -43.409206 
L 69.341869 -43.650831 
L 69.435723 -43.892455 
L 69.525802 -44.134079 
L 69.608984 -44.375704 
L 70.325644 -44.375704 
L 70.325644 -44.375704 
L 70.408826 -44.134079 
L 70.498905 -43.892455 
L 70.592759 -43.650831 
L 70.686393 -43.409206 
L 70.775181 -43.167582 
L 70.854224 -42.925958 
L 70.918785 -42.684333 
L 70.964758 -42.442709 
L 70.989099 -42.201085 
L 70.990161 -41.95946 
L 70.967882 -41.717836 
L 70.923794 -41.476212 
L 70.860858 -41.234587 
L 70.783149 -40.992963 
L 70.695435 -40.751339 
L 70.602734 -40.509714 
L 70.509881 -40.26809 
L 70.421185 -40.026466 
L 70.340211 -39.784841 
L 70.269678 -39.543217 
L 70.211486 -39.301593 
L 70.166837 -39.059968 
L 70.136405 -38.818344 
L 70.120516 -38.57672 
L 70.119299 -38.335095 
L 70.132777 -38.093471 
L 70.160875 -37.851847 
L 70.203356 -37.610222 
L 70.259693 -37.368598 
L 70.328902 -37.126974 
L 70.409398 -36.885349 
L 70.498887 -36.643725 
L 70.59437 -36.402101 
L 70.692259 -36.160476 
L 70.788639 -35.918852 
L 70.879645 -35.677227 
L 70.961923 -35.435603 
L 71.033107 -35.193979 
L 71.092231 -34.952354 
L 71.139999 -34.71073 
L 71.178841 -34.469106 
L 71.212714 -34.227481 
L 71.246654 -33.985857 
L 71.286112 -33.744233 
L 71.33616 -33.502608 
L 71.400686 -33.260984 
L 71.481695 -33.01936 
L 71.57885 -32.777735 
L 71.689333 -32.536111 
L 71.808076 -32.294487 
L 71.928355 -32.052862 
L 72.042667 -31.811238 
L 72.143779 -31.569614 
L 72.225802 -31.327989 
L 72.28512 -31.086365 
L 72.321064 -30.844741 
L 72.336219 -30.603116 
L 72.336366 -30.361492 
L 72.330057 -30.119868 
L 72.327936 -29.878243 
L 72.341901 -29.636619 
L 72.384224 -29.394995 
L 72.466725 -29.15337 
L 72.600051 -28.911746 
L 72.793077 -28.670122 
L 73.052402 -28.428497 
L 73.381908 -28.186873 
L 73.782343 -27.945249 
L 74.250928 -27.703624 
L 74.781009 -27.462 
L 75.361823 -27.220375 
L 75.97846 -26.978751 
L 76.612113 -26.737127 
L 77.240689 -26.495502 
L 77.839792 -26.253878 
L 78.384048 -26.012254 
L 78.84869 -25.770629 
L 79.211248 -25.529005 
L 79.453182 -25.287381 
L 79.561271 -25.045756 
L 79.52862 -24.804132 
L 79.355161 -24.562508 
L 79.0476 -24.320883 
L 78.618825 -24.079259 
L 78.086849 -23.837635 
L 77.473413 -23.59601 
L 76.802396 -23.354386 
L 76.098206 -23.112762 
L 75.384279 -22.871137 
L 74.681836 -22.629513 
L 74.008948 -22.387889 
L 73.379959 -22.146264 
L 72.805254 -21.90464 
L 72.291343 -21.663016 
L 71.841172 -21.421391 
L 71.454627 -21.179767 
L 71.129126 -20.938143 
L 70.860244 -20.696518 
L 70.642331 -20.454894 
z
" style="stroke: #6f6f6f; stroke-width: 0.15"/>
    </defs>
    <g clip-path="url(#p2c5fbb18e8)">
     <use xlink:href="#m0c5a34c279" x="0" y="84.96" style="fill: #98daa7; stroke: #6f6f6f; stroke-width: 0.15"/>
    </g>
   </g>
   <g id="line2d_8">
    <path d="M 21.99753 63.635308 
L 21.99753 54.302481 
" clip-path="url(#p2c5fbb18e8)" style="fill: none; stroke: #8c8c8c; stroke-width: 0.75; stroke-linecap: round"/>
   </g>
   <g id="line2d_9">
    <path d="M 21.99753 62.569045 
L 21.99753 58.833473 
" clip-path="url(#p2c5fbb18e8)" style="fill: none; stroke: #8c8c8c; stroke-width: 4; stroke-linecap: round"/>
   </g>
   <g id="line2d_10">
    <path d="M 21.99753 61.833473 
" clip-path="url(#p2c5fbb18e8)" style="fill: none; stroke: #6f6f6f; stroke-width: 1.2; stroke-linecap: round"/>
    <defs>
     <path id="mc52c7d2087" d="M 0 0.833333 
C 0.221003 0.833333 0.432983 0.745528 0.589256 0.589256 
C 0.745528 0.432983 0.833333 0.221003 0.833333 0 
C 0.833333 -0.221003 0.745528 -0.432983 0.589256 -0.589256 
C 0.432983 -0.745528 0.221003 -0.833333 0 -0.833333 
C -0.221003 -0.833333 -0.432983 -0.745528 -0.589256 -0.589256 
C -0.745528 -0.432983 -0.833333 -0.221003 -0.833333 0 
C -0.833333 0.221003 -0.745528 0.432983 -0.589256 0.589256 
C -0.432983 0.745528 -0.221003 0.833333 0 0.833333 
z
" style="stroke: #ffffff; stroke-width: 0.8"/>
    </defs>
    <g clip-path="url(#p2c5fbb18e8)">
     <use xlink:href="#mc52c7d2087" x="21.99753" y="61.833473" style="fill: #ffffff; stroke: #ffffff; stroke-width: 0.8"/>
    </g>
   </g>
   <g id="line2d_11">
    <path d="M 45.982422 65.065115 
L 45.982422 51.356227 
" clip-path="url(#p2c5fbb18e8)" style="fill: none; stroke: #8c8c8c; stroke-width: 0.75; stroke-linecap: round"/>
   </g>
   <g id="line2d_12">
    <path d="M 45.982422 62.939158 
L 45.982422 58.023136 
" clip-path="url(#p2c5fbb18e8)" style="fill: none; stroke: #8c8c8c; stroke-width: 4; stroke-linecap: round"/>
   </g>
   <g id="line2d_13">
    <path d="M 45.982422 61.12033 
" clip-path="url(#p2c5fbb18e8)" style="fill: none; stroke: #6f6f6f; stroke-width: 1.2; stroke-linecap: round"/>
    <g clip-path="url(#p2c5fbb18e8)">
     <use xlink:href="#mc52c7d2087" x="45.982422" y="61.12033" style="fill: #ffffff; stroke: #ffffff; stroke-width: 0.8"/>
    </g>
   </g>
   <g id="line2d_14">
    <path d="M 69.967314 62.199006 
L 69.967314 50.158904 
" clip-path="url(#p2c5fbb18e8)" style="fill: none; stroke: #8c8c8c; stroke-width: 0.75; stroke-linecap: round"/>
   </g>
   <g id="line2d_15">
    <path d="M 69.967314 60.406988 
L 69.967314 56.131306 
" clip-path="url(#p2c5fbb18e8)" style="fill: none; stroke: #8c8c8c; stroke-width: 4; stroke-linecap: round"/>
   </g>
   <g id="line2d_16">
    <path d="M 69.967314 59.35665 
" clip-path="url(#p2c5fbb18e8)" style="fill: none; stroke: #6f6f6f; stroke-width: 1.2; stroke-linecap: round"/>
    <g clip-path="url(#p2c5fbb18e8)">
     <use xlink:href="#mc52c7d2087" x="69.967314" y="59.35665" style="fill: #ffffff; stroke: #ffffff; stroke-width: 0.8"/>
    </g>
   </g>
   <g id="patch_3">
    <path d="M 10.005084 74.419526 
L 10.005084 4.076256 
" style="fill: none; stroke: #777777; stroke-width: 0.5; stroke-linejoin: miter; stroke-linecap: square"/>
   </g>
   <g id="patch_4">
    <path d="M 10.005084 76.919526 
L 81.95976 76.919526 
" style="fill: none; stroke: #777777; stroke-width: 0.5; stroke-linejoin: miter; stroke-linecap: square"/>
   </g>
  </g>
 </g>
 <defs>
  <clipPath id="p2c5fbb18e8">
   <rect x="10.005084" y="4.076256" width="71.954676" height="70.34327"/>
  </clipPath>
 </defs>
</svg>
