<?xml version="1.0" encoding="utf-8" standalone="no"?>
<!DOCTYPE svg PUBLIC "-//W3C//DTD SVG 1.1//EN"
  "http://www.w3.org/Graphics/SVG/1.1/DTD/svg11.dtd">
<svg xmlns:xlink="http://www.w3.org/1999/xlink" width="56.16pt" height="84.96pt" viewBox="0 0 56.16 84.96" xmlns="http://www.w3.org/2000/svg" version="1.1">
 <metadata>
  <rdf:RDF xmlns:dc="http://purl.org/dc/elements/1.1/" xmlns:cc="http://creativecommons.org/ns#" xmlns:rdf="http://www.w3.org/1999/02/22-rdf-syntax-ns#">
   <cc:Work>
    <dc:type rdf:resource="http://purl.org/dc/dcmitype/StillImage"/>
    <dc:date>2024-05-27T15:37:13.601420</dc:date>
    <dc:format>image/svg+xml</dc:format>
    <dc:creator>
     <cc:Agent>
      <dc:title>Matplotlib v3.8.3, https://matplotlib.org/</dc:title>
     </cc:Agent>
    </dc:creator>
   </cc:Work>
  </rdf:RDF>
 </metadata>
 <defs>
  <style type="text/css">*{stroke-linejoin: round; stroke-linecap: butt}</style>
 </defs>
 <g id="figure_1">
  <g id="patch_1">
   <path d="M 0 84.96 
L 56.16 84.96 
L 56.16 0 
L 0 0 
z
" style="fill: #ffffff"/>
  </g>
  <g id="axes_1">
   <g id="patch_2">
    <path d="M 13.341646 74.419526 
L 53.15976 74.419526 
L 53.15976 4.076256 
L 13.341646 4.076256 
z
" style="fill: #ffffff"/>
   </g>
   <g id="matplotlib.axis_1">
    <g id="xtick_1">
     <g id="text_1">
      <!-- T -->
      <g style="fill: #333333" transform="translate(22.227307 81.230229) scale(0.035 -0.035)">
       <defs>
        <path id="Helvetica-54" d="M 3828 4591 
L 3828 4044 
L 2281 4044 
L 2281 0 
L 1650 0 
L 1650 4044 
L 103 4044 
L 103 4591 
L 3828 4591 
z
" transform="scale(0.015625)"/>
       </defs>
       <use xlink:href="#Helvetica-54"/>
      </g>
     </g>
    </g>
    <g id="xtick_2">
     <g id="text_2">
      <!-- IL7R Non T -->
      <g style="fill: #333333" transform="translate(34.257536 81.230229) scale(0.035 -0.035)">
       <defs>
        <path id="Helvetica-49" d="M 628 4591 
L 1256 4591 
L 1256 0 
L 628 0 
L 628 4591 
z
" transform="scale(0.015625)"/>
        <path id="Helvetica-4c" d="M 488 4591 
L 1109 4591 
L 1109 547 
L 3434 547 
L 3434 0 
L 488 0 
L 488 4591 
z
" transform="scale(0.015625)"/>
        <path id="Helvetica-37" d="M 3347 4400 
L 3347 3909 
Q 3131 3700 2773 3181 
Q 2416 2663 2141 2063 
Q 1869 1478 1728 997 
Q 1638 688 1494 0 
L 872 0 
Q 1084 1281 1809 2550 
Q 2238 3294 2709 3834 
L 234 3834 
L 234 4400 
L 3347 4400 
z
" transform="scale(0.015625)"/>
        <path id="Helvetica-52" d="M 2622 2488 
Q 3059 2488 3314 2663 
Q 3569 2838 3569 3294 
Q 3569 3784 3213 3963 
Q 3022 4056 2703 4056 
L 1184 4056 
L 1184 2488 
L 2622 2488 
z
M 563 4591 
L 2688 4591 
Q 3213 4591 3553 4438 
Q 4200 4144 4200 3353 
Q 4200 2941 4029 2678 
Q 3859 2416 3553 2256 
Q 3822 2147 3958 1969 
Q 4094 1791 4109 1391 
L 4131 775 
Q 4141 513 4175 384 
Q 4231 166 4375 103 
L 4375 0 
L 3613 0 
Q 3581 59 3562 153 
Q 3544 247 3531 516 
L 3494 1281 
Q 3472 1731 3159 1884 
Q 2981 1969 2600 1969 
L 1184 1969 
L 1184 0 
L 563 0 
L 563 4591 
z
" transform="scale(0.015625)"/>
        <path id="Helvetica-20" transform="scale(0.015625)"/>
        <path id="Helvetica-4e" d="M 488 4591 
L 1222 4591 
L 3541 872 
L 3541 4591 
L 4131 4591 
L 4131 0 
L 3434 0 
L 1081 3716 
L 1081 0 
L 488 0 
L 488 4591 
z
M 2269 4591 
L 2269 4591 
z
" transform="scale(0.015625)"/>
        <path id="Helvetica-6f" d="M 1741 363 
Q 2300 363 2508 786 
Q 2716 1209 2716 1728 
Q 2716 2197 2566 2491 
Q 2328 2953 1747 2953 
Q 1231 2953 997 2559 
Q 763 2166 763 1609 
Q 763 1075 997 719 
Q 1231 363 1741 363 
z
M 1763 3444 
Q 2409 3444 2856 3012 
Q 3303 2581 3303 1744 
Q 3303 934 2909 406 
Q 2516 -122 1688 -122 
Q 997 -122 590 345 
Q 184 813 184 1600 
Q 184 2444 612 2944 
Q 1041 3444 1763 3444 
z
M 1744 3428 
L 1744 3428 
z
" transform="scale(0.015625)"/>
        <path id="Helvetica-6e" d="M 413 3347 
L 947 3347 
L 947 2872 
Q 1184 3166 1450 3294 
Q 1716 3422 2041 3422 
Q 2753 3422 3003 2925 
Q 3141 2653 3141 2147 
L 3141 0 
L 2569 0 
L 2569 2109 
Q 2569 2416 2478 2603 
Q 2328 2916 1934 2916 
Q 1734 2916 1606 2875 
Q 1375 2806 1200 2600 
Q 1059 2434 1017 2257 
Q 975 2081 975 1753 
L 975 0 
L 413 0 
L 413 3347 
z
M 1734 3428 
L 1734 3428 
z
" transform="scale(0.015625)"/>
       </defs>
       <use xlink:href="#Helvetica-49"/>
       <use xlink:href="#Helvetica-4c" x="27.783203"/>
       <use xlink:href="#Helvetica-37" x="83.398438"/>
       <use xlink:href="#Helvetica-52" x="139.013672"/>
       <use xlink:href="#Helvetica-20" x="211.230469"/>
       <use xlink:href="#Helvetica-4e" x="239.013672"/>
       <use xlink:href="#Helvetica-6f" x="311.230469"/>
       <use xlink:href="#Helvetica-6e" x="366.845703"/>
       <use xlink:href="#Helvetica-20" x="422.460938"/>
       <use xlink:href="#Helvetica-54" x="450.244141"/>
      </g>
     </g>
    </g>
   </g>
   <g id="matplotlib.axis_2">
    <g id="ytick_1">
     <g id="line2d_1">
      <defs>
       <path id="m285bd59c45" d="M 0 0 
L -1 0 
" style="stroke: #777777; stroke-width: 0.5"/>
      </defs>
      <g>
       <use xlink:href="#m285bd59c45" x="13.341646" y="68.030497" style="fill: #777777; stroke: #777777; stroke-width: 0.5"/>
      </g>
     </g>
     <g id="text_3">
      <!-- 0 -->
      <g style="fill: #333333" transform="translate(9.673365 69.106513) scale(0.03 -0.03)">
       <defs>
        <path id="Helvetica-30" d="M 1731 4475 
Q 2600 4475 2988 3759 
Q 3288 3206 3288 2244 
Q 3288 1331 3016 734 
Q 2622 -122 1728 -122 
Q 922 -122 528 578 
Q 200 1163 200 2147 
Q 200 2909 397 3456 
Q 766 4475 1731 4475 
z
M 1725 391 
Q 2163 391 2422 778 
Q 2681 1166 2681 2222 
Q 2681 2984 2493 3476 
Q 2306 3969 1766 3969 
Q 1269 3969 1039 3501 
Q 809 3034 809 2125 
Q 809 1441 956 1025 
Q 1181 391 1725 391 
z
" transform="scale(0.015625)"/>
       </defs>
       <use xlink:href="#Helvetica-30"/>
      </g>
     </g>
    </g>
    <g id="ytick_2">
     <g id="line2d_2">
      <g>
       <use xlink:href="#m285bd59c45" x="13.341646" y="55.239649" style="fill: #777777; stroke: #777777; stroke-width: 0.5"/>
      </g>
     </g>
     <g id="text_4">
      <!-- 2000 -->
      <g style="fill: #333333" transform="translate(4.668521 56.315664) scale(0.03 -0.03)">
       <defs>
        <path id="Helvetica-32" d="M 200 0 
Q 231 578 439 1006 
Q 647 1434 1250 1784 
L 1850 2131 
Q 2253 2366 2416 2531 
Q 2672 2791 2672 3125 
Q 2672 3516 2437 3745 
Q 2203 3975 1813 3975 
Q 1234 3975 1013 3538 
Q 894 3303 881 2888 
L 309 2888 
Q 319 3472 525 3841 
Q 891 4491 1816 4491 
Q 2584 4491 2939 4075 
Q 3294 3659 3294 3150 
Q 3294 2613 2916 2231 
Q 2697 2009 2131 1694 
L 1703 1456 
Q 1397 1288 1222 1134 
Q 909 863 828 531 
L 3272 531 
L 3272 0 
L 200 0 
z
" transform="scale(0.015625)"/>
       </defs>
       <use xlink:href="#Helvetica-32"/>
       <use xlink:href="#Helvetica-30" x="55.615234"/>
       <use xlink:href="#Helvetica-30" x="111.230469"/>
       <use xlink:href="#Helvetica-30" x="166.845703"/>
      </g>
     </g>
    </g>
    <g id="ytick_3">
     <g id="line2d_3">
      <g>
       <use xlink:href="#m285bd59c45" x="13.341646" y="42.4488" style="fill: #777777; stroke: #777777; stroke-width: 0.5"/>
      </g>
     </g>
     <g id="text_5">
      <!-- 4000 -->
      <g style="fill: #333333" transform="translate(4.668521 43.524816) scale(0.03 -0.03)">
       <defs>
        <path id="Helvetica-34" d="M 2116 1584 
L 2116 3613 
L 681 1584 
L 2116 1584 
z
M 2125 0 
L 2125 1094 
L 163 1094 
L 163 1644 
L 2213 4488 
L 2688 4488 
L 2688 1584 
L 3347 1584 
L 3347 1094 
L 2688 1094 
L 2688 0 
L 2125 0 
z
" transform="scale(0.015625)"/>
       </defs>
       <use xlink:href="#Helvetica-34"/>
       <use xlink:href="#Helvetica-30" x="55.615234"/>
       <use xlink:href="#Helvetica-30" x="111.230469"/>
       <use xlink:href="#Helvetica-30" x="166.845703"/>
      </g>
     </g>
    </g>
    <g id="ytick_4">
     <g id="line2d_4">
      <g>
       <use xlink:href="#m285bd59c45" x="13.341646" y="29.657952" style="fill: #777777; stroke: #777777; stroke-width: 0.5"/>
      </g>
     </g>
     <g id="text_6">
      <!-- 6000 -->
      <g style="fill: #333333" transform="translate(4.668521 30.733968) scale(0.03 -0.03)">
       <defs>
        <path id="Helvetica-36" d="M 1872 4494 
Q 2622 4494 2917 4105 
Q 3213 3716 3213 3303 
L 2656 3303 
Q 2606 3569 2497 3719 
Q 2294 4000 1881 4000 
Q 1409 4000 1131 3564 
Q 853 3128 822 2316 
Q 1016 2600 1309 2741 
Q 1578 2866 1909 2866 
Q 2472 2866 2890 2506 
Q 3309 2147 3309 1434 
Q 3309 825 2912 354 
Q 2516 -116 1781 -116 
Q 1153 -116 697 361 
Q 241 838 241 1966 
Q 241 2800 444 3381 
Q 834 4494 1872 4494 
z
M 1831 384 
Q 2275 384 2495 682 
Q 2716 981 2716 1388 
Q 2716 1731 2519 2042 
Q 2322 2353 1803 2353 
Q 1441 2353 1167 2112 
Q 894 1872 894 1388 
Q 894 963 1142 673 
Q 1391 384 1831 384 
z
" transform="scale(0.015625)"/>
       </defs>
       <use xlink:href="#Helvetica-36"/>
       <use xlink:href="#Helvetica-30" x="55.615234"/>
       <use xlink:href="#Helvetica-30" x="111.230469"/>
       <use xlink:href="#Helvetica-30" x="166.845703"/>
      </g>
     </g>
    </g>
    <g id="ytick_5">
     <g id="line2d_5">
      <g>
       <use xlink:href="#m285bd59c45" x="13.341646" y="16.867104" style="fill: #777777; stroke: #777777; stroke-width: 0.5"/>
      </g>
     </g>
     <g id="text_7">
      <!-- 8000 -->
      <g style="fill: #333333" transform="translate(4.668521 17.94312) scale(0.03 -0.03)">
       <defs>
        <path id="Helvetica-38" d="M 1741 2600 
Q 2113 2600 2322 2808 
Q 2531 3016 2531 3303 
Q 2531 3553 2331 3762 
Q 2131 3972 1722 3972 
Q 1316 3972 1134 3762 
Q 953 3553 953 3272 
Q 953 2956 1187 2778 
Q 1422 2600 1741 2600 
z
M 1775 384 
Q 2166 384 2423 595 
Q 2681 806 2681 1225 
Q 2681 1659 2415 1884 
Q 2150 2109 1734 2109 
Q 1331 2109 1076 1879 
Q 822 1650 822 1244 
Q 822 894 1055 639 
Q 1288 384 1775 384 
z
M 975 2384 
Q 741 2484 609 2619 
Q 363 2869 363 3269 
Q 363 3769 725 4128 
Q 1088 4488 1753 4488 
Q 2397 4488 2762 4148 
Q 3128 3809 3128 3356 
Q 3128 2938 2916 2678 
Q 2797 2531 2547 2391 
Q 2825 2263 2984 2097 
Q 3281 1784 3281 1284 
Q 3281 694 2884 283 
Q 2488 -128 1763 -128 
Q 1109 -128 657 226 
Q 206 581 206 1256 
Q 206 1653 400 1942 
Q 594 2231 975 2384 
z
" transform="scale(0.015625)"/>
       </defs>
       <use xlink:href="#Helvetica-38"/>
       <use xlink:href="#Helvetica-30" x="55.615234"/>
       <use xlink:href="#Helvetica-30" x="111.230469"/>
       <use xlink:href="#Helvetica-30" x="166.845703"/>
      </g>
     </g>
    </g>
    <g id="ytick_6">
     <g id="line2d_6">
      <g>
       <use xlink:href="#m285bd59c45" x="13.341646" y="4.076256" style="fill: #777777; stroke: #777777; stroke-width: 0.5"/>
      </g>
     </g>
     <g id="text_8">
      <!-- 10000 -->
      <g style="fill: #333333" transform="translate(3.00024 5.152271) scale(0.03 -0.03)">
       <defs>
        <path id="Helvetica-31" d="M 613 3169 
L 613 3600 
Q 1222 3659 1462 3798 
Q 1703 3938 1822 4456 
L 2266 4456 
L 2266 0 
L 1666 0 
L 1666 3169 
L 613 3169 
z
" transform="scale(0.015625)"/>
       </defs>
       <use xlink:href="#Helvetica-31"/>
       <use xlink:href="#Helvetica-30" x="55.615234"/>
       <use xlink:href="#Helvetica-30" x="111.230469"/>
       <use xlink:href="#Helvetica-30" x="166.845703"/>
       <use xlink:href="#Helvetica-30" x="222.460938"/>
      </g>
     </g>
    </g>
   </g>
   <g id="PolyCollection_1">
    <defs>
     <path id="m090a1dbc6b" d="M 24.776491 -16.401477 
L 21.815859 -16.401477 
L 21.516886 -16.534363 
L 21.180632 -16.667249 
L 20.807882 -16.800135 
L 20.400789 -16.933021 
L 19.963014 -17.065907 
L 19.499792 -17.198793 
L 19.017932 -17.331679 
L 18.525725 -17.464564 
L 18.032768 -17.59745 
L 17.549691 -17.730336 
L 17.087806 -17.863222 
L 16.658686 -17.996108 
L 16.273692 -18.128994 
L 15.943481 -18.26188 
L 15.67751 -18.394766 
L 15.483586 -18.527652 
L 15.367466 -18.660537 
L 15.332552 -18.793423 
L 15.379698 -18.926309 
L 15.507137 -19.059195 
L 15.710536 -19.192081 
L 15.983184 -19.324967 
L 16.316293 -19.457853 
L 16.699393 -19.590739 
L 17.120812 -19.723624 
L 17.568186 -19.85651 
L 18.028993 -19.989396 
L 18.491074 -20.122282 
L 18.943102 -20.255168 
L 19.374995 -20.388054 
L 19.778238 -20.52094 
L 20.14612 -20.653826 
L 20.473862 -20.786712 
L 20.758658 -20.919597 
L 20.999612 -21.052483 
L 21.197605 -21.185369 
L 21.355091 -21.318255 
L 21.475834 -21.451141 
L 21.564619 -21.584027 
L 21.626937 -21.716913 
L 21.668669 -21.849799 
L 21.695775 -21.982685 
L 21.714012 -22.11557 
L 21.728688 -22.248456 
L 21.744453 -22.381342 
L 21.765145 -22.514228 
L 21.793693 -22.647114 
L 21.83207 -22.78 
L 21.881303 -22.912886 
L 21.941531 -23.045772 
L 22.012103 -23.178658 
L 22.091709 -23.311543 
L 22.178529 -23.444429 
L 22.270395 -23.577315 
L 22.364944 -23.710201 
L 22.459768 -23.843087 
L 22.552533 -23.975973 
L 22.641079 -24.108859 
L 22.723488 -24.241745 
L 22.798124 -24.374631 
L 22.863648 -24.507516 
L 22.919005 -24.640402 
L 22.963399 -24.773288 
L 22.996262 -24.906174 
L 23.017215 -25.03906 
L 23.026037 -25.171946 
L 23.02264 -25.304832 
L 23.007062 -25.437718 
L 22.979469 -25.570604 
L 22.940176 -25.703489 
L 22.889676 -25.836375 
L 22.828678 -25.969261 
L 22.758147 -26.102147 
L 22.679337 -26.235033 
L 22.593815 -26.367919 
L 22.503467 -26.500805 
L 22.41048 -26.633691 
L 22.317299 -26.766576 
L 22.226561 -26.899462 
L 22.141 -27.032348 
L 22.063338 -27.165234 
L 21.99616 -27.29812 
L 21.941783 -27.431006 
L 21.902143 -27.563892 
L 21.878679 -27.696778 
L 21.872262 -27.829664 
L 21.883139 -27.962549 
L 21.910926 -28.095435 
L 21.954628 -28.228321 
L 22.012704 -28.361207 
L 22.083157 -28.494093 
L 22.163645 -28.626979 
L 22.251616 -28.759865 
L 22.344439 -28.892751 
L 22.43953 -29.025637 
L 22.534473 -29.158522 
L 22.627107 -29.291408 
L 22.715604 -29.424294 
L 22.798506 -29.55718 
L 23.793844 -29.55718 
L 23.793844 -29.55718 
L 23.876745 -29.424294 
L 23.965242 -29.291408 
L 24.057877 -29.158522 
L 24.152819 -29.025637 
L 24.247911 -28.892751 
L 24.340733 -28.759865 
L 24.428705 -28.626979 
L 24.509193 -28.494093 
L 24.579645 -28.361207 
L 24.637721 -28.228321 
L 24.681423 -28.095435 
L 24.70921 -27.962549 
L 24.720087 -27.829664 
L 24.71367 -27.696778 
L 24.690207 -27.563892 
L 24.650566 -27.431006 
L 24.59619 -27.29812 
L 24.529011 -27.165234 
L 24.45135 -27.032348 
L 24.365789 -26.899462 
L 24.275051 -26.766576 
L 24.18187 -26.633691 
L 24.088882 -26.500805 
L 23.998534 -26.367919 
L 23.913012 -26.235033 
L 23.834202 -26.102147 
L 23.763671 -25.969261 
L 23.702673 -25.836375 
L 23.652173 -25.703489 
L 23.61288 -25.570604 
L 23.585287 -25.437718 
L 23.569709 -25.304832 
L 23.566312 -25.171946 
L 23.575134 -25.03906 
L 23.596088 -24.906174 
L 23.628951 -24.773288 
L 23.673345 -24.640402 
L 23.728701 -24.507516 
L 23.794225 -24.374631 
L 23.868862 -24.241745 
L 23.951271 -24.108859 
L 24.039816 -23.975973 
L 24.132581 -23.843087 
L 24.227405 -23.710201 
L 24.321954 -23.577315 
L 24.41382 -23.444429 
L 24.50064 -23.311543 
L 24.580246 -23.178658 
L 24.650818 -23.045772 
L 24.711046 -22.912886 
L 24.76028 -22.78 
L 24.798657 -22.647114 
L 24.827204 -22.514228 
L 24.847897 -22.381342 
L 24.863661 -22.248456 
L 24.878337 -22.11557 
L 24.896575 -21.982685 
L 24.92368 -21.849799 
L 24.965412 -21.716913 
L 25.027731 -21.584027 
L 25.116516 -21.451141 
L 25.237259 -21.318255 
L 25.394744 -21.185369 
L 25.592738 -21.052483 
L 25.833691 -20.919597 
L 26.118487 -20.786712 
L 26.44623 -20.653826 
L 26.814112 -20.52094 
L 27.217355 -20.388054 
L 27.649247 -20.255168 
L 28.101275 -20.122282 
L 28.563356 -19.989396 
L 29.024164 -19.85651 
L 29.471537 -19.723624 
L 29.892956 -19.590739 
L 30.276057 -19.457853 
L 30.609165 -19.324967 
L 30.881813 -19.192081 
L 31.085212 -19.059195 
L 31.212651 -18.926309 
L 31.259797 -18.793423 
L 31.224884 -18.660537 
L 31.108763 -18.527652 
L 30.914839 -18.394766 
L 30.648869 -18.26188 
L 30.318657 -18.128994 
L 29.933663 -17.996108 
L 29.504543 -17.863222 
L 29.042658 -17.730336 
L 28.559581 -17.59745 
L 28.066624 -17.464564 
L 27.574417 -17.331679 
L 27.092557 -17.198793 
L 26.629335 -17.065907 
L 26.19156 -16.933021 
L 25.784468 -16.800135 
L 25.411717 -16.667249 
L 25.075463 -16.534363 
L 24.776491 -16.401477 
z
" style="stroke: #525252; stroke-width: 0.15"/>
    </defs>
    <g clip-path="url(#pdb8b18816d)">
     <use xlink:href="#m090a1dbc6b" x="0" y="84.96" style="fill: #bbba94; stroke: #525252; stroke-width: 0.15"/>
    </g>
   </g>
   <g id="PolyCollection_2">
    <defs>
     <path id="m6b0b8dd99c" d="M 44.744955 -17.372625 
L 41.665508 -17.372625 
L 41.350363 -17.449761 
L 40.996976 -17.526898 
L 40.606985 -17.604035 
L 40.183611 -17.681172 
L 39.731749 -17.758309 
L 39.257944 -17.835445 
L 38.770279 -17.912582 
L 38.278133 -17.989719 
L 37.791845 -18.066856 
L 37.322274 -18.143993 
L 36.880303 -18.22113 
L 36.476291 -18.298266 
L 36.119538 -18.375403 
L 35.817792 -18.45254 
L 35.57683 -18.529677 
L 35.400161 -18.606814 
L 35.288869 -18.68395 
L 35.241609 -18.761087 
L 35.254758 -18.838224 
L 35.322718 -18.915361 
L 35.438328 -18.992498 
L 35.593376 -19.069635 
L 35.77915 -19.146771 
L 35.986996 -19.223908 
L 36.20884 -19.301045 
L 36.437635 -19.378182 
L 36.667699 -19.455319 
L 36.894933 -19.532455 
L 37.116895 -19.609592 
L 37.332753 -19.686729 
L 37.543099 -19.763866 
L 37.749686 -19.841003 
L 37.955071 -19.918139 
L 38.162238 -19.995276 
L 38.374208 -20.072413 
L 38.593677 -20.14955 
L 38.822718 -20.226687 
L 39.062549 -20.303824 
L 39.313404 -20.38096 
L 39.574488 -20.458097 
L 39.844033 -20.535234 
L 40.119427 -20.612371 
L 40.397408 -20.689508 
L 40.674296 -20.766644 
L 40.946242 -20.843781 
L 41.209477 -20.920918 
L 41.460525 -20.998055 
L 41.696389 -21.075192 
L 41.914674 -21.152328 
L 42.113665 -21.229465 
L 42.292347 -21.306602 
L 42.450378 -21.383739 
L 42.588016 -21.460876 
L 42.706028 -21.538013 
L 42.805566 -21.615149 
L 42.888048 -21.692286 
L 42.955032 -21.769423 
L 43.008103 -21.84656 
L 43.048772 -21.923697 
L 43.078397 -22.000833 
L 43.098119 -22.07797 
L 43.108826 -22.155107 
L 43.111125 -22.232244 
L 43.10535 -22.309381 
L 43.091573 -22.386518 
L 43.069642 -22.463654 
L 43.039232 -22.540791 
L 42.999908 -22.617928 
L 42.951206 -22.695065 
L 42.892719 -22.772202 
L 42.82419 -22.849338 
L 42.745609 -22.926475 
L 42.657299 -23.003612 
L 42.559997 -23.080749 
L 42.454904 -23.157886 
L 42.343721 -23.235022 
L 42.228646 -23.312159 
L 42.112329 -23.389296 
L 41.997795 -23.466433 
L 41.888331 -23.54357 
L 41.787334 -23.620707 
L 41.698146 -23.697843 
L 41.623867 -23.77498 
L 41.567185 -23.852117 
L 41.53021 -23.929254 
L 41.514346 -24.006391 
L 41.5202 -24.083527 
L 41.547548 -24.160664 
L 41.595346 -24.237801 
L 41.661798 -24.314938 
L 41.744466 -24.392075 
L 41.840419 -24.469211 
L 41.946407 -24.546348 
L 42.059041 -24.623485 
L 42.174968 -24.700622 
L 42.291035 -24.777759 
L 42.40442 -24.854896 
L 42.512729 -24.932032 
L 42.614063 -25.009169 
L 43.7964 -25.009169 
L 43.7964 -25.009169 
L 43.897734 -24.932032 
L 44.006044 -24.854896 
L 44.119428 -24.777759 
L 44.235495 -24.700622 
L 44.351422 -24.623485 
L 44.464056 -24.546348 
L 44.570044 -24.469211 
L 44.665997 -24.392075 
L 44.748665 -24.314938 
L 44.815117 -24.237801 
L 44.862915 -24.160664 
L 44.890263 -24.083527 
L 44.896118 -24.006391 
L 44.880253 -23.929254 
L 44.843278 -23.852117 
L 44.786596 -23.77498 
L 44.712318 -23.697843 
L 44.623129 -23.620707 
L 44.522132 -23.54357 
L 44.412668 -23.466433 
L 44.298134 -23.389296 
L 44.181817 -23.312159 
L 44.066742 -23.235022 
L 43.955559 -23.157886 
L 43.850466 -23.080749 
L 43.753164 -23.003612 
L 43.664854 -22.926475 
L 43.586273 -22.849338 
L 43.517745 -22.772202 
L 43.459257 -22.695065 
L 43.410555 -22.617928 
L 43.371231 -22.540791 
L 43.340821 -22.463654 
L 43.31889 -22.386518 
L 43.305113 -22.309381 
L 43.299338 -22.232244 
L 43.301638 -22.155107 
L 43.312344 -22.07797 
L 43.332066 -22.000833 
L 43.361691 -21.923697 
L 43.40236 -21.84656 
L 43.455431 -21.769423 
L 43.522415 -21.692286 
L 43.604897 -21.615149 
L 43.704435 -21.538013 
L 43.822447 -21.460876 
L 43.960085 -21.383739 
L 44.118116 -21.306602 
L 44.296798 -21.229465 
L 44.49579 -21.152328 
L 44.714074 -21.075192 
L 44.949938 -20.998055 
L 45.200986 -20.920918 
L 45.464221 -20.843781 
L 45.736167 -20.766644 
L 46.013055 -20.689508 
L 46.291036 -20.612371 
L 46.56643 -20.535234 
L 46.835975 -20.458097 
L 47.097059 -20.38096 
L 47.347914 -20.303824 
L 47.587745 -20.226687 
L 47.816786 -20.14955 
L 48.036256 -20.072413 
L 48.248225 -19.995276 
L 48.455392 -19.918139 
L 48.660777 -19.841003 
L 48.867364 -19.763866 
L 49.077711 -19.686729 
L 49.293568 -19.609592 
L 49.51553 -19.532455 
L 49.742764 -19.455319 
L 49.972828 -19.378182 
L 50.201623 -19.301045 
L 50.423467 -19.223908 
L 50.631313 -19.146771 
L 50.817087 -19.069635 
L 50.972135 -18.992498 
L 51.087745 -18.915361 
L 51.155705 -18.838224 
L 51.168854 -18.761087 
L 51.121594 -18.68395 
L 51.010302 -18.606814 
L 50.833633 -18.529677 
L 50.592671 -18.45254 
L 50.290925 -18.375403 
L 49.934173 -18.298266 
L 49.53016 -18.22113 
L 49.088189 -18.143993 
L 48.618619 -18.066856 
L 48.13233 -17.989719 
L 47.640184 -17.912582 
L 47.152519 -17.835445 
L 46.678715 -17.758309 
L 46.226852 -17.681172 
L 45.803479 -17.604035 
L 45.413487 -17.526898 
L 45.0601 -17.449761 
L 44.744955 -17.372625 
z
" style="stroke: #525252; stroke-width: 0.15"/>
    </defs>
    <g clip-path="url(#pdb8b18816d)">
     <use xlink:href="#m6b0b8dd99c" x="0" y="84.96" style="fill: #977c7f; stroke: #525252; stroke-width: 0.15"/>
    </g>
   </g>
   <g id="line2d_7">
    <path d="M 23.296175 66.814259 
L 23.296175 64.851668 
" clip-path="url(#pdb8b18816d)" style="fill: none; stroke: #8c8c8c; stroke-width: 0.75; stroke-linecap: round"/>
   </g>
   <g id="line2d_8">
    <path d="M 23.296175 66.442977 
L 23.296175 64.851668 
" clip-path="url(#pdb8b18816d)" style="fill: none; stroke: #8c8c8c; stroke-width: 4; stroke-linecap: round"/>
   </g>
   <g id="line2d_9">
    <path d="M 23.296175 65.794128 
" clip-path="url(#pdb8b18816d)" style="fill: none; stroke: #525252; stroke-width: 1.2; stroke-linecap: round"/>
    <defs>
     <path id="mc8c64d47c4" d="M 0 0.833333 
C 0.221003 0.833333 0.432983 0.745528 0.589256 0.589256 
C 0.745528 0.432983 0.833333 0.221003 0.833333 0 
C 0.833333 -0.221003 0.745528 -0.432983 0.589256 -0.589256 
C 0.432983 -0.745528 0.221003 -0.833333 0 -0.833333 
C -0.221003 -0.833333 -0.432983 -0.745528 -0.589256 -0.589256 
C -0.745528 -0.432983 -0.833333 -0.221003 -0.833333 0 
C -0.833333 0.221003 -0.745528 0.432983 -0.589256 0.589256 
C -0.432983 0.745528 -0.221003 0.833333 0 0.833333 
z
" style="stroke: #ffffff; stroke-width: 0.8"/>
    </defs>
    <g clip-path="url(#pdb8b18816d)">
     <use xlink:href="#mc8c64d47c4" x="23.296175" y="65.794128" style="fill: #ffffff; stroke: #ffffff; stroke-width: 0.8"/>
    </g>
   </g>
   <g id="line2d_10">
    <path d="M 43.205232 66.60242 
L 43.205232 64.634071 
" clip-path="url(#pdb8b18816d)" style="fill: none; stroke: #8c8c8c; stroke-width: 0.75; stroke-linecap: round"/>
   </g>
   <g id="line2d_11">
    <path d="M 43.205232 66.325618 
L 43.205232 64.855908 
" clip-path="url(#pdb8b18816d)" style="fill: none; stroke: #8c8c8c; stroke-width: 4; stroke-linecap: round"/>
   </g>
   <g id="line2d_12">
    <path d="M 43.205232 65.920331 
" clip-path="url(#pdb8b18816d)" style="fill: none; stroke: #525252; stroke-width: 1.2; stroke-linecap: round"/>
    <g clip-path="url(#pdb8b18816d)">
     <use xlink:href="#mc8c64d47c4" x="43.205232" y="65.920331" style="fill: #ffffff; stroke: #ffffff; stroke-width: 0.8"/>
    </g>
   </g>
   <g id="patch_3">
    <path d="M 13.341646 74.419526 
L 13.341646 4.076256 
" style="fill: none; stroke: #777777; stroke-width: 0.5; stroke-linejoin: miter; stroke-linecap: square"/>
   </g>
   <g id="patch_4">
    <path d="M 13.341646 76.919526 
L 53.15976 76.919526 
" style="fill: none; stroke: #777777; stroke-width: 0.5; stroke-linejoin: miter; stroke-linecap: square"/>
   </g>
  </g>
 </g>
 <defs>
  <clipPath id="pdb8b18816d">
   <rect x="13.341646" y="4.076256" width="39.818114" height="70.34327"/>
  </clipPath>
 </defs>
</svg>
