<?xml version="1.0" encoding="utf-8" standalone="no"?>
<!DOCTYPE svg PUBLIC "-//W3C//DTD SVG 1.1//EN"
  "http://www.w3.org/Graphics/SVG/1.1/DTD/svg11.dtd">
<svg xmlns:xlink="http://www.w3.org/1999/xlink" width="56.16pt" height="84.96pt" viewBox="0 0 56.16 84.96" xmlns="http://www.w3.org/2000/svg" version="1.1">
 <metadata>
  <rdf:RDF xmlns:dc="http://purl.org/dc/elements/1.1/" xmlns:cc="http://creativecommons.org/ns#" xmlns:rdf="http://www.w3.org/1999/02/22-rdf-syntax-ns#">
   <cc:Work>
    <dc:type rdf:resource="http://purl.org/dc/dcmitype/StillImage"/>
    <dc:date>2024-05-27T15:36:59.139617</dc:date>
    <dc:format>image/svg+xml</dc:format>
    <dc:creator>
     <cc:Agent>
      <dc:title>Matplotlib v3.8.3, https://matplotlib.org/</dc:title>
     </cc:Agent>
    </dc:creator>
   </cc:Work>
  </rdf:RDF>
 </metadata>
 <defs>
  <style type="text/css">*{stroke-linejoin: round; stroke-linecap: butt}</style>
 </defs>
 <g id="figure_1">
  <g id="patch_1">
   <path d="M 0 84.96 
L 56.16 84.96 
L 56.16 0 
L 0 0 
z
" style="fill: #ffffff"/>
  </g>
  <g id="axes_1">
   <g id="patch_2">
    <path d="M 10.005084 74.419526 
L 53.15976 74.419526 
L 53.15976 4.076256 
L 10.005084 4.076256 
z
" style="fill: #ffffff"/>
   </g>
   <g id="matplotlib.axis_1">
    <g id="xtick_1">
     <g id="text_1">
      <!-- EOMES+ Cells -->
      <g style="fill: #333333" transform="translate(9.075042 81.230229) scale(0.035 -0.035)">
       <defs>
        <path id="Helvetica-45" d="M 547 4591 
L 3894 4591 
L 3894 4028 
L 1153 4028 
L 1153 2634 
L 3688 2634 
L 3688 2103 
L 1153 2103 
L 1153 547 
L 3941 547 
L 3941 0 
L 547 0 
L 547 4591 
z
M 2244 4591 
L 2244 4591 
z
" transform="scale(0.015625)"/>
        <path id="Helvetica-4f" d="M 2469 4716 
Q 3684 4716 4269 3934 
Q 4725 3325 4725 2375 
Q 4725 1347 4203 666 
Q 3591 -134 2456 -134 
Q 1397 -134 791 566 
Q 250 1241 250 2272 
Q 250 3203 713 3866 
Q 1306 4716 2469 4716 
z
M 2531 422 
Q 3353 422 3720 1011 
Q 4088 1600 4088 2366 
Q 4088 3175 3664 3669 
Q 3241 4163 2506 4163 
Q 1794 4163 1344 3673 
Q 894 3184 894 2231 
Q 894 1469 1280 945 
Q 1666 422 2531 422 
z
M 2488 4716 
L 2488 4716 
z
" transform="scale(0.015625)"/>
        <path id="Helvetica-4d" d="M 472 4591 
L 1363 4591 
L 2681 709 
L 3991 4591 
L 4872 4591 
L 4872 0 
L 4281 0 
L 4281 2709 
Q 4281 2850 4287 3175 
Q 4294 3500 4294 3872 
L 2984 0 
L 2369 0 
L 1050 3872 
L 1050 3731 
Q 1050 3563 1058 3217 
Q 1066 2872 1066 2709 
L 1066 0 
L 472 0 
L 472 4591 
z
" transform="scale(0.015625)"/>
        <path id="Helvetica-53" d="M 894 1481 
Q 916 1091 1078 847 
Q 1388 391 2169 391 
Q 2519 391 2806 491 
Q 3363 684 3363 1184 
Q 3363 1559 3128 1719 
Q 2891 1875 2384 1991 
L 1763 2131 
Q 1153 2269 900 2434 
Q 463 2722 463 3294 
Q 463 3913 891 4309 
Q 1319 4706 2103 4706 
Q 2825 4706 3329 4357 
Q 3834 4009 3834 3244 
L 3250 3244 
Q 3203 3613 3050 3809 
Q 2766 4169 2084 4169 
Q 1534 4169 1293 3937 
Q 1053 3706 1053 3400 
Q 1053 3063 1334 2906 
Q 1519 2806 2169 2656 
L 2813 2509 
Q 3278 2403 3531 2219 
Q 3969 1897 3969 1284 
Q 3969 522 3414 194 
Q 2859 -134 2125 -134 
Q 1269 -134 784 303 
Q 300 738 309 1481 
L 894 1481 
z
M 2150 4716 
L 2150 4716 
z
" transform="scale(0.015625)"/>
        <path id="Helvetica-2b" d="M 288 1369 
L 288 1894 
L 1650 1894 
L 1650 3266 
L 2184 3266 
L 2184 1894 
L 3547 1894 
L 3547 1369 
L 2184 1369 
L 2184 0 
L 1650 0 
L 1650 1369 
L 288 1369 
z
" transform="scale(0.015625)"/>
        <path id="Helvetica-20" transform="scale(0.015625)"/>
        <path id="Helvetica-43" d="M 2422 4716 
Q 3294 4716 3775 4256 
Q 4256 3797 4309 3213 
L 3703 3213 
Q 3600 3656 3292 3915 
Q 2984 4175 2428 4175 
Q 1750 4175 1333 3698 
Q 916 3222 916 2238 
Q 916 1431 1292 929 
Q 1669 428 2416 428 
Q 3103 428 3463 956 
Q 3653 1234 3747 1688 
L 4353 1688 
Q 4272 963 3816 472 
Q 3269 -119 2341 -119 
Q 1541 -119 997 366 
Q 281 1006 281 2344 
Q 281 3359 819 4009 
Q 1400 4716 2422 4716 
z
M 2297 4716 
L 2297 4716 
z
" transform="scale(0.015625)"/>
        <path id="Helvetica-65" d="M 1806 3422 
Q 2163 3422 2497 3255 
Q 2831 3088 3006 2822 
Q 3175 2569 3231 2231 
Q 3281 2000 3281 1494 
L 828 1494 
Q 844 984 1069 676 
Q 1294 369 1766 369 
Q 2206 369 2469 659 
Q 2619 828 2681 1050 
L 3234 1050 
Q 3213 866 3089 639 
Q 2966 413 2813 269 
Q 2556 19 2178 -69 
Q 1975 -119 1719 -119 
Q 1094 -119 659 336 
Q 225 791 225 1609 
Q 225 2416 662 2919 
Q 1100 3422 1806 3422 
z
M 2703 1941 
Q 2669 2306 2544 2525 
Q 2313 2931 1772 2931 
Q 1384 2931 1121 2651 
Q 859 2372 844 1941 
L 2703 1941 
z
M 1753 3428 
L 1753 3428 
z
" transform="scale(0.015625)"/>
        <path id="Helvetica-6c" d="M 428 4591 
L 991 4591 
L 991 0 
L 428 0 
L 428 4591 
z
" transform="scale(0.015625)"/>
        <path id="Helvetica-73" d="M 747 1050 
Q 772 769 888 619 
Q 1100 347 1625 347 
Q 1938 347 2175 483 
Q 2413 619 2413 903 
Q 2413 1119 2222 1231 
Q 2100 1300 1741 1391 
L 1294 1503 
Q 866 1609 663 1741 
Q 300 1969 300 2372 
Q 300 2847 642 3140 
Q 984 3434 1563 3434 
Q 2319 3434 2653 2991 
Q 2863 2709 2856 2384 
L 2325 2384 
Q 2309 2575 2191 2731 
Q 1997 2953 1519 2953 
Q 1200 2953 1036 2831 
Q 872 2709 872 2509 
Q 872 2291 1088 2159 
Q 1213 2081 1456 2022 
L 1828 1931 
Q 2434 1784 2641 1647 
Q 2969 1431 2969 969 
Q 2969 522 2630 197 
Q 2291 -128 1597 -128 
Q 850 -128 539 211 
Q 228 550 206 1050 
L 747 1050 
z
M 1578 3428 
L 1578 3428 
z
" transform="scale(0.015625)"/>
       </defs>
       <use xlink:href="#Helvetica-45"/>
       <use xlink:href="#Helvetica-4f" x="66.699219"/>
       <use xlink:href="#Helvetica-4d" x="144.482422"/>
       <use xlink:href="#Helvetica-45" x="227.783203"/>
       <use xlink:href="#Helvetica-53" x="294.482422"/>
       <use xlink:href="#Helvetica-2b" x="361.181641"/>
       <use xlink:href="#Helvetica-20" x="419.580078"/>
       <use xlink:href="#Helvetica-43" x="447.363281"/>
       <use xlink:href="#Helvetica-65" x="519.580078"/>
       <use xlink:href="#Helvetica-6c" x="575.195312"/>
       <use xlink:href="#Helvetica-6c" x="597.412109"/>
       <use xlink:href="#Helvetica-73" x="619.628906"/>
      </g>
     </g>
    </g>
    <g id="xtick_2">
     <g id="text_2">
      <!-- TBX+ Cells -->
      <g style="fill: #333333" transform="translate(33.569685 81.230229) scale(0.035 -0.035)">
       <defs>
        <path id="Helvetica-54" d="M 3828 4591 
L 3828 4044 
L 2281 4044 
L 2281 0 
L 1650 0 
L 1650 4044 
L 103 4044 
L 103 4591 
L 3828 4591 
z
" transform="scale(0.015625)"/>
        <path id="Helvetica-42" d="M 2213 2650 
Q 2606 2650 2825 2759 
Q 3169 2931 3169 3378 
Q 3169 3828 2803 3984 
Q 2597 4072 2191 4072 
L 1081 4072 
L 1081 2650 
L 2213 2650 
z
M 2422 531 
Q 2994 531 3238 863 
Q 3391 1072 3391 1369 
Q 3391 1869 2944 2050 
Q 2706 2147 2316 2147 
L 1081 2147 
L 1081 531 
L 2422 531 
z
M 472 4591 
L 2444 4591 
Q 3250 4591 3591 4109 
Q 3791 3825 3791 3453 
Q 3791 3019 3544 2741 
Q 3416 2594 3175 2472 
Q 3528 2338 3703 2169 
Q 4013 1869 4013 1341 
Q 4013 897 3734 538 
Q 3319 0 2413 0 
L 472 0 
L 472 4591 
z
" transform="scale(0.015625)"/>
        <path id="Helvetica-58" d="M 881 0 
L 131 0 
L 1775 2353 
L 234 4591 
L 1013 4591 
L 2184 2834 
L 3347 4591 
L 4088 4591 
L 2547 2353 
L 4163 0 
L 3391 0 
L 2153 1888 
L 881 0 
z
" transform="scale(0.015625)"/>
       </defs>
       <use xlink:href="#Helvetica-54"/>
       <use xlink:href="#Helvetica-42" x="61.083984"/>
       <use xlink:href="#Helvetica-58" x="127.783203"/>
       <use xlink:href="#Helvetica-2b" x="194.482422"/>
       <use xlink:href="#Helvetica-20" x="252.880859"/>
       <use xlink:href="#Helvetica-43" x="280.664062"/>
       <use xlink:href="#Helvetica-65" x="352.880859"/>
       <use xlink:href="#Helvetica-6c" x="408.496094"/>
       <use xlink:href="#Helvetica-6c" x="430.712891"/>
       <use xlink:href="#Helvetica-73" x="452.929688"/>
      </g>
     </g>
    </g>
   </g>
   <g id="matplotlib.axis_2">
    <g id="ytick_1">
     <g id="line2d_1">
      <defs>
       <path id="m5d8ee38471" d="M 0 0 
L -1 0 
" style="stroke: #777777; stroke-width: 0.5"/>
      </defs>
      <g>
       <use xlink:href="#m5d8ee38471" x="10.005084" y="66.189518" style="fill: #777777; stroke: #777777; stroke-width: 0.5"/>
      </g>
     </g>
     <g id="text_3">
      <!-- 0 -->
      <g style="fill: #333333" transform="translate(6.336802 67.265534) scale(0.03 -0.03)">
       <defs>
        <path id="Helvetica-30" d="M 1731 4475 
Q 2600 4475 2988 3759 
Q 3288 3206 3288 2244 
Q 3288 1331 3016 734 
Q 2622 -122 1728 -122 
Q 922 -122 528 578 
Q 200 1163 200 2147 
Q 200 2909 397 3456 
Q 766 4475 1731 4475 
z
M 1725 391 
Q 2163 391 2422 778 
Q 2681 1166 2681 2222 
Q 2681 2984 2493 3476 
Q 2306 3969 1766 3969 
Q 1269 3969 1039 3501 
Q 809 3034 809 2125 
Q 809 1441 956 1025 
Q 1181 391 1725 391 
z
" transform="scale(0.015625)"/>
       </defs>
       <use xlink:href="#Helvetica-30"/>
      </g>
     </g>
    </g>
    <g id="ytick_2">
     <g id="line2d_2">
      <g>
       <use xlink:href="#m5d8ee38471" x="10.005084" y="55.837308" style="fill: #777777; stroke: #777777; stroke-width: 0.5"/>
      </g>
     </g>
     <g id="text_4">
      <!-- 20 -->
      <g style="fill: #333333" transform="translate(4.668521 56.913323) scale(0.03 -0.03)">
       <defs>
        <path id="Helvetica-32" d="M 200 0 
Q 231 578 439 1006 
Q 647 1434 1250 1784 
L 1850 2131 
Q 2253 2366 2416 2531 
Q 2672 2791 2672 3125 
Q 2672 3516 2437 3745 
Q 2203 3975 1813 3975 
Q 1234 3975 1013 3538 
Q 894 3303 881 2888 
L 309 2888 
Q 319 3472 525 3841 
Q 891 4491 1816 4491 
Q 2584 4491 2939 4075 
Q 3294 3659 3294 3150 
Q 3294 2613 2916 2231 
Q 2697 2009 2131 1694 
L 1703 1456 
Q 1397 1288 1222 1134 
Q 909 863 828 531 
L 3272 531 
L 3272 0 
L 200 0 
z
" transform="scale(0.015625)"/>
       </defs>
       <use xlink:href="#Helvetica-32"/>
       <use xlink:href="#Helvetica-30" x="55.615234"/>
      </g>
     </g>
    </g>
    <g id="ytick_3">
     <g id="line2d_3">
      <g>
       <use xlink:href="#m5d8ee38471" x="10.005084" y="45.485097" style="fill: #777777; stroke: #777777; stroke-width: 0.5"/>
      </g>
     </g>
     <g id="text_5">
      <!-- 40 -->
      <g style="fill: #333333" transform="translate(4.668521 46.561113) scale(0.03 -0.03)">
       <defs>
        <path id="Helvetica-34" d="M 2116 1584 
L 2116 3613 
L 681 1584 
L 2116 1584 
z
M 2125 0 
L 2125 1094 
L 163 1094 
L 163 1644 
L 2213 4488 
L 2688 4488 
L 2688 1584 
L 3347 1584 
L 3347 1094 
L 2688 1094 
L 2688 0 
L 2125 0 
z
" transform="scale(0.015625)"/>
       </defs>
       <use xlink:href="#Helvetica-34"/>
       <use xlink:href="#Helvetica-30" x="55.615234"/>
      </g>
     </g>
    </g>
    <g id="ytick_4">
     <g id="line2d_4">
      <g>
       <use xlink:href="#m5d8ee38471" x="10.005084" y="35.132887" style="fill: #777777; stroke: #777777; stroke-width: 0.5"/>
      </g>
     </g>
     <g id="text_6">
      <!-- 60 -->
      <g style="fill: #333333" transform="translate(4.668521 36.208903) scale(0.03 -0.03)">
       <defs>
        <path id="Helvetica-36" d="M 1872 4494 
Q 2622 4494 2917 4105 
Q 3213 3716 3213 3303 
L 2656 3303 
Q 2606 3569 2497 3719 
Q 2294 4000 1881 4000 
Q 1409 4000 1131 3564 
Q 853 3128 822 2316 
Q 1016 2600 1309 2741 
Q 1578 2866 1909 2866 
Q 2472 2866 2890 2506 
Q 3309 2147 3309 1434 
Q 3309 825 2912 354 
Q 2516 -116 1781 -116 
Q 1153 -116 697 361 
Q 241 838 241 1966 
Q 241 2800 444 3381 
Q 834 4494 1872 4494 
z
M 1831 384 
Q 2275 384 2495 682 
Q 2716 981 2716 1388 
Q 2716 1731 2519 2042 
Q 2322 2353 1803 2353 
Q 1441 2353 1167 2112 
Q 894 1872 894 1388 
Q 894 963 1142 673 
Q 1391 384 1831 384 
z
" transform="scale(0.015625)"/>
       </defs>
       <use xlink:href="#Helvetica-36"/>
       <use xlink:href="#Helvetica-30" x="55.615234"/>
      </g>
     </g>
    </g>
    <g id="ytick_5">
     <g id="line2d_5">
      <g>
       <use xlink:href="#m5d8ee38471" x="10.005084" y="24.780677" style="fill: #777777; stroke: #777777; stroke-width: 0.5"/>
      </g>
     </g>
     <g id="text_7">
      <!-- 80 -->
      <g style="fill: #333333" transform="translate(4.668521 25.856692) scale(0.03 -0.03)">
       <defs>
        <path id="Helvetica-38" d="M 1741 2600 
Q 2113 2600 2322 2808 
Q 2531 3016 2531 3303 
Q 2531 3553 2331 3762 
Q 2131 3972 1722 3972 
Q 1316 3972 1134 3762 
Q 953 3553 953 3272 
Q 953 2956 1187 2778 
Q 1422 2600 1741 2600 
z
M 1775 384 
Q 2166 384 2423 595 
Q 2681 806 2681 1225 
Q 2681 1659 2415 1884 
Q 2150 2109 1734 2109 
Q 1331 2109 1076 1879 
Q 822 1650 822 1244 
Q 822 894 1055 639 
Q 1288 384 1775 384 
z
M 975 2384 
Q 741 2484 609 2619 
Q 363 2869 363 3269 
Q 363 3769 725 4128 
Q 1088 4488 1753 4488 
Q 2397 4488 2762 4148 
Q 3128 3809 3128 3356 
Q 3128 2938 2916 2678 
Q 2797 2531 2547 2391 
Q 2825 2263 2984 2097 
Q 3281 1784 3281 1284 
Q 3281 694 2884 283 
Q 2488 -128 1763 -128 
Q 1109 -128 657 226 
Q 206 581 206 1256 
Q 206 1653 400 1942 
Q 594 2231 975 2384 
z
" transform="scale(0.015625)"/>
       </defs>
       <use xlink:href="#Helvetica-38"/>
       <use xlink:href="#Helvetica-30" x="55.615234"/>
      </g>
     </g>
    </g>
    <g id="ytick_6">
     <g id="line2d_6">
      <g>
       <use xlink:href="#m5d8ee38471" x="10.005084" y="14.428466" style="fill: #777777; stroke: #777777; stroke-width: 0.5"/>
      </g>
     </g>
     <g id="text_8">
      <!-- 100 -->
      <g style="fill: #333333" transform="translate(3.00024 15.504482) scale(0.03 -0.03)">
       <defs>
        <path id="Helvetica-31" d="M 613 3169 
L 613 3600 
Q 1222 3659 1462 3798 
Q 1703 3938 1822 4456 
L 2266 4456 
L 2266 0 
L 1666 0 
L 1666 3169 
L 613 3169 
z
" transform="scale(0.015625)"/>
       </defs>
       <use xlink:href="#Helvetica-31"/>
       <use xlink:href="#Helvetica-30" x="55.615234"/>
       <use xlink:href="#Helvetica-30" x="111.230469"/>
      </g>
     </g>
    </g>
    <g id="ytick_7">
     <g id="line2d_7">
      <g>
       <use xlink:href="#m5d8ee38471" x="10.005084" y="4.076256" style="fill: #777777; stroke: #777777; stroke-width: 0.5"/>
      </g>
     </g>
     <g id="text_9">
      <!-- 120 -->
      <g style="fill: #333333" transform="translate(3.00024 5.152271) scale(0.03 -0.03)">
       <use xlink:href="#Helvetica-31"/>
       <use xlink:href="#Helvetica-32" x="55.615234"/>
       <use xlink:href="#Helvetica-30" x="111.230469"/>
      </g>
     </g>
    </g>
   </g>
   <g id="PolyCollection_1">
    <defs>
     <path id="m3a5381dddd" d="M 22.099334 -18.408032 
L 19.488171 -18.408032 
L 19.223636 -18.446305 
L 18.924622 -18.484578 
L 18.591 -18.522851 
L 18.223646 -18.561124 
L 17.824556 -18.599397 
L 17.396911 -18.63767 
L 16.945102 -18.675943 
L 16.474687 -18.714216 
L 15.992301 -18.752489 
L 15.50549 -18.790762 
L 15.022508 -18.829034 
L 14.552055 -18.867307 
L 14.102994 -18.90558 
L 13.684038 -18.943853 
L 13.303445 -18.982126 
L 12.968719 -19.020399 
L 12.686343 -19.058672 
L 12.461547 -19.096945 
L 12.298132 -19.135218 
L 12.198346 -19.173491 
L 12.162818 -19.211764 
L 12.190557 -19.250036 
L 12.279011 -19.288309 
L 12.424172 -19.326582 
L 12.620739 -19.364855 
L 12.862329 -19.403128 
L 13.141711 -19.441401 
L 13.451083 -19.479674 
L 13.782355 -19.517947 
L 14.127447 -19.55622 
L 14.478572 -19.594493 
L 14.828508 -19.632766 
L 15.170827 -19.671038 
L 15.500085 -19.709311 
L 15.811945 -19.747584 
L 16.103245 -19.785857 
L 16.371986 -19.82413 
L 16.617259 -19.862403 
L 16.839112 -19.900676 
L 17.038369 -19.938949 
L 17.216417 -19.977222 
L 17.374985 -20.015495 
L 17.515931 -20.053768 
L 17.641055 -20.092041 
L 17.751962 -20.130313 
L 17.849977 -20.168586 
L 17.936115 -20.206859 
L 18.011114 -20.245132 
L 18.075515 -20.283405 
L 18.129772 -20.321678 
L 18.174385 -20.359951 
L 18.210021 -20.398224 
L 18.237624 -20.436497 
L 18.258481 -20.47477 
L 18.274238 -20.513043 
L 18.286869 -20.551315 
L 18.298585 -20.589588 
L 18.311705 -20.627861 
L 18.328485 -20.666134 
L 18.350941 -20.704407 
L 18.380667 -20.74268 
L 18.418679 -20.780953 
L 18.465299 -20.819226 
L 18.520083 -20.857499 
L 18.581818 -20.895772 
L 18.648578 -20.934045 
L 18.717842 -20.972317 
L 18.786663 -21.01059 
L 18.851878 -21.048863 
L 18.910338 -21.087136 
L 18.959151 -21.125409 
L 18.995901 -21.163682 
L 19.018851 -21.201955 
L 19.027086 -21.240228 
L 19.020615 -21.278501 
L 19.000399 -21.316774 
L 18.968317 -21.355047 
L 18.927072 -21.39332 
L 18.880038 -21.431592 
L 18.831061 -21.469865 
L 18.784229 -21.508138 
L 18.743632 -21.546411 
L 18.713115 -21.584684 
L 18.696059 -21.622957 
L 18.695189 -21.66123 
L 18.712431 -21.699503 
L 18.748826 -21.737776 
L 18.804494 -21.776049 
L 18.87867 -21.814322 
L 18.969777 -21.852594 
L 19.07556 -21.890867 
L 19.193239 -21.92914 
L 19.319692 -21.967413 
L 19.451639 -22.005686 
L 19.585818 -22.043959 
L 19.719149 -22.082232 
L 19.84886 -22.120505 
L 19.972591 -22.158778 
L 20.088451 -22.197051 
L 21.499054 -22.197051 
L 21.499054 -22.197051 
L 21.614915 -22.158778 
L 21.738646 -22.120505 
L 21.868357 -22.082232 
L 22.001688 -22.043959 
L 22.135867 -22.005686 
L 22.267813 -21.967413 
L 22.394266 -21.92914 
L 22.511945 -21.890867 
L 22.617728 -21.852594 
L 22.708836 -21.814322 
L 22.783011 -21.776049 
L 22.83868 -21.737776 
L 22.875074 -21.699503 
L 22.892317 -21.66123 
L 22.891446 -21.622957 
L 22.87439 -21.584684 
L 22.843874 -21.546411 
L 22.803277 -21.508138 
L 22.756445 -21.469865 
L 22.707468 -21.431592 
L 22.660434 -21.39332 
L 22.619189 -21.355047 
L 22.587107 -21.316774 
L 22.56689 -21.278501 
L 22.560419 -21.240228 
L 22.568655 -21.201955 
L 22.591604 -21.163682 
L 22.628355 -21.125409 
L 22.677167 -21.087136 
L 22.735628 -21.048863 
L 22.800842 -21.01059 
L 22.869663 -20.972317 
L 22.938927 -20.934045 
L 23.005687 -20.895772 
L 23.067422 -20.857499 
L 23.122206 -20.819226 
L 23.168826 -20.780953 
L 23.206839 -20.74268 
L 23.236565 -20.704407 
L 23.259021 -20.666134 
L 23.275801 -20.627861 
L 23.28892 -20.589588 
L 23.300637 -20.551315 
L 23.313268 -20.513043 
L 23.329025 -20.47477 
L 23.349882 -20.436497 
L 23.377485 -20.398224 
L 23.413121 -20.359951 
L 23.457733 -20.321678 
L 23.511991 -20.283405 
L 23.576392 -20.245132 
L 23.651391 -20.206859 
L 23.737528 -20.168586 
L 23.835543 -20.130313 
L 23.946451 -20.092041 
L 24.071575 -20.053768 
L 24.21252 -20.015495 
L 24.371089 -19.977222 
L 24.549137 -19.938949 
L 24.748394 -19.900676 
L 24.970247 -19.862403 
L 25.21552 -19.82413 
L 25.48426 -19.785857 
L 25.77556 -19.747584 
L 26.087421 -19.709311 
L 26.416679 -19.671038 
L 26.758998 -19.632766 
L 27.108934 -19.594493 
L 27.460059 -19.55622 
L 27.80515 -19.517947 
L 28.136423 -19.479674 
L 28.445795 -19.441401 
L 28.725177 -19.403128 
L 28.966767 -19.364855 
L 29.163334 -19.326582 
L 29.308494 -19.288309 
L 29.396948 -19.250036 
L 29.424688 -19.211764 
L 29.38916 -19.173491 
L 29.289373 -19.135218 
L 29.125958 -19.096945 
L 28.901163 -19.058672 
L 28.618786 -19.020399 
L 28.284061 -18.982126 
L 27.903468 -18.943853 
L 27.484512 -18.90558 
L 27.035451 -18.867307 
L 26.564998 -18.829034 
L 26.082016 -18.790762 
L 25.595205 -18.752489 
L 25.112818 -18.714216 
L 24.642404 -18.675943 
L 24.190595 -18.63767 
L 23.76295 -18.599397 
L 23.363859 -18.561124 
L 22.996506 -18.522851 
L 22.662884 -18.484578 
L 22.363869 -18.446305 
L 22.099334 -18.408032 
z
" style="stroke: #6f6f6f; stroke-width: 0.15"/>
    </defs>
    <g clip-path="url(#p8f567e9087)">
     <use xlink:href="#m3a5381dddd" x="0" y="84.96" style="fill: #f2aba8; stroke: #6f6f6f; stroke-width: 0.15"/>
    </g>
   </g>
   <g id="PolyCollection_2">
    <defs>
     <path id="mbd447ee4aa" d="M 42.991325 -18.301992 
L 41.750857 -18.301992 
L 41.624935 -18.355052 
L 41.484584 -18.408112 
L 41.330396 -18.461172 
L 41.163282 -18.514232 
L 40.984363 -18.567292 
L 40.794829 -18.620352 
L 40.595769 -18.673412 
L 40.387985 -18.726472 
L 40.17182 -18.779532 
L 39.947025 -18.832592 
L 39.712681 -18.885652 
L 39.467201 -18.938712 
L 39.208434 -18.991772 
L 38.933856 -19.044832 
L 38.640868 -19.097892 
L 38.327159 -19.150952 
L 37.991125 -19.204012 
L 37.6323 -19.257071 
L 37.251748 -19.310131 
L 36.852394 -19.363191 
L 36.439231 -19.416251 
L 36.019379 -19.469311 
L 35.601982 -19.522371 
L 35.197912 -19.575431 
L 34.81932 -19.628491 
L 34.479025 -19.681551 
L 34.189812 -19.734611 
L 33.96367 -19.787671 
L 33.811045 -19.840731 
L 33.740156 -19.893791 
L 33.756439 -19.946851 
L 33.862169 -19.999911 
L 34.05628 -20.052971 
L 34.334407 -20.106031 
L 34.689136 -20.159091 
L 35.110437 -20.21215 
L 35.586255 -20.26521 
L 36.103182 -20.31827 
L 36.647179 -20.37133 
L 37.20428 -20.42439 
L 37.761234 -20.47745 
L 38.306045 -20.53051 
L 38.828385 -20.58357 
L 39.319864 -20.63663 
L 39.774158 -20.68969 
L 40.187011 -20.74275 
L 40.556114 -20.79581 
L 40.880911 -20.84887 
L 41.162332 -20.90193 
L 41.402498 -20.95499 
L 41.604414 -21.00805 
L 41.771675 -21.06111 
L 41.9082 -21.11417 
L 42.017991 -21.167229 
L 42.104956 -21.220289 
L 42.172754 -21.273349 
L 42.224699 -21.326409 
L 42.26369 -21.379469 
L 42.292179 -21.432529 
L 42.312161 -21.485589 
L 42.325177 -21.538649 
L 42.332342 -21.591709 
L 42.334362 -21.644769 
L 42.331569 -21.697829 
L 42.323957 -21.750889 
L 42.311215 -21.803949 
L 42.292775 -21.857009 
L 42.267857 -21.910069 
L 42.23554 -21.963129 
L 42.194827 -22.016189 
L 42.144748 -22.069249 
L 42.084453 -22.122308 
L 42.013337 -22.175368 
L 41.931154 -22.228428 
L 41.838138 -22.281488 
L 41.735098 -22.334548 
L 41.623495 -22.387608 
L 41.505474 -22.440668 
L 41.383844 -22.493728 
L 41.262002 -22.546788 
L 41.143805 -22.599848 
L 41.033372 -22.652908 
L 40.934866 -22.705968 
L 40.852226 -22.759028 
L 40.788916 -22.812088 
L 40.747679 -22.865148 
L 40.730343 -22.918208 
L 40.737686 -22.971268 
L 40.769379 -23.024328 
L 40.824007 -23.077388 
L 40.899178 -23.130447 
L 40.991694 -23.183507 
L 41.097778 -23.236567 
L 41.213328 -23.289627 
L 41.334176 -23.342687 
L 41.456334 -23.395747 
L 41.576202 -23.448807 
L 41.690719 -23.501867 
L 41.79747 -23.554927 
L 42.944712 -23.554927 
L 42.944712 -23.554927 
L 43.051463 -23.501867 
L 43.16598 -23.448807 
L 43.285847 -23.395747 
L 43.408006 -23.342687 
L 43.528854 -23.289627 
L 43.644404 -23.236567 
L 43.750488 -23.183507 
L 43.843004 -23.130447 
L 43.918175 -23.077388 
L 43.972803 -23.024328 
L 44.004495 -22.971268 
L 44.011839 -22.918208 
L 43.994503 -22.865148 
L 43.953266 -22.812088 
L 43.889956 -22.759028 
L 43.807316 -22.705968 
L 43.708809 -22.652908 
L 43.598377 -22.599848 
L 43.480179 -22.546788 
L 43.358338 -22.493728 
L 43.236708 -22.440668 
L 43.118687 -22.387608 
L 43.007084 -22.334548 
L 42.904044 -22.281488 
L 42.811028 -22.228428 
L 42.728845 -22.175368 
L 42.657729 -22.122308 
L 42.597434 -22.069249 
L 42.547354 -22.016189 
L 42.506642 -21.963129 
L 42.474325 -21.910069 
L 42.449407 -21.857009 
L 42.430967 -21.803949 
L 42.418225 -21.750889 
L 42.410613 -21.697829 
L 42.40782 -21.644769 
L 42.40984 -21.591709 
L 42.417004 -21.538649 
L 42.430021 -21.485589 
L 42.450003 -21.432529 
L 42.478492 -21.379469 
L 42.517483 -21.326409 
L 42.569428 -21.273349 
L 42.637226 -21.220289 
L 42.724191 -21.167229 
L 42.833982 -21.11417 
L 42.970506 -21.06111 
L 43.137768 -21.00805 
L 43.339684 -20.95499 
L 43.57985 -20.90193 
L 43.861271 -20.84887 
L 44.186068 -20.79581 
L 44.555171 -20.74275 
L 44.968024 -20.68969 
L 45.422318 -20.63663 
L 45.913797 -20.58357 
L 46.436137 -20.53051 
L 46.980948 -20.47745 
L 47.537902 -20.42439 
L 48.095003 -20.37133 
L 48.638999 -20.31827 
L 49.155926 -20.26521 
L 49.631745 -20.21215 
L 50.053046 -20.159091 
L 50.407774 -20.106031 
L 50.685902 -20.052971 
L 50.880013 -19.999911 
L 50.985743 -19.946851 
L 51.002026 -19.893791 
L 50.931136 -19.840731 
L 50.778512 -19.787671 
L 50.55237 -19.734611 
L 50.263157 -19.681551 
L 49.922862 -19.628491 
L 49.544269 -19.575431 
L 49.1402 -19.522371 
L 48.722803 -19.469311 
L 48.302951 -19.416251 
L 47.889787 -19.363191 
L 47.490434 -19.310131 
L 47.109882 -19.257071 
L 46.751056 -19.204012 
L 46.415023 -19.150952 
L 46.101314 -19.097892 
L 45.808326 -19.044832 
L 45.533748 -18.991772 
L 45.274981 -18.938712 
L 45.029501 -18.885652 
L 44.795157 -18.832592 
L 44.570362 -18.779532 
L 44.354197 -18.726472 
L 44.146412 -18.673412 
L 43.947352 -18.620352 
L 43.757819 -18.567292 
L 43.5789 -18.514232 
L 43.411786 -18.461172 
L 43.257598 -18.408112 
L 43.117247 -18.355052 
L 42.991325 -18.301992 
z
" style="stroke: #6f6f6f; stroke-width: 0.15"/>
    </defs>
    <g clip-path="url(#p8f567e9087)">
     <use xlink:href="#mbd447ee4aa" x="0" y="84.96" style="fill: #d3c4f6; stroke: #6f6f6f; stroke-width: 0.15"/>
    </g>
   </g>
   <g id="line2d_8">
    <path d="M 20.793753 66.041812 
L 20.793753 63.273105 
" clip-path="url(#p8f567e9087)" style="fill: none; stroke: #8c8c8c; stroke-width: 0.75; stroke-linecap: round"/>
   </g>
   <g id="line2d_9">
    <path d="M 20.793753 65.846481 
L 20.793753 64.702568 
" clip-path="url(#p8f567e9087)" style="fill: none; stroke: #8c8c8c; stroke-width: 4; stroke-linecap: round"/>
   </g>
   <g id="line2d_10">
    <path d="M 20.793753 65.517958 
" clip-path="url(#p8f567e9087)" style="fill: none; stroke: #6f6f6f; stroke-width: 1.2; stroke-linecap: round"/>
    <defs>
     <path id="m61ef2b0aa3" d="M 0 0.833333 
C 0.221003 0.833333 0.432983 0.745528 0.589256 0.589256 
C 0.745528 0.432983 0.833333 0.221003 0.833333 0 
C 0.833333 -0.221003 0.745528 -0.432983 0.589256 -0.589256 
C 0.432983 -0.745528 0.221003 -0.833333 0 -0.833333 
C -0.221003 -0.833333 -0.432983 -0.745528 -0.589256 -0.589256 
C -0.745528 -0.432983 -0.833333 -0.221003 -0.833333 0 
C -0.833333 0.221003 -0.745528 0.432983 -0.589256 0.589256 
C -0.432983 0.745528 -0.221003 0.833333 0 0.833333 
z
" style="stroke: #ffffff; stroke-width: 0.8"/>
    </defs>
    <g clip-path="url(#p8f567e9087)">
     <use xlink:href="#m61ef2b0aa3" x="20.793753" y="65.517958" style="fill: #ffffff; stroke: #ffffff; stroke-width: 0.8"/>
    </g>
   </g>
   <g id="line2d_11">
    <path d="M 42.371091 65.481827 
L 42.371091 64.648013 
" clip-path="url(#p8f567e9087)" style="fill: none; stroke: #8c8c8c; stroke-width: 0.75; stroke-linecap: round"/>
   </g>
   <g id="line2d_12">
    <path d="M 42.371091 65.20126 
L 42.371091 64.860394 
" clip-path="url(#p8f567e9087)" style="fill: none; stroke: #8c8c8c; stroke-width: 4; stroke-linecap: round"/>
   </g>
   <g id="line2d_13">
    <path d="M 42.371091 65.039539 
" clip-path="url(#p8f567e9087)" style="fill: none; stroke: #6f6f6f; stroke-width: 1.2; stroke-linecap: round"/>
    <g clip-path="url(#p8f567e9087)">
     <use xlink:href="#m61ef2b0aa3" x="42.371091" y="65.039539" style="fill: #ffffff; stroke: #ffffff; stroke-width: 0.8"/>
    </g>
   </g>
   <g id="patch_3">
    <path d="M 10.005084 74.419526 
L 10.005084 4.076256 
" style="fill: none; stroke: #777777; stroke-width: 0.5; stroke-linejoin: miter; stroke-linecap: square"/>
   </g>
   <g id="patch_4">
    <path d="M 10.005084 76.919526 
L 53.15976 76.919526 
" style="fill: none; stroke: #777777; stroke-width: 0.5; stroke-linejoin: miter; stroke-linecap: square"/>
   </g>
  </g>
 </g>
 <defs>
  <clipPath id="p8f567e9087">
   <rect x="10.005084" y="4.076256" width="43.154676" height="70.34327"/>
  </clipPath>
 </defs>
</svg>
