<?xml version="1.0" encoding="utf-8" standalone="no"?>
<!DOCTYPE svg PUBLIC "-//W3C//DTD SVG 1.1//EN"
  "http://www.w3.org/Graphics/SVG/1.1/DTD/svg11.dtd">
<svg xmlns:xlink="http://www.w3.org/1999/xlink" width="56.16pt" height="84.96pt" viewBox="0 0 56.16 84.96" xmlns="http://www.w3.org/2000/svg" version="1.1">
 <metadata>
  <rdf:RDF xmlns:dc="http://purl.org/dc/elements/1.1/" xmlns:cc="http://creativecommons.org/ns#" xmlns:rdf="http://www.w3.org/1999/02/22-rdf-syntax-ns#">
   <cc:Work>
    <dc:type rdf:resource="http://purl.org/dc/dcmitype/StillImage"/>
    <dc:date>2024-05-27T15:37:15.678698</dc:date>
    <dc:format>image/svg+xml</dc:format>
    <dc:creator>
     <cc:Agent>
      <dc:title>Matplotlib v3.8.3, https://matplotlib.org/</dc:title>
     </cc:Agent>
    </dc:creator>
   </cc:Work>
  </rdf:RDF>
 </metadata>
 <defs>
  <style type="text/css">*{stroke-linejoin: round; stroke-linecap: butt}</style>
 </defs>
 <g id="figure_1">
  <g id="patch_1">
   <path d="M 0 84.96 
L 56.16 84.96 
L 56.16 0 
L 0 0 
z
" style="fill: #ffffff"/>
  </g>
  <g id="axes_1">
   <g id="patch_2">
    <path d="M 13.341646 74.419526 
L 53.15976 74.419526 
L 53.15976 4.076256 
L 13.341646 4.076256 
z
" style="fill: #ffffff"/>
   </g>
   <g id="matplotlib.axis_1">
    <g id="xtick_1">
     <g id="text_1">
      <!-- T -->
      <g style="fill: #333333" transform="translate(22.227307 81.230229) scale(0.035 -0.035)">
       <defs>
        <path id="Helvetica-54" d="M 3828 4591 
L 3828 4044 
L 2281 4044 
L 2281 0 
L 1650 0 
L 1650 4044 
L 103 4044 
L 103 4591 
L 3828 4591 
z
" transform="scale(0.015625)"/>
       </defs>
       <use xlink:href="#Helvetica-54"/>
      </g>
     </g>
    </g>
    <g id="xtick_2">
     <g id="text_2">
      <!-- IL7R Non T -->
      <g style="fill: #333333" transform="translate(34.257536 81.230229) scale(0.035 -0.035)">
       <defs>
        <path id="Helvetica-49" d="M 628 4591 
L 1256 4591 
L 1256 0 
L 628 0 
L 628 4591 
z
" transform="scale(0.015625)"/>
        <path id="Helvetica-4c" d="M 488 4591 
L 1109 4591 
L 1109 547 
L 3434 547 
L 3434 0 
L 488 0 
L 488 4591 
z
" transform="scale(0.015625)"/>
        <path id="Helvetica-37" d="M 3347 4400 
L 3347 3909 
Q 3131 3700 2773 3181 
Q 2416 2663 2141 2063 
Q 1869 1478 1728 997 
Q 1638 688 1494 0 
L 872 0 
Q 1084 1281 1809 2550 
Q 2238 3294 2709 3834 
L 234 3834 
L 234 4400 
L 3347 4400 
z
" transform="scale(0.015625)"/>
        <path id="Helvetica-52" d="M 2622 2488 
Q 3059 2488 3314 2663 
Q 3569 2838 3569 3294 
Q 3569 3784 3213 3963 
Q 3022 4056 2703 4056 
L 1184 4056 
L 1184 2488 
L 2622 2488 
z
M 563 4591 
L 2688 4591 
Q 3213 4591 3553 4438 
Q 4200 4144 4200 3353 
Q 4200 2941 4029 2678 
Q 3859 2416 3553 2256 
Q 3822 2147 3958 1969 
Q 4094 1791 4109 1391 
L 4131 775 
Q 4141 513 4175 384 
Q 4231 166 4375 103 
L 4375 0 
L 3613 0 
Q 3581 59 3562 153 
Q 3544 247 3531 516 
L 3494 1281 
Q 3472 1731 3159 1884 
Q 2981 1969 2600 1969 
L 1184 1969 
L 1184 0 
L 563 0 
L 563 4591 
z
" transform="scale(0.015625)"/>
        <path id="Helvetica-20" transform="scale(0.015625)"/>
        <path id="Helvetica-4e" d="M 488 4591 
L 1222 4591 
L 3541 872 
L 3541 4591 
L 4131 4591 
L 4131 0 
L 3434 0 
L 1081 3716 
L 1081 0 
L 488 0 
L 488 4591 
z
M 2269 4591 
L 2269 4591 
z
" transform="scale(0.015625)"/>
        <path id="Helvetica-6f" d="M 1741 363 
Q 2300 363 2508 786 
Q 2716 1209 2716 1728 
Q 2716 2197 2566 2491 
Q 2328 2953 1747 2953 
Q 1231 2953 997 2559 
Q 763 2166 763 1609 
Q 763 1075 997 719 
Q 1231 363 1741 363 
z
M 1763 3444 
Q 2409 3444 2856 3012 
Q 3303 2581 3303 1744 
Q 3303 934 2909 406 
Q 2516 -122 1688 -122 
Q 997 -122 590 345 
Q 184 813 184 1600 
Q 184 2444 612 2944 
Q 1041 3444 1763 3444 
z
M 1744 3428 
L 1744 3428 
z
" transform="scale(0.015625)"/>
        <path id="Helvetica-6e" d="M 413 3347 
L 947 3347 
L 947 2872 
Q 1184 3166 1450 3294 
Q 1716 3422 2041 3422 
Q 2753 3422 3003 2925 
Q 3141 2653 3141 2147 
L 3141 0 
L 2569 0 
L 2569 2109 
Q 2569 2416 2478 2603 
Q 2328 2916 1934 2916 
Q 1734 2916 1606 2875 
Q 1375 2806 1200 2600 
Q 1059 2434 1017 2257 
Q 975 2081 975 1753 
L 975 0 
L 413 0 
L 413 3347 
z
M 1734 3428 
L 1734 3428 
z
" transform="scale(0.015625)"/>
       </defs>
       <use xlink:href="#Helvetica-49"/>
       <use xlink:href="#Helvetica-4c" x="27.783203"/>
       <use xlink:href="#Helvetica-37" x="83.398438"/>
       <use xlink:href="#Helvetica-52" x="139.013672"/>
       <use xlink:href="#Helvetica-20" x="211.230469"/>
       <use xlink:href="#Helvetica-4e" x="239.013672"/>
       <use xlink:href="#Helvetica-6f" x="311.230469"/>
       <use xlink:href="#Helvetica-6e" x="366.845703"/>
       <use xlink:href="#Helvetica-20" x="422.460938"/>
       <use xlink:href="#Helvetica-54" x="450.244141"/>
      </g>
     </g>
    </g>
   </g>
   <g id="matplotlib.axis_2">
    <g id="ytick_1">
     <g id="line2d_1">
      <defs>
       <path id="mc36acc943b" d="M 0 0 
L -1 0 
" style="stroke: #777777; stroke-width: 0.5"/>
      </defs>
      <g>
       <use xlink:href="#mc36acc943b" x="13.341646" y="68.030497" style="fill: #777777; stroke: #777777; stroke-width: 0.5"/>
      </g>
     </g>
     <g id="text_3">
      <!-- 0 -->
      <g style="fill: #333333" transform="translate(9.673365 69.106513) scale(0.03 -0.03)">
       <defs>
        <path id="Helvetica-30" d="M 1731 4475 
Q 2600 4475 2988 3759 
Q 3288 3206 3288 2244 
Q 3288 1331 3016 734 
Q 2622 -122 1728 -122 
Q 922 -122 528 578 
Q 200 1163 200 2147 
Q 200 2909 397 3456 
Q 766 4475 1731 4475 
z
M 1725 391 
Q 2163 391 2422 778 
Q 2681 1166 2681 2222 
Q 2681 2984 2493 3476 
Q 2306 3969 1766 3969 
Q 1269 3969 1039 3501 
Q 809 3034 809 2125 
Q 809 1441 956 1025 
Q 1181 391 1725 391 
z
" transform="scale(0.015625)"/>
       </defs>
       <use xlink:href="#Helvetica-30"/>
      </g>
     </g>
    </g>
    <g id="ytick_2">
     <g id="line2d_2">
      <g>
       <use xlink:href="#mc36acc943b" x="13.341646" y="55.239649" style="fill: #777777; stroke: #777777; stroke-width: 0.5"/>
      </g>
     </g>
     <g id="text_4">
      <!-- 2000 -->
      <g style="fill: #333333" transform="translate(4.668521 56.315664) scale(0.03 -0.03)">
       <defs>
        <path id="Helvetica-32" d="M 200 0 
Q 231 578 439 1006 
Q 647 1434 1250 1784 
L 1850 2131 
Q 2253 2366 2416 2531 
Q 2672 2791 2672 3125 
Q 2672 3516 2437 3745 
Q 2203 3975 1813 3975 
Q 1234 3975 1013 3538 
Q 894 3303 881 2888 
L 309 2888 
Q 319 3472 525 3841 
Q 891 4491 1816 4491 
Q 2584 4491 2939 4075 
Q 3294 3659 3294 3150 
Q 3294 2613 2916 2231 
Q 2697 2009 2131 1694 
L 1703 1456 
Q 1397 1288 1222 1134 
Q 909 863 828 531 
L 3272 531 
L 3272 0 
L 200 0 
z
" transform="scale(0.015625)"/>
       </defs>
       <use xlink:href="#Helvetica-32"/>
       <use xlink:href="#Helvetica-30" x="55.615234"/>
       <use xlink:href="#Helvetica-30" x="111.230469"/>
       <use xlink:href="#Helvetica-30" x="166.845703"/>
      </g>
     </g>
    </g>
    <g id="ytick_3">
     <g id="line2d_3">
      <g>
       <use xlink:href="#mc36acc943b" x="13.341646" y="42.4488" style="fill: #777777; stroke: #777777; stroke-width: 0.5"/>
      </g>
     </g>
     <g id="text_5">
      <!-- 4000 -->
      <g style="fill: #333333" transform="translate(4.668521 43.524816) scale(0.03 -0.03)">
       <defs>
        <path id="Helvetica-34" d="M 2116 1584 
L 2116 3613 
L 681 1584 
L 2116 1584 
z
M 2125 0 
L 2125 1094 
L 163 1094 
L 163 1644 
L 2213 4488 
L 2688 4488 
L 2688 1584 
L 3347 1584 
L 3347 1094 
L 2688 1094 
L 2688 0 
L 2125 0 
z
" transform="scale(0.015625)"/>
       </defs>
       <use xlink:href="#Helvetica-34"/>
       <use xlink:href="#Helvetica-30" x="55.615234"/>
       <use xlink:href="#Helvetica-30" x="111.230469"/>
       <use xlink:href="#Helvetica-30" x="166.845703"/>
      </g>
     </g>
    </g>
    <g id="ytick_4">
     <g id="line2d_4">
      <g>
       <use xlink:href="#mc36acc943b" x="13.341646" y="29.657952" style="fill: #777777; stroke: #777777; stroke-width: 0.5"/>
      </g>
     </g>
     <g id="text_6">
      <!-- 6000 -->
      <g style="fill: #333333" transform="translate(4.668521 30.733968) scale(0.03 -0.03)">
       <defs>
        <path id="Helvetica-36" d="M 1872 4494 
Q 2622 4494 2917 4105 
Q 3213 3716 3213 3303 
L 2656 3303 
Q 2606 3569 2497 3719 
Q 2294 4000 1881 4000 
Q 1409 4000 1131 3564 
Q 853 3128 822 2316 
Q 1016 2600 1309 2741 
Q 1578 2866 1909 2866 
Q 2472 2866 2890 2506 
Q 3309 2147 3309 1434 
Q 3309 825 2912 354 
Q 2516 -116 1781 -116 
Q 1153 -116 697 361 
Q 241 838 241 1966 
Q 241 2800 444 3381 
Q 834 4494 1872 4494 
z
M 1831 384 
Q 2275 384 2495 682 
Q 2716 981 2716 1388 
Q 2716 1731 2519 2042 
Q 2322 2353 1803 2353 
Q 1441 2353 1167 2112 
Q 894 1872 894 1388 
Q 894 963 1142 673 
Q 1391 384 1831 384 
z
" transform="scale(0.015625)"/>
       </defs>
       <use xlink:href="#Helvetica-36"/>
       <use xlink:href="#Helvetica-30" x="55.615234"/>
       <use xlink:href="#Helvetica-30" x="111.230469"/>
       <use xlink:href="#Helvetica-30" x="166.845703"/>
      </g>
     </g>
    </g>
    <g id="ytick_5">
     <g id="line2d_5">
      <g>
       <use xlink:href="#mc36acc943b" x="13.341646" y="16.867104" style="fill: #777777; stroke: #777777; stroke-width: 0.5"/>
      </g>
     </g>
     <g id="text_7">
      <!-- 8000 -->
      <g style="fill: #333333" transform="translate(4.668521 17.94312) scale(0.03 -0.03)">
       <defs>
        <path id="Helvetica-38" d="M 1741 2600 
Q 2113 2600 2322 2808 
Q 2531 3016 2531 3303 
Q 2531 3553 2331 3762 
Q 2131 3972 1722 3972 
Q 1316 3972 1134 3762 
Q 953 3553 953 3272 
Q 953 2956 1187 2778 
Q 1422 2600 1741 2600 
z
M 1775 384 
Q 2166 384 2423 595 
Q 2681 806 2681 1225 
Q 2681 1659 2415 1884 
Q 2150 2109 1734 2109 
Q 1331 2109 1076 1879 
Q 822 1650 822 1244 
Q 822 894 1055 639 
Q 1288 384 1775 384 
z
M 975 2384 
Q 741 2484 609 2619 
Q 363 2869 363 3269 
Q 363 3769 725 4128 
Q 1088 4488 1753 4488 
Q 2397 4488 2762 4148 
Q 3128 3809 3128 3356 
Q 3128 2938 2916 2678 
Q 2797 2531 2547 2391 
Q 2825 2263 2984 2097 
Q 3281 1784 3281 1284 
Q 3281 694 2884 283 
Q 2488 -128 1763 -128 
Q 1109 -128 657 226 
Q 206 581 206 1256 
Q 206 1653 400 1942 
Q 594 2231 975 2384 
z
" transform="scale(0.015625)"/>
       </defs>
       <use xlink:href="#Helvetica-38"/>
       <use xlink:href="#Helvetica-30" x="55.615234"/>
       <use xlink:href="#Helvetica-30" x="111.230469"/>
       <use xlink:href="#Helvetica-30" x="166.845703"/>
      </g>
     </g>
    </g>
    <g id="ytick_6">
     <g id="line2d_6">
      <g>
       <use xlink:href="#mc36acc943b" x="13.341646" y="4.076256" style="fill: #777777; stroke: #777777; stroke-width: 0.5"/>
      </g>
     </g>
     <g id="text_8">
      <!-- 10000 -->
      <g style="fill: #333333" transform="translate(3.00024 5.152271) scale(0.03 -0.03)">
       <defs>
        <path id="Helvetica-31" d="M 613 3169 
L 613 3600 
Q 1222 3659 1462 3798 
Q 1703 3938 1822 4456 
L 2266 4456 
L 2266 0 
L 1666 0 
L 1666 3169 
L 613 3169 
z
" transform="scale(0.015625)"/>
       </defs>
       <use xlink:href="#Helvetica-31"/>
       <use xlink:href="#Helvetica-30" x="55.615234"/>
       <use xlink:href="#Helvetica-30" x="111.230469"/>
       <use xlink:href="#Helvetica-30" x="166.845703"/>
       <use xlink:href="#Helvetica-30" x="222.460938"/>
      </g>
     </g>
    </g>
   </g>
   <g id="PolyCollection_1">
    <defs>
     <path id="md52390629d" d="M 24.137305 -15.936476 
L 22.455044 -15.936476 
L 22.244849 -16.075121 
L 21.998228 -16.213766 
L 21.713227 -16.352412 
L 21.388901 -16.491057 
L 21.025557 -16.629702 
L 20.624961 -16.768348 
L 20.190486 -16.906993 
L 19.727199 -17.045638 
L 19.241854 -17.184283 
L 18.74279 -17.322929 
L 18.239731 -17.461574 
L 17.743487 -17.600219 
L 17.265576 -17.738865 
L 16.817774 -17.87751 
L 16.411628 -18.016155 
L 16.057949 -18.154801 
L 15.766328 -18.293446 
L 15.544686 -18.432091 
L 15.398905 -18.570736 
L 15.332552 -18.709382 
L 15.346708 -18.848027 
L 15.439932 -18.986672 
L 15.608338 -19.125318 
L 15.845801 -19.263963 
L 16.144269 -19.402608 
L 16.49415 -19.541253 
L 16.884781 -19.679899 
L 17.304906 -19.818544 
L 17.743172 -19.957189 
L 18.188592 -20.095835 
L 18.630952 -20.23448 
L 19.061157 -20.373125 
L 19.47148 -20.51177 
L 19.855732 -20.650416 
L 20.209338 -20.789061 
L 20.529333 -20.927706 
L 20.814293 -21.066352 
L 21.064201 -21.204997 
L 21.280272 -21.343642 
L 21.464755 -21.482287 
L 21.620706 -21.620933 
L 21.751759 -21.759578 
L 21.861895 -21.898223 
L 21.955217 -22.036869 
L 22.035746 -22.175514 
L 22.107228 -22.314159 
L 22.172984 -22.452804 
L 22.235784 -22.59145 
L 22.297765 -22.730095 
L 22.360389 -22.86874 
L 22.424446 -23.007386 
L 22.490093 -23.146031 
L 22.556928 -23.284676 
L 22.624084 -23.423322 
L 22.690343 -23.561967 
L 22.754246 -23.700612 
L 22.814204 -23.839257 
L 22.868588 -23.977903 
L 22.915808 -24.116548 
L 22.95436 -24.255193 
L 22.982863 -24.393839 
L 23.000077 -24.532484 
L 23.004909 -24.671129 
L 22.996416 -24.809774 
L 22.973814 -24.94842 
L 22.936493 -25.087065 
L 22.884048 -25.22571 
L 22.816314 -25.364356 
L 22.733429 -25.503001 
L 22.635887 -25.641646 
L 22.524606 -25.780291 
L 22.400983 -25.918937 
L 22.266937 -26.057582 
L 22.124927 -26.196227 
L 21.97794 -26.334873 
L 21.829446 -26.473518 
L 21.683308 -26.612163 
L 21.543659 -26.750808 
L 21.414742 -26.889454 
L 21.300725 -27.028099 
L 21.2055 -27.166744 
L 21.13248 -27.30539 
L 21.084407 -27.444035 
L 21.063188 -27.58268 
L 21.069779 -27.721325 
L 21.104111 -27.859971 
L 21.165086 -27.998616 
L 21.250632 -28.137261 
L 21.357812 -28.275907 
L 21.482997 -28.414552 
L 21.622066 -28.553197 
L 21.770632 -28.691843 
L 21.924274 -28.830488 
L 22.078759 -28.969133 
L 22.230231 -29.107778 
L 22.37536 -29.246424 
L 22.51145 -29.385069 
L 22.636492 -29.523714 
L 22.749168 -29.66236 
L 23.843181 -29.66236 
L 23.843181 -29.66236 
L 23.955857 -29.523714 
L 24.080899 -29.385069 
L 24.21699 -29.246424 
L 24.362119 -29.107778 
L 24.51359 -28.969133 
L 24.668075 -28.830488 
L 24.821718 -28.691843 
L 24.970283 -28.553197 
L 25.109352 -28.414552 
L 25.234538 -28.275907 
L 25.341718 -28.137261 
L 25.427263 -27.998616 
L 25.488238 -27.859971 
L 25.52257 -27.721325 
L 25.529161 -27.58268 
L 25.507943 -27.444035 
L 25.459869 -27.30539 
L 25.386849 -27.166744 
L 25.291625 -27.028099 
L 25.177608 -26.889454 
L 25.04869 -26.750808 
L 24.909041 -26.612163 
L 24.762903 -26.473518 
L 24.614409 -26.334873 
L 24.467423 -26.196227 
L 24.325413 -26.057582 
L 24.191366 -25.918937 
L 24.067743 -25.780291 
L 23.956462 -25.641646 
L 23.85892 -25.503001 
L 23.776035 -25.364356 
L 23.708302 -25.22571 
L 23.655856 -25.087065 
L 23.618536 -24.94842 
L 23.595933 -24.809774 
L 23.58744 -24.671129 
L 23.592272 -24.532484 
L 23.609486 -24.393839 
L 23.63799 -24.255193 
L 23.676541 -24.116548 
L 23.723761 -23.977903 
L 23.778146 -23.839257 
L 23.838104 -23.700612 
L 23.902007 -23.561967 
L 23.968266 -23.423322 
L 24.035422 -23.284676 
L 24.102257 -23.146031 
L 24.167904 -23.007386 
L 24.231961 -22.86874 
L 24.294584 -22.730095 
L 24.356565 -22.59145 
L 24.419365 -22.452804 
L 24.485122 -22.314159 
L 24.556604 -22.175514 
L 24.637132 -22.036869 
L 24.730454 -21.898223 
L 24.84059 -21.759578 
L 24.971644 -21.620933 
L 25.127595 -21.482287 
L 25.312078 -21.343642 
L 25.528149 -21.204997 
L 25.778056 -21.066352 
L 26.063016 -20.927706 
L 26.383012 -20.789061 
L 26.736617 -20.650416 
L 27.120869 -20.51177 
L 27.531192 -20.373125 
L 27.961397 -20.23448 
L 28.403758 -20.095835 
L 28.849177 -19.957189 
L 29.287443 -19.818544 
L 29.707568 -19.679899 
L 30.098199 -19.541253 
L 30.448081 -19.402608 
L 30.746548 -19.263963 
L 30.984012 -19.125318 
L 31.152418 -18.986672 
L 31.245641 -18.848027 
L 31.259797 -18.709382 
L 31.193444 -18.570736 
L 31.047664 -18.432091 
L 30.826022 -18.293446 
L 30.5344 -18.154801 
L 30.180722 -18.016155 
L 29.774575 -17.87751 
L 29.326773 -17.738865 
L 28.848862 -17.600219 
L 28.352619 -17.461574 
L 27.849559 -17.322929 
L 27.350495 -17.184283 
L 26.86515 -17.045638 
L 26.401863 -16.906993 
L 25.967388 -16.768348 
L 25.566792 -16.629702 
L 25.203449 -16.491057 
L 24.879123 -16.352412 
L 24.594121 -16.213766 
L 24.3475 -16.075121 
L 24.137305 -15.936476 
z
" style="stroke: #525252; stroke-width: 0.15"/>
    </defs>
    <g clip-path="url(#p5cd6b450e9)">
     <use xlink:href="#md52390629d" x="0" y="84.96" style="fill: #bbba94; stroke: #525252; stroke-width: 0.15"/>
    </g>
   </g>
   <g id="PolyCollection_2">
    <defs>
     <path id="m21378cae67" d="M 44.014625 -16.581354 
L 42.395838 -16.581354 
L 42.12754 -16.736764 
L 41.800644 -16.892174 
L 41.412749 -17.047584 
L 40.964655 -17.202994 
L 40.460949 -17.358404 
L 39.910286 -17.513813 
L 39.325266 -17.669223 
L 38.721867 -17.824633 
L 38.118457 -17.980043 
L 37.534492 -18.135453 
L 36.989039 -18.290863 
L 36.499332 -18.446273 
L 36.079541 -18.601683 
L 35.739928 -18.757093 
L 35.486468 -18.912503 
L 35.320969 -19.067913 
L 35.241609 -19.223323 
L 35.243771 -19.378733 
L 35.321009 -19.534143 
L 35.465977 -19.689553 
L 35.671187 -19.844963 
L 35.929512 -20.000373 
L 36.234403 -20.155783 
L 36.579852 -20.311193 
L 36.960173 -20.466603 
L 37.369685 -20.622012 
L 37.802391 -20.777422 
L 38.25173 -20.932832 
L 38.710449 -21.088242 
L 39.170628 -21.243652 
L 39.623844 -21.399062 
L 40.061459 -21.554472 
L 40.475006 -21.709882 
L 40.856623 -21.865292 
L 41.199495 -22.020702 
L 41.498276 -22.176112 
L 41.749453 -22.331522 
L 41.951606 -22.486932 
L 42.105564 -22.642342 
L 42.214399 -22.797752 
L 42.283273 -22.953162 
L 42.319112 -23.108572 
L 42.330127 -23.263982 
L 42.325203 -23.419392 
L 42.313218 -23.574802 
L 42.302346 -23.730211 
L 42.299426 -23.885621 
L 42.309481 -24.041031 
L 42.335424 -24.196441 
L 42.378013 -24.351851 
L 42.436037 -24.507261 
L 42.506697 -24.662671 
L 42.58613 -24.818081 
L 42.669982 -24.973491 
L 42.753958 -25.128901 
L 42.83427 -25.284311 
L 42.90795 -25.439721 
L 42.972997 -25.595131 
L 43.028392 -25.750541 
L 43.073973 -25.905951 
L 43.110264 -26.061361 
L 43.138244 -26.216771 
L 43.159143 -26.372181 
L 43.174259 -26.527591 
L 43.184818 -26.683 
L 43.191881 -26.83841 
L 43.196293 -26.99382 
L 43.198656 -27.14923 
L 43.199324 -27.30464 
L 43.198401 -27.46005 
L 43.195745 -27.61546 
L 43.190961 -27.77087 
L 43.183408 -27.92628 
L 43.172205 -28.08169 
L 43.156262 -28.2371 
L 43.134334 -28.39251 
L 43.105127 -28.54792 
L 43.067442 -28.70333 
L 43.020364 -28.85874 
L 42.963482 -29.01415 
L 42.897107 -29.16956 
L 42.822462 -29.32497 
L 42.741783 -29.48038 
L 42.658322 -29.63579 
L 42.576188 -29.791199 
L 42.500057 -29.946609 
L 42.434747 -30.102019 
L 42.384726 -30.257429 
L 42.353604 -30.412839 
L 42.343704 -30.568249 
L 42.355778 -30.723659 
L 42.388911 -30.879069 
L 42.440635 -31.034479 
L 42.507232 -31.189889 
L 42.584179 -31.345299 
L 42.666648 -31.500709 
L 42.750004 -31.656119 
L 42.830212 -31.811529 
L 42.904118 -31.966939 
L 43.506346 -31.966939 
L 43.506346 -31.966939 
L 43.580251 -31.811529 
L 43.660459 -31.656119 
L 43.743815 -31.500709 
L 43.826284 -31.345299 
L 43.903231 -31.189889 
L 43.969828 -31.034479 
L 44.021552 -30.879069 
L 44.054685 -30.723659 
L 44.066759 -30.568249 
L 44.05686 -30.412839 
L 44.025737 -30.257429 
L 43.975716 -30.102019 
L 43.910406 -29.946609 
L 43.834275 -29.791199 
L 43.752141 -29.63579 
L 43.66868 -29.48038 
L 43.588002 -29.32497 
L 43.513356 -29.16956 
L 43.446981 -29.01415 
L 43.390099 -28.85874 
L 43.343021 -28.70333 
L 43.305336 -28.54792 
L 43.276129 -28.39251 
L 43.254201 -28.2371 
L 43.238258 -28.08169 
L 43.227055 -27.92628 
L 43.219503 -27.77087 
L 43.214719 -27.61546 
L 43.212062 -27.46005 
L 43.21114 -27.30464 
L 43.211808 -27.14923 
L 43.21417 -26.99382 
L 43.218582 -26.83841 
L 43.225645 -26.683 
L 43.236204 -26.527591 
L 43.25132 -26.372181 
L 43.27222 -26.216771 
L 43.300199 -26.061361 
L 43.33649 -25.905951 
L 43.382072 -25.750541 
L 43.437466 -25.595131 
L 43.502514 -25.439721 
L 43.576193 -25.284311 
L 43.656505 -25.128901 
L 43.740481 -24.973491 
L 43.824334 -24.818081 
L 43.903767 -24.662671 
L 43.974427 -24.507261 
L 44.03245 -24.351851 
L 44.07504 -24.196441 
L 44.100982 -24.041031 
L 44.111037 -23.885621 
L 44.108118 -23.730211 
L 44.097245 -23.574802 
L 44.08526 -23.419392 
L 44.080336 -23.263982 
L 44.091351 -23.108572 
L 44.127191 -22.953162 
L 44.196064 -22.797752 
L 44.304899 -22.642342 
L 44.458857 -22.486932 
L 44.66101 -22.331522 
L 44.912187 -22.176112 
L 45.210968 -22.020702 
L 45.55384 -21.865292 
L 45.935457 -21.709882 
L 46.349005 -21.554472 
L 46.78662 -21.399062 
L 47.239835 -21.243652 
L 47.700014 -21.088242 
L 48.158733 -20.932832 
L 48.608072 -20.777422 
L 49.040778 -20.622012 
L 49.45029 -20.466603 
L 49.830611 -20.311193 
L 50.17606 -20.155783 
L 50.480951 -20.000373 
L 50.739276 -19.844963 
L 50.944486 -19.689553 
L 51.089454 -19.534143 
L 51.166692 -19.378733 
L 51.168854 -19.223323 
L 51.089494 -19.067913 
L 50.923995 -18.912503 
L 50.670535 -18.757093 
L 50.330922 -18.601683 
L 49.911131 -18.446273 
L 49.421424 -18.290863 
L 48.875971 -18.135453 
L 48.292006 -17.980043 
L 47.688596 -17.824633 
L 47.085197 -17.669223 
L 46.500177 -17.513813 
L 45.949514 -17.358404 
L 45.445808 -17.202994 
L 44.997714 -17.047584 
L 44.609819 -16.892174 
L 44.282923 -16.736764 
L 44.014625 -16.581354 
z
" style="stroke: #525252; stroke-width: 0.15"/>
    </defs>
    <g clip-path="url(#p5cd6b450e9)">
     <use xlink:href="#m21378cae67" x="0" y="84.96" style="fill: #977c7f; stroke: #525252; stroke-width: 0.15"/>
    </g>
   </g>
   <g id="line2d_7">
    <path d="M 23.296175 67.367668 
L 23.296175 62.370212 
" clip-path="url(#p5cd6b450e9)" style="fill: none; stroke: #8c8c8c; stroke-width: 0.75; stroke-linecap: round"/>
   </g>
   <g id="line2d_8">
    <path d="M 23.296175 66.636113 
L 23.296175 63.819912 
" clip-path="url(#p5cd6b450e9)" style="fill: none; stroke: #8c8c8c; stroke-width: 4; stroke-linecap: round"/>
   </g>
   <g id="line2d_9">
    <path d="M 23.296175 65.735614 
" clip-path="url(#p5cd6b450e9)" style="fill: none; stroke: #525252; stroke-width: 1.2; stroke-linecap: round"/>
    <defs>
     <path id="m30b0c8e776" d="M 0 0.833333 
C 0.221003 0.833333 0.432983 0.745528 0.589256 0.589256 
C 0.745528 0.432983 0.833333 0.221003 0.833333 0 
C 0.833333 -0.221003 0.745528 -0.432983 0.589256 -0.589256 
C 0.432983 -0.745528 0.221003 -0.833333 0 -0.833333 
C -0.221003 -0.833333 -0.432983 -0.745528 -0.589256 -0.589256 
C -0.745528 -0.432983 -0.833333 -0.221003 -0.833333 0 
C -0.833333 0.221003 -0.745528 0.432983 -0.589256 0.589256 
C -0.432983 0.745528 -0.221003 0.833333 0 0.833333 
z
" style="stroke: #ffffff; stroke-width: 0.8"/>
    </defs>
    <g clip-path="url(#p5cd6b450e9)">
     <use xlink:href="#m30b0c8e776" x="23.296175" y="65.735614" style="fill: #ffffff; stroke: #ffffff; stroke-width: 0.8"/>
    </g>
   </g>
   <g id="line2d_10">
    <path d="M 43.205232 66.972217 
L 43.205232 63.465473 
" clip-path="url(#p5cd6b450e9)" style="fill: none; stroke: #8c8c8c; stroke-width: 0.75; stroke-linecap: round"/>
   </g>
   <g id="line2d_11">
    <path d="M 43.205232 66.218379 
L 43.205232 64.263553 
" clip-path="url(#p5cd6b450e9)" style="fill: none; stroke: #8c8c8c; stroke-width: 4; stroke-linecap: round"/>
   </g>
   <g id="line2d_12">
    <path d="M 43.205232 65.292795 
" clip-path="url(#p5cd6b450e9)" style="fill: none; stroke: #525252; stroke-width: 1.2; stroke-linecap: round"/>
    <g clip-path="url(#p5cd6b450e9)">
     <use xlink:href="#m30b0c8e776" x="43.205232" y="65.292795" style="fill: #ffffff; stroke: #ffffff; stroke-width: 0.8"/>
    </g>
   </g>
   <g id="patch_3">
    <path d="M 13.341646 74.419526 
L 13.341646 4.076256 
" style="fill: none; stroke: #777777; stroke-width: 0.5; stroke-linejoin: miter; stroke-linecap: square"/>
   </g>
   <g id="patch_4">
    <path d="M 13.341646 76.919526 
L 53.15976 76.919526 
" style="fill: none; stroke: #777777; stroke-width: 0.5; stroke-linejoin: miter; stroke-linecap: square"/>
   </g>
  </g>
 </g>
 <defs>
  <clipPath id="p5cd6b450e9">
   <rect x="13.341646" y="4.076256" width="39.818114" height="70.34327"/>
  </clipPath>
 </defs>
</svg>
