<?xml version="1.0" encoding="utf-8" standalone="no"?>
<!DOCTYPE svg PUBLIC "-//W3C//DTD SVG 1.1//EN"
  "http://www.w3.org/Graphics/SVG/1.1/DTD/svg11.dtd">
<svg xmlns:xlink="http://www.w3.org/1999/xlink" width="56.16pt" height="84.96pt" viewBox="0 0 56.16 84.96" xmlns="http://www.w3.org/2000/svg" version="1.1">
 <metadata>
  <rdf:RDF xmlns:dc="http://purl.org/dc/elements/1.1/" xmlns:cc="http://creativecommons.org/ns#" xmlns:rdf="http://www.w3.org/1999/02/22-rdf-syntax-ns#">
   <cc:Work>
    <dc:type rdf:resource="http://purl.org/dc/dcmitype/StillImage"/>
    <dc:date>2024-05-27T15:37:06.217059</dc:date>
    <dc:format>image/svg+xml</dc:format>
    <dc:creator>
     <cc:Agent>
      <dc:title>Matplotlib v3.8.3, https://matplotlib.org/</dc:title>
     </cc:Agent>
    </dc:creator>
   </cc:Work>
  </rdf:RDF>
 </metadata>
 <defs>
  <style type="text/css">*{stroke-linejoin: round; stroke-linecap: butt}</style>
 </defs>
 <g id="figure_1">
  <g id="patch_1">
   <path d="M 0 84.96 
L 56.16 84.96 
L 56.16 0 
L 0 0 
z
" style="fill: #ffffff"/>
  </g>
  <g id="axes_1">
   <g id="patch_2">
    <path d="M 8.336802 74.419526 
L 53.15976 74.419526 
L 53.15976 4.076256 
L 8.336802 4.076256 
z
" style="fill: #ffffff"/>
   </g>
   <g id="matplotlib.axis_1">
    <g id="xtick_1">
     <g id="text_1">
      <!-- ILC2 -->
      <g style="fill: #333333" transform="translate(15.846214 81.230229) scale(0.035 -0.035)">
       <defs>
        <path id="Helvetica-49" d="M 628 4591 
L 1256 4591 
L 1256 0 
L 628 0 
L 628 4591 
z
" transform="scale(0.015625)"/>
        <path id="Helvetica-4c" d="M 488 4591 
L 1109 4591 
L 1109 547 
L 3434 547 
L 3434 0 
L 488 0 
L 488 4591 
z
" transform="scale(0.015625)"/>
        <path id="Helvetica-43" d="M 2422 4716 
Q 3294 4716 3775 4256 
Q 4256 3797 4309 3213 
L 3703 3213 
Q 3600 3656 3292 3915 
Q 2984 4175 2428 4175 
Q 1750 4175 1333 3698 
Q 916 3222 916 2238 
Q 916 1431 1292 929 
Q 1669 428 2416 428 
Q 3103 428 3463 956 
Q 3653 1234 3747 1688 
L 4353 1688 
Q 4272 963 3816 472 
Q 3269 -119 2341 -119 
Q 1541 -119 997 366 
Q 281 1006 281 2344 
Q 281 3359 819 4009 
Q 1400 4716 2422 4716 
z
M 2297 4716 
L 2297 4716 
z
" transform="scale(0.015625)"/>
        <path id="Helvetica-32" d="M 200 0 
Q 231 578 439 1006 
Q 647 1434 1250 1784 
L 1850 2131 
Q 2253 2366 2416 2531 
Q 2672 2791 2672 3125 
Q 2672 3516 2437 3745 
Q 2203 3975 1813 3975 
Q 1234 3975 1013 3538 
Q 894 3303 881 2888 
L 309 2888 
Q 319 3472 525 3841 
Q 891 4491 1816 4491 
Q 2584 4491 2939 4075 
Q 3294 3659 3294 3150 
Q 3294 2613 2916 2231 
Q 2697 2009 2131 1694 
L 1703 1456 
Q 1397 1288 1222 1134 
Q 909 863 828 531 
L 3272 531 
L 3272 0 
L 200 0 
z
" transform="scale(0.015625)"/>
       </defs>
       <use xlink:href="#Helvetica-49"/>
       <use xlink:href="#Helvetica-4c" x="27.783203"/>
       <use xlink:href="#Helvetica-43" x="83.398438"/>
       <use xlink:href="#Helvetica-32" x="155.615234"/>
      </g>
     </g>
    </g>
    <g id="xtick_2">
     <g id="text_2">
      <!-- TH2 -->
      <g style="fill: #333333" transform="translate(38.648161 81.230229) scale(0.035 -0.035)">
       <defs>
        <path id="Helvetica-54" d="M 3828 4591 
L 3828 4044 
L 2281 4044 
L 2281 0 
L 1650 0 
L 1650 4044 
L 103 4044 
L 103 4591 
L 3828 4591 
z
" transform="scale(0.015625)"/>
        <path id="Helvetica-48" d="M 503 4591 
L 1131 4591 
L 1131 2694 
L 3519 2694 
L 3519 4591 
L 4147 4591 
L 4147 0 
L 3519 0 
L 3519 2147 
L 1131 2147 
L 1131 0 
L 503 0 
L 503 4591 
z
" transform="scale(0.015625)"/>
       </defs>
       <use xlink:href="#Helvetica-54"/>
       <use xlink:href="#Helvetica-48" x="61.083984"/>
       <use xlink:href="#Helvetica-32" x="133.300781"/>
      </g>
     </g>
    </g>
   </g>
   <g id="matplotlib.axis_2">
    <g id="ytick_1">
     <g id="line2d_1">
      <defs>
       <path id="m61ce3acbc1" d="M 0 0 
L -1 0 
" style="stroke: #777777; stroke-width: 0.5"/>
      </defs>
      <g>
       <use xlink:href="#m61ce3acbc1" x="8.336802" y="66.995102" style="fill: #777777; stroke: #777777; stroke-width: 0.5"/>
      </g>
     </g>
     <g id="text_3">
      <!-- 0 -->
      <g style="fill: #333333" transform="translate(4.668521 68.071117) scale(0.03 -0.03)">
       <defs>
        <path id="Helvetica-30" d="M 1731 4475 
Q 2600 4475 2988 3759 
Q 3288 3206 3288 2244 
Q 3288 1331 3016 734 
Q 2622 -122 1728 -122 
Q 922 -122 528 578 
Q 200 1163 200 2147 
Q 200 2909 397 3456 
Q 766 4475 1731 4475 
z
M 1725 391 
Q 2163 391 2422 778 
Q 2681 1166 2681 2222 
Q 2681 2984 2493 3476 
Q 2306 3969 1766 3969 
Q 1269 3969 1039 3501 
Q 809 3034 809 2125 
Q 809 1441 956 1025 
Q 1181 391 1725 391 
z
" transform="scale(0.015625)"/>
       </defs>
       <use xlink:href="#Helvetica-30"/>
      </g>
     </g>
    </g>
    <g id="ytick_2">
     <g id="line2d_2">
      <g>
       <use xlink:href="#m61ce3acbc1" x="8.336802" y="54.411333" style="fill: #777777; stroke: #777777; stroke-width: 0.5"/>
      </g>
     </g>
     <g id="text_4">
      <!-- 10 -->
      <g style="fill: #333333" transform="translate(3.00024 55.487348) scale(0.03 -0.03)">
       <defs>
        <path id="Helvetica-31" d="M 613 3169 
L 613 3600 
Q 1222 3659 1462 3798 
Q 1703 3938 1822 4456 
L 2266 4456 
L 2266 0 
L 1666 0 
L 1666 3169 
L 613 3169 
z
" transform="scale(0.015625)"/>
       </defs>
       <use xlink:href="#Helvetica-31"/>
       <use xlink:href="#Helvetica-30" x="55.615234"/>
      </g>
     </g>
    </g>
    <g id="ytick_3">
     <g id="line2d_3">
      <g>
       <use xlink:href="#m61ce3acbc1" x="8.336802" y="41.827563" style="fill: #777777; stroke: #777777; stroke-width: 0.5"/>
      </g>
     </g>
     <g id="text_5">
      <!-- 20 -->
      <g style="fill: #333333" transform="translate(3.00024 42.903579) scale(0.03 -0.03)">
       <use xlink:href="#Helvetica-32"/>
       <use xlink:href="#Helvetica-30" x="55.615234"/>
      </g>
     </g>
    </g>
    <g id="ytick_4">
     <g id="line2d_4">
      <g>
       <use xlink:href="#m61ce3acbc1" x="8.336802" y="29.243794" style="fill: #777777; stroke: #777777; stroke-width: 0.5"/>
      </g>
     </g>
     <g id="text_6">
      <!-- 30 -->
      <g style="fill: #333333" transform="translate(3.00024 30.31981) scale(0.03 -0.03)">
       <defs>
        <path id="Helvetica-33" d="M 1663 -122 
Q 869 -122 511 314 
Q 153 750 153 1375 
L 741 1375 
Q 778 941 903 744 
Q 1122 391 1694 391 
Q 2138 391 2406 628 
Q 2675 866 2675 1241 
Q 2675 1703 2392 1887 
Q 2109 2072 1606 2072 
Q 1550 2072 1492 2070 
Q 1434 2069 1375 2066 
L 1375 2563 
Q 1463 2553 1522 2550 
Q 1581 2547 1650 2547 
Q 1966 2547 2169 2647 
Q 2525 2822 2525 3272 
Q 2525 3606 2287 3787 
Q 2050 3969 1734 3969 
Q 1172 3969 956 3594 
Q 838 3388 822 3006 
L 266 3006 
Q 266 3506 466 3856 
Q 809 4481 1675 4481 
Q 2359 4481 2734 4176 
Q 3109 3872 3109 3294 
Q 3109 2881 2888 2625 
Q 2750 2466 2531 2375 
Q 2884 2278 3082 2001 
Q 3281 1725 3281 1325 
Q 3281 684 2859 281 
Q 2438 -122 1663 -122 
z
" transform="scale(0.015625)"/>
       </defs>
       <use xlink:href="#Helvetica-33"/>
       <use xlink:href="#Helvetica-30" x="55.615234"/>
      </g>
     </g>
    </g>
    <g id="ytick_5">
     <g id="line2d_5">
      <g>
       <use xlink:href="#m61ce3acbc1" x="8.336802" y="16.660025" style="fill: #777777; stroke: #777777; stroke-width: 0.5"/>
      </g>
     </g>
     <g id="text_7">
      <!-- 40 -->
      <g style="fill: #333333" transform="translate(3.00024 17.73604) scale(0.03 -0.03)">
       <defs>
        <path id="Helvetica-34" d="M 2116 1584 
L 2116 3613 
L 681 1584 
L 2116 1584 
z
M 2125 0 
L 2125 1094 
L 163 1094 
L 163 1644 
L 2213 4488 
L 2688 4488 
L 2688 1584 
L 3347 1584 
L 3347 1094 
L 2688 1094 
L 2688 0 
L 2125 0 
z
" transform="scale(0.015625)"/>
       </defs>
       <use xlink:href="#Helvetica-34"/>
       <use xlink:href="#Helvetica-30" x="55.615234"/>
      </g>
     </g>
    </g>
    <g id="ytick_6">
     <g id="line2d_6">
      <g>
       <use xlink:href="#m61ce3acbc1" x="8.336802" y="4.076256" style="fill: #777777; stroke: #777777; stroke-width: 0.5"/>
      </g>
     </g>
     <g id="text_8">
      <!-- 50 -->
      <g style="fill: #333333" transform="translate(3.00024 5.152271) scale(0.03 -0.03)">
       <defs>
        <path id="Helvetica-35" d="M 791 1141 
Q 847 659 1238 475 
Q 1438 381 1700 381 
Q 2200 381 2440 700 
Q 2681 1019 2681 1406 
Q 2681 1875 2395 2131 
Q 2109 2388 1709 2388 
Q 1419 2388 1211 2275 
Q 1003 2163 856 1963 
L 369 1991 
L 709 4400 
L 3034 4400 
L 3034 3856 
L 1131 3856 
L 941 2613 
Q 1097 2731 1238 2791 
Q 1488 2894 1816 2894 
Q 2431 2894 2859 2497 
Q 3288 2100 3288 1491 
Q 3288 856 2895 371 
Q 2503 -113 1644 -113 
Q 1097 -113 676 195 
Q 256 503 206 1141 
L 791 1141 
z
" transform="scale(0.015625)"/>
       </defs>
       <use xlink:href="#Helvetica-35"/>
       <use xlink:href="#Helvetica-30" x="55.615234"/>
      </g>
     </g>
    </g>
   </g>
   <g id="PolyCollection_1">
    <defs>
     <path id="m70e2edf924" d="M 21.523657 -17.624313 
L 17.561426 -17.624313 
L 17.168829 -17.651153 
L 16.731642 -17.677992 
L 16.252687 -17.704832 
L 15.736804 -17.731671 
L 15.190932 -17.758511 
L 14.624075 -17.78535 
L 14.04714 -17.81219 
L 13.472631 -17.839029 
L 12.914228 -17.865869 
L 12.386239 -17.892708 
L 11.902988 -17.919548 
L 11.478143 -17.946387 
L 11.124059 -17.973227 
L 10.85116 -18.000066 
L 10.667416 -18.026906 
L 10.57795 -18.053746 
L 10.584801 -18.080585 
L 10.686858 -18.107425 
L 10.879975 -18.134264 
L 11.157239 -18.161104 
L 11.509385 -18.187943 
L 11.925301 -18.214783 
L 12.392612 -18.241622 
L 12.89828 -18.268462 
L 13.429182 -18.295301 
L 13.972646 -18.322141 
L 14.516902 -18.34898 
L 15.05144 -18.37582 
L 15.56726 -18.402659 
L 16.057017 -18.429499 
L 16.515072 -18.456338 
L 16.937447 -18.483178 
L 17.321721 -18.510017 
L 17.666869 -18.536857 
L 17.973066 -18.563696 
L 18.241474 -18.590536 
L 18.474029 -18.617375 
L 18.673233 -18.644215 
L 18.841964 -18.671054 
L 18.983305 -18.697894 
L 19.100407 -18.724734 
L 19.196368 -18.751573 
L 19.274148 -18.778413 
L 19.336503 -18.805252 
L 19.385942 -18.832092 
L 19.424703 -18.858931 
L 19.454746 -18.885771 
L 19.477755 -18.91261 
L 19.495153 -18.93945 
L 19.508116 -18.966289 
L 19.5176 -18.993129 
L 19.524361 -19.019968 
L 19.528979 -19.046808 
L 19.531878 -19.073647 
L 19.533342 -19.100487 
L 19.533532 -19.127326 
L 19.532495 -19.154166 
L 19.530174 -19.181005 
L 19.526407 -19.207845 
L 19.520938 -19.234684 
L 19.513415 -19.261524 
L 19.503392 -19.288363 
L 19.490339 -19.315203 
L 19.473651 -19.342042 
L 19.452665 -19.368882 
L 19.426679 -19.395722 
L 19.394992 -19.422561 
L 19.35694 -19.449401 
L 19.311945 -19.47624 
L 19.259571 -19.50308 
L 19.199582 -19.529919 
L 19.132004 -19.556759 
L 19.057171 -19.583598 
L 18.975779 -19.610438 
L 18.888903 -19.637277 
L 18.798011 -19.664117 
L 18.704945 -19.690956 
L 18.611872 -19.717796 
L 18.521216 -19.744635 
L 18.435559 -19.771475 
L 18.357523 -19.798314 
L 18.289637 -19.825154 
L 18.234208 -19.851993 
L 18.193184 -19.878833 
L 18.168045 -19.905672 
L 18.159713 -19.932512 
L 18.168496 -19.959351 
L 18.194071 -19.986191 
L 18.235497 -20.01303 
L 18.291284 -20.03987 
L 18.359469 -20.06671 
L 18.43774 -20.093549 
L 18.523564 -20.120389 
L 18.614316 -20.147228 
L 18.707419 -20.174068 
L 18.800455 -20.200907 
L 18.891262 -20.227747 
L 18.97801 -20.254586 
L 19.059242 -20.281426 
L 20.025842 -20.281426 
L 20.025842 -20.281426 
L 20.107073 -20.254586 
L 20.193822 -20.227747 
L 20.284629 -20.200907 
L 20.377664 -20.174068 
L 20.470768 -20.147228 
L 20.56152 -20.120389 
L 20.647343 -20.093549 
L 20.725615 -20.06671 
L 20.7938 -20.03987 
L 20.849586 -20.01303 
L 20.891013 -19.986191 
L 20.916587 -19.959351 
L 20.925371 -19.932512 
L 20.917039 -19.905672 
L 20.8919 -19.878833 
L 20.850876 -19.851993 
L 20.795447 -19.825154 
L 20.727561 -19.798314 
L 20.649525 -19.771475 
L 20.563867 -19.744635 
L 20.473212 -19.717796 
L 20.380139 -19.690956 
L 20.287072 -19.664117 
L 20.196181 -19.637277 
L 20.109305 -19.610438 
L 20.027912 -19.583598 
L 19.95308 -19.556759 
L 19.885501 -19.529919 
L 19.825513 -19.50308 
L 19.773139 -19.47624 
L 19.728144 -19.449401 
L 19.690092 -19.422561 
L 19.658405 -19.395722 
L 19.632419 -19.368882 
L 19.611432 -19.342042 
L 19.594745 -19.315203 
L 19.581692 -19.288363 
L 19.571669 -19.261524 
L 19.564146 -19.234684 
L 19.558677 -19.207845 
L 19.55491 -19.181005 
L 19.552588 -19.154166 
L 19.551552 -19.127326 
L 19.551742 -19.100487 
L 19.553206 -19.073647 
L 19.556104 -19.046808 
L 19.560723 -19.019968 
L 19.567484 -18.993129 
L 19.576968 -18.966289 
L 19.589931 -18.93945 
L 19.607329 -18.91261 
L 19.630338 -18.885771 
L 19.660381 -18.858931 
L 19.699142 -18.832092 
L 19.748581 -18.805252 
L 19.810936 -18.778413 
L 19.888716 -18.751573 
L 19.984677 -18.724734 
L 20.101778 -18.697894 
L 20.24312 -18.671054 
L 20.41185 -18.644215 
L 20.611055 -18.617375 
L 20.84361 -18.590536 
L 21.112018 -18.563696 
L 21.418214 -18.536857 
L 21.763362 -18.510017 
L 22.147637 -18.483178 
L 22.570012 -18.456338 
L 23.028067 -18.429499 
L 23.517824 -18.402659 
L 24.033644 -18.37582 
L 24.568182 -18.34898 
L 25.112438 -18.322141 
L 25.655902 -18.295301 
L 26.186804 -18.268462 
L 26.692472 -18.241622 
L 27.159783 -18.214783 
L 27.575699 -18.187943 
L 27.927844 -18.161104 
L 28.205109 -18.134264 
L 28.398226 -18.107425 
L 28.500283 -18.080585 
L 28.507133 -18.053746 
L 28.417667 -18.026906 
L 28.233923 -18.000066 
L 27.961024 -17.973227 
L 27.60694 -17.946387 
L 27.182096 -17.919548 
L 26.698844 -17.892708 
L 26.170856 -17.865869 
L 25.612453 -17.839029 
L 25.037944 -17.81219 
L 24.461008 -17.78535 
L 23.894152 -17.758511 
L 23.348279 -17.731671 
L 22.832397 -17.704832 
L 22.353442 -17.677992 
L 21.916255 -17.651153 
L 21.523657 -17.624313 
z
" style="stroke: #717171; stroke-width: 0.15"/>
    </defs>
    <g clip-path="url(#p6309bc857b)">
     <use xlink:href="#m70e2edf924" x="0" y="84.96" style="fill: #d6bba3; stroke: #717171; stroke-width: 0.15"/>
    </g>
   </g>
   <g id="PolyCollection_2">
    <defs>
     <path id="m4242f7b37c" d="M 44.158068 -16.051287 
L 39.749973 -16.051287 
L 39.338877 -16.204014 
L 38.886512 -16.356741 
L 38.396751 -16.509468 
L 37.875379 -16.662195 
L 37.330094 -16.814922 
L 36.770384 -16.967649 
L 36.207295 -17.120376 
L 35.653069 -17.273103 
L 35.120688 -17.42583 
L 34.623329 -17.578557 
L 34.173767 -17.731285 
L 33.783773 -17.884012 
L 33.46353 -18.036739 
L 33.221128 -18.189466 
L 33.062155 -18.342193 
L 32.989429 -18.49492 
L 33.002889 -18.647647 
L 33.09964 -18.800374 
L 33.274167 -18.953101 
L 33.518684 -19.105828 
L 33.823606 -19.258555 
L 34.178094 -19.411282 
L 34.570643 -19.564009 
L 34.989673 -19.716736 
L 35.424071 -19.869463 
L 35.863666 -20.02219 
L 36.299594 -20.174917 
L 36.724552 -20.327644 
L 37.132927 -20.480371 
L 37.520795 -20.633098 
L 37.885823 -20.785825 
L 38.227077 -20.938552 
L 38.544768 -21.09128 
L 38.839964 -21.244007 
L 39.114293 -21.396734 
L 39.369661 -21.549461 
L 39.608015 -21.702188 
L 39.831146 -21.854915 
L 40.040559 -22.007642 
L 40.237398 -22.160369 
L 40.422429 -22.313096 
L 40.596068 -22.465823 
L 40.758448 -22.61855 
L 40.909497 -22.771277 
L 41.04904 -22.924004 
L 41.17688 -23.076731 
L 41.292883 -23.229458 
L 41.397032 -23.382185 
L 41.48947 -23.534912 
L 41.570509 -23.687639 
L 41.64063 -23.840366 
L 41.700456 -23.993093 
L 41.750721 -24.14582 
L 41.792225 -24.298547 
L 41.825787 -24.451274 
L 41.852199 -24.604002 
L 41.872187 -24.756729 
L 41.886367 -24.909456 
L 41.895224 -25.062183 
L 41.899084 -25.21491 
L 41.898103 -25.367637 
L 41.892264 -25.520364 
L 41.881384 -25.673091 
L 41.865126 -25.825818 
L 41.843025 -25.978545 
L 41.814525 -26.131272 
L 41.779022 -26.283999 
L 41.735922 -26.436726 
L 41.6847 -26.589453 
L 41.624971 -26.74218 
L 41.556561 -26.894907 
L 41.479577 -27.047634 
L 41.39447 -27.200361 
L 41.302081 -27.353088 
L 41.203674 -27.505815 
L 41.100945 -27.658542 
L 40.995995 -27.811269 
L 40.891282 -27.963997 
L 40.789537 -28.116724 
L 40.693655 -28.269451 
L 40.606561 -28.422178 
L 40.531068 -28.574905 
L 40.469724 -28.727632 
L 40.424674 -28.880359 
L 40.397531 -29.033086 
L 40.389281 -29.185813 
L 40.400229 -29.33854 
L 40.429972 -29.491267 
L 40.477431 -29.643994 
L 40.540911 -29.796721 
L 40.618202 -29.949448 
L 40.706712 -30.102175 
L 40.803603 -30.254902 
L 40.905946 -30.407629 
L 41.010863 -30.560356 
L 41.115659 -30.713083 
L 41.217926 -30.86581 
L 41.315624 -31.018537 
L 41.407127 -31.171264 
L 42.500915 -31.171264 
L 42.500915 -31.171264 
L 42.592417 -31.018537 
L 42.690115 -30.86581 
L 42.792382 -30.713083 
L 42.897178 -30.560356 
L 43.002095 -30.407629 
L 43.104438 -30.254902 
L 43.201329 -30.102175 
L 43.289839 -29.949448 
L 43.367131 -29.796721 
L 43.43061 -29.643994 
L 43.478069 -29.491267 
L 43.507812 -29.33854 
L 43.51876 -29.185813 
L 43.510511 -29.033086 
L 43.483367 -28.880359 
L 43.438317 -28.727632 
L 43.376974 -28.574905 
L 43.301481 -28.422178 
L 43.214387 -28.269451 
L 43.118504 -28.116724 
L 43.016759 -27.963997 
L 42.912046 -27.811269 
L 42.807096 -27.658542 
L 42.704367 -27.505815 
L 42.605961 -27.353088 
L 42.513571 -27.200361 
L 42.428464 -27.047634 
L 42.35148 -26.894907 
L 42.283071 -26.74218 
L 42.223341 -26.589453 
L 42.172119 -26.436726 
L 42.129019 -26.283999 
L 42.093516 -26.131272 
L 42.065016 -25.978545 
L 42.042915 -25.825818 
L 42.026657 -25.673091 
L 42.015777 -25.520364 
L 42.009939 -25.367637 
L 42.008957 -25.21491 
L 42.012817 -25.062183 
L 42.021674 -24.909456 
L 42.035855 -24.756729 
L 42.055842 -24.604002 
L 42.082254 -24.451274 
L 42.115816 -24.298547 
L 42.15732 -24.14582 
L 42.207585 -23.993093 
L 42.267411 -23.840366 
L 42.337532 -23.687639 
L 42.418571 -23.534912 
L 42.511009 -23.382185 
L 42.615159 -23.229458 
L 42.731161 -23.076731 
L 42.859001 -22.924004 
L 42.998544 -22.771277 
L 43.149594 -22.61855 
L 43.311973 -22.465823 
L 43.485613 -22.313096 
L 43.670643 -22.160369 
L 43.867482 -22.007642 
L 44.076895 -21.854915 
L 44.300026 -21.702188 
L 44.53838 -21.549461 
L 44.793749 -21.396734 
L 45.068077 -21.244007 
L 45.363273 -21.09128 
L 45.680964 -20.938552 
L 46.022218 -20.785825 
L 46.387247 -20.633098 
L 46.775114 -20.480371 
L 47.183489 -20.327644 
L 47.608448 -20.174917 
L 48.044375 -20.02219 
L 48.48397 -19.869463 
L 48.918369 -19.716736 
L 49.337399 -19.564009 
L 49.729948 -19.411282 
L 50.084435 -19.258555 
L 50.389357 -19.105828 
L 50.633874 -18.953101 
L 50.808401 -18.800374 
L 50.905152 -18.647647 
L 50.918612 -18.49492 
L 50.845887 -18.342193 
L 50.686913 -18.189466 
L 50.444511 -18.036739 
L 50.124269 -17.884012 
L 49.734274 -17.731285 
L 49.284712 -17.578557 
L 48.787353 -17.42583 
L 48.254972 -17.273103 
L 47.700747 -17.120376 
L 47.137657 -16.967649 
L 46.577948 -16.814922 
L 46.032662 -16.662195 
L 45.51129 -16.509468 
L 45.021529 -16.356741 
L 44.569164 -16.204014 
L 44.158068 -16.051287 
z
" style="stroke: #717171; stroke-width: 0.15"/>
    </defs>
    <g clip-path="url(#p6309bc857b)">
     <use xlink:href="#m4242f7b37c" x="0" y="84.96" style="fill: #f1b9e0; stroke: #717171; stroke-width: 0.15"/>
    </g>
   </g>
   <g id="line2d_7">
    <path d="M 19.542542 66.986418 
L 19.542542 66.668986 
" clip-path="url(#p6309bc857b)" style="fill: none; stroke: #8c8c8c; stroke-width: 0.75; stroke-linecap: round"/>
   </g>
   <g id="line2d_8">
    <path d="M 19.542542 66.944402 
L 19.542542 66.792736 
" clip-path="url(#p6309bc857b)" style="fill: none; stroke: #8c8c8c; stroke-width: 4; stroke-linecap: round"/>
   </g>
   <g id="line2d_9">
    <path d="M 19.542542 66.901092 
" clip-path="url(#p6309bc857b)" style="fill: none; stroke: #717171; stroke-width: 1.2; stroke-linecap: round"/>
    <defs>
     <path id="m4034a9e190" d="M 0 0.833333 
C 0.221003 0.833333 0.432983 0.745528 0.589256 0.589256 
C 0.745528 0.432983 0.833333 0.221003 0.833333 0 
C 0.833333 -0.221003 0.745528 -0.432983 0.589256 -0.589256 
C 0.432983 -0.745528 0.221003 -0.833333 0 -0.833333 
C -0.221003 -0.833333 -0.432983 -0.745528 -0.589256 -0.589256 
C -0.745528 -0.432983 -0.833333 -0.221003 -0.833333 0 
C -0.833333 0.221003 -0.745528 0.432983 -0.589256 0.589256 
C -0.432983 0.745528 -0.221003 0.833333 0 0.833333 
z
" style="stroke: #ffffff; stroke-width: 0.8"/>
    </defs>
    <g clip-path="url(#p6309bc857b)">
     <use xlink:href="#m4034a9e190" x="19.542542" y="66.901092" style="fill: #ffffff; stroke: #ffffff; stroke-width: 0.8"/>
    </g>
   </g>
   <g id="line2d_10">
    <path d="M 41.954021 66.912496 
L 41.954021 63.621654 
" clip-path="url(#p6309bc857b)" style="fill: none; stroke: #8c8c8c; stroke-width: 0.75; stroke-linecap: round"/>
   </g>
   <g id="line2d_11">
    <path d="M 41.954021 66.83944 
L 41.954021 65.128324 
" clip-path="url(#p6309bc857b)" style="fill: none; stroke: #8c8c8c; stroke-width: 4; stroke-linecap: round"/>
   </g>
   <g id="line2d_12">
    <path d="M 41.954021 66.249722 
" clip-path="url(#p6309bc857b)" style="fill: none; stroke: #717171; stroke-width: 1.2; stroke-linecap: round"/>
    <g clip-path="url(#p6309bc857b)">
     <use xlink:href="#m4034a9e190" x="41.954021" y="66.249722" style="fill: #ffffff; stroke: #ffffff; stroke-width: 0.8"/>
    </g>
   </g>
   <g id="patch_3">
    <path d="M 8.336802 74.419526 
L 8.336802 4.076256 
" style="fill: none; stroke: #777777; stroke-width: 0.5; stroke-linejoin: miter; stroke-linecap: square"/>
   </g>
   <g id="patch_4">
    <path d="M 8.336802 76.919526 
L 53.15976 76.919526 
" style="fill: none; stroke: #777777; stroke-width: 0.5; stroke-linejoin: miter; stroke-linecap: square"/>
   </g>
  </g>
 </g>
 <defs>
  <clipPath id="p6309bc857b">
   <rect x="8.336802" y="4.076256" width="44.822958" height="70.34327"/>
  </clipPath>
 </defs>
</svg>
