<?xml version="1.0" encoding="utf-8" standalone="no"?>
<!DOCTYPE svg PUBLIC "-//W3C//DTD SVG 1.1//EN"
  "http://www.w3.org/Graphics/SVG/1.1/DTD/svg11.dtd">
<svg xmlns:xlink="http://www.w3.org/1999/xlink" width="198pt" height="84.96pt" viewBox="0 0 198 84.96" xmlns="http://www.w3.org/2000/svg" version="1.1">
 <metadata>
  <rdf:RDF xmlns:dc="http://purl.org/dc/elements/1.1/" xmlns:cc="http://creativecommons.org/ns#" xmlns:rdf="http://www.w3.org/1999/02/22-rdf-syntax-ns#">
   <cc:Work>
    <dc:type rdf:resource="http://purl.org/dc/dcmitype/StillImage"/>
    <dc:date>2024-05-27T15:37:14.320139</dc:date>
    <dc:format>image/svg+xml</dc:format>
    <dc:creator>
     <cc:Agent>
      <dc:title>Matplotlib v3.8.3, https://matplotlib.org/</dc:title>
     </cc:Agent>
    </dc:creator>
   </cc:Work>
  </rdf:RDF>
 </metadata>
 <defs>
  <style type="text/css">*{stroke-linejoin: round; stroke-linecap: butt}</style>
 </defs>
 <g id="figure_1">
  <g id="patch_1">
   <path d="M 0 84.96 
L 198 84.96 
L 198 0 
L 0 0 
z
" style="fill: #ffffff"/>
  </g>
  <g id="axes_1">
   <g id="patch_2">
    <path d="M 10.005084 54.222338 
L 194.99976 54.222338 
L 194.99976 4.076256 
L 10.005084 4.076256 
z
" style="fill: #ffffff"/>
   </g>
   <g id="matplotlib.axis_1">
    <g id="xtick_1">
     <g id="text_1">
      <!-- CD3+ Cells -->
      <g style="fill: #333333" transform="translate(24.109575 76.319838) rotate(-90) scale(0.035 -0.035)">
       <defs>
        <path id="Helvetica-43" d="M 2422 4716 
Q 3294 4716 3775 4256 
Q 4256 3797 4309 3213 
L 3703 3213 
Q 3600 3656 3292 3915 
Q 2984 4175 2428 4175 
Q 1750 4175 1333 3698 
Q 916 3222 916 2238 
Q 916 1431 1292 929 
Q 1669 428 2416 428 
Q 3103 428 3463 956 
Q 3653 1234 3747 1688 
L 4353 1688 
Q 4272 963 3816 472 
Q 3269 -119 2341 -119 
Q 1541 -119 997 366 
Q 281 1006 281 2344 
Q 281 3359 819 4009 
Q 1400 4716 2422 4716 
z
M 2297 4716 
L 2297 4716 
z
" transform="scale(0.015625)"/>
        <path id="Helvetica-44" d="M 2250 531 
Q 2566 531 2769 597 
Q 3131 719 3363 1066 
Q 3547 1344 3628 1778 
Q 3675 2038 3675 2259 
Q 3675 3113 3336 3584 
Q 2997 4056 2244 4056 
L 1141 4056 
L 1141 531 
L 2250 531 
z
M 516 4591 
L 2375 4591 
Q 3322 4591 3844 3919 
Q 4309 3313 4309 2366 
Q 4309 1634 4034 1044 
Q 3550 0 2369 0 
L 516 0 
L 516 4591 
z
" transform="scale(0.015625)"/>
        <path id="Helvetica-33" d="M 1663 -122 
Q 869 -122 511 314 
Q 153 750 153 1375 
L 741 1375 
Q 778 941 903 744 
Q 1122 391 1694 391 
Q 2138 391 2406 628 
Q 2675 866 2675 1241 
Q 2675 1703 2392 1887 
Q 2109 2072 1606 2072 
Q 1550 2072 1492 2070 
Q 1434 2069 1375 2066 
L 1375 2563 
Q 1463 2553 1522 2550 
Q 1581 2547 1650 2547 
Q 1966 2547 2169 2647 
Q 2525 2822 2525 3272 
Q 2525 3606 2287 3787 
Q 2050 3969 1734 3969 
Q 1172 3969 956 3594 
Q 838 3388 822 3006 
L 266 3006 
Q 266 3506 466 3856 
Q 809 4481 1675 4481 
Q 2359 4481 2734 4176 
Q 3109 3872 3109 3294 
Q 3109 2881 2888 2625 
Q 2750 2466 2531 2375 
Q 2884 2278 3082 2001 
Q 3281 1725 3281 1325 
Q 3281 684 2859 281 
Q 2438 -122 1663 -122 
z
" transform="scale(0.015625)"/>
        <path id="Helvetica-2b" d="M 288 1369 
L 288 1894 
L 1650 1894 
L 1650 3266 
L 2184 3266 
L 2184 1894 
L 3547 1894 
L 3547 1369 
L 2184 1369 
L 2184 0 
L 1650 0 
L 1650 1369 
L 288 1369 
z
" transform="scale(0.015625)"/>
        <path id="Helvetica-20" transform="scale(0.015625)"/>
        <path id="Helvetica-65" d="M 1806 3422 
Q 2163 3422 2497 3255 
Q 2831 3088 3006 2822 
Q 3175 2569 3231 2231 
Q 3281 2000 3281 1494 
L 828 1494 
Q 844 984 1069 676 
Q 1294 369 1766 369 
Q 2206 369 2469 659 
Q 2619 828 2681 1050 
L 3234 1050 
Q 3213 866 3089 639 
Q 2966 413 2813 269 
Q 2556 19 2178 -69 
Q 1975 -119 1719 -119 
Q 1094 -119 659 336 
Q 225 791 225 1609 
Q 225 2416 662 2919 
Q 1100 3422 1806 3422 
z
M 2703 1941 
Q 2669 2306 2544 2525 
Q 2313 2931 1772 2931 
Q 1384 2931 1121 2651 
Q 859 2372 844 1941 
L 2703 1941 
z
M 1753 3428 
L 1753 3428 
z
" transform="scale(0.015625)"/>
        <path id="Helvetica-6c" d="M 428 4591 
L 991 4591 
L 991 0 
L 428 0 
L 428 4591 
z
" transform="scale(0.015625)"/>
        <path id="Helvetica-73" d="M 747 1050 
Q 772 769 888 619 
Q 1100 347 1625 347 
Q 1938 347 2175 483 
Q 2413 619 2413 903 
Q 2413 1119 2222 1231 
Q 2100 1300 1741 1391 
L 1294 1503 
Q 866 1609 663 1741 
Q 300 1969 300 2372 
Q 300 2847 642 3140 
Q 984 3434 1563 3434 
Q 2319 3434 2653 2991 
Q 2863 2709 2856 2384 
L 2325 2384 
Q 2309 2575 2191 2731 
Q 1997 2953 1519 2953 
Q 1200 2953 1036 2831 
Q 872 2709 872 2509 
Q 872 2291 1088 2159 
Q 1213 2081 1456 2022 
L 1828 1931 
Q 2434 1784 2641 1647 
Q 2969 1431 2969 969 
Q 2969 522 2630 197 
Q 2291 -128 1597 -128 
Q 850 -128 539 211 
Q 228 550 206 1050 
L 747 1050 
z
M 1578 3428 
L 1578 3428 
z
" transform="scale(0.015625)"/>
       </defs>
       <use xlink:href="#Helvetica-43"/>
       <use xlink:href="#Helvetica-44" x="72.216797"/>
       <use xlink:href="#Helvetica-33" x="144.433594"/>
       <use xlink:href="#Helvetica-2b" x="200.048828"/>
       <use xlink:href="#Helvetica-20" x="258.447266"/>
       <use xlink:href="#Helvetica-43" x="286.230469"/>
       <use xlink:href="#Helvetica-65" x="358.447266"/>
       <use xlink:href="#Helvetica-6c" x="414.0625"/>
       <use xlink:href="#Helvetica-6c" x="436.279297"/>
       <use xlink:href="#Helvetica-73" x="458.496094"/>
      </g>
     </g>
    </g>
    <g id="xtick_2">
     <g id="text_2">
      <!-- TCRαδ+ Cells -->
      <g style="fill: #333333" transform="translate(50.537386 80.786713) rotate(-90) scale(0.035 -0.035)">
       <defs>
        <path id="Helvetica-54" d="M 3828 4591 
L 3828 4044 
L 2281 4044 
L 2281 0 
L 1650 0 
L 1650 4044 
L 103 4044 
L 103 4591 
L 3828 4591 
z
" transform="scale(0.015625)"/>
        <path id="Helvetica-52" d="M 2622 2488 
Q 3059 2488 3314 2663 
Q 3569 2838 3569 3294 
Q 3569 3784 3213 3963 
Q 3022 4056 2703 4056 
L 1184 4056 
L 1184 2488 
L 2622 2488 
z
M 563 4591 
L 2688 4591 
Q 3213 4591 3553 4438 
Q 4200 4144 4200 3353 
Q 4200 2941 4029 2678 
Q 3859 2416 3553 2256 
Q 3822 2147 3958 1969 
Q 4094 1791 4109 1391 
L 4131 775 
Q 4141 513 4175 384 
Q 4231 166 4375 103 
L 4375 0 
L 3613 0 
Q 3581 59 3562 153 
Q 3544 247 3531 516 
L 3494 1281 
Q 3472 1731 3159 1884 
Q 2981 1969 2600 1969 
L 1184 1969 
L 1184 0 
L 563 0 
L 563 4591 
z
" transform="scale(0.015625)"/>
        <path id="Helvetica-3b1" d="M 3347 703 
Q 3334 428 3525 434 
Q 3641 434 3700 475 
L 3700 -19 
Q 3628 -44 3513 -50 
Q 3391 -63 3309 -63 
Q 3084 -56 2956 103 
Q 2816 256 2816 475 
L 2803 475 
Q 2413 -63 1734 -63 
Q 1006 -50 647 459 
Q 281 953 281 1644 
Q 281 2350 634 2859 
Q 984 3378 1741 3391 
Q 2413 3391 2797 2847 
L 2809 2847 
L 2809 3328 
L 3347 3328 
L 3347 703 
z
M 1825 397 
Q 2075 397 2253 513 
Q 2425 622 2541 806 
Q 2766 1184 2766 1638 
Q 2766 2144 2559 2528 
Q 2350 2919 1797 2931 
Q 1306 2919 1081 2534 
Q 856 2156 856 1697 
Q 856 1209 1081 819 
Q 1306 409 1825 397 
z
" transform="scale(0.015625)"/>
        <path id="Helvetica-3b4" d="M 666 4519 
L 3188 4519 
L 3188 4056 
L 1394 4056 
L 1394 4044 
L 2509 3303 
Q 3134 2881 3372 2469 
Q 3591 2053 3584 1600 
Q 3578 934 3163 447 
Q 2738 -50 1938 -63 
Q 1203 -56 769 403 
Q 331 850 325 1556 
Q 341 3066 1863 3188 
L 1863 3200 
L 666 4056 
L 666 4519 
z
M 1991 397 
Q 2497 403 2731 794 
Q 2969 1166 2969 1606 
Q 2969 1856 2919 2041 
Q 2866 2222 2791 2344 
Q 2713 2463 2638 2541 
Q 2559 2619 2509 2650 
Q 2381 2766 2156 2766 
Q 947 2766 941 1528 
Q 941 1056 1216 738 
Q 1491 403 1991 397 
z
" transform="scale(0.015625)"/>
       </defs>
       <use xlink:href="#Helvetica-54"/>
       <use xlink:href="#Helvetica-43" x="61.083984"/>
       <use xlink:href="#Helvetica-52" x="133.300781"/>
       <use xlink:href="#Helvetica-3b1" x="205.517578"/>
       <use xlink:href="#Helvetica-3b4" x="266.601562"/>
       <use xlink:href="#Helvetica-2b" x="327.685547"/>
       <use xlink:href="#Helvetica-20" x="386.083984"/>
       <use xlink:href="#Helvetica-43" x="413.867188"/>
       <use xlink:href="#Helvetica-65" x="486.083984"/>
       <use xlink:href="#Helvetica-6c" x="541.699219"/>
       <use xlink:href="#Helvetica-6c" x="563.916016"/>
       <use xlink:href="#Helvetica-73" x="586.132812"/>
      </g>
     </g>
    </g>
    <g id="xtick_3">
     <g id="text_3">
      <!-- IL7R+ Cells -->
      <g style="fill: #333333" transform="translate(76.965197 76.710854) rotate(-90) scale(0.035 -0.035)">
       <defs>
        <path id="Helvetica-49" d="M 628 4591 
L 1256 4591 
L 1256 0 
L 628 0 
L 628 4591 
z
" transform="scale(0.015625)"/>
        <path id="Helvetica-4c" d="M 488 4591 
L 1109 4591 
L 1109 547 
L 3434 547 
L 3434 0 
L 488 0 
L 488 4591 
z
" transform="scale(0.015625)"/>
        <path id="Helvetica-37" d="M 3347 4400 
L 3347 3909 
Q 3131 3700 2773 3181 
Q 2416 2663 2141 2063 
Q 1869 1478 1728 997 
Q 1638 688 1494 0 
L 872 0 
Q 1084 1281 1809 2550 
Q 2238 3294 2709 3834 
L 234 3834 
L 234 4400 
L 3347 4400 
z
" transform="scale(0.015625)"/>
       </defs>
       <use xlink:href="#Helvetica-49"/>
       <use xlink:href="#Helvetica-4c" x="27.783203"/>
       <use xlink:href="#Helvetica-37" x="83.398438"/>
       <use xlink:href="#Helvetica-52" x="139.013672"/>
       <use xlink:href="#Helvetica-2b" x="211.230469"/>
       <use xlink:href="#Helvetica-20" x="269.628906"/>
       <use xlink:href="#Helvetica-43" x="297.412109"/>
       <use xlink:href="#Helvetica-65" x="369.628906"/>
       <use xlink:href="#Helvetica-6c" x="425.244141"/>
       <use xlink:href="#Helvetica-6c" x="447.460938"/>
       <use xlink:href="#Helvetica-73" x="469.677734"/>
      </g>
     </g>
    </g>
    <g id="xtick_4">
     <g id="text_4">
      <!-- EOMES+ Cells -->
      <g style="fill: #333333" transform="translate(103.393008 81.95976) rotate(-90) scale(0.035 -0.035)">
       <defs>
        <path id="Helvetica-45" d="M 547 4591 
L 3894 4591 
L 3894 4028 
L 1153 4028 
L 1153 2634 
L 3688 2634 
L 3688 2103 
L 1153 2103 
L 1153 547 
L 3941 547 
L 3941 0 
L 547 0 
L 547 4591 
z
M 2244 4591 
L 2244 4591 
z
" transform="scale(0.015625)"/>
        <path id="Helvetica-4f" d="M 2469 4716 
Q 3684 4716 4269 3934 
Q 4725 3325 4725 2375 
Q 4725 1347 4203 666 
Q 3591 -134 2456 -134 
Q 1397 -134 791 566 
Q 250 1241 250 2272 
Q 250 3203 713 3866 
Q 1306 4716 2469 4716 
z
M 2531 422 
Q 3353 422 3720 1011 
Q 4088 1600 4088 2366 
Q 4088 3175 3664 3669 
Q 3241 4163 2506 4163 
Q 1794 4163 1344 3673 
Q 894 3184 894 2231 
Q 894 1469 1280 945 
Q 1666 422 2531 422 
z
M 2488 4716 
L 2488 4716 
z
" transform="scale(0.015625)"/>
        <path id="Helvetica-4d" d="M 472 4591 
L 1363 4591 
L 2681 709 
L 3991 4591 
L 4872 4591 
L 4872 0 
L 4281 0 
L 4281 2709 
Q 4281 2850 4287 3175 
Q 4294 3500 4294 3872 
L 2984 0 
L 2369 0 
L 1050 3872 
L 1050 3731 
Q 1050 3563 1058 3217 
Q 1066 2872 1066 2709 
L 1066 0 
L 472 0 
L 472 4591 
z
" transform="scale(0.015625)"/>
        <path id="Helvetica-53" d="M 894 1481 
Q 916 1091 1078 847 
Q 1388 391 2169 391 
Q 2519 391 2806 491 
Q 3363 684 3363 1184 
Q 3363 1559 3128 1719 
Q 2891 1875 2384 1991 
L 1763 2131 
Q 1153 2269 900 2434 
Q 463 2722 463 3294 
Q 463 3913 891 4309 
Q 1319 4706 2103 4706 
Q 2825 4706 3329 4357 
Q 3834 4009 3834 3244 
L 3250 3244 
Q 3203 3613 3050 3809 
Q 2766 4169 2084 4169 
Q 1534 4169 1293 3937 
Q 1053 3706 1053 3400 
Q 1053 3063 1334 2906 
Q 1519 2806 2169 2656 
L 2813 2509 
Q 3278 2403 3531 2219 
Q 3969 1897 3969 1284 
Q 3969 522 3414 194 
Q 2859 -134 2125 -134 
Q 1269 -134 784 303 
Q 300 738 309 1481 
L 894 1481 
z
M 2150 4716 
L 2150 4716 
z
" transform="scale(0.015625)"/>
       </defs>
       <use xlink:href="#Helvetica-45"/>
       <use xlink:href="#Helvetica-4f" x="66.699219"/>
       <use xlink:href="#Helvetica-4d" x="144.482422"/>
       <use xlink:href="#Helvetica-45" x="227.783203"/>
       <use xlink:href="#Helvetica-53" x="294.482422"/>
       <use xlink:href="#Helvetica-2b" x="361.181641"/>
       <use xlink:href="#Helvetica-20" x="419.580078"/>
       <use xlink:href="#Helvetica-43" x="447.363281"/>
       <use xlink:href="#Helvetica-65" x="519.580078"/>
       <use xlink:href="#Helvetica-6c" x="575.195312"/>
       <use xlink:href="#Helvetica-6c" x="597.412109"/>
       <use xlink:href="#Helvetica-73" x="619.628906"/>
      </g>
     </g>
    </g>
    <g id="xtick_5">
     <g id="text_5">
      <!-- TBX+ Cells -->
      <g style="fill: #333333" transform="translate(129.820819 76.125151) rotate(-90) scale(0.035 -0.035)">
       <defs>
        <path id="Helvetica-42" d="M 2213 2650 
Q 2606 2650 2825 2759 
Q 3169 2931 3169 3378 
Q 3169 3828 2803 3984 
Q 2597 4072 2191 4072 
L 1081 4072 
L 1081 2650 
L 2213 2650 
z
M 2422 531 
Q 2994 531 3238 863 
Q 3391 1072 3391 1369 
Q 3391 1869 2944 2050 
Q 2706 2147 2316 2147 
L 1081 2147 
L 1081 531 
L 2422 531 
z
M 472 4591 
L 2444 4591 
Q 3250 4591 3591 4109 
Q 3791 3825 3791 3453 
Q 3791 3019 3544 2741 
Q 3416 2594 3175 2472 
Q 3528 2338 3703 2169 
Q 4013 1869 4013 1341 
Q 4013 897 3734 538 
Q 3319 0 2413 0 
L 472 0 
L 472 4591 
z
" transform="scale(0.015625)"/>
        <path id="Helvetica-58" d="M 881 0 
L 131 0 
L 1775 2353 
L 234 4591 
L 1013 4591 
L 2184 2834 
L 3347 4591 
L 4088 4591 
L 2547 2353 
L 4163 0 
L 3391 0 
L 2153 1888 
L 881 0 
z
" transform="scale(0.015625)"/>
       </defs>
       <use xlink:href="#Helvetica-54"/>
       <use xlink:href="#Helvetica-42" x="61.083984"/>
       <use xlink:href="#Helvetica-58" x="127.783203"/>
       <use xlink:href="#Helvetica-2b" x="194.482422"/>
       <use xlink:href="#Helvetica-20" x="252.880859"/>
       <use xlink:href="#Helvetica-43" x="280.664062"/>
       <use xlink:href="#Helvetica-65" x="352.880859"/>
       <use xlink:href="#Helvetica-6c" x="408.496094"/>
       <use xlink:href="#Helvetica-6c" x="430.712891"/>
       <use xlink:href="#Helvetica-73" x="452.929688"/>
      </g>
     </g>
    </g>
    <g id="xtick_6">
     <g id="text_6">
      <!-- RORγT+ Cells -->
      <g style="fill: #333333" transform="translate(156.260661 81.179916) rotate(-90) scale(0.035 -0.035)">
       <defs>
        <path id="Helvetica-3b3" d="M 1556 225 
L 581 2444 
Q 481 2700 416 2803 
Q 347 2894 244 2894 
Q 91 2888 56 2872 
L 56 3334 
Q 166 3384 313 3391 
Q 641 3391 788 3250 
Q 863 3188 922 3078 
Q 978 2963 1038 2809 
L 1844 878 
L 2828 3328 
L 3431 3328 
L 2131 225 
L 2131 -1253 
L 1556 -1253 
L 1556 225 
z
" transform="scale(0.015625)"/>
       </defs>
       <use xlink:href="#Helvetica-52"/>
       <use xlink:href="#Helvetica-4f" x="72.216797"/>
       <use xlink:href="#Helvetica-52" x="150"/>
       <use xlink:href="#Helvetica-3b3" x="222.216797"/>
       <use xlink:href="#Helvetica-54" x="277.832031"/>
       <use xlink:href="#Helvetica-2b" x="338.916016"/>
       <use xlink:href="#Helvetica-20" x="397.314453"/>
       <use xlink:href="#Helvetica-43" x="425.097656"/>
       <use xlink:href="#Helvetica-65" x="497.314453"/>
       <use xlink:href="#Helvetica-6c" x="552.929688"/>
       <use xlink:href="#Helvetica-6c" x="575.146484"/>
       <use xlink:href="#Helvetica-73" x="597.363281"/>
      </g>
     </g>
    </g>
    <g id="xtick_7">
     <g id="text_7">
      <!-- AHR+ Cells -->
      <g style="fill: #333333" transform="translate(182.67644 76.708119) rotate(-90) scale(0.035 -0.035)">
       <defs>
        <path id="Helvetica-41" d="M 2844 1881 
L 2147 3909 
L 1406 1881 
L 2844 1881 
z
M 1822 4591 
L 2525 4591 
L 4191 0 
L 3509 0 
L 3044 1375 
L 1228 1375 
L 731 0 
L 94 0 
L 1822 4591 
z
" transform="scale(0.015625)"/>
        <path id="Helvetica-48" d="M 503 4591 
L 1131 4591 
L 1131 2694 
L 3519 2694 
L 3519 4591 
L 4147 4591 
L 4147 0 
L 3519 0 
L 3519 2147 
L 1131 2147 
L 1131 0 
L 503 0 
L 503 4591 
z
" transform="scale(0.015625)"/>
       </defs>
       <use xlink:href="#Helvetica-41"/>
       <use xlink:href="#Helvetica-48" x="66.699219"/>
       <use xlink:href="#Helvetica-52" x="138.916016"/>
       <use xlink:href="#Helvetica-2b" x="211.132812"/>
       <use xlink:href="#Helvetica-20" x="269.53125"/>
       <use xlink:href="#Helvetica-43" x="297.314453"/>
       <use xlink:href="#Helvetica-65" x="369.53125"/>
       <use xlink:href="#Helvetica-6c" x="425.146484"/>
       <use xlink:href="#Helvetica-6c" x="447.363281"/>
       <use xlink:href="#Helvetica-73" x="469.580078"/>
      </g>
     </g>
    </g>
   </g>
   <g id="matplotlib.axis_2">
    <g id="ytick_1">
     <g id="line2d_1">
      <defs>
       <path id="me5de74d44a" d="M 0 0 
L -1 0 
" style="stroke: #777777; stroke-width: 0.5"/>
      </defs>
      <g>
       <use xlink:href="#me5de74d44a" x="10.005084" y="48.355357" style="fill: #777777; stroke: #777777; stroke-width: 0.5"/>
      </g>
     </g>
     <g id="text_8">
      <!-- 0 -->
      <g style="fill: #333333" transform="translate(6.336802 49.431373) scale(0.03 -0.03)">
       <defs>
        <path id="Helvetica-30" d="M 1731 4475 
Q 2600 4475 2988 3759 
Q 3288 3206 3288 2244 
Q 3288 1331 3016 734 
Q 2622 -122 1728 -122 
Q 922 -122 528 578 
Q 200 1163 200 2147 
Q 200 2909 397 3456 
Q 766 4475 1731 4475 
z
M 1725 391 
Q 2163 391 2422 778 
Q 2681 1166 2681 2222 
Q 2681 2984 2493 3476 
Q 2306 3969 1766 3969 
Q 1269 3969 1039 3501 
Q 809 3034 809 2125 
Q 809 1441 956 1025 
Q 1181 391 1725 391 
z
" transform="scale(0.015625)"/>
       </defs>
       <use xlink:href="#Helvetica-30"/>
      </g>
     </g>
    </g>
    <g id="ytick_2">
     <g id="line2d_2">
      <g>
       <use xlink:href="#me5de74d44a" x="10.005084" y="40.975507" style="fill: #777777; stroke: #777777; stroke-width: 0.5"/>
      </g>
     </g>
     <g id="text_9">
      <!-- 20 -->
      <g style="fill: #333333" transform="translate(4.668521 42.051523) scale(0.03 -0.03)">
       <defs>
        <path id="Helvetica-32" d="M 200 0 
Q 231 578 439 1006 
Q 647 1434 1250 1784 
L 1850 2131 
Q 2253 2366 2416 2531 
Q 2672 2791 2672 3125 
Q 2672 3516 2437 3745 
Q 2203 3975 1813 3975 
Q 1234 3975 1013 3538 
Q 894 3303 881 2888 
L 309 2888 
Q 319 3472 525 3841 
Q 891 4491 1816 4491 
Q 2584 4491 2939 4075 
Q 3294 3659 3294 3150 
Q 3294 2613 2916 2231 
Q 2697 2009 2131 1694 
L 1703 1456 
Q 1397 1288 1222 1134 
Q 909 863 828 531 
L 3272 531 
L 3272 0 
L 200 0 
z
" transform="scale(0.015625)"/>
       </defs>
       <use xlink:href="#Helvetica-32"/>
       <use xlink:href="#Helvetica-30" x="55.615234"/>
      </g>
     </g>
    </g>
    <g id="ytick_3">
     <g id="line2d_3">
      <g>
       <use xlink:href="#me5de74d44a" x="10.005084" y="33.595657" style="fill: #777777; stroke: #777777; stroke-width: 0.5"/>
      </g>
     </g>
     <g id="text_10">
      <!-- 40 -->
      <g style="fill: #333333" transform="translate(4.668521 34.671672) scale(0.03 -0.03)">
       <defs>
        <path id="Helvetica-34" d="M 2116 1584 
L 2116 3613 
L 681 1584 
L 2116 1584 
z
M 2125 0 
L 2125 1094 
L 163 1094 
L 163 1644 
L 2213 4488 
L 2688 4488 
L 2688 1584 
L 3347 1584 
L 3347 1094 
L 2688 1094 
L 2688 0 
L 2125 0 
z
" transform="scale(0.015625)"/>
       </defs>
       <use xlink:href="#Helvetica-34"/>
       <use xlink:href="#Helvetica-30" x="55.615234"/>
      </g>
     </g>
    </g>
    <g id="ytick_4">
     <g id="line2d_4">
      <g>
       <use xlink:href="#me5de74d44a" x="10.005084" y="26.215806" style="fill: #777777; stroke: #777777; stroke-width: 0.5"/>
      </g>
     </g>
     <g id="text_11">
      <!-- 60 -->
      <g style="fill: #333333" transform="translate(4.668521 27.291822) scale(0.03 -0.03)">
       <defs>
        <path id="Helvetica-36" d="M 1872 4494 
Q 2622 4494 2917 4105 
Q 3213 3716 3213 3303 
L 2656 3303 
Q 2606 3569 2497 3719 
Q 2294 4000 1881 4000 
Q 1409 4000 1131 3564 
Q 853 3128 822 2316 
Q 1016 2600 1309 2741 
Q 1578 2866 1909 2866 
Q 2472 2866 2890 2506 
Q 3309 2147 3309 1434 
Q 3309 825 2912 354 
Q 2516 -116 1781 -116 
Q 1153 -116 697 361 
Q 241 838 241 1966 
Q 241 2800 444 3381 
Q 834 4494 1872 4494 
z
M 1831 384 
Q 2275 384 2495 682 
Q 2716 981 2716 1388 
Q 2716 1731 2519 2042 
Q 2322 2353 1803 2353 
Q 1441 2353 1167 2112 
Q 894 1872 894 1388 
Q 894 963 1142 673 
Q 1391 384 1831 384 
z
" transform="scale(0.015625)"/>
       </defs>
       <use xlink:href="#Helvetica-36"/>
       <use xlink:href="#Helvetica-30" x="55.615234"/>
      </g>
     </g>
    </g>
    <g id="ytick_5">
     <g id="line2d_5">
      <g>
       <use xlink:href="#me5de74d44a" x="10.005084" y="18.835956" style="fill: #777777; stroke: #777777; stroke-width: 0.5"/>
      </g>
     </g>
     <g id="text_12">
      <!-- 80 -->
      <g style="fill: #333333" transform="translate(4.668521 19.911972) scale(0.03 -0.03)">
       <defs>
        <path id="Helvetica-38" d="M 1741 2600 
Q 2113 2600 2322 2808 
Q 2531 3016 2531 3303 
Q 2531 3553 2331 3762 
Q 2131 3972 1722 3972 
Q 1316 3972 1134 3762 
Q 953 3553 953 3272 
Q 953 2956 1187 2778 
Q 1422 2600 1741 2600 
z
M 1775 384 
Q 2166 384 2423 595 
Q 2681 806 2681 1225 
Q 2681 1659 2415 1884 
Q 2150 2109 1734 2109 
Q 1331 2109 1076 1879 
Q 822 1650 822 1244 
Q 822 894 1055 639 
Q 1288 384 1775 384 
z
M 975 2384 
Q 741 2484 609 2619 
Q 363 2869 363 3269 
Q 363 3769 725 4128 
Q 1088 4488 1753 4488 
Q 2397 4488 2762 4148 
Q 3128 3809 3128 3356 
Q 3128 2938 2916 2678 
Q 2797 2531 2547 2391 
Q 2825 2263 2984 2097 
Q 3281 1784 3281 1284 
Q 3281 694 2884 283 
Q 2488 -128 1763 -128 
Q 1109 -128 657 226 
Q 206 581 206 1256 
Q 206 1653 400 1942 
Q 594 2231 975 2384 
z
" transform="scale(0.015625)"/>
       </defs>
       <use xlink:href="#Helvetica-38"/>
       <use xlink:href="#Helvetica-30" x="55.615234"/>
      </g>
     </g>
    </g>
    <g id="ytick_6">
     <g id="line2d_6">
      <g>
       <use xlink:href="#me5de74d44a" x="10.005084" y="11.456106" style="fill: #777777; stroke: #777777; stroke-width: 0.5"/>
      </g>
     </g>
     <g id="text_13">
      <!-- 100 -->
      <g style="fill: #333333" transform="translate(3.00024 12.532122) scale(0.03 -0.03)">
       <defs>
        <path id="Helvetica-31" d="M 613 3169 
L 613 3600 
Q 1222 3659 1462 3798 
Q 1703 3938 1822 4456 
L 2266 4456 
L 2266 0 
L 1666 0 
L 1666 3169 
L 613 3169 
z
" transform="scale(0.015625)"/>
       </defs>
       <use xlink:href="#Helvetica-31"/>
       <use xlink:href="#Helvetica-30" x="55.615234"/>
       <use xlink:href="#Helvetica-30" x="111.230469"/>
      </g>
     </g>
    </g>
    <g id="ytick_7">
     <g id="line2d_7">
      <g>
       <use xlink:href="#me5de74d44a" x="10.005084" y="4.076256" style="fill: #777777; stroke: #777777; stroke-width: 0.5"/>
      </g>
     </g>
     <g id="text_14">
      <!-- 120 -->
      <g style="fill: #333333" transform="translate(3.00024 5.152271) scale(0.03 -0.03)">
       <use xlink:href="#Helvetica-31"/>
       <use xlink:href="#Helvetica-32" x="55.615234"/>
       <use xlink:href="#Helvetica-30" x="111.230469"/>
      </g>
     </g>
    </g>
   </g>
   <g id="PolyCollection_1">
    <defs>
     <path id="m4731426dfd" d="M 24.411654 -37.328437 
L 22.026325 -37.328437 
L 21.713085 -37.42383 
L 21.346224 -37.519222 
L 20.924179 -37.614614 
L 20.44717 -37.710007 
L 19.917434 -37.805399 
L 19.339369 -37.900791 
L 18.719588 -37.996184 
L 18.066874 -38.091576 
L 17.392058 -38.186968 
L 16.707816 -38.282361 
L 16.028388 -38.377753 
L 15.369242 -38.473145 
L 14.746648 -38.568538 
L 14.177179 -38.66393 
L 13.677125 -38.759322 
L 13.261818 -38.854715 
L 12.944905 -38.950107 
L 12.737581 -39.045499 
L 12.647865 -39.140892 
L 12.679958 -39.236284 
L 12.833777 -39.331676 
L 13.104708 -39.427069 
L 13.483634 -39.522461 
L 13.957245 -39.617853 
L 14.50863 -39.713246 
L 15.11809 -39.808638 
L 15.764126 -39.904031 
L 16.424518 -39.999423 
L 17.077409 -40.094815 
L 17.702339 -40.190208 
L 18.281153 -40.2856 
L 18.798745 -40.380992 
L 19.243614 -40.476385 
L 19.608211 -40.571777 
L 19.889073 -40.667169 
L 20.086742 -40.762562 
L 20.205482 -40.857954 
L 20.252804 -40.953346 
L 20.238826 -41.048739 
L 20.175499 -41.144131 
L 20.075765 -41.239523 
L 19.952682 -41.334916 
L 19.818607 -41.430308 
L 19.684494 -41.5257 
L 19.559364 -41.621093 
L 19.449985 -41.716485 
L 19.360795 -41.811877 
L 19.294027 -41.90727 
L 19.250032 -42.002662 
L 19.22772 -42.098054 
L 19.225065 -42.193447 
L 19.2396 -42.288839 
L 19.268862 -42.384232 
L 19.310721 -42.479624 
L 19.363597 -42.575016 
L 19.426554 -42.670409 
L 19.499283 -42.765801 
L 19.582012 -42.861193 
L 19.675344 -42.956586 
L 19.780088 -43.051978 
L 19.89706 -43.14737 
L 20.026897 -43.242763 
L 20.169887 -43.338155 
L 20.325812 -43.433547 
L 20.49383 -43.52894 
L 20.672374 -43.624332 
L 20.859116 -43.719724 
L 21.050971 -43.815117 
L 21.244161 -43.910509 
L 21.434353 -44.005901 
L 21.616848 -44.101294 
L 21.786825 -44.196686 
L 21.939618 -44.292078 
L 22.071017 -44.387471 
L 22.177553 -44.482863 
L 22.256769 -44.578255 
L 22.307432 -44.673648 
L 22.329686 -44.76904 
L 22.32512 -44.864433 
L 22.296748 -44.959825 
L 22.248892 -45.055217 
L 22.186957 -45.15061 
L 22.117126 -45.246002 
L 22.04598 -45.341394 
L 21.98006 -45.436787 
L 21.925427 -45.532179 
L 21.88724 -45.627571 
L 21.8694 -45.722964 
L 21.874303 -45.818356 
L 21.902716 -45.913748 
L 21.953796 -46.009141 
L 22.025254 -46.104533 
L 22.113626 -46.199925 
L 22.214639 -46.295318 
L 22.323608 -46.39071 
L 22.435835 -46.486102 
L 22.546965 -46.581495 
L 22.653258 -46.676887 
L 22.751776 -46.772279 
L 23.686203 -46.772279 
L 23.686203 -46.772279 
L 23.78472 -46.676887 
L 23.891014 -46.581495 
L 24.002143 -46.486102 
L 24.114371 -46.39071 
L 24.223339 -46.295318 
L 24.324352 -46.199925 
L 24.412725 -46.104533 
L 24.484182 -46.009141 
L 24.535263 -45.913748 
L 24.563675 -45.818356 
L 24.568578 -45.722964 
L 24.550739 -45.627571 
L 24.512551 -45.532179 
L 24.457918 -45.436787 
L 24.391998 -45.341394 
L 24.320852 -45.246002 
L 24.251022 -45.15061 
L 24.189086 -45.055217 
L 24.14123 -44.959825 
L 24.112859 -44.864433 
L 24.108293 -44.76904 
L 24.130546 -44.673648 
L 24.181209 -44.578255 
L 24.260425 -44.482863 
L 24.366962 -44.387471 
L 24.49836 -44.292078 
L 24.651153 -44.196686 
L 24.82113 -44.101294 
L 25.003626 -44.005901 
L 25.193818 -43.910509 
L 25.387008 -43.815117 
L 25.578862 -43.719724 
L 25.765604 -43.624332 
L 25.944149 -43.52894 
L 26.112166 -43.433547 
L 26.268092 -43.338155 
L 26.411081 -43.242763 
L 26.540918 -43.14737 
L 26.65789 -43.051978 
L 26.762634 -42.956586 
L 26.855967 -42.861193 
L 26.938695 -42.765801 
L 27.011425 -42.670409 
L 27.074382 -42.575016 
L 27.127258 -42.479624 
L 27.169117 -42.384232 
L 27.198378 -42.288839 
L 27.212914 -42.193447 
L 27.210258 -42.098054 
L 27.187946 -42.002662 
L 27.143952 -41.90727 
L 27.077184 -41.811877 
L 26.987993 -41.716485 
L 26.878615 -41.621093 
L 26.753484 -41.5257 
L 26.619372 -41.430308 
L 26.485297 -41.334916 
L 26.362213 -41.239523 
L 26.262479 -41.144131 
L 26.199153 -41.048739 
L 26.185174 -40.953346 
L 26.232496 -40.857954 
L 26.351237 -40.762562 
L 26.548906 -40.667169 
L 26.829768 -40.571777 
L 27.194365 -40.476385 
L 27.639234 -40.380992 
L 28.156825 -40.2856 
L 28.735639 -40.190208 
L 29.36057 -40.094815 
L 30.013461 -39.999423 
L 30.673852 -39.904031 
L 31.319888 -39.808638 
L 31.929348 -39.713246 
L 32.480733 -39.617853 
L 32.954344 -39.522461 
L 33.33327 -39.427069 
L 33.604201 -39.331676 
L 33.75802 -39.236284 
L 33.790114 -39.140892 
L 33.700397 -39.045499 
L 33.493073 -38.950107 
L 33.17616 -38.854715 
L 32.760854 -38.759322 
L 32.260799 -38.66393 
L 31.691331 -38.568538 
L 31.068736 -38.473145 
L 30.40959 -38.377753 
L 29.730163 -38.282361 
L 29.04592 -38.186968 
L 28.371105 -38.091576 
L 27.718391 -37.996184 
L 27.098609 -37.900791 
L 26.520544 -37.805399 
L 25.990808 -37.710007 
L 25.513799 -37.614614 
L 25.091754 -37.519222 
L 24.724893 -37.42383 
L 24.411654 -37.328437 
z
" style="stroke: #6f6f6f; stroke-width: 0.15"/>
    </defs>
    <g clip-path="url(#p693c85a0f7)">
     <use xlink:href="#m4731426dfd" x="0" y="84.96" style="fill: #abc9ea; stroke: #6f6f6f; stroke-width: 0.15"/>
    </g>
   </g>
   <g id="PolyCollection_2">
    <defs>
     <path id="md157c2e0bb" d="M 50.35928 -36.027321 
L 48.93432 -36.027321 
L 48.740303 -36.161189 
L 48.509689 -36.295057 
L 48.239648 -36.428925 
L 47.927955 -36.562792 
L 47.57314 -36.69666 
L 47.174638 -36.830528 
L 46.73295 -36.964396 
L 46.249796 -37.098264 
L 45.728271 -37.232132 
L 45.17298 -37.366 
L 44.590123 -37.499867 
L 43.987516 -37.633735 
L 43.374511 -37.767603 
L 42.761795 -37.901471 
L 42.161064 -38.035339 
L 41.584581 -38.169207 
L 41.044641 -38.303074 
L 40.552995 -38.436942 
L 40.120266 -38.57081 
L 39.755423 -38.704678 
L 39.465344 -38.838546 
L 39.254509 -38.972414 
L 39.124838 -39.106282 
L 39.075676 -39.240149 
L 39.10393 -39.374017 
L 39.20434 -39.507885 
L 39.369862 -39.641753 
L 39.592151 -39.775621 
L 39.862104 -39.909489 
L 40.170418 -40.043357 
L 40.508146 -40.177224 
L 40.867172 -40.311092 
L 41.24058 -40.44496 
L 41.622888 -40.578828 
L 42.010105 -40.712696 
L 42.399635 -40.846564 
L 42.790038 -40.980432 
L 43.180674 -41.114299 
L 43.571299 -41.248167 
L 43.961628 -41.382035 
L 44.350941 -41.515903 
L 44.737739 -41.649771 
L 45.119488 -41.783639 
L 45.492459 -41.917507 
L 45.851676 -42.051374 
L 46.190967 -42.185242 
L 46.503139 -42.31911 
L 46.780267 -42.452978 
L 47.014107 -42.586846 
L 47.196622 -42.720714 
L 47.320618 -42.854581 
L 47.380438 -42.988449 
L 47.372694 -43.122317 
L 47.296939 -43.256185 
L 47.156221 -43.390053 
L 46.957429 -43.523921 
L 46.711346 -43.657789 
L 46.432361 -43.791656 
L 46.137807 -43.925524 
L 45.846946 -44.059392 
L 45.579662 -44.19326 
L 45.354991 -44.327128 
L 45.189613 -44.460996 
L 45.096478 -44.594864 
L 45.083739 -44.728731 
L 45.154089 -44.862599 
L 45.304612 -44.996467 
L 45.527131 -45.130335 
L 45.809031 -45.264203 
L 46.134432 -45.398071 
L 46.485575 -45.531939 
L 46.844261 -45.665806 
L 47.193199 -45.799674 
L 47.51714 -45.933542 
L 47.803718 -46.06741 
L 48.043981 -46.201278 
L 48.2326 -46.335146 
L 48.367826 -46.469014 
L 48.451219 -46.602881 
L 48.487231 -46.736749 
L 48.482686 -46.870617 
L 48.446181 -47.004485 
L 48.387466 -47.138353 
L 48.316796 -47.272221 
L 48.244284 -47.406088 
L 48.179287 -47.539956 
L 48.129854 -47.673824 
L 48.102263 -47.807692 
L 48.100695 -47.94156 
L 48.127086 -48.075428 
L 48.18114 -48.209296 
L 48.260547 -48.343163 
L 48.361341 -48.477031 
L 48.478381 -48.610899 
L 48.605891 -48.744767 
L 48.737999 -48.878635 
L 48.869218 -49.012503 
L 48.994821 -49.146371 
L 49.111099 -49.280238 
L 50.182501 -49.280238 
L 50.182501 -49.280238 
L 50.298779 -49.146371 
L 50.424382 -49.012503 
L 50.555601 -48.878635 
L 50.687709 -48.744767 
L 50.81522 -48.610899 
L 50.932259 -48.477031 
L 51.033053 -48.343163 
L 51.11246 -48.209296 
L 51.166514 -48.075428 
L 51.192905 -47.94156 
L 51.191338 -47.807692 
L 51.163746 -47.673824 
L 51.114313 -47.539956 
L 51.049317 -47.406088 
L 50.976804 -47.272221 
L 50.906134 -47.138353 
L 50.847419 -47.004485 
L 50.810915 -46.870617 
L 50.806369 -46.736749 
L 50.842382 -46.602881 
L 50.925775 -46.469014 
L 51.061 -46.335146 
L 51.24962 -46.201278 
L 51.489882 -46.06741 
L 51.77646 -45.933542 
L 52.100401 -45.799674 
L 52.449339 -45.665806 
L 52.808025 -45.531939 
L 53.159168 -45.398071 
L 53.484569 -45.264203 
L 53.766469 -45.130335 
L 53.988988 -44.996467 
L 54.139511 -44.862599 
L 54.209861 -44.728731 
L 54.197122 -44.594864 
L 54.103988 -44.460996 
L 53.938609 -44.327128 
L 53.713938 -44.19326 
L 53.446655 -44.059392 
L 53.155793 -43.925524 
L 52.861239 -43.791656 
L 52.582255 -43.657789 
L 52.336172 -43.523921 
L 52.137379 -43.390053 
L 51.996661 -43.256185 
L 51.920906 -43.122317 
L 51.913162 -42.988449 
L 51.972983 -42.854581 
L 52.096978 -42.720714 
L 52.279493 -42.586846 
L 52.513333 -42.452978 
L 52.790462 -42.31911 
L 53.102634 -42.185242 
L 53.441924 -42.051374 
L 53.801141 -41.917507 
L 54.174112 -41.783639 
L 54.555861 -41.649771 
L 54.942659 -41.515903 
L 55.331972 -41.382035 
L 55.722302 -41.248167 
L 56.112926 -41.114299 
L 56.503563 -40.980432 
L 56.893965 -40.846564 
L 57.283495 -40.712696 
L 57.670712 -40.578828 
L 58.05302 -40.44496 
L 58.426428 -40.311092 
L 58.785454 -40.177224 
L 59.123182 -40.043357 
L 59.431497 -39.909489 
L 59.701449 -39.775621 
L 59.923738 -39.641753 
L 60.089261 -39.507885 
L 60.18967 -39.374017 
L 60.217924 -39.240149 
L 60.168762 -39.106282 
L 60.039091 -38.972414 
L 59.828256 -38.838546 
L 59.538177 -38.704678 
L 59.173334 -38.57081 
L 58.740605 -38.436942 
L 58.248959 -38.303074 
L 57.70902 -38.169207 
L 57.132536 -38.035339 
L 56.531805 -37.901471 
L 55.919089 -37.767603 
L 55.306084 -37.633735 
L 54.703478 -37.499867 
L 54.12062 -37.366 
L 53.565329 -37.232132 
L 53.043804 -37.098264 
L 52.56065 -36.964396 
L 52.118962 -36.830528 
L 51.72046 -36.69666 
L 51.365645 -36.562792 
L 51.053952 -36.428925 
L 50.783911 -36.295057 
L 50.553297 -36.161189 
L 50.35928 -36.027321 
z
" style="stroke: #6f6f6f; stroke-width: 0.15"/>
    </defs>
    <g clip-path="url(#p693c85a0f7)">
     <use xlink:href="#md157c2e0bb" x="0" y="84.96" style="fill: #efb792; stroke: #6f6f6f; stroke-width: 0.15"/>
    </g>
   </g>
   <g id="PolyCollection_3">
    <defs>
     <path id="m77f1a3a071" d="M 76.886878 -37.616713 
L 75.262344 -37.616713 
L 74.998838 -37.804435 
L 74.67384 -37.992157 
L 74.280975 -38.179879 
L 73.815646 -38.367601 
L 73.27583 -38.555322 
L 72.662863 -38.743044 
L 71.982128 -38.930766 
L 71.243581 -39.118488 
L 70.461996 -39.30621 
L 69.656871 -39.493931 
L 68.851924 -39.681653 
L 68.07415 -39.869375 
L 67.352465 -40.057097 
L 66.716002 -40.244819 
L 66.192172 -40.432541 
L 65.804649 -40.620262 
L 65.571476 -40.807984 
L 65.503487 -40.995706 
L 65.603219 -41.183428 
L 65.864483 -41.37115 
L 66.272639 -41.558871 
L 66.805616 -41.746593 
L 67.435555 -41.934315 
L 68.130941 -42.122037 
L 68.858979 -42.309759 
L 69.587968 -42.497481 
L 70.289433 -42.685202 
L 70.93978 -42.872924 
L 71.521371 -43.060646 
L 72.022944 -43.248368 
L 72.439436 -43.43609 
L 72.771315 -43.623811 
L 73.023584 -43.811533 
L 73.204637 -43.999255 
L 73.325115 -44.186977 
L 73.396887 -44.374699 
L 73.432203 -44.562421 
L 73.443034 -44.750142 
L 73.440566 -44.937864 
L 73.434796 -45.125586 
L 73.434201 -45.313308 
L 73.445442 -45.50103 
L 73.473126 -45.688751 
L 73.519654 -45.876473 
L 73.585196 -46.064195 
L 73.667852 -46.251917 
L 73.764006 -46.439639 
L 73.86886 -46.627361 
L 73.977115 -46.815082 
L 74.0837 -47.002804 
L 74.184454 -47.190526 
L 74.276662 -47.378248 
L 74.359354 -47.56597 
L 74.43334 -47.753691 
L 74.500961 -47.941413 
L 74.56562 -48.129135 
L 74.631169 -48.316857 
L 74.701258 -48.504579 
L 74.778753 -48.692301 
L 74.865315 -48.880022 
L 74.961185 -49.067744 
L 75.065197 -49.255466 
L 75.174989 -49.443188 
L 75.287365 -49.63091 
L 75.398717 -49.818631 
L 75.505448 -50.006353 
L 75.604322 -50.194075 
L 75.692706 -50.381797 
L 75.768677 -50.569519 
L 75.831002 -50.75724 
L 75.879034 -50.944962 
L 75.912537 -51.132684 
L 75.931509 -51.320406 
L 75.93602 -51.508128 
L 75.926122 -51.69585 
L 75.901829 -51.883571 
L 75.863185 -52.071293 
L 75.81041 -52.259015 
L 75.744095 -52.446737 
L 75.665418 -52.634459 
L 75.576332 -52.82218 
L 75.47969 -53.009902 
L 75.379259 -53.197624 
L 75.279608 -53.385346 
L 75.185852 -53.573068 
L 75.103277 -53.76079 
L 75.036886 -53.948511 
L 74.990922 -54.136233 
L 74.96843 -54.323955 
L 74.970934 -54.511677 
L 74.998269 -54.699399 
L 75.048607 -54.88712 
L 75.118654 -55.074842 
L 75.204013 -55.262564 
L 75.299637 -55.450286 
L 75.400322 -55.638008 
L 75.501161 -55.82573 
L 75.597923 -56.013451 
L 75.687297 -56.201173 
L 76.461925 -56.201173 
L 76.461925 -56.201173 
L 76.551299 -56.013451 
L 76.648061 -55.82573 
L 76.7489 -55.638008 
L 76.849585 -55.450286 
L 76.945209 -55.262564 
L 77.030568 -55.074842 
L 77.100615 -54.88712 
L 77.150953 -54.699399 
L 77.178288 -54.511677 
L 77.180792 -54.323955 
L 77.1583 -54.136233 
L 77.112336 -53.948511 
L 77.045945 -53.76079 
L 76.96337 -53.573068 
L 76.869614 -53.385346 
L 76.769963 -53.197624 
L 76.669532 -53.009902 
L 76.57289 -52.82218 
L 76.483804 -52.634459 
L 76.405127 -52.446737 
L 76.338812 -52.259015 
L 76.286037 -52.071293 
L 76.247393 -51.883571 
L 76.2231 -51.69585 
L 76.213202 -51.508128 
L 76.217713 -51.320406 
L 76.236685 -51.132684 
L 76.270188 -50.944962 
L 76.31822 -50.75724 
L 76.380545 -50.569519 
L 76.456516 -50.381797 
L 76.5449 -50.194075 
L 76.643774 -50.006353 
L 76.750505 -49.818631 
L 76.861857 -49.63091 
L 76.974233 -49.443188 
L 77.084025 -49.255466 
L 77.188037 -49.067744 
L 77.283907 -48.880022 
L 77.370469 -48.692301 
L 77.447964 -48.504579 
L 77.518053 -48.316857 
L 77.583602 -48.129135 
L 77.648261 -47.941413 
L 77.715882 -47.753691 
L 77.789868 -47.56597 
L 77.87256 -47.378248 
L 77.964768 -47.190526 
L 78.065522 -47.002804 
L 78.172107 -46.815082 
L 78.280362 -46.627361 
L 78.385216 -46.439639 
L 78.481369 -46.251917 
L 78.564026 -46.064195 
L 78.629568 -45.876473 
L 78.676096 -45.688751 
L 78.70378 -45.50103 
L 78.715021 -45.313308 
L 78.714426 -45.125586 
L 78.708656 -44.937864 
L 78.706188 -44.750142 
L 78.717019 -44.562421 
L 78.752335 -44.374699 
L 78.824107 -44.186977 
L 78.944585 -43.999255 
L 79.125638 -43.811533 
L 79.377907 -43.623811 
L 79.709786 -43.43609 
L 80.126278 -43.248368 
L 80.627851 -43.060646 
L 81.209442 -42.872924 
L 81.859789 -42.685202 
L 82.561254 -42.497481 
L 83.290243 -42.309759 
L 84.018281 -42.122037 
L 84.713667 -41.934315 
L 85.343606 -41.746593 
L 85.876583 -41.558871 
L 86.284739 -41.37115 
L 86.546003 -41.183428 
L 86.645735 -40.995706 
L 86.577746 -40.807984 
L 86.344573 -40.620262 
L 85.95705 -40.432541 
L 85.43322 -40.244819 
L 84.796757 -40.057097 
L 84.075072 -39.869375 
L 83.297298 -39.681653 
L 82.492351 -39.493931 
L 81.687226 -39.30621 
L 80.905641 -39.118488 
L 80.167094 -38.930766 
L 79.486359 -38.743044 
L 78.873392 -38.555322 
L 78.333576 -38.367601 
L 77.868247 -38.179879 
L 77.475382 -37.992157 
L 77.150384 -37.804435 
L 76.886878 -37.616713 
z
" style="stroke: #6f6f6f; stroke-width: 0.15"/>
    </defs>
    <g clip-path="url(#p693c85a0f7)">
     <use xlink:href="#m77f1a3a071" x="0" y="84.96" style="fill: #98daa7; stroke: #6f6f6f; stroke-width: 0.15"/>
    </g>
   </g>
   <g id="PolyCollection_4">
    <defs>
     <path id="m97ef55a21a" d="M 104.859536 -36.505577 
L 100.145307 -36.505577 
L 99.736851 -36.512942 
L 99.28755 -36.520308 
L 98.79962 -36.527673 
L 98.276706 -36.535038 
L 97.723947 -36.542404 
L 97.147964 -36.549769 
L 96.556776 -36.557134 
L 95.959646 -36.5645 
L 95.366839 -36.571865 
L 94.789318 -36.579231 
L 94.238377 -36.586596 
L 93.725241 -36.593961 
L 93.260629 -36.601327 
L 92.854342 -36.608692 
L 92.514857 -36.616057 
L 92.248991 -36.623423 
L 92.061628 -36.630788 
L 91.955537 -36.638154 
L 91.931298 -36.645519 
L 91.987322 -36.652884 
L 92.11999 -36.66025 
L 92.323869 -36.667615 
L 92.592012 -36.67498 
L 92.916315 -36.682346 
L 93.287906 -36.689711 
L 93.697537 -36.697077 
L 94.135961 -36.704442 
L 94.594277 -36.711807 
L 95.064207 -36.719173 
L 95.53832 -36.726538 
L 96.01017 -36.733903 
L 96.474371 -36.741269 
L 96.926599 -36.748634 
L 97.363533 -36.756 
L 97.782758 -36.763365 
L 98.182631 -36.77073 
L 98.562129 -36.778096 
L 98.920697 -36.785461 
L 99.258105 -36.792826 
L 99.574317 -36.800192 
L 99.869392 -36.807557 
L 100.143398 -36.814923 
L 100.396369 -36.822288 
L 100.628269 -36.829653 
L 100.838988 -36.837019 
L 101.028346 -36.844384 
L 101.196115 -36.851749 
L 101.342038 -36.859115 
L 101.465861 -36.86648 
L 101.567358 -36.873846 
L 101.646355 -36.881211 
L 101.70276 -36.888576 
L 101.736579 -36.895942 
L 101.747943 -36.903307 
L 101.737125 -36.910672 
L 101.704567 -36.918038 
L 101.650894 -36.925403 
L 101.576946 -36.932769 
L 101.483786 -36.940134 
L 101.372728 -36.947499 
L 101.24534 -36.954865 
L 101.103456 -36.96223 
L 100.949167 -36.969595 
L 100.784808 -36.976961 
L 100.612935 -36.984326 
L 100.436289 -36.991692 
L 100.257748 -36.999057 
L 100.080277 -37.006422 
L 99.906868 -37.013788 
L 99.740477 -37.021153 
L 99.583965 -37.028518 
L 99.440032 -37.035884 
L 99.31117 -37.043249 
L 99.199609 -37.050615 
L 99.107277 -37.05798 
L 99.035768 -37.065345 
L 98.986315 -37.072711 
L 98.95977 -37.080076 
L 98.956596 -37.087441 
L 98.976861 -37.094807 
L 99.020233 -37.102172 
L 99.085996 -37.109538 
L 99.173053 -37.116903 
L 99.279952 -37.124268 
L 99.404913 -37.131634 
L 99.54586 -37.138999 
L 99.700469 -37.146364 
L 99.866219 -37.15373 
L 100.040451 -37.161095 
L 100.220438 -37.168461 
L 100.40345 -37.175826 
L 100.586827 -37.183191 
L 100.768047 -37.190557 
L 100.944792 -37.197922 
L 101.114994 -37.205287 
L 101.276888 -37.212653 
L 101.429036 -37.220018 
L 101.570345 -37.227384 
L 101.700068 -37.234749 
L 103.304776 -37.234749 
L 103.304776 -37.234749 
L 103.434499 -37.227384 
L 103.575808 -37.220018 
L 103.727956 -37.212653 
L 103.88985 -37.205287 
L 104.060052 -37.197922 
L 104.236796 -37.190557 
L 104.418017 -37.183191 
L 104.601394 -37.175826 
L 104.784406 -37.168461 
L 104.964393 -37.161095 
L 105.138625 -37.15373 
L 105.304375 -37.146364 
L 105.458984 -37.138999 
L 105.599931 -37.131634 
L 105.724891 -37.124268 
L 105.831791 -37.116903 
L 105.918848 -37.109538 
L 105.98461 -37.102172 
L 106.027983 -37.094807 
L 106.048247 -37.087441 
L 106.045074 -37.080076 
L 106.018529 -37.072711 
L 105.969075 -37.065345 
L 105.897567 -37.05798 
L 105.805235 -37.050615 
L 105.693674 -37.043249 
L 105.564812 -37.035884 
L 105.420879 -37.028518 
L 105.264366 -37.021153 
L 105.097976 -37.013788 
L 104.924567 -37.006422 
L 104.747096 -36.999057 
L 104.568555 -36.991692 
L 104.391909 -36.984326 
L 104.220036 -36.976961 
L 104.055677 -36.969595 
L 103.901387 -36.96223 
L 103.759503 -36.954865 
L 103.632116 -36.947499 
L 103.521058 -36.940134 
L 103.427898 -36.932769 
L 103.353949 -36.925403 
L 103.300277 -36.918038 
L 103.267718 -36.910672 
L 103.256901 -36.903307 
L 103.268264 -36.895942 
L 103.302084 -36.888576 
L 103.358489 -36.881211 
L 103.437486 -36.873846 
L 103.538983 -36.86648 
L 103.662806 -36.859115 
L 103.808729 -36.851749 
L 103.976497 -36.844384 
L 104.165856 -36.837019 
L 104.376574 -36.829653 
L 104.608475 -36.822288 
L 104.861446 -36.814923 
L 105.135452 -36.807557 
L 105.430526 -36.800192 
L 105.746739 -36.792826 
L 106.084147 -36.785461 
L 106.442715 -36.778096 
L 106.822213 -36.77073 
L 107.222086 -36.763365 
L 107.641311 -36.756 
L 108.078245 -36.748634 
L 108.530472 -36.741269 
L 108.994674 -36.733903 
L 109.466524 -36.726538 
L 109.940636 -36.719173 
L 110.410567 -36.711807 
L 110.868882 -36.704442 
L 111.307307 -36.697077 
L 111.716937 -36.689711 
L 112.088528 -36.682346 
L 112.412832 -36.67498 
L 112.680975 -36.667615 
L 112.884853 -36.66025 
L 113.017522 -36.652884 
L 113.073546 -36.645519 
L 113.049306 -36.638154 
L 112.943215 -36.630788 
L 112.755852 -36.623423 
L 112.489987 -36.616057 
L 112.150502 -36.608692 
L 111.744215 -36.601327 
L 111.279603 -36.593961 
L 110.766466 -36.586596 
L 110.215526 -36.579231 
L 109.638004 -36.571865 
L 109.045197 -36.5645 
L 108.448067 -36.557134 
L 107.85688 -36.549769 
L 107.280897 -36.542404 
L 106.728138 -36.535038 
L 106.205224 -36.527673 
L 105.717293 -36.520308 
L 105.267993 -36.512942 
L 104.859536 -36.505577 
z
" style="stroke: #6f6f6f; stroke-width: 0.15"/>
    </defs>
    <g clip-path="url(#p693c85a0f7)">
     <use xlink:href="#m97ef55a21a" x="0" y="84.96" style="fill: #f2aba8; stroke: #6f6f6f; stroke-width: 0.15"/>
    </g>
   </g>
   <g id="PolyCollection_5">
    <defs>
     <path id="m3cc7fb3cb3" d="M 130.39964 -35.877451 
L 127.460825 -35.877451 
L 127.141134 -35.937035 
L 126.774334 -35.996619 
L 126.359035 -36.056203 
L 125.895203 -36.115786 
L 125.384423 -36.17537 
L 124.830129 -36.234954 
L 124.237777 -36.294538 
L 123.614925 -36.354122 
L 122.971226 -36.413706 
L 122.318279 -36.47329 
L 121.66937 -36.532874 
L 121.03907 -36.592458 
L 120.442715 -36.652042 
L 119.895779 -36.711626 
L 119.413178 -36.77121 
L 119.008542 -36.830794 
L 118.693494 -36.890378 
L 118.476995 -36.949962 
L 118.364808 -37.009546 
L 118.359108 -37.06913 
L 118.458294 -37.128714 
L 118.657004 -37.188298 
L 118.946357 -37.247881 
L 119.3144 -37.307465 
L 119.746723 -37.367049 
L 120.227227 -37.426633 
L 120.738953 -37.486217 
L 121.264947 -37.545801 
L 121.789084 -37.605385 
L 122.296788 -37.664969 
L 122.775629 -37.724553 
L 123.215736 -37.784137 
L 123.610032 -37.843721 
L 123.954275 -37.903305 
L 124.246937 -37.962889 
L 124.488931 -38.022473 
L 124.683238 -38.082057 
L 124.834463 -38.141641 
L 124.948374 -38.201225 
L 125.031444 -38.260809 
L 125.090446 -38.320393 
L 125.132106 -38.379977 
L 125.162831 -38.43956 
L 125.188515 -38.499144 
L 125.214415 -38.558728 
L 125.24508 -38.618312 
L 125.284328 -38.677896 
L 125.335243 -38.73748 
L 125.400193 -38.797064 
L 125.48084 -38.856648 
L 125.578158 -38.916232 
L 125.692441 -38.975816 
L 125.823312 -39.0354 
L 125.969739 -39.094984 
L 126.130064 -39.154568 
L 126.30204 -39.214152 
L 126.482901 -39.273736 
L 126.669445 -39.33332 
L 126.858143 -39.392904 
L 127.045258 -39.452488 
L 127.226971 -39.512072 
L 127.399519 -39.571656 
L 127.559311 -39.631239 
L 127.703042 -39.690823 
L 127.827788 -39.750407 
L 127.931081 -39.809991 
L 128.010968 -39.869575 
L 128.066055 -39.929159 
L 128.09554 -39.988743 
L 128.099237 -40.048327 
L 128.077594 -40.107911 
L 128.031706 -40.167495 
L 127.963317 -40.227079 
L 127.874822 -40.286663 
L 127.769238 -40.346247 
L 127.650172 -40.405831 
L 127.521745 -40.465415 
L 127.388496 -40.524999 
L 127.255252 -40.584583 
L 127.126962 -40.644167 
L 127.008513 -40.703751 
L 126.904527 -40.763334 
L 126.819157 -40.822918 
L 126.755888 -40.882502 
L 126.717375 -40.942086 
L 126.705308 -41.00167 
L 126.720341 -41.061254 
L 126.762067 -41.120838 
L 126.829065 -41.180422 
L 126.918995 -41.240006 
L 127.028751 -41.29959 
L 127.154647 -41.359174 
L 127.292631 -41.418758 
L 127.438506 -41.478342 
L 127.588137 -41.537926 
L 127.737647 -41.59751 
L 127.88357 -41.657094 
L 128.022966 -41.716678 
L 128.153497 -41.776262 
L 129.706968 -41.776262 
L 129.706968 -41.776262 
L 129.837499 -41.716678 
L 129.976896 -41.657094 
L 130.122818 -41.59751 
L 130.272328 -41.537926 
L 130.42196 -41.478342 
L 130.567834 -41.418758 
L 130.705819 -41.359174 
L 130.831715 -41.29959 
L 130.941471 -41.240006 
L 131.0314 -41.180422 
L 131.098398 -41.120838 
L 131.140125 -41.061254 
L 131.155157 -41.00167 
L 131.143091 -40.942086 
L 131.104577 -40.882502 
L 131.041309 -40.822918 
L 130.955938 -40.763334 
L 130.851953 -40.703751 
L 130.733504 -40.644167 
L 130.605214 -40.584583 
L 130.471969 -40.524999 
L 130.338721 -40.465415 
L 130.210294 -40.405831 
L 130.091227 -40.346247 
L 129.985644 -40.286663 
L 129.897148 -40.227079 
L 129.82876 -40.167495 
L 129.782871 -40.107911 
L 129.761229 -40.048327 
L 129.764926 -39.988743 
L 129.794411 -39.929159 
L 129.849498 -39.869575 
L 129.929384 -39.809991 
L 130.032677 -39.750407 
L 130.157423 -39.690823 
L 130.301155 -39.631239 
L 130.460947 -39.571656 
L 130.633494 -39.512072 
L 130.815208 -39.452488 
L 131.002322 -39.392904 
L 131.19102 -39.33332 
L 131.377565 -39.273736 
L 131.558426 -39.214152 
L 131.730402 -39.154568 
L 131.890726 -39.094984 
L 132.037154 -39.0354 
L 132.168025 -38.975816 
L 132.282307 -38.916232 
L 132.379625 -38.856648 
L 132.460273 -38.797064 
L 132.525222 -38.73748 
L 132.576138 -38.677896 
L 132.615385 -38.618312 
L 132.64605 -38.558728 
L 132.67195 -38.499144 
L 132.697634 -38.43956 
L 132.728359 -38.379977 
L 132.770019 -38.320393 
L 132.829022 -38.260809 
L 132.912092 -38.201225 
L 133.026002 -38.141641 
L 133.177228 -38.082057 
L 133.371534 -38.022473 
L 133.613528 -37.962889 
L 133.90619 -37.903305 
L 134.250434 -37.843721 
L 134.644729 -37.784137 
L 135.084837 -37.724553 
L 135.563678 -37.664969 
L 136.071382 -37.605385 
L 136.595518 -37.545801 
L 137.121513 -37.486217 
L 137.633239 -37.426633 
L 138.113742 -37.367049 
L 138.546066 -37.307465 
L 138.914108 -37.247881 
L 139.203462 -37.188298 
L 139.402172 -37.128714 
L 139.501357 -37.06913 
L 139.495658 -37.009546 
L 139.383471 -36.949962 
L 139.166972 -36.890378 
L 138.851923 -36.830794 
L 138.447287 -36.77121 
L 137.964687 -36.711626 
L 137.41775 -36.652042 
L 136.821395 -36.592458 
L 136.191096 -36.532874 
L 135.542187 -36.47329 
L 134.88924 -36.413706 
L 134.24554 -36.354122 
L 133.622689 -36.294538 
L 133.030336 -36.234954 
L 132.476042 -36.17537 
L 131.965262 -36.115786 
L 131.501431 -36.056203 
L 131.086132 -35.996619 
L 130.719331 -35.937035 
L 130.39964 -35.877451 
z
" style="stroke: #6f6f6f; stroke-width: 0.15"/>
    </defs>
    <g clip-path="url(#p693c85a0f7)">
     <use xlink:href="#m3cc7fb3cb3" x="0" y="84.96" style="fill: #d3c4f6; stroke: #6f6f6f; stroke-width: 0.15"/>
    </g>
   </g>
   <g id="PolyCollection_6">
    <defs>
     <path id="m3d295f75b8" d="M 156.717733 -36.606663 
L 153.998354 -36.606663 
L 153.749393 -36.639349 
L 153.475823 -36.672034 
L 153.179642 -36.704719 
L 152.863786 -36.737405 
L 152.532105 -36.77009 
L 152.189279 -36.802775 
L 151.840698 -36.835461 
L 151.49229 -36.868146 
L 151.150325 -36.900831 
L 150.821189 -36.933517 
L 150.511162 -36.966202 
L 150.226185 -36.998887 
L 149.971654 -37.031573 
L 149.752225 -37.064258 
L 149.571648 -37.096944 
L 149.432623 -37.129629 
L 149.336687 -37.162314 
L 149.284116 -37.195 
L 149.273855 -37.227685 
L 149.303473 -37.26037 
L 149.36914 -37.293056 
L 149.465644 -37.325741 
L 149.586453 -37.358426 
L 149.723822 -37.391112 
L 149.868976 -37.423797 
L 150.012357 -37.456482 
L 150.143942 -37.489168 
L 150.253631 -37.521853 
L 150.331688 -37.554538 
L 150.369211 -37.587224 
L 150.358608 -37.619909 
L 150.294043 -37.652594 
L 150.17182 -37.68528 
L 149.990664 -37.717965 
L 149.751872 -37.75065 
L 149.459329 -37.783336 
L 149.119346 -37.816021 
L 148.740366 -37.848707 
L 148.332518 -37.881392 
L 147.907078 -37.914077 
L 147.475862 -37.946763 
L 147.0506 -37.979448 
L 146.642348 -38.012133 
L 146.260973 -38.044819 
L 145.914763 -38.077504 
L 145.61016 -38.110189 
L 145.351668 -38.142875 
L 145.141885 -38.17556 
L 144.981675 -38.208245 
L 144.870428 -38.240931 
L 144.806375 -38.273616 
L 144.786919 -38.306301 
L 144.80894 -38.338987 
L 144.869039 -38.371672 
L 144.963716 -38.404357 
L 145.08946 -38.437043 
L 145.242767 -38.469728 
L 145.4201 -38.502414 
L 145.617819 -38.535099 
L 145.832106 -38.567784 
L 146.058914 -38.60047 
L 146.293965 -38.633155 
L 146.532794 -38.66584 
L 146.770868 -38.698526 
L 147.003745 -38.731211 
L 147.227276 -38.763896 
L 147.43782 -38.796582 
L 147.632452 -38.829267 
L 147.809135 -38.861952 
L 147.966847 -38.894638 
L 148.105648 -38.927323 
L 148.226673 -38.960008 
L 148.332072 -38.992694 
L 148.424884 -39.025379 
L 148.508881 -39.058064 
L 148.588368 -39.09075 
L 148.667981 -39.123435 
L 148.75247 -39.15612 
L 148.846493 -39.188806 
L 148.95442 -39.221491 
L 149.080147 -39.254177 
L 149.22694 -39.286862 
L 149.397289 -39.319547 
L 149.592793 -39.352233 
L 149.814079 -39.384918 
L 150.060748 -39.417603 
L 150.33137 -39.450289 
L 150.623528 -39.482974 
L 150.933898 -39.515659 
L 151.258394 -39.548345 
L 151.59234 -39.58103 
L 151.93068 -39.613715 
L 152.268216 -39.646401 
L 152.599835 -39.679086 
L 152.92074 -39.711771 
L 153.226645 -39.744457 
L 153.513936 -39.777142 
L 153.779782 -39.809827 
L 154.022196 -39.842513 
L 156.693891 -39.842513 
L 156.693891 -39.842513 
L 156.936305 -39.809827 
L 157.202152 -39.777142 
L 157.489443 -39.744457 
L 157.795347 -39.711771 
L 158.116252 -39.679086 
L 158.447871 -39.646401 
L 158.785407 -39.613715 
L 159.123748 -39.58103 
L 159.457693 -39.548345 
L 159.782189 -39.515659 
L 160.09256 -39.482974 
L 160.384717 -39.450289 
L 160.65534 -39.417603 
L 160.902008 -39.384918 
L 161.123294 -39.352233 
L 161.318799 -39.319547 
L 161.489148 -39.286862 
L 161.635941 -39.254177 
L 161.761668 -39.221491 
L 161.869594 -39.188806 
L 161.963617 -39.15612 
L 162.048106 -39.123435 
L 162.127719 -39.09075 
L 162.207207 -39.058064 
L 162.291203 -39.025379 
L 162.384016 -38.992694 
L 162.489414 -38.960008 
L 162.610439 -38.927323 
L 162.74924 -38.894638 
L 162.906953 -38.861952 
L 163.083635 -38.829267 
L 163.278267 -38.796582 
L 163.488811 -38.763896 
L 163.712342 -38.731211 
L 163.945219 -38.698526 
L 164.183293 -38.66584 
L 164.422122 -38.633155 
L 164.657173 -38.60047 
L 164.883982 -38.567784 
L 165.098268 -38.535099 
L 165.295987 -38.502414 
L 165.47332 -38.469728 
L 165.626627 -38.437043 
L 165.752371 -38.404357 
L 165.847049 -38.371672 
L 165.907148 -38.338987 
L 165.929168 -38.306301 
L 165.909712 -38.273616 
L 165.845659 -38.240931 
L 165.734412 -38.208245 
L 165.574202 -38.17556 
L 165.364419 -38.142875 
L 165.105927 -38.110189 
L 164.801325 -38.077504 
L 164.455114 -38.044819 
L 164.07374 -38.012133 
L 163.665487 -37.979448 
L 163.240225 -37.946763 
L 162.809009 -37.914077 
L 162.383569 -37.881392 
L 161.975722 -37.848707 
L 161.596741 -37.816021 
L 161.256759 -37.783336 
L 160.964215 -37.75065 
L 160.725424 -37.717965 
L 160.544267 -37.68528 
L 160.422044 -37.652594 
L 160.35748 -37.619909 
L 160.346876 -37.587224 
L 160.384399 -37.554538 
L 160.462456 -37.521853 
L 160.572146 -37.489168 
L 160.703731 -37.456482 
L 160.847111 -37.423797 
L 160.992265 -37.391112 
L 161.129634 -37.358426 
L 161.250443 -37.325741 
L 161.346948 -37.293056 
L 161.412615 -37.26037 
L 161.442232 -37.227685 
L 161.431972 -37.195 
L 161.3794 -37.162314 
L 161.283464 -37.129629 
L 161.14444 -37.096944 
L 160.963862 -37.064258 
L 160.744433 -37.031573 
L 160.489902 -36.998887 
L 160.204926 -36.966202 
L 159.894898 -36.933517 
L 159.565763 -36.900831 
L 159.223797 -36.868146 
L 158.875389 -36.835461 
L 158.526808 -36.802775 
L 158.183982 -36.77009 
L 157.852301 -36.737405 
L 157.536445 -36.704719 
L 157.240264 -36.672034 
L 156.966694 -36.639349 
L 156.717733 -36.606663 
z
" style="stroke: #6f6f6f; stroke-width: 0.15"/>
    </defs>
    <g clip-path="url(#p693c85a0f7)">
     <use xlink:href="#m3d295f75b8" x="0" y="84.96" style="fill: #cfcfcf; stroke: #6f6f6f; stroke-width: 0.15"/>
    </g>
   </g>
   <g id="PolyCollection_7">
    <defs>
     <path id="m6bdb93ad72" d="M 182.658702 -43.134258 
L 180.913007 -43.134258 
L 180.766684 -43.435731 
L 180.610414 -43.737203 
L 180.446787 -44.038676 
L 180.27905 -44.340148 
L 180.11103 -44.64162 
L 179.946996 -44.943093 
L 179.791486 -45.244565 
L 179.649087 -45.546038 
L 179.524198 -45.84751 
L 179.420771 -46.148982 
L 179.342073 -46.450455 
L 179.290462 -46.751927 
L 179.267213 -47.0534 
L 179.272396 -47.354872 
L 179.304825 -47.656345 
L 179.362075 -47.957817 
L 179.440572 -48.259289 
L 179.535745 -48.560762 
L 179.642236 -48.862234 
L 179.754148 -49.163707 
L 179.865317 -49.465179 
L 179.969594 -49.766651 
L 180.061114 -50.068124 
L 180.134551 -50.369596 
L 180.18533 -50.671069 
L 180.209808 -50.972541 
L 180.205398 -51.274014 
L 180.170648 -51.575486 
L 180.105271 -51.876958 
L 180.010126 -52.178431 
L 179.887148 -52.479903 
L 179.739247 -52.781376 
L 179.570167 -53.082848 
L 179.384318 -53.38432 
L 179.186592 -53.685793 
L 178.982168 -53.987265 
L 178.776311 -54.288738 
L 178.574186 -54.59021 
L 178.380681 -54.891682 
L 178.200245 -55.193155 
L 178.036762 -55.494627 
L 177.893433 -55.7961 
L 177.772692 -56.097572 
L 177.676131 -56.399045 
L 177.604451 -56.700517 
L 177.55741 -57.001989 
L 177.533791 -57.303462 
L 177.531376 -57.604934 
L 177.546931 -57.906407 
L 177.576211 -58.207879 
L 177.613993 -58.509351 
L 177.65415 -58.810824 
L 177.689774 -59.112296 
L 177.713357 -59.413769 
L 177.717041 -59.715241 
L 177.692922 -60.016714 
L 177.633416 -60.318186 
L 177.531663 -60.619658 
L 177.381948 -60.921131 
L 177.180113 -61.222603 
L 176.923926 -61.524076 
L 176.613382 -61.825548 
L 176.250898 -62.12702 
L 175.841391 -62.428493 
L 175.392204 -62.729965 
L 174.912909 -63.031438 
L 174.414953 -63.33291 
L 173.911205 -63.634382 
L 173.415404 -63.935855 
L 172.94156 -64.237327 
L 172.503343 -64.5388 
L 172.113499 -64.840272 
L 171.783331 -65.141745 
L 171.52228 -65.443217 
L 171.337616 -65.744689 
L 171.23426 -66.046162 
L 171.21473 -66.347634 
L 171.2792 -66.649107 
L 171.425658 -66.950579 
L 171.650134 -67.252051 
L 171.946986 -67.553524 
L 172.309196 -67.854996 
L 172.728694 -68.156469 
L 173.196651 -68.457941 
L 173.703765 -68.759414 
L 174.240524 -69.060886 
L 174.797436 -69.362358 
L 175.36524 -69.663831 
L 175.935097 -69.965303 
L 176.498755 -70.266776 
L 177.0487 -70.568248 
L 177.578281 -70.86972 
L 178.081817 -71.171193 
L 178.554668 -71.472665 
L 178.993282 -71.774138 
L 179.395205 -72.07561 
L 179.759051 -72.377082 
L 180.084441 -72.678555 
L 180.371913 -72.980027 
L 183.199796 -72.980027 
L 183.199796 -72.980027 
L 183.487268 -72.678555 
L 183.812658 -72.377082 
L 184.176504 -72.07561 
L 184.578427 -71.774138 
L 185.017041 -71.472665 
L 185.489892 -71.171193 
L 185.993428 -70.86972 
L 186.523009 -70.568248 
L 187.072954 -70.266776 
L 187.636612 -69.965303 
L 188.206469 -69.663831 
L 188.774274 -69.362358 
L 189.331185 -69.060886 
L 189.867944 -68.759414 
L 190.375058 -68.457941 
L 190.843015 -68.156469 
L 191.262513 -67.854996 
L 191.624724 -67.553524 
L 191.921575 -67.252051 
L 192.146051 -66.950579 
L 192.292509 -66.649107 
L 192.356979 -66.347634 
L 192.337449 -66.046162 
L 192.234093 -65.744689 
L 192.049429 -65.443217 
L 191.788378 -65.141745 
L 191.45821 -64.840272 
L 191.068366 -64.5388 
L 190.630149 -64.237327 
L 190.156305 -63.935855 
L 189.660504 -63.634382 
L 189.156756 -63.33291 
L 188.6588 -63.031438 
L 188.179505 -62.729965 
L 187.730319 -62.428493 
L 187.320811 -62.12702 
L 186.958327 -61.825548 
L 186.647783 -61.524076 
L 186.391596 -61.222603 
L 186.189761 -60.921131 
L 186.040046 -60.619658 
L 185.938293 -60.318186 
L 185.878787 -60.016714 
L 185.854668 -59.715241 
L 185.858352 -59.413769 
L 185.881936 -59.112296 
L 185.917559 -58.810824 
L 185.957716 -58.509351 
L 185.995498 -58.207879 
L 186.024778 -57.906407 
L 186.040333 -57.604934 
L 186.037918 -57.303462 
L 186.0143 -57.001989 
L 185.967258 -56.700517 
L 185.895578 -56.399045 
L 185.799017 -56.097572 
L 185.678276 -55.7961 
L 185.534947 -55.494627 
L 185.371464 -55.193155 
L 185.191029 -54.891682 
L 184.997523 -54.59021 
L 184.795398 -54.288738 
L 184.589541 -53.987265 
L 184.385117 -53.685793 
L 184.187391 -53.38432 
L 184.001542 -53.082848 
L 183.832462 -52.781376 
L 183.684561 -52.479903 
L 183.561583 -52.178431 
L 183.466438 -51.876958 
L 183.401061 -51.575486 
L 183.366311 -51.274014 
L 183.361901 -50.972541 
L 183.386379 -50.671069 
L 183.437158 -50.369596 
L 183.510595 -50.068124 
L 183.602115 -49.766651 
L 183.706392 -49.465179 
L 183.817561 -49.163707 
L 183.929473 -48.862234 
L 184.035964 -48.560762 
L 184.131137 -48.259289 
L 184.209634 -47.957817 
L 184.266884 -47.656345 
L 184.299313 -47.354872 
L 184.304496 -47.0534 
L 184.281247 -46.751927 
L 184.229636 -46.450455 
L 184.150938 -46.148982 
L 184.047511 -45.84751 
L 183.922622 -45.546038 
L 183.780223 -45.244565 
L 183.624713 -44.943093 
L 183.460679 -44.64162 
L 183.292659 -44.340148 
L 183.124922 -44.038676 
L 182.961295 -43.737203 
L 182.805025 -43.435731 
L 182.658702 -43.134258 
z
" style="stroke: #6f6f6f; stroke-width: 0.15"/>
    </defs>
    <g clip-path="url(#p693c85a0f7)">
     <use xlink:href="#m6bdb93ad72" x="0" y="84.96" style="fill: #f3f3ae; stroke: #6f6f6f; stroke-width: 0.15"/>
    </g>
   </g>
   <g id="line2d_8">
    <path d="M 23.218989 46.633077 
L 23.218989 39.186206 
" clip-path="url(#p693c85a0f7)" style="fill: none; stroke: #8c8c8c; stroke-width: 0.75; stroke-linecap: round"/>
   </g>
   <g id="line2d_9">
    <path d="M 23.218989 45.83895 
L 23.218989 43.057769 
" clip-path="url(#p693c85a0f7)" style="fill: none; stroke: #8c8c8c; stroke-width: 4; stroke-linecap: round"/>
   </g>
   <g id="line2d_10">
    <path d="M 23.218989 45.383154 
" clip-path="url(#p693c85a0f7)" style="fill: none; stroke: #6f6f6f; stroke-width: 1.2; stroke-linecap: round"/>
    <defs>
     <path id="mb0b02ca02f" d="M 0 0.833333 
C 0.221003 0.833333 0.432983 0.745528 0.589256 0.589256 
C 0.745528 0.432983 0.833333 0.221003 0.833333 0 
C 0.833333 -0.221003 0.745528 -0.432983 0.589256 -0.589256 
C 0.432983 -0.745528 0.221003 -0.833333 0 -0.833333 
C -0.221003 -0.833333 -0.432983 -0.745528 -0.589256 -0.589256 
C -0.745528 -0.432983 -0.833333 -0.221003 -0.833333 0 
C -0.833333 0.221003 -0.745528 0.432983 -0.589256 0.589256 
C -0.432983 0.745528 -0.221003 0.833333 0 0.833333 
z
" style="stroke: #ffffff; stroke-width: 0.8"/>
    </defs>
    <g clip-path="url(#p693c85a0f7)">
     <use xlink:href="#mb0b02ca02f" x="23.218989" y="45.383154" style="fill: #ffffff; stroke: #ffffff; stroke-width: 0.8"/>
    </g>
   </g>
   <g id="line2d_11">
    <path d="M 49.6468 47.569895 
L 49.6468 37.042546 
" clip-path="url(#p693c85a0f7)" style="fill: none; stroke: #8c8c8c; stroke-width: 0.75; stroke-linecap: round"/>
   </g>
   <g id="line2d_12">
    <path d="M 49.6468 46.028705 
L 49.6468 42.280793 
" clip-path="url(#p693c85a0f7)" style="fill: none; stroke: #8c8c8c; stroke-width: 4; stroke-linecap: round"/>
   </g>
   <g id="line2d_13">
    <path d="M 49.6468 44.94288 
" clip-path="url(#p693c85a0f7)" style="fill: none; stroke: #6f6f6f; stroke-width: 1.2; stroke-linecap: round"/>
    <g clip-path="url(#p693c85a0f7)">
     <use xlink:href="#mb0b02ca02f" x="49.6468" y="44.94288" style="fill: #ffffff; stroke: #ffffff; stroke-width: 0.8"/>
    </g>
   </g>
   <g id="line2d_14">
    <path d="M 76.074611 45.541375 
L 76.074611 36.416073 
" clip-path="url(#p693c85a0f7)" style="fill: none; stroke: #8c8c8c; stroke-width: 0.75; stroke-linecap: round"/>
   </g>
   <g id="line2d_15">
    <path d="M 76.074611 44.415069 
L 76.074611 40.659153 
" clip-path="url(#p693c85a0f7)" style="fill: none; stroke: #8c8c8c; stroke-width: 4; stroke-linecap: round"/>
   </g>
   <g id="line2d_16">
    <path d="M 76.074611 43.472553 
" clip-path="url(#p693c85a0f7)" style="fill: none; stroke: #6f6f6f; stroke-width: 1.2; stroke-linecap: round"/>
    <g clip-path="url(#p693c85a0f7)">
     <use xlink:href="#mb0b02ca02f" x="76.074611" y="43.472553" style="fill: #ffffff; stroke: #ffffff; stroke-width: 0.8"/>
    </g>
   </g>
   <g id="line2d_17">
    <path d="M 102.502422 48.346918 
L 102.502422 47.832756 
" clip-path="url(#p693c85a0f7)" style="fill: none; stroke: #8c8c8c; stroke-width: 0.75; stroke-linecap: round"/>
   </g>
   <g id="line2d_18">
    <path d="M 102.502422 48.332921 
L 102.502422 48.127444 
" clip-path="url(#p693c85a0f7)" style="fill: none; stroke: #8c8c8c; stroke-width: 4; stroke-linecap: round"/>
   </g>
   <g id="line2d_19">
    <path d="M 102.502422 48.299294 
" clip-path="url(#p693c85a0f7)" style="fill: none; stroke: #6f6f6f; stroke-width: 1.2; stroke-linecap: round"/>
    <g clip-path="url(#p693c85a0f7)">
     <use xlink:href="#mb0b02ca02f" x="102.502422" y="48.299294" style="fill: #ffffff; stroke: #ffffff; stroke-width: 0.8"/>
    </g>
   </g>
   <g id="line2d_20">
    <path d="M 128.930233 48.307038 
L 128.930233 45.928244 
" clip-path="url(#p693c85a0f7)" style="fill: none; stroke: #8c8c8c; stroke-width: 0.75; stroke-linecap: round"/>
   </g>
   <g id="line2d_21">
    <path d="M 128.930233 47.869629 
L 128.930233 46.475655 
" clip-path="url(#p693c85a0f7)" style="fill: none; stroke: #8c8c8c; stroke-width: 4; stroke-linecap: round"/>
   </g>
   <g id="line2d_22">
    <path d="M 128.930233 47.80892 
" clip-path="url(#p693c85a0f7)" style="fill: none; stroke: #6f6f6f; stroke-width: 1.2; stroke-linecap: round"/>
    <g clip-path="url(#p693c85a0f7)">
     <use xlink:href="#mb0b02ca02f" x="128.930233" y="47.80892" style="fill: #ffffff; stroke: #ffffff; stroke-width: 0.8"/>
    </g>
   </g>
   <g id="line2d_23">
    <path d="M 155.358044 47.930663 
L 155.358044 45.540161 
" clip-path="url(#p693c85a0f7)" style="fill: none; stroke: #8c8c8c; stroke-width: 0.75; stroke-linecap: round"/>
   </g>
   <g id="line2d_24">
    <path d="M 155.358044 47.081108 
L 155.358044 46.223384 
" clip-path="url(#p693c85a0f7)" style="fill: none; stroke: #8c8c8c; stroke-width: 4; stroke-linecap: round"/>
   </g>
   <g id="line2d_25">
    <path d="M 155.358044 46.674695 
" clip-path="url(#p693c85a0f7)" style="fill: none; stroke: #6f6f6f; stroke-width: 1.2; stroke-linecap: round"/>
    <g clip-path="url(#p693c85a0f7)">
     <use xlink:href="#mb0b02ca02f" x="155.358044" y="46.674695" style="fill: #ffffff; stroke: #ffffff; stroke-width: 0.8"/>
    </g>
   </g>
   <g id="line2d_26">
    <path d="M 181.785855 37.891643 
L 181.785855 15.914071 
" clip-path="url(#p693c85a0f7)" style="fill: none; stroke: #8c8c8c; stroke-width: 0.75; stroke-linecap: round"/>
   </g>
   <g id="line2d_27">
    <path d="M 181.785855 27.044847 
L 181.785855 18.845563 
" clip-path="url(#p693c85a0f7)" style="fill: none; stroke: #8c8c8c; stroke-width: 4; stroke-linecap: round"/>
   </g>
   <g id="line2d_28">
    <path d="M 181.785855 19.879422 
" clip-path="url(#p693c85a0f7)" style="fill: none; stroke: #6f6f6f; stroke-width: 1.2; stroke-linecap: round"/>
    <g clip-path="url(#p693c85a0f7)">
     <use xlink:href="#mb0b02ca02f" x="181.785855" y="19.879422" style="fill: #ffffff; stroke: #ffffff; stroke-width: 0.8"/>
    </g>
   </g>
   <g id="patch_3">
    <path d="M 10.005084 54.222338 
L 10.005084 4.076256 
" style="fill: none; stroke: #777777; stroke-width: 0.5; stroke-linejoin: miter; stroke-linecap: square"/>
   </g>
   <g id="patch_4">
    <path d="M 10.005084 56.722338 
L 194.99976 56.722338 
" style="fill: none; stroke: #777777; stroke-width: 0.5; stroke-linejoin: miter; stroke-linecap: square"/>
   </g>
  </g>
 </g>
 <defs>
  <clipPath id="p693c85a0f7">
   <rect x="10.005084" y="4.076256" width="184.994676" height="50.146082"/>
  </clipPath>
 </defs>
</svg>
