<?xml version="1.0" encoding="utf-8" standalone="no"?>
<!DOCTYPE svg PUBLIC "-//W3C//DTD SVG 1.1//EN"
  "http://www.w3.org/Graphics/SVG/1.1/DTD/svg11.dtd">
<svg xmlns:xlink="http://www.w3.org/1999/xlink" width="84.96pt" height="84.96pt" viewBox="0 0 84.96 84.96" xmlns="http://www.w3.org/2000/svg" version="1.1">
 <metadata>
  <rdf:RDF xmlns:dc="http://purl.org/dc/elements/1.1/" xmlns:cc="http://creativecommons.org/ns#" xmlns:rdf="http://www.w3.org/1999/02/22-rdf-syntax-ns#">
   <cc:Work>
    <dc:type rdf:resource="http://purl.org/dc/dcmitype/StillImage"/>
    <dc:date>2024-05-27T15:37:04.110273</dc:date>
    <dc:format>image/svg+xml</dc:format>
    <dc:creator>
     <cc:Agent>
      <dc:title>Matplotlib v3.8.3, https://matplotlib.org/</dc:title>
     </cc:Agent>
    </dc:creator>
   </cc:Work>
  </rdf:RDF>
 </metadata>
 <defs>
  <style type="text/css">*{stroke-linejoin: round; stroke-linecap: butt}</style>
 </defs>
 <g id="figure_1">
  <g id="patch_1">
   <path d="M 0 84.96 
L 84.96 84.96 
L 84.96 0 
L 0 0 
z
" style="fill: #ffffff"/>
  </g>
  <g id="axes_1">
   <g id="patch_2">
    <path d="M 8.336802 74.419526 
L 81.95976 74.419526 
L 81.95976 4.076256 
L 8.336802 4.076256 
z
" style="fill: #ffffff"/>
   </g>
   <g id="matplotlib.axis_1">
    <g id="xtick_1">
     <g id="text_1">
      <!-- B -->
      <g style="fill: #333333" transform="translate(19.439991 81.230229) scale(0.035 -0.035)">
       <defs>
        <path id="Helvetica-42" d="M 2213 2650 
Q 2606 2650 2825 2759 
Q 3169 2931 3169 3378 
Q 3169 3828 2803 3984 
Q 2597 4072 2191 4072 
L 1081 4072 
L 1081 2650 
L 2213 2650 
z
M 2422 531 
Q 2994 531 3238 863 
Q 3391 1072 3391 1369 
Q 3391 1869 2944 2050 
Q 2706 2147 2316 2147 
L 1081 2147 
L 1081 531 
L 2422 531 
z
M 472 4591 
L 2444 4591 
Q 3250 4591 3591 4109 
Q 3791 3825 3791 3453 
Q 3791 3019 3544 2741 
Q 3416 2594 3175 2472 
Q 3528 2338 3703 2169 
Q 4013 1869 4013 1341 
Q 4013 897 3734 538 
Q 3319 0 2413 0 
L 472 0 
L 472 4591 
z
" transform="scale(0.015625)"/>
       </defs>
       <use xlink:href="#Helvetica-42"/>
      </g>
     </g>
    </g>
    <g id="xtick_2">
     <g id="text_2">
      <!-- T -->
      <g style="fill: #333333" transform="translate(44.079414 81.230229) scale(0.035 -0.035)">
       <defs>
        <path id="Helvetica-54" d="M 3828 4591 
L 3828 4044 
L 2281 4044 
L 2281 0 
L 1650 0 
L 1650 4044 
L 103 4044 
L 103 4591 
L 3828 4591 
z
" transform="scale(0.015625)"/>
       </defs>
       <use xlink:href="#Helvetica-54"/>
      </g>
     </g>
    </g>
    <g id="xtick_3">
     <g id="text_3">
      <!-- IL7R Non B/T -->
      <g style="fill: #333333" transform="translate(59.088095 81.230229) scale(0.035 -0.035)">
       <defs>
        <path id="Helvetica-49" d="M 628 4591 
L 1256 4591 
L 1256 0 
L 628 0 
L 628 4591 
z
" transform="scale(0.015625)"/>
        <path id="Helvetica-4c" d="M 488 4591 
L 1109 4591 
L 1109 547 
L 3434 547 
L 3434 0 
L 488 0 
L 488 4591 
z
" transform="scale(0.015625)"/>
        <path id="Helvetica-37" d="M 3347 4400 
L 3347 3909 
Q 3131 3700 2773 3181 
Q 2416 2663 2141 2063 
Q 1869 1478 1728 997 
Q 1638 688 1494 0 
L 872 0 
Q 1084 1281 1809 2550 
Q 2238 3294 2709 3834 
L 234 3834 
L 234 4400 
L 3347 4400 
z
" transform="scale(0.015625)"/>
        <path id="Helvetica-52" d="M 2622 2488 
Q 3059 2488 3314 2663 
Q 3569 2838 3569 3294 
Q 3569 3784 3213 3963 
Q 3022 4056 2703 4056 
L 1184 4056 
L 1184 2488 
L 2622 2488 
z
M 563 4591 
L 2688 4591 
Q 3213 4591 3553 4438 
Q 4200 4144 4200 3353 
Q 4200 2941 4029 2678 
Q 3859 2416 3553 2256 
Q 3822 2147 3958 1969 
Q 4094 1791 4109 1391 
L 4131 775 
Q 4141 513 4175 384 
Q 4231 166 4375 103 
L 4375 0 
L 3613 0 
Q 3581 59 3562 153 
Q 3544 247 3531 516 
L 3494 1281 
Q 3472 1731 3159 1884 
Q 2981 1969 2600 1969 
L 1184 1969 
L 1184 0 
L 563 0 
L 563 4591 
z
" transform="scale(0.015625)"/>
        <path id="Helvetica-20" transform="scale(0.015625)"/>
        <path id="Helvetica-4e" d="M 488 4591 
L 1222 4591 
L 3541 872 
L 3541 4591 
L 4131 4591 
L 4131 0 
L 3434 0 
L 1081 3716 
L 1081 0 
L 488 0 
L 488 4591 
z
M 2269 4591 
L 2269 4591 
z
" transform="scale(0.015625)"/>
        <path id="Helvetica-6f" d="M 1741 363 
Q 2300 363 2508 786 
Q 2716 1209 2716 1728 
Q 2716 2197 2566 2491 
Q 2328 2953 1747 2953 
Q 1231 2953 997 2559 
Q 763 2166 763 1609 
Q 763 1075 997 719 
Q 1231 363 1741 363 
z
M 1763 3444 
Q 2409 3444 2856 3012 
Q 3303 2581 3303 1744 
Q 3303 934 2909 406 
Q 2516 -122 1688 -122 
Q 997 -122 590 345 
Q 184 813 184 1600 
Q 184 2444 612 2944 
Q 1041 3444 1763 3444 
z
M 1744 3428 
L 1744 3428 
z
" transform="scale(0.015625)"/>
        <path id="Helvetica-6e" d="M 413 3347 
L 947 3347 
L 947 2872 
Q 1184 3166 1450 3294 
Q 1716 3422 2041 3422 
Q 2753 3422 3003 2925 
Q 3141 2653 3141 2147 
L 3141 0 
L 2569 0 
L 2569 2109 
Q 2569 2416 2478 2603 
Q 2328 2916 1934 2916 
Q 1734 2916 1606 2875 
Q 1375 2806 1200 2600 
Q 1059 2434 1017 2257 
Q 975 2081 975 1753 
L 975 0 
L 413 0 
L 413 3347 
z
M 1734 3428 
L 1734 3428 
z
" transform="scale(0.015625)"/>
        <path id="Helvetica-2f" d="M 1456 4591 
L 1931 4591 
L 475 0 
L 0 0 
L 1456 4591 
z
" transform="scale(0.015625)"/>
       </defs>
       <use xlink:href="#Helvetica-49"/>
       <use xlink:href="#Helvetica-4c" x="27.783203"/>
       <use xlink:href="#Helvetica-37" x="83.398438"/>
       <use xlink:href="#Helvetica-52" x="139.013672"/>
       <use xlink:href="#Helvetica-20" x="211.230469"/>
       <use xlink:href="#Helvetica-4e" x="239.013672"/>
       <use xlink:href="#Helvetica-6f" x="311.230469"/>
       <use xlink:href="#Helvetica-6e" x="366.845703"/>
       <use xlink:href="#Helvetica-20" x="422.460938"/>
       <use xlink:href="#Helvetica-42" x="450.244141"/>
       <use xlink:href="#Helvetica-2f" x="516.943359"/>
       <use xlink:href="#Helvetica-54" x="544.726562"/>
      </g>
     </g>
    </g>
   </g>
   <g id="matplotlib.axis_2">
    <g id="ytick_1">
     <g id="line2d_1">
      <defs>
       <path id="m247f14463f" d="M 0 0 
L -1 0 
" style="stroke: #777777; stroke-width: 0.5"/>
      </defs>
      <g>
       <use xlink:href="#m247f14463f" x="8.336802" y="66.673159" style="fill: #777777; stroke: #777777; stroke-width: 0.5"/>
      </g>
     </g>
     <g id="text_4">
      <!-- 0 -->
      <g style="fill: #333333" transform="translate(4.668521 67.749174) scale(0.03 -0.03)">
       <defs>
        <path id="Helvetica-30" d="M 1731 4475 
Q 2600 4475 2988 3759 
Q 3288 3206 3288 2244 
Q 3288 1331 3016 734 
Q 2622 -122 1728 -122 
Q 922 -122 528 578 
Q 200 1163 200 2147 
Q 200 2909 397 3456 
Q 766 4475 1731 4475 
z
M 1725 391 
Q 2163 391 2422 778 
Q 2681 1166 2681 2222 
Q 2681 2984 2493 3476 
Q 2306 3969 1766 3969 
Q 1269 3969 1039 3501 
Q 809 3034 809 2125 
Q 809 1441 956 1025 
Q 1181 391 1725 391 
z
" transform="scale(0.015625)"/>
       </defs>
       <use xlink:href="#Helvetica-30"/>
      </g>
     </g>
    </g>
    <g id="ytick_2">
     <g id="line2d_2">
      <g>
       <use xlink:href="#m247f14463f" x="8.336802" y="58.848546" style="fill: #777777; stroke: #777777; stroke-width: 0.5"/>
      </g>
     </g>
     <g id="text_5">
      <!-- 10 -->
      <g style="fill: #333333" transform="translate(3.00024 59.924562) scale(0.03 -0.03)">
       <defs>
        <path id="Helvetica-31" d="M 613 3169 
L 613 3600 
Q 1222 3659 1462 3798 
Q 1703 3938 1822 4456 
L 2266 4456 
L 2266 0 
L 1666 0 
L 1666 3169 
L 613 3169 
z
" transform="scale(0.015625)"/>
       </defs>
       <use xlink:href="#Helvetica-31"/>
       <use xlink:href="#Helvetica-30" x="55.615234"/>
      </g>
     </g>
    </g>
    <g id="ytick_3">
     <g id="line2d_3">
      <g>
       <use xlink:href="#m247f14463f" x="8.336802" y="51.023933" style="fill: #777777; stroke: #777777; stroke-width: 0.5"/>
      </g>
     </g>
     <g id="text_6">
      <!-- 20 -->
      <g style="fill: #333333" transform="translate(3.00024 52.099949) scale(0.03 -0.03)">
       <defs>
        <path id="Helvetica-32" d="M 200 0 
Q 231 578 439 1006 
Q 647 1434 1250 1784 
L 1850 2131 
Q 2253 2366 2416 2531 
Q 2672 2791 2672 3125 
Q 2672 3516 2437 3745 
Q 2203 3975 1813 3975 
Q 1234 3975 1013 3538 
Q 894 3303 881 2888 
L 309 2888 
Q 319 3472 525 3841 
Q 891 4491 1816 4491 
Q 2584 4491 2939 4075 
Q 3294 3659 3294 3150 
Q 3294 2613 2916 2231 
Q 2697 2009 2131 1694 
L 1703 1456 
Q 1397 1288 1222 1134 
Q 909 863 828 531 
L 3272 531 
L 3272 0 
L 200 0 
z
" transform="scale(0.015625)"/>
       </defs>
       <use xlink:href="#Helvetica-32"/>
       <use xlink:href="#Helvetica-30" x="55.615234"/>
      </g>
     </g>
    </g>
    <g id="ytick_4">
     <g id="line2d_4">
      <g>
       <use xlink:href="#m247f14463f" x="8.336802" y="43.19932" style="fill: #777777; stroke: #777777; stroke-width: 0.5"/>
      </g>
     </g>
     <g id="text_7">
      <!-- 30 -->
      <g style="fill: #333333" transform="translate(3.00024 44.275336) scale(0.03 -0.03)">
       <defs>
        <path id="Helvetica-33" d="M 1663 -122 
Q 869 -122 511 314 
Q 153 750 153 1375 
L 741 1375 
Q 778 941 903 744 
Q 1122 391 1694 391 
Q 2138 391 2406 628 
Q 2675 866 2675 1241 
Q 2675 1703 2392 1887 
Q 2109 2072 1606 2072 
Q 1550 2072 1492 2070 
Q 1434 2069 1375 2066 
L 1375 2563 
Q 1463 2553 1522 2550 
Q 1581 2547 1650 2547 
Q 1966 2547 2169 2647 
Q 2525 2822 2525 3272 
Q 2525 3606 2287 3787 
Q 2050 3969 1734 3969 
Q 1172 3969 956 3594 
Q 838 3388 822 3006 
L 266 3006 
Q 266 3506 466 3856 
Q 809 4481 1675 4481 
Q 2359 4481 2734 4176 
Q 3109 3872 3109 3294 
Q 3109 2881 2888 2625 
Q 2750 2466 2531 2375 
Q 2884 2278 3082 2001 
Q 3281 1725 3281 1325 
Q 3281 684 2859 281 
Q 2438 -122 1663 -122 
z
" transform="scale(0.015625)"/>
       </defs>
       <use xlink:href="#Helvetica-33"/>
       <use xlink:href="#Helvetica-30" x="55.615234"/>
      </g>
     </g>
    </g>
    <g id="ytick_5">
     <g id="line2d_5">
      <g>
       <use xlink:href="#m247f14463f" x="8.336802" y="35.374707" style="fill: #777777; stroke: #777777; stroke-width: 0.5"/>
      </g>
     </g>
     <g id="text_8">
      <!-- 40 -->
      <g style="fill: #333333" transform="translate(3.00024 36.450723) scale(0.03 -0.03)">
       <defs>
        <path id="Helvetica-34" d="M 2116 1584 
L 2116 3613 
L 681 1584 
L 2116 1584 
z
M 2125 0 
L 2125 1094 
L 163 1094 
L 163 1644 
L 2213 4488 
L 2688 4488 
L 2688 1584 
L 3347 1584 
L 3347 1094 
L 2688 1094 
L 2688 0 
L 2125 0 
z
" transform="scale(0.015625)"/>
       </defs>
       <use xlink:href="#Helvetica-34"/>
       <use xlink:href="#Helvetica-30" x="55.615234"/>
      </g>
     </g>
    </g>
    <g id="ytick_6">
     <g id="line2d_6">
      <g>
       <use xlink:href="#m247f14463f" x="8.336802" y="27.550094" style="fill: #777777; stroke: #777777; stroke-width: 0.5"/>
      </g>
     </g>
     <g id="text_9">
      <!-- 50 -->
      <g style="fill: #333333" transform="translate(3.00024 28.62611) scale(0.03 -0.03)">
       <defs>
        <path id="Helvetica-35" d="M 791 1141 
Q 847 659 1238 475 
Q 1438 381 1700 381 
Q 2200 381 2440 700 
Q 2681 1019 2681 1406 
Q 2681 1875 2395 2131 
Q 2109 2388 1709 2388 
Q 1419 2388 1211 2275 
Q 1003 2163 856 1963 
L 369 1991 
L 709 4400 
L 3034 4400 
L 3034 3856 
L 1131 3856 
L 941 2613 
Q 1097 2731 1238 2791 
Q 1488 2894 1816 2894 
Q 2431 2894 2859 2497 
Q 3288 2100 3288 1491 
Q 3288 856 2895 371 
Q 2503 -113 1644 -113 
Q 1097 -113 676 195 
Q 256 503 206 1141 
L 791 1141 
z
" transform="scale(0.015625)"/>
       </defs>
       <use xlink:href="#Helvetica-35"/>
       <use xlink:href="#Helvetica-30" x="55.615234"/>
      </g>
     </g>
    </g>
    <g id="ytick_7">
     <g id="line2d_7">
      <g>
       <use xlink:href="#m247f14463f" x="8.336802" y="19.725481" style="fill: #777777; stroke: #777777; stroke-width: 0.5"/>
      </g>
     </g>
     <g id="text_10">
      <!-- 60 -->
      <g style="fill: #333333" transform="translate(3.00024 20.801497) scale(0.03 -0.03)">
       <defs>
        <path id="Helvetica-36" d="M 1872 4494 
Q 2622 4494 2917 4105 
Q 3213 3716 3213 3303 
L 2656 3303 
Q 2606 3569 2497 3719 
Q 2294 4000 1881 4000 
Q 1409 4000 1131 3564 
Q 853 3128 822 2316 
Q 1016 2600 1309 2741 
Q 1578 2866 1909 2866 
Q 2472 2866 2890 2506 
Q 3309 2147 3309 1434 
Q 3309 825 2912 354 
Q 2516 -116 1781 -116 
Q 1153 -116 697 361 
Q 241 838 241 1966 
Q 241 2800 444 3381 
Q 834 4494 1872 4494 
z
M 1831 384 
Q 2275 384 2495 682 
Q 2716 981 2716 1388 
Q 2716 1731 2519 2042 
Q 2322 2353 1803 2353 
Q 1441 2353 1167 2112 
Q 894 1872 894 1388 
Q 894 963 1142 673 
Q 1391 384 1831 384 
z
" transform="scale(0.015625)"/>
       </defs>
       <use xlink:href="#Helvetica-36"/>
       <use xlink:href="#Helvetica-30" x="55.615234"/>
      </g>
     </g>
    </g>
    <g id="ytick_8">
     <g id="line2d_8">
      <g>
       <use xlink:href="#m247f14463f" x="8.336802" y="11.900869" style="fill: #777777; stroke: #777777; stroke-width: 0.5"/>
      </g>
     </g>
     <g id="text_11">
      <!-- 70 -->
      <g style="fill: #333333" transform="translate(3.00024 12.976884) scale(0.03 -0.03)">
       <use xlink:href="#Helvetica-37"/>
       <use xlink:href="#Helvetica-30" x="55.615234"/>
      </g>
     </g>
    </g>
    <g id="ytick_9">
     <g id="line2d_9">
      <g>
       <use xlink:href="#m247f14463f" x="8.336802" y="4.076256" style="fill: #777777; stroke: #777777; stroke-width: 0.5"/>
      </g>
     </g>
     <g id="text_12">
      <!-- 80 -->
      <g style="fill: #333333" transform="translate(3.00024 5.152271) scale(0.03 -0.03)">
       <defs>
        <path id="Helvetica-38" d="M 1741 2600 
Q 2113 2600 2322 2808 
Q 2531 3016 2531 3303 
Q 2531 3553 2331 3762 
Q 2131 3972 1722 3972 
Q 1316 3972 1134 3762 
Q 953 3553 953 3272 
Q 953 2956 1187 2778 
Q 1422 2600 1741 2600 
z
M 1775 384 
Q 2166 384 2423 595 
Q 2681 806 2681 1225 
Q 2681 1659 2415 1884 
Q 2150 2109 1734 2109 
Q 1331 2109 1076 1879 
Q 822 1650 822 1244 
Q 822 894 1055 639 
Q 1288 384 1775 384 
z
M 975 2384 
Q 741 2484 609 2619 
Q 363 2869 363 3269 
Q 363 3769 725 4128 
Q 1088 4488 1753 4488 
Q 2397 4488 2762 4148 
Q 3128 3809 3128 3356 
Q 3128 2938 2916 2678 
Q 2797 2531 2547 2391 
Q 2825 2263 2984 2097 
Q 3281 1784 3281 1284 
Q 3281 694 2884 283 
Q 2488 -128 1763 -128 
Q 1109 -128 657 226 
Q 206 581 206 1256 
Q 206 1653 400 1942 
Q 594 2231 975 2384 
z
" transform="scale(0.015625)"/>
       </defs>
       <use xlink:href="#Helvetica-38"/>
       <use xlink:href="#Helvetica-30" x="55.615234"/>
      </g>
     </g>
    </g>
   </g>
   <g id="PolyCollection_1">
    <defs>
     <path id="m304a87fe37" d="M 21.095731 -20.077176 
L 20.11886 -20.077176 
L 19.978057 -20.203904 
L 19.814753 -20.330632 
L 19.630562 -20.45736 
L 19.428428 -20.584088 
L 19.212469 -20.710816 
L 18.987675 -20.837544 
L 18.759513 -20.964271 
L 18.533485 -21.090999 
L 18.314708 -21.217727 
L 18.107568 -21.344455 
L 17.915466 -21.471183 
L 17.740664 -21.597911 
L 17.584208 -21.724639 
L 17.445902 -21.851367 
L 17.324308 -21.978095 
L 17.216776 -22.104823 
L 17.119504 -22.231551 
L 17.027674 -22.358279 
L 16.935666 -22.485007 
L 16.837388 -22.611735 
L 16.726711 -22.738463 
L 16.597971 -22.865191 
L 16.446507 -22.991919 
L 16.269165 -23.118647 
L 16.064723 -23.245375 
L 15.834169 -23.372103 
L 15.580816 -23.498831 
L 15.310204 -23.625559 
L 15.029788 -23.752287 
L 14.748404 -23.879015 
L 14.475544 -24.005743 
L 14.220475 -24.132471 
L 13.991285 -24.259199 
L 13.793965 -24.385927 
L 13.631651 -24.512654 
L 13.504123 -24.639382 
L 13.407679 -24.76611 
L 13.335396 -24.892838 
L 13.277777 -25.019566 
L 13.223704 -25.146294 
L 13.161573 -25.273022 
L 13.080497 -25.39975 
L 12.971431 -25.526478 
L 12.828136 -25.653206 
L 12.647917 -25.779934 
L 12.432082 -25.906662 
L 12.186134 -26.03339 
L 11.919664 -26.160118 
L 11.64597 -26.286846 
L 11.381395 -26.413574 
L 11.144415 -26.540302 
L 10.954498 -26.66703 
L 10.830822 -26.793758 
L 10.790901 -26.920486 
L 10.849247 -27.047214 
L 11.016147 -27.173942 
L 11.296667 -27.30067 
L 11.689971 -27.427398 
L 12.189026 -27.554126 
L 12.780754 -27.680854 
L 13.446645 -27.807582 
L 14.16383 -27.93431 
L 14.906532 -28.061038 
L 15.647796 -28.187765 
L 16.361323 -28.314493 
L 17.023231 -28.441221 
L 17.613564 -28.567949 
L 18.117394 -28.694677 
L 18.525429 -28.821405 
L 18.834112 -28.948133 
L 19.045243 -29.074861 
L 19.165236 -29.201589 
L 19.204113 -29.328317 
L 19.17439 -29.455045 
L 19.089945 -29.581773 
L 18.965002 -29.708501 
L 18.813279 -29.835229 
L 18.647369 -29.961957 
L 18.478384 -30.088685 
L 18.315821 -30.215413 
L 18.16765 -30.342141 
L 18.040514 -30.468869 
L 17.939973 -30.595597 
L 17.870699 -30.722325 
L 17.836533 -30.849053 
L 17.840399 -30.975781 
L 17.884069 -31.102509 
L 17.967847 -31.229237 
L 18.090273 -31.355965 
L 18.247933 -31.482693 
L 18.435471 -31.609421 
L 18.645837 -31.736148 
L 18.870765 -31.862876 
L 19.101428 -31.989604 
L 19.329163 -32.116332 
L 19.546176 -32.24306 
L 19.746112 -32.369788 
L 19.924419 -32.496516 
L 20.078484 -32.623244 
L 21.136107 -32.623244 
L 21.136107 -32.623244 
L 21.290172 -32.496516 
L 21.468479 -32.369788 
L 21.668415 -32.24306 
L 21.885428 -32.116332 
L 22.113163 -31.989604 
L 22.343825 -31.862876 
L 22.568754 -31.736148 
L 22.77912 -31.609421 
L 22.966658 -31.482693 
L 23.124318 -31.355965 
L 23.246744 -31.229237 
L 23.330522 -31.102509 
L 23.374192 -30.975781 
L 23.378058 -30.849053 
L 23.343892 -30.722325 
L 23.274617 -30.595597 
L 23.174077 -30.468869 
L 23.046941 -30.342141 
L 22.898769 -30.215413 
L 22.736207 -30.088685 
L 22.567221 -29.961957 
L 22.401312 -29.835229 
L 22.249588 -29.708501 
L 22.124645 -29.581773 
L 22.040201 -29.455045 
L 22.010477 -29.328317 
L 22.049355 -29.201589 
L 22.169347 -29.074861 
L 22.380479 -28.948133 
L 22.689162 -28.821405 
L 23.097197 -28.694677 
L 23.601027 -28.567949 
L 24.19136 -28.441221 
L 24.853268 -28.314493 
L 25.566794 -28.187765 
L 26.308059 -28.061038 
L 27.050761 -27.93431 
L 27.767946 -27.807582 
L 28.433837 -27.680854 
L 29.025565 -27.554126 
L 29.52462 -27.427398 
L 29.917924 -27.30067 
L 30.198444 -27.173942 
L 30.365344 -27.047214 
L 30.42369 -26.920486 
L 30.383769 -26.793758 
L 30.260093 -26.66703 
L 30.070176 -26.540302 
L 29.833196 -26.413574 
L 29.568621 -26.286846 
L 29.294927 -26.160118 
L 29.028456 -26.03339 
L 28.782508 -25.906662 
L 28.566674 -25.779934 
L 28.386455 -25.653206 
L 28.24316 -25.526478 
L 28.134094 -25.39975 
L 28.053018 -25.273022 
L 27.990887 -25.146294 
L 27.936814 -25.019566 
L 27.879195 -24.892838 
L 27.806912 -24.76611 
L 27.710468 -24.639382 
L 27.58294 -24.512654 
L 27.420626 -24.385927 
L 27.223306 -24.259199 
L 26.994116 -24.132471 
L 26.739047 -24.005743 
L 26.466187 -23.879015 
L 26.184803 -23.752287 
L 25.904386 -23.625559 
L 25.633774 -23.498831 
L 25.380422 -23.372103 
L 25.149868 -23.245375 
L 24.945425 -23.118647 
L 24.768084 -22.991919 
L 24.61662 -22.865191 
L 24.48788 -22.738463 
L 24.377203 -22.611735 
L 24.278925 -22.485007 
L 24.186917 -22.358279 
L 24.095087 -22.231551 
L 23.997815 -22.104823 
L 23.890282 -21.978095 
L 23.768688 -21.851367 
L 23.630382 -21.724639 
L 23.473927 -21.597911 
L 23.299125 -21.471183 
L 23.107023 -21.344455 
L 22.899883 -21.217727 
L 22.681106 -21.090999 
L 22.455077 -20.964271 
L 22.226915 -20.837544 
L 22.002122 -20.710816 
L 21.786162 -20.584088 
L 21.584029 -20.45736 
L 21.399838 -20.330632 
L 21.236534 -20.203904 
L 21.095731 -20.077176 
z
" style="stroke: #414141; stroke-width: 0.15"/>
    </defs>
    <g clip-path="url(#pb192a79d5b)">
     <use xlink:href="#m304a87fe37" x="0" y="84.96" style="fill: #abc9ea; stroke: #414141; stroke-width: 0.15"/>
    </g>
   </g>
   <g id="PolyCollection_2">
    <defs>
     <path id="mf5b7622975" d="M 45.789514 -18.93872 
L 44.507048 -18.93872 
L 44.312405 -19.309972 
L 44.077747 -19.681223 
L 43.800434 -20.052475 
L 43.479041 -20.423727 
L 43.113628 -20.794979 
L 42.705937 -21.16623 
L 42.259535 -21.537482 
L 41.779879 -21.908734 
L 41.274293 -22.279986 
L 40.751864 -22.651237 
L 40.22322 -23.022489 
L 39.700175 -23.393741 
L 39.195239 -23.764992 
L 38.720961 -24.136244 
L 38.289145 -24.507496 
L 37.909958 -24.878748 
L 37.591039 -25.249999 
L 37.336679 -25.621251 
L 37.147204 -25.992503 
L 37.018676 -26.363755 
L 36.942971 -26.735006 
L 36.908293 -27.106258 
L 36.900087 -27.47751 
L 36.902283 -27.848761 
L 36.898762 -28.220013 
L 36.874888 -28.591265 
L 36.818968 -28.962517 
L 36.723495 -29.333768 
L 36.586066 -29.70502 
L 36.409883 -30.076272 
L 36.203783 -30.447524 
L 35.981776 -30.818775 
L 35.762103 -31.190027 
L 35.565862 -31.561279 
L 35.415295 -31.93253 
L 35.331887 -32.303782 
L 35.33443 -32.675034 
L 35.437263 -33.046286 
L 35.648865 -33.417537 
L 35.970975 -33.788789 
L 36.398328 -34.160041 
L 36.91903 -34.531292 
L 37.515527 -34.902544 
L 38.166039 -35.273796 
L 38.846272 -35.645048 
L 39.531228 -36.016299 
L 40.196918 -36.387551 
L 40.821823 -36.758803 
L 41.388001 -37.130055 
L 41.88178 -37.501306 
L 42.294037 -37.872558 
L 42.620094 -38.24381 
L 42.859301 -38.615061 
L 43.014403 -38.986313 
L 43.090774 -39.357565 
L 43.095649 -39.728817 
L 43.037436 -40.100068 
L 42.925195 -40.47132 
L 42.768338 -40.842572 
L 42.576536 -41.213824 
L 42.3598 -41.585075 
L 42.128639 -41.956327 
L 41.894163 -42.327579 
L 41.668032 -42.69883 
L 41.46213 -43.070082 
L 41.287959 -43.441334 
L 41.15579 -43.812586 
L 41.073682 -44.183837 
L 41.046562 -44.555089 
L 41.075542 -44.926341 
L 41.157644 -45.297592 
L 41.286025 -45.668844 
L 41.450692 -46.040096 
L 41.639625 -46.411348 
L 41.840127 -46.782599 
L 42.040184 -47.153851 
L 42.229647 -47.525103 
L 42.401064 -47.896355 
L 42.550094 -48.267606 
L 42.675498 -48.638858 
L 42.778783 -49.01011 
L 42.863599 -49.381361 
L 42.93503 -49.752613 
L 42.99887 -50.123865 
L 43.060981 -50.495117 
L 43.126753 -50.866368 
L 43.200691 -51.23762 
L 43.286126 -51.608872 
L 43.385027 -51.980124 
L 43.497924 -52.351375 
L 43.623937 -52.722627 
L 43.760901 -53.093879 
L 43.905611 -53.46513 
L 44.05414 -53.836382 
L 44.202221 -54.207634 
L 44.345647 -54.578886 
L 44.480635 -54.950137 
L 44.604123 -55.321389 
L 44.713957 -55.692641 
L 45.582605 -55.692641 
L 45.582605 -55.692641 
L 45.692439 -55.321389 
L 45.815928 -54.950137 
L 45.950916 -54.578886 
L 46.094341 -54.207634 
L 46.242422 -53.836382 
L 46.390951 -53.46513 
L 46.535661 -53.093879 
L 46.672626 -52.722627 
L 46.798638 -52.351375 
L 46.911536 -51.980124 
L 47.010437 -51.608872 
L 47.095871 -51.23762 
L 47.169809 -50.866368 
L 47.235581 -50.495117 
L 47.297692 -50.123865 
L 47.361533 -49.752613 
L 47.432963 -49.381361 
L 47.51778 -49.01011 
L 47.621064 -48.638858 
L 47.746469 -48.267606 
L 47.895498 -47.896355 
L 48.066915 -47.525103 
L 48.256378 -47.153851 
L 48.456436 -46.782599 
L 48.656938 -46.411348 
L 48.845871 -46.040096 
L 49.010537 -45.668844 
L 49.138918 -45.297592 
L 49.221021 -44.926341 
L 49.250001 -44.555089 
L 49.222881 -44.183837 
L 49.140773 -43.812586 
L 49.008603 -43.441334 
L 48.834433 -43.070082 
L 48.62853 -42.69883 
L 48.402399 -42.327579 
L 48.167924 -41.956327 
L 47.936762 -41.585075 
L 47.720027 -41.213824 
L 47.528224 -40.842572 
L 47.371367 -40.47132 
L 47.259127 -40.100068 
L 47.200913 -39.728817 
L 47.205788 -39.357565 
L 47.282159 -38.986313 
L 47.437261 -38.615061 
L 47.676469 -38.24381 
L 48.002525 -37.872558 
L 48.414782 -37.501306 
L 48.908562 -37.130055 
L 49.47474 -36.758803 
L 50.099645 -36.387551 
L 50.765335 -36.016299 
L 51.45029 -35.645048 
L 52.130523 -35.273796 
L 52.781035 -34.902544 
L 53.377533 -34.531292 
L 53.898234 -34.160041 
L 54.325587 -33.788789 
L 54.647698 -33.417537 
L 54.8593 -33.046286 
L 54.962132 -32.675034 
L 54.964676 -32.303782 
L 54.881268 -31.93253 
L 54.730701 -31.561279 
L 54.534459 -31.190027 
L 54.314786 -30.818775 
L 54.09278 -30.447524 
L 53.88668 -30.076272 
L 53.710497 -29.70502 
L 53.573068 -29.333768 
L 53.477594 -28.962517 
L 53.421674 -28.591265 
L 53.397801 -28.220013 
L 53.39428 -27.848761 
L 53.396476 -27.47751 
L 53.388269 -27.106258 
L 53.353591 -26.735006 
L 53.277887 -26.363755 
L 53.149358 -25.992503 
L 52.959884 -25.621251 
L 52.705523 -25.249999 
L 52.386605 -24.878748 
L 52.007418 -24.507496 
L 51.575601 -24.136244 
L 51.101324 -23.764992 
L 50.596388 -23.393741 
L 50.073343 -23.022489 
L 49.544698 -22.651237 
L 49.02227 -22.279986 
L 48.516684 -21.908734 
L 48.037027 -21.537482 
L 47.590626 -21.16623 
L 47.182935 -20.794979 
L 46.817522 -20.423727 
L 46.496129 -20.052475 
L 46.218815 -19.681223 
L 45.984158 -19.309972 
L 45.789514 -18.93872 
z
" style="stroke: #414141; stroke-width: 0.15"/>
    </defs>
    <g clip-path="url(#pb192a79d5b)">
     <use xlink:href="#mf5b7622975" x="0" y="84.96" style="fill: #efb792; stroke: #414141; stroke-width: 0.15"/>
    </g>
   </g>
   <g id="PolyCollection_3">
    <defs>
     <path id="m0286767b4c" d="M 70.48151 -22.838667 
L 68.897025 -22.838667 
L 68.687734 -23.081889 
L 68.437969 -23.32511 
L 68.143964 -23.568332 
L 67.802664 -23.811554 
L 67.412063 -24.054776 
L 66.971551 -24.297998 
L 66.482285 -24.54122 
L 65.947526 -24.784441 
L 65.372925 -25.027663 
L 64.766721 -25.270885 
L 64.139791 -25.514107 
L 63.505537 -25.757329 
L 62.879563 -26.000551 
L 62.279134 -26.243772 
L 61.722423 -26.486994 
L 61.227576 -26.730216 
L 60.811643 -26.973438 
L 60.489463 -27.21666 
L 60.272588 -27.459882 
L 60.168354 -27.703103 
L 60.179179 -27.946325 
L 60.302184 -28.189547 
L 60.529175 -28.432769 
L 60.847004 -28.675991 
L 61.23829 -28.919212 
L 61.682439 -29.162434 
L 62.156882 -29.405656 
L 62.638423 -29.648878 
L 63.104591 -29.8921 
L 63.534894 -30.135322 
L 63.911883 -30.378543 
L 64.221979 -30.621765 
L 64.456009 -30.864987 
L 64.60946 -31.108209 
L 64.682452 -31.351431 
L 64.679464 -31.594653 
L 64.608853 -31.837874 
L 64.482203 -32.081096 
L 64.31355 -32.324318 
L 64.118522 -32.56754 
L 63.913433 -32.810762 
L 63.71437 -33.053984 
L 63.536318 -33.297205 
L 63.392353 -33.540427 
L 63.292956 -33.783649 
L 63.245489 -34.026871 
L 63.253853 -34.270093 
L 63.318359 -34.513314 
L 63.435818 -34.756536 
L 63.599836 -34.999758 
L 63.801287 -35.24298 
L 64.028925 -35.486202 
L 64.270078 -35.729424 
L 64.511387 -35.972645 
L 64.739517 -36.215867 
L 64.941823 -36.459089 
L 65.10692 -36.702311 
L 65.225149 -36.945533 
L 65.288924 -37.188755 
L 65.292959 -37.431976 
L 65.234382 -37.675198 
L 65.112728 -37.91842 
L 64.929844 -38.161642 
L 64.689688 -38.404864 
L 64.398063 -38.648086 
L 64.062283 -38.891307 
L 63.69082 -39.134529 
L 63.292931 -39.377751 
L 62.878321 -39.620973 
L 62.456848 -39.864195 
L 62.038304 -40.107416 
L 61.632261 -40.350638 
L 61.248001 -40.59386 
L 60.894486 -40.837082 
L 60.58035 -41.080304 
L 60.313886 -41.323526 
L 60.102979 -41.566747 
L 59.954968 -41.809969 
L 59.876429 -42.053191 
L 59.872873 -42.296413 
L 59.948395 -42.539635 
L 60.105299 -42.782857 
L 60.343761 -43.026078 
L 60.661559 -43.2693 
L 61.053943 -43.512522 
L 61.513651 -43.755744 
L 62.031107 -43.998966 
L 62.594785 -44.242188 
L 63.191724 -44.485409 
L 63.808148 -44.728631 
L 64.430143 -44.971853 
L 65.044331 -45.215075 
L 65.638485 -45.458297 
L 66.202046 -45.701518 
L 66.726494 -45.94474 
L 67.20556 -46.187962 
L 67.635286 -46.431184 
L 68.01392 -46.674406 
L 68.341706 -46.917628 
L 71.036828 -46.917628 
L 71.036828 -46.917628 
L 71.364614 -46.674406 
L 71.743248 -46.431184 
L 72.172974 -46.187962 
L 72.652041 -45.94474 
L 73.176488 -45.701518 
L 73.740049 -45.458297 
L 74.334203 -45.215075 
L 74.948391 -44.971853 
L 75.570386 -44.728631 
L 76.18681 -44.485409 
L 76.783749 -44.242188 
L 77.347427 -43.998966 
L 77.864883 -43.755744 
L 78.324591 -43.512522 
L 78.716975 -43.2693 
L 79.034773 -43.026078 
L 79.273235 -42.782857 
L 79.43014 -42.539635 
L 79.505661 -42.296413 
L 79.502105 -42.053191 
L 79.423566 -41.809969 
L 79.275555 -41.566747 
L 79.064648 -41.323526 
L 78.798184 -41.080304 
L 78.484048 -40.837082 
L 78.130533 -40.59386 
L 77.746273 -40.350638 
L 77.340231 -40.107416 
L 76.921686 -39.864195 
L 76.500213 -39.620973 
L 76.085603 -39.377751 
L 75.687714 -39.134529 
L 75.316251 -38.891307 
L 74.980472 -38.648086 
L 74.688846 -38.404864 
L 74.44869 -38.161642 
L 74.265806 -37.91842 
L 74.144153 -37.675198 
L 74.085575 -37.431976 
L 74.089611 -37.188755 
L 74.153385 -36.945533 
L 74.271614 -36.702311 
L 74.436711 -36.459089 
L 74.639017 -36.215867 
L 74.867147 -35.972645 
L 75.108456 -35.729424 
L 75.349609 -35.486202 
L 75.577247 -35.24298 
L 75.778698 -34.999758 
L 75.942717 -34.756536 
L 76.060176 -34.513314 
L 76.124681 -34.270093 
L 76.133045 -34.026871 
L 76.085578 -33.783649 
L 75.986182 -33.540427 
L 75.842216 -33.297205 
L 75.664164 -33.053984 
L 75.465102 -32.810762 
L 75.260012 -32.56754 
L 75.064984 -32.324318 
L 74.896331 -32.081096 
L 74.769681 -31.837874 
L 74.69907 -31.594653 
L 74.696082 -31.351431 
L 74.769074 -31.108209 
L 74.922525 -30.864987 
L 75.156555 -30.621765 
L 75.466651 -30.378543 
L 75.84364 -30.135322 
L 76.273943 -29.8921 
L 76.740111 -29.648878 
L 77.221652 -29.405656 
L 77.696095 -29.162434 
L 78.140244 -28.919212 
L 78.53153 -28.675991 
L 78.849359 -28.432769 
L 79.07635 -28.189547 
L 79.199356 -27.946325 
L 79.21018 -27.703103 
L 79.105946 -27.459882 
L 78.889072 -27.21666 
L 78.566891 -26.973438 
L 78.150958 -26.730216 
L 77.656111 -26.486994 
L 77.0994 -26.243772 
L 76.498971 -26.000551 
L 75.872997 -25.757329 
L 75.238743 -25.514107 
L 74.611813 -25.270885 
L 74.005609 -25.027663 
L 73.431008 -24.784441 
L 72.896249 -24.54122 
L 72.406983 -24.297998 
L 71.966471 -24.054776 
L 71.57587 -23.811554 
L 71.234571 -23.568332 
L 70.940565 -23.32511 
L 70.6908 -23.081889 
L 70.48151 -22.838667 
z
" style="stroke: #414141; stroke-width: 0.15"/>
    </defs>
    <g clip-path="url(#pb192a79d5b)">
     <use xlink:href="#m0286767b4c" x="0" y="84.96" style="fill: #7e5c60; stroke: #414141; stroke-width: 0.15"/>
    </g>
   </g>
   <g id="line2d_10">
    <path d="M 20.607295 63.772993 
L 20.607295 53.446587 
" clip-path="url(#pb192a79d5b)" style="fill: none; stroke: #8c8c8c; stroke-width: 0.75; stroke-linecap: round"/>
   </g>
   <g id="line2d_11">
    <path d="M 20.607295 60.556204 
L 20.607295 57.579706 
" clip-path="url(#pb192a79d5b)" style="fill: none; stroke: #8c8c8c; stroke-width: 4; stroke-linecap: round"/>
   </g>
   <g id="line2d_12">
    <path d="M 20.607295 58.799213 
" clip-path="url(#pb192a79d5b)" style="fill: none; stroke: #414141; stroke-width: 1.2; stroke-linecap: round"/>
    <defs>
     <path id="mcd4d36f097" d="M 0 0.833333 
C 0.221003 0.833333 0.432983 0.745528 0.589256 0.589256 
C 0.745528 0.432983 0.833333 0.221003 0.833333 0 
C 0.833333 -0.221003 0.745528 -0.432983 0.589256 -0.589256 
C 0.432983 -0.745528 0.221003 -0.833333 0 -0.833333 
C -0.221003 -0.833333 -0.432983 -0.745528 -0.589256 -0.589256 
C -0.745528 -0.432983 -0.833333 -0.221003 -0.833333 0 
C -0.833333 0.221003 -0.745528 0.432983 -0.589256 0.589256 
C -0.432983 0.745528 -0.221003 0.833333 0 0.833333 
z
" style="stroke: #ffffff; stroke-width: 0.8"/>
    </defs>
    <g clip-path="url(#pb192a79d5b)">
     <use xlink:href="#mcd4d36f097" x="20.607295" y="58.799213" style="fill: #ffffff; stroke: #ffffff; stroke-width: 0.8"/>
    </g>
   </g>
   <g id="line2d_13">
    <path d="M 45.148281 62.530349 
L 45.148281 32.75829 
" clip-path="url(#pb192a79d5b)" style="fill: none; stroke: #8c8c8c; stroke-width: 0.75; stroke-linecap: round"/>
   </g>
   <g id="line2d_14">
    <path d="M 45.148281 58.147234 
L 45.148281 47.659641 
" clip-path="url(#pb192a79d5b)" style="fill: none; stroke: #8c8c8c; stroke-width: 4; stroke-linecap: round"/>
   </g>
   <g id="line2d_15">
    <path d="M 45.148281 52.232593 
" clip-path="url(#pb192a79d5b)" style="fill: none; stroke: #414141; stroke-width: 1.2; stroke-linecap: round"/>
    <g clip-path="url(#pb192a79d5b)">
     <use xlink:href="#mcd4d36f097" x="45.148281" y="52.232593" style="fill: #ffffff; stroke: #ffffff; stroke-width: 0.8"/>
    </g>
   </g>
   <g id="line2d_16">
    <path d="M 69.689267 59.373651 
L 69.689267 40.790055 
" clip-path="url(#pb192a79d5b)" style="fill: none; stroke: #8c8c8c; stroke-width: 0.75; stroke-linecap: round"/>
   </g>
   <g id="line2d_17">
    <path d="M 69.689267 56.687455 
L 69.689267 43.245257 
" clip-path="url(#pb192a79d5b)" style="fill: none; stroke: #8c8c8c; stroke-width: 4; stroke-linecap: round"/>
   </g>
   <g id="line2d_18">
    <path d="M 69.689267 50.458498 
" clip-path="url(#pb192a79d5b)" style="fill: none; stroke: #414141; stroke-width: 1.2; stroke-linecap: round"/>
    <g clip-path="url(#pb192a79d5b)">
     <use xlink:href="#mcd4d36f097" x="69.689267" y="50.458498" style="fill: #ffffff; stroke: #ffffff; stroke-width: 0.8"/>
    </g>
   </g>
   <g id="patch_3">
    <path d="M 8.336802 74.419526 
L 8.336802 4.076256 
" style="fill: none; stroke: #777777; stroke-width: 0.5; stroke-linejoin: miter; stroke-linecap: square"/>
   </g>
   <g id="patch_4">
    <path d="M 8.336802 76.919526 
L 81.95976 76.919526 
" style="fill: none; stroke: #777777; stroke-width: 0.5; stroke-linejoin: miter; stroke-linecap: square"/>
   </g>
  </g>
 </g>
 <defs>
  <clipPath id="pb192a79d5b">
   <rect x="8.336802" y="4.076256" width="73.622957" height="70.34327"/>
  </clipPath>
 </defs>
</svg>
