<?xml version="1.0" encoding="utf-8" standalone="no"?>
<!DOCTYPE svg PUBLIC "-//W3C//DTD SVG 1.1//EN"
  "http://www.w3.org/Graphics/SVG/1.1/DTD/svg11.dtd">
<svg xmlns:xlink="http://www.w3.org/1999/xlink" width="56.16pt" height="84.96pt" viewBox="0 0 56.16 84.96" xmlns="http://www.w3.org/2000/svg" version="1.1">
 <metadata>
  <rdf:RDF xmlns:dc="http://purl.org/dc/elements/1.1/" xmlns:cc="http://creativecommons.org/ns#" xmlns:rdf="http://www.w3.org/1999/02/22-rdf-syntax-ns#">
   <cc:Work>
    <dc:type rdf:resource="http://purl.org/dc/dcmitype/StillImage"/>
    <dc:date>2024-05-27T15:37:10.158484</dc:date>
    <dc:format>image/svg+xml</dc:format>
    <dc:creator>
     <cc:Agent>
      <dc:title>Matplotlib v3.8.3, https://matplotlib.org/</dc:title>
     </cc:Agent>
    </dc:creator>
   </cc:Work>
  </rdf:RDF>
 </metadata>
 <defs>
  <style type="text/css">*{stroke-linejoin: round; stroke-linecap: butt}</style>
 </defs>
 <g id="figure_1">
  <g id="patch_1">
   <path d="M 0 84.96 
L 56.16 84.96 
L 56.16 0 
L 0 0 
z
" style="fill: #ffffff"/>
  </g>
  <g id="axes_1">
   <g id="patch_2">
    <path d="M 11.673365 74.419526 
L 53.15976 74.419526 
L 53.15976 4.076256 
L 11.673365 4.076256 
z
" style="fill: #ffffff"/>
   </g>
   <g id="matplotlib.axis_1">
    <g id="xtick_1">
     <g id="text_1">
      <!-- ILC2 -->
      <g style="fill: #333333" transform="translate(18.348636 81.230229) scale(0.035 -0.035)">
       <defs>
        <path id="Helvetica-49" d="M 628 4591 
L 1256 4591 
L 1256 0 
L 628 0 
L 628 4591 
z
" transform="scale(0.015625)"/>
        <path id="Helvetica-4c" d="M 488 4591 
L 1109 4591 
L 1109 547 
L 3434 547 
L 3434 0 
L 488 0 
L 488 4591 
z
" transform="scale(0.015625)"/>
        <path id="Helvetica-43" d="M 2422 4716 
Q 3294 4716 3775 4256 
Q 4256 3797 4309 3213 
L 3703 3213 
Q 3600 3656 3292 3915 
Q 2984 4175 2428 4175 
Q 1750 4175 1333 3698 
Q 916 3222 916 2238 
Q 916 1431 1292 929 
Q 1669 428 2416 428 
Q 3103 428 3463 956 
Q 3653 1234 3747 1688 
L 4353 1688 
Q 4272 963 3816 472 
Q 3269 -119 2341 -119 
Q 1541 -119 997 366 
Q 281 1006 281 2344 
Q 281 3359 819 4009 
Q 1400 4716 2422 4716 
z
M 2297 4716 
L 2297 4716 
z
" transform="scale(0.015625)"/>
        <path id="Helvetica-32" d="M 200 0 
Q 231 578 439 1006 
Q 647 1434 1250 1784 
L 1850 2131 
Q 2253 2366 2416 2531 
Q 2672 2791 2672 3125 
Q 2672 3516 2437 3745 
Q 2203 3975 1813 3975 
Q 1234 3975 1013 3538 
Q 894 3303 881 2888 
L 309 2888 
Q 319 3472 525 3841 
Q 891 4491 1816 4491 
Q 2584 4491 2939 4075 
Q 3294 3659 3294 3150 
Q 3294 2613 2916 2231 
Q 2697 2009 2131 1694 
L 1703 1456 
Q 1397 1288 1222 1134 
Q 909 863 828 531 
L 3272 531 
L 3272 0 
L 200 0 
z
" transform="scale(0.015625)"/>
       </defs>
       <use xlink:href="#Helvetica-49"/>
       <use xlink:href="#Helvetica-4c" x="27.783203"/>
       <use xlink:href="#Helvetica-43" x="83.398438"/>
       <use xlink:href="#Helvetica-32" x="155.615234"/>
      </g>
     </g>
    </g>
    <g id="xtick_2">
     <g id="text_2">
      <!-- TH2 -->
      <g style="fill: #333333" transform="translate(39.482302 81.230229) scale(0.035 -0.035)">
       <defs>
        <path id="Helvetica-54" d="M 3828 4591 
L 3828 4044 
L 2281 4044 
L 2281 0 
L 1650 0 
L 1650 4044 
L 103 4044 
L 103 4591 
L 3828 4591 
z
" transform="scale(0.015625)"/>
        <path id="Helvetica-48" d="M 503 4591 
L 1131 4591 
L 1131 2694 
L 3519 2694 
L 3519 4591 
L 4147 4591 
L 4147 0 
L 3519 0 
L 3519 2147 
L 1131 2147 
L 1131 0 
L 503 0 
L 503 4591 
z
" transform="scale(0.015625)"/>
       </defs>
       <use xlink:href="#Helvetica-54"/>
       <use xlink:href="#Helvetica-48" x="61.083984"/>
       <use xlink:href="#Helvetica-32" x="133.300781"/>
      </g>
     </g>
    </g>
   </g>
   <g id="matplotlib.axis_2">
    <g id="ytick_1">
     <g id="line2d_1">
      <defs>
       <path id="m32357d1b70" d="M 0 0 
L -1 0 
" style="stroke: #777777; stroke-width: 0.5"/>
      </defs>
      <g>
       <use xlink:href="#m32357d1b70" x="11.673365" y="64.727463" style="fill: #777777; stroke: #777777; stroke-width: 0.5"/>
      </g>
     </g>
     <g id="text_3">
      <!-- 0 -->
      <g style="fill: #333333" transform="translate(8.005084 65.803478) scale(0.03 -0.03)">
       <defs>
        <path id="Helvetica-30" d="M 1731 4475 
Q 2600 4475 2988 3759 
Q 3288 3206 3288 2244 
Q 3288 1331 3016 734 
Q 2622 -122 1728 -122 
Q 922 -122 528 578 
Q 200 1163 200 2147 
Q 200 2909 397 3456 
Q 766 4475 1731 4475 
z
M 1725 391 
Q 2163 391 2422 778 
Q 2681 1166 2681 2222 
Q 2681 2984 2493 3476 
Q 2306 3969 1766 3969 
Q 1269 3969 1039 3501 
Q 809 3034 809 2125 
Q 809 1441 956 1025 
Q 1181 391 1725 391 
z
" transform="scale(0.015625)"/>
       </defs>
       <use xlink:href="#Helvetica-30"/>
      </g>
     </g>
    </g>
    <g id="ytick_2">
     <g id="line2d_2">
      <g>
       <use xlink:href="#m32357d1b70" x="11.673365" y="52.597221" style="fill: #777777; stroke: #777777; stroke-width: 0.5"/>
      </g>
     </g>
     <g id="text_4">
      <!-- 1000 -->
      <g style="fill: #333333" transform="translate(3.00024 53.673237) scale(0.03 -0.03)">
       <defs>
        <path id="Helvetica-31" d="M 613 3169 
L 613 3600 
Q 1222 3659 1462 3798 
Q 1703 3938 1822 4456 
L 2266 4456 
L 2266 0 
L 1666 0 
L 1666 3169 
L 613 3169 
z
" transform="scale(0.015625)"/>
       </defs>
       <use xlink:href="#Helvetica-31"/>
       <use xlink:href="#Helvetica-30" x="55.615234"/>
       <use xlink:href="#Helvetica-30" x="111.230469"/>
       <use xlink:href="#Helvetica-30" x="166.845703"/>
      </g>
     </g>
    </g>
    <g id="ytick_3">
     <g id="line2d_3">
      <g>
       <use xlink:href="#m32357d1b70" x="11.673365" y="40.46698" style="fill: #777777; stroke: #777777; stroke-width: 0.5"/>
      </g>
     </g>
     <g id="text_5">
      <!-- 2000 -->
      <g style="fill: #333333" transform="translate(3.00024 41.542996) scale(0.03 -0.03)">
       <use xlink:href="#Helvetica-32"/>
       <use xlink:href="#Helvetica-30" x="55.615234"/>
       <use xlink:href="#Helvetica-30" x="111.230469"/>
       <use xlink:href="#Helvetica-30" x="166.845703"/>
      </g>
     </g>
    </g>
    <g id="ytick_4">
     <g id="line2d_4">
      <g>
       <use xlink:href="#m32357d1b70" x="11.673365" y="28.336738" style="fill: #777777; stroke: #777777; stroke-width: 0.5"/>
      </g>
     </g>
     <g id="text_6">
      <!-- 3000 -->
      <g style="fill: #333333" transform="translate(3.00024 29.412754) scale(0.03 -0.03)">
       <defs>
        <path id="Helvetica-33" d="M 1663 -122 
Q 869 -122 511 314 
Q 153 750 153 1375 
L 741 1375 
Q 778 941 903 744 
Q 1122 391 1694 391 
Q 2138 391 2406 628 
Q 2675 866 2675 1241 
Q 2675 1703 2392 1887 
Q 2109 2072 1606 2072 
Q 1550 2072 1492 2070 
Q 1434 2069 1375 2066 
L 1375 2563 
Q 1463 2553 1522 2550 
Q 1581 2547 1650 2547 
Q 1966 2547 2169 2647 
Q 2525 2822 2525 3272 
Q 2525 3606 2287 3787 
Q 2050 3969 1734 3969 
Q 1172 3969 956 3594 
Q 838 3388 822 3006 
L 266 3006 
Q 266 3506 466 3856 
Q 809 4481 1675 4481 
Q 2359 4481 2734 4176 
Q 3109 3872 3109 3294 
Q 3109 2881 2888 2625 
Q 2750 2466 2531 2375 
Q 2884 2278 3082 2001 
Q 3281 1725 3281 1325 
Q 3281 684 2859 281 
Q 2438 -122 1663 -122 
z
" transform="scale(0.015625)"/>
       </defs>
       <use xlink:href="#Helvetica-33"/>
       <use xlink:href="#Helvetica-30" x="55.615234"/>
       <use xlink:href="#Helvetica-30" x="111.230469"/>
       <use xlink:href="#Helvetica-30" x="166.845703"/>
      </g>
     </g>
    </g>
    <g id="ytick_5">
     <g id="line2d_5">
      <g>
       <use xlink:href="#m32357d1b70" x="11.673365" y="16.206497" style="fill: #777777; stroke: #777777; stroke-width: 0.5"/>
      </g>
     </g>
     <g id="text_7">
      <!-- 4000 -->
      <g style="fill: #333333" transform="translate(3.00024 17.282513) scale(0.03 -0.03)">
       <defs>
        <path id="Helvetica-34" d="M 2116 1584 
L 2116 3613 
L 681 1584 
L 2116 1584 
z
M 2125 0 
L 2125 1094 
L 163 1094 
L 163 1644 
L 2213 4488 
L 2688 4488 
L 2688 1584 
L 3347 1584 
L 3347 1094 
L 2688 1094 
L 2688 0 
L 2125 0 
z
" transform="scale(0.015625)"/>
       </defs>
       <use xlink:href="#Helvetica-34"/>
       <use xlink:href="#Helvetica-30" x="55.615234"/>
       <use xlink:href="#Helvetica-30" x="111.230469"/>
       <use xlink:href="#Helvetica-30" x="166.845703"/>
      </g>
     </g>
    </g>
    <g id="ytick_6">
     <g id="line2d_6">
      <g>
       <use xlink:href="#m32357d1b70" x="11.673365" y="4.076256" style="fill: #777777; stroke: #777777; stroke-width: 0.5"/>
      </g>
     </g>
     <g id="text_8">
      <!-- 5000 -->
      <g style="fill: #333333" transform="translate(3.00024 5.152271) scale(0.03 -0.03)">
       <defs>
        <path id="Helvetica-35" d="M 791 1141 
Q 847 659 1238 475 
Q 1438 381 1700 381 
Q 2200 381 2440 700 
Q 2681 1019 2681 1406 
Q 2681 1875 2395 2131 
Q 2109 2388 1709 2388 
Q 1419 2388 1211 2275 
Q 1003 2163 856 1963 
L 369 1991 
L 709 4400 
L 3034 4400 
L 3034 3856 
L 1131 3856 
L 941 2613 
Q 1097 2731 1238 2791 
Q 1488 2894 1816 2894 
Q 2431 2894 2859 2497 
Q 3288 2100 3288 1491 
Q 3288 856 2895 371 
Q 2503 -113 1644 -113 
Q 1097 -113 676 195 
Q 256 503 206 1141 
L 791 1141 
z
" transform="scale(0.015625)"/>
       </defs>
       <use xlink:href="#Helvetica-35"/>
       <use xlink:href="#Helvetica-30" x="55.615234"/>
       <use xlink:href="#Helvetica-30" x="111.230469"/>
       <use xlink:href="#Helvetica-30" x="166.845703"/>
      </g>
     </g>
    </g>
   </g>
   <g id="PolyCollection_1">
    <defs>
     <path id="m4830fdcc33" d="M 24.097711 -20.086506 
L 19.992216 -20.086506 
L 19.628552 -20.098945 
L 19.229923 -20.111383 
L 18.799374 -20.123821 
L 18.341428 -20.136259 
L 17.862093 -20.148698 
L 17.368792 -20.161136 
L 16.870204 -20.173574 
L 16.376021 -20.186013 
L 15.89663 -20.198451 
L 15.442732 -20.210889 
L 15.024915 -20.223328 
L 14.653212 -20.235766 
L 14.336664 -20.248204 
L 14.082923 -20.260642 
L 13.897912 -20.273081 
L 13.785568 -20.285519 
L 13.747685 -20.297957 
L 13.783862 -20.310396 
L 13.891557 -20.322834 
L 14.066237 -20.335272 
L 14.301614 -20.347711 
L 14.589955 -20.360149 
L 14.922421 -20.372587 
L 15.289442 -20.385025 
L 15.681084 -20.397464 
L 16.087401 -20.409902 
L 16.498749 -20.42234 
L 16.90606 -20.434779 
L 17.301062 -20.447217 
L 17.676452 -20.459655 
L 18.026012 -20.472094 
L 18.344689 -20.484532 
L 18.628621 -20.49697 
L 18.875144 -20.509408 
L 19.082753 -20.521847 
L 19.251056 -20.534285 
L 19.380691 -20.546723 
L 19.473237 -20.559162 
L 19.531107 -20.5716 
L 19.557423 -20.584038 
L 19.555891 -20.596477 
L 19.530661 -20.608915 
L 19.486187 -20.621353 
L 19.427091 -20.633791 
L 19.358022 -20.64623 
L 19.283539 -20.658668 
L 19.207991 -20.671106 
L 19.135425 -20.683545 
L 19.069503 -20.695983 
L 19.013442 -20.708421 
L 18.96996 -20.72086 
L 18.941254 -20.733298 
L 18.92897 -20.745736 
L 18.934203 -20.758174 
L 18.957485 -20.770613 
L 18.998799 -20.783051 
L 19.057581 -20.795489 
L 19.132743 -20.807928 
L 19.222698 -20.820366 
L 19.325391 -20.832804 
L 19.438352 -20.845243 
L 19.558754 -20.857681 
L 19.683492 -20.870119 
L 19.809277 -20.882557 
L 19.932742 -20.894996 
L 20.050564 -20.907434 
L 20.159591 -20.919872 
L 20.256969 -20.932311 
L 20.340269 -20.944749 
L 20.407602 -20.957187 
L 20.457711 -20.969626 
L 20.490046 -20.982064 
L 20.504801 -20.994502 
L 20.502924 -21.00694 
L 20.486087 -21.019379 
L 20.456617 -21.031817 
L 20.417403 -21.044255 
L 20.371759 -21.056694 
L 20.323277 -21.069132 
L 20.275656 -21.08157 
L 20.232528 -21.094009 
L 20.197286 -21.106447 
L 20.172929 -21.118885 
L 20.161926 -21.131323 
L 20.16611 -21.143762 
L 20.186613 -21.1562 
L 20.223837 -21.168638 
L 20.277465 -21.181077 
L 20.34651 -21.193515 
L 20.429399 -21.205953 
L 20.524082 -21.218392 
L 20.628161 -21.23083 
L 20.739024 -21.243268 
L 20.853986 -21.255706 
L 20.970414 -21.268145 
L 21.085844 -21.280583 
L 21.198071 -21.293021 
L 21.305218 -21.30546 
L 21.405777 -21.317898 
L 22.68415 -21.317898 
L 22.68415 -21.317898 
L 22.78471 -21.30546 
L 22.891856 -21.293021 
L 23.004083 -21.280583 
L 23.119514 -21.268145 
L 23.235942 -21.255706 
L 23.350904 -21.243268 
L 23.461767 -21.23083 
L 23.565845 -21.218392 
L 23.660529 -21.205953 
L 23.743418 -21.193515 
L 23.812463 -21.181077 
L 23.86609 -21.168638 
L 23.903315 -21.1562 
L 23.923818 -21.143762 
L 23.928002 -21.131323 
L 23.916998 -21.118885 
L 23.892641 -21.106447 
L 23.8574 -21.094009 
L 23.814272 -21.08157 
L 23.766651 -21.069132 
L 23.718169 -21.056694 
L 23.672525 -21.044255 
L 23.63331 -21.031817 
L 23.603841 -21.019379 
L 23.587003 -21.00694 
L 23.585127 -20.994502 
L 23.599882 -20.982064 
L 23.632217 -20.969626 
L 23.682326 -20.957187 
L 23.749659 -20.944749 
L 23.832959 -20.932311 
L 23.930337 -20.919872 
L 24.039363 -20.907434 
L 24.157186 -20.894996 
L 24.280651 -20.882557 
L 24.406435 -20.870119 
L 24.531173 -20.857681 
L 24.651575 -20.845243 
L 24.764536 -20.832804 
L 24.86723 -20.820366 
L 24.957184 -20.807928 
L 25.032347 -20.795489 
L 25.091129 -20.783051 
L 25.132442 -20.770613 
L 25.155725 -20.758174 
L 25.160957 -20.745736 
L 25.148674 -20.733298 
L 25.119967 -20.72086 
L 25.076486 -20.708421 
L 25.020424 -20.695983 
L 24.954503 -20.683545 
L 24.881937 -20.671106 
L 24.806389 -20.658668 
L 24.731905 -20.64623 
L 24.662837 -20.633791 
L 24.60374 -20.621353 
L 24.559267 -20.608915 
L 24.534037 -20.596477 
L 24.532505 -20.584038 
L 24.558821 -20.5716 
L 24.61669 -20.559162 
L 24.709237 -20.546723 
L 24.838872 -20.534285 
L 25.007174 -20.521847 
L 25.214784 -20.509408 
L 25.461306 -20.49697 
L 25.745239 -20.484532 
L 26.063915 -20.472094 
L 26.413476 -20.459655 
L 26.788865 -20.447217 
L 27.183867 -20.434779 
L 27.591178 -20.42234 
L 28.002526 -20.409902 
L 28.408843 -20.397464 
L 28.800486 -20.385025 
L 29.167507 -20.372587 
L 29.499973 -20.360149 
L 29.788313 -20.347711 
L 30.023691 -20.335272 
L 30.19837 -20.322834 
L 30.306065 -20.310396 
L 30.342243 -20.297957 
L 30.30436 -20.285519 
L 30.192016 -20.273081 
L 30.007004 -20.260642 
L 29.753263 -20.248204 
L 29.436716 -20.235766 
L 29.065013 -20.223328 
L 28.647196 -20.210889 
L 28.193298 -20.198451 
L 27.713907 -20.186013 
L 27.219724 -20.173574 
L 26.721135 -20.161136 
L 26.227834 -20.148698 
L 25.7485 -20.136259 
L 25.290553 -20.123821 
L 24.860005 -20.111383 
L 24.461376 -20.098945 
L 24.097711 -20.086506 
z
" style="stroke: #717171; stroke-width: 0.15"/>
    </defs>
    <g clip-path="url(#p8d08379d8c)">
     <use xlink:href="#m4830fdcc33" x="0" y="84.96" style="fill: #d6bba3; stroke: #717171; stroke-width: 0.15"/>
    </g>
   </g>
   <g id="PolyCollection_2">
    <defs>
     <path id="m7e58601ab1" d="M 44.271714 -18.095215 
L 41.304609 -18.095215 
L 40.992687 -18.273769 
L 40.6403 -18.452323 
L 40.248308 -18.630877 
L 39.819143 -18.809431 
L 39.356945 -18.987985 
L 38.867628 -19.166539 
L 38.35883 -19.345093 
L 37.839775 -19.523647 
L 37.321008 -19.702201 
L 36.814037 -19.880755 
L 36.330878 -20.059309 
L 35.883544 -20.237863 
L 35.483497 -20.416416 
L 35.141102 -20.59497 
L 34.865118 -20.773524 
L 34.662272 -20.952078 
L 34.536927 -21.130632 
L 34.490882 -21.309186 
L 34.523313 -21.48774 
L 34.630858 -21.666294 
L 34.807836 -21.844848 
L 35.046589 -22.023402 
L 35.337915 -22.201956 
L 35.671573 -22.38051 
L 36.036807 -22.559064 
L 36.422877 -22.737618 
L 36.819546 -22.916172 
L 37.21751 -23.094726 
L 37.608733 -23.273279 
L 37.986684 -23.451833 
L 38.346462 -23.630387 
L 38.684815 -23.808941 
L 39.000052 -23.987495 
L 39.291869 -24.166049 
L 39.561117 -24.344603 
L 39.809512 -24.523157 
L 40.039339 -24.701711 
L 40.253157 -24.880265 
L 40.453526 -25.058819 
L 40.642789 -25.237373 
L 40.822901 -25.415927 
L 40.995328 -25.594481 
L 41.161003 -25.773035 
L 41.32034 -25.951588 
L 41.473299 -26.130142 
L 41.619478 -26.308696 
L 41.75823 -26.48725 
L 41.888787 -26.665804 
L 42.010369 -26.844358 
L 42.122287 -27.022912 
L 42.224015 -27.201466 
L 42.315237 -27.38002 
L 42.395865 -27.558574 
L 42.466037 -27.737128 
L 42.526086 -27.915682 
L 42.576499 -28.094236 
L 42.617864 -28.27279 
L 42.650812 -28.451344 
L 42.675959 -28.629898 
L 42.693859 -28.808451 
L 42.704956 -28.987005 
L 42.709553 -29.165559 
L 42.707793 -29.344113 
L 42.699654 -29.522667 
L 42.684952 -29.701221 
L 42.663367 -29.879775 
L 42.634483 -30.058329 
L 42.59783 -30.236883 
L 42.552953 -30.415437 
L 42.499477 -30.593991 
L 42.437188 -30.772545 
L 42.366108 -30.951099 
L 42.286567 -31.129653 
L 42.199268 -31.308207 
L 42.105326 -31.48676 
L 42.006294 -31.665314 
L 41.904152 -31.843868 
L 41.801267 -32.022422 
L 41.700322 -32.200976 
L 41.604206 -32.37953 
L 41.515894 -32.558084 
L 41.438287 -32.736638 
L 41.374064 -32.915192 
L 41.325528 -33.093746 
L 41.294467 -33.2723 
L 41.282047 -33.450854 
L 41.288739 -33.629408 
L 41.314288 -33.807962 
L 41.357733 -33.986516 
L 41.417463 -34.16507 
L 41.491318 -34.343623 
L 41.576718 -34.522177 
L 41.670813 -34.700731 
L 41.770639 -34.879285 
L 41.873271 -35.057839 
L 41.975959 -35.236393 
L 42.076245 -35.414947 
L 42.172044 -35.593501 
L 42.261698 -35.772055 
L 43.314624 -35.772055 
L 43.314624 -35.772055 
L 43.404279 -35.593501 
L 43.500077 -35.414947 
L 43.600363 -35.236393 
L 43.703052 -35.057839 
L 43.805683 -34.879285 
L 43.90551 -34.700731 
L 43.999605 -34.522177 
L 44.085005 -34.343623 
L 44.15886 -34.16507 
L 44.21859 -33.986516 
L 44.262034 -33.807962 
L 44.287584 -33.629408 
L 44.294275 -33.450854 
L 44.281855 -33.2723 
L 44.250794 -33.093746 
L 44.202258 -32.915192 
L 44.138036 -32.736638 
L 44.060429 -32.558084 
L 43.972116 -32.37953 
L 43.876001 -32.200976 
L 43.775055 -32.022422 
L 43.67217 -31.843868 
L 43.570028 -31.665314 
L 43.470996 -31.48676 
L 43.377055 -31.308207 
L 43.289755 -31.129653 
L 43.210214 -30.951099 
L 43.139134 -30.772545 
L 43.076846 -30.593991 
L 43.02337 -30.415437 
L 42.978492 -30.236883 
L 42.941839 -30.058329 
L 42.912955 -29.879775 
L 42.891371 -29.701221 
L 42.876669 -29.522667 
L 42.868529 -29.344113 
L 42.86677 -29.165559 
L 42.871367 -28.987005 
L 42.882464 -28.808451 
L 42.900364 -28.629898 
L 42.925511 -28.451344 
L 42.958458 -28.27279 
L 42.999823 -28.094236 
L 43.050236 -27.915682 
L 43.110285 -27.737128 
L 43.180458 -27.558574 
L 43.261086 -27.38002 
L 43.352307 -27.201466 
L 43.454035 -27.022912 
L 43.565954 -26.844358 
L 43.687536 -26.665804 
L 43.818092 -26.48725 
L 43.956845 -26.308696 
L 44.103023 -26.130142 
L 44.255982 -25.951588 
L 44.41532 -25.773035 
L 44.580995 -25.594481 
L 44.753422 -25.415927 
L 44.933534 -25.237373 
L 45.122796 -25.058819 
L 45.323165 -24.880265 
L 45.536983 -24.701711 
L 45.766811 -24.523157 
L 46.015206 -24.344603 
L 46.284454 -24.166049 
L 46.576271 -23.987495 
L 46.891507 -23.808941 
L 47.22986 -23.630387 
L 47.589639 -23.451833 
L 47.96759 -23.273279 
L 48.358813 -23.094726 
L 48.756777 -22.916172 
L 49.153446 -22.737618 
L 49.539515 -22.559064 
L 49.904749 -22.38051 
L 50.238407 -22.201956 
L 50.529734 -22.023402 
L 50.768486 -21.844848 
L 50.945464 -21.666294 
L 51.053009 -21.48774 
L 51.08544 -21.309186 
L 51.039395 -21.130632 
L 50.91405 -20.952078 
L 50.711204 -20.773524 
L 50.435221 -20.59497 
L 50.092825 -20.416416 
L 49.692778 -20.237863 
L 49.245445 -20.059309 
L 48.762286 -19.880755 
L 48.255314 -19.702201 
L 47.736548 -19.523647 
L 47.217493 -19.345093 
L 46.708695 -19.166539 
L 46.219377 -18.987985 
L 45.75718 -18.809431 
L 45.328014 -18.630877 
L 44.936023 -18.452323 
L 44.583636 -18.273769 
L 44.271714 -18.095215 
z
" style="stroke: #717171; stroke-width: 0.15"/>
    </defs>
    <g clip-path="url(#p8d08379d8c)">
     <use xlink:href="#m7e58601ab1" x="0" y="84.96" style="fill: #f1b9e0; stroke: #717171; stroke-width: 0.15"/>
    </g>
   </g>
   <g id="line2d_7">
    <path d="M 22.044964 64.700747 
L 22.044964 63.814849 
" clip-path="url(#p8d08379d8c)" style="fill: none; stroke: #8c8c8c; stroke-width: 0.75; stroke-linecap: round"/>
   </g>
   <g id="line2d_8">
    <path d="M 22.044964 64.673364 
L 22.044964 64.241324 
" clip-path="url(#p8d08379d8c)" style="fill: none; stroke: #8c8c8c; stroke-width: 4; stroke-linecap: round"/>
   </g>
   <g id="line2d_9">
    <path d="M 22.044964 64.605338 
" clip-path="url(#p8d08379d8c)" style="fill: none; stroke: #717171; stroke-width: 1.2; stroke-linecap: round"/>
    <defs>
     <path id="me96a3aafb6" d="M 0 0.833333 
C 0.221003 0.833333 0.432983 0.745528 0.589256 0.589256 
C 0.745528 0.432983 0.833333 0.221003 0.833333 0 
C 0.833333 -0.221003 0.745528 -0.432983 0.589256 -0.589256 
C 0.432983 -0.745528 0.221003 -0.833333 0 -0.833333 
C -0.221003 -0.833333 -0.432983 -0.745528 -0.589256 -0.589256 
C -0.745528 -0.432983 -0.833333 -0.221003 -0.833333 0 
C -0.833333 0.221003 -0.745528 0.432983 -0.589256 0.589256 
C -0.432983 0.745528 -0.221003 0.833333 0 0.833333 
z
" style="stroke: #ffffff; stroke-width: 0.8"/>
    </defs>
    <g clip-path="url(#p8d08379d8c)">
     <use xlink:href="#me96a3aafb6" x="22.044964" y="64.605338" style="fill: #ffffff; stroke: #ffffff; stroke-width: 0.8"/>
    </g>
   </g>
   <g id="line2d_10">
    <path d="M 42.788161 64.570426 
L 42.788161 60.034319 
" clip-path="url(#p8d08379d8c)" style="fill: none; stroke: #8c8c8c; stroke-width: 0.75; stroke-linecap: round"/>
   </g>
   <g id="line2d_11">
    <path d="M 42.788161 63.98406 
L 42.788161 61.831326 
" clip-path="url(#p8d08379d8c)" style="fill: none; stroke: #8c8c8c; stroke-width: 4; stroke-linecap: round"/>
   </g>
   <g id="line2d_12">
    <path d="M 42.788161 63.460955 
" clip-path="url(#p8d08379d8c)" style="fill: none; stroke: #717171; stroke-width: 1.2; stroke-linecap: round"/>
    <g clip-path="url(#p8d08379d8c)">
     <use xlink:href="#me96a3aafb6" x="42.788161" y="63.460955" style="fill: #ffffff; stroke: #ffffff; stroke-width: 0.8"/>
    </g>
   </g>
   <g id="patch_3">
    <path d="M 11.673365 74.419526 
L 11.673365 4.076256 
" style="fill: none; stroke: #777777; stroke-width: 0.5; stroke-linejoin: miter; stroke-linecap: square"/>
   </g>
   <g id="patch_4">
    <path d="M 11.673365 76.919526 
L 53.15976 76.919526 
" style="fill: none; stroke: #777777; stroke-width: 0.5; stroke-linejoin: miter; stroke-linecap: square"/>
   </g>
  </g>
 </g>
 <defs>
  <clipPath id="p8d08379d8c">
   <rect x="11.673365" y="4.076256" width="41.486395" height="70.34327"/>
  </clipPath>
 </defs>
</svg>
