<?xml version="1.0" encoding="utf-8" standalone="no"?>
<!DOCTYPE svg PUBLIC "-//W3C//DTD SVG 1.1//EN"
  "http://www.w3.org/Graphics/SVG/1.1/DTD/svg11.dtd">
<svg xmlns:xlink="http://www.w3.org/1999/xlink" width="56.16pt" height="84.96pt" viewBox="0 0 56.16 84.96" xmlns="http://www.w3.org/2000/svg" version="1.1">
 <metadata>
  <rdf:RDF xmlns:dc="http://purl.org/dc/elements/1.1/" xmlns:cc="http://creativecommons.org/ns#" xmlns:rdf="http://www.w3.org/1999/02/22-rdf-syntax-ns#">
   <cc:Work>
    <dc:type rdf:resource="http://purl.org/dc/dcmitype/StillImage"/>
    <dc:date>2024-05-27T15:36:59.433856</dc:date>
    <dc:format>image/svg+xml</dc:format>
    <dc:creator>
     <cc:Agent>
      <dc:title>Matplotlib v3.8.3, https://matplotlib.org/</dc:title>
     </cc:Agent>
    </dc:creator>
   </cc:Work>
  </rdf:RDF>
 </metadata>
 <defs>
  <style type="text/css">*{stroke-linejoin: round; stroke-linecap: butt}</style>
 </defs>
 <g id="figure_1">
  <g id="patch_1">
   <path d="M 0 84.96 
L 56.16 84.96 
L 56.16 0 
L 0 0 
z
" style="fill: #ffffff"/>
  </g>
  <g id="axes_1">
   <g id="patch_2">
    <path d="M 10.005084 74.419526 
L 53.15976 74.419526 
L 53.15976 4.076256 
L 10.005084 4.076256 
z
" style="fill: #ffffff"/>
   </g>
   <g id="matplotlib.axis_1">
    <g id="xtick_1">
     <g id="text_1">
      <!-- GATA+ Cells -->
      <g style="fill: #333333" transform="translate(10.631175 81.230229) scale(0.035 -0.035)">
       <defs>
        <path id="Helvetica-47" d="M 2472 4709 
Q 3119 4709 3591 4459 
Q 4275 4100 4428 3200 
L 3813 3200 
Q 3700 3703 3347 3933 
Q 2994 4163 2456 4163 
Q 1819 4163 1383 3684 
Q 947 3206 947 2259 
Q 947 1441 1306 927 
Q 1666 413 2478 413 
Q 3100 413 3508 773 
Q 3916 1134 3925 1941 
L 2488 1941 
L 2488 2456 
L 4503 2456 
L 4503 0 
L 4103 0 
L 3953 591 
Q 3638 244 3394 109 
Q 2984 -122 2353 -122 
Q 1538 -122 950 406 
Q 309 1069 309 2225 
Q 309 3378 934 4059 
Q 1528 4709 2472 4709 
z
M 2369 4716 
L 2369 4716 
z
" transform="scale(0.015625)"/>
        <path id="Helvetica-41" d="M 2844 1881 
L 2147 3909 
L 1406 1881 
L 2844 1881 
z
M 1822 4591 
L 2525 4591 
L 4191 0 
L 3509 0 
L 3044 1375 
L 1228 1375 
L 731 0 
L 94 0 
L 1822 4591 
z
" transform="scale(0.015625)"/>
        <path id="Helvetica-54" d="M 3828 4591 
L 3828 4044 
L 2281 4044 
L 2281 0 
L 1650 0 
L 1650 4044 
L 103 4044 
L 103 4591 
L 3828 4591 
z
" transform="scale(0.015625)"/>
        <path id="Helvetica-2b" d="M 288 1369 
L 288 1894 
L 1650 1894 
L 1650 3266 
L 2184 3266 
L 2184 1894 
L 3547 1894 
L 3547 1369 
L 2184 1369 
L 2184 0 
L 1650 0 
L 1650 1369 
L 288 1369 
z
" transform="scale(0.015625)"/>
        <path id="Helvetica-20" transform="scale(0.015625)"/>
        <path id="Helvetica-43" d="M 2422 4716 
Q 3294 4716 3775 4256 
Q 4256 3797 4309 3213 
L 3703 3213 
Q 3600 3656 3292 3915 
Q 2984 4175 2428 4175 
Q 1750 4175 1333 3698 
Q 916 3222 916 2238 
Q 916 1431 1292 929 
Q 1669 428 2416 428 
Q 3103 428 3463 956 
Q 3653 1234 3747 1688 
L 4353 1688 
Q 4272 963 3816 472 
Q 3269 -119 2341 -119 
Q 1541 -119 997 366 
Q 281 1006 281 2344 
Q 281 3359 819 4009 
Q 1400 4716 2422 4716 
z
M 2297 4716 
L 2297 4716 
z
" transform="scale(0.015625)"/>
        <path id="Helvetica-65" d="M 1806 3422 
Q 2163 3422 2497 3255 
Q 2831 3088 3006 2822 
Q 3175 2569 3231 2231 
Q 3281 2000 3281 1494 
L 828 1494 
Q 844 984 1069 676 
Q 1294 369 1766 369 
Q 2206 369 2469 659 
Q 2619 828 2681 1050 
L 3234 1050 
Q 3213 866 3089 639 
Q 2966 413 2813 269 
Q 2556 19 2178 -69 
Q 1975 -119 1719 -119 
Q 1094 -119 659 336 
Q 225 791 225 1609 
Q 225 2416 662 2919 
Q 1100 3422 1806 3422 
z
M 2703 1941 
Q 2669 2306 2544 2525 
Q 2313 2931 1772 2931 
Q 1384 2931 1121 2651 
Q 859 2372 844 1941 
L 2703 1941 
z
M 1753 3428 
L 1753 3428 
z
" transform="scale(0.015625)"/>
        <path id="Helvetica-6c" d="M 428 4591 
L 991 4591 
L 991 0 
L 428 0 
L 428 4591 
z
" transform="scale(0.015625)"/>
        <path id="Helvetica-73" d="M 747 1050 
Q 772 769 888 619 
Q 1100 347 1625 347 
Q 1938 347 2175 483 
Q 2413 619 2413 903 
Q 2413 1119 2222 1231 
Q 2100 1300 1741 1391 
L 1294 1503 
Q 866 1609 663 1741 
Q 300 1969 300 2372 
Q 300 2847 642 3140 
Q 984 3434 1563 3434 
Q 2319 3434 2653 2991 
Q 2863 2709 2856 2384 
L 2325 2384 
Q 2309 2575 2191 2731 
Q 1997 2953 1519 2953 
Q 1200 2953 1036 2831 
Q 872 2709 872 2509 
Q 872 2291 1088 2159 
Q 1213 2081 1456 2022 
L 1828 1931 
Q 2434 1784 2641 1647 
Q 2969 1431 2969 969 
Q 2969 522 2630 197 
Q 2291 -128 1597 -128 
Q 850 -128 539 211 
Q 228 550 206 1050 
L 747 1050 
z
M 1578 3428 
L 1578 3428 
z
" transform="scale(0.015625)"/>
       </defs>
       <use xlink:href="#Helvetica-47"/>
       <use xlink:href="#Helvetica-41" x="77.783203"/>
       <use xlink:href="#Helvetica-54" x="144.482422"/>
       <use xlink:href="#Helvetica-41" x="205.566406"/>
       <use xlink:href="#Helvetica-2b" x="272.265625"/>
       <use xlink:href="#Helvetica-20" x="330.664062"/>
       <use xlink:href="#Helvetica-43" x="358.447266"/>
       <use xlink:href="#Helvetica-65" x="430.664062"/>
       <use xlink:href="#Helvetica-6c" x="486.279297"/>
       <use xlink:href="#Helvetica-6c" x="508.496094"/>
       <use xlink:href="#Helvetica-73" x="530.712891"/>
      </g>
     </g>
    </g>
    <g id="xtick_2">
     <g id="text_2">
      <!-- ICOS+ Cells -->
      <g style="fill: #333333" transform="translate(32.694685 81.230229) scale(0.035 -0.035)">
       <defs>
        <path id="Helvetica-49" d="M 628 4591 
L 1256 4591 
L 1256 0 
L 628 0 
L 628 4591 
z
" transform="scale(0.015625)"/>
        <path id="Helvetica-4f" d="M 2469 4716 
Q 3684 4716 4269 3934 
Q 4725 3325 4725 2375 
Q 4725 1347 4203 666 
Q 3591 -134 2456 -134 
Q 1397 -134 791 566 
Q 250 1241 250 2272 
Q 250 3203 713 3866 
Q 1306 4716 2469 4716 
z
M 2531 422 
Q 3353 422 3720 1011 
Q 4088 1600 4088 2366 
Q 4088 3175 3664 3669 
Q 3241 4163 2506 4163 
Q 1794 4163 1344 3673 
Q 894 3184 894 2231 
Q 894 1469 1280 945 
Q 1666 422 2531 422 
z
M 2488 4716 
L 2488 4716 
z
" transform="scale(0.015625)"/>
        <path id="Helvetica-53" d="M 894 1481 
Q 916 1091 1078 847 
Q 1388 391 2169 391 
Q 2519 391 2806 491 
Q 3363 684 3363 1184 
Q 3363 1559 3128 1719 
Q 2891 1875 2384 1991 
L 1763 2131 
Q 1153 2269 900 2434 
Q 463 2722 463 3294 
Q 463 3913 891 4309 
Q 1319 4706 2103 4706 
Q 2825 4706 3329 4357 
Q 3834 4009 3834 3244 
L 3250 3244 
Q 3203 3613 3050 3809 
Q 2766 4169 2084 4169 
Q 1534 4169 1293 3937 
Q 1053 3706 1053 3400 
Q 1053 3063 1334 2906 
Q 1519 2806 2169 2656 
L 2813 2509 
Q 3278 2403 3531 2219 
Q 3969 1897 3969 1284 
Q 3969 522 3414 194 
Q 2859 -134 2125 -134 
Q 1269 -134 784 303 
Q 300 738 309 1481 
L 894 1481 
z
M 2150 4716 
L 2150 4716 
z
" transform="scale(0.015625)"/>
       </defs>
       <use xlink:href="#Helvetica-49"/>
       <use xlink:href="#Helvetica-43" x="27.783203"/>
       <use xlink:href="#Helvetica-4f" x="100"/>
       <use xlink:href="#Helvetica-53" x="177.783203"/>
       <use xlink:href="#Helvetica-2b" x="244.482422"/>
       <use xlink:href="#Helvetica-20" x="302.880859"/>
       <use xlink:href="#Helvetica-43" x="330.664062"/>
       <use xlink:href="#Helvetica-65" x="402.880859"/>
       <use xlink:href="#Helvetica-6c" x="458.496094"/>
       <use xlink:href="#Helvetica-6c" x="480.712891"/>
       <use xlink:href="#Helvetica-73" x="502.929688"/>
      </g>
     </g>
    </g>
   </g>
   <g id="matplotlib.axis_2">
    <g id="ytick_1">
     <g id="line2d_1">
      <defs>
       <path id="m3b7c951c39" d="M 0 0 
L -1 0 
" style="stroke: #777777; stroke-width: 0.5"/>
      </defs>
      <g>
       <use xlink:href="#m3b7c951c39" x="10.005084" y="66.189518" style="fill: #777777; stroke: #777777; stroke-width: 0.5"/>
      </g>
     </g>
     <g id="text_3">
      <!-- 0 -->
      <g style="fill: #333333" transform="translate(6.336802 67.265534) scale(0.03 -0.03)">
       <defs>
        <path id="Helvetica-30" d="M 1731 4475 
Q 2600 4475 2988 3759 
Q 3288 3206 3288 2244 
Q 3288 1331 3016 734 
Q 2622 -122 1728 -122 
Q 922 -122 528 578 
Q 200 1163 200 2147 
Q 200 2909 397 3456 
Q 766 4475 1731 4475 
z
M 1725 391 
Q 2163 391 2422 778 
Q 2681 1166 2681 2222 
Q 2681 2984 2493 3476 
Q 2306 3969 1766 3969 
Q 1269 3969 1039 3501 
Q 809 3034 809 2125 
Q 809 1441 956 1025 
Q 1181 391 1725 391 
z
" transform="scale(0.015625)"/>
       </defs>
       <use xlink:href="#Helvetica-30"/>
      </g>
     </g>
    </g>
    <g id="ytick_2">
     <g id="line2d_2">
      <g>
       <use xlink:href="#m3b7c951c39" x="10.005084" y="55.837308" style="fill: #777777; stroke: #777777; stroke-width: 0.5"/>
      </g>
     </g>
     <g id="text_4">
      <!-- 20 -->
      <g style="fill: #333333" transform="translate(4.668521 56.913323) scale(0.03 -0.03)">
       <defs>
        <path id="Helvetica-32" d="M 200 0 
Q 231 578 439 1006 
Q 647 1434 1250 1784 
L 1850 2131 
Q 2253 2366 2416 2531 
Q 2672 2791 2672 3125 
Q 2672 3516 2437 3745 
Q 2203 3975 1813 3975 
Q 1234 3975 1013 3538 
Q 894 3303 881 2888 
L 309 2888 
Q 319 3472 525 3841 
Q 891 4491 1816 4491 
Q 2584 4491 2939 4075 
Q 3294 3659 3294 3150 
Q 3294 2613 2916 2231 
Q 2697 2009 2131 1694 
L 1703 1456 
Q 1397 1288 1222 1134 
Q 909 863 828 531 
L 3272 531 
L 3272 0 
L 200 0 
z
" transform="scale(0.015625)"/>
       </defs>
       <use xlink:href="#Helvetica-32"/>
       <use xlink:href="#Helvetica-30" x="55.615234"/>
      </g>
     </g>
    </g>
    <g id="ytick_3">
     <g id="line2d_3">
      <g>
       <use xlink:href="#m3b7c951c39" x="10.005084" y="45.485097" style="fill: #777777; stroke: #777777; stroke-width: 0.5"/>
      </g>
     </g>
     <g id="text_5">
      <!-- 40 -->
      <g style="fill: #333333" transform="translate(4.668521 46.561113) scale(0.03 -0.03)">
       <defs>
        <path id="Helvetica-34" d="M 2116 1584 
L 2116 3613 
L 681 1584 
L 2116 1584 
z
M 2125 0 
L 2125 1094 
L 163 1094 
L 163 1644 
L 2213 4488 
L 2688 4488 
L 2688 1584 
L 3347 1584 
L 3347 1094 
L 2688 1094 
L 2688 0 
L 2125 0 
z
" transform="scale(0.015625)"/>
       </defs>
       <use xlink:href="#Helvetica-34"/>
       <use xlink:href="#Helvetica-30" x="55.615234"/>
      </g>
     </g>
    </g>
    <g id="ytick_4">
     <g id="line2d_4">
      <g>
       <use xlink:href="#m3b7c951c39" x="10.005084" y="35.132887" style="fill: #777777; stroke: #777777; stroke-width: 0.5"/>
      </g>
     </g>
     <g id="text_6">
      <!-- 60 -->
      <g style="fill: #333333" transform="translate(4.668521 36.208903) scale(0.03 -0.03)">
       <defs>
        <path id="Helvetica-36" d="M 1872 4494 
Q 2622 4494 2917 4105 
Q 3213 3716 3213 3303 
L 2656 3303 
Q 2606 3569 2497 3719 
Q 2294 4000 1881 4000 
Q 1409 4000 1131 3564 
Q 853 3128 822 2316 
Q 1016 2600 1309 2741 
Q 1578 2866 1909 2866 
Q 2472 2866 2890 2506 
Q 3309 2147 3309 1434 
Q 3309 825 2912 354 
Q 2516 -116 1781 -116 
Q 1153 -116 697 361 
Q 241 838 241 1966 
Q 241 2800 444 3381 
Q 834 4494 1872 4494 
z
M 1831 384 
Q 2275 384 2495 682 
Q 2716 981 2716 1388 
Q 2716 1731 2519 2042 
Q 2322 2353 1803 2353 
Q 1441 2353 1167 2112 
Q 894 1872 894 1388 
Q 894 963 1142 673 
Q 1391 384 1831 384 
z
" transform="scale(0.015625)"/>
       </defs>
       <use xlink:href="#Helvetica-36"/>
       <use xlink:href="#Helvetica-30" x="55.615234"/>
      </g>
     </g>
    </g>
    <g id="ytick_5">
     <g id="line2d_5">
      <g>
       <use xlink:href="#m3b7c951c39" x="10.005084" y="24.780677" style="fill: #777777; stroke: #777777; stroke-width: 0.5"/>
      </g>
     </g>
     <g id="text_7">
      <!-- 80 -->
      <g style="fill: #333333" transform="translate(4.668521 25.856692) scale(0.03 -0.03)">
       <defs>
        <path id="Helvetica-38" d="M 1741 2600 
Q 2113 2600 2322 2808 
Q 2531 3016 2531 3303 
Q 2531 3553 2331 3762 
Q 2131 3972 1722 3972 
Q 1316 3972 1134 3762 
Q 953 3553 953 3272 
Q 953 2956 1187 2778 
Q 1422 2600 1741 2600 
z
M 1775 384 
Q 2166 384 2423 595 
Q 2681 806 2681 1225 
Q 2681 1659 2415 1884 
Q 2150 2109 1734 2109 
Q 1331 2109 1076 1879 
Q 822 1650 822 1244 
Q 822 894 1055 639 
Q 1288 384 1775 384 
z
M 975 2384 
Q 741 2484 609 2619 
Q 363 2869 363 3269 
Q 363 3769 725 4128 
Q 1088 4488 1753 4488 
Q 2397 4488 2762 4148 
Q 3128 3809 3128 3356 
Q 3128 2938 2916 2678 
Q 2797 2531 2547 2391 
Q 2825 2263 2984 2097 
Q 3281 1784 3281 1284 
Q 3281 694 2884 283 
Q 2488 -128 1763 -128 
Q 1109 -128 657 226 
Q 206 581 206 1256 
Q 206 1653 400 1942 
Q 594 2231 975 2384 
z
" transform="scale(0.015625)"/>
       </defs>
       <use xlink:href="#Helvetica-38"/>
       <use xlink:href="#Helvetica-30" x="55.615234"/>
      </g>
     </g>
    </g>
    <g id="ytick_6">
     <g id="line2d_6">
      <g>
       <use xlink:href="#m3b7c951c39" x="10.005084" y="14.428466" style="fill: #777777; stroke: #777777; stroke-width: 0.5"/>
      </g>
     </g>
     <g id="text_8">
      <!-- 100 -->
      <g style="fill: #333333" transform="translate(3.00024 15.504482) scale(0.03 -0.03)">
       <defs>
        <path id="Helvetica-31" d="M 613 3169 
L 613 3600 
Q 1222 3659 1462 3798 
Q 1703 3938 1822 4456 
L 2266 4456 
L 2266 0 
L 1666 0 
L 1666 3169 
L 613 3169 
z
" transform="scale(0.015625)"/>
       </defs>
       <use xlink:href="#Helvetica-31"/>
       <use xlink:href="#Helvetica-30" x="55.615234"/>
       <use xlink:href="#Helvetica-30" x="111.230469"/>
      </g>
     </g>
    </g>
    <g id="ytick_7">
     <g id="line2d_7">
      <g>
       <use xlink:href="#m3b7c951c39" x="10.005084" y="4.076256" style="fill: #777777; stroke: #777777; stroke-width: 0.5"/>
      </g>
     </g>
     <g id="text_9">
      <!-- 120 -->
      <g style="fill: #333333" transform="translate(3.00024 5.152271) scale(0.03 -0.03)">
       <use xlink:href="#Helvetica-31"/>
       <use xlink:href="#Helvetica-32" x="55.615234"/>
       <use xlink:href="#Helvetica-30" x="111.230469"/>
      </g>
     </g>
    </g>
   </g>
   <g id="PolyCollection_1">
    <defs>
     <path id="m16e043e423" d="M 21.766746 -16.659374 
L 19.82076 -16.659374 
L 19.621824 -16.962557 
L 19.39761 -17.265739 
L 19.148175 -17.568921 
L 18.874198 -17.872104 
L 18.57699 -18.175286 
L 18.258458 -18.478469 
L 17.921048 -18.781651 
L 17.567652 -19.084833 
L 17.201502 -19.388016 
L 16.826054 -19.691198 
L 16.444875 -19.994381 
L 16.061546 -20.297563 
L 15.679583 -20.600745 
L 15.302393 -20.903928 
L 14.933249 -21.20711 
L 14.575293 -21.510293 
L 14.231553 -21.813475 
L 13.904972 -22.116657 
L 13.598424 -22.41984 
L 13.314729 -22.723022 
L 13.056639 -23.026205 
L 12.82681 -23.329387 
L 12.627749 -23.632569 
L 12.46175 -23.935752 
L 12.330821 -24.238934 
L 12.236613 -24.542117 
L 12.180357 -24.845299 
L 12.162818 -25.148481 
L 12.184261 -25.451664 
L 12.244439 -25.754846 
L 12.342588 -26.058029 
L 12.477426 -26.361211 
L 12.647153 -26.664393 
L 12.849449 -26.967576 
L 13.081467 -27.270758 
L 13.339824 -27.573941 
L 13.620604 -27.877123 
L 13.919381 -28.180306 
L 14.231269 -28.483488 
L 14.551026 -28.78667 
L 14.873193 -29.089853 
L 15.192293 -29.393035 
L 15.503067 -29.696218 
L 15.800733 -29.9994 
L 16.081252 -30.302582 
L 16.341567 -30.605765 
L 16.579796 -30.908947 
L 16.795346 -31.21213 
L 16.988936 -31.515312 
L 17.162522 -31.818494 
L 17.319113 -32.121677 
L 17.462515 -32.424859 
L 17.596993 -32.728042 
L 17.726913 -33.031224 
L 17.856374 -33.334406 
L 17.988873 -33.637589 
L 18.12703 -33.940771 
L 18.272397 -34.243954 
L 18.425354 -34.547136 
L 18.585106 -34.850318 
L 18.749776 -35.153501 
L 18.916556 -35.456683 
L 19.081929 -35.759866 
L 19.241914 -36.063048 
L 19.392319 -36.36623 
L 19.528994 -36.669413 
L 19.648053 -36.972595 
L 19.746061 -37.275778 
L 19.820195 -37.57896 
L 19.86836 -37.882142 
L 19.889277 -38.185325 
L 19.882542 -38.488507 
L 19.84866 -38.79169 
L 19.789063 -39.094872 
L 19.706091 -39.398054 
L 19.602964 -39.701237 
L 19.48371 -40.004419 
L 19.353061 -40.307602 
L 19.216311 -40.610784 
L 19.079132 -40.913966 
L 18.947348 -41.217149 
L 18.82669 -41.520331 
L 18.722525 -41.823514 
L 18.639591 -42.126696 
L 18.581759 -42.429878 
L 18.551823 -42.733061 
L 18.551363 -43.036243 
L 18.580671 -43.339426 
L 18.638761 -43.642608 
L 18.723458 -43.94579 
L 18.831559 -44.248973 
L 18.959055 -44.552155 
L 19.101391 -44.855338 
L 19.253742 -45.15852 
L 19.411291 -45.461702 
L 19.569476 -45.764885 
L 19.724201 -46.068067 
L 19.871991 -46.37125 
L 20.010089 -46.674432 
L 21.577417 -46.674432 
L 21.577417 -46.674432 
L 21.715515 -46.37125 
L 21.863304 -46.068067 
L 22.018029 -45.764885 
L 22.176214 -45.461702 
L 22.333763 -45.15852 
L 22.486114 -44.855338 
L 22.62845 -44.552155 
L 22.755947 -44.248973 
L 22.864048 -43.94579 
L 22.948745 -43.642608 
L 23.006835 -43.339426 
L 23.036143 -43.036243 
L 23.035683 -42.733061 
L 23.005747 -42.429878 
L 22.947914 -42.126696 
L 22.864981 -41.823514 
L 22.760815 -41.520331 
L 22.640157 -41.217149 
L 22.508374 -40.913966 
L 22.371194 -40.610784 
L 22.234445 -40.307602 
L 22.103796 -40.004419 
L 21.984542 -39.701237 
L 21.881415 -39.398054 
L 21.798443 -39.094872 
L 21.738845 -38.79169 
L 21.704964 -38.488507 
L 21.698228 -38.185325 
L 21.719145 -37.882142 
L 21.767311 -37.57896 
L 21.841445 -37.275778 
L 21.939453 -36.972595 
L 22.058511 -36.669413 
L 22.195187 -36.36623 
L 22.345592 -36.063048 
L 22.505576 -35.759866 
L 22.67095 -35.456683 
L 22.83773 -35.153501 
L 23.002399 -34.850318 
L 23.162152 -34.547136 
L 23.315108 -34.243954 
L 23.460475 -33.940771 
L 23.598633 -33.637589 
L 23.731132 -33.334406 
L 23.860593 -33.031224 
L 23.990513 -32.728042 
L 24.124991 -32.424859 
L 24.268392 -32.121677 
L 24.424984 -31.818494 
L 24.598569 -31.515312 
L 24.79216 -31.21213 
L 25.007709 -30.908947 
L 25.245938 -30.605765 
L 25.506254 -30.302582 
L 25.786772 -29.9994 
L 26.084438 -29.696218 
L 26.395213 -29.393035 
L 26.714313 -29.089853 
L 27.03648 -28.78667 
L 27.356237 -28.483488 
L 27.668125 -28.180306 
L 27.966902 -27.877123 
L 28.247682 -27.573941 
L 28.506039 -27.270758 
L 28.738057 -26.967576 
L 28.940353 -26.664393 
L 29.11008 -26.361211 
L 29.244917 -26.058029 
L 29.343067 -25.754846 
L 29.403245 -25.451664 
L 29.424688 -25.148481 
L 29.407148 -24.845299 
L 29.350892 -24.542117 
L 29.256684 -24.238934 
L 29.125756 -23.935752 
L 28.959757 -23.632569 
L 28.760696 -23.329387 
L 28.530866 -23.026205 
L 28.272777 -22.723022 
L 27.989082 -22.41984 
L 27.682534 -22.116657 
L 27.355952 -21.813475 
L 27.012213 -21.510293 
L 26.654256 -21.20711 
L 26.285112 -20.903928 
L 25.907923 -20.600745 
L 25.52596 -20.297563 
L 25.14263 -19.994381 
L 24.761451 -19.691198 
L 24.386003 -19.388016 
L 24.019854 -19.084833 
L 23.666457 -18.781651 
L 23.329047 -18.478469 
L 23.010515 -18.175286 
L 22.713307 -17.872104 
L 22.439331 -17.568921 
L 22.189896 -17.265739 
L 21.965681 -16.962557 
L 21.766746 -16.659374 
z
" style="stroke: #6f6f6f; stroke-width: 0.15"/>
    </defs>
    <g clip-path="url(#p47f9d8b28e)">
     <use xlink:href="#m16e043e423" x="0" y="84.96" style="fill: #d6bba3; stroke: #6f6f6f; stroke-width: 0.15"/>
    </g>
   </g>
   <g id="PolyCollection_2">
    <defs>
     <path id="m33698fa057" d="M 44.765662 -26.941995 
L 39.97652 -26.941995 
L 39.587359 -27.184739 
L 39.165918 -27.427483 
L 38.715942 -27.670227 
L 38.242567 -27.912971 
L 37.752298 -28.155715 
L 37.252906 -28.398459 
L 36.753248 -28.641203 
L 36.263016 -28.883947 
L 35.792406 -29.126691 
L 35.351739 -29.369435 
L 34.951037 -29.612179 
L 34.599588 -29.854923 
L 34.305519 -30.097667 
L 34.075405 -30.340411 
L 33.913941 -30.583155 
L 33.823702 -30.825899 
L 33.805004 -31.068643 
L 33.855879 -31.311387 
L 33.972173 -31.554131 
L 34.147753 -31.796875 
L 34.374822 -32.039619 
L 34.644311 -32.282363 
L 34.94633 -32.525107 
L 35.270652 -32.767851 
L 35.607188 -33.010595 
L 35.946432 -33.253339 
L 36.279853 -33.496083 
L 36.600196 -33.738827 
L 36.901693 -33.981571 
L 37.180164 -34.224315 
L 37.433016 -34.467059 
L 37.659131 -34.709803 
L 37.85868 -34.952547 
L 38.032852 -35.195291 
L 38.18355 -35.438035 
L 38.313051 -35.680779 
L 38.423677 -35.923523 
L 38.517486 -36.166267 
L 38.596014 -36.409011 
L 38.660078 -36.651755 
L 38.709655 -36.894499 
L 38.743843 -37.137243 
L 38.760906 -37.379988 
L 38.758399 -37.622732 
L 38.733356 -37.865476 
L 38.682544 -38.10822 
L 38.602744 -38.350964 
L 38.491055 -38.593708 
L 38.345197 -38.836452 
L 38.163789 -39.079196 
L 37.946588 -39.32194 
L 37.694665 -39.564684 
L 37.410516 -39.807428 
L 37.098088 -40.050172 
L 36.762722 -40.292916 
L 36.411014 -40.53566 
L 36.050598 -40.778404 
L 35.689863 -41.021148 
L 35.337619 -41.263892 
L 35.002734 -41.506636 
L 34.693758 -41.74938 
L 34.418558 -41.992124 
L 34.183988 -42.234868 
L 33.995614 -42.477612 
L 33.857502 -42.720356 
L 33.772091 -42.9631 
L 33.740156 -43.205844 
L 33.76085 -43.448588 
L 33.831838 -43.691332 
L 33.9495 -43.934076 
L 34.109185 -44.17682 
L 34.305511 -44.419564 
L 34.532678 -44.662308 
L 34.784774 -44.905052 
L 35.056064 -45.147796 
L 35.341229 -45.39054 
L 35.63556 -45.633284 
L 35.935086 -45.876028 
L 36.236629 -46.118772 
L 36.53781 -46.361516 
L 36.836985 -46.60426 
L 37.133146 -46.847004 
L 37.425779 -47.089748 
L 37.714713 -47.332492 
L 37.999965 -47.575236 
L 38.281588 -47.81798 
L 38.55955 -48.060724 
L 38.833641 -48.303468 
L 39.103411 -48.546213 
L 39.36815 -48.788957 
L 39.626898 -49.031701 
L 39.878485 -49.274445 
L 40.121598 -49.517189 
L 40.354854 -49.759933 
L 40.576886 -50.002677 
L 40.786425 -50.245421 
L 40.982372 -50.488165 
L 41.163859 -50.730909 
L 41.330288 -50.973653 
L 43.411894 -50.973653 
L 43.411894 -50.973653 
L 43.578323 -50.730909 
L 43.75981 -50.488165 
L 43.955757 -50.245421 
L 44.165296 -50.002677 
L 44.387328 -49.759933 
L 44.620584 -49.517189 
L 44.863696 -49.274445 
L 45.115284 -49.031701 
L 45.374032 -48.788957 
L 45.638771 -48.546213 
L 45.908541 -48.303468 
L 46.182632 -48.060724 
L 46.460594 -47.81798 
L 46.742217 -47.575236 
L 47.027468 -47.332492 
L 47.316403 -47.089748 
L 47.609036 -46.847004 
L 47.905197 -46.60426 
L 48.204372 -46.361516 
L 48.505553 -46.118772 
L 48.807096 -45.876028 
L 49.106621 -45.633284 
L 49.400953 -45.39054 
L 49.686118 -45.147796 
L 49.957408 -44.905052 
L 50.209504 -44.662308 
L 50.436671 -44.419564 
L 50.632997 -44.17682 
L 50.792682 -43.934076 
L 50.910344 -43.691332 
L 50.981332 -43.448588 
L 51.002026 -43.205844 
L 50.970091 -42.9631 
L 50.88468 -42.720356 
L 50.746568 -42.477612 
L 50.558194 -42.234868 
L 50.323624 -41.992124 
L 50.048424 -41.74938 
L 49.739448 -41.506636 
L 49.404563 -41.263892 
L 49.052319 -41.021148 
L 48.691584 -40.778404 
L 48.331168 -40.53566 
L 47.97946 -40.292916 
L 47.644094 -40.050172 
L 47.331666 -39.807428 
L 47.047517 -39.564684 
L 46.795594 -39.32194 
L 46.578393 -39.079196 
L 46.396985 -38.836452 
L 46.251127 -38.593708 
L 46.139438 -38.350964 
L 46.059638 -38.10822 
L 46.008826 -37.865476 
L 45.983783 -37.622732 
L 45.981275 -37.379988 
L 45.998339 -37.137243 
L 46.032527 -36.894499 
L 46.082104 -36.651755 
L 46.146168 -36.409011 
L 46.224696 -36.166267 
L 46.318505 -35.923523 
L 46.429131 -35.680779 
L 46.558632 -35.438035 
L 46.70933 -35.195291 
L 46.883502 -34.952547 
L 47.083051 -34.709803 
L 47.309166 -34.467059 
L 47.562018 -34.224315 
L 47.840489 -33.981571 
L 48.141986 -33.738827 
L 48.462329 -33.496083 
L 48.79575 -33.253339 
L 49.134994 -33.010595 
L 49.47153 -32.767851 
L 49.795852 -32.525107 
L 50.097871 -32.282363 
L 50.36736 -32.039619 
L 50.594429 -31.796875 
L 50.770009 -31.554131 
L 50.886303 -31.311387 
L 50.937178 -31.068643 
L 50.91848 -30.825899 
L 50.828241 -30.583155 
L 50.666777 -30.340411 
L 50.436663 -30.097667 
L 50.142594 -29.854923 
L 49.791145 -29.612179 
L 49.390443 -29.369435 
L 48.949776 -29.126691 
L 48.479166 -28.883947 
L 47.988934 -28.641203 
L 47.489276 -28.398459 
L 46.989884 -28.155715 
L 46.499615 -27.912971 
L 46.02624 -27.670227 
L 45.576264 -27.427483 
L 45.154823 -27.184739 
L 44.765662 -26.941995 
z
" style="stroke: #6f6f6f; stroke-width: 0.15"/>
    </defs>
    <g clip-path="url(#p47f9d8b28e)">
     <use xlink:href="#m33698fa057" x="0" y="84.96" style="fill: #f1b9e0; stroke: #6f6f6f; stroke-width: 0.15"/>
    </g>
   </g>
   <g id="line2d_8">
    <path d="M 20.793753 64.531054 
L 20.793753 51.37362 
" clip-path="url(#p47f9d8b28e)" style="fill: none; stroke: #8c8c8c; stroke-width: 0.75; stroke-linecap: round"/>
   </g>
   <g id="line2d_9">
    <path d="M 20.793753 60.777039 
L 20.793753 54.930058 
" clip-path="url(#p47f9d8b28e)" style="fill: none; stroke: #8c8c8c; stroke-width: 4; stroke-linecap: round"/>
   </g>
   <g id="line2d_10">
    <path d="M 20.793753 58.675863 
" clip-path="url(#p47f9d8b28e)" style="fill: none; stroke: #6f6f6f; stroke-width: 1.2; stroke-linecap: round"/>
    <defs>
     <path id="m14be3b290d" d="M 0 0.833333 
C 0.221003 0.833333 0.432983 0.745528 0.589256 0.589256 
C 0.745528 0.432983 0.833333 0.221003 0.833333 0 
C 0.833333 -0.221003 0.745528 -0.432983 0.589256 -0.589256 
C 0.432983 -0.745528 0.221003 -0.833333 0 -0.833333 
C -0.221003 -0.833333 -0.432983 -0.745528 -0.589256 -0.589256 
C -0.745528 -0.432983 -0.833333 -0.221003 -0.833333 0 
C -0.833333 0.221003 -0.745528 0.432983 -0.589256 0.589256 
C -0.432983 0.745528 -0.221003 0.833333 0 0.833333 
z
" style="stroke: #ffffff; stroke-width: 0.8"/>
    </defs>
    <g clip-path="url(#p47f9d8b28e)">
     <use xlink:href="#m14be3b290d" x="20.793753" y="58.675863" style="fill: #ffffff; stroke: #ffffff; stroke-width: 0.8"/>
    </g>
   </g>
   <g id="line2d_11">
    <path d="M 42.371091 54.462479 
L 42.371091 37.541874 
" clip-path="url(#p47f9d8b28e)" style="fill: none; stroke: #8c8c8c; stroke-width: 0.75; stroke-linecap: round"/>
   </g>
   <g id="line2d_12">
    <path d="M 42.371091 53.830937 
L 42.371091 42.020711 
" clip-path="url(#p47f9d8b28e)" style="fill: none; stroke: #8c8c8c; stroke-width: 4; stroke-linecap: round"/>
   </g>
   <g id="line2d_13">
    <path d="M 42.371091 45.669365 
" clip-path="url(#p47f9d8b28e)" style="fill: none; stroke: #6f6f6f; stroke-width: 1.2; stroke-linecap: round"/>
    <g clip-path="url(#p47f9d8b28e)">
     <use xlink:href="#m14be3b290d" x="42.371091" y="45.669365" style="fill: #ffffff; stroke: #ffffff; stroke-width: 0.8"/>
    </g>
   </g>
   <g id="patch_3">
    <path d="M 10.005084 74.419526 
L 10.005084 4.076256 
" style="fill: none; stroke: #777777; stroke-width: 0.5; stroke-linejoin: miter; stroke-linecap: square"/>
   </g>
   <g id="patch_4">
    <path d="M 10.005084 76.919526 
L 53.15976 76.919526 
" style="fill: none; stroke: #777777; stroke-width: 0.5; stroke-linejoin: miter; stroke-linecap: square"/>
   </g>
  </g>
 </g>
 <defs>
  <clipPath id="p47f9d8b28e">
   <rect x="10.005084" y="4.076256" width="43.154676" height="70.34327"/>
  </clipPath>
 </defs>
</svg>
